<?xml version="1.0" encoding="utf-8"?>
<svg width="512px" height="512px" viewBox="0 0 512 512" version="1.1" xmlns:xlink="http://www.w3.org/1999/xlink" xmlns="http://www.w3.org/2000/svg">
  <defs>
    <path d="M0 0L512 0L512 512L0 512L0 0Z" id="path_1" />
    <clipPath id="mask_1">
      <use xlink:href="#path_1" />
    </clipPath>
  </defs>
  <g id="channel">
    <path d="M0 0L512 0L512 512L0 512L0 0Z" id="Background" fill="#FFFFFF" fill-opacity="0" fill-rule="evenodd" stroke="none" />
    <g clip-path="url(#mask_1)">
      <path d="M461.484 118.799L267.957 118.799L355.792 40.296C359.071 37.362 359.351 32.325 356.417 29.046C353.483 25.767 348.446 25.487 345.167 28.421L256 108.113L166.834 28.421C163.555 25.487 158.518 25.767 155.584 29.046C152.65 32.325 152.93 37.362 156.209 40.296L244.044 118.799L50.514 118.799C27.132 118.799 8.00004 137.932 8.00004 161.314L8.00004 393.866C8.00004 417.25 27.132 436.382 50.514 436.382L90.326 436.382L74.877 474.659C73.238 478.749 75.225 483.394 79.315 485.034C83.405 486.674 88.05 484.687 89.69 480.597L107.535 436.382L404.465 436.382L422.31 480.597C423.95 484.687 428.595 486.674 432.685 485.034C436.775 483.395 438.762 478.749 437.122 474.659L421.674 436.382L461.486 436.382C484.868 436.382 504.002 417.25 504.002 393.866L504.002 161.314C504 137.932 484.867 118.799 461.484 118.799L461.484 118.799ZM373.335 352.191C372.061 366.976 360.665 378.483 345.895 379.905C239.911 390.111 191.041 387.828 86.703 379.432C71.822 378.235 60.195 366.761 58.806 351.896C53.517 295.36 53.55 262.215 58.9 205.4C60.263 190.929 71.259 179.681 85.695 177.992C193.762 165.34 238.466 165.332 346.451 177.967C360.976 179.666 372.018 191.055 373.27 205.624C378.07 261.488 378.14 296.454 373.335 352.191L373.335 352.191ZM462.909 354.233L419.729 354.233C415.311 354.233 411.729 350.651 411.729 346.233C411.729 341.815 415.311 338.233 419.729 338.233L462.909 338.233C467.327 338.233 470.909 341.815 470.909 346.233C470.909 350.651 467.327 354.233 462.909 354.233L462.909 354.233ZM462.909 308.471L419.729 308.471C415.311 308.471 411.729 304.889 411.729 300.471C411.729 296.053 415.311 292.471 419.729 292.471L462.909 292.471C467.327 292.471 470.909 296.053 470.909 300.471C470.909 304.889 467.327 308.471 462.909 308.471L462.909 308.471ZM462.909 262.709L419.729 262.709C415.311 262.709 411.729 259.127 411.729 254.709C411.729 250.291 415.311 246.709 419.729 246.709L462.909 246.709C467.327 246.709 470.909 250.291 470.909 254.709C470.909 259.127 467.327 262.709 462.909 262.709L462.909 262.709ZM462.909 216.948L419.729 216.948C415.311 216.948 411.729 213.366 411.729 208.948C411.729 204.53 415.311 200.948 419.729 200.948L462.909 200.948C467.327 200.948 470.909 204.53 470.909 208.948C470.909 213.366 467.327 216.948 462.909 216.948L462.909 216.948Z" id="Shape" fill="#1A1A1A" fill-rule="evenodd" stroke="none" />
    </g>
  </g>
</svg>