<svg height="512" viewBox="0 0 24 24" width="512" xmlns="http://www.w3.org/2000/svg"><path d="m15.2928932 12-3.1464466-3.14644661c-.1952621-.19526215-.1952621-.51184463 0-.70710678.1952622-.19526215.5118446-.19526215.7071068 0l4 3.99999999c.1952621.1952622.1952621.5118446 0 .7071068l-4 4c-.1952622.1952621-.5118446.1952621-.7071068 0-.1952621-.1952622-.1952621-.5118446 0-.7071068l3.1464466-3.1464466h-10.7928932c-.27614237 0-.5-.2238576-.5-.5s.22385763-.5.5-.5zm3.7071068-6.5c0-.27614237.2238576-.5.5-.5s.5.22385763.5.5v14c0 .2761424-.2238576.5-.5.5s-.5-.2238576-.5-.5z"/></svg>