<?xml version="1.0" encoding="utf-8"?>
<svg width="512px" height="512px" viewBox="0 0 512 512" version="1.1" xmlns:xlink="http://www.w3.org/1999/xlink" xmlns="http://www.w3.org/2000/svg">
  <defs>
    <path d="M0 0L512 0L512 512L0 512L0 0Z" id="path_1" />
    <clipPath id="mask_1">
      <use xlink:href="#path_1" />
    </clipPath>
  </defs>
  <g id="calendar">
    <path d="M0 0L512 0L512 512L0 512L0 0Z" id="Background" fill="#FFFFFF" fill-opacity="0" fill-rule="evenodd" stroke="none" />
    <g clip-path="url(#mask_1)">
      <g id="Group" transform="translate(25.626991 -1.1444092E-05)">
        <path d="M365.39 251.454L401.104 251.454C409.178 251.454 415.747 244.885 415.747 236.811L415.747 201.097C415.747 193.023 409.178 186.454 401.104 186.454L365.39 186.454C357.316 186.454 350.747 193.023 350.747 201.097L350.747 236.811C350.747 244.885 357.316 251.454 365.39 251.454L365.39 251.454ZM365.747 201.454L400.747 201.454L400.747 236.454L365.747 236.454L365.747 201.454ZM365.39 346.454L401.104 346.454C409.178 346.454 415.747 339.885 415.747 331.811L415.747 296.097C415.747 288.023 409.178 281.454 401.104 281.454L365.39 281.454C357.316 281.454 350.747 288.023 350.747 296.097L350.747 331.811C350.747 339.885 357.316 346.454 365.39 346.454L365.39 346.454ZM365.747 296.454L400.747 296.454L400.747 331.454L365.747 331.454L365.747 296.454ZM263.474 251.454L299.188 251.454C307.262 251.454 313.831 244.885 313.831 236.811L313.831 201.097C313.831 193.023 307.262 186.454 299.188 186.454L263.474 186.454C255.4 186.454 248.831 193.023 248.831 201.097L248.831 236.811C248.831 244.885 255.4 251.454 263.474 251.454L263.474 251.454ZM263.831 201.454L298.831 201.454L298.831 236.454L263.831 236.454L263.831 201.454ZM95.356 372L59.642 372C51.568 372 44.999 378.569 44.999 386.643L44.999 422.357C44.999 430.431 51.568 437 59.642 437L95.356 437C103.43 437 109.999 430.431 109.999 422.357L109.999 386.643C109.999 378.569 103.43 372 95.356 372L95.356 372ZM94.999 422L59.999 422L59.999 387L94.999 387L94.999 422ZM95.356 186.454L59.642 186.454C51.568 186.454 44.999 193.023 44.999 201.097L44.999 236.811C44.999 244.885 51.568 251.454 59.642 251.454L95.356 251.454C103.43 251.454 109.999 244.885 109.999 236.811L109.999 201.097C109.999 193.022 103.43 186.454 95.356 186.454L95.356 186.454ZM94.999 236.454L59.999 236.454L59.999 201.454L94.999 201.454L94.999 236.454ZM263.474 344.227L299.188 344.227C307.262 344.227 313.831 337.658 313.831 329.584L313.831 293.87C313.831 285.796 307.262 279.227 299.188 279.227L263.474 279.227C255.4 279.227 248.831 285.796 248.831 293.87L248.831 329.584C248.831 337.658 255.4 344.227 263.474 344.227L263.474 344.227ZM263.831 294.227L298.831 294.227L298.831 329.227L263.831 329.227L263.831 294.227ZM423.196 34.274L391.13 34.274L391.13 22.807C391.13 10.231 380.899 0 368.323 0L364.879 0C352.304 0 342.073 10.231 342.073 22.807L342.073 34.274L118.673 34.274L118.673 22.807C118.673 10.231 108.442 0 95.866 0L92.422 0C79.846 0 69.615 10.231 69.615 22.807L69.615 34.274L37.55 34.274C16.845 34.274 0 51.119 0 71.824L0 474.5C0 495.178 16.822 512 37.5 512L423.248 512C443.926 512 460.748 495.178 460.748 474.5L460.748 71.824C460.747 51.119 443.902 34.274 423.196 34.274L423.196 34.274ZM357.073 22.807C357.073 18.502 360.575 15 364.88 15L368.324 15C372.629 15 376.131 18.502 376.131 22.807L376.131 34.274L357.073 34.274L357.073 22.807ZM84.616 22.807C84.616 18.502 88.118 15 92.423 15L95.867 15C100.172 15 103.674 18.502 103.674 22.807L103.674 34.274L84.617 34.274L84.617 22.807L84.616 22.807ZM445.747 474.5C445.747 486.907 435.654 497 423.247 497L37.499 497C25.092 497 14.999 486.907 14.999 474.5L14.999 474.453C21.283 479.188 29.094 482 37.55 482L341.633 482C351.663 482 361.093 478.094 368.185 471.001L445.747 393.439L445.747 474.5ZM360.532 457.441C361.12 455.014 361.44 452.483 361.44 449.878L361.44 399.814C361.44 390.374 369.121 382.693 378.562 382.693L428.625 382.693C431.23 382.693 433.761 382.373 436.188 381.785L360.532 457.441ZM445.747 141.454L126.173 141.454C122.031 141.454 118.673 144.812 118.673 148.954C118.673 153.096 122.031 156.454 126.173 156.454L445.747 156.454L445.747 350.572C445.747 360.013 438.066 367.694 428.625 367.694L378.562 367.694C360.85 367.694 346.44 382.104 346.44 399.815L346.44 449.879C346.44 459.32 338.759 467.001 329.319 467.001L37.55 467.001C25.116 467.001 15 456.885 15 444.45L15 156.454L96.173 156.454C100.315 156.454 103.673 153.096 103.673 148.954C103.673 144.812 100.315 141.454 96.173 141.454L14.999 141.454L14.999 71.824C14.999 59.39 25.115 49.274 37.549 49.274L69.615 49.274L69.615 71.326C69.615 83.902 79.846 94.133 92.422 94.133C96.564 94.133 99.922 90.775 99.922 86.633C99.922 82.491 96.564 79.133 92.422 79.133C88.117 79.133 84.615 75.631 84.615 71.326L84.615 49.274L342.073 49.274L342.073 71.326C342.073 83.902 352.304 94.133 364.88 94.133C369.022 94.133 372.38 90.775 372.38 86.633C372.38 82.491 369.022 79.133 364.88 79.133C360.575 79.133 357.073 75.631 357.073 71.326L357.073 49.274L423.197 49.274C435.631 49.274 445.747 59.39 445.747 71.824L445.747 141.454ZM95.356 279.227L59.642 279.227C51.568 279.227 44.999 285.796 44.999 293.87L44.999 329.584C44.999 337.658 51.568 344.227 59.642 344.227L95.356 344.227C103.43 344.227 109.999 337.658 109.999 329.584L109.999 293.87C109.999 285.795 103.43 279.227 95.356 279.227L95.356 279.227ZM94.999 329.227L59.999 329.227L59.999 294.227L94.999 294.227L94.999 329.227ZM161.558 251.454L197.272 251.454C205.346 251.454 211.915 244.885 211.915 236.811L211.915 201.097C211.915 193.023 205.346 186.454 197.272 186.454L161.558 186.454C153.484 186.454 146.915 193.023 146.915 201.097L146.915 236.811C146.915 244.885 153.484 251.454 161.558 251.454L161.558 251.454ZM161.915 201.454L196.915 201.454L196.915 236.454L161.915 236.454L161.915 201.454ZM263.822 422C263.636 418.023 260.353 414.857 256.33 414.857C252.188 414.857 248.83 418.215 248.83 422.357C248.83 430.431 255.399 437 263.473 437L299.187 437C307.261 437 313.83 430.431 313.83 422.357L313.83 386.643C313.83 378.569 307.261 372 299.187 372L263.473 372C255.399 372 248.83 378.569 248.83 386.643L248.83 396.943C248.83 401.085 252.188 404.443 256.33 404.443C260.472 404.443 263.83 401.085 263.83 396.943L263.83 387L298.83 387L298.83 422L263.822 422ZM161.558 344.227L197.272 344.227C205.346 344.227 211.915 337.658 211.915 329.584L211.915 293.87C211.915 285.796 205.346 279.227 197.272 279.227L161.558 279.227C153.484 279.227 146.915 285.796 146.915 293.87L146.915 329.584C146.915 337.658 153.484 344.227 161.558 344.227L161.558 344.227ZM161.915 294.227L196.915 294.227L196.915 329.227L161.915 329.227L161.915 294.227ZM161.558 437L197.272 437C205.346 437 211.915 430.431 211.915 422.357L211.915 386.643C211.915 378.569 205.346 372 197.272 372L161.558 372C153.484 372 146.915 378.569 146.915 386.643L146.915 422.357C146.915 430.431 153.484 437 161.558 437L161.558 437ZM161.915 387L196.915 387L196.915 422L161.915 422L161.915 387Z" id="Shape" fill="#1A1A1A" fill-rule="evenodd" stroke="none" />
      </g>
    </g>
  </g>
</svg>