<?xml version="1.0" encoding="utf-8"?>
<svg width="512px" height="512px" viewBox="0 0 512 512" version="1.1" xmlns:xlink="http://www.w3.org/1999/xlink" xmlns="http://www.w3.org/2000/svg">
  <defs>
    <path d="M0 0L512 0L512 512L0 512L0 0Z" id="path_1" />
    <clipPath id="mask_1">
      <use xlink:href="#path_1" />
    </clipPath>
  </defs>
  <g id="folder2">
    <path d="M0 0L512 0L512 512L0 512L0 0Z" id="Background" fill="#FFFFFF" fill-opacity="0" fill-rule="evenodd" stroke="none" />
    <g clip-path="url(#mask_1)">
      <path d="M466.6 199.1C458.3 187.8 445.5 181.3 431.5 181.3L420.9 181.3L420.9 152.8C420.9 128.8 401.4 109.3 377.3 109.3L250.1 109.3C242.8 109.3 235.8 106.4 230.6 101.3L210.6 81.4C202.4 73.2 191.5 68.7 179.9 68.7L80.5 68.7C56.5 68.7 37 88.2 37 112.3L37 366C36.7 375.7 39.6 385.3 45.5 393.3C53.9 404.7 66.8 411.3 81 411.3L386.9 411.3C406 411.3 422.7 399 428.5 380.7L473.2 237.8C477.3 224.5 474.9 210.4 466.6 199.1L466.6 199.1ZM52.9 112.3C52.9 97.1 65.3 84.7 80.4 84.7L179.9 84.7C187.2 84.7 194.1 87.6 199.4 92.7L219.4 112.6C227.6 120.8 238.5 125.3 250.1 125.3L377.4 125.3C392.6 125.3 405 137.7 405 152.8L405 181.3L125 181.3C105.9 181.3 89.2 193.6 83.4 211.8L52.8 309.4L52.8 112.3L52.9 112.3ZM457.8 233.1L413.1 376C409.5 387.6 398.9 395.3 386.8 395.3L80.9 395.3C71.9 395.3 63.7 391.1 58.3 383.9C53 376.6 51.4 367.5 54.1 358.9L98.6 216.6C102.2 205 112.8 197.3 124.9 197.3L431.4 197.3C440.3 197.3 448.4 201.4 453.6 208.5C459 215.7 460.5 224.6 457.8 233.1L457.8 233.1Z" id="XMLID_52_" fill="#1A1A1A" fill-rule="evenodd" stroke="none" />
    </g>
  </g>
</svg>