<?xml version="1.0" encoding="utf-8"?>
<svg width="512px" height="512px" viewBox="0 0 512 512" version="1.1" xmlns:xlink="http://www.w3.org/1999/xlink" xmlns="http://www.w3.org/2000/svg">
  <defs>
    <path d="M0 0L512 0L512 512L0 512L0 0L0 0Z" id="path_1" />
    <clipPath id="mask_1">
      <use xlink:href="#path_1" />
    </clipPath>
  </defs>
  <g id="fps2">
    <g id="fps2">
      <path d="M0 0L512 0L512 512L0 512L0 0L0 0Z" id="Background" fill="#FFFFFF" fill-opacity="0" fill-rule="evenodd" stroke="none" />
      <g id="Mask-Group">
        <path d="M0 0L512 0L512 512L0 512L0 0L0 0Z" id="path_1" fill="none" stroke="none" />
        <g clip-path="url(#mask_1)">
          <g id="Group" transform="translate(21.3333 21.3333)">
            <path d="M448 213.334L234.667 213.334C222.885 213.334 213.334 222.885 213.334 234.667L213.334 448C213.334 459.782 222.885 469.334 234.667 469.334L448 469.334C459.782 469.334 469.334 459.782 469.334 448L469.334 234.667C469.334 222.885 459.782 213.334 448 213.334L448 213.334L448 213.334ZM426.667 426.667L256 426.667L256 256L426.667 256L426.667 426.667L426.667 426.667Z" id="Shape" fill="#1A1A1A" fill-rule="evenodd" stroke="none" />
            <path d="M42.6667 234.667L42.6667 42.6667L234.667 42.6667C246.449 42.6667 256 33.1155 256 21.3334C256 9.5514 246.449 0.000101089 234.667 0L21.3334 0C9.5513 0 0 9.5513 0 21.3334L0 234.667C0 246.449 9.5513 256 21.3333 256C33.1154 256 42.6666 246.449 42.6667 234.667L42.6667 234.667L42.6667 234.667Z" id="Shape#1" fill="#1A1A1A" stroke="none" />
            <path d="M128 106.667C116.218 106.667 106.667 116.218 106.667 128L106.667 341.334C106.667 353.116 116.218 362.667 128 362.667C139.782 362.667 149.334 353.116 149.334 341.334L149.334 149.334L341.334 149.334C353.116 149.334 362.667 139.782 362.667 128C362.667 116.218 353.116 106.667 341.334 106.667L128 106.667L128 106.667Z" id="Shape#2" fill="#1A1A1A" stroke="none" />
          </g>
        </g>
      </g>
    </g>
  </g>
</svg>