<?xml version="1.0" encoding="iso-8859-1"?>
<!-- Generator: Adobe Illustrator 19.0.0, SVG Export Plug-In . SVG Version: 6.00 Build 0)  -->
<svg version="1.1" id="Capa_1" xmlns="http://www.w3.org/2000/svg" xmlns:xlink="http://www.w3.org/1999/xlink" x="0px" y="0px"
	 viewBox="0 0 512 512" style="enable-background:new 0 0 512 512;" xml:space="preserve">
<g>
	<g>
		<path d="M393.38,133.12c-79.626,0-119.337,59.228-154.378,111.473c-33.608,50.094-62.628,93.327-120.381,93.327
			c-42.824,0-77.66-36.741-77.66-81.92s34.816-81.92,77.619-81.92c26.214,0,47.944,8.643,68.444,27.3
			c4.669,4.198,9.175,8.827,13.332,13.64c7.414,8.561,20.337,9.482,28.897,2.109c8.561-7.414,9.503-20.357,2.109-28.918
			c-5.345-6.144-11.059-12.001-16.876-17.203c-28.017-25.518-59.371-37.888-95.867-37.888C53.228,133.12,0,188.232,0,256
			s53.228,122.88,118.62,122.88c79.626,0,119.337-59.228,154.378-111.473c33.608-50.094,62.628-93.327,120.381-93.327
			c42.824,0,77.66,36.741,77.66,81.92s-34.816,81.92-77.619,81.92c-26.214,0-47.944-8.643-68.444-27.3
			c-4.669-4.198-9.175-8.827-13.332-13.64c-7.434-8.561-20.337-9.462-28.897-2.109c-8.561,7.414-9.503,20.357-2.109,28.918
			c5.345,6.144,11.059,12.001,16.875,17.203c28.017,25.518,59.372,37.888,95.867,37.888C458.772,378.88,512,323.768,512,256
			S458.772,133.12,393.38,133.12z"/>
	</g>
</g>
<g>
</g>
<g>
</g>
<g>
</g>
<g>
</g>
<g>
</g>
<g>
</g>
<g>
</g>
<g>
</g>
<g>
</g>
<g>
</g>
<g>
</g>
<g>
</g>
<g>
</g>
<g>
</g>
<g>
</g>
</svg>
