<?xml version="1.0" encoding="utf-8"?>
<svg width="193.826px" height="193.827px" viewBox="0 0 193.826 193.827" version="1.1" xmlns:xlink="http://www.w3.org/1999/xlink" xmlns="http://www.w3.org/2000/svg">
  <defs>
    <path d="M0 0L193.826 0L193.826 193.827L0 193.827L0 0Z" id="path_1" />
    <path d="M0 0L193.826 0L193.826 193.826L0 193.826L0 0L0 0L0 0Z" id="path_2" />
    <clipPath id="mask_1">
      <use xlink:href="#path_1" />
    </clipPath>
    <clipPath id="mask_2">
      <use xlink:href="#path_2" />
    </clipPath>
  </defs>
  <g id="pin">
    <path d="M0 0L193.826 0L193.826 193.827L0 193.827L0 0Z" id="Background" fill="#FFFFFF" fill-opacity="0" fill-rule="evenodd" stroke="none" />
    <g clip-path="url(#mask_1)">
      <g id="pin">
        <g id="pin#1">
          <path d="M0 0L193.826 0L193.826 193.826L0 193.826L0 0L0 0L0 0Z" id="Background" fill="#FFFFFF" fill-opacity="0" fill-rule="evenodd" stroke="none" />
          <g id="Mask-Group">
            <path d="M0 0L193.826 0L193.826 193.826L0 193.826L0 0L0 0L0 0Z" id="path_1#1" fill="none" stroke="none" />
            <g id="Mask-Group">
              <path d="M0 0L193.826 0L193.826 193.826L0 193.826L0 0L0 0L0 0Z" id="path_1" fill="none" stroke="none" />
              <g clip-path="url(#mask_2)">
                <g id="Group" transform="translate(0.8654243 0.00024998188)">
                  <g id="Group">
                    <path d="M190.63 55.5107L136.584 1.46475C134.633 -0.48825 131.465 -0.48825 129.514 1.46475L129.285 1.69375C125.971 5.00675 124.145 9.41375 124.145 14.0998C124.145 17.1187 124.912 20.0158 126.337 22.5847L69.7866 71.1178C65.4586 67.2497 59.9346 65.1328 54.0836 65.1328C47.7786 65.1328 41.8516 67.5878 37.3946 72.0457L37.0556 72.3848C35.1026 74.3367 35.1026 77.5027 37.0556 79.4548L69.4336 111.833L37.8996 143.366C37.2686 144.015 22.3426 159.396 12.5296 171.636C3.18457 183.289 1.33657 185.424 1.24058 185.534C-0.49443 187.51 -0.39843 190.49 1.45858 192.356C2.43158 193.333 3.71458 193.827 5.00157 193.827C6.17457 193.827 7.35057 193.417 8.29657 192.59C8.37958 192.518 10.4656 190.705 22.1946 181.301C34.4326 171.488 49.8136 156.561 50.5126 155.88L81.9956 124.397L112.64 155.041C113.616 156.018 114.896 156.506 116.175 156.506C117.454 156.506 118.735 156.018 119.71 155.041L120.049 154.702C124.507 150.245 126.962 144.317 126.962 138.013C126.962 132.162 124.844 126.638 120.977 122.31L169.51 65.7598C172.079 67.1847 174.976 67.9518 177.995 67.9518C182.682 67.9518 187.088 66.1267 190.401 62.8117L190.63 62.5828C192.583 60.6288 192.583 57.4628 190.63 55.5107L190.63 55.5107L190.63 55.5107L190.63 55.5107Z" id="Shape" fill="#FFFFFF" stroke="none" />
                  </g>
                </g>
              </g>
            </g>
          </g>
        </g>
      </g>
    </g>
  </g>
</svg>