<?xml version="1.0" encoding="utf-8"?>
<svg width="512px" height="512px" viewBox="0 0 512 512" version="1.1" xmlns:xlink="http://www.w3.org/1999/xlink" xmlns="http://www.w3.org/2000/svg">
  <defs>
    <path d="M0 0L512 0L512 512L0 512L0 0Z" id="path_1" />
    <clipPath id="mask_1">
      <use xlink:href="#path_1" />
    </clipPath>
  </defs>
  <g id="refresh2">
    <path d="M0 0L512 0L512 512L0 512L0 0Z" id="Background" fill="#FFFFFF" fill-opacity="0" fill-rule="evenodd" stroke="none" />
    <g clip-path="url(#mask_1)">
      <g id="Group" transform="translate(42.66668 -0.5333328)">
        <path d="M42.6667 194.667C46.9333 156.267 64 120 91.7333 92.2667C125.867 60.2667 168.533 43.2 213.333 43.2C256 43.2 300.8 60.2667 334.933 92.2667L298.667 128.533L405.333 128.533L405.333 21.8667L364.8 62.4C281.6 -20.8 145.067 -20.8 61.8667 62.4C27.7333 96.5333 6.4 141.333 0 190.4L0 213.867L42.6667 213.867C42.6667 207.467 42.6667 201.067 42.6667 194.667L42.6667 194.667Z" id="Shape" fill="#FFFFFF" stroke="none" />
        <path d="M384 213.867C384 258.667 366.933 303.467 334.933 335.467C300.8 367.467 258.133 384.533 213.333 384.533C168.533 384.533 125.867 367.467 91.7333 335.467L128 299.2L21.3333 299.2L21.3333 405.867L61.8667 365.333C102.4 405.867 155.733 427.2 213.333 427.2C270.933 427.2 324.267 405.867 364.8 365.333C405.333 324.8 426.667 269.333 426.667 213.867L384 213.867Z" id="Shape" fill="#FFFFFF" stroke="none" />
      </g>
    </g>
  </g>
</svg>