<?xml version="1.0" encoding="utf-8"?>
<svg width="576px" height="512px" viewBox="0 0 576 512" version="1.1" xmlns:xlink="http://www.w3.org/1999/xlink" xmlns="http://www.w3.org/2000/svg">
  <defs>
    <path d="M0 0L576 0L576 512L0 512L0 0Z" id="path_1" />
    <clipPath id="mask_1">
      <use xlink:href="#path_1" />
    </clipPath>
  </defs>
  <g id="folderOpen">
    <path d="M0 0L576 0L576 512L0 512L0 0Z" id="Background" fill="#FFFFFF" fill-opacity="0" fill-rule="evenodd" stroke="none" />
    <g clip-path="url(#mask_1)">
      <path d="M147.8 192L480 192L480 144C480 117.5 458.5 96 432 96L272 96L208 32L48 32C21.49 32 0 53.49 0 80L0 408.4L90.54 227.3C101.4 205.6 123.4 192 147.8 192L147.8 192ZM543.1 224L147.8 224C135.7 224 124.6 230.8 119.2 241.7L0 480L447.1 480C459.22 480 470.3 473.148 475.72 462.31L571.72 270.31C583.2 249 567.7 224 543.1 224L543.1 224Z" id="Shape" fill="#1A1A1A" fill-rule="evenodd" stroke="none" />
    </g>
  </g>
</svg>