<?xml version="1.0" encoding="utf-8"?>
<svg width="512px" height="512px" viewBox="0 0 512 512" version="1.1" xmlns:xlink="http://www.w3.org/1999/xlink" xmlns="http://www.w3.org/2000/svg">
  <defs>
    <path d="M0 0L512 0L512 512L0 512L0 0Z" id="path_1" />
    <clipPath id="mask_1">
      <use xlink:href="#path_1" />
    </clipPath>
  </defs>
  <g id="removeAll3">
    <path d="M0 0L512 0L512 512L0 512L0 0Z" id="Background" fill="#FFFFFF" fill-opacity="0" fill-rule="evenodd" stroke="none" />
    <g clip-path="url(#mask_1)">
      <g id="Layer_x0020_1" transform="translate(13.149291 0)">
        <path d="M231.25 144.626L299.31 0L310.911 146.174L447.031 64.9656L361.183 202.633L485.701 213.46L365.049 282.294L470.234 373.557L326.379 352.675L345.714 494.986L252.906 387.481L187.939 512L177.884 382.841L39.4442 469.464L128.386 329.475L0 320.968L116.785 252.908L12.3756 159.325L162.416 182.528L148.496 54.1419L231.25 144.626ZM203.592 176.073L209.652 231.959L144.556 221.892L187.16 260.08L138.522 288.425L201.156 292.575L173.106 336.721L214.057 311.099L218.179 364.04L244.354 313.868L285.581 361.623L277.69 303.538L335.718 311.962L293.397 275.243L349.242 243.382L289.925 238.224L320.762 188.774L274.71 216.249L270.215 159.599L242.461 218.574L203.592 176.073Z" id="Shape" fill="#1A1A1A" fill-rule="evenodd" stroke="none" />
      </g>
    </g>
  </g>
</svg>