<?xml version="1.0" encoding="utf-8"?>
<svg width="512px" height="512px" viewBox="0 0 512 512" version="1.1" xmlns:xlink="http://www.w3.org/1999/xlink" xmlns="http://www.w3.org/2000/svg">
  <defs>
    <path d="M0 0L512 0L512 512L0 512L0 0Z" id="path_1" />
    <clipPath id="mask_1">
      <use xlink:href="#path_1" />
    </clipPath>
  </defs>
  <g id="sortZA">
    <path d="M0 0L512 0L512 512L0 512L0 0Z" id="Background" fill="#FFFFFF" fill-opacity="0" fill-rule="evenodd" stroke="none" />
    <g clip-path="url(#mask_1)">
      <g id="Group" transform="translate(25.599989 0)">
        <path d="M424.96 373.76L384 414.72L384 0L332.8 0L332.8 414.72L294.4 373.76L258.56 412.16L358.4 512L460.8 412.16L424.96 373.76Z" id="Shape" fill="#1A1A1A" stroke="none" />
        <path d="M7.68001 186.88C9.53674e-06 194.56 9.53674e-06 207.36 2.56001 215.04C7.68001 225.28 15.36 230.4 25.6 230.4L204.8 230.4L204.8 179.2L81.92 179.2L199.68 43.52C204.8 35.84 207.36 23.04 202.24 15.36C199.68 5.12002 189.44 1.83105e-05 179.2 1.83105e-05L0 1.83105e-05L0 51.2L122.88 51.2L7.68001 186.88Z" id="Shape" fill="#1A1A1A" stroke="none" />
        <path d="M125.44 296.96C122.88 286.72 112.64 281.6 102.4 281.6C92.16 281.6 81.92 286.72 79.36 296.96L2.56001 476.16C-2.55999 488.96 2.56001 504.32 15.36 509.44C17.92 512 38.4 517.12 48.64 496.64L64 460.8L140.8 460.8L156.16 496.64C161.28 509.44 176.64 514.56 189.44 509.44C202.24 504.32 207.36 488.96 202.24 476.16L125.44 296.96ZM87.04 409.6L102.4 371.2L117.76 409.6L87.04 409.6Z" id="Shape" fill="#1A1A1A" fill-rule="evenodd" stroke="none" />
      </g>
    </g>
  </g>
</svg>