<?xml version="1.0" encoding="utf-8"?>
<svg width="512px" height="512px" viewBox="0 0 512 512" version="1.1" xmlns:xlink="http://www.w3.org/1999/xlink" xmlns="http://www.w3.org/2000/svg">
  <defs>
    <path d="M0 0L512 0L512 512L0 512L0 0Z" id="path_1" />
    <clipPath id="mask_1">
      <use xlink:href="#path_1" />
    </clipPath>
  </defs>
  <g id="sortAZ">
    <path d="M0 0L512 0L512 512L0 512L0 0Z" id="Background" fill="#FFFFFF" fill-opacity="0" fill-rule="evenodd" stroke="none" />
    <g clip-path="url(#mask_1)">
      <g id="Group" transform="translate(24.591707 0)">
        <path d="M425.968 373.76L385.008 414.72L385.008 0L333.808 0L333.808 414.72L295.408 373.76L259.568 412.16L359.408 512L461.808 412.16L425.968 373.76Z" id="Shape" fill="#1A1A1A" stroke="none" />
        <path d="M200.688 322.56C208.368 314.88 208.368 304.64 203.248 294.4C200.688 286.72 190.448 281.6 180.208 281.6L1.00832 281.6L1.00832 332.8L123.888 332.8L6.12832 468.48C-1.55168 476.16 -1.55168 486.4 3.56833 496.64C8.68832 506.88 16.3683 512 26.6083 512L205.808 512L205.808 460.8L82.9283 460.8L200.688 322.56Z" id="Shape" fill="#1A1A1A" stroke="none" />
        <path d="M126.448 15.36C123.888 5.12 113.648 0 103.408 0C93.1683 0 85.4883 5.12 80.3683 15.36L3.56829 194.56C-1.55171 207.36 3.56829 222.72 16.3683 227.84C29.1683 232.96 44.5283 227.84 49.6483 215.04L65.0083 179.2L141.808 179.2L157.168 215.04C167.408 235.52 187.888 230.4 190.448 227.84C203.248 222.72 208.368 207.36 203.248 194.56L126.448 15.36ZM88.0483 128L103.408 89.6L118.768 128L88.0483 128Z" id="Shape" fill="#1A1A1A" fill-rule="evenodd" stroke="none" />
      </g>
    </g>
  </g>
</svg>