<?xml version="1.0" encoding="utf-8"?>
<svg width="50px" height="50px" viewBox="0 0 50 50" version="1.1" xmlns:xlink="http://www.w3.org/1999/xlink" xmlns="http://www.w3.org/2000/svg">
  <defs>
    <linearGradient gradientUnits="userSpaceOnUse" x1="18.75" y1="46.875004" x2="18.75" y2="0" id="gradient_1">
      <stop offset="0%" stop-color="#12C2E9" />
      <stop offset="50%" stop-color="#C471ED" />
      <stop offset="100%" stop-color="#F64F59" />
    </linearGradient>
    <path d="M0 0L50 0L50 50L0 50L0 0Z" id="path_1" />
    <clipPath id="mask_1">
      <use xlink:href="#path_1" />
    </clipPath>
  </defs>
  <g id="mp4">
    <path d="M0 0L50 0L50 50L0 50L0 0Z" id="Background" fill="#FFFFFF" fill-opacity="0" fill-rule="evenodd" stroke="none" />
    <g clip-path="url(#mask_1)">
      <path d="M34.1462 1.79131C33.9997 1.6448 33.8009 1.56249 33.5938 1.5625L11.7188 1.5625C8.69985 1.56589 6.25339 4.01235 6.25 7.03125L6.25 42.9688C6.25313 45.9872 8.69937 48.4338 11.7183 48.4375L38.2813 48.4375C41.3002 48.4341 43.7466 45.9877 43.75 42.9688L43.75 11.7188C43.75 11.5115 43.6677 11.3128 43.5212 11.1663L34.1462 1.79131ZM34.375 4.22978L41.0827 10.9375L38.2813 10.9375C36.1249 10.9351 34.3774 9.1876 34.375 7.03125L34.375 4.22978ZM11.7188 3.125L32.8125 3.125L32.8125 7.03125C32.8156 10.0497 35.2619 12.4963 38.2808 12.5L42.1875 12.5L42.1875 34.375L7.8125 34.375L7.8125 7.03125C7.81485 4.87501 9.56227 3.12749 11.7186 3.125L11.7188 3.125ZM38.2813 46.875L11.7188 46.875C9.56239 46.8726 7.81492 45.1251 7.8125 42.9688L7.8125 35.9375L42.1875 35.9375L42.1875 42.9688C42.1851 45.125 40.4377 46.8725 38.2814 46.875L38.2813 46.875ZM21.875 38.2812L21.875 44.5312C21.875 44.8104 21.7261 45.0683 21.4844 45.2078C21.2427 45.3474 20.9448 45.3474 20.7031 45.2078C20.4614 45.0683 20.3125 44.8104 20.3125 44.5312L20.3125 40.1674L19.3024 41.1774C19.1559 41.3239 18.9572 41.4063 18.75 41.4063C18.5428 41.4063 18.3441 41.324 18.1976 41.1774L17.1875 40.1673L17.1875 44.5312C17.1875 44.8104 17.0386 45.0683 16.7969 45.2078C16.5552 45.3474 16.2573 45.3474 16.0156 45.2078C15.7739 45.0683 15.625 44.8104 15.625 44.5312L15.625 38.2812C15.625 37.9652 15.8154 37.6803 16.1073 37.5594C16.3992 37.4385 16.7353 37.5054 16.9587 37.7288L18.75 39.5202L20.5413 37.7288L20.5413 37.7288C20.7647 37.5054 21.1008 37.4385 21.3927 37.5594C21.6847 37.6804 21.875 37.9652 21.875 38.2812L21.875 38.2812ZM25.7813 37.5L24.2188 37.5C23.7873 37.5 23.4375 37.8498 23.4375 38.2813L23.4375 44.5313C23.4375 44.9627 23.7873 45.3125 24.2187 45.3125C24.6502 45.3125 25 44.9627 25 44.5313L25 42.1875L25.7813 42.1875C27.0757 42.1875 28.125 41.1382 28.125 39.8438C28.125 38.5493 27.0757 37.5 25.7813 37.5L25.7813 37.5ZM25.7813 40.625L25 40.625L25 39.0625L25.7813 39.0625C26.0604 39.0625 26.3183 39.2114 26.4578 39.4531C26.5974 39.6948 26.5974 39.9927 26.4578 40.2344C26.3183 40.4761 26.0604 40.625 25.7813 40.625L25.7813 40.625ZM34.375 38.2813L34.375 44.5313C34.375 44.8104 34.2261 45.0683 33.9844 45.2078C33.7427 45.3474 33.4448 45.3474 33.2031 45.2078C32.9614 45.0683 32.8125 44.8104 32.8125 44.5313L32.8125 42.1875L30.4688 42.1875C30.0373 42.1875 29.6875 41.8377 29.6875 41.4063L29.6875 38.2813C29.6875 38.0021 29.8364 37.7442 30.0781 37.6047C30.3198 37.4651 30.6177 37.4651 30.8594 37.6047C31.1011 37.7442 31.25 38.0021 31.25 38.2813L31.25 40.625L32.8125 40.625L32.8125 38.2813C32.8125 38.0021 32.9614 37.7442 33.2031 37.6047C33.4448 37.4651 33.7427 37.4651 33.9844 37.6047C34.2261 37.7442 34.375 38.0021 34.375 38.2813L34.375 38.2813ZM25 29.6875C30.6091 29.6875 35.1562 25.1404 35.1563 19.5313C35.1563 13.9221 30.6092 9.37502 25 9.375C19.3909 9.37498 14.8438 13.9221 14.8438 19.5312C14.8499 25.1374 19.3931 29.681 24.9996 29.6875L25 29.6875ZM25 10.9375C29.7462 10.9375 33.5937 14.785 33.5938 19.5312C33.5938 24.2774 29.7462 28.125 25 28.125C20.2538 28.125 16.4063 24.2775 16.4063 19.5313C16.4114 14.7876 20.2557 10.9431 24.9997 10.9375L25 10.9375ZM22.2455 23.3208C22.4758 23.4632 22.7635 23.4761 23.0057 23.355L29.2557 20.23C29.5203 20.0976 29.6874 19.8271 29.6874 19.5313C29.6874 19.2354 29.5203 18.9649 29.2557 18.8325L23.0057 15.7075C22.7635 15.5864 22.4759 15.5994 22.2455 15.7417C22.0152 15.884 21.875 16.1355 21.875 16.4063L21.875 22.6563C21.875 22.927 22.0152 23.1784 22.2455 23.3208L22.2455 23.3208ZM23.4375 17.6703L27.1593 19.5313L23.4375 21.3922L23.4375 17.6703Z" id="Shape" fill="url(#gradient_1)" fill-rule="evenodd" stroke="none" />
    </g>
  </g>
</svg>