<?xml version="1.0" encoding="utf-8"?>
<svg width="448px" height="512px" viewBox="0 0 448 512" version="1.1" xmlns:xlink="http://www.w3.org/1999/xlink" xmlns="http://www.w3.org/2000/svg">
  <defs>
    <path d="M0 0L448 0L448 512L0 512L0 0L0 0Z" id="path_1" />
    <clipPath id="mask_1">
      <use xlink:href="#path_1" />
    </clipPath>
  </defs>
  <g id="windows">
    <g id="windows">
      <path d="M0 0L448 0L448 512L0 512L0 0L0 0Z" id="Background" fill="#FFFFFF" fill-opacity="0" fill-rule="evenodd" stroke="none" />
      <g id="Mask-Group">
        <path d="M0 0L448 0L448 512L0 512L0 0L0 0Z" id="path_1" fill="none" fill-rule="evenodd" stroke="none" />
        <g clip-path="url(#mask_1)">
          <g id="Group" transform="translate(0 32)">
            <path d="M0 61.7L183.6 36.4L183.6 213.8L0 213.8L0 61.7L0 61.7L0 61.7ZM0 386.3L183.6 411.6L183.6 236.4L0 236.4L0 386.3L0 386.3L0 386.3ZM203.8 414.3L448 448L448 236.4L203.8 236.4L203.8 414.3L203.8 414.3L203.8 414.3ZM203.8 33.7L203.8 213.8L448 213.8L448 0L203.8 33.7L203.8 33.7L203.8 33.7Z" id="Shape" fill="#FFFFFF" fill-rule="evenodd" stroke="none" />
          </g>
        </g>
      </g>
    </g>
  </g>
</svg>