<?xml version="1.0" encoding="utf-8"?>
<svg width="448px" height="512px" viewBox="0 0 448 512" version="1.1" xmlns:xlink="http://www.w3.org/1999/xlink" xmlns="http://www.w3.org/2000/svg">
  <g id="remove">
    <path d="M135.2 17.69C140.6 6.848 151.7 0 163.8 0L284.2 0C296.3 0 307.4 6.848 312.8 17.69L320 32L416 32C433.7 32 448 46.33 448 64C448 81.67 433.7 96 416 96L32 96C14.33 96 0 81.67 0 64C0 46.33 14.33 32 32 32L128 32L135.2 17.69L135.2 17.69ZM394.8 466.1C393.2 492.3 372.3 512 346.9 512L101.1 512C75.75 512 54.77 492.3 53.19 466.1L31.1 128L416 128L394.8 466.1L394.8 466.1Z" id="Shape" fill="#1A1A1A" fill-rule="evenodd" stroke="none" />
  </g>
</svg>