<?xml version="1.0" encoding="utf-8"?>
<svg width="491.236px" height="491.236px" viewBox="0 0 491.236 491.236" version="1.1" xmlns:xlink="http://www.w3.org/1999/xlink" xmlns="http://www.w3.org/2000/svg">
  <defs>
    <path d="M0 0L491.236 0L491.236 491.236L0 491.236L0 0Z" id="path_1" />
    <clipPath id="mask_1">
      <use xlink:href="#path_1" />
    </clipPath>
  </defs>
  <g id="refresh1">
    <path d="M0 0L491.236 0L491.236 491.236L0 491.236L0 0Z" id="Background" fill="#FFFFFF" fill-opacity="0" fill-rule="evenodd" stroke="none" />
    <g clip-path="url(#mask_1)">
      <g id="Group" transform="translate(54.63723 2.2989173E-06)">
        <g id="Group">
          <path d="M1.25277 262.818C-1.74723 236.818 0.752769 211.718 7.55277 188.518C30.1528 111.418 101.053 54.718 185.153 53.718L185.153 3.31798C185.153 0.517983 188.653 -0.982017 190.953 0.717983L294.653 76.918C296.353 78.218 296.353 80.818 294.653 82.018L191.053 158.218C188.653 159.918 185.253 158.418 185.253 155.618L185.253 105.318C129.953 106.218 82.7528 140.318 62.4528 188.518C54.7528 206.718 50.8528 226.818 51.9528 247.918C53.4528 276.918 64.3528 303.618 81.5528 325.218C90.7528 336.718 88.5528 353.518 76.6528 362.218C65.3528 370.518 49.5528 368.218 40.8528 357.218C19.5528 330.618 5.35277 298.218 1.25277 262.818L1.25277 262.818ZM300.653 166.018C317.953 187.518 328.853 214.318 330.253 243.318C331.353 264.518 327.353 284.618 319.753 302.718C299.453 350.918 252.253 385.118 196.953 385.918L196.953 335.618C196.953 332.818 193.453 331.318 191.153 333.018L87.4528 409.218C85.7528 410.518 85.7528 413.118 87.4528 414.318L191.053 490.518C193.453 492.218 196.853 490.718 196.853 487.918L196.853 437.518C280.953 436.618 351.953 379.918 374.453 302.718C381.253 279.518 383.653 254.418 380.753 228.418C376.753 193.018 362.553 160.618 341.253 134.018C332.453 123.018 316.753 120.718 305.453 129.018C293.653 137.718 291.453 154.518 300.653 166.018L300.653 166.018Z" id="Shape" fill="#FFFFFF" fill-rule="evenodd" stroke="none" />
        </g>
      </g>
    </g>
  </g>
</svg>