<?xml version="1.0" encoding="utf-8"?>
<svg width="512px" height="512px" viewBox="0 0 512 512" version="1.1" xmlns:xlink="http://www.w3.org/1999/xlink" xmlns="http://www.w3.org/2000/svg">
  <g id="gear">
    <g id="Group">
      <g id="Group">
        <path d="M500.633 211.454L441.918 197.011C438.564 186.435 434.301 176.137 429.159 166.249L459.774 115.228C463.319 109.325 462.381 101.766 457.518 96.903L415.096 54.481C410.218 49.574 402.645 48.695 396.771 52.225L345.75 82.84C335.862 77.698 325.564 73.436 314.988 70.081L300.545 11.366C298.876 4.688 292.885 0 286 0L226 0C219.115 0 213.124 4.688 211.454 11.367L197.011 70.082C186.435 73.436 176.137 77.699 166.249 82.841L115.228 52.226C109.325 48.71 101.766 49.619 96.903 54.482L54.481 96.903C49.618 101.766 48.68 109.325 52.225 115.228L82.84 166.249C77.698 176.137 73.436 186.435 70.081 197.011L11.366 211.454C4.688 213.124 0 219.115 0 226L0 286C0 292.885 4.688 298.876 11.367 300.546L70.082 314.989C73.436 325.565 77.699 335.863 82.841 345.751L52.226 396.772C48.681 402.675 49.619 410.234 54.482 415.097L96.904 457.519C101.738 462.397 109.311 463.29 115.229 459.775L166.25 429.16C176.138 434.302 186.436 438.564 197.012 441.919L211.455 500.634C213.124 507.313 219.115 512 226 512L286 512C292.885 512 298.876 507.312 300.546 500.633L314.989 441.918C325.565 438.564 335.863 434.301 345.751 429.159L396.772 459.774C402.661 463.304 410.234 462.367 415.097 457.518L457.519 415.096C462.382 410.233 463.32 402.674 459.775 396.771L429.16 345.75C434.302 335.862 438.564 325.564 441.919 314.988L500.634 300.545C507.313 298.876 512 292.885 512 286L512 226C512 219.115 507.313 213.124 500.633 211.454L500.633 211.454ZM256 391C181.557 391 121 330.443 121 256C121 181.557 181.557 121 256 121C330.443 121 391 181.557 391 256C391 330.443 330.443 391 256 391L256 391Z" id="Shape" fill="#FFFFFF" fill-rule="evenodd" stroke="none" />
      </g>
    </g>
    <g id="Group" transform="translate(181 181)">
      <g id="Group">
        <path d="M75 0C33.647 0 0 33.647 0 75C0 116.353 33.647 150 75 150C116.353 150 150 116.353 150 75C150 33.647 116.353 0 75 0L75 0Z" id="Shape" fill="#FFFFFF" stroke="none" />
      </g>
    </g>
  </g>
</svg>