<?xml version="1.0" encoding="utf-8"?>
<svg width="511.999px" height="511.999px" viewBox="0 0 511.999 511.999" version="1.1" xmlns:xlink="http://www.w3.org/1999/xlink" xmlns="http://www.w3.org/2000/svg">
  <defs>
    <path d="M0 0L511.999 0L511.999 511.999L0 511.999L0 0Z" id="path_1" />
    <clipPath id="mask_1">
      <use xlink:href="#path_1" />
    </clipPath>
  </defs>
  <g id="racing">
    <path d="M0 0L511.999 0L511.999 511.999L0 511.999L0 0Z" id="Background" fill="#FFFFFF" fill-opacity="0" fill-rule="evenodd" stroke="none" />
    <g clip-path="url(#mask_1)">
      <g id="Group" transform="translate(0 37.6)">
        <g id="Group">
          <path d="M293.6 0L91.789 0C82.628 0 75.201 7.427 75.201 16.588C75.201 25.749 82.628 33.176 91.789 33.176L178.015 33.176C159.823 44.569 143.42 58.561 129.335 74.636L16.588 74.636C7.427 74.637 0 82.065 0 91.226C0 100.387 7.427 107.814 16.588 107.814L105.338 107.814C86.2 140.27 75.2 178.072 75.2 218.399C75.2 265.323 90.079 308.837 115.361 344.476L68.295 344.476C59.134 344.476 51.707 351.903 51.707 361.064C51.707 370.225 59.134 377.652 68.295 377.652L144.314 377.652C154.657 387.354 165.942 396.06 178.015 403.621L18.299 403.621C9.138 403.621 1.711 411.048 1.711 420.209C1.711 429.37 9.138 436.797 18.299 436.797L293.6 436.797C414.027 436.797 511.999 338.823 511.999 218.398C511.999 97.973 414.026 0 293.6 0L293.6 0ZM293.6 403.623C191.468 403.623 108.378 320.533 108.378 218.4C108.378 116.267 191.468 33.177 293.6 33.177C395.732 33.177 478.822 116.267 478.822 218.399C478.822 320.531 395.733 403.623 293.6 403.623L293.6 403.623Z" id="Shape" fill="#FFFFFF" fill-rule="evenodd" stroke="none" />
        </g>
      </g>
      <g id="Group" transform="translate(158.10701 120.507)">
        <g id="Group">
          <path d="M135.493 0C60.782 0 0 60.782 0 135.493C0 180.046 21.619 219.643 54.915 244.353C55.22 244.611 55.523 244.871 55.852 245.108C56.222 245.377 56.601 245.628 56.984 245.862C79.148 261.673 106.253 270.985 135.493 270.985C164.733 270.985 191.837 261.673 214.002 245.862C214.386 245.628 214.764 245.377 215.134 245.108C215.462 244.869 215.766 244.609 216.071 244.353C249.366 219.643 270.986 180.047 270.986 135.493C270.986 60.783 210.204 0 135.493 0L135.493 0ZM152.081 34.529C184.453 39.83 211.762 60.37 226.371 88.523L183.415 102.481C175.954 91.682 164.943 83.523 152.082 79.692L152.082 34.529L152.081 34.529ZM160.538 135.492C160.538 149.302 149.303 160.537 135.493 160.537C121.683 160.537 110.448 149.303 110.448 135.492C110.448 121.682 121.683 110.447 135.493 110.447C149.303 110.447 160.538 121.682 160.538 135.492L160.538 135.492ZM118.904 34.529L118.904 79.692C106.041 83.523 95.032 91.682 87.57 102.481L44.615 88.523C59.225 60.37 86.534 39.829 118.904 34.529L118.904 34.529ZM62.76 207.379C44.482 188.887 33.177 163.486 33.177 135.492C33.177 130.25 33.575 125.099 34.339 120.067L77.308 134.029C77.296 134.517 77.27 135.001 77.27 135.492C77.27 148.788 81.76 161.05 89.29 170.863L62.76 207.379L62.76 207.379ZM135.493 237.808C118.992 237.808 103.394 233.878 89.578 226.909L116.114 190.387C122.18 192.535 128.7 193.716 135.493 193.716C142.286 193.716 148.806 192.535 154.872 190.387L181.408 226.909C167.592 233.876 151.994 237.808 135.493 237.808L135.493 237.808ZM208.225 207.379L181.695 170.864C189.225 161.051 193.715 148.789 193.715 135.493C193.715 135.002 193.691 134.518 193.677 134.03L236.646 120.068C237.41 125.1 237.808 130.251 237.808 135.493C237.809 163.486 226.505 188.886 208.225 207.379L208.225 207.379Z" id="Shape" fill="#FFFFFF" fill-rule="evenodd" stroke="none" />
        </g>
      </g>
    </g>
  </g>
</svg>