<?xml version="1.0" encoding="utf-8"?>
<svg width="512.015px" height="512.015px" viewBox="0 0 512.015 512.015" version="1.1" xmlns:xlink="http://www.w3.org/1999/xlink" xmlns="http://www.w3.org/2000/svg">
  <defs>
    <path d="M0 0L512.015 0L512.015 512.015L0 512.015L0 0Z" id="path_1" />
    <clipPath id="mask_1">
      <use xlink:href="#path_1" />
    </clipPath>
  </defs>
  <g id="delete">
    <path d="M0 0L512.015 0L512.015 512.015L0 512.015L0 0Z" id="Background" fill="#FFFFFF" fill-opacity="0" fill-rule="evenodd" stroke="none" />
    <g clip-path="url(#mask_1)">
      <g id="Group" transform="translate(0 0.00399971)">
        <g id="Group">
          <path d="M298.594 256.007L503.183 51.418C514.959 39.642 514.959 20.608 503.183 8.832C491.407 -2.944 472.373 -2.944 460.597 8.832L256.008 213.421L51.418 8.832C39.642 -2.944 20.608 -2.944 8.832 8.832C-2.944 20.608 -2.944 39.642 8.832 51.418L213.421 256.007L8.832 460.596C-2.944 472.372 -2.944 491.406 8.832 503.182C14.705 509.055 22.415 512.006 30.125 512.006C37.835 512.006 45.545 509.054 51.418 503.182L256.007 298.593L460.596 503.182C466.469 509.055 474.179 512.006 481.889 512.006C489.599 512.006 497.309 509.054 503.182 503.182C514.958 491.406 514.958 472.372 503.182 460.596L298.594 256.007L298.594 256.007Z" id="Shape" fill="#1A1A1A" stroke="none" />
        </g>
      </g>
    </g>
  </g>
</svg>