<?xml version="1.0" encoding="utf-8"?>
<svg width="512px" height="512px" viewBox="0 0 512 512" version="1.1" xmlns:xlink="http://www.w3.org/1999/xlink" xmlns="http://www.w3.org/2000/svg">
  <defs>
    <path d="M0 0L512 0L512 512L0 512L0 0Z" id="path_1" />
    <clipPath id="mask_1">
      <use xlink:href="#path_1" />
    </clipPath>
  </defs>
  <g id="removeAll">
    <path d="M0 0L512 0L512 512L0 512L0 0Z" id="Background" fill="#FFFFFF" fill-opacity="0" fill-rule="evenodd" stroke="none" />
    <g clip-path="url(#mask_1)">
      <path d="M334.059 351.558C334.076 351.554 334.138 351.537 334.219 351.515C332.889 336.252 331.849 319.23 331.073 300.148C325.862 300.838 320.585 301.207 315.259 301.207C292.998 301.207 271.512 295.053 252.876 283.569C231.504 295.475 207.5 301.682 182.327 301.682C181.839 301.682 181.353 301.667 180.866 301.662C180.097 320.133 179.077 336.659 177.782 351.517C177.863 351.538 177.924 351.553 177.941 351.558C199.005 357.088 226.727 360.133 256 360.133C285.273 360.133 312.994 357.087 334.059 351.558L334.059 351.558Z" id="Shape" fill="#1A1A1A" stroke="none" />
      <path d="M406.899 482C379.804 482 362.88 469.346 351.289 440.002C323.87 446.561 290.618 450.132 256 450.132C221.381 450.132 188.129 446.561 160.711 440.002C149.12 469.346 132.196 482 105.101 482C96.817 482 90.101 488.716 90.101 497C90.101 505.284 96.817 512 105.101 512L406.9 512C415.184 512 421.9 505.284 421.9 497C421.9 488.716 415.184 482 406.899 482L406.899 482Z" id="Shape" fill="#1A1A1A" stroke="none" />
      <path d="M145.888 358.496C147.096 348.292 148.129 337.082 148.997 324.791C120.463 334.551 106 348.101 106 365.132C106 383.558 122.916 397.913 156.279 407.798C183.122 415.752 218.537 420.132 256 420.132C293.463 420.132 328.878 415.752 355.721 407.798C389.084 397.913 406 383.558 406 365.132C406 348.101 391.537 334.552 363.005 324.791C363.874 337.083 364.908 348.292 366.116 358.497C371.58 361.293 374.449 363.7 375.601 365.131C373.319 367.968 364.306 374.633 341.676 380.573C318.196 386.737 287.769 390.131 256 390.131C224.231 390.131 193.805 386.737 170.324 380.573C147.694 374.633 138.681 367.968 136.399 365.131C137.551 363.701 140.422 361.293 145.888 358.496L145.888 358.496Z" id="Shape" fill="#1A1A1A" stroke="none" />
      <path d="M432.096 62.833C423.634 62.833 415.261 64.174 407.29 66.771C399.165 49.754 386.89 34.679 371.711 23.315C351.339 8.062 327.074 1.90735e-06 301.54 1.90735e-06C277.984 1.90735e-06 255.057 7.101 235.749 20.2C218.702 7.325 198.02 0.356003 176.304 0.356003C129.807 0.356003 90.473 32.529 80.191 76.221C77.923 76.01 75.642 75.904 73.351 75.904C32.905 75.904 1.52588e-05 108.735 1.52588e-05 149.09C1.52588e-05 189.445 32.905 222.277 73.351 222.277C77.868 222.277 82.338 221.869 86.731 221.058C108.072 252.557 143.696 271.682 182.328 271.682C208.791 271.682 233.72 262.949 254.009 246.811C270.417 262.299 292.351 271.207 315.26 271.207C352.705 271.207 385.174 248.101 398.21 214.757C408.726 219.674 420.273 222.278 432.097 222.278C476.157 222.278 512.001 186.515 512.001 142.556C512.001 98.597 476.155 62.833 432.096 62.833L432.096 62.833Z" id="Shape" fill="#1A1A1A" stroke="none" />
    </g>
  </g>
</svg>