<?xml version="1.0" encoding="utf-8"?>
<svg width="471.99066px" height="471.28px" viewBox="0 0 471.99066 471.28" version="1.1" xmlns:xlink="http://www.w3.org/1999/xlink" xmlns="http://www.w3.org/2000/svg">
  <defs>
    <linearGradient gradientUnits="userSpaceOnUse" x1="235.99533" y1="0" x2="235.99533" y2="471.28" id="gradient_1">
      <stop offset="0%" stop-color="#7D7D7D" />
      <stop offset="100%" stop-color="#1A1A1A" />
    </linearGradient>
  </defs>
  <path d="M483.974 247.68C483.968 243.287 481.579 239.244 477.734 237.12L404.534 197.12L477.734 157.12C481.574 155.013 483.961 150.98 483.961 146.6C483.961 142.22 481.574 138.187 477.734 136.08L253.734 13.28C250.134 11.36 245.814 11.36 242.214 13.28L18.2137 135.68C14.3736 137.787 11.9868 141.82 11.9868 146.2C11.9868 150.58 14.3736 154.613 18.2137 156.72L91.4137 196.72L18.2137 236.72C14.3785 238.851 11.9999 242.893 11.9999 247.28C11.9999 251.667 14.3785 255.71 18.2136 257.84L91.4137 297.84L18.2137 337.84C14.3785 339.97 11.9999 344.013 11.9999 348.4C11.9999 352.787 14.3785 356.829 18.2136 358.96L242.214 481.68C245.814 483.6 250.134 483.6 253.734 481.68L477.734 359.68C481.569 357.549 483.947 353.507 483.947 349.12C483.947 344.733 481.569 340.69 477.734 338.56L404.534 298.56L477.734 258.56C481.681 256.382 484.087 252.187 483.974 247.68L483.974 247.68ZM247.974 37.36L447.014 146.4L247.974 255.68L48.9336 146.4L247.974 37.36ZM447.014 348.96L247.974 458L48.9336 348.96L116.374 311.68L242.214 380.64C245.814 382.56 250.134 382.56 253.734 380.64L379.574 311.68L447.014 348.96ZM247.974 356.72L48.9336 247.68L116.374 210.72L242.214 279.68C245.787 281.705 250.161 281.705 253.734 279.68L379.574 210.72L447.014 247.68L247.974 356.72Z" id="Shape" fill="url(#gradient_1)" fill-rule="evenodd" stroke="none" />
</svg>