<?xml version="1.0" encoding="utf-8"?>
<svg width="512px" height="512px" viewBox="0 0 512 512" version="1.1" xmlns:xlink="http://www.w3.org/1999/xlink" xmlns="http://www.w3.org/2000/svg">
  <defs>
    <path d="M0 0L512 0L512 512L0 512L0 0L0 0Z" id="path_1" />
    <clipPath id="mask_1">
      <use xlink:href="#path_1" />
    </clipPath>
  </defs>
  <g id="resolution">
    <g id="resolution">
      <path d="M0 0L512 0L512 512L0 512L0 0L0 0Z" id="Background" fill="#FFFFFF" fill-opacity="0" fill-rule="evenodd" stroke="none" />
      <g id="Mask-Group">
        <path d="M0 0L512 0L512 512L0 512L0 0L0 0Z" id="path_1" fill="none" stroke="none" />
        <g clip-path="url(#mask_1)">
          <g id="Group" transform="translate(17.0667 34.1333)">
            <path d="M42.6666 349.867L247.466 349.867L247.466 230.4C247.466 225.688 243.646 221.867 238.933 221.867L0 221.867L0 307.2C0.0303993 330.757 19.1182 349.841 42.6707 349.867L42.6666 349.867L42.6666 349.867Z" id="Shape" fill="#1A1A1A" stroke="none" />
            <path d="M435.2 0L42.6666 0C19.1142 0.0281982 0.0282001 19.1142 0 42.6667L0 68.2667L375.466 68.2667C389.605 68.2667 401.066 79.7287 401.066 93.8667L401.066 349.867L435.2 349.867C458.752 349.839 477.838 330.753 477.866 307.2L477.866 42.6667C477.836 19.1102 458.748 0.026001 435.196 0L435.2 0L435.2 0Z" id="Shape#1" fill="#1A1A1A" stroke="none" />
            <path d="M264.533 230.4L264.533 349.867L315.733 349.867L315.733 162.134C315.733 157.421 311.913 153.6 307.2 153.6L0 153.6L0 204.8L238.933 204.8C253.072 204.8 264.533 216.262 264.533 230.4L264.533 230.4L264.533 230.4Z" id="Shape#2" fill="#1A1A1A" stroke="none" />
            <path d="M332.8 162.134L332.8 349.867L384 349.867L384 93.8667C384 89.1537 380.179 85.3337 375.466 85.3337L0 85.3337L0 136.534L307.2 136.534C321.338 136.534 332.8 147.995 332.8 162.134L332.8 162.134L332.8 162.134Z" id="Shape#3" fill="#1A1A1A" stroke="none" />
            <path d="M136.533 435.2C136.533 439.913 140.354 443.734 145.066 443.734L332.8 443.734C337.512 443.734 341.333 439.913 341.333 435.2C341.333 430.488 337.513 426.667 332.8 426.667L145.066 426.667C140.354 426.667 136.533 430.488 136.533 435.2L136.533 435.2L136.533 435.2Z" id="Shape#4" fill="#1A1A1A" stroke="none" />
            <path d="M205.124 366.934C205.476 382.225 200.813 397.21 191.846 409.601L286.02 409.6C277.053 397.21 272.39 382.224 272.742 366.934L205.124 366.934L205.124 366.934Z" id="Shape#5" fill="#1A1A1A" stroke="none" />
          </g>
        </g>
      </g>
    </g>
  </g>
</svg>