<?xml version="1.0" encoding="utf-8"?>
<svg width="384px" height="512px" viewBox="0 0 384 512" version="1.1" xmlns:xlink="http://www.w3.org/1999/xlink" xmlns="http://www.w3.org/2000/svg">
  <defs>
    <path d="M0 0L384 0L384 512L0 512L0 0L0 0Z" id="path_1" />
    <clipPath id="mask_1">
      <use xlink:href="#path_1" />
    </clipPath>
  </defs>
  <g id="apple">
    <g id="apple">
      <path d="M0 0L384 0L384 512L0 512L0 0L0 0Z" id="Background" fill="#FFFFFF" fill-opacity="0" fill-rule="evenodd" stroke="none" />
      <g id="Mask-Group">
        <path d="M0 0L384 0L384 512L0 512L0 0L0 0Z" id="path_1" fill="none" stroke="none" />
        <g clip-path="url(#mask_1)">
          <g id="Group" transform="translate(4 32)">
            <path d="M314.7 236.7C314.5 200 331.1 172.3 364.7 151.9C345.9 125 317.5 110.2 280 107.3C244.5 104.5 205.7 128 191.5 128C176.5 128 142.1 108.3 115.1 108.3C59.3 109.2 0 152.8 0 241.5C0 267.7 4.8 294.767 14.4 322.7C27.2 359.4 73.4 449.4 121.6 447.9C146.8 447.3 164.6 430 197.4 430C229.2 430 245.7 447.9 273.8 447.9C322.4 447.2 364.2 365.4 376.4 328.6C311.2 297.9 314.7 238.6 314.7 236.7L314.7 236.7L314.7 236.7ZM258.1 72.5C285.4 40.1 282.9 10.6 282.1 0C258 1.4 230.1 16.4 214.2 34.9C196.7 54.7 186.4 79.2 188.6 106.8C214.7 108.8 238.5 95.4 258.1 72.5L258.1 72.5L258.1 72.5Z" id="Shape" fill="#FFFFFF" fill-rule="evenodd" stroke="none" />
          </g>
        </g>
      </g>
    </g>
  </g>
</svg>