  0
SECTION
  2
HEADER
  9
$ACADVER
  1
AC1027
  9
$ACADMAINTVER
 70
   125
  9
$DWGCODEPAGE
  3
ANSI_1252
  9
$REQUIREDVERSIONS
160
                 0
  9
$INSBASE
 10
0.0
 20
0.0
 30
0.0
  9
$EXTMIN
 10
1.000000000000000E+20
 20
1.000000000000000E+20
 30
1.000000000000000E+20
  9
$EXTMAX
 10
-1.000000000000000E+20
 20
-1.000000000000000E+20
 30
-1.000000000000000E+20
  9
$LIMMIN
 10
0.0
 20
0.0
  9
$LIMMAX
 10
12.0
 20
9.0
  9
$ORTHOMODE
 70
     0
  9
$REGENMODE
 70
     1
  9
$FILLMODE
 70
     1
  9
$QTEXTMODE
 70
     0
  9
$MIRRTEXT
 70
     0
  9
$LTSCALE
 40
1.0
  9
$ATTMODE
 70
     1
  9
$TEXTSIZE
 40
0.2
  9
$TRACEWID
 40
0.05
  9
$TEXTSTYLE
  7
Standard
  9
$CLAYER
  8
0
  9
$CELTYPE
  6
ByLayer
  9
$CECOLOR
 62
   256
  9
$CELTSCALE
 40
1.0
  9
$DISPSILH
 70
     0
  9
$DIMSCALE
 40
1.0
  9
$DIMASZ
 40
0.18
  9
$DIMEXO
 40
0.0625
  9
$DIMDLI
 40
0.38
  9
$DIMRND
 40
0.0
  9
$DIMDLE
 40
0.0
  9
$DIMEXE
 40
0.18
  9
$DIMTP
 40
0.0
  9
$DIMTM
 40
0.0
  9
$DIMTXT
 40
0.18
  9
$DIMCEN
 40
0.09
  9
$DIMTSZ
 40
0.0
  9
$DIMTOL
 70
     0
  9
$DIMLIM
 70
     0
  9
$DIMTIH
 70
     1
  9
$DIMTOH
 70
     1
  9
$DIMSE1
 70
     0
  9
$DIMSE2
 70
     0
  9
$DIMTAD
 70
     0
  9
$DIMZIN
 70
     0
  9
$DIMBLK
  1

  9
$DIMASO
 70
     1
  9
$DIMSHO
 70
     1
  9
$DIMPOST
  1

  9
$DIMAPOST
  1

  9
$DIMALT
 70
     0
  9
$DIMALTD
 70
     2
  9
$DIMALTF
 40
25.4
  9
$DIMLFAC
 40
1.0
  9
$DIMTOFL
 70
     0
  9
$DIMTVP
 40
0.0
  9
$DIMTIX
 70
     0
  9
$DIMSOXD
 70
     0
  9
$DIMSAH
 70
     0
  9
$DIMBLK1
  1

  9
$DIMBLK2
  1

  9
$DIMSTYLE
  2
Standard
  9
$DIMCLRD
 70
     0
  9
$DIMCLRE
 70
     0
  9
$DIMCLRT
 70
     0
  9
$DIMTFAC
 40
1.0
  9
$DIMGAP
 40
0.09
  9
$DIMJUST
 70
     0
  9
$DIMSD1
 70
     0
  9
$DIMSD2
 70
     0
  9
$DIMTOLJ
 70
     1
  9
$DIMTZIN
 70
     0
  9
$DIMALTZ
 70
     0
  9
$DIMALTTZ
 70
     0
  9
$DIMUPT
 70
     0
  9
$DIMDEC
 70
     4
  9
$DIMTDEC
 70
     4
  9
$DIMALTU
 70
     2
  9
$DIMALTTD
 70
     2
  9
$DIMTXSTY
  7
Standard
  9
$DIMAUNIT
 70
     0
  9
$DIMADEC
 70
     0
  9
$DIMALTRND
 40
0.0
  9
$DIMAZIN
 70
     0
  9
$DIMDSEP
 70
    46
  9
$DIMATFIT
 70
     3
  9
$DIMFRAC
 70
     0
  9
$DIMLDRBLK
  1

  9
$DIMLUNIT
 70
     2
  9
$DIMLWD
 70
    -2
  9
$DIMLWE
 70
    -2
  9
$DIMTMOVE
 70
     0
  9
$DIMFXL
 40
1.0
  9
$DIMFXLON
 70
     0
  9
$DIMJOGANG
 40
0.7853981633974483
  9
$DIMTFILL
 70
     0
  9
$DIMTFILLCLR
 70
     0
  9
$DIMARCSYM
 70
     0
  9
$DIMLTYPE
  6

  9
$DIMLTEX1
  6

  9
$DIMLTEX2
  6

  9
$DIMTXTDIRECTION
 70
     0
  9
$LUNITS
 70
     2
  9
$LUPREC
 70
     4
  9
$SKETCHINC
 40
0.1
  9
$FILLETRAD
 40
0.0
  9
$AUNITS
 70
     0
  9
$AUPREC
 70
     0
  9
$MENU
  1
.
  9
$ELEVATION
 40
0.0
  9
$PELEVATION
 40
0.0
  9
$THICKNESS
 40
0.0
  9
$LIMCHECK
 70
     0
  9
$CHAMFERA
 40
0.0
  9
$CHAMFERB
 40
0.0
  9
$CHAMFERC
 40
0.0
  9
$CHAMFERD
 40
0.0
  9
$SKPOLY
 70
     0
  9
$TDCREATE
 40
2459734.971886574
  9
$TDUCREATE
 40
2459734.555219907
  9
$TDUPDATE
 40
2459734.971886574
  9
$TDUUPDATE
 40
2459734.555219907
  9
$TDINDWG
 40
0.0000000000
  9
$TDUSRTIMER
 40
0.0000000000
  9
$USRTIMER
 70
     1
  9
$ANGBASE
 50
0.0
  9
$ANGDIR
 70
     0
  9
$PDMODE
 70
     0
  9
$PDSIZE
 40
0.0
  9
$PLINEWID
 40
0.0
  9
$SPLFRAME
 70
     0
  9
$SPLINETYPE
 70
     6
  9
$SPLINESEGS
 70
     8
  9
$HANDSEED
  5
92
  9
$SURFTAB1
 70
     6
  9
$SURFTAB2
 70
     6
  9
$SURFTYPE
 70
     6
  9
$SURFU
 70
     6
  9
$SURFV
 70
     6
  9
$UCSBASE
  2

  9
$UCSNAME
  2

  9
$UCSORG
 10
0.0
 20
0.0
 30
0.0
  9
$UCSXDIR
 10
1.0
 20
0.0
 30
0.0
  9
$UCSYDIR
 10
0.0
 20
1.0
 30
0.0
  9
$UCSORTHOREF
  2

  9
$UCSORTHOVIEW
 70
     0
  9
$UCSORGTOP
 10
0.0
 20
0.0
 30
0.0
  9
$UCSORGBOTTOM
 10
0.0
 20
0.0
 30
0.0
  9
$UCSORGLEFT
 10
0.0
 20
0.0
 30
0.0
  9
$UCSORGRIGHT
 10
0.0
 20
0.0
 30
0.0
  9
$UCSORGFRONT
 10
0.0
 20
0.0
 30
0.0
  9
$UCSORGBACK
 10
0.0
 20
0.0
 30
0.0
  9
$PUCSBASE
  2

  9
$PUCSNAME
  2

  9
$PUCSORG
 10
0.0
 20
0.0
 30
0.0
  9
$PUCSXDIR
 10
1.0
 20
0.0
 30
0.0
  9
$PUCSYDIR
 10
0.0
 20
1.0
 30
0.0
  9
$PUCSORTHOREF
  2

  9
$PUCSORTHOVIEW
 70
     0
  9
$PUCSORGTOP
 10
0.0
 20
0.0
 30
0.0
  9
$PUCSORGBOTTOM
 10
0.0
 20
0.0
 30
0.0
  9
$PUCSORGLEFT
 10
0.0
 20
0.0
 30
0.0
  9
$PUCSORGRIGHT
 10
0.0
 20
0.0
 30
0.0
  9
$PUCSORGFRONT
 10
0.0
 20
0.0
 30
0.0
  9
$PUCSORGBACK
 10
0.0
 20
0.0
 30
0.0
  9
$USERI1
 70
     0
  9
$USERI2
 70
     0
  9
$USERI3
 70
     0
  9
$USERI4
 70
     0
  9
$USERI5
 70
     0
  9
$USERR1
 40
0.0
  9
$USERR2
 40
0.0
  9
$USERR3
 40
0.0
  9
$USERR4
 40
0.0
  9
$USERR5
 40
0.0
  9
$WORLDVIEW
 70
     1
  9
$SHADEDGE
 70
     3
  9
$SHADEDIF
 70
    70
  9
$TILEMODE
 70
     1
  9
$MAXACTVP
 70
    64
  9
$PINSBASE
 10
0.0
 20
0.0
 30
0.0
  9
$PLIMCHECK
 70
     0
  9
$PEXTMIN
 10
1.000000000000000E+20
 20
1.000000000000000E+20
 30
1.000000000000000E+20
  9
$PEXTMAX
 10
-1.000000000000000E+20
 20
-1.000000000000000E+20
 30
-1.000000000000000E+20
  9
$PLIMMIN
 10
0.0
 20
0.0
  9
$PLIMMAX
 10
12.0
 20
9.0
  9
$UNITMODE
 70
     0
  9
$VISRETAIN
 70
     1
  9
$PLINEGEN
 70
     0
  9
$PSLTSCALE
 70
     1
  9
$TREEDEPTH
 70
  3020
  9
$CMLSTYLE
  2
Standard
  9
$CMLJUST
 70
     0
  9
$CMLSCALE
 40
1.0
  9
$PROXYGRAPHICS
 70
     1
  9
$MEASUREMENT
 70
     0
  9
$CELWEIGHT
370
    -1
  9
$ENDCAPS
280
     0
  9
$JOINSTYLE
280
     0
  9
$LWDISPLAY
290
     1
  9
$INSUNITS
 70
     4
  9
$HYPERLINKBASE
  1

  9
$STYLESHEET
  1

  9
$XEDIT
290
     1
  9
$CEPSNTYPE
380
     0
  9
$PSTYLEMODE
290
     1
  9
$FINGERPRINTGUID
  2
{19865542-9278-554B-9F10-5544FFECD1FD}
  9
$VERSIONGUID
  2
{E537F048-3408-CE49-8823-89767367F67B}
  9
$EXTNAMES
290
     1
  9
$PSVPSCALE
 40
0.0
  9
$OLESTARTUP
290
     0
  9
$SORTENTS
280
   127
  9
$INDEXCTL
280
     0
  9
$HIDETEXT
280
     1
  9
$XCLIPFRAME
280
     2
  9
$HALOGAP
280
     0
  9
$OBSCOLOR
 70
   257
  9
$OBSLTYPE
280
     0
  9
$INTERSECTIONDISPLAY
280
     0
  9
$INTERSECTIONCOLOR
 70
   257
  9
$DIMASSOC
280
     2
  9
$PROJECTNAME
  1

  9
$CAMERADISPLAY
290
     0
  9
$LENSLENGTH
 40
50.0
  9
$CAMERAHEIGHT
 40
0.0
  9
$STEPSPERSEC
 40
2.0
  9
$STEPSIZE
 40
6.0
  9
$3DDWFPREC
 40
2.0
  9
$PSOLWIDTH
 40
0.25
  9
$PSOLHEIGHT
 40
4.0
  9
$LOFTANG1
 40
1.570796326794896
  9
$LOFTANG2
 40
1.570796326794896
  9
$LOFTMAG1
 40
0.0
  9
$LOFTMAG2
 40
0.0
  9
$LOFTPARAM
 70
     7
  9
$LOFTNORMALS
280
     1
  9
$LATITUDE
 40
37.795
  9
$LONGITUDE
 40
-122.394
  9
$NORTHDIRECTION
 40
0.0
  9
$TIMEZONE
 70
 -8000
  9
$LIGHTGLYPHDISPLAY
280
     1
  9
$TILEMODELIGHTSYNCH
280
     1
  9
$CMATERIAL
347
11
  9
$SOLIDHIST
280
     0
  9
$SHOWHIST
280
     1
  9
$DWFFRAME
280
     2
  9
$DGNFRAME
280
     0
  9
$REALWORLDSCALE
290
     1
  9
$INTERFERECOLOR
 62
     1
  9
$INTERFEREOBJVS
345
33
  9
$INTERFEREVPVS
346
30
  9
$CSHADOW
280
     0
  9
$SHADOWPLANELOCATION
 40
0.0
  0
ENDSEC
  0
SECTION
  2
CLASSES
  0
CLASS
  1
ACDBDICTIONARYWDFLT
  2
AcDbDictionaryWithDefault
  3
ObjectDBX Classes
 90
        0
 91
        1
280
     0
281
     0
  0
CLASS
  1
MATERIAL
  2
AcDbMaterial
  3
ObjectDBX Classes
 90
     1153
 91
        3
280
     0
281
     0
  0
CLASS
  1
VISUALSTYLE
  2
AcDbVisualStyle
  3
ObjectDBX Classes
 90
     4095
 91
       24
280
     0
281
     0
  0
CLASS
  1
SCALE
  2
AcDbScale
  3
ObjectDBX Classes
 90
     1153
 91
       17
280
     0
281
     0
  0
CLASS
  1
TABLESTYLE
  2
AcDbTableStyle
  3
ObjectDBX Classes
 90
     4095
 91
        1
280
     0
281
     0
  0
CLASS
  1
MLEADERSTYLE
  2
AcDbMLeaderStyle
  3
ACDB_MLEADERSTYLE_CLASS
 90
     4095
 91
        1
280
     0
281
     0
  0
CLASS
  1
ACDBSECTIONVIEWSTYLE
  2
AcDbSectionViewStyle
  3
ObjectDBX Classes
 90
     1025
 91
        1
280
     0
281
     0
  0
CLASS
  1
ACDBDETAILVIEWSTYLE
  2
AcDbDetailViewStyle
  3
ObjectDBX Classes
 90
     1025
 91
        1
280
     0
281
     0
  0
CLASS
  1
DICTIONARYVAR
  2
AcDbDictionaryVar
  3
ObjectDBX Classes
 90
        0
 91
        5
280
     0
281
     0
  0
CLASS
  1
CELLSTYLEMAP
  2
AcDbCellStyleMap
  3
ObjectDBX Classes
 90
     1152
 91
        1
280
     0
281
     0
  0
ENDSEC
  0
SECTION
  2
TABLES
  0
TABLE
  2
VPORT
  5
8
330
0
100
AcDbSymbolTable
 70
     1
1001
ACAD
1000
DbSaveVer
1071
      247
  0
VPORT
  5
57
330
8
100
AcDbSymbolTableRecord
100
AcDbViewportTableRecord
  2
*Active
 70
     0
 10
0.0
 20
0.0
 11
1.0
 21
1.0
 12
0.0
 22
0.0
 13
0.0
 23
0.0
 14
1.0
 24
1.0
 15
0.0
 25
0.0
 16
0.0
 26
0.0
 36
1.0
 17
-111.9583333053439
 27
3.302777776952218
 37
0.0
 40
214.1999999464498
 41
0.9999999999999998
 42
50.0
 43
0.0
 44
0.0
 50
0.0
 51
0.0
 71
     0
 72
   100
 73
     1
 74
     1
 75
     0
 76
     0
 77
     0
 78
     0
281
     0
 65
     1
110
0.0
120
0.0
130
0.0
111
1.0
121
0.0
131
0.0
112
0.0
122
1.0
132
0.0
 79
     0
146
0.0
 60
     3
 61
     5
292
     1
282
     1
141
0.0
142
0.0
 63
   250
421
  3355443
  0
ENDTAB
  0
TABLE
  2
LTYPE
  5
5
330
0
100
AcDbSymbolTable
 70
     1
  0
LTYPE
  5
5B
330
5
100
AcDbSymbolTableRecord
100
AcDbLinetypeTableRecord
  2
ByBlock
 70
     0
  3

 72
    65
 73
     0
 40
0.0
  0
LTYPE
  5
5C
330
5
100
AcDbSymbolTableRecord
100
AcDbLinetypeTableRecord
  2
ByLayer
 70
     0
  3

 72
    65
 73
     0
 40
0.0
  0
LTYPE
  5
5D
330
5
100
AcDbSymbolTableRecord
100
AcDbLinetypeTableRecord
  2
Continuous
 70
     0
  3
Solid line
 72
    65
 73
     0
 40
0.0
  0
ENDTAB
  0
TABLE
  2
LAYER
  5
2
330
0
100
AcDbSymbolTable
 70
     2
  0
LAYER
  5
54
330
2
100
AcDbSymbolTableRecord
100
AcDbLayerTableRecord
  2
0
 70
     0
 62
     7
  6
Continuous
370
    -3
390
F
347
21
348
0
  0
LAYER
  5
78
330
2
100
AcDbSymbolTableRecord
100
AcDbLayerTableRecord
  2
Layer 1
 70
     0
 62
     7
  6
Continuous
370
     0
390
F
347
21
348
0
  0
ENDTAB
  0
TABLE
  2
STYLE
  5
3
330
0
100
AcDbSymbolTable
 70
     2
  0
STYLE
  5
55
330
3
100
AcDbSymbolTableRecord
100
AcDbTextStyleTableRecord
  2
Standard
 70
     0
 40
0.0
 41
1.0
 50
0.0
 71
     0
 42
0.2
  3
txt
  4

  0
STYLE
  5
5A
330
3
100
AcDbSymbolTableRecord
100
AcDbTextStyleTableRecord
  2
Annotative
 70
     0
 40
0.0
 41
1.0
 50
0.0
 71
     0
 42
0.2
  3
txt
  4

1001
AcadAnnotative
1000
AnnotativeData
1002
{
1070
     1
1070
     1
1002
}
  0
ENDTAB
  0
TABLE
  2
VIEW
  5
6
330
0
100
AcDbSymbolTable
 70
     0
  0
ENDTAB
  0
TABLE
  2
UCS
  5
7
330
0
100
AcDbSymbolTable
 70
     0
  0
ENDTAB
  0
TABLE
  2
APPID
  5
9
330
0
100
AcDbSymbolTable
 70
     2
  0
APPID
  5
56
330
9
100
AcDbSymbolTableRecord
100
AcDbRegAppTableRecord
  2
ACAD
 70
     0
  0
APPID
  5
5E
330
9
100
AcDbSymbolTableRecord
100
AcDbRegAppTableRecord
  2
AcadAnnotative
 70
     0
  0
ENDTAB
  0
TABLE
  2
DIMSTYLE
  5
A
330
0
100
AcDbSymbolTable
 70
     2
100
AcDbDimStyleTable
 71
     0
  0
DIMSTYLE
105
58
330
A
100
AcDbSymbolTableRecord
100
AcDbDimStyleTableRecord
  2
Standard
 70
     0
340
55
  0
DIMSTYLE
105
59
330
A
100
AcDbSymbolTableRecord
100
AcDbDimStyleTableRecord
  2
Annotative
 70
     0
340
55
1001
AcadAnnotative
1000
AnnotativeData
1002
{
1070
     1
1070
     1
1002
}
  0
ENDTAB
  0
TABLE
  2
BLOCK_RECORD
  5
1
330
0
100
AcDbSymbolTable
 70
     2
  0
BLOCK_RECORD
  5
70
330
1
100
AcDbSymbolTableRecord
100
AcDbBlockTableRecord
  2
*Model_Space
340
73
 70
     0
280
     1
281
     0
  0
BLOCK_RECORD
  5
6C
330
1
100
AcDbSymbolTableRecord
100
AcDbBlockTableRecord
  2
*Paper_Space
340
6F
 70
     0
280
     1
281
     0
  0
BLOCK_RECORD
  5
74
330
1
100
AcDbSymbolTableRecord
100
AcDbBlockTableRecord
  2
*Paper_Space0
340
77
 70
     0
280
     1
281
     0
  0
BLOCK_RECORD
  5
79
330
1
100
AcDbSymbolTableRecord
100
AcDbBlockTableRecord
  2
Block_0
340
0
102
{BLKREFS
331
7A
102
}
 70
     0
280
     1
281
     0
  0
ENDTAB
  0
ENDSEC
  0
SECTION
  2
BLOCKS
  0
BLOCK
  5
71
330
70
100
AcDbEntity
  8
0
100
AcDbBlockBegin
  2
*Model_Space
 70
     0
 10
0.0
 20
0.0
 30
0.0
  3
*Model_Space
  1

  0
ENDBLK
  5
72
330
70
100
AcDbEntity
  8
0
100
AcDbBlockEnd
  0
BLOCK
  5
6D
330
6C
100
AcDbEntity
 67
     1
  8
0
100
AcDbBlockBegin
  2
*Paper_Space
 70
     0
 10
0.0
 20
0.0
 30
0.0
  3
*Paper_Space
  1

  0
ENDBLK
  5
6E
330
6C
100
AcDbEntity
 67
     1
  8
0
100
AcDbBlockEnd
  0
BLOCK
  5
75
330
74
100
AcDbEntity
 67
     1
  8
0
100
AcDbBlockBegin
  2
*Paper_Space0
 70
     0
 10
0.0
 20
0.0
 30
0.0
  3
*Paper_Space0
  1

  0
ENDBLK
  5
76
330
74
100
AcDbEntity
 67
     1
  8
0
100
AcDbBlockEnd
  0
BLOCK
  5
7B
330
79
100
AcDbEntity
  8
0
100
AcDbBlockBegin
  2
Block_0
 70
     0
 10
0.0
 20
0.0
 30
0.0
  3
Block_0
  1

  0
SPLINE
  5
7D
330
79
100
AcDbEntity
  8
Layer 1
100
AcDbSpline
210
0.0
220
0.0
230
1.0
 70
     9
 71
     3
 72
    20
 73
    16
 74
     0
 42
0.0000000001
 43
0.0000000001
 40
0.0
 40
0.0
 40
0.0
 40
0.0
 40
1.0
 40
1.0
 40
1.0
 40
2.0
 40
2.0
 40
2.0
 40
3.0
 40
3.0
 40
3.0
 40
4.0
 40
4.0
 40
4.0
 40
5.0
 40
5.0
 40
5.0
 40
5.0
 10
-155.9130137793626
 20
-1.057078117436972
 30
0.0
 10
-156.0207316706675
 20
-1.202342733871205
 30
0.0
 10
-156.1272476088805
 20
-1.349610605456781
 30
0.0
 10
-156.2326188298623
 20
-1.498767260471665
 30
0.0
 10
-158.7325095516927
 20
0.9667819444695727
 30
0.0
 10
-161.2318279149046
 20
3.570498519021727
 30
0.0
 10
-161.7177603788663
 20
4.310729915533468
 30
0.0
 10
-161.7177603788663
 20
4.310729915533468
 30
0.0
 10
-161.7973182263202
 20
4.440254670057225
 30
0.0
 10
-161.7973182263202
 20
4.440254670057225
 30
0.0
 10
-159.2130046088086
 20
3.642844647929583
 30
0.0
 10
-156.4264766926936
 20
3.011876510984087
 30
0.0
 10
-153.4467205082213
 20
2.556908648086746
 30
0.0
 10
-154.146829565834
 20
1.422093222534944
 30
0.0
 10
-154.9698240180441
 20
0.2158474418624807
 30
0.0
 10
-155.9130137793626
 20
-1.057078117436972
 30
0.0
  0
SPLINE
  5
7E
330
79
100
AcDbEntity
  8
Layer 1
100
AcDbSpline
210
0.0
220
0.0
230
1.0
 70
     9
 71
     3
 72
   764
 73
   760
 74
     0
 42
0.0000000001
 43
0.0000000001
 40
0.0
 40
0.0
 40
0.0
 40
0.0
 40
1.0
 40
1.0
 40
1.0
 40
2.0
 40
2.0
 40
2.0
 40
3.0
 40
3.0
 40
3.0
 40
4.0
 40
4.0
 40
4.0
 40
5.0
 40
5.0
 40
5.0
 40
6.0
 40
6.0
 40
6.0
 40
7.0
 40
7.0
 40
7.0
 40
8.0
 40
8.0
 40
8.0
 40
9.0
 40
9.0
 40
9.0
 40
10.0
 40
10.0
 40
10.0
 40
11.0
 40
11.0
 40
11.0
 40
12.0
 40
12.0
 40
12.0
 40
13.0
 40
13.0
 40
13.0
 40
14.0
 40
14.0
 40
14.0
 40
15.0
 40
15.0
 40
15.0
 40
16.0
 40
16.0
 40
16.0
 40
17.0
 40
17.0
 40
17.0
 40
18.0
 40
18.0
 40
18.0
 40
19.0
 40
19.0
 40
19.0
 40
20.0
 40
20.0
 40
20.0
 40
21.0
 40
21.0
 40
21.0
 40
22.0
 40
22.0
 40
22.0
 40
23.0
 40
23.0
 40
23.0
 40
24.0
 40
24.0
 40
24.0
 40
25.0
 40
25.0
 40
25.0
 40
26.0
 40
26.0
 40
26.0
 40
27.0
 40
27.0
 40
27.0
 40
28.0
 40
28.0
 40
28.0
 40
29.0
 40
29.0
 40
29.0
 40
30.0
 40
30.0
 40
30.0
 40
31.0
 40
31.0
 40
31.0
 40
32.0
 40
32.0
 40
32.0
 40
33.0
 40
33.0
 40
33.0
 40
34.0
 40
34.0
 40
34.0
 40
35.0
 40
35.0
 40
35.0
 40
36.0
 40
36.0
 40
36.0
 40
37.0
 40
37.0
 40
37.0
 40
38.0
 40
38.0
 40
38.0
 40
39.0
 40
39.0
 40
39.0
 40
40.0
 40
40.0
 40
40.0
 40
41.0
 40
41.0
 40
41.0
 40
42.0
 40
42.0
 40
42.0
 40
43.0
 40
43.0
 40
43.0
 40
44.0
 40
44.0
 40
44.0
 40
45.0
 40
45.0
 40
45.0
 40
46.0
 40
46.0
 40
46.0
 40
47.0
 40
47.0
 40
47.0
 40
48.0
 40
48.0
 40
48.0
 40
49.0
 40
49.0
 40
49.0
 40
50.0
 40
50.0
 40
50.0
 40
51.0
 40
51.0
 40
51.0
 40
52.0
 40
52.0
 40
52.0
 40
53.0
 40
53.0
 40
53.0
 40
54.0
 40
54.0
 40
54.0
 40
55.0
 40
55.0
 40
55.0
 40
56.0
 40
56.0
 40
56.0
 40
57.0
 40
57.0
 40
57.0
 40
58.0
 40
58.0
 40
58.0
 40
59.0
 40
59.0
 40
59.0
 40
60.0
 40
60.0
 40
60.0
 40
61.0
 40
61.0
 40
61.0
 40
62.0
 40
62.0
 40
62.0
 40
63.0
 40
63.0
 40
63.0
 40
64.0
 40
64.0
 40
64.0
 40
65.0
 40
65.0
 40
65.0
 40
66.0
 40
66.0
 40
66.0
 40
67.0
 40
67.0
 40
67.0
 40
68.0
 40
68.0
 40
68.0
 40
69.0
 40
69.0
 40
69.0
 40
70.0
 40
70.0
 40
70.0
 40
71.0
 40
71.0
 40
71.0
 40
72.0
 40
72.0
 40
72.0
 40
73.0
 40
73.0
 40
73.0
 40
74.0
 40
74.0
 40
74.0
 40
75.0
 40
75.0
 40
75.0
 40
76.0
 40
76.0
 40
76.0
 40
77.0
 40
77.0
 40
77.0
 40
78.0
 40
78.0
 40
78.0
 40
79.0
 40
79.0
 40
79.0
 40
80.0
 40
80.0
 40
80.0
 40
81.0
 40
81.0
 40
81.0
 40
82.0
 40
82.0
 40
82.0
 40
83.0
 40
83.0
 40
83.0
 40
84.0
 40
84.0
 40
84.0
 40
85.0
 40
85.0
 40
85.0
 40
86.0
 40
86.0
 40
86.0
 40
87.0
 40
87.0
 40
87.0
 40
88.0
 40
88.0
 40
88.0
 40
89.0
 40
89.0
 40
89.0
 40
90.0
 40
90.0
 40
90.0
 40
91.0
 40
91.0
 40
91.0
 40
92.0
 40
92.0
 40
92.0
 40
93.0
 40
93.0
 40
93.0
 40
94.0
 40
94.0
 40
94.0
 40
95.0
 40
95.0
 40
95.0
 40
96.0
 40
96.0
 40
96.0
 40
97.0
 40
97.0
 40
97.0
 40
98.0
 40
98.0
 40
98.0
 40
99.0
 40
99.0
 40
99.0
 40
100.0
 40
100.0
 40
100.0
 40
101.0
 40
101.0
 40
101.0
 40
102.0
 40
102.0
 40
102.0
 40
103.0
 40
103.0
 40
103.0
 40
104.0
 40
104.0
 40
104.0
 40
105.0
 40
105.0
 40
105.0
 40
106.0
 40
106.0
 40
106.0
 40
107.0
 40
107.0
 40
107.0
 40
108.0
 40
108.0
 40
108.0
 40
109.0
 40
109.0
 40
109.0
 40
110.0
 40
110.0
 40
110.0
 40
111.0
 40
111.0
 40
111.0
 40
112.0
 40
112.0
 40
112.0
 40
113.0
 40
113.0
 40
113.0
 40
114.0
 40
114.0
 40
114.0
 40
115.0
 40
115.0
 40
115.0
 40
116.0
 40
116.0
 40
116.0
 40
117.0
 40
117.0
 40
117.0
 40
118.0
 40
118.0
 40
118.0
 40
119.0
 40
119.0
 40
119.0
 40
120.0
 40
120.0
 40
120.0
 40
121.0
 40
121.0
 40
121.0
 40
122.0
 40
122.0
 40
122.0
 40
123.0
 40
123.0
 40
123.0
 40
124.0
 40
124.0
 40
124.0
 40
125.0
 40
125.0
 40
125.0
 40
126.0
 40
126.0
 40
126.0
 40
127.0
 40
127.0
 40
127.0
 40
128.0
 40
128.0
 40
128.0
 40
129.0
 40
129.0
 40
129.0
 40
130.0
 40
130.0
 40
130.0
 40
131.0
 40
131.0
 40
131.0
 40
132.0
 40
132.0
 40
132.0
 40
133.0
 40
133.0
 40
133.0
 40
134.0
 40
134.0
 40
134.0
 40
135.0
 40
135.0
 40
135.0
 40
136.0
 40
136.0
 40
136.0
 40
137.0
 40
137.0
 40
137.0
 40
138.0
 40
138.0
 40
138.0
 40
139.0
 40
139.0
 40
139.0
 40
140.0
 40
140.0
 40
140.0
 40
141.0
 40
141.0
 40
141.0
 40
142.0
 40
142.0
 40
142.0
 40
143.0
 40
143.0
 40
143.0
 40
144.0
 40
144.0
 40
144.0
 40
145.0
 40
145.0
 40
145.0
 40
146.0
 40
146.0
 40
146.0
 40
147.0
 40
147.0
 40
147.0
 40
148.0
 40
148.0
 40
148.0
 40
149.0
 40
149.0
 40
149.0
 40
150.0
 40
150.0
 40
150.0
 40
151.0
 40
151.0
 40
151.0
 40
152.0
 40
152.0
 40
152.0
 40
153.0
 40
153.0
 40
153.0
 40
154.0
 40
154.0
 40
154.0
 40
155.0
 40
155.0
 40
155.0
 40
156.0
 40
156.0
 40
156.0
 40
157.0
 40
157.0
 40
157.0
 40
158.0
 40
158.0
 40
158.0
 40
159.0
 40
159.0
 40
159.0
 40
160.0
 40
160.0
 40
160.0
 40
161.0
 40
161.0
 40
161.0
 40
162.0
 40
162.0
 40
162.0
 40
163.0
 40
163.0
 40
163.0
 40
164.0
 40
164.0
 40
164.0
 40
165.0
 40
165.0
 40
165.0
 40
166.0
 40
166.0
 40
166.0
 40
167.0
 40
167.0
 40
167.0
 40
168.0
 40
168.0
 40
168.0
 40
169.0
 40
169.0
 40
169.0
 40
170.0
 40
170.0
 40
170.0
 40
171.0
 40
171.0
 40
171.0
 40
172.0
 40
172.0
 40
172.0
 40
173.0
 40
173.0
 40
173.0
 40
174.0
 40
174.0
 40
174.0
 40
175.0
 40
175.0
 40
175.0
 40
176.0
 40
176.0
 40
176.0
 40
177.0
 40
177.0
 40
177.0
 40
178.0
 40
178.0
 40
178.0
 40
179.0
 40
179.0
 40
179.0
 40
180.0
 40
180.0
 40
180.0
 40
181.0
 40
181.0
 40
181.0
 40
182.0
 40
182.0
 40
182.0
 40
183.0
 40
183.0
 40
183.0
 40
184.0
 40
184.0
 40
184.0
 40
185.0
 40
185.0
 40
185.0
 40
186.0
 40
186.0
 40
186.0
 40
187.0
 40
187.0
 40
187.0
 40
188.0
 40
188.0
 40
188.0
 40
189.0
 40
189.0
 40
189.0
 40
190.0
 40
190.0
 40
190.0
 40
191.0
 40
191.0
 40
191.0
 40
192.0
 40
192.0
 40
192.0
 40
193.0
 40
193.0
 40
193.0
 40
194.0
 40
194.0
 40
194.0
 40
195.0
 40
195.0
 40
195.0
 40
196.0
 40
196.0
 40
196.0
 40
197.0
 40
197.0
 40
197.0
 40
198.0
 40
198.0
 40
198.0
 40
199.0
 40
199.0
 40
199.0
 40
200.0
 40
200.0
 40
200.0
 40
201.0
 40
201.0
 40
201.0
 40
202.0
 40
202.0
 40
202.0
 40
203.0
 40
203.0
 40
203.0
 40
204.0
 40
204.0
 40
204.0
 40
205.0
 40
205.0
 40
205.0
 40
206.0
 40
206.0
 40
206.0
 40
207.0
 40
207.0
 40
207.0
 40
208.0
 40
208.0
 40
208.0
 40
209.0
 40
209.0
 40
209.0
 40
210.0
 40
210.0
 40
210.0
 40
211.0
 40
211.0
 40
211.0
 40
212.0
 40
212.0
 40
212.0
 40
213.0
 40
213.0
 40
213.0
 40
214.0
 40
214.0
 40
214.0
 40
215.0
 40
215.0
 40
215.0
 40
216.0
 40
216.0
 40
216.0
 40
217.0
 40
217.0
 40
217.0
 40
218.0
 40
218.0
 40
218.0
 40
219.0
 40
219.0
 40
219.0
 40
220.0
 40
220.0
 40
220.0
 40
221.0
 40
221.0
 40
221.0
 40
222.0
 40
222.0
 40
222.0
 40
223.0
 40
223.0
 40
223.0
 40
224.0
 40
224.0
 40
224.0
 40
225.0
 40
225.0
 40
225.0
 40
226.0
 40
226.0
 40
226.0
 40
227.0
 40
227.0
 40
227.0
 40
228.0
 40
228.0
 40
228.0
 40
229.0
 40
229.0
 40
229.0
 40
230.0
 40
230.0
 40
230.0
 40
231.0
 40
231.0
 40
231.0
 40
232.0
 40
232.0
 40
232.0
 40
233.0
 40
233.0
 40
233.0
 40
234.0
 40
234.0
 40
234.0
 40
235.0
 40
235.0
 40
235.0
 40
236.0
 40
236.0
 40
236.0
 40
237.0
 40
237.0
 40
237.0
 40
238.0
 40
238.0
 40
238.0
 40
239.0
 40
239.0
 40
239.0
 40
240.0
 40
240.0
 40
240.0
 40
241.0
 40
241.0
 40
241.0
 40
242.0
 40
242.0
 40
242.0
 40
243.0
 40
243.0
 40
243.0
 40
244.0
 40
244.0
 40
244.0
 40
245.0
 40
245.0
 40
245.0
 40
246.0
 40
246.0
 40
246.0
 40
247.0
 40
247.0
 40
247.0
 40
248.0
 40
248.0
 40
248.0
 40
249.0
 40
249.0
 40
249.0
 40
250.0
 40
250.0
 40
250.0
 40
251.0
 40
251.0
 40
251.0
 40
252.0
 40
252.0
 40
252.0
 40
253.0
 40
253.0
 40
253.0
 40
253.0
 10
-168.2620515445413
 20
-2.075819215907189
 30
0.0
 10
-168.2620515445413
 20
-2.075819215907189
 30
0.0
 10
-168.9009754662321
 20
-1.013922277881764
 30
0.0
 10
-169.6041180245046
 20
0.4252162231531968
 30
0.0
 10
-169.9556606857109
 20
1.144785473669073
 30
0.0
 10
-170.3232866239931
 20
1.958622188043895
 30
0.0
 10
-170.6351075973315
 20
2.78121598922278
 30
0.0
 10
-170.7390479217778
 20
3.055433001573157
 30
0.0
 10
-170.8368067731829
 20
3.330565787700461
 30
0.0
 10
-170.9256940660593
 20
3.603523611095613
 30
0.0
 10
-171.1035258876781
 20
4.149439257882709
 30
0.0
 10
-171.2458714751744
 20
4.686540582003122
 30
0.0
 10
-171.3314390880887
 20
5.189472096822875
 30
0.0
 10
-171.374251512472
 20
5.440909236301441
 30
0.0
 10
-171.4028694432132
 20
5.683875468281995
 30
0.0
 10
-171.4146600306766
 20
5.915051112795992
 30
0.0
 10
-171.4500317930743
 20
6.608635282202525
 30
0.0
 10
-171.3337857584087
 20
7.196848230624109
 30
0.0
 10
-170.994205392253
 20
7.594065109289596
 30
0.0
 10
-170.994033684669
 20
7.594294052736234
 30
0.0
 10
-170.9938619770843
 20
7.594351288595006
 30
0.0
 10
-170.9936902695003
 20
7.594580232042286
 30
0.0
 10
-170.8922683229574
 20
7.713172937027262
 30
0.0
 10
-170.785237261993
 20
7.799656323721696
 30
0.0
 10
-170.675802294842
 20
7.871659037464728
 30
0.0
 10
-170.6532513654201
 20
7.886540361446782
 30
0.0
 10
-170.6307576718575
 20
7.90233745921603
 30
0.0
 10
-170.6079205631302
 20
7.915329999771985
 30
0.0
 10
-170.5004316152712
 20
7.976286192247785
 30
0.0
 10
-170.3900236384782
 20
8.019041380771698
 30
0.0
 10
-170.2763532175786
 20
8.040905479860168
 30
0.0
 10
-170.255805543308
 20
8.044854754300233
 30
0.0
 10
-170.234685510422
 20
8.045083697746871
 30
0.0
 10
-170.2139661285674
 20
8.0478310190969
 30
0.0
 10
-170.1654873538923
 20
8.054241435581586
 30
0.0
 10
-170.1175237019731
 20
8.064086003756216
 30
0.0
 10
-170.0681291535178
 20
8.064086003756216
 30
0.0
 10
-170.0249733139626
 20
8.064086003756216
 30
0.0
 10
-169.9799859268408
 20
8.050521104588799
 30
0.0
 10
-169.9361432569489
 20
8.045827763946197
 30
0.0
 10
-169.888236840889
 20
8.0407337722723
 30
0.0
 10
-169.8404448965539
 20
8.036326610939601
 30
0.0
 10
-169.7918516501573
 20
8.025852448287038
 30
0.0
 10
-169.7044524896796
 20
8.006964613999087
 30
0.0
 10
-169.6156796685245
 20
7.976801315003683
 30
0.0
 10
-169.5263344887548
 20
7.941658496053208
 30
0.0
 10
-169.4835220643677
 20
7.924831152778582
 30
0.0
 10
-169.4413392344591
 20
7.912811621868593
 30
0.0
 10
-169.3981261590412
 20
7.89249289104461
 30
0.0
 10
-169.2724362072317
 20
7.833311010273515
 30
0.0
 10
-169.1453725947487
 20
7.761365532396313
 30
0.0
 10
-169.0172787367603
 20
7.675225560867344
 30
0.0
 10
-169.0102387257983
 20
7.670532220224743
 30
0.0
 10
-169.0033131865577
 20
7.667670427152677
 30
0.0
 10
-168.9962731755958
 20
7.662862614788682
 30
0.0
 10
-168.8599945894154
 20
7.569797104022338
 30
0.0
 10
-168.7226857577265
 20
7.46047660859668
 30
0.0
 10
-168.585147982591
 20
7.341712196027687
 30
0.0
 10
-168.5413053126952
 20
7.303822055726541
 30
0.0
 10
-168.4974054069445
 20
7.260608980312561
 30
0.0
 10
-168.4535055011906
 20
7.220429405550811
 30
0.0
 10
-168.3594669807777
 20
7.134346669887674
 30
0.0
 10
-168.2653712245066
 20
7.04597449976329
 30
0.0
 10
-168.1714471758195
 20
6.950333375230933
 30
0.0
 10
-168.1194197777318
 20
6.897332967504945
 30
0.0
 10
-168.0675068513732
 20
6.841585238420586
 30
0.0
 10
-168.0156511608701
 20
6.786066452787356
 30
0.0
 10
-167.9290533024536
 20
6.693401593051667
 30
0.0
 10
-167.8427988592027
 20
6.598447298856014
 30
0.0
 10
-167.7568878311235
 20
6.499543730220296
 30
0.0
 10
-167.7047459613183
 20
6.439503311528481
 30
0.0
 10
-167.6527185632344
 20
6.379176713531256
 30
0.0
 10
-167.6009773444559
 20
6.317190275550718
 30
0.0
 10
-167.5135781839782
 20
6.212563120767661
 30
0.0
 10
-167.4269230896965
 20
6.105131408768103
 30
0.0
 10
-167.3408403540327
 20
5.99598262093031
 30
0.0
 10
-167.2937924758969
 20
5.936285617403318
 30
0.0
 10
-167.2464011825898
 20
5.87750438766352
 30
0.0
 10
-167.1998111913472
 20
5.816777138634357
 30
0.0
 10
-167.0996484337562
 20
5.686222138601372
 30
0.0
 10
-167.0012027520144
 20
5.55326323238703
 30
0.0
 10
-166.9037300799154
 20
5.419216844800838
 30
0.0
 10
-166.8743108471154
 20
5.378865562458281
 30
0.0
 10
-166.8440903122542
 20
5.339315582175106
 30
0.0
 10
-166.8149572587603
 20
5.298678120523289
 30
0.0
 10
-166.688122589724
 20
5.121762072694998
 30
0.0
 10
-166.5640352420345
 20
4.94352960004886
 30
0.0
 10
-166.4432675743141
 20
4.765755014292789
 30
0.0
 10
-166.4140200490982
 20
4.722656410596353
 30
0.0
 10
-166.3863751280036
 20
4.680187401381699
 30
0.0
 10
-166.3574710179564
 20
4.637146033548526
 30
0.0
 10
-166.266179818898
 20
4.501210862536233
 30
0.0
 10
-166.1760905729289
 20
4.365733578414009
 30
0.0
 10
-166.0893210069253
 20
4.232431257030994
 30
0.0
 10
-166.0490269604453
 20
4.17050205490987
 30
0.0
 10
-166.0103927539455
 20
4.110003749324137
 30
0.0
 10
-165.9711861888335
 20
4.048990320989565
 30
0.0
 10
-165.8979242861385
 20
3.934976484921946
 30
0.0
 10
-165.8255209213712
 20
3.821763950915635
 30
0.0
 10
-165.7563227648415
 20
3.711928332737929
 30
0.0
 10
-165.7170017280043
 20
3.649541243726095
 30
0.0
 10
-165.6783675215077
 20
3.587955456773003
 30
0.0
 10
-165.6404773812065
 20
3.527228207744482
 30
0.0
 10
-165.572710121216
 20
3.418537306796757
 30
0.0
 10
-165.5063737577616
 20
3.311849660996526
 30
0.0
 10
-165.4434143101312
 20
3.20968364825488
 30
0.0
 10
-165.4121635297653
 20
3.158915439126233
 30
0.0
 10
-165.3799969756153
 20
3.106888041039152
 30
0.0
 10
-165.3500053842007
 20
3.058065851198584
 30
0.0
 10
-165.2685015174543
 20
2.925164180843015
 30
0.0
 10
-165.1895160286119
 20
2.796097313208685
 30
0.0
 10
-165.1181429093462
 20
2.679450627511788
 30
0.0
 10
-165.0374403446623
 20
2.547521966802184
 30
0.0
 10
-164.9617172999226
 20
2.424064213589948
 30
0.0
 10
-164.8954954081934
 20
2.317777218828071
 30
0.0
 10
-164.6895607785894
 20
1.987469062228511
 30
0.0
 10
-164.2942326833533
 20
1.4996478148413
 30
0.0
 10
-163.7877525451247
 20
0.9250570014510383
 30
0.0
 10
-163.4501181982578
 20
0.5419773805714867
 30
0.0
 10
-163.0630893029356
 20
0.1203207890515173
 30
0.0
 10
-162.6497891471916
 20
-0.3190216836605913
 30
0.0
 10
-162.2365462273141
 20
-0.7583069205132864
 30
0.0
 10
-161.7970892828735
 20
-1.215278038565179
 30
0.0
 10
-161.3545988377762
 20
-1.668986712513711
 30
0.0
 10
-160.9121083926835
 20
-2.122638150596413
 30
0.0
 10
-160.4666416827895
 20
-2.573027144575754
 30
0.0
 10
-160.0413219961387
 20
-2.999205369151101
 30
0.0
 10
-158.5527317107859
 20
-4.49077191929738
 30
0.0
 10
-157.3111714035777
 20
-5.685398820095
 30
0.0
 10
-157.3111714035777
 20
-5.685398820095
 30
0.0
 10
-157.3111714035777
 20
-5.685398820095
 30
0.0
 10
-154.7272584370981
 20
-6.229540155177391
 30
0.0
 10
-154.7272584370981
 20
-6.229540155177391
 30
0.0
 10
-154.4643741253242
 20
-5.724719856931537
 30
0.0
 10
-154.1826019792591
 20
-5.226252739307748
 30
0.0
 10
-153.8789084982501
 20
-4.735798642291901
 30
0.0
 10
-153.5752150172404
 20
-4.245344545276054
 30
0.0
 10
-153.2496002012873
 20
-3.762903468868151
 30
0.0
 10
-152.899202257311
 20
-3.290249724772254
 30
0.0
 10
-150.770943984068
 20
-0.4179824881589313
 30
0.0
 10
-149.363743093739
 20
1.947747374360679
 30
0.0
 10
-148.4474541873164
 20
3.882949086834223
 30
0.0
 10
-148.1420436304621
 20
4.527997245710734
 30
0.0
 10
-147.8911216137394
 20
5.125196224382375
 30
0.0
 10
-147.686331701366
 20
5.677350580072707
 30
0.0
 10
-148.8339107240272
 20
5.76463526882909
 30
0.0
 10
-149.9646051675485
 20
5.877160972498054
 30
0.0
 10
-151.0760111257505
 20
6.015271106245706
 30
0.0
 10
-152.1874170839558
 20
6.153381239993358
 30
0.0
 10
-153.2795345568392
 20
6.317075803825474
 30
0.0
 10
-154.3499596382253
 20
6.506583741182274
 30
0.0
 10
-155.4204419554701
 20
6.696091678542924
 30
0.0
 10
-156.4691746453556
 20
6.911470225287672
 30
0.0
 10
-157.4939255092824
 20
7.153005560728345
 30
0.0
 10
-159.0310518051665
 20
7.515308563893846
 30
0.0
 10
-160.514090211956
 20
7.936392796795296
 30
0.0
 10
-161.9351421807618
 20
8.417402976667167
 30
0.0
 10
-162.8825101599663
 20
8.738038272676114
 30
0.0
 10
-163.8022332180761
 20
9.085231008408429
 30
0.0
 10
-164.6920791564928
 20
9.459381834896054
 30
0.0
 10
-165.5819250949134
 20
9.833475425528115
 30
0.0
 10
-166.4418366777781
 20
10.23446987104965
 30
0.0
 10
-167.269409998905
 20
10.6626513507757
 30
0.0
 10
-169.3383719196587
 20
11.73307643216176
 30
0.0
 10
-171.2052912493858
 20
12.97337755041734
 30
0.0
 10
-172.8333653291629
 20
14.38807633859782
 30
0.0
 10
-173.9322938695649
 20
15.34299945151696
 30
0.0
 10
-174.9223598014352
 20
16.37742317603503
 30
0.0
 10
-175.7921731883339
 20
17.49272117281774
 30
0.0
 10
-176.3720869368409
 20
18.23621501343605
 30
0.0
 10
-176.8985423907285
 20
19.0157102109185
 30
0.0
 10
-177.3681626341645
 20
19.83155018044466
 30
0.0
 10
-177.8377828776037
 20
20.64739014997083
 30
0.0
 10
-178.2506251464512
 20
21.49957489153302
 30
0.0
 10
-178.6032552890255
 20
22.38856229203284
 30
0.0
 10
-178.7795989782455
 20
22.83305599227698
 30
0.0
 10
-178.9408324000298
 20
23.2867646662223
 30
0.0
 10
-179.0866693750793
 20
23.74968831386817
 30
0.0
 10
-179.7346937987454
 20
25.80720306232333
 30
0.0
 10
-180.0771931938397
 20
28.04735744476182
 30
0.0
 10
-180.0771931938397
 20
30.47478756595527
 30
0.0
 10
-180.0771931938397
 20
34.4241764797486
 30
0.0
 10
-179.1701192611177
 20
38.20162886565459
 30
0.0
 10
-177.5154305057533
 20
41.67853574293282
 30
0.0
 10
-177.1017869348413
 20
42.54777677122012
 30
0.0
 10
-176.64132442924
 20
43.39818720107824
 30
0.0
 10
-176.1367330744376
 20
44.22782101321846
 30
0.0
 10
-176.0381156851112
 20
44.38991297293116
 30
0.0
 10
-175.9301116145001
 20
44.5473688278594
 30
0.0
 10
-175.8281745452051
 20
44.70780094758559
 30
0.0
 10
-174.6255918596628
 20
46.60087706600931
 30
0.0
 10
-173.1984156536784
 20
48.38520504762588
 30
0.0
 10
-171.5615272512347
 20
50.02856110242017
 30
0.0
 10
-170.4961961615225
 20
51.09812764588166
 30
0.0
 10
-169.345354694758
 20
52.10959978994327
 30
0.0
 10
-168.1173592867217
 20
53.05616646708643
 30
0.0
 10
-167.708008405421
 20
53.37165053555886
 30
0.0
 10
-167.2901866166222
 20
53.67998012134791
 30
0.0
 10
-166.8640083920469
 20
53.98081180928173
 30
0.0
 10
-166.0117091787595
 20
54.58253242101516
 30
0.0
 10
-165.1263276375387
 20
55.15437591305539
 30
0.0
 10
-164.2104966180095
 20
55.69433903025172
 30
0.0
 10
-161.9208332153944
 20
57.044246823239
 30
0.0
 10
-159.4404026864672
 20
58.19508829000349
 30
0.0
 10
-156.8080109453119
 20
59.1152692350028
 30
0.0
 10
-155.755042801681
 20
59.48335306017828
 30
0.0
 10
-154.6778066527764
 20
59.8145197546947
 30
0.0
 10
-153.578763640653
 20
60.10682329926787
 30
0.0
 10
-151.3806203805429
 20
60.69137315255544
 30
0.0
 10
-149.0952496675397
 20
61.12035593434343
 30
0.0
 10
-146.7425123455729
 20
61.37763113169459
 30
0.0
 10
-146.4558751512851
 20
65.04066903050166
 30
0.0
 10
-145.2307987721828
 20
70.20694959520468
 30
0.0
 10
-142.1516811321854
 20
75.22722147727027
 30
0.0
 10
-142.4881135259597
 20
75.96665157172006
 30
0.0
 10
-142.7171142077384
 20
76.76497736763554
 30
0.0
 10
-142.8105803695315
 20
77.60474192725644
 30
0.0
 10
-142.8417739140393
 20
77.8846825257548
 30
0.0
 10
-142.8577999552514
 20
78.16920199316666
 30
0.0
 10
-142.8577999552514
 20
78.45772797088443
 30
0.0
 10
-142.8577999552514
 20
78.72690822742097
 30
0.0
 10
-142.8441778202213
 20
78.99282603985414
 30
0.0
 10
-142.8175631446347
 20
79.25496628542806
 30
0.0
 10
-142.737661882009
 20
80.04138702215108
 30
0.0
 10
-142.5409422261055
 20
80.79329453440479
 30
0.0
 10
-142.2450328222577
 20
81.49300294099059
 30
0.0
 10
-141.5104105401681
 20
83.22999686516205
 30
0.0
 10
-140.1598159168448
 20
84.63759840652178
 30
0.0
 10
-138.4719875976845
 20
85.46162310423605
 30
0.0
 10
-137.4401394869363
 20
85.96541315697718
 30
0.0
 10
-136.2851198022857
 20
86.25605686156703
 30
0.0
 10
-135.0594710645688
 20
86.25605686156703
 30
0.0
 10
-133.8338223268518
 20
86.25605686156703
 30
0.0
 10
-132.6788026422013
 20
85.96541315697718
 30
0.0
 10
-131.6468972955904
 20
85.46162310423605
 30
0.0
 10
-129.9589545047056
 20
84.63759840652178
 30
0.0
 10
-128.6080737020723
 20
83.22999686516205
 30
0.0
 10
-127.8732797124025
 20
81.49300294099059
 30
0.0
 10
-127.5773130726921
 20
80.79329453440479
 30
0.0
 10
-127.3805934167887
 20
80.04138702215108
 30
0.0
 10
-127.3006921541661
 20
79.25496628542806
 30
0.0
 10
-127.2740774785763
 20
78.99282603985414
 30
0.0
 10
-127.260398107683
 20
78.72685099155835
 30
0.0
 10
-127.260398107683
 20
78.4576707350218
 30
0.0
 10
-127.260398107683
 20
76.30405697514423
 30
0.0
 10
-128.1334167028257
 20
74.35431735384961
 30
0.0
 10
-129.5447385751814
 20
72.94293824563446
 30
0.0
 10
-129.8975976611991
 20
72.59007915961358
 30
0.0
 10
-130.2841114337686
 20
72.27087476014452
 30
0.0
 10
-130.6990141936326
 20
71.99059074648133
 30
0.0
 10
-131.7362997112228
 20
71.28985209439078
 30
0.0
 10
-132.9511881069811
 20
70.83202243841817
 30
0.0
 10
-134.2620610424405
 20
70.69889182461918
 30
0.0
 10
-134.5242585238738
 20
70.67227714903253
 30
0.0
 10
-134.7902908080329
 20
70.65865501399866
 30
0.0
 10
-135.0594710645688
 20
70.65865501399866
 30
0.0
 10
-135.3201231777447
 20
70.65865501399866
 30
0.0
 10
-135.5776845544019
 20
70.67313568695005
 30
0.0
 10
-135.8321551945397
 20
70.69757539980518
 30
0.0
 10
-136.090346165671
 20
70.25823292708922
 30
0.0
 10
-136.3282184059783
 20
69.82100818124985
 30
0.0
 10
-136.5473172837223
 20
69.38796165329718
 30
0.0
 10
-136.9855150392044
 20
68.52181136153243
 30
0.0
 10
-137.3485621085686
 20
67.67225946959567
 30
0.0
 10
-137.649279324781
 20
66.85533201870216
 30
0.0
 10
-137.9499393051301
 20
66.03834733194536
 30
0.0
 10
-138.1883266681901
 20
65.2539870862363
 30
0.0
 10
-138.3769760676294
 20
64.51833455864191
 30
0.0
 10
-138.5656254670623
 20
63.78262479518811
 30
0.0
 10
-138.7045941387339
 20
63.09556551399086
 30
0.0
 10
-138.8065884438921
 20
62.47318275626541
 30
0.0
 10
-138.8575855964674
 20
62.1619913774043
 30
0.0
 10
-138.8993105394866
 20
61.86699774733923
 30
0.0
 10
-138.9334231129285
 20
61.59014788536342
 30
0.0
 10
-138.9334231129285
 20
61.59014788536342
 30
0.0
 10
-138.9334231129285
 20
61.59009064950464
 30
0.0
 10
-138.9334231129285
 20
61.59009064950464
 30
0.0
 10
-136.3464766457883
 20
61.45020620404908
 30
0.0
 10
-133.8294151655185
 20
61.10381477037871
 30
0.0
 10
-131.4071362718538
 20
60.57112060758715
 30
0.0
 10
-128.9849146140512
 20
60.03842644480008
 30
0.0
 10
-126.6574183069975
 20
59.31942955289887
 30
0.0
 10
-124.4497738938815
 20
58.43427695512158
 30
0.0
 10
-122.9780109518065
 20
57.84417522327068
 30
0.0
 10
-121.5594773609042
 20
57.18029646597269
 30
0.0
 10
-120.2016137831716
 20
56.4484787411034
 30
0.0
 10
-119.7078400061865
 20
56.18238922108236
 30
0.0
 10
-119.2220792498133
 20
55.90731367081446
 30
0.0
 10
-118.744674929216
 20
55.62353826959808
 30
0.0
 10
-117.312576439143
 20
54.77221206595661
 30
0.0
 10
-115.9558003427778
 20
53.84275891139733
 30
0.0
 10
-114.684019500709
 20
52.84290564721443
 30
0.0
 10
-114.2600734747316
 20
52.50962122582141
 30
0.0
 10
-113.8456286017615
 20
52.1684954914051
 30
0.0
 10
-113.4409138252439
 20
51.8198718591329
 30
0.0
 10
-111.8222264267475
 20
50.42526285832977
 30
0.0
 10
-110.3601935811187
 20
48.91005789738968
 30
0.0
 10
-109.0778241046792
 20
47.2927441595712
 30
0.0
 10
-108.4366107485245
 20
46.48405867273161
 30
0.0
 10
-107.8403275436362
 20
45.64984599167018
 30
0.0
 10
-107.2917790472173
 20
44.79239555085007
 30
0.0
 10
-106.1946248185226
 20
43.0774374333479
 30
0.0
 10
-105.2884666595846
 20
41.26964274852602
 30
0.0
 10
-104.5959699715454
 20
39.38715526447627
 30
0.0
 10
-104.2497502454584
 20
38.44596875831241
 30
0.0
 10
-103.9570460498546
 20
37.4860661254414
 30
0.0
 10
-103.7204902343613
 20
36.50985127204846
 30
0.0
 10
-103.2474930750941
 20
34.55742156526963
 30
0.0
 10
-102.9995473231688
 20
32.53957126881969
 30
0.0
 10
-102.9995473231688
 20
30.47478756595527
 30
0.0
 10
-102.9995473231688
 20
15.05996811650375
 30
0.0
 10
-116.8124494815359
 20
7.200511325758124
 30
0.0
 10
-134.9632575814211
 20
5.714096003143872
 30
0.0
 10
-134.2669833265265
 20
3.827888188094269
 30
0.0
 10
-133.0266249724115
 20
1.408299379920891
 30
0.0
 10
-130.9111875321373
 20
-1.64786667962457
 30
0.0
 10
-128.8790855061787
 20
-3.332260847097482
 30
0.0
 10
-119.4009413169374
 20
-12.14778546799287
 30
0.0
 10
-119.1686209551934
 20
-30.16935499265584
 30
0.0
 10
-119.1686209551934
 20
-30.16935499265584
 30
0.0
 10
-118.6512660032817
 20
-38.96810950613987
 30
0.0
 10
-121.2397006028198
 20
-40.00362071202144
 30
0.0
 10
-121.3869112385428
 20
-40.0624591776245
 30
0.0
 10
-121.5242200702323
 20
-40.09033304216251
 30
0.0
 10
-121.656434910248
 20
-40.10281045996321
 30
0.0
 10
-121.6779555941646
 20
-40.10481371511776
 30
0.0
 10
-121.7001631084211
 20
-40.10882022541981
 30
0.0
 10
-121.7213403771664
 20
-40.10967876334053
 30
0.0
 10
-121.8141769444855
 20
-40.11345633019979
 30
0.0
 10
-121.8994583780911
 20
-40.09508361866453
 30
0.0
 10
-121.9850832268604
 20
-40.07751220919057
 30
0.0
 10
-122.0297271988174
 20
-40.06835447135265
 30
0.0
 10
-122.077633614874
 20
-40.06858341479929
 30
0.0
 10
-122.1203315675392
 20
-40.05393103426002
 30
0.0
 10
-122.2179759472229
 20
-40.02050529115869
 30
0.0
 10
-122.3084086083606
 20
-39.96664634550429
 30
0.0
 10
-122.3965518350377
 20
-39.90643421922781
 30
0.0
 10
-122.4181297548169
 20
-39.89172460282978
 30
0.0
 10
-122.4425122318056
 20
-39.88497077117385
 30
0.0
 10
-122.4635750288288
 20
-39.86877302237715
 30
0.0
 10
-122.5704916180725
 20
-39.78629614598541
 30
0.0
 10
-122.6701964887695
 20
-39.68407289738435
 30
0.0
 10
-122.7635481788419
 20
-39.5659380792888
 30
0.0
 10
-122.7918226944144
 20
-39.53005119414285
 30
0.0
 10
-122.8161479355405
 20
-39.48426250495901
 30
0.0
 10
-122.843220498021
 20
-39.44545659087387
 30
0.0
 10
-122.9056648228948
 20
-39.35616864696679
 30
0.0
 10
-122.9679374401846
 20
-39.26625110858562
 30
0.0
 10
-123.0243147637424
 20
-39.16248249172328
 30
0.0
 10
-123.0566530254771
 20
-39.10295719578416
 30
0.0
 10
-123.0850420127716
 20
-39.03467481303712
 30
0.0
 10
-123.1154914910795
 20
-38.9708568274899
 30
0.0
 10
-123.1611657085381
 20
-38.87504399537352
 30
0.0
 10
-123.2073550487532
 20
-38.78037588048713
 30
0.0
 10
-123.2489655200471
 20
-38.67580596156285
 30
0.0
 10
-123.2789571114617
 20
-38.60048356785768
 30
0.0
 10
-123.305686258773
 20
-38.51886522938666
 30
0.0
 10
-123.3336745950369
 20
-38.43947908951682
 30
0.0
 10
-123.3703627822448
 20
-38.33536705748645
 30
0.0
 10
-123.4072226770373
 20
-38.23165567648674
 30
0.0
 10
-123.4405339484179
 20
-38.12141940727774
 30
0.0
 10
-123.4669196805611
 20
-38.03396301093734
 30
0.0
 10
-123.4909587423811
 20
-37.94272904773833
 30
0.0
 10
-123.5153984552324
 20
-37.85206744315398
 30
0.0
 10
-123.5452755749256
 20
-37.74108710774565
 30
0.0
 10
-123.5750954587562
 20
-37.62987782889068
 30
0.0
 10
-123.6021107853741
 20
-37.51477651145891
 30
0.0
 10
-123.624547243074
 20
-37.41924985864795
 30
0.0
 10
-123.6453810966539
 20
-37.32177718654827
 30
0.0
 10
-123.6659860067871
 20
-37.22396109928055
 30
0.0
 10
-123.6905974272231
 20
-37.10708547014087
 30
0.0
 10
-123.7146937249057
 20
-36.98980918996988
 30
0.0
 10
-123.7368440032963
 20
-36.87041518292617
 30
0.0
 10
-123.7553311865568
 20
-36.77082478395054
 30
0.0
 10
-123.772902596027
 20
-36.67066202636345
 30
0.0
 10
-123.7897871751642
 20
-36.56986967429842
 30
0.0
 10
-123.8101059059914
 20
-36.44841517623753
 30
0.0
 10
-123.8296233347534
 20
-36.32667449887122
 30
0.0
 10
-123.847767102842
 20
-36.20430422702699
 30
0.0
 10
-123.862820134412
 20
-36.10276780876649
 30
0.0
 10
-123.8774725149512
 20
-36.00134586222353
 30
0.0
 10
-123.8910946499813
 20
-35.89969497223778
 30
0.0
 10
-123.9075785780911
 20
-35.77680957764086
 30
0.0
 10
-123.9230894965511
 20
-35.65438206993785
 30
0.0
 10
-123.937684641227
 20
-35.53218350567763
 30
0.0
 10
-123.949532464553
 20
-35.4331082294579
 30
0.0
 10
-123.961380287879
 20
-35.33420466082282
 30
0.0
 10
-123.9720833939782
 20
-35.23615963010782
 30
0.0
 10
-123.9856482931463
 20
-35.11172886725026
 30
0.0
 10
-123.9980684750908
 20
-34.98907241609997
 30
0.0
 10
-124.0099735342761
 20
-34.86710279529024
 30
0.0
 10
-124.0191312721109
 20
-34.77312151074056
 30
0.0
 10
-124.0286324251175
 20
-34.67851063171679
 30
0.0
 10
-124.0369316250347
 20
-34.58641813059641
 30
0.0
 10
-124.0480926180201
 20
-34.46210183946345
 30
0.0
 10
-124.058166129642
 20
-34.34133417173927
 30
0.0
 10
-124.0678962260914
 20
-34.22148227780227
 30
0.0
 10
-124.0745928218853
 20
-34.1388909296885
 30
0.0
 10
-124.0818045404313
 20
-34.05446803400803
 30
0.0
 10
-124.0879287776099
 20
-33.97439506379828
 30
0.0
 10
-124.0974299306165
 20
-33.84973535749665
 30
0.0
 10
-124.1059008381146
 20
-33.73102818079028
 30
0.0
 10
-124.1141428021691
 20
-33.61363742889405
 30
0.0
 10
-124.1191795579798
 20
-33.54157747929225
 30
0.0
 10
-124.1248459082651
 20
-33.46528207594112
 30
0.0
 10
-124.1295392489071
 20
-33.39631286285737
 30
0.0
 10
-124.1407002418964
 20
-33.23147358179528
 30
0.0
 10
-124.1511744045457
 20
-33.07270130205176
 30
0.0
 10
-124.1606755575523
 20
-32.92881034629414
 30
0.0
 10
-124.1710924843384
 20
-32.77112554791863
 30
0.0
 10
-124.1809370525169
 20
-32.62528857286908
 30
0.0
 10
-124.1904382055203
 20
-32.49805325280208
 30
0.0
 10
-124.2676493826579
 20
-31.45710464007793
 30
0.0
 10
-125.0257956038117
 20
-28.78149982350863
 30
0.0
 10
-125.7609902445089
 20
-26.37719299035181
 30
0.0
 10
-126.2153285129322
 20
-28.86557930402107
 30
0.0
 10
-126.8495018581248
 20
-31.22289549490465
 30
0.0
 10
-127.5497826233215
 20
-33.33667309519685
 30
0.0
 10
-127.8999516238517
 20
-34.39353327741101
 30
0.0
 10
-128.2666045524873
 20
-35.38960897473465
 30
0.0
 10
-128.6357186231675
 20
-36.31070569351796
 30
0.0
 10
-129.0047754579851
 20
-37.23180241230448
 30
0.0
 10
-129.3762361989853
 20
-38.0779201525513
 30
0.0
 10
-129.7357918807995
 20
-38.83509336406226
 30
0.0
 10
-130.1874400637315
 20
-39.78600996667936
 30
0.0
 10
-130.3798097941636
 20
-40.65113001293552
 30
0.0
 10
-130.3797525583016
 20
-41.44951304470977
 30
0.0
 10
-130.3797525583016
 20
-41.64909449368847
 30
0.0
 10
-130.3677330273909
 20
-41.84455496063988
 30
0.0
 10
-130.3447242110757
 20
-42.03606615314803
 30
0.0
 10
-130.2296228936401
 20
-42.99379382328047
 30
0.0
 10
-129.8400756204145
 20
-43.85456394406975
 30
0.0
 10
-129.3068090990115
 20
-44.65552258961002
 30
0.0
 10
-128.5601672860157
 20
-45.77688758771195
 30
0.0
 10
-127.5317533269549
 20
-46.7809763056397
 30
0.0
 10
-126.5802643657257
 20
-47.76972581269531
 30
0.0
 10
-126.3083940236985
 20
-48.05218478909385
 30
0.0
 10
-126.0428196264334
 20
-48.33349904826563
 30
0.0
 10
-125.7918976097075
 20
-48.61584355294213
 30
0.0
 10
-124.1607900292737
 20
-50.45116868713784
 30
0.0
 10
-123.1482876397067
 20
-52.33365617118696
 30
0.0
 10
-125.051780684921
 20
-54.91556588251647
 30
0.0
 10
-125.2374538195598
 20
-55.16757538060971
 30
0.0
 10
-125.4374931554318
 20
-55.40699298917829
 30
0.0
 10
-125.6433705491738
 20
-55.64000018125897
 30
0.0
 10
-125.6934519279657
 20
-55.69666368412282
 30
0.0
 10
-125.7439339577915
 20
-55.7528693000966
 30
0.0
 10
-125.7951028179515
 20
-55.80833084987106
 30
0.0
 10
-126.0042426557994
 20
-56.0349276254677
 30
0.0
 10
-126.2196784384061
 20
-56.25471333354515
 30
0.0
 10
-126.4459890346929
 20
-56.45978942522841
 30
0.0
 10
-126.4593822262801
 20
-56.47198066372242
 30
0.0
 10
-126.4736911916507
 20
-56.48274100568102
 30
0.0
 10
-126.4871988549593
 20
-56.49481777245364
 30
0.0
 10
-126.7032642320446
 20
-56.68856116355977
 30
0.0
 10
-126.9283156393794
 20
-56.86891136308185
 30
0.0
 10
-127.1578886797727
 20
-57.04107683440877
 30
0.0
 10
-127.2174712115751
 20
-57.08572080636648
 30
0.0
 10
-127.2771109792356
 20
-57.13025030659446
 30
0.0
 10
-127.3374948130961
 20
-57.17334891029089
 30
0.0
 10
-127.5808616961041
 20
-57.34717422160048
 30
0.0
 10
-127.8290363914799
 20
-57.5119562668006
 30
0.0
 10
-128.0844800412605
 20
-57.65962478941683
 30
0.0
 10
-128.1114953678778
 20
-57.67525017960142
 30
0.0
 10
-128.1395409400043
 20
-57.68812824843277
 30
0.0
 10
-128.166670738343
 20
-57.70341022344933
 30
0.0
 10
-128.4017956572996
 20
-57.83602571449564
 30
0.0
 10
-128.6421290396516
 20
-57.95467565534388
 30
0.0
 10
-128.8854959226634
 20
-58.06330932042898
 30
0.0
 10
-128.9509165123345
 20
-58.09249960978548
 30
0.0
 10
-129.0161653944217
 20
-58.12197607844739
 30
0.0
 10
-129.0821011068448
 20
-58.14933482023334
 30
0.0
 10
-129.3493925799514
 20
-58.26042962736307
 30
0.0
 10
-129.6200037330278
 20
-58.35990555461346
 30
0.0
 10
-129.8945069246804
 20
-58.43997852482385
 30
0.0
 10
-129.9308516967203
 20
-58.45056715919781
 30
0.0
 10
-129.9678832990968
 20
-58.45754993429716
 30
0.0
 10
-130.0043425428581
 20
-58.46756621005645
 30
0.0
 10
-130.2516587003132
 20
-58.53561964935621
 30
0.0
 10
-130.5014932356679
 20
-58.58867729294867
 30
0.0
 10
-130.7528159034251
 20
-58.62982987735254
 30
0.0
 10
-130.8197246254942
 20
-58.64076192689516
 30
0.0
 10
-130.8865188758387
 20
-58.65255251435851
 30
0.0
 10
-130.9536565413519
 20
-58.66153854460922
 30
0.0
 10
-131.2340550267397
 20
-58.69902803387907
 30
0.0
 10
-131.5158844086674
 20
-58.72192237847291
 30
0.0
 10
-131.798629564372
 20
-58.72352498259296
 30
0.0
 10
-131.8598147002938
 20
-58.72386839776163
 30
0.0
 10
-131.9210570720788
 20
-58.71843099091971
 30
0.0
 10
-131.9822994438594
 20
-58.71705733024629
 30
0.0
 10
-132.1621917564889
 20
-58.71299358408162
 30
0.0
 10
-132.3421413049803
 20
-58.70303454418496
 30
0.0
 10
-132.5220336176091
 20
-58.68351711541908
 30
0.0
 10
-132.6054835036436
 20
-58.67441661344377
 30
0.0
 10
-132.6888189179606
 20
-58.66159578047184
 30
0.0
 10
-132.7722115681324
 20
-58.64911836267178
 30
0.0
 10
-132.9363640188585
 20
-58.62456417809526
 30
0.0
 10
-133.1002302902714
 20
-58.59302721841938
 30
0.0
 10
-133.2638103823783
 20
-58.55496537053743
 30
0.0
 10
-133.3463444946333
 20
-58.53579135694022
 30
0.0
 10
-133.4288786068844
 20
-58.51701799437431
 30
0.0
 10
-133.5111837756922
 20
-58.49429535736833
 30
0.0
 10
-133.6942812965649
 20
-58.44369885581985
 30
0.0
 10
-133.8764058077917
 20
-58.38217030473002
 30
0.0
 10
-134.0579579604038
 20
-58.31365897854019
 30
0.0
 10
-134.1155944729137
 20
-58.29190935117632
 30
0.0
 10
-134.1738033440381
 20
-58.27485306445506
 30
0.0
 10
-134.2312681489639
 20
-58.25127188952836
 30
0.0
 10
-134.4689114458246
 20
-58.15368474570407
 30
0.0
 10
-134.7047804309805
 20
-58.040586683423
 30
0.0
 10
-134.9381310382331
 20
-57.91060404200148
 30
0.0
 10
-134.9875828225471
 20
-57.8830735926315
 30
0.0
 10
-135.0360043613603
 20
-57.8487893116056
 30
0.0
 10
-135.0852844380973
 20
-57.81971349397434
 30
0.0
 10
-135.2684964306914
 20
-57.7116521875007
 30
0.0
 10
-135.4502202908876
 20
-57.59494826594504
 30
0.0
 10
-135.6298264242071
 20
-57.46576692658546
 30
0.0
 10
-135.7048054027475
 20
-57.41185074507228
 30
0.0
 10
-135.778811371638
 20
-57.35284057188906
 30
0.0
 10
-135.853046283979
 20
-57.29514682351597
 30
0.0
 10
-136.0086705913406
 20
-57.17432191993301
 30
0.0
 10
-136.1626922945788
 20
-57.04519781643606
 30
0.0
 10
-136.3148252143943
 20
-56.90754556957911
 30
0.0
 10
-136.3892890701749
 20
-56.84017896061927
 30
0.0
 10
-136.4637529259593
 20
-56.77258340821278
 30
0.0
 10
-136.5373010079598
 20
-56.70115305308506
 30
0.0
 10
-136.6993357318099
 20
-56.5437544340156
 30
0.0
 10
-136.8584514267214
 20
-56.37359221783938
 30
0.0
 10
-137.0157355740656
 20
-56.19581763208332
 30
0.0
 10
-137.0713688314247
 20
-56.13297265618205
 30
0.0
 10
-137.1282612777352
 20
-56.07516443608822
 30
0.0
 10
-137.1832077047538
 20
-56.00968661055448
 30
0.0
 10
-137.3929771370758
 20
-55.75990931105859
 30
0.0
 10
-137.5984538797859
 20
-55.49313296070405
 30
0.0
 10
-137.7979208570432
 20
-55.20483592643357
 30
0.0
 10
-137.8293433449938
 20
-55.15950512413914
 30
0.0
 10
-137.8587625777937
 20
-55.10770666950255
 30
0.0
 10
-137.8898988864383
 20
-55.06134562170339
 30
0.0
 10
-138.0555967054218
 20
-54.8144873511454
 30
0.0
 10
-138.2176886651306
 20
-54.55463654002823
 30
0.0
 10
-138.3752017559221
 20
-54.27967546148174
 30
0.0
 10
-138.4352421746139
 20
-54.17487659911467
 30
0.0
 10
-138.4931648664292
 20
-54.06332390509167
 30
0.0
 10
-138.5519460961696
 20
-53.95440406069666
 30
0.0
 10
-138.6790669445152
 20
-53.7186495472621
 30
0.0
 10
-138.8033259997856
 20
-53.47368006013084
 30
0.0
 10
-138.9242081392311
 20
-53.21806470276557
 30
0.0
 10
-138.9838479068923
 20
-53.09197409992471
 30
0.0
 10
-139.0430297876628
 20
-52.9646243081363
 30
0.0
 10
-139.1010097153412
 20
-52.8336114212094
 30
0.0
 10
-139.2229221002922
 20
-52.55819245577348
 30
0.0
 10
-139.3401983804632
 20
-52.26897964771517
 30
0.0
 10
-139.4546128675582
 20
-51.97146763974735
 30
0.0
 10
-139.5007449719101
 20
-51.85155850994773
 30
0.0
 10
-139.5486513879667
 20
-51.73685784354276
 30
0.0
 10
-139.5935243033672
 20
-51.61334285447175
 30
0.0
 10
-139.7484045445301
 20
-51.18670674300698
 30
0.0
 10
-139.8969888409335
 20
-50.74227027861777
 30
0.0
 10
-140.0357285691584
 20
-50.2713336103678
 30
0.0
 10
-140.0499230628038
 20
-50.22302654328057
 30
0.0
 10
-140.062171537161
 20
-50.1693965410728
 30
0.0
 10
-140.076251559085
 20
-50.12063158709164
 30
0.0
 10
-140.1985645950666
 20
-49.69611320250282
 30
0.0
 10
-140.3137231483649
 20
-49.25253527603818
 30
0.0
 10
-140.4221278700027
 20
-48.79150041182225
 30
0.0
 10
-140.4610482558092
 20
-48.62608877214806
 30
0.0
 10
-140.4964772540657
 20
-48.45197728152536
 30
0.0
 10
-140.5335088564423
 20
-48.28175782948716
 30
0.0
 10
-140.613123939762
 20
-47.91562002360428
 30
0.0
 10
-140.6889614562199
 20
-47.53986659299274
 30
0.0
 10
-140.759533273423
 20
-47.15134956527191
 30
0.0
 10
-140.7953629227108
 20
-46.95417202247841
 30
0.0
 10
-140.83010509063
 20
-46.75441886591568
 30
0.0
 10
-140.863530833732
 20
-46.55140326524639
 30
0.0
 10
-140.9301533764925
 20
-46.14663125286623
 30
0.0
 10
-140.990594446215
 20
-45.72726409580623
 30
0.0
 10
-141.0473151849414
 20
-45.29885367263354
 30
0.0
 10
-141.0727279074393
 20
-45.10682735737271
 30
0.0
 10
-141.1002583568093
 20
-44.9197233261979
 30
0.0
 10
-141.1236105882926
 20
-44.72283196270661
 30
0.0
 10
-141.1982461516649
 20
-44.09392431677507
 30
0.0
 10
-141.2651548737308
 20
-43.44693013861369
 30
0.0
 10
-141.3178691021552
 20
-42.76794111388316
 30
0.0
 10
-141.3705260947164
 20
-43.44698737447632
 30
0.0
 10
-141.4373775809235
 20
-44.09398155263448
 30
0.0
 10
-141.5119559084326
 20
-44.72288919856922
 30
0.0
 10
-141.5354226116379
 20
-44.92081080756526
 30
0.0
 10
-141.5631247685925
 20
-45.10894508424544
 30
0.0
 10
-141.5886519628112
 20
-45.30194440915609
 30
0.0
 10
-141.6450292863696
 20
-45.72789369028416
 30
0.0
 10
-141.7050697050614
 20
-46.14502864874298
 30
0.0
 10
-141.7712915967945
 20
-46.54756846252836
 30
0.0
 10
-141.8051179909271
 20
-46.75344585626651
 30
0.0
 10
-141.840375281599
 20
-46.95588909832049
 30
0.0
 10
-141.8766628177762
 20
-47.15575672660525
 30
0.0
 10
-141.94677674809
 20
-47.54129748953263
 30
0.0
 10
-142.0219274342111
 20
-47.91418912706824
 30
0.0
 10
-142.1009129230497
 20
-48.27757961160109
 30
0.0
 10
-142.1383451764607
 20
-48.44997402637401
 30
0.0
 10
-142.1742320616073
 20
-48.62620324386945
 30
0.0
 10
-142.2136103343033
 20
-48.79367537455761
 30
0.0
 10
-142.3211565180242
 20
-49.25104714363953
 30
0.0
 10
-142.4355137692605
 20
-49.69090473910817
 30
0.0
 10
-142.5567393238709
 20
-50.11233238717765
 30
0.0
 10
-142.5716778837194
 20
-50.16435978526152
 30
0.0
 10
-142.5846704242761
 20
-50.22153841088191
 30
0.0
 10
-142.5998379275674
 20
-50.27299345035047
 30
0.0
 10
-142.7380625330396
 20
-50.74209857103375
 30
0.0
 10
-142.8860172349619
 20
-51.18470348785243
 30
0.0
 10
-143.0402106457874
 20
-51.60979423105978
 30
0.0
 10
-143.0869151087553
 20
-51.73857491938806
 30
0.0
 10
-143.1367675441038
 20
-51.85808339815701
 30
0.0
 10
-143.184902903607
 20
-51.98285757618004
 30
0.0
 10
-143.29719966383
 20
-52.27435981869447
 30
0.0
 10
-143.4121292736809
 20
-52.55813521991086
 30
0.0
 10
-143.5316377524499
 20
-52.82840295781475
 30
0.0
 10
-143.5915064635577
 20
-52.96365129849034
 30
0.0
 10
-143.6525198918922
 20
-53.09512207230667
 30
0.0
 10
-143.7141056788447
 20
-53.22516194959018
 30
0.0
 10
-143.8324694403837
 20
-53.47522542839147
 30
0.0
 10
-143.95421011775
 20
-53.71504368799071
 30
0.0
 10
-144.0785836447417
 20
-53.94610486078267
 30
0.0
 10
-144.1396543089421
 20
-54.05954633823241
 30
0.0
 10
-144.1999236710812
 20
-54.17539172186735
 30
0.0
 10
-144.262367995955
 20
-54.28431156626172
 30
0.0
 10
-144.4153594536879
 20
-54.55114515247823
 30
0.0
 10
-144.57281530862
 20
-54.80304017885072
 30
0.0
 10
-144.7335336076523
 20
-55.04337356120264
 30
0.0
 10
-144.7692487852142
 20
-55.09677461995928
 30
0.0
 10
-144.8031896510721
 20
-55.15618544417381
 30
0.0
 10
-144.8392482438059
 20
-55.20827007812415
 30
0.0
 10
-145.0371698527987
 20
-55.49404873448803
 30
0.0
 10
-145.2409295196673
 20
-55.75870735796919
 30
0.0
 10
-145.4489246402815
 20
-56.00659587403513
 30
0.0
 10
-145.5079348134647
 20
-56.07693874779229
 30
0.0
 10
-145.5689482418031
 20
-56.13898242163545
 30
0.0
 10
-145.6287024811888
 20
-56.2063490305985
 30
0.0
 10
-145.7816367030591
 20
-56.37868620950943
 30
0.0
 10
-145.9361735290533
 20
-56.54432679263027
 30
0.0
 10
-146.0936293839822
 20
-56.69748995795106
 30
0.0
 10
-146.17015373078
 20
-56.77189657787288
 30
0.0
 10
-146.2475366154991
 20
-56.84218221577062
 30
0.0
 10
-146.3249767360802
 20
-56.91212443849647
 30
0.0
 10
-146.4739616835111
 20
-57.04668594883472
 30
0.0
 10
-146.6247209426499
 20
-57.17300549512223
 30
0.0
 10
-146.7769683341835
 20
-57.29142649251997
 30
0.0
 10
-146.8538360961499
 20
-57.35118073190253
 30
0.0
 10
-146.9303604429477
 20
-57.41219416024031
 30
0.0
 10
-147.0079722711128
 20
-57.46794188932403
 30
0.0
 10
-147.1839725451616
 20
-57.59437590732972
 30
0.0
 10
-147.3620333102231
 20
-57.708561450982
 30
0.0
 10
-147.5414677359625
 20
-57.81473397402633
 30
0.0
 10
-147.594010256799
 20
-57.84581304680829
 30
0.0
 10
-147.6456942397142
 20
-57.88221505471078
 30
0.0
 10
-147.6984657039974
 20
-57.91163428751007
 30
0.0
 10
-147.9307860657446
 20
-58.04087286272905
 30
0.0
 10
-148.1655103336706
 20
-58.15351303811941
 30
0.0
 10
-148.4020089133013
 20
-58.25069953091368
 30
0.0
 10
-148.4618776244123
 20
-58.27531095134897
 30
0.0
 10
-148.5224904017155
 20
-58.29305406840695
 30
0.0
 10
-148.5825880562706
 20
-58.31566223369089
 30
0.0
 10
-148.7617935385589
 20
-58.38302884265395
 30
0.0
 10
-148.9416286153289
 20
-58.44398503512975
 30
0.0
 10
-149.1223794658791
 20
-58.49395194219965
 30
0.0
 10
-149.2056004084702
 20
-58.51696075851489
 30
0.0
 10
-149.2890502945085
 20
-58.53590582866226
 30
0.0
 10
-149.3725574164056
 20
-58.55530878570611
 30
0.0
 10
-149.5355079140384
 20
-58.5931989260034
 30
0.0
 10
-149.6987445909773
 20
-58.62462141395788
 30
0.0
 10
-149.8622674472222
 20
-58.64906112680916
 30
0.0
 10
-149.9457745691193
 20
-58.66159578047184
 30
0.0
 10
-150.029338926879
 20
-58.67447384930319
 30
0.0
 10
-150.1129605205014
 20
-58.68351711541908
 30
0.0
 10
-150.2928528331302
 20
-58.70303454418496
 30
0.0
 10
-150.4728023816216
 20
-58.71299358408162
 30
0.0
 10
-150.6527519301137
 20
-58.71705733024629
 30
0.0
 10
-150.7139370660323
 20
-58.71843099091971
 30
0.0
 10
-150.7752366736793
 20
-58.72386839776163
 30
0.0
 10
-150.8364218095979
 20
-58.72352498259296
 30
0.0
 10
-151.1192242011677
 20
-58.72192237847291
 30
0.0
 10
-151.4011108189548
 20
-58.69902803387907
 30
0.0
 10
-151.681566540202
 20
-58.66148130875044
 30
0.0
 10
-151.7484180264091
 20
-58.65249527849653
 30
0.0
 10
-151.8149833333102
 20
-58.64081916275393
 30
0.0
 10
-151.881720347796
 20
-58.62988711321194
 30
0.0
 10
-152.1340732610541
 20
-58.58862005708605
 30
0.0
 10
-152.3849952777806
 20
-58.53539070590957
 30
0.0
 10
-152.6333989166024
 20
-58.46693661558237
 30
0.0
 10
-152.6686562072749
 20
-58.45720651912913
 30
0.0
 10
-152.7043713848369
 20
-58.45050992333518
 30
0.0
 10
-152.7395714396467
 20
-58.44026470412926
 30
0.0
 10
-153.0149331692239
 20
-58.35996279047608
 30
0.0
 10
-153.2864028602172
 20
-58.26025791977905
 30
0.0
 10
-153.5545528712483
 20
-58.14876246161804
 30
0.0
 10
-153.6192866305828
 20
-58.12180437085952
 30
0.0
 10
-153.6834480313019
 20
-58.09290026081292
 30
0.0
 10
-153.7476666678804
 20
-58.06428233007495
 30
0.0
 10
-153.9941242874103
 20
-57.954332240172
 30
0.0
 10
-154.2375484062809
 20
-57.83425140278836
 30
0.0
 10
-154.4755351183096
 20
-57.69974712831531
 30
0.0
 10
-154.4996886518555
 20
-57.6860677574188
 30
0.0
 10
-154.5247579591847
 20
-57.67462058512413
 30
0.0
 10
-154.5488542568641
 20
-57.66071227078419
 30
0.0
 10
-154.8057288031839
 20
-57.51241415369002
 30
0.0
 10
-155.0552199233744
 20
-57.34671633471041
 30
0.0
 10
-155.2998459953338
 20
-57.17197524961363
 30
0.0
 10
-155.3589706402423
 20
-57.12973518384178
 30
0.0
 10
-155.417408454814
 20
-57.08617869325591
 30
0.0
 10
-155.4757317976606
 20
-57.04245049508603
 30
0.0
 10
-155.7072508573426
 20
-56.86896859894126
 30
0.0
 10
-155.9341338122485
 20
-56.68713026702373
 30
0.0
 10
-156.1519735010372
 20
-56.49172703593109
 30
0.0
 10
-156.1640502678098
 20
-56.4809094581137
 30
0.0
 10
-156.1768711007824
 20
-56.47129383338571
 30
0.0
 10
-156.1888906316924
 20
-56.46041901970249
 30
0.0
 10
-156.4157163507357
 20
-56.25499951285441
 30
0.0
 10
-156.6315527843731
 20
-56.03475591788305
 30
0.0
 10
-156.8410932732484
 20
-55.80775849125576
 30
0.0
 10
-156.8920331899649
 20
-55.75264035664996
 30
0.0
 10
-156.9421718046227
 20
-55.69672091998544
 30
0.0
 10
-156.9919670041086
 20
-55.64040083228962
 30
0.0
 10
-157.1980161054346
 20
-55.40727916848434
 30
0.0
 10
-157.3981699130248
 20
-55.16768985233174
 30
0.0
 10
-157.5840147552482
 20
-54.91556588251647
 30
0.0
 10
-159.4869354418504
 20
-52.33365617118696
 30
0.0
 10
-158.4741468729742
 20
-50.45116868713784
 30
0.0
 10
-156.8429820566777
 20
-48.61584355294213
 30
0.0
 10
-156.5920028040899
 20
-48.33349904826563
 30
0.0
 10
-156.3264856426906
 20
-48.05218478909385
 30
0.0
 10
-156.0546153006628
 20
-47.76972581269531
 30
0.0
 10
-155.1030691035684
 20
-46.7809763056397
 30
0.0
 10
-154.0747123803734
 20
-45.77688758771195
 30
0.0
 10
-153.3281278032364
 20
-44.65552258961002
 30
0.0
 10
-152.7948040459714
 20
-43.85456394406975
 30
0.0
 10
-152.4053140086078
 20
-42.99379382328047
 30
0.0
 10
-152.2902699270348
 20
-42.03606615314803
 30
0.0
 10
-152.2672611107195
 20
-41.84455496063988
 30
0.0
 10
-152.2552415798095
 20
-41.64909449368847
 30
0.0
 10
-152.2551843439469
 20
-41.44951304470977
 30
0.0
 10
-152.2551843439469
 20
-40.65113001293552
 30
0.0
 10
-152.4475540743796
 20
-39.78600996667936
 30
0.0
 10
-152.899202257311
 20
-38.83509336406226
 30
0.0
 10
-153.0524226584905
 20
-38.51262652048663
 30
0.0
 10
-153.2077607865467
 20
-38.17407639983634
 30
0.0
 10
-153.364186395967
 20
-37.82047324761933
 30
0.0
 10
-153.5206120053905
 20
-37.46687009539849
 30
0.0
 10
-153.6780678603226
 20
-37.09827114747482
 30
0.0
 10
-153.8354664793888
 20
-36.71570664934475
 30
0.0
 10
-154.1502637175252
 20
-35.95052041722905
 30
0.0
 10
-154.4648320122143
 20
-35.12964369189545
 30
0.0
 10
-154.7704142766527
 20
-34.26154738083878
 30
0.0
 10
-156.4726660329049
 20
-29.42528879342607
 30
0.0
 10
-157.8897687272712
 20
-23.12533752040508
 30
0.0
 10
-157.5126988718451
 20
-16.85331734778473
 30
0.0
 10
-157.4836802900765
 20
-16.37047562034938
 30
0.0
 10
-157.4493960090506
 20
-15.88757665704435
 30
0.0
 10
-157.3983416206088
 20
-15.40576517511759
 30
0.0
 10
-161.0743148241137
 20
-12.44432446631858
 30
0.0
 10
-164.9589699785726
 20
-8.182885635743408
 30
0.0
 10
-168.2620515445413
 20
-2.075819215907189
 30
0.0
  0
SPLINE
  5
7F
330
79
100
AcDbEntity
  8
Layer 1
100
AcDbSpline
210
0.0
220
0.0
230
1.0
 70
     9
 71
     3
 72
    41
 73
    37
 74
     0
 42
0.0000000001
 43
0.0000000001
 40
0.0
 40
0.0
 40
0.0
 40
0.0
 40
1.0
 40
1.0
 40
1.0
 40
2.0
 40
2.0
 40
2.0
 40
3.0
 40
3.0
 40
3.0
 40
4.0
 40
4.0
 40
4.0
 40
5.0
 40
5.0
 40
5.0
 40
6.0
 40
6.0
 40
6.0
 40
7.0
 40
7.0
 40
7.0
 40
8.0
 40
8.0
 40
8.0
 40
9.0
 40
9.0
 40
9.0
 40
10.0
 40
10.0
 40
10.0
 40
11.0
 40
11.0
 40
11.0
 40
12.0
 40
12.0
 40
12.0
 40
12.0
 10
-83.46214324308846
 20
60.45109700606614
 30
0.0
 10
-81.71221401422304
 20
60.61095676717702
 30
0.0
 10
-80.32229835405866
 20
62.00081519147878
 30
0.0
 10
-80.16249582880655
 20
63.75074442034421
 30
0.0
 10
-79.54314657174103
 20
70.5318203449591
 30
0.0
 10
-78.00785182342423
 20
75.41701559393698
 30
0.0
 10
-78.00785182342423
 20
75.41701559393698
 30
0.0
 10
-78.00785182342423
 20
75.41701559393698
 30
0.0
 10
-76.4726143109662
 20
70.5318203449591
 30
0.0
 10
-75.85320781803742
 20
63.75074442034421
 30
0.0
 10
-75.69340529278595
 20
62.00081519147878
 30
0.0
 10
-74.30354686848419
 20
60.61095676717702
 30
0.0
 10
-72.55356040375615
 20
60.45109700606614
 30
0.0
 10
-65.77254171500388
 20
59.83174774899998
 30
0.0
 10
-60.88734646602921
 20
58.29645300067998
 30
0.0
 10
-60.88734646602921
 20
58.29645300067998
 30
0.0
 10
-60.88734646602921
 20
58.29645300067998
 30
0.0
 10
-65.77254171500388
 20
56.76121548822579
 30
0.0
 10
-72.55356040375615
 20
56.14180899529316
 30
0.0
 10
-74.30354686848419
 20
55.9820064700417
 30
0.0
 10
-75.69340529278595
 20
54.59214804574315
 30
0.0
 10
-75.85320781803742
 20
52.8421615810151
 30
0.0
 10
-76.4726143109662
 20
46.06114289225962
 30
0.0
 10
-78.00785182342423
 20
41.17594764328559
 30
0.0
 10
-78.00785182342423
 20
41.17594764328559
 30
0.0
 10
-78.00785182342423
 20
41.17594764328559
 30
0.0
 10
-79.54314657174103
 20
46.06114289225962
 30
0.0
 10
-80.16249582880655
 20
52.8421615810151
 30
0.0
 10
-80.32229835405866
 20
54.59214804574315
 30
0.0
 10
-81.71221401422304
 20
55.9820064700417
 30
0.0
 10
-83.46214324308846
 20
56.14180899529316
 30
0.0
 10
-90.2432191677027
 20
56.76121548822579
 30
0.0
 10
-95.12841441668124
 20
58.29645300067998
 30
0.0
 10
-95.12841441668124
 20
58.29645300067998
 30
0.0
 10
-95.12841441668124
 20
58.29645300067998
 30
0.0
 10
-90.2432191677027
 20
59.83174774899998
 30
0.0
 10
-83.46214324308846
 20
60.45109700606614
 30
0.0
  0
SPLINE
  5
80
330
79
100
AcDbEntity
  8
Layer 1
100
AcDbSpline
210
0.0
220
0.0
230
1.0
 70
    11
 71
     3
 72
    62
 73
    58
 74
     0
 42
0.0000000001
 43
0.0000000001
 40
0.0
 40
0.0
 40
0.0
 40
0.0
 40
1.0
 40
1.0
 40
1.0
 40
2.0
 40
2.0
 40
2.0
 40
3.0
 40
3.0
 40
3.0
 40
4.0
 40
4.0
 40
4.0
 40
5.0
 40
5.0
 40
5.0
 40
6.0
 40
6.0
 40
6.0
 40
7.0
 40
7.0
 40
7.0
 40
8.0
 40
8.0
 40
8.0
 40
9.0
 40
9.0
 40
9.0
 40
10.0
 40
10.0
 40
10.0
 40
11.0
 40
11.0
 40
11.0
 40
12.0
 40
12.0
 40
12.0
 40
13.0
 40
13.0
 40
13.0
 40
14.0
 40
14.0
 40
14.0
 40
15.0
 40
15.0
 40
15.0
 40
16.0
 40
16.0
 40
16.0
 40
17.0
 40
17.0
 40
17.0
 40
18.0
 40
18.0
 40
18.0
 40
19.0
 40
19.0
 40
19.0
 40
19.0
 10
-109.4404705230127
 20
-39.01029233604847
 30
0.0
 10
-109.4404705230127
 20
-39.01029233604847
 30
0.0
 10
-42.35420281146446
 20
49.85519367799681
 30
0.0
 10
-42.35420281146446
 20
49.85519367799681
 30
0.0
 10
-42.35420281146446
 20
49.85519367799681
 30
0.0
 10
-42.35420281146446
 20
85.46162310423605
 30
0.0
 10
-42.35420281146446
 20
85.46162310423605
 30
0.0
 10
-42.35420281146446
 20
85.46162310423605
 30
0.0
 10
-125.8969826513838
 20
85.46162310423605
 30
0.0
 10
-125.8969826513838
 20
85.46162310423605
 30
0.0
 10
-128.0097300061668
 20
88.21844560824636
 30
0.0
 10
-131.3256324051081
 20
90.00706627947426
 30
0.0
 10
-135.0594710645688
 20
90.00706627947426
 30
0.0
 10
-138.7930807805829
 20
90.00706627947426
 30
0.0
 10
-142.1088114719362
 20
88.21844560824636
 30
0.0
 10
-144.2213871191352
 20
85.46162310423605
 30
0.0
 10
-144.2213871191352
 20
85.46162310423605
 30
0.0
 10
-172.7612481437017
 20
85.46162310423605
 30
0.0
 10
-172.7612481437017
 20
85.46162310423605
 30
0.0
 10
-172.7612481437017
 20
85.46162310423605
 30
0.0
 10
-175.8281745452051
 20
85.46162310423605
 30
0.0
 10
-175.8281745452051
 20
85.46162310423605
 30
0.0
 10
-175.8281745452051
 20
85.46162310423605
 30
0.0
 10
-175.8281745452051
 20
50.87158810614444
 30
0.0
 10
-175.8281745452051
 20
50.87158810614444
 30
0.0
 10
-180.8697954036033
 20
45.09334171050912
 30
0.0
 10
-183.828202611743
 20
38.02671607297379
 30
0.0
 10
-183.828202611743
 20
30.47478756595527
 30
0.0
 10
-183.828202611743
 20
22.10083761637318
 30
0.0
 10
-180.2300701798506
 20
15.20202752469788
 30
0.0
 10
-173.6389600794832
 20
10.25993982940951
 30
0.0
 10
-173.7094746608276
 20
10.186105568103
 30
0.0
 10
-173.7783866380487
 20
10.10992463647006
 30
0.0
 10
-173.8456387752865
 20
10.0311680910743
 30
0.0
 10
-176.7780609023136
 20
6.601309091935139
 30
0.0
 10
-174.2129212983961
 20
0.5585185445368533
 30
0.0
 10
-171.5205463744155
 20
-3.935641298813588
 30
0.0
 10
-168.727722513534
 20
-9.080458415458785
 30
0.0
 10
-165.2903656165395
 20
-13.47651599223481
 30
0.0
 10
-161.2852862095245
 20
-17.0297755087268
 30
0.0
 10
-161.3645578776768
 20
-18.61601017376333
 30
0.0
 10
-161.3323340876642
 20
-20.1749433328733
 30
0.0
 10
-161.2316562073206
 20
-21.69827578614273
 30
0.0
 10
-161.2316562073206
 20
-21.69827578614273
 30
0.0
 10
-181.620272019321
 20
-48.25955031523387
 30
0.0
 10
-181.620272019321
 20
-48.25955031523387
 30
0.0
 10
-181.620272019321
 20
-48.25955031523387
 30
0.0
 10
-181.620272019321
 20
-83.40151072556983
 30
0.0
 10
-181.620272019321
 20
-83.40151072556983
 30
0.0
 10
-181.620272019321
 20
-83.40151072556983
 30
0.0
 10
-40.08846399894472
 20
-83.40151072556983
 30
0.0
 10
-40.08846399894472
 20
-83.40151072556983
 30
0.0
 10
-40.08846399894472
 20
-83.40151072556983
 30
0.0
 10
-40.08846399894472
 20
-39.01029233604847
 30
0.0
 10
-40.08846399894472
 20
-39.01029233604847
 30
0.0
 10
-40.08846399894472
 20
-39.01029233604847
 30
0.0
 10
-109.4404705230127
 20
-39.01029233604847
 30
0.0
 10
-109.4404705230127
 20
-39.01029233604847
 30
0.0
  0
HATCH
  5
81
330
79
100
AcDbEntity
  8
Layer 1
 62
     7
440
 33554687
100
AcDbHatch
 10
0.0
 20
0.0
 30
0.0
210
0.0
220
0.0
230
1.0
  2
SOLID
 70
     1
 71
     1
 91
        4
 92
        1
 93
        1
 72
     4
 94
        3
 73
     0
 74
     0
 95
       20
 96
       16
 40
0.0
 40
0.0
 40
0.0
 40
0.0
 40
1.0
 40
1.0
 40
1.0
 40
2.0
 40
2.0
 40
2.0
 40
3.0
 40
3.0
 40
3.0
 40
4.0
 40
4.0
 40
4.0
 40
5.0
 40
5.0
 40
5.0
 40
5.0
 10
-155.9130137793626
 20
-1.057078117436972
 10
-156.0207316706675
 20
-1.202342733871205
 10
-156.1272476088805
 20
-1.349610605456781
 10
-156.2326188298623
 20
-1.498767260471665
 10
-158.7325095516927
 20
0.9667819444695727
 10
-161.2318279149046
 20
3.570498519021727
 10
-161.7177603788663
 20
4.310729915533468
 10
-161.7177603788663
 20
4.310729915533468
 10
-161.7973182263202
 20
4.440254670057225
 10
-161.7973182263202
 20
4.440254670057225
 10
-159.2130046088086
 20
3.642844647929583
 10
-156.4264766926936
 20
3.011876510984087
 10
-153.4467205082213
 20
2.556908648086746
 10
-154.146829565834
 20
1.422093222534944
 10
-154.9698240180441
 20
0.2158474418624807
 10
-155.9130137793626
 20
-1.057078117436972
 97
        0
 97
        1
330
7D
 92
        1
 93
        1
 72
     4
 94
        3
 73
     0
 74
     0
 95
      764
 96
      760
 40
0.0
 40
0.0
 40
0.0
 40
0.0
 40
1.0
 40
1.0
 40
1.0
 40
2.0
 40
2.0
 40
2.0
 40
3.0
 40
3.0
 40
3.0
 40
4.0
 40
4.0
 40
4.0
 40
5.0
 40
5.0
 40
5.0
 40
6.0
 40
6.0
 40
6.0
 40
7.0
 40
7.0
 40
7.0
 40
8.0
 40
8.0
 40
8.0
 40
9.0
 40
9.0
 40
9.0
 40
10.0
 40
10.0
 40
10.0
 40
11.0
 40
11.0
 40
11.0
 40
12.0
 40
12.0
 40
12.0
 40
13.0
 40
13.0
 40
13.0
 40
14.0
 40
14.0
 40
14.0
 40
15.0
 40
15.0
 40
15.0
 40
16.0
 40
16.0
 40
16.0
 40
17.0
 40
17.0
 40
17.0
 40
18.0
 40
18.0
 40
18.0
 40
19.0
 40
19.0
 40
19.0
 40
20.0
 40
20.0
 40
20.0
 40
21.0
 40
21.0
 40
21.0
 40
22.0
 40
22.0
 40
22.0
 40
23.0
 40
23.0
 40
23.0
 40
24.0
 40
24.0
 40
24.0
 40
25.0
 40
25.0
 40
25.0
 40
26.0
 40
26.0
 40
26.0
 40
27.0
 40
27.0
 40
27.0
 40
28.0
 40
28.0
 40
28.0
 40
29.0
 40
29.0
 40
29.0
 40
30.0
 40
30.0
 40
30.0
 40
31.0
 40
31.0
 40
31.0
 40
32.0
 40
32.0
 40
32.0
 40
33.0
 40
33.0
 40
33.0
 40
34.0
 40
34.0
 40
34.0
 40
35.0
 40
35.0
 40
35.0
 40
36.0
 40
36.0
 40
36.0
 40
37.0
 40
37.0
 40
37.0
 40
38.0
 40
38.0
 40
38.0
 40
39.0
 40
39.0
 40
39.0
 40
40.0
 40
40.0
 40
40.0
 40
41.0
 40
41.0
 40
41.0
 40
42.0
 40
42.0
 40
42.0
 40
43.0
 40
43.0
 40
43.0
 40
44.0
 40
44.0
 40
44.0
 40
45.0
 40
45.0
 40
45.0
 40
46.0
 40
46.0
 40
46.0
 40
47.0
 40
47.0
 40
47.0
 40
48.0
 40
48.0
 40
48.0
 40
49.0
 40
49.0
 40
49.0
 40
50.0
 40
50.0
 40
50.0
 40
51.0
 40
51.0
 40
51.0
 40
52.0
 40
52.0
 40
52.0
 40
53.0
 40
53.0
 40
53.0
 40
54.0
 40
54.0
 40
54.0
 40
55.0
 40
55.0
 40
55.0
 40
56.0
 40
56.0
 40
56.0
 40
57.0
 40
57.0
 40
57.0
 40
58.0
 40
58.0
 40
58.0
 40
59.0
 40
59.0
 40
59.0
 40
60.0
 40
60.0
 40
60.0
 40
61.0
 40
61.0
 40
61.0
 40
62.0
 40
62.0
 40
62.0
 40
63.0
 40
63.0
 40
63.0
 40
64.0
 40
64.0
 40
64.0
 40
65.0
 40
65.0
 40
65.0
 40
66.0
 40
66.0
 40
66.0
 40
67.0
 40
67.0
 40
67.0
 40
68.0
 40
68.0
 40
68.0
 40
69.0
 40
69.0
 40
69.0
 40
70.0
 40
70.0
 40
70.0
 40
71.0
 40
71.0
 40
71.0
 40
72.0
 40
72.0
 40
72.0
 40
73.0
 40
73.0
 40
73.0
 40
74.0
 40
74.0
 40
74.0
 40
75.0
 40
75.0
 40
75.0
 40
76.0
 40
76.0
 40
76.0
 40
77.0
 40
77.0
 40
77.0
 40
78.0
 40
78.0
 40
78.0
 40
79.0
 40
79.0
 40
79.0
 40
80.0
 40
80.0
 40
80.0
 40
81.0
 40
81.0
 40
81.0
 40
82.0
 40
82.0
 40
82.0
 40
83.0
 40
83.0
 40
83.0
 40
84.0
 40
84.0
 40
84.0
 40
85.0
 40
85.0
 40
85.0
 40
86.0
 40
86.0
 40
86.0
 40
87.0
 40
87.0
 40
87.0
 40
88.0
 40
88.0
 40
88.0
 40
89.0
 40
89.0
 40
89.0
 40
90.0
 40
90.0
 40
90.0
 40
91.0
 40
91.0
 40
91.0
 40
92.0
 40
92.0
 40
92.0
 40
93.0
 40
93.0
 40
93.0
 40
94.0
 40
94.0
 40
94.0
 40
95.0
 40
95.0
 40
95.0
 40
96.0
 40
96.0
 40
96.0
 40
97.0
 40
97.0
 40
97.0
 40
98.0
 40
98.0
 40
98.0
 40
99.0
 40
99.0
 40
99.0
 40
100.0
 40
100.0
 40
100.0
 40
101.0
 40
101.0
 40
101.0
 40
102.0
 40
102.0
 40
102.0
 40
103.0
 40
103.0
 40
103.0
 40
104.0
 40
104.0
 40
104.0
 40
105.0
 40
105.0
 40
105.0
 40
106.0
 40
106.0
 40
106.0
 40
107.0
 40
107.0
 40
107.0
 40
108.0
 40
108.0
 40
108.0
 40
109.0
 40
109.0
 40
109.0
 40
110.0
 40
110.0
 40
110.0
 40
111.0
 40
111.0
 40
111.0
 40
112.0
 40
112.0
 40
112.0
 40
113.0
 40
113.0
 40
113.0
 40
114.0
 40
114.0
 40
114.0
 40
115.0
 40
115.0
 40
115.0
 40
116.0
 40
116.0
 40
116.0
 40
117.0
 40
117.0
 40
117.0
 40
118.0
 40
118.0
 40
118.0
 40
119.0
 40
119.0
 40
119.0
 40
120.0
 40
120.0
 40
120.0
 40
121.0
 40
121.0
 40
121.0
 40
122.0
 40
122.0
 40
122.0
 40
123.0
 40
123.0
 40
123.0
 40
124.0
 40
124.0
 40
124.0
 40
125.0
 40
125.0
 40
125.0
 40
126.0
 40
126.0
 40
126.0
 40
127.0
 40
127.0
 40
127.0
 40
128.0
 40
128.0
 40
128.0
 40
129.0
 40
129.0
 40
129.0
 40
130.0
 40
130.0
 40
130.0
 40
131.0
 40
131.0
 40
131.0
 40
132.0
 40
132.0
 40
132.0
 40
133.0
 40
133.0
 40
133.0
 40
134.0
 40
134.0
 40
134.0
 40
135.0
 40
135.0
 40
135.0
 40
136.0
 40
136.0
 40
136.0
 40
137.0
 40
137.0
 40
137.0
 40
138.0
 40
138.0
 40
138.0
 40
139.0
 40
139.0
 40
139.0
 40
140.0
 40
140.0
 40
140.0
 40
141.0
 40
141.0
 40
141.0
 40
142.0
 40
142.0
 40
142.0
 40
143.0
 40
143.0
 40
143.0
 40
144.0
 40
144.0
 40
144.0
 40
145.0
 40
145.0
 40
145.0
 40
146.0
 40
146.0
 40
146.0
 40
147.0
 40
147.0
 40
147.0
 40
148.0
 40
148.0
 40
148.0
 40
149.0
 40
149.0
 40
149.0
 40
150.0
 40
150.0
 40
150.0
 40
151.0
 40
151.0
 40
151.0
 40
152.0
 40
152.0
 40
152.0
 40
153.0
 40
153.0
 40
153.0
 40
154.0
 40
154.0
 40
154.0
 40
155.0
 40
155.0
 40
155.0
 40
156.0
 40
156.0
 40
156.0
 40
157.0
 40
157.0
 40
157.0
 40
158.0
 40
158.0
 40
158.0
 40
159.0
 40
159.0
 40
159.0
 40
160.0
 40
160.0
 40
160.0
 40
161.0
 40
161.0
 40
161.0
 40
162.0
 40
162.0
 40
162.0
 40
163.0
 40
163.0
 40
163.0
 40
164.0
 40
164.0
 40
164.0
 40
165.0
 40
165.0
 40
165.0
 40
166.0
 40
166.0
 40
166.0
 40
167.0
 40
167.0
 40
167.0
 40
168.0
 40
168.0
 40
168.0
 40
169.0
 40
169.0
 40
169.0
 40
170.0
 40
170.0
 40
170.0
 40
171.0
 40
171.0
 40
171.0
 40
172.0
 40
172.0
 40
172.0
 40
173.0
 40
173.0
 40
173.0
 40
174.0
 40
174.0
 40
174.0
 40
175.0
 40
175.0
 40
175.0
 40
176.0
 40
176.0
 40
176.0
 40
177.0
 40
177.0
 40
177.0
 40
178.0
 40
178.0
 40
178.0
 40
179.0
 40
179.0
 40
179.0
 40
180.0
 40
180.0
 40
180.0
 40
181.0
 40
181.0
 40
181.0
 40
182.0
 40
182.0
 40
182.0
 40
183.0
 40
183.0
 40
183.0
 40
184.0
 40
184.0
 40
184.0
 40
185.0
 40
185.0
 40
185.0
 40
186.0
 40
186.0
 40
186.0
 40
187.0
 40
187.0
 40
187.0
 40
188.0
 40
188.0
 40
188.0
 40
189.0
 40
189.0
 40
189.0
 40
190.0
 40
190.0
 40
190.0
 40
191.0
 40
191.0
 40
191.0
 40
192.0
 40
192.0
 40
192.0
 40
193.0
 40
193.0
 40
193.0
 40
194.0
 40
194.0
 40
194.0
 40
195.0
 40
195.0
 40
195.0
 40
196.0
 40
196.0
 40
196.0
 40
197.0
 40
197.0
 40
197.0
 40
198.0
 40
198.0
 40
198.0
 40
199.0
 40
199.0
 40
199.0
 40
200.0
 40
200.0
 40
200.0
 40
201.0
 40
201.0
 40
201.0
 40
202.0
 40
202.0
 40
202.0
 40
203.0
 40
203.0
 40
203.0
 40
204.0
 40
204.0
 40
204.0
 40
205.0
 40
205.0
 40
205.0
 40
206.0
 40
206.0
 40
206.0
 40
207.0
 40
207.0
 40
207.0
 40
208.0
 40
208.0
 40
208.0
 40
209.0
 40
209.0
 40
209.0
 40
210.0
 40
210.0
 40
210.0
 40
211.0
 40
211.0
 40
211.0
 40
212.0
 40
212.0
 40
212.0
 40
213.0
 40
213.0
 40
213.0
 40
214.0
 40
214.0
 40
214.0
 40
215.0
 40
215.0
 40
215.0
 40
216.0
 40
216.0
 40
216.0
 40
217.0
 40
217.0
 40
217.0
 40
218.0
 40
218.0
 40
218.0
 40
219.0
 40
219.0
 40
219.0
 40
220.0
 40
220.0
 40
220.0
 40
221.0
 40
221.0
 40
221.0
 40
222.0
 40
222.0
 40
222.0
 40
223.0
 40
223.0
 40
223.0
 40
224.0
 40
224.0
 40
224.0
 40
225.0
 40
225.0
 40
225.0
 40
226.0
 40
226.0
 40
226.0
 40
227.0
 40
227.0
 40
227.0
 40
228.0
 40
228.0
 40
228.0
 40
229.0
 40
229.0
 40
229.0
 40
230.0
 40
230.0
 40
230.0
 40
231.0
 40
231.0
 40
231.0
 40
232.0
 40
232.0
 40
232.0
 40
233.0
 40
233.0
 40
233.0
 40
234.0
 40
234.0
 40
234.0
 40
235.0
 40
235.0
 40
235.0
 40
236.0
 40
236.0
 40
236.0
 40
237.0
 40
237.0
 40
237.0
 40
238.0
 40
238.0
 40
238.0
 40
239.0
 40
239.0
 40
239.0
 40
240.0
 40
240.0
 40
240.0
 40
241.0
 40
241.0
 40
241.0
 40
242.0
 40
242.0
 40
242.0
 40
243.0
 40
243.0
 40
243.0
 40
244.0
 40
244.0
 40
244.0
 40
245.0
 40
245.0
 40
245.0
 40
246.0
 40
246.0
 40
246.0
 40
247.0
 40
247.0
 40
247.0
 40
248.0
 40
248.0
 40
248.0
 40
249.0
 40
249.0
 40
249.0
 40
250.0
 40
250.0
 40
250.0
 40
251.0
 40
251.0
 40
251.0
 40
252.0
 40
252.0
 40
252.0
 40
253.0
 40
253.0
 40
253.0
 40
253.0
 10
-168.2620515445413
 20
-2.075819215907189
 10
-168.2620515445413
 20
-2.075819215907189
 10
-168.9009754662321
 20
-1.013922277881764
 10
-169.6041180245046
 20
0.4252162231531968
 10
-169.9556606857109
 20
1.144785473669073
 10
-170.3232866239931
 20
1.958622188043895
 10
-170.6351075973315
 20
2.78121598922278
 10
-170.7390479217778
 20
3.055433001573157
 10
-170.8368067731829
 20
3.330565787700461
 10
-170.9256940660593
 20
3.603523611095613
 10
-171.1035258876781
 20
4.149439257882709
 10
-171.2458714751744
 20
4.686540582003122
 10
-171.3314390880887
 20
5.189472096822875
 10
-171.374251512472
 20
5.440909236301441
 10
-171.4028694432132
 20
5.683875468281995
 10
-171.4146600306766
 20
5.915051112795992
 10
-171.4500317930743
 20
6.608635282202525
 10
-171.3337857584087
 20
7.196848230624109
 10
-170.994205392253
 20
7.594065109289596
 10
-170.994033684669
 20
7.594294052736234
 10
-170.9938619770843
 20
7.594351288595006
 10
-170.9936902695003
 20
7.594580232042286
 10
-170.8922683229574
 20
7.713172937027262
 10
-170.785237261993
 20
7.799656323721696
 10
-170.675802294842
 20
7.871659037464728
 10
-170.6532513654201
 20
7.886540361446782
 10
-170.6307576718575
 20
7.90233745921603
 10
-170.6079205631302
 20
7.915329999771985
 10
-170.5004316152712
 20
7.976286192247785
 10
-170.3900236384782
 20
8.019041380771698
 10
-170.2763532175786
 20
8.040905479860168
 10
-170.255805543308
 20
8.044854754300233
 10
-170.234685510422
 20
8.045083697746871
 10
-170.2139661285674
 20
8.0478310190969
 10
-170.1654873538923
 20
8.054241435581586
 10
-170.1175237019731
 20
8.064086003756216
 10
-170.0681291535178
 20
8.064086003756216
 10
-170.0249733139626
 20
8.064086003756216
 10
-169.9799859268408
 20
8.050521104588799
 10
-169.9361432569489
 20
8.045827763946197
 10
-169.888236840889
 20
8.0407337722723
 10
-169.8404448965539
 20
8.036326610939601
 10
-169.7918516501573
 20
8.025852448287038
 10
-169.7044524896796
 20
8.006964613999087
 10
-169.6156796685245
 20
7.976801315003683
 10
-169.5263344887548
 20
7.941658496053208
 10
-169.4835220643677
 20
7.924831152778582
 10
-169.4413392344591
 20
7.912811621868593
 10
-169.3981261590412
 20
7.89249289104461
 10
-169.2724362072317
 20
7.833311010273515
 10
-169.1453725947487
 20
7.761365532396313
 10
-169.0172787367603
 20
7.675225560867344
 10
-169.0102387257983
 20
7.670532220224743
 10
-169.0033131865577
 20
7.667670427152677
 10
-168.9962731755958
 20
7.662862614788682
 10
-168.8599945894154
 20
7.569797104022338
 10
-168.7226857577265
 20
7.46047660859668
 10
-168.585147982591
 20
7.341712196027687
 10
-168.5413053126952
 20
7.303822055726541
 10
-168.4974054069445
 20
7.260608980312561
 10
-168.4535055011906
 20
7.220429405550811
 10
-168.3594669807777
 20
7.134346669887674
 10
-168.2653712245066
 20
7.04597449976329
 10
-168.1714471758195
 20
6.950333375230933
 10
-168.1194197777318
 20
6.897332967504945
 10
-168.0675068513732
 20
6.841585238420586
 10
-168.0156511608701
 20
6.786066452787356
 10
-167.9290533024536
 20
6.693401593051667
 10
-167.8427988592027
 20
6.598447298856014
 10
-167.7568878311235
 20
6.499543730220296
 10
-167.7047459613183
 20
6.439503311528481
 10
-167.6527185632344
 20
6.379176713531256
 10
-167.6009773444559
 20
6.317190275550718
 10
-167.5135781839782
 20
6.212563120767661
 10
-167.4269230896965
 20
6.105131408768103
 10
-167.3408403540327
 20
5.99598262093031
 10
-167.2937924758969
 20
5.936285617403318
 10
-167.2464011825898
 20
5.87750438766352
 10
-167.1998111913472
 20
5.816777138634357
 10
-167.0996484337562
 20
5.686222138601372
 10
-167.0012027520144
 20
5.55326323238703
 10
-166.9037300799154
 20
5.419216844800838
 10
-166.8743108471154
 20
5.378865562458281
 10
-166.8440903122542
 20
5.339315582175106
 10
-166.8149572587603
 20
5.298678120523289
 10
-166.688122589724
 20
5.121762072694998
 10
-166.5640352420345
 20
4.94352960004886
 10
-166.4432675743141
 20
4.765755014292789
 10
-166.4140200490982
 20
4.722656410596353
 10
-166.3863751280036
 20
4.680187401381699
 10
-166.3574710179564
 20
4.637146033548526
 10
-166.266179818898
 20
4.501210862536233
 10
-166.1760905729289
 20
4.365733578414009
 10
-166.0893210069253
 20
4.232431257030994
 10
-166.0490269604453
 20
4.17050205490987
 10
-166.0103927539455
 20
4.110003749324137
 10
-165.9711861888335
 20
4.048990320989565
 10
-165.8979242861385
 20
3.934976484921946
 10
-165.8255209213712
 20
3.821763950915635
 10
-165.7563227648415
 20
3.711928332737929
 10
-165.7170017280043
 20
3.649541243726095
 10
-165.6783675215077
 20
3.587955456773003
 10
-165.6404773812065
 20
3.527228207744482
 10
-165.572710121216
 20
3.418537306796757
 10
-165.5063737577616
 20
3.311849660996526
 10
-165.4434143101312
 20
3.20968364825488
 10
-165.4121635297653
 20
3.158915439126233
 10
-165.3799969756153
 20
3.106888041039152
 10
-165.3500053842007
 20
3.058065851198584
 10
-165.2685015174543
 20
2.925164180843015
 10
-165.1895160286119
 20
2.796097313208685
 10
-165.1181429093462
 20
2.679450627511788
 10
-165.0374403446623
 20
2.547521966802184
 10
-164.9617172999226
 20
2.424064213589948
 10
-164.8954954081934
 20
2.317777218828071
 10
-164.6895607785894
 20
1.987469062228511
 10
-164.2942326833533
 20
1.4996478148413
 10
-163.7877525451247
 20
0.9250570014510383
 10
-163.4501181982578
 20
0.5419773805714867
 10
-163.0630893029356
 20
0.1203207890515173
 10
-162.6497891471916
 20
-0.3190216836605913
 10
-162.2365462273141
 20
-0.7583069205132864
 10
-161.7970892828735
 20
-1.215278038565179
 10
-161.3545988377762
 20
-1.668986712513711
 10
-160.9121083926835
 20
-2.122638150596413
 10
-160.4666416827895
 20
-2.573027144575754
 10
-160.0413219961387
 20
-2.999205369151101
 10
-158.5527317107859
 20
-4.49077191929738
 10
-157.3111714035777
 20
-5.685398820095
 10
-157.3111714035777
 20
-5.685398820095
 10
-157.3111714035777
 20
-5.685398820095
 10
-154.7272584370981
 20
-6.229540155177391
 10
-154.7272584370981
 20
-6.229540155177391
 10
-154.4643741253242
 20
-5.724719856931537
 10
-154.1826019792591
 20
-5.226252739307748
 10
-153.8789084982501
 20
-4.735798642291901
 10
-153.5752150172404
 20
-4.245344545276054
 10
-153.2496002012873
 20
-3.762903468868151
 10
-152.899202257311
 20
-3.290249724772254
 10
-150.770943984068
 20
-0.4179824881589313
 10
-149.363743093739
 20
1.947747374360679
 10
-148.4474541873164
 20
3.882949086834223
 10
-148.1420436304621
 20
4.527997245710734
 10
-147.8911216137394
 20
5.125196224382375
 10
-147.686331701366
 20
5.677350580072707
 10
-148.8339107240272
 20
5.76463526882909
 10
-149.9646051675485
 20
5.877160972498054
 10
-151.0760111257505
 20
6.015271106245706
 10
-152.1874170839558
 20
6.153381239993358
 10
-153.2795345568392
 20
6.317075803825474
 10
-154.3499596382253
 20
6.506583741182274
 10
-155.4204419554701
 20
6.696091678542924
 10
-156.4691746453556
 20
6.911470225287672
 10
-157.4939255092824
 20
7.153005560728345
 10
-159.0310518051665
 20
7.515308563893846
 10
-160.514090211956
 20
7.936392796795296
 10
-161.9351421807618
 20
8.417402976667167
 10
-162.8825101599663
 20
8.738038272676114
 10
-163.8022332180761
 20
9.085231008408429
 10
-164.6920791564928
 20
9.459381834896054
 10
-165.5819250949134
 20
9.833475425528115
 10
-166.4418366777781
 20
10.23446987104965
 10
-167.269409998905
 20
10.6626513507757
 10
-169.3383719196587
 20
11.73307643216176
 10
-171.2052912493858
 20
12.97337755041734
 10
-172.8333653291629
 20
14.38807633859782
 10
-173.9322938695649
 20
15.34299945151696
 10
-174.9223598014352
 20
16.37742317603503
 10
-175.7921731883339
 20
17.49272117281774
 10
-176.3720869368409
 20
18.23621501343605
 10
-176.8985423907285
 20
19.0157102109185
 10
-177.3681626341645
 20
19.83155018044466
 10
-177.8377828776037
 20
20.64739014997083
 10
-178.2506251464512
 20
21.49957489153302
 10
-178.6032552890255
 20
22.38856229203284
 10
-178.7795989782455
 20
22.83305599227698
 10
-178.9408324000298
 20
23.2867646662223
 10
-179.0866693750793
 20
23.74968831386817
 10
-179.7346937987454
 20
25.80720306232333
 10
-180.0771931938397
 20
28.04735744476182
 10
-180.0771931938397
 20
30.47478756595527
 10
-180.0771931938397
 20
34.4241764797486
 10
-179.1701192611177
 20
38.20162886565459
 10
-177.5154305057533
 20
41.67853574293282
 10
-177.1017869348413
 20
42.54777677122012
 10
-176.64132442924
 20
43.39818720107824
 10
-176.1367330744376
 20
44.22782101321846
 10
-176.0381156851112
 20
44.38991297293116
 10
-175.9301116145001
 20
44.5473688278594
 10
-175.8281745452051
 20
44.70780094758559
 10
-174.6255918596628
 20
46.60087706600931
 10
-173.1984156536784
 20
48.38520504762588
 10
-171.5615272512347
 20
50.02856110242017
 10
-170.4961961615225
 20
51.09812764588166
 10
-169.345354694758
 20
52.10959978994327
 10
-168.1173592867217
 20
53.05616646708643
 10
-167.708008405421
 20
53.37165053555886
 10
-167.2901866166222
 20
53.67998012134791
 10
-166.8640083920469
 20
53.98081180928173
 10
-166.0117091787595
 20
54.58253242101516
 10
-165.1263276375387
 20
55.15437591305539
 10
-164.2104966180095
 20
55.69433903025172
 10
-161.9208332153944
 20
57.044246823239
 10
-159.4404026864672
 20
58.19508829000349
 10
-156.8080109453119
 20
59.1152692350028
 10
-155.755042801681
 20
59.48335306017828
 10
-154.6778066527764
 20
59.8145197546947
 10
-153.578763640653
 20
60.10682329926787
 10
-151.3806203805429
 20
60.69137315255544
 10
-149.0952496675397
 20
61.12035593434343
 10
-146.7425123455729
 20
61.37763113169459
 10
-146.4558751512851
 20
65.04066903050166
 10
-145.2307987721828
 20
70.20694959520468
 10
-142.1516811321854
 20
75.22722147727027
 10
-142.4881135259597
 20
75.96665157172006
 10
-142.7171142077384
 20
76.76497736763554
 10
-142.8105803695315
 20
77.60474192725644
 10
-142.8417739140393
 20
77.8846825257548
 10
-142.8577999552514
 20
78.16920199316666
 10
-142.8577999552514
 20
78.45772797088443
 10
-142.8577999552514
 20
78.72690822742097
 10
-142.8441778202213
 20
78.99282603985414
 10
-142.8175631446347
 20
79.25496628542806
 10
-142.737661882009
 20
80.04138702215108
 10
-142.5409422261055
 20
80.79329453440479
 10
-142.2450328222577
 20
81.49300294099059
 10
-141.5104105401681
 20
83.22999686516205
 10
-140.1598159168448
 20
84.63759840652178
 10
-138.4719875976845
 20
85.46162310423605
 10
-137.4401394869363
 20
85.96541315697718
 10
-136.2851198022857
 20
86.25605686156703
 10
-135.0594710645688
 20
86.25605686156703
 10
-133.8338223268518
 20
86.25605686156703
 10
-132.6788026422013
 20
85.96541315697718
 10
-131.6468972955904
 20
85.46162310423605
 10
-129.9589545047056
 20
84.63759840652178
 10
-128.6080737020723
 20
83.22999686516205
 10
-127.8732797124025
 20
81.49300294099059
 10
-127.5773130726921
 20
80.79329453440479
 10
-127.3805934167887
 20
80.04138702215108
 10
-127.3006921541661
 20
79.25496628542806
 10
-127.2740774785763
 20
78.99282603985414
 10
-127.260398107683
 20
78.72685099155835
 10
-127.260398107683
 20
78.4576707350218
 10
-127.260398107683
 20
76.30405697514423
 10
-128.1334167028257
 20
74.35431735384961
 10
-129.5447385751814
 20
72.94293824563446
 10
-129.8975976611991
 20
72.59007915961358
 10
-130.2841114337686
 20
72.27087476014452
 10
-130.6990141936326
 20
71.99059074648133
 10
-131.7362997112228
 20
71.28985209439078
 10
-132.9511881069811
 20
70.83202243841817
 10
-134.2620610424405
 20
70.69889182461918
 10
-134.5242585238738
 20
70.67227714903253
 10
-134.7902908080329
 20
70.65865501399866
 10
-135.0594710645688
 20
70.65865501399866
 10
-135.3201231777447
 20
70.65865501399866
 10
-135.5776845544019
 20
70.67313568695005
 10
-135.8321551945397
 20
70.69757539980518
 10
-136.090346165671
 20
70.25823292708922
 10
-136.3282184059783
 20
69.82100818124985
 10
-136.5473172837223
 20
69.38796165329718
 10
-136.9855150392044
 20
68.52181136153243
 10
-137.3485621085686
 20
67.67225946959567
 10
-137.649279324781
 20
66.85533201870216
 10
-137.9499393051301
 20
66.03834733194536
 10
-138.1883266681901
 20
65.2539870862363
 10
-138.3769760676294
 20
64.51833455864191
 10
-138.5656254670623
 20
63.78262479518811
 10
-138.7045941387339
 20
63.09556551399086
 10
-138.8065884438921
 20
62.47318275626541
 10
-138.8575855964674
 20
62.1619913774043
 10
-138.8993105394866
 20
61.86699774733923
 10
-138.9334231129285
 20
61.59014788536342
 10
-138.9334231129285
 20
61.59014788536342
 10
-138.9334231129285
 20
61.59009064950464
 10
-138.9334231129285
 20
61.59009064950464
 10
-136.3464766457883
 20
61.45020620404908
 10
-133.8294151655185
 20
61.10381477037871
 10
-131.4071362718538
 20
60.57112060758715
 10
-128.9849146140512
 20
60.03842644480008
 10
-126.6574183069975
 20
59.31942955289887
 10
-124.4497738938815
 20
58.43427695512158
 10
-122.9780109518065
 20
57.84417522327068
 10
-121.5594773609042
 20
57.18029646597269
 10
-120.2016137831716
 20
56.4484787411034
 10
-119.7078400061865
 20
56.18238922108236
 10
-119.2220792498133
 20
55.90731367081446
 10
-118.744674929216
 20
55.62353826959808
 10
-117.312576439143
 20
54.77221206595661
 10
-115.9558003427778
 20
53.84275891139733
 10
-114.684019500709
 20
52.84290564721443
 10
-114.2600734747316
 20
52.50962122582141
 10
-113.8456286017615
 20
52.1684954914051
 10
-113.4409138252439
 20
51.8198718591329
 10
-111.8222264267475
 20
50.42526285832977
 10
-110.3601935811187
 20
48.91005789738968
 10
-109.0778241046792
 20
47.2927441595712
 10
-108.4366107485245
 20
46.48405867273161
 10
-107.8403275436362
 20
45.64984599167018
 10
-107.2917790472173
 20
44.79239555085007
 10
-106.1946248185226
 20
43.0774374333479
 10
-105.2884666595846
 20
41.26964274852602
 10
-104.5959699715454
 20
39.38715526447627
 10
-104.2497502454584
 20
38.44596875831241
 10
-103.9570460498546
 20
37.4860661254414
 10
-103.7204902343613
 20
36.50985127204846
 10
-103.2474930750941
 20
34.55742156526963
 10
-102.9995473231688
 20
32.53957126881969
 10
-102.9995473231688
 20
30.47478756595527
 10
-102.9995473231688
 20
15.05996811650375
 10
-116.8124494815359
 20
7.200511325758124
 10
-134.9632575814211
 20
5.714096003143872
 10
-134.2669833265265
 20
3.827888188094269
 10
-133.0266249724115
 20
1.408299379920891
 10
-130.9111875321373
 20
-1.64786667962457
 10
-128.8790855061787
 20
-3.332260847097482
 10
-119.4009413169374
 20
-12.14778546799287
 10
-119.1686209551934
 20
-30.16935499265584
 10
-119.1686209551934
 20
-30.16935499265584
 10
-118.6512660032817
 20
-38.96810950613987
 10
-121.2397006028198
 20
-40.00362071202144
 10
-121.3869112385428
 20
-40.0624591776245
 10
-121.5242200702323
 20
-40.09033304216251
 10
-121.656434910248
 20
-40.10281045996321
 10
-121.6779555941646
 20
-40.10481371511776
 10
-121.7001631084211
 20
-40.10882022541981
 10
-121.7213403771664
 20
-40.10967876334053
 10
-121.8141769444855
 20
-40.11345633019979
 10
-121.8994583780911
 20
-40.09508361866453
 10
-121.9850832268604
 20
-40.07751220919057
 10
-122.0297271988174
 20
-40.06835447135265
 10
-122.077633614874
 20
-40.06858341479929
 10
-122.1203315675392
 20
-40.05393103426002
 10
-122.2179759472229
 20
-40.02050529115869
 10
-122.3084086083606
 20
-39.96664634550429
 10
-122.3965518350377
 20
-39.90643421922781
 10
-122.4181297548169
 20
-39.89172460282978
 10
-122.4425122318056
 20
-39.88497077117385
 10
-122.4635750288288
 20
-39.86877302237715
 10
-122.5704916180725
 20
-39.78629614598541
 10
-122.6701964887695
 20
-39.68407289738435
 10
-122.7635481788419
 20
-39.5659380792888
 10
-122.7918226944144
 20
-39.53005119414285
 10
-122.8161479355405
 20
-39.48426250495901
 10
-122.843220498021
 20
-39.44545659087387
 10
-122.9056648228948
 20
-39.35616864696679
 10
-122.9679374401846
 20
-39.26625110858562
 10
-123.0243147637424
 20
-39.16248249172328
 10
-123.0566530254771
 20
-39.10295719578416
 10
-123.0850420127716
 20
-39.03467481303712
 10
-123.1154914910795
 20
-38.9708568274899
 10
-123.1611657085381
 20
-38.87504399537352
 10
-123.2073550487532
 20
-38.78037588048713
 10
-123.2489655200471
 20
-38.67580596156285
 10
-123.2789571114617
 20
-38.60048356785768
 10
-123.305686258773
 20
-38.51886522938666
 10
-123.3336745950369
 20
-38.43947908951682
 10
-123.3703627822448
 20
-38.33536705748645
 10
-123.4072226770373
 20
-38.23165567648674
 10
-123.4405339484179
 20
-38.12141940727774
 10
-123.4669196805611
 20
-38.03396301093734
 10
-123.4909587423811
 20
-37.94272904773833
 10
-123.5153984552324
 20
-37.85206744315398
 10
-123.5452755749256
 20
-37.74108710774565
 10
-123.5750954587562
 20
-37.62987782889068
 10
-123.6021107853741
 20
-37.51477651145891
 10
-123.624547243074
 20
-37.41924985864795
 10
-123.6453810966539
 20
-37.32177718654827
 10
-123.6659860067871
 20
-37.22396109928055
 10
-123.6905974272231
 20
-37.10708547014087
 10
-123.7146937249057
 20
-36.98980918996988
 10
-123.7368440032963
 20
-36.87041518292617
 10
-123.7553311865568
 20
-36.77082478395054
 10
-123.772902596027
 20
-36.67066202636345
 10
-123.7897871751642
 20
-36.56986967429842
 10
-123.8101059059914
 20
-36.44841517623753
 10
-123.8296233347534
 20
-36.32667449887122
 10
-123.847767102842
 20
-36.20430422702699
 10
-123.862820134412
 20
-36.10276780876649
 10
-123.8774725149512
 20
-36.00134586222353
 10
-123.8910946499813
 20
-35.89969497223778
 10
-123.9075785780911
 20
-35.77680957764086
 10
-123.9230894965511
 20
-35.65438206993785
 10
-123.937684641227
 20
-35.53218350567763
 10
-123.949532464553
 20
-35.4331082294579
 10
-123.961380287879
 20
-35.33420466082282
 10
-123.9720833939782
 20
-35.23615963010782
 10
-123.9856482931463
 20
-35.11172886725026
 10
-123.9980684750908
 20
-34.98907241609997
 10
-124.0099735342761
 20
-34.86710279529024
 10
-124.0191312721109
 20
-34.77312151074056
 10
-124.0286324251175
 20
-34.67851063171679
 10
-124.0369316250347
 20
-34.58641813059641
 10
-124.0480926180201
 20
-34.46210183946345
 10
-124.058166129642
 20
-34.34133417173927
 10
-124.0678962260914
 20
-34.22148227780227
 10
-124.0745928218853
 20
-34.1388909296885
 10
-124.0818045404313
 20
-34.05446803400803
 10
-124.0879287776099
 20
-33.97439506379828
 10
-124.0974299306165
 20
-33.84973535749665
 10
-124.1059008381146
 20
-33.73102818079028
 10
-124.1141428021691
 20
-33.61363742889405
 10
-124.1191795579798
 20
-33.54157747929225
 10
-124.1248459082651
 20
-33.46528207594112
 10
-124.1295392489071
 20
-33.39631286285737
 10
-124.1407002418964
 20
-33.23147358179528
 10
-124.1511744045457
 20
-33.07270130205176
 10
-124.1606755575523
 20
-32.92881034629414
 10
-124.1710924843384
 20
-32.77112554791863
 10
-124.1809370525169
 20
-32.62528857286908
 10
-124.1904382055203
 20
-32.49805325280208
 10
-124.2676493826579
 20
-31.45710464007793
 10
-125.0257956038117
 20
-28.78149982350863
 10
-125.7609902445089
 20
-26.37719299035181
 10
-126.2153285129322
 20
-28.86557930402107
 10
-126.8495018581248
 20
-31.22289549490465
 10
-127.5497826233215
 20
-33.33667309519685
 10
-127.8999516238517
 20
-34.39353327741101
 10
-128.2666045524873
 20
-35.38960897473465
 10
-128.6357186231675
 20
-36.31070569351796
 10
-129.0047754579851
 20
-37.23180241230448
 10
-129.3762361989853
 20
-38.0779201525513
 10
-129.7357918807995
 20
-38.83509336406226
 10
-130.1874400637315
 20
-39.78600996667936
 10
-130.3798097941636
 20
-40.65113001293552
 10
-130.3797525583016
 20
-41.44951304470977
 10
-130.3797525583016
 20
-41.64909449368847
 10
-130.3677330273909
 20
-41.84455496063988
 10
-130.3447242110757
 20
-42.03606615314803
 10
-130.2296228936401
 20
-42.99379382328047
 10
-129.8400756204145
 20
-43.85456394406975
 10
-129.3068090990115
 20
-44.65552258961002
 10
-128.5601672860157
 20
-45.77688758771195
 10
-127.5317533269549
 20
-46.7809763056397
 10
-126.5802643657257
 20
-47.76972581269531
 10
-126.3083940236985
 20
-48.05218478909385
 10
-126.0428196264334
 20
-48.33349904826563
 10
-125.7918976097075
 20
-48.61584355294213
 10
-124.1607900292737
 20
-50.45116868713784
 10
-123.1482876397067
 20
-52.33365617118696
 10
-125.051780684921
 20
-54.91556588251647
 10
-125.2374538195598
 20
-55.16757538060971
 10
-125.4374931554318
 20
-55.40699298917829
 10
-125.6433705491738
 20
-55.64000018125897
 10
-125.6934519279657
 20
-55.69666368412282
 10
-125.7439339577915
 20
-55.7528693000966
 10
-125.7951028179515
 20
-55.80833084987106
 10
-126.0042426557994
 20
-56.0349276254677
 10
-126.2196784384061
 20
-56.25471333354515
 10
-126.4459890346929
 20
-56.45978942522841
 10
-126.4593822262801
 20
-56.47198066372242
 10
-126.4736911916507
 20
-56.48274100568102
 10
-126.4871988549593
 20
-56.49481777245364
 10
-126.7032642320446
 20
-56.68856116355977
 10
-126.9283156393794
 20
-56.86891136308185
 10
-127.1578886797727
 20
-57.04107683440877
 10
-127.2174712115751
 20
-57.08572080636648
 10
-127.2771109792356
 20
-57.13025030659446
 10
-127.3374948130961
 20
-57.17334891029089
 10
-127.5808616961041
 20
-57.34717422160048
 10
-127.8290363914799
 20
-57.5119562668006
 10
-128.0844800412605
 20
-57.65962478941683
 10
-128.1114953678778
 20
-57.67525017960142
 10
-128.1395409400043
 20
-57.68812824843277
 10
-128.166670738343
 20
-57.70341022344933
 10
-128.4017956572996
 20
-57.83602571449564
 10
-128.6421290396516
 20
-57.95467565534388
 10
-128.8854959226634
 20
-58.06330932042898
 10
-128.9509165123345
 20
-58.09249960978548
 10
-129.0161653944217
 20
-58.12197607844739
 10
-129.0821011068448
 20
-58.14933482023334
 10
-129.3493925799514
 20
-58.26042962736307
 10
-129.6200037330278
 20
-58.35990555461346
 10
-129.8945069246804
 20
-58.43997852482385
 10
-129.9308516967203
 20
-58.45056715919781
 10
-129.9678832990968
 20
-58.45754993429716
 10
-130.0043425428581
 20
-58.46756621005645
 10
-130.2516587003132
 20
-58.53561964935621
 10
-130.5014932356679
 20
-58.58867729294867
 10
-130.7528159034251
 20
-58.62982987735254
 10
-130.8197246254942
 20
-58.64076192689516
 10
-130.8865188758387
 20
-58.65255251435851
 10
-130.9536565413519
 20
-58.66153854460922
 10
-131.2340550267397
 20
-58.69902803387907
 10
-131.5158844086674
 20
-58.72192237847291
 10
-131.798629564372
 20
-58.72352498259296
 10
-131.8598147002938
 20
-58.72386839776163
 10
-131.9210570720788
 20
-58.71843099091971
 10
-131.9822994438594
 20
-58.71705733024629
 10
-132.1621917564889
 20
-58.71299358408162
 10
-132.3421413049803
 20
-58.70303454418496
 10
-132.5220336176091
 20
-58.68351711541908
 10
-132.6054835036436
 20
-58.67441661344377
 10
-132.6888189179606
 20
-58.66159578047184
 10
-132.7722115681324
 20
-58.64911836267178
 10
-132.9363640188585
 20
-58.62456417809526
 10
-133.1002302902714
 20
-58.59302721841938
 10
-133.2638103823783
 20
-58.55496537053743
 10
-133.3463444946333
 20
-58.53579135694022
 10
-133.4288786068844
 20
-58.51701799437431
 10
-133.5111837756922
 20
-58.49429535736833
 10
-133.6942812965649
 20
-58.44369885581985
 10
-133.8764058077917
 20
-58.38217030473002
 10
-134.0579579604038
 20
-58.31365897854019
 10
-134.1155944729137
 20
-58.29190935117632
 10
-134.1738033440381
 20
-58.27485306445506
 10
-134.2312681489639
 20
-58.25127188952836
 10
-134.4689114458246
 20
-58.15368474570407
 10
-134.7047804309805
 20
-58.040586683423
 10
-134.9381310382331
 20
-57.91060404200148
 10
-134.9875828225471
 20
-57.8830735926315
 10
-135.0360043613603
 20
-57.8487893116056
 10
-135.0852844380973
 20
-57.81971349397434
 10
-135.2684964306914
 20
-57.7116521875007
 10
-135.4502202908876
 20
-57.59494826594504
 10
-135.6298264242071
 20
-57.46576692658546
 10
-135.7048054027475
 20
-57.41185074507228
 10
-135.778811371638
 20
-57.35284057188906
 10
-135.853046283979
 20
-57.29514682351597
 10
-136.0086705913406
 20
-57.17432191993301
 10
-136.1626922945788
 20
-57.04519781643606
 10
-136.3148252143943
 20
-56.90754556957911
 10
-136.3892890701749
 20
-56.84017896061927
 10
-136.4637529259593
 20
-56.77258340821278
 10
-136.5373010079598
 20
-56.70115305308506
 10
-136.6993357318099
 20
-56.5437544340156
 10
-136.8584514267214
 20
-56.37359221783938
 10
-137.0157355740656
 20
-56.19581763208332
 10
-137.0713688314247
 20
-56.13297265618205
 10
-137.1282612777352
 20
-56.07516443608822
 10
-137.1832077047538
 20
-56.00968661055448
 10
-137.3929771370758
 20
-55.75990931105859
 10
-137.5984538797859
 20
-55.49313296070405
 10
-137.7979208570432
 20
-55.20483592643357
 10
-137.8293433449938
 20
-55.15950512413914
 10
-137.8587625777937
 20
-55.10770666950255
 10
-137.8898988864383
 20
-55.06134562170339
 10
-138.0555967054218
 20
-54.8144873511454
 10
-138.2176886651306
 20
-54.55463654002823
 10
-138.3752017559221
 20
-54.27967546148174
 10
-138.4352421746139
 20
-54.17487659911467
 10
-138.4931648664292
 20
-54.06332390509167
 10
-138.5519460961696
 20
-53.95440406069666
 10
-138.6790669445152
 20
-53.7186495472621
 10
-138.8033259997856
 20
-53.47368006013084
 10
-138.9242081392311
 20
-53.21806470276557
 10
-138.9838479068923
 20
-53.09197409992471
 10
-139.0430297876628
 20
-52.9646243081363
 10
-139.1010097153412
 20
-52.8336114212094
 10
-139.2229221002922
 20
-52.55819245577348
 10
-139.3401983804632
 20
-52.26897964771517
 10
-139.4546128675582
 20
-51.97146763974735
 10
-139.5007449719101
 20
-51.85155850994773
 10
-139.5486513879667
 20
-51.73685784354276
 10
-139.5935243033672
 20
-51.61334285447175
 10
-139.7484045445301
 20
-51.18670674300698
 10
-139.8969888409335
 20
-50.74227027861777
 10
-140.0357285691584
 20
-50.2713336103678
 10
-140.0499230628038
 20
-50.22302654328057
 10
-140.062171537161
 20
-50.1693965410728
 10
-140.076251559085
 20
-50.12063158709164
 10
-140.1985645950666
 20
-49.69611320250282
 10
-140.3137231483649
 20
-49.25253527603818
 10
-140.4221278700027
 20
-48.79150041182225
 10
-140.4610482558092
 20
-48.62608877214806
 10
-140.4964772540657
 20
-48.45197728152536
 10
-140.5335088564423
 20
-48.28175782948716
 10
-140.613123939762
 20
-47.91562002360428
 10
-140.6889614562199
 20
-47.53986659299274
 10
-140.759533273423
 20
-47.15134956527191
 10
-140.7953629227108
 20
-46.95417202247841
 10
-140.83010509063
 20
-46.75441886591568
 10
-140.863530833732
 20
-46.55140326524639
 10
-140.9301533764925
 20
-46.14663125286623
 10
-140.990594446215
 20
-45.72726409580623
 10
-141.0473151849414
 20
-45.29885367263354
 10
-141.0727279074393
 20
-45.10682735737271
 10
-141.1002583568093
 20
-44.9197233261979
 10
-141.1236105882926
 20
-44.72283196270661
 10
-141.1982461516649
 20
-44.09392431677507
 10
-141.2651548737308
 20
-43.44693013861369
 10
-141.3178691021552
 20
-42.76794111388316
 10
-141.3705260947164
 20
-43.44698737447632
 10
-141.4373775809235
 20
-44.09398155263448
 10
-141.5119559084326
 20
-44.72288919856922
 10
-141.5354226116379
 20
-44.92081080756526
 10
-141.5631247685925
 20
-45.10894508424544
 10
-141.5886519628112
 20
-45.30194440915609
 10
-141.6450292863696
 20
-45.72789369028416
 10
-141.7050697050614
 20
-46.14502864874298
 10
-141.7712915967945
 20
-46.54756846252836
 10
-141.8051179909271
 20
-46.75344585626651
 10
-141.840375281599
 20
-46.95588909832049
 10
-141.8766628177762
 20
-47.15575672660525
 10
-141.94677674809
 20
-47.54129748953263
 10
-142.0219274342111
 20
-47.91418912706824
 10
-142.1009129230497
 20
-48.27757961160109
 10
-142.1383451764607
 20
-48.44997402637401
 10
-142.1742320616073
 20
-48.62620324386945
 10
-142.2136103343033
 20
-48.79367537455761
 10
-142.3211565180242
 20
-49.25104714363953
 10
-142.4355137692605
 20
-49.69090473910817
 10
-142.5567393238709
 20
-50.11233238717765
 10
-142.5716778837194
 20
-50.16435978526152
 10
-142.5846704242761
 20
-50.22153841088191
 10
-142.5998379275674
 20
-50.27299345035047
 10
-142.7380625330396
 20
-50.74209857103375
 10
-142.8860172349619
 20
-51.18470348785243
 10
-143.0402106457874
 20
-51.60979423105978
 10
-143.0869151087553
 20
-51.73857491938806
 10
-143.1367675441038
 20
-51.85808339815701
 10
-143.184902903607
 20
-51.98285757618004
 10
-143.29719966383
 20
-52.27435981869447
 10
-143.4121292736809
 20
-52.55813521991086
 10
-143.5316377524499
 20
-52.82840295781475
 10
-143.5915064635577
 20
-52.96365129849034
 10
-143.6525198918922
 20
-53.09512207230667
 10
-143.7141056788447
 20
-53.22516194959018
 10
-143.8324694403837
 20
-53.47522542839147
 10
-143.95421011775
 20
-53.71504368799071
 10
-144.0785836447417
 20
-53.94610486078267
 10
-144.1396543089421
 20
-54.05954633823241
 10
-144.1999236710812
 20
-54.17539172186735
 10
-144.262367995955
 20
-54.28431156626172
 10
-144.4153594536879
 20
-54.55114515247823
 10
-144.57281530862
 20
-54.80304017885072
 10
-144.7335336076523
 20
-55.04337356120264
 10
-144.7692487852142
 20
-55.09677461995928
 10
-144.8031896510721
 20
-55.15618544417381
 10
-144.8392482438059
 20
-55.20827007812415
 10
-145.0371698527987
 20
-55.49404873448803
 10
-145.2409295196673
 20
-55.75870735796919
 10
-145.4489246402815
 20
-56.00659587403513
 10
-145.5079348134647
 20
-56.07693874779229
 10
-145.5689482418031
 20
-56.13898242163545
 10
-145.6287024811888
 20
-56.2063490305985
 10
-145.7816367030591
 20
-56.37868620950943
 10
-145.9361735290533
 20
-56.54432679263027
 10
-146.0936293839822
 20
-56.69748995795106
 10
-146.17015373078
 20
-56.77189657787288
 10
-146.2475366154991
 20
-56.84218221577062
 10
-146.3249767360802
 20
-56.91212443849647
 10
-146.4739616835111
 20
-57.04668594883472
 10
-146.6247209426499
 20
-57.17300549512223
 10
-146.7769683341835
 20
-57.29142649251997
 10
-146.8538360961499
 20
-57.35118073190253
 10
-146.9303604429477
 20
-57.41219416024031
 10
-147.0079722711128
 20
-57.46794188932403
 10
-147.1839725451616
 20
-57.59437590732972
 10
-147.3620333102231
 20
-57.708561450982
 10
-147.5414677359625
 20
-57.81473397402633
 10
-147.594010256799
 20
-57.84581304680829
 10
-147.6456942397142
 20
-57.88221505471078
 10
-147.6984657039974
 20
-57.91163428751007
 10
-147.9307860657446
 20
-58.04087286272905
 10
-148.1655103336706
 20
-58.15351303811941
 10
-148.4020089133013
 20
-58.25069953091368
 10
-148.4618776244123
 20
-58.27531095134897
 10
-148.5224904017155
 20
-58.29305406840695
 10
-148.5825880562706
 20
-58.31566223369089
 10
-148.7617935385589
 20
-58.38302884265395
 10
-148.9416286153289
 20
-58.44398503512975
 10
-149.1223794658791
 20
-58.49395194219965
 10
-149.2056004084702
 20
-58.51696075851489
 10
-149.2890502945085
 20
-58.53590582866226
 10
-149.3725574164056
 20
-58.55530878570611
 10
-149.5355079140384
 20
-58.5931989260034
 10
-149.6987445909773
 20
-58.62462141395788
 10
-149.8622674472222
 20
-58.64906112680916
 10
-149.9457745691193
 20
-58.66159578047184
 10
-150.029338926879
 20
-58.67447384930319
 10
-150.1129605205014
 20
-58.68351711541908
 10
-150.2928528331302
 20
-58.70303454418496
 10
-150.4728023816216
 20
-58.71299358408162
 10
-150.6527519301137
 20
-58.71705733024629
 10
-150.7139370660323
 20
-58.71843099091971
 10
-150.7752366736793
 20
-58.72386839776163
 10
-150.8364218095979
 20
-58.72352498259296
 10
-151.1192242011677
 20
-58.72192237847291
 10
-151.4011108189548
 20
-58.69902803387907
 10
-151.681566540202
 20
-58.66148130875044
 10
-151.7484180264091
 20
-58.65249527849653
 10
-151.8149833333102
 20
-58.64081916275393
 10
-151.881720347796
 20
-58.62988711321194
 10
-152.1340732610541
 20
-58.58862005708605
 10
-152.3849952777806
 20
-58.53539070590957
 10
-152.6333989166024
 20
-58.46693661558237
 10
-152.6686562072749
 20
-58.45720651912913
 10
-152.7043713848369
 20
-58.45050992333518
 10
-152.7395714396467
 20
-58.44026470412926
 10
-153.0149331692239
 20
-58.35996279047608
 10
-153.2864028602172
 20
-58.26025791977905
 10
-153.5545528712483
 20
-58.14876246161804
 10
-153.6192866305828
 20
-58.12180437085952
 10
-153.6834480313019
 20
-58.09290026081292
 10
-153.7476666678804
 20
-58.06428233007495
 10
-153.9941242874103
 20
-57.954332240172
 10
-154.2375484062809
 20
-57.83425140278836
 10
-154.4755351183096
 20
-57.69974712831531
 10
-154.4996886518555
 20
-57.6860677574188
 10
-154.5247579591847
 20
-57.67462058512413
 10
-154.5488542568641
 20
-57.66071227078419
 10
-154.8057288031839
 20
-57.51241415369002
 10
-155.0552199233744
 20
-57.34671633471041
 10
-155.2998459953338
 20
-57.17197524961363
 10
-155.3589706402423
 20
-57.12973518384178
 10
-155.417408454814
 20
-57.08617869325591
 10
-155.4757317976606
 20
-57.04245049508603
 10
-155.7072508573426
 20
-56.86896859894126
 10
-155.9341338122485
 20
-56.68713026702373
 10
-156.1519735010372
 20
-56.49172703593109
 10
-156.1640502678098
 20
-56.4809094581137
 10
-156.1768711007824
 20
-56.47129383338571
 10
-156.1888906316924
 20
-56.46041901970249
 10
-156.4157163507357
 20
-56.25499951285441
 10
-156.6315527843731
 20
-56.03475591788305
 10
-156.8410932732484
 20
-55.80775849125576
 10
-156.8920331899649
 20
-55.75264035664996
 10
-156.9421718046227
 20
-55.69672091998544
 10
-156.9919670041086
 20
-55.64040083228962
 10
-157.1980161054346
 20
-55.40727916848434
 10
-157.3981699130248
 20
-55.16768985233174
 10
-157.5840147552482
 20
-54.91556588251647
 10
-159.4869354418504
 20
-52.33365617118696
 10
-158.4741468729742
 20
-50.45116868713784
 10
-156.8429820566777
 20
-48.61584355294213
 10
-156.5920028040899
 20
-48.33349904826563
 10
-156.3264856426906
 20
-48.05218478909385
 10
-156.0546153006628
 20
-47.76972581269531
 10
-155.1030691035684
 20
-46.7809763056397
 10
-154.0747123803734
 20
-45.77688758771195
 10
-153.3281278032364
 20
-44.65552258961002
 10
-152.7948040459714
 20
-43.85456394406975
 10
-152.4053140086078
 20
-42.99379382328047
 10
-152.2902699270348
 20
-42.03606615314803
 10
-152.2672611107195
 20
-41.84455496063988
 10
-152.2552415798095
 20
-41.64909449368847
 10
-152.2551843439469
 20
-41.44951304470977
 10
-152.2551843439469
 20
-40.65113001293552
 10
-152.4475540743796
 20
-39.78600996667936
 10
-152.899202257311
 20
-38.83509336406226
 10
-153.0524226584905
 20
-38.51262652048663
 10
-153.2077607865467
 20
-38.17407639983634
 10
-153.364186395967
 20
-37.82047324761933
 10
-153.5206120053905
 20
-37.46687009539849
 10
-153.6780678603226
 20
-37.09827114747482
 10
-153.8354664793888
 20
-36.71570664934475
 10
-154.1502637175252
 20
-35.95052041722905
 10
-154.4648320122143
 20
-35.12964369189545
 10
-154.7704142766527
 20
-34.26154738083878
 10
-156.4726660329049
 20
-29.42528879342607
 10
-157.8897687272712
 20
-23.12533752040508
 10
-157.5126988718451
 20
-16.85331734778473
 10
-157.4836802900765
 20
-16.37047562034938
 10
-157.4493960090506
 20
-15.88757665704435
 10
-157.3983416206088
 20
-15.40576517511759
 10
-161.0743148241137
 20
-12.44432446631858
 10
-164.9589699785726
 20
-8.182885635743408
 10
-168.2620515445413
 20
-2.075819215907189
 97
        0
 97
        1
330
7E
 92
        1
 93
        1
 72
     4
 94
        3
 73
     0
 74
     0
 95
       41
 96
       37
 40
0.0
 40
0.0
 40
0.0
 40
0.0
 40
1.0
 40
1.0
 40
1.0
 40
2.0
 40
2.0
 40
2.0
 40
3.0
 40
3.0
 40
3.0
 40
4.0
 40
4.0
 40
4.0
 40
5.0
 40
5.0
 40
5.0
 40
6.0
 40
6.0
 40
6.0
 40
7.0
 40
7.0
 40
7.0
 40
8.0
 40
8.0
 40
8.0
 40
9.0
 40
9.0
 40
9.0
 40
10.0
 40
10.0
 40
10.0
 40
11.0
 40
11.0
 40
11.0
 40
12.0
 40
12.0
 40
12.0
 40
12.0
 10
-83.46214324308846
 20
60.45109700606614
 10
-81.71221401422304
 20
60.61095676717702
 10
-80.32229835405866
 20
62.00081519147878
 10
-80.16249582880655
 20
63.75074442034421
 10
-79.54314657174103
 20
70.5318203449591
 10
-78.00785182342423
 20
75.41701559393698
 10
-78.00785182342423
 20
75.41701559393698
 10
-78.00785182342423
 20
75.41701559393698
 10
-76.4726143109662
 20
70.5318203449591
 10
-75.85320781803742
 20
63.75074442034421
 10
-75.69340529278595
 20
62.00081519147878
 10
-74.30354686848419
 20
60.61095676717702
 10
-72.55356040375615
 20
60.45109700606614
 10
-65.77254171500388
 20
59.83174774899998
 10
-60.88734646602921
 20
58.29645300067998
 10
-60.88734646602921
 20
58.29645300067998
 10
-60.88734646602921
 20
58.29645300067998
 10
-65.77254171500388
 20
56.76121548822579
 10
-72.55356040375615
 20
56.14180899529316
 10
-74.30354686848419
 20
55.9820064700417
 10
-75.69340529278595
 20
54.59214804574315
 10
-75.85320781803742
 20
52.8421615810151
 10
-76.4726143109662
 20
46.06114289225962
 10
-78.00785182342423
 20
41.17594764328559
 10
-78.00785182342423
 20
41.17594764328559
 10
-78.00785182342423
 20
41.17594764328559
 10
-79.54314657174103
 20
46.06114289225962
 10
-80.16249582880655
 20
52.8421615810151
 10
-80.32229835405866
 20
54.59214804574315
 10
-81.71221401422304
 20
55.9820064700417
 10
-83.46214324308846
 20
56.14180899529316
 10
-90.2432191677027
 20
56.76121548822579
 10
-95.12841441668124
 20
58.29645300067998
 10
-95.12841441668124
 20
58.29645300067998
 10
-95.12841441668124
 20
58.29645300067998
 10
-90.2432191677027
 20
59.83174774899998
 10
-83.46214324308846
 20
60.45109700606614
 97
        0
 97
        1
330
7F
 92
        1
 93
        1
 72
     4
 94
        3
 73
     0
 74
     0
 95
       62
 96
       58
 40
0.0
 40
0.0
 40
0.0
 40
0.0
 40
1.0
 40
1.0
 40
1.0
 40
2.0
 40
2.0
 40
2.0
 40
3.0
 40
3.0
 40
3.0
 40
4.0
 40
4.0
 40
4.0
 40
5.0
 40
5.0
 40
5.0
 40
6.0
 40
6.0
 40
6.0
 40
7.0
 40
7.0
 40
7.0
 40
8.0
 40
8.0
 40
8.0
 40
9.0
 40
9.0
 40
9.0
 40
10.0
 40
10.0
 40
10.0
 40
11.0
 40
11.0
 40
11.0
 40
12.0
 40
12.0
 40
12.0
 40
13.0
 40
13.0
 40
13.0
 40
14.0
 40
14.0
 40
14.0
 40
15.0
 40
15.0
 40
15.0
 40
16.0
 40
16.0
 40
16.0
 40
17.0
 40
17.0
 40
17.0
 40
18.0
 40
18.0
 40
18.0
 40
19.0
 40
19.0
 40
19.0
 40
19.0
 10
-109.4404705230127
 20
-39.01029233604847
 10
-109.4404705230127
 20
-39.01029233604847
 10
-42.35420281146446
 20
49.85519367799681
 10
-42.35420281146446
 20
49.85519367799681
 10
-42.35420281146446
 20
49.85519367799681
 10
-42.35420281146446
 20
85.46162310423605
 10
-42.35420281146446
 20
85.46162310423605
 10
-42.35420281146446
 20
85.46162310423605
 10
-125.8969826513838
 20
85.46162310423605
 10
-125.8969826513838
 20
85.46162310423605
 10
-128.0097300061668
 20
88.21844560824636
 10
-131.3256324051081
 20
90.00706627947426
 10
-135.0594710645688
 20
90.00706627947426
 10
-138.7930807805829
 20
90.00706627947426
 10
-142.1088114719362
 20
88.21844560824636
 10
-144.2213871191352
 20
85.46162310423605
 10
-144.2213871191352
 20
85.46162310423605
 10
-172.7612481437017
 20
85.46162310423605
 10
-172.7612481437017
 20
85.46162310423605
 10
-172.7612481437017
 20
85.46162310423605
 10
-175.8281745452051
 20
85.46162310423605
 10
-175.8281745452051
 20
85.46162310423605
 10
-175.8281745452051
 20
85.46162310423605
 10
-175.8281745452051
 20
50.87158810614444
 10
-175.8281745452051
 20
50.87158810614444
 10
-180.8697954036033
 20
45.09334171050912
 10
-183.828202611743
 20
38.02671607297379
 10
-183.828202611743
 20
30.47478756595527
 10
-183.828202611743
 20
22.10083761637318
 10
-180.2300701798506
 20
15.20202752469788
 10
-173.6389600794832
 20
10.25993982940951
 10
-173.7094746608276
 20
10.186105568103
 10
-173.7783866380487
 20
10.10992463647006
 10
-173.8456387752865
 20
10.0311680910743
 10
-176.7780609023136
 20
6.601309091935139
 10
-174.2129212983961
 20
0.5585185445368533
 10
-171.5205463744155
 20
-3.935641298813588
 10
-168.727722513534
 20
-9.080458415458785
 10
-165.2903656165395
 20
-13.47651599223481
 10
-161.2852862095245
 20
-17.0297755087268
 10
-161.3645578776768
 20
-18.61601017376333
 10
-161.3323340876642
 20
-20.1749433328733
 10
-161.2316562073206
 20
-21.69827578614273
 10
-161.2316562073206
 20
-21.69827578614273
 10
-181.620272019321
 20
-48.25955031523387
 10
-181.620272019321
 20
-48.25955031523387
 10
-181.620272019321
 20
-48.25955031523387
 10
-181.620272019321
 20
-83.40151072556983
 10
-181.620272019321
 20
-83.40151072556983
 10
-181.620272019321
 20
-83.40151072556983
 10
-40.08846399894472
 20
-83.40151072556983
 10
-40.08846399894472
 20
-83.40151072556983
 10
-40.08846399894472
 20
-83.40151072556983
 10
-40.08846399894472
 20
-39.01029233604847
 10
-40.08846399894472
 20
-39.01029233604847
 10
-40.08846399894472
 20
-39.01029233604847
 10
-109.4404705230127
 20
-39.01029233604847
 10
-109.4404705230127
 20
-39.01029233604847
 97
        0
 97
        1
330
80
 75
     2
 76
     1
 98
        1
 10
0.0
 20
0.0
450
        0
451
        0
460
0.0
461
0.0
452
        0
462
0.0
453
        0
470

  0
SPLINE
  5
82
330
79
100
AcDbEntity
  8
Layer 1
100
AcDbSpline
210
0.0
220
0.0
230
1.0
 70
     9
 71
     3
 72
    53
 73
    49
 74
     0
 42
0.0000000001
 43
0.0000000001
 40
0.0
 40
0.0
 40
0.0
 40
0.0
 40
1.0
 40
1.0
 40
1.0
 40
2.0
 40
2.0
 40
2.0
 40
3.0
 40
3.0
 40
3.0
 40
4.0
 40
4.0
 40
4.0
 40
5.0
 40
5.0
 40
5.0
 40
6.0
 40
6.0
 40
6.0
 40
7.0
 40
7.0
 40
7.0
 40
8.0
 40
8.0
 40
8.0
 40
9.0
 40
9.0
 40
9.0
 40
10.0
 40
10.0
 40
10.0
 40
11.0
 40
11.0
 40
11.0
 40
12.0
 40
12.0
 40
12.0
 40
13.0
 40
13.0
 40
13.0
 40
14.0
 40
14.0
 40
14.0
 40
15.0
 40
15.0
 40
15.0
 40
16.0
 40
16.0
 40
16.0
 40
16.0
 10
-146.3470697786121
 20
41.78539509631771
 30
0.0
 10
-145.184037073353
 20
43.23077230624948
 30
0.0
 10
-143.403143243427
 20
44.157764318768
 30
0.0
 10
-141.4034939509283
 20
44.157764318768
 30
0.0
 10
-139.4047031963503
 20
44.157764318768
 30
0.0
 10
-137.6239238381457
 20
43.23077230624948
 30
0.0
 10
-136.4608338970246
 20
41.78539509631771
 30
0.0
 10
-135.5853541598379
 20
40.69745584131712
 30
0.0
 10
-135.0587269983694
 20
39.31669791899451
 30
0.0
 10
-135.0587269983694
 20
37.81150923381049
 30
0.0
 10
-135.0587269983694
 20
37.59252482779114
 30
0.0
 10
-135.0697735196335
 20
37.37605879967904
 30
0.0
 10
-135.0914659111347
 20
37.16279797980702
 30
0.0
 10
-135.1347934582739
 20
36.73621910420102
 30
0.0
 10
-135.220418307047
 20
36.32211764639893
 30
0.0
 10
-135.3440477678433
 20
35.92478629601205
 30
0.0
 10
-135.7148789143687
 20
34.73273500898429
 30
0.0
 10
-136.4278660408127
 20
33.6914429810889
 30
0.0
 10
-137.3679650656124
 20
32.91561087873983
 30
0.0
 10
-137.524676854342
 20
32.78631506765885
 30
0.0
 10
-137.6876273519715
 20
32.66434544684591
 30
0.0
 10
-137.8564159074737
 20
32.55033161077765
 30
0.0
 10
-138.3627815739808
 20
32.20829010257737
 30
0.0
 10
-138.9210601668498
 20
31.93739277019618
 30
0.0
 10
-139.5170571924321
 20
31.75200581486603
 30
0.0
 10
-140.1129969821555
 20
31.56661885953331
 30
0.0
 10
-140.7465979687297
 20
31.46674228125163
 30
0.0
 10
-141.4034939509283
 20
31.46674228125163
 30
0.0
 10
-142.060676112433
 20
31.46674228125163
 30
0.0
 10
-142.6944488065911
 20
31.56661885953331
 30
0.0
 10
-143.2905603038986
 20
31.75200581486603
 30
0.0
 10
-143.8866718012029
 20
31.93739277019618
 30
0.0
 10
-144.4450648657971
 20
32.20829010257737
 30
0.0
 10
-144.9514305323036
 20
32.55033161077765
 30
0.0
 10
-145.1202190878058
 20
32.66434544684591
 30
0.0
 10
-145.283226821298
 20
32.78631506765885
 30
0.0
 10
-145.4399386100314
 20
32.91561087873983
 30
0.0
 10
-146.380094870686
 20
33.6914429810889
 30
0.0
 10
-147.0929102895498
 20
34.73273500898429
 30
0.0
 10
-147.4636842002127
 20
35.92478629601205
 30
0.0
 10
-147.5872564251424
 20
36.32211764639893
 30
0.0
 10
-147.6728812739194
 20
36.73621910420102
 30
0.0
 10
-147.7162088210586
 20
37.16279797980702
 30
0.0
 10
-147.7378439766972
 20
37.37605879967904
 30
0.0
 10
-147.7489477338238
 20
37.59252482779114
 30
0.0
 10
-147.7489477338238
 20
37.81150923381049
 30
0.0
 10
-147.7489477338238
 20
39.31669791899451
 30
0.0
 10
-147.2224922799362
 20
40.69745584131712
 30
0.0
 10
-146.3470697786121
 20
41.78539509631771
 30
0.0
  0
SPLINE
  5
83
330
79
100
AcDbEntity
  8
Layer 1
100
AcDbSpline
210
0.0
220
0.0
230
1.0
 70
     9
 71
     3
 72
    29
 73
    25
 74
     0
 42
0.0000000001
 43
0.0000000001
 40
0.0
 40
0.0
 40
0.0
 40
0.0
 40
1.0
 40
1.0
 40
1.0
 40
2.0
 40
2.0
 40
2.0
 40
3.0
 40
3.0
 40
3.0
 40
4.0
 40
4.0
 40
4.0
 40
5.0
 40
5.0
 40
5.0
 40
6.0
 40
6.0
 40
6.0
 40
7.0
 40
7.0
 40
7.0
 40
8.0
 40
8.0
 40
8.0
 40
8.0
 10
-132.1016362150444
 20
16.25098915802612
 30
0.0
 10
-127.3059006175576
 20
18.8718764910203
 30
0.0
 10
-123.7391906736157
 20
23.43443318883853
 30
0.0
 10
-122.4110325079923
 20
28.87544588864076
 30
0.0
 10
-122.0441506359101
 20
30.37863131867022
 30
0.0
 10
-121.8281997305468
 20
31.94082692188292
 30
0.0
 10
-121.8281997305468
 20
33.55693870661264
 30
0.0
 10
-121.8281997305468
 20
36.49811792044709
 30
0.0
 10
-122.4900752326941
 20
39.27863607111255
 30
0.0
 10
-123.6449232097606
 20
41.78539509631771
 30
0.0
 10
-126.7646210755505
 20
48.55725604723462
 30
0.0
 10
-133.5938323596686
 20
53.2675385035285
 30
0.0
 10
-141.5387422916039
 20
53.2675385035285
 30
0.0
 10
-149.483709459398
 20
53.2675385035285
 30
0.0
 10
-156.3129207435161
 20
48.55725604723462
 30
0.0
 10
-159.4326186093059
 20
41.78539509631771
 30
0.0
 10
-160.5874665863725
 20
39.27863607111255
 30
0.0
 10
-161.2493420885191
 20
36.49811792044709
 30
0.0
 10
-161.2493420885191
 20
33.55693870661264
 30
0.0
 10
-161.2493420885191
 20
22.67182257048948
 30
0.0
 10
-152.4246597297858
 20
13.8463961455594
 30
0.0
 10
-141.5387422916039
 20
13.8463961455594
 30
0.0
 10
-138.1193574551102
 20
13.8463961455594
 30
0.0
 10
-134.9046480592653
 20
14.71912856139606
 30
0.0
 10
-132.1016362150444
 20
16.25098915802612
 30
0.0
  0
HATCH
  5
84
330
79
100
AcDbEntity
  8
Layer 1
 62
     7
440
 33554687
100
AcDbHatch
 10
0.0
 20
0.0
 30
0.0
210
0.0
220
0.0
230
1.0
  2
SOLID
 70
     1
 71
     1
 91
        2
 92
        1
 93
        1
 72
     4
 94
        3
 73
     0
 74
     0
 95
       53
 96
       49
 40
0.0
 40
0.0
 40
0.0
 40
0.0
 40
1.0
 40
1.0
 40
1.0
 40
2.0
 40
2.0
 40
2.0
 40
3.0
 40
3.0
 40
3.0
 40
4.0
 40
4.0
 40
4.0
 40
5.0
 40
5.0
 40
5.0
 40
6.0
 40
6.0
 40
6.0
 40
7.0
 40
7.0
 40
7.0
 40
8.0
 40
8.0
 40
8.0
 40
9.0
 40
9.0
 40
9.0
 40
10.0
 40
10.0
 40
10.0
 40
11.0
 40
11.0
 40
11.0
 40
12.0
 40
12.0
 40
12.0
 40
13.0
 40
13.0
 40
13.0
 40
14.0
 40
14.0
 40
14.0
 40
15.0
 40
15.0
 40
15.0
 40
16.0
 40
16.0
 40
16.0
 40
16.0
 10
-146.3470697786121
 20
41.78539509631771
 10
-145.184037073353
 20
43.23077230624948
 10
-143.403143243427
 20
44.157764318768
 10
-141.4034939509283
 20
44.157764318768
 10
-139.4047031963503
 20
44.157764318768
 10
-137.6239238381457
 20
43.23077230624948
 10
-136.4608338970246
 20
41.78539509631771
 10
-135.5853541598379
 20
40.69745584131712
 10
-135.0587269983694
 20
39.31669791899451
 10
-135.0587269983694
 20
37.81150923381049
 10
-135.0587269983694
 20
37.59252482779114
 10
-135.0697735196335
 20
37.37605879967904
 10
-135.0914659111347
 20
37.16279797980702
 10
-135.1347934582739
 20
36.73621910420102
 10
-135.220418307047
 20
36.32211764639893
 10
-135.3440477678433
 20
35.92478629601205
 10
-135.7148789143687
 20
34.73273500898429
 10
-136.4278660408127
 20
33.6914429810889
 10
-137.3679650656124
 20
32.91561087873983
 10
-137.524676854342
 20
32.78631506765885
 10
-137.6876273519715
 20
32.66434544684591
 10
-137.8564159074737
 20
32.55033161077765
 10
-138.3627815739808
 20
32.20829010257737
 10
-138.9210601668498
 20
31.93739277019618
 10
-139.5170571924321
 20
31.75200581486603
 10
-140.1129969821555
 20
31.56661885953331
 10
-140.7465979687297
 20
31.46674228125163
 10
-141.4034939509283
 20
31.46674228125163
 10
-142.060676112433
 20
31.46674228125163
 10
-142.6944488065911
 20
31.56661885953331
 10
-143.2905603038986
 20
31.75200581486603
 10
-143.8866718012029
 20
31.93739277019618
 10
-144.4450648657971
 20
32.20829010257737
 10
-144.9514305323036
 20
32.55033161077765
 10
-145.1202190878058
 20
32.66434544684591
 10
-145.283226821298
 20
32.78631506765885
 10
-145.4399386100314
 20
32.91561087873983
 10
-146.380094870686
 20
33.6914429810889
 10
-147.0929102895498
 20
34.73273500898429
 10
-147.4636842002127
 20
35.92478629601205
 10
-147.5872564251424
 20
36.32211764639893
 10
-147.6728812739194
 20
36.73621910420102
 10
-147.7162088210586
 20
37.16279797980702
 10
-147.7378439766972
 20
37.37605879967904
 10
-147.7489477338238
 20
37.59252482779114
 10
-147.7489477338238
 20
37.81150923381049
 10
-147.7489477338238
 20
39.31669791899451
 10
-147.2224922799362
 20
40.69745584131712
 10
-146.3470697786121
 20
41.78539509631771
 97
        0
 97
        1
330
82
 92
        1
 93
        1
 72
     4
 94
        3
 73
     0
 74
     0
 95
       29
 96
       25
 40
0.0
 40
0.0
 40
0.0
 40
0.0
 40
1.0
 40
1.0
 40
1.0
 40
2.0
 40
2.0
 40
2.0
 40
3.0
 40
3.0
 40
3.0
 40
4.0
 40
4.0
 40
4.0
 40
5.0
 40
5.0
 40
5.0
 40
6.0
 40
6.0
 40
6.0
 40
7.0
 40
7.0
 40
7.0
 40
8.0
 40
8.0
 40
8.0
 40
8.0
 10
-132.1016362150444
 20
16.25098915802612
 10
-127.3059006175576
 20
18.8718764910203
 10
-123.7391906736157
 20
23.43443318883853
 10
-122.4110325079923
 20
28.87544588864076
 10
-122.0441506359101
 20
30.37863131867022
 10
-121.8281997305468
 20
31.94082692188292
 10
-121.8281997305468
 20
33.55693870661264
 10
-121.8281997305468
 20
36.49811792044709
 10
-122.4900752326941
 20
39.27863607111255
 10
-123.6449232097606
 20
41.78539509631771
 10
-126.7646210755505
 20
48.55725604723462
 10
-133.5938323596686
 20
53.2675385035285
 10
-141.5387422916039
 20
53.2675385035285
 10
-149.483709459398
 20
53.2675385035285
 10
-156.3129207435161
 20
48.55725604723462
 10
-159.4326186093059
 20
41.78539509631771
 10
-160.5874665863725
 20
39.27863607111255
 10
-161.2493420885191
 20
36.49811792044709
 10
-161.2493420885191
 20
33.55693870661264
 10
-161.2493420885191
 20
22.67182257048948
 10
-152.4246597297858
 20
13.8463961455594
 10
-141.5387422916039
 20
13.8463961455594
 10
-138.1193574551102
 20
13.8463961455594
 10
-134.9046480592653
 20
14.71912856139606
 10
-132.1016362150444
 20
16.25098915802612
 97
        0
 97
        1
330
83
 75
     2
 76
     1
 98
        1
 10
0.0
 20
0.0
450
        0
451
        0
460
0.0
461
0.0
452
        0
462
0.0
453
        0
470

  0
ENDBLK
  5
7C
330
79
100
AcDbEntity
  8
0
100
AcDbBlockEnd
  0
ENDSEC
  0
SECTION
  2
ENTITIES
  0
INSERT
  5
7A
330
70
100
AcDbEntity
  8
Layer 1
100
AcDbBlockReference
  2
Block_0
 10
0.0
 20
0.0
 30
0.0
  0
ENDSEC
  0
SECTION
  2
OBJECTS
  0
DICTIONARY
  5
C
330
0
100
AcDbDictionary
281
     1
  3
ACAD_COLOR
350
63
  3
ACAD_DETAILVIEWSTYLE
350
6A
  3
ACAD_GROUP
350
D
  3
ACAD_LAYOUT
350
62
  3
ACAD_MATERIAL
350
10
  3
ACAD_MLEADERSTYLE
350
66
  3
ACAD_MLINESTYLE
350
5F
  3
ACAD_PLOTSETTINGS
350
61
  3
ACAD_PLOTSTYLENAME
350
E
  3
ACAD_SCALELIST
350
42
  3
ACAD_SECTIONVIEWSTYLE
350
68
  3
ACAD_TABLESTYLE
350
64
  3
ACAD_VISUALSTYLE
350
29
  3
ACDB_RECOMPOSE_DATA
350
8D
  3
AcDbVariableDictionary
350
85
  0
DICTIONARY
  5
63
102
{ACAD_REACTORS
330
C
102
}
330
C
100
AcDbDictionary
281
     1
  0
DICTIONARY
  5
6A
102
{ACAD_REACTORS
330
C
102
}
330
C
100
AcDbDictionary
281
     1
  3
Imperial24
350
6B
  0
DICTIONARY
  5
D
102
{ACAD_REACTORS
330
C
102
}
330
C
100
AcDbDictionary
281
     1
  0
DICTIONARY
  5
62
102
{ACAD_REACTORS
330
C
102
}
330
C
100
AcDbDictionary
281
     1
  3
Layout1
350
6F
  3
Layout2
350
77
  3
Model
350
73
  0
DICTIONARY
  5
10
102
{ACAD_REACTORS
330
C
102
}
330
C
100
AcDbDictionary
281
     1
  3
ByBlock
350
19
  3
ByLayer
350
11
  3
Global
350
21
  0
DICTIONARY
  5
66
102
{ACAD_REACTORS
330
C
102
}
330
C
100
AcDbDictionary
281
     1
  3
Standard
350
67
  0
DICTIONARY
  5
5F
102
{ACAD_REACTORS
330
C
102
}
330
C
100
AcDbDictionary
281
     1
  3
Standard
350
60
  0
DICTIONARY
  5
61
102
{ACAD_REACTORS
330
C
102
}
330
C
100
AcDbDictionary
281
     1
  0
ACDBDICTIONARYWDFLT
  5
E
102
{ACAD_REACTORS
330
C
102
}
330
C
100
AcDbDictionary
281
     1
  3
Normal
350
F
100
AcDbDictionaryWithDefault
340
F
  0
DICTIONARY
  5
42
102
{ACAD_REACTORS
330
C
102
}
330
C
100
AcDbDictionary
281
     1
  3
A0
350
43
  3
A1
350
44
  3
A2
350
45
  3
A3
350
46
  3
A4
350
47
  3
A5
350
48
  3
A6
350
49
  3
A7
350
4A
  3
A8
350
4B
  3
A9
350
4C
  3
B0
350
4D
  3
B1
350
4E
  3
B2
350
4F
  3
B3
350
50
  3
B4
350
51
  3
B5
350
52
  3
B6
350
53
  0
DICTIONARY
  5
68
102
{ACAD_REACTORS
330
C
102
}
330
C
100
AcDbDictionary
281
     1
  3
Imperial24
350
69
  0
DICTIONARY
  5
64
102
{ACAD_REACTORS
330
C
102
}
330
C
100
AcDbDictionary
281
     1
  3
Standard
350
65
  0
DICTIONARY
  5
29
102
{ACAD_REACTORS
330
C
102
}
330
C
100
AcDbDictionary
281
     1
  3
2dWireframe
350
2F
  3
Basic
350
2E
  3
Brighten
350
35
  3
ColorChange
350
39
  3
Conceptual
350
32
  3
Dim
350
34
  3
EdgeColorOff
350
41
  3
Facepattern
350
38
  3
Flat
350
2A
  3
FlatWithEdges
350
2B
  3
Gouraud
350
2C
  3
GouraudWithEdges
350
2D
  3
Hidden
350
31
  3
JitterOff
350
3F
  3
Linepattern
350
37
  3
OverhangOff
350
40
  3
Realistic
350
33
  3
Shaded
350
3E
  3
Shaded with edges
350
3D
  3
Shades of Gray
350
3A
  3
Sketchy
350
3B
  3
Thicken
350
36
  3
Wireframe
350
30
  3
X-Ray
350
3C
  0
XRECORD
  5
8D
102
{ACAD_REACTORS
330
C
102
}
330
C
100
AcDbXrecord
280
     1
 90
        1
330
65
  0
DICTIONARY
  5
85
102
{ACAD_REACTORS
330
C
102
}
330
C
100
AcDbDictionary
281
     1
  3
CANNOSCALE
350
8A
  3
CMLEADERSTYLE
350
87
  3
CTABLESTYLE
350
86
  3
CVIEWDETAILSTYLE
350
88
  3
CVIEWSECTIONSTYLE
350
89
  0
ACDBDETAILVIEWSTYLE
  5
6B
102
{ACAD_XDICTIONARY
360
90
102
}
102
{ACAD_REACTORS
330
6A
102
}
330
6A
100
AcDbModelDocViewStyle
 70
     0
  3
Imperial24
290
     0
100
AcDbDetailViewStyle
 70
     0
 71
     0
 90
        3
 71
     1
340
55
 62
   256
 40
0.24
340
0
 62
   256
 40
0.24
300

 40
0.36
280
     3
 71
     2
340
5D
 90
       25
 62
   256
 71
     3
340
55
 62
   256
 40
0.24
 90
        1
 40
0.75
 90
        1
300
%<\AcVar ViewType \f "%tc1">% %<\AcVar ViewDetailId>%\PSCALE %<\AcVar ViewScale \f "%sn">%
 71
     4
340
5D
 90
       25
 62
   256
340
5D
 90
       25
 62
   256
280
     0
  0
LAYOUT
  5
6F
102
{ACAD_REACTORS
330
62
102
}
330
62
100
AcDbPlotSettings
  1

  2

  4

  6

 40
0.0
 41
0.0
 42
0.0
 43
0.0
 44
0.0
 45
0.0
 46
0.0
 47
0.0
 48
0.0
 49
0.0
140
0.0
141
0.0
142
1.0
143
1.0
 70
   688
 72
     0
 73
     0
 74
     5
  7

 75
    16
147
1.0
 76
     0
 77
     2
 78
   300
148
0.0
149
0.0
100
AcDbLayout
  1
Layout1
 70
     1
 71
     1
 10
0.0
 20
0.0
 11
12.0
 21
9.0
 12
0.0
 22
0.0
 32
0.0
 14
0.0
 24
0.0
 34
0.0
 15
0.0
 25
0.0
 35
0.0
146
0.0
 13
0.0
 23
0.0
 33
0.0
 16
1.0
 26
0.0
 36
0.0
 17
0.0
 27
1.0
 37
0.0
 76
     0
330
6C
  0
LAYOUT
  5
77
102
{ACAD_REACTORS
330
62
102
}
330
62
100
AcDbPlotSettings
  1

  2

  4

  6

 40
0.0
 41
0.0
 42
0.0
 43
0.0
 44
0.0
 45
0.0
 46
0.0
 47
0.0
 48
0.0
 49
0.0
140
0.0
141
0.0
142
1.0
143
1.0
 70
   688
 72
     0
 73
     0
 74
     5
  7

 75
    16
147
1.0
 76
     0
 77
     2
 78
   300
148
0.0
149
0.0
100
AcDbLayout
  1
Layout2
 70
     1
 71
     2
 10
0.0
 20
0.0
 11
12.0
 21
9.0
 12
0.0
 22
0.0
 32
0.0
 14
0.0
 24
0.0
 34
0.0
 15
0.0
 25
0.0
 35
0.0
146
0.0
 13
0.0
 23
0.0
 33
0.0
 16
1.0
 26
0.0
 36
0.0
 17
0.0
 27
1.0
 37
0.0
 76
     0
330
74
  0
LAYOUT
  5
73
102
{ACAD_REACTORS
330
62
102
}
330
62
100
AcDbPlotSettings
  1

  2

  4

  6

 40
0.0
 41
0.0
 42
0.0
 43
0.0
 44
0.0
 45
0.0
 46
0.0
 47
0.0
 48
0.0
 49
0.0
140
0.0
141
0.0
142
1.0
143
1.0
 70
  1712
 72
     0
 73
     0
 74
     0
  7

 75
     0
147
1.0
 76
     0
 77
     2
 78
   300
148
0.0
149
0.0
100
AcDbLayout
  1
Model
 70
     1
 71
     0
 10
0.0
 20
0.0
 11
12.0
 21
9.0
 12
0.0
 22
0.0
 32
0.0
 14
0.0
 24
0.0
 34
0.0
 15
0.0
 25
0.0
 35
0.0
146
0.0
 13
0.0
 23
0.0
 33
0.0
 16
1.0
 26
0.0
 36
0.0
 17
0.0
 27
1.0
 37
0.0
 76
     0
330
70
  0
MATERIAL
  5
19
102
{ACAD_XDICTIONARY
360
1A
102
}
102
{ACAD_REACTORS
330
10
102
}
330
10
100
AcDbMaterial
  1
ByBlock
 72
     0
 43
0.0208333333333333
 43
0.0
 43
0.0
 43
0.0
 43
0.0
 43
0.0208333333333333
 43
0.0
 43
0.0
 43
0.0
 43
0.0
 43
1.0
 43
0.0
 43
0.0
 43
0.0
 43
0.0
 43
1.0
 77
     0
 47
0.0208333333333333
 47
0.0
 47
0.0
 47
0.0
 47
0.0
 47
0.0208333333333333
 47
0.0
 47
0.0
 47
0.0
 47
0.0
 47
1.0
 47
0.0
 47
0.0
 47
0.0
 47
0.0
 47
1.0
171
     0
 49
0.0208333333333333
 49
0.0
 49
0.0
 49
0.0
 49
0.0
 49
0.0208333333333333
 49
0.0
 49
0.0
 49
0.0
 49
0.0
 49
1.0
 49
0.0
 49
0.0
 49
0.0
 49
0.0
 49
1.0
175
     0
142
0.0208333333333333
142
0.0
142
0.0
142
0.0
142
0.0
142
0.0208333333333333
142
0.0
142
0.0
142
0.0
142
0.0
142
1.0
142
0.0
142
0.0
142
0.0
142
0.0
142
1.0
179
     0
144
0.0208333333333333
144
0.0
144
0.0
144
0.0
144
0.0
144
0.0208333333333333
144
0.0
144
0.0
144
0.0
144
0.0
144
1.0
144
0.0
144
0.0
144
0.0
144
0.0
144
1.0
147
0.0208333333333333
147
0.0
147
0.0
147
0.0
147
0.0
147
0.0208333333333333
147
0.0
147
0.0
147
0.0
147
0.0
147
1.0
147
0.0
147
0.0
147
0.0
147
0.0
147
1.0
  0
MATERIAL
  5
11
102
{ACAD_XDICTIONARY
360
12
102
}
102
{ACAD_REACTORS
330
10
102
}
330
10
100
AcDbMaterial
  1
ByLayer
 72
     0
 43
0.0208333333333333
 43
0.0
 43
0.0
 43
0.0
 43
0.0
 43
0.0208333333333333
 43
0.0
 43
0.0
 43
0.0
 43
0.0
 43
1.0
 43
0.0
 43
0.0
 43
0.0
 43
0.0
 43
1.0
 77
     0
 47
0.0208333333333333
 47
0.0
 47
0.0
 47
0.0
 47
0.0
 47
0.0208333333333333
 47
0.0
 47
0.0
 47
0.0
 47
0.0
 47
1.0
 47
0.0
 47
0.0
 47
0.0
 47
0.0
 47
1.0
171
     0
 49
0.0208333333333333
 49
0.0
 49
0.0
 49
0.0
 49
0.0
 49
0.0208333333333333
 49
0.0
 49
0.0
 49
0.0
 49
0.0
 49
1.0
 49
0.0
 49
0.0
 49
0.0
 49
0.0
 49
1.0
175
     0
142
0.0208333333333333
142
0.0
142
0.0
142
0.0
142
0.0
142
0.0208333333333333
142
0.0
142
0.0
142
0.0
142
0.0
142
1.0
142
0.0
142
0.0
142
0.0
142
0.0
142
1.0
179
     0
144
0.0208333333333333
144
0.0
144
0.0
144
0.0
144
0.0
144
0.0208333333333333
144
0.0
144
0.0
144
0.0
144
0.0
144
1.0
144
0.0
144
0.0
144
0.0
144
0.0
144
1.0
147
0.0208333333333333
147
0.0
147
0.0
147
0.0
147
0.0
147
0.0208333333333333
147
0.0
147
0.0
147
0.0
147
0.0
147
1.0
147
0.0
147
0.0
147
0.0
147
0.0
147
1.0
  0
MATERIAL
  5
21
102
{ACAD_XDICTIONARY
360
22
102
}
102
{ACAD_REACTORS
330
10
102
}
330
10
100
AcDbMaterial
  1
Global
 72
     0
 43
0.0208333333333333
 43
0.0
 43
0.0
 43
0.0
 43
0.0
 43
0.0208333333333333
 43
0.0
 43
0.0
 43
0.0
 43
0.0
 43
1.0
 43
0.0
 43
0.0
 43
0.0
 43
0.0
 43
1.0
 77
     0
 47
0.0208333333333333
 47
0.0
 47
0.0
 47
0.0
 47
0.0
 47
0.0208333333333333
 47
0.0
 47
0.0
 47
0.0
 47
0.0
 47
1.0
 47
0.0
 47
0.0
 47
0.0
 47
0.0
 47
1.0
171
     0
 49
0.0208333333333333
 49
0.0
 49
0.0
 49
0.0
 49
0.0
 49
0.0208333333333333
 49
0.0
 49
0.0
 49
0.0
 49
0.0
 49
1.0
 49
0.0
 49
0.0
 49
0.0
 49
0.0
 49
1.0
175
     0
142
0.0208333333333333
142
0.0
142
0.0
142
0.0
142
0.0
142
0.0208333333333333
142
0.0
142
0.0
142
0.0
142
0.0
142
1.0
142
0.0
142
0.0
142
0.0
142
0.0
142
1.0
179
     0
144
0.0208333333333333
144
0.0
144
0.0
144
0.0
144
0.0
144
0.0208333333333333
144
0.0
144
0.0
144
0.0
144
0.0
144
1.0
144
0.0
144
0.0
144
0.0
144
0.0
144
1.0
147
0.0208333333333333
147
0.0
147
0.0
147
0.0
147
0.0
147
0.0208333333333333
147
0.0
147
0.0
147
0.0
147
0.0
147
1.0
147
0.0
147
0.0
147
0.0
147
0.0
147
1.0
  0
MLEADERSTYLE
  5
67
102
{ACAD_REACTORS
330
66
102
}
330
66
100
AcDbMLeaderStyle
179
     2
170
     2
171
     1
172
     0
 90
        2
 40
0.0
 41
0.0
173
     1
 91
-1056964608
340
5B
 92
       -2
290
     1
 42
0.09
291
     1
 43
0.36
  3
Standard
 44
0.18
300

342
55
174
     1
178
     6
175
     1
176
     0
 93
-1056964608
 45
0.18
292
     0
297
     0
 46
0.18
 94
-1056964608
 47
1.0
 49
1.0
140
1.0
293
     1
141
0.0
294
     1
177
     0
142
1.0
295
     0
296
     0
143
0.125
271
     0
272
     9
273
     9
298
     1
  0
MLINESTYLE
  5
60
102
{ACAD_REACTORS
330
5F
102
}
330
5F
100
AcDbMlineStyle
  2
STANDARD
 70
     0
  3

 62
   256
 51
90.0
 52
90.0
 71
     2
 49
0.5
 62
   256
  6
BYLAYER
 49
-0.5
 62
   256
  6
BYLAYER
  0
ACDBPLACEHOLDER
  5
F
102
{ACAD_REACTORS
330
E
102
}
330
E
  0
SCALE
  5
43
102
{ACAD_REACTORS
330
42
102
}
330
42
100
AcDbScale
 70
     0
300
1:1
140
1.0
141
1.0
290
     1
  0
SCALE
  5
44
102
{ACAD_REACTORS
330
42
102
}
330
42
100
AcDbScale
 70
     0
300
1/128" = 1'-0"
140
0.0078125
141
12.0
290
     0
  0
SCALE
  5
45
102
{ACAD_REACTORS
330
42
102
}
330
42
100
AcDbScale
 70
     0
300
1/64" = 1'-0"
140
0.015625
141
12.0
290
     0
  0
SCALE
  5
46
102
{ACAD_REACTORS
330
42
102
}
330
42
100
AcDbScale
 70
     0
300
1/32" = 1'-0"
140
0.03125
141
12.0
290
     0
  0
SCALE
  5
47
102
{ACAD_REACTORS
330
42
102
}
330
42
100
AcDbScale
 70
     0
300
1/16" = 1'-0"
140
0.0625
141
12.0
290
     0
  0
SCALE
  5
48
102
{ACAD_REACTORS
330
42
102
}
330
42
100
AcDbScale
 70
     0
300
3/32" = 1'-0"
140
0.09375
141
12.0
290
     0
  0
SCALE
  5
49
102
{ACAD_REACTORS
330
42
102
}
330
42
100
AcDbScale
 70
     0
300
1/8" = 1'-0"
140
0.125
141
12.0
290
     0
  0
SCALE
  5
4A
102
{ACAD_REACTORS
330
42
102
}
330
42
100
AcDbScale
 70
     0
300
3/16" = 1'-0"
140
0.1875
141
12.0
290
     0
  0
SCALE
  5
4B
102
{ACAD_REACTORS
330
42
102
}
330
42
100
AcDbScale
 70
     0
300
1/4" = 1'-0"
140
0.25
141
12.0
290
     0
  0
SCALE
  5
4C
102
{ACAD_REACTORS
330
42
102
}
330
42
100
AcDbScale
 70
     0
300
3/8" = 1'-0"
140
0.375
141
12.0
290
     0
  0
SCALE
  5
4D
102
{ACAD_REACTORS
330
42
102
}
330
42
100
AcDbScale
 70
     0
300
1/2" = 1'-0"
140
0.5
141
12.0
290
     0
  0
SCALE
  5
4E
102
{ACAD_REACTORS
330
42
102
}
330
42
100
AcDbScale
 70
     0
300
3/4" = 1'-0"
140
0.75
141
12.0
290
     0
  0
SCALE
  5
4F
102
{ACAD_REACTORS
330
42
102
}
330
42
100
AcDbScale
 70
     0
300
1" = 1'-0"
140
1.0
141
12.0
290
     0
  0
SCALE
  5
50
102
{ACAD_REACTORS
330
42
102
}
330
42
100
AcDbScale
 70
     0
300
1-1/2" = 1'-0"
140
1.5
141
12.0
290
     0
  0
SCALE
  5
51
102
{ACAD_REACTORS
330
42
102
}
330
42
100
AcDbScale
 70
     0
300
3" = 1'-0"
140
3.0
141
12.0
290
     0
  0
SCALE
  5
52
102
{ACAD_REACTORS
330
42
102
}
330
42
100
AcDbScale
 70
     0
300
6" = 1'-0"
140
6.0
141
12.0
290
     0
  0
SCALE
  5
53
102
{ACAD_REACTORS
330
42
102
}
330
42
100
AcDbScale
 70
     0
300
1'-0" = 1'-0"
140
12.0
141
12.0
290
     0
  0
ACDBSECTIONVIEWSTYLE
  5
69
102
{ACAD_XDICTIONARY
360
8E
102
}
102
{ACAD_REACTORS
330
68
102
}
330
68
100
AcDbModelDocViewStyle
 70
     0
  3
Imperial24
290
     0
100
AcDbSectionViewStyle
 70
     0
 71
     0
 90
       78
 71
     1
340
55
 62
   256
 40
0.24
340
0
340
0
 62
   256
 40
0.24
300
I, O, Q, S, X, Z
 40
0.48
 90
        3
 40
0.18
 90
        1
 71
     2
340
5D
 90
       25
 62
   256
340
5D
 90
       50
 62
   256
 40
0.24
 40
0.0
 40
0.24
 71
     3
340
55
 62
   256
 40
0.24
 90
        1
 40
0.75
 90
        1
300
%<\AcVar ViewType \f "%tc1">% %<\AcVar ViewSectionStartId>%-%<\AcVar ViewSectionEndId>%\PSCALE %<\AcVar ViewScale \f "%sn">%
 71
     4
 62
   256
 62
   257
300
ANSI31
 40
1.0
 90
        0
290
     0
290
     0
 90
        6
 40
0.0
 40
1.570796326794896
 40
0.2617993877991494
 40
1.308996938995747
 40
-0.2617993877991494
 40
1.832595714594046
  0
TABLESTYLE
  5
65
102
{ACAD_XDICTIONARY
360
8B
102
}
102
{ACAD_REACTORS
330
64
102
}
330
64
100
AcDbTableStyle
280
     0
  3
Standard
 70
     0
 71
     0
 40
0.06
 41
0.06
280
     0
281
     0
  7
Standard
140
0.18
170
     2
 62
     0
 63
     7
283
     0
 90
      512
 91
        0
  1

274
    -2
284
     1
 64
     0
275
    -2
285
     1
 65
     0
276
    -2
286
     1
 66
     0
277
    -2
287
     1
 67
     0
278
    -2
288
     1
 68
     0
279
    -2
289
     1
 69
     0
  7
Standard
140
0.25
170
     5
 62
     0
 63
     7
283
     0
 90
      512
 91
        0
  1

274
    -2
284
     1
 64
     0
275
    -2
285
     1
 65
     0
276
    -2
286
     1
 66
     0
277
    -2
287
     1
 67
     0
278
    -2
288
     1
 68
     0
279
    -2
289
     1
 69
     0
  7
Standard
140
0.18
170
     5
 62
     0
 63
     7
283
     0
 90
      512
 91
        0
  1

274
    -2
284
     1
 64
     0
275
    -2
285
     1
 65
     0
276
    -2
286
     1
 66
     0
277
    -2
287
     1
 67
     0
278
    -2
288
     1
 68
     0
279
    -2
289
     1
 69
     0
  0
VISUALSTYLE
  5
2F
102
{ACAD_REACTORS
330
29
102
}
330
29
100
AcDbVisualStyle
  2
2dWireframe
 70
     4
177
     3
291
     0
 70
    58
 90
        0
176
     1
 90
        2
176
     1
 90
        0
176
     1
 90
        0
176
     1
 40
0.6
176
     1
 40
30.0
176
     1
 62
     7
420
 16777215
176
     1
 90
        1
176
     1
 90
        4
176
     1
 62
     7
176
     1
 62
   257
176
     1
 90
        1
176
     1
 90
        1
176
     1
 40
1.0
176
     1
 90
        0
176
     1
 62
   257
176
     1
 40
1.0
176
     1
 90
        1
176
     1
 90
        6
176
     1
 90
        2
176
     1
 62
     7
176
     1
 90
        5
176
     1
 90
        0
176
     1
 90
        0
176
     1
290
     0
176
     1
 90
        1
176
     1
 40
0.0
176
     1
 90
        0
176
     1
290
     1
176
     1
290
     1
176
     1
290
     0
176
     1
290
     0
176
     1
290
     0
176
     1
290
     0
176
     1
290
     0
176
     1
290
     0
176
     1
290
     0
176
     1
 90
       50
176
     1
 40
0.0
176
     1
 40
1.0
176
     1
 90
        0
176
     1
 62
    18
420
        0
176
     1
 90
       50
176
     1
 90
        3
176
     1
 62
     5
420
      255
176
     1
290
     0
176
     1
 90
       50
176
     1
 90
       50
176
     1
 90
       50
176
     1
290
     0
176
     1
 90
       50
176
     1
 62
   256
176
     0
 40
1.0
176
     0
 90
        2
176
     1
  1
strokes_ogs.tif
176
     1
290
     0
176
     1
 40
1.0
176
     1
 40
1.0
176
     1
1001
ACAD
1000
AcDbSavedByObjectVersion
1070
     0
  0
VISUALSTYLE
  5
2E
102
{ACAD_REACTORS
330
29
102
}
330
29
100
AcDbVisualStyle
  2
Basic
 70
     7
177
     3
291
     1
 70
    58
 90
        1
176
     1
 90
        0
176
     1
 90
        1
176
     1
 90
        0
176
     1
 40
0.6
176
     1
 40
30.0
176
     1
 62
     7
420
 16777215
176
     1
 90
        0
176
     1
 90
        4
176
     1
 62
     7
176
     1
 62
   257
176
     1
 90
        1
176
     1
 90
        1
176
     1
 40
1.0
176
     1
 90
        8
176
     1
 62
     7
176
     1
 40
1.0
176
     1
 90
        1
176
     1
 90
        6
176
     1
 90
        2
176
     1
 62
     7
176
     1
 90
        5
176
     1
 90
        0
176
     1
 90
        0
176
     1
290
     0
176
     1
 90
        1
176
     1
 40
0.0
176
     1
 90
        0
176
     1
290
     0
176
     1
290
     1
176
     1
290
     1
176
     1
290
     0
176
     1
290
     0
176
     1
290
     0
176
     1
290
     0
176
     1
290
     0
176
     1
290
     0
176
     1
 90
       50
176
     1
 40
0.0
176
     1
 40
1.0
176
     1
 90
        0
176
     1
 62
    18
420
        0
176
     1
 90
       50
176
     1
 90
        3
176
     1
 62
     5
420
      255
176
     1
290
     0
176
     1
 90
       50
176
     1
 90
       50
176
     1
 90
       50
176
     1
290
     0
176
     1
 90
       50
176
     1
 62
   256
176
     0
 40
1.0
176
     0
 90
        2
176
     1
  1
strokes_ogs.tif
176
     1
290
     0
176
     1
 40
1.0
176
     1
 40
1.0
176
     1
1001
ACAD
1000
AcDbSavedByObjectVersion
1070
     0
  0
VISUALSTYLE
  5
35
102
{ACAD_REACTORS
330
29
102
}
330
29
100
AcDbVisualStyle
  2
Brighten
 70
    12
177
     3
291
     1
 70
    58
 90
        2
176
     1
 90
        2
176
     1
 90
        0
176
     1
 90
        0
176
     1
 40
0.6
176
     1
 40
30.0
176
     1
 62
     7
420
 16777215
176
     1
 90
        1
176
     1
 90
        4
176
     1
 62
     7
176
     1
 62
   257
176
     1
 90
        1
176
     1
 90
        1
176
     1
 40
1.0
176
     1
 90
        8
176
     1
 62
     7
176
     1
 40
1.0
176
     1
 90
        1
176
     1
 90
        6
176
     1
 90
        2
176
     1
 62
     7
176
     1
 90
        5
176
     1
 90
        0
176
     1
 90
        0
176
     1
290
     0
176
     1
 90
        1
176
     1
 40
50.0
176
     1
 90
        0
176
     1
290
     0
176
     1
290
     1
176
     1
290
     1
176
     1
290
     0
176
     1
290
     0
176
     1
290
     0
176
     1
290
     0
176
     1
290
     0
176
     1
290
     0
176
     1
 90
       50
176
     1
 40
0.0
176
     1
 40
1.0
176
     1
 90
        0
176
     1
 62
    18
420
        0
176
     1
 90
       50
176
     1
 90
        3
176
     1
 62
     5
420
      255
176
     1
290
     0
176
     1
 90
       50
176
     1
 90
       50
176
     1
 90
       50
176
     1
290
     0
176
     1
 90
       50
176
     1
 62
   256
176
     0
 40
1.0
176
     0
 90
        2
176
     1
  1
strokes_ogs.tif
176
     1
290
     0
176
     1
 40
1.0
176
     1
 40
1.0
176
     1
1001
ACAD
1000
AcDbSavedByObjectVersion
1070
     0
  0
VISUALSTYLE
  5
39
102
{ACAD_REACTORS
330
29
102
}
330
29
100
AcDbVisualStyle
  2
ColorChange
 70
    16
177
     3
291
     1
 70
    58
 90
        2
176
     1
 90
        2
176
     1
 90
        3
176
     1
 90
        0
176
     1
 40
0.6
176
     1
 40
30.0
176
     1
 62
     8
420
  8421504
176
     1
 90
        1
176
     1
 90
        4
176
     1
 62
     7
176
     1
 62
   257
176
     1
 90
        1
176
     1
 90
        1
176
     1
 40
1.0
176
     1
 90
        8
176
     1
 62
     8
420
  8421504
176
     1
 40
1.0
176
     1
 90
        1
176
     1
 90
        6
176
     1
 90
        2
176
     1
 62
     7
176
     1
 90
        5
176
     1
 90
        0
176
     1
 90
        0
176
     1
290
     0
176
     1
 90
        1
176
     1
 40
0.0
176
     1
 90
        0
176
     1
290
     0
176
     1
290
     1
176
     1
290
     1
176
     1
290
     0
176
     1
290
     0
176
     1
290
     0
176
     1
290
     0
176
     1
290
     0
176
     1
290
     0
176
     1
 90
       50
176
     1
 40
0.0
176
     1
 40
1.0
176
     1
 90
        0
176
     1
 62
    18
420
        0
176
     1
 90
       50
176
     1
 90
        3
176
     1
 62
     5
420
      255
176
     1
290
     0
176
     1
 90
       50
176
     1
 90
       50
176
     1
 90
       50
176
     1
290
     0
176
     1
 90
       50
176
     1
 62
   256
176
     0
 40
1.0
176
     0
 90
        2
176
     1
  1
strokes_ogs.tif
176
     1
290
     0
176
     1
 40
1.0
176
     1
 40
1.0
176
     1
1001
ACAD
1000
AcDbSavedByObjectVersion
1070
     0
  0
VISUALSTYLE
  5
32
102
{ACAD_REACTORS
330
29
102
}
330
29
100
AcDbVisualStyle
  2
Conceptual
 70
     9
177
     3
291
     0
 70
    58
 90
        3
176
     1
 90
        2
176
     1
 90
        0
176
     1
 90
        0
176
     1
 40
0.6
176
     1
 40
30.0
176
     1
 62
     7
420
 16777215
176
     1
 90
        2
176
     1
 90
        2
176
     1
 62
     7
176
     1
 62
   257
176
     1
 90
        1
176
     1
 90
        1
176
     1
 40
179.0
176
     1
 90
        8
176
     1
 62
     7
176
     1
 40
1.0
176
     1
 90
        1
176
     1
 90
        6
176
     1
 90
        2
176
     1
 62
     7
176
     1
 90
        3
176
     1
 90
        0
176
     1
 90
        0
176
     1
290
     0
176
     1
 90
        1
176
     1
 40
0.0
176
     1
 90
        0
176
     1
290
     0
176
     1
290
     1
176
     1
290
     1
176
     1
290
     0
176
     1
290
     0
176
     1
290
     0
176
     1
290
     0
176
     1
290
     0
176
     1
290
     0
176
     1
 90
       50
176
     1
 40
0.0
176
     1
 40
1.0
176
     1
 90
        0
176
     1
 62
    18
420
        0
176
     1
 90
       50
176
     1
 90
        3
176
     1
 62
     5
420
      255
176
     1
290
     0
176
     1
 90
       50
176
     1
 90
       50
176
     1
 90
       50
176
     1
290
     0
176
     1
 90
       50
176
     1
 62
   256
176
     0
 40
1.0
176
     0
 90
        2
176
     1
  1
strokes_ogs.tif
176
     1
290
     0
176
     1
 40
1.0
176
     1
 40
1.0
176
     1
1001
ACAD
1000
AcDbSavedByObjectVersion
1070
     0
  0
VISUALSTYLE
  5
34
102
{ACAD_REACTORS
330
29
102
}
330
29
100
AcDbVisualStyle
  2
Dim
 70
    11
177
     3
291
     1
 70
    58
 90
        2
176
     1
 90
        2
176
     1
 90
        0
176
     1
 90
        0
176
     1
 40
0.6
176
     1
 40
30.0
176
     1
 62
     7
420
 16777215
176
     1
 90
        1
176
     1
 90
        4
176
     1
 62
     7
176
     1
 62
   257
176
     1
 90
        1
176
     1
 90
        1
176
     1
 40
1.0
176
     1
 90
        8
176
     1
 62
     7
176
     1
 40
1.0
176
     1
 90
        1
176
     1
 90
        6
176
     1
 90
        2
176
     1
 62
     7
176
     1
 90
        5
176
     1
 90
        0
176
     1
 90
        0
176
     1
290
     0
176
     1
 90
        1
176
     1
 40
-50.0
176
     1
 90
        0
176
     1
290
     0
176
     1
290
     1
176
     1
290
     1
176
     1
290
     0
176
     1
290
     0
176
     1
290
     0
176
     1
290
     0
176
     1
290
     0
176
     1
290
     0
176
     1
 90
       50
176
     1
 40
0.0
176
     1
 40
1.0
176
     1
 90
        0
176
     1
 62
    18
420
        0
176
     1
 90
       50
176
     1
 90
        3
176
     1
 62
     5
420
      255
176
     1
290
     0
176
     1
 90
       50
176
     1
 90
       50
176
     1
 90
       50
176
     1
290
     0
176
     1
 90
       50
176
     1
 62
   256
176
     0
 40
1.0
176
     0
 90
        2
176
     1
  1
strokes_ogs.tif
176
     1
290
     0
176
     1
 40
1.0
176
     1
 40
1.0
176
     1
1001
ACAD
1000
AcDbSavedByObjectVersion
1070
     0
  0
VISUALSTYLE
  5
41
102
{ACAD_REACTORS
330
29
102
}
330
29
100
AcDbVisualStyle
  2
EdgeColorOff
 70
    22
177
     3
291
     1
 70
    58
 90
        2
176
     0
 90
        2
176
     0
 90
        0
176
     0
 90
        0
176
     0
 40
0.6
176
     0
 40
30.0
176
     0
 62
     7
420
 16777215
176
     0
 90
        1
176
     0
 90
        4
176
     0
 62
     7
176
     0
 62
   257
176
     0
 90
        1
176
     0
 90
        1
176
     0
 40
1.0
176
     0
 90
        8
176
     2
 62
     7
176
     0
 40
1.0
176
     0
 90
        1
176
     0
 90
        6
176
     0
 90
        2
176
     0
 62
     7
176
     0
 90
        5
176
     0
 90
        0
176
     0
 90
        0
176
     0
290
     0
176
     0
 90
        1
176
     0
 40
0.0
176
     0
 90
        0
176
     0
290
     0
176
     0
290
     1
176
     0
290
     1
176
     0
290
     0
176
     0
290
     0
176
     0
290
     0
176
     0
290
     0
176
     0
290
     0
176
     0
290
     0
176
     0
 90
       50
176
     0
 40
0.0
176
     0
 40
1.0
176
     0
 90
        0
176
     0
 62
    18
420
        0
176
     0
 90
       50
176
     0
 90
        3
176
     0
 62
     5
420
      255
176
     0
290
     0
176
     0
 90
       50
176
     0
 90
       50
176
     0
 90
       50
176
     0
290
     0
176
     0
 90
       50
176
     0
 62
   256
176
     0
 40
1.0
176
     0
 90
        2
176
     0
  1
strokes_ogs.tif
176
     0
290
     0
176
     0
 40
1.0
176
     0
 40
1.0
176
     0
1001
ACAD
1000
AcDbSavedByObjectVersion
1070
     0
  0
VISUALSTYLE
  5
38
102
{ACAD_REACTORS
330
29
102
}
330
29
100
AcDbVisualStyle
  2
Facepattern
 70
    15
177
     3
291
     1
 70
    58
 90
        2
176
     1
 90
        2
176
     1
 90
        0
176
     1
 90
        0
176
     1
 40
0.6
176
     1
 40
30.0
176
     1
 62
     7
420
 16777215
176
     1
 90
        1
176
     1
 90
        4
176
     1
 62
     7
176
     1
 62
   257
176
     1
 90
        1
176
     1
 90
        1
176
     1
 40
1.0
176
     1
 90
        8
176
     1
 62
     7
176
     1
 40
1.0
176
     1
 90
        1
176
     1
 90
        6
176
     1
 90
        2
176
     1
 62
     7
176
     1
 90
        5
176
     1
 90
        0
176
     1
 90
        0
176
     1
290
     0
176
     1
 90
        1
176
     1
 40
0.0
176
     1
 90
        0
176
     1
290
     0
176
     1
290
     1
176
     1
290
     1
176
     1
290
     0
176
     1
290
     0
176
     1
290
     0
176
     1
290
     0
176
     1
290
     0
176
     1
290
     0
176
     1
 90
       50
176
     1
 40
0.0
176
     1
 40
1.0
176
     1
 90
        0
176
     1
 62
    18
420
        0
176
     1
 90
       50
176
     1
 90
        3
176
     1
 62
     5
420
      255
176
     1
290
     0
176
     1
 90
       50
176
     1
 90
       50
176
     1
 90
       50
176
     1
290
     0
176
     1
 90
       50
176
     1
 62
   256
176
     0
 40
1.0
176
     0
 90
        2
176
     1
  1
strokes_ogs.tif
176
     1
290
     0
176
     1
 40
1.0
176
     1
 40
1.0
176
     1
1001
ACAD
1000
AcDbSavedByObjectVersion
1070
     0
  0
VISUALSTYLE
  5
2A
102
{ACAD_REACTORS
330
29
102
}
330
29
100
AcDbVisualStyle
  2
Flat
 70
     0
177
     3
291
     1
 70
    58
 90
        2
176
     1
 90
        1
176
     1
 90
        1
176
     1
 90
        2
176
     1
 40
0.6
176
     1
 40
30.0
176
     1
 62
     7
420
 16777215
176
     1
 90
        0
176
     1
 90
        0
176
     1
 62
     7
176
     1
 62
   257
176
     1
 90
        1
176
     1
 90
        1
176
     1
 40
1.0
176
     1
 90
        8
176
     1
 62
     7
176
     1
 40
1.0
176
     1
 90
        1
176
     1
 90
        6
176
     1
 90
        2
176
     1
 62
     7
176
     1
 90
        5
176
     1
 90
        0
176
     1
 90
        0
176
     1
290
     0
176
     1
 90
       13
176
     1
 40
0.0
176
     1
 90
        0
176
     1
290
     0
176
     1
290
     1
176
     1
290
     1
176
     1
290
     0
176
     1
290
     0
176
     1
290
     0
176
     1
290
     0
176
     1
290
     0
176
     1
290
     0
176
     1
 90
       50
176
     1
 40
0.0
176
     1
 40
1.0
176
     1
 90
        0
176
     1
 62
    18
420
        0
176
     1
 90
       50
176
     1
 90
        3
176
     1
 62
     5
420
      255
176
     1
290
     0
176
     1
 90
       50
176
     1
 90
       50
176
     1
 90
       50
176
     1
290
     0
176
     1
 90
       50
176
     1
 62
   256
176
     0
 40
1.0
176
     0
 90
        2
176
     1
  1
strokes_ogs.tif
176
     1
290
     0
176
     1
 40
1.0
176
     1
 40
1.0
176
     1
1001
ACAD
1000
AcDbSavedByObjectVersion
1070
     0
  0
VISUALSTYLE
  5
2B
102
{ACAD_REACTORS
330
29
102
}
330
29
100
AcDbVisualStyle
  2
FlatWithEdges
 70
     1
177
     3
291
     1
 70
    58
 90
        2
176
     1
 90
        1
176
     1
 90
        1
176
     1
 90
        2
176
     1
 40
0.6
176
     1
 40
30.0
176
     1
 62
     7
420
 16777215
176
     1
 90
        1
176
     1
 90
        0
176
     1
 62
     7
176
     1
 62
   257
176
     1
 90
        1
176
     1
 90
        1
176
     1
 40
1.0
176
     1
 90
        0
176
     1
 62
   257
176
     1
 40
1.0
176
     1
 90
        1
176
     1
 90
        6
176
     1
 90
        2
176
     1
 62
     7
176
     1
 90
        5
176
     1
 90
        0
176
     1
 90
        0
176
     1
290
     0
176
     1
 90
       13
176
     1
 40
0.0
176
     1
 90
        0
176
     1
290
     0
176
     1
290
     1
176
     1
290
     1
176
     1
290
     0
176
     1
290
     0
176
     1
290
     0
176
     1
290
     0
176
     1
290
     0
176
     1
290
     0
176
     1
 90
       50
176
     1
 40
0.0
176
     1
 40
1.0
176
     1
 90
        0
176
     1
 62
    18
420
        0
176
     1
 90
       50
176
     1
 90
        3
176
     1
 62
     5
420
      255
176
     1
290
     0
176
     1
 90
       50
176
     1
 90
       50
176
     1
 90
       50
176
     1
290
     0
176
     1
 90
       50
176
     1
 62
   256
176
     0
 40
1.0
176
     0
 90
        2
176
     1
  1
strokes_ogs.tif
176
     1
290
     0
176
     1
 40
1.0
176
     1
 40
1.0
176
     1
1001
ACAD
1000
AcDbSavedByObjectVersion
1070
     0
  0
VISUALSTYLE
  5
2C
102
{ACAD_REACTORS
330
29
102
}
330
29
100
AcDbVisualStyle
  2
Gouraud
 70
     2
177
     3
291
     1
 70
    58
 90
        2
176
     1
 90
        2
176
     1
 90
        1
176
     1
 90
        2
176
     1
 40
0.6
176
     1
 40
30.0
176
     1
 62
     7
420
 16777215
176
     1
 90
        0
176
     1
 90
        0
176
     1
 62
     7
176
     1
 62
   257
176
     1
 90
        1
176
     1
 90
        1
176
     1
 40
1.0
176
     1
 90
        0
176
     1
 62
     7
176
     1
 40
1.0
176
     1
 90
        1
176
     1
 90
        6
176
     1
 90
        2
176
     1
 62
     7
176
     1
 90
        5
176
     1
 90
        0
176
     1
 90
        0
176
     1
290
     0
176
     1
 90
       13
176
     1
 40
0.0
176
     1
 90
        0
176
     1
290
     0
176
     1
290
     1
176
     1
290
     1
176
     1
290
     0
176
     1
290
     0
176
     1
290
     0
176
     1
290
     0
176
     1
290
     0
176
     1
290
     0
176
     1
 90
       50
176
     1
 40
0.0
176
     1
 40
1.0
176
     1
 90
        0
176
     1
 62
    18
420
        0
176
     1
 90
       50
176
     1
 90
        3
176
     1
 62
     5
420
      255
176
     1
290
     0
176
     1
 90
       50
176
     1
 90
       50
176
     1
 90
       50
176
     1
290
     0
176
     1
 90
       50
176
     1
 62
   256
176
     0
 40
1.0
176
     0
 90
        2
176
     1
  1
strokes_ogs.tif
176
     1
290
     0
176
     1
 40
1.0
176
     1
 40
1.0
176
     1
1001
ACAD
1000
AcDbSavedByObjectVersion
1070
     0
  0
VISUALSTYLE
  5
2D
102
{ACAD_REACTORS
330
29
102
}
330
29
100
AcDbVisualStyle
  2
GouraudWithEdges
 70
     3
177
     3
291
     1
 70
    58
 90
        2
176
     1
 90
        2
176
     1
 90
        1
176
     1
 90
        2
176
     1
 40
0.6
176
     1
 40
30.0
176
     1
 62
     7
420
 16777215
176
     1
 90
        1
176
     1
 90
        0
176
     1
 62
     7
176
     1
 62
   257
176
     1
 90
        1
176
     1
 90
        1
176
     1
 40
1.0
176
     1
 90
        0
176
     1
 62
   257
176
     1
 40
1.0
176
     1
 90
        1
176
     1
 90
        6
176
     1
 90
        2
176
     1
 62
     7
176
     1
 90
        5
176
     1
 90
        0
176
     1
 90
        0
176
     1
290
     0
176
     1
 90
       13
176
     1
 40
0.0
176
     1
 90
        0
176
     1
290
     0
176
     1
290
     1
176
     1
290
     1
176
     1
290
     0
176
     1
290
     0
176
     1
290
     0
176
     1
290
     0
176
     1
290
     0
176
     1
290
     0
176
     1
 90
       50
176
     1
 40
0.0
176
     1
 40
1.0
176
     1
 90
        0
176
     1
 62
    18
420
        0
176
     1
 90
       50
176
     1
 90
        3
176
     1
 62
     5
420
      255
176
     1
290
     0
176
     1
 90
       50
176
     1
 90
       50
176
     1
 90
       50
176
     1
290
     0
176
     1
 90
       50
176
     1
 62
   256
176
     0
 40
1.0
176
     0
 90
        2
176
     1
  1
strokes_ogs.tif
176
     1
290
     0
176
     1
 40
1.0
176
     1
 40
1.0
176
     1
1001
ACAD
1000
AcDbSavedByObjectVersion
1070
     0
  0
VISUALSTYLE
  5
31
102
{ACAD_REACTORS
330
29
102
}
330
29
100
AcDbVisualStyle
  2
Hidden
 70
     6
177
     3
291
     0
 70
    58
 90
        1
176
     1
 90
        2
176
     1
 90
        2
176
     1
 90
        0
176
     1
 40
0.6
176
     1
 40
30.0
176
     1
 62
     7
420
 16777215
176
     1
 90
        2
176
     1
 90
        2
176
     1
 62
     7
176
     1
 62
   257
176
     1
 90
        2
176
     1
 90
        1
176
     1
 40
40.0
176
     1
 90
        0
176
     1
 62
   257
176
     1
 40
1.0
176
     1
 90
        1
176
     1
 90
        6
176
     1
 90
        2
176
     1
 62
     7
176
     1
 90
        3
176
     1
 90
        0
176
     1
 90
        0
176
     1
290
     0
176
     1
 90
        1
176
     1
 40
0.0
176
     1
 90
        0
176
     1
290
     0
176
     1
290
     1
176
     1
290
     1
176
     1
290
     0
176
     1
290
     0
176
     1
290
     0
176
     1
290
     0
176
     1
290
     0
176
     1
290
     0
176
     1
 90
       50
176
     1
 40
0.0
176
     1
 40
1.0
176
     1
 90
        0
176
     1
 62
    18
420
        0
176
     1
 90
       50
176
     1
 90
        3
176
     1
 62
     5
420
      255
176
     1
290
     0
176
     1
 90
       50
176
     1
 90
       50
176
     1
 90
       50
176
     1
290
     0
176
     1
 90
       50
176
     1
 62
   256
176
     0
 40
1.0
176
     0
 90
        2
176
     1
  1
strokes_ogs.tif
176
     1
290
     0
176
     1
 40
1.0
176
     1
 40
1.0
176
     1
1001
ACAD
1000
AcDbSavedByObjectVersion
1070
     0
  0
VISUALSTYLE
  5
3F
102
{ACAD_REACTORS
330
29
102
}
330
29
100
AcDbVisualStyle
  2
JitterOff
 70
    20
177
     3
291
     1
 70
    58
 90
        2
176
     0
 90
        2
176
     0
 90
        0
176
     0
 90
        0
176
     0
 40
0.6
176
     0
 40
30.0
176
     0
 62
     7
420
 16777215
176
     0
 90
        1
176
     0
 90
        4
176
     0
 62
     7
176
     0
 62
   257
176
     0
 90
        1
176
     0
 90
        1
176
     0
 40
1.0
176
     0
 90
       10
176
     2
 62
     7
176
     0
 40
1.0
176
     0
 90
        1
176
     0
 90
        6
176
     0
 90
        2
176
     0
 62
     7
176
     0
 90
        5
176
     0
 90
        0
176
     0
 90
        0
176
     0
290
     0
176
     0
 90
        1
176
     0
 40
0.0
176
     0
 90
        0
176
     0
290
     0
176
     0
290
     1
176
     0
290
     1
176
     0
290
     0
176
     0
290
     0
176
     0
290
     0
176
     0
290
     0
176
     0
290
     0
176
     0
290
     0
176
     0
 90
       50
176
     0
 40
0.0
176
     0
 40
1.0
176
     0
 90
        0
176
     0
 62
    18
420
        0
176
     0
 90
       50
176
     0
 90
        3
176
     0
 62
     5
420
      255
176
     0
290
     0
176
     0
 90
       50
176
     0
 90
       50
176
     0
 90
       50
176
     0
290
     0
176
     0
 90
       50
176
     0
 62
   256
176
     0
 40
1.0
176
     0
 90
        2
176
     0
  1
strokes_ogs.tif
176
     0
290
     0
176
     0
 40
1.0
176
     0
 40
1.0
176
     0
1001
ACAD
1000
AcDbSavedByObjectVersion
1070
     0
  0
VISUALSTYLE
  5
37
102
{ACAD_REACTORS
330
29
102
}
330
29
100
AcDbVisualStyle
  2
Linepattern
 70
    14
177
     3
291
     1
 70
    58
 90
        2
176
     1
 90
        2
176
     1
 90
        0
176
     1
 90
        0
176
     1
 40
0.6
176
     1
 40
30.0
176
     1
 62
     7
420
 16777215
176
     1
 90
        1
176
     1
 90
        4
176
     1
 62
     7
176
     1
 62
   257
176
     1
 90
        7
176
     1
 90
        7
176
     1
 40
1.0
176
     1
 90
        8
176
     1
 62
     7
176
     1
 40
1.0
176
     1
 90
        1
176
     1
 90
        6
176
     1
 90
        2
176
     1
 62
     7
176
     1
 90
        5
176
     1
 90
        0
176
     1
 90
        0
176
     1
290
     0
176
     1
 90
        1
176
     1
 40
0.0
176
     1
 90
        0
176
     1
290
     0
176
     1
290
     1
176
     1
290
     1
176
     1
290
     0
176
     1
290
     0
176
     1
290
     0
176
     1
290
     0
176
     1
290
     0
176
     1
290
     0
176
     1
 90
       50
176
     1
 40
0.0
176
     1
 40
1.0
176
     1
 90
        0
176
     1
 62
    18
420
        0
176
     1
 90
       50
176
     1
 90
        3
176
     1
 62
     5
420
      255
176
     1
290
     0
176
     1
 90
       50
176
     1
 90
       50
176
     1
 90
       50
176
     1
290
     0
176
     1
 90
       50
176
     1
 62
   256
176
     0
 40
1.0
176
     0
 90
        2
176
     1
  1
strokes_ogs.tif
176
     1
290
     0
176
     1
 40
1.0
176
     1
 40
1.0
176
     1
1001
ACAD
1000
AcDbSavedByObjectVersion
1070
     0
  0
VISUALSTYLE
  5
40
102
{ACAD_REACTORS
330
29
102
}
330
29
100
AcDbVisualStyle
  2
OverhangOff
 70
    21
177
     3
291
     1
 70
    58
 90
        2
176
     0
 90
        2
176
     0
 90
        0
176
     0
 90
        0
176
     0
 40
0.6
176
     0
 40
30.0
176
     0
 62
     7
420
 16777215
176
     0
 90
        1
176
     0
 90
        4
176
     0
 62
     7
176
     0
 62
   257
176
     0
 90
        1
176
     0
 90
        1
176
     0
 40
1.0
176
     0
 90
        9
176
     2
 62
     7
176
     0
 40
1.0
176
     0
 90
        1
176
     0
 90
        6
176
     0
 90
        2
176
     0
 62
     7
176
     0
 90
        5
176
     0
 90
        0
176
     0
 90
        0
176
     0
290
     0
176
     0
 90
        1
176
     0
 40
0.0
176
     0
 90
        0
176
     0
290
     0
176
     0
290
     1
176
     0
290
     1
176
     0
290
     0
176
     0
290
     0
176
     0
290
     0
176
     0
290
     0
176
     0
290
     0
176
     0
290
     0
176
     0
 90
       50
176
     0
 40
0.0
176
     0
 40
1.0
176
     0
 90
        0
176
     0
 62
    18
420
        0
176
     0
 90
       50
176
     0
 90
        3
176
     0
 62
     5
420
      255
176
     0
290
     0
176
     0
 90
       50
176
     0
 90
       50
176
     0
 90
       50
176
     0
290
     0
176
     0
 90
       50
176
     0
 62
   256
176
     0
 40
1.0
176
     0
 90
        2
176
     0
  1
strokes_ogs.tif
176
     0
290
     0
176
     0
 40
1.0
176
     0
 40
1.0
176
     0
1001
ACAD
1000
AcDbSavedByObjectVersion
1070
     0
  0
VISUALSTYLE
  5
33
102
{ACAD_REACTORS
330
29
102
}
330
29
100
AcDbVisualStyle
  2
Realistic
 70
     8
177
     3
291
     0
 70
    58
 90
        2
176
     1
 90
        3
176
     1
 90
        0
176
     1
 90
        2
176
     1
 40
0.6
176
     1
 40
30.0
176
     1
 62
     7
420
 16777215
176
     1
 90
        0
176
     1
 90
        0
176
     1
 62
     7
176
     1
 62
   257
176
     1
 90
        1
176
     1
 90
        1
176
     1
 40
1.0
176
     1
 90
        8
176
     1
 62
   257
176
     1
 40
1.0
176
     1
 90
        1
176
     1
 90
        6
176
     1
 90
        2
176
     1
 62
     7
176
     1
 90
        3
176
     1
 90
        0
176
     1
 90
        0
176
     1
290
     0
176
     1
 90
       13
176
     1
 40
0.0
176
     1
 90
        0
176
     1
290
     0
176
     1
290
     1
176
     1
290
     1
176
     1
290
     0
176
     1
290
     0
176
     1
290
     0
176
     1
290
     0
176
     1
290
     0
176
     1
290
     0
176
     1
 90
       50
176
     1
 40
0.0
176
     1
 40
1.0
176
     1
 90
        0
176
     1
 62
    18
420
        0
176
     1
 90
       50
176
     1
 90
        3
176
     1
 62
     5
420
      255
176
     1
290
     0
176
     1
 90
       50
176
     1
 90
       50
176
     1
 90
       50
176
     1
290
     0
176
     1
 90
       50
176
     1
 62
   256
176
     0
 40
1.0
176
     0
 90
        2
176
     1
  1
strokes_ogs.tif
176
     1
290
     0
176
     1
 40
1.0
176
     1
 40
1.0
176
     1
1001
ACAD
1000
AcDbSavedByObjectVersion
1070
     0
  0
VISUALSTYLE
  5
3E
102
{ACAD_REACTORS
330
29
102
}
330
29
100
AcDbVisualStyle
  2
Shaded
 70
    27
177
     3
291
     0
 70
    58
 90
        2
176
     1
 90
        2
176
     1
 90
        1
176
     1
 90
        2
176
     1
 40
0.6
176
     1
 40
30.0
176
     1
 62
     7
420
 16777215
176
     1
 90
        0
176
     1
 90
        4
176
     1
 62
     7
176
     1
 62
   257
176
     1
 90
        1
176
     1
 90
        1
176
     1
 40
1.0
176
     1
 90
        8
176
     1
 62
   257
176
     1
 40
1.0
176
     1
 90
        1
176
     1
 90
        6
176
     1
 90
        2
176
     1
 62
     8
420
  7895160
176
     1
 90
        3
176
     1
 90
        0
176
     1
 90
        0
176
     1
290
     0
176
     1
 90
        5
176
     1
 40
0.0
176
     1
 90
        0
176
     1
290
     0
176
     1
290
     1
176
     1
290
     1
176
     1
290
     0
176
     1
290
     0
176
     1
290
     0
176
     1
290
     0
176
     1
290
     0
176
     1
290
     0
176
     1
 90
       50
176
     1
 40
0.0
176
     1
 40
1.0
176
     1
 90
        0
176
     1
 62
    18
420
        0
176
     1
 90
       50
176
     1
 90
        3
176
     1
 62
     5
420
      255
176
     1
290
     0
176
     1
 90
       50
176
     1
 90
       50
176
     1
 90
       50
176
     1
290
     0
176
     1
 90
       50
176
     1
 62
   256
176
     0
 40
1.0
176
     0
 90
        2
176
     1
  1
strokes_ogs.tif
176
     1
290
     0
176
     1
 40
1.0
176
     1
 40
1.0
176
     1
1001
ACAD
1000
AcDbSavedByObjectVersion
1070
     0
  0
VISUALSTYLE
  5
3D
102
{ACAD_REACTORS
330
29
102
}
330
29
100
AcDbVisualStyle
  2
Shaded with edges
 70
    26
177
     3
291
     0
 70
    58
 90
        2
176
     1
 90
        2
176
     1
 90
        1
176
     1
 90
        2
176
     1
 40
0.6
176
     1
 40
30.0
176
     1
 62
     7
420
 16777215
176
     1
 90
        1
176
     1
 90
        2
176
     1
 62
     7
176
     1
 62
   257
176
     1
 90
        2
176
     1
 90
        1
176
     1
 40
1.0
176
     1
 90
        8
176
     1
 62
   257
176
     1
 40
1.0
176
     1
 90
        1
176
     1
 90
        6
176
     1
 90
        2
176
     1
 62
     7
176
     1
 90
        3
176
     1
 90
        0
176
     1
 90
        0
176
     1
290
     0
176
     1
 90
        5
176
     1
 40
0.0
176
     1
 90
        0
176
     1
290
     0
176
     1
290
     1
176
     1
290
     1
176
     1
290
     0
176
     1
290
     0
176
     1
290
     0
176
     1
290
     0
176
     1
290
     0
176
     1
290
     0
176
     1
 90
       50
176
     1
 40
0.0
176
     1
 40
1.0
176
     1
 90
        0
176
     1
 62
    18
420
        0
176
     1
 90
       50
176
     1
 90
        3
176
     1
 62
     5
420
      255
176
     1
290
     0
176
     1
 90
       50
176
     1
 90
       50
176
     1
 90
       50
176
     1
290
     0
176
     1
 90
       50
176
     1
 62
   256
176
     0
 40
1.0
176
     0
 90
        2
176
     1
  1
strokes_ogs.tif
176
     1
290
     0
176
     1
 40
1.0
176
     1
 40
1.0
176
     1
1001
ACAD
1000
AcDbSavedByObjectVersion
1070
     0
  0
VISUALSTYLE
  5
3A
102
{ACAD_REACTORS
330
29
102
}
330
29
100
AcDbVisualStyle
  2
Shades of Gray
 70
    23
177
     3
291
     0
 70
    58
 90
        2
176
     1
 90
        2
176
     1
 90
        3
176
     1
 90
        0
176
     1
 40
0.6
176
     1
 40
30.0
176
     1
 62
     7
420
 16777215
176
     1
 90
        2
176
     1
 90
        2
176
     1
 62
     7
176
     1
 62
     7
176
     1
 90
        1
176
     1
 90
        1
176
     1
 40
40.0
176
     1
 90
        8
176
     1
 62
     7
176
     1
 40
1.0
176
     1
 90
        1
176
     1
 90
        6
176
     1
 90
        2
176
     1
 62
     7
176
     1
 90
        3
176
     1
 90
        0
176
     1
 90
        0
176
     1
290
     0
176
     1
 90
        1
176
     1
 40
0.0
176
     1
 90
        0
176
     1
290
     0
176
     1
290
     1
176
     1
290
     1
176
     1
290
     0
176
     1
290
     0
176
     1
290
     0
176
     1
290
     0
176
     1
290
     0
176
     1
290
     0
176
     1
 90
       50
176
     1
 40
0.0
176
     1
 40
1.0
176
     1
 90
        0
176
     1
 62
    18
420
        0
176
     1
 90
       50
176
     1
 90
        3
176
     1
 62
     5
420
      255
176
     1
290
     0
176
     1
 90
       50
176
     1
 90
       50
176
     1
 90
       50
176
     1
290
     0
176
     1
 90
       50
176
     1
 62
   256
176
     0
 40
1.0
176
     0
 90
        2
176
     1
  1
strokes_ogs.tif
176
     1
290
     0
176
     1
 40
1.0
176
     1
 40
1.0
176
     1
1001
ACAD
1000
AcDbSavedByObjectVersion
1070
     0
  0
VISUALSTYLE
  5
3B
102
{ACAD_REACTORS
330
29
102
}
330
29
100
AcDbVisualStyle
  2
Sketchy
 70
    24
177
     3
291
     0
 70
    58
 90
        1
176
     1
 90
        2
176
     1
 90
        2
176
     1
 90
        0
176
     1
 40
0.6
176
     1
 40
30.0
176
     1
 62
     7
420
 16777215
176
     1
 90
        2
176
     1
 90
        2
176
     1
 62
     7
176
     1
 62
     7
176
     1
 90
        1
176
     1
 90
        1
176
     1
 40
40.0
176
     1
 90
       11
176
     1
 62
     7
176
     1
 40
1.0
176
     1
 90
        1
176
     1
 90
        6
176
     1
 90
        2
176
     1
 62
     7
176
     1
 90
        6
176
     1
 90
        0
176
     1
 90
        0
176
     1
290
     0
176
     1
 90
        1
176
     1
 40
0.0
176
     1
 90
        0
176
     1
290
     0
176
     1
290
     1
176
     1
290
     1
176
     1
290
     0
176
     1
290
     0
176
     1
290
     0
176
     1
290
     0
176
     1
290
     0
176
     1
290
     0
176
     1
 90
       50
176
     1
 40
0.0
176
     1
 40
1.0
176
     1
 90
        0
176
     1
 62
    18
420
        0
176
     1
 90
       50
176
     1
 90
        3
176
     1
 62
     5
420
      255
176
     1
290
     0
176
     1
 90
       50
176
     1
 90
       50
176
     1
 90
       50
176
     1
290
     0
176
     1
 90
       50
176
     1
 62
   256
176
     0
 40
1.0
176
     0
 90
        2
176
     1
  1
strokes_ogs.tif
176
     1
290
     0
176
     1
 40
1.0
176
     1
 40
1.0
176
     1
1001
ACAD
1000
AcDbSavedByObjectVersion
1070
     0
  0
VISUALSTYLE
  5
36
102
{ACAD_REACTORS
330
29
102
}
330
29
100
AcDbVisualStyle
  2
Thicken
 70
    13
177
     3
291
     1
 70
    58
 90
        2
176
     1
 90
        2
176
     1
 90
        0
176
     1
 90
        0
176
     1
 40
0.6
176
     1
 40
30.0
176
     1
 62
     7
420
 16777215
176
     1
 90
        1
176
     1
 90
        4
176
     1
 62
     7
176
     1
 62
   257
176
     1
 90
        1
176
     1
 90
        1
176
     1
 40
1.0
176
     1
 90
       12
176
     1
 62
     7
176
     1
 40
1.0
176
     1
 90
        1
176
     1
 90
        6
176
     1
 90
        2
176
     1
 62
     7
176
     1
 90
        5
176
     1
 90
        0
176
     1
 90
        0
176
     1
290
     0
176
     1
 90
        1
176
     1
 40
0.0
176
     1
 90
        0
176
     1
290
     0
176
     1
290
     1
176
     1
290
     1
176
     1
290
     0
176
     1
290
     0
176
     1
290
     0
176
     1
290
     0
176
     1
290
     0
176
     1
290
     0
176
     1
 90
       50
176
     1
 40
0.0
176
     1
 40
1.0
176
     1
 90
        0
176
     1
 62
    18
420
        0
176
     1
 90
       50
176
     1
 90
        3
176
     1
 62
     5
420
      255
176
     1
290
     0
176
     1
 90
       50
176
     1
 90
       50
176
     1
 90
       50
176
     1
290
     0
176
     1
 90
       50
176
     1
 62
   256
176
     0
 40
1.0
176
     0
 90
        2
176
     1
  1
strokes_ogs.tif
176
     1
290
     0
176
     1
 40
1.0
176
     1
 40
1.0
176
     1
1001
ACAD
1000
AcDbSavedByObjectVersion
1070
     0
  0
VISUALSTYLE
  5
30
102
{ACAD_REACTORS
330
29
102
}
330
29
100
AcDbVisualStyle
  2
Wireframe
 70
     5
177
     3
291
     0
 70
    58
 90
        0
176
     1
 90
        2
176
     1
 90
        0
176
     1
 90
        0
176
     1
 40
0.6
176
     1
 40
30.0
176
     1
 62
     7
420
 16777215
176
     1
 90
        1
176
     1
 90
        4
176
     1
 62
     7
176
     1
 62
   257
176
     1
 90
        1
176
     1
 90
        1
176
     1
 40
1.0
176
     1
 90
        0
176
     1
 62
   257
176
     1
 40
1.0
176
     1
 90
        1
176
     1
 90
        6
176
     1
 90
        2
176
     1
 62
     7
176
     1
 90
        3
176
     1
 90
        0
176
     1
 90
        0
176
     1
290
     0
176
     1
 90
        1
176
     1
 40
0.0
176
     1
 90
        0
176
     1
290
     0
176
     1
290
     1
176
     1
290
     1
176
     1
290
     0
176
     1
290
     0
176
     1
290
     0
176
     1
290
     0
176
     1
290
     0
176
     1
290
     0
176
     1
 90
       50
176
     1
 40
0.0
176
     1
 40
1.0
176
     1
 90
        0
176
     1
 62
    18
420
        0
176
     1
 90
       50
176
     1
 90
        3
176
     1
 62
     5
420
      255
176
     1
290
     0
176
     1
 90
       50
176
     1
 90
       50
176
     1
 90
       50
176
     1
290
     0
176
     1
 90
       50
176
     1
 62
   256
176
     0
 40
1.0
176
     0
 90
        2
176
     1
  1
strokes_ogs.tif
176
     1
290
     0
176
     1
 40
1.0
176
     1
 40
1.0
176
     1
1001
ACAD
1000
AcDbSavedByObjectVersion
1070
     0
  0
VISUALSTYLE
  5
3C
102
{ACAD_REACTORS
330
29
102
}
330
29
100
AcDbVisualStyle
  2
X-Ray
 70
    25
177
     3
291
     0
 70
    58
 90
        2
176
     1
 90
        2
176
     1
 90
        1
176
     1
 90
        1
176
     1
 40
0.5
176
     1
 40
30.0
176
     1
 62
     7
420
 16777215
176
     1
 90
        1
176
     1
 90
        0
176
     1
 62
     7
176
     1
 62
   257
176
     1
 90
        1
176
     1
 90
        1
176
     1
 40
1.0
176
     1
 90
        8
176
     1
 62
     7
176
     1
 40
1.0
176
     1
 90
        1
176
     1
 90
        6
176
     1
 90
        2
176
     1
 62
     7
176
     1
 90
        3
176
     1
 90
        0
176
     1
 90
        0
176
     1
290
     0
176
     1
 90
       13
176
     1
 40
0.0
176
     1
 90
        0
176
     1
290
     0
176
     1
290
     1
176
     1
290
     1
176
     1
290
     0
176
     1
290
     0
176
     1
290
     0
176
     1
290
     0
176
     1
290
     0
176
     1
290
     0
176
     1
 90
       50
176
     1
 40
0.0
176
     1
 40
1.0
176
     1
 90
        0
176
     1
 62
    18
420
        0
176
     1
 90
       50
176
     1
 90
        3
176
     1
 62
     5
420
      255
176
     1
290
     0
176
     1
 90
       50
176
     1
 90
       50
176
     1
 90
       50
176
     1
290
     0
176
     1
 90
       50
176
     1
 62
   256
176
     0
 40
1.0
176
     0
 90
        2
176
     1
  1
strokes_ogs.tif
176
     1
290
     0
176
     1
 40
1.0
176
     1
 40
1.0
176
     1
1001
ACAD
1000
AcDbSavedByObjectVersion
1070
     0
  0
DICTIONARYVAR
  5
8A
102
{ACAD_REACTORS
330
85
102
}
330
85
100
DictionaryVariables
280
     0
  1
1:1
  0
DICTIONARYVAR
  5
87
102
{ACAD_REACTORS
330
85
102
}
330
85
100
DictionaryVariables
280
     0
  1
STANDARD
  0
DICTIONARYVAR
  5
86
102
{ACAD_REACTORS
330
85
102
}
330
85
100
DictionaryVariables
280
     0
  1
STANDARD
  0
DICTIONARYVAR
  5
88
102
{ACAD_REACTORS
330
85
102
}
330
85
100
DictionaryVariables
280
     0
  1
Imperial24
  0
DICTIONARYVAR
  5
89
102
{ACAD_REACTORS
330
85
102
}
330
85
100
DictionaryVariables
280
     0
  1
Imperial24
  0
DICTIONARY
  5
90
330
6B
100
AcDbDictionary
280
     1
281
     1
  3
ACAD_XREC_ROUNDTRIP
360
91
  0
DICTIONARY
  5
1A
330
19
100
AcDbDictionary
280
     1
281
     1
  3
BUMPTILE
360
1C
  3
DIFFUSETILE
360
1B
  3
OPACITYTILE
360
1F
  3
REFLECTIONTILE
360
1E
  3
REFRACTIONTILE
360
20
  3
SPECULARTILE
360
1D
  0
DICTIONARY
  5
12
330
11
100
AcDbDictionary
280
     1
281
     1
  3
BUMPTILE
360
14
  3
DIFFUSETILE
360
13
  3
OPACITYTILE
360
17
  3
REFLECTIONTILE
360
16
  3
REFRACTIONTILE
360
18
  3
SPECULARTILE
360
15
  0
DICTIONARY
  5
22
330
21
100
AcDbDictionary
280
     1
281
     1
  3
BUMPTILE
360
24
  3
DIFFUSETILE
360
23
  3
OPACITYTILE
360
27
  3
REFLECTIONTILE
360
26
  3
REFRACTIONTILE
360
28
  3
SPECULARTILE
360
25
  0
DICTIONARY
  5
8E
330
69
100
AcDbDictionary
280
     1
281
     1
  3
ACAD_XREC_ROUNDTRIP
360
8F
  0
DICTIONARY
  5
8B
330
65
100
AcDbDictionary
280
     1
281
     1
  3
ACAD_ROUNDTRIP_2008_TABLESTYLE_CELLSTYLEMAP
360
8C
  0
XRECORD
  5
91
102
{ACAD_REACTORS
330
90
102
}
330
90
100
AcDbXrecord
280
     1
102
DISPLAYNAME
  1
Imperial24
102
FLAGS
 90
        0
  0
XRECORD
  5
1C
102
{ACAD_REACTORS
330
1A
102
}
330
1A
100
AcDbXrecord
280
     1
270
     1
271
     1
  0
XRECORD
  5
1B
102
{ACAD_REACTORS
330
1A
102
}
330
1A
100
AcDbXrecord
280
     1
270
     1
271
     1
  0
XRECORD
  5
1F
102
{ACAD_REACTORS
330
1A
102
}
330
1A
100
AcDbXrecord
280
     1
270
     1
271
     1
  0
XRECORD
  5
1E
102
{ACAD_REACTORS
330
1A
102
}
330
1A
100
AcDbXrecord
280
     1
270
     1
271
     1
  0
XRECORD
  5
20
102
{ACAD_REACTORS
330
1A
102
}
330
1A
100
AcDbXrecord
280
     1
270
     1
271
     1
  0
XRECORD
  5
1D
102
{ACAD_REACTORS
330
1A
102
}
330
1A
100
AcDbXrecord
280
     1
270
     1
271
     1
  0
XRECORD
  5
14
102
{ACAD_REACTORS
330
12
102
}
330
12
100
AcDbXrecord
280
     1
270
     1
271
     1
  0
XRECORD
  5
13
102
{ACAD_REACTORS
330
12
102
}
330
12
100
AcDbXrecord
280
     1
270
     1
271
     1
  0
XRECORD
  5
17
102
{ACAD_REACTORS
330
12
102
}
330
12
100
AcDbXrecord
280
     1
270
     1
271
     1
  0
XRECORD
  5
16
102
{ACAD_REACTORS
330
12
102
}
330
12
100
AcDbXrecord
280
     1
270
     1
271
     1
  0
XRECORD
  5
18
102
{ACAD_REACTORS
330
12
102
}
330
12
100
AcDbXrecord
280
     1
270
     1
271
     1
  0
XRECORD
  5
15
102
{ACAD_REACTORS
330
12
102
}
330
12
100
AcDbXrecord
280
     1
270
     1
271
     1
  0
XRECORD
  5
24
102
{ACAD_REACTORS
330
22
102
}
330
22
100
AcDbXrecord
280
     1
270
     1
271
     1
  0
XRECORD
  5
23
102
{ACAD_REACTORS
330
22
102
}
330
22
100
AcDbXrecord
280
     1
270
     1
271
     1
  0
XRECORD
  5
27
102
{ACAD_REACTORS
330
22
102
}
330
22
100
AcDbXrecord
280
     1
270
     1
271
     1
  0
XRECORD
  5
26
102
{ACAD_REACTORS
330
22
102
}
330
22
100
AcDbXrecord
280
     1
270
     1
271
     1
  0
XRECORD
  5
28
102
{ACAD_REACTORS
330
22
102
}
330
22
100
AcDbXrecord
280
     1
270
     1
271
     1
  0
XRECORD
  5
25
102
{ACAD_REACTORS
330
22
102
}
330
22
100
AcDbXrecord
280
     1
270
     1
271
     1
  0
XRECORD
  5
8F
102
{ACAD_REACTORS
330
8E
102
}
330
8E
100
AcDbXrecord
280
     1
102
DISPLAYNAME
  1
Imperial24
102
FLAGS
 90
        0
  0
CELLSTYLEMAP
  5
8C
102
{ACAD_REACTORS
330
8B
102
}
330
8B
100
AcDbCellStyleMap
 90
        3
300
CELLSTYLE
  1
TABLEFORMAT_BEGIN
 90
        5
170
     1
 91
        0
 92
    32768
 62
   257
 93
        1
300
CONTENTFORMAT
  1
CONTENTFORMAT_BEGIN
 90
        0
 91
        0
 92
      512
 93
        0
300

 40
0.0
140
1.0
 94
        5
 62
     0
340
55
144
0.25
309
CONTENTFORMAT_END
171
     0
 94
        0
309
TABLEFORMAT_END
  1
CELLSTYLE_BEGIN
 90
        1
 91
        1
300
_TITLE
309
CELLSTYLE_END
300
CELLSTYLE
  1
TABLEFORMAT_BEGIN
 90
        5
170
     1
 91
        0
 92
        0
 62
   257
 93
        1
300
CONTENTFORMAT
  1
CONTENTFORMAT_BEGIN
 90
        0
 91
        0
 92
      512
 93
        0
300

 40
0.0
140
1.0
 94
        5
 62
     0
340
55
144
0.18
309
CONTENTFORMAT_END
171
     0
 94
        0
309
TABLEFORMAT_END
  1
CELLSTYLE_BEGIN
 90
        2
 91
        1
300
_HEADER
309
CELLSTYLE_END
300
CELLSTYLE
  1
TABLEFORMAT_BEGIN
 90
        5
170
     1
 91
        0
 92
        0
 62
   257
 93
        1
300
CONTENTFORMAT
  1
CONTENTFORMAT_BEGIN
 90
        0
 91
        0
 92
      512
 93
        0
300

 40
0.0
140
1.0
 94
        2
 62
     0
340
55
144
0.18
309
CONTENTFORMAT_END
171
     0
 94
        0
309
TABLEFORMAT_END
  1
CELLSTYLE_BEGIN
 90
        3
 91
        2
300
_DATA
309
CELLSTYLE_END
  0
ENDSEC
  0
EOF
