  0
SECTION
  2
HEADER
  9
$ACADVER
  1
AC1027
  9
$ACADMAINTVER
 70
   125
  9
$DWGCODEPAGE
  3
ANSI_1252
  9
$REQUIREDVERSIONS
160
                 0
  9
$INSBASE
 10
0.0
 20
0.0
 30
0.0
  9
$EXTMIN
 10
1.000000000000000E+20
 20
1.000000000000000E+20
 30
1.000000000000000E+20
  9
$EXTMAX
 10
-1.000000000000000E+20
 20
-1.000000000000000E+20
 30
-1.000000000000000E+20
  9
$LIMMIN
 10
0.0
 20
0.0
  9
$LIMMAX
 10
12.0
 20
9.0
  9
$ORTHOMODE
 70
     0
  9
$REGENMODE
 70
     1
  9
$FILLMODE
 70
     1
  9
$QTEXTMODE
 70
     0
  9
$MIRRTEXT
 70
     0
  9
$LTSCALE
 40
1.0
  9
$ATTMODE
 70
     1
  9
$TEXTSIZE
 40
0.2
  9
$TRACEWID
 40
0.05
  9
$TEXTSTYLE
  7
Standard
  9
$CLAYER
  8
0
  9
$CELTYPE
  6
ByLayer
  9
$CECOLOR
 62
   256
  9
$CELTSCALE
 40
1.0
  9
$DISPSILH
 70
     0
  9
$DIMSCALE
 40
1.0
  9
$DIMASZ
 40
0.18
  9
$DIMEXO
 40
0.0625
  9
$DIMDLI
 40
0.38
  9
$DIMRND
 40
0.0
  9
$DIMDLE
 40
0.0
  9
$DIMEXE
 40
0.18
  9
$DIMTP
 40
0.0
  9
$DIMTM
 40
0.0
  9
$DIMTXT
 40
0.18
  9
$DIMCEN
 40
0.09
  9
$DIMTSZ
 40
0.0
  9
$DIMTOL
 70
     0
  9
$DIMLIM
 70
     0
  9
$DIMTIH
 70
     1
  9
$DIMTOH
 70
     1
  9
$DIMSE1
 70
     0
  9
$DIMSE2
 70
     0
  9
$DIMTAD
 70
     0
  9
$DIMZIN
 70
     0
  9
$DIMBLK
  1

  9
$DIMASO
 70
     1
  9
$DIMSHO
 70
     1
  9
$DIMPOST
  1

  9
$DIMAPOST
  1

  9
$DIMALT
 70
     0
  9
$DIMALTD
 70
     2
  9
$DIMALTF
 40
25.4
  9
$DIMLFAC
 40
1.0
  9
$DIMTOFL
 70
     0
  9
$DIMTVP
 40
0.0
  9
$DIMTIX
 70
     0
  9
$DIMSOXD
 70
     0
  9
$DIMSAH
 70
     0
  9
$DIMBLK1
  1

  9
$DIMBLK2
  1

  9
$DIMSTYLE
  2
Standard
  9
$DIMCLRD
 70
     0
  9
$DIMCLRE
 70
     0
  9
$DIMCLRT
 70
     0
  9
$DIMTFAC
 40
1.0
  9
$DIMGAP
 40
0.09
  9
$DIMJUST
 70
     0
  9
$DIMSD1
 70
     0
  9
$DIMSD2
 70
     0
  9
$DIMTOLJ
 70
     1
  9
$DIMTZIN
 70
     0
  9
$DIMALTZ
 70
     0
  9
$DIMALTTZ
 70
     0
  9
$DIMUPT
 70
     0
  9
$DIMDEC
 70
     4
  9
$DIMTDEC
 70
     4
  9
$DIMALTU
 70
     2
  9
$DIMALTTD
 70
     2
  9
$DIMTXSTY
  7
Standard
  9
$DIMAUNIT
 70
     0
  9
$DIMADEC
 70
     0
  9
$DIMALTRND
 40
0.0
  9
$DIMAZIN
 70
     0
  9
$DIMDSEP
 70
    46
  9
$DIMATFIT
 70
     3
  9
$DIMFRAC
 70
     0
  9
$DIMLDRBLK
  1

  9
$DIMLUNIT
 70
     2
  9
$DIMLWD
 70
    -2
  9
$DIMLWE
 70
    -2
  9
$DIMTMOVE
 70
     0
  9
$DIMFXL
 40
1.0
  9
$DIMFXLON
 70
     0
  9
$DIMJOGANG
 40
0.7853981633974483
  9
$DIMTFILL
 70
     0
  9
$DIMTFILLCLR
 70
     0
  9
$DIMARCSYM
 70
     0
  9
$DIMLTYPE
  6

  9
$DIMLTEX1
  6

  9
$DIMLTEX2
  6

  9
$DIMTXTDIRECTION
 70
     0
  9
$LUNITS
 70
     2
  9
$LUPREC
 70
     4
  9
$SKETCHINC
 40
0.1
  9
$FILLETRAD
 40
0.0
  9
$AUNITS
 70
     0
  9
$AUPREC
 70
     0
  9
$MENU
  1
.
  9
$ELEVATION
 40
0.0
  9
$PELEVATION
 40
0.0
  9
$THICKNESS
 40
0.0
  9
$LIMCHECK
 70
     0
  9
$CHAMFERA
 40
0.0
  9
$CHAMFERB
 40
0.0
  9
$CHAMFERC
 40
0.0
  9
$CHAMFERD
 40
0.0
  9
$SKPOLY
 70
     0
  9
$TDCREATE
 40
2459734.966979167
  9
$TDUCREATE
 40
2459734.550312500
  9
$TDUPDATE
 40
2459734.966979167
  9
$TDUUPDATE
 40
2459734.550312500
  9
$TDINDWG
 40
0.0000000000
  9
$TDUSRTIMER
 40
0.0000000000
  9
$USRTIMER
 70
     1
  9
$ANGBASE
 50
0.0
  9
$ANGDIR
 70
     0
  9
$PDMODE
 70
     0
  9
$PDSIZE
 40
0.0
  9
$PLINEWID
 40
0.0
  9
$SPLFRAME
 70
     0
  9
$SPLINETYPE
 70
     6
  9
$SPLINESEGS
 70
     8
  9
$HANDSEED
  5
8B
  9
$SURFTAB1
 70
     6
  9
$SURFTAB2
 70
     6
  9
$SURFTYPE
 70
     6
  9
$SURFU
 70
     6
  9
$SURFV
 70
     6
  9
$UCSBASE
  2

  9
$UCSNAME
  2

  9
$UCSORG
 10
0.0
 20
0.0
 30
0.0
  9
$UCSXDIR
 10
1.0
 20
0.0
 30
0.0
  9
$UCSYDIR
 10
0.0
 20
1.0
 30
0.0
  9
$UCSORTHOREF
  2

  9
$UCSORTHOVIEW
 70
     0
  9
$UCSORGTOP
 10
0.0
 20
0.0
 30
0.0
  9
$UCSORGBOTTOM
 10
0.0
 20
0.0
 30
0.0
  9
$UCSORGLEFT
 10
0.0
 20
0.0
 30
0.0
  9
$UCSORGRIGHT
 10
0.0
 20
0.0
 30
0.0
  9
$UCSORGFRONT
 10
0.0
 20
0.0
 30
0.0
  9
$UCSORGBACK
 10
0.0
 20
0.0
 30
0.0
  9
$PUCSBASE
  2

  9
$PUCSNAME
  2

  9
$PUCSORG
 10
0.0
 20
0.0
 30
0.0
  9
$PUCSXDIR
 10
1.0
 20
0.0
 30
0.0
  9
$PUCSYDIR
 10
0.0
 20
1.0
 30
0.0
  9
$PUCSORTHOREF
  2

  9
$PUCSORTHOVIEW
 70
     0
  9
$PUCSORGTOP
 10
0.0
 20
0.0
 30
0.0
  9
$PUCSORGBOTTOM
 10
0.0
 20
0.0
 30
0.0
  9
$PUCSORGLEFT
 10
0.0
 20
0.0
 30
0.0
  9
$PUCSORGRIGHT
 10
0.0
 20
0.0
 30
0.0
  9
$PUCSORGFRONT
 10
0.0
 20
0.0
 30
0.0
  9
$PUCSORGBACK
 10
0.0
 20
0.0
 30
0.0
  9
$USERI1
 70
     0
  9
$USERI2
 70
     0
  9
$USERI3
 70
     0
  9
$USERI4
 70
     0
  9
$USERI5
 70
     0
  9
$USERR1
 40
0.0
  9
$USERR2
 40
0.0
  9
$USERR3
 40
0.0
  9
$USERR4
 40
0.0
  9
$USERR5
 40
0.0
  9
$WORLDVIEW
 70
     1
  9
$SHADEDGE
 70
     3
  9
$SHADEDIF
 70
    70
  9
$TILEMODE
 70
     1
  9
$MAXACTVP
 70
    64
  9
$PINSBASE
 10
0.0
 20
0.0
 30
0.0
  9
$PLIMCHECK
 70
     0
  9
$PEXTMIN
 10
1.000000000000000E+20
 20
1.000000000000000E+20
 30
1.000000000000000E+20
  9
$PEXTMAX
 10
-1.000000000000000E+20
 20
-1.000000000000000E+20
 30
-1.000000000000000E+20
  9
$PLIMMIN
 10
0.0
 20
0.0
  9
$PLIMMAX
 10
12.0
 20
9.0
  9
$UNITMODE
 70
     0
  9
$VISRETAIN
 70
     1
  9
$PLINEGEN
 70
     0
  9
$PSLTSCALE
 70
     1
  9
$TREEDEPTH
 70
  3020
  9
$CMLSTYLE
  2
Standard
  9
$CMLJUST
 70
     0
  9
$CMLSCALE
 40
1.0
  9
$PROXYGRAPHICS
 70
     1
  9
$MEASUREMENT
 70
     0
  9
$CELWEIGHT
370
    -1
  9
$ENDCAPS
280
     0
  9
$JOINSTYLE
280
     0
  9
$LWDISPLAY
290
     1
  9
$INSUNITS
 70
     4
  9
$HYPERLINKBASE
  1

  9
$STYLESHEET
  1

  9
$XEDIT
290
     1
  9
$CEPSNTYPE
380
     0
  9
$PSTYLEMODE
290
     1
  9
$FINGERPRINTGUID
  2
{793E73C2-F9A5-2C4C-80E8-53F26D183A67}
  9
$VERSIONGUID
  2
{0AF5A8BD-04DF-B24F-AB02-DCAC523DE20A}
  9
$EXTNAMES
290
     1
  9
$PSVPSCALE
 40
0.0
  9
$OLESTARTUP
290
     0
  9
$SORTENTS
280
   127
  9
$INDEXCTL
280
     0
  9
$HIDETEXT
280
     1
  9
$XCLIPFRAME
280
     2
  9
$HALOGAP
280
     0
  9
$OBSCOLOR
 70
   257
  9
$OBSLTYPE
280
     0
  9
$INTERSECTIONDISPLAY
280
     0
  9
$INTERSECTIONCOLOR
 70
   257
  9
$DIMASSOC
280
     2
  9
$PROJECTNAME
  1

  9
$CAMERADISPLAY
290
     0
  9
$LENSLENGTH
 40
50.0
  9
$CAMERAHEIGHT
 40
0.0
  9
$STEPSPERSEC
 40
2.0
  9
$STEPSIZE
 40
6.0
  9
$3DDWFPREC
 40
2.0
  9
$PSOLWIDTH
 40
0.25
  9
$PSOLHEIGHT
 40
4.0
  9
$LOFTANG1
 40
1.570796326794896
  9
$LOFTANG2
 40
1.570796326794896
  9
$LOFTMAG1
 40
0.0
  9
$LOFTMAG2
 40
0.0
  9
$LOFTPARAM
 70
     7
  9
$LOFTNORMALS
280
     1
  9
$LATITUDE
 40
37.795
  9
$LONGITUDE
 40
-122.394
  9
$NORTHDIRECTION
 40
0.0
  9
$TIMEZONE
 70
 -8000
  9
$LIGHTGLYPHDISPLAY
280
     1
  9
$TILEMODELIGHTSYNCH
280
     1
  9
$CMATERIAL
347
11
  9
$SOLIDHIST
280
     0
  9
$SHOWHIST
280
     1
  9
$DWFFRAME
280
     2
  9
$DGNFRAME
280
     0
  9
$REALWORLDSCALE
290
     1
  9
$INTERFERECOLOR
 62
     1
  9
$INTERFEREOBJVS
345
33
  9
$INTERFEREVPVS
346
30
  9
$CSHADOW
280
     0
  9
$SHADOWPLANELOCATION
 40
0.0
  0
ENDSEC
  0
SECTION
  2
CLASSES
  0
CLASS
  1
ACDBDICTIONARYWDFLT
  2
AcDbDictionaryWithDefault
  3
ObjectDBX Classes
 90
        0
 91
        1
280
     0
281
     0
  0
CLASS
  1
MATERIAL
  2
AcDbMaterial
  3
ObjectDBX Classes
 90
     1153
 91
        3
280
     0
281
     0
  0
CLASS
  1
VISUALSTYLE
  2
AcDbVisualStyle
  3
ObjectDBX Classes
 90
     4095
 91
       24
280
     0
281
     0
  0
CLASS
  1
SCALE
  2
AcDbScale
  3
ObjectDBX Classes
 90
     1153
 91
       17
280
     0
281
     0
  0
CLASS
  1
TABLESTYLE
  2
AcDbTableStyle
  3
ObjectDBX Classes
 90
     4095
 91
        1
280
     0
281
     0
  0
CLASS
  1
MLEADERSTYLE
  2
AcDbMLeaderStyle
  3
ACDB_MLEADERSTYLE_CLASS
 90
     4095
 91
        1
280
     0
281
     0
  0
CLASS
  1
ACDBSECTIONVIEWSTYLE
  2
AcDbSectionViewStyle
  3
ObjectDBX Classes
 90
     1025
 91
        1
280
     0
281
     0
  0
CLASS
  1
ACDBDETAILVIEWSTYLE
  2
AcDbDetailViewStyle
  3
ObjectDBX Classes
 90
     1025
 91
        1
280
     0
281
     0
  0
CLASS
  1
DICTIONARYVAR
  2
AcDbDictionaryVar
  3
ObjectDBX Classes
 90
        0
 91
        5
280
     0
281
     0
  0
CLASS
  1
CELLSTYLEMAP
  2
AcDbCellStyleMap
  3
ObjectDBX Classes
 90
     1152
 91
        1
280
     0
281
     0
  0
ENDSEC
  0
SECTION
  2
TABLES
  0
TABLE
  2
VPORT
  5
8
330
0
100
AcDbSymbolTable
 70
     1
1001
ACAD
1000
DbSaveVer
1071
      247
  0
VPORT
  5
57
330
8
100
AcDbSymbolTableRecord
100
AcDbViewportTableRecord
  2
*Active
 70
     0
 10
0.0
 20
0.0
 11
1.0
 21
1.0
 12
0.0
 22
0.0
 13
0.0
 23
0.0
 14
1.0
 24
1.0
 15
0.0
 25
0.0
 16
0.0
 26
0.0
 36
1.0
 17
-111.9583333053439
 27
3.302777776952218
 37
0.0
 40
214.1999999464498
 41
0.9999999999999998
 42
50.0
 43
0.0
 44
0.0
 50
0.0
 51
0.0
 71
     0
 72
   100
 73
     1
 74
     1
 75
     0
 76
     0
 77
     0
 78
     0
281
     0
 65
     1
110
0.0
120
0.0
130
0.0
111
1.0
121
0.0
131
0.0
112
0.0
122
1.0
132
0.0
 79
     0
146
0.0
 60
     3
 61
     5
292
     1
282
     1
141
0.0
142
0.0
 63
   250
421
  3355443
  0
ENDTAB
  0
TABLE
  2
LTYPE
  5
5
330
0
100
AcDbSymbolTable
 70
     1
  0
LTYPE
  5
5B
330
5
100
AcDbSymbolTableRecord
100
AcDbLinetypeTableRecord
  2
ByBlock
 70
     0
  3

 72
    65
 73
     0
 40
0.0
  0
LTYPE
  5
5C
330
5
100
AcDbSymbolTableRecord
100
AcDbLinetypeTableRecord
  2
ByLayer
 70
     0
  3

 72
    65
 73
     0
 40
0.0
  0
LTYPE
  5
5D
330
5
100
AcDbSymbolTableRecord
100
AcDbLinetypeTableRecord
  2
Continuous
 70
     0
  3
Solid line
 72
    65
 73
     0
 40
0.0
  0
ENDTAB
  0
TABLE
  2
LAYER
  5
2
330
0
100
AcDbSymbolTable
 70
     2
  0
LAYER
  5
54
330
2
100
AcDbSymbolTableRecord
100
AcDbLayerTableRecord
  2
0
 70
     0
 62
     7
  6
Continuous
370
    -3
390
F
347
21
348
0
  0
LAYER
  5
78
330
2
100
AcDbSymbolTableRecord
100
AcDbLayerTableRecord
  2
Layer 1
 70
     0
 62
     7
  6
Continuous
370
     0
390
F
347
21
348
0
  0
ENDTAB
  0
TABLE
  2
STYLE
  5
3
330
0
100
AcDbSymbolTable
 70
     2
  0
STYLE
  5
55
330
3
100
AcDbSymbolTableRecord
100
AcDbTextStyleTableRecord
  2
Standard
 70
     0
 40
0.0
 41
1.0
 50
0.0
 71
     0
 42
0.2
  3
txt
  4

  0
STYLE
  5
5A
330
3
100
AcDbSymbolTableRecord
100
AcDbTextStyleTableRecord
  2
Annotative
 70
     0
 40
0.0
 41
1.0
 50
0.0
 71
     0
 42
0.2
  3
txt
  4

1001
AcadAnnotative
1000
AnnotativeData
1002
{
1070
     1
1070
     1
1002
}
  0
ENDTAB
  0
TABLE
  2
VIEW
  5
6
330
0
100
AcDbSymbolTable
 70
     0
  0
ENDTAB
  0
TABLE
  2
UCS
  5
7
330
0
100
AcDbSymbolTable
 70
     0
  0
ENDTAB
  0
TABLE
  2
APPID
  5
9
330
0
100
AcDbSymbolTable
 70
     2
  0
APPID
  5
56
330
9
100
AcDbSymbolTableRecord
100
AcDbRegAppTableRecord
  2
ACAD
 70
     0
  0
APPID
  5
5E
330
9
100
AcDbSymbolTableRecord
100
AcDbRegAppTableRecord
  2
AcadAnnotative
 70
     0
  0
ENDTAB
  0
TABLE
  2
DIMSTYLE
  5
A
330
0
100
AcDbSymbolTable
 70
     2
100
AcDbDimStyleTable
 71
     0
  0
DIMSTYLE
105
58
330
A
100
AcDbSymbolTableRecord
100
AcDbDimStyleTableRecord
  2
Standard
 70
     0
340
55
  0
DIMSTYLE
105
59
330
A
100
AcDbSymbolTableRecord
100
AcDbDimStyleTableRecord
  2
Annotative
 70
     0
340
55
1001
AcadAnnotative
1000
AnnotativeData
1002
{
1070
     1
1070
     1
1002
}
  0
ENDTAB
  0
TABLE
  2
BLOCK_RECORD
  5
1
330
0
100
AcDbSymbolTable
 70
     1
  0
BLOCK_RECORD
  5
70
330
1
100
AcDbSymbolTableRecord
100
AcDbBlockTableRecord
  2
*Model_Space
340
73
 70
     0
280
     1
281
     0
  0
BLOCK_RECORD
  5
6C
330
1
100
AcDbSymbolTableRecord
100
AcDbBlockTableRecord
  2
*Paper_Space
340
6F
 70
     0
280
     1
281
     0
  0
BLOCK_RECORD
  5
74
330
1
100
AcDbSymbolTableRecord
100
AcDbBlockTableRecord
  2
*Paper_Space0
340
77
 70
     0
280
     1
281
     0
  0
ENDTAB
  0
ENDSEC
  0
SECTION
  2
BLOCKS
  0
BLOCK
  5
71
330
70
100
AcDbEntity
  8
0
100
AcDbBlockBegin
  2
*Model_Space
 70
     0
 10
0.0
 20
0.0
 30
0.0
  3
*Model_Space
  1

  0
ENDBLK
  5
72
330
70
100
AcDbEntity
  8
0
100
AcDbBlockEnd
  0
BLOCK
  5
6D
330
6C
100
AcDbEntity
 67
     1
  8
0
100
AcDbBlockBegin
  2
*Paper_Space
 70
     0
 10
0.0
 20
0.0
 30
0.0
  3
*Paper_Space
  1

  0
ENDBLK
  5
6E
330
6C
100
AcDbEntity
 67
     1
  8
0
100
AcDbBlockEnd
  0
BLOCK
  5
75
330
74
100
AcDbEntity
 67
     1
  8
0
100
AcDbBlockBegin
  2
*Paper_Space0
 70
     0
 10
0.0
 20
0.0
 30
0.0
  3
*Paper_Space0
  1

  0
ENDBLK
  5
76
330
74
100
AcDbEntity
 67
     1
  8
0
100
AcDbBlockEnd
  0
ENDSEC
  0
SECTION
  2
ENTITIES
  0
SPLINE
  5
79
330
70
100
AcDbEntity
  8
Layer 1
100
AcDbSpline
210
0.0
220
0.0
230
1.0
 70
     9
 71
     3
 72
    71
 73
    67
 74
     0
 42
0.0000000001
 43
0.0000000001
 40
0.0
 40
0.0
 40
0.0
 40
0.0
 40
1.0
 40
1.0
 40
1.0
 40
2.0
 40
2.0
 40
2.0
 40
3.0
 40
3.0
 40
3.0
 40
4.0
 40
4.0
 40
4.0
 40
5.0
 40
5.0
 40
5.0
 40
6.0
 40
6.0
 40
6.0
 40
7.0
 40
7.0
 40
7.0
 40
8.0
 40
8.0
 40
8.0
 40
9.0
 40
9.0
 40
9.0
 40
10.0
 40
10.0
 40
10.0
 40
11.0
 40
11.0
 40
11.0
 40
12.0
 40
12.0
 40
12.0
 40
13.0
 40
13.0
 40
13.0
 40
14.0
 40
14.0
 40
14.0
 40
15.0
 40
15.0
 40
15.0
 40
16.0
 40
16.0
 40
16.0
 40
17.0
 40
17.0
 40
17.0
 40
18.0
 40
18.0
 40
18.0
 40
19.0
 40
19.0
 40
19.0
 40
20.0
 40
20.0
 40
20.0
 40
21.0
 40
21.0
 40
21.0
 40
22.0
 40
22.0
 40
22.0
 40
22.0
 10
-41.21050739068695
 20
-0.7965690939163417
 30
0.0
 10
-41.26327885497399
 20
-0.8543773140101752
 30
0.0
 10
-41.32074365989979
 20
-0.9109835810114056
 30
0.0
 10
-41.37362959590439
 20
-0.9687918011052392
 30
0.0
 10
-53.59634781479879
 20
-14.31310396154565
 30
0.0
 10
-71.775144250944
 20
-26.16739494009657
 30
0.0
 10
-92.88498915344296
 20
-34.61323313169709
 30
0.0
 10
-94.09243688720868
 20
-35.09630380258228
 30
0.0
 10
-95.30492137678503
 20
-35.57370812317955
 30
0.0
 10
-96.53102800139205
 20
-36.03411339291818
 30
0.0
 10
-100.6481179893195
 20
-37.58011124733418
 30
0.0
 10
-104.7751670171405
 20
-38.95279891319392
 30
0.0
 10
-108.8904254575012
 20
-40.16625641241623
 30
0.0
 10
-123.0614524011478
 20
-44.34487495142713
 30
0.0
 10
-137.0872147283596
 20
-46.53483348334843
 30
0.0
 10
-150.0356836708079
 20
-46.53483348334843
 30
0.0
 10
-164.9394441131135
 20
-46.53483348334843
 30
0.0
 10
-177.193642055818
 20
-43.59107865574797
 30
0.0
 10
-185.4440770163291
 20
-38.30174098886787
 30
0.0
 10
-190.3909725239821
 20
-35.13024466844015
 30
0.0
 10
-193.8985005871528
 20
-31.11549240083832
 30
0.0
 10
-195.6744148971302
 20
-26.38632211025714
 30
0.0
 10
-198.4256282867145
 20
-19.05978842574522
 30
0.0
 10
-197.0240365108114
 20
-10.41848976719007
 30
0.0
 10
-191.7693265401227
 20
-1.284790992334206
 30
0.0
 10
-191.6493601744637
 20
-1.345117590332073
 30
0.0
 10
-191.5283635632967
 20
-1.403269225593938
 30
0.0
 10
-191.4062222348991
 20
-1.459703785011153
 30
0.0
 10
-192.9871912006783
 20
-6.874330752674026
 30
0.0
 10
-192.9470116259198
 20
-12.04873880970252
 30
0.0
 10
-191.1738446372925
 20
-16.77052567415755
 30
0.0
 10
-189.5643722124973
 20
-21.05663316103127
 30
0.0
 10
-186.6187858373295
 20
-24.68796239258167
 30
0.0
 10
-182.5236744202125
 20
-27.59273959851426
 30
0.0
 10
-175.1152934537829
 20
-32.84739233334037
 30
0.0
 10
-163.9302614035087
 20
-35.71519517275837
 30
0.0
 10
-149.9839424520333
 20
-35.71519517275837
 30
0.0
 10
-143.1365873998227
 20
-35.71519517275837
 30
0.0
 10
-135.9224649472558
 20
-35.04158631901101
 30
0.0
 10
-128.5037815257609
 20
-33.73014102493311
 30
0.0
 10
-119.0892836144859
 20
-32.06583664484075
 30
0.0
 10
-109.3451071410894
 20
-29.37311830568756
 30
0.0
 10
-99.59978595046537
 20
-25.71368626615188
 30
0.0
 10
-99.11820341197884
 20
-25.53282094387647
 30
0.0
 10
-98.64921276301696
 20
-25.34176763825839
 30
0.0
 10
-98.17152226311364
 20
-25.15769710774288
 30
0.0
 10
-76.17532280974412
 20
-16.68261139092772
 30
0.0
 10
-58.33833893835256
 20
-4.835360423334939
 30
0.0
 10
-47.33256960623367
 20
7.549335283543725
 30
0.0
 10
-37.06056401827601
 20
19.10823198099891
 30
0.0
 10
-32.72803824774115
 20
31.12764841991862
 30
0.0
 10
-36.54544126496225
 20
41.29348148483259
 30
0.0
 10
-37.23227160271286
 20
43.12245343840239
 30
0.0
 10
-38.17185550475346
 20
44.82688015739388
 30
0.0
 10
-39.32893568042118
 20
46.41248522795247
 30
0.0
 10
-40.68496771058645
 20
48.27041852742891
 30
0.0
 10
-42.34366297625672
 20
49.96305465895641
 30
0.0
 10
-44.30582277948814
 20
51.46875846688991
 30
0.0
 10
-43.02786046437868
 20
50.91917972496559
 30
0.0
 10
-41.81915354165711
 20
50.32375505799802
 30
0.0
 10
-40.66779695214444
 20
49.69301586449594
 30
0.0
 10
-34.56141736264493
 20
46.34798041206533
 30
0.0
 10
-30.26941458203985
 20
41.88449899046619
 30
0.0
 10
-28.24212036844272
 20
36.48566912057641
 30
0.0
 10
-24.28952624640865
 20
25.95942183592753
 30
0.0
 10
-28.89506707620128
 20
12.7189927640747
 30
0.0
 10
-41.21050739068695
 20
-0.7965690939163417
 30
0.0
  0
SPLINE
  5
7A
330
70
100
AcDbEntity
  8
Layer 1
100
AcDbSpline
210
0.0
220
0.0
230
1.0
 70
     9
 71
     3
 72
   146
 73
   142
 74
     0
 42
0.0000000001
 43
0.0000000001
 40
0.0
 40
0.0
 40
0.0
 40
0.0
 40
1.0
 40
1.0
 40
1.0
 40
2.0
 40
2.0
 40
2.0
 40
3.0
 40
3.0
 40
3.0
 40
4.0
 40
4.0
 40
4.0
 40
5.0
 40
5.0
 40
5.0
 40
6.0
 40
6.0
 40
6.0
 40
7.0
 40
7.0
 40
7.0
 40
8.0
 40
8.0
 40
8.0
 40
9.0
 40
9.0
 40
9.0
 40
10.0
 40
10.0
 40
10.0
 40
11.0
 40
11.0
 40
11.0
 40
12.0
 40
12.0
 40
12.0
 40
13.0
 40
13.0
 40
13.0
 40
14.0
 40
14.0
 40
14.0
 40
15.0
 40
15.0
 40
15.0
 40
16.0
 40
16.0
 40
16.0
 40
17.0
 40
17.0
 40
17.0
 40
18.0
 40
18.0
 40
18.0
 40
19.0
 40
19.0
 40
19.0
 40
20.0
 40
20.0
 40
20.0
 40
21.0
 40
21.0
 40
21.0
 40
22.0
 40
22.0
 40
22.0
 40
23.0
 40
23.0
 40
23.0
 40
24.0
 40
24.0
 40
24.0
 40
25.0
 40
25.0
 40
25.0
 40
26.0
 40
26.0
 40
26.0
 40
27.0
 40
27.0
 40
27.0
 40
28.0
 40
28.0
 40
28.0
 40
29.0
 40
29.0
 40
29.0
 40
30.0
 40
30.0
 40
30.0
 40
31.0
 40
31.0
 40
31.0
 40
32.0
 40
32.0
 40
32.0
 40
33.0
 40
33.0
 40
33.0
 40
34.0
 40
34.0
 40
34.0
 40
35.0
 40
35.0
 40
35.0
 40
36.0
 40
36.0
 40
36.0
 40
37.0
 40
37.0
 40
37.0
 40
38.0
 40
38.0
 40
38.0
 40
39.0
 40
39.0
 40
39.0
 40
40.0
 40
40.0
 40
40.0
 40
41.0
 40
41.0
 40
41.0
 40
42.0
 40
42.0
 40
42.0
 40
43.0
 40
43.0
 40
43.0
 40
44.0
 40
44.0
 40
44.0
 40
45.0
 40
45.0
 40
45.0
 40
46.0
 40
46.0
 40
46.0
 40
47.0
 40
47.0
 40
47.0
 40
47.0
 10
-188.5730470916757
 20
-5.966455517890103
 30
0.0
 10
-188.4068341499395
 20
-4.823283656561685
 30
0.0
 10
-188.1330177886236
 20
-3.661681847843084
 30
0.0
 10
-187.7900605066393
 20
-2.490292706807984
 30
0.0
 10
-187.3002360041014
 20
-2.55010418205252
 30
0.0
 10
-186.8045734436903
 20
-2.590455464398286
 30
0.0
 10
-186.2986084282145
 20
-2.590455464398286
 30
0.0
 10
-179.5565673611281
 20
-2.590455464398286
 30
0.0
 10
-174.0910004767526
 20
2.875111419980459
 30
0.0
 10
-174.0910004767526
 20
9.617209722926201
 30
0.0
 10
-174.0910004767526
 20
10.30850445787277
 30
0.0
 10
-174.1619729449871
 20
10.98188436817736
 30
0.0
 10
-174.2724381576427
 20
11.64181385103207
 30
0.0
 10
-172.2551029839448
 20
7.685442162140033
 30
0.0
 10
-169.649955512854
 20
3.960532297069965
 30
0.0
 10
-166.4579115181557
 20
0.4852280239117761
 30
0.0
 10
-157.8260567767484
 20
-8.918395073679311
 30
0.0
 10
-139.2954887359497
 20
-16.23685850172387
 30
0.0
 10
-109.8322987940025
 20
-21.88369135940548
 30
0.0
 10
-108.1443560031169
 20
-22.22418749934449
 30
0.0
 10
-106.6430021206548
 20
-22.56485534686752
 30
0.0
 10
-105.2956127055715
 20
-22.90157391995498
 30
0.0
 10
-105.2956127055715
 20
-22.90157391995498
 30
0.0
 10
-103.9332274947804
 20
-23.29867632689522
 30
0.0
 10
-103.9332274947804
 20
-23.29867632689522
 30
0.0
 10
-104.1172407894364
 20
-23.36386797312291
 30
0.0
 10
-104.3011968482344
 20
-23.42917409106879
 30
0.0
 10
-104.4849811994439
 20
-23.49362167109395
 30
0.0
 10
-104.8775047374667
 20
-23.63110221036752
 30
0.0
 10
-105.2685401430949
 20
-23.76045525731111
 30
0.0
 10
-105.6603768507772
 20
-23.89455888075607
 30
0.0
 10
-106.4577868729086
 20
-24.16751670415122
 30
0.0
 10
-107.2546245364223
 20
-24.43732655516505
 30
0.0
 10
-108.0495161806465
 20
-24.69614712077427
 30
0.0
 10
-108.5060294118045
 20
-24.84478865303326
 30
0.0
 10
-108.9613979257325
 20
-24.98770659914811
 30
0.0
 10
-109.4169953831071
 20
-25.13171202663033
 30
0.0
 10
-110.1488131079835
 20
-25.36311661459096
 30
0.0
 10
-110.8797150590726
 20
-25.59017127708087
 30
0.0
 10
-111.6088999343171
 20
-25.80961356998965
 30
0.0
 10
-112.0802944894604
 20
-25.95150127059592
 30
0.0
 10
-112.551231157711
 20
-26.09092782916142
 30
0.0
 10
-113.0213665239029
 20
-26.2278932456823
 30
0.0
 10
-113.7432252088793
 20
-26.43817780075635
 30
0.0
 10
-114.4629089311204
 20
-26.64119340142244
 30
0.0
 10
-115.181562407853
 20
-26.83974460489257
 30
0.0
 10
-115.6394492996876
 20
-26.96623585876409
 30
0.0
 10
-116.0975651349662
 20
-27.09381459400041
 30
0.0
 10
-116.5538494226769
 20
-27.21555527136671
 30
0.0
 10
-117.3182915885972
 20
-27.41948664581614
 30
0.0
 10
-118.079299602823
 20
-27.61294385761621
 30
0.0
 10
-118.8393918432686
 20
-27.80359651220364
 30
0.0
 10
-119.2375244957174
 20
-27.9034158546259
 30
0.0
 10
-119.6371452805649
 20
-28.00792853768756
 30
0.0
 10
-120.0340187440624
 20
-28.10414202083138
 30
0.0
 10
-121.0786876877819
 20
-28.35741070787728
 30
0.0
 10
-122.1184343474134
 20
-28.59780132609118
 30
0.0
 10
-123.1531442512369
 20
-28.82588623408647
 30
0.0
 10
-123.2591450666966
 20
-28.84923846556653
 30
0.0
 10
-123.3664050711083
 20
-28.87596761288162
 30
0.0
 10
-123.4722914148434
 20
-28.89903366505628
 30
0.0
 10
-124.6039588680107
 20
-29.14594917147626
 30
0.0
 10
-125.7281856591885
 20
-29.3751215608389
 30
0.0
 10
-126.8465743924937
 20
-29.5919310041229
 30
0.0
 10
-127.2269639278807
 20
-29.66565079371122
 30
0.0
 10
-127.6031180095236
 20
-29.7309569116571
 30
0.0
 10
-127.9817904690691
 20
-29.80124254955099
 30
0.0
 10
-128.7281461027595
 20
-29.93969609847053
 30
0.0
 10
-129.4730136040512
 20
-30.07551679776078
 30
0.0
 10
-130.2123864626384
 20
-30.20051991923045
 30
0.0
 10
-130.6460053492064
 20
-30.27383905778812
 30
0.0
 10
-131.0764190275304
 20
-30.34114843088854
 30
0.0
 10
-131.5075195361944
 20
-30.40983146466239
 30
0.0
 10
-131.6376738851967
 20
-30.43055084651703
 30
0.0
 10
-131.768228885229
 20
-30.45247218146491
 30
0.0
 10
-131.8982115266505
 20
-30.47296261987291
 30
0.0
 10
-131.8982115266505
 20
-30.47296261987291
 30
0.0
 10
-132.1380870221092
 20
-30.23102663340094
 30
0.0
 10
-132.1380870221092
 20
-30.23102663340094
 30
0.0
 10
-132.7139370244515
 20
-29.55667371345424
 30
0.0
 10
-133.2670071539258
 20
-28.86051393028105
 30
0.0
 10
-133.7677637060064
 20
-28.1191950524013
 30
0.0
 10
-134.1106065162686
 20
-27.61168466866419
 30
0.0
 10
-138.0697255265113
 20
-19.59357006989709
 30
0.0
 10
-137.5639894544827
 20
-19.50256505014791
 30
0.0
 10
-137.5665078323861
 20
-19.50302293703798
 30
0.0
 10
-161.9931709076058
 20
-23.89845091933672
 30
0.0
 10
-176.9894245020625
 20
-26.59689284463725
 30
0.0
 10
-176.9894245020625
 20
-26.59689284463725
 30
0.0
 10
-177.1423014880747
 20
-26.51538897789147
 30
0.0
 10
-177.1423014880747
 20
-26.51538897789147
 30
0.0
 10
-177.6375633974506
 20
-26.25273360956422
 30
0.0
 10
-178.1213781345358
 20
-25.98235139993509
 30
0.0
 10
-178.5892813021297
 20
-25.70126608421059
 30
0.0
 10
-178.6627721482682
 20
-25.65713723500942
 30
0.0
 10
-178.7378655985299
 20
-25.61409586717946
 30
0.0
 10
-178.810669614331
 20
-25.56950913108501
 30
0.0
 10
-179.3493735425754
 20
-25.23937268207331
 30
0.0
 10
-179.8666712586245
 20
-24.89544239044372
 30
0.0
 10
-180.3662258576163
 20
-24.54023663410282
 30
0.0
 10
-180.4503625739875
 20
-24.48042515885764
 30
0.0
 10
-180.5336979883006
 20
-24.42021303258181
 30
0.0
 10
-180.6165755157236
 20
-24.35971472699992
 30
0.0
 10
-181.1094907547841
 20
-24.00021628104772
 30
0.0
 10
-181.5847773485086
 20
-23.62972854969411
 30
0.0
 10
-182.0371695976393
 20
-23.24527526813794
 30
0.0
 10
-182.0978396108058
 20
-23.19382022866552
 30
0.0
 10
-182.1555333591776
 20
-23.14064811335103
 30
0.0
 10
-182.2154020702854
 20
-23.08867795112657
 30
0.0
 10
-183.1466295365533
 20
-22.28050758704031
 30
0.0
 10
-183.9877677568514
 20
-21.41813486213418
 30
0.0
 10
-184.7341233905418
 20
-20.5020748991583
 30
0.0
 10
-184.7866659113777
 20
-20.43751284740854
 30
0.0
 10
-184.8414978666749
 20
-20.37420998461337
 30
0.0
 10
-184.8930101420061
 20
-20.30913281011092
 30
0.0
 10
-185.2405462929071
 20
-19.87116399807221
 30
0.0
 10
-185.5640433819913
 20
-19.4197447585875
 30
0.0
 10
-185.8678513347224
 20
-18.9576796488662
 30
0.0
 10
-185.924056950693
 20
-18.87234097939854
 30
0.0
 10
-185.9793467928834
 20
-18.7864871871814
 30
0.0
 10
-186.0340642764586
 20
-18.7002899797898
 30
0.0
 10
-186.329401321691
 20
-18.23439006734983
 30
0.0
 10
-186.6049347588528
 20
-17.75790152053655
 30
0.0
 10
-186.8552844169634
 20
-17.26807701799799
 30
0.0
 10
-186.8935179724294
 20
-17.19326974704231
 30
0.0
 10
-186.9282029044866
 20
-17.11663092852251
 30
0.0
 10
-186.9654062144471
 20
-17.04125129895536
 30
0.0
 10
-187.220449213201
 20
-16.52406805462764
 30
0.0
 10
-187.4574056797243
 20
-15.99738365729652
 30
0.0
 10
-187.6613942900363
 20
-15.45404362427223
 30
0.0
 10
-187.661737705205
 20
-15.45329955807291
 30
0.0
 10
-187.662081120373
 20
-15.45266996359882
 30
0.0
 10
-187.6623100638196
 20
-15.45192589739949
 30
0.0
 10
-187.885758867035
 20
-14.85713082490664
 30
0.0
 10
-188.0754385119758
 20
-14.25369313733112
 30
0.0
 10
-188.2322647724306
 20
-13.64235690086969
 30
0.0
 10
-188.5458028216111
 20
-12.41962719209128
 30
0.0
 10
-188.7276983893951
 20
-11.16518881604848
 30
0.0
 10
-188.7827592881351
 20
-9.88413576441969
 30
0.0
 10
-188.8379346586041
 20
-8.6030827127909
 30
0.0
 10
-188.7662753600291
 20
-7.295414985575476
 30
0.0
 10
-188.5730470916757
 20
-5.966455517890103
 30
0.0
  0
SPLINE
  5
7B
330
70
100
AcDbEntity
  8
Layer 1
100
AcDbSpline
210
0.0
220
0.0
230
1.0
 70
    11
 71
     3
 72
   230
 73
   226
 74
     0
 42
0.0000000001
 43
0.0000000001
 40
0.0
 40
0.0
 40
0.0
 40
0.0
 40
1.0
 40
1.0
 40
1.0
 40
2.0
 40
2.0
 40
2.0
 40
3.0
 40
3.0
 40
3.0
 40
4.0
 40
4.0
 40
4.0
 40
5.0
 40
5.0
 40
5.0
 40
6.0
 40
6.0
 40
6.0
 40
7.0
 40
7.0
 40
7.0
 40
8.0
 40
8.0
 40
8.0
 40
9.0
 40
9.0
 40
9.0
 40
10.0
 40
10.0
 40
10.0
 40
11.0
 40
11.0
 40
11.0
 40
12.0
 40
12.0
 40
12.0
 40
13.0
 40
13.0
 40
13.0
 40
14.0
 40
14.0
 40
14.0
 40
15.0
 40
15.0
 40
15.0
 40
16.0
 40
16.0
 40
16.0
 40
17.0
 40
17.0
 40
17.0
 40
18.0
 40
18.0
 40
18.0
 40
19.0
 40
19.0
 40
19.0
 40
20.0
 40
20.0
 40
20.0
 40
21.0
 40
21.0
 40
21.0
 40
22.0
 40
22.0
 40
22.0
 40
23.0
 40
23.0
 40
23.0
 40
24.0
 40
24.0
 40
24.0
 40
25.0
 40
25.0
 40
25.0
 40
26.0
 40
26.0
 40
26.0
 40
27.0
 40
27.0
 40
27.0
 40
28.0
 40
28.0
 40
28.0
 40
29.0
 40
29.0
 40
29.0
 40
30.0
 40
30.0
 40
30.0
 40
31.0
 40
31.0
 40
31.0
 40
32.0
 40
32.0
 40
32.0
 40
33.0
 40
33.0
 40
33.0
 40
34.0
 40
34.0
 40
34.0
 40
35.0
 40
35.0
 40
35.0
 40
36.0
 40
36.0
 40
36.0
 40
37.0
 40
37.0
 40
37.0
 40
38.0
 40
38.0
 40
38.0
 40
39.0
 40
39.0
 40
39.0
 40
40.0
 40
40.0
 40
40.0
 40
41.0
 40
41.0
 40
41.0
 40
42.0
 40
42.0
 40
42.0
 40
43.0
 40
43.0
 40
43.0
 40
44.0
 40
44.0
 40
44.0
 40
45.0
 40
45.0
 40
45.0
 40
46.0
 40
46.0
 40
46.0
 40
47.0
 40
47.0
 40
47.0
 40
48.0
 40
48.0
 40
48.0
 40
49.0
 40
49.0
 40
49.0
 40
50.0
 40
50.0
 40
50.0
 40
51.0
 40
51.0
 40
51.0
 40
52.0
 40
52.0
 40
52.0
 40
53.0
 40
53.0
 40
53.0
 40
54.0
 40
54.0
 40
54.0
 40
55.0
 40
55.0
 40
55.0
 40
56.0
 40
56.0
 40
56.0
 40
57.0
 40
57.0
 40
57.0
 40
58.0
 40
58.0
 40
58.0
 40
59.0
 40
59.0
 40
59.0
 40
60.0
 40
60.0
 40
60.0
 40
61.0
 40
61.0
 40
61.0
 40
62.0
 40
62.0
 40
62.0
 40
63.0
 40
63.0
 40
63.0
 40
64.0
 40
64.0
 40
64.0
 40
65.0
 40
65.0
 40
65.0
 40
66.0
 40
66.0
 40
66.0
 40
67.0
 40
67.0
 40
67.0
 40
68.0
 40
68.0
 40
68.0
 40
69.0
 40
69.0
 40
69.0
 40
70.0
 40
70.0
 40
70.0
 40
71.0
 40
71.0
 40
71.0
 40
72.0
 40
72.0
 40
72.0
 40
73.0
 40
73.0
 40
73.0
 40
74.0
 40
74.0
 40
74.0
 40
75.0
 40
75.0
 40
75.0
 40
75.0
 10
-138.1263890293751
 20
41.99616615621507
 30
0.0
 10
-138.1263890293751
 20
41.99616615621507
 30
0.0
 10
-138.1265035010972
 20
41.99622339207384
 30
0.0
 10
-138.1265035010972
 20
41.99622339207384
 30
0.0
 10
-138.1265035010972
 20
41.99622339207384
 30
0.0
 10
-141.1824406171986
 20
44.08882372361749
 30
0.0
 10
-141.1824406171986
 20
44.08882372361749
 30
0.0
 10
-141.1824406171986
 20
44.08882372361749
 30
0.0
 10
-131.6102006716855
 20
44.82590714774791
 30
0.0
 10
-131.6102006716855
 20
44.82590714774791
 30
0.0
 10
-131.6102006716855
 20
44.82590714774791
 30
0.0
 10
-131.6100861999641
 20
44.82590714774791
 30
0.0
 10
-131.6100861999641
 20
44.82590714774791
 30
0.0
 10
-131.6100861999641
 20
44.82590714774791
 30
0.0
 10
-125.0396382455926
 20
45.33187216322374
 30
0.0
 10
-125.0396382455926
 20
45.33187216322374
 30
0.0
 10
-125.0396382455926
 20
45.33187216322374
 30
0.0
 10
-125.8687569349801
 20
47.06274185021657
 30
0.0
 10
-125.8687569349801
 20
47.06274185021657
 30
0.0
 10
-125.8687569349801
 20
47.06274185021657
 30
0.0
 10
-125.8688141708427
 20
47.06274185021657
 30
0.0
 10
-125.8688141708427
 20
47.06274185021657
 30
0.0
 10
-125.8688141708427
 20
47.06274185021657
 30
0.0
 10
-125.8695010011794
 20
47.0641727467526
 30
0.0
 10
-125.8695010011794
 20
47.0641727467526
 30
0.0
 10
-125.8695010011794
 20
47.0641727467526
 30
0.0
 10
-125.8694437653168
 20
47.0641727467526
 30
0.0
 10
-125.8694437653168
 20
47.0641727467526
 30
0.0
 10
-125.8694437653168
 20
47.0641727467526
 30
0.0
 10
-127.343038254963
 20
50.14014241437256
 30
0.0
 10
-127.343038254963
 20
50.14014241437256
 30
0.0
 10
-127.343038254963
 20
50.14014241437256
 30
0.0
 10
-127.343095490825
 20
50.14014241437256
 30
0.0
 10
-127.343095490825
 20
50.14014241437256
 30
0.0
 10
-127.343095490825
 20
50.14014241437256
 30
0.0
 10
-127.3455566328696
 20
50.14523640604261
 30
0.0
 10
-127.3455566328696
 20
50.14523640604261
 30
0.0
 10
-127.3455566328696
 20
50.14523640604261
 30
0.0
 10
-132.0346618204156
 20
59.93331278519372
 30
0.0
 10
-132.0346618204156
 20
59.93331278519372
 30
0.0
 10
-132.0346618204156
 20
59.93331278519372
 30
0.0
 10
-118.1039110232615
 20
53.25972580843781
 30
0.0
 10
-118.1039110232615
 20
53.25972580843781
 30
0.0
 10
-118.1039110232615
 20
53.25972580843781
 30
0.0
 10
-118.1026518343063
 20
53.25915344982249
 30
0.0
 10
-118.1026518343063
 20
53.25915344982249
 30
0.0
 10
-118.1026518343063
 20
53.25915344982249
 30
0.0
 10
-117.4329922549983
 20
52.93828921036691
 30
0.0
 10
-117.4329922549983
 20
52.93828921036691
 30
0.0
 10
-117.4329922549983
 20
52.93828921036691
 30
0.0
 10
-117.3916679630136
 20
53.47436028898258
 30
0.0
 10
-117.3916679630136
 20
53.47436028898258
 30
0.0
 10
-117.3916679630136
 20
53.47436028898258
 30
0.0
 10
-117.3917251988724
 20
53.47436028898258
 30
0.0
 10
-117.3917251988724
 20
53.47436028898258
 30
0.0
 10
-117.3917251988724
 20
53.47436028898258
 30
0.0
 10
-117.3913817837044
 20
53.47882468618176
 30
0.0
 10
-117.3913817837044
 20
53.47882468618176
 30
0.0
 10
-117.3913817837044
 20
53.47882468618176
 30
0.0
 10
-117.3913245478417
 20
53.47882468618176
 30
0.0
 10
-117.3913245478417
 20
53.47882468618176
 30
0.0
 10
-117.3913245478417
 20
53.47882468618176
 30
0.0
 10
-116.1907451174572
 20
69.08114881783617
 30
0.0
 10
-116.1907451174572
 20
69.08114881783617
 30
0.0
 10
-116.1907451174572
 20
69.08114881783617
 30
0.0
 10
-107.3652042207993
 20
56.19272029408029
 30
0.0
 10
-107.3652042207993
 20
56.19272029408029
 30
0.0
 10
-107.3652042207993
 20
56.19272029408029
 30
0.0
 10
-107.3638305601259
 20
56.19071703892895
 30
0.0
 10
-107.3638305601259
 20
56.19071703892895
 30
0.0
 10
-107.3638305601259
 20
56.19071703892895
 30
0.0
 10
-107.0429663206703
 20
55.72218427685713
 30
0.0
 10
-107.0429663206703
 20
55.72218427685713
 30
0.0
 10
-107.0429663206703
 20
55.72218427685713
 30
0.0
 10
-106.5962404218282
 20
56.37455862599782
 30
0.0
 10
-106.5962404218282
 20
56.37455862599782
 30
0.0
 10
-106.5962404218282
 20
56.37455862599782
 30
0.0
 10
-106.5961831859656
 20
56.37455862599782
 30
0.0
 10
-106.5961831859656
 20
56.37455862599782
 30
0.0
 10
-106.5961831859656
 20
56.37455862599782
 30
0.0
 10
-97.89541646733717
 20
69.08114881783617
 30
0.0
 10
-97.89541646733717
 20
69.08114881783617
 30
0.0
 10
-97.89541646733717
 20
69.08114881783617
 30
0.0
 10
-97.06561094760907
 20
58.30804326262928
 30
0.0
 10
-97.06561094760907
 20
58.30804326262928
 30
0.0
 10
-97.06561094760907
 20
58.30804326262928
 30
0.0
 10
-97.06549647588767
 20
58.30764261159863
 30
0.0
 10
-97.06549647588767
 20
58.30764261159863
 30
0.0
 10
-97.06549647588767
 20
58.30764261159863
 30
0.0
 10
-96.79877736139577
 20
54.84338485970447
 30
0.0
 10
-96.79877736139577
 20
54.84338485970447
 30
0.0
 10
-96.79877736139577
 20
54.84338485970447
 30
0.0
 10
-96.79831947450184
 20
54.83766127355712
 30
0.0
 10
-96.79831947450184
 20
54.83766127355712
 30
0.0
 10
-96.79831947450184
 20
54.83766127355712
 30
0.0
 10
-96.65202461256287
 20
52.93828921036691
 30
0.0
 10
-96.65202461256287
 20
52.93828921036691
 30
0.0
 10
-96.65202461256287
 20
52.93828921036691
 30
0.0
 10
-93.23779100360189
 20
54.57403289558391
 30
0.0
 10
-93.23779100360189
 20
54.57403289558391
 30
0.0
 10
-93.23779100360189
 20
54.57403289558391
 30
0.0
 10
-90.96466876495533
 20
55.66305963195187
 30
0.0
 10
-90.96466876495533
 20
55.66305963195187
 30
0.0
 10
-90.96466876495533
 20
55.66305963195187
 30
0.0
 10
-90.9646115290927
 20
55.66305963195187
 30
0.0
 10
-90.9646115290927
 20
55.66305963195187
 30
0.0
 10
-90.9646115290927
 20
55.66305963195187
 30
0.0
 10
-89.03690771447058
 20
56.58661749277979
 30
0.0
 10
-89.03690771447058
 20
56.58661749277979
 30
0.0
 10
-89.03690771447058
 20
56.58661749277979
 30
0.0
 10
-88.76870046758064
 20
56.71511200179946
 30
0.0
 10
-88.76870046758064
 20
56.71511200179946
 30
0.0
 10
-88.76870046758064
 20
56.71511200179946
 30
0.0
 10
-82.05149976437239
 20
59.93331278519372
 30
0.0
 10
-82.05149976437239
 20
59.93331278519372
 30
0.0
 10
-82.05149976437239
 20
59.93331278519372
 30
0.0
 10
-83.79055417956166
 20
56.302555912258
 30
0.0
 10
-83.79055417956166
 20
56.302555912258
 30
0.0
 10
-83.76434015500247
 20
56.30410128051543
 30
0.0
 10
-83.73778271527461
 20
56.30627624325463
 30
0.0
 10
-83.71156869071928
 20
56.30776437565329
 30
0.0
 10
-83.73778271527461
 20
56.30627624325463
 30
0.0
 10
-83.76456909844911
 20
56.303872337072
 30
0.0
 10
-83.79066865128306
 20
56.30238420467398
 30
0.0
 10
-83.79066865128306
 20
56.30238420467398
 30
0.0
 10
-89.04537862196859
 20
45.33187216322374
 30
0.0
 10
-89.04537862196859
 20
45.33187216322374
 30
0.0
 10
-89.04537862196859
 20
45.33187216322374
 30
0.0
 10
-72.9039499110392
 20
44.08882372361749
 30
0.0
 10
-72.9039499110392
 20
44.08882372361749
 30
0.0
 10
-72.9039499110392
 20
44.08882372361749
 30
0.0
 10
-86.26142631961959
 20
34.94161728544913
 30
0.0
 10
-86.26142631961959
 20
34.94161728544913
 30
0.0
 10
-86.26142631961959
 20
34.94161728544913
 30
0.0
 10
-82.30803089552422
 20
32.23430380162316
 30
0.0
 10
-82.30803089552422
 20
32.23430380162316
 30
0.0
 10
-82.30803089552422
 20
32.23430380162316
 30
0.0
 10
-42.4416507711046
 20
44.2985931559395
 30
0.0
 10
-42.4416507711046
 20
44.2985931559395
 30
0.0
 10
-42.57237747872546
 20
44.47573814721764
 30
0.0
 10
-42.68982546648045
 20
44.66020932876381
 30
0.0
 10
-42.82742047747862
 20
44.83351951732456
 30
0.0
 10
-42.68913863614375
 20
44.65923631911784
 30
0.0
 10
-42.55703826784947
 20
44.48151896922825
 30
0.0
 10
-42.42562472989257
 20
44.30340096830351
 30
0.0
 10
-42.22621498850108
 20
44.03313323039961
 30
0.0
 10
-42.03436038082105
 20
43.75874451046843
 30
0.0
 10
-41.85086220891764
 20
43.47966244989463
 30
0.0
 10
-41.79511447983713
 20
43.39489613904165
 30
0.0
 10
-41.74016805281858
 20
43.30967194129923
 30
0.0
 10
-41.68590845613672
 20
43.22404709252616
 30
0.0
 10
-41.39022799573174
 20
42.75763205733414
 30
0.0
 10
-41.1142366716805
 20
42.2805711519017
 30
0.0
 10
-40.86365807012266
 20
41.79011705488906
 30
0.0
 10
-40.8258824015506
 20
41.7161683218573
 30
0.0
 10
-40.79165535638348
 20
41.64033080539687
 30
0.0
 10
-40.75479546159092
 20
41.56580971374981
 30
0.0
 10
-40.49906563250105
 20
41.0474245163327
 30
0.0
 10
-40.26165127908702
 20
40.51953816590962
 30
0.0
 10
-40.05709031015645
 20
39.97488170807454
 30
0.0
 10
-39.61030717545172
 20
38.7852915630882
 30
0.0
 10
-39.29802831521938
 20
37.56130266535392
 30
0.0
 10
-39.11487355848786
 20
36.30812347826698
 30
0.0
 10
-38.84037036683464
 20
34.42832607970527
 30
0.0
 10
-38.85651087977256
 20
32.4828791480226
 30
0.0
 10
-39.14635328230111
 20
30.48941132856451
 30
0.0
 10
-39.26941038448205
 20
29.64254952211516
 30
0.0
 10
-39.45966238803818
 20
28.784412250959
 30
0.0
 10
-39.68013492645618
 20
27.92152440329697
 30
0.0
 10
-40.32483967016016
 20
25.3990827520446
 30
0.0
 10
-41.36286925394641
 20
22.81665791796303
 30
0.0
 10
-42.7960552253874
 20
20.20263888834297
 30
0.0
 10
-43.08452396724255
 20
19.67641237790578
 30
0.0
 10
-43.38844639169504
 20
19.14898391437213
 30
0.0
 10
-43.70725014013666
 20
18.6206969129216
 30
0.0
 10
-44.6640048006225
 20
17.03577867269587
 30
0.0
 10
-45.75595056592514
 20
15.44279017600663
 30
0.0
 10
-46.97610466093754
 20
13.84905761311807
 30
0.0
 10
-47.7708818334404
 20
12.81079908588518
 30
0.0
 10
-48.63834855001979
 20
11.77294120968037
 30
0.0
 10
-49.53992784004106
 20
10.73617081484613
 30
0.0
 10
-49.65909290364135
 20
10.59914816246327
 30
0.0
 10
-49.77722772173304
 20
10.46218274594624
 30
0.0
 10
-49.89833880462526
 20
10.32521732942536
 30
0.0
 10
-54.60621735473715
 20
15.04986598695245
 30
0.0
 10
-60.04545574283531
 20
18.62527578183896
 30
0.0
 10
-66.15172086060893
 20
20.98734254922392
 30
0.0
 10
-69.62479293516913
 20
22.33021033125244
 30
0.0
 10
-74.12811051635751
 20
23.76402589716815
 30
0.0
 10
-79.60397985579774
 20
25.27860126363352
 30
0.0
 10
-79.60397985579774
 20
25.27860126363352
 30
0.0
 10
-89.04652333919921
 20
24.55136240767773
 30
0.0
 10
-89.04652333919921
 20
24.55136240767773
 30
0.0
 10
-89.04652333919921
 20
24.55136240767773
 30
0.0
 10
-82.05149976437239
 20
9.950150729150546
 30
0.0
 10
-82.05149976437239
 20
9.950150729150546
 30
0.0
 10
-82.05149976437239
 20
9.950150729150546
 30
0.0
 10
-96.65202461256287
 20
16.94465918122467
 30
0.0
 10
-96.65202461256287
 20
16.94465918122467
 30
0.0
 10
-96.65202461256287
 20
16.94465918122467
 30
0.0
 10
-97.89541646733717
 20
0.8026008758141538
 30
0.0
 10
-97.89541646733717
 20
0.8026008758141538
 30
0.0
 10
-97.89541646733717
 20
0.8026008758141538
 30
0.0
 10
-107.0429663206703
 20
14.16076411473124
 30
0.0
 10
-107.0429663206703
 20
14.16076411473124
 30
0.0
 10
-107.0429663206703
 20
14.16076411473124
 30
0.0
 10
-116.1907451174572
 20
0.8026008758141538
 30
0.0
 10
-116.1907451174572
 20
0.8026008758141538
 30
0.0
 10
-116.1907451174572
 20
0.8026008758141538
 30
0.0
 10
-117.4329922549983
 20
16.94465918122467
 30
0.0
 10
-117.4329922549983
 20
16.94465918122467
 30
0.0
 10
-117.4329922549983
 20
16.94465918122467
 30
0.0
 10
-132.0346618204156
 20
9.950150729150546
 30
0.0
 10
-132.0346618204156
 20
9.950150729150546
 30
0.0
 10
-132.0346618204156
 20
9.950150729150546
 30
0.0
 10
-125.0396382455926
 20
24.55136240767773
 30
0.0
 10
-125.0396382455926
 20
24.55136240767773
 30
0.0
 10
-125.0396382455926
 20
24.55136240767773
 30
0.0
 10
-141.1824406171986
 20
25.79463979072742
 30
0.0
 10
-141.1824406171986
 20
25.79463979072742
 30
0.0
 10
-141.1824406171986
 20
25.79463979072742
 30
0.0
 10
-127.8238194913882
 20
34.94161728544913
 30
0.0
 10
-127.8238194913882
 20
34.94161728544913
 30
0.0
 10
-127.8238194913882
 20
34.94161728544913
 30
0.0
 10
-138.1263890293751
 20
41.99616615621507
 30
0.0
 10
-138.1263890293751
 20
41.99616615621507
 30
0.0
  0
SPLINE
  5
7C
330
70
100
AcDbEntity
  8
Layer 1
100
AcDbSpline
210
0.0
220
0.0
230
1.0
 70
     9
 71
     3
 72
   323
 73
   319
 74
     0
 42
0.0000000001
 43
0.0000000001
 40
0.0
 40
0.0
 40
0.0
 40
0.0
 40
1.0
 40
1.0
 40
1.0
 40
2.0
 40
2.0
 40
2.0
 40
3.0
 40
3.0
 40
3.0
 40
4.0
 40
4.0
 40
4.0
 40
5.0
 40
5.0
 40
5.0
 40
6.0
 40
6.0
 40
6.0
 40
7.0
 40
7.0
 40
7.0
 40
8.0
 40
8.0
 40
8.0
 40
9.0
 40
9.0
 40
9.0
 40
10.0
 40
10.0
 40
10.0
 40
11.0
 40
11.0
 40
11.0
 40
12.0
 40
12.0
 40
12.0
 40
13.0
 40
13.0
 40
13.0
 40
14.0
 40
14.0
 40
14.0
 40
15.0
 40
15.0
 40
15.0
 40
16.0
 40
16.0
 40
16.0
 40
17.0
 40
17.0
 40
17.0
 40
18.0
 40
18.0
 40
18.0
 40
19.0
 40
19.0
 40
19.0
 40
20.0
 40
20.0
 40
20.0
 40
21.0
 40
21.0
 40
21.0
 40
22.0
 40
22.0
 40
22.0
 40
23.0
 40
23.0
 40
23.0
 40
24.0
 40
24.0
 40
24.0
 40
25.0
 40
25.0
 40
25.0
 40
26.0
 40
26.0
 40
26.0
 40
27.0
 40
27.0
 40
27.0
 40
28.0
 40
28.0
 40
28.0
 40
29.0
 40
29.0
 40
29.0
 40
30.0
 40
30.0
 40
30.0
 40
31.0
 40
31.0
 40
31.0
 40
32.0
 40
32.0
 40
32.0
 40
33.0
 40
33.0
 40
33.0
 40
34.0
 40
34.0
 40
34.0
 40
35.0
 40
35.0
 40
35.0
 40
36.0
 40
36.0
 40
36.0
 40
37.0
 40
37.0
 40
37.0
 40
38.0
 40
38.0
 40
38.0
 40
39.0
 40
39.0
 40
39.0
 40
40.0
 40
40.0
 40
40.0
 40
41.0
 40
41.0
 40
41.0
 40
42.0
 40
42.0
 40
42.0
 40
43.0
 40
43.0
 40
43.0
 40
44.0
 40
44.0
 40
44.0
 40
45.0
 40
45.0
 40
45.0
 40
46.0
 40
46.0
 40
46.0
 40
47.0
 40
47.0
 40
47.0
 40
48.0
 40
48.0
 40
48.0
 40
49.0
 40
49.0
 40
49.0
 40
50.0
 40
50.0
 40
50.0
 40
51.0
 40
51.0
 40
51.0
 40
52.0
 40
52.0
 40
52.0
 40
53.0
 40
53.0
 40
53.0
 40
54.0
 40
54.0
 40
54.0
 40
55.0
 40
55.0
 40
55.0
 40
56.0
 40
56.0
 40
56.0
 40
57.0
 40
57.0
 40
57.0
 40
58.0
 40
58.0
 40
58.0
 40
59.0
 40
59.0
 40
59.0
 40
60.0
 40
60.0
 40
60.0
 40
61.0
 40
61.0
 40
61.0
 40
62.0
 40
62.0
 40
62.0
 40
63.0
 40
63.0
 40
63.0
 40
64.0
 40
64.0
 40
64.0
 40
65.0
 40
65.0
 40
65.0
 40
66.0
 40
66.0
 40
66.0
 40
67.0
 40
67.0
 40
67.0
 40
68.0
 40
68.0
 40
68.0
 40
69.0
 40
69.0
 40
69.0
 40
70.0
 40
70.0
 40
70.0
 40
71.0
 40
71.0
 40
71.0
 40
72.0
 40
72.0
 40
72.0
 40
73.0
 40
73.0
 40
73.0
 40
74.0
 40
74.0
 40
74.0
 40
75.0
 40
75.0
 40
75.0
 40
76.0
 40
76.0
 40
76.0
 40
77.0
 40
77.0
 40
77.0
 40
78.0
 40
78.0
 40
78.0
 40
79.0
 40
79.0
 40
79.0
 40
80.0
 40
80.0
 40
80.0
 40
81.0
 40
81.0
 40
81.0
 40
82.0
 40
82.0
 40
82.0
 40
83.0
 40
83.0
 40
83.0
 40
84.0
 40
84.0
 40
84.0
 40
85.0
 40
85.0
 40
85.0
 40
86.0
 40
86.0
 40
86.0
 40
87.0
 40
87.0
 40
87.0
 40
88.0
 40
88.0
 40
88.0
 40
89.0
 40
89.0
 40
89.0
 40
90.0
 40
90.0
 40
90.0
 40
91.0
 40
91.0
 40
91.0
 40
92.0
 40
92.0
 40
92.0
 40
93.0
 40
93.0
 40
93.0
 40
94.0
 40
94.0
 40
94.0
 40
95.0
 40
95.0
 40
95.0
 40
96.0
 40
96.0
 40
96.0
 40
97.0
 40
97.0
 40
97.0
 40
98.0
 40
98.0
 40
98.0
 40
99.0
 40
99.0
 40
99.0
 40
100.0
 40
100.0
 40
100.0
 40
101.0
 40
101.0
 40
101.0
 40
102.0
 40
102.0
 40
102.0
 40
103.0
 40
103.0
 40
103.0
 40
104.0
 40
104.0
 40
104.0
 40
105.0
 40
105.0
 40
105.0
 40
106.0
 40
106.0
 40
106.0
 40
106.0
 10
-23.12866850388938
 20
29.39861028049249
 30
0.0
 10
-23.13828412861737
 20
29.81271173829458
 30
0.0
 10
-23.15705749118329
 20
30.22498164852999
 30
0.0
 10
-23.18544647847462
 20
30.63547724706069
 30
0.0
 10
-23.22780101597109
 20
31.25122064485225
 30
0.0
 10
-23.2914472939343
 20
31.86278582476032
 30
0.0
 10
-23.3764997840927
 20
32.46994384333247
 30
0.0
 10
-23.63165725456791
 20
34.29136066318439
 30
0.0
 10
-24.08038640856458
 20
36.07259790827906
 30
0.0
 10
-24.73058579496991
 20
37.80432613319709
 30
0.0
 10
-24.89107515055807
 20
38.23199249017045
 30
0.0
 10
-25.0655300563456
 20
38.65238989273584
 30
0.0
 10
-25.24845586963369
 20
39.06838013396403
 30
0.0
 10
-25.30683644834348
 20
39.20093838915157
 30
0.0
 10
-25.37013931113801
 20
39.33074932298523
 30
0.0
 10
-25.43069485258252
 20
39.46210562507952
 30
0.0
 10
-25.56107814503149
 20
39.74507972423396
 30
0.0
 10
-25.69455217400237
 20
40.0263367475431
 30
0.0
 10
-25.83523792151924
 20
40.30375896813422
 30
0.0
 10
-25.91090373039244
 20
40.4529156231491
 30
0.0
 10
-25.98943133234476
 20
40.6005269099027
 30
0.0
 10
-26.06807340601527
 20
40.74808096079755
 30
0.0
 10
-26.20624077562939
 20
41.0076455926061
 30
0.0
 10
-26.34898701415638
 20
41.26474908236938
 30
0.0
 10
-26.49619764987934
 20
41.51939143009188
 30
0.0
 10
-26.57976200764229
 20
41.66362580101753
 30
0.0
 10
-26.6630974219554
 20
41.80780293608441
 30
0.0
 10
-26.74940910106581
 20
41.95043470288999
 30
0.0
 10
-26.91081423043797
 20
42.21703934565988
 30
0.0
 10
-27.07885871974081
 20
42.47992365743697
 30
0.0
 10
-27.25022288900898
 20
42.74091918578155
 30
0.0
 10
-27.32932284957276
 20
42.86151514591787
 30
0.0
 10
-27.40578996050855
 20
42.98365647431547
 30
0.0
 10
-27.4870648838109
 20
43.10305048136239
 30
0.0
 10
-27.73730007019687
 20
43.47084812722474
 30
0.0
 10
-27.99566274891216
 20
43.83406690417294
 30
0.0
 10
-28.26570154337263
 20
44.19053184946586
 30
0.0
 10
-28.27165407296725
 20
44.19831592662652
 30
0.0
 10
-28.27691977222452
 20
44.20644341895651
 30
0.0
 10
-28.28287230181914
 20
44.21422749611781
 30
0.0
 10
-28.56000834310099
 20
44.5791633489113
 30
0.0
 10
-28.84962180218611
 20
44.9368874831556
 30
0.0
 10
-29.14713381015394
 20
45.28986104089852
 30
0.0
 10
-29.23848224507498
 20
45.39826576254084
 30
0.0
 10
-29.33452402063864
 20
45.50392316282862
 30
0.0
 10
-29.42781847484777
 20
45.61124040310295
 30
0.0
 10
-29.63924774715309
 20
45.85437834266751
 30
0.0
 10
-29.85365328425509
 20
46.09579920638743
 30
0.0
 10
-30.0748126530098
 20
46.33309908807942
 30
0.0
 10
-30.18951331941412
 20
46.45621342612298
 30
0.0
 10
-30.30673236372248
 20
46.57772516004265
 30
0.0
 10
-30.42395140803404
 20
46.69923689396231
 30
0.0
 10
-30.63686881273417
 20
46.91988113996433
 30
0.0
 10
-30.85367825601816
 20
47.13806424392558
 30
0.0
 10
-31.07495209649747
 20
47.3535000265323
 30
0.0
 10
-31.19686448144843
 20
47.47220720323932
 30
0.0
 10
-31.31889133812463
 20
47.5907999082243
 30
0.0
 10
-31.44332210097898
 20
47.70796171667388
 30
0.0
 10
-31.680965397839
 20
47.93169669919461
 30
0.0
 10
-31.92479016774028
 20
48.15165411485992
 30
0.0
 10
-32.17147673071747
 20
48.36960827537389
 30
0.0
 10
-32.28411690610847
 20
48.46902696676166
 30
0.0
 10
-32.39423870359608
 20
48.5699910264107
 30
0.0
 10
-32.50871042655376
 20
48.66815052885094
 30
0.0
 10
-32.86208463532734
 20
48.97150059468813
 30
0.0
 10
-33.22278503436894
 20
49.27021455574919
 30
0.0
 10
-33.59401683192188
 20
49.56211744929107
 30
0.0
 10
-33.60351798492847
 20
49.56955811128435
 30
0.0
 10
-33.61244677931976
 20
49.57745666017025
 30
0.0
 10
-33.62183346060112
 20
49.58489732216353
 30
0.0
 10
-34.0057716194046
 20
49.88612966112799
 30
0.0
 10
-34.40081353533472
 20
50.17997857396243
 30
0.0
 10
-34.80318164153288
 20
50.46896243857027
 30
0.0
 10
-34.92154540307121
 20
50.5539576928654
 30
0.0
 10
-35.04391567491545
 20
50.63626286167377
 30
0.0
 10
-35.16376756885244
 20
50.72017063460155
 30
0.0
 10
-35.45166395209228
 20
50.92158363114759
 30
0.0
 10
-35.74242212840802
 20
51.1210506084049
 30
0.0
 10
-36.03924730603978
 20
51.31633936776845
 30
0.0
 10
-36.18760265899271
 20
51.41398374745536
 30
0.0
 10
-36.33847638985289
 20
51.50985381543115
 30
0.0
 10
-36.48900670554118
 20
51.60595282685357
 30
0.0
 10
-36.76980584196027
 20
51.7851010732869
 30
0.0
 10
-37.05415360178875
 20
51.96161647008775
 30
0.0
 10
-37.34262234364389
 20
52.13538454553792
 30
0.0
 10
-37.49956307581944
 20
52.22993818870293
 30
0.0
 10
-37.65661827972151
 20
52.32432012428006
 30
0.0
 10
-37.81573397462921
 20
52.41732839918377
 30
0.0
 10
-38.1217168900989
 20
52.59607599458646
 30
0.0
 10
-38.43319444826928
 20
52.77087431554201
 30
0.0
 10
-38.74741932779033
 20
52.94372661720884
 30
0.0
 10
-38.88993662287389
 20
53.02213974743591
 30
0.0
 10
-39.03039342694412
 20
53.10204101006228
 30
0.0
 10
-39.17462779787362
 20
53.17925218719675
 30
0.0
 10
-39.61728995055107
 20
53.41620865372007
 30
0.0
 10
-40.06647699144166
 20
53.64830007202062
 30
0.0
 10
-40.52447835499829
 20
53.87380936624926
 30
0.0
 10
-40.54107675482563
 20
53.88193685857603
 30
0.0
 10
-40.55675938087349
 20
53.89063670952004
 30
0.0
 10
-40.57335778070468
 20
53.89870696599125
 30
0.0
 10
-41.05276535645265
 20
54.13400359253189
 30
0.0
 10
-41.54213197209729
 20
54.36180232122112
 30
0.0
 10
-42.03802347595892
 20
54.58450705823647
 30
0.0
 10
-42.18111312965394
 20
54.64878293067762
 30
0.0
 10
-42.32786587848747
 20
54.71025424590546
 30
0.0
 10
-42.47232919285975
 20
54.77349987283801
 30
0.0
 10
-42.7031041863463
 20
54.87446393249027
 30
0.0
 10
-42.93742780324098
 20
54.97273790664806
 30
0.0
 10
-43.17175142013566
 20
55.07106911666846
 30
0.0
 10
-43.29767031539251
 20
55.1239550526769
 30
0.0
 10
-43.42107083274149
 20
55.17907318728333
 30
0.0
 10
-43.54813444522512
 20
55.2312150570886
 30
0.0
 10
-43.42450498442886
 20
55.18044684795674
 30
0.0
 10
-43.29881503261929
 20
55.13128124294428
 30
0.0
 10
-43.17610134561023
 20
55.07976896761632
 30
0.0
 10
-55.18864948115133
 20
78.41362773961265
 30
0.0
 10
-77.17145574293039
 20
90.24033103293096
 30
0.0
 10
-108.6470585744901
 20
90.24033103293096
 30
0.0
 10
-131.1645622542107
 20
90.24033103293096
 30
0.0
 10
-148.7485636178624
 20
84.85123125949121
 30
0.0
 10
-160.9100394649724
 20
74.22155877315187
 30
0.0
 10
-173.1880475260541
 20
63.48851832097764
 30
0.0
 10
-179.4143934812158
 20
49.84177186848017
 30
0.0
 10
-179.4143934812158
 20
33.65993463934241
 30
0.0
 10
-179.4143934812158
 20
29.24144060486902
 30
0.0
 10
-178.8704238537136
 20
25.00913482778773
 30
0.0
 10
-177.812247246688
 20
20.96730999770599
 30
0.0
 10
-178.3172964883805
 20
20.51777954164737
 30
0.0
 10
-178.8144471811903
 20
20.06664648146806
 30
0.0
 10
-179.3048440423435
 20
19.61413976061598
 30
0.0
 10
-181.286464038475
 20
21.00319688285579
 30
0.0
 10
-183.6948346178003
 20
21.82487491025133
 30
0.0
 10
-186.2986084282145
 20
21.82487491025133
 30
0.0
 10
-193.0406494953014
 20
21.82487491025133
 30
0.0
 10
-198.506216379677
 20
16.35930802587579
 30
0.0
 10
-198.506216379677
 20
9.617209722926201
 30
0.0
 10
-198.506216379677
 20
6.192959838209769
 30
0.0
 10
-197.0922616576958
 20
3.102509497638405
 30
0.0
 10
-194.8213716176434
 20
0.8856501108212103
 30
0.0
 10
-194.8213716176434
 20
0.8856501108212103
 30
0.0
 10
-194.8213716176434
 20
0.8855928749585883
 30
0.0
 10
-194.8213716176434
 20
0.8855928749585883
 30
0.0
 10
-195.2195042700929
 20
0.2007085564999106
 30
0.0
 10
-195.6045871461263
 20
-0.4838323467900937
 30
0.0
 10
-195.9647151865526
 20
-1.16762918388462
 30
0.0
 10
-196.4311874576105
 20
-2.053067960968614
 30
0.0
 10
-196.865493174512
 20
-2.937362020821984
 30
0.0
 10
-197.2669455069294
 20
-3.819481117939995
 30
0.0
 10
-197.4677289089981
 20
-4.260540666500605
 30
0.0
 10
-197.6602703470148
 20
-4.701085092305317
 30
0.0
 10
-197.844569820977
 20
-5.140999923635945
 30
0.0
 10
-198.39723929942
 20
-6.460801653486602
 30
0.0
 10
-198.8751587427732
 20
-7.775051504770728
 30
0.0
 10
-199.2759242448506
 20
-9.080944920281446
 30
0.0
 10
-199.5431012462358
 20
-9.951559609242158
 30
0.0
 10
-199.7760512024577
 20
-10.81851120306885
 30
0.0
 10
-199.9738583397285
 20
-11.68088392797755
 30
0.0
 10
-200.2706835173597
 20
-12.97452886913228
 30
0.0
 10
-200.4884087344276
 20
-14.25798582694307
 30
0.0
 10
-200.6249734999166
 20
-15.52862195178192
 30
0.0
 10
-200.6704187739285
 20
-15.95216732672799
 30
0.0
 10
-200.706935253553
 20
-16.37428180513803
 30
0.0
 10
-200.7342939953422
 20
-16.7949081511462
 30
0.0
 10
-200.7890114789173
 20
-17.636046371445
 30
0.0
 10
-200.807098011144
 20
-18.47111759043036
 30
0.0
 10
-200.7879812334094
 20
-19.29920603430995
 30
0.0
 10
-200.7784800804028
 20
-19.71330749211268
 30
0.0
 10
-200.7594777743896
 20
-20.12557740234809
 30
0.0
 10
-200.7313177305456
 20
-20.53607300087879
 30
0.0
 10
-200.6463797121124
 20
-21.7675025606025
 30
0.0
 10
-200.4769615621323
 20
-22.98250542808609
 30
0.0
 10
-200.2202014875339
 20
-24.17821981024721
 30
0.0
 10
-199.9634414129386
 20
-25.37399142827096
 30
0.0
 10
-199.619568357171
 20
-26.5504173251167
 30
0.0
 10
-199.1860639423282
 20
-27.70492188701519
 30
0.0
 10
-199.0253456432934
 20
-28.13293165915659
 30
0.0
 10
-198.8507762657845
 20
-28.55372971275262
 30
0.0
 10
-198.6676215090491
 20
-28.97000613329072
 30
0.0
 10
-198.6099277606799
 20
-29.10113349193838
 30
0.0
 10
-198.5473117282182
 20
-29.229513529236
 30
0.0
 10
-198.4874430171104
 20
-29.35949617065688
 30
0.0
 10
-198.3564873660468
 20
-29.64407287393202
 30
0.0
 10
-198.2220975632958
 20
-29.92687526550179
 30
0.0
 10
-198.0806105137202
 20
-30.20584285435034
 30
0.0
 10
-198.0055170634591
 20
-30.35379755627262
 30
0.0
 10
-197.9276762918428
 20
-30.50020688993747
 30
0.0
 10
-197.849721048509
 20
-30.64661622360233
 30
0.0
 10
-197.710981320284
 20
-30.90721110091497
 30
0.0
 10
-197.5677771948632
 20
-31.1654020720501
 30
0.0
 10
-197.4198797288003
 20
-31.42101742941473
 30
0.0
 10
-197.3366587862124
 20
-31.56485114931293
 30
0.0
 10
-197.2534378436175
 20
-31.70862763334915
 30
0.0
 10
-197.1673551079537
 20
-31.85085874912345
 30
0.0
 10
-197.0057210351356
 20
-32.11786404292463
 30
0.0
 10
-196.8374476023893
 20
-32.38109176987039
 30
0.0
 10
-196.6658544896739
 20
-32.64248794924498
 30
0.0
 10
-196.5869834725567
 20
-32.76256878662926
 30
0.0
 10
-196.5109742485116
 20
-32.88413775641154
 30
0.0
 10
-196.4300427403805
 20
-33.00301664070257
 30
0.0
 10
-196.1778615347026
 20
-33.37361884378142
 30
0.0
 10
-195.9177817801388
 20
-33.73969941380169
 30
0.0
 10
-195.6454535512209
 20
-34.09873997286062
 30
0.0
 10
-195.6416759843655
 20
-34.10377672867125
 30
0.0
 10
-195.6381273609529
 20
-34.10904242792917
 30
0.0
 10
-195.6343497940943
 20
-34.11407918373595
 30
0.0
 10
-195.3566413941971
 20
-34.47981633858819
 30
0.0
 10
-195.0663411047753
 20
-34.83822730317303
 30
0.0
 10
-194.7682567381922
 20
-35.19194492711528
 30
0.0
 10
-194.6785109073912
 20
-35.29828915774299
 30
0.0
 10
-194.5844151511201
 20
-35.40194330288393
 30
0.0
 10
-194.4929522444777
 20
-35.50720005214107
 30
0.0
 10
-194.2796914246056
 20
-35.752512954441
 30
0.0
 10
-194.0633398682117
 20
-35.99599430917424
 30
0.0
 10
-193.8403489518903
 20
-36.23541191774218
 30
0.0
 10
-193.726793002716
 20
-36.35732430269314
 30
0.0
 10
-193.6104897321871
 20
-36.4775196117988
 30
0.0
 10
-193.4944154051094
 20
-36.59794386435047
 30
0.0
 10
-193.2804677549007
 20
-36.81979006344573
 30
0.0
 10
-193.0623991226615
 20
-37.03923235635836
 30
0.0
 10
-192.8398660932301
 20
-37.25587009205833
 30
0.0
 10
-192.7189839537878
 20
-37.37343255153472
 30
0.0
 10
-192.5983307577888
 20
-37.49088053928971
 30
0.0
 10
-192.4751591838865
 20
-37.60689763050868
 30
0.0
 10
-192.2353409242872
 20
-37.83269310404337
 30
0.0
 10
-191.9893411916506
 20
-38.05459653899676
 30
0.0
 10
-191.7403651942167
 20
-38.2744967188033
 30
0.0
 10
-191.6298999815611
 20
-38.37196939090299
 30
0.0
 10
-191.5218386750867
 20
-38.4709874312601
 30
0.0
 10
-191.4096563865897
 20
-38.56731538612917
 30
0.0
 10
-191.0511309502834
 20
-38.8751870850243
 30
0.0
 10
-190.6852793237066
 20
-39.17830820742256
 30
0.0
 10
-190.3084384117271
 20
-39.47438931885434
 30
0.0
 10
-190.3043174296998
 20
-39.47765176295707
 30
0.0
 10
-190.3004253911191
 20
-39.48108591464829
 30
0.0
 10
-190.2963044090918
 20
-39.48434835875101
 30
0.0
 10
-189.9114504765089
 20
-39.78638199977742
 30
0.0
 10
-189.5153783150695
 20
-40.08097497881119
 30
0.0
 10
-189.1119799633666
 20
-40.37064567375572
 30
0.0
 10
-188.995562221117
 20
-40.45421003151547
 30
0.0
 10
-188.8752524402861
 20
-40.53508430378716
 30
0.0
 10
-188.757346565641
 20
-40.61761841603832
 30
0.0
 10
-188.4675041631093
 20
-40.8204623091236
 30
0.0
 10
-188.1746854957834
 20
-41.02130294705433
 30
0.0
 10
-187.8759142988597
 20
-41.21790813123573
 30
0.0
 10
-187.7290470783054
 20
-41.31446502955142
 30
0.0
 10
-187.5798904232905
 20
-41.40941932374388
 30
0.0
 10
-187.4308482399971
 20
-41.50448808966156
 30
0.0
 10
-187.1474162539525
 20
-41.68535341193633
 30
0.0
 10
-186.8603211727708
 20
-41.86358588458246
 30
0.0
 10
-186.5691051095657
 20
-42.03901380001595
 30
0.0
 10
-186.4150261704647
 20
-42.13173589561363
 30
0.0
 10
-186.2609472313606
 20
-42.22440075534547
 30
0.0
 10
-186.1048078012457
 20
-42.31563471854513
 30
0.0
 10
-185.7947039037526
 20
-42.49684345598857
 30
0.0
 10
-185.4789908918329
 20
-42.67410291898874
 30
0.0
 10
-185.1604160868379
 20
-42.84924465511617
 30
0.0
 10
-185.0219053020596
 20
-42.92542558674528
 30
0.0
 10
-184.8852260648454
 20
-43.00315188663243
 30
0.0
 10
-184.7451126759432
 20
-43.07818810103156
 30
0.0
 10
-184.2972992957331
 20
-43.31800636063078
 30
0.0
 10
-183.8427320838638
 20
-43.55301680786602
 30
0.0
 10
-183.3790071341592
 20
-43.78110171586131
 30
0.0
 10
-183.3673310184179
 20
-43.78682530200864
 30
0.0
 10
-183.3563417330127
 20
-43.79294953918343
 30
0.0
 10
-183.3446656172707
 20
-43.79867312533462
 30
0.0
 10
-183.2929816343549
 20
-43.82397137610662
 30
0.0
 10
-183.2389509811164
 20
-43.84760978689594
 30
0.0
 10
-183.1868663471738
 20
-43.87250738664113
 30
0.0
 10
-183.1868663471738
 20
-43.87250738664113
 30
0.0
 10
-182.5141160313465
 20
-45.29687903541607
 30
0.0
 10
-182.5141160313465
 20
-45.29687903541607
 30
0.0
 10
-182.5141160313465
 20
-45.29687903541607
 30
0.0
 10
-182.5029550383572
 20
-45.29361659130951
 30
0.0
 10
-182.5029550383572
 20
-45.29361659130951
 30
0.0
 10
-170.3299175472273
 20
-70.74548841734929
 30
0.0
 10
-146.4025228916901
 20
-83.63477547902652
 30
0.0
 10
-111.1516998728218
 20
-83.63477547902652
 30
0.0
 10
-88.86428435624717
 20
-83.63477547902652
 30
0.0
 10
-70.54629030498374
 20
-78.26605167227339
 30
0.0
 10
-56.7103220944381
 20
-67.67570022277059
 30
0.0
 10
-42.62961334020397
 20
-56.90041970482513
 30
0.0
 10
-35.49172905512878
 20
-42.62316300227223
 30
0.0
 10
-35.49172905512878
 20
-25.24149040894926
 30
0.0
 10
-35.49172905512878
 20
-17.72155674849668
 30
0.0
 10
-36.87168567539329
 20
-10.80483183217555
 30
0.0
 10
-39.60092049417036
 20
-4.574937253605673
 30
0.0
 10
-38.79526850798749
 20
-3.722580804455621
 30
0.0
 10
-38.01525818774851
 20
-2.866904675340228
 30
0.0
 10
-37.2631789679108
 20
-2.008423989014751
 30
0.0
 10
-35.72536584168739
 20
-0.2527711740019837
 30
0.0
 10
-34.3011086646377
 20
1.514099869863315
 30
0.0
 10
-32.99635996635696
 20
3.285607018507952
 30
0.0
 10
-32.67023002764732
 20
3.72849811463589
 30
0.0
 10
-32.3514262792089
 20
4.171618154206615
 30
0.0
 10
-32.0402921362072
 20
4.6150243730866
 30
0.0
 10
-31.65131722159308
 20
5.169239219790899
 30
0.0
 10
-31.27424736616692
 20
5.723683009938627
 30
0.0
 10
-30.90908256992999
 20
6.278298507673579
 30
0.0
 10
-29.81381712466522
 20
7.942030529154476
 30
0.0
 10
-28.82638404242424
 20
9.606735560277488
 30
0.0
 10
-27.95182007902025
 20
11.26703343006716
 30
0.0
 10
-27.48546227968765
 20
12.15247220715051
 30
0.0
 10
-27.05115656278296
 20
13.03676626700388
 30
0.0
 10
-26.64958975864676
 20
13.91888536412189
 30
0.0
 10
-26.44892082830069
 20
14.3599449126825
 30
0.0
 10
-26.25626491855872
 20
14.80048933848721
 30
0.0
 10
-26.0721943880432
 20
15.24040416981784
 30
0.0
 10
-25.51941043787493
 20
16.56020589966914
 30
0.0
 10
-25.04149099452498
 20
17.87445575095262
 30
0.0
 10
-24.64061102072227
 20
19.18034916646398
 30
0.0
 10
-24.37343401934028
 20
20.05096385542405
 30
0.0
 10
-24.14059853484041
 20
20.91791544925075
 30
0.0
 10
-23.94279139756961
 20
21.78028817416009
 30
0.0
 10
-23.54717712302417
 20
23.50514809569631
 30
0.0
 10
-23.29167623738094
 20
25.21197872086979
 30
0.0
 10
-23.18235574195592
 20
26.89431239732874
 30
0.0
 10
-23.12775273010539
 20
27.73545061763075
 30
0.0
 10
-23.10955172615415
 20
28.57052183660905
 30
0.0
 10
-23.12866850388938
 20
29.39861028049249
 30
0.0
  0
HATCH
  5
7D
330
70
100
AcDbEntity
  8
Layer 1
 62
     7
440
 33554687
100
AcDbHatch
 10
0.0
 20
0.0
 30
0.0
210
0.0
220
0.0
230
1.0
  2
SOLID
 70
     1
 71
     1
 91
        4
 92
        1
 93
        1
 72
     4
 94
        3
 73
     0
 74
     0
 95
       71
 96
       67
 40
0.0
 40
0.0
 40
0.0
 40
0.0
 40
1.0
 40
1.0
 40
1.0
 40
2.0
 40
2.0
 40
2.0
 40
3.0
 40
3.0
 40
3.0
 40
4.0
 40
4.0
 40
4.0
 40
5.0
 40
5.0
 40
5.0
 40
6.0
 40
6.0
 40
6.0
 40
7.0
 40
7.0
 40
7.0
 40
8.0
 40
8.0
 40
8.0
 40
9.0
 40
9.0
 40
9.0
 40
10.0
 40
10.0
 40
10.0
 40
11.0
 40
11.0
 40
11.0
 40
12.0
 40
12.0
 40
12.0
 40
13.0
 40
13.0
 40
13.0
 40
14.0
 40
14.0
 40
14.0
 40
15.0
 40
15.0
 40
15.0
 40
16.0
 40
16.0
 40
16.0
 40
17.0
 40
17.0
 40
17.0
 40
18.0
 40
18.0
 40
18.0
 40
19.0
 40
19.0
 40
19.0
 40
20.0
 40
20.0
 40
20.0
 40
21.0
 40
21.0
 40
21.0
 40
22.0
 40
22.0
 40
22.0
 40
22.0
 10
-41.21050739068695
 20
-0.7965690939163417
 10
-41.26327885497399
 20
-0.8543773140101752
 10
-41.32074365989979
 20
-0.9109835810114056
 10
-41.37362959590439
 20
-0.9687918011052392
 10
-53.59634781479879
 20
-14.31310396154565
 10
-71.775144250944
 20
-26.16739494009657
 10
-92.88498915344296
 20
-34.61323313169709
 10
-94.09243688720868
 20
-35.09630380258228
 10
-95.30492137678503
 20
-35.57370812317955
 10
-96.53102800139205
 20
-36.03411339291818
 10
-100.6481179893195
 20
-37.58011124733418
 10
-104.7751670171405
 20
-38.95279891319392
 10
-108.8904254575012
 20
-40.16625641241623
 10
-123.0614524011478
 20
-44.34487495142713
 10
-137.0872147283596
 20
-46.53483348334843
 10
-150.0356836708079
 20
-46.53483348334843
 10
-164.9394441131135
 20
-46.53483348334843
 10
-177.193642055818
 20
-43.59107865574797
 10
-185.4440770163291
 20
-38.30174098886787
 10
-190.3909725239821
 20
-35.13024466844015
 10
-193.8985005871528
 20
-31.11549240083832
 10
-195.6744148971302
 20
-26.38632211025714
 10
-198.4256282867145
 20
-19.05978842574522
 10
-197.0240365108114
 20
-10.41848976719007
 10
-191.7693265401227
 20
-1.284790992334206
 10
-191.6493601744637
 20
-1.345117590332073
 10
-191.5283635632967
 20
-1.403269225593938
 10
-191.4062222348991
 20
-1.459703785011153
 10
-192.9871912006783
 20
-6.874330752674026
 10
-192.9470116259198
 20
-12.04873880970252
 10
-191.1738446372925
 20
-16.77052567415755
 10
-189.5643722124973
 20
-21.05663316103127
 10
-186.6187858373295
 20
-24.68796239258167
 10
-182.5236744202125
 20
-27.59273959851426
 10
-175.1152934537829
 20
-32.84739233334037
 10
-163.9302614035087
 20
-35.71519517275837
 10
-149.9839424520333
 20
-35.71519517275837
 10
-143.1365873998227
 20
-35.71519517275837
 10
-135.9224649472558
 20
-35.04158631901101
 10
-128.5037815257609
 20
-33.73014102493311
 10
-119.0892836144859
 20
-32.06583664484075
 10
-109.3451071410894
 20
-29.37311830568756
 10
-99.59978595046537
 20
-25.71368626615188
 10
-99.11820341197884
 20
-25.53282094387647
 10
-98.64921276301696
 20
-25.34176763825839
 10
-98.17152226311364
 20
-25.15769710774288
 10
-76.17532280974412
 20
-16.68261139092772
 10
-58.33833893835256
 20
-4.835360423334939
 10
-47.33256960623367
 20
7.549335283543725
 10
-37.06056401827601
 20
19.10823198099891
 10
-32.72803824774115
 20
31.12764841991862
 10
-36.54544126496225
 20
41.29348148483259
 10
-37.23227160271286
 20
43.12245343840239
 10
-38.17185550475346
 20
44.82688015739388
 10
-39.32893568042118
 20
46.41248522795247
 10
-40.68496771058645
 20
48.27041852742891
 10
-42.34366297625672
 20
49.96305465895641
 10
-44.30582277948814
 20
51.46875846688991
 10
-43.02786046437868
 20
50.91917972496559
 10
-41.81915354165711
 20
50.32375505799802
 10
-40.66779695214444
 20
49.69301586449594
 10
-34.56141736264493
 20
46.34798041206533
 10
-30.26941458203985
 20
41.88449899046619
 10
-28.24212036844272
 20
36.48566912057641
 10
-24.28952624640865
 20
25.95942183592753
 10
-28.89506707620128
 20
12.7189927640747
 10
-41.21050739068695
 20
-0.7965690939163417
 97
        0
 97
        1
330
79
 92
        1
 93
        1
 72
     4
 94
        3
 73
     0
 74
     0
 95
      146
 96
      142
 40
0.0
 40
0.0
 40
0.0
 40
0.0
 40
1.0
 40
1.0
 40
1.0
 40
2.0
 40
2.0
 40
2.0
 40
3.0
 40
3.0
 40
3.0
 40
4.0
 40
4.0
 40
4.0
 40
5.0
 40
5.0
 40
5.0
 40
6.0
 40
6.0
 40
6.0
 40
7.0
 40
7.0
 40
7.0
 40
8.0
 40
8.0
 40
8.0
 40
9.0
 40
9.0
 40
9.0
 40
10.0
 40
10.0
 40
10.0
 40
11.0
 40
11.0
 40
11.0
 40
12.0
 40
12.0
 40
12.0
 40
13.0
 40
13.0
 40
13.0
 40
14.0
 40
14.0
 40
14.0
 40
15.0
 40
15.0
 40
15.0
 40
16.0
 40
16.0
 40
16.0
 40
17.0
 40
17.0
 40
17.0
 40
18.0
 40
18.0
 40
18.0
 40
19.0
 40
19.0
 40
19.0
 40
20.0
 40
20.0
 40
20.0
 40
21.0
 40
21.0
 40
21.0
 40
22.0
 40
22.0
 40
22.0
 40
23.0
 40
23.0
 40
23.0
 40
24.0
 40
24.0
 40
24.0
 40
25.0
 40
25.0
 40
25.0
 40
26.0
 40
26.0
 40
26.0
 40
27.0
 40
27.0
 40
27.0
 40
28.0
 40
28.0
 40
28.0
 40
29.0
 40
29.0
 40
29.0
 40
30.0
 40
30.0
 40
30.0
 40
31.0
 40
31.0
 40
31.0
 40
32.0
 40
32.0
 40
32.0
 40
33.0
 40
33.0
 40
33.0
 40
34.0
 40
34.0
 40
34.0
 40
35.0
 40
35.0
 40
35.0
 40
36.0
 40
36.0
 40
36.0
 40
37.0
 40
37.0
 40
37.0
 40
38.0
 40
38.0
 40
38.0
 40
39.0
 40
39.0
 40
39.0
 40
40.0
 40
40.0
 40
40.0
 40
41.0
 40
41.0
 40
41.0
 40
42.0
 40
42.0
 40
42.0
 40
43.0
 40
43.0
 40
43.0
 40
44.0
 40
44.0
 40
44.0
 40
45.0
 40
45.0
 40
45.0
 40
46.0
 40
46.0
 40
46.0
 40
47.0
 40
47.0
 40
47.0
 40
47.0
 10
-188.5730470916757
 20
-5.966455517890103
 10
-188.4068341499395
 20
-4.823283656561685
 10
-188.1330177886236
 20
-3.661681847843084
 10
-187.7900605066393
 20
-2.490292706807984
 10
-187.3002360041014
 20
-2.55010418205252
 10
-186.8045734436903
 20
-2.590455464398286
 10
-186.2986084282145
 20
-2.590455464398286
 10
-179.5565673611281
 20
-2.590455464398286
 10
-174.0910004767526
 20
2.875111419980459
 10
-174.0910004767526
 20
9.617209722926201
 10
-174.0910004767526
 20
10.30850445787277
 10
-174.1619729449871
 20
10.98188436817736
 10
-174.2724381576427
 20
11.64181385103207
 10
-172.2551029839448
 20
7.685442162140033
 10
-169.649955512854
 20
3.960532297069965
 10
-166.4579115181557
 20
0.4852280239117761
 10
-157.8260567767484
 20
-8.918395073679311
 10
-139.2954887359497
 20
-16.23685850172387
 10
-109.8322987940025
 20
-21.88369135940548
 10
-108.1443560031169
 20
-22.22418749934449
 10
-106.6430021206548
 20
-22.56485534686752
 10
-105.2956127055715
 20
-22.90157391995498
 10
-105.2956127055715
 20
-22.90157391995498
 10
-103.9332274947804
 20
-23.29867632689522
 10
-103.9332274947804
 20
-23.29867632689522
 10
-104.1172407894364
 20
-23.36386797312291
 10
-104.3011968482344
 20
-23.42917409106879
 10
-104.4849811994439
 20
-23.49362167109395
 10
-104.8775047374667
 20
-23.63110221036752
 10
-105.2685401430949
 20
-23.76045525731111
 10
-105.6603768507772
 20
-23.89455888075607
 10
-106.4577868729086
 20
-24.16751670415122
 10
-107.2546245364223
 20
-24.43732655516505
 10
-108.0495161806465
 20
-24.69614712077427
 10
-108.5060294118045
 20
-24.84478865303326
 10
-108.9613979257325
 20
-24.98770659914811
 10
-109.4169953831071
 20
-25.13171202663033
 10
-110.1488131079835
 20
-25.36311661459096
 10
-110.8797150590726
 20
-25.59017127708087
 10
-111.6088999343171
 20
-25.80961356998965
 10
-112.0802944894604
 20
-25.95150127059592
 10
-112.551231157711
 20
-26.09092782916142
 10
-113.0213665239029
 20
-26.2278932456823
 10
-113.7432252088793
 20
-26.43817780075635
 10
-114.4629089311204
 20
-26.64119340142244
 10
-115.181562407853
 20
-26.83974460489257
 10
-115.6394492996876
 20
-26.96623585876409
 10
-116.0975651349662
 20
-27.09381459400041
 10
-116.5538494226769
 20
-27.21555527136671
 10
-117.3182915885972
 20
-27.41948664581614
 10
-118.079299602823
 20
-27.61294385761621
 10
-118.8393918432686
 20
-27.80359651220364
 10
-119.2375244957174
 20
-27.9034158546259
 10
-119.6371452805649
 20
-28.00792853768756
 10
-120.0340187440624
 20
-28.10414202083138
 10
-121.0786876877819
 20
-28.35741070787728
 10
-122.1184343474134
 20
-28.59780132609118
 10
-123.1531442512369
 20
-28.82588623408647
 10
-123.2591450666966
 20
-28.84923846556653
 10
-123.3664050711083
 20
-28.87596761288162
 10
-123.4722914148434
 20
-28.89903366505628
 10
-124.6039588680107
 20
-29.14594917147626
 10
-125.7281856591885
 20
-29.3751215608389
 10
-126.8465743924937
 20
-29.5919310041229
 10
-127.2269639278807
 20
-29.66565079371122
 10
-127.6031180095236
 20
-29.7309569116571
 10
-127.9817904690691
 20
-29.80124254955099
 10
-128.7281461027595
 20
-29.93969609847053
 10
-129.4730136040512
 20
-30.07551679776078
 10
-130.2123864626384
 20
-30.20051991923045
 10
-130.6460053492064
 20
-30.27383905778812
 10
-131.0764190275304
 20
-30.34114843088854
 10
-131.5075195361944
 20
-30.40983146466239
 10
-131.6376738851967
 20
-30.43055084651703
 10
-131.768228885229
 20
-30.45247218146491
 10
-131.8982115266505
 20
-30.47296261987291
 10
-131.8982115266505
 20
-30.47296261987291
 10
-132.1380870221092
 20
-30.23102663340094
 10
-132.1380870221092
 20
-30.23102663340094
 10
-132.7139370244515
 20
-29.55667371345424
 10
-133.2670071539258
 20
-28.86051393028105
 10
-133.7677637060064
 20
-28.1191950524013
 10
-134.1106065162686
 20
-27.61168466866419
 10
-138.0697255265113
 20
-19.59357006989709
 10
-137.5639894544827
 20
-19.50256505014791
 10
-137.5665078323861
 20
-19.50302293703798
 10
-161.9931709076058
 20
-23.89845091933672
 10
-176.9894245020625
 20
-26.59689284463725
 10
-176.9894245020625
 20
-26.59689284463725
 10
-177.1423014880747
 20
-26.51538897789147
 10
-177.1423014880747
 20
-26.51538897789147
 10
-177.6375633974506
 20
-26.25273360956422
 10
-178.1213781345358
 20
-25.98235139993509
 10
-178.5892813021297
 20
-25.70126608421059
 10
-178.6627721482682
 20
-25.65713723500942
 10
-178.7378655985299
 20
-25.61409586717946
 10
-178.810669614331
 20
-25.56950913108501
 10
-179.3493735425754
 20
-25.23937268207331
 10
-179.8666712586245
 20
-24.89544239044372
 10
-180.3662258576163
 20
-24.54023663410282
 10
-180.4503625739875
 20
-24.48042515885764
 10
-180.5336979883006
 20
-24.42021303258181
 10
-180.6165755157236
 20
-24.35971472699992
 10
-181.1094907547841
 20
-24.00021628104772
 10
-181.5847773485086
 20
-23.62972854969411
 10
-182.0371695976393
 20
-23.24527526813794
 10
-182.0978396108058
 20
-23.19382022866552
 10
-182.1555333591776
 20
-23.14064811335103
 10
-182.2154020702854
 20
-23.08867795112657
 10
-183.1466295365533
 20
-22.28050758704031
 10
-183.9877677568514
 20
-21.41813486213418
 10
-184.7341233905418
 20
-20.5020748991583
 10
-184.7866659113777
 20
-20.43751284740854
 10
-184.8414978666749
 20
-20.37420998461337
 10
-184.8930101420061
 20
-20.30913281011092
 10
-185.2405462929071
 20
-19.87116399807221
 10
-185.5640433819913
 20
-19.4197447585875
 10
-185.8678513347224
 20
-18.9576796488662
 10
-185.924056950693
 20
-18.87234097939854
 10
-185.9793467928834
 20
-18.7864871871814
 10
-186.0340642764586
 20
-18.7002899797898
 10
-186.329401321691
 20
-18.23439006734983
 10
-186.6049347588528
 20
-17.75790152053655
 10
-186.8552844169634
 20
-17.26807701799799
 10
-186.8935179724294
 20
-17.19326974704231
 10
-186.9282029044866
 20
-17.11663092852251
 10
-186.9654062144471
 20
-17.04125129895536
 10
-187.220449213201
 20
-16.52406805462764
 10
-187.4574056797243
 20
-15.99738365729652
 10
-187.6613942900363
 20
-15.45404362427223
 10
-187.661737705205
 20
-15.45329955807291
 10
-187.662081120373
 20
-15.45266996359882
 10
-187.6623100638196
 20
-15.45192589739949
 10
-187.885758867035
 20
-14.85713082490664
 10
-188.0754385119758
 20
-14.25369313733112
 10
-188.2322647724306
 20
-13.64235690086969
 10
-188.5458028216111
 20
-12.41962719209128
 10
-188.7276983893951
 20
-11.16518881604848
 10
-188.7827592881351
 20
-9.88413576441969
 10
-188.8379346586041
 20
-8.6030827127909
 10
-188.7662753600291
 20
-7.295414985575476
 10
-188.5730470916757
 20
-5.966455517890103
 97
        0
 97
        1
330
7A
 92
        1
 93
        1
 72
     4
 94
        3
 73
     0
 74
     0
 95
      230
 96
      226
 40
0.0
 40
0.0
 40
0.0
 40
0.0
 40
1.0
 40
1.0
 40
1.0
 40
2.0
 40
2.0
 40
2.0
 40
3.0
 40
3.0
 40
3.0
 40
4.0
 40
4.0
 40
4.0
 40
5.0
 40
5.0
 40
5.0
 40
6.0
 40
6.0
 40
6.0
 40
7.0
 40
7.0
 40
7.0
 40
8.0
 40
8.0
 40
8.0
 40
9.0
 40
9.0
 40
9.0
 40
10.0
 40
10.0
 40
10.0
 40
11.0
 40
11.0
 40
11.0
 40
12.0
 40
12.0
 40
12.0
 40
13.0
 40
13.0
 40
13.0
 40
14.0
 40
14.0
 40
14.0
 40
15.0
 40
15.0
 40
15.0
 40
16.0
 40
16.0
 40
16.0
 40
17.0
 40
17.0
 40
17.0
 40
18.0
 40
18.0
 40
18.0
 40
19.0
 40
19.0
 40
19.0
 40
20.0
 40
20.0
 40
20.0
 40
21.0
 40
21.0
 40
21.0
 40
22.0
 40
22.0
 40
22.0
 40
23.0
 40
23.0
 40
23.0
 40
24.0
 40
24.0
 40
24.0
 40
25.0
 40
25.0
 40
25.0
 40
26.0
 40
26.0
 40
26.0
 40
27.0
 40
27.0
 40
27.0
 40
28.0
 40
28.0
 40
28.0
 40
29.0
 40
29.0
 40
29.0
 40
30.0
 40
30.0
 40
30.0
 40
31.0
 40
31.0
 40
31.0
 40
32.0
 40
32.0
 40
32.0
 40
33.0
 40
33.0
 40
33.0
 40
34.0
 40
34.0
 40
34.0
 40
35.0
 40
35.0
 40
35.0
 40
36.0
 40
36.0
 40
36.0
 40
37.0
 40
37.0
 40
37.0
 40
38.0
 40
38.0
 40
38.0
 40
39.0
 40
39.0
 40
39.0
 40
40.0
 40
40.0
 40
40.0
 40
41.0
 40
41.0
 40
41.0
 40
42.0
 40
42.0
 40
42.0
 40
43.0
 40
43.0
 40
43.0
 40
44.0
 40
44.0
 40
44.0
 40
45.0
 40
45.0
 40
45.0
 40
46.0
 40
46.0
 40
46.0
 40
47.0
 40
47.0
 40
47.0
 40
48.0
 40
48.0
 40
48.0
 40
49.0
 40
49.0
 40
49.0
 40
50.0
 40
50.0
 40
50.0
 40
51.0
 40
51.0
 40
51.0
 40
52.0
 40
52.0
 40
52.0
 40
53.0
 40
53.0
 40
53.0
 40
54.0
 40
54.0
 40
54.0
 40
55.0
 40
55.0
 40
55.0
 40
56.0
 40
56.0
 40
56.0
 40
57.0
 40
57.0
 40
57.0
 40
58.0
 40
58.0
 40
58.0
 40
59.0
 40
59.0
 40
59.0
 40
60.0
 40
60.0
 40
60.0
 40
61.0
 40
61.0
 40
61.0
 40
62.0
 40
62.0
 40
62.0
 40
63.0
 40
63.0
 40
63.0
 40
64.0
 40
64.0
 40
64.0
 40
65.0
 40
65.0
 40
65.0
 40
66.0
 40
66.0
 40
66.0
 40
67.0
 40
67.0
 40
67.0
 40
68.0
 40
68.0
 40
68.0
 40
69.0
 40
69.0
 40
69.0
 40
70.0
 40
70.0
 40
70.0
 40
71.0
 40
71.0
 40
71.0
 40
72.0
 40
72.0
 40
72.0
 40
73.0
 40
73.0
 40
73.0
 40
74.0
 40
74.0
 40
74.0
 40
75.0
 40
75.0
 40
75.0
 40
75.0
 10
-138.1263890293751
 20
41.99616615621507
 10
-138.1263890293751
 20
41.99616615621507
 10
-138.1265035010972
 20
41.99622339207384
 10
-138.1265035010972
 20
41.99622339207384
 10
-138.1265035010972
 20
41.99622339207384
 10
-141.1824406171986
 20
44.08882372361749
 10
-141.1824406171986
 20
44.08882372361749
 10
-141.1824406171986
 20
44.08882372361749
 10
-131.6102006716855
 20
44.82590714774791
 10
-131.6102006716855
 20
44.82590714774791
 10
-131.6102006716855
 20
44.82590714774791
 10
-131.6100861999641
 20
44.82590714774791
 10
-131.6100861999641
 20
44.82590714774791
 10
-131.6100861999641
 20
44.82590714774791
 10
-125.0396382455926
 20
45.33187216322374
 10
-125.0396382455926
 20
45.33187216322374
 10
-125.0396382455926
 20
45.33187216322374
 10
-125.8687569349801
 20
47.06274185021657
 10
-125.8687569349801
 20
47.06274185021657
 10
-125.8687569349801
 20
47.06274185021657
 10
-125.8688141708427
 20
47.06274185021657
 10
-125.8688141708427
 20
47.06274185021657
 10
-125.8688141708427
 20
47.06274185021657
 10
-125.8695010011794
 20
47.0641727467526
 10
-125.8695010011794
 20
47.0641727467526
 10
-125.8695010011794
 20
47.0641727467526
 10
-125.8694437653168
 20
47.0641727467526
 10
-125.8694437653168
 20
47.0641727467526
 10
-125.8694437653168
 20
47.0641727467526
 10
-127.343038254963
 20
50.14014241437256
 10
-127.343038254963
 20
50.14014241437256
 10
-127.343038254963
 20
50.14014241437256
 10
-127.343095490825
 20
50.14014241437256
 10
-127.343095490825
 20
50.14014241437256
 10
-127.343095490825
 20
50.14014241437256
 10
-127.3455566328696
 20
50.14523640604261
 10
-127.3455566328696
 20
50.14523640604261
 10
-127.3455566328696
 20
50.14523640604261
 10
-132.0346618204156
 20
59.93331278519372
 10
-132.0346618204156
 20
59.93331278519372
 10
-132.0346618204156
 20
59.93331278519372
 10
-118.1039110232615
 20
53.25972580843781
 10
-118.1039110232615
 20
53.25972580843781
 10
-118.1039110232615
 20
53.25972580843781
 10
-118.1026518343063
 20
53.25915344982249
 10
-118.1026518343063
 20
53.25915344982249
 10
-118.1026518343063
 20
53.25915344982249
 10
-117.4329922549983
 20
52.93828921036691
 10
-117.4329922549983
 20
52.93828921036691
 10
-117.4329922549983
 20
52.93828921036691
 10
-117.3916679630136
 20
53.47436028898258
 10
-117.3916679630136
 20
53.47436028898258
 10
-117.3916679630136
 20
53.47436028898258
 10
-117.3917251988724
 20
53.47436028898258
 10
-117.3917251988724
 20
53.47436028898258
 10
-117.3917251988724
 20
53.47436028898258
 10
-117.3913817837044
 20
53.47882468618176
 10
-117.3913817837044
 20
53.47882468618176
 10
-117.3913817837044
 20
53.47882468618176
 10
-117.3913245478417
 20
53.47882468618176
 10
-117.3913245478417
 20
53.47882468618176
 10
-117.3913245478417
 20
53.47882468618176
 10
-116.1907451174572
 20
69.08114881783617
 10
-116.1907451174572
 20
69.08114881783617
 10
-116.1907451174572
 20
69.08114881783617
 10
-107.3652042207993
 20
56.19272029408029
 10
-107.3652042207993
 20
56.19272029408029
 10
-107.3652042207993
 20
56.19272029408029
 10
-107.3638305601259
 20
56.19071703892895
 10
-107.3638305601259
 20
56.19071703892895
 10
-107.3638305601259
 20
56.19071703892895
 10
-107.0429663206703
 20
55.72218427685713
 10
-107.0429663206703
 20
55.72218427685713
 10
-107.0429663206703
 20
55.72218427685713
 10
-106.5962404218282
 20
56.37455862599782
 10
-106.5962404218282
 20
56.37455862599782
 10
-106.5962404218282
 20
56.37455862599782
 10
-106.5961831859656
 20
56.37455862599782
 10
-106.5961831859656
 20
56.37455862599782
 10
-106.5961831859656
 20
56.37455862599782
 10
-97.89541646733717
 20
69.08114881783617
 10
-97.89541646733717
 20
69.08114881783617
 10
-97.89541646733717
 20
69.08114881783617
 10
-97.06561094760907
 20
58.30804326262928
 10
-97.06561094760907
 20
58.30804326262928
 10
-97.06561094760907
 20
58.30804326262928
 10
-97.06549647588767
 20
58.30764261159863
 10
-97.06549647588767
 20
58.30764261159863
 10
-97.06549647588767
 20
58.30764261159863
 10
-96.79877736139577
 20
54.84338485970447
 10
-96.79877736139577
 20
54.84338485970447
 10
-96.79877736139577
 20
54.84338485970447
 10
-96.79831947450184
 20
54.83766127355712
 10
-96.79831947450184
 20
54.83766127355712
 10
-96.79831947450184
 20
54.83766127355712
 10
-96.65202461256287
 20
52.93828921036691
 10
-96.65202461256287
 20
52.93828921036691
 10
-96.65202461256287
 20
52.93828921036691
 10
-93.23779100360189
 20
54.57403289558391
 10
-93.23779100360189
 20
54.57403289558391
 10
-93.23779100360189
 20
54.57403289558391
 10
-90.96466876495533
 20
55.66305963195187
 10
-90.96466876495533
 20
55.66305963195187
 10
-90.96466876495533
 20
55.66305963195187
 10
-90.9646115290927
 20
55.66305963195187
 10
-90.9646115290927
 20
55.66305963195187
 10
-90.9646115290927
 20
55.66305963195187
 10
-89.03690771447058
 20
56.58661749277979
 10
-89.03690771447058
 20
56.58661749277979
 10
-89.03690771447058
 20
56.58661749277979
 10
-88.76870046758064
 20
56.71511200179946
 10
-88.76870046758064
 20
56.71511200179946
 10
-88.76870046758064
 20
56.71511200179946
 10
-82.05149976437239
 20
59.93331278519372
 10
-82.05149976437239
 20
59.93331278519372
 10
-82.05149976437239
 20
59.93331278519372
 10
-83.79055417956166
 20
56.302555912258
 10
-83.79055417956166
 20
56.302555912258
 10
-83.76434015500247
 20
56.30410128051543
 10
-83.73778271527461
 20
56.30627624325463
 10
-83.71156869071928
 20
56.30776437565329
 10
-83.73778271527461
 20
56.30627624325463
 10
-83.76456909844911
 20
56.303872337072
 10
-83.79066865128306
 20
56.30238420467398
 10
-83.79066865128306
 20
56.30238420467398
 10
-89.04537862196859
 20
45.33187216322374
 10
-89.04537862196859
 20
45.33187216322374
 10
-89.04537862196859
 20
45.33187216322374
 10
-72.9039499110392
 20
44.08882372361749
 10
-72.9039499110392
 20
44.08882372361749
 10
-72.9039499110392
 20
44.08882372361749
 10
-86.26142631961959
 20
34.94161728544913
 10
-86.26142631961959
 20
34.94161728544913
 10
-86.26142631961959
 20
34.94161728544913
 10
-82.30803089552422
 20
32.23430380162316
 10
-82.30803089552422
 20
32.23430380162316
 10
-82.30803089552422
 20
32.23430380162316
 10
-42.4416507711046
 20
44.2985931559395
 10
-42.4416507711046
 20
44.2985931559395
 10
-42.57237747872546
 20
44.47573814721764
 10
-42.68982546648045
 20
44.66020932876381
 10
-42.82742047747862
 20
44.83351951732456
 10
-42.68913863614375
 20
44.65923631911784
 10
-42.55703826784947
 20
44.48151896922825
 10
-42.42562472989257
 20
44.30340096830351
 10
-42.22621498850108
 20
44.03313323039961
 10
-42.03436038082105
 20
43.75874451046843
 10
-41.85086220891764
 20
43.47966244989463
 10
-41.79511447983713
 20
43.39489613904165
 10
-41.74016805281858
 20
43.30967194129923
 10
-41.68590845613672
 20
43.22404709252616
 10
-41.39022799573174
 20
42.75763205733414
 10
-41.1142366716805
 20
42.2805711519017
 10
-40.86365807012266
 20
41.79011705488906
 10
-40.8258824015506
 20
41.7161683218573
 10
-40.79165535638348
 20
41.64033080539687
 10
-40.75479546159092
 20
41.56580971374981
 10
-40.49906563250105
 20
41.0474245163327
 10
-40.26165127908702
 20
40.51953816590962
 10
-40.05709031015645
 20
39.97488170807454
 10
-39.61030717545172
 20
38.7852915630882
 10
-39.29802831521938
 20
37.56130266535392
 10
-39.11487355848786
 20
36.30812347826698
 10
-38.84037036683464
 20
34.42832607970527
 10
-38.85651087977256
 20
32.4828791480226
 10
-39.14635328230111
 20
30.48941132856451
 10
-39.26941038448205
 20
29.64254952211516
 10
-39.45966238803818
 20
28.784412250959
 10
-39.68013492645618
 20
27.92152440329697
 10
-40.32483967016016
 20
25.3990827520446
 10
-41.36286925394641
 20
22.81665791796303
 10
-42.7960552253874
 20
20.20263888834297
 10
-43.08452396724255
 20
19.67641237790578
 10
-43.38844639169504
 20
19.14898391437213
 10
-43.70725014013666
 20
18.6206969129216
 10
-44.6640048006225
 20
17.03577867269587
 10
-45.75595056592514
 20
15.44279017600663
 10
-46.97610466093754
 20
13.84905761311807
 10
-47.7708818334404
 20
12.81079908588518
 10
-48.63834855001979
 20
11.77294120968037
 10
-49.53992784004106
 20
10.73617081484613
 10
-49.65909290364135
 20
10.59914816246327
 10
-49.77722772173304
 20
10.46218274594624
 10
-49.89833880462526
 20
10.32521732942536
 10
-54.60621735473715
 20
15.04986598695245
 10
-60.04545574283531
 20
18.62527578183896
 10
-66.15172086060893
 20
20.98734254922392
 10
-69.62479293516913
 20
22.33021033125244
 10
-74.12811051635751
 20
23.76402589716815
 10
-79.60397985579774
 20
25.27860126363352
 10
-79.60397985579774
 20
25.27860126363352
 10
-89.04652333919921
 20
24.55136240767773
 10
-89.04652333919921
 20
24.55136240767773
 10
-89.04652333919921
 20
24.55136240767773
 10
-82.05149976437239
 20
9.950150729150546
 10
-82.05149976437239
 20
9.950150729150546
 10
-82.05149976437239
 20
9.950150729150546
 10
-96.65202461256287
 20
16.94465918122467
 10
-96.65202461256287
 20
16.94465918122467
 10
-96.65202461256287
 20
16.94465918122467
 10
-97.89541646733717
 20
0.8026008758141538
 10
-97.89541646733717
 20
0.8026008758141538
 10
-97.89541646733717
 20
0.8026008758141538
 10
-107.0429663206703
 20
14.16076411473124
 10
-107.0429663206703
 20
14.16076411473124
 10
-107.0429663206703
 20
14.16076411473124
 10
-116.1907451174572
 20
0.8026008758141538
 10
-116.1907451174572
 20
0.8026008758141538
 10
-116.1907451174572
 20
0.8026008758141538
 10
-117.4329922549983
 20
16.94465918122467
 10
-117.4329922549983
 20
16.94465918122467
 10
-117.4329922549983
 20
16.94465918122467
 10
-132.0346618204156
 20
9.950150729150546
 10
-132.0346618204156
 20
9.950150729150546
 10
-132.0346618204156
 20
9.950150729150546
 10
-125.0396382455926
 20
24.55136240767773
 10
-125.0396382455926
 20
24.55136240767773
 10
-125.0396382455926
 20
24.55136240767773
 10
-141.1824406171986
 20
25.79463979072742
 10
-141.1824406171986
 20
25.79463979072742
 10
-141.1824406171986
 20
25.79463979072742
 10
-127.8238194913882
 20
34.94161728544913
 10
-127.8238194913882
 20
34.94161728544913
 10
-127.8238194913882
 20
34.94161728544913
 10
-138.1263890293751
 20
41.99616615621507
 10
-138.1263890293751
 20
41.99616615621507
 97
        0
 97
        1
330
7B
 92
        1
 93
        1
 72
     4
 94
        3
 73
     0
 74
     0
 95
      323
 96
      319
 40
0.0
 40
0.0
 40
0.0
 40
0.0
 40
1.0
 40
1.0
 40
1.0
 40
2.0
 40
2.0
 40
2.0
 40
3.0
 40
3.0
 40
3.0
 40
4.0
 40
4.0
 40
4.0
 40
5.0
 40
5.0
 40
5.0
 40
6.0
 40
6.0
 40
6.0
 40
7.0
 40
7.0
 40
7.0
 40
8.0
 40
8.0
 40
8.0
 40
9.0
 40
9.0
 40
9.0
 40
10.0
 40
10.0
 40
10.0
 40
11.0
 40
11.0
 40
11.0
 40
12.0
 40
12.0
 40
12.0
 40
13.0
 40
13.0
 40
13.0
 40
14.0
 40
14.0
 40
14.0
 40
15.0
 40
15.0
 40
15.0
 40
16.0
 40
16.0
 40
16.0
 40
17.0
 40
17.0
 40
17.0
 40
18.0
 40
18.0
 40
18.0
 40
19.0
 40
19.0
 40
19.0
 40
20.0
 40
20.0
 40
20.0
 40
21.0
 40
21.0
 40
21.0
 40
22.0
 40
22.0
 40
22.0
 40
23.0
 40
23.0
 40
23.0
 40
24.0
 40
24.0
 40
24.0
 40
25.0
 40
25.0
 40
25.0
 40
26.0
 40
26.0
 40
26.0
 40
27.0
 40
27.0
 40
27.0
 40
28.0
 40
28.0
 40
28.0
 40
29.0
 40
29.0
 40
29.0
 40
30.0
 40
30.0
 40
30.0
 40
31.0
 40
31.0
 40
31.0
 40
32.0
 40
32.0
 40
32.0
 40
33.0
 40
33.0
 40
33.0
 40
34.0
 40
34.0
 40
34.0
 40
35.0
 40
35.0
 40
35.0
 40
36.0
 40
36.0
 40
36.0
 40
37.0
 40
37.0
 40
37.0
 40
38.0
 40
38.0
 40
38.0
 40
39.0
 40
39.0
 40
39.0
 40
40.0
 40
40.0
 40
40.0
 40
41.0
 40
41.0
 40
41.0
 40
42.0
 40
42.0
 40
42.0
 40
43.0
 40
43.0
 40
43.0
 40
44.0
 40
44.0
 40
44.0
 40
45.0
 40
45.0
 40
45.0
 40
46.0
 40
46.0
 40
46.0
 40
47.0
 40
47.0
 40
47.0
 40
48.0
 40
48.0
 40
48.0
 40
49.0
 40
49.0
 40
49.0
 40
50.0
 40
50.0
 40
50.0
 40
51.0
 40
51.0
 40
51.0
 40
52.0
 40
52.0
 40
52.0
 40
53.0
 40
53.0
 40
53.0
 40
54.0
 40
54.0
 40
54.0
 40
55.0
 40
55.0
 40
55.0
 40
56.0
 40
56.0
 40
56.0
 40
57.0
 40
57.0
 40
57.0
 40
58.0
 40
58.0
 40
58.0
 40
59.0
 40
59.0
 40
59.0
 40
60.0
 40
60.0
 40
60.0
 40
61.0
 40
61.0
 40
61.0
 40
62.0
 40
62.0
 40
62.0
 40
63.0
 40
63.0
 40
63.0
 40
64.0
 40
64.0
 40
64.0
 40
65.0
 40
65.0
 40
65.0
 40
66.0
 40
66.0
 40
66.0
 40
67.0
 40
67.0
 40
67.0
 40
68.0
 40
68.0
 40
68.0
 40
69.0
 40
69.0
 40
69.0
 40
70.0
 40
70.0
 40
70.0
 40
71.0
 40
71.0
 40
71.0
 40
72.0
 40
72.0
 40
72.0
 40
73.0
 40
73.0
 40
73.0
 40
74.0
 40
74.0
 40
74.0
 40
75.0
 40
75.0
 40
75.0
 40
76.0
 40
76.0
 40
76.0
 40
77.0
 40
77.0
 40
77.0
 40
78.0
 40
78.0
 40
78.0
 40
79.0
 40
79.0
 40
79.0
 40
80.0
 40
80.0
 40
80.0
 40
81.0
 40
81.0
 40
81.0
 40
82.0
 40
82.0
 40
82.0
 40
83.0
 40
83.0
 40
83.0
 40
84.0
 40
84.0
 40
84.0
 40
85.0
 40
85.0
 40
85.0
 40
86.0
 40
86.0
 40
86.0
 40
87.0
 40
87.0
 40
87.0
 40
88.0
 40
88.0
 40
88.0
 40
89.0
 40
89.0
 40
89.0
 40
90.0
 40
90.0
 40
90.0
 40
91.0
 40
91.0
 40
91.0
 40
92.0
 40
92.0
 40
92.0
 40
93.0
 40
93.0
 40
93.0
 40
94.0
 40
94.0
 40
94.0
 40
95.0
 40
95.0
 40
95.0
 40
96.0
 40
96.0
 40
96.0
 40
97.0
 40
97.0
 40
97.0
 40
98.0
 40
98.0
 40
98.0
 40
99.0
 40
99.0
 40
99.0
 40
100.0
 40
100.0
 40
100.0
 40
101.0
 40
101.0
 40
101.0
 40
102.0
 40
102.0
 40
102.0
 40
103.0
 40
103.0
 40
103.0
 40
104.0
 40
104.0
 40
104.0
 40
105.0
 40
105.0
 40
105.0
 40
106.0
 40
106.0
 40
106.0
 40
106.0
 10
-23.12866850388938
 20
29.39861028049249
 10
-23.13828412861737
 20
29.81271173829458
 10
-23.15705749118329
 20
30.22498164852999
 10
-23.18544647847462
 20
30.63547724706069
 10
-23.22780101597109
 20
31.25122064485225
 10
-23.2914472939343
 20
31.86278582476032
 10
-23.3764997840927
 20
32.46994384333247
 10
-23.63165725456791
 20
34.29136066318439
 10
-24.08038640856458
 20
36.07259790827906
 10
-24.73058579496991
 20
37.80432613319709
 10
-24.89107515055807
 20
38.23199249017045
 10
-25.0655300563456
 20
38.65238989273584
 10
-25.24845586963369
 20
39.06838013396403
 10
-25.30683644834348
 20
39.20093838915157
 10
-25.37013931113801
 20
39.33074932298523
 10
-25.43069485258252
 20
39.46210562507952
 10
-25.56107814503149
 20
39.74507972423396
 10
-25.69455217400237
 20
40.0263367475431
 10
-25.83523792151924
 20
40.30375896813422
 10
-25.91090373039244
 20
40.4529156231491
 10
-25.98943133234476
 20
40.6005269099027
 10
-26.06807340601527
 20
40.74808096079755
 10
-26.20624077562939
 20
41.0076455926061
 10
-26.34898701415638
 20
41.26474908236938
 10
-26.49619764987934
 20
41.51939143009188
 10
-26.57976200764229
 20
41.66362580101753
 10
-26.6630974219554
 20
41.80780293608441
 10
-26.74940910106581
 20
41.95043470288999
 10
-26.91081423043797
 20
42.21703934565988
 10
-27.07885871974081
 20
42.47992365743697
 10
-27.25022288900898
 20
42.74091918578155
 10
-27.32932284957276
 20
42.86151514591787
 10
-27.40578996050855
 20
42.98365647431547
 10
-27.4870648838109
 20
43.10305048136239
 10
-27.73730007019687
 20
43.47084812722474
 10
-27.99566274891216
 20
43.83406690417294
 10
-28.26570154337263
 20
44.19053184946586
 10
-28.27165407296725
 20
44.19831592662652
 10
-28.27691977222452
 20
44.20644341895651
 10
-28.28287230181914
 20
44.21422749611781
 10
-28.56000834310099
 20
44.5791633489113
 10
-28.84962180218611
 20
44.9368874831556
 10
-29.14713381015394
 20
45.28986104089852
 10
-29.23848224507498
 20
45.39826576254084
 10
-29.33452402063864
 20
45.50392316282862
 10
-29.42781847484777
 20
45.61124040310295
 10
-29.63924774715309
 20
45.85437834266751
 10
-29.85365328425509
 20
46.09579920638743
 10
-30.0748126530098
 20
46.33309908807942
 10
-30.18951331941412
 20
46.45621342612298
 10
-30.30673236372248
 20
46.57772516004265
 10
-30.42395140803404
 20
46.69923689396231
 10
-30.63686881273417
 20
46.91988113996433
 10
-30.85367825601816
 20
47.13806424392558
 10
-31.07495209649747
 20
47.3535000265323
 10
-31.19686448144843
 20
47.47220720323932
 10
-31.31889133812463
 20
47.5907999082243
 10
-31.44332210097898
 20
47.70796171667388
 10
-31.680965397839
 20
47.93169669919461
 10
-31.92479016774028
 20
48.15165411485992
 10
-32.17147673071747
 20
48.36960827537389
 10
-32.28411690610847
 20
48.46902696676166
 10
-32.39423870359608
 20
48.5699910264107
 10
-32.50871042655376
 20
48.66815052885094
 10
-32.86208463532734
 20
48.97150059468813
 10
-33.22278503436894
 20
49.27021455574919
 10
-33.59401683192188
 20
49.56211744929107
 10
-33.60351798492847
 20
49.56955811128435
 10
-33.61244677931976
 20
49.57745666017025
 10
-33.62183346060112
 20
49.58489732216353
 10
-34.0057716194046
 20
49.88612966112799
 10
-34.40081353533472
 20
50.17997857396243
 10
-34.80318164153288
 20
50.46896243857027
 10
-34.92154540307121
 20
50.5539576928654
 10
-35.04391567491545
 20
50.63626286167377
 10
-35.16376756885244
 20
50.72017063460155
 10
-35.45166395209228
 20
50.92158363114759
 10
-35.74242212840802
 20
51.1210506084049
 10
-36.03924730603978
 20
51.31633936776845
 10
-36.18760265899271
 20
51.41398374745536
 10
-36.33847638985289
 20
51.50985381543115
 10
-36.48900670554118
 20
51.60595282685357
 10
-36.76980584196027
 20
51.7851010732869
 10
-37.05415360178875
 20
51.96161647008775
 10
-37.34262234364389
 20
52.13538454553792
 10
-37.49956307581944
 20
52.22993818870293
 10
-37.65661827972151
 20
52.32432012428006
 10
-37.81573397462921
 20
52.41732839918377
 10
-38.1217168900989
 20
52.59607599458646
 10
-38.43319444826928
 20
52.77087431554201
 10
-38.74741932779033
 20
52.94372661720884
 10
-38.88993662287389
 20
53.02213974743591
 10
-39.03039342694412
 20
53.10204101006228
 10
-39.17462779787362
 20
53.17925218719675
 10
-39.61728995055107
 20
53.41620865372007
 10
-40.06647699144166
 20
53.64830007202062
 10
-40.52447835499829
 20
53.87380936624926
 10
-40.54107675482563
 20
53.88193685857603
 10
-40.55675938087349
 20
53.89063670952004
 10
-40.57335778070468
 20
53.89870696599125
 10
-41.05276535645265
 20
54.13400359253189
 10
-41.54213197209729
 20
54.36180232122112
 10
-42.03802347595892
 20
54.58450705823647
 10
-42.18111312965394
 20
54.64878293067762
 10
-42.32786587848747
 20
54.71025424590546
 10
-42.47232919285975
 20
54.77349987283801
 10
-42.7031041863463
 20
54.87446393249027
 10
-42.93742780324098
 20
54.97273790664806
 10
-43.17175142013566
 20
55.07106911666846
 10
-43.29767031539251
 20
55.1239550526769
 10
-43.42107083274149
 20
55.17907318728333
 10
-43.54813444522512
 20
55.2312150570886
 10
-43.42450498442886
 20
55.18044684795674
 10
-43.29881503261929
 20
55.13128124294428
 10
-43.17610134561023
 20
55.07976896761632
 10
-55.18864948115133
 20
78.41362773961265
 10
-77.17145574293039
 20
90.24033103293096
 10
-108.6470585744901
 20
90.24033103293096
 10
-131.1645622542107
 20
90.24033103293096
 10
-148.7485636178624
 20
84.85123125949121
 10
-160.9100394649724
 20
74.22155877315187
 10
-173.1880475260541
 20
63.48851832097764
 10
-179.4143934812158
 20
49.84177186848017
 10
-179.4143934812158
 20
33.65993463934241
 10
-179.4143934812158
 20
29.24144060486902
 10
-178.8704238537136
 20
25.00913482778773
 10
-177.812247246688
 20
20.96730999770599
 10
-178.3172964883805
 20
20.51777954164737
 10
-178.8144471811903
 20
20.06664648146806
 10
-179.3048440423435
 20
19.61413976061598
 10
-181.286464038475
 20
21.00319688285579
 10
-183.6948346178003
 20
21.82487491025133
 10
-186.2986084282145
 20
21.82487491025133
 10
-193.0406494953014
 20
21.82487491025133
 10
-198.506216379677
 20
16.35930802587579
 10
-198.506216379677
 20
9.617209722926201
 10
-198.506216379677
 20
6.192959838209769
 10
-197.0922616576958
 20
3.102509497638405
 10
-194.8213716176434
 20
0.8856501108212103
 10
-194.8213716176434
 20
0.8856501108212103
 10
-194.8213716176434
 20
0.8855928749585883
 10
-194.8213716176434
 20
0.8855928749585883
 10
-195.2195042700929
 20
0.2007085564999106
 10
-195.6045871461263
 20
-0.4838323467900937
 10
-195.9647151865526
 20
-1.16762918388462
 10
-196.4311874576105
 20
-2.053067960968614
 10
-196.865493174512
 20
-2.937362020821984
 10
-197.2669455069294
 20
-3.819481117939995
 10
-197.4677289089981
 20
-4.260540666500605
 10
-197.6602703470148
 20
-4.701085092305317
 10
-197.844569820977
 20
-5.140999923635945
 10
-198.39723929942
 20
-6.460801653486602
 10
-198.8751587427732
 20
-7.775051504770728
 10
-199.2759242448506
 20
-9.080944920281446
 10
-199.5431012462358
 20
-9.951559609242158
 10
-199.7760512024577
 20
-10.81851120306885
 10
-199.9738583397285
 20
-11.68088392797755
 10
-200.2706835173597
 20
-12.97452886913228
 10
-200.4884087344276
 20
-14.25798582694307
 10
-200.6249734999166
 20
-15.52862195178192
 10
-200.6704187739285
 20
-15.95216732672799
 10
-200.706935253553
 20
-16.37428180513803
 10
-200.7342939953422
 20
-16.7949081511462
 10
-200.7890114789173
 20
-17.636046371445
 10
-200.807098011144
 20
-18.47111759043036
 10
-200.7879812334094
 20
-19.29920603430995
 10
-200.7784800804028
 20
-19.71330749211268
 10
-200.7594777743896
 20
-20.12557740234809
 10
-200.7313177305456
 20
-20.53607300087879
 10
-200.6463797121124
 20
-21.7675025606025
 10
-200.4769615621323
 20
-22.98250542808609
 10
-200.2202014875339
 20
-24.17821981024721
 10
-199.9634414129386
 20
-25.37399142827096
 10
-199.619568357171
 20
-26.5504173251167
 10
-199.1860639423282
 20
-27.70492188701519
 10
-199.0253456432934
 20
-28.13293165915659
 10
-198.8507762657845
 20
-28.55372971275262
 10
-198.6676215090491
 20
-28.97000613329072
 10
-198.6099277606799
 20
-29.10113349193838
 10
-198.5473117282182
 20
-29.229513529236
 10
-198.4874430171104
 20
-29.35949617065688
 10
-198.3564873660468
 20
-29.64407287393202
 10
-198.2220975632958
 20
-29.92687526550179
 10
-198.0806105137202
 20
-30.20584285435034
 10
-198.0055170634591
 20
-30.35379755627262
 10
-197.9276762918428
 20
-30.50020688993747
 10
-197.849721048509
 20
-30.64661622360233
 10
-197.710981320284
 20
-30.90721110091497
 10
-197.5677771948632
 20
-31.1654020720501
 10
-197.4198797288003
 20
-31.42101742941473
 10
-197.3366587862124
 20
-31.56485114931293
 10
-197.2534378436175
 20
-31.70862763334915
 10
-197.1673551079537
 20
-31.85085874912345
 10
-197.0057210351356
 20
-32.11786404292463
 10
-196.8374476023893
 20
-32.38109176987039
 10
-196.6658544896739
 20
-32.64248794924498
 10
-196.5869834725567
 20
-32.76256878662926
 10
-196.5109742485116
 20
-32.88413775641154
 10
-196.4300427403805
 20
-33.00301664070257
 10
-196.1778615347026
 20
-33.37361884378142
 10
-195.9177817801388
 20
-33.73969941380169
 10
-195.6454535512209
 20
-34.09873997286062
 10
-195.6416759843655
 20
-34.10377672867125
 10
-195.6381273609529
 20
-34.10904242792917
 10
-195.6343497940943
 20
-34.11407918373595
 10
-195.3566413941971
 20
-34.47981633858819
 10
-195.0663411047753
 20
-34.83822730317303
 10
-194.7682567381922
 20
-35.19194492711528
 10
-194.6785109073912
 20
-35.29828915774299
 10
-194.5844151511201
 20
-35.40194330288393
 10
-194.4929522444777
 20
-35.50720005214107
 10
-194.2796914246056
 20
-35.752512954441
 10
-194.0633398682117
 20
-35.99599430917424
 10
-193.8403489518903
 20
-36.23541191774218
 10
-193.726793002716
 20
-36.35732430269314
 10
-193.6104897321871
 20
-36.4775196117988
 10
-193.4944154051094
 20
-36.59794386435047
 10
-193.2804677549007
 20
-36.81979006344573
 10
-193.0623991226615
 20
-37.03923235635836
 10
-192.8398660932301
 20
-37.25587009205833
 10
-192.7189839537878
 20
-37.37343255153472
 10
-192.5983307577888
 20
-37.49088053928971
 10
-192.4751591838865
 20
-37.60689763050868
 10
-192.2353409242872
 20
-37.83269310404337
 10
-191.9893411916506
 20
-38.05459653899676
 10
-191.7403651942167
 20
-38.2744967188033
 10
-191.6298999815611
 20
-38.37196939090299
 10
-191.5218386750867
 20
-38.4709874312601
 10
-191.4096563865897
 20
-38.56731538612917
 10
-191.0511309502834
 20
-38.8751870850243
 10
-190.6852793237066
 20
-39.17830820742256
 10
-190.3084384117271
 20
-39.47438931885434
 10
-190.3043174296998
 20
-39.47765176295707
 10
-190.3004253911191
 20
-39.48108591464829
 10
-190.2963044090918
 20
-39.48434835875101
 10
-189.9114504765089
 20
-39.78638199977742
 10
-189.5153783150695
 20
-40.08097497881119
 10
-189.1119799633666
 20
-40.37064567375572
 10
-188.995562221117
 20
-40.45421003151547
 10
-188.8752524402861
 20
-40.53508430378716
 10
-188.757346565641
 20
-40.61761841603832
 10
-188.4675041631093
 20
-40.8204623091236
 10
-188.1746854957834
 20
-41.02130294705433
 10
-187.8759142988597
 20
-41.21790813123573
 10
-187.7290470783054
 20
-41.31446502955142
 10
-187.5798904232905
 20
-41.40941932374388
 10
-187.4308482399971
 20
-41.50448808966156
 10
-187.1474162539525
 20
-41.68535341193633
 10
-186.8603211727708
 20
-41.86358588458246
 10
-186.5691051095657
 20
-42.03901380001595
 10
-186.4150261704647
 20
-42.13173589561363
 10
-186.2609472313606
 20
-42.22440075534547
 10
-186.1048078012457
 20
-42.31563471854513
 10
-185.7947039037526
 20
-42.49684345598857
 10
-185.4789908918329
 20
-42.67410291898874
 10
-185.1604160868379
 20
-42.84924465511617
 10
-185.0219053020596
 20
-42.92542558674528
 10
-184.8852260648454
 20
-43.00315188663243
 10
-184.7451126759432
 20
-43.07818810103156
 10
-184.2972992957331
 20
-43.31800636063078
 10
-183.8427320838638
 20
-43.55301680786602
 10
-183.3790071341592
 20
-43.78110171586131
 10
-183.3673310184179
 20
-43.78682530200864
 10
-183.3563417330127
 20
-43.79294953918343
 10
-183.3446656172707
 20
-43.79867312533462
 10
-183.2929816343549
 20
-43.82397137610662
 10
-183.2389509811164
 20
-43.84760978689594
 10
-183.1868663471738
 20
-43.87250738664113
 10
-183.1868663471738
 20
-43.87250738664113
 10
-182.5141160313465
 20
-45.29687903541607
 10
-182.5141160313465
 20
-45.29687903541607
 10
-182.5141160313465
 20
-45.29687903541607
 10
-182.5029550383572
 20
-45.29361659130951
 10
-182.5029550383572
 20
-45.29361659130951
 10
-170.3299175472273
 20
-70.74548841734929
 10
-146.4025228916901
 20
-83.63477547902652
 10
-111.1516998728218
 20
-83.63477547902652
 10
-88.86428435624717
 20
-83.63477547902652
 10
-70.54629030498374
 20
-78.26605167227339
 10
-56.7103220944381
 20
-67.67570022277059
 10
-42.62961334020397
 20
-56.90041970482513
 10
-35.49172905512878
 20
-42.62316300227223
 10
-35.49172905512878
 20
-25.24149040894926
 10
-35.49172905512878
 20
-17.72155674849668
 10
-36.87168567539329
 20
-10.80483183217555
 10
-39.60092049417036
 20
-4.574937253605673
 10
-38.79526850798749
 20
-3.722580804455621
 10
-38.01525818774851
 20
-2.866904675340228
 10
-37.2631789679108
 20
-2.008423989014751
 10
-35.72536584168739
 20
-0.2527711740019837
 10
-34.3011086646377
 20
1.514099869863315
 10
-32.99635996635696
 20
3.285607018507952
 10
-32.67023002764732
 20
3.72849811463589
 10
-32.3514262792089
 20
4.171618154206615
 10
-32.0402921362072
 20
4.6150243730866
 10
-31.65131722159308
 20
5.169239219790899
 10
-31.27424736616692
 20
5.723683009938627
 10
-30.90908256992999
 20
6.278298507673579
 10
-29.81381712466522
 20
7.942030529154476
 10
-28.82638404242424
 20
9.606735560277488
 10
-27.95182007902025
 20
11.26703343006716
 10
-27.48546227968765
 20
12.15247220715051
 10
-27.05115656278296
 20
13.03676626700388
 10
-26.64958975864676
 20
13.91888536412189
 10
-26.44892082830069
 20
14.3599449126825
 10
-26.25626491855872
 20
14.80048933848721
 10
-26.0721943880432
 20
15.24040416981784
 10
-25.51941043787493
 20
16.56020589966914
 10
-25.04149099452498
 20
17.87445575095262
 10
-24.64061102072227
 20
19.18034916646398
 10
-24.37343401934028
 20
20.05096385542405
 10
-24.14059853484041
 20
20.91791544925075
 10
-23.94279139756961
 20
21.78028817416009
 10
-23.54717712302417
 20
23.50514809569631
 10
-23.29167623738094
 20
25.21197872086979
 10
-23.18235574195592
 20
26.89431239732874
 10
-23.12775273010539
 20
27.73545061763075
 10
-23.10955172615415
 20
28.57052183660905
 10
-23.12866850388938
 20
29.39861028049249
 97
        0
 97
        1
330
7C
 75
     2
 76
     1
 98
        1
 10
0.0
 20
0.0
450
        0
451
        0
460
0.0
461
0.0
452
        0
462
0.0
453
        0
470

  0
ENDSEC
  0
SECTION
  2
OBJECTS
  0
DICTIONARY
  5
C
330
0
100
AcDbDictionary
281
     1
  3
ACAD_COLOR
350
63
  3
ACAD_DETAILVIEWSTYLE
350
6A
  3
ACAD_GROUP
350
D
  3
ACAD_LAYOUT
350
62
  3
ACAD_MATERIAL
350
10
  3
ACAD_MLEADERSTYLE
350
66
  3
ACAD_MLINESTYLE
350
5F
  3
ACAD_PLOTSETTINGS
350
61
  3
ACAD_PLOTSTYLENAME
350
E
  3
ACAD_SCALELIST
350
42
  3
ACAD_SECTIONVIEWSTYLE
350
68
  3
ACAD_TABLESTYLE
350
64
  3
ACAD_VISUALSTYLE
350
29
  3
ACDB_RECOMPOSE_DATA
350
86
  3
AcDbVariableDictionary
350
7E
  0
DICTIONARY
  5
63
102
{ACAD_REACTORS
330
C
102
}
330
C
100
AcDbDictionary
281
     1
  0
DICTIONARY
  5
6A
102
{ACAD_REACTORS
330
C
102
}
330
C
100
AcDbDictionary
281
     1
  3
Imperial24
350
6B
  0
DICTIONARY
  5
D
102
{ACAD_REACTORS
330
C
102
}
330
C
100
AcDbDictionary
281
     1
  0
DICTIONARY
  5
62
102
{ACAD_REACTORS
330
C
102
}
330
C
100
AcDbDictionary
281
     1
  3
Layout1
350
6F
  3
Layout2
350
77
  3
Model
350
73
  0
DICTIONARY
  5
10
102
{ACAD_REACTORS
330
C
102
}
330
C
100
AcDbDictionary
281
     1
  3
ByBlock
350
19
  3
ByLayer
350
11
  3
Global
350
21
  0
DICTIONARY
  5
66
102
{ACAD_REACTORS
330
C
102
}
330
C
100
AcDbDictionary
281
     1
  3
Standard
350
67
  0
DICTIONARY
  5
5F
102
{ACAD_REACTORS
330
C
102
}
330
C
100
AcDbDictionary
281
     1
  3
Standard
350
60
  0
DICTIONARY
  5
61
102
{ACAD_REACTORS
330
C
102
}
330
C
100
AcDbDictionary
281
     1
  0
ACDBDICTIONARYWDFLT
  5
E
102
{ACAD_REACTORS
330
C
102
}
330
C
100
AcDbDictionary
281
     1
  3
Normal
350
F
100
AcDbDictionaryWithDefault
340
F
  0
DICTIONARY
  5
42
102
{ACAD_REACTORS
330
C
102
}
330
C
100
AcDbDictionary
281
     1
  3
A0
350
43
  3
A1
350
44
  3
A2
350
45
  3
A3
350
46
  3
A4
350
47
  3
A5
350
48
  3
A6
350
49
  3
A7
350
4A
  3
A8
350
4B
  3
A9
350
4C
  3
B0
350
4D
  3
B1
350
4E
  3
B2
350
4F
  3
B3
350
50
  3
B4
350
51
  3
B5
350
52
  3
B6
350
53
  0
DICTIONARY
  5
68
102
{ACAD_REACTORS
330
C
102
}
330
C
100
AcDbDictionary
281
     1
  3
Imperial24
350
69
  0
DICTIONARY
  5
64
102
{ACAD_REACTORS
330
C
102
}
330
C
100
AcDbDictionary
281
     1
  3
Standard
350
65
  0
DICTIONARY
  5
29
102
{ACAD_REACTORS
330
C
102
}
330
C
100
AcDbDictionary
281
     1
  3
2dWireframe
350
2F
  3
Basic
350
2E
  3
Brighten
350
35
  3
ColorChange
350
39
  3
Conceptual
350
32
  3
Dim
350
34
  3
EdgeColorOff
350
41
  3
Facepattern
350
38
  3
Flat
350
2A
  3
FlatWithEdges
350
2B
  3
Gouraud
350
2C
  3
GouraudWithEdges
350
2D
  3
Hidden
350
31
  3
JitterOff
350
3F
  3
Linepattern
350
37
  3
OverhangOff
350
40
  3
Realistic
350
33
  3
Shaded
350
3E
  3
Shaded with edges
350
3D
  3
Shades of Gray
350
3A
  3
Sketchy
350
3B
  3
Thicken
350
36
  3
Wireframe
350
30
  3
X-Ray
350
3C
  0
XRECORD
  5
86
102
{ACAD_REACTORS
330
C
102
}
330
C
100
AcDbXrecord
280
     1
 90
        1
330
65
  0
DICTIONARY
  5
7E
102
{ACAD_REACTORS
330
C
102
}
330
C
100
AcDbDictionary
281
     1
  3
CANNOSCALE
350
83
  3
CMLEADERSTYLE
350
80
  3
CTABLESTYLE
350
7F
  3
CVIEWDETAILSTYLE
350
81
  3
CVIEWSECTIONSTYLE
350
82
  0
ACDBDETAILVIEWSTYLE
  5
6B
102
{ACAD_XDICTIONARY
360
89
102
}
102
{ACAD_REACTORS
330
6A
102
}
330
6A
100
AcDbModelDocViewStyle
 70
     0
  3
Imperial24
290
     0
100
AcDbDetailViewStyle
 70
     0
 71
     0
 90
        3
 71
     1
340
55
 62
   256
 40
0.24
340
0
 62
   256
 40
0.24
300

 40
0.36
280
     3
 71
     2
340
5D
 90
       25
 62
   256
 71
     3
340
55
 62
   256
 40
0.24
 90
        1
 40
0.75
 90
        1
300
%<\AcVar ViewType \f "%tc1">% %<\AcVar ViewDetailId>%\PSCALE %<\AcVar ViewScale \f "%sn">%
 71
     4
340
5D
 90
       25
 62
   256
340
5D
 90
       25
 62
   256
280
     0
  0
LAYOUT
  5
6F
102
{ACAD_REACTORS
330
62
102
}
330
62
100
AcDbPlotSettings
  1

  2

  4

  6

 40
0.0
 41
0.0
 42
0.0
 43
0.0
 44
0.0
 45
0.0
 46
0.0
 47
0.0
 48
0.0
 49
0.0
140
0.0
141
0.0
142
1.0
143
1.0
 70
   688
 72
     0
 73
     0
 74
     5
  7

 75
    16
147
1.0
 76
     0
 77
     2
 78
   300
148
0.0
149
0.0
100
AcDbLayout
  1
Layout1
 70
     1
 71
     1
 10
0.0
 20
0.0
 11
12.0
 21
9.0
 12
0.0
 22
0.0
 32
0.0
 14
0.0
 24
0.0
 34
0.0
 15
0.0
 25
0.0
 35
0.0
146
0.0
 13
0.0
 23
0.0
 33
0.0
 16
1.0
 26
0.0
 36
0.0
 17
0.0
 27
1.0
 37
0.0
 76
     0
330
6C
  0
LAYOUT
  5
77
102
{ACAD_REACTORS
330
62
102
}
330
62
100
AcDbPlotSettings
  1

  2

  4

  6

 40
0.0
 41
0.0
 42
0.0
 43
0.0
 44
0.0
 45
0.0
 46
0.0
 47
0.0
 48
0.0
 49
0.0
140
0.0
141
0.0
142
1.0
143
1.0
 70
   688
 72
     0
 73
     0
 74
     5
  7

 75
    16
147
1.0
 76
     0
 77
     2
 78
   300
148
0.0
149
0.0
100
AcDbLayout
  1
Layout2
 70
     1
 71
     2
 10
0.0
 20
0.0
 11
12.0
 21
9.0
 12
0.0
 22
0.0
 32
0.0
 14
0.0
 24
0.0
 34
0.0
 15
0.0
 25
0.0
 35
0.0
146
0.0
 13
0.0
 23
0.0
 33
0.0
 16
1.0
 26
0.0
 36
0.0
 17
0.0
 27
1.0
 37
0.0
 76
     0
330
74
  0
LAYOUT
  5
73
102
{ACAD_REACTORS
330
62
102
}
330
62
100
AcDbPlotSettings
  1

  2

  4

  6

 40
0.0
 41
0.0
 42
0.0
 43
0.0
 44
0.0
 45
0.0
 46
0.0
 47
0.0
 48
0.0
 49
0.0
140
0.0
141
0.0
142
1.0
143
1.0
 70
  1712
 72
     0
 73
     0
 74
     0
  7

 75
     0
147
1.0
 76
     0
 77
     2
 78
   300
148
0.0
149
0.0
100
AcDbLayout
  1
Model
 70
     1
 71
     0
 10
0.0
 20
0.0
 11
12.0
 21
9.0
 12
0.0
 22
0.0
 32
0.0
 14
0.0
 24
0.0
 34
0.0
 15
0.0
 25
0.0
 35
0.0
146
0.0
 13
0.0
 23
0.0
 33
0.0
 16
1.0
 26
0.0
 36
0.0
 17
0.0
 27
1.0
 37
0.0
 76
     0
330
70
  0
MATERIAL
  5
19
102
{ACAD_XDICTIONARY
360
1A
102
}
102
{ACAD_REACTORS
330
10
102
}
330
10
100
AcDbMaterial
  1
ByBlock
 72
     0
 43
0.0208333333333333
 43
0.0
 43
0.0
 43
0.0
 43
0.0
 43
0.0208333333333333
 43
0.0
 43
0.0
 43
0.0
 43
0.0
 43
1.0
 43
0.0
 43
0.0
 43
0.0
 43
0.0
 43
1.0
 77
     0
 47
0.0208333333333333
 47
0.0
 47
0.0
 47
0.0
 47
0.0
 47
0.0208333333333333
 47
0.0
 47
0.0
 47
0.0
 47
0.0
 47
1.0
 47
0.0
 47
0.0
 47
0.0
 47
0.0
 47
1.0
171
     0
 49
0.0208333333333333
 49
0.0
 49
0.0
 49
0.0
 49
0.0
 49
0.0208333333333333
 49
0.0
 49
0.0
 49
0.0
 49
0.0
 49
1.0
 49
0.0
 49
0.0
 49
0.0
 49
0.0
 49
1.0
175
     0
142
0.0208333333333333
142
0.0
142
0.0
142
0.0
142
0.0
142
0.0208333333333333
142
0.0
142
0.0
142
0.0
142
0.0
142
1.0
142
0.0
142
0.0
142
0.0
142
0.0
142
1.0
179
     0
144
0.0208333333333333
144
0.0
144
0.0
144
0.0
144
0.0
144
0.0208333333333333
144
0.0
144
0.0
144
0.0
144
0.0
144
1.0
144
0.0
144
0.0
144
0.0
144
0.0
144
1.0
147
0.0208333333333333
147
0.0
147
0.0
147
0.0
147
0.0
147
0.0208333333333333
147
0.0
147
0.0
147
0.0
147
0.0
147
1.0
147
0.0
147
0.0
147
0.0
147
0.0
147
1.0
  0
MATERIAL
  5
11
102
{ACAD_XDICTIONARY
360
12
102
}
102
{ACAD_REACTORS
330
10
102
}
330
10
100
AcDbMaterial
  1
ByLayer
 72
     0
 43
0.0208333333333333
 43
0.0
 43
0.0
 43
0.0
 43
0.0
 43
0.0208333333333333
 43
0.0
 43
0.0
 43
0.0
 43
0.0
 43
1.0
 43
0.0
 43
0.0
 43
0.0
 43
0.0
 43
1.0
 77
     0
 47
0.0208333333333333
 47
0.0
 47
0.0
 47
0.0
 47
0.0
 47
0.0208333333333333
 47
0.0
 47
0.0
 47
0.0
 47
0.0
 47
1.0
 47
0.0
 47
0.0
 47
0.0
 47
0.0
 47
1.0
171
     0
 49
0.0208333333333333
 49
0.0
 49
0.0
 49
0.0
 49
0.0
 49
0.0208333333333333
 49
0.0
 49
0.0
 49
0.0
 49
0.0
 49
1.0
 49
0.0
 49
0.0
 49
0.0
 49
0.0
 49
1.0
175
     0
142
0.0208333333333333
142
0.0
142
0.0
142
0.0
142
0.0
142
0.0208333333333333
142
0.0
142
0.0
142
0.0
142
0.0
142
1.0
142
0.0
142
0.0
142
0.0
142
0.0
142
1.0
179
     0
144
0.0208333333333333
144
0.0
144
0.0
144
0.0
144
0.0
144
0.0208333333333333
144
0.0
144
0.0
144
0.0
144
0.0
144
1.0
144
0.0
144
0.0
144
0.0
144
0.0
144
1.0
147
0.0208333333333333
147
0.0
147
0.0
147
0.0
147
0.0
147
0.0208333333333333
147
0.0
147
0.0
147
0.0
147
0.0
147
1.0
147
0.0
147
0.0
147
0.0
147
0.0
147
1.0
  0
MATERIAL
  5
21
102
{ACAD_XDICTIONARY
360
22
102
}
102
{ACAD_REACTORS
330
10
102
}
330
10
100
AcDbMaterial
  1
Global
 72
     0
 43
0.0208333333333333
 43
0.0
 43
0.0
 43
0.0
 43
0.0
 43
0.0208333333333333
 43
0.0
 43
0.0
 43
0.0
 43
0.0
 43
1.0
 43
0.0
 43
0.0
 43
0.0
 43
0.0
 43
1.0
 77
     0
 47
0.0208333333333333
 47
0.0
 47
0.0
 47
0.0
 47
0.0
 47
0.0208333333333333
 47
0.0
 47
0.0
 47
0.0
 47
0.0
 47
1.0
 47
0.0
 47
0.0
 47
0.0
 47
0.0
 47
1.0
171
     0
 49
0.0208333333333333
 49
0.0
 49
0.0
 49
0.0
 49
0.0
 49
0.0208333333333333
 49
0.0
 49
0.0
 49
0.0
 49
0.0
 49
1.0
 49
0.0
 49
0.0
 49
0.0
 49
0.0
 49
1.0
175
     0
142
0.0208333333333333
142
0.0
142
0.0
142
0.0
142
0.0
142
0.0208333333333333
142
0.0
142
0.0
142
0.0
142
0.0
142
1.0
142
0.0
142
0.0
142
0.0
142
0.0
142
1.0
179
     0
144
0.0208333333333333
144
0.0
144
0.0
144
0.0
144
0.0
144
0.0208333333333333
144
0.0
144
0.0
144
0.0
144
0.0
144
1.0
144
0.0
144
0.0
144
0.0
144
0.0
144
1.0
147
0.0208333333333333
147
0.0
147
0.0
147
0.0
147
0.0
147
0.0208333333333333
147
0.0
147
0.0
147
0.0
147
0.0
147
1.0
147
0.0
147
0.0
147
0.0
147
0.0
147
1.0
  0
MLEADERSTYLE
  5
67
102
{ACAD_REACTORS
330
66
102
}
330
66
100
AcDbMLeaderStyle
179
     2
170
     2
171
     1
172
     0
 90
        2
 40
0.0
 41
0.0
173
     1
 91
-1056964608
340
5B
 92
       -2
290
     1
 42
0.09
291
     1
 43
0.36
  3
Standard
 44
0.18
300

342
55
174
     1
178
     6
175
     1
176
     0
 93
-1056964608
 45
0.18
292
     0
297
     0
 46
0.18
 94
-1056964608
 47
1.0
 49
1.0
140
1.0
293
     1
141
0.0
294
     1
177
     0
142
1.0
295
     0
296
     0
143
0.125
271
     0
272
     9
273
     9
298
     1
  0
MLINESTYLE
  5
60
102
{ACAD_REACTORS
330
5F
102
}
330
5F
100
AcDbMlineStyle
  2
STANDARD
 70
     0
  3

 62
   256
 51
90.0
 52
90.0
 71
     2
 49
0.5
 62
   256
  6
BYLAYER
 49
-0.5
 62
   256
  6
BYLAYER
  0
ACDBPLACEHOLDER
  5
F
102
{ACAD_REACTORS
330
E
102
}
330
E
  0
SCALE
  5
43
102
{ACAD_REACTORS
330
42
102
}
330
42
100
AcDbScale
 70
     0
300
1:1
140
1.0
141
1.0
290
     1
  0
SCALE
  5
44
102
{ACAD_REACTORS
330
42
102
}
330
42
100
AcDbScale
 70
     0
300
1/128" = 1'-0"
140
0.0078125
141
12.0
290
     0
  0
SCALE
  5
45
102
{ACAD_REACTORS
330
42
102
}
330
42
100
AcDbScale
 70
     0
300
1/64" = 1'-0"
140
0.015625
141
12.0
290
     0
  0
SCALE
  5
46
102
{ACAD_REACTORS
330
42
102
}
330
42
100
AcDbScale
 70
     0
300
1/32" = 1'-0"
140
0.03125
141
12.0
290
     0
  0
SCALE
  5
47
102
{ACAD_REACTORS
330
42
102
}
330
42
100
AcDbScale
 70
     0
300
1/16" = 1'-0"
140
0.0625
141
12.0
290
     0
  0
SCALE
  5
48
102
{ACAD_REACTORS
330
42
102
}
330
42
100
AcDbScale
 70
     0
300
3/32" = 1'-0"
140
0.09375
141
12.0
290
     0
  0
SCALE
  5
49
102
{ACAD_REACTORS
330
42
102
}
330
42
100
AcDbScale
 70
     0
300
1/8" = 1'-0"
140
0.125
141
12.0
290
     0
  0
SCALE
  5
4A
102
{ACAD_REACTORS
330
42
102
}
330
42
100
AcDbScale
 70
     0
300
3/16" = 1'-0"
140
0.1875
141
12.0
290
     0
  0
SCALE
  5
4B
102
{ACAD_REACTORS
330
42
102
}
330
42
100
AcDbScale
 70
     0
300
1/4" = 1'-0"
140
0.25
141
12.0
290
     0
  0
SCALE
  5
4C
102
{ACAD_REACTORS
330
42
102
}
330
42
100
AcDbScale
 70
     0
300
3/8" = 1'-0"
140
0.375
141
12.0
290
     0
  0
SCALE
  5
4D
102
{ACAD_REACTORS
330
42
102
}
330
42
100
AcDbScale
 70
     0
300
1/2" = 1'-0"
140
0.5
141
12.0
290
     0
  0
SCALE
  5
4E
102
{ACAD_REACTORS
330
42
102
}
330
42
100
AcDbScale
 70
     0
300
3/4" = 1'-0"
140
0.75
141
12.0
290
     0
  0
SCALE
  5
4F
102
{ACAD_REACTORS
330
42
102
}
330
42
100
AcDbScale
 70
     0
300
1" = 1'-0"
140
1.0
141
12.0
290
     0
  0
SCALE
  5
50
102
{ACAD_REACTORS
330
42
102
}
330
42
100
AcDbScale
 70
     0
300
1-1/2" = 1'-0"
140
1.5
141
12.0
290
     0
  0
SCALE
  5
51
102
{ACAD_REACTORS
330
42
102
}
330
42
100
AcDbScale
 70
     0
300
3" = 1'-0"
140
3.0
141
12.0
290
     0
  0
SCALE
  5
52
102
{ACAD_REACTORS
330
42
102
}
330
42
100
AcDbScale
 70
     0
300
6" = 1'-0"
140
6.0
141
12.0
290
     0
  0
SCALE
  5
53
102
{ACAD_REACTORS
330
42
102
}
330
42
100
AcDbScale
 70
     0
300
1'-0" = 1'-0"
140
12.0
141
12.0
290
     0
  0
ACDBSECTIONVIEWSTYLE
  5
69
102
{ACAD_XDICTIONARY
360
87
102
}
102
{ACAD_REACTORS
330
68
102
}
330
68
100
AcDbModelDocViewStyle
 70
     0
  3
Imperial24
290
     0
100
AcDbSectionViewStyle
 70
     0
 71
     0
 90
       78
 71
     1
340
55
 62
   256
 40
0.24
340
0
340
0
 62
   256
 40
0.24
300
I, O, Q, S, X, Z
 40
0.48
 90
        3
 40
0.18
 90
        1
 71
     2
340
5D
 90
       25
 62
   256
340
5D
 90
       50
 62
   256
 40
0.24
 40
0.0
 40
0.24
 71
     3
340
55
 62
   256
 40
0.24
 90
        1
 40
0.75
 90
        1
300
%<\AcVar ViewType \f "%tc1">% %<\AcVar ViewSectionStartId>%-%<\AcVar ViewSectionEndId>%\PSCALE %<\AcVar ViewScale \f "%sn">%
 71
     4
 62
   256
 62
   257
300
ANSI31
 40
1.0
 90
        0
290
     0
290
     0
 90
        6
 40
0.0
 40
1.570796326794896
 40
0.2617993877991494
 40
1.308996938995747
 40
-0.2617993877991494
 40
1.832595714594046
  0
TABLESTYLE
  5
65
102
{ACAD_XDICTIONARY
360
84
102
}
102
{ACAD_REACTORS
330
64
102
}
330
64
100
AcDbTableStyle
280
     0
  3
Standard
 70
     0
 71
     0
 40
0.06
 41
0.06
280
     0
281
     0
  7
Standard
140
0.18
170
     2
 62
     0
 63
     7
283
     0
 90
      512
 91
        0
  1

274
    -2
284
     1
 64
     0
275
    -2
285
     1
 65
     0
276
    -2
286
     1
 66
     0
277
    -2
287
     1
 67
     0
278
    -2
288
     1
 68
     0
279
    -2
289
     1
 69
     0
  7
Standard
140
0.25
170
     5
 62
     0
 63
     7
283
     0
 90
      512
 91
        0
  1

274
    -2
284
     1
 64
     0
275
    -2
285
     1
 65
     0
276
    -2
286
     1
 66
     0
277
    -2
287
     1
 67
     0
278
    -2
288
     1
 68
     0
279
    -2
289
     1
 69
     0
  7
Standard
140
0.18
170
     5
 62
     0
 63
     7
283
     0
 90
      512
 91
        0
  1

274
    -2
284
     1
 64
     0
275
    -2
285
     1
 65
     0
276
    -2
286
     1
 66
     0
277
    -2
287
     1
 67
     0
278
    -2
288
     1
 68
     0
279
    -2
289
     1
 69
     0
  0
VISUALSTYLE
  5
2F
102
{ACAD_REACTORS
330
29
102
}
330
29
100
AcDbVisualStyle
  2
2dWireframe
 70
     4
177
     3
291
     0
 70
    58
 90
        0
176
     1
 90
        2
176
     1
 90
        0
176
     1
 90
        0
176
     1
 40
0.6
176
     1
 40
30.0
176
     1
 62
     7
420
 16777215
176
     1
 90
        1
176
     1
 90
        4
176
     1
 62
     7
176
     1
 62
   257
176
     1
 90
        1
176
     1
 90
        1
176
     1
 40
1.0
176
     1
 90
        0
176
     1
 62
   257
176
     1
 40
1.0
176
     1
 90
        1
176
     1
 90
        6
176
     1
 90
        2
176
     1
 62
     7
176
     1
 90
        5
176
     1
 90
        0
176
     1
 90
        0
176
     1
290
     0
176
     1
 90
        1
176
     1
 40
0.0
176
     1
 90
        0
176
     1
290
     1
176
     1
290
     1
176
     1
290
     0
176
     1
290
     0
176
     1
290
     0
176
     1
290
     0
176
     1
290
     0
176
     1
290
     0
176
     1
290
     0
176
     1
 90
       50
176
     1
 40
0.0
176
     1
 40
1.0
176
     1
 90
        0
176
     1
 62
    18
420
        0
176
     1
 90
       50
176
     1
 90
        3
176
     1
 62
     5
420
      255
176
     1
290
     0
176
     1
 90
       50
176
     1
 90
       50
176
     1
 90
       50
176
     1
290
     0
176
     1
 90
       50
176
     1
 62
   256
176
     0
 40
1.0
176
     0
 90
        2
176
     1
  1
strokes_ogs.tif
176
     1
290
     0
176
     1
 40
1.0
176
     1
 40
1.0
176
     1
1001
ACAD
1000
AcDbSavedByObjectVersion
1070
     0
  0
VISUALSTYLE
  5
2E
102
{ACAD_REACTORS
330
29
102
}
330
29
100
AcDbVisualStyle
  2
Basic
 70
     7
177
     3
291
     1
 70
    58
 90
        1
176
     1
 90
        0
176
     1
 90
        1
176
     1
 90
        0
176
     1
 40
0.6
176
     1
 40
30.0
176
     1
 62
     7
420
 16777215
176
     1
 90
        0
176
     1
 90
        4
176
     1
 62
     7
176
     1
 62
   257
176
     1
 90
        1
176
     1
 90
        1
176
     1
 40
1.0
176
     1
 90
        8
176
     1
 62
     7
176
     1
 40
1.0
176
     1
 90
        1
176
     1
 90
        6
176
     1
 90
        2
176
     1
 62
     7
176
     1
 90
        5
176
     1
 90
        0
176
     1
 90
        0
176
     1
290
     0
176
     1
 90
        1
176
     1
 40
0.0
176
     1
 90
        0
176
     1
290
     0
176
     1
290
     1
176
     1
290
     1
176
     1
290
     0
176
     1
290
     0
176
     1
290
     0
176
     1
290
     0
176
     1
290
     0
176
     1
290
     0
176
     1
 90
       50
176
     1
 40
0.0
176
     1
 40
1.0
176
     1
 90
        0
176
     1
 62
    18
420
        0
176
     1
 90
       50
176
     1
 90
        3
176
     1
 62
     5
420
      255
176
     1
290
     0
176
     1
 90
       50
176
     1
 90
       50
176
     1
 90
       50
176
     1
290
     0
176
     1
 90
       50
176
     1
 62
   256
176
     0
 40
1.0
176
     0
 90
        2
176
     1
  1
strokes_ogs.tif
176
     1
290
     0
176
     1
 40
1.0
176
     1
 40
1.0
176
     1
1001
ACAD
1000
AcDbSavedByObjectVersion
1070
     0
  0
VISUALSTYLE
  5
35
102
{ACAD_REACTORS
330
29
102
}
330
29
100
AcDbVisualStyle
  2
Brighten
 70
    12
177
     3
291
     1
 70
    58
 90
        2
176
     1
 90
        2
176
     1
 90
        0
176
     1
 90
        0
176
     1
 40
0.6
176
     1
 40
30.0
176
     1
 62
     7
420
 16777215
176
     1
 90
        1
176
     1
 90
        4
176
     1
 62
     7
176
     1
 62
   257
176
     1
 90
        1
176
     1
 90
        1
176
     1
 40
1.0
176
     1
 90
        8
176
     1
 62
     7
176
     1
 40
1.0
176
     1
 90
        1
176
     1
 90
        6
176
     1
 90
        2
176
     1
 62
     7
176
     1
 90
        5
176
     1
 90
        0
176
     1
 90
        0
176
     1
290
     0
176
     1
 90
        1
176
     1
 40
50.0
176
     1
 90
        0
176
     1
290
     0
176
     1
290
     1
176
     1
290
     1
176
     1
290
     0
176
     1
290
     0
176
     1
290
     0
176
     1
290
     0
176
     1
290
     0
176
     1
290
     0
176
     1
 90
       50
176
     1
 40
0.0
176
     1
 40
1.0
176
     1
 90
        0
176
     1
 62
    18
420
        0
176
     1
 90
       50
176
     1
 90
        3
176
     1
 62
     5
420
      255
176
     1
290
     0
176
     1
 90
       50
176
     1
 90
       50
176
     1
 90
       50
176
     1
290
     0
176
     1
 90
       50
176
     1
 62
   256
176
     0
 40
1.0
176
     0
 90
        2
176
     1
  1
strokes_ogs.tif
176
     1
290
     0
176
     1
 40
1.0
176
     1
 40
1.0
176
     1
1001
ACAD
1000
AcDbSavedByObjectVersion
1070
     0
  0
VISUALSTYLE
  5
39
102
{ACAD_REACTORS
330
29
102
}
330
29
100
AcDbVisualStyle
  2
ColorChange
 70
    16
177
     3
291
     1
 70
    58
 90
        2
176
     1
 90
        2
176
     1
 90
        3
176
     1
 90
        0
176
     1
 40
0.6
176
     1
 40
30.0
176
     1
 62
     8
420
  8421504
176
     1
 90
        1
176
     1
 90
        4
176
     1
 62
     7
176
     1
 62
   257
176
     1
 90
        1
176
     1
 90
        1
176
     1
 40
1.0
176
     1
 90
        8
176
     1
 62
     8
420
  8421504
176
     1
 40
1.0
176
     1
 90
        1
176
     1
 90
        6
176
     1
 90
        2
176
     1
 62
     7
176
     1
 90
        5
176
     1
 90
        0
176
     1
 90
        0
176
     1
290
     0
176
     1
 90
        1
176
     1
 40
0.0
176
     1
 90
        0
176
     1
290
     0
176
     1
290
     1
176
     1
290
     1
176
     1
290
     0
176
     1
290
     0
176
     1
290
     0
176
     1
290
     0
176
     1
290
     0
176
     1
290
     0
176
     1
 90
       50
176
     1
 40
0.0
176
     1
 40
1.0
176
     1
 90
        0
176
     1
 62
    18
420
        0
176
     1
 90
       50
176
     1
 90
        3
176
     1
 62
     5
420
      255
176
     1
290
     0
176
     1
 90
       50
176
     1
 90
       50
176
     1
 90
       50
176
     1
290
     0
176
     1
 90
       50
176
     1
 62
   256
176
     0
 40
1.0
176
     0
 90
        2
176
     1
  1
strokes_ogs.tif
176
     1
290
     0
176
     1
 40
1.0
176
     1
 40
1.0
176
     1
1001
ACAD
1000
AcDbSavedByObjectVersion
1070
     0
  0
VISUALSTYLE
  5
32
102
{ACAD_REACTORS
330
29
102
}
330
29
100
AcDbVisualStyle
  2
Conceptual
 70
     9
177
     3
291
     0
 70
    58
 90
        3
176
     1
 90
        2
176
     1
 90
        0
176
     1
 90
        0
176
     1
 40
0.6
176
     1
 40
30.0
176
     1
 62
     7
420
 16777215
176
     1
 90
        2
176
     1
 90
        2
176
     1
 62
     7
176
     1
 62
   257
176
     1
 90
        1
176
     1
 90
        1
176
     1
 40
179.0
176
     1
 90
        8
176
     1
 62
     7
176
     1
 40
1.0
176
     1
 90
        1
176
     1
 90
        6
176
     1
 90
        2
176
     1
 62
     7
176
     1
 90
        3
176
     1
 90
        0
176
     1
 90
        0
176
     1
290
     0
176
     1
 90
        1
176
     1
 40
0.0
176
     1
 90
        0
176
     1
290
     0
176
     1
290
     1
176
     1
290
     1
176
     1
290
     0
176
     1
290
     0
176
     1
290
     0
176
     1
290
     0
176
     1
290
     0
176
     1
290
     0
176
     1
 90
       50
176
     1
 40
0.0
176
     1
 40
1.0
176
     1
 90
        0
176
     1
 62
    18
420
        0
176
     1
 90
       50
176
     1
 90
        3
176
     1
 62
     5
420
      255
176
     1
290
     0
176
     1
 90
       50
176
     1
 90
       50
176
     1
 90
       50
176
     1
290
     0
176
     1
 90
       50
176
     1
 62
   256
176
     0
 40
1.0
176
     0
 90
        2
176
     1
  1
strokes_ogs.tif
176
     1
290
     0
176
     1
 40
1.0
176
     1
 40
1.0
176
     1
1001
ACAD
1000
AcDbSavedByObjectVersion
1070
     0
  0
VISUALSTYLE
  5
34
102
{ACAD_REACTORS
330
29
102
}
330
29
100
AcDbVisualStyle
  2
Dim
 70
    11
177
     3
291
     1
 70
    58
 90
        2
176
     1
 90
        2
176
     1
 90
        0
176
     1
 90
        0
176
     1
 40
0.6
176
     1
 40
30.0
176
     1
 62
     7
420
 16777215
176
     1
 90
        1
176
     1
 90
        4
176
     1
 62
     7
176
     1
 62
   257
176
     1
 90
        1
176
     1
 90
        1
176
     1
 40
1.0
176
     1
 90
        8
176
     1
 62
     7
176
     1
 40
1.0
176
     1
 90
        1
176
     1
 90
        6
176
     1
 90
        2
176
     1
 62
     7
176
     1
 90
        5
176
     1
 90
        0
176
     1
 90
        0
176
     1
290
     0
176
     1
 90
        1
176
     1
 40
-50.0
176
     1
 90
        0
176
     1
290
     0
176
     1
290
     1
176
     1
290
     1
176
     1
290
     0
176
     1
290
     0
176
     1
290
     0
176
     1
290
     0
176
     1
290
     0
176
     1
290
     0
176
     1
 90
       50
176
     1
 40
0.0
176
     1
 40
1.0
176
     1
 90
        0
176
     1
 62
    18
420
        0
176
     1
 90
       50
176
     1
 90
        3
176
     1
 62
     5
420
      255
176
     1
290
     0
176
     1
 90
       50
176
     1
 90
       50
176
     1
 90
       50
176
     1
290
     0
176
     1
 90
       50
176
     1
 62
   256
176
     0
 40
1.0
176
     0
 90
        2
176
     1
  1
strokes_ogs.tif
176
     1
290
     0
176
     1
 40
1.0
176
     1
 40
1.0
176
     1
1001
ACAD
1000
AcDbSavedByObjectVersion
1070
     0
  0
VISUALSTYLE
  5
41
102
{ACAD_REACTORS
330
29
102
}
330
29
100
AcDbVisualStyle
  2
EdgeColorOff
 70
    22
177
     3
291
     1
 70
    58
 90
        2
176
     0
 90
        2
176
     0
 90
        0
176
     0
 90
        0
176
     0
 40
0.6
176
     0
 40
30.0
176
     0
 62
     7
420
 16777215
176
     0
 90
        1
176
     0
 90
        4
176
     0
 62
     7
176
     0
 62
   257
176
     0
 90
        1
176
     0
 90
        1
176
     0
 40
1.0
176
     0
 90
        8
176
     2
 62
     7
176
     0
 40
1.0
176
     0
 90
        1
176
     0
 90
        6
176
     0
 90
        2
176
     0
 62
     7
176
     0
 90
        5
176
     0
 90
        0
176
     0
 90
        0
176
     0
290
     0
176
     0
 90
        1
176
     0
 40
0.0
176
     0
 90
        0
176
     0
290
     0
176
     0
290
     1
176
     0
290
     1
176
     0
290
     0
176
     0
290
     0
176
     0
290
     0
176
     0
290
     0
176
     0
290
     0
176
     0
290
     0
176
     0
 90
       50
176
     0
 40
0.0
176
     0
 40
1.0
176
     0
 90
        0
176
     0
 62
    18
420
        0
176
     0
 90
       50
176
     0
 90
        3
176
     0
 62
     5
420
      255
176
     0
290
     0
176
     0
 90
       50
176
     0
 90
       50
176
     0
 90
       50
176
     0
290
     0
176
     0
 90
       50
176
     0
 62
   256
176
     0
 40
1.0
176
     0
 90
        2
176
     0
  1
strokes_ogs.tif
176
     0
290
     0
176
     0
 40
1.0
176
     0
 40
1.0
176
     0
1001
ACAD
1000
AcDbSavedByObjectVersion
1070
     0
  0
VISUALSTYLE
  5
38
102
{ACAD_REACTORS
330
29
102
}
330
29
100
AcDbVisualStyle
  2
Facepattern
 70
    15
177
     3
291
     1
 70
    58
 90
        2
176
     1
 90
        2
176
     1
 90
        0
176
     1
 90
        0
176
     1
 40
0.6
176
     1
 40
30.0
176
     1
 62
     7
420
 16777215
176
     1
 90
        1
176
     1
 90
        4
176
     1
 62
     7
176
     1
 62
   257
176
     1
 90
        1
176
     1
 90
        1
176
     1
 40
1.0
176
     1
 90
        8
176
     1
 62
     7
176
     1
 40
1.0
176
     1
 90
        1
176
     1
 90
        6
176
     1
 90
        2
176
     1
 62
     7
176
     1
 90
        5
176
     1
 90
        0
176
     1
 90
        0
176
     1
290
     0
176
     1
 90
        1
176
     1
 40
0.0
176
     1
 90
        0
176
     1
290
     0
176
     1
290
     1
176
     1
290
     1
176
     1
290
     0
176
     1
290
     0
176
     1
290
     0
176
     1
290
     0
176
     1
290
     0
176
     1
290
     0
176
     1
 90
       50
176
     1
 40
0.0
176
     1
 40
1.0
176
     1
 90
        0
176
     1
 62
    18
420
        0
176
     1
 90
       50
176
     1
 90
        3
176
     1
 62
     5
420
      255
176
     1
290
     0
176
     1
 90
       50
176
     1
 90
       50
176
     1
 90
       50
176
     1
290
     0
176
     1
 90
       50
176
     1
 62
   256
176
     0
 40
1.0
176
     0
 90
        2
176
     1
  1
strokes_ogs.tif
176
     1
290
     0
176
     1
 40
1.0
176
     1
 40
1.0
176
     1
1001
ACAD
1000
AcDbSavedByObjectVersion
1070
     0
  0
VISUALSTYLE
  5
2A
102
{ACAD_REACTORS
330
29
102
}
330
29
100
AcDbVisualStyle
  2
Flat
 70
     0
177
     3
291
     1
 70
    58
 90
        2
176
     1
 90
        1
176
     1
 90
        1
176
     1
 90
        2
176
     1
 40
0.6
176
     1
 40
30.0
176
     1
 62
     7
420
 16777215
176
     1
 90
        0
176
     1
 90
        0
176
     1
 62
     7
176
     1
 62
   257
176
     1
 90
        1
176
     1
 90
        1
176
     1
 40
1.0
176
     1
 90
        8
176
     1
 62
     7
176
     1
 40
1.0
176
     1
 90
        1
176
     1
 90
        6
176
     1
 90
        2
176
     1
 62
     7
176
     1
 90
        5
176
     1
 90
        0
176
     1
 90
        0
176
     1
290
     0
176
     1
 90
       13
176
     1
 40
0.0
176
     1
 90
        0
176
     1
290
     0
176
     1
290
     1
176
     1
290
     1
176
     1
290
     0
176
     1
290
     0
176
     1
290
     0
176
     1
290
     0
176
     1
290
     0
176
     1
290
     0
176
     1
 90
       50
176
     1
 40
0.0
176
     1
 40
1.0
176
     1
 90
        0
176
     1
 62
    18
420
        0
176
     1
 90
       50
176
     1
 90
        3
176
     1
 62
     5
420
      255
176
     1
290
     0
176
     1
 90
       50
176
     1
 90
       50
176
     1
 90
       50
176
     1
290
     0
176
     1
 90
       50
176
     1
 62
   256
176
     0
 40
1.0
176
     0
 90
        2
176
     1
  1
strokes_ogs.tif
176
     1
290
     0
176
     1
 40
1.0
176
     1
 40
1.0
176
     1
1001
ACAD
1000
AcDbSavedByObjectVersion
1070
     0
  0
VISUALSTYLE
  5
2B
102
{ACAD_REACTORS
330
29
102
}
330
29
100
AcDbVisualStyle
  2
FlatWithEdges
 70
     1
177
     3
291
     1
 70
    58
 90
        2
176
     1
 90
        1
176
     1
 90
        1
176
     1
 90
        2
176
     1
 40
0.6
176
     1
 40
30.0
176
     1
 62
     7
420
 16777215
176
     1
 90
        1
176
     1
 90
        0
176
     1
 62
     7
176
     1
 62
   257
176
     1
 90
        1
176
     1
 90
        1
176
     1
 40
1.0
176
     1
 90
        0
176
     1
 62
   257
176
     1
 40
1.0
176
     1
 90
        1
176
     1
 90
        6
176
     1
 90
        2
176
     1
 62
     7
176
     1
 90
        5
176
     1
 90
        0
176
     1
 90
        0
176
     1
290
     0
176
     1
 90
       13
176
     1
 40
0.0
176
     1
 90
        0
176
     1
290
     0
176
     1
290
     1
176
     1
290
     1
176
     1
290
     0
176
     1
290
     0
176
     1
290
     0
176
     1
290
     0
176
     1
290
     0
176
     1
290
     0
176
     1
 90
       50
176
     1
 40
0.0
176
     1
 40
1.0
176
     1
 90
        0
176
     1
 62
    18
420
        0
176
     1
 90
       50
176
     1
 90
        3
176
     1
 62
     5
420
      255
176
     1
290
     0
176
     1
 90
       50
176
     1
 90
       50
176
     1
 90
       50
176
     1
290
     0
176
     1
 90
       50
176
     1
 62
   256
176
     0
 40
1.0
176
     0
 90
        2
176
     1
  1
strokes_ogs.tif
176
     1
290
     0
176
     1
 40
1.0
176
     1
 40
1.0
176
     1
1001
ACAD
1000
AcDbSavedByObjectVersion
1070
     0
  0
VISUALSTYLE
  5
2C
102
{ACAD_REACTORS
330
29
102
}
330
29
100
AcDbVisualStyle
  2
Gouraud
 70
     2
177
     3
291
     1
 70
    58
 90
        2
176
     1
 90
        2
176
     1
 90
        1
176
     1
 90
        2
176
     1
 40
0.6
176
     1
 40
30.0
176
     1
 62
     7
420
 16777215
176
     1
 90
        0
176
     1
 90
        0
176
     1
 62
     7
176
     1
 62
   257
176
     1
 90
        1
176
     1
 90
        1
176
     1
 40
1.0
176
     1
 90
        0
176
     1
 62
     7
176
     1
 40
1.0
176
     1
 90
        1
176
     1
 90
        6
176
     1
 90
        2
176
     1
 62
     7
176
     1
 90
        5
176
     1
 90
        0
176
     1
 90
        0
176
     1
290
     0
176
     1
 90
       13
176
     1
 40
0.0
176
     1
 90
        0
176
     1
290
     0
176
     1
290
     1
176
     1
290
     1
176
     1
290
     0
176
     1
290
     0
176
     1
290
     0
176
     1
290
     0
176
     1
290
     0
176
     1
290
     0
176
     1
 90
       50
176
     1
 40
0.0
176
     1
 40
1.0
176
     1
 90
        0
176
     1
 62
    18
420
        0
176
     1
 90
       50
176
     1
 90
        3
176
     1
 62
     5
420
      255
176
     1
290
     0
176
     1
 90
       50
176
     1
 90
       50
176
     1
 90
       50
176
     1
290
     0
176
     1
 90
       50
176
     1
 62
   256
176
     0
 40
1.0
176
     0
 90
        2
176
     1
  1
strokes_ogs.tif
176
     1
290
     0
176
     1
 40
1.0
176
     1
 40
1.0
176
     1
1001
ACAD
1000
AcDbSavedByObjectVersion
1070
     0
  0
VISUALSTYLE
  5
2D
102
{ACAD_REACTORS
330
29
102
}
330
29
100
AcDbVisualStyle
  2
GouraudWithEdges
 70
     3
177
     3
291
     1
 70
    58
 90
        2
176
     1
 90
        2
176
     1
 90
        1
176
     1
 90
        2
176
     1
 40
0.6
176
     1
 40
30.0
176
     1
 62
     7
420
 16777215
176
     1
 90
        1
176
     1
 90
        0
176
     1
 62
     7
176
     1
 62
   257
176
     1
 90
        1
176
     1
 90
        1
176
     1
 40
1.0
176
     1
 90
        0
176
     1
 62
   257
176
     1
 40
1.0
176
     1
 90
        1
176
     1
 90
        6
176
     1
 90
        2
176
     1
 62
     7
176
     1
 90
        5
176
     1
 90
        0
176
     1
 90
        0
176
     1
290
     0
176
     1
 90
       13
176
     1
 40
0.0
176
     1
 90
        0
176
     1
290
     0
176
     1
290
     1
176
     1
290
     1
176
     1
290
     0
176
     1
290
     0
176
     1
290
     0
176
     1
290
     0
176
     1
290
     0
176
     1
290
     0
176
     1
 90
       50
176
     1
 40
0.0
176
     1
 40
1.0
176
     1
 90
        0
176
     1
 62
    18
420
        0
176
     1
 90
       50
176
     1
 90
        3
176
     1
 62
     5
420
      255
176
     1
290
     0
176
     1
 90
       50
176
     1
 90
       50
176
     1
 90
       50
176
     1
290
     0
176
     1
 90
       50
176
     1
 62
   256
176
     0
 40
1.0
176
     0
 90
        2
176
     1
  1
strokes_ogs.tif
176
     1
290
     0
176
     1
 40
1.0
176
     1
 40
1.0
176
     1
1001
ACAD
1000
AcDbSavedByObjectVersion
1070
     0
  0
VISUALSTYLE
  5
31
102
{ACAD_REACTORS
330
29
102
}
330
29
100
AcDbVisualStyle
  2
Hidden
 70
     6
177
     3
291
     0
 70
    58
 90
        1
176
     1
 90
        2
176
     1
 90
        2
176
     1
 90
        0
176
     1
 40
0.6
176
     1
 40
30.0
176
     1
 62
     7
420
 16777215
176
     1
 90
        2
176
     1
 90
        2
176
     1
 62
     7
176
     1
 62
   257
176
     1
 90
        2
176
     1
 90
        1
176
     1
 40
40.0
176
     1
 90
        0
176
     1
 62
   257
176
     1
 40
1.0
176
     1
 90
        1
176
     1
 90
        6
176
     1
 90
        2
176
     1
 62
     7
176
     1
 90
        3
176
     1
 90
        0
176
     1
 90
        0
176
     1
290
     0
176
     1
 90
        1
176
     1
 40
0.0
176
     1
 90
        0
176
     1
290
     0
176
     1
290
     1
176
     1
290
     1
176
     1
290
     0
176
     1
290
     0
176
     1
290
     0
176
     1
290
     0
176
     1
290
     0
176
     1
290
     0
176
     1
 90
       50
176
     1
 40
0.0
176
     1
 40
1.0
176
     1
 90
        0
176
     1
 62
    18
420
        0
176
     1
 90
       50
176
     1
 90
        3
176
     1
 62
     5
420
      255
176
     1
290
     0
176
     1
 90
       50
176
     1
 90
       50
176
     1
 90
       50
176
     1
290
     0
176
     1
 90
       50
176
     1
 62
   256
176
     0
 40
1.0
176
     0
 90
        2
176
     1
  1
strokes_ogs.tif
176
     1
290
     0
176
     1
 40
1.0
176
     1
 40
1.0
176
     1
1001
ACAD
1000
AcDbSavedByObjectVersion
1070
     0
  0
VISUALSTYLE
  5
3F
102
{ACAD_REACTORS
330
29
102
}
330
29
100
AcDbVisualStyle
  2
JitterOff
 70
    20
177
     3
291
     1
 70
    58
 90
        2
176
     0
 90
        2
176
     0
 90
        0
176
     0
 90
        0
176
     0
 40
0.6
176
     0
 40
30.0
176
     0
 62
     7
420
 16777215
176
     0
 90
        1
176
     0
 90
        4
176
     0
 62
     7
176
     0
 62
   257
176
     0
 90
        1
176
     0
 90
        1
176
     0
 40
1.0
176
     0
 90
       10
176
     2
 62
     7
176
     0
 40
1.0
176
     0
 90
        1
176
     0
 90
        6
176
     0
 90
        2
176
     0
 62
     7
176
     0
 90
        5
176
     0
 90
        0
176
     0
 90
        0
176
     0
290
     0
176
     0
 90
        1
176
     0
 40
0.0
176
     0
 90
        0
176
     0
290
     0
176
     0
290
     1
176
     0
290
     1
176
     0
290
     0
176
     0
290
     0
176
     0
290
     0
176
     0
290
     0
176
     0
290
     0
176
     0
290
     0
176
     0
 90
       50
176
     0
 40
0.0
176
     0
 40
1.0
176
     0
 90
        0
176
     0
 62
    18
420
        0
176
     0
 90
       50
176
     0
 90
        3
176
     0
 62
     5
420
      255
176
     0
290
     0
176
     0
 90
       50
176
     0
 90
       50
176
     0
 90
       50
176
     0
290
     0
176
     0
 90
       50
176
     0
 62
   256
176
     0
 40
1.0
176
     0
 90
        2
176
     0
  1
strokes_ogs.tif
176
     0
290
     0
176
     0
 40
1.0
176
     0
 40
1.0
176
     0
1001
ACAD
1000
AcDbSavedByObjectVersion
1070
     0
  0
VISUALSTYLE
  5
37
102
{ACAD_REACTORS
330
29
102
}
330
29
100
AcDbVisualStyle
  2
Linepattern
 70
    14
177
     3
291
     1
 70
    58
 90
        2
176
     1
 90
        2
176
     1
 90
        0
176
     1
 90
        0
176
     1
 40
0.6
176
     1
 40
30.0
176
     1
 62
     7
420
 16777215
176
     1
 90
        1
176
     1
 90
        4
176
     1
 62
     7
176
     1
 62
   257
176
     1
 90
        7
176
     1
 90
        7
176
     1
 40
1.0
176
     1
 90
        8
176
     1
 62
     7
176
     1
 40
1.0
176
     1
 90
        1
176
     1
 90
        6
176
     1
 90
        2
176
     1
 62
     7
176
     1
 90
        5
176
     1
 90
        0
176
     1
 90
        0
176
     1
290
     0
176
     1
 90
        1
176
     1
 40
0.0
176
     1
 90
        0
176
     1
290
     0
176
     1
290
     1
176
     1
290
     1
176
     1
290
     0
176
     1
290
     0
176
     1
290
     0
176
     1
290
     0
176
     1
290
     0
176
     1
290
     0
176
     1
 90
       50
176
     1
 40
0.0
176
     1
 40
1.0
176
     1
 90
        0
176
     1
 62
    18
420
        0
176
     1
 90
       50
176
     1
 90
        3
176
     1
 62
     5
420
      255
176
     1
290
     0
176
     1
 90
       50
176
     1
 90
       50
176
     1
 90
       50
176
     1
290
     0
176
     1
 90
       50
176
     1
 62
   256
176
     0
 40
1.0
176
     0
 90
        2
176
     1
  1
strokes_ogs.tif
176
     1
290
     0
176
     1
 40
1.0
176
     1
 40
1.0
176
     1
1001
ACAD
1000
AcDbSavedByObjectVersion
1070
     0
  0
VISUALSTYLE
  5
40
102
{ACAD_REACTORS
330
29
102
}
330
29
100
AcDbVisualStyle
  2
OverhangOff
 70
    21
177
     3
291
     1
 70
    58
 90
        2
176
     0
 90
        2
176
     0
 90
        0
176
     0
 90
        0
176
     0
 40
0.6
176
     0
 40
30.0
176
     0
 62
     7
420
 16777215
176
     0
 90
        1
176
     0
 90
        4
176
     0
 62
     7
176
     0
 62
   257
176
     0
 90
        1
176
     0
 90
        1
176
     0
 40
1.0
176
     0
 90
        9
176
     2
 62
     7
176
     0
 40
1.0
176
     0
 90
        1
176
     0
 90
        6
176
     0
 90
        2
176
     0
 62
     7
176
     0
 90
        5
176
     0
 90
        0
176
     0
 90
        0
176
     0
290
     0
176
     0
 90
        1
176
     0
 40
0.0
176
     0
 90
        0
176
     0
290
     0
176
     0
290
     1
176
     0
290
     1
176
     0
290
     0
176
     0
290
     0
176
     0
290
     0
176
     0
290
     0
176
     0
290
     0
176
     0
290
     0
176
     0
 90
       50
176
     0
 40
0.0
176
     0
 40
1.0
176
     0
 90
        0
176
     0
 62
    18
420
        0
176
     0
 90
       50
176
     0
 90
        3
176
     0
 62
     5
420
      255
176
     0
290
     0
176
     0
 90
       50
176
     0
 90
       50
176
     0
 90
       50
176
     0
290
     0
176
     0
 90
       50
176
     0
 62
   256
176
     0
 40
1.0
176
     0
 90
        2
176
     0
  1
strokes_ogs.tif
176
     0
290
     0
176
     0
 40
1.0
176
     0
 40
1.0
176
     0
1001
ACAD
1000
AcDbSavedByObjectVersion
1070
     0
  0
VISUALSTYLE
  5
33
102
{ACAD_REACTORS
330
29
102
}
330
29
100
AcDbVisualStyle
  2
Realistic
 70
     8
177
     3
291
     0
 70
    58
 90
        2
176
     1
 90
        3
176
     1
 90
        0
176
     1
 90
        2
176
     1
 40
0.6
176
     1
 40
30.0
176
     1
 62
     7
420
 16777215
176
     1
 90
        0
176
     1
 90
        0
176
     1
 62
     7
176
     1
 62
   257
176
     1
 90
        1
176
     1
 90
        1
176
     1
 40
1.0
176
     1
 90
        8
176
     1
 62
   257
176
     1
 40
1.0
176
     1
 90
        1
176
     1
 90
        6
176
     1
 90
        2
176
     1
 62
     7
176
     1
 90
        3
176
     1
 90
        0
176
     1
 90
        0
176
     1
290
     0
176
     1
 90
       13
176
     1
 40
0.0
176
     1
 90
        0
176
     1
290
     0
176
     1
290
     1
176
     1
290
     1
176
     1
290
     0
176
     1
290
     0
176
     1
290
     0
176
     1
290
     0
176
     1
290
     0
176
     1
290
     0
176
     1
 90
       50
176
     1
 40
0.0
176
     1
 40
1.0
176
     1
 90
        0
176
     1
 62
    18
420
        0
176
     1
 90
       50
176
     1
 90
        3
176
     1
 62
     5
420
      255
176
     1
290
     0
176
     1
 90
       50
176
     1
 90
       50
176
     1
 90
       50
176
     1
290
     0
176
     1
 90
       50
176
     1
 62
   256
176
     0
 40
1.0
176
     0
 90
        2
176
     1
  1
strokes_ogs.tif
176
     1
290
     0
176
     1
 40
1.0
176
     1
 40
1.0
176
     1
1001
ACAD
1000
AcDbSavedByObjectVersion
1070
     0
  0
VISUALSTYLE
  5
3E
102
{ACAD_REACTORS
330
29
102
}
330
29
100
AcDbVisualStyle
  2
Shaded
 70
    27
177
     3
291
     0
 70
    58
 90
        2
176
     1
 90
        2
176
     1
 90
        1
176
     1
 90
        2
176
     1
 40
0.6
176
     1
 40
30.0
176
     1
 62
     7
420
 16777215
176
     1
 90
        0
176
     1
 90
        4
176
     1
 62
     7
176
     1
 62
   257
176
     1
 90
        1
176
     1
 90
        1
176
     1
 40
1.0
176
     1
 90
        8
176
     1
 62
   257
176
     1
 40
1.0
176
     1
 90
        1
176
     1
 90
        6
176
     1
 90
        2
176
     1
 62
     8
420
  7895160
176
     1
 90
        3
176
     1
 90
        0
176
     1
 90
        0
176
     1
290
     0
176
     1
 90
        5
176
     1
 40
0.0
176
     1
 90
        0
176
     1
290
     0
176
     1
290
     1
176
     1
290
     1
176
     1
290
     0
176
     1
290
     0
176
     1
290
     0
176
     1
290
     0
176
     1
290
     0
176
     1
290
     0
176
     1
 90
       50
176
     1
 40
0.0
176
     1
 40
1.0
176
     1
 90
        0
176
     1
 62
    18
420
        0
176
     1
 90
       50
176
     1
 90
        3
176
     1
 62
     5
420
      255
176
     1
290
     0
176
     1
 90
       50
176
     1
 90
       50
176
     1
 90
       50
176
     1
290
     0
176
     1
 90
       50
176
     1
 62
   256
176
     0
 40
1.0
176
     0
 90
        2
176
     1
  1
strokes_ogs.tif
176
     1
290
     0
176
     1
 40
1.0
176
     1
 40
1.0
176
     1
1001
ACAD
1000
AcDbSavedByObjectVersion
1070
     0
  0
VISUALSTYLE
  5
3D
102
{ACAD_REACTORS
330
29
102
}
330
29
100
AcDbVisualStyle
  2
Shaded with edges
 70
    26
177
     3
291
     0
 70
    58
 90
        2
176
     1
 90
        2
176
     1
 90
        1
176
     1
 90
        2
176
     1
 40
0.6
176
     1
 40
30.0
176
     1
 62
     7
420
 16777215
176
     1
 90
        1
176
     1
 90
        2
176
     1
 62
     7
176
     1
 62
   257
176
     1
 90
        2
176
     1
 90
        1
176
     1
 40
1.0
176
     1
 90
        8
176
     1
 62
   257
176
     1
 40
1.0
176
     1
 90
        1
176
     1
 90
        6
176
     1
 90
        2
176
     1
 62
     7
176
     1
 90
        3
176
     1
 90
        0
176
     1
 90
        0
176
     1
290
     0
176
     1
 90
        5
176
     1
 40
0.0
176
     1
 90
        0
176
     1
290
     0
176
     1
290
     1
176
     1
290
     1
176
     1
290
     0
176
     1
290
     0
176
     1
290
     0
176
     1
290
     0
176
     1
290
     0
176
     1
290
     0
176
     1
 90
       50
176
     1
 40
0.0
176
     1
 40
1.0
176
     1
 90
        0
176
     1
 62
    18
420
        0
176
     1
 90
       50
176
     1
 90
        3
176
     1
 62
     5
420
      255
176
     1
290
     0
176
     1
 90
       50
176
     1
 90
       50
176
     1
 90
       50
176
     1
290
     0
176
     1
 90
       50
176
     1
 62
   256
176
     0
 40
1.0
176
     0
 90
        2
176
     1
  1
strokes_ogs.tif
176
     1
290
     0
176
     1
 40
1.0
176
     1
 40
1.0
176
     1
1001
ACAD
1000
AcDbSavedByObjectVersion
1070
     0
  0
VISUALSTYLE
  5
3A
102
{ACAD_REACTORS
330
29
102
}
330
29
100
AcDbVisualStyle
  2
Shades of Gray
 70
    23
177
     3
291
     0
 70
    58
 90
        2
176
     1
 90
        2
176
     1
 90
        3
176
     1
 90
        0
176
     1
 40
0.6
176
     1
 40
30.0
176
     1
 62
     7
420
 16777215
176
     1
 90
        2
176
     1
 90
        2
176
     1
 62
     7
176
     1
 62
     7
176
     1
 90
        1
176
     1
 90
        1
176
     1
 40
40.0
176
     1
 90
        8
176
     1
 62
     7
176
     1
 40
1.0
176
     1
 90
        1
176
     1
 90
        6
176
     1
 90
        2
176
     1
 62
     7
176
     1
 90
        3
176
     1
 90
        0
176
     1
 90
        0
176
     1
290
     0
176
     1
 90
        1
176
     1
 40
0.0
176
     1
 90
        0
176
     1
290
     0
176
     1
290
     1
176
     1
290
     1
176
     1
290
     0
176
     1
290
     0
176
     1
290
     0
176
     1
290
     0
176
     1
290
     0
176
     1
290
     0
176
     1
 90
       50
176
     1
 40
0.0
176
     1
 40
1.0
176
     1
 90
        0
176
     1
 62
    18
420
        0
176
     1
 90
       50
176
     1
 90
        3
176
     1
 62
     5
420
      255
176
     1
290
     0
176
     1
 90
       50
176
     1
 90
       50
176
     1
 90
       50
176
     1
290
     0
176
     1
 90
       50
176
     1
 62
   256
176
     0
 40
1.0
176
     0
 90
        2
176
     1
  1
strokes_ogs.tif
176
     1
290
     0
176
     1
 40
1.0
176
     1
 40
1.0
176
     1
1001
ACAD
1000
AcDbSavedByObjectVersion
1070
     0
  0
VISUALSTYLE
  5
3B
102
{ACAD_REACTORS
330
29
102
}
330
29
100
AcDbVisualStyle
  2
Sketchy
 70
    24
177
     3
291
     0
 70
    58
 90
        1
176
     1
 90
        2
176
     1
 90
        2
176
     1
 90
        0
176
     1
 40
0.6
176
     1
 40
30.0
176
     1
 62
     7
420
 16777215
176
     1
 90
        2
176
     1
 90
        2
176
     1
 62
     7
176
     1
 62
     7
176
     1
 90
        1
176
     1
 90
        1
176
     1
 40
40.0
176
     1
 90
       11
176
     1
 62
     7
176
     1
 40
1.0
176
     1
 90
        1
176
     1
 90
        6
176
     1
 90
        2
176
     1
 62
     7
176
     1
 90
        6
176
     1
 90
        0
176
     1
 90
        0
176
     1
290
     0
176
     1
 90
        1
176
     1
 40
0.0
176
     1
 90
        0
176
     1
290
     0
176
     1
290
     1
176
     1
290
     1
176
     1
290
     0
176
     1
290
     0
176
     1
290
     0
176
     1
290
     0
176
     1
290
     0
176
     1
290
     0
176
     1
 90
       50
176
     1
 40
0.0
176
     1
 40
1.0
176
     1
 90
        0
176
     1
 62
    18
420
        0
176
     1
 90
       50
176
     1
 90
        3
176
     1
 62
     5
420
      255
176
     1
290
     0
176
     1
 90
       50
176
     1
 90
       50
176
     1
 90
       50
176
     1
290
     0
176
     1
 90
       50
176
     1
 62
   256
176
     0
 40
1.0
176
     0
 90
        2
176
     1
  1
strokes_ogs.tif
176
     1
290
     0
176
     1
 40
1.0
176
     1
 40
1.0
176
     1
1001
ACAD
1000
AcDbSavedByObjectVersion
1070
     0
  0
VISUALSTYLE
  5
36
102
{ACAD_REACTORS
330
29
102
}
330
29
100
AcDbVisualStyle
  2
Thicken
 70
    13
177
     3
291
     1
 70
    58
 90
        2
176
     1
 90
        2
176
     1
 90
        0
176
     1
 90
        0
176
     1
 40
0.6
176
     1
 40
30.0
176
     1
 62
     7
420
 16777215
176
     1
 90
        1
176
     1
 90
        4
176
     1
 62
     7
176
     1
 62
   257
176
     1
 90
        1
176
     1
 90
        1
176
     1
 40
1.0
176
     1
 90
       12
176
     1
 62
     7
176
     1
 40
1.0
176
     1
 90
        1
176
     1
 90
        6
176
     1
 90
        2
176
     1
 62
     7
176
     1
 90
        5
176
     1
 90
        0
176
     1
 90
        0
176
     1
290
     0
176
     1
 90
        1
176
     1
 40
0.0
176
     1
 90
        0
176
     1
290
     0
176
     1
290
     1
176
     1
290
     1
176
     1
290
     0
176
     1
290
     0
176
     1
290
     0
176
     1
290
     0
176
     1
290
     0
176
     1
290
     0
176
     1
 90
       50
176
     1
 40
0.0
176
     1
 40
1.0
176
     1
 90
        0
176
     1
 62
    18
420
        0
176
     1
 90
       50
176
     1
 90
        3
176
     1
 62
     5
420
      255
176
     1
290
     0
176
     1
 90
       50
176
     1
 90
       50
176
     1
 90
       50
176
     1
290
     0
176
     1
 90
       50
176
     1
 62
   256
176
     0
 40
1.0
176
     0
 90
        2
176
     1
  1
strokes_ogs.tif
176
     1
290
     0
176
     1
 40
1.0
176
     1
 40
1.0
176
     1
1001
ACAD
1000
AcDbSavedByObjectVersion
1070
     0
  0
VISUALSTYLE
  5
30
102
{ACAD_REACTORS
330
29
102
}
330
29
100
AcDbVisualStyle
  2
Wireframe
 70
     5
177
     3
291
     0
 70
    58
 90
        0
176
     1
 90
        2
176
     1
 90
        0
176
     1
 90
        0
176
     1
 40
0.6
176
     1
 40
30.0
176
     1
 62
     7
420
 16777215
176
     1
 90
        1
176
     1
 90
        4
176
     1
 62
     7
176
     1
 62
   257
176
     1
 90
        1
176
     1
 90
        1
176
     1
 40
1.0
176
     1
 90
        0
176
     1
 62
   257
176
     1
 40
1.0
176
     1
 90
        1
176
     1
 90
        6
176
     1
 90
        2
176
     1
 62
     7
176
     1
 90
        3
176
     1
 90
        0
176
     1
 90
        0
176
     1
290
     0
176
     1
 90
        1
176
     1
 40
0.0
176
     1
 90
        0
176
     1
290
     0
176
     1
290
     1
176
     1
290
     1
176
     1
290
     0
176
     1
290
     0
176
     1
290
     0
176
     1
290
     0
176
     1
290
     0
176
     1
290
     0
176
     1
 90
       50
176
     1
 40
0.0
176
     1
 40
1.0
176
     1
 90
        0
176
     1
 62
    18
420
        0
176
     1
 90
       50
176
     1
 90
        3
176
     1
 62
     5
420
      255
176
     1
290
     0
176
     1
 90
       50
176
     1
 90
       50
176
     1
 90
       50
176
     1
290
     0
176
     1
 90
       50
176
     1
 62
   256
176
     0
 40
1.0
176
     0
 90
        2
176
     1
  1
strokes_ogs.tif
176
     1
290
     0
176
     1
 40
1.0
176
     1
 40
1.0
176
     1
1001
ACAD
1000
AcDbSavedByObjectVersion
1070
     0
  0
VISUALSTYLE
  5
3C
102
{ACAD_REACTORS
330
29
102
}
330
29
100
AcDbVisualStyle
  2
X-Ray
 70
    25
177
     3
291
     0
 70
    58
 90
        2
176
     1
 90
        2
176
     1
 90
        1
176
     1
 90
        1
176
     1
 40
0.5
176
     1
 40
30.0
176
     1
 62
     7
420
 16777215
176
     1
 90
        1
176
     1
 90
        0
176
     1
 62
     7
176
     1
 62
   257
176
     1
 90
        1
176
     1
 90
        1
176
     1
 40
1.0
176
     1
 90
        8
176
     1
 62
     7
176
     1
 40
1.0
176
     1
 90
        1
176
     1
 90
        6
176
     1
 90
        2
176
     1
 62
     7
176
     1
 90
        3
176
     1
 90
        0
176
     1
 90
        0
176
     1
290
     0
176
     1
 90
       13
176
     1
 40
0.0
176
     1
 90
        0
176
     1
290
     0
176
     1
290
     1
176
     1
290
     1
176
     1
290
     0
176
     1
290
     0
176
     1
290
     0
176
     1
290
     0
176
     1
290
     0
176
     1
290
     0
176
     1
 90
       50
176
     1
 40
0.0
176
     1
 40
1.0
176
     1
 90
        0
176
     1
 62
    18
420
        0
176
     1
 90
       50
176
     1
 90
        3
176
     1
 62
     5
420
      255
176
     1
290
     0
176
     1
 90
       50
176
     1
 90
       50
176
     1
 90
       50
176
     1
290
     0
176
     1
 90
       50
176
     1
 62
   256
176
     0
 40
1.0
176
     0
 90
        2
176
     1
  1
strokes_ogs.tif
176
     1
290
     0
176
     1
 40
1.0
176
     1
 40
1.0
176
     1
1001
ACAD
1000
AcDbSavedByObjectVersion
1070
     0
  0
DICTIONARYVAR
  5
83
102
{ACAD_REACTORS
330
7E
102
}
330
7E
100
DictionaryVariables
280
     0
  1
1:1
  0
DICTIONARYVAR
  5
80
102
{ACAD_REACTORS
330
7E
102
}
330
7E
100
DictionaryVariables
280
     0
  1
STANDARD
  0
DICTIONARYVAR
  5
7F
102
{ACAD_REACTORS
330
7E
102
}
330
7E
100
DictionaryVariables
280
     0
  1
STANDARD
  0
DICTIONARYVAR
  5
81
102
{ACAD_REACTORS
330
7E
102
}
330
7E
100
DictionaryVariables
280
     0
  1
Imperial24
  0
DICTIONARYVAR
  5
82
102
{ACAD_REACTORS
330
7E
102
}
330
7E
100
DictionaryVariables
280
     0
  1
Imperial24
  0
DICTIONARY
  5
89
330
6B
100
AcDbDictionary
280
     1
281
     1
  3
ACAD_XREC_ROUNDTRIP
360
8A
  0
DICTIONARY
  5
1A
330
19
100
AcDbDictionary
280
     1
281
     1
  3
BUMPTILE
360
1C
  3
DIFFUSETILE
360
1B
  3
OPACITYTILE
360
1F
  3
REFLECTIONTILE
360
1E
  3
REFRACTIONTILE
360
20
  3
SPECULARTILE
360
1D
  0
DICTIONARY
  5
12
330
11
100
AcDbDictionary
280
     1
281
     1
  3
BUMPTILE
360
14
  3
DIFFUSETILE
360
13
  3
OPACITYTILE
360
17
  3
REFLECTIONTILE
360
16
  3
REFRACTIONTILE
360
18
  3
SPECULARTILE
360
15
  0
DICTIONARY
  5
22
330
21
100
AcDbDictionary
280
     1
281
     1
  3
BUMPTILE
360
24
  3
DIFFUSETILE
360
23
  3
OPACITYTILE
360
27
  3
REFLECTIONTILE
360
26
  3
REFRACTIONTILE
360
28
  3
SPECULARTILE
360
25
  0
DICTIONARY
  5
87
330
69
100
AcDbDictionary
280
     1
281
     1
  3
ACAD_XREC_ROUNDTRIP
360
88
  0
DICTIONARY
  5
84
330
65
100
AcDbDictionary
280
     1
281
     1
  3
ACAD_ROUNDTRIP_2008_TABLESTYLE_CELLSTYLEMAP
360
85
  0
XRECORD
  5
8A
102
{ACAD_REACTORS
330
89
102
}
330
89
100
AcDbXrecord
280
     1
102
DISPLAYNAME
  1
Imperial24
102
FLAGS
 90
        0
  0
XRECORD
  5
1C
102
{ACAD_REACTORS
330
1A
102
}
330
1A
100
AcDbXrecord
280
     1
270
     1
271
     1
  0
XRECORD
  5
1B
102
{ACAD_REACTORS
330
1A
102
}
330
1A
100
AcDbXrecord
280
     1
270
     1
271
     1
  0
XRECORD
  5
1F
102
{ACAD_REACTORS
330
1A
102
}
330
1A
100
AcDbXrecord
280
     1
270
     1
271
     1
  0
XRECORD
  5
1E
102
{ACAD_REACTORS
330
1A
102
}
330
1A
100
AcDbXrecord
280
     1
270
     1
271
     1
  0
XRECORD
  5
20
102
{ACAD_REACTORS
330
1A
102
}
330
1A
100
AcDbXrecord
280
     1
270
     1
271
     1
  0
XRECORD
  5
1D
102
{ACAD_REACTORS
330
1A
102
}
330
1A
100
AcDbXrecord
280
     1
270
     1
271
     1
  0
XRECORD
  5
14
102
{ACAD_REACTORS
330
12
102
}
330
12
100
AcDbXrecord
280
     1
270
     1
271
     1
  0
XRECORD
  5
13
102
{ACAD_REACTORS
330
12
102
}
330
12
100
AcDbXrecord
280
     1
270
     1
271
     1
  0
XRECORD
  5
17
102
{ACAD_REACTORS
330
12
102
}
330
12
100
AcDbXrecord
280
     1
270
     1
271
     1
  0
XRECORD
  5
16
102
{ACAD_REACTORS
330
12
102
}
330
12
100
AcDbXrecord
280
     1
270
     1
271
     1
  0
XRECORD
  5
18
102
{ACAD_REACTORS
330
12
102
}
330
12
100
AcDbXrecord
280
     1
270
     1
271
     1
  0
XRECORD
  5
15
102
{ACAD_REACTORS
330
12
102
}
330
12
100
AcDbXrecord
280
     1
270
     1
271
     1
  0
XRECORD
  5
24
102
{ACAD_REACTORS
330
22
102
}
330
22
100
AcDbXrecord
280
     1
270
     1
271
     1
  0
XRECORD
  5
23
102
{ACAD_REACTORS
330
22
102
}
330
22
100
AcDbXrecord
280
     1
270
     1
271
     1
  0
XRECORD
  5
27
102
{ACAD_REACTORS
330
22
102
}
330
22
100
AcDbXrecord
280
     1
270
     1
271
     1
  0
XRECORD
  5
26
102
{ACAD_REACTORS
330
22
102
}
330
22
100
AcDbXrecord
280
     1
270
     1
271
     1
  0
XRECORD
  5
28
102
{ACAD_REACTORS
330
22
102
}
330
22
100
AcDbXrecord
280
     1
270
     1
271
     1
  0
XRECORD
  5
25
102
{ACAD_REACTORS
330
22
102
}
330
22
100
AcDbXrecord
280
     1
270
     1
271
     1
  0
XRECORD
  5
88
102
{ACAD_REACTORS
330
87
102
}
330
87
100
AcDbXrecord
280
     1
102
DISPLAYNAME
  1
Imperial24
102
FLAGS
 90
        0
  0
CELLSTYLEMAP
  5
85
102
{ACAD_REACTORS
330
84
102
}
330
84
100
AcDbCellStyleMap
 90
        3
300
CELLSTYLE
  1
TABLEFORMAT_BEGIN
 90
        5
170
     1
 91
        0
 92
    32768
 62
   257
 93
        1
300
CONTENTFORMAT
  1
CONTENTFORMAT_BEGIN
 90
        0
 91
        0
 92
      512
 93
        0
300

 40
0.0
140
1.0
 94
        5
 62
     0
340
55
144
0.25
309
CONTENTFORMAT_END
171
     0
 94
        0
309
TABLEFORMAT_END
  1
CELLSTYLE_BEGIN
 90
        1
 91
        1
300
_TITLE
309
CELLSTYLE_END
300
CELLSTYLE
  1
TABLEFORMAT_BEGIN
 90
        5
170
     1
 91
        0
 92
        0
 62
   257
 93
        1
300
CONTENTFORMAT
  1
CONTENTFORMAT_BEGIN
 90
        0
 91
        0
 92
      512
 93
        0
300

 40
0.0
140
1.0
 94
        5
 62
     0
340
55
144
0.18
309
CONTENTFORMAT_END
171
     0
 94
        0
309
TABLEFORMAT_END
  1
CELLSTYLE_BEGIN
 90
        2
 91
        1
300
_HEADER
309
CELLSTYLE_END
300
CELLSTYLE
  1
TABLEFORMAT_BEGIN
 90
        5
170
     1
 91
        0
 92
        0
 62
   257
 93
        1
300
CONTENTFORMAT
  1
CONTENTFORMAT_BEGIN
 90
        0
 91
        0
 92
      512
 93
        0
300

 40
0.0
140
1.0
 94
        2
 62
     0
340
55
144
0.18
309
CONTENTFORMAT_END
171
     0
 94
        0
309
TABLEFORMAT_END
  1
CELLSTYLE_BEGIN
 90
        3
 91
        2
300
_DATA
309
CELLSTYLE_END
  0
ENDSEC
  0
EOF
