  0
SECTION
  2
HEADER
  9
$ACADVER
  1
AC1027
  9
$ACADMAINTVER
 70
   125
  9
$DWGCODEPAGE
  3
ANSI_1252
  9
$REQUIREDVERSIONS
160
                 0
  9
$INSBASE
 10
0.0
 20
0.0
 30
0.0
  9
$EXTMIN
 10
1.000000000000000E+20
 20
1.000000000000000E+20
 30
1.000000000000000E+20
  9
$EXTMAX
 10
-1.000000000000000E+20
 20
-1.000000000000000E+20
 30
-1.000000000000000E+20
  9
$LIMMIN
 10
0.0
 20
0.0
  9
$LIMMAX
 10
12.0
 20
9.0
  9
$ORTHOMODE
 70
     0
  9
$REGENMODE
 70
     1
  9
$FILLMODE
 70
     1
  9
$QTEXTMODE
 70
     0
  9
$MIRRTEXT
 70
     0
  9
$LTSCALE
 40
1.0
  9
$ATTMODE
 70
     1
  9
$TEXTSIZE
 40
0.2
  9
$TRACEWID
 40
0.05
  9
$TEXTSTYLE
  7
Standard
  9
$CLAYER
  8
0
  9
$CELTYPE
  6
ByLayer
  9
$CECOLOR
 62
   256
  9
$CELTSCALE
 40
1.0
  9
$DISPSILH
 70
     0
  9
$DIMSCALE
 40
1.0
  9
$DIMASZ
 40
0.18
  9
$DIMEXO
 40
0.0625
  9
$DIMDLI
 40
0.38
  9
$DIMRND
 40
0.0
  9
$DIMDLE
 40
0.0
  9
$DIMEXE
 40
0.18
  9
$DIMTP
 40
0.0
  9
$DIMTM
 40
0.0
  9
$DIMTXT
 40
0.18
  9
$DIMCEN
 40
0.09
  9
$DIMTSZ
 40
0.0
  9
$DIMTOL
 70
     0
  9
$DIMLIM
 70
     0
  9
$DIMTIH
 70
     1
  9
$DIMTOH
 70
     1
  9
$DIMSE1
 70
     0
  9
$DIMSE2
 70
     0
  9
$DIMTAD
 70
     0
  9
$DIMZIN
 70
     0
  9
$DIMBLK
  1

  9
$DIMASO
 70
     1
  9
$DIMSHO
 70
     1
  9
$DIMPOST
  1

  9
$DIMAPOST
  1

  9
$DIMALT
 70
     0
  9
$DIMALTD
 70
     2
  9
$DIMALTF
 40
25.4
  9
$DIMLFAC
 40
1.0
  9
$DIMTOFL
 70
     0
  9
$DIMTVP
 40
0.0
  9
$DIMTIX
 70
     0
  9
$DIMSOXD
 70
     0
  9
$DIMSAH
 70
     0
  9
$DIMBLK1
  1

  9
$DIMBLK2
  1

  9
$DIMSTYLE
  2
Standard
  9
$DIMCLRD
 70
     0
  9
$DIMCLRE
 70
     0
  9
$DIMCLRT
 70
     0
  9
$DIMTFAC
 40
1.0
  9
$DIMGAP
 40
0.09
  9
$DIMJUST
 70
     0
  9
$DIMSD1
 70
     0
  9
$DIMSD2
 70
     0
  9
$DIMTOLJ
 70
     1
  9
$DIMTZIN
 70
     0
  9
$DIMALTZ
 70
     0
  9
$DIMALTTZ
 70
     0
  9
$DIMUPT
 70
     0
  9
$DIMDEC
 70
     4
  9
$DIMTDEC
 70
     4
  9
$DIMALTU
 70
     2
  9
$DIMALTTD
 70
     2
  9
$DIMTXSTY
  7
Standard
  9
$DIMAUNIT
 70
     0
  9
$DIMADEC
 70
     0
  9
$DIMALTRND
 40
0.0
  9
$DIMAZIN
 70
     0
  9
$DIMDSEP
 70
    46
  9
$DIMATFIT
 70
     3
  9
$DIMFRAC
 70
     0
  9
$DIMLDRBLK
  1

  9
$DIMLUNIT
 70
     2
  9
$DIMLWD
 70
    -2
  9
$DIMLWE
 70
    -2
  9
$DIMTMOVE
 70
     0
  9
$DIMFXL
 40
1.0
  9
$DIMFXLON
 70
     0
  9
$DIMJOGANG
 40
0.7853981633974483
  9
$DIMTFILL
 70
     0
  9
$DIMTFILLCLR
 70
     0
  9
$DIMARCSYM
 70
     0
  9
$DIMLTYPE
  6

  9
$DIMLTEX1
  6

  9
$DIMLTEX2
  6

  9
$DIMTXTDIRECTION
 70
     0
  9
$LUNITS
 70
     2
  9
$LUPREC
 70
     4
  9
$SKETCHINC
 40
0.1
  9
$FILLETRAD
 40
0.0
  9
$AUNITS
 70
     0
  9
$AUPREC
 70
     0
  9
$MENU
  1
.
  9
$ELEVATION
 40
0.0
  9
$PELEVATION
 40
0.0
  9
$THICKNESS
 40
0.0
  9
$LIMCHECK
 70
     0
  9
$CHAMFERA
 40
0.0
  9
$CHAMFERB
 40
0.0
  9
$CHAMFERC
 40
0.0
  9
$CHAMFERD
 40
0.0
  9
$SKPOLY
 70
     0
  9
$TDCREATE
 40
2459734.968773148
  9
$TDUCREATE
 40
2459734.552106481
  9
$TDUPDATE
 40
2459734.968773148
  9
$TDUUPDATE
 40
2459734.552106481
  9
$TDINDWG
 40
0.0000000000
  9
$TDUSRTIMER
 40
0.0000000000
  9
$USRTIMER
 70
     1
  9
$ANGBASE
 50
0.0
  9
$ANGDIR
 70
     0
  9
$PDMODE
 70
     0
  9
$PDSIZE
 40
0.0
  9
$PLINEWID
 40
0.0
  9
$SPLFRAME
 70
     0
  9
$SPLINETYPE
 70
     6
  9
$SPLINESEGS
 70
     8
  9
$HANDSEED
  5
98
  9
$SURFTAB1
 70
     6
  9
$SURFTAB2
 70
     6
  9
$SURFTYPE
 70
     6
  9
$SURFU
 70
     6
  9
$SURFV
 70
     6
  9
$UCSBASE
  2

  9
$UCSNAME
  2

  9
$UCSORG
 10
0.0
 20
0.0
 30
0.0
  9
$UCSXDIR
 10
1.0
 20
0.0
 30
0.0
  9
$UCSYDIR
 10
0.0
 20
1.0
 30
0.0
  9
$UCSORTHOREF
  2

  9
$UCSORTHOVIEW
 70
     0
  9
$UCSORGTOP
 10
0.0
 20
0.0
 30
0.0
  9
$UCSORGBOTTOM
 10
0.0
 20
0.0
 30
0.0
  9
$UCSORGLEFT
 10
0.0
 20
0.0
 30
0.0
  9
$UCSORGRIGHT
 10
0.0
 20
0.0
 30
0.0
  9
$UCSORGFRONT
 10
0.0
 20
0.0
 30
0.0
  9
$UCSORGBACK
 10
0.0
 20
0.0
 30
0.0
  9
$PUCSBASE
  2

  9
$PUCSNAME
  2

  9
$PUCSORG
 10
0.0
 20
0.0
 30
0.0
  9
$PUCSXDIR
 10
1.0
 20
0.0
 30
0.0
  9
$PUCSYDIR
 10
0.0
 20
1.0
 30
0.0
  9
$PUCSORTHOREF
  2

  9
$PUCSORTHOVIEW
 70
     0
  9
$PUCSORGTOP
 10
0.0
 20
0.0
 30
0.0
  9
$PUCSORGBOTTOM
 10
0.0
 20
0.0
 30
0.0
  9
$PUCSORGLEFT
 10
0.0
 20
0.0
 30
0.0
  9
$PUCSORGRIGHT
 10
0.0
 20
0.0
 30
0.0
  9
$PUCSORGFRONT
 10
0.0
 20
0.0
 30
0.0
  9
$PUCSORGBACK
 10
0.0
 20
0.0
 30
0.0
  9
$USERI1
 70
     0
  9
$USERI2
 70
     0
  9
$USERI3
 70
     0
  9
$USERI4
 70
     0
  9
$USERI5
 70
     0
  9
$USERR1
 40
0.0
  9
$USERR2
 40
0.0
  9
$USERR3
 40
0.0
  9
$USERR4
 40
0.0
  9
$USERR5
 40
0.0
  9
$WORLDVIEW
 70
     1
  9
$SHADEDGE
 70
     3
  9
$SHADEDIF
 70
    70
  9
$TILEMODE
 70
     1
  9
$MAXACTVP
 70
    64
  9
$PINSBASE
 10
0.0
 20
0.0
 30
0.0
  9
$PLIMCHECK
 70
     0
  9
$PEXTMIN
 10
1.000000000000000E+20
 20
1.000000000000000E+20
 30
1.000000000000000E+20
  9
$PEXTMAX
 10
-1.000000000000000E+20
 20
-1.000000000000000E+20
 30
-1.000000000000000E+20
  9
$PLIMMIN
 10
0.0
 20
0.0
  9
$PLIMMAX
 10
12.0
 20
9.0
  9
$UNITMODE
 70
     0
  9
$VISRETAIN
 70
     1
  9
$PLINEGEN
 70
     0
  9
$PSLTSCALE
 70
     1
  9
$TREEDEPTH
 70
  3020
  9
$CMLSTYLE
  2
Standard
  9
$CMLJUST
 70
     0
  9
$CMLSCALE
 40
1.0
  9
$PROXYGRAPHICS
 70
     1
  9
$MEASUREMENT
 70
     0
  9
$CELWEIGHT
370
    -1
  9
$ENDCAPS
280
     0
  9
$JOINSTYLE
280
     0
  9
$LWDISPLAY
290
     1
  9
$INSUNITS
 70
     4
  9
$HYPERLINKBASE
  1

  9
$STYLESHEET
  1

  9
$XEDIT
290
     1
  9
$CEPSNTYPE
380
     0
  9
$PSTYLEMODE
290
     1
  9
$FINGERPRINTGUID
  2
{258FC61D-561E-374F-BB8E-72238249CB5E}
  9
$VERSIONGUID
  2
{54845AB3-6646-BE41-B600-305513326B2C}
  9
$EXTNAMES
290
     1
  9
$PSVPSCALE
 40
0.0
  9
$OLESTARTUP
290
     0
  9
$SORTENTS
280
   127
  9
$INDEXCTL
280
     0
  9
$HIDETEXT
280
     1
  9
$XCLIPFRAME
280
     2
  9
$HALOGAP
280
     0
  9
$OBSCOLOR
 70
   257
  9
$OBSLTYPE
280
     0
  9
$INTERSECTIONDISPLAY
280
     0
  9
$INTERSECTIONCOLOR
 70
   257
  9
$DIMASSOC
280
     2
  9
$PROJECTNAME
  1

  9
$CAMERADISPLAY
290
     0
  9
$LENSLENGTH
 40
50.0
  9
$CAMERAHEIGHT
 40
0.0
  9
$STEPSPERSEC
 40
2.0
  9
$STEPSIZE
 40
6.0
  9
$3DDWFPREC
 40
2.0
  9
$PSOLWIDTH
 40
0.25
  9
$PSOLHEIGHT
 40
4.0
  9
$LOFTANG1
 40
1.570796326794896
  9
$LOFTANG2
 40
1.570796326794896
  9
$LOFTMAG1
 40
0.0
  9
$LOFTMAG2
 40
0.0
  9
$LOFTPARAM
 70
     7
  9
$LOFTNORMALS
280
     1
  9
$LATITUDE
 40
37.795
  9
$LONGITUDE
 40
-122.394
  9
$NORTHDIRECTION
 40
0.0
  9
$TIMEZONE
 70
 -8000
  9
$LIGHTGLYPHDISPLAY
280
     1
  9
$TILEMODELIGHTSYNCH
280
     1
  9
$CMATERIAL
347
11
  9
$SOLIDHIST
280
     0
  9
$SHOWHIST
280
     1
  9
$DWFFRAME
280
     2
  9
$DGNFRAME
280
     0
  9
$REALWORLDSCALE
290
     1
  9
$INTERFERECOLOR
 62
     1
  9
$INTERFEREOBJVS
345
33
  9
$INTERFEREVPVS
346
30
  9
$CSHADOW
280
     0
  9
$SHADOWPLANELOCATION
 40
0.0
  0
ENDSEC
  0
SECTION
  2
CLASSES
  0
CLASS
  1
ACDBDICTIONARYWDFLT
  2
AcDbDictionaryWithDefault
  3
ObjectDBX Classes
 90
        0
 91
        1
280
     0
281
     0
  0
CLASS
  1
MATERIAL
  2
AcDbMaterial
  3
ObjectDBX Classes
 90
     1153
 91
        3
280
     0
281
     0
  0
CLASS
  1
VISUALSTYLE
  2
AcDbVisualStyle
  3
ObjectDBX Classes
 90
     4095
 91
       24
280
     0
281
     0
  0
CLASS
  1
SCALE
  2
AcDbScale
  3
ObjectDBX Classes
 90
     1153
 91
       17
280
     0
281
     0
  0
CLASS
  1
TABLESTYLE
  2
AcDbTableStyle
  3
ObjectDBX Classes
 90
     4095
 91
        1
280
     0
281
     0
  0
CLASS
  1
MLEADERSTYLE
  2
AcDbMLeaderStyle
  3
ACDB_MLEADERSTYLE_CLASS
 90
     4095
 91
        1
280
     0
281
     0
  0
CLASS
  1
ACDBSECTIONVIEWSTYLE
  2
AcDbSectionViewStyle
  3
ObjectDBX Classes
 90
     1025
 91
        1
280
     0
281
     0
  0
CLASS
  1
ACDBDETAILVIEWSTYLE
  2
AcDbDetailViewStyle
  3
ObjectDBX Classes
 90
     1025
 91
        1
280
     0
281
     0
  0
CLASS
  1
DICTIONARYVAR
  2
AcDbDictionaryVar
  3
ObjectDBX Classes
 90
        0
 91
        5
280
     0
281
     0
  0
CLASS
  1
CELLSTYLEMAP
  2
AcDbCellStyleMap
  3
ObjectDBX Classes
 90
     1152
 91
        1
280
     0
281
     0
  0
ENDSEC
  0
SECTION
  2
TABLES
  0
TABLE
  2
VPORT
  5
8
330
0
100
AcDbSymbolTable
 70
     1
1001
ACAD
1000
DbSaveVer
1071
      247
  0
VPORT
  5
57
330
8
100
AcDbSymbolTableRecord
100
AcDbViewportTableRecord
  2
*Active
 70
     0
 10
0.0
 20
0.0
 11
1.0
 21
1.0
 12
0.0
 22
0.0
 13
0.0
 23
0.0
 14
1.0
 24
1.0
 15
0.0
 25
0.0
 16
0.0
 26
0.0
 36
1.0
 17
-111.9583333053439
 27
3.302777776952218
 37
0.0
 40
214.1999999464498
 41
0.9999999999999998
 42
50.0
 43
0.0
 44
0.0
 50
0.0
 51
0.0
 71
     0
 72
   100
 73
     1
 74
     1
 75
     0
 76
     0
 77
     0
 78
     0
281
     0
 65
     1
110
0.0
120
0.0
130
0.0
111
1.0
121
0.0
131
0.0
112
0.0
122
1.0
132
0.0
 79
     0
146
0.0
 60
     3
 61
     5
292
     1
282
     1
141
0.0
142
0.0
 63
   250
421
  3355443
  0
ENDTAB
  0
TABLE
  2
LTYPE
  5
5
330
0
100
AcDbSymbolTable
 70
     1
  0
LTYPE
  5
5B
330
5
100
AcDbSymbolTableRecord
100
AcDbLinetypeTableRecord
  2
ByBlock
 70
     0
  3

 72
    65
 73
     0
 40
0.0
  0
LTYPE
  5
5C
330
5
100
AcDbSymbolTableRecord
100
AcDbLinetypeTableRecord
  2
ByLayer
 70
     0
  3

 72
    65
 73
     0
 40
0.0
  0
LTYPE
  5
5D
330
5
100
AcDbSymbolTableRecord
100
AcDbLinetypeTableRecord
  2
Continuous
 70
     0
  3
Solid line
 72
    65
 73
     0
 40
0.0
  0
ENDTAB
  0
TABLE
  2
LAYER
  5
2
330
0
100
AcDbSymbolTable
 70
     2
  0
LAYER
  5
54
330
2
100
AcDbSymbolTableRecord
100
AcDbLayerTableRecord
  2
0
 70
     0
 62
     7
  6
Continuous
370
    -3
390
F
347
21
348
0
  0
LAYER
  5
78
330
2
100
AcDbSymbolTableRecord
100
AcDbLayerTableRecord
  2
Layer 1
 70
     0
 62
     7
  6
Continuous
370
     0
390
F
347
21
348
0
  0
ENDTAB
  0
TABLE
  2
STYLE
  5
3
330
0
100
AcDbSymbolTable
 70
     2
  0
STYLE
  5
55
330
3
100
AcDbSymbolTableRecord
100
AcDbTextStyleTableRecord
  2
Standard
 70
     0
 40
0.0
 41
1.0
 50
0.0
 71
     0
 42
0.2
  3
txt
  4

  0
STYLE
  5
5A
330
3
100
AcDbSymbolTableRecord
100
AcDbTextStyleTableRecord
  2
Annotative
 70
     0
 40
0.0
 41
1.0
 50
0.0
 71
     0
 42
0.2
  3
txt
  4

1001
AcadAnnotative
1000
AnnotativeData
1002
{
1070
     1
1070
     1
1002
}
  0
ENDTAB
  0
TABLE
  2
VIEW
  5
6
330
0
100
AcDbSymbolTable
 70
     0
  0
ENDTAB
  0
TABLE
  2
UCS
  5
7
330
0
100
AcDbSymbolTable
 70
     0
  0
ENDTAB
  0
TABLE
  2
APPID
  5
9
330
0
100
AcDbSymbolTable
 70
     2
  0
APPID
  5
56
330
9
100
AcDbSymbolTableRecord
100
AcDbRegAppTableRecord
  2
ACAD
 70
     0
  0
APPID
  5
5E
330
9
100
AcDbSymbolTableRecord
100
AcDbRegAppTableRecord
  2
AcadAnnotative
 70
     0
  0
ENDTAB
  0
TABLE
  2
DIMSTYLE
  5
A
330
0
100
AcDbSymbolTable
 70
     2
100
AcDbDimStyleTable
 71
     0
  0
DIMSTYLE
105
58
330
A
100
AcDbSymbolTableRecord
100
AcDbDimStyleTableRecord
  2
Standard
 70
     0
340
55
  0
DIMSTYLE
105
59
330
A
100
AcDbSymbolTableRecord
100
AcDbDimStyleTableRecord
  2
Annotative
 70
     0
340
55
1001
AcadAnnotative
1000
AnnotativeData
1002
{
1070
     1
1070
     1
1002
}
  0
ENDTAB
  0
TABLE
  2
BLOCK_RECORD
  5
1
330
0
100
AcDbSymbolTable
 70
     2
  0
BLOCK_RECORD
  5
70
330
1
100
AcDbSymbolTableRecord
100
AcDbBlockTableRecord
  2
*Model_Space
340
73
 70
     0
280
     1
281
     0
  0
BLOCK_RECORD
  5
6C
330
1
100
AcDbSymbolTableRecord
100
AcDbBlockTableRecord
  2
*Paper_Space
340
6F
 70
     0
280
     1
281
     0
  0
BLOCK_RECORD
  5
74
330
1
100
AcDbSymbolTableRecord
100
AcDbBlockTableRecord
  2
*Paper_Space0
340
77
 70
     0
280
     1
281
     0
  0
BLOCK_RECORD
  5
79
330
1
100
AcDbSymbolTableRecord
100
AcDbBlockTableRecord
  2
Block_0
340
0
102
{BLKREFS
331
7A
102
}
 70
     0
280
     1
281
     0
  0
ENDTAB
  0
ENDSEC
  0
SECTION
  2
BLOCKS
  0
BLOCK
  5
71
330
70
100
AcDbEntity
  8
0
100
AcDbBlockBegin
  2
*Model_Space
 70
     0
 10
0.0
 20
0.0
 30
0.0
  3
*Model_Space
  1

  0
ENDBLK
  5
72
330
70
100
AcDbEntity
  8
0
100
AcDbBlockEnd
  0
BLOCK
  5
6D
330
6C
100
AcDbEntity
 67
     1
  8
0
100
AcDbBlockBegin
  2
*Paper_Space
 70
     0
 10
0.0
 20
0.0
 30
0.0
  3
*Paper_Space
  1

  0
ENDBLK
  5
6E
330
6C
100
AcDbEntity
 67
     1
  8
0
100
AcDbBlockEnd
  0
BLOCK
  5
75
330
74
100
AcDbEntity
 67
     1
  8
0
100
AcDbBlockBegin
  2
*Paper_Space0
 70
     0
 10
0.0
 20
0.0
 30
0.0
  3
*Paper_Space0
  1

  0
ENDBLK
  5
76
330
74
100
AcDbEntity
 67
     1
  8
0
100
AcDbBlockEnd
  0
BLOCK
  5
7B
330
79
100
AcDbEntity
  8
0
100
AcDbBlockBegin
  2
Block_0
 70
     0
 10
0.0
 20
0.0
 30
0.0
  3
Block_0
  1

  0
SPLINE
  5
7D
330
79
100
AcDbEntity
  8
Layer 1
100
AcDbSpline
210
0.0
220
0.0
230
1.0
 70
    11
 71
     3
 72
    35
 73
    31
 74
     0
 42
0.0000000001
 43
0.0000000001
 40
0.0
 40
0.0
 40
0.0
 40
0.0
 40
1.0
 40
1.0
 40
1.0
 40
2.0
 40
2.0
 40
2.0
 40
3.0
 40
3.0
 40
3.0
 40
4.0
 40
4.0
 40
4.0
 40
5.0
 40
5.0
 40
5.0
 40
6.0
 40
6.0
 40
6.0
 40
7.0
 40
7.0
 40
7.0
 40
8.0
 40
8.0
 40
8.0
 40
9.0
 40
9.0
 40
9.0
 40
10.0
 40
10.0
 40
10.0
 40
10.0
 10
-92.39357048348624
 20
-42.80274051766239
 30
0.0
 10
-92.39357048348624
 20
-42.80274051766239
 30
0.0
 10
-97.81815649104322
 20
-51.8504137927171
 30
0.0
 10
-97.81815649104322
 20
-51.8504137927171
 30
0.0
 10
-97.81815649104322
 20
-51.8504137927171
 30
0.0
 10
-101.7000070882715
 20
-42.04184697515799
 30
0.0
 10
-101.7000070882715
 20
-42.04184697515799
 30
0.0
 10
-101.7000070882715
 20
-42.04184697515799
 30
0.0
 10
-111.9801401685768
 20
-39.67852101881718
 30
0.0
 10
-111.9801401685768
 20
-39.67852101881718
 30
0.0
 10
-111.9801401685768
 20
-39.67852101881718
 30
0.0
 10
-103.851274177848
 20
-32.95622632394273
 30
0.0
 10
-103.851274177848
 20
-32.95622632394273
 30
0.0
 10
-103.851274177848
 20
-32.95622632394273
 30
0.0
 10
-104.7810135117024
 20
-22.44800833566043
 30
0.0
 10
-104.7810135117024
 20
-22.44800833566043
 30
0.0
 10
-104.7810135117024
 20
-22.44800833566043
 30
0.0
 10
-95.87534240899172
 20
-28.10216738360943
 30
0.0
 10
-95.87534240899172
 20
-28.10216738360943
 30
0.0
 10
-95.87534240899172
 20
-28.10216738360943
 30
0.0
 10
-86.16905607589567
 20
-23.97053948686791
 30
0.0
 10
-86.16905607589567
 20
-23.97053948686791
 30
0.0
 10
-86.16905607589567
 20
-23.97053948686791
 30
0.0
 10
-88.79446504193142
 20
-34.18788482711307
 30
0.0
 10
-88.79446504193142
 20
-34.18788482711307
 30
0.0
 10
-88.79446504193142
 20
-34.18788482711307
 30
0.0
 10
-81.86560612297954
 20
-42.14212420447033
 30
0.0
 10
-81.86560612297954
 20
-42.14212420447033
 30
0.0
 10
-81.86560612297954
 20
-42.14212420447033
 30
0.0
 10
-92.39357048348624
 20
-42.80274051766239
 30
0.0
 10
-92.39357048348624
 20
-42.80274051766239
 30
0.0
  0
SPLINE
  5
7E
330
79
100
AcDbEntity
  8
Layer 1
100
AcDbSpline
210
0.0
220
0.0
230
1.0
 70
     9
 71
     3
 72
    83
 73
    79
 74
     0
 42
0.0000000001
 43
0.0000000001
 40
0.0
 40
0.0
 40
0.0
 40
0.0
 40
1.0
 40
1.0
 40
1.0
 40
2.0
 40
2.0
 40
2.0
 40
3.0
 40
3.0
 40
3.0
 40
4.0
 40
4.0
 40
4.0
 40
5.0
 40
5.0
 40
5.0
 40
6.0
 40
6.0
 40
6.0
 40
7.0
 40
7.0
 40
7.0
 40
8.0
 40
8.0
 40
8.0
 40
9.0
 40
9.0
 40
9.0
 40
10.0
 40
10.0
 40
10.0
 40
11.0
 40
11.0
 40
11.0
 40
12.0
 40
12.0
 40
12.0
 40
13.0
 40
13.0
 40
13.0
 40
14.0
 40
14.0
 40
14.0
 40
15.0
 40
15.0
 40
15.0
 40
16.0
 40
16.0
 40
16.0
 40
17.0
 40
17.0
 40
17.0
 40
18.0
 40
18.0
 40
18.0
 40
19.0
 40
19.0
 40
19.0
 40
20.0
 40
20.0
 40
20.0
 40
21.0
 40
21.0
 40
21.0
 40
22.0
 40
22.0
 40
22.0
 40
23.0
 40
23.0
 40
23.0
 40
24.0
 40
24.0
 40
24.0
 40
25.0
 40
25.0
 40
25.0
 40
26.0
 40
26.0
 40
26.0
 40
26.0
 10
-139.0476658924498
 20
12.91728640616815
 30
0.0
 10
-136.8368735069355
 20
12.48641484095085
 30
0.0
 10
-134.6285994993601
 20
12.14660553134854
 30
0.0
 10
-132.4160900380185
 20
11.92327119985847
 30
0.0
 10
-131.3828682665805
 20
11.8191591678281
 30
0.0
 10
-130.3395729835517
 20
11.74355059481368
 30
0.0
 10
-129.2891804536842
 20
11.68917652640722
 30
0.0
 10
-128.9448495110249
 20
11.67131893762401
 30
0.0
 10
-128.5957107559872
 20
11.6686288521366
 30
0.0
 10
-128.2495482657606
 20
11.65615143433269
 30
0.0
 10
-127.5391367530948
 20
11.63050976839202
 30
0.0
 10
-126.8281528817878
 20
11.60681412174008
 30
0.0
 10
-126.1105296505728
 20
11.60366614935875
 30
0.0
 10
-126.009565590909
 20
11.60320826246548
 30
0.0
 10
-125.9105475505529
 20
11.59628272322874
 30
0.0
 10
-125.8094690191776
 20
11.59628272322874
 30
0.0
 10
-125.0422795319244
 20
11.59628272322874
 30
0.0
 10
-124.2708545908948
 20
11.61070616032073
 30
0.0
 10
-123.4961099699118
 20
11.63629059040198
 30
0.0
 10
-123.3641240733524
 20
11.64064051587271
 30
0.0
 10
-123.2306500443687
 20
11.64985548957325
 30
0.0
 10
-123.0985496760889
 20
11.6549494812433
 30
0.0
 10
-122.3086947876753
 20
11.68539895954796
 30
0.0
 10
-121.5149478606669
 20
11.73015740322707
 30
0.0
 10
-120.7176523102629
 20
11.78704984953756
 30
0.0
 10
-120.4492161199376
 20
11.80622386313092
 30
0.0
 10
-120.1803220426907
 20
11.8274583677421
 30
0.0
 10
-119.9109700785721
 20
11.84960864613277
 30
0.0
 10
-119.1561435373985
 20
11.91170955583855
 30
0.0
 10
-118.3981117879533
 20
11.98548658128565
 30
0.0
 10
-117.6368748302931
 20
12.07111143005936
 30
0.0
 10
-117.4505148653169
 20
12.09211699122326
 30
0.0
 10
-117.2650706741239
 20
12.10877262691002
 30
0.0
 10
-117.0782528222561
 20
12.13120908461059
 30
0.0
 10
-116.1494292621567
 20
12.2425328351908
 30
0.0
 10
-115.2157978897066
 20
12.37262994832987
 30
0.0
 10
-114.2785034221228
 20
12.51881033855129
 30
0.0
 10
-114.0464692396832
 20
12.55498340300329
 30
0.0
 10
-113.8132903400198
 20
12.59659387430108
 30
0.0
 10
-113.5806837989675
 20
12.63488466562903
 30
0.0
 10
-113.1980048291144
 20
12.69790134911815
 30
0.0
 10
-112.8162416330656
 20
12.75708322988604
 30
0.0
 10
-112.432303474248
 20
12.82588073538512
 30
0.0
 10
-112.0735490945111
 20
12.89015660782562
 30
0.0
 10
-111.7129631671768
 20
12.96359021810469
 30
0.0
 10
-111.3530640701956
 20
13.03290284635646
 30
0.0
 10
-111.0832542191849
 20
13.08493024444034
 30
0.0
 10
-110.8136733116149
 20
13.13615634046611
 30
0.0
 10
-110.5432911020011
 20
13.19098829575942
 30
0.0
 10
-109.5885969325276
 20
13.38450274342212
 30
0.0
 10
-108.6313843851335
 20
13.58940712751752
 30
0.0
 10
-107.6695929688515
 20
13.81817886585272
 30
0.0
 10
-106.7013911360536
 20
14.04843873658273
 30
0.0
 10
-105.7205974137456
 20
14.29913180986197
 30
0.0
 10
-104.7544560719758
 20
14.56384766920318
 30
0.0
 10
-102.675992998221
 20
15.13374514195149
 30
0.0
 10
-100.6456080481183
 20
15.77724793256287
 30
0.0
 10
-98.66501829747589
 20
16.48685814318208
 30
0.0
 10
-94.28555912054418
 20
18.05592204977274
 30
0.0
 10
-90.16640864160596
 20
19.96611169078354
 30
0.0
 10
-86.33927552791782
 20
22.159561610251
 30
0.0
 10
-86.14616173130375
 20
16.88132770049754
 30
0.0
 10
-87.51020678207696
 20
11.66221843565191
 30
0.0
 10
-90.34258062322241
 20
7.062572899594488
 30
0.0
 10
-93.68412468810623
 20
1.636155344468904
 30
0.0
 10
-98.71675951625306
 20
-2.350952002034493
 30
0.0
 10
-104.6823388865261
 20
-4.359587324787103
 30
0.0
 10
-105.47196483148
 20
-4.625447901361505
 30
0.0
 10
-106.2763576287121
 20
-4.859943225840842
 30
0.0
 10
-107.0968909388789
 20
-5.055117513482358
 30
0.0
 10
-107.1226470765413
 20
-5.061241750660993
 30
0.0
 10
-107.1487466293756
 20
-5.065191025104268
 30
0.0
 10
-107.1746172387793
 20
-5.07125802642028
 30
0.0
 10
-109.2149612287908
 20
-5.550264951140807
 30
0.0
 10
-111.2999491907424
 20
-5.795234438272706
 30
0.0
 10
-113.3738333955796
 20
-5.795234438272706
 30
0.0
 10
-125.2066609260929
 20
-5.795234438272706
 30
0.0
 10
-135.473515286505
 20
1.800193323469051
 30
0.0
 10
-139.0476658924498
 20
12.91728640616815
 30
0.0
  0
SPLINE
  5
7F
330
79
100
AcDbEntity
  8
Layer 1
100
AcDbSpline
210
0.0
220
0.0
230
1.0
 70
     9
 71
     3
 72
   104
 73
   100
 74
     0
 42
0.0000000001
 43
0.0000000001
 40
0.0
 40
0.0
 40
0.0
 40
0.0
 40
1.0
 40
1.0
 40
1.0
 40
2.0
 40
2.0
 40
2.0
 40
3.0
 40
3.0
 40
3.0
 40
4.0
 40
4.0
 40
4.0
 40
5.0
 40
5.0
 40
5.0
 40
6.0
 40
6.0
 40
6.0
 40
7.0
 40
7.0
 40
7.0
 40
8.0
 40
8.0
 40
8.0
 40
9.0
 40
9.0
 40
9.0
 40
10.0
 40
10.0
 40
10.0
 40
11.0
 40
11.0
 40
11.0
 40
12.0
 40
12.0
 40
12.0
 40
13.0
 40
13.0
 40
13.0
 40
14.0
 40
14.0
 40
14.0
 40
15.0
 40
15.0
 40
15.0
 40
16.0
 40
16.0
 40
16.0
 40
17.0
 40
17.0
 40
17.0
 40
18.0
 40
18.0
 40
18.0
 40
19.0
 40
19.0
 40
19.0
 40
20.0
 40
20.0
 40
20.0
 40
21.0
 40
21.0
 40
21.0
 40
22.0
 40
22.0
 40
22.0
 40
23.0
 40
23.0
 40
23.0
 40
24.0
 40
24.0
 40
24.0
 40
25.0
 40
25.0
 40
25.0
 40
26.0
 40
26.0
 40
26.0
 40
27.0
 40
27.0
 40
27.0
 40
28.0
 40
28.0
 40
28.0
 40
29.0
 40
29.0
 40
29.0
 40
30.0
 40
30.0
 40
30.0
 40
31.0
 40
31.0
 40
31.0
 40
32.0
 40
32.0
 40
32.0
 40
33.0
 40
33.0
 40
33.0
 40
33.0
 10
-140.0203321224163
 20
16.93736160888346
 30
0.0
 10
-140.02868855819
 20
16.9891600635239
 30
0.0
 10
-140.0312069361095
 20
17.04153087677645
 30
0.0
 10
-140.0392199567017
 20
17.0933865672763
 30
0.0
 10
-140.1367498646624
 20
17.7236678738883
 30
0.0
 10
-140.2072644460048
 20
18.35692544529376
 30
0.0
 10
-140.2601503820261
 20
18.99109879048321
 30
0.0
 10
-140.2694225915742
 20
19.09967521970954
 30
0.0
 10
-140.2758330080596
 20
19.20807994135121
 30
0.0
 10
-140.283731556941
 20
19.31659913471813
 30
0.0
 10
-140.3258571509901
 20
19.90698704587507
 30
0.0
 10
-140.3525290624365
 20
20.49817625909333
 30
0.0
 10
-140.3560776858511
 20
21.08936547231158
 30
0.0
 10
-140.3563066293115
 20
21.12805691467467
 30
0.0
 10
-140.3579092334184
 20
21.16686282875531
 30
0.0
 10
-140.3579092334184
 20
21.20555427111455
 30
0.0
 10
-140.3603131395975
 20
22.54046626839775
 30
0.0
 10
-140.2634700619799
 20
23.87440525603178
 30
0.0
 10
-140.0671510571036
 20
25.19558064655585
 30
0.0
 10
-140.0650905661054
 20
25.20988961192645
 30
0.0
 10
-140.0628011316457
 20
25.22414134143442
 30
0.0
 10
-140.0606261688978
 20
25.23850754266763
 30
0.0
 10
-135.3140561764354
 20
24.11874514868575
 30
0.0
 10
-130.478770598669
 20
23.55279695038072
 30
0.0
 10
-125.6361588306326
 20
23.55279695038072
 30
0.0
 10
-122.377606764882
 20
23.55279695038072
 30
0.0
 10
-119.0760133313274
 20
23.813391827694
 30
0.0
 10
-115.7698410288253
 20
24.32216140038633
 30
0.0
 10
-113.9518011248135
 20
24.6019875271556
 30
0.0
 10
-112.1323875600966
 20
24.95415978283657
 30
0.0
 10
-110.3178962794788
 20
25.38571817839058
 30
0.0
 10
-109.1680278223632
 20
25.65919112453843
 30
0.0
 10
-108.0015609654311
 20
25.96826477652681
 30
0.0
 10
-106.8504333193603
 20
26.30469717030115
 30
0.0
 10
-104.9007509339315
 20
26.87482358649609
 30
0.0
 10
-103.174975238609
 20
27.44088625652636
 30
0.0
 10
-101.5742026647575
 20
28.03516620626332
 30
0.0
 10
-101.5742026647575
 20
28.03516620626332
 30
0.0
 10
-101.4999105165401
 20
28.06275389149977
 30
0.0
 10
-101.4999105165401
 20
28.06275389149977
 30
0.0
 10
-101.4999105165401
 20
28.06275389149977
 30
0.0
 10
-101.4268775572981
 20
28.09348954911369
 30
0.0
 10
-101.4268775572981
 20
28.09348954911369
 30
0.0
 10
-101.1257024541921
 20
28.21998080298201
 30
0.0
 10
-100.6950598324365
 20
28.39432123704749
 30
0.0
 10
-100.4610796307092
 20
28.47811453825388
 30
0.0
 10
-100.4610796307092
 20
28.47811453825388
 30
0.0
 10
-97.29353258471258
 20
29.61413191689507
 30
0.0
 10
-97.29353258471258
 20
29.61413191689507
 30
0.0
 10
-97.29353258471258
 20
29.61413191689507
 30
0.0
 10
-90.88552000521636
 20
32.6308052320187
 30
0.0
 10
-89.47122186806204
 20
33.81936513149646
 30
0.0
 10
-89.38410888689288
 20
33.66700326824084
 30
0.0
 10
-89.29482094298579
 20
33.51601506565542
 30
0.0
 10
-89.21594992586962
 20
33.35787238038983
 30
0.0
 10
-89.02169141202138
 20
32.96884022991309
 30
0.0
 10
-88.82995127605378
 20
32.57820547531951
 30
0.0
 10
-88.6535503509862
 20
32.17778338841073
 30
0.0
 10
-88.55064027203495
 20
31.94494790391406
 30
0.0
 10
-88.45482743993045
 20
31.70890721117344
 30
0.0
 10
-88.35844224918529
 20
31.47298099015487
 30
0.0
 10
-88.17826375726294
 20
31.03066225264224
 30
0.0
 10
-88.009074550716
 20
30.58216204209221
 30
0.0
 10
-87.8513325164936
 20
30.12725141505428
 30
0.0
 10
-87.77932980273581
 20
29.92022930408294
 30
0.0
 10
-87.70457976764594
 20
29.7144091462042
 30
0.0
 10
-87.63749933800692
 20
29.50526930835949
 30
0.0
 10
-87.42481087673578
 20
28.84070372072479
 30
0.0
 10
-87.22803398496715
 20
28.16755275386684
 30
0.0
 10
-87.06422494943032
 20
27.4787763968243
 30
0.0
 10
-87.06399600597118
 20
27.47826127407161
 30
0.0
 10
-87.0638815342501
 20
27.47780338718154
 30
0.0
 10
-87.06376706253896
 20
27.47728826442564
 30
0.0
 10
-86.96669504146994
 20
27.06925380794277
 30
0.0
 10
-86.87855181477807
 20
26.65091689639135
 30
0.0
 10
-86.79956632595045
 20
26.22376566217004
 30
0.0
 10
-90.10665440220735
 20
24.22096839729002
 30
0.0
 10
-93.6413122637338
 20
22.47973901936603
 30
0.0
 10
-97.36370375088348
 20
20.99521248017787
 30
0.0
 10
-100.0613443741378
 20
19.91929275609111
 30
0.0
 10
-102.8546833577566
 20
18.97415697548719
 30
0.0
 10
-105.7457811927968
 20
18.18149752986092
 30
0.0
 10
-106.6663627888435
 20
17.9292590883204
 30
0.0
 10
-107.6054888039946
 20
17.68904017768988
 30
0.0
 10
-108.5375175723084
 20
17.46736568618312
 30
0.0
 10
-110.1966707248835
 20
17.07278165714627
 30
0.0
 10
-111.8462082527001
 20
16.73881040541334
 30
0.0
 10
-113.4854433254661
 20
16.45377581524493
 30
0.0
 10
-117.6904475966382
 20
15.72264492071234
 30
0.0
 10
-121.8193281720159
 20
15.34729214113212
 30
0.0
 10
-125.8094690191776
 20
15.34729214113212
 30
0.0
 10
-127.9143750609379
 20
15.34729214113212
 30
0.0
 10
-130.0106957234744
 20
15.45094628626921
 30
0.0
 10
-132.0393635977501
 20
15.65533554761191
 30
0.0
 10
-134.6718698106242
 20
15.92102441659845
 30
0.0
 10
-137.3450134851508
 20
16.35063679286053
 30
0.0
 10
-140.0138072342195
 20
16.93604518407267
 30
0.0
 10
-140.0159821969389
 20
16.93650307096274
 30
0.0
 10
-140.0181571596774
 20
16.93690372199339
 30
0.0
 10
-140.0203321224163
 20
16.93736160888346
 30
0.0
  0
SPLINE
  5
80
330
79
100
AcDbEntity
  8
Layer 1
100
AcDbSpline
210
0.0
220
0.0
230
1.0
 70
     9
 71
     3
 72
   194
 73
   190
 74
     0
 42
0.0000000001
 43
0.0000000001
 40
0.0
 40
0.0
 40
0.0
 40
0.0
 40
1.0
 40
1.0
 40
1.0
 40
2.0
 40
2.0
 40
2.0
 40
3.0
 40
3.0
 40
3.0
 40
4.0
 40
4.0
 40
4.0
 40
5.0
 40
5.0
 40
5.0
 40
6.0
 40
6.0
 40
6.0
 40
7.0
 40
7.0
 40
7.0
 40
8.0
 40
8.0
 40
8.0
 40
9.0
 40
9.0
 40
9.0
 40
10.0
 40
10.0
 40
10.0
 40
11.0
 40
11.0
 40
11.0
 40
12.0
 40
12.0
 40
12.0
 40
13.0
 40
13.0
 40
13.0
 40
14.0
 40
14.0
 40
14.0
 40
15.0
 40
15.0
 40
15.0
 40
16.0
 40
16.0
 40
16.0
 40
17.0
 40
17.0
 40
17.0
 40
18.0
 40
18.0
 40
18.0
 40
19.0
 40
19.0
 40
19.0
 40
20.0
 40
20.0
 40
20.0
 40
21.0
 40
21.0
 40
21.0
 40
22.0
 40
22.0
 40
22.0
 40
23.0
 40
23.0
 40
23.0
 40
24.0
 40
24.0
 40
24.0
 40
25.0
 40
25.0
 40
25.0
 40
26.0
 40
26.0
 40
26.0
 40
27.0
 40
27.0
 40
27.0
 40
28.0
 40
28.0
 40
28.0
 40
29.0
 40
29.0
 40
29.0
 40
30.0
 40
30.0
 40
30.0
 40
31.0
 40
31.0
 40
31.0
 40
32.0
 40
32.0
 40
32.0
 40
33.0
 40
33.0
 40
33.0
 40
34.0
 40
34.0
 40
34.0
 40
35.0
 40
35.0
 40
35.0
 40
36.0
 40
36.0
 40
36.0
 40
37.0
 40
37.0
 40
37.0
 40
38.0
 40
38.0
 40
38.0
 40
39.0
 40
39.0
 40
39.0
 40
40.0
 40
40.0
 40
40.0
 40
41.0
 40
41.0
 40
41.0
 40
42.0
 40
42.0
 40
42.0
 40
43.0
 40
43.0
 40
43.0
 40
44.0
 40
44.0
 40
44.0
 40
45.0
 40
45.0
 40
45.0
 40
46.0
 40
46.0
 40
46.0
 40
47.0
 40
47.0
 40
47.0
 40
48.0
 40
48.0
 40
48.0
 40
49.0
 40
49.0
 40
49.0
 40
50.0
 40
50.0
 40
50.0
 40
51.0
 40
51.0
 40
51.0
 40
52.0
 40
52.0
 40
52.0
 40
53.0
 40
53.0
 40
53.0
 40
54.0
 40
54.0
 40
54.0
 40
55.0
 40
55.0
 40
55.0
 40
56.0
 40
56.0
 40
56.0
 40
57.0
 40
57.0
 40
57.0
 40
58.0
 40
58.0
 40
58.0
 40
59.0
 40
59.0
 40
59.0
 40
60.0
 40
60.0
 40
60.0
 40
61.0
 40
61.0
 40
61.0
 40
62.0
 40
62.0
 40
62.0
 40
63.0
 40
63.0
 40
63.0
 40
63.0
 10
-137.8413628758986
 20
32.61569496458616
 30
0.0
 10
-137.4919951774291
 20
32.54352054326296
 30
0.0
 10
-137.1444590265274
 20
32.46413440338927
 30
0.0
 10
-136.7939466108432
 20
32.3972256813195
 30
0.0
 10
-135.1889385832251
 20
32.09055593551696
 30
0.0
 10
-133.5706518357629
 20
31.83986286223773
 30
0.0
 10
-131.9355377450245
 20
31.65785282273233
 30
0.0
 10
-131.2427548776796
 20
31.58098506076589
 30
0.0
 10
-130.5474536324441
 20
31.52598139788535
 30
0.0
 10
-129.8507787265041
 20
31.4876906065529
 30
0.0
 10
-129.6169129964976
 20
31.4748125377222
 30
0.0
 10
-129.3823604361582
 20
31.47418294324811
 30
0.0
 10
-129.1481512909993
 20
31.46548309229961
 30
0.0
 10
-128.6845408130026
 20
31.44825509799433
 30
0.0
 10
-128.221159278467
 20
31.430511980937
 30
0.0
 10
-127.7566330267162
 20
31.42896661267894
 30
0.0
 10
-127.7106153940719
 20
31.42879490509171
 30
0.0
 10
-127.6648267048887
 20
31.42536075340434
 30
0.0
 10
-127.6188090722739
 20
31.42536075340434
 30
0.0
 10
-127.504337349315
 20
31.42536075340434
 30
0.0
 10
-127.3896366828965
 20
31.43600662363771
 30
0.0
 10
-127.2751649599379
 20
31.43692239742426
 30
0.0
 10
-126.5290382697089
 20
31.44293216287765
 30
0.0
 10
-125.7830260511715
 20
31.46874553640618
 30
0.0
 10
-125.0370138326533
 20
31.51213031940803
 30
0.0
 10
-124.8137939728994
 20
31.52512285996398
 30
0.0
 10
-124.5910320000073
 20
31.53697068328995
 30
0.0
 10
-124.3678121402527
 20
31.55311119622403
 30
0.0
 10
-123.5008033105503
 20
31.61584170040774
 30
0.0
 10
-122.6349391980922
 20
31.69568572717085
 30
0.0
 10
-121.7720513504459
 20
31.80311743916656
 30
0.0
 10
-121.6749793293769
 20
31.81519420593917
 30
0.0
 10
-121.5788230820922
 20
31.83156366232373
 30
0.0
 10
-121.4819800044544
 20
31.84421278770781
 30
0.0
 10
-120.696589513239
 20
31.94637880045009
 30
0.0
 10
-119.9149765888786
 20
32.06789053436975
 30
0.0
 10
-119.1362254575891
 20
32.20285269573929
 30
0.0
 10
-118.9098003895916
 20
32.24211649671384
 30
0.0
 10
-118.6841766236287
 20
32.28166647699381
 30
0.0
 10
-118.4583239142436
 20
32.32350589173823
 30
0.0
 10
-118.3427074740408
 20
32.34491210393021
 30
0.0
 10
-118.2289225814343
 20
32.3718129588261
 30
0.0
 10
-118.1133061412322
 20
32.39390600135415
 30
0.0
 10
-117.3740477543805
 20
32.53533581507036
 30
0.0
 10
-116.6347893675003
 20
32.67813928946382
 30
0.0
 10
-115.9049176619165
 20
32.844695646368
 30
0.0
 10
-109.5102982740239
 20
34.30455352925824
 30
0.0
 10
-103.4786687196056
 20
36.87610354965659
 30
0.0
 10
-97.88065805176424
 20
40.21278256631443
 30
0.0
 10
-97.11758954653731
 20
40.66763595748652
 30
0.0
 10
-96.36802870460556
 20
41.14584158014896
 30
0.0
 10
-95.62110071228383
 20
41.62822542069424
 30
0.0
 10
-94.44765108025338
 20
40.60690870845801
 30
0.0
 10
-93.36200125971499
 20
39.48600159724936
 30
0.0
 10
-92.37731549881152
 20
38.26968230495435
 30
0.0
 10
-92.10807800641331
 20
37.93725642148269
 30
0.0
 10
-91.84525093050078
 20
37.60048061254031
 30
0.0
 10
-91.59135264899331
 20
37.25448982989675
 30
0.0
 10
-92.04695010636827
 20
36.9665362107943
 30
0.0
 10
-92.48308737082551
 20
36.69655465219582
 30
0.0
 10
-92.90457225477302
 20
36.44288531412312
 30
0.0
 10
-93.01870056255113
 20
36.37420228034542
 30
0.0
 10
-93.14564970330918
 20
36.29515955564426
 30
0.0
 10
-93.25508467045754
 20
36.22979620183576
 30
0.0
 10
-93.98117880918622
 20
35.7951470697592
 30
0.0
 10
-94.74287365374616
 20
35.3649623348818
 30
0.0
 10
-95.56935949350664
 20
34.92384555046178
 30
0.0
 10
-96.39595980500748
 20
34.48267153017978
 30
0.0
 10
-97.2872366399477
 20
34.03062269621712
 30
0.0
 10
-98.27306711806606
 20
33.55201642252725
 30
0.0
 10
-99.0563971182736
 20
33.17162688713575
 30
0.0
 10
-99.87063448367457
 20
32.81069754464751
 30
0.0
 10
-100.5641041813719
 20
32.50402779884176
 30
0.0
 10
-100.9501028311877
 20
32.33701355504687
 30
0.0
 10
-101.3374751416795
 20
32.17171638709471
 30
0.0
 10
-101.726221112847
 20
32.01071190875321
 30
0.0
 10
-101.726221112847
 20
32.01071190875321
 30
0.0
 10
-101.7259921693863
 20
32.00945271979799
 30
0.0
 10
-101.7259921693863
 20
32.00945271979799
 30
0.0
 10
-101.81940109532
 20
31.97596974083403
 30
0.0
 10
-101.924715080442
 20
31.93630528882818
 30
0.0
 10
-102.0334632172674
 20
31.89423693064097
 30
0.0
 10
-102.3594786842531
 20
31.76808909194133
 30
0.0
 10
-102.7167449315945
 20
31.62013439001905
 30
0.0
 10
-102.8798671368075
 20
31.55162306382922
 30
0.0
 10
-103.2571659356787
 20
31.41150967492702
 30
0.0
 10
-103.6429356420636
 20
31.27271271083945
 30
0.0
 10
-104.0385499166077
 20
31.13477428467325
 30
0.0
 10
-104.829778465697
 20
30.85895466820539
 30
0.0
 10
-105.6602708157442
 20
30.58656920342555
 30
0.0
 10
-106.5415886108034
 20
30.31412650278245
 30
0.0
 10
-106.9823047442088
 20
30.17790515246475
 30
0.0
 10
-107.4356127671248
 20
30.04168380214383
 30
0.0
 10
-107.9032297553979
 20
29.90494732906959
 30
0.0
 10
-108.9896808780085
 20
29.5874027695832
 30
0.0
 10
-110.0947908914357
 20
29.29441239467011
 30
0.0
 10
-111.1857064112448
 20
29.03496223458681
 30
0.0
 10
-111.8275493618559
 20
28.88231419201872
 30
0.0
 10
-112.468705482163
 20
28.74128502933317
 30
0.0
 10
-113.109289243839
 20
28.60884124587088
 30
0.0
 10
-113.3235803092174
 20
28.5645406890889
 30
0.0
 10
-113.5374134877038
 20
28.52642160534112
 30
0.0
 10
-113.7515900813418
 20
28.48441048301653
 30
0.0
 10
-114.1789130231628
 20
28.40050271008811
 30
0.0
 10
-114.6063504366751
 20
28.31739623921843
 30
0.0
 10
-115.0331010198648
 20
28.24247449654456
 30
0.0
 10
-115.2849388103737
 20
28.19828841148077
 30
0.0
 10
-115.5363187139909
 20
28.15959696912152
 30
0.0
 10
-115.7879275610679
 20
28.11855885643905
 30
0.0
 10
-116.1335176926623
 20
28.06218153288446
 30
0.0
 10
-116.4791078242768
 20
28.00454502037464
 30
0.0
 10
-116.8243545407194
 20
27.95406299054819
 30
0.0
 10
-116.8678537954436
 20
27.94770980992677
 30
0.0
 10
-116.9111241067366
 20
27.94284476170015
 30
0.0
 10
-116.9546233614608
 20
27.9365488169375
 30
0.0
 10
-117.2204267021562
 20
27.8982580256057
 30
0.0
 10
-117.4860010994197
 20
27.86403098044178
 30
0.0
 10
-117.7516899684034
 20
27.82923157666319
 30
0.0
 10
-118.1268138045556
 20
27.78006597165138
 30
0.0
 10
-118.5015942255073
 20
27.73296085765675
 30
0.0
 10
-118.8761457030272
 20
27.69083526360628
 30
0.0
 10
-119.1465279126695
 20
27.66044302116103
 30
0.0
 10
-119.4167956505628
 20
27.63256915661917
 30
0.0
 10
-119.6868344450339
 20
27.60578277344852
 30
0.0
 10
-120.0572649405277
 20
27.56903735037735
 30
0.0
 10
-120.4274664925618
 20
27.53561160727538
 30
0.0
 10
-120.7974391011637
 20
27.50573448758217
 30
0.0
 10
-121.0677068390654
 20
27.48387038849756
 30
0.0
 10
-121.3379745769872
 20
27.4630937707803
 30
0.0
 10
-121.6078988997093
 20
27.44489276683226
 30
0.0
 10
-121.9810767165532
 20
27.41970898777781
 30
0.0
 10
-122.3540255899668
 20
27.39944749281645
 30
0.0
 10
-122.7267455199197
 20
27.38124648886584
 30
0.0
 10
-122.9902594261555
 20
27.36842565589326
 30
0.0
 10
-123.2537733324208
 20
27.35497522844403
 30
0.0
 10
-123.5168293517646
 20
27.34558854716268
 30
0.0
 10
-123.9021411712578
 20
27.33185194040676
 30
0.0
 10
-124.2867661603983
 20
27.32458298600199
 30
0.0
 10
-124.6712766777982
 20
27.31834427709812
 30
0.0
 10
-124.9208250338484
 20
27.31428053093345
 30
0.0
 10
-125.1706023333488
 20
27.30792735030818
 30
0.0
 10
-125.4198072742265
 20
27.30706881238746
 30
0.0
 10
-125.491924459705
 20
27.3067826330814
 30
0.0
 10
-125.5641561168745
 20
27.30380636828409
 30
0.0
 10
-125.6361588306326
 20
27.30380636828409
 30
0.0
 10
-125.8478170463711
 20
27.30380636828409
 30
0.0
 10
-126.0585594883352
 20
27.31319304956544
 30
0.0
 10
-126.2701032323629
 20
27.31548248402605
 30
0.0
 10
-126.6922749466336
 20
27.32000411708463
 30
0.0
 10
-127.114446660904
 20
27.3252698163387
 30
0.0
 10
-127.5359315448522
 20
27.33883471550996
 30
0.0
 10
-127.8277199666608
 20
27.34822139679132
 30
0.0
 10
-128.1190505015877
 20
27.36321719249862
 30
0.0
 10
-128.4104955082545
 20
27.3769537992539
 30
0.0
 10
-128.8154964640669
 20
27.39601334112586
 30
0.0
 10
-129.2203829481694
 20
27.41696166642778
 30
0.0
 10
-129.6245826019388
 20
27.44443487993899
 30
0.0
 10
-129.9216367230181
 20
27.46458190317831
 30
0.0
 10
-130.2182329572154
 20
27.48867820086156
 30
0.0
 10
-130.5147147196634
 20
27.51334685715947
 30
0.0
 10
-130.9135342024509
 20
27.54654365681801
 30
0.0
 10
-131.3118957983463
 20
27.58300290057927
 30
0.0
 10
-131.7097995073498
 20
27.62432719256779
 30
0.0
 10
-132.0077694022135
 20
27.65523455776574
 30
0.0
 10
-132.3055103536267
 20
27.68843135742428
 30
0.0
 10
-132.6029078898869
 20
27.7239748274022
 30
0.0
 10
-132.9997813533667
 20
27.77136612070673
 30
0.0
 10
-133.3961969299741
 20
27.82356522637783
 30
0.0
 10
-133.7921546196904
 20
27.8790840120117
 30
0.0
 10
-134.0880640235363
 20
27.92052277572162
 30
0.0
 10
-134.3838589556601
 20
27.96247666218743
 30
0.0
 10
-134.679424944354
 20
28.0084942948147
 30
0.0
 10
-135.0789312574643
 20
28.07070967624509
 30
0.0
 10
-135.4777507402518
 20
28.13950718174096
 30
0.0
 10
-135.8764557513191
 20
28.21002176308534
 30
0.0
 10
-136.1654968517864
 20
28.26119062324849
 30
0.0
 10
-136.4546524239936
 20
28.31092858687176
 30
0.0
 10
-136.743350109281
 20
28.36639013664622
 30
0.0
 10
-137.1568219726067
 20
28.4458907482413
 30
0.0
 10
-137.5693780621498
 20
28.53374779561299
 30
0.0
 10
-137.9819341516916
 20
28.62223443745813
 30
0.0
 10
-138.2528887199373
 20
28.68027160099924
 30
0.0
 10
-138.5240722316233
 20
28.73516079215839
 30
0.0
 10
-138.7945689129767
 20
28.79714723013893
 30
0.0
 10
-138.9473886631384
 20
28.83211834150154
 30
0.0
 10
-139.0996360546582
 20
28.87304198245876
 30
0.0
 10
-139.2524558048106
 20
28.90932951863601
 30
0.0
 10
-138.8760727797234
 20
30.17109408494619
 30
0.0
 10
-138.4052505832067
 20
31.40899129701978
 30
0.0
 10
-137.8413628758986
 20
32.61569496458616
 30
0.0
  0
SPLINE
  5
81
330
79
100
AcDbEntity
  8
Layer 1
100
AcDbSpline
210
0.0
220
0.0
230
1.0
 70
     9
 71
     3
 72
    56
 73
    52
 74
     0
 42
0.0000000001
 43
0.0000000001
 40
0.0
 40
0.0
 40
0.0
 40
0.0
 40
1.0
 40
1.0
 40
1.0
 40
2.0
 40
2.0
 40
2.0
 40
3.0
 40
3.0
 40
3.0
 40
4.0
 40
4.0
 40
4.0
 40
5.0
 40
5.0
 40
5.0
 40
6.0
 40
6.0
 40
6.0
 40
7.0
 40
7.0
 40
7.0
 40
8.0
 40
8.0
 40
8.0
 40
9.0
 40
9.0
 40
9.0
 40
10.0
 40
10.0
 40
10.0
 40
11.0
 40
11.0
 40
11.0
 40
12.0
 40
12.0
 40
12.0
 40
13.0
 40
13.0
 40
13.0
 40
14.0
 40
14.0
 40
14.0
 40
15.0
 40
15.0
 40
15.0
 40
16.0
 40
16.0
 40
16.0
 40
17.0
 40
17.0
 40
17.0
 40
17.0
 10
-135.8930541511455
 20
36.09803924871017
 30
0.0
 10
-135.4222319546192
 20
36.81114084687874
 30
0.0
 10
-134.9198155625666
 20
37.50380924249873
 30
0.0
 10
-134.3850036729042
 20
38.16969125495127
 30
0.0
 10
-134.3804248039862
 20
38.17552931282064
 30
0.0
 10
-134.3756169916071
 20
38.18136737069322
 30
0.0
 10
-134.3710381226891
 20
38.1872054285626
 30
0.0
 10
-133.8234054000561
 20
38.8678542932726
 30
0.0
 10
-133.2441784818858
 20
39.52206018997997
 30
0.0
 10
-132.6354178592071
 20
40.14535872148876
 30
0.0
 10
-132.6349599723151
 20
40.14575937252005
 30
0.0
 10
-132.634731028855
 20
40.14621725941333
 30
0.0
 10
-132.6342731419627
 20
40.14661791044399
 30
0.0
 10
-132.209811993233
 20
40.10019962678285
 30
0.0
 10
-131.7425384201305
 20
40.05652866447495
 30
0.0
 10
-131.2060094546119
 20
40.01228534354917
 30
0.0
 10
-129.6271009798579
 20
39.88230270213151
 30
0.0
 10
-128.2471443595809
 20
39.81911431105772
 30
0.0
 10
-126.9873830484348
 20
39.81911431105772
 30
0.0
 10
-124.7787656256594
 20
39.81911431105772
 30
0.0
 10
-122.7674974532929
 20
40.00988143736654
 30
0.0
 10
-120.4525357998917
 20
40.4511126935118
 30
0.0
 10
-119.4137049140406
 20
40.64909153836725
 30
0.0
 10
-118.3195841860177
 20
40.89251565724108
 30
0.0
 10
-117.1087023005482
 20
41.20044459199949
 30
0.0
 10
-112.5964559249843
 20
42.34871044499731
 30
0.0
 10
-108.1380112591974
 20
44.13149305835324
 30
0.0
 10
-103.832042928391
 20
46.50746814007814
 30
0.0
 10
-102.0927595697448
 20
45.8498853275428
 30
0.0
 10
-100.4184961497686
 20
45.01143719273205
 30
0.0
 10
-98.84725728042598
 20
44.01398783473563
 30
0.0
 10
-104.6886348312721
 20
40.40389310779192
 30
0.0
 10
-110.6885557184235
 20
37.88305406066346
 30
0.0
 10
-116.7391875788386
 20
36.50172377972233
 30
0.0
 10
-117.5581182848976
 20
36.31490592785294
 30
0.0
 10
-118.3630834407425
 20
36.15807966740199
 30
0.0
 10
-119.1633552559281
 20
36.01052561650715
 30
0.0
 10
-122.1305767867518
 20
35.46340801662682
 30
0.0
 10
-124.9690176292306
 20
35.17637017130835
 30
0.0
 10
-127.6188090722739
 20
35.17637017130835
 30
0.0
 10
-128.9548085509056
 20
35.17637017130835
 30
0.0
 10
-130.2679136849648
 20
35.24688475265273
 30
0.0
 10
-131.5204632775911
 20
35.38579618846168
 30
0.0
 10
-132.9530768903995
 20
35.54531253440389
 30
0.0
 10
-134.4141939622415
 20
35.76544165765386
 30
0.0
 10
-135.9243049315105
 20
36.04996112506573
 30
0.0
 10
-135.9254496487447
 20
36.05019006851236
 30
0.0
 10
-135.9264798942491
 20
36.05030454023376
 30
0.0
 10
-135.9276246114929
 20
36.05053348368104
 30
0.0
 10
-135.9168642695202
 20
36.06690294006496
 30
0.0
 10
-135.9038144931176
 20
36.08166979232561
 30
0.0
 10
-135.8930541511455
 20
36.09803924871017
 30
0.0
  0
SPLINE
  5
82
330
79
100
AcDbEntity
  8
Layer 1
100
AcDbSpline
210
0.0
220
0.0
230
1.0
 70
     9
 71
     3
 72
    74
 73
    70
 74
     0
 42
0.0000000001
 43
0.0000000001
 40
0.0
 40
0.0
 40
0.0
 40
0.0
 40
1.0
 40
1.0
 40
1.0
 40
2.0
 40
2.0
 40
2.0
 40
3.0
 40
3.0
 40
3.0
 40
4.0
 40
4.0
 40
4.0
 40
5.0
 40
5.0
 40
5.0
 40
6.0
 40
6.0
 40
6.0
 40
7.0
 40
7.0
 40
7.0
 40
8.0
 40
8.0
 40
8.0
 40
9.0
 40
9.0
 40
9.0
 40
10.0
 40
10.0
 40
10.0
 40
11.0
 40
11.0
 40
11.0
 40
12.0
 40
12.0
 40
12.0
 40
13.0
 40
13.0
 40
13.0
 40
14.0
 40
14.0
 40
14.0
 40
15.0
 40
15.0
 40
15.0
 40
16.0
 40
16.0
 40
16.0
 40
17.0
 40
17.0
 40
17.0
 40
18.0
 40
18.0
 40
18.0
 40
19.0
 40
19.0
 40
19.0
 40
20.0
 40
20.0
 40
20.0
 40
21.0
 40
21.0
 40
21.0
 40
22.0
 40
22.0
 40
22.0
 40
23.0
 40
23.0
 40
23.0
 40
23.0
 10
-128.4903967708655
 20
43.60789939754083
 30
0.0
 10
-126.5753993174949
 20
44.90223116903228
 30
0.0
 10
-124.4923573748314
 20
45.95371118026712
 30
0.0
 10
-122.2741243273276
 20
46.72559400817678
 30
0.0
 10
-121.4013919114925
 20
47.02934472504462
 30
0.0
 10
-120.5091993027677
 20
47.29245798026514
 30
0.0
 10
-119.5980043880188
 20
47.50921018768651
 30
0.0
 10
-117.5338502796301
 20
48.00006493573365
 30
0.0
 10
-115.4219614627521
 20
48.24909816902958
 30
0.0
 10
-113.3195737989019
 20
48.24926987661424
 30
0.0
 10
-113.3195737989019
 20
48.24926987661424
 30
0.0
 10
-113.3183146099467
 20
48.24926987661424
 30
0.0
 10
-113.3183146099467
 20
48.24926987661424
 30
0.0
 10
-111.9595352584442
 20
48.24926987661424
 30
0.0
 10
-110.6268554597464
 20
48.13061993576599
 30
0.0
 10
-109.3169555339301
 20
47.93653312949184
 30
0.0
 10
-112.1056011769391
 20
46.65450706821708
 30
0.0
 10
-115.0082606559858
 20
45.60554543488883
 30
0.0
 10
-118.0338627655132
 20
44.83555139040914
 30
0.0
 10
-118.5637523710761
 20
44.70081817248624
 30
0.0
 10
-119.0650240459237
 20
44.58165310888595
 30
0.0
 10
-119.5565656242925
 20
44.46935634866362
 30
0.0
 10
-119.6969079566545
 20
44.43724703037244
 30
0.0
 10
-119.8343884959159
 20
44.40742714654186
 30
0.0
 10
-119.9720979786464
 20
44.37714937582121
 30
0.0
 10
-120.3579821567228
 20
44.29238306496887
 30
0.0
 10
-120.73447965355
 20
44.21494294438775
 30
0.0
 10
-121.1037654317995
 20
44.14408494787855
 30
0.0
 10
-121.2123990968852
 20
44.12325109429803
 30
0.0
 10
-121.3233221964489
 20
44.10024227798278
 30
0.0
 10
-121.4306966725692
 20
44.08061037749551
 30
0.0
 10
-121.4542778475132
 20
44.0763176878842
 30
0.0
 10
-121.4787747962117
 20
44.0709375169049
 30
0.0
 10
-121.502241499416
 20
44.06670206315621
 30
0.0
 10
-121.9334564798033
 20
43.98868958395978
 30
0.0
 10
-122.3571163264692
 20
43.92103679569069
 30
0.0
 10
-122.7761973042379
 20
43.86196938664483
 30
0.0
 10
-122.875215344585
 20
43.84800383644291
 30
0.0
 10
-122.9733176111578
 20
43.83741520207216
 30
0.0
 10
-123.0719922363626
 20
43.82447989737819
 30
0.0
 10
-123.4275414078568
 20
43.7778899061324
 30
0.0
 10
-123.7819458621371
 20
43.73793927482114
 30
0.0
 10
-124.1361213729841
 20
43.70462800343735
 30
0.0
 10
-124.2621547399499
 20
43.69278018011137
 30
0.0
 10
-124.3883025786453
 20
43.680817885064
 30
0.0
 10
-124.5145648890715
 20
43.67062990172071
 30
0.0
 10
-124.9368510750624
 20
43.6364600924162
 30
0.0
 10
-125.3606253934599
 20
43.60921582235548
 30
0.0
 10
-125.7922982607481
 20
43.59318978113959
 30
0.0
 10
-125.815650492232
 20
43.59233124321502
 30
0.0
 10
-125.8380869499316
 20
43.59044245978892
 30
0.0
 10
-125.8615536531261
 20
43.58958392186499
 30
0.0
 10
-126.2306104879439
 20
43.57676308889241
 30
0.0
 10
-126.6048185502932
 20
43.57012372896173
 30
0.0
 10
-126.9873830484348
 20
43.57012372896173
 30
0.0
 10
-127.0876602777462
 20
43.57012372896173
 30
0.0
 10
-127.1924019042365
 20
43.57315722962166
 30
0.0
 10
-127.2939383225031
 20
43.57401576754238
 30
0.0
 10
-127.3792197561043
 20
43.57475983374171
 30
0.0
 10
-127.4651880200493
 20
43.57590455097169
 30
0.0
 10
-127.5513852274348
 20
43.57722097578633
 30
0.0
 10
-127.8598865208101
 20
43.58202878815032
 30
0.0
 10
-128.1753705892835
 20
43.59061416737358
 30
0.0
 10
-128.4972650742429
 20
43.60314882103626
 30
0.0
 10
-128.6662253373293
 20
43.60967370924554
 30
0.0
 10
-128.8356434873082
 20
43.61619859745163
 30
0.0
 10
-129.0087247324213
 20
43.62484121253686
 30
0.0
 10
-128.8296909577142
 20
43.61591241814557
 30
0.0
 10
-128.6648516766537
 20
43.61459599333094
 30
0.0
 10
-128.4903967708655
 20
43.60789939754083
 30
0.0
  0
SPLINE
  5
83
330
79
100
AcDbEntity
  8
Layer 1
100
AcDbSpline
210
0.0
220
0.0
230
1.0
 70
    11
 71
     3
 72
   209
 73
   205
 74
     0
 42
0.0000000001
 43
0.0000000001
 40
0.0
 40
0.0
 40
0.0
 40
0.0
 40
1.0
 40
1.0
 40
1.0
 40
2.0
 40
2.0
 40
2.0
 40
3.0
 40
3.0
 40
3.0
 40
4.0
 40
4.0
 40
4.0
 40
5.0
 40
5.0
 40
5.0
 40
6.0
 40
6.0
 40
6.0
 40
7.0
 40
7.0
 40
7.0
 40
8.0
 40
8.0
 40
8.0
 40
9.0
 40
9.0
 40
9.0
 40
10.0
 40
10.0
 40
10.0
 40
11.0
 40
11.0
 40
11.0
 40
12.0
 40
12.0
 40
12.0
 40
13.0
 40
13.0
 40
13.0
 40
14.0
 40
14.0
 40
14.0
 40
15.0
 40
15.0
 40
15.0
 40
16.0
 40
16.0
 40
16.0
 40
17.0
 40
17.0
 40
17.0
 40
18.0
 40
18.0
 40
18.0
 40
19.0
 40
19.0
 40
19.0
 40
20.0
 40
20.0
 40
20.0
 40
21.0
 40
21.0
 40
21.0
 40
22.0
 40
22.0
 40
22.0
 40
23.0
 40
23.0
 40
23.0
 40
24.0
 40
24.0
 40
24.0
 40
25.0
 40
25.0
 40
25.0
 40
26.0
 40
26.0
 40
26.0
 40
27.0
 40
27.0
 40
27.0
 40
28.0
 40
28.0
 40
28.0
 40
29.0
 40
29.0
 40
29.0
 40
30.0
 40
30.0
 40
30.0
 40
31.0
 40
31.0
 40
31.0
 40
32.0
 40
32.0
 40
32.0
 40
33.0
 40
33.0
 40
33.0
 40
34.0
 40
34.0
 40
34.0
 40
35.0
 40
35.0
 40
35.0
 40
36.0
 40
36.0
 40
36.0
 40
37.0
 40
37.0
 40
37.0
 40
38.0
 40
38.0
 40
38.0
 40
39.0
 40
39.0
 40
39.0
 40
40.0
 40
40.0
 40
40.0
 40
41.0
 40
41.0
 40
41.0
 40
42.0
 40
42.0
 40
42.0
 40
43.0
 40
43.0
 40
43.0
 40
44.0
 40
44.0
 40
44.0
 40
45.0
 40
45.0
 40
45.0
 40
46.0
 40
46.0
 40
46.0
 40
47.0
 40
47.0
 40
47.0
 40
48.0
 40
48.0
 40
48.0
 40
49.0
 40
49.0
 40
49.0
 40
50.0
 40
50.0
 40
50.0
 40
51.0
 40
51.0
 40
51.0
 40
52.0
 40
52.0
 40
52.0
 40
53.0
 40
53.0
 40
53.0
 40
54.0
 40
54.0
 40
54.0
 40
55.0
 40
55.0
 40
55.0
 40
56.0
 40
56.0
 40
56.0
 40
57.0
 40
57.0
 40
57.0
 40
58.0
 40
58.0
 40
58.0
 40
59.0
 40
59.0
 40
59.0
 40
60.0
 40
60.0
 40
60.0
 40
61.0
 40
61.0
 40
61.0
 40
62.0
 40
62.0
 40
62.0
 40
63.0
 40
63.0
 40
63.0
 40
64.0
 40
64.0
 40
64.0
 40
65.0
 40
65.0
 40
65.0
 40
66.0
 40
66.0
 40
66.0
 40
67.0
 40
67.0
 40
67.0
 40
68.0
 40
68.0
 40
68.0
 40
68.0
 10
-78.09914302247335
 20
87.73434469185515
 30
0.0
 10
-78.09914302247335
 20
87.73434469185515
 30
0.0
 10
-91.14800366595829
 20
42.52837381417948
 30
0.0
 10
-91.14800366595829
 20
42.52837381417948
 30
0.0
 10
-91.18509250419622
 20
42.56695078481733
 30
0.0
 10
-91.22183792728311
 20
42.60581393476059
 30
0.0
 10
-91.25915570895321
 20
42.64421919781443
 30
0.0
 10
-91.33447810267474
 20
42.72183102597955
 30
0.0
 10
-91.40774000536755
 20
42.8017895244647
 30
0.0
 10
-91.4838637011231
 20
42.87860005057173
 30
0.0
 10
-91.79282288140036
 20
43.19002037287948
 30
0.0
 10
-92.10899378019666
 20
43.4938283256106
 30
0.0
 10
-92.43043037826467
 20
43.79122586185703
 30
0.0
 10
-92.43031590654425
 20
43.79134033357906
 30
0.0
 10
-92.43008696309312
 20
43.79151204116628
 30
0.0
 10
-92.42997249137237
 20
43.79162651288832
 30
0.0
 10
-92.43317769961567
 20
43.79466001354761
 30
0.0
 10
-92.43672632302958
 20
43.79740733489827
 30
0.0
 10
-92.44004600299298
 20
43.80044083555437
 30
0.0
 10
-92.83909442924089
 20
44.16938319865055
 30
0.0
 10
-93.24867425397156
 20
44.52607708738946
 30
0.0
 10
-93.66603815589305
 20
44.87275470036652
 30
0.0
 10
-93.680576064692
 20
44.88477423127972
 30
0.0
 10
-93.69419819972685
 20
44.89793847942033
 30
0.0
 10
-93.7086216368336
 20
44.90995801033032
 30
0.0
 10
-93.73769745445072
 20
44.93399707215094
 30
0.0
 10
-93.76780351759057
 20
44.9565480015729
 30
0.0
 10
-93.79710827866846
 20
44.98030088408747
 30
0.0
 10
-93.79997007173988
 20
44.98259031854807
 30
0.0
 10
-93.80294633655099
 20
44.98482251714541
 30
0.0
 10
-93.80569365790231
 20
44.98711195160602
 30
0.0
 10
-93.81290537643193
 20
44.99306448119678
 30
0.0
 10
-93.82057498187249
 20
44.99844465217609
 30
0.0
 10
-93.82790117214181
 20
45.00439718177007
 30
0.0
 10
-94.20542891447343
 20
45.31375701306836
 30
0.0
 10
-94.59005390361362
 20
45.61430252169226
 30
0.0
 10
-94.98154719613209
 20
45.90506069800801
 30
0.0
 10
-94.98498134780598
 20
45.90763631177401
 30
0.0
 10
-94.98818655604898
 20
45.91038363312469
 30
0.0
 10
-94.99162070775239
 20
45.91295924689455
 30
0.0
 10
-95.03855411415115
 20
45.94781588653192
 30
0.0
 10
-95.08514410539758
 20
45.98324488478844
 30
0.0
 10
-95.13242092697653
 20
46.01787258098302
 30
0.0
 10
-95.18233059818671
 20
46.05450353233215
 30
0.0
 10
-95.23475864731633
 20
46.08758586026545
 30
0.0
 10
-95.28489726195772
 20
46.12387339644334
 30
0.0
 10
-95.58023430719019
 20
46.33782104665141
 30
0.0
 10
-95.8806081082336
 20
46.54461421417611
 30
0.0
 10
-96.1832713437357
 20
46.74825940932013
 30
0.0
 10
-95.88129493858572
 20
46.54507210107003
 30
0.0
 10
-95.58149349614573
 20
46.33862234871336
 30
0.0
 10
-95.28649986609318
 20
46.12507534953594
 30
0.0
 10
-95.23613230799229
 20
46.08855886991205
 30
0.0
 10
-95.18336084369144
 20
46.05530483439088
 30
0.0
 10
-95.13310775732961
 20
46.01844493959833
 30
0.0
 10
-95.34533833167989
 20
46.17418371868512
 30
0.0
 10
-95.55962939705791
 20
46.32660281780338
 30
0.0
 10
-95.77575201000358
 20
46.47684695418561
 30
0.0
 10
-95.90281562250231
 20
46.5653335960346
 30
0.0
 10
-96.03056606532391
 20
46.65319064340244
 30
0.0
 10
-96.15900333846877
 20
46.73973126595949
 30
0.0
 10
-96.21864310612703
 20
46.7799108407206
 30
0.0
 10
-96.27999994963285
 20
46.81734309412463
 30
0.0
 10
-96.33986866074321
 20
46.85712201785508
 30
0.0
 10
-96.34032654763489
 20
46.85735096130236
 30
0.0
 10
-96.34055549109532
 20
46.8576943764704
 30
0.0
 10
-96.341013377987
 20
46.85792331991382
 30
0.0
 10
-96.37421017763109
 20
46.87984465486106
 30
0.0
 10
-96.40763592073435
 20
46.90107915946903
 30
0.0
 10
-96.44083272040669
 20
46.92271431510701
 30
0.0
 10
-96.51855902027877
 20
46.97336805251747
 30
0.0
 10
-96.59628532016979
 20
47.02390731820269
 30
0.0
 10
-96.67424056350231
 20
47.0741604045825
 30
0.0
 10
-97.03494096254713
 20
47.3065380021891
 30
0.0
 10
-97.4001057587985
 20
47.5318183529711
 30
0.0
 10
-97.77019283911213
 20
47.74902844728575
 30
0.0
 10
-97.81655388690776
 20
47.77621548148768
 30
0.0
 10
-97.86096891541498
 20
47.80655048807031
 30
0.0
 10
-97.90744443495126
 20
47.83350857882883
 30
0.0
 10
-97.91831924861522
 20
47.83980452359148
 30
0.0
 10
-97.92873617540678
 20
47.84695900627485
 30
0.0
 10
-97.93949651737918
 20
47.85331218690012
 30
0.0
 10
-97.95483572824135
 20
47.86212650957001
 30
0.0
 10
-97.97086176945564
 20
47.86979611500608
 30
0.0
 10
-97.98620098034668
 20
47.87861043767276
 30
0.0
 10
-98.09140049372837
 20
47.93922321497989
 30
0.0
 10
-98.19648553540984
 20
48.00006493573365
 30
0.0
 10
-98.30237187914395
 20
48.05941852408876
 30
0.0
 10
-98.37952582043216
 20
48.10268883536537
 30
0.0
 10
-98.45507715758429
 20
48.14853476041183
 30
0.0
 10
-98.53257451401551
 20
48.19111824135173
 30
0.0
 10
-98.94845028352071
 20
48.41977550796169
 30
0.0
 10
-99.369133865396
 20
48.63961845190176
 30
0.0
 10
-99.79542656169337
 20
48.84904446905574
 30
0.0
 10
-99.81110918773643
 20
48.85671407449502
 30
0.0
 10
-99.82713522895037
 20
48.86358237786912
 30
0.0
 10
-99.84293232673374
 20
48.87125198330903
 30
0.0
 10
-100.2422096964125
 20
49.06654074267644
 30
0.0
 10
-100.6462948784412
 20
49.2523283490366
 30
0.0
 10
-101.0539286838944
 20
49.43038911409872
 30
0.0
 10
-101.1703464261597
 20
49.4812145590932
 30
0.0
 10
-101.288481244253
 20
49.52831967309169
 30
0.0
 10
-101.4054713451019
 20
49.57777145740955
 30
0.0
 10
-101.524292993548
 20
49.62791007206411
 30
0.0
 10
-101.6449461895318
 20
49.67404217641599
 30
0.0
 10
-101.7642257248686
 20
49.72297883798115
 30
0.0
 10
-101.7990251286482
 20
49.73717333163035
 30
0.0
 10
-101.8339390041385
 20
49.75125335355046
 30
0.0
 10
-101.8688528796382
 20
49.76533337547826
 30
0.0
 10
-102.0265949138895
 20
49.82938030447212
 30
0.0
 10
-102.1831922308964
 20
49.89588837551124
 30
0.0
 10
-102.342193454074
 20
49.9569590397078
 30
0.0
 10
-102.4864278250022
 20
50.01230611776087
 30
0.0
 10
-102.6316924414339
 20
50.06524928962808
 30
0.0
 10
-102.7768425861448
 20
50.11847864080134
 30
0.0
 10
-103.0717217444862
 20
50.22665441899638
 30
0.0
 10
-103.3682035069628
 20
50.33059474344659
 30
0.0
 10
-103.6666312886992
 20
50.42984172725033
 30
0.0
 10
-103.818535265067
 20
50.48038099293555
 30
0.0
 10
-103.9707826566163
 20
50.53040513586872
 30
0.0
 10
-104.1237168784892
 20
50.57859773123457
 30
0.0
 10
-104.4279827180981
 20
50.67452503507297
 30
0.0
 10
-104.7345379921953
 20
50.76444257345735
 30
0.0
 10
-105.0422379835087
 20
50.8509831960144
 30
0.0
 10
-105.1860144675439
 20
50.89139171421958
 30
0.0
 10
-105.3291041212274
 20
50.93363177999081
 30
0.0
 10
-105.4736819073269
 20
50.97197980718203
 30
0.0
 10
-105.8300323808936
 20
51.06664792206841
 30
0.0
 10
-106.1892446475523
 20
51.15307407290344
 30
0.0
 10
-106.5496016314252
 20
51.23503582653992
 30
0.0
 10
-106.6447276331872
 20
51.25661374631913
 30
0.0
 10
-106.7388233894637
 20
51.28151134606047
 30
0.0
 10
-106.8341783346859
 20
51.30223072791832
 30
0.0
 10
-107.2963006802666
 20
51.40262242895269
 30
0.0
 10
-107.76139929065
 20
51.49299785422778
 30
0.0
 10
-108.229359694104
 20
51.57209781479156
 30
0.0
 10
-108.2999887471669
 20
51.58406010983893
 30
0.0
 10
-108.371533574033
 20
51.59241654561554
 30
0.0
 10
-108.4422770988067
 20
51.60386371791086
 30
0.0
 10
-108.8319388437572
 20
51.6669948731246
 30
0.0
 10
-109.2233176645549
 20
51.72377284771048
 30
0.0
 10
-109.6167569763605
 20
51.77190820721691
 30
0.0
 10
-109.7719806326927
 20
51.79085327736427
 30
0.0
 10
-109.9284634779794
 20
51.80510500687224
 30
0.0
 10
-110.0843739646438
 20
51.82170340670344
 30
0.0
 10
-110.3967672966146
 20
51.85501467808338
 30
0.0
 10
-110.7097329871685
 20
51.88534968466665
 30
0.0
 10
-111.024072338427
 20
51.90910256718122
 30
0.0
 10
-111.2012745655674
 20
51.92243852290584
 30
0.0
 10
-111.3790491513097
 20
51.93285544969579
 30
0.0
 10
-111.5568237370613
 20
51.94310066890107
 30
0.0
 10
-111.8551370471058
 20
51.96038589906576
 30
0.0
 10
-112.1541371874736
 20
51.97337843962172
 30
0.0
 10
-112.4538241581642
 20
51.98190658298234
 30
0.0
 10
-112.6370933866181
 20
51.98711504637763
 30
0.0
 10
-112.8205915585231
 20
51.99169391529821
 30
0.0
 10
-113.004433145609
 20
51.9935826987243
 30
0.0
 10
-113.1102050176221
 20
51.99467018009166
 30
0.0
 10
-113.215290059284
 20
52.00027929451761
 30
0.0
 10
-113.3211764030177
 20
52.00027929451761
 30
0.0
 10
-113.451788638931
 20
52.00027929451761
 30
0.0
 10
-113.5837745354904
 20
51.99054919806822
 30
0.0
 10
-113.7146157148436
 20
51.98883212222293
 30
0.0
 10
-114.0602058464385
 20
51.98442496088574
 30
0.0
 10
-114.4063683366648
 20
51.97486657202037
 30
0.0
 10
-114.7533321289546
 20
51.95861158736105
 30
0.0
 10
-114.9703705156837
 20
51.94842360401775
 30
0.0
 10
-115.1876378458738
 20
51.93640407310777
 30
0.0
 10
-115.4051341194945
 20
51.92157998498448
 30
0.0
 10
-115.7577070262067
 20
51.89748368730188
 30
0.0
 10
-116.1111957067026
 20
51.86537436901069
 30
0.0
 10
-116.4649133306295
 20
51.82891512524943
 30
0.0
 10
-116.674396583658
 20
51.80733720547022
 30
0.0
 10
-116.8836508932263
 20
51.78730465395165
 30
0.0
 10
-117.093363089686
 20
51.76131957284295
 30
0.0
 10
-117.4766144181512
 20
51.71387104367643
 30
0.0
 10
-117.8603236335084
 20
51.65491810635198
 30
0.0
 10
-118.2442617922965
 20
51.59264548906218
 30
0.0
 10
-118.423066623572
 20
51.56362690729356
 30
0.0
 10
-118.6016425113875
 20
51.53970231719497
 30
0.0
 10
-118.7806762860946
 20
51.50742129131977
 30
0.0
 10
-119.3422745589145
 20
51.40617105236467
 30
0.0
 10
-119.9041017751948
 20
51.29204274457566
 30
0.0
 10
-120.4658145197543
 20
51.15845424388274
 30
0.0
 10
-121.4405412407582
 20
50.92664900489145
 30
0.0
 10
-122.3914578433577
 20
50.64733800087103
 30
0.0
 10
-123.3206248186286
 20
50.33007962069389
 30
0.0
 10
-123.3206248186286
 20
50.33007962069389
 30
0.0
 10
-134.1800992887941
 20
87.73434469185515
 30
0.0
 10
-134.1800992887941
 20
87.73434469185515
 30
0.0
 10
-134.1800992887941
 20
87.73434469185515
 30
0.0
 10
-193.2170588570844
 20
87.73434469185515
 30
0.0
 10
-193.2170588570844
 20
87.73434469185515
 30
0.0
 10
-193.2170588570844
 20
87.73434469185515
 30
0.0
 10
-138.420360850637
 20
-81.12878913795071
 30
0.0
 10
-138.420360850637
 20
-81.12878913795071
 30
0.0
 10
-138.420360850637
 20
-81.12878913795071
 30
0.0
 10
-83.09949682475108
 20
-81.12878913795071
 30
0.0
 10
-83.09949682475108
 20
-81.12878913795071
 30
0.0
 10
-83.09949682475108
 20
-81.12878913795071
 30
0.0
 10
-30.69960775360403
 20
87.73434469185515
 30
0.0
 10
-30.69960775360403
 20
87.73434469185515
 30
0.0
 10
-30.69960775360403
 20
87.73434469185515
 30
0.0
 10
-78.09914302247335
 20
87.73434469185515
 30
0.0
 10
-78.09914302247335
 20
87.73434469185515
 30
0.0
  0
HATCH
  5
84
330
79
100
AcDbEntity
  8
Layer 1
 62
     7
440
 33554687
100
AcDbHatch
 10
0.0
 20
0.0
 30
0.0
210
0.0
220
0.0
230
1.0
  2
SOLID
 70
     1
 71
     1
 91
        7
 92
        1
 93
        1
 72
     4
 94
        3
 73
     0
 74
     0
 95
       35
 96
       31
 40
0.0
 40
0.0
 40
0.0
 40
0.0
 40
1.0
 40
1.0
 40
1.0
 40
2.0
 40
2.0
 40
2.0
 40
3.0
 40
3.0
 40
3.0
 40
4.0
 40
4.0
 40
4.0
 40
5.0
 40
5.0
 40
5.0
 40
6.0
 40
6.0
 40
6.0
 40
7.0
 40
7.0
 40
7.0
 40
8.0
 40
8.0
 40
8.0
 40
9.0
 40
9.0
 40
9.0
 40
10.0
 40
10.0
 40
10.0
 40
10.0
 10
-92.39357048348624
 20
-42.80274051766239
 10
-92.39357048348624
 20
-42.80274051766239
 10
-97.81815649104322
 20
-51.8504137927171
 10
-97.81815649104322
 20
-51.8504137927171
 10
-97.81815649104322
 20
-51.8504137927171
 10
-101.7000070882715
 20
-42.04184697515799
 10
-101.7000070882715
 20
-42.04184697515799
 10
-101.7000070882715
 20
-42.04184697515799
 10
-111.9801401685768
 20
-39.67852101881718
 10
-111.9801401685768
 20
-39.67852101881718
 10
-111.9801401685768
 20
-39.67852101881718
 10
-103.851274177848
 20
-32.95622632394273
 10
-103.851274177848
 20
-32.95622632394273
 10
-103.851274177848
 20
-32.95622632394273
 10
-104.7810135117024
 20
-22.44800833566043
 10
-104.7810135117024
 20
-22.44800833566043
 10
-104.7810135117024
 20
-22.44800833566043
 10
-95.87534240899172
 20
-28.10216738360943
 10
-95.87534240899172
 20
-28.10216738360943
 10
-95.87534240899172
 20
-28.10216738360943
 10
-86.16905607589567
 20
-23.97053948686791
 10
-86.16905607589567
 20
-23.97053948686791
 10
-86.16905607589567
 20
-23.97053948686791
 10
-88.79446504193142
 20
-34.18788482711307
 10
-88.79446504193142
 20
-34.18788482711307
 10
-88.79446504193142
 20
-34.18788482711307
 10
-81.86560612297954
 20
-42.14212420447033
 10
-81.86560612297954
 20
-42.14212420447033
 10
-81.86560612297954
 20
-42.14212420447033
 10
-92.39357048348624
 20
-42.80274051766239
 10
-92.39357048348624
 20
-42.80274051766239
 97
        0
 97
        1
330
7D
 92
        1
 93
        1
 72
     4
 94
        3
 73
     0
 74
     0
 95
       83
 96
       79
 40
0.0
 40
0.0
 40
0.0
 40
0.0
 40
1.0
 40
1.0
 40
1.0
 40
2.0
 40
2.0
 40
2.0
 40
3.0
 40
3.0
 40
3.0
 40
4.0
 40
4.0
 40
4.0
 40
5.0
 40
5.0
 40
5.0
 40
6.0
 40
6.0
 40
6.0
 40
7.0
 40
7.0
 40
7.0
 40
8.0
 40
8.0
 40
8.0
 40
9.0
 40
9.0
 40
9.0
 40
10.0
 40
10.0
 40
10.0
 40
11.0
 40
11.0
 40
11.0
 40
12.0
 40
12.0
 40
12.0
 40
13.0
 40
13.0
 40
13.0
 40
14.0
 40
14.0
 40
14.0
 40
15.0
 40
15.0
 40
15.0
 40
16.0
 40
16.0
 40
16.0
 40
17.0
 40
17.0
 40
17.0
 40
18.0
 40
18.0
 40
18.0
 40
19.0
 40
19.0
 40
19.0
 40
20.0
 40
20.0
 40
20.0
 40
21.0
 40
21.0
 40
21.0
 40
22.0
 40
22.0
 40
22.0
 40
23.0
 40
23.0
 40
23.0
 40
24.0
 40
24.0
 40
24.0
 40
25.0
 40
25.0
 40
25.0
 40
26.0
 40
26.0
 40
26.0
 40
26.0
 10
-139.0476658924498
 20
12.91728640616815
 10
-136.8368735069355
 20
12.48641484095085
 10
-134.6285994993601
 20
12.14660553134854
 10
-132.4160900380185
 20
11.92327119985847
 10
-131.3828682665805
 20
11.8191591678281
 10
-130.3395729835517
 20
11.74355059481368
 10
-129.2891804536842
 20
11.68917652640722
 10
-128.9448495110249
 20
11.67131893762401
 10
-128.5957107559872
 20
11.6686288521366
 10
-128.2495482657606
 20
11.65615143433269
 10
-127.5391367530948
 20
11.63050976839202
 10
-126.8281528817878
 20
11.60681412174008
 10
-126.1105296505728
 20
11.60366614935875
 10
-126.009565590909
 20
11.60320826246548
 10
-125.9105475505529
 20
11.59628272322874
 10
-125.8094690191776
 20
11.59628272322874
 10
-125.0422795319244
 20
11.59628272322874
 10
-124.2708545908948
 20
11.61070616032073
 10
-123.4961099699118
 20
11.63629059040198
 10
-123.3641240733524
 20
11.64064051587271
 10
-123.2306500443687
 20
11.64985548957325
 10
-123.0985496760889
 20
11.6549494812433
 10
-122.3086947876753
 20
11.68539895954796
 10
-121.5149478606669
 20
11.73015740322707
 10
-120.7176523102629
 20
11.78704984953756
 10
-120.4492161199376
 20
11.80622386313092
 10
-120.1803220426907
 20
11.8274583677421
 10
-119.9109700785721
 20
11.84960864613277
 10
-119.1561435373985
 20
11.91170955583855
 10
-118.3981117879533
 20
11.98548658128565
 10
-117.6368748302931
 20
12.07111143005936
 10
-117.4505148653169
 20
12.09211699122326
 10
-117.2650706741239
 20
12.10877262691002
 10
-117.0782528222561
 20
12.13120908461059
 10
-116.1494292621567
 20
12.2425328351908
 10
-115.2157978897066
 20
12.37262994832987
 10
-114.2785034221228
 20
12.51881033855129
 10
-114.0464692396832
 20
12.55498340300329
 10
-113.8132903400198
 20
12.59659387430108
 10
-113.5806837989675
 20
12.63488466562903
 10
-113.1980048291144
 20
12.69790134911815
 10
-112.8162416330656
 20
12.75708322988604
 10
-112.432303474248
 20
12.82588073538512
 10
-112.0735490945111
 20
12.89015660782562
 10
-111.7129631671768
 20
12.96359021810469
 10
-111.3530640701956
 20
13.03290284635646
 10
-111.0832542191849
 20
13.08493024444034
 10
-110.8136733116149
 20
13.13615634046611
 10
-110.5432911020011
 20
13.19098829575942
 10
-109.5885969325276
 20
13.38450274342212
 10
-108.6313843851335
 20
13.58940712751752
 10
-107.6695929688515
 20
13.81817886585272
 10
-106.7013911360536
 20
14.04843873658273
 10
-105.7205974137456
 20
14.29913180986197
 10
-104.7544560719758
 20
14.56384766920318
 10
-102.675992998221
 20
15.13374514195149
 10
-100.6456080481183
 20
15.77724793256287
 10
-98.66501829747589
 20
16.48685814318208
 10
-94.28555912054418
 20
18.05592204977274
 10
-90.16640864160596
 20
19.96611169078354
 10
-86.33927552791782
 20
22.159561610251
 10
-86.14616173130375
 20
16.88132770049754
 10
-87.51020678207696
 20
11.66221843565191
 10
-90.34258062322241
 20
7.062572899594488
 10
-93.68412468810623
 20
1.636155344468904
 10
-98.71675951625306
 20
-2.350952002034493
 10
-104.6823388865261
 20
-4.359587324787103
 10
-105.47196483148
 20
-4.625447901361505
 10
-106.2763576287121
 20
-4.859943225840842
 10
-107.0968909388789
 20
-5.055117513482358
 10
-107.1226470765413
 20
-5.061241750660993
 10
-107.1487466293756
 20
-5.065191025104268
 10
-107.1746172387793
 20
-5.07125802642028
 10
-109.2149612287908
 20
-5.550264951140807
 10
-111.2999491907424
 20
-5.795234438272706
 10
-113.3738333955796
 20
-5.795234438272706
 10
-125.2066609260929
 20
-5.795234438272706
 10
-135.473515286505
 20
1.800193323469051
 10
-139.0476658924498
 20
12.91728640616815
 97
        0
 97
        1
330
7E
 92
        1
 93
        1
 72
     4
 94
        3
 73
     0
 74
     0
 95
      104
 96
      100
 40
0.0
 40
0.0
 40
0.0
 40
0.0
 40
1.0
 40
1.0
 40
1.0
 40
2.0
 40
2.0
 40
2.0
 40
3.0
 40
3.0
 40
3.0
 40
4.0
 40
4.0
 40
4.0
 40
5.0
 40
5.0
 40
5.0
 40
6.0
 40
6.0
 40
6.0
 40
7.0
 40
7.0
 40
7.0
 40
8.0
 40
8.0
 40
8.0
 40
9.0
 40
9.0
 40
9.0
 40
10.0
 40
10.0
 40
10.0
 40
11.0
 40
11.0
 40
11.0
 40
12.0
 40
12.0
 40
12.0
 40
13.0
 40
13.0
 40
13.0
 40
14.0
 40
14.0
 40
14.0
 40
15.0
 40
15.0
 40
15.0
 40
16.0
 40
16.0
 40
16.0
 40
17.0
 40
17.0
 40
17.0
 40
18.0
 40
18.0
 40
18.0
 40
19.0
 40
19.0
 40
19.0
 40
20.0
 40
20.0
 40
20.0
 40
21.0
 40
21.0
 40
21.0
 40
22.0
 40
22.0
 40
22.0
 40
23.0
 40
23.0
 40
23.0
 40
24.0
 40
24.0
 40
24.0
 40
25.0
 40
25.0
 40
25.0
 40
26.0
 40
26.0
 40
26.0
 40
27.0
 40
27.0
 40
27.0
 40
28.0
 40
28.0
 40
28.0
 40
29.0
 40
29.0
 40
29.0
 40
30.0
 40
30.0
 40
30.0
 40
31.0
 40
31.0
 40
31.0
 40
32.0
 40
32.0
 40
32.0
 40
33.0
 40
33.0
 40
33.0
 40
33.0
 10
-140.0203321224163
 20
16.93736160888346
 10
-140.02868855819
 20
16.9891600635239
 10
-140.0312069361095
 20
17.04153087677645
 10
-140.0392199567017
 20
17.0933865672763
 10
-140.1367498646624
 20
17.7236678738883
 10
-140.2072644460048
 20
18.35692544529376
 10
-140.2601503820261
 20
18.99109879048321
 10
-140.2694225915742
 20
19.09967521970954
 10
-140.2758330080596
 20
19.20807994135121
 10
-140.283731556941
 20
19.31659913471813
 10
-140.3258571509901
 20
19.90698704587507
 10
-140.3525290624365
 20
20.49817625909333
 10
-140.3560776858511
 20
21.08936547231158
 10
-140.3563066293115
 20
21.12805691467467
 10
-140.3579092334184
 20
21.16686282875531
 10
-140.3579092334184
 20
21.20555427111455
 10
-140.3603131395975
 20
22.54046626839775
 10
-140.2634700619799
 20
23.87440525603178
 10
-140.0671510571036
 20
25.19558064655585
 10
-140.0650905661054
 20
25.20988961192645
 10
-140.0628011316457
 20
25.22414134143442
 10
-140.0606261688978
 20
25.23850754266763
 10
-135.3140561764354
 20
24.11874514868575
 10
-130.478770598669
 20
23.55279695038072
 10
-125.6361588306326
 20
23.55279695038072
 10
-122.377606764882
 20
23.55279695038072
 10
-119.0760133313274
 20
23.813391827694
 10
-115.7698410288253
 20
24.32216140038633
 10
-113.9518011248135
 20
24.6019875271556
 10
-112.1323875600966
 20
24.95415978283657
 10
-110.3178962794788
 20
25.38571817839058
 10
-109.1680278223632
 20
25.65919112453843
 10
-108.0015609654311
 20
25.96826477652681
 10
-106.8504333193603
 20
26.30469717030115
 10
-104.9007509339315
 20
26.87482358649609
 10
-103.174975238609
 20
27.44088625652636
 10
-101.5742026647575
 20
28.03516620626332
 10
-101.5742026647575
 20
28.03516620626332
 10
-101.4999105165401
 20
28.06275389149977
 10
-101.4999105165401
 20
28.06275389149977
 10
-101.4999105165401
 20
28.06275389149977
 10
-101.4268775572981
 20
28.09348954911369
 10
-101.4268775572981
 20
28.09348954911369
 10
-101.1257024541921
 20
28.21998080298201
 10
-100.6950598324365
 20
28.39432123704749
 10
-100.4610796307092
 20
28.47811453825388
 10
-100.4610796307092
 20
28.47811453825388
 10
-97.29353258471258
 20
29.61413191689507
 10
-97.29353258471258
 20
29.61413191689507
 10
-97.29353258471258
 20
29.61413191689507
 10
-90.88552000521636
 20
32.6308052320187
 10
-89.47122186806204
 20
33.81936513149646
 10
-89.38410888689288
 20
33.66700326824084
 10
-89.29482094298579
 20
33.51601506565542
 10
-89.21594992586962
 20
33.35787238038983
 10
-89.02169141202138
 20
32.96884022991309
 10
-88.82995127605378
 20
32.57820547531951
 10
-88.6535503509862
 20
32.17778338841073
 10
-88.55064027203495
 20
31.94494790391406
 10
-88.45482743993045
 20
31.70890721117344
 10
-88.35844224918529
 20
31.47298099015487
 10
-88.17826375726294
 20
31.03066225264224
 10
-88.009074550716
 20
30.58216204209221
 10
-87.8513325164936
 20
30.12725141505428
 10
-87.77932980273581
 20
29.92022930408294
 10
-87.70457976764594
 20
29.7144091462042
 10
-87.63749933800692
 20
29.50526930835949
 10
-87.42481087673578
 20
28.84070372072479
 10
-87.22803398496715
 20
28.16755275386684
 10
-87.06422494943032
 20
27.4787763968243
 10
-87.06399600597118
 20
27.47826127407161
 10
-87.0638815342501
 20
27.47780338718154
 10
-87.06376706253896
 20
27.47728826442564
 10
-86.96669504146994
 20
27.06925380794277
 10
-86.87855181477807
 20
26.65091689639135
 10
-86.79956632595045
 20
26.22376566217004
 10
-90.10665440220735
 20
24.22096839729002
 10
-93.6413122637338
 20
22.47973901936603
 10
-97.36370375088348
 20
20.99521248017787
 10
-100.0613443741378
 20
19.91929275609111
 10
-102.8546833577566
 20
18.97415697548719
 10
-105.7457811927968
 20
18.18149752986092
 10
-106.6663627888435
 20
17.9292590883204
 10
-107.6054888039946
 20
17.68904017768988
 10
-108.5375175723084
 20
17.46736568618312
 10
-110.1966707248835
 20
17.07278165714627
 10
-111.8462082527001
 20
16.73881040541334
 10
-113.4854433254661
 20
16.45377581524493
 10
-117.6904475966382
 20
15.72264492071234
 10
-121.8193281720159
 20
15.34729214113212
 10
-125.8094690191776
 20
15.34729214113212
 10
-127.9143750609379
 20
15.34729214113212
 10
-130.0106957234744
 20
15.45094628626921
 10
-132.0393635977501
 20
15.65533554761191
 10
-134.6718698106242
 20
15.92102441659845
 10
-137.3450134851508
 20
16.35063679286053
 10
-140.0138072342195
 20
16.93604518407267
 10
-140.0159821969389
 20
16.93650307096274
 10
-140.0181571596774
 20
16.93690372199339
 10
-140.0203321224163
 20
16.93736160888346
 97
        0
 97
        1
330
7F
 92
        1
 93
        1
 72
     4
 94
        3
 73
     0
 74
     0
 95
      194
 96
      190
 40
0.0
 40
0.0
 40
0.0
 40
0.0
 40
1.0
 40
1.0
 40
1.0
 40
2.0
 40
2.0
 40
2.0
 40
3.0
 40
3.0
 40
3.0
 40
4.0
 40
4.0
 40
4.0
 40
5.0
 40
5.0
 40
5.0
 40
6.0
 40
6.0
 40
6.0
 40
7.0
 40
7.0
 40
7.0
 40
8.0
 40
8.0
 40
8.0
 40
9.0
 40
9.0
 40
9.0
 40
10.0
 40
10.0
 40
10.0
 40
11.0
 40
11.0
 40
11.0
 40
12.0
 40
12.0
 40
12.0
 40
13.0
 40
13.0
 40
13.0
 40
14.0
 40
14.0
 40
14.0
 40
15.0
 40
15.0
 40
15.0
 40
16.0
 40
16.0
 40
16.0
 40
17.0
 40
17.0
 40
17.0
 40
18.0
 40
18.0
 40
18.0
 40
19.0
 40
19.0
 40
19.0
 40
20.0
 40
20.0
 40
20.0
 40
21.0
 40
21.0
 40
21.0
 40
22.0
 40
22.0
 40
22.0
 40
23.0
 40
23.0
 40
23.0
 40
24.0
 40
24.0
 40
24.0
 40
25.0
 40
25.0
 40
25.0
 40
26.0
 40
26.0
 40
26.0
 40
27.0
 40
27.0
 40
27.0
 40
28.0
 40
28.0
 40
28.0
 40
29.0
 40
29.0
 40
29.0
 40
30.0
 40
30.0
 40
30.0
 40
31.0
 40
31.0
 40
31.0
 40
32.0
 40
32.0
 40
32.0
 40
33.0
 40
33.0
 40
33.0
 40
34.0
 40
34.0
 40
34.0
 40
35.0
 40
35.0
 40
35.0
 40
36.0
 40
36.0
 40
36.0
 40
37.0
 40
37.0
 40
37.0
 40
38.0
 40
38.0
 40
38.0
 40
39.0
 40
39.0
 40
39.0
 40
40.0
 40
40.0
 40
40.0
 40
41.0
 40
41.0
 40
41.0
 40
42.0
 40
42.0
 40
42.0
 40
43.0
 40
43.0
 40
43.0
 40
44.0
 40
44.0
 40
44.0
 40
45.0
 40
45.0
 40
45.0
 40
46.0
 40
46.0
 40
46.0
 40
47.0
 40
47.0
 40
47.0
 40
48.0
 40
48.0
 40
48.0
 40
49.0
 40
49.0
 40
49.0
 40
50.0
 40
50.0
 40
50.0
 40
51.0
 40
51.0
 40
51.0
 40
52.0
 40
52.0
 40
52.0
 40
53.0
 40
53.0
 40
53.0
 40
54.0
 40
54.0
 40
54.0
 40
55.0
 40
55.0
 40
55.0
 40
56.0
 40
56.0
 40
56.0
 40
57.0
 40
57.0
 40
57.0
 40
58.0
 40
58.0
 40
58.0
 40
59.0
 40
59.0
 40
59.0
 40
60.0
 40
60.0
 40
60.0
 40
61.0
 40
61.0
 40
61.0
 40
62.0
 40
62.0
 40
62.0
 40
63.0
 40
63.0
 40
63.0
 40
63.0
 10
-137.8413628758986
 20
32.61569496458616
 10
-137.4919951774291
 20
32.54352054326296
 10
-137.1444590265274
 20
32.46413440338927
 10
-136.7939466108432
 20
32.3972256813195
 10
-135.1889385832251
 20
32.09055593551696
 10
-133.5706518357629
 20
31.83986286223773
 10
-131.9355377450245
 20
31.65785282273233
 10
-131.2427548776796
 20
31.58098506076589
 10
-130.5474536324441
 20
31.52598139788535
 10
-129.8507787265041
 20
31.4876906065529
 10
-129.6169129964976
 20
31.4748125377222
 10
-129.3823604361582
 20
31.47418294324811
 10
-129.1481512909993
 20
31.46548309229961
 10
-128.6845408130026
 20
31.44825509799433
 10
-128.221159278467
 20
31.430511980937
 10
-127.7566330267162
 20
31.42896661267894
 10
-127.7106153940719
 20
31.42879490509171
 10
-127.6648267048887
 20
31.42536075340434
 10
-127.6188090722739
 20
31.42536075340434
 10
-127.504337349315
 20
31.42536075340434
 10
-127.3896366828965
 20
31.43600662363771
 10
-127.2751649599379
 20
31.43692239742426
 10
-126.5290382697089
 20
31.44293216287765
 10
-125.7830260511715
 20
31.46874553640618
 10
-125.0370138326533
 20
31.51213031940803
 10
-124.8137939728994
 20
31.52512285996398
 10
-124.5910320000073
 20
31.53697068328995
 10
-124.3678121402527
 20
31.55311119622403
 10
-123.5008033105503
 20
31.61584170040774
 10
-122.6349391980922
 20
31.69568572717085
 10
-121.7720513504459
 20
31.80311743916656
 10
-121.6749793293769
 20
31.81519420593917
 10
-121.5788230820922
 20
31.83156366232373
 10
-121.4819800044544
 20
31.84421278770781
 10
-120.696589513239
 20
31.94637880045009
 10
-119.9149765888786
 20
32.06789053436975
 10
-119.1362254575891
 20
32.20285269573929
 10
-118.9098003895916
 20
32.24211649671384
 10
-118.6841766236287
 20
32.28166647699381
 10
-118.4583239142436
 20
32.32350589173823
 10
-118.3427074740408
 20
32.34491210393021
 10
-118.2289225814343
 20
32.3718129588261
 10
-118.1133061412322
 20
32.39390600135415
 10
-117.3740477543805
 20
32.53533581507036
 10
-116.6347893675003
 20
32.67813928946382
 10
-115.9049176619165
 20
32.844695646368
 10
-109.5102982740239
 20
34.30455352925824
 10
-103.4786687196056
 20
36.87610354965659
 10
-97.88065805176424
 20
40.21278256631443
 10
-97.11758954653731
 20
40.66763595748652
 10
-96.36802870460556
 20
41.14584158014896
 10
-95.62110071228383
 20
41.62822542069424
 10
-94.44765108025338
 20
40.60690870845801
 10
-93.36200125971499
 20
39.48600159724936
 10
-92.37731549881152
 20
38.26968230495435
 10
-92.10807800641331
 20
37.93725642148269
 10
-91.84525093050078
 20
37.60048061254031
 10
-91.59135264899331
 20
37.25448982989675
 10
-92.04695010636827
 20
36.9665362107943
 10
-92.48308737082551
 20
36.69655465219582
 10
-92.90457225477302
 20
36.44288531412312
 10
-93.01870056255113
 20
36.37420228034542
 10
-93.14564970330918
 20
36.29515955564426
 10
-93.25508467045754
 20
36.22979620183576
 10
-93.98117880918622
 20
35.7951470697592
 10
-94.74287365374616
 20
35.3649623348818
 10
-95.56935949350664
 20
34.92384555046178
 10
-96.39595980500748
 20
34.48267153017978
 10
-97.2872366399477
 20
34.03062269621712
 10
-98.27306711806606
 20
33.55201642252725
 10
-99.0563971182736
 20
33.17162688713575
 10
-99.87063448367457
 20
32.81069754464751
 10
-100.5641041813719
 20
32.50402779884176
 10
-100.9501028311877
 20
32.33701355504687
 10
-101.3374751416795
 20
32.17171638709471
 10
-101.726221112847
 20
32.01071190875321
 10
-101.726221112847
 20
32.01071190875321
 10
-101.7259921693863
 20
32.00945271979799
 10
-101.7259921693863
 20
32.00945271979799
 10
-101.81940109532
 20
31.97596974083403
 10
-101.924715080442
 20
31.93630528882818
 10
-102.0334632172674
 20
31.89423693064097
 10
-102.3594786842531
 20
31.76808909194133
 10
-102.7167449315945
 20
31.62013439001905
 10
-102.8798671368075
 20
31.55162306382922
 10
-103.2571659356787
 20
31.41150967492702
 10
-103.6429356420636
 20
31.27271271083945
 10
-104.0385499166077
 20
31.13477428467325
 10
-104.829778465697
 20
30.85895466820539
 10
-105.6602708157442
 20
30.58656920342555
 10
-106.5415886108034
 20
30.31412650278245
 10
-106.9823047442088
 20
30.17790515246475
 10
-107.4356127671248
 20
30.04168380214383
 10
-107.9032297553979
 20
29.90494732906959
 10
-108.9896808780085
 20
29.5874027695832
 10
-110.0947908914357
 20
29.29441239467011
 10
-111.1857064112448
 20
29.03496223458681
 10
-111.8275493618559
 20
28.88231419201872
 10
-112.468705482163
 20
28.74128502933317
 10
-113.109289243839
 20
28.60884124587088
 10
-113.3235803092174
 20
28.5645406890889
 10
-113.5374134877038
 20
28.52642160534112
 10
-113.7515900813418
 20
28.48441048301653
 10
-114.1789130231628
 20
28.40050271008811
 10
-114.6063504366751
 20
28.31739623921843
 10
-115.0331010198648
 20
28.24247449654456
 10
-115.2849388103737
 20
28.19828841148077
 10
-115.5363187139909
 20
28.15959696912152
 10
-115.7879275610679
 20
28.11855885643905
 10
-116.1335176926623
 20
28.06218153288446
 10
-116.4791078242768
 20
28.00454502037464
 10
-116.8243545407194
 20
27.95406299054819
 10
-116.8678537954436
 20
27.94770980992677
 10
-116.9111241067366
 20
27.94284476170015
 10
-116.9546233614608
 20
27.9365488169375
 10
-117.2204267021562
 20
27.8982580256057
 10
-117.4860010994197
 20
27.86403098044178
 10
-117.7516899684034
 20
27.82923157666319
 10
-118.1268138045556
 20
27.78006597165138
 10
-118.5015942255073
 20
27.73296085765675
 10
-118.8761457030272
 20
27.69083526360628
 10
-119.1465279126695
 20
27.66044302116103
 10
-119.4167956505628
 20
27.63256915661917
 10
-119.6868344450339
 20
27.60578277344852
 10
-120.0572649405277
 20
27.56903735037735
 10
-120.4274664925618
 20
27.53561160727538
 10
-120.7974391011637
 20
27.50573448758217
 10
-121.0677068390654
 20
27.48387038849756
 10
-121.3379745769872
 20
27.4630937707803
 10
-121.6078988997093
 20
27.44489276683226
 10
-121.9810767165532
 20
27.41970898777781
 10
-122.3540255899668
 20
27.39944749281645
 10
-122.7267455199197
 20
27.38124648886584
 10
-122.9902594261555
 20
27.36842565589326
 10
-123.2537733324208
 20
27.35497522844403
 10
-123.5168293517646
 20
27.34558854716268
 10
-123.9021411712578
 20
27.33185194040676
 10
-124.2867661603983
 20
27.32458298600199
 10
-124.6712766777982
 20
27.31834427709812
 10
-124.9208250338484
 20
27.31428053093345
 10
-125.1706023333488
 20
27.30792735030818
 10
-125.4198072742265
 20
27.30706881238746
 10
-125.491924459705
 20
27.3067826330814
 10
-125.5641561168745
 20
27.30380636828409
 10
-125.6361588306326
 20
27.30380636828409
 10
-125.8478170463711
 20
27.30380636828409
 10
-126.0585594883352
 20
27.31319304956544
 10
-126.2701032323629
 20
27.31548248402605
 10
-126.6922749466336
 20
27.32000411708463
 10
-127.114446660904
 20
27.3252698163387
 10
-127.5359315448522
 20
27.33883471550996
 10
-127.8277199666608
 20
27.34822139679132
 10
-128.1190505015877
 20
27.36321719249862
 10
-128.4104955082545
 20
27.3769537992539
 10
-128.8154964640669
 20
27.39601334112586
 10
-129.2203829481694
 20
27.41696166642778
 10
-129.6245826019388
 20
27.44443487993899
 10
-129.9216367230181
 20
27.46458190317831
 10
-130.2182329572154
 20
27.48867820086156
 10
-130.5147147196634
 20
27.51334685715947
 10
-130.9135342024509
 20
27.54654365681801
 10
-131.3118957983463
 20
27.58300290057927
 10
-131.7097995073498
 20
27.62432719256779
 10
-132.0077694022135
 20
27.65523455776574
 10
-132.3055103536267
 20
27.68843135742428
 10
-132.6029078898869
 20
27.7239748274022
 10
-132.9997813533667
 20
27.77136612070673
 10
-133.3961969299741
 20
27.82356522637783
 10
-133.7921546196904
 20
27.8790840120117
 10
-134.0880640235363
 20
27.92052277572162
 10
-134.3838589556601
 20
27.96247666218743
 10
-134.679424944354
 20
28.0084942948147
 10
-135.0789312574643
 20
28.07070967624509
 10
-135.4777507402518
 20
28.13950718174096
 10
-135.8764557513191
 20
28.21002176308534
 10
-136.1654968517864
 20
28.26119062324849
 10
-136.4546524239936
 20
28.31092858687176
 10
-136.743350109281
 20
28.36639013664622
 10
-137.1568219726067
 20
28.4458907482413
 10
-137.5693780621498
 20
28.53374779561299
 10
-137.9819341516916
 20
28.62223443745813
 10
-138.2528887199373
 20
28.68027160099924
 10
-138.5240722316233
 20
28.73516079215839
 10
-138.7945689129767
 20
28.79714723013893
 10
-138.9473886631384
 20
28.83211834150154
 10
-139.0996360546582
 20
28.87304198245876
 10
-139.2524558048106
 20
28.90932951863601
 10
-138.8760727797234
 20
30.17109408494619
 10
-138.4052505832067
 20
31.40899129701978
 10
-137.8413628758986
 20
32.61569496458616
 97
        0
 97
        1
330
80
 92
        1
 93
        1
 72
     4
 94
        3
 73
     0
 74
     0
 95
       56
 96
       52
 40
0.0
 40
0.0
 40
0.0
 40
0.0
 40
1.0
 40
1.0
 40
1.0
 40
2.0
 40
2.0
 40
2.0
 40
3.0
 40
3.0
 40
3.0
 40
4.0
 40
4.0
 40
4.0
 40
5.0
 40
5.0
 40
5.0
 40
6.0
 40
6.0
 40
6.0
 40
7.0
 40
7.0
 40
7.0
 40
8.0
 40
8.0
 40
8.0
 40
9.0
 40
9.0
 40
9.0
 40
10.0
 40
10.0
 40
10.0
 40
11.0
 40
11.0
 40
11.0
 40
12.0
 40
12.0
 40
12.0
 40
13.0
 40
13.0
 40
13.0
 40
14.0
 40
14.0
 40
14.0
 40
15.0
 40
15.0
 40
15.0
 40
16.0
 40
16.0
 40
16.0
 40
17.0
 40
17.0
 40
17.0
 40
17.0
 10
-135.8930541511455
 20
36.09803924871017
 10
-135.4222319546192
 20
36.81114084687874
 10
-134.9198155625666
 20
37.50380924249873
 10
-134.3850036729042
 20
38.16969125495127
 10
-134.3804248039862
 20
38.17552931282064
 10
-134.3756169916071
 20
38.18136737069322
 10
-134.3710381226891
 20
38.1872054285626
 10
-133.8234054000561
 20
38.8678542932726
 10
-133.2441784818858
 20
39.52206018997997
 10
-132.6354178592071
 20
40.14535872148876
 10
-132.6349599723151
 20
40.14575937252005
 10
-132.634731028855
 20
40.14621725941333
 10
-132.6342731419627
 20
40.14661791044399
 10
-132.209811993233
 20
40.10019962678285
 10
-131.7425384201305
 20
40.05652866447495
 10
-131.2060094546119
 20
40.01228534354917
 10
-129.6271009798579
 20
39.88230270213151
 10
-128.2471443595809
 20
39.81911431105772
 10
-126.9873830484348
 20
39.81911431105772
 10
-124.7787656256594
 20
39.81911431105772
 10
-122.7674974532929
 20
40.00988143736654
 10
-120.4525357998917
 20
40.4511126935118
 10
-119.4137049140406
 20
40.64909153836725
 10
-118.3195841860177
 20
40.89251565724108
 10
-117.1087023005482
 20
41.20044459199949
 10
-112.5964559249843
 20
42.34871044499731
 10
-108.1380112591974
 20
44.13149305835324
 10
-103.832042928391
 20
46.50746814007814
 10
-102.0927595697448
 20
45.8498853275428
 10
-100.4184961497686
 20
45.01143719273205
 10
-98.84725728042598
 20
44.01398783473563
 10
-104.6886348312721
 20
40.40389310779192
 10
-110.6885557184235
 20
37.88305406066346
 10
-116.7391875788386
 20
36.50172377972233
 10
-117.5581182848976
 20
36.31490592785294
 10
-118.3630834407425
 20
36.15807966740199
 10
-119.1633552559281
 20
36.01052561650715
 10
-122.1305767867518
 20
35.46340801662682
 10
-124.9690176292306
 20
35.17637017130835
 10
-127.6188090722739
 20
35.17637017130835
 10
-128.9548085509056
 20
35.17637017130835
 10
-130.2679136849648
 20
35.24688475265273
 10
-131.5204632775911
 20
35.38579618846168
 10
-132.9530768903995
 20
35.54531253440389
 10
-134.4141939622415
 20
35.76544165765386
 10
-135.9243049315105
 20
36.04996112506573
 10
-135.9254496487447
 20
36.05019006851236
 10
-135.9264798942491
 20
36.05030454023376
 10
-135.9276246114929
 20
36.05053348368104
 10
-135.9168642695202
 20
36.06690294006496
 10
-135.9038144931176
 20
36.08166979232561
 10
-135.8930541511455
 20
36.09803924871017
 97
        0
 97
        1
330
81
 92
        1
 93
        1
 72
     4
 94
        3
 73
     0
 74
     0
 95
       74
 96
       70
 40
0.0
 40
0.0
 40
0.0
 40
0.0
 40
1.0
 40
1.0
 40
1.0
 40
2.0
 40
2.0
 40
2.0
 40
3.0
 40
3.0
 40
3.0
 40
4.0
 40
4.0
 40
4.0
 40
5.0
 40
5.0
 40
5.0
 40
6.0
 40
6.0
 40
6.0
 40
7.0
 40
7.0
 40
7.0
 40
8.0
 40
8.0
 40
8.0
 40
9.0
 40
9.0
 40
9.0
 40
10.0
 40
10.0
 40
10.0
 40
11.0
 40
11.0
 40
11.0
 40
12.0
 40
12.0
 40
12.0
 40
13.0
 40
13.0
 40
13.0
 40
14.0
 40
14.0
 40
14.0
 40
15.0
 40
15.0
 40
15.0
 40
16.0
 40
16.0
 40
16.0
 40
17.0
 40
17.0
 40
17.0
 40
18.0
 40
18.0
 40
18.0
 40
19.0
 40
19.0
 40
19.0
 40
20.0
 40
20.0
 40
20.0
 40
21.0
 40
21.0
 40
21.0
 40
22.0
 40
22.0
 40
22.0
 40
23.0
 40
23.0
 40
23.0
 40
23.0
 10
-128.4903967708655
 20
43.60789939754083
 10
-126.5753993174949
 20
44.90223116903228
 10
-124.4923573748314
 20
45.95371118026712
 10
-122.2741243273276
 20
46.72559400817678
 10
-121.4013919114925
 20
47.02934472504462
 10
-120.5091993027677
 20
47.29245798026514
 10
-119.5980043880188
 20
47.50921018768651
 10
-117.5338502796301
 20
48.00006493573365
 10
-115.4219614627521
 20
48.24909816902958
 10
-113.3195737989019
 20
48.24926987661424
 10
-113.3195737989019
 20
48.24926987661424
 10
-113.3183146099467
 20
48.24926987661424
 10
-113.3183146099467
 20
48.24926987661424
 10
-111.9595352584442
 20
48.24926987661424
 10
-110.6268554597464
 20
48.13061993576599
 10
-109.3169555339301
 20
47.93653312949184
 10
-112.1056011769391
 20
46.65450706821708
 10
-115.0082606559858
 20
45.60554543488883
 10
-118.0338627655132
 20
44.83555139040914
 10
-118.5637523710761
 20
44.70081817248624
 10
-119.0650240459237
 20
44.58165310888595
 10
-119.5565656242925
 20
44.46935634866362
 10
-119.6969079566545
 20
44.43724703037244
 10
-119.8343884959159
 20
44.40742714654186
 10
-119.9720979786464
 20
44.37714937582121
 10
-120.3579821567228
 20
44.29238306496887
 10
-120.73447965355
 20
44.21494294438775
 10
-121.1037654317995
 20
44.14408494787855
 10
-121.2123990968852
 20
44.12325109429803
 10
-121.3233221964489
 20
44.10024227798278
 10
-121.4306966725692
 20
44.08061037749551
 10
-121.4542778475132
 20
44.0763176878842
 10
-121.4787747962117
 20
44.0709375169049
 10
-121.502241499416
 20
44.06670206315621
 10
-121.9334564798033
 20
43.98868958395978
 10
-122.3571163264692
 20
43.92103679569069
 10
-122.7761973042379
 20
43.86196938664483
 10
-122.875215344585
 20
43.84800383644291
 10
-122.9733176111578
 20
43.83741520207216
 10
-123.0719922363626
 20
43.82447989737819
 10
-123.4275414078568
 20
43.7778899061324
 10
-123.7819458621371
 20
43.73793927482114
 10
-124.1361213729841
 20
43.70462800343735
 10
-124.2621547399499
 20
43.69278018011137
 10
-124.3883025786453
 20
43.680817885064
 10
-124.5145648890715
 20
43.67062990172071
 10
-124.9368510750624
 20
43.6364600924162
 10
-125.3606253934599
 20
43.60921582235548
 10
-125.7922982607481
 20
43.59318978113959
 10
-125.815650492232
 20
43.59233124321502
 10
-125.8380869499316
 20
43.59044245978892
 10
-125.8615536531261
 20
43.58958392186499
 10
-126.2306104879439
 20
43.57676308889241
 10
-126.6048185502932
 20
43.57012372896173
 10
-126.9873830484348
 20
43.57012372896173
 10
-127.0876602777462
 20
43.57012372896173
 10
-127.1924019042365
 20
43.57315722962166
 10
-127.2939383225031
 20
43.57401576754238
 10
-127.3792197561043
 20
43.57475983374171
 10
-127.4651880200493
 20
43.57590455097169
 10
-127.5513852274348
 20
43.57722097578633
 10
-127.8598865208101
 20
43.58202878815032
 10
-128.1753705892835
 20
43.59061416737358
 10
-128.4972650742429
 20
43.60314882103626
 10
-128.6662253373293
 20
43.60967370924554
 10
-128.8356434873082
 20
43.61619859745163
 10
-129.0087247324213
 20
43.62484121253686
 10
-128.8296909577142
 20
43.61591241814557
 10
-128.6648516766537
 20
43.61459599333094
 10
-128.4903967708655
 20
43.60789939754083
 97
        0
 97
        1
330
82
 92
        1
 93
        1
 72
     4
 94
        3
 73
     0
 74
     0
 95
      209
 96
      205
 40
0.0
 40
0.0
 40
0.0
 40
0.0
 40
1.0
 40
1.0
 40
1.0
 40
2.0
 40
2.0
 40
2.0
 40
3.0
 40
3.0
 40
3.0
 40
4.0
 40
4.0
 40
4.0
 40
5.0
 40
5.0
 40
5.0
 40
6.0
 40
6.0
 40
6.0
 40
7.0
 40
7.0
 40
7.0
 40
8.0
 40
8.0
 40
8.0
 40
9.0
 40
9.0
 40
9.0
 40
10.0
 40
10.0
 40
10.0
 40
11.0
 40
11.0
 40
11.0
 40
12.0
 40
12.0
 40
12.0
 40
13.0
 40
13.0
 40
13.0
 40
14.0
 40
14.0
 40
14.0
 40
15.0
 40
15.0
 40
15.0
 40
16.0
 40
16.0
 40
16.0
 40
17.0
 40
17.0
 40
17.0
 40
18.0
 40
18.0
 40
18.0
 40
19.0
 40
19.0
 40
19.0
 40
20.0
 40
20.0
 40
20.0
 40
21.0
 40
21.0
 40
21.0
 40
22.0
 40
22.0
 40
22.0
 40
23.0
 40
23.0
 40
23.0
 40
24.0
 40
24.0
 40
24.0
 40
25.0
 40
25.0
 40
25.0
 40
26.0
 40
26.0
 40
26.0
 40
27.0
 40
27.0
 40
27.0
 40
28.0
 40
28.0
 40
28.0
 40
29.0
 40
29.0
 40
29.0
 40
30.0
 40
30.0
 40
30.0
 40
31.0
 40
31.0
 40
31.0
 40
32.0
 40
32.0
 40
32.0
 40
33.0
 40
33.0
 40
33.0
 40
34.0
 40
34.0
 40
34.0
 40
35.0
 40
35.0
 40
35.0
 40
36.0
 40
36.0
 40
36.0
 40
37.0
 40
37.0
 40
37.0
 40
38.0
 40
38.0
 40
38.0
 40
39.0
 40
39.0
 40
39.0
 40
40.0
 40
40.0
 40
40.0
 40
41.0
 40
41.0
 40
41.0
 40
42.0
 40
42.0
 40
42.0
 40
43.0
 40
43.0
 40
43.0
 40
44.0
 40
44.0
 40
44.0
 40
45.0
 40
45.0
 40
45.0
 40
46.0
 40
46.0
 40
46.0
 40
47.0
 40
47.0
 40
47.0
 40
48.0
 40
48.0
 40
48.0
 40
49.0
 40
49.0
 40
49.0
 40
50.0
 40
50.0
 40
50.0
 40
51.0
 40
51.0
 40
51.0
 40
52.0
 40
52.0
 40
52.0
 40
53.0
 40
53.0
 40
53.0
 40
54.0
 40
54.0
 40
54.0
 40
55.0
 40
55.0
 40
55.0
 40
56.0
 40
56.0
 40
56.0
 40
57.0
 40
57.0
 40
57.0
 40
58.0
 40
58.0
 40
58.0
 40
59.0
 40
59.0
 40
59.0
 40
60.0
 40
60.0
 40
60.0
 40
61.0
 40
61.0
 40
61.0
 40
62.0
 40
62.0
 40
62.0
 40
63.0
 40
63.0
 40
63.0
 40
64.0
 40
64.0
 40
64.0
 40
65.0
 40
65.0
 40
65.0
 40
66.0
 40
66.0
 40
66.0
 40
67.0
 40
67.0
 40
67.0
 40
68.0
 40
68.0
 40
68.0
 40
68.0
 10
-78.09914302247335
 20
87.73434469185515
 10
-78.09914302247335
 20
87.73434469185515
 10
-91.14800366595829
 20
42.52837381417948
 10
-91.14800366595829
 20
42.52837381417948
 10
-91.18509250419622
 20
42.56695078481733
 10
-91.22183792728311
 20
42.60581393476059
 10
-91.25915570895321
 20
42.64421919781443
 10
-91.33447810267474
 20
42.72183102597955
 10
-91.40774000536755
 20
42.8017895244647
 10
-91.4838637011231
 20
42.87860005057173
 10
-91.79282288140036
 20
43.19002037287948
 10
-92.10899378019666
 20
43.4938283256106
 10
-92.43043037826467
 20
43.79122586185703
 10
-92.43031590654425
 20
43.79134033357906
 10
-92.43008696309312
 20
43.79151204116628
 10
-92.42997249137237
 20
43.79162651288832
 10
-92.43317769961567
 20
43.79466001354761
 10
-92.43672632302958
 20
43.79740733489827
 10
-92.44004600299298
 20
43.80044083555437
 10
-92.83909442924089
 20
44.16938319865055
 10
-93.24867425397156
 20
44.52607708738946
 10
-93.66603815589305
 20
44.87275470036652
 10
-93.680576064692
 20
44.88477423127972
 10
-93.69419819972685
 20
44.89793847942033
 10
-93.7086216368336
 20
44.90995801033032
 10
-93.73769745445072
 20
44.93399707215094
 10
-93.76780351759057
 20
44.9565480015729
 10
-93.79710827866846
 20
44.98030088408747
 10
-93.79997007173988
 20
44.98259031854807
 10
-93.80294633655099
 20
44.98482251714541
 10
-93.80569365790231
 20
44.98711195160602
 10
-93.81290537643193
 20
44.99306448119678
 10
-93.82057498187249
 20
44.99844465217609
 10
-93.82790117214181
 20
45.00439718177007
 10
-94.20542891447343
 20
45.31375701306836
 10
-94.59005390361362
 20
45.61430252169226
 10
-94.98154719613209
 20
45.90506069800801
 10
-94.98498134780598
 20
45.90763631177401
 10
-94.98818655604898
 20
45.91038363312469
 10
-94.99162070775239
 20
45.91295924689455
 10
-95.03855411415115
 20
45.94781588653192
 10
-95.08514410539758
 20
45.98324488478844
 10
-95.13242092697653
 20
46.01787258098302
 10
-95.18233059818671
 20
46.05450353233215
 10
-95.23475864731633
 20
46.08758586026545
 10
-95.28489726195772
 20
46.12387339644334
 10
-95.58023430719019
 20
46.33782104665141
 10
-95.8806081082336
 20
46.54461421417611
 10
-96.1832713437357
 20
46.74825940932013
 10
-95.88129493858572
 20
46.54507210107003
 10
-95.58149349614573
 20
46.33862234871336
 10
-95.28649986609318
 20
46.12507534953594
 10
-95.23613230799229
 20
46.08855886991205
 10
-95.18336084369144
 20
46.05530483439088
 10
-95.13310775732961
 20
46.01844493959833
 10
-95.34533833167989
 20
46.17418371868512
 10
-95.55962939705791
 20
46.32660281780338
 10
-95.77575201000358
 20
46.47684695418561
 10
-95.90281562250231
 20
46.5653335960346
 10
-96.03056606532391
 20
46.65319064340244
 10
-96.15900333846877
 20
46.73973126595949
 10
-96.21864310612703
 20
46.7799108407206
 10
-96.27999994963285
 20
46.81734309412463
 10
-96.33986866074321
 20
46.85712201785508
 10
-96.34032654763489
 20
46.85735096130236
 10
-96.34055549109532
 20
46.8576943764704
 10
-96.341013377987
 20
46.85792331991382
 10
-96.37421017763109
 20
46.87984465486106
 10
-96.40763592073435
 20
46.90107915946903
 10
-96.44083272040669
 20
46.92271431510701
 10
-96.51855902027877
 20
46.97336805251747
 10
-96.59628532016979
 20
47.02390731820269
 10
-96.67424056350231
 20
47.0741604045825
 10
-97.03494096254713
 20
47.3065380021891
 10
-97.4001057587985
 20
47.5318183529711
 10
-97.77019283911213
 20
47.74902844728575
 10
-97.81655388690776
 20
47.77621548148768
 10
-97.86096891541498
 20
47.80655048807031
 10
-97.90744443495126
 20
47.83350857882883
 10
-97.91831924861522
 20
47.83980452359148
 10
-97.92873617540678
 20
47.84695900627485
 10
-97.93949651737918
 20
47.85331218690012
 10
-97.95483572824135
 20
47.86212650957001
 10
-97.97086176945564
 20
47.86979611500608
 10
-97.98620098034668
 20
47.87861043767276
 10
-98.09140049372837
 20
47.93922321497989
 10
-98.19648553540984
 20
48.00006493573365
 10
-98.30237187914395
 20
48.05941852408876
 10
-98.37952582043216
 20
48.10268883536537
 10
-98.45507715758429
 20
48.14853476041183
 10
-98.53257451401551
 20
48.19111824135173
 10
-98.94845028352071
 20
48.41977550796169
 10
-99.369133865396
 20
48.63961845190176
 10
-99.79542656169337
 20
48.84904446905574
 10
-99.81110918773643
 20
48.85671407449502
 10
-99.82713522895037
 20
48.86358237786912
 10
-99.84293232673374
 20
48.87125198330903
 10
-100.2422096964125
 20
49.06654074267644
 10
-100.6462948784412
 20
49.2523283490366
 10
-101.0539286838944
 20
49.43038911409872
 10
-101.1703464261597
 20
49.4812145590932
 10
-101.288481244253
 20
49.52831967309169
 10
-101.4054713451019
 20
49.57777145740955
 10
-101.524292993548
 20
49.62791007206411
 10
-101.6449461895318
 20
49.67404217641599
 10
-101.7642257248686
 20
49.72297883798115
 10
-101.7990251286482
 20
49.73717333163035
 10
-101.8339390041385
 20
49.75125335355046
 10
-101.8688528796382
 20
49.76533337547826
 10
-102.0265949138895
 20
49.82938030447212
 10
-102.1831922308964
 20
49.89588837551124
 10
-102.342193454074
 20
49.9569590397078
 10
-102.4864278250022
 20
50.01230611776087
 10
-102.6316924414339
 20
50.06524928962808
 10
-102.7768425861448
 20
50.11847864080134
 10
-103.0717217444862
 20
50.22665441899638
 10
-103.3682035069628
 20
50.33059474344659
 10
-103.6666312886992
 20
50.42984172725033
 10
-103.818535265067
 20
50.48038099293555
 10
-103.9707826566163
 20
50.53040513586872
 10
-104.1237168784892
 20
50.57859773123457
 10
-104.4279827180981
 20
50.67452503507297
 10
-104.7345379921953
 20
50.76444257345735
 10
-105.0422379835087
 20
50.8509831960144
 10
-105.1860144675439
 20
50.89139171421958
 10
-105.3291041212274
 20
50.93363177999081
 10
-105.4736819073269
 20
50.97197980718203
 10
-105.8300323808936
 20
51.06664792206841
 10
-106.1892446475523
 20
51.15307407290344
 10
-106.5496016314252
 20
51.23503582653992
 10
-106.6447276331872
 20
51.25661374631913
 10
-106.7388233894637
 20
51.28151134606047
 10
-106.8341783346859
 20
51.30223072791832
 10
-107.2963006802666
 20
51.40262242895269
 10
-107.76139929065
 20
51.49299785422778
 10
-108.229359694104
 20
51.57209781479156
 10
-108.2999887471669
 20
51.58406010983893
 10
-108.371533574033
 20
51.59241654561554
 10
-108.4422770988067
 20
51.60386371791086
 10
-108.8319388437572
 20
51.6669948731246
 10
-109.2233176645549
 20
51.72377284771048
 10
-109.6167569763605
 20
51.77190820721691
 10
-109.7719806326927
 20
51.79085327736427
 10
-109.9284634779794
 20
51.80510500687224
 10
-110.0843739646438
 20
51.82170340670344
 10
-110.3967672966146
 20
51.85501467808338
 10
-110.7097329871685
 20
51.88534968466665
 10
-111.024072338427
 20
51.90910256718122
 10
-111.2012745655674
 20
51.92243852290584
 10
-111.3790491513097
 20
51.93285544969579
 10
-111.5568237370613
 20
51.94310066890107
 10
-111.8551370471058
 20
51.96038589906576
 10
-112.1541371874736
 20
51.97337843962172
 10
-112.4538241581642
 20
51.98190658298234
 10
-112.6370933866181
 20
51.98711504637763
 10
-112.8205915585231
 20
51.99169391529821
 10
-113.004433145609
 20
51.9935826987243
 10
-113.1102050176221
 20
51.99467018009166
 10
-113.215290059284
 20
52.00027929451761
 10
-113.3211764030177
 20
52.00027929451761
 10
-113.451788638931
 20
52.00027929451761
 10
-113.5837745354904
 20
51.99054919806822
 10
-113.7146157148436
 20
51.98883212222293
 10
-114.0602058464385
 20
51.98442496088574
 10
-114.4063683366648
 20
51.97486657202037
 10
-114.7533321289546
 20
51.95861158736105
 10
-114.9703705156837
 20
51.94842360401775
 10
-115.1876378458738
 20
51.93640407310777
 10
-115.4051341194945
 20
51.92157998498448
 10
-115.7577070262067
 20
51.89748368730188
 10
-116.1111957067026
 20
51.86537436901069
 10
-116.4649133306295
 20
51.82891512524943
 10
-116.674396583658
 20
51.80733720547022
 10
-116.8836508932263
 20
51.78730465395165
 10
-117.093363089686
 20
51.76131957284295
 10
-117.4766144181512
 20
51.71387104367643
 10
-117.8603236335084
 20
51.65491810635198
 10
-118.2442617922965
 20
51.59264548906218
 10
-118.423066623572
 20
51.56362690729356
 10
-118.6016425113875
 20
51.53970231719497
 10
-118.7806762860946
 20
51.50742129131977
 10
-119.3422745589145
 20
51.40617105236467
 10
-119.9041017751948
 20
51.29204274457566
 10
-120.4658145197543
 20
51.15845424388274
 10
-121.4405412407582
 20
50.92664900489145
 10
-122.3914578433577
 20
50.64733800087103
 10
-123.3206248186286
 20
50.33007962069389
 10
-123.3206248186286
 20
50.33007962069389
 10
-134.1800992887941
 20
87.73434469185515
 10
-134.1800992887941
 20
87.73434469185515
 10
-134.1800992887941
 20
87.73434469185515
 10
-193.2170588570844
 20
87.73434469185515
 10
-193.2170588570844
 20
87.73434469185515
 10
-193.2170588570844
 20
87.73434469185515
 10
-138.420360850637
 20
-81.12878913795071
 10
-138.420360850637
 20
-81.12878913795071
 10
-138.420360850637
 20
-81.12878913795071
 10
-83.09949682475108
 20
-81.12878913795071
 10
-83.09949682475108
 20
-81.12878913795071
 10
-83.09949682475108
 20
-81.12878913795071
 10
-30.69960775360403
 20
87.73434469185515
 10
-30.69960775360403
 20
87.73434469185515
 10
-30.69960775360403
 20
87.73434469185515
 10
-78.09914302247335
 20
87.73434469185515
 10
-78.09914302247335
 20
87.73434469185515
 97
        0
 97
        1
330
83
 75
     2
 76
     1
 98
        1
 10
0.0
 20
0.0
450
        0
451
        0
460
0.0
461
0.0
452
        0
462
0.0
453
        0
470

  0
SPLINE
  5
85
330
79
100
AcDbEntity
  8
Layer 1
100
AcDbSpline
210
0.0
220
0.0
230
1.0
 70
     9
 71
     3
 72
    17
 73
    13
 74
     0
 42
0.0000000001
 43
0.0000000001
 40
0.0
 40
0.0
 40
0.0
 40
0.0
 40
1.0
 40
1.0
 40
1.0
 40
2.0
 40
2.0
 40
2.0
 40
3.0
 40
3.0
 40
3.0
 40
4.0
 40
4.0
 40
4.0
 40
4.0
 10
-93.84346932646408
 20
45.01704630715799
 30
0.0
 10
-94.1059529872057
 20
45.23196696701268
 30
0.0
 10
-94.37084055413672
 20
45.44385412620743
 30
0.0
 10
-94.64019251825503
 20
45.64984599167403
 30
0.0
 10
-94.75260375021511
 20
45.73581425561577
 30
0.0
 10
-94.86661758628176
 20
45.81966479268093
 30
0.0
 10
-94.98017353545643
 20
45.90408768836204
 30
0.0
 10
-94.58959601672226
 20
45.61390187066481
 30
0.0
 10
-94.20600127307592
 20
45.31415766409516
 30
0.0
 10
-93.82927483281713
 20
45.00548466313808
 30
0.0
 10
-93.83396817345557
 20
45.00937670171873
 30
0.0
 10
-93.83866151411453
 20
45.01315426857734
 30
0.0
 10
-93.84346932646408
 20
45.01704630715799
 30
0.0
  0
HATCH
  5
86
330
79
100
AcDbEntity
  8
Layer 1
 62
     7
440
 33554687
100
AcDbHatch
 10
0.0
 20
0.0
 30
0.0
210
0.0
220
0.0
230
1.0
  2
SOLID
 70
     1
 71
     1
 91
        1
 92
        1
 93
        1
 72
     4
 94
        3
 73
     0
 74
     0
 95
       17
 96
       13
 40
0.0
 40
0.0
 40
0.0
 40
0.0
 40
1.0
 40
1.0
 40
1.0
 40
2.0
 40
2.0
 40
2.0
 40
3.0
 40
3.0
 40
3.0
 40
4.0
 40
4.0
 40
4.0
 40
4.0
 10
-93.84346932646408
 20
45.01704630715799
 10
-94.1059529872057
 20
45.23196696701268
 10
-94.37084055413672
 20
45.44385412620743
 10
-94.64019251825503
 20
45.64984599167403
 10
-94.75260375021511
 20
45.73581425561577
 10
-94.86661758628176
 20
45.81966479268093
 10
-94.98017353545643
 20
45.90408768836204
 10
-94.58959601672226
 20
45.61390187066481
 10
-94.20600127307592
 20
45.31415766409516
 10
-93.82927483281713
 20
45.00548466313808
 10
-93.83396817345557
 20
45.00937670171873
 10
-93.83866151411453
 20
45.01315426857734
 10
-93.84346932646408
 20
45.01704630715799
 97
        0
 97
        1
330
85
 75
     2
 76
     1
 98
        1
 10
0.0
 20
0.0
450
        0
451
        0
460
0.0
461
0.0
452
        0
462
0.0
453
        0
470

  0
SPLINE
  5
87
330
79
100
AcDbEntity
  8
Layer 1
100
AcDbSpline
210
0.0
220
0.0
230
1.0
 70
     9
 71
     3
 72
    14
 73
    10
 74
     0
 42
0.0000000001
 43
0.0000000001
 40
0.0
 40
0.0
 40
0.0
 40
0.0
 40
1.0
 40
1.0
 40
1.0
 40
2.0
 40
2.0
 40
2.0
 40
3.0
 40
3.0
 40
3.0
 40
3.0
 10
-93.55133748947398
 20
44.77946024615675
 30
0.0
 10
-93.58888421460484
 20
44.81088273411123
 30
0.0
 10
-93.62757565697917
 20
44.84087432552197
 30
0.0
 10
-93.66523685382052
 20
44.87212510589244
 30
0.0
 10
-93.24833083880031
 20
44.5257909080802
 30
0.0
 10
-92.83932337267179
 20
44.16955490623457
 30
0.0
 10
-92.44050388988497
 20
43.80101319416968
 30
0.0
 10
-92.80326477993765
 20
44.13630087071725
 30
0.0
 10
-93.17358080371143
 20
44.46248804528567
 30
0.0
 10
-93.55133748947398
 20
44.77946024615675
 30
0.0
  0
HATCH
  5
88
330
79
100
AcDbEntity
  8
Layer 1
 62
     7
440
 33554687
100
AcDbHatch
 10
0.0
 20
0.0
 30
0.0
210
0.0
220
0.0
230
1.0
  2
SOLID
 70
     1
 71
     1
 91
        1
 92
        1
 93
        1
 72
     4
 94
        3
 73
     0
 74
     0
 95
       14
 96
       10
 40
0.0
 40
0.0
 40
0.0
 40
0.0
 40
1.0
 40
1.0
 40
1.0
 40
2.0
 40
2.0
 40
2.0
 40
3.0
 40
3.0
 40
3.0
 40
3.0
 10
-93.55133748947398
 20
44.77946024615675
 10
-93.58888421460484
 20
44.81088273411123
 10
-93.62757565697917
 20
44.84087432552197
 10
-93.66523685382052
 20
44.87212510589244
 10
-93.24833083880031
 20
44.5257909080802
 10
-92.83932337267179
 20
44.16955490623457
 10
-92.44050388988497
 20
43.80101319416968
 10
-92.80326477993765
 20
44.13630087071725
 10
-93.17358080371143
 20
44.46248804528567
 10
-93.55133748947398
 20
44.77946024615675
 97
        0
 97
        1
330
87
 75
     2
 76
     1
 98
        1
 10
0.0
 20
0.0
450
        0
451
        0
460
0.0
461
0.0
452
        0
462
0.0
453
        0
470

  0
SPLINE
  5
89
330
79
100
AcDbEntity
  8
Layer 1
100
AcDbSpline
210
0.0
220
0.0
230
1.0
 70
     9
 71
     3
 72
    20
 73
    16
 74
     0
 42
0.0000000001
 43
0.0000000001
 40
0.0
 40
0.0
 40
0.0
 40
0.0
 40
1.0
 40
1.0
 40
1.0
 40
2.0
 40
2.0
 40
2.0
 40
3.0
 40
3.0
 40
3.0
 40
4.0
 40
4.0
 40
4.0
 40
5.0
 40
5.0
 40
5.0
 40
5.0
 10
-96.67515633728566
 20
47.07478999906043
 30
0.0
 10
-96.77554803833768
 20
47.13946652253222
 30
0.0
 10
-96.8744516069734
 20
47.20614630115472
 30
0.0
 10
-96.97541566660831
 20
47.26967810739654
 30
0.0
 10
-97.09446625848496
 20
47.34442814249024
 30
0.0
 10
-97.2126010765786
 20
47.42060907411934
 30
0.0
 10
-97.3325674422389
 20
47.49375650508914
 30
0.0
 10
-97.52270497407074
 20
47.60965912458287
 30
0.0
 10
-97.71490299692073
 20
47.72172694135919
 30
0.0
 10
-97.90744443495126
 20
47.83350857882883
 30
0.0
 10
-97.86096891541498
 20
47.80655048807031
 30
0.0
 10
-97.81643941518733
 20
47.77621548148768
 30
0.0
 10
-97.77007836740102
 20
47.74897121142312
 30
0.0
 10
-97.40033470223037
 20
47.53204729641773
 30
0.0
 10
-97.03551332115923
 20
47.30688141735713
 30
0.0
 10
-96.67515633728566
 20
47.07478999906043
 30
0.0
  0
HATCH
  5
8A
330
79
100
AcDbEntity
  8
Layer 1
 62
     7
440
 33554687
100
AcDbHatch
 10
0.0
 20
0.0
 30
0.0
210
0.0
220
0.0
230
1.0
  2
SOLID
 70
     1
 71
     1
 91
        1
 92
        1
 93
        1
 72
     4
 94
        3
 73
     0
 74
     0
 95
       20
 96
       16
 40
0.0
 40
0.0
 40
0.0
 40
0.0
 40
1.0
 40
1.0
 40
1.0
 40
2.0
 40
2.0
 40
2.0
 40
3.0
 40
3.0
 40
3.0
 40
4.0
 40
4.0
 40
4.0
 40
5.0
 40
5.0
 40
5.0
 40
5.0
 10
-96.67515633728566
 20
47.07478999906043
 10
-96.77554803833768
 20
47.13946652253222
 10
-96.8744516069734
 20
47.20614630115472
 10
-96.97541566660831
 20
47.26967810739654
 10
-97.09446625848496
 20
47.34442814249024
 10
-97.2126010765786
 20
47.42060907411934
 10
-97.3325674422389
 20
47.49375650508914
 10
-97.52270497407074
 20
47.60965912458287
 10
-97.71490299692073
 20
47.72172694135919
 10
-97.90744443495126
 20
47.83350857882883
 10
-97.86096891541498
 20
47.80655048807031
 10
-97.81643941518733
 20
47.77621548148768
 10
-97.77007836740102
 20
47.74897121142312
 10
-97.40033470223037
 20
47.53204729641773
 10
-97.03551332115923
 20
47.30688141735713
 10
-96.67515633728566
 20
47.07478999906043
 97
        0
 97
        1
330
89
 75
     2
 76
     1
 98
        1
 10
0.0
 20
0.0
450
        0
451
        0
460
0.0
461
0.0
452
        0
462
0.0
453
        0
470

  0
ENDBLK
  5
7C
330
79
100
AcDbEntity
  8
0
100
AcDbBlockEnd
  0
ENDSEC
  0
SECTION
  2
ENTITIES
  0
INSERT
  5
7A
330
70
100
AcDbEntity
  8
Layer 1
100
AcDbBlockReference
  2
Block_0
 10
0.0
 20
0.0
 30
0.0
  0
ENDSEC
  0
SECTION
  2
OBJECTS
  0
DICTIONARY
  5
C
330
0
100
AcDbDictionary
281
     1
  3
ACAD_COLOR
350
63
  3
ACAD_DETAILVIEWSTYLE
350
6A
  3
ACAD_GROUP
350
D
  3
ACAD_LAYOUT
350
62
  3
ACAD_MATERIAL
350
10
  3
ACAD_MLEADERSTYLE
350
66
  3
ACAD_MLINESTYLE
350
5F
  3
ACAD_PLOTSETTINGS
350
61
  3
ACAD_PLOTSTYLENAME
350
E
  3
ACAD_SCALELIST
350
42
  3
ACAD_SECTIONVIEWSTYLE
350
68
  3
ACAD_TABLESTYLE
350
64
  3
ACAD_VISUALSTYLE
350
29
  3
ACDB_RECOMPOSE_DATA
350
93
  3
AcDbVariableDictionary
350
8B
  0
DICTIONARY
  5
63
102
{ACAD_REACTORS
330
C
102
}
330
C
100
AcDbDictionary
281
     1
  0
DICTIONARY
  5
6A
102
{ACAD_REACTORS
330
C
102
}
330
C
100
AcDbDictionary
281
     1
  3
Imperial24
350
6B
  0
DICTIONARY
  5
D
102
{ACAD_REACTORS
330
C
102
}
330
C
100
AcDbDictionary
281
     1
  0
DICTIONARY
  5
62
102
{ACAD_REACTORS
330
C
102
}
330
C
100
AcDbDictionary
281
     1
  3
Layout1
350
6F
  3
Layout2
350
77
  3
Model
350
73
  0
DICTIONARY
  5
10
102
{ACAD_REACTORS
330
C
102
}
330
C
100
AcDbDictionary
281
     1
  3
ByBlock
350
19
  3
ByLayer
350
11
  3
Global
350
21
  0
DICTIONARY
  5
66
102
{ACAD_REACTORS
330
C
102
}
330
C
100
AcDbDictionary
281
     1
  3
Standard
350
67
  0
DICTIONARY
  5
5F
102
{ACAD_REACTORS
330
C
102
}
330
C
100
AcDbDictionary
281
     1
  3
Standard
350
60
  0
DICTIONARY
  5
61
102
{ACAD_REACTORS
330
C
102
}
330
C
100
AcDbDictionary
281
     1
  0
ACDBDICTIONARYWDFLT
  5
E
102
{ACAD_REACTORS
330
C
102
}
330
C
100
AcDbDictionary
281
     1
  3
Normal
350
F
100
AcDbDictionaryWithDefault
340
F
  0
DICTIONARY
  5
42
102
{ACAD_REACTORS
330
C
102
}
330
C
100
AcDbDictionary
281
     1
  3
A0
350
43
  3
A1
350
44
  3
A2
350
45
  3
A3
350
46
  3
A4
350
47
  3
A5
350
48
  3
A6
350
49
  3
A7
350
4A
  3
A8
350
4B
  3
A9
350
4C
  3
B0
350
4D
  3
B1
350
4E
  3
B2
350
4F
  3
B3
350
50
  3
B4
350
51
  3
B5
350
52
  3
B6
350
53
  0
DICTIONARY
  5
68
102
{ACAD_REACTORS
330
C
102
}
330
C
100
AcDbDictionary
281
     1
  3
Imperial24
350
69
  0
DICTIONARY
  5
64
102
{ACAD_REACTORS
330
C
102
}
330
C
100
AcDbDictionary
281
     1
  3
Standard
350
65
  0
DICTIONARY
  5
29
102
{ACAD_REACTORS
330
C
102
}
330
C
100
AcDbDictionary
281
     1
  3
2dWireframe
350
2F
  3
Basic
350
2E
  3
Brighten
350
35
  3
ColorChange
350
39
  3
Conceptual
350
32
  3
Dim
350
34
  3
EdgeColorOff
350
41
  3
Facepattern
350
38
  3
Flat
350
2A
  3
FlatWithEdges
350
2B
  3
Gouraud
350
2C
  3
GouraudWithEdges
350
2D
  3
Hidden
350
31
  3
JitterOff
350
3F
  3
Linepattern
350
37
  3
OverhangOff
350
40
  3
Realistic
350
33
  3
Shaded
350
3E
  3
Shaded with edges
350
3D
  3
Shades of Gray
350
3A
  3
Sketchy
350
3B
  3
Thicken
350
36
  3
Wireframe
350
30
  3
X-Ray
350
3C
  0
XRECORD
  5
93
102
{ACAD_REACTORS
330
C
102
}
330
C
100
AcDbXrecord
280
     1
 90
        1
330
65
  0
DICTIONARY
  5
8B
102
{ACAD_REACTORS
330
C
102
}
330
C
100
AcDbDictionary
281
     1
  3
CANNOSCALE
350
90
  3
CMLEADERSTYLE
350
8D
  3
CTABLESTYLE
350
8C
  3
CVIEWDETAILSTYLE
350
8E
  3
CVIEWSECTIONSTYLE
350
8F
  0
ACDBDETAILVIEWSTYLE
  5
6B
102
{ACAD_XDICTIONARY
360
96
102
}
102
{ACAD_REACTORS
330
6A
102
}
330
6A
100
AcDbModelDocViewStyle
 70
     0
  3
Imperial24
290
     0
100
AcDbDetailViewStyle
 70
     0
 71
     0
 90
        3
 71
     1
340
55
 62
   256
 40
0.24
340
0
 62
   256
 40
0.24
300

 40
0.36
280
     3
 71
     2
340
5D
 90
       25
 62
   256
 71
     3
340
55
 62
   256
 40
0.24
 90
        1
 40
0.75
 90
        1
300
%<\AcVar ViewType \f "%tc1">% %<\AcVar ViewDetailId>%\PSCALE %<\AcVar ViewScale \f "%sn">%
 71
     4
340
5D
 90
       25
 62
   256
340
5D
 90
       25
 62
   256
280
     0
  0
LAYOUT
  5
6F
102
{ACAD_REACTORS
330
62
102
}
330
62
100
AcDbPlotSettings
  1

  2

  4

  6

 40
0.0
 41
0.0
 42
0.0
 43
0.0
 44
0.0
 45
0.0
 46
0.0
 47
0.0
 48
0.0
 49
0.0
140
0.0
141
0.0
142
1.0
143
1.0
 70
   688
 72
     0
 73
     0
 74
     5
  7

 75
    16
147
1.0
 76
     0
 77
     2
 78
   300
148
0.0
149
0.0
100
AcDbLayout
  1
Layout1
 70
     1
 71
     1
 10
0.0
 20
0.0
 11
12.0
 21
9.0
 12
0.0
 22
0.0
 32
0.0
 14
0.0
 24
0.0
 34
0.0
 15
0.0
 25
0.0
 35
0.0
146
0.0
 13
0.0
 23
0.0
 33
0.0
 16
1.0
 26
0.0
 36
0.0
 17
0.0
 27
1.0
 37
0.0
 76
     0
330
6C
  0
LAYOUT
  5
77
102
{ACAD_REACTORS
330
62
102
}
330
62
100
AcDbPlotSettings
  1

  2

  4

  6

 40
0.0
 41
0.0
 42
0.0
 43
0.0
 44
0.0
 45
0.0
 46
0.0
 47
0.0
 48
0.0
 49
0.0
140
0.0
141
0.0
142
1.0
143
1.0
 70
   688
 72
     0
 73
     0
 74
     5
  7

 75
    16
147
1.0
 76
     0
 77
     2
 78
   300
148
0.0
149
0.0
100
AcDbLayout
  1
Layout2
 70
     1
 71
     2
 10
0.0
 20
0.0
 11
12.0
 21
9.0
 12
0.0
 22
0.0
 32
0.0
 14
0.0
 24
0.0
 34
0.0
 15
0.0
 25
0.0
 35
0.0
146
0.0
 13
0.0
 23
0.0
 33
0.0
 16
1.0
 26
0.0
 36
0.0
 17
0.0
 27
1.0
 37
0.0
 76
     0
330
74
  0
LAYOUT
  5
73
102
{ACAD_REACTORS
330
62
102
}
330
62
100
AcDbPlotSettings
  1

  2

  4

  6

 40
0.0
 41
0.0
 42
0.0
 43
0.0
 44
0.0
 45
0.0
 46
0.0
 47
0.0
 48
0.0
 49
0.0
140
0.0
141
0.0
142
1.0
143
1.0
 70
  1712
 72
     0
 73
     0
 74
     0
  7

 75
     0
147
1.0
 76
     0
 77
     2
 78
   300
148
0.0
149
0.0
100
AcDbLayout
  1
Model
 70
     1
 71
     0
 10
0.0
 20
0.0
 11
12.0
 21
9.0
 12
0.0
 22
0.0
 32
0.0
 14
0.0
 24
0.0
 34
0.0
 15
0.0
 25
0.0
 35
0.0
146
0.0
 13
0.0
 23
0.0
 33
0.0
 16
1.0
 26
0.0
 36
0.0
 17
0.0
 27
1.0
 37
0.0
 76
     0
330
70
  0
MATERIAL
  5
19
102
{ACAD_XDICTIONARY
360
1A
102
}
102
{ACAD_REACTORS
330
10
102
}
330
10
100
AcDbMaterial
  1
ByBlock
 72
     0
 43
0.0208333333333333
 43
0.0
 43
0.0
 43
0.0
 43
0.0
 43
0.0208333333333333
 43
0.0
 43
0.0
 43
0.0
 43
0.0
 43
1.0
 43
0.0
 43
0.0
 43
0.0
 43
0.0
 43
1.0
 77
     0
 47
0.0208333333333333
 47
0.0
 47
0.0
 47
0.0
 47
0.0
 47
0.0208333333333333
 47
0.0
 47
0.0
 47
0.0
 47
0.0
 47
1.0
 47
0.0
 47
0.0
 47
0.0
 47
0.0
 47
1.0
171
     0
 49
0.0208333333333333
 49
0.0
 49
0.0
 49
0.0
 49
0.0
 49
0.0208333333333333
 49
0.0
 49
0.0
 49
0.0
 49
0.0
 49
1.0
 49
0.0
 49
0.0
 49
0.0
 49
0.0
 49
1.0
175
     0
142
0.0208333333333333
142
0.0
142
0.0
142
0.0
142
0.0
142
0.0208333333333333
142
0.0
142
0.0
142
0.0
142
0.0
142
1.0
142
0.0
142
0.0
142
0.0
142
0.0
142
1.0
179
     0
144
0.0208333333333333
144
0.0
144
0.0
144
0.0
144
0.0
144
0.0208333333333333
144
0.0
144
0.0
144
0.0
144
0.0
144
1.0
144
0.0
144
0.0
144
0.0
144
0.0
144
1.0
147
0.0208333333333333
147
0.0
147
0.0
147
0.0
147
0.0
147
0.0208333333333333
147
0.0
147
0.0
147
0.0
147
0.0
147
1.0
147
0.0
147
0.0
147
0.0
147
0.0
147
1.0
  0
MATERIAL
  5
11
102
{ACAD_XDICTIONARY
360
12
102
}
102
{ACAD_REACTORS
330
10
102
}
330
10
100
AcDbMaterial
  1
ByLayer
 72
     0
 43
0.0208333333333333
 43
0.0
 43
0.0
 43
0.0
 43
0.0
 43
0.0208333333333333
 43
0.0
 43
0.0
 43
0.0
 43
0.0
 43
1.0
 43
0.0
 43
0.0
 43
0.0
 43
0.0
 43
1.0
 77
     0
 47
0.0208333333333333
 47
0.0
 47
0.0
 47
0.0
 47
0.0
 47
0.0208333333333333
 47
0.0
 47
0.0
 47
0.0
 47
0.0
 47
1.0
 47
0.0
 47
0.0
 47
0.0
 47
0.0
 47
1.0
171
     0
 49
0.0208333333333333
 49
0.0
 49
0.0
 49
0.0
 49
0.0
 49
0.0208333333333333
 49
0.0
 49
0.0
 49
0.0
 49
0.0
 49
1.0
 49
0.0
 49
0.0
 49
0.0
 49
0.0
 49
1.0
175
     0
142
0.0208333333333333
142
0.0
142
0.0
142
0.0
142
0.0
142
0.0208333333333333
142
0.0
142
0.0
142
0.0
142
0.0
142
1.0
142
0.0
142
0.0
142
0.0
142
0.0
142
1.0
179
     0
144
0.0208333333333333
144
0.0
144
0.0
144
0.0
144
0.0
144
0.0208333333333333
144
0.0
144
0.0
144
0.0
144
0.0
144
1.0
144
0.0
144
0.0
144
0.0
144
0.0
144
1.0
147
0.0208333333333333
147
0.0
147
0.0
147
0.0
147
0.0
147
0.0208333333333333
147
0.0
147
0.0
147
0.0
147
0.0
147
1.0
147
0.0
147
0.0
147
0.0
147
0.0
147
1.0
  0
MATERIAL
  5
21
102
{ACAD_XDICTIONARY
360
22
102
}
102
{ACAD_REACTORS
330
10
102
}
330
10
100
AcDbMaterial
  1
Global
 72
     0
 43
0.0208333333333333
 43
0.0
 43
0.0
 43
0.0
 43
0.0
 43
0.0208333333333333
 43
0.0
 43
0.0
 43
0.0
 43
0.0
 43
1.0
 43
0.0
 43
0.0
 43
0.0
 43
0.0
 43
1.0
 77
     0
 47
0.0208333333333333
 47
0.0
 47
0.0
 47
0.0
 47
0.0
 47
0.0208333333333333
 47
0.0
 47
0.0
 47
0.0
 47
0.0
 47
1.0
 47
0.0
 47
0.0
 47
0.0
 47
0.0
 47
1.0
171
     0
 49
0.0208333333333333
 49
0.0
 49
0.0
 49
0.0
 49
0.0
 49
0.0208333333333333
 49
0.0
 49
0.0
 49
0.0
 49
0.0
 49
1.0
 49
0.0
 49
0.0
 49
0.0
 49
0.0
 49
1.0
175
     0
142
0.0208333333333333
142
0.0
142
0.0
142
0.0
142
0.0
142
0.0208333333333333
142
0.0
142
0.0
142
0.0
142
0.0
142
1.0
142
0.0
142
0.0
142
0.0
142
0.0
142
1.0
179
     0
144
0.0208333333333333
144
0.0
144
0.0
144
0.0
144
0.0
144
0.0208333333333333
144
0.0
144
0.0
144
0.0
144
0.0
144
1.0
144
0.0
144
0.0
144
0.0
144
0.0
144
1.0
147
0.0208333333333333
147
0.0
147
0.0
147
0.0
147
0.0
147
0.0208333333333333
147
0.0
147
0.0
147
0.0
147
0.0
147
1.0
147
0.0
147
0.0
147
0.0
147
0.0
147
1.0
  0
MLEADERSTYLE
  5
67
102
{ACAD_REACTORS
330
66
102
}
330
66
100
AcDbMLeaderStyle
179
     2
170
     2
171
     1
172
     0
 90
        2
 40
0.0
 41
0.0
173
     1
 91
-1056964608
340
5B
 92
       -2
290
     1
 42
0.09
291
     1
 43
0.36
  3
Standard
 44
0.18
300

342
55
174
     1
178
     6
175
     1
176
     0
 93
-1056964608
 45
0.18
292
     0
297
     0
 46
0.18
 94
-1056964608
 47
1.0
 49
1.0
140
1.0
293
     1
141
0.0
294
     1
177
     0
142
1.0
295
     0
296
     0
143
0.125
271
     0
272
     9
273
     9
298
     1
  0
MLINESTYLE
  5
60
102
{ACAD_REACTORS
330
5F
102
}
330
5F
100
AcDbMlineStyle
  2
STANDARD
 70
     0
  3

 62
   256
 51
90.0
 52
90.0
 71
     2
 49
0.5
 62
   256
  6
BYLAYER
 49
-0.5
 62
   256
  6
BYLAYER
  0
ACDBPLACEHOLDER
  5
F
102
{ACAD_REACTORS
330
E
102
}
330
E
  0
SCALE
  5
43
102
{ACAD_REACTORS
330
42
102
}
330
42
100
AcDbScale
 70
     0
300
1:1
140
1.0
141
1.0
290
     1
  0
SCALE
  5
44
102
{ACAD_REACTORS
330
42
102
}
330
42
100
AcDbScale
 70
     0
300
1/128" = 1'-0"
140
0.0078125
141
12.0
290
     0
  0
SCALE
  5
45
102
{ACAD_REACTORS
330
42
102
}
330
42
100
AcDbScale
 70
     0
300
1/64" = 1'-0"
140
0.015625
141
12.0
290
     0
  0
SCALE
  5
46
102
{ACAD_REACTORS
330
42
102
}
330
42
100
AcDbScale
 70
     0
300
1/32" = 1'-0"
140
0.03125
141
12.0
290
     0
  0
SCALE
  5
47
102
{ACAD_REACTORS
330
42
102
}
330
42
100
AcDbScale
 70
     0
300
1/16" = 1'-0"
140
0.0625
141
12.0
290
     0
  0
SCALE
  5
48
102
{ACAD_REACTORS
330
42
102
}
330
42
100
AcDbScale
 70
     0
300
3/32" = 1'-0"
140
0.09375
141
12.0
290
     0
  0
SCALE
  5
49
102
{ACAD_REACTORS
330
42
102
}
330
42
100
AcDbScale
 70
     0
300
1/8" = 1'-0"
140
0.125
141
12.0
290
     0
  0
SCALE
  5
4A
102
{ACAD_REACTORS
330
42
102
}
330
42
100
AcDbScale
 70
     0
300
3/16" = 1'-0"
140
0.1875
141
12.0
290
     0
  0
SCALE
  5
4B
102
{ACAD_REACTORS
330
42
102
}
330
42
100
AcDbScale
 70
     0
300
1/4" = 1'-0"
140
0.25
141
12.0
290
     0
  0
SCALE
  5
4C
102
{ACAD_REACTORS
330
42
102
}
330
42
100
AcDbScale
 70
     0
300
3/8" = 1'-0"
140
0.375
141
12.0
290
     0
  0
SCALE
  5
4D
102
{ACAD_REACTORS
330
42
102
}
330
42
100
AcDbScale
 70
     0
300
1/2" = 1'-0"
140
0.5
141
12.0
290
     0
  0
SCALE
  5
4E
102
{ACAD_REACTORS
330
42
102
}
330
42
100
AcDbScale
 70
     0
300
3/4" = 1'-0"
140
0.75
141
12.0
290
     0
  0
SCALE
  5
4F
102
{ACAD_REACTORS
330
42
102
}
330
42
100
AcDbScale
 70
     0
300
1" = 1'-0"
140
1.0
141
12.0
290
     0
  0
SCALE
  5
50
102
{ACAD_REACTORS
330
42
102
}
330
42
100
AcDbScale
 70
     0
300
1-1/2" = 1'-0"
140
1.5
141
12.0
290
     0
  0
SCALE
  5
51
102
{ACAD_REACTORS
330
42
102
}
330
42
100
AcDbScale
 70
     0
300
3" = 1'-0"
140
3.0
141
12.0
290
     0
  0
SCALE
  5
52
102
{ACAD_REACTORS
330
42
102
}
330
42
100
AcDbScale
 70
     0
300
6" = 1'-0"
140
6.0
141
12.0
290
     0
  0
SCALE
  5
53
102
{ACAD_REACTORS
330
42
102
}
330
42
100
AcDbScale
 70
     0
300
1'-0" = 1'-0"
140
12.0
141
12.0
290
     0
  0
ACDBSECTIONVIEWSTYLE
  5
69
102
{ACAD_XDICTIONARY
360
94
102
}
102
{ACAD_REACTORS
330
68
102
}
330
68
100
AcDbModelDocViewStyle
 70
     0
  3
Imperial24
290
     0
100
AcDbSectionViewStyle
 70
     0
 71
     0
 90
       78
 71
     1
340
55
 62
   256
 40
0.24
340
0
340
0
 62
   256
 40
0.24
300
I, O, Q, S, X, Z
 40
0.48
 90
        3
 40
0.18
 90
        1
 71
     2
340
5D
 90
       25
 62
   256
340
5D
 90
       50
 62
   256
 40
0.24
 40
0.0
 40
0.24
 71
     3
340
55
 62
   256
 40
0.24
 90
        1
 40
0.75
 90
        1
300
%<\AcVar ViewType \f "%tc1">% %<\AcVar ViewSectionStartId>%-%<\AcVar ViewSectionEndId>%\PSCALE %<\AcVar ViewScale \f "%sn">%
 71
     4
 62
   256
 62
   257
300
ANSI31
 40
1.0
 90
        0
290
     0
290
     0
 90
        6
 40
0.0
 40
1.570796326794896
 40
0.2617993877991494
 40
1.308996938995747
 40
-0.2617993877991494
 40
1.832595714594046
  0
TABLESTYLE
  5
65
102
{ACAD_XDICTIONARY
360
91
102
}
102
{ACAD_REACTORS
330
64
102
}
330
64
100
AcDbTableStyle
280
     0
  3
Standard
 70
     0
 71
     0
 40
0.06
 41
0.06
280
     0
281
     0
  7
Standard
140
0.18
170
     2
 62
     0
 63
     7
283
     0
 90
      512
 91
        0
  1

274
    -2
284
     1
 64
     0
275
    -2
285
     1
 65
     0
276
    -2
286
     1
 66
     0
277
    -2
287
     1
 67
     0
278
    -2
288
     1
 68
     0
279
    -2
289
     1
 69
     0
  7
Standard
140
0.25
170
     5
 62
     0
 63
     7
283
     0
 90
      512
 91
        0
  1

274
    -2
284
     1
 64
     0
275
    -2
285
     1
 65
     0
276
    -2
286
     1
 66
     0
277
    -2
287
     1
 67
     0
278
    -2
288
     1
 68
     0
279
    -2
289
     1
 69
     0
  7
Standard
140
0.18
170
     5
 62
     0
 63
     7
283
     0
 90
      512
 91
        0
  1

274
    -2
284
     1
 64
     0
275
    -2
285
     1
 65
     0
276
    -2
286
     1
 66
     0
277
    -2
287
     1
 67
     0
278
    -2
288
     1
 68
     0
279
    -2
289
     1
 69
     0
  0
VISUALSTYLE
  5
2F
102
{ACAD_REACTORS
330
29
102
}
330
29
100
AcDbVisualStyle
  2
2dWireframe
 70
     4
177
     3
291
     0
 70
    58
 90
        0
176
     1
 90
        2
176
     1
 90
        0
176
     1
 90
        0
176
     1
 40
0.6
176
     1
 40
30.0
176
     1
 62
     7
420
 16777215
176
     1
 90
        1
176
     1
 90
        4
176
     1
 62
     7
176
     1
 62
   257
176
     1
 90
        1
176
     1
 90
        1
176
     1
 40
1.0
176
     1
 90
        0
176
     1
 62
   257
176
     1
 40
1.0
176
     1
 90
        1
176
     1
 90
        6
176
     1
 90
        2
176
     1
 62
     7
176
     1
 90
        5
176
     1
 90
        0
176
     1
 90
        0
176
     1
290
     0
176
     1
 90
        1
176
     1
 40
0.0
176
     1
 90
        0
176
     1
290
     1
176
     1
290
     1
176
     1
290
     0
176
     1
290
     0
176
     1
290
     0
176
     1
290
     0
176
     1
290
     0
176
     1
290
     0
176
     1
290
     0
176
     1
 90
       50
176
     1
 40
0.0
176
     1
 40
1.0
176
     1
 90
        0
176
     1
 62
    18
420
        0
176
     1
 90
       50
176
     1
 90
        3
176
     1
 62
     5
420
      255
176
     1
290
     0
176
     1
 90
       50
176
     1
 90
       50
176
     1
 90
       50
176
     1
290
     0
176
     1
 90
       50
176
     1
 62
   256
176
     0
 40
1.0
176
     0
 90
        2
176
     1
  1
strokes_ogs.tif
176
     1
290
     0
176
     1
 40
1.0
176
     1
 40
1.0
176
     1
1001
ACAD
1000
AcDbSavedByObjectVersion
1070
     0
  0
VISUALSTYLE
  5
2E
102
{ACAD_REACTORS
330
29
102
}
330
29
100
AcDbVisualStyle
  2
Basic
 70
     7
177
     3
291
     1
 70
    58
 90
        1
176
     1
 90
        0
176
     1
 90
        1
176
     1
 90
        0
176
     1
 40
0.6
176
     1
 40
30.0
176
     1
 62
     7
420
 16777215
176
     1
 90
        0
176
     1
 90
        4
176
     1
 62
     7
176
     1
 62
   257
176
     1
 90
        1
176
     1
 90
        1
176
     1
 40
1.0
176
     1
 90
        8
176
     1
 62
     7
176
     1
 40
1.0
176
     1
 90
        1
176
     1
 90
        6
176
     1
 90
        2
176
     1
 62
     7
176
     1
 90
        5
176
     1
 90
        0
176
     1
 90
        0
176
     1
290
     0
176
     1
 90
        1
176
     1
 40
0.0
176
     1
 90
        0
176
     1
290
     0
176
     1
290
     1
176
     1
290
     1
176
     1
290
     0
176
     1
290
     0
176
     1
290
     0
176
     1
290
     0
176
     1
290
     0
176
     1
290
     0
176
     1
 90
       50
176
     1
 40
0.0
176
     1
 40
1.0
176
     1
 90
        0
176
     1
 62
    18
420
        0
176
     1
 90
       50
176
     1
 90
        3
176
     1
 62
     5
420
      255
176
     1
290
     0
176
     1
 90
       50
176
     1
 90
       50
176
     1
 90
       50
176
     1
290
     0
176
     1
 90
       50
176
     1
 62
   256
176
     0
 40
1.0
176
     0
 90
        2
176
     1
  1
strokes_ogs.tif
176
     1
290
     0
176
     1
 40
1.0
176
     1
 40
1.0
176
     1
1001
ACAD
1000
AcDbSavedByObjectVersion
1070
     0
  0
VISUALSTYLE
  5
35
102
{ACAD_REACTORS
330
29
102
}
330
29
100
AcDbVisualStyle
  2
Brighten
 70
    12
177
     3
291
     1
 70
    58
 90
        2
176
     1
 90
        2
176
     1
 90
        0
176
     1
 90
        0
176
     1
 40
0.6
176
     1
 40
30.0
176
     1
 62
     7
420
 16777215
176
     1
 90
        1
176
     1
 90
        4
176
     1
 62
     7
176
     1
 62
   257
176
     1
 90
        1
176
     1
 90
        1
176
     1
 40
1.0
176
     1
 90
        8
176
     1
 62
     7
176
     1
 40
1.0
176
     1
 90
        1
176
     1
 90
        6
176
     1
 90
        2
176
     1
 62
     7
176
     1
 90
        5
176
     1
 90
        0
176
     1
 90
        0
176
     1
290
     0
176
     1
 90
        1
176
     1
 40
50.0
176
     1
 90
        0
176
     1
290
     0
176
     1
290
     1
176
     1
290
     1
176
     1
290
     0
176
     1
290
     0
176
     1
290
     0
176
     1
290
     0
176
     1
290
     0
176
     1
290
     0
176
     1
 90
       50
176
     1
 40
0.0
176
     1
 40
1.0
176
     1
 90
        0
176
     1
 62
    18
420
        0
176
     1
 90
       50
176
     1
 90
        3
176
     1
 62
     5
420
      255
176
     1
290
     0
176
     1
 90
       50
176
     1
 90
       50
176
     1
 90
       50
176
     1
290
     0
176
     1
 90
       50
176
     1
 62
   256
176
     0
 40
1.0
176
     0
 90
        2
176
     1
  1
strokes_ogs.tif
176
     1
290
     0
176
     1
 40
1.0
176
     1
 40
1.0
176
     1
1001
ACAD
1000
AcDbSavedByObjectVersion
1070
     0
  0
VISUALSTYLE
  5
39
102
{ACAD_REACTORS
330
29
102
}
330
29
100
AcDbVisualStyle
  2
ColorChange
 70
    16
177
     3
291
     1
 70
    58
 90
        2
176
     1
 90
        2
176
     1
 90
        3
176
     1
 90
        0
176
     1
 40
0.6
176
     1
 40
30.0
176
     1
 62
     8
420
  8421504
176
     1
 90
        1
176
     1
 90
        4
176
     1
 62
     7
176
     1
 62
   257
176
     1
 90
        1
176
     1
 90
        1
176
     1
 40
1.0
176
     1
 90
        8
176
     1
 62
     8
420
  8421504
176
     1
 40
1.0
176
     1
 90
        1
176
     1
 90
        6
176
     1
 90
        2
176
     1
 62
     7
176
     1
 90
        5
176
     1
 90
        0
176
     1
 90
        0
176
     1
290
     0
176
     1
 90
        1
176
     1
 40
0.0
176
     1
 90
        0
176
     1
290
     0
176
     1
290
     1
176
     1
290
     1
176
     1
290
     0
176
     1
290
     0
176
     1
290
     0
176
     1
290
     0
176
     1
290
     0
176
     1
290
     0
176
     1
 90
       50
176
     1
 40
0.0
176
     1
 40
1.0
176
     1
 90
        0
176
     1
 62
    18
420
        0
176
     1
 90
       50
176
     1
 90
        3
176
     1
 62
     5
420
      255
176
     1
290
     0
176
     1
 90
       50
176
     1
 90
       50
176
     1
 90
       50
176
     1
290
     0
176
     1
 90
       50
176
     1
 62
   256
176
     0
 40
1.0
176
     0
 90
        2
176
     1
  1
strokes_ogs.tif
176
     1
290
     0
176
     1
 40
1.0
176
     1
 40
1.0
176
     1
1001
ACAD
1000
AcDbSavedByObjectVersion
1070
     0
  0
VISUALSTYLE
  5
32
102
{ACAD_REACTORS
330
29
102
}
330
29
100
AcDbVisualStyle
  2
Conceptual
 70
     9
177
     3
291
     0
 70
    58
 90
        3
176
     1
 90
        2
176
     1
 90
        0
176
     1
 90
        0
176
     1
 40
0.6
176
     1
 40
30.0
176
     1
 62
     7
420
 16777215
176
     1
 90
        2
176
     1
 90
        2
176
     1
 62
     7
176
     1
 62
   257
176
     1
 90
        1
176
     1
 90
        1
176
     1
 40
179.0
176
     1
 90
        8
176
     1
 62
     7
176
     1
 40
1.0
176
     1
 90
        1
176
     1
 90
        6
176
     1
 90
        2
176
     1
 62
     7
176
     1
 90
        3
176
     1
 90
        0
176
     1
 90
        0
176
     1
290
     0
176
     1
 90
        1
176
     1
 40
0.0
176
     1
 90
        0
176
     1
290
     0
176
     1
290
     1
176
     1
290
     1
176
     1
290
     0
176
     1
290
     0
176
     1
290
     0
176
     1
290
     0
176
     1
290
     0
176
     1
290
     0
176
     1
 90
       50
176
     1
 40
0.0
176
     1
 40
1.0
176
     1
 90
        0
176
     1
 62
    18
420
        0
176
     1
 90
       50
176
     1
 90
        3
176
     1
 62
     5
420
      255
176
     1
290
     0
176
     1
 90
       50
176
     1
 90
       50
176
     1
 90
       50
176
     1
290
     0
176
     1
 90
       50
176
     1
 62
   256
176
     0
 40
1.0
176
     0
 90
        2
176
     1
  1
strokes_ogs.tif
176
     1
290
     0
176
     1
 40
1.0
176
     1
 40
1.0
176
     1
1001
ACAD
1000
AcDbSavedByObjectVersion
1070
     0
  0
VISUALSTYLE
  5
34
102
{ACAD_REACTORS
330
29
102
}
330
29
100
AcDbVisualStyle
  2
Dim
 70
    11
177
     3
291
     1
 70
    58
 90
        2
176
     1
 90
        2
176
     1
 90
        0
176
     1
 90
        0
176
     1
 40
0.6
176
     1
 40
30.0
176
     1
 62
     7
420
 16777215
176
     1
 90
        1
176
     1
 90
        4
176
     1
 62
     7
176
     1
 62
   257
176
     1
 90
        1
176
     1
 90
        1
176
     1
 40
1.0
176
     1
 90
        8
176
     1
 62
     7
176
     1
 40
1.0
176
     1
 90
        1
176
     1
 90
        6
176
     1
 90
        2
176
     1
 62
     7
176
     1
 90
        5
176
     1
 90
        0
176
     1
 90
        0
176
     1
290
     0
176
     1
 90
        1
176
     1
 40
-50.0
176
     1
 90
        0
176
     1
290
     0
176
     1
290
     1
176
     1
290
     1
176
     1
290
     0
176
     1
290
     0
176
     1
290
     0
176
     1
290
     0
176
     1
290
     0
176
     1
290
     0
176
     1
 90
       50
176
     1
 40
0.0
176
     1
 40
1.0
176
     1
 90
        0
176
     1
 62
    18
420
        0
176
     1
 90
       50
176
     1
 90
        3
176
     1
 62
     5
420
      255
176
     1
290
     0
176
     1
 90
       50
176
     1
 90
       50
176
     1
 90
       50
176
     1
290
     0
176
     1
 90
       50
176
     1
 62
   256
176
     0
 40
1.0
176
     0
 90
        2
176
     1
  1
strokes_ogs.tif
176
     1
290
     0
176
     1
 40
1.0
176
     1
 40
1.0
176
     1
1001
ACAD
1000
AcDbSavedByObjectVersion
1070
     0
  0
VISUALSTYLE
  5
41
102
{ACAD_REACTORS
330
29
102
}
330
29
100
AcDbVisualStyle
  2
EdgeColorOff
 70
    22
177
     3
291
     1
 70
    58
 90
        2
176
     0
 90
        2
176
     0
 90
        0
176
     0
 90
        0
176
     0
 40
0.6
176
     0
 40
30.0
176
     0
 62
     7
420
 16777215
176
     0
 90
        1
176
     0
 90
        4
176
     0
 62
     7
176
     0
 62
   257
176
     0
 90
        1
176
     0
 90
        1
176
     0
 40
1.0
176
     0
 90
        8
176
     2
 62
     7
176
     0
 40
1.0
176
     0
 90
        1
176
     0
 90
        6
176
     0
 90
        2
176
     0
 62
     7
176
     0
 90
        5
176
     0
 90
        0
176
     0
 90
        0
176
     0
290
     0
176
     0
 90
        1
176
     0
 40
0.0
176
     0
 90
        0
176
     0
290
     0
176
     0
290
     1
176
     0
290
     1
176
     0
290
     0
176
     0
290
     0
176
     0
290
     0
176
     0
290
     0
176
     0
290
     0
176
     0
290
     0
176
     0
 90
       50
176
     0
 40
0.0
176
     0
 40
1.0
176
     0
 90
        0
176
     0
 62
    18
420
        0
176
     0
 90
       50
176
     0
 90
        3
176
     0
 62
     5
420
      255
176
     0
290
     0
176
     0
 90
       50
176
     0
 90
       50
176
     0
 90
       50
176
     0
290
     0
176
     0
 90
       50
176
     0
 62
   256
176
     0
 40
1.0
176
     0
 90
        2
176
     0
  1
strokes_ogs.tif
176
     0
290
     0
176
     0
 40
1.0
176
     0
 40
1.0
176
     0
1001
ACAD
1000
AcDbSavedByObjectVersion
1070
     0
  0
VISUALSTYLE
  5
38
102
{ACAD_REACTORS
330
29
102
}
330
29
100
AcDbVisualStyle
  2
Facepattern
 70
    15
177
     3
291
     1
 70
    58
 90
        2
176
     1
 90
        2
176
     1
 90
        0
176
     1
 90
        0
176
     1
 40
0.6
176
     1
 40
30.0
176
     1
 62
     7
420
 16777215
176
     1
 90
        1
176
     1
 90
        4
176
     1
 62
     7
176
     1
 62
   257
176
     1
 90
        1
176
     1
 90
        1
176
     1
 40
1.0
176
     1
 90
        8
176
     1
 62
     7
176
     1
 40
1.0
176
     1
 90
        1
176
     1
 90
        6
176
     1
 90
        2
176
     1
 62
     7
176
     1
 90
        5
176
     1
 90
        0
176
     1
 90
        0
176
     1
290
     0
176
     1
 90
        1
176
     1
 40
0.0
176
     1
 90
        0
176
     1
290
     0
176
     1
290
     1
176
     1
290
     1
176
     1
290
     0
176
     1
290
     0
176
     1
290
     0
176
     1
290
     0
176
     1
290
     0
176
     1
290
     0
176
     1
 90
       50
176
     1
 40
0.0
176
     1
 40
1.0
176
     1
 90
        0
176
     1
 62
    18
420
        0
176
     1
 90
       50
176
     1
 90
        3
176
     1
 62
     5
420
      255
176
     1
290
     0
176
     1
 90
       50
176
     1
 90
       50
176
     1
 90
       50
176
     1
290
     0
176
     1
 90
       50
176
     1
 62
   256
176
     0
 40
1.0
176
     0
 90
        2
176
     1
  1
strokes_ogs.tif
176
     1
290
     0
176
     1
 40
1.0
176
     1
 40
1.0
176
     1
1001
ACAD
1000
AcDbSavedByObjectVersion
1070
     0
  0
VISUALSTYLE
  5
2A
102
{ACAD_REACTORS
330
29
102
}
330
29
100
AcDbVisualStyle
  2
Flat
 70
     0
177
     3
291
     1
 70
    58
 90
        2
176
     1
 90
        1
176
     1
 90
        1
176
     1
 90
        2
176
     1
 40
0.6
176
     1
 40
30.0
176
     1
 62
     7
420
 16777215
176
     1
 90
        0
176
     1
 90
        0
176
     1
 62
     7
176
     1
 62
   257
176
     1
 90
        1
176
     1
 90
        1
176
     1
 40
1.0
176
     1
 90
        8
176
     1
 62
     7
176
     1
 40
1.0
176
     1
 90
        1
176
     1
 90
        6
176
     1
 90
        2
176
     1
 62
     7
176
     1
 90
        5
176
     1
 90
        0
176
     1
 90
        0
176
     1
290
     0
176
     1
 90
       13
176
     1
 40
0.0
176
     1
 90
        0
176
     1
290
     0
176
     1
290
     1
176
     1
290
     1
176
     1
290
     0
176
     1
290
     0
176
     1
290
     0
176
     1
290
     0
176
     1
290
     0
176
     1
290
     0
176
     1
 90
       50
176
     1
 40
0.0
176
     1
 40
1.0
176
     1
 90
        0
176
     1
 62
    18
420
        0
176
     1
 90
       50
176
     1
 90
        3
176
     1
 62
     5
420
      255
176
     1
290
     0
176
     1
 90
       50
176
     1
 90
       50
176
     1
 90
       50
176
     1
290
     0
176
     1
 90
       50
176
     1
 62
   256
176
     0
 40
1.0
176
     0
 90
        2
176
     1
  1
strokes_ogs.tif
176
     1
290
     0
176
     1
 40
1.0
176
     1
 40
1.0
176
     1
1001
ACAD
1000
AcDbSavedByObjectVersion
1070
     0
  0
VISUALSTYLE
  5
2B
102
{ACAD_REACTORS
330
29
102
}
330
29
100
AcDbVisualStyle
  2
FlatWithEdges
 70
     1
177
     3
291
     1
 70
    58
 90
        2
176
     1
 90
        1
176
     1
 90
        1
176
     1
 90
        2
176
     1
 40
0.6
176
     1
 40
30.0
176
     1
 62
     7
420
 16777215
176
     1
 90
        1
176
     1
 90
        0
176
     1
 62
     7
176
     1
 62
   257
176
     1
 90
        1
176
     1
 90
        1
176
     1
 40
1.0
176
     1
 90
        0
176
     1
 62
   257
176
     1
 40
1.0
176
     1
 90
        1
176
     1
 90
        6
176
     1
 90
        2
176
     1
 62
     7
176
     1
 90
        5
176
     1
 90
        0
176
     1
 90
        0
176
     1
290
     0
176
     1
 90
       13
176
     1
 40
0.0
176
     1
 90
        0
176
     1
290
     0
176
     1
290
     1
176
     1
290
     1
176
     1
290
     0
176
     1
290
     0
176
     1
290
     0
176
     1
290
     0
176
     1
290
     0
176
     1
290
     0
176
     1
 90
       50
176
     1
 40
0.0
176
     1
 40
1.0
176
     1
 90
        0
176
     1
 62
    18
420
        0
176
     1
 90
       50
176
     1
 90
        3
176
     1
 62
     5
420
      255
176
     1
290
     0
176
     1
 90
       50
176
     1
 90
       50
176
     1
 90
       50
176
     1
290
     0
176
     1
 90
       50
176
     1
 62
   256
176
     0
 40
1.0
176
     0
 90
        2
176
     1
  1
strokes_ogs.tif
176
     1
290
     0
176
     1
 40
1.0
176
     1
 40
1.0
176
     1
1001
ACAD
1000
AcDbSavedByObjectVersion
1070
     0
  0
VISUALSTYLE
  5
2C
102
{ACAD_REACTORS
330
29
102
}
330
29
100
AcDbVisualStyle
  2
Gouraud
 70
     2
177
     3
291
     1
 70
    58
 90
        2
176
     1
 90
        2
176
     1
 90
        1
176
     1
 90
        2
176
     1
 40
0.6
176
     1
 40
30.0
176
     1
 62
     7
420
 16777215
176
     1
 90
        0
176
     1
 90
        0
176
     1
 62
     7
176
     1
 62
   257
176
     1
 90
        1
176
     1
 90
        1
176
     1
 40
1.0
176
     1
 90
        0
176
     1
 62
     7
176
     1
 40
1.0
176
     1
 90
        1
176
     1
 90
        6
176
     1
 90
        2
176
     1
 62
     7
176
     1
 90
        5
176
     1
 90
        0
176
     1
 90
        0
176
     1
290
     0
176
     1
 90
       13
176
     1
 40
0.0
176
     1
 90
        0
176
     1
290
     0
176
     1
290
     1
176
     1
290
     1
176
     1
290
     0
176
     1
290
     0
176
     1
290
     0
176
     1
290
     0
176
     1
290
     0
176
     1
290
     0
176
     1
 90
       50
176
     1
 40
0.0
176
     1
 40
1.0
176
     1
 90
        0
176
     1
 62
    18
420
        0
176
     1
 90
       50
176
     1
 90
        3
176
     1
 62
     5
420
      255
176
     1
290
     0
176
     1
 90
       50
176
     1
 90
       50
176
     1
 90
       50
176
     1
290
     0
176
     1
 90
       50
176
     1
 62
   256
176
     0
 40
1.0
176
     0
 90
        2
176
     1
  1
strokes_ogs.tif
176
     1
290
     0
176
     1
 40
1.0
176
     1
 40
1.0
176
     1
1001
ACAD
1000
AcDbSavedByObjectVersion
1070
     0
  0
VISUALSTYLE
  5
2D
102
{ACAD_REACTORS
330
29
102
}
330
29
100
AcDbVisualStyle
  2
GouraudWithEdges
 70
     3
177
     3
291
     1
 70
    58
 90
        2
176
     1
 90
        2
176
     1
 90
        1
176
     1
 90
        2
176
     1
 40
0.6
176
     1
 40
30.0
176
     1
 62
     7
420
 16777215
176
     1
 90
        1
176
     1
 90
        0
176
     1
 62
     7
176
     1
 62
   257
176
     1
 90
        1
176
     1
 90
        1
176
     1
 40
1.0
176
     1
 90
        0
176
     1
 62
   257
176
     1
 40
1.0
176
     1
 90
        1
176
     1
 90
        6
176
     1
 90
        2
176
     1
 62
     7
176
     1
 90
        5
176
     1
 90
        0
176
     1
 90
        0
176
     1
290
     0
176
     1
 90
       13
176
     1
 40
0.0
176
     1
 90
        0
176
     1
290
     0
176
     1
290
     1
176
     1
290
     1
176
     1
290
     0
176
     1
290
     0
176
     1
290
     0
176
     1
290
     0
176
     1
290
     0
176
     1
290
     0
176
     1
 90
       50
176
     1
 40
0.0
176
     1
 40
1.0
176
     1
 90
        0
176
     1
 62
    18
420
        0
176
     1
 90
       50
176
     1
 90
        3
176
     1
 62
     5
420
      255
176
     1
290
     0
176
     1
 90
       50
176
     1
 90
       50
176
     1
 90
       50
176
     1
290
     0
176
     1
 90
       50
176
     1
 62
   256
176
     0
 40
1.0
176
     0
 90
        2
176
     1
  1
strokes_ogs.tif
176
     1
290
     0
176
     1
 40
1.0
176
     1
 40
1.0
176
     1
1001
ACAD
1000
AcDbSavedByObjectVersion
1070
     0
  0
VISUALSTYLE
  5
31
102
{ACAD_REACTORS
330
29
102
}
330
29
100
AcDbVisualStyle
  2
Hidden
 70
     6
177
     3
291
     0
 70
    58
 90
        1
176
     1
 90
        2
176
     1
 90
        2
176
     1
 90
        0
176
     1
 40
0.6
176
     1
 40
30.0
176
     1
 62
     7
420
 16777215
176
     1
 90
        2
176
     1
 90
        2
176
     1
 62
     7
176
     1
 62
   257
176
     1
 90
        2
176
     1
 90
        1
176
     1
 40
40.0
176
     1
 90
        0
176
     1
 62
   257
176
     1
 40
1.0
176
     1
 90
        1
176
     1
 90
        6
176
     1
 90
        2
176
     1
 62
     7
176
     1
 90
        3
176
     1
 90
        0
176
     1
 90
        0
176
     1
290
     0
176
     1
 90
        1
176
     1
 40
0.0
176
     1
 90
        0
176
     1
290
     0
176
     1
290
     1
176
     1
290
     1
176
     1
290
     0
176
     1
290
     0
176
     1
290
     0
176
     1
290
     0
176
     1
290
     0
176
     1
290
     0
176
     1
 90
       50
176
     1
 40
0.0
176
     1
 40
1.0
176
     1
 90
        0
176
     1
 62
    18
420
        0
176
     1
 90
       50
176
     1
 90
        3
176
     1
 62
     5
420
      255
176
     1
290
     0
176
     1
 90
       50
176
     1
 90
       50
176
     1
 90
       50
176
     1
290
     0
176
     1
 90
       50
176
     1
 62
   256
176
     0
 40
1.0
176
     0
 90
        2
176
     1
  1
strokes_ogs.tif
176
     1
290
     0
176
     1
 40
1.0
176
     1
 40
1.0
176
     1
1001
ACAD
1000
AcDbSavedByObjectVersion
1070
     0
  0
VISUALSTYLE
  5
3F
102
{ACAD_REACTORS
330
29
102
}
330
29
100
AcDbVisualStyle
  2
JitterOff
 70
    20
177
     3
291
     1
 70
    58
 90
        2
176
     0
 90
        2
176
     0
 90
        0
176
     0
 90
        0
176
     0
 40
0.6
176
     0
 40
30.0
176
     0
 62
     7
420
 16777215
176
     0
 90
        1
176
     0
 90
        4
176
     0
 62
     7
176
     0
 62
   257
176
     0
 90
        1
176
     0
 90
        1
176
     0
 40
1.0
176
     0
 90
       10
176
     2
 62
     7
176
     0
 40
1.0
176
     0
 90
        1
176
     0
 90
        6
176
     0
 90
        2
176
     0
 62
     7
176
     0
 90
        5
176
     0
 90
        0
176
     0
 90
        0
176
     0
290
     0
176
     0
 90
        1
176
     0
 40
0.0
176
     0
 90
        0
176
     0
290
     0
176
     0
290
     1
176
     0
290
     1
176
     0
290
     0
176
     0
290
     0
176
     0
290
     0
176
     0
290
     0
176
     0
290
     0
176
     0
290
     0
176
     0
 90
       50
176
     0
 40
0.0
176
     0
 40
1.0
176
     0
 90
        0
176
     0
 62
    18
420
        0
176
     0
 90
       50
176
     0
 90
        3
176
     0
 62
     5
420
      255
176
     0
290
     0
176
     0
 90
       50
176
     0
 90
       50
176
     0
 90
       50
176
     0
290
     0
176
     0
 90
       50
176
     0
 62
   256
176
     0
 40
1.0
176
     0
 90
        2
176
     0
  1
strokes_ogs.tif
176
     0
290
     0
176
     0
 40
1.0
176
     0
 40
1.0
176
     0
1001
ACAD
1000
AcDbSavedByObjectVersion
1070
     0
  0
VISUALSTYLE
  5
37
102
{ACAD_REACTORS
330
29
102
}
330
29
100
AcDbVisualStyle
  2
Linepattern
 70
    14
177
     3
291
     1
 70
    58
 90
        2
176
     1
 90
        2
176
     1
 90
        0
176
     1
 90
        0
176
     1
 40
0.6
176
     1
 40
30.0
176
     1
 62
     7
420
 16777215
176
     1
 90
        1
176
     1
 90
        4
176
     1
 62
     7
176
     1
 62
   257
176
     1
 90
        7
176
     1
 90
        7
176
     1
 40
1.0
176
     1
 90
        8
176
     1
 62
     7
176
     1
 40
1.0
176
     1
 90
        1
176
     1
 90
        6
176
     1
 90
        2
176
     1
 62
     7
176
     1
 90
        5
176
     1
 90
        0
176
     1
 90
        0
176
     1
290
     0
176
     1
 90
        1
176
     1
 40
0.0
176
     1
 90
        0
176
     1
290
     0
176
     1
290
     1
176
     1
290
     1
176
     1
290
     0
176
     1
290
     0
176
     1
290
     0
176
     1
290
     0
176
     1
290
     0
176
     1
290
     0
176
     1
 90
       50
176
     1
 40
0.0
176
     1
 40
1.0
176
     1
 90
        0
176
     1
 62
    18
420
        0
176
     1
 90
       50
176
     1
 90
        3
176
     1
 62
     5
420
      255
176
     1
290
     0
176
     1
 90
       50
176
     1
 90
       50
176
     1
 90
       50
176
     1
290
     0
176
     1
 90
       50
176
     1
 62
   256
176
     0
 40
1.0
176
     0
 90
        2
176
     1
  1
strokes_ogs.tif
176
     1
290
     0
176
     1
 40
1.0
176
     1
 40
1.0
176
     1
1001
ACAD
1000
AcDbSavedByObjectVersion
1070
     0
  0
VISUALSTYLE
  5
40
102
{ACAD_REACTORS
330
29
102
}
330
29
100
AcDbVisualStyle
  2
OverhangOff
 70
    21
177
     3
291
     1
 70
    58
 90
        2
176
     0
 90
        2
176
     0
 90
        0
176
     0
 90
        0
176
     0
 40
0.6
176
     0
 40
30.0
176
     0
 62
     7
420
 16777215
176
     0
 90
        1
176
     0
 90
        4
176
     0
 62
     7
176
     0
 62
   257
176
     0
 90
        1
176
     0
 90
        1
176
     0
 40
1.0
176
     0
 90
        9
176
     2
 62
     7
176
     0
 40
1.0
176
     0
 90
        1
176
     0
 90
        6
176
     0
 90
        2
176
     0
 62
     7
176
     0
 90
        5
176
     0
 90
        0
176
     0
 90
        0
176
     0
290
     0
176
     0
 90
        1
176
     0
 40
0.0
176
     0
 90
        0
176
     0
290
     0
176
     0
290
     1
176
     0
290
     1
176
     0
290
     0
176
     0
290
     0
176
     0
290
     0
176
     0
290
     0
176
     0
290
     0
176
     0
290
     0
176
     0
 90
       50
176
     0
 40
0.0
176
     0
 40
1.0
176
     0
 90
        0
176
     0
 62
    18
420
        0
176
     0
 90
       50
176
     0
 90
        3
176
     0
 62
     5
420
      255
176
     0
290
     0
176
     0
 90
       50
176
     0
 90
       50
176
     0
 90
       50
176
     0
290
     0
176
     0
 90
       50
176
     0
 62
   256
176
     0
 40
1.0
176
     0
 90
        2
176
     0
  1
strokes_ogs.tif
176
     0
290
     0
176
     0
 40
1.0
176
     0
 40
1.0
176
     0
1001
ACAD
1000
AcDbSavedByObjectVersion
1070
     0
  0
VISUALSTYLE
  5
33
102
{ACAD_REACTORS
330
29
102
}
330
29
100
AcDbVisualStyle
  2
Realistic
 70
     8
177
     3
291
     0
 70
    58
 90
        2
176
     1
 90
        3
176
     1
 90
        0
176
     1
 90
        2
176
     1
 40
0.6
176
     1
 40
30.0
176
     1
 62
     7
420
 16777215
176
     1
 90
        0
176
     1
 90
        0
176
     1
 62
     7
176
     1
 62
   257
176
     1
 90
        1
176
     1
 90
        1
176
     1
 40
1.0
176
     1
 90
        8
176
     1
 62
   257
176
     1
 40
1.0
176
     1
 90
        1
176
     1
 90
        6
176
     1
 90
        2
176
     1
 62
     7
176
     1
 90
        3
176
     1
 90
        0
176
     1
 90
        0
176
     1
290
     0
176
     1
 90
       13
176
     1
 40
0.0
176
     1
 90
        0
176
     1
290
     0
176
     1
290
     1
176
     1
290
     1
176
     1
290
     0
176
     1
290
     0
176
     1
290
     0
176
     1
290
     0
176
     1
290
     0
176
     1
290
     0
176
     1
 90
       50
176
     1
 40
0.0
176
     1
 40
1.0
176
     1
 90
        0
176
     1
 62
    18
420
        0
176
     1
 90
       50
176
     1
 90
        3
176
     1
 62
     5
420
      255
176
     1
290
     0
176
     1
 90
       50
176
     1
 90
       50
176
     1
 90
       50
176
     1
290
     0
176
     1
 90
       50
176
     1
 62
   256
176
     0
 40
1.0
176
     0
 90
        2
176
     1
  1
strokes_ogs.tif
176
     1
290
     0
176
     1
 40
1.0
176
     1
 40
1.0
176
     1
1001
ACAD
1000
AcDbSavedByObjectVersion
1070
     0
  0
VISUALSTYLE
  5
3E
102
{ACAD_REACTORS
330
29
102
}
330
29
100
AcDbVisualStyle
  2
Shaded
 70
    27
177
     3
291
     0
 70
    58
 90
        2
176
     1
 90
        2
176
     1
 90
        1
176
     1
 90
        2
176
     1
 40
0.6
176
     1
 40
30.0
176
     1
 62
     7
420
 16777215
176
     1
 90
        0
176
     1
 90
        4
176
     1
 62
     7
176
     1
 62
   257
176
     1
 90
        1
176
     1
 90
        1
176
     1
 40
1.0
176
     1
 90
        8
176
     1
 62
   257
176
     1
 40
1.0
176
     1
 90
        1
176
     1
 90
        6
176
     1
 90
        2
176
     1
 62
     8
420
  7895160
176
     1
 90
        3
176
     1
 90
        0
176
     1
 90
        0
176
     1
290
     0
176
     1
 90
        5
176
     1
 40
0.0
176
     1
 90
        0
176
     1
290
     0
176
     1
290
     1
176
     1
290
     1
176
     1
290
     0
176
     1
290
     0
176
     1
290
     0
176
     1
290
     0
176
     1
290
     0
176
     1
290
     0
176
     1
 90
       50
176
     1
 40
0.0
176
     1
 40
1.0
176
     1
 90
        0
176
     1
 62
    18
420
        0
176
     1
 90
       50
176
     1
 90
        3
176
     1
 62
     5
420
      255
176
     1
290
     0
176
     1
 90
       50
176
     1
 90
       50
176
     1
 90
       50
176
     1
290
     0
176
     1
 90
       50
176
     1
 62
   256
176
     0
 40
1.0
176
     0
 90
        2
176
     1
  1
strokes_ogs.tif
176
     1
290
     0
176
     1
 40
1.0
176
     1
 40
1.0
176
     1
1001
ACAD
1000
AcDbSavedByObjectVersion
1070
     0
  0
VISUALSTYLE
  5
3D
102
{ACAD_REACTORS
330
29
102
}
330
29
100
AcDbVisualStyle
  2
Shaded with edges
 70
    26
177
     3
291
     0
 70
    58
 90
        2
176
     1
 90
        2
176
     1
 90
        1
176
     1
 90
        2
176
     1
 40
0.6
176
     1
 40
30.0
176
     1
 62
     7
420
 16777215
176
     1
 90
        1
176
     1
 90
        2
176
     1
 62
     7
176
     1
 62
   257
176
     1
 90
        2
176
     1
 90
        1
176
     1
 40
1.0
176
     1
 90
        8
176
     1
 62
   257
176
     1
 40
1.0
176
     1
 90
        1
176
     1
 90
        6
176
     1
 90
        2
176
     1
 62
     7
176
     1
 90
        3
176
     1
 90
        0
176
     1
 90
        0
176
     1
290
     0
176
     1
 90
        5
176
     1
 40
0.0
176
     1
 90
        0
176
     1
290
     0
176
     1
290
     1
176
     1
290
     1
176
     1
290
     0
176
     1
290
     0
176
     1
290
     0
176
     1
290
     0
176
     1
290
     0
176
     1
290
     0
176
     1
 90
       50
176
     1
 40
0.0
176
     1
 40
1.0
176
     1
 90
        0
176
     1
 62
    18
420
        0
176
     1
 90
       50
176
     1
 90
        3
176
     1
 62
     5
420
      255
176
     1
290
     0
176
     1
 90
       50
176
     1
 90
       50
176
     1
 90
       50
176
     1
290
     0
176
     1
 90
       50
176
     1
 62
   256
176
     0
 40
1.0
176
     0
 90
        2
176
     1
  1
strokes_ogs.tif
176
     1
290
     0
176
     1
 40
1.0
176
     1
 40
1.0
176
     1
1001
ACAD
1000
AcDbSavedByObjectVersion
1070
     0
  0
VISUALSTYLE
  5
3A
102
{ACAD_REACTORS
330
29
102
}
330
29
100
AcDbVisualStyle
  2
Shades of Gray
 70
    23
177
     3
291
     0
 70
    58
 90
        2
176
     1
 90
        2
176
     1
 90
        3
176
     1
 90
        0
176
     1
 40
0.6
176
     1
 40
30.0
176
     1
 62
     7
420
 16777215
176
     1
 90
        2
176
     1
 90
        2
176
     1
 62
     7
176
     1
 62
     7
176
     1
 90
        1
176
     1
 90
        1
176
     1
 40
40.0
176
     1
 90
        8
176
     1
 62
     7
176
     1
 40
1.0
176
     1
 90
        1
176
     1
 90
        6
176
     1
 90
        2
176
     1
 62
     7
176
     1
 90
        3
176
     1
 90
        0
176
     1
 90
        0
176
     1
290
     0
176
     1
 90
        1
176
     1
 40
0.0
176
     1
 90
        0
176
     1
290
     0
176
     1
290
     1
176
     1
290
     1
176
     1
290
     0
176
     1
290
     0
176
     1
290
     0
176
     1
290
     0
176
     1
290
     0
176
     1
290
     0
176
     1
 90
       50
176
     1
 40
0.0
176
     1
 40
1.0
176
     1
 90
        0
176
     1
 62
    18
420
        0
176
     1
 90
       50
176
     1
 90
        3
176
     1
 62
     5
420
      255
176
     1
290
     0
176
     1
 90
       50
176
     1
 90
       50
176
     1
 90
       50
176
     1
290
     0
176
     1
 90
       50
176
     1
 62
   256
176
     0
 40
1.0
176
     0
 90
        2
176
     1
  1
strokes_ogs.tif
176
     1
290
     0
176
     1
 40
1.0
176
     1
 40
1.0
176
     1
1001
ACAD
1000
AcDbSavedByObjectVersion
1070
     0
  0
VISUALSTYLE
  5
3B
102
{ACAD_REACTORS
330
29
102
}
330
29
100
AcDbVisualStyle
  2
Sketchy
 70
    24
177
     3
291
     0
 70
    58
 90
        1
176
     1
 90
        2
176
     1
 90
        2
176
     1
 90
        0
176
     1
 40
0.6
176
     1
 40
30.0
176
     1
 62
     7
420
 16777215
176
     1
 90
        2
176
     1
 90
        2
176
     1
 62
     7
176
     1
 62
     7
176
     1
 90
        1
176
     1
 90
        1
176
     1
 40
40.0
176
     1
 90
       11
176
     1
 62
     7
176
     1
 40
1.0
176
     1
 90
        1
176
     1
 90
        6
176
     1
 90
        2
176
     1
 62
     7
176
     1
 90
        6
176
     1
 90
        0
176
     1
 90
        0
176
     1
290
     0
176
     1
 90
        1
176
     1
 40
0.0
176
     1
 90
        0
176
     1
290
     0
176
     1
290
     1
176
     1
290
     1
176
     1
290
     0
176
     1
290
     0
176
     1
290
     0
176
     1
290
     0
176
     1
290
     0
176
     1
290
     0
176
     1
 90
       50
176
     1
 40
0.0
176
     1
 40
1.0
176
     1
 90
        0
176
     1
 62
    18
420
        0
176
     1
 90
       50
176
     1
 90
        3
176
     1
 62
     5
420
      255
176
     1
290
     0
176
     1
 90
       50
176
     1
 90
       50
176
     1
 90
       50
176
     1
290
     0
176
     1
 90
       50
176
     1
 62
   256
176
     0
 40
1.0
176
     0
 90
        2
176
     1
  1
strokes_ogs.tif
176
     1
290
     0
176
     1
 40
1.0
176
     1
 40
1.0
176
     1
1001
ACAD
1000
AcDbSavedByObjectVersion
1070
     0
  0
VISUALSTYLE
  5
36
102
{ACAD_REACTORS
330
29
102
}
330
29
100
AcDbVisualStyle
  2
Thicken
 70
    13
177
     3
291
     1
 70
    58
 90
        2
176
     1
 90
        2
176
     1
 90
        0
176
     1
 90
        0
176
     1
 40
0.6
176
     1
 40
30.0
176
     1
 62
     7
420
 16777215
176
     1
 90
        1
176
     1
 90
        4
176
     1
 62
     7
176
     1
 62
   257
176
     1
 90
        1
176
     1
 90
        1
176
     1
 40
1.0
176
     1
 90
       12
176
     1
 62
     7
176
     1
 40
1.0
176
     1
 90
        1
176
     1
 90
        6
176
     1
 90
        2
176
     1
 62
     7
176
     1
 90
        5
176
     1
 90
        0
176
     1
 90
        0
176
     1
290
     0
176
     1
 90
        1
176
     1
 40
0.0
176
     1
 90
        0
176
     1
290
     0
176
     1
290
     1
176
     1
290
     1
176
     1
290
     0
176
     1
290
     0
176
     1
290
     0
176
     1
290
     0
176
     1
290
     0
176
     1
290
     0
176
     1
 90
       50
176
     1
 40
0.0
176
     1
 40
1.0
176
     1
 90
        0
176
     1
 62
    18
420
        0
176
     1
 90
       50
176
     1
 90
        3
176
     1
 62
     5
420
      255
176
     1
290
     0
176
     1
 90
       50
176
     1
 90
       50
176
     1
 90
       50
176
     1
290
     0
176
     1
 90
       50
176
     1
 62
   256
176
     0
 40
1.0
176
     0
 90
        2
176
     1
  1
strokes_ogs.tif
176
     1
290
     0
176
     1
 40
1.0
176
     1
 40
1.0
176
     1
1001
ACAD
1000
AcDbSavedByObjectVersion
1070
     0
  0
VISUALSTYLE
  5
30
102
{ACAD_REACTORS
330
29
102
}
330
29
100
AcDbVisualStyle
  2
Wireframe
 70
     5
177
     3
291
     0
 70
    58
 90
        0
176
     1
 90
        2
176
     1
 90
        0
176
     1
 90
        0
176
     1
 40
0.6
176
     1
 40
30.0
176
     1
 62
     7
420
 16777215
176
     1
 90
        1
176
     1
 90
        4
176
     1
 62
     7
176
     1
 62
   257
176
     1
 90
        1
176
     1
 90
        1
176
     1
 40
1.0
176
     1
 90
        0
176
     1
 62
   257
176
     1
 40
1.0
176
     1
 90
        1
176
     1
 90
        6
176
     1
 90
        2
176
     1
 62
     7
176
     1
 90
        3
176
     1
 90
        0
176
     1
 90
        0
176
     1
290
     0
176
     1
 90
        1
176
     1
 40
0.0
176
     1
 90
        0
176
     1
290
     0
176
     1
290
     1
176
     1
290
     1
176
     1
290
     0
176
     1
290
     0
176
     1
290
     0
176
     1
290
     0
176
     1
290
     0
176
     1
290
     0
176
     1
 90
       50
176
     1
 40
0.0
176
     1
 40
1.0
176
     1
 90
        0
176
     1
 62
    18
420
        0
176
     1
 90
       50
176
     1
 90
        3
176
     1
 62
     5
420
      255
176
     1
290
     0
176
     1
 90
       50
176
     1
 90
       50
176
     1
 90
       50
176
     1
290
     0
176
     1
 90
       50
176
     1
 62
   256
176
     0
 40
1.0
176
     0
 90
        2
176
     1
  1
strokes_ogs.tif
176
     1
290
     0
176
     1
 40
1.0
176
     1
 40
1.0
176
     1
1001
ACAD
1000
AcDbSavedByObjectVersion
1070
     0
  0
VISUALSTYLE
  5
3C
102
{ACAD_REACTORS
330
29
102
}
330
29
100
AcDbVisualStyle
  2
X-Ray
 70
    25
177
     3
291
     0
 70
    58
 90
        2
176
     1
 90
        2
176
     1
 90
        1
176
     1
 90
        1
176
     1
 40
0.5
176
     1
 40
30.0
176
     1
 62
     7
420
 16777215
176
     1
 90
        1
176
     1
 90
        0
176
     1
 62
     7
176
     1
 62
   257
176
     1
 90
        1
176
     1
 90
        1
176
     1
 40
1.0
176
     1
 90
        8
176
     1
 62
     7
176
     1
 40
1.0
176
     1
 90
        1
176
     1
 90
        6
176
     1
 90
        2
176
     1
 62
     7
176
     1
 90
        3
176
     1
 90
        0
176
     1
 90
        0
176
     1
290
     0
176
     1
 90
       13
176
     1
 40
0.0
176
     1
 90
        0
176
     1
290
     0
176
     1
290
     1
176
     1
290
     1
176
     1
290
     0
176
     1
290
     0
176
     1
290
     0
176
     1
290
     0
176
     1
290
     0
176
     1
290
     0
176
     1
 90
       50
176
     1
 40
0.0
176
     1
 40
1.0
176
     1
 90
        0
176
     1
 62
    18
420
        0
176
     1
 90
       50
176
     1
 90
        3
176
     1
 62
     5
420
      255
176
     1
290
     0
176
     1
 90
       50
176
     1
 90
       50
176
     1
 90
       50
176
     1
290
     0
176
     1
 90
       50
176
     1
 62
   256
176
     0
 40
1.0
176
     0
 90
        2
176
     1
  1
strokes_ogs.tif
176
     1
290
     0
176
     1
 40
1.0
176
     1
 40
1.0
176
     1
1001
ACAD
1000
AcDbSavedByObjectVersion
1070
     0
  0
DICTIONARYVAR
  5
90
102
{ACAD_REACTORS
330
8B
102
}
330
8B
100
DictionaryVariables
280
     0
  1
1:1
  0
DICTIONARYVAR
  5
8D
102
{ACAD_REACTORS
330
8B
102
}
330
8B
100
DictionaryVariables
280
     0
  1
STANDARD
  0
DICTIONARYVAR
  5
8C
102
{ACAD_REACTORS
330
8B
102
}
330
8B
100
DictionaryVariables
280
     0
  1
STANDARD
  0
DICTIONARYVAR
  5
8E
102
{ACAD_REACTORS
330
8B
102
}
330
8B
100
DictionaryVariables
280
     0
  1
Imperial24
  0
DICTIONARYVAR
  5
8F
102
{ACAD_REACTORS
330
8B
102
}
330
8B
100
DictionaryVariables
280
     0
  1
Imperial24
  0
DICTIONARY
  5
96
330
6B
100
AcDbDictionary
280
     1
281
     1
  3
ACAD_XREC_ROUNDTRIP
360
97
  0
DICTIONARY
  5
1A
330
19
100
AcDbDictionary
280
     1
281
     1
  3
BUMPTILE
360
1C
  3
DIFFUSETILE
360
1B
  3
OPACITYTILE
360
1F
  3
REFLECTIONTILE
360
1E
  3
REFRACTIONTILE
360
20
  3
SPECULARTILE
360
1D
  0
DICTIONARY
  5
12
330
11
100
AcDbDictionary
280
     1
281
     1
  3
BUMPTILE
360
14
  3
DIFFUSETILE
360
13
  3
OPACITYTILE
360
17
  3
REFLECTIONTILE
360
16
  3
REFRACTIONTILE
360
18
  3
SPECULARTILE
360
15
  0
DICTIONARY
  5
22
330
21
100
AcDbDictionary
280
     1
281
     1
  3
BUMPTILE
360
24
  3
DIFFUSETILE
360
23
  3
OPACITYTILE
360
27
  3
REFLECTIONTILE
360
26
  3
REFRACTIONTILE
360
28
  3
SPECULARTILE
360
25
  0
DICTIONARY
  5
94
330
69
100
AcDbDictionary
280
     1
281
     1
  3
ACAD_XREC_ROUNDTRIP
360
95
  0
DICTIONARY
  5
91
330
65
100
AcDbDictionary
280
     1
281
     1
  3
ACAD_ROUNDTRIP_2008_TABLESTYLE_CELLSTYLEMAP
360
92
  0
XRECORD
  5
97
102
{ACAD_REACTORS
330
96
102
}
330
96
100
AcDbXrecord
280
     1
102
DISPLAYNAME
  1
Imperial24
102
FLAGS
 90
        0
  0
XRECORD
  5
1C
102
{ACAD_REACTORS
330
1A
102
}
330
1A
100
AcDbXrecord
280
     1
270
     1
271
     1
  0
XRECORD
  5
1B
102
{ACAD_REACTORS
330
1A
102
}
330
1A
100
AcDbXrecord
280
     1
270
     1
271
     1
  0
XRECORD
  5
1F
102
{ACAD_REACTORS
330
1A
102
}
330
1A
100
AcDbXrecord
280
     1
270
     1
271
     1
  0
XRECORD
  5
1E
102
{ACAD_REACTORS
330
1A
102
}
330
1A
100
AcDbXrecord
280
     1
270
     1
271
     1
  0
XRECORD
  5
20
102
{ACAD_REACTORS
330
1A
102
}
330
1A
100
AcDbXrecord
280
     1
270
     1
271
     1
  0
XRECORD
  5
1D
102
{ACAD_REACTORS
330
1A
102
}
330
1A
100
AcDbXrecord
280
     1
270
     1
271
     1
  0
XRECORD
  5
14
102
{ACAD_REACTORS
330
12
102
}
330
12
100
AcDbXrecord
280
     1
270
     1
271
     1
  0
XRECORD
  5
13
102
{ACAD_REACTORS
330
12
102
}
330
12
100
AcDbXrecord
280
     1
270
     1
271
     1
  0
XRECORD
  5
17
102
{ACAD_REACTORS
330
12
102
}
330
12
100
AcDbXrecord
280
     1
270
     1
271
     1
  0
XRECORD
  5
16
102
{ACAD_REACTORS
330
12
102
}
330
12
100
AcDbXrecord
280
     1
270
     1
271
     1
  0
XRECORD
  5
18
102
{ACAD_REACTORS
330
12
102
}
330
12
100
AcDbXrecord
280
     1
270
     1
271
     1
  0
XRECORD
  5
15
102
{ACAD_REACTORS
330
12
102
}
330
12
100
AcDbXrecord
280
     1
270
     1
271
     1
  0
XRECORD
  5
24
102
{ACAD_REACTORS
330
22
102
}
330
22
100
AcDbXrecord
280
     1
270
     1
271
     1
  0
XRECORD
  5
23
102
{ACAD_REACTORS
330
22
102
}
330
22
100
AcDbXrecord
280
     1
270
     1
271
     1
  0
XRECORD
  5
27
102
{ACAD_REACTORS
330
22
102
}
330
22
100
AcDbXrecord
280
     1
270
     1
271
     1
  0
XRECORD
  5
26
102
{ACAD_REACTORS
330
22
102
}
330
22
100
AcDbXrecord
280
     1
270
     1
271
     1
  0
XRECORD
  5
28
102
{ACAD_REACTORS
330
22
102
}
330
22
100
AcDbXrecord
280
     1
270
     1
271
     1
  0
XRECORD
  5
25
102
{ACAD_REACTORS
330
22
102
}
330
22
100
AcDbXrecord
280
     1
270
     1
271
     1
  0
XRECORD
  5
95
102
{ACAD_REACTORS
330
94
102
}
330
94
100
AcDbXrecord
280
     1
102
DISPLAYNAME
  1
Imperial24
102
FLAGS
 90
        0
  0
CELLSTYLEMAP
  5
92
102
{ACAD_REACTORS
330
91
102
}
330
91
100
AcDbCellStyleMap
 90
        3
300
CELLSTYLE
  1
TABLEFORMAT_BEGIN
 90
        5
170
     1
 91
        0
 92
    32768
 62
   257
 93
        1
300
CONTENTFORMAT
  1
CONTENTFORMAT_BEGIN
 90
        0
 91
        0
 92
      512
 93
        0
300

 40
0.0
140
1.0
 94
        5
 62
     0
340
55
144
0.25
309
CONTENTFORMAT_END
171
     0
 94
        0
309
TABLEFORMAT_END
  1
CELLSTYLE_BEGIN
 90
        1
 91
        1
300
_TITLE
309
CELLSTYLE_END
300
CELLSTYLE
  1
TABLEFORMAT_BEGIN
 90
        5
170
     1
 91
        0
 92
        0
 62
   257
 93
        1
300
CONTENTFORMAT
  1
CONTENTFORMAT_BEGIN
 90
        0
 91
        0
 92
      512
 93
        0
300

 40
0.0
140
1.0
 94
        5
 62
     0
340
55
144
0.18
309
CONTENTFORMAT_END
171
     0
 94
        0
309
TABLEFORMAT_END
  1
CELLSTYLE_BEGIN
 90
        2
 91
        1
300
_HEADER
309
CELLSTYLE_END
300
CELLSTYLE
  1
TABLEFORMAT_BEGIN
 90
        5
170
     1
 91
        0
 92
        0
 62
   257
 93
        1
300
CONTENTFORMAT
  1
CONTENTFORMAT_BEGIN
 90
        0
 91
        0
 92
      512
 93
        0
300

 40
0.0
140
1.0
 94
        2
 62
     0
340
55
144
0.18
309
CONTENTFORMAT_END
171
     0
 94
        0
309
TABLEFORMAT_END
  1
CELLSTYLE_BEGIN
 90
        3
 91
        2
300
_DATA
309
CELLSTYLE_END
  0
ENDSEC
  0
EOF
