  0
SECTION
  2
HEADER
  9
$ACADVER
  1
AC1027
  9
$ACADMAINTVER
 70
   125
  9
$DWGCODEPAGE
  3
ANSI_1252
  9
$REQUIREDVERSIONS
160
                 0
  9
$INSBASE
 10
0.0
 20
0.0
 30
0.0
  9
$EXTMIN
 10
1.000000000000000E+20
 20
1.000000000000000E+20
 30
1.000000000000000E+20
  9
$EXTMAX
 10
-1.000000000000000E+20
 20
-1.000000000000000E+20
 30
-1.000000000000000E+20
  9
$LIMMIN
 10
0.0
 20
0.0
  9
$LIMMAX
 10
12.0
 20
9.0
  9
$ORTHOMODE
 70
     0
  9
$REGENMODE
 70
     1
  9
$FILLMODE
 70
     1
  9
$QTEXTMODE
 70
     0
  9
$MIRRTEXT
 70
     0
  9
$LTSCALE
 40
1.0
  9
$ATTMODE
 70
     1
  9
$TEXTSIZE
 40
0.2
  9
$TRACEWID
 40
0.05
  9
$TEXTSTYLE
  7
Standard
  9
$CLAYER
  8
0
  9
$CELTYPE
  6
ByLayer
  9
$CECOLOR
 62
   256
  9
$CELTSCALE
 40
1.0
  9
$DISPSILH
 70
     0
  9
$DIMSCALE
 40
1.0
  9
$DIMASZ
 40
0.18
  9
$DIMEXO
 40
0.0625
  9
$DIMDLI
 40
0.38
  9
$DIMRND
 40
0.0
  9
$DIMDLE
 40
0.0
  9
$DIMEXE
 40
0.18
  9
$DIMTP
 40
0.0
  9
$DIMTM
 40
0.0
  9
$DIMTXT
 40
0.18
  9
$DIMCEN
 40
0.09
  9
$DIMTSZ
 40
0.0
  9
$DIMTOL
 70
     0
  9
$DIMLIM
 70
     0
  9
$DIMTIH
 70
     1
  9
$DIMTOH
 70
     1
  9
$DIMSE1
 70
     0
  9
$DIMSE2
 70
     0
  9
$DIMTAD
 70
     0
  9
$DIMZIN
 70
     0
  9
$DIMBLK
  1

  9
$DIMASO
 70
     1
  9
$DIMSHO
 70
     1
  9
$DIMPOST
  1

  9
$DIMAPOST
  1

  9
$DIMALT
 70
     0
  9
$DIMALTD
 70
     2
  9
$DIMALTF
 40
25.4
  9
$DIMLFAC
 40
1.0
  9
$DIMTOFL
 70
     0
  9
$DIMTVP
 40
0.0
  9
$DIMTIX
 70
     0
  9
$DIMSOXD
 70
     0
  9
$DIMSAH
 70
     0
  9
$DIMBLK1
  1

  9
$DIMBLK2
  1

  9
$DIMSTYLE
  2
Standard
  9
$DIMCLRD
 70
     0
  9
$DIMCLRE
 70
     0
  9
$DIMCLRT
 70
     0
  9
$DIMTFAC
 40
1.0
  9
$DIMGAP
 40
0.09
  9
$DIMJUST
 70
     0
  9
$DIMSD1
 70
     0
  9
$DIMSD2
 70
     0
  9
$DIMTOLJ
 70
     1
  9
$DIMTZIN
 70
     0
  9
$DIMALTZ
 70
     0
  9
$DIMALTTZ
 70
     0
  9
$DIMUPT
 70
     0
  9
$DIMDEC
 70
     4
  9
$DIMTDEC
 70
     4
  9
$DIMALTU
 70
     2
  9
$DIMALTTD
 70
     2
  9
$DIMTXSTY
  7
Standard
  9
$DIMAUNIT
 70
     0
  9
$DIMADEC
 70
     0
  9
$DIMALTRND
 40
0.0
  9
$DIMAZIN
 70
     0
  9
$DIMDSEP
 70
    46
  9
$DIMATFIT
 70
     3
  9
$DIMFRAC
 70
     0
  9
$DIMLDRBLK
  1

  9
$DIMLUNIT
 70
     2
  9
$DIMLWD
 70
    -2
  9
$DIMLWE
 70
    -2
  9
$DIMTMOVE
 70
     0
  9
$DIMFXL
 40
1.0
  9
$DIMFXLON
 70
     0
  9
$DIMJOGANG
 40
0.7853981633974483
  9
$DIMTFILL
 70
     0
  9
$DIMTFILLCLR
 70
     0
  9
$DIMARCSYM
 70
     0
  9
$DIMLTYPE
  6

  9
$DIMLTEX1
  6

  9
$DIMLTEX2
  6

  9
$DIMTXTDIRECTION
 70
     0
  9
$LUNITS
 70
     2
  9
$LUPREC
 70
     4
  9
$SKETCHINC
 40
0.1
  9
$FILLETRAD
 40
0.0
  9
$AUNITS
 70
     0
  9
$AUPREC
 70
     0
  9
$MENU
  1
.
  9
$ELEVATION
 40
0.0
  9
$PELEVATION
 40
0.0
  9
$THICKNESS
 40
0.0
  9
$LIMCHECK
 70
     0
  9
$CHAMFERA
 40
0.0
  9
$CHAMFERB
 40
0.0
  9
$CHAMFERC
 40
0.0
  9
$CHAMFERD
 40
0.0
  9
$SKPOLY
 70
     0
  9
$TDCREATE
 40
2459734.949525463
  9
$TDUCREATE
 40
2459734.532858797
  9
$TDUPDATE
 40
2459734.949525463
  9
$TDUUPDATE
 40
2459734.532858797
  9
$TDINDWG
 40
0.0000000000
  9
$TDUSRTIMER
 40
0.0000000000
  9
$USRTIMER
 70
     1
  9
$ANGBASE
 50
0.0
  9
$ANGDIR
 70
     0
  9
$PDMODE
 70
     0
  9
$PDSIZE
 40
0.0
  9
$PLINEWID
 40
0.0
  9
$SPLFRAME
 70
     0
  9
$SPLINETYPE
 70
     6
  9
$SPLINESEGS
 70
     8
  9
$HANDSEED
  5
91
  9
$SURFTAB1
 70
     6
  9
$SURFTAB2
 70
     6
  9
$SURFTYPE
 70
     6
  9
$SURFU
 70
     6
  9
$SURFV
 70
     6
  9
$UCSBASE
  2

  9
$UCSNAME
  2

  9
$UCSORG
 10
0.0
 20
0.0
 30
0.0
  9
$UCSXDIR
 10
1.0
 20
0.0
 30
0.0
  9
$UCSYDIR
 10
0.0
 20
1.0
 30
0.0
  9
$UCSORTHOREF
  2

  9
$UCSORTHOVIEW
 70
     0
  9
$UCSORGTOP
 10
0.0
 20
0.0
 30
0.0
  9
$UCSORGBOTTOM
 10
0.0
 20
0.0
 30
0.0
  9
$UCSORGLEFT
 10
0.0
 20
0.0
 30
0.0
  9
$UCSORGRIGHT
 10
0.0
 20
0.0
 30
0.0
  9
$UCSORGFRONT
 10
0.0
 20
0.0
 30
0.0
  9
$UCSORGBACK
 10
0.0
 20
0.0
 30
0.0
  9
$PUCSBASE
  2

  9
$PUCSNAME
  2

  9
$PUCSORG
 10
0.0
 20
0.0
 30
0.0
  9
$PUCSXDIR
 10
1.0
 20
0.0
 30
0.0
  9
$PUCSYDIR
 10
0.0
 20
1.0
 30
0.0
  9
$PUCSORTHOREF
  2

  9
$PUCSORTHOVIEW
 70
     0
  9
$PUCSORGTOP
 10
0.0
 20
0.0
 30
0.0
  9
$PUCSORGBOTTOM
 10
0.0
 20
0.0
 30
0.0
  9
$PUCSORGLEFT
 10
0.0
 20
0.0
 30
0.0
  9
$PUCSORGRIGHT
 10
0.0
 20
0.0
 30
0.0
  9
$PUCSORGFRONT
 10
0.0
 20
0.0
 30
0.0
  9
$PUCSORGBACK
 10
0.0
 20
0.0
 30
0.0
  9
$USERI1
 70
     0
  9
$USERI2
 70
     0
  9
$USERI3
 70
     0
  9
$USERI4
 70
     0
  9
$USERI5
 70
     0
  9
$USERR1
 40
0.0
  9
$USERR2
 40
0.0
  9
$USERR3
 40
0.0
  9
$USERR4
 40
0.0
  9
$USERR5
 40
0.0
  9
$WORLDVIEW
 70
     1
  9
$SHADEDGE
 70
     3
  9
$SHADEDIF
 70
    70
  9
$TILEMODE
 70
     1
  9
$MAXACTVP
 70
    64
  9
$PINSBASE
 10
0.0
 20
0.0
 30
0.0
  9
$PLIMCHECK
 70
     0
  9
$PEXTMIN
 10
1.000000000000000E+20
 20
1.000000000000000E+20
 30
1.000000000000000E+20
  9
$PEXTMAX
 10
-1.000000000000000E+20
 20
-1.000000000000000E+20
 30
-1.000000000000000E+20
  9
$PLIMMIN
 10
0.0
 20
0.0
  9
$PLIMMAX
 10
12.0
 20
9.0
  9
$UNITMODE
 70
     0
  9
$VISRETAIN
 70
     1
  9
$PLINEGEN
 70
     0
  9
$PSLTSCALE
 70
     1
  9
$TREEDEPTH
 70
  3020
  9
$CMLSTYLE
  2
Standard
  9
$CMLJUST
 70
     0
  9
$CMLSCALE
 40
1.0
  9
$PROXYGRAPHICS
 70
     1
  9
$MEASUREMENT
 70
     0
  9
$CELWEIGHT
370
    -1
  9
$ENDCAPS
280
     0
  9
$JOINSTYLE
280
     0
  9
$LWDISPLAY
290
     1
  9
$INSUNITS
 70
     4
  9
$HYPERLINKBASE
  1

  9
$STYLESHEET
  1

  9
$XEDIT
290
     1
  9
$CEPSNTYPE
380
     0
  9
$PSTYLEMODE
290
     1
  9
$FINGERPRINTGUID
  2
{8D63DF0D-55CC-0F49-A654-81B7D6899C8F}
  9
$VERSIONGUID
  2
{ECDE0C4F-1C30-5944-BD11-0534075E3FA7}
  9
$EXTNAMES
290
     1
  9
$PSVPSCALE
 40
0.0
  9
$OLESTARTUP
290
     0
  9
$SORTENTS
280
   127
  9
$INDEXCTL
280
     0
  9
$HIDETEXT
280
     1
  9
$XCLIPFRAME
280
     2
  9
$HALOGAP
280
     0
  9
$OBSCOLOR
 70
   257
  9
$OBSLTYPE
280
     0
  9
$INTERSECTIONDISPLAY
280
     0
  9
$INTERSECTIONCOLOR
 70
   257
  9
$DIMASSOC
280
     2
  9
$PROJECTNAME
  1

  9
$CAMERADISPLAY
290
     0
  9
$LENSLENGTH
 40
50.0
  9
$CAMERAHEIGHT
 40
0.0
  9
$STEPSPERSEC
 40
2.0
  9
$STEPSIZE
 40
6.0
  9
$3DDWFPREC
 40
2.0
  9
$PSOLWIDTH
 40
0.25
  9
$PSOLHEIGHT
 40
4.0
  9
$LOFTANG1
 40
1.570796326794896
  9
$LOFTANG2
 40
1.570796326794896
  9
$LOFTMAG1
 40
0.0
  9
$LOFTMAG2
 40
0.0
  9
$LOFTPARAM
 70
     7
  9
$LOFTNORMALS
280
     1
  9
$LATITUDE
 40
37.795
  9
$LONGITUDE
 40
-122.394
  9
$NORTHDIRECTION
 40
0.0
  9
$TIMEZONE
 70
 -8000
  9
$LIGHTGLYPHDISPLAY
280
     1
  9
$TILEMODELIGHTSYNCH
280
     1
  9
$CMATERIAL
347
11
  9
$SOLIDHIST
280
     0
  9
$SHOWHIST
280
     1
  9
$DWFFRAME
280
     2
  9
$DGNFRAME
280
     0
  9
$REALWORLDSCALE
290
     1
  9
$INTERFERECOLOR
 62
     1
  9
$INTERFEREOBJVS
345
33
  9
$INTERFEREVPVS
346
30
  9
$CSHADOW
280
     0
  9
$SHADOWPLANELOCATION
 40
0.0
  0
ENDSEC
  0
SECTION
  2
CLASSES
  0
CLASS
  1
ACDBDICTIONARYWDFLT
  2
AcDbDictionaryWithDefault
  3
ObjectDBX Classes
 90
        0
 91
        1
280
     0
281
     0
  0
CLASS
  1
MATERIAL
  2
AcDbMaterial
  3
ObjectDBX Classes
 90
     1153
 91
        3
280
     0
281
     0
  0
CLASS
  1
VISUALSTYLE
  2
AcDbVisualStyle
  3
ObjectDBX Classes
 90
     4095
 91
       24
280
     0
281
     0
  0
CLASS
  1
SCALE
  2
AcDbScale
  3
ObjectDBX Classes
 90
     1153
 91
       17
280
     0
281
     0
  0
CLASS
  1
TABLESTYLE
  2
AcDbTableStyle
  3
ObjectDBX Classes
 90
     4095
 91
        1
280
     0
281
     0
  0
CLASS
  1
MLEADERSTYLE
  2
AcDbMLeaderStyle
  3
ACDB_MLEADERSTYLE_CLASS
 90
     4095
 91
        1
280
     0
281
     0
  0
CLASS
  1
ACDBSECTIONVIEWSTYLE
  2
AcDbSectionViewStyle
  3
ObjectDBX Classes
 90
     1025
 91
        1
280
     0
281
     0
  0
CLASS
  1
ACDBDETAILVIEWSTYLE
  2
AcDbDetailViewStyle
  3
ObjectDBX Classes
 90
     1025
 91
        1
280
     0
281
     0
  0
CLASS
  1
DICTIONARYVAR
  2
AcDbDictionaryVar
  3
ObjectDBX Classes
 90
        0
 91
        5
280
     0
281
     0
  0
CLASS
  1
CELLSTYLEMAP
  2
AcDbCellStyleMap
  3
ObjectDBX Classes
 90
     1152
 91
        1
280
     0
281
     0
  0
ENDSEC
  0
SECTION
  2
TABLES
  0
TABLE
  2
VPORT
  5
8
330
0
100
AcDbSymbolTable
 70
     1
1001
ACAD
1000
DbSaveVer
1071
      247
  0
VPORT
  5
57
330
8
100
AcDbSymbolTableRecord
100
AcDbViewportTableRecord
  2
*Active
 70
     0
 10
0.0
 20
0.0
 11
1.0
 21
1.0
 12
0.0
 22
0.0
 13
0.0
 23
0.0
 14
1.0
 24
1.0
 15
0.0
 25
0.0
 16
0.0
 26
0.0
 36
1.0
 17
-111.9583333053439
 27
3.302777776952218
 37
0.0
 40
214.1999999464498
 41
0.9999999999999998
 42
50.0
 43
0.0
 44
0.0
 50
0.0
 51
0.0
 71
     0
 72
   100
 73
     1
 74
     1
 75
     0
 76
     0
 77
     0
 78
     0
281
     0
 65
     1
110
0.0
120
0.0
130
0.0
111
1.0
121
0.0
131
0.0
112
0.0
122
1.0
132
0.0
 79
     0
146
0.0
 60
     3
 61
     5
292
     1
282
     1
141
0.0
142
0.0
 63
   250
421
  3355443
  0
ENDTAB
  0
TABLE
  2
LTYPE
  5
5
330
0
100
AcDbSymbolTable
 70
     1
  0
LTYPE
  5
5B
330
5
100
AcDbSymbolTableRecord
100
AcDbLinetypeTableRecord
  2
ByBlock
 70
     0
  3

 72
    65
 73
     0
 40
0.0
  0
LTYPE
  5
5C
330
5
100
AcDbSymbolTableRecord
100
AcDbLinetypeTableRecord
  2
ByLayer
 70
     0
  3

 72
    65
 73
     0
 40
0.0
  0
LTYPE
  5
5D
330
5
100
AcDbSymbolTableRecord
100
AcDbLinetypeTableRecord
  2
Continuous
 70
     0
  3
Solid line
 72
    65
 73
     0
 40
0.0
  0
ENDTAB
  0
TABLE
  2
LAYER
  5
2
330
0
100
AcDbSymbolTable
 70
     2
  0
LAYER
  5
54
330
2
100
AcDbSymbolTableRecord
100
AcDbLayerTableRecord
  2
0
 70
     0
 62
     7
  6
Continuous
370
    -3
390
F
347
21
348
0
  0
LAYER
  5
78
330
2
100
AcDbSymbolTableRecord
100
AcDbLayerTableRecord
  2
Layer 1
 70
     0
 62
     7
  6
Continuous
370
     0
390
F
347
21
348
0
  0
ENDTAB
  0
TABLE
  2
STYLE
  5
3
330
0
100
AcDbSymbolTable
 70
     2
  0
STYLE
  5
55
330
3
100
AcDbSymbolTableRecord
100
AcDbTextStyleTableRecord
  2
Standard
 70
     0
 40
0.0
 41
1.0
 50
0.0
 71
     0
 42
0.2
  3
txt
  4

  0
STYLE
  5
5A
330
3
100
AcDbSymbolTableRecord
100
AcDbTextStyleTableRecord
  2
Annotative
 70
     0
 40
0.0
 41
1.0
 50
0.0
 71
     0
 42
0.2
  3
txt
  4

1001
AcadAnnotative
1000
AnnotativeData
1002
{
1070
     1
1070
     1
1002
}
  0
ENDTAB
  0
TABLE
  2
VIEW
  5
6
330
0
100
AcDbSymbolTable
 70
     0
  0
ENDTAB
  0
TABLE
  2
UCS
  5
7
330
0
100
AcDbSymbolTable
 70
     0
  0
ENDTAB
  0
TABLE
  2
APPID
  5
9
330
0
100
AcDbSymbolTable
 70
     2
  0
APPID
  5
56
330
9
100
AcDbSymbolTableRecord
100
AcDbRegAppTableRecord
  2
ACAD
 70
     0
  0
APPID
  5
5E
330
9
100
AcDbSymbolTableRecord
100
AcDbRegAppTableRecord
  2
AcadAnnotative
 70
     0
  0
ENDTAB
  0
TABLE
  2
DIMSTYLE
  5
A
330
0
100
AcDbSymbolTable
 70
     2
100
AcDbDimStyleTable
 71
     0
  0
DIMSTYLE
105
58
330
A
100
AcDbSymbolTableRecord
100
AcDbDimStyleTableRecord
  2
Standard
 70
     0
340
55
  0
DIMSTYLE
105
59
330
A
100
AcDbSymbolTableRecord
100
AcDbDimStyleTableRecord
  2
Annotative
 70
     0
340
55
1001
AcadAnnotative
1000
AnnotativeData
1002
{
1070
     1
1070
     1
1002
}
  0
ENDTAB
  0
TABLE
  2
BLOCK_RECORD
  5
1
330
0
100
AcDbSymbolTable
 70
     2
  0
BLOCK_RECORD
  5
70
330
1
100
AcDbSymbolTableRecord
100
AcDbBlockTableRecord
  2
*Model_Space
340
73
 70
     0
280
     1
281
     0
  0
BLOCK_RECORD
  5
6C
330
1
100
AcDbSymbolTableRecord
100
AcDbBlockTableRecord
  2
*Paper_Space
340
6F
 70
     0
280
     1
281
     0
  0
BLOCK_RECORD
  5
74
330
1
100
AcDbSymbolTableRecord
100
AcDbBlockTableRecord
  2
*Paper_Space0
340
77
 70
     0
280
     1
281
     0
  0
BLOCK_RECORD
  5
79
330
1
100
AcDbSymbolTableRecord
100
AcDbBlockTableRecord
  2
Block_0
340
0
102
{BLKREFS
331
7A
102
}
 70
     0
280
     1
281
     0
  0
ENDTAB
  0
ENDSEC
  0
SECTION
  2
BLOCKS
  0
BLOCK
  5
71
330
70
100
AcDbEntity
  8
0
100
AcDbBlockBegin
  2
*Model_Space
 70
     0
 10
0.0
 20
0.0
 30
0.0
  3
*Model_Space
  1

  0
ENDBLK
  5
72
330
70
100
AcDbEntity
  8
0
100
AcDbBlockEnd
  0
BLOCK
  5
6D
330
6C
100
AcDbEntity
 67
     1
  8
0
100
AcDbBlockBegin
  2
*Paper_Space
 70
     0
 10
0.0
 20
0.0
 30
0.0
  3
*Paper_Space
  1

  0
ENDBLK
  5
6E
330
6C
100
AcDbEntity
 67
     1
  8
0
100
AcDbBlockEnd
  0
BLOCK
  5
75
330
74
100
AcDbEntity
 67
     1
  8
0
100
AcDbBlockBegin
  2
*Paper_Space0
 70
     0
 10
0.0
 20
0.0
 30
0.0
  3
*Paper_Space0
  1

  0
ENDBLK
  5
76
330
74
100
AcDbEntity
 67
     1
  8
0
100
AcDbBlockEnd
  0
BLOCK
  5
7B
330
79
100
AcDbEntity
  8
0
100
AcDbBlockBegin
  2
Block_0
 70
     0
 10
0.0
 20
0.0
 30
0.0
  3
Block_0
  1

  0
SPLINE
  5
7D
330
79
100
AcDbEntity
  8
Layer 1
100
AcDbSpline
210
0.0
220
0.0
230
1.0
 70
     9
 71
     3
 72
   776
 73
   772
 74
     0
 42
0.0000000001
 43
0.0000000001
 40
0.0
 40
0.0
 40
0.0
 40
0.0
 40
1.0
 40
1.0
 40
1.0
 40
2.0
 40
2.0
 40
2.0
 40
3.0
 40
3.0
 40
3.0
 40
4.0
 40
4.0
 40
4.0
 40
5.0
 40
5.0
 40
5.0
 40
6.0
 40
6.0
 40
6.0
 40
7.0
 40
7.0
 40
7.0
 40
8.0
 40
8.0
 40
8.0
 40
9.0
 40
9.0
 40
9.0
 40
10.0
 40
10.0
 40
10.0
 40
11.0
 40
11.0
 40
11.0
 40
12.0
 40
12.0
 40
12.0
 40
13.0
 40
13.0
 40
13.0
 40
14.0
 40
14.0
 40
14.0
 40
15.0
 40
15.0
 40
15.0
 40
16.0
 40
16.0
 40
16.0
 40
17.0
 40
17.0
 40
17.0
 40
18.0
 40
18.0
 40
18.0
 40
19.0
 40
19.0
 40
19.0
 40
20.0
 40
20.0
 40
20.0
 40
21.0
 40
21.0
 40
21.0
 40
22.0
 40
22.0
 40
22.0
 40
23.0
 40
23.0
 40
23.0
 40
24.0
 40
24.0
 40
24.0
 40
25.0
 40
25.0
 40
25.0
 40
26.0
 40
26.0
 40
26.0
 40
27.0
 40
27.0
 40
27.0
 40
28.0
 40
28.0
 40
28.0
 40
29.0
 40
29.0
 40
29.0
 40
30.0
 40
30.0
 40
30.0
 40
31.0
 40
31.0
 40
31.0
 40
32.0
 40
32.0
 40
32.0
 40
33.0
 40
33.0
 40
33.0
 40
34.0
 40
34.0
 40
34.0
 40
35.0
 40
35.0
 40
35.0
 40
36.0
 40
36.0
 40
36.0
 40
37.0
 40
37.0
 40
37.0
 40
38.0
 40
38.0
 40
38.0
 40
39.0
 40
39.0
 40
39.0
 40
40.0
 40
40.0
 40
40.0
 40
41.0
 40
41.0
 40
41.0
 40
42.0
 40
42.0
 40
42.0
 40
43.0
 40
43.0
 40
43.0
 40
44.0
 40
44.0
 40
44.0
 40
45.0
 40
45.0
 40
45.0
 40
46.0
 40
46.0
 40
46.0
 40
47.0
 40
47.0
 40
47.0
 40
48.0
 40
48.0
 40
48.0
 40
49.0
 40
49.0
 40
49.0
 40
50.0
 40
50.0
 40
50.0
 40
51.0
 40
51.0
 40
51.0
 40
52.0
 40
52.0
 40
52.0
 40
53.0
 40
53.0
 40
53.0
 40
54.0
 40
54.0
 40
54.0
 40
55.0
 40
55.0
 40
55.0
 40
56.0
 40
56.0
 40
56.0
 40
57.0
 40
57.0
 40
57.0
 40
58.0
 40
58.0
 40
58.0
 40
59.0
 40
59.0
 40
59.0
 40
60.0
 40
60.0
 40
60.0
 40
61.0
 40
61.0
 40
61.0
 40
62.0
 40
62.0
 40
62.0
 40
63.0
 40
63.0
 40
63.0
 40
64.0
 40
64.0
 40
64.0
 40
65.0
 40
65.0
 40
65.0
 40
66.0
 40
66.0
 40
66.0
 40
67.0
 40
67.0
 40
67.0
 40
68.0
 40
68.0
 40
68.0
 40
69.0
 40
69.0
 40
69.0
 40
70.0
 40
70.0
 40
70.0
 40
71.0
 40
71.0
 40
71.0
 40
72.0
 40
72.0
 40
72.0
 40
73.0
 40
73.0
 40
73.0
 40
74.0
 40
74.0
 40
74.0
 40
75.0
 40
75.0
 40
75.0
 40
76.0
 40
76.0
 40
76.0
 40
77.0
 40
77.0
 40
77.0
 40
78.0
 40
78.0
 40
78.0
 40
79.0
 40
79.0
 40
79.0
 40
80.0
 40
80.0
 40
80.0
 40
81.0
 40
81.0
 40
81.0
 40
82.0
 40
82.0
 40
82.0
 40
83.0
 40
83.0
 40
83.0
 40
84.0
 40
84.0
 40
84.0
 40
85.0
 40
85.0
 40
85.0
 40
86.0
 40
86.0
 40
86.0
 40
87.0
 40
87.0
 40
87.0
 40
88.0
 40
88.0
 40
88.0
 40
89.0
 40
89.0
 40
89.0
 40
90.0
 40
90.0
 40
90.0
 40
91.0
 40
91.0
 40
91.0
 40
92.0
 40
92.0
 40
92.0
 40
93.0
 40
93.0
 40
93.0
 40
94.0
 40
94.0
 40
94.0
 40
95.0
 40
95.0
 40
95.0
 40
96.0
 40
96.0
 40
96.0
 40
97.0
 40
97.0
 40
97.0
 40
98.0
 40
98.0
 40
98.0
 40
99.0
 40
99.0
 40
99.0
 40
100.0
 40
100.0
 40
100.0
 40
101.0
 40
101.0
 40
101.0
 40
102.0
 40
102.0
 40
102.0
 40
103.0
 40
103.0
 40
103.0
 40
104.0
 40
104.0
 40
104.0
 40
105.0
 40
105.0
 40
105.0
 40
106.0
 40
106.0
 40
106.0
 40
107.0
 40
107.0
 40
107.0
 40
108.0
 40
108.0
 40
108.0
 40
109.0
 40
109.0
 40
109.0
 40
110.0
 40
110.0
 40
110.0
 40
111.0
 40
111.0
 40
111.0
 40
112.0
 40
112.0
 40
112.0
 40
113.0
 40
113.0
 40
113.0
 40
114.0
 40
114.0
 40
114.0
 40
115.0
 40
115.0
 40
115.0
 40
116.0
 40
116.0
 40
116.0
 40
117.0
 40
117.0
 40
117.0
 40
118.0
 40
118.0
 40
118.0
 40
119.0
 40
119.0
 40
119.0
 40
120.0
 40
120.0
 40
120.0
 40
121.0
 40
121.0
 40
121.0
 40
122.0
 40
122.0
 40
122.0
 40
123.0
 40
123.0
 40
123.0
 40
124.0
 40
124.0
 40
124.0
 40
125.0
 40
125.0
 40
125.0
 40
126.0
 40
126.0
 40
126.0
 40
127.0
 40
127.0
 40
127.0
 40
128.0
 40
128.0
 40
128.0
 40
129.0
 40
129.0
 40
129.0
 40
130.0
 40
130.0
 40
130.0
 40
131.0
 40
131.0
 40
131.0
 40
132.0
 40
132.0
 40
132.0
 40
133.0
 40
133.0
 40
133.0
 40
134.0
 40
134.0
 40
134.0
 40
135.0
 40
135.0
 40
135.0
 40
136.0
 40
136.0
 40
136.0
 40
137.0
 40
137.0
 40
137.0
 40
138.0
 40
138.0
 40
138.0
 40
139.0
 40
139.0
 40
139.0
 40
140.0
 40
140.0
 40
140.0
 40
141.0
 40
141.0
 40
141.0
 40
142.0
 40
142.0
 40
142.0
 40
143.0
 40
143.0
 40
143.0
 40
144.0
 40
144.0
 40
144.0
 40
145.0
 40
145.0
 40
145.0
 40
146.0
 40
146.0
 40
146.0
 40
147.0
 40
147.0
 40
147.0
 40
148.0
 40
148.0
 40
148.0
 40
149.0
 40
149.0
 40
149.0
 40
150.0
 40
150.0
 40
150.0
 40
151.0
 40
151.0
 40
151.0
 40
152.0
 40
152.0
 40
152.0
 40
153.0
 40
153.0
 40
153.0
 40
154.0
 40
154.0
 40
154.0
 40
155.0
 40
155.0
 40
155.0
 40
156.0
 40
156.0
 40
156.0
 40
157.0
 40
157.0
 40
157.0
 40
158.0
 40
158.0
 40
158.0
 40
159.0
 40
159.0
 40
159.0
 40
160.0
 40
160.0
 40
160.0
 40
161.0
 40
161.0
 40
161.0
 40
162.0
 40
162.0
 40
162.0
 40
163.0
 40
163.0
 40
163.0
 40
164.0
 40
164.0
 40
164.0
 40
165.0
 40
165.0
 40
165.0
 40
166.0
 40
166.0
 40
166.0
 40
167.0
 40
167.0
 40
167.0
 40
168.0
 40
168.0
 40
168.0
 40
169.0
 40
169.0
 40
169.0
 40
170.0
 40
170.0
 40
170.0
 40
171.0
 40
171.0
 40
171.0
 40
172.0
 40
172.0
 40
172.0
 40
173.0
 40
173.0
 40
173.0
 40
174.0
 40
174.0
 40
174.0
 40
175.0
 40
175.0
 40
175.0
 40
176.0
 40
176.0
 40
176.0
 40
177.0
 40
177.0
 40
177.0
 40
178.0
 40
178.0
 40
178.0
 40
179.0
 40
179.0
 40
179.0
 40
180.0
 40
180.0
 40
180.0
 40
181.0
 40
181.0
 40
181.0
 40
182.0
 40
182.0
 40
182.0
 40
183.0
 40
183.0
 40
183.0
 40
184.0
 40
184.0
 40
184.0
 40
185.0
 40
185.0
 40
185.0
 40
186.0
 40
186.0
 40
186.0
 40
187.0
 40
187.0
 40
187.0
 40
188.0
 40
188.0
 40
188.0
 40
189.0
 40
189.0
 40
189.0
 40
190.0
 40
190.0
 40
190.0
 40
191.0
 40
191.0
 40
191.0
 40
192.0
 40
192.0
 40
192.0
 40
193.0
 40
193.0
 40
193.0
 40
194.0
 40
194.0
 40
194.0
 40
195.0
 40
195.0
 40
195.0
 40
196.0
 40
196.0
 40
196.0
 40
197.0
 40
197.0
 40
197.0
 40
198.0
 40
198.0
 40
198.0
 40
199.0
 40
199.0
 40
199.0
 40
200.0
 40
200.0
 40
200.0
 40
201.0
 40
201.0
 40
201.0
 40
202.0
 40
202.0
 40
202.0
 40
203.0
 40
203.0
 40
203.0
 40
204.0
 40
204.0
 40
204.0
 40
205.0
 40
205.0
 40
205.0
 40
206.0
 40
206.0
 40
206.0
 40
207.0
 40
207.0
 40
207.0
 40
208.0
 40
208.0
 40
208.0
 40
209.0
 40
209.0
 40
209.0
 40
210.0
 40
210.0
 40
210.0
 40
211.0
 40
211.0
 40
211.0
 40
212.0
 40
212.0
 40
212.0
 40
213.0
 40
213.0
 40
213.0
 40
214.0
 40
214.0
 40
214.0
 40
215.0
 40
215.0
 40
215.0
 40
216.0
 40
216.0
 40
216.0
 40
217.0
 40
217.0
 40
217.0
 40
218.0
 40
218.0
 40
218.0
 40
219.0
 40
219.0
 40
219.0
 40
220.0
 40
220.0
 40
220.0
 40
221.0
 40
221.0
 40
221.0
 40
222.0
 40
222.0
 40
222.0
 40
223.0
 40
223.0
 40
223.0
 40
224.0
 40
224.0
 40
224.0
 40
225.0
 40
225.0
 40
225.0
 40
226.0
 40
226.0
 40
226.0
 40
227.0
 40
227.0
 40
227.0
 40
228.0
 40
228.0
 40
228.0
 40
229.0
 40
229.0
 40
229.0
 40
230.0
 40
230.0
 40
230.0
 40
231.0
 40
231.0
 40
231.0
 40
232.0
 40
232.0
 40
232.0
 40
233.0
 40
233.0
 40
233.0
 40
234.0
 40
234.0
 40
234.0
 40
235.0
 40
235.0
 40
235.0
 40
236.0
 40
236.0
 40
236.0
 40
237.0
 40
237.0
 40
237.0
 40
238.0
 40
238.0
 40
238.0
 40
239.0
 40
239.0
 40
239.0
 40
240.0
 40
240.0
 40
240.0
 40
241.0
 40
241.0
 40
241.0
 40
242.0
 40
242.0
 40
242.0
 40
243.0
 40
243.0
 40
243.0
 40
244.0
 40
244.0
 40
244.0
 40
245.0
 40
245.0
 40
245.0
 40
246.0
 40
246.0
 40
246.0
 40
247.0
 40
247.0
 40
247.0
 40
248.0
 40
248.0
 40
248.0
 40
249.0
 40
249.0
 40
249.0
 40
250.0
 40
250.0
 40
250.0
 40
251.0
 40
251.0
 40
251.0
 40
252.0
 40
252.0
 40
252.0
 40
253.0
 40
253.0
 40
253.0
 40
254.0
 40
254.0
 40
254.0
 40
255.0
 40
255.0
 40
255.0
 40
256.0
 40
256.0
 40
256.0
 40
257.0
 40
257.0
 40
257.0
 40
257.0
 10
-52.0628797293002
 20
11.46287021603286
 30
0.0
 10
-52.11530777841537
 20
10.87408490899949
 30
0.0
 10
-52.18902756800113
 20
10.28598643229931
 30
0.0
 10
-52.28449698494947
 20
9.699376087994243
 30
0.0
 10
-52.47509240367492
 20
8.526212635260213
 30
0.0
 10
-52.75199950151141
 20
7.359173419696474
 30
0.0
 10
-53.1178511280876
 20
6.205355688139499
 30
0.0
 10
-53.1178511280876
 20
6.205355688139499
 30
0.0
 10
-54.48487244365686
 20
2.791007607454222
 30
0.0
 10
-54.48487244365686
 20
2.791007607454222
 30
0.0
 10
-55.18738540745339
 20
1.350838860915807
 30
0.0
 10
-56.00173724457963
 20
-0.0004425927509884
 30
0.0
 10
-56.90881117730288
 20
-1.27268132170764
 30
0.0
 10
-56.90881117730288
 20
-1.27268132170764
 30
0.0
 10
-58.8409793891197
 20
-3.714821059308118
 30
0.0
 10
-58.8409793891197
 20
-3.714821059308118
 30
0.0
 10
-59.1817617083667
 20
-4.105226870457302
 30
0.0
 10
-59.53147282200561
 20
-4.48767689685892
 30
0.0
 10
-59.88931142797258
 20
-4.862400081965385
 30
0.0
 10
-61.32066585184752
 20
-6.36135005824392
 30
0.0
 10
-62.88286145506214
 20
-7.737529111656228
 30
0.0
 10
-64.5309108504939
 20
-9.014346709529917
 30
0.0
 10
-64.94278010969864
 20
-9.333551109002831
 30
0.0
 10
-65.36014401160668
 20
-9.646516799567054
 30
0.0
 10
-65.78220125415345
 20
-9.953701668132225
 30
0.0
 10
-65.78220125415345
 20
-9.953701668132225
 30
0.0
 10
-73.76958019530535
 20
-14.90740824329768
 30
0.0
 10
-73.76958019530535
 20
-14.90740824329768
 30
0.0
 10
-74.70607336082917
 20
-15.36226163447492
 30
0.0
 10
-75.65229662280495
 20
-15.74350970778682
 30
0.0
 10
-76.60493030126477
 20
-16.05618921904403
 30
0.0
 10
-77.08136161221928
 20
-16.21250035674613
 30
0.0
 10
-77.55928105556797
 20
-16.35164073600751
 30
0.0
 10
-78.0385741595971
 20
-16.47429718715394
 30
0.0
 10
-77.97927780710462
 20
-16.71817919291592
 30
0.0
 10
-77.90853428231553
 20
-16.97528268268593
 30
0.0
 10
-77.82496992455643
 20
-17.24583659989428
 30
0.0
 10
-77.65807015248293
 20
-17.78700167017711
 30
0.0
 10
-77.44000152024629
 20
-18.38248357301212
 30
0.0
 10
-77.15897344038378
 20
-19.03571646007289
 30
0.0
 10
-77.01840216459022
 20
-19.36236152153684
 30
0.0
 10
-76.86226273447598
 20
-19.70343002008795
 30
0.0
 10
-76.68883807419383
 20
-20.05943707849337
 30
0.0
 10
-76.34210322535094
 20
-20.77145119529522
 30
0.0
 10
-75.92657087101217
 20
-21.54310507975631
 30
0.0
 10
-75.43079383887963
 20
-22.37800459115508
 30
0.0
 10
-75.18284808695042
 20
-22.79548296478739
 30
0.0
 10
-74.91486978350522
 20
-23.22875843618284
 30
0.0
 10
-74.62537079614278
 20
-23.67823165637755
 30
0.0
 10
-74.33587180878098
 20
-24.1277621124381
 30
0.0
 10
-74.0247376657799
 20
-24.59349031728828
 30
0.0
 10
-73.69070917818692
 20
-25.07598862956137
 30
0.0
 10
-73.60027651704985
 20
-25.15096760810204
 30
0.0
 10
-73.49439017331349
 20
-25.24082791062122
 30
0.0
 10
-73.3745382793765
 20
-25.34574124471675
 30
0.0
 10
-73.22469479402363
 20
-25.47692583922221
 30
0.0
 10
-73.05310168130818
 20
-25.63163437280684
 30
0.0
 10
-72.86296414947472
 20
-25.81038196819829
 30
0.0
 10
-72.29255155397308
 20
-26.34656751853567
 30
0.0
 10
-71.55523918639604
 20
-27.09864673837756
 30
0.0
 10
-70.73688083896647
 20
-28.07715102622661
 30
0.0
 10
-70.73688083896647
 20
-28.07715102622661
 30
0.0
 10
-69.37157659923996
 20
-29.8377261253283
 30
0.0
 10
-69.37157659923996
 20
-29.8377261253283
 30
0.0
 10
-69.37157659923996
 20
-29.8377261253283
 30
0.0
 10
-67.47214730018967
 20
-32.80334505201658
 30
0.0
 10
-67.47214730018967
 20
-32.80334505201658
 30
0.0
 10
-67.47214730018967
 20
-32.80334505201658
 30
0.0
 10
-65.65296267893446
 20
-36.49660348568426
 30
0.0
 10
-65.65296267893446
 20
-36.49660348568426
 30
0.0
 10
-63.93565789111034
 20
-40.56143713207962
 30
0.0
 10
-62.61751600124298
 20
-45.75238635308151
 30
0.0
 10
-62.53521083243526
 20
-52.17344870898958
 30
0.0
 10
-62.53521083243526
 20
-52.17344870898958
 30
0.0
 10
-62.0436692540527
 20
-60.5324028628602
 30
0.0
 10
-64.50206397630864
 20
-61.51617284997005
 30
0.0
 10
-64.64183395004153
 20
-61.57203505077356
 30
0.0
 10
-64.77221724249114
 20
-61.59842078291452
 30
0.0
 10
-64.89767825085408
 20
-61.61032584210215
 30
0.0
 10
-64.91839763270808
 20
-61.61227186138991
 30
0.0
 10
-64.93957490145662
 20
-61.61610666411083
 30
0.0
 10
-64.9599508681426
 20
-61.61690796617342
 30
0.0
 10
-65.04763620792899
 20
-61.62045658958764
 30
0.0
 10
-65.12822430089207
 20
-61.60299965183316
 30
0.0
 10
-65.20927028074585
 20
-61.58651572372657
 30
0.0
 10
-65.25208270513239
 20
-61.57775863691705
 30
0.0
 10
-65.29810033776351
 20
-61.57798758036754
 30
0.0
 10
-65.33908121458144
 20
-61.56390755844198
 30
0.0
 10
-65.43157436673182
 20
-61.53219889118402
 30
0.0
 10
-65.5171992155049
 20
-61.48103003101958
 30
0.0
 10
-65.60076357326464
 20
-61.42413758471134
 30
0.0
 10
-65.62148295511993
 20
-61.41005756278545
 30
0.0
 10
-65.64494965832587
 20
-61.40353267457873
 30
0.0
 10
-65.66509668156776
 20
-61.38796452025612
 30
0.0
 10
-65.76663309983084
 20
-61.30960862588782
 30
0.0
 10
-65.86130121471851
 20
-61.21265107654949
 30
0.0
 10
-65.94990232828824
 20
-61.10052602390572
 30
0.0
 10
-65.97771895696684
 20
-61.06538320495428
 30
0.0
 10
-66.00141460362071
 20
-61.02045305369983
 30
0.0
 10
-66.02797204334473
 20
-60.98233396995717
 30
0.0
 10
-66.08646709377784
 20
-60.89842619702073
 30
0.0
 10
-66.14496214420966
 20
-60.81446118823001
 30
0.0
 10
-66.19784808021617
 20
-60.71721745958562
 30
0.0
 10
-66.22898438886139
 20
-60.65992436224031
 30
0.0
 10
-66.25622865892404
 20
-60.59433206498741
 30
0.0
 10
-66.28553342000322
 20
-60.53291798561738
 30
0.0
 10
-66.32846031611179
 20
-60.44271426792534
 30
0.0
 10
-66.37184509911299
 20
-60.35365526746939
 30
0.0
 10
-66.41099442836488
 20
-60.25532405744513
 30
0.0
 10
-66.44007024599549
 20
-60.18229109819255
 30
0.0
 10
-66.46616979883134
 20
-60.10336284521215
 30
0.0
 10
-66.49318512544927
 20
-60.02638061152816
 30
0.0
 10
-66.52729769889116
 20
-59.92896517528756
 30
0.0
 10
-66.56186815922376
 20
-59.83212209766967
 30
0.0
 10
-66.59300446786898
 20
-59.72915478286286
 30
0.0
 10
-66.61864613381222
 20
-59.64478912304405
 30
0.0
 10
-66.64176942184949
 20
-59.55681760394743
 30
0.0
 10
-66.66535059677876
 20
-59.46924673588661
 30
0.0
 10
-66.69328169718004
 20
-59.36513470385463
 30
0.0
 10
-66.72121279758387
 20
-59.26090820010223
 30
0.0
 10
-66.74662552007854
 20
-59.15301860121485
 30
0.0
 10
-66.76837514744177
 20
-59.06075439250565
 30
0.0
 10
-66.78852217068238
 20
-58.96665863623841
 30
0.0
 10
-66.80844025047699
 20
-58.87210499307021
 30
0.0
 10
-66.8313345950689
 20
-58.76307067695862
 30
0.0
 10
-66.85388552449087
 20
-58.65357847394477
 30
0.0
 10
-66.87460490634487
 20
-58.54231195922912
 30
0.0
 10
-66.89246249512873
 20
-58.445583353331
 30
0.0
 10
-66.90963325357268
 20
-58.34822515295655
 30
0.0
 10
-66.92588823823263
 20
-58.25035182982461
 30
0.0
 10
-66.94489054424325
 20
-58.13662417306465
 30
0.0
 10
-66.96320601991654
 20
-58.02261033699767
 30
0.0
 10
-66.98026230663716
 20
-57.90802414231763
 30
0.0
 10
-66.99468574372978
 20
-57.81118106469107
 30
0.0
 10
-67.00853682220838
 20
-57.71439522293803
 30
0.0
 10
-67.02158659862568
 20
-57.61749490944532
 30
0.0
 10
-67.03738369639364
 20
-57.50090545961297
 30
0.0
 10
-67.05203607693291
 20
-57.38465942495218
 30
0.0
 10
-67.06588715540958
 20
-57.26875680545301
 30
0.0
 10
-67.07721985598351
 20
-57.17374527540211
 30
0.0
 10
-67.08866702827883
 20
-57.07884821707294
 30
0.0
 10
-67.09896948334609
 20
-56.98480969666031
 30
0.0
 10
-67.11156137287075
 20
-56.86993732266555
 30
0.0
 10
-67.12300854516671
 20
-56.75666755279694
 30
0.0
 10
-67.13399783057004
 20
-56.6439701415507
 30
0.0
 10
-67.14315556840796
 20
-56.55004609285978
 30
0.0
 10
-67.15265672141327
 20
-56.45560692142066
 30
0.0
 10
-67.16101315718926
 20
-56.36368612788334
 30
0.0
 10
-67.17074325364056
 20
-56.25453734004106
 30
0.0
 10
-67.17955757630853
 20
-56.14859376044208
 30
0.0
 10
-67.18825742725254
 20
-56.04305083187792
 30
0.0
 10
-67.19535467407713
 20
-55.95479313347589
 30
0.0
 10
-67.20313875123716
 20
-55.86499006682061
 30
0.0
 10
-67.20954916772185
 20
-55.77976586907371
 30
0.0
 10
-67.21756218833043
 20
-55.67439464808683
 30
0.0
 10
-67.22465943515375
 20
-55.57446083394669
 30
0.0
 10
-67.23175668197706
 20
-55.47452701980688
 30
0.0
 10
-67.23759473984772
 20
-55.39342380408694
 30
0.0
 10
-67.24389068461102
 20
-55.30848578565636
 30
0.0
 10
-67.24915638386701
 20
-55.23156078782825
 30
0.0
 10
-67.25430761139967
 20
-55.15463579000015
 30
0.0
 10
-67.25900095204035
 20
-55.08480803899088
 30
0.0
 10
-67.26380876440498
 20
-55.01246191008141
 30
0.0
 10
-67.27926244700556
 20
-54.77842447249856
 30
0.0
 10
-67.29345694065155
 20
-54.56172950093019
 30
0.0
 10
-67.30662118879216
 20
-54.38624434963825
 30
0.0
 10
-67.32493666446607
 20
-54.13898542804735
 30
0.0
 10
-67.38377513006722
 20
-53.7945972495232
 30
0.0
 10
-67.472490715359
 20
-53.38141156551311
 30
0.0
 10
-67.73875194296021
 20
-52.14191174931851
 30
0.0
 10
-68.27482302157459
 20
-50.28329161949894
 30
0.0
 10
-68.79818773894164
 20
-48.57016504956217
 30
0.0
 10
-68.90602010196673
 20
-49.16123979105486
 30
0.0
 10
-69.02461280695362
 20
-49.74453045539682
 30
0.0
 10
-69.1521343063286
 20
-50.31831996671968
 30
0.0
 10
-69.66210583210906
 20
-52.61359248376299
 30
0.0
 10
-70.31608278537044
 20
-54.75759061891547
 30
0.0
 10
-71.0062328030883
 20
-56.64356949051459
 30
0.0
 10
-71.35136504780731
 20
-57.58658754425091
 30
0.0
 10
-71.70531161519554
 20
-58.46510078209496
 30
0.0
 10
-72.05490825711049
 20
-59.2657732483266
 30
0.0
 10
-72.22970657806863
 20
-59.66613809937534
 30
0.0
 10
-72.40336018179547
 20
-60.04698552166043
 30
0.0
 10
-72.57426646417295
 20
-60.40677014692191
 30
0.0
 10
-74.18350994552278
 20
-63.79427460856526
 30
0.0
 10
-72.3280377880884
 20
-66.03591712339791
 30
0.0
 10
-70.36095570077029
 20
-68.08353006782414
 30
0.0
 10
-70.09858651174974
 20
-68.35648789121257
 30
0.0
 10
-69.83438577516186
 20
-68.62612603464751
 30
0.0
 10
-69.57602309644399
 20
-68.89444775326236
 30
0.0
 10
-69.31766041772677
 20
-69.16282670773213
 30
0.0
 10
-69.0653647403262
 20
-69.43000370912246
 30
0.0
 10
-68.82703461312691
 20
-69.69821095601687
 30
0.0
 10
-68.58847554248161
 20
-69.96647543876559
 30
0.0
 10
-68.36411096548232
 20
-70.23571293116377
 30
0.0
 10
-68.16138154412293
 20
-70.50832733939154
 30
0.0
 10
-67.95865212276417
 20
-70.78094174761801
 30
0.0
 10
-67.77790127221208
 20
-71.05693307166443
 30
0.0
 10
-67.62691306963052
 20
-71.33841903842181
 30
0.0
 10
-67.55136173247677
 20
-71.47916202180003
 30
0.0
 10
-67.483365529039
 20
-71.62127866585358
 30
0.0
 10
-67.42384023310179
 20
-71.76511238575532
 30
0.0
 10
-67.3045606977782
 20
-72.05272258968268
 30
0.0
 10
-67.21916479245177
 20
-72.34708662527623
 30
0.0
 10
-67.17543659428189
 20
-72.65037945524598
 30
0.0
 10
-67.10995876874942
 20
-73.10529008228744
 30
0.0
 10
-67.13834775604269
 20
-73.58040496842571
 30
0.0
 10
-67.2873899393349
 20
-74.08327924738028
 30
0.0
 10
-67.32470772101945
 20
-74.20896919919339
 30
0.0
 10
-67.36958063641996
 20
-74.33649069856386
 30
0.0
 10
-67.42223762898047
 20
-74.46578650964773
 30
0.0
 10
-67.58066649355467
 20
-74.85373117875164
 30
0.0
 10
-67.81075465670067
 20
-75.25827424769095
 30
0.0
 10
-68.12372034726905
 20
-75.6827926322865
 30
0.0
 10
-68.1241782341617
 20
-75.68347946261903
 30
0.0
 10
-68.12475059277637
 20
-75.68416629296216
 30
0.0
 10
-68.12532295139168
 20
-75.68485312329501
 30
0.0
 10
-68.30103704613314
 20
-75.92324048635501
 30
0.0
 10
-68.49025880418389
 20
-76.14983726195774
 30
0.0
 10
-68.6850896766593
 20
-76.37025256450542
 30
0.0
 10
-68.73316780030053
 20
-76.42468386877834
 30
0.0
 10
-68.78158933911237
 20
-76.47860005029411
 30
0.0
 10
-68.83069770826093
 20
-76.53188663732293
 30
0.0
 10
-69.02896273242498
 20
-76.74657835373739
 30
0.0
 10
-69.23295134273833
 20
-76.9548596536569
 30
0.0
 10
-69.44747135156106
 20
-77.14917540337994
 30
0.0
 10
-69.46166584520899
 20
-77.16211070807166
 30
0.0
 10
-69.47700505608624
 20
-77.17355788036731
 30
0.0
 10
-69.49131402145555
 20
-77.18637871333893
 30
0.0
 10
-69.69507368832032
 20
-77.36890387559572
 30
0.0
 10
-69.90718979096299
 20
-77.53900885591605
 30
0.0
 10
-70.12354134735499
 20
-77.70138699493192
 30
0.0
 10
-70.18089168055618
 20
-77.74431389104403
 30
0.0
 10
-70.23812754203664
 20
-77.787011843705
 30
0.0
 10
-70.29616470557582
 20
-77.82850784327625
 30
0.0
 10
-70.52693969906044
 20
-77.9932898884815
 30
0.0
 10
-70.76240803318639
 20
-78.14960102617206
 30
0.0
 10
-71.00463019896634
 20
-78.28959994335287
 30
0.0
 10
-71.03095869524692
 20
-78.30482468250392
 30
0.0
 10
-71.05831743703352
 20
-78.3174165720337
 30
0.0
 10
-71.08464593331475
 20
-78.33229789601417
 30
0.0
 10
-71.30763684963807
 20
-78.45798784782694
 30
0.0
 10
-71.53543557832538
 20
-78.57045631563265
 30
0.0
 10
-71.76609610008604
 20
-78.67348086629501
 30
0.0
 10
-71.82825424565189
 20
-78.7012402591113
 30
0.0
 10
-71.890412391219
 20
-78.72917135951354
 30
0.0
 10
-71.95314289540014
 20
-78.75527091234812
 30
0.0
 10
-72.2068122334767
 20
-78.86069936919025
 30
0.0
 10
-72.46357230807195
 20
-78.95513854063802
 30
0.0
 10
-72.72410994952583
 20
-79.03114776468214
 30
0.0
 10
-72.7595961836424
 20
-79.04150745560946
 30
0.0
 10
-72.79554030465097
 20
-79.04826128726634
 30
0.0
 10
-72.83114101049216
 20
-79.05804861957097
 30
0.0
 10
-73.06523568394212
 20
-79.12243896374377
 30
0.0
 10
-73.30173426357409
 20
-79.17263481425935
 30
0.0
 10
-73.53960650388266
 20
-79.21161243592049
 30
0.0
 10
-73.60359619701519
 20
-79.22208659857753
 30
0.0
 10
-73.66735694670301
 20
-79.23330482742301
 30
0.0
 10
-73.73146111156142
 20
-79.24189020664659
 30
0.0
 10
-73.99772233916262
 20
-79.27749091248937
 30
0.0
 10
-74.26547169916119
 20
-79.29924053984682
 30
0.0
 10
-74.53402236122236
 20
-79.30078590810746
 30
0.0
 10
-74.59205952476283
 20
-79.30112932327901
 30
0.0
 10
-74.64998221657871
 20
-79.29597809574859
 30
0.0
 10
-74.70790490839714
 20
-79.29466167092882
 30
0.0
 10
-74.87892566249664
 20
-79.29071239648748
 30
0.0
 10
-75.05006088831946
 20
-79.28126847934414
 30
0.0
 10
-75.22108164241896
 20
-79.26272406022069
 30
0.0
 10
-75.30041054642811
 20
-79.25408144514091
 30
0.0
 10
-75.37939603527114
 20
-79.24194744251241
 30
0.0
 10
-75.45861046755759
 20
-79.23009961918066
 30
0.0
 10
-75.61474989767184
 20
-79.20680462356163
 30
0.0
 10
-75.77043144089794
 20
-79.17681303214125
 30
0.0
 10
-75.92588404067483
 20
-79.14058273183112
 30
0.0
 10
-76.00441164262523
 20
-79.12232449201308
 30
0.0
 10
-76.08282477285037
 20
-79.10452413909634
 30
0.0
 10
-76.16100895963146
 20
-79.08294621931521
 30
0.0
 10
-76.33454809163628
 20
-79.03498256740338
 30
0.0
 10
-76.50717144985839
 20
-78.97654475282422
 30
0.0
 10
-76.67933692118788
 20
-78.91169652176969
 30
0.0
 10
-76.73451229165308
 20
-78.89091990405148
 30
0.0
 10
-76.79014554901219
 20
-78.87455044767495
 30
0.0
 10
-76.84520644775471
 20
-78.85199951824592
 30
0.0
 10
-77.07083021370539
 20
-78.75933465851954
 30
0.0
 10
-77.29485137553537
 20
-78.65190294651419
 30
0.0
 10
-77.51646863118207
 20
-78.52844519330421
 30
0.0
 10
-77.56351650931858
 20
-78.50223116874983
 30
0.0
 10
-77.60953414194841
 20
-78.4697211994296
 30
0.0
 10
-77.65635307663763
 20
-78.44207627833405
 30
0.0
 10
-77.8304645672584
 20
-78.3394523787078
 30
0.0
 10
-78.00297345375657
 20
-78.2285292791531
 30
0.0
 10
-78.17365079268803
 20
-78.10581559214181
 30
0.0
 10
-78.24485220436848
 20
-78.05458949612084
 30
0.0
 10
-78.31513784226493
 20
-77.9984983518675
 30
0.0
 10
-78.38565242360674
 20
-77.94372363243231
 30
0.0
 10
-78.53354988966898
 20
-77.82885125844686
 30
0.0
 10
-78.6798447516105
 20
-77.70625204315662
 30
0.0
 10
-78.82453700943007
 20
-77.57535362795689
 30
0.0
 10
-78.89505159077252
 20
-77.51147840654095
 30
0.0
 10
-78.96568064383766
 20
-77.447431477549
 30
0.0
 10
-79.03539392311945
 20
-77.3797214534237
 30
0.0
 10
-79.18993074911234
 20
-77.22970626047815
 30
0.0
 10
-79.34149131030924
 20
-77.06755706491276
 30
0.0
 10
-79.49133479566275
 20
-76.89813891493428
 30
0.0
 10
-79.54364837305395
 20
-76.83889979830183
 30
0.0
 10
-79.59722113940038
 20
-76.78446849403981
 30
0.0
 10
-79.64907682989959
 20
-76.72282547121736
 30
0.0
 10
-79.84848657129365
 20
-76.48541111780623
 30
0.0
 10
-80.04388980238372
 20
-76.23174177972969
 30
0.0
 10
-80.23345497560251
 20
-75.95763923910777
 30
0.0
 10
-80.2629886801264
 20
-75.91488405058095
 30
0.0
 10
-80.29080530880435
 20
-75.86611909659692
 30
0.0
 10
-80.32011006988289
 20
-75.82244813429639
 30
0.0
 10
-80.47785210411911
 20
-75.58755215878544
 30
0.0
 10
-80.63204551494399
 20
-75.34017876546449
 30
0.0
 10
-80.78200347202017
 20
-75.07849640678609
 30
0.0
 10
-80.83878144660863
 20
-74.97936389469955
 30
0.0
 10
-80.89349893018054
 20
-74.87387820199258
 30
0.0
 10
-80.9491321875403
 20
-74.77085365132989
 30
0.0
 10
-81.07024327042932
 20
-74.54626013088909
 30
0.0
 10
-81.18860703196828
 20
-74.31290952364006
 30
0.0
 10
-81.30376558526526
 20
-74.06937093303969
 30
0.0
 10
-81.36008567295915
 20
-73.95014863358705
 30
0.0
 10
-81.4160623454863
 20
-73.82989608861042
 30
0.0
 10
-81.47089430078411
 20
-73.70603768437362
 30
0.0
 10
-81.58719757131104
 20
-73.44332508018216
 30
0.0
 10
-81.6991509163634
 20
-73.16739099199162
 30
0.0
 10
-81.80812799661977
 20
-72.88361559077523
 30
0.0
 10
-81.85162725134492
 20
-72.7708037077986
 30
0.0
 10
-81.8967291101895
 20
-72.66291410891091
 30
0.0
 10
-81.93885470423868
 20
-72.54666807425012
 30
0.0
 10
-82.08606533996292
 20
-72.14092305222047
 30
0.0
 10
-82.22755238954047
 20
-71.71817897933732
 30
0.0
 10
-82.35942381438873
 20
-71.27025112740355
 30
0.0
 10
-82.37247359080537
 20
-71.22612227820077
 30
0.0
 10
-82.38369181965598
 20
-71.17707114490973
 30
0.0
 10
-82.39651265262599
 20
-71.13254164468175
 30
0.0
 10
-82.51338828176825
 20
-70.72714003782333
 30
0.0
 10
-82.6233956075306
 20
-70.30336571943448
 30
0.0
 10
-82.72687804508434
 20
-69.86293576534667
 30
0.0
 10
-82.76350899643217
 20
-69.70742592970909
 30
0.0
 10
-82.79670579608879
 20
-69.54373136588273
 30
0.0
 10
-82.83150519986994
 20
-69.38375713304727
 30
0.0
 10
-82.90751442391311
 20
-69.03490455732522
 30
0.0
 10
-82.97963160937625
 20
-68.67672253619085
 30
0.0
 10
-83.04694098247669
 20
-68.30646374828195
 30
0.0
 10
-83.08105355591793
 20
-68.11918800952186
 30
0.0
 10
-83.11402141213047
 20
-67.92956560043788
 30
0.0
 10
-83.14573007938973
 20
-67.73668074725538
 30
0.0
 10
-83.20914741390884
 20
-67.35142616363693
 30
0.0
 10
-83.26672669055669
 20
-66.95209155810224
 30
0.0
 10
-83.32064287207051
 20
-66.54422880919857
 30
0.0
 10
-83.34456746216975
 20
-66.36319177933882
 30
0.0
 10
-83.37043807155769
 20
-66.18701979770342
 30
0.0
 10
-83.39253111408831
 20
-66.00151837065478
 30
0.0
 10
-83.46350358232147
 20
-65.40346085405502
 30
0.0
 10
-83.52714986028789
 20
-64.78811810729476
 30
0.0
 10
-83.57728847494309
 20
-64.14238311807931
 30
0.0
 10
-83.57728847494309
 20
-64.14249758980936
 30
0.0
 10
-83.57740294666704
 20
-64.1425548256646
 30
0.0
 10
-83.57740294666704
 20
-64.14266929739563
 30
0.0
 10
-83.57740294666704
 20
-64.1425548256646
 30
0.0
 10
-83.57740294666704
 20
-64.14249758980936
 30
0.0
 10
-83.57740294666704
 20
-64.14238311807931
 30
0.0
 10
-83.57763189011176
 20
-64.14696198699762
 30
0.0
 10
-83.57831872044911
 20
-64.15114020488946
 30
0.0
 10
-83.57854766389575
 20
-64.15571907380715
 30
0.0
 10
-83.62845733510624
 20
-64.79527258997911
 30
0.0
 10
-83.69130231101006
 20
-65.40517792990161
 30
0.0
 10
-83.7615879489078
 20
-65.99791251137569
 30
0.0
 10
-83.78413887832977
 20
-66.18770662804592
 30
0.0
 10
-83.81058184633239
 20
-66.36817129928489
 30
0.0
 10
-83.83519326676896
 20
-66.55321483945023
 30
0.0
 10
-83.88853708966811
 20
-66.95609806839883
 30
0.0
 10
-83.94531506425463
 20
-67.35073933330472
 30
0.0
 10
-84.0080455684358
 20
-67.73158675559014
 30
0.0
 10
-84.040326594311
 20
-67.92824917562743
 30
0.0
 10
-84.07398128086025
 20
-68.12153467984636
 30
0.0
 10
-84.10855174119349
 20
-68.3124162778769
 30
0.0
 10
-84.17494534050993
 20
-68.67700871549691
 30
0.0
 10
-84.24603228046706
 20
-69.0297533297948
 30
0.0
 10
-84.32078231555882
 20
-69.37351191384101
 30
0.0
 10
-84.35672643656806
 20
-69.53892355351425
 30
0.0
 10
-84.39106795345528
 20
-69.70805552418638
 30
0.0
 10
-84.42884362203184
 20
-69.86871658735471
 30
0.0
 10
-84.53003662512623
 20
-70.29855790706664
 30
0.0
 10
-84.63752557298585
 20
-70.71180082695089
 30
0.0
 10
-84.75142493732823
 20
-71.10827363941417
 30
0.0
 10
-84.76687861992878
 20
-71.16201811334398
 30
0.0
 10
-84.78027181151412
 20
-71.22091381480581
 30
0.0
 10
-84.7959544375594
 20
-71.27402869425832
 30
0.0
 10
-84.92702456034637
 20
-71.71886580968013
 30
0.0
 10
-85.06748136441789
 20
-72.13869085362571
 30
0.0
 10
-85.21366175463482
 20
-72.54186026188131
 30
0.0
 10
-85.25830572658932
 20
-72.66497459992969
 30
0.0
 10
-85.30604043506253
 20
-72.77927461530175
 30
0.0
 10
-85.35205806769109
 20
-72.89855415061992
 30
0.0
 10
-85.45840229831943
 20
-73.17443100295424
 30
0.0
 10
-85.56715043513106
 20
-73.44309613674065
 30
0.0
 10
-85.68024849741405
 20
-73.69894043754581
 30
0.0
 10
-85.73748435889323
 20
-73.82835072035909
 30
0.0
 10
-85.79586493760109
 20
-73.95409790802744
 30
0.0
 10
-85.8548178749249
 20
-74.07847143502142
 30
0.0
 10
-85.96665674825523
 20
-74.31474107120738
 30
0.0
 10
-86.08158635810683
 20
-74.5412233750791
 30
0.0
 10
-86.19914881758516
 20
-74.75963542248409
 30
0.0
 10
-86.25775833973902
 20
-74.86861250274012
 30
0.0
 10
-86.31568103155617
 20
-74.97987901745611
 30
0.0
 10
-86.37566421438728
 20
-75.08444893638007
 30
0.0
 10
-86.52024200048288
 20
-75.33651567033015
 30
0.0
 10
-86.66905524033039
 20
-75.57444514649782
 30
0.0
 10
-86.82084474497134
 20
-75.80155704484747
 30
0.0
 10
-86.85541520530586
 20
-75.85335549948985
 30
0.0
 10
-86.88838306151776
 20
-75.91099201199613
 30
0.0
 10
-86.92341140874235
 20
-75.96153127768264
 30
0.0
 10
-87.11125950611776
 20
-76.23282926109961
 30
0.0
 10
-87.30471671791654
 20
-76.48398022126571
 30
0.0
 10
-87.50218044002252
 20
-76.71927684781309
 30
0.0
 10
-87.55827158427043
 20
-76.786242805741
 30
0.0
 10
-87.61630874781152
 20
-76.84531021478749
 30
0.0
 10
-87.67320119412138
 20
-76.90941437964461
 30
0.0
 10
-87.81858028227828
 20
-77.07322341520068
 30
0.0
 10
-87.9654475028345
 20
-77.23062203426149
 30
0.0
 10
-88.11506204474202
 20
-77.37623006586471
 30
0.0
 10
-88.18763711709715
 20
-77.44680188307204
 30
0.0
 10
-88.26112796323691
 20
-77.51336718997347
 30
0.0
 10
-88.33461880937539
 20
-77.57976078928894
 30
0.0
 10
-88.47599138722896
 20
-77.7075112321112
 30
0.0
 10
-88.61896656920517
 20
-77.82742036190633
 30
0.0
 10
-88.76365882702408
 20
-77.9398315938571
 30
0.0
 10
-88.83669178627057
 20
-77.99678127602958
 30
0.0
 10
-88.90972474551835
 20
-78.05493291129208
 30
0.0
 10
-88.98367347855074
 20
-78.10799055488004
 30
0.0
 10
-89.15068772234691
 20
-78.227956920541
 30
0.0
 10
-89.31976245715578
 20
-78.33641887804017
 30
0.0
 10
-89.49009638091792
 20
-78.43715399424386
 30
0.0
 10
-89.54000605212842
 20
-78.4667449346371
 30
0.0
 10
-89.58922889300028
 20
-78.50142986668628
 30
0.0
 10
-89.63959645110149
 20
-78.52941820295338
 30
0.0
 10
-89.86029793296678
 20
-78.65224636168576
 30
0.0
 10
-90.08328884928944
 20
-78.75927742265338
 30
0.0
 10
-90.30811131318074
 20
-78.85159886721847
 30
0.0
 10
-90.36466034432063
 20
-78.8748938628372
 30
0.0
 10
-90.42212514924708
 20
-78.89166397025947
 30
0.0
 10
-90.4789031238336
 20
-78.9130701824444
 30
0.0
 10
-90.64935151931972
 20
-78.97717434730153
 30
0.0
 10
-90.8202578016959
 20
-79.03515427497969
 30
0.0
 10
-90.99219432958003
 20
-79.08266004000914
 30
0.0
 10
-91.07129429014381
 20
-79.10452413909634
 30
0.0
 10
-91.15062319415423
 20
-79.12249619959967
 30
0.0
 10
-91.22983762644134
 20
-79.14092614699305
 30
0.0
 10
-91.38460339588217
 20
-79.17692750387162
 30
0.0
 10
-91.53982705221435
 20
-79.20674738769644
 30
0.0
 10
-91.69527965199124
 20
-79.22998514745863
 30
0.0
 10
-91.77472302772434
 20
-79.24189020664659
 30
0.0
 10
-91.85393746001208
 20
-79.25408144514091
 30
0.0
 10
-91.93338083574518
 20
-79.26272406022069
 30
0.0
 10
-92.10440158984468
 20
-79.28126847934414
 30
0.0
 10
-92.27553681566751
 20
-79.29076963235234
 30
0.0
 10
-92.44644309804561
 20
-79.29466167092882
 30
0.0
 10
-92.5044802615848
 20
-79.29597809574859
 30
0.0
 10
-92.56251742512398
 20
-79.30112932327901
 30
0.0
 10
-92.62044011694177
 20
-79.30078590810746
 30
0.0
 10
-92.8892197224483
 20
-79.29924053984682
 30
0.0
 10
-93.15708355417148
 20
-79.27743367662451
 30
0.0
 10
-93.42368819694073
 20
-79.24177573492615
 30
0.0
 10
-93.48710553145986
 20
-79.23330482742301
 30
0.0
 10
-93.55017945080904
 20
-79.22220107029733
 30
0.0
 10
-93.61336784188345
 20
-79.21184137937129
 30
0.0
 10
-93.85261374286674
 20
-79.17269205011492
 30
0.0
 10
-94.090371511452
 20
-79.122210020292
 30
0.0
 10
-94.32583984557794
 20
-79.05741902510332
 30
0.0
 10
-94.3601813624639
 20
-79.04791787209511
 30
0.0
 10
-94.39520970969041
 20
-79.04139298388902
 30
0.0
 10
-94.429436754855
 20
-79.03137670812461
 30
0.0
 10
-94.69066122664619
 20
-78.95519577649358
 30
0.0
 10
-94.94810813157881
 20
-78.8605276616149
 30
0.0
 10
-95.202578771716
 20
-78.75475578960153
 30
0.0
 10
-95.26427903039049
 20
-78.72917135951354
 30
0.0
 10
-95.32529245872764
 20
-78.70164091014806
 30
0.0
 10
-95.38653483051076
 20
-78.67433940421381
 30
0.0
 10
-95.62017161706874
 20
-78.57005566460585
 30
0.0
 10
-95.85094661055208
 20
-78.45615630025962
 30
0.0
 10
-96.07657037650341
 20
-78.32869203674469
 30
0.0
 10
-96.10015155143331
 20
-78.31535608101622
 30
0.0
 10
-96.12441955670057
 20
-78.30419508803657
 30
0.0
 10
-96.14788625990845
 20
-78.29068742472215
 30
0.0
 10
-96.3917110298091
 20
-78.14988720548806
 30
0.0
 10
-96.62855302460908
 20
-77.99266029400261
 30
0.0
 10
-96.86070167877097
 20
-77.82673353157412
 30
0.0
 10
-96.91725070991214
 20
-77.78638224922739
 30
0.0
 10
-96.97288396726996
 20
-77.74488624965581
 30
0.0
 10
-97.02851722462717
 20
-77.70316130663438
 30
0.0
 10
-97.24807398926119
 20
-77.53866544074513
 30
0.0
 10
-97.46305188497785
 20
-77.36632826183003
 30
0.0
 10
-97.66955887319456
 20
-77.18111301408774
 30
0.0
 10
-97.68146393238188
 20
-77.1705243797109
 30
0.0
 10
-97.69405582190847
 20
-77.16108046256756
 30
0.0
 10
-97.70573193764914
 20
-77.15043459233484
 30
0.0
 10
-97.92093877681052
 20
-76.95543201226932
 30
0.0
 10
-98.12584316090655
 20
-76.74646388201728
 30
0.0
 10
-98.32468054368657
 20
-76.53102809940413
 30
0.0
 10
-98.37333102594376
 20
-76.47831387097842
 30
0.0
 10
-98.42129467786362
 20
-76.42491281221921
 30
0.0
 10
-98.46880044289147
 20
-76.37105386656897
 30
0.0
 10
-98.66454708914957
 20
-76.14966555437179
 30
0.0
 10
-98.85457014926164
 20
-75.92221024084995
 30
0.0
 10
-99.03097107434044
 20
-75.6827926322865
 30
0.0
 10
-99.46562020641316
 20
-75.09314878732503
 30
0.0
 10
-99.73577347259501
 20
-74.54288321506145
 30
0.0
 10
-99.88046573041522
 20
-74.02146451698278
 30
0.0
 10
-100.3452209256265
 20
-72.34760174802346
 30
0.0
 10
-99.47592266147978
 20
-70.97983636626034
 30
0.0
 10
-98.26939070149677
 20
-69.63519427251973
 30
0.0
 10
-96.00296505864225
 20
-67.10949017716304
 30
0.0
 10
-92.55873985826729
 20
-64.66219921204047
 30
0.0
 10
-94.58008154226853
 20
-60.40677014692191
 30
0.0
 10
-94.63468455411904
 20
-60.29172606534057
 30
0.0
 10
-94.69089017009155
 20
-60.16277366942988
 30
0.0
 10
-94.74606554055739
 20
-60.04343689824622
 30
0.0
 10
-95.48314896468781
 20
-58.44941815605224
 30
0.0
 10
-96.26029749185345
 20
-56.49195169346182
 30
0.0
 10
-96.94827254683339
 20
-54.27675214662441
 30
0.0
 10
-96.94827254683339
 20
-54.27675214662441
 30
0.0
 10
-97.77510180176225
 20
-51.29344733875008
 30
0.0
 10
-97.77510180176225
 20
-51.29344733875008
 30
0.0
 10
-98.27877738278004
 20
-49.22734721106461
 30
0.0
 10
-98.67370482698621
 20
-47.02056133587638
 30
0.0
 10
-98.87620530490025
 20
-44.75510870266687
 30
0.0
 10
-98.87620530490025
 20
-44.75510870266687
 30
0.0
 10
-98.97121683495596
 20
-39.59380765791411
 30
0.0
 10
-98.97121683495596
 20
-39.59380765791411
 30
0.0
 10
-98.90436534874815
 20
-38.44033334151971
 30
0.0
 10
-98.77363864113052
 20
-37.28760309133298
 30
0.0
 10
-98.56861978531052
 20
-36.14591936240419
 30
0.0
 10
-98.56861978531052
 20
-36.14591936240419
 30
0.0
 10
-102.7537059766739
 20
-32.36709331581901
 30
0.0
 10
-102.7537059766739
 20
-32.36709331581901
 30
0.0
 10
-104.1552977525776
 20
-30.89721915716692
 30
0.0
 10
-105.5477317906434
 20
-29.20624286562434
 30
0.0
 10
-106.8846470430774
 20
-27.26176894359116
 30
0.0
 10
-107.7758094063087
 20
-25.96543391695447
 30
0.0
 10
-108.6423603491041
 20
-24.55640147905036
 30
0.0
 10
-109.4704487929856
 20
-23.02505600517235
 30
0.0
 10
-109.4704487929856
 20
-23.02505600517235
 30
0.0
 10
-109.5866375917879
 20
-22.83199944440357
 30
0.0
 10
-109.773340971934
 20
-22.50026039127504
 30
0.0
 10
-109.9599298803561
 20
-22.1685785740011
 30
0.0
 10
-110.2170333701213
 20
-21.6982142643671
 30
0.0
 10
-110.4988627520445
 20
-21.1437132383561
 30
0.0
 10
-110.6868253211432
 20
-20.77408404491647
 30
0.0
 10
-110.885548232198
 20
-20.3669653622208
 30
0.0
 10
-111.0819817087961
 20
-19.93861217490495
 30
0.0
 10
-111.3063462857947
 20
-19.44913108753411
 30
0.0
 10
-111.5275056545494
 20
-18.93177613562654
 30
0.0
 10
-111.7250838483768
 20
-18.41081532444052
 30
0.0
 10
-111.9225475704795
 20
-17.88985451325418
 30
0.0
 10
-112.096430117653
 20
-17.36517337107698
 30
0.0
 10
-112.22669893838
 20
-16.8609254314474
 30
0.0
 10
-112.4871221081112
 20
-15.85242955217862
 30
0.0
 10
-112.5724035417149
 20
-14.92555201138631
 30
0.0
 10
-112.320794694653
 20
-14.27306319052294
 30
0.0
 10
-112.2578352470258
 20
-14.10994098530967
 30
0.0
 10
-112.1740419458188
 20
-13.96398953853456
 30
0.0
 10
-112.0664385262391
 20
-13.83818511500038
 30
0.0
 10
-111.9695954486154
 20
-13.7249725809976
 30
0.0
 10
-111.8674866717364
 20
-13.64249570460232
 30
0.0
 10
-111.763088460398
 20
-13.57392714255661
 30
0.0
 10
-111.7422546068194
 20
-13.5601905358023
 30
0.0
 10
-111.7214207532421
 20
-13.54553815526303
 30
0.0
 10
-111.7001290127715
 20
-13.5334613884901
 30
0.0
 10
-111.5977912924465
 20
-13.47530975322727
 30
0.0
 10
-111.4924773073242
 20
-13.4346150557093
 30
0.0
 10
-111.3841870574052
 20
-13.41389567385659
 30
0.0
 10
-111.3649558079486
 20
-13.41023257872193
 30
0.0
 10
-111.3452666716
 20
-13.40994639941556
 30
0.0
 10
-111.32592095042
 20
-13.40737078564955
 30
0.0
 10
-111.2394947995856
 20
-13.39592361335391
 30
0.0
 10
-111.1506647425705
 20
-13.39981565193039
 30
0.0
 10
-111.0611478552175
 20
-13.4094312766587
 30
0.0
 10
-111.0158170529256
 20
-13.41429632489334
 30
0.0
 10
-110.9704862506344
 20
-13.41836007105416
 30
0.0
 10
-110.9244686180046
 20
-13.42831911095339
 30
0.0
 10
-110.8418200340288
 20
-13.44617669973532
 30
0.0
 10
-110.7577977893771
 20
-13.4748518663356
 30
0.0
 10
-110.6732031861113
 20
-13.50804866598869
 30
0.0
 10
-110.6319933658461
 20
-13.52424641478859
 30
0.0
 10
-110.5912414324722
 20
-13.53586529466953
 30
0.0
 10
-110.5496881970384
 20
-13.55543995929803
 30
0.0
 10
-110.4332704547907
 20
-13.61027191459809
 30
0.0
 10
-110.3157079953123
 20
-13.6773523442461
 30
0.0
 10
-110.1971152903261
 20
-13.75656677653385
 30
0.0
 10
-110.1871562504275
 20
-13.7632061364703
 30
0.0
 10
-110.1775406257001
 20
-13.76726988263113
 30
0.0
 10
-110.1675815858035
 20
-13.77402371428801
 30
0.0
 10
-110.0391443126439
 20
-13.86182352579067
 30
0.0
 10
-109.9095623222543
 20
-13.96490531231822
 30
0.0
 10
-109.7799803318647
 20
-14.07674418564599
 30
0.0
 10
-109.7353363599121
 20
-14.11514944870432
 30
0.0
 10
-109.6906923879583
 20
-14.1589921185911
 30
0.0
 10
-109.6460484160044
 20
-14.19997299541448
 30
0.0
 10
-109.5596222651707
 20
-14.27935913528752
 30
0.0
 10
-109.4731961143363
 20
-14.36057682272757
 30
0.0
 10
-109.3867699635019
 20
-14.44837663423022
 30
0.0
 10
-109.335486631618
 20
-14.50051850404383
 30
0.0
 10
-109.2844322431782
 20
-14.55523598761254
 30
0.0
 10
-109.2333778547396
 20
-14.61001070704773
 30
0.0
 10
-109.1533621203899
 20
-14.69569279168503
 30
0.0
 10
-109.0736898012115
 20
-14.78343536733212
 30
0.0
 10
-108.9942464254784
 20
-14.87466933052728
 30
0.0
 10
-108.9425052067005
 20
-14.93419462646545
 30
0.0
 10
-108.89099293137
 20
-14.99423504516079
 30
0.0
 10
-108.8394806560382
 20
-15.0557635962519
 30
0.0
 10
-108.7593504499664
 20
-15.15174813595229
 30
0.0
 10
-108.679907074234
 20
-15.25019381769634
 30
0.0
 10
-108.6009215853935
 20
-15.35018486770102
 30
0.0
 10
-108.5537592355344
 20
-15.40999634294652
 30
0.0
 10
-108.5062534705065
 20
-15.46894928027258
 30
0.0
 10
-108.4594345358167
 20
-15.52990547274196
 30
0.0
 10
-108.3679716291729
 20
-15.64918500806846
 30
0.0
 10
-108.2781113266505
 20
-15.77069674199101
 30
0.0
 10
-108.1889378544655
 20
-15.89306701383107
 30
0.0
 10
-108.1575726023755
 20
-15.93616561752783
 30
0.0
 10
-108.1251771047764
 20
-15.97834844743226
 30
0.0
 10
-108.0941552678558
 20
-16.021733230437
 30
0.0
 10
-107.9752191477008
 20
-16.18777446458688
 30
0.0
 10
-107.8584579902838
 20
-16.35507488769167
 30
0.0
 10
-107.7451309845561
 20
-16.52186018803929
 30
0.0
 10
-107.7112473545589
 20
-16.57176985924978
 30
0.0
 10
-107.6791952721317
 20
-16.62087822840634
 30
0.0
 10
-107.6459984724731
 20
-16.67067342788581
 30
0.0
 10
-107.565868266402
 20
-16.79018190665414
 30
0.0
 10
-107.4861959472229
 20
-16.9093469702618
 30
0.0
 10
-107.4098433080092
 20
-17.02673772214712
 30
0.0
 10
-107.3662295815626
 20
-17.09364644421978
 30
0.0
 10
-107.3245618744067
 20
-17.15900979803149
 30
0.0
 10
-107.2822073369109
 20
-17.22483103873519
 30
0.0
 10
-107.2198202478984
 20
-17.32207476737958
 30
0.0
 10
-107.1578910457779
 20
-17.41874613742213
 30
0.0
 10
-107.0985946932854
 20
-17.51278465783315
 30
0.0
 10
-107.0546375516702
 20
-17.58255517297852
 30
0.0
 10
-107.0113672403917
 20
-17.65129544260857
 30
0.0
 10
-106.9692416463438
 20
-17.71889099502468
 30
0.0
 10
-106.9120057848633
 20
-17.81075455269649
 30
0.0
 10
-106.8556856971675
 20
-17.90124444969458
 30
0.0
 10
-106.8021129308224
 20
-17.98824295914299
 30
0.0
 10
-106.7660543380911
 20
-18.04662353784635
 30
0.0
 10
-106.7291944432992
 20
-18.10614883378548
 30
0.0
 10
-106.694967398134
 20
-18.16189656286823
 30
0.0
 10
-106.6249107036835
 20
-18.27619657824158
 30
0.0
 10
-106.5555408395704
 20
-18.38935187638977
 30
0.0
 10
-106.4932682222806
 20
-18.49088829465636
 30
0.0
 10
-106.4129090727642
 20
-18.62230183261264
 30
0.0
 10
-106.3373577356117
 20
-18.7455306423715
 30
0.0
 10
-106.2717654383566
 20
-18.85067291990725
 30
0.0
 10
-106.1413821459063
 20
-19.05998446534047
 30
0.0
 10
-105.9310975908316
 20
-19.33580408181058
 30
0.0
 10
-105.6628903439411
 20
-19.65815645366161
 30
0.0
 10
-105.2604077660183
 20
-20.14174224729372
 30
0.0
 10
-104.7275418956466
 20
-20.73012690329996
 30
0.0
 10
-104.1385848810244
 20
-21.35622999202237
 30
0.0
 10
-103.4638885459077
 20
-22.07362427980641
 30
0.0
 10
-102.7154724212047
 20
-22.84052758776292
 30
0.0
 10
-102.0054043236935
 20
-23.5559758562576
 30
0.0
 10
-100.4433231922015
 20
-25.12990481107776
 30
0.0
 10
-99.06657178017971
 20
-26.45451435328856
 30
0.0
 10
-99.06657178017971
 20
-26.45451435328856
 30
0.0
 10
-99.06657178017971
 20
-26.45451435328856
 30
0.0
 10
-95.04243283129715
 20
-27.3021202259382
 30
0.0
 10
-95.04243283129715
 20
-27.3021202259382
 30
0.0
 10
-94.89041438320892
 20
-27.07975890409186
 30
0.0
 10
-94.74194455853075
 20
-26.85636733673243
 30
0.0
 10
-94.58008154226853
 20
-26.637840817607
 30
0.0
 10
-91.98603782830506
 20
-23.13735276540109
 30
0.0
 10
-90.51782350964012
 20
-20.42574659196092
 30
0.0
 10
-89.71732275099057
 20
-18.3580438601586
 30
0.0
 10
-89.45048916477533
 20
-17.66880961622824
 30
0.0
 10
-89.25783325503592
 20
-17.05112019914475
 30
0.0
 10
-89.12241320677569
 20
-16.49959543792626
 30
0.0
 10
-89.61006274657888
 20
-16.37722516608523
 30
0.0
 10
-90.09656756915275
 20
-16.23779860751685
 30
0.0
 10
-90.58124084415863
 20
-16.08057169604198
 30
0.0
 10
-91.55081633761703
 20
-15.76617510892825
 30
0.0
 10
-92.51352352769876
 20
-15.38074881773382
 30
0.0
 10
-93.46638614960459
 20
-14.91925606662109
 30
0.0
 10
-93.94281746055845
 20
-14.68853830900133
 30
0.0
 10
-94.41661592188241
 20
-14.43870377364603
 30
0.0
 10
-94.88755259013428
 20
-14.16929457366157
 30
0.0
 10
-95.7892463518776
 20
-13.65331328242998
 30
0.0
 10
-96.68647571642686
 20
-13.12142042169491
 30
0.0
 10
-97.57363156935552
 20
-12.57052525496333
 30
0.0
 10
-97.57363156935552
 20
-12.57052525496333
 30
0.0
 10
-105.1312836625207
 20
-7.021680192133138
 30
0.0
 10
-105.1312836625207
 20
-7.021680192133138
 30
0.0
 10
-106.2945453112245
 20
-5.985195976607519
 30
0.0
 10
-107.3967935315919
 20
-4.886152964485408
 30
0.0
 10
-108.4191404893348
 20
-3.714821059308118
 30
0.0
 10
-108.4191404893348
 20
-3.714821059308118
 30
0.0
 10
-110.3514231728749
 20
-1.27268132170764
 30
0.0
 10
-110.3514231728749
 20
-1.27268132170764
 30
0.0
 10
-111.2587260490423
 20
-0.0004425927509884
 30
0.0
 10
-112.0733068296158
 20
1.350838860915807
 30
0.0
 10
-112.7760487368583
 20
2.791007607454222
 30
0.0
 10
-117.1467508269971
 20
11.75162513719373
 30
0.0
 10
-115.658103305783
 20
22.01865120521109
 30
0.0
 10
-109.6533746062737
 20
29.94089573599279
 30
0.0
 10
-108.9017532733286
 20
30.93262150784989
 30
0.0
 10
-108.0918658333977
 20
31.86562328582083
 30
0.0
 10
-107.2309240050257
 20
32.73961489061175
 30
0.0
 10
-106.369867704931
 20
33.61360649539304
 30
0.0
 10
-105.4577570163984
 20
34.42853069113747
 30
0.0
 10
-104.5016891862493
 20
35.18415853438332
 30
0.0
 10
-101.6337146392473
 20
37.45092759241164
 30
0.0
 10
-98.37012581770046
 20
39.18334264766221
 30
0.0
 10
-94.90437993340892
 20
40.37213149059238
 30
0.0
 10
-94.90437993340892
 20
40.37213149059238
 30
0.0
 10
-84.29971951853488
 20
42.2853546322506
 30
0.0
 10
-84.29971951853488
 20
42.2853546322506
 30
0.0
 10
-84.23080754131312
 20
42.28747235913361
 30
0.0
 10
-84.16235345098398
 20
42.29657286110506
 30
0.0
 10
-84.09344147376222
 20
42.29828993695259
 30
0.0
 10
-84.09344147376222
 20
42.29828993695259
 30
0.0
 10
-84.09344147376222
 20
42.32255794222018
 30
0.0
 10
-84.09344147376222
 20
42.32255794222018
 30
0.0
 10
-83.93833228915466
 20
42.32255794222018
 30
0.0
 10
-83.78459676522048
 20
42.31236995886917
 30
0.0
 10
-83.62983099578222
 20
42.31059564716704
 30
0.0
 10
-83.62983099578222
 20
42.31059564716704
 30
0.0
 10
-83.62971652405827
 20
42.31059564716704
 30
0.0
 10
-83.62971652405827
 20
42.31059564716704
 30
0.0
 10
-83.47529416978675
 20
42.31236995886917
 30
0.0
 10
-83.32098628723983
 20
42.32255794222018
 30
0.0
 10
-83.16736523502962
 20
42.32255794222018
 30
0.0
 10
-83.16736523502962
 20
42.32255794222018
 30
0.0
 10
-83.16736523502962
 20
42.29828993695259
 30
0.0
 10
-83.16736523502962
 20
42.29828993695259
 30
0.0
 10
-80.71606775959635
 20
42.2368186217164
 30
0.0
 10
-78.26866232274309
 20
41.92957651729567
 30
0.0
 10
-75.88249925767363
 20
41.37936818089759
 30
0.0
 10
-75.28598710933612
 20
41.2417731699052
 30
0.0
 10
-74.69325252785788
 20
41.08901065561924
 30
0.0
 10
-74.10532575874234
 20
40.92113787390139
 30
0.0
 10
-72.92924327706785
 20
40.58539231045733
 30
0.0
 10
-71.7721631014027
 20
40.18903396971416
 30
0.0
 10
-70.64118247857279
 20
39.73246350269999
 30
0.0
 10
-68.37899228946693
 20
38.81926533279778
 30
0.0
 10
-66.22097136825345
 20
37.66521865779
 30
0.0
 10
-64.22458451985683
 20
36.27295632730977
 30
0.0
 10
-62.90403872380877
 20
35.35208855196668
 30
0.0
 10
-61.66270736004717
 20
34.31697799711511
 30
0.0
 10
-60.50001806995735
 20
33.18857298805056
 30
0.0
 10
-59.9047651105738
 20
32.61089143814159
 30
0.0
 10
-59.32382111655826
 20
32.01615360151457
 30
0.0
 10
-58.77653180909391
 20
31.38438416250392
 30
0.0
 10
-58.37244662704982
 20
30.9179118914464
 30
0.0
 10
-57.98198358003961
 20
30.43673000399339
 30
0.0
 10
-57.60617291356675
 20
29.94089573599279
 30
0.0
 10
-56.85581076957433
 20
28.95060086068584
 30
0.0
 10
-56.17584873519976
 20
27.9236750340227
 30
0.0
 10
-55.56914860351895
 20
26.86727273869637
 30
0.0
 10
-55.56914860351895
 20
26.86727273869637
 30
0.0
 10
-53.34175781819364
 20
21.93829205569016
 30
0.0
 10
-53.34175781819364
 20
21.93829205569016
 30
0.0
 10
-52.96033803729611
 20
20.80937192387741
 30
0.0
 10
-52.65630114111772
 20
19.66167842949169
 30
0.0
 10
-52.43170762067371
 20
18.50230881936818
 30
0.0
 10
-52.20734304367569
 20
17.34293920924435
 30
0.0
 10
-52.06265078585612
 20
16.17183624751852
 30
0.0
 10
-52.00026369684302
 20
14.9962116527296
 30
0.0
 10
-51.93787660783118
 20
13.82058705795095
 30
0.0
 10
-51.95790915934846
 20
12.64044083010954
 30
0.0
 10
-52.0628797293002
 20
11.46287021603286
 30
0.0
  0
SPLINE
  5
7E
330
79
100
AcDbEntity
  8
Layer 1
100
AcDbSpline
210
0.0
220
0.0
230
1.0
 70
     9
 71
     3
 72
    86
 73
    82
 74
     0
 42
0.0000000001
 43
0.0000000001
 40
0.0
 40
0.0
 40
0.0
 40
0.0
 40
1.0
 40
1.0
 40
1.0
 40
2.0
 40
2.0
 40
2.0
 40
3.0
 40
3.0
 40
3.0
 40
4.0
 40
4.0
 40
4.0
 40
5.0
 40
5.0
 40
5.0
 40
6.0
 40
6.0
 40
6.0
 40
7.0
 40
7.0
 40
7.0
 40
8.0
 40
8.0
 40
8.0
 40
9.0
 40
9.0
 40
9.0
 40
10.0
 40
10.0
 40
10.0
 40
11.0
 40
11.0
 40
11.0
 40
12.0
 40
12.0
 40
12.0
 40
13.0
 40
13.0
 40
13.0
 40
14.0
 40
14.0
 40
14.0
 40
15.0
 40
15.0
 40
15.0
 40
16.0
 40
16.0
 40
16.0
 40
17.0
 40
17.0
 40
17.0
 40
18.0
 40
18.0
 40
18.0
 40
19.0
 40
19.0
 40
19.0
 40
20.0
 40
20.0
 40
20.0
 40
21.0
 40
21.0
 40
21.0
 40
22.0
 40
22.0
 40
22.0
 40
23.0
 40
23.0
 40
23.0
 40
24.0
 40
24.0
 40
24.0
 40
25.0
 40
25.0
 40
25.0
 40
26.0
 40
26.0
 40
26.0
 40
27.0
 40
27.0
 40
27.0
 40
27.0
 10
-54.61651492505849
 20
32.20634836920102
 30
0.0
 10
-55.9352291735405
 20
33.94591790714426
 30
0.0
 10
-57.44785852071395
 20
35.53793339418529
 30
0.0
 10
-59.10506565398491
 20
36.98617239720069
 30
0.0
 10
-59.10506565398491
 20
36.98617239720069
 30
0.0
 10
-51.90078776959262
 20
56.59929952201718
 30
0.0
 10
-51.90078776959262
 20
56.59929952201718
 30
0.0
 10
-51.90078776959262
 20
56.59929952201718
 30
0.0
 10
-51.90078776959262
 20
85.78558236612753
 30
0.0
 10
-51.90078776959262
 20
85.78558236612753
 30
0.0
 10
-51.90078776959262
 20
85.78558236612753
 30
0.0
 10
-96.50526697898278
 20
85.78558236612753
 30
0.0
 10
-96.50526697898278
 20
85.78558236612753
 30
0.0
 10
-96.50526697898278
 20
85.78558236612753
 30
0.0
 10
-174.6951773457822
 20
85.78558236612753
 30
0.0
 10
-174.6951773457822
 20
85.78558236612753
 30
0.0
 10
-174.6951773457822
 20
85.78558236612753
 30
0.0
 10
-175.6766006625666
 20
39.00631212810707
 30
0.0
 10
-175.6766006625666
 20
39.00631212810707
 30
0.0
 10
-175.6766006625666
 20
39.00631212810707
 30
0.0
 10
-113.6882738971142
 20
39.00631212810707
 30
0.0
 10
-113.6882738971142
 20
39.00631212810707
 30
0.0
 10
-113.6882738971142
 20
39.00631212810707
 30
0.0
 10
-124.8009598184787
 20
8.753095590159372
 30
0.0
 10
-124.8009598184787
 20
8.753095590159372
 30
0.0
 10
-124.8009598184787
 20
8.753095590159372
 30
0.0
 10
-142.8922998582848
 20
-40.49899280720548
 30
0.0
 10
-142.8922998582848
 20
-40.49899280720548
 30
0.0
 10
-142.8922998582848
 20
-40.49899280720548
 30
0.0
 10
-158.632562416108
 20
-83.35056652293836
 30
0.0
 10
-158.632562416108
 20
-83.35056652293836
 30
0.0
 10
-158.632562416108
 20
-83.35056652293836
 30
0.0
 10
-157.6380320870443
 20
-83.7159030267561
 30
0.0
 10
-157.6380320870443
 20
-83.7159030267561
 30
0.0
 10
-157.6380320870443
 20
-83.7159030267561
 30
0.0
 10
-103.4414520882078
 20
-83.7159030267561
 30
0.0
 10
-103.4414520882078
 20
-83.7159030267561
 30
0.0
 10
-103.4414520882078
 20
-83.7159030267561
 30
0.0
 10
-101.5373294485162
 20
-78.53216552430374
 30
0.0
 10
-101.5373294485162
 20
-78.53216552430374
 30
0.0
 10
-99.18161586175399
 20
-81.36780180956664
 30
0.0
 10
-95.89593399767592
 20
-83.05431370392192
 30
0.0
 10
-92.58586965660855
 20
-83.05431370392192
 30
0.0
 10
-90.46860066876762
 20
-83.05431370392192
 30
0.0
 10
-86.54794415743944
 20
-82.35014090013661
 30
0.0
 10
-83.57717400321977
 20
-77.75536041230356
 30
0.0
 10
-80.60628937727935
 20
-82.3500836642817
 30
0.0
 10
-76.68574733767321
 20
-83.05431370392192
 30
0.0
 10
-74.56859282155689
 20
-83.05431370392192
 30
0.0
 10
-71.0168786733236
 20
-83.05431370392192
 30
0.0
 10
-67.47878666012294
 20
-81.13050192787659
 30
0.0
 10
-65.10395629562481
 20
-77.90812292659978
 30
0.0
 10
-60.99957266894787
 20
-72.34147751084354
 30
0.0
 10
-65.22472396334578
 20
-67.99012114188944
 30
0.0
 10
-67.25522338518366
 20
-65.8989517068844
 30
0.0
 10
-69.12660711210998
 20
-63.97159130742547
 30
0.0
 10
-69.5389342582048
 20
-63.29500618887983
 30
0.0
 10
-69.41461796707248
 20
-62.63364580948652
 30
0.0
 10
-68.54749466566113
 20
-64.22159755036672
 30
0.0
 10
-67.18322067144256
 20
-65.37289690402288
 30
0.0
 10
-65.00654085938774
 20
-65.37289690402288
 30
0.0
 10
-64.36801758872501
 20
-65.37289690402288
 30
0.0
 10
-63.72972326150764
 20
-65.24709248049865
 30
0.0
 10
-63.10951546651883
 20
-64.9990894927004
 30
0.0
 10
-59.02585122169781
 20
-63.36500564747473
 30
0.0
 10
-58.49996812642608
 20
-57.06997665854139
 30
0.0
 10
-58.78568954693118
 20
-52.03980297243949
 30
0.0
 10
-59.04164831946641
 20
-34.34230289547093
 30
0.0
 10
-68.12990182030903
 20
-24.97765741953744
 30
0.0
 10
-70.8739034913487
 20
-22.55097136454844
 30
0.0
 10
-71.88228489888903
 20
-21.06484222123062
 30
0.0
 10
-72.61696441683745
 20
-19.80508091007498
 30
0.0
 10
-73.1516618347765
 20
-18.75028121887512
 30
0.0
 10
-72.25134173370789
 20
-18.35913134152853
 30
0.0
 10
-71.36922263658988
 20
-17.916755368152
 30
0.0
 10
-70.50988341233983
 20
-17.42509931804258
 30
0.0
 10
-63.83354911423196
 20
-13.60477727189546
 30
0.0
 10
-55.59547709980018
 20
-8.041451536113227
 30
0.0
 10
-51.11356573080572
 20
1.146506835427383
 30
0.0
 10
-46.2743881144596
 20
11.06754212079412
 30
0.0
 10
-47.61668353787024
 20
22.9689954492087
 30
0.0
 10
-54.61651492505849
 20
32.20634836920102
 30
0.0
  0
HATCH
  5
7F
330
79
100
AcDbEntity
  8
Layer 1
 62
     7
440
 33554687
100
AcDbHatch
 10
0.0
 20
0.0
 30
0.0
210
0.0
220
0.0
230
1.0
  2
SOLID
 70
     1
 71
     1
 91
        2
 92
        1
 93
        1
 72
     4
 94
        3
 73
     0
 74
     0
 95
      776
 96
      772
 40
0.0
 40
0.0
 40
0.0
 40
0.0
 40
1.0
 40
1.0
 40
1.0
 40
2.0
 40
2.0
 40
2.0
 40
3.0
 40
3.0
 40
3.0
 40
4.0
 40
4.0
 40
4.0
 40
5.0
 40
5.0
 40
5.0
 40
6.0
 40
6.0
 40
6.0
 40
7.0
 40
7.0
 40
7.0
 40
8.0
 40
8.0
 40
8.0
 40
9.0
 40
9.0
 40
9.0
 40
10.0
 40
10.0
 40
10.0
 40
11.0
 40
11.0
 40
11.0
 40
12.0
 40
12.0
 40
12.0
 40
13.0
 40
13.0
 40
13.0
 40
14.0
 40
14.0
 40
14.0
 40
15.0
 40
15.0
 40
15.0
 40
16.0
 40
16.0
 40
16.0
 40
17.0
 40
17.0
 40
17.0
 40
18.0
 40
18.0
 40
18.0
 40
19.0
 40
19.0
 40
19.0
 40
20.0
 40
20.0
 40
20.0
 40
21.0
 40
21.0
 40
21.0
 40
22.0
 40
22.0
 40
22.0
 40
23.0
 40
23.0
 40
23.0
 40
24.0
 40
24.0
 40
24.0
 40
25.0
 40
25.0
 40
25.0
 40
26.0
 40
26.0
 40
26.0
 40
27.0
 40
27.0
 40
27.0
 40
28.0
 40
28.0
 40
28.0
 40
29.0
 40
29.0
 40
29.0
 40
30.0
 40
30.0
 40
30.0
 40
31.0
 40
31.0
 40
31.0
 40
32.0
 40
32.0
 40
32.0
 40
33.0
 40
33.0
 40
33.0
 40
34.0
 40
34.0
 40
34.0
 40
35.0
 40
35.0
 40
35.0
 40
36.0
 40
36.0
 40
36.0
 40
37.0
 40
37.0
 40
37.0
 40
38.0
 40
38.0
 40
38.0
 40
39.0
 40
39.0
 40
39.0
 40
40.0
 40
40.0
 40
40.0
 40
41.0
 40
41.0
 40
41.0
 40
42.0
 40
42.0
 40
42.0
 40
43.0
 40
43.0
 40
43.0
 40
44.0
 40
44.0
 40
44.0
 40
45.0
 40
45.0
 40
45.0
 40
46.0
 40
46.0
 40
46.0
 40
47.0
 40
47.0
 40
47.0
 40
48.0
 40
48.0
 40
48.0
 40
49.0
 40
49.0
 40
49.0
 40
50.0
 40
50.0
 40
50.0
 40
51.0
 40
51.0
 40
51.0
 40
52.0
 40
52.0
 40
52.0
 40
53.0
 40
53.0
 40
53.0
 40
54.0
 40
54.0
 40
54.0
 40
55.0
 40
55.0
 40
55.0
 40
56.0
 40
56.0
 40
56.0
 40
57.0
 40
57.0
 40
57.0
 40
58.0
 40
58.0
 40
58.0
 40
59.0
 40
59.0
 40
59.0
 40
60.0
 40
60.0
 40
60.0
 40
61.0
 40
61.0
 40
61.0
 40
62.0
 40
62.0
 40
62.0
 40
63.0
 40
63.0
 40
63.0
 40
64.0
 40
64.0
 40
64.0
 40
65.0
 40
65.0
 40
65.0
 40
66.0
 40
66.0
 40
66.0
 40
67.0
 40
67.0
 40
67.0
 40
68.0
 40
68.0
 40
68.0
 40
69.0
 40
69.0
 40
69.0
 40
70.0
 40
70.0
 40
70.0
 40
71.0
 40
71.0
 40
71.0
 40
72.0
 40
72.0
 40
72.0
 40
73.0
 40
73.0
 40
73.0
 40
74.0
 40
74.0
 40
74.0
 40
75.0
 40
75.0
 40
75.0
 40
76.0
 40
76.0
 40
76.0
 40
77.0
 40
77.0
 40
77.0
 40
78.0
 40
78.0
 40
78.0
 40
79.0
 40
79.0
 40
79.0
 40
80.0
 40
80.0
 40
80.0
 40
81.0
 40
81.0
 40
81.0
 40
82.0
 40
82.0
 40
82.0
 40
83.0
 40
83.0
 40
83.0
 40
84.0
 40
84.0
 40
84.0
 40
85.0
 40
85.0
 40
85.0
 40
86.0
 40
86.0
 40
86.0
 40
87.0
 40
87.0
 40
87.0
 40
88.0
 40
88.0
 40
88.0
 40
89.0
 40
89.0
 40
89.0
 40
90.0
 40
90.0
 40
90.0
 40
91.0
 40
91.0
 40
91.0
 40
92.0
 40
92.0
 40
92.0
 40
93.0
 40
93.0
 40
93.0
 40
94.0
 40
94.0
 40
94.0
 40
95.0
 40
95.0
 40
95.0
 40
96.0
 40
96.0
 40
96.0
 40
97.0
 40
97.0
 40
97.0
 40
98.0
 40
98.0
 40
98.0
 40
99.0
 40
99.0
 40
99.0
 40
100.0
 40
100.0
 40
100.0
 40
101.0
 40
101.0
 40
101.0
 40
102.0
 40
102.0
 40
102.0
 40
103.0
 40
103.0
 40
103.0
 40
104.0
 40
104.0
 40
104.0
 40
105.0
 40
105.0
 40
105.0
 40
106.0
 40
106.0
 40
106.0
 40
107.0
 40
107.0
 40
107.0
 40
108.0
 40
108.0
 40
108.0
 40
109.0
 40
109.0
 40
109.0
 40
110.0
 40
110.0
 40
110.0
 40
111.0
 40
111.0
 40
111.0
 40
112.0
 40
112.0
 40
112.0
 40
113.0
 40
113.0
 40
113.0
 40
114.0
 40
114.0
 40
114.0
 40
115.0
 40
115.0
 40
115.0
 40
116.0
 40
116.0
 40
116.0
 40
117.0
 40
117.0
 40
117.0
 40
118.0
 40
118.0
 40
118.0
 40
119.0
 40
119.0
 40
119.0
 40
120.0
 40
120.0
 40
120.0
 40
121.0
 40
121.0
 40
121.0
 40
122.0
 40
122.0
 40
122.0
 40
123.0
 40
123.0
 40
123.0
 40
124.0
 40
124.0
 40
124.0
 40
125.0
 40
125.0
 40
125.0
 40
126.0
 40
126.0
 40
126.0
 40
127.0
 40
127.0
 40
127.0
 40
128.0
 40
128.0
 40
128.0
 40
129.0
 40
129.0
 40
129.0
 40
130.0
 40
130.0
 40
130.0
 40
131.0
 40
131.0
 40
131.0
 40
132.0
 40
132.0
 40
132.0
 40
133.0
 40
133.0
 40
133.0
 40
134.0
 40
134.0
 40
134.0
 40
135.0
 40
135.0
 40
135.0
 40
136.0
 40
136.0
 40
136.0
 40
137.0
 40
137.0
 40
137.0
 40
138.0
 40
138.0
 40
138.0
 40
139.0
 40
139.0
 40
139.0
 40
140.0
 40
140.0
 40
140.0
 40
141.0
 40
141.0
 40
141.0
 40
142.0
 40
142.0
 40
142.0
 40
143.0
 40
143.0
 40
143.0
 40
144.0
 40
144.0
 40
144.0
 40
145.0
 40
145.0
 40
145.0
 40
146.0
 40
146.0
 40
146.0
 40
147.0
 40
147.0
 40
147.0
 40
148.0
 40
148.0
 40
148.0
 40
149.0
 40
149.0
 40
149.0
 40
150.0
 40
150.0
 40
150.0
 40
151.0
 40
151.0
 40
151.0
 40
152.0
 40
152.0
 40
152.0
 40
153.0
 40
153.0
 40
153.0
 40
154.0
 40
154.0
 40
154.0
 40
155.0
 40
155.0
 40
155.0
 40
156.0
 40
156.0
 40
156.0
 40
157.0
 40
157.0
 40
157.0
 40
158.0
 40
158.0
 40
158.0
 40
159.0
 40
159.0
 40
159.0
 40
160.0
 40
160.0
 40
160.0
 40
161.0
 40
161.0
 40
161.0
 40
162.0
 40
162.0
 40
162.0
 40
163.0
 40
163.0
 40
163.0
 40
164.0
 40
164.0
 40
164.0
 40
165.0
 40
165.0
 40
165.0
 40
166.0
 40
166.0
 40
166.0
 40
167.0
 40
167.0
 40
167.0
 40
168.0
 40
168.0
 40
168.0
 40
169.0
 40
169.0
 40
169.0
 40
170.0
 40
170.0
 40
170.0
 40
171.0
 40
171.0
 40
171.0
 40
172.0
 40
172.0
 40
172.0
 40
173.0
 40
173.0
 40
173.0
 40
174.0
 40
174.0
 40
174.0
 40
175.0
 40
175.0
 40
175.0
 40
176.0
 40
176.0
 40
176.0
 40
177.0
 40
177.0
 40
177.0
 40
178.0
 40
178.0
 40
178.0
 40
179.0
 40
179.0
 40
179.0
 40
180.0
 40
180.0
 40
180.0
 40
181.0
 40
181.0
 40
181.0
 40
182.0
 40
182.0
 40
182.0
 40
183.0
 40
183.0
 40
183.0
 40
184.0
 40
184.0
 40
184.0
 40
185.0
 40
185.0
 40
185.0
 40
186.0
 40
186.0
 40
186.0
 40
187.0
 40
187.0
 40
187.0
 40
188.0
 40
188.0
 40
188.0
 40
189.0
 40
189.0
 40
189.0
 40
190.0
 40
190.0
 40
190.0
 40
191.0
 40
191.0
 40
191.0
 40
192.0
 40
192.0
 40
192.0
 40
193.0
 40
193.0
 40
193.0
 40
194.0
 40
194.0
 40
194.0
 40
195.0
 40
195.0
 40
195.0
 40
196.0
 40
196.0
 40
196.0
 40
197.0
 40
197.0
 40
197.0
 40
198.0
 40
198.0
 40
198.0
 40
199.0
 40
199.0
 40
199.0
 40
200.0
 40
200.0
 40
200.0
 40
201.0
 40
201.0
 40
201.0
 40
202.0
 40
202.0
 40
202.0
 40
203.0
 40
203.0
 40
203.0
 40
204.0
 40
204.0
 40
204.0
 40
205.0
 40
205.0
 40
205.0
 40
206.0
 40
206.0
 40
206.0
 40
207.0
 40
207.0
 40
207.0
 40
208.0
 40
208.0
 40
208.0
 40
209.0
 40
209.0
 40
209.0
 40
210.0
 40
210.0
 40
210.0
 40
211.0
 40
211.0
 40
211.0
 40
212.0
 40
212.0
 40
212.0
 40
213.0
 40
213.0
 40
213.0
 40
214.0
 40
214.0
 40
214.0
 40
215.0
 40
215.0
 40
215.0
 40
216.0
 40
216.0
 40
216.0
 40
217.0
 40
217.0
 40
217.0
 40
218.0
 40
218.0
 40
218.0
 40
219.0
 40
219.0
 40
219.0
 40
220.0
 40
220.0
 40
220.0
 40
221.0
 40
221.0
 40
221.0
 40
222.0
 40
222.0
 40
222.0
 40
223.0
 40
223.0
 40
223.0
 40
224.0
 40
224.0
 40
224.0
 40
225.0
 40
225.0
 40
225.0
 40
226.0
 40
226.0
 40
226.0
 40
227.0
 40
227.0
 40
227.0
 40
228.0
 40
228.0
 40
228.0
 40
229.0
 40
229.0
 40
229.0
 40
230.0
 40
230.0
 40
230.0
 40
231.0
 40
231.0
 40
231.0
 40
232.0
 40
232.0
 40
232.0
 40
233.0
 40
233.0
 40
233.0
 40
234.0
 40
234.0
 40
234.0
 40
235.0
 40
235.0
 40
235.0
 40
236.0
 40
236.0
 40
236.0
 40
237.0
 40
237.0
 40
237.0
 40
238.0
 40
238.0
 40
238.0
 40
239.0
 40
239.0
 40
239.0
 40
240.0
 40
240.0
 40
240.0
 40
241.0
 40
241.0
 40
241.0
 40
242.0
 40
242.0
 40
242.0
 40
243.0
 40
243.0
 40
243.0
 40
244.0
 40
244.0
 40
244.0
 40
245.0
 40
245.0
 40
245.0
 40
246.0
 40
246.0
 40
246.0
 40
247.0
 40
247.0
 40
247.0
 40
248.0
 40
248.0
 40
248.0
 40
249.0
 40
249.0
 40
249.0
 40
250.0
 40
250.0
 40
250.0
 40
251.0
 40
251.0
 40
251.0
 40
252.0
 40
252.0
 40
252.0
 40
253.0
 40
253.0
 40
253.0
 40
254.0
 40
254.0
 40
254.0
 40
255.0
 40
255.0
 40
255.0
 40
256.0
 40
256.0
 40
256.0
 40
257.0
 40
257.0
 40
257.0
 40
257.0
 10
-52.0628797293002
 20
11.46287021603286
 10
-52.11530777841537
 20
10.87408490899949
 10
-52.18902756800113
 20
10.28598643229931
 10
-52.28449698494947
 20
9.699376087994243
 10
-52.47509240367492
 20
8.526212635260213
 10
-52.75199950151141
 20
7.359173419696474
 10
-53.1178511280876
 20
6.205355688139499
 10
-53.1178511280876
 20
6.205355688139499
 10
-54.48487244365686
 20
2.791007607454222
 10
-54.48487244365686
 20
2.791007607454222
 10
-55.18738540745339
 20
1.350838860915807
 10
-56.00173724457963
 20
-0.0004425927509884
 10
-56.90881117730288
 20
-1.27268132170764
 10
-56.90881117730288
 20
-1.27268132170764
 10
-58.8409793891197
 20
-3.714821059308118
 10
-58.8409793891197
 20
-3.714821059308118
 10
-59.1817617083667
 20
-4.105226870457302
 10
-59.53147282200561
 20
-4.48767689685892
 10
-59.88931142797258
 20
-4.862400081965385
 10
-61.32066585184752
 20
-6.36135005824392
 10
-62.88286145506214
 20
-7.737529111656228
 10
-64.5309108504939
 20
-9.014346709529917
 10
-64.94278010969864
 20
-9.333551109002831
 10
-65.36014401160668
 20
-9.646516799567054
 10
-65.78220125415345
 20
-9.953701668132225
 10
-65.78220125415345
 20
-9.953701668132225
 10
-73.76958019530535
 20
-14.90740824329768
 10
-73.76958019530535
 20
-14.90740824329768
 10
-74.70607336082917
 20
-15.36226163447492
 10
-75.65229662280495
 20
-15.74350970778682
 10
-76.60493030126477
 20
-16.05618921904403
 10
-77.08136161221928
 20
-16.21250035674613
 10
-77.55928105556797
 20
-16.35164073600751
 10
-78.0385741595971
 20
-16.47429718715394
 10
-77.97927780710462
 20
-16.71817919291592
 10
-77.90853428231553
 20
-16.97528268268593
 10
-77.82496992455643
 20
-17.24583659989428
 10
-77.65807015248293
 20
-17.78700167017711
 10
-77.44000152024629
 20
-18.38248357301212
 10
-77.15897344038378
 20
-19.03571646007289
 10
-77.01840216459022
 20
-19.36236152153684
 10
-76.86226273447598
 20
-19.70343002008795
 10
-76.68883807419383
 20
-20.05943707849337
 10
-76.34210322535094
 20
-20.77145119529522
 10
-75.92657087101217
 20
-21.54310507975631
 10
-75.43079383887963
 20
-22.37800459115508
 10
-75.18284808695042
 20
-22.79548296478739
 10
-74.91486978350522
 20
-23.22875843618284
 10
-74.62537079614278
 20
-23.67823165637755
 10
-74.33587180878098
 20
-24.1277621124381
 10
-74.0247376657799
 20
-24.59349031728828
 10
-73.69070917818692
 20
-25.07598862956137
 10
-73.60027651704985
 20
-25.15096760810204
 10
-73.49439017331349
 20
-25.24082791062122
 10
-73.3745382793765
 20
-25.34574124471675
 10
-73.22469479402363
 20
-25.47692583922221
 10
-73.05310168130818
 20
-25.63163437280684
 10
-72.86296414947472
 20
-25.81038196819829
 10
-72.29255155397308
 20
-26.34656751853567
 10
-71.55523918639604
 20
-27.09864673837756
 10
-70.73688083896647
 20
-28.07715102622661
 10
-70.73688083896647
 20
-28.07715102622661
 10
-69.37157659923996
 20
-29.8377261253283
 10
-69.37157659923996
 20
-29.8377261253283
 10
-69.37157659923996
 20
-29.8377261253283
 10
-67.47214730018967
 20
-32.80334505201658
 10
-67.47214730018967
 20
-32.80334505201658
 10
-67.47214730018967
 20
-32.80334505201658
 10
-65.65296267893446
 20
-36.49660348568426
 10
-65.65296267893446
 20
-36.49660348568426
 10
-63.93565789111034
 20
-40.56143713207962
 10
-62.61751600124298
 20
-45.75238635308151
 10
-62.53521083243526
 20
-52.17344870898958
 10
-62.53521083243526
 20
-52.17344870898958
 10
-62.0436692540527
 20
-60.5324028628602
 10
-64.50206397630864
 20
-61.51617284997005
 10
-64.64183395004153
 20
-61.57203505077356
 10
-64.77221724249114
 20
-61.59842078291452
 10
-64.89767825085408
 20
-61.61032584210215
 10
-64.91839763270808
 20
-61.61227186138991
 10
-64.93957490145662
 20
-61.61610666411083
 10
-64.9599508681426
 20
-61.61690796617342
 10
-65.04763620792899
 20
-61.62045658958764
 10
-65.12822430089207
 20
-61.60299965183316
 10
-65.20927028074585
 20
-61.58651572372657
 10
-65.25208270513239
 20
-61.57775863691705
 10
-65.29810033776351
 20
-61.57798758036754
 10
-65.33908121458144
 20
-61.56390755844198
 10
-65.43157436673182
 20
-61.53219889118402
 10
-65.5171992155049
 20
-61.48103003101958
 10
-65.60076357326464
 20
-61.42413758471134
 10
-65.62148295511993
 20
-61.41005756278545
 10
-65.64494965832587
 20
-61.40353267457873
 10
-65.66509668156776
 20
-61.38796452025612
 10
-65.76663309983084
 20
-61.30960862588782
 10
-65.86130121471851
 20
-61.21265107654949
 10
-65.94990232828824
 20
-61.10052602390572
 10
-65.97771895696684
 20
-61.06538320495428
 10
-66.00141460362071
 20
-61.02045305369983
 10
-66.02797204334473
 20
-60.98233396995717
 10
-66.08646709377784
 20
-60.89842619702073
 10
-66.14496214420966
 20
-60.81446118823001
 10
-66.19784808021617
 20
-60.71721745958562
 10
-66.22898438886139
 20
-60.65992436224031
 10
-66.25622865892404
 20
-60.59433206498741
 10
-66.28553342000322
 20
-60.53291798561738
 10
-66.32846031611179
 20
-60.44271426792534
 10
-66.37184509911299
 20
-60.35365526746939
 10
-66.41099442836488
 20
-60.25532405744513
 10
-66.44007024599549
 20
-60.18229109819255
 10
-66.46616979883134
 20
-60.10336284521215
 10
-66.49318512544927
 20
-60.02638061152816
 10
-66.52729769889116
 20
-59.92896517528756
 10
-66.56186815922376
 20
-59.83212209766967
 10
-66.59300446786898
 20
-59.72915478286286
 10
-66.61864613381222
 20
-59.64478912304405
 10
-66.64176942184949
 20
-59.55681760394743
 10
-66.66535059677876
 20
-59.46924673588661
 10
-66.69328169718004
 20
-59.36513470385463
 10
-66.72121279758387
 20
-59.26090820010223
 10
-66.74662552007854
 20
-59.15301860121485
 10
-66.76837514744177
 20
-59.06075439250565
 10
-66.78852217068238
 20
-58.96665863623841
 10
-66.80844025047699
 20
-58.87210499307021
 10
-66.8313345950689
 20
-58.76307067695862
 10
-66.85388552449087
 20
-58.65357847394477
 10
-66.87460490634487
 20
-58.54231195922912
 10
-66.89246249512873
 20
-58.445583353331
 10
-66.90963325357268
 20
-58.34822515295655
 10
-66.92588823823263
 20
-58.25035182982461
 10
-66.94489054424325
 20
-58.13662417306465
 10
-66.96320601991654
 20
-58.02261033699767
 10
-66.98026230663716
 20
-57.90802414231763
 10
-66.99468574372978
 20
-57.81118106469107
 10
-67.00853682220838
 20
-57.71439522293803
 10
-67.02158659862568
 20
-57.61749490944532
 10
-67.03738369639364
 20
-57.50090545961297
 10
-67.05203607693291
 20
-57.38465942495218
 10
-67.06588715540958
 20
-57.26875680545301
 10
-67.07721985598351
 20
-57.17374527540211
 10
-67.08866702827883
 20
-57.07884821707294
 10
-67.09896948334609
 20
-56.98480969666031
 10
-67.11156137287075
 20
-56.86993732266555
 10
-67.12300854516671
 20
-56.75666755279694
 10
-67.13399783057004
 20
-56.6439701415507
 10
-67.14315556840796
 20
-56.55004609285978
 10
-67.15265672141327
 20
-56.45560692142066
 10
-67.16101315718926
 20
-56.36368612788334
 10
-67.17074325364056
 20
-56.25453734004106
 10
-67.17955757630853
 20
-56.14859376044208
 10
-67.18825742725254
 20
-56.04305083187792
 10
-67.19535467407713
 20
-55.95479313347589
 10
-67.20313875123716
 20
-55.86499006682061
 10
-67.20954916772185
 20
-55.77976586907371
 10
-67.21756218833043
 20
-55.67439464808683
 10
-67.22465943515375
 20
-55.57446083394669
 10
-67.23175668197706
 20
-55.47452701980688
 10
-67.23759473984772
 20
-55.39342380408694
 10
-67.24389068461102
 20
-55.30848578565636
 10
-67.24915638386701
 20
-55.23156078782825
 10
-67.25430761139967
 20
-55.15463579000015
 10
-67.25900095204035
 20
-55.08480803899088
 10
-67.26380876440498
 20
-55.01246191008141
 10
-67.27926244700556
 20
-54.77842447249856
 10
-67.29345694065155
 20
-54.56172950093019
 10
-67.30662118879216
 20
-54.38624434963825
 10
-67.32493666446607
 20
-54.13898542804735
 10
-67.38377513006722
 20
-53.7945972495232
 10
-67.472490715359
 20
-53.38141156551311
 10
-67.73875194296021
 20
-52.14191174931851
 10
-68.27482302157459
 20
-50.28329161949894
 10
-68.79818773894164
 20
-48.57016504956217
 10
-68.90602010196673
 20
-49.16123979105486
 10
-69.02461280695362
 20
-49.74453045539682
 10
-69.1521343063286
 20
-50.31831996671968
 10
-69.66210583210906
 20
-52.61359248376299
 10
-70.31608278537044
 20
-54.75759061891547
 10
-71.0062328030883
 20
-56.64356949051459
 10
-71.35136504780731
 20
-57.58658754425091
 10
-71.70531161519554
 20
-58.46510078209496
 10
-72.05490825711049
 20
-59.2657732483266
 10
-72.22970657806863
 20
-59.66613809937534
 10
-72.40336018179547
 20
-60.04698552166043
 10
-72.57426646417295
 20
-60.40677014692191
 10
-74.18350994552278
 20
-63.79427460856526
 10
-72.3280377880884
 20
-66.03591712339791
 10
-70.36095570077029
 20
-68.08353006782414
 10
-70.09858651174974
 20
-68.35648789121257
 10
-69.83438577516186
 20
-68.62612603464751
 10
-69.57602309644399
 20
-68.89444775326236
 10
-69.31766041772677
 20
-69.16282670773213
 10
-69.0653647403262
 20
-69.43000370912246
 10
-68.82703461312691
 20
-69.69821095601687
 10
-68.58847554248161
 20
-69.96647543876559
 10
-68.36411096548232
 20
-70.23571293116377
 10
-68.16138154412293
 20
-70.50832733939154
 10
-67.95865212276417
 20
-70.78094174761801
 10
-67.77790127221208
 20
-71.05693307166443
 10
-67.62691306963052
 20
-71.33841903842181
 10
-67.55136173247677
 20
-71.47916202180003
 10
-67.483365529039
 20
-71.62127866585358
 10
-67.42384023310179
 20
-71.76511238575532
 10
-67.3045606977782
 20
-72.05272258968268
 10
-67.21916479245177
 20
-72.34708662527623
 10
-67.17543659428189
 20
-72.65037945524598
 10
-67.10995876874942
 20
-73.10529008228744
 10
-67.13834775604269
 20
-73.58040496842571
 10
-67.2873899393349
 20
-74.08327924738028
 10
-67.32470772101945
 20
-74.20896919919339
 10
-67.36958063641996
 20
-74.33649069856386
 10
-67.42223762898047
 20
-74.46578650964773
 10
-67.58066649355467
 20
-74.85373117875164
 10
-67.81075465670067
 20
-75.25827424769095
 10
-68.12372034726905
 20
-75.6827926322865
 10
-68.1241782341617
 20
-75.68347946261903
 10
-68.12475059277637
 20
-75.68416629296216
 10
-68.12532295139168
 20
-75.68485312329501
 10
-68.30103704613314
 20
-75.92324048635501
 10
-68.49025880418389
 20
-76.14983726195774
 10
-68.6850896766593
 20
-76.37025256450542
 10
-68.73316780030053
 20
-76.42468386877834
 10
-68.78158933911237
 20
-76.47860005029411
 10
-68.83069770826093
 20
-76.53188663732293
 10
-69.02896273242498
 20
-76.74657835373739
 10
-69.23295134273833
 20
-76.9548596536569
 10
-69.44747135156106
 20
-77.14917540337994
 10
-69.46166584520899
 20
-77.16211070807166
 10
-69.47700505608624
 20
-77.17355788036731
 10
-69.49131402145555
 20
-77.18637871333893
 10
-69.69507368832032
 20
-77.36890387559572
 10
-69.90718979096299
 20
-77.53900885591605
 10
-70.12354134735499
 20
-77.70138699493192
 10
-70.18089168055618
 20
-77.74431389104403
 10
-70.23812754203664
 20
-77.787011843705
 10
-70.29616470557582
 20
-77.82850784327625
 10
-70.52693969906044
 20
-77.9932898884815
 10
-70.76240803318639
 20
-78.14960102617206
 10
-71.00463019896634
 20
-78.28959994335287
 10
-71.03095869524692
 20
-78.30482468250392
 10
-71.05831743703352
 20
-78.3174165720337
 10
-71.08464593331475
 20
-78.33229789601417
 10
-71.30763684963807
 20
-78.45798784782694
 10
-71.53543557832538
 20
-78.57045631563265
 10
-71.76609610008604
 20
-78.67348086629501
 10
-71.82825424565189
 20
-78.7012402591113
 10
-71.890412391219
 20
-78.72917135951354
 10
-71.95314289540014
 20
-78.75527091234812
 10
-72.2068122334767
 20
-78.86069936919025
 10
-72.46357230807195
 20
-78.95513854063802
 10
-72.72410994952583
 20
-79.03114776468214
 10
-72.7595961836424
 20
-79.04150745560946
 10
-72.79554030465097
 20
-79.04826128726634
 10
-72.83114101049216
 20
-79.05804861957097
 10
-73.06523568394212
 20
-79.12243896374377
 10
-73.30173426357409
 20
-79.17263481425935
 10
-73.53960650388266
 20
-79.21161243592049
 10
-73.60359619701519
 20
-79.22208659857753
 10
-73.66735694670301
 20
-79.23330482742301
 10
-73.73146111156142
 20
-79.24189020664659
 10
-73.99772233916262
 20
-79.27749091248937
 10
-74.26547169916119
 20
-79.29924053984682
 10
-74.53402236122236
 20
-79.30078590810746
 10
-74.59205952476283
 20
-79.30112932327901
 10
-74.64998221657871
 20
-79.29597809574859
 10
-74.70790490839714
 20
-79.29466167092882
 10
-74.87892566249664
 20
-79.29071239648748
 10
-75.05006088831946
 20
-79.28126847934414
 10
-75.22108164241896
 20
-79.26272406022069
 10
-75.30041054642811
 20
-79.25408144514091
 10
-75.37939603527114
 20
-79.24194744251241
 10
-75.45861046755759
 20
-79.23009961918066
 10
-75.61474989767184
 20
-79.20680462356163
 10
-75.77043144089794
 20
-79.17681303214125
 10
-75.92588404067483
 20
-79.14058273183112
 10
-76.00441164262523
 20
-79.12232449201308
 10
-76.08282477285037
 20
-79.10452413909634
 10
-76.16100895963146
 20
-79.08294621931521
 10
-76.33454809163628
 20
-79.03498256740338
 10
-76.50717144985839
 20
-78.97654475282422
 10
-76.67933692118788
 20
-78.91169652176969
 10
-76.73451229165308
 20
-78.89091990405148
 10
-76.79014554901219
 20
-78.87455044767495
 10
-76.84520644775471
 20
-78.85199951824592
 10
-77.07083021370539
 20
-78.75933465851954
 10
-77.29485137553537
 20
-78.65190294651419
 10
-77.51646863118207
 20
-78.52844519330421
 10
-77.56351650931858
 20
-78.50223116874983
 10
-77.60953414194841
 20
-78.4697211994296
 10
-77.65635307663763
 20
-78.44207627833405
 10
-77.8304645672584
 20
-78.3394523787078
 10
-78.00297345375657
 20
-78.2285292791531
 10
-78.17365079268803
 20
-78.10581559214181
 10
-78.24485220436848
 20
-78.05458949612084
 10
-78.31513784226493
 20
-77.9984983518675
 10
-78.38565242360674
 20
-77.94372363243231
 10
-78.53354988966898
 20
-77.82885125844686
 10
-78.6798447516105
 20
-77.70625204315662
 10
-78.82453700943007
 20
-77.57535362795689
 10
-78.89505159077252
 20
-77.51147840654095
 10
-78.96568064383766
 20
-77.447431477549
 10
-79.03539392311945
 20
-77.3797214534237
 10
-79.18993074911234
 20
-77.22970626047815
 10
-79.34149131030924
 20
-77.06755706491276
 10
-79.49133479566275
 20
-76.89813891493428
 10
-79.54364837305395
 20
-76.83889979830183
 10
-79.59722113940038
 20
-76.78446849403981
 10
-79.64907682989959
 20
-76.72282547121736
 10
-79.84848657129365
 20
-76.48541111780623
 10
-80.04388980238372
 20
-76.23174177972969
 10
-80.23345497560251
 20
-75.95763923910777
 10
-80.2629886801264
 20
-75.91488405058095
 10
-80.29080530880435
 20
-75.86611909659692
 10
-80.32011006988289
 20
-75.82244813429639
 10
-80.47785210411911
 20
-75.58755215878544
 10
-80.63204551494399
 20
-75.34017876546449
 10
-80.78200347202017
 20
-75.07849640678609
 10
-80.83878144660863
 20
-74.97936389469955
 10
-80.89349893018054
 20
-74.87387820199258
 10
-80.9491321875403
 20
-74.77085365132989
 10
-81.07024327042932
 20
-74.54626013088909
 10
-81.18860703196828
 20
-74.31290952364006
 10
-81.30376558526526
 20
-74.06937093303969
 10
-81.36008567295915
 20
-73.95014863358705
 10
-81.4160623454863
 20
-73.82989608861042
 10
-81.47089430078411
 20
-73.70603768437362
 10
-81.58719757131104
 20
-73.44332508018216
 10
-81.6991509163634
 20
-73.16739099199162
 10
-81.80812799661977
 20
-72.88361559077523
 10
-81.85162725134492
 20
-72.7708037077986
 10
-81.8967291101895
 20
-72.66291410891091
 10
-81.93885470423868
 20
-72.54666807425012
 10
-82.08606533996292
 20
-72.14092305222047
 10
-82.22755238954047
 20
-71.71817897933732
 10
-82.35942381438873
 20
-71.27025112740355
 10
-82.37247359080537
 20
-71.22612227820077
 10
-82.38369181965598
 20
-71.17707114490973
 10
-82.39651265262599
 20
-71.13254164468175
 10
-82.51338828176825
 20
-70.72714003782333
 10
-82.6233956075306
 20
-70.30336571943448
 10
-82.72687804508434
 20
-69.86293576534667
 10
-82.76350899643217
 20
-69.70742592970909
 10
-82.79670579608879
 20
-69.54373136588273
 10
-82.83150519986994
 20
-69.38375713304727
 10
-82.90751442391311
 20
-69.03490455732522
 10
-82.97963160937625
 20
-68.67672253619085
 10
-83.04694098247669
 20
-68.30646374828195
 10
-83.08105355591793
 20
-68.11918800952186
 10
-83.11402141213047
 20
-67.92956560043788
 10
-83.14573007938973
 20
-67.73668074725538
 10
-83.20914741390884
 20
-67.35142616363693
 10
-83.26672669055669
 20
-66.95209155810224
 10
-83.32064287207051
 20
-66.54422880919857
 10
-83.34456746216975
 20
-66.36319177933882
 10
-83.37043807155769
 20
-66.18701979770342
 10
-83.39253111408831
 20
-66.00151837065478
 10
-83.46350358232147
 20
-65.40346085405502
 10
-83.52714986028789
 20
-64.78811810729476
 10
-83.57728847494309
 20
-64.14238311807931
 10
-83.57728847494309
 20
-64.14249758980936
 10
-83.57740294666704
 20
-64.1425548256646
 10
-83.57740294666704
 20
-64.14266929739563
 10
-83.57740294666704
 20
-64.1425548256646
 10
-83.57740294666704
 20
-64.14249758980936
 10
-83.57740294666704
 20
-64.14238311807931
 10
-83.57763189011176
 20
-64.14696198699762
 10
-83.57831872044911
 20
-64.15114020488946
 10
-83.57854766389575
 20
-64.15571907380715
 10
-83.62845733510624
 20
-64.79527258997911
 10
-83.69130231101006
 20
-65.40517792990161
 10
-83.7615879489078
 20
-65.99791251137569
 10
-83.78413887832977
 20
-66.18770662804592
 10
-83.81058184633239
 20
-66.36817129928489
 10
-83.83519326676896
 20
-66.55321483945023
 10
-83.88853708966811
 20
-66.95609806839883
 10
-83.94531506425463
 20
-67.35073933330472
 10
-84.0080455684358
 20
-67.73158675559014
 10
-84.040326594311
 20
-67.92824917562743
 10
-84.07398128086025
 20
-68.12153467984636
 10
-84.10855174119349
 20
-68.3124162778769
 10
-84.17494534050993
 20
-68.67700871549691
 10
-84.24603228046706
 20
-69.0297533297948
 10
-84.32078231555882
 20
-69.37351191384101
 10
-84.35672643656806
 20
-69.53892355351425
 10
-84.39106795345528
 20
-69.70805552418638
 10
-84.42884362203184
 20
-69.86871658735471
 10
-84.53003662512623
 20
-70.29855790706664
 10
-84.63752557298585
 20
-70.71180082695089
 10
-84.75142493732823
 20
-71.10827363941417
 10
-84.76687861992878
 20
-71.16201811334398
 10
-84.78027181151412
 20
-71.22091381480581
 10
-84.7959544375594
 20
-71.27402869425832
 10
-84.92702456034637
 20
-71.71886580968013
 10
-85.06748136441789
 20
-72.13869085362571
 10
-85.21366175463482
 20
-72.54186026188131
 10
-85.25830572658932
 20
-72.66497459992969
 10
-85.30604043506253
 20
-72.77927461530175
 10
-85.35205806769109
 20
-72.89855415061992
 10
-85.45840229831943
 20
-73.17443100295424
 10
-85.56715043513106
 20
-73.44309613674065
 10
-85.68024849741405
 20
-73.69894043754581
 10
-85.73748435889323
 20
-73.82835072035909
 10
-85.79586493760109
 20
-73.95409790802744
 10
-85.8548178749249
 20
-74.07847143502142
 10
-85.96665674825523
 20
-74.31474107120738
 10
-86.08158635810683
 20
-74.5412233750791
 10
-86.19914881758516
 20
-74.75963542248409
 10
-86.25775833973902
 20
-74.86861250274012
 10
-86.31568103155617
 20
-74.97987901745611
 10
-86.37566421438728
 20
-75.08444893638007
 10
-86.52024200048288
 20
-75.33651567033015
 10
-86.66905524033039
 20
-75.57444514649782
 10
-86.82084474497134
 20
-75.80155704484747
 10
-86.85541520530586
 20
-75.85335549948985
 10
-86.88838306151776
 20
-75.91099201199613
 10
-86.92341140874235
 20
-75.96153127768264
 10
-87.11125950611776
 20
-76.23282926109961
 10
-87.30471671791654
 20
-76.48398022126571
 10
-87.50218044002252
 20
-76.71927684781309
 10
-87.55827158427043
 20
-76.786242805741
 10
-87.61630874781152
 20
-76.84531021478749
 10
-87.67320119412138
 20
-76.90941437964461
 10
-87.81858028227828
 20
-77.07322341520068
 10
-87.9654475028345
 20
-77.23062203426149
 10
-88.11506204474202
 20
-77.37623006586471
 10
-88.18763711709715
 20
-77.44680188307204
 10
-88.26112796323691
 20
-77.51336718997347
 10
-88.33461880937539
 20
-77.57976078928894
 10
-88.47599138722896
 20
-77.7075112321112
 10
-88.61896656920517
 20
-77.82742036190633
 10
-88.76365882702408
 20
-77.9398315938571
 10
-88.83669178627057
 20
-77.99678127602958
 10
-88.90972474551835
 20
-78.05493291129208
 10
-88.98367347855074
 20
-78.10799055488004
 10
-89.15068772234691
 20
-78.227956920541
 10
-89.31976245715578
 20
-78.33641887804017
 10
-89.49009638091792
 20
-78.43715399424386
 10
-89.54000605212842
 20
-78.4667449346371
 10
-89.58922889300028
 20
-78.50142986668628
 10
-89.63959645110149
 20
-78.52941820295338
 10
-89.86029793296678
 20
-78.65224636168576
 10
-90.08328884928944
 20
-78.75927742265338
 10
-90.30811131318074
 20
-78.85159886721847
 10
-90.36466034432063
 20
-78.8748938628372
 10
-90.42212514924708
 20
-78.89166397025947
 10
-90.4789031238336
 20
-78.9130701824444
 10
-90.64935151931972
 20
-78.97717434730153
 10
-90.8202578016959
 20
-79.03515427497969
 10
-90.99219432958003
 20
-79.08266004000914
 10
-91.07129429014381
 20
-79.10452413909634
 10
-91.15062319415423
 20
-79.12249619959967
 10
-91.22983762644134
 20
-79.14092614699305
 10
-91.38460339588217
 20
-79.17692750387162
 10
-91.53982705221435
 20
-79.20674738769644
 10
-91.69527965199124
 20
-79.22998514745863
 10
-91.77472302772434
 20
-79.24189020664659
 10
-91.85393746001208
 20
-79.25408144514091
 10
-91.93338083574518
 20
-79.26272406022069
 10
-92.10440158984468
 20
-79.28126847934414
 10
-92.27553681566751
 20
-79.29076963235234
 10
-92.44644309804561
 20
-79.29466167092882
 10
-92.5044802615848
 20
-79.29597809574859
 10
-92.56251742512398
 20
-79.30112932327901
 10
-92.62044011694177
 20
-79.30078590810746
 10
-92.8892197224483
 20
-79.29924053984682
 10
-93.15708355417148
 20
-79.27743367662451
 10
-93.42368819694073
 20
-79.24177573492615
 10
-93.48710553145986
 20
-79.23330482742301
 10
-93.55017945080904
 20
-79.22220107029733
 10
-93.61336784188345
 20
-79.21184137937129
 10
-93.85261374286674
 20
-79.17269205011492
 10
-94.090371511452
 20
-79.122210020292
 10
-94.32583984557794
 20
-79.05741902510332
 10
-94.3601813624639
 20
-79.04791787209511
 10
-94.39520970969041
 20
-79.04139298388902
 10
-94.429436754855
 20
-79.03137670812461
 10
-94.69066122664619
 20
-78.95519577649358
 10
-94.94810813157881
 20
-78.8605276616149
 10
-95.202578771716
 20
-78.75475578960153
 10
-95.26427903039049
 20
-78.72917135951354
 10
-95.32529245872764
 20
-78.70164091014806
 10
-95.38653483051076
 20
-78.67433940421381
 10
-95.62017161706874
 20
-78.57005566460585
 10
-95.85094661055208
 20
-78.45615630025962
 10
-96.07657037650341
 20
-78.32869203674469
 10
-96.10015155143331
 20
-78.31535608101622
 10
-96.12441955670057
 20
-78.30419508803657
 10
-96.14788625990845
 20
-78.29068742472215
 10
-96.3917110298091
 20
-78.14988720548806
 10
-96.62855302460908
 20
-77.99266029400261
 10
-96.86070167877097
 20
-77.82673353157412
 10
-96.91725070991214
 20
-77.78638224922739
 10
-96.97288396726996
 20
-77.74488624965581
 10
-97.02851722462717
 20
-77.70316130663438
 10
-97.24807398926119
 20
-77.53866544074513
 10
-97.46305188497785
 20
-77.36632826183003
 10
-97.66955887319456
 20
-77.18111301408774
 10
-97.68146393238188
 20
-77.1705243797109
 10
-97.69405582190847
 20
-77.16108046256756
 10
-97.70573193764914
 20
-77.15043459233484
 10
-97.92093877681052
 20
-76.95543201226932
 10
-98.12584316090655
 20
-76.74646388201728
 10
-98.32468054368657
 20
-76.53102809940413
 10
-98.37333102594376
 20
-76.47831387097842
 10
-98.42129467786362
 20
-76.42491281221921
 10
-98.46880044289147
 20
-76.37105386656897
 10
-98.66454708914957
 20
-76.14966555437179
 10
-98.85457014926164
 20
-75.92221024084995
 10
-99.03097107434044
 20
-75.6827926322865
 10
-99.46562020641316
 20
-75.09314878732503
 10
-99.73577347259501
 20
-74.54288321506145
 10
-99.88046573041522
 20
-74.02146451698278
 10
-100.3452209256265
 20
-72.34760174802346
 10
-99.47592266147978
 20
-70.97983636626034
 10
-98.26939070149677
 20
-69.63519427251973
 10
-96.00296505864225
 20
-67.10949017716304
 10
-92.55873985826729
 20
-64.66219921204047
 10
-94.58008154226853
 20
-60.40677014692191
 10
-94.63468455411904
 20
-60.29172606534057
 10
-94.69089017009155
 20
-60.16277366942988
 10
-94.74606554055739
 20
-60.04343689824622
 10
-95.48314896468781
 20
-58.44941815605224
 10
-96.26029749185345
 20
-56.49195169346182
 10
-96.94827254683339
 20
-54.27675214662441
 10
-96.94827254683339
 20
-54.27675214662441
 10
-97.77510180176225
 20
-51.29344733875008
 10
-97.77510180176225
 20
-51.29344733875008
 10
-98.27877738278004
 20
-49.22734721106461
 10
-98.67370482698621
 20
-47.02056133587638
 10
-98.87620530490025
 20
-44.75510870266687
 10
-98.87620530490025
 20
-44.75510870266687
 10
-98.97121683495596
 20
-39.59380765791411
 10
-98.97121683495596
 20
-39.59380765791411
 10
-98.90436534874815
 20
-38.44033334151971
 10
-98.77363864113052
 20
-37.28760309133298
 10
-98.56861978531052
 20
-36.14591936240419
 10
-98.56861978531052
 20
-36.14591936240419
 10
-102.7537059766739
 20
-32.36709331581901
 10
-102.7537059766739
 20
-32.36709331581901
 10
-104.1552977525776
 20
-30.89721915716692
 10
-105.5477317906434
 20
-29.20624286562434
 10
-106.8846470430774
 20
-27.26176894359116
 10
-107.7758094063087
 20
-25.96543391695447
 10
-108.6423603491041
 20
-24.55640147905036
 10
-109.4704487929856
 20
-23.02505600517235
 10
-109.4704487929856
 20
-23.02505600517235
 10
-109.5866375917879
 20
-22.83199944440357
 10
-109.773340971934
 20
-22.50026039127504
 10
-109.9599298803561
 20
-22.1685785740011
 10
-110.2170333701213
 20
-21.6982142643671
 10
-110.4988627520445
 20
-21.1437132383561
 10
-110.6868253211432
 20
-20.77408404491647
 10
-110.885548232198
 20
-20.3669653622208
 10
-111.0819817087961
 20
-19.93861217490495
 10
-111.3063462857947
 20
-19.44913108753411
 10
-111.5275056545494
 20
-18.93177613562654
 10
-111.7250838483768
 20
-18.41081532444052
 10
-111.9225475704795
 20
-17.88985451325418
 10
-112.096430117653
 20
-17.36517337107698
 10
-112.22669893838
 20
-16.8609254314474
 10
-112.4871221081112
 20
-15.85242955217862
 10
-112.5724035417149
 20
-14.92555201138631
 10
-112.320794694653
 20
-14.27306319052294
 10
-112.2578352470258
 20
-14.10994098530967
 10
-112.1740419458188
 20
-13.96398953853456
 10
-112.0664385262391
 20
-13.83818511500038
 10
-111.9695954486154
 20
-13.7249725809976
 10
-111.8674866717364
 20
-13.64249570460232
 10
-111.763088460398
 20
-13.57392714255661
 10
-111.7422546068194
 20
-13.5601905358023
 10
-111.7214207532421
 20
-13.54553815526303
 10
-111.7001290127715
 20
-13.5334613884901
 10
-111.5977912924465
 20
-13.47530975322727
 10
-111.4924773073242
 20
-13.4346150557093
 10
-111.3841870574052
 20
-13.41389567385659
 10
-111.3649558079486
 20
-13.41023257872193
 10
-111.3452666716
 20
-13.40994639941556
 10
-111.32592095042
 20
-13.40737078564955
 10
-111.2394947995856
 20
-13.39592361335391
 10
-111.1506647425705
 20
-13.39981565193039
 10
-111.0611478552175
 20
-13.4094312766587
 10
-111.0158170529256
 20
-13.41429632489334
 10
-110.9704862506344
 20
-13.41836007105416
 10
-110.9244686180046
 20
-13.42831911095339
 10
-110.8418200340288
 20
-13.44617669973532
 10
-110.7577977893771
 20
-13.4748518663356
 10
-110.6732031861113
 20
-13.50804866598869
 10
-110.6319933658461
 20
-13.52424641478859
 10
-110.5912414324722
 20
-13.53586529466953
 10
-110.5496881970384
 20
-13.55543995929803
 10
-110.4332704547907
 20
-13.61027191459809
 10
-110.3157079953123
 20
-13.6773523442461
 10
-110.1971152903261
 20
-13.75656677653385
 10
-110.1871562504275
 20
-13.7632061364703
 10
-110.1775406257001
 20
-13.76726988263113
 10
-110.1675815858035
 20
-13.77402371428801
 10
-110.0391443126439
 20
-13.86182352579067
 10
-109.9095623222543
 20
-13.96490531231822
 10
-109.7799803318647
 20
-14.07674418564599
 10
-109.7353363599121
 20
-14.11514944870432
 10
-109.6906923879583
 20
-14.1589921185911
 10
-109.6460484160044
 20
-14.19997299541448
 10
-109.5596222651707
 20
-14.27935913528752
 10
-109.4731961143363
 20
-14.36057682272757
 10
-109.3867699635019
 20
-14.44837663423022
 10
-109.335486631618
 20
-14.50051850404383
 10
-109.2844322431782
 20
-14.55523598761254
 10
-109.2333778547396
 20
-14.61001070704773
 10
-109.1533621203899
 20
-14.69569279168503
 10
-109.0736898012115
 20
-14.78343536733212
 10
-108.9942464254784
 20
-14.87466933052728
 10
-108.9425052067005
 20
-14.93419462646545
 10
-108.89099293137
 20
-14.99423504516079
 10
-108.8394806560382
 20
-15.0557635962519
 10
-108.7593504499664
 20
-15.15174813595229
 10
-108.679907074234
 20
-15.25019381769634
 10
-108.6009215853935
 20
-15.35018486770102
 10
-108.5537592355344
 20
-15.40999634294652
 10
-108.5062534705065
 20
-15.46894928027258
 10
-108.4594345358167
 20
-15.52990547274196
 10
-108.3679716291729
 20
-15.64918500806846
 10
-108.2781113266505
 20
-15.77069674199101
 10
-108.1889378544655
 20
-15.89306701383107
 10
-108.1575726023755
 20
-15.93616561752783
 10
-108.1251771047764
 20
-15.97834844743226
 10
-108.0941552678558
 20
-16.021733230437
 10
-107.9752191477008
 20
-16.18777446458688
 10
-107.8584579902838
 20
-16.35507488769167
 10
-107.7451309845561
 20
-16.52186018803929
 10
-107.7112473545589
 20
-16.57176985924978
 10
-107.6791952721317
 20
-16.62087822840634
 10
-107.6459984724731
 20
-16.67067342788581
 10
-107.565868266402
 20
-16.79018190665414
 10
-107.4861959472229
 20
-16.9093469702618
 10
-107.4098433080092
 20
-17.02673772214712
 10
-107.3662295815626
 20
-17.09364644421978
 10
-107.3245618744067
 20
-17.15900979803149
 10
-107.2822073369109
 20
-17.22483103873519
 10
-107.2198202478984
 20
-17.32207476737958
 10
-107.1578910457779
 20
-17.41874613742213
 10
-107.0985946932854
 20
-17.51278465783315
 10
-107.0546375516702
 20
-17.58255517297852
 10
-107.0113672403917
 20
-17.65129544260857
 10
-106.9692416463438
 20
-17.71889099502468
 10
-106.9120057848633
 20
-17.81075455269649
 10
-106.8556856971675
 20
-17.90124444969458
 10
-106.8021129308224
 20
-17.98824295914299
 10
-106.7660543380911
 20
-18.04662353784635
 10
-106.7291944432992
 20
-18.10614883378548
 10
-106.694967398134
 20
-18.16189656286823
 10
-106.6249107036835
 20
-18.27619657824158
 10
-106.5555408395704
 20
-18.38935187638977
 10
-106.4932682222806
 20
-18.49088829465636
 10
-106.4129090727642
 20
-18.62230183261264
 10
-106.3373577356117
 20
-18.7455306423715
 10
-106.2717654383566
 20
-18.85067291990725
 10
-106.1413821459063
 20
-19.05998446534047
 10
-105.9310975908316
 20
-19.33580408181058
 10
-105.6628903439411
 20
-19.65815645366161
 10
-105.2604077660183
 20
-20.14174224729372
 10
-104.7275418956466
 20
-20.73012690329996
 10
-104.1385848810244
 20
-21.35622999202237
 10
-103.4638885459077
 20
-22.07362427980641
 10
-102.7154724212047
 20
-22.84052758776292
 10
-102.0054043236935
 20
-23.5559758562576
 10
-100.4433231922015
 20
-25.12990481107776
 10
-99.06657178017971
 20
-26.45451435328856
 10
-99.06657178017971
 20
-26.45451435328856
 10
-99.06657178017971
 20
-26.45451435328856
 10
-95.04243283129715
 20
-27.3021202259382
 10
-95.04243283129715
 20
-27.3021202259382
 10
-94.89041438320892
 20
-27.07975890409186
 10
-94.74194455853075
 20
-26.85636733673243
 10
-94.58008154226853
 20
-26.637840817607
 10
-91.98603782830506
 20
-23.13735276540109
 10
-90.51782350964012
 20
-20.42574659196092
 10
-89.71732275099057
 20
-18.3580438601586
 10
-89.45048916477533
 20
-17.66880961622824
 10
-89.25783325503592
 20
-17.05112019914475
 10
-89.12241320677569
 20
-16.49959543792626
 10
-89.61006274657888
 20
-16.37722516608523
 10
-90.09656756915275
 20
-16.23779860751685
 10
-90.58124084415863
 20
-16.08057169604198
 10
-91.55081633761703
 20
-15.76617510892825
 10
-92.51352352769876
 20
-15.38074881773382
 10
-93.46638614960459
 20
-14.91925606662109
 10
-93.94281746055845
 20
-14.68853830900133
 10
-94.41661592188241
 20
-14.43870377364603
 10
-94.88755259013428
 20
-14.16929457366157
 10
-95.7892463518776
 20
-13.65331328242998
 10
-96.68647571642686
 20
-13.12142042169491
 10
-97.57363156935552
 20
-12.57052525496333
 10
-97.57363156935552
 20
-12.57052525496333
 10
-105.1312836625207
 20
-7.021680192133138
 10
-105.1312836625207
 20
-7.021680192133138
 10
-106.2945453112245
 20
-5.985195976607519
 10
-107.3967935315919
 20
-4.886152964485408
 10
-108.4191404893348
 20
-3.714821059308118
 10
-108.4191404893348
 20
-3.714821059308118
 10
-110.3514231728749
 20
-1.27268132170764
 10
-110.3514231728749
 20
-1.27268132170764
 10
-111.2587260490423
 20
-0.0004425927509884
 10
-112.0733068296158
 20
1.350838860915807
 10
-112.7760487368583
 20
2.791007607454222
 10
-117.1467508269971
 20
11.75162513719373
 10
-115.658103305783
 20
22.01865120521109
 10
-109.6533746062737
 20
29.94089573599279
 10
-108.9017532733286
 20
30.93262150784989
 10
-108.0918658333977
 20
31.86562328582083
 10
-107.2309240050257
 20
32.73961489061175
 10
-106.369867704931
 20
33.61360649539304
 10
-105.4577570163984
 20
34.42853069113747
 10
-104.5016891862493
 20
35.18415853438332
 10
-101.6337146392473
 20
37.45092759241164
 10
-98.37012581770046
 20
39.18334264766221
 10
-94.90437993340892
 20
40.37213149059238
 10
-94.90437993340892
 20
40.37213149059238
 10
-84.29971951853488
 20
42.2853546322506
 10
-84.29971951853488
 20
42.2853546322506
 10
-84.23080754131312
 20
42.28747235913361
 10
-84.16235345098398
 20
42.29657286110506
 10
-84.09344147376222
 20
42.29828993695259
 10
-84.09344147376222
 20
42.29828993695259
 10
-84.09344147376222
 20
42.32255794222018
 10
-84.09344147376222
 20
42.32255794222018
 10
-83.93833228915466
 20
42.32255794222018
 10
-83.78459676522048
 20
42.31236995886917
 10
-83.62983099578222
 20
42.31059564716704
 10
-83.62983099578222
 20
42.31059564716704
 10
-83.62971652405827
 20
42.31059564716704
 10
-83.62971652405827
 20
42.31059564716704
 10
-83.47529416978675
 20
42.31236995886917
 10
-83.32098628723983
 20
42.32255794222018
 10
-83.16736523502962
 20
42.32255794222018
 10
-83.16736523502962
 20
42.32255794222018
 10
-83.16736523502962
 20
42.29828993695259
 10
-83.16736523502962
 20
42.29828993695259
 10
-80.71606775959635
 20
42.2368186217164
 10
-78.26866232274309
 20
41.92957651729567
 10
-75.88249925767363
 20
41.37936818089759
 10
-75.28598710933612
 20
41.2417731699052
 10
-74.69325252785788
 20
41.08901065561924
 10
-74.10532575874234
 20
40.92113787390139
 10
-72.92924327706785
 20
40.58539231045733
 10
-71.7721631014027
 20
40.18903396971416
 10
-70.64118247857279
 20
39.73246350269999
 10
-68.37899228946693
 20
38.81926533279778
 10
-66.22097136825345
 20
37.66521865779
 10
-64.22458451985683
 20
36.27295632730977
 10
-62.90403872380877
 20
35.35208855196668
 10
-61.66270736004717
 20
34.31697799711511
 10
-60.50001806995735
 20
33.18857298805056
 10
-59.9047651105738
 20
32.61089143814159
 10
-59.32382111655826
 20
32.01615360151457
 10
-58.77653180909391
 20
31.38438416250392
 10
-58.37244662704982
 20
30.9179118914464
 10
-57.98198358003961
 20
30.43673000399339
 10
-57.60617291356675
 20
29.94089573599279
 10
-56.85581076957433
 20
28.95060086068584
 10
-56.17584873519976
 20
27.9236750340227
 10
-55.56914860351895
 20
26.86727273869637
 10
-55.56914860351895
 20
26.86727273869637
 10
-53.34175781819364
 20
21.93829205569016
 10
-53.34175781819364
 20
21.93829205569016
 10
-52.96033803729611
 20
20.80937192387741
 10
-52.65630114111772
 20
19.66167842949169
 10
-52.43170762067371
 20
18.50230881936818
 10
-52.20734304367569
 20
17.34293920924435
 10
-52.06265078585612
 20
16.17183624751852
 10
-52.00026369684302
 20
14.9962116527296
 10
-51.93787660783118
 20
13.82058705795095
 10
-51.95790915934846
 20
12.64044083010954
 10
-52.0628797293002
 20
11.46287021603286
 97
        0
 97
        1
330
7D
 92
        1
 93
        1
 72
     4
 94
        3
 73
     0
 74
     0
 95
       86
 96
       82
 40
0.0
 40
0.0
 40
0.0
 40
0.0
 40
1.0
 40
1.0
 40
1.0
 40
2.0
 40
2.0
 40
2.0
 40
3.0
 40
3.0
 40
3.0
 40
4.0
 40
4.0
 40
4.0
 40
5.0
 40
5.0
 40
5.0
 40
6.0
 40
6.0
 40
6.0
 40
7.0
 40
7.0
 40
7.0
 40
8.0
 40
8.0
 40
8.0
 40
9.0
 40
9.0
 40
9.0
 40
10.0
 40
10.0
 40
10.0
 40
11.0
 40
11.0
 40
11.0
 40
12.0
 40
12.0
 40
12.0
 40
13.0
 40
13.0
 40
13.0
 40
14.0
 40
14.0
 40
14.0
 40
15.0
 40
15.0
 40
15.0
 40
16.0
 40
16.0
 40
16.0
 40
17.0
 40
17.0
 40
17.0
 40
18.0
 40
18.0
 40
18.0
 40
19.0
 40
19.0
 40
19.0
 40
20.0
 40
20.0
 40
20.0
 40
21.0
 40
21.0
 40
21.0
 40
22.0
 40
22.0
 40
22.0
 40
23.0
 40
23.0
 40
23.0
 40
24.0
 40
24.0
 40
24.0
 40
25.0
 40
25.0
 40
25.0
 40
26.0
 40
26.0
 40
26.0
 40
27.0
 40
27.0
 40
27.0
 40
27.0
 10
-54.61651492505849
 20
32.20634836920102
 10
-55.9352291735405
 20
33.94591790714426
 10
-57.44785852071395
 20
35.53793339418529
 10
-59.10506565398491
 20
36.98617239720069
 10
-59.10506565398491
 20
36.98617239720069
 10
-51.90078776959262
 20
56.59929952201718
 10
-51.90078776959262
 20
56.59929952201718
 10
-51.90078776959262
 20
56.59929952201718
 10
-51.90078776959262
 20
85.78558236612753
 10
-51.90078776959262
 20
85.78558236612753
 10
-51.90078776959262
 20
85.78558236612753
 10
-96.50526697898278
 20
85.78558236612753
 10
-96.50526697898278
 20
85.78558236612753
 10
-96.50526697898278
 20
85.78558236612753
 10
-174.6951773457822
 20
85.78558236612753
 10
-174.6951773457822
 20
85.78558236612753
 10
-174.6951773457822
 20
85.78558236612753
 10
-175.6766006625666
 20
39.00631212810707
 10
-175.6766006625666
 20
39.00631212810707
 10
-175.6766006625666
 20
39.00631212810707
 10
-113.6882738971142
 20
39.00631212810707
 10
-113.6882738971142
 20
39.00631212810707
 10
-113.6882738971142
 20
39.00631212810707
 10
-124.8009598184787
 20
8.753095590159372
 10
-124.8009598184787
 20
8.753095590159372
 10
-124.8009598184787
 20
8.753095590159372
 10
-142.8922998582848
 20
-40.49899280720548
 10
-142.8922998582848
 20
-40.49899280720548
 10
-142.8922998582848
 20
-40.49899280720548
 10
-158.632562416108
 20
-83.35056652293836
 10
-158.632562416108
 20
-83.35056652293836
 10
-158.632562416108
 20
-83.35056652293836
 10
-157.6380320870443
 20
-83.7159030267561
 10
-157.6380320870443
 20
-83.7159030267561
 10
-157.6380320870443
 20
-83.7159030267561
 10
-103.4414520882078
 20
-83.7159030267561
 10
-103.4414520882078
 20
-83.7159030267561
 10
-103.4414520882078
 20
-83.7159030267561
 10
-101.5373294485162
 20
-78.53216552430374
 10
-101.5373294485162
 20
-78.53216552430374
 10
-99.18161586175399
 20
-81.36780180956664
 10
-95.89593399767592
 20
-83.05431370392192
 10
-92.58586965660855
 20
-83.05431370392192
 10
-90.46860066876762
 20
-83.05431370392192
 10
-86.54794415743944
 20
-82.35014090013661
 10
-83.57717400321977
 20
-77.75536041230356
 10
-80.60628937727935
 20
-82.3500836642817
 10
-76.68574733767321
 20
-83.05431370392192
 10
-74.56859282155689
 20
-83.05431370392192
 10
-71.0168786733236
 20
-83.05431370392192
 10
-67.47878666012294
 20
-81.13050192787659
 10
-65.10395629562481
 20
-77.90812292659978
 10
-60.99957266894787
 20
-72.34147751084354
 10
-65.22472396334578
 20
-67.99012114188944
 10
-67.25522338518366
 20
-65.8989517068844
 10
-69.12660711210998
 20
-63.97159130742547
 10
-69.5389342582048
 20
-63.29500618887983
 10
-69.41461796707248
 20
-62.63364580948652
 10
-68.54749466566113
 20
-64.22159755036672
 10
-67.18322067144256
 20
-65.37289690402288
 10
-65.00654085938774
 20
-65.37289690402288
 10
-64.36801758872501
 20
-65.37289690402288
 10
-63.72972326150764
 20
-65.24709248049865
 10
-63.10951546651883
 20
-64.9990894927004
 10
-59.02585122169781
 20
-63.36500564747473
 10
-58.49996812642608
 20
-57.06997665854139
 10
-58.78568954693118
 20
-52.03980297243949
 10
-59.04164831946641
 20
-34.34230289547093
 10
-68.12990182030903
 20
-24.97765741953744
 10
-70.8739034913487
 20
-22.55097136454844
 10
-71.88228489888903
 20
-21.06484222123062
 10
-72.61696441683745
 20
-19.80508091007498
 10
-73.1516618347765
 20
-18.75028121887512
 10
-72.25134173370789
 20
-18.35913134152853
 10
-71.36922263658988
 20
-17.916755368152
 10
-70.50988341233983
 20
-17.42509931804258
 10
-63.83354911423196
 20
-13.60477727189546
 10
-55.59547709980018
 20
-8.041451536113227
 10
-51.11356573080572
 20
1.146506835427383
 10
-46.2743881144596
 20
11.06754212079412
 10
-47.61668353787024
 20
22.9689954492087
 10
-54.61651492505849
 20
32.20634836920102
 97
        0
 97
        1
330
7E
 75
     2
 76
     1
 98
        1
 10
0.0
 20
0.0
450
        0
451
        0
460
0.0
461
0.0
452
        0
462
0.0
453
        0
470

  0
SPLINE
  5
80
330
79
100
AcDbEntity
  8
Layer 1
100
AcDbSpline
210
0.0
220
0.0
230
1.0
 70
     9
 71
     3
 72
    20
 73
    16
 74
     0
 42
0.0000000001
 43
0.0000000001
 40
0.0
 40
0.0
 40
0.0
 40
0.0
 40
1.0
 40
1.0
 40
1.0
 40
2.0
 40
2.0
 40
2.0
 40
3.0
 40
3.0
 40
3.0
 40
4.0
 40
4.0
 40
4.0
 40
5.0
 40
5.0
 40
5.0
 40
5.0
 10
-100.0810201890379
 20
21.06435768676443
 30
0.0
 10
-102.5664302379131
 20
21.9141957580082
 30
0.0
 10
-104.7001831538587
 20
21.71730439451946
 30
0.0
 10
-106.0884962098998
 20
20.51123032142877
 30
0.0
 10
-109.1444333259999
 20
17.85640212257544
 30
0.0
 10
-107.7442152107721
 20
11.40843891176956
 30
0.0
 10
-102.9016034427354
 20
5.831834456123712
 30
0.0
 10
-97.97107739146765
 20
0.1577000925168417
 30
0.0
 10
-91.32530704338968
 20
-2.483849386472873
 30
0.0
 10
-88.39391516186724
 20
0.0656648272584437
 30
0.0
 10
-85.45886018521207
 20
2.614721154098089
 30
0.0
 10
-87.14479972094434
 20
9.562696850787116
 30
0.0
 10
-92.07349422464545
 20
15.23728910128469
 30
0.0
 10
-94.53509415514471
 20
18.07115107484579
 30
0.0
 10
-97.37948752721809
 20
20.14079982593554
 30
0.0
 10
-100.0810201890379
 20
21.06435768676443
 30
0.0
  0
HATCH
  5
81
330
79
100
AcDbEntity
  8
Layer 1
 62
     7
440
 33554687
100
AcDbHatch
 10
0.0
 20
0.0
 30
0.0
210
0.0
220
0.0
230
1.0
  2
SOLID
 70
     1
 71
     1
 91
        1
 92
        1
 93
        1
 72
     4
 94
        3
 73
     0
 74
     0
 95
       20
 96
       16
 40
0.0
 40
0.0
 40
0.0
 40
0.0
 40
1.0
 40
1.0
 40
1.0
 40
2.0
 40
2.0
 40
2.0
 40
3.0
 40
3.0
 40
3.0
 40
4.0
 40
4.0
 40
4.0
 40
5.0
 40
5.0
 40
5.0
 40
5.0
 10
-100.0810201890379
 20
21.06435768676443
 10
-102.5664302379131
 20
21.9141957580082
 10
-104.7001831538587
 20
21.71730439451946
 10
-106.0884962098998
 20
20.51123032142877
 10
-109.1444333259999
 20
17.85640212257544
 10
-107.7442152107721
 20
11.40843891176956
 10
-102.9016034427354
 20
5.831834456123712
 10
-97.97107739146765
 20
0.1577000925168417
 10
-91.32530704338968
 20
-2.483849386472873
 10
-88.39391516186724
 20
0.0656648272584437
 10
-85.45886018521207
 20
2.614721154098089
 10
-87.14479972094434
 20
9.562696850787116
 10
-92.07349422464545
 20
15.23728910128469
 10
-94.53509415514471
 20
18.07115107484579
 10
-97.37948752721809
 20
20.14079982593554
 10
-100.0810201890379
 20
21.06435768676443
 97
        0
 97
        1
330
80
 75
     2
 76
     1
 98
        1
 10
0.0
 20
0.0
450
        0
451
        0
460
0.0
461
0.0
452
        0
462
0.0
453
        0
470

  0
SPLINE
  5
82
330
79
100
AcDbEntity
  8
Layer 1
100
AcDbSpline
210
0.0
220
0.0
230
1.0
 70
     9
 71
     3
 72
    29
 73
    25
 74
     0
 42
0.0000000001
 43
0.0000000001
 40
0.0
 40
0.0
 40
0.0
 40
0.0
 40
1.0
 40
1.0
 40
1.0
 40
2.0
 40
2.0
 40
2.0
 40
3.0
 40
3.0
 40
3.0
 40
4.0
 40
4.0
 40
4.0
 40
5.0
 40
5.0
 40
5.0
 40
6.0
 40
6.0
 40
6.0
 40
7.0
 40
7.0
 40
7.0
 40
8.0
 40
8.0
 40
8.0
 40
8.0
 10
-64.33287476977646
 20
21.58405930899618
 30
0.0
 10
-64.47527759313671
 20
21.58405930899618
 30
0.0
 10
-64.62340400264493
 20
21.57215424980791
 30
0.0
 10
-64.77038569492446
 20
21.56293927610704
 30
0.0
 10
-65.52269385820688
 20
21.51583416211305
 30
0.0
 10
-66.32857478783382
 20
21.35511586307921
 30
0.0
 10
-67.17909968941654
 20
21.06435768676443
 30
0.0
 10
-69.88063235123641
 20
20.14079982593554
 30
0.0
 10
-72.72502572330852
 20
18.07115107484579
 30
0.0
 10
-75.18662565380776
 20
15.23728910128469
 30
0.0
 10
-80.11532015750889
 20
9.562238963895122
 30
0.0
 10
-81.80034391945909
 20
2.614263267206097
 30
0.0
 10
-78.86620471658726
 20
0.0656648272584437
 30
0.0
 10
-77.47949426466748
 20
-1.138177047238118
 30
0.0
 10
-75.26458089714221
 20
-1.172861979287296
 30
0.0
 10
-72.79737185221894
 20
-0.289998815976696
 30
0.0
 10
-70.03757308341261
 20
0.6975487379888877
 30
0.0
 10
-66.96126000062718
 20
2.836223938025001
 30
0.0
 10
-64.35851643571905
 20
5.831834456123712
 30
0.0
 10
-59.515904667683
 20
11.40798102487821
 30
0.0
 10
-58.11568655245456
 20
17.85594423568377
 30
0.0
 10
-61.17162366855467
 20
20.51123032142877
 30
0.0
 10
-61.99215697872087
 20
21.22416021201461
 30
0.0
 10
-63.07277004344959
 20
21.58405930899618
 30
0.0
 10
-64.33287476977646
 20
21.58405930899618
 30
0.0
  0
HATCH
  5
83
330
79
100
AcDbEntity
  8
Layer 1
 62
     7
440
 33554687
100
AcDbHatch
 10
0.0
 20
0.0
 30
0.0
210
0.0
220
0.0
230
1.0
  2
SOLID
 70
     1
 71
     1
 91
        1
 92
        1
 93
        1
 72
     4
 94
        3
 73
     0
 74
     0
 95
       29
 96
       25
 40
0.0
 40
0.0
 40
0.0
 40
0.0
 40
1.0
 40
1.0
 40
1.0
 40
2.0
 40
2.0
 40
2.0
 40
3.0
 40
3.0
 40
3.0
 40
4.0
 40
4.0
 40
4.0
 40
5.0
 40
5.0
 40
5.0
 40
6.0
 40
6.0
 40
6.0
 40
7.0
 40
7.0
 40
7.0
 40
8.0
 40
8.0
 40
8.0
 40
8.0
 10
-64.33287476977646
 20
21.58405930899618
 10
-64.47527759313671
 20
21.58405930899618
 10
-64.62340400264493
 20
21.57215424980791
 10
-64.77038569492446
 20
21.56293927610704
 10
-65.52269385820688
 20
21.51583416211305
 10
-66.32857478783382
 20
21.35511586307921
 10
-67.17909968941654
 20
21.06435768676443
 10
-69.88063235123641
 20
20.14079982593554
 10
-72.72502572330852
 20
18.07115107484579
 10
-75.18662565380776
 20
15.23728910128469
 10
-80.11532015750889
 20
9.562238963895122
 10
-81.80034391945909
 20
2.614263267206097
 10
-78.86620471658726
 20
0.0656648272584437
 10
-77.47949426466748
 20
-1.138177047238118
 10
-75.26458089714221
 20
-1.172861979287296
 10
-72.79737185221894
 20
-0.289998815976696
 10
-70.03757308341261
 20
0.6975487379888877
 10
-66.96126000062718
 20
2.836223938025001
 10
-64.35851643571905
 20
5.831834456123712
 10
-59.515904667683
 20
11.40798102487821
 10
-58.11568655245456
 20
17.85594423568377
 10
-61.17162366855467
 20
20.51123032142877
 10
-61.99215697872087
 20
21.22416021201461
 10
-63.07277004344959
 20
21.58405930899618
 10
-64.33287476977646
 20
21.58405930899618
 97
        0
 97
        1
330
82
 75
     2
 76
     1
 98
        1
 10
0.0
 20
0.0
450
        0
451
        0
460
0.0
461
0.0
452
        0
462
0.0
453
        0
470

  0
ENDBLK
  5
7C
330
79
100
AcDbEntity
  8
0
100
AcDbBlockEnd
  0
ENDSEC
  0
SECTION
  2
ENTITIES
  0
INSERT
  5
7A
330
70
100
AcDbEntity
  8
Layer 1
100
AcDbBlockReference
  2
Block_0
 10
0.0
 20
0.0
 30
0.0
  0
ENDSEC
  0
SECTION
  2
OBJECTS
  0
DICTIONARY
  5
C
330
0
100
AcDbDictionary
281
     1
  3
ACAD_COLOR
350
63
  3
ACAD_DETAILVIEWSTYLE
350
6A
  3
ACAD_GROUP
350
D
  3
ACAD_LAYOUT
350
62
  3
ACAD_MATERIAL
350
10
  3
ACAD_MLEADERSTYLE
350
66
  3
ACAD_MLINESTYLE
350
5F
  3
ACAD_PLOTSETTINGS
350
61
  3
ACAD_PLOTSTYLENAME
350
E
  3
ACAD_SCALELIST
350
42
  3
ACAD_SECTIONVIEWSTYLE
350
68
  3
ACAD_TABLESTYLE
350
64
  3
ACAD_VISUALSTYLE
350
29
  3
ACDB_RECOMPOSE_DATA
350
8C
  3
AcDbVariableDictionary
350
84
  0
DICTIONARY
  5
63
102
{ACAD_REACTORS
330
C
102
}
330
C
100
AcDbDictionary
281
     1
  0
DICTIONARY
  5
6A
102
{ACAD_REACTORS
330
C
102
}
330
C
100
AcDbDictionary
281
     1
  3
Imperial24
350
6B
  0
DICTIONARY
  5
D
102
{ACAD_REACTORS
330
C
102
}
330
C
100
AcDbDictionary
281
     1
  0
DICTIONARY
  5
62
102
{ACAD_REACTORS
330
C
102
}
330
C
100
AcDbDictionary
281
     1
  3
Layout1
350
6F
  3
Layout2
350
77
  3
Model
350
73
  0
DICTIONARY
  5
10
102
{ACAD_REACTORS
330
C
102
}
330
C
100
AcDbDictionary
281
     1
  3
ByBlock
350
19
  3
ByLayer
350
11
  3
Global
350
21
  0
DICTIONARY
  5
66
102
{ACAD_REACTORS
330
C
102
}
330
C
100
AcDbDictionary
281
     1
  3
Standard
350
67
  0
DICTIONARY
  5
5F
102
{ACAD_REACTORS
330
C
102
}
330
C
100
AcDbDictionary
281
     1
  3
Standard
350
60
  0
DICTIONARY
  5
61
102
{ACAD_REACTORS
330
C
102
}
330
C
100
AcDbDictionary
281
     1
  0
ACDBDICTIONARYWDFLT
  5
E
102
{ACAD_REACTORS
330
C
102
}
330
C
100
AcDbDictionary
281
     1
  3
Normal
350
F
100
AcDbDictionaryWithDefault
340
F
  0
DICTIONARY
  5
42
102
{ACAD_REACTORS
330
C
102
}
330
C
100
AcDbDictionary
281
     1
  3
A0
350
43
  3
A1
350
44
  3
A2
350
45
  3
A3
350
46
  3
A4
350
47
  3
A5
350
48
  3
A6
350
49
  3
A7
350
4A
  3
A8
350
4B
  3
A9
350
4C
  3
B0
350
4D
  3
B1
350
4E
  3
B2
350
4F
  3
B3
350
50
  3
B4
350
51
  3
B5
350
52
  3
B6
350
53
  0
DICTIONARY
  5
68
102
{ACAD_REACTORS
330
C
102
}
330
C
100
AcDbDictionary
281
     1
  3
Imperial24
350
69
  0
DICTIONARY
  5
64
102
{ACAD_REACTORS
330
C
102
}
330
C
100
AcDbDictionary
281
     1
  3
Standard
350
65
  0
DICTIONARY
  5
29
102
{ACAD_REACTORS
330
C
102
}
330
C
100
AcDbDictionary
281
     1
  3
2dWireframe
350
2F
  3
Basic
350
2E
  3
Brighten
350
35
  3
ColorChange
350
39
  3
Conceptual
350
32
  3
Dim
350
34
  3
EdgeColorOff
350
41
  3
Facepattern
350
38
  3
Flat
350
2A
  3
FlatWithEdges
350
2B
  3
Gouraud
350
2C
  3
GouraudWithEdges
350
2D
  3
Hidden
350
31
  3
JitterOff
350
3F
  3
Linepattern
350
37
  3
OverhangOff
350
40
  3
Realistic
350
33
  3
Shaded
350
3E
  3
Shaded with edges
350
3D
  3
Shades of Gray
350
3A
  3
Sketchy
350
3B
  3
Thicken
350
36
  3
Wireframe
350
30
  3
X-Ray
350
3C
  0
XRECORD
  5
8C
102
{ACAD_REACTORS
330
C
102
}
330
C
100
AcDbXrecord
280
     1
 90
        1
330
65
  0
DICTIONARY
  5
84
102
{ACAD_REACTORS
330
C
102
}
330
C
100
AcDbDictionary
281
     1
  3
CANNOSCALE
350
89
  3
CMLEADERSTYLE
350
86
  3
CTABLESTYLE
350
85
  3
CVIEWDETAILSTYLE
350
87
  3
CVIEWSECTIONSTYLE
350
88
  0
ACDBDETAILVIEWSTYLE
  5
6B
102
{ACAD_XDICTIONARY
360
8F
102
}
102
{ACAD_REACTORS
330
6A
102
}
330
6A
100
AcDbModelDocViewStyle
 70
     0
  3
Imperial24
290
     0
100
AcDbDetailViewStyle
 70
     0
 71
     0
 90
        3
 71
     1
340
55
 62
   256
 40
0.24
340
0
 62
   256
 40
0.24
300

 40
0.36
280
     3
 71
     2
340
5D
 90
       25
 62
   256
 71
     3
340
55
 62
   256
 40
0.24
 90
        1
 40
0.75
 90
        1
300
%<\AcVar ViewType \f "%tc1">% %<\AcVar ViewDetailId>%\PSCALE %<\AcVar ViewScale \f "%sn">%
 71
     4
340
5D
 90
       25
 62
   256
340
5D
 90
       25
 62
   256
280
     0
  0
LAYOUT
  5
6F
102
{ACAD_REACTORS
330
62
102
}
330
62
100
AcDbPlotSettings
  1

  2

  4

  6

 40
0.0
 41
0.0
 42
0.0
 43
0.0
 44
0.0
 45
0.0
 46
0.0
 47
0.0
 48
0.0
 49
0.0
140
0.0
141
0.0
142
1.0
143
1.0
 70
   688
 72
     0
 73
     0
 74
     5
  7

 75
    16
147
1.0
 76
     0
 77
     2
 78
   300
148
0.0
149
0.0
100
AcDbLayout
  1
Layout1
 70
     1
 71
     1
 10
0.0
 20
0.0
 11
12.0
 21
9.0
 12
0.0
 22
0.0
 32
0.0
 14
0.0
 24
0.0
 34
0.0
 15
0.0
 25
0.0
 35
0.0
146
0.0
 13
0.0
 23
0.0
 33
0.0
 16
1.0
 26
0.0
 36
0.0
 17
0.0
 27
1.0
 37
0.0
 76
     0
330
6C
  0
LAYOUT
  5
77
102
{ACAD_REACTORS
330
62
102
}
330
62
100
AcDbPlotSettings
  1

  2

  4

  6

 40
0.0
 41
0.0
 42
0.0
 43
0.0
 44
0.0
 45
0.0
 46
0.0
 47
0.0
 48
0.0
 49
0.0
140
0.0
141
0.0
142
1.0
143
1.0
 70
   688
 72
     0
 73
     0
 74
     5
  7

 75
    16
147
1.0
 76
     0
 77
     2
 78
   300
148
0.0
149
0.0
100
AcDbLayout
  1
Layout2
 70
     1
 71
     2
 10
0.0
 20
0.0
 11
12.0
 21
9.0
 12
0.0
 22
0.0
 32
0.0
 14
0.0
 24
0.0
 34
0.0
 15
0.0
 25
0.0
 35
0.0
146
0.0
 13
0.0
 23
0.0
 33
0.0
 16
1.0
 26
0.0
 36
0.0
 17
0.0
 27
1.0
 37
0.0
 76
     0
330
74
  0
LAYOUT
  5
73
102
{ACAD_REACTORS
330
62
102
}
330
62
100
AcDbPlotSettings
  1

  2

  4

  6

 40
0.0
 41
0.0
 42
0.0
 43
0.0
 44
0.0
 45
0.0
 46
0.0
 47
0.0
 48
0.0
 49
0.0
140
0.0
141
0.0
142
1.0
143
1.0
 70
  1712
 72
     0
 73
     0
 74
     0
  7

 75
     0
147
1.0
 76
     0
 77
     2
 78
   300
148
0.0
149
0.0
100
AcDbLayout
  1
Model
 70
     1
 71
     0
 10
0.0
 20
0.0
 11
12.0
 21
9.0
 12
0.0
 22
0.0
 32
0.0
 14
0.0
 24
0.0
 34
0.0
 15
0.0
 25
0.0
 35
0.0
146
0.0
 13
0.0
 23
0.0
 33
0.0
 16
1.0
 26
0.0
 36
0.0
 17
0.0
 27
1.0
 37
0.0
 76
     0
330
70
  0
MATERIAL
  5
19
102
{ACAD_XDICTIONARY
360
1A
102
}
102
{ACAD_REACTORS
330
10
102
}
330
10
100
AcDbMaterial
  1
ByBlock
 72
     0
 43
0.0208333333333333
 43
0.0
 43
0.0
 43
0.0
 43
0.0
 43
0.0208333333333333
 43
0.0
 43
0.0
 43
0.0
 43
0.0
 43
1.0
 43
0.0
 43
0.0
 43
0.0
 43
0.0
 43
1.0
 77
     0
 47
0.0208333333333333
 47
0.0
 47
0.0
 47
0.0
 47
0.0
 47
0.0208333333333333
 47
0.0
 47
0.0
 47
0.0
 47
0.0
 47
1.0
 47
0.0
 47
0.0
 47
0.0
 47
0.0
 47
1.0
171
     0
 49
0.0208333333333333
 49
0.0
 49
0.0
 49
0.0
 49
0.0
 49
0.0208333333333333
 49
0.0
 49
0.0
 49
0.0
 49
0.0
 49
1.0
 49
0.0
 49
0.0
 49
0.0
 49
0.0
 49
1.0
175
     0
142
0.0208333333333333
142
0.0
142
0.0
142
0.0
142
0.0
142
0.0208333333333333
142
0.0
142
0.0
142
0.0
142
0.0
142
1.0
142
0.0
142
0.0
142
0.0
142
0.0
142
1.0
179
     0
144
0.0208333333333333
144
0.0
144
0.0
144
0.0
144
0.0
144
0.0208333333333333
144
0.0
144
0.0
144
0.0
144
0.0
144
1.0
144
0.0
144
0.0
144
0.0
144
0.0
144
1.0
147
0.0208333333333333
147
0.0
147
0.0
147
0.0
147
0.0
147
0.0208333333333333
147
0.0
147
0.0
147
0.0
147
0.0
147
1.0
147
0.0
147
0.0
147
0.0
147
0.0
147
1.0
  0
MATERIAL
  5
11
102
{ACAD_XDICTIONARY
360
12
102
}
102
{ACAD_REACTORS
330
10
102
}
330
10
100
AcDbMaterial
  1
ByLayer
 72
     0
 43
0.0208333333333333
 43
0.0
 43
0.0
 43
0.0
 43
0.0
 43
0.0208333333333333
 43
0.0
 43
0.0
 43
0.0
 43
0.0
 43
1.0
 43
0.0
 43
0.0
 43
0.0
 43
0.0
 43
1.0
 77
     0
 47
0.0208333333333333
 47
0.0
 47
0.0
 47
0.0
 47
0.0
 47
0.0208333333333333
 47
0.0
 47
0.0
 47
0.0
 47
0.0
 47
1.0
 47
0.0
 47
0.0
 47
0.0
 47
0.0
 47
1.0
171
     0
 49
0.0208333333333333
 49
0.0
 49
0.0
 49
0.0
 49
0.0
 49
0.0208333333333333
 49
0.0
 49
0.0
 49
0.0
 49
0.0
 49
1.0
 49
0.0
 49
0.0
 49
0.0
 49
0.0
 49
1.0
175
     0
142
0.0208333333333333
142
0.0
142
0.0
142
0.0
142
0.0
142
0.0208333333333333
142
0.0
142
0.0
142
0.0
142
0.0
142
1.0
142
0.0
142
0.0
142
0.0
142
0.0
142
1.0
179
     0
144
0.0208333333333333
144
0.0
144
0.0
144
0.0
144
0.0
144
0.0208333333333333
144
0.0
144
0.0
144
0.0
144
0.0
144
1.0
144
0.0
144
0.0
144
0.0
144
0.0
144
1.0
147
0.0208333333333333
147
0.0
147
0.0
147
0.0
147
0.0
147
0.0208333333333333
147
0.0
147
0.0
147
0.0
147
0.0
147
1.0
147
0.0
147
0.0
147
0.0
147
0.0
147
1.0
  0
MATERIAL
  5
21
102
{ACAD_XDICTIONARY
360
22
102
}
102
{ACAD_REACTORS
330
10
102
}
330
10
100
AcDbMaterial
  1
Global
 72
     0
 43
0.0208333333333333
 43
0.0
 43
0.0
 43
0.0
 43
0.0
 43
0.0208333333333333
 43
0.0
 43
0.0
 43
0.0
 43
0.0
 43
1.0
 43
0.0
 43
0.0
 43
0.0
 43
0.0
 43
1.0
 77
     0
 47
0.0208333333333333
 47
0.0
 47
0.0
 47
0.0
 47
0.0
 47
0.0208333333333333
 47
0.0
 47
0.0
 47
0.0
 47
0.0
 47
1.0
 47
0.0
 47
0.0
 47
0.0
 47
0.0
 47
1.0
171
     0
 49
0.0208333333333333
 49
0.0
 49
0.0
 49
0.0
 49
0.0
 49
0.0208333333333333
 49
0.0
 49
0.0
 49
0.0
 49
0.0
 49
1.0
 49
0.0
 49
0.0
 49
0.0
 49
0.0
 49
1.0
175
     0
142
0.0208333333333333
142
0.0
142
0.0
142
0.0
142
0.0
142
0.0208333333333333
142
0.0
142
0.0
142
0.0
142
0.0
142
1.0
142
0.0
142
0.0
142
0.0
142
0.0
142
1.0
179
     0
144
0.0208333333333333
144
0.0
144
0.0
144
0.0
144
0.0
144
0.0208333333333333
144
0.0
144
0.0
144
0.0
144
0.0
144
1.0
144
0.0
144
0.0
144
0.0
144
0.0
144
1.0
147
0.0208333333333333
147
0.0
147
0.0
147
0.0
147
0.0
147
0.0208333333333333
147
0.0
147
0.0
147
0.0
147
0.0
147
1.0
147
0.0
147
0.0
147
0.0
147
0.0
147
1.0
  0
MLEADERSTYLE
  5
67
102
{ACAD_REACTORS
330
66
102
}
330
66
100
AcDbMLeaderStyle
179
     2
170
     2
171
     1
172
     0
 90
        2
 40
0.0
 41
0.0
173
     1
 91
-1056964608
340
5B
 92
       -2
290
     1
 42
0.09
291
     1
 43
0.36
  3
Standard
 44
0.18
300

342
55
174
     1
178
     6
175
     1
176
     0
 93
-1056964608
 45
0.18
292
     0
297
     0
 46
0.18
 94
-1056964608
 47
1.0
 49
1.0
140
1.0
293
     1
141
0.0
294
     1
177
     0
142
1.0
295
     0
296
     0
143
0.125
271
     0
272
     9
273
     9
298
     1
  0
MLINESTYLE
  5
60
102
{ACAD_REACTORS
330
5F
102
}
330
5F
100
AcDbMlineStyle
  2
STANDARD
 70
     0
  3

 62
   256
 51
90.0
 52
90.0
 71
     2
 49
0.5
 62
   256
  6
BYLAYER
 49
-0.5
 62
   256
  6
BYLAYER
  0
ACDBPLACEHOLDER
  5
F
102
{ACAD_REACTORS
330
E
102
}
330
E
  0
SCALE
  5
43
102
{ACAD_REACTORS
330
42
102
}
330
42
100
AcDbScale
 70
     0
300
1:1
140
1.0
141
1.0
290
     1
  0
SCALE
  5
44
102
{ACAD_REACTORS
330
42
102
}
330
42
100
AcDbScale
 70
     0
300
1/128" = 1'-0"
140
0.0078125
141
12.0
290
     0
  0
SCALE
  5
45
102
{ACAD_REACTORS
330
42
102
}
330
42
100
AcDbScale
 70
     0
300
1/64" = 1'-0"
140
0.015625
141
12.0
290
     0
  0
SCALE
  5
46
102
{ACAD_REACTORS
330
42
102
}
330
42
100
AcDbScale
 70
     0
300
1/32" = 1'-0"
140
0.03125
141
12.0
290
     0
  0
SCALE
  5
47
102
{ACAD_REACTORS
330
42
102
}
330
42
100
AcDbScale
 70
     0
300
1/16" = 1'-0"
140
0.0625
141
12.0
290
     0
  0
SCALE
  5
48
102
{ACAD_REACTORS
330
42
102
}
330
42
100
AcDbScale
 70
     0
300
3/32" = 1'-0"
140
0.09375
141
12.0
290
     0
  0
SCALE
  5
49
102
{ACAD_REACTORS
330
42
102
}
330
42
100
AcDbScale
 70
     0
300
1/8" = 1'-0"
140
0.125
141
12.0
290
     0
  0
SCALE
  5
4A
102
{ACAD_REACTORS
330
42
102
}
330
42
100
AcDbScale
 70
     0
300
3/16" = 1'-0"
140
0.1875
141
12.0
290
     0
  0
SCALE
  5
4B
102
{ACAD_REACTORS
330
42
102
}
330
42
100
AcDbScale
 70
     0
300
1/4" = 1'-0"
140
0.25
141
12.0
290
     0
  0
SCALE
  5
4C
102
{ACAD_REACTORS
330
42
102
}
330
42
100
AcDbScale
 70
     0
300
3/8" = 1'-0"
140
0.375
141
12.0
290
     0
  0
SCALE
  5
4D
102
{ACAD_REACTORS
330
42
102
}
330
42
100
AcDbScale
 70
     0
300
1/2" = 1'-0"
140
0.5
141
12.0
290
     0
  0
SCALE
  5
4E
102
{ACAD_REACTORS
330
42
102
}
330
42
100
AcDbScale
 70
     0
300
3/4" = 1'-0"
140
0.75
141
12.0
290
     0
  0
SCALE
  5
4F
102
{ACAD_REACTORS
330
42
102
}
330
42
100
AcDbScale
 70
     0
300
1" = 1'-0"
140
1.0
141
12.0
290
     0
  0
SCALE
  5
50
102
{ACAD_REACTORS
330
42
102
}
330
42
100
AcDbScale
 70
     0
300
1-1/2" = 1'-0"
140
1.5
141
12.0
290
     0
  0
SCALE
  5
51
102
{ACAD_REACTORS
330
42
102
}
330
42
100
AcDbScale
 70
     0
300
3" = 1'-0"
140
3.0
141
12.0
290
     0
  0
SCALE
  5
52
102
{ACAD_REACTORS
330
42
102
}
330
42
100
AcDbScale
 70
     0
300
6" = 1'-0"
140
6.0
141
12.0
290
     0
  0
SCALE
  5
53
102
{ACAD_REACTORS
330
42
102
}
330
42
100
AcDbScale
 70
     0
300
1'-0" = 1'-0"
140
12.0
141
12.0
290
     0
  0
ACDBSECTIONVIEWSTYLE
  5
69
102
{ACAD_XDICTIONARY
360
8D
102
}
102
{ACAD_REACTORS
330
68
102
}
330
68
100
AcDbModelDocViewStyle
 70
     0
  3
Imperial24
290
     0
100
AcDbSectionViewStyle
 70
     0
 71
     0
 90
       78
 71
     1
340
55
 62
   256
 40
0.24
340
0
340
0
 62
   256
 40
0.24
300
I, O, Q, S, X, Z
 40
0.48
 90
        3
 40
0.18
 90
        1
 71
     2
340
5D
 90
       25
 62
   256
340
5D
 90
       50
 62
   256
 40
0.24
 40
0.0
 40
0.24
 71
     3
340
55
 62
   256
 40
0.24
 90
        1
 40
0.75
 90
        1
300
%<\AcVar ViewType \f "%tc1">% %<\AcVar ViewSectionStartId>%-%<\AcVar ViewSectionEndId>%\PSCALE %<\AcVar ViewScale \f "%sn">%
 71
     4
 62
   256
 62
   257
300
ANSI31
 40
1.0
 90
        0
290
     0
290
     0
 90
        6
 40
0.0
 40
1.570796326794896
 40
0.2617993877991494
 40
1.308996938995747
 40
-0.2617993877991494
 40
1.832595714594046
  0
TABLESTYLE
  5
65
102
{ACAD_XDICTIONARY
360
8A
102
}
102
{ACAD_REACTORS
330
64
102
}
330
64
100
AcDbTableStyle
280
     0
  3
Standard
 70
     0
 71
     0
 40
0.06
 41
0.06
280
     0
281
     0
  7
Standard
140
0.18
170
     2
 62
     0
 63
     7
283
     0
 90
      512
 91
        0
  1

274
    -2
284
     1
 64
     0
275
    -2
285
     1
 65
     0
276
    -2
286
     1
 66
     0
277
    -2
287
     1
 67
     0
278
    -2
288
     1
 68
     0
279
    -2
289
     1
 69
     0
  7
Standard
140
0.25
170
     5
 62
     0
 63
     7
283
     0
 90
      512
 91
        0
  1

274
    -2
284
     1
 64
     0
275
    -2
285
     1
 65
     0
276
    -2
286
     1
 66
     0
277
    -2
287
     1
 67
     0
278
    -2
288
     1
 68
     0
279
    -2
289
     1
 69
     0
  7
Standard
140
0.18
170
     5
 62
     0
 63
     7
283
     0
 90
      512
 91
        0
  1

274
    -2
284
     1
 64
     0
275
    -2
285
     1
 65
     0
276
    -2
286
     1
 66
     0
277
    -2
287
     1
 67
     0
278
    -2
288
     1
 68
     0
279
    -2
289
     1
 69
     0
  0
VISUALSTYLE
  5
2F
102
{ACAD_REACTORS
330
29
102
}
330
29
100
AcDbVisualStyle
  2
2dWireframe
 70
     4
177
     3
291
     0
 70
    58
 90
        0
176
     1
 90
        2
176
     1
 90
        0
176
     1
 90
        0
176
     1
 40
0.6
176
     1
 40
30.0
176
     1
 62
     7
420
 16777215
176
     1
 90
        1
176
     1
 90
        4
176
     1
 62
     7
176
     1
 62
   257
176
     1
 90
        1
176
     1
 90
        1
176
     1
 40
1.0
176
     1
 90
        0
176
     1
 62
   257
176
     1
 40
1.0
176
     1
 90
        1
176
     1
 90
        6
176
     1
 90
        2
176
     1
 62
     7
176
     1
 90
        5
176
     1
 90
        0
176
     1
 90
        0
176
     1
290
     0
176
     1
 90
        1
176
     1
 40
0.0
176
     1
 90
        0
176
     1
290
     1
176
     1
290
     1
176
     1
290
     0
176
     1
290
     0
176
     1
290
     0
176
     1
290
     0
176
     1
290
     0
176
     1
290
     0
176
     1
290
     0
176
     1
 90
       50
176
     1
 40
0.0
176
     1
 40
1.0
176
     1
 90
        0
176
     1
 62
    18
420
        0
176
     1
 90
       50
176
     1
 90
        3
176
     1
 62
     5
420
      255
176
     1
290
     0
176
     1
 90
       50
176
     1
 90
       50
176
     1
 90
       50
176
     1
290
     0
176
     1
 90
       50
176
     1
 62
   256
176
     0
 40
1.0
176
     0
 90
        2
176
     1
  1
strokes_ogs.tif
176
     1
290
     0
176
     1
 40
1.0
176
     1
 40
1.0
176
     1
1001
ACAD
1000
AcDbSavedByObjectVersion
1070
     0
  0
VISUALSTYLE
  5
2E
102
{ACAD_REACTORS
330
29
102
}
330
29
100
AcDbVisualStyle
  2
Basic
 70
     7
177
     3
291
     1
 70
    58
 90
        1
176
     1
 90
        0
176
     1
 90
        1
176
     1
 90
        0
176
     1
 40
0.6
176
     1
 40
30.0
176
     1
 62
     7
420
 16777215
176
     1
 90
        0
176
     1
 90
        4
176
     1
 62
     7
176
     1
 62
   257
176
     1
 90
        1
176
     1
 90
        1
176
     1
 40
1.0
176
     1
 90
        8
176
     1
 62
     7
176
     1
 40
1.0
176
     1
 90
        1
176
     1
 90
        6
176
     1
 90
        2
176
     1
 62
     7
176
     1
 90
        5
176
     1
 90
        0
176
     1
 90
        0
176
     1
290
     0
176
     1
 90
        1
176
     1
 40
0.0
176
     1
 90
        0
176
     1
290
     0
176
     1
290
     1
176
     1
290
     1
176
     1
290
     0
176
     1
290
     0
176
     1
290
     0
176
     1
290
     0
176
     1
290
     0
176
     1
290
     0
176
     1
 90
       50
176
     1
 40
0.0
176
     1
 40
1.0
176
     1
 90
        0
176
     1
 62
    18
420
        0
176
     1
 90
       50
176
     1
 90
        3
176
     1
 62
     5
420
      255
176
     1
290
     0
176
     1
 90
       50
176
     1
 90
       50
176
     1
 90
       50
176
     1
290
     0
176
     1
 90
       50
176
     1
 62
   256
176
     0
 40
1.0
176
     0
 90
        2
176
     1
  1
strokes_ogs.tif
176
     1
290
     0
176
     1
 40
1.0
176
     1
 40
1.0
176
     1
1001
ACAD
1000
AcDbSavedByObjectVersion
1070
     0
  0
VISUALSTYLE
  5
35
102
{ACAD_REACTORS
330
29
102
}
330
29
100
AcDbVisualStyle
  2
Brighten
 70
    12
177
     3
291
     1
 70
    58
 90
        2
176
     1
 90
        2
176
     1
 90
        0
176
     1
 90
        0
176
     1
 40
0.6
176
     1
 40
30.0
176
     1
 62
     7
420
 16777215
176
     1
 90
        1
176
     1
 90
        4
176
     1
 62
     7
176
     1
 62
   257
176
     1
 90
        1
176
     1
 90
        1
176
     1
 40
1.0
176
     1
 90
        8
176
     1
 62
     7
176
     1
 40
1.0
176
     1
 90
        1
176
     1
 90
        6
176
     1
 90
        2
176
     1
 62
     7
176
     1
 90
        5
176
     1
 90
        0
176
     1
 90
        0
176
     1
290
     0
176
     1
 90
        1
176
     1
 40
50.0
176
     1
 90
        0
176
     1
290
     0
176
     1
290
     1
176
     1
290
     1
176
     1
290
     0
176
     1
290
     0
176
     1
290
     0
176
     1
290
     0
176
     1
290
     0
176
     1
290
     0
176
     1
 90
       50
176
     1
 40
0.0
176
     1
 40
1.0
176
     1
 90
        0
176
     1
 62
    18
420
        0
176
     1
 90
       50
176
     1
 90
        3
176
     1
 62
     5
420
      255
176
     1
290
     0
176
     1
 90
       50
176
     1
 90
       50
176
     1
 90
       50
176
     1
290
     0
176
     1
 90
       50
176
     1
 62
   256
176
     0
 40
1.0
176
     0
 90
        2
176
     1
  1
strokes_ogs.tif
176
     1
290
     0
176
     1
 40
1.0
176
     1
 40
1.0
176
     1
1001
ACAD
1000
AcDbSavedByObjectVersion
1070
     0
  0
VISUALSTYLE
  5
39
102
{ACAD_REACTORS
330
29
102
}
330
29
100
AcDbVisualStyle
  2
ColorChange
 70
    16
177
     3
291
     1
 70
    58
 90
        2
176
     1
 90
        2
176
     1
 90
        3
176
     1
 90
        0
176
     1
 40
0.6
176
     1
 40
30.0
176
     1
 62
     8
420
  8421504
176
     1
 90
        1
176
     1
 90
        4
176
     1
 62
     7
176
     1
 62
   257
176
     1
 90
        1
176
     1
 90
        1
176
     1
 40
1.0
176
     1
 90
        8
176
     1
 62
     8
420
  8421504
176
     1
 40
1.0
176
     1
 90
        1
176
     1
 90
        6
176
     1
 90
        2
176
     1
 62
     7
176
     1
 90
        5
176
     1
 90
        0
176
     1
 90
        0
176
     1
290
     0
176
     1
 90
        1
176
     1
 40
0.0
176
     1
 90
        0
176
     1
290
     0
176
     1
290
     1
176
     1
290
     1
176
     1
290
     0
176
     1
290
     0
176
     1
290
     0
176
     1
290
     0
176
     1
290
     0
176
     1
290
     0
176
     1
 90
       50
176
     1
 40
0.0
176
     1
 40
1.0
176
     1
 90
        0
176
     1
 62
    18
420
        0
176
     1
 90
       50
176
     1
 90
        3
176
     1
 62
     5
420
      255
176
     1
290
     0
176
     1
 90
       50
176
     1
 90
       50
176
     1
 90
       50
176
     1
290
     0
176
     1
 90
       50
176
     1
 62
   256
176
     0
 40
1.0
176
     0
 90
        2
176
     1
  1
strokes_ogs.tif
176
     1
290
     0
176
     1
 40
1.0
176
     1
 40
1.0
176
     1
1001
ACAD
1000
AcDbSavedByObjectVersion
1070
     0
  0
VISUALSTYLE
  5
32
102
{ACAD_REACTORS
330
29
102
}
330
29
100
AcDbVisualStyle
  2
Conceptual
 70
     9
177
     3
291
     0
 70
    58
 90
        3
176
     1
 90
        2
176
     1
 90
        0
176
     1
 90
        0
176
     1
 40
0.6
176
     1
 40
30.0
176
     1
 62
     7
420
 16777215
176
     1
 90
        2
176
     1
 90
        2
176
     1
 62
     7
176
     1
 62
   257
176
     1
 90
        1
176
     1
 90
        1
176
     1
 40
179.0
176
     1
 90
        8
176
     1
 62
     7
176
     1
 40
1.0
176
     1
 90
        1
176
     1
 90
        6
176
     1
 90
        2
176
     1
 62
     7
176
     1
 90
        3
176
     1
 90
        0
176
     1
 90
        0
176
     1
290
     0
176
     1
 90
        1
176
     1
 40
0.0
176
     1
 90
        0
176
     1
290
     0
176
     1
290
     1
176
     1
290
     1
176
     1
290
     0
176
     1
290
     0
176
     1
290
     0
176
     1
290
     0
176
     1
290
     0
176
     1
290
     0
176
     1
 90
       50
176
     1
 40
0.0
176
     1
 40
1.0
176
     1
 90
        0
176
     1
 62
    18
420
        0
176
     1
 90
       50
176
     1
 90
        3
176
     1
 62
     5
420
      255
176
     1
290
     0
176
     1
 90
       50
176
     1
 90
       50
176
     1
 90
       50
176
     1
290
     0
176
     1
 90
       50
176
     1
 62
   256
176
     0
 40
1.0
176
     0
 90
        2
176
     1
  1
strokes_ogs.tif
176
     1
290
     0
176
     1
 40
1.0
176
     1
 40
1.0
176
     1
1001
ACAD
1000
AcDbSavedByObjectVersion
1070
     0
  0
VISUALSTYLE
  5
34
102
{ACAD_REACTORS
330
29
102
}
330
29
100
AcDbVisualStyle
  2
Dim
 70
    11
177
     3
291
     1
 70
    58
 90
        2
176
     1
 90
        2
176
     1
 90
        0
176
     1
 90
        0
176
     1
 40
0.6
176
     1
 40
30.0
176
     1
 62
     7
420
 16777215
176
     1
 90
        1
176
     1
 90
        4
176
     1
 62
     7
176
     1
 62
   257
176
     1
 90
        1
176
     1
 90
        1
176
     1
 40
1.0
176
     1
 90
        8
176
     1
 62
     7
176
     1
 40
1.0
176
     1
 90
        1
176
     1
 90
        6
176
     1
 90
        2
176
     1
 62
     7
176
     1
 90
        5
176
     1
 90
        0
176
     1
 90
        0
176
     1
290
     0
176
     1
 90
        1
176
     1
 40
-50.0
176
     1
 90
        0
176
     1
290
     0
176
     1
290
     1
176
     1
290
     1
176
     1
290
     0
176
     1
290
     0
176
     1
290
     0
176
     1
290
     0
176
     1
290
     0
176
     1
290
     0
176
     1
 90
       50
176
     1
 40
0.0
176
     1
 40
1.0
176
     1
 90
        0
176
     1
 62
    18
420
        0
176
     1
 90
       50
176
     1
 90
        3
176
     1
 62
     5
420
      255
176
     1
290
     0
176
     1
 90
       50
176
     1
 90
       50
176
     1
 90
       50
176
     1
290
     0
176
     1
 90
       50
176
     1
 62
   256
176
     0
 40
1.0
176
     0
 90
        2
176
     1
  1
strokes_ogs.tif
176
     1
290
     0
176
     1
 40
1.0
176
     1
 40
1.0
176
     1
1001
ACAD
1000
AcDbSavedByObjectVersion
1070
     0
  0
VISUALSTYLE
  5
41
102
{ACAD_REACTORS
330
29
102
}
330
29
100
AcDbVisualStyle
  2
EdgeColorOff
 70
    22
177
     3
291
     1
 70
    58
 90
        2
176
     0
 90
        2
176
     0
 90
        0
176
     0
 90
        0
176
     0
 40
0.6
176
     0
 40
30.0
176
     0
 62
     7
420
 16777215
176
     0
 90
        1
176
     0
 90
        4
176
     0
 62
     7
176
     0
 62
   257
176
     0
 90
        1
176
     0
 90
        1
176
     0
 40
1.0
176
     0
 90
        8
176
     2
 62
     7
176
     0
 40
1.0
176
     0
 90
        1
176
     0
 90
        6
176
     0
 90
        2
176
     0
 62
     7
176
     0
 90
        5
176
     0
 90
        0
176
     0
 90
        0
176
     0
290
     0
176
     0
 90
        1
176
     0
 40
0.0
176
     0
 90
        0
176
     0
290
     0
176
     0
290
     1
176
     0
290
     1
176
     0
290
     0
176
     0
290
     0
176
     0
290
     0
176
     0
290
     0
176
     0
290
     0
176
     0
290
     0
176
     0
 90
       50
176
     0
 40
0.0
176
     0
 40
1.0
176
     0
 90
        0
176
     0
 62
    18
420
        0
176
     0
 90
       50
176
     0
 90
        3
176
     0
 62
     5
420
      255
176
     0
290
     0
176
     0
 90
       50
176
     0
 90
       50
176
     0
 90
       50
176
     0
290
     0
176
     0
 90
       50
176
     0
 62
   256
176
     0
 40
1.0
176
     0
 90
        2
176
     0
  1
strokes_ogs.tif
176
     0
290
     0
176
     0
 40
1.0
176
     0
 40
1.0
176
     0
1001
ACAD
1000
AcDbSavedByObjectVersion
1070
     0
  0
VISUALSTYLE
  5
38
102
{ACAD_REACTORS
330
29
102
}
330
29
100
AcDbVisualStyle
  2
Facepattern
 70
    15
177
     3
291
     1
 70
    58
 90
        2
176
     1
 90
        2
176
     1
 90
        0
176
     1
 90
        0
176
     1
 40
0.6
176
     1
 40
30.0
176
     1
 62
     7
420
 16777215
176
     1
 90
        1
176
     1
 90
        4
176
     1
 62
     7
176
     1
 62
   257
176
     1
 90
        1
176
     1
 90
        1
176
     1
 40
1.0
176
     1
 90
        8
176
     1
 62
     7
176
     1
 40
1.0
176
     1
 90
        1
176
     1
 90
        6
176
     1
 90
        2
176
     1
 62
     7
176
     1
 90
        5
176
     1
 90
        0
176
     1
 90
        0
176
     1
290
     0
176
     1
 90
        1
176
     1
 40
0.0
176
     1
 90
        0
176
     1
290
     0
176
     1
290
     1
176
     1
290
     1
176
     1
290
     0
176
     1
290
     0
176
     1
290
     0
176
     1
290
     0
176
     1
290
     0
176
     1
290
     0
176
     1
 90
       50
176
     1
 40
0.0
176
     1
 40
1.0
176
     1
 90
        0
176
     1
 62
    18
420
        0
176
     1
 90
       50
176
     1
 90
        3
176
     1
 62
     5
420
      255
176
     1
290
     0
176
     1
 90
       50
176
     1
 90
       50
176
     1
 90
       50
176
     1
290
     0
176
     1
 90
       50
176
     1
 62
   256
176
     0
 40
1.0
176
     0
 90
        2
176
     1
  1
strokes_ogs.tif
176
     1
290
     0
176
     1
 40
1.0
176
     1
 40
1.0
176
     1
1001
ACAD
1000
AcDbSavedByObjectVersion
1070
     0
  0
VISUALSTYLE
  5
2A
102
{ACAD_REACTORS
330
29
102
}
330
29
100
AcDbVisualStyle
  2
Flat
 70
     0
177
     3
291
     1
 70
    58
 90
        2
176
     1
 90
        1
176
     1
 90
        1
176
     1
 90
        2
176
     1
 40
0.6
176
     1
 40
30.0
176
     1
 62
     7
420
 16777215
176
     1
 90
        0
176
     1
 90
        0
176
     1
 62
     7
176
     1
 62
   257
176
     1
 90
        1
176
     1
 90
        1
176
     1
 40
1.0
176
     1
 90
        8
176
     1
 62
     7
176
     1
 40
1.0
176
     1
 90
        1
176
     1
 90
        6
176
     1
 90
        2
176
     1
 62
     7
176
     1
 90
        5
176
     1
 90
        0
176
     1
 90
        0
176
     1
290
     0
176
     1
 90
       13
176
     1
 40
0.0
176
     1
 90
        0
176
     1
290
     0
176
     1
290
     1
176
     1
290
     1
176
     1
290
     0
176
     1
290
     0
176
     1
290
     0
176
     1
290
     0
176
     1
290
     0
176
     1
290
     0
176
     1
 90
       50
176
     1
 40
0.0
176
     1
 40
1.0
176
     1
 90
        0
176
     1
 62
    18
420
        0
176
     1
 90
       50
176
     1
 90
        3
176
     1
 62
     5
420
      255
176
     1
290
     0
176
     1
 90
       50
176
     1
 90
       50
176
     1
 90
       50
176
     1
290
     0
176
     1
 90
       50
176
     1
 62
   256
176
     0
 40
1.0
176
     0
 90
        2
176
     1
  1
strokes_ogs.tif
176
     1
290
     0
176
     1
 40
1.0
176
     1
 40
1.0
176
     1
1001
ACAD
1000
AcDbSavedByObjectVersion
1070
     0
  0
VISUALSTYLE
  5
2B
102
{ACAD_REACTORS
330
29
102
}
330
29
100
AcDbVisualStyle
  2
FlatWithEdges
 70
     1
177
     3
291
     1
 70
    58
 90
        2
176
     1
 90
        1
176
     1
 90
        1
176
     1
 90
        2
176
     1
 40
0.6
176
     1
 40
30.0
176
     1
 62
     7
420
 16777215
176
     1
 90
        1
176
     1
 90
        0
176
     1
 62
     7
176
     1
 62
   257
176
     1
 90
        1
176
     1
 90
        1
176
     1
 40
1.0
176
     1
 90
        0
176
     1
 62
   257
176
     1
 40
1.0
176
     1
 90
        1
176
     1
 90
        6
176
     1
 90
        2
176
     1
 62
     7
176
     1
 90
        5
176
     1
 90
        0
176
     1
 90
        0
176
     1
290
     0
176
     1
 90
       13
176
     1
 40
0.0
176
     1
 90
        0
176
     1
290
     0
176
     1
290
     1
176
     1
290
     1
176
     1
290
     0
176
     1
290
     0
176
     1
290
     0
176
     1
290
     0
176
     1
290
     0
176
     1
290
     0
176
     1
 90
       50
176
     1
 40
0.0
176
     1
 40
1.0
176
     1
 90
        0
176
     1
 62
    18
420
        0
176
     1
 90
       50
176
     1
 90
        3
176
     1
 62
     5
420
      255
176
     1
290
     0
176
     1
 90
       50
176
     1
 90
       50
176
     1
 90
       50
176
     1
290
     0
176
     1
 90
       50
176
     1
 62
   256
176
     0
 40
1.0
176
     0
 90
        2
176
     1
  1
strokes_ogs.tif
176
     1
290
     0
176
     1
 40
1.0
176
     1
 40
1.0
176
     1
1001
ACAD
1000
AcDbSavedByObjectVersion
1070
     0
  0
VISUALSTYLE
  5
2C
102
{ACAD_REACTORS
330
29
102
}
330
29
100
AcDbVisualStyle
  2
Gouraud
 70
     2
177
     3
291
     1
 70
    58
 90
        2
176
     1
 90
        2
176
     1
 90
        1
176
     1
 90
        2
176
     1
 40
0.6
176
     1
 40
30.0
176
     1
 62
     7
420
 16777215
176
     1
 90
        0
176
     1
 90
        0
176
     1
 62
     7
176
     1
 62
   257
176
     1
 90
        1
176
     1
 90
        1
176
     1
 40
1.0
176
     1
 90
        0
176
     1
 62
     7
176
     1
 40
1.0
176
     1
 90
        1
176
     1
 90
        6
176
     1
 90
        2
176
     1
 62
     7
176
     1
 90
        5
176
     1
 90
        0
176
     1
 90
        0
176
     1
290
     0
176
     1
 90
       13
176
     1
 40
0.0
176
     1
 90
        0
176
     1
290
     0
176
     1
290
     1
176
     1
290
     1
176
     1
290
     0
176
     1
290
     0
176
     1
290
     0
176
     1
290
     0
176
     1
290
     0
176
     1
290
     0
176
     1
 90
       50
176
     1
 40
0.0
176
     1
 40
1.0
176
     1
 90
        0
176
     1
 62
    18
420
        0
176
     1
 90
       50
176
     1
 90
        3
176
     1
 62
     5
420
      255
176
     1
290
     0
176
     1
 90
       50
176
     1
 90
       50
176
     1
 90
       50
176
     1
290
     0
176
     1
 90
       50
176
     1
 62
   256
176
     0
 40
1.0
176
     0
 90
        2
176
     1
  1
strokes_ogs.tif
176
     1
290
     0
176
     1
 40
1.0
176
     1
 40
1.0
176
     1
1001
ACAD
1000
AcDbSavedByObjectVersion
1070
     0
  0
VISUALSTYLE
  5
2D
102
{ACAD_REACTORS
330
29
102
}
330
29
100
AcDbVisualStyle
  2
GouraudWithEdges
 70
     3
177
     3
291
     1
 70
    58
 90
        2
176
     1
 90
        2
176
     1
 90
        1
176
     1
 90
        2
176
     1
 40
0.6
176
     1
 40
30.0
176
     1
 62
     7
420
 16777215
176
     1
 90
        1
176
     1
 90
        0
176
     1
 62
     7
176
     1
 62
   257
176
     1
 90
        1
176
     1
 90
        1
176
     1
 40
1.0
176
     1
 90
        0
176
     1
 62
   257
176
     1
 40
1.0
176
     1
 90
        1
176
     1
 90
        6
176
     1
 90
        2
176
     1
 62
     7
176
     1
 90
        5
176
     1
 90
        0
176
     1
 90
        0
176
     1
290
     0
176
     1
 90
       13
176
     1
 40
0.0
176
     1
 90
        0
176
     1
290
     0
176
     1
290
     1
176
     1
290
     1
176
     1
290
     0
176
     1
290
     0
176
     1
290
     0
176
     1
290
     0
176
     1
290
     0
176
     1
290
     0
176
     1
 90
       50
176
     1
 40
0.0
176
     1
 40
1.0
176
     1
 90
        0
176
     1
 62
    18
420
        0
176
     1
 90
       50
176
     1
 90
        3
176
     1
 62
     5
420
      255
176
     1
290
     0
176
     1
 90
       50
176
     1
 90
       50
176
     1
 90
       50
176
     1
290
     0
176
     1
 90
       50
176
     1
 62
   256
176
     0
 40
1.0
176
     0
 90
        2
176
     1
  1
strokes_ogs.tif
176
     1
290
     0
176
     1
 40
1.0
176
     1
 40
1.0
176
     1
1001
ACAD
1000
AcDbSavedByObjectVersion
1070
     0
  0
VISUALSTYLE
  5
31
102
{ACAD_REACTORS
330
29
102
}
330
29
100
AcDbVisualStyle
  2
Hidden
 70
     6
177
     3
291
     0
 70
    58
 90
        1
176
     1
 90
        2
176
     1
 90
        2
176
     1
 90
        0
176
     1
 40
0.6
176
     1
 40
30.0
176
     1
 62
     7
420
 16777215
176
     1
 90
        2
176
     1
 90
        2
176
     1
 62
     7
176
     1
 62
   257
176
     1
 90
        2
176
     1
 90
        1
176
     1
 40
40.0
176
     1
 90
        0
176
     1
 62
   257
176
     1
 40
1.0
176
     1
 90
        1
176
     1
 90
        6
176
     1
 90
        2
176
     1
 62
     7
176
     1
 90
        3
176
     1
 90
        0
176
     1
 90
        0
176
     1
290
     0
176
     1
 90
        1
176
     1
 40
0.0
176
     1
 90
        0
176
     1
290
     0
176
     1
290
     1
176
     1
290
     1
176
     1
290
     0
176
     1
290
     0
176
     1
290
     0
176
     1
290
     0
176
     1
290
     0
176
     1
290
     0
176
     1
 90
       50
176
     1
 40
0.0
176
     1
 40
1.0
176
     1
 90
        0
176
     1
 62
    18
420
        0
176
     1
 90
       50
176
     1
 90
        3
176
     1
 62
     5
420
      255
176
     1
290
     0
176
     1
 90
       50
176
     1
 90
       50
176
     1
 90
       50
176
     1
290
     0
176
     1
 90
       50
176
     1
 62
   256
176
     0
 40
1.0
176
     0
 90
        2
176
     1
  1
strokes_ogs.tif
176
     1
290
     0
176
     1
 40
1.0
176
     1
 40
1.0
176
     1
1001
ACAD
1000
AcDbSavedByObjectVersion
1070
     0
  0
VISUALSTYLE
  5
3F
102
{ACAD_REACTORS
330
29
102
}
330
29
100
AcDbVisualStyle
  2
JitterOff
 70
    20
177
     3
291
     1
 70
    58
 90
        2
176
     0
 90
        2
176
     0
 90
        0
176
     0
 90
        0
176
     0
 40
0.6
176
     0
 40
30.0
176
     0
 62
     7
420
 16777215
176
     0
 90
        1
176
     0
 90
        4
176
     0
 62
     7
176
     0
 62
   257
176
     0
 90
        1
176
     0
 90
        1
176
     0
 40
1.0
176
     0
 90
       10
176
     2
 62
     7
176
     0
 40
1.0
176
     0
 90
        1
176
     0
 90
        6
176
     0
 90
        2
176
     0
 62
     7
176
     0
 90
        5
176
     0
 90
        0
176
     0
 90
        0
176
     0
290
     0
176
     0
 90
        1
176
     0
 40
0.0
176
     0
 90
        0
176
     0
290
     0
176
     0
290
     1
176
     0
290
     1
176
     0
290
     0
176
     0
290
     0
176
     0
290
     0
176
     0
290
     0
176
     0
290
     0
176
     0
290
     0
176
     0
 90
       50
176
     0
 40
0.0
176
     0
 40
1.0
176
     0
 90
        0
176
     0
 62
    18
420
        0
176
     0
 90
       50
176
     0
 90
        3
176
     0
 62
     5
420
      255
176
     0
290
     0
176
     0
 90
       50
176
     0
 90
       50
176
     0
 90
       50
176
     0
290
     0
176
     0
 90
       50
176
     0
 62
   256
176
     0
 40
1.0
176
     0
 90
        2
176
     0
  1
strokes_ogs.tif
176
     0
290
     0
176
     0
 40
1.0
176
     0
 40
1.0
176
     0
1001
ACAD
1000
AcDbSavedByObjectVersion
1070
     0
  0
VISUALSTYLE
  5
37
102
{ACAD_REACTORS
330
29
102
}
330
29
100
AcDbVisualStyle
  2
Linepattern
 70
    14
177
     3
291
     1
 70
    58
 90
        2
176
     1
 90
        2
176
     1
 90
        0
176
     1
 90
        0
176
     1
 40
0.6
176
     1
 40
30.0
176
     1
 62
     7
420
 16777215
176
     1
 90
        1
176
     1
 90
        4
176
     1
 62
     7
176
     1
 62
   257
176
     1
 90
        7
176
     1
 90
        7
176
     1
 40
1.0
176
     1
 90
        8
176
     1
 62
     7
176
     1
 40
1.0
176
     1
 90
        1
176
     1
 90
        6
176
     1
 90
        2
176
     1
 62
     7
176
     1
 90
        5
176
     1
 90
        0
176
     1
 90
        0
176
     1
290
     0
176
     1
 90
        1
176
     1
 40
0.0
176
     1
 90
        0
176
     1
290
     0
176
     1
290
     1
176
     1
290
     1
176
     1
290
     0
176
     1
290
     0
176
     1
290
     0
176
     1
290
     0
176
     1
290
     0
176
     1
290
     0
176
     1
 90
       50
176
     1
 40
0.0
176
     1
 40
1.0
176
     1
 90
        0
176
     1
 62
    18
420
        0
176
     1
 90
       50
176
     1
 90
        3
176
     1
 62
     5
420
      255
176
     1
290
     0
176
     1
 90
       50
176
     1
 90
       50
176
     1
 90
       50
176
     1
290
     0
176
     1
 90
       50
176
     1
 62
   256
176
     0
 40
1.0
176
     0
 90
        2
176
     1
  1
strokes_ogs.tif
176
     1
290
     0
176
     1
 40
1.0
176
     1
 40
1.0
176
     1
1001
ACAD
1000
AcDbSavedByObjectVersion
1070
     0
  0
VISUALSTYLE
  5
40
102
{ACAD_REACTORS
330
29
102
}
330
29
100
AcDbVisualStyle
  2
OverhangOff
 70
    21
177
     3
291
     1
 70
    58
 90
        2
176
     0
 90
        2
176
     0
 90
        0
176
     0
 90
        0
176
     0
 40
0.6
176
     0
 40
30.0
176
     0
 62
     7
420
 16777215
176
     0
 90
        1
176
     0
 90
        4
176
     0
 62
     7
176
     0
 62
   257
176
     0
 90
        1
176
     0
 90
        1
176
     0
 40
1.0
176
     0
 90
        9
176
     2
 62
     7
176
     0
 40
1.0
176
     0
 90
        1
176
     0
 90
        6
176
     0
 90
        2
176
     0
 62
     7
176
     0
 90
        5
176
     0
 90
        0
176
     0
 90
        0
176
     0
290
     0
176
     0
 90
        1
176
     0
 40
0.0
176
     0
 90
        0
176
     0
290
     0
176
     0
290
     1
176
     0
290
     1
176
     0
290
     0
176
     0
290
     0
176
     0
290
     0
176
     0
290
     0
176
     0
290
     0
176
     0
290
     0
176
     0
 90
       50
176
     0
 40
0.0
176
     0
 40
1.0
176
     0
 90
        0
176
     0
 62
    18
420
        0
176
     0
 90
       50
176
     0
 90
        3
176
     0
 62
     5
420
      255
176
     0
290
     0
176
     0
 90
       50
176
     0
 90
       50
176
     0
 90
       50
176
     0
290
     0
176
     0
 90
       50
176
     0
 62
   256
176
     0
 40
1.0
176
     0
 90
        2
176
     0
  1
strokes_ogs.tif
176
     0
290
     0
176
     0
 40
1.0
176
     0
 40
1.0
176
     0
1001
ACAD
1000
AcDbSavedByObjectVersion
1070
     0
  0
VISUALSTYLE
  5
33
102
{ACAD_REACTORS
330
29
102
}
330
29
100
AcDbVisualStyle
  2
Realistic
 70
     8
177
     3
291
     0
 70
    58
 90
        2
176
     1
 90
        3
176
     1
 90
        0
176
     1
 90
        2
176
     1
 40
0.6
176
     1
 40
30.0
176
     1
 62
     7
420
 16777215
176
     1
 90
        0
176
     1
 90
        0
176
     1
 62
     7
176
     1
 62
   257
176
     1
 90
        1
176
     1
 90
        1
176
     1
 40
1.0
176
     1
 90
        8
176
     1
 62
   257
176
     1
 40
1.0
176
     1
 90
        1
176
     1
 90
        6
176
     1
 90
        2
176
     1
 62
     7
176
     1
 90
        3
176
     1
 90
        0
176
     1
 90
        0
176
     1
290
     0
176
     1
 90
       13
176
     1
 40
0.0
176
     1
 90
        0
176
     1
290
     0
176
     1
290
     1
176
     1
290
     1
176
     1
290
     0
176
     1
290
     0
176
     1
290
     0
176
     1
290
     0
176
     1
290
     0
176
     1
290
     0
176
     1
 90
       50
176
     1
 40
0.0
176
     1
 40
1.0
176
     1
 90
        0
176
     1
 62
    18
420
        0
176
     1
 90
       50
176
     1
 90
        3
176
     1
 62
     5
420
      255
176
     1
290
     0
176
     1
 90
       50
176
     1
 90
       50
176
     1
 90
       50
176
     1
290
     0
176
     1
 90
       50
176
     1
 62
   256
176
     0
 40
1.0
176
     0
 90
        2
176
     1
  1
strokes_ogs.tif
176
     1
290
     0
176
     1
 40
1.0
176
     1
 40
1.0
176
     1
1001
ACAD
1000
AcDbSavedByObjectVersion
1070
     0
  0
VISUALSTYLE
  5
3E
102
{ACAD_REACTORS
330
29
102
}
330
29
100
AcDbVisualStyle
  2
Shaded
 70
    27
177
     3
291
     0
 70
    58
 90
        2
176
     1
 90
        2
176
     1
 90
        1
176
     1
 90
        2
176
     1
 40
0.6
176
     1
 40
30.0
176
     1
 62
     7
420
 16777215
176
     1
 90
        0
176
     1
 90
        4
176
     1
 62
     7
176
     1
 62
   257
176
     1
 90
        1
176
     1
 90
        1
176
     1
 40
1.0
176
     1
 90
        8
176
     1
 62
   257
176
     1
 40
1.0
176
     1
 90
        1
176
     1
 90
        6
176
     1
 90
        2
176
     1
 62
     8
420
  7895160
176
     1
 90
        3
176
     1
 90
        0
176
     1
 90
        0
176
     1
290
     0
176
     1
 90
        5
176
     1
 40
0.0
176
     1
 90
        0
176
     1
290
     0
176
     1
290
     1
176
     1
290
     1
176
     1
290
     0
176
     1
290
     0
176
     1
290
     0
176
     1
290
     0
176
     1
290
     0
176
     1
290
     0
176
     1
 90
       50
176
     1
 40
0.0
176
     1
 40
1.0
176
     1
 90
        0
176
     1
 62
    18
420
        0
176
     1
 90
       50
176
     1
 90
        3
176
     1
 62
     5
420
      255
176
     1
290
     0
176
     1
 90
       50
176
     1
 90
       50
176
     1
 90
       50
176
     1
290
     0
176
     1
 90
       50
176
     1
 62
   256
176
     0
 40
1.0
176
     0
 90
        2
176
     1
  1
strokes_ogs.tif
176
     1
290
     0
176
     1
 40
1.0
176
     1
 40
1.0
176
     1
1001
ACAD
1000
AcDbSavedByObjectVersion
1070
     0
  0
VISUALSTYLE
  5
3D
102
{ACAD_REACTORS
330
29
102
}
330
29
100
AcDbVisualStyle
  2
Shaded with edges
 70
    26
177
     3
291
     0
 70
    58
 90
        2
176
     1
 90
        2
176
     1
 90
        1
176
     1
 90
        2
176
     1
 40
0.6
176
     1
 40
30.0
176
     1
 62
     7
420
 16777215
176
     1
 90
        1
176
     1
 90
        2
176
     1
 62
     7
176
     1
 62
   257
176
     1
 90
        2
176
     1
 90
        1
176
     1
 40
1.0
176
     1
 90
        8
176
     1
 62
   257
176
     1
 40
1.0
176
     1
 90
        1
176
     1
 90
        6
176
     1
 90
        2
176
     1
 62
     7
176
     1
 90
        3
176
     1
 90
        0
176
     1
 90
        0
176
     1
290
     0
176
     1
 90
        5
176
     1
 40
0.0
176
     1
 90
        0
176
     1
290
     0
176
     1
290
     1
176
     1
290
     1
176
     1
290
     0
176
     1
290
     0
176
     1
290
     0
176
     1
290
     0
176
     1
290
     0
176
     1
290
     0
176
     1
 90
       50
176
     1
 40
0.0
176
     1
 40
1.0
176
     1
 90
        0
176
     1
 62
    18
420
        0
176
     1
 90
       50
176
     1
 90
        3
176
     1
 62
     5
420
      255
176
     1
290
     0
176
     1
 90
       50
176
     1
 90
       50
176
     1
 90
       50
176
     1
290
     0
176
     1
 90
       50
176
     1
 62
   256
176
     0
 40
1.0
176
     0
 90
        2
176
     1
  1
strokes_ogs.tif
176
     1
290
     0
176
     1
 40
1.0
176
     1
 40
1.0
176
     1
1001
ACAD
1000
AcDbSavedByObjectVersion
1070
     0
  0
VISUALSTYLE
  5
3A
102
{ACAD_REACTORS
330
29
102
}
330
29
100
AcDbVisualStyle
  2
Shades of Gray
 70
    23
177
     3
291
     0
 70
    58
 90
        2
176
     1
 90
        2
176
     1
 90
        3
176
     1
 90
        0
176
     1
 40
0.6
176
     1
 40
30.0
176
     1
 62
     7
420
 16777215
176
     1
 90
        2
176
     1
 90
        2
176
     1
 62
     7
176
     1
 62
     7
176
     1
 90
        1
176
     1
 90
        1
176
     1
 40
40.0
176
     1
 90
        8
176
     1
 62
     7
176
     1
 40
1.0
176
     1
 90
        1
176
     1
 90
        6
176
     1
 90
        2
176
     1
 62
     7
176
     1
 90
        3
176
     1
 90
        0
176
     1
 90
        0
176
     1
290
     0
176
     1
 90
        1
176
     1
 40
0.0
176
     1
 90
        0
176
     1
290
     0
176
     1
290
     1
176
     1
290
     1
176
     1
290
     0
176
     1
290
     0
176
     1
290
     0
176
     1
290
     0
176
     1
290
     0
176
     1
290
     0
176
     1
 90
       50
176
     1
 40
0.0
176
     1
 40
1.0
176
     1
 90
        0
176
     1
 62
    18
420
        0
176
     1
 90
       50
176
     1
 90
        3
176
     1
 62
     5
420
      255
176
     1
290
     0
176
     1
 90
       50
176
     1
 90
       50
176
     1
 90
       50
176
     1
290
     0
176
     1
 90
       50
176
     1
 62
   256
176
     0
 40
1.0
176
     0
 90
        2
176
     1
  1
strokes_ogs.tif
176
     1
290
     0
176
     1
 40
1.0
176
     1
 40
1.0
176
     1
1001
ACAD
1000
AcDbSavedByObjectVersion
1070
     0
  0
VISUALSTYLE
  5
3B
102
{ACAD_REACTORS
330
29
102
}
330
29
100
AcDbVisualStyle
  2
Sketchy
 70
    24
177
     3
291
     0
 70
    58
 90
        1
176
     1
 90
        2
176
     1
 90
        2
176
     1
 90
        0
176
     1
 40
0.6
176
     1
 40
30.0
176
     1
 62
     7
420
 16777215
176
     1
 90
        2
176
     1
 90
        2
176
     1
 62
     7
176
     1
 62
     7
176
     1
 90
        1
176
     1
 90
        1
176
     1
 40
40.0
176
     1
 90
       11
176
     1
 62
     7
176
     1
 40
1.0
176
     1
 90
        1
176
     1
 90
        6
176
     1
 90
        2
176
     1
 62
     7
176
     1
 90
        6
176
     1
 90
        0
176
     1
 90
        0
176
     1
290
     0
176
     1
 90
        1
176
     1
 40
0.0
176
     1
 90
        0
176
     1
290
     0
176
     1
290
     1
176
     1
290
     1
176
     1
290
     0
176
     1
290
     0
176
     1
290
     0
176
     1
290
     0
176
     1
290
     0
176
     1
290
     0
176
     1
 90
       50
176
     1
 40
0.0
176
     1
 40
1.0
176
     1
 90
        0
176
     1
 62
    18
420
        0
176
     1
 90
       50
176
     1
 90
        3
176
     1
 62
     5
420
      255
176
     1
290
     0
176
     1
 90
       50
176
     1
 90
       50
176
     1
 90
       50
176
     1
290
     0
176
     1
 90
       50
176
     1
 62
   256
176
     0
 40
1.0
176
     0
 90
        2
176
     1
  1
strokes_ogs.tif
176
     1
290
     0
176
     1
 40
1.0
176
     1
 40
1.0
176
     1
1001
ACAD
1000
AcDbSavedByObjectVersion
1070
     0
  0
VISUALSTYLE
  5
36
102
{ACAD_REACTORS
330
29
102
}
330
29
100
AcDbVisualStyle
  2
Thicken
 70
    13
177
     3
291
     1
 70
    58
 90
        2
176
     1
 90
        2
176
     1
 90
        0
176
     1
 90
        0
176
     1
 40
0.6
176
     1
 40
30.0
176
     1
 62
     7
420
 16777215
176
     1
 90
        1
176
     1
 90
        4
176
     1
 62
     7
176
     1
 62
   257
176
     1
 90
        1
176
     1
 90
        1
176
     1
 40
1.0
176
     1
 90
       12
176
     1
 62
     7
176
     1
 40
1.0
176
     1
 90
        1
176
     1
 90
        6
176
     1
 90
        2
176
     1
 62
     7
176
     1
 90
        5
176
     1
 90
        0
176
     1
 90
        0
176
     1
290
     0
176
     1
 90
        1
176
     1
 40
0.0
176
     1
 90
        0
176
     1
290
     0
176
     1
290
     1
176
     1
290
     1
176
     1
290
     0
176
     1
290
     0
176
     1
290
     0
176
     1
290
     0
176
     1
290
     0
176
     1
290
     0
176
     1
 90
       50
176
     1
 40
0.0
176
     1
 40
1.0
176
     1
 90
        0
176
     1
 62
    18
420
        0
176
     1
 90
       50
176
     1
 90
        3
176
     1
 62
     5
420
      255
176
     1
290
     0
176
     1
 90
       50
176
     1
 90
       50
176
     1
 90
       50
176
     1
290
     0
176
     1
 90
       50
176
     1
 62
   256
176
     0
 40
1.0
176
     0
 90
        2
176
     1
  1
strokes_ogs.tif
176
     1
290
     0
176
     1
 40
1.0
176
     1
 40
1.0
176
     1
1001
ACAD
1000
AcDbSavedByObjectVersion
1070
     0
  0
VISUALSTYLE
  5
30
102
{ACAD_REACTORS
330
29
102
}
330
29
100
AcDbVisualStyle
  2
Wireframe
 70
     5
177
     3
291
     0
 70
    58
 90
        0
176
     1
 90
        2
176
     1
 90
        0
176
     1
 90
        0
176
     1
 40
0.6
176
     1
 40
30.0
176
     1
 62
     7
420
 16777215
176
     1
 90
        1
176
     1
 90
        4
176
     1
 62
     7
176
     1
 62
   257
176
     1
 90
        1
176
     1
 90
        1
176
     1
 40
1.0
176
     1
 90
        0
176
     1
 62
   257
176
     1
 40
1.0
176
     1
 90
        1
176
     1
 90
        6
176
     1
 90
        2
176
     1
 62
     7
176
     1
 90
        3
176
     1
 90
        0
176
     1
 90
        0
176
     1
290
     0
176
     1
 90
        1
176
     1
 40
0.0
176
     1
 90
        0
176
     1
290
     0
176
     1
290
     1
176
     1
290
     1
176
     1
290
     0
176
     1
290
     0
176
     1
290
     0
176
     1
290
     0
176
     1
290
     0
176
     1
290
     0
176
     1
 90
       50
176
     1
 40
0.0
176
     1
 40
1.0
176
     1
 90
        0
176
     1
 62
    18
420
        0
176
     1
 90
       50
176
     1
 90
        3
176
     1
 62
     5
420
      255
176
     1
290
     0
176
     1
 90
       50
176
     1
 90
       50
176
     1
 90
       50
176
     1
290
     0
176
     1
 90
       50
176
     1
 62
   256
176
     0
 40
1.0
176
     0
 90
        2
176
     1
  1
strokes_ogs.tif
176
     1
290
     0
176
     1
 40
1.0
176
     1
 40
1.0
176
     1
1001
ACAD
1000
AcDbSavedByObjectVersion
1070
     0
  0
VISUALSTYLE
  5
3C
102
{ACAD_REACTORS
330
29
102
}
330
29
100
AcDbVisualStyle
  2
X-Ray
 70
    25
177
     3
291
     0
 70
    58
 90
        2
176
     1
 90
        2
176
     1
 90
        1
176
     1
 90
        1
176
     1
 40
0.5
176
     1
 40
30.0
176
     1
 62
     7
420
 16777215
176
     1
 90
        1
176
     1
 90
        0
176
     1
 62
     7
176
     1
 62
   257
176
     1
 90
        1
176
     1
 90
        1
176
     1
 40
1.0
176
     1
 90
        8
176
     1
 62
     7
176
     1
 40
1.0
176
     1
 90
        1
176
     1
 90
        6
176
     1
 90
        2
176
     1
 62
     7
176
     1
 90
        3
176
     1
 90
        0
176
     1
 90
        0
176
     1
290
     0
176
     1
 90
       13
176
     1
 40
0.0
176
     1
 90
        0
176
     1
290
     0
176
     1
290
     1
176
     1
290
     1
176
     1
290
     0
176
     1
290
     0
176
     1
290
     0
176
     1
290
     0
176
     1
290
     0
176
     1
290
     0
176
     1
 90
       50
176
     1
 40
0.0
176
     1
 40
1.0
176
     1
 90
        0
176
     1
 62
    18
420
        0
176
     1
 90
       50
176
     1
 90
        3
176
     1
 62
     5
420
      255
176
     1
290
     0
176
     1
 90
       50
176
     1
 90
       50
176
     1
 90
       50
176
     1
290
     0
176
     1
 90
       50
176
     1
 62
   256
176
     0
 40
1.0
176
     0
 90
        2
176
     1
  1
strokes_ogs.tif
176
     1
290
     0
176
     1
 40
1.0
176
     1
 40
1.0
176
     1
1001
ACAD
1000
AcDbSavedByObjectVersion
1070
     0
  0
DICTIONARYVAR
  5
89
102
{ACAD_REACTORS
330
84
102
}
330
84
100
DictionaryVariables
280
     0
  1
1:1
  0
DICTIONARYVAR
  5
86
102
{ACAD_REACTORS
330
84
102
}
330
84
100
DictionaryVariables
280
     0
  1
STANDARD
  0
DICTIONARYVAR
  5
85
102
{ACAD_REACTORS
330
84
102
}
330
84
100
DictionaryVariables
280
     0
  1
STANDARD
  0
DICTIONARYVAR
  5
87
102
{ACAD_REACTORS
330
84
102
}
330
84
100
DictionaryVariables
280
     0
  1
Imperial24
  0
DICTIONARYVAR
  5
88
102
{ACAD_REACTORS
330
84
102
}
330
84
100
DictionaryVariables
280
     0
  1
Imperial24
  0
DICTIONARY
  5
8F
330
6B
100
AcDbDictionary
280
     1
281
     1
  3
ACAD_XREC_ROUNDTRIP
360
90
  0
DICTIONARY
  5
1A
330
19
100
AcDbDictionary
280
     1
281
     1
  3
BUMPTILE
360
1C
  3
DIFFUSETILE
360
1B
  3
OPACITYTILE
360
1F
  3
REFLECTIONTILE
360
1E
  3
REFRACTIONTILE
360
20
  3
SPECULARTILE
360
1D
  0
DICTIONARY
  5
12
330
11
100
AcDbDictionary
280
     1
281
     1
  3
BUMPTILE
360
14
  3
DIFFUSETILE
360
13
  3
OPACITYTILE
360
17
  3
REFLECTIONTILE
360
16
  3
REFRACTIONTILE
360
18
  3
SPECULARTILE
360
15
  0
DICTIONARY
  5
22
330
21
100
AcDbDictionary
280
     1
281
     1
  3
BUMPTILE
360
24
  3
DIFFUSETILE
360
23
  3
OPACITYTILE
360
27
  3
REFLECTIONTILE
360
26
  3
REFRACTIONTILE
360
28
  3
SPECULARTILE
360
25
  0
DICTIONARY
  5
8D
330
69
100
AcDbDictionary
280
     1
281
     1
  3
ACAD_XREC_ROUNDTRIP
360
8E
  0
DICTIONARY
  5
8A
330
65
100
AcDbDictionary
280
     1
281
     1
  3
ACAD_ROUNDTRIP_2008_TABLESTYLE_CELLSTYLEMAP
360
8B
  0
XRECORD
  5
90
102
{ACAD_REACTORS
330
8F
102
}
330
8F
100
AcDbXrecord
280
     1
102
DISPLAYNAME
  1
Imperial24
102
FLAGS
 90
        0
  0
XRECORD
  5
1C
102
{ACAD_REACTORS
330
1A
102
}
330
1A
100
AcDbXrecord
280
     1
270
     1
271
     1
  0
XRECORD
  5
1B
102
{ACAD_REACTORS
330
1A
102
}
330
1A
100
AcDbXrecord
280
     1
270
     1
271
     1
  0
XRECORD
  5
1F
102
{ACAD_REACTORS
330
1A
102
}
330
1A
100
AcDbXrecord
280
     1
270
     1
271
     1
  0
XRECORD
  5
1E
102
{ACAD_REACTORS
330
1A
102
}
330
1A
100
AcDbXrecord
280
     1
270
     1
271
     1
  0
XRECORD
  5
20
102
{ACAD_REACTORS
330
1A
102
}
330
1A
100
AcDbXrecord
280
     1
270
     1
271
     1
  0
XRECORD
  5
1D
102
{ACAD_REACTORS
330
1A
102
}
330
1A
100
AcDbXrecord
280
     1
270
     1
271
     1
  0
XRECORD
  5
14
102
{ACAD_REACTORS
330
12
102
}
330
12
100
AcDbXrecord
280
     1
270
     1
271
     1
  0
XRECORD
  5
13
102
{ACAD_REACTORS
330
12
102
}
330
12
100
AcDbXrecord
280
     1
270
     1
271
     1
  0
XRECORD
  5
17
102
{ACAD_REACTORS
330
12
102
}
330
12
100
AcDbXrecord
280
     1
270
     1
271
     1
  0
XRECORD
  5
16
102
{ACAD_REACTORS
330
12
102
}
330
12
100
AcDbXrecord
280
     1
270
     1
271
     1
  0
XRECORD
  5
18
102
{ACAD_REACTORS
330
12
102
}
330
12
100
AcDbXrecord
280
     1
270
     1
271
     1
  0
XRECORD
  5
15
102
{ACAD_REACTORS
330
12
102
}
330
12
100
AcDbXrecord
280
     1
270
     1
271
     1
  0
XRECORD
  5
24
102
{ACAD_REACTORS
330
22
102
}
330
22
100
AcDbXrecord
280
     1
270
     1
271
     1
  0
XRECORD
  5
23
102
{ACAD_REACTORS
330
22
102
}
330
22
100
AcDbXrecord
280
     1
270
     1
271
     1
  0
XRECORD
  5
27
102
{ACAD_REACTORS
330
22
102
}
330
22
100
AcDbXrecord
280
     1
270
     1
271
     1
  0
XRECORD
  5
26
102
{ACAD_REACTORS
330
22
102
}
330
22
100
AcDbXrecord
280
     1
270
     1
271
     1
  0
XRECORD
  5
28
102
{ACAD_REACTORS
330
22
102
}
330
22
100
AcDbXrecord
280
     1
270
     1
271
     1
  0
XRECORD
  5
25
102
{ACAD_REACTORS
330
22
102
}
330
22
100
AcDbXrecord
280
     1
270
     1
271
     1
  0
XRECORD
  5
8E
102
{ACAD_REACTORS
330
8D
102
}
330
8D
100
AcDbXrecord
280
     1
102
DISPLAYNAME
  1
Imperial24
102
FLAGS
 90
        0
  0
CELLSTYLEMAP
  5
8B
102
{ACAD_REACTORS
330
8A
102
}
330
8A
100
AcDbCellStyleMap
 90
        3
300
CELLSTYLE
  1
TABLEFORMAT_BEGIN
 90
        5
170
     1
 91
        0
 92
    32768
 62
   257
 93
        1
300
CONTENTFORMAT
  1
CONTENTFORMAT_BEGIN
 90
        0
 91
        0
 92
      512
 93
        0
300

 40
0.0
140
1.0
 94
        5
 62
     0
340
55
144
0.25
309
CONTENTFORMAT_END
171
     0
 94
        0
309
TABLEFORMAT_END
  1
CELLSTYLE_BEGIN
 90
        1
 91
        1
300
_TITLE
309
CELLSTYLE_END
300
CELLSTYLE
  1
TABLEFORMAT_BEGIN
 90
        5
170
     1
 91
        0
 92
        0
 62
   257
 93
        1
300
CONTENTFORMAT
  1
CONTENTFORMAT_BEGIN
 90
        0
 91
        0
 92
      512
 93
        0
300

 40
0.0
140
1.0
 94
        5
 62
     0
340
55
144
0.18
309
CONTENTFORMAT_END
171
     0
 94
        0
309
TABLEFORMAT_END
  1
CELLSTYLE_BEGIN
 90
        2
 91
        1
300
_HEADER
309
CELLSTYLE_END
300
CELLSTYLE
  1
TABLEFORMAT_BEGIN
 90
        5
170
     1
 91
        0
 92
        0
 62
   257
 93
        1
300
CONTENTFORMAT
  1
CONTENTFORMAT_BEGIN
 90
        0
 91
        0
 92
      512
 93
        0
300

 40
0.0
140
1.0
 94
        2
 62
     0
340
55
144
0.18
309
CONTENTFORMAT_END
171
     0
 94
        0
309
TABLEFORMAT_END
  1
CELLSTYLE_BEGIN
 90
        3
 91
        2
300
_DATA
309
CELLSTYLE_END
  0
ENDSEC
  0
EOF
