  0
SECTION
  2
HEADER
  9
$ACADVER
  1
AC1027
  9
$ACADMAINTVER
 70
   125
  9
$DWGCODEPAGE
  3
ANSI_1252
  9
$REQUIREDVERSIONS
160
                 0
  9
$INSBASE
 10
0.0
 20
0.0
 30
0.0
  9
$EXTMIN
 10
1.000000000000000E+20
 20
1.000000000000000E+20
 30
1.000000000000000E+20
  9
$EXTMAX
 10
-1.000000000000000E+20
 20
-1.000000000000000E+20
 30
-1.000000000000000E+20
  9
$LIMMIN
 10
0.0
 20
0.0
  9
$LIMMAX
 10
12.0
 20
9.0
  9
$ORTHOMODE
 70
     0
  9
$REGENMODE
 70
     1
  9
$FILLMODE
 70
     1
  9
$QTEXTMODE
 70
     0
  9
$MIRRTEXT
 70
     0
  9
$LTSCALE
 40
1.0
  9
$ATTMODE
 70
     1
  9
$TEXTSIZE
 40
0.2
  9
$TRACEWID
 40
0.05
  9
$TEXTSTYLE
  7
Standard
  9
$CLAYER
  8
0
  9
$CELTYPE
  6
ByLayer
  9
$CECOLOR
 62
   256
  9
$CELTSCALE
 40
1.0
  9
$DISPSILH
 70
     0
  9
$DIMSCALE
 40
1.0
  9
$DIMASZ
 40
0.18
  9
$DIMEXO
 40
0.0625
  9
$DIMDLI
 40
0.38
  9
$DIMRND
 40
0.0
  9
$DIMDLE
 40
0.0
  9
$DIMEXE
 40
0.18
  9
$DIMTP
 40
0.0
  9
$DIMTM
 40
0.0
  9
$DIMTXT
 40
0.18
  9
$DIMCEN
 40
0.09
  9
$DIMTSZ
 40
0.0
  9
$DIMTOL
 70
     0
  9
$DIMLIM
 70
     0
  9
$DIMTIH
 70
     1
  9
$DIMTOH
 70
     1
  9
$DIMSE1
 70
     0
  9
$DIMSE2
 70
     0
  9
$DIMTAD
 70
     0
  9
$DIMZIN
 70
     0
  9
$DIMBLK
  1

  9
$DIMASO
 70
     1
  9
$DIMSHO
 70
     1
  9
$DIMPOST
  1

  9
$DIMAPOST
  1

  9
$DIMALT
 70
     0
  9
$DIMALTD
 70
     2
  9
$DIMALTF
 40
25.4
  9
$DIMLFAC
 40
1.0
  9
$DIMTOFL
 70
     0
  9
$DIMTVP
 40
0.0
  9
$DIMTIX
 70
     0
  9
$DIMSOXD
 70
     0
  9
$DIMSAH
 70
     0
  9
$DIMBLK1
  1

  9
$DIMBLK2
  1

  9
$DIMSTYLE
  2
Standard
  9
$DIMCLRD
 70
     0
  9
$DIMCLRE
 70
     0
  9
$DIMCLRT
 70
     0
  9
$DIMTFAC
 40
1.0
  9
$DIMGAP
 40
0.09
  9
$DIMJUST
 70
     0
  9
$DIMSD1
 70
     0
  9
$DIMSD2
 70
     0
  9
$DIMTOLJ
 70
     1
  9
$DIMTZIN
 70
     0
  9
$DIMALTZ
 70
     0
  9
$DIMALTTZ
 70
     0
  9
$DIMUPT
 70
     0
  9
$DIMDEC
 70
     4
  9
$DIMTDEC
 70
     4
  9
$DIMALTU
 70
     2
  9
$DIMALTTD
 70
     2
  9
$DIMTXSTY
  7
Standard
  9
$DIMAUNIT
 70
     0
  9
$DIMADEC
 70
     0
  9
$DIMALTRND
 40
0.0
  9
$DIMAZIN
 70
     0
  9
$DIMDSEP
 70
    46
  9
$DIMATFIT
 70
     3
  9
$DIMFRAC
 70
     0
  9
$DIMLDRBLK
  1

  9
$DIMLUNIT
 70
     2
  9
$DIMLWD
 70
    -2
  9
$DIMLWE
 70
    -2
  9
$DIMTMOVE
 70
     0
  9
$DIMFXL
 40
1.0
  9
$DIMFXLON
 70
     0
  9
$DIMJOGANG
 40
0.7853981633974483
  9
$DIMTFILL
 70
     0
  9
$DIMTFILLCLR
 70
     0
  9
$DIMARCSYM
 70
     0
  9
$DIMLTYPE
  6

  9
$DIMLTEX1
  6

  9
$DIMLTEX2
  6

  9
$DIMTXTDIRECTION
 70
     0
  9
$LUNITS
 70
     2
  9
$LUPREC
 70
     4
  9
$SKETCHINC
 40
0.1
  9
$FILLETRAD
 40
0.0
  9
$AUNITS
 70
     0
  9
$AUPREC
 70
     0
  9
$MENU
  1
.
  9
$ELEVATION
 40
0.0
  9
$PELEVATION
 40
0.0
  9
$THICKNESS
 40
0.0
  9
$LIMCHECK
 70
     0
  9
$CHAMFERA
 40
0.0
  9
$CHAMFERB
 40
0.0
  9
$CHAMFERC
 40
0.0
  9
$CHAMFERD
 40
0.0
  9
$SKPOLY
 70
     0
  9
$TDCREATE
 40
2459734.968032408
  9
$TDUCREATE
 40
2459734.551365741
  9
$TDUPDATE
 40
2459734.968032408
  9
$TDUUPDATE
 40
2459734.551365741
  9
$TDINDWG
 40
0.0000000000
  9
$TDUSRTIMER
 40
0.0000000000
  9
$USRTIMER
 70
     1
  9
$ANGBASE
 50
0.0
  9
$ANGDIR
 70
     0
  9
$PDMODE
 70
     0
  9
$PDSIZE
 40
0.0
  9
$PLINEWID
 40
0.0
  9
$SPLFRAME
 70
     0
  9
$SPLINETYPE
 70
     6
  9
$SPLINESEGS
 70
     8
  9
$HANDSEED
  5
97
  9
$SURFTAB1
 70
     6
  9
$SURFTAB2
 70
     6
  9
$SURFTYPE
 70
     6
  9
$SURFU
 70
     6
  9
$SURFV
 70
     6
  9
$UCSBASE
  2

  9
$UCSNAME
  2

  9
$UCSORG
 10
0.0
 20
0.0
 30
0.0
  9
$UCSXDIR
 10
1.0
 20
0.0
 30
0.0
  9
$UCSYDIR
 10
0.0
 20
1.0
 30
0.0
  9
$UCSORTHOREF
  2

  9
$UCSORTHOVIEW
 70
     0
  9
$UCSORGTOP
 10
0.0
 20
0.0
 30
0.0
  9
$UCSORGBOTTOM
 10
0.0
 20
0.0
 30
0.0
  9
$UCSORGLEFT
 10
0.0
 20
0.0
 30
0.0
  9
$UCSORGRIGHT
 10
0.0
 20
0.0
 30
0.0
  9
$UCSORGFRONT
 10
0.0
 20
0.0
 30
0.0
  9
$UCSORGBACK
 10
0.0
 20
0.0
 30
0.0
  9
$PUCSBASE
  2

  9
$PUCSNAME
  2

  9
$PUCSORG
 10
0.0
 20
0.0
 30
0.0
  9
$PUCSXDIR
 10
1.0
 20
0.0
 30
0.0
  9
$PUCSYDIR
 10
0.0
 20
1.0
 30
0.0
  9
$PUCSORTHOREF
  2

  9
$PUCSORTHOVIEW
 70
     0
  9
$PUCSORGTOP
 10
0.0
 20
0.0
 30
0.0
  9
$PUCSORGBOTTOM
 10
0.0
 20
0.0
 30
0.0
  9
$PUCSORGLEFT
 10
0.0
 20
0.0
 30
0.0
  9
$PUCSORGRIGHT
 10
0.0
 20
0.0
 30
0.0
  9
$PUCSORGFRONT
 10
0.0
 20
0.0
 30
0.0
  9
$PUCSORGBACK
 10
0.0
 20
0.0
 30
0.0
  9
$USERI1
 70
     0
  9
$USERI2
 70
     0
  9
$USERI3
 70
     0
  9
$USERI4
 70
     0
  9
$USERI5
 70
     0
  9
$USERR1
 40
0.0
  9
$USERR2
 40
0.0
  9
$USERR3
 40
0.0
  9
$USERR4
 40
0.0
  9
$USERR5
 40
0.0
  9
$WORLDVIEW
 70
     1
  9
$SHADEDGE
 70
     3
  9
$SHADEDIF
 70
    70
  9
$TILEMODE
 70
     1
  9
$MAXACTVP
 70
    64
  9
$PINSBASE
 10
0.0
 20
0.0
 30
0.0
  9
$PLIMCHECK
 70
     0
  9
$PEXTMIN
 10
1.000000000000000E+20
 20
1.000000000000000E+20
 30
1.000000000000000E+20
  9
$PEXTMAX
 10
-1.000000000000000E+20
 20
-1.000000000000000E+20
 30
-1.000000000000000E+20
  9
$PLIMMIN
 10
0.0
 20
0.0
  9
$PLIMMAX
 10
12.0
 20
9.0
  9
$UNITMODE
 70
     0
  9
$VISRETAIN
 70
     1
  9
$PLINEGEN
 70
     0
  9
$PSLTSCALE
 70
     1
  9
$TREEDEPTH
 70
  3020
  9
$CMLSTYLE
  2
Standard
  9
$CMLJUST
 70
     0
  9
$CMLSCALE
 40
1.0
  9
$PROXYGRAPHICS
 70
     1
  9
$MEASUREMENT
 70
     0
  9
$CELWEIGHT
370
    -1
  9
$ENDCAPS
280
     0
  9
$JOINSTYLE
280
     0
  9
$LWDISPLAY
290
     1
  9
$INSUNITS
 70
     4
  9
$HYPERLINKBASE
  1

  9
$STYLESHEET
  1

  9
$XEDIT
290
     1
  9
$CEPSNTYPE
380
     0
  9
$PSTYLEMODE
290
     1
  9
$FINGERPRINTGUID
  2
{79DC1308-C262-7D4E-BDCD-64269181DC2B}
  9
$VERSIONGUID
  2
{76DE2654-F66C-8147-9A0C-1CFDE7AA479B}
  9
$EXTNAMES
290
     1
  9
$PSVPSCALE
 40
0.0
  9
$OLESTARTUP
290
     0
  9
$SORTENTS
280
   127
  9
$INDEXCTL
280
     0
  9
$HIDETEXT
280
     1
  9
$XCLIPFRAME
280
     2
  9
$HALOGAP
280
     0
  9
$OBSCOLOR
 70
   257
  9
$OBSLTYPE
280
     0
  9
$INTERSECTIONDISPLAY
280
     0
  9
$INTERSECTIONCOLOR
 70
   257
  9
$DIMASSOC
280
     2
  9
$PROJECTNAME
  1

  9
$CAMERADISPLAY
290
     0
  9
$LENSLENGTH
 40
50.0
  9
$CAMERAHEIGHT
 40
0.0
  9
$STEPSPERSEC
 40
2.0
  9
$STEPSIZE
 40
6.0
  9
$3DDWFPREC
 40
2.0
  9
$PSOLWIDTH
 40
0.25
  9
$PSOLHEIGHT
 40
4.0
  9
$LOFTANG1
 40
1.570796326794896
  9
$LOFTANG2
 40
1.570796326794896
  9
$LOFTMAG1
 40
0.0
  9
$LOFTMAG2
 40
0.0
  9
$LOFTPARAM
 70
     7
  9
$LOFTNORMALS
280
     1
  9
$LATITUDE
 40
37.795
  9
$LONGITUDE
 40
-122.394
  9
$NORTHDIRECTION
 40
0.0
  9
$TIMEZONE
 70
 -8000
  9
$LIGHTGLYPHDISPLAY
280
     1
  9
$TILEMODELIGHTSYNCH
280
     1
  9
$CMATERIAL
347
11
  9
$SOLIDHIST
280
     0
  9
$SHOWHIST
280
     1
  9
$DWFFRAME
280
     2
  9
$DGNFRAME
280
     0
  9
$REALWORLDSCALE
290
     1
  9
$INTERFERECOLOR
 62
     1
  9
$INTERFEREOBJVS
345
33
  9
$INTERFEREVPVS
346
30
  9
$CSHADOW
280
     0
  9
$SHADOWPLANELOCATION
 40
0.0
  0
ENDSEC
  0
SECTION
  2
CLASSES
  0
CLASS
  1
ACDBDICTIONARYWDFLT
  2
AcDbDictionaryWithDefault
  3
ObjectDBX Classes
 90
        0
 91
        1
280
     0
281
     0
  0
CLASS
  1
MATERIAL
  2
AcDbMaterial
  3
ObjectDBX Classes
 90
     1153
 91
        3
280
     0
281
     0
  0
CLASS
  1
VISUALSTYLE
  2
AcDbVisualStyle
  3
ObjectDBX Classes
 90
     4095
 91
       24
280
     0
281
     0
  0
CLASS
  1
SCALE
  2
AcDbScale
  3
ObjectDBX Classes
 90
     1153
 91
       17
280
     0
281
     0
  0
CLASS
  1
TABLESTYLE
  2
AcDbTableStyle
  3
ObjectDBX Classes
 90
     4095
 91
        1
280
     0
281
     0
  0
CLASS
  1
MLEADERSTYLE
  2
AcDbMLeaderStyle
  3
ACDB_MLEADERSTYLE_CLASS
 90
     4095
 91
        1
280
     0
281
     0
  0
CLASS
  1
ACDBSECTIONVIEWSTYLE
  2
AcDbSectionViewStyle
  3
ObjectDBX Classes
 90
     1025
 91
        1
280
     0
281
     0
  0
CLASS
  1
ACDBDETAILVIEWSTYLE
  2
AcDbDetailViewStyle
  3
ObjectDBX Classes
 90
     1025
 91
        1
280
     0
281
     0
  0
CLASS
  1
DICTIONARYVAR
  2
AcDbDictionaryVar
  3
ObjectDBX Classes
 90
        0
 91
        5
280
     0
281
     0
  0
CLASS
  1
CELLSTYLEMAP
  2
AcDbCellStyleMap
  3
ObjectDBX Classes
 90
     1152
 91
        1
280
     0
281
     0
  0
ENDSEC
  0
SECTION
  2
TABLES
  0
TABLE
  2
VPORT
  5
8
330
0
100
AcDbSymbolTable
 70
     1
1001
ACAD
1000
DbSaveVer
1071
      247
  0
VPORT
  5
57
330
8
100
AcDbSymbolTableRecord
100
AcDbViewportTableRecord
  2
*Active
 70
     0
 10
0.0
 20
0.0
 11
1.0
 21
1.0
 12
0.0
 22
0.0
 13
0.0
 23
0.0
 14
1.0
 24
1.0
 15
0.0
 25
0.0
 16
0.0
 26
0.0
 36
1.0
 17
-111.9583333053439
 27
3.302777776952218
 37
0.0
 40
214.1999999464498
 41
0.9999999999999998
 42
50.0
 43
0.0
 44
0.0
 50
0.0
 51
0.0
 71
     0
 72
   100
 73
     1
 74
     1
 75
     0
 76
     0
 77
     0
 78
     0
281
     0
 65
     1
110
0.0
120
0.0
130
0.0
111
1.0
121
0.0
131
0.0
112
0.0
122
1.0
132
0.0
 79
     0
146
0.0
 60
     3
 61
     5
292
     1
282
     1
141
0.0
142
0.0
 63
   250
421
  3355443
  0
ENDTAB
  0
TABLE
  2
LTYPE
  5
5
330
0
100
AcDbSymbolTable
 70
     1
  0
LTYPE
  5
5B
330
5
100
AcDbSymbolTableRecord
100
AcDbLinetypeTableRecord
  2
ByBlock
 70
     0
  3

 72
    65
 73
     0
 40
0.0
  0
LTYPE
  5
5C
330
5
100
AcDbSymbolTableRecord
100
AcDbLinetypeTableRecord
  2
ByLayer
 70
     0
  3

 72
    65
 73
     0
 40
0.0
  0
LTYPE
  5
5D
330
5
100
AcDbSymbolTableRecord
100
AcDbLinetypeTableRecord
  2
Continuous
 70
     0
  3
Solid line
 72
    65
 73
     0
 40
0.0
  0
ENDTAB
  0
TABLE
  2
LAYER
  5
2
330
0
100
AcDbSymbolTable
 70
     2
  0
LAYER
  5
54
330
2
100
AcDbSymbolTableRecord
100
AcDbLayerTableRecord
  2
0
 70
     0
 62
     7
  6
Continuous
370
    -3
390
F
347
21
348
0
  0
LAYER
  5
78
330
2
100
AcDbSymbolTableRecord
100
AcDbLayerTableRecord
  2
Layer 1
 70
     0
 62
     7
  6
Continuous
370
     0
390
F
347
21
348
0
  0
ENDTAB
  0
TABLE
  2
STYLE
  5
3
330
0
100
AcDbSymbolTable
 70
     2
  0
STYLE
  5
55
330
3
100
AcDbSymbolTableRecord
100
AcDbTextStyleTableRecord
  2
Standard
 70
     0
 40
0.0
 41
1.0
 50
0.0
 71
     0
 42
0.2
  3
txt
  4

  0
STYLE
  5
5A
330
3
100
AcDbSymbolTableRecord
100
AcDbTextStyleTableRecord
  2
Annotative
 70
     0
 40
0.0
 41
1.0
 50
0.0
 71
     0
 42
0.2
  3
txt
  4

1001
AcadAnnotative
1000
AnnotativeData
1002
{
1070
     1
1070
     1
1002
}
  0
ENDTAB
  0
TABLE
  2
VIEW
  5
6
330
0
100
AcDbSymbolTable
 70
     0
  0
ENDTAB
  0
TABLE
  2
UCS
  5
7
330
0
100
AcDbSymbolTable
 70
     0
  0
ENDTAB
  0
TABLE
  2
APPID
  5
9
330
0
100
AcDbSymbolTable
 70
     2
  0
APPID
  5
56
330
9
100
AcDbSymbolTableRecord
100
AcDbRegAppTableRecord
  2
ACAD
 70
     0
  0
APPID
  5
5E
330
9
100
AcDbSymbolTableRecord
100
AcDbRegAppTableRecord
  2
AcadAnnotative
 70
     0
  0
ENDTAB
  0
TABLE
  2
DIMSTYLE
  5
A
330
0
100
AcDbSymbolTable
 70
     2
100
AcDbDimStyleTable
 71
     0
  0
DIMSTYLE
105
58
330
A
100
AcDbSymbolTableRecord
100
AcDbDimStyleTableRecord
  2
Standard
 70
     0
340
55
  0
DIMSTYLE
105
59
330
A
100
AcDbSymbolTableRecord
100
AcDbDimStyleTableRecord
  2
Annotative
 70
     0
340
55
1001
AcadAnnotative
1000
AnnotativeData
1002
{
1070
     1
1070
     1
1002
}
  0
ENDTAB
  0
TABLE
  2
BLOCK_RECORD
  5
1
330
0
100
AcDbSymbolTable
 70
     2
  0
BLOCK_RECORD
  5
70
330
1
100
AcDbSymbolTableRecord
100
AcDbBlockTableRecord
  2
*Model_Space
340
73
 70
     0
280
     1
281
     0
  0
BLOCK_RECORD
  5
6C
330
1
100
AcDbSymbolTableRecord
100
AcDbBlockTableRecord
  2
*Paper_Space
340
6F
 70
     0
280
     1
281
     0
  0
BLOCK_RECORD
  5
74
330
1
100
AcDbSymbolTableRecord
100
AcDbBlockTableRecord
  2
*Paper_Space0
340
77
 70
     0
280
     1
281
     0
  0
BLOCK_RECORD
  5
79
330
1
100
AcDbSymbolTableRecord
100
AcDbBlockTableRecord
  2
Block_0
340
0
102
{BLKREFS
331
7A
102
}
 70
     0
280
     1
281
     0
  0
ENDTAB
  0
ENDSEC
  0
SECTION
  2
BLOCKS
  0
BLOCK
  5
71
330
70
100
AcDbEntity
  8
0
100
AcDbBlockBegin
  2
*Model_Space
 70
     0
 10
0.0
 20
0.0
 30
0.0
  3
*Model_Space
  1

  0
ENDBLK
  5
72
330
70
100
AcDbEntity
  8
0
100
AcDbBlockEnd
  0
BLOCK
  5
6D
330
6C
100
AcDbEntity
 67
     1
  8
0
100
AcDbBlockBegin
  2
*Paper_Space
 70
     0
 10
0.0
 20
0.0
 30
0.0
  3
*Paper_Space
  1

  0
ENDBLK
  5
6E
330
6C
100
AcDbEntity
 67
     1
  8
0
100
AcDbBlockEnd
  0
BLOCK
  5
75
330
74
100
AcDbEntity
 67
     1
  8
0
100
AcDbBlockBegin
  2
*Paper_Space0
 70
     0
 10
0.0
 20
0.0
 30
0.0
  3
*Paper_Space0
  1

  0
ENDBLK
  5
76
330
74
100
AcDbEntity
 67
     1
  8
0
100
AcDbBlockEnd
  0
BLOCK
  5
7B
330
79
100
AcDbEntity
  8
0
100
AcDbBlockBegin
  2
Block_0
 70
     0
 10
0.0
 20
0.0
 30
0.0
  3
Block_0
  1

  0
SPLINE
  5
7D
330
79
100
AcDbEntity
  8
Layer 1
100
AcDbSpline
210
0.0
220
0.0
230
1.0
 70
     9
 71
     3
 72
   134
 73
   130
 74
     0
 42
0.0000000001
 43
0.0000000001
 40
0.0
 40
0.0
 40
0.0
 40
0.0
 40
1.0
 40
1.0
 40
1.0
 40
2.0
 40
2.0
 40
2.0
 40
3.0
 40
3.0
 40
3.0
 40
4.0
 40
4.0
 40
4.0
 40
5.0
 40
5.0
 40
5.0
 40
6.0
 40
6.0
 40
6.0
 40
7.0
 40
7.0
 40
7.0
 40
8.0
 40
8.0
 40
8.0
 40
9.0
 40
9.0
 40
9.0
 40
10.0
 40
10.0
 40
10.0
 40
11.0
 40
11.0
 40
11.0
 40
12.0
 40
12.0
 40
12.0
 40
13.0
 40
13.0
 40
13.0
 40
14.0
 40
14.0
 40
14.0
 40
15.0
 40
15.0
 40
15.0
 40
16.0
 40
16.0
 40
16.0
 40
17.0
 40
17.0
 40
17.0
 40
18.0
 40
18.0
 40
18.0
 40
19.0
 40
19.0
 40
19.0
 40
20.0
 40
20.0
 40
20.0
 40
21.0
 40
21.0
 40
21.0
 40
22.0
 40
22.0
 40
22.0
 40
23.0
 40
23.0
 40
23.0
 40
24.0
 40
24.0
 40
24.0
 40
25.0
 40
25.0
 40
25.0
 40
26.0
 40
26.0
 40
26.0
 40
27.0
 40
27.0
 40
27.0
 40
28.0
 40
28.0
 40
28.0
 40
29.0
 40
29.0
 40
29.0
 40
30.0
 40
30.0
 40
30.0
 40
31.0
 40
31.0
 40
31.0
 40
32.0
 40
32.0
 40
32.0
 40
33.0
 40
33.0
 40
33.0
 40
34.0
 40
34.0
 40
34.0
 40
35.0
 40
35.0
 40
35.0
 40
36.0
 40
36.0
 40
36.0
 40
37.0
 40
37.0
 40
37.0
 40
38.0
 40
38.0
 40
38.0
 40
39.0
 40
39.0
 40
39.0
 40
40.0
 40
40.0
 40
40.0
 40
41.0
 40
41.0
 40
41.0
 40
42.0
 40
42.0
 40
42.0
 40
43.0
 40
43.0
 40
43.0
 40
43.0
 10
-81.42941162265261
 20
-24.68355523124865
 30
0.0
 10
-82.38147294249648
 20
-24.88628465260868
 30
0.0
 10
-83.35688649382811
 20
-25.06468883283948
 30
0.0
 10
-84.32772117623789
 20
-25.24790082543363
 30
0.0
 10
-85.25997888801049
 20
-25.42390109948242
 30
0.0
 10
-86.19864701627415
 20
-25.59125875844856
 30
0.0
 10
-87.14693076925939
 20
-25.74905802854547
 30
0.0
 10
-89.13564801221868
 20
-26.07999577961911
 30
0.0
 10
-91.15653180932472
 20
-26.3692658235362
 30
0.0
 10
-93.20569012200776
 20
-26.61881417958481
 30
0.0
 10
-93.59970179242928
 20
-26.66683506736664
 30
0.0
 10
-93.98798987670669
 20
-26.72304068334042
 30
0.0
 10
-94.38394756642017
 20
-26.76797083460034
 30
0.0
 10
-94.38406203814157
 20
-26.76797083460034
 30
0.0
 10
-94.38406203814157
 20
-26.76797083460034
 30
0.0
 10
-94.38406203814157
 20
-26.76797083460034
 30
0.0
 10
-94.52532014427438
 20
-26.78399687581237
 30
0.0
 10
-94.66302962699394
 20
-26.80563203145421
 30
0.0
 10
-94.80463114829097
 20
-26.82125742163559
 30
0.0
 10
-95.40537875037843
 20
-26.88765102095331
 30
0.0
 10
-96.01734458131394
 20
-26.93395483288921
 30
0.0
 10
-96.62209869370411
 20
-26.99330842124432
 30
0.0
 10
-97.56408650192927
 20
-27.08568710167075
 30
0.0
 10
-98.50160991295975
 20
-27.18602156684571
 30
0.0
 10
-99.45264098729825
 20
-27.26128672469146
 30
0.0
 10
-100.2756926753704
 20
-27.32607771988529
 30
0.0
 10
-101.1035521758065
 20
-27.38457277031583
 30
0.0
 10
-101.9349602996521
 20
-27.43677187598372
 30
0.0
 10
-105.1539051492457
 20
-27.63829934425436
 30
0.0
 10
-108.4085651764019
 20
-27.74046535699344
 30
0.0
 10
-111.6085077199829
 20
-27.74046535699344
 30
0.0
 10
-113.1052254976651
 20
-27.74046535699344
 30
0.0
 10
-114.6160232972718
 20
-27.7115612469462
 30
0.0
 10
-116.1286526444452
 20
-27.66691727499233
 30
0.0
 10
-116.9248034776215
 20
-27.64345057178703
 30
0.0
 10
-117.7185504046152
 20
-27.60143944946244
 30
0.0
 10
-118.5153880681288
 20
-27.56566703603724
 30
0.0
 10
-119.5284628163136
 20
-27.52022176202207
 30
0.0
 10
-120.5425678100013
 20
-27.4838769899822
 30
0.0
 10
-121.552322878217
 20
-27.41879981547911
 30
0.0
 10
-121.552322878217
 20
-27.41879981547911
 30
0.0
 10
-121.5530097085575
 20
-27.41874257962034
 30
0.0
 10
-121.5530097085575
 20
-27.41874257962034
 30
0.0
 10
-122.2939851712686
 20
-27.37135128631644
 30
0.0
 10
-123.0310685953952
 20
-27.31920941650733
 30
0.0
 10
-123.7641455092235
 20
-27.2614011964135
 30
0.0
 10
-124.8799013929001
 20
-27.17320073387377
 30
0.0
 10
-125.9816917263742
 20
-27.0589007185001
 30
0.0
 10
-127.0847412488029
 20
-26.94700460930843
 30
0.0
 10
-131.656398448597
 20
-26.4832796596006
 30
0.0
 10
-136.1041972441477
 20
-25.81716870370784
 30
0.0
 10
-140.3717030760427
 20
-24.95914590427308
 30
0.0
 10
-140.8418384422314
 20
-24.86464949696685
 30
0.0
 10
-141.3234209807185
 20
-24.78228709230035
 30
0.0
 10
-141.7889774779892
 20
-24.68309734435537
 30
0.0
 10
-141.7889774779892
 20
-24.68309734435537
 30
0.0
 10
-141.7920682145117
 20
-24.68241051401867
 30
0.0
 10
-141.7920682145117
 20
-24.68241051401867
 30
0.0
 10
-161.9400072289884
 20
-20.38966366721426
 30
0.0
 10
-172.4818226679599
 20
-12.85044152144628
 30
0.0
 10
-172.4818226679599
 20
-7.621315980838165
 30
0.0
 10
-172.4818226679599
 20
-3.328626369897024
 30
0.0
 10
-165.352981648998
 20
2.639700321714249
 30
0.0
 10
-149.5588601455223
 20
6.9219730058693
 30
0.0
 10
-149.3027869012638
 20
4.639006199044278
 30
0.0
 10
-148.9711623198541
 20
2.536618535188619
 30
0.0
 10
-148.56707713781
 20
0.6381050099236181
 30
0.0
 10
-148.56707713781
 20
0.6381050099236181
 30
0.0
 10
-148.0936220916528
 20
-1.586023331298983
 30
0.0
 10
-148.0936220916528
 20
-1.586023331298983
 30
0.0
 10
-148.0936220916528
 20
-1.586023331298983
 30
0.0
 10
-146.8450790093458
 20
-1.933044359447284
 30
0.0
 10
-146.8450790093458
 20
-1.933044359447284
 30
0.0
 10
-146.8450790093458
 20
-1.933044359447284
 30
0.0
 10
-145.9026333142268
 20
-2.194955661578412
 30
0.0
 10
-145.9026333142268
 20
-2.194955661578412
 30
0.0
 10
-144.813434870278
 20
-2.497676132941523
 30
0.0
 10
-141.8045456323118
 20
-3.291709239241844
 30
0.0
 10
-137.4003605632058
 20
-4.124719967210027
 30
0.0
 10
-136.8189586823034
 20
-4.234670057113619
 30
0.0
 10
-136.2275977614973
 20
-4.33013947405811
 30
0.0
 10
-135.6412735965057
 20
-4.433278496446363
 30
0.0
 10
-135.6412735965057
 20
-4.433278496446363
 30
0.0
 10
-135.6206686863724
 20
-4.436884355717755
 30
0.0
 10
-135.6206686863724
 20
-4.436884355717755
 30
0.0
 10
-133.1184312942226
 20
-4.876741951188971
 30
0.0
 10
-130.5770445728197
 20
-5.254040750057919
 30
0.0
 10
-128.0092148834148
 20
-5.566949204764333
 30
0.0
 10
-126.1756068250676
 20
-5.790340772120233
 30
0.0
 10
-124.3343291612811
 20
-5.992268891418317
 30
0.0
 10
-122.48366481621
 20
-6.148751736701231
 30
0.0
 10
-118.4041215534144
 20
-6.493368858667533
 30
0.0
 10
-114.3007681722422
 20
-6.668109943764314
 30
0.0
 10
-110.2876185087643
 20
-6.668109943764314
 30
0.0
 10
-106.4035929487826
 20
-6.668109943764314
 30
0.0
 10
-102.531014561097
 20
-6.504014728904754
 30
0.0
 10
-98.77737229356435
 20
-6.180345932239726
 30
0.0
 10
-96.96631516463911
 20
-6.024149266262864
 30
0.0
 10
-95.1757484741225
 20
-5.816268617370161
 30
0.0
 10
-93.3972013145159
 20
-5.584806793547547
 30
0.0
 10
-91.03576414160437
 20
-5.277507453263228
 30
0.0
 10
-88.70924084419733
 20
-4.907763788108946
 30
0.0
 10
-86.43010884009354
 20
-4.471454816052919
 30
0.0
 10
-86.40389481553823
 20
-4.466475296104907
 30
0.0
 10
-86.37813867787231
 20
-4.46080894581634
 30
0.0
 10
-86.35203912503515
 20
-4.455829425868328
 30
0.0
 10
-85.46957661274847
 20
-4.286239568304216
 30
0.0
 10
-84.58574043978517
 20
-4.118252314863361
 30
0.0
 10
-83.71873161009906
 20
-3.929774623011298
 30
0.0
 10
-81.54457017594699
 20
-3.457120878916043
 30
0.0
 10
-79.39627935118611
 20
-2.922194517530349
 30
0.0
 10
-77.33349890347304
 20
-2.339934098703384
 30
0.0
 10
-77.33349890347304
 20
-2.339934098703384
 30
0.0
 10
-76.41658040257643
 20
-2.081056297232187
 30
0.0
 10
-76.41658040257643
 20
-2.081056297232187
 30
0.0
 10
-76.41658040257643
 20
-2.081056297232187
 30
0.0
 10
-75.16322950790549
 20
-1.727224201568547
 30
0.0
 10
-75.16322950790549
 20
-1.727224201568547
 30
0.0
 10
-75.16322950790549
 20
-1.727224201568547
 30
0.0
 10
-74.6864547817823
 20
0.4769860598607247
 30
0.0
 10
-74.6864547817823
 20
0.4769860598607247
 30
0.0
 10
-74.26611461508018
 20
2.420086321216967
 30
0.0
 10
-73.92258497448124
 20
4.576561874170464
 30
0.0
 10
-73.6589565965048
 20
6.922144713453316
 30
0.0
 10
-57.86266013029443
 20
2.639700321714249
 30
0.0
 10
-50.73530724373057
 20
-3.328454662312366
 30
0.0
 10
-50.73530724373057
 20
-7.621315980838165
 30
0.0
 10
-50.73530724373057
 20
-12.85095664419897
 30
0.0
 10
-61.27861081510072
 20
-20.3909800920289
 30
0.0
 10
-81.42941162265261
 20
-24.68355523124865
 30
0.0
  0
SPLINE
  5
7E
330
79
100
AcDbEntity
  8
Layer 1
100
AcDbSpline
210
0.0
220
0.0
230
1.0
 70
     9
 71
     3
 72
    53
 73
    49
 74
     0
 42
0.0000000001
 43
0.0000000001
 40
0.0
 40
0.0
 40
0.0
 40
0.0
 40
1.0
 40
1.0
 40
1.0
 40
2.0
 40
2.0
 40
2.0
 40
3.0
 40
3.0
 40
3.0
 40
4.0
 40
4.0
 40
4.0
 40
5.0
 40
5.0
 40
5.0
 40
6.0
 40
6.0
 40
6.0
 40
7.0
 40
7.0
 40
7.0
 40
8.0
 40
8.0
 40
8.0
 40
9.0
 40
9.0
 40
9.0
 40
10.0
 40
10.0
 40
10.0
 40
11.0
 40
11.0
 40
11.0
 40
12.0
 40
12.0
 40
12.0
 40
13.0
 40
13.0
 40
13.0
 40
14.0
 40
14.0
 40
14.0
 40
15.0
 40
15.0
 40
15.0
 40
16.0
 40
16.0
 40
16.0
 40
16.0
 10
-81.9920401409923
 20
-31.24158300367952
 30
0.0
 10
-82.59667978166042
 20
-32.11631867466752
 30
0.0
 10
-83.34738534082152
 20
-32.89232248460382
 30
0.0
 10
-84.21141790571352
 20
-33.53811470967195
 30
0.0
 10
-85.93925409205025
 20
-34.82981363153797
 30
0.0
 10
-88.12062724474511
 20
-35.60095239324379
 30
0.0
 10
-90.49477077890331
 20
-35.60095239324379
 30
0.0
 10
-92.32860778069715
 20
-35.60095239324379
 30
0.0
 10
-94.04682834230591
 20
-35.13986029316846
 30
0.0
 10
-95.53038187184808
 20
-34.33426554284822
 30
0.0
 10
-96.27215863662112
 20
-33.93143954976064
 30
0.0
 10
-96.95509693579106
 20
-33.44258805686485
 30
0.0
 10
-97.56477333226662
 20
-32.88213450125667
 30
0.0
 10
-97.62109341996179
 20
-32.83033604661943
 30
0.0
 10
-97.66814129809766
 20
-32.77018115620622
 30
0.0
 10
-97.72320219684083
 20
-32.71718074847638
 30
0.0
 10
-97.85759199959569
 20
-32.58794217325803
 30
0.0
 10
-97.98316747968002
 20
-32.45114846432117
 30
0.0
 10
-98.10965873355154
 20
-32.31492711400026
 30
0.0
 10
-98.49268111856847
 20
-31.90254273204282
 30
0.0
 10
-98.85258021555133
 20
-31.47075539304217
 30
0.0
 10
-99.15799077240251
 20
-31.00073449857491
 30
0.0
 10
-98.71761805418181
 20
-30.96593509479632
 30
0.0
 10
-98.29006616893368
 20
-30.91510964980184
 30
0.0
 10
-97.85232630033776
 20
-30.87676162261062
 30
0.0
 10
-97.28683598892281
 20
-30.82713813070875
 30
0.0
 10
-96.72615348987186
 20
-30.77196276024355
 30
0.0
 10
-96.16547099082024
 20
-30.71655844633172
 30
0.0
 10
-94.90250447142129
 20
-30.59172703244286
 30
0.0
 10
-93.65544952151301
 20
-30.44903802977464
 30
0.0
 10
-92.41675100737747
 20
-30.29793535547104
 30
0.0
 10
-92.21917281354945
 20
-30.27383905778779
 30
0.0
 10
-92.02296828039937
 20
-30.24865527873719
 30
0.0
 10
-91.82607691691192
 20
-30.22387215071789
 30
0.0
 10
-89.51443494348628
 20
-29.93282779509609
 30
0.0
 10
-87.24537645100442
 20
-29.60011573231517
 30
0.0
 10
-85.04683253986435
 20
-29.20988162875226
 30
0.0
 10
-84.89824824346413
 20
-29.18349589660905
 30
0.0
 10
-84.75767696767187
 20
-29.15144381418049
 30
0.0
 10
-84.60966502988375
 20
-29.12465743100984
 30
0.0
 10
-84.36761457168975
 20
-29.08087199697734
 30
0.0
 10
-84.13569486097706
 20
-29.0298748443982
 30
0.0
 10
-83.89473188414786
 20
-28.98528810830696
 30
0.0
 10
-82.80038221266641
 20
-28.78273039453159
 30
0.0
 10
-81.7084936832264
 20
-28.57816942560422
 30
0.0
 10
-80.648027641737
 20
-28.35231671620755
 30
0.0
 10
-80.9283688912628
 20
-29.39332256478983
 30
0.0
 10
-81.38728602860279
 20
-30.36684733269152
 30
0.0
 10
-81.9920401409923
 20
-31.24158300367952
 30
0.0
  0
SPLINE
  5
7F
330
79
100
AcDbEntity
  8
Layer 1
100
AcDbSpline
210
0.0
220
0.0
230
1.0
 70
     9
 71
     3
 72
    74
 73
    70
 74
     0
 42
0.0000000001
 43
0.0000000001
 40
0.0
 40
0.0
 40
0.0
 40
0.0
 40
1.0
 40
1.0
 40
1.0
 40
2.0
 40
2.0
 40
2.0
 40
3.0
 40
3.0
 40
3.0
 40
4.0
 40
4.0
 40
4.0
 40
5.0
 40
5.0
 40
5.0
 40
6.0
 40
6.0
 40
6.0
 40
7.0
 40
7.0
 40
7.0
 40
8.0
 40
8.0
 40
8.0
 40
9.0
 40
9.0
 40
9.0
 40
10.0
 40
10.0
 40
10.0
 40
11.0
 40
11.0
 40
11.0
 40
12.0
 40
12.0
 40
12.0
 40
13.0
 40
13.0
 40
13.0
 40
14.0
 40
14.0
 40
14.0
 40
15.0
 40
15.0
 40
15.0
 40
16.0
 40
16.0
 40
16.0
 40
17.0
 40
17.0
 40
17.0
 40
18.0
 40
18.0
 40
18.0
 40
19.0
 40
19.0
 40
19.0
 40
20.0
 40
20.0
 40
20.0
 40
21.0
 40
21.0
 40
21.0
 40
22.0
 40
22.0
 40
22.0
 40
23.0
 40
23.0
 40
23.0
 40
23.0
 10
-105.8822887224315
 20
-37.58394605005638
 30
0.0
 10
-106.3326204805482
 20
-37.88638034211344
 30
0.0
 10
-106.8074491873794
 20
-38.15830792000001
 30
0.0
 10
-107.3080340318798
 20
-38.38896844176131
 30
0.0
 10
-108.6479255491078
 20
-39.00648615126014
 30
0.0
 10
-110.15322870601
 20
-39.35293482079763
 30
0.0
 10
-111.7450724854725
 20
-39.35293482079763
 30
0.0
 10
-112.0638762339109
 20
-39.35293482079763
 30
0.0
 10
-112.3792458306619
 20
-39.33902650645384
 30
0.0
 10
-112.6903799736636
 20
-39.31183947225253
 30
0.0
 10
-113.6237824026701
 20
-39.23027836964349
 30
0.0
 10
-114.5203249368768
 20
-39.02915155240736
 30
0.0
 10
-115.3629512895768
 20
-38.72477124106158
 30
0.0
 10
-116.2055776422743
 20
-38.42039092971578
 30
0.0
 10
-116.9940588700107
 20
-38.01269988839774
 30
0.0
 10
-117.7117965729631
 20
-37.51818204521658
 30
0.0
 10
-117.9210508825292
 20
-37.37389043842832
 30
0.0
 10
-118.1217198128753
 20
-37.21906743312486
 30
0.0
 10
-118.3184967046413
 20
-37.06040962510659
 30
0.0
 10
-118.3186111763627
 20
-37.06035238924461
 30
0.0
 10
-118.318725648088
 20
-37.06035238924461
 30
0.0
 10
-118.318725648088
 20
-37.06029515338135
 30
0.0
 10
-118.5717081558239
 20
-36.85642101479518
 30
0.0
 10
-118.8165631712345
 20
-36.64407596870652
 30
0.0
 10
-119.0472236929951
 20
-36.41799431586321
 30
0.0
 10
-119.4573758763539
 20
-36.01591238897047
 30
0.0
 10
-119.8308971083675
 20
-35.58000406794573
 30
0.0
 10
-120.1628651049504
 20
-35.11519163687055
 30
0.0
 10
-120.5511531892239
 20
-34.57145095281882
 30
0.0
 10
-120.8743068631362
 20
-33.98421101403999
 30
0.0
 10
-121.1404536190128
 20
-33.36903997486439
 30
0.0
 10
-121.2155470692746
 20
-33.19538637113496
 30
0.0
 10
-121.2936167843336
 20
-33.02310642808344
 30
0.0
 10
-121.358178836084
 20
-32.84453054026863
 30
0.0
 10
-121.5536965388942
 20
-32.30382335687298
 30
0.0
 10
-121.6999914008338
 20
-31.74136654611795
 30
0.0
 10
-121.7919121943696
 20
-31.16213962794706
 30
0.0
 10
-121.1197342371582
 20
-31.20546717508628
 30
0.0
 10
-120.4337052014689
 20
-31.22595761349428
 30
0.0
 10
-119.7562615449997
 20
-31.26098596072016
 30
0.0
 10
-118.7530313649926
 20
-31.31289888708199
 30
0.0
 10
-117.7552958276863
 20
-31.37437020231049
 30
0.0
 10
-116.7414197774427
 20
-31.40745253024699
 30
0.0
 10
-116.4510050162989
 20
-31.41695368325359
 30
0.0
 10
-116.1547521972792
 20
-31.41392018259366
 30
0.0
 10
-115.863536134074
 20
-31.421818731477
 30
0.0
 10
-114.4745362476962
 20
-31.46440221242011
 30
0.0
 10
-113.0774088689858
 20
-31.48981493491414
 30
0.0
 10
-111.6697500917641
 20
-31.49050176525405
 30
0.0
 10
-111.6690632614268
 20
-31.49050176525405
 30
0.0
 10
-111.668490902816
 20
-31.49055900111346
 30
0.0
 10
-111.6679185441968
 20
-31.49055900111346
 30
0.0
 10
-111.6480004644041
 20
-31.49055900111346
 30
0.0
 10
-111.6284257997788
 20
-31.49153201075943
 30
0.0
 10
-111.6085077199829
 20
-31.49153201075943
 30
0.0
 10
-109.9332140544853
 20
-31.49153201075943
 30
0.0
 10
-108.2679939006102
 20
-31.46457392000476
 30
0.0
 10
-106.6157090514285
 20
-31.41220310674837
 30
0.0
 10
-105.5551285382132
 20
-31.37860565605917
 30
0.0
 10
-104.5097727641564
 20
-31.3175922277246
 30
0.0
 10
-103.4605249515227
 20
-31.26344710276478
 30
0.0
 10
-103.4605249515227
 20
-31.26344710276478
 30
0.0
 10
-102.3034447758582
 20
-33.044283696832
 30
0.0
 10
-102.3034447758582
 20
-33.044283696832
 30
0.0
 10
-102.285587187075
 20
-33.07181414620198
 30
0.0
 10
-102.265440163835
 20
-33.09734134042061
 30
0.0
 10
-102.2474681033311
 20
-33.12470008220657
 30
0.0
 10
-102.9696702034756
 20
-34.93358224839966
 30
0.0
 10
-104.2433970648331
 20
-36.48341490553433
 30
0.0
 10
-105.8822887224315
 20
-37.58394605005638
 30
0.0
  0
SPLINE
  5
80
330
79
100
AcDbEntity
  8
Layer 1
100
AcDbSpline
210
0.0
220
0.0
230
1.0
 70
     9
 71
     3
 72
    53
 73
    49
 74
     0
 42
0.0000000001
 43
0.0000000001
 40
0.0
 40
0.0
 40
0.0
 40
0.0
 40
1.0
 40
1.0
 40
1.0
 40
2.0
 40
2.0
 40
2.0
 40
3.0
 40
3.0
 40
3.0
 40
4.0
 40
4.0
 40
4.0
 40
5.0
 40
5.0
 40
5.0
 40
6.0
 40
6.0
 40
6.0
 40
7.0
 40
7.0
 40
7.0
 40
8.0
 40
8.0
 40
8.0
 40
9.0
 40
9.0
 40
9.0
 40
10.0
 40
10.0
 40
10.0
 40
11.0
 40
11.0
 40
11.0
 40
12.0
 40
12.0
 40
12.0
 40
13.0
 40
13.0
 40
13.0
 40
14.0
 40
14.0
 40
14.0
 40
15.0
 40
15.0
 40
15.0
 40
16.0
 40
16.0
 40
16.0
 40
16.0
 10
-125.9507843611756
 20
-33.13380058418251
 30
0.0
 10
-126.164617539663
 20
-33.32159144569722
 30
0.0
 10
-126.3868071539256
 20
-33.50062522040211
 30
0.0
 10
-126.6202149970376
 20
-33.6673532848903
 30
0.0
 10
-126.9599670707766
 20
-33.90997610170283
 30
0.0
 10
-127.3162030726261
 20
-34.13285254630283
 30
0.0
 10
-127.686976983289
 20
-34.33426554284822
 30
0.0
 10
-128.4287537480588
 20
-34.73703430008088
 30
0.0
 10
-129.229254506709
 20
-35.05372032164271
 30
0.0
 10
-130.0735979352511
 20
-35.26972846286859
 30
0.0
 10
-130.917826892068
 20
-35.48567936822801
 30
0.0
 10
-131.806012990502
 20
-35.60095239324379
 30
0.0
 10
-132.7230459631245
 20
-35.60095239324379
 30
0.0
 10
-133.9103466736502
 20
-35.60095239324379
 30
0.0
 10
-135.0493403170881
 20
-35.40818201178428
 30
0.0
 10
-136.1075169241137
 20
-35.05389202922672
 30
0.0
 10
-136.9011493793865
 20
-34.78820316024018
 30
0.0
 10
-137.6493365606429
 20
-34.43168097908529
 30
0.0
 10
-138.3383418611296
 20
-33.99754696976462
 30
0.0
 10
-138.7977168853635
 20
-33.70810521826737
 30
0.0
 10
-139.2306489415909
 20
-33.38426471401447
 30
0.0
 10
-139.6333604629609
 20
-33.02974578801413
 30
0.0
 10
-140.2373132732885
 20
-32.49802463487302
 30
0.0
 10
-140.7729264650109
 20
-31.89750597623218
 30
0.0
 10
-141.226577903093
 20
-31.24135406023288
 30
0.0
 10
-141.3776805773998
 20
-31.02265583352279
 30
0.0
 10
-141.519854457316
 20
-30.79771889790562
 30
0.0
 10
-141.652183769053
 20
-30.56717284786955
 30
0.0
 10
-141.850906680111
 20
-30.22129653695123
 30
0.0
 10
-142.0278799638057
 20
-29.86271386478301
 30
0.0
 10
-142.1815010160159
 20
-29.49291296376546
 30
0.0
 10
-142.3351220682268
 20
-29.12311206274856
 30
0.0
 10
-142.4653908889499
 20
-28.74215016874239
 30
0.0
 10
-142.5704759306269
 20
-28.35174435759224
 30
0.0
 10
-139.6971212126487
 20
-28.96393913197439
 30
0.0
 10
-136.7013962228232
 20
-29.49720565337741
 30
0.0
 10
-133.6080268533178
 20
-29.94187106120941
 30
0.0
 10
-131.019592253779
 20
-30.31401863254954
 30
0.0
 10
-128.349997202663
 20
-30.60821096054882
 30
0.0
 10
-125.6394212747305
 20
-30.8507193056393
 30
0.0
 10
-125.6394212747305
 20
-30.8507193056393
 30
0.0
 10
-125.4965605644783
 20
-31.75040981223063
 30
0.0
 10
-125.4965605644783
 20
-31.75040981223063
 30
0.0
 10
-125.4535191966445
 20
-32.0210209653032
 30
0.0
 10
-125.3904452772933
 20
-32.2835618619084
 30
0.0
 10
-125.3317212834155
 20
-32.54787707022153
 30
0.0
 10
-125.5314744399782
 20
-32.74946177435158
 30
0.0
 10
-125.736951182689
 20
-32.94600972267036
 30
0.0
 10
-125.9507843611756
 20
-33.13380058418251
 30
0.0
  0
SPLINE
  5
81
330
79
100
AcDbEntity
  8
Layer 1
100
AcDbSpline
210
0.0
220
0.0
230
1.0
 70
     9
 71
     3
 72
    80
 73
    76
 74
     0
 42
0.0000000001
 43
0.0000000001
 40
0.0
 40
0.0
 40
0.0
 40
0.0
 40
1.0
 40
1.0
 40
1.0
 40
2.0
 40
2.0
 40
2.0
 40
3.0
 40
3.0
 40
3.0
 40
4.0
 40
4.0
 40
4.0
 40
5.0
 40
5.0
 40
5.0
 40
6.0
 40
6.0
 40
6.0
 40
7.0
 40
7.0
 40
7.0
 40
8.0
 40
8.0
 40
8.0
 40
9.0
 40
9.0
 40
9.0
 40
10.0
 40
10.0
 40
10.0
 40
11.0
 40
11.0
 40
11.0
 40
12.0
 40
12.0
 40
12.0
 40
13.0
 40
13.0
 40
13.0
 40
14.0
 40
14.0
 40
14.0
 40
15.0
 40
15.0
 40
15.0
 40
16.0
 40
16.0
 40
16.0
 40
17.0
 40
17.0
 40
17.0
 40
18.0
 40
18.0
 40
18.0
 40
19.0
 40
19.0
 40
19.0
 40
20.0
 40
20.0
 40
20.0
 40
21.0
 40
21.0
 40
21.0
 40
22.0
 40
22.0
 40
22.0
 40
23.0
 40
23.0
 40
23.0
 40
24.0
 40
24.0
 40
24.0
 40
25.0
 40
25.0
 40
25.0
 40
25.0
 10
-128.0092148834148
 20
27.4184784167555
 30
0.0
 10
-123.1480586962601
 20
29.1723569200642
 30
0.0
 10
-117.5334496285917
 20
30.19161314128711
 30
0.0
 10
-111.6085077199829
 20
30.19161314128711
 30
0.0
 10
-104.9344628563363
 20
30.19161314128711
 30
0.0
 10
-98.64882054868271
 20
28.90386349386437
 30
0.0
 10
-93.3972013145159
 20
26.72260481289157
 30
0.0
 10
-84.63393303515486
 20
23.08274743798055
 30
0.0
 10
-78.75065883369813
 20
16.95444651353379
 30
0.0
 10
-78.75065883369813
 20
10.16753253104952
 30
0.0
 10
-78.75065883369813
 20
8.150884187688975
 30
0.0
 10
-78.83548238041375
 20
6.262558645767275
 30
0.0
 10
-79.00272556765464
 20
4.555327369563138
 30
0.0
 10
-79.06299492979373
 20
3.940213566246302
 30
0.0
 10
-79.13888968211357
 20
3.35308809919272
 30
0.0
 10
-79.22394217227196
 20
2.78301891885976
 30
0.0
 10
-79.22394217227196
 20
2.78301891885976
 30
0.0
 10
-79.39444780361942
 20
1.791121439422814
 30
0.0
 10
-79.39444780361942
 20
1.791121439422814
 30
0.0
 10
-79.44407129552129
 20
1.512783445048355
 30
0.0
 10
-79.48820014472246
 20
1.223856816299939
 30
0.0
 10
-79.54245974140369
 20
0.9545620880420107
 30
0.0
 10
-79.54097160900566
 20
0.9549627390733062
 30
0.0
 10
-79.53954071246963
 20
0.9553633901039601
 30
0.0
 10
-79.53805258007098
 20
0.9557640411314054
 30
0.0
 10
-79.53805258007098
 20
0.9557640411314054
 30
0.0
 10
-79.53805258007098
 20
0.9556495694093698
 30
0.0
 10
-79.53805258007098
 20
0.9556495694093698
 30
0.0
 10
-79.53954071246963
 20
0.9552489183787161
 30
0.0
 10
-79.54097160900566
 20
0.9549055032106842
 30
0.0
 10
-79.54245974140369
 20
0.9545048521793887
 30
0.0
 10
-80.17491601074848
 20
0.7843998718625873
 30
0.0
 10
-80.8079446387105
 20
0.6083995978144312
 30
0.0
 10
-81.43937066254927
 20
0.4515161015008636
 30
0.0
 10
-82.46686884782356
 20
0.1961869234416456
 30
0.0
 10
-83.49253548553436
 20
-0.0419714961749142
 30
0.0
 10
-84.51556927361266
 20
-0.2643900538809981
 30
0.0
 10
-85.36781125104068
 20
-0.4496625374891139
 30
0.0
 10
-86.21513094437689
 20
-0.6086637606792693
 30
0.0
 10
-87.06313746805301
 20
-0.7716714941714712
 30
0.0
 10
-89.14228737215001
 20
-1.025627011557278
 30
0.0
 10
-91.25772481242425
 20
-1.237685878336044
 30
0.0
 10
-93.3972013145159
 20
-1.420325512315523
 30
0.0
 10
-98.82327545447346
 20
-1.883420867545409
 30
0.0
 10
-104.4298715015306
 20
-2.124154900927983
 30
0.0
 10
-110.1926069787098
 20
-2.124154900927983
 30
0.0
 10
-114.5709214384285
 20
-2.124154900927983
 30
0.0
 10
-118.6981421738328
 20
-1.987418427850532
 30
0.0
 10
-122.5013506974086
 20
-1.774901674178491
 30
0.0
 10
-122.5013506974086
 20
-1.774901674178491
 30
0.0
 10
-133.4085598760605
 20
-0.9034856831596815
 30
0.0
 10
-133.4085598760605
 20
-0.9034856831596815
 30
0.0
 10
-134.0501738832425
 20
-0.8362907817838529
 30
0.0
 10
-134.6766776229921
 20
-0.7685235217901461
 30
0.0
 10
-135.2779403478354
 20
-0.7001839031843362
 30
0.0
 10
-135.2780548195568
 20
-0.7001266673255645
 30
0.0
 10
-135.2781692912821
 20
-0.7001266673255645
 30
0.0
 10
-135.2783982347255
 20
-0.7000694314629424
 30
0.0
 10
-135.768108265542
 20
-0.6128992144279536
 30
0.0
 10
-136.24476851994
 20
-0.5257289973974567
 30
0.0
 10
-136.7033422421119
 20
-0.4390166672563855
 30
0.0
 10
-139.3609177623178
 20
0.0636286682579581
 30
0.0
 10
-141.4857418838741
 20
0.5493321887685809
 30
0.0
 10
-142.9629994686497
 20
0.9144397491467334
 30
0.0
 10
-143.2346408672341
 20
0.9815774146592982
 30
0.0
 10
-143.4783511654108
 20
1.043392145055819
 30
0.0
 10
-143.7054630637633
 20
1.101715487906193
 30
0.0
 10
-143.9156331471121
 20
2.175116834085709
 30
0.0
 10
-144.0929498459756
 20
3.31456836441364
 30
0.0
 10
-144.2142898723106
 20
4.555212897841744
 30
0.0
 10
-144.3821054181706
 20
6.26708027882201
 30
0.0
 10
-144.4671579083252
 20
8.155348584884938
 30
0.0
 10
-144.4671579083252
 20
10.16753253104952
 30
0.0
 10
-144.4671579083252
 20
17.41101698055438
 30
0.0
 10
-137.7612899056973
 20
23.8999038323175
 30
0.0
 10
-128.0092148834148
 20
27.4184784167555
 30
0.0
  0
SPLINE
  5
82
330
79
100
AcDbEntity
  8
Layer 1
100
AcDbSpline
210
0.0
220
0.0
230
1.0
 70
    11
 71
     3
 72
    53
 73
    49
 74
     0
 42
0.0000000001
 43
0.0000000001
 40
0.0
 40
0.0
 40
0.0
 40
0.0
 40
1.0
 40
1.0
 40
1.0
 40
2.0
 40
2.0
 40
2.0
 40
3.0
 40
3.0
 40
3.0
 40
4.0
 40
4.0
 40
4.0
 40
5.0
 40
5.0
 40
5.0
 40
6.0
 40
6.0
 40
6.0
 40
7.0
 40
7.0
 40
7.0
 40
8.0
 40
8.0
 40
8.0
 40
9.0
 40
9.0
 40
9.0
 40
10.0
 40
10.0
 40
10.0
 40
11.0
 40
11.0
 40
11.0
 40
12.0
 40
12.0
 40
12.0
 40
13.0
 40
13.0
 40
13.0
 40
14.0
 40
14.0
 40
14.0
 40
15.0
 40
15.0
 40
15.0
 40
16.0
 40
16.0
 40
16.0
 40
16.0
 10
-93.3972013145159
 20
88.98732355342836
 30
0.0
 10
-93.3972013145159
 20
88.98732355342836
 30
0.0
 10
-93.3972013145159
 20
57.98013901221204
 30
0.0
 10
-93.3972013145159
 20
30.78875488409998
 30
0.0
 10
-93.97173489204801
 20
31.00327489292336
 30
0.0
 10
-94.55576962257842
 20
31.20823651288138
 30
0.0
 10
-95.14884761922981
 20
31.40323909293888
 30
0.0
 10
-96.92808160916994
 20
31.9881895972571
 30
0.0
 10
-98.78916288103155
 20
32.48316532733154
 30
0.0
 10
-100.7221323949071
 20
32.87368561020372
 30
0.0
 10
-104.1610918960293
 20
33.56835726097826
 30
0.0
 10
-107.8175476707676
 20
33.94262255919112
 30
0.0
 10
-111.6085077199829
 20
33.94262255919112
 30
0.0
 10
-112.2402771589897
 20
33.94262255919112
 30
0.0
 10
-112.8684979745884
 20
33.93220563240054
 30
0.0
 10
-113.4923688647125
 20
33.91165795812991
 30
0.0
 10
-114.1162397548366
 20
33.8911102838593
 30
0.0
 10
-114.7362186063775
 20
33.86043186210478
 30
0.0
 10
-115.3515041172822
 20
33.81985163631944
 30
0.0
 10
-119.8651241535352
 20
33.52211068490049
 30
0.0
 10
-124.131599739921
 20
32.68652434316565
 30
0.0
 10
-128.0092148834148
 20
31.42201245550543
 30
0.0
 10
-128.0092148834148
 20
31.42201245550543
 30
0.0
 10
-128.0092148834148
 20
88.98732355342836
 30
0.0
 10
-128.0092148834148
 20
88.98732355342836
 30
0.0
 10
-128.0092148834148
 20
88.98732355342836
 30
0.0
 10
-181.8301559233644
 20
88.98732355342836
 30
0.0
 10
-181.8301559233644
 20
88.98732355342836
 30
0.0
 10
-181.8301559233644
 20
88.98732355342836
 30
0.0
 10
-181.8301559233644
 20
-24.50400633378851
 30
0.0
 10
-181.8301559233644
 20
-24.50400633378851
 30
0.0
 10
-181.8301559233644
 20
-44.86486275296846
 30
0.0
 10
-175.1116960312086
 20
-59.82356962229267
 30
0.0
 10
-161.8638835332219
 20
-68.9651097101763
 30
0.0
 10
-148.9685294702248
 20
-77.86780454810283
 30
0.0
 10
-131.7542717717274
 20
-82.38176799952393
 30
0.0
 10
-110.704638995501
 20
-82.38176799952393
 30
0.0
 10
-90.65091020902077
 20
-82.38176799952393
 30
0.0
 10
-74.0948649175334
 20
-77.66828033498611
 30
0.0
 10
-61.49656497561148
 20
-68.37392049695742
 30
0.0
 10
-48.61574882143226
 20
-58.87127935900216
 30
0.0
 10
-42.08651068732337
 20
-43.22820329397133
 30
0.0
 10
-42.08651068732337
 20
-21.87859736773255
 30
0.0
 10
-42.08651068732337
 20
-21.87859736773255
 30
0.0
 10
-42.08651068732337
 20
88.98732355342836
 30
0.0
 10
-42.08651068732337
 20
88.98732355342836
 30
0.0
 10
-42.08651068732337
 20
88.98732355342836
 30
0.0
 10
-93.3972013145159
 20
88.98732355342836
 30
0.0
 10
-93.3972013145159
 20
88.98732355342836
 30
0.0
  0
HATCH
  5
83
330
79
100
AcDbEntity
  8
Layer 1
 62
     7
440
 33554687
100
AcDbHatch
 10
0.0
 20
0.0
 30
0.0
210
0.0
220
0.0
230
1.0
  2
SOLID
 70
     1
 71
     1
 91
        6
 92
        1
 93
        1
 72
     4
 94
        3
 73
     0
 74
     0
 95
      134
 96
      130
 40
0.0
 40
0.0
 40
0.0
 40
0.0
 40
1.0
 40
1.0
 40
1.0
 40
2.0
 40
2.0
 40
2.0
 40
3.0
 40
3.0
 40
3.0
 40
4.0
 40
4.0
 40
4.0
 40
5.0
 40
5.0
 40
5.0
 40
6.0
 40
6.0
 40
6.0
 40
7.0
 40
7.0
 40
7.0
 40
8.0
 40
8.0
 40
8.0
 40
9.0
 40
9.0
 40
9.0
 40
10.0
 40
10.0
 40
10.0
 40
11.0
 40
11.0
 40
11.0
 40
12.0
 40
12.0
 40
12.0
 40
13.0
 40
13.0
 40
13.0
 40
14.0
 40
14.0
 40
14.0
 40
15.0
 40
15.0
 40
15.0
 40
16.0
 40
16.0
 40
16.0
 40
17.0
 40
17.0
 40
17.0
 40
18.0
 40
18.0
 40
18.0
 40
19.0
 40
19.0
 40
19.0
 40
20.0
 40
20.0
 40
20.0
 40
21.0
 40
21.0
 40
21.0
 40
22.0
 40
22.0
 40
22.0
 40
23.0
 40
23.0
 40
23.0
 40
24.0
 40
24.0
 40
24.0
 40
25.0
 40
25.0
 40
25.0
 40
26.0
 40
26.0
 40
26.0
 40
27.0
 40
27.0
 40
27.0
 40
28.0
 40
28.0
 40
28.0
 40
29.0
 40
29.0
 40
29.0
 40
30.0
 40
30.0
 40
30.0
 40
31.0
 40
31.0
 40
31.0
 40
32.0
 40
32.0
 40
32.0
 40
33.0
 40
33.0
 40
33.0
 40
34.0
 40
34.0
 40
34.0
 40
35.0
 40
35.0
 40
35.0
 40
36.0
 40
36.0
 40
36.0
 40
37.0
 40
37.0
 40
37.0
 40
38.0
 40
38.0
 40
38.0
 40
39.0
 40
39.0
 40
39.0
 40
40.0
 40
40.0
 40
40.0
 40
41.0
 40
41.0
 40
41.0
 40
42.0
 40
42.0
 40
42.0
 40
43.0
 40
43.0
 40
43.0
 40
43.0
 10
-81.42941162265261
 20
-24.68355523124865
 10
-82.38147294249648
 20
-24.88628465260868
 10
-83.35688649382811
 20
-25.06468883283948
 10
-84.32772117623789
 20
-25.24790082543363
 10
-85.25997888801049
 20
-25.42390109948242
 10
-86.19864701627415
 20
-25.59125875844856
 10
-87.14693076925939
 20
-25.74905802854547
 10
-89.13564801221868
 20
-26.07999577961911
 10
-91.15653180932472
 20
-26.3692658235362
 10
-93.20569012200776
 20
-26.61881417958481
 10
-93.59970179242928
 20
-26.66683506736664
 10
-93.98798987670669
 20
-26.72304068334042
 10
-94.38394756642017
 20
-26.76797083460034
 10
-94.38406203814157
 20
-26.76797083460034
 10
-94.38406203814157
 20
-26.76797083460034
 10
-94.38406203814157
 20
-26.76797083460034
 10
-94.52532014427438
 20
-26.78399687581237
 10
-94.66302962699394
 20
-26.80563203145421
 10
-94.80463114829097
 20
-26.82125742163559
 10
-95.40537875037843
 20
-26.88765102095331
 10
-96.01734458131394
 20
-26.93395483288921
 10
-96.62209869370411
 20
-26.99330842124432
 10
-97.56408650192927
 20
-27.08568710167075
 10
-98.50160991295975
 20
-27.18602156684571
 10
-99.45264098729825
 20
-27.26128672469146
 10
-100.2756926753704
 20
-27.32607771988529
 10
-101.1035521758065
 20
-27.38457277031583
 10
-101.9349602996521
 20
-27.43677187598372
 10
-105.1539051492457
 20
-27.63829934425436
 10
-108.4085651764019
 20
-27.74046535699344
 10
-111.6085077199829
 20
-27.74046535699344
 10
-113.1052254976651
 20
-27.74046535699344
 10
-114.6160232972718
 20
-27.7115612469462
 10
-116.1286526444452
 20
-27.66691727499233
 10
-116.9248034776215
 20
-27.64345057178703
 10
-117.7185504046152
 20
-27.60143944946244
 10
-118.5153880681288
 20
-27.56566703603724
 10
-119.5284628163136
 20
-27.52022176202207
 10
-120.5425678100013
 20
-27.4838769899822
 10
-121.552322878217
 20
-27.41879981547911
 10
-121.552322878217
 20
-27.41879981547911
 10
-121.5530097085575
 20
-27.41874257962034
 10
-121.5530097085575
 20
-27.41874257962034
 10
-122.2939851712686
 20
-27.37135128631644
 10
-123.0310685953952
 20
-27.31920941650733
 10
-123.7641455092235
 20
-27.2614011964135
 10
-124.8799013929001
 20
-27.17320073387377
 10
-125.9816917263742
 20
-27.0589007185001
 10
-127.0847412488029
 20
-26.94700460930843
 10
-131.656398448597
 20
-26.4832796596006
 10
-136.1041972441477
 20
-25.81716870370784
 10
-140.3717030760427
 20
-24.95914590427308
 10
-140.8418384422314
 20
-24.86464949696685
 10
-141.3234209807185
 20
-24.78228709230035
 10
-141.7889774779892
 20
-24.68309734435537
 10
-141.7889774779892
 20
-24.68309734435537
 10
-141.7920682145117
 20
-24.68241051401867
 10
-141.7920682145117
 20
-24.68241051401867
 10
-161.9400072289884
 20
-20.38966366721426
 10
-172.4818226679599
 20
-12.85044152144628
 10
-172.4818226679599
 20
-7.621315980838165
 10
-172.4818226679599
 20
-3.328626369897024
 10
-165.352981648998
 20
2.639700321714249
 10
-149.5588601455223
 20
6.9219730058693
 10
-149.3027869012638
 20
4.639006199044278
 10
-148.9711623198541
 20
2.536618535188619
 10
-148.56707713781
 20
0.6381050099236181
 10
-148.56707713781
 20
0.6381050099236181
 10
-148.0936220916528
 20
-1.586023331298983
 10
-148.0936220916528
 20
-1.586023331298983
 10
-148.0936220916528
 20
-1.586023331298983
 10
-146.8450790093458
 20
-1.933044359447284
 10
-146.8450790093458
 20
-1.933044359447284
 10
-146.8450790093458
 20
-1.933044359447284
 10
-145.9026333142268
 20
-2.194955661578412
 10
-145.9026333142268
 20
-2.194955661578412
 10
-144.813434870278
 20
-2.497676132941523
 10
-141.8045456323118
 20
-3.291709239241844
 10
-137.4003605632058
 20
-4.124719967210027
 10
-136.8189586823034
 20
-4.234670057113619
 10
-136.2275977614973
 20
-4.33013947405811
 10
-135.6412735965057
 20
-4.433278496446363
 10
-135.6412735965057
 20
-4.433278496446363
 10
-135.6206686863724
 20
-4.436884355717755
 10
-135.6206686863724
 20
-4.436884355717755
 10
-133.1184312942226
 20
-4.876741951188971
 10
-130.5770445728197
 20
-5.254040750057919
 10
-128.0092148834148
 20
-5.566949204764333
 10
-126.1756068250676
 20
-5.790340772120233
 10
-124.3343291612811
 20
-5.992268891418317
 10
-122.48366481621
 20
-6.148751736701231
 10
-118.4041215534144
 20
-6.493368858667533
 10
-114.3007681722422
 20
-6.668109943764314
 10
-110.2876185087643
 20
-6.668109943764314
 10
-106.4035929487826
 20
-6.668109943764314
 10
-102.531014561097
 20
-6.504014728904754
 10
-98.77737229356435
 20
-6.180345932239726
 10
-96.96631516463911
 20
-6.024149266262864
 10
-95.1757484741225
 20
-5.816268617370161
 10
-93.3972013145159
 20
-5.584806793547547
 10
-91.03576414160437
 20
-5.277507453263228
 10
-88.70924084419733
 20
-4.907763788108946
 10
-86.43010884009354
 20
-4.471454816052919
 10
-86.40389481553823
 20
-4.466475296104907
 10
-86.37813867787231
 20
-4.46080894581634
 10
-86.35203912503515
 20
-4.455829425868328
 10
-85.46957661274847
 20
-4.286239568304216
 10
-84.58574043978517
 20
-4.118252314863361
 10
-83.71873161009906
 20
-3.929774623011298
 10
-81.54457017594699
 20
-3.457120878916043
 10
-79.39627935118611
 20
-2.922194517530349
 10
-77.33349890347304
 20
-2.339934098703384
 10
-77.33349890347304
 20
-2.339934098703384
 10
-76.41658040257643
 20
-2.081056297232187
 10
-76.41658040257643
 20
-2.081056297232187
 10
-76.41658040257643
 20
-2.081056297232187
 10
-75.16322950790549
 20
-1.727224201568547
 10
-75.16322950790549
 20
-1.727224201568547
 10
-75.16322950790549
 20
-1.727224201568547
 10
-74.6864547817823
 20
0.4769860598607247
 10
-74.6864547817823
 20
0.4769860598607247
 10
-74.26611461508018
 20
2.420086321216967
 10
-73.92258497448124
 20
4.576561874170464
 10
-73.6589565965048
 20
6.922144713453316
 10
-57.86266013029443
 20
2.639700321714249
 10
-50.73530724373057
 20
-3.328454662312366
 10
-50.73530724373057
 20
-7.621315980838165
 10
-50.73530724373057
 20
-12.85095664419897
 10
-61.27861081510072
 20
-20.3909800920289
 10
-81.42941162265261
 20
-24.68355523124865
 97
        0
 97
        1
330
7D
 92
        1
 93
        1
 72
     4
 94
        3
 73
     0
 74
     0
 95
       53
 96
       49
 40
0.0
 40
0.0
 40
0.0
 40
0.0
 40
1.0
 40
1.0
 40
1.0
 40
2.0
 40
2.0
 40
2.0
 40
3.0
 40
3.0
 40
3.0
 40
4.0
 40
4.0
 40
4.0
 40
5.0
 40
5.0
 40
5.0
 40
6.0
 40
6.0
 40
6.0
 40
7.0
 40
7.0
 40
7.0
 40
8.0
 40
8.0
 40
8.0
 40
9.0
 40
9.0
 40
9.0
 40
10.0
 40
10.0
 40
10.0
 40
11.0
 40
11.0
 40
11.0
 40
12.0
 40
12.0
 40
12.0
 40
13.0
 40
13.0
 40
13.0
 40
14.0
 40
14.0
 40
14.0
 40
15.0
 40
15.0
 40
15.0
 40
16.0
 40
16.0
 40
16.0
 40
16.0
 10
-81.9920401409923
 20
-31.24158300367952
 10
-82.59667978166042
 20
-32.11631867466752
 10
-83.34738534082152
 20
-32.89232248460382
 10
-84.21141790571352
 20
-33.53811470967195
 10
-85.93925409205025
 20
-34.82981363153797
 10
-88.12062724474511
 20
-35.60095239324379
 10
-90.49477077890331
 20
-35.60095239324379
 10
-92.32860778069715
 20
-35.60095239324379
 10
-94.04682834230591
 20
-35.13986029316846
 10
-95.53038187184808
 20
-34.33426554284822
 10
-96.27215863662112
 20
-33.93143954976064
 10
-96.95509693579106
 20
-33.44258805686485
 10
-97.56477333226662
 20
-32.88213450125667
 10
-97.62109341996179
 20
-32.83033604661943
 10
-97.66814129809766
 20
-32.77018115620622
 10
-97.72320219684083
 20
-32.71718074847638
 10
-97.85759199959569
 20
-32.58794217325803
 10
-97.98316747968002
 20
-32.45114846432117
 10
-98.10965873355154
 20
-32.31492711400026
 10
-98.49268111856847
 20
-31.90254273204282
 10
-98.85258021555133
 20
-31.47075539304217
 10
-99.15799077240251
 20
-31.00073449857491
 10
-98.71761805418181
 20
-30.96593509479632
 10
-98.29006616893368
 20
-30.91510964980184
 10
-97.85232630033776
 20
-30.87676162261062
 10
-97.28683598892281
 20
-30.82713813070875
 10
-96.72615348987186
 20
-30.77196276024355
 10
-96.16547099082024
 20
-30.71655844633172
 10
-94.90250447142129
 20
-30.59172703244286
 10
-93.65544952151301
 20
-30.44903802977464
 10
-92.41675100737747
 20
-30.29793535547104
 10
-92.21917281354945
 20
-30.27383905778779
 10
-92.02296828039937
 20
-30.24865527873719
 10
-91.82607691691192
 20
-30.22387215071789
 10
-89.51443494348628
 20
-29.93282779509609
 10
-87.24537645100442
 20
-29.60011573231517
 10
-85.04683253986435
 20
-29.20988162875226
 10
-84.89824824346413
 20
-29.18349589660905
 10
-84.75767696767187
 20
-29.15144381418049
 10
-84.60966502988375
 20
-29.12465743100984
 10
-84.36761457168975
 20
-29.08087199697734
 10
-84.13569486097706
 20
-29.0298748443982
 10
-83.89473188414786
 20
-28.98528810830696
 10
-82.80038221266641
 20
-28.78273039453159
 10
-81.7084936832264
 20
-28.57816942560422
 10
-80.648027641737
 20
-28.35231671620755
 10
-80.9283688912628
 20
-29.39332256478983
 10
-81.38728602860279
 20
-30.36684733269152
 10
-81.9920401409923
 20
-31.24158300367952
 97
        0
 97
        1
330
7E
 92
        1
 93
        1
 72
     4
 94
        3
 73
     0
 74
     0
 95
       74
 96
       70
 40
0.0
 40
0.0
 40
0.0
 40
0.0
 40
1.0
 40
1.0
 40
1.0
 40
2.0
 40
2.0
 40
2.0
 40
3.0
 40
3.0
 40
3.0
 40
4.0
 40
4.0
 40
4.0
 40
5.0
 40
5.0
 40
5.0
 40
6.0
 40
6.0
 40
6.0
 40
7.0
 40
7.0
 40
7.0
 40
8.0
 40
8.0
 40
8.0
 40
9.0
 40
9.0
 40
9.0
 40
10.0
 40
10.0
 40
10.0
 40
11.0
 40
11.0
 40
11.0
 40
12.0
 40
12.0
 40
12.0
 40
13.0
 40
13.0
 40
13.0
 40
14.0
 40
14.0
 40
14.0
 40
15.0
 40
15.0
 40
15.0
 40
16.0
 40
16.0
 40
16.0
 40
17.0
 40
17.0
 40
17.0
 40
18.0
 40
18.0
 40
18.0
 40
19.0
 40
19.0
 40
19.0
 40
20.0
 40
20.0
 40
20.0
 40
21.0
 40
21.0
 40
21.0
 40
22.0
 40
22.0
 40
22.0
 40
23.0
 40
23.0
 40
23.0
 40
23.0
 10
-105.8822887224315
 20
-37.58394605005638
 10
-106.3326204805482
 20
-37.88638034211344
 10
-106.8074491873794
 20
-38.15830792000001
 10
-107.3080340318798
 20
-38.38896844176131
 10
-108.6479255491078
 20
-39.00648615126014
 10
-110.15322870601
 20
-39.35293482079763
 10
-111.7450724854725
 20
-39.35293482079763
 10
-112.0638762339109
 20
-39.35293482079763
 10
-112.3792458306619
 20
-39.33902650645384
 10
-112.6903799736636
 20
-39.31183947225253
 10
-113.6237824026701
 20
-39.23027836964349
 10
-114.5203249368768
 20
-39.02915155240736
 10
-115.3629512895768
 20
-38.72477124106158
 10
-116.2055776422743
 20
-38.42039092971578
 10
-116.9940588700107
 20
-38.01269988839774
 10
-117.7117965729631
 20
-37.51818204521658
 10
-117.9210508825292
 20
-37.37389043842832
 10
-118.1217198128753
 20
-37.21906743312486
 10
-118.3184967046413
 20
-37.06040962510659
 10
-118.3186111763627
 20
-37.06035238924461
 10
-118.318725648088
 20
-37.06035238924461
 10
-118.318725648088
 20
-37.06029515338135
 10
-118.5717081558239
 20
-36.85642101479518
 10
-118.8165631712345
 20
-36.64407596870652
 10
-119.0472236929951
 20
-36.41799431586321
 10
-119.4573758763539
 20
-36.01591238897047
 10
-119.8308971083675
 20
-35.58000406794573
 10
-120.1628651049504
 20
-35.11519163687055
 10
-120.5511531892239
 20
-34.57145095281882
 10
-120.8743068631362
 20
-33.98421101403999
 10
-121.1404536190128
 20
-33.36903997486439
 10
-121.2155470692746
 20
-33.19538637113496
 10
-121.2936167843336
 20
-33.02310642808344
 10
-121.358178836084
 20
-32.84453054026863
 10
-121.5536965388942
 20
-32.30382335687298
 10
-121.6999914008338
 20
-31.74136654611795
 10
-121.7919121943696
 20
-31.16213962794706
 10
-121.1197342371582
 20
-31.20546717508628
 10
-120.4337052014689
 20
-31.22595761349428
 10
-119.7562615449997
 20
-31.26098596072016
 10
-118.7530313649926
 20
-31.31289888708199
 10
-117.7552958276863
 20
-31.37437020231049
 10
-116.7414197774427
 20
-31.40745253024699
 10
-116.4510050162989
 20
-31.41695368325359
 10
-116.1547521972792
 20
-31.41392018259366
 10
-115.863536134074
 20
-31.421818731477
 10
-114.4745362476962
 20
-31.46440221242011
 10
-113.0774088689858
 20
-31.48981493491414
 10
-111.6697500917641
 20
-31.49050176525405
 10
-111.6690632614268
 20
-31.49050176525405
 10
-111.668490902816
 20
-31.49055900111346
 10
-111.6679185441968
 20
-31.49055900111346
 10
-111.6480004644041
 20
-31.49055900111346
 10
-111.6284257997788
 20
-31.49153201075943
 10
-111.6085077199829
 20
-31.49153201075943
 10
-109.9332140544853
 20
-31.49153201075943
 10
-108.2679939006102
 20
-31.46457392000476
 10
-106.6157090514285
 20
-31.41220310674837
 10
-105.5551285382132
 20
-31.37860565605917
 10
-104.5097727641564
 20
-31.3175922277246
 10
-103.4605249515227
 20
-31.26344710276478
 10
-103.4605249515227
 20
-31.26344710276478
 10
-102.3034447758582
 20
-33.044283696832
 10
-102.3034447758582
 20
-33.044283696832
 10
-102.285587187075
 20
-33.07181414620198
 10
-102.265440163835
 20
-33.09734134042061
 10
-102.2474681033311
 20
-33.12470008220657
 10
-102.9696702034756
 20
-34.93358224839966
 10
-104.2433970648331
 20
-36.48341490553433
 10
-105.8822887224315
 20
-37.58394605005638
 97
        0
 97
        1
330
7F
 92
        1
 93
        1
 72
     4
 94
        3
 73
     0
 74
     0
 95
       53
 96
       49
 40
0.0
 40
0.0
 40
0.0
 40
0.0
 40
1.0
 40
1.0
 40
1.0
 40
2.0
 40
2.0
 40
2.0
 40
3.0
 40
3.0
 40
3.0
 40
4.0
 40
4.0
 40
4.0
 40
5.0
 40
5.0
 40
5.0
 40
6.0
 40
6.0
 40
6.0
 40
7.0
 40
7.0
 40
7.0
 40
8.0
 40
8.0
 40
8.0
 40
9.0
 40
9.0
 40
9.0
 40
10.0
 40
10.0
 40
10.0
 40
11.0
 40
11.0
 40
11.0
 40
12.0
 40
12.0
 40
12.0
 40
13.0
 40
13.0
 40
13.0
 40
14.0
 40
14.0
 40
14.0
 40
15.0
 40
15.0
 40
15.0
 40
16.0
 40
16.0
 40
16.0
 40
16.0
 10
-125.9507843611756
 20
-33.13380058418251
 10
-126.164617539663
 20
-33.32159144569722
 10
-126.3868071539256
 20
-33.50062522040211
 10
-126.6202149970376
 20
-33.6673532848903
 10
-126.9599670707766
 20
-33.90997610170283
 10
-127.3162030726261
 20
-34.13285254630283
 10
-127.686976983289
 20
-34.33426554284822
 10
-128.4287537480588
 20
-34.73703430008088
 10
-129.229254506709
 20
-35.05372032164271
 10
-130.0735979352511
 20
-35.26972846286859
 10
-130.917826892068
 20
-35.48567936822801
 10
-131.806012990502
 20
-35.60095239324379
 10
-132.7230459631245
 20
-35.60095239324379
 10
-133.9103466736502
 20
-35.60095239324379
 10
-135.0493403170881
 20
-35.40818201178428
 10
-136.1075169241137
 20
-35.05389202922672
 10
-136.9011493793865
 20
-34.78820316024018
 10
-137.6493365606429
 20
-34.43168097908529
 10
-138.3383418611296
 20
-33.99754696976462
 10
-138.7977168853635
 20
-33.70810521826737
 10
-139.2306489415909
 20
-33.38426471401447
 10
-139.6333604629609
 20
-33.02974578801413
 10
-140.2373132732885
 20
-32.49802463487302
 10
-140.7729264650109
 20
-31.89750597623218
 10
-141.226577903093
 20
-31.24135406023288
 10
-141.3776805773998
 20
-31.02265583352279
 10
-141.519854457316
 20
-30.79771889790562
 10
-141.652183769053
 20
-30.56717284786955
 10
-141.850906680111
 20
-30.22129653695123
 10
-142.0278799638057
 20
-29.86271386478301
 10
-142.1815010160159
 20
-29.49291296376546
 10
-142.3351220682268
 20
-29.12311206274856
 10
-142.4653908889499
 20
-28.74215016874239
 10
-142.5704759306269
 20
-28.35174435759224
 10
-139.6971212126487
 20
-28.96393913197439
 10
-136.7013962228232
 20
-29.49720565337741
 10
-133.6080268533178
 20
-29.94187106120941
 10
-131.019592253779
 20
-30.31401863254954
 10
-128.349997202663
 20
-30.60821096054882
 10
-125.6394212747305
 20
-30.8507193056393
 10
-125.6394212747305
 20
-30.8507193056393
 10
-125.4965605644783
 20
-31.75040981223063
 10
-125.4965605644783
 20
-31.75040981223063
 10
-125.4535191966445
 20
-32.0210209653032
 10
-125.3904452772933
 20
-32.2835618619084
 10
-125.3317212834155
 20
-32.54787707022153
 10
-125.5314744399782
 20
-32.74946177435158
 10
-125.736951182689
 20
-32.94600972267036
 10
-125.9507843611756
 20
-33.13380058418251
 97
        0
 97
        1
330
80
 92
        1
 93
        1
 72
     4
 94
        3
 73
     0
 74
     0
 95
       80
 96
       76
 40
0.0
 40
0.0
 40
0.0
 40
0.0
 40
1.0
 40
1.0
 40
1.0
 40
2.0
 40
2.0
 40
2.0
 40
3.0
 40
3.0
 40
3.0
 40
4.0
 40
4.0
 40
4.0
 40
5.0
 40
5.0
 40
5.0
 40
6.0
 40
6.0
 40
6.0
 40
7.0
 40
7.0
 40
7.0
 40
8.0
 40
8.0
 40
8.0
 40
9.0
 40
9.0
 40
9.0
 40
10.0
 40
10.0
 40
10.0
 40
11.0
 40
11.0
 40
11.0
 40
12.0
 40
12.0
 40
12.0
 40
13.0
 40
13.0
 40
13.0
 40
14.0
 40
14.0
 40
14.0
 40
15.0
 40
15.0
 40
15.0
 40
16.0
 40
16.0
 40
16.0
 40
17.0
 40
17.0
 40
17.0
 40
18.0
 40
18.0
 40
18.0
 40
19.0
 40
19.0
 40
19.0
 40
20.0
 40
20.0
 40
20.0
 40
21.0
 40
21.0
 40
21.0
 40
22.0
 40
22.0
 40
22.0
 40
23.0
 40
23.0
 40
23.0
 40
24.0
 40
24.0
 40
24.0
 40
25.0
 40
25.0
 40
25.0
 40
25.0
 10
-128.0092148834148
 20
27.4184784167555
 10
-123.1480586962601
 20
29.1723569200642
 10
-117.5334496285917
 20
30.19161314128711
 10
-111.6085077199829
 20
30.19161314128711
 10
-104.9344628563363
 20
30.19161314128711
 10
-98.64882054868271
 20
28.90386349386437
 10
-93.3972013145159
 20
26.72260481289157
 10
-84.63393303515486
 20
23.08274743798055
 10
-78.75065883369813
 20
16.95444651353379
 10
-78.75065883369813
 20
10.16753253104952
 10
-78.75065883369813
 20
8.150884187688975
 10
-78.83548238041375
 20
6.262558645767275
 10
-79.00272556765464
 20
4.555327369563138
 10
-79.06299492979373
 20
3.940213566246302
 10
-79.13888968211357
 20
3.35308809919272
 10
-79.22394217227196
 20
2.78301891885976
 10
-79.22394217227196
 20
2.78301891885976
 10
-79.39444780361942
 20
1.791121439422814
 10
-79.39444780361942
 20
1.791121439422814
 10
-79.44407129552129
 20
1.512783445048355
 10
-79.48820014472246
 20
1.223856816299939
 10
-79.54245974140369
 20
0.9545620880420107
 10
-79.54097160900566
 20
0.9549627390733062
 10
-79.53954071246963
 20
0.9553633901039601
 10
-79.53805258007098
 20
0.9557640411314054
 10
-79.53805258007098
 20
0.9557640411314054
 10
-79.53805258007098
 20
0.9556495694093698
 10
-79.53805258007098
 20
0.9556495694093698
 10
-79.53954071246963
 20
0.9552489183787161
 10
-79.54097160900566
 20
0.9549055032106842
 10
-79.54245974140369
 20
0.9545048521793887
 10
-80.17491601074848
 20
0.7843998718625873
 10
-80.8079446387105
 20
0.6083995978144312
 10
-81.43937066254927
 20
0.4515161015008636
 10
-82.46686884782356
 20
0.1961869234416456
 10
-83.49253548553436
 20
-0.0419714961749142
 10
-84.51556927361266
 20
-0.2643900538809981
 10
-85.36781125104068
 20
-0.4496625374891139
 10
-86.21513094437689
 20
-0.6086637606792693
 10
-87.06313746805301
 20
-0.7716714941714712
 10
-89.14228737215001
 20
-1.025627011557278
 10
-91.25772481242425
 20
-1.237685878336044
 10
-93.3972013145159
 20
-1.420325512315523
 10
-98.82327545447346
 20
-1.883420867545409
 10
-104.4298715015306
 20
-2.124154900927983
 10
-110.1926069787098
 20
-2.124154900927983
 10
-114.5709214384285
 20
-2.124154900927983
 10
-118.6981421738328
 20
-1.987418427850532
 10
-122.5013506974086
 20
-1.774901674178491
 10
-122.5013506974086
 20
-1.774901674178491
 10
-133.4085598760605
 20
-0.9034856831596815
 10
-133.4085598760605
 20
-0.9034856831596815
 10
-134.0501738832425
 20
-0.8362907817838529
 10
-134.6766776229921
 20
-0.7685235217901461
 10
-135.2779403478354
 20
-0.7001839031843362
 10
-135.2780548195568
 20
-0.7001266673255645
 10
-135.2781692912821
 20
-0.7001266673255645
 10
-135.2783982347255
 20
-0.7000694314629424
 10
-135.768108265542
 20
-0.6128992144279536
 10
-136.24476851994
 20
-0.5257289973974567
 10
-136.7033422421119
 20
-0.4390166672563855
 10
-139.3609177623178
 20
0.0636286682579581
 10
-141.4857418838741
 20
0.5493321887685809
 10
-142.9629994686497
 20
0.9144397491467334
 10
-143.2346408672341
 20
0.9815774146592982
 10
-143.4783511654108
 20
1.043392145055819
 10
-143.7054630637633
 20
1.101715487906193
 10
-143.9156331471121
 20
2.175116834085709
 10
-144.0929498459756
 20
3.31456836441364
 10
-144.2142898723106
 20
4.555212897841744
 10
-144.3821054181706
 20
6.26708027882201
 10
-144.4671579083252
 20
8.155348584884938
 10
-144.4671579083252
 20
10.16753253104952
 10
-144.4671579083252
 20
17.41101698055438
 10
-137.7612899056973
 20
23.8999038323175
 10
-128.0092148834148
 20
27.4184784167555
 97
        0
 97
        1
330
81
 92
        1
 93
        1
 72
     4
 94
        3
 73
     0
 74
     0
 95
       53
 96
       49
 40
0.0
 40
0.0
 40
0.0
 40
0.0
 40
1.0
 40
1.0
 40
1.0
 40
2.0
 40
2.0
 40
2.0
 40
3.0
 40
3.0
 40
3.0
 40
4.0
 40
4.0
 40
4.0
 40
5.0
 40
5.0
 40
5.0
 40
6.0
 40
6.0
 40
6.0
 40
7.0
 40
7.0
 40
7.0
 40
8.0
 40
8.0
 40
8.0
 40
9.0
 40
9.0
 40
9.0
 40
10.0
 40
10.0
 40
10.0
 40
11.0
 40
11.0
 40
11.0
 40
12.0
 40
12.0
 40
12.0
 40
13.0
 40
13.0
 40
13.0
 40
14.0
 40
14.0
 40
14.0
 40
15.0
 40
15.0
 40
15.0
 40
16.0
 40
16.0
 40
16.0
 40
16.0
 10
-93.3972013145159
 20
88.98732355342836
 10
-93.3972013145159
 20
88.98732355342836
 10
-93.3972013145159
 20
57.98013901221204
 10
-93.3972013145159
 20
30.78875488409998
 10
-93.97173489204801
 20
31.00327489292336
 10
-94.55576962257842
 20
31.20823651288138
 10
-95.14884761922981
 20
31.40323909293888
 10
-96.92808160916994
 20
31.9881895972571
 10
-98.78916288103155
 20
32.48316532733154
 10
-100.7221323949071
 20
32.87368561020372
 10
-104.1610918960293
 20
33.56835726097826
 10
-107.8175476707676
 20
33.94262255919112
 10
-111.6085077199829
 20
33.94262255919112
 10
-112.2402771589897
 20
33.94262255919112
 10
-112.8684979745884
 20
33.93220563240054
 10
-113.4923688647125
 20
33.91165795812991
 10
-114.1162397548366
 20
33.8911102838593
 10
-114.7362186063775
 20
33.86043186210478
 10
-115.3515041172822
 20
33.81985163631944
 10
-119.8651241535352
 20
33.52211068490049
 10
-124.131599739921
 20
32.68652434316565
 10
-128.0092148834148
 20
31.42201245550543
 10
-128.0092148834148
 20
31.42201245550543
 10
-128.0092148834148
 20
88.98732355342836
 10
-128.0092148834148
 20
88.98732355342836
 10
-128.0092148834148
 20
88.98732355342836
 10
-181.8301559233644
 20
88.98732355342836
 10
-181.8301559233644
 20
88.98732355342836
 10
-181.8301559233644
 20
88.98732355342836
 10
-181.8301559233644
 20
-24.50400633378851
 10
-181.8301559233644
 20
-24.50400633378851
 10
-181.8301559233644
 20
-44.86486275296846
 10
-175.1116960312086
 20
-59.82356962229267
 10
-161.8638835332219
 20
-68.9651097101763
 10
-148.9685294702248
 20
-77.86780454810283
 10
-131.7542717717274
 20
-82.38176799952393
 10
-110.704638995501
 20
-82.38176799952393
 10
-90.65091020902077
 20
-82.38176799952393
 10
-74.0948649175334
 20
-77.66828033498611
 10
-61.49656497561148
 20
-68.37392049695742
 10
-48.61574882143226
 20
-58.87127935900216
 10
-42.08651068732337
 20
-43.22820329397133
 10
-42.08651068732337
 20
-21.87859736773255
 10
-42.08651068732337
 20
-21.87859736773255
 10
-42.08651068732337
 20
88.98732355342836
 10
-42.08651068732337
 20
88.98732355342836
 10
-42.08651068732337
 20
88.98732355342836
 10
-93.3972013145159
 20
88.98732355342836
 10
-93.3972013145159
 20
88.98732355342836
 97
        0
 97
        1
330
82
 75
     2
 76
     1
 98
        1
 10
0.0
 20
0.0
450
        0
451
        0
460
0.0
461
0.0
452
        0
462
0.0
453
        0
470

  0
SPLINE
  5
84
330
79
100
AcDbEntity
  8
Layer 1
100
AcDbSpline
210
0.0
220
0.0
230
1.0
 70
     9
 71
     3
 72
    83
 73
    79
 74
     0
 42
0.0000000001
 43
0.0000000001
 40
0.0
 40
0.0
 40
0.0
 40
0.0
 40
1.0
 40
1.0
 40
1.0
 40
2.0
 40
2.0
 40
2.0
 40
3.0
 40
3.0
 40
3.0
 40
4.0
 40
4.0
 40
4.0
 40
5.0
 40
5.0
 40
5.0
 40
6.0
 40
6.0
 40
6.0
 40
7.0
 40
7.0
 40
7.0
 40
8.0
 40
8.0
 40
8.0
 40
9.0
 40
9.0
 40
9.0
 40
10.0
 40
10.0
 40
10.0
 40
11.0
 40
11.0
 40
11.0
 40
12.0
 40
12.0
 40
12.0
 40
13.0
 40
13.0
 40
13.0
 40
14.0
 40
14.0
 40
14.0
 40
15.0
 40
15.0
 40
15.0
 40
16.0
 40
16.0
 40
16.0
 40
17.0
 40
17.0
 40
17.0
 40
18.0
 40
18.0
 40
18.0
 40
19.0
 40
19.0
 40
19.0
 40
20.0
 40
20.0
 40
20.0
 40
21.0
 40
21.0
 40
21.0
 40
22.0
 40
22.0
 40
22.0
 40
23.0
 40
23.0
 40
23.0
 40
24.0
 40
24.0
 40
24.0
 40
25.0
 40
25.0
 40
25.0
 40
26.0
 40
26.0
 40
26.0
 40
26.0
 10
-108.4252780479545
 20
-12.41842523899835
 30
0.0
 10
-108.7281702269022
 20
-12.2137497983496
 30
0.0
 10
-109.051781787704
 20
-12.03746334499539
 30
0.0
 10
-109.3924496352309
 20
-11.89340068165055
 30
0.0
 10
-109.7330030110325
 20
-11.7492807824463
 30
0.0
 10
-110.0904982018302
 20
-11.63744190911725
 30
0.0
 10
-110.4611576407716
 20
-11.56154715679357
 30
0.0
 10
-110.8318170797093
 20
-11.48570964033571
 30
0.0
 10
-111.2154118233441
 20
-11.44581624488386
 30
0.0
 10
-111.6085077199829
 20
-11.44581624488386
 30
0.0
 10
-111.6085077199829
 20
-11.44581624488386
 30
0.0
 10
-111.6086221917081
 20
-11.44581624488386
 30
0.0
 10
-111.6086221917081
 20
-11.44581624488386
 30
0.0
 10
-112.1980370932185
 20
-11.44581624488386
 30
0.0
 10
-112.7666181411554
 20
-11.53550483982225
 30
0.0
 10
-113.3014300308158
 20
-11.70188948914241
 30
0.0
 10
-113.8362419204801
 20
-11.8683313743252
 30
0.0
 10
-114.3373991235919
 20
-12.1114120780233
 30
0.0
 10
-114.7917373920146
 20
-12.41842523899835
 30
0.0
 10
-114.9431834814862
 20
-12.52076295932466
 30
0.0
 10
-115.0894783434297
 20
-12.63025516233433
 30
0.0
 10
-115.2300496192213
 20
-12.74627225355329
 30
0.0
 10
-115.5113066425298
 20
-12.97836367184999
 30
0.0
 10
-115.7698982646924
 20
-13.23689805815316
 30
0.0
 10
-116.0020469188523
 20
-13.51809784559968
 30
0.0
 10
-116.2341955730155
 20
-13.79929763304621
 30
0.0
 10
-116.439786787447
 20
-14.1031628216393
 30
0.0
 10
-116.6151574670178
 20
-14.42585860866157
 30
0.0
 10
-116.7248213776154
 20
-14.62750054865424
 30
0.0
 10
-116.8225802290205
 20
-14.8365831506357
 30
0.0
 10
-116.9075182474575
 20
-15.05201893324307
 30
0.0
 10
-117.1625612462074
 20
-15.69838351693037
 30
0.0
 10
-117.3026746351058
 20
-16.40244184898626
 30
0.0
 10
-117.3026746351058
 20
-17.13918185794479
 30
0.0
 10
-117.3026746351058
 20
-17.87609357449119
 30
0.0
 10
-117.1625612462074
 20
-18.58043808585634
 30
0.0
 10
-116.9075182474575
 20
-19.22680266953979
 30
0.0
 10
-116.8225802290205
 20
-19.44229568800914
 30
0.0
 10
-116.7248213776154
 20
-19.6512638182692
 30
0.0
 10
-116.6151574670178
 20
-19.8529629941245
 30
0.0
 10
-116.439786787447
 20
-20.17565878114357
 30
0.0
 10
-116.2341955730155
 20
-20.47946673387404
 30
0.0
 10
-116.0020469188523
 20
-20.76066652132441
 30
0.0
 10
-115.7698982646924
 20
-21.04180907290831
 30
0.0
 10
-115.5113066425298
 20
-21.30034345921083
 30
0.0
 10
-115.2300496192213
 20
-21.53243487750817
 30
0.0
 10
-115.0894783434297
 20
-21.64845196872714
 30
0.0
 10
-114.9431834814862
 20
-21.75782970001542
 30
0.0
 10
-114.7917373920146
 20
-21.86016742033787
 30
0.0
 10
-114.3373991235919
 20
-22.16706610959089
 30
0.0
 10
-113.8362419204801
 20
-22.41014681329284
 30
0.0
 10
-113.3014300308158
 20
-22.57653146261301
 30
0.0
 10
-112.7666181411554
 20
-22.74285887607119
 30
0.0
 10
-112.1980370932185
 20
-22.83249023515016
 30
0.0
 10
-111.6086221917081
 20
-22.83249023515016
 30
0.0
 10
-111.6086221917081
 20
-22.83249023515016
 30
0.0
 10
-111.6085077199829
 20
-22.83249023515016
 30
0.0
 10
-111.6085077199829
 20
-22.83249023515016
 30
0.0
 10
-111.2154118233441
 20
-22.83249023515016
 30
0.0
 10
-110.8318170797093
 20
-22.79265407556029
 30
0.0
 10
-110.4611576407716
 20
-22.71681655909923
 30
0.0
 10
-110.0904982018302
 20
-22.64097904263817
 30
0.0
 10
-109.7330030110325
 20
-22.52914016930912
 30
0.0
 10
-109.3924496352309
 20
-22.38507750596427
 30
0.0
 10
-109.051781787704
 20
-22.24107207848527
 30
0.0
 10
-108.7281702269022
 20
-22.06478562512721
 30
0.0
 10
-108.4252780479545
 20
-21.86016742033787
 30
0.0
 10
-107.9709397795318
 20
-21.55321149522543
 30
0.0
 10
-107.5633059740764
 20
-21.18243758456257
 30
0.0
 10
-107.2151974645601
 20
-20.76066652132441
 30
0.0
 10
-106.4031350618932
 20
-19.77649588318614
 30
0.0
 10
-105.9152565786434
 20
-18.51478855273858
 30
0.0
 10
-105.9152565786434
 20
-17.13918185794479
 30
0.0
 10
-105.9152565786434
 20
-15.76397581418551
 30
0.0
 10
-106.4031350618932
 20
-14.50232571959672
 30
0.0
 10
-107.2151974645601
 20
-13.51809784559968
 30
0.0
 10
-107.5633059740764
 20
-13.0962695464989
 30
0.0
 10
-107.9709397795318
 20
-12.72543839997341
 30
0.0
 10
-108.4252780479545
 20
-12.41842523899835
 30
0.0
  0
HATCH
  5
85
330
79
100
AcDbEntity
  8
Layer 1
 62
     7
440
 33554687
100
AcDbHatch
 10
0.0
 20
0.0
 30
0.0
210
0.0
220
0.0
230
1.0
  2
SOLID
 70
     1
 71
     1
 91
        1
 92
        1
 93
        1
 72
     4
 94
        3
 73
     0
 74
     0
 95
       83
 96
       79
 40
0.0
 40
0.0
 40
0.0
 40
0.0
 40
1.0
 40
1.0
 40
1.0
 40
2.0
 40
2.0
 40
2.0
 40
3.0
 40
3.0
 40
3.0
 40
4.0
 40
4.0
 40
4.0
 40
5.0
 40
5.0
 40
5.0
 40
6.0
 40
6.0
 40
6.0
 40
7.0
 40
7.0
 40
7.0
 40
8.0
 40
8.0
 40
8.0
 40
9.0
 40
9.0
 40
9.0
 40
10.0
 40
10.0
 40
10.0
 40
11.0
 40
11.0
 40
11.0
 40
12.0
 40
12.0
 40
12.0
 40
13.0
 40
13.0
 40
13.0
 40
14.0
 40
14.0
 40
14.0
 40
15.0
 40
15.0
 40
15.0
 40
16.0
 40
16.0
 40
16.0
 40
17.0
 40
17.0
 40
17.0
 40
18.0
 40
18.0
 40
18.0
 40
19.0
 40
19.0
 40
19.0
 40
20.0
 40
20.0
 40
20.0
 40
21.0
 40
21.0
 40
21.0
 40
22.0
 40
22.0
 40
22.0
 40
23.0
 40
23.0
 40
23.0
 40
24.0
 40
24.0
 40
24.0
 40
25.0
 40
25.0
 40
25.0
 40
26.0
 40
26.0
 40
26.0
 40
26.0
 10
-108.4252780479545
 20
-12.41842523899835
 10
-108.7281702269022
 20
-12.2137497983496
 10
-109.051781787704
 20
-12.03746334499539
 10
-109.3924496352309
 20
-11.89340068165055
 10
-109.7330030110325
 20
-11.7492807824463
 10
-110.0904982018302
 20
-11.63744190911725
 10
-110.4611576407716
 20
-11.56154715679357
 10
-110.8318170797093
 20
-11.48570964033571
 10
-111.2154118233441
 20
-11.44581624488386
 10
-111.6085077199829
 20
-11.44581624488386
 10
-111.6085077199829
 20
-11.44581624488386
 10
-111.6086221917081
 20
-11.44581624488386
 10
-111.6086221917081
 20
-11.44581624488386
 10
-112.1980370932185
 20
-11.44581624488386
 10
-112.7666181411554
 20
-11.53550483982225
 10
-113.3014300308158
 20
-11.70188948914241
 10
-113.8362419204801
 20
-11.8683313743252
 10
-114.3373991235919
 20
-12.1114120780233
 10
-114.7917373920146
 20
-12.41842523899835
 10
-114.9431834814862
 20
-12.52076295932466
 10
-115.0894783434297
 20
-12.63025516233433
 10
-115.2300496192213
 20
-12.74627225355329
 10
-115.5113066425298
 20
-12.97836367184999
 10
-115.7698982646924
 20
-13.23689805815316
 10
-116.0020469188523
 20
-13.51809784559968
 10
-116.2341955730155
 20
-13.79929763304621
 10
-116.439786787447
 20
-14.1031628216393
 10
-116.6151574670178
 20
-14.42585860866157
 10
-116.7248213776154
 20
-14.62750054865424
 10
-116.8225802290205
 20
-14.8365831506357
 10
-116.9075182474575
 20
-15.05201893324307
 10
-117.1625612462074
 20
-15.69838351693037
 10
-117.3026746351058
 20
-16.40244184898626
 10
-117.3026746351058
 20
-17.13918185794479
 10
-117.3026746351058
 20
-17.87609357449119
 10
-117.1625612462074
 20
-18.58043808585634
 10
-116.9075182474575
 20
-19.22680266953979
 10
-116.8225802290205
 20
-19.44229568800914
 10
-116.7248213776154
 20
-19.6512638182692
 10
-116.6151574670178
 20
-19.8529629941245
 10
-116.439786787447
 20
-20.17565878114357
 10
-116.2341955730155
 20
-20.47946673387404
 10
-116.0020469188523
 20
-20.76066652132441
 10
-115.7698982646924
 20
-21.04180907290831
 10
-115.5113066425298
 20
-21.30034345921083
 10
-115.2300496192213
 20
-21.53243487750817
 10
-115.0894783434297
 20
-21.64845196872714
 10
-114.9431834814862
 20
-21.75782970001542
 10
-114.7917373920146
 20
-21.86016742033787
 10
-114.3373991235919
 20
-22.16706610959089
 10
-113.8362419204801
 20
-22.41014681329284
 10
-113.3014300308158
 20
-22.57653146261301
 10
-112.7666181411554
 20
-22.74285887607119
 10
-112.1980370932185
 20
-22.83249023515016
 10
-111.6086221917081
 20
-22.83249023515016
 10
-111.6086221917081
 20
-22.83249023515016
 10
-111.6085077199829
 20
-22.83249023515016
 10
-111.6085077199829
 20
-22.83249023515016
 10
-111.2154118233441
 20
-22.83249023515016
 10
-110.8318170797093
 20
-22.79265407556029
 10
-110.4611576407716
 20
-22.71681655909923
 10
-110.0904982018302
 20
-22.64097904263817
 10
-109.7330030110325
 20
-22.52914016930912
 10
-109.3924496352309
 20
-22.38507750596427
 10
-109.051781787704
 20
-22.24107207848527
 10
-108.7281702269022
 20
-22.06478562512721
 10
-108.4252780479545
 20
-21.86016742033787
 10
-107.9709397795318
 20
-21.55321149522543
 10
-107.5633059740764
 20
-21.18243758456257
 10
-107.2151974645601
 20
-20.76066652132441
 10
-106.4031350618932
 20
-19.77649588318614
 10
-105.9152565786434
 20
-18.51478855273858
 10
-105.9152565786434
 20
-17.13918185794479
 10
-105.9152565786434
 20
-15.76397581418551
 10
-106.4031350618932
 20
-14.50232571959672
 10
-107.2151974645601
 20
-13.51809784559968
 10
-107.5633059740764
 20
-13.0962695464989
 10
-107.9709397795318
 20
-12.72543839997341
 10
-108.4252780479545
 20
-12.41842523899835
 97
        0
 97
        1
330
84
 75
     2
 76
     1
 98
        1
 10
0.0
 20
0.0
450
        0
451
        0
460
0.0
461
0.0
452
        0
462
0.0
453
        0
470

  0
SPLINE
  5
86
330
79
100
AcDbEntity
  8
Layer 1
100
AcDbSpline
210
0.0
220
0.0
230
1.0
 70
     9
 71
     3
 72
    53
 73
    49
 74
     0
 42
0.0000000001
 43
0.0000000001
 40
0.0
 40
0.0
 40
0.0
 40
0.0
 40
1.0
 40
1.0
 40
1.0
 40
2.0
 40
2.0
 40
2.0
 40
3.0
 40
3.0
 40
3.0
 40
4.0
 40
4.0
 40
4.0
 40
5.0
 40
5.0
 40
5.0
 40
6.0
 40
6.0
 40
6.0
 40
7.0
 40
7.0
 40
7.0
 40
8.0
 40
8.0
 40
8.0
 40
9.0
 40
9.0
 40
9.0
 40
10.0
 40
10.0
 40
10.0
 40
11.0
 40
11.0
 40
11.0
 40
12.0
 40
12.0
 40
12.0
 40
13.0
 40
13.0
 40
13.0
 40
14.0
 40
14.0
 40
14.0
 40
15.0
 40
15.0
 40
15.0
 40
16.0
 40
16.0
 40
16.0
 40
16.0
 10
-136.3750373406669
 20
-9.390476459164068
 30
0.0
 10
-136.7232603219084
 20
-8.968590924200027
 30
0.0
 10
-137.1310085990859
 20
-8.597702541815765
 30
0.0
 10
-137.5854613392299
 20
-8.290689380840705
 30
0.0
 10
-138.4943668195218
 20
-7.676663058891229
 30
0.0
 10
-139.5900901516805
 20
-7.318080386722365
 30
0.0
 10
-140.7694923133203
 20
-7.318080386722365
 30
0.0
 10
-141.1623592665151
 20
-7.318080386722365
 30
0.0
 10
-141.5459540101499
 20
-7.357973782174854
 30
0.0
 10
-141.9166134490914
 20
-7.433811298632709
 30
0.0
 10
-142.4723736640531
 20
-7.547653427116312
 30
0.0
 10
-142.9987146462155
 20
-7.742427063731025
 30
0.0
 10
-143.4827010908847
 20
-8.005425847226304
 30
0.0
 10
-144.1279781932008
 20
-8.356109970508619
 30
0.0
 10
-144.6981618452583
 20
-8.827962412545774
 30
0.0
 10
-145.1623446818562
 20
-9.390476459164068
 30
0.0
 10
-145.9746360279698
 20
-10.37481880488249
 30
0.0
 10
-146.4628579263844
 20
-11.63669784291407
 30
0.0
 10
-146.4628579263844
 20
-13.01241900943311
 30
0.0
 10
-146.4628579263844
 20
-14.38808294008567
 30
0.0
 10
-145.9746360279698
 20
-15.64973303467446
 30
0.0
 10
-145.1623446818562
 20
-16.63390367280887
 30
0.0
 10
-144.6981618452583
 20
-17.19624601184315
 30
0.0
 10
-144.1279781932008
 20
-17.66804121801383
 30
0.0
 10
-143.4827010908847
 20
-18.01861086957475
 30
0.0
 10
-142.9987146462155
 20
-18.28155241721126
 30
0.0
 10
-142.4723736640531
 20
-18.47632605382597
 30
0.0
 10
-141.9166134490914
 20
-18.59011094644695
 30
0.0
 10
-141.5459540101499
 20
-18.66594846290481
 30
0.0
 10
-141.1623592665151
 20
-18.70578462249403
 30
0.0
 10
-140.7694923133203
 20
-18.70578462249403
 30
0.0
 10
-139.5900901516805
 20
-18.70578462249403
 30
0.0
 10
-138.4943668195218
 20
-18.34731642205041
 30
0.0
 10
-137.5854613392299
 20
-17.73346180768496
 30
0.0
 10
-137.1310085990859
 20
-17.42650588257316
 30
0.0
 10
-136.7232603219084
 20
-17.05567473604767
 30
0.0
 10
-136.3750373406669
 20
-16.63390367280887
 30
0.0
 10
-136.1719645041388
 20
-16.38784670430961
 30
0.0
 10
-135.9891531625747
 20
-16.12444726977983
 30
0.0
 10
-135.8292361656018
 20
-15.84628098299324
 30
0.0
 10
-135.3491417595133
 20
-15.0117821226264
 30
0.0
 10
-135.0746385678601
 20
-14.04415264845607
 30
0.0
 10
-135.0746385678601
 20
-13.01241900943311
 30
0.0
 10
-135.0746385678601
 20
-11.98062813454431
 30
0.0
 10
-135.3491417595133
 20
-11.01288418865259
 30
0.0
 10
-135.8292361656018
 20
-10.17821362070109
 30
0.0
 10
-135.9891531625747
 20
-9.899990098051882
 30
0.0
 10
-136.1719645041388
 20
-9.636533427663326
 30
0.0
 10
-136.3750373406669
 20
-9.390476459164068
 30
0.0
  0
HATCH
  5
87
330
79
100
AcDbEntity
  8
Layer 1
 62
     7
440
 33554687
100
AcDbHatch
 10
0.0
 20
0.0
 30
0.0
210
0.0
220
0.0
230
1.0
  2
SOLID
 70
     1
 71
     1
 91
        1
 92
        1
 93
        1
 72
     4
 94
        3
 73
     0
 74
     0
 95
       53
 96
       49
 40
0.0
 40
0.0
 40
0.0
 40
0.0
 40
1.0
 40
1.0
 40
1.0
 40
2.0
 40
2.0
 40
2.0
 40
3.0
 40
3.0
 40
3.0
 40
4.0
 40
4.0
 40
4.0
 40
5.0
 40
5.0
 40
5.0
 40
6.0
 40
6.0
 40
6.0
 40
7.0
 40
7.0
 40
7.0
 40
8.0
 40
8.0
 40
8.0
 40
9.0
 40
9.0
 40
9.0
 40
10.0
 40
10.0
 40
10.0
 40
11.0
 40
11.0
 40
11.0
 40
12.0
 40
12.0
 40
12.0
 40
13.0
 40
13.0
 40
13.0
 40
14.0
 40
14.0
 40
14.0
 40
15.0
 40
15.0
 40
15.0
 40
16.0
 40
16.0
 40
16.0
 40
16.0
 10
-136.3750373406669
 20
-9.390476459164068
 10
-136.7232603219084
 20
-8.968590924200027
 10
-137.1310085990859
 20
-8.597702541815765
 10
-137.5854613392299
 20
-8.290689380840705
 10
-138.4943668195218
 20
-7.676663058891229
 10
-139.5900901516805
 20
-7.318080386722365
 10
-140.7694923133203
 20
-7.318080386722365
 10
-141.1623592665151
 20
-7.318080386722365
 10
-141.5459540101499
 20
-7.357973782174854
 10
-141.9166134490914
 20
-7.433811298632709
 10
-142.4723736640531
 20
-7.547653427116312
 10
-142.9987146462155
 20
-7.742427063731025
 10
-143.4827010908847
 20
-8.005425847226304
 10
-144.1279781932008
 20
-8.356109970508619
 10
-144.6981618452583
 20
-8.827962412545774
 10
-145.1623446818562
 20
-9.390476459164068
 10
-145.9746360279698
 20
-10.37481880488249
 10
-146.4628579263844
 20
-11.63669784291407
 10
-146.4628579263844
 20
-13.01241900943311
 10
-146.4628579263844
 20
-14.38808294008567
 10
-145.9746360279698
 20
-15.64973303467446
 10
-145.1623446818562
 20
-16.63390367280887
 10
-144.6981618452583
 20
-17.19624601184315
 10
-144.1279781932008
 20
-17.66804121801383
 10
-143.4827010908847
 20
-18.01861086957475
 10
-142.9987146462155
 20
-18.28155241721126
 10
-142.4723736640531
 20
-18.47632605382597
 10
-141.9166134490914
 20
-18.59011094644695
 10
-141.5459540101499
 20
-18.66594846290481
 10
-141.1623592665151
 20
-18.70578462249403
 10
-140.7694923133203
 20
-18.70578462249403
 10
-139.5900901516805
 20
-18.70578462249403
 10
-138.4943668195218
 20
-18.34731642205041
 10
-137.5854613392299
 20
-17.73346180768496
 10
-137.1310085990859
 20
-17.42650588257316
 10
-136.7232603219084
 20
-17.05567473604767
 10
-136.3750373406669
 20
-16.63390367280887
 10
-136.1719645041388
 20
-16.38784670430961
 10
-135.9891531625747
 20
-16.12444726977983
 10
-135.8292361656018
 20
-15.84628098299324
 10
-135.3491417595133
 20
-15.0117821226264
 10
-135.0746385678601
 20
-14.04415264845607
 10
-135.0746385678601
 20
-13.01241900943311
 10
-135.0746385678601
 20
-11.98062813454431
 10
-135.3491417595133
 20
-11.01288418865259
 10
-135.8292361656018
 20
-10.17821362070109
 10
-135.9891531625747
 20
-9.899990098051882
 10
-136.1719645041388
 20
-9.636533427663326
 10
-136.3750373406669
 20
-9.390476459164068
 97
        0
 97
        1
330
86
 75
     2
 76
     1
 98
        1
 10
0.0
 20
0.0
450
        0
451
        0
460
0.0
461
0.0
452
        0
462
0.0
453
        0
470

  0
SPLINE
  5
88
330
79
100
AcDbEntity
  8
Layer 1
100
AcDbSpline
210
0.0
220
0.0
230
1.0
 70
     9
 71
     3
 72
    89
 73
    85
 74
     0
 42
0.0000000001
 43
0.0000000001
 40
0.0
 40
0.0
 40
0.0
 40
0.0
 40
1.0
 40
1.0
 40
1.0
 40
2.0
 40
2.0
 40
2.0
 40
3.0
 40
3.0
 40
3.0
 40
4.0
 40
4.0
 40
4.0
 40
5.0
 40
5.0
 40
5.0
 40
6.0
 40
6.0
 40
6.0
 40
7.0
 40
7.0
 40
7.0
 40
8.0
 40
8.0
 40
8.0
 40
9.0
 40
9.0
 40
9.0
 40
10.0
 40
10.0
 40
10.0
 40
11.0
 40
11.0
 40
11.0
 40
12.0
 40
12.0
 40
12.0
 40
13.0
 40
13.0
 40
13.0
 40
14.0
 40
14.0
 40
14.0
 40
15.0
 40
15.0
 40
15.0
 40
16.0
 40
16.0
 40
16.0
 40
17.0
 40
17.0
 40
17.0
 40
18.0
 40
18.0
 40
18.0
 40
19.0
 40
19.0
 40
19.0
 40
20.0
 40
20.0
 40
20.0
 40
21.0
 40
21.0
 40
21.0
 40
22.0
 40
22.0
 40
22.0
 40
23.0
 40
23.0
 40
23.0
 40
24.0
 40
24.0
 40
24.0
 40
25.0
 40
25.0
 40
25.0
 40
26.0
 40
26.0
 40
26.0
 40
27.0
 40
27.0
 40
27.0
 40
28.0
 40
28.0
 40
28.0
 40
28.0
 10
-77.77673341476901
 20
-10.90848597731617
 30
0.0
 10
-77.91799152089798
 20
-10.55345192855993
 30
0.0
 10
-78.09393455908737
 20
-10.215989289277
 30
0.0
 10
-78.30038431144403
 20
-9.90021904149852
 30
0.0
 10
-78.40363780554984
 20
-9.742362535538987
 30
0.0
 10
-78.51450366923613
 20
-9.589943436417533
 30
0.0
 10
-78.63240954388505
 20
-9.443476866893906
 30
0.0
 10
-79.10426198591899
 20
-8.85761058879234
 30
0.0
 10
-79.68967037712729
 20
-8.367042020050607
 30
0.0
 10
-80.35532344613319
 20
-8.005425847226304
 30
0.0
 10
-80.67813370487684
 20
-7.830112403514212
 30
0.0
 10
-81.01971732618322
 20
-7.685019494663995
 30
0.0
 10
-81.37618227147614
 20
-7.574096395118288
 30
0.0
 10
-81.91110863286182
 20
-7.407711745798123
 30
0.0
 10
-82.47968968079549
 20
-7.318080386722365
 30
0.0
 10
-83.06933352575567
 20
-7.318080386722365
 30
0.0
 10
-83.06933352575567
 20
-7.318080386722365
 30
0.0
 10
-83.06944799747771
 20
-7.318080386722365
 30
0.0
 10
-83.06944799747771
 20
-7.318080386722365
 30
0.0
 10
-83.3642126840955
 20
-7.318080386722365
 30
0.0
 10
-83.65376890732184
 20
-7.340459608560314
 30
0.0
 10
-83.93645682716639
 20
-7.383672683978145
 30
0.0
 10
-84.21920198287484
 20
-7.426885759395334
 30
0.0
 10
-84.49507883520466
 20
-7.490875452527215
 30
0.0
 10
-84.76248478003586
 20
-7.574096395118288
 30
0.0
 10
-85.29729666969631
 20
-7.740481044438453
 30
0.0
 10
-85.79845387280816
 20
-7.983676219866288
 30
0.0
 10
-86.25290661295601
 20
-8.290689380840705
 30
0.0
 10
-86.40423823070689
 20
-8.393027101163157
 30
0.0
 10
-86.55053309264586
 20
-8.50246206831021
 30
0.0
 10
-86.69121884016337
 20
-8.618536395391796
 30
0.0
 10
-86.97247586347188
 20
-8.850627813689134
 30
0.0
 10
-87.23095301391243
 20
-9.109219435854921
 30
0.0
 10
-87.46310166807175
 20
-9.390476459164068
 30
0.0
 10
-88.27539301418594
 20
-10.37481880488249
 30
0.0
 10
-88.76338596915715
 20
-11.63669784291407
 30
0.0
 10
-88.76338596915715
 20
-13.01241900943311
 30
0.0
 10
-88.76338596915715
 20
-14.38808294008567
 30
0.0
 10
-88.27539301418594
 20
-15.64973303467446
 30
0.0
 10
-87.46310166807175
 20
-16.63390367280887
 30
0.0
 10
-87.23095301391243
 20
-16.91504622439277
 30
0.0
 10
-86.97247586347188
 20
-17.17358061069594
 30
0.0
 10
-86.69121884016337
 20
-17.40567202899328
 30
0.0
 10
-86.55053309264586
 20
-17.52168912021224
 30
0.0
 10
-86.40423823070689
 20
-17.6311240873593
 30
0.0
 10
-86.25290661295601
 20
-17.73346180768496
 30
0.0
 10
-85.79845387280816
 20
-18.04036049693862
 30
0.0
 10
-85.29729666969631
 20
-18.28349843649934
 30
0.0
 10
-84.76248478003586
 20
-18.44982584996073
 30
0.0
 10
-84.49507883520466
 20
-18.53298955668982
 30
0.0
 10
-84.21920198287484
 20
-18.59703648568369
 30
0.0
 10
-83.93645682716639
 20
-18.6401923252389
 30
0.0
 10
-83.65376890732184
 20
-18.68340540065673
 30
0.0
 10
-83.3642126840955
 20
-18.70578462249403
 30
0.0
 10
-83.06944799747771
 20
-18.70578462249403
 30
0.0
 10
-83.06944799747771
 20
-18.70578462249403
 30
0.0
 10
-83.06933352575567
 20
-18.70578462249403
 30
0.0
 10
-83.06933352575567
 20
-18.70578462249403
 30
0.0
 10
-82.47968968079549
 20
-18.70578462249403
 30
0.0
 10
-81.91110863286182
 20
-18.61615326341828
 30
0.0
 10
-81.37618227147614
 20
-18.44982584996073
 30
0.0
 10
-81.01971732618322
 20
-18.33890275041182
 30
0.0
 10
-80.67813370487684
 20
-18.19392431328685
 30
0.0
 10
-80.35532344613319
 20
-18.01861086957475
 30
0.0
 10
-79.68967037712729
 20
-17.65705193261243
 30
0.0
 10
-79.10426198591899
 20
-17.16671230731862
 30
0.0
 10
-78.63240954388505
 20
-16.58096050093845
 30
0.0
 10
-78.51450366923613
 20
-16.4345511672768
 30
0.0
 10
-78.40363780554984
 20
-16.28207483229657
 30
0.0
 10
-78.30038431144403
 20
-16.12427556219581
 30
0.0
 10
-78.09393455908737
 20
-15.80861978613873
 30
0.0
 10
-77.91799152089798
 20
-15.47127161857783
 30
0.0
 10
-77.77673341476901
 20
-15.1162375698248
 30
0.0
 10
-77.70610436170324
 20
-14.93874916337799
 30
0.0
 10
-77.64417515958531
 20
-14.75679635973521
 30
0.0
 10
-77.59141895585499
 20
-14.57106598923382
 30
0.0
 10
-77.45071794778204
 20
-14.07574684399071
 30
0.0
 10
-77.37539555407687
 20
-13.5528400135195
 30
0.0
 10
-77.37539555407687
 20
-13.01241900943311
 30
0.0
 10
-77.37539555407687
 20
-12.47194076948088
 30
0.0
 10
-77.45071794778204
 20
-11.94903393900903
 30
0.0
 10
-77.59141895585499
 20
-11.45365755790394
 30
0.0
 10
-77.64417515958531
 20
-11.26786995154313
 30
0.0
 10
-77.70610436170324
 20
-11.0860316196256
 30
0.0
 10
-77.77673341476901
 20
-10.90848597731617
 30
0.0
  0
HATCH
  5
89
330
79
100
AcDbEntity
  8
Layer 1
 62
     7
440
 33554687
100
AcDbHatch
 10
0.0
 20
0.0
 30
0.0
210
0.0
220
0.0
230
1.0
  2
SOLID
 70
     1
 71
     1
 91
        1
 92
        1
 93
        1
 72
     4
 94
        3
 73
     0
 74
     0
 95
       89
 96
       85
 40
0.0
 40
0.0
 40
0.0
 40
0.0
 40
1.0
 40
1.0
 40
1.0
 40
2.0
 40
2.0
 40
2.0
 40
3.0
 40
3.0
 40
3.0
 40
4.0
 40
4.0
 40
4.0
 40
5.0
 40
5.0
 40
5.0
 40
6.0
 40
6.0
 40
6.0
 40
7.0
 40
7.0
 40
7.0
 40
8.0
 40
8.0
 40
8.0
 40
9.0
 40
9.0
 40
9.0
 40
10.0
 40
10.0
 40
10.0
 40
11.0
 40
11.0
 40
11.0
 40
12.0
 40
12.0
 40
12.0
 40
13.0
 40
13.0
 40
13.0
 40
14.0
 40
14.0
 40
14.0
 40
15.0
 40
15.0
 40
15.0
 40
16.0
 40
16.0
 40
16.0
 40
17.0
 40
17.0
 40
17.0
 40
18.0
 40
18.0
 40
18.0
 40
19.0
 40
19.0
 40
19.0
 40
20.0
 40
20.0
 40
20.0
 40
21.0
 40
21.0
 40
21.0
 40
22.0
 40
22.0
 40
22.0
 40
23.0
 40
23.0
 40
23.0
 40
24.0
 40
24.0
 40
24.0
 40
25.0
 40
25.0
 40
25.0
 40
26.0
 40
26.0
 40
26.0
 40
27.0
 40
27.0
 40
27.0
 40
28.0
 40
28.0
 40
28.0
 40
28.0
 10
-77.77673341476901
 20
-10.90848597731617
 10
-77.91799152089798
 20
-10.55345192855993
 10
-78.09393455908737
 20
-10.215989289277
 10
-78.30038431144403
 20
-9.90021904149852
 10
-78.40363780554984
 20
-9.742362535538987
 10
-78.51450366923613
 20
-9.589943436417533
 10
-78.63240954388505
 20
-9.443476866893906
 10
-79.10426198591899
 20
-8.85761058879234
 10
-79.68967037712729
 20
-8.367042020050607
 10
-80.35532344613319
 20
-8.005425847226304
 10
-80.67813370487684
 20
-7.830112403514212
 10
-81.01971732618322
 20
-7.685019494663995
 10
-81.37618227147614
 20
-7.574096395118288
 10
-81.91110863286182
 20
-7.407711745798123
 10
-82.47968968079549
 20
-7.318080386722365
 10
-83.06933352575567
 20
-7.318080386722365
 10
-83.06933352575567
 20
-7.318080386722365
 10
-83.06944799747771
 20
-7.318080386722365
 10
-83.06944799747771
 20
-7.318080386722365
 10
-83.3642126840955
 20
-7.318080386722365
 10
-83.65376890732184
 20
-7.340459608560314
 10
-83.93645682716639
 20
-7.383672683978145
 10
-84.21920198287484
 20
-7.426885759395334
 10
-84.49507883520466
 20
-7.490875452527215
 10
-84.76248478003586
 20
-7.574096395118288
 10
-85.29729666969631
 20
-7.740481044438453
 10
-85.79845387280816
 20
-7.983676219866288
 10
-86.25290661295601
 20
-8.290689380840705
 10
-86.40423823070689
 20
-8.393027101163157
 10
-86.55053309264586
 20
-8.50246206831021
 10
-86.69121884016337
 20
-8.618536395391796
 10
-86.97247586347188
 20
-8.850627813689134
 10
-87.23095301391243
 20
-9.109219435854921
 10
-87.46310166807175
 20
-9.390476459164068
 10
-88.27539301418594
 20
-10.37481880488249
 10
-88.76338596915715
 20
-11.63669784291407
 10
-88.76338596915715
 20
-13.01241900943311
 10
-88.76338596915715
 20
-14.38808294008567
 10
-88.27539301418594
 20
-15.64973303467446
 10
-87.46310166807175
 20
-16.63390367280887
 10
-87.23095301391243
 20
-16.91504622439277
 10
-86.97247586347188
 20
-17.17358061069594
 10
-86.69121884016337
 20
-17.40567202899328
 10
-86.55053309264586
 20
-17.52168912021224
 10
-86.40423823070689
 20
-17.6311240873593
 10
-86.25290661295601
 20
-17.73346180768496
 10
-85.79845387280816
 20
-18.04036049693862
 10
-85.29729666969631
 20
-18.28349843649934
 10
-84.76248478003586
 20
-18.44982584996073
 10
-84.49507883520466
 20
-18.53298955668982
 10
-84.21920198287484
 20
-18.59703648568369
 10
-83.93645682716639
 20
-18.6401923252389
 10
-83.65376890732184
 20
-18.68340540065673
 10
-83.3642126840955
 20
-18.70578462249403
 10
-83.06944799747771
 20
-18.70578462249403
 10
-83.06944799747771
 20
-18.70578462249403
 10
-83.06933352575567
 20
-18.70578462249403
 10
-83.06933352575567
 20
-18.70578462249403
 10
-82.47968968079549
 20
-18.70578462249403
 10
-81.91110863286182
 20
-18.61615326341828
 10
-81.37618227147614
 20
-18.44982584996073
 10
-81.01971732618322
 20
-18.33890275041182
 10
-80.67813370487684
 20
-18.19392431328685
 10
-80.35532344613319
 20
-18.01861086957475
 10
-79.68967037712729
 20
-17.65705193261243
 10
-79.10426198591899
 20
-17.16671230731862
 10
-78.63240954388505
 20
-16.58096050093845
 10
-78.51450366923613
 20
-16.4345511672768
 10
-78.40363780554984
 20
-16.28207483229657
 10
-78.30038431144403
 20
-16.12427556219581
 10
-78.09393455908737
 20
-15.80861978613873
 10
-77.91799152089798
 20
-15.47127161857783
 10
-77.77673341476901
 20
-15.1162375698248
 10
-77.70610436170324
 20
-14.93874916337799
 10
-77.64417515958531
 20
-14.75679635973521
 10
-77.59141895585499
 20
-14.57106598923382
 10
-77.45071794778204
 20
-14.07574684399071
 10
-77.37539555407687
 20
-13.5528400135195
 10
-77.37539555407687
 20
-13.01241900943311
 10
-77.37539555407687
 20
-12.47194076948088
 10
-77.45071794778204
 20
-11.94903393900903
 10
-77.59141895585499
 20
-11.45365755790394
 10
-77.64417515958531
 20
-11.26786995154313
 10
-77.70610436170324
 20
-11.0860316196256
 10
-77.77673341476901
 20
-10.90848597731617
 97
        0
 97
        1
330
88
 75
     2
 76
     1
 98
        1
 10
0.0
 20
0.0
450
        0
451
        0
460
0.0
461
0.0
452
        0
462
0.0
453
        0
470

  0
ENDBLK
  5
7C
330
79
100
AcDbEntity
  8
0
100
AcDbBlockEnd
  0
ENDSEC
  0
SECTION
  2
ENTITIES
  0
INSERT
  5
7A
330
70
100
AcDbEntity
  8
Layer 1
100
AcDbBlockReference
  2
Block_0
 10
0.0
 20
0.0
 30
0.0
  0
ENDSEC
  0
SECTION
  2
OBJECTS
  0
DICTIONARY
  5
C
330
0
100
AcDbDictionary
281
     1
  3
ACAD_COLOR
350
63
  3
ACAD_DETAILVIEWSTYLE
350
6A
  3
ACAD_GROUP
350
D
  3
ACAD_LAYOUT
350
62
  3
ACAD_MATERIAL
350
10
  3
ACAD_MLEADERSTYLE
350
66
  3
ACAD_MLINESTYLE
350
5F
  3
ACAD_PLOTSETTINGS
350
61
  3
ACAD_PLOTSTYLENAME
350
E
  3
ACAD_SCALELIST
350
42
  3
ACAD_SECTIONVIEWSTYLE
350
68
  3
ACAD_TABLESTYLE
350
64
  3
ACAD_VISUALSTYLE
350
29
  3
ACDB_RECOMPOSE_DATA
350
92
  3
AcDbVariableDictionary
350
8A
  0
DICTIONARY
  5
63
102
{ACAD_REACTORS
330
C
102
}
330
C
100
AcDbDictionary
281
     1
  0
DICTIONARY
  5
6A
102
{ACAD_REACTORS
330
C
102
}
330
C
100
AcDbDictionary
281
     1
  3
Imperial24
350
6B
  0
DICTIONARY
  5
D
102
{ACAD_REACTORS
330
C
102
}
330
C
100
AcDbDictionary
281
     1
  0
DICTIONARY
  5
62
102
{ACAD_REACTORS
330
C
102
}
330
C
100
AcDbDictionary
281
     1
  3
Layout1
350
6F
  3
Layout2
350
77
  3
Model
350
73
  0
DICTIONARY
  5
10
102
{ACAD_REACTORS
330
C
102
}
330
C
100
AcDbDictionary
281
     1
  3
ByBlock
350
19
  3
ByLayer
350
11
  3
Global
350
21
  0
DICTIONARY
  5
66
102
{ACAD_REACTORS
330
C
102
}
330
C
100
AcDbDictionary
281
     1
  3
Standard
350
67
  0
DICTIONARY
  5
5F
102
{ACAD_REACTORS
330
C
102
}
330
C
100
AcDbDictionary
281
     1
  3
Standard
350
60
  0
DICTIONARY
  5
61
102
{ACAD_REACTORS
330
C
102
}
330
C
100
AcDbDictionary
281
     1
  0
ACDBDICTIONARYWDFLT
  5
E
102
{ACAD_REACTORS
330
C
102
}
330
C
100
AcDbDictionary
281
     1
  3
Normal
350
F
100
AcDbDictionaryWithDefault
340
F
  0
DICTIONARY
  5
42
102
{ACAD_REACTORS
330
C
102
}
330
C
100
AcDbDictionary
281
     1
  3
A0
350
43
  3
A1
350
44
  3
A2
350
45
  3
A3
350
46
  3
A4
350
47
  3
A5
350
48
  3
A6
350
49
  3
A7
350
4A
  3
A8
350
4B
  3
A9
350
4C
  3
B0
350
4D
  3
B1
350
4E
  3
B2
350
4F
  3
B3
350
50
  3
B4
350
51
  3
B5
350
52
  3
B6
350
53
  0
DICTIONARY
  5
68
102
{ACAD_REACTORS
330
C
102
}
330
C
100
AcDbDictionary
281
     1
  3
Imperial24
350
69
  0
DICTIONARY
  5
64
102
{ACAD_REACTORS
330
C
102
}
330
C
100
AcDbDictionary
281
     1
  3
Standard
350
65
  0
DICTIONARY
  5
29
102
{ACAD_REACTORS
330
C
102
}
330
C
100
AcDbDictionary
281
     1
  3
2dWireframe
350
2F
  3
Basic
350
2E
  3
Brighten
350
35
  3
ColorChange
350
39
  3
Conceptual
350
32
  3
Dim
350
34
  3
EdgeColorOff
350
41
  3
Facepattern
350
38
  3
Flat
350
2A
  3
FlatWithEdges
350
2B
  3
Gouraud
350
2C
  3
GouraudWithEdges
350
2D
  3
Hidden
350
31
  3
JitterOff
350
3F
  3
Linepattern
350
37
  3
OverhangOff
350
40
  3
Realistic
350
33
  3
Shaded
350
3E
  3
Shaded with edges
350
3D
  3
Shades of Gray
350
3A
  3
Sketchy
350
3B
  3
Thicken
350
36
  3
Wireframe
350
30
  3
X-Ray
350
3C
  0
XRECORD
  5
92
102
{ACAD_REACTORS
330
C
102
}
330
C
100
AcDbXrecord
280
     1
 90
        1
330
65
  0
DICTIONARY
  5
8A
102
{ACAD_REACTORS
330
C
102
}
330
C
100
AcDbDictionary
281
     1
  3
CANNOSCALE
350
8F
  3
CMLEADERSTYLE
350
8C
  3
CTABLESTYLE
350
8B
  3
CVIEWDETAILSTYLE
350
8D
  3
CVIEWSECTIONSTYLE
350
8E
  0
ACDBDETAILVIEWSTYLE
  5
6B
102
{ACAD_XDICTIONARY
360
95
102
}
102
{ACAD_REACTORS
330
6A
102
}
330
6A
100
AcDbModelDocViewStyle
 70
     0
  3
Imperial24
290
     0
100
AcDbDetailViewStyle
 70
     0
 71
     0
 90
        3
 71
     1
340
55
 62
   256
 40
0.24
340
0
 62
   256
 40
0.24
300

 40
0.36
280
     3
 71
     2
340
5D
 90
       25
 62
   256
 71
     3
340
55
 62
   256
 40
0.24
 90
        1
 40
0.75
 90
        1
300
%<\AcVar ViewType \f "%tc1">% %<\AcVar ViewDetailId>%\PSCALE %<\AcVar ViewScale \f "%sn">%
 71
     4
340
5D
 90
       25
 62
   256
340
5D
 90
       25
 62
   256
280
     0
  0
LAYOUT
  5
6F
102
{ACAD_REACTORS
330
62
102
}
330
62
100
AcDbPlotSettings
  1

  2

  4

  6

 40
0.0
 41
0.0
 42
0.0
 43
0.0
 44
0.0
 45
0.0
 46
0.0
 47
0.0
 48
0.0
 49
0.0
140
0.0
141
0.0
142
1.0
143
1.0
 70
   688
 72
     0
 73
     0
 74
     5
  7

 75
    16
147
1.0
 76
     0
 77
     2
 78
   300
148
0.0
149
0.0
100
AcDbLayout
  1
Layout1
 70
     1
 71
     1
 10
0.0
 20
0.0
 11
12.0
 21
9.0
 12
0.0
 22
0.0
 32
0.0
 14
0.0
 24
0.0
 34
0.0
 15
0.0
 25
0.0
 35
0.0
146
0.0
 13
0.0
 23
0.0
 33
0.0
 16
1.0
 26
0.0
 36
0.0
 17
0.0
 27
1.0
 37
0.0
 76
     0
330
6C
  0
LAYOUT
  5
77
102
{ACAD_REACTORS
330
62
102
}
330
62
100
AcDbPlotSettings
  1

  2

  4

  6

 40
0.0
 41
0.0
 42
0.0
 43
0.0
 44
0.0
 45
0.0
 46
0.0
 47
0.0
 48
0.0
 49
0.0
140
0.0
141
0.0
142
1.0
143
1.0
 70
   688
 72
     0
 73
     0
 74
     5
  7

 75
    16
147
1.0
 76
     0
 77
     2
 78
   300
148
0.0
149
0.0
100
AcDbLayout
  1
Layout2
 70
     1
 71
     2
 10
0.0
 20
0.0
 11
12.0
 21
9.0
 12
0.0
 22
0.0
 32
0.0
 14
0.0
 24
0.0
 34
0.0
 15
0.0
 25
0.0
 35
0.0
146
0.0
 13
0.0
 23
0.0
 33
0.0
 16
1.0
 26
0.0
 36
0.0
 17
0.0
 27
1.0
 37
0.0
 76
     0
330
74
  0
LAYOUT
  5
73
102
{ACAD_REACTORS
330
62
102
}
330
62
100
AcDbPlotSettings
  1

  2

  4

  6

 40
0.0
 41
0.0
 42
0.0
 43
0.0
 44
0.0
 45
0.0
 46
0.0
 47
0.0
 48
0.0
 49
0.0
140
0.0
141
0.0
142
1.0
143
1.0
 70
  1712
 72
     0
 73
     0
 74
     0
  7

 75
     0
147
1.0
 76
     0
 77
     2
 78
   300
148
0.0
149
0.0
100
AcDbLayout
  1
Model
 70
     1
 71
     0
 10
0.0
 20
0.0
 11
12.0
 21
9.0
 12
0.0
 22
0.0
 32
0.0
 14
0.0
 24
0.0
 34
0.0
 15
0.0
 25
0.0
 35
0.0
146
0.0
 13
0.0
 23
0.0
 33
0.0
 16
1.0
 26
0.0
 36
0.0
 17
0.0
 27
1.0
 37
0.0
 76
     0
330
70
  0
MATERIAL
  5
19
102
{ACAD_XDICTIONARY
360
1A
102
}
102
{ACAD_REACTORS
330
10
102
}
330
10
100
AcDbMaterial
  1
ByBlock
 72
     0
 43
0.0208333333333333
 43
0.0
 43
0.0
 43
0.0
 43
0.0
 43
0.0208333333333333
 43
0.0
 43
0.0
 43
0.0
 43
0.0
 43
1.0
 43
0.0
 43
0.0
 43
0.0
 43
0.0
 43
1.0
 77
     0
 47
0.0208333333333333
 47
0.0
 47
0.0
 47
0.0
 47
0.0
 47
0.0208333333333333
 47
0.0
 47
0.0
 47
0.0
 47
0.0
 47
1.0
 47
0.0
 47
0.0
 47
0.0
 47
0.0
 47
1.0
171
     0
 49
0.0208333333333333
 49
0.0
 49
0.0
 49
0.0
 49
0.0
 49
0.0208333333333333
 49
0.0
 49
0.0
 49
0.0
 49
0.0
 49
1.0
 49
0.0
 49
0.0
 49
0.0
 49
0.0
 49
1.0
175
     0
142
0.0208333333333333
142
0.0
142
0.0
142
0.0
142
0.0
142
0.0208333333333333
142
0.0
142
0.0
142
0.0
142
0.0
142
1.0
142
0.0
142
0.0
142
0.0
142
0.0
142
1.0
179
     0
144
0.0208333333333333
144
0.0
144
0.0
144
0.0
144
0.0
144
0.0208333333333333
144
0.0
144
0.0
144
0.0
144
0.0
144
1.0
144
0.0
144
0.0
144
0.0
144
0.0
144
1.0
147
0.0208333333333333
147
0.0
147
0.0
147
0.0
147
0.0
147
0.0208333333333333
147
0.0
147
0.0
147
0.0
147
0.0
147
1.0
147
0.0
147
0.0
147
0.0
147
0.0
147
1.0
  0
MATERIAL
  5
11
102
{ACAD_XDICTIONARY
360
12
102
}
102
{ACAD_REACTORS
330
10
102
}
330
10
100
AcDbMaterial
  1
ByLayer
 72
     0
 43
0.0208333333333333
 43
0.0
 43
0.0
 43
0.0
 43
0.0
 43
0.0208333333333333
 43
0.0
 43
0.0
 43
0.0
 43
0.0
 43
1.0
 43
0.0
 43
0.0
 43
0.0
 43
0.0
 43
1.0
 77
     0
 47
0.0208333333333333
 47
0.0
 47
0.0
 47
0.0
 47
0.0
 47
0.0208333333333333
 47
0.0
 47
0.0
 47
0.0
 47
0.0
 47
1.0
 47
0.0
 47
0.0
 47
0.0
 47
0.0
 47
1.0
171
     0
 49
0.0208333333333333
 49
0.0
 49
0.0
 49
0.0
 49
0.0
 49
0.0208333333333333
 49
0.0
 49
0.0
 49
0.0
 49
0.0
 49
1.0
 49
0.0
 49
0.0
 49
0.0
 49
0.0
 49
1.0
175
     0
142
0.0208333333333333
142
0.0
142
0.0
142
0.0
142
0.0
142
0.0208333333333333
142
0.0
142
0.0
142
0.0
142
0.0
142
1.0
142
0.0
142
0.0
142
0.0
142
0.0
142
1.0
179
     0
144
0.0208333333333333
144
0.0
144
0.0
144
0.0
144
0.0
144
0.0208333333333333
144
0.0
144
0.0
144
0.0
144
0.0
144
1.0
144
0.0
144
0.0
144
0.0
144
0.0
144
1.0
147
0.0208333333333333
147
0.0
147
0.0
147
0.0
147
0.0
147
0.0208333333333333
147
0.0
147
0.0
147
0.0
147
0.0
147
1.0
147
0.0
147
0.0
147
0.0
147
0.0
147
1.0
  0
MATERIAL
  5
21
102
{ACAD_XDICTIONARY
360
22
102
}
102
{ACAD_REACTORS
330
10
102
}
330
10
100
AcDbMaterial
  1
Global
 72
     0
 43
0.0208333333333333
 43
0.0
 43
0.0
 43
0.0
 43
0.0
 43
0.0208333333333333
 43
0.0
 43
0.0
 43
0.0
 43
0.0
 43
1.0
 43
0.0
 43
0.0
 43
0.0
 43
0.0
 43
1.0
 77
     0
 47
0.0208333333333333
 47
0.0
 47
0.0
 47
0.0
 47
0.0
 47
0.0208333333333333
 47
0.0
 47
0.0
 47
0.0
 47
0.0
 47
1.0
 47
0.0
 47
0.0
 47
0.0
 47
0.0
 47
1.0
171
     0
 49
0.0208333333333333
 49
0.0
 49
0.0
 49
0.0
 49
0.0
 49
0.0208333333333333
 49
0.0
 49
0.0
 49
0.0
 49
0.0
 49
1.0
 49
0.0
 49
0.0
 49
0.0
 49
0.0
 49
1.0
175
     0
142
0.0208333333333333
142
0.0
142
0.0
142
0.0
142
0.0
142
0.0208333333333333
142
0.0
142
0.0
142
0.0
142
0.0
142
1.0
142
0.0
142
0.0
142
0.0
142
0.0
142
1.0
179
     0
144
0.0208333333333333
144
0.0
144
0.0
144
0.0
144
0.0
144
0.0208333333333333
144
0.0
144
0.0
144
0.0
144
0.0
144
1.0
144
0.0
144
0.0
144
0.0
144
0.0
144
1.0
147
0.0208333333333333
147
0.0
147
0.0
147
0.0
147
0.0
147
0.0208333333333333
147
0.0
147
0.0
147
0.0
147
0.0
147
1.0
147
0.0
147
0.0
147
0.0
147
0.0
147
1.0
  0
MLEADERSTYLE
  5
67
102
{ACAD_REACTORS
330
66
102
}
330
66
100
AcDbMLeaderStyle
179
     2
170
     2
171
     1
172
     0
 90
        2
 40
0.0
 41
0.0
173
     1
 91
-1056964608
340
5B
 92
       -2
290
     1
 42
0.09
291
     1
 43
0.36
  3
Standard
 44
0.18
300

342
55
174
     1
178
     6
175
     1
176
     0
 93
-1056964608
 45
0.18
292
     0
297
     0
 46
0.18
 94
-1056964608
 47
1.0
 49
1.0
140
1.0
293
     1
141
0.0
294
     1
177
     0
142
1.0
295
     0
296
     0
143
0.125
271
     0
272
     9
273
     9
298
     1
  0
MLINESTYLE
  5
60
102
{ACAD_REACTORS
330
5F
102
}
330
5F
100
AcDbMlineStyle
  2
STANDARD
 70
     0
  3

 62
   256
 51
90.0
 52
90.0
 71
     2
 49
0.5
 62
   256
  6
BYLAYER
 49
-0.5
 62
   256
  6
BYLAYER
  0
ACDBPLACEHOLDER
  5
F
102
{ACAD_REACTORS
330
E
102
}
330
E
  0
SCALE
  5
43
102
{ACAD_REACTORS
330
42
102
}
330
42
100
AcDbScale
 70
     0
300
1:1
140
1.0
141
1.0
290
     1
  0
SCALE
  5
44
102
{ACAD_REACTORS
330
42
102
}
330
42
100
AcDbScale
 70
     0
300
1/128" = 1'-0"
140
0.0078125
141
12.0
290
     0
  0
SCALE
  5
45
102
{ACAD_REACTORS
330
42
102
}
330
42
100
AcDbScale
 70
     0
300
1/64" = 1'-0"
140
0.015625
141
12.0
290
     0
  0
SCALE
  5
46
102
{ACAD_REACTORS
330
42
102
}
330
42
100
AcDbScale
 70
     0
300
1/32" = 1'-0"
140
0.03125
141
12.0
290
     0
  0
SCALE
  5
47
102
{ACAD_REACTORS
330
42
102
}
330
42
100
AcDbScale
 70
     0
300
1/16" = 1'-0"
140
0.0625
141
12.0
290
     0
  0
SCALE
  5
48
102
{ACAD_REACTORS
330
42
102
}
330
42
100
AcDbScale
 70
     0
300
3/32" = 1'-0"
140
0.09375
141
12.0
290
     0
  0
SCALE
  5
49
102
{ACAD_REACTORS
330
42
102
}
330
42
100
AcDbScale
 70
     0
300
1/8" = 1'-0"
140
0.125
141
12.0
290
     0
  0
SCALE
  5
4A
102
{ACAD_REACTORS
330
42
102
}
330
42
100
AcDbScale
 70
     0
300
3/16" = 1'-0"
140
0.1875
141
12.0
290
     0
  0
SCALE
  5
4B
102
{ACAD_REACTORS
330
42
102
}
330
42
100
AcDbScale
 70
     0
300
1/4" = 1'-0"
140
0.25
141
12.0
290
     0
  0
SCALE
  5
4C
102
{ACAD_REACTORS
330
42
102
}
330
42
100
AcDbScale
 70
     0
300
3/8" = 1'-0"
140
0.375
141
12.0
290
     0
  0
SCALE
  5
4D
102
{ACAD_REACTORS
330
42
102
}
330
42
100
AcDbScale
 70
     0
300
1/2" = 1'-0"
140
0.5
141
12.0
290
     0
  0
SCALE
  5
4E
102
{ACAD_REACTORS
330
42
102
}
330
42
100
AcDbScale
 70
     0
300
3/4" = 1'-0"
140
0.75
141
12.0
290
     0
  0
SCALE
  5
4F
102
{ACAD_REACTORS
330
42
102
}
330
42
100
AcDbScale
 70
     0
300
1" = 1'-0"
140
1.0
141
12.0
290
     0
  0
SCALE
  5
50
102
{ACAD_REACTORS
330
42
102
}
330
42
100
AcDbScale
 70
     0
300
1-1/2" = 1'-0"
140
1.5
141
12.0
290
     0
  0
SCALE
  5
51
102
{ACAD_REACTORS
330
42
102
}
330
42
100
AcDbScale
 70
     0
300
3" = 1'-0"
140
3.0
141
12.0
290
     0
  0
SCALE
  5
52
102
{ACAD_REACTORS
330
42
102
}
330
42
100
AcDbScale
 70
     0
300
6" = 1'-0"
140
6.0
141
12.0
290
     0
  0
SCALE
  5
53
102
{ACAD_REACTORS
330
42
102
}
330
42
100
AcDbScale
 70
     0
300
1'-0" = 1'-0"
140
12.0
141
12.0
290
     0
  0
ACDBSECTIONVIEWSTYLE
  5
69
102
{ACAD_XDICTIONARY
360
93
102
}
102
{ACAD_REACTORS
330
68
102
}
330
68
100
AcDbModelDocViewStyle
 70
     0
  3
Imperial24
290
     0
100
AcDbSectionViewStyle
 70
     0
 71
     0
 90
       78
 71
     1
340
55
 62
   256
 40
0.24
340
0
340
0
 62
   256
 40
0.24
300
I, O, Q, S, X, Z
 40
0.48
 90
        3
 40
0.18
 90
        1
 71
     2
340
5D
 90
       25
 62
   256
340
5D
 90
       50
 62
   256
 40
0.24
 40
0.0
 40
0.24
 71
     3
340
55
 62
   256
 40
0.24
 90
        1
 40
0.75
 90
        1
300
%<\AcVar ViewType \f "%tc1">% %<\AcVar ViewSectionStartId>%-%<\AcVar ViewSectionEndId>%\PSCALE %<\AcVar ViewScale \f "%sn">%
 71
     4
 62
   256
 62
   257
300
ANSI31
 40
1.0
 90
        0
290
     0
290
     0
 90
        6
 40
0.0
 40
1.570796326794896
 40
0.2617993877991494
 40
1.308996938995747
 40
-0.2617993877991494
 40
1.832595714594046
  0
TABLESTYLE
  5
65
102
{ACAD_XDICTIONARY
360
90
102
}
102
{ACAD_REACTORS
330
64
102
}
330
64
100
AcDbTableStyle
280
     0
  3
Standard
 70
     0
 71
     0
 40
0.06
 41
0.06
280
     0
281
     0
  7
Standard
140
0.18
170
     2
 62
     0
 63
     7
283
     0
 90
      512
 91
        0
  1

274
    -2
284
     1
 64
     0
275
    -2
285
     1
 65
     0
276
    -2
286
     1
 66
     0
277
    -2
287
     1
 67
     0
278
    -2
288
     1
 68
     0
279
    -2
289
     1
 69
     0
  7
Standard
140
0.25
170
     5
 62
     0
 63
     7
283
     0
 90
      512
 91
        0
  1

274
    -2
284
     1
 64
     0
275
    -2
285
     1
 65
     0
276
    -2
286
     1
 66
     0
277
    -2
287
     1
 67
     0
278
    -2
288
     1
 68
     0
279
    -2
289
     1
 69
     0
  7
Standard
140
0.18
170
     5
 62
     0
 63
     7
283
     0
 90
      512
 91
        0
  1

274
    -2
284
     1
 64
     0
275
    -2
285
     1
 65
     0
276
    -2
286
     1
 66
     0
277
    -2
287
     1
 67
     0
278
    -2
288
     1
 68
     0
279
    -2
289
     1
 69
     0
  0
VISUALSTYLE
  5
2F
102
{ACAD_REACTORS
330
29
102
}
330
29
100
AcDbVisualStyle
  2
2dWireframe
 70
     4
177
     3
291
     0
 70
    58
 90
        0
176
     1
 90
        2
176
     1
 90
        0
176
     1
 90
        0
176
     1
 40
0.6
176
     1
 40
30.0
176
     1
 62
     7
420
 16777215
176
     1
 90
        1
176
     1
 90
        4
176
     1
 62
     7
176
     1
 62
   257
176
     1
 90
        1
176
     1
 90
        1
176
     1
 40
1.0
176
     1
 90
        0
176
     1
 62
   257
176
     1
 40
1.0
176
     1
 90
        1
176
     1
 90
        6
176
     1
 90
        2
176
     1
 62
     7
176
     1
 90
        5
176
     1
 90
        0
176
     1
 90
        0
176
     1
290
     0
176
     1
 90
        1
176
     1
 40
0.0
176
     1
 90
        0
176
     1
290
     1
176
     1
290
     1
176
     1
290
     0
176
     1
290
     0
176
     1
290
     0
176
     1
290
     0
176
     1
290
     0
176
     1
290
     0
176
     1
290
     0
176
     1
 90
       50
176
     1
 40
0.0
176
     1
 40
1.0
176
     1
 90
        0
176
     1
 62
    18
420
        0
176
     1
 90
       50
176
     1
 90
        3
176
     1
 62
     5
420
      255
176
     1
290
     0
176
     1
 90
       50
176
     1
 90
       50
176
     1
 90
       50
176
     1
290
     0
176
     1
 90
       50
176
     1
 62
   256
176
     0
 40
1.0
176
     0
 90
        2
176
     1
  1
strokes_ogs.tif
176
     1
290
     0
176
     1
 40
1.0
176
     1
 40
1.0
176
     1
1001
ACAD
1000
AcDbSavedByObjectVersion
1070
     0
  0
VISUALSTYLE
  5
2E
102
{ACAD_REACTORS
330
29
102
}
330
29
100
AcDbVisualStyle
  2
Basic
 70
     7
177
     3
291
     1
 70
    58
 90
        1
176
     1
 90
        0
176
     1
 90
        1
176
     1
 90
        0
176
     1
 40
0.6
176
     1
 40
30.0
176
     1
 62
     7
420
 16777215
176
     1
 90
        0
176
     1
 90
        4
176
     1
 62
     7
176
     1
 62
   257
176
     1
 90
        1
176
     1
 90
        1
176
     1
 40
1.0
176
     1
 90
        8
176
     1
 62
     7
176
     1
 40
1.0
176
     1
 90
        1
176
     1
 90
        6
176
     1
 90
        2
176
     1
 62
     7
176
     1
 90
        5
176
     1
 90
        0
176
     1
 90
        0
176
     1
290
     0
176
     1
 90
        1
176
     1
 40
0.0
176
     1
 90
        0
176
     1
290
     0
176
     1
290
     1
176
     1
290
     1
176
     1
290
     0
176
     1
290
     0
176
     1
290
     0
176
     1
290
     0
176
     1
290
     0
176
     1
290
     0
176
     1
 90
       50
176
     1
 40
0.0
176
     1
 40
1.0
176
     1
 90
        0
176
     1
 62
    18
420
        0
176
     1
 90
       50
176
     1
 90
        3
176
     1
 62
     5
420
      255
176
     1
290
     0
176
     1
 90
       50
176
     1
 90
       50
176
     1
 90
       50
176
     1
290
     0
176
     1
 90
       50
176
     1
 62
   256
176
     0
 40
1.0
176
     0
 90
        2
176
     1
  1
strokes_ogs.tif
176
     1
290
     0
176
     1
 40
1.0
176
     1
 40
1.0
176
     1
1001
ACAD
1000
AcDbSavedByObjectVersion
1070
     0
  0
VISUALSTYLE
  5
35
102
{ACAD_REACTORS
330
29
102
}
330
29
100
AcDbVisualStyle
  2
Brighten
 70
    12
177
     3
291
     1
 70
    58
 90
        2
176
     1
 90
        2
176
     1
 90
        0
176
     1
 90
        0
176
     1
 40
0.6
176
     1
 40
30.0
176
     1
 62
     7
420
 16777215
176
     1
 90
        1
176
     1
 90
        4
176
     1
 62
     7
176
     1
 62
   257
176
     1
 90
        1
176
     1
 90
        1
176
     1
 40
1.0
176
     1
 90
        8
176
     1
 62
     7
176
     1
 40
1.0
176
     1
 90
        1
176
     1
 90
        6
176
     1
 90
        2
176
     1
 62
     7
176
     1
 90
        5
176
     1
 90
        0
176
     1
 90
        0
176
     1
290
     0
176
     1
 90
        1
176
     1
 40
50.0
176
     1
 90
        0
176
     1
290
     0
176
     1
290
     1
176
     1
290
     1
176
     1
290
     0
176
     1
290
     0
176
     1
290
     0
176
     1
290
     0
176
     1
290
     0
176
     1
290
     0
176
     1
 90
       50
176
     1
 40
0.0
176
     1
 40
1.0
176
     1
 90
        0
176
     1
 62
    18
420
        0
176
     1
 90
       50
176
     1
 90
        3
176
     1
 62
     5
420
      255
176
     1
290
     0
176
     1
 90
       50
176
     1
 90
       50
176
     1
 90
       50
176
     1
290
     0
176
     1
 90
       50
176
     1
 62
   256
176
     0
 40
1.0
176
     0
 90
        2
176
     1
  1
strokes_ogs.tif
176
     1
290
     0
176
     1
 40
1.0
176
     1
 40
1.0
176
     1
1001
ACAD
1000
AcDbSavedByObjectVersion
1070
     0
  0
VISUALSTYLE
  5
39
102
{ACAD_REACTORS
330
29
102
}
330
29
100
AcDbVisualStyle
  2
ColorChange
 70
    16
177
     3
291
     1
 70
    58
 90
        2
176
     1
 90
        2
176
     1
 90
        3
176
     1
 90
        0
176
     1
 40
0.6
176
     1
 40
30.0
176
     1
 62
     8
420
  8421504
176
     1
 90
        1
176
     1
 90
        4
176
     1
 62
     7
176
     1
 62
   257
176
     1
 90
        1
176
     1
 90
        1
176
     1
 40
1.0
176
     1
 90
        8
176
     1
 62
     8
420
  8421504
176
     1
 40
1.0
176
     1
 90
        1
176
     1
 90
        6
176
     1
 90
        2
176
     1
 62
     7
176
     1
 90
        5
176
     1
 90
        0
176
     1
 90
        0
176
     1
290
     0
176
     1
 90
        1
176
     1
 40
0.0
176
     1
 90
        0
176
     1
290
     0
176
     1
290
     1
176
     1
290
     1
176
     1
290
     0
176
     1
290
     0
176
     1
290
     0
176
     1
290
     0
176
     1
290
     0
176
     1
290
     0
176
     1
 90
       50
176
     1
 40
0.0
176
     1
 40
1.0
176
     1
 90
        0
176
     1
 62
    18
420
        0
176
     1
 90
       50
176
     1
 90
        3
176
     1
 62
     5
420
      255
176
     1
290
     0
176
     1
 90
       50
176
     1
 90
       50
176
     1
 90
       50
176
     1
290
     0
176
     1
 90
       50
176
     1
 62
   256
176
     0
 40
1.0
176
     0
 90
        2
176
     1
  1
strokes_ogs.tif
176
     1
290
     0
176
     1
 40
1.0
176
     1
 40
1.0
176
     1
1001
ACAD
1000
AcDbSavedByObjectVersion
1070
     0
  0
VISUALSTYLE
  5
32
102
{ACAD_REACTORS
330
29
102
}
330
29
100
AcDbVisualStyle
  2
Conceptual
 70
     9
177
     3
291
     0
 70
    58
 90
        3
176
     1
 90
        2
176
     1
 90
        0
176
     1
 90
        0
176
     1
 40
0.6
176
     1
 40
30.0
176
     1
 62
     7
420
 16777215
176
     1
 90
        2
176
     1
 90
        2
176
     1
 62
     7
176
     1
 62
   257
176
     1
 90
        1
176
     1
 90
        1
176
     1
 40
179.0
176
     1
 90
        8
176
     1
 62
     7
176
     1
 40
1.0
176
     1
 90
        1
176
     1
 90
        6
176
     1
 90
        2
176
     1
 62
     7
176
     1
 90
        3
176
     1
 90
        0
176
     1
 90
        0
176
     1
290
     0
176
     1
 90
        1
176
     1
 40
0.0
176
     1
 90
        0
176
     1
290
     0
176
     1
290
     1
176
     1
290
     1
176
     1
290
     0
176
     1
290
     0
176
     1
290
     0
176
     1
290
     0
176
     1
290
     0
176
     1
290
     0
176
     1
 90
       50
176
     1
 40
0.0
176
     1
 40
1.0
176
     1
 90
        0
176
     1
 62
    18
420
        0
176
     1
 90
       50
176
     1
 90
        3
176
     1
 62
     5
420
      255
176
     1
290
     0
176
     1
 90
       50
176
     1
 90
       50
176
     1
 90
       50
176
     1
290
     0
176
     1
 90
       50
176
     1
 62
   256
176
     0
 40
1.0
176
     0
 90
        2
176
     1
  1
strokes_ogs.tif
176
     1
290
     0
176
     1
 40
1.0
176
     1
 40
1.0
176
     1
1001
ACAD
1000
AcDbSavedByObjectVersion
1070
     0
  0
VISUALSTYLE
  5
34
102
{ACAD_REACTORS
330
29
102
}
330
29
100
AcDbVisualStyle
  2
Dim
 70
    11
177
     3
291
     1
 70
    58
 90
        2
176
     1
 90
        2
176
     1
 90
        0
176
     1
 90
        0
176
     1
 40
0.6
176
     1
 40
30.0
176
     1
 62
     7
420
 16777215
176
     1
 90
        1
176
     1
 90
        4
176
     1
 62
     7
176
     1
 62
   257
176
     1
 90
        1
176
     1
 90
        1
176
     1
 40
1.0
176
     1
 90
        8
176
     1
 62
     7
176
     1
 40
1.0
176
     1
 90
        1
176
     1
 90
        6
176
     1
 90
        2
176
     1
 62
     7
176
     1
 90
        5
176
     1
 90
        0
176
     1
 90
        0
176
     1
290
     0
176
     1
 90
        1
176
     1
 40
-50.0
176
     1
 90
        0
176
     1
290
     0
176
     1
290
     1
176
     1
290
     1
176
     1
290
     0
176
     1
290
     0
176
     1
290
     0
176
     1
290
     0
176
     1
290
     0
176
     1
290
     0
176
     1
 90
       50
176
     1
 40
0.0
176
     1
 40
1.0
176
     1
 90
        0
176
     1
 62
    18
420
        0
176
     1
 90
       50
176
     1
 90
        3
176
     1
 62
     5
420
      255
176
     1
290
     0
176
     1
 90
       50
176
     1
 90
       50
176
     1
 90
       50
176
     1
290
     0
176
     1
 90
       50
176
     1
 62
   256
176
     0
 40
1.0
176
     0
 90
        2
176
     1
  1
strokes_ogs.tif
176
     1
290
     0
176
     1
 40
1.0
176
     1
 40
1.0
176
     1
1001
ACAD
1000
AcDbSavedByObjectVersion
1070
     0
  0
VISUALSTYLE
  5
41
102
{ACAD_REACTORS
330
29
102
}
330
29
100
AcDbVisualStyle
  2
EdgeColorOff
 70
    22
177
     3
291
     1
 70
    58
 90
        2
176
     0
 90
        2
176
     0
 90
        0
176
     0
 90
        0
176
     0
 40
0.6
176
     0
 40
30.0
176
     0
 62
     7
420
 16777215
176
     0
 90
        1
176
     0
 90
        4
176
     0
 62
     7
176
     0
 62
   257
176
     0
 90
        1
176
     0
 90
        1
176
     0
 40
1.0
176
     0
 90
        8
176
     2
 62
     7
176
     0
 40
1.0
176
     0
 90
        1
176
     0
 90
        6
176
     0
 90
        2
176
     0
 62
     7
176
     0
 90
        5
176
     0
 90
        0
176
     0
 90
        0
176
     0
290
     0
176
     0
 90
        1
176
     0
 40
0.0
176
     0
 90
        0
176
     0
290
     0
176
     0
290
     1
176
     0
290
     1
176
     0
290
     0
176
     0
290
     0
176
     0
290
     0
176
     0
290
     0
176
     0
290
     0
176
     0
290
     0
176
     0
 90
       50
176
     0
 40
0.0
176
     0
 40
1.0
176
     0
 90
        0
176
     0
 62
    18
420
        0
176
     0
 90
       50
176
     0
 90
        3
176
     0
 62
     5
420
      255
176
     0
290
     0
176
     0
 90
       50
176
     0
 90
       50
176
     0
 90
       50
176
     0
290
     0
176
     0
 90
       50
176
     0
 62
   256
176
     0
 40
1.0
176
     0
 90
        2
176
     0
  1
strokes_ogs.tif
176
     0
290
     0
176
     0
 40
1.0
176
     0
 40
1.0
176
     0
1001
ACAD
1000
AcDbSavedByObjectVersion
1070
     0
  0
VISUALSTYLE
  5
38
102
{ACAD_REACTORS
330
29
102
}
330
29
100
AcDbVisualStyle
  2
Facepattern
 70
    15
177
     3
291
     1
 70
    58
 90
        2
176
     1
 90
        2
176
     1
 90
        0
176
     1
 90
        0
176
     1
 40
0.6
176
     1
 40
30.0
176
     1
 62
     7
420
 16777215
176
     1
 90
        1
176
     1
 90
        4
176
     1
 62
     7
176
     1
 62
   257
176
     1
 90
        1
176
     1
 90
        1
176
     1
 40
1.0
176
     1
 90
        8
176
     1
 62
     7
176
     1
 40
1.0
176
     1
 90
        1
176
     1
 90
        6
176
     1
 90
        2
176
     1
 62
     7
176
     1
 90
        5
176
     1
 90
        0
176
     1
 90
        0
176
     1
290
     0
176
     1
 90
        1
176
     1
 40
0.0
176
     1
 90
        0
176
     1
290
     0
176
     1
290
     1
176
     1
290
     1
176
     1
290
     0
176
     1
290
     0
176
     1
290
     0
176
     1
290
     0
176
     1
290
     0
176
     1
290
     0
176
     1
 90
       50
176
     1
 40
0.0
176
     1
 40
1.0
176
     1
 90
        0
176
     1
 62
    18
420
        0
176
     1
 90
       50
176
     1
 90
        3
176
     1
 62
     5
420
      255
176
     1
290
     0
176
     1
 90
       50
176
     1
 90
       50
176
     1
 90
       50
176
     1
290
     0
176
     1
 90
       50
176
     1
 62
   256
176
     0
 40
1.0
176
     0
 90
        2
176
     1
  1
strokes_ogs.tif
176
     1
290
     0
176
     1
 40
1.0
176
     1
 40
1.0
176
     1
1001
ACAD
1000
AcDbSavedByObjectVersion
1070
     0
  0
VISUALSTYLE
  5
2A
102
{ACAD_REACTORS
330
29
102
}
330
29
100
AcDbVisualStyle
  2
Flat
 70
     0
177
     3
291
     1
 70
    58
 90
        2
176
     1
 90
        1
176
     1
 90
        1
176
     1
 90
        2
176
     1
 40
0.6
176
     1
 40
30.0
176
     1
 62
     7
420
 16777215
176
     1
 90
        0
176
     1
 90
        0
176
     1
 62
     7
176
     1
 62
   257
176
     1
 90
        1
176
     1
 90
        1
176
     1
 40
1.0
176
     1
 90
        8
176
     1
 62
     7
176
     1
 40
1.0
176
     1
 90
        1
176
     1
 90
        6
176
     1
 90
        2
176
     1
 62
     7
176
     1
 90
        5
176
     1
 90
        0
176
     1
 90
        0
176
     1
290
     0
176
     1
 90
       13
176
     1
 40
0.0
176
     1
 90
        0
176
     1
290
     0
176
     1
290
     1
176
     1
290
     1
176
     1
290
     0
176
     1
290
     0
176
     1
290
     0
176
     1
290
     0
176
     1
290
     0
176
     1
290
     0
176
     1
 90
       50
176
     1
 40
0.0
176
     1
 40
1.0
176
     1
 90
        0
176
     1
 62
    18
420
        0
176
     1
 90
       50
176
     1
 90
        3
176
     1
 62
     5
420
      255
176
     1
290
     0
176
     1
 90
       50
176
     1
 90
       50
176
     1
 90
       50
176
     1
290
     0
176
     1
 90
       50
176
     1
 62
   256
176
     0
 40
1.0
176
     0
 90
        2
176
     1
  1
strokes_ogs.tif
176
     1
290
     0
176
     1
 40
1.0
176
     1
 40
1.0
176
     1
1001
ACAD
1000
AcDbSavedByObjectVersion
1070
     0
  0
VISUALSTYLE
  5
2B
102
{ACAD_REACTORS
330
29
102
}
330
29
100
AcDbVisualStyle
  2
FlatWithEdges
 70
     1
177
     3
291
     1
 70
    58
 90
        2
176
     1
 90
        1
176
     1
 90
        1
176
     1
 90
        2
176
     1
 40
0.6
176
     1
 40
30.0
176
     1
 62
     7
420
 16777215
176
     1
 90
        1
176
     1
 90
        0
176
     1
 62
     7
176
     1
 62
   257
176
     1
 90
        1
176
     1
 90
        1
176
     1
 40
1.0
176
     1
 90
        0
176
     1
 62
   257
176
     1
 40
1.0
176
     1
 90
        1
176
     1
 90
        6
176
     1
 90
        2
176
     1
 62
     7
176
     1
 90
        5
176
     1
 90
        0
176
     1
 90
        0
176
     1
290
     0
176
     1
 90
       13
176
     1
 40
0.0
176
     1
 90
        0
176
     1
290
     0
176
     1
290
     1
176
     1
290
     1
176
     1
290
     0
176
     1
290
     0
176
     1
290
     0
176
     1
290
     0
176
     1
290
     0
176
     1
290
     0
176
     1
 90
       50
176
     1
 40
0.0
176
     1
 40
1.0
176
     1
 90
        0
176
     1
 62
    18
420
        0
176
     1
 90
       50
176
     1
 90
        3
176
     1
 62
     5
420
      255
176
     1
290
     0
176
     1
 90
       50
176
     1
 90
       50
176
     1
 90
       50
176
     1
290
     0
176
     1
 90
       50
176
     1
 62
   256
176
     0
 40
1.0
176
     0
 90
        2
176
     1
  1
strokes_ogs.tif
176
     1
290
     0
176
     1
 40
1.0
176
     1
 40
1.0
176
     1
1001
ACAD
1000
AcDbSavedByObjectVersion
1070
     0
  0
VISUALSTYLE
  5
2C
102
{ACAD_REACTORS
330
29
102
}
330
29
100
AcDbVisualStyle
  2
Gouraud
 70
     2
177
     3
291
     1
 70
    58
 90
        2
176
     1
 90
        2
176
     1
 90
        1
176
     1
 90
        2
176
     1
 40
0.6
176
     1
 40
30.0
176
     1
 62
     7
420
 16777215
176
     1
 90
        0
176
     1
 90
        0
176
     1
 62
     7
176
     1
 62
   257
176
     1
 90
        1
176
     1
 90
        1
176
     1
 40
1.0
176
     1
 90
        0
176
     1
 62
     7
176
     1
 40
1.0
176
     1
 90
        1
176
     1
 90
        6
176
     1
 90
        2
176
     1
 62
     7
176
     1
 90
        5
176
     1
 90
        0
176
     1
 90
        0
176
     1
290
     0
176
     1
 90
       13
176
     1
 40
0.0
176
     1
 90
        0
176
     1
290
     0
176
     1
290
     1
176
     1
290
     1
176
     1
290
     0
176
     1
290
     0
176
     1
290
     0
176
     1
290
     0
176
     1
290
     0
176
     1
290
     0
176
     1
 90
       50
176
     1
 40
0.0
176
     1
 40
1.0
176
     1
 90
        0
176
     1
 62
    18
420
        0
176
     1
 90
       50
176
     1
 90
        3
176
     1
 62
     5
420
      255
176
     1
290
     0
176
     1
 90
       50
176
     1
 90
       50
176
     1
 90
       50
176
     1
290
     0
176
     1
 90
       50
176
     1
 62
   256
176
     0
 40
1.0
176
     0
 90
        2
176
     1
  1
strokes_ogs.tif
176
     1
290
     0
176
     1
 40
1.0
176
     1
 40
1.0
176
     1
1001
ACAD
1000
AcDbSavedByObjectVersion
1070
     0
  0
VISUALSTYLE
  5
2D
102
{ACAD_REACTORS
330
29
102
}
330
29
100
AcDbVisualStyle
  2
GouraudWithEdges
 70
     3
177
     3
291
     1
 70
    58
 90
        2
176
     1
 90
        2
176
     1
 90
        1
176
     1
 90
        2
176
     1
 40
0.6
176
     1
 40
30.0
176
     1
 62
     7
420
 16777215
176
     1
 90
        1
176
     1
 90
        0
176
     1
 62
     7
176
     1
 62
   257
176
     1
 90
        1
176
     1
 90
        1
176
     1
 40
1.0
176
     1
 90
        0
176
     1
 62
   257
176
     1
 40
1.0
176
     1
 90
        1
176
     1
 90
        6
176
     1
 90
        2
176
     1
 62
     7
176
     1
 90
        5
176
     1
 90
        0
176
     1
 90
        0
176
     1
290
     0
176
     1
 90
       13
176
     1
 40
0.0
176
     1
 90
        0
176
     1
290
     0
176
     1
290
     1
176
     1
290
     1
176
     1
290
     0
176
     1
290
     0
176
     1
290
     0
176
     1
290
     0
176
     1
290
     0
176
     1
290
     0
176
     1
 90
       50
176
     1
 40
0.0
176
     1
 40
1.0
176
     1
 90
        0
176
     1
 62
    18
420
        0
176
     1
 90
       50
176
     1
 90
        3
176
     1
 62
     5
420
      255
176
     1
290
     0
176
     1
 90
       50
176
     1
 90
       50
176
     1
 90
       50
176
     1
290
     0
176
     1
 90
       50
176
     1
 62
   256
176
     0
 40
1.0
176
     0
 90
        2
176
     1
  1
strokes_ogs.tif
176
     1
290
     0
176
     1
 40
1.0
176
     1
 40
1.0
176
     1
1001
ACAD
1000
AcDbSavedByObjectVersion
1070
     0
  0
VISUALSTYLE
  5
31
102
{ACAD_REACTORS
330
29
102
}
330
29
100
AcDbVisualStyle
  2
Hidden
 70
     6
177
     3
291
     0
 70
    58
 90
        1
176
     1
 90
        2
176
     1
 90
        2
176
     1
 90
        0
176
     1
 40
0.6
176
     1
 40
30.0
176
     1
 62
     7
420
 16777215
176
     1
 90
        2
176
     1
 90
        2
176
     1
 62
     7
176
     1
 62
   257
176
     1
 90
        2
176
     1
 90
        1
176
     1
 40
40.0
176
     1
 90
        0
176
     1
 62
   257
176
     1
 40
1.0
176
     1
 90
        1
176
     1
 90
        6
176
     1
 90
        2
176
     1
 62
     7
176
     1
 90
        3
176
     1
 90
        0
176
     1
 90
        0
176
     1
290
     0
176
     1
 90
        1
176
     1
 40
0.0
176
     1
 90
        0
176
     1
290
     0
176
     1
290
     1
176
     1
290
     1
176
     1
290
     0
176
     1
290
     0
176
     1
290
     0
176
     1
290
     0
176
     1
290
     0
176
     1
290
     0
176
     1
 90
       50
176
     1
 40
0.0
176
     1
 40
1.0
176
     1
 90
        0
176
     1
 62
    18
420
        0
176
     1
 90
       50
176
     1
 90
        3
176
     1
 62
     5
420
      255
176
     1
290
     0
176
     1
 90
       50
176
     1
 90
       50
176
     1
 90
       50
176
     1
290
     0
176
     1
 90
       50
176
     1
 62
   256
176
     0
 40
1.0
176
     0
 90
        2
176
     1
  1
strokes_ogs.tif
176
     1
290
     0
176
     1
 40
1.0
176
     1
 40
1.0
176
     1
1001
ACAD
1000
AcDbSavedByObjectVersion
1070
     0
  0
VISUALSTYLE
  5
3F
102
{ACAD_REACTORS
330
29
102
}
330
29
100
AcDbVisualStyle
  2
JitterOff
 70
    20
177
     3
291
     1
 70
    58
 90
        2
176
     0
 90
        2
176
     0
 90
        0
176
     0
 90
        0
176
     0
 40
0.6
176
     0
 40
30.0
176
     0
 62
     7
420
 16777215
176
     0
 90
        1
176
     0
 90
        4
176
     0
 62
     7
176
     0
 62
   257
176
     0
 90
        1
176
     0
 90
        1
176
     0
 40
1.0
176
     0
 90
       10
176
     2
 62
     7
176
     0
 40
1.0
176
     0
 90
        1
176
     0
 90
        6
176
     0
 90
        2
176
     0
 62
     7
176
     0
 90
        5
176
     0
 90
        0
176
     0
 90
        0
176
     0
290
     0
176
     0
 90
        1
176
     0
 40
0.0
176
     0
 90
        0
176
     0
290
     0
176
     0
290
     1
176
     0
290
     1
176
     0
290
     0
176
     0
290
     0
176
     0
290
     0
176
     0
290
     0
176
     0
290
     0
176
     0
290
     0
176
     0
 90
       50
176
     0
 40
0.0
176
     0
 40
1.0
176
     0
 90
        0
176
     0
 62
    18
420
        0
176
     0
 90
       50
176
     0
 90
        3
176
     0
 62
     5
420
      255
176
     0
290
     0
176
     0
 90
       50
176
     0
 90
       50
176
     0
 90
       50
176
     0
290
     0
176
     0
 90
       50
176
     0
 62
   256
176
     0
 40
1.0
176
     0
 90
        2
176
     0
  1
strokes_ogs.tif
176
     0
290
     0
176
     0
 40
1.0
176
     0
 40
1.0
176
     0
1001
ACAD
1000
AcDbSavedByObjectVersion
1070
     0
  0
VISUALSTYLE
  5
37
102
{ACAD_REACTORS
330
29
102
}
330
29
100
AcDbVisualStyle
  2
Linepattern
 70
    14
177
     3
291
     1
 70
    58
 90
        2
176
     1
 90
        2
176
     1
 90
        0
176
     1
 90
        0
176
     1
 40
0.6
176
     1
 40
30.0
176
     1
 62
     7
420
 16777215
176
     1
 90
        1
176
     1
 90
        4
176
     1
 62
     7
176
     1
 62
   257
176
     1
 90
        7
176
     1
 90
        7
176
     1
 40
1.0
176
     1
 90
        8
176
     1
 62
     7
176
     1
 40
1.0
176
     1
 90
        1
176
     1
 90
        6
176
     1
 90
        2
176
     1
 62
     7
176
     1
 90
        5
176
     1
 90
        0
176
     1
 90
        0
176
     1
290
     0
176
     1
 90
        1
176
     1
 40
0.0
176
     1
 90
        0
176
     1
290
     0
176
     1
290
     1
176
     1
290
     1
176
     1
290
     0
176
     1
290
     0
176
     1
290
     0
176
     1
290
     0
176
     1
290
     0
176
     1
290
     0
176
     1
 90
       50
176
     1
 40
0.0
176
     1
 40
1.0
176
     1
 90
        0
176
     1
 62
    18
420
        0
176
     1
 90
       50
176
     1
 90
        3
176
     1
 62
     5
420
      255
176
     1
290
     0
176
     1
 90
       50
176
     1
 90
       50
176
     1
 90
       50
176
     1
290
     0
176
     1
 90
       50
176
     1
 62
   256
176
     0
 40
1.0
176
     0
 90
        2
176
     1
  1
strokes_ogs.tif
176
     1
290
     0
176
     1
 40
1.0
176
     1
 40
1.0
176
     1
1001
ACAD
1000
AcDbSavedByObjectVersion
1070
     0
  0
VISUALSTYLE
  5
40
102
{ACAD_REACTORS
330
29
102
}
330
29
100
AcDbVisualStyle
  2
OverhangOff
 70
    21
177
     3
291
     1
 70
    58
 90
        2
176
     0
 90
        2
176
     0
 90
        0
176
     0
 90
        0
176
     0
 40
0.6
176
     0
 40
30.0
176
     0
 62
     7
420
 16777215
176
     0
 90
        1
176
     0
 90
        4
176
     0
 62
     7
176
     0
 62
   257
176
     0
 90
        1
176
     0
 90
        1
176
     0
 40
1.0
176
     0
 90
        9
176
     2
 62
     7
176
     0
 40
1.0
176
     0
 90
        1
176
     0
 90
        6
176
     0
 90
        2
176
     0
 62
     7
176
     0
 90
        5
176
     0
 90
        0
176
     0
 90
        0
176
     0
290
     0
176
     0
 90
        1
176
     0
 40
0.0
176
     0
 90
        0
176
     0
290
     0
176
     0
290
     1
176
     0
290
     1
176
     0
290
     0
176
     0
290
     0
176
     0
290
     0
176
     0
290
     0
176
     0
290
     0
176
     0
290
     0
176
     0
 90
       50
176
     0
 40
0.0
176
     0
 40
1.0
176
     0
 90
        0
176
     0
 62
    18
420
        0
176
     0
 90
       50
176
     0
 90
        3
176
     0
 62
     5
420
      255
176
     0
290
     0
176
     0
 90
       50
176
     0
 90
       50
176
     0
 90
       50
176
     0
290
     0
176
     0
 90
       50
176
     0
 62
   256
176
     0
 40
1.0
176
     0
 90
        2
176
     0
  1
strokes_ogs.tif
176
     0
290
     0
176
     0
 40
1.0
176
     0
 40
1.0
176
     0
1001
ACAD
1000
AcDbSavedByObjectVersion
1070
     0
  0
VISUALSTYLE
  5
33
102
{ACAD_REACTORS
330
29
102
}
330
29
100
AcDbVisualStyle
  2
Realistic
 70
     8
177
     3
291
     0
 70
    58
 90
        2
176
     1
 90
        3
176
     1
 90
        0
176
     1
 90
        2
176
     1
 40
0.6
176
     1
 40
30.0
176
     1
 62
     7
420
 16777215
176
     1
 90
        0
176
     1
 90
        0
176
     1
 62
     7
176
     1
 62
   257
176
     1
 90
        1
176
     1
 90
        1
176
     1
 40
1.0
176
     1
 90
        8
176
     1
 62
   257
176
     1
 40
1.0
176
     1
 90
        1
176
     1
 90
        6
176
     1
 90
        2
176
     1
 62
     7
176
     1
 90
        3
176
     1
 90
        0
176
     1
 90
        0
176
     1
290
     0
176
     1
 90
       13
176
     1
 40
0.0
176
     1
 90
        0
176
     1
290
     0
176
     1
290
     1
176
     1
290
     1
176
     1
290
     0
176
     1
290
     0
176
     1
290
     0
176
     1
290
     0
176
     1
290
     0
176
     1
290
     0
176
     1
 90
       50
176
     1
 40
0.0
176
     1
 40
1.0
176
     1
 90
        0
176
     1
 62
    18
420
        0
176
     1
 90
       50
176
     1
 90
        3
176
     1
 62
     5
420
      255
176
     1
290
     0
176
     1
 90
       50
176
     1
 90
       50
176
     1
 90
       50
176
     1
290
     0
176
     1
 90
       50
176
     1
 62
   256
176
     0
 40
1.0
176
     0
 90
        2
176
     1
  1
strokes_ogs.tif
176
     1
290
     0
176
     1
 40
1.0
176
     1
 40
1.0
176
     1
1001
ACAD
1000
AcDbSavedByObjectVersion
1070
     0
  0
VISUALSTYLE
  5
3E
102
{ACAD_REACTORS
330
29
102
}
330
29
100
AcDbVisualStyle
  2
Shaded
 70
    27
177
     3
291
     0
 70
    58
 90
        2
176
     1
 90
        2
176
     1
 90
        1
176
     1
 90
        2
176
     1
 40
0.6
176
     1
 40
30.0
176
     1
 62
     7
420
 16777215
176
     1
 90
        0
176
     1
 90
        4
176
     1
 62
     7
176
     1
 62
   257
176
     1
 90
        1
176
     1
 90
        1
176
     1
 40
1.0
176
     1
 90
        8
176
     1
 62
   257
176
     1
 40
1.0
176
     1
 90
        1
176
     1
 90
        6
176
     1
 90
        2
176
     1
 62
     8
420
  7895160
176
     1
 90
        3
176
     1
 90
        0
176
     1
 90
        0
176
     1
290
     0
176
     1
 90
        5
176
     1
 40
0.0
176
     1
 90
        0
176
     1
290
     0
176
     1
290
     1
176
     1
290
     1
176
     1
290
     0
176
     1
290
     0
176
     1
290
     0
176
     1
290
     0
176
     1
290
     0
176
     1
290
     0
176
     1
 90
       50
176
     1
 40
0.0
176
     1
 40
1.0
176
     1
 90
        0
176
     1
 62
    18
420
        0
176
     1
 90
       50
176
     1
 90
        3
176
     1
 62
     5
420
      255
176
     1
290
     0
176
     1
 90
       50
176
     1
 90
       50
176
     1
 90
       50
176
     1
290
     0
176
     1
 90
       50
176
     1
 62
   256
176
     0
 40
1.0
176
     0
 90
        2
176
     1
  1
strokes_ogs.tif
176
     1
290
     0
176
     1
 40
1.0
176
     1
 40
1.0
176
     1
1001
ACAD
1000
AcDbSavedByObjectVersion
1070
     0
  0
VISUALSTYLE
  5
3D
102
{ACAD_REACTORS
330
29
102
}
330
29
100
AcDbVisualStyle
  2
Shaded with edges
 70
    26
177
     3
291
     0
 70
    58
 90
        2
176
     1
 90
        2
176
     1
 90
        1
176
     1
 90
        2
176
     1
 40
0.6
176
     1
 40
30.0
176
     1
 62
     7
420
 16777215
176
     1
 90
        1
176
     1
 90
        2
176
     1
 62
     7
176
     1
 62
   257
176
     1
 90
        2
176
     1
 90
        1
176
     1
 40
1.0
176
     1
 90
        8
176
     1
 62
   257
176
     1
 40
1.0
176
     1
 90
        1
176
     1
 90
        6
176
     1
 90
        2
176
     1
 62
     7
176
     1
 90
        3
176
     1
 90
        0
176
     1
 90
        0
176
     1
290
     0
176
     1
 90
        5
176
     1
 40
0.0
176
     1
 90
        0
176
     1
290
     0
176
     1
290
     1
176
     1
290
     1
176
     1
290
     0
176
     1
290
     0
176
     1
290
     0
176
     1
290
     0
176
     1
290
     0
176
     1
290
     0
176
     1
 90
       50
176
     1
 40
0.0
176
     1
 40
1.0
176
     1
 90
        0
176
     1
 62
    18
420
        0
176
     1
 90
       50
176
     1
 90
        3
176
     1
 62
     5
420
      255
176
     1
290
     0
176
     1
 90
       50
176
     1
 90
       50
176
     1
 90
       50
176
     1
290
     0
176
     1
 90
       50
176
     1
 62
   256
176
     0
 40
1.0
176
     0
 90
        2
176
     1
  1
strokes_ogs.tif
176
     1
290
     0
176
     1
 40
1.0
176
     1
 40
1.0
176
     1
1001
ACAD
1000
AcDbSavedByObjectVersion
1070
     0
  0
VISUALSTYLE
  5
3A
102
{ACAD_REACTORS
330
29
102
}
330
29
100
AcDbVisualStyle
  2
Shades of Gray
 70
    23
177
     3
291
     0
 70
    58
 90
        2
176
     1
 90
        2
176
     1
 90
        3
176
     1
 90
        0
176
     1
 40
0.6
176
     1
 40
30.0
176
     1
 62
     7
420
 16777215
176
     1
 90
        2
176
     1
 90
        2
176
     1
 62
     7
176
     1
 62
     7
176
     1
 90
        1
176
     1
 90
        1
176
     1
 40
40.0
176
     1
 90
        8
176
     1
 62
     7
176
     1
 40
1.0
176
     1
 90
        1
176
     1
 90
        6
176
     1
 90
        2
176
     1
 62
     7
176
     1
 90
        3
176
     1
 90
        0
176
     1
 90
        0
176
     1
290
     0
176
     1
 90
        1
176
     1
 40
0.0
176
     1
 90
        0
176
     1
290
     0
176
     1
290
     1
176
     1
290
     1
176
     1
290
     0
176
     1
290
     0
176
     1
290
     0
176
     1
290
     0
176
     1
290
     0
176
     1
290
     0
176
     1
 90
       50
176
     1
 40
0.0
176
     1
 40
1.0
176
     1
 90
        0
176
     1
 62
    18
420
        0
176
     1
 90
       50
176
     1
 90
        3
176
     1
 62
     5
420
      255
176
     1
290
     0
176
     1
 90
       50
176
     1
 90
       50
176
     1
 90
       50
176
     1
290
     0
176
     1
 90
       50
176
     1
 62
   256
176
     0
 40
1.0
176
     0
 90
        2
176
     1
  1
strokes_ogs.tif
176
     1
290
     0
176
     1
 40
1.0
176
     1
 40
1.0
176
     1
1001
ACAD
1000
AcDbSavedByObjectVersion
1070
     0
  0
VISUALSTYLE
  5
3B
102
{ACAD_REACTORS
330
29
102
}
330
29
100
AcDbVisualStyle
  2
Sketchy
 70
    24
177
     3
291
     0
 70
    58
 90
        1
176
     1
 90
        2
176
     1
 90
        2
176
     1
 90
        0
176
     1
 40
0.6
176
     1
 40
30.0
176
     1
 62
     7
420
 16777215
176
     1
 90
        2
176
     1
 90
        2
176
     1
 62
     7
176
     1
 62
     7
176
     1
 90
        1
176
     1
 90
        1
176
     1
 40
40.0
176
     1
 90
       11
176
     1
 62
     7
176
     1
 40
1.0
176
     1
 90
        1
176
     1
 90
        6
176
     1
 90
        2
176
     1
 62
     7
176
     1
 90
        6
176
     1
 90
        0
176
     1
 90
        0
176
     1
290
     0
176
     1
 90
        1
176
     1
 40
0.0
176
     1
 90
        0
176
     1
290
     0
176
     1
290
     1
176
     1
290
     1
176
     1
290
     0
176
     1
290
     0
176
     1
290
     0
176
     1
290
     0
176
     1
290
     0
176
     1
290
     0
176
     1
 90
       50
176
     1
 40
0.0
176
     1
 40
1.0
176
     1
 90
        0
176
     1
 62
    18
420
        0
176
     1
 90
       50
176
     1
 90
        3
176
     1
 62
     5
420
      255
176
     1
290
     0
176
     1
 90
       50
176
     1
 90
       50
176
     1
 90
       50
176
     1
290
     0
176
     1
 90
       50
176
     1
 62
   256
176
     0
 40
1.0
176
     0
 90
        2
176
     1
  1
strokes_ogs.tif
176
     1
290
     0
176
     1
 40
1.0
176
     1
 40
1.0
176
     1
1001
ACAD
1000
AcDbSavedByObjectVersion
1070
     0
  0
VISUALSTYLE
  5
36
102
{ACAD_REACTORS
330
29
102
}
330
29
100
AcDbVisualStyle
  2
Thicken
 70
    13
177
     3
291
     1
 70
    58
 90
        2
176
     1
 90
        2
176
     1
 90
        0
176
     1
 90
        0
176
     1
 40
0.6
176
     1
 40
30.0
176
     1
 62
     7
420
 16777215
176
     1
 90
        1
176
     1
 90
        4
176
     1
 62
     7
176
     1
 62
   257
176
     1
 90
        1
176
     1
 90
        1
176
     1
 40
1.0
176
     1
 90
       12
176
     1
 62
     7
176
     1
 40
1.0
176
     1
 90
        1
176
     1
 90
        6
176
     1
 90
        2
176
     1
 62
     7
176
     1
 90
        5
176
     1
 90
        0
176
     1
 90
        0
176
     1
290
     0
176
     1
 90
        1
176
     1
 40
0.0
176
     1
 90
        0
176
     1
290
     0
176
     1
290
     1
176
     1
290
     1
176
     1
290
     0
176
     1
290
     0
176
     1
290
     0
176
     1
290
     0
176
     1
290
     0
176
     1
290
     0
176
     1
 90
       50
176
     1
 40
0.0
176
     1
 40
1.0
176
     1
 90
        0
176
     1
 62
    18
420
        0
176
     1
 90
       50
176
     1
 90
        3
176
     1
 62
     5
420
      255
176
     1
290
     0
176
     1
 90
       50
176
     1
 90
       50
176
     1
 90
       50
176
     1
290
     0
176
     1
 90
       50
176
     1
 62
   256
176
     0
 40
1.0
176
     0
 90
        2
176
     1
  1
strokes_ogs.tif
176
     1
290
     0
176
     1
 40
1.0
176
     1
 40
1.0
176
     1
1001
ACAD
1000
AcDbSavedByObjectVersion
1070
     0
  0
VISUALSTYLE
  5
30
102
{ACAD_REACTORS
330
29
102
}
330
29
100
AcDbVisualStyle
  2
Wireframe
 70
     5
177
     3
291
     0
 70
    58
 90
        0
176
     1
 90
        2
176
     1
 90
        0
176
     1
 90
        0
176
     1
 40
0.6
176
     1
 40
30.0
176
     1
 62
     7
420
 16777215
176
     1
 90
        1
176
     1
 90
        4
176
     1
 62
     7
176
     1
 62
   257
176
     1
 90
        1
176
     1
 90
        1
176
     1
 40
1.0
176
     1
 90
        0
176
     1
 62
   257
176
     1
 40
1.0
176
     1
 90
        1
176
     1
 90
        6
176
     1
 90
        2
176
     1
 62
     7
176
     1
 90
        3
176
     1
 90
        0
176
     1
 90
        0
176
     1
290
     0
176
     1
 90
        1
176
     1
 40
0.0
176
     1
 90
        0
176
     1
290
     0
176
     1
290
     1
176
     1
290
     1
176
     1
290
     0
176
     1
290
     0
176
     1
290
     0
176
     1
290
     0
176
     1
290
     0
176
     1
290
     0
176
     1
 90
       50
176
     1
 40
0.0
176
     1
 40
1.0
176
     1
 90
        0
176
     1
 62
    18
420
        0
176
     1
 90
       50
176
     1
 90
        3
176
     1
 62
     5
420
      255
176
     1
290
     0
176
     1
 90
       50
176
     1
 90
       50
176
     1
 90
       50
176
     1
290
     0
176
     1
 90
       50
176
     1
 62
   256
176
     0
 40
1.0
176
     0
 90
        2
176
     1
  1
strokes_ogs.tif
176
     1
290
     0
176
     1
 40
1.0
176
     1
 40
1.0
176
     1
1001
ACAD
1000
AcDbSavedByObjectVersion
1070
     0
  0
VISUALSTYLE
  5
3C
102
{ACAD_REACTORS
330
29
102
}
330
29
100
AcDbVisualStyle
  2
X-Ray
 70
    25
177
     3
291
     0
 70
    58
 90
        2
176
     1
 90
        2
176
     1
 90
        1
176
     1
 90
        1
176
     1
 40
0.5
176
     1
 40
30.0
176
     1
 62
     7
420
 16777215
176
     1
 90
        1
176
     1
 90
        0
176
     1
 62
     7
176
     1
 62
   257
176
     1
 90
        1
176
     1
 90
        1
176
     1
 40
1.0
176
     1
 90
        8
176
     1
 62
     7
176
     1
 40
1.0
176
     1
 90
        1
176
     1
 90
        6
176
     1
 90
        2
176
     1
 62
     7
176
     1
 90
        3
176
     1
 90
        0
176
     1
 90
        0
176
     1
290
     0
176
     1
 90
       13
176
     1
 40
0.0
176
     1
 90
        0
176
     1
290
     0
176
     1
290
     1
176
     1
290
     1
176
     1
290
     0
176
     1
290
     0
176
     1
290
     0
176
     1
290
     0
176
     1
290
     0
176
     1
290
     0
176
     1
 90
       50
176
     1
 40
0.0
176
     1
 40
1.0
176
     1
 90
        0
176
     1
 62
    18
420
        0
176
     1
 90
       50
176
     1
 90
        3
176
     1
 62
     5
420
      255
176
     1
290
     0
176
     1
 90
       50
176
     1
 90
       50
176
     1
 90
       50
176
     1
290
     0
176
     1
 90
       50
176
     1
 62
   256
176
     0
 40
1.0
176
     0
 90
        2
176
     1
  1
strokes_ogs.tif
176
     1
290
     0
176
     1
 40
1.0
176
     1
 40
1.0
176
     1
1001
ACAD
1000
AcDbSavedByObjectVersion
1070
     0
  0
DICTIONARYVAR
  5
8F
102
{ACAD_REACTORS
330
8A
102
}
330
8A
100
DictionaryVariables
280
     0
  1
1:1
  0
DICTIONARYVAR
  5
8C
102
{ACAD_REACTORS
330
8A
102
}
330
8A
100
DictionaryVariables
280
     0
  1
STANDARD
  0
DICTIONARYVAR
  5
8B
102
{ACAD_REACTORS
330
8A
102
}
330
8A
100
DictionaryVariables
280
     0
  1
STANDARD
  0
DICTIONARYVAR
  5
8D
102
{ACAD_REACTORS
330
8A
102
}
330
8A
100
DictionaryVariables
280
     0
  1
Imperial24
  0
DICTIONARYVAR
  5
8E
102
{ACAD_REACTORS
330
8A
102
}
330
8A
100
DictionaryVariables
280
     0
  1
Imperial24
  0
DICTIONARY
  5
95
330
6B
100
AcDbDictionary
280
     1
281
     1
  3
ACAD_XREC_ROUNDTRIP
360
96
  0
DICTIONARY
  5
1A
330
19
100
AcDbDictionary
280
     1
281
     1
  3
BUMPTILE
360
1C
  3
DIFFUSETILE
360
1B
  3
OPACITYTILE
360
1F
  3
REFLECTIONTILE
360
1E
  3
REFRACTIONTILE
360
20
  3
SPECULARTILE
360
1D
  0
DICTIONARY
  5
12
330
11
100
AcDbDictionary
280
     1
281
     1
  3
BUMPTILE
360
14
  3
DIFFUSETILE
360
13
  3
OPACITYTILE
360
17
  3
REFLECTIONTILE
360
16
  3
REFRACTIONTILE
360
18
  3
SPECULARTILE
360
15
  0
DICTIONARY
  5
22
330
21
100
AcDbDictionary
280
     1
281
     1
  3
BUMPTILE
360
24
  3
DIFFUSETILE
360
23
  3
OPACITYTILE
360
27
  3
REFLECTIONTILE
360
26
  3
REFRACTIONTILE
360
28
  3
SPECULARTILE
360
25
  0
DICTIONARY
  5
93
330
69
100
AcDbDictionary
280
     1
281
     1
  3
ACAD_XREC_ROUNDTRIP
360
94
  0
DICTIONARY
  5
90
330
65
100
AcDbDictionary
280
     1
281
     1
  3
ACAD_ROUNDTRIP_2008_TABLESTYLE_CELLSTYLEMAP
360
91
  0
XRECORD
  5
96
102
{ACAD_REACTORS
330
95
102
}
330
95
100
AcDbXrecord
280
     1
102
DISPLAYNAME
  1
Imperial24
102
FLAGS
 90
        0
  0
XRECORD
  5
1C
102
{ACAD_REACTORS
330
1A
102
}
330
1A
100
AcDbXrecord
280
     1
270
     1
271
     1
  0
XRECORD
  5
1B
102
{ACAD_REACTORS
330
1A
102
}
330
1A
100
AcDbXrecord
280
     1
270
     1
271
     1
  0
XRECORD
  5
1F
102
{ACAD_REACTORS
330
1A
102
}
330
1A
100
AcDbXrecord
280
     1
270
     1
271
     1
  0
XRECORD
  5
1E
102
{ACAD_REACTORS
330
1A
102
}
330
1A
100
AcDbXrecord
280
     1
270
     1
271
     1
  0
XRECORD
  5
20
102
{ACAD_REACTORS
330
1A
102
}
330
1A
100
AcDbXrecord
280
     1
270
     1
271
     1
  0
XRECORD
  5
1D
102
{ACAD_REACTORS
330
1A
102
}
330
1A
100
AcDbXrecord
280
     1
270
     1
271
     1
  0
XRECORD
  5
14
102
{ACAD_REACTORS
330
12
102
}
330
12
100
AcDbXrecord
280
     1
270
     1
271
     1
  0
XRECORD
  5
13
102
{ACAD_REACTORS
330
12
102
}
330
12
100
AcDbXrecord
280
     1
270
     1
271
     1
  0
XRECORD
  5
17
102
{ACAD_REACTORS
330
12
102
}
330
12
100
AcDbXrecord
280
     1
270
     1
271
     1
  0
XRECORD
  5
16
102
{ACAD_REACTORS
330
12
102
}
330
12
100
AcDbXrecord
280
     1
270
     1
271
     1
  0
XRECORD
  5
18
102
{ACAD_REACTORS
330
12
102
}
330
12
100
AcDbXrecord
280
     1
270
     1
271
     1
  0
XRECORD
  5
15
102
{ACAD_REACTORS
330
12
102
}
330
12
100
AcDbXrecord
280
     1
270
     1
271
     1
  0
XRECORD
  5
24
102
{ACAD_REACTORS
330
22
102
}
330
22
100
AcDbXrecord
280
     1
270
     1
271
     1
  0
XRECORD
  5
23
102
{ACAD_REACTORS
330
22
102
}
330
22
100
AcDbXrecord
280
     1
270
     1
271
     1
  0
XRECORD
  5
27
102
{ACAD_REACTORS
330
22
102
}
330
22
100
AcDbXrecord
280
     1
270
     1
271
     1
  0
XRECORD
  5
26
102
{ACAD_REACTORS
330
22
102
}
330
22
100
AcDbXrecord
280
     1
270
     1
271
     1
  0
XRECORD
  5
28
102
{ACAD_REACTORS
330
22
102
}
330
22
100
AcDbXrecord
280
     1
270
     1
271
     1
  0
XRECORD
  5
25
102
{ACAD_REACTORS
330
22
102
}
330
22
100
AcDbXrecord
280
     1
270
     1
271
     1
  0
XRECORD
  5
94
102
{ACAD_REACTORS
330
93
102
}
330
93
100
AcDbXrecord
280
     1
102
DISPLAYNAME
  1
Imperial24
102
FLAGS
 90
        0
  0
CELLSTYLEMAP
  5
91
102
{ACAD_REACTORS
330
90
102
}
330
90
100
AcDbCellStyleMap
 90
        3
300
CELLSTYLE
  1
TABLEFORMAT_BEGIN
 90
        5
170
     1
 91
        0
 92
    32768
 62
   257
 93
        1
300
CONTENTFORMAT
  1
CONTENTFORMAT_BEGIN
 90
        0
 91
        0
 92
      512
 93
        0
300

 40
0.0
140
1.0
 94
        5
 62
     0
340
55
144
0.25
309
CONTENTFORMAT_END
171
     0
 94
        0
309
TABLEFORMAT_END
  1
CELLSTYLE_BEGIN
 90
        1
 91
        1
300
_TITLE
309
CELLSTYLE_END
300
CELLSTYLE
  1
TABLEFORMAT_BEGIN
 90
        5
170
     1
 91
        0
 92
        0
 62
   257
 93
        1
300
CONTENTFORMAT
  1
CONTENTFORMAT_BEGIN
 90
        0
 91
        0
 92
      512
 93
        0
300

 40
0.0
140
1.0
 94
        5
 62
     0
340
55
144
0.18
309
CONTENTFORMAT_END
171
     0
 94
        0
309
TABLEFORMAT_END
  1
CELLSTYLE_BEGIN
 90
        2
 91
        1
300
_HEADER
309
CELLSTYLE_END
300
CELLSTYLE
  1
TABLEFORMAT_BEGIN
 90
        5
170
     1
 91
        0
 92
        0
 62
   257
 93
        1
300
CONTENTFORMAT
  1
CONTENTFORMAT_BEGIN
 90
        0
 91
        0
 92
      512
 93
        0
300

 40
0.0
140
1.0
 94
        2
 62
     0
340
55
144
0.18
309
CONTENTFORMAT_END
171
     0
 94
        0
309
TABLEFORMAT_END
  1
CELLSTYLE_BEGIN
 90
        3
 91
        2
300
_DATA
309
CELLSTYLE_END
  0
ENDSEC
  0
EOF
