  0
SECTION
  2
HEADER
  9
$ACADVER
  1
AC1027
  9
$ACADMAINTVER
 70
   125
  9
$DWGCODEPAGE
  3
ANSI_1252
  9
$REQUIREDVERSIONS
160
                 0
  9
$INSBASE
 10
0.0
 20
0.0
 30
0.0
  9
$EXTMIN
 10
1.000000000000000E+20
 20
1.000000000000000E+20
 30
1.000000000000000E+20
  9
$EXTMAX
 10
-1.000000000000000E+20
 20
-1.000000000000000E+20
 30
-1.000000000000000E+20
  9
$LIMMIN
 10
0.0
 20
0.0
  9
$LIMMAX
 10
12.0
 20
9.0
  9
$ORTHOMODE
 70
     0
  9
$REGENMODE
 70
     1
  9
$FILLMODE
 70
     1
  9
$QTEXTMODE
 70
     0
  9
$MIRRTEXT
 70
     0
  9
$LTSCALE
 40
1.0
  9
$ATTMODE
 70
     1
  9
$TEXTSIZE
 40
0.2
  9
$TRACEWID
 40
0.05
  9
$TEXTSTYLE
  7
Standard
  9
$CLAYER
  8
0
  9
$CELTYPE
  6
ByLayer
  9
$CECOLOR
 62
   256
  9
$CELTSCALE
 40
1.0
  9
$DISPSILH
 70
     0
  9
$DIMSCALE
 40
1.0
  9
$DIMASZ
 40
0.18
  9
$DIMEXO
 40
0.0625
  9
$DIMDLI
 40
0.38
  9
$DIMRND
 40
0.0
  9
$DIMDLE
 40
0.0
  9
$DIMEXE
 40
0.18
  9
$DIMTP
 40
0.0
  9
$DIMTM
 40
0.0
  9
$DIMTXT
 40
0.18
  9
$DIMCEN
 40
0.09
  9
$DIMTSZ
 40
0.0
  9
$DIMTOL
 70
     0
  9
$DIMLIM
 70
     0
  9
$DIMTIH
 70
     1
  9
$DIMTOH
 70
     1
  9
$DIMSE1
 70
     0
  9
$DIMSE2
 70
     0
  9
$DIMTAD
 70
     0
  9
$DIMZIN
 70
     0
  9
$DIMBLK
  1

  9
$DIMASO
 70
     1
  9
$DIMSHO
 70
     1
  9
$DIMPOST
  1

  9
$DIMAPOST
  1

  9
$DIMALT
 70
     0
  9
$DIMALTD
 70
     2
  9
$DIMALTF
 40
25.4
  9
$DIMLFAC
 40
1.0
  9
$DIMTOFL
 70
     0
  9
$DIMTVP
 40
0.0
  9
$DIMTIX
 70
     0
  9
$DIMSOXD
 70
     0
  9
$DIMSAH
 70
     0
  9
$DIMBLK1
  1

  9
$DIMBLK2
  1

  9
$DIMSTYLE
  2
Standard
  9
$DIMCLRD
 70
     0
  9
$DIMCLRE
 70
     0
  9
$DIMCLRT
 70
     0
  9
$DIMTFAC
 40
1.0
  9
$DIMGAP
 40
0.09
  9
$DIMJUST
 70
     0
  9
$DIMSD1
 70
     0
  9
$DIMSD2
 70
     0
  9
$DIMTOLJ
 70
     1
  9
$DIMTZIN
 70
     0
  9
$DIMALTZ
 70
     0
  9
$DIMALTTZ
 70
     0
  9
$DIMUPT
 70
     0
  9
$DIMDEC
 70
     4
  9
$DIMTDEC
 70
     4
  9
$DIMALTU
 70
     2
  9
$DIMALTTD
 70
     2
  9
$DIMTXSTY
  7
Standard
  9
$DIMAUNIT
 70
     0
  9
$DIMADEC
 70
     0
  9
$DIMALTRND
 40
0.0
  9
$DIMAZIN
 70
     0
  9
$DIMDSEP
 70
    46
  9
$DIMATFIT
 70
     3
  9
$DIMFRAC
 70
     0
  9
$DIMLDRBLK
  1

  9
$DIMLUNIT
 70
     2
  9
$DIMLWD
 70
    -2
  9
$DIMLWE
 70
    -2
  9
$DIMTMOVE
 70
     0
  9
$DIMFXL
 40
1.0
  9
$DIMFXLON
 70
     0
  9
$DIMJOGANG
 40
0.7853981633974483
  9
$DIMTFILL
 70
     0
  9
$DIMTFILLCLR
 70
     0
  9
$DIMARCSYM
 70
     0
  9
$DIMLTYPE
  6

  9
$DIMLTEX1
  6

  9
$DIMLTEX2
  6

  9
$DIMTXTDIRECTION
 70
     0
  9
$LUNITS
 70
     2
  9
$LUPREC
 70
     4
  9
$SKETCHINC
 40
0.1
  9
$FILLETRAD
 40
0.0
  9
$AUNITS
 70
     0
  9
$AUPREC
 70
     0
  9
$MENU
  1
.
  9
$ELEVATION
 40
0.0
  9
$PELEVATION
 40
0.0
  9
$THICKNESS
 40
0.0
  9
$LIMCHECK
 70
     0
  9
$CHAMFERA
 40
0.0
  9
$CHAMFERB
 40
0.0
  9
$CHAMFERC
 40
0.0
  9
$CHAMFERD
 40
0.0
  9
$SKPOLY
 70
     0
  9
$TDCREATE
 40
2459734.956944444
  9
$TDUCREATE
 40
2459734.540277778
  9
$TDUPDATE
 40
2459734.956944444
  9
$TDUUPDATE
 40
2459734.540277778
  9
$TDINDWG
 40
0.0000000000
  9
$TDUSRTIMER
 40
0.0000000000
  9
$USRTIMER
 70
     1
  9
$ANGBASE
 50
0.0
  9
$ANGDIR
 70
     0
  9
$PDMODE
 70
     0
  9
$PDSIZE
 40
0.0
  9
$PLINEWID
 40
0.0
  9
$SPLFRAME
 70
     0
  9
$SPLINETYPE
 70
     6
  9
$SPLINESEGS
 70
     8
  9
$HANDSEED
  5
92
  9
$SURFTAB1
 70
     6
  9
$SURFTAB2
 70
     6
  9
$SURFTYPE
 70
     6
  9
$SURFU
 70
     6
  9
$SURFV
 70
     6
  9
$UCSBASE
  2

  9
$UCSNAME
  2

  9
$UCSORG
 10
0.0
 20
0.0
 30
0.0
  9
$UCSXDIR
 10
1.0
 20
0.0
 30
0.0
  9
$UCSYDIR
 10
0.0
 20
1.0
 30
0.0
  9
$UCSORTHOREF
  2

  9
$UCSORTHOVIEW
 70
     0
  9
$UCSORGTOP
 10
0.0
 20
0.0
 30
0.0
  9
$UCSORGBOTTOM
 10
0.0
 20
0.0
 30
0.0
  9
$UCSORGLEFT
 10
0.0
 20
0.0
 30
0.0
  9
$UCSORGRIGHT
 10
0.0
 20
0.0
 30
0.0
  9
$UCSORGFRONT
 10
0.0
 20
0.0
 30
0.0
  9
$UCSORGBACK
 10
0.0
 20
0.0
 30
0.0
  9
$PUCSBASE
  2

  9
$PUCSNAME
  2

  9
$PUCSORG
 10
0.0
 20
0.0
 30
0.0
  9
$PUCSXDIR
 10
1.0
 20
0.0
 30
0.0
  9
$PUCSYDIR
 10
0.0
 20
1.0
 30
0.0
  9
$PUCSORTHOREF
  2

  9
$PUCSORTHOVIEW
 70
     0
  9
$PUCSORGTOP
 10
0.0
 20
0.0
 30
0.0
  9
$PUCSORGBOTTOM
 10
0.0
 20
0.0
 30
0.0
  9
$PUCSORGLEFT
 10
0.0
 20
0.0
 30
0.0
  9
$PUCSORGRIGHT
 10
0.0
 20
0.0
 30
0.0
  9
$PUCSORGFRONT
 10
0.0
 20
0.0
 30
0.0
  9
$PUCSORGBACK
 10
0.0
 20
0.0
 30
0.0
  9
$USERI1
 70
     0
  9
$USERI2
 70
     0
  9
$USERI3
 70
     0
  9
$USERI4
 70
     0
  9
$USERI5
 70
     0
  9
$USERR1
 40
0.0
  9
$USERR2
 40
0.0
  9
$USERR3
 40
0.0
  9
$USERR4
 40
0.0
  9
$USERR5
 40
0.0
  9
$WORLDVIEW
 70
     1
  9
$SHADEDGE
 70
     3
  9
$SHADEDIF
 70
    70
  9
$TILEMODE
 70
     1
  9
$MAXACTVP
 70
    64
  9
$PINSBASE
 10
0.0
 20
0.0
 30
0.0
  9
$PLIMCHECK
 70
     0
  9
$PEXTMIN
 10
1.000000000000000E+20
 20
1.000000000000000E+20
 30
1.000000000000000E+20
  9
$PEXTMAX
 10
-1.000000000000000E+20
 20
-1.000000000000000E+20
 30
-1.000000000000000E+20
  9
$PLIMMIN
 10
0.0
 20
0.0
  9
$PLIMMAX
 10
12.0
 20
9.0
  9
$UNITMODE
 70
     0
  9
$VISRETAIN
 70
     1
  9
$PLINEGEN
 70
     0
  9
$PSLTSCALE
 70
     1
  9
$TREEDEPTH
 70
  3020
  9
$CMLSTYLE
  2
Standard
  9
$CMLJUST
 70
     0
  9
$CMLSCALE
 40
1.0
  9
$PROXYGRAPHICS
 70
     1
  9
$MEASUREMENT
 70
     0
  9
$CELWEIGHT
370
    -1
  9
$ENDCAPS
280
     0
  9
$JOINSTYLE
280
     0
  9
$LWDISPLAY
290
     1
  9
$INSUNITS
 70
     4
  9
$HYPERLINKBASE
  1

  9
$STYLESHEET
  1

  9
$XEDIT
290
     1
  9
$CEPSNTYPE
380
     0
  9
$PSTYLEMODE
290
     1
  9
$FINGERPRINTGUID
  2
{6400F30D-C3C5-C54F-A362-7F22584FB052}
  9
$VERSIONGUID
  2
{2F3C226A-427B-FA4F-9C1F-4E2F7B7DF2F2}
  9
$EXTNAMES
290
     1
  9
$PSVPSCALE
 40
0.0
  9
$OLESTARTUP
290
     0
  9
$SORTENTS
280
   127
  9
$INDEXCTL
280
     0
  9
$HIDETEXT
280
     1
  9
$XCLIPFRAME
280
     2
  9
$HALOGAP
280
     0
  9
$OBSCOLOR
 70
   257
  9
$OBSLTYPE
280
     0
  9
$INTERSECTIONDISPLAY
280
     0
  9
$INTERSECTIONCOLOR
 70
   257
  9
$DIMASSOC
280
     2
  9
$PROJECTNAME
  1

  9
$CAMERADISPLAY
290
     0
  9
$LENSLENGTH
 40
50.0
  9
$CAMERAHEIGHT
 40
0.0
  9
$STEPSPERSEC
 40
2.0
  9
$STEPSIZE
 40
6.0
  9
$3DDWFPREC
 40
2.0
  9
$PSOLWIDTH
 40
0.25
  9
$PSOLHEIGHT
 40
4.0
  9
$LOFTANG1
 40
1.570796326794896
  9
$LOFTANG2
 40
1.570796326794896
  9
$LOFTMAG1
 40
0.0
  9
$LOFTMAG2
 40
0.0
  9
$LOFTPARAM
 70
     7
  9
$LOFTNORMALS
280
     1
  9
$LATITUDE
 40
37.795
  9
$LONGITUDE
 40
-122.394
  9
$NORTHDIRECTION
 40
0.0
  9
$TIMEZONE
 70
 -8000
  9
$LIGHTGLYPHDISPLAY
280
     1
  9
$TILEMODELIGHTSYNCH
280
     1
  9
$CMATERIAL
347
11
  9
$SOLIDHIST
280
     0
  9
$SHOWHIST
280
     1
  9
$DWFFRAME
280
     2
  9
$DGNFRAME
280
     0
  9
$REALWORLDSCALE
290
     1
  9
$INTERFERECOLOR
 62
     1
  9
$INTERFEREOBJVS
345
33
  9
$INTERFEREVPVS
346
30
  9
$CSHADOW
280
     0
  9
$SHADOWPLANELOCATION
 40
0.0
  0
ENDSEC
  0
SECTION
  2
CLASSES
  0
CLASS
  1
ACDBDICTIONARYWDFLT
  2
AcDbDictionaryWithDefault
  3
ObjectDBX Classes
 90
        0
 91
        1
280
     0
281
     0
  0
CLASS
  1
MATERIAL
  2
AcDbMaterial
  3
ObjectDBX Classes
 90
     1153
 91
        3
280
     0
281
     0
  0
CLASS
  1
VISUALSTYLE
  2
AcDbVisualStyle
  3
ObjectDBX Classes
 90
     4095
 91
       24
280
     0
281
     0
  0
CLASS
  1
SCALE
  2
AcDbScale
  3
ObjectDBX Classes
 90
     1153
 91
       17
280
     0
281
     0
  0
CLASS
  1
TABLESTYLE
  2
AcDbTableStyle
  3
ObjectDBX Classes
 90
     4095
 91
        1
280
     0
281
     0
  0
CLASS
  1
MLEADERSTYLE
  2
AcDbMLeaderStyle
  3
ACDB_MLEADERSTYLE_CLASS
 90
     4095
 91
        1
280
     0
281
     0
  0
CLASS
  1
ACDBSECTIONVIEWSTYLE
  2
AcDbSectionViewStyle
  3
ObjectDBX Classes
 90
     1025
 91
        1
280
     0
281
     0
  0
CLASS
  1
ACDBDETAILVIEWSTYLE
  2
AcDbDetailViewStyle
  3
ObjectDBX Classes
 90
     1025
 91
        1
280
     0
281
     0
  0
CLASS
  1
DICTIONARYVAR
  2
AcDbDictionaryVar
  3
ObjectDBX Classes
 90
        0
 91
        5
280
     0
281
     0
  0
CLASS
  1
CELLSTYLEMAP
  2
AcDbCellStyleMap
  3
ObjectDBX Classes
 90
     1152
 91
        1
280
     0
281
     0
  0
ENDSEC
  0
SECTION
  2
TABLES
  0
TABLE
  2
VPORT
  5
8
330
0
100
AcDbSymbolTable
 70
     1
1001
ACAD
1000
DbSaveVer
1071
      247
  0
VPORT
  5
57
330
8
100
AcDbSymbolTableRecord
100
AcDbViewportTableRecord
  2
*Active
 70
     0
 10
0.0
 20
0.0
 11
1.0
 21
1.0
 12
0.0
 22
0.0
 13
0.0
 23
0.0
 14
1.0
 24
1.0
 15
0.0
 25
0.0
 16
0.0
 26
0.0
 36
1.0
 17
-111.9583333053439
 27
3.302777776952218
 37
0.0
 40
214.1999999464498
 41
0.9999999999999998
 42
50.0
 43
0.0
 44
0.0
 50
0.0
 51
0.0
 71
     0
 72
   100
 73
     1
 74
     1
 75
     0
 76
     0
 77
     0
 78
     0
281
     0
 65
     1
110
0.0
120
0.0
130
0.0
111
1.0
121
0.0
131
0.0
112
0.0
122
1.0
132
0.0
 79
     0
146
0.0
 60
     3
 61
     5
292
     1
282
     1
141
0.0
142
0.0
 63
   250
421
  3355443
  0
ENDTAB
  0
TABLE
  2
LTYPE
  5
5
330
0
100
AcDbSymbolTable
 70
     1
  0
LTYPE
  5
5B
330
5
100
AcDbSymbolTableRecord
100
AcDbLinetypeTableRecord
  2
ByBlock
 70
     0
  3

 72
    65
 73
     0
 40
0.0
  0
LTYPE
  5
5C
330
5
100
AcDbSymbolTableRecord
100
AcDbLinetypeTableRecord
  2
ByLayer
 70
     0
  3

 72
    65
 73
     0
 40
0.0
  0
LTYPE
  5
5D
330
5
100
AcDbSymbolTableRecord
100
AcDbLinetypeTableRecord
  2
Continuous
 70
     0
  3
Solid line
 72
    65
 73
     0
 40
0.0
  0
ENDTAB
  0
TABLE
  2
LAYER
  5
2
330
0
100
AcDbSymbolTable
 70
     2
  0
LAYER
  5
54
330
2
100
AcDbSymbolTableRecord
100
AcDbLayerTableRecord
  2
0
 70
     0
 62
     7
  6
Continuous
370
    -3
390
F
347
21
348
0
  0
LAYER
  5
78
330
2
100
AcDbSymbolTableRecord
100
AcDbLayerTableRecord
  2
Layer 1
 70
     0
 62
     7
  6
Continuous
370
     0
390
F
347
21
348
0
  0
ENDTAB
  0
TABLE
  2
STYLE
  5
3
330
0
100
AcDbSymbolTable
 70
     2
  0
STYLE
  5
55
330
3
100
AcDbSymbolTableRecord
100
AcDbTextStyleTableRecord
  2
Standard
 70
     0
 40
0.0
 41
1.0
 50
0.0
 71
     0
 42
0.2
  3
txt
  4

  0
STYLE
  5
5A
330
3
100
AcDbSymbolTableRecord
100
AcDbTextStyleTableRecord
  2
Annotative
 70
     0
 40
0.0
 41
1.0
 50
0.0
 71
     0
 42
0.2
  3
txt
  4

1001
AcadAnnotative
1000
AnnotativeData
1002
{
1070
     1
1070
     1
1002
}
  0
ENDTAB
  0
TABLE
  2
VIEW
  5
6
330
0
100
AcDbSymbolTable
 70
     0
  0
ENDTAB
  0
TABLE
  2
UCS
  5
7
330
0
100
AcDbSymbolTable
 70
     0
  0
ENDTAB
  0
TABLE
  2
APPID
  5
9
330
0
100
AcDbSymbolTable
 70
     2
  0
APPID
  5
56
330
9
100
AcDbSymbolTableRecord
100
AcDbRegAppTableRecord
  2
ACAD
 70
     0
  0
APPID
  5
5E
330
9
100
AcDbSymbolTableRecord
100
AcDbRegAppTableRecord
  2
AcadAnnotative
 70
     0
  0
ENDTAB
  0
TABLE
  2
DIMSTYLE
  5
A
330
0
100
AcDbSymbolTable
 70
     2
100
AcDbDimStyleTable
 71
     0
  0
DIMSTYLE
105
58
330
A
100
AcDbSymbolTableRecord
100
AcDbDimStyleTableRecord
  2
Standard
 70
     0
340
55
  0
DIMSTYLE
105
59
330
A
100
AcDbSymbolTableRecord
100
AcDbDimStyleTableRecord
  2
Annotative
 70
     0
340
55
1001
AcadAnnotative
1000
AnnotativeData
1002
{
1070
     1
1070
     1
1002
}
  0
ENDTAB
  0
TABLE
  2
BLOCK_RECORD
  5
1
330
0
100
AcDbSymbolTable
 70
     2
  0
BLOCK_RECORD
  5
70
330
1
100
AcDbSymbolTableRecord
100
AcDbBlockTableRecord
  2
*Model_Space
340
73
 70
     0
280
     1
281
     0
  0
BLOCK_RECORD
  5
6C
330
1
100
AcDbSymbolTableRecord
100
AcDbBlockTableRecord
  2
*Paper_Space
340
6F
 70
     0
280
     1
281
     0
  0
BLOCK_RECORD
  5
74
330
1
100
AcDbSymbolTableRecord
100
AcDbBlockTableRecord
  2
*Paper_Space0
340
77
 70
     0
280
     1
281
     0
  0
BLOCK_RECORD
  5
79
330
1
100
AcDbSymbolTableRecord
100
AcDbBlockTableRecord
  2
Block_0
340
0
102
{BLKREFS
331
7A
102
}
 70
     0
280
     1
281
     0
  0
ENDTAB
  0
ENDSEC
  0
SECTION
  2
BLOCKS
  0
BLOCK
  5
71
330
70
100
AcDbEntity
  8
0
100
AcDbBlockBegin
  2
*Model_Space
 70
     0
 10
0.0
 20
0.0
 30
0.0
  3
*Model_Space
  1

  0
ENDBLK
  5
72
330
70
100
AcDbEntity
  8
0
100
AcDbBlockEnd
  0
BLOCK
  5
6D
330
6C
100
AcDbEntity
 67
     1
  8
0
100
AcDbBlockBegin
  2
*Paper_Space
 70
     0
 10
0.0
 20
0.0
 30
0.0
  3
*Paper_Space
  1

  0
ENDBLK
  5
6E
330
6C
100
AcDbEntity
 67
     1
  8
0
100
AcDbBlockEnd
  0
BLOCK
  5
75
330
74
100
AcDbEntity
 67
     1
  8
0
100
AcDbBlockBegin
  2
*Paper_Space0
 70
     0
 10
0.0
 20
0.0
 30
0.0
  3
*Paper_Space0
  1

  0
ENDBLK
  5
76
330
74
100
AcDbEntity
 67
     1
  8
0
100
AcDbBlockEnd
  0
BLOCK
  5
7B
330
79
100
AcDbEntity
  8
0
100
AcDbBlockBegin
  2
Block_0
 70
     0
 10
0.0
 20
0.0
 30
0.0
  3
Block_0
  1

  0
SPLINE
  5
7D
330
79
100
AcDbEntity
  8
Layer 1
100
AcDbSpline
210
0.0
220
0.0
230
1.0
 70
     9
 71
     3
 72
   125
 73
   121
 74
     0
 42
0.0000000001
 43
0.0000000001
 40
0.0
 40
0.0
 40
0.0
 40
0.0
 40
1.0
 40
1.0
 40
1.0
 40
2.0
 40
2.0
 40
2.0
 40
3.0
 40
3.0
 40
3.0
 40
4.0
 40
4.0
 40
4.0
 40
5.0
 40
5.0
 40
5.0
 40
6.0
 40
6.0
 40
6.0
 40
7.0
 40
7.0
 40
7.0
 40
8.0
 40
8.0
 40
8.0
 40
9.0
 40
9.0
 40
9.0
 40
10.0
 40
10.0
 40
10.0
 40
11.0
 40
11.0
 40
11.0
 40
12.0
 40
12.0
 40
12.0
 40
13.0
 40
13.0
 40
13.0
 40
14.0
 40
14.0
 40
14.0
 40
15.0
 40
15.0
 40
15.0
 40
16.0
 40
16.0
 40
16.0
 40
17.0
 40
17.0
 40
17.0
 40
18.0
 40
18.0
 40
18.0
 40
19.0
 40
19.0
 40
19.0
 40
20.0
 40
20.0
 40
20.0
 40
21.0
 40
21.0
 40
21.0
 40
22.0
 40
22.0
 40
22.0
 40
23.0
 40
23.0
 40
23.0
 40
24.0
 40
24.0
 40
24.0
 40
25.0
 40
25.0
 40
25.0
 40
26.0
 40
26.0
 40
26.0
 40
27.0
 40
27.0
 40
27.0
 40
28.0
 40
28.0
 40
28.0
 40
29.0
 40
29.0
 40
29.0
 40
30.0
 40
30.0
 40
30.0
 40
31.0
 40
31.0
 40
31.0
 40
32.0
 40
32.0
 40
32.0
 40
33.0
 40
33.0
 40
33.0
 40
34.0
 40
34.0
 40
34.0
 40
35.0
 40
35.0
 40
35.0
 40
36.0
 40
36.0
 40
36.0
 40
37.0
 40
37.0
 40
37.0
 40
38.0
 40
38.0
 40
38.0
 40
39.0
 40
39.0
 40
39.0
 40
40.0
 40
40.0
 40
40.0
 40
40.0
 10
-107.0059310696212
 20
-16.36217642043635
 30
0.0
 10
-106.9200200415389
 20
-16.59083368703733
 30
0.0
 10
-106.8347386079371
 20
-16.81983436881981
 30
0.0
 10
-106.7530057977447
 20
-17.05083830575365
 30
0.0
 10
-106.6282888555804
 20
-17.40318226901542
 30
0.0
 10
-106.5108981036848
 20
-17.75947550672625
 30
0.0
 10
-106.3960257296958
 20
-18.11719964097118
 30
0.0
 10
-106.3241947235407
 20
-18.34076291590661
 30
0.0
 10
-106.2504176980929
 20
-18.56323870948045
 30
0.0
 10
-106.182535966381
 20
-18.78891971129053
 30
0.0
 10
-106.0639432613954
 20
-19.18298861757405
 30
0.0
 10
-105.9554240680317
 20
-19.58215151553275
 30
0.0
 10
-105.8489081298161
 20
-19.98234465899555
 30
0.0
 10
-105.7972241469003
 20
-20.17643146526907
 30
0.0
 10
-105.7409612950678
 20
-20.36817160122577
 30
0.0
 10
-105.6921963410866
 20
-20.56363206817398
 30
0.0
 10
-105.5430969219343
 20
-21.16128893374725
 30
0.0
 10
-105.4051012599048
 20
-21.76444044201415
 30
0.0
 10
-105.2834178184012
 20
-22.37503261226855
 30
0.0
 10
-104.7340107840609
 20
-25.13254194662327
 30
0.0
 10
-104.5055252250381
 20
-27.87826069350116
 30
0.0
 10
-104.5552059527994
 20
-30.57887758153833
 30
0.0
 10
-110.1592263860971
 20
-31.59012078215778
 30
0.0
 10
-115.7497963919423
 20
-32.75052063779084
 30
0.0
 10
-121.3118629387747
 20
-34.05257925058032
 30
0.0
 10
-130.1836504115033
 20
-36.12938248435344
 30
0.0
 10
-138.9815463870628
 20
-38.55114625526282
 30
0.0
 10
-147.6262791973047
 20
-41.30201622967851
 30
0.0
 10
-148.0345998330968
 20
-41.43257122971406
 30
0.0
 10
-148.312308232994
 20
-41.51836778607115
 30
0.0
 10
-148.4932307911275
 20
-41.57142542966297
 30
0.0
 10
-148.6486261550463
 20
-41.63100796146151
 30
0.0
 10
-148.8381340924037
 20
-41.70364026967926
 30
0.0
 10
-149.0817299188583
 20
-41.79418740254029
 30
0.0
 10
-150.0642979528727
 20
-42.1635304166652
 30
0.0
 10
-151.0340451539152
 20
-42.58135220546265
 30
0.0
 10
-152.0220505947714
 20
-42.93655796180355
 30
0.0
 10
-154.1331381095724
 20
-43.6989396367066
 30
0.0
 10
-156.278395433674
 20
-44.50298901876814
 30
0.0
 10
-158.4757946275841
 20
-44.99624767299599
 30
0.0
 10
-162.5749125550076
 20
-45.91499772146057
 30
0.0
 10
-166.8341191869848
 20
-46.24828214285551
 30
0.0
 10
-171.0314538527035
 20
-46.21857673074696
 30
0.0
 10
-172.7994696137987
 20
-46.20644272811301
 30
0.0
 10
-174.5629065059728
 20
-46.12596910687261
 30
0.0
 10
-176.3240539636901
 20
-46.01264210114427
 30
0.0
 10
-176.6849260703158
 20
-45.98940434138431
 30
0.0
 10
-177.0454547617733
 20
-45.962446250629
 30
0.0
 10
-177.4060979249555
 20
-45.93651840537652
 30
0.0
 10
-177.4065558118488
 20
-45.93646116951581
 30
0.0
 10
-177.4071281704603
 20
-45.93651840537652
 30
0.0
 10
-177.4075860573542
 20
-45.93646116951581
 30
0.0
 10
-177.5498744089911
 20
-45.6295052444021
 30
0.0
 10
-177.6896443827246
 20
-45.32100395102967
 30
0.0
 10
-177.8241486572009
 20
-45.00912574182863
 30
0.0
 10
-177.920591083792
 20
-44.78567693861459
 30
0.0
 10
-178.0138855380011
 20
-44.56033935197062
 30
0.0
 10
-178.1062642184308
 20
-44.33442940671198
 30
0.0
 10
-178.2432868708104
 20
-43.9991989660283
 30
0.0
 10
-178.3755017108293
 20
-43.66110673227065
 30
0.0
 10
-178.5034810970963
 20
-43.32055335646837
 30
0.0
 10
-178.5424014829021
 20
-43.21695644719134
 30
0.0
 10
-178.580005443894
 20
-43.11267270757567
 30
0.0
 10
-178.6180672917792
 20
-43.00856067554401
 30
0.0
 10
-177.8712537711955
 20
-42.93575665974288
 30
0.0
 10
-177.1081280300938
 20
-42.85368043438115
 30
0.0
 10
-176.3240539636901
 20
-42.75866890432609
 30
0.0
 10
-162.3653148302696
 20
-41.06746366933784
 30
0.0
 10
-143.1496335275656
 20
-36.04175438042903
 30
0.0
 10
-141.8994306052759
 20
-34.13471271180532
 30
0.0
 10
-140.2561890222037
 20
-31.62617937488198
 30
0.0
 10
-141.0593798663419
 20
-27.22891984501591
 30
0.0
 10
-152.5617847685179
 20
-30.15859465069883
 30
0.0
 10
-159.3458369579295
 20
-31.88356904395901
 30
0.0
 10
-169.298180259528
 20
-31.78151750294389
 30
0.0
 10
-176.3240539636901
 20
-31.40782456334313
 30
0.0
 10
-178.0786765331982
 20
-31.31447287327394
 30
0.0
 10
-179.6452220618848
 20
-31.20452278336907
 30
0.0
 10
-180.9396683050976
 20
-31.1015554685706
 30
0.0
 10
-180.9567245918183
 20
-30.60131403923826
 30
0.0
 10
-180.97212103856
 20
-30.10124431749057
 30
0.0
 10
-180.9695454247908
 20
-29.60380744538243
 30
0.0
 10
-180.9681717641174
 20
-29.33548572676725
 30
0.0
 10
-180.9523746663482
 20
-29.06939620674621
 30
0.0
 10
-180.9453346553862
 20
-28.80193302605048
 30
0.0
 10
-179.4075215291622
 20
-29.02097466793438
 30
0.0
 10
-177.8688498650135
 20
-29.20138210331587
 30
0.0
 10
-176.3240539636901
 20
-29.32741547029091
 30
0.0
 10
-173.5279104228433
 20
-29.55555761415396
 30
0.0
 10
-170.7108185566984
 20
-29.61496843836207
 30
0.0
 10
-167.8354605835657
 20
-29.42460196308968
 30
0.0
 10
-160.1213828809763
 20
-28.91285612560388
 30
0.0
 10
-152.7932465923405
 20
-26.87749165553812
 30
0.0
 10
-145.6670384230073
 20
-23.93413747896318
 30
0.0
 10
-134.0882808816175
 20
-19.15482857373064
 30
0.0
 10
-122.0583902800453
 20
-11.91592299314249
 30
0.0
 10
-109.2219319185139
 20
-11.51464236831041
 30
0.0
 10
-109.1352195883728
 20
-11.67341464805521
 30
0.0
 10
-109.0536584857644
 20
-11.83573555120686
 30
0.0
 10
-108.969063882496
 20
-11.99605319921358
 30
0.0
 10
-108.7868248995479
 20
-12.341414387376
 30
0.0
 10
-108.6064174641657
 20
-12.68797752863038
 30
0.0
 10
-108.4342519928356
 20
-13.0401497843152
 30
0.0
 10
-108.3323149235406
 20
-13.24871726354076
 30
0.0
 10
-108.2353573741936
 20
-13.46054718688251
 30
0.0
 10
-108.1370261641732
 20
-13.67146133643322
 30
0.0
 10
-107.9824321023164
 20
-14.0030286819771
 30
0.0
 10
-107.8307570693981
 20
-14.3363703392321
 30
0.0
 10
-107.6852635095166
 20
-14.67366127092845
 30
0.0
 10
-107.5889927905101
 20
-14.89688113070161
 30
0.0
 10
-107.4956983362972
 20
-15.12181806631302
 30
0.0
 10
-107.4034913634554
 20
-15.3474418322669
 30
0.0
 10
-107.3677189500302
 20
-15.43495546447184
 30
0.0
 10
-107.3349800372656
 20
-15.52430064423577
 30
0.0
 10
-107.2997799824557
 20
-15.61221492746752
 30
0.0
 10
-107.2997799824557
 20
-15.61221492746752
 30
0.0
 10
-107.2927399714937
 20
-15.61221492746752
 30
0.0
 10
-107.2927399714937
 20
-15.61221492746752
 30
0.0
 10
-107.1935502235494
 20
-15.86016067940058
 30
0.0
 10
-107.1001412976144
 20
-16.11136887543187
 30
0.0
 10
-107.0059310696212
 20
-16.36217642043635
 30
0.0
  0
SPLINE
  5
7E
330
79
100
AcDbEntity
  8
Layer 1
100
AcDbSpline
210
0.0
220
0.0
230
1.0
 70
     9
 71
     3
 72
   155
 73
   151
 74
     0
 42
0.0000000001
 43
0.0000000001
 40
0.0
 40
0.0
 40
0.0
 40
0.0
 40
1.0
 40
1.0
 40
1.0
 40
2.0
 40
2.0
 40
2.0
 40
3.0
 40
3.0
 40
3.0
 40
4.0
 40
4.0
 40
4.0
 40
5.0
 40
5.0
 40
5.0
 40
6.0
 40
6.0
 40
6.0
 40
7.0
 40
7.0
 40
7.0
 40
8.0
 40
8.0
 40
8.0
 40
9.0
 40
9.0
 40
9.0
 40
10.0
 40
10.0
 40
10.0
 40
11.0
 40
11.0
 40
11.0
 40
12.0
 40
12.0
 40
12.0
 40
13.0
 40
13.0
 40
13.0
 40
14.0
 40
14.0
 40
14.0
 40
15.0
 40
15.0
 40
15.0
 40
16.0
 40
16.0
 40
16.0
 40
17.0
 40
17.0
 40
17.0
 40
18.0
 40
18.0
 40
18.0
 40
19.0
 40
19.0
 40
19.0
 40
20.0
 40
20.0
 40
20.0
 40
21.0
 40
21.0
 40
21.0
 40
22.0
 40
22.0
 40
22.0
 40
23.0
 40
23.0
 40
23.0
 40
24.0
 40
24.0
 40
24.0
 40
25.0
 40
25.0
 40
25.0
 40
26.0
 40
26.0
 40
26.0
 40
27.0
 40
27.0
 40
27.0
 40
28.0
 40
28.0
 40
28.0
 40
29.0
 40
29.0
 40
29.0
 40
30.0
 40
30.0
 40
30.0
 40
31.0
 40
31.0
 40
31.0
 40
32.0
 40
32.0
 40
32.0
 40
33.0
 40
33.0
 40
33.0
 40
34.0
 40
34.0
 40
34.0
 40
35.0
 40
35.0
 40
35.0
 40
36.0
 40
36.0
 40
36.0
 40
37.0
 40
37.0
 40
37.0
 40
38.0
 40
38.0
 40
38.0
 40
39.0
 40
39.0
 40
39.0
 40
40.0
 40
40.0
 40
40.0
 40
41.0
 40
41.0
 40
41.0
 40
42.0
 40
42.0
 40
42.0
 40
43.0
 40
43.0
 40
43.0
 40
44.0
 40
44.0
 40
44.0
 40
45.0
 40
45.0
 40
45.0
 40
46.0
 40
46.0
 40
46.0
 40
47.0
 40
47.0
 40
47.0
 40
48.0
 40
48.0
 40
48.0
 40
49.0
 40
49.0
 40
49.0
 40
50.0
 40
50.0
 40
50.0
 40
50.0
 10
-116.0401539172267
 20
-51.06920151938968
 30
0.0
 10
-114.181934438441
 20
-50.72601529395941
 30
0.0
 10
-112.3127829101127
 20
-50.44836412992552
 30
0.0
 10
-110.4386518618363
 20
-50.20505448277692
 30
0.0
 10
-110.6182579951591
 20
-50.48997460122008
 30
0.0
 10
-110.7924267216406
 20
-50.77838610721453
 30
0.0
 10
-110.9794735169566
 20
-51.05849841329369
 30
0.0
 10
-111.6582335982366
 20
-52.07500731316528
 30
0.0
 10
-112.3854152183298
 20
-53.05917795130098
 30
0.0
 10
-113.1586144710534
 20
-54.00723276084216
 30
0.0
 10
-114.3183847322092
 20
-55.42925773929452
 30
0.0
 10
-115.5815229591928
 20
-56.77006503030779
 30
0.0
 10
-116.9396154803753
 20
-58.01677656504934
 30
0.0
 10
-118.2977080015513
 20
-59.26354533565031
 30
0.0
 10
-119.7506975810668
 20
-60.41621834998147
 30
0.0
 10
-121.2901705472735
 20
-61.46226095437631
 30
0.0
 10
-122.8295862776176
 20
-62.50830355877051
 30
0.0
 10
-124.45548539466
 20
-63.44765851736832
 30
0.0
 10
-126.1593397550355
 20
-64.26756223305787
 30
0.0
 10
-127.863136879549
 20
-65.08746594874935
 30
0.0
 10
-129.6449464832584
 20
-65.78797565739262
 30
0.0
 10
-131.4961831869454
 20
-66.35632776188157
 30
0.0
 10
-132.7303600680223
 20
-66.73522916487377
 30
0.0
 10
-133.9953870784352
 20
-67.05540657398945
 30
0.0
 10
-135.2888030761427
 20
-67.3131396582313
 30
0.0
 10
-135.9269829316374
 20
-67.44031774243826
 30
0.0
 10
-136.5645904285174
 20
-67.55015336061596
 30
0.0
 10
-137.2012249157476
 20
-67.64419188102698
 30
0.0
 10
-137.4236434734575
 20
-67.67710250137691
 30
0.0
 10
-137.6452034932429
 20
-67.69747846806287
 30
0.0
 10
-137.8673931075062
 20
-67.72632534224877
 30
0.0
 10
-138.2813800935869
 20
-67.78012705203863
 30
0.0
 10
-138.695596023111
 20
-67.83690502662709
 30
0.0
 10
-139.1084382919618
 20
-67.87697012966231
 30
0.0
 10
-139.366343083787
 20
-67.90198220112954
 30
0.0
 10
-139.622988686657
 20
-67.91417343962418
 30
0.0
 10
-139.8803783557334
 20
-67.93386257597216
 30
0.0
 10
-140.256646909097
 20
-67.96270945015805
 30
0.0
 10
-140.6334878210758
 20
-67.99556283464728
 30
0.0
 10
-141.008497185488
 20
-68.01319147998258
 30
0.0
 10
-141.2787649233919
 20
-68.0258406053705
 30
0.0
 10
-141.5473155854537
 20
-68.0260695488165
 30
0.0
 10
-141.8168964930209
 20
-68.03299508805451
 30
0.0
 10
-142.1786271375679
 20
-68.04232453347646
 30
0.0
 10
-142.5409873765954
 20
-68.05566048919979
 30
0.0
 10
-142.9012871246057
 20
-68.05463024369314
 30
0.0
 10
-143.0867313157985
 20
-68.05411512094173
 30
0.0
 10
-143.2709163180386
 20
-68.04564421344244
 30
0.0
 10
-143.4559026223413
 20
-68.04243900519913
 30
0.0
 10
-143.8697179008341
 20
-68.03522728665313
 30
0.0
 10
-144.2831897641621
 20
-68.02566889778585
 30
0.0
 10
-144.6947156081982
 20
-68.00506398765261
 30
0.0
 10
-144.9214268555162
 20
-67.99367405121926
 30
0.0
 10
-145.1468216780235
 20
-67.97581646243734
 30
0.0
 10
-145.3727316232796
 20
-67.96042001569874
 30
0.0
 10
-145.7413305712071
 20
-67.93529347251011
 30
0.0
 10
-146.1094716322413
 20
-67.90764855141617
 30
0.0
 10
-146.4758956174341
 20
-67.87193337385295
 30
0.0
 10
-146.7143974522149
 20
-67.84863837823039
 30
0.0
 10
-146.9520407490755
 20
-67.82122240058116
 30
0.0
 10
-147.1895695742148
 20
-67.79352024362523
 30
0.0
 10
-147.5436878491877
 20
-67.75219595163736
 30
0.0
 10
-147.8967186427926
 20
-67.70663620589951
 30
0.0
 10
-148.2484902474429
 20
-67.65546734573701
 30
0.0
 10
-148.4857901291349
 20
-67.62095412126703
 30
0.0
 10
-148.7228038315247
 20
-67.58495276439456
 30
0.0
 10
-148.9589589959867
 20
-67.54603237858866
 30
0.0
 10
-149.3130200350969
 20
-67.48770903574343
 30
0.0
 10
-149.6653067624993
 20
-67.42291804054961
 30
0.0
 10
-150.0166777161222
 20
-67.35475012952588
 30
0.0
 10
-150.2437896144709
 20
-67.31067851618668
 30
0.0
 10
-150.4712449279882
 20
-67.26769438421678
 30
0.0
 10
-150.6971548732514
 20
-67.21961626057361
 30
0.0
 10
-151.0678715480516
 20
-67.1406880075932
 30
0.0
 10
-151.4358981373606
 20
-67.05288819608412
 30
0.0
 10
-151.8032378963329
 20
-66.96302789356109
 30
0.0
 10
-152.0041930059889
 20
-66.91391952441255
 30
0.0
 10
-152.2063500687336
 20
-66.86847425039802
 30
0.0
 10
-152.406274932881
 20
-66.81610343714547
 30
0.0
 10
-152.8540883130943
 20
-66.69882715697321
 30
0.0
 10
-153.2980668905896
 20
-66.57050435553692
 30
0.0
 10
-153.7403283922396
 20
-66.4373165058753
 30
0.0
 10
-153.855429709672
 20
-66.40263157381939
 30
0.0
 10
-153.9723625746743
 20
-66.37263998240479
 30
0.0
 10
-154.0871204769413
 20
-66.33692480484157
 30
0.0
 10
-154.6420793898449
 20
-66.1640725031741
 30
0.0
 10
-155.1921160186593
 20
-65.97817042508933
 30
0.0
 10
-155.7373448351135
 20
-65.78059223126262
 30
0.0
 10
-155.8877034432178
 20
-65.7261609269961
 30
0.0
 10
-156.0351430223874
 20
-65.66503302693499
 30
0.0
 10
-156.1847003284336
 20
-65.60871293923982
 30
0.0
 10
-156.5779679326558
 20
-65.46064376559357
 30
0.0
 10
-156.9700335837918
 20
-65.30982727059601
 30
0.0
 10
-157.3576348377261
 20
-65.14910897156186
 30
0.0
 10
-157.5569873432582
 20
-65.06646038758545
 30
0.0
 10
-157.7535352915808
 20
-64.97780203815501
 30
0.0
 10
-157.951285192989
 20
-64.89183377421262
 30
0.0
 10
-158.2861149826426
 20
-64.74628297847171
 30
0.0
 10
-158.619971762651
 20
-64.59878616343949
 30
0.0
 10
-158.9502799192466
 20
-64.44384868641465
 30
0.0
 10
-159.1591908136479
 20
-64.34580365570093
 30
0.0
 10
-159.3660984528947
 20
-64.24386658640592
 30
0.0
 10
-159.573120563866
 20
-64.14215846055821
 30
0.0
 10
-159.8887191040637
 20
-63.98710651181003
 30
0.0
 10
-160.2024860966915
 20
-63.82873488309717
 30
0.0
 10
-160.5135057679718
 20
-63.66521202685099
 30
0.0
 10
-160.7206995865239
 20
-63.55623494659465
 30
0.0
 10
-160.926977631296
 20
-63.44542631877033
 30
0.0
 10
-161.1321109588386
 20
-63.33272890751864
 30
0.0
 10
-161.440097129459
 20
-63.16348246512385
 30
0.0
 10
-161.7452215070041
 20
-62.98914203105772
 30
0.0
 10
-162.0483426293985
 20
-62.81159638874893
 30
0.0
 10
-162.2467793611473
 20
-62.69540758994659
 30
0.0
 10
-162.4455022722014
 20
-62.57956220631228
 30
0.0
 10
-162.6418212770735
 20
-62.45982478409732
 30
0.0
 10
-162.9548442035052
 20
-62.26888595020321
 30
0.0
 10
-163.2634027327409
 20
-62.07084986948514
 30
0.0
 10
-163.570759308884
 20
-61.87103947706107
 30
0.0
 10
-163.7482477153314
 20
-61.75570921618138
 30
0.0
 10
-163.9273959617609
 20
-61.64295456906579
 30
0.0
 10
-164.1029955847816
 20
-61.52464804338943
 30
0.0
 10
-164.456541501136
 20
-61.28643238791281
 30
0.0
 10
-164.8039631803156
 20
-61.03917346632223
 30
0.0
 10
-165.1494388402065
 20
-60.7892816951043
 30
0.0
 10
-165.2719235837689
 20
-60.70068058153392
 30
0.0
 10
-165.3973845921318
 20
-60.61625768585024
 30
0.0
 10
-165.5188390901927
 20
-60.52622567574448
 30
0.0
 10
-165.9823350964501
 20
-60.18258156342414
 30
0.0
 10
-166.4383332048553
 20
-59.82880670361927
 30
0.0
 10
-166.8861465850687
 20
-59.46438597358231
 30
0.0
 10
-166.9856797481823
 20
-59.38333999372724
 30
0.0
 10
-167.0813208727147
 20
-59.29737172978549
 30
0.0
 10
-167.1801099696251
 20
-59.2153527402851
 30
0.0
 10
-167.525642865378
 20
-58.92837213082733
 30
0.0
 10
-167.8684284397744
 20
-58.63795736968219
 30
0.0
 10
-168.2039450597686
 20
-58.33878552173234
 30
0.0
 10
-168.3591687160995
 20
-58.20038920867478
 30
0.0
 10
-168.5097562676504
 20
-58.05666996049926
 30
0.0
 10
-168.662804961246
 20
-57.91569803367762
 30
0.0
 10
-168.776704325589
 20
-57.81072746372396
 30
0.0
 10
-168.8884287271966
 20
-57.70312404414296
 30
0.0
 10
-169.0011261384496
 20
-57.59677981351461
 30
0.0
 10
-165.2773037547476
 20
-57.2791207823049
 30
0.0
 10
-161.5522794179567
 20
-56.97937657573717
 30
0.0
 10
-157.8474021044052
 20
-56.47278196578469
 30
0.0
 10
-150.9785836041407
 20
-55.53537302647751
 30
0.0
 10
-144.1726100797851
 20
-53.59782464368203
 30
0.0
 10
-137.4084759701662
 20
-52.0881715613059
 30
0.0
 10
-130.8811838553499
 20
-50.63106099976697
 30
0.0
 10
-122.6172412315295
 20
-52.28758130269866
 30
0.0
 10
-116.0401539172267
 20
-51.06920151938968
 30
0.0
  0
SPLINE
  5
7F
330
79
100
AcDbEntity
  8
Layer 1
100
AcDbSpline
210
0.0
220
0.0
230
1.0
 70
     9
 71
     3
 72
   146
 73
   142
 74
     0
 42
0.0000000001
 43
0.0000000001
 40
0.0
 40
0.0
 40
0.0
 40
0.0
 40
1.0
 40
1.0
 40
1.0
 40
2.0
 40
2.0
 40
2.0
 40
3.0
 40
3.0
 40
3.0
 40
4.0
 40
4.0
 40
4.0
 40
5.0
 40
5.0
 40
5.0
 40
6.0
 40
6.0
 40
6.0
 40
7.0
 40
7.0
 40
7.0
 40
8.0
 40
8.0
 40
8.0
 40
9.0
 40
9.0
 40
9.0
 40
10.0
 40
10.0
 40
10.0
 40
11.0
 40
11.0
 40
11.0
 40
12.0
 40
12.0
 40
12.0
 40
13.0
 40
13.0
 40
13.0
 40
14.0
 40
14.0
 40
14.0
 40
15.0
 40
15.0
 40
15.0
 40
16.0
 40
16.0
 40
16.0
 40
17.0
 40
17.0
 40
17.0
 40
18.0
 40
18.0
 40
18.0
 40
19.0
 40
19.0
 40
19.0
 40
20.0
 40
20.0
 40
20.0
 40
21.0
 40
21.0
 40
21.0
 40
22.0
 40
22.0
 40
22.0
 40
23.0
 40
23.0
 40
23.0
 40
24.0
 40
24.0
 40
24.0
 40
25.0
 40
25.0
 40
25.0
 40
26.0
 40
26.0
 40
26.0
 40
27.0
 40
27.0
 40
27.0
 40
28.0
 40
28.0
 40
28.0
 40
29.0
 40
29.0
 40
29.0
 40
30.0
 40
30.0
 40
30.0
 40
31.0
 40
31.0
 40
31.0
 40
32.0
 40
32.0
 40
32.0
 40
33.0
 40
33.0
 40
33.0
 40
34.0
 40
34.0
 40
34.0
 40
35.0
 40
35.0
 40
35.0
 40
36.0
 40
36.0
 40
36.0
 40
37.0
 40
37.0
 40
37.0
 40
38.0
 40
38.0
 40
38.0
 40
39.0
 40
39.0
 40
39.0
 40
40.0
 40
40.0
 40
40.0
 40
41.0
 40
41.0
 40
41.0
 40
42.0
 40
42.0
 40
42.0
 40
43.0
 40
43.0
 40
43.0
 40
44.0
 40
44.0
 40
44.0
 40
45.0
 40
45.0
 40
45.0
 40
46.0
 40
46.0
 40
46.0
 40
47.0
 40
47.0
 40
47.0
 40
47.0
 10
-178.0007785257232
 20
-15.08215361430909
 30
0.0
 10
-177.5260070547552
 20
-13.95128746319992
 30
0.0
 10
-176.9976628174381
 20
-12.84526167597974
 30
0.0
 10
-176.4183786634085
 20
-11.76785381949432
 30
0.0
 10
-176.3882726002687
 20
-11.71181991110455
 30
0.0
 10
-176.3545034419948
 20
-11.65796096545464
 30
0.0
 10
-176.3240539636901
 20
-11.60204152878562
 30
0.0
 10
-174.3084358658349
 20
-7.897393158676915
 30
0.0
 10
-171.6916695148674
 20
-4.533011985066999
 30
0.0
 10
-168.5698539222049
 20
-1.667326872529436
 30
0.0
 10
-165.8536688798464
 20
0.8259817252271334
 30
0.0
 10
-162.7577811324337
 20
2.943307948933243
 30
0.0
 10
-159.3501296475408
 20
4.583058144456142
 30
0.0
 10
-158.2142267406248
 20
5.129660621574809
 30
0.0
 10
-157.0436961375143
 20
5.623148219251229
 30
0.0
 10
-155.84099898025
 20
6.059800606475288
 30
0.0
 10
-154.0369818622874
 20
6.714807805249747
 30
0.0
 10
-152.1606758512718
 20
7.241950089470927
 30
0.0
 10
-150.2205518547122
 20
7.628521097898553
 30
0.0
 10
-149.5824292350801
 20
7.755641946244161
 30
0.0
 10
-148.9448789740627
 20
7.865477564427643
 30
0.0
 10
-148.3083017226913
 20
7.959516084838668
 30
0.0
 10
-148.0859976367034
 20
7.992369469320839
 30
0.0
 10
-147.8645520886426
 20
8.012802671877125
 30
0.0
 10
-147.6424769461014
 20
8.041649546063664
 30
0.0
 10
-147.228146544852
 20
8.095508491712941
 30
0.0
 10
-146.8135299642972
 20
8.152286466301395
 30
0.0
 10
-146.4002870444158
 20
8.192408805198597
 30
0.0
 10
-146.1400928181338
 20
8.217649820102838
 30
0.0
 10
-145.8813294883841
 20
8.229898294462673
 30
0.0
 10
-145.6217076207135
 20
8.249759138396589
 30
0.0
 10
-145.2483580962872
 20
8.278319833276437
 30
0.0
 10
-144.8744934491024
 20
8.311115981903686
 30
0.0
 10
-144.5024031136281
 20
8.328572919657528
 30
0.0
 10
-144.2282433371404
 20
8.341450988483748
 30
0.0
 10
-143.9557434006385
 20
8.341737167790441
 30
0.0
 10
-143.6823276903533
 20
8.348662707033591
 30
0.0
 10
-143.3238594899064
 20
8.357820444870231
 30
0.0
 10
-142.9647044591261
 20
8.37104192886769
 30
0.0
 10
-142.6076671552185
 20
8.370068919230067
 30
0.0
 10
-142.4233676812525
 20
8.369553796472244
 30
0.0
 10
-142.240384632105
 20
8.361140124833648
 30
0.0
 10
-142.0564858091735
 20
8.357992152456173
 30
0.0
 10
-141.6411251624162
 20
8.350780433906328
 30
0.0
 10
-141.2261079308301
 20
8.341222045044167
 30
0.0
 10
-140.8130939543954
 20
8.320502663189531
 30
0.0
 10
-140.5887293774006
 20
8.309227198469885
 30
0.0
 10
-140.3656239893539
 20
8.291541317274537
 30
0.0
 10
-140.1420034785552
 20
8.276316578123168
 30
0.0
 10
-139.7699131430777
 20
8.251075563207377
 30
0.0
 10
-139.3983951662149
 20
8.223087226949258
 30
0.0
 10
-139.0285370293354
 20
8.187028634216083
 30
0.0
 10
-138.7940417048567
 20
8.16419152548935
 30
0.0
 10
-138.5605766258821
 20
8.137176198870779
 30
0.0
 10
-138.3270543110455
 20
8.109989164667549
 30
0.0
 10
-137.9684716388773
 20
8.068206985788961
 30
0.0
 10
-137.610919212217
 20
8.022074881435159
 30
0.0
 10
-137.2547976820927
 20
7.97027642679279
 30
0.0
 10
-137.0212181313974
 20
7.936335560941336
 30
0.0
 10
-136.7880964675915
 20
7.900792090953791
 30
0.0
 10
-136.5556616341261
 20
7.862558535491031
 30
0.0
 10
-136.1966783109266
 20
7.803491126443897
 30
0.0
 10
-135.839469299435
 20
7.737898829191967
 30
0.0
 10
-135.483290533452
 20
7.668700672660944
 30
0.0
 10
-135.261043683326
 20
7.625544833107019
 30
0.0
 10
-135.0384534180321
 20
7.583533710779224
 30
0.0
 10
-134.81735128514
 20
7.536428596784591
 30
0.0
 10
-134.4394228917899
 20
7.456012211408095
 30
0.0
 10
-134.0642990556563
 20
7.36666703163518
 30
0.0
 10
-133.6899192857221
 20
7.274975181547381
 30
0.0
 10
-133.4959469511687
 20
7.22746941651696
 30
0.0
 10
-133.3008298993859
 20
7.183626746621196
 30
0.0
 10
-133.1078878103379
 20
7.133144716799884
 30
0.0
 10
-132.64444903994
 20
7.011861926328141
 30
0.0
 10
-132.1848450722626
 20
6.879475378723977
 30
0.0
 10
-131.7274160673213
 20
6.741193537389743
 30
0.0
 10
-131.6278256683457
 20
6.71103023839498
 30
0.0
 10
-131.52663266525
 20
6.685274100721367
 30
0.0
 10
-131.4273284455837
 20
6.654366735527919
 30
0.0
 10
-130.8684774940994
 20
6.480369716629824
 30
0.0
 10
-130.3146060625669
 20
6.293151213725286
 30
0.0
 10
-129.7656569151199
 20
6.09419935922836
 30
0.0
 10
-129.6312671123657
 20
6.045491641108545
 30
0.0
 10
-129.4995101592401
 20
5.990774157538548
 30
0.0
 10
-129.3656927151044
 20
5.940578307013661
 30
0.0
 10
-128.9557122393258
 20
5.786785547223289
 30
0.0
 10
-128.5472771318122
 20
5.629329692296336
 30
0.0
 10
-128.1434208932122
 20
5.461743089885493
 30
0.0
 10
-127.9547142579167
 20
5.383444431381734
 30
0.0
 10
-127.7688121798307
 20
5.299479422591335
 30
0.0
 10
-127.5815364410719
 20
5.218204499285134
 30
0.0
 10
-127.2354311867069
 20
5.068074834628134
 30
0.0
 10
-126.8903561778499
 20
4.91554126378272
 30
0.0
 10
-126.549173207571
 20
4.755395323370284
 30
0.0
 10
-126.3486759848089
 20
4.661299567094711
 30
0.0
 10
-126.1502392530602
 20
4.563426243962447
 30
0.0
 10
-125.9515163420054
 20
4.465896336002706
 30
0.0
 10
-125.6271607150005
 20
4.306780641094365
 30
0.0
 10
-125.3046938714255
 20
4.144001851043026
 30
0.0
 10
-124.9852032926504
 20
3.975842890018796
 30
0.0
 10
-124.7847633057509
 20
3.870357197312452
 30
0.0
 10
-124.585239092631
 20
3.763211664621512
 30
0.0
 10
-124.3867451250235
 20
3.654291820230998
 30
0.0
 10
-124.0709176413824
 20
3.480867159946289
 30
0.0
 10
-123.7581808942568
 20
3.302119564544895
 30
0.0
 10
-123.4474474022851
 20
3.119995053314896
 30
0.0
 10
-123.2565085683922
 20
3.00804170826766
 30
0.0
 10
-123.0651690834643
 20
2.896660721831886
 30
0.0
 10
-122.8761762688634
 20
2.781444932674872
 30
0.0
 10
-122.5535949535663
 20
2.584782512628284
 30
0.0
 10
-122.2356497430493
 20
2.380908374040836
 30
0.0
 10
-121.9190209573463
 20
2.174859272715461
 30
0.0
 10
-121.7501751659815
 20
2.064909182809302
 30
0.0
 10
-121.579555062912
 20
1.957763650120287
 30
0.0
 10
-121.4124263473925
 20
1.845180710595117
 30
0.0
 10
-121.044972116695
 20
1.597692845554051
 30
0.0
 10
-120.6836993590387
 20
1.341104478540891
 30
0.0
 10
-120.3249449792858
 20
1.081024723979658
 30
0.0
 10
-120.2159106631694
 20
1.001981999277856
 30
0.0
 10
-120.1040717898371
 20
0.9268885490174039
 30
0.0
 10
-119.9958960116421
 20
0.8467011070907544
 30
0.0
 10
-119.6537972675824
 20
0.5931462407343174
 30
0.0
 10
-119.3203983744641
 20
0.3279724944979033
 30
0.0
 10
-118.9867705379031
 20
0.0630849275778078
 30
0.0
 10
-128.5829350735115
 20
-2.03146142325649
 30
0.0
 10
-137.8341963078477
 20
-6.381501367400756
 30
0.0
 10
-146.6327791137477
 20
-10.36700610978795
 30
0.0
 10
-153.1279619102734
 20
-13.30990239946961
 30
0.0
 10
-159.4623119360417
 20
-15.5310544758917
 30
0.0
 10
-166.561905429789
 20
-16.48403156951891
 30
0.0
 10
-169.7980210378252
 20
-16.91879517332072
 30
0.0
 10
-173.0710537765166
 20
-16.88582731710753
 30
0.0
 10
-176.3240539636901
 20
-16.57566618375115
 30
0.0
 10
-177.0470573658966
 20
-16.50669697066933
 30
0.0
 10
-177.7684581639798
 20
-16.42244578257288
 30
0.0
 10
-178.4887714806982
 20
-16.32766319596253
 30
0.0
 10
-178.4887714806982
 20
-16.32766319596253
 30
0.0
 10
-178.488828716557
 20
-16.32766319596253
 30
0.0
 10
-178.488828716557
 20
-16.32766319596253
 30
0.0
 10
-178.3306287954294
 20
-15.91052823750243
 30
0.0
 10
-178.1732874122219
 20
-15.49293539214969
 30
0.0
 10
-178.0007785257232
 20
-15.08215361430909
 30
0.0
  0
SPLINE
  5
80
330
79
100
AcDbEntity
  8
Layer 1
100
AcDbSpline
210
0.0
220
0.0
230
1.0
 70
    11
 71
     3
 72
    38
 73
    34
 74
     0
 42
0.0000000001
 43
0.0000000001
 40
0.0
 40
0.0
 40
0.0
 40
0.0
 40
1.0
 40
1.0
 40
1.0
 40
2.0
 40
2.0
 40
2.0
 40
3.0
 40
3.0
 40
3.0
 40
4.0
 40
4.0
 40
4.0
 40
5.0
 40
5.0
 40
5.0
 40
6.0
 40
6.0
 40
6.0
 40
7.0
 40
7.0
 40
7.0
 40
8.0
 40
8.0
 40
8.0
 40
9.0
 40
9.0
 40
9.0
 40
10.0
 40
10.0
 40
10.0
 40
11.0
 40
11.0
 40
11.0
 40
11.0
 10
-136.8963294816491
 20
55.66806776983216
 30
0.0
 10
-136.8963294816491
 20
55.66806776983216
 30
0.0
 10
-128.5005726688444
 20
51.52424863459984
 30
0.0
 10
-128.5005726688444
 20
51.52424863459984
 30
0.0
 10
-128.5005726688444
 20
51.52424863459984
 30
0.0
 10
-136.8963294816491
 20
47.38105909383456
 30
0.0
 10
-136.8963294816491
 20
47.38105909383456
 30
0.0
 10
-136.8963294816491
 20
47.38105909383456
 30
0.0
 10
-138.2425169436398
 20
38.1155461299892
 30
0.0
 10
-138.2425169436398
 20
38.1155461299892
 30
0.0
 10
-138.2425169436398
 20
38.1155461299892
 30
0.0
 10
-144.7777648432021
 20
44.82049835884339
 30
0.0
 10
-144.7777648432021
 20
44.82049835884339
 30
0.0
 10
-144.7777648432021
 20
44.82049835884339
 30
0.0
 10
-154.0057310819169
 20
43.23723995860225
 30
0.0
 10
-154.0057310819169
 20
43.23723995860225
 30
0.0
 10
-154.0057310819169
 20
43.23723995860225
 30
0.0
 10
-149.648708362672
 20
51.52424863459984
 30
0.0
 10
-149.648708362672
 20
51.52424863459984
 30
0.0
 10
-149.648708362672
 20
51.52424863459984
 30
0.0
 10
-154.0056738460581
 20
59.81182966920826
 30
0.0
 10
-154.0056738460581
 20
59.81182966920826
 30
0.0
 10
-154.0056738460581
 20
59.81182966920826
 30
0.0
 10
-144.7778220790647
 20
58.22920086344505
 30
0.0
 10
-144.7778220790647
 20
58.22920086344505
 30
0.0
 10
-144.7778220790647
 20
58.22920086344505
 30
0.0
 10
-144.7777648432021
 20
58.22925809930896
 30
0.0
 10
-144.7777648432021
 20
58.22925809930896
 30
0.0
 10
-144.7777648432021
 20
58.22925809930896
 30
0.0
 10
-138.2425169436398
 20
64.93306561092097
 30
0.0
 10
-138.2425169436398
 20
64.93306561092097
 30
0.0
 10
-138.2425169436398
 20
64.93306561092097
 30
0.0
 10
-136.8963294816491
 20
55.66806776983216
 30
0.0
 10
-136.8963294816491
 20
55.66806776983216
 30
0.0
  0
SPLINE
  5
81
330
79
100
AcDbEntity
  8
Layer 1
100
AcDbSpline
210
0.0
220
0.0
230
1.0
 70
    11
 71
     3
 72
    53
 73
    49
 74
     0
 42
0.0000000001
 43
0.0000000001
 40
0.0
 40
0.0
 40
0.0
 40
0.0
 40
1.0
 40
1.0
 40
1.0
 40
2.0
 40
2.0
 40
2.0
 40
3.0
 40
3.0
 40
3.0
 40
4.0
 40
4.0
 40
4.0
 40
5.0
 40
5.0
 40
5.0
 40
6.0
 40
6.0
 40
6.0
 40
7.0
 40
7.0
 40
7.0
 40
8.0
 40
8.0
 40
8.0
 40
9.0
 40
9.0
 40
9.0
 40
10.0
 40
10.0
 40
10.0
 40
11.0
 40
11.0
 40
11.0
 40
12.0
 40
12.0
 40
12.0
 40
13.0
 40
13.0
 40
13.0
 40
14.0
 40
14.0
 40
14.0
 40
15.0
 40
15.0
 40
15.0
 40
16.0
 40
16.0
 40
16.0
 40
16.0
 10
-47.79829416241327
 20
44.17751069097891
 30
0.0
 10
-47.79829416241327
 20
44.17751069097891
 30
0.0
 10
-47.79829416241327
 20
87.73434469185676
 30
0.0
 10
-47.79829416241327
 20
87.73434469185676
 30
0.0
 10
-47.79829416241327
 20
87.73434469185676
 30
0.0
 10
-176.3240539636901
 20
87.73434469185676
 30
0.0
 10
-176.3240539636901
 20
87.73434469185676
 30
0.0
 10
-176.3240539636901
 20
87.73434469185676
 30
0.0
 10
-176.3240539636901
 20
-4.710443155656963
 30
0.0
 10
-176.3240539636901
 20
-4.710443155656963
 30
0.0
 10
-183.2122754209947
 20
-13.92055180559177
 30
0.0
 10
-186.3237885585894
 20
-25.89967419802256
 30
0.0
 10
-183.904886580752
 20
-38.03991554053677
 30
0.0
 10
-182.6492462516243
 20
-44.34192730456401
 30
0.0
 10
-179.9984245630743
 20
-50.08222632404134
 30
0.0
 10
-176.3240539636901
 20
-54.97589248051723
 30
0.0
 10
-176.3240539636901
 20
-54.97589248051723
 30
0.0
 10
-176.3240539636901
 20
-81.12878913795233
 30
0.0
 10
-176.3240539636901
 20
-81.12878913795233
 30
0.0
 10
-176.3240539636901
 20
-81.12878913795233
 30
0.0
 10
-47.79829416241327
 20
-81.12878913795233
 30
0.0
 10
-47.79829416241327
 20
-81.12878913795233
 30
0.0
 10
-47.79829416241327
 20
-81.12878913795233
 30
0.0
 10
-47.79829416241327
 20
-36.25993748438963
 30
0.0
 10
-47.79829416241327
 20
-36.25993748438963
 30
0.0
 10
-47.79829416241327
 20
-36.25993748438963
 30
0.0
 10
-101.2728437686893
 20
-36.25993748438963
 30
0.0
 10
-101.2728437686893
 20
-36.25993748438963
 30
0.0
 10
-100.5345011556068
 20
-31.46963929374029
 30
0.0
 10
-100.6294554498025
 20
-26.5369955155991
 30
0.0
 10
-101.6047545294082
 20
-21.64207017017248
 30
0.0
 10
-102.0182263927331
 20
-19.56675506879609
 30
0.0
 10
-102.5909856585573
 20
-17.55623096260968
 30
0.0
 10
-103.2929262637366
 20
-15.61221492746752
 30
0.0
 10
-103.2929262637366
 20
-15.61221492746752
 30
0.0
 10
-61.88186470971881
 20
-15.61221492746752
 30
0.0
 10
-61.88186470971881
 20
-15.61221492746752
 30
0.0
 10
-61.88186470971881
 20
-15.61221492746752
 30
0.0
 10
-61.88186470971881
 20
26.51332188539286
 30
0.0
 10
-61.88186470971881
 20
26.51332188539286
 30
0.0
 10
-61.88186470971881
 20
26.51332188539286
 30
0.0
 10
-121.3118629387747
 20
26.51332188539286
 30
0.0
 10
-121.3118629387747
 20
26.51332188539286
 30
0.0
 10
-121.3118629387747
 20
26.51332188539286
 30
0.0
 10
-121.3118629387747
 20
44.17751069097891
 30
0.0
 10
-121.3118629387747
 20
44.17751069097891
 30
0.0
 10
-121.3118629387747
 20
44.17751069097891
 30
0.0
 10
-47.79829416241327
 20
44.17751069097891
 30
0.0
 10
-47.79829416241327
 20
44.17751069097891
 30
0.0
  0
HATCH
  5
82
330
79
100
AcDbEntity
  8
Layer 1
 62
     7
440
 33554687
100
AcDbHatch
 10
0.0
 20
0.0
 30
0.0
210
0.0
220
0.0
230
1.0
  2
SOLID
 70
     1
 71
     1
 91
        5
 92
        1
 93
        1
 72
     4
 94
        3
 73
     0
 74
     0
 95
      125
 96
      121
 40
0.0
 40
0.0
 40
0.0
 40
0.0
 40
1.0
 40
1.0
 40
1.0
 40
2.0
 40
2.0
 40
2.0
 40
3.0
 40
3.0
 40
3.0
 40
4.0
 40
4.0
 40
4.0
 40
5.0
 40
5.0
 40
5.0
 40
6.0
 40
6.0
 40
6.0
 40
7.0
 40
7.0
 40
7.0
 40
8.0
 40
8.0
 40
8.0
 40
9.0
 40
9.0
 40
9.0
 40
10.0
 40
10.0
 40
10.0
 40
11.0
 40
11.0
 40
11.0
 40
12.0
 40
12.0
 40
12.0
 40
13.0
 40
13.0
 40
13.0
 40
14.0
 40
14.0
 40
14.0
 40
15.0
 40
15.0
 40
15.0
 40
16.0
 40
16.0
 40
16.0
 40
17.0
 40
17.0
 40
17.0
 40
18.0
 40
18.0
 40
18.0
 40
19.0
 40
19.0
 40
19.0
 40
20.0
 40
20.0
 40
20.0
 40
21.0
 40
21.0
 40
21.0
 40
22.0
 40
22.0
 40
22.0
 40
23.0
 40
23.0
 40
23.0
 40
24.0
 40
24.0
 40
24.0
 40
25.0
 40
25.0
 40
25.0
 40
26.0
 40
26.0
 40
26.0
 40
27.0
 40
27.0
 40
27.0
 40
28.0
 40
28.0
 40
28.0
 40
29.0
 40
29.0
 40
29.0
 40
30.0
 40
30.0
 40
30.0
 40
31.0
 40
31.0
 40
31.0
 40
32.0
 40
32.0
 40
32.0
 40
33.0
 40
33.0
 40
33.0
 40
34.0
 40
34.0
 40
34.0
 40
35.0
 40
35.0
 40
35.0
 40
36.0
 40
36.0
 40
36.0
 40
37.0
 40
37.0
 40
37.0
 40
38.0
 40
38.0
 40
38.0
 40
39.0
 40
39.0
 40
39.0
 40
40.0
 40
40.0
 40
40.0
 40
40.0
 10
-107.0059310696212
 20
-16.36217642043635
 10
-106.9200200415389
 20
-16.59083368703733
 10
-106.8347386079371
 20
-16.81983436881981
 10
-106.7530057977447
 20
-17.05083830575365
 10
-106.6282888555804
 20
-17.40318226901542
 10
-106.5108981036848
 20
-17.75947550672625
 10
-106.3960257296958
 20
-18.11719964097118
 10
-106.3241947235407
 20
-18.34076291590661
 10
-106.2504176980929
 20
-18.56323870948045
 10
-106.182535966381
 20
-18.78891971129053
 10
-106.0639432613954
 20
-19.18298861757405
 10
-105.9554240680317
 20
-19.58215151553275
 10
-105.8489081298161
 20
-19.98234465899555
 10
-105.7972241469003
 20
-20.17643146526907
 10
-105.7409612950678
 20
-20.36817160122577
 10
-105.6921963410866
 20
-20.56363206817398
 10
-105.5430969219343
 20
-21.16128893374725
 10
-105.4051012599048
 20
-21.76444044201415
 10
-105.2834178184012
 20
-22.37503261226855
 10
-104.7340107840609
 20
-25.13254194662327
 10
-104.5055252250381
 20
-27.87826069350116
 10
-104.5552059527994
 20
-30.57887758153833
 10
-110.1592263860971
 20
-31.59012078215778
 10
-115.7497963919423
 20
-32.75052063779084
 10
-121.3118629387747
 20
-34.05257925058032
 10
-130.1836504115033
 20
-36.12938248435344
 10
-138.9815463870628
 20
-38.55114625526282
 10
-147.6262791973047
 20
-41.30201622967851
 10
-148.0345998330968
 20
-41.43257122971406
 10
-148.312308232994
 20
-41.51836778607115
 10
-148.4932307911275
 20
-41.57142542966297
 10
-148.6486261550463
 20
-41.63100796146151
 10
-148.8381340924037
 20
-41.70364026967926
 10
-149.0817299188583
 20
-41.79418740254029
 10
-150.0642979528727
 20
-42.1635304166652
 10
-151.0340451539152
 20
-42.58135220546265
 10
-152.0220505947714
 20
-42.93655796180355
 10
-154.1331381095724
 20
-43.6989396367066
 10
-156.278395433674
 20
-44.50298901876814
 10
-158.4757946275841
 20
-44.99624767299599
 10
-162.5749125550076
 20
-45.91499772146057
 10
-166.8341191869848
 20
-46.24828214285551
 10
-171.0314538527035
 20
-46.21857673074696
 10
-172.7994696137987
 20
-46.20644272811301
 10
-174.5629065059728
 20
-46.12596910687261
 10
-176.3240539636901
 20
-46.01264210114427
 10
-176.6849260703158
 20
-45.98940434138431
 10
-177.0454547617733
 20
-45.962446250629
 10
-177.4060979249555
 20
-45.93651840537652
 10
-177.4065558118488
 20
-45.93646116951581
 10
-177.4071281704603
 20
-45.93651840537652
 10
-177.4075860573542
 20
-45.93646116951581
 10
-177.5498744089911
 20
-45.6295052444021
 10
-177.6896443827246
 20
-45.32100395102967
 10
-177.8241486572009
 20
-45.00912574182863
 10
-177.920591083792
 20
-44.78567693861459
 10
-178.0138855380011
 20
-44.56033935197062
 10
-178.1062642184308
 20
-44.33442940671198
 10
-178.2432868708104
 20
-43.9991989660283
 10
-178.3755017108293
 20
-43.66110673227065
 10
-178.5034810970963
 20
-43.32055335646837
 10
-178.5424014829021
 20
-43.21695644719134
 10
-178.580005443894
 20
-43.11267270757567
 10
-178.6180672917792
 20
-43.00856067554401
 10
-177.8712537711955
 20
-42.93575665974288
 10
-177.1081280300938
 20
-42.85368043438115
 10
-176.3240539636901
 20
-42.75866890432609
 10
-162.3653148302696
 20
-41.06746366933784
 10
-143.1496335275656
 20
-36.04175438042903
 10
-141.8994306052759
 20
-34.13471271180532
 10
-140.2561890222037
 20
-31.62617937488198
 10
-141.0593798663419
 20
-27.22891984501591
 10
-152.5617847685179
 20
-30.15859465069883
 10
-159.3458369579295
 20
-31.88356904395901
 10
-169.298180259528
 20
-31.78151750294389
 10
-176.3240539636901
 20
-31.40782456334313
 10
-178.0786765331982
 20
-31.31447287327394
 10
-179.6452220618848
 20
-31.20452278336907
 10
-180.9396683050976
 20
-31.1015554685706
 10
-180.9567245918183
 20
-30.60131403923826
 10
-180.97212103856
 20
-30.10124431749057
 10
-180.9695454247908
 20
-29.60380744538243
 10
-180.9681717641174
 20
-29.33548572676725
 10
-180.9523746663482
 20
-29.06939620674621
 10
-180.9453346553862
 20
-28.80193302605048
 10
-179.4075215291622
 20
-29.02097466793438
 10
-177.8688498650135
 20
-29.20138210331587
 10
-176.3240539636901
 20
-29.32741547029091
 10
-173.5279104228433
 20
-29.55555761415396
 10
-170.7108185566984
 20
-29.61496843836207
 10
-167.8354605835657
 20
-29.42460196308968
 10
-160.1213828809763
 20
-28.91285612560388
 10
-152.7932465923405
 20
-26.87749165553812
 10
-145.6670384230073
 20
-23.93413747896318
 10
-134.0882808816175
 20
-19.15482857373064
 10
-122.0583902800453
 20
-11.91592299314249
 10
-109.2219319185139
 20
-11.51464236831041
 10
-109.1352195883728
 20
-11.67341464805521
 10
-109.0536584857644
 20
-11.83573555120686
 10
-108.969063882496
 20
-11.99605319921358
 10
-108.7868248995479
 20
-12.341414387376
 10
-108.6064174641657
 20
-12.68797752863038
 10
-108.4342519928356
 20
-13.0401497843152
 10
-108.3323149235406
 20
-13.24871726354076
 10
-108.2353573741936
 20
-13.46054718688251
 10
-108.1370261641732
 20
-13.67146133643322
 10
-107.9824321023164
 20
-14.0030286819771
 10
-107.8307570693981
 20
-14.3363703392321
 10
-107.6852635095166
 20
-14.67366127092845
 10
-107.5889927905101
 20
-14.89688113070161
 10
-107.4956983362972
 20
-15.12181806631302
 10
-107.4034913634554
 20
-15.3474418322669
 10
-107.3677189500302
 20
-15.43495546447184
 10
-107.3349800372656
 20
-15.52430064423577
 10
-107.2997799824557
 20
-15.61221492746752
 10
-107.2997799824557
 20
-15.61221492746752
 10
-107.2927399714937
 20
-15.61221492746752
 10
-107.2927399714937
 20
-15.61221492746752
 10
-107.1935502235494
 20
-15.86016067940058
 10
-107.1001412976144
 20
-16.11136887543187
 10
-107.0059310696212
 20
-16.36217642043635
 97
        0
 97
        1
330
7D
 92
        1
 93
        1
 72
     4
 94
        3
 73
     0
 74
     0
 95
      155
 96
      151
 40
0.0
 40
0.0
 40
0.0
 40
0.0
 40
1.0
 40
1.0
 40
1.0
 40
2.0
 40
2.0
 40
2.0
 40
3.0
 40
3.0
 40
3.0
 40
4.0
 40
4.0
 40
4.0
 40
5.0
 40
5.0
 40
5.0
 40
6.0
 40
6.0
 40
6.0
 40
7.0
 40
7.0
 40
7.0
 40
8.0
 40
8.0
 40
8.0
 40
9.0
 40
9.0
 40
9.0
 40
10.0
 40
10.0
 40
10.0
 40
11.0
 40
11.0
 40
11.0
 40
12.0
 40
12.0
 40
12.0
 40
13.0
 40
13.0
 40
13.0
 40
14.0
 40
14.0
 40
14.0
 40
15.0
 40
15.0
 40
15.0
 40
16.0
 40
16.0
 40
16.0
 40
17.0
 40
17.0
 40
17.0
 40
18.0
 40
18.0
 40
18.0
 40
19.0
 40
19.0
 40
19.0
 40
20.0
 40
20.0
 40
20.0
 40
21.0
 40
21.0
 40
21.0
 40
22.0
 40
22.0
 40
22.0
 40
23.0
 40
23.0
 40
23.0
 40
24.0
 40
24.0
 40
24.0
 40
25.0
 40
25.0
 40
25.0
 40
26.0
 40
26.0
 40
26.0
 40
27.0
 40
27.0
 40
27.0
 40
28.0
 40
28.0
 40
28.0
 40
29.0
 40
29.0
 40
29.0
 40
30.0
 40
30.0
 40
30.0
 40
31.0
 40
31.0
 40
31.0
 40
32.0
 40
32.0
 40
32.0
 40
33.0
 40
33.0
 40
33.0
 40
34.0
 40
34.0
 40
34.0
 40
35.0
 40
35.0
 40
35.0
 40
36.0
 40
36.0
 40
36.0
 40
37.0
 40
37.0
 40
37.0
 40
38.0
 40
38.0
 40
38.0
 40
39.0
 40
39.0
 40
39.0
 40
40.0
 40
40.0
 40
40.0
 40
41.0
 40
41.0
 40
41.0
 40
42.0
 40
42.0
 40
42.0
 40
43.0
 40
43.0
 40
43.0
 40
44.0
 40
44.0
 40
44.0
 40
45.0
 40
45.0
 40
45.0
 40
46.0
 40
46.0
 40
46.0
 40
47.0
 40
47.0
 40
47.0
 40
48.0
 40
48.0
 40
48.0
 40
49.0
 40
49.0
 40
49.0
 40
50.0
 40
50.0
 40
50.0
 40
50.0
 10
-116.0401539172267
 20
-51.06920151938968
 10
-114.181934438441
 20
-50.72601529395941
 10
-112.3127829101127
 20
-50.44836412992552
 10
-110.4386518618363
 20
-50.20505448277692
 10
-110.6182579951591
 20
-50.48997460122008
 10
-110.7924267216406
 20
-50.77838610721453
 10
-110.9794735169566
 20
-51.05849841329369
 10
-111.6582335982366
 20
-52.07500731316528
 10
-112.3854152183298
 20
-53.05917795130098
 10
-113.1586144710534
 20
-54.00723276084216
 10
-114.3183847322092
 20
-55.42925773929452
 10
-115.5815229591928
 20
-56.77006503030779
 10
-116.9396154803753
 20
-58.01677656504934
 10
-118.2977080015513
 20
-59.26354533565031
 10
-119.7506975810668
 20
-60.41621834998147
 10
-121.2901705472735
 20
-61.46226095437631
 10
-122.8295862776176
 20
-62.50830355877051
 10
-124.45548539466
 20
-63.44765851736832
 10
-126.1593397550355
 20
-64.26756223305787
 10
-127.863136879549
 20
-65.08746594874935
 10
-129.6449464832584
 20
-65.78797565739262
 10
-131.4961831869454
 20
-66.35632776188157
 10
-132.7303600680223
 20
-66.73522916487377
 10
-133.9953870784352
 20
-67.05540657398945
 10
-135.2888030761427
 20
-67.3131396582313
 10
-135.9269829316374
 20
-67.44031774243826
 10
-136.5645904285174
 20
-67.55015336061596
 10
-137.2012249157476
 20
-67.64419188102698
 10
-137.4236434734575
 20
-67.67710250137691
 10
-137.6452034932429
 20
-67.69747846806287
 10
-137.8673931075062
 20
-67.72632534224877
 10
-138.2813800935869
 20
-67.78012705203863
 10
-138.695596023111
 20
-67.83690502662709
 10
-139.1084382919618
 20
-67.87697012966231
 10
-139.366343083787
 20
-67.90198220112954
 10
-139.622988686657
 20
-67.91417343962418
 10
-139.8803783557334
 20
-67.93386257597216
 10
-140.256646909097
 20
-67.96270945015805
 10
-140.6334878210758
 20
-67.99556283464728
 10
-141.008497185488
 20
-68.01319147998258
 10
-141.2787649233919
 20
-68.0258406053705
 10
-141.5473155854537
 20
-68.0260695488165
 10
-141.8168964930209
 20
-68.03299508805451
 10
-142.1786271375679
 20
-68.04232453347646
 10
-142.5409873765954
 20
-68.05566048919979
 10
-142.9012871246057
 20
-68.05463024369314
 10
-143.0867313157985
 20
-68.05411512094173
 10
-143.2709163180386
 20
-68.04564421344244
 10
-143.4559026223413
 20
-68.04243900519913
 10
-143.8697179008341
 20
-68.03522728665313
 10
-144.2831897641621
 20
-68.02566889778585
 10
-144.6947156081982
 20
-68.00506398765261
 10
-144.9214268555162
 20
-67.99367405121926
 10
-145.1468216780235
 20
-67.97581646243734
 10
-145.3727316232796
 20
-67.96042001569874
 10
-145.7413305712071
 20
-67.93529347251011
 10
-146.1094716322413
 20
-67.90764855141617
 10
-146.4758956174341
 20
-67.87193337385295
 10
-146.7143974522149
 20
-67.84863837823039
 10
-146.9520407490755
 20
-67.82122240058116
 10
-147.1895695742148
 20
-67.79352024362523
 10
-147.5436878491877
 20
-67.75219595163736
 10
-147.8967186427926
 20
-67.70663620589951
 10
-148.2484902474429
 20
-67.65546734573701
 10
-148.4857901291349
 20
-67.62095412126703
 10
-148.7228038315247
 20
-67.58495276439456
 10
-148.9589589959867
 20
-67.54603237858866
 10
-149.3130200350969
 20
-67.48770903574343
 10
-149.6653067624993
 20
-67.42291804054961
 10
-150.0166777161222
 20
-67.35475012952588
 10
-150.2437896144709
 20
-67.31067851618668
 10
-150.4712449279882
 20
-67.26769438421678
 10
-150.6971548732514
 20
-67.21961626057361
 10
-151.0678715480516
 20
-67.1406880075932
 10
-151.4358981373606
 20
-67.05288819608412
 10
-151.8032378963329
 20
-66.96302789356109
 10
-152.0041930059889
 20
-66.91391952441255
 10
-152.2063500687336
 20
-66.86847425039802
 10
-152.406274932881
 20
-66.81610343714547
 10
-152.8540883130943
 20
-66.69882715697321
 10
-153.2980668905896
 20
-66.57050435553692
 10
-153.7403283922396
 20
-66.4373165058753
 10
-153.855429709672
 20
-66.40263157381939
 10
-153.9723625746743
 20
-66.37263998240479
 10
-154.0871204769413
 20
-66.33692480484157
 10
-154.6420793898449
 20
-66.1640725031741
 10
-155.1921160186593
 20
-65.97817042508933
 10
-155.7373448351135
 20
-65.78059223126262
 10
-155.8877034432178
 20
-65.7261609269961
 10
-156.0351430223874
 20
-65.66503302693499
 10
-156.1847003284336
 20
-65.60871293923982
 10
-156.5779679326558
 20
-65.46064376559357
 10
-156.9700335837918
 20
-65.30982727059601
 10
-157.3576348377261
 20
-65.14910897156186
 10
-157.5569873432582
 20
-65.06646038758545
 10
-157.7535352915808
 20
-64.97780203815501
 10
-157.951285192989
 20
-64.89183377421262
 10
-158.2861149826426
 20
-64.74628297847171
 10
-158.619971762651
 20
-64.59878616343949
 10
-158.9502799192466
 20
-64.44384868641465
 10
-159.1591908136479
 20
-64.34580365570093
 10
-159.3660984528947
 20
-64.24386658640592
 10
-159.573120563866
 20
-64.14215846055821
 10
-159.8887191040637
 20
-63.98710651181003
 10
-160.2024860966915
 20
-63.82873488309717
 10
-160.5135057679718
 20
-63.66521202685099
 10
-160.7206995865239
 20
-63.55623494659465
 10
-160.926977631296
 20
-63.44542631877033
 10
-161.1321109588386
 20
-63.33272890751864
 10
-161.440097129459
 20
-63.16348246512385
 10
-161.7452215070041
 20
-62.98914203105772
 10
-162.0483426293985
 20
-62.81159638874893
 10
-162.2467793611473
 20
-62.69540758994659
 10
-162.4455022722014
 20
-62.57956220631228
 10
-162.6418212770735
 20
-62.45982478409732
 10
-162.9548442035052
 20
-62.26888595020321
 10
-163.2634027327409
 20
-62.07084986948514
 10
-163.570759308884
 20
-61.87103947706107
 10
-163.7482477153314
 20
-61.75570921618138
 10
-163.9273959617609
 20
-61.64295456906579
 10
-164.1029955847816
 20
-61.52464804338943
 10
-164.456541501136
 20
-61.28643238791281
 10
-164.8039631803156
 20
-61.03917346632223
 10
-165.1494388402065
 20
-60.7892816951043
 10
-165.2719235837689
 20
-60.70068058153392
 10
-165.3973845921318
 20
-60.61625768585024
 10
-165.5188390901927
 20
-60.52622567574448
 10
-165.9823350964501
 20
-60.18258156342414
 10
-166.4383332048553
 20
-59.82880670361927
 10
-166.8861465850687
 20
-59.46438597358231
 10
-166.9856797481823
 20
-59.38333999372724
 10
-167.0813208727147
 20
-59.29737172978549
 10
-167.1801099696251
 20
-59.2153527402851
 10
-167.525642865378
 20
-58.92837213082733
 10
-167.8684284397744
 20
-58.63795736968219
 10
-168.2039450597686
 20
-58.33878552173234
 10
-168.3591687160995
 20
-58.20038920867478
 10
-168.5097562676504
 20
-58.05666996049926
 10
-168.662804961246
 20
-57.91569803367762
 10
-168.776704325589
 20
-57.81072746372396
 10
-168.8884287271966
 20
-57.70312404414296
 10
-169.0011261384496
 20
-57.59677981351461
 10
-165.2773037547476
 20
-57.2791207823049
 10
-161.5522794179567
 20
-56.97937657573717
 10
-157.8474021044052
 20
-56.47278196578469
 10
-150.9785836041407
 20
-55.53537302647751
 10
-144.1726100797851
 20
-53.59782464368203
 10
-137.4084759701662
 20
-52.0881715613059
 10
-130.8811838553499
 20
-50.63106099976697
 10
-122.6172412315295
 20
-52.28758130269866
 10
-116.0401539172267
 20
-51.06920151938968
 97
        0
 97
        1
330
7E
 92
        1
 93
        1
 72
     4
 94
        3
 73
     0
 74
     0
 95
      146
 96
      142
 40
0.0
 40
0.0
 40
0.0
 40
0.0
 40
1.0
 40
1.0
 40
1.0
 40
2.0
 40
2.0
 40
2.0
 40
3.0
 40
3.0
 40
3.0
 40
4.0
 40
4.0
 40
4.0
 40
5.0
 40
5.0
 40
5.0
 40
6.0
 40
6.0
 40
6.0
 40
7.0
 40
7.0
 40
7.0
 40
8.0
 40
8.0
 40
8.0
 40
9.0
 40
9.0
 40
9.0
 40
10.0
 40
10.0
 40
10.0
 40
11.0
 40
11.0
 40
11.0
 40
12.0
 40
12.0
 40
12.0
 40
13.0
 40
13.0
 40
13.0
 40
14.0
 40
14.0
 40
14.0
 40
15.0
 40
15.0
 40
15.0
 40
16.0
 40
16.0
 40
16.0
 40
17.0
 40
17.0
 40
17.0
 40
18.0
 40
18.0
 40
18.0
 40
19.0
 40
19.0
 40
19.0
 40
20.0
 40
20.0
 40
20.0
 40
21.0
 40
21.0
 40
21.0
 40
22.0
 40
22.0
 40
22.0
 40
23.0
 40
23.0
 40
23.0
 40
24.0
 40
24.0
 40
24.0
 40
25.0
 40
25.0
 40
25.0
 40
26.0
 40
26.0
 40
26.0
 40
27.0
 40
27.0
 40
27.0
 40
28.0
 40
28.0
 40
28.0
 40
29.0
 40
29.0
 40
29.0
 40
30.0
 40
30.0
 40
30.0
 40
31.0
 40
31.0
 40
31.0
 40
32.0
 40
32.0
 40
32.0
 40
33.0
 40
33.0
 40
33.0
 40
34.0
 40
34.0
 40
34.0
 40
35.0
 40
35.0
 40
35.0
 40
36.0
 40
36.0
 40
36.0
 40
37.0
 40
37.0
 40
37.0
 40
38.0
 40
38.0
 40
38.0
 40
39.0
 40
39.0
 40
39.0
 40
40.0
 40
40.0
 40
40.0
 40
41.0
 40
41.0
 40
41.0
 40
42.0
 40
42.0
 40
42.0
 40
43.0
 40
43.0
 40
43.0
 40
44.0
 40
44.0
 40
44.0
 40
45.0
 40
45.0
 40
45.0
 40
46.0
 40
46.0
 40
46.0
 40
47.0
 40
47.0
 40
47.0
 40
47.0
 10
-178.0007785257232
 20
-15.08215361430909
 10
-177.5260070547552
 20
-13.95128746319992
 10
-176.9976628174381
 20
-12.84526167597974
 10
-176.4183786634085
 20
-11.76785381949432
 10
-176.3882726002687
 20
-11.71181991110455
 10
-176.3545034419948
 20
-11.65796096545464
 10
-176.3240539636901
 20
-11.60204152878562
 10
-174.3084358658349
 20
-7.897393158676915
 10
-171.6916695148674
 20
-4.533011985066999
 10
-168.5698539222049
 20
-1.667326872529436
 10
-165.8536688798464
 20
0.8259817252271334
 10
-162.7577811324337
 20
2.943307948933243
 10
-159.3501296475408
 20
4.583058144456142
 10
-158.2142267406248
 20
5.129660621574809
 10
-157.0436961375143
 20
5.623148219251229
 10
-155.84099898025
 20
6.059800606475288
 10
-154.0369818622874
 20
6.714807805249747
 10
-152.1606758512718
 20
7.241950089470927
 10
-150.2205518547122
 20
7.628521097898553
 10
-149.5824292350801
 20
7.755641946244161
 10
-148.9448789740627
 20
7.865477564427643
 10
-148.3083017226913
 20
7.959516084838668
 10
-148.0859976367034
 20
7.992369469320839
 10
-147.8645520886426
 20
8.012802671877125
 10
-147.6424769461014
 20
8.041649546063664
 10
-147.228146544852
 20
8.095508491712941
 10
-146.8135299642972
 20
8.152286466301395
 10
-146.4002870444158
 20
8.192408805198597
 10
-146.1400928181338
 20
8.217649820102838
 10
-145.8813294883841
 20
8.229898294462673
 10
-145.6217076207135
 20
8.249759138396589
 10
-145.2483580962872
 20
8.278319833276437
 10
-144.8744934491024
 20
8.311115981903686
 10
-144.5024031136281
 20
8.328572919657528
 10
-144.2282433371404
 20
8.341450988483748
 10
-143.9557434006385
 20
8.341737167790441
 10
-143.6823276903533
 20
8.348662707033591
 10
-143.3238594899064
 20
8.357820444870231
 10
-142.9647044591261
 20
8.37104192886769
 10
-142.6076671552185
 20
8.370068919230067
 10
-142.4233676812525
 20
8.369553796472244
 10
-142.240384632105
 20
8.361140124833648
 10
-142.0564858091735
 20
8.357992152456173
 10
-141.6411251624162
 20
8.350780433906328
 10
-141.2261079308301
 20
8.341222045044167
 10
-140.8130939543954
 20
8.320502663189531
 10
-140.5887293774006
 20
8.309227198469885
 10
-140.3656239893539
 20
8.291541317274537
 10
-140.1420034785552
 20
8.276316578123168
 10
-139.7699131430777
 20
8.251075563207377
 10
-139.3983951662149
 20
8.223087226949258
 10
-139.0285370293354
 20
8.187028634216083
 10
-138.7940417048567
 20
8.16419152548935
 10
-138.5605766258821
 20
8.137176198870779
 10
-138.3270543110455
 20
8.109989164667549
 10
-137.9684716388773
 20
8.068206985788961
 10
-137.610919212217
 20
8.022074881435159
 10
-137.2547976820927
 20
7.97027642679279
 10
-137.0212181313974
 20
7.936335560941336
 10
-136.7880964675915
 20
7.900792090953791
 10
-136.5556616341261
 20
7.862558535491031
 10
-136.1966783109266
 20
7.803491126443897
 10
-135.839469299435
 20
7.737898829191967
 10
-135.483290533452
 20
7.668700672660944
 10
-135.261043683326
 20
7.625544833107019
 10
-135.0384534180321
 20
7.583533710779224
 10
-134.81735128514
 20
7.536428596784591
 10
-134.4394228917899
 20
7.456012211408095
 10
-134.0642990556563
 20
7.36666703163518
 10
-133.6899192857221
 20
7.274975181547381
 10
-133.4959469511687
 20
7.22746941651696
 10
-133.3008298993859
 20
7.183626746621196
 10
-133.1078878103379
 20
7.133144716799884
 10
-132.64444903994
 20
7.011861926328141
 10
-132.1848450722626
 20
6.879475378723977
 10
-131.7274160673213
 20
6.741193537389743
 10
-131.6278256683457
 20
6.71103023839498
 10
-131.52663266525
 20
6.685274100721367
 10
-131.4273284455837
 20
6.654366735527919
 10
-130.8684774940994
 20
6.480369716629824
 10
-130.3146060625669
 20
6.293151213725286
 10
-129.7656569151199
 20
6.09419935922836
 10
-129.6312671123657
 20
6.045491641108545
 10
-129.4995101592401
 20
5.990774157538548
 10
-129.3656927151044
 20
5.940578307013661
 10
-128.9557122393258
 20
5.786785547223289
 10
-128.5472771318122
 20
5.629329692296336
 10
-128.1434208932122
 20
5.461743089885493
 10
-127.9547142579167
 20
5.383444431381734
 10
-127.7688121798307
 20
5.299479422591335
 10
-127.5815364410719
 20
5.218204499285134
 10
-127.2354311867069
 20
5.068074834628134
 10
-126.8903561778499
 20
4.91554126378272
 10
-126.549173207571
 20
4.755395323370284
 10
-126.3486759848089
 20
4.661299567094711
 10
-126.1502392530602
 20
4.563426243962447
 10
-125.9515163420054
 20
4.465896336002706
 10
-125.6271607150005
 20
4.306780641094365
 10
-125.3046938714255
 20
4.144001851043026
 10
-124.9852032926504
 20
3.975842890018796
 10
-124.7847633057509
 20
3.870357197312452
 10
-124.585239092631
 20
3.763211664621512
 10
-124.3867451250235
 20
3.654291820230998
 10
-124.0709176413824
 20
3.480867159946289
 10
-123.7581808942568
 20
3.302119564544895
 10
-123.4474474022851
 20
3.119995053314896
 10
-123.2565085683922
 20
3.00804170826766
 10
-123.0651690834643
 20
2.896660721831886
 10
-122.8761762688634
 20
2.781444932674872
 10
-122.5535949535663
 20
2.584782512628284
 10
-122.2356497430493
 20
2.380908374040836
 10
-121.9190209573463
 20
2.174859272715461
 10
-121.7501751659815
 20
2.064909182809302
 10
-121.579555062912
 20
1.957763650120287
 10
-121.4124263473925
 20
1.845180710595117
 10
-121.044972116695
 20
1.597692845554051
 10
-120.6836993590387
 20
1.341104478540891
 10
-120.3249449792858
 20
1.081024723979658
 10
-120.2159106631694
 20
1.001981999277856
 10
-120.1040717898371
 20
0.9268885490174039
 10
-119.9958960116421
 20
0.8467011070907544
 10
-119.6537972675824
 20
0.5931462407343174
 10
-119.3203983744641
 20
0.3279724944979033
 10
-118.9867705379031
 20
0.0630849275778078
 10
-128.5829350735115
 20
-2.03146142325649
 10
-137.8341963078477
 20
-6.381501367400756
 10
-146.6327791137477
 20
-10.36700610978795
 10
-153.1279619102734
 20
-13.30990239946961
 10
-159.4623119360417
 20
-15.5310544758917
 10
-166.561905429789
 20
-16.48403156951891
 10
-169.7980210378252
 20
-16.91879517332072
 10
-173.0710537765166
 20
-16.88582731710753
 10
-176.3240539636901
 20
-16.57566618375115
 10
-177.0470573658966
 20
-16.50669697066933
 10
-177.7684581639798
 20
-16.42244578257288
 10
-178.4887714806982
 20
-16.32766319596253
 10
-178.4887714806982
 20
-16.32766319596253
 10
-178.488828716557
 20
-16.32766319596253
 10
-178.488828716557
 20
-16.32766319596253
 10
-178.3306287954294
 20
-15.91052823750243
 10
-178.1732874122219
 20
-15.49293539214969
 10
-178.0007785257232
 20
-15.08215361430909
 97
        0
 97
        1
330
7F
 92
        1
 93
        1
 72
     4
 94
        3
 73
     0
 74
     0
 95
       38
 96
       34
 40
0.0
 40
0.0
 40
0.0
 40
0.0
 40
1.0
 40
1.0
 40
1.0
 40
2.0
 40
2.0
 40
2.0
 40
3.0
 40
3.0
 40
3.0
 40
4.0
 40
4.0
 40
4.0
 40
5.0
 40
5.0
 40
5.0
 40
6.0
 40
6.0
 40
6.0
 40
7.0
 40
7.0
 40
7.0
 40
8.0
 40
8.0
 40
8.0
 40
9.0
 40
9.0
 40
9.0
 40
10.0
 40
10.0
 40
10.0
 40
11.0
 40
11.0
 40
11.0
 40
11.0
 10
-136.8963294816491
 20
55.66806776983216
 10
-136.8963294816491
 20
55.66806776983216
 10
-128.5005726688444
 20
51.52424863459984
 10
-128.5005726688444
 20
51.52424863459984
 10
-128.5005726688444
 20
51.52424863459984
 10
-136.8963294816491
 20
47.38105909383456
 10
-136.8963294816491
 20
47.38105909383456
 10
-136.8963294816491
 20
47.38105909383456
 10
-138.2425169436398
 20
38.1155461299892
 10
-138.2425169436398
 20
38.1155461299892
 10
-138.2425169436398
 20
38.1155461299892
 10
-144.7777648432021
 20
44.82049835884339
 10
-144.7777648432021
 20
44.82049835884339
 10
-144.7777648432021
 20
44.82049835884339
 10
-154.0057310819169
 20
43.23723995860225
 10
-154.0057310819169
 20
43.23723995860225
 10
-154.0057310819169
 20
43.23723995860225
 10
-149.648708362672
 20
51.52424863459984
 10
-149.648708362672
 20
51.52424863459984
 10
-149.648708362672
 20
51.52424863459984
 10
-154.0056738460581
 20
59.81182966920826
 10
-154.0056738460581
 20
59.81182966920826
 10
-154.0056738460581
 20
59.81182966920826
 10
-144.7778220790647
 20
58.22920086344505
 10
-144.7778220790647
 20
58.22920086344505
 10
-144.7778220790647
 20
58.22920086344505
 10
-144.7777648432021
 20
58.22925809930896
 10
-144.7777648432021
 20
58.22925809930896
 10
-144.7777648432021
 20
58.22925809930896
 10
-138.2425169436398
 20
64.93306561092097
 10
-138.2425169436398
 20
64.93306561092097
 10
-138.2425169436398
 20
64.93306561092097
 10
-136.8963294816491
 20
55.66806776983216
 10
-136.8963294816491
 20
55.66806776983216
 97
        0
 97
        1
330
80
 92
        1
 93
        1
 72
     4
 94
        3
 73
     0
 74
     0
 95
       53
 96
       49
 40
0.0
 40
0.0
 40
0.0
 40
0.0
 40
1.0
 40
1.0
 40
1.0
 40
2.0
 40
2.0
 40
2.0
 40
3.0
 40
3.0
 40
3.0
 40
4.0
 40
4.0
 40
4.0
 40
5.0
 40
5.0
 40
5.0
 40
6.0
 40
6.0
 40
6.0
 40
7.0
 40
7.0
 40
7.0
 40
8.0
 40
8.0
 40
8.0
 40
9.0
 40
9.0
 40
9.0
 40
10.0
 40
10.0
 40
10.0
 40
11.0
 40
11.0
 40
11.0
 40
12.0
 40
12.0
 40
12.0
 40
13.0
 40
13.0
 40
13.0
 40
14.0
 40
14.0
 40
14.0
 40
15.0
 40
15.0
 40
15.0
 40
16.0
 40
16.0
 40
16.0
 40
16.0
 10
-47.79829416241327
 20
44.17751069097891
 10
-47.79829416241327
 20
44.17751069097891
 10
-47.79829416241327
 20
87.73434469185676
 10
-47.79829416241327
 20
87.73434469185676
 10
-47.79829416241327
 20
87.73434469185676
 10
-176.3240539636901
 20
87.73434469185676
 10
-176.3240539636901
 20
87.73434469185676
 10
-176.3240539636901
 20
87.73434469185676
 10
-176.3240539636901
 20
-4.710443155656963
 10
-176.3240539636901
 20
-4.710443155656963
 10
-183.2122754209947
 20
-13.92055180559177
 10
-186.3237885585894
 20
-25.89967419802256
 10
-183.904886580752
 20
-38.03991554053677
 10
-182.6492462516243
 20
-44.34192730456401
 10
-179.9984245630743
 20
-50.08222632404134
 10
-176.3240539636901
 20
-54.97589248051723
 10
-176.3240539636901
 20
-54.97589248051723
 10
-176.3240539636901
 20
-81.12878913795233
 10
-176.3240539636901
 20
-81.12878913795233
 10
-176.3240539636901
 20
-81.12878913795233
 10
-47.79829416241327
 20
-81.12878913795233
 10
-47.79829416241327
 20
-81.12878913795233
 10
-47.79829416241327
 20
-81.12878913795233
 10
-47.79829416241327
 20
-36.25993748438963
 10
-47.79829416241327
 20
-36.25993748438963
 10
-47.79829416241327
 20
-36.25993748438963
 10
-101.2728437686893
 20
-36.25993748438963
 10
-101.2728437686893
 20
-36.25993748438963
 10
-100.5345011556068
 20
-31.46963929374029
 10
-100.6294554498025
 20
-26.5369955155991
 10
-101.6047545294082
 20
-21.64207017017248
 10
-102.0182263927331
 20
-19.56675506879609
 10
-102.5909856585573
 20
-17.55623096260968
 10
-103.2929262637366
 20
-15.61221492746752
 10
-103.2929262637366
 20
-15.61221492746752
 10
-61.88186470971881
 20
-15.61221492746752
 10
-61.88186470971881
 20
-15.61221492746752
 10
-61.88186470971881
 20
-15.61221492746752
 10
-61.88186470971881
 20
26.51332188539286
 10
-61.88186470971881
 20
26.51332188539286
 10
-61.88186470971881
 20
26.51332188539286
 10
-121.3118629387747
 20
26.51332188539286
 10
-121.3118629387747
 20
26.51332188539286
 10
-121.3118629387747
 20
26.51332188539286
 10
-121.3118629387747
 20
44.17751069097891
 10
-121.3118629387747
 20
44.17751069097891
 10
-121.3118629387747
 20
44.17751069097891
 10
-47.79829416241327
 20
44.17751069097891
 10
-47.79829416241327
 20
44.17751069097891
 97
        0
 97
        1
330
81
 75
     2
 76
     1
 98
        1
 10
0.0
 20
0.0
450
        0
451
        0
460
0.0
461
0.0
452
        0
462
0.0
453
        0
470

  0
SPLINE
  5
83
330
79
100
AcDbEntity
  8
Layer 1
100
AcDbSpline
210
0.0
220
0.0
230
1.0
 70
     9
 71
     3
 72
    23
 73
    19
 74
     0
 42
0.0000000001
 43
0.0000000001
 40
0.0
 40
0.0
 40
0.0
 40
0.0
 40
1.0
 40
1.0
 40
1.0
 40
2.0
 40
2.0
 40
2.0
 40
3.0
 40
3.0
 40
3.0
 40
4.0
 40
4.0
 40
4.0
 40
5.0
 40
5.0
 40
5.0
 40
6.0
 40
6.0
 40
6.0
 40
6.0
 10
-119.705195071189
 20
-17.57420302311942
 30
0.0
 10
-120.2695979012366
 20
-17.57614904240814
 30
0.0
 10
-120.7989151481957
 20
-17.63687629143666
 30
0.0
 10
-121.3118629387747
 20
-17.72152813056055
 30
0.0
 10
-126.5583309454057
 20
-18.58762118646974
 30
0.0
 10
-129.1257599837799
 20
-23.34374956780495
 30
0.0
 10
-129.1257599837799
 20
-23.34374956780495
 30
0.0
 10
-131.9836610191639
 20
-29.10385219535613
 30
0.0
 10
-126.5836864320403
 20
-29.85409986762973
 30
0.0
 10
-121.3118629387747
 20
-29.60775671982313
 30
0.0
 10
-119.7299209633495
 20
-29.53380798678753
 30
0.0
 10
-118.1594261602196
 20
-29.37120090432983
 30
0.0
 10
-116.8271470125683
 20
-29.22593628788918
 30
0.0
 10
-111.0554827409985
 20
-28.5993753122751
 30
0.0
 10
-110.7254035278494
 20
-24.11769288673434
 30
0.0
 10
-111.5097065376997
 20
-22.40857282710346
 30
0.0
 10
-112.2956693875326
 20
-20.69991065435623
 30
0.0
 10
-113.3672964220074
 20
-17.55314022609546
 30
0.0
 10
-119.705195071189
 20
-17.57420302311942
 30
0.0
  0
HATCH
  5
84
330
79
100
AcDbEntity
  8
Layer 1
 62
     7
440
 33554687
100
AcDbHatch
 10
0.0
 20
0.0
 30
0.0
210
0.0
220
0.0
230
1.0
  2
SOLID
 70
     1
 71
     1
 91
        1
 92
        1
 93
        1
 72
     4
 94
        3
 73
     0
 74
     0
 95
       23
 96
       19
 40
0.0
 40
0.0
 40
0.0
 40
0.0
 40
1.0
 40
1.0
 40
1.0
 40
2.0
 40
2.0
 40
2.0
 40
3.0
 40
3.0
 40
3.0
 40
4.0
 40
4.0
 40
4.0
 40
5.0
 40
5.0
 40
5.0
 40
6.0
 40
6.0
 40
6.0
 40
6.0
 10
-119.705195071189
 20
-17.57420302311942
 10
-120.2695979012366
 20
-17.57614904240814
 10
-120.7989151481957
 20
-17.63687629143666
 10
-121.3118629387747
 20
-17.72152813056055
 10
-126.5583309454057
 20
-18.58762118646974
 10
-129.1257599837799
 20
-23.34374956780495
 10
-129.1257599837799
 20
-23.34374956780495
 10
-131.9836610191639
 20
-29.10385219535613
 10
-126.5836864320403
 20
-29.85409986762973
 10
-121.3118629387747
 20
-29.60775671982313
 10
-119.7299209633495
 20
-29.53380798678753
 10
-118.1594261602196
 20
-29.37120090432983
 10
-116.8271470125683
 20
-29.22593628788918
 10
-111.0554827409985
 20
-28.5993753122751
 10
-110.7254035278494
 20
-24.11769288673434
 10
-111.5097065376997
 20
-22.40857282710346
 10
-112.2956693875326
 20
-20.69991065435623
 10
-113.3672964220074
 20
-17.55314022609546
 10
-119.705195071189
 20
-17.57420302311942
 97
        0
 97
        1
330
83
 75
     2
 76
     1
 98
        1
 10
0.0
 20
0.0
450
        0
451
        0
460
0.0
461
0.0
452
        0
462
0.0
453
        0
470

  0
ENDBLK
  5
7C
330
79
100
AcDbEntity
  8
0
100
AcDbBlockEnd
  0
ENDSEC
  0
SECTION
  2
ENTITIES
  0
INSERT
  5
7A
330
70
100
AcDbEntity
  8
Layer 1
100
AcDbBlockReference
  2
Block_0
 10
0.0
 20
0.0
 30
0.0
  0
ENDSEC
  0
SECTION
  2
OBJECTS
  0
DICTIONARY
  5
C
330
0
100
AcDbDictionary
281
     1
  3
ACAD_COLOR
350
63
  3
ACAD_DETAILVIEWSTYLE
350
6A
  3
ACAD_GROUP
350
D
  3
ACAD_LAYOUT
350
62
  3
ACAD_MATERIAL
350
10
  3
ACAD_MLEADERSTYLE
350
66
  3
ACAD_MLINESTYLE
350
5F
  3
ACAD_PLOTSETTINGS
350
61
  3
ACAD_PLOTSTYLENAME
350
E
  3
ACAD_SCALELIST
350
42
  3
ACAD_SECTIONVIEWSTYLE
350
68
  3
ACAD_TABLESTYLE
350
64
  3
ACAD_VISUALSTYLE
350
29
  3
ACDB_RECOMPOSE_DATA
350
8D
  3
AcDbVariableDictionary
350
85
  0
DICTIONARY
  5
63
102
{ACAD_REACTORS
330
C
102
}
330
C
100
AcDbDictionary
281
     1
  0
DICTIONARY
  5
6A
102
{ACAD_REACTORS
330
C
102
}
330
C
100
AcDbDictionary
281
     1
  3
Imperial24
350
6B
  0
DICTIONARY
  5
D
102
{ACAD_REACTORS
330
C
102
}
330
C
100
AcDbDictionary
281
     1
  0
DICTIONARY
  5
62
102
{ACAD_REACTORS
330
C
102
}
330
C
100
AcDbDictionary
281
     1
  3
Layout1
350
6F
  3
Layout2
350
77
  3
Model
350
73
  0
DICTIONARY
  5
10
102
{ACAD_REACTORS
330
C
102
}
330
C
100
AcDbDictionary
281
     1
  3
ByBlock
350
19
  3
ByLayer
350
11
  3
Global
350
21
  0
DICTIONARY
  5
66
102
{ACAD_REACTORS
330
C
102
}
330
C
100
AcDbDictionary
281
     1
  3
Standard
350
67
  0
DICTIONARY
  5
5F
102
{ACAD_REACTORS
330
C
102
}
330
C
100
AcDbDictionary
281
     1
  3
Standard
350
60
  0
DICTIONARY
  5
61
102
{ACAD_REACTORS
330
C
102
}
330
C
100
AcDbDictionary
281
     1
  0
ACDBDICTIONARYWDFLT
  5
E
102
{ACAD_REACTORS
330
C
102
}
330
C
100
AcDbDictionary
281
     1
  3
Normal
350
F
100
AcDbDictionaryWithDefault
340
F
  0
DICTIONARY
  5
42
102
{ACAD_REACTORS
330
C
102
}
330
C
100
AcDbDictionary
281
     1
  3
A0
350
43
  3
A1
350
44
  3
A2
350
45
  3
A3
350
46
  3
A4
350
47
  3
A5
350
48
  3
A6
350
49
  3
A7
350
4A
  3
A8
350
4B
  3
A9
350
4C
  3
B0
350
4D
  3
B1
350
4E
  3
B2
350
4F
  3
B3
350
50
  3
B4
350
51
  3
B5
350
52
  3
B6
350
53
  0
DICTIONARY
  5
68
102
{ACAD_REACTORS
330
C
102
}
330
C
100
AcDbDictionary
281
     1
  3
Imperial24
350
69
  0
DICTIONARY
  5
64
102
{ACAD_REACTORS
330
C
102
}
330
C
100
AcDbDictionary
281
     1
  3
Standard
350
65
  0
DICTIONARY
  5
29
102
{ACAD_REACTORS
330
C
102
}
330
C
100
AcDbDictionary
281
     1
  3
2dWireframe
350
2F
  3
Basic
350
2E
  3
Brighten
350
35
  3
ColorChange
350
39
  3
Conceptual
350
32
  3
Dim
350
34
  3
EdgeColorOff
350
41
  3
Facepattern
350
38
  3
Flat
350
2A
  3
FlatWithEdges
350
2B
  3
Gouraud
350
2C
  3
GouraudWithEdges
350
2D
  3
Hidden
350
31
  3
JitterOff
350
3F
  3
Linepattern
350
37
  3
OverhangOff
350
40
  3
Realistic
350
33
  3
Shaded
350
3E
  3
Shaded with edges
350
3D
  3
Shades of Gray
350
3A
  3
Sketchy
350
3B
  3
Thicken
350
36
  3
Wireframe
350
30
  3
X-Ray
350
3C
  0
XRECORD
  5
8D
102
{ACAD_REACTORS
330
C
102
}
330
C
100
AcDbXrecord
280
     1
 90
        1
330
65
  0
DICTIONARY
  5
85
102
{ACAD_REACTORS
330
C
102
}
330
C
100
AcDbDictionary
281
     1
  3
CANNOSCALE
350
8A
  3
CMLEADERSTYLE
350
87
  3
CTABLESTYLE
350
86
  3
CVIEWDETAILSTYLE
350
88
  3
CVIEWSECTIONSTYLE
350
89
  0
ACDBDETAILVIEWSTYLE
  5
6B
102
{ACAD_XDICTIONARY
360
90
102
}
102
{ACAD_REACTORS
330
6A
102
}
330
6A
100
AcDbModelDocViewStyle
 70
     0
  3
Imperial24
290
     0
100
AcDbDetailViewStyle
 70
     0
 71
     0
 90
        3
 71
     1
340
55
 62
   256
 40
0.24
340
0
 62
   256
 40
0.24
300

 40
0.36
280
     3
 71
     2
340
5D
 90
       25
 62
   256
 71
     3
340
55
 62
   256
 40
0.24
 90
        1
 40
0.75
 90
        1
300
%<\AcVar ViewType \f "%tc1">% %<\AcVar ViewDetailId>%\PSCALE %<\AcVar ViewScale \f "%sn">%
 71
     4
340
5D
 90
       25
 62
   256
340
5D
 90
       25
 62
   256
280
     0
  0
LAYOUT
  5
6F
102
{ACAD_REACTORS
330
62
102
}
330
62
100
AcDbPlotSettings
  1

  2

  4

  6

 40
0.0
 41
0.0
 42
0.0
 43
0.0
 44
0.0
 45
0.0
 46
0.0
 47
0.0
 48
0.0
 49
0.0
140
0.0
141
0.0
142
1.0
143
1.0
 70
   688
 72
     0
 73
     0
 74
     5
  7

 75
    16
147
1.0
 76
     0
 77
     2
 78
   300
148
0.0
149
0.0
100
AcDbLayout
  1
Layout1
 70
     1
 71
     1
 10
0.0
 20
0.0
 11
12.0
 21
9.0
 12
0.0
 22
0.0
 32
0.0
 14
0.0
 24
0.0
 34
0.0
 15
0.0
 25
0.0
 35
0.0
146
0.0
 13
0.0
 23
0.0
 33
0.0
 16
1.0
 26
0.0
 36
0.0
 17
0.0
 27
1.0
 37
0.0
 76
     0
330
6C
  0
LAYOUT
  5
77
102
{ACAD_REACTORS
330
62
102
}
330
62
100
AcDbPlotSettings
  1

  2

  4

  6

 40
0.0
 41
0.0
 42
0.0
 43
0.0
 44
0.0
 45
0.0
 46
0.0
 47
0.0
 48
0.0
 49
0.0
140
0.0
141
0.0
142
1.0
143
1.0
 70
   688
 72
     0
 73
     0
 74
     5
  7

 75
    16
147
1.0
 76
     0
 77
     2
 78
   300
148
0.0
149
0.0
100
AcDbLayout
  1
Layout2
 70
     1
 71
     2
 10
0.0
 20
0.0
 11
12.0
 21
9.0
 12
0.0
 22
0.0
 32
0.0
 14
0.0
 24
0.0
 34
0.0
 15
0.0
 25
0.0
 35
0.0
146
0.0
 13
0.0
 23
0.0
 33
0.0
 16
1.0
 26
0.0
 36
0.0
 17
0.0
 27
1.0
 37
0.0
 76
     0
330
74
  0
LAYOUT
  5
73
102
{ACAD_REACTORS
330
62
102
}
330
62
100
AcDbPlotSettings
  1

  2

  4

  6

 40
0.0
 41
0.0
 42
0.0
 43
0.0
 44
0.0
 45
0.0
 46
0.0
 47
0.0
 48
0.0
 49
0.0
140
0.0
141
0.0
142
1.0
143
1.0
 70
  1712
 72
     0
 73
     0
 74
     0
  7

 75
     0
147
1.0
 76
     0
 77
     2
 78
   300
148
0.0
149
0.0
100
AcDbLayout
  1
Model
 70
     1
 71
     0
 10
0.0
 20
0.0
 11
12.0
 21
9.0
 12
0.0
 22
0.0
 32
0.0
 14
0.0
 24
0.0
 34
0.0
 15
0.0
 25
0.0
 35
0.0
146
0.0
 13
0.0
 23
0.0
 33
0.0
 16
1.0
 26
0.0
 36
0.0
 17
0.0
 27
1.0
 37
0.0
 76
     0
330
70
  0
MATERIAL
  5
19
102
{ACAD_XDICTIONARY
360
1A
102
}
102
{ACAD_REACTORS
330
10
102
}
330
10
100
AcDbMaterial
  1
ByBlock
 72
     0
 43
0.0208333333333333
 43
0.0
 43
0.0
 43
0.0
 43
0.0
 43
0.0208333333333333
 43
0.0
 43
0.0
 43
0.0
 43
0.0
 43
1.0
 43
0.0
 43
0.0
 43
0.0
 43
0.0
 43
1.0
 77
     0
 47
0.0208333333333333
 47
0.0
 47
0.0
 47
0.0
 47
0.0
 47
0.0208333333333333
 47
0.0
 47
0.0
 47
0.0
 47
0.0
 47
1.0
 47
0.0
 47
0.0
 47
0.0
 47
0.0
 47
1.0
171
     0
 49
0.0208333333333333
 49
0.0
 49
0.0
 49
0.0
 49
0.0
 49
0.0208333333333333
 49
0.0
 49
0.0
 49
0.0
 49
0.0
 49
1.0
 49
0.0
 49
0.0
 49
0.0
 49
0.0
 49
1.0
175
     0
142
0.0208333333333333
142
0.0
142
0.0
142
0.0
142
0.0
142
0.0208333333333333
142
0.0
142
0.0
142
0.0
142
0.0
142
1.0
142
0.0
142
0.0
142
0.0
142
0.0
142
1.0
179
     0
144
0.0208333333333333
144
0.0
144
0.0
144
0.0
144
0.0
144
0.0208333333333333
144
0.0
144
0.0
144
0.0
144
0.0
144
1.0
144
0.0
144
0.0
144
0.0
144
0.0
144
1.0
147
0.0208333333333333
147
0.0
147
0.0
147
0.0
147
0.0
147
0.0208333333333333
147
0.0
147
0.0
147
0.0
147
0.0
147
1.0
147
0.0
147
0.0
147
0.0
147
0.0
147
1.0
  0
MATERIAL
  5
11
102
{ACAD_XDICTIONARY
360
12
102
}
102
{ACAD_REACTORS
330
10
102
}
330
10
100
AcDbMaterial
  1
ByLayer
 72
     0
 43
0.0208333333333333
 43
0.0
 43
0.0
 43
0.0
 43
0.0
 43
0.0208333333333333
 43
0.0
 43
0.0
 43
0.0
 43
0.0
 43
1.0
 43
0.0
 43
0.0
 43
0.0
 43
0.0
 43
1.0
 77
     0
 47
0.0208333333333333
 47
0.0
 47
0.0
 47
0.0
 47
0.0
 47
0.0208333333333333
 47
0.0
 47
0.0
 47
0.0
 47
0.0
 47
1.0
 47
0.0
 47
0.0
 47
0.0
 47
0.0
 47
1.0
171
     0
 49
0.0208333333333333
 49
0.0
 49
0.0
 49
0.0
 49
0.0
 49
0.0208333333333333
 49
0.0
 49
0.0
 49
0.0
 49
0.0
 49
1.0
 49
0.0
 49
0.0
 49
0.0
 49
0.0
 49
1.0
175
     0
142
0.0208333333333333
142
0.0
142
0.0
142
0.0
142
0.0
142
0.0208333333333333
142
0.0
142
0.0
142
0.0
142
0.0
142
1.0
142
0.0
142
0.0
142
0.0
142
0.0
142
1.0
179
     0
144
0.0208333333333333
144
0.0
144
0.0
144
0.0
144
0.0
144
0.0208333333333333
144
0.0
144
0.0
144
0.0
144
0.0
144
1.0
144
0.0
144
0.0
144
0.0
144
0.0
144
1.0
147
0.0208333333333333
147
0.0
147
0.0
147
0.0
147
0.0
147
0.0208333333333333
147
0.0
147
0.0
147
0.0
147
0.0
147
1.0
147
0.0
147
0.0
147
0.0
147
0.0
147
1.0
  0
MATERIAL
  5
21
102
{ACAD_XDICTIONARY
360
22
102
}
102
{ACAD_REACTORS
330
10
102
}
330
10
100
AcDbMaterial
  1
Global
 72
     0
 43
0.0208333333333333
 43
0.0
 43
0.0
 43
0.0
 43
0.0
 43
0.0208333333333333
 43
0.0
 43
0.0
 43
0.0
 43
0.0
 43
1.0
 43
0.0
 43
0.0
 43
0.0
 43
0.0
 43
1.0
 77
     0
 47
0.0208333333333333
 47
0.0
 47
0.0
 47
0.0
 47
0.0
 47
0.0208333333333333
 47
0.0
 47
0.0
 47
0.0
 47
0.0
 47
1.0
 47
0.0
 47
0.0
 47
0.0
 47
0.0
 47
1.0
171
     0
 49
0.0208333333333333
 49
0.0
 49
0.0
 49
0.0
 49
0.0
 49
0.0208333333333333
 49
0.0
 49
0.0
 49
0.0
 49
0.0
 49
1.0
 49
0.0
 49
0.0
 49
0.0
 49
0.0
 49
1.0
175
     0
142
0.0208333333333333
142
0.0
142
0.0
142
0.0
142
0.0
142
0.0208333333333333
142
0.0
142
0.0
142
0.0
142
0.0
142
1.0
142
0.0
142
0.0
142
0.0
142
0.0
142
1.0
179
     0
144
0.0208333333333333
144
0.0
144
0.0
144
0.0
144
0.0
144
0.0208333333333333
144
0.0
144
0.0
144
0.0
144
0.0
144
1.0
144
0.0
144
0.0
144
0.0
144
0.0
144
1.0
147
0.0208333333333333
147
0.0
147
0.0
147
0.0
147
0.0
147
0.0208333333333333
147
0.0
147
0.0
147
0.0
147
0.0
147
1.0
147
0.0
147
0.0
147
0.0
147
0.0
147
1.0
  0
MLEADERSTYLE
  5
67
102
{ACAD_REACTORS
330
66
102
}
330
66
100
AcDbMLeaderStyle
179
     2
170
     2
171
     1
172
     0
 90
        2
 40
0.0
 41
0.0
173
     1
 91
-1056964608
340
5B
 92
       -2
290
     1
 42
0.09
291
     1
 43
0.36
  3
Standard
 44
0.18
300

342
55
174
     1
178
     6
175
     1
176
     0
 93
-1056964608
 45
0.18
292
     0
297
     0
 46
0.18
 94
-1056964608
 47
1.0
 49
1.0
140
1.0
293
     1
141
0.0
294
     1
177
     0
142
1.0
295
     0
296
     0
143
0.125
271
     0
272
     9
273
     9
298
     1
  0
MLINESTYLE
  5
60
102
{ACAD_REACTORS
330
5F
102
}
330
5F
100
AcDbMlineStyle
  2
STANDARD
 70
     0
  3

 62
   256
 51
90.0
 52
90.0
 71
     2
 49
0.5
 62
   256
  6
BYLAYER
 49
-0.5
 62
   256
  6
BYLAYER
  0
ACDBPLACEHOLDER
  5
F
102
{ACAD_REACTORS
330
E
102
}
330
E
  0
SCALE
  5
43
102
{ACAD_REACTORS
330
42
102
}
330
42
100
AcDbScale
 70
     0
300
1:1
140
1.0
141
1.0
290
     1
  0
SCALE
  5
44
102
{ACAD_REACTORS
330
42
102
}
330
42
100
AcDbScale
 70
     0
300
1/128" = 1'-0"
140
0.0078125
141
12.0
290
     0
  0
SCALE
  5
45
102
{ACAD_REACTORS
330
42
102
}
330
42
100
AcDbScale
 70
     0
300
1/64" = 1'-0"
140
0.015625
141
12.0
290
     0
  0
SCALE
  5
46
102
{ACAD_REACTORS
330
42
102
}
330
42
100
AcDbScale
 70
     0
300
1/32" = 1'-0"
140
0.03125
141
12.0
290
     0
  0
SCALE
  5
47
102
{ACAD_REACTORS
330
42
102
}
330
42
100
AcDbScale
 70
     0
300
1/16" = 1'-0"
140
0.0625
141
12.0
290
     0
  0
SCALE
  5
48
102
{ACAD_REACTORS
330
42
102
}
330
42
100
AcDbScale
 70
     0
300
3/32" = 1'-0"
140
0.09375
141
12.0
290
     0
  0
SCALE
  5
49
102
{ACAD_REACTORS
330
42
102
}
330
42
100
AcDbScale
 70
     0
300
1/8" = 1'-0"
140
0.125
141
12.0
290
     0
  0
SCALE
  5
4A
102
{ACAD_REACTORS
330
42
102
}
330
42
100
AcDbScale
 70
     0
300
3/16" = 1'-0"
140
0.1875
141
12.0
290
     0
  0
SCALE
  5
4B
102
{ACAD_REACTORS
330
42
102
}
330
42
100
AcDbScale
 70
     0
300
1/4" = 1'-0"
140
0.25
141
12.0
290
     0
  0
SCALE
  5
4C
102
{ACAD_REACTORS
330
42
102
}
330
42
100
AcDbScale
 70
     0
300
3/8" = 1'-0"
140
0.375
141
12.0
290
     0
  0
SCALE
  5
4D
102
{ACAD_REACTORS
330
42
102
}
330
42
100
AcDbScale
 70
     0
300
1/2" = 1'-0"
140
0.5
141
12.0
290
     0
  0
SCALE
  5
4E
102
{ACAD_REACTORS
330
42
102
}
330
42
100
AcDbScale
 70
     0
300
3/4" = 1'-0"
140
0.75
141
12.0
290
     0
  0
SCALE
  5
4F
102
{ACAD_REACTORS
330
42
102
}
330
42
100
AcDbScale
 70
     0
300
1" = 1'-0"
140
1.0
141
12.0
290
     0
  0
SCALE
  5
50
102
{ACAD_REACTORS
330
42
102
}
330
42
100
AcDbScale
 70
     0
300
1-1/2" = 1'-0"
140
1.5
141
12.0
290
     0
  0
SCALE
  5
51
102
{ACAD_REACTORS
330
42
102
}
330
42
100
AcDbScale
 70
     0
300
3" = 1'-0"
140
3.0
141
12.0
290
     0
  0
SCALE
  5
52
102
{ACAD_REACTORS
330
42
102
}
330
42
100
AcDbScale
 70
     0
300
6" = 1'-0"
140
6.0
141
12.0
290
     0
  0
SCALE
  5
53
102
{ACAD_REACTORS
330
42
102
}
330
42
100
AcDbScale
 70
     0
300
1'-0" = 1'-0"
140
12.0
141
12.0
290
     0
  0
ACDBSECTIONVIEWSTYLE
  5
69
102
{ACAD_XDICTIONARY
360
8E
102
}
102
{ACAD_REACTORS
330
68
102
}
330
68
100
AcDbModelDocViewStyle
 70
     0
  3
Imperial24
290
     0
100
AcDbSectionViewStyle
 70
     0
 71
     0
 90
       78
 71
     1
340
55
 62
   256
 40
0.24
340
0
340
0
 62
   256
 40
0.24
300
I, O, Q, S, X, Z
 40
0.48
 90
        3
 40
0.18
 90
        1
 71
     2
340
5D
 90
       25
 62
   256
340
5D
 90
       50
 62
   256
 40
0.24
 40
0.0
 40
0.24
 71
     3
340
55
 62
   256
 40
0.24
 90
        1
 40
0.75
 90
        1
300
%<\AcVar ViewType \f "%tc1">% %<\AcVar ViewSectionStartId>%-%<\AcVar ViewSectionEndId>%\PSCALE %<\AcVar ViewScale \f "%sn">%
 71
     4
 62
   256
 62
   257
300
ANSI31
 40
1.0
 90
        0
290
     0
290
     0
 90
        6
 40
0.0
 40
1.570796326794896
 40
0.2617993877991494
 40
1.308996938995747
 40
-0.2617993877991494
 40
1.832595714594046
  0
TABLESTYLE
  5
65
102
{ACAD_XDICTIONARY
360
8B
102
}
102
{ACAD_REACTORS
330
64
102
}
330
64
100
AcDbTableStyle
280
     0
  3
Standard
 70
     0
 71
     0
 40
0.06
 41
0.06
280
     0
281
     0
  7
Standard
140
0.18
170
     2
 62
     0
 63
     7
283
     0
 90
      512
 91
        0
  1

274
    -2
284
     1
 64
     0
275
    -2
285
     1
 65
     0
276
    -2
286
     1
 66
     0
277
    -2
287
     1
 67
     0
278
    -2
288
     1
 68
     0
279
    -2
289
     1
 69
     0
  7
Standard
140
0.25
170
     5
 62
     0
 63
     7
283
     0
 90
      512
 91
        0
  1

274
    -2
284
     1
 64
     0
275
    -2
285
     1
 65
     0
276
    -2
286
     1
 66
     0
277
    -2
287
     1
 67
     0
278
    -2
288
     1
 68
     0
279
    -2
289
     1
 69
     0
  7
Standard
140
0.18
170
     5
 62
     0
 63
     7
283
     0
 90
      512
 91
        0
  1

274
    -2
284
     1
 64
     0
275
    -2
285
     1
 65
     0
276
    -2
286
     1
 66
     0
277
    -2
287
     1
 67
     0
278
    -2
288
     1
 68
     0
279
    -2
289
     1
 69
     0
  0
VISUALSTYLE
  5
2F
102
{ACAD_REACTORS
330
29
102
}
330
29
100
AcDbVisualStyle
  2
2dWireframe
 70
     4
177
     3
291
     0
 70
    58
 90
        0
176
     1
 90
        2
176
     1
 90
        0
176
     1
 90
        0
176
     1
 40
0.6
176
     1
 40
30.0
176
     1
 62
     7
420
 16777215
176
     1
 90
        1
176
     1
 90
        4
176
     1
 62
     7
176
     1
 62
   257
176
     1
 90
        1
176
     1
 90
        1
176
     1
 40
1.0
176
     1
 90
        0
176
     1
 62
   257
176
     1
 40
1.0
176
     1
 90
        1
176
     1
 90
        6
176
     1
 90
        2
176
     1
 62
     7
176
     1
 90
        5
176
     1
 90
        0
176
     1
 90
        0
176
     1
290
     0
176
     1
 90
        1
176
     1
 40
0.0
176
     1
 90
        0
176
     1
290
     1
176
     1
290
     1
176
     1
290
     0
176
     1
290
     0
176
     1
290
     0
176
     1
290
     0
176
     1
290
     0
176
     1
290
     0
176
     1
290
     0
176
     1
 90
       50
176
     1
 40
0.0
176
     1
 40
1.0
176
     1
 90
        0
176
     1
 62
    18
420
        0
176
     1
 90
       50
176
     1
 90
        3
176
     1
 62
     5
420
      255
176
     1
290
     0
176
     1
 90
       50
176
     1
 90
       50
176
     1
 90
       50
176
     1
290
     0
176
     1
 90
       50
176
     1
 62
   256
176
     0
 40
1.0
176
     0
 90
        2
176
     1
  1
strokes_ogs.tif
176
     1
290
     0
176
     1
 40
1.0
176
     1
 40
1.0
176
     1
1001
ACAD
1000
AcDbSavedByObjectVersion
1070
     0
  0
VISUALSTYLE
  5
2E
102
{ACAD_REACTORS
330
29
102
}
330
29
100
AcDbVisualStyle
  2
Basic
 70
     7
177
     3
291
     1
 70
    58
 90
        1
176
     1
 90
        0
176
     1
 90
        1
176
     1
 90
        0
176
     1
 40
0.6
176
     1
 40
30.0
176
     1
 62
     7
420
 16777215
176
     1
 90
        0
176
     1
 90
        4
176
     1
 62
     7
176
     1
 62
   257
176
     1
 90
        1
176
     1
 90
        1
176
     1
 40
1.0
176
     1
 90
        8
176
     1
 62
     7
176
     1
 40
1.0
176
     1
 90
        1
176
     1
 90
        6
176
     1
 90
        2
176
     1
 62
     7
176
     1
 90
        5
176
     1
 90
        0
176
     1
 90
        0
176
     1
290
     0
176
     1
 90
        1
176
     1
 40
0.0
176
     1
 90
        0
176
     1
290
     0
176
     1
290
     1
176
     1
290
     1
176
     1
290
     0
176
     1
290
     0
176
     1
290
     0
176
     1
290
     0
176
     1
290
     0
176
     1
290
     0
176
     1
 90
       50
176
     1
 40
0.0
176
     1
 40
1.0
176
     1
 90
        0
176
     1
 62
    18
420
        0
176
     1
 90
       50
176
     1
 90
        3
176
     1
 62
     5
420
      255
176
     1
290
     0
176
     1
 90
       50
176
     1
 90
       50
176
     1
 90
       50
176
     1
290
     0
176
     1
 90
       50
176
     1
 62
   256
176
     0
 40
1.0
176
     0
 90
        2
176
     1
  1
strokes_ogs.tif
176
     1
290
     0
176
     1
 40
1.0
176
     1
 40
1.0
176
     1
1001
ACAD
1000
AcDbSavedByObjectVersion
1070
     0
  0
VISUALSTYLE
  5
35
102
{ACAD_REACTORS
330
29
102
}
330
29
100
AcDbVisualStyle
  2
Brighten
 70
    12
177
     3
291
     1
 70
    58
 90
        2
176
     1
 90
        2
176
     1
 90
        0
176
     1
 90
        0
176
     1
 40
0.6
176
     1
 40
30.0
176
     1
 62
     7
420
 16777215
176
     1
 90
        1
176
     1
 90
        4
176
     1
 62
     7
176
     1
 62
   257
176
     1
 90
        1
176
     1
 90
        1
176
     1
 40
1.0
176
     1
 90
        8
176
     1
 62
     7
176
     1
 40
1.0
176
     1
 90
        1
176
     1
 90
        6
176
     1
 90
        2
176
     1
 62
     7
176
     1
 90
        5
176
     1
 90
        0
176
     1
 90
        0
176
     1
290
     0
176
     1
 90
        1
176
     1
 40
50.0
176
     1
 90
        0
176
     1
290
     0
176
     1
290
     1
176
     1
290
     1
176
     1
290
     0
176
     1
290
     0
176
     1
290
     0
176
     1
290
     0
176
     1
290
     0
176
     1
290
     0
176
     1
 90
       50
176
     1
 40
0.0
176
     1
 40
1.0
176
     1
 90
        0
176
     1
 62
    18
420
        0
176
     1
 90
       50
176
     1
 90
        3
176
     1
 62
     5
420
      255
176
     1
290
     0
176
     1
 90
       50
176
     1
 90
       50
176
     1
 90
       50
176
     1
290
     0
176
     1
 90
       50
176
     1
 62
   256
176
     0
 40
1.0
176
     0
 90
        2
176
     1
  1
strokes_ogs.tif
176
     1
290
     0
176
     1
 40
1.0
176
     1
 40
1.0
176
     1
1001
ACAD
1000
AcDbSavedByObjectVersion
1070
     0
  0
VISUALSTYLE
  5
39
102
{ACAD_REACTORS
330
29
102
}
330
29
100
AcDbVisualStyle
  2
ColorChange
 70
    16
177
     3
291
     1
 70
    58
 90
        2
176
     1
 90
        2
176
     1
 90
        3
176
     1
 90
        0
176
     1
 40
0.6
176
     1
 40
30.0
176
     1
 62
     8
420
  8421504
176
     1
 90
        1
176
     1
 90
        4
176
     1
 62
     7
176
     1
 62
   257
176
     1
 90
        1
176
     1
 90
        1
176
     1
 40
1.0
176
     1
 90
        8
176
     1
 62
     8
420
  8421504
176
     1
 40
1.0
176
     1
 90
        1
176
     1
 90
        6
176
     1
 90
        2
176
     1
 62
     7
176
     1
 90
        5
176
     1
 90
        0
176
     1
 90
        0
176
     1
290
     0
176
     1
 90
        1
176
     1
 40
0.0
176
     1
 90
        0
176
     1
290
     0
176
     1
290
     1
176
     1
290
     1
176
     1
290
     0
176
     1
290
     0
176
     1
290
     0
176
     1
290
     0
176
     1
290
     0
176
     1
290
     0
176
     1
 90
       50
176
     1
 40
0.0
176
     1
 40
1.0
176
     1
 90
        0
176
     1
 62
    18
420
        0
176
     1
 90
       50
176
     1
 90
        3
176
     1
 62
     5
420
      255
176
     1
290
     0
176
     1
 90
       50
176
     1
 90
       50
176
     1
 90
       50
176
     1
290
     0
176
     1
 90
       50
176
     1
 62
   256
176
     0
 40
1.0
176
     0
 90
        2
176
     1
  1
strokes_ogs.tif
176
     1
290
     0
176
     1
 40
1.0
176
     1
 40
1.0
176
     1
1001
ACAD
1000
AcDbSavedByObjectVersion
1070
     0
  0
VISUALSTYLE
  5
32
102
{ACAD_REACTORS
330
29
102
}
330
29
100
AcDbVisualStyle
  2
Conceptual
 70
     9
177
     3
291
     0
 70
    58
 90
        3
176
     1
 90
        2
176
     1
 90
        0
176
     1
 90
        0
176
     1
 40
0.6
176
     1
 40
30.0
176
     1
 62
     7
420
 16777215
176
     1
 90
        2
176
     1
 90
        2
176
     1
 62
     7
176
     1
 62
   257
176
     1
 90
        1
176
     1
 90
        1
176
     1
 40
179.0
176
     1
 90
        8
176
     1
 62
     7
176
     1
 40
1.0
176
     1
 90
        1
176
     1
 90
        6
176
     1
 90
        2
176
     1
 62
     7
176
     1
 90
        3
176
     1
 90
        0
176
     1
 90
        0
176
     1
290
     0
176
     1
 90
        1
176
     1
 40
0.0
176
     1
 90
        0
176
     1
290
     0
176
     1
290
     1
176
     1
290
     1
176
     1
290
     0
176
     1
290
     0
176
     1
290
     0
176
     1
290
     0
176
     1
290
     0
176
     1
290
     0
176
     1
 90
       50
176
     1
 40
0.0
176
     1
 40
1.0
176
     1
 90
        0
176
     1
 62
    18
420
        0
176
     1
 90
       50
176
     1
 90
        3
176
     1
 62
     5
420
      255
176
     1
290
     0
176
     1
 90
       50
176
     1
 90
       50
176
     1
 90
       50
176
     1
290
     0
176
     1
 90
       50
176
     1
 62
   256
176
     0
 40
1.0
176
     0
 90
        2
176
     1
  1
strokes_ogs.tif
176
     1
290
     0
176
     1
 40
1.0
176
     1
 40
1.0
176
     1
1001
ACAD
1000
AcDbSavedByObjectVersion
1070
     0
  0
VISUALSTYLE
  5
34
102
{ACAD_REACTORS
330
29
102
}
330
29
100
AcDbVisualStyle
  2
Dim
 70
    11
177
     3
291
     1
 70
    58
 90
        2
176
     1
 90
        2
176
     1
 90
        0
176
     1
 90
        0
176
     1
 40
0.6
176
     1
 40
30.0
176
     1
 62
     7
420
 16777215
176
     1
 90
        1
176
     1
 90
        4
176
     1
 62
     7
176
     1
 62
   257
176
     1
 90
        1
176
     1
 90
        1
176
     1
 40
1.0
176
     1
 90
        8
176
     1
 62
     7
176
     1
 40
1.0
176
     1
 90
        1
176
     1
 90
        6
176
     1
 90
        2
176
     1
 62
     7
176
     1
 90
        5
176
     1
 90
        0
176
     1
 90
        0
176
     1
290
     0
176
     1
 90
        1
176
     1
 40
-50.0
176
     1
 90
        0
176
     1
290
     0
176
     1
290
     1
176
     1
290
     1
176
     1
290
     0
176
     1
290
     0
176
     1
290
     0
176
     1
290
     0
176
     1
290
     0
176
     1
290
     0
176
     1
 90
       50
176
     1
 40
0.0
176
     1
 40
1.0
176
     1
 90
        0
176
     1
 62
    18
420
        0
176
     1
 90
       50
176
     1
 90
        3
176
     1
 62
     5
420
      255
176
     1
290
     0
176
     1
 90
       50
176
     1
 90
       50
176
     1
 90
       50
176
     1
290
     0
176
     1
 90
       50
176
     1
 62
   256
176
     0
 40
1.0
176
     0
 90
        2
176
     1
  1
strokes_ogs.tif
176
     1
290
     0
176
     1
 40
1.0
176
     1
 40
1.0
176
     1
1001
ACAD
1000
AcDbSavedByObjectVersion
1070
     0
  0
VISUALSTYLE
  5
41
102
{ACAD_REACTORS
330
29
102
}
330
29
100
AcDbVisualStyle
  2
EdgeColorOff
 70
    22
177
     3
291
     1
 70
    58
 90
        2
176
     0
 90
        2
176
     0
 90
        0
176
     0
 90
        0
176
     0
 40
0.6
176
     0
 40
30.0
176
     0
 62
     7
420
 16777215
176
     0
 90
        1
176
     0
 90
        4
176
     0
 62
     7
176
     0
 62
   257
176
     0
 90
        1
176
     0
 90
        1
176
     0
 40
1.0
176
     0
 90
        8
176
     2
 62
     7
176
     0
 40
1.0
176
     0
 90
        1
176
     0
 90
        6
176
     0
 90
        2
176
     0
 62
     7
176
     0
 90
        5
176
     0
 90
        0
176
     0
 90
        0
176
     0
290
     0
176
     0
 90
        1
176
     0
 40
0.0
176
     0
 90
        0
176
     0
290
     0
176
     0
290
     1
176
     0
290
     1
176
     0
290
     0
176
     0
290
     0
176
     0
290
     0
176
     0
290
     0
176
     0
290
     0
176
     0
290
     0
176
     0
 90
       50
176
     0
 40
0.0
176
     0
 40
1.0
176
     0
 90
        0
176
     0
 62
    18
420
        0
176
     0
 90
       50
176
     0
 90
        3
176
     0
 62
     5
420
      255
176
     0
290
     0
176
     0
 90
       50
176
     0
 90
       50
176
     0
 90
       50
176
     0
290
     0
176
     0
 90
       50
176
     0
 62
   256
176
     0
 40
1.0
176
     0
 90
        2
176
     0
  1
strokes_ogs.tif
176
     0
290
     0
176
     0
 40
1.0
176
     0
 40
1.0
176
     0
1001
ACAD
1000
AcDbSavedByObjectVersion
1070
     0
  0
VISUALSTYLE
  5
38
102
{ACAD_REACTORS
330
29
102
}
330
29
100
AcDbVisualStyle
  2
Facepattern
 70
    15
177
     3
291
     1
 70
    58
 90
        2
176
     1
 90
        2
176
     1
 90
        0
176
     1
 90
        0
176
     1
 40
0.6
176
     1
 40
30.0
176
     1
 62
     7
420
 16777215
176
     1
 90
        1
176
     1
 90
        4
176
     1
 62
     7
176
     1
 62
   257
176
     1
 90
        1
176
     1
 90
        1
176
     1
 40
1.0
176
     1
 90
        8
176
     1
 62
     7
176
     1
 40
1.0
176
     1
 90
        1
176
     1
 90
        6
176
     1
 90
        2
176
     1
 62
     7
176
     1
 90
        5
176
     1
 90
        0
176
     1
 90
        0
176
     1
290
     0
176
     1
 90
        1
176
     1
 40
0.0
176
     1
 90
        0
176
     1
290
     0
176
     1
290
     1
176
     1
290
     1
176
     1
290
     0
176
     1
290
     0
176
     1
290
     0
176
     1
290
     0
176
     1
290
     0
176
     1
290
     0
176
     1
 90
       50
176
     1
 40
0.0
176
     1
 40
1.0
176
     1
 90
        0
176
     1
 62
    18
420
        0
176
     1
 90
       50
176
     1
 90
        3
176
     1
 62
     5
420
      255
176
     1
290
     0
176
     1
 90
       50
176
     1
 90
       50
176
     1
 90
       50
176
     1
290
     0
176
     1
 90
       50
176
     1
 62
   256
176
     0
 40
1.0
176
     0
 90
        2
176
     1
  1
strokes_ogs.tif
176
     1
290
     0
176
     1
 40
1.0
176
     1
 40
1.0
176
     1
1001
ACAD
1000
AcDbSavedByObjectVersion
1070
     0
  0
VISUALSTYLE
  5
2A
102
{ACAD_REACTORS
330
29
102
}
330
29
100
AcDbVisualStyle
  2
Flat
 70
     0
177
     3
291
     1
 70
    58
 90
        2
176
     1
 90
        1
176
     1
 90
        1
176
     1
 90
        2
176
     1
 40
0.6
176
     1
 40
30.0
176
     1
 62
     7
420
 16777215
176
     1
 90
        0
176
     1
 90
        0
176
     1
 62
     7
176
     1
 62
   257
176
     1
 90
        1
176
     1
 90
        1
176
     1
 40
1.0
176
     1
 90
        8
176
     1
 62
     7
176
     1
 40
1.0
176
     1
 90
        1
176
     1
 90
        6
176
     1
 90
        2
176
     1
 62
     7
176
     1
 90
        5
176
     1
 90
        0
176
     1
 90
        0
176
     1
290
     0
176
     1
 90
       13
176
     1
 40
0.0
176
     1
 90
        0
176
     1
290
     0
176
     1
290
     1
176
     1
290
     1
176
     1
290
     0
176
     1
290
     0
176
     1
290
     0
176
     1
290
     0
176
     1
290
     0
176
     1
290
     0
176
     1
 90
       50
176
     1
 40
0.0
176
     1
 40
1.0
176
     1
 90
        0
176
     1
 62
    18
420
        0
176
     1
 90
       50
176
     1
 90
        3
176
     1
 62
     5
420
      255
176
     1
290
     0
176
     1
 90
       50
176
     1
 90
       50
176
     1
 90
       50
176
     1
290
     0
176
     1
 90
       50
176
     1
 62
   256
176
     0
 40
1.0
176
     0
 90
        2
176
     1
  1
strokes_ogs.tif
176
     1
290
     0
176
     1
 40
1.0
176
     1
 40
1.0
176
     1
1001
ACAD
1000
AcDbSavedByObjectVersion
1070
     0
  0
VISUALSTYLE
  5
2B
102
{ACAD_REACTORS
330
29
102
}
330
29
100
AcDbVisualStyle
  2
FlatWithEdges
 70
     1
177
     3
291
     1
 70
    58
 90
        2
176
     1
 90
        1
176
     1
 90
        1
176
     1
 90
        2
176
     1
 40
0.6
176
     1
 40
30.0
176
     1
 62
     7
420
 16777215
176
     1
 90
        1
176
     1
 90
        0
176
     1
 62
     7
176
     1
 62
   257
176
     1
 90
        1
176
     1
 90
        1
176
     1
 40
1.0
176
     1
 90
        0
176
     1
 62
   257
176
     1
 40
1.0
176
     1
 90
        1
176
     1
 90
        6
176
     1
 90
        2
176
     1
 62
     7
176
     1
 90
        5
176
     1
 90
        0
176
     1
 90
        0
176
     1
290
     0
176
     1
 90
       13
176
     1
 40
0.0
176
     1
 90
        0
176
     1
290
     0
176
     1
290
     1
176
     1
290
     1
176
     1
290
     0
176
     1
290
     0
176
     1
290
     0
176
     1
290
     0
176
     1
290
     0
176
     1
290
     0
176
     1
 90
       50
176
     1
 40
0.0
176
     1
 40
1.0
176
     1
 90
        0
176
     1
 62
    18
420
        0
176
     1
 90
       50
176
     1
 90
        3
176
     1
 62
     5
420
      255
176
     1
290
     0
176
     1
 90
       50
176
     1
 90
       50
176
     1
 90
       50
176
     1
290
     0
176
     1
 90
       50
176
     1
 62
   256
176
     0
 40
1.0
176
     0
 90
        2
176
     1
  1
strokes_ogs.tif
176
     1
290
     0
176
     1
 40
1.0
176
     1
 40
1.0
176
     1
1001
ACAD
1000
AcDbSavedByObjectVersion
1070
     0
  0
VISUALSTYLE
  5
2C
102
{ACAD_REACTORS
330
29
102
}
330
29
100
AcDbVisualStyle
  2
Gouraud
 70
     2
177
     3
291
     1
 70
    58
 90
        2
176
     1
 90
        2
176
     1
 90
        1
176
     1
 90
        2
176
     1
 40
0.6
176
     1
 40
30.0
176
     1
 62
     7
420
 16777215
176
     1
 90
        0
176
     1
 90
        0
176
     1
 62
     7
176
     1
 62
   257
176
     1
 90
        1
176
     1
 90
        1
176
     1
 40
1.0
176
     1
 90
        0
176
     1
 62
     7
176
     1
 40
1.0
176
     1
 90
        1
176
     1
 90
        6
176
     1
 90
        2
176
     1
 62
     7
176
     1
 90
        5
176
     1
 90
        0
176
     1
 90
        0
176
     1
290
     0
176
     1
 90
       13
176
     1
 40
0.0
176
     1
 90
        0
176
     1
290
     0
176
     1
290
     1
176
     1
290
     1
176
     1
290
     0
176
     1
290
     0
176
     1
290
     0
176
     1
290
     0
176
     1
290
     0
176
     1
290
     0
176
     1
 90
       50
176
     1
 40
0.0
176
     1
 40
1.0
176
     1
 90
        0
176
     1
 62
    18
420
        0
176
     1
 90
       50
176
     1
 90
        3
176
     1
 62
     5
420
      255
176
     1
290
     0
176
     1
 90
       50
176
     1
 90
       50
176
     1
 90
       50
176
     1
290
     0
176
     1
 90
       50
176
     1
 62
   256
176
     0
 40
1.0
176
     0
 90
        2
176
     1
  1
strokes_ogs.tif
176
     1
290
     0
176
     1
 40
1.0
176
     1
 40
1.0
176
     1
1001
ACAD
1000
AcDbSavedByObjectVersion
1070
     0
  0
VISUALSTYLE
  5
2D
102
{ACAD_REACTORS
330
29
102
}
330
29
100
AcDbVisualStyle
  2
GouraudWithEdges
 70
     3
177
     3
291
     1
 70
    58
 90
        2
176
     1
 90
        2
176
     1
 90
        1
176
     1
 90
        2
176
     1
 40
0.6
176
     1
 40
30.0
176
     1
 62
     7
420
 16777215
176
     1
 90
        1
176
     1
 90
        0
176
     1
 62
     7
176
     1
 62
   257
176
     1
 90
        1
176
     1
 90
        1
176
     1
 40
1.0
176
     1
 90
        0
176
     1
 62
   257
176
     1
 40
1.0
176
     1
 90
        1
176
     1
 90
        6
176
     1
 90
        2
176
     1
 62
     7
176
     1
 90
        5
176
     1
 90
        0
176
     1
 90
        0
176
     1
290
     0
176
     1
 90
       13
176
     1
 40
0.0
176
     1
 90
        0
176
     1
290
     0
176
     1
290
     1
176
     1
290
     1
176
     1
290
     0
176
     1
290
     0
176
     1
290
     0
176
     1
290
     0
176
     1
290
     0
176
     1
290
     0
176
     1
 90
       50
176
     1
 40
0.0
176
     1
 40
1.0
176
     1
 90
        0
176
     1
 62
    18
420
        0
176
     1
 90
       50
176
     1
 90
        3
176
     1
 62
     5
420
      255
176
     1
290
     0
176
     1
 90
       50
176
     1
 90
       50
176
     1
 90
       50
176
     1
290
     0
176
     1
 90
       50
176
     1
 62
   256
176
     0
 40
1.0
176
     0
 90
        2
176
     1
  1
strokes_ogs.tif
176
     1
290
     0
176
     1
 40
1.0
176
     1
 40
1.0
176
     1
1001
ACAD
1000
AcDbSavedByObjectVersion
1070
     0
  0
VISUALSTYLE
  5
31
102
{ACAD_REACTORS
330
29
102
}
330
29
100
AcDbVisualStyle
  2
Hidden
 70
     6
177
     3
291
     0
 70
    58
 90
        1
176
     1
 90
        2
176
     1
 90
        2
176
     1
 90
        0
176
     1
 40
0.6
176
     1
 40
30.0
176
     1
 62
     7
420
 16777215
176
     1
 90
        2
176
     1
 90
        2
176
     1
 62
     7
176
     1
 62
   257
176
     1
 90
        2
176
     1
 90
        1
176
     1
 40
40.0
176
     1
 90
        0
176
     1
 62
   257
176
     1
 40
1.0
176
     1
 90
        1
176
     1
 90
        6
176
     1
 90
        2
176
     1
 62
     7
176
     1
 90
        3
176
     1
 90
        0
176
     1
 90
        0
176
     1
290
     0
176
     1
 90
        1
176
     1
 40
0.0
176
     1
 90
        0
176
     1
290
     0
176
     1
290
     1
176
     1
290
     1
176
     1
290
     0
176
     1
290
     0
176
     1
290
     0
176
     1
290
     0
176
     1
290
     0
176
     1
290
     0
176
     1
 90
       50
176
     1
 40
0.0
176
     1
 40
1.0
176
     1
 90
        0
176
     1
 62
    18
420
        0
176
     1
 90
       50
176
     1
 90
        3
176
     1
 62
     5
420
      255
176
     1
290
     0
176
     1
 90
       50
176
     1
 90
       50
176
     1
 90
       50
176
     1
290
     0
176
     1
 90
       50
176
     1
 62
   256
176
     0
 40
1.0
176
     0
 90
        2
176
     1
  1
strokes_ogs.tif
176
     1
290
     0
176
     1
 40
1.0
176
     1
 40
1.0
176
     1
1001
ACAD
1000
AcDbSavedByObjectVersion
1070
     0
  0
VISUALSTYLE
  5
3F
102
{ACAD_REACTORS
330
29
102
}
330
29
100
AcDbVisualStyle
  2
JitterOff
 70
    20
177
     3
291
     1
 70
    58
 90
        2
176
     0
 90
        2
176
     0
 90
        0
176
     0
 90
        0
176
     0
 40
0.6
176
     0
 40
30.0
176
     0
 62
     7
420
 16777215
176
     0
 90
        1
176
     0
 90
        4
176
     0
 62
     7
176
     0
 62
   257
176
     0
 90
        1
176
     0
 90
        1
176
     0
 40
1.0
176
     0
 90
       10
176
     2
 62
     7
176
     0
 40
1.0
176
     0
 90
        1
176
     0
 90
        6
176
     0
 90
        2
176
     0
 62
     7
176
     0
 90
        5
176
     0
 90
        0
176
     0
 90
        0
176
     0
290
     0
176
     0
 90
        1
176
     0
 40
0.0
176
     0
 90
        0
176
     0
290
     0
176
     0
290
     1
176
     0
290
     1
176
     0
290
     0
176
     0
290
     0
176
     0
290
     0
176
     0
290
     0
176
     0
290
     0
176
     0
290
     0
176
     0
 90
       50
176
     0
 40
0.0
176
     0
 40
1.0
176
     0
 90
        0
176
     0
 62
    18
420
        0
176
     0
 90
       50
176
     0
 90
        3
176
     0
 62
     5
420
      255
176
     0
290
     0
176
     0
 90
       50
176
     0
 90
       50
176
     0
 90
       50
176
     0
290
     0
176
     0
 90
       50
176
     0
 62
   256
176
     0
 40
1.0
176
     0
 90
        2
176
     0
  1
strokes_ogs.tif
176
     0
290
     0
176
     0
 40
1.0
176
     0
 40
1.0
176
     0
1001
ACAD
1000
AcDbSavedByObjectVersion
1070
     0
  0
VISUALSTYLE
  5
37
102
{ACAD_REACTORS
330
29
102
}
330
29
100
AcDbVisualStyle
  2
Linepattern
 70
    14
177
     3
291
     1
 70
    58
 90
        2
176
     1
 90
        2
176
     1
 90
        0
176
     1
 90
        0
176
     1
 40
0.6
176
     1
 40
30.0
176
     1
 62
     7
420
 16777215
176
     1
 90
        1
176
     1
 90
        4
176
     1
 62
     7
176
     1
 62
   257
176
     1
 90
        7
176
     1
 90
        7
176
     1
 40
1.0
176
     1
 90
        8
176
     1
 62
     7
176
     1
 40
1.0
176
     1
 90
        1
176
     1
 90
        6
176
     1
 90
        2
176
     1
 62
     7
176
     1
 90
        5
176
     1
 90
        0
176
     1
 90
        0
176
     1
290
     0
176
     1
 90
        1
176
     1
 40
0.0
176
     1
 90
        0
176
     1
290
     0
176
     1
290
     1
176
     1
290
     1
176
     1
290
     0
176
     1
290
     0
176
     1
290
     0
176
     1
290
     0
176
     1
290
     0
176
     1
290
     0
176
     1
 90
       50
176
     1
 40
0.0
176
     1
 40
1.0
176
     1
 90
        0
176
     1
 62
    18
420
        0
176
     1
 90
       50
176
     1
 90
        3
176
     1
 62
     5
420
      255
176
     1
290
     0
176
     1
 90
       50
176
     1
 90
       50
176
     1
 90
       50
176
     1
290
     0
176
     1
 90
       50
176
     1
 62
   256
176
     0
 40
1.0
176
     0
 90
        2
176
     1
  1
strokes_ogs.tif
176
     1
290
     0
176
     1
 40
1.0
176
     1
 40
1.0
176
     1
1001
ACAD
1000
AcDbSavedByObjectVersion
1070
     0
  0
VISUALSTYLE
  5
40
102
{ACAD_REACTORS
330
29
102
}
330
29
100
AcDbVisualStyle
  2
OverhangOff
 70
    21
177
     3
291
     1
 70
    58
 90
        2
176
     0
 90
        2
176
     0
 90
        0
176
     0
 90
        0
176
     0
 40
0.6
176
     0
 40
30.0
176
     0
 62
     7
420
 16777215
176
     0
 90
        1
176
     0
 90
        4
176
     0
 62
     7
176
     0
 62
   257
176
     0
 90
        1
176
     0
 90
        1
176
     0
 40
1.0
176
     0
 90
        9
176
     2
 62
     7
176
     0
 40
1.0
176
     0
 90
        1
176
     0
 90
        6
176
     0
 90
        2
176
     0
 62
     7
176
     0
 90
        5
176
     0
 90
        0
176
     0
 90
        0
176
     0
290
     0
176
     0
 90
        1
176
     0
 40
0.0
176
     0
 90
        0
176
     0
290
     0
176
     0
290
     1
176
     0
290
     1
176
     0
290
     0
176
     0
290
     0
176
     0
290
     0
176
     0
290
     0
176
     0
290
     0
176
     0
290
     0
176
     0
 90
       50
176
     0
 40
0.0
176
     0
 40
1.0
176
     0
 90
        0
176
     0
 62
    18
420
        0
176
     0
 90
       50
176
     0
 90
        3
176
     0
 62
     5
420
      255
176
     0
290
     0
176
     0
 90
       50
176
     0
 90
       50
176
     0
 90
       50
176
     0
290
     0
176
     0
 90
       50
176
     0
 62
   256
176
     0
 40
1.0
176
     0
 90
        2
176
     0
  1
strokes_ogs.tif
176
     0
290
     0
176
     0
 40
1.0
176
     0
 40
1.0
176
     0
1001
ACAD
1000
AcDbSavedByObjectVersion
1070
     0
  0
VISUALSTYLE
  5
33
102
{ACAD_REACTORS
330
29
102
}
330
29
100
AcDbVisualStyle
  2
Realistic
 70
     8
177
     3
291
     0
 70
    58
 90
        2
176
     1
 90
        3
176
     1
 90
        0
176
     1
 90
        2
176
     1
 40
0.6
176
     1
 40
30.0
176
     1
 62
     7
420
 16777215
176
     1
 90
        0
176
     1
 90
        0
176
     1
 62
     7
176
     1
 62
   257
176
     1
 90
        1
176
     1
 90
        1
176
     1
 40
1.0
176
     1
 90
        8
176
     1
 62
   257
176
     1
 40
1.0
176
     1
 90
        1
176
     1
 90
        6
176
     1
 90
        2
176
     1
 62
     7
176
     1
 90
        3
176
     1
 90
        0
176
     1
 90
        0
176
     1
290
     0
176
     1
 90
       13
176
     1
 40
0.0
176
     1
 90
        0
176
     1
290
     0
176
     1
290
     1
176
     1
290
     1
176
     1
290
     0
176
     1
290
     0
176
     1
290
     0
176
     1
290
     0
176
     1
290
     0
176
     1
290
     0
176
     1
 90
       50
176
     1
 40
0.0
176
     1
 40
1.0
176
     1
 90
        0
176
     1
 62
    18
420
        0
176
     1
 90
       50
176
     1
 90
        3
176
     1
 62
     5
420
      255
176
     1
290
     0
176
     1
 90
       50
176
     1
 90
       50
176
     1
 90
       50
176
     1
290
     0
176
     1
 90
       50
176
     1
 62
   256
176
     0
 40
1.0
176
     0
 90
        2
176
     1
  1
strokes_ogs.tif
176
     1
290
     0
176
     1
 40
1.0
176
     1
 40
1.0
176
     1
1001
ACAD
1000
AcDbSavedByObjectVersion
1070
     0
  0
VISUALSTYLE
  5
3E
102
{ACAD_REACTORS
330
29
102
}
330
29
100
AcDbVisualStyle
  2
Shaded
 70
    27
177
     3
291
     0
 70
    58
 90
        2
176
     1
 90
        2
176
     1
 90
        1
176
     1
 90
        2
176
     1
 40
0.6
176
     1
 40
30.0
176
     1
 62
     7
420
 16777215
176
     1
 90
        0
176
     1
 90
        4
176
     1
 62
     7
176
     1
 62
   257
176
     1
 90
        1
176
     1
 90
        1
176
     1
 40
1.0
176
     1
 90
        8
176
     1
 62
   257
176
     1
 40
1.0
176
     1
 90
        1
176
     1
 90
        6
176
     1
 90
        2
176
     1
 62
     8
420
  7895160
176
     1
 90
        3
176
     1
 90
        0
176
     1
 90
        0
176
     1
290
     0
176
     1
 90
        5
176
     1
 40
0.0
176
     1
 90
        0
176
     1
290
     0
176
     1
290
     1
176
     1
290
     1
176
     1
290
     0
176
     1
290
     0
176
     1
290
     0
176
     1
290
     0
176
     1
290
     0
176
     1
290
     0
176
     1
 90
       50
176
     1
 40
0.0
176
     1
 40
1.0
176
     1
 90
        0
176
     1
 62
    18
420
        0
176
     1
 90
       50
176
     1
 90
        3
176
     1
 62
     5
420
      255
176
     1
290
     0
176
     1
 90
       50
176
     1
 90
       50
176
     1
 90
       50
176
     1
290
     0
176
     1
 90
       50
176
     1
 62
   256
176
     0
 40
1.0
176
     0
 90
        2
176
     1
  1
strokes_ogs.tif
176
     1
290
     0
176
     1
 40
1.0
176
     1
 40
1.0
176
     1
1001
ACAD
1000
AcDbSavedByObjectVersion
1070
     0
  0
VISUALSTYLE
  5
3D
102
{ACAD_REACTORS
330
29
102
}
330
29
100
AcDbVisualStyle
  2
Shaded with edges
 70
    26
177
     3
291
     0
 70
    58
 90
        2
176
     1
 90
        2
176
     1
 90
        1
176
     1
 90
        2
176
     1
 40
0.6
176
     1
 40
30.0
176
     1
 62
     7
420
 16777215
176
     1
 90
        1
176
     1
 90
        2
176
     1
 62
     7
176
     1
 62
   257
176
     1
 90
        2
176
     1
 90
        1
176
     1
 40
1.0
176
     1
 90
        8
176
     1
 62
   257
176
     1
 40
1.0
176
     1
 90
        1
176
     1
 90
        6
176
     1
 90
        2
176
     1
 62
     7
176
     1
 90
        3
176
     1
 90
        0
176
     1
 90
        0
176
     1
290
     0
176
     1
 90
        5
176
     1
 40
0.0
176
     1
 90
        0
176
     1
290
     0
176
     1
290
     1
176
     1
290
     1
176
     1
290
     0
176
     1
290
     0
176
     1
290
     0
176
     1
290
     0
176
     1
290
     0
176
     1
290
     0
176
     1
 90
       50
176
     1
 40
0.0
176
     1
 40
1.0
176
     1
 90
        0
176
     1
 62
    18
420
        0
176
     1
 90
       50
176
     1
 90
        3
176
     1
 62
     5
420
      255
176
     1
290
     0
176
     1
 90
       50
176
     1
 90
       50
176
     1
 90
       50
176
     1
290
     0
176
     1
 90
       50
176
     1
 62
   256
176
     0
 40
1.0
176
     0
 90
        2
176
     1
  1
strokes_ogs.tif
176
     1
290
     0
176
     1
 40
1.0
176
     1
 40
1.0
176
     1
1001
ACAD
1000
AcDbSavedByObjectVersion
1070
     0
  0
VISUALSTYLE
  5
3A
102
{ACAD_REACTORS
330
29
102
}
330
29
100
AcDbVisualStyle
  2
Shades of Gray
 70
    23
177
     3
291
     0
 70
    58
 90
        2
176
     1
 90
        2
176
     1
 90
        3
176
     1
 90
        0
176
     1
 40
0.6
176
     1
 40
30.0
176
     1
 62
     7
420
 16777215
176
     1
 90
        2
176
     1
 90
        2
176
     1
 62
     7
176
     1
 62
     7
176
     1
 90
        1
176
     1
 90
        1
176
     1
 40
40.0
176
     1
 90
        8
176
     1
 62
     7
176
     1
 40
1.0
176
     1
 90
        1
176
     1
 90
        6
176
     1
 90
        2
176
     1
 62
     7
176
     1
 90
        3
176
     1
 90
        0
176
     1
 90
        0
176
     1
290
     0
176
     1
 90
        1
176
     1
 40
0.0
176
     1
 90
        0
176
     1
290
     0
176
     1
290
     1
176
     1
290
     1
176
     1
290
     0
176
     1
290
     0
176
     1
290
     0
176
     1
290
     0
176
     1
290
     0
176
     1
290
     0
176
     1
 90
       50
176
     1
 40
0.0
176
     1
 40
1.0
176
     1
 90
        0
176
     1
 62
    18
420
        0
176
     1
 90
       50
176
     1
 90
        3
176
     1
 62
     5
420
      255
176
     1
290
     0
176
     1
 90
       50
176
     1
 90
       50
176
     1
 90
       50
176
     1
290
     0
176
     1
 90
       50
176
     1
 62
   256
176
     0
 40
1.0
176
     0
 90
        2
176
     1
  1
strokes_ogs.tif
176
     1
290
     0
176
     1
 40
1.0
176
     1
 40
1.0
176
     1
1001
ACAD
1000
AcDbSavedByObjectVersion
1070
     0
  0
VISUALSTYLE
  5
3B
102
{ACAD_REACTORS
330
29
102
}
330
29
100
AcDbVisualStyle
  2
Sketchy
 70
    24
177
     3
291
     0
 70
    58
 90
        1
176
     1
 90
        2
176
     1
 90
        2
176
     1
 90
        0
176
     1
 40
0.6
176
     1
 40
30.0
176
     1
 62
     7
420
 16777215
176
     1
 90
        2
176
     1
 90
        2
176
     1
 62
     7
176
     1
 62
     7
176
     1
 90
        1
176
     1
 90
        1
176
     1
 40
40.0
176
     1
 90
       11
176
     1
 62
     7
176
     1
 40
1.0
176
     1
 90
        1
176
     1
 90
        6
176
     1
 90
        2
176
     1
 62
     7
176
     1
 90
        6
176
     1
 90
        0
176
     1
 90
        0
176
     1
290
     0
176
     1
 90
        1
176
     1
 40
0.0
176
     1
 90
        0
176
     1
290
     0
176
     1
290
     1
176
     1
290
     1
176
     1
290
     0
176
     1
290
     0
176
     1
290
     0
176
     1
290
     0
176
     1
290
     0
176
     1
290
     0
176
     1
 90
       50
176
     1
 40
0.0
176
     1
 40
1.0
176
     1
 90
        0
176
     1
 62
    18
420
        0
176
     1
 90
       50
176
     1
 90
        3
176
     1
 62
     5
420
      255
176
     1
290
     0
176
     1
 90
       50
176
     1
 90
       50
176
     1
 90
       50
176
     1
290
     0
176
     1
 90
       50
176
     1
 62
   256
176
     0
 40
1.0
176
     0
 90
        2
176
     1
  1
strokes_ogs.tif
176
     1
290
     0
176
     1
 40
1.0
176
     1
 40
1.0
176
     1
1001
ACAD
1000
AcDbSavedByObjectVersion
1070
     0
  0
VISUALSTYLE
  5
36
102
{ACAD_REACTORS
330
29
102
}
330
29
100
AcDbVisualStyle
  2
Thicken
 70
    13
177
     3
291
     1
 70
    58
 90
        2
176
     1
 90
        2
176
     1
 90
        0
176
     1
 90
        0
176
     1
 40
0.6
176
     1
 40
30.0
176
     1
 62
     7
420
 16777215
176
     1
 90
        1
176
     1
 90
        4
176
     1
 62
     7
176
     1
 62
   257
176
     1
 90
        1
176
     1
 90
        1
176
     1
 40
1.0
176
     1
 90
       12
176
     1
 62
     7
176
     1
 40
1.0
176
     1
 90
        1
176
     1
 90
        6
176
     1
 90
        2
176
     1
 62
     7
176
     1
 90
        5
176
     1
 90
        0
176
     1
 90
        0
176
     1
290
     0
176
     1
 90
        1
176
     1
 40
0.0
176
     1
 90
        0
176
     1
290
     0
176
     1
290
     1
176
     1
290
     1
176
     1
290
     0
176
     1
290
     0
176
     1
290
     0
176
     1
290
     0
176
     1
290
     0
176
     1
290
     0
176
     1
 90
       50
176
     1
 40
0.0
176
     1
 40
1.0
176
     1
 90
        0
176
     1
 62
    18
420
        0
176
     1
 90
       50
176
     1
 90
        3
176
     1
 62
     5
420
      255
176
     1
290
     0
176
     1
 90
       50
176
     1
 90
       50
176
     1
 90
       50
176
     1
290
     0
176
     1
 90
       50
176
     1
 62
   256
176
     0
 40
1.0
176
     0
 90
        2
176
     1
  1
strokes_ogs.tif
176
     1
290
     0
176
     1
 40
1.0
176
     1
 40
1.0
176
     1
1001
ACAD
1000
AcDbSavedByObjectVersion
1070
     0
  0
VISUALSTYLE
  5
30
102
{ACAD_REACTORS
330
29
102
}
330
29
100
AcDbVisualStyle
  2
Wireframe
 70
     5
177
     3
291
     0
 70
    58
 90
        0
176
     1
 90
        2
176
     1
 90
        0
176
     1
 90
        0
176
     1
 40
0.6
176
     1
 40
30.0
176
     1
 62
     7
420
 16777215
176
     1
 90
        1
176
     1
 90
        4
176
     1
 62
     7
176
     1
 62
   257
176
     1
 90
        1
176
     1
 90
        1
176
     1
 40
1.0
176
     1
 90
        0
176
     1
 62
   257
176
     1
 40
1.0
176
     1
 90
        1
176
     1
 90
        6
176
     1
 90
        2
176
     1
 62
     7
176
     1
 90
        3
176
     1
 90
        0
176
     1
 90
        0
176
     1
290
     0
176
     1
 90
        1
176
     1
 40
0.0
176
     1
 90
        0
176
     1
290
     0
176
     1
290
     1
176
     1
290
     1
176
     1
290
     0
176
     1
290
     0
176
     1
290
     0
176
     1
290
     0
176
     1
290
     0
176
     1
290
     0
176
     1
 90
       50
176
     1
 40
0.0
176
     1
 40
1.0
176
     1
 90
        0
176
     1
 62
    18
420
        0
176
     1
 90
       50
176
     1
 90
        3
176
     1
 62
     5
420
      255
176
     1
290
     0
176
     1
 90
       50
176
     1
 90
       50
176
     1
 90
       50
176
     1
290
     0
176
     1
 90
       50
176
     1
 62
   256
176
     0
 40
1.0
176
     0
 90
        2
176
     1
  1
strokes_ogs.tif
176
     1
290
     0
176
     1
 40
1.0
176
     1
 40
1.0
176
     1
1001
ACAD
1000
AcDbSavedByObjectVersion
1070
     0
  0
VISUALSTYLE
  5
3C
102
{ACAD_REACTORS
330
29
102
}
330
29
100
AcDbVisualStyle
  2
X-Ray
 70
    25
177
     3
291
     0
 70
    58
 90
        2
176
     1
 90
        2
176
     1
 90
        1
176
     1
 90
        1
176
     1
 40
0.5
176
     1
 40
30.0
176
     1
 62
     7
420
 16777215
176
     1
 90
        1
176
     1
 90
        0
176
     1
 62
     7
176
     1
 62
   257
176
     1
 90
        1
176
     1
 90
        1
176
     1
 40
1.0
176
     1
 90
        8
176
     1
 62
     7
176
     1
 40
1.0
176
     1
 90
        1
176
     1
 90
        6
176
     1
 90
        2
176
     1
 62
     7
176
     1
 90
        3
176
     1
 90
        0
176
     1
 90
        0
176
     1
290
     0
176
     1
 90
       13
176
     1
 40
0.0
176
     1
 90
        0
176
     1
290
     0
176
     1
290
     1
176
     1
290
     1
176
     1
290
     0
176
     1
290
     0
176
     1
290
     0
176
     1
290
     0
176
     1
290
     0
176
     1
290
     0
176
     1
 90
       50
176
     1
 40
0.0
176
     1
 40
1.0
176
     1
 90
        0
176
     1
 62
    18
420
        0
176
     1
 90
       50
176
     1
 90
        3
176
     1
 62
     5
420
      255
176
     1
290
     0
176
     1
 90
       50
176
     1
 90
       50
176
     1
 90
       50
176
     1
290
     0
176
     1
 90
       50
176
     1
 62
   256
176
     0
 40
1.0
176
     0
 90
        2
176
     1
  1
strokes_ogs.tif
176
     1
290
     0
176
     1
 40
1.0
176
     1
 40
1.0
176
     1
1001
ACAD
1000
AcDbSavedByObjectVersion
1070
     0
  0
DICTIONARYVAR
  5
8A
102
{ACAD_REACTORS
330
85
102
}
330
85
100
DictionaryVariables
280
     0
  1
1:1
  0
DICTIONARYVAR
  5
87
102
{ACAD_REACTORS
330
85
102
}
330
85
100
DictionaryVariables
280
     0
  1
STANDARD
  0
DICTIONARYVAR
  5
86
102
{ACAD_REACTORS
330
85
102
}
330
85
100
DictionaryVariables
280
     0
  1
STANDARD
  0
DICTIONARYVAR
  5
88
102
{ACAD_REACTORS
330
85
102
}
330
85
100
DictionaryVariables
280
     0
  1
Imperial24
  0
DICTIONARYVAR
  5
89
102
{ACAD_REACTORS
330
85
102
}
330
85
100
DictionaryVariables
280
     0
  1
Imperial24
  0
DICTIONARY
  5
90
330
6B
100
AcDbDictionary
280
     1
281
     1
  3
ACAD_XREC_ROUNDTRIP
360
91
  0
DICTIONARY
  5
1A
330
19
100
AcDbDictionary
280
     1
281
     1
  3
BUMPTILE
360
1C
  3
DIFFUSETILE
360
1B
  3
OPACITYTILE
360
1F
  3
REFLECTIONTILE
360
1E
  3
REFRACTIONTILE
360
20
  3
SPECULARTILE
360
1D
  0
DICTIONARY
  5
12
330
11
100
AcDbDictionary
280
     1
281
     1
  3
BUMPTILE
360
14
  3
DIFFUSETILE
360
13
  3
OPACITYTILE
360
17
  3
REFLECTIONTILE
360
16
  3
REFRACTIONTILE
360
18
  3
SPECULARTILE
360
15
  0
DICTIONARY
  5
22
330
21
100
AcDbDictionary
280
     1
281
     1
  3
BUMPTILE
360
24
  3
DIFFUSETILE
360
23
  3
OPACITYTILE
360
27
  3
REFLECTIONTILE
360
26
  3
REFRACTIONTILE
360
28
  3
SPECULARTILE
360
25
  0
DICTIONARY
  5
8E
330
69
100
AcDbDictionary
280
     1
281
     1
  3
ACAD_XREC_ROUNDTRIP
360
8F
  0
DICTIONARY
  5
8B
330
65
100
AcDbDictionary
280
     1
281
     1
  3
ACAD_ROUNDTRIP_2008_TABLESTYLE_CELLSTYLEMAP
360
8C
  0
XRECORD
  5
91
102
{ACAD_REACTORS
330
90
102
}
330
90
100
AcDbXrecord
280
     1
102
DISPLAYNAME
  1
Imperial24
102
FLAGS
 90
        0
  0
XRECORD
  5
1C
102
{ACAD_REACTORS
330
1A
102
}
330
1A
100
AcDbXrecord
280
     1
270
     1
271
     1
  0
XRECORD
  5
1B
102
{ACAD_REACTORS
330
1A
102
}
330
1A
100
AcDbXrecord
280
     1
270
     1
271
     1
  0
XRECORD
  5
1F
102
{ACAD_REACTORS
330
1A
102
}
330
1A
100
AcDbXrecord
280
     1
270
     1
271
     1
  0
XRECORD
  5
1E
102
{ACAD_REACTORS
330
1A
102
}
330
1A
100
AcDbXrecord
280
     1
270
     1
271
     1
  0
XRECORD
  5
20
102
{ACAD_REACTORS
330
1A
102
}
330
1A
100
AcDbXrecord
280
     1
270
     1
271
     1
  0
XRECORD
  5
1D
102
{ACAD_REACTORS
330
1A
102
}
330
1A
100
AcDbXrecord
280
     1
270
     1
271
     1
  0
XRECORD
  5
14
102
{ACAD_REACTORS
330
12
102
}
330
12
100
AcDbXrecord
280
     1
270
     1
271
     1
  0
XRECORD
  5
13
102
{ACAD_REACTORS
330
12
102
}
330
12
100
AcDbXrecord
280
     1
270
     1
271
     1
  0
XRECORD
  5
17
102
{ACAD_REACTORS
330
12
102
}
330
12
100
AcDbXrecord
280
     1
270
     1
271
     1
  0
XRECORD
  5
16
102
{ACAD_REACTORS
330
12
102
}
330
12
100
AcDbXrecord
280
     1
270
     1
271
     1
  0
XRECORD
  5
18
102
{ACAD_REACTORS
330
12
102
}
330
12
100
AcDbXrecord
280
     1
270
     1
271
     1
  0
XRECORD
  5
15
102
{ACAD_REACTORS
330
12
102
}
330
12
100
AcDbXrecord
280
     1
270
     1
271
     1
  0
XRECORD
  5
24
102
{ACAD_REACTORS
330
22
102
}
330
22
100
AcDbXrecord
280
     1
270
     1
271
     1
  0
XRECORD
  5
23
102
{ACAD_REACTORS
330
22
102
}
330
22
100
AcDbXrecord
280
     1
270
     1
271
     1
  0
XRECORD
  5
27
102
{ACAD_REACTORS
330
22
102
}
330
22
100
AcDbXrecord
280
     1
270
     1
271
     1
  0
XRECORD
  5
26
102
{ACAD_REACTORS
330
22
102
}
330
22
100
AcDbXrecord
280
     1
270
     1
271
     1
  0
XRECORD
  5
28
102
{ACAD_REACTORS
330
22
102
}
330
22
100
AcDbXrecord
280
     1
270
     1
271
     1
  0
XRECORD
  5
25
102
{ACAD_REACTORS
330
22
102
}
330
22
100
AcDbXrecord
280
     1
270
     1
271
     1
  0
XRECORD
  5
8F
102
{ACAD_REACTORS
330
8E
102
}
330
8E
100
AcDbXrecord
280
     1
102
DISPLAYNAME
  1
Imperial24
102
FLAGS
 90
        0
  0
CELLSTYLEMAP
  5
8C
102
{ACAD_REACTORS
330
8B
102
}
330
8B
100
AcDbCellStyleMap
 90
        3
300
CELLSTYLE
  1
TABLEFORMAT_BEGIN
 90
        5
170
     1
 91
        0
 92
    32768
 62
   257
 93
        1
300
CONTENTFORMAT
  1
CONTENTFORMAT_BEGIN
 90
        0
 91
        0
 92
      512
 93
        0
300

 40
0.0
140
1.0
 94
        5
 62
     0
340
55
144
0.25
309
CONTENTFORMAT_END
171
     0
 94
        0
309
TABLEFORMAT_END
  1
CELLSTYLE_BEGIN
 90
        1
 91
        1
300
_TITLE
309
CELLSTYLE_END
300
CELLSTYLE
  1
TABLEFORMAT_BEGIN
 90
        5
170
     1
 91
        0
 92
        0
 62
   257
 93
        1
300
CONTENTFORMAT
  1
CONTENTFORMAT_BEGIN
 90
        0
 91
        0
 92
      512
 93
        0
300

 40
0.0
140
1.0
 94
        5
 62
     0
340
55
144
0.18
309
CONTENTFORMAT_END
171
     0
 94
        0
309
TABLEFORMAT_END
  1
CELLSTYLE_BEGIN
 90
        2
 91
        1
300
_HEADER
309
CELLSTYLE_END
300
CELLSTYLE
  1
TABLEFORMAT_BEGIN
 90
        5
170
     1
 91
        0
 92
        0
 62
   257
 93
        1
300
CONTENTFORMAT
  1
CONTENTFORMAT_BEGIN
 90
        0
 91
        0
 92
      512
 93
        0
300

 40
0.0
140
1.0
 94
        2
 62
     0
340
55
144
0.18
309
CONTENTFORMAT_END
171
     0
 94
        0
309
TABLEFORMAT_END
  1
CELLSTYLE_BEGIN
 90
        3
 91
        2
300
_DATA
309
CELLSTYLE_END
  0
ENDSEC
  0
EOF
