  0
SECTION
  2
HEADER
  9
$ACADVER
  1
AC1027
  9
$ACADMAINTVER
 70
   125
  9
$DWGCODEPAGE
  3
ANSI_1252
  9
$REQUIREDVERSIONS
160
                 0
  9
$INSBASE
 10
0.0
 20
0.0
 30
0.0
  9
$EXTMIN
 10
1.000000000000000E+20
 20
1.000000000000000E+20
 30
1.000000000000000E+20
  9
$EXTMAX
 10
-1.000000000000000E+20
 20
-1.000000000000000E+20
 30
-1.000000000000000E+20
  9
$LIMMIN
 10
0.0
 20
0.0
  9
$LIMMAX
 10
12.0
 20
9.0
  9
$ORTHOMODE
 70
     0
  9
$REGENMODE
 70
     1
  9
$FILLMODE
 70
     1
  9
$QTEXTMODE
 70
     0
  9
$MIRRTEXT
 70
     0
  9
$LTSCALE
 40
1.0
  9
$ATTMODE
 70
     1
  9
$TEXTSIZE
 40
0.2
  9
$TRACEWID
 40
0.05
  9
$TEXTSTYLE
  7
Standard
  9
$CLAYER
  8
0
  9
$CELTYPE
  6
ByLayer
  9
$CECOLOR
 62
   256
  9
$CELTSCALE
 40
1.0
  9
$DISPSILH
 70
     0
  9
$DIMSCALE
 40
1.0
  9
$DIMASZ
 40
0.18
  9
$DIMEXO
 40
0.0625
  9
$DIMDLI
 40
0.38
  9
$DIMRND
 40
0.0
  9
$DIMDLE
 40
0.0
  9
$DIMEXE
 40
0.18
  9
$DIMTP
 40
0.0
  9
$DIMTM
 40
0.0
  9
$DIMTXT
 40
0.18
  9
$DIMCEN
 40
0.09
  9
$DIMTSZ
 40
0.0
  9
$DIMTOL
 70
     0
  9
$DIMLIM
 70
     0
  9
$DIMTIH
 70
     1
  9
$DIMTOH
 70
     1
  9
$DIMSE1
 70
     0
  9
$DIMSE2
 70
     0
  9
$DIMTAD
 70
     0
  9
$DIMZIN
 70
     0
  9
$DIMBLK
  1

  9
$DIMASO
 70
     1
  9
$DIMSHO
 70
     1
  9
$DIMPOST
  1

  9
$DIMAPOST
  1

  9
$DIMALT
 70
     0
  9
$DIMALTD
 70
     2
  9
$DIMALTF
 40
25.4
  9
$DIMLFAC
 40
1.0
  9
$DIMTOFL
 70
     0
  9
$DIMTVP
 40
0.0
  9
$DIMTIX
 70
     0
  9
$DIMSOXD
 70
     0
  9
$DIMSAH
 70
     0
  9
$DIMBLK1
  1

  9
$DIMBLK2
  1

  9
$DIMSTYLE
  2
Standard
  9
$DIMCLRD
 70
     0
  9
$DIMCLRE
 70
     0
  9
$DIMCLRT
 70
     0
  9
$DIMTFAC
 40
1.0
  9
$DIMGAP
 40
0.09
  9
$DIMJUST
 70
     0
  9
$DIMSD1
 70
     0
  9
$DIMSD2
 70
     0
  9
$DIMTOLJ
 70
     1
  9
$DIMTZIN
 70
     0
  9
$DIMALTZ
 70
     0
  9
$DIMALTTZ
 70
     0
  9
$DIMUPT
 70
     0
  9
$DIMDEC
 70
     4
  9
$DIMTDEC
 70
     4
  9
$DIMALTU
 70
     2
  9
$DIMALTTD
 70
     2
  9
$DIMTXSTY
  7
Standard
  9
$DIMAUNIT
 70
     0
  9
$DIMADEC
 70
     0
  9
$DIMALTRND
 40
0.0
  9
$DIMAZIN
 70
     0
  9
$DIMDSEP
 70
    46
  9
$DIMATFIT
 70
     3
  9
$DIMFRAC
 70
     0
  9
$DIMLDRBLK
  1

  9
$DIMLUNIT
 70
     2
  9
$DIMLWD
 70
    -2
  9
$DIMLWE
 70
    -2
  9
$DIMTMOVE
 70
     0
  9
$DIMFXL
 40
1.0
  9
$DIMFXLON
 70
     0
  9
$DIMJOGANG
 40
0.7853981633974483
  9
$DIMTFILL
 70
     0
  9
$DIMTFILLCLR
 70
     0
  9
$DIMARCSYM
 70
     0
  9
$DIMLTYPE
  6

  9
$DIMLTEX1
  6

  9
$DIMLTEX2
  6

  9
$DIMTXTDIRECTION
 70
     0
  9
$LUNITS
 70
     2
  9
$LUPREC
 70
     4
  9
$SKETCHINC
 40
0.1
  9
$FILLETRAD
 40
0.0
  9
$AUNITS
 70
     0
  9
$AUPREC
 70
     0
  9
$MENU
  1
.
  9
$ELEVATION
 40
0.0
  9
$PELEVATION
 40
0.0
  9
$THICKNESS
 40
0.0
  9
$LIMCHECK
 70
     0
  9
$CHAMFERA
 40
0.0
  9
$CHAMFERB
 40
0.0
  9
$CHAMFERC
 40
0.0
  9
$CHAMFERD
 40
0.0
  9
$SKPOLY
 70
     0
  9
$TDCREATE
 40
2459734.951712963
  9
$TDUCREATE
 40
2459734.535046296
  9
$TDUPDATE
 40
2459734.951712963
  9
$TDUUPDATE
 40
2459734.535046296
  9
$TDINDWG
 40
0.0000000000
  9
$TDUSRTIMER
 40
0.0000000000
  9
$USRTIMER
 70
     1
  9
$ANGBASE
 50
0.0
  9
$ANGDIR
 70
     0
  9
$PDMODE
 70
     0
  9
$PDSIZE
 40
0.0
  9
$PLINEWID
 40
0.0
  9
$SPLFRAME
 70
     0
  9
$SPLINETYPE
 70
     6
  9
$SPLINESEGS
 70
     8
  9
$HANDSEED
  5
8C
  9
$SURFTAB1
 70
     6
  9
$SURFTAB2
 70
     6
  9
$SURFTYPE
 70
     6
  9
$SURFU
 70
     6
  9
$SURFV
 70
     6
  9
$UCSBASE
  2

  9
$UCSNAME
  2

  9
$UCSORG
 10
0.0
 20
0.0
 30
0.0
  9
$UCSXDIR
 10
1.0
 20
0.0
 30
0.0
  9
$UCSYDIR
 10
0.0
 20
1.0
 30
0.0
  9
$UCSORTHOREF
  2

  9
$UCSORTHOVIEW
 70
     0
  9
$UCSORGTOP
 10
0.0
 20
0.0
 30
0.0
  9
$UCSORGBOTTOM
 10
0.0
 20
0.0
 30
0.0
  9
$UCSORGLEFT
 10
0.0
 20
0.0
 30
0.0
  9
$UCSORGRIGHT
 10
0.0
 20
0.0
 30
0.0
  9
$UCSORGFRONT
 10
0.0
 20
0.0
 30
0.0
  9
$UCSORGBACK
 10
0.0
 20
0.0
 30
0.0
  9
$PUCSBASE
  2

  9
$PUCSNAME
  2

  9
$PUCSORG
 10
0.0
 20
0.0
 30
0.0
  9
$PUCSXDIR
 10
1.0
 20
0.0
 30
0.0
  9
$PUCSYDIR
 10
0.0
 20
1.0
 30
0.0
  9
$PUCSORTHOREF
  2

  9
$PUCSORTHOVIEW
 70
     0
  9
$PUCSORGTOP
 10
0.0
 20
0.0
 30
0.0
  9
$PUCSORGBOTTOM
 10
0.0
 20
0.0
 30
0.0
  9
$PUCSORGLEFT
 10
0.0
 20
0.0
 30
0.0
  9
$PUCSORGRIGHT
 10
0.0
 20
0.0
 30
0.0
  9
$PUCSORGFRONT
 10
0.0
 20
0.0
 30
0.0
  9
$PUCSORGBACK
 10
0.0
 20
0.0
 30
0.0
  9
$USERI1
 70
     0
  9
$USERI2
 70
     0
  9
$USERI3
 70
     0
  9
$USERI4
 70
     0
  9
$USERI5
 70
     0
  9
$USERR1
 40
0.0
  9
$USERR2
 40
0.0
  9
$USERR3
 40
0.0
  9
$USERR4
 40
0.0
  9
$USERR5
 40
0.0
  9
$WORLDVIEW
 70
     1
  9
$SHADEDGE
 70
     3
  9
$SHADEDIF
 70
    70
  9
$TILEMODE
 70
     1
  9
$MAXACTVP
 70
    64
  9
$PINSBASE
 10
0.0
 20
0.0
 30
0.0
  9
$PLIMCHECK
 70
     0
  9
$PEXTMIN
 10
1.000000000000000E+20
 20
1.000000000000000E+20
 30
1.000000000000000E+20
  9
$PEXTMAX
 10
-1.000000000000000E+20
 20
-1.000000000000000E+20
 30
-1.000000000000000E+20
  9
$PLIMMIN
 10
0.0
 20
0.0
  9
$PLIMMAX
 10
12.0
 20
9.0
  9
$UNITMODE
 70
     0
  9
$VISRETAIN
 70
     1
  9
$PLINEGEN
 70
     0
  9
$PSLTSCALE
 70
     1
  9
$TREEDEPTH
 70
  3020
  9
$CMLSTYLE
  2
Standard
  9
$CMLJUST
 70
     0
  9
$CMLSCALE
 40
1.0
  9
$PROXYGRAPHICS
 70
     1
  9
$MEASUREMENT
 70
     0
  9
$CELWEIGHT
370
    -1
  9
$ENDCAPS
280
     0
  9
$JOINSTYLE
280
     0
  9
$LWDISPLAY
290
     1
  9
$INSUNITS
 70
     4
  9
$HYPERLINKBASE
  1

  9
$STYLESHEET
  1

  9
$XEDIT
290
     1
  9
$CEPSNTYPE
380
     0
  9
$PSTYLEMODE
290
     1
  9
$FINGERPRINTGUID
  2
{1A7949DD-C0E7-5445-96AF-6A50419F2EF2}
  9
$VERSIONGUID
  2
{147EF4EE-29D8-0B45-A862-40BF98D769AB}
  9
$EXTNAMES
290
     1
  9
$PSVPSCALE
 40
0.0
  9
$OLESTARTUP
290
     0
  9
$SORTENTS
280
   127
  9
$INDEXCTL
280
     0
  9
$HIDETEXT
280
     1
  9
$XCLIPFRAME
280
     2
  9
$HALOGAP
280
     0
  9
$OBSCOLOR
 70
   257
  9
$OBSLTYPE
280
     0
  9
$INTERSECTIONDISPLAY
280
     0
  9
$INTERSECTIONCOLOR
 70
   257
  9
$DIMASSOC
280
     2
  9
$PROJECTNAME
  1

  9
$CAMERADISPLAY
290
     0
  9
$LENSLENGTH
 40
50.0
  9
$CAMERAHEIGHT
 40
0.0
  9
$STEPSPERSEC
 40
2.0
  9
$STEPSIZE
 40
6.0
  9
$3DDWFPREC
 40
2.0
  9
$PSOLWIDTH
 40
0.25
  9
$PSOLHEIGHT
 40
4.0
  9
$LOFTANG1
 40
1.570796326794896
  9
$LOFTANG2
 40
1.570796326794896
  9
$LOFTMAG1
 40
0.0
  9
$LOFTMAG2
 40
0.0
  9
$LOFTPARAM
 70
     7
  9
$LOFTNORMALS
280
     1
  9
$LATITUDE
 40
37.795
  9
$LONGITUDE
 40
-122.394
  9
$NORTHDIRECTION
 40
0.0
  9
$TIMEZONE
 70
 -8000
  9
$LIGHTGLYPHDISPLAY
280
     1
  9
$TILEMODELIGHTSYNCH
280
     1
  9
$CMATERIAL
347
11
  9
$SOLIDHIST
280
     0
  9
$SHOWHIST
280
     1
  9
$DWFFRAME
280
     2
  9
$DGNFRAME
280
     0
  9
$REALWORLDSCALE
290
     1
  9
$INTERFERECOLOR
 62
     1
  9
$INTERFEREOBJVS
345
33
  9
$INTERFEREVPVS
346
30
  9
$CSHADOW
280
     0
  9
$SHADOWPLANELOCATION
 40
0.0
  0
ENDSEC
  0
SECTION
  2
CLASSES
  0
CLASS
  1
ACDBDICTIONARYWDFLT
  2
AcDbDictionaryWithDefault
  3
ObjectDBX Classes
 90
        0
 91
        1
280
     0
281
     0
  0
CLASS
  1
MATERIAL
  2
AcDbMaterial
  3
ObjectDBX Classes
 90
     1153
 91
        3
280
     0
281
     0
  0
CLASS
  1
VISUALSTYLE
  2
AcDbVisualStyle
  3
ObjectDBX Classes
 90
     4095
 91
       24
280
     0
281
     0
  0
CLASS
  1
SCALE
  2
AcDbScale
  3
ObjectDBX Classes
 90
     1153
 91
       17
280
     0
281
     0
  0
CLASS
  1
TABLESTYLE
  2
AcDbTableStyle
  3
ObjectDBX Classes
 90
     4095
 91
        1
280
     0
281
     0
  0
CLASS
  1
MLEADERSTYLE
  2
AcDbMLeaderStyle
  3
ACDB_MLEADERSTYLE_CLASS
 90
     4095
 91
        1
280
     0
281
     0
  0
CLASS
  1
ACDBSECTIONVIEWSTYLE
  2
AcDbSectionViewStyle
  3
ObjectDBX Classes
 90
     1025
 91
        1
280
     0
281
     0
  0
CLASS
  1
ACDBDETAILVIEWSTYLE
  2
AcDbDetailViewStyle
  3
ObjectDBX Classes
 90
     1025
 91
        1
280
     0
281
     0
  0
CLASS
  1
DICTIONARYVAR
  2
AcDbDictionaryVar
  3
ObjectDBX Classes
 90
        0
 91
        5
280
     0
281
     0
  0
CLASS
  1
CELLSTYLEMAP
  2
AcDbCellStyleMap
  3
ObjectDBX Classes
 90
     1152
 91
        1
280
     0
281
     0
  0
ENDSEC
  0
SECTION
  2
TABLES
  0
TABLE
  2
VPORT
  5
8
330
0
100
AcDbSymbolTable
 70
     1
1001
ACAD
1000
DbSaveVer
1071
      247
  0
VPORT
  5
57
330
8
100
AcDbSymbolTableRecord
100
AcDbViewportTableRecord
  2
*Active
 70
     0
 10
0.0
 20
0.0
 11
1.0
 21
1.0
 12
0.0
 22
0.0
 13
0.0
 23
0.0
 14
1.0
 24
1.0
 15
0.0
 25
0.0
 16
0.0
 26
0.0
 36
1.0
 17
-111.9583333053439
 27
3.302777776952218
 37
0.0
 40
214.1999999464498
 41
0.9999999999999998
 42
50.0
 43
0.0
 44
0.0
 50
0.0
 51
0.0
 71
     0
 72
   100
 73
     1
 74
     1
 75
     0
 76
     0
 77
     0
 78
     0
281
     0
 65
     1
110
0.0
120
0.0
130
0.0
111
1.0
121
0.0
131
0.0
112
0.0
122
1.0
132
0.0
 79
     0
146
0.0
 60
     3
 61
     5
292
     1
282
     1
141
0.0
142
0.0
 63
   250
421
  3355443
  0
ENDTAB
  0
TABLE
  2
LTYPE
  5
5
330
0
100
AcDbSymbolTable
 70
     1
  0
LTYPE
  5
5B
330
5
100
AcDbSymbolTableRecord
100
AcDbLinetypeTableRecord
  2
ByBlock
 70
     0
  3

 72
    65
 73
     0
 40
0.0
  0
LTYPE
  5
5C
330
5
100
AcDbSymbolTableRecord
100
AcDbLinetypeTableRecord
  2
ByLayer
 70
     0
  3

 72
    65
 73
     0
 40
0.0
  0
LTYPE
  5
5D
330
5
100
AcDbSymbolTableRecord
100
AcDbLinetypeTableRecord
  2
Continuous
 70
     0
  3
Solid line
 72
    65
 73
     0
 40
0.0
  0
ENDTAB
  0
TABLE
  2
LAYER
  5
2
330
0
100
AcDbSymbolTable
 70
     2
  0
LAYER
  5
54
330
2
100
AcDbSymbolTableRecord
100
AcDbLayerTableRecord
  2
0
 70
     0
 62
     7
  6
Continuous
370
    -3
390
F
347
21
348
0
  0
LAYER
  5
78
330
2
100
AcDbSymbolTableRecord
100
AcDbLayerTableRecord
  2
Layer 1
 70
     0
 62
     7
  6
Continuous
370
     0
390
F
347
21
348
0
  0
ENDTAB
  0
TABLE
  2
STYLE
  5
3
330
0
100
AcDbSymbolTable
 70
     2
  0
STYLE
  5
55
330
3
100
AcDbSymbolTableRecord
100
AcDbTextStyleTableRecord
  2
Standard
 70
     0
 40
0.0
 41
1.0
 50
0.0
 71
     0
 42
0.2
  3
txt
  4

  0
STYLE
  5
5A
330
3
100
AcDbSymbolTableRecord
100
AcDbTextStyleTableRecord
  2
Annotative
 70
     0
 40
0.0
 41
1.0
 50
0.0
 71
     0
 42
0.2
  3
txt
  4

1001
AcadAnnotative
1000
AnnotativeData
1002
{
1070
     1
1070
     1
1002
}
  0
ENDTAB
  0
TABLE
  2
VIEW
  5
6
330
0
100
AcDbSymbolTable
 70
     0
  0
ENDTAB
  0
TABLE
  2
UCS
  5
7
330
0
100
AcDbSymbolTable
 70
     0
  0
ENDTAB
  0
TABLE
  2
APPID
  5
9
330
0
100
AcDbSymbolTable
 70
     2
  0
APPID
  5
56
330
9
100
AcDbSymbolTableRecord
100
AcDbRegAppTableRecord
  2
ACAD
 70
     0
  0
APPID
  5
5E
330
9
100
AcDbSymbolTableRecord
100
AcDbRegAppTableRecord
  2
AcadAnnotative
 70
     0
  0
ENDTAB
  0
TABLE
  2
DIMSTYLE
  5
A
330
0
100
AcDbSymbolTable
 70
     2
100
AcDbDimStyleTable
 71
     0
  0
DIMSTYLE
105
58
330
A
100
AcDbSymbolTableRecord
100
AcDbDimStyleTableRecord
  2
Standard
 70
     0
340
55
  0
DIMSTYLE
105
59
330
A
100
AcDbSymbolTableRecord
100
AcDbDimStyleTableRecord
  2
Annotative
 70
     0
340
55
1001
AcadAnnotative
1000
AnnotativeData
1002
{
1070
     1
1070
     1
1002
}
  0
ENDTAB
  0
TABLE
  2
BLOCK_RECORD
  5
1
330
0
100
AcDbSymbolTable
 70
     1
  0
BLOCK_RECORD
  5
70
330
1
100
AcDbSymbolTableRecord
100
AcDbBlockTableRecord
  2
*Model_Space
340
73
 70
     0
280
     1
281
     0
  0
BLOCK_RECORD
  5
6C
330
1
100
AcDbSymbolTableRecord
100
AcDbBlockTableRecord
  2
*Paper_Space
340
6F
 70
     0
280
     1
281
     0
  0
BLOCK_RECORD
  5
74
330
1
100
AcDbSymbolTableRecord
100
AcDbBlockTableRecord
  2
*Paper_Space0
340
77
 70
     0
280
     1
281
     0
  0
ENDTAB
  0
ENDSEC
  0
SECTION
  2
BLOCKS
  0
BLOCK
  5
71
330
70
100
AcDbEntity
  8
0
100
AcDbBlockBegin
  2
*Model_Space
 70
     0
 10
0.0
 20
0.0
 30
0.0
  3
*Model_Space
  1

  0
ENDBLK
  5
72
330
70
100
AcDbEntity
  8
0
100
AcDbBlockEnd
  0
BLOCK
  5
6D
330
6C
100
AcDbEntity
 67
     1
  8
0
100
AcDbBlockBegin
  2
*Paper_Space
 70
     0
 10
0.0
 20
0.0
 30
0.0
  3
*Paper_Space
  1

  0
ENDBLK
  5
6E
330
6C
100
AcDbEntity
 67
     1
  8
0
100
AcDbBlockEnd
  0
BLOCK
  5
75
330
74
100
AcDbEntity
 67
     1
  8
0
100
AcDbBlockBegin
  2
*Paper_Space0
 70
     0
 10
0.0
 20
0.0
 30
0.0
  3
*Paper_Space0
  1

  0
ENDBLK
  5
76
330
74
100
AcDbEntity
 67
     1
  8
0
100
AcDbBlockEnd
  0
ENDSEC
  0
SECTION
  2
ENTITIES
  0
SPLINE
  5
79
330
70
100
AcDbEntity
  8
Layer 1
100
AcDbSpline
210
0.0
220
0.0
230
1.0
 70
     9
 71
     3
 72
   701
 73
   697
 74
     0
 42
0.0000000001
 43
0.0000000001
 40
0.0
 40
0.0
 40
0.0
 40
0.0
 40
1.0
 40
1.0
 40
1.0
 40
2.0
 40
2.0
 40
2.0
 40
3.0
 40
3.0
 40
3.0
 40
4.0
 40
4.0
 40
4.0
 40
5.0
 40
5.0
 40
5.0
 40
6.0
 40
6.0
 40
6.0
 40
7.0
 40
7.0
 40
7.0
 40
8.0
 40
8.0
 40
8.0
 40
9.0
 40
9.0
 40
9.0
 40
10.0
 40
10.0
 40
10.0
 40
11.0
 40
11.0
 40
11.0
 40
12.0
 40
12.0
 40
12.0
 40
13.0
 40
13.0
 40
13.0
 40
14.0
 40
14.0
 40
14.0
 40
15.0
 40
15.0
 40
15.0
 40
16.0
 40
16.0
 40
16.0
 40
17.0
 40
17.0
 40
17.0
 40
18.0
 40
18.0
 40
18.0
 40
19.0
 40
19.0
 40
19.0
 40
20.0
 40
20.0
 40
20.0
 40
21.0
 40
21.0
 40
21.0
 40
22.0
 40
22.0
 40
22.0
 40
23.0
 40
23.0
 40
23.0
 40
24.0
 40
24.0
 40
24.0
 40
25.0
 40
25.0
 40
25.0
 40
26.0
 40
26.0
 40
26.0
 40
27.0
 40
27.0
 40
27.0
 40
28.0
 40
28.0
 40
28.0
 40
29.0
 40
29.0
 40
29.0
 40
30.0
 40
30.0
 40
30.0
 40
31.0
 40
31.0
 40
31.0
 40
32.0
 40
32.0
 40
32.0
 40
33.0
 40
33.0
 40
33.0
 40
34.0
 40
34.0
 40
34.0
 40
35.0
 40
35.0
 40
35.0
 40
36.0
 40
36.0
 40
36.0
 40
37.0
 40
37.0
 40
37.0
 40
38.0
 40
38.0
 40
38.0
 40
39.0
 40
39.0
 40
39.0
 40
40.0
 40
40.0
 40
40.0
 40
41.0
 40
41.0
 40
41.0
 40
42.0
 40
42.0
 40
42.0
 40
43.0
 40
43.0
 40
43.0
 40
44.0
 40
44.0
 40
44.0
 40
45.0
 40
45.0
 40
45.0
 40
46.0
 40
46.0
 40
46.0
 40
47.0
 40
47.0
 40
47.0
 40
48.0
 40
48.0
 40
48.0
 40
49.0
 40
49.0
 40
49.0
 40
50.0
 40
50.0
 40
50.0
 40
51.0
 40
51.0
 40
51.0
 40
52.0
 40
52.0
 40
52.0
 40
53.0
 40
53.0
 40
53.0
 40
54.0
 40
54.0
 40
54.0
 40
55.0
 40
55.0
 40
55.0
 40
56.0
 40
56.0
 40
56.0
 40
57.0
 40
57.0
 40
57.0
 40
58.0
 40
58.0
 40
58.0
 40
59.0
 40
59.0
 40
59.0
 40
60.0
 40
60.0
 40
60.0
 40
61.0
 40
61.0
 40
61.0
 40
62.0
 40
62.0
 40
62.0
 40
63.0
 40
63.0
 40
63.0
 40
64.0
 40
64.0
 40
64.0
 40
65.0
 40
65.0
 40
65.0
 40
66.0
 40
66.0
 40
66.0
 40
67.0
 40
67.0
 40
67.0
 40
68.0
 40
68.0
 40
68.0
 40
69.0
 40
69.0
 40
69.0
 40
70.0
 40
70.0
 40
70.0
 40
71.0
 40
71.0
 40
71.0
 40
72.0
 40
72.0
 40
72.0
 40
73.0
 40
73.0
 40
73.0
 40
74.0
 40
74.0
 40
74.0
 40
75.0
 40
75.0
 40
75.0
 40
76.0
 40
76.0
 40
76.0
 40
77.0
 40
77.0
 40
77.0
 40
78.0
 40
78.0
 40
78.0
 40
79.0
 40
79.0
 40
79.0
 40
80.0
 40
80.0
 40
80.0
 40
81.0
 40
81.0
 40
81.0
 40
82.0
 40
82.0
 40
82.0
 40
83.0
 40
83.0
 40
83.0
 40
84.0
 40
84.0
 40
84.0
 40
85.0
 40
85.0
 40
85.0
 40
86.0
 40
86.0
 40
86.0
 40
87.0
 40
87.0
 40
87.0
 40
88.0
 40
88.0
 40
88.0
 40
89.0
 40
89.0
 40
89.0
 40
90.0
 40
90.0
 40
90.0
 40
91.0
 40
91.0
 40
91.0
 40
92.0
 40
92.0
 40
92.0
 40
93.0
 40
93.0
 40
93.0
 40
94.0
 40
94.0
 40
94.0
 40
95.0
 40
95.0
 40
95.0
 40
96.0
 40
96.0
 40
96.0
 40
97.0
 40
97.0
 40
97.0
 40
98.0
 40
98.0
 40
98.0
 40
99.0
 40
99.0
 40
99.0
 40
100.0
 40
100.0
 40
100.0
 40
101.0
 40
101.0
 40
101.0
 40
102.0
 40
102.0
 40
102.0
 40
103.0
 40
103.0
 40
103.0
 40
104.0
 40
104.0
 40
104.0
 40
105.0
 40
105.0
 40
105.0
 40
106.0
 40
106.0
 40
106.0
 40
107.0
 40
107.0
 40
107.0
 40
108.0
 40
108.0
 40
108.0
 40
109.0
 40
109.0
 40
109.0
 40
110.0
 40
110.0
 40
110.0
 40
111.0
 40
111.0
 40
111.0
 40
112.0
 40
112.0
 40
112.0
 40
113.0
 40
113.0
 40
113.0
 40
114.0
 40
114.0
 40
114.0
 40
115.0
 40
115.0
 40
115.0
 40
116.0
 40
116.0
 40
116.0
 40
117.0
 40
117.0
 40
117.0
 40
118.0
 40
118.0
 40
118.0
 40
119.0
 40
119.0
 40
119.0
 40
120.0
 40
120.0
 40
120.0
 40
121.0
 40
121.0
 40
121.0
 40
122.0
 40
122.0
 40
122.0
 40
123.0
 40
123.0
 40
123.0
 40
124.0
 40
124.0
 40
124.0
 40
125.0
 40
125.0
 40
125.0
 40
126.0
 40
126.0
 40
126.0
 40
127.0
 40
127.0
 40
127.0
 40
128.0
 40
128.0
 40
128.0
 40
129.0
 40
129.0
 40
129.0
 40
130.0
 40
130.0
 40
130.0
 40
131.0
 40
131.0
 40
131.0
 40
132.0
 40
132.0
 40
132.0
 40
133.0
 40
133.0
 40
133.0
 40
134.0
 40
134.0
 40
134.0
 40
135.0
 40
135.0
 40
135.0
 40
136.0
 40
136.0
 40
136.0
 40
137.0
 40
137.0
 40
137.0
 40
138.0
 40
138.0
 40
138.0
 40
139.0
 40
139.0
 40
139.0
 40
140.0
 40
140.0
 40
140.0
 40
141.0
 40
141.0
 40
141.0
 40
142.0
 40
142.0
 40
142.0
 40
143.0
 40
143.0
 40
143.0
 40
144.0
 40
144.0
 40
144.0
 40
145.0
 40
145.0
 40
145.0
 40
146.0
 40
146.0
 40
146.0
 40
147.0
 40
147.0
 40
147.0
 40
148.0
 40
148.0
 40
148.0
 40
149.0
 40
149.0
 40
149.0
 40
150.0
 40
150.0
 40
150.0
 40
151.0
 40
151.0
 40
151.0
 40
152.0
 40
152.0
 40
152.0
 40
153.0
 40
153.0
 40
153.0
 40
154.0
 40
154.0
 40
154.0
 40
155.0
 40
155.0
 40
155.0
 40
156.0
 40
156.0
 40
156.0
 40
157.0
 40
157.0
 40
157.0
 40
158.0
 40
158.0
 40
158.0
 40
159.0
 40
159.0
 40
159.0
 40
160.0
 40
160.0
 40
160.0
 40
161.0
 40
161.0
 40
161.0
 40
162.0
 40
162.0
 40
162.0
 40
163.0
 40
163.0
 40
163.0
 40
164.0
 40
164.0
 40
164.0
 40
165.0
 40
165.0
 40
165.0
 40
166.0
 40
166.0
 40
166.0
 40
167.0
 40
167.0
 40
167.0
 40
168.0
 40
168.0
 40
168.0
 40
169.0
 40
169.0
 40
169.0
 40
170.0
 40
170.0
 40
170.0
 40
171.0
 40
171.0
 40
171.0
 40
172.0
 40
172.0
 40
172.0
 40
173.0
 40
173.0
 40
173.0
 40
174.0
 40
174.0
 40
174.0
 40
175.0
 40
175.0
 40
175.0
 40
176.0
 40
176.0
 40
176.0
 40
177.0
 40
177.0
 40
177.0
 40
178.0
 40
178.0
 40
178.0
 40
179.0
 40
179.0
 40
179.0
 40
180.0
 40
180.0
 40
180.0
 40
181.0
 40
181.0
 40
181.0
 40
182.0
 40
182.0
 40
182.0
 40
183.0
 40
183.0
 40
183.0
 40
184.0
 40
184.0
 40
184.0
 40
185.0
 40
185.0
 40
185.0
 40
186.0
 40
186.0
 40
186.0
 40
187.0
 40
187.0
 40
187.0
 40
188.0
 40
188.0
 40
188.0
 40
189.0
 40
189.0
 40
189.0
 40
190.0
 40
190.0
 40
190.0
 40
191.0
 40
191.0
 40
191.0
 40
192.0
 40
192.0
 40
192.0
 40
193.0
 40
193.0
 40
193.0
 40
194.0
 40
194.0
 40
194.0
 40
195.0
 40
195.0
 40
195.0
 40
196.0
 40
196.0
 40
196.0
 40
197.0
 40
197.0
 40
197.0
 40
198.0
 40
198.0
 40
198.0
 40
199.0
 40
199.0
 40
199.0
 40
200.0
 40
200.0
 40
200.0
 40
201.0
 40
201.0
 40
201.0
 40
202.0
 40
202.0
 40
202.0
 40
203.0
 40
203.0
 40
203.0
 40
204.0
 40
204.0
 40
204.0
 40
205.0
 40
205.0
 40
205.0
 40
206.0
 40
206.0
 40
206.0
 40
207.0
 40
207.0
 40
207.0
 40
208.0
 40
208.0
 40
208.0
 40
209.0
 40
209.0
 40
209.0
 40
210.0
 40
210.0
 40
210.0
 40
211.0
 40
211.0
 40
211.0
 40
212.0
 40
212.0
 40
212.0
 40
213.0
 40
213.0
 40
213.0
 40
214.0
 40
214.0
 40
214.0
 40
215.0
 40
215.0
 40
215.0
 40
216.0
 40
216.0
 40
216.0
 40
217.0
 40
217.0
 40
217.0
 40
218.0
 40
218.0
 40
218.0
 40
219.0
 40
219.0
 40
219.0
 40
220.0
 40
220.0
 40
220.0
 40
221.0
 40
221.0
 40
221.0
 40
222.0
 40
222.0
 40
222.0
 40
223.0
 40
223.0
 40
223.0
 40
224.0
 40
224.0
 40
224.0
 40
225.0
 40
225.0
 40
225.0
 40
226.0
 40
226.0
 40
226.0
 40
227.0
 40
227.0
 40
227.0
 40
228.0
 40
228.0
 40
228.0
 40
229.0
 40
229.0
 40
229.0
 40
230.0
 40
230.0
 40
230.0
 40
231.0
 40
231.0
 40
231.0
 40
232.0
 40
232.0
 40
232.0
 40
232.0
 10
-76.07825498331059
 20
-7.726601348028862
 30
0.0
 10
-76.07825498331059
 20
-7.726601348028862
 30
0.0
 10
-76.07831221916711
 20
-7.726658583892768
 30
0.0
 10
-76.07831221916711
 20
-7.726658583892768
 30
0.0
 10
-77.97619614996252
 20
-8.89965032904214
 30
0.0
 10
-79.95884639160387
 20
-10.05701668402104
 30
0.0
 10
-82.01017966702002
 20
-11.19560967642697
 30
0.0
 10
-82.25125711556612
 20
-11.32942712056395
 30
0.0
 10
-82.49559700822009
 20
-11.46215708333037
 30
0.0
 10
-82.73873494778339
 20
-11.59540216885398
 30
0.0
 10
-89.0764618893777
 20
-15.06916107375666
 30
0.0
 10
-96.09094565711259
 20
-18.35014959718828
 30
0.0
 10
-103.6144279409717
 20
-21.26791934368453
 30
0.0
 10
-104.897770427062
 20
-21.76564239510771
 30
0.0
 10
-106.1774498180168
 20
-22.24573680119239
 30
0.0
 10
-107.4521496890177
 20
-22.7082025619437
 30
0.0
 10
-110.0016066668842
 20
-23.63319131931344
 30
0.0
 10
-112.5314317442668
 20
-24.48772273119564
 30
0.0
 10
-115.0317231171311
 20
-25.27191126932261
 30
0.0
 10
-121.2823943134125
 20
-27.23235399671387
 30
0.0
 10
-127.3488805074653
 20
-28.75288189276359
 30
0.0
 10
-133.0781902415326
 20
-29.83401008025014
 30
0.0
 10
-133.8694187906221
 20
-29.98333844285161
 30
0.0
 10
-134.6520619604959
 20
-30.12162028418584
 30
0.0
 10
-135.4298973179918
 20
-30.25406406764749
 30
0.0
 10
-135.6694293982863
 20
-30.29481600102006
 30
0.0
 10
-135.906557572391
 20
-30.33270614132185
 30
0.0
 10
-136.1447159920098
 20
-30.37191270643442
 30
0.0
 10
-136.6940657904897
 20
-30.46228813171015
 30
0.0
 10
-137.240210380718
 20
-30.54877151840266
 30
0.0
 10
-137.7822912247945
 20
-30.63061880031968
 30
0.0
 10
-138.0378493462929
 20
-30.66919577095497
 30
0.0
 10
-138.293121288495
 20
-30.7075437981481
 30
0.0
 10
-138.5470195700124
 20
-30.74423198534959
 30
0.0
 10
-139.1250445350923
 20
-30.82773910724928
 30
0.0
 10
-139.6980327443628
 20
-30.90557987886104
 30
0.0
 10
-140.267243386777
 20
-30.97929966844552
 30
0.0
 10
-140.449825784898
 20
-31.00293807923677
 30
0.0
 10
-140.634583145748
 20
-31.0289231603506
 30
0.0
 10
-140.816249770086
 20
-31.05158856150102
 30
0.0
 10
-141.5551075059198
 20
-31.14362382676006
 30
0.0
 10
-142.2862384004588
 20
-31.22741712796452
 30
0.0
 10
-143.0091273309346
 20
-31.30273952166712
 30
0.0
 10
-143.1832960574167
 20
-31.32088328975509
 30
0.0
 10
-143.3539733963507
 20
-31.33553567029372
 30
0.0
 10
-143.5272263490486
 20
-31.3527064287428
 30
0.0
 10
-144.0809260729976
 20
-31.40759561989745
 30
0.0
 10
-144.630504814919
 20
-31.45830659317053
 30
0.0
 10
-145.1741882631107
 20
-31.50323674442532
 30
0.0
 10
-145.413491399955
 20
-31.52298311663912
 30
0.0
 10
-145.6509629892397
 20
-31.54101241300635
 30
0.0
 10
-145.8882628709307
 20
-31.55887000178828
 30
0.0
 10
-146.3851273844264
 20
-31.59624501933225
 30
0.0
 10
-146.8772985572924
 20
-31.62898393210393
 30
0.0
 10
-147.3652342764013
 20
-31.65794527800994
 30
0.0
 10
-147.5812424176266
 20
-31.67070887511477
 30
0.0
 10
-147.7983380402115
 20
-31.68467442532182
 30
0.0
 10
-148.0125718697339
 20
-31.69583541831173
 30
0.0
 10
-148.6659764643809
 20
-31.72983352002773
 30
0.0
 10
-149.3127989349574
 20
-31.75770738456446
 30
0.0
 10
-149.9490900070205
 20
-31.77625180368887
 30
0.0
 10
-149.9806269666922
 20
-31.77716757747221
 30
0.0
 10
-150.0132514077422
 20
-31.7790563608951
 30
0.0
 10
-150.0447311315493
 20
-31.77991489882352
 30
0.0
 10
-150.7104414364204
 20
-31.7985165538035
 30
0.0
 10
-151.3638460310675
 20
-31.80630063096544
 30
0.0
 10
-152.0099244354445
 20
-31.80796047094555
 30
0.0
 10
-152.0727694113464
 20
-31.80813217853213
 30
0.0
 10
-152.1384189444648
 20
-31.81070779229686
 30
0.0
 10
-152.2010349769246
 20
-31.81070779229686
 30
0.0
 10
-152.3224322391171
 20
-31.81070779229686
 30
0.0
 10
-152.4378197358594
 20
-31.80572827235077
 30
0.0
 10
-152.5585301677171
 20
-31.80509867787412
 30
0.0
 10
-153.0678148631663
 20
-31.80258029996367
 30
0.0
 10
-153.5708608497068
 20
-31.79479622280301
 30
0.0
 10
-154.0670957687246
 20
-31.78146026708416
 30
0.0
 10
-154.2587214329615
 20
-31.77636627540898
 30
0.0
 10
-154.4509766916674
 20
-31.77161569890504
 30
0.0
 10
-154.6405991007514
 20
-31.76491910311302
 30
0.0
 10
-155.268533737042
 20
-31.74253988127699
 30
0.0
 10
-155.8886842961702
 20
-31.71397918639907
 30
0.0
 10
-156.4942969464814
 20
-31.67402855508011
 30
0.0
 10
-156.5116966483713
 20
-31.67288383785462
 30
0.0
 10
-156.529840416458
 20
-31.67231147924188
 30
0.0
 10
-156.5471828824827
 20
-31.67116676200804
 30
0.0
 10
-157.1707103574404
 20
-31.62944181899464
 30
0.0
 10
-157.7782117911838
 20
-31.57546840161371
 30
0.0
 10
-158.3769561381161
 20
-31.51502733189123
 30
0.0
 10
-158.5456874577531
 20
-31.49802828103901
 30
0.0
 10
-158.7113280408768
 20
-31.4787397957172
 30
0.0
 10
-158.8780561053692
 20
-31.46019537659407
 30
0.0
 10
-159.33021941105
 20
-31.40999952607688
 30
0.0
 10
-159.7748275830207
 20
-31.35419456113889
 30
0.0
 10
-160.2119378571364
 20
-31.29300942521901
 30
0.0
 10
-160.3663029755498
 20
-31.27137426958103
 30
0.0
 10
-160.5223851698004
 20
-31.25105553875448
 30
0.0
 10
-160.6749187406459
 20
-31.22804672243347
 30
0.0
 10
-161.2397794575838
 20
-31.14287976055175
 30
0.0
 10
-161.794394955315
 20
-31.05055831598794
 30
0.0
 10
-162.3322403456433
 20
-30.9466179915403
 30
0.0
 10
-162.3874157161053
 20
-30.93591488544367
 30
0.0
 10
-162.4396720576391
 20
-30.92326576005703
 30
0.0
 10
-162.4946184846589
 20
-30.9123909463828
 30
0.0
 10
-162.9770023252019
 20
-30.81697876529644
 30
0.0
 10
-163.446565332782
 20
-30.7127522615434
 30
0.0
 10
-163.9062265363184
 20
-30.60200086957593
 30
0.0
 10
-164.0524069265338
 20
-30.56680081477053
 30
0.0
 10
-164.19618341057
 20
-30.53005539170129
 30
0.0
 10
-164.3400171304701
 20
-30.49325273277007
 30
0.0
 10
-164.7342005084744
 20
-30.39246038070184
 30
0.0
 10
-165.1192833845069
 20
-30.28577273490417
 30
0.0
 10
-165.4955519378736
 20
-30.17336150296302
 30
0.0
 10
-165.6087644718768
 20
-30.13953510882333
 30
0.0
 10
-165.7248387989622
 20
-30.10765473398071
 30
0.0
 10
-165.8363342571187
 20
-30.07274085848072
 30
0.0
 10
-166.3085873501856
 20
-29.92512957172519
 30
0.0
 10
-166.7671610723617
 20
-29.76887566988827
 30
0.0
 10
-167.2092508664229
 20
-29.60237654884608
 30
0.0
 10
-167.2898961952511
 20
-29.57204154225639
 30
0.0
 10
-167.3657909475742
 20
-29.53873027088094
 30
0.0
 10
-167.4453487950232
 20
-29.50776566981268
 30
0.0
 10
-167.8064498450951
 20
-29.36719439401976
 30
0.0
 10
-168.1567333173477
 20
-29.22004099416585
 30
0.0
 10
-168.4964853910887
 20
-29.0664771778157
 30
0.0
 10
-168.6159366340018
 20
-29.01250376043412
 30
0.0
 10
-168.7338997445092
 20
-28.95761456927946
 30
0.0
 10
-168.8507181377917
 20
-28.90198131191779
 30
0.0
 10
-169.1791375109581
 20
-28.74567017422466
 30
0.0
 10
-169.4968537780259
 20
-28.58289138417332
 30
0.0
 10
-169.8036952314199
 20
-28.41387388522195
 30
0.0
 10
-169.8764420113564
 20
-28.37380878219058
 30
0.0
 10
-169.9530808298775
 20
-28.33597587775463
 30
0.0
 10
-170.0246256567244
 20
-28.29516670851558
 30
0.0
 10
-170.3925950101736
 20
-28.08528280446961
 30
0.0
 10
-170.743164661742
 20
-27.86538262466949
 30
0.0
 10
-171.077994451393
 20
-27.63666812220332
 30
0.0
 10
-171.1566937609243
 20
-27.58292364827287
 30
0.0
 10
-171.2298984277612
 20
-27.52620290954126
 30
0.0
 10
-171.3067089538592
 20
-27.47137095425115
 30
0.0
 10
-171.5632400850165
 20
-27.28838790509466
 30
0.0
 10
-171.8095259969582
 20
-27.09962403393719
 30
0.0
 10
-172.0449370952254
 20
-26.90502210490841
 30
0.0
 10
-172.1330230860344
 20
-26.83216085325044
 30
0.0
 10
-172.2208228975464
 20
-26.75918512986272
 30
0.0
 10
-172.3059326235709
 20
-26.68472127408148
 30
0.0
 10
-172.5597736692234
 20
-26.46258889567568
 30
0.0
 10
-172.8014234763916
 20
-26.23387439320181
 30
0.0
 10
-173.0281919595697
 20
-25.9972041059884
 30
0.0
 10
-173.0621328254305
 20
-25.96177510772994
 30
0.0
 10
-173.1000229657323
 20
-25.92857830807718
 30
0.0
 10
-173.1333342371148
 20
-25.89286313051396
 30
0.0
 10
-173.3867746317411
 20
-25.62105002434943
 30
0.0
 10
-173.6186371065938
 20
-25.33778974588124
 30
0.0
 10
-173.8360761443506
 20
-25.04714604129651
 30
0.0
 10
-173.8950863175412
 20
-24.96816055244963
 30
0.0
 10
-173.9488307914713
 20
-24.88642774226235
 30
0.0
 10
-174.0051508791665
 20
-24.80606859274141
 30
0.0
 10
-174.1634652720116
 20
-24.58027311921186
 30
0.0
 10
-174.3111337946333
 20
-24.34904023883524
 30
0.0
 10
-174.4478130318407
 20
-24.11225547989209
 30
0.0
 10
-174.4997259582035
 20
-24.02233794150708
 30
0.0
 10
-174.5528980735212
 20
-23.93304999759999
 30
0.0
 10
-174.6016057916414
 20
-23.84152985509749
 30
0.0
 10
-174.7576879858917
 20
-23.5485967160451
 30
0.0
 10
-174.900663167864
 20
-23.24925316050546
 30
0.0
 10
-175.0238347417677
 20
-22.94006503679568
 30
0.0
 10
-175.033908253388
 20
-22.91470955016171
 30
0.0
 10
-175.0471869732506
 20
-22.89095666764971
 30
0.0
 10
-175.0570315414307
 20
-22.86548670929241
 30
0.0
 10
-176.7796592643657
 20
-18.4235832074667
 30
0.0
 10
-174.8530429311135
 20
-12.9127999925252
 30
0.0
 10
-170.1193510074779
 20
-7.052820786698755
 30
0.0
 10
-165.0470517273268
 20
-0.7736461313937502
 30
0.0
 10
-156.7504274266016
 20
5.906694677021942
 30
0.0
 10
-146.2269274633021
 20
12.10757067382383
 30
0.0
 10
-146.4567866830027
 20
11.46189292047324
 30
0.0
 10
-146.6689027856431
 20
10.80974751477983
 30
0.0
 10
-146.8627034126093
 20
10.15176405121448
 30
0.0
 10
-147.1534043530685
 20
9.164788855862921
 30
0.0
 10
-147.4031244167028
 20
8.164821119961828
 30
0.0
 10
-147.6102037635329
 20
7.154035806234365
 30
0.0
 10
-147.8173403462275
 20
6.143250492515886
 30
0.0
 10
-147.9818362121162
 20
5.121762072696923
 30
0.0
 10
-148.1023749363889
 20
4.091688273649572
 30
0.0
 10
-151.4297245076267
 20
1.610971565422153
 30
0.0
 10
-154.1733827634955
 20
-0.859614395329077
 30
0.0
 10
-156.209605771481
 20
-3.220193030318585
 30
0.0
 10
-156.8883086169
 20
-4.007014418076121
 30
0.0
 10
-157.4884266245083
 20
-4.781701803201631
 30
0.0
 10
-158.0053809253894
 20
-5.540420382971311
 30
0.0
 10
-158.780755140849
 20
-6.678498252619415
 30
0.0
 10
-159.3690253251358
 20
-7.78074647298419
 30
0.0
 10
-159.7546233239242
 20
-8.834687626266219
 30
0.0
 10
-160.0438933678339
 20
-9.625114873291938
 30
0.0
 10
-160.2190923398294
 20
-10.38841232197897
 30
0.0
 10
-160.2737525875339
 20
-11.11931427307584
 30
0.0
 10
-160.2920108273522
 20
-11.36291009953112
 30
0.0
 10
-160.2968758755763
 20
-11.60295730257313
 30
0.0
 10
-160.2880615529109
 20
-11.83916970289391
 30
0.0
 10
-160.2646520855621
 20
-12.46905035847269
 30
0.0
 10
-160.1442278330104
 20
-13.07191568743226
 30
0.0
 10
-159.9223243980564
 20
-13.64410259464822
 30
0.0
 10
-159.9218665111641
 20
-13.64524731187307
 30
0.0
 10
-159.9212369166868
 20
-13.64627755737781
 30
0.0
 10
-159.9207790297958
 20
-13.64742227461292
 30
0.0
 10
-159.8275990473116
 20
-13.88729777006836
 30
0.0
 10
-159.7155312305333
 20
-14.11812999941817
 30
0.0
 10
-159.5890972125222
 20
-14.34192221780344
 30
0.0
 10
-159.5466854391669
 20
-14.41695843219935
 30
0.0
 10
-159.4939139748856
 20
-14.48695789078398
 30
0.0
 10
-159.4478391063957
 20
-14.56021979347774
 30
0.0
 10
-159.3556893694076
 20
-14.706686363011
 30
0.0
 10
-159.2629100379502
 20
-14.85275228150461
 30
0.0
 10
-159.1562796280177
 20
-14.99200713247839
 30
0.0
 10
-159.0930912369453
 20
-15.07454124473854
 30
0.0
 10
-159.0205734004498
 20
-15.15238201634966
 30
0.0
 10
-158.9522910177015
 20
-15.2324549865562
 30
0.0
 10
-158.8478928063632
 20
-15.3549397301167
 30
0.0
 10
-158.7428650005572
 20
-15.47708105851493
 30
0.0
 10
-158.6268479093376
 20
-15.59361327249236
 30
0.0
 10
-158.5463742880952
 20
-15.67448754476213
 30
0.0
 10
-158.4585744765842
 20
-15.75164148603013
 30
0.0
 10
-158.3726062126403
 20
-15.8296539652272
 30
0.0
 10
-158.2532694414566
 20
-15.93794421515069
 30
0.0
 10
-158.1319866509852
 20
-16.04514698369591
 30
0.0
 10
-158.002175717146
 20
-16.14799982677362
 30
0.0
 10
-157.9065345926179
 20
-16.22378010737655
 30
0.0
 10
-157.8057422405493
 20
-16.29692753834957
 30
0.0
 10
-157.7044920015981
 20
-16.36973155415069
 30
0.0
 10
-157.569014717471
 20
-16.46726146211108
 30
0.0
 10
-157.4299315740832
 20
-16.56273087905429
 30
0.0
 10
-157.2845524859218
 20
-16.65488061603408
 30
0.0
 10
-157.1754609339441
 20
-16.72413600843029
 30
0.0
 10
-157.0633931171661
 20
-16.79173156083613
 30
0.0
 10
-156.9487496866222
 20
-16.857953452566
 30
0.0
 10
-156.7959871723356
 20
-16.94626838682519
 30
0.0
 10
-156.6379017229313
 20
-17.03160705629221
 30
0.0
 10
-156.4755235839161
 20
-17.11459905543536
 30
0.0
 10
-156.3544125010207
 20
-17.17652825756162
 30
0.0
 10
-156.2325573519375
 20
-17.23799957278818
 30
0.0
 10
-156.1061805697915
 20
-17.29695251011521
 30
0.0
 10
-155.9347591646604
 20
-17.37702548032046
 30
0.0
 10
-155.7561832768446
 20
-17.45292023264479
 30
0.0
 10
-155.5752034828494
 20
-17.52761303186881
 30
0.0
 10
-155.4445912469467
 20
-17.581471977529
 30
0.0
 10
-155.315180964144
 20
-17.6361322252338
 30
0.0
 10
-155.179703680026
 20
-17.68718661367748
 30
0.0
 10
-154.9859030530589
 20
-17.76027680878595
 30
0.0
 10
-154.7833453392835
 20
-17.82810130464228
 30
0.0
 10
-154.5797573800027
 20
-17.89541067774207
 30
0.0
 10
-154.4442228600195
 20
-17.94022635727674
 30
0.0
 10
-154.3119507841358
 20
-17.98687358437874
 30
0.0
 10
-154.1721808104051
 20
-18.02917088601323
 30
0.0
 10
-153.9450116761906
 20
-18.09785391978771
 30
0.0
 10
-153.7073111434737
 20
-18.16018377294206
 30
0.0
 10
-153.4690954879897
 20
-18.22222744678201
 30
0.0
 10
-153.3407154506998
 20
-18.25565318988526
 30
0.0
 10
-153.2172576974815
 20
-18.29205519779032
 30
0.0
 10
-153.0857296878041
 20
-18.32353492160614
 30
0.0
 10
-152.7722488744833
 20
-18.39857113600333
 30
0.0
 10
-152.4468057661098
 20
-18.46622392427308
 30
0.0
 10
-152.1157535433134
 20
-18.53027085326308
 30
0.0
 10
-152.0500467743408
 20
-18.54297721451492
 30
0.0
 10
-151.9888044025554
 20
-18.55843089711677
 30
0.0
 10
-151.9224108032396
 20
-18.57073660733217
 30
0.0
 10
-151.522274895642
 20
-18.64479981208853
 30
0.0
 10
-151.1090319757574
 20
-18.7105638169264
 30
0.0
 10
-150.6846280628922
 20
-18.76900163149624
 30
0.0
 10
-150.5539585911333
 20
-18.78703092786219
 30
0.0
 10
-150.4160201649707
 20
-18.80013794014082
 30
0.0
 10
-150.2831184946087
 20
-18.81662186824677
 30
0.0
 10
-149.9832025804576
 20
-18.85388241407063
 30
0.0
 10
-149.6824281283883
 20
-18.89057060128302
 30
0.0
 10
-149.3712367495266
 20
-18.92033324925162
 30
0.0
 10
-149.198212740278
 20
-18.93693164907961
 30
0.0
 10
-149.0182631917869
 20
-18.94872223654553
 30
0.0
 10
-148.841862266701
 20
-18.96297396604772
 30
0.0
 10
-148.5605480075292
 20
-18.98563936719878
 30
0.0
 10
-148.2789475690514
 20
-19.00819029661882
 30
0.0
 10
-147.9892196382507
 20
-19.02496040403018
 30
0.0
 10
-147.7927861616539
 20
-19.03635034046288
 30
0.0
 10
-147.5910297499405
 20
-19.04384823831685
 30
0.0
 10
-147.390818706479
 20
-19.0525480892615
 30
0.0
 10
-147.1100195700641
 20
-19.06473932775743
 30
0.0
 10
-146.8281329522799
 20
-19.0761292641959
 30
0.0
 10
-146.5399503897312
 20
-19.08305480342878
 30
0.0
 10
-146.327548107785
 20
-19.08814879510332
 30
0.0
 10
-146.1111965513891
 20
-19.09026652197863
 30
0.0
 10
-145.8949022308575
 20
-19.0924987205811
 30
0.0
 10
-145.6467275354836
 20
-19.09507433434647
 30
0.0
 10
-145.3958055187587
 20
-19.09564669295922
 30
0.0
 10
-145.1425368317186
 20
-19.09438750400271
 30
0.0
 10
-144.7486968688769
 20
-19.0924414847172
 30
0.0
 10
-144.338029562767
 20
-19.07761739659135
 30
0.0
 10
-143.9341160883043
 20
-19.06800177186336
 30
0.0
 10
-143.9341160883043
 20
-19.06800177186336
 30
0.0
 10
-143.9299378704125
 20
-19.07738845315113
 30
0.0
 10
-143.9299378704125
 20
-19.07738845315113
 30
0.0
 10
-143.9299378704125
 20
-19.07738845315113
 30
0.0
 10
-143.4225991942604
 20
-19.05678354301788
 30
0.0
 10
-143.4225991942604
 20
-19.05678354301788
 30
0.0
 10
-143.2998282713938
 20
-19.0525480892615
 30
0.0
 10
-143.1843835387867
 20
-19.05415069338797
 30
0.0
 10
-143.0602389552432
 20
-19.0488849941262
 30
0.0
 10
-143.0615553800536
 20
-19.04671003139854
 30
0.0
 10
-143.062757333144
 20
-19.04442059693858
 30
0.0
 10
-143.0640737579548
 20
-19.04224563420001
 30
0.0
 10
-143.0640737579548
 20
-19.04224563420001
 30
0.0
 10
-143.0640165220992
 20
-19.04224563420001
 30
0.0
 10
-143.0640165220992
 20
-19.04224563420001
 30
0.0
 10
-143.0627000972788
 20
-19.04442059693858
 30
0.0
 10
-143.0614981441891
 20
-19.04671003139854
 30
0.0
 10
-143.0601817193783
 20
-19.0488849941262
 30
0.0
 10
-142.9673451520567
 20
-19.04493571968614
 30
0.0
 10
-142.8670106868894
 20
-19.03486220806551
 30
0.0
 10
-142.773601760955
 20
-19.03045504673345
 30
0.0
 10
-142.773601760955
 20
-19.03045504673345
 30
0.0
 10
-142.2724445578387
 20
-19.0101363159069
 30
0.0
 10
-142.2724445578387
 20
-19.0101363159069
 30
0.0
 10
-142.2724445578387
 20
-19.0101363159069
 30
0.0
 10
-142.2762793605583
 20
-18.998517436025
 30
0.0
 10
-142.2762793605583
 20
-18.998517436025
 30
0.0
 10
-141.6235615962451
 20
-18.96263055087648
 30
0.0
 10
-140.9731332663992
 20
-18.92880415674642
 30
0.0
 10
-140.2943159492508
 20
-18.87116764423981
 30
0.0
 10
-139.3470052059115
 20
-18.79075125886203
 30
0.0
 10
-138.3750258062682
 20
-18.68915760473057
 30
0.0
 10
-137.3803237696196
 20
-18.56650115358477
 30
0.0
 10
-136.0539971515619
 20
-18.4029782973341
 30
0.0
 10
-134.6874337228882
 20
-18.20202318768519
 30
0.0
 10
-133.2852123525068
 20
-17.96392200393061
 30
0.0
 10
-129.7796875444909
 20
-17.36855457282566
 30
0.0
 10
-126.0517441787551
 20
-16.54098125169748
 30
0.0
 10
-122.1759033469661
 20
-15.48469342809222
 30
0.0
 10
-119.8503530592057
 20
-14.85092073393793
 30
0.0
 10
-117.4716306561285
 20
-14.13490010682953
 30
0.0
 10
-115.0556477072268
 20
-13.33743284884056
 30
0.0
 10
-112.639721994191
 20
-12.53996559085093
 30
0.0
 10
-110.1865357353294
 20
-11.66099446611617
 30
0.0
 10
-107.7122866794441
 20
-10.70143524840871
 30
0.0
 10
-105.6500213544802
 20
-9.901621320103561
 30
0.0
 10
-103.6364637476448
 20
-9.070442139696289
 30
0.0
 10
-101.6787111057477
 20
-8.213735765074234
 30
0.0
 10
-99.72095846384224
 20
-7.357029390452821
 30
0.0
 10
-97.81901078689372
 20
-6.474738585754002
 30
0.0
 10
-95.98013702928891
 20
-5.572873116426037
 30
0.0
 10
-93.77346562581116
 20
-4.490600211717214
 30
0.0
 10
-91.65757029864622
 20
-3.380167263154706
 30
0.0
 10
-89.64469952214429
 20
-2.251647782368763
 30
0.0
 10
-87.63188598150689
 20
-1.123128301583462
 30
0.0
 10
-85.72215422738777
 20
0.0234204755690684
 30
0.0
 10
-83.92792444174164
 20
1.177753329882262
 30
0.0
 10
-82.73180940854985
 20
1.947346723333234
 30
0.0
 10
-81.58697770723492
 20
2.720374268470298
 30
0.0
 10
-80.49714966881495
 20
3.493859700497431
 30
0.0
 10
-78.93638496213829
 20
4.601602563573814
 30
0.0
 10
-77.49667410248257
 20
5.709803313533849
 30
0.0
 10
-76.17229350371295
 20
6.810506165637346
 30
0.0
 10
-76.17229350371295
 20
6.810506165637346
 30
0.0
 10
-76.16943171064185
 20
6.806614127061828
 30
0.0
 10
-76.16943171064185
 20
6.806614127061828
 30
0.0
 10
-76.16943171064185
 20
6.806614127061828
 30
0.0
 10
-76.01437976189592
 20
6.937111891234757
 30
0.0
 10
-76.01437976189592
 20
6.937111891234757
 30
0.0
 10
-76.00236023098755
 20
6.947185402855383
 30
0.0
 10
-75.98862362423258
 20
6.957316150331572
 30
0.0
 10
-75.97660409332323
 20
6.967389661951556
 30
0.0
 10
-75.9610931748578
 20
6.980382202508152
 30
0.0
 10
-75.94775721913734
 20
6.993260271343354
 30
0.0
 10
-75.93224630067189
 20
7.006252811901875
 30
0.0
 10
-75.93224630067189
 20
7.006252811901875
 30
0.0
 10
-75.59913358686706
 20
7.286594061423828
 30
0.0
 10
-75.59913358686706
 20
7.286594061423828
 30
0.0
 10
-75.59913358686706
 20
7.286594061423828
 30
0.0
 10
-75.59844675652491
 20
7.298556356476971
 30
0.0
 10
-75.59844675652491
 20
7.298556356476971
 30
0.0
 10
-74.45939587722698
 20
8.270249576803626
 30
0.0
 10
-73.40345146879329
 20
9.235761324096083
 30
0.0
 10
-72.46804578464132
 20
10.18673516257965
 30
0.0
 10
-70.38414530403975
 20
12.30543504695083
 30
0.0
 10
-68.82452531459787
 20
14.35756962443053
 30
0.0
 10
-67.87400936300598
 20
16.27497098399054
 30
0.0
 10
-67.39872276928242
 20
17.23372889962515
 30
0.0
 10
-67.07579803881896
 20
18.15871765699488
 30
0.0
 10
-66.91559486254198
 20
19.04152358445088
 30
0.0
 10
-66.86219380378275
 20
19.3357731483147
 30
0.0
 10
-66.82687927724635
 20
19.62544384325988
 30
0.0
 10
-66.81005193396948
 20
19.91002054652987
 30
0.0
 10
-66.78481091906235
 20
20.33688560144963
 30
0.0
 10
-66.80123761130407
 20
20.75247519164973
 30
0.0
 10
-66.86047672793586
 20
21.15575907162481
 30
0.0
 10
-66.91977308042386
 20
21.55904295160824
 30
0.0
 10
-67.02193909316775
 20
21.95002112138076
 30
0.0
 10
-67.1684056626901
 20
22.32754886369249
 30
0.0
 10
-67.26999931682124
 20
22.58957463754245
 30
0.0
 10
-67.39706292930039
 20
22.83935193704284
 30
0.0
 10
-67.53826379957155
 20
23.08220369730136
 30
0.0
 10
-67.58233541290785
 20
23.15792674203782
 30
0.0
 10
-67.63396215996492
 20
23.229929455777
 30
0.0
 10
-67.68175410430044
 20
23.3038209529487
 30
0.0
 10
-67.78901410871052
 20
23.46957600779157
 30
0.0
 10
-67.90365753925479
 20
23.63161073163652
 30
0.0
 10
-68.02963367037427
 20
23.78803634105746
 30
0.0
 10
-68.09242141041067
 20
23.86593434853313
 30
0.0
 10
-68.15755582078118
 20
23.94268763877754
 30
0.0
 10
-68.22492242973623
 20
24.01835344764881
 30
0.0
 10
-68.36034247799839
 20
24.17037189573833
 30
0.0
 10
-68.5062939247735
 20
24.31689570112522
 30
0.0
 10
-68.65991497697857
 20
24.4595847037928
 30
0.0
 10
-68.72779670869944
 20
24.52265862314518
 30
0.0
 10
-68.79218705286294
 20
24.58750685419971
 30
0.0
 10
-68.8635601721242
 20
24.64874922598477
 30
0.0
 10
-69.08929840979883
 20
24.84243538123084
 30
0.0
 10
-69.3284298390559
 20
25.02919599723504
 30
0.0
 10
-69.58850959361777
 20
25.20468114853693
 30
0.0
 10
-69.59354634942808
 20
25.20805806435591
 30
0.0
 10
-69.59772456731927
 20
25.21189286707522
 30
0.0
 10
-69.60276132312927
 20
25.21526978290318
 30
0.0
 10
-69.86982385279017
 20
25.3947042086477
 30
0.0
 10
-70.15892218912229
 20
25.56211910347324
 30
0.0
 10
-70.46089859429089
 20
25.72255122320007
 30
0.0
 10
-70.55150296300972
 20
25.77068658269816
 30
0.0
 10
-70.64863221994331
 20
25.81521608292742
 30
0.0
 10
-70.74232732518405
 20
25.86163436658856
 30
0.0
 10
-70.96325775048956
 20
25.97118380546663
 30
0.0
 10
-71.1908275357312
 20
26.07678396989373
 30
0.0
 10
-71.42858530431357
 20
26.17683225575558
 30
0.0
 10
-71.54368662174855
 20
26.2252537945687
 30
0.0
 10
-71.66096290192339
 20
26.27253061614863
 30
0.0
 10
-71.77995625793515
 20
26.31871995636891
 30
0.0
 10
-72.02297972577834
 20
26.41315912780609
 30
0.0
 10
-72.27516093145879
 20
26.50216089240841
 30
0.0
 10
-72.53403873293031
 20
26.58738509014569
 30
0.0
 10
-72.64873939933015
 20
26.62510352286089
 30
0.0
 10
-72.76063550852342
 20
26.66453903142332
 30
0.0
 10
-72.87836967558961
 20
26.70048315242804
 30
0.0
 10
-73.23741023464243
 20
26.81003259130611
 30
0.0
 10
-73.60812690944332
 20
26.91259925507713
 30
0.0
 10
-73.99486962546619
 20
27.00537858653357
 30
0.0
 10
-74.01564624317511
 20
27.01035810647902
 30
0.0
 10
-74.03453407747045
 20
27.01642510779374
 30
0.0
 10
-74.05536793104423
 20
27.02140462774818
 30
0.0
 10
-74.46557735027145
 20
27.1184766488172
 30
0.0
 10
-74.89450289618945
 20
27.20404426172509
 30
0.0
 10
-75.33453219924243
 20
27.28251462781414
 30
0.0
 10
-75.46537337858628
 20
27.30586685929742
 30
0.0
 10
-75.60182367235286
 20
27.32555599564603
 30
0.0
 10
-75.73518322959722
 20
27.34719115128273
 30
0.0
 10
-76.0537007987283
 20
27.39898960592446
 30
0.0
 10
-76.37771301056969
 20
27.44701049370243
 30
0.0
 10
-76.71059678093334
 20
27.48942226705831
 30
0.0
 10
-76.87291768408435
 20
27.51014164892065
 30
0.0
 10
-77.03735631411707
 20
27.52937289837728
 30
0.0
 10
-77.20299689723181
 20
27.54786008162688
 30
0.0
 10
-77.53450700691917
 20
27.58477721228911
 30
0.0
 10
-77.87340054274134
 20
27.61654311540264
 30
0.0
 10
-78.218017664707
 20
27.64464592338985
 30
0.0
 10
-78.37678994445212
 20
27.65752399222634
 30
0.0
 10
-78.53333002559509
 20
27.67206190104485
 30
0.0
 10
-78.69484962669152
 20
27.6831084223031
 30
0.0
 10
-79.15605619848857
 20
27.71470261784032
 30
0.0
 10
-79.62716457433025
 20
27.73931403827945
 30
0.0
 10
-80.11006353762983
 20
27.75556902294326
 30
0.0
 10
-80.15539433992136
 20
27.75711439119555
 30
0.0
 10
-80.19832123603217
 20
27.7603768353034
 30
0.0
 10
-80.24393821763009
 20
27.76175049597938
 30
0.0
 10
-80.77462912526677
 20
27.77800548064255
 30
0.0
 10
-81.32071647963853
 20
27.78309947230875
 30
0.0
 10
-81.87619051528907
 20
27.78109621715548
 30
0.0
 10
-82.03919824878159
 20
27.78052385854338
 30
0.0
 10
-82.2068993229228
 20
27.77634564065218
 30
0.0
 10
-82.3719675474248
 20
27.77417067792324
 30
0.0
 10
-82.77319093639137
 20
27.76896221452602
 30
0.0
 10
-83.17910766600697
 20
27.75991894841141
 30
0.0
 10
-83.59235058588287
 20
27.74543827545809
 30
0.0
 10
-83.79164585556035
 20
27.73839826449547
 30
0.0
 10
-83.99248649349043
 20
27.73021353630736
 30
0.0
 10
-84.19447184864441
 20
27.72105579847072
 30
0.0
 10
-84.60674175888014
 20
27.7023969076262
 30
0.0
 10
-85.02513590629609
 20
27.67864402511484
 30
0.0
 10
-85.44839510193611
 20
27.65105633987518
 30
0.0
 10
-85.63361034967872
 20
27.63897957310192
 30
0.0
 10
-85.81687957814223
 20
27.62856264632033
 30
0.0
 10
-86.00409808103746
 20
27.61482603956505
 30
0.0
 10
-86.43697290140549
 20
27.58300290057734
 30
0.0
 10
-86.88037912028674
 20
27.54213649548339
 30
0.0
 10
-87.32298403710414
 20
27.50195692072228
 30
0.0
 10
-87.32298403710414
 20
27.50195692072228
 30
0.0
 10
-87.33483186042754
 20
27.50590619516491
 30
0.0
 10
-87.33483186042754
 20
27.50590619516491
 30
0.0
 10
-87.33483186042754
 20
27.50590619516491
 30
0.0
 10
-87.40460237557227
 20
27.4949741456242
 30
0.0
 10
-87.40460237557227
 20
27.4949741456242
 30
0.0
 10
-87.55627740848927
 20
27.48100859541972
 30
0.0
 10
-87.70257227043465
 20
27.47167915000612
 30
0.0
 10
-87.85573543574837
 20
27.45639717499085
 30
0.0
 10
-87.84560468827283
 20
27.44758285231646
 30
0.0
 10
-87.83621800698506
 20
27.43790999173163
 30
0.0
 10
-87.8260872595095
 20
27.42909566906558
 30
0.0
 10
-87.83621800698506
 20
27.43790999173163
 30
0.0
 10
-87.84566192412839
 20
27.44758285231646
 30
0.0
 10
-87.85579267161388
 20
27.45639717499085
 30
0.0
 10
-88.37806990761134
 20
27.90936178273427
 30
0.0
 10
-88.91230943866
 20
28.34635758512957
 30
0.0
 10
-89.45765272683436
 20
28.76715563872561
 30
0.0
 10
-90.0029960150087
 20
29.18795369232101
 30
0.0
 10
-90.55944306030809
 20
29.59255399711651
 30
0.0
 10
-91.12624979654251
 20
29.9807848455268
 30
0.0
 10
-91.69299929690275
 20
30.36901569394673
 30
0.0
 10
-92.27010848819993
 20
30.74076261425043
 30
0.0
 10
-92.85671883250371
 20
31.09602560644882
 30
0.0
 10
-93.44332917679851
 20
31.451231362791
 30
0.0
 10
-94.03949790996669
 20
31.78989595516333
 30
0.0
 10
-94.6444237299444
 20
32.11173320426745
 30
0.0
 10
-94.64808682507939
 20
32.11367922355296
 30
0.0
 10
-94.65180715607795
 20
32.11528182767108
 30
0.0
 10
-94.65547025121324
 20
32.1172278469675
 30
0.0
 10
-94.65186439193447
 20
32.11528182767108
 30
0.0
 10
-94.64802958921387
 20
32.11373645941814
 30
0.0
 10
-94.6444237299444
 20
32.11179044012173
 30
0.0
 10
-94.63841396448556
 20
32.11304962907695
 30
0.0
 10
-94.63251867075646
 20
32.11407987458104
 30
0.0
 10
-94.62650890529761
 20
32.11533906353563
 30
0.0
 10
-93.73196962623959
 20
32.30347334021516
 30
0.0
 10
-92.84761833052263
 20
32.47769930256183
 30
0.0
 10
-91.9684754982013
 20
32.64505696152282
 30
0.0
 10
-91.71663770769336
 20
32.69302061344459
 30
0.0
 10
-91.46634528544478
 20
32.73898101021437
 30
0.0
 10
-91.21576668389174
 20
32.78522758628958
 30
0.0
 10
-90.5182332400429
 20
32.914008274614
 30
0.0
 10
-89.82590825958999
 20
33.03614960301481
 30
0.0
 10
-89.13896345011766
 20
33.15170880734178
 30
0.0
 10
-88.93686362323363
 20
33.18570690905842
 30
0.0
 10
-88.7329322487826
 20
33.22187997351299
 30
0.0
 10
-88.53180543154648
 20
33.25473335800543
 30
0.0
 10
-87.67836150103226
 20
33.39410268070702
 30
0.0
 10
-86.83350294973394
 20
33.52328402006082
 30
0.0
 10
-85.99780213627161
 20
33.64204843263046
 30
0.0
 10
-85.80297126380164
 20
33.66975058959086
 30
0.0
 10
-85.61111665612356
 20
33.69401859485812
 30
0.0
 10
-85.41725879329122
 20
33.72057603458471
 30
0.0
 10
-84.75200637532143
 20
33.8117527619166
 30
0.0
 10
-84.09270648693695
 20
33.89634736518429
 30
0.0
 10
-83.43964530746051
 20
33.97430260851681
 30
0.0
 10
-83.20085729336506
 20
34.00280606753982
 30
0.0
 10
-82.96189757169232
 20
34.03148123414041
 30
0.0
 10
-82.72476939758691
 20
34.05821038145165
 30
0.0
 10
-81.93067905541756
 20
34.14772726880152
 30
0.0
 10
-81.14311360146293
 20
34.23031861691658
 30
0.0
 10
-80.36854068806492
 20
34.29997466034024
 30
0.0
 10
-80.34358585246545
 20
34.30220685893566
 30
0.0
 10
-80.31794418652253
 20
34.3052403595911
 30
0.0
 10
-80.29298935091247
 20
34.30741532233095
 30
0.0
 10
-79.4958655080941
 20
34.37850226228615
 30
0.0
 10
-78.71322233822967
 20
34.43550918032445
 30
0.0
 10
-77.93796259448981
 20
34.48547608738922
 30
0.0
 10
-77.71909266019346
 20
34.4995561093151
 30
0.0
 10
-77.50245492449092
 20
34.51163287608836
 30
0.0
 10
-77.28541653776126
 20
34.52405305803349
 30
0.0
 10
-76.67362241441555
 20
34.55908140525487
 30
0.0
 10
-76.06915448133015
 20
34.58747039254749
 30
0.0
 10
-75.47201273852209
 20
34.60910554818419
 30
0.0
 10
-75.29761506858982
 20
34.61545872881396
 30
0.0
 10
-75.12087072834233
 20
34.6239296363094
 30
0.0
 10
-74.94773224737265
 20
34.62913809970533
 30
0.0
 10
-74.2069857281063
 20
34.65128837809857
 30
0.0
 10
-73.47791532458511
 20
34.66325067314978
 30
0.0
 10
-72.76137957472148
 20
34.66456709796186
 30
0.0
 10
-72.71759414069056
 20
34.6646243338264
 30
0.0
 10
-72.67140480048024
 20
34.66674206070042
 30
0.0
 10
-72.62767660230586
 20
34.66674206070042
 30
0.0
 10
-72.49603412090809
 20
34.66674206070042
 30
0.0
 10
-72.37085929185217
 20
34.66136188971855
 30
0.0
 10
-72.24007534837287
 20
34.66067505937671
 30
0.0
 10
-71.73336626669772
 20
34.6579277380254
 30
0.0
 10
-71.23226629944625
 20
34.65060154775609
 30
0.0
 10
-70.73849252246441
 20
34.63715112031584
 30
0.0
 10
-70.52231267365323
 20
34.63131306244262
 30
0.0
 10
-70.30756372138353
 20
34.62427305148064
 30
0.0
 10
-70.09395948634637
 20
34.61631726673339
 30
0.0
 10
-69.61071710787651
 20
34.59840244208692
 30
0.0
 10
-69.13485815553989
 20
34.5746495595762
 30
0.0
 10
-68.66483726106846
 20
34.54626057228293
 30
0.0
 10
-68.49370203524273
 20
34.5359581172208
 30
0.0
 10
-68.31981948807534
 20
34.52771615316751
 30
0.0
 10
-68.15051580981824
 20
34.51598280155715
 30
0.0
 10
-67.71775546117034
 20
34.48604844601095
 30
0.0
 10
-67.29392390691725
 20
34.44941749466439
 30
0.0
 10
-66.87312585332122
 20
34.41038263712812
 30
0.0
 10
-66.68556393525538
 20
34.39298293523883
 30
0.0
 10
-66.4946823372255
 20
34.37810161125806
 30
0.0
 10
-66.30952432533909
 20
34.35887036180208
 30
0.0
 10
-66.2095332753341
 20
34.3485106708754
 30
0.0
 10
-66.11377767907585
 20
34.33511747928238
 30
0.0
 10
-66.01453069526826
 20
34.32418542974359
 30
0.0
 10
-65.51451820938575
 20
34.2692962385883
 30
0.0
 10
-65.02337728203288
 20
34.20788215921665
 30
0.0
 10
-64.54179474355372
 20
34.13959977646898
 30
0.0
 10
-64.36064324196391
 20
34.11395811052702
 30
0.0
 10
-64.18252524104078
 20
34.08614148185485
 30
0.0
 10
-64.00406382495538
 20
34.05855379661519
 30
0.0
 10
-63.59179391471965
 20
33.99490751865005
 30
0.0
 10
-63.18707913819345
 20
33.92599554143278
 30
0.0
 10
-62.78928990092003
 20
33.85221851598377
 30
0.0
 10
-62.62674005431854
 20
33.82205521698708
 30
0.0
 10
-62.4624158960056
 20
33.79303663521588
 30
0.0
 10
-62.30232719144969
 20
33.7612134962378
 30
0.0
 10
-61.76705741489629
 20
33.65475479388165
 30
0.0
 10
-61.24140326307055
 20
33.54182843918394
 30
0.0
 10
-60.73423629450404
 20
33.41648190254112
 30
0.0
 10
-60.73091661454062
 20
33.41568060048046
 30
0.0
 10
-60.72731075526153
 20
33.41493653428049
 30
0.0
 10
-60.72399107529779
 20
33.41413523222816
 30
0.0
 10
-60.21132946402929
 20
33.2872433273247
 30
0.0
 10
-59.7176701587679
 20
33.14798847634258
 30
0.0
 10
-59.23471395961276
 20
33.00180808612692
 30
0.0
 10
-59.09666106172004
 20
32.96002590724898
 30
0.0
 10
-58.96324426861081
 20
32.91532469943506
 30
0.0
 10
-58.82770974862725
 20
32.87193991643129
 30
0.0
 10
-58.47971571083395
 20
32.76061616585108
 30
0.0
 10
-58.13962022193104
 20
32.64431289532606
 30
0.0
 10
-57.80828181982
 20
32.52257221796168
 30
0.0
 10
-57.66902696884686
 20
32.47140335779725
 30
0.0
 10
-57.52971488200821
 20
32.42040620521875
 30
0.0
 10
-57.39349353168313
 20
32.36740579749469
 30
0.0
 10
-57.02918727336886
 20
32.22574704033249
 30
0.0
 10
-56.67609924389973
 20
32.07727721564918
 30
0.0
 10
-56.33354261295284
 20
31.92239697448824
 30
0.0
 10
-56.25976558750254
 20
31.88902846724953
 30
0.0
 10
-56.18175310830547
 20
31.85823557377555
 30
0.0
 10
-56.10900632836889
 20
31.82429470791511
 30
0.0
 10
-55.70022780568091
 20
31.63347034573983
 30
0.0
 10
-55.30913516418957
 20
31.43217182092032
 30
0.0
 10
-54.93315279013879
 20
31.22205897343284
 30
0.0
 10
-54.83928597731274
 20
31.16957368845633
 30
0.0
 10
-54.75148616580078
 20
31.1135970159247
 30
0.0
 10
-54.65967984399255
 20
31.05990977785815
 30
0.0
 10
-54.38059778341555
 20
30.89673033678001
 30
0.0
 10
-54.1102728096484
 20
30.72845690403567
 30
0.0
 10
-53.85070817784338
 20
30.55411646996761
 30
0.0
 10
-53.74178833344259
 20
30.4809690389946
 30
0.0
 10
-53.63470003661781
 20
30.40673412666193
 30
0.0
 10
-53.52927157977537
 20
30.33158344053564
 30
0.0
 10
-53.28046728992384
 20
30.15426674167542
 30
0.0
 10
-53.04259504961205
 20
29.97076856977137
 30
0.0
 10
-52.81359436783951
 20
29.78251982136145
 30
0.0
 10
-52.73455164313738
 20
29.71749988272227
 30
0.0
 10
-52.65144517226578
 20
29.65476937854111
 30
0.0
 10
-52.57474911788721
 20
29.58849025095441
 30
0.0
 10
-52.28032784643809
 20
29.3339051390958
 30
0.0
 10
-52.00176090861827
 20
29.07073464801073
 30
0.0
 10
-51.74322652231704
 20
28.79686105082902
 30
0.0
 10
-51.69675100279167
 20
28.74763820996229
 30
0.0
 10
-51.65645695630981
 20
28.69503845325669
 30
0.0
 10
-51.61118338988347
 20
28.64518601791139
 30
0.0
 10
-51.40353168443162
 20
28.41670045888673
 30
0.0
 10
-51.2078995098978
 20
28.18191895509685
 30
0.0
 10
-51.02537434764164
 20
27.94026914792965
 30
0.0
 10
-50.95468805871388
 20
27.84668851441767
 30
0.0
 10
-50.88812275181246
 20
27.75093291816007
 30
0.0
 10
-50.82121402974878
 20
27.65534902948777
 30
0.0
 10
-50.66982517612853
 20
27.43911194482102
 30
0.0
 10
-50.52902495689283
 20
27.21755192503886
 30
0.0
 10
-50.39749694721709
 20
26.9912413287425
 30
0.0
 10
-50.34226434089023
 20
26.89622979869128
 30
0.0
 10
-50.28462782837529
 20
26.80247745758631
 30
0.0
 10
-50.23294384546296
 20
26.70569161582333
 30
0.0
 10
-50.06243821411455
 20
26.38637274463031
 30
0.0
 10
-49.90515406676552
 20
26.06041451350981
 30
0.0
 10
-49.77379776467412
 20
25.72169268527229
 30
0.0
 10
-49.45333417625495
 20
24.89537855309805
 30
0.0
 10
-49.25884671894597
 20
24.03214729027056
 30
0.0
 10
-49.18506969349567
 20
23.13657776569819
 30
0.0
 10
-49.16045827306647
 20
22.83803551222306
 30
0.0
 10
-49.14929728007785
 20
22.53594463534366
 30
0.0
 10
-49.15135777108668
 20
22.23041960675956
 30
0.0
 10
-49.15336102623931
 20
21.92489457818572
 30
0.0
 10
-49.16858576539004
 20
21.61593539791809
 30
0.0
 10
-49.19686028096319
 20
21.30371377355287
 30
0.0
 10
-49.30984387152575
 20
20.05494174779992
 30
0.0
 10
-49.63122323372825
 20
18.75408508809984
 30
0.0
 10
-50.14812029875249
 20
17.41219031571985
 30
0.0
 10
-50.53583602440561
 20
16.40581216332444
 30
0.0
 10
-51.03361631169398
 20
15.37631072289626
 30
0.0
 10
-51.63613822548327
 20
14.32837933507403
 30
0.0
 10
-52.03781950135113
 20
13.62970117400002
 30
0.0
 10
-52.4860335325919
 20
12.92289552059346
 30
0.0
 10
-52.97923495096164
 20
12.20916432794567
 30
0.0
 10
-53.31744165644196
 20
11.71974047644034
 30
0.0
 10
-53.67728351755803
 20
11.22705418082779
 30
0.0
 10
-54.0580164681227
 20
10.73162056386329
 30
0.0
 10
-55.20015808393386
 20
9.245205241239418
 30
0.0
 10
-56.53026226885596
 20
7.733720611295958
 30
0.0
 10
-58.02818199963008
 20
6.209357912523715
 30
0.0
 10
-62.58404210164826
 20
1.573253132705023
 30
0.0
 10
-68.72419084942163
 20
-3.18339037138544
 30
0.0
 10
-76.07825498331059
 20
-7.726601348028862
 30
0.0
  0
SPLINE
  5
7A
330
70
100
AcDbEntity
  8
Layer 1
100
AcDbSpline
210
0.0
220
0.0
230
1.0
 70
     9
 71
     3
 72
    62
 73
    58
 74
     0
 42
0.0000000001
 43
0.0000000001
 40
0.0
 40
0.0
 40
0.0
 40
0.0
 40
1.0
 40
1.0
 40
1.0
 40
2.0
 40
2.0
 40
2.0
 40
3.0
 40
3.0
 40
3.0
 40
4.0
 40
4.0
 40
4.0
 40
5.0
 40
5.0
 40
5.0
 40
6.0
 40
6.0
 40
6.0
 40
7.0
 40
7.0
 40
7.0
 40
8.0
 40
8.0
 40
8.0
 40
9.0
 40
9.0
 40
9.0
 40
10.0
 40
10.0
 40
10.0
 40
11.0
 40
11.0
 40
11.0
 40
12.0
 40
12.0
 40
12.0
 40
13.0
 40
13.0
 40
13.0
 40
14.0
 40
14.0
 40
14.0
 40
15.0
 40
15.0
 40
15.0
 40
16.0
 40
16.0
 40
16.0
 40
17.0
 40
17.0
 40
17.0
 40
18.0
 40
18.0
 40
18.0
 40
19.0
 40
19.0
 40
19.0
 40
19.0
 10
-99.95654126969535
 20
-30.69741305066293
 30
0.0
 10
-103.7639852470162
 20
-32.17404104096261
 30
0.0
 10
-107.7450255922059
 20
-32.922743344973
 30
0.0
 10
-111.7889681491632
 20
-32.922743344973
 30
0.0
 10
-115.3007316660788
 20
-32.922743344973
 30
0.0
 10
-118.8148990891845
 20
-32.33727771790273
 30
0.0
 10
-122.1570155126801
 20
-31.22243760801073
 30
0.0
 10
-122.0329854008576
 20
-31.19021381799623
 30
0.0
 10
-121.9074099207659
 20
-31.15180855494753
 30
0.0
 10
-121.7832653372234
 20
-31.11924134976178
 30
0.0
 10
-120.3094991399952
 20
-30.73278481305427
 30
0.0
 10
-118.8309251303984
 20
-30.32703979103392
 30
0.0
 10
-117.3460551760454
 20
-29.89399326307933
 30
0.0
 10
-117.1233504390291
 20
-29.82903056030533
 30
0.0
 10
-116.8993292772007
 20
-29.75714231828562
 30
0.0
 10
-116.6763955967343
 20
-29.69114936999726
 30
0.0
 10
-115.4027259712374
 20
-29.31413675043243
 30
0.0
 10
-114.1256221940474
 20
-28.92001060828373
 30
0.0
 10
-112.845198736903
 20
-28.50928606630896
 30
0.0
 10
-112.3737469458907
 20
-28.35806892028331
 30
0.0
 10
-111.9017800321395
 20
-28.20152883914035
 30
0.0
 10
-111.429526939074
 20
-28.04579006005227
 30
0.0
 10
-110.3387258910039
 20
-27.68600543479144
 30
0.0
 10
-109.2460932953584
 20
-27.31380062759511
 30
0.0
 10
-108.1514002087128
 20
-26.92991970465297
 30
0.0
 10
-107.698034949932
 20
-26.77091848146602
 30
0.0
 10
-107.2454137573505
 20
-26.61477905135178
 30
0.0
 10
-106.7914761399656
 20
-26.45171408199246
 30
0.0
 10
-105.2828533030945
 20
-25.90963323792596
 30
0.0
 10
-103.771998267628
 20
-25.35215594711253
 30
0.0
 10
-102.25816696736
 20
-24.7650877159267
 30
0.0
 10
-100.7418745250548
 20
-24.17704647508208
 30
0.0
 10
-99.24801854044318
 20
-23.56914439031251
 30
0.0
 10
-97.76612485088271
 20
-22.95128326564308
 30
0.0
 10
-97.32105879202006
 20
-22.76572460272892
 30
0.0
 10
-96.88154461172457
 20
-22.57581601433954
 30
0.0
 10
-96.43962652524034
 20
-22.38762450179545
 30
0.0
 10
-95.36834290593388
 20
-21.93128297822278
 30
0.0
 10
-94.30656043963596
 20
-21.46767250024533
 30
0.0
 10
-93.25456530564265
 20
-20.99604900165674
 30
0.0
 10
-92.80389013235724
 20
-20.79400641063662
 30
0.0
 10
-92.35275707217986
 20
-20.5927078858062
 30
0.0
 10
-91.9056877581649
 20
-20.38791797343477
 30
0.0
 10
-90.66601623438405
 20
-19.82002375584102
 30
0.0
 10
-89.44002408149456
 20
-19.24205602662536
 30
0.0
 10
-88.22902772432362
 20
-18.65321348372648
 30
0.0
 10
-88.03482644632101
 20
-18.55877431227967
 30
0.0
 10
-87.83576012009339
 20
-18.46782652838927
 30
0.0
 10
-87.64230290829877
 20
-18.37281499833998
 30
0.0
 10
-86.25095635160061
 20
-17.68987669916361
 30
0.0
 10
-84.88307649810677
 20
-16.99085512291899
 30
0.0
 10
-83.53162333685403
 20
-16.28095873299117
 30
0.0
 10
-83.41537730219293
 20
-16.21988806879205
 30
0.0
 10
-83.29398003999209
 20
-16.16225155628544
 30
0.0
 10
-83.17802018463767
 20
-16.10100918450038
 30
0.0
 10
-86.84603760340015
 20
-22.69492384207977
 30
0.0
 10
-92.72009683115086
 20
-27.89102429061208
 30
0.0
 10
-99.95654126969535
 20
-30.69741305066293
 30
0.0
  0
SPLINE
  5
7B
330
70
100
AcDbEntity
  8
Layer 1
100
AcDbSpline
210
0.0
220
0.0
230
1.0
 70
     9
 71
     3
 72
   233
 73
   229
 74
     0
 42
0.0000000001
 43
0.0000000001
 40
0.0
 40
0.0
 40
0.0
 40
0.0
 40
1.0
 40
1.0
 40
1.0
 40
2.0
 40
2.0
 40
2.0
 40
3.0
 40
3.0
 40
3.0
 40
4.0
 40
4.0
 40
4.0
 40
5.0
 40
5.0
 40
5.0
 40
6.0
 40
6.0
 40
6.0
 40
7.0
 40
7.0
 40
7.0
 40
8.0
 40
8.0
 40
8.0
 40
9.0
 40
9.0
 40
9.0
 40
10.0
 40
10.0
 40
10.0
 40
11.0
 40
11.0
 40
11.0
 40
12.0
 40
12.0
 40
12.0
 40
13.0
 40
13.0
 40
13.0
 40
14.0
 40
14.0
 40
14.0
 40
15.0
 40
15.0
 40
15.0
 40
16.0
 40
16.0
 40
16.0
 40
17.0
 40
17.0
 40
17.0
 40
18.0
 40
18.0
 40
18.0
 40
19.0
 40
19.0
 40
19.0
 40
20.0
 40
20.0
 40
20.0
 40
21.0
 40
21.0
 40
21.0
 40
22.0
 40
22.0
 40
22.0
 40
23.0
 40
23.0
 40
23.0
 40
24.0
 40
24.0
 40
24.0
 40
25.0
 40
25.0
 40
25.0
 40
26.0
 40
26.0
 40
26.0
 40
27.0
 40
27.0
 40
27.0
 40
28.0
 40
28.0
 40
28.0
 40
29.0
 40
29.0
 40
29.0
 40
30.0
 40
30.0
 40
30.0
 40
31.0
 40
31.0
 40
31.0
 40
32.0
 40
32.0
 40
32.0
 40
33.0
 40
33.0
 40
33.0
 40
34.0
 40
34.0
 40
34.0
 40
35.0
 40
35.0
 40
35.0
 40
36.0
 40
36.0
 40
36.0
 40
37.0
 40
37.0
 40
37.0
 40
38.0
 40
38.0
 40
38.0
 40
39.0
 40
39.0
 40
39.0
 40
40.0
 40
40.0
 40
40.0
 40
41.0
 40
41.0
 40
41.0
 40
42.0
 40
42.0
 40
42.0
 40
43.0
 40
43.0
 40
43.0
 40
44.0
 40
44.0
 40
44.0
 40
45.0
 40
45.0
 40
45.0
 40
46.0
 40
46.0
 40
46.0
 40
47.0
 40
47.0
 40
47.0
 40
48.0
 40
48.0
 40
48.0
 40
49.0
 40
49.0
 40
49.0
 40
50.0
 40
50.0
 40
50.0
 40
51.0
 40
51.0
 40
51.0
 40
52.0
 40
52.0
 40
52.0
 40
53.0
 40
53.0
 40
53.0
 40
54.0
 40
54.0
 40
54.0
 40
55.0
 40
55.0
 40
55.0
 40
56.0
 40
56.0
 40
56.0
 40
57.0
 40
57.0
 40
57.0
 40
58.0
 40
58.0
 40
58.0
 40
59.0
 40
59.0
 40
59.0
 40
60.0
 40
60.0
 40
60.0
 40
61.0
 40
61.0
 40
61.0
 40
62.0
 40
62.0
 40
62.0
 40
63.0
 40
63.0
 40
63.0
 40
64.0
 40
64.0
 40
64.0
 40
65.0
 40
65.0
 40
65.0
 40
66.0
 40
66.0
 40
66.0
 40
67.0
 40
67.0
 40
67.0
 40
68.0
 40
68.0
 40
68.0
 40
69.0
 40
69.0
 40
69.0
 40
70.0
 40
70.0
 40
70.0
 40
71.0
 40
71.0
 40
71.0
 40
72.0
 40
72.0
 40
72.0
 40
73.0
 40
73.0
 40
73.0
 40
74.0
 40
74.0
 40
74.0
 40
75.0
 40
75.0
 40
75.0
 40
76.0
 40
76.0
 40
76.0
 40
76.0
 10
-144.3767782409873
 20
3.655779952622915
 30
0.0
 10
-144.2342037100407
 20
4.873873556630337
 30
0.0
 10
-144.0213435412032
 20
6.088017886188066
 30
0.0
 10
-143.7400865178867
 20
7.289742033802586
 30
0.0
 10
-143.4691319496509
 20
8.447451803944385
 30
0.0
 10
-143.1313831310542
 20
9.592626920420938
 30
0.0
 10
-142.7353109696178
 20
10.71977274053026
 30
0.0
 10
-142.7202007021872
 20
10.76264240077749
 30
0.0
 10
-142.7085245864497
 20
10.80648507067326
 30
0.0
 10
-142.6932426114338
 20
10.84929749506364
 30
0.0
 10
-139.4875764817044
 20
19.85209785471721
 30
0.0
 10
-132.552421617987
 20
26.99198539494054
 30
0.0
 10
-123.6660962364447
 20
30.43827108633395
 30
0.0
 10
-119.8608272218531
 20
31.91404053871548
 30
0.0
 10
-115.8817328959608
 20
32.6622849558358
 30
0.0
 10
-111.8393357072654
 20
32.6622849558358
 30
0.0
 10
-106.4941358395808
 20
32.6622849558358
 30
0.0
 10
-101.1572351718051
 20
31.32668612821205
 30
0.0
 10
-96.40637248972112
 20
28.80035243837902
 30
0.0
 10
-95.62733517912647
 20
28.38585032954949
 30
0.0
 10
-94.87199351518604
 20
27.93305742939007
 30
0.0
 10
-94.13273512832381
 20
27.45771359980099
 30
0.0
 10
-94.0018939489806
 20
27.37363411928856
 30
0.0
 10
-93.86733243863689
 20
27.29493480975863
 30
0.0
 10
-93.73775044824828
 20
27.20908101753572
 30
0.0
 10
-92.8762934971319
 20
26.63775264824689
 30
0.0
 10
-92.04351171260682
 20
26.02716047799121
 30
0.0
 10
-91.2415800574193
 20
25.38228402670256
 30
0.0
 10
-90.92953014063009
 20
25.13136200997797
 30
0.0
 10
-90.61438948732826
 20
24.88370243736123
 30
0.0
 10
-90.31252755388845
 20
24.62190560695214
 30
0.0
 10
-86.3055593634492
 20
21.14894800411333
 30
0.0
 10
-83.16994992816999
 20
16.68930138523542
 30
0.0
 10
-81.24476449144998
 20
11.72512064741259
 30
0.0
 10
-80.82974725987126
 20
10.65498174534028
 30
0.0
 10
-80.46864620979098
 20
9.547925712606378
 30
0.0
 10
-80.16443760603692
 20
8.415972080128566
 30
0.0
 10
-80.16397971914493
 20
8.414255004290334
 30
0.0
 10
-80.1634073605232
 20
8.412652400165152
 30
0.0
 10
-80.16294947363155
 20
8.410935324317934
 30
0.0
 10
-80.38170493620778
 20
8.241230995033069
 30
0.0
 10
-80.61230822210646
 20
8.071641137469599
 30
0.0
 10
-80.83673003497031
 20
7.901994044047999
 30
0.0
 10
-81.03047342607162
 20
7.755527474526939
 30
0.0
 10
-81.22043925032683
 20
7.609003669139406
 30
0.0
 10
-81.41830362345512
 20
7.462651571331398
 30
0.0
 10
-81.74368949597186
 20
7.221917537955883
 30
0.0
 10
-82.07983571043437
 20
6.981469683877436
 30
0.0
 10
-82.41609639662597
 20
6.74113630153065
 30
0.0
 10
-82.59232561411756
 20
6.615160170409889
 30
0.0
 10
-82.76346083994262
 20
6.489012331714738
 30
0.0
 10
-82.94260908637019
 20
6.363150672316012
 30
0.0
 10
-83.38681660731436
 20
6.051100755534811
 30
0.0
 10
-83.84270024399505
 20
5.739737669089032
 30
0.0
 10
-84.30436470268441
 20
5.428832469533321
 30
0.0
 10
-84.38397978600827
 20
5.375202467324908
 30
0.0
 10
-84.45976006660158
 20
5.321286285807235
 30
0.0
 10
-84.53994750853722
 20
5.267656283608447
 30
0.0
 10
-85.08540526843296
 20
4.902892138401535
 30
0.0
 10
-85.64322597440703
 20
4.539215474555565
 30
0.0
 10
-86.21129189959667
 20
4.176740763807973
 30
0.0
 10
-86.37367003861223
 20
4.073143854533504
 30
0.0
 10
-86.54234412239203
 20
3.970519954897299
 30
0.0
 10
-86.70649657311036
 20
3.867151989072676
 30
0.0
 10
-87.11573298268969
 20
3.609476140691515
 30
0.0
 10
-87.52605687362835
 20
3.351914764029823
 30
0.0
 10
-87.94605362517016
 20
3.095841519774486
 30
0.0
 10
-88.16732746564625
 20
2.960879358403026
 30
0.0
 10
-88.39501172260865
 20
2.827176385988074
 30
0.0
 10
-88.61920459202103
 20
2.692672111518873
 30
0.0
 10
-88.99163834266849
 20
2.469337780024954
 30
0.0
 10
-89.36412932918019
 20
2.246003448530393
 30
0.0
 10
-89.74428992112217
 20
2.024214485297751
 30
0.0
 10
-89.99275079580277
 20
1.879236048171495
 30
0.0
 10
-90.24630566215858
 20
1.735402328270729
 30
0.0
 10
-90.49797174508089
 20
1.5911679573438
 30
0.0
 10
-90.86342272062998
 20
1.381684704332974
 30
0.0
 10
-91.22938881892595
 20
1.17237315890103
 30
0.0
 10
-91.60136468268047
 20
0.9644352741527637
 30
0.0
 10
-91.86779761786279
 20
0.8155075625755333
 30
0.0
 10
-92.13812259162995
 20
0.6676673323791377
 30
0.0
 10
-92.40776073505559
 20
0.5196553945955176
 30
0.0
 10
-92.77349788991072
 20
0.3189292283861859
 30
0.0
 10
-93.14049423371978
 20
0.1185464773480946
 30
0.0
 10
-93.51195497471872
 20
-0.080462613012736
 30
0.0
 10
-93.79178110148414
 20
-0.230363334228873
 30
0.0
 10
-94.07435454961113
 20
-0.3794627533804938
 30
0.0
 10
-94.35732864876428
 20
-0.5283332290906105
 30
0.0
 10
-94.72964792769035
 20
-0.7241943470765328
 30
0.0
 10
-95.10402769762492
 20
-0.9193113988528608
 30
0.0
 10
-95.48155543993731
 20
-1.113226497549419
 30
0.0
 10
-95.76762027561271
 20
-1.260150953963755
 30
0.0
 10
-96.05528771540493
 20
-1.406503051763421
 30
0.0
 10
-96.34427158001692
 20
-1.552282790953551
 30
0.0
 10
-96.72609201194255
 20
-1.744938700694243
 30
0.0
 10
-97.11071700108208
 20
-1.936278185615162
 30
0.0
 10
-97.49740248124105
 20
-2.126759132618569
 30
0.0
 10
-97.79085074304196
 20
-2.271279682853474
 30
0.0
 10
-98.08487136346395
 20
-2.415514053780403
 30
0.0
 10
-98.38095247489446
 20
-2.558718179204519
 30
0.0
 10
-98.77244576741292
 20
-2.748054408981795
 30
0.0
 10
-99.16725873989513
 20
-2.935616327047948
 30
0.0
 10
-99.56321642961022
 20
-3.122605886501998
 30
0.0
 10
-99.85889689001487
 20
-3.26226138851221
 30
0.0
 10
-100.1542911711029
 20
-3.401916890521138
 30
0.0
 10
-100.4523755376863
 20
-3.540141495989543
 30
0.0
 10
-100.8593797486718
 20
-3.728790895425622
 30
0.0
 10
-101.2700470547821
 20
-3.915036388680986
 30
0.0
 10
-101.6812294836488
 20
-4.100938466765752
 30
0.0
 10
-101.9737619716657
 20
-4.233210542640821
 30
0.0
 10
-102.2651497424575
 20
-4.366226684722918
 30
0.0
 10
-102.5596854856363
 20
-4.497010628203183
 30
0.0
 10
-102.9958799859687
 20
-4.690754019304176
 30
0.0
 10
-103.4361954683284
 20
-4.881234966306941
 30
0.0
 10
-103.876568186551
 20
-5.071601441588954
 30
0.0
 10
-104.1502700761378
 20
-5.189965203132426
 30
0.0
 10
-104.4222548898873
 20
-5.309702625342891
 30
0.0
 10
-104.6975021477444
 20
-5.426692726210386
 30
0.0
 10
-105.1845220930706
 20
-5.633772073040498
 30
0.0
 10
-105.6759491997285
 20
-5.836558730257379
 30
0.0
 10
-106.1673763063961
 20
-6.03923091575479
 30
0.0
 10
-106.4028446405201
 20
-6.136302936823181
 30
0.0
 10
-106.6362524836347
 20
-6.235492684775217
 30
0.0
 10
-106.8726365915417
 20
-6.331534460329886
 30
0.0
 10
-107.1990527095546
 20
-6.464149951376837
 30
0.0
 10
-107.5291891585669
 20
-6.592243809369695
 30
0.0
 10
-107.8573223524256
 20
-6.722856045264019
 30
0.0
 10
-108.2609496475829
 20
-6.883517108441337
 30
0.0
 10
-108.662516451721
 20
-7.046753785375685
 30
0.0
 10
-109.0685476530567
 20
-7.204209640310338
 30
0.0
 10
-109.3278261055557
 20
-7.304773048928727
 30
0.0
 10
-109.5875624449453
 20
-7.399727343123095
 30
0.0
 10
-109.8470126050302
 20
-7.498688147614377
 30
0.0
 10
-110.3256761145824
 20
-7.681213309871822
 30
0.0
 10
-110.8041679165493
 20
-7.865054896947113
 30
0.0
 10
-111.2831176054065
 20
-8.04197094478118
 30
0.0
 10
-111.515666910594
 20
-8.127881972859659
 30
0.0
 10
-111.7481589799248
 20
-8.209614783048227
 30
0.0
 10
-111.9807082851206
 20
-8.294209386317202
 30
0.0
 10
-112.4846128095792
 20
-8.477478614770765
 30
0.0
 10
-112.9884028623171
 20
-8.660461663928545
 30
0.0
 10
-113.4919639716142
 20
-8.837434947617532
 30
0.0
 10
-113.7781432790103
 20
-8.937998356235921
 30
0.0
 10
-114.063750227794
 20
-9.034440782826377
 30
0.0
 10
-114.3497578276046
 20
-9.132943700434649
 30
0.0
 10
-114.8004902367552
 20
-9.28816735676683
 30
0.0
 10
-115.2511654100405
 20
-9.443391013099009
 30
0.0
 10
-115.7010392812714
 20
-9.593463441900446
 30
0.0
 10
-116.0054195926114
 20
-9.694999860157741
 30
0.0
 10
-116.309055837762
 20
-9.792873183288723
 30
0.0
 10
-116.6129782622196
 20
-9.892005695376212
 30
0.0
 10
-117.0433919405434
 20
-10.03240526358383
 30
0.0
 10
-117.4737483830022
 20
-10.17223247317805
 30
0.0
 10
-117.9029028723713
 20
-10.30770975729579
 30
0.0
 10
-118.2163264498368
 20
-10.40661332593279
 30
0.0
 10
-118.5288914893727
 20
-10.50265510149644
 30
0.0
 10
-118.8415137647756
 20
-10.59898305636679
 30
0.0
 10
-119.2592783177136
 20
-10.72770650882859
 30
0.0
 10
-119.6765277478951
 20
-10.85505630062212
 30
0.0
 10
-120.0926324608514
 20
-10.97897194072507
 30
0.0
 10
-120.4086888879376
 20
-11.07312493285685
 30
0.0
 10
-120.7237723053752
 20
-11.16504572639449
 30
0.0
 10
-121.0387984869569
 20
-11.25639416131105
 30
0.0
 10
-121.4519841709766
 20
-11.37618881939505
 30
0.0
 10
-121.8643113170782
 20
-11.49392298645224
 30
0.0
 10
-122.2753792742235
 20
-11.60890983216775
 30
0.0
 10
-122.5868568323917
 20
-11.69602281333691
 30
0.0
 10
-122.897647560226
 20
-11.78181936969528
 30
0.0
 10
-123.2078086935747
 20
-11.86612779365692
 30
0.0
 10
-123.6185332355491
 20
-11.97779495940003
 30
0.0
 10
-124.0277124092719
 20
-12.08642862448513
 30
0.0
 10
-124.435861337473
 20
-12.19305903442595
 30
0.0
 10
-124.7442481591275
 20
-12.27364712738903
 30
0.0
 10
-125.0523488014668
 20
-12.35383456931632
 30
0.0
 10
-125.3591330189958
 20
-12.43156086920733
 30
0.0
 10
-125.7685983720243
 20
-12.5352722502032
 30
0.0
 10
-126.1757742905868
 20
-12.6350343567667
 30
0.0
 10
-126.5822633788142
 20
-12.73353727436855
 30
0.0
 10
-126.8799470943622
 20
-12.80571169570073
 30
0.0
 10
-127.1779742250904
 20
-12.87845847563732
 30
0.0
 10
-127.4739408647915
 20
-12.94782833974594
 30
0.0
 10
-127.8911330591171
 20
-13.04564442702136
 30
0.0
 10
-128.3048911017499
 20
-13.1383665226139
 30
0.0
 10
-128.7183057292197
 20
-13.2305162595924
 30
0.0
 10
-128.9987042145989
 20
-13.29301782033333
 30
0.0
 10
-129.2801901813559
 20
-13.35717922104473
 30
0.0
 10
-129.5586998833115
 20
-13.4170479321551
 30
0.0
 10
-129.9948943836529
 20
-13.51080027326072
 30
0.0
 10
-130.4263955433369
 20
-13.59825666959983
 30
0.0
 10
-130.8577249954449
 20
-13.68548412248974
 30
0.0
 10
-131.1077312383858
 20
-13.73608062404207
 30
0.0
 10
-131.3598552082101
 20
-13.78942444693674
 30
0.0
 10
-131.6081443753051
 20
-13.83778874989494
 30
0.0
 10
-132.0931038296125
 20
-13.93222792133277
 30
0.0
 10
-132.5717673391647
 20
-14.01911195906042
 30
0.0
 10
-133.0498012542393
 20
-14.10508022299639
 30
0.0
 10
-133.2400532578012
 20
-14.13925003229769
 30
0.0
 10
-133.4331670544342
 20
-14.17708293674327
 30
0.0
 10
-133.6222171048964
 20
-14.20993632122544
 30
0.0
 10
-134.2864392773628
 20
-14.3253810538323
 30
0.0
 10
-134.9439648540358
 20
-14.43281276582929
 30
0.0
 10
-135.593019523215
 20
-14.53120121170719
 30
0.0
 10
-135.678072013366
 20
-14.54407928054303
 30
0.0
 10
-135.7604916538961
 20
-14.5541527921643
 30
0.0
 10
-135.8453152006156
 20
-14.56674468169409
 30
0.0
 10
-136.4055398127694
 20
-14.65002286014329
 30
0.0
 10
-136.9613572635915
 20
-14.72855046208856
 30
0.0
 10
-137.5090472220894
 20
-14.79877886412367
 30
0.0
 10
-137.72763097708
 20
-14.82676720039142
 30
0.0
 10
-137.9405483817827
 20
-14.84920365809071
 30
0.0
 10
-138.1570144098993
 20
-14.87513150334064
 30
0.0
 10
-138.5653922815506
 20
-14.92406816490131
 30
0.0
 10
-138.9736556814813
 20
-14.97283311888567
 30
0.0
 10
-139.3743067118361
 20
-15.01427188259303
 30
0.0
 10
-139.6202492086153
 20
-15.03968460509411
 30
0.0
 10
-139.8605253551068
 20
-15.05965992074943
 30
0.0
 10
-140.1034915870858
 20
-15.08221085016946
 30
0.0
 10
-140.3828598269605
 20
-15.10813869541875
 30
0.0
 10
-140.666749699897
 20
-15.13830199442378
 30
0.0
 10
-140.9419969577543
 20
-15.16039503695247
 30
0.0
 10
-140.9427982598176
 20
-15.15879243283563
 30
0.0
 10
-140.9434850901511
 20
-15.157247064575
 30
0.0
 10
-140.9442863922136
 20
-15.15564446044725
 30
0.0
 10
-141.4838488583797
 20
-14.11355113049953
 30
0.0
 10
-141.9635426134363
 20
-13.05251273039932
 30
0.0
 10
-142.3781591939875
 20
-11.98351854554416
 30
0.0
 10
-144.3308178442175
 20
-6.948422575360411
 30
0.0
 10
-145.0033392166016
 20
-1.686958773017677
 30
0.0
 10
-144.3767782409873
 20
3.655779952622915
 30
0.0
  0
SPLINE
  5
7C
330
70
100
AcDbEntity
  8
Layer 1
100
AcDbSpline
210
0.0
220
0.0
230
1.0
 70
    11
 71
     3
 72
    53
 73
    49
 74
     0
 42
0.0000000001
 43
0.0000000001
 40
0.0
 40
0.0
 40
0.0
 40
0.0
 40
1.0
 40
1.0
 40
1.0
 40
2.0
 40
2.0
 40
2.0
 40
3.0
 40
3.0
 40
3.0
 40
4.0
 40
4.0
 40
4.0
 40
5.0
 40
5.0
 40
5.0
 40
6.0
 40
6.0
 40
6.0
 40
7.0
 40
7.0
 40
7.0
 40
8.0
 40
8.0
 40
8.0
 40
9.0
 40
9.0
 40
9.0
 40
10.0
 40
10.0
 40
10.0
 40
11.0
 40
11.0
 40
11.0
 40
12.0
 40
12.0
 40
12.0
 40
13.0
 40
13.0
 40
13.0
 40
14.0
 40
14.0
 40
14.0
 40
15.0
 40
15.0
 40
15.0
 40
16.0
 40
16.0
 40
16.0
 40
16.0
 10
-119.8301488001002
 20
76.5603019269855
 30
0.0
 10
-119.8301488001002
 20
76.5603019269855
 30
0.0
 10
-108.7197523132001
 20
71.27909175243859
 30
0.0
 10
-108.7197523132001
 20
71.27909175243859
 30
0.0
 10
-108.7197523132001
 20
71.27909175243859
 30
0.0
 10
-104.5977400411892
 20
82.86946817370191
 30
0.0
 10
-104.5977400411892
 20
82.86946817370191
 30
0.0
 10
-104.5977400411892
 20
82.86946817370191
 30
0.0
 10
-100.4757850050351
 20
71.27909175243859
 30
0.0
 10
-100.4757850050351
 20
71.27909175243859
 30
0.0
 10
-100.4757850050351
 20
71.27909175243859
 30
0.0
 10
-89.36533128227024
 20
76.5603019269855
 30
0.0
 10
-89.36533128227024
 20
76.5603019269855
 30
0.0
 10
-89.36533128227024
 20
76.5603019269855
 30
0.0
 10
-94.64728552301615
 20
65.4494475531845
 30
0.0
 10
-94.64728552301615
 20
65.4494475531845
 30
0.0
 10
-94.64728552301615
 20
65.4494475531845
 30
0.0
 10
-83.05599332796854
 20
61.32743528117483
 30
0.0
 10
-83.05599332796854
 20
61.32743528117483
 30
0.0
 10
-83.05599332796854
 20
61.32743528117483
 30
0.0
 10
-94.64728552301615
 20
57.20570918847057
 30
0.0
 10
-94.64728552301615
 20
57.20570918847057
 30
0.0
 10
-94.64728552301615
 20
57.20570918847057
 30
0.0
 10
-89.36533128227024
 20
46.09594229603885
 30
0.0
 10
-89.36533128227024
 20
46.09594229603885
 30
0.0
 10
-89.36533128227024
 20
46.09594229603885
 30
0.0
 10
-100.4757850050351
 20
51.37715247059411
 30
0.0
 10
-100.4757850050351
 20
51.37715247059411
 30
0.0
 10
-100.4757850050351
 20
51.37715247059411
 30
0.0
 10
-104.5977400411892
 20
39.78660434173652
 30
0.0
 10
-104.5977400411892
 20
39.78660434173652
 30
0.0
 10
-104.5977400411892
 20
39.78660434173652
 30
0.0
 10
-108.7197523132001
 20
51.37715247059411
 30
0.0
 10
-108.7197523132001
 20
51.37715247059411
 30
0.0
 10
-108.7197523132001
 20
51.37715247059411
 30
0.0
 10
-119.8301488001002
 20
46.09594229603885
 30
0.0
 10
-119.8301488001002
 20
46.09594229603885
 30
0.0
 10
-119.8301488001002
 20
46.09594229603885
 30
0.0
 10
-114.5482517952105
 20
57.20570918847057
 30
0.0
 10
-114.5482517952105
 20
57.20570918847057
 30
0.0
 10
-114.5482517952105
 20
57.20570918847057
 30
0.0
 10
-126.1395439902674
 20
61.32743528117483
 30
0.0
 10
-126.1395439902674
 20
61.32743528117483
 30
0.0
 10
-126.1395439902674
 20
61.32743528117483
 30
0.0
 10
-114.5482517952105
 20
65.4494475531845
 30
0.0
 10
-114.5482517952105
 20
65.4494475531845
 30
0.0
 10
-114.5482517952105
 20
65.4494475531845
 30
0.0
 10
-119.8301488001002
 20
76.5603019269855
 30
0.0
 10
-119.8301488001002
 20
76.5603019269855
 30
0.0
  0
SPLINE
  5
7D
330
70
100
AcDbEntity
  8
Layer 1
100
AcDbSpline
210
0.0
220
0.0
230
1.0
 70
     9
 71
     3
 72
    47
 73
    43
 74
     0
 42
0.0000000001
 43
0.0000000001
 40
0.0
 40
0.0
 40
0.0
 40
0.0
 40
1.0
 40
1.0
 40
1.0
 40
2.0
 40
2.0
 40
2.0
 40
3.0
 40
3.0
 40
3.0
 40
4.0
 40
4.0
 40
4.0
 40
5.0
 40
5.0
 40
5.0
 40
6.0
 40
6.0
 40
6.0
 40
7.0
 40
7.0
 40
7.0
 40
8.0
 40
8.0
 40
8.0
 40
9.0
 40
9.0
 40
9.0
 40
10.0
 40
10.0
 40
10.0
 40
11.0
 40
11.0
 40
11.0
 40
12.0
 40
12.0
 40
12.0
 40
13.0
 40
13.0
 40
13.0
 40
14.0
 40
14.0
 40
14.0
 40
14.0
 10
-56.76573060297934
 20
2.184074246411836
 30
0.0
 10
-47.37572964041924
 20
11.21886945263006
 30
0.0
 10
-43.52753372972481
 20
19.9894639222681
 30
0.0
 10
-46.27657215656675
 20
27.0780108947494
 30
0.0
 10
-48.10502898738932
 20
31.79275774824438
 30
0.0
 10
-53.42172539605025
 20
37.33055628980381
 30
0.0
 10
-68.08526692772665
 20
38.27523418351318
 30
0.0
 10
-68.08526692772665
 20
38.27523418351318
 30
0.0
 10
-83.59755904927785
 20
87.73434469185195
 30
0.0
 10
-83.59755904927785
 20
87.73434469185195
 30
0.0
 10
-83.59755904927785
 20
87.73434469185195
 30
0.0
 10
-140.8579747130984
 20
87.73434469185195
 30
0.0
 10
-140.8579747130984
 20
87.73434469185195
 30
0.0
 10
-140.8579747130984
 20
87.73434469185195
 30
0.0
 10
-167.5717828130343
 20
1.199560193104258
 30
0.0
 10
-167.5717828130343
 20
1.199560193104258
 30
0.0
 10
-177.3616335038863
 20
-7.99269086804862
 30
0.0
 10
-181.3821665935039
 20
-16.92989893044897
 30
0.0
 10
-178.5542571495377
 20
-24.22174768290626
 30
0.0
 10
-178.1080463734406
 20
-25.37230297035442
 30
0.0
 10
-177.4525812877851
 20
-26.57179491937417
 30
0.0
 10
-176.5061863182205
 20
-27.74186763559527
 30
0.0
 10
-176.5061863182205
 20
-27.74186763559527
 30
0.0
 10
-192.9870236877208
 20
-81.12878913794752
 30
0.0
 10
-192.9870236877208
 20
-81.12878913794752
 30
0.0
 10
-192.9870236877208
 20
-81.12878913794752
 30
0.0
 10
-146.1378684628362
 20
-81.12878913794752
 30
0.0
 10
-146.1378684628362
 20
-81.12878913794752
 30
0.0
 10
-146.1378684628362
 20
-81.12878913794752
 30
0.0
 10
-136.3585491704965
 20
-49.02719768938906
 30
0.0
 10
-136.3585491704965
 20
-49.02719768938906
 30
0.0
 10
-136.3585491704965
 20
-49.02719768938906
 30
0.0
 10
-97.17733954384934
 20
-49.02719768938906
 30
0.0
 10
-97.17733954384934
 20
-49.02719768938906
 30
0.0
 10
-97.17733954384934
 20
-49.02719768938906
 30
0.0
 10
-87.97175252696829
 20
-81.12878913794752
 30
0.0
 10
-87.97175252696829
 20
-81.12878913794752
 30
0.0
 10
-87.97175252696829
 20
-81.12878913794752
 30
0.0
 10
-30.63561381841028
 20
-81.12878913794752
 30
0.0
 10
-30.63561381841028
 20
-81.12878913794752
 30
0.0
 10
-30.63561381841028
 20
-81.12878913794752
 30
0.0
 10
-56.76573060297934
 20
2.184074246411836
 30
0.0
 10
-56.76573060297934
 20
2.184074246411836
 30
0.0
  0
HATCH
  5
7E
330
70
100
AcDbEntity
  8
Layer 1
 62
     7
440
 33554687
100
AcDbHatch
 10
0.0
 20
0.0
 30
0.0
210
0.0
220
0.0
230
1.0
  2
SOLID
 70
     1
 71
     1
 91
        5
 92
        1
 93
        1
 72
     4
 94
        3
 73
     0
 74
     0
 95
      701
 96
      697
 40
0.0
 40
0.0
 40
0.0
 40
0.0
 40
1.0
 40
1.0
 40
1.0
 40
2.0
 40
2.0
 40
2.0
 40
3.0
 40
3.0
 40
3.0
 40
4.0
 40
4.0
 40
4.0
 40
5.0
 40
5.0
 40
5.0
 40
6.0
 40
6.0
 40
6.0
 40
7.0
 40
7.0
 40
7.0
 40
8.0
 40
8.0
 40
8.0
 40
9.0
 40
9.0
 40
9.0
 40
10.0
 40
10.0
 40
10.0
 40
11.0
 40
11.0
 40
11.0
 40
12.0
 40
12.0
 40
12.0
 40
13.0
 40
13.0
 40
13.0
 40
14.0
 40
14.0
 40
14.0
 40
15.0
 40
15.0
 40
15.0
 40
16.0
 40
16.0
 40
16.0
 40
17.0
 40
17.0
 40
17.0
 40
18.0
 40
18.0
 40
18.0
 40
19.0
 40
19.0
 40
19.0
 40
20.0
 40
20.0
 40
20.0
 40
21.0
 40
21.0
 40
21.0
 40
22.0
 40
22.0
 40
22.0
 40
23.0
 40
23.0
 40
23.0
 40
24.0
 40
24.0
 40
24.0
 40
25.0
 40
25.0
 40
25.0
 40
26.0
 40
26.0
 40
26.0
 40
27.0
 40
27.0
 40
27.0
 40
28.0
 40
28.0
 40
28.0
 40
29.0
 40
29.0
 40
29.0
 40
30.0
 40
30.0
 40
30.0
 40
31.0
 40
31.0
 40
31.0
 40
32.0
 40
32.0
 40
32.0
 40
33.0
 40
33.0
 40
33.0
 40
34.0
 40
34.0
 40
34.0
 40
35.0
 40
35.0
 40
35.0
 40
36.0
 40
36.0
 40
36.0
 40
37.0
 40
37.0
 40
37.0
 40
38.0
 40
38.0
 40
38.0
 40
39.0
 40
39.0
 40
39.0
 40
40.0
 40
40.0
 40
40.0
 40
41.0
 40
41.0
 40
41.0
 40
42.0
 40
42.0
 40
42.0
 40
43.0
 40
43.0
 40
43.0
 40
44.0
 40
44.0
 40
44.0
 40
45.0
 40
45.0
 40
45.0
 40
46.0
 40
46.0
 40
46.0
 40
47.0
 40
47.0
 40
47.0
 40
48.0
 40
48.0
 40
48.0
 40
49.0
 40
49.0
 40
49.0
 40
50.0
 40
50.0
 40
50.0
 40
51.0
 40
51.0
 40
51.0
 40
52.0
 40
52.0
 40
52.0
 40
53.0
 40
53.0
 40
53.0
 40
54.0
 40
54.0
 40
54.0
 40
55.0
 40
55.0
 40
55.0
 40
56.0
 40
56.0
 40
56.0
 40
57.0
 40
57.0
 40
57.0
 40
58.0
 40
58.0
 40
58.0
 40
59.0
 40
59.0
 40
59.0
 40
60.0
 40
60.0
 40
60.0
 40
61.0
 40
61.0
 40
61.0
 40
62.0
 40
62.0
 40
62.0
 40
63.0
 40
63.0
 40
63.0
 40
64.0
 40
64.0
 40
64.0
 40
65.0
 40
65.0
 40
65.0
 40
66.0
 40
66.0
 40
66.0
 40
67.0
 40
67.0
 40
67.0
 40
68.0
 40
68.0
 40
68.0
 40
69.0
 40
69.0
 40
69.0
 40
70.0
 40
70.0
 40
70.0
 40
71.0
 40
71.0
 40
71.0
 40
72.0
 40
72.0
 40
72.0
 40
73.0
 40
73.0
 40
73.0
 40
74.0
 40
74.0
 40
74.0
 40
75.0
 40
75.0
 40
75.0
 40
76.0
 40
76.0
 40
76.0
 40
77.0
 40
77.0
 40
77.0
 40
78.0
 40
78.0
 40
78.0
 40
79.0
 40
79.0
 40
79.0
 40
80.0
 40
80.0
 40
80.0
 40
81.0
 40
81.0
 40
81.0
 40
82.0
 40
82.0
 40
82.0
 40
83.0
 40
83.0
 40
83.0
 40
84.0
 40
84.0
 40
84.0
 40
85.0
 40
85.0
 40
85.0
 40
86.0
 40
86.0
 40
86.0
 40
87.0
 40
87.0
 40
87.0
 40
88.0
 40
88.0
 40
88.0
 40
89.0
 40
89.0
 40
89.0
 40
90.0
 40
90.0
 40
90.0
 40
91.0
 40
91.0
 40
91.0
 40
92.0
 40
92.0
 40
92.0
 40
93.0
 40
93.0
 40
93.0
 40
94.0
 40
94.0
 40
94.0
 40
95.0
 40
95.0
 40
95.0
 40
96.0
 40
96.0
 40
96.0
 40
97.0
 40
97.0
 40
97.0
 40
98.0
 40
98.0
 40
98.0
 40
99.0
 40
99.0
 40
99.0
 40
100.0
 40
100.0
 40
100.0
 40
101.0
 40
101.0
 40
101.0
 40
102.0
 40
102.0
 40
102.0
 40
103.0
 40
103.0
 40
103.0
 40
104.0
 40
104.0
 40
104.0
 40
105.0
 40
105.0
 40
105.0
 40
106.0
 40
106.0
 40
106.0
 40
107.0
 40
107.0
 40
107.0
 40
108.0
 40
108.0
 40
108.0
 40
109.0
 40
109.0
 40
109.0
 40
110.0
 40
110.0
 40
110.0
 40
111.0
 40
111.0
 40
111.0
 40
112.0
 40
112.0
 40
112.0
 40
113.0
 40
113.0
 40
113.0
 40
114.0
 40
114.0
 40
114.0
 40
115.0
 40
115.0
 40
115.0
 40
116.0
 40
116.0
 40
116.0
 40
117.0
 40
117.0
 40
117.0
 40
118.0
 40
118.0
 40
118.0
 40
119.0
 40
119.0
 40
119.0
 40
120.0
 40
120.0
 40
120.0
 40
121.0
 40
121.0
 40
121.0
 40
122.0
 40
122.0
 40
122.0
 40
123.0
 40
123.0
 40
123.0
 40
124.0
 40
124.0
 40
124.0
 40
125.0
 40
125.0
 40
125.0
 40
126.0
 40
126.0
 40
126.0
 40
127.0
 40
127.0
 40
127.0
 40
128.0
 40
128.0
 40
128.0
 40
129.0
 40
129.0
 40
129.0
 40
130.0
 40
130.0
 40
130.0
 40
131.0
 40
131.0
 40
131.0
 40
132.0
 40
132.0
 40
132.0
 40
133.0
 40
133.0
 40
133.0
 40
134.0
 40
134.0
 40
134.0
 40
135.0
 40
135.0
 40
135.0
 40
136.0
 40
136.0
 40
136.0
 40
137.0
 40
137.0
 40
137.0
 40
138.0
 40
138.0
 40
138.0
 40
139.0
 40
139.0
 40
139.0
 40
140.0
 40
140.0
 40
140.0
 40
141.0
 40
141.0
 40
141.0
 40
142.0
 40
142.0
 40
142.0
 40
143.0
 40
143.0
 40
143.0
 40
144.0
 40
144.0
 40
144.0
 40
145.0
 40
145.0
 40
145.0
 40
146.0
 40
146.0
 40
146.0
 40
147.0
 40
147.0
 40
147.0
 40
148.0
 40
148.0
 40
148.0
 40
149.0
 40
149.0
 40
149.0
 40
150.0
 40
150.0
 40
150.0
 40
151.0
 40
151.0
 40
151.0
 40
152.0
 40
152.0
 40
152.0
 40
153.0
 40
153.0
 40
153.0
 40
154.0
 40
154.0
 40
154.0
 40
155.0
 40
155.0
 40
155.0
 40
156.0
 40
156.0
 40
156.0
 40
157.0
 40
157.0
 40
157.0
 40
158.0
 40
158.0
 40
158.0
 40
159.0
 40
159.0
 40
159.0
 40
160.0
 40
160.0
 40
160.0
 40
161.0
 40
161.0
 40
161.0
 40
162.0
 40
162.0
 40
162.0
 40
163.0
 40
163.0
 40
163.0
 40
164.0
 40
164.0
 40
164.0
 40
165.0
 40
165.0
 40
165.0
 40
166.0
 40
166.0
 40
166.0
 40
167.0
 40
167.0
 40
167.0
 40
168.0
 40
168.0
 40
168.0
 40
169.0
 40
169.0
 40
169.0
 40
170.0
 40
170.0
 40
170.0
 40
171.0
 40
171.0
 40
171.0
 40
172.0
 40
172.0
 40
172.0
 40
173.0
 40
173.0
 40
173.0
 40
174.0
 40
174.0
 40
174.0
 40
175.0
 40
175.0
 40
175.0
 40
176.0
 40
176.0
 40
176.0
 40
177.0
 40
177.0
 40
177.0
 40
178.0
 40
178.0
 40
178.0
 40
179.0
 40
179.0
 40
179.0
 40
180.0
 40
180.0
 40
180.0
 40
181.0
 40
181.0
 40
181.0
 40
182.0
 40
182.0
 40
182.0
 40
183.0
 40
183.0
 40
183.0
 40
184.0
 40
184.0
 40
184.0
 40
185.0
 40
185.0
 40
185.0
 40
186.0
 40
186.0
 40
186.0
 40
187.0
 40
187.0
 40
187.0
 40
188.0
 40
188.0
 40
188.0
 40
189.0
 40
189.0
 40
189.0
 40
190.0
 40
190.0
 40
190.0
 40
191.0
 40
191.0
 40
191.0
 40
192.0
 40
192.0
 40
192.0
 40
193.0
 40
193.0
 40
193.0
 40
194.0
 40
194.0
 40
194.0
 40
195.0
 40
195.0
 40
195.0
 40
196.0
 40
196.0
 40
196.0
 40
197.0
 40
197.0
 40
197.0
 40
198.0
 40
198.0
 40
198.0
 40
199.0
 40
199.0
 40
199.0
 40
200.0
 40
200.0
 40
200.0
 40
201.0
 40
201.0
 40
201.0
 40
202.0
 40
202.0
 40
202.0
 40
203.0
 40
203.0
 40
203.0
 40
204.0
 40
204.0
 40
204.0
 40
205.0
 40
205.0
 40
205.0
 40
206.0
 40
206.0
 40
206.0
 40
207.0
 40
207.0
 40
207.0
 40
208.0
 40
208.0
 40
208.0
 40
209.0
 40
209.0
 40
209.0
 40
210.0
 40
210.0
 40
210.0
 40
211.0
 40
211.0
 40
211.0
 40
212.0
 40
212.0
 40
212.0
 40
213.0
 40
213.0
 40
213.0
 40
214.0
 40
214.0
 40
214.0
 40
215.0
 40
215.0
 40
215.0
 40
216.0
 40
216.0
 40
216.0
 40
217.0
 40
217.0
 40
217.0
 40
218.0
 40
218.0
 40
218.0
 40
219.0
 40
219.0
 40
219.0
 40
220.0
 40
220.0
 40
220.0
 40
221.0
 40
221.0
 40
221.0
 40
222.0
 40
222.0
 40
222.0
 40
223.0
 40
223.0
 40
223.0
 40
224.0
 40
224.0
 40
224.0
 40
225.0
 40
225.0
 40
225.0
 40
226.0
 40
226.0
 40
226.0
 40
227.0
 40
227.0
 40
227.0
 40
228.0
 40
228.0
 40
228.0
 40
229.0
 40
229.0
 40
229.0
 40
230.0
 40
230.0
 40
230.0
 40
231.0
 40
231.0
 40
231.0
 40
232.0
 40
232.0
 40
232.0
 40
232.0
 10
-76.07825498331059
 20
-7.726601348028862
 10
-76.07825498331059
 20
-7.726601348028862
 10
-76.07831221916711
 20
-7.726658583892768
 10
-76.07831221916711
 20
-7.726658583892768
 10
-77.97619614996252
 20
-8.89965032904214
 10
-79.95884639160387
 20
-10.05701668402104
 10
-82.01017966702002
 20
-11.19560967642697
 10
-82.25125711556612
 20
-11.32942712056395
 10
-82.49559700822009
 20
-11.46215708333037
 10
-82.73873494778339
 20
-11.59540216885398
 10
-89.0764618893777
 20
-15.06916107375666
 10
-96.09094565711259
 20
-18.35014959718828
 10
-103.6144279409717
 20
-21.26791934368453
 10
-104.897770427062
 20
-21.76564239510771
 10
-106.1774498180168
 20
-22.24573680119239
 10
-107.4521496890177
 20
-22.7082025619437
 10
-110.0016066668842
 20
-23.63319131931344
 10
-112.5314317442668
 20
-24.48772273119564
 10
-115.0317231171311
 20
-25.27191126932261
 10
-121.2823943134125
 20
-27.23235399671387
 10
-127.3488805074653
 20
-28.75288189276359
 10
-133.0781902415326
 20
-29.83401008025014
 10
-133.8694187906221
 20
-29.98333844285161
 10
-134.6520619604959
 20
-30.12162028418584
 10
-135.4298973179918
 20
-30.25406406764749
 10
-135.6694293982863
 20
-30.29481600102006
 10
-135.906557572391
 20
-30.33270614132185
 10
-136.1447159920098
 20
-30.37191270643442
 10
-136.6940657904897
 20
-30.46228813171015
 10
-137.240210380718
 20
-30.54877151840266
 10
-137.7822912247945
 20
-30.63061880031968
 10
-138.0378493462929
 20
-30.66919577095497
 10
-138.293121288495
 20
-30.7075437981481
 10
-138.5470195700124
 20
-30.74423198534959
 10
-139.1250445350923
 20
-30.82773910724928
 10
-139.6980327443628
 20
-30.90557987886104
 10
-140.267243386777
 20
-30.97929966844552
 10
-140.449825784898
 20
-31.00293807923677
 10
-140.634583145748
 20
-31.0289231603506
 10
-140.816249770086
 20
-31.05158856150102
 10
-141.5551075059198
 20
-31.14362382676006
 10
-142.2862384004588
 20
-31.22741712796452
 10
-143.0091273309346
 20
-31.30273952166712
 10
-143.1832960574167
 20
-31.32088328975509
 10
-143.3539733963507
 20
-31.33553567029372
 10
-143.5272263490486
 20
-31.3527064287428
 10
-144.0809260729976
 20
-31.40759561989745
 10
-144.630504814919
 20
-31.45830659317053
 10
-145.1741882631107
 20
-31.50323674442532
 10
-145.413491399955
 20
-31.52298311663912
 10
-145.6509629892397
 20
-31.54101241300635
 10
-145.8882628709307
 20
-31.55887000178828
 10
-146.3851273844264
 20
-31.59624501933225
 10
-146.8772985572924
 20
-31.62898393210393
 10
-147.3652342764013
 20
-31.65794527800994
 10
-147.5812424176266
 20
-31.67070887511477
 10
-147.7983380402115
 20
-31.68467442532182
 10
-148.0125718697339
 20
-31.69583541831173
 10
-148.6659764643809
 20
-31.72983352002773
 10
-149.3127989349574
 20
-31.75770738456446
 10
-149.9490900070205
 20
-31.77625180368887
 10
-149.9806269666922
 20
-31.77716757747221
 10
-150.0132514077422
 20
-31.7790563608951
 10
-150.0447311315493
 20
-31.77991489882352
 10
-150.7104414364204
 20
-31.7985165538035
 10
-151.3638460310675
 20
-31.80630063096544
 10
-152.0099244354445
 20
-31.80796047094555
 10
-152.0727694113464
 20
-31.80813217853213
 10
-152.1384189444648
 20
-31.81070779229686
 10
-152.2010349769246
 20
-31.81070779229686
 10
-152.3224322391171
 20
-31.81070779229686
 10
-152.4378197358594
 20
-31.80572827235077
 10
-152.5585301677171
 20
-31.80509867787412
 10
-153.0678148631663
 20
-31.80258029996367
 10
-153.5708608497068
 20
-31.79479622280301
 10
-154.0670957687246
 20
-31.78146026708416
 10
-154.2587214329615
 20
-31.77636627540898
 10
-154.4509766916674
 20
-31.77161569890504
 10
-154.6405991007514
 20
-31.76491910311302
 10
-155.268533737042
 20
-31.74253988127699
 10
-155.8886842961702
 20
-31.71397918639907
 10
-156.4942969464814
 20
-31.67402855508011
 10
-156.5116966483713
 20
-31.67288383785462
 10
-156.529840416458
 20
-31.67231147924188
 10
-156.5471828824827
 20
-31.67116676200804
 10
-157.1707103574404
 20
-31.62944181899464
 10
-157.7782117911838
 20
-31.57546840161371
 10
-158.3769561381161
 20
-31.51502733189123
 10
-158.5456874577531
 20
-31.49802828103901
 10
-158.7113280408768
 20
-31.4787397957172
 10
-158.8780561053692
 20
-31.46019537659407
 10
-159.33021941105
 20
-31.40999952607688
 10
-159.7748275830207
 20
-31.35419456113889
 10
-160.2119378571364
 20
-31.29300942521901
 10
-160.3663029755498
 20
-31.27137426958103
 10
-160.5223851698004
 20
-31.25105553875448
 10
-160.6749187406459
 20
-31.22804672243347
 10
-161.2397794575838
 20
-31.14287976055175
 10
-161.794394955315
 20
-31.05055831598794
 10
-162.3322403456433
 20
-30.9466179915403
 10
-162.3874157161053
 20
-30.93591488544367
 10
-162.4396720576391
 20
-30.92326576005703
 10
-162.4946184846589
 20
-30.9123909463828
 10
-162.9770023252019
 20
-30.81697876529644
 10
-163.446565332782
 20
-30.7127522615434
 10
-163.9062265363184
 20
-30.60200086957593
 10
-164.0524069265338
 20
-30.56680081477053
 10
-164.19618341057
 20
-30.53005539170129
 10
-164.3400171304701
 20
-30.49325273277007
 10
-164.7342005084744
 20
-30.39246038070184
 10
-165.1192833845069
 20
-30.28577273490417
 10
-165.4955519378736
 20
-30.17336150296302
 10
-165.6087644718768
 20
-30.13953510882333
 10
-165.7248387989622
 20
-30.10765473398071
 10
-165.8363342571187
 20
-30.07274085848072
 10
-166.3085873501856
 20
-29.92512957172519
 10
-166.7671610723617
 20
-29.76887566988827
 10
-167.2092508664229
 20
-29.60237654884608
 10
-167.2898961952511
 20
-29.57204154225639
 10
-167.3657909475742
 20
-29.53873027088094
 10
-167.4453487950232
 20
-29.50776566981268
 10
-167.8064498450951
 20
-29.36719439401976
 10
-168.1567333173477
 20
-29.22004099416585
 10
-168.4964853910887
 20
-29.0664771778157
 10
-168.6159366340018
 20
-29.01250376043412
 10
-168.7338997445092
 20
-28.95761456927946
 10
-168.8507181377917
 20
-28.90198131191779
 10
-169.1791375109581
 20
-28.74567017422466
 10
-169.4968537780259
 20
-28.58289138417332
 10
-169.8036952314199
 20
-28.41387388522195
 10
-169.8764420113564
 20
-28.37380878219058
 10
-169.9530808298775
 20
-28.33597587775463
 10
-170.0246256567244
 20
-28.29516670851558
 10
-170.3925950101736
 20
-28.08528280446961
 10
-170.743164661742
 20
-27.86538262466949
 10
-171.077994451393
 20
-27.63666812220332
 10
-171.1566937609243
 20
-27.58292364827287
 10
-171.2298984277612
 20
-27.52620290954126
 10
-171.3067089538592
 20
-27.47137095425115
 10
-171.5632400850165
 20
-27.28838790509466
 10
-171.8095259969582
 20
-27.09962403393719
 10
-172.0449370952254
 20
-26.90502210490841
 10
-172.1330230860344
 20
-26.83216085325044
 10
-172.2208228975464
 20
-26.75918512986272
 10
-172.3059326235709
 20
-26.68472127408148
 10
-172.5597736692234
 20
-26.46258889567568
 10
-172.8014234763916
 20
-26.23387439320181
 10
-173.0281919595697
 20
-25.9972041059884
 10
-173.0621328254305
 20
-25.96177510772994
 10
-173.1000229657323
 20
-25.92857830807718
 10
-173.1333342371148
 20
-25.89286313051396
 10
-173.3867746317411
 20
-25.62105002434943
 10
-173.6186371065938
 20
-25.33778974588124
 10
-173.8360761443506
 20
-25.04714604129651
 10
-173.8950863175412
 20
-24.96816055244963
 10
-173.9488307914713
 20
-24.88642774226235
 10
-174.0051508791665
 20
-24.80606859274141
 10
-174.1634652720116
 20
-24.58027311921186
 10
-174.3111337946333
 20
-24.34904023883524
 10
-174.4478130318407
 20
-24.11225547989209
 10
-174.4997259582035
 20
-24.02233794150708
 10
-174.5528980735212
 20
-23.93304999759999
 10
-174.6016057916414
 20
-23.84152985509749
 10
-174.7576879858917
 20
-23.5485967160451
 10
-174.900663167864
 20
-23.24925316050546
 10
-175.0238347417677
 20
-22.94006503679568
 10
-175.033908253388
 20
-22.91470955016171
 10
-175.0471869732506
 20
-22.89095666764971
 10
-175.0570315414307
 20
-22.86548670929241
 10
-176.7796592643657
 20
-18.4235832074667
 10
-174.8530429311135
 20
-12.9127999925252
 10
-170.1193510074779
 20
-7.052820786698755
 10
-165.0470517273268
 20
-0.7736461313937502
 10
-156.7504274266016
 20
5.906694677021942
 10
-146.2269274633021
 20
12.10757067382383
 10
-146.4567866830027
 20
11.46189292047324
 10
-146.6689027856431
 20
10.80974751477983
 10
-146.8627034126093
 20
10.15176405121448
 10
-147.1534043530685
 20
9.164788855862921
 10
-147.4031244167028
 20
8.164821119961828
 10
-147.6102037635329
 20
7.154035806234365
 10
-147.8173403462275
 20
6.143250492515886
 10
-147.9818362121162
 20
5.121762072696923
 10
-148.1023749363889
 20
4.091688273649572
 10
-151.4297245076267
 20
1.610971565422153
 10
-154.1733827634955
 20
-0.859614395329077
 10
-156.209605771481
 20
-3.220193030318585
 10
-156.8883086169
 20
-4.007014418076121
 10
-157.4884266245083
 20
-4.781701803201631
 10
-158.0053809253894
 20
-5.540420382971311
 10
-158.780755140849
 20
-6.678498252619415
 10
-159.3690253251358
 20
-7.78074647298419
 10
-159.7546233239242
 20
-8.834687626266219
 10
-160.0438933678339
 20
-9.625114873291938
 10
-160.2190923398294
 20
-10.38841232197897
 10
-160.2737525875339
 20
-11.11931427307584
 10
-160.2920108273522
 20
-11.36291009953112
 10
-160.2968758755763
 20
-11.60295730257313
 10
-160.2880615529109
 20
-11.83916970289391
 10
-160.2646520855621
 20
-12.46905035847269
 10
-160.1442278330104
 20
-13.07191568743226
 10
-159.9223243980564
 20
-13.64410259464822
 10
-159.9218665111641
 20
-13.64524731187307
 10
-159.9212369166868
 20
-13.64627755737781
 10
-159.9207790297958
 20
-13.64742227461292
 10
-159.8275990473116
 20
-13.88729777006836
 10
-159.7155312305333
 20
-14.11812999941817
 10
-159.5890972125222
 20
-14.34192221780344
 10
-159.5466854391669
 20
-14.41695843219935
 10
-159.4939139748856
 20
-14.48695789078398
 10
-159.4478391063957
 20
-14.56021979347774
 10
-159.3556893694076
 20
-14.706686363011
 10
-159.2629100379502
 20
-14.85275228150461
 10
-159.1562796280177
 20
-14.99200713247839
 10
-159.0930912369453
 20
-15.07454124473854
 10
-159.0205734004498
 20
-15.15238201634966
 10
-158.9522910177015
 20
-15.2324549865562
 10
-158.8478928063632
 20
-15.3549397301167
 10
-158.7428650005572
 20
-15.47708105851493
 10
-158.6268479093376
 20
-15.59361327249236
 10
-158.5463742880952
 20
-15.67448754476213
 10
-158.4585744765842
 20
-15.75164148603013
 10
-158.3726062126403
 20
-15.8296539652272
 10
-158.2532694414566
 20
-15.93794421515069
 10
-158.1319866509852
 20
-16.04514698369591
 10
-158.002175717146
 20
-16.14799982677362
 10
-157.9065345926179
 20
-16.22378010737655
 10
-157.8057422405493
 20
-16.29692753834957
 10
-157.7044920015981
 20
-16.36973155415069
 10
-157.569014717471
 20
-16.46726146211108
 10
-157.4299315740832
 20
-16.56273087905429
 10
-157.2845524859218
 20
-16.65488061603408
 10
-157.1754609339441
 20
-16.72413600843029
 10
-157.0633931171661
 20
-16.79173156083613
 10
-156.9487496866222
 20
-16.857953452566
 10
-156.7959871723356
 20
-16.94626838682519
 10
-156.6379017229313
 20
-17.03160705629221
 10
-156.4755235839161
 20
-17.11459905543536
 10
-156.3544125010207
 20
-17.17652825756162
 10
-156.2325573519375
 20
-17.23799957278818
 10
-156.1061805697915
 20
-17.29695251011521
 10
-155.9347591646604
 20
-17.37702548032046
 10
-155.7561832768446
 20
-17.45292023264479
 10
-155.5752034828494
 20
-17.52761303186881
 10
-155.4445912469467
 20
-17.581471977529
 10
-155.315180964144
 20
-17.6361322252338
 10
-155.179703680026
 20
-17.68718661367748
 10
-154.9859030530589
 20
-17.76027680878595
 10
-154.7833453392835
 20
-17.82810130464228
 10
-154.5797573800027
 20
-17.89541067774207
 10
-154.4442228600195
 20
-17.94022635727674
 10
-154.3119507841358
 20
-17.98687358437874
 10
-154.1721808104051
 20
-18.02917088601323
 10
-153.9450116761906
 20
-18.09785391978771
 10
-153.7073111434737
 20
-18.16018377294206
 10
-153.4690954879897
 20
-18.22222744678201
 10
-153.3407154506998
 20
-18.25565318988526
 10
-153.2172576974815
 20
-18.29205519779032
 10
-153.0857296878041
 20
-18.32353492160614
 10
-152.7722488744833
 20
-18.39857113600333
 10
-152.4468057661098
 20
-18.46622392427308
 10
-152.1157535433134
 20
-18.53027085326308
 10
-152.0500467743408
 20
-18.54297721451492
 10
-151.9888044025554
 20
-18.55843089711677
 10
-151.9224108032396
 20
-18.57073660733217
 10
-151.522274895642
 20
-18.64479981208853
 10
-151.1090319757574
 20
-18.7105638169264
 10
-150.6846280628922
 20
-18.76900163149624
 10
-150.5539585911333
 20
-18.78703092786219
 10
-150.4160201649707
 20
-18.80013794014082
 10
-150.2831184946087
 20
-18.81662186824677
 10
-149.9832025804576
 20
-18.85388241407063
 10
-149.6824281283883
 20
-18.89057060128302
 10
-149.3712367495266
 20
-18.92033324925162
 10
-149.198212740278
 20
-18.93693164907961
 10
-149.0182631917869
 20
-18.94872223654553
 10
-148.841862266701
 20
-18.96297396604772
 10
-148.5605480075292
 20
-18.98563936719878
 10
-148.2789475690514
 20
-19.00819029661882
 10
-147.9892196382507
 20
-19.02496040403018
 10
-147.7927861616539
 20
-19.03635034046288
 10
-147.5910297499405
 20
-19.04384823831685
 10
-147.390818706479
 20
-19.0525480892615
 10
-147.1100195700641
 20
-19.06473932775743
 10
-146.8281329522799
 20
-19.0761292641959
 10
-146.5399503897312
 20
-19.08305480342878
 10
-146.327548107785
 20
-19.08814879510332
 10
-146.1111965513891
 20
-19.09026652197863
 10
-145.8949022308575
 20
-19.0924987205811
 10
-145.6467275354836
 20
-19.09507433434647
 10
-145.3958055187587
 20
-19.09564669295922
 10
-145.1425368317186
 20
-19.09438750400271
 10
-144.7486968688769
 20
-19.0924414847172
 10
-144.338029562767
 20
-19.07761739659135
 10
-143.9341160883043
 20
-19.06800177186336
 10
-143.9341160883043
 20
-19.06800177186336
 10
-143.9299378704125
 20
-19.07738845315113
 10
-143.9299378704125
 20
-19.07738845315113
 10
-143.9299378704125
 20
-19.07738845315113
 10
-143.4225991942604
 20
-19.05678354301788
 10
-143.4225991942604
 20
-19.05678354301788
 10
-143.2998282713938
 20
-19.0525480892615
 10
-143.1843835387867
 20
-19.05415069338797
 10
-143.0602389552432
 20
-19.0488849941262
 10
-143.0615553800536
 20
-19.04671003139854
 10
-143.062757333144
 20
-19.04442059693858
 10
-143.0640737579548
 20
-19.04224563420001
 10
-143.0640737579548
 20
-19.04224563420001
 10
-143.0640165220992
 20
-19.04224563420001
 10
-143.0640165220992
 20
-19.04224563420001
 10
-143.0627000972788
 20
-19.04442059693858
 10
-143.0614981441891
 20
-19.04671003139854
 10
-143.0601817193783
 20
-19.0488849941262
 10
-142.9673451520567
 20
-19.04493571968614
 10
-142.8670106868894
 20
-19.03486220806551
 10
-142.773601760955
 20
-19.03045504673345
 10
-142.773601760955
 20
-19.03045504673345
 10
-142.2724445578387
 20
-19.0101363159069
 10
-142.2724445578387
 20
-19.0101363159069
 10
-142.2724445578387
 20
-19.0101363159069
 10
-142.2762793605583
 20
-18.998517436025
 10
-142.2762793605583
 20
-18.998517436025
 10
-141.6235615962451
 20
-18.96263055087648
 10
-140.9731332663992
 20
-18.92880415674642
 10
-140.2943159492508
 20
-18.87116764423981
 10
-139.3470052059115
 20
-18.79075125886203
 10
-138.3750258062682
 20
-18.68915760473057
 10
-137.3803237696196
 20
-18.56650115358477
 10
-136.0539971515619
 20
-18.4029782973341
 10
-134.6874337228882
 20
-18.20202318768519
 10
-133.2852123525068
 20
-17.96392200393061
 10
-129.7796875444909
 20
-17.36855457282566
 10
-126.0517441787551
 20
-16.54098125169748
 10
-122.1759033469661
 20
-15.48469342809222
 10
-119.8503530592057
 20
-14.85092073393793
 10
-117.4716306561285
 20
-14.13490010682953
 10
-115.0556477072268
 20
-13.33743284884056
 10
-112.639721994191
 20
-12.53996559085093
 10
-110.1865357353294
 20
-11.66099446611617
 10
-107.7122866794441
 20
-10.70143524840871
 10
-105.6500213544802
 20
-9.901621320103561
 10
-103.6364637476448
 20
-9.070442139696289
 10
-101.6787111057477
 20
-8.213735765074234
 10
-99.72095846384224
 20
-7.357029390452821
 10
-97.81901078689372
 20
-6.474738585754002
 10
-95.98013702928891
 20
-5.572873116426037
 10
-93.77346562581116
 20
-4.490600211717214
 10
-91.65757029864622
 20
-3.380167263154706
 10
-89.64469952214429
 20
-2.251647782368763
 10
-87.63188598150689
 20
-1.123128301583462
 10
-85.72215422738777
 20
0.0234204755690684
 10
-83.92792444174164
 20
1.177753329882262
 10
-82.73180940854985
 20
1.947346723333234
 10
-81.58697770723492
 20
2.720374268470298
 10
-80.49714966881495
 20
3.493859700497431
 10
-78.93638496213829
 20
4.601602563573814
 10
-77.49667410248257
 20
5.709803313533849
 10
-76.17229350371295
 20
6.810506165637346
 10
-76.17229350371295
 20
6.810506165637346
 10
-76.16943171064185
 20
6.806614127061828
 10
-76.16943171064185
 20
6.806614127061828
 10
-76.16943171064185
 20
6.806614127061828
 10
-76.01437976189592
 20
6.937111891234757
 10
-76.01437976189592
 20
6.937111891234757
 10
-76.00236023098755
 20
6.947185402855383
 10
-75.98862362423258
 20
6.957316150331572
 10
-75.97660409332323
 20
6.967389661951556
 10
-75.9610931748578
 20
6.980382202508152
 10
-75.94775721913734
 20
6.993260271343354
 10
-75.93224630067189
 20
7.006252811901875
 10
-75.93224630067189
 20
7.006252811901875
 10
-75.59913358686706
 20
7.286594061423828
 10
-75.59913358686706
 20
7.286594061423828
 10
-75.59913358686706
 20
7.286594061423828
 10
-75.59844675652491
 20
7.298556356476971
 10
-75.59844675652491
 20
7.298556356476971
 10
-74.45939587722698
 20
8.270249576803626
 10
-73.40345146879329
 20
9.235761324096083
 10
-72.46804578464132
 20
10.18673516257965
 10
-70.38414530403975
 20
12.30543504695083
 10
-68.82452531459787
 20
14.35756962443053
 10
-67.87400936300598
 20
16.27497098399054
 10
-67.39872276928242
 20
17.23372889962515
 10
-67.07579803881896
 20
18.15871765699488
 10
-66.91559486254198
 20
19.04152358445088
 10
-66.86219380378275
 20
19.3357731483147
 10
-66.82687927724635
 20
19.62544384325988
 10
-66.81005193396948
 20
19.91002054652987
 10
-66.78481091906235
 20
20.33688560144963
 10
-66.80123761130407
 20
20.75247519164973
 10
-66.86047672793586
 20
21.15575907162481
 10
-66.91977308042386
 20
21.55904295160824
 10
-67.02193909316775
 20
21.95002112138076
 10
-67.1684056626901
 20
22.32754886369249
 10
-67.26999931682124
 20
22.58957463754245
 10
-67.39706292930039
 20
22.83935193704284
 10
-67.53826379957155
 20
23.08220369730136
 10
-67.58233541290785
 20
23.15792674203782
 10
-67.63396215996492
 20
23.229929455777
 10
-67.68175410430044
 20
23.3038209529487
 10
-67.78901410871052
 20
23.46957600779157
 10
-67.90365753925479
 20
23.63161073163652
 10
-68.02963367037427
 20
23.78803634105746
 10
-68.09242141041067
 20
23.86593434853313
 10
-68.15755582078118
 20
23.94268763877754
 10
-68.22492242973623
 20
24.01835344764881
 10
-68.36034247799839
 20
24.17037189573833
 10
-68.5062939247735
 20
24.31689570112522
 10
-68.65991497697857
 20
24.4595847037928
 10
-68.72779670869944
 20
24.52265862314518
 10
-68.79218705286294
 20
24.58750685419971
 10
-68.8635601721242
 20
24.64874922598477
 10
-69.08929840979883
 20
24.84243538123084
 10
-69.3284298390559
 20
25.02919599723504
 10
-69.58850959361777
 20
25.20468114853693
 10
-69.59354634942808
 20
25.20805806435591
 10
-69.59772456731927
 20
25.21189286707522
 10
-69.60276132312927
 20
25.21526978290318
 10
-69.86982385279017
 20
25.3947042086477
 10
-70.15892218912229
 20
25.56211910347324
 10
-70.46089859429089
 20
25.72255122320007
 10
-70.55150296300972
 20
25.77068658269816
 10
-70.64863221994331
 20
25.81521608292742
 10
-70.74232732518405
 20
25.86163436658856
 10
-70.96325775048956
 20
25.97118380546663
 10
-71.1908275357312
 20
26.07678396989373
 10
-71.42858530431357
 20
26.17683225575558
 10
-71.54368662174855
 20
26.2252537945687
 10
-71.66096290192339
 20
26.27253061614863
 10
-71.77995625793515
 20
26.31871995636891
 10
-72.02297972577834
 20
26.41315912780609
 10
-72.27516093145879
 20
26.50216089240841
 10
-72.53403873293031
 20
26.58738509014569
 10
-72.64873939933015
 20
26.62510352286089
 10
-72.76063550852342
 20
26.66453903142332
 10
-72.87836967558961
 20
26.70048315242804
 10
-73.23741023464243
 20
26.81003259130611
 10
-73.60812690944332
 20
26.91259925507713
 10
-73.99486962546619
 20
27.00537858653357
 10
-74.01564624317511
 20
27.01035810647902
 10
-74.03453407747045
 20
27.01642510779374
 10
-74.05536793104423
 20
27.02140462774818
 10
-74.46557735027145
 20
27.1184766488172
 10
-74.89450289618945
 20
27.20404426172509
 10
-75.33453219924243
 20
27.28251462781414
 10
-75.46537337858628
 20
27.30586685929742
 10
-75.60182367235286
 20
27.32555599564603
 10
-75.73518322959722
 20
27.34719115128273
 10
-76.0537007987283
 20
27.39898960592446
 10
-76.37771301056969
 20
27.44701049370243
 10
-76.71059678093334
 20
27.48942226705831
 10
-76.87291768408435
 20
27.51014164892065
 10
-77.03735631411707
 20
27.52937289837728
 10
-77.20299689723181
 20
27.54786008162688
 10
-77.53450700691917
 20
27.58477721228911
 10
-77.87340054274134
 20
27.61654311540264
 10
-78.218017664707
 20
27.64464592338985
 10
-78.37678994445212
 20
27.65752399222634
 10
-78.53333002559509
 20
27.67206190104485
 10
-78.69484962669152
 20
27.6831084223031
 10
-79.15605619848857
 20
27.71470261784032
 10
-79.62716457433025
 20
27.73931403827945
 10
-80.11006353762983
 20
27.75556902294326
 10
-80.15539433992136
 20
27.75711439119555
 10
-80.19832123603217
 20
27.7603768353034
 10
-80.24393821763009
 20
27.76175049597938
 10
-80.77462912526677
 20
27.77800548064255
 10
-81.32071647963853
 20
27.78309947230875
 10
-81.87619051528907
 20
27.78109621715548
 10
-82.03919824878159
 20
27.78052385854338
 10
-82.2068993229228
 20
27.77634564065218
 10
-82.3719675474248
 20
27.77417067792324
 10
-82.77319093639137
 20
27.76896221452602
 10
-83.17910766600697
 20
27.75991894841141
 10
-83.59235058588287
 20
27.74543827545809
 10
-83.79164585556035
 20
27.73839826449547
 10
-83.99248649349043
 20
27.73021353630736
 10
-84.19447184864441
 20
27.72105579847072
 10
-84.60674175888014
 20
27.7023969076262
 10
-85.02513590629609
 20
27.67864402511484
 10
-85.44839510193611
 20
27.65105633987518
 10
-85.63361034967872
 20
27.63897957310192
 10
-85.81687957814223
 20
27.62856264632033
 10
-86.00409808103746
 20
27.61482603956505
 10
-86.43697290140549
 20
27.58300290057734
 10
-86.88037912028674
 20
27.54213649548339
 10
-87.32298403710414
 20
27.50195692072228
 10
-87.32298403710414
 20
27.50195692072228
 10
-87.33483186042754
 20
27.50590619516491
 10
-87.33483186042754
 20
27.50590619516491
 10
-87.33483186042754
 20
27.50590619516491
 10
-87.40460237557227
 20
27.4949741456242
 10
-87.40460237557227
 20
27.4949741456242
 10
-87.55627740848927
 20
27.48100859541972
 10
-87.70257227043465
 20
27.47167915000612
 10
-87.85573543574837
 20
27.45639717499085
 10
-87.84560468827283
 20
27.44758285231646
 10
-87.83621800698506
 20
27.43790999173163
 10
-87.8260872595095
 20
27.42909566906558
 10
-87.83621800698506
 20
27.43790999173163
 10
-87.84566192412839
 20
27.44758285231646
 10
-87.85579267161388
 20
27.45639717499085
 10
-88.37806990761134
 20
27.90936178273427
 10
-88.91230943866
 20
28.34635758512957
 10
-89.45765272683436
 20
28.76715563872561
 10
-90.0029960150087
 20
29.18795369232101
 10
-90.55944306030809
 20
29.59255399711651
 10
-91.12624979654251
 20
29.9807848455268
 10
-91.69299929690275
 20
30.36901569394673
 10
-92.27010848819993
 20
30.74076261425043
 10
-92.85671883250371
 20
31.09602560644882
 10
-93.44332917679851
 20
31.451231362791
 10
-94.03949790996669
 20
31.78989595516333
 10
-94.6444237299444
 20
32.11173320426745
 10
-94.64808682507939
 20
32.11367922355296
 10
-94.65180715607795
 20
32.11528182767108
 10
-94.65547025121324
 20
32.1172278469675
 10
-94.65186439193447
 20
32.11528182767108
 10
-94.64802958921387
 20
32.11373645941814
 10
-94.6444237299444
 20
32.11179044012173
 10
-94.63841396448556
 20
32.11304962907695
 10
-94.63251867075646
 20
32.11407987458104
 10
-94.62650890529761
 20
32.11533906353563
 10
-93.73196962623959
 20
32.30347334021516
 10
-92.84761833052263
 20
32.47769930256183
 10
-91.9684754982013
 20
32.64505696152282
 10
-91.71663770769336
 20
32.69302061344459
 10
-91.46634528544478
 20
32.73898101021437
 10
-91.21576668389174
 20
32.78522758628958
 10
-90.5182332400429
 20
32.914008274614
 10
-89.82590825958999
 20
33.03614960301481
 10
-89.13896345011766
 20
33.15170880734178
 10
-88.93686362323363
 20
33.18570690905842
 10
-88.7329322487826
 20
33.22187997351299
 10
-88.53180543154648
 20
33.25473335800543
 10
-87.67836150103226
 20
33.39410268070702
 10
-86.83350294973394
 20
33.52328402006082
 10
-85.99780213627161
 20
33.64204843263046
 10
-85.80297126380164
 20
33.66975058959086
 10
-85.61111665612356
 20
33.69401859485812
 10
-85.41725879329122
 20
33.72057603458471
 10
-84.75200637532143
 20
33.8117527619166
 10
-84.09270648693695
 20
33.89634736518429
 10
-83.43964530746051
 20
33.97430260851681
 10
-83.20085729336506
 20
34.00280606753982
 10
-82.96189757169232
 20
34.03148123414041
 10
-82.72476939758691
 20
34.05821038145165
 10
-81.93067905541756
 20
34.14772726880152
 10
-81.14311360146293
 20
34.23031861691658
 10
-80.36854068806492
 20
34.29997466034024
 10
-80.34358585246545
 20
34.30220685893566
 10
-80.31794418652253
 20
34.3052403595911
 10
-80.29298935091247
 20
34.30741532233095
 10
-79.4958655080941
 20
34.37850226228615
 10
-78.71322233822967
 20
34.43550918032445
 10
-77.93796259448981
 20
34.48547608738922
 10
-77.71909266019346
 20
34.4995561093151
 10
-77.50245492449092
 20
34.51163287608836
 10
-77.28541653776126
 20
34.52405305803349
 10
-76.67362241441555
 20
34.55908140525487
 10
-76.06915448133015
 20
34.58747039254749
 10
-75.47201273852209
 20
34.60910554818419
 10
-75.29761506858982
 20
34.61545872881396
 10
-75.12087072834233
 20
34.6239296363094
 10
-74.94773224737265
 20
34.62913809970533
 10
-74.2069857281063
 20
34.65128837809857
 10
-73.47791532458511
 20
34.66325067314978
 10
-72.76137957472148
 20
34.66456709796186
 10
-72.71759414069056
 20
34.6646243338264
 10
-72.67140480048024
 20
34.66674206070042
 10
-72.62767660230586
 20
34.66674206070042
 10
-72.49603412090809
 20
34.66674206070042
 10
-72.37085929185217
 20
34.66136188971855
 10
-72.24007534837287
 20
34.66067505937671
 10
-71.73336626669772
 20
34.6579277380254
 10
-71.23226629944625
 20
34.65060154775609
 10
-70.73849252246441
 20
34.63715112031584
 10
-70.52231267365323
 20
34.63131306244262
 10
-70.30756372138353
 20
34.62427305148064
 10
-70.09395948634637
 20
34.61631726673339
 10
-69.61071710787651
 20
34.59840244208692
 10
-69.13485815553989
 20
34.5746495595762
 10
-68.66483726106846
 20
34.54626057228293
 10
-68.49370203524273
 20
34.5359581172208
 10
-68.31981948807534
 20
34.52771615316751
 10
-68.15051580981824
 20
34.51598280155715
 10
-67.71775546117034
 20
34.48604844601095
 10
-67.29392390691725
 20
34.44941749466439
 10
-66.87312585332122
 20
34.41038263712812
 10
-66.68556393525538
 20
34.39298293523883
 10
-66.4946823372255
 20
34.37810161125806
 10
-66.30952432533909
 20
34.35887036180208
 10
-66.2095332753341
 20
34.3485106708754
 10
-66.11377767907585
 20
34.33511747928238
 10
-66.01453069526826
 20
34.32418542974359
 10
-65.51451820938575
 20
34.2692962385883
 10
-65.02337728203288
 20
34.20788215921665
 10
-64.54179474355372
 20
34.13959977646898
 10
-64.36064324196391
 20
34.11395811052702
 10
-64.18252524104078
 20
34.08614148185485
 10
-64.00406382495538
 20
34.05855379661519
 10
-63.59179391471965
 20
33.99490751865005
 10
-63.18707913819345
 20
33.92599554143278
 10
-62.78928990092003
 20
33.85221851598377
 10
-62.62674005431854
 20
33.82205521698708
 10
-62.4624158960056
 20
33.79303663521588
 10
-62.30232719144969
 20
33.7612134962378
 10
-61.76705741489629
 20
33.65475479388165
 10
-61.24140326307055
 20
33.54182843918394
 10
-60.73423629450404
 20
33.41648190254112
 10
-60.73091661454062
 20
33.41568060048046
 10
-60.72731075526153
 20
33.41493653428049
 10
-60.72399107529779
 20
33.41413523222816
 10
-60.21132946402929
 20
33.2872433273247
 10
-59.7176701587679
 20
33.14798847634258
 10
-59.23471395961276
 20
33.00180808612692
 10
-59.09666106172004
 20
32.96002590724898
 10
-58.96324426861081
 20
32.91532469943506
 10
-58.82770974862725
 20
32.87193991643129
 10
-58.47971571083395
 20
32.76061616585108
 10
-58.13962022193104
 20
32.64431289532606
 10
-57.80828181982
 20
32.52257221796168
 10
-57.66902696884686
 20
32.47140335779725
 10
-57.52971488200821
 20
32.42040620521875
 10
-57.39349353168313
 20
32.36740579749469
 10
-57.02918727336886
 20
32.22574704033249
 10
-56.67609924389973
 20
32.07727721564918
 10
-56.33354261295284
 20
31.92239697448824
 10
-56.25976558750254
 20
31.88902846724953
 10
-56.18175310830547
 20
31.85823557377555
 10
-56.10900632836889
 20
31.82429470791511
 10
-55.70022780568091
 20
31.63347034573983
 10
-55.30913516418957
 20
31.43217182092032
 10
-54.93315279013879
 20
31.22205897343284
 10
-54.83928597731274
 20
31.16957368845633
 10
-54.75148616580078
 20
31.1135970159247
 10
-54.65967984399255
 20
31.05990977785815
 10
-54.38059778341555
 20
30.89673033678001
 10
-54.1102728096484
 20
30.72845690403567
 10
-53.85070817784338
 20
30.55411646996761
 10
-53.74178833344259
 20
30.4809690389946
 10
-53.63470003661781
 20
30.40673412666193
 10
-53.52927157977537
 20
30.33158344053564
 10
-53.28046728992384
 20
30.15426674167542
 10
-53.04259504961205
 20
29.97076856977137
 10
-52.81359436783951
 20
29.78251982136145
 10
-52.73455164313738
 20
29.71749988272227
 10
-52.65144517226578
 20
29.65476937854111
 10
-52.57474911788721
 20
29.58849025095441
 10
-52.28032784643809
 20
29.3339051390958
 10
-52.00176090861827
 20
29.07073464801073
 10
-51.74322652231704
 20
28.79686105082902
 10
-51.69675100279167
 20
28.74763820996229
 10
-51.65645695630981
 20
28.69503845325669
 10
-51.61118338988347
 20
28.64518601791139
 10
-51.40353168443162
 20
28.41670045888673
 10
-51.2078995098978
 20
28.18191895509685
 10
-51.02537434764164
 20
27.94026914792965
 10
-50.95468805871388
 20
27.84668851441767
 10
-50.88812275181246
 20
27.75093291816007
 10
-50.82121402974878
 20
27.65534902948777
 10
-50.66982517612853
 20
27.43911194482102
 10
-50.52902495689283
 20
27.21755192503886
 10
-50.39749694721709
 20
26.9912413287425
 10
-50.34226434089023
 20
26.89622979869128
 10
-50.28462782837529
 20
26.80247745758631
 10
-50.23294384546296
 20
26.70569161582333
 10
-50.06243821411455
 20
26.38637274463031
 10
-49.90515406676552
 20
26.06041451350981
 10
-49.77379776467412
 20
25.72169268527229
 10
-49.45333417625495
 20
24.89537855309805
 10
-49.25884671894597
 20
24.03214729027056
 10
-49.18506969349567
 20
23.13657776569819
 10
-49.16045827306647
 20
22.83803551222306
 10
-49.14929728007785
 20
22.53594463534366
 10
-49.15135777108668
 20
22.23041960675956
 10
-49.15336102623931
 20
21.92489457818572
 10
-49.16858576539004
 20
21.61593539791809
 10
-49.19686028096319
 20
21.30371377355287
 10
-49.30984387152575
 20
20.05494174779992
 10
-49.63122323372825
 20
18.75408508809984
 10
-50.14812029875249
 20
17.41219031571985
 10
-50.53583602440561
 20
16.40581216332444
 10
-51.03361631169398
 20
15.37631072289626
 10
-51.63613822548327
 20
14.32837933507403
 10
-52.03781950135113
 20
13.62970117400002
 10
-52.4860335325919
 20
12.92289552059346
 10
-52.97923495096164
 20
12.20916432794567
 10
-53.31744165644196
 20
11.71974047644034
 10
-53.67728351755803
 20
11.22705418082779
 10
-54.0580164681227
 20
10.73162056386329
 10
-55.20015808393386
 20
9.245205241239418
 10
-56.53026226885596
 20
7.733720611295958
 10
-58.02818199963008
 20
6.209357912523715
 10
-62.58404210164826
 20
1.573253132705023
 10
-68.72419084942163
 20
-3.18339037138544
 10
-76.07825498331059
 20
-7.726601348028862
 97
        0
 97
        1
330
79
 92
        1
 93
        1
 72
     4
 94
        3
 73
     0
 74
     0
 95
       62
 96
       58
 40
0.0
 40
0.0
 40
0.0
 40
0.0
 40
1.0
 40
1.0
 40
1.0
 40
2.0
 40
2.0
 40
2.0
 40
3.0
 40
3.0
 40
3.0
 40
4.0
 40
4.0
 40
4.0
 40
5.0
 40
5.0
 40
5.0
 40
6.0
 40
6.0
 40
6.0
 40
7.0
 40
7.0
 40
7.0
 40
8.0
 40
8.0
 40
8.0
 40
9.0
 40
9.0
 40
9.0
 40
10.0
 40
10.0
 40
10.0
 40
11.0
 40
11.0
 40
11.0
 40
12.0
 40
12.0
 40
12.0
 40
13.0
 40
13.0
 40
13.0
 40
14.0
 40
14.0
 40
14.0
 40
15.0
 40
15.0
 40
15.0
 40
16.0
 40
16.0
 40
16.0
 40
17.0
 40
17.0
 40
17.0
 40
18.0
 40
18.0
 40
18.0
 40
19.0
 40
19.0
 40
19.0
 40
19.0
 10
-99.95654126969535
 20
-30.69741305066293
 10
-103.7639852470162
 20
-32.17404104096261
 10
-107.7450255922059
 20
-32.922743344973
 10
-111.7889681491632
 20
-32.922743344973
 10
-115.3007316660788
 20
-32.922743344973
 10
-118.8148990891845
 20
-32.33727771790273
 10
-122.1570155126801
 20
-31.22243760801073
 10
-122.0329854008576
 20
-31.19021381799623
 10
-121.9074099207659
 20
-31.15180855494753
 10
-121.7832653372234
 20
-31.11924134976178
 10
-120.3094991399952
 20
-30.73278481305427
 10
-118.8309251303984
 20
-30.32703979103392
 10
-117.3460551760454
 20
-29.89399326307933
 10
-117.1233504390291
 20
-29.82903056030533
 10
-116.8993292772007
 20
-29.75714231828562
 10
-116.6763955967343
 20
-29.69114936999726
 10
-115.4027259712374
 20
-29.31413675043243
 10
-114.1256221940474
 20
-28.92001060828373
 10
-112.845198736903
 20
-28.50928606630896
 10
-112.3737469458907
 20
-28.35806892028331
 10
-111.9017800321395
 20
-28.20152883914035
 10
-111.429526939074
 20
-28.04579006005227
 10
-110.3387258910039
 20
-27.68600543479144
 10
-109.2460932953584
 20
-27.31380062759511
 10
-108.1514002087128
 20
-26.92991970465297
 10
-107.698034949932
 20
-26.77091848146602
 10
-107.2454137573505
 20
-26.61477905135178
 10
-106.7914761399656
 20
-26.45171408199246
 10
-105.2828533030945
 20
-25.90963323792596
 10
-103.771998267628
 20
-25.35215594711253
 10
-102.25816696736
 20
-24.7650877159267
 10
-100.7418745250548
 20
-24.17704647508208
 10
-99.24801854044318
 20
-23.56914439031251
 10
-97.76612485088271
 20
-22.95128326564308
 10
-97.32105879202006
 20
-22.76572460272892
 10
-96.88154461172457
 20
-22.57581601433954
 10
-96.43962652524034
 20
-22.38762450179545
 10
-95.36834290593388
 20
-21.93128297822278
 10
-94.30656043963596
 20
-21.46767250024533
 10
-93.25456530564265
 20
-20.99604900165674
 10
-92.80389013235724
 20
-20.79400641063662
 10
-92.35275707217986
 20
-20.5927078858062
 10
-91.9056877581649
 20
-20.38791797343477
 10
-90.66601623438405
 20
-19.82002375584102
 10
-89.44002408149456
 20
-19.24205602662536
 10
-88.22902772432362
 20
-18.65321348372648
 10
-88.03482644632101
 20
-18.55877431227967
 10
-87.83576012009339
 20
-18.46782652838927
 10
-87.64230290829877
 20
-18.37281499833998
 10
-86.25095635160061
 20
-17.68987669916361
 10
-84.88307649810677
 20
-16.99085512291899
 10
-83.53162333685403
 20
-16.28095873299117
 10
-83.41537730219293
 20
-16.21988806879205
 10
-83.29398003999209
 20
-16.16225155628544
 10
-83.17802018463767
 20
-16.10100918450038
 10
-86.84603760340015
 20
-22.69492384207977
 10
-92.72009683115086
 20
-27.89102429061208
 10
-99.95654126969535
 20
-30.69741305066293
 97
        0
 97
        1
330
7A
 92
        1
 93
        1
 72
     4
 94
        3
 73
     0
 74
     0
 95
      233
 96
      229
 40
0.0
 40
0.0
 40
0.0
 40
0.0
 40
1.0
 40
1.0
 40
1.0
 40
2.0
 40
2.0
 40
2.0
 40
3.0
 40
3.0
 40
3.0
 40
4.0
 40
4.0
 40
4.0
 40
5.0
 40
5.0
 40
5.0
 40
6.0
 40
6.0
 40
6.0
 40
7.0
 40
7.0
 40
7.0
 40
8.0
 40
8.0
 40
8.0
 40
9.0
 40
9.0
 40
9.0
 40
10.0
 40
10.0
 40
10.0
 40
11.0
 40
11.0
 40
11.0
 40
12.0
 40
12.0
 40
12.0
 40
13.0
 40
13.0
 40
13.0
 40
14.0
 40
14.0
 40
14.0
 40
15.0
 40
15.0
 40
15.0
 40
16.0
 40
16.0
 40
16.0
 40
17.0
 40
17.0
 40
17.0
 40
18.0
 40
18.0
 40
18.0
 40
19.0
 40
19.0
 40
19.0
 40
20.0
 40
20.0
 40
20.0
 40
21.0
 40
21.0
 40
21.0
 40
22.0
 40
22.0
 40
22.0
 40
23.0
 40
23.0
 40
23.0
 40
24.0
 40
24.0
 40
24.0
 40
25.0
 40
25.0
 40
25.0
 40
26.0
 40
26.0
 40
26.0
 40
27.0
 40
27.0
 40
27.0
 40
28.0
 40
28.0
 40
28.0
 40
29.0
 40
29.0
 40
29.0
 40
30.0
 40
30.0
 40
30.0
 40
31.0
 40
31.0
 40
31.0
 40
32.0
 40
32.0
 40
32.0
 40
33.0
 40
33.0
 40
33.0
 40
34.0
 40
34.0
 40
34.0
 40
35.0
 40
35.0
 40
35.0
 40
36.0
 40
36.0
 40
36.0
 40
37.0
 40
37.0
 40
37.0
 40
38.0
 40
38.0
 40
38.0
 40
39.0
 40
39.0
 40
39.0
 40
40.0
 40
40.0
 40
40.0
 40
41.0
 40
41.0
 40
41.0
 40
42.0
 40
42.0
 40
42.0
 40
43.0
 40
43.0
 40
43.0
 40
44.0
 40
44.0
 40
44.0
 40
45.0
 40
45.0
 40
45.0
 40
46.0
 40
46.0
 40
46.0
 40
47.0
 40
47.0
 40
47.0
 40
48.0
 40
48.0
 40
48.0
 40
49.0
 40
49.0
 40
49.0
 40
50.0
 40
50.0
 40
50.0
 40
51.0
 40
51.0
 40
51.0
 40
52.0
 40
52.0
 40
52.0
 40
53.0
 40
53.0
 40
53.0
 40
54.0
 40
54.0
 40
54.0
 40
55.0
 40
55.0
 40
55.0
 40
56.0
 40
56.0
 40
56.0
 40
57.0
 40
57.0
 40
57.0
 40
58.0
 40
58.0
 40
58.0
 40
59.0
 40
59.0
 40
59.0
 40
60.0
 40
60.0
 40
60.0
 40
61.0
 40
61.0
 40
61.0
 40
62.0
 40
62.0
 40
62.0
 40
63.0
 40
63.0
 40
63.0
 40
64.0
 40
64.0
 40
64.0
 40
65.0
 40
65.0
 40
65.0
 40
66.0
 40
66.0
 40
66.0
 40
67.0
 40
67.0
 40
67.0
 40
68.0
 40
68.0
 40
68.0
 40
69.0
 40
69.0
 40
69.0
 40
70.0
 40
70.0
 40
70.0
 40
71.0
 40
71.0
 40
71.0
 40
72.0
 40
72.0
 40
72.0
 40
73.0
 40
73.0
 40
73.0
 40
74.0
 40
74.0
 40
74.0
 40
75.0
 40
75.0
 40
75.0
 40
76.0
 40
76.0
 40
76.0
 40
76.0
 10
-144.3767782409873
 20
3.655779952622915
 10
-144.2342037100407
 20
4.873873556630337
 10
-144.0213435412032
 20
6.088017886188066
 10
-143.7400865178867
 20
7.289742033802586
 10
-143.4691319496509
 20
8.447451803944385
 10
-143.1313831310542
 20
9.592626920420938
 10
-142.7353109696178
 20
10.71977274053026
 10
-142.7202007021872
 20
10.76264240077749
 10
-142.7085245864497
 20
10.80648507067326
 10
-142.6932426114338
 20
10.84929749506364
 10
-139.4875764817044
 20
19.85209785471721
 10
-132.552421617987
 20
26.99198539494054
 10
-123.6660962364447
 20
30.43827108633395
 10
-119.8608272218531
 20
31.91404053871548
 10
-115.8817328959608
 20
32.6622849558358
 10
-111.8393357072654
 20
32.6622849558358
 10
-106.4941358395808
 20
32.6622849558358
 10
-101.1572351718051
 20
31.32668612821205
 10
-96.40637248972112
 20
28.80035243837902
 10
-95.62733517912647
 20
28.38585032954949
 10
-94.87199351518604
 20
27.93305742939007
 10
-94.13273512832381
 20
27.45771359980099
 10
-94.0018939489806
 20
27.37363411928856
 10
-93.86733243863689
 20
27.29493480975863
 10
-93.73775044824828
 20
27.20908101753572
 10
-92.8762934971319
 20
26.63775264824689
 10
-92.04351171260682
 20
26.02716047799121
 10
-91.2415800574193
 20
25.38228402670256
 10
-90.92953014063009
 20
25.13136200997797
 10
-90.61438948732826
 20
24.88370243736123
 10
-90.31252755388845
 20
24.62190560695214
 10
-86.3055593634492
 20
21.14894800411333
 10
-83.16994992816999
 20
16.68930138523542
 10
-81.24476449144998
 20
11.72512064741259
 10
-80.82974725987126
 20
10.65498174534028
 10
-80.46864620979098
 20
9.547925712606378
 10
-80.16443760603692
 20
8.415972080128566
 10
-80.16397971914493
 20
8.414255004290334
 10
-80.1634073605232
 20
8.412652400165152
 10
-80.16294947363155
 20
8.410935324317934
 10
-80.38170493620778
 20
8.241230995033069
 10
-80.61230822210646
 20
8.071641137469599
 10
-80.83673003497031
 20
7.901994044047999
 10
-81.03047342607162
 20
7.755527474526939
 10
-81.22043925032683
 20
7.609003669139406
 10
-81.41830362345512
 20
7.462651571331398
 10
-81.74368949597186
 20
7.221917537955883
 10
-82.07983571043437
 20
6.981469683877436
 10
-82.41609639662597
 20
6.74113630153065
 10
-82.59232561411756
 20
6.615160170409889
 10
-82.76346083994262
 20
6.489012331714738
 10
-82.94260908637019
 20
6.363150672316012
 10
-83.38681660731436
 20
6.051100755534811
 10
-83.84270024399505
 20
5.739737669089032
 10
-84.30436470268441
 20
5.428832469533321
 10
-84.38397978600827
 20
5.375202467324908
 10
-84.45976006660158
 20
5.321286285807235
 10
-84.53994750853722
 20
5.267656283608447
 10
-85.08540526843296
 20
4.902892138401535
 10
-85.64322597440703
 20
4.539215474555565
 10
-86.21129189959667
 20
4.176740763807973
 10
-86.37367003861223
 20
4.073143854533504
 10
-86.54234412239203
 20
3.970519954897299
 10
-86.70649657311036
 20
3.867151989072676
 10
-87.11573298268969
 20
3.609476140691515
 10
-87.52605687362835
 20
3.351914764029823
 10
-87.94605362517016
 20
3.095841519774486
 10
-88.16732746564625
 20
2.960879358403026
 10
-88.39501172260865
 20
2.827176385988074
 10
-88.61920459202103
 20
2.692672111518873
 10
-88.99163834266849
 20
2.469337780024954
 10
-89.36412932918019
 20
2.246003448530393
 10
-89.74428992112217
 20
2.024214485297751
 10
-89.99275079580277
 20
1.879236048171495
 10
-90.24630566215858
 20
1.735402328270729
 10
-90.49797174508089
 20
1.5911679573438
 10
-90.86342272062998
 20
1.381684704332974
 10
-91.22938881892595
 20
1.17237315890103
 10
-91.60136468268047
 20
0.9644352741527637
 10
-91.86779761786279
 20
0.8155075625755333
 10
-92.13812259162995
 20
0.6676673323791377
 10
-92.40776073505559
 20
0.5196553945955176
 10
-92.77349788991072
 20
0.3189292283861859
 10
-93.14049423371978
 20
0.1185464773480946
 10
-93.51195497471872
 20
-0.080462613012736
 10
-93.79178110148414
 20
-0.230363334228873
 10
-94.07435454961113
 20
-0.3794627533804938
 10
-94.35732864876428
 20
-0.5283332290906105
 10
-94.72964792769035
 20
-0.7241943470765328
 10
-95.10402769762492
 20
-0.9193113988528608
 10
-95.48155543993731
 20
-1.113226497549419
 10
-95.76762027561271
 20
-1.260150953963755
 10
-96.05528771540493
 20
-1.406503051763421
 10
-96.34427158001692
 20
-1.552282790953551
 10
-96.72609201194255
 20
-1.744938700694243
 10
-97.11071700108208
 20
-1.936278185615162
 10
-97.49740248124105
 20
-2.126759132618569
 10
-97.79085074304196
 20
-2.271279682853474
 10
-98.08487136346395
 20
-2.415514053780403
 10
-98.38095247489446
 20
-2.558718179204519
 10
-98.77244576741292
 20
-2.748054408981795
 10
-99.16725873989513
 20
-2.935616327047948
 10
-99.56321642961022
 20
-3.122605886501998
 10
-99.85889689001487
 20
-3.26226138851221
 10
-100.1542911711029
 20
-3.401916890521138
 10
-100.4523755376863
 20
-3.540141495989543
 10
-100.8593797486718
 20
-3.728790895425622
 10
-101.2700470547821
 20
-3.915036388680986
 10
-101.6812294836488
 20
-4.100938466765752
 10
-101.9737619716657
 20
-4.233210542640821
 10
-102.2651497424575
 20
-4.366226684722918
 10
-102.5596854856363
 20
-4.497010628203183
 10
-102.9958799859687
 20
-4.690754019304176
 10
-103.4361954683284
 20
-4.881234966306941
 10
-103.876568186551
 20
-5.071601441588954
 10
-104.1502700761378
 20
-5.189965203132426
 10
-104.4222548898873
 20
-5.309702625342891
 10
-104.6975021477444
 20
-5.426692726210386
 10
-105.1845220930706
 20
-5.633772073040498
 10
-105.6759491997285
 20
-5.836558730257379
 10
-106.1673763063961
 20
-6.03923091575479
 10
-106.4028446405201
 20
-6.136302936823181
 10
-106.6362524836347
 20
-6.235492684775217
 10
-106.8726365915417
 20
-6.331534460329886
 10
-107.1990527095546
 20
-6.464149951376837
 10
-107.5291891585669
 20
-6.592243809369695
 10
-107.8573223524256
 20
-6.722856045264019
 10
-108.2609496475829
 20
-6.883517108441337
 10
-108.662516451721
 20
-7.046753785375685
 10
-109.0685476530567
 20
-7.204209640310338
 10
-109.3278261055557
 20
-7.304773048928727
 10
-109.5875624449453
 20
-7.399727343123095
 10
-109.8470126050302
 20
-7.498688147614377
 10
-110.3256761145824
 20
-7.681213309871822
 10
-110.8041679165493
 20
-7.865054896947113
 10
-111.2831176054065
 20
-8.04197094478118
 10
-111.515666910594
 20
-8.127881972859659
 10
-111.7481589799248
 20
-8.209614783048227
 10
-111.9807082851206
 20
-8.294209386317202
 10
-112.4846128095792
 20
-8.477478614770765
 10
-112.9884028623171
 20
-8.660461663928545
 10
-113.4919639716142
 20
-8.837434947617532
 10
-113.7781432790103
 20
-8.937998356235921
 10
-114.063750227794
 20
-9.034440782826377
 10
-114.3497578276046
 20
-9.132943700434649
 10
-114.8004902367552
 20
-9.28816735676683
 10
-115.2511654100405
 20
-9.443391013099009
 10
-115.7010392812714
 20
-9.593463441900446
 10
-116.0054195926114
 20
-9.694999860157741
 10
-116.309055837762
 20
-9.792873183288723
 10
-116.6129782622196
 20
-9.892005695376212
 10
-117.0433919405434
 20
-10.03240526358383
 10
-117.4737483830022
 20
-10.17223247317805
 10
-117.9029028723713
 20
-10.30770975729579
 10
-118.2163264498368
 20
-10.40661332593279
 10
-118.5288914893727
 20
-10.50265510149644
 10
-118.8415137647756
 20
-10.59898305636679
 10
-119.2592783177136
 20
-10.72770650882859
 10
-119.6765277478951
 20
-10.85505630062212
 10
-120.0926324608514
 20
-10.97897194072507
 10
-120.4086888879376
 20
-11.07312493285685
 10
-120.7237723053752
 20
-11.16504572639449
 10
-121.0387984869569
 20
-11.25639416131105
 10
-121.4519841709766
 20
-11.37618881939505
 10
-121.8643113170782
 20
-11.49392298645224
 10
-122.2753792742235
 20
-11.60890983216775
 10
-122.5868568323917
 20
-11.69602281333691
 10
-122.897647560226
 20
-11.78181936969528
 10
-123.2078086935747
 20
-11.86612779365692
 10
-123.6185332355491
 20
-11.97779495940003
 10
-124.0277124092719
 20
-12.08642862448513
 10
-124.435861337473
 20
-12.19305903442595
 10
-124.7442481591275
 20
-12.27364712738903
 10
-125.0523488014668
 20
-12.35383456931632
 10
-125.3591330189958
 20
-12.43156086920733
 10
-125.7685983720243
 20
-12.5352722502032
 10
-126.1757742905868
 20
-12.6350343567667
 10
-126.5822633788142
 20
-12.73353727436855
 10
-126.8799470943622
 20
-12.80571169570073
 10
-127.1779742250904
 20
-12.87845847563732
 10
-127.4739408647915
 20
-12.94782833974594
 10
-127.8911330591171
 20
-13.04564442702136
 10
-128.3048911017499
 20
-13.1383665226139
 10
-128.7183057292197
 20
-13.2305162595924
 10
-128.9987042145989
 20
-13.29301782033333
 10
-129.2801901813559
 20
-13.35717922104473
 10
-129.5586998833115
 20
-13.4170479321551
 10
-129.9948943836529
 20
-13.51080027326072
 10
-130.4263955433369
 20
-13.59825666959983
 10
-130.8577249954449
 20
-13.68548412248974
 10
-131.1077312383858
 20
-13.73608062404207
 10
-131.3598552082101
 20
-13.78942444693674
 10
-131.6081443753051
 20
-13.83778874989494
 10
-132.0931038296125
 20
-13.93222792133277
 10
-132.5717673391647
 20
-14.01911195906042
 10
-133.0498012542393
 20
-14.10508022299639
 10
-133.2400532578012
 20
-14.13925003229769
 10
-133.4331670544342
 20
-14.17708293674327
 10
-133.6222171048964
 20
-14.20993632122544
 10
-134.2864392773628
 20
-14.3253810538323
 10
-134.9439648540358
 20
-14.43281276582929
 10
-135.593019523215
 20
-14.53120121170719
 10
-135.678072013366
 20
-14.54407928054303
 10
-135.7604916538961
 20
-14.5541527921643
 10
-135.8453152006156
 20
-14.56674468169409
 10
-136.4055398127694
 20
-14.65002286014329
 10
-136.9613572635915
 20
-14.72855046208856
 10
-137.5090472220894
 20
-14.79877886412367
 10
-137.72763097708
 20
-14.82676720039142
 10
-137.9405483817827
 20
-14.84920365809071
 10
-138.1570144098993
 20
-14.87513150334064
 10
-138.5653922815506
 20
-14.92406816490131
 10
-138.9736556814813
 20
-14.97283311888567
 10
-139.3743067118361
 20
-15.01427188259303
 10
-139.6202492086153
 20
-15.03968460509411
 10
-139.8605253551068
 20
-15.05965992074943
 10
-140.1034915870858
 20
-15.08221085016946
 10
-140.3828598269605
 20
-15.10813869541875
 10
-140.666749699897
 20
-15.13830199442378
 10
-140.9419969577543
 20
-15.16039503695247
 10
-140.9427982598176
 20
-15.15879243283563
 10
-140.9434850901511
 20
-15.157247064575
 10
-140.9442863922136
 20
-15.15564446044725
 10
-141.4838488583797
 20
-14.11355113049953
 10
-141.9635426134363
 20
-13.05251273039932
 10
-142.3781591939875
 20
-11.98351854554416
 10
-144.3308178442175
 20
-6.948422575360411
 10
-145.0033392166016
 20
-1.686958773017677
 10
-144.3767782409873
 20
3.655779952622915
 97
        0
 97
        1
330
7B
 92
        1
 93
        1
 72
     4
 94
        3
 73
     0
 74
     0
 95
       53
 96
       49
 40
0.0
 40
0.0
 40
0.0
 40
0.0
 40
1.0
 40
1.0
 40
1.0
 40
2.0
 40
2.0
 40
2.0
 40
3.0
 40
3.0
 40
3.0
 40
4.0
 40
4.0
 40
4.0
 40
5.0
 40
5.0
 40
5.0
 40
6.0
 40
6.0
 40
6.0
 40
7.0
 40
7.0
 40
7.0
 40
8.0
 40
8.0
 40
8.0
 40
9.0
 40
9.0
 40
9.0
 40
10.0
 40
10.0
 40
10.0
 40
11.0
 40
11.0
 40
11.0
 40
12.0
 40
12.0
 40
12.0
 40
13.0
 40
13.0
 40
13.0
 40
14.0
 40
14.0
 40
14.0
 40
15.0
 40
15.0
 40
15.0
 40
16.0
 40
16.0
 40
16.0
 40
16.0
 10
-119.8301488001002
 20
76.5603019269855
 10
-119.8301488001002
 20
76.5603019269855
 10
-108.7197523132001
 20
71.27909175243859
 10
-108.7197523132001
 20
71.27909175243859
 10
-108.7197523132001
 20
71.27909175243859
 10
-104.5977400411892
 20
82.86946817370191
 10
-104.5977400411892
 20
82.86946817370191
 10
-104.5977400411892
 20
82.86946817370191
 10
-100.4757850050351
 20
71.27909175243859
 10
-100.4757850050351
 20
71.27909175243859
 10
-100.4757850050351
 20
71.27909175243859
 10
-89.36533128227024
 20
76.5603019269855
 10
-89.36533128227024
 20
76.5603019269855
 10
-89.36533128227024
 20
76.5603019269855
 10
-94.64728552301615
 20
65.4494475531845
 10
-94.64728552301615
 20
65.4494475531845
 10
-94.64728552301615
 20
65.4494475531845
 10
-83.05599332796854
 20
61.32743528117483
 10
-83.05599332796854
 20
61.32743528117483
 10
-83.05599332796854
 20
61.32743528117483
 10
-94.64728552301615
 20
57.20570918847057
 10
-94.64728552301615
 20
57.20570918847057
 10
-94.64728552301615
 20
57.20570918847057
 10
-89.36533128227024
 20
46.09594229603885
 10
-89.36533128227024
 20
46.09594229603885
 10
-89.36533128227024
 20
46.09594229603885
 10
-100.4757850050351
 20
51.37715247059411
 10
-100.4757850050351
 20
51.37715247059411
 10
-100.4757850050351
 20
51.37715247059411
 10
-104.5977400411892
 20
39.78660434173652
 10
-104.5977400411892
 20
39.78660434173652
 10
-104.5977400411892
 20
39.78660434173652
 10
-108.7197523132001
 20
51.37715247059411
 10
-108.7197523132001
 20
51.37715247059411
 10
-108.7197523132001
 20
51.37715247059411
 10
-119.8301488001002
 20
46.09594229603885
 10
-119.8301488001002
 20
46.09594229603885
 10
-119.8301488001002
 20
46.09594229603885
 10
-114.5482517952105
 20
57.20570918847057
 10
-114.5482517952105
 20
57.20570918847057
 10
-114.5482517952105
 20
57.20570918847057
 10
-126.1395439902674
 20
61.32743528117483
 10
-126.1395439902674
 20
61.32743528117483
 10
-126.1395439902674
 20
61.32743528117483
 10
-114.5482517952105
 20
65.4494475531845
 10
-114.5482517952105
 20
65.4494475531845
 10
-114.5482517952105
 20
65.4494475531845
 10
-119.8301488001002
 20
76.5603019269855
 10
-119.8301488001002
 20
76.5603019269855
 97
        0
 97
        1
330
7C
 92
        1
 93
        1
 72
     4
 94
        3
 73
     0
 74
     0
 95
       47
 96
       43
 40
0.0
 40
0.0
 40
0.0
 40
0.0
 40
1.0
 40
1.0
 40
1.0
 40
2.0
 40
2.0
 40
2.0
 40
3.0
 40
3.0
 40
3.0
 40
4.0
 40
4.0
 40
4.0
 40
5.0
 40
5.0
 40
5.0
 40
6.0
 40
6.0
 40
6.0
 40
7.0
 40
7.0
 40
7.0
 40
8.0
 40
8.0
 40
8.0
 40
9.0
 40
9.0
 40
9.0
 40
10.0
 40
10.0
 40
10.0
 40
11.0
 40
11.0
 40
11.0
 40
12.0
 40
12.0
 40
12.0
 40
13.0
 40
13.0
 40
13.0
 40
14.0
 40
14.0
 40
14.0
 40
14.0
 10
-56.76573060297934
 20
2.184074246411836
 10
-47.37572964041924
 20
11.21886945263006
 10
-43.52753372972481
 20
19.9894639222681
 10
-46.27657215656675
 20
27.0780108947494
 10
-48.10502898738932
 20
31.79275774824438
 10
-53.42172539605025
 20
37.33055628980381
 10
-68.08526692772665
 20
38.27523418351318
 10
-68.08526692772665
 20
38.27523418351318
 10
-83.59755904927785
 20
87.73434469185195
 10
-83.59755904927785
 20
87.73434469185195
 10
-83.59755904927785
 20
87.73434469185195
 10
-140.8579747130984
 20
87.73434469185195
 10
-140.8579747130984
 20
87.73434469185195
 10
-140.8579747130984
 20
87.73434469185195
 10
-167.5717828130343
 20
1.199560193104258
 10
-167.5717828130343
 20
1.199560193104258
 10
-177.3616335038863
 20
-7.99269086804862
 10
-181.3821665935039
 20
-16.92989893044897
 10
-178.5542571495377
 20
-24.22174768290626
 10
-178.1080463734406
 20
-25.37230297035442
 10
-177.4525812877851
 20
-26.57179491937417
 10
-176.5061863182205
 20
-27.74186763559527
 10
-176.5061863182205
 20
-27.74186763559527
 10
-192.9870236877208
 20
-81.12878913794752
 10
-192.9870236877208
 20
-81.12878913794752
 10
-192.9870236877208
 20
-81.12878913794752
 10
-146.1378684628362
 20
-81.12878913794752
 10
-146.1378684628362
 20
-81.12878913794752
 10
-146.1378684628362
 20
-81.12878913794752
 10
-136.3585491704965
 20
-49.02719768938906
 10
-136.3585491704965
 20
-49.02719768938906
 10
-136.3585491704965
 20
-49.02719768938906
 10
-97.17733954384934
 20
-49.02719768938906
 10
-97.17733954384934
 20
-49.02719768938906
 10
-97.17733954384934
 20
-49.02719768938906
 10
-87.97175252696829
 20
-81.12878913794752
 10
-87.97175252696829
 20
-81.12878913794752
 10
-87.97175252696829
 20
-81.12878913794752
 10
-30.63561381841028
 20
-81.12878913794752
 10
-30.63561381841028
 20
-81.12878913794752
 10
-30.63561381841028
 20
-81.12878913794752
 10
-56.76573060297934
 20
2.184074246411836
 10
-56.76573060297934
 20
2.184074246411836
 97
        0
 97
        1
330
7D
 75
     2
 76
     1
 98
        1
 10
0.0
 20
0.0
450
        0
451
        0
460
0.0
461
0.0
452
        0
462
0.0
453
        0
470

  0
ENDSEC
  0
SECTION
  2
OBJECTS
  0
DICTIONARY
  5
C
330
0
100
AcDbDictionary
281
     1
  3
ACAD_COLOR
350
63
  3
ACAD_DETAILVIEWSTYLE
350
6A
  3
ACAD_GROUP
350
D
  3
ACAD_LAYOUT
350
62
  3
ACAD_MATERIAL
350
10
  3
ACAD_MLEADERSTYLE
350
66
  3
ACAD_MLINESTYLE
350
5F
  3
ACAD_PLOTSETTINGS
350
61
  3
ACAD_PLOTSTYLENAME
350
E
  3
ACAD_SCALELIST
350
42
  3
ACAD_SECTIONVIEWSTYLE
350
68
  3
ACAD_TABLESTYLE
350
64
  3
ACAD_VISUALSTYLE
350
29
  3
ACDB_RECOMPOSE_DATA
350
87
  3
AcDbVariableDictionary
350
7F
  0
DICTIONARY
  5
63
102
{ACAD_REACTORS
330
C
102
}
330
C
100
AcDbDictionary
281
     1
  0
DICTIONARY
  5
6A
102
{ACAD_REACTORS
330
C
102
}
330
C
100
AcDbDictionary
281
     1
  3
Imperial24
350
6B
  0
DICTIONARY
  5
D
102
{ACAD_REACTORS
330
C
102
}
330
C
100
AcDbDictionary
281
     1
  0
DICTIONARY
  5
62
102
{ACAD_REACTORS
330
C
102
}
330
C
100
AcDbDictionary
281
     1
  3
Layout1
350
6F
  3
Layout2
350
77
  3
Model
350
73
  0
DICTIONARY
  5
10
102
{ACAD_REACTORS
330
C
102
}
330
C
100
AcDbDictionary
281
     1
  3
ByBlock
350
19
  3
ByLayer
350
11
  3
Global
350
21
  0
DICTIONARY
  5
66
102
{ACAD_REACTORS
330
C
102
}
330
C
100
AcDbDictionary
281
     1
  3
Standard
350
67
  0
DICTIONARY
  5
5F
102
{ACAD_REACTORS
330
C
102
}
330
C
100
AcDbDictionary
281
     1
  3
Standard
350
60
  0
DICTIONARY
  5
61
102
{ACAD_REACTORS
330
C
102
}
330
C
100
AcDbDictionary
281
     1
  0
ACDBDICTIONARYWDFLT
  5
E
102
{ACAD_REACTORS
330
C
102
}
330
C
100
AcDbDictionary
281
     1
  3
Normal
350
F
100
AcDbDictionaryWithDefault
340
F
  0
DICTIONARY
  5
42
102
{ACAD_REACTORS
330
C
102
}
330
C
100
AcDbDictionary
281
     1
  3
A0
350
43
  3
A1
350
44
  3
A2
350
45
  3
A3
350
46
  3
A4
350
47
  3
A5
350
48
  3
A6
350
49
  3
A7
350
4A
  3
A8
350
4B
  3
A9
350
4C
  3
B0
350
4D
  3
B1
350
4E
  3
B2
350
4F
  3
B3
350
50
  3
B4
350
51
  3
B5
350
52
  3
B6
350
53
  0
DICTIONARY
  5
68
102
{ACAD_REACTORS
330
C
102
}
330
C
100
AcDbDictionary
281
     1
  3
Imperial24
350
69
  0
DICTIONARY
  5
64
102
{ACAD_REACTORS
330
C
102
}
330
C
100
AcDbDictionary
281
     1
  3
Standard
350
65
  0
DICTIONARY
  5
29
102
{ACAD_REACTORS
330
C
102
}
330
C
100
AcDbDictionary
281
     1
  3
2dWireframe
350
2F
  3
Basic
350
2E
  3
Brighten
350
35
  3
ColorChange
350
39
  3
Conceptual
350
32
  3
Dim
350
34
  3
EdgeColorOff
350
41
  3
Facepattern
350
38
  3
Flat
350
2A
  3
FlatWithEdges
350
2B
  3
Gouraud
350
2C
  3
GouraudWithEdges
350
2D
  3
Hidden
350
31
  3
JitterOff
350
3F
  3
Linepattern
350
37
  3
OverhangOff
350
40
  3
Realistic
350
33
  3
Shaded
350
3E
  3
Shaded with edges
350
3D
  3
Shades of Gray
350
3A
  3
Sketchy
350
3B
  3
Thicken
350
36
  3
Wireframe
350
30
  3
X-Ray
350
3C
  0
XRECORD
  5
87
102
{ACAD_REACTORS
330
C
102
}
330
C
100
AcDbXrecord
280
     1
 90
        1
330
65
  0
DICTIONARY
  5
7F
102
{ACAD_REACTORS
330
C
102
}
330
C
100
AcDbDictionary
281
     1
  3
CANNOSCALE
350
84
  3
CMLEADERSTYLE
350
81
  3
CTABLESTYLE
350
80
  3
CVIEWDETAILSTYLE
350
82
  3
CVIEWSECTIONSTYLE
350
83
  0
ACDBDETAILVIEWSTYLE
  5
6B
102
{ACAD_XDICTIONARY
360
8A
102
}
102
{ACAD_REACTORS
330
6A
102
}
330
6A
100
AcDbModelDocViewStyle
 70
     0
  3
Imperial24
290
     0
100
AcDbDetailViewStyle
 70
     0
 71
     0
 90
        3
 71
     1
340
55
 62
   256
 40
0.24
340
0
 62
   256
 40
0.24
300

 40
0.36
280
     3
 71
     2
340
5D
 90
       25
 62
   256
 71
     3
340
55
 62
   256
 40
0.24
 90
        1
 40
0.75
 90
        1
300
%<\AcVar ViewType \f "%tc1">% %<\AcVar ViewDetailId>%\PSCALE %<\AcVar ViewScale \f "%sn">%
 71
     4
340
5D
 90
       25
 62
   256
340
5D
 90
       25
 62
   256
280
     0
  0
LAYOUT
  5
6F
102
{ACAD_REACTORS
330
62
102
}
330
62
100
AcDbPlotSettings
  1

  2

  4

  6

 40
0.0
 41
0.0
 42
0.0
 43
0.0
 44
0.0
 45
0.0
 46
0.0
 47
0.0
 48
0.0
 49
0.0
140
0.0
141
0.0
142
1.0
143
1.0
 70
   688
 72
     0
 73
     0
 74
     5
  7

 75
    16
147
1.0
 76
     0
 77
     2
 78
   300
148
0.0
149
0.0
100
AcDbLayout
  1
Layout1
 70
     1
 71
     1
 10
0.0
 20
0.0
 11
12.0
 21
9.0
 12
0.0
 22
0.0
 32
0.0
 14
0.0
 24
0.0
 34
0.0
 15
0.0
 25
0.0
 35
0.0
146
0.0
 13
0.0
 23
0.0
 33
0.0
 16
1.0
 26
0.0
 36
0.0
 17
0.0
 27
1.0
 37
0.0
 76
     0
330
6C
  0
LAYOUT
  5
77
102
{ACAD_REACTORS
330
62
102
}
330
62
100
AcDbPlotSettings
  1

  2

  4

  6

 40
0.0
 41
0.0
 42
0.0
 43
0.0
 44
0.0
 45
0.0
 46
0.0
 47
0.0
 48
0.0
 49
0.0
140
0.0
141
0.0
142
1.0
143
1.0
 70
   688
 72
     0
 73
     0
 74
     5
  7

 75
    16
147
1.0
 76
     0
 77
     2
 78
   300
148
0.0
149
0.0
100
AcDbLayout
  1
Layout2
 70
     1
 71
     2
 10
0.0
 20
0.0
 11
12.0
 21
9.0
 12
0.0
 22
0.0
 32
0.0
 14
0.0
 24
0.0
 34
0.0
 15
0.0
 25
0.0
 35
0.0
146
0.0
 13
0.0
 23
0.0
 33
0.0
 16
1.0
 26
0.0
 36
0.0
 17
0.0
 27
1.0
 37
0.0
 76
     0
330
74
  0
LAYOUT
  5
73
102
{ACAD_REACTORS
330
62
102
}
330
62
100
AcDbPlotSettings
  1

  2

  4

  6

 40
0.0
 41
0.0
 42
0.0
 43
0.0
 44
0.0
 45
0.0
 46
0.0
 47
0.0
 48
0.0
 49
0.0
140
0.0
141
0.0
142
1.0
143
1.0
 70
  1712
 72
     0
 73
     0
 74
     0
  7

 75
     0
147
1.0
 76
     0
 77
     2
 78
   300
148
0.0
149
0.0
100
AcDbLayout
  1
Model
 70
     1
 71
     0
 10
0.0
 20
0.0
 11
12.0
 21
9.0
 12
0.0
 22
0.0
 32
0.0
 14
0.0
 24
0.0
 34
0.0
 15
0.0
 25
0.0
 35
0.0
146
0.0
 13
0.0
 23
0.0
 33
0.0
 16
1.0
 26
0.0
 36
0.0
 17
0.0
 27
1.0
 37
0.0
 76
     0
330
70
  0
MATERIAL
  5
19
102
{ACAD_XDICTIONARY
360
1A
102
}
102
{ACAD_REACTORS
330
10
102
}
330
10
100
AcDbMaterial
  1
ByBlock
 72
     0
 43
0.0208333333333333
 43
0.0
 43
0.0
 43
0.0
 43
0.0
 43
0.0208333333333333
 43
0.0
 43
0.0
 43
0.0
 43
0.0
 43
1.0
 43
0.0
 43
0.0
 43
0.0
 43
0.0
 43
1.0
 77
     0
 47
0.0208333333333333
 47
0.0
 47
0.0
 47
0.0
 47
0.0
 47
0.0208333333333333
 47
0.0
 47
0.0
 47
0.0
 47
0.0
 47
1.0
 47
0.0
 47
0.0
 47
0.0
 47
0.0
 47
1.0
171
     0
 49
0.0208333333333333
 49
0.0
 49
0.0
 49
0.0
 49
0.0
 49
0.0208333333333333
 49
0.0
 49
0.0
 49
0.0
 49
0.0
 49
1.0
 49
0.0
 49
0.0
 49
0.0
 49
0.0
 49
1.0
175
     0
142
0.0208333333333333
142
0.0
142
0.0
142
0.0
142
0.0
142
0.0208333333333333
142
0.0
142
0.0
142
0.0
142
0.0
142
1.0
142
0.0
142
0.0
142
0.0
142
0.0
142
1.0
179
     0
144
0.0208333333333333
144
0.0
144
0.0
144
0.0
144
0.0
144
0.0208333333333333
144
0.0
144
0.0
144
0.0
144
0.0
144
1.0
144
0.0
144
0.0
144
0.0
144
0.0
144
1.0
147
0.0208333333333333
147
0.0
147
0.0
147
0.0
147
0.0
147
0.0208333333333333
147
0.0
147
0.0
147
0.0
147
0.0
147
1.0
147
0.0
147
0.0
147
0.0
147
0.0
147
1.0
  0
MATERIAL
  5
11
102
{ACAD_XDICTIONARY
360
12
102
}
102
{ACAD_REACTORS
330
10
102
}
330
10
100
AcDbMaterial
  1
ByLayer
 72
     0
 43
0.0208333333333333
 43
0.0
 43
0.0
 43
0.0
 43
0.0
 43
0.0208333333333333
 43
0.0
 43
0.0
 43
0.0
 43
0.0
 43
1.0
 43
0.0
 43
0.0
 43
0.0
 43
0.0
 43
1.0
 77
     0
 47
0.0208333333333333
 47
0.0
 47
0.0
 47
0.0
 47
0.0
 47
0.0208333333333333
 47
0.0
 47
0.0
 47
0.0
 47
0.0
 47
1.0
 47
0.0
 47
0.0
 47
0.0
 47
0.0
 47
1.0
171
     0
 49
0.0208333333333333
 49
0.0
 49
0.0
 49
0.0
 49
0.0
 49
0.0208333333333333
 49
0.0
 49
0.0
 49
0.0
 49
0.0
 49
1.0
 49
0.0
 49
0.0
 49
0.0
 49
0.0
 49
1.0
175
     0
142
0.0208333333333333
142
0.0
142
0.0
142
0.0
142
0.0
142
0.0208333333333333
142
0.0
142
0.0
142
0.0
142
0.0
142
1.0
142
0.0
142
0.0
142
0.0
142
0.0
142
1.0
179
     0
144
0.0208333333333333
144
0.0
144
0.0
144
0.0
144
0.0
144
0.0208333333333333
144
0.0
144
0.0
144
0.0
144
0.0
144
1.0
144
0.0
144
0.0
144
0.0
144
0.0
144
1.0
147
0.0208333333333333
147
0.0
147
0.0
147
0.0
147
0.0
147
0.0208333333333333
147
0.0
147
0.0
147
0.0
147
0.0
147
1.0
147
0.0
147
0.0
147
0.0
147
0.0
147
1.0
  0
MATERIAL
  5
21
102
{ACAD_XDICTIONARY
360
22
102
}
102
{ACAD_REACTORS
330
10
102
}
330
10
100
AcDbMaterial
  1
Global
 72
     0
 43
0.0208333333333333
 43
0.0
 43
0.0
 43
0.0
 43
0.0
 43
0.0208333333333333
 43
0.0
 43
0.0
 43
0.0
 43
0.0
 43
1.0
 43
0.0
 43
0.0
 43
0.0
 43
0.0
 43
1.0
 77
     0
 47
0.0208333333333333
 47
0.0
 47
0.0
 47
0.0
 47
0.0
 47
0.0208333333333333
 47
0.0
 47
0.0
 47
0.0
 47
0.0
 47
1.0
 47
0.0
 47
0.0
 47
0.0
 47
0.0
 47
1.0
171
     0
 49
0.0208333333333333
 49
0.0
 49
0.0
 49
0.0
 49
0.0
 49
0.0208333333333333
 49
0.0
 49
0.0
 49
0.0
 49
0.0
 49
1.0
 49
0.0
 49
0.0
 49
0.0
 49
0.0
 49
1.0
175
     0
142
0.0208333333333333
142
0.0
142
0.0
142
0.0
142
0.0
142
0.0208333333333333
142
0.0
142
0.0
142
0.0
142
0.0
142
1.0
142
0.0
142
0.0
142
0.0
142
0.0
142
1.0
179
     0
144
0.0208333333333333
144
0.0
144
0.0
144
0.0
144
0.0
144
0.0208333333333333
144
0.0
144
0.0
144
0.0
144
0.0
144
1.0
144
0.0
144
0.0
144
0.0
144
0.0
144
1.0
147
0.0208333333333333
147
0.0
147
0.0
147
0.0
147
0.0
147
0.0208333333333333
147
0.0
147
0.0
147
0.0
147
0.0
147
1.0
147
0.0
147
0.0
147
0.0
147
0.0
147
1.0
  0
MLEADERSTYLE
  5
67
102
{ACAD_REACTORS
330
66
102
}
330
66
100
AcDbMLeaderStyle
179
     2
170
     2
171
     1
172
     0
 90
        2
 40
0.0
 41
0.0
173
     1
 91
-1056964608
340
5B
 92
       -2
290
     1
 42
0.09
291
     1
 43
0.36
  3
Standard
 44
0.18
300

342
55
174
     1
178
     6
175
     1
176
     0
 93
-1056964608
 45
0.18
292
     0
297
     0
 46
0.18
 94
-1056964608
 47
1.0
 49
1.0
140
1.0
293
     1
141
0.0
294
     1
177
     0
142
1.0
295
     0
296
     0
143
0.125
271
     0
272
     9
273
     9
298
     1
  0
MLINESTYLE
  5
60
102
{ACAD_REACTORS
330
5F
102
}
330
5F
100
AcDbMlineStyle
  2
STANDARD
 70
     0
  3

 62
   256
 51
90.0
 52
90.0
 71
     2
 49
0.5
 62
   256
  6
BYLAYER
 49
-0.5
 62
   256
  6
BYLAYER
  0
ACDBPLACEHOLDER
  5
F
102
{ACAD_REACTORS
330
E
102
}
330
E
  0
SCALE
  5
43
102
{ACAD_REACTORS
330
42
102
}
330
42
100
AcDbScale
 70
     0
300
1:1
140
1.0
141
1.0
290
     1
  0
SCALE
  5
44
102
{ACAD_REACTORS
330
42
102
}
330
42
100
AcDbScale
 70
     0
300
1/128" = 1'-0"
140
0.0078125
141
12.0
290
     0
  0
SCALE
  5
45
102
{ACAD_REACTORS
330
42
102
}
330
42
100
AcDbScale
 70
     0
300
1/64" = 1'-0"
140
0.015625
141
12.0
290
     0
  0
SCALE
  5
46
102
{ACAD_REACTORS
330
42
102
}
330
42
100
AcDbScale
 70
     0
300
1/32" = 1'-0"
140
0.03125
141
12.0
290
     0
  0
SCALE
  5
47
102
{ACAD_REACTORS
330
42
102
}
330
42
100
AcDbScale
 70
     0
300
1/16" = 1'-0"
140
0.0625
141
12.0
290
     0
  0
SCALE
  5
48
102
{ACAD_REACTORS
330
42
102
}
330
42
100
AcDbScale
 70
     0
300
3/32" = 1'-0"
140
0.09375
141
12.0
290
     0
  0
SCALE
  5
49
102
{ACAD_REACTORS
330
42
102
}
330
42
100
AcDbScale
 70
     0
300
1/8" = 1'-0"
140
0.125
141
12.0
290
     0
  0
SCALE
  5
4A
102
{ACAD_REACTORS
330
42
102
}
330
42
100
AcDbScale
 70
     0
300
3/16" = 1'-0"
140
0.1875
141
12.0
290
     0
  0
SCALE
  5
4B
102
{ACAD_REACTORS
330
42
102
}
330
42
100
AcDbScale
 70
     0
300
1/4" = 1'-0"
140
0.25
141
12.0
290
     0
  0
SCALE
  5
4C
102
{ACAD_REACTORS
330
42
102
}
330
42
100
AcDbScale
 70
     0
300
3/8" = 1'-0"
140
0.375
141
12.0
290
     0
  0
SCALE
  5
4D
102
{ACAD_REACTORS
330
42
102
}
330
42
100
AcDbScale
 70
     0
300
1/2" = 1'-0"
140
0.5
141
12.0
290
     0
  0
SCALE
  5
4E
102
{ACAD_REACTORS
330
42
102
}
330
42
100
AcDbScale
 70
     0
300
3/4" = 1'-0"
140
0.75
141
12.0
290
     0
  0
SCALE
  5
4F
102
{ACAD_REACTORS
330
42
102
}
330
42
100
AcDbScale
 70
     0
300
1" = 1'-0"
140
1.0
141
12.0
290
     0
  0
SCALE
  5
50
102
{ACAD_REACTORS
330
42
102
}
330
42
100
AcDbScale
 70
     0
300
1-1/2" = 1'-0"
140
1.5
141
12.0
290
     0
  0
SCALE
  5
51
102
{ACAD_REACTORS
330
42
102
}
330
42
100
AcDbScale
 70
     0
300
3" = 1'-0"
140
3.0
141
12.0
290
     0
  0
SCALE
  5
52
102
{ACAD_REACTORS
330
42
102
}
330
42
100
AcDbScale
 70
     0
300
6" = 1'-0"
140
6.0
141
12.0
290
     0
  0
SCALE
  5
53
102
{ACAD_REACTORS
330
42
102
}
330
42
100
AcDbScale
 70
     0
300
1'-0" = 1'-0"
140
12.0
141
12.0
290
     0
  0
ACDBSECTIONVIEWSTYLE
  5
69
102
{ACAD_XDICTIONARY
360
88
102
}
102
{ACAD_REACTORS
330
68
102
}
330
68
100
AcDbModelDocViewStyle
 70
     0
  3
Imperial24
290
     0
100
AcDbSectionViewStyle
 70
     0
 71
     0
 90
       78
 71
     1
340
55
 62
   256
 40
0.24
340
0
340
0
 62
   256
 40
0.24
300
I, O, Q, S, X, Z
 40
0.48
 90
        3
 40
0.18
 90
        1
 71
     2
340
5D
 90
       25
 62
   256
340
5D
 90
       50
 62
   256
 40
0.24
 40
0.0
 40
0.24
 71
     3
340
55
 62
   256
 40
0.24
 90
        1
 40
0.75
 90
        1
300
%<\AcVar ViewType \f "%tc1">% %<\AcVar ViewSectionStartId>%-%<\AcVar ViewSectionEndId>%\PSCALE %<\AcVar ViewScale \f "%sn">%
 71
     4
 62
   256
 62
   257
300
ANSI31
 40
1.0
 90
        0
290
     0
290
     0
 90
        6
 40
0.0
 40
1.570796326794896
 40
0.2617993877991494
 40
1.308996938995747
 40
-0.2617993877991494
 40
1.832595714594046
  0
TABLESTYLE
  5
65
102
{ACAD_XDICTIONARY
360
85
102
}
102
{ACAD_REACTORS
330
64
102
}
330
64
100
AcDbTableStyle
280
     0
  3
Standard
 70
     0
 71
     0
 40
0.06
 41
0.06
280
     0
281
     0
  7
Standard
140
0.18
170
     2
 62
     0
 63
     7
283
     0
 90
      512
 91
        0
  1

274
    -2
284
     1
 64
     0
275
    -2
285
     1
 65
     0
276
    -2
286
     1
 66
     0
277
    -2
287
     1
 67
     0
278
    -2
288
     1
 68
     0
279
    -2
289
     1
 69
     0
  7
Standard
140
0.25
170
     5
 62
     0
 63
     7
283
     0
 90
      512
 91
        0
  1

274
    -2
284
     1
 64
     0
275
    -2
285
     1
 65
     0
276
    -2
286
     1
 66
     0
277
    -2
287
     1
 67
     0
278
    -2
288
     1
 68
     0
279
    -2
289
     1
 69
     0
  7
Standard
140
0.18
170
     5
 62
     0
 63
     7
283
     0
 90
      512
 91
        0
  1

274
    -2
284
     1
 64
     0
275
    -2
285
     1
 65
     0
276
    -2
286
     1
 66
     0
277
    -2
287
     1
 67
     0
278
    -2
288
     1
 68
     0
279
    -2
289
     1
 69
     0
  0
VISUALSTYLE
  5
2F
102
{ACAD_REACTORS
330
29
102
}
330
29
100
AcDbVisualStyle
  2
2dWireframe
 70
     4
177
     3
291
     0
 70
    58
 90
        0
176
     1
 90
        2
176
     1
 90
        0
176
     1
 90
        0
176
     1
 40
0.6
176
     1
 40
30.0
176
     1
 62
     7
420
 16777215
176
     1
 90
        1
176
     1
 90
        4
176
     1
 62
     7
176
     1
 62
   257
176
     1
 90
        1
176
     1
 90
        1
176
     1
 40
1.0
176
     1
 90
        0
176
     1
 62
   257
176
     1
 40
1.0
176
     1
 90
        1
176
     1
 90
        6
176
     1
 90
        2
176
     1
 62
     7
176
     1
 90
        5
176
     1
 90
        0
176
     1
 90
        0
176
     1
290
     0
176
     1
 90
        1
176
     1
 40
0.0
176
     1
 90
        0
176
     1
290
     1
176
     1
290
     1
176
     1
290
     0
176
     1
290
     0
176
     1
290
     0
176
     1
290
     0
176
     1
290
     0
176
     1
290
     0
176
     1
290
     0
176
     1
 90
       50
176
     1
 40
0.0
176
     1
 40
1.0
176
     1
 90
        0
176
     1
 62
    18
420
        0
176
     1
 90
       50
176
     1
 90
        3
176
     1
 62
     5
420
      255
176
     1
290
     0
176
     1
 90
       50
176
     1
 90
       50
176
     1
 90
       50
176
     1
290
     0
176
     1
 90
       50
176
     1
 62
   256
176
     0
 40
1.0
176
     0
 90
        2
176
     1
  1
strokes_ogs.tif
176
     1
290
     0
176
     1
 40
1.0
176
     1
 40
1.0
176
     1
1001
ACAD
1000
AcDbSavedByObjectVersion
1070
     0
  0
VISUALSTYLE
  5
2E
102
{ACAD_REACTORS
330
29
102
}
330
29
100
AcDbVisualStyle
  2
Basic
 70
     7
177
     3
291
     1
 70
    58
 90
        1
176
     1
 90
        0
176
     1
 90
        1
176
     1
 90
        0
176
     1
 40
0.6
176
     1
 40
30.0
176
     1
 62
     7
420
 16777215
176
     1
 90
        0
176
     1
 90
        4
176
     1
 62
     7
176
     1
 62
   257
176
     1
 90
        1
176
     1
 90
        1
176
     1
 40
1.0
176
     1
 90
        8
176
     1
 62
     7
176
     1
 40
1.0
176
     1
 90
        1
176
     1
 90
        6
176
     1
 90
        2
176
     1
 62
     7
176
     1
 90
        5
176
     1
 90
        0
176
     1
 90
        0
176
     1
290
     0
176
     1
 90
        1
176
     1
 40
0.0
176
     1
 90
        0
176
     1
290
     0
176
     1
290
     1
176
     1
290
     1
176
     1
290
     0
176
     1
290
     0
176
     1
290
     0
176
     1
290
     0
176
     1
290
     0
176
     1
290
     0
176
     1
 90
       50
176
     1
 40
0.0
176
     1
 40
1.0
176
     1
 90
        0
176
     1
 62
    18
420
        0
176
     1
 90
       50
176
     1
 90
        3
176
     1
 62
     5
420
      255
176
     1
290
     0
176
     1
 90
       50
176
     1
 90
       50
176
     1
 90
       50
176
     1
290
     0
176
     1
 90
       50
176
     1
 62
   256
176
     0
 40
1.0
176
     0
 90
        2
176
     1
  1
strokes_ogs.tif
176
     1
290
     0
176
     1
 40
1.0
176
     1
 40
1.0
176
     1
1001
ACAD
1000
AcDbSavedByObjectVersion
1070
     0
  0
VISUALSTYLE
  5
35
102
{ACAD_REACTORS
330
29
102
}
330
29
100
AcDbVisualStyle
  2
Brighten
 70
    12
177
     3
291
     1
 70
    58
 90
        2
176
     1
 90
        2
176
     1
 90
        0
176
     1
 90
        0
176
     1
 40
0.6
176
     1
 40
30.0
176
     1
 62
     7
420
 16777215
176
     1
 90
        1
176
     1
 90
        4
176
     1
 62
     7
176
     1
 62
   257
176
     1
 90
        1
176
     1
 90
        1
176
     1
 40
1.0
176
     1
 90
        8
176
     1
 62
     7
176
     1
 40
1.0
176
     1
 90
        1
176
     1
 90
        6
176
     1
 90
        2
176
     1
 62
     7
176
     1
 90
        5
176
     1
 90
        0
176
     1
 90
        0
176
     1
290
     0
176
     1
 90
        1
176
     1
 40
50.0
176
     1
 90
        0
176
     1
290
     0
176
     1
290
     1
176
     1
290
     1
176
     1
290
     0
176
     1
290
     0
176
     1
290
     0
176
     1
290
     0
176
     1
290
     0
176
     1
290
     0
176
     1
 90
       50
176
     1
 40
0.0
176
     1
 40
1.0
176
     1
 90
        0
176
     1
 62
    18
420
        0
176
     1
 90
       50
176
     1
 90
        3
176
     1
 62
     5
420
      255
176
     1
290
     0
176
     1
 90
       50
176
     1
 90
       50
176
     1
 90
       50
176
     1
290
     0
176
     1
 90
       50
176
     1
 62
   256
176
     0
 40
1.0
176
     0
 90
        2
176
     1
  1
strokes_ogs.tif
176
     1
290
     0
176
     1
 40
1.0
176
     1
 40
1.0
176
     1
1001
ACAD
1000
AcDbSavedByObjectVersion
1070
     0
  0
VISUALSTYLE
  5
39
102
{ACAD_REACTORS
330
29
102
}
330
29
100
AcDbVisualStyle
  2
ColorChange
 70
    16
177
     3
291
     1
 70
    58
 90
        2
176
     1
 90
        2
176
     1
 90
        3
176
     1
 90
        0
176
     1
 40
0.6
176
     1
 40
30.0
176
     1
 62
     8
420
  8421504
176
     1
 90
        1
176
     1
 90
        4
176
     1
 62
     7
176
     1
 62
   257
176
     1
 90
        1
176
     1
 90
        1
176
     1
 40
1.0
176
     1
 90
        8
176
     1
 62
     8
420
  8421504
176
     1
 40
1.0
176
     1
 90
        1
176
     1
 90
        6
176
     1
 90
        2
176
     1
 62
     7
176
     1
 90
        5
176
     1
 90
        0
176
     1
 90
        0
176
     1
290
     0
176
     1
 90
        1
176
     1
 40
0.0
176
     1
 90
        0
176
     1
290
     0
176
     1
290
     1
176
     1
290
     1
176
     1
290
     0
176
     1
290
     0
176
     1
290
     0
176
     1
290
     0
176
     1
290
     0
176
     1
290
     0
176
     1
 90
       50
176
     1
 40
0.0
176
     1
 40
1.0
176
     1
 90
        0
176
     1
 62
    18
420
        0
176
     1
 90
       50
176
     1
 90
        3
176
     1
 62
     5
420
      255
176
     1
290
     0
176
     1
 90
       50
176
     1
 90
       50
176
     1
 90
       50
176
     1
290
     0
176
     1
 90
       50
176
     1
 62
   256
176
     0
 40
1.0
176
     0
 90
        2
176
     1
  1
strokes_ogs.tif
176
     1
290
     0
176
     1
 40
1.0
176
     1
 40
1.0
176
     1
1001
ACAD
1000
AcDbSavedByObjectVersion
1070
     0
  0
VISUALSTYLE
  5
32
102
{ACAD_REACTORS
330
29
102
}
330
29
100
AcDbVisualStyle
  2
Conceptual
 70
     9
177
     3
291
     0
 70
    58
 90
        3
176
     1
 90
        2
176
     1
 90
        0
176
     1
 90
        0
176
     1
 40
0.6
176
     1
 40
30.0
176
     1
 62
     7
420
 16777215
176
     1
 90
        2
176
     1
 90
        2
176
     1
 62
     7
176
     1
 62
   257
176
     1
 90
        1
176
     1
 90
        1
176
     1
 40
179.0
176
     1
 90
        8
176
     1
 62
     7
176
     1
 40
1.0
176
     1
 90
        1
176
     1
 90
        6
176
     1
 90
        2
176
     1
 62
     7
176
     1
 90
        3
176
     1
 90
        0
176
     1
 90
        0
176
     1
290
     0
176
     1
 90
        1
176
     1
 40
0.0
176
     1
 90
        0
176
     1
290
     0
176
     1
290
     1
176
     1
290
     1
176
     1
290
     0
176
     1
290
     0
176
     1
290
     0
176
     1
290
     0
176
     1
290
     0
176
     1
290
     0
176
     1
 90
       50
176
     1
 40
0.0
176
     1
 40
1.0
176
     1
 90
        0
176
     1
 62
    18
420
        0
176
     1
 90
       50
176
     1
 90
        3
176
     1
 62
     5
420
      255
176
     1
290
     0
176
     1
 90
       50
176
     1
 90
       50
176
     1
 90
       50
176
     1
290
     0
176
     1
 90
       50
176
     1
 62
   256
176
     0
 40
1.0
176
     0
 90
        2
176
     1
  1
strokes_ogs.tif
176
     1
290
     0
176
     1
 40
1.0
176
     1
 40
1.0
176
     1
1001
ACAD
1000
AcDbSavedByObjectVersion
1070
     0
  0
VISUALSTYLE
  5
34
102
{ACAD_REACTORS
330
29
102
}
330
29
100
AcDbVisualStyle
  2
Dim
 70
    11
177
     3
291
     1
 70
    58
 90
        2
176
     1
 90
        2
176
     1
 90
        0
176
     1
 90
        0
176
     1
 40
0.6
176
     1
 40
30.0
176
     1
 62
     7
420
 16777215
176
     1
 90
        1
176
     1
 90
        4
176
     1
 62
     7
176
     1
 62
   257
176
     1
 90
        1
176
     1
 90
        1
176
     1
 40
1.0
176
     1
 90
        8
176
     1
 62
     7
176
     1
 40
1.0
176
     1
 90
        1
176
     1
 90
        6
176
     1
 90
        2
176
     1
 62
     7
176
     1
 90
        5
176
     1
 90
        0
176
     1
 90
        0
176
     1
290
     0
176
     1
 90
        1
176
     1
 40
-50.0
176
     1
 90
        0
176
     1
290
     0
176
     1
290
     1
176
     1
290
     1
176
     1
290
     0
176
     1
290
     0
176
     1
290
     0
176
     1
290
     0
176
     1
290
     0
176
     1
290
     0
176
     1
 90
       50
176
     1
 40
0.0
176
     1
 40
1.0
176
     1
 90
        0
176
     1
 62
    18
420
        0
176
     1
 90
       50
176
     1
 90
        3
176
     1
 62
     5
420
      255
176
     1
290
     0
176
     1
 90
       50
176
     1
 90
       50
176
     1
 90
       50
176
     1
290
     0
176
     1
 90
       50
176
     1
 62
   256
176
     0
 40
1.0
176
     0
 90
        2
176
     1
  1
strokes_ogs.tif
176
     1
290
     0
176
     1
 40
1.0
176
     1
 40
1.0
176
     1
1001
ACAD
1000
AcDbSavedByObjectVersion
1070
     0
  0
VISUALSTYLE
  5
41
102
{ACAD_REACTORS
330
29
102
}
330
29
100
AcDbVisualStyle
  2
EdgeColorOff
 70
    22
177
     3
291
     1
 70
    58
 90
        2
176
     0
 90
        2
176
     0
 90
        0
176
     0
 90
        0
176
     0
 40
0.6
176
     0
 40
30.0
176
     0
 62
     7
420
 16777215
176
     0
 90
        1
176
     0
 90
        4
176
     0
 62
     7
176
     0
 62
   257
176
     0
 90
        1
176
     0
 90
        1
176
     0
 40
1.0
176
     0
 90
        8
176
     2
 62
     7
176
     0
 40
1.0
176
     0
 90
        1
176
     0
 90
        6
176
     0
 90
        2
176
     0
 62
     7
176
     0
 90
        5
176
     0
 90
        0
176
     0
 90
        0
176
     0
290
     0
176
     0
 90
        1
176
     0
 40
0.0
176
     0
 90
        0
176
     0
290
     0
176
     0
290
     1
176
     0
290
     1
176
     0
290
     0
176
     0
290
     0
176
     0
290
     0
176
     0
290
     0
176
     0
290
     0
176
     0
290
     0
176
     0
 90
       50
176
     0
 40
0.0
176
     0
 40
1.0
176
     0
 90
        0
176
     0
 62
    18
420
        0
176
     0
 90
       50
176
     0
 90
        3
176
     0
 62
     5
420
      255
176
     0
290
     0
176
     0
 90
       50
176
     0
 90
       50
176
     0
 90
       50
176
     0
290
     0
176
     0
 90
       50
176
     0
 62
   256
176
     0
 40
1.0
176
     0
 90
        2
176
     0
  1
strokes_ogs.tif
176
     0
290
     0
176
     0
 40
1.0
176
     0
 40
1.0
176
     0
1001
ACAD
1000
AcDbSavedByObjectVersion
1070
     0
  0
VISUALSTYLE
  5
38
102
{ACAD_REACTORS
330
29
102
}
330
29
100
AcDbVisualStyle
  2
Facepattern
 70
    15
177
     3
291
     1
 70
    58
 90
        2
176
     1
 90
        2
176
     1
 90
        0
176
     1
 90
        0
176
     1
 40
0.6
176
     1
 40
30.0
176
     1
 62
     7
420
 16777215
176
     1
 90
        1
176
     1
 90
        4
176
     1
 62
     7
176
     1
 62
   257
176
     1
 90
        1
176
     1
 90
        1
176
     1
 40
1.0
176
     1
 90
        8
176
     1
 62
     7
176
     1
 40
1.0
176
     1
 90
        1
176
     1
 90
        6
176
     1
 90
        2
176
     1
 62
     7
176
     1
 90
        5
176
     1
 90
        0
176
     1
 90
        0
176
     1
290
     0
176
     1
 90
        1
176
     1
 40
0.0
176
     1
 90
        0
176
     1
290
     0
176
     1
290
     1
176
     1
290
     1
176
     1
290
     0
176
     1
290
     0
176
     1
290
     0
176
     1
290
     0
176
     1
290
     0
176
     1
290
     0
176
     1
 90
       50
176
     1
 40
0.0
176
     1
 40
1.0
176
     1
 90
        0
176
     1
 62
    18
420
        0
176
     1
 90
       50
176
     1
 90
        3
176
     1
 62
     5
420
      255
176
     1
290
     0
176
     1
 90
       50
176
     1
 90
       50
176
     1
 90
       50
176
     1
290
     0
176
     1
 90
       50
176
     1
 62
   256
176
     0
 40
1.0
176
     0
 90
        2
176
     1
  1
strokes_ogs.tif
176
     1
290
     0
176
     1
 40
1.0
176
     1
 40
1.0
176
     1
1001
ACAD
1000
AcDbSavedByObjectVersion
1070
     0
  0
VISUALSTYLE
  5
2A
102
{ACAD_REACTORS
330
29
102
}
330
29
100
AcDbVisualStyle
  2
Flat
 70
     0
177
     3
291
     1
 70
    58
 90
        2
176
     1
 90
        1
176
     1
 90
        1
176
     1
 90
        2
176
     1
 40
0.6
176
     1
 40
30.0
176
     1
 62
     7
420
 16777215
176
     1
 90
        0
176
     1
 90
        0
176
     1
 62
     7
176
     1
 62
   257
176
     1
 90
        1
176
     1
 90
        1
176
     1
 40
1.0
176
     1
 90
        8
176
     1
 62
     7
176
     1
 40
1.0
176
     1
 90
        1
176
     1
 90
        6
176
     1
 90
        2
176
     1
 62
     7
176
     1
 90
        5
176
     1
 90
        0
176
     1
 90
        0
176
     1
290
     0
176
     1
 90
       13
176
     1
 40
0.0
176
     1
 90
        0
176
     1
290
     0
176
     1
290
     1
176
     1
290
     1
176
     1
290
     0
176
     1
290
     0
176
     1
290
     0
176
     1
290
     0
176
     1
290
     0
176
     1
290
     0
176
     1
 90
       50
176
     1
 40
0.0
176
     1
 40
1.0
176
     1
 90
        0
176
     1
 62
    18
420
        0
176
     1
 90
       50
176
     1
 90
        3
176
     1
 62
     5
420
      255
176
     1
290
     0
176
     1
 90
       50
176
     1
 90
       50
176
     1
 90
       50
176
     1
290
     0
176
     1
 90
       50
176
     1
 62
   256
176
     0
 40
1.0
176
     0
 90
        2
176
     1
  1
strokes_ogs.tif
176
     1
290
     0
176
     1
 40
1.0
176
     1
 40
1.0
176
     1
1001
ACAD
1000
AcDbSavedByObjectVersion
1070
     0
  0
VISUALSTYLE
  5
2B
102
{ACAD_REACTORS
330
29
102
}
330
29
100
AcDbVisualStyle
  2
FlatWithEdges
 70
     1
177
     3
291
     1
 70
    58
 90
        2
176
     1
 90
        1
176
     1
 90
        1
176
     1
 90
        2
176
     1
 40
0.6
176
     1
 40
30.0
176
     1
 62
     7
420
 16777215
176
     1
 90
        1
176
     1
 90
        0
176
     1
 62
     7
176
     1
 62
   257
176
     1
 90
        1
176
     1
 90
        1
176
     1
 40
1.0
176
     1
 90
        0
176
     1
 62
   257
176
     1
 40
1.0
176
     1
 90
        1
176
     1
 90
        6
176
     1
 90
        2
176
     1
 62
     7
176
     1
 90
        5
176
     1
 90
        0
176
     1
 90
        0
176
     1
290
     0
176
     1
 90
       13
176
     1
 40
0.0
176
     1
 90
        0
176
     1
290
     0
176
     1
290
     1
176
     1
290
     1
176
     1
290
     0
176
     1
290
     0
176
     1
290
     0
176
     1
290
     0
176
     1
290
     0
176
     1
290
     0
176
     1
 90
       50
176
     1
 40
0.0
176
     1
 40
1.0
176
     1
 90
        0
176
     1
 62
    18
420
        0
176
     1
 90
       50
176
     1
 90
        3
176
     1
 62
     5
420
      255
176
     1
290
     0
176
     1
 90
       50
176
     1
 90
       50
176
     1
 90
       50
176
     1
290
     0
176
     1
 90
       50
176
     1
 62
   256
176
     0
 40
1.0
176
     0
 90
        2
176
     1
  1
strokes_ogs.tif
176
     1
290
     0
176
     1
 40
1.0
176
     1
 40
1.0
176
     1
1001
ACAD
1000
AcDbSavedByObjectVersion
1070
     0
  0
VISUALSTYLE
  5
2C
102
{ACAD_REACTORS
330
29
102
}
330
29
100
AcDbVisualStyle
  2
Gouraud
 70
     2
177
     3
291
     1
 70
    58
 90
        2
176
     1
 90
        2
176
     1
 90
        1
176
     1
 90
        2
176
     1
 40
0.6
176
     1
 40
30.0
176
     1
 62
     7
420
 16777215
176
     1
 90
        0
176
     1
 90
        0
176
     1
 62
     7
176
     1
 62
   257
176
     1
 90
        1
176
     1
 90
        1
176
     1
 40
1.0
176
     1
 90
        0
176
     1
 62
     7
176
     1
 40
1.0
176
     1
 90
        1
176
     1
 90
        6
176
     1
 90
        2
176
     1
 62
     7
176
     1
 90
        5
176
     1
 90
        0
176
     1
 90
        0
176
     1
290
     0
176
     1
 90
       13
176
     1
 40
0.0
176
     1
 90
        0
176
     1
290
     0
176
     1
290
     1
176
     1
290
     1
176
     1
290
     0
176
     1
290
     0
176
     1
290
     0
176
     1
290
     0
176
     1
290
     0
176
     1
290
     0
176
     1
 90
       50
176
     1
 40
0.0
176
     1
 40
1.0
176
     1
 90
        0
176
     1
 62
    18
420
        0
176
     1
 90
       50
176
     1
 90
        3
176
     1
 62
     5
420
      255
176
     1
290
     0
176
     1
 90
       50
176
     1
 90
       50
176
     1
 90
       50
176
     1
290
     0
176
     1
 90
       50
176
     1
 62
   256
176
     0
 40
1.0
176
     0
 90
        2
176
     1
  1
strokes_ogs.tif
176
     1
290
     0
176
     1
 40
1.0
176
     1
 40
1.0
176
     1
1001
ACAD
1000
AcDbSavedByObjectVersion
1070
     0
  0
VISUALSTYLE
  5
2D
102
{ACAD_REACTORS
330
29
102
}
330
29
100
AcDbVisualStyle
  2
GouraudWithEdges
 70
     3
177
     3
291
     1
 70
    58
 90
        2
176
     1
 90
        2
176
     1
 90
        1
176
     1
 90
        2
176
     1
 40
0.6
176
     1
 40
30.0
176
     1
 62
     7
420
 16777215
176
     1
 90
        1
176
     1
 90
        0
176
     1
 62
     7
176
     1
 62
   257
176
     1
 90
        1
176
     1
 90
        1
176
     1
 40
1.0
176
     1
 90
        0
176
     1
 62
   257
176
     1
 40
1.0
176
     1
 90
        1
176
     1
 90
        6
176
     1
 90
        2
176
     1
 62
     7
176
     1
 90
        5
176
     1
 90
        0
176
     1
 90
        0
176
     1
290
     0
176
     1
 90
       13
176
     1
 40
0.0
176
     1
 90
        0
176
     1
290
     0
176
     1
290
     1
176
     1
290
     1
176
     1
290
     0
176
     1
290
     0
176
     1
290
     0
176
     1
290
     0
176
     1
290
     0
176
     1
290
     0
176
     1
 90
       50
176
     1
 40
0.0
176
     1
 40
1.0
176
     1
 90
        0
176
     1
 62
    18
420
        0
176
     1
 90
       50
176
     1
 90
        3
176
     1
 62
     5
420
      255
176
     1
290
     0
176
     1
 90
       50
176
     1
 90
       50
176
     1
 90
       50
176
     1
290
     0
176
     1
 90
       50
176
     1
 62
   256
176
     0
 40
1.0
176
     0
 90
        2
176
     1
  1
strokes_ogs.tif
176
     1
290
     0
176
     1
 40
1.0
176
     1
 40
1.0
176
     1
1001
ACAD
1000
AcDbSavedByObjectVersion
1070
     0
  0
VISUALSTYLE
  5
31
102
{ACAD_REACTORS
330
29
102
}
330
29
100
AcDbVisualStyle
  2
Hidden
 70
     6
177
     3
291
     0
 70
    58
 90
        1
176
     1
 90
        2
176
     1
 90
        2
176
     1
 90
        0
176
     1
 40
0.6
176
     1
 40
30.0
176
     1
 62
     7
420
 16777215
176
     1
 90
        2
176
     1
 90
        2
176
     1
 62
     7
176
     1
 62
   257
176
     1
 90
        2
176
     1
 90
        1
176
     1
 40
40.0
176
     1
 90
        0
176
     1
 62
   257
176
     1
 40
1.0
176
     1
 90
        1
176
     1
 90
        6
176
     1
 90
        2
176
     1
 62
     7
176
     1
 90
        3
176
     1
 90
        0
176
     1
 90
        0
176
     1
290
     0
176
     1
 90
        1
176
     1
 40
0.0
176
     1
 90
        0
176
     1
290
     0
176
     1
290
     1
176
     1
290
     1
176
     1
290
     0
176
     1
290
     0
176
     1
290
     0
176
     1
290
     0
176
     1
290
     0
176
     1
290
     0
176
     1
 90
       50
176
     1
 40
0.0
176
     1
 40
1.0
176
     1
 90
        0
176
     1
 62
    18
420
        0
176
     1
 90
       50
176
     1
 90
        3
176
     1
 62
     5
420
      255
176
     1
290
     0
176
     1
 90
       50
176
     1
 90
       50
176
     1
 90
       50
176
     1
290
     0
176
     1
 90
       50
176
     1
 62
   256
176
     0
 40
1.0
176
     0
 90
        2
176
     1
  1
strokes_ogs.tif
176
     1
290
     0
176
     1
 40
1.0
176
     1
 40
1.0
176
     1
1001
ACAD
1000
AcDbSavedByObjectVersion
1070
     0
  0
VISUALSTYLE
  5
3F
102
{ACAD_REACTORS
330
29
102
}
330
29
100
AcDbVisualStyle
  2
JitterOff
 70
    20
177
     3
291
     1
 70
    58
 90
        2
176
     0
 90
        2
176
     0
 90
        0
176
     0
 90
        0
176
     0
 40
0.6
176
     0
 40
30.0
176
     0
 62
     7
420
 16777215
176
     0
 90
        1
176
     0
 90
        4
176
     0
 62
     7
176
     0
 62
   257
176
     0
 90
        1
176
     0
 90
        1
176
     0
 40
1.0
176
     0
 90
       10
176
     2
 62
     7
176
     0
 40
1.0
176
     0
 90
        1
176
     0
 90
        6
176
     0
 90
        2
176
     0
 62
     7
176
     0
 90
        5
176
     0
 90
        0
176
     0
 90
        0
176
     0
290
     0
176
     0
 90
        1
176
     0
 40
0.0
176
     0
 90
        0
176
     0
290
     0
176
     0
290
     1
176
     0
290
     1
176
     0
290
     0
176
     0
290
     0
176
     0
290
     0
176
     0
290
     0
176
     0
290
     0
176
     0
290
     0
176
     0
 90
       50
176
     0
 40
0.0
176
     0
 40
1.0
176
     0
 90
        0
176
     0
 62
    18
420
        0
176
     0
 90
       50
176
     0
 90
        3
176
     0
 62
     5
420
      255
176
     0
290
     0
176
     0
 90
       50
176
     0
 90
       50
176
     0
 90
       50
176
     0
290
     0
176
     0
 90
       50
176
     0
 62
   256
176
     0
 40
1.0
176
     0
 90
        2
176
     0
  1
strokes_ogs.tif
176
     0
290
     0
176
     0
 40
1.0
176
     0
 40
1.0
176
     0
1001
ACAD
1000
AcDbSavedByObjectVersion
1070
     0
  0
VISUALSTYLE
  5
37
102
{ACAD_REACTORS
330
29
102
}
330
29
100
AcDbVisualStyle
  2
Linepattern
 70
    14
177
     3
291
     1
 70
    58
 90
        2
176
     1
 90
        2
176
     1
 90
        0
176
     1
 90
        0
176
     1
 40
0.6
176
     1
 40
30.0
176
     1
 62
     7
420
 16777215
176
     1
 90
        1
176
     1
 90
        4
176
     1
 62
     7
176
     1
 62
   257
176
     1
 90
        7
176
     1
 90
        7
176
     1
 40
1.0
176
     1
 90
        8
176
     1
 62
     7
176
     1
 40
1.0
176
     1
 90
        1
176
     1
 90
        6
176
     1
 90
        2
176
     1
 62
     7
176
     1
 90
        5
176
     1
 90
        0
176
     1
 90
        0
176
     1
290
     0
176
     1
 90
        1
176
     1
 40
0.0
176
     1
 90
        0
176
     1
290
     0
176
     1
290
     1
176
     1
290
     1
176
     1
290
     0
176
     1
290
     0
176
     1
290
     0
176
     1
290
     0
176
     1
290
     0
176
     1
290
     0
176
     1
 90
       50
176
     1
 40
0.0
176
     1
 40
1.0
176
     1
 90
        0
176
     1
 62
    18
420
        0
176
     1
 90
       50
176
     1
 90
        3
176
     1
 62
     5
420
      255
176
     1
290
     0
176
     1
 90
       50
176
     1
 90
       50
176
     1
 90
       50
176
     1
290
     0
176
     1
 90
       50
176
     1
 62
   256
176
     0
 40
1.0
176
     0
 90
        2
176
     1
  1
strokes_ogs.tif
176
     1
290
     0
176
     1
 40
1.0
176
     1
 40
1.0
176
     1
1001
ACAD
1000
AcDbSavedByObjectVersion
1070
     0
  0
VISUALSTYLE
  5
40
102
{ACAD_REACTORS
330
29
102
}
330
29
100
AcDbVisualStyle
  2
OverhangOff
 70
    21
177
     3
291
     1
 70
    58
 90
        2
176
     0
 90
        2
176
     0
 90
        0
176
     0
 90
        0
176
     0
 40
0.6
176
     0
 40
30.0
176
     0
 62
     7
420
 16777215
176
     0
 90
        1
176
     0
 90
        4
176
     0
 62
     7
176
     0
 62
   257
176
     0
 90
        1
176
     0
 90
        1
176
     0
 40
1.0
176
     0
 90
        9
176
     2
 62
     7
176
     0
 40
1.0
176
     0
 90
        1
176
     0
 90
        6
176
     0
 90
        2
176
     0
 62
     7
176
     0
 90
        5
176
     0
 90
        0
176
     0
 90
        0
176
     0
290
     0
176
     0
 90
        1
176
     0
 40
0.0
176
     0
 90
        0
176
     0
290
     0
176
     0
290
     1
176
     0
290
     1
176
     0
290
     0
176
     0
290
     0
176
     0
290
     0
176
     0
290
     0
176
     0
290
     0
176
     0
290
     0
176
     0
 90
       50
176
     0
 40
0.0
176
     0
 40
1.0
176
     0
 90
        0
176
     0
 62
    18
420
        0
176
     0
 90
       50
176
     0
 90
        3
176
     0
 62
     5
420
      255
176
     0
290
     0
176
     0
 90
       50
176
     0
 90
       50
176
     0
 90
       50
176
     0
290
     0
176
     0
 90
       50
176
     0
 62
   256
176
     0
 40
1.0
176
     0
 90
        2
176
     0
  1
strokes_ogs.tif
176
     0
290
     0
176
     0
 40
1.0
176
     0
 40
1.0
176
     0
1001
ACAD
1000
AcDbSavedByObjectVersion
1070
     0
  0
VISUALSTYLE
  5
33
102
{ACAD_REACTORS
330
29
102
}
330
29
100
AcDbVisualStyle
  2
Realistic
 70
     8
177
     3
291
     0
 70
    58
 90
        2
176
     1
 90
        3
176
     1
 90
        0
176
     1
 90
        2
176
     1
 40
0.6
176
     1
 40
30.0
176
     1
 62
     7
420
 16777215
176
     1
 90
        0
176
     1
 90
        0
176
     1
 62
     7
176
     1
 62
   257
176
     1
 90
        1
176
     1
 90
        1
176
     1
 40
1.0
176
     1
 90
        8
176
     1
 62
   257
176
     1
 40
1.0
176
     1
 90
        1
176
     1
 90
        6
176
     1
 90
        2
176
     1
 62
     7
176
     1
 90
        3
176
     1
 90
        0
176
     1
 90
        0
176
     1
290
     0
176
     1
 90
       13
176
     1
 40
0.0
176
     1
 90
        0
176
     1
290
     0
176
     1
290
     1
176
     1
290
     1
176
     1
290
     0
176
     1
290
     0
176
     1
290
     0
176
     1
290
     0
176
     1
290
     0
176
     1
290
     0
176
     1
 90
       50
176
     1
 40
0.0
176
     1
 40
1.0
176
     1
 90
        0
176
     1
 62
    18
420
        0
176
     1
 90
       50
176
     1
 90
        3
176
     1
 62
     5
420
      255
176
     1
290
     0
176
     1
 90
       50
176
     1
 90
       50
176
     1
 90
       50
176
     1
290
     0
176
     1
 90
       50
176
     1
 62
   256
176
     0
 40
1.0
176
     0
 90
        2
176
     1
  1
strokes_ogs.tif
176
     1
290
     0
176
     1
 40
1.0
176
     1
 40
1.0
176
     1
1001
ACAD
1000
AcDbSavedByObjectVersion
1070
     0
  0
VISUALSTYLE
  5
3E
102
{ACAD_REACTORS
330
29
102
}
330
29
100
AcDbVisualStyle
  2
Shaded
 70
    27
177
     3
291
     0
 70
    58
 90
        2
176
     1
 90
        2
176
     1
 90
        1
176
     1
 90
        2
176
     1
 40
0.6
176
     1
 40
30.0
176
     1
 62
     7
420
 16777215
176
     1
 90
        0
176
     1
 90
        4
176
     1
 62
     7
176
     1
 62
   257
176
     1
 90
        1
176
     1
 90
        1
176
     1
 40
1.0
176
     1
 90
        8
176
     1
 62
   257
176
     1
 40
1.0
176
     1
 90
        1
176
     1
 90
        6
176
     1
 90
        2
176
     1
 62
     8
420
  7895160
176
     1
 90
        3
176
     1
 90
        0
176
     1
 90
        0
176
     1
290
     0
176
     1
 90
        5
176
     1
 40
0.0
176
     1
 90
        0
176
     1
290
     0
176
     1
290
     1
176
     1
290
     1
176
     1
290
     0
176
     1
290
     0
176
     1
290
     0
176
     1
290
     0
176
     1
290
     0
176
     1
290
     0
176
     1
 90
       50
176
     1
 40
0.0
176
     1
 40
1.0
176
     1
 90
        0
176
     1
 62
    18
420
        0
176
     1
 90
       50
176
     1
 90
        3
176
     1
 62
     5
420
      255
176
     1
290
     0
176
     1
 90
       50
176
     1
 90
       50
176
     1
 90
       50
176
     1
290
     0
176
     1
 90
       50
176
     1
 62
   256
176
     0
 40
1.0
176
     0
 90
        2
176
     1
  1
strokes_ogs.tif
176
     1
290
     0
176
     1
 40
1.0
176
     1
 40
1.0
176
     1
1001
ACAD
1000
AcDbSavedByObjectVersion
1070
     0
  0
VISUALSTYLE
  5
3D
102
{ACAD_REACTORS
330
29
102
}
330
29
100
AcDbVisualStyle
  2
Shaded with edges
 70
    26
177
     3
291
     0
 70
    58
 90
        2
176
     1
 90
        2
176
     1
 90
        1
176
     1
 90
        2
176
     1
 40
0.6
176
     1
 40
30.0
176
     1
 62
     7
420
 16777215
176
     1
 90
        1
176
     1
 90
        2
176
     1
 62
     7
176
     1
 62
   257
176
     1
 90
        2
176
     1
 90
        1
176
     1
 40
1.0
176
     1
 90
        8
176
     1
 62
   257
176
     1
 40
1.0
176
     1
 90
        1
176
     1
 90
        6
176
     1
 90
        2
176
     1
 62
     7
176
     1
 90
        3
176
     1
 90
        0
176
     1
 90
        0
176
     1
290
     0
176
     1
 90
        5
176
     1
 40
0.0
176
     1
 90
        0
176
     1
290
     0
176
     1
290
     1
176
     1
290
     1
176
     1
290
     0
176
     1
290
     0
176
     1
290
     0
176
     1
290
     0
176
     1
290
     0
176
     1
290
     0
176
     1
 90
       50
176
     1
 40
0.0
176
     1
 40
1.0
176
     1
 90
        0
176
     1
 62
    18
420
        0
176
     1
 90
       50
176
     1
 90
        3
176
     1
 62
     5
420
      255
176
     1
290
     0
176
     1
 90
       50
176
     1
 90
       50
176
     1
 90
       50
176
     1
290
     0
176
     1
 90
       50
176
     1
 62
   256
176
     0
 40
1.0
176
     0
 90
        2
176
     1
  1
strokes_ogs.tif
176
     1
290
     0
176
     1
 40
1.0
176
     1
 40
1.0
176
     1
1001
ACAD
1000
AcDbSavedByObjectVersion
1070
     0
  0
VISUALSTYLE
  5
3A
102
{ACAD_REACTORS
330
29
102
}
330
29
100
AcDbVisualStyle
  2
Shades of Gray
 70
    23
177
     3
291
     0
 70
    58
 90
        2
176
     1
 90
        2
176
     1
 90
        3
176
     1
 90
        0
176
     1
 40
0.6
176
     1
 40
30.0
176
     1
 62
     7
420
 16777215
176
     1
 90
        2
176
     1
 90
        2
176
     1
 62
     7
176
     1
 62
     7
176
     1
 90
        1
176
     1
 90
        1
176
     1
 40
40.0
176
     1
 90
        8
176
     1
 62
     7
176
     1
 40
1.0
176
     1
 90
        1
176
     1
 90
        6
176
     1
 90
        2
176
     1
 62
     7
176
     1
 90
        3
176
     1
 90
        0
176
     1
 90
        0
176
     1
290
     0
176
     1
 90
        1
176
     1
 40
0.0
176
     1
 90
        0
176
     1
290
     0
176
     1
290
     1
176
     1
290
     1
176
     1
290
     0
176
     1
290
     0
176
     1
290
     0
176
     1
290
     0
176
     1
290
     0
176
     1
290
     0
176
     1
 90
       50
176
     1
 40
0.0
176
     1
 40
1.0
176
     1
 90
        0
176
     1
 62
    18
420
        0
176
     1
 90
       50
176
     1
 90
        3
176
     1
 62
     5
420
      255
176
     1
290
     0
176
     1
 90
       50
176
     1
 90
       50
176
     1
 90
       50
176
     1
290
     0
176
     1
 90
       50
176
     1
 62
   256
176
     0
 40
1.0
176
     0
 90
        2
176
     1
  1
strokes_ogs.tif
176
     1
290
     0
176
     1
 40
1.0
176
     1
 40
1.0
176
     1
1001
ACAD
1000
AcDbSavedByObjectVersion
1070
     0
  0
VISUALSTYLE
  5
3B
102
{ACAD_REACTORS
330
29
102
}
330
29
100
AcDbVisualStyle
  2
Sketchy
 70
    24
177
     3
291
     0
 70
    58
 90
        1
176
     1
 90
        2
176
     1
 90
        2
176
     1
 90
        0
176
     1
 40
0.6
176
     1
 40
30.0
176
     1
 62
     7
420
 16777215
176
     1
 90
        2
176
     1
 90
        2
176
     1
 62
     7
176
     1
 62
     7
176
     1
 90
        1
176
     1
 90
        1
176
     1
 40
40.0
176
     1
 90
       11
176
     1
 62
     7
176
     1
 40
1.0
176
     1
 90
        1
176
     1
 90
        6
176
     1
 90
        2
176
     1
 62
     7
176
     1
 90
        6
176
     1
 90
        0
176
     1
 90
        0
176
     1
290
     0
176
     1
 90
        1
176
     1
 40
0.0
176
     1
 90
        0
176
     1
290
     0
176
     1
290
     1
176
     1
290
     1
176
     1
290
     0
176
     1
290
     0
176
     1
290
     0
176
     1
290
     0
176
     1
290
     0
176
     1
290
     0
176
     1
 90
       50
176
     1
 40
0.0
176
     1
 40
1.0
176
     1
 90
        0
176
     1
 62
    18
420
        0
176
     1
 90
       50
176
     1
 90
        3
176
     1
 62
     5
420
      255
176
     1
290
     0
176
     1
 90
       50
176
     1
 90
       50
176
     1
 90
       50
176
     1
290
     0
176
     1
 90
       50
176
     1
 62
   256
176
     0
 40
1.0
176
     0
 90
        2
176
     1
  1
strokes_ogs.tif
176
     1
290
     0
176
     1
 40
1.0
176
     1
 40
1.0
176
     1
1001
ACAD
1000
AcDbSavedByObjectVersion
1070
     0
  0
VISUALSTYLE
  5
36
102
{ACAD_REACTORS
330
29
102
}
330
29
100
AcDbVisualStyle
  2
Thicken
 70
    13
177
     3
291
     1
 70
    58
 90
        2
176
     1
 90
        2
176
     1
 90
        0
176
     1
 90
        0
176
     1
 40
0.6
176
     1
 40
30.0
176
     1
 62
     7
420
 16777215
176
     1
 90
        1
176
     1
 90
        4
176
     1
 62
     7
176
     1
 62
   257
176
     1
 90
        1
176
     1
 90
        1
176
     1
 40
1.0
176
     1
 90
       12
176
     1
 62
     7
176
     1
 40
1.0
176
     1
 90
        1
176
     1
 90
        6
176
     1
 90
        2
176
     1
 62
     7
176
     1
 90
        5
176
     1
 90
        0
176
     1
 90
        0
176
     1
290
     0
176
     1
 90
        1
176
     1
 40
0.0
176
     1
 90
        0
176
     1
290
     0
176
     1
290
     1
176
     1
290
     1
176
     1
290
     0
176
     1
290
     0
176
     1
290
     0
176
     1
290
     0
176
     1
290
     0
176
     1
290
     0
176
     1
 90
       50
176
     1
 40
0.0
176
     1
 40
1.0
176
     1
 90
        0
176
     1
 62
    18
420
        0
176
     1
 90
       50
176
     1
 90
        3
176
     1
 62
     5
420
      255
176
     1
290
     0
176
     1
 90
       50
176
     1
 90
       50
176
     1
 90
       50
176
     1
290
     0
176
     1
 90
       50
176
     1
 62
   256
176
     0
 40
1.0
176
     0
 90
        2
176
     1
  1
strokes_ogs.tif
176
     1
290
     0
176
     1
 40
1.0
176
     1
 40
1.0
176
     1
1001
ACAD
1000
AcDbSavedByObjectVersion
1070
     0
  0
VISUALSTYLE
  5
30
102
{ACAD_REACTORS
330
29
102
}
330
29
100
AcDbVisualStyle
  2
Wireframe
 70
     5
177
     3
291
     0
 70
    58
 90
        0
176
     1
 90
        2
176
     1
 90
        0
176
     1
 90
        0
176
     1
 40
0.6
176
     1
 40
30.0
176
     1
 62
     7
420
 16777215
176
     1
 90
        1
176
     1
 90
        4
176
     1
 62
     7
176
     1
 62
   257
176
     1
 90
        1
176
     1
 90
        1
176
     1
 40
1.0
176
     1
 90
        0
176
     1
 62
   257
176
     1
 40
1.0
176
     1
 90
        1
176
     1
 90
        6
176
     1
 90
        2
176
     1
 62
     7
176
     1
 90
        3
176
     1
 90
        0
176
     1
 90
        0
176
     1
290
     0
176
     1
 90
        1
176
     1
 40
0.0
176
     1
 90
        0
176
     1
290
     0
176
     1
290
     1
176
     1
290
     1
176
     1
290
     0
176
     1
290
     0
176
     1
290
     0
176
     1
290
     0
176
     1
290
     0
176
     1
290
     0
176
     1
 90
       50
176
     1
 40
0.0
176
     1
 40
1.0
176
     1
 90
        0
176
     1
 62
    18
420
        0
176
     1
 90
       50
176
     1
 90
        3
176
     1
 62
     5
420
      255
176
     1
290
     0
176
     1
 90
       50
176
     1
 90
       50
176
     1
 90
       50
176
     1
290
     0
176
     1
 90
       50
176
     1
 62
   256
176
     0
 40
1.0
176
     0
 90
        2
176
     1
  1
strokes_ogs.tif
176
     1
290
     0
176
     1
 40
1.0
176
     1
 40
1.0
176
     1
1001
ACAD
1000
AcDbSavedByObjectVersion
1070
     0
  0
VISUALSTYLE
  5
3C
102
{ACAD_REACTORS
330
29
102
}
330
29
100
AcDbVisualStyle
  2
X-Ray
 70
    25
177
     3
291
     0
 70
    58
 90
        2
176
     1
 90
        2
176
     1
 90
        1
176
     1
 90
        1
176
     1
 40
0.5
176
     1
 40
30.0
176
     1
 62
     7
420
 16777215
176
     1
 90
        1
176
     1
 90
        0
176
     1
 62
     7
176
     1
 62
   257
176
     1
 90
        1
176
     1
 90
        1
176
     1
 40
1.0
176
     1
 90
        8
176
     1
 62
     7
176
     1
 40
1.0
176
     1
 90
        1
176
     1
 90
        6
176
     1
 90
        2
176
     1
 62
     7
176
     1
 90
        3
176
     1
 90
        0
176
     1
 90
        0
176
     1
290
     0
176
     1
 90
       13
176
     1
 40
0.0
176
     1
 90
        0
176
     1
290
     0
176
     1
290
     1
176
     1
290
     1
176
     1
290
     0
176
     1
290
     0
176
     1
290
     0
176
     1
290
     0
176
     1
290
     0
176
     1
290
     0
176
     1
 90
       50
176
     1
 40
0.0
176
     1
 40
1.0
176
     1
 90
        0
176
     1
 62
    18
420
        0
176
     1
 90
       50
176
     1
 90
        3
176
     1
 62
     5
420
      255
176
     1
290
     0
176
     1
 90
       50
176
     1
 90
       50
176
     1
 90
       50
176
     1
290
     0
176
     1
 90
       50
176
     1
 62
   256
176
     0
 40
1.0
176
     0
 90
        2
176
     1
  1
strokes_ogs.tif
176
     1
290
     0
176
     1
 40
1.0
176
     1
 40
1.0
176
     1
1001
ACAD
1000
AcDbSavedByObjectVersion
1070
     0
  0
DICTIONARYVAR
  5
84
102
{ACAD_REACTORS
330
7F
102
}
330
7F
100
DictionaryVariables
280
     0
  1
1:1
  0
DICTIONARYVAR
  5
81
102
{ACAD_REACTORS
330
7F
102
}
330
7F
100
DictionaryVariables
280
     0
  1
STANDARD
  0
DICTIONARYVAR
  5
80
102
{ACAD_REACTORS
330
7F
102
}
330
7F
100
DictionaryVariables
280
     0
  1
STANDARD
  0
DICTIONARYVAR
  5
82
102
{ACAD_REACTORS
330
7F
102
}
330
7F
100
DictionaryVariables
280
     0
  1
Imperial24
  0
DICTIONARYVAR
  5
83
102
{ACAD_REACTORS
330
7F
102
}
330
7F
100
DictionaryVariables
280
     0
  1
Imperial24
  0
DICTIONARY
  5
8A
330
6B
100
AcDbDictionary
280
     1
281
     1
  3
ACAD_XREC_ROUNDTRIP
360
8B
  0
DICTIONARY
  5
1A
330
19
100
AcDbDictionary
280
     1
281
     1
  3
BUMPTILE
360
1C
  3
DIFFUSETILE
360
1B
  3
OPACITYTILE
360
1F
  3
REFLECTIONTILE
360
1E
  3
REFRACTIONTILE
360
20
  3
SPECULARTILE
360
1D
  0
DICTIONARY
  5
12
330
11
100
AcDbDictionary
280
     1
281
     1
  3
BUMPTILE
360
14
  3
DIFFUSETILE
360
13
  3
OPACITYTILE
360
17
  3
REFLECTIONTILE
360
16
  3
REFRACTIONTILE
360
18
  3
SPECULARTILE
360
15
  0
DICTIONARY
  5
22
330
21
100
AcDbDictionary
280
     1
281
     1
  3
BUMPTILE
360
24
  3
DIFFUSETILE
360
23
  3
OPACITYTILE
360
27
  3
REFLECTIONTILE
360
26
  3
REFRACTIONTILE
360
28
  3
SPECULARTILE
360
25
  0
DICTIONARY
  5
88
330
69
100
AcDbDictionary
280
     1
281
     1
  3
ACAD_XREC_ROUNDTRIP
360
89
  0
DICTIONARY
  5
85
330
65
100
AcDbDictionary
280
     1
281
     1
  3
ACAD_ROUNDTRIP_2008_TABLESTYLE_CELLSTYLEMAP
360
86
  0
XRECORD
  5
8B
102
{ACAD_REACTORS
330
8A
102
}
330
8A
100
AcDbXrecord
280
     1
102
DISPLAYNAME
  1
Imperial24
102
FLAGS
 90
        0
  0
XRECORD
  5
1C
102
{ACAD_REACTORS
330
1A
102
}
330
1A
100
AcDbXrecord
280
     1
270
     1
271
     1
  0
XRECORD
  5
1B
102
{ACAD_REACTORS
330
1A
102
}
330
1A
100
AcDbXrecord
280
     1
270
     1
271
     1
  0
XRECORD
  5
1F
102
{ACAD_REACTORS
330
1A
102
}
330
1A
100
AcDbXrecord
280
     1
270
     1
271
     1
  0
XRECORD
  5
1E
102
{ACAD_REACTORS
330
1A
102
}
330
1A
100
AcDbXrecord
280
     1
270
     1
271
     1
  0
XRECORD
  5
20
102
{ACAD_REACTORS
330
1A
102
}
330
1A
100
AcDbXrecord
280
     1
270
     1
271
     1
  0
XRECORD
  5
1D
102
{ACAD_REACTORS
330
1A
102
}
330
1A
100
AcDbXrecord
280
     1
270
     1
271
     1
  0
XRECORD
  5
14
102
{ACAD_REACTORS
330
12
102
}
330
12
100
AcDbXrecord
280
     1
270
     1
271
     1
  0
XRECORD
  5
13
102
{ACAD_REACTORS
330
12
102
}
330
12
100
AcDbXrecord
280
     1
270
     1
271
     1
  0
XRECORD
  5
17
102
{ACAD_REACTORS
330
12
102
}
330
12
100
AcDbXrecord
280
     1
270
     1
271
     1
  0
XRECORD
  5
16
102
{ACAD_REACTORS
330
12
102
}
330
12
100
AcDbXrecord
280
     1
270
     1
271
     1
  0
XRECORD
  5
18
102
{ACAD_REACTORS
330
12
102
}
330
12
100
AcDbXrecord
280
     1
270
     1
271
     1
  0
XRECORD
  5
15
102
{ACAD_REACTORS
330
12
102
}
330
12
100
AcDbXrecord
280
     1
270
     1
271
     1
  0
XRECORD
  5
24
102
{ACAD_REACTORS
330
22
102
}
330
22
100
AcDbXrecord
280
     1
270
     1
271
     1
  0
XRECORD
  5
23
102
{ACAD_REACTORS
330
22
102
}
330
22
100
AcDbXrecord
280
     1
270
     1
271
     1
  0
XRECORD
  5
27
102
{ACAD_REACTORS
330
22
102
}
330
22
100
AcDbXrecord
280
     1
270
     1
271
     1
  0
XRECORD
  5
26
102
{ACAD_REACTORS
330
22
102
}
330
22
100
AcDbXrecord
280
     1
270
     1
271
     1
  0
XRECORD
  5
28
102
{ACAD_REACTORS
330
22
102
}
330
22
100
AcDbXrecord
280
     1
270
     1
271
     1
  0
XRECORD
  5
25
102
{ACAD_REACTORS
330
22
102
}
330
22
100
AcDbXrecord
280
     1
270
     1
271
     1
  0
XRECORD
  5
89
102
{ACAD_REACTORS
330
88
102
}
330
88
100
AcDbXrecord
280
     1
102
DISPLAYNAME
  1
Imperial24
102
FLAGS
 90
        0
  0
CELLSTYLEMAP
  5
86
102
{ACAD_REACTORS
330
85
102
}
330
85
100
AcDbCellStyleMap
 90
        3
300
CELLSTYLE
  1
TABLEFORMAT_BEGIN
 90
        5
170
     1
 91
        0
 92
    32768
 62
   257
 93
        1
300
CONTENTFORMAT
  1
CONTENTFORMAT_BEGIN
 90
        0
 91
        0
 92
      512
 93
        0
300

 40
0.0
140
1.0
 94
        5
 62
     0
340
55
144
0.25
309
CONTENTFORMAT_END
171
     0
 94
        0
309
TABLEFORMAT_END
  1
CELLSTYLE_BEGIN
 90
        1
 91
        1
300
_TITLE
309
CELLSTYLE_END
300
CELLSTYLE
  1
TABLEFORMAT_BEGIN
 90
        5
170
     1
 91
        0
 92
        0
 62
   257
 93
        1
300
CONTENTFORMAT
  1
CONTENTFORMAT_BEGIN
 90
        0
 91
        0
 92
      512
 93
        0
300

 40
0.0
140
1.0
 94
        5
 62
     0
340
55
144
0.18
309
CONTENTFORMAT_END
171
     0
 94
        0
309
TABLEFORMAT_END
  1
CELLSTYLE_BEGIN
 90
        2
 91
        1
300
_HEADER
309
CELLSTYLE_END
300
CELLSTYLE
  1
TABLEFORMAT_BEGIN
 90
        5
170
     1
 91
        0
 92
        0
 62
   257
 93
        1
300
CONTENTFORMAT
  1
CONTENTFORMAT_BEGIN
 90
        0
 91
        0
 92
      512
 93
        0
300

 40
0.0
140
1.0
 94
        2
 62
     0
340
55
144
0.18
309
CONTENTFORMAT_END
171
     0
 94
        0
309
TABLEFORMAT_END
  1
CELLSTYLE_BEGIN
 90
        3
 91
        2
300
_DATA
309
CELLSTYLE_END
  0
ENDSEC
  0
EOF
