  0
SECTION
  2
HEADER
  9
$ACADVER
  1
AC1027
  9
$ACADMAINTVER
 70
   125
  9
$DWGCODEPAGE
  3
ANSI_1252
  9
$REQUIREDVERSIONS
160
                 0
  9
$INSBASE
 10
0.0
 20
0.0
 30
0.0
  9
$EXTMIN
 10
1.000000000000000E+20
 20
1.000000000000000E+20
 30
1.000000000000000E+20
  9
$EXTMAX
 10
-1.000000000000000E+20
 20
-1.000000000000000E+20
 30
-1.000000000000000E+20
  9
$LIMMIN
 10
0.0
 20
0.0
  9
$LIMMAX
 10
12.0
 20
9.0
  9
$ORTHOMODE
 70
     0
  9
$REGENMODE
 70
     1
  9
$FILLMODE
 70
     1
  9
$QTEXTMODE
 70
     0
  9
$MIRRTEXT
 70
     0
  9
$LTSCALE
 40
1.0
  9
$ATTMODE
 70
     1
  9
$TEXTSIZE
 40
0.2
  9
$TRACEWID
 40
0.05
  9
$TEXTSTYLE
  7
Standard
  9
$CLAYER
  8
0
  9
$CELTYPE
  6
ByLayer
  9
$CECOLOR
 62
   256
  9
$CELTSCALE
 40
1.0
  9
$DISPSILH
 70
     0
  9
$DIMSCALE
 40
1.0
  9
$DIMASZ
 40
0.18
  9
$DIMEXO
 40
0.0625
  9
$DIMDLI
 40
0.38
  9
$DIMRND
 40
0.0
  9
$DIMDLE
 40
0.0
  9
$DIMEXE
 40
0.18
  9
$DIMTP
 40
0.0
  9
$DIMTM
 40
0.0
  9
$DIMTXT
 40
0.18
  9
$DIMCEN
 40
0.09
  9
$DIMTSZ
 40
0.0
  9
$DIMTOL
 70
     0
  9
$DIMLIM
 70
     0
  9
$DIMTIH
 70
     1
  9
$DIMTOH
 70
     1
  9
$DIMSE1
 70
     0
  9
$DIMSE2
 70
     0
  9
$DIMTAD
 70
     0
  9
$DIMZIN
 70
     0
  9
$DIMBLK
  1

  9
$DIMASO
 70
     1
  9
$DIMSHO
 70
     1
  9
$DIMPOST
  1

  9
$DIMAPOST
  1

  9
$DIMALT
 70
     0
  9
$DIMALTD
 70
     2
  9
$DIMALTF
 40
25.4
  9
$DIMLFAC
 40
1.0
  9
$DIMTOFL
 70
     0
  9
$DIMTVP
 40
0.0
  9
$DIMTIX
 70
     0
  9
$DIMSOXD
 70
     0
  9
$DIMSAH
 70
     0
  9
$DIMBLK1
  1

  9
$DIMBLK2
  1

  9
$DIMSTYLE
  2
Standard
  9
$DIMCLRD
 70
     0
  9
$DIMCLRE
 70
     0
  9
$DIMCLRT
 70
     0
  9
$DIMTFAC
 40
1.0
  9
$DIMGAP
 40
0.09
  9
$DIMJUST
 70
     0
  9
$DIMSD1
 70
     0
  9
$DIMSD2
 70
     0
  9
$DIMTOLJ
 70
     1
  9
$DIMTZIN
 70
     0
  9
$DIMALTZ
 70
     0
  9
$DIMALTTZ
 70
     0
  9
$DIMUPT
 70
     0
  9
$DIMDEC
 70
     4
  9
$DIMTDEC
 70
     4
  9
$DIMALTU
 70
     2
  9
$DIMALTTD
 70
     2
  9
$DIMTXSTY
  7
Standard
  9
$DIMAUNIT
 70
     0
  9
$DIMADEC
 70
     0
  9
$DIMALTRND
 40
0.0
  9
$DIMAZIN
 70
     0
  9
$DIMDSEP
 70
    46
  9
$DIMATFIT
 70
     3
  9
$DIMFRAC
 70
     0
  9
$DIMLDRBLK
  1

  9
$DIMLUNIT
 70
     2
  9
$DIMLWD
 70
    -2
  9
$DIMLWE
 70
    -2
  9
$DIMTMOVE
 70
     0
  9
$DIMFXL
 40
1.0
  9
$DIMFXLON
 70
     0
  9
$DIMJOGANG
 40
0.7853981633974483
  9
$DIMTFILL
 70
     0
  9
$DIMTFILLCLR
 70
     0
  9
$DIMARCSYM
 70
     0
  9
$DIMLTYPE
  6

  9
$DIMLTEX1
  6

  9
$DIMLTEX2
  6

  9
$DIMTXTDIRECTION
 70
     0
  9
$LUNITS
 70
     2
  9
$LUPREC
 70
     4
  9
$SKETCHINC
 40
0.1
  9
$FILLETRAD
 40
0.0
  9
$AUNITS
 70
     0
  9
$AUPREC
 70
     0
  9
$MENU
  1
.
  9
$ELEVATION
 40
0.0
  9
$PELEVATION
 40
0.0
  9
$THICKNESS
 40
0.0
  9
$LIMCHECK
 70
     0
  9
$CHAMFERA
 40
0.0
  9
$CHAMFERB
 40
0.0
  9
$CHAMFERC
 40
0.0
  9
$CHAMFERD
 40
0.0
  9
$SKPOLY
 70
     0
  9
$TDCREATE
 40
2459734.962187500
  9
$TDUCREATE
 40
2459734.545520833
  9
$TDUPDATE
 40
2459734.962187500
  9
$TDUUPDATE
 40
2459734.545520833
  9
$TDINDWG
 40
0.0000000000
  9
$TDUSRTIMER
 40
0.0000000000
  9
$USRTIMER
 70
     1
  9
$ANGBASE
 50
0.0
  9
$ANGDIR
 70
     0
  9
$PDMODE
 70
     0
  9
$PDSIZE
 40
0.0
  9
$PLINEWID
 40
0.0
  9
$SPLFRAME
 70
     0
  9
$SPLINETYPE
 70
     6
  9
$SPLINESEGS
 70
     8
  9
$HANDSEED
  5
91
  9
$SURFTAB1
 70
     6
  9
$SURFTAB2
 70
     6
  9
$SURFTYPE
 70
     6
  9
$SURFU
 70
     6
  9
$SURFV
 70
     6
  9
$UCSBASE
  2

  9
$UCSNAME
  2

  9
$UCSORG
 10
0.0
 20
0.0
 30
0.0
  9
$UCSXDIR
 10
1.0
 20
0.0
 30
0.0
  9
$UCSYDIR
 10
0.0
 20
1.0
 30
0.0
  9
$UCSORTHOREF
  2

  9
$UCSORTHOVIEW
 70
     0
  9
$UCSORGTOP
 10
0.0
 20
0.0
 30
0.0
  9
$UCSORGBOTTOM
 10
0.0
 20
0.0
 30
0.0
  9
$UCSORGLEFT
 10
0.0
 20
0.0
 30
0.0
  9
$UCSORGRIGHT
 10
0.0
 20
0.0
 30
0.0
  9
$UCSORGFRONT
 10
0.0
 20
0.0
 30
0.0
  9
$UCSORGBACK
 10
0.0
 20
0.0
 30
0.0
  9
$PUCSBASE
  2

  9
$PUCSNAME
  2

  9
$PUCSORG
 10
0.0
 20
0.0
 30
0.0
  9
$PUCSXDIR
 10
1.0
 20
0.0
 30
0.0
  9
$PUCSYDIR
 10
0.0
 20
1.0
 30
0.0
  9
$PUCSORTHOREF
  2

  9
$PUCSORTHOVIEW
 70
     0
  9
$PUCSORGTOP
 10
0.0
 20
0.0
 30
0.0
  9
$PUCSORGBOTTOM
 10
0.0
 20
0.0
 30
0.0
  9
$PUCSORGLEFT
 10
0.0
 20
0.0
 30
0.0
  9
$PUCSORGRIGHT
 10
0.0
 20
0.0
 30
0.0
  9
$PUCSORGFRONT
 10
0.0
 20
0.0
 30
0.0
  9
$PUCSORGBACK
 10
0.0
 20
0.0
 30
0.0
  9
$USERI1
 70
     0
  9
$USERI2
 70
     0
  9
$USERI3
 70
     0
  9
$USERI4
 70
     0
  9
$USERI5
 70
     0
  9
$USERR1
 40
0.0
  9
$USERR2
 40
0.0
  9
$USERR3
 40
0.0
  9
$USERR4
 40
0.0
  9
$USERR5
 40
0.0
  9
$WORLDVIEW
 70
     1
  9
$SHADEDGE
 70
     3
  9
$SHADEDIF
 70
    70
  9
$TILEMODE
 70
     1
  9
$MAXACTVP
 70
    64
  9
$PINSBASE
 10
0.0
 20
0.0
 30
0.0
  9
$PLIMCHECK
 70
     0
  9
$PEXTMIN
 10
1.000000000000000E+20
 20
1.000000000000000E+20
 30
1.000000000000000E+20
  9
$PEXTMAX
 10
-1.000000000000000E+20
 20
-1.000000000000000E+20
 30
-1.000000000000000E+20
  9
$PLIMMIN
 10
0.0
 20
0.0
  9
$PLIMMAX
 10
12.0
 20
9.0
  9
$UNITMODE
 70
     0
  9
$VISRETAIN
 70
     1
  9
$PLINEGEN
 70
     0
  9
$PSLTSCALE
 70
     1
  9
$TREEDEPTH
 70
  3020
  9
$CMLSTYLE
  2
Standard
  9
$CMLJUST
 70
     0
  9
$CMLSCALE
 40
1.0
  9
$PROXYGRAPHICS
 70
     1
  9
$MEASUREMENT
 70
     0
  9
$CELWEIGHT
370
    -1
  9
$ENDCAPS
280
     0
  9
$JOINSTYLE
280
     0
  9
$LWDISPLAY
290
     1
  9
$INSUNITS
 70
     4
  9
$HYPERLINKBASE
  1

  9
$STYLESHEET
  1

  9
$XEDIT
290
     1
  9
$CEPSNTYPE
380
     0
  9
$PSTYLEMODE
290
     1
  9
$FINGERPRINTGUID
  2
{D2611713-B9F9-8F45-A8BC-9F4ACED0A830}
  9
$VERSIONGUID
  2
{5AFA4688-4D2C-AB47-9481-210F54508FDE}
  9
$EXTNAMES
290
     1
  9
$PSVPSCALE
 40
0.0
  9
$OLESTARTUP
290
     0
  9
$SORTENTS
280
   127
  9
$INDEXCTL
280
     0
  9
$HIDETEXT
280
     1
  9
$XCLIPFRAME
280
     2
  9
$HALOGAP
280
     0
  9
$OBSCOLOR
 70
   257
  9
$OBSLTYPE
280
     0
  9
$INTERSECTIONDISPLAY
280
     0
  9
$INTERSECTIONCOLOR
 70
   257
  9
$DIMASSOC
280
     2
  9
$PROJECTNAME
  1

  9
$CAMERADISPLAY
290
     0
  9
$LENSLENGTH
 40
50.0
  9
$CAMERAHEIGHT
 40
0.0
  9
$STEPSPERSEC
 40
2.0
  9
$STEPSIZE
 40
6.0
  9
$3DDWFPREC
 40
2.0
  9
$PSOLWIDTH
 40
0.25
  9
$PSOLHEIGHT
 40
4.0
  9
$LOFTANG1
 40
1.570796326794896
  9
$LOFTANG2
 40
1.570796326794896
  9
$LOFTMAG1
 40
0.0
  9
$LOFTMAG2
 40
0.0
  9
$LOFTPARAM
 70
     7
  9
$LOFTNORMALS
280
     1
  9
$LATITUDE
 40
37.795
  9
$LONGITUDE
 40
-122.394
  9
$NORTHDIRECTION
 40
0.0
  9
$TIMEZONE
 70
 -8000
  9
$LIGHTGLYPHDISPLAY
280
     1
  9
$TILEMODELIGHTSYNCH
280
     1
  9
$CMATERIAL
347
11
  9
$SOLIDHIST
280
     0
  9
$SHOWHIST
280
     1
  9
$DWFFRAME
280
     2
  9
$DGNFRAME
280
     0
  9
$REALWORLDSCALE
290
     1
  9
$INTERFERECOLOR
 62
     1
  9
$INTERFEREOBJVS
345
33
  9
$INTERFEREVPVS
346
30
  9
$CSHADOW
280
     0
  9
$SHADOWPLANELOCATION
 40
0.0
  0
ENDSEC
  0
SECTION
  2
CLASSES
  0
CLASS
  1
ACDBDICTIONARYWDFLT
  2
AcDbDictionaryWithDefault
  3
ObjectDBX Classes
 90
        0
 91
        1
280
     0
281
     0
  0
CLASS
  1
MATERIAL
  2
AcDbMaterial
  3
ObjectDBX Classes
 90
     1153
 91
        3
280
     0
281
     0
  0
CLASS
  1
VISUALSTYLE
  2
AcDbVisualStyle
  3
ObjectDBX Classes
 90
     4095
 91
       24
280
     0
281
     0
  0
CLASS
  1
SCALE
  2
AcDbScale
  3
ObjectDBX Classes
 90
     1153
 91
       17
280
     0
281
     0
  0
CLASS
  1
TABLESTYLE
  2
AcDbTableStyle
  3
ObjectDBX Classes
 90
     4095
 91
        1
280
     0
281
     0
  0
CLASS
  1
MLEADERSTYLE
  2
AcDbMLeaderStyle
  3
ACDB_MLEADERSTYLE_CLASS
 90
     4095
 91
        1
280
     0
281
     0
  0
CLASS
  1
ACDBSECTIONVIEWSTYLE
  2
AcDbSectionViewStyle
  3
ObjectDBX Classes
 90
     1025
 91
        1
280
     0
281
     0
  0
CLASS
  1
ACDBDETAILVIEWSTYLE
  2
AcDbDetailViewStyle
  3
ObjectDBX Classes
 90
     1025
 91
        1
280
     0
281
     0
  0
CLASS
  1
DICTIONARYVAR
  2
AcDbDictionaryVar
  3
ObjectDBX Classes
 90
        0
 91
        5
280
     0
281
     0
  0
CLASS
  1
CELLSTYLEMAP
  2
AcDbCellStyleMap
  3
ObjectDBX Classes
 90
     1152
 91
        1
280
     0
281
     0
  0
ENDSEC
  0
SECTION
  2
TABLES
  0
TABLE
  2
VPORT
  5
8
330
0
100
AcDbSymbolTable
 70
     1
1001
ACAD
1000
DbSaveVer
1071
      247
  0
VPORT
  5
57
330
8
100
AcDbSymbolTableRecord
100
AcDbViewportTableRecord
  2
*Active
 70
     0
 10
0.0
 20
0.0
 11
1.0
 21
1.0
 12
0.0
 22
0.0
 13
0.0
 23
0.0
 14
1.0
 24
1.0
 15
0.0
 25
0.0
 16
0.0
 26
0.0
 36
1.0
 17
-111.9583333053439
 27
3.302777776952218
 37
0.0
 40
214.1999999464498
 41
0.9999999999999998
 42
50.0
 43
0.0
 44
0.0
 50
0.0
 51
0.0
 71
     0
 72
   100
 73
     1
 74
     1
 75
     0
 76
     0
 77
     0
 78
     0
281
     0
 65
     1
110
0.0
120
0.0
130
0.0
111
1.0
121
0.0
131
0.0
112
0.0
122
1.0
132
0.0
 79
     0
146
0.0
 60
     3
 61
     5
292
     1
282
     1
141
0.0
142
0.0
 63
   250
421
  3355443
  0
ENDTAB
  0
TABLE
  2
LTYPE
  5
5
330
0
100
AcDbSymbolTable
 70
     1
  0
LTYPE
  5
5B
330
5
100
AcDbSymbolTableRecord
100
AcDbLinetypeTableRecord
  2
ByBlock
 70
     0
  3

 72
    65
 73
     0
 40
0.0
  0
LTYPE
  5
5C
330
5
100
AcDbSymbolTableRecord
100
AcDbLinetypeTableRecord
  2
ByLayer
 70
     0
  3

 72
    65
 73
     0
 40
0.0
  0
LTYPE
  5
5D
330
5
100
AcDbSymbolTableRecord
100
AcDbLinetypeTableRecord
  2
Continuous
 70
     0
  3
Solid line
 72
    65
 73
     0
 40
0.0
  0
ENDTAB
  0
TABLE
  2
LAYER
  5
2
330
0
100
AcDbSymbolTable
 70
     2
  0
LAYER
  5
54
330
2
100
AcDbSymbolTableRecord
100
AcDbLayerTableRecord
  2
0
 70
     0
 62
     7
  6
Continuous
370
    -3
390
F
347
21
348
0
  0
LAYER
  5
78
330
2
100
AcDbSymbolTableRecord
100
AcDbLayerTableRecord
  2
Layer 1
 70
     0
 62
     7
  6
Continuous
370
     0
390
F
347
21
348
0
  0
ENDTAB
  0
TABLE
  2
STYLE
  5
3
330
0
100
AcDbSymbolTable
 70
     2
  0
STYLE
  5
55
330
3
100
AcDbSymbolTableRecord
100
AcDbTextStyleTableRecord
  2
Standard
 70
     0
 40
0.0
 41
1.0
 50
0.0
 71
     0
 42
0.2
  3
txt
  4

  0
STYLE
  5
5A
330
3
100
AcDbSymbolTableRecord
100
AcDbTextStyleTableRecord
  2
Annotative
 70
     0
 40
0.0
 41
1.0
 50
0.0
 71
     0
 42
0.2
  3
txt
  4

1001
AcadAnnotative
1000
AnnotativeData
1002
{
1070
     1
1070
     1
1002
}
  0
ENDTAB
  0
TABLE
  2
VIEW
  5
6
330
0
100
AcDbSymbolTable
 70
     0
  0
ENDTAB
  0
TABLE
  2
UCS
  5
7
330
0
100
AcDbSymbolTable
 70
     0
  0
ENDTAB
  0
TABLE
  2
APPID
  5
9
330
0
100
AcDbSymbolTable
 70
     2
  0
APPID
  5
56
330
9
100
AcDbSymbolTableRecord
100
AcDbRegAppTableRecord
  2
ACAD
 70
     0
  0
APPID
  5
5E
330
9
100
AcDbSymbolTableRecord
100
AcDbRegAppTableRecord
  2
AcadAnnotative
 70
     0
  0
ENDTAB
  0
TABLE
  2
DIMSTYLE
  5
A
330
0
100
AcDbSymbolTable
 70
     2
100
AcDbDimStyleTable
 71
     0
  0
DIMSTYLE
105
58
330
A
100
AcDbSymbolTableRecord
100
AcDbDimStyleTableRecord
  2
Standard
 70
     0
340
55
  0
DIMSTYLE
105
59
330
A
100
AcDbSymbolTableRecord
100
AcDbDimStyleTableRecord
  2
Annotative
 70
     0
340
55
1001
AcadAnnotative
1000
AnnotativeData
1002
{
1070
     1
1070
     1
1002
}
  0
ENDTAB
  0
TABLE
  2
BLOCK_RECORD
  5
1
330
0
100
AcDbSymbolTable
 70
     2
  0
BLOCK_RECORD
  5
70
330
1
100
AcDbSymbolTableRecord
100
AcDbBlockTableRecord
  2
*Model_Space
340
73
 70
     0
280
     1
281
     0
  0
BLOCK_RECORD
  5
6C
330
1
100
AcDbSymbolTableRecord
100
AcDbBlockTableRecord
  2
*Paper_Space
340
6F
 70
     0
280
     1
281
     0
  0
BLOCK_RECORD
  5
74
330
1
100
AcDbSymbolTableRecord
100
AcDbBlockTableRecord
  2
*Paper_Space0
340
77
 70
     0
280
     1
281
     0
  0
BLOCK_RECORD
  5
79
330
1
100
AcDbSymbolTableRecord
100
AcDbBlockTableRecord
  2
Block_0
340
0
102
{BLKREFS
331
7A
102
}
 70
     0
280
     1
281
     0
  0
ENDTAB
  0
ENDSEC
  0
SECTION
  2
BLOCKS
  0
BLOCK
  5
71
330
70
100
AcDbEntity
  8
0
100
AcDbBlockBegin
  2
*Model_Space
 70
     0
 10
0.0
 20
0.0
 30
0.0
  3
*Model_Space
  1

  0
ENDBLK
  5
72
330
70
100
AcDbEntity
  8
0
100
AcDbBlockEnd
  0
BLOCK
  5
6D
330
6C
100
AcDbEntity
 67
     1
  8
0
100
AcDbBlockBegin
  2
*Paper_Space
 70
     0
 10
0.0
 20
0.0
 30
0.0
  3
*Paper_Space
  1

  0
ENDBLK
  5
6E
330
6C
100
AcDbEntity
 67
     1
  8
0
100
AcDbBlockEnd
  0
BLOCK
  5
75
330
74
100
AcDbEntity
 67
     1
  8
0
100
AcDbBlockBegin
  2
*Paper_Space0
 70
     0
 10
0.0
 20
0.0
 30
0.0
  3
*Paper_Space0
  1

  0
ENDBLK
  5
76
330
74
100
AcDbEntity
 67
     1
  8
0
100
AcDbBlockEnd
  0
BLOCK
  5
7B
330
79
100
AcDbEntity
  8
0
100
AcDbBlockBegin
  2
Block_0
 70
     0
 10
0.0
 20
0.0
 30
0.0
  3
Block_0
  1

  0
SPLINE
  5
7D
330
79
100
AcDbEntity
  8
Layer 1
100
AcDbSpline
210
0.0
220
0.0
230
1.0
 70
     9
 71
     3
 72
   569
 73
   565
 74
     0
 42
0.0000000001
 43
0.0000000001
 40
0.0
 40
0.0
 40
0.0
 40
0.0
 40
1.0
 40
1.0
 40
1.0
 40
2.0
 40
2.0
 40
2.0
 40
3.0
 40
3.0
 40
3.0
 40
4.0
 40
4.0
 40
4.0
 40
5.0
 40
5.0
 40
5.0
 40
6.0
 40
6.0
 40
6.0
 40
7.0
 40
7.0
 40
7.0
 40
8.0
 40
8.0
 40
8.0
 40
9.0
 40
9.0
 40
9.0
 40
10.0
 40
10.0
 40
10.0
 40
11.0
 40
11.0
 40
11.0
 40
12.0
 40
12.0
 40
12.0
 40
13.0
 40
13.0
 40
13.0
 40
14.0
 40
14.0
 40
14.0
 40
15.0
 40
15.0
 40
15.0
 40
16.0
 40
16.0
 40
16.0
 40
17.0
 40
17.0
 40
17.0
 40
18.0
 40
18.0
 40
18.0
 40
19.0
 40
19.0
 40
19.0
 40
20.0
 40
20.0
 40
20.0
 40
21.0
 40
21.0
 40
21.0
 40
22.0
 40
22.0
 40
22.0
 40
23.0
 40
23.0
 40
23.0
 40
24.0
 40
24.0
 40
24.0
 40
25.0
 40
25.0
 40
25.0
 40
26.0
 40
26.0
 40
26.0
 40
27.0
 40
27.0
 40
27.0
 40
28.0
 40
28.0
 40
28.0
 40
29.0
 40
29.0
 40
29.0
 40
30.0
 40
30.0
 40
30.0
 40
31.0
 40
31.0
 40
31.0
 40
32.0
 40
32.0
 40
32.0
 40
33.0
 40
33.0
 40
33.0
 40
34.0
 40
34.0
 40
34.0
 40
35.0
 40
35.0
 40
35.0
 40
36.0
 40
36.0
 40
36.0
 40
37.0
 40
37.0
 40
37.0
 40
38.0
 40
38.0
 40
38.0
 40
39.0
 40
39.0
 40
39.0
 40
40.0
 40
40.0
 40
40.0
 40
41.0
 40
41.0
 40
41.0
 40
42.0
 40
42.0
 40
42.0
 40
43.0
 40
43.0
 40
43.0
 40
44.0
 40
44.0
 40
44.0
 40
45.0
 40
45.0
 40
45.0
 40
46.0
 40
46.0
 40
46.0
 40
47.0
 40
47.0
 40
47.0
 40
48.0
 40
48.0
 40
48.0
 40
49.0
 40
49.0
 40
49.0
 40
50.0
 40
50.0
 40
50.0
 40
51.0
 40
51.0
 40
51.0
 40
52.0
 40
52.0
 40
52.0
 40
53.0
 40
53.0
 40
53.0
 40
54.0
 40
54.0
 40
54.0
 40
55.0
 40
55.0
 40
55.0
 40
56.0
 40
56.0
 40
56.0
 40
57.0
 40
57.0
 40
57.0
 40
58.0
 40
58.0
 40
58.0
 40
59.0
 40
59.0
 40
59.0
 40
60.0
 40
60.0
 40
60.0
 40
61.0
 40
61.0
 40
61.0
 40
62.0
 40
62.0
 40
62.0
 40
63.0
 40
63.0
 40
63.0
 40
64.0
 40
64.0
 40
64.0
 40
65.0
 40
65.0
 40
65.0
 40
66.0
 40
66.0
 40
66.0
 40
67.0
 40
67.0
 40
67.0
 40
68.0
 40
68.0
 40
68.0
 40
69.0
 40
69.0
 40
69.0
 40
70.0
 40
70.0
 40
70.0
 40
71.0
 40
71.0
 40
71.0
 40
72.0
 40
72.0
 40
72.0
 40
73.0
 40
73.0
 40
73.0
 40
74.0
 40
74.0
 40
74.0
 40
75.0
 40
75.0
 40
75.0
 40
76.0
 40
76.0
 40
76.0
 40
77.0
 40
77.0
 40
77.0
 40
78.0
 40
78.0
 40
78.0
 40
79.0
 40
79.0
 40
79.0
 40
80.0
 40
80.0
 40
80.0
 40
81.0
 40
81.0
 40
81.0
 40
82.0
 40
82.0
 40
82.0
 40
83.0
 40
83.0
 40
83.0
 40
84.0
 40
84.0
 40
84.0
 40
85.0
 40
85.0
 40
85.0
 40
86.0
 40
86.0
 40
86.0
 40
87.0
 40
87.0
 40
87.0
 40
88.0
 40
88.0
 40
88.0
 40
89.0
 40
89.0
 40
89.0
 40
90.0
 40
90.0
 40
90.0
 40
91.0
 40
91.0
 40
91.0
 40
92.0
 40
92.0
 40
92.0
 40
93.0
 40
93.0
 40
93.0
 40
94.0
 40
94.0
 40
94.0
 40
95.0
 40
95.0
 40
95.0
 40
96.0
 40
96.0
 40
96.0
 40
97.0
 40
97.0
 40
97.0
 40
98.0
 40
98.0
 40
98.0
 40
99.0
 40
99.0
 40
99.0
 40
100.0
 40
100.0
 40
100.0
 40
101.0
 40
101.0
 40
101.0
 40
102.0
 40
102.0
 40
102.0
 40
103.0
 40
103.0
 40
103.0
 40
104.0
 40
104.0
 40
104.0
 40
105.0
 40
105.0
 40
105.0
 40
106.0
 40
106.0
 40
106.0
 40
107.0
 40
107.0
 40
107.0
 40
108.0
 40
108.0
 40
108.0
 40
109.0
 40
109.0
 40
109.0
 40
110.0
 40
110.0
 40
110.0
 40
111.0
 40
111.0
 40
111.0
 40
112.0
 40
112.0
 40
112.0
 40
113.0
 40
113.0
 40
113.0
 40
114.0
 40
114.0
 40
114.0
 40
115.0
 40
115.0
 40
115.0
 40
116.0
 40
116.0
 40
116.0
 40
117.0
 40
117.0
 40
117.0
 40
118.0
 40
118.0
 40
118.0
 40
119.0
 40
119.0
 40
119.0
 40
120.0
 40
120.0
 40
120.0
 40
121.0
 40
121.0
 40
121.0
 40
122.0
 40
122.0
 40
122.0
 40
123.0
 40
123.0
 40
123.0
 40
124.0
 40
124.0
 40
124.0
 40
125.0
 40
125.0
 40
125.0
 40
126.0
 40
126.0
 40
126.0
 40
127.0
 40
127.0
 40
127.0
 40
128.0
 40
128.0
 40
128.0
 40
129.0
 40
129.0
 40
129.0
 40
130.0
 40
130.0
 40
130.0
 40
131.0
 40
131.0
 40
131.0
 40
132.0
 40
132.0
 40
132.0
 40
133.0
 40
133.0
 40
133.0
 40
134.0
 40
134.0
 40
134.0
 40
135.0
 40
135.0
 40
135.0
 40
136.0
 40
136.0
 40
136.0
 40
137.0
 40
137.0
 40
137.0
 40
138.0
 40
138.0
 40
138.0
 40
139.0
 40
139.0
 40
139.0
 40
140.0
 40
140.0
 40
140.0
 40
141.0
 40
141.0
 40
141.0
 40
142.0
 40
142.0
 40
142.0
 40
143.0
 40
143.0
 40
143.0
 40
144.0
 40
144.0
 40
144.0
 40
145.0
 40
145.0
 40
145.0
 40
146.0
 40
146.0
 40
146.0
 40
147.0
 40
147.0
 40
147.0
 40
148.0
 40
148.0
 40
148.0
 40
149.0
 40
149.0
 40
149.0
 40
150.0
 40
150.0
 40
150.0
 40
151.0
 40
151.0
 40
151.0
 40
152.0
 40
152.0
 40
152.0
 40
153.0
 40
153.0
 40
153.0
 40
154.0
 40
154.0
 40
154.0
 40
155.0
 40
155.0
 40
155.0
 40
156.0
 40
156.0
 40
156.0
 40
157.0
 40
157.0
 40
157.0
 40
158.0
 40
158.0
 40
158.0
 40
159.0
 40
159.0
 40
159.0
 40
160.0
 40
160.0
 40
160.0
 40
161.0
 40
161.0
 40
161.0
 40
162.0
 40
162.0
 40
162.0
 40
163.0
 40
163.0
 40
163.0
 40
164.0
 40
164.0
 40
164.0
 40
165.0
 40
165.0
 40
165.0
 40
166.0
 40
166.0
 40
166.0
 40
167.0
 40
167.0
 40
167.0
 40
168.0
 40
168.0
 40
168.0
 40
169.0
 40
169.0
 40
169.0
 40
170.0
 40
170.0
 40
170.0
 40
171.0
 40
171.0
 40
171.0
 40
172.0
 40
172.0
 40
172.0
 40
173.0
 40
173.0
 40
173.0
 40
174.0
 40
174.0
 40
174.0
 40
175.0
 40
175.0
 40
175.0
 40
176.0
 40
176.0
 40
176.0
 40
177.0
 40
177.0
 40
177.0
 40
178.0
 40
178.0
 40
178.0
 40
179.0
 40
179.0
 40
179.0
 40
180.0
 40
180.0
 40
180.0
 40
181.0
 40
181.0
 40
181.0
 40
182.0
 40
182.0
 40
182.0
 40
183.0
 40
183.0
 40
183.0
 40
184.0
 40
184.0
 40
184.0
 40
185.0
 40
185.0
 40
185.0
 40
186.0
 40
186.0
 40
186.0
 40
187.0
 40
187.0
 40
187.0
 40
188.0
 40
188.0
 40
188.0
 40
188.0
 10
-74.25635590069756
 20
12.4271757243229
 30
0.0
 10
-75.66727712202326
 20
11.63497416558606
 30
0.0
 10
-77.07155898341572
 20
10.85175863710698
 30
0.0
 10
-78.45615170846023
 20
10.08376784777477
 30
0.0
 10
-80.5330694139573
 20
8.931781663783523
 30
0.0
 10
-82.56568656266983
 20
7.814079760815608
 30
0.0
 10
-84.51021772056597
 20
6.751667700037493
 30
0.0
 10
-85.80655274720937
 20
6.0434311500949
 30
0.0
 10
-87.06373844460124
 20
5.359748784725617
 30
0.0
 10
-88.26878227218527
 20
4.706916548691652
 30
0.0
 10
-89.47376886390701
 20
4.054084312660895
 30
0.0
 10
-90.62672805754614
 20
3.432044970104118
 30
0.0
 10
-91.7143811332391
 20
2.847151701647876
 30
0.0
 10
-92.80209144478694
 20
2.262201197329653
 30
0.0
 10
-93.82455287425221
 20
1.714339531250626
 30
0.0
 10
-94.76894458866354
 20
1.209805412310825
 30
0.0
 10
-97.60200526016108
 20
-0.3038541803712022
 30
0.0
 10
-99.73152272236024
 20
-1.427623084651921
 30
0.0
 10
-100.8065266726569
 20
-1.992998924345487
 30
0.0
 10
-101.3151817736288
 20
-2.260061454005434
 30
0.0
 10
-101.5922605790442
 20
-2.404753711824355
 30
0.0
 10
-101.5922605790442
 20
-2.404753711824355
 30
0.0
 10
-102.884245680214
 20
-4.714678609404685
 30
0.0
 10
-107.5361475578058
 20
-13.31499639113998
 30
0.0
 10
-111.1318188476572
 20
-23.58505595980508
 30
0.0
 10
-111.458692852562
 20
-24.51868733225492
 30
0.0
 10
-111.7768670065218
 20
-25.46611254732202
 30
0.0
 10
-112.0829643937174
 20
-26.42389745331386
 30
0.0
 10
-112.3891190167688
 20
-27.38168235930892
 30
0.0
 10
-112.683082401326
 20
-28.34976972036868
 30
0.0
 10
-112.9617638108672
 20
-29.32472538480639
 30
0.0
 10
-113.5888399092381
 20
-31.51834701186107
 30
0.0
 10
-114.1381324718544
 20
-33.74676804269177
 30
0.0
 10
-114.5718085942764
 20
-35.97026678943964
 30
0.0
 10
-114.7163863803749
 20
-36.71147119559414
 30
0.0
 10
-114.8480860976375
 20
-37.45204600727777
 30
0.0
 10
-114.9655913212532
 20
-38.19067479966561
 30
0.0
 10
-114.974806294955
 20
-38.25123034111012
 30
0.0
 10
-114.9865396465574
 20
-38.31138523152333
 30
0.0
 10
-114.9996466588344
 20
-38.37176906538702
 30
0.0
 10
-115.0220258806791
 20
-38.47445020087814
 30
0.0
 10
-115.0757131187437
 20
-38.6922326538081
 30
0.0
 10
-115.1840606045231
 20
-39.00445427817781
 30
0.0
 10
-115.2924653261673
 20
-39.31673313840693
 30
0.0
 10
-115.4554730596602
 20
-39.72339393421575
 30
0.0
 10
-115.696664979935
 20
-40.20411793478221
 30
0.0
 10
-115.8573832789692
 20
-40.52458152320329
 30
0.0
 10
-116.0529009817823
 20
-40.87795573197687
 30
0.0
 10
-116.2900291558877
 20
-41.25805908806231
 30
0.0
 10
-116.5271573299925
 20
-41.63816244414391
 30
0.0
 10
-116.8058959753995
 20
-42.04505218340066
 30
0.0
 10
-117.1332278671953
 20
-42.47271854037402
 30
0.0
 10
-117.3514682070237
 20
-42.75775313054178
 30
0.0
 10
-117.5912292307593
 20
-43.05205993026629
 30
0.0
 10
-117.8546859011486
 20
-43.35375015612467
 30
0.0
 10
-118.3815992419205
 20
-43.95713060783693
 30
0.0
 10
-119.003066225869
 20
-44.59004476407435
 30
0.0
 10
-119.7355707810731
 20
-45.23818365946572
 30
0.0
 10
-120.1018230586845
 20
-45.56225310716204
 30
0.0
 10
-120.4957774932482
 20
-45.89010012171634
 30
0.0
 10
-120.9196090475003
 20
-46.21995039141878
 30
0.0
 10
-121.6612141046858
 20
-46.79717405443831
 30
0.0
 10
-122.4941675967878
 20
-47.38052195463263
 30
0.0
 10
-123.4294015733628
 20
-47.9602639955562
 30
0.0
 10
-124.3646355499298
 20
-48.54006327234177
 30
0.0
 10
-125.4022072468251
 20
-49.11619945399395
 30
0.0
 10
-126.5530487135895
 20
-49.67917138750166
 30
0.0
 10
-127.2106887619926
 20
-50.00089416487476
 30
0.0
 10
-127.9053031769049
 20
-50.31820978091772
 30
0.0
 10
-128.6389524493441
 20
-50.62945839564147
 30
0.0
 10
-128.8369312942017
 20
-50.71359511201588
 30
0.0
 10
-129.0413205555448
 20
-50.77649732378361
 30
0.0
 10
-129.2489722609873
 20
-50.81873738955548
 30
0.0
 10
-129.3130191899789
 20
-50.83172993010823
 30
0.0
 10
-129.3785542513763
 20
-50.82972667495688
 30
0.0
 10
-129.4431735389896
 20
-50.83876994107342
 30
0.0
 10
-129.5876940892239
 20
-50.85903143603477
 30
0.0
 10
-129.7322146394575
 20
-50.88204025235001
 30
0.0
 10
-129.8778226710604
 20
-50.88232643165928
 30
0.0
 10
-130.0128993041516
 20
-50.88261261096532
 30
0.0
 10
-130.1469456917385
 20
-50.86092021946408
 30
0.0
 10
-130.2812210227662
 20
-50.84397840446871
 30
0.0
 10
-130.3543684537389
 20
-50.83476343076752
 30
0.0
 10
-130.4283171867658
 20
-50.83670945006009
 30
0.0
 10
-130.5008350232609
 20
-50.82240048468886
 30
0.0
 10
-130.7064262376949
 20
-50.7818202589003
 30
0.0
 10
-130.9089839514713
 20
-50.72115024573055
 30
0.0
 10
-131.1053601922028
 20
-50.63970361484739
 30
0.0
 10
-131.8948716654542
 20
-50.31145594926501
 30
0.0
 10
-132.5204023955555
 20
-49.67997268956361
 30
0.0
 10
-132.8398357384699
 20
-48.8865119418754
 30
0.0
 10
-132.8398357384699
 20
-48.8865119418754
 30
0.0
 10
-138.6311319105306
 20
-34.50165181974214
 30
0.0
 10
-138.6311319105306
 20
-34.50165181974214
 30
0.0
 10
-138.6311319105306
 20
-34.50165181974214
 30
0.0
 10
-143.9246477952932
 20
-21.35325801314706
 30
0.0
 10
-143.9246477952932
 20
-21.35325801314706
 30
0.0
 10
-143.9246477952932
 20
-21.35325801314706
 30
0.0
 10
-143.9467408378312
 20
-21.29836882198727
 30
0.0
 10
-143.9467408378312
 20
-21.29836882198727
 30
0.0
 10
-143.9467408378312
 20
-21.29836882198727
 30
0.0
 10
-149.4871722290221
 20
-23.52896481555654
 30
0.0
 10
-149.4871722290221
 20
-23.52896481555654
 30
0.0
 10
-149.4871722290221
 20
-23.52896481555654
 30
0.0
 10
-153.8992558470044
 20
-25.30522254070319
 30
0.0
 10
-153.8992558470044
 20
-25.30522254070319
 30
0.0
 10
-153.8992558470044
 20
-25.30522254070319
 30
0.0
 10
-160.0538852677302
 20
-10.01786735476531
 30
0.0
 10
-160.0538852677302
 20
-10.01786735476531
 30
0.0
 10
-160.0538852677302
 20
-10.01786735476531
 30
0.0
 10
-172.0889843326942
 20
19.87567902964776
 30
0.0
 10
-172.0889843326942
 20
19.87567902964776
 30
0.0
 10
-172.0889843326942
 20
19.87567902964776
 30
0.0
 10
-162.1363548517909
 20
23.88253274835919
 30
0.0
 10
-162.1363548517909
 20
23.88253274835919
 30
0.0
 10
-162.1363548517909
 20
23.88253274835919
 30
0.0
 10
-167.4299852082836
 20
37.03104102668336
 30
0.0
 10
-167.4299852082836
 20
37.03104102668336
 30
0.0
 10
-167.4299852082836
 20
37.03104102668336
 30
0.0
 10
-173.2213386161997
 20
51.41613009225941
 30
0.0
 10
-173.2213386161997
 20
51.41613009225941
 30
0.0
 10
-173.3011254070993
 20
51.61439511642412
 30
0.0
 10
-173.360078344425
 20
51.8186126701828
 30
0.0
 10
-173.3984263716191
 20
52.02569201701292
 30
0.0
 10
-173.4367743988126
 20
52.23277136384752
 30
0.0
 10
-173.4542885724226
 20
52.44276973961232
 30
0.0
 10
-173.4511978359007
 20
52.65242470021295
 30
0.0
 10
-173.4450163628659
 20
53.07173462141033
 30
0.0
 10
-173.3563007775699
 20
53.49001429709913
 30
0.0
 10
-173.1853944951957
 20
53.88190824064793
 30
0.0
 10
-172.8428951001037
 20
54.66500929740883
 30
0.0
 10
-172.1995640170766
 20
55.27897838349568
 30
0.0
 10
-171.3998645604843
 20
55.58341593070409
 30
0.0
 10
-170.7234511495249
 20
55.84132072252995
 30
0.0
 10
-170.0726794045084
 20
56.06579977125001
 30
0.0
 10
-169.4355297945165
 20
56.27379489186732
 30
0.0
 10
-169.2418436392704
 20
56.33704051879987
 30
0.0
 10
-169.0542244853388
 20
56.39313166304841
 30
0.0
 10
-168.864201425228
 20
56.45197012865082
 30
0.0
 10
-168.4146709691777
 20
56.59122497962846
 30
0.0
 10
-167.9741837792337
 20
56.71989119623535
 30
0.0
 10
-167.5446858746933
 20
56.8357365798703
 30
0.0
 10
-167.3548917580228
 20
56.88696267589222
 30
0.0
 10
-167.1645252827398
 20
56.93887560225469
 30
0.0
 10
-166.9786232046557
 20
56.98575177280591
 30
0.0
 10
-166.4994445723566
 20
57.1065766763895
 30
0.0
 10
-166.0333157164693
 20
57.21320708632326
 30
0.0
 10
-165.5798932218336
 20
57.30673048397967
 30
0.0
 10
-165.4814475400889
 20
57.32699197894488
 30
0.0
 10
-165.3777361590837
 20
57.35286258833539
 30
0.0
 10
-165.2804351945742
 20
57.37192213020737
 30
0.0
 10
-164.7373813408592
 20
57.47849530428235
 30
0.0
 10
-164.215161340717
 20
57.56434909649949
 30
0.0
 10
-163.7098831555833
 20
57.6350926212873
 30
0.0
 10
-163.5695408232315
 20
57.65472452177394
 30
0.0
 10
-163.4365246811591
 20
57.66823218508643
 30
0.0
 10
-163.2991586136085
 20
57.68528847180769
 30
0.0
 10
-162.9312464960148
 20
57.73101992512891
 30
0.0
 10
-162.5718052859252
 20
57.76948242404152
 30
0.0
 10
-162.2246125501948
 20
57.79798588305747
 30
0.0
 10
-162.0715638566012
 20
57.81057777258276
 30
0.0
 10
-161.9200032954046
 20
57.82202494487808
 30
0.0
 10
-161.7708466403869
 20
57.83141162616264
 30
0.0
 10
-161.4264012260078
 20
57.85316125352651
 30
0.0
 10
-161.0930595687522
 20
57.86672615269393
 30
0.0
 10
-160.7697914231178
 20
57.8730793333192
 30
0.0
 10
-160.6617301166448
 20
57.8751970601958
 30
0.0
 10
-160.5488609978027
 20
57.88063446703387
 30
0.0
 10
-160.4430891257887
 20
57.88120682564918
 30
0.0
 10
-160.2896970170241
 20
57.88195089184851
 30
0.0
 10
-160.1506138736276
 20
57.87370892779714
 30
0.0
 10
-160.0021440489526
 20
57.87130502161129
 30
0.0
 10
-159.6289662321081
 20
57.86523802029527
 30
0.0
 10
-159.2654040399919
 20
57.85333296110668
 30
0.0
 10
-158.9233625317922
 20
57.82940837101195
 30
0.0
 10
-158.7584660148669
 20
57.817903962854
 30
0.0
 10
-158.6010101599409
 20
57.8027364595627
 30
0.0
 10
-158.4432681257095
 20
57.78756895626752
 30
0.0
 10
-158.1442679853417
 20
57.75877931794553
 30
0.0
 10
-157.856085422792
 20
57.72523910311896
 30
0.0
 10
-157.5825552407815
 20
57.68528847180769
 30
0.0
 10
-157.4413543705116
 20
57.66462632581183
 30
0.0
 10
-157.2988943112856
 20
57.64465101015588
 30
0.0
 10
-157.1645045085371
 20
57.62152772211925
 30
0.0
 10
-156.8802139845632
 20
57.57259106055407
 30
0.0
 10
-156.6133231624895
 20
57.5182742280096
 30
0.0
 10
-156.359024229937
 20
57.46052324377838
 30
0.0
 10
-156.2673896157141
 20
57.43968939019787
 30
0.0
 10
-156.1672268581231
 20
57.42114497107859
 30
0.0
 10
-156.079484282476
 20
57.39939534371857
 30
0.0
 10
-155.7495195410503
 20
57.31777700524755
 30
0.0
 10
-155.4431359745486
 20
57.23112191096909
 30
0.0
 10
-155.1676025373846
 20
57.14212014636743
 30
0.0
 10
-155.1127705820848
 20
57.12443426516887
 30
0.0
 10
-155.0688706763335
 20
57.10646220466746
 30
0.0
 10
-155.0161564479078
 20
57.08866185174752
 30
0.0
 10
-154.79946147635
 20
57.01534271318984
 30
0.0
 10
-154.5957590453485
 20
56.94162292360537
 30
0.0
 10
-154.4150654306594
 20
56.86910508710965
 30
0.0
 10
-154.3367095362914
 20
56.83762536329961
 30
0.0
 10
-154.2671107287323
 20
56.80734759257575
 30
0.0
 10
-154.1955086660212
 20
56.77661193496182
 30
0.0
 10
-154.0602603253437
 20
56.71851753555873
 30
0.0
 10
-153.9314224011531
 20
56.6615106175262
 30
0.0
 10
-153.8200986505822
 20
56.60782337945966
 30
0.0
 10
-153.7602299394728
 20
56.57891926941243
 30
0.0
 10
-153.7005901718129
 20
56.55035857453386
 30
0.0
 10
-153.6475897640808
 20
56.52328601205395
 30
0.0
 10
-153.545080336175
 20
56.47085796293878
 30
0.0
 10
-153.4536174295297
 20
56.42203577309565
 30
0.0
 10
-153.3768641392865
 20
56.37847928251299
 30
0.0
 10
-153.3452127078851
 20
56.36050722200838
 30
0.0
 10
-153.3060633786374
 20
56.3396733684285
 30
0.0
 10
-153.2787618727137
 20
56.32353285549058
 30
0.0
 10
-153.1894739288067
 20
56.27064691948599
 30
0.0
 10
-153.1139225916536
 20
56.22348456962552
 30
0.0
 10
-153.0720259410459
 20
56.19538176164024
 30
0.0
 10
-153.0209715526118
 20
56.16138365991974
 30
0.0
 10
-152.9704895227789
 20
56.12538230304791
 30
0.0
 10
-152.9220679839751
 20
56.08846517239657
 30
0.0
 10
-152.1267184528595
 20
55.48685903238839
 30
0.0
 10
-151.310649539881
 20
54.90030592394626
 30
0.0
 10
-150.4786690574188
 20
54.32886308294054
 30
0.0
 10
-150.0626788161932
 20
54.04319889829804
 30
0.0
 10
-149.6427393005159
 20
53.76119780878636
 30
0.0
 10
-149.2193656331552
 20
53.48314599372116
 30
0.0
 10
-147.1026117680714
 20
52.09265797494532
 30
0.0
 10
-144.9013205355752
 20
50.79769660897723
 30
0.0
 10
-142.6904709142236
 20
49.60146710405957
 30
0.0
 10
-140.9217683227903
 20
48.64442626426768
 30
0.0
 10
-139.1469987300417
 20
47.75063105140771
 30
0.0
 10
-137.4044529273069
 20
46.92162683374093
 30
0.0
 10
-136.5332086438673
 20
46.50712472490819
 30
0.0
 10
-135.6699773810401
 20
46.10887760073732
 30
0.0
 10
-134.8196241870395
 20
45.72694269708518
 30
0.0
 10
-133.1189177990479
 20
44.9631301256461
 30
0.0
 10
-131.4697236863819
 20
44.26496708732221
 30
0.0
 10
-129.9103326403809
 20
43.6341134220981
 30
0.0
 10
-129.1306657353081
 20
43.31862935362247
 30
0.0
 10
-128.3734352879361
 20
43.02002986428664
 30
0.0
 10
-127.6434491106319
 20
42.73842942580883
 30
0.0
 10
-126.5484698446706
 20
42.31602876808953
 30
0.0
 10
-125.5147901863612
 20
41.93186166584262
 30
0.0
 10
-124.5586651203471
 20
41.58672942112363
 30
0.0
 10
-123.9212293310576
 20
41.35664125797763
 30
0.0
 10
-123.3183067662334
 20
41.14389556085895
 30
0.0
 10
-122.7545907665209
 20
40.94866403735032
 30
0.0
 10
-122.1908747668164
 20
40.75343251384555
 30
0.0
 10
-121.6664225680817
 20
40.57571516395209
 30
0.0
 10
-121.1859847468178
 20
40.41574093111982
 30
0.0
 10
-120.9385541176512
 20
40.33337852644883
 30
0.0
 10
-120.7033719628252
 20
40.25588117000895
 30
0.0
 10
-120.4805527540872
 20
40.18313439006659
 30
0.0
 10
-120.2577335453498
 20
40.11038761012744
 30
0.0
 10
-120.0471628109713
 20
40.04233417082768
 30
0.0
 10
-119.8491267302481
 20
39.97885960044849
 30
0.0
 10
-119.8491267302481
 20
39.97885960044849
 30
0.0
 10
-119.849183966113
 20
39.9789168363079
 30
0.0
 10
-119.849183966113
 20
39.9789168363079
 30
0.0
 10
-119.6683758797037
 20
39.92099414449203
 30
0.0
 10
-119.496324880095
 20
39.8662766609169
 30
0.0
 10
-119.3376670720693
 20
39.81630975384636
 30
0.0
 10
-119.168935752434
 20
39.76319487439512
 30
0.0
 10
-119.0129680299034
 20
39.71448715627659
 30
0.0
 10
-118.8704507348141
 20
39.67041554293419
 30
0.0
 10
-118.7279334397328
 20
39.62628669373366
 30
0.0
 10
-118.5988665721007
 20
39.58679394931246
 30
0.0
 10
-118.4837652546641
 20
39.55176560209044
 30
0.0
 10
-118.4837652546641
 20
39.55176560209044
 30
0.0
 10
-118.4081566816461
 20
39.57362970117506
 30
0.0
 10
-118.2633499521068
 20
39.61564082350029
 30
0.0
 10
-118.1909465873321
 20
39.63664638466418
 30
0.0
 10
-118.1012579923979
 20
39.66263146577352
 30
0.0
 10
-117.9950282334916
 20
39.69342435925007
 30
0.0
 10
-117.8888557104511
 20
39.72421725272662
 30
0.0
 10
-117.7661420234402
 20
39.75976072270454
 30
0.0
 10
-117.6277457103755
 20
39.79982582574104
 30
0.0
 10
-117.2621802631163
 20
39.90548322603204
 30
0.0
 10
-116.7847187066545
 20
40.04313547288963
 30
0.0
 10
-116.2065792698532
 20
40.20906223531651
 30
0.0
 10
-115.2430135418495
 20
40.48562591798306
 30
0.0
 10
-113.9999078663758
 20
40.84077443846455
 30
0.0
 10
-112.5294041132554
 20
41.25733703830805
 30
0.0
 10
-111.5882748429509
 20
41.52394168108179
 30
0.0
 10
-110.5540228260188
 20
41.81567286703964
 30
0.0
 10
-109.4403274333581
 20
42.12806619899336
 30
0.0
 10
-107.4261974679009
 20
42.69304138765628
 30
0.0
 10
-105.1425438307389
 20
43.32778709146039
 30
0.0
 10
-102.689758222914
 20
44.00122423762375
 30
0.0
 10
-101.0737609099024
 20
44.44485939994716
 30
0.0
 10
-99.38982462932221
 20
44.90406271659703
 30
0.0
 10
-97.64166971216502
 20
45.37562897932494
 30
0.0
 10
-96.174485639009
 20
45.77135772559176
 30
0.0
 10
-94.66895353865886
 20
46.17429819040844
 30
0.0
 10
-93.13875278200537
 20
46.57981426898793
 30
0.0
 10
-80.13184602498848
 20
50.02678679071355
 30
0.0
 10
-65.34141258841376
 20
53.66395408013716
 30
0.0
 10
-57.17431304221706
 20
54.72510695196006
 30
0.0
 10
-57.17431304221706
 20
54.72510695196006
 30
0.0
 10
-57.17706036356774
 20
54.72310369680871
 30
0.0
 10
-57.17706036356774
 20
54.72310369680871
 30
0.0
 10
-56.50722907667577
 20
54.83110776741973
 30
0.0
 10
-55.84901666966442
 20
54.92365815543339
 30
0.0
 10
-55.20150736874906
 20
55.0029870594406
 30
0.0
 10
-54.63601705733474
 20
55.0722424518336
 30
0.0
 10
-54.08180221063173
 20
55.12816188849813
 30
0.0
 10
-53.53353989352141
 20
55.17721302178468
 30
0.0
 10
-53.36240466769859
 20
55.19255223266066
 30
0.0
 10
-53.19401676322645
 20
55.20520135804858
 30
0.0
 10
-53.02459861324763
 20
55.21865178549461
 30
0.0
 10
-52.61833846846882
 20
55.25099004723243
 30
0.0
 10
-52.21705784363738
 20
55.27829155315898
 30
0.0
 10
-51.82064226703256
 20
55.30038459568767
 30
0.0
 10
-51.66290023279506
 20
55.30914168249494
 30
0.0
 10
-51.50435689649818
 20
55.31887177894817
 30
0.0
 10
-51.34816023052132
 20
55.32608349749416
 30
0.0
 10
-50.81661078496295
 20
55.35069491792945
 30
0.0
 10
-50.29118557658385
 20
55.36946828049217
 30
0.0
 10
-49.77789437083806
 20
55.3770806500733
 30
0.0
 10
-49.7744602191494
 20
55.37696617834805
 30
0.0
 10
-49.77085435987544
 20
55.37730959351609
 30
0.0
 10
-49.76707679301811
 20
55.37685170662282
 30
0.0
 10
-49.38771750313455
 20
55.38240358518934
 30
0.0
 10
-49.01877514003837
 20
55.37931284866743
 30
0.0
 10
-48.64983277694347
 20
55.37622211214873
 30
0.0
 10
-48.41734070761548
 20
55.37427609285679
 30
0.0
 10
-48.18627953482224
 20
55.37124259220007
 30
0.0
 10
-47.95796568338222
 20
55.36603412880542
 30
0.0
 10
-47.71133635626894
 20
55.36036777851686
 30
0.0
 10
-47.46774052981302
 20
55.35258370135876
 30
0.0
 10
-47.2260907226471
 20
55.3433114917956
 30
0.0
 10
-47.0020695608184
 20
55.33478334843496
 30
0.0
 10
-46.77902140863245
 20
55.32551113887885
 30
0.0
 10
-46.55929293641443
 20
55.31400673072155
 30
0.0
 10
-46.32279435678245
 20
55.30158654878027
 30
0.0
 10
-46.08978716469986
 20
55.28699140410362
 30
0.0
 10
-45.8582681050159
 20
55.27136601391903
 30
0.0
 10
-45.64197378448652
 20
55.25671363337977
 30
0.0
 10
-45.42619458670984
 20
55.24177507353124
 30
0.0
 10
-45.21430742751253
 20
55.22448984336719
 30
0.0
 10
-44.98862642569987
 20
55.2060598959693
 30
0.0
 10
-44.76689469832985
 20
55.18551222169868
 30
0.0
 10
-44.54636492404986
 20
55.16422048122874
 30
0.0
 10
-44.33974346411047
 20
55.1443024014354
 30
0.0
 10
-44.13335094761577
 20
55.12438432163887
 30
0.0
 10
-43.93125112073303
 20
55.10211957152296
 30
0.0
 10
-43.71421273400368
 20
55.07819498142758
 30
0.0
 10
-43.50158150860833
 20
55.05220990031567
 30
0.0
 10
-43.28980882113497
 20
55.02576693230921
 30
0.0
 10
-43.0930891652309
 20
55.0012699835953
 30
0.0
 10
-42.89619780174215
 20
54.97688750660665
 30
0.0
 10
-42.70411425061807
 20
54.95033006687943
 30
0.0
 10
-42.49783620584669
 20
54.9218266078667
 30
0.0
 10
-42.29659491688532
 20
54.89131989369621
 30
0.0
 10
-42.09569704309325
 20
54.86069870780368
 30
0.0
 10
-41.90784894571847
 20
54.8320807770657
 30
0.0
 10
-41.71925678214502
 20
54.80369178977115
 30
0.0
 10
-41.53615926127226
 20
54.77329954732589
 30
0.0
 10
-41.34144286051953
 20
54.7410185214507
 30
0.0
 10
-41.15233557419275
 20
54.70690594800881
 30
0.0
 10
-40.96299934441932
 20
54.6728506104289
 30
0.0
 10
-40.78425174901985
 20
54.64068405627958
 30
0.0
 10
-40.60424496466707
 20
54.60891815315644
 30
0.0
 10
-40.43030518163225
 20
54.57537793833306
 30
0.0
 10
-40.24623465111416
 20
54.53983446835194
 30
0.0
 10
-40.06823112191403
 20
54.50274563011275
 30
0.0
 10
-39.88959799823788
 20
54.46582849945756
 30
0.0
 10
-39.72063773515042
 20
54.43085738809496
 30
0.0
 10
-39.55001763208157
 20
54.39634416362498
 30
0.0
 10
-39.38603688894404
 20
54.36028557089116
 30
0.0
 10
-39.21186816246193
 20
54.32199477956257
 30
0.0
 10
-39.04433879591179
 20
54.282559271004
 30
0.0
 10
-38.87577918385626
 20
54.2431809983042
 30
0.0
 10
-38.71901015926345
 20
54.20655004695892
 30
0.0
 10
-38.56006617193592
 20
54.17043421836569
 30
0.0
 10
-38.40827666729175
 20
54.13311643667985
 30
0.0
 10
-38.24252161244888
 20
54.09236450330665
 30
0.0
 10
-38.08420721959735
 20
54.05069679615009
 30
0.0
 10
-37.92440469434782
 20
54.0092007965782
 30
0.0
 10
-37.77954072894296
 20
53.97165407144893
 30
0.0
 10
-37.63192944218806
 20
53.93427905390368
 30
0.0
 10
-37.4919877608718
 20
53.89627444188114
 30
0.0
 10
-37.33745093487697
 20
53.85420608369393
 30
0.0
 10
-37.19092712949072
 20
53.8117943103342
 30
0.0
 10
-37.04245730481318
 20
53.76943977284095
 30
0.0
 10
-36.90829644550623
 20
53.73120621737562
 30
0.0
 10
-36.77064419864801
 20
53.6929726619058
 30
0.0
 10
-36.64146285929036
 20
53.6545673988526
 30
0.0
 10
-36.4955114125175
 20
53.61118261585076
 30
0.0
 10
-36.35825981669056
 20
53.56779783285212
 30
0.0
 10
-36.21877602226629
 20
53.52447028570969
 30
0.0
 10
-36.09915307177401
 20
53.48732421160787
 30
0.0
 10
-35.9755236109784
 20
53.45000642992524
 30
0.0
 10
-35.86070847285269
 20
53.41303206340808
 30
0.0
 10
-35.71922142327514
 20
53.36741508181146
 30
0.0
 10
-35.5875217060109
 20
53.32248493054834
 30
0.0
 10
-35.45336084670395
 20
53.27738307170506
 30
0.0
 10
-35.35119483396359
 20
53.24298431895711
 30
0.0
 10
-35.24410653713591
 20
53.20829938689992
 30
0.0
 10
-35.14617597814551
 20
53.17430128517941
 30
0.0
 10
-35.00926779748598
 20
53.12679552015413
 30
0.0
 10
-34.88317719464767
 20
53.08060617993899
 30
0.0
 10
-34.75473992148871
 20
53.03413066041844
 30
0.0
 10
-34.67060320511365
 20
53.00368118211057
 30
0.0
 10
-34.58091461017591
 20
52.97254487346535
 30
0.0
 10
-34.50044098893551
 20
52.94266775377279
 30
0.0
 10
-34.3663946013506
 20
52.89292979014888
 30
0.0
 10
-34.24419603709359
 20
52.84513784581434
 30
0.0
 10
-34.12033763285199
 20
52.79723142975775
 30
0.0
 10
-34.05600452455015
 20
52.77239106587197
 30
0.0
 10
-33.98560441493037
 20
52.74629151304123
 30
0.0
 10
-33.9241330997006
 20
52.72196627191135
 30
0.0
 10
-33.7445842022411
 20
52.6509938036737
 30
0.0
 10
-33.57631076949227
 20
52.58242524162446
 30
0.0
 10
-33.42068646213072
 20
52.51723359539677
 30
0.0
 10
-33.41439051736743
 20
52.514772453356
 30
0.0
 10
-33.40826628018879
 20
52.51271196234204
 30
0.0
 10
-33.40225651473412
 20
52.50939228237669
 30
0.0
 10
-32.99645425684538
 20
52.33963071722857
 30
0.0
 10
-32.67415912085633
 20
52.19270626081102
 30
0.0
 10
-32.43811842811636
 20
52.07909307577406
 30
0.0
 10
-32.42586995375909
 20
52.07325501790468
 30
0.0
 10
-32.41190440355781
 20
52.06713078072669
 30
0.0
 10
-32.40011381609381
 20
52.06180784560615
 30
0.0
 10
-32.29354064201883
 20
52.00966597580088
 30
0.0
 10
-32.20453887741907
 20
51.96599501349299
 30
0.0
 10
-32.1367716174273
 20
51.93056601523711
 30
0.0
 10
-32.12498102996266
 20
51.92507137253576
 30
0.0
 10
-32.11479304661936
 20
51.91951949396923
 30
0.0
 10
-32.10454782741472
 20
51.91413932299377
 30
0.0
 10
-32.04736920179689
 20
51.88489179777466
 30
0.0
 10
-31.99934831401635
 20
51.85959354700266
 30
0.0
 10
-31.97719803562375
 20
51.84740230850802
 30
0.0
 10
-31.80056816709831
 20
51.75233354259033
 30
0.0
 10
-31.63515652742347
 20
51.64123873545739
 30
0.0
 10
-31.48308084347326
 20
51.51709415190845
 30
0.0
 10
-31.40907487458016
 20
51.45550836495921
 30
0.0
 10
-31.33621362291769
 20
51.39128972837749
 30
0.0
 10
-31.26558456985256
 20
51.32306458149692
 30
0.0
 10
-31.1033209025584
 20
51.16303311279818
 30
0.0
 10
-30.96028848472151
 20
50.98817755598
 30
0.0
 10
-30.83705967495655
 20
50.8024471854786
 30
0.0
 10
-30.83705967495655
 20
50.8024471854786
 30
0.0
 10
-30.83700243909586
 20
50.8024471854786
 30
0.0
 10
-30.83700243909586
 20
50.8024471854786
 30
0.0
 10
-30.83700243909586
 20
50.8024471854786
 30
0.0
 10
-30.77719096385004
 20
50.82648624730243
 30
0.0
 10
-30.77719096385004
 20
50.82648624730243
 30
0.0
 10
-30.7374692759822
 20
50.72786885797277
 30
0.0
 10
-30.71795184721825
 20
50.62152462734442
 30
0.0
 10
-30.68841814269564
 20
50.51953032218679
 30
0.0
 10
-30.63879465079312
 20
50.4248622073036
 30
0.0
 10
-30.57921211899202
 20
50.33465848960933
 30
0.0
 10
-30.53949043112611
 20
50.23604110027966
 30
0.0
 10
-30.53949043112611
 20
50.23604110027966
 30
0.0
 10
-30.59930190637257
 20
50.21194480259706
 30
0.0
 10
-30.59930190637257
 20
50.21194480259706
 30
0.0
 10
-30.55946574678206
 20
49.99255974555026
 30
0.0
 10
-30.54149368627874
 20
49.7675083382117
 30
0.0
 10
-30.54756068759475
 20
49.53965237366368
 30
0.0
 10
-30.55122378272877
 20
49.44143563536467
 30
0.0
 10
-30.55912233161403
 20
49.34424914257425
 30
0.0
 10
-30.56993990943334
 20
49.24900866907318
 30
0.0
 10
-30.59357832022395
 20
49.05412056073323
 30
0.0
 10
-30.63587562185715
 20
48.85940415998434
 30
0.0
 10
-30.69723246536297
 20
48.66812191091963
 30
0.0
 10
-30.70484483494026
 20
48.64431179254244
 30
0.0
 10
-30.7218438857989
 20
48.59245610204258
 30
0.0
 10
-30.74279221110018
 20
48.53172885301407
 30
0.0
 10
-30.74662701381948
 20
48.52108298277748
 30
0.0
 10
-30.75011840136948
 20
48.51009369737544
 30
0.0
 10
-30.75464003442615
 20
48.49750180785014
 30
0.0
 10
-30.77919421900074
 20
48.42572803755374
 30
0.0
 10
-30.81290614141197
 20
48.3318612247293
 30
0.0
 10
-30.8540014899545
 20
48.22145324793628
 30
0.0
 10
-30.8585803588725
 20
48.2089185942704
 30
0.0
 10
-30.86424670915978
 20
48.19432344959375
 30
0.0
 10
-30.86899728566244
 20
48.18167432420904
 30
0.0
 10
-30.91467150312297
 20
48.0593040523648
 30
0.0
 10
-30.9701330528955
 20
47.91581374763527
 30
0.0
 10
-31.03589705773529
 20
47.75269154242104
 30
0.0
 10
-31.10171829843707
 20
47.58951210134161
 30
0.0
 10
-31.17784199420483
 20
47.4066435239155
 30
0.0
 10
-31.26489773951393
 20
47.2053449990947
 30
0.0
 10
-31.26850359878725
 20
47.19784710123945
 30
0.0
 10
-31.27096474082994
 20
47.19074985441485
 30
0.0
 10
-31.2747995435499
 20
47.18308024897878
 30
0.0
 10
-31.6161542214122
 20
46.39471349296383
 30
0.0
 10
-32.12486655824063
 20
45.33006923358772
 30
0.0
 10
-32.84317661980449
 20
44.07059410173815
 30
0.0
 10
-33.13050064443029
 20
43.56680404899767
 30
0.0
 10
-33.45136488388266
 20
43.03187768761262
 30
0.0
 10
-33.80851665951357
 20
42.47096624511438
 30
0.0
 10
-34.1656684351432
 20
41.91005480261998
 30
0.0
 10
-34.55905051109065
 20
41.32315827900983
 30
0.0
 10
-34.99141020870533
 20
40.71559960940702
 30
0.0
 10
-35.20759005751138
 20
40.41179165667655
 30
0.0
 10
-35.43350000277067
 20
40.10277524055079
 30
0.0
 10
-35.66948345964995
 20
39.78929442722522
 30
0.0
 10
-36.14150760926855
 20
39.16227556472364
 30
0.0
 10
-36.653883041231
 20
38.51711293412894
 30
0.0
 10
-37.2091853693033
 20
37.85901499884091
 30
0.0
 10
-38.31990449716929
 20
36.54287636412427
 30
0.0
 10
-39.60267462464209
 20
35.1751109823544
 30
0.0
 10
-41.07930261494561
 20
33.79738656068788
 30
0.0
 10
-41.08182099285094
 20
33.79486818278448
 30
0.0
 10
-41.08445384247764
 20
33.7919491538498
 30
0.0
 10
-41.0868005127983
 20
33.78937354007994
 30
0.0
 10
-41.4618098772105
 20
33.43971966230621
 30
0.0
 10
-41.85318869800533
 20
33.08943619005134
 30
0.0
 10
-42.25303842630009
 20
32.73915271779968
 30
0.0
 10
-42.3711160085311
 20
32.63578475196864
 30
0.0
 10
-42.49257050659134
 20
32.53258849372161
 30
0.0
 10
-42.61288028742033
 20
32.42910605616533
 30
0.0
 10
-42.91560075878344
 20
32.16896906574211
 30
0.0
 10
-43.22559018455517
 20
31.90923272634956
 30
0.0
 10
-43.54267685715085
 20
31.64966809454166
 30
0.0
 10
-43.67117136617116
 20
31.54446858114392
 30
0.0
 10
-43.79840668623944
 20
31.43938353946695
 30
0.0
 10
-43.92936233730372
 20
31.33429849779062
 30
0.0
 10
-44.35634186393909
 20
30.99168463097566
 30
0.0
 10
-44.79247912841111
 20
30.64975759450061
 30
0.0
 10
-45.24567267960438
 20
30.30977657731365
 30
0.0
 10
-45.77104065212149
 20
29.91553596344162
 30
0.0
 10
-46.31323596791452
 20
29.52329860472479
 30
0.0
 10
-46.87506318419482
 20
29.13432369011388
 30
0.0
 10
-46.87506318419482
 20
29.13432369011388
 30
0.0
 10
-46.87500594833349
 20
29.13432369011388
 30
0.0
 10
-46.87500594833349
 20
29.13432369011388
 30
0.0
 10
-46.87500594833349
 20
29.13432369011388
 30
0.0
 10
-46.87506318419482
 20
29.13426645425126
 30
0.0
 10
-46.87506318419482
 20
29.13426645425126
 30
0.0
 10
-46.87506318419482
 20
29.13426645425126
 30
0.0
 10
-46.87157179664483
 20
29.13432369011388
 30
0.0
 10
-46.87157179664483
 20
29.13432369011388
 30
0.0
 10
-47.26134801331833
 20
28.84642730687405
 30
0.0
 10
-47.6737896311384
 20
28.54902977062763
 30
0.0
 10
-48.10735128184375
 20
28.24298961929532
 30
0.0
 10
-48.97447458325318
 20
27.63085208077516
 30
0.0
 10
-49.92590630862361
 20
26.98408684606041
 30
0.0
 10
-50.94871115325849
 20
26.30876091646774
 30
0.0
 10
-51.97151599789209
 20
25.63349222273706
 30
0.0
 10
-53.06563672592881
 20
24.92966283412396
 30
0.0
 10
-54.21813803267532
 20
24.20368316712083
 30
0.0
 10
-55.37063933942055
 20
23.47764626425764
 30
0.0
 10
-56.5815212248762
 20
22.7295163188632
 30
0.0
 10
-57.83767667676109
 20
21.96530309639026
 30
0.0
 10
-59.09388936450666
 20
21.20108987392052
 30
0.0
 10
-60.39537561868403
 20
20.42096508195692
 30
0.0
 10
-61.72925737045801
 20
19.63099572182127
 30
0.0
 10
-63.06313912223198
 20
18.84108359754567
 30
0.0
 10
-64.42935913574121
 20
18.04138414096064
 30
0.0
 10
-65.81492487043101
 20
17.23825053268116
 30
0.0
 10
-66.96444991238021
 20
16.57191063333856
 30
0.0
 10
-68.12725367419206
 20
15.9033957712638
 30
0.0
 10
-69.29583825801451
 20
15.23614009813784
 30
0.0
 10
-70.46448007769765
 20
14.56882718915248
 30
0.0
 10
-71.63890271939012
 20
13.90271623325651
 30
0.0
 10
-72.81200893626922
 20
13.24095520283126
 30
0.0
 10
-72.9792521235114
 20
13.14663050311354
 30
0.0
 10
-73.14626636730757
 20
13.05253474684182
 30
0.0
 10
-73.31339508282706
 20
12.95843899057073
 30
0.0
 10
-73.62773443407144
 20
12.7814084710172
 30
0.0
 10
-73.94253167220651
 20
12.60334770595508
 30
0.0
 10
-74.25635590069756
 20
12.4271757243229
 30
0.0
  0
SPLINE
  5
7E
330
79
100
AcDbEntity
  8
Layer 1
100
AcDbSpline
210
0.0
220
0.0
230
1.0
 70
     9
 71
     3
 72
    23
 73
    19
 74
     0
 42
0.0000000001
 43
0.0000000001
 40
0.0
 40
0.0
 40
0.0
 40
0.0
 40
1.0
 40
1.0
 40
1.0
 40
2.0
 40
2.0
 40
2.0
 40
3.0
 40
3.0
 40
3.0
 40
4.0
 40
4.0
 40
4.0
 40
5.0
 40
5.0
 40
5.0
 40
6.0
 40
6.0
 40
6.0
 40
6.0
 10
-165.4456178907953
 20
-21.76672987647187
 30
0.0
 10
-168.2232742483916
 20
-22.88494690219247
 30
0.0
 10
-171.4854894092573
 20
-21.27650472290266
 30
0.0
 10
-172.7341469632879
 20
-18.17506509692604
 30
0.0
 10
-172.7341469632879
 20
-18.17506509692604
 30
0.0
 10
-173.7064697781027
 20
-15.75959727077995
 30
0.0
 10
-173.7064697781027
 20
-15.75959727077995
 30
0.0
 10
-174.955127332134
 20
-12.65832935238799
 30
0.0
 10
-173.7172301200556
 20
-9.238429393141636
 30
0.0
 10
-170.9396882341907
 20
-8.120155131561618
 30
0.0
 10
-170.9396882341907
 20
-8.120155131561618
 30
0.0
 10
-168.443975730255
 20
-7.115379583293963
 30
0.0
 10
-168.443975730255
 20
-7.115379583293963
 30
0.0
 10
-168.443975730255
 20
-7.115379583293963
 30
0.0
 10
-162.9500198585801
 20
-20.76195432820357
 30
0.0
 10
-162.9500198585801
 20
-20.76195432820357
 30
0.0
 10
-162.9500198585801
 20
-20.76195432820357
 30
0.0
 10
-165.4456178907953
 20
-21.76672987647187
 30
0.0
 10
-165.4456178907953
 20
-21.76672987647187
 30
0.0
  0
SPLINE
  5
7F
330
79
100
AcDbEntity
  8
Layer 1
100
AcDbSpline
210
0.0
220
0.0
230
1.0
 70
     9
 71
     3
 72
    23
 73
    19
 74
     0
 42
0.0000000001
 43
0.0000000001
 40
0.0
 40
0.0
 40
0.0
 40
0.0
 40
1.0
 40
1.0
 40
1.0
 40
2.0
 40
2.0
 40
2.0
 40
3.0
 40
3.0
 40
3.0
 40
4.0
 40
4.0
 40
4.0
 40
5.0
 40
5.0
 40
5.0
 40
6.0
 40
6.0
 40
6.0
 40
6.0
 10
-179.8231518226622
 20
-0.5666812562818234
 30
0.0
 10
-179.8231518226622
 20
-0.5666812562818234
 30
0.0
 10
-180.7957035809172
 20
1.848786569864264
 30
0.0
 10
-180.7957035809172
 20
1.848786569864264
 30
0.0
 10
-182.0443611349485
 20
4.950455139287519
 30
0.0
 10
-180.8064639228804
 20
8.370355098533231
 30
0.0
 10
-178.0289220370157
 20
9.488629360117098
 30
0.0
 10
-178.0289220370157
 20
9.488629360117098
 30
0.0
 10
-175.5332095330695
 20
10.49334767252213
 30
0.0
 10
-175.5332095330695
 20
10.49334767252213
 30
0.0
 10
-175.5332095330695
 20
10.49334767252213
 30
0.0
 10
-170.0392536614045
 20
-3.153227072391319
 30
0.0
 10
-170.0392536614045
 20
-3.153227072391319
 30
0.0
 10
-170.0392536614045
 20
-3.153227072391319
 30
0.0
 10
-172.5348516936201
 20
-4.157945384796353
 30
0.0
 10
-172.5348516936201
 20
-4.157945384796353
 30
0.0
 10
-175.3125080512054
 20
-5.276219646380221
 30
0.0
 10
-178.574608740351
 20
-3.667949174674424
 30
0.0
 10
-179.8231518226622
 20
-0.5666812562818234
 30
0.0
  0
SPLINE
  5
80
330
79
100
AcDbEntity
  8
Layer 1
100
AcDbSpline
210
0.0
220
0.0
230
1.0
 70
    11
 71
     3
 72
    65
 73
    61
 74
     0
 42
0.0000000001
 43
0.0000000001
 40
0.0
 40
0.0
 40
0.0
 40
0.0
 40
1.0
 40
1.0
 40
1.0
 40
2.0
 40
2.0
 40
2.0
 40
3.0
 40
3.0
 40
3.0
 40
4.0
 40
4.0
 40
4.0
 40
5.0
 40
5.0
 40
5.0
 40
6.0
 40
6.0
 40
6.0
 40
7.0
 40
7.0
 40
7.0
 40
8.0
 40
8.0
 40
8.0
 40
9.0
 40
9.0
 40
9.0
 40
10.0
 40
10.0
 40
10.0
 40
11.0
 40
11.0
 40
11.0
 40
12.0
 40
12.0
 40
12.0
 40
13.0
 40
13.0
 40
13.0
 40
14.0
 40
14.0
 40
14.0
 40
15.0
 40
15.0
 40
15.0
 40
16.0
 40
16.0
 40
16.0
 40
17.0
 40
17.0
 40
17.0
 40
18.0
 40
18.0
 40
18.0
 40
19.0
 40
19.0
 40
19.0
 40
20.0
 40
20.0
 40
20.0
 40
20.0
 10
-91.29014892795087
 20
87.73434469185323
 30
0.0
 10
-91.29014892795087
 20
87.73434469185323
 30
0.0
 10
-101.5974690424404
 20
48.19157612824309
 30
0.0
 10
-101.5974690424404
 20
48.19157612824309
 30
0.0
 10
-109.3306635227676
 20
46.08272081204075
 30
0.0
 10
-115.6717673801915
 20
44.26863018245621
 30
0.0
 10
-118.4448448688582
 20
43.46812942380538
 30
0.0
 10
-119.1257799128804
 20
43.68442374433732
 30
0.0
 10
-120.0052661603636
 20
43.97209118413051
 30
0.0
 10
-121.0360267897467
 20
44.32466409084599
 30
0.0
 10
-121.0360267897467
 20
44.32466409084599
 30
0.0
 10
-132.891462485526
 20
87.73434469185323
 30
0.0
 10
-132.891462485526
 20
87.73434469185323
 30
0.0
 10
-132.891462485526
 20
87.73434469185323
 30
0.0
 10
-203.4899516008845
 20
87.73434469185323
 30
0.0
 10
-203.4899516008845
 20
87.73434469185323
 30
0.0
 10
-203.4899516008845
 20
87.73434469185323
 30
0.0
 10
-203.4899516008845
 20
-81.1287891379488
 30
0.0
 10
-203.4899516008845
 20
-81.1287891379488
 30
0.0
 10
-203.4899516008845
 20
-81.1287891379488
 30
0.0
 10
-160.0538852677302
 20
-81.1287891379488
 30
0.0
 10
-160.0538852677302
 20
-81.1287891379488
 30
0.0
 10
-160.0538852677302
 20
-81.1287891379488
 30
0.0
 10
-160.0538852677302
 20
-20.06161632714432
 30
0.0
 10
-160.0538852677302
 20
-20.06161632714432
 30
0.0
 10
-160.0538852677302
 20
-20.06161632714432
 30
0.0
 10
-157.378852809771
 20
-26.70607025040956
 30
0.0
 10
-157.378852809771
 20
-26.70607025040956
 30
0.0
 10
-157.378852809771
 20
-26.70607025040956
 30
0.0
 10
-155.9780051000749
 20
-30.18566721317585
 30
0.0
 10
-155.9780051000749
 20
-30.18566721317585
 30
0.0
 10
-155.9780051000749
 20
-30.18566721317585
 30
0.0
 10
-152.4984081372977
 20
-28.78481950347269
 30
0.0
 10
-152.4984081372977
 20
-28.78481950347269
 30
0.0
 10
-152.4984081372977
 20
-28.78481950347269
 30
0.0
 10
-148.5059206198214
 20
-27.17740756969082
 30
0.0
 10
-148.5059206198214
 20
-27.17740756969082
 30
0.0
 10
-148.5059206198214
 20
-27.17740756969082
 30
0.0
 10
-133.9951988382968
 20
-81.1287891379488
 30
0.0
 10
-133.9951988382968
 20
-81.1287891379488
 30
0.0
 10
-133.9951988382968
 20
-81.1287891379488
 30
0.0
 10
-97.65632209270396
 20
-81.1287891379488
 30
0.0
 10
-97.65632209270396
 20
-81.1287891379488
 30
0.0
 10
-97.65632209270396
 20
-81.1287891379488
 30
0.0
 10
-74.61533922389579
 20
7.926490992763178
 30
0.0
 10
-74.61533922389579
 20
7.926490992763178
 30
0.0
 10
-74.01590804662295
 20
8.260862895523557
 30
0.0
 10
-73.41521768039875
 20
8.596837402407834
 30
0.0
 10
-72.81200893626922
 20
8.935215815470899
 30
0.0
 10
-72.81200893626922
 20
8.935215815470899
 30
0.0
 10
-72.81200893626922
 20
-81.1287891379488
 30
0.0
 10
-72.81200893626922
 20
-81.1287891379488
 30
0.0
 10
-72.81200893626922
 20
-81.1287891379488
 30
0.0
 10
-20.42671500980331
 20
-81.1287891379488
 30
0.0
 10
-20.42671500980331
 20
-81.1287891379488
 30
0.0
 10
-20.42671500980331
 20
-81.1287891379488
 30
0.0
 10
-20.42671500980331
 20
87.73434469185323
 30
0.0
 10
-20.42671500980331
 20
87.73434469185323
 30
0.0
 10
-20.42671500980331
 20
87.73434469185323
 30
0.0
 10
-91.29014892795087
 20
87.73434469185323
 30
0.0
 10
-91.29014892795087
 20
87.73434469185323
 30
0.0
  0
HATCH
  5
81
330
79
100
AcDbEntity
  8
Layer 1
 62
     7
440
 33554687
100
AcDbHatch
 10
0.0
 20
0.0
 30
0.0
210
0.0
220
0.0
230
1.0
  2
SOLID
 70
     1
 71
     1
 91
        4
 92
        1
 93
        1
 72
     4
 94
        3
 73
     0
 74
     0
 95
      569
 96
      565
 40
0.0
 40
0.0
 40
0.0
 40
0.0
 40
1.0
 40
1.0
 40
1.0
 40
2.0
 40
2.0
 40
2.0
 40
3.0
 40
3.0
 40
3.0
 40
4.0
 40
4.0
 40
4.0
 40
5.0
 40
5.0
 40
5.0
 40
6.0
 40
6.0
 40
6.0
 40
7.0
 40
7.0
 40
7.0
 40
8.0
 40
8.0
 40
8.0
 40
9.0
 40
9.0
 40
9.0
 40
10.0
 40
10.0
 40
10.0
 40
11.0
 40
11.0
 40
11.0
 40
12.0
 40
12.0
 40
12.0
 40
13.0
 40
13.0
 40
13.0
 40
14.0
 40
14.0
 40
14.0
 40
15.0
 40
15.0
 40
15.0
 40
16.0
 40
16.0
 40
16.0
 40
17.0
 40
17.0
 40
17.0
 40
18.0
 40
18.0
 40
18.0
 40
19.0
 40
19.0
 40
19.0
 40
20.0
 40
20.0
 40
20.0
 40
21.0
 40
21.0
 40
21.0
 40
22.0
 40
22.0
 40
22.0
 40
23.0
 40
23.0
 40
23.0
 40
24.0
 40
24.0
 40
24.0
 40
25.0
 40
25.0
 40
25.0
 40
26.0
 40
26.0
 40
26.0
 40
27.0
 40
27.0
 40
27.0
 40
28.0
 40
28.0
 40
28.0
 40
29.0
 40
29.0
 40
29.0
 40
30.0
 40
30.0
 40
30.0
 40
31.0
 40
31.0
 40
31.0
 40
32.0
 40
32.0
 40
32.0
 40
33.0
 40
33.0
 40
33.0
 40
34.0
 40
34.0
 40
34.0
 40
35.0
 40
35.0
 40
35.0
 40
36.0
 40
36.0
 40
36.0
 40
37.0
 40
37.0
 40
37.0
 40
38.0
 40
38.0
 40
38.0
 40
39.0
 40
39.0
 40
39.0
 40
40.0
 40
40.0
 40
40.0
 40
41.0
 40
41.0
 40
41.0
 40
42.0
 40
42.0
 40
42.0
 40
43.0
 40
43.0
 40
43.0
 40
44.0
 40
44.0
 40
44.0
 40
45.0
 40
45.0
 40
45.0
 40
46.0
 40
46.0
 40
46.0
 40
47.0
 40
47.0
 40
47.0
 40
48.0
 40
48.0
 40
48.0
 40
49.0
 40
49.0
 40
49.0
 40
50.0
 40
50.0
 40
50.0
 40
51.0
 40
51.0
 40
51.0
 40
52.0
 40
52.0
 40
52.0
 40
53.0
 40
53.0
 40
53.0
 40
54.0
 40
54.0
 40
54.0
 40
55.0
 40
55.0
 40
55.0
 40
56.0
 40
56.0
 40
56.0
 40
57.0
 40
57.0
 40
57.0
 40
58.0
 40
58.0
 40
58.0
 40
59.0
 40
59.0
 40
59.0
 40
60.0
 40
60.0
 40
60.0
 40
61.0
 40
61.0
 40
61.0
 40
62.0
 40
62.0
 40
62.0
 40
63.0
 40
63.0
 40
63.0
 40
64.0
 40
64.0
 40
64.0
 40
65.0
 40
65.0
 40
65.0
 40
66.0
 40
66.0
 40
66.0
 40
67.0
 40
67.0
 40
67.0
 40
68.0
 40
68.0
 40
68.0
 40
69.0
 40
69.0
 40
69.0
 40
70.0
 40
70.0
 40
70.0
 40
71.0
 40
71.0
 40
71.0
 40
72.0
 40
72.0
 40
72.0
 40
73.0
 40
73.0
 40
73.0
 40
74.0
 40
74.0
 40
74.0
 40
75.0
 40
75.0
 40
75.0
 40
76.0
 40
76.0
 40
76.0
 40
77.0
 40
77.0
 40
77.0
 40
78.0
 40
78.0
 40
78.0
 40
79.0
 40
79.0
 40
79.0
 40
80.0
 40
80.0
 40
80.0
 40
81.0
 40
81.0
 40
81.0
 40
82.0
 40
82.0
 40
82.0
 40
83.0
 40
83.0
 40
83.0
 40
84.0
 40
84.0
 40
84.0
 40
85.0
 40
85.0
 40
85.0
 40
86.0
 40
86.0
 40
86.0
 40
87.0
 40
87.0
 40
87.0
 40
88.0
 40
88.0
 40
88.0
 40
89.0
 40
89.0
 40
89.0
 40
90.0
 40
90.0
 40
90.0
 40
91.0
 40
91.0
 40
91.0
 40
92.0
 40
92.0
 40
92.0
 40
93.0
 40
93.0
 40
93.0
 40
94.0
 40
94.0
 40
94.0
 40
95.0
 40
95.0
 40
95.0
 40
96.0
 40
96.0
 40
96.0
 40
97.0
 40
97.0
 40
97.0
 40
98.0
 40
98.0
 40
98.0
 40
99.0
 40
99.0
 40
99.0
 40
100.0
 40
100.0
 40
100.0
 40
101.0
 40
101.0
 40
101.0
 40
102.0
 40
102.0
 40
102.0
 40
103.0
 40
103.0
 40
103.0
 40
104.0
 40
104.0
 40
104.0
 40
105.0
 40
105.0
 40
105.0
 40
106.0
 40
106.0
 40
106.0
 40
107.0
 40
107.0
 40
107.0
 40
108.0
 40
108.0
 40
108.0
 40
109.0
 40
109.0
 40
109.0
 40
110.0
 40
110.0
 40
110.0
 40
111.0
 40
111.0
 40
111.0
 40
112.0
 40
112.0
 40
112.0
 40
113.0
 40
113.0
 40
113.0
 40
114.0
 40
114.0
 40
114.0
 40
115.0
 40
115.0
 40
115.0
 40
116.0
 40
116.0
 40
116.0
 40
117.0
 40
117.0
 40
117.0
 40
118.0
 40
118.0
 40
118.0
 40
119.0
 40
119.0
 40
119.0
 40
120.0
 40
120.0
 40
120.0
 40
121.0
 40
121.0
 40
121.0
 40
122.0
 40
122.0
 40
122.0
 40
123.0
 40
123.0
 40
123.0
 40
124.0
 40
124.0
 40
124.0
 40
125.0
 40
125.0
 40
125.0
 40
126.0
 40
126.0
 40
126.0
 40
127.0
 40
127.0
 40
127.0
 40
128.0
 40
128.0
 40
128.0
 40
129.0
 40
129.0
 40
129.0
 40
130.0
 40
130.0
 40
130.0
 40
131.0
 40
131.0
 40
131.0
 40
132.0
 40
132.0
 40
132.0
 40
133.0
 40
133.0
 40
133.0
 40
134.0
 40
134.0
 40
134.0
 40
135.0
 40
135.0
 40
135.0
 40
136.0
 40
136.0
 40
136.0
 40
137.0
 40
137.0
 40
137.0
 40
138.0
 40
138.0
 40
138.0
 40
139.0
 40
139.0
 40
139.0
 40
140.0
 40
140.0
 40
140.0
 40
141.0
 40
141.0
 40
141.0
 40
142.0
 40
142.0
 40
142.0
 40
143.0
 40
143.0
 40
143.0
 40
144.0
 40
144.0
 40
144.0
 40
145.0
 40
145.0
 40
145.0
 40
146.0
 40
146.0
 40
146.0
 40
147.0
 40
147.0
 40
147.0
 40
148.0
 40
148.0
 40
148.0
 40
149.0
 40
149.0
 40
149.0
 40
150.0
 40
150.0
 40
150.0
 40
151.0
 40
151.0
 40
151.0
 40
152.0
 40
152.0
 40
152.0
 40
153.0
 40
153.0
 40
153.0
 40
154.0
 40
154.0
 40
154.0
 40
155.0
 40
155.0
 40
155.0
 40
156.0
 40
156.0
 40
156.0
 40
157.0
 40
157.0
 40
157.0
 40
158.0
 40
158.0
 40
158.0
 40
159.0
 40
159.0
 40
159.0
 40
160.0
 40
160.0
 40
160.0
 40
161.0
 40
161.0
 40
161.0
 40
162.0
 40
162.0
 40
162.0
 40
163.0
 40
163.0
 40
163.0
 40
164.0
 40
164.0
 40
164.0
 40
165.0
 40
165.0
 40
165.0
 40
166.0
 40
166.0
 40
166.0
 40
167.0
 40
167.0
 40
167.0
 40
168.0
 40
168.0
 40
168.0
 40
169.0
 40
169.0
 40
169.0
 40
170.0
 40
170.0
 40
170.0
 40
171.0
 40
171.0
 40
171.0
 40
172.0
 40
172.0
 40
172.0
 40
173.0
 40
173.0
 40
173.0
 40
174.0
 40
174.0
 40
174.0
 40
175.0
 40
175.0
 40
175.0
 40
176.0
 40
176.0
 40
176.0
 40
177.0
 40
177.0
 40
177.0
 40
178.0
 40
178.0
 40
178.0
 40
179.0
 40
179.0
 40
179.0
 40
180.0
 40
180.0
 40
180.0
 40
181.0
 40
181.0
 40
181.0
 40
182.0
 40
182.0
 40
182.0
 40
183.0
 40
183.0
 40
183.0
 40
184.0
 40
184.0
 40
184.0
 40
185.0
 40
185.0
 40
185.0
 40
186.0
 40
186.0
 40
186.0
 40
187.0
 40
187.0
 40
187.0
 40
188.0
 40
188.0
 40
188.0
 40
188.0
 10
-74.25635590069756
 20
12.4271757243229
 10
-75.66727712202326
 20
11.63497416558606
 10
-77.07155898341572
 20
10.85175863710698
 10
-78.45615170846023
 20
10.08376784777477
 10
-80.5330694139573
 20
8.931781663783523
 10
-82.56568656266983
 20
7.814079760815608
 10
-84.51021772056597
 20
6.751667700037493
 10
-85.80655274720937
 20
6.0434311500949
 10
-87.06373844460124
 20
5.359748784725617
 10
-88.26878227218527
 20
4.706916548691652
 10
-89.47376886390701
 20
4.054084312660895
 10
-90.62672805754614
 20
3.432044970104118
 10
-91.7143811332391
 20
2.847151701647876
 10
-92.80209144478694
 20
2.262201197329653
 10
-93.82455287425221
 20
1.714339531250626
 10
-94.76894458866354
 20
1.209805412310825
 10
-97.60200526016108
 20
-0.3038541803712022
 10
-99.73152272236024
 20
-1.427623084651921
 10
-100.8065266726569
 20
-1.992998924345487
 10
-101.3151817736288
 20
-2.260061454005434
 10
-101.5922605790442
 20
-2.404753711824355
 10
-101.5922605790442
 20
-2.404753711824355
 10
-102.884245680214
 20
-4.714678609404685
 10
-107.5361475578058
 20
-13.31499639113998
 10
-111.1318188476572
 20
-23.58505595980508
 10
-111.458692852562
 20
-24.51868733225492
 10
-111.7768670065218
 20
-25.46611254732202
 10
-112.0829643937174
 20
-26.42389745331386
 10
-112.3891190167688
 20
-27.38168235930892
 10
-112.683082401326
 20
-28.34976972036868
 10
-112.9617638108672
 20
-29.32472538480639
 10
-113.5888399092381
 20
-31.51834701186107
 10
-114.1381324718544
 20
-33.74676804269177
 10
-114.5718085942764
 20
-35.97026678943964
 10
-114.7163863803749
 20
-36.71147119559414
 10
-114.8480860976375
 20
-37.45204600727777
 10
-114.9655913212532
 20
-38.19067479966561
 10
-114.974806294955
 20
-38.25123034111012
 10
-114.9865396465574
 20
-38.31138523152333
 10
-114.9996466588344
 20
-38.37176906538702
 10
-115.0220258806791
 20
-38.47445020087814
 10
-115.0757131187437
 20
-38.6922326538081
 10
-115.1840606045231
 20
-39.00445427817781
 10
-115.2924653261673
 20
-39.31673313840693
 10
-115.4554730596602
 20
-39.72339393421575
 10
-115.696664979935
 20
-40.20411793478221
 10
-115.8573832789692
 20
-40.52458152320329
 10
-116.0529009817823
 20
-40.87795573197687
 10
-116.2900291558877
 20
-41.25805908806231
 10
-116.5271573299925
 20
-41.63816244414391
 10
-116.8058959753995
 20
-42.04505218340066
 10
-117.1332278671953
 20
-42.47271854037402
 10
-117.3514682070237
 20
-42.75775313054178
 10
-117.5912292307593
 20
-43.05205993026629
 10
-117.8546859011486
 20
-43.35375015612467
 10
-118.3815992419205
 20
-43.95713060783693
 10
-119.003066225869
 20
-44.59004476407435
 10
-119.7355707810731
 20
-45.23818365946572
 10
-120.1018230586845
 20
-45.56225310716204
 10
-120.4957774932482
 20
-45.89010012171634
 10
-120.9196090475003
 20
-46.21995039141878
 10
-121.6612141046858
 20
-46.79717405443831
 10
-122.4941675967878
 20
-47.38052195463263
 10
-123.4294015733628
 20
-47.9602639955562
 10
-124.3646355499298
 20
-48.54006327234177
 10
-125.4022072468251
 20
-49.11619945399395
 10
-126.5530487135895
 20
-49.67917138750166
 10
-127.2106887619926
 20
-50.00089416487476
 10
-127.9053031769049
 20
-50.31820978091772
 10
-128.6389524493441
 20
-50.62945839564147
 10
-128.8369312942017
 20
-50.71359511201588
 10
-129.0413205555448
 20
-50.77649732378361
 10
-129.2489722609873
 20
-50.81873738955548
 10
-129.3130191899789
 20
-50.83172993010823
 10
-129.3785542513763
 20
-50.82972667495688
 10
-129.4431735389896
 20
-50.83876994107342
 10
-129.5876940892239
 20
-50.85903143603477
 10
-129.7322146394575
 20
-50.88204025235001
 10
-129.8778226710604
 20
-50.88232643165928
 10
-130.0128993041516
 20
-50.88261261096532
 10
-130.1469456917385
 20
-50.86092021946408
 10
-130.2812210227662
 20
-50.84397840446871
 10
-130.3543684537389
 20
-50.83476343076752
 10
-130.4283171867658
 20
-50.83670945006009
 10
-130.5008350232609
 20
-50.82240048468886
 10
-130.7064262376949
 20
-50.7818202589003
 10
-130.9089839514713
 20
-50.72115024573055
 10
-131.1053601922028
 20
-50.63970361484739
 10
-131.8948716654542
 20
-50.31145594926501
 10
-132.5204023955555
 20
-49.67997268956361
 10
-132.8398357384699
 20
-48.8865119418754
 10
-132.8398357384699
 20
-48.8865119418754
 10
-138.6311319105306
 20
-34.50165181974214
 10
-138.6311319105306
 20
-34.50165181974214
 10
-138.6311319105306
 20
-34.50165181974214
 10
-143.9246477952932
 20
-21.35325801314706
 10
-143.9246477952932
 20
-21.35325801314706
 10
-143.9246477952932
 20
-21.35325801314706
 10
-143.9467408378312
 20
-21.29836882198727
 10
-143.9467408378312
 20
-21.29836882198727
 10
-143.9467408378312
 20
-21.29836882198727
 10
-149.4871722290221
 20
-23.52896481555654
 10
-149.4871722290221
 20
-23.52896481555654
 10
-149.4871722290221
 20
-23.52896481555654
 10
-153.8992558470044
 20
-25.30522254070319
 10
-153.8992558470044
 20
-25.30522254070319
 10
-153.8992558470044
 20
-25.30522254070319
 10
-160.0538852677302
 20
-10.01786735476531
 10
-160.0538852677302
 20
-10.01786735476531
 10
-160.0538852677302
 20
-10.01786735476531
 10
-172.0889843326942
 20
19.87567902964776
 10
-172.0889843326942
 20
19.87567902964776
 10
-172.0889843326942
 20
19.87567902964776
 10
-162.1363548517909
 20
23.88253274835919
 10
-162.1363548517909
 20
23.88253274835919
 10
-162.1363548517909
 20
23.88253274835919
 10
-167.4299852082836
 20
37.03104102668336
 10
-167.4299852082836
 20
37.03104102668336
 10
-167.4299852082836
 20
37.03104102668336
 10
-173.2213386161997
 20
51.41613009225941
 10
-173.2213386161997
 20
51.41613009225941
 10
-173.3011254070993
 20
51.61439511642412
 10
-173.360078344425
 20
51.8186126701828
 10
-173.3984263716191
 20
52.02569201701292
 10
-173.4367743988126
 20
52.23277136384752
 10
-173.4542885724226
 20
52.44276973961232
 10
-173.4511978359007
 20
52.65242470021295
 10
-173.4450163628659
 20
53.07173462141033
 10
-173.3563007775699
 20
53.49001429709913
 10
-173.1853944951957
 20
53.88190824064793
 10
-172.8428951001037
 20
54.66500929740883
 10
-172.1995640170766
 20
55.27897838349568
 10
-171.3998645604843
 20
55.58341593070409
 10
-170.7234511495249
 20
55.84132072252995
 10
-170.0726794045084
 20
56.06579977125001
 10
-169.4355297945165
 20
56.27379489186732
 10
-169.2418436392704
 20
56.33704051879987
 10
-169.0542244853388
 20
56.39313166304841
 10
-168.864201425228
 20
56.45197012865082
 10
-168.4146709691777
 20
56.59122497962846
 10
-167.9741837792337
 20
56.71989119623535
 10
-167.5446858746933
 20
56.8357365798703
 10
-167.3548917580228
 20
56.88696267589222
 10
-167.1645252827398
 20
56.93887560225469
 10
-166.9786232046557
 20
56.98575177280591
 10
-166.4994445723566
 20
57.1065766763895
 10
-166.0333157164693
 20
57.21320708632326
 10
-165.5798932218336
 20
57.30673048397967
 10
-165.4814475400889
 20
57.32699197894488
 10
-165.3777361590837
 20
57.35286258833539
 10
-165.2804351945742
 20
57.37192213020737
 10
-164.7373813408592
 20
57.47849530428235
 10
-164.215161340717
 20
57.56434909649949
 10
-163.7098831555833
 20
57.6350926212873
 10
-163.5695408232315
 20
57.65472452177394
 10
-163.4365246811591
 20
57.66823218508643
 10
-163.2991586136085
 20
57.68528847180769
 10
-162.9312464960148
 20
57.73101992512891
 10
-162.5718052859252
 20
57.76948242404152
 10
-162.2246125501948
 20
57.79798588305747
 10
-162.0715638566012
 20
57.81057777258276
 10
-161.9200032954046
 20
57.82202494487808
 10
-161.7708466403869
 20
57.83141162616264
 10
-161.4264012260078
 20
57.85316125352651
 10
-161.0930595687522
 20
57.86672615269393
 10
-160.7697914231178
 20
57.8730793333192
 10
-160.6617301166448
 20
57.8751970601958
 10
-160.5488609978027
 20
57.88063446703387
 10
-160.4430891257887
 20
57.88120682564918
 10
-160.2896970170241
 20
57.88195089184851
 10
-160.1506138736276
 20
57.87370892779714
 10
-160.0021440489526
 20
57.87130502161129
 10
-159.6289662321081
 20
57.86523802029527
 10
-159.2654040399919
 20
57.85333296110668
 10
-158.9233625317922
 20
57.82940837101195
 10
-158.7584660148669
 20
57.817903962854
 10
-158.6010101599409
 20
57.8027364595627
 10
-158.4432681257095
 20
57.78756895626752
 10
-158.1442679853417
 20
57.75877931794553
 10
-157.856085422792
 20
57.72523910311896
 10
-157.5825552407815
 20
57.68528847180769
 10
-157.4413543705116
 20
57.66462632581183
 10
-157.2988943112856
 20
57.64465101015588
 10
-157.1645045085371
 20
57.62152772211925
 10
-156.8802139845632
 20
57.57259106055407
 10
-156.6133231624895
 20
57.5182742280096
 10
-156.359024229937
 20
57.46052324377838
 10
-156.2673896157141
 20
57.43968939019787
 10
-156.1672268581231
 20
57.42114497107859
 10
-156.079484282476
 20
57.39939534371857
 10
-155.7495195410503
 20
57.31777700524755
 10
-155.4431359745486
 20
57.23112191096909
 10
-155.1676025373846
 20
57.14212014636743
 10
-155.1127705820848
 20
57.12443426516887
 10
-155.0688706763335
 20
57.10646220466746
 10
-155.0161564479078
 20
57.08866185174752
 10
-154.79946147635
 20
57.01534271318984
 10
-154.5957590453485
 20
56.94162292360537
 10
-154.4150654306594
 20
56.86910508710965
 10
-154.3367095362914
 20
56.83762536329961
 10
-154.2671107287323
 20
56.80734759257575
 10
-154.1955086660212
 20
56.77661193496182
 10
-154.0602603253437
 20
56.71851753555873
 10
-153.9314224011531
 20
56.6615106175262
 10
-153.8200986505822
 20
56.60782337945966
 10
-153.7602299394728
 20
56.57891926941243
 10
-153.7005901718129
 20
56.55035857453386
 10
-153.6475897640808
 20
56.52328601205395
 10
-153.545080336175
 20
56.47085796293878
 10
-153.4536174295297
 20
56.42203577309565
 10
-153.3768641392865
 20
56.37847928251299
 10
-153.3452127078851
 20
56.36050722200838
 10
-153.3060633786374
 20
56.3396733684285
 10
-153.2787618727137
 20
56.32353285549058
 10
-153.1894739288067
 20
56.27064691948599
 10
-153.1139225916536
 20
56.22348456962552
 10
-153.0720259410459
 20
56.19538176164024
 10
-153.0209715526118
 20
56.16138365991974
 10
-152.9704895227789
 20
56.12538230304791
 10
-152.9220679839751
 20
56.08846517239657
 10
-152.1267184528595
 20
55.48685903238839
 10
-151.310649539881
 20
54.90030592394626
 10
-150.4786690574188
 20
54.32886308294054
 10
-150.0626788161932
 20
54.04319889829804
 10
-149.6427393005159
 20
53.76119780878636
 10
-149.2193656331552
 20
53.48314599372116
 10
-147.1026117680714
 20
52.09265797494532
 10
-144.9013205355752
 20
50.79769660897723
 10
-142.6904709142236
 20
49.60146710405957
 10
-140.9217683227903
 20
48.64442626426768
 10
-139.1469987300417
 20
47.75063105140771
 10
-137.4044529273069
 20
46.92162683374093
 10
-136.5332086438673
 20
46.50712472490819
 10
-135.6699773810401
 20
46.10887760073732
 10
-134.8196241870395
 20
45.72694269708518
 10
-133.1189177990479
 20
44.9631301256461
 10
-131.4697236863819
 20
44.26496708732221
 10
-129.9103326403809
 20
43.6341134220981
 10
-129.1306657353081
 20
43.31862935362247
 10
-128.3734352879361
 20
43.02002986428664
 10
-127.6434491106319
 20
42.73842942580883
 10
-126.5484698446706
 20
42.31602876808953
 10
-125.5147901863612
 20
41.93186166584262
 10
-124.5586651203471
 20
41.58672942112363
 10
-123.9212293310576
 20
41.35664125797763
 10
-123.3183067662334
 20
41.14389556085895
 10
-122.7545907665209
 20
40.94866403735032
 10
-122.1908747668164
 20
40.75343251384555
 10
-121.6664225680817
 20
40.57571516395209
 10
-121.1859847468178
 20
40.41574093111982
 10
-120.9385541176512
 20
40.33337852644883
 10
-120.7033719628252
 20
40.25588117000895
 10
-120.4805527540872
 20
40.18313439006659
 10
-120.2577335453498
 20
40.11038761012744
 10
-120.0471628109713
 20
40.04233417082768
 10
-119.8491267302481
 20
39.97885960044849
 10
-119.8491267302481
 20
39.97885960044849
 10
-119.849183966113
 20
39.9789168363079
 10
-119.849183966113
 20
39.9789168363079
 10
-119.6683758797037
 20
39.92099414449203
 10
-119.496324880095
 20
39.8662766609169
 10
-119.3376670720693
 20
39.81630975384636
 10
-119.168935752434
 20
39.76319487439512
 10
-119.0129680299034
 20
39.71448715627659
 10
-118.8704507348141
 20
39.67041554293419
 10
-118.7279334397328
 20
39.62628669373366
 10
-118.5988665721007
 20
39.58679394931246
 10
-118.4837652546641
 20
39.55176560209044
 10
-118.4837652546641
 20
39.55176560209044
 10
-118.4081566816461
 20
39.57362970117506
 10
-118.2633499521068
 20
39.61564082350029
 10
-118.1909465873321
 20
39.63664638466418
 10
-118.1012579923979
 20
39.66263146577352
 10
-117.9950282334916
 20
39.69342435925007
 10
-117.8888557104511
 20
39.72421725272662
 10
-117.7661420234402
 20
39.75976072270454
 10
-117.6277457103755
 20
39.79982582574104
 10
-117.2621802631163
 20
39.90548322603204
 10
-116.7847187066545
 20
40.04313547288963
 10
-116.2065792698532
 20
40.20906223531651
 10
-115.2430135418495
 20
40.48562591798306
 10
-113.9999078663758
 20
40.84077443846455
 10
-112.5294041132554
 20
41.25733703830805
 10
-111.5882748429509
 20
41.52394168108179
 10
-110.5540228260188
 20
41.81567286703964
 10
-109.4403274333581
 20
42.12806619899336
 10
-107.4261974679009
 20
42.69304138765628
 10
-105.1425438307389
 20
43.32778709146039
 10
-102.689758222914
 20
44.00122423762375
 10
-101.0737609099024
 20
44.44485939994716
 10
-99.38982462932221
 20
44.90406271659703
 10
-97.64166971216502
 20
45.37562897932494
 10
-96.174485639009
 20
45.77135772559176
 10
-94.66895353865886
 20
46.17429819040844
 10
-93.13875278200537
 20
46.57981426898793
 10
-80.13184602498848
 20
50.02678679071355
 10
-65.34141258841376
 20
53.66395408013716
 10
-57.17431304221706
 20
54.72510695196006
 10
-57.17431304221706
 20
54.72510695196006
 10
-57.17706036356774
 20
54.72310369680871
 10
-57.17706036356774
 20
54.72310369680871
 10
-56.50722907667577
 20
54.83110776741973
 10
-55.84901666966442
 20
54.92365815543339
 10
-55.20150736874906
 20
55.0029870594406
 10
-54.63601705733474
 20
55.0722424518336
 10
-54.08180221063173
 20
55.12816188849813
 10
-53.53353989352141
 20
55.17721302178468
 10
-53.36240466769859
 20
55.19255223266066
 10
-53.19401676322645
 20
55.20520135804858
 10
-53.02459861324763
 20
55.21865178549461
 10
-52.61833846846882
 20
55.25099004723243
 10
-52.21705784363738
 20
55.27829155315898
 10
-51.82064226703256
 20
55.30038459568767
 10
-51.66290023279506
 20
55.30914168249494
 10
-51.50435689649818
 20
55.31887177894817
 10
-51.34816023052132
 20
55.32608349749416
 10
-50.81661078496295
 20
55.35069491792945
 10
-50.29118557658385
 20
55.36946828049217
 10
-49.77789437083806
 20
55.3770806500733
 10
-49.7744602191494
 20
55.37696617834805
 10
-49.77085435987544
 20
55.37730959351609
 10
-49.76707679301811
 20
55.37685170662282
 10
-49.38771750313455
 20
55.38240358518934
 10
-49.01877514003837
 20
55.37931284866743
 10
-48.64983277694347
 20
55.37622211214873
 10
-48.41734070761548
 20
55.37427609285679
 10
-48.18627953482224
 20
55.37124259220007
 10
-47.95796568338222
 20
55.36603412880542
 10
-47.71133635626894
 20
55.36036777851686
 10
-47.46774052981302
 20
55.35258370135876
 10
-47.2260907226471
 20
55.3433114917956
 10
-47.0020695608184
 20
55.33478334843496
 10
-46.77902140863245
 20
55.32551113887885
 10
-46.55929293641443
 20
55.31400673072155
 10
-46.32279435678245
 20
55.30158654878027
 10
-46.08978716469986
 20
55.28699140410362
 10
-45.8582681050159
 20
55.27136601391903
 10
-45.64197378448652
 20
55.25671363337977
 10
-45.42619458670984
 20
55.24177507353124
 10
-45.21430742751253
 20
55.22448984336719
 10
-44.98862642569987
 20
55.2060598959693
 10
-44.76689469832985
 20
55.18551222169868
 10
-44.54636492404986
 20
55.16422048122874
 10
-44.33974346411047
 20
55.1443024014354
 10
-44.13335094761577
 20
55.12438432163887
 10
-43.93125112073303
 20
55.10211957152296
 10
-43.71421273400368
 20
55.07819498142758
 10
-43.50158150860833
 20
55.05220990031567
 10
-43.28980882113497
 20
55.02576693230921
 10
-43.0930891652309
 20
55.0012699835953
 10
-42.89619780174215
 20
54.97688750660665
 10
-42.70411425061807
 20
54.95033006687943
 10
-42.49783620584669
 20
54.9218266078667
 10
-42.29659491688532
 20
54.89131989369621
 10
-42.09569704309325
 20
54.86069870780368
 10
-41.90784894571847
 20
54.8320807770657
 10
-41.71925678214502
 20
54.80369178977115
 10
-41.53615926127226
 20
54.77329954732589
 10
-41.34144286051953
 20
54.7410185214507
 10
-41.15233557419275
 20
54.70690594800881
 10
-40.96299934441932
 20
54.6728506104289
 10
-40.78425174901985
 20
54.64068405627958
 10
-40.60424496466707
 20
54.60891815315644
 10
-40.43030518163225
 20
54.57537793833306
 10
-40.24623465111416
 20
54.53983446835194
 10
-40.06823112191403
 20
54.50274563011275
 10
-39.88959799823788
 20
54.46582849945756
 10
-39.72063773515042
 20
54.43085738809496
 10
-39.55001763208157
 20
54.39634416362498
 10
-39.38603688894404
 20
54.36028557089116
 10
-39.21186816246193
 20
54.32199477956257
 10
-39.04433879591179
 20
54.282559271004
 10
-38.87577918385626
 20
54.2431809983042
 10
-38.71901015926345
 20
54.20655004695892
 10
-38.56006617193592
 20
54.17043421836569
 10
-38.40827666729175
 20
54.13311643667985
 10
-38.24252161244888
 20
54.09236450330665
 10
-38.08420721959735
 20
54.05069679615009
 10
-37.92440469434782
 20
54.0092007965782
 10
-37.77954072894296
 20
53.97165407144893
 10
-37.63192944218806
 20
53.93427905390368
 10
-37.4919877608718
 20
53.89627444188114
 10
-37.33745093487697
 20
53.85420608369393
 10
-37.19092712949072
 20
53.8117943103342
 10
-37.04245730481318
 20
53.76943977284095
 10
-36.90829644550623
 20
53.73120621737562
 10
-36.77064419864801
 20
53.6929726619058
 10
-36.64146285929036
 20
53.6545673988526
 10
-36.4955114125175
 20
53.61118261585076
 10
-36.35825981669056
 20
53.56779783285212
 10
-36.21877602226629
 20
53.52447028570969
 10
-36.09915307177401
 20
53.48732421160787
 10
-35.9755236109784
 20
53.45000642992524
 10
-35.86070847285269
 20
53.41303206340808
 10
-35.71922142327514
 20
53.36741508181146
 10
-35.5875217060109
 20
53.32248493054834
 10
-35.45336084670395
 20
53.27738307170506
 10
-35.35119483396359
 20
53.24298431895711
 10
-35.24410653713591
 20
53.20829938689992
 10
-35.14617597814551
 20
53.17430128517941
 10
-35.00926779748598
 20
53.12679552015413
 10
-34.88317719464767
 20
53.08060617993899
 10
-34.75473992148871
 20
53.03413066041844
 10
-34.67060320511365
 20
53.00368118211057
 10
-34.58091461017591
 20
52.97254487346535
 10
-34.50044098893551
 20
52.94266775377279
 10
-34.3663946013506
 20
52.89292979014888
 10
-34.24419603709359
 20
52.84513784581434
 10
-34.12033763285199
 20
52.79723142975775
 10
-34.05600452455015
 20
52.77239106587197
 10
-33.98560441493037
 20
52.74629151304123
 10
-33.9241330997006
 20
52.72196627191135
 10
-33.7445842022411
 20
52.6509938036737
 10
-33.57631076949227
 20
52.58242524162446
 10
-33.42068646213072
 20
52.51723359539677
 10
-33.41439051736743
 20
52.514772453356
 10
-33.40826628018879
 20
52.51271196234204
 10
-33.40225651473412
 20
52.50939228237669
 10
-32.99645425684538
 20
52.33963071722857
 10
-32.67415912085633
 20
52.19270626081102
 10
-32.43811842811636
 20
52.07909307577406
 10
-32.42586995375909
 20
52.07325501790468
 10
-32.41190440355781
 20
52.06713078072669
 10
-32.40011381609381
 20
52.06180784560615
 10
-32.29354064201883
 20
52.00966597580088
 10
-32.20453887741907
 20
51.96599501349299
 10
-32.1367716174273
 20
51.93056601523711
 10
-32.12498102996266
 20
51.92507137253576
 10
-32.11479304661936
 20
51.91951949396923
 10
-32.10454782741472
 20
51.91413932299377
 10
-32.04736920179689
 20
51.88489179777466
 10
-31.99934831401635
 20
51.85959354700266
 10
-31.97719803562375
 20
51.84740230850802
 10
-31.80056816709831
 20
51.75233354259033
 10
-31.63515652742347
 20
51.64123873545739
 10
-31.48308084347326
 20
51.51709415190845
 10
-31.40907487458016
 20
51.45550836495921
 10
-31.33621362291769
 20
51.39128972837749
 10
-31.26558456985256
 20
51.32306458149692
 10
-31.1033209025584
 20
51.16303311279818
 10
-30.96028848472151
 20
50.98817755598
 10
-30.83705967495655
 20
50.8024471854786
 10
-30.83705967495655
 20
50.8024471854786
 10
-30.83700243909586
 20
50.8024471854786
 10
-30.83700243909586
 20
50.8024471854786
 10
-30.83700243909586
 20
50.8024471854786
 10
-30.77719096385004
 20
50.82648624730243
 10
-30.77719096385004
 20
50.82648624730243
 10
-30.7374692759822
 20
50.72786885797277
 10
-30.71795184721825
 20
50.62152462734442
 10
-30.68841814269564
 20
50.51953032218679
 10
-30.63879465079312
 20
50.4248622073036
 10
-30.57921211899202
 20
50.33465848960933
 10
-30.53949043112611
 20
50.23604110027966
 10
-30.53949043112611
 20
50.23604110027966
 10
-30.59930190637257
 20
50.21194480259706
 10
-30.59930190637257
 20
50.21194480259706
 10
-30.55946574678206
 20
49.99255974555026
 10
-30.54149368627874
 20
49.7675083382117
 10
-30.54756068759475
 20
49.53965237366368
 10
-30.55122378272877
 20
49.44143563536467
 10
-30.55912233161403
 20
49.34424914257425
 10
-30.56993990943334
 20
49.24900866907318
 10
-30.59357832022395
 20
49.05412056073323
 10
-30.63587562185715
 20
48.85940415998434
 10
-30.69723246536297
 20
48.66812191091963
 10
-30.70484483494026
 20
48.64431179254244
 10
-30.7218438857989
 20
48.59245610204258
 10
-30.74279221110018
 20
48.53172885301407
 10
-30.74662701381948
 20
48.52108298277748
 10
-30.75011840136948
 20
48.51009369737544
 10
-30.75464003442615
 20
48.49750180785014
 10
-30.77919421900074
 20
48.42572803755374
 10
-30.81290614141197
 20
48.3318612247293
 10
-30.8540014899545
 20
48.22145324793628
 10
-30.8585803588725
 20
48.2089185942704
 10
-30.86424670915978
 20
48.19432344959375
 10
-30.86899728566244
 20
48.18167432420904
 10
-30.91467150312297
 20
48.0593040523648
 10
-30.9701330528955
 20
47.91581374763527
 10
-31.03589705773529
 20
47.75269154242104
 10
-31.10171829843707
 20
47.58951210134161
 10
-31.17784199420483
 20
47.4066435239155
 10
-31.26489773951393
 20
47.2053449990947
 10
-31.26850359878725
 20
47.19784710123945
 10
-31.27096474082994
 20
47.19074985441485
 10
-31.2747995435499
 20
47.18308024897878
 10
-31.6161542214122
 20
46.39471349296383
 10
-32.12486655824063
 20
45.33006923358772
 10
-32.84317661980449
 20
44.07059410173815
 10
-33.13050064443029
 20
43.56680404899767
 10
-33.45136488388266
 20
43.03187768761262
 10
-33.80851665951357
 20
42.47096624511438
 10
-34.1656684351432
 20
41.91005480261998
 10
-34.55905051109065
 20
41.32315827900983
 10
-34.99141020870533
 20
40.71559960940702
 10
-35.20759005751138
 20
40.41179165667655
 10
-35.43350000277067
 20
40.10277524055079
 10
-35.66948345964995
 20
39.78929442722522
 10
-36.14150760926855
 20
39.16227556472364
 10
-36.653883041231
 20
38.51711293412894
 10
-37.2091853693033
 20
37.85901499884091
 10
-38.31990449716929
 20
36.54287636412427
 10
-39.60267462464209
 20
35.1751109823544
 10
-41.07930261494561
 20
33.79738656068788
 10
-41.08182099285094
 20
33.79486818278448
 10
-41.08445384247764
 20
33.7919491538498
 10
-41.0868005127983
 20
33.78937354007994
 10
-41.4618098772105
 20
33.43971966230621
 10
-41.85318869800533
 20
33.08943619005134
 10
-42.25303842630009
 20
32.73915271779968
 10
-42.3711160085311
 20
32.63578475196864
 10
-42.49257050659134
 20
32.53258849372161
 10
-42.61288028742033
 20
32.42910605616533
 10
-42.91560075878344
 20
32.16896906574211
 10
-43.22559018455517
 20
31.90923272634956
 10
-43.54267685715085
 20
31.64966809454166
 10
-43.67117136617116
 20
31.54446858114392
 10
-43.79840668623944
 20
31.43938353946695
 10
-43.92936233730372
 20
31.33429849779062
 10
-44.35634186393909
 20
30.99168463097566
 10
-44.79247912841111
 20
30.64975759450061
 10
-45.24567267960438
 20
30.30977657731365
 10
-45.77104065212149
 20
29.91553596344162
 10
-46.31323596791452
 20
29.52329860472479
 10
-46.87506318419482
 20
29.13432369011388
 10
-46.87506318419482
 20
29.13432369011388
 10
-46.87500594833349
 20
29.13432369011388
 10
-46.87500594833349
 20
29.13432369011388
 10
-46.87500594833349
 20
29.13432369011388
 10
-46.87506318419482
 20
29.13426645425126
 10
-46.87506318419482
 20
29.13426645425126
 10
-46.87506318419482
 20
29.13426645425126
 10
-46.87157179664483
 20
29.13432369011388
 10
-46.87157179664483
 20
29.13432369011388
 10
-47.26134801331833
 20
28.84642730687405
 10
-47.6737896311384
 20
28.54902977062763
 10
-48.10735128184375
 20
28.24298961929532
 10
-48.97447458325318
 20
27.63085208077516
 10
-49.92590630862361
 20
26.98408684606041
 10
-50.94871115325849
 20
26.30876091646774
 10
-51.97151599789209
 20
25.63349222273706
 10
-53.06563672592881
 20
24.92966283412396
 10
-54.21813803267532
 20
24.20368316712083
 10
-55.37063933942055
 20
23.47764626425764
 10
-56.5815212248762
 20
22.7295163188632
 10
-57.83767667676109
 20
21.96530309639026
 10
-59.09388936450666
 20
21.20108987392052
 10
-60.39537561868403
 20
20.42096508195692
 10
-61.72925737045801
 20
19.63099572182127
 10
-63.06313912223198
 20
18.84108359754567
 10
-64.42935913574121
 20
18.04138414096064
 10
-65.81492487043101
 20
17.23825053268116
 10
-66.96444991238021
 20
16.57191063333856
 10
-68.12725367419206
 20
15.9033957712638
 10
-69.29583825801451
 20
15.23614009813784
 10
-70.46448007769765
 20
14.56882718915248
 10
-71.63890271939012
 20
13.90271623325651
 10
-72.81200893626922
 20
13.24095520283126
 10
-72.9792521235114
 20
13.14663050311354
 10
-73.14626636730757
 20
13.05253474684182
 10
-73.31339508282706
 20
12.95843899057073
 10
-73.62773443407144
 20
12.7814084710172
 10
-73.94253167220651
 20
12.60334770595508
 10
-74.25635590069756
 20
12.4271757243229
 97
        0
 97
        1
330
7D
 92
        1
 93
        1
 72
     4
 94
        3
 73
     0
 74
     0
 95
       23
 96
       19
 40
0.0
 40
0.0
 40
0.0
 40
0.0
 40
1.0
 40
1.0
 40
1.0
 40
2.0
 40
2.0
 40
2.0
 40
3.0
 40
3.0
 40
3.0
 40
4.0
 40
4.0
 40
4.0
 40
5.0
 40
5.0
 40
5.0
 40
6.0
 40
6.0
 40
6.0
 40
6.0
 10
-165.4456178907953
 20
-21.76672987647187
 10
-168.2232742483916
 20
-22.88494690219247
 10
-171.4854894092573
 20
-21.27650472290266
 10
-172.7341469632879
 20
-18.17506509692604
 10
-172.7341469632879
 20
-18.17506509692604
 10
-173.7064697781027
 20
-15.75959727077995
 10
-173.7064697781027
 20
-15.75959727077995
 10
-174.955127332134
 20
-12.65832935238799
 10
-173.7172301200556
 20
-9.238429393141636
 10
-170.9396882341907
 20
-8.120155131561618
 10
-170.9396882341907
 20
-8.120155131561618
 10
-168.443975730255
 20
-7.115379583293963
 10
-168.443975730255
 20
-7.115379583293963
 10
-168.443975730255
 20
-7.115379583293963
 10
-162.9500198585801
 20
-20.76195432820357
 10
-162.9500198585801
 20
-20.76195432820357
 10
-162.9500198585801
 20
-20.76195432820357
 10
-165.4456178907953
 20
-21.76672987647187
 10
-165.4456178907953
 20
-21.76672987647187
 97
        0
 97
        1
330
7E
 92
        1
 93
        1
 72
     4
 94
        3
 73
     0
 74
     0
 95
       23
 96
       19
 40
0.0
 40
0.0
 40
0.0
 40
0.0
 40
1.0
 40
1.0
 40
1.0
 40
2.0
 40
2.0
 40
2.0
 40
3.0
 40
3.0
 40
3.0
 40
4.0
 40
4.0
 40
4.0
 40
5.0
 40
5.0
 40
5.0
 40
6.0
 40
6.0
 40
6.0
 40
6.0
 10
-179.8231518226622
 20
-0.5666812562818234
 10
-179.8231518226622
 20
-0.5666812562818234
 10
-180.7957035809172
 20
1.848786569864264
 10
-180.7957035809172
 20
1.848786569864264
 10
-182.0443611349485
 20
4.950455139287519
 10
-180.8064639228804
 20
8.370355098533231
 10
-178.0289220370157
 20
9.488629360117098
 10
-178.0289220370157
 20
9.488629360117098
 10
-175.5332095330695
 20
10.49334767252213
 10
-175.5332095330695
 20
10.49334767252213
 10
-175.5332095330695
 20
10.49334767252213
 10
-170.0392536614045
 20
-3.153227072391319
 10
-170.0392536614045
 20
-3.153227072391319
 10
-170.0392536614045
 20
-3.153227072391319
 10
-172.5348516936201
 20
-4.157945384796353
 10
-172.5348516936201
 20
-4.157945384796353
 10
-175.3125080512054
 20
-5.276219646380221
 10
-178.574608740351
 20
-3.667949174674424
 10
-179.8231518226622
 20
-0.5666812562818234
 97
        0
 97
        1
330
7F
 92
        1
 93
        1
 72
     4
 94
        3
 73
     0
 74
     0
 95
       65
 96
       61
 40
0.0
 40
0.0
 40
0.0
 40
0.0
 40
1.0
 40
1.0
 40
1.0
 40
2.0
 40
2.0
 40
2.0
 40
3.0
 40
3.0
 40
3.0
 40
4.0
 40
4.0
 40
4.0
 40
5.0
 40
5.0
 40
5.0
 40
6.0
 40
6.0
 40
6.0
 40
7.0
 40
7.0
 40
7.0
 40
8.0
 40
8.0
 40
8.0
 40
9.0
 40
9.0
 40
9.0
 40
10.0
 40
10.0
 40
10.0
 40
11.0
 40
11.0
 40
11.0
 40
12.0
 40
12.0
 40
12.0
 40
13.0
 40
13.0
 40
13.0
 40
14.0
 40
14.0
 40
14.0
 40
15.0
 40
15.0
 40
15.0
 40
16.0
 40
16.0
 40
16.0
 40
17.0
 40
17.0
 40
17.0
 40
18.0
 40
18.0
 40
18.0
 40
19.0
 40
19.0
 40
19.0
 40
20.0
 40
20.0
 40
20.0
 40
20.0
 10
-91.29014892795087
 20
87.73434469185323
 10
-91.29014892795087
 20
87.73434469185323
 10
-101.5974690424404
 20
48.19157612824309
 10
-101.5974690424404
 20
48.19157612824309
 10
-109.3306635227676
 20
46.08272081204075
 10
-115.6717673801915
 20
44.26863018245621
 10
-118.4448448688582
 20
43.46812942380538
 10
-119.1257799128804
 20
43.68442374433732
 10
-120.0052661603636
 20
43.97209118413051
 10
-121.0360267897467
 20
44.32466409084599
 10
-121.0360267897467
 20
44.32466409084599
 10
-132.891462485526
 20
87.73434469185323
 10
-132.891462485526
 20
87.73434469185323
 10
-132.891462485526
 20
87.73434469185323
 10
-203.4899516008845
 20
87.73434469185323
 10
-203.4899516008845
 20
87.73434469185323
 10
-203.4899516008845
 20
87.73434469185323
 10
-203.4899516008845
 20
-81.1287891379488
 10
-203.4899516008845
 20
-81.1287891379488
 10
-203.4899516008845
 20
-81.1287891379488
 10
-160.0538852677302
 20
-81.1287891379488
 10
-160.0538852677302
 20
-81.1287891379488
 10
-160.0538852677302
 20
-81.1287891379488
 10
-160.0538852677302
 20
-20.06161632714432
 10
-160.0538852677302
 20
-20.06161632714432
 10
-160.0538852677302
 20
-20.06161632714432
 10
-157.378852809771
 20
-26.70607025040956
 10
-157.378852809771
 20
-26.70607025040956
 10
-157.378852809771
 20
-26.70607025040956
 10
-155.9780051000749
 20
-30.18566721317585
 10
-155.9780051000749
 20
-30.18566721317585
 10
-155.9780051000749
 20
-30.18566721317585
 10
-152.4984081372977
 20
-28.78481950347269
 10
-152.4984081372977
 20
-28.78481950347269
 10
-152.4984081372977
 20
-28.78481950347269
 10
-148.5059206198214
 20
-27.17740756969082
 10
-148.5059206198214
 20
-27.17740756969082
 10
-148.5059206198214
 20
-27.17740756969082
 10
-133.9951988382968
 20
-81.1287891379488
 10
-133.9951988382968
 20
-81.1287891379488
 10
-133.9951988382968
 20
-81.1287891379488
 10
-97.65632209270396
 20
-81.1287891379488
 10
-97.65632209270396
 20
-81.1287891379488
 10
-97.65632209270396
 20
-81.1287891379488
 10
-74.61533922389579
 20
7.926490992763178
 10
-74.61533922389579
 20
7.926490992763178
 10
-74.01590804662295
 20
8.260862895523557
 10
-73.41521768039875
 20
8.596837402407834
 10
-72.81200893626922
 20
8.935215815470899
 10
-72.81200893626922
 20
8.935215815470899
 10
-72.81200893626922
 20
-81.1287891379488
 10
-72.81200893626922
 20
-81.1287891379488
 10
-72.81200893626922
 20
-81.1287891379488
 10
-20.42671500980331
 20
-81.1287891379488
 10
-20.42671500980331
 20
-81.1287891379488
 10
-20.42671500980331
 20
-81.1287891379488
 10
-20.42671500980331
 20
87.73434469185323
 10
-20.42671500980331
 20
87.73434469185323
 10
-20.42671500980331
 20
87.73434469185323
 10
-91.29014892795087
 20
87.73434469185323
 10
-91.29014892795087
 20
87.73434469185323
 97
        0
 97
        1
330
80
 75
     2
 76
     1
 98
        1
 10
0.0
 20
0.0
450
        0
451
        0
460
0.0
461
0.0
452
        0
462
0.0
453
        0
470

  0
SPLINE
  5
82
330
79
100
AcDbEntity
  8
Layer 1
100
AcDbSpline
210
0.0
220
0.0
230
1.0
 70
     9
 71
     3
 72
   107
 73
   103
 74
     0
 42
0.0000000001
 43
0.0000000001
 40
0.0
 40
0.0
 40
0.0
 40
0.0
 40
1.0
 40
1.0
 40
1.0
 40
2.0
 40
2.0
 40
2.0
 40
3.0
 40
3.0
 40
3.0
 40
4.0
 40
4.0
 40
4.0
 40
5.0
 40
5.0
 40
5.0
 40
6.0
 40
6.0
 40
6.0
 40
7.0
 40
7.0
 40
7.0
 40
8.0
 40
8.0
 40
8.0
 40
9.0
 40
9.0
 40
9.0
 40
10.0
 40
10.0
 40
10.0
 40
11.0
 40
11.0
 40
11.0
 40
12.0
 40
12.0
 40
12.0
 40
13.0
 40
13.0
 40
13.0
 40
14.0
 40
14.0
 40
14.0
 40
15.0
 40
15.0
 40
15.0
 40
16.0
 40
16.0
 40
16.0
 40
17.0
 40
17.0
 40
17.0
 40
18.0
 40
18.0
 40
18.0
 40
19.0
 40
19.0
 40
19.0
 40
20.0
 40
20.0
 40
20.0
 40
21.0
 40
21.0
 40
21.0
 40
22.0
 40
22.0
 40
22.0
 40
23.0
 40
23.0
 40
23.0
 40
24.0
 40
24.0
 40
24.0
 40
25.0
 40
25.0
 40
25.0
 40
26.0
 40
26.0
 40
26.0
 40
27.0
 40
27.0
 40
27.0
 40
28.0
 40
28.0
 40
28.0
 40
29.0
 40
29.0
 40
29.0
 40
30.0
 40
30.0
 40
30.0
 40
31.0
 40
31.0
 40
31.0
 40
32.0
 40
32.0
 40
32.0
 40
33.0
 40
33.0
 40
33.0
 40
34.0
 40
34.0
 40
34.0
 40
34.0
 10
-62.92405597883708
 20
43.07142766789258
 30
0.0
 10
-62.92405597883708
 20
43.07142766789258
 30
0.0
 10
-62.94706479515232
 20
43.06175480730197
 30
0.0
 10
-62.94706479515232
 20
43.06175480730197
 30
0.0
 10
-62.94706479515232
 20
43.06175480730197
 30
0.0
 10
-62.55328206817421
 20
42.69916562483427
 30
0.0
 10
-62.02579636878179
 20
42.00901560711447
 30
0.0
 10
-61.92803751737541
 20
41.87828889949747
 30
0.0
 10
-61.82844711840171
 20
41.74750495601784
 30
0.0
 10
-61.737556570372
 20
41.61683548426026
 30
0.0
 10
-61.67179256553349
 20
41.52331208660385
 30
0.0
 10
-61.60379636209507
 20
41.42000135663158
 30
0.0
 10
-61.53597186624259
 20
41.31777810803052
 30
0.0
 10
-61.41737916125697
 20
41.13719896506501
 30
0.0
 10
-61.30393768380595
 20
40.95696323726431
 30
0.0
 10
-61.1975934531776
 20
40.77752881152878
 30
0.0
 10
-61.1613059169997
 20
40.71662985491561
 30
0.0
 10
-61.12547626771317
 20
40.66185513547785
 30
0.0
 10
-61.08918873153529
 20
40.59866674440857
 30
0.0
 10
-60.94890363505035
 20
40.35364002141404
 30
0.0
 10
-60.82080977705878
 20
40.11044484598684
 30
0.0
 10
-60.70158747759843
 20
39.86931016157683
 30
0.0
 10
-60.65339488223258
 20
39.77212366878319
 30
0.0
 10
-60.60726277787942
 20
39.66743927813752
 30
0.0
 10
-60.56004319215955
 20
39.56596009573579
 30
0.0
 10
-60.48758259152773
 20
39.40999237320556
 30
0.0
 10
-60.41615223640065
 20
39.25425359411877
 30
0.0
 10
-60.35187636396016
 20
39.10097595707981
 30
0.0
 10
-60.29881872036898
 20
38.97488535423893
 30
0.0
 10
-60.24839392640579
 20
38.84295669352932
 30
0.0
 10
-60.19774018899597
 20
38.71131421212833
 30
0.0
 10
-60.14720092331011
 20
38.57961449486538
 30
0.0
 10
-60.09637547831628
 20
38.44785754173979
 30
0.0
 10
-60.05144532705572
 20
38.31884790996486
 30
0.0
 10
-59.99644166417326
 20
38.16184994192606
 30
0.0
 10
-59.94527280401075
 20
37.99821261395592
 30
0.0
 10
-59.89461906660221
 20
37.83394569151234
 30
0.0
 10
-59.86182291797496
 20
37.72708633813131
 30
0.0
 10
-59.82605050454976
 20
37.61839543717973
 30
0.0
 10
-59.79674574347251
 20
37.51388275412192
 30
0.0
 10
-59.72388449181003
 20
37.2549477167881
 30
0.0
 10
-59.6561172318189
 20
36.98840030988084
 30
0.0
 10
-59.59636299243378
 20
36.71258069340977
 30
0.0
 10
-59.58096654569583
 20
36.64143651759131
 30
0.0
 10
-59.57100750579852
 20
36.57687446584476
 30
0.0
 10
-59.55715642731992
 20
36.50744736586774
 30
0.0
 10
-59.51606107877868
 20
36.30271468935637
 30
0.0
 10
-59.4796018350155
 20
36.0930597287596
 30
0.0
 10
-59.44686292224957
 20
35.87939825785694
 30
0.0
 10
-59.42871915416096
 20
35.75805823152129
 30
0.0
 10
-59.4100030274583
 20
35.63563072381827
 30
0.0
 10
-59.39632365656436
 20
35.52230371808672
 30
0.0
 10
-59.37629110504515
 20
35.36433274040579
 30
0.0
 10
-59.36272620587645
 20
35.20046646899287
 30
0.0
 10
-59.34778764602921
 20
35.03785938652812
 30
0.0
 10
-59.27761647985671
 20
34.17216698165665
 30
0.0
 10
-59.3273544434819
 20
33.63918663955967
 30
0.0
 10
-59.3273544434819
 20
33.63918663955967
 30
0.0
 10
-59.3273544434819
 20
33.63918663955967
 30
0.0
 10
-59.30377326855135
 20
33.64737136775227
 30
0.0
 10
-59.30377326855135
 20
33.64737136775227
 30
0.0
 10
-59.3718267078511
 20
33.07638641363276
 30
0.0
 10
-59.51886563599068
 20
32.5050008084858
 30
0.0
 10
-59.79102215732453
 20
31.97551185394204
 30
0.0
 10
-60.16849266378006
 20
31.33492809226855
 30
0.0
 10
-60.82653336320739
 20
30.28287572241776
 30
0.0
 10
-61.44387936512285
 20
29.62615144780314
 30
0.0
 10
-61.44387936512285
 20
29.62615144780314
 30
0.0
 10
-57.93904138744078
 20
28.99752998117766
 30
0.0
 10
-57.93646577367412
 20
28.99701485842497
 30
0.0
 10
-57.53295295024535
 20
28.9246687295139
 30
0.0
 10
-56.49664044230245
 20
30.00539626596402
 30
0.0
 10
-56.25201437034051
 20
30.23697256150867
 30
0.0
 10
-55.29669060639007
 20
31.14118470115858
 30
0.0
 10
-54.50683571797646
 20
32.36362823063544
 30
0.0
 10
-53.94157435000749
 20
33.71937408149146
 30
0.0
 10
-52.95070711607785
 20
36.09597875769749
 30
0.0
 10
-52.64998989986672
 20
38.88279285311855
 30
0.0
 10
-53.35805474222723
 20
41.08585839731784
 30
0.0
 10
-53.3916521929145
 20
41.16055119654892
 30
0.0
 10
-53.43085875802771
 20
41.2251704841581
 30
0.0
 10
-53.46577263353027
 20
41.29751661306916
 30
0.0
 10
-53.48820909122956
 20
41.37455608261961
 30
0.0
 10
-53.50234634901486
 20
41.44873375909416
 30
0.0
 10
-53.52741565634342
 20
41.5268034741532
 30
0.0
 10
-54.5967532563602
 20
43.90466733930805
 30
0.0
 10
-56.78848609998492
 20
45.62992791187877
 30
0.0
 10
-59.11546728428523
 20
46.68924923613498
 30
0.0
 10
-60.30780475062096
 20
47.23195967468133
 30
0.0
 10
-61.53190812007792
 20
47.60135992466759
 30
0.0
 10
-62.84884805685394
 20
47.64588942489941
 30
0.0
 10
-63.19958941599825
 20
47.657794484088
 30
0.0
 10
-64.75886599027752
 20
47.78016475593225
 30
0.0
 10
-65.02186477377474
 20
47.44115674838804
 30
0.0
 10
-65.02197924549742
 20
47.44109951252926
 30
0.0
 10
-67.20592801196083
 20
44.62566748636317
 30
0.0
 10
-67.20592801196083
 20
44.62566748636317
 30
0.0
 10
-66.30766840190554
 20
44.55097468713272
 30
0.0
 10
-65.11458686937112
 20
44.21019236788445
 30
0.0
 10
-64.4052628380586
 20
43.9870297439784
 30
0.0
 10
-63.84864408517358
 20
43.7761155944264
 30
0.0
 10
-63.35681632748176
 20
43.44987118399536
 30
0.0
 10
-62.92405597883708
 20
43.07142766789258
 30
0.0
  0
HATCH
  5
83
330
79
100
AcDbEntity
  8
Layer 1
 62
     7
440
 33554687
100
AcDbHatch
 10
0.0
 20
0.0
 30
0.0
210
0.0
220
0.0
230
1.0
  2
SOLID
 70
     1
 71
     1
 91
        1
 92
        1
 93
        1
 72
     4
 94
        3
 73
     0
 74
     0
 95
      107
 96
      103
 40
0.0
 40
0.0
 40
0.0
 40
0.0
 40
1.0
 40
1.0
 40
1.0
 40
2.0
 40
2.0
 40
2.0
 40
3.0
 40
3.0
 40
3.0
 40
4.0
 40
4.0
 40
4.0
 40
5.0
 40
5.0
 40
5.0
 40
6.0
 40
6.0
 40
6.0
 40
7.0
 40
7.0
 40
7.0
 40
8.0
 40
8.0
 40
8.0
 40
9.0
 40
9.0
 40
9.0
 40
10.0
 40
10.0
 40
10.0
 40
11.0
 40
11.0
 40
11.0
 40
12.0
 40
12.0
 40
12.0
 40
13.0
 40
13.0
 40
13.0
 40
14.0
 40
14.0
 40
14.0
 40
15.0
 40
15.0
 40
15.0
 40
16.0
 40
16.0
 40
16.0
 40
17.0
 40
17.0
 40
17.0
 40
18.0
 40
18.0
 40
18.0
 40
19.0
 40
19.0
 40
19.0
 40
20.0
 40
20.0
 40
20.0
 40
21.0
 40
21.0
 40
21.0
 40
22.0
 40
22.0
 40
22.0
 40
23.0
 40
23.0
 40
23.0
 40
24.0
 40
24.0
 40
24.0
 40
25.0
 40
25.0
 40
25.0
 40
26.0
 40
26.0
 40
26.0
 40
27.0
 40
27.0
 40
27.0
 40
28.0
 40
28.0
 40
28.0
 40
29.0
 40
29.0
 40
29.0
 40
30.0
 40
30.0
 40
30.0
 40
31.0
 40
31.0
 40
31.0
 40
32.0
 40
32.0
 40
32.0
 40
33.0
 40
33.0
 40
33.0
 40
34.0
 40
34.0
 40
34.0
 40
34.0
 10
-62.92405597883708
 20
43.07142766789258
 10
-62.92405597883708
 20
43.07142766789258
 10
-62.94706479515232
 20
43.06175480730197
 10
-62.94706479515232
 20
43.06175480730197
 10
-62.94706479515232
 20
43.06175480730197
 10
-62.55328206817421
 20
42.69916562483427
 10
-62.02579636878179
 20
42.00901560711447
 10
-61.92803751737541
 20
41.87828889949747
 10
-61.82844711840171
 20
41.74750495601784
 10
-61.737556570372
 20
41.61683548426026
 10
-61.67179256553349
 20
41.52331208660385
 10
-61.60379636209507
 20
41.42000135663158
 10
-61.53597186624259
 20
41.31777810803052
 10
-61.41737916125697
 20
41.13719896506501
 10
-61.30393768380595
 20
40.95696323726431
 10
-61.1975934531776
 20
40.77752881152878
 10
-61.1613059169997
 20
40.71662985491561
 10
-61.12547626771317
 20
40.66185513547785
 10
-61.08918873153529
 20
40.59866674440857
 10
-60.94890363505035
 20
40.35364002141404
 10
-60.82080977705878
 20
40.11044484598684
 10
-60.70158747759843
 20
39.86931016157683
 10
-60.65339488223258
 20
39.77212366878319
 10
-60.60726277787942
 20
39.66743927813752
 10
-60.56004319215955
 20
39.56596009573579
 10
-60.48758259152773
 20
39.40999237320556
 10
-60.41615223640065
 20
39.25425359411877
 10
-60.35187636396016
 20
39.10097595707981
 10
-60.29881872036898
 20
38.97488535423893
 10
-60.24839392640579
 20
38.84295669352932
 10
-60.19774018899597
 20
38.71131421212833
 10
-60.14720092331011
 20
38.57961449486538
 10
-60.09637547831628
 20
38.44785754173979
 10
-60.05144532705572
 20
38.31884790996486
 10
-59.99644166417326
 20
38.16184994192606
 10
-59.94527280401075
 20
37.99821261395592
 10
-59.89461906660221
 20
37.83394569151234
 10
-59.86182291797496
 20
37.72708633813131
 10
-59.82605050454976
 20
37.61839543717973
 10
-59.79674574347251
 20
37.51388275412192
 10
-59.72388449181003
 20
37.2549477167881
 10
-59.6561172318189
 20
36.98840030988084
 10
-59.59636299243378
 20
36.71258069340977
 10
-59.58096654569583
 20
36.64143651759131
 10
-59.57100750579852
 20
36.57687446584476
 10
-59.55715642731992
 20
36.50744736586774
 10
-59.51606107877868
 20
36.30271468935637
 10
-59.4796018350155
 20
36.0930597287596
 10
-59.44686292224957
 20
35.87939825785694
 10
-59.42871915416096
 20
35.75805823152129
 10
-59.4100030274583
 20
35.63563072381827
 10
-59.39632365656436
 20
35.52230371808672
 10
-59.37629110504515
 20
35.36433274040579
 10
-59.36272620587645
 20
35.20046646899287
 10
-59.34778764602921
 20
35.03785938652812
 10
-59.27761647985671
 20
34.17216698165665
 10
-59.3273544434819
 20
33.63918663955967
 10
-59.3273544434819
 20
33.63918663955967
 10
-59.3273544434819
 20
33.63918663955967
 10
-59.30377326855135
 20
33.64737136775227
 10
-59.30377326855135
 20
33.64737136775227
 10
-59.3718267078511
 20
33.07638641363276
 10
-59.51886563599068
 20
32.5050008084858
 10
-59.79102215732453
 20
31.97551185394204
 10
-60.16849266378006
 20
31.33492809226855
 10
-60.82653336320739
 20
30.28287572241776
 10
-61.44387936512285
 20
29.62615144780314
 10
-61.44387936512285
 20
29.62615144780314
 10
-57.93904138744078
 20
28.99752998117766
 10
-57.93646577367412
 20
28.99701485842497
 10
-57.53295295024535
 20
28.9246687295139
 10
-56.49664044230245
 20
30.00539626596402
 10
-56.25201437034051
 20
30.23697256150867
 10
-55.29669060639007
 20
31.14118470115858
 10
-54.50683571797646
 20
32.36362823063544
 10
-53.94157435000749
 20
33.71937408149146
 10
-52.95070711607785
 20
36.09597875769749
 10
-52.64998989986672
 20
38.88279285311855
 10
-53.35805474222723
 20
41.08585839731784
 10
-53.3916521929145
 20
41.16055119654892
 10
-53.43085875802771
 20
41.2251704841581
 10
-53.46577263353027
 20
41.29751661306916
 10
-53.48820909122956
 20
41.37455608261961
 10
-53.50234634901486
 20
41.44873375909416
 10
-53.52741565634342
 20
41.5268034741532
 10
-54.5967532563602
 20
43.90466733930805
 10
-56.78848609998492
 20
45.62992791187877
 10
-59.11546728428523
 20
46.68924923613498
 10
-60.30780475062096
 20
47.23195967468133
 10
-61.53190812007792
 20
47.60135992466759
 10
-62.84884805685394
 20
47.64588942489941
 10
-63.19958941599825
 20
47.657794484088
 10
-64.75886599027752
 20
47.78016475593225
 10
-65.02186477377474
 20
47.44115674838804
 10
-65.02197924549742
 20
47.44109951252926
 10
-67.20592801196083
 20
44.62566748636317
 10
-67.20592801196083
 20
44.62566748636317
 10
-66.30766840190554
 20
44.55097468713272
 10
-65.11458686937112
 20
44.21019236788445
 10
-64.4052628380586
 20
43.9870297439784
 10
-63.84864408517358
 20
43.7761155944264
 10
-63.35681632748176
 20
43.44987118399536
 10
-62.92405597883708
 20
43.07142766789258
 97
        0
 97
        1
330
82
 75
     2
 76
     1
 98
        1
 10
0.0
 20
0.0
450
        0
451
        0
460
0.0
461
0.0
452
        0
462
0.0
453
        0
470

  0
ENDBLK
  5
7C
330
79
100
AcDbEntity
  8
0
100
AcDbBlockEnd
  0
ENDSEC
  0
SECTION
  2
ENTITIES
  0
INSERT
  5
7A
330
70
100
AcDbEntity
  8
Layer 1
100
AcDbBlockReference
  2
Block_0
 10
0.0
 20
0.0
 30
0.0
  0
ENDSEC
  0
SECTION
  2
OBJECTS
  0
DICTIONARY
  5
C
330
0
100
AcDbDictionary
281
     1
  3
ACAD_COLOR
350
63
  3
ACAD_DETAILVIEWSTYLE
350
6A
  3
ACAD_GROUP
350
D
  3
ACAD_LAYOUT
350
62
  3
ACAD_MATERIAL
350
10
  3
ACAD_MLEADERSTYLE
350
66
  3
ACAD_MLINESTYLE
350
5F
  3
ACAD_PLOTSETTINGS
350
61
  3
ACAD_PLOTSTYLENAME
350
E
  3
ACAD_SCALELIST
350
42
  3
ACAD_SECTIONVIEWSTYLE
350
68
  3
ACAD_TABLESTYLE
350
64
  3
ACAD_VISUALSTYLE
350
29
  3
ACDB_RECOMPOSE_DATA
350
8C
  3
AcDbVariableDictionary
350
84
  0
DICTIONARY
  5
63
102
{ACAD_REACTORS
330
C
102
}
330
C
100
AcDbDictionary
281
     1
  0
DICTIONARY
  5
6A
102
{ACAD_REACTORS
330
C
102
}
330
C
100
AcDbDictionary
281
     1
  3
Imperial24
350
6B
  0
DICTIONARY
  5
D
102
{ACAD_REACTORS
330
C
102
}
330
C
100
AcDbDictionary
281
     1
  0
DICTIONARY
  5
62
102
{ACAD_REACTORS
330
C
102
}
330
C
100
AcDbDictionary
281
     1
  3
Layout1
350
6F
  3
Layout2
350
77
  3
Model
350
73
  0
DICTIONARY
  5
10
102
{ACAD_REACTORS
330
C
102
}
330
C
100
AcDbDictionary
281
     1
  3
ByBlock
350
19
  3
ByLayer
350
11
  3
Global
350
21
  0
DICTIONARY
  5
66
102
{ACAD_REACTORS
330
C
102
}
330
C
100
AcDbDictionary
281
     1
  3
Standard
350
67
  0
DICTIONARY
  5
5F
102
{ACAD_REACTORS
330
C
102
}
330
C
100
AcDbDictionary
281
     1
  3
Standard
350
60
  0
DICTIONARY
  5
61
102
{ACAD_REACTORS
330
C
102
}
330
C
100
AcDbDictionary
281
     1
  0
ACDBDICTIONARYWDFLT
  5
E
102
{ACAD_REACTORS
330
C
102
}
330
C
100
AcDbDictionary
281
     1
  3
Normal
350
F
100
AcDbDictionaryWithDefault
340
F
  0
DICTIONARY
  5
42
102
{ACAD_REACTORS
330
C
102
}
330
C
100
AcDbDictionary
281
     1
  3
A0
350
43
  3
A1
350
44
  3
A2
350
45
  3
A3
350
46
  3
A4
350
47
  3
A5
350
48
  3
A6
350
49
  3
A7
350
4A
  3
A8
350
4B
  3
A9
350
4C
  3
B0
350
4D
  3
B1
350
4E
  3
B2
350
4F
  3
B3
350
50
  3
B4
350
51
  3
B5
350
52
  3
B6
350
53
  0
DICTIONARY
  5
68
102
{ACAD_REACTORS
330
C
102
}
330
C
100
AcDbDictionary
281
     1
  3
Imperial24
350
69
  0
DICTIONARY
  5
64
102
{ACAD_REACTORS
330
C
102
}
330
C
100
AcDbDictionary
281
     1
  3
Standard
350
65
  0
DICTIONARY
  5
29
102
{ACAD_REACTORS
330
C
102
}
330
C
100
AcDbDictionary
281
     1
  3
2dWireframe
350
2F
  3
Basic
350
2E
  3
Brighten
350
35
  3
ColorChange
350
39
  3
Conceptual
350
32
  3
Dim
350
34
  3
EdgeColorOff
350
41
  3
Facepattern
350
38
  3
Flat
350
2A
  3
FlatWithEdges
350
2B
  3
Gouraud
350
2C
  3
GouraudWithEdges
350
2D
  3
Hidden
350
31
  3
JitterOff
350
3F
  3
Linepattern
350
37
  3
OverhangOff
350
40
  3
Realistic
350
33
  3
Shaded
350
3E
  3
Shaded with edges
350
3D
  3
Shades of Gray
350
3A
  3
Sketchy
350
3B
  3
Thicken
350
36
  3
Wireframe
350
30
  3
X-Ray
350
3C
  0
XRECORD
  5
8C
102
{ACAD_REACTORS
330
C
102
}
330
C
100
AcDbXrecord
280
     1
 90
        1
330
65
  0
DICTIONARY
  5
84
102
{ACAD_REACTORS
330
C
102
}
330
C
100
AcDbDictionary
281
     1
  3
CANNOSCALE
350
89
  3
CMLEADERSTYLE
350
86
  3
CTABLESTYLE
350
85
  3
CVIEWDETAILSTYLE
350
87
  3
CVIEWSECTIONSTYLE
350
88
  0
ACDBDETAILVIEWSTYLE
  5
6B
102
{ACAD_XDICTIONARY
360
8F
102
}
102
{ACAD_REACTORS
330
6A
102
}
330
6A
100
AcDbModelDocViewStyle
 70
     0
  3
Imperial24
290
     0
100
AcDbDetailViewStyle
 70
     0
 71
     0
 90
        3
 71
     1
340
55
 62
   256
 40
0.24
340
0
 62
   256
 40
0.24
300

 40
0.36
280
     3
 71
     2
340
5D
 90
       25
 62
   256
 71
     3
340
55
 62
   256
 40
0.24
 90
        1
 40
0.75
 90
        1
300
%<\AcVar ViewType \f "%tc1">% %<\AcVar ViewDetailId>%\PSCALE %<\AcVar ViewScale \f "%sn">%
 71
     4
340
5D
 90
       25
 62
   256
340
5D
 90
       25
 62
   256
280
     0
  0
LAYOUT
  5
6F
102
{ACAD_REACTORS
330
62
102
}
330
62
100
AcDbPlotSettings
  1

  2

  4

  6

 40
0.0
 41
0.0
 42
0.0
 43
0.0
 44
0.0
 45
0.0
 46
0.0
 47
0.0
 48
0.0
 49
0.0
140
0.0
141
0.0
142
1.0
143
1.0
 70
   688
 72
     0
 73
     0
 74
     5
  7

 75
    16
147
1.0
 76
     0
 77
     2
 78
   300
148
0.0
149
0.0
100
AcDbLayout
  1
Layout1
 70
     1
 71
     1
 10
0.0
 20
0.0
 11
12.0
 21
9.0
 12
0.0
 22
0.0
 32
0.0
 14
0.0
 24
0.0
 34
0.0
 15
0.0
 25
0.0
 35
0.0
146
0.0
 13
0.0
 23
0.0
 33
0.0
 16
1.0
 26
0.0
 36
0.0
 17
0.0
 27
1.0
 37
0.0
 76
     0
330
6C
  0
LAYOUT
  5
77
102
{ACAD_REACTORS
330
62
102
}
330
62
100
AcDbPlotSettings
  1

  2

  4

  6

 40
0.0
 41
0.0
 42
0.0
 43
0.0
 44
0.0
 45
0.0
 46
0.0
 47
0.0
 48
0.0
 49
0.0
140
0.0
141
0.0
142
1.0
143
1.0
 70
   688
 72
     0
 73
     0
 74
     5
  7

 75
    16
147
1.0
 76
     0
 77
     2
 78
   300
148
0.0
149
0.0
100
AcDbLayout
  1
Layout2
 70
     1
 71
     2
 10
0.0
 20
0.0
 11
12.0
 21
9.0
 12
0.0
 22
0.0
 32
0.0
 14
0.0
 24
0.0
 34
0.0
 15
0.0
 25
0.0
 35
0.0
146
0.0
 13
0.0
 23
0.0
 33
0.0
 16
1.0
 26
0.0
 36
0.0
 17
0.0
 27
1.0
 37
0.0
 76
     0
330
74
  0
LAYOUT
  5
73
102
{ACAD_REACTORS
330
62
102
}
330
62
100
AcDbPlotSettings
  1

  2

  4

  6

 40
0.0
 41
0.0
 42
0.0
 43
0.0
 44
0.0
 45
0.0
 46
0.0
 47
0.0
 48
0.0
 49
0.0
140
0.0
141
0.0
142
1.0
143
1.0
 70
  1712
 72
     0
 73
     0
 74
     0
  7

 75
     0
147
1.0
 76
     0
 77
     2
 78
   300
148
0.0
149
0.0
100
AcDbLayout
  1
Model
 70
     1
 71
     0
 10
0.0
 20
0.0
 11
12.0
 21
9.0
 12
0.0
 22
0.0
 32
0.0
 14
0.0
 24
0.0
 34
0.0
 15
0.0
 25
0.0
 35
0.0
146
0.0
 13
0.0
 23
0.0
 33
0.0
 16
1.0
 26
0.0
 36
0.0
 17
0.0
 27
1.0
 37
0.0
 76
     0
330
70
  0
MATERIAL
  5
19
102
{ACAD_XDICTIONARY
360
1A
102
}
102
{ACAD_REACTORS
330
10
102
}
330
10
100
AcDbMaterial
  1
ByBlock
 72
     0
 43
0.0208333333333333
 43
0.0
 43
0.0
 43
0.0
 43
0.0
 43
0.0208333333333333
 43
0.0
 43
0.0
 43
0.0
 43
0.0
 43
1.0
 43
0.0
 43
0.0
 43
0.0
 43
0.0
 43
1.0
 77
     0
 47
0.0208333333333333
 47
0.0
 47
0.0
 47
0.0
 47
0.0
 47
0.0208333333333333
 47
0.0
 47
0.0
 47
0.0
 47
0.0
 47
1.0
 47
0.0
 47
0.0
 47
0.0
 47
0.0
 47
1.0
171
     0
 49
0.0208333333333333
 49
0.0
 49
0.0
 49
0.0
 49
0.0
 49
0.0208333333333333
 49
0.0
 49
0.0
 49
0.0
 49
0.0
 49
1.0
 49
0.0
 49
0.0
 49
0.0
 49
0.0
 49
1.0
175
     0
142
0.0208333333333333
142
0.0
142
0.0
142
0.0
142
0.0
142
0.0208333333333333
142
0.0
142
0.0
142
0.0
142
0.0
142
1.0
142
0.0
142
0.0
142
0.0
142
0.0
142
1.0
179
     0
144
0.0208333333333333
144
0.0
144
0.0
144
0.0
144
0.0
144
0.0208333333333333
144
0.0
144
0.0
144
0.0
144
0.0
144
1.0
144
0.0
144
0.0
144
0.0
144
0.0
144
1.0
147
0.0208333333333333
147
0.0
147
0.0
147
0.0
147
0.0
147
0.0208333333333333
147
0.0
147
0.0
147
0.0
147
0.0
147
1.0
147
0.0
147
0.0
147
0.0
147
0.0
147
1.0
  0
MATERIAL
  5
11
102
{ACAD_XDICTIONARY
360
12
102
}
102
{ACAD_REACTORS
330
10
102
}
330
10
100
AcDbMaterial
  1
ByLayer
 72
     0
 43
0.0208333333333333
 43
0.0
 43
0.0
 43
0.0
 43
0.0
 43
0.0208333333333333
 43
0.0
 43
0.0
 43
0.0
 43
0.0
 43
1.0
 43
0.0
 43
0.0
 43
0.0
 43
0.0
 43
1.0
 77
     0
 47
0.0208333333333333
 47
0.0
 47
0.0
 47
0.0
 47
0.0
 47
0.0208333333333333
 47
0.0
 47
0.0
 47
0.0
 47
0.0
 47
1.0
 47
0.0
 47
0.0
 47
0.0
 47
0.0
 47
1.0
171
     0
 49
0.0208333333333333
 49
0.0
 49
0.0
 49
0.0
 49
0.0
 49
0.0208333333333333
 49
0.0
 49
0.0
 49
0.0
 49
0.0
 49
1.0
 49
0.0
 49
0.0
 49
0.0
 49
0.0
 49
1.0
175
     0
142
0.0208333333333333
142
0.0
142
0.0
142
0.0
142
0.0
142
0.0208333333333333
142
0.0
142
0.0
142
0.0
142
0.0
142
1.0
142
0.0
142
0.0
142
0.0
142
0.0
142
1.0
179
     0
144
0.0208333333333333
144
0.0
144
0.0
144
0.0
144
0.0
144
0.0208333333333333
144
0.0
144
0.0
144
0.0
144
0.0
144
1.0
144
0.0
144
0.0
144
0.0
144
0.0
144
1.0
147
0.0208333333333333
147
0.0
147
0.0
147
0.0
147
0.0
147
0.0208333333333333
147
0.0
147
0.0
147
0.0
147
0.0
147
1.0
147
0.0
147
0.0
147
0.0
147
0.0
147
1.0
  0
MATERIAL
  5
21
102
{ACAD_XDICTIONARY
360
22
102
}
102
{ACAD_REACTORS
330
10
102
}
330
10
100
AcDbMaterial
  1
Global
 72
     0
 43
0.0208333333333333
 43
0.0
 43
0.0
 43
0.0
 43
0.0
 43
0.0208333333333333
 43
0.0
 43
0.0
 43
0.0
 43
0.0
 43
1.0
 43
0.0
 43
0.0
 43
0.0
 43
0.0
 43
1.0
 77
     0
 47
0.0208333333333333
 47
0.0
 47
0.0
 47
0.0
 47
0.0
 47
0.0208333333333333
 47
0.0
 47
0.0
 47
0.0
 47
0.0
 47
1.0
 47
0.0
 47
0.0
 47
0.0
 47
0.0
 47
1.0
171
     0
 49
0.0208333333333333
 49
0.0
 49
0.0
 49
0.0
 49
0.0
 49
0.0208333333333333
 49
0.0
 49
0.0
 49
0.0
 49
0.0
 49
1.0
 49
0.0
 49
0.0
 49
0.0
 49
0.0
 49
1.0
175
     0
142
0.0208333333333333
142
0.0
142
0.0
142
0.0
142
0.0
142
0.0208333333333333
142
0.0
142
0.0
142
0.0
142
0.0
142
1.0
142
0.0
142
0.0
142
0.0
142
0.0
142
1.0
179
     0
144
0.0208333333333333
144
0.0
144
0.0
144
0.0
144
0.0
144
0.0208333333333333
144
0.0
144
0.0
144
0.0
144
0.0
144
1.0
144
0.0
144
0.0
144
0.0
144
0.0
144
1.0
147
0.0208333333333333
147
0.0
147
0.0
147
0.0
147
0.0
147
0.0208333333333333
147
0.0
147
0.0
147
0.0
147
0.0
147
1.0
147
0.0
147
0.0
147
0.0
147
0.0
147
1.0
  0
MLEADERSTYLE
  5
67
102
{ACAD_REACTORS
330
66
102
}
330
66
100
AcDbMLeaderStyle
179
     2
170
     2
171
     1
172
     0
 90
        2
 40
0.0
 41
0.0
173
     1
 91
-1056964608
340
5B
 92
       -2
290
     1
 42
0.09
291
     1
 43
0.36
  3
Standard
 44
0.18
300

342
55
174
     1
178
     6
175
     1
176
     0
 93
-1056964608
 45
0.18
292
     0
297
     0
 46
0.18
 94
-1056964608
 47
1.0
 49
1.0
140
1.0
293
     1
141
0.0
294
     1
177
     0
142
1.0
295
     0
296
     0
143
0.125
271
     0
272
     9
273
     9
298
     1
  0
MLINESTYLE
  5
60
102
{ACAD_REACTORS
330
5F
102
}
330
5F
100
AcDbMlineStyle
  2
STANDARD
 70
     0
  3

 62
   256
 51
90.0
 52
90.0
 71
     2
 49
0.5
 62
   256
  6
BYLAYER
 49
-0.5
 62
   256
  6
BYLAYER
  0
ACDBPLACEHOLDER
  5
F
102
{ACAD_REACTORS
330
E
102
}
330
E
  0
SCALE
  5
43
102
{ACAD_REACTORS
330
42
102
}
330
42
100
AcDbScale
 70
     0
300
1:1
140
1.0
141
1.0
290
     1
  0
SCALE
  5
44
102
{ACAD_REACTORS
330
42
102
}
330
42
100
AcDbScale
 70
     0
300
1/128" = 1'-0"
140
0.0078125
141
12.0
290
     0
  0
SCALE
  5
45
102
{ACAD_REACTORS
330
42
102
}
330
42
100
AcDbScale
 70
     0
300
1/64" = 1'-0"
140
0.015625
141
12.0
290
     0
  0
SCALE
  5
46
102
{ACAD_REACTORS
330
42
102
}
330
42
100
AcDbScale
 70
     0
300
1/32" = 1'-0"
140
0.03125
141
12.0
290
     0
  0
SCALE
  5
47
102
{ACAD_REACTORS
330
42
102
}
330
42
100
AcDbScale
 70
     0
300
1/16" = 1'-0"
140
0.0625
141
12.0
290
     0
  0
SCALE
  5
48
102
{ACAD_REACTORS
330
42
102
}
330
42
100
AcDbScale
 70
     0
300
3/32" = 1'-0"
140
0.09375
141
12.0
290
     0
  0
SCALE
  5
49
102
{ACAD_REACTORS
330
42
102
}
330
42
100
AcDbScale
 70
     0
300
1/8" = 1'-0"
140
0.125
141
12.0
290
     0
  0
SCALE
  5
4A
102
{ACAD_REACTORS
330
42
102
}
330
42
100
AcDbScale
 70
     0
300
3/16" = 1'-0"
140
0.1875
141
12.0
290
     0
  0
SCALE
  5
4B
102
{ACAD_REACTORS
330
42
102
}
330
42
100
AcDbScale
 70
     0
300
1/4" = 1'-0"
140
0.25
141
12.0
290
     0
  0
SCALE
  5
4C
102
{ACAD_REACTORS
330
42
102
}
330
42
100
AcDbScale
 70
     0
300
3/8" = 1'-0"
140
0.375
141
12.0
290
     0
  0
SCALE
  5
4D
102
{ACAD_REACTORS
330
42
102
}
330
42
100
AcDbScale
 70
     0
300
1/2" = 1'-0"
140
0.5
141
12.0
290
     0
  0
SCALE
  5
4E
102
{ACAD_REACTORS
330
42
102
}
330
42
100
AcDbScale
 70
     0
300
3/4" = 1'-0"
140
0.75
141
12.0
290
     0
  0
SCALE
  5
4F
102
{ACAD_REACTORS
330
42
102
}
330
42
100
AcDbScale
 70
     0
300
1" = 1'-0"
140
1.0
141
12.0
290
     0
  0
SCALE
  5
50
102
{ACAD_REACTORS
330
42
102
}
330
42
100
AcDbScale
 70
     0
300
1-1/2" = 1'-0"
140
1.5
141
12.0
290
     0
  0
SCALE
  5
51
102
{ACAD_REACTORS
330
42
102
}
330
42
100
AcDbScale
 70
     0
300
3" = 1'-0"
140
3.0
141
12.0
290
     0
  0
SCALE
  5
52
102
{ACAD_REACTORS
330
42
102
}
330
42
100
AcDbScale
 70
     0
300
6" = 1'-0"
140
6.0
141
12.0
290
     0
  0
SCALE
  5
53
102
{ACAD_REACTORS
330
42
102
}
330
42
100
AcDbScale
 70
     0
300
1'-0" = 1'-0"
140
12.0
141
12.0
290
     0
  0
ACDBSECTIONVIEWSTYLE
  5
69
102
{ACAD_XDICTIONARY
360
8D
102
}
102
{ACAD_REACTORS
330
68
102
}
330
68
100
AcDbModelDocViewStyle
 70
     0
  3
Imperial24
290
     0
100
AcDbSectionViewStyle
 70
     0
 71
     0
 90
       78
 71
     1
340
55
 62
   256
 40
0.24
340
0
340
0
 62
   256
 40
0.24
300
I, O, Q, S, X, Z
 40
0.48
 90
        3
 40
0.18
 90
        1
 71
     2
340
5D
 90
       25
 62
   256
340
5D
 90
       50
 62
   256
 40
0.24
 40
0.0
 40
0.24
 71
     3
340
55
 62
   256
 40
0.24
 90
        1
 40
0.75
 90
        1
300
%<\AcVar ViewType \f "%tc1">% %<\AcVar ViewSectionStartId>%-%<\AcVar ViewSectionEndId>%\PSCALE %<\AcVar ViewScale \f "%sn">%
 71
     4
 62
   256
 62
   257
300
ANSI31
 40
1.0
 90
        0
290
     0
290
     0
 90
        6
 40
0.0
 40
1.570796326794896
 40
0.2617993877991494
 40
1.308996938995747
 40
-0.2617993877991494
 40
1.832595714594046
  0
TABLESTYLE
  5
65
102
{ACAD_XDICTIONARY
360
8A
102
}
102
{ACAD_REACTORS
330
64
102
}
330
64
100
AcDbTableStyle
280
     0
  3
Standard
 70
     0
 71
     0
 40
0.06
 41
0.06
280
     0
281
     0
  7
Standard
140
0.18
170
     2
 62
     0
 63
     7
283
     0
 90
      512
 91
        0
  1

274
    -2
284
     1
 64
     0
275
    -2
285
     1
 65
     0
276
    -2
286
     1
 66
     0
277
    -2
287
     1
 67
     0
278
    -2
288
     1
 68
     0
279
    -2
289
     1
 69
     0
  7
Standard
140
0.25
170
     5
 62
     0
 63
     7
283
     0
 90
      512
 91
        0
  1

274
    -2
284
     1
 64
     0
275
    -2
285
     1
 65
     0
276
    -2
286
     1
 66
     0
277
    -2
287
     1
 67
     0
278
    -2
288
     1
 68
     0
279
    -2
289
     1
 69
     0
  7
Standard
140
0.18
170
     5
 62
     0
 63
     7
283
     0
 90
      512
 91
        0
  1

274
    -2
284
     1
 64
     0
275
    -2
285
     1
 65
     0
276
    -2
286
     1
 66
     0
277
    -2
287
     1
 67
     0
278
    -2
288
     1
 68
     0
279
    -2
289
     1
 69
     0
  0
VISUALSTYLE
  5
2F
102
{ACAD_REACTORS
330
29
102
}
330
29
100
AcDbVisualStyle
  2
2dWireframe
 70
     4
177
     3
291
     0
 70
    58
 90
        0
176
     1
 90
        2
176
     1
 90
        0
176
     1
 90
        0
176
     1
 40
0.6
176
     1
 40
30.0
176
     1
 62
     7
420
 16777215
176
     1
 90
        1
176
     1
 90
        4
176
     1
 62
     7
176
     1
 62
   257
176
     1
 90
        1
176
     1
 90
        1
176
     1
 40
1.0
176
     1
 90
        0
176
     1
 62
   257
176
     1
 40
1.0
176
     1
 90
        1
176
     1
 90
        6
176
     1
 90
        2
176
     1
 62
     7
176
     1
 90
        5
176
     1
 90
        0
176
     1
 90
        0
176
     1
290
     0
176
     1
 90
        1
176
     1
 40
0.0
176
     1
 90
        0
176
     1
290
     1
176
     1
290
     1
176
     1
290
     0
176
     1
290
     0
176
     1
290
     0
176
     1
290
     0
176
     1
290
     0
176
     1
290
     0
176
     1
290
     0
176
     1
 90
       50
176
     1
 40
0.0
176
     1
 40
1.0
176
     1
 90
        0
176
     1
 62
    18
420
        0
176
     1
 90
       50
176
     1
 90
        3
176
     1
 62
     5
420
      255
176
     1
290
     0
176
     1
 90
       50
176
     1
 90
       50
176
     1
 90
       50
176
     1
290
     0
176
     1
 90
       50
176
     1
 62
   256
176
     0
 40
1.0
176
     0
 90
        2
176
     1
  1
strokes_ogs.tif
176
     1
290
     0
176
     1
 40
1.0
176
     1
 40
1.0
176
     1
1001
ACAD
1000
AcDbSavedByObjectVersion
1070
     0
  0
VISUALSTYLE
  5
2E
102
{ACAD_REACTORS
330
29
102
}
330
29
100
AcDbVisualStyle
  2
Basic
 70
     7
177
     3
291
     1
 70
    58
 90
        1
176
     1
 90
        0
176
     1
 90
        1
176
     1
 90
        0
176
     1
 40
0.6
176
     1
 40
30.0
176
     1
 62
     7
420
 16777215
176
     1
 90
        0
176
     1
 90
        4
176
     1
 62
     7
176
     1
 62
   257
176
     1
 90
        1
176
     1
 90
        1
176
     1
 40
1.0
176
     1
 90
        8
176
     1
 62
     7
176
     1
 40
1.0
176
     1
 90
        1
176
     1
 90
        6
176
     1
 90
        2
176
     1
 62
     7
176
     1
 90
        5
176
     1
 90
        0
176
     1
 90
        0
176
     1
290
     0
176
     1
 90
        1
176
     1
 40
0.0
176
     1
 90
        0
176
     1
290
     0
176
     1
290
     1
176
     1
290
     1
176
     1
290
     0
176
     1
290
     0
176
     1
290
     0
176
     1
290
     0
176
     1
290
     0
176
     1
290
     0
176
     1
 90
       50
176
     1
 40
0.0
176
     1
 40
1.0
176
     1
 90
        0
176
     1
 62
    18
420
        0
176
     1
 90
       50
176
     1
 90
        3
176
     1
 62
     5
420
      255
176
     1
290
     0
176
     1
 90
       50
176
     1
 90
       50
176
     1
 90
       50
176
     1
290
     0
176
     1
 90
       50
176
     1
 62
   256
176
     0
 40
1.0
176
     0
 90
        2
176
     1
  1
strokes_ogs.tif
176
     1
290
     0
176
     1
 40
1.0
176
     1
 40
1.0
176
     1
1001
ACAD
1000
AcDbSavedByObjectVersion
1070
     0
  0
VISUALSTYLE
  5
35
102
{ACAD_REACTORS
330
29
102
}
330
29
100
AcDbVisualStyle
  2
Brighten
 70
    12
177
     3
291
     1
 70
    58
 90
        2
176
     1
 90
        2
176
     1
 90
        0
176
     1
 90
        0
176
     1
 40
0.6
176
     1
 40
30.0
176
     1
 62
     7
420
 16777215
176
     1
 90
        1
176
     1
 90
        4
176
     1
 62
     7
176
     1
 62
   257
176
     1
 90
        1
176
     1
 90
        1
176
     1
 40
1.0
176
     1
 90
        8
176
     1
 62
     7
176
     1
 40
1.0
176
     1
 90
        1
176
     1
 90
        6
176
     1
 90
        2
176
     1
 62
     7
176
     1
 90
        5
176
     1
 90
        0
176
     1
 90
        0
176
     1
290
     0
176
     1
 90
        1
176
     1
 40
50.0
176
     1
 90
        0
176
     1
290
     0
176
     1
290
     1
176
     1
290
     1
176
     1
290
     0
176
     1
290
     0
176
     1
290
     0
176
     1
290
     0
176
     1
290
     0
176
     1
290
     0
176
     1
 90
       50
176
     1
 40
0.0
176
     1
 40
1.0
176
     1
 90
        0
176
     1
 62
    18
420
        0
176
     1
 90
       50
176
     1
 90
        3
176
     1
 62
     5
420
      255
176
     1
290
     0
176
     1
 90
       50
176
     1
 90
       50
176
     1
 90
       50
176
     1
290
     0
176
     1
 90
       50
176
     1
 62
   256
176
     0
 40
1.0
176
     0
 90
        2
176
     1
  1
strokes_ogs.tif
176
     1
290
     0
176
     1
 40
1.0
176
     1
 40
1.0
176
     1
1001
ACAD
1000
AcDbSavedByObjectVersion
1070
     0
  0
VISUALSTYLE
  5
39
102
{ACAD_REACTORS
330
29
102
}
330
29
100
AcDbVisualStyle
  2
ColorChange
 70
    16
177
     3
291
     1
 70
    58
 90
        2
176
     1
 90
        2
176
     1
 90
        3
176
     1
 90
        0
176
     1
 40
0.6
176
     1
 40
30.0
176
     1
 62
     8
420
  8421504
176
     1
 90
        1
176
     1
 90
        4
176
     1
 62
     7
176
     1
 62
   257
176
     1
 90
        1
176
     1
 90
        1
176
     1
 40
1.0
176
     1
 90
        8
176
     1
 62
     8
420
  8421504
176
     1
 40
1.0
176
     1
 90
        1
176
     1
 90
        6
176
     1
 90
        2
176
     1
 62
     7
176
     1
 90
        5
176
     1
 90
        0
176
     1
 90
        0
176
     1
290
     0
176
     1
 90
        1
176
     1
 40
0.0
176
     1
 90
        0
176
     1
290
     0
176
     1
290
     1
176
     1
290
     1
176
     1
290
     0
176
     1
290
     0
176
     1
290
     0
176
     1
290
     0
176
     1
290
     0
176
     1
290
     0
176
     1
 90
       50
176
     1
 40
0.0
176
     1
 40
1.0
176
     1
 90
        0
176
     1
 62
    18
420
        0
176
     1
 90
       50
176
     1
 90
        3
176
     1
 62
     5
420
      255
176
     1
290
     0
176
     1
 90
       50
176
     1
 90
       50
176
     1
 90
       50
176
     1
290
     0
176
     1
 90
       50
176
     1
 62
   256
176
     0
 40
1.0
176
     0
 90
        2
176
     1
  1
strokes_ogs.tif
176
     1
290
     0
176
     1
 40
1.0
176
     1
 40
1.0
176
     1
1001
ACAD
1000
AcDbSavedByObjectVersion
1070
     0
  0
VISUALSTYLE
  5
32
102
{ACAD_REACTORS
330
29
102
}
330
29
100
AcDbVisualStyle
  2
Conceptual
 70
     9
177
     3
291
     0
 70
    58
 90
        3
176
     1
 90
        2
176
     1
 90
        0
176
     1
 90
        0
176
     1
 40
0.6
176
     1
 40
30.0
176
     1
 62
     7
420
 16777215
176
     1
 90
        2
176
     1
 90
        2
176
     1
 62
     7
176
     1
 62
   257
176
     1
 90
        1
176
     1
 90
        1
176
     1
 40
179.0
176
     1
 90
        8
176
     1
 62
     7
176
     1
 40
1.0
176
     1
 90
        1
176
     1
 90
        6
176
     1
 90
        2
176
     1
 62
     7
176
     1
 90
        3
176
     1
 90
        0
176
     1
 90
        0
176
     1
290
     0
176
     1
 90
        1
176
     1
 40
0.0
176
     1
 90
        0
176
     1
290
     0
176
     1
290
     1
176
     1
290
     1
176
     1
290
     0
176
     1
290
     0
176
     1
290
     0
176
     1
290
     0
176
     1
290
     0
176
     1
290
     0
176
     1
 90
       50
176
     1
 40
0.0
176
     1
 40
1.0
176
     1
 90
        0
176
     1
 62
    18
420
        0
176
     1
 90
       50
176
     1
 90
        3
176
     1
 62
     5
420
      255
176
     1
290
     0
176
     1
 90
       50
176
     1
 90
       50
176
     1
 90
       50
176
     1
290
     0
176
     1
 90
       50
176
     1
 62
   256
176
     0
 40
1.0
176
     0
 90
        2
176
     1
  1
strokes_ogs.tif
176
     1
290
     0
176
     1
 40
1.0
176
     1
 40
1.0
176
     1
1001
ACAD
1000
AcDbSavedByObjectVersion
1070
     0
  0
VISUALSTYLE
  5
34
102
{ACAD_REACTORS
330
29
102
}
330
29
100
AcDbVisualStyle
  2
Dim
 70
    11
177
     3
291
     1
 70
    58
 90
        2
176
     1
 90
        2
176
     1
 90
        0
176
     1
 90
        0
176
     1
 40
0.6
176
     1
 40
30.0
176
     1
 62
     7
420
 16777215
176
     1
 90
        1
176
     1
 90
        4
176
     1
 62
     7
176
     1
 62
   257
176
     1
 90
        1
176
     1
 90
        1
176
     1
 40
1.0
176
     1
 90
        8
176
     1
 62
     7
176
     1
 40
1.0
176
     1
 90
        1
176
     1
 90
        6
176
     1
 90
        2
176
     1
 62
     7
176
     1
 90
        5
176
     1
 90
        0
176
     1
 90
        0
176
     1
290
     0
176
     1
 90
        1
176
     1
 40
-50.0
176
     1
 90
        0
176
     1
290
     0
176
     1
290
     1
176
     1
290
     1
176
     1
290
     0
176
     1
290
     0
176
     1
290
     0
176
     1
290
     0
176
     1
290
     0
176
     1
290
     0
176
     1
 90
       50
176
     1
 40
0.0
176
     1
 40
1.0
176
     1
 90
        0
176
     1
 62
    18
420
        0
176
     1
 90
       50
176
     1
 90
        3
176
     1
 62
     5
420
      255
176
     1
290
     0
176
     1
 90
       50
176
     1
 90
       50
176
     1
 90
       50
176
     1
290
     0
176
     1
 90
       50
176
     1
 62
   256
176
     0
 40
1.0
176
     0
 90
        2
176
     1
  1
strokes_ogs.tif
176
     1
290
     0
176
     1
 40
1.0
176
     1
 40
1.0
176
     1
1001
ACAD
1000
AcDbSavedByObjectVersion
1070
     0
  0
VISUALSTYLE
  5
41
102
{ACAD_REACTORS
330
29
102
}
330
29
100
AcDbVisualStyle
  2
EdgeColorOff
 70
    22
177
     3
291
     1
 70
    58
 90
        2
176
     0
 90
        2
176
     0
 90
        0
176
     0
 90
        0
176
     0
 40
0.6
176
     0
 40
30.0
176
     0
 62
     7
420
 16777215
176
     0
 90
        1
176
     0
 90
        4
176
     0
 62
     7
176
     0
 62
   257
176
     0
 90
        1
176
     0
 90
        1
176
     0
 40
1.0
176
     0
 90
        8
176
     2
 62
     7
176
     0
 40
1.0
176
     0
 90
        1
176
     0
 90
        6
176
     0
 90
        2
176
     0
 62
     7
176
     0
 90
        5
176
     0
 90
        0
176
     0
 90
        0
176
     0
290
     0
176
     0
 90
        1
176
     0
 40
0.0
176
     0
 90
        0
176
     0
290
     0
176
     0
290
     1
176
     0
290
     1
176
     0
290
     0
176
     0
290
     0
176
     0
290
     0
176
     0
290
     0
176
     0
290
     0
176
     0
290
     0
176
     0
 90
       50
176
     0
 40
0.0
176
     0
 40
1.0
176
     0
 90
        0
176
     0
 62
    18
420
        0
176
     0
 90
       50
176
     0
 90
        3
176
     0
 62
     5
420
      255
176
     0
290
     0
176
     0
 90
       50
176
     0
 90
       50
176
     0
 90
       50
176
     0
290
     0
176
     0
 90
       50
176
     0
 62
   256
176
     0
 40
1.0
176
     0
 90
        2
176
     0
  1
strokes_ogs.tif
176
     0
290
     0
176
     0
 40
1.0
176
     0
 40
1.0
176
     0
1001
ACAD
1000
AcDbSavedByObjectVersion
1070
     0
  0
VISUALSTYLE
  5
38
102
{ACAD_REACTORS
330
29
102
}
330
29
100
AcDbVisualStyle
  2
Facepattern
 70
    15
177
     3
291
     1
 70
    58
 90
        2
176
     1
 90
        2
176
     1
 90
        0
176
     1
 90
        0
176
     1
 40
0.6
176
     1
 40
30.0
176
     1
 62
     7
420
 16777215
176
     1
 90
        1
176
     1
 90
        4
176
     1
 62
     7
176
     1
 62
   257
176
     1
 90
        1
176
     1
 90
        1
176
     1
 40
1.0
176
     1
 90
        8
176
     1
 62
     7
176
     1
 40
1.0
176
     1
 90
        1
176
     1
 90
        6
176
     1
 90
        2
176
     1
 62
     7
176
     1
 90
        5
176
     1
 90
        0
176
     1
 90
        0
176
     1
290
     0
176
     1
 90
        1
176
     1
 40
0.0
176
     1
 90
        0
176
     1
290
     0
176
     1
290
     1
176
     1
290
     1
176
     1
290
     0
176
     1
290
     0
176
     1
290
     0
176
     1
290
     0
176
     1
290
     0
176
     1
290
     0
176
     1
 90
       50
176
     1
 40
0.0
176
     1
 40
1.0
176
     1
 90
        0
176
     1
 62
    18
420
        0
176
     1
 90
       50
176
     1
 90
        3
176
     1
 62
     5
420
      255
176
     1
290
     0
176
     1
 90
       50
176
     1
 90
       50
176
     1
 90
       50
176
     1
290
     0
176
     1
 90
       50
176
     1
 62
   256
176
     0
 40
1.0
176
     0
 90
        2
176
     1
  1
strokes_ogs.tif
176
     1
290
     0
176
     1
 40
1.0
176
     1
 40
1.0
176
     1
1001
ACAD
1000
AcDbSavedByObjectVersion
1070
     0
  0
VISUALSTYLE
  5
2A
102
{ACAD_REACTORS
330
29
102
}
330
29
100
AcDbVisualStyle
  2
Flat
 70
     0
177
     3
291
     1
 70
    58
 90
        2
176
     1
 90
        1
176
     1
 90
        1
176
     1
 90
        2
176
     1
 40
0.6
176
     1
 40
30.0
176
     1
 62
     7
420
 16777215
176
     1
 90
        0
176
     1
 90
        0
176
     1
 62
     7
176
     1
 62
   257
176
     1
 90
        1
176
     1
 90
        1
176
     1
 40
1.0
176
     1
 90
        8
176
     1
 62
     7
176
     1
 40
1.0
176
     1
 90
        1
176
     1
 90
        6
176
     1
 90
        2
176
     1
 62
     7
176
     1
 90
        5
176
     1
 90
        0
176
     1
 90
        0
176
     1
290
     0
176
     1
 90
       13
176
     1
 40
0.0
176
     1
 90
        0
176
     1
290
     0
176
     1
290
     1
176
     1
290
     1
176
     1
290
     0
176
     1
290
     0
176
     1
290
     0
176
     1
290
     0
176
     1
290
     0
176
     1
290
     0
176
     1
 90
       50
176
     1
 40
0.0
176
     1
 40
1.0
176
     1
 90
        0
176
     1
 62
    18
420
        0
176
     1
 90
       50
176
     1
 90
        3
176
     1
 62
     5
420
      255
176
     1
290
     0
176
     1
 90
       50
176
     1
 90
       50
176
     1
 90
       50
176
     1
290
     0
176
     1
 90
       50
176
     1
 62
   256
176
     0
 40
1.0
176
     0
 90
        2
176
     1
  1
strokes_ogs.tif
176
     1
290
     0
176
     1
 40
1.0
176
     1
 40
1.0
176
     1
1001
ACAD
1000
AcDbSavedByObjectVersion
1070
     0
  0
VISUALSTYLE
  5
2B
102
{ACAD_REACTORS
330
29
102
}
330
29
100
AcDbVisualStyle
  2
FlatWithEdges
 70
     1
177
     3
291
     1
 70
    58
 90
        2
176
     1
 90
        1
176
     1
 90
        1
176
     1
 90
        2
176
     1
 40
0.6
176
     1
 40
30.0
176
     1
 62
     7
420
 16777215
176
     1
 90
        1
176
     1
 90
        0
176
     1
 62
     7
176
     1
 62
   257
176
     1
 90
        1
176
     1
 90
        1
176
     1
 40
1.0
176
     1
 90
        0
176
     1
 62
   257
176
     1
 40
1.0
176
     1
 90
        1
176
     1
 90
        6
176
     1
 90
        2
176
     1
 62
     7
176
     1
 90
        5
176
     1
 90
        0
176
     1
 90
        0
176
     1
290
     0
176
     1
 90
       13
176
     1
 40
0.0
176
     1
 90
        0
176
     1
290
     0
176
     1
290
     1
176
     1
290
     1
176
     1
290
     0
176
     1
290
     0
176
     1
290
     0
176
     1
290
     0
176
     1
290
     0
176
     1
290
     0
176
     1
 90
       50
176
     1
 40
0.0
176
     1
 40
1.0
176
     1
 90
        0
176
     1
 62
    18
420
        0
176
     1
 90
       50
176
     1
 90
        3
176
     1
 62
     5
420
      255
176
     1
290
     0
176
     1
 90
       50
176
     1
 90
       50
176
     1
 90
       50
176
     1
290
     0
176
     1
 90
       50
176
     1
 62
   256
176
     0
 40
1.0
176
     0
 90
        2
176
     1
  1
strokes_ogs.tif
176
     1
290
     0
176
     1
 40
1.0
176
     1
 40
1.0
176
     1
1001
ACAD
1000
AcDbSavedByObjectVersion
1070
     0
  0
VISUALSTYLE
  5
2C
102
{ACAD_REACTORS
330
29
102
}
330
29
100
AcDbVisualStyle
  2
Gouraud
 70
     2
177
     3
291
     1
 70
    58
 90
        2
176
     1
 90
        2
176
     1
 90
        1
176
     1
 90
        2
176
     1
 40
0.6
176
     1
 40
30.0
176
     1
 62
     7
420
 16777215
176
     1
 90
        0
176
     1
 90
        0
176
     1
 62
     7
176
     1
 62
   257
176
     1
 90
        1
176
     1
 90
        1
176
     1
 40
1.0
176
     1
 90
        0
176
     1
 62
     7
176
     1
 40
1.0
176
     1
 90
        1
176
     1
 90
        6
176
     1
 90
        2
176
     1
 62
     7
176
     1
 90
        5
176
     1
 90
        0
176
     1
 90
        0
176
     1
290
     0
176
     1
 90
       13
176
     1
 40
0.0
176
     1
 90
        0
176
     1
290
     0
176
     1
290
     1
176
     1
290
     1
176
     1
290
     0
176
     1
290
     0
176
     1
290
     0
176
     1
290
     0
176
     1
290
     0
176
     1
290
     0
176
     1
 90
       50
176
     1
 40
0.0
176
     1
 40
1.0
176
     1
 90
        0
176
     1
 62
    18
420
        0
176
     1
 90
       50
176
     1
 90
        3
176
     1
 62
     5
420
      255
176
     1
290
     0
176
     1
 90
       50
176
     1
 90
       50
176
     1
 90
       50
176
     1
290
     0
176
     1
 90
       50
176
     1
 62
   256
176
     0
 40
1.0
176
     0
 90
        2
176
     1
  1
strokes_ogs.tif
176
     1
290
     0
176
     1
 40
1.0
176
     1
 40
1.0
176
     1
1001
ACAD
1000
AcDbSavedByObjectVersion
1070
     0
  0
VISUALSTYLE
  5
2D
102
{ACAD_REACTORS
330
29
102
}
330
29
100
AcDbVisualStyle
  2
GouraudWithEdges
 70
     3
177
     3
291
     1
 70
    58
 90
        2
176
     1
 90
        2
176
     1
 90
        1
176
     1
 90
        2
176
     1
 40
0.6
176
     1
 40
30.0
176
     1
 62
     7
420
 16777215
176
     1
 90
        1
176
     1
 90
        0
176
     1
 62
     7
176
     1
 62
   257
176
     1
 90
        1
176
     1
 90
        1
176
     1
 40
1.0
176
     1
 90
        0
176
     1
 62
   257
176
     1
 40
1.0
176
     1
 90
        1
176
     1
 90
        6
176
     1
 90
        2
176
     1
 62
     7
176
     1
 90
        5
176
     1
 90
        0
176
     1
 90
        0
176
     1
290
     0
176
     1
 90
       13
176
     1
 40
0.0
176
     1
 90
        0
176
     1
290
     0
176
     1
290
     1
176
     1
290
     1
176
     1
290
     0
176
     1
290
     0
176
     1
290
     0
176
     1
290
     0
176
     1
290
     0
176
     1
290
     0
176
     1
 90
       50
176
     1
 40
0.0
176
     1
 40
1.0
176
     1
 90
        0
176
     1
 62
    18
420
        0
176
     1
 90
       50
176
     1
 90
        3
176
     1
 62
     5
420
      255
176
     1
290
     0
176
     1
 90
       50
176
     1
 90
       50
176
     1
 90
       50
176
     1
290
     0
176
     1
 90
       50
176
     1
 62
   256
176
     0
 40
1.0
176
     0
 90
        2
176
     1
  1
strokes_ogs.tif
176
     1
290
     0
176
     1
 40
1.0
176
     1
 40
1.0
176
     1
1001
ACAD
1000
AcDbSavedByObjectVersion
1070
     0
  0
VISUALSTYLE
  5
31
102
{ACAD_REACTORS
330
29
102
}
330
29
100
AcDbVisualStyle
  2
Hidden
 70
     6
177
     3
291
     0
 70
    58
 90
        1
176
     1
 90
        2
176
     1
 90
        2
176
     1
 90
        0
176
     1
 40
0.6
176
     1
 40
30.0
176
     1
 62
     7
420
 16777215
176
     1
 90
        2
176
     1
 90
        2
176
     1
 62
     7
176
     1
 62
   257
176
     1
 90
        2
176
     1
 90
        1
176
     1
 40
40.0
176
     1
 90
        0
176
     1
 62
   257
176
     1
 40
1.0
176
     1
 90
        1
176
     1
 90
        6
176
     1
 90
        2
176
     1
 62
     7
176
     1
 90
        3
176
     1
 90
        0
176
     1
 90
        0
176
     1
290
     0
176
     1
 90
        1
176
     1
 40
0.0
176
     1
 90
        0
176
     1
290
     0
176
     1
290
     1
176
     1
290
     1
176
     1
290
     0
176
     1
290
     0
176
     1
290
     0
176
     1
290
     0
176
     1
290
     0
176
     1
290
     0
176
     1
 90
       50
176
     1
 40
0.0
176
     1
 40
1.0
176
     1
 90
        0
176
     1
 62
    18
420
        0
176
     1
 90
       50
176
     1
 90
        3
176
     1
 62
     5
420
      255
176
     1
290
     0
176
     1
 90
       50
176
     1
 90
       50
176
     1
 90
       50
176
     1
290
     0
176
     1
 90
       50
176
     1
 62
   256
176
     0
 40
1.0
176
     0
 90
        2
176
     1
  1
strokes_ogs.tif
176
     1
290
     0
176
     1
 40
1.0
176
     1
 40
1.0
176
     1
1001
ACAD
1000
AcDbSavedByObjectVersion
1070
     0
  0
VISUALSTYLE
  5
3F
102
{ACAD_REACTORS
330
29
102
}
330
29
100
AcDbVisualStyle
  2
JitterOff
 70
    20
177
     3
291
     1
 70
    58
 90
        2
176
     0
 90
        2
176
     0
 90
        0
176
     0
 90
        0
176
     0
 40
0.6
176
     0
 40
30.0
176
     0
 62
     7
420
 16777215
176
     0
 90
        1
176
     0
 90
        4
176
     0
 62
     7
176
     0
 62
   257
176
     0
 90
        1
176
     0
 90
        1
176
     0
 40
1.0
176
     0
 90
       10
176
     2
 62
     7
176
     0
 40
1.0
176
     0
 90
        1
176
     0
 90
        6
176
     0
 90
        2
176
     0
 62
     7
176
     0
 90
        5
176
     0
 90
        0
176
     0
 90
        0
176
     0
290
     0
176
     0
 90
        1
176
     0
 40
0.0
176
     0
 90
        0
176
     0
290
     0
176
     0
290
     1
176
     0
290
     1
176
     0
290
     0
176
     0
290
     0
176
     0
290
     0
176
     0
290
     0
176
     0
290
     0
176
     0
290
     0
176
     0
 90
       50
176
     0
 40
0.0
176
     0
 40
1.0
176
     0
 90
        0
176
     0
 62
    18
420
        0
176
     0
 90
       50
176
     0
 90
        3
176
     0
 62
     5
420
      255
176
     0
290
     0
176
     0
 90
       50
176
     0
 90
       50
176
     0
 90
       50
176
     0
290
     0
176
     0
 90
       50
176
     0
 62
   256
176
     0
 40
1.0
176
     0
 90
        2
176
     0
  1
strokes_ogs.tif
176
     0
290
     0
176
     0
 40
1.0
176
     0
 40
1.0
176
     0
1001
ACAD
1000
AcDbSavedByObjectVersion
1070
     0
  0
VISUALSTYLE
  5
37
102
{ACAD_REACTORS
330
29
102
}
330
29
100
AcDbVisualStyle
  2
Linepattern
 70
    14
177
     3
291
     1
 70
    58
 90
        2
176
     1
 90
        2
176
     1
 90
        0
176
     1
 90
        0
176
     1
 40
0.6
176
     1
 40
30.0
176
     1
 62
     7
420
 16777215
176
     1
 90
        1
176
     1
 90
        4
176
     1
 62
     7
176
     1
 62
   257
176
     1
 90
        7
176
     1
 90
        7
176
     1
 40
1.0
176
     1
 90
        8
176
     1
 62
     7
176
     1
 40
1.0
176
     1
 90
        1
176
     1
 90
        6
176
     1
 90
        2
176
     1
 62
     7
176
     1
 90
        5
176
     1
 90
        0
176
     1
 90
        0
176
     1
290
     0
176
     1
 90
        1
176
     1
 40
0.0
176
     1
 90
        0
176
     1
290
     0
176
     1
290
     1
176
     1
290
     1
176
     1
290
     0
176
     1
290
     0
176
     1
290
     0
176
     1
290
     0
176
     1
290
     0
176
     1
290
     0
176
     1
 90
       50
176
     1
 40
0.0
176
     1
 40
1.0
176
     1
 90
        0
176
     1
 62
    18
420
        0
176
     1
 90
       50
176
     1
 90
        3
176
     1
 62
     5
420
      255
176
     1
290
     0
176
     1
 90
       50
176
     1
 90
       50
176
     1
 90
       50
176
     1
290
     0
176
     1
 90
       50
176
     1
 62
   256
176
     0
 40
1.0
176
     0
 90
        2
176
     1
  1
strokes_ogs.tif
176
     1
290
     0
176
     1
 40
1.0
176
     1
 40
1.0
176
     1
1001
ACAD
1000
AcDbSavedByObjectVersion
1070
     0
  0
VISUALSTYLE
  5
40
102
{ACAD_REACTORS
330
29
102
}
330
29
100
AcDbVisualStyle
  2
OverhangOff
 70
    21
177
     3
291
     1
 70
    58
 90
        2
176
     0
 90
        2
176
     0
 90
        0
176
     0
 90
        0
176
     0
 40
0.6
176
     0
 40
30.0
176
     0
 62
     7
420
 16777215
176
     0
 90
        1
176
     0
 90
        4
176
     0
 62
     7
176
     0
 62
   257
176
     0
 90
        1
176
     0
 90
        1
176
     0
 40
1.0
176
     0
 90
        9
176
     2
 62
     7
176
     0
 40
1.0
176
     0
 90
        1
176
     0
 90
        6
176
     0
 90
        2
176
     0
 62
     7
176
     0
 90
        5
176
     0
 90
        0
176
     0
 90
        0
176
     0
290
     0
176
     0
 90
        1
176
     0
 40
0.0
176
     0
 90
        0
176
     0
290
     0
176
     0
290
     1
176
     0
290
     1
176
     0
290
     0
176
     0
290
     0
176
     0
290
     0
176
     0
290
     0
176
     0
290
     0
176
     0
290
     0
176
     0
 90
       50
176
     0
 40
0.0
176
     0
 40
1.0
176
     0
 90
        0
176
     0
 62
    18
420
        0
176
     0
 90
       50
176
     0
 90
        3
176
     0
 62
     5
420
      255
176
     0
290
     0
176
     0
 90
       50
176
     0
 90
       50
176
     0
 90
       50
176
     0
290
     0
176
     0
 90
       50
176
     0
 62
   256
176
     0
 40
1.0
176
     0
 90
        2
176
     0
  1
strokes_ogs.tif
176
     0
290
     0
176
     0
 40
1.0
176
     0
 40
1.0
176
     0
1001
ACAD
1000
AcDbSavedByObjectVersion
1070
     0
  0
VISUALSTYLE
  5
33
102
{ACAD_REACTORS
330
29
102
}
330
29
100
AcDbVisualStyle
  2
Realistic
 70
     8
177
     3
291
     0
 70
    58
 90
        2
176
     1
 90
        3
176
     1
 90
        0
176
     1
 90
        2
176
     1
 40
0.6
176
     1
 40
30.0
176
     1
 62
     7
420
 16777215
176
     1
 90
        0
176
     1
 90
        0
176
     1
 62
     7
176
     1
 62
   257
176
     1
 90
        1
176
     1
 90
        1
176
     1
 40
1.0
176
     1
 90
        8
176
     1
 62
   257
176
     1
 40
1.0
176
     1
 90
        1
176
     1
 90
        6
176
     1
 90
        2
176
     1
 62
     7
176
     1
 90
        3
176
     1
 90
        0
176
     1
 90
        0
176
     1
290
     0
176
     1
 90
       13
176
     1
 40
0.0
176
     1
 90
        0
176
     1
290
     0
176
     1
290
     1
176
     1
290
     1
176
     1
290
     0
176
     1
290
     0
176
     1
290
     0
176
     1
290
     0
176
     1
290
     0
176
     1
290
     0
176
     1
 90
       50
176
     1
 40
0.0
176
     1
 40
1.0
176
     1
 90
        0
176
     1
 62
    18
420
        0
176
     1
 90
       50
176
     1
 90
        3
176
     1
 62
     5
420
      255
176
     1
290
     0
176
     1
 90
       50
176
     1
 90
       50
176
     1
 90
       50
176
     1
290
     0
176
     1
 90
       50
176
     1
 62
   256
176
     0
 40
1.0
176
     0
 90
        2
176
     1
  1
strokes_ogs.tif
176
     1
290
     0
176
     1
 40
1.0
176
     1
 40
1.0
176
     1
1001
ACAD
1000
AcDbSavedByObjectVersion
1070
     0
  0
VISUALSTYLE
  5
3E
102
{ACAD_REACTORS
330
29
102
}
330
29
100
AcDbVisualStyle
  2
Shaded
 70
    27
177
     3
291
     0
 70
    58
 90
        2
176
     1
 90
        2
176
     1
 90
        1
176
     1
 90
        2
176
     1
 40
0.6
176
     1
 40
30.0
176
     1
 62
     7
420
 16777215
176
     1
 90
        0
176
     1
 90
        4
176
     1
 62
     7
176
     1
 62
   257
176
     1
 90
        1
176
     1
 90
        1
176
     1
 40
1.0
176
     1
 90
        8
176
     1
 62
   257
176
     1
 40
1.0
176
     1
 90
        1
176
     1
 90
        6
176
     1
 90
        2
176
     1
 62
     8
420
  7895160
176
     1
 90
        3
176
     1
 90
        0
176
     1
 90
        0
176
     1
290
     0
176
     1
 90
        5
176
     1
 40
0.0
176
     1
 90
        0
176
     1
290
     0
176
     1
290
     1
176
     1
290
     1
176
     1
290
     0
176
     1
290
     0
176
     1
290
     0
176
     1
290
     0
176
     1
290
     0
176
     1
290
     0
176
     1
 90
       50
176
     1
 40
0.0
176
     1
 40
1.0
176
     1
 90
        0
176
     1
 62
    18
420
        0
176
     1
 90
       50
176
     1
 90
        3
176
     1
 62
     5
420
      255
176
     1
290
     0
176
     1
 90
       50
176
     1
 90
       50
176
     1
 90
       50
176
     1
290
     0
176
     1
 90
       50
176
     1
 62
   256
176
     0
 40
1.0
176
     0
 90
        2
176
     1
  1
strokes_ogs.tif
176
     1
290
     0
176
     1
 40
1.0
176
     1
 40
1.0
176
     1
1001
ACAD
1000
AcDbSavedByObjectVersion
1070
     0
  0
VISUALSTYLE
  5
3D
102
{ACAD_REACTORS
330
29
102
}
330
29
100
AcDbVisualStyle
  2
Shaded with edges
 70
    26
177
     3
291
     0
 70
    58
 90
        2
176
     1
 90
        2
176
     1
 90
        1
176
     1
 90
        2
176
     1
 40
0.6
176
     1
 40
30.0
176
     1
 62
     7
420
 16777215
176
     1
 90
        1
176
     1
 90
        2
176
     1
 62
     7
176
     1
 62
   257
176
     1
 90
        2
176
     1
 90
        1
176
     1
 40
1.0
176
     1
 90
        8
176
     1
 62
   257
176
     1
 40
1.0
176
     1
 90
        1
176
     1
 90
        6
176
     1
 90
        2
176
     1
 62
     7
176
     1
 90
        3
176
     1
 90
        0
176
     1
 90
        0
176
     1
290
     0
176
     1
 90
        5
176
     1
 40
0.0
176
     1
 90
        0
176
     1
290
     0
176
     1
290
     1
176
     1
290
     1
176
     1
290
     0
176
     1
290
     0
176
     1
290
     0
176
     1
290
     0
176
     1
290
     0
176
     1
290
     0
176
     1
 90
       50
176
     1
 40
0.0
176
     1
 40
1.0
176
     1
 90
        0
176
     1
 62
    18
420
        0
176
     1
 90
       50
176
     1
 90
        3
176
     1
 62
     5
420
      255
176
     1
290
     0
176
     1
 90
       50
176
     1
 90
       50
176
     1
 90
       50
176
     1
290
     0
176
     1
 90
       50
176
     1
 62
   256
176
     0
 40
1.0
176
     0
 90
        2
176
     1
  1
strokes_ogs.tif
176
     1
290
     0
176
     1
 40
1.0
176
     1
 40
1.0
176
     1
1001
ACAD
1000
AcDbSavedByObjectVersion
1070
     0
  0
VISUALSTYLE
  5
3A
102
{ACAD_REACTORS
330
29
102
}
330
29
100
AcDbVisualStyle
  2
Shades of Gray
 70
    23
177
     3
291
     0
 70
    58
 90
        2
176
     1
 90
        2
176
     1
 90
        3
176
     1
 90
        0
176
     1
 40
0.6
176
     1
 40
30.0
176
     1
 62
     7
420
 16777215
176
     1
 90
        2
176
     1
 90
        2
176
     1
 62
     7
176
     1
 62
     7
176
     1
 90
        1
176
     1
 90
        1
176
     1
 40
40.0
176
     1
 90
        8
176
     1
 62
     7
176
     1
 40
1.0
176
     1
 90
        1
176
     1
 90
        6
176
     1
 90
        2
176
     1
 62
     7
176
     1
 90
        3
176
     1
 90
        0
176
     1
 90
        0
176
     1
290
     0
176
     1
 90
        1
176
     1
 40
0.0
176
     1
 90
        0
176
     1
290
     0
176
     1
290
     1
176
     1
290
     1
176
     1
290
     0
176
     1
290
     0
176
     1
290
     0
176
     1
290
     0
176
     1
290
     0
176
     1
290
     0
176
     1
 90
       50
176
     1
 40
0.0
176
     1
 40
1.0
176
     1
 90
        0
176
     1
 62
    18
420
        0
176
     1
 90
       50
176
     1
 90
        3
176
     1
 62
     5
420
      255
176
     1
290
     0
176
     1
 90
       50
176
     1
 90
       50
176
     1
 90
       50
176
     1
290
     0
176
     1
 90
       50
176
     1
 62
   256
176
     0
 40
1.0
176
     0
 90
        2
176
     1
  1
strokes_ogs.tif
176
     1
290
     0
176
     1
 40
1.0
176
     1
 40
1.0
176
     1
1001
ACAD
1000
AcDbSavedByObjectVersion
1070
     0
  0
VISUALSTYLE
  5
3B
102
{ACAD_REACTORS
330
29
102
}
330
29
100
AcDbVisualStyle
  2
Sketchy
 70
    24
177
     3
291
     0
 70
    58
 90
        1
176
     1
 90
        2
176
     1
 90
        2
176
     1
 90
        0
176
     1
 40
0.6
176
     1
 40
30.0
176
     1
 62
     7
420
 16777215
176
     1
 90
        2
176
     1
 90
        2
176
     1
 62
     7
176
     1
 62
     7
176
     1
 90
        1
176
     1
 90
        1
176
     1
 40
40.0
176
     1
 90
       11
176
     1
 62
     7
176
     1
 40
1.0
176
     1
 90
        1
176
     1
 90
        6
176
     1
 90
        2
176
     1
 62
     7
176
     1
 90
        6
176
     1
 90
        0
176
     1
 90
        0
176
     1
290
     0
176
     1
 90
        1
176
     1
 40
0.0
176
     1
 90
        0
176
     1
290
     0
176
     1
290
     1
176
     1
290
     1
176
     1
290
     0
176
     1
290
     0
176
     1
290
     0
176
     1
290
     0
176
     1
290
     0
176
     1
290
     0
176
     1
 90
       50
176
     1
 40
0.0
176
     1
 40
1.0
176
     1
 90
        0
176
     1
 62
    18
420
        0
176
     1
 90
       50
176
     1
 90
        3
176
     1
 62
     5
420
      255
176
     1
290
     0
176
     1
 90
       50
176
     1
 90
       50
176
     1
 90
       50
176
     1
290
     0
176
     1
 90
       50
176
     1
 62
   256
176
     0
 40
1.0
176
     0
 90
        2
176
     1
  1
strokes_ogs.tif
176
     1
290
     0
176
     1
 40
1.0
176
     1
 40
1.0
176
     1
1001
ACAD
1000
AcDbSavedByObjectVersion
1070
     0
  0
VISUALSTYLE
  5
36
102
{ACAD_REACTORS
330
29
102
}
330
29
100
AcDbVisualStyle
  2
Thicken
 70
    13
177
     3
291
     1
 70
    58
 90
        2
176
     1
 90
        2
176
     1
 90
        0
176
     1
 90
        0
176
     1
 40
0.6
176
     1
 40
30.0
176
     1
 62
     7
420
 16777215
176
     1
 90
        1
176
     1
 90
        4
176
     1
 62
     7
176
     1
 62
   257
176
     1
 90
        1
176
     1
 90
        1
176
     1
 40
1.0
176
     1
 90
       12
176
     1
 62
     7
176
     1
 40
1.0
176
     1
 90
        1
176
     1
 90
        6
176
     1
 90
        2
176
     1
 62
     7
176
     1
 90
        5
176
     1
 90
        0
176
     1
 90
        0
176
     1
290
     0
176
     1
 90
        1
176
     1
 40
0.0
176
     1
 90
        0
176
     1
290
     0
176
     1
290
     1
176
     1
290
     1
176
     1
290
     0
176
     1
290
     0
176
     1
290
     0
176
     1
290
     0
176
     1
290
     0
176
     1
290
     0
176
     1
 90
       50
176
     1
 40
0.0
176
     1
 40
1.0
176
     1
 90
        0
176
     1
 62
    18
420
        0
176
     1
 90
       50
176
     1
 90
        3
176
     1
 62
     5
420
      255
176
     1
290
     0
176
     1
 90
       50
176
     1
 90
       50
176
     1
 90
       50
176
     1
290
     0
176
     1
 90
       50
176
     1
 62
   256
176
     0
 40
1.0
176
     0
 90
        2
176
     1
  1
strokes_ogs.tif
176
     1
290
     0
176
     1
 40
1.0
176
     1
 40
1.0
176
     1
1001
ACAD
1000
AcDbSavedByObjectVersion
1070
     0
  0
VISUALSTYLE
  5
30
102
{ACAD_REACTORS
330
29
102
}
330
29
100
AcDbVisualStyle
  2
Wireframe
 70
     5
177
     3
291
     0
 70
    58
 90
        0
176
     1
 90
        2
176
     1
 90
        0
176
     1
 90
        0
176
     1
 40
0.6
176
     1
 40
30.0
176
     1
 62
     7
420
 16777215
176
     1
 90
        1
176
     1
 90
        4
176
     1
 62
     7
176
     1
 62
   257
176
     1
 90
        1
176
     1
 90
        1
176
     1
 40
1.0
176
     1
 90
        0
176
     1
 62
   257
176
     1
 40
1.0
176
     1
 90
        1
176
     1
 90
        6
176
     1
 90
        2
176
     1
 62
     7
176
     1
 90
        3
176
     1
 90
        0
176
     1
 90
        0
176
     1
290
     0
176
     1
 90
        1
176
     1
 40
0.0
176
     1
 90
        0
176
     1
290
     0
176
     1
290
     1
176
     1
290
     1
176
     1
290
     0
176
     1
290
     0
176
     1
290
     0
176
     1
290
     0
176
     1
290
     0
176
     1
290
     0
176
     1
 90
       50
176
     1
 40
0.0
176
     1
 40
1.0
176
     1
 90
        0
176
     1
 62
    18
420
        0
176
     1
 90
       50
176
     1
 90
        3
176
     1
 62
     5
420
      255
176
     1
290
     0
176
     1
 90
       50
176
     1
 90
       50
176
     1
 90
       50
176
     1
290
     0
176
     1
 90
       50
176
     1
 62
   256
176
     0
 40
1.0
176
     0
 90
        2
176
     1
  1
strokes_ogs.tif
176
     1
290
     0
176
     1
 40
1.0
176
     1
 40
1.0
176
     1
1001
ACAD
1000
AcDbSavedByObjectVersion
1070
     0
  0
VISUALSTYLE
  5
3C
102
{ACAD_REACTORS
330
29
102
}
330
29
100
AcDbVisualStyle
  2
X-Ray
 70
    25
177
     3
291
     0
 70
    58
 90
        2
176
     1
 90
        2
176
     1
 90
        1
176
     1
 90
        1
176
     1
 40
0.5
176
     1
 40
30.0
176
     1
 62
     7
420
 16777215
176
     1
 90
        1
176
     1
 90
        0
176
     1
 62
     7
176
     1
 62
   257
176
     1
 90
        1
176
     1
 90
        1
176
     1
 40
1.0
176
     1
 90
        8
176
     1
 62
     7
176
     1
 40
1.0
176
     1
 90
        1
176
     1
 90
        6
176
     1
 90
        2
176
     1
 62
     7
176
     1
 90
        3
176
     1
 90
        0
176
     1
 90
        0
176
     1
290
     0
176
     1
 90
       13
176
     1
 40
0.0
176
     1
 90
        0
176
     1
290
     0
176
     1
290
     1
176
     1
290
     1
176
     1
290
     0
176
     1
290
     0
176
     1
290
     0
176
     1
290
     0
176
     1
290
     0
176
     1
290
     0
176
     1
 90
       50
176
     1
 40
0.0
176
     1
 40
1.0
176
     1
 90
        0
176
     1
 62
    18
420
        0
176
     1
 90
       50
176
     1
 90
        3
176
     1
 62
     5
420
      255
176
     1
290
     0
176
     1
 90
       50
176
     1
 90
       50
176
     1
 90
       50
176
     1
290
     0
176
     1
 90
       50
176
     1
 62
   256
176
     0
 40
1.0
176
     0
 90
        2
176
     1
  1
strokes_ogs.tif
176
     1
290
     0
176
     1
 40
1.0
176
     1
 40
1.0
176
     1
1001
ACAD
1000
AcDbSavedByObjectVersion
1070
     0
  0
DICTIONARYVAR
  5
89
102
{ACAD_REACTORS
330
84
102
}
330
84
100
DictionaryVariables
280
     0
  1
1:1
  0
DICTIONARYVAR
  5
86
102
{ACAD_REACTORS
330
84
102
}
330
84
100
DictionaryVariables
280
     0
  1
STANDARD
  0
DICTIONARYVAR
  5
85
102
{ACAD_REACTORS
330
84
102
}
330
84
100
DictionaryVariables
280
     0
  1
STANDARD
  0
DICTIONARYVAR
  5
87
102
{ACAD_REACTORS
330
84
102
}
330
84
100
DictionaryVariables
280
     0
  1
Imperial24
  0
DICTIONARYVAR
  5
88
102
{ACAD_REACTORS
330
84
102
}
330
84
100
DictionaryVariables
280
     0
  1
Imperial24
  0
DICTIONARY
  5
8F
330
6B
100
AcDbDictionary
280
     1
281
     1
  3
ACAD_XREC_ROUNDTRIP
360
90
  0
DICTIONARY
  5
1A
330
19
100
AcDbDictionary
280
     1
281
     1
  3
BUMPTILE
360
1C
  3
DIFFUSETILE
360
1B
  3
OPACITYTILE
360
1F
  3
REFLECTIONTILE
360
1E
  3
REFRACTIONTILE
360
20
  3
SPECULARTILE
360
1D
  0
DICTIONARY
  5
12
330
11
100
AcDbDictionary
280
     1
281
     1
  3
BUMPTILE
360
14
  3
DIFFUSETILE
360
13
  3
OPACITYTILE
360
17
  3
REFLECTIONTILE
360
16
  3
REFRACTIONTILE
360
18
  3
SPECULARTILE
360
15
  0
DICTIONARY
  5
22
330
21
100
AcDbDictionary
280
     1
281
     1
  3
BUMPTILE
360
24
  3
DIFFUSETILE
360
23
  3
OPACITYTILE
360
27
  3
REFLECTIONTILE
360
26
  3
REFRACTIONTILE
360
28
  3
SPECULARTILE
360
25
  0
DICTIONARY
  5
8D
330
69
100
AcDbDictionary
280
     1
281
     1
  3
ACAD_XREC_ROUNDTRIP
360
8E
  0
DICTIONARY
  5
8A
330
65
100
AcDbDictionary
280
     1
281
     1
  3
ACAD_ROUNDTRIP_2008_TABLESTYLE_CELLSTYLEMAP
360
8B
  0
XRECORD
  5
90
102
{ACAD_REACTORS
330
8F
102
}
330
8F
100
AcDbXrecord
280
     1
102
DISPLAYNAME
  1
Imperial24
102
FLAGS
 90
        0
  0
XRECORD
  5
1C
102
{ACAD_REACTORS
330
1A
102
}
330
1A
100
AcDbXrecord
280
     1
270
     1
271
     1
  0
XRECORD
  5
1B
102
{ACAD_REACTORS
330
1A
102
}
330
1A
100
AcDbXrecord
280
     1
270
     1
271
     1
  0
XRECORD
  5
1F
102
{ACAD_REACTORS
330
1A
102
}
330
1A
100
AcDbXrecord
280
     1
270
     1
271
     1
  0
XRECORD
  5
1E
102
{ACAD_REACTORS
330
1A
102
}
330
1A
100
AcDbXrecord
280
     1
270
     1
271
     1
  0
XRECORD
  5
20
102
{ACAD_REACTORS
330
1A
102
}
330
1A
100
AcDbXrecord
280
     1
270
     1
271
     1
  0
XRECORD
  5
1D
102
{ACAD_REACTORS
330
1A
102
}
330
1A
100
AcDbXrecord
280
     1
270
     1
271
     1
  0
XRECORD
  5
14
102
{ACAD_REACTORS
330
12
102
}
330
12
100
AcDbXrecord
280
     1
270
     1
271
     1
  0
XRECORD
  5
13
102
{ACAD_REACTORS
330
12
102
}
330
12
100
AcDbXrecord
280
     1
270
     1
271
     1
  0
XRECORD
  5
17
102
{ACAD_REACTORS
330
12
102
}
330
12
100
AcDbXrecord
280
     1
270
     1
271
     1
  0
XRECORD
  5
16
102
{ACAD_REACTORS
330
12
102
}
330
12
100
AcDbXrecord
280
     1
270
     1
271
     1
  0
XRECORD
  5
18
102
{ACAD_REACTORS
330
12
102
}
330
12
100
AcDbXrecord
280
     1
270
     1
271
     1
  0
XRECORD
  5
15
102
{ACAD_REACTORS
330
12
102
}
330
12
100
AcDbXrecord
280
     1
270
     1
271
     1
  0
XRECORD
  5
24
102
{ACAD_REACTORS
330
22
102
}
330
22
100
AcDbXrecord
280
     1
270
     1
271
     1
  0
XRECORD
  5
23
102
{ACAD_REACTORS
330
22
102
}
330
22
100
AcDbXrecord
280
     1
270
     1
271
     1
  0
XRECORD
  5
27
102
{ACAD_REACTORS
330
22
102
}
330
22
100
AcDbXrecord
280
     1
270
     1
271
     1
  0
XRECORD
  5
26
102
{ACAD_REACTORS
330
22
102
}
330
22
100
AcDbXrecord
280
     1
270
     1
271
     1
  0
XRECORD
  5
28
102
{ACAD_REACTORS
330
22
102
}
330
22
100
AcDbXrecord
280
     1
270
     1
271
     1
  0
XRECORD
  5
25
102
{ACAD_REACTORS
330
22
102
}
330
22
100
AcDbXrecord
280
     1
270
     1
271
     1
  0
XRECORD
  5
8E
102
{ACAD_REACTORS
330
8D
102
}
330
8D
100
AcDbXrecord
280
     1
102
DISPLAYNAME
  1
Imperial24
102
FLAGS
 90
        0
  0
CELLSTYLEMAP
  5
8B
102
{ACAD_REACTORS
330
8A
102
}
330
8A
100
AcDbCellStyleMap
 90
        3
300
CELLSTYLE
  1
TABLEFORMAT_BEGIN
 90
        5
170
     1
 91
        0
 92
    32768
 62
   257
 93
        1
300
CONTENTFORMAT
  1
CONTENTFORMAT_BEGIN
 90
        0
 91
        0
 92
      512
 93
        0
300

 40
0.0
140
1.0
 94
        5
 62
     0
340
55
144
0.25
309
CONTENTFORMAT_END
171
     0
 94
        0
309
TABLEFORMAT_END
  1
CELLSTYLE_BEGIN
 90
        1
 91
        1
300
_TITLE
309
CELLSTYLE_END
300
CELLSTYLE
  1
TABLEFORMAT_BEGIN
 90
        5
170
     1
 91
        0
 92
        0
 62
   257
 93
        1
300
CONTENTFORMAT
  1
CONTENTFORMAT_BEGIN
 90
        0
 91
        0
 92
      512
 93
        0
300

 40
0.0
140
1.0
 94
        5
 62
     0
340
55
144
0.18
309
CONTENTFORMAT_END
171
     0
 94
        0
309
TABLEFORMAT_END
  1
CELLSTYLE_BEGIN
 90
        2
 91
        1
300
_HEADER
309
CELLSTYLE_END
300
CELLSTYLE
  1
TABLEFORMAT_BEGIN
 90
        5
170
     1
 91
        0
 92
        0
 62
   257
 93
        1
300
CONTENTFORMAT
  1
CONTENTFORMAT_BEGIN
 90
        0
 91
        0
 92
      512
 93
        0
300

 40
0.0
140
1.0
 94
        2
 62
     0
340
55
144
0.18
309
CONTENTFORMAT_END
171
     0
 94
        0
309
TABLEFORMAT_END
  1
CELLSTYLE_BEGIN
 90
        3
 91
        2
300
_DATA
309
CELLSTYLE_END
  0
ENDSEC
  0
EOF
