  0
SECTION
  2
HEADER
  9
$ACADVER
  1
AC1027
  9
$ACADMAINTVER
 70
   125
  9
$DWGCODEPAGE
  3
ANSI_1252
  9
$REQUIREDVERSIONS
160
                 0
  9
$INSBASE
 10
0.0
 20
0.0
 30
0.0
  9
$EXTMIN
 10
1.000000000000000E+20
 20
1.000000000000000E+20
 30
1.000000000000000E+20
  9
$EXTMAX
 10
-1.000000000000000E+20
 20
-1.000000000000000E+20
 30
-1.000000000000000E+20
  9
$LIMMIN
 10
0.0
 20
0.0
  9
$LIMMAX
 10
12.0
 20
9.0
  9
$ORTHOMODE
 70
     0
  9
$REGENMODE
 70
     1
  9
$FILLMODE
 70
     1
  9
$QTEXTMODE
 70
     0
  9
$MIRRTEXT
 70
     0
  9
$LTSCALE
 40
1.0
  9
$ATTMODE
 70
     1
  9
$TEXTSIZE
 40
0.2
  9
$TRACEWID
 40
0.05
  9
$TEXTSTYLE
  7
Standard
  9
$CLAYER
  8
0
  9
$CELTYPE
  6
ByLayer
  9
$CECOLOR
 62
   256
  9
$CELTSCALE
 40
1.0
  9
$DISPSILH
 70
     0
  9
$DIMSCALE
 40
1.0
  9
$DIMASZ
 40
0.18
  9
$DIMEXO
 40
0.0625
  9
$DIMDLI
 40
0.38
  9
$DIMRND
 40
0.0
  9
$DIMDLE
 40
0.0
  9
$DIMEXE
 40
0.18
  9
$DIMTP
 40
0.0
  9
$DIMTM
 40
0.0
  9
$DIMTXT
 40
0.18
  9
$DIMCEN
 40
0.09
  9
$DIMTSZ
 40
0.0
  9
$DIMTOL
 70
     0
  9
$DIMLIM
 70
     0
  9
$DIMTIH
 70
     1
  9
$DIMTOH
 70
     1
  9
$DIMSE1
 70
     0
  9
$DIMSE2
 70
     0
  9
$DIMTAD
 70
     0
  9
$DIMZIN
 70
     0
  9
$DIMBLK
  1

  9
$DIMASO
 70
     1
  9
$DIMSHO
 70
     1
  9
$DIMPOST
  1

  9
$DIMAPOST
  1

  9
$DIMALT
 70
     0
  9
$DIMALTD
 70
     2
  9
$DIMALTF
 40
25.4
  9
$DIMLFAC
 40
1.0
  9
$DIMTOFL
 70
     0
  9
$DIMTVP
 40
0.0
  9
$DIMTIX
 70
     0
  9
$DIMSOXD
 70
     0
  9
$DIMSAH
 70
     0
  9
$DIMBLK1
  1

  9
$DIMBLK2
  1

  9
$DIMSTYLE
  2
Standard
  9
$DIMCLRD
 70
     0
  9
$DIMCLRE
 70
     0
  9
$DIMCLRT
 70
     0
  9
$DIMTFAC
 40
1.0
  9
$DIMGAP
 40
0.09
  9
$DIMJUST
 70
     0
  9
$DIMSD1
 70
     0
  9
$DIMSD2
 70
     0
  9
$DIMTOLJ
 70
     1
  9
$DIMTZIN
 70
     0
  9
$DIMALTZ
 70
     0
  9
$DIMALTTZ
 70
     0
  9
$DIMUPT
 70
     0
  9
$DIMDEC
 70
     4
  9
$DIMTDEC
 70
     4
  9
$DIMALTU
 70
     2
  9
$DIMALTTD
 70
     2
  9
$DIMTXSTY
  7
Standard
  9
$DIMAUNIT
 70
     0
  9
$DIMADEC
 70
     0
  9
$DIMALTRND
 40
0.0
  9
$DIMAZIN
 70
     0
  9
$DIMDSEP
 70
    46
  9
$DIMATFIT
 70
     3
  9
$DIMFRAC
 70
     0
  9
$DIMLDRBLK
  1

  9
$DIMLUNIT
 70
     2
  9
$DIMLWD
 70
    -2
  9
$DIMLWE
 70
    -2
  9
$DIMTMOVE
 70
     0
  9
$DIMFXL
 40
1.0
  9
$DIMFXLON
 70
     0
  9
$DIMJOGANG
 40
0.7853981633974483
  9
$DIMTFILL
 70
     0
  9
$DIMTFILLCLR
 70
     0
  9
$DIMARCSYM
 70
     0
  9
$DIMLTYPE
  6

  9
$DIMLTEX1
  6

  9
$DIMLTEX2
  6

  9
$DIMTXTDIRECTION
 70
     0
  9
$LUNITS
 70
     2
  9
$LUPREC
 70
     4
  9
$SKETCHINC
 40
0.1
  9
$FILLETRAD
 40
0.0
  9
$AUNITS
 70
     0
  9
$AUPREC
 70
     0
  9
$MENU
  1
.
  9
$ELEVATION
 40
0.0
  9
$PELEVATION
 40
0.0
  9
$THICKNESS
 40
0.0
  9
$LIMCHECK
 70
     0
  9
$CHAMFERA
 40
0.0
  9
$CHAMFERB
 40
0.0
  9
$CHAMFERC
 40
0.0
  9
$CHAMFERD
 40
0.0
  9
$SKPOLY
 70
     0
  9
$TDCREATE
 40
2459734.945601852
  9
$TDUCREATE
 40
2459734.528935185
  9
$TDUPDATE
 40
2459734.945601852
  9
$TDUUPDATE
 40
2459734.528935185
  9
$TDINDWG
 40
0.0000000000
  9
$TDUSRTIMER
 40
0.0000000000
  9
$USRTIMER
 70
     1
  9
$ANGBASE
 50
0.0
  9
$ANGDIR
 70
     0
  9
$PDMODE
 70
     0
  9
$PDSIZE
 40
0.0
  9
$PLINEWID
 40
0.0
  9
$SPLFRAME
 70
     0
  9
$SPLINETYPE
 70
     6
  9
$SPLINESEGS
 70
     8
  9
$HANDSEED
  5
91
  9
$SURFTAB1
 70
     6
  9
$SURFTAB2
 70
     6
  9
$SURFTYPE
 70
     6
  9
$SURFU
 70
     6
  9
$SURFV
 70
     6
  9
$UCSBASE
  2

  9
$UCSNAME
  2

  9
$UCSORG
 10
0.0
 20
0.0
 30
0.0
  9
$UCSXDIR
 10
1.0
 20
0.0
 30
0.0
  9
$UCSYDIR
 10
0.0
 20
1.0
 30
0.0
  9
$UCSORTHOREF
  2

  9
$UCSORTHOVIEW
 70
     0
  9
$UCSORGTOP
 10
0.0
 20
0.0
 30
0.0
  9
$UCSORGBOTTOM
 10
0.0
 20
0.0
 30
0.0
  9
$UCSORGLEFT
 10
0.0
 20
0.0
 30
0.0
  9
$UCSORGRIGHT
 10
0.0
 20
0.0
 30
0.0
  9
$UCSORGFRONT
 10
0.0
 20
0.0
 30
0.0
  9
$UCSORGBACK
 10
0.0
 20
0.0
 30
0.0
  9
$PUCSBASE
  2

  9
$PUCSNAME
  2

  9
$PUCSORG
 10
0.0
 20
0.0
 30
0.0
  9
$PUCSXDIR
 10
1.0
 20
0.0
 30
0.0
  9
$PUCSYDIR
 10
0.0
 20
1.0
 30
0.0
  9
$PUCSORTHOREF
  2

  9
$PUCSORTHOVIEW
 70
     0
  9
$PUCSORGTOP
 10
0.0
 20
0.0
 30
0.0
  9
$PUCSORGBOTTOM
 10
0.0
 20
0.0
 30
0.0
  9
$PUCSORGLEFT
 10
0.0
 20
0.0
 30
0.0
  9
$PUCSORGRIGHT
 10
0.0
 20
0.0
 30
0.0
  9
$PUCSORGFRONT
 10
0.0
 20
0.0
 30
0.0
  9
$PUCSORGBACK
 10
0.0
 20
0.0
 30
0.0
  9
$USERI1
 70
     0
  9
$USERI2
 70
     0
  9
$USERI3
 70
     0
  9
$USERI4
 70
     0
  9
$USERI5
 70
     0
  9
$USERR1
 40
0.0
  9
$USERR2
 40
0.0
  9
$USERR3
 40
0.0
  9
$USERR4
 40
0.0
  9
$USERR5
 40
0.0
  9
$WORLDVIEW
 70
     1
  9
$SHADEDGE
 70
     3
  9
$SHADEDIF
 70
    70
  9
$TILEMODE
 70
     1
  9
$MAXACTVP
 70
    64
  9
$PINSBASE
 10
0.0
 20
0.0
 30
0.0
  9
$PLIMCHECK
 70
     0
  9
$PEXTMIN
 10
1.000000000000000E+20
 20
1.000000000000000E+20
 30
1.000000000000000E+20
  9
$PEXTMAX
 10
-1.000000000000000E+20
 20
-1.000000000000000E+20
 30
-1.000000000000000E+20
  9
$PLIMMIN
 10
0.0
 20
0.0
  9
$PLIMMAX
 10
12.0
 20
9.0
  9
$UNITMODE
 70
     0
  9
$VISRETAIN
 70
     1
  9
$PLINEGEN
 70
     0
  9
$PSLTSCALE
 70
     1
  9
$TREEDEPTH
 70
  3020
  9
$CMLSTYLE
  2
Standard
  9
$CMLJUST
 70
     0
  9
$CMLSCALE
 40
1.0
  9
$PROXYGRAPHICS
 70
     1
  9
$MEASUREMENT
 70
     0
  9
$CELWEIGHT
370
    -1
  9
$ENDCAPS
280
     0
  9
$JOINSTYLE
280
     0
  9
$LWDISPLAY
290
     1
  9
$INSUNITS
 70
     4
  9
$HYPERLINKBASE
  1

  9
$STYLESHEET
  1

  9
$XEDIT
290
     1
  9
$CEPSNTYPE
380
     0
  9
$PSTYLEMODE
290
     1
  9
$FINGERPRINTGUID
  2
{95927574-8212-C143-9E65-51A3EFA9C164}
  9
$VERSIONGUID
  2
{AC7EF038-7404-804E-B52C-724F7F43FA8A}
  9
$EXTNAMES
290
     1
  9
$PSVPSCALE
 40
0.0
  9
$OLESTARTUP
290
     0
  9
$SORTENTS
280
   127
  9
$INDEXCTL
280
     0
  9
$HIDETEXT
280
     1
  9
$XCLIPFRAME
280
     2
  9
$HALOGAP
280
     0
  9
$OBSCOLOR
 70
   257
  9
$OBSLTYPE
280
     0
  9
$INTERSECTIONDISPLAY
280
     0
  9
$INTERSECTIONCOLOR
 70
   257
  9
$DIMASSOC
280
     2
  9
$PROJECTNAME
  1

  9
$CAMERADISPLAY
290
     0
  9
$LENSLENGTH
 40
50.0
  9
$CAMERAHEIGHT
 40
0.0
  9
$STEPSPERSEC
 40
2.0
  9
$STEPSIZE
 40
6.0
  9
$3DDWFPREC
 40
2.0
  9
$PSOLWIDTH
 40
0.25
  9
$PSOLHEIGHT
 40
4.0
  9
$LOFTANG1
 40
1.570796326794896
  9
$LOFTANG2
 40
1.570796326794896
  9
$LOFTMAG1
 40
0.0
  9
$LOFTMAG2
 40
0.0
  9
$LOFTPARAM
 70
     7
  9
$LOFTNORMALS
280
     1
  9
$LATITUDE
 40
37.795
  9
$LONGITUDE
 40
-122.394
  9
$NORTHDIRECTION
 40
0.0
  9
$TIMEZONE
 70
 -8000
  9
$LIGHTGLYPHDISPLAY
280
     1
  9
$TILEMODELIGHTSYNCH
280
     1
  9
$CMATERIAL
347
11
  9
$SOLIDHIST
280
     0
  9
$SHOWHIST
280
     1
  9
$DWFFRAME
280
     2
  9
$DGNFRAME
280
     0
  9
$REALWORLDSCALE
290
     1
  9
$INTERFERECOLOR
 62
     1
  9
$INTERFEREOBJVS
345
33
  9
$INTERFEREVPVS
346
30
  9
$CSHADOW
280
     0
  9
$SHADOWPLANELOCATION
 40
0.0
  0
ENDSEC
  0
SECTION
  2
CLASSES
  0
CLASS
  1
ACDBDICTIONARYWDFLT
  2
AcDbDictionaryWithDefault
  3
ObjectDBX Classes
 90
        0
 91
        1
280
     0
281
     0
  0
CLASS
  1
MATERIAL
  2
AcDbMaterial
  3
ObjectDBX Classes
 90
     1153
 91
        3
280
     0
281
     0
  0
CLASS
  1
VISUALSTYLE
  2
AcDbVisualStyle
  3
ObjectDBX Classes
 90
     4095
 91
       24
280
     0
281
     0
  0
CLASS
  1
SCALE
  2
AcDbScale
  3
ObjectDBX Classes
 90
     1153
 91
       17
280
     0
281
     0
  0
CLASS
  1
TABLESTYLE
  2
AcDbTableStyle
  3
ObjectDBX Classes
 90
     4095
 91
        1
280
     0
281
     0
  0
CLASS
  1
MLEADERSTYLE
  2
AcDbMLeaderStyle
  3
ACDB_MLEADERSTYLE_CLASS
 90
     4095
 91
        1
280
     0
281
     0
  0
CLASS
  1
ACDBSECTIONVIEWSTYLE
  2
AcDbSectionViewStyle
  3
ObjectDBX Classes
 90
     1025
 91
        1
280
     0
281
     0
  0
CLASS
  1
ACDBDETAILVIEWSTYLE
  2
AcDbDetailViewStyle
  3
ObjectDBX Classes
 90
     1025
 91
        1
280
     0
281
     0
  0
CLASS
  1
DICTIONARYVAR
  2
AcDbDictionaryVar
  3
ObjectDBX Classes
 90
        0
 91
        5
280
     0
281
     0
  0
CLASS
  1
CELLSTYLEMAP
  2
AcDbCellStyleMap
  3
ObjectDBX Classes
 90
     1152
 91
        1
280
     0
281
     0
  0
ENDSEC
  0
SECTION
  2
TABLES
  0
TABLE
  2
VPORT
  5
8
330
0
100
AcDbSymbolTable
 70
     1
1001
ACAD
1000
DbSaveVer
1071
      247
  0
VPORT
  5
57
330
8
100
AcDbSymbolTableRecord
100
AcDbViewportTableRecord
  2
*Active
 70
     0
 10
0.0
 20
0.0
 11
1.0
 21
1.0
 12
0.0
 22
0.0
 13
0.0
 23
0.0
 14
1.0
 24
1.0
 15
0.0
 25
0.0
 16
0.0
 26
0.0
 36
1.0
 17
-111.9583333053439
 27
3.302777776952218
 37
0.0
 40
214.1999999464498
 41
0.9999999999999998
 42
50.0
 43
0.0
 44
0.0
 50
0.0
 51
0.0
 71
     0
 72
   100
 73
     1
 74
     1
 75
     0
 76
     0
 77
     0
 78
     0
281
     0
 65
     1
110
0.0
120
0.0
130
0.0
111
1.0
121
0.0
131
0.0
112
0.0
122
1.0
132
0.0
 79
     0
146
0.0
 60
     3
 61
     5
292
     1
282
     1
141
0.0
142
0.0
 63
   250
421
  3355443
  0
ENDTAB
  0
TABLE
  2
LTYPE
  5
5
330
0
100
AcDbSymbolTable
 70
     1
  0
LTYPE
  5
5B
330
5
100
AcDbSymbolTableRecord
100
AcDbLinetypeTableRecord
  2
ByBlock
 70
     0
  3

 72
    65
 73
     0
 40
0.0
  0
LTYPE
  5
5C
330
5
100
AcDbSymbolTableRecord
100
AcDbLinetypeTableRecord
  2
ByLayer
 70
     0
  3

 72
    65
 73
     0
 40
0.0
  0
LTYPE
  5
5D
330
5
100
AcDbSymbolTableRecord
100
AcDbLinetypeTableRecord
  2
Continuous
 70
     0
  3
Solid line
 72
    65
 73
     0
 40
0.0
  0
ENDTAB
  0
TABLE
  2
LAYER
  5
2
330
0
100
AcDbSymbolTable
 70
     2
  0
LAYER
  5
54
330
2
100
AcDbSymbolTableRecord
100
AcDbLayerTableRecord
  2
0
 70
     0
 62
     7
  6
Continuous
370
    -3
390
F
347
21
348
0
  0
LAYER
  5
78
330
2
100
AcDbSymbolTableRecord
100
AcDbLayerTableRecord
  2
Layer 1
 70
     0
 62
     7
  6
Continuous
370
     0
390
F
347
21
348
0
  0
ENDTAB
  0
TABLE
  2
STYLE
  5
3
330
0
100
AcDbSymbolTable
 70
     2
  0
STYLE
  5
55
330
3
100
AcDbSymbolTableRecord
100
AcDbTextStyleTableRecord
  2
Standard
 70
     0
 40
0.0
 41
1.0
 50
0.0
 71
     0
 42
0.2
  3
txt
  4

  0
STYLE
  5
5A
330
3
100
AcDbSymbolTableRecord
100
AcDbTextStyleTableRecord
  2
Annotative
 70
     0
 40
0.0
 41
1.0
 50
0.0
 71
     0
 42
0.2
  3
txt
  4

1001
AcadAnnotative
1000
AnnotativeData
1002
{
1070
     1
1070
     1
1002
}
  0
ENDTAB
  0
TABLE
  2
VIEW
  5
6
330
0
100
AcDbSymbolTable
 70
     0
  0
ENDTAB
  0
TABLE
  2
UCS
  5
7
330
0
100
AcDbSymbolTable
 70
     0
  0
ENDTAB
  0
TABLE
  2
APPID
  5
9
330
0
100
AcDbSymbolTable
 70
     2
  0
APPID
  5
56
330
9
100
AcDbSymbolTableRecord
100
AcDbRegAppTableRecord
  2
ACAD
 70
     0
  0
APPID
  5
5E
330
9
100
AcDbSymbolTableRecord
100
AcDbRegAppTableRecord
  2
AcadAnnotative
 70
     0
  0
ENDTAB
  0
TABLE
  2
DIMSTYLE
  5
A
330
0
100
AcDbSymbolTable
 70
     2
100
AcDbDimStyleTable
 71
     0
  0
DIMSTYLE
105
58
330
A
100
AcDbSymbolTableRecord
100
AcDbDimStyleTableRecord
  2
Standard
 70
     0
340
55
  0
DIMSTYLE
105
59
330
A
100
AcDbSymbolTableRecord
100
AcDbDimStyleTableRecord
  2
Annotative
 70
     0
340
55
1001
AcadAnnotative
1000
AnnotativeData
1002
{
1070
     1
1070
     1
1002
}
  0
ENDTAB
  0
TABLE
  2
BLOCK_RECORD
  5
1
330
0
100
AcDbSymbolTable
 70
     2
  0
BLOCK_RECORD
  5
70
330
1
100
AcDbSymbolTableRecord
100
AcDbBlockTableRecord
  2
*Model_Space
340
73
 70
     0
280
     1
281
     0
  0
BLOCK_RECORD
  5
6C
330
1
100
AcDbSymbolTableRecord
100
AcDbBlockTableRecord
  2
*Paper_Space
340
6F
 70
     0
280
     1
281
     0
  0
BLOCK_RECORD
  5
74
330
1
100
AcDbSymbolTableRecord
100
AcDbBlockTableRecord
  2
*Paper_Space0
340
77
 70
     0
280
     1
281
     0
  0
BLOCK_RECORD
  5
79
330
1
100
AcDbSymbolTableRecord
100
AcDbBlockTableRecord
  2
Block_0
340
0
102
{BLKREFS
331
7A
102
}
 70
     0
280
     1
281
     0
  0
ENDTAB
  0
ENDSEC
  0
SECTION
  2
BLOCKS
  0
BLOCK
  5
71
330
70
100
AcDbEntity
  8
0
100
AcDbBlockBegin
  2
*Model_Space
 70
     0
 10
0.0
 20
0.0
 30
0.0
  3
*Model_Space
  1

  0
ENDBLK
  5
72
330
70
100
AcDbEntity
  8
0
100
AcDbBlockEnd
  0
BLOCK
  5
6D
330
6C
100
AcDbEntity
 67
     1
  8
0
100
AcDbBlockBegin
  2
*Paper_Space
 70
     0
 10
0.0
 20
0.0
 30
0.0
  3
*Paper_Space
  1

  0
ENDBLK
  5
6E
330
6C
100
AcDbEntity
 67
     1
  8
0
100
AcDbBlockEnd
  0
BLOCK
  5
75
330
74
100
AcDbEntity
 67
     1
  8
0
100
AcDbBlockBegin
  2
*Paper_Space0
 70
     0
 10
0.0
 20
0.0
 30
0.0
  3
*Paper_Space0
  1

  0
ENDBLK
  5
76
330
74
100
AcDbEntity
 67
     1
  8
0
100
AcDbBlockEnd
  0
BLOCK
  5
7B
330
79
100
AcDbEntity
  8
0
100
AcDbBlockBegin
  2
Block_0
 70
     0
 10
0.0
 20
0.0
 30
0.0
  3
Block_0
  1

  0
SPLINE
  5
7D
330
79
100
AcDbEntity
  8
Layer 1
100
AcDbSpline
210
0.0
220
0.0
230
1.0
 70
     9
 71
     3
 72
   269
 73
   265
 74
     0
 42
0.0000000001
 43
0.0000000001
 40
0.0
 40
0.0
 40
0.0
 40
0.0
 40
1.0
 40
1.0
 40
1.0
 40
2.0
 40
2.0
 40
2.0
 40
3.0
 40
3.0
 40
3.0
 40
4.0
 40
4.0
 40
4.0
 40
5.0
 40
5.0
 40
5.0
 40
6.0
 40
6.0
 40
6.0
 40
7.0
 40
7.0
 40
7.0
 40
8.0
 40
8.0
 40
8.0
 40
9.0
 40
9.0
 40
9.0
 40
10.0
 40
10.0
 40
10.0
 40
11.0
 40
11.0
 40
11.0
 40
12.0
 40
12.0
 40
12.0
 40
13.0
 40
13.0
 40
13.0
 40
14.0
 40
14.0
 40
14.0
 40
15.0
 40
15.0
 40
15.0
 40
16.0
 40
16.0
 40
16.0
 40
17.0
 40
17.0
 40
17.0
 40
18.0
 40
18.0
 40
18.0
 40
19.0
 40
19.0
 40
19.0
 40
20.0
 40
20.0
 40
20.0
 40
21.0
 40
21.0
 40
21.0
 40
22.0
 40
22.0
 40
22.0
 40
23.0
 40
23.0
 40
23.0
 40
24.0
 40
24.0
 40
24.0
 40
25.0
 40
25.0
 40
25.0
 40
26.0
 40
26.0
 40
26.0
 40
27.0
 40
27.0
 40
27.0
 40
28.0
 40
28.0
 40
28.0
 40
29.0
 40
29.0
 40
29.0
 40
30.0
 40
30.0
 40
30.0
 40
31.0
 40
31.0
 40
31.0
 40
32.0
 40
32.0
 40
32.0
 40
33.0
 40
33.0
 40
33.0
 40
34.0
 40
34.0
 40
34.0
 40
35.0
 40
35.0
 40
35.0
 40
36.0
 40
36.0
 40
36.0
 40
37.0
 40
37.0
 40
37.0
 40
38.0
 40
38.0
 40
38.0
 40
39.0
 40
39.0
 40
39.0
 40
40.0
 40
40.0
 40
40.0
 40
41.0
 40
41.0
 40
41.0
 40
42.0
 40
42.0
 40
42.0
 40
43.0
 40
43.0
 40
43.0
 40
44.0
 40
44.0
 40
44.0
 40
45.0
 40
45.0
 40
45.0
 40
46.0
 40
46.0
 40
46.0
 40
47.0
 40
47.0
 40
47.0
 40
48.0
 40
48.0
 40
48.0
 40
49.0
 40
49.0
 40
49.0
 40
50.0
 40
50.0
 40
50.0
 40
51.0
 40
51.0
 40
51.0
 40
52.0
 40
52.0
 40
52.0
 40
53.0
 40
53.0
 40
53.0
 40
54.0
 40
54.0
 40
54.0
 40
55.0
 40
55.0
 40
55.0
 40
56.0
 40
56.0
 40
56.0
 40
57.0
 40
57.0
 40
57.0
 40
58.0
 40
58.0
 40
58.0
 40
59.0
 40
59.0
 40
59.0
 40
60.0
 40
60.0
 40
60.0
 40
61.0
 40
61.0
 40
61.0
 40
62.0
 40
62.0
 40
62.0
 40
63.0
 40
63.0
 40
63.0
 40
64.0
 40
64.0
 40
64.0
 40
65.0
 40
65.0
 40
65.0
 40
66.0
 40
66.0
 40
66.0
 40
67.0
 40
67.0
 40
67.0
 40
68.0
 40
68.0
 40
68.0
 40
69.0
 40
69.0
 40
69.0
 40
70.0
 40
70.0
 40
70.0
 40
71.0
 40
71.0
 40
71.0
 40
72.0
 40
72.0
 40
72.0
 40
73.0
 40
73.0
 40
73.0
 40
74.0
 40
74.0
 40
74.0
 40
75.0
 40
75.0
 40
75.0
 40
76.0
 40
76.0
 40
76.0
 40
77.0
 40
77.0
 40
77.0
 40
78.0
 40
78.0
 40
78.0
 40
79.0
 40
79.0
 40
79.0
 40
80.0
 40
80.0
 40
80.0
 40
81.0
 40
81.0
 40
81.0
 40
82.0
 40
82.0
 40
82.0
 40
83.0
 40
83.0
 40
83.0
 40
84.0
 40
84.0
 40
84.0
 40
85.0
 40
85.0
 40
85.0
 40
86.0
 40
86.0
 40
86.0
 40
87.0
 40
87.0
 40
87.0
 40
88.0
 40
88.0
 40
88.0
 40
88.0
 10
-36.01752699061404
 20
-12.58213251141075
 30
0.0
 10
-36.19650352945886
 20
-13.27480090703555
 30
0.0
 10
-36.64603398551748
 20
-13.86730654506844
 30
0.0
 10
-37.26578389361494
 20
-14.22537409448269
 30
0.0
 10
-37.26578389361494
 20
-14.22537409448269
 30
0.0
 10
-48.50066837923771
 20
-20.71626420139041
 30
0.0
 10
-48.50066837923771
 20
-20.71626420139041
 30
0.0
 10
-48.50066837923771
 20
-20.71626420139041
 30
0.0
 10
-58.7699266458447
 20
-26.6492191306142
 30
0.0
 10
-58.7699266458447
 20
-26.6492191306142
 30
0.0
 10
-58.7699266458447
 20
-26.6492191306142
 30
0.0
 10
-58.81285354195391
 20
-26.67400225862837
 30
0.0
 10
-58.81285354195391
 20
-26.67400225862837
 30
0.0
 10
-58.81285354195391
 20
-26.67400225862837
 30
0.0
 10
-54.32195614270748
 20
-34.44714737026647
 30
0.0
 10
-54.32195614270748
 20
-34.44714737026647
 30
0.0
 10
-54.32195614270748
 20
-34.44714737026647
 30
0.0
 10
-58.90723547753297
 20
-37.096251982967
 30
0.0
 10
-58.90723547753297
 20
-37.096251982967
 30
0.0
 10
-58.90723547753297
 20
-37.096251982967
 30
0.0
 10
-89.60941011292366
 20
-54.83416057813817
 30
0.0
 10
-89.60941011292366
 20
-54.83416057813817
 30
0.0
 10
-89.60941011292366
 20
-54.83416057813817
 30
0.0
 10
-94.10030751216881
 20
-47.06095823064419
 30
0.0
 10
-94.10030751216881
 20
-47.06095823064419
 30
0.0
 10
-94.10030751216881
 20
-47.06095823064419
 30
0.0
 10
-104.3696230146371
 20
-52.99397039572227
 30
0.0
 10
-104.3696230146371
 20
-52.99397039572227
 30
0.0
 10
-104.3696230146371
 20
-52.99397039572227
 30
0.0
 10
-115.6047936795672
 20
-59.48497497436068
 30
0.0
 10
-115.6047936795672
 20
-59.48497497436068
 30
0.0
 10
-115.7893220969767
 20
-59.59160538429284
 30
0.0
 10
-115.9868430549408
 20
-59.66704224972549
 30
0.0
 10
-116.1880271080402
 20
-59.7261668946362
 30
0.0
 10
-116.2477813474259
 20
-59.74368106824625
 30
0.0
 10
-116.3088520116238
 20
-59.75444141021
 30
0.0
 10
-116.3695792606529
 20
-59.76772013007329
 30
0.0
 10
-116.5188503873905
 20
-59.8004018069692
 30
0.0
 10
-116.6701247692807
 20
-59.8204343584897
 30
0.0
 10
-116.8228300477075
 20
-59.8271309542814
 30
0.0
 10
-116.8858467311967
 20
-59.82987827563206
 30
0.0
 10
-116.9486917070998
 20
-59.8341137293891
 30
0.0
 10
-117.0119373340343
 20
-59.83239665354219
 30
0.0
 10
-117.226400106997
 20
-59.82655859566865
 30
0.0
 10
-117.4414924744357
 20
-59.8036070152125
 30
0.0
 10
-117.6516625577877
 20
-59.74545537994935
 30
0.0
 10
-118.1684451510841
 20
-59.60179336764287
 30
0.0
 10
-118.6263320429181
 20
-59.30679973757267
 30
0.0
 10
-118.9691176173171
 20
-58.90385927275824
 30
0.0
 10
-119.0833603968301
 20
-58.76958394173119
 30
0.0
 10
-119.1847823433711
 20
-58.62323184392927
 30
0.0
 10
-119.2713802017895
 20
-58.46657729105689
 30
0.0
 10
-119.7556528257654
 20
-57.5913264973207
 30
0.0
 10
-120.1750199828241
 20
-56.75242047561602
 30
0.0
 10
-120.5369795708183
 20
-55.95008816940235
 30
0.0
 10
-120.5369795708183
 20
-55.95008816940235
 30
0.0
 10
-121.4588203558035
 20
-53.65361369926996
 30
0.0
 10
-121.4588203558035
 20
-53.65361369926996
 30
0.0
 10
-122.1391258053449
 20
-51.71091408893924
 30
0.0
 10
-122.4669155840378
 20
-50.03207180003382
 30
0.0
 10
-122.5881983745115
 20
-48.62532879659898
 30
0.0
 10
-122.6488111518186
 20
-47.92195729487755
 30
0.0
 10
-122.6578544179319
 20
-47.28663923246326
 30
0.0
 10
-122.6335291768027
 20
-46.72029038311988
 30
0.0
 10
-122.6335291768027
 20
-46.72029038311988
 30
0.0
 10
-122.4787634073632
 20
-45.229582370894
 30
0.0
 10
-122.4787634073632
 20
-45.229582370894
 30
0.0
 10
-122.2968678395824
 20
-44.1616184315516
 30
0.0
 10
-122.0207620438072
 20
-43.53156606838784
 30
0.0
 10
-121.9358240253708
 20
-43.35550855848188
 30
0.0
 10
-121.9136737469789
 20
-43.30920474654181
 30
0.0
 10
-121.8898063927416
 20
-43.26318711391743
 30
0.0
 10
-121.8649087929983
 20
-43.21865761367918
 30
0.0
 10
-119.4364484262957
 20
-38.84057209741386
 30
0.0
 10
-117.542456534086
 20
-33.90798555512695
 30
0.0
 10
-116.097537211043
 20
-29.28458713655913
 30
0.0
 10
-115.7362644533848
 20
-28.12870891398434
 30
0.0
 10
-115.4031517395758
 20
-26.99229088431762
 30
0.0
 10
-115.0967109372154
 20
-25.88855453154713
 30
0.0
 10
-114.7902701348563
 20
-24.78487541464183
 30
0.0
 10
-114.5106157156692
 20
-23.71393521050694
 30
0.0
 10
-114.2562595472546
 20
-22.68935605416766
 30
0.0
 10
-114.0867269255531
 20
-22.0063032832731
 30
0.0
 10
-113.9284697685636
 20
-21.34385542250955
 30
0.0
 10
-113.7810874252547
 20
-20.70596174632892
 30
0.0
 10
-113.1916152878798
 20
-18.15444427744401
 30
0.0
 10
-112.7764263487091
 20
-15.99625164864554
 30
0.0
 10
-112.5102223569692
 20
-14.48734263246681
 30
0.0
 10
-112.4436570500688
 20
-14.11010106946113
 30
0.0
 10
-112.3864211885896
 20
-13.77343973224239
 30
0.0
 10
-112.3380568856397
 20
-13.48136513110816
 30
0.0
 10
-112.2897498185512
 20
-13.18929052998291
 30
0.0
 10
-112.250314309992
 20
-12.9418026649412
 30
0.0
 10
-112.2194069447928
 20
-12.7428508104446
 30
0.0
 10
-112.2194069447928
 20
-12.7428508104446
 30
0.0
 10
-112.3276971947111
 20
-12.50268913567188
 30
0.0
 10
-112.5256760395685
 20
-12.06288877607099
 30
0.0
 10
-112.8737845490861
 20
-11.28854480611511
 30
0.0
 10
-113.5041230915562
 20
-9.881572859229148
 30
0.0
 10
-114.333241780945
 20
-8.0109331985121
 30
0.0
 10
-114.6648663623554
 20
-7.26263154552466
 30
0.0
 10
-115.0283140827489
 20
-6.440209451935246
 30
0.0
 10
-115.4182047711458
 20
-5.554370023822524
 30
0.0
 10
-115.8080954595413
 20
-4.668530595699535
 30
0.0
 10
-116.224486351804
 20
-3.719331068928052
 30
0.0
 10
-116.6619400410894
 20
-2.717531785460272
 30
0.0
 10
-117.7556028822347
 20
-0.2130621947137929
 30
0.0
 10
-118.9812516199517
 20
2.619941240928182
 30
0.0
 10
-120.2553791323405
 20
5.612689965955149
 30
0.0
 10
-121.0198785341195
 20
7.408293412276611
 30
0.0
 10
-121.8018348736485
 20
9.261418899393875
 30
0.0
 10
-122.5831616187021
 20
11.13549271180536
 30
0.0
 10
-123.624968769347
 20
13.63429595226327
 30
0.0
 10
-124.6656884386239
 20
16.17041697441183
 30
0.0
 10
-125.6627371455929
 20
18.65737239154826
 30
0.0
 10
-126.1612042632147
 20
19.9008214821826
 30
0.0
 10
-126.6487965671566
 20
21.13196486260378
 30
0.0
 10
-127.1200766505772
 20
22.34009942670299
 30
0.0
 10
-129.2408370259681
 20
27.77647602172717
 30
0.0
 10
-131.0318043675153
 20
32.74512115673859
 30
0.0
 10
-132.0061876733371
 20
36.26089118397035
 30
0.0
 10
-132.0061876733371
 20
36.26089118397035
 30
0.0
 10
-132.0041844181857
 20
36.25883069295157
 30
0.0
 10
-132.0041844181857
 20
36.25883069295157
 30
0.0
 10
-132.1725150867965
 20
36.80096877288294
 30
0.0
 10
-132.3267084976214
 20
37.33543724737375
 30
0.0
 10
-132.4685961982277
 20
37.86246505987482
 30
0.0
 10
-132.5925118383306
 20
38.32275585789815
 30
0.0
 10
-132.7040645323537
 20
38.77531981461574
 30
0.0
 10
-132.8092640457533
 20
39.22370555344149
 30
0.0
 10
-132.8421174302419
 20
39.3637044706223
 30
0.0
 10
-132.8723952009645
 20
39.50170013264022
 30
0.0
 10
-132.903531509609
 20
39.64043986086613
 30
0.0
 10
-132.9781098371168
 20
39.97320915950903
 30
0.0
 10
-133.0479375881206
 20
40.30242983473737
 30
0.0
 10
-133.1129575267624
 20
40.62821635828251
 30
0.0
 10
-133.1387709002883
 20
40.75785558452703
 30
0.0
 10
-133.1654428117376
 20
40.88806716939294
 30
0.0
 10
-133.1898252887288
 20
41.01661891427811
 30
0.0
 10
-133.2728172878739
 20
41.45407260356476
 30
0.0
 10
-133.3502001725936
 20
41.88711913151935
 30
0.0
 10
-133.4169371870781
 20
42.31140857266378
 30
0.0
 10
-133.4172233663848
 20
42.31427036573553
 30
0.0
 10
-133.4179674325848
 20
42.31724663052738
 30
0.0
 10
-133.4180246684462
 20
42.3203946029148
 30
0.0
 10
-134.4673869528069
 20
48.99936175064683
 30
0.0
 10
-133.5547611415198
 20
53.97361600008932
 30
0.0
 10
-132.9732447888915
 20
56.19866011509623
 30
0.0
 10
-132.9719283640762
 20
56.20421199365409
 30
0.0
 10
-132.9709553544309
 20
56.20953492877013
 30
0.0
 10
-132.9688948634188
 20
56.21491509975137
 30
0.0
 10
-132.8760582960991
 20
56.57103662987818
 30
0.0
 10
-132.7922649948934
 20
56.85532715384213
 30
0.0
 10
-132.7259286314395
 20
57.06423804824791
 30
0.0
 10
-132.7225517156122
 20
57.07505562606691
 30
0.0
 10
-132.7191175639236
 20
57.08736133628166
 30
0.0
 10
-132.7160840632649
 20
57.09772102720769
 30
0.0
 10
-132.6854056415117
 20
57.19216019864552
 30
0.0
 10
-132.6597639755684
 20
57.27108845162721
 30
0.0
 10
-132.6384149992378
 20
57.33135781376311
 30
0.0
 10
-132.6352097909939
 20
57.34177474055528
 30
0.0
 10
-132.6318328751665
 20
57.35087524253636
 30
0.0
 10
-132.6285704310625
 20
57.36003298037268
 30
0.0
 10
-132.6110562574499
 20
57.41080118950197
 30
0.0
 10
-132.5957742824359
 20
57.45355637802781
 30
0.0
 10
-132.5882191487193
 20
57.47335998609814
 30
0.0
 10
-132.5302964569035
 20
57.63087307688836
 30
0.0
 10
-132.4577213845471
 20
57.78100274154439
 30
0.0
 10
-132.372783366112
 20
57.92157401733732
 30
0.0
 10
-132.3304860644781
 20
57.99008534353644
 30
0.0
 10
-132.2858420925249
 20
58.05802431110357
 30
0.0
 10
-132.2376494971597
 20
58.12458961800596
 30
0.0
 10
-132.1241507838461
 20
58.27786725505006
 30
0.0
 10
-131.9961713975791
 20
58.41689316258106
 30
0.0
 10
-131.8568020748768
 20
58.54086603854759
 30
0.0
 10
-131.8568020748768
 20
58.54086603854759
 30
0.0
 10
-131.8837601656335
 20
58.58762773738028
 30
0.0
 10
-131.8837601656335
 20
58.58762773738028
 30
0.0
 10
-131.806720696083
 20
58.6321000017434
 30
0.0
 10
-131.7209241397246
 20
58.66083240420854
 30
0.0
 10
-131.6399353957315
 20
58.69734888383468
 30
0.0
 10
-131.5673603233764
 20
58.74954798950416
 30
0.0
 10
-131.4996502992459
 20
58.809531172334
 30
0.0
 10
-131.4226108296955
 20
58.8540606725623
 30
0.0
 10
-131.4226108296955
 20
58.8540606725623
 30
0.0
 10
-131.3955955030776
 20
58.80735620959543
 30
0.0
 10
-131.3955955030776
 20
58.80735620959543
 30
0.0
 10
-131.2185649835208
 20
58.86619467519079
 30
0.0
 10
-131.0342082736967
 20
58.90757620304194
 30
0.0
 10
-130.8447003363386
 20
58.92932583040837
 30
0.0
 10
-130.7629675261468
 20
58.93785397376804
 30
0.0
 10
-130.6815208952617
 20
58.94277625785792
 30
0.0
 10
-130.6013906891906
 20
58.94500845645238
 30
0.0
 10
-130.4371237667458
 20
58.94832813641547
 30
0.0
 10
-130.270853589147
 20
58.93625136964158
 30
0.0
 10
-130.1050985343042
 20
58.90797685407805
 30
0.0
 10
-130.0845508600342
 20
58.90442823066415
 30
0.0
 10
-130.0395634729097
 20
58.89647244591786
 30
0.0
 10
-129.9867920086271
 20
58.88628446257552
 30
0.0
 10
-129.9775197990672
 20
58.88433844328808
 30
0.0
 10
-129.9680186460619
 20
58.88273583916258
 30
0.0
 10
-129.9570293606579
 20
58.88044640470358
 30
0.0
 10
-129.8946995075068
 20
58.86854134551562
 30
0.0
 10
-129.8129666973144
 20
58.85171400223747
 30
0.0
 10
-129.7166387424447
 20
58.83065120521384
 30
0.0
 10
-129.705706692902
 20
58.82830453489927
 30
0.0
 10
-129.6930003316534
 20
58.82538550596202
 30
0.0
 10
-129.6819538103887
 20
58.8229243639174
 30
0.0
 10
-129.5752089287291
 20
58.79951489656894
 30
0.0
 10
-129.4498623920901
 20
58.77043907894186
 30
0.0
 10
-129.3069444459765
 20
58.7351245524064
 30
0.0
 10
-129.1640837357237
 20
58.69981002587898
 30
0.0
 10
-129.0035371442755
 20
58.65831402629841
 30
0.0
 10
-128.8265638605807
 20
58.60983525162973
 30
0.0
 10
-128.819867264788
 20
58.60777476062089
 30
0.0
 10
-128.8137430276094
 20
58.60657280752091
 30
0.0
 10
-128.806931960094
 20
58.60428337306159
 30
0.0
 10
-126.5884699691581
 20
57.99632405243711
 30
0.0
 10
-121.8243858030711
 20
56.30202808092086
 30
0.0
 10
-116.563895010375
 20
52.05770277293567
 30
0.0
 10
-116.5614911041936
 20
52.05592846122358
 30
0.0
 10
-116.5587437828423
 20
52.0540969136569
 30
0.0
 10
-116.5563398766597
 20
52.05243707367518
 30
0.0
 10
-116.2225403325134
 20
51.78297063783517
 30
0.0
 10
-115.8862796463224
 20
51.49993930281682
 30
0.0
 10
-115.5490459504867
 20
51.20998242856559
 30
0.0
 10
-115.4495127873744
 20
51.12430034392765
 30
0.0
 10
-115.3497506808154
 20
51.03581370208252
 30
0.0
 10
-115.2498741025349
 20
50.94835730574212
 30
0.0
 10
-114.9987231423637
 20
50.72817094662568
 30
0.0
 10
-114.7470570594392
 20
50.5019748220597
 30
0.0
 10
-114.4947041461772
 20
50.26982616789974
 30
0.0
 10
-114.3924236617142
 20
50.17573041163283
 30
0.0
 10
-114.2903721206965
 20
50.08272213672589
 30
0.0
 10
-114.1879199286488
 20
49.98662312530539
 30
0.0
 10
-113.8538342051939
 20
49.67319954783987
 30
0.0
 10
-113.5192333589875
 20
49.35216360080893
 30
0.0
 10
-113.1842318617492
 20
49.01676145253644
 30
0.0
 10
-112.7958293057504
 20
48.62790100964853
 30
0.0
 10
-112.4070260987222
 20
48.22496054483506
 30
0.0
 10
-112.0186807785847
 20
47.8053072084735
 30
0.0
 10
-112.0186807785847
 20
47.8053072084735
 30
0.0
 10
-112.019081429616
 20
47.80822623740048
 30
0.0
 10
-112.019081429616
 20
47.80822623740048
 30
0.0
 10
-104.9288746171508
 20
40.60354770197883
 30
0.0
 10
-91.30902901954987
 20
22.39888065644375
 30
0.0
 10
-84.1361163872475
 20
12.62791779987813
 30
0.0
 10
-82.10218281372034
 20
9.857301453256011
 30
0.0
 10
-80.58480289004489
 20
7.762468923115342
 30
0.0
 10
-79.88389253036904
 20
6.791634240696894
 30
0.0
 10
-79.60274997878449
 20
6.401686316440023
 30
0.0
 10
-79.45027364380362
 20
6.189169562773757
 30
0.0
 10
-79.45027364380362
 20
6.189169562773757
 30
0.0
 10
-76.44567709545069
 20
5.027853933351903
 30
0.0
 10
-61.57923443483024
 20
-0.4556850115208622
 30
0.0
 10
-48.23034340547248
 20
-0.6770733237273426
 30
0.0
 10
-48.17911730944734
 20
-0.6775884464752192
 30
0.0
 10
-48.12789121342349
 20
-0.6802212961051383
 30
0.0
 10
-48.07632170223097
 20
-0.6839416271056251
 30
0.0
 10
-47.45262251969216
 20
-0.7299020238741272
 30
0.0
 10
-41.82364725079184
 20
-1.401793801780379
 30
0.0
 10
-36.31635542339778
 20
-10.540071445552
 30
0.0
 10
-35.94632557893488
 20
-11.1531247578523
 30
0.0
 10
-35.83918004624522
 20
-11.88946411578628
 30
0.0
 10
-36.01752699061404
 20
-12.58213251141075
 30
0.0
  0
SPLINE
  5
7E
330
79
100
AcDbEntity
  8
Layer 1
100
AcDbSpline
210
0.0
220
0.0
230
1.0
 70
     9
 71
     3
 72
    23
 73
    19
 74
     0
 42
0.0000000001
 43
0.0000000001
 40
0.0
 40
0.0
 40
0.0
 40
0.0
 40
1.0
 40
1.0
 40
1.0
 40
2.0
 40
2.0
 40
2.0
 40
3.0
 40
3.0
 40
3.0
 40
4.0
 40
4.0
 40
4.0
 40
5.0
 40
5.0
 40
5.0
 40
6.0
 40
6.0
 40
6.0
 40
6.0
 10
-57.57032022510164
 20
-48.4149870056623
 30
0.0
 10
-57.57032022510164
 20
-48.4149870056623
 30
0.0
 10
-59.45681421945729
 20
-49.50487227994745
 30
0.0
 10
-59.45681421945729
 20
-49.50487227994745
 30
0.0
 10
-61.8790358772593
 20
-50.90428909311233
 30
0.0
 10
-64.85781905208435
 20
-50.2814484484981
 30
0.0
 10
-66.11116994675787
 20
-48.11203759085287
 30
0.0
 10
-66.11116994675787
 20
-48.11203759085287
 30
0.0
 10
-67.20351636308859
 20
-46.22136537860634
 30
0.0
 10
-67.20351636308859
 20
-46.22136537860634
 30
0.0
 10
-67.20351636308859
 20
-46.22136537860634
 30
0.0
 10
-56.54511147428475
 20
-40.0635879855025
 30
0.0
 10
-56.54511147428475
 20
-40.0635879855025
 30
0.0
 10
-56.54511147428475
 20
-40.0635879855025
 30
0.0
 10
-55.45282229381537
 20
-41.95431743360555
 30
0.0
 10
-55.45282229381537
 20
-41.95431743360555
 30
0.0
 10
-54.19947139914185
 20
-44.12367105539425
 30
0.0
 10
-55.14798409557631
 20
-47.01551295663127
 30
0.0
 10
-57.57032022510164
 20
-48.4149870056623
 30
0.0
  0
SPLINE
  5
7F
330
79
100
AcDbEntity
  8
Layer 1
100
AcDbSpline
210
0.0
220
0.0
230
1.0
 70
     9
 71
     3
 72
    23
 73
    19
 74
     0
 42
0.0000000001
 43
0.0000000001
 40
0.0
 40
0.0
 40
0.0
 40
0.0
 40
1.0
 40
1.0
 40
1.0
 40
2.0
 40
2.0
 40
2.0
 40
3.0
 40
3.0
 40
3.0
 40
4.0
 40
4.0
 40
4.0
 40
5.0
 40
5.0
 40
5.0
 40
6.0
 40
6.0
 40
6.0
 40
6.0
 10
-71.32289578547283
 20
-56.36041206035063
 30
0.0
 10
-71.32289578547283
 20
-56.36041206035063
 30
0.0
 10
-73.20944701569047
 20
-57.45035457050161
 30
0.0
 10
-73.20944701569047
 20
-57.45035457050161
 30
0.0
 10
-75.63195485279918
 20
-58.84994309125147
 30
0.0
 10
-78.61073802762551
 20
-58.22704521077206
 30
0.0
 10
-79.8640889222971
 20
-56.05763435311817
 30
0.0
 10
-79.8640889222971
 20
-56.05763435311817
 30
0.0
 10
-80.95637810276777
 20
-54.1669621408803
 30
0.0
 10
-80.95637810276777
 20
-54.1669621408803
 30
0.0
 10
-80.95637810276777
 20
-54.1669621408803
 30
0.0
 10
-70.29803044982464
 20
-48.00924198363233
 30
0.0
 10
-70.29803044982464
 20
-48.00924198363233
 30
0.0
 10
-70.29803044982464
 20
-48.00924198363233
 30
0.0
 10
-69.20574126935588
 20
-49.8999141958795
 30
0.0
 10
-69.20574126935588
 20
-49.8999141958795
 30
0.0
 10
-67.952390374683
 20
-52.06926781766821
 30
0.0
 10
-68.90073136353281
 20
-54.96099524717613
 30
0.0
 10
-71.32289578547283
 20
-56.36041206035063
 30
0.0
  0
SPLINE
  5
80
330
79
100
AcDbEntity
  8
Layer 1
100
AcDbSpline
210
0.0
220
0.0
230
1.0
 70
     9
 71
     3
 72
    71
 73
    67
 74
     0
 42
0.0000000001
 43
0.0000000001
 40
0.0
 40
0.0
 40
0.0
 40
0.0
 40
1.0
 40
1.0
 40
1.0
 40
2.0
 40
2.0
 40
2.0
 40
3.0
 40
3.0
 40
3.0
 40
4.0
 40
4.0
 40
4.0
 40
5.0
 40
5.0
 40
5.0
 40
6.0
 40
6.0
 40
6.0
 40
7.0
 40
7.0
 40
7.0
 40
8.0
 40
8.0
 40
8.0
 40
9.0
 40
9.0
 40
9.0
 40
10.0
 40
10.0
 40
10.0
 40
11.0
 40
11.0
 40
11.0
 40
12.0
 40
12.0
 40
12.0
 40
13.0
 40
13.0
 40
13.0
 40
14.0
 40
14.0
 40
14.0
 40
15.0
 40
15.0
 40
15.0
 40
16.0
 40
16.0
 40
16.0
 40
17.0
 40
17.0
 40
17.0
 40
18.0
 40
18.0
 40
18.0
 40
19.0
 40
19.0
 40
19.0
 40
20.0
 40
20.0
 40
20.0
 40
21.0
 40
21.0
 40
21.0
 40
22.0
 40
22.0
 40
22.0
 40
22.0
 10
-33.10490847165816
 20
-8.601836232418525
 30
0.0
 10
-39.45322404762899
 20
1.931966185942138
 30
0.0
 10
-46.46049609680987
 20
2.958205182262475
 30
0.0
 10
-47.80073102920847
 20
3.05693704332284
 30
0.0
 10
-47.93540701126874
 20
3.066667139771583
 30
0.0
 10
-48.06401599201365
 20
3.072447961780582
 30
0.0
 10
-48.19262497275598
 20
3.073764386590729
 30
0.0
 10
-59.75907680392841
 20
3.265676230134339
 30
0.0
 10
-72.73209993095327
 20
7.694129304501511
 30
0.0
 10
-77.06765920214484
 20
9.298736681073615
 30
0.0
 10
-78.34544980966899
 20
11.06635179113792
 30
0.0
 10
-80.91946097211389
 20
14.60919438084414
 30
0.0
 10
-84.1361163872475
 20
18.94801609614165
 30
0.0
 10
-84.1361163872475
 20
18.94801609614165
 30
0.0
 10
-84.1361163872475
 20
92.02939688247376
 30
0.0
 10
-84.1361163872475
 20
92.02939688247376
 30
0.0
 10
-84.1361163872475
 20
92.02939688247376
 30
0.0
 10
-124.0774182543403
 20
92.02939688247376
 30
0.0
 10
-124.0774182543403
 20
92.02939688247376
 30
0.0
 10
-124.0774182543403
 20
92.02939688247376
 30
0.0
 10
-161.9321295553439
 20
70.52147656338377
 30
0.0
 10
-161.9321295553439
 20
70.52147656338377
 30
0.0
 10
-161.9321295553439
 20
70.52147656338377
 30
0.0
 10
-161.9321295553439
 20
23.12755040893653
 30
0.0
 10
-161.9321295553439
 20
23.12755040893653
 30
0.0
 10
-161.9321295553439
 20
23.12755040893653
 30
0.0
 10
-136.7601983278044
 20
32.82656778762881
 30
0.0
 10
-136.7601983278044
 20
32.82656778762881
 30
0.0
 10
-136.7601983278044
 20
32.82656778762881
 30
0.0
 10
-136.7601983278044
 20
-37.096251982967
 30
0.0
 10
-136.7601983278044
 20
-37.096251982967
 30
0.0
 10
-136.7601983278044
 20
-37.096251982967
 30
0.0
 10
-176.9782355851526
 20
-37.096251982967
 30
0.0
 10
-176.9782355851526
 20
-37.096251982967
 30
0.0
 10
-176.9782355851526
 20
-37.096251982967
 30
0.0
 10
-176.9782355851526
 20
-79.33969467048014
 30
0.0
 10
-176.9782355851526
 20
-79.33969467048014
 30
0.0
 10
-176.9782355851526
 20
-79.33969467048014
 30
0.0
 10
-45.70916094317212
 20
-79.33969467048014
 30
0.0
 10
-45.70916094317212
 20
-79.33969467048014
 30
0.0
 10
-45.70916094317212
 20
-79.33969467048014
 30
0.0
 10
-45.70916094317212
 20
-37.096251982967
 30
0.0
 10
-45.70916094317212
 20
-37.096251982967
 30
0.0
 10
-45.70916094317212
 20
-37.096251982967
 30
0.0
 10
-51.40905144444426
 20
-37.096251982967
 30
0.0
 10
-51.40905144444426
 20
-37.096251982967
 30
0.0
 10
-51.40905144444426
 20
-37.096251982967
 30
0.0
 10
-49.19757222860958
 20
-35.81857584716521
 30
0.0
 10
-49.19757222860958
 20
-35.81857584716521
 30
0.0
 10
-49.19757222860958
 20
-35.81857584716521
 30
0.0
 10
-51.07404994720531
 20
-32.57066965166592
 30
0.0
 10
-51.07404994720531
 20
-32.57066965166592
 30
0.0
 10
-51.07404994720531
 20
-32.57066965166592
 30
0.0
 10
-53.68846962785474
 20
-28.0454307355361
 30
0.0
 10
-53.68846962785474
 20
-28.0454307355361
 30
0.0
 10
-53.68846962785474
 20
-28.0454307355361
 30
0.0
 10
-46.62424789650268
 20
-23.96417039689931
 30
0.0
 10
-46.62424789650268
 20
-23.96417039689931
 30
0.0
 10
-46.62424789650268
 20
-23.96417039689931
 30
0.0
 10
-35.38930617501793
 20
-17.47328028998133
 30
0.0
 10
-35.38930617501793
 20
-17.47328028998133
 30
0.0
 10
-33.90855720268903
 20
-16.61771863258444
 30
0.0
 10
-32.813864116037
 20
-15.17703476328948
 30
0.0
 10
-32.38579710803363
 20
-13.52062893208464
 30
0.0
 10
-31.95801627933695
 20
-11.85895740161867
 30
0.0
 10
-32.22038546835815
 20
-10.06730322973856
 30
0.0
 10
-33.10490847165816
 20
-8.601836232418525
 30
0.0
  0
HATCH
  5
81
330
79
100
AcDbEntity
  8
Layer 1
 62
     7
440
 33554687
100
AcDbHatch
 10
0.0
 20
0.0
 30
0.0
210
0.0
220
0.0
230
1.0
  2
SOLID
 70
     1
 71
     1
 91
        4
 92
        1
 93
        1
 72
     4
 94
        3
 73
     0
 74
     0
 95
      269
 96
      265
 40
0.0
 40
0.0
 40
0.0
 40
0.0
 40
1.0
 40
1.0
 40
1.0
 40
2.0
 40
2.0
 40
2.0
 40
3.0
 40
3.0
 40
3.0
 40
4.0
 40
4.0
 40
4.0
 40
5.0
 40
5.0
 40
5.0
 40
6.0
 40
6.0
 40
6.0
 40
7.0
 40
7.0
 40
7.0
 40
8.0
 40
8.0
 40
8.0
 40
9.0
 40
9.0
 40
9.0
 40
10.0
 40
10.0
 40
10.0
 40
11.0
 40
11.0
 40
11.0
 40
12.0
 40
12.0
 40
12.0
 40
13.0
 40
13.0
 40
13.0
 40
14.0
 40
14.0
 40
14.0
 40
15.0
 40
15.0
 40
15.0
 40
16.0
 40
16.0
 40
16.0
 40
17.0
 40
17.0
 40
17.0
 40
18.0
 40
18.0
 40
18.0
 40
19.0
 40
19.0
 40
19.0
 40
20.0
 40
20.0
 40
20.0
 40
21.0
 40
21.0
 40
21.0
 40
22.0
 40
22.0
 40
22.0
 40
23.0
 40
23.0
 40
23.0
 40
24.0
 40
24.0
 40
24.0
 40
25.0
 40
25.0
 40
25.0
 40
26.0
 40
26.0
 40
26.0
 40
27.0
 40
27.0
 40
27.0
 40
28.0
 40
28.0
 40
28.0
 40
29.0
 40
29.0
 40
29.0
 40
30.0
 40
30.0
 40
30.0
 40
31.0
 40
31.0
 40
31.0
 40
32.0
 40
32.0
 40
32.0
 40
33.0
 40
33.0
 40
33.0
 40
34.0
 40
34.0
 40
34.0
 40
35.0
 40
35.0
 40
35.0
 40
36.0
 40
36.0
 40
36.0
 40
37.0
 40
37.0
 40
37.0
 40
38.0
 40
38.0
 40
38.0
 40
39.0
 40
39.0
 40
39.0
 40
40.0
 40
40.0
 40
40.0
 40
41.0
 40
41.0
 40
41.0
 40
42.0
 40
42.0
 40
42.0
 40
43.0
 40
43.0
 40
43.0
 40
44.0
 40
44.0
 40
44.0
 40
45.0
 40
45.0
 40
45.0
 40
46.0
 40
46.0
 40
46.0
 40
47.0
 40
47.0
 40
47.0
 40
48.0
 40
48.0
 40
48.0
 40
49.0
 40
49.0
 40
49.0
 40
50.0
 40
50.0
 40
50.0
 40
51.0
 40
51.0
 40
51.0
 40
52.0
 40
52.0
 40
52.0
 40
53.0
 40
53.0
 40
53.0
 40
54.0
 40
54.0
 40
54.0
 40
55.0
 40
55.0
 40
55.0
 40
56.0
 40
56.0
 40
56.0
 40
57.0
 40
57.0
 40
57.0
 40
58.0
 40
58.0
 40
58.0
 40
59.0
 40
59.0
 40
59.0
 40
60.0
 40
60.0
 40
60.0
 40
61.0
 40
61.0
 40
61.0
 40
62.0
 40
62.0
 40
62.0
 40
63.0
 40
63.0
 40
63.0
 40
64.0
 40
64.0
 40
64.0
 40
65.0
 40
65.0
 40
65.0
 40
66.0
 40
66.0
 40
66.0
 40
67.0
 40
67.0
 40
67.0
 40
68.0
 40
68.0
 40
68.0
 40
69.0
 40
69.0
 40
69.0
 40
70.0
 40
70.0
 40
70.0
 40
71.0
 40
71.0
 40
71.0
 40
72.0
 40
72.0
 40
72.0
 40
73.0
 40
73.0
 40
73.0
 40
74.0
 40
74.0
 40
74.0
 40
75.0
 40
75.0
 40
75.0
 40
76.0
 40
76.0
 40
76.0
 40
77.0
 40
77.0
 40
77.0
 40
78.0
 40
78.0
 40
78.0
 40
79.0
 40
79.0
 40
79.0
 40
80.0
 40
80.0
 40
80.0
 40
81.0
 40
81.0
 40
81.0
 40
82.0
 40
82.0
 40
82.0
 40
83.0
 40
83.0
 40
83.0
 40
84.0
 40
84.0
 40
84.0
 40
85.0
 40
85.0
 40
85.0
 40
86.0
 40
86.0
 40
86.0
 40
87.0
 40
87.0
 40
87.0
 40
88.0
 40
88.0
 40
88.0
 40
88.0
 10
-36.01752699061404
 20
-12.58213251141075
 10
-36.19650352945886
 20
-13.27480090703555
 10
-36.64603398551748
 20
-13.86730654506844
 10
-37.26578389361494
 20
-14.22537409448269
 10
-37.26578389361494
 20
-14.22537409448269
 10
-48.50066837923771
 20
-20.71626420139041
 10
-48.50066837923771
 20
-20.71626420139041
 10
-48.50066837923771
 20
-20.71626420139041
 10
-58.7699266458447
 20
-26.6492191306142
 10
-58.7699266458447
 20
-26.6492191306142
 10
-58.7699266458447
 20
-26.6492191306142
 10
-58.81285354195391
 20
-26.67400225862837
 10
-58.81285354195391
 20
-26.67400225862837
 10
-58.81285354195391
 20
-26.67400225862837
 10
-54.32195614270748
 20
-34.44714737026647
 10
-54.32195614270748
 20
-34.44714737026647
 10
-54.32195614270748
 20
-34.44714737026647
 10
-58.90723547753297
 20
-37.096251982967
 10
-58.90723547753297
 20
-37.096251982967
 10
-58.90723547753297
 20
-37.096251982967
 10
-89.60941011292366
 20
-54.83416057813817
 10
-89.60941011292366
 20
-54.83416057813817
 10
-89.60941011292366
 20
-54.83416057813817
 10
-94.10030751216881
 20
-47.06095823064419
 10
-94.10030751216881
 20
-47.06095823064419
 10
-94.10030751216881
 20
-47.06095823064419
 10
-104.3696230146371
 20
-52.99397039572227
 10
-104.3696230146371
 20
-52.99397039572227
 10
-104.3696230146371
 20
-52.99397039572227
 10
-115.6047936795672
 20
-59.48497497436068
 10
-115.6047936795672
 20
-59.48497497436068
 10
-115.7893220969767
 20
-59.59160538429284
 10
-115.9868430549408
 20
-59.66704224972549
 10
-116.1880271080402
 20
-59.7261668946362
 10
-116.2477813474259
 20
-59.74368106824625
 10
-116.3088520116238
 20
-59.75444141021
 10
-116.3695792606529
 20
-59.76772013007329
 10
-116.5188503873905
 20
-59.8004018069692
 10
-116.6701247692807
 20
-59.8204343584897
 10
-116.8228300477075
 20
-59.8271309542814
 10
-116.8858467311967
 20
-59.82987827563206
 10
-116.9486917070998
 20
-59.8341137293891
 10
-117.0119373340343
 20
-59.83239665354219
 10
-117.226400106997
 20
-59.82655859566865
 10
-117.4414924744357
 20
-59.8036070152125
 10
-117.6516625577877
 20
-59.74545537994935
 10
-118.1684451510841
 20
-59.60179336764287
 10
-118.6263320429181
 20
-59.30679973757267
 10
-118.9691176173171
 20
-58.90385927275824
 10
-119.0833603968301
 20
-58.76958394173119
 10
-119.1847823433711
 20
-58.62323184392927
 10
-119.2713802017895
 20
-58.46657729105689
 10
-119.7556528257654
 20
-57.5913264973207
 10
-120.1750199828241
 20
-56.75242047561602
 10
-120.5369795708183
 20
-55.95008816940235
 10
-120.5369795708183
 20
-55.95008816940235
 10
-121.4588203558035
 20
-53.65361369926996
 10
-121.4588203558035
 20
-53.65361369926996
 10
-122.1391258053449
 20
-51.71091408893924
 10
-122.4669155840378
 20
-50.03207180003382
 10
-122.5881983745115
 20
-48.62532879659898
 10
-122.6488111518186
 20
-47.92195729487755
 10
-122.6578544179319
 20
-47.28663923246326
 10
-122.6335291768027
 20
-46.72029038311988
 10
-122.6335291768027
 20
-46.72029038311988
 10
-122.4787634073632
 20
-45.229582370894
 10
-122.4787634073632
 20
-45.229582370894
 10
-122.2968678395824
 20
-44.1616184315516
 10
-122.0207620438072
 20
-43.53156606838784
 10
-121.9358240253708
 20
-43.35550855848188
 10
-121.9136737469789
 20
-43.30920474654181
 10
-121.8898063927416
 20
-43.26318711391743
 10
-121.8649087929983
 20
-43.21865761367918
 10
-119.4364484262957
 20
-38.84057209741386
 10
-117.542456534086
 20
-33.90798555512695
 10
-116.097537211043
 20
-29.28458713655913
 10
-115.7362644533848
 20
-28.12870891398434
 10
-115.4031517395758
 20
-26.99229088431762
 10
-115.0967109372154
 20
-25.88855453154713
 10
-114.7902701348563
 20
-24.78487541464183
 10
-114.5106157156692
 20
-23.71393521050694
 10
-114.2562595472546
 20
-22.68935605416766
 10
-114.0867269255531
 20
-22.0063032832731
 10
-113.9284697685636
 20
-21.34385542250955
 10
-113.7810874252547
 20
-20.70596174632892
 10
-113.1916152878798
 20
-18.15444427744401
 10
-112.7764263487091
 20
-15.99625164864554
 10
-112.5102223569692
 20
-14.48734263246681
 10
-112.4436570500688
 20
-14.11010106946113
 10
-112.3864211885896
 20
-13.77343973224239
 10
-112.3380568856397
 20
-13.48136513110816
 10
-112.2897498185512
 20
-13.18929052998291
 10
-112.250314309992
 20
-12.9418026649412
 10
-112.2194069447928
 20
-12.7428508104446
 10
-112.2194069447928
 20
-12.7428508104446
 10
-112.3276971947111
 20
-12.50268913567188
 10
-112.5256760395685
 20
-12.06288877607099
 10
-112.8737845490861
 20
-11.28854480611511
 10
-113.5041230915562
 20
-9.881572859229148
 10
-114.333241780945
 20
-8.0109331985121
 10
-114.6648663623554
 20
-7.26263154552466
 10
-115.0283140827489
 20
-6.440209451935246
 10
-115.4182047711458
 20
-5.554370023822524
 10
-115.8080954595413
 20
-4.668530595699535
 10
-116.224486351804
 20
-3.719331068928052
 10
-116.6619400410894
 20
-2.717531785460272
 10
-117.7556028822347
 20
-0.2130621947137929
 10
-118.9812516199517
 20
2.619941240928182
 10
-120.2553791323405
 20
5.612689965955149
 10
-121.0198785341195
 20
7.408293412276611
 10
-121.8018348736485
 20
9.261418899393875
 10
-122.5831616187021
 20
11.13549271180536
 10
-123.624968769347
 20
13.63429595226327
 10
-124.6656884386239
 20
16.17041697441183
 10
-125.6627371455929
 20
18.65737239154826
 10
-126.1612042632147
 20
19.9008214821826
 10
-126.6487965671566
 20
21.13196486260378
 10
-127.1200766505772
 20
22.34009942670299
 10
-129.2408370259681
 20
27.77647602172717
 10
-131.0318043675153
 20
32.74512115673859
 10
-132.0061876733371
 20
36.26089118397035
 10
-132.0061876733371
 20
36.26089118397035
 10
-132.0041844181857
 20
36.25883069295157
 10
-132.0041844181857
 20
36.25883069295157
 10
-132.1725150867965
 20
36.80096877288294
 10
-132.3267084976214
 20
37.33543724737375
 10
-132.4685961982277
 20
37.86246505987482
 10
-132.5925118383306
 20
38.32275585789815
 10
-132.7040645323537
 20
38.77531981461574
 10
-132.8092640457533
 20
39.22370555344149
 10
-132.8421174302419
 20
39.3637044706223
 10
-132.8723952009645
 20
39.50170013264022
 10
-132.903531509609
 20
39.64043986086613
 10
-132.9781098371168
 20
39.97320915950903
 10
-133.0479375881206
 20
40.30242983473737
 10
-133.1129575267624
 20
40.62821635828251
 10
-133.1387709002883
 20
40.75785558452703
 10
-133.1654428117376
 20
40.88806716939294
 10
-133.1898252887288
 20
41.01661891427811
 10
-133.2728172878739
 20
41.45407260356476
 10
-133.3502001725936
 20
41.88711913151935
 10
-133.4169371870781
 20
42.31140857266378
 10
-133.4172233663848
 20
42.31427036573553
 10
-133.4179674325848
 20
42.31724663052738
 10
-133.4180246684462
 20
42.3203946029148
 10
-134.4673869528069
 20
48.99936175064683
 10
-133.5547611415198
 20
53.97361600008932
 10
-132.9732447888915
 20
56.19866011509623
 10
-132.9719283640762
 20
56.20421199365409
 10
-132.9709553544309
 20
56.20953492877013
 10
-132.9688948634188
 20
56.21491509975137
 10
-132.8760582960991
 20
56.57103662987818
 10
-132.7922649948934
 20
56.85532715384213
 10
-132.7259286314395
 20
57.06423804824791
 10
-132.7225517156122
 20
57.07505562606691
 10
-132.7191175639236
 20
57.08736133628166
 10
-132.7160840632649
 20
57.09772102720769
 10
-132.6854056415117
 20
57.19216019864552
 10
-132.6597639755684
 20
57.27108845162721
 10
-132.6384149992378
 20
57.33135781376311
 10
-132.6352097909939
 20
57.34177474055528
 10
-132.6318328751665
 20
57.35087524253636
 10
-132.6285704310625
 20
57.36003298037268
 10
-132.6110562574499
 20
57.41080118950197
 10
-132.5957742824359
 20
57.45355637802781
 10
-132.5882191487193
 20
57.47335998609814
 10
-132.5302964569035
 20
57.63087307688836
 10
-132.4577213845471
 20
57.78100274154439
 10
-132.372783366112
 20
57.92157401733732
 10
-132.3304860644781
 20
57.99008534353644
 10
-132.2858420925249
 20
58.05802431110357
 10
-132.2376494971597
 20
58.12458961800596
 10
-132.1241507838461
 20
58.27786725505006
 10
-131.9961713975791
 20
58.41689316258106
 10
-131.8568020748768
 20
58.54086603854759
 10
-131.8568020748768
 20
58.54086603854759
 10
-131.8837601656335
 20
58.58762773738028
 10
-131.8837601656335
 20
58.58762773738028
 10
-131.806720696083
 20
58.6321000017434
 10
-131.7209241397246
 20
58.66083240420854
 10
-131.6399353957315
 20
58.69734888383468
 10
-131.5673603233764
 20
58.74954798950416
 10
-131.4996502992459
 20
58.809531172334
 10
-131.4226108296955
 20
58.8540606725623
 10
-131.4226108296955
 20
58.8540606725623
 10
-131.3955955030776
 20
58.80735620959543
 10
-131.3955955030776
 20
58.80735620959543
 10
-131.2185649835208
 20
58.86619467519079
 10
-131.0342082736967
 20
58.90757620304194
 10
-130.8447003363386
 20
58.92932583040837
 10
-130.7629675261468
 20
58.93785397376804
 10
-130.6815208952617
 20
58.94277625785792
 10
-130.6013906891906
 20
58.94500845645238
 10
-130.4371237667458
 20
58.94832813641547
 10
-130.270853589147
 20
58.93625136964158
 10
-130.1050985343042
 20
58.90797685407805
 10
-130.0845508600342
 20
58.90442823066415
 10
-130.0395634729097
 20
58.89647244591786
 10
-129.9867920086271
 20
58.88628446257552
 10
-129.9775197990672
 20
58.88433844328808
 10
-129.9680186460619
 20
58.88273583916258
 10
-129.9570293606579
 20
58.88044640470358
 10
-129.8946995075068
 20
58.86854134551562
 10
-129.8129666973144
 20
58.85171400223747
 10
-129.7166387424447
 20
58.83065120521384
 10
-129.705706692902
 20
58.82830453489927
 10
-129.6930003316534
 20
58.82538550596202
 10
-129.6819538103887
 20
58.8229243639174
 10
-129.5752089287291
 20
58.79951489656894
 10
-129.4498623920901
 20
58.77043907894186
 10
-129.3069444459765
 20
58.7351245524064
 10
-129.1640837357237
 20
58.69981002587898
 10
-129.0035371442755
 20
58.65831402629841
 10
-128.8265638605807
 20
58.60983525162973
 10
-128.819867264788
 20
58.60777476062089
 10
-128.8137430276094
 20
58.60657280752091
 10
-128.806931960094
 20
58.60428337306159
 10
-126.5884699691581
 20
57.99632405243711
 10
-121.8243858030711
 20
56.30202808092086
 10
-116.563895010375
 20
52.05770277293567
 10
-116.5614911041936
 20
52.05592846122358
 10
-116.5587437828423
 20
52.0540969136569
 10
-116.5563398766597
 20
52.05243707367518
 10
-116.2225403325134
 20
51.78297063783517
 10
-115.8862796463224
 20
51.49993930281682
 10
-115.5490459504867
 20
51.20998242856559
 10
-115.4495127873744
 20
51.12430034392765
 10
-115.3497506808154
 20
51.03581370208252
 10
-115.2498741025349
 20
50.94835730574212
 10
-114.9987231423637
 20
50.72817094662568
 10
-114.7470570594392
 20
50.5019748220597
 10
-114.4947041461772
 20
50.26982616789974
 10
-114.3924236617142
 20
50.17573041163283
 10
-114.2903721206965
 20
50.08272213672589
 10
-114.1879199286488
 20
49.98662312530539
 10
-113.8538342051939
 20
49.67319954783987
 10
-113.5192333589875
 20
49.35216360080893
 10
-113.1842318617492
 20
49.01676145253644
 10
-112.7958293057504
 20
48.62790100964853
 10
-112.4070260987222
 20
48.22496054483506
 10
-112.0186807785847
 20
47.8053072084735
 10
-112.0186807785847
 20
47.8053072084735
 10
-112.019081429616
 20
47.80822623740048
 10
-112.019081429616
 20
47.80822623740048
 10
-104.9288746171508
 20
40.60354770197883
 10
-91.30902901954987
 20
22.39888065644375
 10
-84.1361163872475
 20
12.62791779987813
 10
-82.10218281372034
 20
9.857301453256011
 10
-80.58480289004489
 20
7.762468923115342
 10
-79.88389253036904
 20
6.791634240696894
 10
-79.60274997878449
 20
6.401686316440023
 10
-79.45027364380362
 20
6.189169562773757
 10
-79.45027364380362
 20
6.189169562773757
 10
-76.44567709545069
 20
5.027853933351903
 10
-61.57923443483024
 20
-0.4556850115208622
 10
-48.23034340547248
 20
-0.6770733237273426
 10
-48.17911730944734
 20
-0.6775884464752192
 10
-48.12789121342349
 20
-0.6802212961051383
 10
-48.07632170223097
 20
-0.6839416271056251
 10
-47.45262251969216
 20
-0.7299020238741272
 10
-41.82364725079184
 20
-1.401793801780379
 10
-36.31635542339778
 20
-10.540071445552
 10
-35.94632557893488
 20
-11.1531247578523
 10
-35.83918004624522
 20
-11.88946411578628
 10
-36.01752699061404
 20
-12.58213251141075
 97
        0
 97
        1
330
7D
 92
        1
 93
        1
 72
     4
 94
        3
 73
     0
 74
     0
 95
       23
 96
       19
 40
0.0
 40
0.0
 40
0.0
 40
0.0
 40
1.0
 40
1.0
 40
1.0
 40
2.0
 40
2.0
 40
2.0
 40
3.0
 40
3.0
 40
3.0
 40
4.0
 40
4.0
 40
4.0
 40
5.0
 40
5.0
 40
5.0
 40
6.0
 40
6.0
 40
6.0
 40
6.0
 10
-57.57032022510164
 20
-48.4149870056623
 10
-57.57032022510164
 20
-48.4149870056623
 10
-59.45681421945729
 20
-49.50487227994745
 10
-59.45681421945729
 20
-49.50487227994745
 10
-61.8790358772593
 20
-50.90428909311233
 10
-64.85781905208435
 20
-50.2814484484981
 10
-66.11116994675787
 20
-48.11203759085287
 10
-66.11116994675787
 20
-48.11203759085287
 10
-67.20351636308859
 20
-46.22136537860634
 10
-67.20351636308859
 20
-46.22136537860634
 10
-67.20351636308859
 20
-46.22136537860634
 10
-56.54511147428475
 20
-40.0635879855025
 10
-56.54511147428475
 20
-40.0635879855025
 10
-56.54511147428475
 20
-40.0635879855025
 10
-55.45282229381537
 20
-41.95431743360555
 10
-55.45282229381537
 20
-41.95431743360555
 10
-54.19947139914185
 20
-44.12367105539425
 10
-55.14798409557631
 20
-47.01551295663127
 10
-57.57032022510164
 20
-48.4149870056623
 97
        0
 97
        1
330
7E
 92
        1
 93
        1
 72
     4
 94
        3
 73
     0
 74
     0
 95
       23
 96
       19
 40
0.0
 40
0.0
 40
0.0
 40
0.0
 40
1.0
 40
1.0
 40
1.0
 40
2.0
 40
2.0
 40
2.0
 40
3.0
 40
3.0
 40
3.0
 40
4.0
 40
4.0
 40
4.0
 40
5.0
 40
5.0
 40
5.0
 40
6.0
 40
6.0
 40
6.0
 40
6.0
 10
-71.32289578547283
 20
-56.36041206035063
 10
-71.32289578547283
 20
-56.36041206035063
 10
-73.20944701569047
 20
-57.45035457050161
 10
-73.20944701569047
 20
-57.45035457050161
 10
-75.63195485279918
 20
-58.84994309125147
 10
-78.61073802762551
 20
-58.22704521077206
 10
-79.8640889222971
 20
-56.05763435311817
 10
-79.8640889222971
 20
-56.05763435311817
 10
-80.95637810276777
 20
-54.1669621408803
 10
-80.95637810276777
 20
-54.1669621408803
 10
-80.95637810276777
 20
-54.1669621408803
 10
-70.29803044982464
 20
-48.00924198363233
 10
-70.29803044982464
 20
-48.00924198363233
 10
-70.29803044982464
 20
-48.00924198363233
 10
-69.20574126935588
 20
-49.8999141958795
 10
-69.20574126935588
 20
-49.8999141958795
 10
-67.952390374683
 20
-52.06926781766821
 10
-68.90073136353281
 20
-54.96099524717613
 10
-71.32289578547283
 20
-56.36041206035063
 97
        0
 97
        1
330
7F
 92
        1
 93
        1
 72
     4
 94
        3
 73
     0
 74
     0
 95
       71
 96
       67
 40
0.0
 40
0.0
 40
0.0
 40
0.0
 40
1.0
 40
1.0
 40
1.0
 40
2.0
 40
2.0
 40
2.0
 40
3.0
 40
3.0
 40
3.0
 40
4.0
 40
4.0
 40
4.0
 40
5.0
 40
5.0
 40
5.0
 40
6.0
 40
6.0
 40
6.0
 40
7.0
 40
7.0
 40
7.0
 40
8.0
 40
8.0
 40
8.0
 40
9.0
 40
9.0
 40
9.0
 40
10.0
 40
10.0
 40
10.0
 40
11.0
 40
11.0
 40
11.0
 40
12.0
 40
12.0
 40
12.0
 40
13.0
 40
13.0
 40
13.0
 40
14.0
 40
14.0
 40
14.0
 40
15.0
 40
15.0
 40
15.0
 40
16.0
 40
16.0
 40
16.0
 40
17.0
 40
17.0
 40
17.0
 40
18.0
 40
18.0
 40
18.0
 40
19.0
 40
19.0
 40
19.0
 40
20.0
 40
20.0
 40
20.0
 40
21.0
 40
21.0
 40
21.0
 40
22.0
 40
22.0
 40
22.0
 40
22.0
 10
-33.10490847165816
 20
-8.601836232418525
 10
-39.45322404762899
 20
1.931966185942138
 10
-46.46049609680987
 20
2.958205182262475
 10
-47.80073102920847
 20
3.05693704332284
 10
-47.93540701126874
 20
3.066667139771583
 10
-48.06401599201365
 20
3.072447961780582
 10
-48.19262497275598
 20
3.073764386590729
 10
-59.75907680392841
 20
3.265676230134339
 10
-72.73209993095327
 20
7.694129304501511
 10
-77.06765920214484
 20
9.298736681073615
 10
-78.34544980966899
 20
11.06635179113792
 10
-80.91946097211389
 20
14.60919438084414
 10
-84.1361163872475
 20
18.94801609614165
 10
-84.1361163872475
 20
18.94801609614165
 10
-84.1361163872475
 20
92.02939688247376
 10
-84.1361163872475
 20
92.02939688247376
 10
-84.1361163872475
 20
92.02939688247376
 10
-124.0774182543403
 20
92.02939688247376
 10
-124.0774182543403
 20
92.02939688247376
 10
-124.0774182543403
 20
92.02939688247376
 10
-161.9321295553439
 20
70.52147656338377
 10
-161.9321295553439
 20
70.52147656338377
 10
-161.9321295553439
 20
70.52147656338377
 10
-161.9321295553439
 20
23.12755040893653
 10
-161.9321295553439
 20
23.12755040893653
 10
-161.9321295553439
 20
23.12755040893653
 10
-136.7601983278044
 20
32.82656778762881
 10
-136.7601983278044
 20
32.82656778762881
 10
-136.7601983278044
 20
32.82656778762881
 10
-136.7601983278044
 20
-37.096251982967
 10
-136.7601983278044
 20
-37.096251982967
 10
-136.7601983278044
 20
-37.096251982967
 10
-176.9782355851526
 20
-37.096251982967
 10
-176.9782355851526
 20
-37.096251982967
 10
-176.9782355851526
 20
-37.096251982967
 10
-176.9782355851526
 20
-79.33969467048014
 10
-176.9782355851526
 20
-79.33969467048014
 10
-176.9782355851526
 20
-79.33969467048014
 10
-45.70916094317212
 20
-79.33969467048014
 10
-45.70916094317212
 20
-79.33969467048014
 10
-45.70916094317212
 20
-79.33969467048014
 10
-45.70916094317212
 20
-37.096251982967
 10
-45.70916094317212
 20
-37.096251982967
 10
-45.70916094317212
 20
-37.096251982967
 10
-51.40905144444426
 20
-37.096251982967
 10
-51.40905144444426
 20
-37.096251982967
 10
-51.40905144444426
 20
-37.096251982967
 10
-49.19757222860958
 20
-35.81857584716521
 10
-49.19757222860958
 20
-35.81857584716521
 10
-49.19757222860958
 20
-35.81857584716521
 10
-51.07404994720531
 20
-32.57066965166592
 10
-51.07404994720531
 20
-32.57066965166592
 10
-51.07404994720531
 20
-32.57066965166592
 10
-53.68846962785474
 20
-28.0454307355361
 10
-53.68846962785474
 20
-28.0454307355361
 10
-53.68846962785474
 20
-28.0454307355361
 10
-46.62424789650268
 20
-23.96417039689931
 10
-46.62424789650268
 20
-23.96417039689931
 10
-46.62424789650268
 20
-23.96417039689931
 10
-35.38930617501793
 20
-17.47328028998133
 10
-35.38930617501793
 20
-17.47328028998133
 10
-33.90855720268903
 20
-16.61771863258444
 10
-32.813864116037
 20
-15.17703476328948
 10
-32.38579710803363
 20
-13.52062893208464
 10
-31.95801627933695
 20
-11.85895740161867
 10
-32.22038546835815
 20
-10.06730322973856
 10
-33.10490847165816
 20
-8.601836232418525
 97
        0
 97
        1
330
80
 75
     2
 76
     1
 98
        1
 10
0.0
 20
0.0
450
        0
451
        0
460
0.0
461
0.0
452
        0
462
0.0
453
        0
470

  0
SPLINE
  5
82
330
79
100
AcDbEntity
  8
Layer 1
100
AcDbSpline
210
0.0
220
0.0
230
1.0
 70
     9
 71
     3
 72
   107
 73
   103
 74
     0
 42
0.0000000001
 43
0.0000000001
 40
0.0
 40
0.0
 40
0.0
 40
0.0
 40
1.0
 40
1.0
 40
1.0
 40
2.0
 40
2.0
 40
2.0
 40
3.0
 40
3.0
 40
3.0
 40
4.0
 40
4.0
 40
4.0
 40
5.0
 40
5.0
 40
5.0
 40
6.0
 40
6.0
 40
6.0
 40
7.0
 40
7.0
 40
7.0
 40
8.0
 40
8.0
 40
8.0
 40
9.0
 40
9.0
 40
9.0
 40
10.0
 40
10.0
 40
10.0
 40
11.0
 40
11.0
 40
11.0
 40
12.0
 40
12.0
 40
12.0
 40
13.0
 40
13.0
 40
13.0
 40
14.0
 40
14.0
 40
14.0
 40
15.0
 40
15.0
 40
15.0
 40
16.0
 40
16.0
 40
16.0
 40
17.0
 40
17.0
 40
17.0
 40
18.0
 40
18.0
 40
18.0
 40
19.0
 40
19.0
 40
19.0
 40
20.0
 40
20.0
 40
20.0
 40
21.0
 40
21.0
 40
21.0
 40
22.0
 40
22.0
 40
22.0
 40
23.0
 40
23.0
 40
23.0
 40
24.0
 40
24.0
 40
24.0
 40
25.0
 40
25.0
 40
25.0
 40
26.0
 40
26.0
 40
26.0
 40
27.0
 40
27.0
 40
27.0
 40
28.0
 40
28.0
 40
28.0
 40
29.0
 40
29.0
 40
29.0
 40
30.0
 40
30.0
 40
30.0
 40
31.0
 40
31.0
 40
31.0
 40
32.0
 40
32.0
 40
32.0
 40
33.0
 40
33.0
 40
33.0
 40
34.0
 40
34.0
 40
34.0
 40
34.0
 10
-111.828371539166
 20
39.90750239053538
 30
0.0
 10
-112.6898857261527
 20
40.59244394485475
 30
0.0
 10
-113.7955108623473
 20
41.10287335752783
 30
0.0
 10
-114.9852154790538
 20
41.41154635847978
 30
0.0
 10
-117.0706613279128
 20
41.95265419290706
 30
0.0
 10
-119.4146987989331
 20
41.8737831757912
 30
0.0
 10
-121.1564432996091
 20
41.02783714312294
 30
0.0
 10
-121.2143087555636
 20
40.99120619177606
 30
0.0
 10
-121.2632454171288
 20
40.95114108874565
 30
0.0
 10
-121.3190503820707
 20
40.9137088353365
 30
0.0
 10
-121.3802355179925
 20
40.88600667838507
 30
0.0
 10
-121.4400469932383
 20
40.86563071169301
 30
0.0
 10
-121.5017472519134
 20
40.83563912028322
 30
0.0
 10
-123.3457150011905
 20
39.66985909367375
 30
0.0
 10
-124.5169896705016
 20
37.6510930234334
 30
0.0
 10
-125.1205990656618
 20
35.59872950251316
 30
0.0
 10
-125.4299016610949
 20
34.5470777836911
 30
0.0
 10
-125.5917646773584
 20
33.48953077113992
 30
0.0
 10
-125.4736870951261
 20
32.39329231623335
 30
0.0
 10
-125.4422646071742
 20
32.10133218681923
 30
0.0
 10
-125.3600739100898
 20
30.79520982786828
 30
0.0
 10
-125.0482529367514
 20
30.61720629866526
 30
0.0
 10
-125.0482529367514
 20
30.61714906280969
 30
0.0
 10
-122.4587880917072
 20
29.13931911941132
 30
0.0
 10
-122.4587880917072
 20
29.13931911941132
 30
0.0
 10
-122.5026307616004
 20
29.89225687717136
 30
0.0
 10
-122.3607430609935
 20
30.92078530795101
 30
0.0
 10
-122.2593783503138
 20
31.53463992231551
 30
0.0
 10
-122.1501723266108
 20
32.02057238628112
 30
0.0
 10
-121.9378272805234
 20
32.46638251134149
 30
0.0
 10
-121.6752291480569
 20
32.8694946837409
 30
0.0
 10
-121.6752291480569
 20
32.8694946837409
 30
0.0
 10
-121.6645260419602
 20
32.85152262322956
 30
0.0
 10
-121.6645260419602
 20
32.85152262322956
 30
0.0
 10
-121.6645260419602
 20
32.85152262322956
 30
0.0
 10
-121.4105132887144
 20
33.22040775046183
 30
0.0
 10
-120.9008851781033
 20
33.73867847616237
 30
0.0
 10
-120.8040421004809
 20
33.83500643103368
 30
0.0
 10
-120.7074279663038
 20
33.93293699002119
 30
0.0
 10
-120.6098980583435
 20
34.02359859460425
 30
0.0
 10
-120.5401847790623
 20
34.08913365600158
 30
0.0
 10
-120.4625729508952
 20
34.15758774632589
 30
0.0
 10
-120.3858768965134
 20
34.22581289320838
 30
0.0
 10
-120.2502279048079
 20
34.34532137197735
 30
0.0
 10
-120.1142927337943
 20
34.46047992527912
 30
0.0
 10
-119.9781858551967
 20
34.569685948976
 30
0.0
 10
-119.9319965149828
 20
34.60694649480082
 30
0.0
 10
-119.8908439305796
 20
34.64311955925603
 30
0.0
 10
-119.8427658069371
 20
34.68055181266487
 30
0.0
 10
-119.6562913702376
 20
34.82564472151123
 30
0.0
 10
-119.4698741693989
 20
34.96037793943092
 30
0.0
 10
-119.2841437988988
 20
35.08755602364011
 30
0.0
 10
-119.2093365279457
 20
35.13889659139048
 30
0.0
 10
-119.1280043687846
 20
35.18943585707859
 30
0.0
 10
-119.0495340026962
 20
35.24049024551298
 30
0.0
 10
-118.9288808066979
 20
35.31890337573716
 30
0.0
 10
-118.8082848465615
 20
35.39640073218763
 30
0.0
 10
-118.6888336036533
 20
35.46771661558305
 30
0.0
 10
-118.5906168653549
 20
35.52644060946857
 30
0.0
 10
-118.4872488995232
 20
35.58379094266785
 30
0.0
 10
-118.3841671129995
 20
35.64125574758819
 30
0.0
 10
-118.2810280906138
 20
35.69860608079773
 30
0.0
 10
-118.1778318323668
 20
35.75624259330466
 30
0.0
 10
-118.0762954141037
 20
35.80867064242368
 30
0.0
 10
-117.9526659533087
 20
35.87266033555043
 30
0.0
 10
-117.8231411987799
 20
35.93430335836166
 30
0.0
 10
-117.6930440856382
 20
35.99560296601222
 30
0.0
 10
-117.6083350106485
 20
36.03532465388102
 30
0.0
 10
-117.5225384542908
 20
36.07779366309182
 30
0.0
 10
-117.4394319834237
 20
36.11436737858346
 30
0.0
 10
-117.2334973538216
 20
36.20525792660706
 30
0.0
 10
-117.020637184979
 20
36.29271432294714
 30
0.0
 10
-116.7991916369163
 20
36.3747333124501
 30
0.0
 10
-116.7420702471598
 20
36.39585334533058
 30
0.0
 10
-116.6897566697679
 20
36.41170767896823
 30
0.0
 10
-116.6338372331028
 20
36.43133957945326
 30
0.0
 10
-116.4691124237653
 20
36.48949121471576
 30
0.0
 10
-116.2996942737871
 20
36.54438040587074
 30
0.0
 10
-116.1265557928117
 20
36.59663674740478
 30
0.0
 10
-116.0281673469293
 20
36.62594150848203
 30
0.0
 10
-115.9289203631249
 20
36.6558186281717
 30
0.0
 10
-115.8366561544205
 20
36.68054452033064
 30
0.0
 10
-115.7081616453996
 20
36.71568733928143
 30
0.0
 10
-115.5740007860913
 20
36.74625128931423
 30
0.0
 10
-115.441099115737
 20
36.77778824898561
 30
0.0
 10
-114.7321757354545
 20
36.93781971768564
 30
0.0
 10
-114.2848202421332
 20
36.9593404016019
 30
0.0
 10
-114.2848202421332
 20
36.9593404016019
 30
0.0
 10
-114.2848202421332
 20
36.9593404016019
 30
0.0
 10
-114.2943786310005
 20
36.977884820717
 30
0.0
 10
-114.2943786310005
 20
36.977884820717
 30
0.0
 10
-113.8133684511286
 20
36.98870239853504
 30
0.0
 10
-113.3226854106674
 20
36.93421385840686
 30
0.0
 10
-112.8520349217229
 20
36.77103441732807
 30
0.0
 10
-112.2768717497179
 20
36.53373453563801
 30
0.0
 10
-111.3279011663921
 20
36.11247859515094
 30
0.0
 10
-110.7111847589527
 20
35.67834458582674
 30
0.0
 10
-110.7111847589527
 20
35.67834458582674
 30
0.0
 10
-110.6029517448963
 20
38.6558113358471
 30
0.0
 10
-110.602837273173
 20
38.65798629857636
 30
0.0
 10
-110.5904170912323
 20
39.00077187297342
 30
0.0
 10
-111.6077272931646
 20
39.73207447509869
 30
0.0
 10
-111.828371539166
 20
39.90750239053538
 30
0.0
  0
HATCH
  5
83
330
79
100
AcDbEntity
  8
Layer 1
 62
     7
440
 33554687
100
AcDbHatch
 10
0.0
 20
0.0
 30
0.0
210
0.0
220
0.0
230
1.0
  2
SOLID
 70
     1
 71
     1
 91
        1
 92
        1
 93
        1
 72
     4
 94
        3
 73
     0
 74
     0
 95
      107
 96
      103
 40
0.0
 40
0.0
 40
0.0
 40
0.0
 40
1.0
 40
1.0
 40
1.0
 40
2.0
 40
2.0
 40
2.0
 40
3.0
 40
3.0
 40
3.0
 40
4.0
 40
4.0
 40
4.0
 40
5.0
 40
5.0
 40
5.0
 40
6.0
 40
6.0
 40
6.0
 40
7.0
 40
7.0
 40
7.0
 40
8.0
 40
8.0
 40
8.0
 40
9.0
 40
9.0
 40
9.0
 40
10.0
 40
10.0
 40
10.0
 40
11.0
 40
11.0
 40
11.0
 40
12.0
 40
12.0
 40
12.0
 40
13.0
 40
13.0
 40
13.0
 40
14.0
 40
14.0
 40
14.0
 40
15.0
 40
15.0
 40
15.0
 40
16.0
 40
16.0
 40
16.0
 40
17.0
 40
17.0
 40
17.0
 40
18.0
 40
18.0
 40
18.0
 40
19.0
 40
19.0
 40
19.0
 40
20.0
 40
20.0
 40
20.0
 40
21.0
 40
21.0
 40
21.0
 40
22.0
 40
22.0
 40
22.0
 40
23.0
 40
23.0
 40
23.0
 40
24.0
 40
24.0
 40
24.0
 40
25.0
 40
25.0
 40
25.0
 40
26.0
 40
26.0
 40
26.0
 40
27.0
 40
27.0
 40
27.0
 40
28.0
 40
28.0
 40
28.0
 40
29.0
 40
29.0
 40
29.0
 40
30.0
 40
30.0
 40
30.0
 40
31.0
 40
31.0
 40
31.0
 40
32.0
 40
32.0
 40
32.0
 40
33.0
 40
33.0
 40
33.0
 40
34.0
 40
34.0
 40
34.0
 40
34.0
 10
-111.828371539166
 20
39.90750239053538
 10
-112.6898857261527
 20
40.59244394485475
 10
-113.7955108623473
 20
41.10287335752783
 10
-114.9852154790538
 20
41.41154635847978
 10
-117.0706613279128
 20
41.95265419290706
 10
-119.4146987989331
 20
41.8737831757912
 10
-121.1564432996091
 20
41.02783714312294
 10
-121.2143087555636
 20
40.99120619177606
 10
-121.2632454171288
 20
40.95114108874565
 10
-121.3190503820707
 20
40.9137088353365
 10
-121.3802355179925
 20
40.88600667838507
 10
-121.4400469932383
 20
40.86563071169301
 10
-121.5017472519134
 20
40.83563912028322
 10
-123.3457150011905
 20
39.66985909367375
 10
-124.5169896705016
 20
37.6510930234334
 10
-125.1205990656618
 20
35.59872950251316
 10
-125.4299016610949
 20
34.5470777836911
 10
-125.5917646773584
 20
33.48953077113992
 10
-125.4736870951261
 20
32.39329231623335
 10
-125.4422646071742
 20
32.10133218681923
 10
-125.3600739100898
 20
30.79520982786828
 10
-125.0482529367514
 20
30.61720629866526
 10
-125.0482529367514
 20
30.61714906280969
 10
-122.4587880917072
 20
29.13931911941132
 10
-122.4587880917072
 20
29.13931911941132
 10
-122.5026307616004
 20
29.89225687717136
 10
-122.3607430609935
 20
30.92078530795101
 10
-122.2593783503138
 20
31.53463992231551
 10
-122.1501723266108
 20
32.02057238628112
 10
-121.9378272805234
 20
32.46638251134149
 10
-121.6752291480569
 20
32.8694946837409
 10
-121.6752291480569
 20
32.8694946837409
 10
-121.6645260419602
 20
32.85152262322956
 10
-121.6645260419602
 20
32.85152262322956
 10
-121.6645260419602
 20
32.85152262322956
 10
-121.4105132887144
 20
33.22040775046183
 10
-120.9008851781033
 20
33.73867847616237
 10
-120.8040421004809
 20
33.83500643103368
 10
-120.7074279663038
 20
33.93293699002119
 10
-120.6098980583435
 20
34.02359859460425
 10
-120.5401847790623
 20
34.08913365600158
 10
-120.4625729508952
 20
34.15758774632589
 10
-120.3858768965134
 20
34.22581289320838
 10
-120.2502279048079
 20
34.34532137197735
 10
-120.1142927337943
 20
34.46047992527912
 10
-119.9781858551967
 20
34.569685948976
 10
-119.9319965149828
 20
34.60694649480082
 10
-119.8908439305796
 20
34.64311955925603
 10
-119.8427658069371
 20
34.68055181266487
 10
-119.6562913702376
 20
34.82564472151123
 10
-119.4698741693989
 20
34.96037793943092
 10
-119.2841437988988
 20
35.08755602364011
 10
-119.2093365279457
 20
35.13889659139048
 10
-119.1280043687846
 20
35.18943585707859
 10
-119.0495340026962
 20
35.24049024551298
 10
-118.9288808066979
 20
35.31890337573716
 10
-118.8082848465615
 20
35.39640073218763
 10
-118.6888336036533
 20
35.46771661558305
 10
-118.5906168653549
 20
35.52644060946857
 10
-118.4872488995232
 20
35.58379094266785
 10
-118.3841671129995
 20
35.64125574758819
 10
-118.2810280906138
 20
35.69860608079773
 10
-118.1778318323668
 20
35.75624259330466
 10
-118.0762954141037
 20
35.80867064242368
 10
-117.9526659533087
 20
35.87266033555043
 10
-117.8231411987799
 20
35.93430335836166
 10
-117.6930440856382
 20
35.99560296601222
 10
-117.6083350106485
 20
36.03532465388102
 10
-117.5225384542908
 20
36.07779366309182
 10
-117.4394319834237
 20
36.11436737858346
 10
-117.2334973538216
 20
36.20525792660706
 10
-117.020637184979
 20
36.29271432294714
 10
-116.7991916369163
 20
36.3747333124501
 10
-116.7420702471598
 20
36.39585334533058
 10
-116.6897566697679
 20
36.41170767896823
 10
-116.6338372331028
 20
36.43133957945326
 10
-116.4691124237653
 20
36.48949121471576
 10
-116.2996942737871
 20
36.54438040587074
 10
-116.1265557928117
 20
36.59663674740478
 10
-116.0281673469293
 20
36.62594150848203
 10
-115.9289203631249
 20
36.6558186281717
 10
-115.8366561544205
 20
36.68054452033064
 10
-115.7081616453996
 20
36.71568733928143
 10
-115.5740007860913
 20
36.74625128931423
 10
-115.441099115737
 20
36.77778824898561
 10
-114.7321757354545
 20
36.93781971768564
 10
-114.2848202421332
 20
36.9593404016019
 10
-114.2848202421332
 20
36.9593404016019
 10
-114.2848202421332
 20
36.9593404016019
 10
-114.2943786310005
 20
36.977884820717
 10
-114.2943786310005
 20
36.977884820717
 10
-113.8133684511286
 20
36.98870239853504
 10
-113.3226854106674
 20
36.93421385840686
 10
-112.8520349217229
 20
36.77103441732807
 10
-112.2768717497179
 20
36.53373453563801
 10
-111.3279011663921
 20
36.11247859515094
 10
-110.7111847589527
 20
35.67834458582674
 10
-110.7111847589527
 20
35.67834458582674
 10
-110.6029517448963
 20
38.6558113358471
 10
-110.602837273173
 20
38.65798629857636
 10
-110.5904170912323
 20
39.00077187297342
 10
-111.6077272931646
 20
39.73207447509869
 10
-111.828371539166
 20
39.90750239053538
 97
        0
 97
        1
330
82
 75
     2
 76
     1
 98
        1
 10
0.0
 20
0.0
450
        0
451
        0
460
0.0
461
0.0
452
        0
462
0.0
453
        0
470

  0
ENDBLK
  5
7C
330
79
100
AcDbEntity
  8
0
100
AcDbBlockEnd
  0
ENDSEC
  0
SECTION
  2
ENTITIES
  0
INSERT
  5
7A
330
70
100
AcDbEntity
  8
Layer 1
100
AcDbBlockReference
  2
Block_0
 10
0.0
 20
0.0
 30
0.0
  0
ENDSEC
  0
SECTION
  2
OBJECTS
  0
DICTIONARY
  5
C
330
0
100
AcDbDictionary
281
     1
  3
ACAD_COLOR
350
63
  3
ACAD_DETAILVIEWSTYLE
350
6A
  3
ACAD_GROUP
350
D
  3
ACAD_LAYOUT
350
62
  3
ACAD_MATERIAL
350
10
  3
ACAD_MLEADERSTYLE
350
66
  3
ACAD_MLINESTYLE
350
5F
  3
ACAD_PLOTSETTINGS
350
61
  3
ACAD_PLOTSTYLENAME
350
E
  3
ACAD_SCALELIST
350
42
  3
ACAD_SECTIONVIEWSTYLE
350
68
  3
ACAD_TABLESTYLE
350
64
  3
ACAD_VISUALSTYLE
350
29
  3
ACDB_RECOMPOSE_DATA
350
8C
  3
AcDbVariableDictionary
350
84
  0
DICTIONARY
  5
63
102
{ACAD_REACTORS
330
C
102
}
330
C
100
AcDbDictionary
281
     1
  0
DICTIONARY
  5
6A
102
{ACAD_REACTORS
330
C
102
}
330
C
100
AcDbDictionary
281
     1
  3
Imperial24
350
6B
  0
DICTIONARY
  5
D
102
{ACAD_REACTORS
330
C
102
}
330
C
100
AcDbDictionary
281
     1
  0
DICTIONARY
  5
62
102
{ACAD_REACTORS
330
C
102
}
330
C
100
AcDbDictionary
281
     1
  3
Layout1
350
6F
  3
Layout2
350
77
  3
Model
350
73
  0
DICTIONARY
  5
10
102
{ACAD_REACTORS
330
C
102
}
330
C
100
AcDbDictionary
281
     1
  3
ByBlock
350
19
  3
ByLayer
350
11
  3
Global
350
21
  0
DICTIONARY
  5
66
102
{ACAD_REACTORS
330
C
102
}
330
C
100
AcDbDictionary
281
     1
  3
Standard
350
67
  0
DICTIONARY
  5
5F
102
{ACAD_REACTORS
330
C
102
}
330
C
100
AcDbDictionary
281
     1
  3
Standard
350
60
  0
DICTIONARY
  5
61
102
{ACAD_REACTORS
330
C
102
}
330
C
100
AcDbDictionary
281
     1
  0
ACDBDICTIONARYWDFLT
  5
E
102
{ACAD_REACTORS
330
C
102
}
330
C
100
AcDbDictionary
281
     1
  3
Normal
350
F
100
AcDbDictionaryWithDefault
340
F
  0
DICTIONARY
  5
42
102
{ACAD_REACTORS
330
C
102
}
330
C
100
AcDbDictionary
281
     1
  3
A0
350
43
  3
A1
350
44
  3
A2
350
45
  3
A3
350
46
  3
A4
350
47
  3
A5
350
48
  3
A6
350
49
  3
A7
350
4A
  3
A8
350
4B
  3
A9
350
4C
  3
B0
350
4D
  3
B1
350
4E
  3
B2
350
4F
  3
B3
350
50
  3
B4
350
51
  3
B5
350
52
  3
B6
350
53
  0
DICTIONARY
  5
68
102
{ACAD_REACTORS
330
C
102
}
330
C
100
AcDbDictionary
281
     1
  3
Imperial24
350
69
  0
DICTIONARY
  5
64
102
{ACAD_REACTORS
330
C
102
}
330
C
100
AcDbDictionary
281
     1
  3
Standard
350
65
  0
DICTIONARY
  5
29
102
{ACAD_REACTORS
330
C
102
}
330
C
100
AcDbDictionary
281
     1
  3
2dWireframe
350
2F
  3
Basic
350
2E
  3
Brighten
350
35
  3
ColorChange
350
39
  3
Conceptual
350
32
  3
Dim
350
34
  3
EdgeColorOff
350
41
  3
Facepattern
350
38
  3
Flat
350
2A
  3
FlatWithEdges
350
2B
  3
Gouraud
350
2C
  3
GouraudWithEdges
350
2D
  3
Hidden
350
31
  3
JitterOff
350
3F
  3
Linepattern
350
37
  3
OverhangOff
350
40
  3
Realistic
350
33
  3
Shaded
350
3E
  3
Shaded with edges
350
3D
  3
Shades of Gray
350
3A
  3
Sketchy
350
3B
  3
Thicken
350
36
  3
Wireframe
350
30
  3
X-Ray
350
3C
  0
XRECORD
  5
8C
102
{ACAD_REACTORS
330
C
102
}
330
C
100
AcDbXrecord
280
     1
 90
        1
330
65
  0
DICTIONARY
  5
84
102
{ACAD_REACTORS
330
C
102
}
330
C
100
AcDbDictionary
281
     1
  3
CANNOSCALE
350
89
  3
CMLEADERSTYLE
350
86
  3
CTABLESTYLE
350
85
  3
CVIEWDETAILSTYLE
350
87
  3
CVIEWSECTIONSTYLE
350
88
  0
ACDBDETAILVIEWSTYLE
  5
6B
102
{ACAD_XDICTIONARY
360
8F
102
}
102
{ACAD_REACTORS
330
6A
102
}
330
6A
100
AcDbModelDocViewStyle
 70
     0
  3
Imperial24
290
     0
100
AcDbDetailViewStyle
 70
     0
 71
     0
 90
        3
 71
     1
340
55
 62
   256
 40
0.24
340
0
 62
   256
 40
0.24
300

 40
0.36
280
     3
 71
     2
340
5D
 90
       25
 62
   256
 71
     3
340
55
 62
   256
 40
0.24
 90
        1
 40
0.75
 90
        1
300
%<\AcVar ViewType \f "%tc1">% %<\AcVar ViewDetailId>%\PSCALE %<\AcVar ViewScale \f "%sn">%
 71
     4
340
5D
 90
       25
 62
   256
340
5D
 90
       25
 62
   256
280
     0
  0
LAYOUT
  5
6F
102
{ACAD_REACTORS
330
62
102
}
330
62
100
AcDbPlotSettings
  1

  2

  4

  6

 40
0.0
 41
0.0
 42
0.0
 43
0.0
 44
0.0
 45
0.0
 46
0.0
 47
0.0
 48
0.0
 49
0.0
140
0.0
141
0.0
142
1.0
143
1.0
 70
   688
 72
     0
 73
     0
 74
     5
  7

 75
    16
147
1.0
 76
     0
 77
     2
 78
   300
148
0.0
149
0.0
100
AcDbLayout
  1
Layout1
 70
     1
 71
     1
 10
0.0
 20
0.0
 11
12.0
 21
9.0
 12
0.0
 22
0.0
 32
0.0
 14
0.0
 24
0.0
 34
0.0
 15
0.0
 25
0.0
 35
0.0
146
0.0
 13
0.0
 23
0.0
 33
0.0
 16
1.0
 26
0.0
 36
0.0
 17
0.0
 27
1.0
 37
0.0
 76
     0
330
6C
  0
LAYOUT
  5
77
102
{ACAD_REACTORS
330
62
102
}
330
62
100
AcDbPlotSettings
  1

  2

  4

  6

 40
0.0
 41
0.0
 42
0.0
 43
0.0
 44
0.0
 45
0.0
 46
0.0
 47
0.0
 48
0.0
 49
0.0
140
0.0
141
0.0
142
1.0
143
1.0
 70
   688
 72
     0
 73
     0
 74
     5
  7

 75
    16
147
1.0
 76
     0
 77
     2
 78
   300
148
0.0
149
0.0
100
AcDbLayout
  1
Layout2
 70
     1
 71
     2
 10
0.0
 20
0.0
 11
12.0
 21
9.0
 12
0.0
 22
0.0
 32
0.0
 14
0.0
 24
0.0
 34
0.0
 15
0.0
 25
0.0
 35
0.0
146
0.0
 13
0.0
 23
0.0
 33
0.0
 16
1.0
 26
0.0
 36
0.0
 17
0.0
 27
1.0
 37
0.0
 76
     0
330
74
  0
LAYOUT
  5
73
102
{ACAD_REACTORS
330
62
102
}
330
62
100
AcDbPlotSettings
  1

  2

  4

  6

 40
0.0
 41
0.0
 42
0.0
 43
0.0
 44
0.0
 45
0.0
 46
0.0
 47
0.0
 48
0.0
 49
0.0
140
0.0
141
0.0
142
1.0
143
1.0
 70
  1712
 72
     0
 73
     0
 74
     0
  7

 75
     0
147
1.0
 76
     0
 77
     2
 78
   300
148
0.0
149
0.0
100
AcDbLayout
  1
Model
 70
     1
 71
     0
 10
0.0
 20
0.0
 11
12.0
 21
9.0
 12
0.0
 22
0.0
 32
0.0
 14
0.0
 24
0.0
 34
0.0
 15
0.0
 25
0.0
 35
0.0
146
0.0
 13
0.0
 23
0.0
 33
0.0
 16
1.0
 26
0.0
 36
0.0
 17
0.0
 27
1.0
 37
0.0
 76
     0
330
70
  0
MATERIAL
  5
19
102
{ACAD_XDICTIONARY
360
1A
102
}
102
{ACAD_REACTORS
330
10
102
}
330
10
100
AcDbMaterial
  1
ByBlock
 72
     0
 43
0.0208333333333333
 43
0.0
 43
0.0
 43
0.0
 43
0.0
 43
0.0208333333333333
 43
0.0
 43
0.0
 43
0.0
 43
0.0
 43
1.0
 43
0.0
 43
0.0
 43
0.0
 43
0.0
 43
1.0
 77
     0
 47
0.0208333333333333
 47
0.0
 47
0.0
 47
0.0
 47
0.0
 47
0.0208333333333333
 47
0.0
 47
0.0
 47
0.0
 47
0.0
 47
1.0
 47
0.0
 47
0.0
 47
0.0
 47
0.0
 47
1.0
171
     0
 49
0.0208333333333333
 49
0.0
 49
0.0
 49
0.0
 49
0.0
 49
0.0208333333333333
 49
0.0
 49
0.0
 49
0.0
 49
0.0
 49
1.0
 49
0.0
 49
0.0
 49
0.0
 49
0.0
 49
1.0
175
     0
142
0.0208333333333333
142
0.0
142
0.0
142
0.0
142
0.0
142
0.0208333333333333
142
0.0
142
0.0
142
0.0
142
0.0
142
1.0
142
0.0
142
0.0
142
0.0
142
0.0
142
1.0
179
     0
144
0.0208333333333333
144
0.0
144
0.0
144
0.0
144
0.0
144
0.0208333333333333
144
0.0
144
0.0
144
0.0
144
0.0
144
1.0
144
0.0
144
0.0
144
0.0
144
0.0
144
1.0
147
0.0208333333333333
147
0.0
147
0.0
147
0.0
147
0.0
147
0.0208333333333333
147
0.0
147
0.0
147
0.0
147
0.0
147
1.0
147
0.0
147
0.0
147
0.0
147
0.0
147
1.0
  0
MATERIAL
  5
11
102
{ACAD_XDICTIONARY
360
12
102
}
102
{ACAD_REACTORS
330
10
102
}
330
10
100
AcDbMaterial
  1
ByLayer
 72
     0
 43
0.0208333333333333
 43
0.0
 43
0.0
 43
0.0
 43
0.0
 43
0.0208333333333333
 43
0.0
 43
0.0
 43
0.0
 43
0.0
 43
1.0
 43
0.0
 43
0.0
 43
0.0
 43
0.0
 43
1.0
 77
     0
 47
0.0208333333333333
 47
0.0
 47
0.0
 47
0.0
 47
0.0
 47
0.0208333333333333
 47
0.0
 47
0.0
 47
0.0
 47
0.0
 47
1.0
 47
0.0
 47
0.0
 47
0.0
 47
0.0
 47
1.0
171
     0
 49
0.0208333333333333
 49
0.0
 49
0.0
 49
0.0
 49
0.0
 49
0.0208333333333333
 49
0.0
 49
0.0
 49
0.0
 49
0.0
 49
1.0
 49
0.0
 49
0.0
 49
0.0
 49
0.0
 49
1.0
175
     0
142
0.0208333333333333
142
0.0
142
0.0
142
0.0
142
0.0
142
0.0208333333333333
142
0.0
142
0.0
142
0.0
142
0.0
142
1.0
142
0.0
142
0.0
142
0.0
142
0.0
142
1.0
179
     0
144
0.0208333333333333
144
0.0
144
0.0
144
0.0
144
0.0
144
0.0208333333333333
144
0.0
144
0.0
144
0.0
144
0.0
144
1.0
144
0.0
144
0.0
144
0.0
144
0.0
144
1.0
147
0.0208333333333333
147
0.0
147
0.0
147
0.0
147
0.0
147
0.0208333333333333
147
0.0
147
0.0
147
0.0
147
0.0
147
1.0
147
0.0
147
0.0
147
0.0
147
0.0
147
1.0
  0
MATERIAL
  5
21
102
{ACAD_XDICTIONARY
360
22
102
}
102
{ACAD_REACTORS
330
10
102
}
330
10
100
AcDbMaterial
  1
Global
 72
     0
 43
0.0208333333333333
 43
0.0
 43
0.0
 43
0.0
 43
0.0
 43
0.0208333333333333
 43
0.0
 43
0.0
 43
0.0
 43
0.0
 43
1.0
 43
0.0
 43
0.0
 43
0.0
 43
0.0
 43
1.0
 77
     0
 47
0.0208333333333333
 47
0.0
 47
0.0
 47
0.0
 47
0.0
 47
0.0208333333333333
 47
0.0
 47
0.0
 47
0.0
 47
0.0
 47
1.0
 47
0.0
 47
0.0
 47
0.0
 47
0.0
 47
1.0
171
     0
 49
0.0208333333333333
 49
0.0
 49
0.0
 49
0.0
 49
0.0
 49
0.0208333333333333
 49
0.0
 49
0.0
 49
0.0
 49
0.0
 49
1.0
 49
0.0
 49
0.0
 49
0.0
 49
0.0
 49
1.0
175
     0
142
0.0208333333333333
142
0.0
142
0.0
142
0.0
142
0.0
142
0.0208333333333333
142
0.0
142
0.0
142
0.0
142
0.0
142
1.0
142
0.0
142
0.0
142
0.0
142
0.0
142
1.0
179
     0
144
0.0208333333333333
144
0.0
144
0.0
144
0.0
144
0.0
144
0.0208333333333333
144
0.0
144
0.0
144
0.0
144
0.0
144
1.0
144
0.0
144
0.0
144
0.0
144
0.0
144
1.0
147
0.0208333333333333
147
0.0
147
0.0
147
0.0
147
0.0
147
0.0208333333333333
147
0.0
147
0.0
147
0.0
147
0.0
147
1.0
147
0.0
147
0.0
147
0.0
147
0.0
147
1.0
  0
MLEADERSTYLE
  5
67
102
{ACAD_REACTORS
330
66
102
}
330
66
100
AcDbMLeaderStyle
179
     2
170
     2
171
     1
172
     0
 90
        2
 40
0.0
 41
0.0
173
     1
 91
-1056964608
340
5B
 92
       -2
290
     1
 42
0.09
291
     1
 43
0.36
  3
Standard
 44
0.18
300

342
55
174
     1
178
     6
175
     1
176
     0
 93
-1056964608
 45
0.18
292
     0
297
     0
 46
0.18
 94
-1056964608
 47
1.0
 49
1.0
140
1.0
293
     1
141
0.0
294
     1
177
     0
142
1.0
295
     0
296
     0
143
0.125
271
     0
272
     9
273
     9
298
     1
  0
MLINESTYLE
  5
60
102
{ACAD_REACTORS
330
5F
102
}
330
5F
100
AcDbMlineStyle
  2
STANDARD
 70
     0
  3

 62
   256
 51
90.0
 52
90.0
 71
     2
 49
0.5
 62
   256
  6
BYLAYER
 49
-0.5
 62
   256
  6
BYLAYER
  0
ACDBPLACEHOLDER
  5
F
102
{ACAD_REACTORS
330
E
102
}
330
E
  0
SCALE
  5
43
102
{ACAD_REACTORS
330
42
102
}
330
42
100
AcDbScale
 70
     0
300
1:1
140
1.0
141
1.0
290
     1
  0
SCALE
  5
44
102
{ACAD_REACTORS
330
42
102
}
330
42
100
AcDbScale
 70
     0
300
1/128" = 1'-0"
140
0.0078125
141
12.0
290
     0
  0
SCALE
  5
45
102
{ACAD_REACTORS
330
42
102
}
330
42
100
AcDbScale
 70
     0
300
1/64" = 1'-0"
140
0.015625
141
12.0
290
     0
  0
SCALE
  5
46
102
{ACAD_REACTORS
330
42
102
}
330
42
100
AcDbScale
 70
     0
300
1/32" = 1'-0"
140
0.03125
141
12.0
290
     0
  0
SCALE
  5
47
102
{ACAD_REACTORS
330
42
102
}
330
42
100
AcDbScale
 70
     0
300
1/16" = 1'-0"
140
0.0625
141
12.0
290
     0
  0
SCALE
  5
48
102
{ACAD_REACTORS
330
42
102
}
330
42
100
AcDbScale
 70
     0
300
3/32" = 1'-0"
140
0.09375
141
12.0
290
     0
  0
SCALE
  5
49
102
{ACAD_REACTORS
330
42
102
}
330
42
100
AcDbScale
 70
     0
300
1/8" = 1'-0"
140
0.125
141
12.0
290
     0
  0
SCALE
  5
4A
102
{ACAD_REACTORS
330
42
102
}
330
42
100
AcDbScale
 70
     0
300
3/16" = 1'-0"
140
0.1875
141
12.0
290
     0
  0
SCALE
  5
4B
102
{ACAD_REACTORS
330
42
102
}
330
42
100
AcDbScale
 70
     0
300
1/4" = 1'-0"
140
0.25
141
12.0
290
     0
  0
SCALE
  5
4C
102
{ACAD_REACTORS
330
42
102
}
330
42
100
AcDbScale
 70
     0
300
3/8" = 1'-0"
140
0.375
141
12.0
290
     0
  0
SCALE
  5
4D
102
{ACAD_REACTORS
330
42
102
}
330
42
100
AcDbScale
 70
     0
300
1/2" = 1'-0"
140
0.5
141
12.0
290
     0
  0
SCALE
  5
4E
102
{ACAD_REACTORS
330
42
102
}
330
42
100
AcDbScale
 70
     0
300
3/4" = 1'-0"
140
0.75
141
12.0
290
     0
  0
SCALE
  5
4F
102
{ACAD_REACTORS
330
42
102
}
330
42
100
AcDbScale
 70
     0
300
1" = 1'-0"
140
1.0
141
12.0
290
     0
  0
SCALE
  5
50
102
{ACAD_REACTORS
330
42
102
}
330
42
100
AcDbScale
 70
     0
300
1-1/2" = 1'-0"
140
1.5
141
12.0
290
     0
  0
SCALE
  5
51
102
{ACAD_REACTORS
330
42
102
}
330
42
100
AcDbScale
 70
     0
300
3" = 1'-0"
140
3.0
141
12.0
290
     0
  0
SCALE
  5
52
102
{ACAD_REACTORS
330
42
102
}
330
42
100
AcDbScale
 70
     0
300
6" = 1'-0"
140
6.0
141
12.0
290
     0
  0
SCALE
  5
53
102
{ACAD_REACTORS
330
42
102
}
330
42
100
AcDbScale
 70
     0
300
1'-0" = 1'-0"
140
12.0
141
12.0
290
     0
  0
ACDBSECTIONVIEWSTYLE
  5
69
102
{ACAD_XDICTIONARY
360
8D
102
}
102
{ACAD_REACTORS
330
68
102
}
330
68
100
AcDbModelDocViewStyle
 70
     0
  3
Imperial24
290
     0
100
AcDbSectionViewStyle
 70
     0
 71
     0
 90
       78
 71
     1
340
55
 62
   256
 40
0.24
340
0
340
0
 62
   256
 40
0.24
300
I, O, Q, S, X, Z
 40
0.48
 90
        3
 40
0.18
 90
        1
 71
     2
340
5D
 90
       25
 62
   256
340
5D
 90
       50
 62
   256
 40
0.24
 40
0.0
 40
0.24
 71
     3
340
55
 62
   256
 40
0.24
 90
        1
 40
0.75
 90
        1
300
%<\AcVar ViewType \f "%tc1">% %<\AcVar ViewSectionStartId>%-%<\AcVar ViewSectionEndId>%\PSCALE %<\AcVar ViewScale \f "%sn">%
 71
     4
 62
   256
 62
   257
300
ANSI31
 40
1.0
 90
        0
290
     0
290
     0
 90
        6
 40
0.0
 40
1.570796326794896
 40
0.2617993877991494
 40
1.308996938995747
 40
-0.2617993877991494
 40
1.832595714594046
  0
TABLESTYLE
  5
65
102
{ACAD_XDICTIONARY
360
8A
102
}
102
{ACAD_REACTORS
330
64
102
}
330
64
100
AcDbTableStyle
280
     0
  3
Standard
 70
     0
 71
     0
 40
0.06
 41
0.06
280
     0
281
     0
  7
Standard
140
0.18
170
     2
 62
     0
 63
     7
283
     0
 90
      512
 91
        0
  1

274
    -2
284
     1
 64
     0
275
    -2
285
     1
 65
     0
276
    -2
286
     1
 66
     0
277
    -2
287
     1
 67
     0
278
    -2
288
     1
 68
     0
279
    -2
289
     1
 69
     0
  7
Standard
140
0.25
170
     5
 62
     0
 63
     7
283
     0
 90
      512
 91
        0
  1

274
    -2
284
     1
 64
     0
275
    -2
285
     1
 65
     0
276
    -2
286
     1
 66
     0
277
    -2
287
     1
 67
     0
278
    -2
288
     1
 68
     0
279
    -2
289
     1
 69
     0
  7
Standard
140
0.18
170
     5
 62
     0
 63
     7
283
     0
 90
      512
 91
        0
  1

274
    -2
284
     1
 64
     0
275
    -2
285
     1
 65
     0
276
    -2
286
     1
 66
     0
277
    -2
287
     1
 67
     0
278
    -2
288
     1
 68
     0
279
    -2
289
     1
 69
     0
  0
VISUALSTYLE
  5
2F
102
{ACAD_REACTORS
330
29
102
}
330
29
100
AcDbVisualStyle
  2
2dWireframe
 70
     4
177
     3
291
     0
 70
    58
 90
        0
176
     1
 90
        2
176
     1
 90
        0
176
     1
 90
        0
176
     1
 40
0.6
176
     1
 40
30.0
176
     1
 62
     7
420
 16777215
176
     1
 90
        1
176
     1
 90
        4
176
     1
 62
     7
176
     1
 62
   257
176
     1
 90
        1
176
     1
 90
        1
176
     1
 40
1.0
176
     1
 90
        0
176
     1
 62
   257
176
     1
 40
1.0
176
     1
 90
        1
176
     1
 90
        6
176
     1
 90
        2
176
     1
 62
     7
176
     1
 90
        5
176
     1
 90
        0
176
     1
 90
        0
176
     1
290
     0
176
     1
 90
        1
176
     1
 40
0.0
176
     1
 90
        0
176
     1
290
     1
176
     1
290
     1
176
     1
290
     0
176
     1
290
     0
176
     1
290
     0
176
     1
290
     0
176
     1
290
     0
176
     1
290
     0
176
     1
290
     0
176
     1
 90
       50
176
     1
 40
0.0
176
     1
 40
1.0
176
     1
 90
        0
176
     1
 62
    18
420
        0
176
     1
 90
       50
176
     1
 90
        3
176
     1
 62
     5
420
      255
176
     1
290
     0
176
     1
 90
       50
176
     1
 90
       50
176
     1
 90
       50
176
     1
290
     0
176
     1
 90
       50
176
     1
 62
   256
176
     0
 40
1.0
176
     0
 90
        2
176
     1
  1
strokes_ogs.tif
176
     1
290
     0
176
     1
 40
1.0
176
     1
 40
1.0
176
     1
1001
ACAD
1000
AcDbSavedByObjectVersion
1070
     0
  0
VISUALSTYLE
  5
2E
102
{ACAD_REACTORS
330
29
102
}
330
29
100
AcDbVisualStyle
  2
Basic
 70
     7
177
     3
291
     1
 70
    58
 90
        1
176
     1
 90
        0
176
     1
 90
        1
176
     1
 90
        0
176
     1
 40
0.6
176
     1
 40
30.0
176
     1
 62
     7
420
 16777215
176
     1
 90
        0
176
     1
 90
        4
176
     1
 62
     7
176
     1
 62
   257
176
     1
 90
        1
176
     1
 90
        1
176
     1
 40
1.0
176
     1
 90
        8
176
     1
 62
     7
176
     1
 40
1.0
176
     1
 90
        1
176
     1
 90
        6
176
     1
 90
        2
176
     1
 62
     7
176
     1
 90
        5
176
     1
 90
        0
176
     1
 90
        0
176
     1
290
     0
176
     1
 90
        1
176
     1
 40
0.0
176
     1
 90
        0
176
     1
290
     0
176
     1
290
     1
176
     1
290
     1
176
     1
290
     0
176
     1
290
     0
176
     1
290
     0
176
     1
290
     0
176
     1
290
     0
176
     1
290
     0
176
     1
 90
       50
176
     1
 40
0.0
176
     1
 40
1.0
176
     1
 90
        0
176
     1
 62
    18
420
        0
176
     1
 90
       50
176
     1
 90
        3
176
     1
 62
     5
420
      255
176
     1
290
     0
176
     1
 90
       50
176
     1
 90
       50
176
     1
 90
       50
176
     1
290
     0
176
     1
 90
       50
176
     1
 62
   256
176
     0
 40
1.0
176
     0
 90
        2
176
     1
  1
strokes_ogs.tif
176
     1
290
     0
176
     1
 40
1.0
176
     1
 40
1.0
176
     1
1001
ACAD
1000
AcDbSavedByObjectVersion
1070
     0
  0
VISUALSTYLE
  5
35
102
{ACAD_REACTORS
330
29
102
}
330
29
100
AcDbVisualStyle
  2
Brighten
 70
    12
177
     3
291
     1
 70
    58
 90
        2
176
     1
 90
        2
176
     1
 90
        0
176
     1
 90
        0
176
     1
 40
0.6
176
     1
 40
30.0
176
     1
 62
     7
420
 16777215
176
     1
 90
        1
176
     1
 90
        4
176
     1
 62
     7
176
     1
 62
   257
176
     1
 90
        1
176
     1
 90
        1
176
     1
 40
1.0
176
     1
 90
        8
176
     1
 62
     7
176
     1
 40
1.0
176
     1
 90
        1
176
     1
 90
        6
176
     1
 90
        2
176
     1
 62
     7
176
     1
 90
        5
176
     1
 90
        0
176
     1
 90
        0
176
     1
290
     0
176
     1
 90
        1
176
     1
 40
50.0
176
     1
 90
        0
176
     1
290
     0
176
     1
290
     1
176
     1
290
     1
176
     1
290
     0
176
     1
290
     0
176
     1
290
     0
176
     1
290
     0
176
     1
290
     0
176
     1
290
     0
176
     1
 90
       50
176
     1
 40
0.0
176
     1
 40
1.0
176
     1
 90
        0
176
     1
 62
    18
420
        0
176
     1
 90
       50
176
     1
 90
        3
176
     1
 62
     5
420
      255
176
     1
290
     0
176
     1
 90
       50
176
     1
 90
       50
176
     1
 90
       50
176
     1
290
     0
176
     1
 90
       50
176
     1
 62
   256
176
     0
 40
1.0
176
     0
 90
        2
176
     1
  1
strokes_ogs.tif
176
     1
290
     0
176
     1
 40
1.0
176
     1
 40
1.0
176
     1
1001
ACAD
1000
AcDbSavedByObjectVersion
1070
     0
  0
VISUALSTYLE
  5
39
102
{ACAD_REACTORS
330
29
102
}
330
29
100
AcDbVisualStyle
  2
ColorChange
 70
    16
177
     3
291
     1
 70
    58
 90
        2
176
     1
 90
        2
176
     1
 90
        3
176
     1
 90
        0
176
     1
 40
0.6
176
     1
 40
30.0
176
     1
 62
     8
420
  8421504
176
     1
 90
        1
176
     1
 90
        4
176
     1
 62
     7
176
     1
 62
   257
176
     1
 90
        1
176
     1
 90
        1
176
     1
 40
1.0
176
     1
 90
        8
176
     1
 62
     8
420
  8421504
176
     1
 40
1.0
176
     1
 90
        1
176
     1
 90
        6
176
     1
 90
        2
176
     1
 62
     7
176
     1
 90
        5
176
     1
 90
        0
176
     1
 90
        0
176
     1
290
     0
176
     1
 90
        1
176
     1
 40
0.0
176
     1
 90
        0
176
     1
290
     0
176
     1
290
     1
176
     1
290
     1
176
     1
290
     0
176
     1
290
     0
176
     1
290
     0
176
     1
290
     0
176
     1
290
     0
176
     1
290
     0
176
     1
 90
       50
176
     1
 40
0.0
176
     1
 40
1.0
176
     1
 90
        0
176
     1
 62
    18
420
        0
176
     1
 90
       50
176
     1
 90
        3
176
     1
 62
     5
420
      255
176
     1
290
     0
176
     1
 90
       50
176
     1
 90
       50
176
     1
 90
       50
176
     1
290
     0
176
     1
 90
       50
176
     1
 62
   256
176
     0
 40
1.0
176
     0
 90
        2
176
     1
  1
strokes_ogs.tif
176
     1
290
     0
176
     1
 40
1.0
176
     1
 40
1.0
176
     1
1001
ACAD
1000
AcDbSavedByObjectVersion
1070
     0
  0
VISUALSTYLE
  5
32
102
{ACAD_REACTORS
330
29
102
}
330
29
100
AcDbVisualStyle
  2
Conceptual
 70
     9
177
     3
291
     0
 70
    58
 90
        3
176
     1
 90
        2
176
     1
 90
        0
176
     1
 90
        0
176
     1
 40
0.6
176
     1
 40
30.0
176
     1
 62
     7
420
 16777215
176
     1
 90
        2
176
     1
 90
        2
176
     1
 62
     7
176
     1
 62
   257
176
     1
 90
        1
176
     1
 90
        1
176
     1
 40
179.0
176
     1
 90
        8
176
     1
 62
     7
176
     1
 40
1.0
176
     1
 90
        1
176
     1
 90
        6
176
     1
 90
        2
176
     1
 62
     7
176
     1
 90
        3
176
     1
 90
        0
176
     1
 90
        0
176
     1
290
     0
176
     1
 90
        1
176
     1
 40
0.0
176
     1
 90
        0
176
     1
290
     0
176
     1
290
     1
176
     1
290
     1
176
     1
290
     0
176
     1
290
     0
176
     1
290
     0
176
     1
290
     0
176
     1
290
     0
176
     1
290
     0
176
     1
 90
       50
176
     1
 40
0.0
176
     1
 40
1.0
176
     1
 90
        0
176
     1
 62
    18
420
        0
176
     1
 90
       50
176
     1
 90
        3
176
     1
 62
     5
420
      255
176
     1
290
     0
176
     1
 90
       50
176
     1
 90
       50
176
     1
 90
       50
176
     1
290
     0
176
     1
 90
       50
176
     1
 62
   256
176
     0
 40
1.0
176
     0
 90
        2
176
     1
  1
strokes_ogs.tif
176
     1
290
     0
176
     1
 40
1.0
176
     1
 40
1.0
176
     1
1001
ACAD
1000
AcDbSavedByObjectVersion
1070
     0
  0
VISUALSTYLE
  5
34
102
{ACAD_REACTORS
330
29
102
}
330
29
100
AcDbVisualStyle
  2
Dim
 70
    11
177
     3
291
     1
 70
    58
 90
        2
176
     1
 90
        2
176
     1
 90
        0
176
     1
 90
        0
176
     1
 40
0.6
176
     1
 40
30.0
176
     1
 62
     7
420
 16777215
176
     1
 90
        1
176
     1
 90
        4
176
     1
 62
     7
176
     1
 62
   257
176
     1
 90
        1
176
     1
 90
        1
176
     1
 40
1.0
176
     1
 90
        8
176
     1
 62
     7
176
     1
 40
1.0
176
     1
 90
        1
176
     1
 90
        6
176
     1
 90
        2
176
     1
 62
     7
176
     1
 90
        5
176
     1
 90
        0
176
     1
 90
        0
176
     1
290
     0
176
     1
 90
        1
176
     1
 40
-50.0
176
     1
 90
        0
176
     1
290
     0
176
     1
290
     1
176
     1
290
     1
176
     1
290
     0
176
     1
290
     0
176
     1
290
     0
176
     1
290
     0
176
     1
290
     0
176
     1
290
     0
176
     1
 90
       50
176
     1
 40
0.0
176
     1
 40
1.0
176
     1
 90
        0
176
     1
 62
    18
420
        0
176
     1
 90
       50
176
     1
 90
        3
176
     1
 62
     5
420
      255
176
     1
290
     0
176
     1
 90
       50
176
     1
 90
       50
176
     1
 90
       50
176
     1
290
     0
176
     1
 90
       50
176
     1
 62
   256
176
     0
 40
1.0
176
     0
 90
        2
176
     1
  1
strokes_ogs.tif
176
     1
290
     0
176
     1
 40
1.0
176
     1
 40
1.0
176
     1
1001
ACAD
1000
AcDbSavedByObjectVersion
1070
     0
  0
VISUALSTYLE
  5
41
102
{ACAD_REACTORS
330
29
102
}
330
29
100
AcDbVisualStyle
  2
EdgeColorOff
 70
    22
177
     3
291
     1
 70
    58
 90
        2
176
     0
 90
        2
176
     0
 90
        0
176
     0
 90
        0
176
     0
 40
0.6
176
     0
 40
30.0
176
     0
 62
     7
420
 16777215
176
     0
 90
        1
176
     0
 90
        4
176
     0
 62
     7
176
     0
 62
   257
176
     0
 90
        1
176
     0
 90
        1
176
     0
 40
1.0
176
     0
 90
        8
176
     2
 62
     7
176
     0
 40
1.0
176
     0
 90
        1
176
     0
 90
        6
176
     0
 90
        2
176
     0
 62
     7
176
     0
 90
        5
176
     0
 90
        0
176
     0
 90
        0
176
     0
290
     0
176
     0
 90
        1
176
     0
 40
0.0
176
     0
 90
        0
176
     0
290
     0
176
     0
290
     1
176
     0
290
     1
176
     0
290
     0
176
     0
290
     0
176
     0
290
     0
176
     0
290
     0
176
     0
290
     0
176
     0
290
     0
176
     0
 90
       50
176
     0
 40
0.0
176
     0
 40
1.0
176
     0
 90
        0
176
     0
 62
    18
420
        0
176
     0
 90
       50
176
     0
 90
        3
176
     0
 62
     5
420
      255
176
     0
290
     0
176
     0
 90
       50
176
     0
 90
       50
176
     0
 90
       50
176
     0
290
     0
176
     0
 90
       50
176
     0
 62
   256
176
     0
 40
1.0
176
     0
 90
        2
176
     0
  1
strokes_ogs.tif
176
     0
290
     0
176
     0
 40
1.0
176
     0
 40
1.0
176
     0
1001
ACAD
1000
AcDbSavedByObjectVersion
1070
     0
  0
VISUALSTYLE
  5
38
102
{ACAD_REACTORS
330
29
102
}
330
29
100
AcDbVisualStyle
  2
Facepattern
 70
    15
177
     3
291
     1
 70
    58
 90
        2
176
     1
 90
        2
176
     1
 90
        0
176
     1
 90
        0
176
     1
 40
0.6
176
     1
 40
30.0
176
     1
 62
     7
420
 16777215
176
     1
 90
        1
176
     1
 90
        4
176
     1
 62
     7
176
     1
 62
   257
176
     1
 90
        1
176
     1
 90
        1
176
     1
 40
1.0
176
     1
 90
        8
176
     1
 62
     7
176
     1
 40
1.0
176
     1
 90
        1
176
     1
 90
        6
176
     1
 90
        2
176
     1
 62
     7
176
     1
 90
        5
176
     1
 90
        0
176
     1
 90
        0
176
     1
290
     0
176
     1
 90
        1
176
     1
 40
0.0
176
     1
 90
        0
176
     1
290
     0
176
     1
290
     1
176
     1
290
     1
176
     1
290
     0
176
     1
290
     0
176
     1
290
     0
176
     1
290
     0
176
     1
290
     0
176
     1
290
     0
176
     1
 90
       50
176
     1
 40
0.0
176
     1
 40
1.0
176
     1
 90
        0
176
     1
 62
    18
420
        0
176
     1
 90
       50
176
     1
 90
        3
176
     1
 62
     5
420
      255
176
     1
290
     0
176
     1
 90
       50
176
     1
 90
       50
176
     1
 90
       50
176
     1
290
     0
176
     1
 90
       50
176
     1
 62
   256
176
     0
 40
1.0
176
     0
 90
        2
176
     1
  1
strokes_ogs.tif
176
     1
290
     0
176
     1
 40
1.0
176
     1
 40
1.0
176
     1
1001
ACAD
1000
AcDbSavedByObjectVersion
1070
     0
  0
VISUALSTYLE
  5
2A
102
{ACAD_REACTORS
330
29
102
}
330
29
100
AcDbVisualStyle
  2
Flat
 70
     0
177
     3
291
     1
 70
    58
 90
        2
176
     1
 90
        1
176
     1
 90
        1
176
     1
 90
        2
176
     1
 40
0.6
176
     1
 40
30.0
176
     1
 62
     7
420
 16777215
176
     1
 90
        0
176
     1
 90
        0
176
     1
 62
     7
176
     1
 62
   257
176
     1
 90
        1
176
     1
 90
        1
176
     1
 40
1.0
176
     1
 90
        8
176
     1
 62
     7
176
     1
 40
1.0
176
     1
 90
        1
176
     1
 90
        6
176
     1
 90
        2
176
     1
 62
     7
176
     1
 90
        5
176
     1
 90
        0
176
     1
 90
        0
176
     1
290
     0
176
     1
 90
       13
176
     1
 40
0.0
176
     1
 90
        0
176
     1
290
     0
176
     1
290
     1
176
     1
290
     1
176
     1
290
     0
176
     1
290
     0
176
     1
290
     0
176
     1
290
     0
176
     1
290
     0
176
     1
290
     0
176
     1
 90
       50
176
     1
 40
0.0
176
     1
 40
1.0
176
     1
 90
        0
176
     1
 62
    18
420
        0
176
     1
 90
       50
176
     1
 90
        3
176
     1
 62
     5
420
      255
176
     1
290
     0
176
     1
 90
       50
176
     1
 90
       50
176
     1
 90
       50
176
     1
290
     0
176
     1
 90
       50
176
     1
 62
   256
176
     0
 40
1.0
176
     0
 90
        2
176
     1
  1
strokes_ogs.tif
176
     1
290
     0
176
     1
 40
1.0
176
     1
 40
1.0
176
     1
1001
ACAD
1000
AcDbSavedByObjectVersion
1070
     0
  0
VISUALSTYLE
  5
2B
102
{ACAD_REACTORS
330
29
102
}
330
29
100
AcDbVisualStyle
  2
FlatWithEdges
 70
     1
177
     3
291
     1
 70
    58
 90
        2
176
     1
 90
        1
176
     1
 90
        1
176
     1
 90
        2
176
     1
 40
0.6
176
     1
 40
30.0
176
     1
 62
     7
420
 16777215
176
     1
 90
        1
176
     1
 90
        0
176
     1
 62
     7
176
     1
 62
   257
176
     1
 90
        1
176
     1
 90
        1
176
     1
 40
1.0
176
     1
 90
        0
176
     1
 62
   257
176
     1
 40
1.0
176
     1
 90
        1
176
     1
 90
        6
176
     1
 90
        2
176
     1
 62
     7
176
     1
 90
        5
176
     1
 90
        0
176
     1
 90
        0
176
     1
290
     0
176
     1
 90
       13
176
     1
 40
0.0
176
     1
 90
        0
176
     1
290
     0
176
     1
290
     1
176
     1
290
     1
176
     1
290
     0
176
     1
290
     0
176
     1
290
     0
176
     1
290
     0
176
     1
290
     0
176
     1
290
     0
176
     1
 90
       50
176
     1
 40
0.0
176
     1
 40
1.0
176
     1
 90
        0
176
     1
 62
    18
420
        0
176
     1
 90
       50
176
     1
 90
        3
176
     1
 62
     5
420
      255
176
     1
290
     0
176
     1
 90
       50
176
     1
 90
       50
176
     1
 90
       50
176
     1
290
     0
176
     1
 90
       50
176
     1
 62
   256
176
     0
 40
1.0
176
     0
 90
        2
176
     1
  1
strokes_ogs.tif
176
     1
290
     0
176
     1
 40
1.0
176
     1
 40
1.0
176
     1
1001
ACAD
1000
AcDbSavedByObjectVersion
1070
     0
  0
VISUALSTYLE
  5
2C
102
{ACAD_REACTORS
330
29
102
}
330
29
100
AcDbVisualStyle
  2
Gouraud
 70
     2
177
     3
291
     1
 70
    58
 90
        2
176
     1
 90
        2
176
     1
 90
        1
176
     1
 90
        2
176
     1
 40
0.6
176
     1
 40
30.0
176
     1
 62
     7
420
 16777215
176
     1
 90
        0
176
     1
 90
        0
176
     1
 62
     7
176
     1
 62
   257
176
     1
 90
        1
176
     1
 90
        1
176
     1
 40
1.0
176
     1
 90
        0
176
     1
 62
     7
176
     1
 40
1.0
176
     1
 90
        1
176
     1
 90
        6
176
     1
 90
        2
176
     1
 62
     7
176
     1
 90
        5
176
     1
 90
        0
176
     1
 90
        0
176
     1
290
     0
176
     1
 90
       13
176
     1
 40
0.0
176
     1
 90
        0
176
     1
290
     0
176
     1
290
     1
176
     1
290
     1
176
     1
290
     0
176
     1
290
     0
176
     1
290
     0
176
     1
290
     0
176
     1
290
     0
176
     1
290
     0
176
     1
 90
       50
176
     1
 40
0.0
176
     1
 40
1.0
176
     1
 90
        0
176
     1
 62
    18
420
        0
176
     1
 90
       50
176
     1
 90
        3
176
     1
 62
     5
420
      255
176
     1
290
     0
176
     1
 90
       50
176
     1
 90
       50
176
     1
 90
       50
176
     1
290
     0
176
     1
 90
       50
176
     1
 62
   256
176
     0
 40
1.0
176
     0
 90
        2
176
     1
  1
strokes_ogs.tif
176
     1
290
     0
176
     1
 40
1.0
176
     1
 40
1.0
176
     1
1001
ACAD
1000
AcDbSavedByObjectVersion
1070
     0
  0
VISUALSTYLE
  5
2D
102
{ACAD_REACTORS
330
29
102
}
330
29
100
AcDbVisualStyle
  2
GouraudWithEdges
 70
     3
177
     3
291
     1
 70
    58
 90
        2
176
     1
 90
        2
176
     1
 90
        1
176
     1
 90
        2
176
     1
 40
0.6
176
     1
 40
30.0
176
     1
 62
     7
420
 16777215
176
     1
 90
        1
176
     1
 90
        0
176
     1
 62
     7
176
     1
 62
   257
176
     1
 90
        1
176
     1
 90
        1
176
     1
 40
1.0
176
     1
 90
        0
176
     1
 62
   257
176
     1
 40
1.0
176
     1
 90
        1
176
     1
 90
        6
176
     1
 90
        2
176
     1
 62
     7
176
     1
 90
        5
176
     1
 90
        0
176
     1
 90
        0
176
     1
290
     0
176
     1
 90
       13
176
     1
 40
0.0
176
     1
 90
        0
176
     1
290
     0
176
     1
290
     1
176
     1
290
     1
176
     1
290
     0
176
     1
290
     0
176
     1
290
     0
176
     1
290
     0
176
     1
290
     0
176
     1
290
     0
176
     1
 90
       50
176
     1
 40
0.0
176
     1
 40
1.0
176
     1
 90
        0
176
     1
 62
    18
420
        0
176
     1
 90
       50
176
     1
 90
        3
176
     1
 62
     5
420
      255
176
     1
290
     0
176
     1
 90
       50
176
     1
 90
       50
176
     1
 90
       50
176
     1
290
     0
176
     1
 90
       50
176
     1
 62
   256
176
     0
 40
1.0
176
     0
 90
        2
176
     1
  1
strokes_ogs.tif
176
     1
290
     0
176
     1
 40
1.0
176
     1
 40
1.0
176
     1
1001
ACAD
1000
AcDbSavedByObjectVersion
1070
     0
  0
VISUALSTYLE
  5
31
102
{ACAD_REACTORS
330
29
102
}
330
29
100
AcDbVisualStyle
  2
Hidden
 70
     6
177
     3
291
     0
 70
    58
 90
        1
176
     1
 90
        2
176
     1
 90
        2
176
     1
 90
        0
176
     1
 40
0.6
176
     1
 40
30.0
176
     1
 62
     7
420
 16777215
176
     1
 90
        2
176
     1
 90
        2
176
     1
 62
     7
176
     1
 62
   257
176
     1
 90
        2
176
     1
 90
        1
176
     1
 40
40.0
176
     1
 90
        0
176
     1
 62
   257
176
     1
 40
1.0
176
     1
 90
        1
176
     1
 90
        6
176
     1
 90
        2
176
     1
 62
     7
176
     1
 90
        3
176
     1
 90
        0
176
     1
 90
        0
176
     1
290
     0
176
     1
 90
        1
176
     1
 40
0.0
176
     1
 90
        0
176
     1
290
     0
176
     1
290
     1
176
     1
290
     1
176
     1
290
     0
176
     1
290
     0
176
     1
290
     0
176
     1
290
     0
176
     1
290
     0
176
     1
290
     0
176
     1
 90
       50
176
     1
 40
0.0
176
     1
 40
1.0
176
     1
 90
        0
176
     1
 62
    18
420
        0
176
     1
 90
       50
176
     1
 90
        3
176
     1
 62
     5
420
      255
176
     1
290
     0
176
     1
 90
       50
176
     1
 90
       50
176
     1
 90
       50
176
     1
290
     0
176
     1
 90
       50
176
     1
 62
   256
176
     0
 40
1.0
176
     0
 90
        2
176
     1
  1
strokes_ogs.tif
176
     1
290
     0
176
     1
 40
1.0
176
     1
 40
1.0
176
     1
1001
ACAD
1000
AcDbSavedByObjectVersion
1070
     0
  0
VISUALSTYLE
  5
3F
102
{ACAD_REACTORS
330
29
102
}
330
29
100
AcDbVisualStyle
  2
JitterOff
 70
    20
177
     3
291
     1
 70
    58
 90
        2
176
     0
 90
        2
176
     0
 90
        0
176
     0
 90
        0
176
     0
 40
0.6
176
     0
 40
30.0
176
     0
 62
     7
420
 16777215
176
     0
 90
        1
176
     0
 90
        4
176
     0
 62
     7
176
     0
 62
   257
176
     0
 90
        1
176
     0
 90
        1
176
     0
 40
1.0
176
     0
 90
       10
176
     2
 62
     7
176
     0
 40
1.0
176
     0
 90
        1
176
     0
 90
        6
176
     0
 90
        2
176
     0
 62
     7
176
     0
 90
        5
176
     0
 90
        0
176
     0
 90
        0
176
     0
290
     0
176
     0
 90
        1
176
     0
 40
0.0
176
     0
 90
        0
176
     0
290
     0
176
     0
290
     1
176
     0
290
     1
176
     0
290
     0
176
     0
290
     0
176
     0
290
     0
176
     0
290
     0
176
     0
290
     0
176
     0
290
     0
176
     0
 90
       50
176
     0
 40
0.0
176
     0
 40
1.0
176
     0
 90
        0
176
     0
 62
    18
420
        0
176
     0
 90
       50
176
     0
 90
        3
176
     0
 62
     5
420
      255
176
     0
290
     0
176
     0
 90
       50
176
     0
 90
       50
176
     0
 90
       50
176
     0
290
     0
176
     0
 90
       50
176
     0
 62
   256
176
     0
 40
1.0
176
     0
 90
        2
176
     0
  1
strokes_ogs.tif
176
     0
290
     0
176
     0
 40
1.0
176
     0
 40
1.0
176
     0
1001
ACAD
1000
AcDbSavedByObjectVersion
1070
     0
  0
VISUALSTYLE
  5
37
102
{ACAD_REACTORS
330
29
102
}
330
29
100
AcDbVisualStyle
  2
Linepattern
 70
    14
177
     3
291
     1
 70
    58
 90
        2
176
     1
 90
        2
176
     1
 90
        0
176
     1
 90
        0
176
     1
 40
0.6
176
     1
 40
30.0
176
     1
 62
     7
420
 16777215
176
     1
 90
        1
176
     1
 90
        4
176
     1
 62
     7
176
     1
 62
   257
176
     1
 90
        7
176
     1
 90
        7
176
     1
 40
1.0
176
     1
 90
        8
176
     1
 62
     7
176
     1
 40
1.0
176
     1
 90
        1
176
     1
 90
        6
176
     1
 90
        2
176
     1
 62
     7
176
     1
 90
        5
176
     1
 90
        0
176
     1
 90
        0
176
     1
290
     0
176
     1
 90
        1
176
     1
 40
0.0
176
     1
 90
        0
176
     1
290
     0
176
     1
290
     1
176
     1
290
     1
176
     1
290
     0
176
     1
290
     0
176
     1
290
     0
176
     1
290
     0
176
     1
290
     0
176
     1
290
     0
176
     1
 90
       50
176
     1
 40
0.0
176
     1
 40
1.0
176
     1
 90
        0
176
     1
 62
    18
420
        0
176
     1
 90
       50
176
     1
 90
        3
176
     1
 62
     5
420
      255
176
     1
290
     0
176
     1
 90
       50
176
     1
 90
       50
176
     1
 90
       50
176
     1
290
     0
176
     1
 90
       50
176
     1
 62
   256
176
     0
 40
1.0
176
     0
 90
        2
176
     1
  1
strokes_ogs.tif
176
     1
290
     0
176
     1
 40
1.0
176
     1
 40
1.0
176
     1
1001
ACAD
1000
AcDbSavedByObjectVersion
1070
     0
  0
VISUALSTYLE
  5
40
102
{ACAD_REACTORS
330
29
102
}
330
29
100
AcDbVisualStyle
  2
OverhangOff
 70
    21
177
     3
291
     1
 70
    58
 90
        2
176
     0
 90
        2
176
     0
 90
        0
176
     0
 90
        0
176
     0
 40
0.6
176
     0
 40
30.0
176
     0
 62
     7
420
 16777215
176
     0
 90
        1
176
     0
 90
        4
176
     0
 62
     7
176
     0
 62
   257
176
     0
 90
        1
176
     0
 90
        1
176
     0
 40
1.0
176
     0
 90
        9
176
     2
 62
     7
176
     0
 40
1.0
176
     0
 90
        1
176
     0
 90
        6
176
     0
 90
        2
176
     0
 62
     7
176
     0
 90
        5
176
     0
 90
        0
176
     0
 90
        0
176
     0
290
     0
176
     0
 90
        1
176
     0
 40
0.0
176
     0
 90
        0
176
     0
290
     0
176
     0
290
     1
176
     0
290
     1
176
     0
290
     0
176
     0
290
     0
176
     0
290
     0
176
     0
290
     0
176
     0
290
     0
176
     0
290
     0
176
     0
 90
       50
176
     0
 40
0.0
176
     0
 40
1.0
176
     0
 90
        0
176
     0
 62
    18
420
        0
176
     0
 90
       50
176
     0
 90
        3
176
     0
 62
     5
420
      255
176
     0
290
     0
176
     0
 90
       50
176
     0
 90
       50
176
     0
 90
       50
176
     0
290
     0
176
     0
 90
       50
176
     0
 62
   256
176
     0
 40
1.0
176
     0
 90
        2
176
     0
  1
strokes_ogs.tif
176
     0
290
     0
176
     0
 40
1.0
176
     0
 40
1.0
176
     0
1001
ACAD
1000
AcDbSavedByObjectVersion
1070
     0
  0
VISUALSTYLE
  5
33
102
{ACAD_REACTORS
330
29
102
}
330
29
100
AcDbVisualStyle
  2
Realistic
 70
     8
177
     3
291
     0
 70
    58
 90
        2
176
     1
 90
        3
176
     1
 90
        0
176
     1
 90
        2
176
     1
 40
0.6
176
     1
 40
30.0
176
     1
 62
     7
420
 16777215
176
     1
 90
        0
176
     1
 90
        0
176
     1
 62
     7
176
     1
 62
   257
176
     1
 90
        1
176
     1
 90
        1
176
     1
 40
1.0
176
     1
 90
        8
176
     1
 62
   257
176
     1
 40
1.0
176
     1
 90
        1
176
     1
 90
        6
176
     1
 90
        2
176
     1
 62
     7
176
     1
 90
        3
176
     1
 90
        0
176
     1
 90
        0
176
     1
290
     0
176
     1
 90
       13
176
     1
 40
0.0
176
     1
 90
        0
176
     1
290
     0
176
     1
290
     1
176
     1
290
     1
176
     1
290
     0
176
     1
290
     0
176
     1
290
     0
176
     1
290
     0
176
     1
290
     0
176
     1
290
     0
176
     1
 90
       50
176
     1
 40
0.0
176
     1
 40
1.0
176
     1
 90
        0
176
     1
 62
    18
420
        0
176
     1
 90
       50
176
     1
 90
        3
176
     1
 62
     5
420
      255
176
     1
290
     0
176
     1
 90
       50
176
     1
 90
       50
176
     1
 90
       50
176
     1
290
     0
176
     1
 90
       50
176
     1
 62
   256
176
     0
 40
1.0
176
     0
 90
        2
176
     1
  1
strokes_ogs.tif
176
     1
290
     0
176
     1
 40
1.0
176
     1
 40
1.0
176
     1
1001
ACAD
1000
AcDbSavedByObjectVersion
1070
     0
  0
VISUALSTYLE
  5
3E
102
{ACAD_REACTORS
330
29
102
}
330
29
100
AcDbVisualStyle
  2
Shaded
 70
    27
177
     3
291
     0
 70
    58
 90
        2
176
     1
 90
        2
176
     1
 90
        1
176
     1
 90
        2
176
     1
 40
0.6
176
     1
 40
30.0
176
     1
 62
     7
420
 16777215
176
     1
 90
        0
176
     1
 90
        4
176
     1
 62
     7
176
     1
 62
   257
176
     1
 90
        1
176
     1
 90
        1
176
     1
 40
1.0
176
     1
 90
        8
176
     1
 62
   257
176
     1
 40
1.0
176
     1
 90
        1
176
     1
 90
        6
176
     1
 90
        2
176
     1
 62
     8
420
  7895160
176
     1
 90
        3
176
     1
 90
        0
176
     1
 90
        0
176
     1
290
     0
176
     1
 90
        5
176
     1
 40
0.0
176
     1
 90
        0
176
     1
290
     0
176
     1
290
     1
176
     1
290
     1
176
     1
290
     0
176
     1
290
     0
176
     1
290
     0
176
     1
290
     0
176
     1
290
     0
176
     1
290
     0
176
     1
 90
       50
176
     1
 40
0.0
176
     1
 40
1.0
176
     1
 90
        0
176
     1
 62
    18
420
        0
176
     1
 90
       50
176
     1
 90
        3
176
     1
 62
     5
420
      255
176
     1
290
     0
176
     1
 90
       50
176
     1
 90
       50
176
     1
 90
       50
176
     1
290
     0
176
     1
 90
       50
176
     1
 62
   256
176
     0
 40
1.0
176
     0
 90
        2
176
     1
  1
strokes_ogs.tif
176
     1
290
     0
176
     1
 40
1.0
176
     1
 40
1.0
176
     1
1001
ACAD
1000
AcDbSavedByObjectVersion
1070
     0
  0
VISUALSTYLE
  5
3D
102
{ACAD_REACTORS
330
29
102
}
330
29
100
AcDbVisualStyle
  2
Shaded with edges
 70
    26
177
     3
291
     0
 70
    58
 90
        2
176
     1
 90
        2
176
     1
 90
        1
176
     1
 90
        2
176
     1
 40
0.6
176
     1
 40
30.0
176
     1
 62
     7
420
 16777215
176
     1
 90
        1
176
     1
 90
        2
176
     1
 62
     7
176
     1
 62
   257
176
     1
 90
        2
176
     1
 90
        1
176
     1
 40
1.0
176
     1
 90
        8
176
     1
 62
   257
176
     1
 40
1.0
176
     1
 90
        1
176
     1
 90
        6
176
     1
 90
        2
176
     1
 62
     7
176
     1
 90
        3
176
     1
 90
        0
176
     1
 90
        0
176
     1
290
     0
176
     1
 90
        5
176
     1
 40
0.0
176
     1
 90
        0
176
     1
290
     0
176
     1
290
     1
176
     1
290
     1
176
     1
290
     0
176
     1
290
     0
176
     1
290
     0
176
     1
290
     0
176
     1
290
     0
176
     1
290
     0
176
     1
 90
       50
176
     1
 40
0.0
176
     1
 40
1.0
176
     1
 90
        0
176
     1
 62
    18
420
        0
176
     1
 90
       50
176
     1
 90
        3
176
     1
 62
     5
420
      255
176
     1
290
     0
176
     1
 90
       50
176
     1
 90
       50
176
     1
 90
       50
176
     1
290
     0
176
     1
 90
       50
176
     1
 62
   256
176
     0
 40
1.0
176
     0
 90
        2
176
     1
  1
strokes_ogs.tif
176
     1
290
     0
176
     1
 40
1.0
176
     1
 40
1.0
176
     1
1001
ACAD
1000
AcDbSavedByObjectVersion
1070
     0
  0
VISUALSTYLE
  5
3A
102
{ACAD_REACTORS
330
29
102
}
330
29
100
AcDbVisualStyle
  2
Shades of Gray
 70
    23
177
     3
291
     0
 70
    58
 90
        2
176
     1
 90
        2
176
     1
 90
        3
176
     1
 90
        0
176
     1
 40
0.6
176
     1
 40
30.0
176
     1
 62
     7
420
 16777215
176
     1
 90
        2
176
     1
 90
        2
176
     1
 62
     7
176
     1
 62
     7
176
     1
 90
        1
176
     1
 90
        1
176
     1
 40
40.0
176
     1
 90
        8
176
     1
 62
     7
176
     1
 40
1.0
176
     1
 90
        1
176
     1
 90
        6
176
     1
 90
        2
176
     1
 62
     7
176
     1
 90
        3
176
     1
 90
        0
176
     1
 90
        0
176
     1
290
     0
176
     1
 90
        1
176
     1
 40
0.0
176
     1
 90
        0
176
     1
290
     0
176
     1
290
     1
176
     1
290
     1
176
     1
290
     0
176
     1
290
     0
176
     1
290
     0
176
     1
290
     0
176
     1
290
     0
176
     1
290
     0
176
     1
 90
       50
176
     1
 40
0.0
176
     1
 40
1.0
176
     1
 90
        0
176
     1
 62
    18
420
        0
176
     1
 90
       50
176
     1
 90
        3
176
     1
 62
     5
420
      255
176
     1
290
     0
176
     1
 90
       50
176
     1
 90
       50
176
     1
 90
       50
176
     1
290
     0
176
     1
 90
       50
176
     1
 62
   256
176
     0
 40
1.0
176
     0
 90
        2
176
     1
  1
strokes_ogs.tif
176
     1
290
     0
176
     1
 40
1.0
176
     1
 40
1.0
176
     1
1001
ACAD
1000
AcDbSavedByObjectVersion
1070
     0
  0
VISUALSTYLE
  5
3B
102
{ACAD_REACTORS
330
29
102
}
330
29
100
AcDbVisualStyle
  2
Sketchy
 70
    24
177
     3
291
     0
 70
    58
 90
        1
176
     1
 90
        2
176
     1
 90
        2
176
     1
 90
        0
176
     1
 40
0.6
176
     1
 40
30.0
176
     1
 62
     7
420
 16777215
176
     1
 90
        2
176
     1
 90
        2
176
     1
 62
     7
176
     1
 62
     7
176
     1
 90
        1
176
     1
 90
        1
176
     1
 40
40.0
176
     1
 90
       11
176
     1
 62
     7
176
     1
 40
1.0
176
     1
 90
        1
176
     1
 90
        6
176
     1
 90
        2
176
     1
 62
     7
176
     1
 90
        6
176
     1
 90
        0
176
     1
 90
        0
176
     1
290
     0
176
     1
 90
        1
176
     1
 40
0.0
176
     1
 90
        0
176
     1
290
     0
176
     1
290
     1
176
     1
290
     1
176
     1
290
     0
176
     1
290
     0
176
     1
290
     0
176
     1
290
     0
176
     1
290
     0
176
     1
290
     0
176
     1
 90
       50
176
     1
 40
0.0
176
     1
 40
1.0
176
     1
 90
        0
176
     1
 62
    18
420
        0
176
     1
 90
       50
176
     1
 90
        3
176
     1
 62
     5
420
      255
176
     1
290
     0
176
     1
 90
       50
176
     1
 90
       50
176
     1
 90
       50
176
     1
290
     0
176
     1
 90
       50
176
     1
 62
   256
176
     0
 40
1.0
176
     0
 90
        2
176
     1
  1
strokes_ogs.tif
176
     1
290
     0
176
     1
 40
1.0
176
     1
 40
1.0
176
     1
1001
ACAD
1000
AcDbSavedByObjectVersion
1070
     0
  0
VISUALSTYLE
  5
36
102
{ACAD_REACTORS
330
29
102
}
330
29
100
AcDbVisualStyle
  2
Thicken
 70
    13
177
     3
291
     1
 70
    58
 90
        2
176
     1
 90
        2
176
     1
 90
        0
176
     1
 90
        0
176
     1
 40
0.6
176
     1
 40
30.0
176
     1
 62
     7
420
 16777215
176
     1
 90
        1
176
     1
 90
        4
176
     1
 62
     7
176
     1
 62
   257
176
     1
 90
        1
176
     1
 90
        1
176
     1
 40
1.0
176
     1
 90
       12
176
     1
 62
     7
176
     1
 40
1.0
176
     1
 90
        1
176
     1
 90
        6
176
     1
 90
        2
176
     1
 62
     7
176
     1
 90
        5
176
     1
 90
        0
176
     1
 90
        0
176
     1
290
     0
176
     1
 90
        1
176
     1
 40
0.0
176
     1
 90
        0
176
     1
290
     0
176
     1
290
     1
176
     1
290
     1
176
     1
290
     0
176
     1
290
     0
176
     1
290
     0
176
     1
290
     0
176
     1
290
     0
176
     1
290
     0
176
     1
 90
       50
176
     1
 40
0.0
176
     1
 40
1.0
176
     1
 90
        0
176
     1
 62
    18
420
        0
176
     1
 90
       50
176
     1
 90
        3
176
     1
 62
     5
420
      255
176
     1
290
     0
176
     1
 90
       50
176
     1
 90
       50
176
     1
 90
       50
176
     1
290
     0
176
     1
 90
       50
176
     1
 62
   256
176
     0
 40
1.0
176
     0
 90
        2
176
     1
  1
strokes_ogs.tif
176
     1
290
     0
176
     1
 40
1.0
176
     1
 40
1.0
176
     1
1001
ACAD
1000
AcDbSavedByObjectVersion
1070
     0
  0
VISUALSTYLE
  5
30
102
{ACAD_REACTORS
330
29
102
}
330
29
100
AcDbVisualStyle
  2
Wireframe
 70
     5
177
     3
291
     0
 70
    58
 90
        0
176
     1
 90
        2
176
     1
 90
        0
176
     1
 90
        0
176
     1
 40
0.6
176
     1
 40
30.0
176
     1
 62
     7
420
 16777215
176
     1
 90
        1
176
     1
 90
        4
176
     1
 62
     7
176
     1
 62
   257
176
     1
 90
        1
176
     1
 90
        1
176
     1
 40
1.0
176
     1
 90
        0
176
     1
 62
   257
176
     1
 40
1.0
176
     1
 90
        1
176
     1
 90
        6
176
     1
 90
        2
176
     1
 62
     7
176
     1
 90
        3
176
     1
 90
        0
176
     1
 90
        0
176
     1
290
     0
176
     1
 90
        1
176
     1
 40
0.0
176
     1
 90
        0
176
     1
290
     0
176
     1
290
     1
176
     1
290
     1
176
     1
290
     0
176
     1
290
     0
176
     1
290
     0
176
     1
290
     0
176
     1
290
     0
176
     1
290
     0
176
     1
 90
       50
176
     1
 40
0.0
176
     1
 40
1.0
176
     1
 90
        0
176
     1
 62
    18
420
        0
176
     1
 90
       50
176
     1
 90
        3
176
     1
 62
     5
420
      255
176
     1
290
     0
176
     1
 90
       50
176
     1
 90
       50
176
     1
 90
       50
176
     1
290
     0
176
     1
 90
       50
176
     1
 62
   256
176
     0
 40
1.0
176
     0
 90
        2
176
     1
  1
strokes_ogs.tif
176
     1
290
     0
176
     1
 40
1.0
176
     1
 40
1.0
176
     1
1001
ACAD
1000
AcDbSavedByObjectVersion
1070
     0
  0
VISUALSTYLE
  5
3C
102
{ACAD_REACTORS
330
29
102
}
330
29
100
AcDbVisualStyle
  2
X-Ray
 70
    25
177
     3
291
     0
 70
    58
 90
        2
176
     1
 90
        2
176
     1
 90
        1
176
     1
 90
        1
176
     1
 40
0.5
176
     1
 40
30.0
176
     1
 62
     7
420
 16777215
176
     1
 90
        1
176
     1
 90
        0
176
     1
 62
     7
176
     1
 62
   257
176
     1
 90
        1
176
     1
 90
        1
176
     1
 40
1.0
176
     1
 90
        8
176
     1
 62
     7
176
     1
 40
1.0
176
     1
 90
        1
176
     1
 90
        6
176
     1
 90
        2
176
     1
 62
     7
176
     1
 90
        3
176
     1
 90
        0
176
     1
 90
        0
176
     1
290
     0
176
     1
 90
       13
176
     1
 40
0.0
176
     1
 90
        0
176
     1
290
     0
176
     1
290
     1
176
     1
290
     1
176
     1
290
     0
176
     1
290
     0
176
     1
290
     0
176
     1
290
     0
176
     1
290
     0
176
     1
290
     0
176
     1
 90
       50
176
     1
 40
0.0
176
     1
 40
1.0
176
     1
 90
        0
176
     1
 62
    18
420
        0
176
     1
 90
       50
176
     1
 90
        3
176
     1
 62
     5
420
      255
176
     1
290
     0
176
     1
 90
       50
176
     1
 90
       50
176
     1
 90
       50
176
     1
290
     0
176
     1
 90
       50
176
     1
 62
   256
176
     0
 40
1.0
176
     0
 90
        2
176
     1
  1
strokes_ogs.tif
176
     1
290
     0
176
     1
 40
1.0
176
     1
 40
1.0
176
     1
1001
ACAD
1000
AcDbSavedByObjectVersion
1070
     0
  0
DICTIONARYVAR
  5
89
102
{ACAD_REACTORS
330
84
102
}
330
84
100
DictionaryVariables
280
     0
  1
1:1
  0
DICTIONARYVAR
  5
86
102
{ACAD_REACTORS
330
84
102
}
330
84
100
DictionaryVariables
280
     0
  1
STANDARD
  0
DICTIONARYVAR
  5
85
102
{ACAD_REACTORS
330
84
102
}
330
84
100
DictionaryVariables
280
     0
  1
STANDARD
  0
DICTIONARYVAR
  5
87
102
{ACAD_REACTORS
330
84
102
}
330
84
100
DictionaryVariables
280
     0
  1
Imperial24
  0
DICTIONARYVAR
  5
88
102
{ACAD_REACTORS
330
84
102
}
330
84
100
DictionaryVariables
280
     0
  1
Imperial24
  0
DICTIONARY
  5
8F
330
6B
100
AcDbDictionary
280
     1
281
     1
  3
ACAD_XREC_ROUNDTRIP
360
90
  0
DICTIONARY
  5
1A
330
19
100
AcDbDictionary
280
     1
281
     1
  3
BUMPTILE
360
1C
  3
DIFFUSETILE
360
1B
  3
OPACITYTILE
360
1F
  3
REFLECTIONTILE
360
1E
  3
REFRACTIONTILE
360
20
  3
SPECULARTILE
360
1D
  0
DICTIONARY
  5
12
330
11
100
AcDbDictionary
280
     1
281
     1
  3
BUMPTILE
360
14
  3
DIFFUSETILE
360
13
  3
OPACITYTILE
360
17
  3
REFLECTIONTILE
360
16
  3
REFRACTIONTILE
360
18
  3
SPECULARTILE
360
15
  0
DICTIONARY
  5
22
330
21
100
AcDbDictionary
280
     1
281
     1
  3
BUMPTILE
360
24
  3
DIFFUSETILE
360
23
  3
OPACITYTILE
360
27
  3
REFLECTIONTILE
360
26
  3
REFRACTIONTILE
360
28
  3
SPECULARTILE
360
25
  0
DICTIONARY
  5
8D
330
69
100
AcDbDictionary
280
     1
281
     1
  3
ACAD_XREC_ROUNDTRIP
360
8E
  0
DICTIONARY
  5
8A
330
65
100
AcDbDictionary
280
     1
281
     1
  3
ACAD_ROUNDTRIP_2008_TABLESTYLE_CELLSTYLEMAP
360
8B
  0
XRECORD
  5
90
102
{ACAD_REACTORS
330
8F
102
}
330
8F
100
AcDbXrecord
280
     1
102
DISPLAYNAME
  1
Imperial24
102
FLAGS
 90
        0
  0
XRECORD
  5
1C
102
{ACAD_REACTORS
330
1A
102
}
330
1A
100
AcDbXrecord
280
     1
270
     1
271
     1
  0
XRECORD
  5
1B
102
{ACAD_REACTORS
330
1A
102
}
330
1A
100
AcDbXrecord
280
     1
270
     1
271
     1
  0
XRECORD
  5
1F
102
{ACAD_REACTORS
330
1A
102
}
330
1A
100
AcDbXrecord
280
     1
270
     1
271
     1
  0
XRECORD
  5
1E
102
{ACAD_REACTORS
330
1A
102
}
330
1A
100
AcDbXrecord
280
     1
270
     1
271
     1
  0
XRECORD
  5
20
102
{ACAD_REACTORS
330
1A
102
}
330
1A
100
AcDbXrecord
280
     1
270
     1
271
     1
  0
XRECORD
  5
1D
102
{ACAD_REACTORS
330
1A
102
}
330
1A
100
AcDbXrecord
280
     1
270
     1
271
     1
  0
XRECORD
  5
14
102
{ACAD_REACTORS
330
12
102
}
330
12
100
AcDbXrecord
280
     1
270
     1
271
     1
  0
XRECORD
  5
13
102
{ACAD_REACTORS
330
12
102
}
330
12
100
AcDbXrecord
280
     1
270
     1
271
     1
  0
XRECORD
  5
17
102
{ACAD_REACTORS
330
12
102
}
330
12
100
AcDbXrecord
280
     1
270
     1
271
     1
  0
XRECORD
  5
16
102
{ACAD_REACTORS
330
12
102
}
330
12
100
AcDbXrecord
280
     1
270
     1
271
     1
  0
XRECORD
  5
18
102
{ACAD_REACTORS
330
12
102
}
330
12
100
AcDbXrecord
280
     1
270
     1
271
     1
  0
XRECORD
  5
15
102
{ACAD_REACTORS
330
12
102
}
330
12
100
AcDbXrecord
280
     1
270
     1
271
     1
  0
XRECORD
  5
24
102
{ACAD_REACTORS
330
22
102
}
330
22
100
AcDbXrecord
280
     1
270
     1
271
     1
  0
XRECORD
  5
23
102
{ACAD_REACTORS
330
22
102
}
330
22
100
AcDbXrecord
280
     1
270
     1
271
     1
  0
XRECORD
  5
27
102
{ACAD_REACTORS
330
22
102
}
330
22
100
AcDbXrecord
280
     1
270
     1
271
     1
  0
XRECORD
  5
26
102
{ACAD_REACTORS
330
22
102
}
330
22
100
AcDbXrecord
280
     1
270
     1
271
     1
  0
XRECORD
  5
28
102
{ACAD_REACTORS
330
22
102
}
330
22
100
AcDbXrecord
280
     1
270
     1
271
     1
  0
XRECORD
  5
25
102
{ACAD_REACTORS
330
22
102
}
330
22
100
AcDbXrecord
280
     1
270
     1
271
     1
  0
XRECORD
  5
8E
102
{ACAD_REACTORS
330
8D
102
}
330
8D
100
AcDbXrecord
280
     1
102
DISPLAYNAME
  1
Imperial24
102
FLAGS
 90
        0
  0
CELLSTYLEMAP
  5
8B
102
{ACAD_REACTORS
330
8A
102
}
330
8A
100
AcDbCellStyleMap
 90
        3
300
CELLSTYLE
  1
TABLEFORMAT_BEGIN
 90
        5
170
     1
 91
        0
 92
    32768
 62
   257
 93
        1
300
CONTENTFORMAT
  1
CONTENTFORMAT_BEGIN
 90
        0
 91
        0
 92
      512
 93
        0
300

 40
0.0
140
1.0
 94
        5
 62
     0
340
55
144
0.25
309
CONTENTFORMAT_END
171
     0
 94
        0
309
TABLEFORMAT_END
  1
CELLSTYLE_BEGIN
 90
        1
 91
        1
300
_TITLE
309
CELLSTYLE_END
300
CELLSTYLE
  1
TABLEFORMAT_BEGIN
 90
        5
170
     1
 91
        0
 92
        0
 62
   257
 93
        1
300
CONTENTFORMAT
  1
CONTENTFORMAT_BEGIN
 90
        0
 91
        0
 92
      512
 93
        0
300

 40
0.0
140
1.0
 94
        5
 62
     0
340
55
144
0.18
309
CONTENTFORMAT_END
171
     0
 94
        0
309
TABLEFORMAT_END
  1
CELLSTYLE_BEGIN
 90
        2
 91
        1
300
_HEADER
309
CELLSTYLE_END
300
CELLSTYLE
  1
TABLEFORMAT_BEGIN
 90
        5
170
     1
 91
        0
 92
        0
 62
   257
 93
        1
300
CONTENTFORMAT
  1
CONTENTFORMAT_BEGIN
 90
        0
 91
        0
 92
      512
 93
        0
300

 40
0.0
140
1.0
 94
        2
 62
     0
340
55
144
0.18
309
CONTENTFORMAT_END
171
     0
 94
        0
309
TABLEFORMAT_END
  1
CELLSTYLE_BEGIN
 90
        3
 91
        2
300
_DATA
309
CELLSTYLE_END
  0
ENDSEC
  0
EOF
