<svg fill="none" height="512" viewBox="0 0 24 24" width="512" xmlns="http://www.w3.org/2000/svg"><g fill="#fff"><path d="m12 22.75c-2.12614 0-4.20455-.6305-5.97238-1.8117-1.76782-1.1812-3.14568-2.8602-3.95932-4.8245s-1.02653-4.1257-.61174-6.21101c.41479-2.0853 1.43863-4.00077 2.94205-5.50418 1.50341-1.50342 3.41888-2.52725 5.50417-2.94204 2.08532-.4148 4.24672-.20191 6.21112.61173 1.9643.81364 3.6432 2.1915 4.8244 3.95933s1.8117 3.84623 1.8117 5.97237c-.0026 2.8503-1.1361 5.583-3.1515 7.5985-2.0155 2.0154-4.7482 3.1489-7.5985 3.1515zm0-19.99999c-1.8295 0-3.61787.5425-5.13902 1.5589-1.52115 1.01641-2.70675 2.46106-3.40686 4.15128-.70011 1.69021-.88329 3.55011-.52638 5.34441s1.23789 3.4425 2.53153 4.7361c1.29363 1.2937 2.94182 2.1746 4.73613 2.5316 1.7943.3569 3.6542.1737 5.3444-.5264s3.1349-1.8857 4.1513-3.4069c1.0164-1.5211 1.5589-3.3095 1.5589-5.139-.0026-2.45243-.978-4.80367-2.7122-6.53781-1.7341-1.73414-4.0854-2.70954-6.5378-2.71218z"/><path d="m9.17 15.58c-.09854.0005-.19618-.0188-.28719-.0565-.09101-.0378-.17356-.0934-.24281-.1635-.14045-.1406-.21934-.3313-.21934-.53 0-.1988.07889-.3894.21934-.53l5.66-5.65999c.1422-.13248.3302-.20461.5245-.20118s.3797.08214.5171.21956c.1374.13741.2161.32279.2196.51709.0034.19431-.0687.38235-.2012.52453l-5.66 5.65999c-.0689.0706-.15138.1264-.24247.1643-.0911.0378-.18891.0567-.28753.0557z"/><path d="m14.83 15.58c-.0986.001-.1964-.0179-.2875-.0557-.0911-.0379-.1736-.0937-.2425-.1643l-5.65999-5.65999c-.13248-.14218-.20461-.33022-.20118-.52453.00343-.1943.08214-.37968.21955-.51709.13742-.13742.3228-.21613.5171-.21956s.38235.0687.52453.20118l5.65999 5.65999c.1405.1406.2193.3312.2193.53 0 .1987-.0788.3894-.2193.53-.0692.0701-.1518.1257-.2428.1635-.091.0377-.1887.057-.2872.0565z"/></g></svg>