<?xml version="1.0" encoding="utf-8"?>
<svg width="512px" height="512px" viewBox="0 0 512 512" version="1.1" xmlns:xlink="http://www.w3.org/1999/xlink" xmlns="http://www.w3.org/2000/svg">
  <defs>
    <path d="M0 0L512 0L512 512L0 512L0 0Z" id="path_1" />
    <clipPath id="mask_1">
      <use xlink:href="#path_1" />
    </clipPath>
  </defs>
  <g id="close">
    <path d="M0 0L512 0L512 512L0 512L0 0Z" id="Background" fill="#FFFFFF" fill-opacity="0" fill-rule="evenodd" stroke="none" />
    <g clip-path="url(#mask_1)">
      <g id="Group" transform="translate(26.666636 26.666708)">
        <path d="M229.333 458.667C183.976 458.667 139.636 445.216 101.923 420.017C64.2091 394.818 34.8148 358.999 17.4571 317.094C0.0994377 275.189 -4.44221 229.079 4.40664 184.593C13.2555 140.106 35.0974 99.243 67.1704 67.1703C99.2431 35.0974 140.106 13.2556 184.593 4.40679C229.079 -4.44228 275.189 0.0993748 317.097 17.457C359.002 34.8147 394.818 64.209 420.017 101.923C445.216 139.636 458.667 183.976 458.667 229.333C458.611 290.14 434.43 348.437 391.435 391.435C348.437 434.43 290.14 458.611 229.333 458.667L229.333 458.667ZM229.333 32.0002C190.304 32.0002 152.152 43.5735 119.701 65.2567C87.2497 86.9401 61.9569 117.759 47.0213 153.817C32.0856 189.875 28.1777 229.553 35.7918 267.831C43.4059 306.11 62.2001 341.271 89.7978 368.868C117.395 396.467 152.557 415.26 190.835 422.876C229.114 430.49 268.792 426.581 304.849 411.646C340.907 396.71 371.727 371.418 393.41 338.965C415.093 306.515 426.667 268.363 426.667 229.333C426.611 177.015 405.803 126.855 368.806 89.86C331.812 52.865 281.651 32.0565 229.333 32.0002L229.333 32.0002Z" id="Shape" fill="#1A1A1A" fill-rule="evenodd" stroke="none" />
        <path d="M168.96 305.707C166.858 305.717 164.775 305.306 162.833 304.501C160.892 303.695 159.131 302.509 157.653 301.013C154.657 298.014 152.974 293.946 152.974 289.707C152.974 285.466 154.657 281.399 157.653 278.4L278.4 157.654C281.434 154.827 285.444 153.289 289.589 153.362C293.734 153.435 297.69 155.114 300.621 158.046C303.552 160.977 305.231 164.932 305.306 169.077C305.378 173.222 303.84 177.234 301.013 180.267L180.267 301.013C178.797 302.519 177.037 303.71 175.094 304.518C173.151 305.325 171.064 305.728 168.96 305.707L168.96 305.707Z" id="Shape" fill="#1A1A1A" stroke="none" />
        <path d="M289.707 305.707C287.603 305.728 285.517 305.325 283.573 304.518C281.63 303.71 279.87 302.519 278.4 301.013L157.654 180.267C154.827 177.234 153.289 173.222 153.362 169.077C153.435 164.932 155.114 160.977 158.045 158.046C160.977 155.114 164.932 153.435 169.077 153.362C173.222 153.289 177.234 154.827 180.267 157.654L301.013 278.4C304.011 281.399 305.692 285.466 305.692 289.707C305.692 293.946 304.011 298.014 301.013 301.013C299.537 302.509 297.775 303.695 295.834 304.501C293.892 305.306 291.808 305.717 289.707 305.707L289.707 305.707Z" id="Shape" fill="#1A1A1A" stroke="none" />
      </g>
    </g>
  </g>
</svg>