<?xml version="1.0" encoding="UTF-8"?>
<svg fill="#fff" xmlns="http://www.w3.org/2000/svg" id="Icons" viewBox="0 0 74 74" width="512" height="512"><path d="M41.686,72h-9.36a1,1,0,0,1-.974-.773l-1.581-6.794a28.264,28.264,0,0,1-7.057-2.922L16.8,65.2a1,1,0,0,1-1.237-.141L8.942,58.435A1,1,0,0,1,8.8,57.2l3.688-5.912A28.288,28.288,0,0,1,9.567,44.23L2.775,42.66A1,1,0,0,1,2,41.686V32.314a1,1,0,0,1,.775-.974l6.792-1.57a28.288,28.288,0,0,1,2.922-7.056L8.8,16.8a1,1,0,0,1,.141-1.237l6.623-6.623A1,1,0,0,1,16.8,8.8l5.912,3.688a28.3,28.3,0,0,1,7.057-2.922l1.581-6.794A1,1,0,0,1,32.326,2h9.36a1,1,0,0,1,.974.775l1.57,6.792a28.288,28.288,0,0,1,7.056,2.922L57.2,8.8a1,1,0,0,1,1.237.141l6.623,6.623A1,1,0,0,1,65.2,16.8l-3.688,5.912a28.288,28.288,0,0,1,2.922,7.056l6.792,1.57a1,1,0,0,1,.775.974v9.372a1,1,0,0,1-.775.974l-6.792,1.57a28.288,28.288,0,0,1-2.922,7.056L65.2,57.2a1,1,0,0,1-.141,1.237l-6.623,6.623A1,1,0,0,1,57.2,65.2l-5.912-3.688a28.3,28.3,0,0,1-7.056,2.922l-1.57,6.792A1,1,0,0,1,41.686,72ZM33.12,70h7.77l1.529-6.613a1,1,0,0,1,.74-.747,26.306,26.306,0,0,0,7.615-3.154,1,1,0,0,1,1.052,0l5.757,3.592,5.5-5.5L59.49,51.826a1,1,0,0,1,0-1.052,26.273,26.273,0,0,0,3.154-7.615,1,1,0,0,1,.747-.74L70,40.89V33.11l-6.613-1.529a1,1,0,0,1-.747-.74,26.273,26.273,0,0,0-3.154-7.615,1,1,0,0,1,0-1.052l3.592-5.757-5.5-5.5L51.826,14.51a1.006,1.006,0,0,1-1.052,0,26.273,26.273,0,0,0-7.615-3.154,1,1,0,0,1-.74-.747L40.89,4H33.12l-1.539,6.614a1,1,0,0,1-.74.746,26.273,26.273,0,0,0-7.615,3.154,1,1,0,0,1-1.052,0l-5.757-3.592-5.5,5.5,3.592,5.757a1,1,0,0,1,0,1.052,26.273,26.273,0,0,0-3.154,7.615,1,1,0,0,1-.747.74L4,33.11v7.78l6.613,1.529a1,1,0,0,1,.747.74,26.273,26.273,0,0,0,3.154,7.615,1,1,0,0,1,0,1.052l-3.592,5.757,5.5,5.5,5.757-3.592a1,1,0,0,1,1.052,0,26.306,26.306,0,0,0,7.615,3.154,1,1,0,0,1,.74.746Z"/><path d="M37,58.219A21.219,21.219,0,1,1,58.219,37,21.243,21.243,0,0,1,37,58.219Zm0-40.438A19.219,19.219,0,1,0,56.219,37,19.241,19.241,0,0,0,37,17.781Z"/></svg>
