<svg id="Layer_1" height="512" viewBox="0 0 512 512" width="512" xmlns="http://www.w3.org/2000/svg" xmlns:xlink="http://www.w3.org/1999/xlink" data-name="Layer 1"><linearGradient id="linear-gradient" gradientUnits="userSpaceOnUse" x1="300.572" x2="300.572" y1="485.106" y2="105.814"><stop offset=".322" stop-color="#a163f5"/><stop offset=".466" stop-color="#b074ee"/><stop offset=".752" stop-color="#d8a1dd"/><stop offset=".898" stop-color="#efbad3"/></linearGradient><linearGradient id="linear-gradient-2" x1="256" x2="256" xlink:href="#linear-gradient" y1="485.105" y2="105.814"/><path d="m272.734 227.86c15.031 2.874 19.186 15.16 20.325 22.224a6.485 6.485 0 0 0 6.088 5.466c.122.007.243.01.364.01a6.562 6.562 0 0 0 6.408-5.2c2.07-10.047 6.181-19.625 22.11-21.663a6.205 6.205 0 0 0 .183-12.288c-15.824-2.5-19.636-12.267-21.4-22.446a6.545 6.545 0 0 0 -12.863-.125c-1.374 7.093-5.935 19.357-21.035 21.792a6.206 6.206 0 0 0 -.18 12.226zm27.205-16.733a32.12 32.12 0 0 0 10.253 11.149 32.118 32.118 0 0 0 -10.608 10.784 34.547 34.547 0 0 0 -10.119-11.08 34.779 34.779 0 0 0 10.474-10.853z" fill="url(#linear-gradient)"/><path d="m494.428 267.757a8.28 8.28 0 0 0 -9.69 3.447 177.3 177.3 0 0 1 -149.916 83.318c7.331-4.933 17.524-8.01 31.976-6.144a6.344 6.344 0 0 0 3.356-12.11c-30.647-13.413-28.622-37.815-27.649-49.544a6.921 6.921 0 0 0 -5.328-7.253 6.831 6.831 0 0 0 -7.782 3.709c-5.671 11.877-19.357 31.4-47.311 28.719a6.345 6.345 0 0 0 -3.332 12.05c14.531 6.923 21.3 17.622 24.21 27.946-84.43-15.058-147.1-89.133-147.1-175.645a177.556 177.556 0 0 1 83.26-150.907 8.313 8.313 0 0 0 -5.214-15.307 244.74 244.74 0 0 0 -221.988 243.764c0 66.044 27.516 130.148 75.624 176.615-6.812 12.576-17.387 21.121-25.4 26.2a7.109 7.109 0 0 0 -2.863 8.479 7.187 7.187 0 0 0 8.159 4.62c15.412-3.184 47.48-9.81 70.308 29.07a6.452 6.452 0 0 0 11.828-4.843 75.9 75.9 0 0 1 -2.46-21.286 239.31 239.31 0 0 0 109.384 25.945 244.69 244.69 0 0 0 243.547-222.19 8.309 8.309 0 0 0 -5.619-8.653zm-195.569 55.262c14.563-2.964 24.823-11.274 31.715-19.56a50.514 50.514 0 0 0 17.5 33.2 50.271 50.271 0 0 0 -32.027 19.292c-1.664-10.594-6.207-22.931-17.188-32.932zm-163.786 152.33c-15.683-16.136-33.393-20.065-47.791-20.065-1.435 0-2.839.039-4.2.109 11.133-10.661 22.672-27.2 23.273-50.24 16.608 15.936 36.506 19.529 51.988 19.251-11.334 10.089-23.381 26.146-23.27 50.945zm278.605-49.949a231.806 231.806 0 0 1 -157.178 61.2 227.422 227.422 0 0 1 -107.52-26.518c5.48-20.168 21.447-30.567 30.6-36.528a7.2 7.2 0 0 0 2.558-9 7.1 7.1 0 0 0 -8.008-4.031c-17.324 3.793-49.4 5.38-69.609-26.582a6.452 6.452 0 0 0 -11.767 4.82 61.6 61.6 0 0 1 -.365 29.58c-43.613-43.908-68.47-103.355-68.469-164.541a232.794 232.794 0 0 1 196.231-229.968 189.352 189.352 0 0 0 -76.285 152.418c0 93.7 68.879 173.722 161.01 188.127a63.4 63.4 0 0 1 -.245 8.3 6.914 6.914 0 0 0 13.067 3.7 82.466 82.466 0 0 1 5.756-10.261c3.454.225 7.1.42 10.527.42a189.066 189.066 0 0 0 152.267-76.336 232.233 232.233 0 0 1 -72.57 135.2z" fill="url(#linear-gradient-2)"/></svg>