<svg id="Capa_1" enable-background="new 0 0 510 510" height="512" viewBox="0 0 510 510" width="512" xmlns="http://www.w3.org/2000/svg" xmlns:xlink="http://www.w3.org/1999/xlink"><linearGradient id="lg1"><stop offset="0" stop-color="#eaf6ff"/><stop offset=".5213" stop-color="#d8ecfe"/><stop offset="1" stop-color="#b3dafe"/></linearGradient><linearGradient id="SVGID_1_" gradientTransform="matrix(.861 -.142 -.142 .856 173.975 176.972)" gradientUnits="userSpaceOnUse" x1="-214.193" x2="-74.295" xlink:href="#lg1" y1="-110.336" y2="-110.336"/><linearGradient id="SVGID_2_" gradientTransform="matrix(.861 -.142 -.142 .856 173.975 176.972)" gradientUnits="userSpaceOnUse" x1="-229.382" x2="-132.847" xlink:href="#lg1" y1="-148.207" y2="-148.207"/><linearGradient id="SVGID_3_" gradientTransform="matrix(.996 .087 -.087 .996 13.002 -125.173)" gradientUnits="userSpaceOnUse" x1="343.383" x2="505.861" xlink:href="#lg1" y1="194.588" y2="194.588"/><linearGradient id="SVGID_4_" gradientTransform="matrix(.996 .087 -.087 .996 13.002 -125.173)" gradientUnits="userSpaceOnUse" x1="391.741" x2="467.455" xlink:href="#lg1" y1="158.06" y2="158.06"/><linearGradient id="SVGID_5_" gradientTransform="matrix(.996 .087 -.087 .996 13.002 -125.173)" gradientUnits="userSpaceOnUse" x1="272.067" x2="397.603" xlink:href="#lg1" y1="130.166" y2="130.166"/><linearGradient id="SVGID_6_" gradientTransform="matrix(.996 .087 -.087 .996 13.002 -125.173)" gradientUnits="userSpaceOnUse" x1="288.674" x2="360.804" xlink:href="#lg1" y1="106.807" y2="106.807"/><linearGradient id="SVGID_7_" gradientUnits="userSpaceOnUse" x1="-9.282" x2="524.198" xlink:href="#lg1" y1="256.519" y2="256.519"/><linearGradient id="SVGID_8_" gradientUnits="userSpaceOnUse" x1="-428.487" x2="388.175" xlink:href="#lg1" y1="256.519" y2="256.519"/><linearGradient id="SVGID_9_" gradientUnits="userSpaceOnUse" x1="-428.487" x2="388.175" xlink:href="#lg1" y1="121.816" y2="121.816"/><linearGradient id="SVGID_10_" gradientUnits="userSpaceOnUse" x1="-428.487" x2="388.175" xlink:href="#lg1" y1="381.044" y2="381.044"/><linearGradient id="SVGID_11_" gradientUnits="userSpaceOnUse" x1="-428.487" x2="388.175" xlink:href="#lg1" y1="239.14" y2="239.14"/><linearGradient id="SVGID_12_" gradientTransform="matrix(.214 .783 .79 .214 976.541 -969.236)" gradientUnits="userSpaceOnUse" x1="2168.992" x2="2337.398" xlink:href="#lg1" y1="-1735.354" y2="-1735.354"/><linearGradient id="SVGID_13_" gradientTransform="matrix(.214 .783 .79 .214 976.541 -969.236)" gradientUnits="userSpaceOnUse" x1="2219.115" x2="2297.591" xlink:href="#lg1" y1="-1773.833" y2="-1773.833"/><g><g><g><path d="m150.3 37.439-130.447 128.238 8.551-18.14c4.687-9.95 6.669-19.923 6.017-28.877-.478-6.731-2.45-12.881-5.865-18.047-.061-.088-.115-.183-.182-.264-.005-.005-.005-.005-.009-.009-1.491-3.091 9.039-17.067 24.141-31.913 15.103-14.847 29.256-25.137 32.321-23.593.005.005.005.005.009.009.081.069.174.125.261.187 11.91 8.166 29.363 8.553 46.919.649z" fill="url(#SVGID_1_)"/><path d="m85.097 45.03c2.385 2.426-8.336 16.837-23.95 32.187s-30.207 25.822-32.591 23.397c-.061-.088-.115-.183-.182-.264-.005-.005-.005-.005-.009-.009-1.491-3.091 9.039-17.067 24.141-31.913 15.103-14.847 29.256-25.137 32.321-23.593.005.005.005.005.009.009.081.068.174.123.261.186z" fill="url(#SVGID_2_)"/></g><g><path d="m477.111 175.139-112.365-136.094 18.762 8.05c10.292 4.411 21.394 5.761 32.066 4.222 8.018-1.144 15.79-3.924 22.827-8.25.121-.077.247-.147.362-.23.007-.006.007-.006.014-.011 4.051-1.964 17.364 8.698 30.373 24.454s20.958 30.847 18.263 34.452c-.007.006-.007.006-.014.011-.104.097-.196.208-.295.312-13.009 14.204-18.516 33.984-14.345 53.137z" fill="url(#SVGID_3_)"/><path d="m487.103 102.055c-3.53 2.915-17.299-7.923-30.749-24.213s-21.485-31.861-17.955-34.776c.121-.077.247-.147.362-.23.007-.006.007-.006.014-.011 4.051-1.964 17.364 8.698 30.373 24.454s20.958 30.847 18.263 34.452c-.007.006-.007.006-.014.011-.103.098-.196.209-.294.313z" fill="url(#SVGID_4_)"/></g><g><path d="m403.813 73.414-115.739-51.036 14.606-.878c8.011-.484 15.556-3.19 21.896-7.608 4.768-3.311 8.852-7.592 11.968-12.625.053-.088.111-.173.158-.264.003-.006.003-.006.005-.012 1.963-2.561 13.919-.013 27.319 5.896s23.344 13.018 22.777 16.194c-.003.006-.003.006-.005.012-.035.096-.059.196-.088.295-3.765 13.282-.931 27.722 7.9 38.649z" fill="url(#SVGID_5_)"/><path d="m386.71 23.389c-1.324 3.002-13.628.488-27.482-5.62s-24.007-13.499-22.683-16.501c.053-.088.111-.173.158-.264.003-.006.003-.006.005-.012 1.963-2.561 13.919-.013 27.319 5.896s23.344 13.018 22.777 16.194c-.003.006-.003.006-.005.012-.035.096-.059.196-.089.295z" fill="url(#SVGID_6_)"/></g></g><circle cx="255" cy="256.519" fill="url(#SVGID_7_)" r="253.481"/><g><path d="m459.453 443.151c-.069-.08-.13-.168-.195-.252-3.675-4.914-6.257-10.475-7.644-16.33-.007-.028-.013-.056-.02-.085-1.156-4.888.128-10.025 3.222-13.982 33.624-43.012 53.665-97.156 53.665-155.982 0-139.995-113.488-253.482-253.481-253.482-6.821 0-13.577.278-20.262.807 65.397 5.173 123.807 35.166 165.817 80.558-6.533-1.789-13.402-2.763-20.502-2.763-42.781 0-77.462 34.681-77.462 77.462 0 40.326 30.818 73.441 70.185 77.111-6.126 7.045-9.667 16.398-9.112 26.589 1.016 18.663 16.033 33.916 34.68 35.194 21.829 1.495 40.001-15.77 40.001-37.279 0-8.11-2.584-15.616-6.973-21.741-5.346-7.459-4.18-17.731 2.425-24.103.153-.148.306-.296.458-.445 11.155-10.937 29.941-4.333 31.831 11.175 1.235 10.133 1.871 20.451 1.871 30.918 0 69.89-28.297 133.16-74.045 179.012 3.132-7.708 4.695-16.221 4.248-25.153-1.511-30.189-26.115-54.597-56.315-55.853-33.678-1.401-61.421 25.486-61.421 58.853 0 6.949 1.203 13.618 3.413 19.808 12.341 34.571-10.358 72.058-46.874 75.805-.748.077-1.49.144-2.225.202 6.685.527 13.441.805 20.262.805 43.389 0 84.223-10.914 119.928-30.129 13.449-7.238 29.958-6.783 42.486 1.953.504.351 1.001.714 1.492 1.087.084.066.172.127.251.197l.009.009c2.849 1.75 13.477-5.149 24.255-15.837s17.767-21.256 16.041-24.12c-.004-.005-.004-.005-.009-.009z" fill="url(#SVGID_8_)"/><circle cx="230.727" cy="121.816" fill="url(#SVGID_9_)" r="37.369"/><circle cx="189.775" cy="381.044" fill="url(#SVGID_10_)" r="37.369"/><circle cx="96.969" cy="239.14" fill="url(#SVGID_11_)" r="58.906"/></g><g><path d="m155.513 489.74-131.689-129.471 9.533 17.141c5.226 9.402 8.017 18.552 8.333 26.521.248 5.992-.908 11.312-3.463 15.604-.046.073-.085.152-.138.219-.004.004-.004.004-.007.008-1.032 2.624 9.864 16.227 24.967 31.074s28.89 25.509 31.496 24.432c.004-.004.004-.004.007-.008.066-.054.144-.094.216-.141 9.905-6.127 25.589-4.714 42.202 4.15z" fill="url(#SVGID_12_)"/><path d="m94.768 475.119c1.903-1.936-9.207-15.951-24.821-31.3-15.614-15.35-29.816-26.22-31.72-24.283-.046.073-.085.152-.138.219-.004.004-.004.004-.007.008-1.032 2.624 9.864 16.227 24.967 31.074s28.89 25.509 31.496 24.432c.004-.004.004-.004.007-.008.065-.054.144-.095.216-.142z" fill="url(#SVGID_13_)"/></g></g></svg>