<?xml version="1.0" encoding="utf-8"?>
<svg width="512px" height="512px" viewBox="0 0 512 512" version="1.1" xmlns:xlink="http://www.w3.org/1999/xlink" xmlns="http://www.w3.org/2000/svg">
  <defs>
    <path d="M0 0L512 0L512 512L0 512L0 0Z" id="path_1" />
    <clipPath id="mask_1">
      <use xlink:href="#path_1" />
    </clipPath>
  </defs>
  <g id="moon">
    <path d="M0 0L512 0L512 512L0 512L0 0Z" id="Background" fill="#FFFFFF" fill-opacity="0" fill-rule="evenodd" stroke="none" />
    <g clip-path="url(#mask_1)">
      <path d="M450.987 325.333C423.253 339.093 393.813 346.133 363.2 346.133C254.4 346.133 165.867 257.6 165.867 148.8C165.867 118.293 172.907 88.7467 186.667 61.0133C189.76 54.8267 188.48 47.4667 183.68 42.56C178.773 37.6533 171.413 36.48 165.227 39.5733C86.72 78.72 37.8667 157.333 37.8667 244.8C37.8667 371.307 140.693 474.133 267.2 474.133C354.667 474.133 433.28 425.387 472.427 346.773C475.52 340.587 474.24 333.227 469.44 328.32C464.533 323.413 457.067 322.24 450.987 325.333L450.987 325.333ZM267.2 442.133C158.4 442.133 69.8667 353.6 69.8667 244.8C69.8667 185.28 96.2133 130.453 140.693 93.5467C136.213 111.573 133.867 130.027 133.867 148.8C133.867 275.307 236.693 378.133 363.2 378.133C381.973 378.133 400.533 375.893 418.453 371.307C381.547 415.787 326.72 442.133 267.2 442.133L267.2 442.133Z" id="Shape" fill="#FFFFFF" fill-rule="evenodd" stroke="none" />
    </g>
  </g>
</svg>