<?xml version="1.0" encoding="utf-8"?>
<svg width="511px" height="511.9999px" viewBox="0 0 511 511.9999" version="1.1" xmlns:xlink="http://www.w3.org/1999/xlink" xmlns="http://www.w3.org/2000/svg">
  <defs>
    <path d="M0 0L511 0L511 512L0 512L0 0Z" id="path_1" />
    <clipPath id="mask_1">
      <use xlink:href="#path_1" />
    </clipPath>
  </defs>
  <g id="moon">
    <path d="M0 0L511 0L511 512L0 512L0 0Z" id="Background" fill="#FFFFFF" fill-opacity="0" fill-rule="evenodd" stroke="none" />
    <g clip-path="url(#mask_1)">
      <path d="M486.828 307.027C450.09 340.348 402.59 358.699 353.09 358.699C243.203 358.699 153.801 269.301 153.801 159.41C153.801 109.91 172.152 62.4141 205.473 25.6719C215.777 14.3086 204.727 -3.56641 189.938 0.625C81.5078 31.3398 0.5 131.207 0.5 251.391C0.5 395.422 117.059 512 261.109 512C381.016 512 481.082 431.266 511.875 322.563C516.059 307.805 498.219 296.703 486.828 307.027L486.828 307.027ZM261.109 481.34C134.316 481.34 31.1602 378.184 31.1602 251.391C31.1602 166.258 78.6602 89.0156 151.227 49.3633C132.91 82.8672 123.141 120.605 123.141 159.41C123.141 286.203 226.293 389.359 353.09 389.359C391.898 389.359 429.633 379.59 463.137 361.273C423.484 433.84 346.242 481.34 261.109 481.34L261.109 481.34Z" id="Shape" fill="#000000" fill-rule="evenodd" stroke="none" />
      <path d="M254.363 202.359L290.672 220.516L308.828 256.824C311.426 262.016 316.73 265.297 322.539 265.297C328.344 265.297 333.652 262.016 336.25 256.824L354.406 220.516L390.715 202.359C395.906 199.762 399.188 194.453 399.188 188.648C399.188 182.84 395.906 177.531 390.715 174.934L354.406 156.781L336.25 120.473C333.652 115.277 328.344 111.996 322.539 111.996C316.73 111.996 311.422 115.277 308.828 120.473L290.672 156.781L254.363 174.934C249.168 177.531 245.887 182.84 245.887 188.648C245.887 194.453 249.168 199.762 254.363 202.359L254.363 202.359ZM308.953 181.918C311.922 180.434 314.328 178.027 315.809 175.063L322.539 161.605L329.27 175.063C330.75 178.027 333.156 180.434 336.125 181.918L349.582 188.645L336.121 195.375C333.156 196.859 330.75 199.266 329.27 202.23L322.539 215.688L315.809 202.23C314.328 199.266 311.922 196.859 308.953 195.375L295.496 188.648L308.953 181.918Z" id="Shape" fill="#000000" fill-rule="evenodd" stroke="none" />
      <path d="M414.41 82.7617L429.738 82.7617L429.738 98.0898C429.738 106.559 436.602 113.422 445.07 113.422C453.535 113.422 460.398 106.559 460.398 98.0898L460.398 82.7617L475.727 82.7617C484.195 82.7617 491.059 75.8984 491.059 67.4297C491.059 58.9648 484.195 52.1016 475.727 52.1016L460.398 52.1016L460.398 36.7695C460.398 28.3047 453.535 21.4414 445.07 21.4414C436.602 21.4414 429.738 28.3047 429.738 36.7695L429.738 52.1016L414.41 52.1016C405.941 52.1016 399.078 58.9648 399.078 67.4297C399.078 75.8984 405.941 82.7617 414.41 82.7617L414.41 82.7617Z" id="Shape" fill="#000000" fill-rule="evenodd" stroke="none" />
    </g>
  </g>
</svg>