<?xml version="1.0" encoding="utf-8"?>
<svg width="100px" height="100px" viewBox="0 0 100 100" version="1.1" xmlns:xlink="http://www.w3.org/1999/xlink" xmlns="http://www.w3.org/2000/svg">
  <defs>
    <path d="M0 0L100 0L100 100L0 100L0 0Z" id="path_1" />
    <clipPath id="mask_1">
      <use xlink:href="#path_1" />
    </clipPath>
  </defs>
  <g id="settings-(1)">
    <path d="M0 0L100 0L100 100L0 100L0 0Z" id="Background" fill="#FFFFFF" fill-opacity="0" fill-rule="evenodd" stroke="none" />
    <g clip-path="url(#mask_1)">
      <g id="Group" transform="translate(0 68.75)">
        <g id="Group">
          <path d="M95.8334 10.4166L84.7375 10.4166C82.9334 4.4125 77.4166 0 70.8334 0C64.2502 0 58.7375 4.4125 56.9293 10.4166L4.1666 10.4166C1.8666 10.4166 0 12.2834 0 14.5834C0 16.8834 1.8666 18.75 4.1666 18.75L56.9291 18.75C58.7332 24.7541 64.25 29.1666 70.8332 29.1666C77.4164 29.1666 82.9291 24.7541 84.7373 18.75L95.8332 18.75C98.1373 18.75 99.9998 16.8834 99.9998 14.5834C99.9998 12.2834 98.1375 10.4166 95.8334 10.4166L95.8334 10.4166ZM70.8334 20.8334C67.3875 20.8334 64.5834 18.0293 64.5834 14.5834C64.5834 11.1375 67.3875 8.3334 70.8334 8.3334C74.2793 8.3334 77.0834 11.1375 77.0834 14.5834C77.0834 18.0293 74.2791 20.8334 70.8334 20.8334L70.8334 20.8334Z" id="Shape" fill="#FFFFFF" fill-rule="evenodd" stroke="none" />
        </g>
      </g>
      <g id="Group" transform="translate(0 2.0834045)">
        <g id="Group">
          <path d="M95.8334 10.4166L84.7375 10.4166C82.9291 4.4125 77.4166 0 70.8334 0C64.2502 0 58.7375 4.4125 56.9291 10.4166L4.1666 10.4166C1.8666 10.4166 0 12.2832 0 14.5832C0 16.8832 1.8666 18.7498 4.1666 18.7498L56.9291 18.7498C58.7375 24.7541 64.25 29.1666 70.8334 29.1666C77.4168 29.1666 82.9293 24.7541 84.7375 18.75L95.8334 18.75C98.1375 18.75 100 16.8834 100 14.5834C100 12.2834 98.1375 10.4166 95.8334 10.4166L95.8334 10.4166ZM70.8334 20.8332C67.3875 20.8332 64.5834 18.0291 64.5834 14.5832C64.5834 11.1373 67.3875 8.3332 70.8334 8.3332C74.2793 8.3332 77.0834 11.1373 77.0834 14.5832C77.0834 18.0291 74.2791 20.8332 70.8334 20.8332L70.8334 20.8332Z" id="Shape" fill="#FFFFFF" fill-rule="evenodd" stroke="none" />
        </g>
      </g>
      <g id="Group" transform="translate(0 35.41681)">
        <g id="Group">
          <path d="M95.8334 10.4166L43.0709 10.4166C41.2625 4.4125 35.75 0 29.1668 0C22.5836 0 17.0709 4.4125 15.2627 10.4166L4.1666 10.4166C1.8666 10.4166 0 12.2832 0 14.5832C0 16.8832 1.8666 18.7498 4.1666 18.7498L15.2625 18.7498C17.0709 24.7539 22.5834 29.1664 29.1666 29.1664C35.7498 29.1664 41.2625 24.7539 43.0707 18.7498L95.8332 18.7498C98.1373 18.7498 99.9998 16.8832 99.9998 14.5832C100 12.2832 98.1375 10.4166 95.8334 10.4166L95.8334 10.4166ZM29.1666 20.8332C25.7207 20.8332 22.9166 18.0291 22.9166 14.5832C22.9166 11.1373 25.7207 8.3332 29.1666 8.3332C32.6125 8.3332 35.4166 11.1373 35.4166 14.5832C35.4166 18.0291 32.6125 20.8332 29.1666 20.8332L29.1666 20.8332Z" id="Shape" fill="#FFFFFF" fill-rule="evenodd" stroke="none" />
        </g>
      </g>
    </g>
  </g>
</svg>