<svg fill="000" id="Layer_2" height="512" viewBox="0 0 64 64" width="512" xmlns="http://www.w3.org/2000/svg" xmlns:xlink="http://www.w3.org/1999/xlink" data-name="Layer 2"><linearGradient id="linear-gradient" gradientUnits="userSpaceOnUse" x1="16" x2="48" y1="32" y2="32"><stop offset="0" stop-color="#f4f42a"/><stop offset="1" stop-color="#ffb92b"/></linearGradient><linearGradient id="linear-gradient-2" gradientUnits="userSpaceOnUse" x1="29.049" x2="23.344" y1="26.697" y2="18.661"><stop offset="0" stop-color="#feffc0" stop-opacity="0"/><stop offset="1" stop-color="#f8ff9b"/></linearGradient><linearGradient id="linear-gradient-3" x1="33" x2="31" xlink:href="#linear-gradient" y1="6.822" y2="6.822"/><linearGradient id="linear-gradient-4" x1="21.164" x2="19.891" xlink:href="#linear-gradient" y1="11.541" y2="12.277"/><linearGradient id="linear-gradient-5" x1="10.688" x2="9.666" xlink:href="#linear-gradient" y1="18.556" y2="20.326"/><linearGradient id="linear-gradient-6" x1="8.865" x2="8.865" xlink:href="#linear-gradient" y1="31" y2="32.821"/><linearGradient id="linear-gradient-7" x1="9.773" x2="10.645" xlink:href="#linear-gradient" y1="43.86" y2="45.37"/><linearGradient id="linear-gradient-8" x1="19.72" x2="21.271" xlink:href="#linear-gradient" y1="51.625" y2="52.52"/><linearGradient id="linear-gradient-9" x1="31" x2="33" xlink:href="#linear-gradient" y1="57.179" y2="57.179"/><linearGradient id="linear-gradient-10" x1="42.702" x2="44.434" xlink:href="#linear-gradient" y1="52.536" y2="51.536"/><linearGradient id="linear-gradient-11" x1="53.305" x2="54.306" xlink:href="#linear-gradient" y1="45.456" y2="43.723"/><linearGradient id="linear-gradient-12" x1="55.136" x2="55.136" xlink:href="#linear-gradient" y1="33" y2="31"/><linearGradient id="linear-gradient-13" x1="54.306" x2="53.305" xlink:href="#linear-gradient" y1="20.277" y2="18.544"/><linearGradient id="linear-gradient-14" x1="44.434" x2="42.702" xlink:href="#linear-gradient" y1="12.464" y2="11.464"/><linearGradient id="linear-gradient-15" gradientUnits="userSpaceOnUse" x1="32" x2="32" y1="36" y2="48"><stop offset="0" stop-color="#ffb92b" stop-opacity="0"/><stop offset="1" stop-color="#ffb92b"/></linearGradient><linearGradient id="linear-gradient-16" xlink:href="#linear-gradient-15" y1="8" y2="12.643"/><linearGradient id="linear-gradient-17" gradientTransform="matrix(.866 -.5 .5 .866 -11.713 20.287)" xlink:href="#linear-gradient-15" y1="8" y2="12.643"/><linearGradient id="linear-gradient-18" gradientTransform="matrix(.5 -.866 .866 .5 -11.713 43.713)" xlink:href="#linear-gradient-15" y1="8" y2="12.643"/><linearGradient id="linear-gradient-19" gradientTransform="matrix(0 -1 1 0 0 64)" xlink:href="#linear-gradient-15" y1="8" y2="12.643"/><linearGradient id="linear-gradient-20" gradientTransform="matrix(-.5 -.866 .866 -.5 20.287 75.713)" xlink:href="#linear-gradient-15" y1="8" y2="12.643"/><linearGradient id="linear-gradient-21" gradientTransform="matrix(-.866 -.5 .5 -.866 43.713 75.713)" xlink:href="#linear-gradient-15" y1="8" y2="12.643"/><linearGradient id="linear-gradient-22" gradientTransform="matrix(-1 0 0 -1 64 64)" xlink:href="#linear-gradient-15" y1="8" y2="12.643"/><linearGradient id="linear-gradient-23" gradientTransform="matrix(-.866 .5 -.5 -.866 75.713 43.713)" xlink:href="#linear-gradient-15" y1="8" y2="12.643"/><linearGradient id="linear-gradient-24" gradientTransform="matrix(-.5 .866 -.866 -.5 75.713 20.287)" xlink:href="#linear-gradient-15" y1="8" y2="12.643"/><linearGradient id="linear-gradient-25" gradientTransform="matrix(0 1 -1 0 64 0)" xlink:href="#linear-gradient-15" y1="8" y2="12.643"/><linearGradient id="linear-gradient-26" gradientTransform="matrix(.5 .866 -.866 .5 43.713 -11.713)" xlink:href="#linear-gradient-15" y1="8" y2="12.643"/><linearGradient id="linear-gradient-27" gradientTransform="matrix(.866 .5 -.5 .866 20.287 -11.713)" xlink:href="#linear-gradient-15" y1="8" y2="12.643"/><circle cx="32" cy="32" fill="url(#linear-gradient)" r="16"/><path d="m43.09 20.48-26.87 14.14a15.106 15.106 0 0 1 -.22-2.62 15.99 15.99 0 0 1 27.09-11.52z" fill="url(#linear-gradient-2)"/><path d="m32 12.6431a1 1 0 0 1 -1-1v-9.6431a1 1 0 0 1 2 0v9.6431a1 1 0 0 1 -1 1z" fill="url(#linear-gradient-3)"/><path d="m21.8223 15.37a1 1 0 0 1 -.8672-.5l-2.7783-4.8125a1 1 0 1 1 1.7324-1l2.7783 4.8125a1 1 0 0 1 -.8652 1.5z" fill="url(#linear-gradient-4)"/><path d="m14.3691 22.8213a.9973.9973 0 0 1 -.499-.1338l-8.3511-4.8213a1 1 0 1 1 1-1.7324l8.351 4.8213a1 1 0 0 1 -.501 1.8662z" fill="url(#linear-gradient-5)"/><path d="m11.6431 33h-5.5572a1 1 0 0 1 0-2h5.5572a1 1 0 1 1 0 2z" fill="url(#linear-gradient-6)"/><path d="m6.02 48a1 1 0 0 1 -.501-1.8662l8.351-4.8213a1 1 0 1 1 1 1.7324l-8.351 4.8213a.997.997 0 0 1 -.499.1338z" fill="url(#linear-gradient-7)"/><path d="m19.042 55.4424a1 1 0 0 1 -.8652-1.5l2.7783-4.8124a1 1 0 0 1 1.7324 1l-2.7783 4.8125a1 1 0 0 1 -.8672.4999z" fill="url(#linear-gradient-8)"/><path d="m32 63a1 1 0 0 1 -1-1v-9.6431a1 1 0 1 1 2 0v9.6431a1 1 0 0 1 -1 1z" fill="url(#linear-gradient-9)"/><path d="m44.958 55.4424a1 1 0 0 1 -.8672-.5l-2.7783-4.8124a1 1 0 1 1 1.7324-1l2.7783 4.8125a1 1 0 0 1 -.8652 1.5z" fill="url(#linear-gradient-10)"/><path d="m57.98 48a.997.997 0 0 1 -.499-.1338l-8.351-4.8213a1 1 0 0 1 1-1.7324l8.3511 4.8213a1 1 0 0 1 -.5011 1.8662z" fill="url(#linear-gradient-11)"/><path d="m57.9141 33h-5.5572a1 1 0 1 1 0-2h5.5572a1 1 0 0 1 0 2z" fill="url(#linear-gradient-12)"/><path d="m49.6309 22.8213a1 1 0 0 1 -.501-1.8662l8.3511-4.8213a1 1 0 1 1 1 1.7324l-8.351 4.8213a.9973.9973 0 0 1 -.4991.1338z" fill="url(#linear-gradient-13)"/><path d="m42.1777 15.37a1 1 0 0 1 -.8652-1.5l2.7783-4.8125a1 1 0 1 1 1.7324 1l-2.7783 4.8125a1 1 0 0 1 -.8672.5z" fill="url(#linear-gradient-14)"/><path d="m16.5266 36a15.9761 15.9761 0 0 0 30.9468 0z" fill="url(#linear-gradient-15)"/><path d="m31 8v3.6431a1 1 0 1 0 2 0v-3.6431z" fill="url(#linear-gradient-16)"/><path d="m19.134 11.7154 1.8215 3.155a1 1 0 0 0 1.7321-1l-1.8216-3.155z" fill="url(#linear-gradient-17)"/><path d="m10.7154 20.866 3.155 1.8216a1 1 0 0 0 1-1.7321l-3.155-1.8215z" fill="url(#linear-gradient-18)"/><path d="m8 33h3.6431a1 1 0 1 0 0-2h-3.6431z" fill="url(#linear-gradient-19)"/><path d="m11.7154 44.866 3.155-1.8215a1 1 0 0 0 -1-1.7321l-3.155 1.8216z" fill="url(#linear-gradient-20)"/><path d="m20.866 53.2846 1.8216-3.155a1 1 0 0 0 -1.7321-1l-1.8215 3.155z" fill="url(#linear-gradient-21)"/><path d="m33 56v-3.6431a1 1 0 1 0 -2 0v3.6431z" fill="url(#linear-gradient-22)"/><path d="m44.866 52.2846-1.8215-3.1546a1 1 0 0 0 -1.7321 1l1.8216 3.155z" fill="url(#linear-gradient-23)"/><path d="m53.2846 43.134-3.1546-1.8216a1 1 0 0 0 -1 1.7321l3.155 1.8215z" fill="url(#linear-gradient-24)"/><path d="m56 31h-3.6431a1 1 0 1 0 0 2h3.6431z" fill="url(#linear-gradient-25)"/><path d="m52.2846 19.134-3.1546 1.8215a1 1 0 0 0 1 1.7321l3.155-1.8216z" fill="url(#linear-gradient-26)"/><path d="m43.134 10.7154-1.8216 3.1546a1 1 0 0 0 1.7321 1l1.8215-3.155z" fill="url(#linear-gradient-27)"/></svg>