<?xml version="1.0" encoding="utf-8"?>
<svg width="512px" height="512px" viewBox="0 0 512 512" version="1.1" xmlns:xlink="http://www.w3.org/1999/xlink" xmlns="http://www.w3.org/2000/svg">
  <defs>
    <path d="M0 0L512 0L512 512L0 512L0 0Z" id="path_1" />
    <clipPath id="mask_1">
      <use xlink:href="#path_1" />
    </clipPath>
  </defs>
  <g id="sun3">
    <path d="M0 0L512 0L512 512L0 512L0 0Z" id="Background" fill="#FFFFFF" fill-opacity="0" fill-rule="evenodd" stroke="none" />
    <g clip-path="url(#mask_1)">
      <path d="M128 256C128 185.308 185.308 128 256 128C326.692 128 384 185.308 384 256C384 326.692 326.692 384 256 384C185.308 384 128 326.692 128 256Z" id="Circle" fill="#1A1A1A" fill-rule="evenodd" stroke="none" />
      <path d="M344.72 163.84L129.76 276.96C128.565 270.038 127.976 263.025 128 256C127.965 204.672 158.618 158.29 205.856 138.2C253.094 118.11 307.766 128.204 344.716 163.837L344.72 163.84Z" id="Shape" fill="#1A1A1A" stroke="none" />
      <path d="M256 101.145C251.582 101.145 248 97.5631 248 93.1448L248 16C248 13.1419 249.525 10.5009 252 9.0718C254.475 7.64273 257.525 7.64273 260 9.0718C262.475 10.5009 264 13.1419 264 16L264 93.1448C264 97.5631 260.418 101.145 256 101.145L256 101.145Z" id="Shape" fill="#1A1A1A" stroke="none" />
      <path d="M174.578 122.96C171.717 122.963 169.072 121.438 167.641 118.96L145.414 80.46C143.984 77.9842 143.984 74.9336 145.414 72.4577C146.843 69.9817 149.485 68.4566 152.344 68.4571C155.203 68.4576 157.845 69.9835 159.274 72.46L181.5 110.96C182.928 113.434 182.929 116.482 181.502 118.957C180.074 121.432 177.435 122.958 174.578 122.96L174.578 122.96Z" id="Shape" fill="#1A1A1A" stroke="none" />
      <path d="M114.953 182.57C113.551 182.57 112.174 182.201 110.961 181.5L44.152 142.93C41.6755 141.501 40.1496 138.859 40.1491 136C40.1486 133.141 41.6737 130.499 44.1496 129.07C46.6256 127.64 49.6762 127.641 52.152 129.07L118.96 167.641C122.099 169.451 123.628 173.145 122.689 176.645C121.749 180.144 118.575 182.575 114.952 182.57L114.953 182.57Z" id="Shape" fill="#1A1A1A" stroke="none" />
      <path d="M93.1448 264L48.6872 264C45.8291 264 43.1881 262.475 41.759 260C40.3299 257.525 40.3299 254.475 41.759 252C43.1881 249.525 45.8291 248 48.6872 248L93.1448 248C96.0029 248 98.6439 249.525 100.073 252C101.502 254.475 101.502 257.525 100.073 260C98.6439 262.475 96.0029 264 93.1448 264L93.1448 264Z" id="Shape" fill="#1A1A1A" stroke="none" />
      <path d="M48.16 384C44.5367 384.005 41.3626 381.574 40.4232 378.074C39.4837 374.575 41.0135 370.881 44.152 369.07L110.96 330.5C113.436 329.07 116.486 329.07 118.962 330.499C121.438 331.929 122.963 334.571 122.963 337.43C122.962 340.289 121.436 342.93 118.96 344.359L52.152 382.93C50.9385 383.631 49.5616 384 48.16 384L48.16 384Z" id="Shape" fill="#1A1A1A" stroke="none" />
      <path d="M152.336 443.539C149.479 443.537 146.84 442.011 145.413 439.536C143.985 437.062 143.986 434.013 145.414 431.539L167.641 393.04C169.85 389.214 174.743 387.903 178.569 390.112C182.396 392.321 183.708 397.213 181.5 401.04L159.274 439.54C157.843 442.018 155.197 443.543 152.336 443.539L152.336 443.539Z" id="Shape" fill="#1A1A1A" stroke="none" />
      <path d="M256 504C251.582 504 248 500.418 248 496L248 418.855C248 415.997 249.525 413.356 252 411.927C254.475 410.498 257.525 410.498 260 411.927C262.475 413.356 264 415.997 264 418.855L264 496C264 500.418 260.418 504 256 504L256 504Z" id="Shape" fill="#1A1A1A" stroke="none" />
      <path d="M359.664 443.539C356.803 443.543 354.157 442.017 352.726 439.539L330.5 401.04C329.07 398.564 329.07 395.514 330.499 393.038C331.929 390.562 334.571 389.037 337.43 389.037C340.289 389.038 342.93 390.564 344.359 393.04L366.586 431.54C368.014 434.014 368.015 437.062 366.587 439.537C365.16 442.012 362.521 443.538 359.664 443.54L359.664 443.539Z" id="Shape" fill="#1A1A1A" stroke="none" />
      <path d="M463.84 384C462.438 384 461.061 383.631 459.848 382.93L393.04 344.359C389.214 342.15 387.903 337.257 390.112 333.431C392.321 329.604 397.213 328.292 401.04 330.5L467.849 369.07C470.987 370.881 472.517 374.575 471.578 378.075C470.638 381.574 467.463 384.005 463.84 384L463.84 384Z" id="Shape" fill="#1A1A1A" stroke="none" />
      <path d="M463.313 264L418.855 264C415.997 264 413.356 262.475 411.927 260C410.498 257.525 410.498 254.475 411.927 252C413.356 249.525 415.997 248 418.855 248L463.313 248C466.171 248 468.812 249.525 470.241 252C471.67 254.475 471.67 257.525 470.241 260C468.812 262.475 466.171 264 463.313 264L463.313 264Z" id="Shape" fill="#1A1A1A" stroke="none" />
      <path d="M397.047 182.57C393.424 182.575 390.25 180.144 389.31 176.645C388.371 173.145 389.901 169.451 393.039 167.641L459.848 129.07C462.324 127.641 465.374 127.64 467.85 129.07C470.326 130.499 471.851 133.141 471.851 136C471.85 138.859 470.324 141.501 467.848 142.93L401.04 181.5C399.826 182.201 398.449 182.571 397.047 182.57L397.047 182.57Z" id="Shape" fill="#1A1A1A" stroke="none" />
      <path d="M337.422 122.96C334.565 122.958 331.926 121.432 330.498 118.957C329.071 116.482 329.072 113.434 330.5 110.96L352.726 72.46C354.155 69.9835 356.797 68.4576 359.656 68.4571C362.515 68.4566 365.157 69.9817 366.586 72.4576C368.016 74.9336 368.016 77.9842 366.586 80.46L344.359 118.96C342.928 121.438 340.283 122.963 337.422 122.96L337.422 122.96Z" id="Shape" fill="#1A1A1A" stroke="none" />
      <path d="M132.213 288C146.731 344.5 197.664 384 256 384C314.336 384 365.269 344.5 379.787 288L132.213 288Z" id="Shape" fill="#1A1A1A" stroke="none" />
      <path d="M248 64L248 93.1448C248 97.5631 251.582 101.145 256 101.145C260.418 101.145 264 97.5631 264 93.1448L264 64L248 64Z" id="Shape" fill="#1A1A1A" stroke="none" />
      <path d="M153.072 93.7232L167.644 118.963C169.073 121.439 171.715 122.964 174.573 122.963C177.432 122.963 180.073 121.438 181.502 118.962C182.93 116.486 182.93 113.436 181.499 110.961L166.928 85.7232L153.072 93.7232Z" id="Shape" fill="#1A1A1A" stroke="none" />
      <path d="M85.7232 166.928L110.963 181.501C113.439 182.93 116.489 182.93 118.964 181.5C121.44 180.071 122.964 177.429 122.963 174.57C122.963 171.712 121.437 169.071 118.961 167.643L93.7232 153.072L85.7232 166.928Z" id="Shape" fill="#1A1A1A" stroke="none" />
      <path d="M64 264L93.1448 264C97.5631 264 101.145 260.418 101.145 256C101.145 251.582 97.5631 248 93.1448 248L64 248L64 264Z" id="Shape" fill="#1A1A1A" stroke="none" />
      <path d="M93.7232 358.928L118.963 344.356C121.439 342.927 122.964 340.285 122.963 337.427C122.963 334.568 121.438 331.927 118.962 330.498C116.486 329.07 113.436 329.07 110.961 330.501L85.7232 345.072L93.7232 358.928Z" id="Shape" fill="#1A1A1A" stroke="none" />
      <path d="M166.928 426.277L181.501 401.037C182.93 398.561 182.93 395.511 181.5 393.036C180.071 390.56 177.429 389.036 174.57 389.037C171.712 389.037 169.071 390.563 167.643 393.039L153.072 418.277L166.928 426.277Z" id="Shape" fill="#1A1A1A" stroke="none" />
      <path d="M264 448L264 418.855C264 414.437 260.418 410.855 256 410.855C251.582 410.855 248 414.437 248 418.855L248 448L264 448Z" id="Shape" fill="#1A1A1A" stroke="none" />
      <path d="M358.928 418.277L344.356 393.04C342.927 390.564 340.285 389.04 337.427 389.04C334.568 389.04 331.927 390.566 330.498 393.041C329.07 395.517 329.07 398.567 330.501 401.042L345.072 426.28L358.928 418.277Z" id="Shape" fill="#1A1A1A" stroke="none" />
      <path d="M426.277 345.072L401.04 330.499C398.564 329.07 395.514 329.07 393.039 330.5C390.564 331.929 389.039 334.571 389.04 337.43C389.041 340.288 390.566 342.929 393.042 344.357L418.28 358.928L426.277 345.072Z" id="Shape" fill="#1A1A1A" stroke="none" />
      <path d="M448 248L418.855 248C414.437 248 410.855 251.582 410.855 256C410.855 260.418 414.437 264 418.855 264L448 264L448 248Z" id="Shape" fill="#1A1A1A" stroke="none" />
      <path d="M418.277 153.072L393.04 167.644C390.564 169.073 389.04 171.715 389.04 174.573C389.04 177.432 390.566 180.073 393.041 181.502C395.517 182.93 398.567 182.93 401.042 181.499L426.28 166.928L418.277 153.072Z" id="Shape" fill="#1A1A1A" stroke="none" />
      <path d="M345.072 85.7232L330.499 110.96C329.07 113.436 329.07 116.486 330.5 118.961C331.929 121.436 334.571 122.961 337.43 122.96C340.288 122.959 342.929 121.434 344.357 118.958L358.928 93.72L345.072 85.7232Z" id="Shape" fill="#1A1A1A" stroke="none" />
    </g>
  </g>
</svg>