<svg id="Capa_1" enable-background="new 0 0 510 510" height="512" viewBox="0 0 510 510" width="512" xmlns="http://www.w3.org/2000/svg" xmlns:xlink="http://www.w3.org/1999/xlink"><linearGradient id="lg1"><stop offset="0" stop-color="#fbc56d"/><stop offset=".5841" stop-color="#fe9738"/><stop offset=".9984" stop-color="#fb2b3a"/></linearGradient><linearGradient id="SVGID_1_" gradientUnits="userSpaceOnUse" x1=".656" x2="538" xlink:href="#lg1" y1="255" y2="255"/><linearGradient id="SVGID_2_" gradientUnits="userSpaceOnUse" x1="-36.842" x2="504.049" xlink:href="#lg1" y1="255" y2="255"/><linearGradient id="lg2"><stop offset="0" stop-color="#fef056"/><stop offset=".5213" stop-color="#f4d902"/><stop offset="1" stop-color="#fe9738"/></linearGradient><linearGradient id="SVGID_3_" gradientUnits="userSpaceOnUse" x1="76.532" x2="433.468" xlink:href="#lg2" y1="255" y2="255"/><linearGradient id="SVGID_4_" gradientUnits="userSpaceOnUse" x1="-221" x2="398.04" xlink:href="#lg2" y1="234.286" y2="234.286"/><linearGradient id="SVGID_6_" gradientUnits="userSpaceOnUse" x1="-221" x2="398.04" xlink:href="#lg2" y1="255" y2="255"/><g><path d="m501.564 270.57-.077.05c-18.594 11.975-23.026 37.565-9.57 55.252l.013.017c8.152 10.715 2.527 26.391-10.508 29.284l-.026.006c-21.515 4.776-34.336 27.267-27.683 48.563l.024.077c4.027 12.889-6.535 25.646-19.747 23.852l-.042-.006c-21.845-2.967-41.476 13.754-42.373 36.09l-.001.015c-.543 13.517-14.771 21.861-26.591 15.595l-.074-.039c-19.508-10.342-43.559-1.463-51.95 19.177l-.033.08c-5.084 12.506-21.271 15.39-30.253 5.39-14.849-16.533-40.499-16.533-55.348 0-8.981 10-25.169 7.116-30.252-5.39l-.033-.081c-8.391-20.64-32.442-29.519-51.949-19.177l-.074.039c-11.82 6.266-26.049-2.078-26.591-15.595l-.001-.016c-.897-22.336-20.528-39.057-42.373-36.09l-.043.006c-13.212 1.794-23.774-10.963-19.747-23.852l.024-.076c6.654-21.296-6.168-43.787-27.683-48.563l-.025-.005c-13.036-2.894-18.66-18.569-10.508-29.285l.012-.016c13.456-17.687 9.024-43.276-9.57-55.252l-.077-.049c-11.248-7.245-11.248-23.895 0-31.139l.077-.05c18.594-11.975 23.026-37.565 9.57-55.252l-.013-.017c-8.152-10.715-2.527-26.391 10.508-29.284l.026-.006c21.515-4.776 34.336-27.267 27.683-48.563l-.024-.077c-4.026-12.89 6.536-25.647 19.748-23.853l.042.006c21.844 2.967 41.476-13.754 42.373-36.09l.001-.015c.543-13.517 14.771-21.861 26.591-15.595l.074.039c19.508 10.342 43.559 1.463 51.95-19.177l.033-.08c5.084-12.506 21.271-15.39 30.253-5.39 14.849 16.533 40.499 16.533 55.348 0 8.981-10 25.169-7.116 30.252 5.39l.033.081c8.391 20.64 32.442 29.519 51.949 19.177l.074-.039c11.82-6.266 26.049 2.078 26.591 15.595l.001.016c.897 22.336 20.528 39.057 42.373 36.09l.043-.006c13.212-1.794 23.774 10.963 19.747 23.852l-.024.076c-6.654 21.296 6.168 43.787 27.683 48.563l.025.005c13.036 2.894 18.66 18.569 10.508 29.285l-.013.016c-13.456 17.687-9.024 43.276 9.57 55.252l.077.049c11.248 7.245 11.248 23.895 0 31.14z" fill="url(#SVGID_1_)"/><path d="m501.564 239.43-.077-.05c-18.594-11.976-23.026-37.565-9.57-55.252l.013-.016c8.152-10.715 2.527-26.391-10.508-29.285l-.025-.005c-21.516-4.776-34.337-27.268-27.683-48.563l.024-.076c4.027-12.889-6.535-25.646-19.747-23.852l-.042.006c-21.844 2.967-41.476-13.754-42.373-36.09l-.001-.016c-.543-13.517-14.771-21.861-26.591-15.595l-.074.04c-5.68 3.011-11.745 4.382-17.697 4.318 2.528 2.98 4.166 6.831 4.343 11.237l.001.016c.897 22.336 20.528 39.057 42.373 36.09l.042-.006c13.212-1.794 23.774 10.963 19.747 23.852l-.024.076c-6.654 21.296 6.168 43.787 27.683 48.563l.025.005c13.036 2.894 18.66 18.569 10.508 29.285l-.013.016c-13.456 17.687-9.024 43.276 9.57 55.252l.077.05c11.248 7.245 11.248 23.895 0 31.139l-.077.05c-18.594 11.975-23.026 37.565-9.57 55.252l.013.017c8.152 10.715 2.527 26.391-10.508 29.284l-.026.006c-21.515 4.776-34.336 27.267-27.683 48.563l.024.076c4.027 12.889-6.535 25.646-19.747 23.852l-.042-.006c-21.844-2.967-41.476 13.754-42.373 36.09l-.001.015c-.177 4.407-1.814 8.257-4.343 11.238 5.952-.064 12.017 1.307 17.698 4.318l.074.039c11.82 6.266 26.049-2.078 26.591-15.595l.001-.015c.897-22.336 20.528-39.057 42.373-36.09l.042.006c13.212 1.794 23.774-10.963 19.747-23.852l-.024-.076c-6.653-21.296 6.168-43.787 27.683-48.563l.026-.006c13.035-2.894 18.66-18.569 10.508-29.284l-.013-.017c-13.456-17.687-9.024-43.276 9.57-55.252l.077-.05c11.247-7.244 11.247-23.894-.001-31.139z" fill="url(#SVGID_2_)"/><circle cx="255" cy="255" fill="url(#SVGID_3_)" r="178.468"/><g><circle cx="301.075" cy="234.286" fill="url(#SVGID_4_)" r="24.891"/><circle cx="168.706" cy="234.286" fill="url(#SVGID_4_)" r="38.781"/><path d="m255 76.532c-6.766 0-13.44.39-20.01 1.123 33.679 3.758 64.523 16.892 89.872 36.725-9.187 6.303-15.053 17.096-14.42 29.217.888 17.015 14.866 30.788 31.892 31.445.178.007.356.012.534.016 21.081.483 39.558 14.554 44.86 34.963 3.733 14.368 5.72 29.441 5.72 44.978 0 39.102-12.582 75.259-33.91 104.66.071-1.08.12-2.166.12-3.264 0-27.843-23.1-50.291-51.18-49.225-25.532.969-46.337 21.773-47.306 47.305-.314 8.256 1.406 16.082 4.697 23.017 11.089 23.363-3.506 51.102-29.125 54.633-.592.082-1.177.155-1.752.219 6.57.733 13.244 1.123 20.01 1.123 98.565 0 178.468-79.903 178.468-178.468s-79.905-178.467-178.47-178.467z" fill="url(#SVGID_6_)"/></g></g></svg>