<svg id="Capa_1" enable-background="new 0 0 497 497" height="512" viewBox="0 0 497 497" width="512" xmlns="http://www.w3.org/2000/svg"><g><path d="m487 248.5c0 24.81-40.044 42.987-47.313 65.374-7.534 23.203 13.916 61.396-.139 80.709-14.196 19.506-57.243 10.836-76.749 25.032-19.313 14.055-14.29 55.749-37.492 63.283-7.333 2.381-15.44 2.529-23.9-1.039-17.369-7.324-36.223-21.879-52.907-21.879-24.81 0-54.419 32.187-76.806 24.918-23.203-7.534-28.179-51.228-47.492-65.283-19.506-14.196-62.553-5.526-76.749-25.032-14.055-19.313 7.395-57.507-.139-80.709-7.27-22.387-47.314-40.564-47.314-65.374s40.044-42.987 47.313-65.374c7.534-23.203-13.916-61.396.139-80.709 14.196-19.506 57.243-10.836 76.749-25.032 19.313-14.055 24.29-57.749 47.492-65.283 22.387-7.269 51.997 24.918 76.807 24.918 16.684 0 35.538-14.555 52.906-21.88 8.46-3.568 16.567-3.42 23.9-1.039 23.203 7.534 26.179 50.228 45.492 64.283 19.506 14.196 54.553 4.526 68.749 24.032 14.055 19.313-7.394 57.507.139 80.709 7.27 22.388 47.314 40.565 47.314 65.375z" fill="#ffc270"/><path d="m407.593 248.5c0 93.388-65.705 168.093-159.093 168.093-5.055 0-10.059.778-15.001.344-86.361-7.592-154.092-80.105-154.092-168.437s67.731-160.845 154.092-168.437c4.943-.434 9.946.344 15.001.344 93.388 0 159.093 74.705 159.093 168.093z" fill="#ffe282"/><g><path d="m449.687 183.126c-7.534-23.202 13.916-61.396-.139-80.709-14.196-19.506-57.243-10.836-76.749-25.032-19.313-14.055-24.29-57.749-47.492-65.283-7.333-2.381-15.44-.528-23.9 3.039 18.167 12.467 23.899 49.513 41.392 62.244 19.506 14.196 62.553 5.526 76.749 25.032 14.055 19.313-7.394 57.507.139 80.709 7.269 22.387 47.313 40.564 47.313 65.374s-40.044 42.987-47.313 65.374c-7.534 23.203 13.916 61.396-.139 80.709-14.196 19.506-57.243 10.836-76.749 25.032-17.493 12.731-23.225 49.777-41.392 62.244 8.46 3.567 16.567 5.42 23.9 3.039 23.202-7.534 28.179-51.227 47.492-65.283 19.506-14.196 62.553-5.526 76.749-25.032 14.056-19.313-7.394-57.507.139-80.709 7.269-22.387 47.313-40.564 47.313-65.374s-40.044-42.987-47.313-65.374z" fill="#ffb85d"/></g><path d="m248.5 79.407c-5.056 0-10.057.235-15 .67 86.359 7.593 154.093 80.092 154.093 168.423s-67.734 160.83-154.093 168.423c4.943.435 9.944.67 15 .67 93.388 0 169.093-75.706 169.093-169.093s-75.705-169.093-169.093-169.093z" fill="#fdda78"/></g></svg>