<?xml version="1.0" encoding="UTF-8"?>
<svg xmlns="http://www.w3.org/2000/svg" xmlns:xlink="http://www.w3.org/1999/xlink" id="Layer_1" data-name="Layer 1" viewBox="0 0 512 512" width="512" height="512"><defs><style>.cls-1{fill:url(#linear-gradient);}</style><linearGradient id="linear-gradient" x1="256" y1="14" x2="256" y2="497.999" gradientUnits="userSpaceOnUse"><stop offset="0" stop-color="#5ee4ff"/><stop offset="1" stop-color="#00005d"/></linearGradient></defs><path class="cls-1" d="M200.663,81.529a6,6,0,0,1,4.261-7.338,201.081,201.081,0,0,1,86.6-3.454c29.463,5.3,56.887,17.213,79.306,34.458a161.783,161.783,0,0,1,47.434,58.3c10.949,22.644,16.976,48.2,17.989,76.046.194-.167.387-.333.569-.515l29.5-29.507A6,6,0,0,1,474.808,218L445.3,247.506a22.443,22.443,0,0,1-31.7,0L384.093,218a6,6,0,0,1,8.484-8.486l29.507,29.507a10.331,10.331,0,0,0,2.208,1.671c-2.171-66.906-33.96-105.35-60.784-125.985C321.668,82.521,262.081,71.442,208,85.79A6,6,0,0,1,200.663,81.529ZM304,426.21c-54.077,14.35-113.665,3.27-155.506-28.917-26.824-20.635-58.613-59.079-60.784-125.985a10.336,10.336,0,0,1,2.208,1.672l29.507,29.506A6,6,0,1,0,127.907,294L98.4,264.5a22.463,22.463,0,0,0-31.7,0L37.192,294a6,6,0,0,0,8.485,8.484l29.507-29.506c.181-.182.375-.348.568-.515,1.013,27.85,7.04,53.4,17.989,76.046a161.783,161.783,0,0,0,47.434,58.3c22.419,17.245,49.843,29.161,79.306,34.458a201.245,201.245,0,0,0,86.6-3.453A6,6,0,0,0,304,426.21ZM36.247,245.907A22.272,22.272,0,0,1,14,223.659V70c0-.068.008-.135.01-.2s.005-.134.01-.2a5.845,5.845,0,0,1,.1-.76v-.008a5.858,5.858,0,0,1,.206-.747c.021-.062.043-.123.066-.185a6.088,6.088,0,0,1,.3-.678c.007-.012.011-.025.018-.037a5.959,5.959,0,0,1,.414-.659c.039-.054.079-.107.119-.16a5.962,5.962,0,0,1,.521-.6l50-50a5.9,5.9,0,0,1,.6-.517c.055-.043.111-.084.168-.125a5.857,5.857,0,0,1,.65-.409c.021-.011.043-.019.065-.031a6.067,6.067,0,0,1,.645-.284c.068-.025.135-.05.2-.073a6.043,6.043,0,0,1,.726-.2l.044-.007a6.109,6.109,0,0,1,.728-.091c.072,0,.143-.008.214-.01s.131-.01.2-.01h93.816a22.272,22.272,0,0,1,22.247,22.248V223.659a22.272,22.272,0,0,1-22.247,22.248H149.831a6,6,0,0,1,0-12h13.985a10.258,10.258,0,0,0,10.247-10.248V36.248A10.258,10.258,0,0,0,163.816,26H76V58A18.021,18.021,0,0,1,58,76H26V223.659a10.259,10.259,0,0,0,10.247,10.248h83.584a6,6,0,0,1,0,12ZM34.485,64H58a6.006,6.006,0,0,0,6-6V34.485ZM498,288.34V475.752A22.272,22.272,0,0,1,475.753,498H461.768a6,6,0,0,1,0-12h13.985A10.259,10.259,0,0,0,486,475.752V288.34a10.258,10.258,0,0,0-10.247-10.247H387.937v32a18.021,18.021,0,0,1-18,18h-32V475.752A10.258,10.258,0,0,0,348.184,486h83.584a6,6,0,1,1,0,12H348.184a22.272,22.272,0,0,1-22.247-22.247V322.093c0-.068.007-.136.01-.2s0-.134.01-.2a5.984,5.984,0,0,1,.094-.759v-.009a5.965,5.965,0,0,1,.206-.746c.021-.063.043-.124.066-.186a5.936,5.936,0,0,1,.3-.678c.006-.012.011-.025.017-.036a5.943,5.943,0,0,1,.415-.66c.039-.054.078-.106.118-.159a5.856,5.856,0,0,1,.521-.605l50-50a5.924,5.924,0,0,1,.6-.52c.054-.042.108-.082.162-.121a6.163,6.163,0,0,1,.656-.413l.049-.023a5.927,5.927,0,0,1,.663-.292c.065-.024.13-.048.2-.07a5.943,5.943,0,0,1,.734-.2l.041-.007a6.049,6.049,0,0,1,.726-.09c.072,0,.145-.008.218-.011s.129-.009.194-.009h93.816A22.272,22.272,0,0,1,498,288.34Zm-122.063-1.762-29.515,29.515h23.515a6.007,6.007,0,0,0,6-6ZM137.366,104.79a5.269,5.269,0,0,1-5.262,5.262h-9.823a5.268,5.268,0,0,1-5.262-5.262v-3.229a5.268,5.268,0,0,1,5.262-5.262H132.1a5.269,5.269,0,0,1,5.262,5.262Zm-5-3.229a.273.273,0,0,0-.262-.262h-9.823a.273.273,0,0,0-.262.262v3.229a.269.269,0,0,0,.262.262H132.1a.269.269,0,0,0,.262-.262ZM50.623,158.607H45.711a2.5,2.5,0,0,0-2.5,2.5V165.5a5.267,5.267,0,0,0,5.263,5.262H151.591a5.268,5.268,0,0,0,5.262-5.262v-4.393a2.5,2.5,0,0,0-2.5-2.5h-4.912a.268.268,0,0,1-.261-.261v-3.229a.269.269,0,0,1,.261-.263h4.912a2.5,2.5,0,0,0,2.5-2.5V121.531a2.5,2.5,0,0,0-5,0v28.323h-2.412a5.268,5.268,0,0,0-5.261,5.263v3.229a5.267,5.267,0,0,0,5.261,5.261h2.412V165.5a.272.272,0,0,1-.262.262H48.474a.269.269,0,0,1-.263-.262v-1.893h2.412a5.268,5.268,0,0,0,5.262-5.261v-3.229a5.269,5.269,0,0,0-5.262-5.263H48.211v-39.8h2.412a5.269,5.269,0,0,0,5.262-5.262v-3.229A5.269,5.269,0,0,0,50.623,96.3H48.211V94.406a.273.273,0,0,1,.263-.262H151.591a.273.273,0,0,1,.262.262V96.3h-2.412a5.268,5.268,0,0,0-5.261,5.262v3.229a5.268,5.268,0,0,0,5.261,5.262h2.412v4.573a2.5,2.5,0,0,0,5,0v-7.073a2.5,2.5,0,0,0-2.5-2.5h-4.912a.268.268,0,0,1-.261-.262v-3.229a.268.268,0,0,1,.261-.262h4.912a2.5,2.5,0,0,0,2.5-2.5V94.406a5.269,5.269,0,0,0-5.262-5.262H48.474a5.268,5.268,0,0,0-5.263,5.262V98.8a2.5,2.5,0,0,0,2.5,2.5h4.912a.273.273,0,0,1,.262.262v3.229a.273.273,0,0,1-.262.262H45.711a2.5,2.5,0,0,0-2.5,2.5v44.8a2.5,2.5,0,0,0,2.5,2.5h4.912a.273.273,0,0,1,.262.263v3.229A.272.272,0,0,1,50.623,158.607Zm54.32-8.753a5.268,5.268,0,0,1,5.262,5.263v3.229a5.267,5.267,0,0,1-5.262,5.261H95.12a5.268,5.268,0,0,1-5.262-5.261v-3.229a5.269,5.269,0,0,1,5.262-5.263Zm0,5H95.12a.273.273,0,0,0-.262.263v3.229a.272.272,0,0,0,.262.261h9.823a.268.268,0,0,0,.262-.261v-3.229A.269.269,0,0,0,104.943,154.854Zm32.423.263v3.229a5.268,5.268,0,0,1-5.262,5.261h-9.823a5.267,5.267,0,0,1-5.262-5.261v-3.229a5.268,5.268,0,0,1,5.262-5.263H132.1A5.269,5.269,0,0,1,137.366,155.117Zm-5,0a.273.273,0,0,0-.262-.263h-9.823a.273.273,0,0,0-.262.263v3.229a.269.269,0,0,0,.262.261H132.1a.269.269,0,0,0,.262-.261ZM83.045,104.79a5.268,5.268,0,0,1-5.262,5.262H67.96A5.269,5.269,0,0,1,62.7,104.79v-3.229A5.269,5.269,0,0,1,67.96,96.3h9.823a5.268,5.268,0,0,1,5.262,5.262Zm-5-3.229a.273.273,0,0,0-.262-.262H67.96a.273.273,0,0,0-.262.262v3.229a.273.273,0,0,0,.262.262h9.823a.273.273,0,0,0,.262-.262Zm5,53.556v3.229a5.267,5.267,0,0,1-5.262,5.261H67.96a5.268,5.268,0,0,1-5.262-5.261v-3.229a5.269,5.269,0,0,1,5.262-5.263h9.823A5.268,5.268,0,0,1,83.045,155.117Zm-5,0a.273.273,0,0,0-.262-.263H67.96a.273.273,0,0,0-.262.263v3.229a.272.272,0,0,0,.262.261h9.823a.272.272,0,0,0,.262-.261ZM95.12,110.052a5.269,5.269,0,0,1-5.262-5.262v-3.229A5.269,5.269,0,0,1,95.12,96.3h9.823a5.268,5.268,0,0,1,5.262,5.262v3.229a5.268,5.268,0,0,1-5.262,5.262Zm0-5h9.823a.268.268,0,0,0,.262-.262v-3.229a.268.268,0,0,0-.262-.262H95.12a.273.273,0,0,0-.262.262v3.229A.273.273,0,0,0,95.12,105.052Zm19.606,24.9a4.276,4.276,0,0,0-2.16-3.74L91.817,114.234a4.318,4.318,0,0,0-6.478,3.74v5.074a2.5,2.5,0,0,0,5,0v-3.894l18.7,10.8-18.7,10.8v-10.8a2.5,2.5,0,0,0-5,0v11.98a4.308,4.308,0,0,0,6.477,3.74l20.751-11.98A4.275,4.275,0,0,0,114.726,129.953ZM428.893,340.728c-7.05-2.765-11.039-4.583-11.039-9.794v-.66a2.5,2.5,0,0,0-5,0v72.9a17.072,17.072,0,0,0-10.34-3.1h-.191a2.5,2.5,0,0,0,.021,5h.02c4.424,0,7.887,1.542,9.5,4.329,3.068,5.314-1.315,13.828-9.569,18.594a22.746,22.746,0,0,1-12.875,3.269c-3.745-.3-6.59-1.817-8.012-4.279s-1.314-5.685.3-9.077a22.722,22.722,0,0,1,9.269-9.515,26.392,26.392,0,0,1,3.706-1.776,2.5,2.5,0,0,0-1.795-4.666,31.332,31.332,0,0,0-4.411,2.111,27.744,27.744,0,0,0-11.283,11.7c-2.344,4.922-2.386,9.8-.117,13.727s6.512,6.332,11.947,6.763q.865.067,1.747.068a28.468,28.468,0,0,0,14.023-3.991c8.131-4.694,13.032-12.332,13.027-19.145a2.633,2.633,0,0,0,.035-.346V340.855a40.068,40.068,0,0,0,9.213,4.527c8.462,3.319,16.455,6.453,16.455,19.375a2.5,2.5,0,0,0,5,0C448.522,348.425,437.639,344.157,428.893,340.728Z"/></svg>
