<?xml version="1.0" standalone="no"?>
<!DOCTYPE svg PUBLIC "-//W3C//DTD SVG 20010904//EN"
 "http://www.w3.org/TR/2001/REC-SVG-20010904/DTD/svg10.dtd">
<svg version="1.0" xmlns="http://www.w3.org/2000/svg"
 width="1280.000000pt" height="1237.000000pt" viewBox="0 0 1280.000000 1237.000000"
 preserveAspectRatio="xMidYMid meet">
<g transform="translate(0.000000,1237.000000) scale(0.100000,-0.100000)"
fill="#000000" stroke="none">
<path d="M6785 12359 c-55 -5 -179 -16 -275 -24 -1134 -98 -2258 -549 -3158
-1268 -868 -694 -1460 -1531 -1797 -2542 -192 -575 -275 -1090 -276 -1713 0
-280 6 -396 37 -652 66 -542 267 -1199 506 -1650 340 -640 831 -1212 1406
-1638 655 -484 1433 -792 2247 -889 189 -22 759 -25 930 -5 875 105 1604 438
2184 997 296 286 523 596 701 960 162 331 252 621 312 1005 20 127 22 183 23
460 0 351 -7 420 -71 700 -168 732 -547 1316 -1114 1720 -288 205 -590 332
-940 397 -148 27 -497 25 -651 -5 -142 -27 -324 -79 -444 -127 -461 -186 -791
-539 -897 -962 -19 -74 -22 -115 -22 -253 0 -147 3 -175 27 -261 54 -195 128
-311 249 -390 80 -51 166 -73 270 -67 80 5 158 30 158 51 0 4 -11 23 -25 42
-34 44 -65 134 -65 189 0 53 34 239 57 311 91 290 354 469 757 516 174 20 401
-11 586 -80 222 -83 470 -264 630 -460 103 -126 140 -184 220 -346 257 -518
284 -1090 81 -1675 -77 -224 -139 -351 -266 -545 -421 -646 -1125 -1084 -1980
-1231 -126 -21 -193 -26 -417 -31 -479 -10 -834 41 -1243 180 -824 280 -1592
921 -2044 1707 -318 554 -491 1140 -552 1878 -15 179 -7 577 16 762 61 507
209 1013 445 1522 327 704 856 1349 1453 1772 71 51 93 52 29 1 -286 -226
-625 -576 -872 -899 -849 -1112 -1177 -2439 -926 -3738 199 -1027 775 -1926
1596 -2493 671 -463 1492 -691 2250 -625 1297 114 2336 1013 2516 2175 35 230
29 511 -17 722 -120 554 -525 1037 -999 1191 -124 40 -219 54 -365 54 -174 0
-258 -17 -381 -77 -170 -83 -265 -198 -294 -358 -19 -106 -4 -230 35 -275 1
-2 33 14 71 34 59 33 78 38 150 42 96 5 244 -18 352 -54 269 -90 445 -351 493
-731 32 -260 -37 -566 -184 -810 -265 -443 -714 -728 -1302 -830 -128 -22
-516 -25 -650 -5 -452 68 -949 319 -1308 662 -812 775 -1130 1925 -846 3055
189 751 631 1440 1235 1925 67 54 156 121 198 149 42 29 76 53 76 56 0 2 -25
-5 -55 -16 -69 -24 -116 -24 -146 0 l-24 20 30 58 c47 92 258 302 403 400 453
309 937 527 1413 637 352 81 619 110 1019 110 377 -1 586 -21 975 -95 1206
-228 2224 -844 3063 -1853 266 -319 479 -652 691 -1076 364 -732 568 -1494
632 -2360 22 -291 3 -800 -41 -1135 -79 -598 -257 -1245 -505 -1840 -9 -22
-12 -35 -7 -30 5 6 38 73 72 150 306 687 496 1432 550 2155 6 80 15 192 20
250 13 134 13 355 0 490 -5 58 -14 175 -20 260 -68 965 -346 1897 -795 2665
-620 1061 -1479 1876 -2520 2390 -700 345 -1416 534 -2220 585 -205 13 -645
13 -848 0 -536 -34 -1034 -154 -1585 -382 -68 -27 -125 -48 -128 -45 -6 6 234
128 349 178 44 18 75 35 69 37 -5 1 -51 -7 -102 -18 -93 -21 -130 -20 -130 4
0 20 139 148 220 203 287 193 901 398 1455 488 312 50 455 60 840 60 421 -1
636 -18 999 -80 933 -161 1815 -538 2634 -1127 67 -48 122 -86 122 -84 0 6
-176 146 -265 212 -611 448 -1291 786 -2014 1000 -451 134 -798 200 -1256 239
-99 8 -230 19 -291 25 -129 12 -375 11 -519 -1z"/>
<path d="M6570 10374 c-590 -52 -1096 -180 -1605 -404 -131 -58 -213 -112
-405 -264 -162 -128 -469 -436 -599 -599 -434 -547 -690 -1169 -752 -1829 -17
-191 -7 -655 20 -830 71 -472 212 -855 448 -1211 182 -275 448 -540 718 -716
557 -363 1177 -474 1771 -316 167 44 403 148 544 239 385 250 611 654 614
1096 1 133 -15 201 -75 323 -68 138 -177 253 -304 320 -80 43 -268 24 -349
-36 -18 -13 -17 -15 8 -53 76 -116 93 -282 43 -426 -78 -224 -262 -414 -494
-507 -128 -52 -205 -66 -363 -66 -219 0 -360 36 -595 149 -321 156 -583 424
-751 771 -117 240 -175 467 -195 760 -11 147 -10 190 5 315 9 80 25 187 36
239 168 815 731 1503 1525 1865 318 144 660 238 1015 277 146 16 500 16 649 0
710 -76 1378 -360 1941 -827 148 -123 428 -406 546 -554 393 -492 666 -1057
803 -1665 110 -490 134 -984 71 -1469 -134 -1023 -486 -1848 -1089 -2551 -390
-453 -838 -834 -1334 -1134 -141 -85 -376 -213 -473 -257 -67 -30 -88 -54 -50
-54 8 0 24 -9 37 -19 l24 -20 -55 -51 c-67 -62 -237 -178 -334 -227 -178 -90
-354 -155 -721 -266 -473 -144 -843 -198 -1360 -198 -392 0 -629 23 -1125 112
-854 152 -1630 465 -2355 948 -202 135 -206 131 -9 -9 880 -627 1985 -1048
3081 -1175 374 -43 726 -61 896 -46 73 6 211 18 307 27 1139 99 2313 576 3195
1298 633 518 1129 1146 1500 1897 153 311 231 504 315 784 329 1100 312 2237
-49 3218 -400 1087 -1107 1942 -2114 2554 -50 31 -162 91 -247 134 -465 233
-901 363 -1460 435 -110 15 -739 28 -850 18z"/>
<path d="M6895 9403 c-446 -37 -913 -178 -1235 -372 -697 -420 -1155 -1047
-1291 -1766 -30 -157 -37 -430 -14 -589 96 -695 532 -1235 1124 -1394 84 -22
116 -25 251 -25 140 0 164 2 243 26 140 43 219 88 306 175 122 122 181 251
167 370 -6 52 -39 137 -58 148 -5 3 -26 -5 -46 -18 -164 -109 -367 -113 -567
-14 -297 149 -465 461 -466 866 -1 372 150 722 435 1005 149 148 269 234 451
325 222 110 414 166 654 191 140 14 426 6 566 -16 435 -69 881 -262 1205 -522
113 -90 315 -287 405 -394 462 -551 705 -1283 682 -2059 -4 -107 -13 -243 -21
-302 -101 -715 -409 -1370 -922 -1958 -156 -178 -446 -453 -599 -567 l-30 -22
38 -1 c21 0 47 5 58 11 16 8 29 7 55 -6 19 -9 34 -20 34 -25 0 -21 -165 -212
-271 -315 -380 -368 -906 -627 -1579 -779 -333 -75 -560 -104 -890 -113 -663
-18 -1422 122 -2020 374 -530 223 -1025 524 -1450 881 -156 131 -493 469 -621
622 -721 862 -1182 1920 -1338 3065 -46 340 -55 470 -55 805 0 328 9 479 45
775 58 467 166 929 324 1382 55 156 68 210 27 110 -232 -565 -394 -1241 -452
-1877 -20 -227 -40 -557 -40 -670 0 -172 30 -528 66 -780 101 -702 290 -1318
594 -1935 837 -1697 2410 -2880 4280 -3219 356 -65 651 -90 1060 -90 435 -1
757 30 1156 109 362 72 478 113 884 316 755 377 1331 848 1807 1479 341 453
577 891 737 1372 102 305 165 595 208 963 21 176 17 813 -5 995 -54 437 -159
826 -326 1206 -272 623 -755 1220 -1296 1601 -515 362 -1119 590 -1725 648
-129 13 -436 17 -545 8z"/>
</g>
</svg>
