<?xml version="1.0" standalone="no"?>
<!DOCTYPE svg PUBLIC "-//W3C//DTD SVG 20010904//EN"
 "http://www.w3.org/TR/2001/REC-SVG-20010904/DTD/svg10.dtd">
<svg version="1.0" xmlns="http://www.w3.org/2000/svg"
 width="1134.000000pt" height="1280.000000pt" viewBox="0 0 1134.000000 1280.000000"
 preserveAspectRatio="xMidYMid meet">
<g transform="translate(0.000000,1280.000000) scale(0.100000,-0.100000)"
fill="#000000" stroke="none">
<path d="M4390 12714 c-614 -172 -1207 -442 -1730 -789 -148 -98 -371 -262
-456 -334 -58 -50 -20 -26 71 45 228 176 537 371 835 528 199 104 251 129 257
123 2 -3 -42 -28 -98 -57 -271 -139 -635 -367 -884 -555 -155 -116 -394 -316
-450 -376 l-40 -43 45 38 c25 21 97 82 160 135 161 136 235 193 392 305 132
93 362 242 420 272 62 32 20 0 -134 -103 -371 -247 -687 -505 -1032 -843 -319
-312 -472 -490 -621 -720 -247 -382 -371 -611 -600 -1108 -21 -45 -40 -81 -42
-79 -1 2 8 35 21 73 87 252 346 749 550 1057 10 15 15 27 12 27 -20 0 -320
-487 -431 -698 -21 -40 -40 -71 -42 -68 -7 7 147 310 221 436 143 242 347 534
509 730 39 47 77 94 86 104 9 11 10 16 4 12 -21 -12 -244 -294 -345 -436 -261
-368 -480 -766 -640 -1165 -62 -155 -156 -433 -173 -515 -9 -41 -23 -88 -31
-105 -8 -16 -22 -72 -30 -124 -8 -52 -20 -104 -28 -116 -16 -24 -31 -89 -28
-120 1 -11 0 -40 -4 -64 -4 -33 -8 -41 -16 -30 -7 10 -8 7 -4 -13 4 -16 1 -28
-6 -30 -8 -3 -12 -31 -13 -87 0 -52 -4 -84 -12 -89 -12 -8 -35 -172 -53 -387
-14 -176 -12 -614 5 -813 80 -943 418 -1850 968 -2595 145 -198 275 -347 481
-553 263 -263 489 -449 762 -627 821 -536 1895 -783 2874 -661 491 61 955 208
1373 435 866 471 1519 1284 1742 2170 72 288 98 506 98 814 -1 369 -47 656
-158 974 -151 433 -426 828 -804 1154 -398 342 -917 537 -1436 537 -517 0
-990 -186 -1349 -530 -154 -148 -249 -276 -357 -480 -36 -69 -86 -163 -111
-210 -101 -187 -146 -373 -157 -650 -7 -161 -10 -191 -30 -231 -55 -114 -121
-132 -252 -67 -201 99 -377 382 -458 738 -42 185 -54 304 -48 505 9 331 78
601 232 920 304 628 918 1165 1623 1421 407 147 713 199 1182 198 259 0 302
-3 470 -28 383 -57 651 -128 942 -247 392 -161 747 -388 1133 -725 550 -480
918 -1007 1198 -1719 254 -647 354 -1401 282 -2125 -28 -282 -75 -582 -120
-768 -168 -698 -483 -1375 -889 -1912 -284 -376 -754 -842 -1131 -1124 -723
-540 -1557 -905 -2455 -1076 -513 -98 -958 -121 -1620 -86 l-105 5 75 -13
c361 -65 745 -74 1233 -30 97 8 183 13 190 11 6 -3 1 -6 -13 -7 -14 -1 -47 -8
-75 -16 l-50 -13 70 5 c39 3 132 14 208 24 75 11 150 20 165 19 l27 -1 -30 -9
c-16 -6 -68 -18 -115 -29 -71 -15 -78 -18 -44 -19 23 -1 77 6 120 14 44 8 115
14 159 14 51 -1 135 10 230 29 82 17 151 29 153 27 2 -1 -21 -11 -50 -20 -88
-29 -90 -27 47 -54 31 -6 36 -10 23 -15 -33 -15 -18 -23 35 -19 106 9 398 100
670 209 975 390 1969 1144 2583 1959 214 284 435 653 588 983 66 142 213 500
231 562 15 52 -4 10 -58 -125 -68 -172 -146 -340 -153 -332 -3 3 9 38 27 79
135 308 274 740 365 1138 41 183 44 140 3 -62 -36 -181 -85 -371 -133 -523
-19 -60 -33 -111 -31 -113 5 -5 85 250 130 413 126 460 189 1021 155 1385 -5
58 -17 209 -25 335 -20 285 -32 438 -41 489 -5 29 -3 37 6 31 14 -9 11 19 -26
200 -55 272 -162 610 -299 945 -186 454 -577 1080 -836 1338 -142 142 -475
437 -624 553 -165 129 -447 319 -590 398 -33 19 -69 44 -80 56 -22 25 -228
131 -375 193 -374 157 -771 257 -1245 314 -170 20 -722 17 -905 -5 -498 -61
-883 -170 -1276 -363 -238 -117 -467 -264 -696 -446 -141 -113 -487 -460 -585
-588 -471 -616 -705 -1276 -705 -1985 1 -802 294 -1518 838 -2045 186 -180
382 -320 603 -430 293 -146 571 -217 892 -227 345 -12 634 47 929 188 239 115
446 273 617 473 270 314 360 541 468 1177 47 280 52 294 115 337 52 35 112 30
206 -17 94 -47 158 -106 221 -202 102 -159 180 -345 239 -571 35 -134 37 -154
42 -331 4 -189 -5 -315 -34 -454 -73 -353 -256 -747 -492 -1057 -92 -121 -343
-376 -462 -470 -379 -298 -858 -520 -1307 -605 -748 -143 -1360 -102 -1981
130 -508 190 -932 442 -1322 787 -864 763 -1365 1790 -1485 3046 -28 291 -18
693 25 1037 105 839 455 1703 980 2414 299 405 751 858 1150 1152 634 466
1400 821 2166 1003 641 153 1244 197 1964 144 47 -4 83 -4 80 -1 -3 3 -52 12
-110 21 -361 53 -1041 79 -1325 51 -296 -30 -309 -30 -302 -12 8 21 -13 22
-128 7 -187 -25 -393 -75 -707 -175 -95 -30 -174 -53 -175 -51 -6 5 242 90
399 136 81 24 146 45 145 47 -8 7 -292 -40 -377 -63 -125 -34 -293 -87 -405
-129 -120 -45 -150 -51 -90 -19 97 52 449 173 668 230 71 18 111 33 115 43 3
9 19 28 36 43 19 17 25 27 16 27 -8 -1 -85 -21 -170 -45z m7 -310 c-16 -8 -88
-36 -160 -60 -941 -322 -1786 -856 -2421 -1529 -170 -181 -309 -344 -370 -435
-20 -30 -50 -73 -66 -95 -48 -62 -179 -265 -202 -310 -12 -22 -33 -58 -48 -80
-15 -22 -51 -85 -80 -140 -29 -55 -61 -111 -70 -125 -10 -14 -29 -53 -43 -87
-28 -69 -83 -163 -71 -123 7 25 167 343 226 450 142 256 244 415 338 524 20
23 55 67 78 98 23 32 51 65 61 75 10 10 46 52 78 93 33 41 126 143 206 226
542 561 1159 988 1872 1297 262 113 607 233 680 235 16 1 14 -2 -8 -14z m-757
-29 c0 -2 -13 -11 -29 -20 -42 -21 -131 -56 -131 -50 0 8 114 62 158 74 1 1 2
-1 2 -4z m-175 -45 c-3 -5 -12 -10 -18 -10 -7 0 -6 4 3 10 19 12 23 12 15 0z
m-1015 -794 c0 -3 -57 -51 -127 -109 -262 -213 -506 -447 -732 -702 -162 -182
-151 -171 -151 -158 0 32 287 360 463 529 228 219 547 475 547 440z m-1053
-1138 c-333 -457 -527 -813 -782 -1436 -21 -51 -40 -90 -43 -88 -7 7 81 250
144 399 134 317 405 796 582 1032 87 114 195 245 199 241 3 -3 -42 -69 -100
-148z m5363 12 l25 -8 -25 0 c-14 0 -34 3 -45 8 l-20 9 20 -1 c11 0 31 -4 45
-8z m225 -40 c18 -8 18 -9 -5 -8 -14 0 -36 4 -50 8 -24 8 -24 8 5 8 17 0 39
-3 50 -8z m185 -46 l35 -14 -40 6 c-22 3 -47 10 -55 15 -25 14 20 10 60 -7z
m-137 -10 c220 -47 476 -127 670 -208 97 -41 164 -76 144 -76 -4 0 -69 23
-144 51 -230 86 -380 135 -553 184 -91 25 -178 50 -195 54 -52 15 2 12 78 -5z
m328 -52 c-7 -2 -18 1 -23 6 -8 8 -4 9 13 5 13 -4 18 -8 10 -11z m335 -223
c235 -87 661 -315 797 -426 44 -36 24 -27 -61 25 -206 129 -570 320 -757 397
-85 35 -105 45 -93 45 3 0 54 -18 114 -41z m-371 -140 c136 -40 279 -93 410
-151 96 -43 179 -88 162 -88 -4 0 -83 31 -175 69 -181 75 -321 128 -447 168
-44 14 -84 30 -90 35 -12 12 -10 12 140 -33z m930 -284 l20 -16 -20 10 c-11 5
-29 17 -40 26 l-20 16 20 -10 c11 -5 29 -17 40 -26z m202 -127 c122 -83 343
-258 343 -271 0 -10 -10 -3 -85 59 -63 52 -230 177 -312 232 -34 23 -65 47
-69 53 -9 16 15 1 123 -73z m-4898 -165 c-184 -187 -299 -328 -436 -533 -151
-228 -295 -519 -364 -735 -7 -22 -14 -35 -16 -28 -3 7 12 58 32 114 124 344
298 646 543 942 73 89 336 357 350 357 4 0 -45 -53 -109 -117z m-3108 -267
c-14 -36 -22 -33 -9 5 6 16 12 28 14 26 3 -2 0 -16 -5 -31z m-15 -327 c-29
-96 -66 -217 -81 -269 -30 -107 -50 -149 -40 -85 17 108 102 400 148 510 41
96 28 17 -27 -156z m9277 -347 c71 -102 157 -246 249 -417 183 -341 321 -687
414 -1041 33 -125 77 -354 70 -361 -1 -2 -29 95 -60 215 -155 581 -308 946
-621 1478 -65 109 -120 203 -123 208 -3 5 0 6 6 2 6 -4 35 -41 65 -84z m-6612
-183 c-50 -132 -94 -272 -120 -374 -29 -115 -61 -285 -61 -322 0 -18 -5 -33
-11 -33 -7 0 -9 9 -6 23 3 12 9 51 12 87 13 131 64 349 115 494 37 104 98 241
105 234 3 -3 -12 -52 -34 -109z m3039 54 c0 -5 -71 -9 -158 -10 -114 -1 -201
-8 -316 -27 -88 -14 -161 -24 -163 -22 -6 6 121 38 202 51 87 14 435 20 435 8z
m-3358 -460 c-57 -269 -81 -473 -83 -708 0 -91 -3 -114 -10 -95 -26 62 -10
434 27 640 29 160 88 369 101 356 3 -2 -13 -89 -35 -193z m-62 150 c-11 -17
-11 -17 -6 0 3 10 6 24 7 30 0 9 2 9 5 0 3 -7 0 -20 -6 -30z m-2473 -95 c-3
-8 -6 -5 -6 6 -1 11 2 17 5 13 3 -3 4 -12 1 -19z m9938 -105 c63 -131 143
-331 194 -482 57 -169 114 -380 108 -403 -3 -10 -2 -20 3 -23 4 -2 5 -17 2
-31 -3 -19 -1 -25 7 -20 6 4 11 3 11 -2 0 -6 -7 -12 -15 -16 -8 -3 -15 -4 -15
-1 0 7 -31 132 -55 220 -111 407 -135 479 -240 721 -30 69 -55 127 -55 130 0
16 15 -9 55 -93z m-9948 50 c-3 -10 -5 -4 -5 12 0 17 2 24 5 18 2 -7 2 -21 0
-30z m-172 -530 c0 -252 4 -487 8 -523 5 -36 5 -62 1 -57 -12 11 -23 110 -29
257 -4 74 -8 140 -10 146 -7 21 21 634 28 634 1 0 2 -206 2 -457z m59 140
c-12 -449 42 -1043 126 -1396 20 -82 24 -115 15 -105 -9 8 -75 306 -100 448
-53 300 -81 681 -71 970 6 155 22 320 32 320 2 0 1 -107 -2 -237z m199 -193
c5 -207 22 -530 31 -597 3 -18 1 -33 -3 -33 -26 0 -51 417 -43 744 1 60 4 107
6 105 2 -2 7 -101 9 -219z m9946 -565 c90 -353 132 -827 111 -1237 -6 -121
-14 -228 -18 -238 -4 -10 -7 144 -7 343 -1 432 -21 665 -90 1062 -14 76 -25
144 -25 149 0 22 10 -4 29 -79z m-10192 -7 c-3 -7 -5 -2 -5 12 0 14 2 19 5 13
2 -7 2 -19 0 -25z m8081 -141 c61 -186 104 -412 101 -525 -1 -26 -3 -36 -6
-22 -32 213 -84 452 -139 634 -4 11 -2 16 4 12 6 -3 24 -48 40 -99z m-7791
-29 c-3 -7 -5 -2 -5 12 0 14 2 19 5 13 2 -7 2 -19 0 -25z m-90 -600 c-3 -8 -6
-5 -6 6 -1 11 2 17 5 13 3 -3 4 -12 1 -19z m7814 -260 c0 -281 -30 -493 -105
-755 -35 -119 -95 -287 -102 -281 -2 2 19 71 45 153 102 314 151 628 151 967
0 72 3 129 6 126 3 -4 5 -98 5 -210z m-7176 -603 c32 -60 92 -166 133 -235 91
-153 89 -149 64 -125 -41 40 -282 468 -282 502 0 13 24 -27 85 -142z m9316
-287 c-48 -343 -167 -764 -317 -1119 -71 -169 -95 -221 -101 -215 -3 2 18 58
45 123 134 322 268 772 354 1190 12 62 24 110 26 108 3 -2 -1 -41 -7 -87z
m-9050 -160 c8 -15 8 -18 0 -14 -6 4 -16 16 -22 28 -8 15 -8 18 0 14 6 -4 16
-16 22 -28z m3894 22 c-11 -5 -27 -9 -35 -9 -9 0 -8 4 5 9 11 5 27 9 35 9 9 0
8 -4 -5 -9z m2796 -47 c-12 -20 -14 -14 -5 12 4 9 9 14 11 11 3 -2 0 -13 -6
-23z m-158 -138 c-3 -9 -8 -14 -10 -11 -3 3 -2 9 2 15 9 16 15 13 8 -4z m38
-121 c-31 -63 -60 -105 -61 -90 0 11 84 156 88 151 2 -2 -10 -29 -27 -61z
m2480 -123 c-64 -254 -197 -611 -335 -896 -222 -460 -519 -899 -848 -1254 -43
-46 -76 -87 -73 -91 2 -4 -4 -15 -15 -25 -11 -10 -20 -15 -20 -10 0 4 -21 -12
-47 -36 -101 -93 -502 -424 -567 -468 l-21 -15 20 21 c11 11 76 69 145 129
119 104 514 486 638 617 165 175 408 513 571 798 202 350 354 697 507 1162 38
114 70 203 72 198 2 -5 -11 -63 -27 -130z m-8646 -426 c222 -220 476 -427 753
-614 50 -35 92 -65 92 -67 0 -3 -3 -3 -7 -1 -271 166 -365 230 -530 365 -203
167 -435 396 -567 562 -82 103 -76 103 19 0 48 -52 156 -163 240 -245z m1470
-841 c66 -26 190 -71 275 -100 164 -56 186 -70 48 -30 -163 47 -456 159 -477
182 -9 10 24 -1 154 -52z m-105 -159 c14 -8 21 -14 15 -14 -5 0 -21 6 -35 14
-14 8 -20 14 -15 14 6 0 21 -6 35 -14z m168 -65 c34 -13 61 -24 59 -26 -5 -5
-112 32 -134 46 -22 14 -10 11 75 -20z m152 -55 c19 -7 28 -14 20 -14 -8 0
-28 6 -45 14 -39 17 -21 18 25 0z m5604 -627 c-117 -138 -316 -330 -509 -492
-312 -262 -665 -495 -1015 -671 -131 -65 -261 -113 -215 -78 11 8 63 36 115
62 52 25 129 67 170 91 41 24 98 53 125 65 96 39 269 147 480 299 233 167 411
318 682 576 172 163 208 195 167 148z m-154 -350 c-157 -152 -405 -360 -480
-403 -21 -12 -19 -10 125 111 131 109 404 353 439 393 11 11 24 21 30 21 6 -1
-45 -55 -114 -122z m-580 -592 c0 -7 -147 -109 -255 -176 -168 -105 -495 -281
-495 -266 0 2 66 40 148 84 150 82 265 150 477 286 123 78 125 79 125 72z
m-1695 -826 c-27 -10 -57 -18 -65 -18 -8 0 8 8 35 18 28 10 57 18 65 18 8 0
-7 -8 -35 -18z m-940 -40 c-3 -5 -11 -10 -16 -10 -6 0 -7 5 -4 10 3 6 11 10
16 10 6 0 7 -4 4 -10z m-38 -6 c-3 -3 -12 -4 -19 -1 -8 3 -5 6 6 6 11 1 17 -2
13 -5z"/>
<path d="M6828 12593 c6 -2 18 -2 25 0 6 3 1 5 -13 5 -14 0 -19 -2 -12 -5z"/>
<path d="M2065 11474 l-50 -46 53 42 c46 37 59 50 49 50 -1 0 -25 -21 -52 -46z"/>
<path d="M1859 11292 l-34 -37 35 30 c19 17 37 31 39 33 2 1 2 4 -1 7 -2 3
-20 -12 -39 -33z"/>
<path d="M1685 11118 l-70 -73 73 70 c39 38 72 71 72 72 0 8 -11 -2 -75 -69z"/>
<path d="M1504 10933 c-42 -49 -52 -63 -25 -38 43 40 107 115 98 115 -2 0 -35
-35 -73 -77z"/>
<path d="M3873 193 c9 -2 23 -2 30 0 6 3 -1 5 -18 5 -16 0 -22 -2 -12 -5z"/>
<path d="M5218 113 c12 -2 30 -2 40 0 9 3 -1 5 -23 4 -22 0 -30 -2 -17 -4z"/>
</g>
</svg>
