<?xml version="1.0" encoding="utf-8"?>
<svg width="163px" height="22px" viewBox="0 0 163 22" version="1.1" xmlns:xlink="http://www.w3.org/1999/xlink" xmlns="http://www.w3.org/2000/svg">
  <g id="Download">
    <path d="M12.924 10.991C12.924 14.825 10.116 17.003 6.354 17.003L0.972 17.003L0.972 4.997L6.336 4.997C10.116 4.997 12.924 7.157 12.924 10.991ZM52.938 17.219C54.036 17.219 54.792 16.949 55.134 16.643L54.558 14.195C54.486 14.267 54.198 14.357 53.91 14.357C53.478 14.357 53.19 13.997 53.19 13.547L53.19 4.997L49.95 4.997L49.95 14.483C49.95 16.301 51.012 17.219 52.938 17.219ZM85.896 4.997L85.896 17.003L82.656 17.003L82.656 16.085C81.918 16.913 81.09 17.219 80.208 17.219C78.102 17.219 76.374 15.635 76.374 12.647C76.374 9.767 78.066 8.093 80.208 8.093C81.09 8.093 81.972 8.399 82.656 9.227L82.656 4.997L85.896 4.997ZM23.328 12.647C23.328 15.077 21.528 17.219 18.432 17.219C15.354 17.219 13.554 15.077 13.554 12.647C13.554 10.217 15.354 8.093 18.432 8.093C21.528 8.093 23.328 10.217 23.328 12.647ZM48.15 10.829L48.15 17.003L44.91 17.003L44.91 12.197C44.91 11.297 44.424 10.955 43.65 10.955C42.912 10.955 42.534 11.333 42.264 11.639L42.264 17.003L39.024 17.003L39.024 8.309L42.264 8.309L42.264 9.299C42.768 8.723 43.722 8.093 45.252 8.093C47.268 8.093 48.15 9.317 48.15 10.829ZM65.034 12.647C65.034 15.077 63.234 17.219 60.138 17.219C57.06 17.219 55.26 15.077 55.26 12.647C55.26 10.217 57.06 8.093 60.138 8.093C63.234 8.093 65.034 10.217 65.034 12.647ZM75.168 17.003L75.168 8.309L71.91 8.309L71.91 9.227C71.226 8.399 70.362 8.093 69.48 8.093C67.338 8.093 65.646 9.767 65.646 12.647C65.646 15.635 67.374 17.219 69.48 17.219C70.362 17.219 71.19 16.913 71.928 16.085L71.928 17.003L75.168 17.003ZM4.608 13.835L6.336 13.835C8.154 13.835 9.234 12.503 9.234 10.991C9.234 9.371 8.298 8.165 6.354 8.165L4.608 8.165L4.608 13.835ZM35.82 17.003L38.34 8.309L34.992 8.309L33.84 13.097L32.328 8.309L29.43 8.309L27.9 13.097L26.748 8.309L23.418 8.309L25.938 17.003L29.466 17.003L30.87 12.143L32.292 17.003L35.82 17.003ZM16.884 12.647C16.884 13.619 17.442 14.357 18.432 14.357C19.44 14.357 19.998 13.619 19.998 12.647C19.998 11.693 19.44 10.955 18.432 10.955C17.442 10.955 16.884 11.693 16.884 12.647ZM58.59 12.647C58.59 13.619 59.148 14.357 60.138 14.357C61.146 14.357 61.704 13.619 61.704 12.647C61.704 11.693 61.146 10.955 60.138 10.955C59.148 10.955 58.59 11.693 58.59 12.647ZM79.686 12.647C79.686 13.727 80.424 14.357 81.306 14.357C81.738 14.357 82.35 14.141 82.656 13.763L82.656 11.531C82.35 11.153 81.738 10.955 81.306 10.955C80.424 10.955 79.686 11.567 79.686 12.647ZM70.578 14.357C69.696 14.357 68.958 13.727 68.958 12.647C68.958 11.567 69.696 10.973 70.578 10.973C71.01 10.973 71.622 11.171 71.928 11.549L71.928 13.763C71.622 14.141 71.01 14.357 70.578 14.357Z" />
  </g>
  <g id="anything." transform="translate(91 0)">
    <path d="M42.93 10.883L42.93 17.003L41.994 17.003L41.994 11.081C41.994 9.407 41.148 8.939 39.888 8.939C38.772 8.939 37.62 9.641 37.062 10.433L37.062 17.003L36.126 17.003L36.126 4.997L37.062 4.997L37.062 9.623C37.692 8.867 38.934 8.093 40.194 8.093C41.958 8.093 42.93 8.921 42.93 10.883ZM46.314 6.941C46.71 6.941 47.034 6.617 47.034 6.221C47.034 5.825 46.71 5.519 46.314 5.519C45.936 5.519 45.594 5.825 45.594 6.221C45.594 6.617 45.936 6.941 46.314 6.941ZM33.066 17.219C33.786 17.219 34.2 17.003 34.542 16.679L34.182 15.959C33.984 16.175 33.624 16.373 33.21 16.373C32.598 16.373 32.31 15.887 32.31 15.185L32.31 9.137L34.074 9.137L34.074 8.309L32.31 8.309L32.31 5.933L31.356 5.933L31.356 8.309L29.916 8.309L29.916 9.137L31.356 9.137L31.356 15.329C31.356 16.517 31.914 17.219 33.066 17.219ZM8.82 17.003L8.82 8.309L7.866 8.309L7.866 9.713C7.164 8.723 6.084 8.093 4.842 8.093C2.538 8.093 0.972 9.911 0.972 12.665C0.972 15.455 2.538 17.219 4.842 17.219C6.138 17.219 7.254 16.517 7.866 15.617L7.866 17.003L8.82 17.003ZM18.54 17.003L18.54 10.919C18.54 8.957 17.568 8.093 15.804 8.093C14.544 8.093 13.302 8.867 12.672 9.623L12.672 8.309L11.736 8.309L11.736 17.003L12.672 17.003L12.672 10.433C13.23 9.641 14.382 8.939 15.498 8.939C16.758 8.939 17.604 9.443 17.604 11.117L17.604 17.003L18.54 17.003ZM56.502 10.919L56.502 17.003L55.566 17.003L55.566 11.117C55.566 9.443 54.72 8.939 53.46 8.939C52.344 8.939 51.192 9.641 50.634 10.433L50.634 17.003L49.698 17.003L49.698 8.309L50.634 8.309L50.634 9.623C51.264 8.867 52.506 8.093 53.766 8.093C55.53 8.093 56.502 8.957 56.502 10.919ZM62.874 20.531C64.98 20.531 66.78 19.577 66.78 16.931L66.78 8.309L65.826 8.309L65.826 9.713C65.124 8.723 64.044 8.093 62.802 8.093C60.498 8.093 58.932 9.893 58.932 12.647C58.932 15.437 60.498 17.183 62.802 17.183C64.098 17.183 65.214 16.445 65.826 15.545L65.826 16.931C65.826 18.893 64.44 19.685 62.874 19.685C61.56 19.685 60.732 19.361 59.976 18.461L59.436 19.217C60.462 20.261 61.398 20.531 62.874 20.531ZM28.26 16.931C28.26 19.505 26.442 20.531 24.552 20.531C23.112 20.531 22.176 20.081 21.348 19.217L21.906 18.461C22.554 19.307 23.454 19.685 24.552 19.685C26.28 19.685 27.324 18.677 27.324 16.931L27.324 15.635C26.622 16.427 25.452 17.129 24.192 17.129C22.428 17.129 21.456 16.301 21.456 14.339L21.456 8.309L22.392 8.309L22.392 14.141C22.392 15.815 23.238 16.283 24.498 16.283C25.614 16.283 26.748 15.617 27.324 14.843L27.324 8.309L28.26 8.309L28.26 16.931ZM46.782 17.003L46.782 8.309L45.846 8.309L45.846 17.003L46.782 17.003ZM5.004 16.373C3.078 16.373 1.962 14.771 1.962 12.665C1.962 10.559 3.078 8.939 5.004 8.939C6.228 8.939 7.362 9.695 7.866 10.523L7.866 14.825C7.362 15.653 6.228 16.373 5.004 16.373ZM62.964 16.337C61.038 16.337 59.922 14.753 59.922 12.647C59.922 10.541 61.038 8.939 62.964 8.939C64.17 8.939 65.322 9.677 65.826 10.523L65.826 14.753C65.322 15.599 64.17 16.337 62.964 16.337ZM70.992 16.373C70.992 16.805 70.632 17.165 70.2 17.165C69.768 17.165 69.39 16.805 69.39 16.373C69.39 15.959 69.768 15.599 70.2 15.599C70.632 15.599 70.992 15.959 70.992 16.373Z" />
  </g>
</svg>