<?xml version="1.0" encoding="utf-8"?>
<svg width="100px" height="100px" viewBox="0 0 100 100" version="1.1" xmlns:xlink="http://www.w3.org/1999/xlink" xmlns="http://www.w3.org/2000/svg">
  <defs>
    <path d="M0 0L100 0L100 100L0 100L0 0Z" id="path_1" />
    <clipPath id="mask_1">
      <use xlink:href="#path_1" />
    </clipPath>
  </defs>
  <g id="Asset-3">
    <path d="M0 0L100 0L100 100L0 100L0 0Z" id="Background" fill="#FFFFFF" fill-opacity="0" fill-rule="evenodd" stroke="none" />
    <g clip-path="url(#mask_1)">
      <g id="Layer_2" transform="translate(0.00049431826 0.00055380765)">
        <g id="Layer_1-2">
          <path d="M2.07217 24.4609C3.1273 27.8972 6.16912 31.3498 10.0762 33.4935C13.2022 35.2099 17.2902 36.4184 20.3804 36.8527C20.4205 37.8413 20.8195 38.8097 21.5448 39.6784L21.5107 39.6632C20.3822 40.7526 19.8734 43.0177 19.7516 44.1853C19.7157 44.5356 19.6943 44.8859 19.671 45.2362C19.6208 46.0605 19.5689 46.9117 19.3127 47.7174C19.1694 48.1634 18.9544 48.6152 18.7448 49.0519C18.6517 49.2458 18.5609 49.4404 18.4725 49.6357C17.8366 51.052 17.5947 52.2839 17.7291 53.3989C17.7845 53.9687 17.9323 54.5331 18.1698 55.0826C18.3095 55.3874 18.1698 55.9782 18.0533 56.499C17.9369 57.0197 17.8186 57.5159 17.8921 57.9141C17.2687 58.4884 16.7289 59.0994 16.2798 59.7391C15.7245 60.5657 15.0975 61.5022 14.9649 62.4935C14.6891 64.5963 16.7026 66.7868 20.1063 68.0711C20.6867 68.2844 21.2938 68.4652 21.921 68.6117C22.5892 70.6784 24.0277 73.0965 25.5342 74.6751C25.752 74.9399 26.075 75.1617 26.4694 75.3173L26.4694 76.6414C26.2992 76.6846 26.1272 76.7278 25.957 76.7757C24.9921 77.0446 24.0837 77.3926 23.2538 77.8113C22.4083 78.2369 21.6879 78.7587 21.1274 79.3514C20.6172 79.9006 20.2719 80.5081 20.1099 81.1414C17.6897 82.5016 12.2653 84.1667 9.32737 84.6197C8.54219 84.7282 7.74477 84.795 6.94299 84.8194C5.20534 84.9023 3.5662 84.9816 2.21189 85.9986C0.75727 87.0903 1.0636 88.1914 1.57953 89.4151C1.73466 89.7782 1.94531 90.1302 2.20831 90.4659C1.93068 90.9801 1.82502 91.5272 1.8984 92.0702C2.3355 95.712 6.5883 95.7622 8.403 95.7832L8.6126 95.7832C9.5827 95.7801 10.5271 95.5797 11.314 95.2099C13.9645 95.8171 16.7559 96.1213 19.5653 96.109C20.3983 96.109 21.2438 96.0833 22.0965 96.0331C22.0965 96.0903 22.0965 96.1498 22.0965 96.2047C22.5211 99.9306 26.6467 99.9819 28.4095 100.004L28.6119 100.004C29.7967 99.9953 30.9278 99.6808 31.7576 99.1296C32.9345 98.3788 33.6081 97.2509 33.6081 96.0354C33.6209 95.382 33.4565 94.7321 33.1227 94.1159C37.4489 92.9319 41.5279 91.3766 45.5192 89.8529L58.8885 84.7481C63.9976 82.7959 69.2786 80.7782 74.3483 78.6415C77.503 77.3128 80.2224 76.0786 82.6372 74.8806C83.9234 75.7493 85.799 75.8451 86.8201 75.8965L86.9276 75.9023C87.0351 75.9023 87.1443 75.9105 87.2518 75.9105C88.3005 75.9043 89.3098 75.6494 90.0912 75.1936C91.184 74.5736 91.8647 73.6255 91.9579 72.5921C92.0492 71.5961 91.7357 70.7239 91.0496 70.0526C91.0245 70.0292 90.9959 70.0082 90.9708 69.9848C94.1416 67.5656 95.6285 65.2128 95.5085 62.8542C95.4583 61.9085 95.1161 61.125 94.4927 60.526C93.6239 59.6889 91.2682 58.8914 89.9479 58.6147C86.3454 57.8592 83.2319 57.7693 80.6648 58.3403C81.2934 57.584 81.7519 56.7728 82.0263 55.9315C82.7124 53.8625 80.9371 50.6889 78.954 49.3438C81.6161 47.861 85.2634 44.5917 86.3239 43.3657C87.6442 41.8361 88.3088 40.2715 88.2944 38.7174C88.2783 35.8065 86.0373 33.1187 83.3287 30.1576L82.8504 29.6334C83.0098 29.2831 83.1764 28.9235 83.3735 28.5825C83.5329 28.3082 83.8052 27.7127 84.1796 26.8883C85.1881 24.6699 86.8757 20.9615 88.479 18.9591C89.7634 17.3618 88.436 16.4476 87.0978 15.8299C87.289 15.7842 87.4893 15.7567 87.6925 15.7482C88.2533 15.7283 88.8109 15.6803 89.3603 15.6045C89.9521 15.5079 90.503 15.3259 90.9726 15.0721C91.2027 14.9484 91.4166 14.8125 91.6122 14.6658C91.7913 14.5152 91.9704 14.3657 92.1263 14.2081C92.7479 13.5659 93.0596 12.8852 93.6149 12.3399C94.2048 11.7897 94.9313 11.3075 95.7646 10.9131C96.5976 10.4939 97.5005 10.1133 98.3837 9.69761C98.604 9.59369 98.8244 9.48861 99.0411 9.37885C99.2888 9.26323 99.5117 9.12658 99.7039 8.97252C99.8204 8.87906 99.9075 8.77153 99.9601 8.65611C100.009 8.52464 100.002 8.38684 99.9386 8.25795C99.8126 8.02999 99.5557 7.84285 99.222 7.73603C98.9195 7.6372 98.5815 7.59362 98.2439 7.60993C97.9431 7.62396 97.6462 7.66321 97.3607 7.72669C96.8233 7.84345 96.3361 7.97539 95.8273 8.11084C95.3186 8.24628 94.8564 8.38172 94.3781 8.5265L95.7557 7.41611L96.775 6.59878C97.1527 6.32264 97.4747 6.01619 97.7334 5.68688C97.8712 5.50783 97.9661 5.31606 98.0146 5.11825C98.0265 5.06524 98.0336 5.01183 98.0361 4.95829C98.0379 4.89183 98.0264 4.8255 98.0021 4.76096C97.9491 4.63205 97.8432 4.51499 97.6957 4.42235C97.5488 4.32754 97.3616 4.26367 97.1583 4.23904C96.9428 4.213 96.7202 4.23478 96.5259 4.30092C96.2734 4.39433 96.0476 4.48307 95.8094 4.57881C94.8876 4.95782 94.0077 5.37842 93.176 5.83751C92.3412 6.2917 91.5459 6.77159 90.7756 7.27132C90.7379 7.29468 90.7021 7.32036 90.6663 7.34488C90.8227 7.13238 90.9857 6.92182 91.1553 6.71321C91.6641 6.10138 92.2302 5.49772 92.7139 4.86254C92.9575 4.54495 93.1868 4.22153 93.3964 3.89343C93.4949 3.72763 93.597 3.56183 93.6866 3.39369C93.7332 3.30612 93.7762 3.23606 93.8263 3.13331C93.8752 3.02146 93.8916 2.90464 93.8747 2.78887C93.8428 2.54828 93.6543 2.32811 93.357 2.18405C93.0534 2.05386 92.6823 2.00844 92.3269 2.05794C91.7244 2.14245 91.1798 2.35126 90.7738 2.65343C90.0576 3.19479 89.4151 3.77572 88.8534 4.38966C88.2819 4.99215 87.7588 5.60865 87.2411 6.22748L87.1479 6.34424L87.2017 6.1691C87.4202 5.48722 87.6549 4.79833 87.8806 4.1106C87.9935 3.76733 88.1028 3.42171 88.2031 3.07376C88.3034 2.72582 88.4324 2.39071 88.4324 1.99256C88.4321 1.88769 88.4141 1.78314 88.3786 1.68083C88.3333 1.54826 88.2256 1.42823 88.0705 1.33753C87.7648 1.18509 87.3694 1.13139 86.9957 1.19158C86.656 1.2333 86.3437 1.34118 86.1 1.50099L86.0086 1.57105L85.9459 1.62826L85.8259 1.74502C85.7471 1.81858 85.67 1.89331 85.5966 1.9692C85.0025 2.57191 84.4986 3.21041 84.0918 3.87591C83.6904 4.53595 83.3471 5.21037 83.0635 5.89588C82.7733 6.5801 82.5673 7.26782 82.1678 7.89483C82.072 8.05058 81.9626 8.20262 81.84 8.35019C81.7773 8.42259 81.7146 8.49498 81.6447 8.56503C81.6125 8.60007 81.5767 8.63392 81.539 8.66779C81.5178 8.69135 81.4926 8.71328 81.4638 8.73317L81.4638 8.73317C81.4638 8.73317 81.4638 8.73317 81.4423 8.73317L81.3957 8.72266C81.3054 8.69469 81.2215 8.65852 81.1467 8.61524C80.9663 8.51107 80.8052 8.39351 80.6666 8.26496C80.5232 8.13291 80.3996 7.99214 80.2976 7.84462C80.1968 7.69916 80.1286 7.54502 80.0952 7.38692C80.0101 7.01546 79.8347 6.65521 79.5756 6.31972C79.4128 6.12003 79.156 5.95962 78.843 5.86202C78.683 5.82319 78.5164 5.79731 78.3468 5.78496C77.839 5.75095 77.3323 5.85485 76.9459 6.07219C76.7107 6.21024 76.5148 6.37428 76.3672 6.55675C76.224 6.73209 76.1168 6.91895 76.0484 7.11253C76.0121 7.21152 75.9881 7.31226 75.9767 7.41377C75.9642 7.53053 75.9767 7.60176 75.9767 7.6975C75.9846 8.06115 76.0313 8.42398 76.1165 8.78339C76.2921 9.4964 76.5989 10.193 77.0301 10.8582C77.4274 11.4872 77.958 12.0767 78.6065 12.6096C78.5757 12.6965 78.5325 12.7814 78.4775 12.863C78.1625 12.7852 77.8273 12.748 77.4905 12.7533C77.4421 12.7533 77.3848 12.7533 77.3113 12.7533C76.8026 12.7451 75.8639 12.7322 75.115 13.1946C73.5565 14.1591 72.9869 15.3722 72.1968 17.0477C72.1055 17.2427 72.0177 17.4459 71.9102 17.6525L69.5993 15.1247C69.147 14.6051 68.3851 14.2307 67.4944 14.0902C63.8381 13.5799 59.4331 14.0727 55.3128 15.4388C55.0543 14.3053 54.6529 13.1876 54.1126 12.0971C52.5878 9.02538 49.8598 6.26612 46.1981 4.09192C44.3681 3.00664 42.2964 2.10829 40.0536 1.42743C37.8011 0.752268 35.398 0.31517 32.9346 0.132554C30.4882 -0.0545212 28.0158 -0.043541 25.5736 0.165247C25.4536 0.174588 25.3354 0.186264 25.2154 0.196772L25.2154 0.196772L25.1939 0.196772C22.8756 0.392686 20.6039 0.776288 18.4313 1.3387C13.8471 2.52849 9.80747 4.5251 6.64921 6.97242C6.41991 7.14989 6.1942 7.33204 5.97206 7.51419L5.97206 7.51419L5.97206 7.51419C4.65651 8.58611 3.51973 9.74624 2.58093 10.975C1.47828 12.4163 0.710916 13.9565 0.304047 15.545C-0.0914971 17.1389 -0.101171 18.7633 0.275384 20.3591C0.617035 21.7687 1.22038 23.1461 2.07216 24.4609L2.07217 24.4609ZM4.90438 26.468C4.34367 25.5666 3.84924 24.594 4.10183 23.6354C4.39025 22.5378 6.78894 20.3124 11.1743 18.9439C8.64484 20.6953 7.14723 22.79 7.27442 25.4989C7.36399 27.3846 9.76447 30.9516 12.525 32.7498C8.82219 31.4829 6.47724 28.9947 4.90438 26.468L4.90438 26.468ZM21.4337 36.9765C21.8628 37.0156 22.2956 37.0344 22.7289 37.0325C23.0236 37.7178 23.7112 38.303 24.6493 38.6672C25.0626 38.8288 25.5089 38.9514 25.9749 39.0315C26.1983 39.5297 26.5628 39.9962 27.0498 40.4069C26.5143 40.7909 26.3482 41.3363 26.618 41.8244L26.67 41.9295C23.707 41.0993 21.5788 39.077 21.4337 36.9742L21.4337 36.9765ZM55.5529 22.6966C55.8574 22.7772 56.1584 22.8671 56.4486 22.9617C57.296 23.2421 58.113 23.5601 58.8939 23.9133C59.2987 24.0943 59.6946 24.2834 60.0851 24.4772C58.8157 24.6101 57.5873 24.875 56.4468 25.2619L56.4468 25.2619C56.1353 25.3704 55.8503 25.5085 55.6012 25.6717C56.0258 24.7831 56.3662 23.6611 55.5529 22.6943L55.5529 22.6966ZM60.7157 37.9468C60.979 38.0635 61.2227 38.1651 61.4574 38.255C61.0636 38.2406 60.6717 38.2098 60.284 38.1628C59.6927 38.0908 59.1166 37.9732 58.5678 37.8125C58.0068 37.6446 57.4634 37.4527 56.9412 37.2381C57.3005 37.5889 57.7762 37.8826 58.3331 38.0974C58.888 38.3189 59.4809 38.4972 60.0995 38.6287C60.7267 38.7594 61.3768 38.8378 62.0342 38.8622C62.6782 38.8899 63.3249 38.8545 63.9528 38.7571C64.6084 38.7443 65.2319 38.6182 65.9807 38.4629C66.2547 38.4057 66.5503 38.3461 66.8764 38.2819C69.9755 37.6981 70.9966 37.3291 72.5229 36.6928C72.6296 37.0247 72.7061 37.3603 72.7522 37.6981C72.7701 37.8569 72.7844 38.0157 72.7916 38.1745C72.7182 38.2075 72.6519 38.2467 72.5945 38.2912C72.513 38.3574 72.4455 38.4305 72.3939 38.5084C72.3162 38.6279 72.2533 38.7513 72.2058 38.8774C72.1162 39.1039 72.0464 39.3211 71.9514 39.488C71.9305 39.5231 71.9066 39.5574 71.8798 39.5908C71.8678 39.6037 71.8547 39.6162 71.8404 39.6281L71.7687 39.6854C71.6677 39.7613 71.56 39.8335 71.4463 39.9014C71.2034 40.0412 70.946 40.1699 70.6759 40.2867C70.4037 40.4034 70.1045 40.5319 69.8232 40.6451C69.5653 40.7569 69.2741 40.8321 68.9687 40.8658C68.3561 40.9335 67.6126 40.8483 66.9319 40.9943C67.6252 41.0445 68.2522 41.2103 69.0153 41.1951C69.3977 41.1833 69.7721 41.1201 70.1152 41.0094C70.4395 40.9114 70.744 40.8168 71.0629 40.7094C71.3886 40.6012 71.6991 40.4746 71.9908 40.331C72.1432 40.2566 72.288 40.1759 72.4244 40.0894L72.5265 40.0216C72.5703 39.9922 72.6104 39.9606 72.6465 39.9271C72.712 39.8659 72.769 39.801 72.8167 39.7332C72.8328 39.711 72.8436 39.69 72.8579 39.6678C72.9998 39.9891 73.1995 40.2983 73.4526 40.5891C73.6927 40.881 73.956 41.1542 74.2158 41.4251C74.5866 41.8139 74.9646 42.1946 75.2906 42.5799C75.2016 42.7841 75.0915 42.9843 74.961 43.1789C74.8042 43.4055 74.6153 43.622 74.3967 43.8257C74.1791 44.0311 73.9241 44.2185 73.6372 44.3838C73.3323 44.5526 73.0076 44.7057 72.6662 44.8415C73.1045 44.8654 73.5432 44.7988 73.9202 44.6512C74.3023 44.5116 74.6526 44.3379 74.961 44.1351C75.2701 43.9322 75.5435 43.7074 75.7761 43.4649C75.7958 43.4439 75.8101 43.4206 75.8298 43.3995C75.8902 43.5332 75.9157 43.6725 75.9051 43.8117C75.9051 43.8362 75.9051 43.8771 75.889 43.9203L75.8693 44.0429C75.8585 44.1246 75.8442 44.2075 75.8388 44.2892C75.8209 44.4551 75.8137 44.6208 75.8155 44.7878C75.8171 45.1235 75.8645 45.4584 75.9571 45.7885C76.0018 45.9519 76.0627 46.1166 76.1129 46.2625C76.1129 46.2765 76.1218 46.2905 76.1254 46.3034C73.2395 47.1137 63.4781 47.6204 59.7896 47.8108L59.4868 47.8271C59.2324 47.7746 58.9494 47.7244 58.7004 47.6718C57.7671 47.5049 56.832 47.3752 55.8951 47.2678C56.2206 47.0908 56.3672 46.8101 56.2748 46.5404C55.9273 45.2992 54.8005 43.3003 53.8063 41.536C53.2814 40.6019 52.7852 39.7251 52.486 39.0957C51.9486 37.9596 50.9687 36.4102 48.7957 36.0891C47.6779 35.9233 46.5493 36.1498 45.6428 36.332C45.3096 36.3985 44.731 36.5106 43.9768 36.6577C40.0465 37.4179 31.9314 38.993 27.8541 40.087L27.9491 40.0368C27.6236 39.772 27.3598 39.4773 27.1662 39.1623C27.3454 39.1704 27.5245 39.1763 27.7037 39.1763C28.1644 39.1755 28.6241 39.1485 29.0777 39.0957C30.543 38.9264 31.9009 38.5306 33.1639 38.1395C40.5964 35.8416 46.7786 33.0592 51.5348 29.8693C52.5541 29.185 53.6343 28.3922 54.4547 27.4792C53.1416 32.1251 56.6815 36.1195 60.7157 37.9468L60.7157 37.9468ZM66.819 49.3672C66.1704 49.1459 65.4915 48.9645 64.7912 48.8254C64.1068 48.6795 63.4207 48.5557 62.74 48.4366L62.3011 48.3595C67.8742 48.0478 73.8002 47.6193 76.3135 46.9899C76.9262 47.332 77.0784 47.7956 77.2647 48.3677C77.3437 48.6319 77.4429 48.8934 77.5621 49.1512C73.9112 49.8202 70.95 50.0677 68.0354 49.951C67.674 49.7201 67.2645 49.5236 66.819 49.3672L66.819 49.3672ZM28.0709 40.7631C29.7458 40.3054 32.1911 39.7554 34.7439 39.216L37.4847 43.1403L39.7831 44.0265L41.2664 46.4668C40.0339 46.447 38.8014 46.4353 37.5671 46.4376C36.1537 46.4447 34.7277 46.4622 33.291 46.5544C32.3166 46.6209 31.3493 46.7258 30.3943 46.8685C29.6957 45.6764 29.0794 44.5029 27.6194 41.6084C27.4367 41.2465 27.6302 40.8822 28.0709 40.7631L28.0709 40.7631ZM40.6251 43.5572L38.2962 42.6616L35.7435 39.0046C38.9394 38.3414 42.1925 37.7121 44.2616 37.3104C45.023 37.1633 45.6034 37.0501 45.9384 36.9835C46.7678 36.8165 47.7065 36.6332 48.5503 36.75C50.1966 36.994 51.0063 38.3181 51.4702 39.293C51.7802 39.9387 52.28 40.8261 52.8084 41.766C53.7883 43.5034 54.899 45.4744 55.2304 46.6583C55.268 46.7903 54.8936 46.8918 54.1896 47.0331L53.9908 47.0752C51.3431 46.8416 48.6882 46.6922 46.0333 46.5918C44.8241 46.5462 43.6131 46.5124 42.4021 46.4855L40.6251 43.5572ZM19.1676 54.8841C18.9512 54.3806 18.8173 53.8636 18.7681 53.3417C18.6427 52.3107 18.872 51.1595 19.4721 49.8237C19.5581 49.633 19.6471 49.4427 19.739 49.2528C19.954 48.8009 20.1779 48.3338 20.332 47.8516C20.6115 46.9899 20.6652 46.1095 20.7189 45.2572C20.7386 44.9127 20.7601 44.5695 20.796 44.2262C20.9088 43.1438 21.3549 41.3072 22.1377 40.3124C23.2241 41.3589 24.7674 42.1687 26.5679 42.6371L26.8187 42.2097C28.1157 44.7785 28.7158 45.9134 29.3714 47.0366C29.2586 47.0577 29.1457 47.074 29.0347 47.0962C27.6274 47.3703 26.2836 47.7674 25.0398 48.2766C23.7853 48.7955 22.6765 49.4507 21.7615 50.2137C21.3017 50.5989 20.9031 51.0136 20.572 51.4514L20.3374 51.7853L20.1296 52.1274L19.9504 52.4777C19.9038 52.6073 19.8519 52.7369 19.8161 52.8665C19.7091 53.3646 19.7163 53.8702 19.8376 54.3669C19.9379 54.8456 20.0919 55.301 20.2335 55.747C20.2765 55.8825 20.3159 56.0156 20.3553 56.1475C19.8561 56.3904 19.3995 56.6684 18.9938 56.9765C19.0189 56.8504 19.0493 56.7196 19.0798 56.5912C19.2357 55.9478 19.3772 55.3348 19.1676 54.8841L19.1676 54.8841ZM16.0111 62.5495C16.1293 61.6703 16.6954 60.8249 17.2418 60.0088C17.8401 59.1156 19.2321 57.6922 20.547 56.931C20.547 56.973 20.5631 57.0162 20.5685 57.0582C20.5987 57.2647 20.6059 57.4723 20.59 57.6794C20.59 57.7822 20.5541 57.8756 20.5398 57.9736L20.504 58.1721C20.4894 58.2469 20.4846 58.3222 20.4896 58.3975C20.5219 58.9953 20.8855 59.4764 21.2617 59.9014C21.6434 60.3109 22.0715 60.7012 22.5426 61.069C23.4508 61.7964 24.4164 62.4701 25.2691 63.1613C25.6882 63.4873 26.0516 63.842 26.3529 64.2192C26.4164 64.3048 26.4715 64.3929 26.5177 64.4831C26.5679 64.5835 26.6127 64.6874 26.6575 64.7937L26.9172 65.4534C27.0068 65.6869 27.1071 65.9204 27.2343 66.1539C27.3615 66.3874 27.4779 66.5929 27.6105 66.8113C27.8735 67.2558 28.1793 67.689 28.5259 68.1085C28.7732 68.4062 29.0578 68.6902 29.3768 68.9574C26.4102 68.6865 22.8991 68.3292 20.6312 67.4757C18.1304 66.5334 15.7317 64.6454 16.0111 62.5495L16.0111 62.5495ZM26.4246 74.3097C26.0008 73.8602 25.6162 73.3956 25.2727 72.9179C25.5455 72.9302 25.8195 72.9267 26.0914 72.9074C26.6992 72.8593 27.2945 72.7584 27.8613 72.6073C28.4122 72.4659 28.9433 72.2936 29.4485 72.0924C29.9572 71.892 30.4078 71.6347 30.7795 71.3323C30.2173 71.4189 29.6649 71.5304 29.126 71.6662C28.6029 71.7958 28.0798 71.9172 27.555 72.0165C26.5858 72.1916 25.5844 72.2885 24.7406 72.1449C24.0518 71.082 23.4964 69.9843 23.08 68.8628C25.2512 69.2784 27.7036 69.5015 29.8139 69.6918L30.7257 69.7758C30.7562 69.7875 30.7831 69.8039 30.8153 69.8155L31.093 69.9148L31.3097 69.986C31.4475 70.0319 31.5815 70.0826 31.711 70.1378C32.7375 70.5546 33.3448 71.3229 33.7532 72.1519C33.9587 72.5731 34.125 73.002 34.2512 73.4363L34.3068 73.6103C34.3193 73.6488 34.339 73.6862 34.3569 73.727C34.0273 73.8064 33.7031 73.8882 33.3914 73.9687C31.831 74.3716 30.346 74.7534 27.8523 74.7265C27.7251 74.7265 27.5962 74.7265 27.4672 74.7382C27.3088 74.7562 27.1465 74.7523 26.9907 74.7265C26.7721 74.66 26.5912 74.4836 26.4246 74.3097L26.4246 74.3097ZM33.0976 75.8661C32.725 75.8661 32.3541 75.8661 31.9833 75.879C30.468 75.9296 28.9683 76.1033 27.5191 76.3962L27.5191 75.4142L27.5496 75.4142C27.6447 75.4072 27.7405 75.4041 27.8362 75.4049C30.5502 75.4294 32.1893 75.0079 33.7783 74.5981L34.2978 74.465C33.8085 74.8971 33.4052 75.3679 33.0976 75.8661L33.0976 75.8661ZM21.0056 81.5372L21.0342 81.5197L21.0091 81.5022C21.0091 81.4671 21.0091 81.4321 21.0217 81.3982C21.0396 81.3013 21.0718 81.2056 21.0987 81.1098C21.2432 80.599 21.5239 80.1086 21.9281 79.6609C22.8955 78.5901 24.5293 77.8078 26.3081 77.2906C28.1207 76.7784 30.0576 76.4784 32.0299 76.4044C32.5512 76.3834 33.0743 76.3775 33.5956 76.388C34.0596 76.3974 34.5235 76.4184 34.9821 76.4557C35.962 76.5468 36.8864 76.6589 37.9451 76.7208C37.1676 76.2257 36.1018 76.0342 35.0789 75.9537C34.9839 75.9455 34.889 75.9408 34.794 75.9338C34.6006 75.9183 34.4071 75.9054 34.2136 75.8953C34.5072 75.4737 34.8784 75.0769 35.3189 74.7137C35.3762 74.7499 35.4336 74.7849 35.4981 74.8188C35.7949 74.9885 36.1172 75.1383 36.46 75.266L36.5174 75.2846C36.8676 75.408 37.2454 75.4947 37.637 75.5415C38.4108 75.6228 39.2012 75.6069 39.9658 75.4948C40.675 75.396 41.3758 75.2733 42.0654 75.127C42.7443 74.9846 43.4232 74.8398 44.0932 74.6716C45.4474 74.3468 46.7528 73.9415 47.9931 73.4608C48.6155 73.2156 49.2138 72.9454 49.7845 72.6517C50.3586 72.3521 50.8947 72.0229 51.3879 71.6674C51.404 71.6569 51.4183 71.6429 51.4362 71.6312L52.7189 72.6388C53.2472 73.0474 53.705 73.4926 54.0839 73.9664C54.8478 74.9141 55.293 75.9569 55.3899 77.0255L55.4006 77.1423C54.7432 78.4092 53.0216 79.9329 46.4776 80.9359C45.1824 81.1344 44.2921 81.6026 43.4322 82.0544C42.7807 82.4237 42.0624 82.7398 41.2933 82.9955C37.8627 84.0592 33.7496 84.7785 29.7136 85.0202C25.9767 85.2444 24.4415 85.1218 23.802 84.9805C22.4459 84.6757 21.4194 83.9985 21.1883 83.2547L21.1632 83.2547L21.1632 83.2547C20.981 82.6904 20.9279 82.1116 21.0056 81.5372L21.0056 81.5372ZM58.4711 66.9164C57.853 67.1404 57.1897 67.3067 56.5005 67.4103C55.8173 67.515 55.1171 67.5651 54.4153 67.5597C53.7974 67.5536 53.1828 67.4995 52.5845 67.3986C52.3767 67.2643 52.1779 67.1499 52.0166 67.0378C51.8292 66.9212 51.6932 66.7741 51.6225 66.6116C51.4846 66.2999 51.6583 65.8281 51.5992 65.3086C51.5487 64.8061 51.3562 64.3141 51.0313 63.8572C51.0009 63.8129 50.9633 63.772 50.931 63.7288C54.6143 64.2852 58.3806 64.5741 62.1614 64.5905C62.8779 64.5905 63.582 64.5765 64.2699 64.5531C64.1266 64.6862 63.9743 64.8264 63.8095 64.9735C62.6755 65.9928 61.1224 67.2713 60.164 67.7757C59.2056 68.2801 58.1934 68.8266 57.0111 69.0461C55.7678 69.2796 54.2075 69.2866 53.5465 68.92C53.5465 68.8966 53.5465 68.8733 53.5465 68.8499C53.5514 68.6477 53.5091 68.4461 53.4211 68.2521C53.4068 68.2194 53.3853 68.1867 53.3674 68.154C53.7252 68.1705 54.0844 68.1705 54.4422 68.154C54.852 68.1362 55.2596 68.1008 55.6622 68.0478C56.017 68.001 56.3665 67.9386 56.7083 67.861C57.4337 67.6985 58.1205 67.4705 58.7487 67.1838C59.1933 66.9806 59.5831 66.7308 59.9024 66.4447C60.0301 66.3304 60.1416 66.2089 60.2356 66.0815C59.7005 66.4046 59.1081 66.6848 58.4711 66.9164L58.4711 66.9164ZM52.7224 70.5126C52.9769 70.2398 53.1819 69.9487 53.3333 69.6451C53.9275 69.8201 54.575 69.9048 55.2268 69.8926C55.9263 69.8913 56.6223 69.8284 57.2959 69.7058C58.6771 69.4431 59.8128 68.8406 60.816 68.3047C62.2348 67.5527 64.5887 65.4825 65.5937 64.4901C66.3819 64.4434 67.1439 64.3795 67.8796 64.2986C67.5911 64.7656 66.9194 65.3494 66.1204 66.05C64.7356 67.2585 63.0141 68.7624 61.8389 70.8045C60.6638 72.8467 59.1733 74.2863 55.7266 74.7148C55.5263 74.3486 55.2869 73.992 55.0101 73.6476C54.5964 73.1314 54.0972 72.6463 53.5214 72.201L52.1116 71.0941C52.3265 70.9038 52.529 70.7169 52.7224 70.5126L52.7224 70.5126ZM20.7369 84.2904C21.3951 84.9205 22.3552 85.3906 23.467 85.6273C24.0653 85.7616 24.9735 85.8281 26.2114 85.8281C27.1985 85.8281 28.3933 85.7849 29.8085 85.7009C33.9628 85.4522 38.2013 84.7107 41.7429 83.6132C42.5866 83.3349 43.3747 82.9902 44.0897 82.5869C44.9298 82.1455 45.6571 81.7637 46.7194 81.6014C53.1882 80.6101 55.3182 79.077 56.1888 77.7191C56.2528 77.7829 56.3085 77.8501 56.3554 77.9199C56.5317 78.171 56.6187 78.4448 56.6098 78.7209C56.6018 78.9969 56.497 79.2681 56.3035 79.5137C56.2587 79.5744 56.1978 79.6305 56.1458 79.6889C56.0939 79.7472 56.0276 79.7951 55.9524 79.8535C55.7929 79.9702 55.6335 80.094 55.4687 80.2038C54.832 80.6625 54.0855 81.0509 53.2581 81.3539C52.4095 81.645 51.5061 81.8624 50.571 82.0007C50.0933 82.0731 49.6155 82.1342 49.1378 82.184L48.7796 82.2191L48.6004 82.2377L48.3657 82.2658C48.0846 82.3112 47.811 82.3745 47.5489 82.4549C46.6173 82.7523 45.7193 83.0926 44.8617 83.4731C44.0162 83.8339 43.1868 84.2087 42.3538 84.5438C42.146 84.6267 41.9364 84.7072 41.7339 84.7773C41.6283 84.8123 41.5405 84.8415 41.433 84.8707L41.089 84.9629C40.634 85.0879 40.1736 85.2035 39.7079 85.3132C35.9747 86.1921 32.0329 86.6347 28.0637 86.6209C27.0749 86.6209 26.0842 86.5871 25.0989 86.5345C24.6045 86.4995 24.1101 86.4808 23.6407 86.4271C23.1647 86.3784 22.6933 86.3117 22.2291 86.2275C22.0124 86.1881 21.7999 86.1393 21.5931 86.0815C21.4189 86.0305 21.26 85.9597 21.1238 85.8725C20.8515 85.6882 20.6834 85.4489 20.6473 85.1941C20.5999 84.8902 20.6302 84.5832 20.7369 84.2857L20.7369 84.2904ZM56.0383 75.3745C60.1102 74.8363 61.7099 72.9821 62.8206 71.0544C63.9438 69.1045 65.617 67.6438 66.9606 66.4692C68.0354 65.5351 68.8487 64.8193 69.0368 64.1655C69.5545 64.0943 70.0579 64.0137 70.5398 63.9238C70.0615 64.7213 69.0153 65.6962 67.9942 66.6455C67.3941 67.2036 66.7725 67.7816 66.2834 68.3117C65.4307 69.2387 64.8682 70.2616 64.3236 71.2505C64.1875 71.4981 64.0513 71.7456 63.9098 71.992C63.2774 73.0989 62.4426 74.3529 61.0435 75.2519C59.6892 76.1241 57.871 76.5363 56.3339 76.3355C56.2648 76.0101 56.1661 75.6877 56.0383 75.3699L56.0383 75.3745ZM2.94279 92.0071C2.91337 91.7666 2.92298 91.5248 2.97145 91.2856C3.52927 91.8025 4.17003 92.2793 4.88289 92.7077C4.97604 92.7626 5.07277 92.814 5.16593 92.8688C5.23278 93.413 5.50611 93.9378 5.96131 94.3961C6.22206 94.6428 6.54345 94.8597 6.91255 95.0383C5.15876 94.8853 3.22404 94.319 2.94279 92.0071L2.94279 92.0071ZM10.0565 94.8865C8.81084 95.0266 7.55343 94.6838 6.83194 94.0073C6.68468 93.8638 6.56439 93.7094 6.47366 93.5472C7.59664 94.0763 8.80531 94.5234 10.078 94.8806L10.0565 94.8865ZM23.1499 96.1475C23.1499 96.0809 23.1499 96.0167 23.1499 95.9525C23.8664 95.8941 24.583 95.8182 25.2996 95.7248C25.2817 95.8357 25.2673 95.9502 25.2584 96.0669C25.2028 96.7406 25.2225 97.7331 26.0448 98.5749C26.3041 98.8357 26.6294 99.0658 27.0068 99.2557C25.2996 99.1062 23.4204 98.5282 23.1499 96.1475L23.1499 96.1475ZM32.5601 96.0307C32.5601 97.0641 31.9994 98.0157 31.0231 98.6368C30.727 98.829 30.3829 98.9869 30.0056 99.1039C28.7923 99.2388 27.5737 98.8846 26.9172 98.206C26.4138 97.6922 26.2168 97.0244 26.2938 96.1043C26.3081 95.9151 26.3368 95.7388 26.3708 95.5684C27.0444 95.4656 27.7126 95.3547 28.3736 95.2286C28.2393 95.4184 28.1493 95.6203 28.1067 95.8276C27.9276 96.6332 28.4507 97.3536 29.2586 97.4354C30.0665 97.5171 30.8619 96.9298 31.0339 96.1241C31.1503 95.5719 30.9461 95.0604 30.5448 94.7674C31.0822 94.6424 31.6197 94.514 32.1463 94.3774C32.428 94.9107 32.5679 95.4714 32.5601 96.0354L32.5601 96.0307ZM83.4791 74.4603C83.7729 74.3108 84.0619 74.1622 84.3462 74.0143C84.4371 74.2049 84.5609 74.3882 84.7152 74.5607C84.8938 74.7538 85.1127 74.9299 85.3655 75.0838C84.6596 74.9951 84.0061 74.779 83.4791 74.4603L83.4791 74.4603ZM90.9153 72.5547L90.9153 72.5547C90.8648 73.366 90.3215 74.1309 89.4051 74.681C89.0977 74.8557 88.7453 74.9936 88.3643 75.0885C87.2654 75.1684 86.1948 74.8265 85.6181 74.2116C85.4345 74.0032 85.3079 73.7757 85.2437 73.539C85.7811 73.2483 86.3096 72.9552 86.8201 72.6703C86.8595 73.1712 87.2339 73.5764 87.8054 73.6546C88.5435 73.7551 89.3209 73.2728 89.5431 72.5781C89.7115 72.0538 89.5126 71.56 89.0898 71.3042C89.4983 71.0404 89.8864 70.7773 90.2543 70.5149C90.7469 71.0427 90.9834 71.7608 90.9117 72.5548L90.9153 72.5547ZM86.4583 71.9709C83.0546 73.9232 79.0221 75.8603 73.7822 78.0682C68.7341 80.1968 63.4602 82.2097 58.3618 84.1573L44.9907 89.2633C38.9734 91.56 32.7554 93.9337 25.8567 94.9448C27.3669 94.57 28.9146 94.117 30.6254 93.6149C44.645 89.5014 57.8548 84.0896 70.624 78.8563C75.1975 76.9882 79.925 75.0464 84.2172 72.7848C86.8792 71.3836 90.9547 68.9667 93.4752 66.1843C92.257 68.0641 89.9372 69.9778 86.4547 71.971L86.4583 71.9709ZM89.6308 59.2685C90.8275 59.5196 92.9378 60.2493 93.6293 60.9125C94.1309 61.3947 94.4085 62.0439 94.4605 62.8414C93.2065 66.6945 87.1014 70.39 83.5615 72.2535C79.3177 74.4895 74.617 76.4149 70.0704 78.2784C57.3282 83.4988 44.1506 88.8966 30.1973 92.9903C25.2745 94.4346 21.7185 95.4784 16.5826 95.2975L16.5826 95.2975C12.2832 94.9647 8.43883 93.9103 5.60124 92.1975C4.03913 91.254 3.02698 90.2546 2.59526 89.2282C2.0435 87.9287 1.97006 87.2199 3.0037 86.4423C4.07854 85.639 5.37373 85.5771 7.02004 85.4977C7.87746 85.471 8.73006 85.3983 9.56922 85.2805C12.3477 84.8532 17.1737 83.4229 19.9898 82.0743C19.9946 82.481 20.0545 82.8866 20.169 83.2863C19.9817 83.5789 19.8366 83.8822 19.7355 84.1923C19.6135 84.5489 19.5808 84.916 19.6387 85.2794C19.7006 85.6824 19.968 86.0602 20.3983 86.3524C20.6188 86.4977 20.8772 86.6163 21.1614 86.7027C21.4148 86.778 21.6765 86.8409 21.9443 86.8907C22.4473 86.9881 22.9587 87.0661 23.4759 87.1242C23.9972 87.1861 24.5078 87.2106 25.0129 87.248C26.0305 87.304 27.0498 87.3449 28.0709 87.3437C32.1693 87.3653 36.2415 86.9155 40.1002 86.015C40.5821 85.8982 41.0604 85.7814 41.5333 85.6553L41.8916 85.5608C42.017 85.5269 42.1531 85.4837 42.2732 85.444C42.515 85.3623 42.7407 85.2759 42.9611 85.1871C43.8406 84.8368 44.6665 84.4644 45.5049 84.1094C46.3054 83.7481 47.1421 83.422 48.0092 83.1333C48.2017 83.0729 48.4027 83.0248 48.6094 82.9897L48.7437 82.9733L48.9354 82.9535L49.317 82.915C49.8257 82.8613 50.3327 82.7982 50.8397 82.7153C51.8689 82.5592 52.8621 82.3154 53.7937 81.9902C54.7215 81.6473 55.5582 81.2088 56.2712 80.6918C56.4504 80.5669 56.6188 80.4396 56.7872 80.3112C56.8731 80.2435 56.9663 80.1606 57.0505 80.0847C57.1347 80.0088 57.2081 79.9212 57.2744 79.8348C57.5378 79.4921 57.6781 79.1147 57.6847 78.7314C57.6895 78.3499 57.5635 77.9725 57.3156 77.6268C57.1899 77.4541 57.0355 77.2908 56.8552 77.14C56.814 77.1108 56.7728 77.0804 56.7334 77.05C56.857 77.0559 56.9824 77.0594 57.1078 77.0594C58.7201 77.0594 60.4488 76.5818 61.7744 75.7295C63.3168 74.7358 64.2125 73.3943 64.8861 72.2266C65.0276 71.9768 65.1656 71.7269 65.3035 71.4759C65.8302 70.5184 66.3783 69.5283 67.1755 68.6584C67.6449 68.1494 68.2289 67.6076 68.8451 67.0331C70.1099 65.8573 71.4158 64.643 71.7615 63.647C73.1284 63.2839 74.0904 62.804 74.6493 62.1875C74.7102 62.121 74.7657 62.0533 74.8284 61.9855C74.9253 61.8596 75.0456 61.742 75.1867 61.6353C75.4298 61.4933 75.711 61.3817 76.0161 61.306L76.2132 61.2464C77.5522 60.8153 78.7179 60.186 79.6169 59.4086C82.209 58.4442 85.4855 58.401 89.6273 59.2685L89.6308 59.2685ZM81.0052 55.7914C80.4821 57.37 79.3446 58.7337 77.8201 59.6783C77.2111 60.0584 76.514 60.3737 75.7546 60.6124L75.5754 60.6685C75.1456 60.7784 74.753 60.9422 74.42 61.1507C74.2181 61.3012 74.0477 61.4685 73.913 61.6481C73.8647 61.7065 73.8163 61.7649 73.7643 61.8221C73.1947 62.4421 72.084 62.9033 70.3607 63.2326C69.3345 63.4248 68.2895 63.5714 67.2329 63.6716C64.4844 63.9198 61.7027 63.9723 58.9368 63.828C59.1554 63.7568 59.3704 63.6809 59.5782 63.5945C60.021 63.4237 60.4406 63.2283 60.8322 63.0107C61.2352 62.7955 61.5488 62.5176 61.744 62.2027C61.3564 62.3992 60.9534 62.5823 60.5366 62.7515C60.1268 62.9161 59.6966 63.0578 59.2503 63.1753C58.3917 63.405 57.4982 63.5749 56.5847 63.6821C54.5464 63.5202 52.5241 63.2816 50.5281 62.9675C50.6032 62.9477 50.6802 62.9313 50.7519 62.908C51.1393 62.786 51.5051 62.6368 51.8429 62.4631C52.1724 62.2898 52.4726 62.0941 52.7386 61.8793C53.0136 61.6705 53.2137 61.4244 53.3244 61.1589C52.984 61.3247 52.692 61.4917 52.3875 61.6493C52.0879 61.8047 51.7671 61.9419 51.429 62.0591C51.0981 62.1742 50.7522 62.2699 50.3954 62.3452C50.0956 62.4063 49.7898 62.4539 49.48 62.4876C49.2755 62.3631 49.0569 62.2487 48.8261 62.1455C48.6682 62.0729 48.5037 62.0067 48.3335 61.947L48.1221 61.8665C48.0618 61.8452 48.0048 61.8202 47.9519 61.7917C47.5112 61.5827 47.264 61.2383 47.1297 60.832C47.008 60.3987 46.9237 59.9613 46.8771 59.5219C46.8284 59.0487 46.6973 58.5806 46.4866 58.1266C46.2626 57.6677 45.8273 57.2205 45.1967 56.987C45.6063 57.3441 45.8545 57.7688 45.9133 58.213C45.9723 58.6568 45.9896 59.1024 45.9653 59.5476C45.9363 60.0236 45.9801 60.5004 46.096 60.9709C46.1654 61.2298 46.2953 61.4803 46.4812 61.7135C46.6052 61.866 46.76 62.007 46.9416 62.1327C47.1612 62.3943 47.3458 62.6677 47.4933 62.95C47.6537 63.2565 47.7736 63.5713 47.8516 63.8911C47.931 64.2137 47.9587 64.5408 47.934 64.8672C47.9032 65.2028 47.8464 65.5372 47.7638 65.869C48.0988 65.5886 48.3255 65.2598 48.4249 64.9104C48.6414 64.2162 48.6311 63.5001 48.3944 62.8087C48.5893 62.904 48.7737 63.0082 48.9462 63.1205C49.3948 63.4184 49.7587 63.7659 50.021 64.1468C50.2867 64.5242 50.4428 64.9303 50.4814 65.3448C50.4957 65.5597 50.4873 65.7751 50.4563 65.9893C50.4177 66.2543 50.4406 66.5216 50.5244 66.7821C50.5244 66.7903 50.5333 66.7984 50.5369 66.8066C50.4988 67.1835 50.4064 67.5572 50.261 67.9228C50.0944 68.2977 49.738 68.6701 49.3761 69.0309C49.01 69.3918 48.5827 69.7247 48.1024 70.0234C47.6055 70.3238 47.0717 70.5972 46.5063 70.8407C47.2051 70.7581 47.8643 70.5693 48.4302 70.2896C49.0005 70.0096 49.5203 69.6884 49.9798 69.3322C50.4668 68.9752 50.8646 68.5706 51.1585 68.133C51.2491 67.9789 51.321 67.8204 51.3735 67.659C51.5795 67.7921 51.7766 67.9065 51.9324 68.0198C52.1187 68.1455 52.2563 68.2984 52.3337 68.4658C52.4073 68.639 52.4274 68.8199 52.3928 68.9982C52.3698 69.1091 52.3345 69.2188 52.2871 69.3263C52.0059 69.979 51.2947 70.6107 50.5333 71.1595C50.0795 71.4825 49.5871 71.7815 49.0608 72.0539C48.5268 72.3252 47.9667 72.5741 47.384 72.7988C46.2025 73.2523 44.9586 73.6331 43.6687 73.9361C43.0256 74.096 42.3663 74.235 41.6981 74.3704C41.0506 74.5054 40.3929 74.6188 39.7276 74.7102C39.1329 74.7958 38.5193 74.8109 37.9165 74.7545L37.8645 74.7545C37.5853 74.7209 37.3165 74.6574 37.0691 74.5665C36.802 74.466 36.5506 74.3487 36.3185 74.2163C36.0991 74.0924 35.9084 73.9485 35.7524 73.7889C35.6832 73.7154 35.6268 73.6371 35.584 73.5554C35.5645 73.5171 35.5484 73.4781 35.5357 73.4386L35.4855 73.2763C35.4425 73.1257 35.387 72.9763 35.3368 72.8268C35.4748 72.8268 35.6145 72.821 35.7524 72.8128C36.0838 72.7941 36.4117 72.7754 36.7359 72.7357C37.0602 72.696 37.3826 72.6528 37.6997 72.5991C38.0263 72.5493 38.3361 72.4607 38.6133 72.3376C38.2923 72.2942 37.9648 72.2743 37.637 72.278C37.3199 72.278 37.0064 72.2687 36.6929 72.2582C36.3794 72.2477 36.0713 72.2348 35.7614 72.2126L35.0753 72.1578C35.0377 72.069 35.0036 71.9803 34.9624 71.8916C34.7448 71.4202 34.4391 70.9681 34.0524 70.5453C33.6453 70.096 33.0858 69.7134 32.4168 69.4267C32.2502 69.3543 32.08 69.2913 31.9099 69.2317L31.6555 69.1477L31.4763 69.0799C31.2235 68.9811 30.9926 68.8601 30.7902 68.7203C30.3498 68.4147 29.9771 68.0704 29.6831 67.6975C29.3653 67.3088 29.0865 66.9071 28.8484 66.4949C28.7229 66.2882 28.6083 66.0757 28.4901 65.8632C28.4578 65.8048 28.4309 65.7464 28.4023 65.6822C28.3008 65.1965 28.2267 64.708 28.1802 64.2169C28.1318 63.7148 28.1318 63.2104 28.1461 62.699C28.1604 62.1875 28.2375 61.6785 28.2267 61.153C28.216 60.6276 28.087 60.0823 27.6624 59.6352C27.7954 60.1329 27.8189 60.6405 27.7323 61.1425C27.666 61.6434 27.5173 62.1443 27.4188 62.6604C27.3615 62.9418 27.3256 63.2232 27.3006 63.5069C27.0099 63.1931 26.6874 62.8924 26.335 62.6067C25.4393 61.8676 24.4773 61.1974 23.6156 60.505C23.1918 60.1676 22.8028 59.8123 22.4512 59.4413C22.1216 59.0817 21.8744 58.6987 21.8636 58.3741C21.8573 58.3353 21.8573 58.2962 21.8636 58.2574L21.8887 58.1137C21.9201 57.9853 21.9411 57.8559 21.9514 57.7261C21.9719 57.4754 21.9635 57.224 21.9263 56.9742C21.8473 56.5031 21.7277 56.0353 21.5681 55.573C21.2814 54.6775 20.9626 53.7959 21.1507 53.0148C21.1757 52.919 21.2152 52.8268 21.2456 52.7322L21.3961 52.4298L21.5752 52.1332L21.7794 51.8413C22.0697 51.4562 22.419 51.0912 22.822 50.752C23.6407 50.0664 24.6338 49.4776 25.7582 49.0111C26.8976 48.5421 28.1294 48.176 29.4198 47.9228C30.7288 47.6681 32.0717 47.4945 33.4308 47.4044C34.7922 47.3099 36.1806 47.2877 37.5797 47.2737C40.3725 47.255 43.176 47.3005 45.9724 47.3904C48.7688 47.4803 51.5634 47.6239 54.3204 47.8715C55.6903 47.9838 57.0475 48.1542 58.3833 48.3817C58.7129 48.4471 59.0175 48.4985 59.3704 48.5755C59.7233 48.6526 60.0583 48.7157 60.4022 48.7787C61.0883 48.9036 61.7727 49.0122 62.4498 49.129C63.8005 49.3625 65.1369 49.6054 66.3407 49.9697C66.9306 50.133 67.473 50.3613 67.944 50.6445C68.4044 50.9236 68.6696 51.3194 68.7788 51.79C68.9075 51.5605 68.954 51.3149 68.915 51.0719C68.8938 50.9282 68.84 50.7873 68.7556 50.6539C68.9777 50.6586 69.1998 50.6609 69.422 50.6609C72.0661 50.6609 74.8177 50.3702 78.096 49.7572C79.8856 50.8921 81.6089 53.9582 81.0016 55.7914L81.0052 55.7914ZM87.2554 38.7232C87.2554 40.1582 86.6428 41.6084 85.4121 43.0341C84.434 44.1655 80.9765 47.269 78.4632 48.7227C78.3969 48.5569 78.3414 48.3899 78.2841 48.2264C78.087 47.6193 77.8828 46.9934 77.0569 46.5089C77.062 46.4907 77.0655 46.4724 77.0677 46.454C77.0717 46.3463 77.0536 46.2387 77.0139 46.1341C76.9584 45.9694 76.9065 45.8258 76.8671 45.6775C76.7858 45.3824 76.7457 45.083 76.747 44.7831C76.747 44.6325 76.747 44.4807 76.7721 44.3289C76.7721 44.253 76.7918 44.1772 76.8008 44.0954L76.8205 43.9787C76.8205 43.9425 76.8348 43.9039 76.8402 43.8491C76.8583 43.4811 76.7436 43.1156 76.5052 42.7818C76.0896 42.156 75.5378 41.6213 75.0273 41.083C74.7729 40.8156 74.5203 40.5494 74.3 40.2808C74.079 40.0274 73.9052 39.7578 73.7822 39.4775C73.7308 39.3568 73.7102 39.2313 73.7213 39.1062C73.7321 38.9463 73.7607 38.7793 73.7625 38.6158C73.7763 38.2863 73.7632 37.9566 73.7231 37.628C73.6683 37.232 73.5762 36.8386 73.4473 36.4499C73.9417 36.2164 74.4194 35.9704 74.8804 35.712C75.1312 35.6127 75.3963 35.5088 75.6829 35.4002C77.9007 34.5537 80.3406 33.4632 81.6609 31.797C81.9732 31.3856 82.2338 30.9584 82.4401 30.5196C85.0663 33.3931 87.2411 35.9875 87.2518 38.7232L87.2554 38.7232ZM76.9781 8.67713C76.882 8.34481 76.8222 8.00847 76.799 7.67064C76.7764 7.51708 76.7872 7.36219 76.8312 7.21061C76.8781 7.06065 76.9552 6.91539 77.0605 6.77859C77.2647 6.50654 77.589 6.2952 77.9795 6.25317C78.0797 6.23999 78.1821 6.23567 78.2841 6.24032C78.3817 6.24664 78.4782 6.25876 78.5725 6.27652C78.748 6.33221 78.8921 6.42249 78.9845 6.53456C79.2144 6.82517 79.3722 7.13768 79.452 7.46048C79.4789 7.54454 79.5022 7.62744 79.5488 7.73253C79.5925 7.82652 79.647 7.91824 79.7118 8.00692C79.8359 8.17801 79.9847 8.34104 80.1561 8.49381C80.327 8.65038 80.5268 8.79272 80.7508 8.91765C80.8786 8.98939 81.0231 9.04734 81.179 9.08929L81.3259 9.11848C81.3851 9.12441 81.4451 9.12676 81.505 9.12549C81.5719 9.1238 81.6377 9.11348 81.6985 9.09513C81.7621 9.08123 81.8194 9.05714 81.8651 9.02507C81.9335 8.98474 81.9938 8.93882 82.0442 8.88846C82.0854 8.84993 82.1248 8.81257 82.1625 8.7717C82.2413 8.69347 82.3111 8.61407 82.3792 8.53818C82.5127 8.37725 82.6324 8.21159 82.7375 8.04195C83.1531 7.3659 83.3717 6.67 83.6816 6.00914C83.9815 5.34384 84.3404 4.69043 84.7564 4.05222C85.1604 3.41737 85.6508 2.80739 86.2218 2.22958C86.2916 2.15719 86.3651 2.08713 86.4403 2.01708L86.5532 1.91199L86.6069 1.86178L86.6446 1.83143C86.7829 1.74263 86.9577 1.6818 87.1479 1.65628C87.3048 1.62606 87.4738 1.63914 87.6155 1.69248C87.6782 1.70999 87.7427 1.85128 87.7445 2.0054C87.7274 2.34236 87.6717 2.67801 87.5779 3.00955C87.4991 3.35282 87.4095 3.69727 87.3163 4.04171C87.1372 4.73177 86.9312 5.42066 86.7287 6.11072L86.5818 6.6303L86.5102 6.88835L86.4762 7.01912L86.46 7.08451L86.4511 7.1172C86.4423 7.14611 86.4423 7.17586 86.4511 7.20477C86.477 7.28312 86.5808 7.34021 86.7037 7.34372C86.8107 7.34538 86.9097 7.30676 86.9581 7.24447L87.0064 7.18609L87.0996 7.06933L87.2787 6.83581L87.6621 6.37577C88.1744 5.76277 88.7369 5.16496 89.3191 4.58465C89.8944 4.00684 90.5402 3.46018 91.2503 2.94998C91.5621 2.72147 91.9775 2.56362 92.4362 2.4993C92.6125 2.47158 92.7985 2.49136 92.9521 2.55418C93.0917 2.62333 93.1801 2.7276 93.1957 2.84141C93.2055 2.90047 93.1989 2.9602 93.176 3.01772L93.0542 3.25124C92.97 3.41471 92.8751 3.57584 92.7819 3.73813C92.5938 4.0604 92.3932 4.38032 92.1711 4.69558C91.7286 5.32609 91.218 5.93908 90.7182 6.56375C90.4692 6.87667 90.2292 7.19543 90.0106 7.52119L89.93 7.63795L89.8906 7.69867L89.8709 7.72903C89.8468 7.76581 89.8381 7.80611 89.8458 7.84579C89.8638 7.93126 89.9619 8.00028 90.0912 8.01859C90.2046 8.03498 90.3228 8.0115 90.4029 7.95671L90.5445 7.8633C90.7236 7.73837 90.9207 7.61694 91.1105 7.4955C91.8779 7.01173 92.6885 6.55791 93.5379 6.13639C94.3824 5.71504 95.2628 5.32521 96.1749 4.96878C96.3988 4.88239 96.6388 4.79482 96.8574 4.71893C96.9666 4.68982 97.0922 4.70958 97.1691 4.76797C97.2172 4.79744 97.252 4.83502 97.2694 4.87655C97.2741 4.89707 97.2741 4.91792 97.2694 4.93844C97.2681 4.97286 97.2633 5.00718 97.2551 5.04119C97.217 5.18991 97.1445 5.334 97.0401 5.46853C96.9293 5.61333 96.8023 5.75265 96.6603 5.88537C96.5349 6.02782 96.3773 6.15976 96.1981 6.30454L95.1985 7.12187L93.1886 8.7717L93.0614 8.87445L93.0453 8.8873C93.0173 8.9102 92.9949 8.93581 92.979 8.96319C92.9379 9.03289 92.9439 9.11063 92.9954 9.17732C93.0469 9.244 93.1391 9.29344 93.2495 9.31347C93.349 9.33079 93.4548 9.32373 93.5468 9.29362L93.9051 9.17686L94.6217 8.95735C95.1078 8.81413 95.598 8.67829 96.0924 8.54986C96.5815 8.42376 97.0956 8.29415 97.5775 8.19023C98.0594 8.08632 98.5395 8.05596 98.8673 8.17272C99.0218 8.21993 99.1433 8.3033 99.2077 8.40624C99.2408 8.4999 99.1982 8.59808 99.0949 8.66662C98.9427 8.78252 98.7673 8.88462 98.5736 8.9702C98.364 9.07411 98.149 9.17453 97.9322 9.27494C97.0616 9.6731 96.1408 10.0479 95.2684 10.4787C94.3499 10.9046 93.5471 11.4275 92.893 12.0258C92.2427 12.654 91.9149 13.3406 91.3649 13.88C90.815 14.4194 90.0626 14.8456 89.14 14.9787C88.6337 15.0395 88.1211 15.0755 87.6065 15.0861C87.2838 15.0978 86.9659 15.1424 86.6643 15.2181C86.4596 15.2746 86.2762 15.3595 86.1268 15.4668C84.5146 14.904 81.1933 13.7656 79.4252 13.1631C79.5625 12.9674 79.6496 12.7583 79.6831 12.5443L79.7046 12.3995L79.5542 12.2885C78.2106 11.3031 77.3597 10.0035 76.9781 8.67713L76.9781 8.67713ZM73.2 17.2509C73.9435 15.6723 74.4791 14.5315 75.837 13.6908C76.2042 13.4573 76.6951 13.434 77.091 13.434L77.297 13.434C77.3812 13.434 77.4564 13.434 77.5191 13.434C77.8079 13.4315 78.0929 13.4773 78.3467 13.5671C80.9622 14.4545 86.1716 16.2526 86.4511 16.3577C88.0508 17.0851 88.3446 17.6817 87.5743 18.6415C87.4131 18.8412 87.2518 19.0607 87.0924 19.2884C86.8426 19.102 86.5726 18.9276 86.2845 18.7664C85.7686 18.4789 85.2071 18.228 84.6095 18.018C84.0219 17.8117 83.4111 17.6349 82.7823 17.4891C82.1609 17.3387 81.5114 17.2433 80.8511 17.2054C81.4315 17.4167 82.0155 17.5953 82.587 17.7892C83.1563 17.9744 83.7036 18.1871 84.2243 18.4255C84.7371 18.6582 85.2167 18.9204 85.6575 19.209C86.0159 19.4486 86.3403 19.7089 86.6266 19.9866C86.1842 20.6813 85.7506 21.452 85.335 22.2389C85.2403 22.0981 85.12 21.9653 84.9768 21.8431C84.7532 21.6548 84.4958 21.4847 84.21 21.3364C83.9387 21.1844 83.6273 21.0657 83.291 20.9861C83.4476 21.1876 83.6355 21.3782 83.8517 21.5547C84.0462 21.7209 84.2136 21.8997 84.3515 22.0883C84.4753 22.2667 84.5557 22.4566 84.5898 22.6511C84.6252 22.878 84.6814 23.1034 84.7582 23.326L84.769 23.326C84.1563 24.5578 83.6081 25.7604 83.1818 26.698C82.8235 27.478 82.5458 28.0992 82.4007 28.3455C82.1571 28.7647 81.9618 29.1979 81.7719 29.6171C81.471 30.2803 81.1879 30.9014 80.7311 31.4852C79.5398 32.9961 77.245 34.0143 75.1563 34.8118C73.9614 35.2683 73.1033 35.6291 72.4136 35.921C70.6455 36.6671 69.8376 37.0069 66.588 37.6199C66.2494 37.6829 65.9448 37.7471 65.6618 37.8055C64.0119 38.1488 63.333 38.2912 61.3123 37.3805C57.3604 35.5952 53.9137 31.5623 55.6854 26.9245C55.8536 26.4714 56.3096 26.0864 56.9394 25.8655L56.9394 25.8655C59.125 25.1159 61.1922 25.0412 63.1932 24.9676C64.2681 24.9291 65.282 24.8894 66.2386 24.7423C67.3017 24.6857 68.3711 24.7793 69.3736 25.0167C69.6112 25.0788 69.8382 25.1571 70.0508 25.2502C70.2765 25.3483 70.4968 25.4545 70.71 25.5666C71.1387 25.7975 71.5455 26.0451 71.9281 26.308C72.7072 26.8456 73.4335 27.4146 74.1029 28.0116C74.7836 28.6059 75.4071 29.2271 76.0735 29.8459C75.6654 29.1404 75.1455 28.4646 74.5221 27.8294C73.9034 27.1886 73.2237 26.5736 72.4871 25.9881C72.1106 25.6903 71.7017 25.4105 71.2635 25.151C71.0414 25.0213 70.8103 24.8952 70.5667 24.7785C70.314 24.6531 70.0413 24.5458 69.7534 24.4585C69.21 24.2997 68.6355 24.1909 68.0462 24.1351C69.207 23.2372 71.2169 20.9172 71.4086 20.6136C72.2291 19.3164 72.745 18.22 73.2 17.2509L73.2 17.2509ZM68.6982 15.4785L71.4767 18.5224C71.1847 19.0887 70.8497 19.6959 70.4341 20.3532C70.0758 20.9289 67.5374 23.6225 67.0448 23.8561C65.9377 24.1877 64.6371 24.2355 63.1323 24.2904C62.6092 24.3091 62.0664 24.3289 61.5093 24.3628C60.8536 24.0125 60.1819 23.6763 59.4832 23.361C59.1393 23.2053 58.7882 23.0562 58.4299 22.9138L58.6538 22.6803C61.2191 19.9247 64.3988 16.5188 67.9691 14.974C68.2647 15.1063 68.5133 15.2783 68.6982 15.4785L68.6982 15.4785ZM66.7366 14.6973C63.2506 16.4266 60.2302 19.6655 57.7635 22.3137L57.5324 22.5624C57.3299 22.49 57.1275 22.4187 56.9215 22.351C56.253 22.1292 55.5536 21.9493 54.8327 21.8139C54.8614 21.745 54.8918 21.6785 54.9187 21.6096C55.5127 20.0421 55.7201 18.423 55.5332 16.813C55.5099 16.5982 55.4794 16.3822 55.4454 16.1685C59.2593 14.8526 63.3204 14.326 66.7366 14.6973L66.7366 14.6973ZM25.3963 0.871651C25.4984 0.86231 25.6005 0.851802 25.7044 0.843629C28.0613 0.643253 30.4471 0.634231 32.8074 0.816774C35.1593 0.99291 37.4535 1.41146 39.604 2.05677C41.751 2.70956 43.7344 3.57007 45.487 4.60917C49.0118 6.70223 51.6379 9.35843 53.1058 12.3154C53.8365 13.7878 54.2907 15.3126 54.4583 16.8563C54.617 18.3942 54.4171 19.939 53.8654 21.4379C53.2935 22.9345 52.3669 24.3637 51.1191 25.674C49.8652 26.9899 48.3693 28.1961 46.8198 29.4209C48.8415 28.5079 50.5718 27.3476 51.9145 26.0045C52.9356 25 53.7651 23.9182 54.3849 22.783C55.4149 23.6576 54.9635 24.8077 54.3383 26.0103C53.645 27.3425 52.1438 28.4623 50.7662 29.3905C46.096 32.5221 40.0178 35.2566 32.6981 37.5194C31.4996 37.8907 30.2152 38.2655 28.8788 38.4208C27.469 38.582 26.1612 38.4617 25.1957 38.0811C24.5394 37.8223 24.0436 37.4214 23.7948 36.9485C29.6079 36.193 41.6372 32.3714 45.7288 29.0659C46.1758 28.6939 46.3781 28.2215 46.2913 27.7524C45.8972 25.3308 45.3956 23.124 44.5196 21.1052C45.8685 21.7719 47.3679 22.1467 48.8082 22.1467C49.5164 22.1489 50.2173 22.0534 50.8648 21.8665C54.2219 20.8938 55.2931 17.6631 53.2509 14.6716C51.2087 11.6802 46.8162 10.0304 43.4573 11.003C41.2395 11.6452 40.0214 13.2717 40.0375 15.1644C38.4303 13.8556 36.5327 12.7104 34.4071 11.7666C34.2258 11.6834 34.0069 11.6423 33.7855 11.6499C28.834 11.8378 22.8579 12.8315 17.2705 14.5689C15.1853 11.8052 14.8163 9.35084 16.0308 6.461C17.1272 3.84322 21.0611 1.49866 25.3963 0.871651L25.3963 0.871651ZM31.0894 18.1523C29.1314 18.2539 27.4582 17.6292 27.3525 16.7582C27.2468 15.8871 28.7462 15.0978 30.7042 14.9962C32.6623 14.8947 34.3354 15.5182 34.4411 16.3904C34.5468 17.2626 33.0474 18.0449 31.0894 18.1464L31.0894 18.1523ZM35.6342 18.4687C36.3619 18.4312 36.9989 18.7847 37.0581 19.2589C37.1173 19.7331 36.5764 20.1491 35.849 20.1887C35.1216 20.2284 34.4822 19.8768 34.4196 19.4028C34.3869 19.1728 34.497 18.9439 34.7253 18.7672C34.9535 18.5906 35.2809 18.4809 35.6342 18.4629L35.6342 18.4687ZM51.6297 20.7059C51.0774 20.8862 50.4371 20.9143 49.8526 20.7841C49.136 20.644 48.5019 20.3427 48.0307 20.0964C45.2054 18.6086 43.3685 16.4683 42.9019 14.1205C42.6655 12.9039 43.0148 12.0644 43.9356 11.6195C44.442 11.4792 44.9868 11.4073 45.5371 11.4082C48.0451 11.4082 50.8164 12.7976 52.2889 14.9542C53.8062 17.1762 53.4569 19.5196 51.6297 20.7L51.6297 20.7059ZM41.8611 14.2058C42.3629 16.7291 44.3378 19.0292 47.3751 20.6276C48.0049 20.9795 48.7304 21.2512 49.514 21.4286C46.8269 21.738 43.6436 20.2972 42.0277 17.9258C40.7845 16.1043 40.7899 14.2011 41.8307 12.9226C41.7643 13.3477 41.7745 13.7764 41.8611 14.1999L41.8611 14.2058ZM6.83194 7.90767C7.03496 7.74031 7.24157 7.57529 7.45176 7.41261C10.5115 5.04236 14.4096 3.1193 18.8218 1.97621C19.3216 1.84427 19.8286 1.72634 20.3392 1.61659C17.7774 2.7842 15.7764 4.46906 15.0169 6.27769C13.745 9.30063 14.1481 11.9733 16.3264 14.8678C12.912 15.9875 9.67311 17.3875 6.93046 19.0537C4.46549 15.886 3.65935 11.1455 6.83194 7.90767L6.83194 7.90767ZM1.33948 15.6548C1.72808 14.1314 2.4635 12.6545 3.52141 11.2727C3.70056 11.0299 3.90119 10.7905 4.10183 10.5535C3.10402 13.6126 4.13408 17.0722 6.14225 19.5441C4.65134 20.5061 3.33388 21.5759 2.21548 22.7328C1.81742 21.9236 1.51792 21.0951 1.31977 20.2551C0.957276 18.7305 0.963925 17.1781 1.33948 15.6548L1.33948 15.6548Z" id="Shape" fill="#FFFFFF" fill-rule="evenodd" stroke="none" />
          <path d="M47.9573 43.5151C49.5785 43.1018 50.2342 41.6621 49.4191 40.3077C48.604 38.9533 46.6227 38.1873 45.0051 38.6006C43.3874 39.014 42.7282 40.4536 43.5433 41.8081C43.8953 42.4214 44.5394 42.9451 45.3813 43.3026C45.8703 43.5098 46.439 43.6231 47.0222 43.6295C47.3422 43.6301 47.6594 43.5913 47.9573 43.5151L47.9573 43.5151ZM45.9348 42.7223C45.2839 42.4416 44.7879 42.0324 44.5196 41.5547C43.9159 40.5517 44.3046 39.5102 45.3866 39.2335C45.5648 39.1884 45.7544 39.1654 45.9455 39.1658C46.9039 39.1658 47.9394 39.7169 48.4428 40.5541C49.0465 41.557 48.6559 42.5985 47.5757 42.8753C47.0777 43.0049 46.4955 42.95 45.9348 42.7223L45.9348 42.7223Z" id="Shape" fill="#FFFFFF" fill-rule="evenodd" stroke="none" />
          <path d="M47.8086 40.8261C47.4396 40.2131 46.5725 39.8605 45.8703 40.0403C45.1681 40.2201 44.8958 40.8576 45.2648 41.4753C45.6338 42.093 46.5009 42.4398 47.2049 42.2611C47.9089 42.0825 48.1776 41.4391 47.8086 40.8261L47.8086 40.8261Z" id="Shape" fill="#FFFFFF" fill-rule="evenodd" stroke="none" />
        </g>
      </g>
    </g>
  </g>
</svg>