<?xml version="1.0" encoding="utf-8"?>
<svg width="100px" height="100px" viewBox="0 0 100 100" version="1.1" xmlns:xlink="http://www.w3.org/1999/xlink" xmlns="http://www.w3.org/2000/svg">
  <defs>
    <path d="M0 0L100 0L100 100L0 100L0 0Z" id="path_1" />
    <clipPath id="mask_1">
      <use xlink:href="#path_1" />
    </clipPath>
  </defs>
  <g id="Asset-2">
    <path d="M0 0L100 0L100 100L0 100L0 0Z" id="Background" fill="#FFFFFF" fill-opacity="0" fill-rule="evenodd" stroke="none" />
    <g clip-path="url(#mask_1)">
      <g id="Layer_2" transform="translate(0.012889731 -0.00032983514)">
        <g id="Layer_1-2">
          <path d="M12.6947 85.8435C13.3995 86.4647 14.2928 86.9184 15.2818 87.1576C15.7972 87.2767 16.3364 87.309 16.8672 87.2524C17.1461 87.2232 17.418 87.1592 17.6738 87.0628C17.9079 86.9735 18.1342 86.8707 18.3509 86.7552C18.7069 86.5473 19.0876 86.3698 19.4871 86.2255C19.952 86.0927 20.4042 85.931 20.8396 85.7419C21.6997 85.3561 22.502 84.8883 23.23 84.3479C24.4973 83.4321 25.5794 82.3985 26.8155 81.5856C27.1118 81.735 27.4375 81.84 27.7779 81.8959C28.2309 81.9717 28.7012 81.9296 29.1239 81.7753L30.0633 81.3689C31.27 80.8541 32.5226 80.4097 33.785 79.9708C35.2605 79.4574 36.7819 78.99 38.2935 78.4955C36.5885 81.2903 35.1113 82.5935 34.1948 83.4009C33.8194 83.7301 33.4915 84.0187 33.3177 84.314C33.1066 84.2063 32.8876 84.1095 32.6619 84.0241C31.7446 83.6788 30.7751 83.4373 29.7797 83.3061C28.774 83.1652 27.7478 83.1556 26.7385 83.2777C26.227 83.3426 25.7238 83.446 25.2351 83.5865C24.74 83.7362 24.2688 83.935 23.8317 84.1786C22.9443 84.667 22.2342 85.3455 21.7774 86.1415C21.364 86.8647 21.2061 87.6695 21.3216 88.4635C20.9927 88.6885 20.7575 88.9932 20.6495 89.3346C20.5261 89.725 20.516 90.1339 20.6199 90.5281C20.714 90.9187 20.908 91.2883 21.1889 91.6119C21.4633 91.9113 21.7847 92.1792 22.1447 92.4085C22.8325 92.8314 23.5754 93.1895 24.3596 93.476L26.5926 94.3417L35.5163 97.7935L37.7459 98.6565C38.4903 98.9396 39.2215 99.2417 40.0199 99.5004C40.8269 99.7828 41.6851 99.9522 42.5595 100.002C43.4448 100.027 44.4203 99.9136 45.2138 99.3568C45.6269 99.048 45.804 98.6686 45.9778 98.3787C46.0522 98.2437 46.1393 98.1137 46.2384 97.9899C46.3106 97.9005 46.4794 97.7542 46.6106 97.6079C47.1386 97.0279 47.5383 96.3752 47.791 95.6801C48.2419 94.5097 48.3763 93.3216 48.7878 92.2662L48.8518 92.2662C49.1618 92.2705 49.4704 92.2297 49.7633 92.1457C50.1069 92.0496 50.4051 91.8667 50.6158 91.6227L50.7372 91.4642L50.8273 91.341C50.8864 91.257 50.9552 91.177 51.0175 91.0944C51.1487 90.9332 51.2864 90.772 51.4274 90.6135C52.575 89.3455 53.9768 88.1574 55.0949 86.7485C56.0917 85.537 56.7739 84.1679 57.0984 82.7277C57.1754 82.7277 57.2541 82.7358 57.3312 82.7385C58.1329 82.9512 58.9395 83.1449 59.7543 83.3305C60.7577 83.55 61.7643 83.7478 62.7988 83.8995C63.0611 83.9347 63.3153 83.9726 63.6022 83.993C63.8634 84.0101 64.1241 84.025 64.3842 84.0377C64.9055 84.0603 65.4285 84.0697 65.9532 84.0661C67.0063 84.0616 68.0573 83.9873 69.096 83.844C70.1589 83.7052 71.1906 83.4358 72.157 83.0447C72.6589 82.8372 73.1199 82.5682 73.5243 82.2467C73.8997 81.9365 74.2522 81.6249 74.6014 81.2984C75.3022 80.6495 75.9408 79.9565 76.5114 79.2257C77.0967 78.4856 77.5635 77.686 77.9001 76.8468C78.2003 76.0195 78.4477 75.1798 78.6411 74.331C78.6657 74.2268 78.6854 74.1211 78.71 74.0154C81.3544 73.88 85.3187 72.6323 88.2976 71.558C90.5568 70.7451 92.3652 69.5977 93.6735 68.1536C96.1327 65.4509 96.7606 61.9408 97.2803 57.9647C97.7377 54.5143 98.2034 51.0123 98.669 47.5103C99.1018 44.259 99.5346 40.9996 99.9609 37.7848C100.07 37.0975 99.8292 36.4036 99.2969 35.8679C96.7377 33.4294 94.3948 32.2101 91.152 31.6859C91.6946 30.9808 92.1942 30.2538 92.6488 29.5074C94.6783 26.1603 95.6158 22.4336 95.3687 18.6955C95.243 16.8273 94.7754 14.9856 93.9817 13.2332C93.1786 11.4794 92.043 9.84236 90.6175 8.38333C89.2057 6.93093 87.5811 5.62902 85.781 4.50749C85.6941 4.45194 85.604 4.39911 85.5171 4.34492L85.5171 4.34492L85.5007 4.33814C83.7946 3.2705 81.9336 2.38349 79.9609 1.6978C75.7999 0.248244 71.1995 -0.242165 66.7287 0.108707C66.4008 0.134447 66.0729 0.165606 65.7532 0.199474L65.7532 0.199474C63.8419 0.388131 61.9601 0.743702 60.1396 1.26022C57.9997 1.86777 55.9812 2.73527 54.1506 3.83419C52.3241 4.94296 50.7197 6.28194 49.3961 7.80216C48.2317 9.15001 47.2699 10.6098 46.5319 12.1495C44.2458 15.091 42.9571 18.4858 42.8005 21.9793L42.6611 21.9549C41.9021 21.8506 41.1351 21.7917 40.3658 21.7788C39.5987 21.7742 38.832 21.8104 38.0706 21.8872C36.8177 22.0232 35.5836 22.2582 34.385 22.5889C33.7951 22.5205 33.1974 22.51 32.6045 22.5578C31.7314 22.6229 30.8741 22.7907 30.0584 23.0563C28.437 23.5833 26.9631 24.5167 26.0712 25.7969C25.6158 26.44 25.3527 27.1636 25.3039 27.9076C25.2925 28.4057 25.3989 28.9008 25.6171 29.3652C25.4486 29.7152 25.3014 30.072 25.1761 30.4341C24.6668 30.0323 24.1185 29.6657 23.5366 29.3381C22.7157 28.8715 21.8362 28.4795 20.9134 28.169C19.5258 27.7032 18.0611 27.4128 16.5688 27.3074C16.077 27.2681 15.5736 27.2763 15.0769 27.26C13.5268 27.2782 11.9871 27.4724 10.5011 27.8371C9.01269 28.2127 7.59343 28.7546 6.28272 29.4479C4.95951 30.1577 3.78549 31.0413 2.80701 32.0638C1.82687 33.1061 1.10285 34.2966 0.675688 35.5685C-0.133372 38.1126 0.0619232 40.8038 1.23311 43.2498C2.38075 45.6734 4.29894 47.7718 6.56142 49.4896C8.8239 51.2074 11.4635 52.5635 14.1752 53.6703C15.5359 54.223 16.9213 54.7215 18.3148 55.1876C19.7084 55.6536 21.1397 56.0952 22.566 56.4705C25.422 57.2305 28.2878 57.9241 31.1782 58.5757C31.9028 58.7369 32.6259 58.8941 33.3702 59.0377C33.5538 59.0743 33.7423 59.1095 33.9456 59.1393C34.0711 59.1634 34.199 59.1784 34.3276 59.184C34.4154 59.1915 34.5038 59.1915 34.5916 59.184C34.6637 59.1691 34.7359 59.1515 34.808 59.1339C34.9321 59.104 35.0515 59.0622 35.1638 59.0092C35.2649 58.9692 35.3629 58.9239 35.4572 58.8738C35.632 58.7833 35.801 58.6857 35.9638 58.5811C36.7889 58.0371 37.5638 57.443 38.282 56.8037C38.3444 56.8647 38.4067 56.9243 38.4771 56.9812C38.5476 57.0381 38.5936 57.0747 38.6575 57.1167C38.7214 57.1587 38.7837 57.2007 38.8329 57.2305C39.4985 57.6464 40.1773 58.0433 40.8626 58.4389C39.6144 58.389 38.366 58.5328 37.182 58.8629C35.1474 59.4129 33.7063 60.1485 31.8914 61.128C27.4336 63.534 23.9038 64.7952 21.5627 65.6284C19.9232 66.215 18.7378 66.639 18.0952 67.1592C18.0394 67.0671 17.9837 66.975 17.9214 66.8883C17.7699 66.6734 17.6006 66.4674 17.4148 66.2719C16.7151 65.4995 15.8679 64.8265 14.9064 64.2791C14.424 64.0055 13.9158 63.7645 13.3866 63.5584C12.8496 63.3589 12.2929 63.198 11.7225 63.0775C10.569 62.8319 9.36472 62.7958 8.1927 62.9718C7.02283 63.1432 5.91258 63.5242 4.93997 64.0881C4.45641 64.369 4.01598 64.6974 3.62839 65.0662C3.2997 65.3825 3.01331 65.7273 2.77422 66.0944C2.29992 66.153 1.85356 66.3163 1.48231 66.5672C0.648389 67.1378 0.118604 67.956 0.00678384 68.8458C-0.00226149 68.9604 -0.00226118 69.0754 0.00678415 69.1899C0.0182603 69.2983 0.0215393 69.4067 0.044492 69.5124C0.0798203 69.725 0.134627 69.9352 0.20844 70.1409C0.501907 70.9538 1.02818 71.6596 1.5397 72.3166L3.10868 74.2579L9.37477 82.0056L10.9421 83.9428C11.4528 84.6205 12.0396 85.2568 12.6947 85.8435L12.6947 85.8435ZM42.6004 99.2051C41.8326 99.1587 41.0793 99.0081 40.3708 98.7594C39.6363 98.5183 38.8952 98.2175 38.1525 97.933L35.9228 97.0701L26.9992 93.6182L24.7711 92.7567C24.0529 92.4939 23.3717 92.1668 22.7398 91.7813C22.4482 91.5959 22.187 91.3801 21.9627 91.1391C21.7639 90.9077 21.627 90.644 21.561 90.3656C21.488 90.0943 21.4925 89.8128 21.5741 89.5433C21.6106 89.4308 21.6706 89.3244 21.7512 89.229C23.1202 90.7191 25.2269 91.9696 28.173 93.0357L44.353 98.8949C43.818 99.1374 43.2088 99.2452 42.6004 99.2051L42.6004 99.2051ZM55.5786 84.1894C55.4144 84.5043 55.231 84.8122 55.0293 85.112C54.8058 84.8891 54.5547 84.6861 54.2801 84.5064C54.0011 84.3268 53.6993 84.1728 53.38 84.0471C53.0654 83.9141 52.717 83.8448 52.3635 83.8453C52.6308 84.0417 52.8898 84.1989 53.139 84.3655C53.3853 84.5287 53.613 84.7101 53.8194 84.9074C54.0207 85.1008 54.2012 85.3084 54.3588 85.5279C54.4211 85.6173 54.4785 85.7094 54.5342 85.7988C54.4211 85.9465 54.3063 86.0928 54.1866 86.2364C53.644 86.888 53.0292 87.5071 52.4012 88.133C51.7733 88.7589 51.1159 89.3766 50.5208 90.0621C50.3716 90.2342 50.2257 90.4076 50.0863 90.5864C50.0174 90.6771 49.9453 90.7666 49.8797 90.8573L49.7076 91.0985C49.5928 91.257 49.2551 91.3694 48.8436 91.3694C48.4134 91.3639 47.9882 91.2927 47.5894 91.1594C47.1476 91.0312 46.7189 90.8739 46.3073 90.6893C45.4876 90.3236 44.7121 89.821 43.8382 89.4037C42.971 88.9698 42.0275 88.6498 41.0413 88.4554C41.8446 88.9661 42.63 89.4322 43.3841 89.9456C44.1488 90.4832 44.9628 90.971 45.8187 91.4046C46.2695 91.6196 46.7398 91.8053 47.2254 91.9601C47.4189 92.0224 47.6238 92.0793 47.8353 92.1294C47.4123 93.2647 47.2844 94.4013 46.8778 95.4295C46.6578 96.0371 46.3093 96.6077 45.8483 97.1148C45.7925 97.1785 45.7319 97.2367 45.6712 97.2977C45.5929 97.371 45.5195 97.4479 45.4515 97.528C45.3224 97.6864 45.2089 97.8531 45.1121 98.0265C45.0679 98.1051 45.0252 98.1796 44.9826 98.2514L28.5583 92.3042C25.6073 91.2353 23.5645 89.993 22.3103 88.5109C22.2594 87.8379 22.4354 87.1664 22.8185 86.571C23.0186 86.2646 23.2666 85.9812 23.5563 85.7284C23.8429 85.4713 24.1699 85.2472 24.5285 85.0618C25.2611 84.6897 26.0798 84.4484 26.9319 84.3533C27.8092 84.254 28.6992 84.259 29.5748 84.3682C30.4614 84.4803 31.3288 84.679 32.1586 84.9602C32.5532 85.1027 32.929 85.2784 33.28 85.4845C33.6398 85.7029 33.9805 85.9419 34.2998 86.1998C35.5966 87.2484 36.7 88.4961 38.0115 89.6882C37.7462 88.9138 37.3662 88.1694 36.8803 87.4719C36.3987 86.761 35.8067 86.1052 35.1195 85.5211C34.8193 85.2632 34.4984 85.0224 34.1588 84.8004C34.1194 84.6906 34.1948 84.5768 34.4555 84.3316C35.213 84.1189 36.1376 84.23 37.0197 84.4373C37.9552 84.6788 38.8632 84.9879 39.733 85.3612C40.6183 85.7311 41.4938 86.1361 42.3562 86.5629C43.2171 87.0097 44.1182 87.4015 45.0515 87.7347C44.3619 87.1088 43.5854 86.5523 42.7382 86.0765C41.9037 85.5942 41.0511 85.1282 40.1527 84.7096C39.2497 84.2767 38.2941 83.9235 37.3017 83.6556C36.7843 83.5146 36.247 83.4295 35.7032 83.4023C35.6359 83.4023 35.5654 83.4023 35.4949 83.4023C36.5163 82.454 38.0116 80.8852 39.6215 78.0512C40.2396 77.8398 40.8544 77.6204 41.4643 77.386C42.166 77.1151 42.8661 76.8238 43.5448 76.4987C46.5155 78.8193 50.1339 80.449 53.8571 81.7062C54.6457 81.969 55.4425 82.2102 56.2442 82.4391C56.0873 83.0381 55.8645 83.6239 55.5785 84.1894L55.5786 84.1894ZM64.8974 64.149C69.0174 66.0199 73.7735 66.9939 80.1953 67.2879L80.1576 67.3299C80.0396 67.4329 79.9281 67.5426 79.8215 67.651C79.3936 68.0872 79.069 68.564 78.6886 68.896C78.3175 69.2249 77.8138 69.4306 77.2721 69.4744C76.6728 69.5318 76.0672 69.5286 75.4687 69.4649C74.8539 69.4094 74.2325 69.3173 73.6145 69.213C71.1317 68.7866 68.6995 68.1791 66.3466 67.3976C65.1805 67.0092 64.0524 66.5467 62.9726 66.0145C62.2541 65.6593 61.5759 65.2512 60.9462 64.7952C61.4571 64.7969 61.9674 64.7661 62.4726 64.7031C63.3022 64.5896 64.115 64.4038 64.8974 64.149L64.8974 64.149ZM96.3327 57.8794C95.8228 61.7363 95.2113 65.1353 92.9062 67.6781C91.6979 69.0111 90.0174 70.0718 87.914 70.8305C84.0366 72.2299 80.879 73.0563 78.8854 73.2094C78.9816 72.7388 79.0685 72.2674 79.1461 71.7951C79.2756 70.9822 79.3805 70.1694 79.4264 69.3498C79.8822 68.923 80.174 68.4855 80.538 68.1197C80.6331 68.0235 80.7282 67.9287 80.8298 67.8393L80.9052 67.7715L81.0036 67.6808C81.069 67.6173 81.1293 67.5503 81.1839 67.4803C81.3757 67.221 81.5189 66.9392 81.6086 66.6444C81.7653 66.1082 81.8679 65.5622 81.9151 65.012C81.9758 64.4782 82.0184 63.9526 82.0971 63.4446C82.1758 62.9365 82.2939 62.4326 82.5447 62.06C82.5755 62.0173 82.6095 61.9761 82.6463 61.9368L82.7004 61.8799L82.7808 61.8026C82.8873 61.697 83.0005 61.5954 83.1087 61.487C83.3185 61.2729 83.5153 61.0521 83.7038 60.8245C84.0764 60.3705 84.4053 59.8931 84.6875 59.3966C84.7088 59.3601 84.7268 59.3208 84.7465 59.2842L85.0924 59.2842C89.0382 59.2827 92.9281 58.5137 96.4475 57.0394C96.4065 57.3199 96.3688 57.6003 96.3327 57.8794L96.3327 57.8794ZM85.8204 56.5247C89.6075 56.3317 93.3248 55.5941 96.8049 54.3449L96.5704 56.0857C93.059 57.6517 89.1334 58.4759 85.1433 58.4849C85.4321 57.8457 85.6585 57.1884 85.8204 56.5192L85.8204 56.5247ZM99.0116 37.6981C98.5854 40.9129 98.1525 44.1683 97.7197 47.4236C97.4519 49.4277 97.1858 51.4287 96.9213 53.4264C93.4768 54.7234 89.7785 55.4989 86.0024 55.7159C86.4231 53.8074 86.7159 51.8813 86.8795 49.9461C86.9582 48.8813 87.0434 47.8246 87.0156 46.7382C86.9795 45.6622 86.8552 44.5895 86.6434 43.5275C86.4384 42.4593 86.1185 41.4084 85.6876 40.3872C85.6761 40.3588 85.6614 40.3303 85.6499 40.3019C86.6204 39.9835 87.6172 39.6245 88.5911 39.2791C92.0979 38.0273 95.7212 36.739 98.9198 36.8907C99.0205 37.1512 99.0518 37.4267 99.0116 37.6981L99.0116 37.6981ZM75.2785 44.1412C73.4733 44.376 71.7334 44.8751 70.1404 45.6151C69.1886 46.0652 68.2991 46.5999 67.4877 47.2096C66.7745 47.7366 66.1089 48.2934 65.4531 48.8447C64.735 48.4952 63.9202 48.1322 63.0431 47.761C65.24 45.9131 69.5272 43.1441 73.685 42.8637C75.5556 42.819 77.7213 42.6632 79.6149 41.8517C81.0233 41.2475 83.2939 40.2721 83.312 38.2183C84.0104 38.8957 84.5039 39.7478 84.8826 40.6202C85.1654 41.2889 85.3943 41.9722 85.5679 42.6659C82.3791 42.1863 78.1247 42.7851 75.2785 44.1412L75.2785 44.1412ZM61.343 50.8267L61.343 50.8267C61.2676 51.0821 61.1062 51.3146 60.8773 51.4973L60.7544 51.4485C60.1347 51.1776 59.5084 50.9283 58.8788 50.6777C58.877 50.5596 58.8929 50.4417 58.9264 50.3268C59.0164 50.0074 59.2436 49.7258 59.5658 49.5343C59.7638 49.4155 60.0014 49.3502 60.2461 49.3474C60.3313 49.3471 60.4161 49.3557 60.4986 49.3731C60.8207 49.4446 61.0886 49.6293 61.2315 49.8784C61.4076 50.1725 61.4495 50.5092 61.3495 50.8267L61.343 50.8267ZM62.1217 51.3862C62.1845 51.2674 62.2355 51.1447 62.2742 51.0191C62.4333 50.5164 62.3664 49.983 62.0856 49.518C61.8221 49.0615 61.3257 48.7262 60.7319 48.6035C60.1381 48.4808 59.509 48.5837 59.0165 48.884C58.5047 49.1854 58.1419 49.6295 57.9951 50.1344C57.9771 50.1941 57.964 50.2523 57.9509 50.3119C56.6579 49.8152 55.3463 49.3487 54.0161 48.9125L55.1408 45.7248C58.5755 46.8682 62.2201 48.2175 64.7531 49.4273C64.1579 49.9245 63.5595 50.4095 62.9283 50.8511C62.7332 50.9866 62.5365 51.122 62.3332 51.2575L62.1217 51.3862ZM47.4205 47.0186L47.1287 46.9481C47.8501 45.9438 48.5315 44.9206 49.1731 43.8783C50.6158 44.2848 52.3767 44.8267 54.2407 45.4295L53.1161 48.6226C51.74 48.1864 50.3514 47.7799 48.9501 47.4033C48.4485 47.2801 47.9386 47.1446 47.4271 47.0186L47.4205 47.0186ZM62.1315 47.3979C58.0886 45.7722 53.016 44.1317 49.6207 43.1658L49.6207 43.1536C50.1896 42.1904 50.7175 41.2082 51.1897 40.2071C51.3405 39.8928 51.4831 39.5771 51.6225 39.2588C52.3909 39.5685 53.1834 39.8355 53.9948 40.058C59.569 41.6702 64.9383 42.5954 70.0011 42.8244C66.9319 43.8499 64.0596 45.7235 62.1381 47.3979L62.1315 47.3979ZM98.2476 36.086C95.0211 36.1199 91.5618 37.3527 88.2025 38.5516C87.2385 38.8957 86.2352 39.252 85.281 39.5663C85.158 39.336 85.0236 39.1084 84.876 38.8889C84.611 38.4835 84.2938 38.1029 83.9301 37.7537C85.8187 36.7806 87.5119 35.5698 88.9485 34.165C89.5283 33.6017 90.0723 33.0139 90.5781 32.4039C93.662 32.8401 95.8769 33.9022 98.2542 36.086L98.2476 36.086ZM89.8666 8.87645C91.2286 10.2691 92.3143 11.8315 93.0833 13.5055C93.8422 15.1838 94.2899 16.9473 94.4112 18.7361C94.6507 22.3374 93.75 25.928 91.7979 29.1539C90.8235 30.7589 89.6168 32.2601 88.2042 33.6245C86.795 34.9819 85.1443 36.1545 83.3087 37.102C81.4623 38.0365 79.4512 38.728 77.3475 39.1517C75.2375 39.5771 73.0718 39.7803 70.8519 39.9727C73.07 40.2887 75.3413 40.2455 77.5394 39.8454C79.1948 39.5563 80.8013 39.1013 82.3234 38.4906C82.1315 39.7627 80.7314 40.4807 79.1723 41.1499C77.4459 41.891 75.4015 42.0332 73.6407 42.0739C67.6468 42.2093 61.1446 41.2841 54.3112 39.3075C53.4978 39.0842 52.7049 38.8126 51.9389 38.4947C52.1848 37.8837 52.4078 37.2646 52.5947 36.6374C52.6734 36.3818 52.7472 36.1235 52.816 35.8625C58.2837 37.7943 66.0073 39.5202 70.4814 39.0975C71.1393 39.0263 71.7364 38.7429 72.1422 38.3091C74.2735 36.0955 76.1097 34.0024 77.5279 31.8701C77.8558 33.7586 79.0592 35.2854 80.9216 35.8625C81.4366 36.0213 81.9819 36.1021 82.5316 36.1009C85.2908 36.1009 88.2124 34.1433 89.56 31.1724C90.3322 29.4696 90.4831 27.6854 89.9847 26.1491C89.4715 24.5655 88.3337 23.4275 86.7778 22.9452C84.699 22.3017 82.3037 23.0021 80.4494 24.5709C80.6904 22.6364 80.5798 20.6829 80.1216 18.7754C80.0854 18.6103 79.9832 18.46 79.8314 18.3487C76.4196 15.8925 71.5438 13.5475 66.1843 12.0208C67.5435 8.63396 69.7191 6.40274 73.3554 4.65515C76.6475 3.07419 81.5233 3.21914 84.9695 4.99654C85.0449 5.04395 85.1236 5.09001 85.199 5.13201C86.9365 6.21564 88.5044 7.47342 89.8666 8.87645L89.8666 8.87645ZM71.6832 22.3112C70.306 21.3629 69.8289 19.954 70.6159 19.1764C71.4028 18.3988 73.1603 18.541 74.5391 19.4947C75.9179 20.4485 76.395 21.852 75.6064 22.6296C74.8178 23.4072 73.062 23.2649 71.6832 22.3112L71.6832 22.3112ZM74.4883 26.3916C74.1739 26.7025 73.6638 26.8261 73.196 26.7049C72.7282 26.5836 72.395 26.2414 72.3518 25.8378C72.3086 25.4343 72.5639 25.049 72.9987 24.8618C73.4334 24.6746 73.9619 24.7223 74.3375 24.9827C74.5837 25.153 74.7379 25.3971 74.7662 25.6613C74.7945 25.9256 74.6945 26.1883 74.4883 26.3916L74.4883 26.3916ZM82.6021 35.3192C82.0533 35.179 81.5978 34.8594 81.3413 34.4346C81.0134 33.9374 80.8937 33.3508 80.8282 32.8997C80.4493 30.1705 81.357 27.4255 83.3628 25.2347C84.4039 24.1076 85.4548 23.5968 86.4893 23.712C87.7238 24.1089 88.6386 25.0477 89.0649 26.3632C89.5108 27.7409 89.3698 29.353 88.6682 30.9015C87.4713 33.5405 84.9498 35.2989 82.6021 35.3192L82.6021 35.3192ZM82.6021 24.7524C80.4451 27.1065 79.4698 30.0572 79.8789 32.9905C79.944 33.6123 80.1486 34.2187 80.4822 34.7787C78.4345 33.6109 77.7705 30.7349 79.0477 27.9198C80.0314 25.763 81.8905 24.1943 83.8202 23.6822C83.3647 24 82.9549 24.36 82.5988 24.7551L82.6021 24.7524ZM65.9335 0.979792C66.2286 0.949988 66.5237 0.921539 66.8188 0.898509C71.1487 0.558474 75.5884 1.03398 79.592 2.42663C80.0478 2.58378 80.4959 2.75267 80.9364 2.9333C78.1181 2.54043 75.1507 2.8764 72.8734 3.96966C69.0698 5.79718 66.7024 8.22212 65.2744 11.7715C61.943 10.8896 58.4509 10.3301 55.0211 10.2556C56.5294 6.32552 60.6724 1.97416 65.9335 0.979792L65.9335 0.979792ZM50.1716 8.27225C51.4367 6.81852 52.9709 5.53844 54.7178 4.47903C56.4713 3.42461 58.4053 2.59224 60.456 2.00938C60.8151 1.90642 61.179 1.81159 61.543 1.72353C57.882 3.72445 55.149 7.13293 54.0243 10.2461C52.1049 10.2511 50.1923 10.437 48.3238 10.8002C48.8591 9.919 49.4768 9.07379 50.1716 8.27224L50.1716 8.27225ZM46.4008 15.3168C46.9221 14.2723 47.5484 13.2061 48.6649 12.545C49.9322 11.7905 53.6932 11.2255 57.8984 12.4096C54.526 12.5139 51.4848 13.4568 48.901 15.7652C47.4664 17.0481 45.9417 19.9919 45.399 22.6296C45.2351 22.57 45.0629 22.5131 44.8941 22.4575L44.699 22.4033C44.4858 20.0231 45.2826 17.5589 46.4024 15.3181L46.4008 15.3168ZM26.0155 27.9401C26.069 27.2932 26.3072 26.666 26.7106 26.1098C27.5058 24.9773 28.8419 24.1279 30.3289 23.6483C31.0777 23.4067 31.8644 23.2548 32.6652 23.1972C33.4528 23.1276 34.2493 23.1837 35.0113 23.3625C35.7677 23.56 36.4807 23.8569 37.1229 24.2417C37.4246 24.4259 37.6509 24.64 37.6951 24.8649C37.7626 25.069 37.6292 25.2817 37.3885 25.3539C37.0925 25.4353 36.7693 25.4148 36.4917 25.297C36.2327 25.1886 36.0163 24.8906 35.6015 24.6197C35.5489 24.5869 35.4942 24.5566 35.4376 24.5289L35.2916 24.4639C35.1949 24.4205 35.0965 24.3799 34.9965 24.3406C34.7941 24.2605 34.586 24.1904 34.3735 24.1306C34.1472 24.0655 33.9121 24.0232 33.6735 24.0046C33.5342 23.9956 33.3941 24.0024 33.2571 24.0249C33.1784 24.0383 33.1019 24.0592 33.0292 24.0872C32.9165 24.1297 32.8217 24.1991 32.757 24.2864C32.7001 24.3688 32.6712 24.4625 32.6734 24.5573C32.6725 24.6099 32.6758 24.6623 32.6832 24.7145C32.6832 24.8066 32.7046 24.8974 32.7193 24.9854C32.7488 25.167 32.7914 25.3458 32.8423 25.5273C32.9445 25.8761 33.0737 26.2191 33.2292 26.5542C33.3046 26.7195 33.3833 26.8834 33.4636 27.046C33.5439 27.1883 33.6076 27.3366 33.6538 27.489C33.6947 27.5905 33.6947 27.7003 33.6538 27.8019C33.6113 27.8641 33.5258 27.8972 33.4407 27.8845C33.2193 27.8927 32.9292 27.6542 32.6488 27.4063C32.3719 27.1644 32.1171 26.9058 31.8864 26.6328C31.6562 26.3628 31.457 26.0758 31.2913 25.7752C31.2093 25.6262 31.152 25.4718 31.0585 25.3268C30.9526 25.1618 30.8128 25.0133 30.6454 24.8879L30.5076 25.0925L30.5519 25.0626C30.5005 25.1937 30.4843 25.3323 30.5044 25.4691C30.5412 25.651 30.6097 25.8276 30.7077 25.9933C30.7864 26.1437 30.8716 26.2887 30.9733 26.4309C31.0388 26.5921 31.1061 26.7479 31.1733 26.9118C31.2995 27.2099 31.4274 27.5147 31.5258 27.7992C31.5766 27.9523 31.6241 28.0999 31.6586 28.2435C31.6923 28.3741 31.7109 28.507 31.7143 28.6405C31.7149 28.6712 31.7059 28.7015 31.6881 28.7285C31.675 28.7438 31.6568 28.7556 31.6356 28.7624C31.5946 28.7771 31.5507 28.7854 31.5061 28.7868C31.4508 28.7876 31.3956 28.7821 31.3421 28.7705C30.7847 28.6215 30.3191 28.1473 30.0076 27.6122C29.8043 27.2912 29.6797 26.9349 29.4895 26.5948C29.3544 26.3469 29.1654 26.1214 28.9321 25.9297C28.8131 26.3677 28.8542 26.825 29.0502 27.2437C29.1354 27.4537 29.2387 27.661 29.3436 27.871C29.4637 28.0933 29.6075 28.3064 29.7732 28.5077C29.9486 28.8017 30.1388 29.0862 30.3289 29.3517C30.6568 29.8678 30.4667 30.0534 29.9371 30.029C29.6431 29.9626 29.3697 29.8448 29.1354 29.6836C29.0099 29.6241 28.9036 29.5405 28.8255 29.4397C28.7288 29.3273 28.6337 29.2 28.5354 29.0726C28.4108 28.9073 28.2747 28.7448 28.1419 28.5809C27.8582 28.234 27.5615 27.8886 27.2352 27.5377C27.2187 27.867 27.2743 28.1961 27.3992 28.5091C27.5038 28.8122 27.6427 29.1066 27.814 29.3883C27.8422 29.5558 27.8597 29.7245 27.8664 29.8936C27.8664 30.0589 27.8664 30.2241 27.8566 30.3867C27.8476 30.5275 27.8218 30.6673 27.7796 30.8039L27.7599 30.8039C27.7304 30.7945 27.7041 30.8039 27.6697 30.7836C27.5189 30.7268 27.3821 30.6473 27.2664 30.5493C26.9955 30.3227 26.7683 30.0632 26.5926 29.7798C26.2188 29.2054 25.9778 28.5538 26.0155 27.9401L26.0155 27.9401ZM35.1851 57.7114C34.9539 57.8663 34.6979 57.9939 34.4244 58.0907C34.4066 58.0936 34.3895 58.0987 34.3735 58.1056C34.3571 58.1056 34.3637 58.0934 34.3588 58.0948C34.3867 58.0948 34.267 58.0812 34.1948 58.0663C34.0309 58.0406 33.8555 58.0054 33.6784 57.9688C32.9718 57.8265 32.2553 57.6626 31.5471 57.4973C28.6927 56.82 25.8417 56.1047 23.0333 55.3298C21.6217 54.9437 20.2707 54.517 18.9001 54.036C17.5295 53.5551 16.1934 53.0634 14.8851 52.516C12.2734 51.4201 9.78464 50.1331 7.67135 48.5047C5.55806 46.8763 3.81202 44.9418 2.8021 42.7539C1.79218 40.5661 1.54462 38.1479 2.26107 35.9221C2.60273 34.8049 3.2035 33.7532 4.03006 32.8252C4.87522 31.89 5.89453 31.0715 7.04999 30.4002C8.22694 29.729 9.51305 29.1991 10.87 28.8261C12.2359 28.4583 13.6563 28.2468 15.0916 28.1975C15.554 28.2097 16.0179 28.1975 16.477 28.2259C16.9375 28.2513 17.3961 28.2965 17.8509 28.3614C19.6793 28.6155 21.4233 29.1826 22.971 30.0263C23.3562 30.2364 23.7283 30.4625 24.0858 30.7037C24.4347 30.9417 24.7634 31.1993 25.0695 31.4745L25.7253 32.0909L25.9056 31.2876L25.9056 31.2876C25.9828 30.967 26.0824 30.6504 26.204 30.3393C26.3733 30.5587 26.5736 30.7606 26.8008 30.9408C26.9826 31.0878 27.1969 31.2046 27.432 31.2849C27.5012 31.3053 27.5725 31.3203 27.6451 31.3296C27.7231 31.3419 27.8032 31.3419 27.8812 31.3296L28.0042 31.3174L28.0206 31.3174L28.0648 31.3052C28.0939 31.2949 28.1218 31.2827 28.1484 31.2686C28.1834 31.2478 28.2153 31.2237 28.2435 31.1968C28.3003 31.1363 28.3426 31.0673 28.3681 30.9936C28.4302 30.8039 28.4648 30.6089 28.4714 30.4124C28.4714 30.3339 28.4714 30.2539 28.4714 30.1754L28.4714 30.1754L28.5829 30.2499C28.9202 30.5024 29.3317 30.6776 29.7764 30.7579C30.0402 30.793 30.3105 30.7721 30.5618 30.6969C30.8486 30.6153 31.0864 30.4455 31.2257 30.2228C31.3723 29.9641 31.3894 29.6681 31.2733 29.3991C31.5083 29.4301 31.7492 29.3993 31.9619 29.3111C32.1146 29.2456 32.241 29.1449 32.3258 29.0211C32.3985 28.9066 32.4368 28.7793 32.4373 28.6499C32.4354 28.464 32.404 28.2791 32.3439 28.0999C32.3193 28.0214 32.2898 27.9509 32.2619 27.8778C32.3755 27.979 32.4965 28.0745 32.6242 28.1636C32.8348 28.3189 33.1005 28.4139 33.3816 28.4345C33.5447 28.4436 33.7079 28.418 33.8555 28.36C34.0121 28.2958 34.141 28.1931 34.2243 28.0661C34.3509 27.8479 34.3789 27.5994 34.303 27.3657C34.2499 27.1799 34.1764 26.9985 34.0833 26.8238C34.0063 26.6653 33.9309 26.5068 33.8604 26.3483C33.7198 26.0348 33.6026 25.7145 33.5095 25.3891C33.4669 25.2279 33.4292 25.0667 33.4046 24.9055C33.3931 24.8242 33.3816 24.7429 33.3751 24.663C33.3751 24.6427 33.3751 24.621 33.3751 24.602L33.3948 24.602C33.4645 24.5949 33.5349 24.5949 33.6046 24.602C33.7834 24.6179 33.9591 24.652 34.1276 24.7037C34.3118 24.757 34.4919 24.8195 34.667 24.8906C34.7555 24.9258 34.8441 24.9638 34.9326 25.003L35.0638 25.0627C35.0933 25.0776 35.1244 25.0938 35.1556 25.1128C35.413 25.2618 35.6392 25.5978 36.1196 25.8348C36.3513 25.9384 36.6063 26.0016 36.8688 26.0204C37.1364 26.0428 37.4067 26.0146 37.6591 25.9378C37.9437 25.8502 38.1802 25.6803 38.3247 25.4596C38.4596 25.2412 38.5023 24.9918 38.446 24.7511C38.3987 24.5296 38.286 24.3211 38.1181 24.1442C37.9659 23.9865 37.7895 23.8458 37.5935 23.7255C37.2356 23.5106 36.8573 23.3199 36.4622 23.1552C36.3114 23.0929 36.1557 23.036 35.9999 22.9804C36.7158 22.8323 37.4417 22.7197 38.1738 22.6431C38.893 22.5716 39.6169 22.5386 40.3412 22.5442C41.0616 22.5585 41.7799 22.6151 42.4906 22.7136C43.1961 22.8237 43.8897 22.9809 44.5645 23.1837C45.233 23.3982 45.8785 23.6588 46.4942 23.9626C48.9745 25.2002 50.8504 27.118 51.7946 29.3815C52.2501 30.5071 52.4382 31.6948 52.3488 32.8794C52.2601 34.0834 52.0255 35.2769 51.6487 36.4423C50.9159 38.79 49.7732 41.0483 48.4157 43.2159C47.6763 44.3972 46.8778 45.5528 46.0335 46.6853L45.8564 46.6501C45.255 46.5247 44.6259 46.5201 44.0219 46.6366C43.684 46.7111 43.3602 46.8237 43.0595 46.9712C43.0742 46.772 43.112 46.5431 43.1398 46.3195C43.2038 45.8576 43.2497 45.4214 43.3202 44.9648C43.448 44.068 43.5923 43.1129 43.3431 42.1484C43.3071 42.0278 43.2808 41.9154 43.2267 41.7853C43.1712 41.6362 43.0797 41.498 42.9578 41.3789C42.8134 41.2422 42.6198 41.1472 42.4053 41.1079C42.212 41.0754 42.0122 41.0805 41.8217 41.1228C41.6431 41.1644 41.476 41.2343 41.3298 41.3288C41.197 41.416 41.079 41.5176 40.979 41.6309C40.8078 41.832 40.6612 42.0466 40.5413 42.2716C40.1001 43.0423 39.7879 43.8591 39.6133 44.6993L39.5395 44.6641L39.4199 44.6058L39.2985 44.5516C39.2313 44.5218 39.1641 44.4934 39.1002 44.4582C38.8382 44.3221 38.6004 44.1566 38.3935 43.9664C37.9716 43.5615 37.6206 43.1095 37.3508 42.6239C37.059 42.1348 36.8065 41.6038 36.4819 41.0863C36.165 40.5398 35.7394 40.0411 35.2228 39.611C35.0664 39.4747 34.88 39.3644 34.6736 39.2858C34.5207 39.2354 34.3542 39.2199 34.1916 39.2411C34.0313 39.27 33.8828 39.3326 33.7604 39.4227C33.5749 39.554 33.4323 39.7217 33.3456 39.9104C33.2687 40.0661 33.2174 40.2297 33.1931 40.3967C33.1487 40.6173 33.1197 40.8399 33.1062 41.0632C32.9501 40.8506 32.7695 40.651 32.5668 40.4672C32.4389 40.3501 32.2909 40.2493 32.1274 40.1678C32.0544 40.1362 31.9767 40.1125 31.8963 40.0973C31.8349 40.0859 31.7723 40.0791 31.7094 40.077C31.5883 40.073 31.4672 40.0844 31.3503 40.1109C30.9364 40.2095 30.5967 40.4546 30.4224 40.7801C30.2855 41.0458 30.2196 41.3327 30.2289 41.6214C30.2289 41.8747 30.2552 42.1037 30.283 42.3435C30.3257 42.7004 30.3958 43.0547 30.4929 43.4042C30.2425 43.3158 29.9733 43.2698 29.701 43.2687C29.5497 43.2664 29.3987 43.2805 29.2518 43.3107C29.1659 43.3296 29.0824 43.3555 29.0026 43.3879C28.9513 43.4077 28.9029 43.4323 28.8583 43.4611C28.7932 43.5027 28.7377 43.5537 28.6944 43.6115C28.536 43.8412 28.4657 44.1053 28.4927 44.3688C28.5042 44.5882 28.5452 44.7657 28.5747 44.9608C28.7303 45.723 29.0389 46.4583 29.4879 47.1365C29.6205 47.338 29.7672 47.5329 29.9273 47.7203L29.9092 47.7203C29.7134 47.7542 29.5316 47.8293 29.3813 47.9384C29.2339 48.0432 29.1173 48.1743 29.0403 48.3218C28.9597 48.4893 28.9487 48.6742 29.0092 48.8475C29.0535 48.9852 29.1202 49.1174 29.2075 49.2403C29.3594 49.4559 29.5332 49.6603 29.7273 49.8513C30.5011 50.6086 31.4651 51.1275 32.3242 51.6924C33.1833 52.2573 34.085 52.8358 35.0457 53.3519C35.8966 53.8112 36.8052 54.1927 37.7558 54.4899C37.6782 54.7045 37.6314 54.9259 37.6164 55.1496C37.6051 55.3701 37.631 55.5908 37.6935 55.8053C36.92 56.4948 36.0812 57.1322 35.1851 57.7114L35.1851 57.7114ZM38.0001 53.7245C37.1312 53.4651 36.2981 53.1304 35.5146 52.726C34.5899 52.2519 33.7112 51.6978 32.8111 51.1478C31.911 50.5978 30.9733 50.0979 30.288 49.4476C30.1189 49.2883 29.9664 49.1174 29.8322 48.9369C29.7763 48.8623 29.7323 48.7822 29.701 48.6984C29.6796 48.6488 29.6768 48.595 29.6928 48.544C29.7562 48.4164 29.8866 48.3196 30.047 48.2812C30.2294 48.2611 30.4142 48.2983 30.565 48.3855C31.0792 48.8476 31.6973 49.2226 32.3848 49.4896C32.0979 49.197 31.8225 48.9138 31.5651 48.6253C31.3077 48.3367 31.0733 48.0387 30.8536 47.7379C30.4113 47.1441 30.0605 46.507 29.8092 45.8413C29.6867 45.5108 29.5924 45.1735 29.5272 44.8321C29.501 44.6654 29.4617 44.4812 29.4535 44.3349C29.4437 44.2461 29.4537 44.1565 29.483 44.0707L29.5026 44.0639C29.5704 44.0482 29.6405 44.04 29.7109 44.0396C29.8722 44.0351 30.033 44.0563 30.1847 44.1019C30.4673 44.192 30.7181 44.3391 30.9142 44.53C31.0028 44.7169 31.0962 44.9012 31.1995 45.0827C31.6914 45.928 32.2832 46.7734 33.28 47.2841C32.8619 46.3968 32.3078 45.6584 31.952 44.8239C31.7752 44.411 31.6279 43.9899 31.511 43.5627C31.4036 43.1369 31.327 42.7063 31.2815 42.273C31.2487 41.8422 31.2044 41.3708 31.3471 41.1364C31.3979 41.0383 31.496 40.9622 31.6176 40.9264C31.6344 40.9241 31.6516 40.9241 31.6684 40.9264L31.6684 40.9264C31.7303 40.964 31.7884 41.0057 31.8422 41.051C32.18 41.3591 32.4723 41.6992 32.7127 42.0644C32.9174 42.371 33.0992 42.6877 33.257 43.0127C33.421 43.8851 33.721 44.7291 34.3735 45.462C34.4506 44.2671 33.9784 43.2254 33.9309 42.1294C33.8894 41.5923 33.924 41.0531 34.0342 40.5227C34.0504 40.409 34.0857 40.2978 34.1391 40.1922C34.1731 40.1145 34.2293 40.0447 34.303 39.9889C34.3489 39.9659 34.3211 39.9768 34.3539 39.9795C34.4528 40.0287 34.5424 40.0899 34.6195 40.161C35.0682 40.535 35.4393 40.9675 35.7179 41.4412C36.0212 41.9262 36.295 42.4396 36.6196 42.9598C36.9427 43.4949 37.3628 43.9861 37.8656 44.4162C38.1308 44.6353 38.4308 44.8235 38.7575 44.9757C38.8397 45.014 38.9246 45.0484 39.0116 45.0786L39.1215 45.1179L39.228 45.1613C39.3195 45.2016 39.415 45.2356 39.5133 45.2629C39.585 45.2834 39.6604 45.2939 39.7363 45.294C39.846 45.2941 39.9529 45.2652 40.0412 45.2114L40.1396 45.1491L40.1625 45.0488L40.1625 45.0488C40.3472 44.1814 40.6865 43.3414 41.1692 42.5561C41.2764 42.3686 41.4048 42.1899 41.5528 42.0224C41.6618 41.8903 41.8238 41.7943 42.0102 41.7514C42.1413 41.7121 42.288 41.7396 42.3857 41.8219C42.4901 41.9712 42.556 42.1368 42.5791 42.3082C42.766 43.1319 42.6201 44.0084 42.4594 44.8985C42.3758 45.3455 42.3102 45.8115 42.2365 46.2532C42.2004 46.4781 42.1561 46.6962 42.1283 46.9468C42.1082 47.0933 42.1115 47.2413 42.1381 47.3871C42.1493 47.4378 42.1658 47.4877 42.1873 47.5361C40.5626 48.7228 39.492 50.2835 38.7444 51.8712C38.4608 52.474 38.2181 53.1053 38.0001 53.7285L38.0001 53.7245ZM39.4985 56.5057C39.4412 56.4718 39.3985 56.442 39.3625 56.4163C39.323 56.39 39.2857 56.3615 39.251 56.3309C39.1783 56.2716 39.112 56.2072 39.0526 56.1386C38.9363 56.0009 38.8477 55.8485 38.7903 55.6874C38.7322 55.5263 38.7078 55.3582 38.7182 55.1903C38.7366 55.0058 38.7817 54.8239 38.8526 54.6484C39.1179 53.8185 39.438 53.0012 39.8117 52.2003C40.1733 51.4112 40.6291 50.6538 41.1725 49.9394C41.4413 49.5889 41.7416 49.2556 42.0709 48.9423C42.3901 48.6298 42.743 48.3419 43.1251 48.082C43.4689 47.8409 43.8706 47.6626 44.3039 47.5591C44.7367 47.4786 45.1866 47.4856 45.6154 47.5794C46.0483 47.6594 46.5221 47.7813 46.986 47.8924C46.9792 47.8989 46.9715 47.9048 46.9631 47.91C46.7598 48.0739 46.5483 48.2351 46.3532 48.4099C46.1581 48.5846 45.963 48.7648 45.7827 48.9518C45.5916 49.1404 45.4493 49.3594 45.3646 49.5953C45.6238 49.4911 45.8699 49.3658 46.0991 49.2214C46.322 49.0859 46.5532 48.9599 46.7844 48.8339L47.4861 48.4573L47.832 48.269C47.908 48.2255 47.9914 48.1917 48.0796 48.1687L48.0796 48.1687C48.2566 48.2148 48.4337 48.2568 48.6108 48.3042C52.6186 49.3641 56.5163 50.6898 60.2659 52.2682C60.5307 52.3827 60.8123 52.4688 61.1036 52.5242C61.261 52.6323 61.4105 52.7481 61.5512 52.871C61.8142 53.106 62.0492 53.3614 62.2529 53.6337C62.4634 53.9108 62.6366 54.206 62.7693 54.5143C62.9037 54.8245 63.0152 55.1388 63.1333 55.4829C63.2655 55.1396 63.2914 54.7745 63.2087 54.4208C63.1351 54.0655 63.0147 53.718 62.8496 53.3844C62.7487 53.1783 62.6275 52.9794 62.4873 52.7897C62.5988 52.8087 62.7054 52.8276 62.8152 52.8479C63.1578 52.9162 63.4924 53.0091 63.8153 53.1257C64.1455 53.2434 64.4626 53.3849 64.7629 53.5483C65.0678 53.7123 65.3613 53.8911 65.704 54.0591C65.5578 53.7562 65.3341 53.4831 65.0482 53.2584C64.4872 52.7894 63.813 52.4234 63.0693 52.1841C62.9775 52.1543 62.889 52.1272 62.8004 52.1015L63.0119 51.966C63.23 51.8306 63.4382 51.6829 63.6431 51.5352C64.4711 50.9486 65.217 50.316 65.9581 49.682C67.4336 48.4248 68.8747 47.1812 70.6486 46.3548C72.4259 45.5105 74.405 44.9973 76.4475 44.851C77.4418 44.7818 78.443 44.8682 79.3985 45.1057C80.3668 45.3576 81.2853 45.725 82.125 46.1963C81.7725 45.3049 80.7757 44.6438 79.7035 44.3484C79.1036 44.1861 78.4821 44.0846 77.8525 44.0463C80.4003 43.3067 83.4415 43.0777 85.7646 43.5112L85.7941 43.6467C85.9982 44.6774 86.1165 45.7185 86.1483 46.7625C86.1761 47.7948 86.0876 48.8556 86.0073 49.9028C85.8291 52.0021 85.4957 54.0905 85.0088 56.1562C84.7886 57.1696 84.4083 58.1548 83.8776 59.0864C83.6117 59.5472 83.3037 59.9906 82.9562 60.4127C82.7813 60.6231 82.5972 60.8272 82.4037 61.025C82.3086 61.1253 82.2037 61.2188 82.1053 61.3163L82.0283 61.3895L81.9332 61.4883C81.8739 61.5539 81.8192 61.6222 81.7692 61.6929C81.3971 62.2538 81.2987 62.8146 81.2036 63.3552C81.1085 63.8957 81.0741 64.4281 81.0151 64.9497C80.9709 65.4565 80.8761 65.9595 80.7314 66.4534L80.7052 66.5238C74.5571 66.28 69.9683 65.4184 66.0335 63.7561C66.8795 63.4297 67.691 63.0585 68.4845 62.6791L70.529 61.6875C71.1602 61.6631 71.7946 61.6319 72.4291 61.5791C73.0636 61.5263 73.7079 61.4667 74.3407 61.3664C74.9773 61.2692 75.6059 61.1393 76.2229 60.9776C76.8479 60.8265 77.4303 60.5742 77.9361 60.2352C77.3356 60.3891 76.7254 60.5158 76.1081 60.6146C75.4961 60.7115 74.8774 60.7767 74.2555 60.8096C73.6309 60.8435 73.0062 60.8692 72.3783 60.8747L72.1815 60.8747L73.9555 60.0144C75.7851 59.1325 77.6181 58.2533 79.2346 57.0747C77.1934 57.6545 75.3703 58.5432 73.539 59.4238L68.0419 62.0465C67.7287 62.1955 67.4123 62.3391 67.0943 62.4814L67.1746 62.396C67.7189 61.781 68.2157 61.1564 68.5222 60.4357C68.1902 60.6892 67.8791 60.9607 67.591 61.2486C67.3057 61.5303 67.0155 61.8054 66.7057 62.0614C66.5532 62.1887 66.3925 62.3107 66.2253 62.4272C66.0581 62.5437 65.8974 62.6575 65.7335 62.7631C65.3925 62.9718 65.0137 63.1872 64.6563 63.427L64.6563 63.427C63.9115 63.6681 63.1369 63.8407 62.3463 63.9417C60.3494 64.1842 58.2788 63.8063 56.2475 63.3999C54.2164 62.9816 52.226 62.4387 50.2928 61.7755C48.3645 61.1011 46.4935 60.3199 44.6924 59.4373C43.818 59.0047 42.9568 58.55 42.1086 58.0731C41.943 57.6916 41.8868 57.2835 41.9446 56.881C42.0053 56.4122 42.2102 55.9326 42.3988 55.4382C42.5794 54.9477 42.7907 54.4652 43.0316 53.9927C43.2763 53.5199 43.5646 53.0634 43.894 52.6271C43.3702 52.9435 42.9375 53.3515 42.6267 53.822C42.314 54.2825 42.03 54.7559 41.7758 55.2404C41.4887 55.7279 41.2687 56.2405 41.12 56.7685C41.0629 56.9911 41.0365 57.2184 41.0413 57.4459C40.5183 57.1383 40.0051 56.8268 39.4985 56.5057L39.4985 56.5057ZM37.4787 59.608C39.61 59.0336 41.6495 59.0797 43.2415 59.7353L43.2513 59.7191C43.553 59.8722 43.853 60.0266 44.1579 60.1743C45.3821 60.7622 46.6357 61.3041 47.9189 61.7999C48.2885 62.1039 48.5978 62.4541 48.8354 62.8377C48.0074 63.0449 46.85 63.389 45.6384 63.7507C43.9235 64.2615 41.6463 64.9402 40.7806 65.0486C40.456 64.5291 40.0448 64.0499 39.5592 63.6247C38.2024 62.3856 36.5932 61.3526 34.8047 60.5726C35.6568 60.1814 36.5522 59.8584 37.4787 59.608L37.4787 59.608ZM8.40583 64.0108C9.40343 63.8822 10.4223 63.9242 11.3995 64.1341C12.3874 64.35 13.3245 64.7012 14.1719 65.1732C15.0255 65.651 15.7871 66.2324 16.4311 66.8977C17.0869 67.5223 17.4344 68.2999 17.659 69.1412C18.0771 70.8291 18.0591 72.6214 18.2542 74.4584C18.6185 73.582 18.8519 72.6722 18.9493 71.749C19.0603 70.8127 19.0106 69.8682 18.8018 68.9434C18.7323 68.6399 18.6415 68.34 18.5296 68.0452C18.6181 67.7824 18.9378 67.548 19.5133 67.2798C19.9469 67.3362 20.3614 67.4673 20.7298 67.6645C21.1581 67.8982 21.5511 68.1733 21.9004 68.4841C22.625 69.1195 23.212 69.8808 23.7809 70.6517C24.3498 71.4225 24.8449 72.2448 25.3253 73.0712C25.7903 73.9136 26.3255 74.7284 26.927 75.5097C26.7241 74.5929 26.4026 73.6968 25.9679 72.8369C25.5536 71.9685 25.084 71.1188 24.5612 70.2913C24.0343 69.4421 23.3847 68.6488 22.6267 67.9287C22.2278 67.5539 21.7657 67.2286 21.2544 66.9628C21.1072 66.8869 20.9544 66.8185 20.797 66.7582C21.1397 66.6322 21.52 66.4954 21.9446 66.3437C22.6004 66.108 23.3579 65.8384 24.1957 65.5214C24.5194 65.6958 24.8574 65.8515 25.2072 65.9874C25.7074 66.1719 26.185 66.3955 26.6335 66.6553C27.0749 66.9218 27.4708 67.2362 27.8107 67.59C28.1573 67.9574 28.4781 68.341 28.7714 68.7388C28.6963 68.2578 28.4967 67.7957 28.1861 67.3841C27.8761 66.962 27.4983 66.5764 27.0631 66.238C26.6206 65.9093 26.135 65.6226 25.6154 65.3832C25.4613 65.306 25.3154 65.2314 25.1711 65.1542C27.6753 64.168 30.0958 63.0428 32.416 61.7864C32.921 61.5154 33.3997 61.2635 33.862 61.0291L33.8407 61.0643C35.7342 61.8209 37.4328 62.8729 38.8428 64.1626C39.2493 64.5365 39.751 65.0377 40.0232 65.6067L40.1297 65.8289L40.415 65.856C40.456 65.856 40.5003 65.856 40.5478 65.856C41.3446 65.856 43.1562 65.3344 45.9581 64.5013C47.3976 64.0718 48.7567 63.6667 49.5387 63.5001L49.9109 63.4202L49.8978 63.1018C49.873 62.8747 49.7932 62.6541 49.6633 62.4529C49.7436 62.4814 49.8273 62.5125 49.906 62.5396C51.8894 63.2112 53.9308 63.7596 56.013 64.1802C57.0572 64.3934 58.1139 64.563 59.1788 64.6882L59.5067 64.7194C60.376 65.4896 61.3762 66.1513 62.4759 66.6837C63.6001 67.2348 64.7736 67.7144 65.986 68.1184C68.3984 68.9137 70.8915 69.5307 73.4358 69.9621C74.0735 70.0691 74.7178 70.164 75.3769 70.2222C76.0531 70.2914 76.737 70.2914 77.4131 70.2222C77.7624 70.1832 78.1028 70.1015 78.423 69.9797C78.3706 70.5487 78.2935 71.1204 78.2034 71.6894C78.0711 72.5221 77.9072 73.3516 77.7115 74.178C77.5274 74.9984 77.2904 75.8101 77.0016 76.6097C76.6914 77.3844 76.261 78.1225 75.7212 78.8057C75.1787 79.5026 74.5714 80.1634 73.9046 80.7823C73.5768 81.0925 73.2226 81.4 72.8718 81.6913C72.5342 81.9587 72.1501 82.1829 71.7323 82.3565C70.852 82.7119 69.9128 82.9575 68.9452 83.0853C67.9571 83.2238 66.9571 83.2959 65.9548 83.3007C65.4515 83.3007 64.9482 83.3007 64.4432 83.2736C64.1924 83.2628 63.9399 83.2492 63.6891 83.233C63.4382 83.2167 63.2103 83.1815 62.966 83.149C61.9824 83.0054 60.9823 82.8117 60.0002 82.5976C59.8953 82.5746 59.792 82.5488 59.6887 82.5245C59.7937 82.5028 59.9002 82.4811 60.0052 82.4554C60.5356 82.3294 61.0527 82.1676 61.5512 81.9717C62.0556 81.7835 62.5072 81.5109 62.8775 81.1711C62.3676 81.3418 61.8807 81.4908 61.3823 81.6236C60.8857 81.7552 60.3768 81.8531 59.8609 81.9162C59.3514 81.9809 58.8369 82.0148 58.3214 82.0178C58.0361 82.0178 57.7525 82.0056 57.4738 81.9812C56.3721 81.6872 55.2818 81.3662 54.2079 81.0099C50.7109 79.8353 47.3221 78.3262 44.535 76.2494C44.801 76.2581 45.0674 76.2449 45.3302 76.2101C46.1384 76.1063 46.897 75.822 47.5238 75.3878C47.8371 75.1822 48.0819 74.9141 48.2353 74.6088C47.891 74.7768 47.5795 74.9367 47.268 75.0776C46.9565 75.2154 46.6263 75.3223 46.2844 75.3959C45.9627 75.465 45.6328 75.5045 45.3007 75.5138C45.8059 75.1806 46.2523 74.7907 46.627 74.3555C47.0464 73.8781 47.331 73.3291 47.4599 72.7488C47.074 73.2126 46.6348 73.6445 46.1483 74.0385C45.6684 74.416 45.1555 74.7637 44.6137 75.0789C43.5039 75.7111 42.3156 76.2438 41.0691 76.668C40.585 76.8378 40.0981 77.0013 39.6084 77.1584C39.6756 76.9782 39.7363 76.8008 39.7871 76.6246C39.874 76.3374 39.951 76.0556 40.0543 75.7806C40.1576 75.5056 40.2642 75.2388 40.3626 74.9326C40.0599 75.1171 39.8121 75.3562 39.6379 75.6316C39.4559 75.9026 39.2985 76.1735 39.1461 76.4445C38.9936 76.7154 38.8641 76.9796 38.6985 77.2112C38.622 77.3237 38.5342 77.4306 38.4362 77.5309C37.6902 77.7653 36.9393 77.9942 36.1868 78.2245C36.219 78.0904 36.2403 77.9546 36.2507 77.8181C36.2705 77.5751 36.2623 77.3311 36.2262 77.0893C36.1974 76.8476 36.0984 76.6152 35.9376 76.4119C35.8639 76.6343 35.8092 76.8606 35.7737 77.0893C35.7313 77.3036 35.6699 77.5151 35.59 77.722C35.5137 77.9247 35.4195 78.1226 35.308 78.3139C35.2638 78.3912 35.2146 78.4657 35.1654 78.5402C34.5621 78.729 33.9609 78.9222 33.362 79.12C32.0701 79.544 30.7962 80.0196 29.5502 80.5506L28.66 80.9421C28.4472 81.0195 28.2104 81.0399 27.9829 81.0004C27.7164 80.9548 27.462 80.8699 27.232 80.7497C26.9841 80.6127 26.7587 80.4496 26.5614 80.2648C26.128 79.8656 25.7517 79.4265 25.44 78.9561C25.1351 78.4792 24.8777 77.9658 24.6022 77.4415C24.3253 76.9075 24.0026 76.3905 23.6366 75.8944C23.2631 75.4003 22.8231 74.9426 22.325 74.5302C22.8775 75.6032 23.3415 76.6314 23.7678 77.7098C23.9867 78.2659 24.2513 78.809 24.5596 79.3354C24.8911 79.8744 25.2977 80.3795 25.7712 80.8405C25.8565 80.9245 25.9515 81.0071 26.0483 81.0884C24.7941 81.9405 23.753 82.9281 22.6054 83.7559C21.9339 84.2551 21.1938 84.6875 20.4003 85.0442C20.0034 85.2167 19.5913 85.3639 19.1674 85.4845C18.7054 85.6461 18.2657 85.8483 17.8558 86.0873C17.8181 86.1077 17.782 86.1239 17.746 86.1415L6.49092 73.0848C4.476 70.7438 3.51363 68.6142 3.53986 66.5821C4.58749 65.1786 6.45649 64.2669 8.40583 64.0108L8.40583 64.0108ZM3.88415 73.8163L2.32173 71.8818C1.81349 71.2437 1.35116 70.5988 1.11015 69.9188C1.05064 69.7516 1.0068 69.5808 0.978995 69.408C0.960961 69.3227 0.959321 69.2373 0.949484 69.1506C0.942153 69.0717 0.942152 68.9925 0.949484 68.9136C0.990227 68.581 1.1112 68.2586 1.30525 67.9653C1.59544 67.5074 2.07089 67.1077 2.58404 66.9479C2.6611 69.0382 3.68413 71.203 5.69905 73.5481L16.8147 86.4558C16.7868 86.4558 16.759 86.468 16.7295 86.4707C16.3253 86.5127 15.915 86.4873 15.5228 86.3962C14.6982 86.1924 13.9541 85.8108 13.3669 85.2908C12.7481 84.7397 12.1932 84.1419 11.7094 83.5053L10.1519 81.5639L3.88415 73.8163Z" id="Shape" fill="#FFFFFF" fill-rule="evenodd" stroke="none" />
        </g>
      </g>
    </g>
  </g>
</svg>