<?xml version="1.0" encoding="utf-8"?>
<svg width="100px" height="100px" viewBox="0 0 100 100" version="1.1" xmlns:xlink="http://www.w3.org/1999/xlink" xmlns="http://www.w3.org/2000/svg">
  <defs>
    <path d="M0 0L100 0L100 100L0 100L0 0Z" id="path_1" />
    <clipPath id="mask_1">
      <use xlink:href="#path_1" />
    </clipPath>
  </defs>
  <g id="Asset-7">
    <path d="M0 0L100 0L100 100L0 100L0 0Z" id="Background" fill="#FFFFFF" fill-opacity="0" fill-rule="evenodd" stroke="none" />
    <g clip-path="url(#mask_1)">
      <g id="Layer_2">
        <g id="Layer_1-2">
          <path d="M67.349 51.374C68.5851 51.374 69.5871 50.7216 69.5871 49.9168C69.5871 49.1121 68.5851 48.4597 67.349 48.4597C66.113 48.4597 65.1109 49.1121 65.1109 49.9168C65.1121 50.7212 66.1134 51.3731 67.3489 51.374L67.349 51.374ZM67.349 48.9017C67.9822 48.9014 68.5533 49.1495 68.7958 49.5303C69.0383 49.9111 68.9045 50.3495 68.4568 50.641C68.009 50.9325 67.3357 51.0197 66.7508 50.8618C66.1659 50.7039 65.7848 50.3321 65.7852 49.9198C65.784 49.3567 66.4841 48.8995 67.3491 48.8987L67.349 48.9017Z" id="Shape" fill="#FFFFFF" fill-rule="evenodd" stroke="none" />
          <path d="M67.2006 50.5432C67.5897 50.5432 67.9404 50.3906 68.0893 50.1565C68.2382 49.9225 68.1559 49.6531 67.8808 49.474C67.6057 49.2948 67.1919 49.2413 66.8325 49.3382C66.473 49.4351 66.2386 49.6635 66.2386 49.9168C66.2389 50.263 66.6698 50.5433 67.2011 50.5432L67.2006 50.5432Z" id="Shape" fill="#FFFFFF" fill-rule="evenodd" stroke="none" />
          <path d="M66.1097 52.7637L66.1097 52.5434C66.1097 52.4723 66.1484 52.4115 66.2257 52.3612C66.303 52.3109 66.3963 52.2857 66.5056 52.2857L67.9946 52.2857C68.1039 52.2857 68.1972 52.3109 68.2745 52.3612C68.3518 52.4115 68.3904 52.4723 68.3904 52.5434L68.3904 52.984C68.3904 53.0551 68.3518 53.1159 68.2745 53.1662C68.1972 53.2165 68.1039 53.2417 67.9946 53.2417L66.5056 53.2417C66.3963 53.2417 66.303 53.2165 66.2257 53.1662C66.1484 53.1159 66.1097 53.0551 66.1097 52.984L66.1097 52.7637Z" id="Rectangle" fill="#FFFFFF" fill-rule="evenodd" stroke="none" />
          <path d="M39.814 32.5697C39.5344 32.5697 39.3089 32.7932 39.3089 33.0693C39.3089 33.3453 39.539 33.5697 39.814 33.5697C40.0891 33.5697 40.3181 33.3453 40.3181 33.0693C40.3181 32.7932 40.0891 32.5697 39.814 32.5697L39.814 32.5697Z" id="Shape" fill="#FFFFFF" fill-rule="evenodd" stroke="none" />
          <path d="M41.2398 36.6234C41.5033 36.5559 41.6137 36.286 41.4872 36.017C41.3606 35.7479 41.0441 35.5868 40.7806 35.6535C40.5171 35.7201 40.4067 35.9908 40.5344 36.2599C40.6621 36.529 40.9774 36.6901 41.2398 36.6234L41.2398 36.6234Z" id="Shape" fill="#FFFFFF" fill-rule="evenodd" stroke="none" />
          <path d="M79.3761 33.2348C79.6546 33.2348 79.8813 33.0105 79.8813 32.7344C79.8813 32.4583 79.6511 32.2348 79.3761 32.2348C79.1011 32.2348 78.8721 32.4583 78.8721 32.7344C78.8721 33.0105 79.0976 33.2348 79.3761 33.2348L79.3761 33.2348Z" id="Shape" fill="#FFFFFF" fill-rule="evenodd" stroke="none" />
          <path d="M77.9469 36.2887C78.2093 36.3554 78.5223 36.1926 78.6523 35.9251C78.7823 35.6577 78.6684 35.3852 78.4061 35.3186C78.1437 35.2519 77.8307 35.4147 77.6995 35.6822C77.5684 35.9496 77.6834 36.2212 77.9469 36.2887L77.9469 36.2887Z" id="Shape" fill="#FFFFFF" fill-rule="evenodd" stroke="none" />
          <path d="M43.3041 80.7941C42.4986 80.4323 41.6724 80.254 40.8566 80.484C40.4722 80.5926 39.9153 80.9687 39.7059 81.2182C39.4757 81.4953 39.4757 81.8475 39.4884 82.1831C39.516 82.9652 39.6299 83.8455 40.4757 84.4179C40.5298 83.8485 41.5873 83.5938 42.3502 83.8665C43.1131 84.1392 43.5596 84.7385 43.7161 85.3139C43.7759 85.5327 43.8012 85.7634 43.685 85.9582C44.6194 85.7432 45.1878 85.0794 45.296 84.3849C45.4041 83.6904 45.1211 82.9615 44.7482 82.2715C44.4456 81.7066 44.0348 81.1215 43.3041 80.7941L43.3041 80.7941Z" id="Shape" fill="#FFFFFF" fill-rule="evenodd" stroke="none" />
          <path d="M44.0187 74.3025C44.731 73.5414 44.9761 72.5584 44.8242 71.6377C44.7413 71.1185 44.4306 70.5694 43.7391 70.3057C43.0475 70.0419 41.9497 70.248 41.8209 70.7626C42.347 71.4099 42.5214 72.1539 42.3157 72.8738C42.219 73.2035 42.013 73.5481 41.5723 73.7226C41.1316 73.8972 40.4216 73.7893 40.3065 73.4619C39.9337 73.7616 40.0396 74.2261 40.3894 74.5385C40.4426 74.5843 40.504 74.6258 40.5724 74.6621C41.0845 74.944 41.7601 75.0664 42.4223 74.9973C43.0845 74.9282 43.6675 74.6745 44.0187 74.3025L44.0187 74.3025Z" id="Shape" fill="#FFFFFF" fill-rule="evenodd" stroke="none" />
          <path d="M56.3449 89.1377C55.8731 88.7249 55.1217 88.4177 54.3335 88.4507C54.0911 88.4567 53.8567 88.5088 53.6592 88.6005C53.0332 88.9099 53.245 89.5445 53.5177 90.024C53.6937 90.3349 53.8767 90.6525 54.2081 90.9057C54.8195 91.3598 55.7951 91.5244 56.6683 91.3208C56.8984 91.2631 57.1286 91.171 57.2321 91.0211C57.3357 90.8713 57.2793 90.7132 57.2321 90.5604C57.048 90.0562 56.8156 89.5505 56.3449 89.1377L56.3449 89.1377Z" id="Shape" fill="#FFFFFF" fill-rule="evenodd" stroke="none" />
          <path d="M65.2709 74.6778C66.4216 76.3508 68.6344 77.3337 70.212 76.8729C71.7896 76.4122 72.1359 74.6838 70.9852 73.0117C69.8345 71.3395 67.6229 70.3566 66.0453 70.8166C64.4677 71.2766 64.1202 73.0057 65.2709 74.6778L65.2709 74.6778Z" id="Shape" fill="#FFFFFF" fill-rule="evenodd" stroke="none" />
          <path d="M63.4838 85.917C63.524 86.2289 63.6507 86.5335 63.8578 86.816C64.2709 87.4303 64.9786 88.0506 65.9993 88.1405C67.0199 88.2304 67.9877 87.7337 68.5101 87.1486C69.3324 86.2064 69.3645 85.0568 68.5952 84.0957C68.3145 83.7534 67.8853 83.426 67.3019 83.3466C66.6954 83.2671 66.0936 83.4762 65.5885 83.7069C64.4493 84.2276 63.4102 85.0127 63.4838 85.917L63.4838 85.917Z" id="Shape" fill="#FFFFFF" fill-rule="evenodd" stroke="none" />
          <path d="M52.7352 77.3382C53.4643 77.283 54.1536 77.5665 54.3901 78.0189C54.6266 78.4713 54.3461 78.9698 53.7167 79.2156C54.1494 79.7962 55.4624 79.8824 56.3035 79.5415C57.1447 79.2006 57.6061 78.5788 57.9594 77.9757C58.0604 77.826 58.1234 77.6666 58.1458 77.5037C58.1473 77.3313 58.0883 77.1609 57.9732 77.0055C57.3506 76.0945 55.5395 75.6188 54.1206 75.9934C53.291 76.2129 52.5971 76.7628 52.7352 77.3382L52.7352 77.3382Z" id="Shape" fill="#FFFFFF" fill-rule="evenodd" stroke="none" />
          <path d="M64.9107 66.6976C65.1423 66.8796 65.4332 67.0257 65.7622 67.1254C65.5391 66.9583 65.3503 66.7729 65.2007 66.574C65.1284 66.4795 65.0691 66.3809 65.0235 66.2796C64.9743 66.192 64.9505 66.0993 64.9533 66.0061C64.9572 65.9335 64.9977 65.8638 65.0684 65.8076C65.1476 65.7467 65.2461 65.6976 65.3572 65.6638C65.477 65.627 65.6053 65.6032 65.7369 65.5933C65.881 65.5849 66.0261 65.5869 66.1696 65.5993C66.4688 65.6241 66.8025 65.6825 67.1385 65.7342C67.4745 65.7859 67.7955 65.8368 68.1119 65.9035C68.7586 66.0325 69.3573 66.2473 69.8702 66.5343C69.5388 66.1275 68.9497 65.8114 68.2984 65.6061C67.9776 65.5045 67.6457 65.4186 67.3053 65.3491C66.9647 65.2703 66.6149 65.2094 66.2593 65.1671C66.0605 65.1471 65.8584 65.1449 65.6587 65.1603C65.4454 65.1772 65.2394 65.2213 65.0523 65.2899C64.8548 65.3597 64.6868 65.46 64.5632 65.5821C64.4346 65.7125 64.3789 65.8678 64.4056 66.0219C64.47 66.3133 64.6829 66.5088 64.9107 66.6976L64.9107 66.6976Z" id="Shape" fill="#FFFFFF" fill-rule="evenodd" stroke="none" />
          <path d="M82.7143 77.8296C82.6422 77.558 82.4936 77.2974 82.2759 77.061C82.0481 76.8176 81.6808 76.6435 81.2552 76.577C81.0492 76.5463 80.8352 76.5463 80.6292 76.577C80.4288 76.6105 80.2494 76.6838 80.116 76.7868C80.4255 76.6115 80.857 76.6092 81.2034 76.6946C81.5512 76.7794 81.8336 76.9501 81.9893 77.1696C82.1509 77.3914 82.2488 77.6306 82.2782 77.8753C82.3184 78.1241 82.3414 78.3825 82.3495 78.6372C82.3665 79.1466 82.3281 79.6561 82.2344 80.1618C82.1435 80.6675 82.0238 81.1695 81.6878 81.5853C81.5347 81.7919 81.3135 81.974 81.04 82.1187C80.7779 82.259 80.4613 82.3495 80.1252 82.3801C79.7963 82.4064 79.4639 82.3548 79.1885 82.2348C78.8962 82.1057 78.6559 81.9328 78.4878 81.7306C78.1276 81.3208 78.0896 80.8046 78.1679 80.3012C78.2461 79.7977 78.4118 79.28 78.5131 78.7631C78.3903 79.0128 78.2714 79.2626 78.1564 79.5123C78.0413 79.761 77.9262 80.0127 77.8468 80.2727C77.7613 80.5366 77.7227 80.8061 77.7318 81.0758C77.7409 81.3573 77.8412 81.6343 78.0263 81.8887C78.212 82.1545 78.5007 82.3842 78.864 82.5554C79.2498 82.7355 79.7212 82.8204 80.1942 82.7952C81.1447 82.7337 81.8984 82.294 82.2931 81.7883C82.6878 81.2826 82.7971 80.7267 82.8754 80.2053C82.945 79.6776 82.945 79.147 82.8754 78.6193C82.8421 78.3544 82.7884 78.0909 82.7143 77.8296L82.7143 77.8296Z" id="Shape" fill="#FFFFFF" fill-rule="evenodd" stroke="none" />
          <path d="M62.7129 75.3768C63.1007 75.8496 63.5402 76.2886 63.9683 76.7313C64.4159 77.1689 64.9015 77.6221 65.5585 77.9937C65.8912 78.1796 66.2618 78.3347 66.6598 78.4544C67.0655 78.5792 67.5059 78.6493 67.9543 78.6605C68.3958 78.6685 68.8355 78.6204 69.2488 78.5189C69.6381 78.4228 70.0142 78.3055 70.3731 78.1683C70.7336 78.0323 71.0638 77.865 71.3546 77.6708C71.6435 77.477 71.8428 77.2343 71.93 76.9703C71.5847 77.452 70.8782 77.7195 70.1694 77.912C69.4606 78.1046 68.6919 78.2626 68.0015 78.2057C67.2896 78.1298 66.6319 77.9111 66.1201 77.5801C65.5804 77.2558 65.1397 76.8452 64.7162 76.4122C64.2928 75.9792 63.8394 75.5461 63.4505 75.1086C63.0522 74.6805 62.7305 74.224 62.4919 73.7481C62.2619 73.2753 62.1836 72.7768 62.2618 72.2835C62.3314 71.7739 62.6309 71.2891 63.1225 70.89C62.4678 71.2039 62.0363 71.7059 61.8303 72.2318C61.632 72.7677 61.6281 73.3264 61.8188 73.8635C61.9937 74.4007 62.3366 74.9026 62.7129 75.3768L62.7129 75.3768Z" id="Shape" fill="#FFFFFF" fill-rule="evenodd" stroke="none" />
          <path d="M52.3359 75.2667C51.9303 75.4596 51.5725 75.6918 51.275 75.9552C50.9722 76.2273 50.7358 76.5283 50.5742 76.8475C50.2628 77.5002 50.2401 78.1968 50.5086 78.8575C50.6345 79.1838 50.8159 79.4999 51.0494 79.8C51.2771 80.1071 51.5738 80.3904 51.9297 80.6405C52.299 80.9031 52.7763 81.091 53.3048 81.1822C53.8249 81.2631 54.4072 81.2241 54.8111 81.0226C54.3522 81.0809 53.8766 81.034 53.4647 80.89C53.0803 80.7529 52.7505 80.5592 52.5016 80.3244C52.2413 80.0828 52.0189 79.8248 51.8377 79.5542C51.6498 79.2823 51.4959 79.0009 51.3774 78.7129C51.1334 78.1413 51.0855 77.5418 51.237 76.9568C51.382 76.3672 51.7916 75.8046 52.3359 75.2667L52.3359 75.2667Z" id="Shape" fill="#FFFFFF" fill-rule="evenodd" stroke="none" />
          <path d="M60.8982 78.0859C60.9792 77.784 60.9854 77.4757 60.9166 77.1726C60.7608 76.5683 60.3072 76.0135 59.6244 75.5918C58.9628 75.176 58.0928 74.8974 57.208 74.8614C57.9976 75.0685 58.6962 75.3998 59.2412 75.8256C59.7656 76.2315 60.1147 76.721 60.2527 77.2438C60.3187 77.5027 60.3249 77.7666 60.2711 78.0267C60.2204 78.291 60.1183 78.55 59.9673 78.7976C59.6525 79.3126 59.146 79.7685 58.4933 80.1244C59.3183 79.9108 60.011 79.4703 60.4426 78.9414C60.6625 78.6736 60.8163 78.3849 60.8982 78.0859L60.8982 78.0859Z" id="Shape" fill="#FFFFFF" fill-rule="evenodd" stroke="none" />
          <path d="M45.3765 69.8307C44.9575 69.5375 44.4034 69.3411 43.7978 69.271C43.5019 69.2371 43.1984 69.2427 42.906 69.2875C42.6211 69.3312 42.3591 69.4232 42.1465 69.5542C42.6304 69.3843 43.2028 69.3571 43.7195 69.4793C44.2169 69.5851 44.655 69.7846 44.9784 70.0524C45.284 70.3253 45.4902 70.6399 45.5813 70.9724C45.6822 71.3159 45.7189 71.6661 45.6907 72.0153C45.6743 72.3732 45.6286 72.7303 45.5537 73.0851C45.4871 73.4359 45.3668 73.7815 45.1947 74.1167C44.8437 74.773 44.1947 75.3903 43.181 75.7349C43.7458 75.6418 44.2622 75.4522 44.6769 75.1858C45.1017 74.9165 45.4432 74.5965 45.6826 74.2433C45.9173 73.8934 46.0854 73.5261 46.1831 73.1495C46.2796 72.7778 46.3403 72.4025 46.365 72.0258C46.387 71.6406 46.3332 71.2551 46.205 70.8788C46.0683 70.4897 45.7834 70.1292 45.3765 69.8307L45.3765 69.8307Z" id="Shape" fill="#FFFFFF" fill-rule="evenodd" stroke="none" />
          <path d="M56.7109 87.6116C56.0599 87.3457 55.3044 87.2085 54.536 87.2168C53.7835 87.222 53.0229 87.3816 52.4786 87.6955C53.13 87.5487 53.8245 87.5015 54.5084 87.5577C55.1618 87.6114 55.7897 87.756 56.3495 87.9817C56.9011 88.2257 57.386 88.5281 57.7845 88.8762C58.2056 89.2291 58.5784 89.6254 59.0088 90C58.8396 89.5408 58.5752 89.0987 58.2229 88.6859C57.8603 88.2532 57.3414 87.8845 56.7109 87.6116L56.7109 87.6116Z" id="Shape" fill="#FFFFFF" fill-rule="evenodd" stroke="none" />
          <path d="M68.4111 89.4786C68.7598 89.2918 69.024 89.0468 69.1752 88.7699C68.7149 89.2583 67.9094 89.5385 67.1039 89.6164C66.2985 89.6943 65.463 89.5872 64.6875 89.4044C63.9073 89.2081 63.1398 88.9706 62.5426 88.6275C61.942 88.2891 61.5048 87.8446 61.2837 87.3479C61.0422 86.8371 60.9429 86.3023 60.9903 85.7687C61.0149 85.2258 61.1578 84.688 61.4149 84.1714C61.6711 83.6563 62.0946 83.1831 62.6565 82.7839C63.2379 82.373 63.9814 82.074 64.806 81.9194C63.9234 81.9456 63.0615 82.2018 62.3573 82.5749C61.6552 82.9626 61.1063 83.4544 60.7567 84.0088C60.4086 84.5595 60.1996 85.1431 60.1376 85.7372C60.0615 86.3396 60.1579 86.946 60.4218 87.5255C60.7049 88.124 61.2514 88.6554 61.9937 89.0538C62.3626 89.2409 62.7629 89.4003 63.187 89.5287C63.5989 89.6561 64.027 89.7599 64.4665 89.8389C65.3388 90.0007 66.2984 90.0637 67.2006 89.8966C67.6443 89.8135 68.0565 89.6711 68.4111 89.4786L68.4111 89.4786Z" id="Shape" fill="#FFFFFF" fill-rule="evenodd" stroke="none" />
          <path d="M71.0543 85.7057C71.1366 85.3258 71.1167 84.9394 70.9956 84.564C70.8757 84.1872 70.6507 83.8279 70.3316 83.5039C70.0198 83.1832 69.6024 82.9117 69.1096 82.709C69.3944 83.0174 69.6466 83.338 69.8645 83.6687C70.0691 83.988 70.227 84.3191 70.3362 84.6576C70.4447 84.9973 70.5086 85.3425 70.5272 85.6892C70.5514 86.0413 70.5273 86.398 70.4996 86.7725C70.79 86.444 70.9784 86.0815 71.0543 85.7057L71.0543 85.7057Z" id="Shape" fill="#FFFFFF" fill-rule="evenodd" stroke="none" />
          <path d="M77.237 83.6919C76.6502 83.3983 76.2027 83.0028 75.9459 82.5509C75.7099 82.093 75.6119 81.6097 75.6571 81.1275C75.697 80.6328 75.8006 80.1411 75.9666 79.6576C76.1162 79.1639 76.2784 78.671 76.4821 78.193C76.6722 77.7159 76.9423 77.2539 77.2876 76.8152C77.6349 76.3799 78.1031 75.9903 78.6684 75.666C79.2427 75.332 79.9393 75.0998 80.6913 74.9917C79.9043 75.0007 79.1264 75.2 78.467 75.4974C77.806 75.8029 77.249 76.1938 76.8308 76.6459C76.4167 77.094 76.0919 77.5746 75.8642 78.0761C75.634 78.5728 75.4626 79.0725 75.2992 79.5745C75.1327 80.083 75.0364 80.6003 75.0115 81.12C75.0115 81.6444 75.1128 82.1868 75.4499 82.6828C75.7856 83.1763 76.3438 83.5918 77.0505 83.874C77.3988 84.0122 77.7849 84.105 78.1874 84.1474C78.5831 84.1884 78.9882 84.1642 79.3657 84.077C78.6048 84.1471 77.8333 84.0076 77.237 83.6919L77.237 83.6919Z" id="Shape" fill="#FFFFFF" fill-rule="evenodd" stroke="none" />
          <path d="M50.6663 68.4312C51.4225 68.6489 52.2627 68.7111 53.0747 68.6095C53.8665 68.5225 54.5912 68.2663 55.1344 67.8813C54.4773 68.1085 53.7529 68.2411 53.0102 68.2702C51.5697 68.3355 50.174 67.9289 49.2889 67.1861C48.8268 66.8062 48.4959 66.3659 48.3188 65.8953C48.2415 66.4154 48.4308 66.9375 48.8574 67.3801C49.2825 67.8419 49.9134 68.2085 50.6663 68.4312L50.6663 68.4312Z" id="Shape" fill="#FFFFFF" fill-rule="evenodd" stroke="none" />
          <path d="M67.6459 68.2499C67.2065 68.2133 66.7819 68.1223 66.3951 67.9817C66.642 68.2679 67.0448 68.4834 67.5239 68.5855C68.542 68.8233 69.6781 68.5823 70.2856 67.9997C70.5799 67.7328 70.7097 67.4037 70.6492 67.0775C70.4641 67.3408 70.2031 67.5786 69.8806 67.7779C69.2886 68.1526 68.4629 68.327 67.6459 68.2499L67.6459 68.2499Z" id="Shape" fill="#FFFFFF" fill-rule="evenodd" stroke="none" />
          <path d="M77.6788 71.846C78.1167 71.9316 78.5771 71.9571 79.0309 71.9209C79.4751 71.8867 79.896 71.7731 80.2472 71.5927C79.429 71.789 78.5844 71.7224 77.8549 71.5178C77.1289 71.3151 76.5067 70.9819 76.061 70.5574C75.6133 70.1289 75.3452 69.6239 75.1761 69.0987C75.0242 68.557 74.93 68.009 74.8941 67.4588C74.6636 68.0088 74.5814 68.5807 74.6513 69.1489C74.6879 69.439 74.7744 69.7255 74.9091 70.003C75.0504 70.2832 75.2472 70.5502 75.4948 70.7971C76.014 71.3011 76.786 71.6718 77.6788 71.846L77.6788 71.846Z" id="Shape" fill="#FFFFFF" fill-rule="evenodd" stroke="none" />
          <path d="M69.7724 92.4026C69.2897 92.3995 68.8116 92.3406 68.3605 92.2288C67.8795 92.1099 67.4287 91.9444 67.0234 91.7381C67.2551 92.0723 67.6402 92.3516 68.1258 92.5375C69.1352 92.9388 70.4033 92.9422 71.4179 92.5464C71.9065 92.3638 72.2955 92.0864 72.5306 91.7531C72.1228 91.9571 71.6701 92.12 71.1878 92.2363C70.7346 92.3454 70.2555 92.4016 69.7724 92.4026L69.7724 92.4026Z" id="Shape" fill="#FFFFFF" fill-rule="evenodd" stroke="none" />
          <path d="M53.2772 83.8957C53.5348 83.9571 53.7716 84.0504 53.9745 84.1707C54.2086 84.3095 54.4054 84.4728 54.5568 84.6539C54.6518 84.4168 54.5914 84.1648 54.3899 83.9579C53.9744 83.5006 53.1156 83.3028 52.3509 83.4882C51.9937 83.5666 51.7022 83.7377 51.5454 83.9609C51.8379 83.8812 52.1493 83.8349 52.4659 83.8238C52.741 83.8124 53.0168 83.8368 53.2772 83.8957L53.2772 83.8957Z" id="Shape" fill="#FFFFFF" fill-rule="evenodd" stroke="none" />
          <path d="M49.4385 74.053C49.1793 74.1601 48.9103 74.2567 48.633 74.3422C48.3563 74.4287 48.0715 74.5038 47.7803 74.567C47.4834 74.6321 47.1739 74.6846 46.8229 74.743C47.1404 74.8594 47.5015 74.9157 47.8655 74.9056C48.6052 74.8909 49.302 74.6762 49.7883 74.313C50.029 74.1354 50.1885 73.9173 50.2486 73.6837C49.962 73.8215 49.71 73.9437 49.4385 74.053L49.4385 74.053Z" id="Shape" fill="#FFFFFF" fill-rule="evenodd" stroke="none" />
          <path d="M76.214 74.1635C76.0599 74.2173 75.8979 74.2593 75.7307 74.2888C75.5477 74.3223 75.3429 74.3447 75.0863 74.3774C75.2415 74.5221 75.4695 74.621 75.725 74.6545C75.9927 74.6926 76.2712 74.667 76.5155 74.5818C76.7585 74.497 76.9549 74.3593 77.0747 74.1898C77.1908 74.0295 77.2194 73.8455 77.1553 73.6717C76.9562 73.7891 76.8031 73.8881 76.6513 73.9687C76.5147 74.0431 76.3683 74.1083 76.214 74.1635L76.214 74.1635Z" id="Shape" fill="#FFFFFF" fill-rule="evenodd" stroke="none" />
          <path d="M58.369 69.9955C58.6943 69.9256 59.0304 69.8791 59.3713 69.8569C59.7395 69.8348 60.1103 69.8391 60.4771 69.8696C60.1865 69.6765 59.8064 69.5509 59.3954 69.5123C58.5526 69.4269 57.6984 69.6119 57.1021 70.009C56.8086 70.1998 56.619 70.4479 56.5624 70.7155C56.8285 70.5482 57.1218 70.4003 57.4369 70.2742C57.7309 70.1592 58.0435 70.0658 58.369 69.9955L58.369 69.9955Z" id="Shape" fill="#FFFFFF" fill-rule="evenodd" stroke="none" />
          <path d="M78.2657 89.254C77.6817 89.1633 77.077 89.3122 76.6823 89.6437C76.4856 89.8031 76.3779 90.0119 76.3808 90.2279C76.5835 90.1225 76.7962 90.0282 77.0172 89.9456C77.2106 89.8747 77.4106 89.814 77.6155 89.7639C77.82 89.7141 78.0287 89.6745 78.2404 89.6454C78.4845 89.6136 78.7314 89.5947 78.9791 89.5891C78.8072 89.4144 78.5522 89.2946 78.2657 89.254L78.2657 89.254Z" id="Shape" fill="#FFFFFF" fill-rule="evenodd" stroke="none" />
          <path d="M66.2536 79.5625C66.0672 79.2898 65.3445 79.2358 64.6426 79.4411C63.9407 79.6464 63.5195 80.0337 63.7071 80.3057C63.8946 80.5776 64.6173 80.6323 65.3181 80.427C66.0188 80.2218 66.4411 79.8352 66.2536 79.5625L66.2536 79.5625Z" id="Shape" fill="#FFFFFF" fill-rule="evenodd" stroke="none" />
          <path d="M53.7996 71.9113C54.1667 71.7702 54.3634 71.4632 54.2392 71.2262C54.1149 70.9893 53.7179 70.9103 53.3508 71.0515C52.9838 71.1927 52.787 71.4997 52.9101 71.7366C53.0332 71.9735 53.4325 72.0525 53.7996 71.9113L53.7996 71.9113Z" id="Shape" fill="#FFFFFF" fill-rule="evenodd" stroke="none" />
          <path d="M50.5477 82.3208C50.1312 82.4813 49.8872 82.7933 50.0023 83.0187C50.1174 83.244 50.5477 83.2908 50.9643 83.1293C51.3808 82.9678 51.6248 82.6567 51.5097 82.4314C51.3946 82.2061 50.9631 82.1592 50.5477 82.3208L50.5477 82.3208Z" id="Shape" fill="#FFFFFF" fill-rule="evenodd" stroke="none" />
          <path d="M77.9826 86.2419C78.0401 85.972 77.6374 85.7077 77.0736 85.6529C76.5097 85.5982 76.0138 85.7734 75.9562 86.044C75.8987 86.3146 76.3014 86.5781 76.8653 86.6329C77.4291 86.6877 77.9251 86.5125 77.9826 86.2419L77.9826 86.2419Z" id="Shape" fill="#FFFFFF" fill-rule="evenodd" stroke="none" />
          <path d="M71.1325 71.1957C70.7788 70.9821 70.3857 70.7978 69.9623 70.6473C69.5413 70.4997 69.0931 70.3877 68.6286 70.3139C67.7147 70.1596 66.7524 70.177 65.8531 70.3641C66.7466 70.3502 67.6364 70.4436 68.4779 70.6398C68.8851 70.7368 69.2767 70.8598 69.647 71.0069C70.0157 71.1498 70.3578 71.32 70.6665 71.5141C71.2922 71.9047 71.7883 72.3746 72.1244 72.8948C72.4705 73.4313 72.6617 74.0048 72.6883 74.5865C72.9283 73.9917 72.9043 73.3649 72.6192 72.7787C72.3432 72.1759 71.8308 71.6304 71.1325 71.1957L71.1325 71.1957Z" id="Shape" fill="#FFFFFF" fill-rule="evenodd" stroke="none" />
          <path d="M61.3551 58.1668L57.7752 58.1668C57.4425 58.1672 57.1729 58.3427 57.1723 58.5593L57.1723 59.4404C57.1729 59.657 57.4425 59.8325 57.7752 59.8329L61.3551 59.8329C61.6878 59.8325 61.9574 59.657 61.958 59.4404L61.958 58.5593C61.9574 58.3427 61.6878 58.1672 61.3551 58.1668L61.3551 58.1668ZM61.5081 59.4404C61.5075 59.4952 61.4393 59.5396 61.3551 59.54L57.7752 59.54C57.6905 59.54 57.6217 59.4955 57.6211 59.4404L57.6211 58.5593C57.621 58.5327 57.6373 58.5072 57.6662 58.4884C57.6951 58.4695 57.7343 58.4589 57.7752 58.4589L61.3551 58.4589C61.4398 58.4593 61.5081 58.5042 61.5081 58.5593L61.5081 59.4404Z" id="Shape" fill="#FFFFFF" fill-rule="evenodd" stroke="none" />
          <path d="M99.771 62.8109C99.2198 61.2826 97.5928 60.009 95.5928 59.5183C93.1764 58.5631 89.5966 59.0021 87.9154 60.4615C87.6236 60.7166 87.3791 60.9932 87.187 61.2856C86.7916 60.8653 86.3574 60.461 85.8867 60.0749L85.9051 60.0794C86.3412 59.2433 85.988 58.3563 85.6831 57.757C85.5818 57.5569 85.469 57.3577 85.3597 57.1644C85.0732 56.6564 84.8028 56.177 84.6957 55.666C84.5669 55.0494 84.6371 54.3864 84.7061 53.7451C84.7809 53.0409 84.858 52.3127 84.6831 51.6137C84.0468 49.0665 82.3898 47.6206 80.7868 46.2197C80.5372 46.0009 80.2909 45.7859 80.0504 45.5686C80.33 44.6831 80.9077 41.7973 80.368 40.8323C79.887 39.9715 78.169 38.6417 75.5029 38.4702L75.5316 38.438C75.6607 38.4479 75.7906 38.4532 75.9206 38.4537C77.1564 38.4537 78.0148 37.9892 78.9308 37.2603C80.154 36.2863 80.6131 35.0412 80.9261 33.8395C81.1079 33.1435 81.2713 32.3412 80.8547 31.61C80.8248 31.5575 80.7961 31.5051 80.7684 31.4542C80.4301 30.8338 80.1079 30.2472 78.276 29.9783C77.3555 23.3436 69.2534 18.1368 59.4208 18.1368C49.5881 18.1368 41.4572 23.3601 40.5609 30.0105C38.9073 30.2922 38.5955 30.8571 38.2687 31.4541C38.2411 31.5051 38.2134 31.5575 38.1835 31.61C37.7704 32.3397 37.9304 33.1435 38.111 33.8395C38.4252 35.0382 38.8843 36.2878 40.1075 37.2603C41.028 37.9892 41.8807 38.4537 43.1177 38.4537C43.2752 38.4525 43.4324 38.4445 43.5883 38.4297C43.7241 38.5731 43.8641 38.7142 44.0083 38.853C41.0729 38.9541 39.1605 40.0023 38.8785 41.6624C38.5288 41.5193 38.2089 41.3473 37.9269 41.1507C37.1479 40.5918 36.7935 39.8022 36.4805 39.11L34.8488 35.4885C34.6543 35.0569 34.4127 34.5205 33.7683 34.1722C33.6927 34.132 33.6132 34.0953 33.5301 34.062C33.514 33.5886 33.621 33.1053 33.7142 32.6086C33.812 32.0895 33.9018 31.5388 33.7764 30.9837C33.7175 30.7008 33.595 30.4252 33.4127 30.1656C33.2253 29.8983 32.9577 29.6581 32.6257 29.4591C32.5934 29.4396 32.5589 29.4224 32.5255 29.4044C32.5716 28.9521 32.3398 28.5063 31.8812 28.1653C31.5205 27.8865 31.0355 27.6877 30.4934 27.5966L35.9523 1.68864C36.0485 1.22665 35.5524 0.801099 34.843 0.737189C34.1338 0.674539 33.4804 0.997135 33.3817 1.45865L33.2666 1.9958C29.8582 0.774648 24.6364 -0.612077 17.6965 0.483968C15.6529 0.807612 13.4459 1.00839 10.7521 1.11402C8.8661 1.18894 6.2057 1.0908 4.24721 0.199281L3.8111 0L3.72365 0.343123C3.18282 2.47228 2.52002 4.65688 1.87908 6.7673C1.23815 8.87773 0.575348 11.0668 0.0299181 13.205L0 13.3218L0.134631 13.402C4.00442 15.7132 10.469 15.7477 15.2087 15.3693C15.8727 15.3162 16.5274 15.2585 17.1764 15.2008C21.495 14.8179 25.5765 14.4576 30.3542 15.8136L27.8733 27.5847C26.3613 27.7907 24.9252 28.7122 24.3061 29.5228C23.6974 30.3162 23.488 31.3088 23.7009 32.3921C23.8436 33.1248 24.2958 33.9429 24.6939 34.6651C24.7967 34.8504 24.8941 35.0305 24.9862 35.2053C24.6861 35.4466 24.4621 35.7241 24.3268 36.0219C24.1128 36.5073 24.1657 37.0198 24.2118 37.4715C24.3441 38.7594 24.6951 40.0434 25.0334 41.2841C25.0878 41.4839 25.1415 41.6819 25.1945 41.8782C26.0218 44.9565 28.3681 46.3613 30.8524 47.8484C31.5429 48.2589 32.2494 48.6844 32.9306 49.1497C33.1951 49.3348 33.4441 49.5291 33.6762 49.7318C34.1031 50.0921 34.5059 50.4323 35.2182 50.7282C35.744 50.947 36.5357 51.1395 37.2342 51.3096C37.5403 51.3845 37.8291 51.4541 38.0661 51.5193L39.2468 51.843L39.3515 55.696C35.9558 56.0533 32.5566 57.7877 30.1977 60.4495C28.329 59.5835 25.5098 59.4314 23.5455 60.2075C21.5767 60.7117 19.9784 61.9741 19.4341 63.4844C18.9025 64.9573 19.3052 66.6309 20.5411 68.0671C21.155 68.757 21.8217 69.4263 22.5387 70.0727C23.5133 70.9814 24.435 71.84 25.1427 72.8866C25.9689 74.1062 26.9953 75.6226 29.7259 75.6817C29.9901 75.7323 30.2641 75.7575 30.5394 75.7567C30.8579 75.7531 31.1749 75.728 31.4853 75.6817C31.4817 76.1291 31.6147 76.5724 31.8765 76.986C32.0242 77.2415 32.1171 77.509 32.1527 77.7809L32.1849 77.9308C32.3196 78.5533 32.1792 79.0388 31.7649 79.3729C29.8605 80.9117 29.5867 82.3502 29.9319 83.7324C29.9754 84.7672 30.4421 85.7759 31.2839 86.6542C31.6545 87.234 32.0894 87.6985 32.6234 88.0634C32.8374 88.2132 33.0698 88.3458 33.2954 88.4754C33.4921 88.5893 33.6785 88.7002 33.8535 88.8125C34.7349 89.3977 35.2907 90.1798 35.8269 90.9365C35.942 91.1005 36.057 91.2646 36.179 91.4264C37.4574 93.1608 40.3457 96.1852 45.3408 96.9576C45.8011 97.0288 46.2798 97.0819 46.7424 97.1321C47.0738 97.1688 47.4006 97.2071 47.717 97.2468C49.3775 97.7869 50.5086 98.9189 52.1898 99.4681C52.3256 99.513 52.4625 99.5512 52.5983 99.5872C53.4705 99.9056 54.4992 100.002 55.5486 100.002C56.1975 99.9977 56.8454 99.9707 57.4898 99.9213L65.6966 99.352C67.6528 99.3152 69.6263 99.1677 71.4501 98.8066C73.4339 98.5151 75.374 98.0619 77.0816 97.282C78.8502 96.4744 80.2172 95.3828 81.5394 94.3272C82.5601 93.5114 83.6107 92.6678 84.499 91.7546C85.7716 90.4368 86.6761 88.9826 87.5518 87.5727C88.1133 86.6692 88.7497 85.6451 88.7312 84.576C88.722 84.0171 88.5333 83.4717 88.3527 82.945C88.1881 82.4678 88.0316 82.0168 87.9959 81.5538C87.9384 80.8219 88.1801 80.1079 88.4355 79.352C88.691 78.5961 88.9499 77.8304 88.8958 77.0438C88.8141 75.9455 88.4263 75.4285 88.019 75.0472C88.234 75.07 88.4513 75.082 88.6691 75.0832C88.9444 75.084 89.2185 75.0588 89.4827 75.0082C92.2144 74.9491 93.2408 73.435 94.067 72.2131C94.7747 71.1642 95.6953 70.3079 96.6699 69.3992C97.3877 68.7532 98.0544 68.0838 98.6675 67.3937C99.8999 65.9544 100.303 64.2845 99.771 62.8109L99.771 62.8109ZM88.4539 60.7244C89.2042 60.0727 90.4239 59.6539 91.7161 59.5115C90.6534 59.7557 89.7251 60.1988 89.0477 60.7851C87.7578 61.9141 87.5391 63.3518 87.3216 64.7423C87.1951 65.5724 87.0639 66.4309 86.7072 67.2108C86.4517 67.726 86.1512 68.2313 85.8073 68.7242C84.9017 70.0906 83.9662 71.5043 84.9696 73.0357C85.2424 73.4513 85.6412 73.8269 86.1422 74.1399C85.263 73.8111 84.5162 73.357 84.2458 72.8918C83.7177 71.9838 83.8224 70.8833 84.5669 69.5265C84.7913 69.1197 85.0548 68.7099 85.3102 68.3144C85.7613 67.6154 86.2308 66.8909 86.5046 66.135C86.7348 65.4997 86.8418 64.8322 86.9442 64.1871C87.1525 62.9031 87.3447 61.6879 88.4539 60.7244L88.4539 60.7244ZM86.8855 61.8152C86.5311 62.5607 86.4034 63.36 86.2803 64.1437C86.1802 64.776 86.0766 65.4293 85.8557 66.0361C85.591 66.7591 85.1353 67.4648 84.6946 68.1473C84.4369 68.5488 84.1687 68.9631 83.9386 69.3819C83.3506 70.4532 83.14 71.3837 83.3011 72.2033C83.0012 72.1371 82.7096 72.056 82.4289 71.9606C81.3899 70.1488 81.2115 68.1755 81.9168 66.2968C82.5831 64.5475 84.3218 62.6895 86.4931 61.3867C86.6301 61.5291 86.7624 61.6714 86.8855 61.8152L86.8855 61.8152ZM80.2472 46.4841C81.8018 47.8409 83.4081 49.2433 84.0192 51.6841C84.1814 52.3329 84.1066 53.0327 84.0341 53.7144C83.9628 54.3782 83.8903 55.0629 84.0341 55.7259C84.0502 55.8009 84.0698 55.8758 84.0917 55.9507C83.9869 56.0421 83.8776 56.1312 83.7591 56.2174C83.456 56.4319 83.1072 56.6171 82.7235 56.7673C82.5267 56.8422 82.3253 56.9171 82.1194 57.0115C82.3668 57.0281 82.6168 57.0098 82.8523 56.9576C83.0909 56.9092 83.322 56.8465 83.5428 56.7703C83.7644 56.6932 83.9744 56.6026 84.1699 56.4998C84.209 56.4796 84.2435 56.4564 84.285 56.4347C84.4196 56.7343 84.583 57.028 84.7452 57.315C84.8523 57.5045 84.9627 57.7015 85.0617 57.8941C85.4276 58.6125 85.5323 59.1856 85.3885 59.6719C82.2264 57.2805 77.665 55.5514 74.4718 56.2077C74.5156 56.0713 74.557 55.9342 74.5961 55.7979C74.6479 55.6113 74.6939 55.4233 74.7377 55.2382C74.9862 55.2395 75.2346 55.2295 75.481 55.2083C75.8033 55.1806 76.1216 55.1357 76.4326 55.0742C76.7404 55.0132 77.0411 54.9381 77.3325 54.8494C77.6257 54.7629 77.8933 54.6434 78.123 54.4966C77.8066 54.5423 77.5131 54.6014 77.2197 54.6554C76.9283 54.7106 76.631 54.7516 76.3302 54.7782C76.0332 54.8061 75.7338 54.8221 75.4338 54.8262C75.2313 54.8262 75.0288 54.8262 74.8286 54.8157C74.8757 54.5685 74.9172 54.3205 74.9436 54.0718C74.9551 53.9864 74.9632 53.9002 74.9724 53.8148C75.1301 53.7863 75.2877 53.7564 75.4442 53.7227C75.6202 53.6829 75.7975 53.6477 75.9712 53.6058L76.4959 53.4792C76.6783 53.4377 76.849 53.377 77.0011 53.2994C76.8124 53.2718 76.6182 53.264 76.4257 53.2761L75.8688 53.3061C75.6835 53.3159 75.5006 53.3331 75.3153 53.3458C75.2141 53.3533 75.1128 53.3653 75.0104 53.375C75.0345 53.0267 75.0426 52.6776 75.0265 52.3262C75.0095 51.7437 74.9272 51.1628 74.7802 50.5881C74.6301 50.0113 74.3518 49.4518 73.954 48.9272C74.03 49.51 74.114 50.0727 74.1784 50.6383C74.2429 51.2039 74.2935 51.7666 74.2935 52.3329C74.2908 53.4579 74.1508 54.5812 73.8747 55.692L73.8585 55.6802C72.74 56.2961 71.1636 56.7149 69.5492 57.0003C70.5443 56.6588 71.1678 55.9871 71.1693 55.2547L71.1693 49.2898C71.1679 49.2036 71.1583 49.1175 71.1406 49.032C72.2142 48.3076 73.7319 46.9861 74.4258 46.165C75.0656 45.4098 76.0621 43.8425 75.7399 42.7824C75.4971 41.9808 74.901 41.4938 73.9276 41.3013C73.9126 41.2923 73.8999 41.2811 73.8838 41.2721C73.9593 41.1854 74.0125 41.0913 74.0415 40.9934C74.6398 41.09 75.4292 41.4744 76.2278 42.067C76.8031 42.4925 77.1414 43.0274 77.4705 43.5451C78.2093 44.7048 79.2449 45.6091 80.2472 46.4841L80.2472 46.4841ZM63.2169 58.0364C64.8785 57.9937 70.4812 57.7435 73.7066 56.3066C73.5985 56.6622 73.4613 57.0138 73.2958 57.3599C73.2314 57.4925 73.1612 57.6229 73.0807 57.7457C73.0415 57.8079 72.9989 57.8663 72.9541 57.9218C72.9322 57.9495 72.908 57.9712 72.8862 57.9967C72.8643 58.0222 72.8275 58.0521 72.7987 58.0784C72.7057 58.1731 72.5839 58.2544 72.4409 58.3173C72.4125 58.3285 72.3819 58.3371 72.35 58.3428L72.1946 58.375L71.8816 58.4387C70.2134 58.7799 68.5114 59.0467 66.7875 59.2373C65.6184 59.3669 64.4401 59.4583 63.2572 59.5168L63.2572 58.2402C63.2549 58.1713 63.2394 58.1028 63.2111 58.0364L63.2169 58.0364ZM61.9868 57.61L57.1539 57.61C56.7738 57.6075 56.413 57.8341 56.1712 58.2273L56.1712 58.1733C54.7983 58.1975 53.4343 57.8766 52.1495 57.2273L68.0544 57.2273C66.32 57.6788 64.5607 57.9368 62.7946 57.9989C62.5658 57.7454 62.2778 57.6077 61.981 57.61L61.9868 57.61ZM62.584 58.2372L62.584 59.7677C62.584 59.9825 62.3166 60.1566 61.9868 60.1566L57.1539 60.1566C56.824 60.1566 56.5567 59.9825 56.5567 59.7678L56.5567 58.2402C56.5567 58.0254 56.824 57.8514 57.1539 57.8514L61.981 57.8514C62.3106 57.8518 62.5776 58.0256 62.5783 58.2402L62.584 58.2372ZM41.2961 55.6435C40.8749 55.621 40.4516 55.621 40.0304 55.6435L39.9291 52.0325L43.3317 52.9667C43.3317 53.0034 43.3317 53.0416 43.3375 53.0761C41.6793 53.9894 41.3077 54.8577 41.2789 55.4105C41.2751 55.4892 41.2778 55.568 41.2869 55.6465L41.2961 55.6435ZM47.7101 51.9666L47.7101 52.927C45.5848 53.4957 44.8598 54.289 44.8978 54.8539C44.9254 55.2704 45.3581 55.6031 46.0255 55.7319C47.3569 55.9814 49.8101 55.4225 52.3382 53.0282C52.4987 52.8574 52.7921 52.7591 53.0988 52.7734C53.2651 52.7913 53.4266 52.8243 53.5787 52.8716C54.0712 53.0132 54.0976 53.5795 54.0976 53.6912C54.0976 54.9236 52.0344 56.1694 50.924 56.8377C49.1669 57.9205 46.5812 58.2079 44.372 57.5659C42.8404 57.1097 41.9164 56.2886 41.9612 55.424C41.9912 54.6756 42.8059 53.2439 47.7009 51.9696L47.7101 51.9666ZM47.8183 53.3735L47.8183 55.1768C47.1221 55.3626 46.5663 55.3768 46.2073 55.3102C45.8161 55.2352 45.5825 55.0637 45.5675 54.8352C45.5353 54.4524 46.1187 53.8523 47.8091 53.3765L47.8183 53.3735ZM46.1222 43.5751C46.5544 43.8061 47.0647 43.9671 47.6112 44.0448C47.7631 44.9483 49.3027 46.5733 50.2002 47.3614C49.2453 47.4972 48.4487 47.9233 48.0588 48.5069C47.2107 47.9076 46.2027 47.0962 45.5664 46.3448C44.93 45.5933 44.059 44.1325 44.3236 43.2574C44.4882 42.7113 44.8253 42.3659 45.38 42.1868C45.3519 42.2625 45.3357 42.3398 45.3316 42.4176C45.3287 42.8593 45.6165 43.2806 46.1222 43.5751L46.1222 43.5751ZM54.6039 42.8948C53.6581 42.8279 52.7176 42.7402 51.7824 42.6319C50.8481 42.5225 49.9183 42.3966 49 42.2415C48.1267 42.0977 47.2625 41.9351 46.4041 41.7583L46.396 41.7463C46.1959 41.4234 46.2055 41.0614 46.4225 40.7432C55.2392 42.1321 64.4531 42.0416 73.2015 40.4802C73.5467 40.8136 73.3637 41.0309 73.1566 41.1859L72.9748 41.3215C72.3442 41.5081 71.709 41.6894 71.0715 41.8527L70.5434 41.9853L70.0094 42.1097L69.4744 42.2295L68.9347 42.3404C68.2143 42.4902 67.4779 42.6034 66.7403 42.724C66.0027 42.8446 65.2571 42.9577 64.4988 43.1031C65.2762 43.1844 66.0668 43.1977 66.8496 43.1428C67.6306 43.0874 68.4039 42.9927 69.1625 42.8596L69.7287 42.7532L70.2902 42.6371L70.8448 42.5052L71.3926 42.3629C72.0981 42.1694 72.7784 41.9392 73.427 41.6744C73.473 41.6796 73.5179 41.6856 73.5628 41.6924C73.6366 41.764 73.6879 41.8445 73.7135 41.9291C73.799 42.2198 73.6785 42.5201 73.3856 42.7465C72.8551 43.1338 72.0174 43.2814 71.0577 43.4207C68.9865 43.7204 66.8439 44.0373 64.7059 44.2051C59.453 44.6179 54.1103 44.1744 48.9414 43.7459C48.1646 43.6814 47.1981 43.6013 46.5617 43.2424C46.2106 43.0323 46.0086 42.737 46.0036 42.4266C46.0051 42.333 46.0385 42.2409 46.1014 42.1569C46.9971 42.3615 47.9081 42.5365 48.831 42.6813C49.7722 42.8259 50.7226 42.9502 51.6789 43.0401C52.6351 43.13 53.5994 43.19 54.5637 43.2237C55.5279 43.2574 56.4957 43.2671 57.4542 43.1285C56.4991 42.9959 55.5521 42.9562 54.6039 42.8948L54.6039 42.8948ZM74.3959 41.9628C74.7319 42.1614 74.9517 42.4573 75.076 42.8671C75.3406 43.7414 74.4764 45.1895 73.832 45.9537C73.2314 46.6647 71.9334 47.8109 70.9323 48.5316C70.5492 47.9351 69.7429 47.498 68.7724 47.3606C69.693 46.5493 71.4593 44.7468 71.7562 43.7646C72.488 43.6425 73.3165 43.4522 73.8838 43.0387C74.2761 42.7416 74.463 42.3525 74.4005 41.9628L74.3959 41.9628ZM60.0111 52.3232L60.0111 52.2333L59.9121 52.1704C59.5047 51.9111 59.0744 51.6459 58.6567 51.392C58.2781 51.1605 57.888 50.9215 57.5163 50.6862L57.4795 47.7547L68.1407 47.7547C69.4423 47.7555 70.4972 48.4423 70.4985 49.2898L70.4985 55.2547C70.4954 56.1018 69.4397 56.7875 68.1385 56.7875L60.0951 56.7875C60.0985 55.3401 60.0122 52.3547 60.0111 52.3232L60.0111 52.3232ZM54.6649 54.2268C55.6818 53.8431 56.2378 53.0952 56.0692 52.3379C55.9007 51.5806 55.0415 50.9662 53.8992 50.7861C52.7568 50.6061 51.5611 50.8965 50.8792 51.5198C50.1973 52.143 50.1663 52.9737 50.8009 53.6178C49.9597 54.2673 49.1738 54.6928 48.4834 54.9588L48.4834 49.2898C48.4847 48.4423 49.5395 47.7555 50.8412 47.7547L56.8029 47.7547L56.8443 50.869L56.9433 50.9327C57.3506 51.1919 57.7799 51.4571 58.1953 51.7089C58.575 51.9419 58.9674 52.1816 59.3459 52.4183C59.3598 52.9293 59.4299 55.484 59.4265 56.7868L51.985 56.7868C53.0102 56.147 54.3036 55.2285 54.6649 54.2268L54.6649 54.2268ZM53.8422 52.4738C53.6306 52.409 53.4058 52.3644 53.1748 52.3412C52.618 52.3062 52.0777 52.4764 51.7744 52.7824C51.5995 52.9487 51.4292 53.1038 51.2531 53.2499C51.1014 53.0525 51.0226 52.8347 51.023 52.6139C51.0219 51.9645 51.6925 51.3961 52.6564 51.2294C53.6204 51.0626 54.6359 51.3394 55.13 51.9035C55.6241 52.4675 55.4728 53.1775 54.7616 53.6327C54.7466 53.3571 54.6281 52.7 53.8422 52.4738L53.8422 52.4738ZM48.3108 44.1339C48.4983 44.1527 48.6825 44.1677 48.8574 44.1826C52.5937 44.4921 56.4197 44.8097 60.255 44.8097C61.7685 44.8128 63.2809 44.7568 64.7841 44.6419C66.8945 44.4763 68.9911 44.1729 71.0244 43.8762C70.5802 44.8232 68.8185 46.6542 67.9796 47.3157L50.9965 47.3157C50.1887 46.6782 48.5789 44.9963 48.3108 44.1339L48.3108 44.1339ZM50.9758 57.3824C52.5129 57.8578 54.1899 58.1108 55.8916 58.1241C55.8829 58.1625 55.8783 58.2013 55.8778 58.2402L55.8778 59.4254C53.1631 59.2223 50.4871 58.8405 47.8908 58.2859C49.0226 58.1652 50.0862 57.8537 50.9758 57.3824L50.9758 57.3824ZM72.7619 58.7002C72.991 58.6069 73.1871 58.4831 73.3372 58.3368C73.3729 58.3039 73.404 58.2761 73.4385 58.2417C73.473 58.2072 73.511 58.1668 73.5398 58.1323C73.5996 58.0574 73.6548 57.99 73.6974 57.9203C73.7906 57.7794 73.8689 57.6393 73.9402 57.4985C74.0702 57.2393 74.1796 56.9793 74.2762 56.7179C76.3014 56.1185 79.085 56.7493 81.6407 57.9832C79.8698 58.5754 78.3274 59.4206 77.1288 60.4555L76.4131 60.1768C75.2071 59.7093 73.8585 59.1849 72.7561 58.7032L72.7619 58.7002ZM79.7305 40.9852C80.1148 41.6707 79.8019 43.8687 79.5004 45.0629C78.9455 44.5331 78.4737 43.9684 78.0919 43.3773C77.7467 42.8266 77.3785 42.258 76.733 41.7778C76.145 41.341 75.0449 40.6323 73.9931 40.5409C73.9373 40.4311 73.8587 40.3267 73.7596 40.2307C74.2653 39.8077 74.7266 39.3629 75.1404 38.8995C77.6719 38.9654 79.2955 40.197 79.7351 40.9852L79.7305 40.9852ZM78.3278 30.4398C79.6177 30.6608 79.8237 31.0391 80.1344 31.6032C80.1632 31.6557 80.1919 31.7096 80.2219 31.7636C80.5774 32.3921 80.437 33.0986 80.2621 33.7684C79.9641 34.9108 79.5337 36.0908 78.4095 36.9853C77.451 37.7472 76.7686 38.0342 75.8619 38.0177C77.428 35.9492 78.3623 33.5001 78.3623 31.2406C78.3623 30.9694 78.3508 30.7035 78.3278 30.4398L78.3278 30.4398ZM59.4207 18.5796C62.1232 18.5793 64.788 18.9922 67.2006 19.785C66.1046 20.7592 65.2661 21.8457 64.7197 22.9997C64.4217 23.6246 64.2337 24.2695 64.1593 24.9221C64.11 25.3758 64.1354 25.8317 64.2353 26.2818C59.9466 26.1215 55.9905 26.2818 54.047 26.4317L53.5384 26.4736C53.4754 25.4121 53.1908 24.3611 52.6926 23.3496C52.1454 22.2493 51.2681 21.2307 50.1116 20.3529C52.8922 19.1969 56.1217 18.5817 59.4207 18.5796L59.4207 18.5796ZM47.1716 36.3388C46.3005 34.9573 45.2396 32.0999 45.3178 30.6068C45.3443 30.0824 45.4456 29.534 45.9035 29.1017C46.3615 28.6695 47.144 28.405 47.9 28.1952C50.8752 27.3826 54.0961 27.0226 57.3173 27.1426C55.4025 27.3764 53.467 27.6139 51.6904 28.1323C49.9137 28.6507 48.2809 29.4853 47.4512 30.6323C46.5468 31.8804 47.0151 34.9633 47.1716 36.3388L47.1716 36.3388ZM40.6287 36.9853C39.5045 36.0908 39.0742 34.9108 38.7761 33.7684C38.6012 33.0986 38.4608 32.3921 38.8152 31.7636C38.8463 31.7096 38.8751 31.6557 38.9039 31.6032C39.1938 31.0728 39.3986 30.7042 40.5148 30.4795C40.4941 30.7312 40.4826 30.9844 40.4826 31.2391C40.4662 33.6155 41.4065 35.9531 43.2098 38.0192C42.2834 38.0424 41.5965 37.7585 40.6287 36.9853L40.6287 36.9853ZM41.1512 31.2406C41.1512 27.3052 43.7575 23.7833 47.8355 21.4594C48.0657 21.6355 48.2797 21.8153 48.4822 22.004C48.7468 22.2536 48.9874 22.5135 49.2026 22.7824C49.4212 23.0527 49.6103 23.3325 49.7687 23.62L50.2359 24.4981C50.2476 24.1818 50.193 23.866 50.0737 23.5593C49.9579 23.2514 49.8095 22.949 49.6295 22.6543C49.4473 22.3581 49.2308 22.0713 48.9816 21.7965C48.7897 21.5825 48.5772 21.3765 48.3453 21.18C48.7308 20.9762 49.1278 20.7814 49.5363 20.5986C50.6129 21.4583 51.412 22.4505 51.886 23.5159C52.3235 24.5096 52.5465 25.5381 52.5488 26.5718C49.7722 26.8714 47.0508 27.4056 44.5963 28.2911C44.3752 28.3721 44.2255 28.5162 44.1925 28.68C43.4583 32.3861 44.7574 36.3021 47.9978 39.3834C48.0912 39.4727 48.2246 39.5409 48.3798 39.579C55.3277 41.2908 64.3388 41.0773 70.4916 39.2793C70.658 39.2304 70.7939 39.1461 70.8771 39.0403C73.7906 35.3693 75.3889 31.5433 73.9724 27.6386C73.9088 27.4615 73.7069 27.3193 73.4408 27.264C70.9346 26.7441 68.0602 26.4601 65.2709 26.3223C65.1284 25.8713 65.0716 25.4106 65.1017 24.9506C65.1434 24.3423 65.2908 23.7391 65.5413 23.1526C65.79 22.5588 66.1212 21.9811 66.5309 21.4264C66.8983 20.9279 67.3266 20.4494 67.8116 19.9955C73.6802 22.1052 77.6903 26.3523 77.6903 31.2376C77.6903 34.3265 75.9033 37.7704 73.1347 40.0375C64.512 41.5891 55.4257 41.6922 46.7251 40.3371C43.1315 37.9315 41.1512 34.7033 41.1512 31.2406L41.1512 31.2406ZM71.7044 30.1761C71.2879 30.6945 70.0048 30.7934 68.838 30.3971C67.6712 30.0007 67.0637 29.2583 67.4802 28.7391C67.8968 28.22 69.1798 28.1218 70.3455 28.5189C71.5111 28.9159 72.1198 29.6539 71.7044 30.1723L71.7044 30.1761ZM71.6193 32.4101C71.4531 32.6172 71.1117 32.7388 70.7542 32.7181C70.3967 32.6974 70.0936 32.5385 69.9863 32.3155C69.8789 32.0926 69.9885 31.8494 70.2638 31.6996C70.5392 31.5497 70.9261 31.5226 71.2441 31.631C71.6747 31.7787 71.842 32.1246 71.6193 32.4063L71.6193 32.4101ZM44.4709 39.283C44.9182 39.6783 45.3996 40.0568 45.9127 40.4165C45.5971 40.7973 45.5024 41.2392 45.6458 41.6617C44.5687 41.828 43.9197 42.3247 43.6585 43.1728C43.6516 43.196 43.6482 43.2215 43.6424 43.2477L40.333 42.1786C40.0626 42.0917 39.7887 42.0025 39.5206 41.9089C39.6518 40.2645 41.4964 39.2838 44.4709 39.283L44.4709 39.283ZM31.3668 28.4485C31.6117 28.6323 31.7741 28.8565 31.8363 29.0965C31.3495 28.931 30.8274 28.8139 30.2874 28.7489L30.246 28.7444L30.3968 28.0312C30.7764 28.1059 31.1141 28.2515 31.3679 28.45L31.3668 28.4485ZM17.0878 14.7663C16.4411 14.8232 15.7887 14.8809 15.1316 14.9341C10.5864 15.2959 4.43018 15.2772 0.72839 13.1578C1.26576 11.0646 1.91015 8.92343 2.53958 6.85271C3.1483 4.84717 3.77773 2.77645 4.30475 0.743932C6.36104 1.53656 8.93745 1.62571 10.7958 1.55154C13.5299 1.44366 15.7737 1.23989 17.8576 0.910249C24.7273 -0.174558 29.8686 1.25862 33.1699 2.46179L30.4508 15.3626C25.5765 14.0141 21.4501 14.3797 17.0878 14.7663L17.0878 14.7663ZM34.0491 1.51858C34.0792 1.37482 34.2249 1.25246 34.4312 1.19761C34.6376 1.14276 34.8731 1.16375 35.0492 1.25267C35.2253 1.3416 35.3152 1.48494 35.2849 1.62869L29.5809 28.6859C29.398 28.6747 29.215 28.668 29.0297 28.6657C28.7924 28.6638 28.5551 28.6731 28.3198 28.6934L34.0491 1.51858ZM27.9343 29.2089C28.6097 29.0808 29.4037 29.134 30.1459 29.2201C30.8881 29.3063 31.5992 29.501 32.1194 29.8194C32.6395 30.1378 32.9248 30.5776 33.0261 31.0578C33.1274 31.5381 33.0802 32.0415 32.9904 32.5562C32.9034 32.9785 32.8538 33.4037 32.842 33.8298L32.842 33.8747C32.2494 33.7706 31.5912 33.7803 30.9502 33.8051C30.3588 33.8283 29.7593 33.853 29.1621 33.9025L29.6776 31.4586C29.8881 31.4783 30.0967 31.5058 30.3024 31.5411L30.3024 31.5411C30.0642 31.3028 29.6396 31.1665 29.2438 31.0915C28.8479 31.0166 28.4383 30.9957 28.0735 30.9342C27.7229 30.8843 27.3931 30.7854 27.1069 30.6443C26.8567 30.5194 26.7114 30.3251 26.7145 30.1199C26.7328 29.9074 26.8628 29.7056 27.0828 29.5482C27.1906 29.4669 27.3181 29.3976 27.4602 29.343C27.6093 29.286 27.7685 29.241 27.9343 29.2089L27.9343 29.2089ZM29.009 31.3965L27.283 39.5625C27.2528 39.7062 27.1071 39.8285 26.9008 39.8834C26.6945 39.9382 26.4589 39.9172 26.2829 39.8283C26.1068 39.7394 26.0169 39.5961 26.0471 39.4524L27.7674 31.3155L27.8158 31.2721L27.9435 31.2923C28.3175 31.3388 28.6673 31.3687 29.009 31.3965L29.009 31.3965ZM24.3648 32.3367C24.1692 31.3395 24.3568 30.4345 24.9056 29.7191C25.4281 29.0381 26.5926 28.2866 27.7743 28.0536L27.6167 28.8028C27.4391 28.8431 27.2683 28.8951 27.1069 28.9579C26.9054 29.0388 26.7249 29.14 26.5719 29.2576C26.2544 29.4963 26.0785 29.8011 26.0759 30.1169C26.0791 30.2807 26.1422 30.4418 26.26 30.5866C26.3754 30.7265 26.5355 30.8486 26.7295 30.9447C26.8551 31.0069 26.9896 31.0611 27.1311 31.1065L27.1127 31.1949C27.0701 31.2399 27.0298 31.2856 26.9861 31.3305C26.8653 31.4579 26.7295 31.5785 26.5926 31.6999C26.4556 31.8212 26.3106 31.9396 26.1553 32.0542C25.9932 32.1712 25.8459 32.2965 25.7146 32.4288C25.9513 32.3817 26.1734 32.3076 26.3705 32.2101C26.5704 32.117 26.7625 32.017 26.9458 31.9104L26.97 31.8954L26.4372 34.4231C26.1048 34.5419 25.7937 34.6843 25.5098 34.8479C25.4511 34.74 25.3947 34.6299 25.3291 34.5183C24.9183 33.7818 24.4994 33.0214 24.3648 32.3367L24.3648 32.3367ZM24.9701 36.1432C25.1646 35.7012 25.6432 35.2967 26.3118 34.9865L25.9666 36.619C25.8204 36.6729 25.6743 36.7283 25.5316 36.7868C25.2955 36.8846 25.0674 36.9904 24.8481 37.1037C24.8089 36.7813 24.8501 36.457 24.9701 36.1432L24.9701 36.1432ZM38.3251 51.1155C38.0742 51.0466 37.7785 50.9747 37.4666 50.8983C36.9091 50.7717 36.3638 50.6234 35.8338 50.454C35.6592 50.2938 35.5132 50.1211 35.3988 49.9393C35.2737 49.7354 35.1871 49.5223 35.1411 49.3048C35.0926 49.0835 35.0895 48.859 35.1319 48.6372C35.1788 48.4081 35.2449 48.1807 35.3298 47.9562C35.0859 48.1412 34.911 48.3605 34.8189 48.5968C34.7216 48.8346 34.6725 49.0796 34.6727 49.3257C34.6751 49.5277 34.7137 49.7289 34.7878 49.9251C34.5853 49.7827 34.4035 49.6299 34.2125 49.4666C33.9663 49.2519 33.7024 49.0461 33.422 48.85C32.7246 48.3743 32.0066 47.9443 31.3116 47.5285C28.9135 46.093 26.649 44.737 25.8619 41.8055C25.8089 41.6057 25.7552 41.4074 25.7008 41.2107C25.382 40.0457 25.0564 38.844 24.9126 37.6461C25.2159 37.4548 25.5368 37.2757 25.8734 37.1097L25.3924 39.3917C25.2955 39.8537 25.7911 40.2796 26.5005 40.3439L26.5005 40.3439C26.5593 40.3489 26.6185 40.3514 26.6777 40.3514C27.3253 40.3505 27.873 40.0393 27.9619 39.6217L28.696 36.1432C28.9826 36.0766 29.2714 36.0099 29.5671 35.9395C29.2871 35.9334 29.0069 35.9455 28.7306 35.9754L29.0758 34.3505C29.7133 34.2913 30.3622 34.265 30.9997 34.2403C31.9042 34.2051 32.766 34.1991 33.3471 34.513C33.8327 34.7752 34.0376 35.2412 34.2113 35.6151L35.843 39.2388C36.1767 39.9783 36.5541 40.8173 37.4367 41.4504C37.7977 41.7014 38.2105 41.9185 38.6633 42.0954C38.5727 42.1387 38.4855 42.185 38.4021 42.234C38.1581 42.3785 37.9477 42.5453 37.7773 42.7292C37.6105 42.9098 37.4816 43.104 37.3941 43.3069C37.3031 43.5069 37.2897 43.7185 37.355 43.9227C37.4701 43.7286 37.569 43.5481 37.6933 43.378C37.8157 43.2077 37.9724 43.0487 38.1594 42.9053C38.3417 42.7649 38.5491 42.6391 38.7773 42.5307C38.9434 42.4539 39.1198 42.387 39.3043 42.3307C39.5528 42.4161 39.7991 42.4963 40.0373 42.5727L43.6044 43.7189C43.6539 44.7183 44.4387 45.9207 44.9749 46.5545C45.7125 47.4258 46.9173 48.3713 47.8448 48.9968C47.8214 49.0933 47.809 49.1907 47.8079 49.2883L47.8079 51.4684C46.2407 51.8587 45.0463 52.2715 44.1257 52.6835C44.1257 52.5524 44.1176 52.4213 44.1188 52.2902C44.133 51.6905 44.2017 51.0919 44.3248 50.4974C44.4272 49.8981 44.5837 49.3048 44.624 48.6762C44.5089 48.8133 44.4053 48.9541 44.3064 49.0957C44.2058 49.2367 44.1186 49.3816 44.0452 49.5295C43.9669 49.6793 43.8944 49.8239 43.83 49.973C43.7655 50.1221 43.7149 50.2727 43.6654 50.4225C43.4801 51.0336 43.3666 51.6529 43.326 52.2752C43.326 52.3449 43.326 52.4146 43.326 52.485L38.3251 51.1155ZM41.4078 56.096C41.7403 56.8714 42.6954 57.5562 44.0831 57.969C44.6644 58.1389 45.2808 58.2522 45.9127 58.3054C45.9691 58.3188 46.0278 58.3308 46.0819 58.3451C44.2799 58.9264 41.5827 59.7588 40.5321 59.9491C39.5109 58.7032 37.9716 57.6696 36.0904 56.9666C37.821 56.2848 39.6507 55.9694 41.4078 56.096L41.4078 56.096ZM31.307 60.1101C31.5083 60.1476 31.7086 60.185 31.9065 60.2337C32.2211 60.3083 32.5285 60.3951 32.827 60.4937C33.1282 60.5922 33.4181 60.7046 33.6947 60.8301C33.9731 60.9552 34.247 61.0863 34.5485 61.2099C34.3781 61.0073 34.1572 60.8245 33.8949 60.669C33.6356 60.511 33.3599 60.3649 33.0698 60.2315C32.7756 60.0984 32.4659 59.9804 32.1435 59.8786C31.9939 59.8307 31.8397 59.788 31.6832 59.7483C32.8006 58.7069 34.0893 57.8573 35.4564 57.2378C37.4394 57.9239 39.0473 58.993 40.0591 60.2982L40.1685 60.4405L40.4113 60.4165C41.5804 60.3004 46.0324 58.856 46.9702 58.5496C49.8628 59.204 52.8586 59.646 55.9019 59.8674C55.9778 60.2849 56.5219 60.5992 57.1677 60.5986L61.9949 60.5986C62.585 60.5976 63.097 60.3329 63.2318 59.9588C64.4631 59.9004 65.6909 59.809 66.9141 59.6704C68.6266 59.4804 70.318 59.2168 71.9771 58.8815C73.1612 59.4134 74.7135 60.0172 76.092 60.5529C76.4372 60.6855 76.7617 60.8136 77.0724 60.9357L77.3451 61.0421L77.5246 60.872C78.6293 59.8232 80.4313 58.8388 82.2597 58.2821C82.9793 58.6613 83.6572 59.0729 84.2884 59.5138C84.1135 59.6037 83.9432 59.6973 83.7787 59.7977C83.5538 59.9335 83.3399 60.0768 83.1377 60.227C82.9375 60.3768 82.7457 60.5317 82.5624 60.6915C82.3756 60.851 82.2263 61.0278 82.1194 61.2159C82.3596 61.0972 82.5875 60.9683 82.8017 60.8301C83.0142 60.6962 83.2344 60.5686 83.4622 60.4472C83.6924 60.3281 83.9156 60.2068 84.1526 60.0966C84.3414 60.0067 84.5347 59.9213 84.728 59.8367C85.2324 60.2117 85.7019 60.6059 86.1341 61.0174C83.7994 62.3944 81.9916 64.3137 81.277 66.1934C80.61 67.9696 80.6967 69.8304 81.5279 71.577C80.4152 71.0114 79.6454 70.2337 78.9423 69.4351C78.88 69.2189 78.8415 69.0001 78.8272 68.7803C78.8119 68.5303 78.8261 68.2798 78.8698 68.0312C78.9122 67.7819 78.9924 67.5359 79.1091 67.297C79.2296 67.0535 79.3737 66.8153 79.5407 66.5837C79.2277 66.7578 78.9787 66.9754 78.8123 67.2205C78.4958 67.6667 78.3055 68.1464 78.2507 68.6365C77.6593 67.9622 77.0241 67.288 76.1944 66.7703C74.9367 65.9807 71.9875 64.3475 68.8576 64.131C69.0245 64.071 69.1878 64.0081 69.3478 63.9392C69.6744 63.8007 69.9865 63.6483 70.2821 63.4829C70.5806 63.3193 70.8339 63.1237 71.0313 62.9046L70.0773 63.3188C69.7663 63.4514 69.4418 63.57 69.1061 63.674C68.769 63.7766 68.4307 63.8747 68.082 63.9564C67.7334 64.0381 67.3916 64.1115 67.0464 64.1774C58.5566 65.251 54.841 64.7985 52.3831 64.498L52.3739 64.498C52.0402 64.3932 51.7099 64.2853 51.3831 64.1722C51.0563 64.059 50.7088 63.9264 50.3786 63.7976C50.0486 63.6661 49.7301 63.5228 49.4246 63.3683L48.5041 62.8948C48.6881 63.1281 48.9291 63.3403 49.2175 63.5234C49.5006 63.7087 49.7991 63.8838 50.1116 64.0478C50.298 64.1482 50.4925 64.2403 50.687 64.3302C49.0139 64.2381 47.6192 64.5363 44.7034 66.1582C44.2212 66.4624 43.7885 66.7463 43.3927 67.0145C43.4502 66.8073 43.4814 66.5973 43.4859 66.3867C43.4931 66.1248 43.4545 65.8631 43.3708 65.6068C43.2963 65.3475 43.1072 65.108 42.8266 64.9176C42.9494 65.1508 43.0267 65.3932 43.0567 65.6391C43.0853 65.8807 43.0718 66.1238 43.0164 66.3635C42.9634 66.6031 42.8826 66.8398 42.7748 67.0715C42.6721 67.2922 42.544 67.5076 42.3916 67.7158C41.6846 68.2282 41.0182 68.7638 40.3951 69.3205C40.4636 69.0964 40.5105 68.8697 40.5355 68.6417C40.5737 68.3189 40.5687 67.9946 40.5206 67.6723C40.4766 67.3504 40.3433 67.0364 40.127 66.7456C40.1762 67.0572 40.2012 67.3703 40.2018 67.6835C40.1991 67.992 40.1552 68.2998 40.0707 68.6034C39.9881 68.9076 39.8755 69.2079 39.7335 69.5025C39.5929 69.7925 39.4277 70.0771 39.2387 70.3551L39.2606 70.3611C38.6634 70.9035 38.0984 71.3215 37.0524 71.7905C38.0317 70.285 38.1885 68.6064 37.4965 67.0348C36.7221 65.3049 34.8891 63.7669 32.4507 62.7884C32.2371 62.1931 31.8431 61.6315 31.292 61.1365C31.1227 60.9918 30.9336 60.8574 30.727 60.7349C30.9134 60.5207 31.1067 60.3124 31.307 60.1101L31.307 60.1101ZM35.9903 72.2116L35.996 72.2116L35.9546 72.2273C35.9328 71.5733 35.7049 70.8533 35.2642 70.0547C35.0341 69.6359 34.7671 69.2209 34.5082 68.82C34.0675 68.1368 33.6118 67.4311 33.3471 66.7089C33.1262 66.102 33.0226 65.4488 32.9237 64.8165C32.8489 64.3437 32.7729 63.865 32.6464 63.393C34.667 64.316 36.1767 65.6585 36.8453 67.1516C37.5931 68.8459 37.2859 70.6637 35.9903 72.2116L35.9903 72.2116ZM35.0697 75.8578C34.9342 75.963 34.7227 76.013 34.5151 75.9889C34.1607 75.9402 34.1158 75.7057 34.1227 75.5094C34.1294 75.2818 34.1632 75.0549 34.224 74.8307C34.8534 74.507 35.3494 74.1242 35.5818 73.7256C35.7644 73.4081 35.8805 73.076 35.927 72.7382C36.1859 72.6468 36.431 72.5577 36.6542 72.4715C36.7143 72.5163 36.7492 72.5732 36.7532 72.6326C36.8459 73.808 36.2444 74.9619 35.072 75.8578L35.0697 75.8578ZM30.7489 61.3987C31.8593 62.3621 32.0503 63.5773 32.2528 64.8636C32.3553 65.5094 32.46 66.1777 32.6924 66.8115C32.9697 67.5689 33.4358 68.2919 33.8868 68.9909C34.1423 69.3872 34.4058 69.7962 34.6302 70.2038C35.2964 71.4174 35.4495 72.4266 35.0905 73.2754C35.0503 73.3746 35.0023 73.4724 34.9466 73.5683C34.854 73.7204 34.7276 73.8627 34.5715 73.9909C34.1495 74.3257 33.6337 74.6054 33.0514 74.8149C33.5516 74.5017 33.95 74.1262 34.2228 73.7107C35.2262 72.1793 34.2907 70.7657 33.3851 69.3992C33.0408 68.9064 32.7404 68.4011 32.4853 67.8858C32.1286 67.1059 31.9974 66.2474 31.8708 65.4173C31.6591 64.0268 31.4404 62.5891 30.1505 61.4601C29.4805 60.8791 28.5642 60.4382 27.5143 60.1918C28.8053 60.3401 30.009 60.7582 30.7512 61.3995L30.7489 61.3987ZM29.8709 75.2472L29.7846 75.2472C27.6155 75.2128 26.7468 74.1744 25.7572 72.712C25.0219 71.6265 24.0392 70.7095 23.0887 69.8232C22.8919 69.6396 22.6929 69.4538 22.4949 69.2651C22.5812 69.2366 22.6675 69.2104 22.7515 69.1804C22.9575 69.1055 23.1646 69.038 23.3683 68.9624L23.9782 68.7376C24.1881 68.6623 24.3816 68.5691 24.5535 68.4604C24.3139 68.4689 24.0771 68.4981 23.8493 68.5473L23.1785 68.6844C22.9483 68.7294 22.7354 68.7818 22.5134 68.8343C22.3856 68.8627 22.2602 68.8942 22.1336 68.9249C21.8747 68.6717 21.6239 68.4102 21.3799 68.1435L22.7412 67.6663C23.2544 67.4865 23.7768 67.3165 24.2946 67.1419C24.8124 66.9673 25.3372 66.7995 25.8642 66.6347C26.3912 66.4699 26.9148 66.2998 27.4257 66.1035C26.8522 66.1922 26.2886 66.3061 25.7388 66.4444C25.1895 66.5793 24.6425 66.7194 24.0979 66.8647C23.5524 67.0078 23.0162 67.1644 22.4788 67.3209C21.9978 67.4633 21.5211 67.6131 21.0485 67.7704C20.0198 66.5246 19.6481 65.1094 20.0129 63.8335C20.2937 63.7241 20.576 63.6155 20.8598 63.5076C21.1878 63.3818 21.5238 63.2657 21.8586 63.1465C22.1935 63.0274 22.5352 62.9173 22.8816 62.8124C23.2279 62.7075 23.572 62.6011 23.9172 62.4738C23.5258 62.4905 23.1392 62.5394 22.7665 62.6191C22.3948 62.694 22.0278 62.7787 21.663 62.8686C21.2982 62.9585 20.9427 63.0611 20.5882 63.1683C20.4663 63.2042 20.3454 63.2432 20.2246 63.2814C20.846 61.9876 22.3039 60.941 24.0472 60.5694C24.5203 60.4693 25.0147 60.4187 25.5121 60.4195C27.1207 60.4203 28.6375 60.9078 29.6166 61.7388C29.7632 61.8674 29.897 62.0021 30.017 62.1419C29.6304 62.1981 29.2426 62.2543 28.8571 62.3149C28.3669 62.3899 27.8756 62.4648 27.3877 62.5487L25.9229 62.7809C25.4304 62.8592 24.9462 62.9578 24.473 63.0761C24.9795 63.0662 25.4845 63.0354 25.985 62.984L27.4809 62.8379C27.9803 62.7914 28.4774 62.7345 28.9768 62.6835C29.4256 62.6363 29.8732 62.5847 30.3208 62.5337C30.8962 63.4087 31.0492 64.4164 31.2103 65.469C31.3392 66.32 31.4738 67.1988 31.8489 68.0199C31.9721 68.2881 32.1228 68.5556 32.2851 68.8208C32.0791 68.8575 31.8754 68.8957 31.6752 68.9444C31.3806 69.0133 31.0924 69.0934 30.8122 69.1841C30.5329 69.2755 30.2617 69.3754 29.9986 69.4838C29.7312 69.5894 29.4902 69.721 29.284 69.8741C29.5768 69.8161 29.8642 69.7471 30.1448 69.6674C30.4221 69.5924 30.704 69.5265 30.9882 69.4688C31.2724 69.4111 31.5567 69.3572 31.8455 69.319C32.0756 69.2845 32.3058 69.2546 32.5359 69.2276C32.6142 69.3475 32.6936 69.4673 32.7718 69.5864C32.9214 69.8112 33.0687 70.036 33.2068 70.257C33.0103 70.2806 32.8159 70.3111 32.6245 70.3484C32.3709 70.3975 32.1219 70.4563 31.8789 70.5244C31.6379 70.5922 31.4035 70.6695 31.1769 70.7559C30.9444 70.8384 30.736 70.947 30.5613 71.0766C30.8142 71.0442 31.0634 71.0004 31.307 70.9455C31.5452 70.8945 31.7868 70.8526 32.0284 70.8158C32.2701 70.7791 32.5117 70.7462 32.7545 70.7245C32.9973 70.7027 33.2148 70.684 33.453 70.6705C33.9881 71.625 34.2585 72.5644 33.6083 73.5526C32.9375 74.5685 31.4439 75.248 29.8732 75.248L29.8709 75.2472ZM35.9696 88.7743C35.9999 88.2947 35.938 87.8145 35.7855 87.3449C35.4761 86.4304 34.813 85.5825 33.8592 84.8816C33.3651 84.5256 32.8041 84.2115 32.1895 83.9467C32.9443 84.0656 33.6431 84.3027 34.2251 84.6374C34.8213 84.9717 35.3107 85.379 35.6658 85.8361C36.0263 86.2906 36.2449 86.7871 36.309 87.297C36.3851 87.8008 36.2701 88.3091 35.9742 88.7773L35.9696 88.7743ZM48.4972 96.1425C46.8787 95.7174 45.4811 94.9993 44.4698 94.0733C44.2534 93.8747 44.0486 93.6237 44.1832 93.399C44.3179 93.1742 44.739 93.0746 45.1153 93.0514C46.0566 92.9922 46.9967 93.2012 47.816 93.5129C48.8873 93.9174 49.8516 94.5497 50.046 95.3461C50.1266 95.6735 50.0058 96.0758 49.5386 96.2092C49.2118 96.3028 48.8332 96.2294 48.5018 96.1432L48.4972 96.1425ZM52.3958 95.6226C52.3649 95.7861 52.3035 95.9467 52.2128 96.1005C52.1167 96.2529 51.9868 96.3953 51.8273 96.5231C51.5186 96.7748 51.107 96.9647 50.6398 97.0707C50.4102 97.1196 50.1702 97.1449 49.9287 97.1456C49.6941 97.1413 49.4629 97.108 49.2474 97.0475C49.687 97.0798 50.1308 97.0191 50.5132 96.8744C50.8765 96.7409 51.1842 96.5516 51.4096 96.323C51.515 96.2117 51.601 96.0931 51.6662 95.9694C51.7241 95.8452 51.7589 95.7169 51.7698 95.5873C51.7906 95.3224 51.7291 95.0574 51.5891 94.8082C51.2955 94.292 50.7808 93.8414 50.1059 93.5099C49.4258 93.1593 48.6238 92.8948 47.8045 92.6341C48.7278 92.7138 49.6154 92.9179 50.4108 93.2334C50.8197 93.399 51.1875 93.6041 51.5017 93.8418C51.8167 94.0862 52.0622 94.3653 52.2266 94.6659C52.3893 94.9732 52.4485 95.2997 52.4004 95.6233L52.3958 95.6226ZM69.3041 97.7292C68.8099 97.8164 68.291 97.8265 67.7898 97.7585C67.5302 97.7184 67.2821 97.6519 67.0545 97.5614C66.8179 97.4711 66.6095 97.3526 66.44 97.2123C66.2654 97.066 66.147 96.8947 66.0948 96.7126C66.0452 96.5422 66.0343 96.3681 66.0626 96.1957C66.1206 95.8576 66.3195 95.5364 66.6379 95.2667C66.9385 95.0086 67.3081 94.7878 67.7288 94.6149C68.5436 94.2878 69.4426 94.0594 70.3823 93.9407C69.5169 94.1819 68.6712 94.4553 67.9589 94.8247C67.6093 95.0038 67.3052 95.2177 67.0579 95.4585C66.8278 95.6904 66.6909 95.9563 66.6598 96.2316C66.6449 96.364 66.6632 96.4971 66.7138 96.6257C66.7661 96.7416 66.8534 96.8496 66.9705 96.9433C67.0976 97.0408 67.2456 97.1259 67.41 97.1958C67.5827 97.2666 67.7683 97.3233 67.9623 97.3644C68.3794 97.4418 68.8138 97.4717 69.2465 97.4528C69.6999 97.4408 70.1671 97.3996 70.6481 97.3779C70.2253 97.5304 69.7755 97.6486 69.3087 97.73L69.3041 97.7292ZM75.2555 94.5962C75.0357 95.0877 74.4902 95.5252 73.8309 95.8196C72.7723 96.2923 71.4559 96.4571 70.2143 96.6137C69.7785 96.6753 69.324 96.5938 68.998 96.3957C68.3893 96.0069 68.8058 95.472 69.3041 95.1221C70.6354 94.1909 72.7136 93.7496 74.6364 93.9549C74.8553 93.9791 75.0481 94.0629 75.1663 94.1854C75.2845 94.3078 75.3169 94.4572 75.2555 94.5962L75.2555 94.5962ZM88.2203 77.0655C88.2756 77.7944 88.0351 78.5054 87.7796 79.2583C87.5242 80.0112 87.263 80.7859 87.3193 81.5763C87.3585 82.0775 87.5276 82.5682 87.691 83.0416C87.7819 83.3054 87.8705 83.5616 87.9373 83.8163L87.8372 83.7938C87.5237 83.7343 87.1915 83.7307 86.8752 83.7833C86.5626 83.8292 86.2726 83.9252 86.0317 84.0628C85.8119 84.196 85.6279 84.3522 85.4874 84.525C85.2363 84.8509 85.0662 85.2006 84.9834 85.5611C84.8891 85.9065 84.8016 86.2526 84.7418 86.604C84.9558 86.2788 85.1399 85.9492 85.3171 85.6196C85.4943 85.2899 85.6623 84.9678 85.9374 84.6996C86.0666 84.5687 86.2288 84.4529 86.4172 84.3572C86.593 84.272 86.7966 84.2143 87.0121 84.1886C87.4367 84.1354 87.8682 84.2186 88.0477 84.4066C88.0477 84.4643 88.0569 84.522 88.0581 84.5797C88.0742 85.5611 87.4643 86.5418 86.927 87.4071L86.5311 88.0416C85.9941 88.3638 85.4322 88.6797 84.8453 88.9894C84.7649 88.9935 84.6841 88.9935 84.6037 88.9894C84.1701 88.9614 83.7548 88.8613 83.3978 88.6987C82.6625 88.3878 82.2712 87.7944 82.1573 87.1569C82.059 86.4974 82.1703 85.8318 82.4841 85.2015C82.8128 84.5457 83.258 83.9171 83.8109 83.3286C83.3438 83.5302 82.9309 83.7805 82.5889 84.0695C82.2379 84.3598 81.9488 84.6796 81.7293 85.0202C81.511 85.3642 81.3479 85.722 81.2425 86.0878C81.1313 86.4592 81.0926 86.8383 81.1275 87.2161C81.1548 87.6106 81.2941 87.9985 81.5383 88.3601C81.6662 88.5495 81.8313 88.7273 82.0296 88.889C82.2324 89.0531 82.4699 89.1976 82.735 89.3183C83.001 89.4422 83.2907 89.5429 83.5969 89.6179C80.3082 91.1957 76.4062 92.5045 72.3994 93.1937C70.1418 93.5826 67.7748 93.8126 65.4642 93.5886C63.1536 93.3646 60.8718 92.6071 59.6302 91.3245C58.4047 92.3367 55.9169 92.476 54.2679 91.7628C52.619 91.0496 51.8377 89.6584 52.0759 88.378C50.4652 87.9378 49.0047 87.2938 47.7792 86.4834C45.8379 87.4835 42.9462 87.5562 40.791 86.7628C38.6357 85.9694 37.2641 84.3969 37.1157 82.7877C37.0064 81.589 37.7716 80.2787 39.142 79.555C39.3091 79.5012 39.4804 79.4532 39.6553 79.4111C40.7875 79.1452 42.0591 79.2111 43.1948 79.501C44.3466 79.8022 45.3379 80.3163 46.0462 80.9799C46.7746 81.6399 47.2706 82.4033 47.6215 83.2124C47.5549 82.3573 47.142 81.5289 46.4248 80.8113C45.6941 80.0773 44.6504 79.498 43.4215 79.1444C42.6965 78.9351 41.9131 78.8254 41.1201 78.8223C40.7811 77.9065 40.9158 76.9434 41.5033 76.0825C40.0235 75.8945 38.798 75.1198 38.2353 74.1924C37.9773 74.563 37.6713 74.9187 37.3205 75.2554C36.9116 75.6508 36.4357 76.015 35.9017 76.341C35.3643 76.6602 34.7452 76.9449 34.0376 77.0602C34.728 76.9104 35.2964 76.601 35.7832 76.2631C36.2658 75.919 36.6873 75.5405 37.0397 75.1348C37.3924 74.7329 37.6816 74.3087 37.9027 73.8687C37.9361 73.8006 37.9672 73.7324 37.9971 73.6642C37.8769 73.2984 37.8745 72.9204 37.9902 72.5539C38.1053 72.1966 38.088 71.9876 37.9971 71.8797C39.0212 71.3553 39.5632 70.8518 40.2893 70.1768C41.1661 69.3595 42.3674 68.2402 45.1613 66.4781C48.717 64.4973 49.6813 64.6142 52.2588 64.9288C52.5212 64.961 52.7985 64.9948 53.0942 65.0277C52.7314 65.13 52.3887 65.2603 52.0736 65.4158C51.8903 65.5078 51.719 65.6095 51.5615 65.72C51.4059 65.8318 51.2654 65.9521 51.1415 66.0796C51.026 66.209 50.9334 66.3464 50.8653 66.4894C50.8037 66.6298 50.775 66.7756 50.7802 66.9216C51.1254 66.392 51.7629 66.0473 52.4613 65.7979C53.1598 65.5484 53.9492 65.3791 54.6661 65.3948C54.9979 65.397 55.3201 65.4676 55.5866 65.5963C55.844 65.7337 56.0177 65.9263 56.0768 66.1395C56.1458 66.3689 56.0735 66.6068 55.8755 66.8018C55.656 67.0263 55.3231 67.194 54.9342 67.276C55.4046 67.3053 55.8714 67.2004 56.2138 66.9883C56.3978 66.877 56.5444 66.7421 56.6441 66.592C56.7443 66.4358 56.7925 66.2675 56.7857 66.0983C56.773 65.7912 56.5955 65.4967 56.2839 65.266C58.7349 65.3499 62.1306 65.2442 67.1914 64.6037C70.7171 64.1542 74.6042 66.3897 75.7123 67.0849C76.6179 67.6528 77.2703 68.4087 77.9607 69.2096C78.0689 69.3345 78.1778 69.4593 78.2875 69.5842L78.2875 69.5842L78.2875 69.5842C79.4474 70.908 80.7615 72.1958 83.4426 72.682C83.4916 72.8049 83.5508 72.9259 83.6199 73.0446C83.9651 73.6387 84.896 74.1961 85.9776 74.5767C85.7584 74.8563 85.6066 75.1563 85.5277 75.466C85.3749 76.0365 85.4929 76.6237 85.866 77.1494C85.5295 76.3251 85.8036 75.4458 86.6071 74.7722C86.7302 74.806 86.8533 74.8367 86.9776 74.8651C87.0524 74.9348 87.1295 75.0015 87.2077 75.0674C87.683 75.4765 88.1283 75.8578 88.218 77.0625L88.2203 77.0655ZM98.1543 67.0842C97.6814 66.9299 97.205 66.78 96.7228 66.6347C96.1866 66.4781 95.6504 66.3208 95.1049 66.1777C94.5595 66.0346 94.0129 65.893 93.4641 65.7574C92.9144 65.619 92.3508 65.5053 91.7771 65.4173C92.288 65.6128 92.8128 65.7829 93.3386 65.9485C93.8645 66.114 94.3892 66.2818 94.9082 66.4557C95.4271 66.6295 95.9438 66.801 96.4616 66.9801L97.8217 67.4566C97.5786 67.7238 97.3277 67.9845 97.0692 68.2387C96.9426 68.208 96.8172 68.1758 96.6895 68.1473C96.4674 68.0993 96.2487 68.0469 96.0244 67.9975L95.3535 67.8611C95.1257 67.8119 94.8889 67.7826 94.6493 67.7742C94.8216 67.8826 95.015 67.9758 95.2246 68.0514L95.8345 68.2762C96.0382 68.3511 96.2453 68.4215 96.4513 68.4942C96.5353 68.5241 96.6216 68.5503 96.7079 68.5788C96.5092 68.7676 96.3109 68.9539 96.113 69.1377C95.1625 70.024 94.1798 70.9402 93.4456 72.0258C92.4561 73.4882 91.5873 74.5265 89.4182 74.561L89.3319 74.561C88.467 74.5578 87.6284 74.3669 86.9488 74.0186L86.7555 73.8747C86.7446 73.8816 86.7342 73.8889 86.7244 73.8965C86.2371 73.6115 85.8517 73.2604 85.5956 72.8678C84.9478 71.8804 85.2159 70.941 85.7509 69.9865C85.9811 70 86.2135 70.0177 86.4483 70.0397C86.6922 70.0622 86.9327 70.0966 87.1755 70.1311C87.4183 70.1656 87.6588 70.2105 87.897 70.2607C88.1404 70.3159 88.3896 70.3598 88.6426 70.3918C88.4673 70.2627 88.259 70.1542 88.027 70.0712C87.5709 69.8986 87.085 69.7618 86.5794 69.6636C86.3875 69.627 86.1927 69.5967 85.996 69.573C86.1353 69.3482 86.2826 69.1279 86.4322 68.9024C86.5104 68.7833 86.5898 68.6635 86.6623 68.5428C86.8924 68.5706 87.1226 68.6005 87.3527 68.635C87.6415 68.6769 87.9281 68.7331 88.21 68.7848C88.4919 68.8365 88.7761 68.9084 89.0523 68.9834C89.3333 69.0627 89.6211 69.1315 89.9142 69.1894C89.7074 69.0367 89.4665 68.9051 89.1996 68.799C88.9372 68.6919 88.6656 68.5923 88.386 68.4994C88.1058 68.4086 87.8176 68.3285 87.523 68.2597C87.3228 68.2117 87.1191 68.172 86.9131 68.136C87.0754 67.8708 87.2261 67.6026 87.3493 67.3352C87.7244 66.5111 87.859 65.6345 87.9879 64.7842C88.149 63.7354 88.3032 62.7232 88.8774 61.8482C89.3238 61.9014 89.7715 61.9531 90.2214 61.998C90.7185 62.049 91.2156 62.1052 91.7173 62.1524L93.2132 62.2985C93.7138 62.3495 94.2188 62.3803 94.7252 62.3906C94.2524 62.2704 93.7681 62.1703 93.2753 62.0909L91.8093 61.849C91.3215 61.7665 90.8301 61.6939 90.3399 61.616C89.9544 61.5553 89.5666 61.4991 89.18 61.4429C89.3001 61.3031 89.4338 61.1685 89.5804 61.0398C90.5344 60.2045 92.112 59.7205 93.685 59.7205C94.1824 59.7197 94.6768 59.7703 95.1498 59.8704C96.8643 60.236 98.3016 61.2541 98.939 62.5172C98.8435 62.4888 98.7492 62.4595 98.6537 62.4326C98.2912 62.3314 97.9287 62.2333 97.5582 62.1501C97.1877 62.067 96.8149 61.9876 96.4397 61.9156C96.0628 61.8411 95.674 61.7946 95.281 61.777C95.6218 61.9 95.9721 62.0115 96.3304 62.1112C96.6833 62.2111 97.0312 62.3177 97.3741 62.4311C97.7193 62.5457 98.0645 62.6558 98.3925 62.7787C98.6514 62.8723 98.9068 62.969 99.1611 63.0664C99.565 64.3714 99.2003 65.8158 98.1543 67.0842L98.1543 67.0842Z" id="Shape" fill="#FFFFFF" fill-rule="evenodd" stroke="none" />
          <path d="M26.0782 3.9047C24.7687 3.24019 22.8309 3.30536 21.3776 3.82979C19.9243 4.35421 18.8587 4.79473 18.0187 5.7267C16.9152 4.72805 16.0326 4.10848 14.394 3.59604C12.7555 3.08361 10.6106 3.14654 9.31142 3.97063C7.90643 4.86964 7.73267 6.44291 8.72802 7.54495C10.4414 9.44411 15.7979 11.9314 17.8024 13.3001C20.0313 11.8767 25.5512 8.9976 26.6628 7.77869C27.7743 6.55978 27.7973 4.77749 26.0782 3.9047L26.0782 3.9047Z" id="Shape" fill="#FFFFFF" fill-rule="evenodd" stroke="none" />
        </g>
      </g>
    </g>
  </g>
</svg>