<?xml version="1.0" encoding="utf-8"?>
<svg width="511.999px" height="511.999px" viewBox="0 0 511.999 511.999" version="1.1" xmlns:xlink="http://www.w3.org/1999/xlink" xmlns="http://www.w3.org/2000/svg">
  <g id="racing">
    <g id="racing">
      <path d="M0 0L511.999 0L511.999 511.999L0 511.999L0 0L0 0Z" id="Background" fill="#FFFFFF" fill-opacity="0" fill-rule="evenodd" stroke="none" />
      <path d="M293.6 37.6L91.789 37.6C82.628 37.6 75.201 45.027 75.201 54.188C75.201 63.349 82.628 70.776 91.789 70.776L178.015 70.776C159.823 82.169 143.42 96.161 129.335 112.236L16.588 112.236C7.427 112.237 0 119.665 0 128.826C0 137.987 7.427 145.414 16.588 145.414L105.338 145.414C86.2 177.87 75.2 215.672 75.2 255.999C75.2 302.923 90.079 346.437 115.361 382.076L68.295 382.076C59.134 382.076 51.707 389.503 51.707 398.664C51.707 407.825 59.134 415.252 68.295 415.252L144.314 415.252C154.657 424.954 165.942 433.66 178.015 441.221L18.299 441.221C9.138 441.221 1.711 448.648 1.711 457.809C1.711 466.97 9.138 474.397 18.299 474.397L293.6 474.397C414.027 474.397 511.999 376.423 511.999 255.998C511.999 135.573 414.026 37.6 293.6 37.6L293.6 37.6L293.6 37.6ZM293.6 441.223C191.468 441.223 108.378 358.133 108.378 256C108.378 153.867 191.468 70.777 293.6 70.777C395.732 70.777 478.822 153.867 478.822 255.999C478.822 358.131 395.733 441.223 293.6 441.223L293.6 441.223L293.6 441.223ZM293.6 120.507C218.889 120.507 158.107 181.289 158.107 256C158.107 300.553 179.726 340.15 213.022 364.86C213.327 365.118 213.63 365.378 213.959 365.615C214.329 365.884 214.708 366.135 215.091 366.369C237.255 382.18 264.36 391.492 293.6 391.492C322.84 391.492 349.944 382.18 372.109 366.369C372.493 366.135 372.871 365.884 373.241 365.615C373.569 365.376 373.873 365.116 374.178 364.86C407.473 340.15 429.093 300.554 429.093 256C429.093 181.29 368.311 120.507 293.6 120.507L293.6 120.507L293.6 120.507ZM310.188 155.036C342.56 160.337 369.869 180.877 384.478 209.03L341.522 222.988C334.061 212.189 323.05 204.03 310.189 200.199L310.189 155.036L310.188 155.036L310.188 155.036ZM318.645 255.999C318.645 269.809 307.41 281.044 293.6 281.044C279.79 281.044 268.555 269.81 268.555 255.999C268.555 242.189 279.79 230.954 293.6 230.954C307.41 230.954 318.645 242.189 318.645 255.999L318.645 255.999L318.645 255.999ZM277.011 155.036L277.011 200.199C264.148 204.03 253.139 212.189 245.677 222.988L202.722 209.03C217.332 180.877 244.641 160.336 277.011 155.036L277.011 155.036L277.011 155.036ZM220.867 327.886C202.589 309.394 191.284 283.993 191.284 255.999C191.284 250.757 191.682 245.606 192.446 240.574L235.415 254.536C235.403 255.024 235.377 255.508 235.377 255.999C235.377 269.295 239.867 281.557 247.397 291.37L220.867 327.886L220.867 327.886L220.867 327.886ZM293.6 358.315C277.099 358.315 261.501 354.385 247.685 347.416L274.221 310.894C280.287 313.042 286.807 314.223 293.6 314.223C300.393 314.223 306.913 313.042 312.979 310.894L339.515 347.416C325.699 354.383 310.101 358.315 293.6 358.315L293.6 358.315L293.6 358.315ZM366.332 327.886L339.802 291.371C347.332 281.558 351.822 269.296 351.822 256C351.822 255.509 351.798 255.025 351.784 254.537L394.753 240.575C395.517 245.607 395.915 250.758 395.915 256C395.916 283.993 384.612 309.393 366.332 327.886L366.332 327.886L366.332 327.886Z" id="Group" fill="#1A1A1A" stroke="none" />
    </g>
  </g>
</svg>