<?xml version="1.0" encoding="utf-8"?>
<svg width="512px" height="512px" viewBox="0 0 512 512" version="1.1" xmlns:xlink="http://www.w3.org/1999/xlink" xmlns="http://www.w3.org/2000/svg">
  <defs>
    <path d="M0 0L512 0L512 512L0 512L0 0Z" id="path_1" />
    <clipPath id="mask_1">
      <use xlink:href="#path_1" />
    </clipPath>
  </defs>
  <g id="forward">
    <path d="M0 0L512 0L512 512L0 512L0 0Z" id="Background" fill="#FFFFFF" fill-opacity="0" fill-rule="evenodd" stroke="none" />
    <g clip-path="url(#mask_1)">
      <path d="M475.312 244.688L347.312 116.688C341.056 110.432 330.944 110.432 324.688 116.688C318.432 122.944 318.432 133.056 324.688 139.312L425.376 240L48 240C39.168 240 32 247.152 32 256C32 264.848 39.168 272 48 272L425.376 272L324.688 372.688C318.432 378.944 318.432 389.056 324.688 395.312C327.808 398.432 331.904 400 336 400C340.096 400 344.192 398.432 347.312 395.312L475.312 267.312C481.568 261.056 481.568 250.944 475.312 244.688L475.312 244.688Z" id="Shape" fill="#1A1A1A" stroke="none" />
    </g>
  </g>
</svg>