<?xml version="1.0" encoding="utf-8"?>
<svg width="512px" height="512px" viewBox="0 0 512 512" version="1.1" xmlns:xlink="http://www.w3.org/1999/xlink" xmlns="http://www.w3.org/2000/svg">
  <defs>
    <path d="M0 0L512 0L512 512L0 512L0 0Z" id="path_1" />
    <clipPath id="mask_1">
      <use xlink:href="#path_1" />
    </clipPath>
  </defs>
  <g id="channel2">
    <path d="M0 0L512 0L512 512L0 512L0 0Z" id="Background" fill="#FFFFFF" fill-opacity="0" fill-rule="evenodd" stroke="none" />
    <g clip-path="url(#mask_1)">
      <g id="Group" transform="translate(40.96 0)">
        <g id="Group">
          <g id="Group">
            <path d="M215.04 0C96.461 0 0 96.461 0 215.04C0 282.01 31.928 346.071 85.381 386.437C89.887 389.796 96.317 388.956 99.717 384.43C103.137 379.924 102.236 373.494 97.71 370.074C49.357 333.578 20.48 275.62 20.48 215.04C20.48 107.766 107.766 20.48 215.04 20.48C322.314 20.48 409.6 107.766 409.6 215.04C409.6 275.62 380.723 333.578 332.37 370.074C327.844 373.494 326.943 379.925 330.363 384.43C332.37 387.092 335.442 388.506 338.535 388.506C340.685 388.506 342.856 387.83 344.699 386.438C398.152 346.072 430.08 282.011 430.08 215.041C430.08 96.461 333.619 0 215.04 0L215.04 0Z" id="Shape" fill="#1A1A1A" stroke="none" />
            <path d="M327.086 498.319L273.142 347.361C273.06 347.156 273.019 346.951 272.937 346.767L241.459 258.683C256.246 249.672 266.24 233.575 266.24 215.04C266.24 186.798 243.261 163.84 215.04 163.84C186.819 163.84 163.84 186.798 163.84 215.04C163.84 233.574 173.834 249.672 188.621 258.683L157.143 346.768C157.061 346.952 157.02 347.157 156.938 347.362L102.994 498.32C102.83 498.791 102.892 499.283 102.789 499.733C102.646 500.511 102.42 501.269 102.461 502.047C102.481 502.723 102.686 503.337 102.83 503.972C102.973 504.627 103.055 505.242 103.301 505.856C103.629 506.552 104.12 507.167 104.591 507.781C104.898 508.17 105.042 508.641 105.39 509.01C105.451 509.031 105.513 509.051 105.574 509.112C106.066 509.583 106.7 509.87 107.274 510.238C107.868 510.627 108.38 511.057 109.015 511.303C109.076 511.324 109.117 511.385 109.199 511.405C110.325 511.794 111.493 511.999 112.64 511.999C114.442 511.999 116.183 511.344 117.781 510.402C118.17 510.156 118.498 509.951 118.846 509.685C119.174 509.419 119.583 509.296 119.89 509.009L215.04 413.839L310.19 509.01C310.497 509.297 310.886 509.42 311.214 509.686C311.583 509.952 311.91 510.157 312.299 510.403C313.896 511.345 315.637 512 317.44 512C318.587 512 319.754 511.795 320.881 511.406C320.963 511.386 321.004 511.324 321.065 511.304C321.7 511.058 322.212 510.628 322.806 510.239C323.379 509.87 324.014 509.584 324.506 509.113C324.567 509.052 324.629 509.031 324.69 509.011C325.038 508.642 325.182 508.171 325.489 507.782C325.96 507.168 326.452 506.553 326.779 505.857C327.025 505.243 327.107 504.628 327.25 503.973C327.393 503.338 327.598 502.724 327.619 502.048C327.66 501.27 327.435 500.512 327.291 499.734C327.189 499.282 327.25 498.79 327.086 498.319L327.086 498.319ZM184.32 215.04C184.32 198.103 198.103 184.32 215.04 184.32C231.977 184.32 245.76 198.103 245.76 215.04C245.76 231.977 231.977 245.76 215.04 245.76C198.103 245.76 184.32 231.977 184.32 215.04L184.32 215.04ZM137.605 462.315L170.742 369.541L200.561 399.36L137.605 462.315L137.605 462.315ZM178.36 348.201L207.913 265.523C210.268 265.851 212.603 266.24 215.04 266.24C217.477 266.24 219.812 265.851 222.167 265.523L251.72 348.201L215.04 384.881L178.36 348.201L178.36 348.201ZM229.519 399.36L259.338 369.541L292.475 462.315L229.519 399.36L229.519 399.36Z" id="Shape" fill="#1A1A1A" fill-rule="evenodd" stroke="none" />
            <path d="M301.937 302.244C303.862 303.923 306.258 304.743 308.634 304.743C311.481 304.743 314.348 303.535 316.375 301.2C336.875 277.525 348.16 246.928 348.16 215.041C348.16 141.641 288.44 81.921 215.04 81.921C141.64 81.921 81.92 141.641 81.92 215.041C81.92 246.928 93.204 277.525 113.705 301.2C117.412 305.48 123.904 305.931 128.143 302.244C132.423 298.537 132.894 292.086 129.187 287.806C111.902 267.838 102.399 241.992 102.399 215.041C102.399 152.946 152.923 102.401 215.039 102.401C277.155 102.401 327.679 152.946 327.679 215.041C327.679 241.993 318.176 267.838 300.891 287.806C297.185 292.086 297.656 298.537 301.937 302.244L301.937 302.244Z" id="Shape" fill="#1A1A1A" stroke="none" />
          </g>
        </g>
      </g>
    </g>
  </g>
</svg>