<?xml version="1.0" encoding="utf-8"?>
<svg width="512px" height="512px" viewBox="0 0 512 512" version="1.1" xmlns:xlink="http://www.w3.org/1999/xlink" xmlns="http://www.w3.org/2000/svg">
  <defs>
    <path d="M0 0L512 0L512 512L0 512L0 0L0 0Z" id="path_1" />
    <clipPath id="mask_1">
      <use xlink:href="#path_1" />
    </clipPath>
  </defs>
  <g id="sun">
    <g id="sun3">
      <path d="M0 0L512 0L512 512L0 512L0 0L0 0Z" id="Background" fill="#FFFFFF" fill-opacity="0" fill-rule="evenodd" stroke="none" />
      <g id="Mask-Group">
        <path d="M0 0L512 0L512 512L0 512L0 0L0 0Z" id="path_1" fill="none" stroke="none" />
        <g clip-path="url(#mask_1)">
          <g id="Group" transform="translate(40.14887 7.9999976)">
            <path d="M87.8511 248C87.8511 177.308 145.159 120 215.851 120C286.543 120 343.851 177.308 343.851 248C343.851 318.692 286.543 376 215.851 376C145.159 376 87.8511 318.692 87.8511 248L87.8511 248Z" id="Circle" fill="#1A1A1A" fill-rule="evenodd" stroke="none" />
            <path d="M304.571 155.84L89.6111 268.96C88.4161 262.038 87.8271 255.025 87.8511 248C87.8161 196.672 118.469 150.29 165.707 130.2C212.945 110.11 267.617 120.204 304.567 155.837L304.571 155.84L304.571 155.84Z" id="Shape" fill="#1A1A1A" stroke="none" />
            <path d="M215.851 93.145C211.433 93.145 207.851 89.5631 207.851 85.1448L207.851 8C207.851 5.1419 209.376 2.5009 211.851 1.0718C214.326 -0.357267 217.376 -0.357267 219.851 1.0718C222.326 2.5009 223.851 5.1419 223.851 8L223.851 85.1448C223.851 89.5631 220.269 93.145 215.851 93.145L215.851 93.145L215.851 93.145Z" id="Shape#1" fill="#1A1A1A" stroke="none" />
            <path d="M134.429 114.96C131.568 114.963 128.923 113.438 127.492 110.96L105.265 72.46C103.835 69.9842 103.835 66.9336 105.265 64.4577C106.694 61.9817 109.336 60.4566 112.195 60.4571C115.054 60.4576 117.696 61.9835 119.125 64.46L141.351 102.96C142.779 105.434 142.78 108.482 141.353 110.957C139.925 113.432 137.286 114.958 134.429 114.96L134.429 114.96L134.429 114.96Z" id="Shape#2" fill="#1A1A1A" stroke="none" />
            <path d="M74.8041 174.57C73.4021 174.57 72.0251 174.201 70.8121 173.5L4.00313 134.93C1.52663 133.501 0.000732422 130.859 0.000232697 128C-0.000267029 125.141 1.52483 122.499 4.00073 121.07C6.47673 119.64 9.52733 119.641 12.0031 121.07L78.8111 159.641C81.9501 161.451 83.4791 165.145 82.5401 168.645C81.6001 172.144 78.4261 174.575 74.8031 174.57L74.8041 174.57L74.8041 174.57Z" id="Shape#3" fill="#1A1A1A" stroke="none" />
            <path d="M52.9959 256L8.53833 256C5.68023 256 3.03923 254.475 1.61013 252C0.18103 249.525 0.18103 246.475 1.61013 244C3.03923 241.525 5.68023 240 8.53833 240L52.9959 240C55.854 240 58.495 241.525 59.9241 244C61.3531 246.475 61.3531 249.525 59.9241 252C58.495 254.475 55.854 256 52.9959 256L52.9959 256L52.9959 256Z" id="Shape#4" fill="#1A1A1A" stroke="none" />
            <path d="M8.01113 376C4.38783 376.005 1.21373 373.574 0.27433 370.074C-0.665169 366.575 0.864632 362.881 4.00313 361.07L70.8111 322.5C73.2871 321.07 76.3371 321.07 78.8131 322.499C81.2891 323.929 82.8141 326.571 82.8141 329.43C82.8131 332.289 81.2871 334.93 78.8111 336.359L12.0031 374.93C10.7896 375.631 9.41273 376 8.01113 376L8.01113 376L8.01113 376Z" id="Shape#5" fill="#1A1A1A" stroke="none" />
            <path d="M112.187 435.539C109.33 435.537 106.691 434.011 105.264 431.536C103.836 429.062 103.837 426.013 105.265 423.539L127.492 385.04C129.701 381.214 134.594 379.903 138.42 382.112C142.247 384.321 143.559 389.213 141.351 393.04L119.125 431.54C117.694 434.018 115.048 435.543 112.187 435.539L112.187 435.539L112.187 435.539Z" id="Shape#6" fill="#1A1A1A" stroke="none" />
            <path d="M215.851 496C211.433 496 207.851 492.418 207.851 488L207.851 410.855C207.851 407.997 209.376 405.356 211.851 403.927C214.326 402.498 217.376 402.498 219.851 403.927C222.326 405.356 223.851 407.997 223.851 410.855L223.851 488C223.851 492.418 220.269 496 215.851 496L215.851 496L215.851 496Z" id="Shape#7" fill="#1A1A1A" stroke="none" />
            <path d="M319.515 435.539C316.654 435.543 314.008 434.017 312.577 431.539L290.351 393.04C288.921 390.564 288.921 387.514 290.35 385.038C291.78 382.562 294.422 381.037 297.281 381.037C300.14 381.038 302.781 382.564 304.21 385.04L326.437 423.54C327.865 426.014 327.866 429.062 326.438 431.537C325.011 434.012 322.372 435.538 319.515 435.54L319.515 435.539L319.515 435.539Z" id="Shape#8" fill="#1A1A1A" stroke="none" />
            <path d="M423.691 376C422.289 376 420.912 375.631 419.699 374.93L352.891 336.359C349.065 334.15 347.754 329.257 349.963 325.431C352.172 321.604 357.064 320.292 360.891 322.5L427.7 361.07C430.838 362.881 432.368 366.575 431.429 370.075C430.489 373.574 427.314 376.005 423.691 376L423.691 376L423.691 376Z" id="Shape#9" fill="#1A1A1A" stroke="none" />
            <path d="M423.164 256L378.706 256C375.848 256 373.207 254.475 371.778 252C370.349 249.525 370.349 246.475 371.778 244C373.207 241.525 375.848 240 378.706 240L423.164 240C426.022 240 428.663 241.525 430.092 244C431.521 246.475 431.521 249.525 430.092 252C428.663 254.475 426.022 256 423.164 256L423.164 256L423.164 256Z" id="Shape#10" fill="#1A1A1A" stroke="none" />
            <path d="M356.898 174.57C353.275 174.575 350.101 172.144 349.161 168.645C348.222 165.145 349.752 161.451 352.89 159.641L419.699 121.07C422.175 119.641 425.225 119.64 427.701 121.07C430.177 122.499 431.702 125.141 431.702 128C431.701 130.859 430.175 133.501 427.699 134.93L360.891 173.5C359.677 174.201 358.3 174.571 356.898 174.57L356.898 174.57L356.898 174.57Z" id="Shape#11" fill="#1A1A1A" stroke="none" />
            <path d="M297.273 114.96C294.416 114.958 291.777 113.432 290.349 110.957C288.922 108.482 288.923 105.434 290.351 102.96L312.577 64.46C314.006 61.9835 316.648 60.4576 319.507 60.4571C322.366 60.4566 325.008 61.9817 326.437 64.4576C327.867 66.9336 327.867 69.9842 326.437 72.46L304.21 110.96C302.779 113.438 300.134 114.963 297.273 114.96L297.273 114.96L297.273 114.96Z" id="Shape#12" fill="#1A1A1A" stroke="none" />
            <path d="M92.0641 280C106.582 336.5 157.515 376 215.851 376C274.187 376 325.12 336.5 339.638 280L92.0641 280L92.0641 280Z" id="Shape#13" fill="#1A1A1A" stroke="none" />
            <path d="M207.851 56L207.851 85.1448C207.851 89.5631 211.433 93.145 215.851 93.145C220.269 93.145 223.851 89.5631 223.851 85.1448L223.851 56L207.851 56L207.851 56Z" id="Shape#14" fill="#1A1A1A" stroke="none" />
            <path d="M112.923 85.7232L127.495 110.963C128.924 113.439 131.566 114.964 134.424 114.963C137.283 114.963 139.924 113.438 141.353 110.962C142.781 108.486 142.781 105.436 141.35 102.961L126.779 77.7232L112.923 85.7232L112.923 85.7232Z" id="Shape#15" fill="#1A1A1A" stroke="none" />
            <path d="M45.5743 158.928L70.8141 173.501C73.2901 174.93 76.3401 174.93 78.8151 173.5C81.2911 172.071 82.8151 169.429 82.8141 166.57C82.8141 163.712 81.2881 161.071 78.8121 159.643L53.5743 145.072L45.5743 158.928L45.5743 158.928Z" id="Shape#16" fill="#1A1A1A" stroke="none" />
            <path d="M23.8511 256L52.9959 256C57.4142 256 60.9961 252.418 60.9961 248C60.9961 243.582 57.4142 240 52.9959 240L23.8511 240L23.8511 256L23.8511 256Z" id="Shape#17" fill="#1A1A1A" stroke="none" />
            <path d="M53.5743 350.928L78.8141 336.356C81.2901 334.927 82.8151 332.285 82.8141 329.427C82.8141 326.568 81.2891 323.927 78.8131 322.498C76.3371 321.07 73.2871 321.07 70.8121 322.501L45.5743 337.072L53.5743 350.928L53.5743 350.928Z" id="Shape#18" fill="#1A1A1A" stroke="none" />
            <path d="M126.779 418.277L141.352 393.037C142.781 390.561 142.781 387.511 141.351 385.036C139.922 382.56 137.28 381.036 134.421 381.037C131.563 381.037 128.922 382.563 127.494 385.039L112.923 410.277L126.779 418.277L126.779 418.277Z" id="Shape#19" fill="#1A1A1A" stroke="none" />
            <path d="M223.851 440L223.851 410.855C223.851 406.437 220.269 402.855 215.851 402.855C211.433 402.855 207.851 406.437 207.851 410.855L207.851 440L223.851 440L223.851 440Z" id="Shape#20" fill="#1A1A1A" stroke="none" />
            <path d="M318.779 410.277L304.207 385.04C302.778 382.564 300.136 381.04 297.278 381.04C294.419 381.04 291.778 382.566 290.349 385.041C288.921 387.517 288.921 390.567 290.352 393.042L304.923 418.28L318.779 410.277L318.779 410.277Z" id="Shape#21" fill="#1A1A1A" stroke="none" />
            <path d="M386.128 337.072L360.891 322.499C358.415 321.07 355.365 321.07 352.89 322.5C350.415 323.929 348.89 326.571 348.891 329.43C348.892 332.288 350.417 334.929 352.893 336.357L378.131 350.928L386.128 337.072L386.128 337.072Z" id="Shape#22" fill="#1A1A1A" stroke="none" />
            <path d="M407.851 240L378.706 240C374.288 240 370.706 243.582 370.706 248C370.706 252.418 374.288 256 378.706 256L407.851 256L407.851 240L407.851 240Z" id="Shape#23" fill="#1A1A1A" stroke="none" />
            <path d="M378.128 145.072L352.891 159.644C350.415 161.073 348.891 163.715 348.891 166.573C348.891 169.432 350.417 172.073 352.892 173.502C355.368 174.93 358.418 174.93 360.893 173.499L386.131 158.928L378.128 145.072L378.128 145.072Z" id="Shape#24" fill="#1A1A1A" stroke="none" />
            <path d="M304.923 77.7232L290.35 102.96C288.921 105.436 288.921 108.486 290.351 110.961C291.78 113.436 294.422 114.961 297.281 114.96C300.139 114.959 302.78 113.434 304.208 110.958L318.779 85.72L304.923 77.7232L304.923 77.7232Z" id="Shape#25" fill="#1A1A1A" stroke="none" />
          </g>
        </g>
      </g>
    </g>
  </g>
</svg>