<?xml version="1.0" encoding="UTF-8"?>
<svg xmlns="http://www.w3.org/2000/svg" xmlns:xlink="http://www.w3.org/1999/xlink" id="Gradient" viewBox="0 0 512 512" width="512" height="512"><defs><linearGradient id="linear-gradient" x1="256" y1="496.002" x2="256" y2="16" gradientUnits="userSpaceOnUse"><stop offset="0" stop-color="#12bee5"/><stop offset="0.5" stop-color="#c071e9"/><stop offset="1" stop-color="#f24f5a"/></linearGradient></defs><path d="M322.343,77.657c31.7,31.7,49.876,77.746,49.876,126.343a192.415,192.415,0,0,1-4.536,41.578c-2.669-45.463-22.762-87.863-57.278-120.33A195.445,195.445,0,0,0,176,72a8,8,0,0,0,0,16,181.953,181.953,0,0,1,123.443,48.9,174.21,174.21,0,0,1,20.621,23.149C287.62,136.772,246.672,123.781,204,123.781c-52.808,0-102.982,19.887-137.657,54.562a8,8,0,0,0,11.314,11.314c31.7-31.7,77.746-49.876,126.343-49.876a192.452,192.452,0,0,1,41.483,4.514c-45.749,2.481-88.057,21.116-120.064,53.124C90.971,231.866,72,278.241,72,328a8,8,0,0,0,16,0c0-59.995,29.934-111.7,76-141.354C138.249,219.869,123.781,262.973,123.781,308c0,52.808,19.887,102.982,54.562,137.657a8,8,0,1,0,11.314-11.314c-31.7-31.7-49.876-77.746-49.876-126.343a192.415,192.415,0,0,1,4.536-41.578c2.669,45.463,22.762,87.863,57.278,120.33A195.445,195.445,0,0,0,336,440a8,8,0,0,0,0-16,181.953,181.953,0,0,1-123.443-48.9,174.252,174.252,0,0,1-20.283-22.691c31.912,23.249,70.67,35.813,111.726,35.813,51.005,0,98.472-19.377,133.657-54.562a8,8,0,0,0-11.314-11.314C394.181,354.506,350.731,372.219,304,372.219a179.327,179.327,0,0,1-39.722-4.421c46.274-2.154,89.5-22.335,122.474-57.393A195.445,195.445,0,0,0,440,176a8,8,0,0,0-16,0,181.953,181.953,0,0,1-48.9,123.443,174.21,174.21,0,0,1-23.149,20.621c23.28-32.444,36.271-73.392,36.271-116.064,0-52.808-19.887-102.982-54.562-137.657a8,8,0,0,0-11.314,11.314ZM352,256a96,96,0,1,1-96-96A96.108,96.108,0,0,1,352,256ZM209.646,480.171c-49.149-10.339-94.181-38.6-126.8-79.567A233.211,233.211,0,0,1,32,256,224.329,224.329,0,0,1,57.606,151.959a39.968,39.968,0,0,0,36.81-51.077,225.689,225.689,0,0,1,27.365-24.226,31.975,31.975,0,0,0,46.151-26.672A222.238,222.238,0,0,1,256,32c23.514,0,43.728,2.516,61.8,7.69A8,8,0,0,0,322.2,24.31C302.681,18.718,281.025,16,256,16a238.126,238.126,0,0,0-91.245,17.975A31.992,31.992,0,1,0,109.5,65.915,241.9,241.9,0,0,0,86.479,86.138a39.984,39.984,0,1,0-45.4,62.963A240.527,240.527,0,0,0,16,256,249.279,249.279,0,0,0,70.329,410.57c34.932,43.876,83.239,74.155,136.025,85.259a8,8,0,0,0,3.292-15.658ZM136,32a16,16,0,1,1-16,16A16.019,16.019,0,0,1,136,32ZM32,112a24,24,0,1,1,24,24A24.028,24.028,0,0,1,32,112ZM450.542,396.574A237.245,237.245,0,0,0,496,256a241.368,241.368,0,0,0-36.524-128.217,237.567,237.567,0,0,0-95.923-86.951,8,8,0,1,0-7.106,14.336,221.551,221.551,0,0,1,89.464,81.1A225.378,225.378,0,0,1,480,256a221.509,221.509,0,0,1-46.038,136.05c-.65-.032-1.3-.05-1.962-.05a40.045,40.045,0,0,0-40,40c0,.656.018,1.308.05,1.957A221.568,221.568,0,0,1,256,480a8,8,0,0,0,0,16,237.311,237.311,0,0,0,140.576-45.454,39.99,39.99,0,1,0,53.966-53.972ZM432,456a24,24,0,1,1,24-24A24.028,24.028,0,0,1,432,456Z" style="fill:url(#linear-gradient)"/></svg>
