<?xml version="1.0" encoding="UTF-8" standalone="no"?>
<svg
   xmlns:dc="http://purl.org/dc/elements/1.1/"
   xmlns:cc="http://creativecommons.org/ns#"
   xmlns:rdf="http://www.w3.org/1999/02/22-rdf-syntax-ns#"
   xmlns:svg="http://www.w3.org/2000/svg"
   xmlns="http://www.w3.org/2000/svg"
   xmlns:sodipodi="http://sodipodi.sourceforge.net/DTD/sodipodi-0.dtd"
   xmlns:inkscape="http://www.inkscape.org/namespaces/inkscape"
   id="visual"
   viewBox="0 0 508 286"
   width="508"
   height="286"
   version="1.1"
   sodipodi:docname="blob-scene-haikei (4).svg"
   inkscape:version="1.0.2-2 (e86c870879, 2021-01-15)">
  <metadata
     id="metadata210">
    <rdf:RDF>
      <cc:Work
         rdf:about="">
        <dc:format>image/svg+xml</dc:format>
        <dc:type
           rdf:resource="http://purl.org/dc/dcmitype/StillImage" />
      </cc:Work>
    </rdf:RDF>
  </metadata>
  <sodipodi:namedview
     pagecolor="#ffffff"
     bordercolor="#666666"
     borderopacity="1"
     objecttolerance="10"
     gridtolerance="10"
     guidetolerance="10"
     inkscape:pageopacity="0"
     inkscape:pageshadow="2"
     inkscape:window-width="3440"
     inkscape:window-height="1387"
     id="namedview208"
     showgrid="false"
     inkscape:zoom="1.4586614"
     inkscape:cx="47.326483"
     inkscape:cy="280.78386"
     inkscape:window-x="-8"
     inkscape:window-y="-8"
     inkscape:window-maximized="1"
     inkscape:current-layer="visual"
     inkscape:document-rotation="0" />
  <rect
     x="0"
     y="0"
     width="508"
     height="286"
     fill="#000"
     id="rect111" />
  <defs
     id="defs118">
    <linearGradient
       id="grad1_0"
       x1="43.7%"
       y1="100%"
       x2="100%"
       y2="0%">
      <stop
         offset="14.475524475524475%"
         stop-color="#ffffff"
         stop-opacity="1"
         id="stop113" />
      <stop
         offset="85.52447552447553%"
         stop-color="#ffffff"
         stop-opacity="1"
         id="stop115" />
    </linearGradient>
  </defs>
  <defs
     id="defs125">
    <linearGradient
       id="grad1_1"
       x1="43.7%"
       y1="100%"
       x2="100%"
       y2="0%">
      <stop
         offset="14.475524475524475%"
         stop-color="#ffffff"
         stop-opacity="1"
         id="stop120" />
      <stop
         offset="85.52447552447553%"
         stop-color="#b9b9b9"
         stop-opacity="1"
         id="stop122" />
    </linearGradient>
  </defs>
  <defs
     id="defs132">
    <linearGradient
       id="grad1_2"
       x1="43.7%"
       y1="100%"
       x2="100%"
       y2="0%">
      <stop
         offset="14.475524475524475%"
         stop-color="#777777"
         stop-opacity="1"
         id="stop127" />
      <stop
         offset="85.52447552447553%"
         stop-color="#b9b9b9"
         stop-opacity="1"
         id="stop129" />
    </linearGradient>
  </defs>
  <defs
     id="defs139">
    <linearGradient
       id="grad1_3"
       x1="43.7%"
       y1="100%"
       x2="100%"
       y2="0%">
      <stop
         offset="14.475524475524475%"
         stop-color="#777777"
         stop-opacity="1"
         id="stop134" />
      <stop
         offset="85.52447552447553%"
         stop-color="#3b3b3b"
         stop-opacity="1"
         id="stop136" />
    </linearGradient>
  </defs>
  <defs
     id="defs146">
    <linearGradient
       id="grad1_4"
       x1="43.7%"
       y1="100%"
       x2="100%"
       y2="0%">
      <stop
         offset="14.475524475524475%"
         stop-color="#000000"
         stop-opacity="1"
         id="stop141" />
      <stop
         offset="85.52447552447553%"
         stop-color="#3b3b3b"
         stop-opacity="1"
         id="stop143" />
    </linearGradient>
  </defs>
  <defs
     id="defs153">
    <linearGradient
       id="grad2_0"
       x1="0%"
       y1="100%"
       x2="56.3%"
       y2="0%">
      <stop
         offset="14.475524475524475%"
         stop-color="#ffffff"
         stop-opacity="1"
         id="stop148" />
      <stop
         offset="85.52447552447553%"
         stop-color="#ffffff"
         stop-opacity="1"
         id="stop150" />
    </linearGradient>
  </defs>
  <defs
     id="defs160">
    <linearGradient
       id="grad2_1"
       x1="0%"
       y1="100%"
       x2="56.3%"
       y2="0%">
      <stop
         offset="14.475524475524475%"
         stop-color="#b9b9b9"
         stop-opacity="1"
         id="stop155" />
      <stop
         offset="85.52447552447553%"
         stop-color="#ffffff"
         stop-opacity="1"
         id="stop157" />
    </linearGradient>
  </defs>
  <defs
     id="defs167">
    <linearGradient
       id="grad2_2"
       x1="0%"
       y1="100%"
       x2="56.3%"
       y2="0%">
      <stop
         offset="14.475524475524475%"
         stop-color="#b9b9b9"
         stop-opacity="1"
         id="stop162" />
      <stop
         offset="85.52447552447553%"
         stop-color="#777777"
         stop-opacity="1"
         id="stop164" />
    </linearGradient>
  </defs>
  <defs
     id="defs174">
    <linearGradient
       id="grad2_3"
       x1="0%"
       y1="100%"
       x2="56.3%"
       y2="0%">
      <stop
         offset="14.475524475524475%"
         stop-color="#3b3b3b"
         stop-opacity="1"
         id="stop169" />
      <stop
         offset="85.52447552447553%"
         stop-color="#777777"
         stop-opacity="1"
         id="stop171" />
    </linearGradient>
  </defs>
  <defs
     id="defs181">
    <linearGradient
       id="grad2_4"
       x1="0%"
       y1="100%"
       x2="56.3%"
       y2="0%">
      <stop
         offset="14.475524475524475%"
         stop-color="#3b3b3b"
         stop-opacity="1"
         id="stop176" />
      <stop
         offset="85.52447552447553%"
         stop-color="#000000"
         stop-opacity="1"
         id="stop178" />
    </linearGradient>
  </defs>
  <path
     id="layer1"
     d="m 508,0 v 273 c -10.9,-2.9 -21.89961,-5.80039 -32.09961,-8.90039 -10.1,-3.2 -19.6,-6.60039 -32,-3.90039 -12.5,2.8 -28.09961,11.70078 -36.59961,5.30078 -8.6,-6.3 -10.1,-27.99961 -21.5,-32.59961 -11.4,-4.6 -32.70078,7.79922 -36.30078,-3.30078 -3.6,-11.1 10.4,-45.80039 6,-57.40039 -4.4,-11.7 -27.30039,-0.39961 -42.90039,0.90039 -15.5,1.2 -23.69961,-7.49922 -32.59961,-15.69922 -8.8,-8.3 -18.19922,-15.90078 -21.69922,-26.30078 -3.5,-10.5 -1.00156,-23.79883 -5.60156,-34.298829 -4.5,-10.5 -16.19844,-18.30039 -22.39844,-28.40039 -6.2,-10 -6.90117,-22.3 -5.20117,-34 C 226.79961,22.600391 230.9,11.3 235,0 Z M 39.82031,0.83398438 c 9.50381,-0.1006073 18.45742,11.04492162 24.2793,24.96679662 7,16.5 9.60039,36.99961 19.90039,38.59961 10.4,1.6 28.50078,-15.600391 43.80078,-21.900391 15.3,-6.3 27.69844,-1.499609 32.39844,11.400391 4.7,13 1.50039,34.099218 4.90039,45.699218 3.4,11.600001 13.40078,13.701171 28.80078,14.701171 15.3,0.9 36.09922,0.6 38.19922,11.5 2,10.9 -14.69922,33 -10.69922,44 3.9,11.1 28.70039,11.09844 33.90039,19.39844 5.2,8.3 -9.1,24.80117 -13.5,37.20117 -4.4,12.4 1.09844,20.70039 2.39844,29.90039 C 245.59922,265.60078 242.8,275.8 240,286 H 0 V 54 C 11.5,30.7 23.1,7.3996094 34.5,2.0996094 c 1.78125,-0.84375 3.56035,-1.24699404 5.32031,-1.26562502 z" />
  <path
     id="layer2"
     d="m 508,0 v 218.40039 c -8.8,-2.3 -17.49922,-4.60117 -25.69922,-7.20117 -8.1,-2.5 -15.60156,-5.2 -25.60156,-3 -10,2.2 -22.39883,9.30117 -29.29883,4.20117 -6.8,-5.1 -8.10117,-22.39961 -17.20117,-26.09961 -9.1,-3.7 -26.1,6.29844 -29,-2.60156 -2.9,-8.9 8.30078,-36.6 4.80078,-46 -3.6,-9.3 -21.90078,-0.29922 -34.30078,0.80078 -12.4,1 -18.99961,-5.99961 -26.09961,-12.59961 -7,-6.6 -14.60039,-12.69961 -17.40039,-21.09961 -2.7,-8.299999 -0.69844,-18.900389 -4.39844,-27.400389 -3.7,-8.4 -13,-14.59961 -18,-22.59961 -4.9,-8.1 -5.50156,-17.900781 -4.10156,-27.300781 1.3,-9.4 4.60039,-18.5 7.90039,-27.5 z M 31.85156,57.888672 c 7.60397,-0.08627 14.8086,8.774609 19.44922,19.912109 5.6,13.2 7.59844,29.598439 15.89844,30.898439 8.3,1.3 22.8,-12.500001 35,-17.500001 12.3,-5 22.2,-1.198438 26,9.101561 3.7,10.4 1.20039,27.29961 3.90039,36.59961 2.7,9.3 10.7,10.99922 23,11.69922 12.3,0.7 28.89961,0.50117 30.59961,9.20117 1.6,8.8 -11.79961,26.39883 -8.59961,35.29883 3.2,8.8 22.89961,8.8 27.09961,15.5 4.2,6.6 -7.29883,19.80117 -10.79883,29.70117 -3.5,10 0.9,16.6 2,24 C 196.40039,269.70078 194.2,277.8 192,286 H 0 V 100.40039 C 9.2,81.800391 18.39961,63.200391 27.59961,58.900391 c 1.42187,-0.671875 2.84381,-0.995743 4.25195,-1.011719 z" />
  <path
     id="layer3"
     d="m 508,0 v 163.80078 c -6.6,-1.7 -13.09922,-3.50039 -19.19922,-5.40039 -6.1,-1.9 -11.80078,-3.90078 -19.30078,-2.30078 -7.5,1.7 -16.80039,7.00117 -21.90039,3.20117 -5.2,-3.8 -6.10039,-16.80156 -12.90039,-19.60156 -6.9,-2.7 -19.59883,4.70156 -21.79883,-1.89844 -2.2,-6.7 6.19961,-27.5 3.59961,-34.5 -2.7,-6.999999 -16.39922,-0.2 -25.69922,0.5 -9.3,0.8 -14.30156,-4.500389 -19.60156,-9.400389 -5.3,-4.9 -10.9,-9.500782 -13,-15.800782 -2.1,-6.2 -0.59844,-14.2 -3.39844,-20.5 -2.7,-6.3 -9.70039,-11 -13.40039,-17 -3.7,-6.1 -4.20117,-13.4 -3.20117,-20.5 1.1,-7.1 3.5,-13.799609 6,-20.599609 z M 23.87695,114.91797 c 5.68394,-0.0875 11.0793,6.6293 14.62305,14.98242 4.2,9.9 5.70039,22.19961 11.90039,23.09961 6.2,1 17.09883,-9.29961 26.29883,-13.09961 9.2,-3.8 16.60039,-0.89961 19.40039,6.90039 2.8,7.7 0.9,20.39844 3,27.39844 2,6.9 8.00117,8.20078 17.20117,8.80078 9.2,0.5 21.69844,0.30039 22.89844,6.90039 1.3,6.5 -8.79844,19.80039 -6.39844,26.40039 2.4,6.6 17.19844,6.59961 20.39844,11.59961 3.1,5 -5.49961,14.89883 -8.09961,22.29883 -2.7,7.5 0.60039,12.5 1.40039,18 0.8,5.6 -0.8,11.70078 -2.5,17.80078 H 0 V 146.80078 c 6.9,-14 13.79922,-27.90156 20.69922,-31.10156 1.0625,-0.51563 2.12515,-0.76505 3.17773,-0.78125 z" />
  <path
     id="layer4"
     d="m 508,0 v 109.19922 c -4.4,-1.2 -8.80078,-2.29961 -12.80078,-3.59961 -4.1,-1.2 -7.89844,-2.6 -12.89844,-1.5 -4.9,1.1 -11.20156,4.69961 -14.60156,2.09961 -3.4,-2.5 -3.99961,-11.199611 -8.59961,-13.099611 -4.6,-1.8 -13,3.201172 -14.5,-1.298828 -1.4,-4.4 4.20039,-18.30039 2.40039,-22.90039 -1.8,-4.7 -10.89961,-0.201172 -17.09961,0.298828 -6.3,0.5 -9.59961,-2.998828 -13.09961,-6.298828 -3.5,-3.2 -7.30117,-6.3 -8.70117,-10.5 -1.4,-4.2 -0.39922,-9.501172 -2.19922,-13.701172 -1.8,-4.2 -6.5,-7.298828 -9,-11.298828 -2.5,-4 -2.69961,-8.901172 -2.09961,-13.701172 0.7,-4.7000002 2.4,-9.199219 4,-13.699219 z M 16.36719,171.93164 c 3.66133,0.29993 7.05703,4.60625 9.33203,9.96875 2.7,6.6 3.80039,14.8 7.90039,15.5 4.2,0.6 11.4,-6.30078 17.5,-8.80078 6.1,-2.5 11.1,-0.60039 13,4.59961 1.8,5.1 0.60039,13.60117 1.90039,18.20117 1.4,4.7 5.4,5.50039 11.5,5.90039 6.2,0.4 14.50078,0.29961 15.30078,4.59961 C 93.60078,226.30039 87,235.1 88.5,239.5 c 1.6,4.4 11.49961,4.50078 13.59961,7.80078 2.1,3.3 -3.60039,9.89844 -5.40039,14.89844 -1.8,4.9 0.4,8.20039 1,11.90039 C 98.19922,277.79961 97.1,281.9 96,286 H 0 v -92.80078 c 4.6,-9.3 9.20078,-18.59883 13.80078,-20.79883 0.8625,-0.39375 1.72149,-0.53796 2.56641,-0.46875 z" />
  <path
     id="layer5"
     d="m 508,0 v 54.599609 c -2.2,-0.6 -4.40039,-1.198828 -6.40039,-1.798828 -2,-0.6 -3.90039,-1.300781 -6.40039,-0.800781 -2.5,0.6 -5.59883,2.399609 -7.29883,1.099609 -1.8,-1.3 -2.10078,-5.6 -4.30078,-6.5 -2.3,-0.9 -6.59883,1.500782 -7.29883,-0.699218 -0.7,-2.2 2.09922,-9.1 1.19922,-11.5 -0.9,-2.3 -5.49961,-7.82e-4 -8.59961,0.199218 -3.1,0.3 -4.7,-1.499609 -6.5,-3.099609 -1.8,-1.7 -3.60078,-3.200781 -4.30078,-5.300781 -0.7,-2.1 -0.19922,-4.698828 -1.19922,-6.798828 -0.9,-2.1 -3.20039,-3.701172 -4.40039,-5.701172 -1.3,-2 -1.39961,-4.4988284 -1.09961,-6.7988284 0.4,-2.4 1.2,-4.6003906 2,-6.9003906 z M 8.17773,228.95117 c 1.81829,0.1479 3.48555,2.36758 4.62305,5.04883 1.4,3.3 1.9,7.39922 4,7.69922 2.1,0.3 5.69883,-3.09844 8.79883,-4.39844 3,-1.3 5.50039,-0.30117 6.40039,2.29883 1,2.6 0.3,6.79961 1,9.09961 0.7,2.3 2.70078,2.8 5.80078,3 3,0.1 7.19961,0.10078 7.59961,2.30078 0.4,2.1 -2.89961,6.60078 -2.09961,8.80078 0.8,2.2 5.69883,2.19883 6.79883,3.79883 1,1.7 -1.89922,5 -2.69922,7.5 -0.9,2.5 0.20039,4.1 0.40039,6 C 49.10078,281.89961 48.6,284 48,286 H 0 v -46.40039 c 2.3,-4.7 4.60039,-9.30039 6.90039,-10.40039 0.43125,-0.20625 0.85774,-0.28218 1.27734,-0.24805 z" />
</svg>
