<?xml version="1.0" encoding="utf-8"?>
<svg width="467.968px" height="467.968px" viewBox="0 0 467.968 467.968" version="1.1" xmlns:xlink="http://www.w3.org/1999/xlink" xmlns="http://www.w3.org/2000/svg">
  <defs>
    <path d="M0 0L467.968 0L467.968 467.968L0 467.968L0 0Z" id="path_1" />
    <clipPath id="mask_1">
      <use xlink:href="#path_1" />
    </clipPath>
  </defs>
  <g id="video">
    <path d="M0 0L467.968 0L467.968 467.968L0 467.968L0 0Z" id="Background" fill="#FFFFFF" fill-opacity="0" fill-rule="evenodd" stroke="none" />
    <g clip-path="url(#mask_1)">
      <g id="Group" transform="translate(0 96.512)">
        <g id="Group">
          <path d="M264.704 0L51.2 0C23.04 0 0 23.04 0 51.2L0 223.744C0 251.904 23.04 274.944 51.2 274.944L264.704 274.944C292.864 274.944 315.904 251.904 315.904 223.744L315.904 51.2C315.904 22.528 292.864 0 264.704 0L264.704 0Z" id="Shape" fill="#1A1A1A" stroke="none" />
        </g>
      </g>
      <g id="Group" transform="translate(341.50397 123.847305)">
        <g id="Group">
          <path d="M88.576 0.824692C85.504 1.33669 82.432 2.87269 79.872 4.40869L0 50.4887L0 169.273L80.384 215.353C95.232 224.057 113.664 218.937 122.368 204.089C124.928 199.481 126.464 194.361 126.464 188.729L126.464 30.5207C126.464 11.5767 108.544 -3.7833 88.576 0.824692L88.576 0.824692Z" id="Shape" fill="#1A1A1A" stroke="none" />
        </g>
      </g>
    </g>
  </g>
</svg>