<svg xmlns="http://www.w3.org/2000/svg" xmlns:xlink="http://www.w3.org/1999/xlink" width="1600" height="900" xmlns:v="https://vecta.io/nano"><defs><path d="M0 0h20v20H0V0z" id="A"/><path id="B" d="M0 0h1600v900H0z"/><clipPath id="C"><use xlink:href="#B" clip-rule="evenodd"/></clipPath><clipPath id="D"><use xlink:href="#A"/></clipPath></defs><g clip-path="url(#C)"><use xlink:href="#B" fill="#fff" fill-opacity="0"/><g fill-rule="evenodd"><path d="M4.999 0H1595q.12 0 .25.006.12.006.24.018.12.012.24.03.13.018.25.042.12.024.24.054.11.03.23.065.12.036.23.077.12.041.23.088.12.047.23.099.11.052.22.11.11.058.21.121.11.063.21.131.1.068.2.141.1.073.19.151.1.078.19.16.09.082.18.169.08.087.16.178.09.091.17.186.07.095.15.193.07.099.14.201.07.102.13.207.06.105.12.213.06.108.11.219.05.111.1.224.05.113.09.229.04.116.07.233.04.117.07.236.03.119.05.239.03.12.05.242.01.121.03.244.01.122.01.245.01.123.01.245v890.002q0 .123-.01.245 0 .123-.01.245-.02.122-.03.243-.02.122-.05.242-.02.121-.05.24-.03.119-.07.236-.03.117-.07.233-.04.115-.09.229-.05.113-.1.224-.05.111-.11.219-.06.109-.12.214-.06.105-.13.207-.07.102-.14.201-.08.098-.15.193-.08.095-.17.186-.08.091-.16.178-.09.087-.18.169-.09.082-.19.16-.09.078-.19.151-.1.073-.2.141-.1.069-.21.132-.1.063-.21.121-.11.057-.22.11-.11.052-.23.099-.11.047-.23.089-.11.041-.23.077-.12.035-.23.065-.12.03-.24.054-.12.024-.25.042-.12.018-.24.03-.12.012-.24.018-.13.006-.25.006H4.999q-.123 0-.245-.006-.123-.006-.245-.018-.122-.012-.244-.03-.121-.018-.242-.042-.12-.024-.239-.054-.119-.03-.236-.065-.117-.036-.233-.077-.116-.042-.229-.089-.113-.047-.224-.099-.111-.053-.219-.11-.108-.058-.213-.121-.105-.063-.207-.132-.102-.068-.201-.141-.099-.073-.193-.151-.095-.078-.186-.16-.091-.082-.178-.169-.087-.087-.169-.178-.082-.091-.16-.186-.078-.095-.151-.193-.073-.099-.141-.201-.068-.102-.131-.207-.063-.105-.121-.214-.058-.108-.11-.219-.052-.111-.099-.224-.047-.114-.088-.229-.041-.115-.077-.233-.036-.117-.065-.236-.03-.119-.054-.24-.024-.12-.042-.242-.018-.121-.03-.243-.012-.122-.018-.245-.006-.122-.006-.245V4.999q0-.123.006-.245.006-.123.018-.245.012-.122.03-.244.018-.121.042-.242.024-.12.054-.239.03-.119.065-.236.036-.117.077-.233.041-.116.088-.229.047-.113.099-.224.052-.111.11-.219.058-.108.121-.213.063-.105.131-.207.068-.102.141-.201.073-.099.151-.193.078-.095.16-.186.082-.091.169-.178.087-.087.178-.169.091-.082.186-.16.095-.078.193-.151.099-.073.201-.141.102-.068.207-.131.105-.063.213-.121.108-.058.219-.11.111-.052.224-.099.113-.047.229-.088.116-.041.233-.077.117-.036.236-.065.119-.03.239-.054.12-.024.242-.042.121-.018.244-.03.122-.012.245-.018Q4.876 0 4.999 0z" fill="#202020"/><path d="M0 837h1600v55.001q0 .196-.01.393-.01.196-.03.391-.02.196-.05.39-.03.194-.06.387-.04.193-.09.383-.05.19-.1.378-.06.188-.13.373-.06.185-.14.366-.07.181-.16.359-.08.178-.17.351-.1.173-.2.342-.1.168-.21.332-.11.163-.22.321-.12.158-.25.31-.12.152-.25.297-.13.145-.27.284-.14.139-.29.271-.14.132-.29.256-.16.125-.31.242-.16.117-.33.226-.16.109-.33.21-.17.101-.34.194-.17.092-.35.176-.18.084-.36.159-.18.075-.36.141-.19.066-.38.123-.19.057-.38.105-.19.048-.38.086-.19.038-.39.067-.19.029-.38.048-.2.019-.4.029-.19.01-.39.01H7.999q-.196 0-.392-.01-.196-.01-.392-.029-.195-.019-.39-.048-.194-.029-.387-.067-.193-.038-.383-.086-.19-.048-.378-.105-.188-.057-.373-.123-.185-.066-.366-.141-.181-.075-.359-.159-.178-.084-.351-.176-.173-.093-.342-.194-.168-.101-.332-.21-.163-.109-.321-.226-.158-.117-.31-.242-.152-.125-.297-.256-.146-.132-.284-.271-.139-.139-.271-.284-.132-.145-.256-.297-.125-.152-.242-.31-.117-.158-.226-.321-.109-.163-.21-.332-.101-.168-.194-.342-.093-.173-.177-.351-.084-.178-.159-.359-.075-.181-.141-.366-.066-.185-.123-.373-.057-.188-.105-.378-.048-.191-.086-.383-.038-.193-.067-.387-.029-.194-.048-.39-.019-.195-.029-.391-.01-.196-.01-.393V837z" fill="#1a1a1a"/><path d="M427.999 837h244.002q.147 0 .294.014.146.014.291.043.144.029.285.072.141.043.277.099.137.056.267.126.129.069.252.151.122.082.236.175.114.093.218.198.105.104.198.218.094.114.175.236.082.123.152.252.069.13.125.266.057.136.1.277.042.141.071.285.029.144.043.291.015.147.015.294v57.002q0 .147-.015.294-.014.147-.043.291-.029.144-.071.285-.043.141-.1.277-.056.136-.125.266-.07.13-.152.252-.081.123-.175.236-.093.114-.198.218-.104.104-.218.198-.114.093-.236.175-.123.082-.252.151-.13.069-.267.126-.136.056-.277.099-.141.043-.285.072-.145.029-.291.043-.147.014-.294.014H427.999q-.147 0-.294-.014-.147-.014-.291-.043-.145-.029-.286-.072-.141-.043-.277-.099-.136-.056-.266-.126-.13-.069-.252-.151-.123-.082-.237-.175-.114-.093-.218-.198-.104-.104-.197-.218-.094-.114-.176-.236-.082-.122-.151-.252-.069-.13-.126-.266-.056-.136-.099-.277-.043-.141-.071-.285-.029-.144-.044-.291-.014-.147-.014-.294v-57.002q0-.147.014-.294.015-.147.044-.291.028-.144.071-.285.043-.141.099-.277.057-.136.126-.266.069-.13.151-.252.082-.123.176-.236.093-.114.197-.218.104-.104.218-.198.114-.093.237-.175.122-.082.252-.151.13-.069.266-.126.136-.056.277-.099.141-.043.286-.072.144-.029.291-.043.147-.014.294-.014z" fill="#fff"/><g fill="#313131"><path d="M677.999 837h244.002q.147 0 .294.014.146.014.291.043.144.029.285.072.141.043.277.099.137.056.267.126.129.069.252.151.122.082.236.175.114.093.218.198.105.104.198.218.093.114.175.236.082.123.152.252.069.13.125.266.057.136.1.277.042.141.071.285.029.144.043.291.015.147.015.294v57.002q0 .147-.015.294-.014.147-.043.291-.029.144-.071.285-.043.141-.1.277-.056.136-.125.266-.07.13-.152.252-.082.123-.175.236-.093.114-.198.218-.104.104-.218.198-.114.093-.236.175-.123.082-.253.151-.129.069-.266.126-.136.056-.277.099-.141.043-.285.072-.145.029-.291.043-.147.014-.294.014H677.999q-.147 0-.294-.014-.147-.014-.291-.043-.145-.029-.286-.072-.141-.043-.277-.099-.136-.056-.266-.126-.13-.069-.252-.151-.123-.082-.237-.175-.114-.093-.218-.198-.104-.104-.197-.218-.094-.114-.176-.236-.082-.122-.151-.252-.07-.13-.126-.266-.056-.136-.099-.277-.043-.141-.072-.285-.028-.144-.043-.291-.014-.147-.014-.294v-57.002q0-.147.014-.294.015-.147.043-.291.029-.144.072-.285.043-.141.099-.277.056-.136.126-.266.069-.13.151-.252.082-.123.176-.236.093-.114.197-.218.104-.104.218-.198.114-.093.237-.175.122-.082.252-.151.13-.069.266-.126.136-.056.277-.099.141-.043.286-.072.144-.029.291-.043.147-.014.294-.014z"/><path d="M927.999 837H1172q.15 0 .29.014.15.014.3.043.14.029.28.072.14.043.28.099.13.056.26.126.13.069.26.151.12.082.23.175.12.093.22.198.11.104.2.218.09.114.17.236.09.123.16.252.07.13.12.266.06.136.1.277.04.141.07.285.03.144.05.291.01.147.01.294v57.002q0 .147-.01.294-.02.147-.05.291-.03.144-.07.285-.04.141-.1.277-.05.136-.12.266-.07.13-.16.252-.08.123-.17.236-.09.114-.2.218-.1.104-.22.198-.11.093-.23.175-.13.082-.26.151-.13.069-.26.126-.14.056-.28.099-.14.043-.28.072-.15.029-.3.043-.14.014-.29.014H927.999q-.147 0-.294-.014-.147-.014-.291-.043-.145-.029-.286-.072-.141-.043-.277-.099-.136-.056-.266-.126-.13-.069-.252-.151-.123-.082-.237-.175-.114-.093-.218-.198-.104-.104-.197-.218-.094-.114-.176-.236-.082-.122-.151-.252-.07-.13-.126-.266-.056-.136-.099-.277-.043-.141-.072-.285-.028-.144-.043-.291-.014-.147-.014-.294v-57.002q0-.147.014-.294.015-.147.043-.291.029-.144.072-.285.043-.141.099-.277.056-.136.126-.266.069-.13.151-.252.082-.123.176-.236.093-.114.197-.218.104-.104.218-.198.114-.093.237-.175.122-.082.252-.151.13-.069.266-.126.136-.056.277-.099.141-.043.286-.072.144-.029.291-.043.147-.014.294-.014z"/></g><path d="M4.999 0H1595q.12 0 .25.006.12.006.24.018.12.012.24.03.13.018.25.042.12.024.24.054.11.03.23.066.12.036.23.077.12.041.23.088.12.047.23.099.11.052.22.11.11.058.21.121.11.063.21.131.1.068.2.141.1.073.19.151.1.078.19.16.09.082.18.169.08.087.16.178.09.091.17.186.07.095.15.193.07.099.14.201.07.102.13.207.06.105.12.213.06.108.11.219.05.111.1.224.05.113.09.229.04.115.07.233.04.117.07.236.03.119.05.239.03.12.05.242.01.121.03.244.01.122.01.245.01.123.01.245V63H0V4.999q0-.123.006-.245.006-.123.018-.245.012-.122.03-.244.018-.121.042-.242.024-.12.054-.239.03-.119.065-.236.036-.117.077-.233.041-.116.088-.229.047-.113.099-.224.052-.111.11-.219.058-.108.121-.213.063-.105.131-.207.068-.102.141-.201.073-.099.151-.193.078-.095.16-.186.082-.091.169-.178.087-.087.178-.169.091-.082.186-.16.095-.078.193-.151.099-.073.201-.141.102-.068.207-.131.105-.063.213-.121.108-.058.219-.11.111-.053.224-.099.113-.047.229-.088.116-.041.233-.077.117-.036.236-.066.119-.03.239-.054.12-.024.242-.042.121-.018.244-.03.122-.012.245-.018Q4.876 0 4.999 0h0z" fill="#1a1a1a"/><path d="M347.999 11H1252q.15 0 .3.014.14.015.29.043.14.029.28.072.14.043.28.099.13.056.26.126.13.07.26.151.12.082.23.175.12.093.22.198.11.104.2.218.09.114.17.236.09.123.16.253.07.13.12.266.06.136.1.277.04.141.07.286.03.144.05.291.01.147.01.294v34.002q0 .147-.01.294-.02.147-.05.291-.03.144-.07.285-.04.141-.1.277-.05.136-.12.266-.07.13-.16.252-.08.122-.17.236-.09.114-.2.218-.1.104-.22.198-.11.093-.23.175-.13.082-.26.151-.13.069-.26.126-.14.056-.28.099-.14.043-.28.072-.15.029-.29.043-.15.014-.3.014H347.999q-.147 0-.294-.014-.147-.014-.291-.043-.145-.029-.286-.072-.141-.043-.277-.099-.136-.056-.266-.126-.13-.069-.252-.151-.123-.082-.237-.175-.113-.093-.218-.198-.104-.104-.197-.218-.094-.114-.176-.236-.081-.123-.151-.252-.069-.13-.126-.266-.056-.136-.099-.277-.043-.141-.071-.285-.029-.145-.044-.291-.014-.147-.014-.294V13.999q0-.147.014-.294.015-.147.044-.291.028-.145.071-.286.043-.141.099-.277.057-.136.126-.266.07-.13.151-.253.082-.122.176-.236.093-.114.197-.218.105-.104.218-.198.114-.093.237-.175.122-.082.252-.151.13-.069.266-.126.136-.056.277-.099.141-.043.286-.072.144-.029.291-.043.147-.014.294-.014z" fill="#313131"/></g><g fill="#d3d3d3"><path d="M388.963 26.448q.246.234.589.234.343 0 .589-.234.246-.234.246-.562 0-.328-.246-.562-.246-.234-.589-.234-.343 0-.589.234-.246.234-.246.562 0 .328.246.562zm69.766 4.549v4.594h-1.174V25.409h1.174v3.739h.099q.269-.592.808-.942.539-.35 1.439-.35 1.174 0 1.889.706.716.706.716 2.177v4.852h-1.173v-4.773q0-.91-.47-1.409-.47-.5-1.3-.5-.87 0-1.439.544-.569.544-.569 1.544zm16.832 4.594V25.409h1.173v3.759h.1q.129-.199.36-.51.231-.311.666-.557.435-.246 1.181-.246.965 0 1.7.482.736.482 1.149 1.367.413.885.413 2.088 0 1.213-.413 2.1-.413.887-1.144 1.372-.73.485-1.685.485-.736 0-1.178-.246-.443-.246-.681-.562-.239-.316-.368-.525h-.139v1.173h-1.134zm35.864 0V25.409h1.173v3.759h.099q.13-.199.361-.51.231-.311.666-.557.435-.246 1.181-.246.964 0 1.7.482.736.482 1.149 1.367.412.885.412 2.088 0 1.213-.412 2.1-.413.887-1.144 1.372-.731.485-1.685.485-.736 0-1.179-.246-.442-.246-.681-.562-.238-.316-.368-.525h-.139v1.173h-1.133zm-92.969-7.636v.994h-1.631v4.454q0 .497.147.743.147.246.378.328.231.082.49.082.194 0 .318-.022.124-.022.199-.037l.239 1.054q-.119.045-.333.092-.214.047-.542.047-.497 0-.972-.214-.475-.214-.786-.651-.311-.437-.311-1.104v-4.773h-1.153v-.994h1.153v-1.83h1.173v1.83h1.631zm27.074 0h1.134v1.153h.079q.209-.567.756-.92.546-.353 1.233-.353.129 0 .323.005.194.005.293.015v1.193q-.06-.015-.271-.047-.211-.032-.445-.032-.835 0-1.382.507-.547.507-.547 1.283v4.832h-1.173v-7.636zm-52.58 7.636v-4.594q0-.999.554-1.544.554-.544 1.394-.544.815 0 1.283.505.467.505.467 1.404v4.773h1.173v-4.852q0-1.462-.713-2.172-.713-.711-1.872-.711-.865 0-1.412.355-.547.355-.815.937h-.099v-1.193h-1.134v7.636h1.173zm6.52 2.864v-10.5h1.134v1.213h.139q.129-.199.36-.51.231-.311.666-.557.435-.246 1.181-.246.965 0 1.7.482.736.482 1.148 1.367.413.885.413 2.088 0 1.213-.413 2.1-.413.887-1.143 1.372-.731.485-1.685.485-.736 0-1.178-.246-.442-.246-.681-.562-.239-.316-.368-.525h-.099v4.037h-1.173zm28.548-8.491l1.054-.298q-.273-.815-.922-1.312-.649-.497-1.782-.497-.805 0-1.439.283-.634.283-.999.78-.365.497-.365 1.144 0 .791.49 1.315.49.525 1.539.773l1.273.298q1.134.264 1.134 1.074 0 .492-.485.843-.485.35-1.305.35-1.457 0-1.77-1.233l-1.114.278q.204.974.969 1.481.766.507 1.934.507.89 0 1.561-.298.671-.298 1.046-.815.375-.517.375-1.173 0-1.571-2.029-2.068l-1.133-.278q-.676-.169-.994-.423-.318-.254-.318-.691 0-.492.465-.813.465-.321 1.166-.321.771 0 1.133.348.363.348.517.746zm5.665 5.787q-1.104 0-1.902-.49-.798-.49-1.228-1.372-.43-.882-.43-2.056 0-1.173.43-2.071.43-.897 1.203-1.402.773-.505 1.807-.505.597 0 1.178.199.582.199 1.059.644.477.445.761 1.176.283.731.283 1.8v.497h-5.543q.04 1.223.694 1.874.654.651 1.688.651.691 0 1.188-.298.497-.298.721-.895l1.134.318q-.269.865-1.074 1.397-.805.532-1.969.532zm5.381-.256q.592.276 1.317.276.666 0 1.129-.199.462-.199.741-.482.278-.283.398-.532h.06v1.034h1.173V30.56q0-.91-.298-1.452-.298-.542-.748-.81-.45-.269-.93-.355-.48-.087-.848-.087-.577 0-1.171.157-.594.157-1.094.547-.5.39-.798 1.086l1.114.398q.194-.418.671-.785.477-.368 1.317-.368.81 0 1.211.408.4.408.4 1.143v.04q0 .283-.201.398-.201.114-.636.162-.435.047-1.131.137-.532.07-1.056.187-.525.117-.957.35-.433.234-.691.644-.259.41-.259 1.066 0 .746.348 1.27.348.525.94.8zm12.428-.251q.775.507 1.849.507.846 0 1.484-.316.639-.316 1.029-.855.391-.539.49-1.216h-1.173q-.164.627-.654.979-.49.353-1.176.353-1.044 0-1.665-.798-.622-.798-.622-2.125 0-1.298.629-2.081.629-.783 1.658-.783.776 0 1.236.405.46.405.594.927h1.173q-.099-.716-.512-1.253-.413-.537-1.059-.835-.646-.298-1.452-.298-1.034 0-1.807.505-.773.505-1.203 1.397-.43.892-.43 2.056 0 1.144.418 2.033.417.89 1.193 1.397zm33.389.015q.779.492 1.813.492 1.034 0 1.812-.492.778-.492 1.213-1.377.435-.885.435-2.068 0-1.193-.435-2.083-.435-.89-1.213-1.382-.778-.492-1.812-.492-1.034 0-1.813.492-.778.492-1.213 1.382-.435.89-.435 2.083 0 1.183.435 2.068.435.885 1.213 1.377zm9.665.492q-1.034 0-1.812-.492-.778-.492-1.213-1.377-.435-.885-.435-2.068 0-1.193.435-2.083.435-.89 1.213-1.382.778-.492 1.812-.492 1.034 0 1.812.492.778.492 1.213 1.382.435.89.435 2.083 0 1.183-.435 2.068-.435.885-1.213 1.377-.778.492-1.812.492zm4.75-7.795v10.5h1.173v-4.037h.1q.129.209.368.525.238.316.681.562.442.246 1.178.246.954 0 1.685-.485.731-.485 1.144-1.372.412-.887.412-2.1 0-1.203-.412-2.088-.413-.885-1.149-1.367-.736-.482-1.7-.482-.746 0-1.181.246-.435.246-.666.557-.231.311-.36.51h-.14v-1.213h-1.133zm21.449 7.303q.778.492 1.812.492 1.034 0 1.812-.492.778-.492 1.213-1.377.435-.885.435-2.068 0-1.193-.435-2.083-.435-.89-1.213-1.382-.778-.492-1.812-.492-1.034 0-1.812.492-.778.492-1.213 1.382-.435.89-.435 2.083 0 1.183.435 2.068.435.885 1.213 1.377zm9.665.492q-1.035 0-1.813-.492-.778-.492-1.213-1.377-.435-.885-.435-2.068 0-1.193.435-2.083.435-.89 1.213-1.382.778-.492 1.813-.492 1.034 0 1.812.492.778.492 1.213 1.382.435.89.435 2.083 0 1.183-.435 2.068-.435.885-1.213 1.377-.778.492-1.812.492zm4.75-7.795v10.5h1.173v-4.037h.099q.13.209.368.525.239.316.681.562.443.246 1.179.246.954 0 1.685-.485.731-.485 1.143-1.372.413-.887.413-2.1 0-1.203-.413-2.088-.412-.885-1.148-1.367-.736-.482-1.7-.482-.746 0-1.181.246-.435.246-.666.557-.231.311-.361.51h-.139v-1.213h-1.133zm-146.205 0v7.636h1.173v-7.636h-1.173zm23.358 0v4.514q0 .716-.311 1.178-.311.462-.766.686-.455.224-.892.224-.731 0-1.201-.497-.47-.497-.47-1.332v-4.773h-1.173v4.852q0 1.462.696 2.173.696.711 1.77.711.865 0 1.432-.405.567-.405.835-.987h.079v1.293h1.173v-7.636h-1.173zm-11.69 3.818q0 1.298.564 2.111.564.813 1.623.813.736 0 1.23-.39.495-.39.746-1.054.251-.664.251-1.479 0-.805-.246-1.454-.246-.649-.741-1.029-.495-.38-1.24-.38-1.074 0-1.631.79-.557.791-.557 2.073zm30.678-.616h4.35q0-.97-.567-1.608-.567-.639-1.521-.639-.671 0-1.163.313-.492.313-.776.828-.283.514-.323 1.106zm45.412.616q0 1.298.565 2.111.564.813 1.623.813.736 0 1.23-.39.495-.39.746-1.054.251-.664.251-1.479 0-.805-.246-1.454-.246-.649-.741-1.029-.494-.38-1.24-.38-1.074 0-1.631.79-.557.791-.557 2.073zm11.273 2.521q-.507.403-1.292.403-.786 0-1.293-.403-.507-.403-.751-1.059-.243-.656-.243-1.422 0-.766.243-1.427.244-.661.751-1.069.507-.408 1.293-.408.785 0 1.292.408.507.408.751 1.069.244.661.244 1.427 0 .766-.244 1.422-.244.656-.751 1.059zm6.56.403q.785 0 1.292-.403.508-.403.751-1.059.244-.656.244-1.422 0-.766-.244-1.427-.243-.661-.751-1.069-.507-.408-1.292-.408-.786 0-1.293.408-.507.408-.75 1.069-.244.661-.244 1.427 0 .766.244 1.422.243.656.75 1.059.507.403 1.293.403zm6.468-.813q-.565-.813-.565-2.111 0-1.283.557-2.073.557-.79 1.631-.79.746 0 1.24.38.495.38.741 1.029.246.649.246 1.454 0 .815-.251 1.479-.251.664-.746 1.054-.494.39-1.23.39-1.059 0-1.623-.813zm11.563-2.111q0 1.298.564 2.111.565.813 1.624.813.735 0 1.23-.39.495-.39.746-1.054.251-.664.251-1.479 0-.805-.246-1.454-.246-.649-.741-1.029-.495-.38-1.24-.38-1.074 0-1.631.79-.557.791-.557 2.073zm11.273 2.521q-.507.403-1.293.403-.785 0-1.292-.403-.507-.403-.751-1.059-.244-.656-.244-1.422 0-.766.244-1.427.244-.661.751-1.069.507-.408 1.292-.408.786 0 1.293.408.507.408.751 1.069.243.661.243 1.427 0 .766-.243 1.422-.244.656-.751 1.059zm6.56.403q.785 0 1.292-.403.507-.403.751-1.059.243-.656.243-1.422 0-.766-.243-1.427-.244-.661-.751-1.069-.507-.408-1.292-.408-.786 0-1.293.408-.507.408-.751 1.069-.243.661-.243 1.427 0 .766.243 1.422.244.656.751 1.059.507.403 1.293.403zm6.467-.813q-.564-.813-.564-2.111 0-1.283.557-2.073.557-.79 1.63-.79.746 0 1.241.38.495.38.741 1.029.246.649.246 1.454 0 .815-.251 1.479-.251.664-.746 1.054-.495.39-1.231.39-1.059 0-1.623-.813zm-95.141.559q-.48.273-1.176.273-.701 0-1.156-.311-.455-.311-.455-.922 0-.447.241-.708.241-.261.636-.393.395-.132.853-.191.189-.025.495-.062.306-.037.631-.09.326-.052.577-.124.251-.072.326-.162v1.074q0 .477-.246.91-.246.432-.726.706zm23.815.964q.263.264.631.264.368 0 .632-.264.263-.263.263-.631 0-.368-.263-.631-.264-.264-.632-.264-.368 0-.631.264-.264.264-.264.631 0 .368.264.631zm3.989.264q-.368 0-.631-.264-.264-.263-.264-.631 0-.368.264-.631.263-.264.631-.264.368 0 .632.264.263.264.263.631 0 .368-.263.631-.264.264-.632.264zm2.727-.264q.263.264.631.264.368 0 .632-.264.263-.263.263-.631 0-.368-.263-.631-.264-.264-.632-.264-.368 0-.631.264-.264.264-.264.631 0 .368.264.631z"/></g><g fill="#1a1a1a"><path d="M553.682 874.003l-4.842-12.006h-1.854l-4.824 12.006h1.71l1.062-2.664h5.976l1.062 2.664h1.71zm19.08-12.006v12.006h-1.35v-1.296c-.648.882-1.71 1.512-2.934 1.512-2.268 0-3.87-1.728-3.87-4.554 0-2.772 1.584-4.572 3.87-4.572 1.17 0 2.232.576 2.934 1.53v-4.626h1.35zm3.366 2.07c.504 0 .918-.396.918-.9a.92.92 0 0 0-.918-.918.92.92 0 0 0-.9.918c0 .504.414.9.9.9zm-25.668 5.94h-5.094l2.556-6.462 2.538 6.462zm37.152-.36c0 2.52-1.656 4.572-4.302 4.572s-4.302-2.052-4.302-4.572 1.656-4.554 4.302-4.554 4.302 2.034 4.302 4.554zm-25.2 4.356v-8.694h-1.35v6.39a3.33 3.33 0 0 1-2.574 1.314c-1.17 0-1.944-.45-1.944-1.98v-5.724h-1.35v6.138c0 1.89.954 2.772 2.772 2.772 1.296 0 2.43-.684 3.096-1.44v1.224h1.35zm14.4 0v-8.694h-1.35v8.694h1.35zm-10.8-4.338c0 1.926 1.044 3.348 2.79 3.348 1.08 0 2.124-.612 2.61-1.368v-3.942c-.486-.756-1.53-1.404-2.61-1.404-1.746 0-2.79 1.44-2.79 3.366zm14.4-.018c0 1.782 1.044 3.366 2.898 3.366s2.88-1.584 2.88-3.366c0-1.764-1.026-3.348-2.88-3.348s-2.898 1.584-2.898 3.348zm225.428 4.356l4.842-12.006h-1.71l-4.05 10.368-4.05-10.368h-1.71l4.824 12.006h1.854zm18.054-12.006v12.006h-1.35v-1.296c-.648.882-1.71 1.512-2.934 1.512-2.268 0-3.87-1.728-3.87-4.554 0-2.772 1.584-4.572 3.87-4.572 1.17 0 2.232.576 2.934 1.53v-4.626h1.35zm-11.034 2.07c.504 0 .918-.396.918-.9a.92.92 0 0 0-.918-.918.92.92 0 0 0-.9.918c0 .504.414.9.9.9zm17.658 10.152c1.422 0 2.592-.468 3.456-1.332l-.648-.882c-.684.702-1.692 1.098-2.682 1.098-1.872 0-3.024-1.368-3.132-3.006h7.038v-.342c0-2.61-1.548-4.662-4.176-4.662-2.484 0-4.284 2.034-4.284 4.554 0 2.718 1.854 4.572 4.428 4.572zm14.31-4.572c0 2.52-1.656 4.572-4.302 4.572s-4.302-2.052-4.302-4.572 1.656-4.554 4.302-4.554 4.302 2.034 4.302 4.554zm-31.284 4.356v-8.694h-1.35v8.694h1.35zm19.674-4.896h-5.706c.072-1.332.99-2.898 2.844-2.898 1.98 0 2.844 1.602 2.862 2.898zm-16.074.558c0 1.926 1.044 3.348 2.79 3.348 1.08 0 2.124-.612 2.61-1.368v-3.942c-.486-.756-1.53-1.404-2.61-1.404-1.746 0-2.79 1.44-2.79 3.366zm20.484-.018c0 1.782 1.044 3.366 2.898 3.366s2.88-1.584 2.88-3.366c0-1.764-1.026-3.348-2.88-3.348s-2.898 1.584-2.898 3.348z"/></g><path d="M771 857h20v20h-20v-20z" fill="#fff" fill-opacity="0" fill-rule="evenodd"/><g clip-path="url(#D)" transform="translate(771 857)" fill-rule="evenodd"><path d="M17.5 0v1.25c0 .345-.279.625-.625.625h-.625c-.346 0-.625-.28-.625-.625V0H4.375v1.25c0 .345-.279.625-.625.625h-.625c-.345 0-.625-.28-.625-.625V0H1.25v20H2.5v-1.25c0-.345.28-.625.625-.625h.625c.346 0 .625.28.625.625V20h11.25v-1.25c0-.345.279-.625.625-.625h.625c.346 0 .625.28.625.625V20h1.25V0H17.5h0zM4.375 16.25c0 .346-.279.625-.625.625h-.625c-.345 0-.625-.279-.625-.625V15c0-.346.28-.625.625-.625h.625c.346 0 .625.279.625.625v1.25h0zm0-3.75c0 .346-.279.625-.625.625h-.625c-.345 0-.625-.279-.625-.625v-1.25c0-.345.28-.625.625-.625h.625c.346 0 .625.28.625.625v1.25h0zm0-3.75c0 .346-.279.625-.625.625h-.625c-.345 0-.625-.279-.625-.625V7.5c0-.345.28-.625.625-.625h.625c.346 0 .625.28.625.625v1.25h0zm0-3.75c0 .346-.279.625-.625.625h-.625C2.78 5.625 2.5 5.346 2.5 5V3.75c0-.345.28-.625.625-.625h.625c.346 0 .625.28.625.625V5h0zM17.5 16.25c0 .346-.279.625-.625.625h-.625c-.346 0-.625-.279-.625-.625V15c0-.346.279-.625.625-.625h.625c.346 0 .625.279.625.625v1.25h0zm0-3.75c0 .346-.279.625-.625.625h-.625c-.346 0-.625-.279-.625-.625v-1.25c0-.345.279-.625.625-.625h.625c.346 0 .625.28.625.625v1.25h0zm0-3.75c0 .346-.279.625-.625.625h-.625c-.346 0-.625-.279-.625-.625V7.5c0-.345.279-.625.625-.625h.625c.346 0 .625.28.625.625v1.25h0zm0-3.75c0 .346-.279.625-.625.625h-.625c-.346 0-.625-.279-.625-.625V3.75c0-.345.279-.625.625-.625h.625c.346 0 .625.28.625.625V5h0z" fill="#324d5b"/><path d="M13.75 5.001h-7.5c-.345 0-.625.28-.625.625v8.75c0 .346.28.625.625.625h7.5c.346 0 .625-.279.625-.625V5.625c0-.344-.279-.624-.625-.624h0zM5.625 0v3.125c0 .346.28.625.625.625h7.5c.346 0 .625-.279.625-.625V0h-8.75 0zm8.125 16.25h-7.5c-.345 0-.625.28-.625.625V20h8.75v-3.125c0-.344-.279-.625-.625-.625h0z" fill="#5b717c"/></g></g></svg>