<svg xmlns="http://www.w3.org/2000/svg" width="512" height="512" fill-rule="evenodd" xmlns:v="https://vecta.io/nano"><path d="M256 0C114.836 0 0 114.836 0 256s114.836 256 256 256 256-114.836 256-256S397.164 0 256 0h0z" fill="#f44336"/><path d="M350.273 320.105a21.32 21.32 0 0 1 0 30.168 21.27 21.27 0 0 1-15.085 6.25c-5.461 0-10.922-2.089-15.083-6.25L256 286.164l-64.105 64.109a21.27 21.27 0 0 1-30.168 0 21.32 21.32 0 0 1 0-30.168L225.836 256l-64.109-64.105a21.32 21.32 0 1 1 30.168-30.168L256 225.836l64.105-64.109a21.32 21.32 0 1 1 30.168 30.168L286.164 256l64.109 64.105z" fill="#fafafa"/></svg>