<?xml version="1.0" encoding="utf-8"?>
<svg width="512px" height="512px" viewBox="0 0 512 512" version="1.1" xmlns:xlink="http://www.w3.org/1999/xlink" xmlns="http://www.w3.org/2000/svg">
  <defs>
    <path d="M0 0L512 0L512 512L0 512L0 0L0 0Z" id="path_1" />
    <clipPath id="mask_1">
      <use xlink:href="#path_1" />
    </clipPath>
  </defs>
  <g id="snapchat">
    <g id="snapchat">
      <path d="M0 0L512 0L512 512L0 512L0 0L0 0Z" id="Background" fill="#FFFFFF" fill-opacity="0" fill-rule="evenodd" stroke="none" />
      <g id="Mask-Group">
        <path d="M0 0L512 0L512 512L0 512L0 0L0 0Z" id="path_1" fill="none" stroke="none" />
        <g clip-path="url(#mask_1)">
          <g id="Group" transform="translate(13.339177 17)">
            <path d="M483.587 349.6C480.214 340.424 473.787 335.514 466.475 331.447C465.099 330.641 463.834 329.996 462.755 329.5C460.573 328.372 458.341 327.28 456.121 326.127C433.321 314.037 415.512 298.786 403.162 280.707C399.654 275.618 396.612 270.222 394.073 264.587C393.019 261.574 393.073 259.863 393.825 258.3C394.575 257.096 395.567 256.062 396.739 255.262C400.657 252.671 404.699 250.042 407.439 248.269C412.324 245.107 416.193 242.602 418.685 240.829C428.047 234.282 434.594 227.329 438.685 219.551C444.463 208.683 445.23 195.839 440.785 184.36C434.585 168.042 419.172 157.911 400.498 157.911C396.559 157.908 392.631 158.323 388.78 159.151C387.751 159.375 386.721 159.61 385.717 159.871C385.891 148.711 385.643 136.931 384.651 125.337C381.129 84.579 366.857 63.2141 351.977 46.177C342.45 35.5005 331.227 26.468 318.761 19.443C296.176 6.547 270.571 0 242.661 0C214.751 0 189.261 6.547 166.661 19.443C154.164 26.4703 142.918 35.5206 133.38 46.226C118.5 63.264 104.228 84.666 100.707 125.387C99.7148 136.981 99.4668 148.822 99.6278 159.92C98.6278 159.66 97.6068 159.42 96.5768 159.201C92.7258 158.373 88.7988 157.957 84.8598 157.961C66.1728 157.961 50.7348 168.092 44.5598 184.41C40.094 195.893 40.8407 208.75 46.6058 219.638C50.7108 227.412 57.2578 234.369 66.6198 240.916C69.0998 242.652 72.9808 245.156 77.8658 248.356C80.5068 250.067 84.3658 252.572 88.1458 255.076C89.4688 255.932 90.5948 257.061 91.4458 258.387C92.2398 260.011 92.2638 261.76 91.0858 264.987C88.5808 270.504 85.5886 275.786 82.1458 280.772C70.0688 298.441 52.7828 313.42 30.7118 325.411C19.0158 331.608 6.86082 335.75 1.72982 349.7C-2.13818 360.228 0.390822 372.206 10.2238 382.3C13.8326 386.067 18.0183 389.236 22.6238 391.687C32.206 396.953 42.3954 401.03 52.9657 403.826C55.1474 404.388 57.2185 405.315 59.0918 406.567C62.6748 409.704 62.1668 414.428 66.9408 421.347C69.3369 424.923 72.3818 428.019 75.9178 430.474C85.9368 437.393 97.1958 437.827 109.125 438.285C119.901 438.695 132.114 439.166 146.064 443.766C151.842 445.676 157.844 449.371 164.8 453.686C181.503 463.951 204.368 478 242.634 478C280.9 478 303.926 463.877 320.752 453.572C327.659 449.332 333.624 445.672 339.241 443.814C353.19 439.201 365.404 438.742 376.18 438.333C388.108 437.874 399.367 437.44 409.386 430.521C413.574 427.601 417.064 423.79 419.604 419.361C423.038 413.521 422.952 409.442 426.176 406.59C427.933 405.398 429.878 404.509 431.929 403.961C442.644 401.155 452.972 397.041 462.681 391.71C467.574 389.085 471.978 385.637 475.7 381.517L475.824 381.368C485.05 371.5 487.369 359.867 483.587 349.6L483.587 349.6L483.587 349.6ZM449.574 367.877C428.829 379.335 415.041 378.107 404.315 385.014C395.201 390.879 400.595 403.527 393.973 408.09C385.839 413.707 361.796 407.69 330.734 417.948C305.116 426.417 288.773 450.77 242.696 450.77C196.619 450.77 180.66 426.47 154.62 417.886C123.62 407.631 99.5278 413.645 91.3808 408.028C84.7718 403.465 90.1408 390.817 81.0398 384.952C70.3008 378.045 56.5128 379.273 35.7798 367.877C22.5738 360.586 30.0638 356.077 34.4658 353.94C109.609 317.559 121.599 261.388 122.132 257.221C122.777 252.175 123.496 248.207 117.941 243.073C112.572 238.113 88.7518 223.373 82.1408 218.757C71.2038 211.119 66.3928 203.493 69.9408 194.119C72.4208 187.634 78.4718 185.191 84.8198 185.191C86.8268 185.197 88.8268 185.422 90.7848 185.861C102.785 188.461 114.444 194.478 121.177 196.103C121.988 196.311 122.82 196.423 123.657 196.438C127.257 196.438 128.517 194.627 128.269 190.511C127.501 177.379 125.641 151.786 127.711 127.867C130.551 94.958 141.153 78.652 153.751 64.231C159.802 57.299 188.235 27.255 242.608 27.255C296.981 27.255 325.488 57.175 331.539 64.082C344.15 78.503 354.764 94.809 357.579 127.718C359.65 151.637 357.864 177.243 357.021 190.362C356.736 194.689 358.038 196.289 361.634 196.289C362.471 196.275 363.303 196.163 364.114 195.954C370.859 194.33 382.514 188.316 394.514 185.712C396.472 185.273 398.472 185.048 400.478 185.042C406.864 185.042 412.878 187.522 415.358 193.97C418.904 203.344 414.118 210.97 403.169 218.609C396.56 223.221 372.74 237.952 367.369 242.924C361.801 248.058 362.533 252.024 363.178 257.073C363.711 261.301 375.689 317.473 450.844 353.791C455.29 356.011 462.78 360.524 449.574 367.877L449.574 367.877L449.574 367.877Z" id="Shape" fill="#FFFFFF" fill-rule="evenodd" stroke="none" />
          </g>
        </g>
      </g>
    </g>
  </g>
</svg>