<?xml version="1.0" encoding="utf-8"?>
<svg width="512px" height="512px" viewBox="0 0 512 512" version="1.1" xmlns:xlink="http://www.w3.org/1999/xlink" xmlns="http://www.w3.org/2000/svg">
  <defs>
    <path d="M0 0L512 0L512 512L0 512L0 0Z" id="path_1" />
    <clipPath id="mask_1">
      <use xlink:href="#path_1" />
    </clipPath>
  </defs>
  <g id="twitch">
    <path d="M0 0L512 0L512 512L0 512L0 0Z" id="Background" fill="#FFFFFF" fill-opacity="0" fill-rule="evenodd" stroke="none" />
    <g clip-path="url(#mask_1)">
      <path d="M391.17 103.47L352.54 103.47L352.54 213.17L391.17 213.17L391.17 103.47ZM285 103L246.37 103L246.37 212.75L285 212.75L285 103ZM120.83 0L24.31 91.42L24.31 420.58L140.14 420.58L140.14 512L236.67 420.58L313.92 420.58L487.69 256L487.69 0L120.83 0ZM449.07 237.75L371.85 310.87L294.61 310.87L227.01 374.87L227.01 310.87L140.14 310.87L140.14 36.58L449.07 36.58L449.07 237.75Z" id="Shape" fill="#FFFFFF" fill-rule="evenodd" stroke="none" />
    </g>
  </g>
</svg>