<?xml version="1.0" encoding="utf-8"?>
<svg width="512px" height="512px" viewBox="0 0 512 512" version="1.1" xmlns:xlink="http://www.w3.org/1999/xlink" xmlns="http://www.w3.org/2000/svg">
  <defs>
    <path d="M0 0L512 0L512 512L0 512L0 0Z" id="path_1" />
    <clipPath id="mask_1">
      <use xlink:href="#path_1" />
    </clipPath>
  </defs>
  <g id="date">
    <path d="M0 0L512 0L512 512L0 512L0 0Z" id="Background" fill="#FFFFFF" fill-opacity="0" fill-rule="evenodd" stroke="none" />
    <g clip-path="url(#mask_1)">
      <g id="Group" transform="translate(-0.0002716438 30.99994)">
        <path d="M15.0012 389.999L90.0011 389.999L90.0011 434.999C90.0011 443.283 96.7171 449.999 105.001 449.999L497 449.999C505.284 449.999 512 443.283 512 434.999L512 44.9999C512 36.7159 505.284 29.9999 497 29.9999L422 29.9999L422 15C422 6.71599 415.284 0 407 0C398.716 0 392 6.71599 392 15L392 29.9999L316.001 29.9999L316.001 15C316.001 6.71599 309.285 0 301.001 0C292.717 0 286.001 6.71599 286.001 15L286.001 29.9999L211.001 29.9999L211.001 15C211.001 6.71599 204.285 0 196.001 0C187.717 0 181.001 6.71599 181.001 15L181.001 29.9999L105.001 29.9999C96.7171 29.9999 90.0011 36.7159 90.0011 44.9999L90.0011 135C90.0011 245.55 44.0562 330.595 5.39824 363.476C0.54625 367.519 -1.25275 374.167 0.89625 380.106C3.04725 386.044 8.68524 389.999 15.0012 389.999L15.0012 389.999ZM482 419.999L120.001 419.999L120.001 389.999L407 389.999C410.509 389.999 413.907 388.769 416.603 386.522C434.635 371.503 462.566 335.745 482 289.947L482 419.999ZM120.001 59.9999L181.001 59.9999L181.001 74.9999C181.001 83.2838 187.717 89.9998 196.001 89.9998C204.285 89.9998 211.001 83.2838 211.001 74.9999L211.001 59.9999L286.001 59.9999L286.001 74.9999C286.001 83.2838 292.717 89.9998 301.001 89.9998C309.285 89.9998 316.001 83.2838 316.001 74.9999L316.001 59.9999L392 59.9999L392 74.9999C392 83.2838 398.716 89.9998 407 89.9998C415.284 89.9998 422 83.2838 422 74.9999L422 59.9999L482 59.9999L482 120L120.001 120L120.001 59.9999ZM119.744 149.99L481.734 149.99C478.354 245.145 441.833 320.012 401.118 359.999L49.1202 359.999C95.2531 301.218 117.269 224.682 119.744 149.99L119.744 149.99Z" id="Shape" fill="#1A1A1A" fill-rule="evenodd" stroke="none" />
      </g>
    </g>
  </g>
</svg>