<?xml version="1.0" encoding="utf-8"?>
<svg width="511.99997px" height="511.99997px" viewBox="0 0 511.99997 511.99997" version="1.1" xmlns:xlink="http://www.w3.org/1999/xlink" xmlns="http://www.w3.org/2000/svg">
  <defs>
    <path d="M0 0L512 0L512 512L0 512L0 0Z" id="path_1" />
    <clipPath id="mask_1">
      <use xlink:href="#path_1" />
    </clipPath>
  </defs>
  <g id="duration">
    <path d="M0 0L512 0L512 512L0 512L0 0Z" id="Background" fill="#FFFFFF" fill-opacity="0" fill-rule="evenodd" stroke="none" />
    <g clip-path="url(#mask_1)">
      <g id="time">
        <g id="Group">
          <g id="Group#1">
            <path d="M256 512C397.141 512 512 397.141 512 256C512 114.859 397.143 0 256 0C114.857 0 0 114.859 0 256C0 397.141 114.859 512 256 512L256 512L256 512ZM256 34.1328C378.367 34.1328 477.867 133.631 477.867 256C477.867 378.369 378.369 477.867 256 477.867C133.631 477.867 34.1328 378.369 34.1328 256C34.1328 133.631 133.632 34.1328 256 34.1328L256 34.1328L256 34.1328Z" id="Shape" fill="#1A1A1A" fill-rule="evenodd" stroke="none" />
            <path d="M330.667 337.58C333.825 340.139 337.578 341.335 341.333 341.335C346.368 341.335 351.317 339.116 354.645 334.935C360.533 327.596 359.337 316.844 352 310.956L273.066 247.809L273.066 119.468C273.066 110.081 265.387 102.401 256 102.401C246.613 102.401 238.934 110.081 238.934 119.468L238.934 256.001C238.934 261.207 241.323 266.071 245.333 269.313L330.667 337.58L330.667 337.58Z" id="Shape#1" fill="#1A1A1A" stroke="none" />
          </g>
        </g>
      </g>
    </g>
  </g>
</svg>