<?xml version="1.0" encoding="utf-8"?>
<svg width="512px" height="512px" viewBox="0 0 512 512" version="1.1" xmlns:xlink="http://www.w3.org/1999/xlink" xmlns="http://www.w3.org/2000/svg">
  <defs>
    <path d="M0 0L512 0L512 512L0 512L0 0L0 0Z" id="path_1" />
    <clipPath id="mask_1">
      <use xlink:href="#path_1" />
    </clipPath>
  </defs>
  <g id="fileTypeAudio">
    <g id="sound-waves">
      <path d="M0 0L512 0L512 512L0 512L0 0L0 0Z" id="Background" fill="#FFFFFF" fill-opacity="0" fill-rule="evenodd" stroke="none" />
      <g id="Mask-Group">
        <path d="M0 0L512 0L512 512L0 512L0 0L0 0Z" id="path_1" fill="none" stroke="none" />
        <g clip-path="url(#mask_1)">
          <g id="Group" transform="translate(32 0)">
            <g id="Group">
              <path d="M32 96C14.328 96 0 110.326 0 128L0 384C0 401.672 14.328 416 32 416C49.672 416 64 401.672 64 384L64 128C64 110.326 49.672 96 32 96L32 96L32 96Z" id="Shape" fill="#1A1A1A" stroke="none" />
              <path d="M128 160C110.328 160 96 174.326 96 192L96 320C96 337.672 110.328 352 128 352C145.672 352 160 337.672 160 320L160 192C160 174.326 145.672 160 128 160L128 160L128 160Z" id="Shape#1" fill="#1A1A1A" stroke="none" />
              <path d="M224 0C206.328 0 192 14.326 192 32L192 480C192 497.672 206.328 512 224 512C241.672 512 256 497.672 256 480L256 32C256 14.326 241.672 0 224 0L224 0L224 0Z" id="Shape#2" fill="#1A1A1A" stroke="none" />
              <path d="M320 80C302.328 80 288 94.326 288 112L288 400C288 417.672 302.328 432 320 432C337.672 432 352 417.672 352 400L352 112C352 94.326 337.672 80 320 80L320 80L320 80Z" id="Shape#3" fill="#1A1A1A" stroke="none" />
              <path d="M416 160C398.328 160 384 174.326 384 192L384 320C384 337.672 398.328 352 416 352C433.672 352 448 337.672 448 320L448 192C448 174.326 433.672 160 416 160L416 160L416 160Z" id="Shape#4" fill="#1A1A1A" stroke="none" />
            </g>
          </g>
        </g>
      </g>
    </g>
  </g>
</svg>