<?xml version="1.0" encoding="utf-8"?>
<svg width="512px" height="512px" viewBox="0 0 512 512" version="1.1" xmlns:xlink="http://www.w3.org/1999/xlink" xmlns="http://www.w3.org/2000/svg">
  <defs>
    <path d="M0 0L512 0L512 512L0 512L0 0L0 0Z" id="path_1" />
    <clipPath id="mask_1">
      <use xlink:href="#path_1" />
    </clipPath>
  </defs>
  <g id="fileSize">
    <g id="hard-drive">
      <path d="M0 0L512 0L512 512L0 512L0 0L0 0Z" id="Background" fill="#FFFFFF" fill-opacity="0" fill-rule="evenodd" stroke="none" />
      <g id="Mask-Group">
        <path d="M0 0L512 0L512 512L0 512L0 0L0 0Z" id="path_1" fill="none" stroke="none" />
        <g clip-path="url(#mask_1)">
          <g id="Group" transform="translate(0 64)">
            <g id="Group">
              <g id="Group#1">
                <g id="Group#2">
                  <path d="M44.267 192L467.734 192C471.425 192 474.859 190.08 476.801 186.944C478.742 183.808 478.934 179.883 477.27 176.576L401.195 24.341C401.003 23.936 400.768 23.552 400.512 23.189C393.216 9.045 378.517 0 362.667 0L149.333 0C133.504 0 118.826 9.045 111.53 23.104C111.253 23.509 111.018 23.936 110.805 24.341L34.731 176.576C33.067 179.883 33.259 183.808 35.2 186.944C37.141 190.059 40.576 192 44.267 192L44.267 192L44.267 192Z" id="Shape" fill="#1A1A1A" stroke="none" />
                  <path d="M469.333 213.333L42.667 213.333C19.136 213.333 0 232.469 0 256L0 341.333C0 364.864 19.136 384 42.667 384L469.334 384C492.864 384 512 364.864 512 341.333L512 256C512 232.448 492.864 213.333 469.333 213.333L469.333 213.333L469.333 213.333ZM128 256C139.755 256 149.333 265.579 149.333 277.333C149.333 289.088 139.754 298.666 128 298.666C116.245 298.666 106.667 289.087 106.667 277.333C106.667 265.579 116.245 256 128 256L128 256L128 256ZM64 256C75.755 256 85.333 265.579 85.333 277.333C85.333 289.088 75.754 298.666 64 298.666C52.245 298.666 42.667 289.087 42.667 277.333C42.667 265.579 52.245 256 64 256L64 256L64 256ZM458.667 341.333L53.333 341.333C47.445 341.333 42.666 336.554 42.666 330.666C42.666 324.778 47.445 320 53.333 320L458.666 320C464.554 320 469.333 324.779 469.333 330.667C469.333 336.555 464.555 341.333 458.667 341.333L458.667 341.333L458.667 341.333Z" id="Shape#1" fill="#1A1A1A" fill-rule="evenodd" stroke="none" />
                </g>
              </g>
            </g>
          </g>
        </g>
      </g>
    </g>
  </g>
</svg>