<?xml version="1.0" encoding="utf-8"?>
<svg width="512px" height="512px" viewBox="0 0 512 512" version="1.1" xmlns:xlink="http://www.w3.org/1999/xlink" xmlns="http://www.w3.org/2000/svg">
  <defs>
    <path d="M0 0L512 0L512 512L0 512L0 0Z" id="path_1" />
    <clipPath id="mask_1">
      <use xlink:href="#path_1" />
    </clipPath>
  </defs>
  <g id="fps">
    <path d="M0 0L512 0L512 512L0 512L0 0Z" id="Background" fill="#FFFFFF" fill-opacity="0" fill-rule="evenodd" stroke="none" />
    <g clip-path="url(#mask_1)">
      <g id="Group" transform="translate(5.340576E-05 55.222008)">
        <path d="M503.444 193.278L484.388 193.278L484.388 174.222C484.388 169.504 480.55 165.666 475.832 165.666L456.777 165.666L456.777 146.61C456.777 141.892 452.939 138.054 448.221 138.054L429.165 138.054L429.165 118.999C429.165 114.281 425.327 110.443 420.609 110.443L401.554 110.443L401.554 91.387C401.554 86.669 397.716 82.831 392.998 82.831L373.943 82.831L373.943 63.778C373.943 59.06 370.105 55.222 365.387 55.222L346.331 55.222L346.331 36.168C346.331 31.45 342.493 27.612 337.775 27.612L318.72 27.612L318.72 8.556C318.72 3.838 314.882 0 310.164 0L84.109 0C79.967 0 76.609 3.357 76.609 7.5C76.609 11.643 79.967 15 84.109 15L303.722 15L303.722 27.611L35.111 27.611C30.969 27.611 27.611 30.968 27.611 35.111L27.611 193.278L15 193.278L15 15.001L49.107 15.001C53.249 15.001 56.607 11.644 56.607 7.50101C56.607 3.35802 53.249 0.00101471 49.107 0.00101471L7.5 0.00101471C3.358 0.00101471 0 3.35801 0 7.50101L0 199.723C0 204.441 3.838 208.28 8.556 208.28L27.612 208.28L27.612 227.335C27.612 232.053 31.45 235.891 36.168 235.891L55.223 235.891L55.223 254.946C55.223 259.664 59.061 263.503 63.779 263.503L82.835 263.503L82.835 282.558C82.835 287.276 86.673 291.114 91.391 291.114L110.446 291.114L110.446 310.17C110.446 314.888 114.284 318.726 119.002 318.726L138.057 318.726L138.057 337.781C138.057 342.499 141.895 346.338 146.613 346.338L165.669 346.338L165.669 365.393C165.669 370.111 169.507 373.949 174.225 373.949L193.28 373.949L193.28 393.005C193.28 397.723 197.118 401.561 201.836 401.561L503.447 401.561C508.165 401.561 512.003 397.723 512.003 393.005L512.003 201.834C512 197.116 508.162 193.278 503.444 193.278L503.444 193.278ZM42.6109 220.889L42.6109 42.612L331.333 42.612L331.333 55.222L62.7219 55.222C58.5799 55.222 55.2219 58.579 55.2219 62.722L55.2219 220.889L42.6109 220.889ZM70.2219 248.501L70.2219 70.222L358.944 70.222L358.944 82.833L90.3329 82.833C86.1909 82.833 82.8329 86.19 82.8329 90.333L82.8329 248.5L70.2219 248.5L70.2219 248.501ZM97.8329 276.111L97.8329 97.834L386.555 97.834L386.555 110.445L117.944 110.445C113.802 110.445 110.444 113.802 110.444 117.945L110.444 276.111L97.8329 276.111ZM153.056 331.334L153.056 153.055L350.885 153.055C355.027 153.055 358.385 149.698 358.385 145.555C358.385 141.412 355.027 138.055 350.885 138.055L145.556 138.055C141.414 138.055 138.056 141.412 138.056 145.555L138.056 303.722L125.445 303.722L125.445 125.445L414.167 125.445L414.167 138.055L385.886 138.055C381.744 138.055 378.386 141.412 378.386 145.555C378.386 149.698 381.744 153.055 385.886 153.055L441.778 153.055L441.778 165.666L173.167 165.666C169.025 165.666 165.667 169.023 165.667 173.166L165.667 331.333L153.056 331.333L153.056 331.334ZM497 386.555L208.278 386.555L208.278 311.222C208.278 307.079 204.92 303.722 200.778 303.722C196.636 303.722 193.278 307.079 193.278 311.222L193.278 358.944L180.667 358.944L180.667 180.667L469.389 180.667L469.389 193.278L200.778 193.278C196.636 193.278 193.278 196.635 193.278 200.778L193.278 276.221C193.278 280.364 196.636 283.721 200.778 283.721C204.92 283.721 208.278 280.364 208.278 276.221L208.278 208.278L497 208.278L497 386.555Z" id="Shape" fill="#FFFFFF" fill-rule="evenodd" stroke="none" />
        <path d="M242.194 346.333C246.336 346.333 249.694 342.976 249.694 338.833L249.694 304.917L283.611 304.917C287.753 304.917 291.111 301.56 291.111 297.417C291.111 293.274 287.753 289.917 283.611 289.917L249.694 289.917L249.694 263.5L297.417 263.5C301.559 263.5 304.917 260.143 304.917 256C304.917 251.857 301.559 248.5 297.417 248.5L242.194 248.5C238.052 248.5 234.694 251.857 234.694 256L234.694 338.833C234.694 342.975 238.052 346.333 242.194 346.333L242.194 346.333Z" id="Shape" fill="#FFFFFF" stroke="none" />
        <path d="M325.028 346.333C329.17 346.333 332.528 342.976 332.528 338.833L332.528 304.917L359.542 304.917C375.096 304.917 387.75 292.263 387.75 276.708C387.75 261.154 375.096 248.5 359.542 248.5L325.028 248.5C320.886 248.5 317.528 251.857 317.528 256L317.528 338.833C317.528 342.975 320.886 346.333 325.028 346.333L325.028 346.333ZM332.528 263.5L359.542 263.5C366.825 263.5 372.75 269.425 372.75 276.708C372.75 283.991 366.825 289.917 359.542 289.917L332.528 289.917L332.528 263.5Z" id="Shape" fill="#FFFFFF" fill-rule="evenodd" stroke="none" />
        <path d="M442.375 331.333L428.569 331.333C421.286 331.333 415.361 325.408 415.361 318.125C415.361 313.982 412.003 310.625 407.861 310.625C403.719 310.625 400.361 313.982 400.361 318.125C400.361 333.679 413.015 346.333 428.569 346.333L442.375 346.333C457.929 346.333 470.583 333.679 470.583 318.125C470.583 302.571 457.929 289.917 442.375 289.917L428.569 289.917C421.286 289.917 415.361 283.991 415.361 276.708C415.361 269.425 421.286 263.5 428.569 263.5L442.375 263.5C449.658 263.5 455.583 269.425 455.583 276.708C455.583 280.851 458.941 284.208 463.083 284.208C467.225 284.208 470.583 280.851 470.583 276.708C470.583 261.154 457.929 248.5 442.375 248.5L428.569 248.5C413.015 248.5 400.361 261.154 400.361 276.708C400.361 292.263 413.015 304.917 428.569 304.917L442.375 304.917C449.658 304.917 455.583 310.842 455.583 318.125C455.583 325.408 449.658 331.333 442.375 331.333L442.375 331.333Z" id="Shape" fill="#FFFFFF" stroke="none" />
      </g>
    </g>
  </g>
</svg>