<?xml version="1.0" encoding="utf-8"?>
<svg width="512px" height="512px" viewBox="0 0 512 512" version="1.1" xmlns:xlink="http://www.w3.org/1999/xlink" xmlns="http://www.w3.org/2000/svg">
  <defs>
    <path d="M0 0L512 0L512 512L0 512L0 0Z" id="path_1" />
    <clipPath id="mask_1">
      <use xlink:href="#path_1" />
    </clipPath>
  </defs>
  <g id="fps1">
    <path d="M0 0L512 0L512 512L0 512L0 0Z" id="Background" fill="#FFFFFF" fill-opacity="0" fill-rule="evenodd" stroke="none" />
    <g clip-path="url(#mask_1)">
      <path d="M469.333 277.333L469.333 448C469.333 459.782 459.782 469.333 448 469.333L277.333 469.333C265.551 469.333 256 459.782 256 448L256 277.333C256 265.551 265.551 256 277.333 256L448 256C459.782 256 469.333 265.551 469.333 277.333L469.333 277.333ZM149.333 128C137.551 128 128 137.551 128 149.333L128 341.333C128 353.115 137.551 362.667 149.333 362.667L213.333 362.667L213.333 224C213.333 218.109 218.109 213.333 224 213.333L362.667 213.333L362.667 149.333C362.667 137.551 353.115 128 341.333 128L149.333 128ZM64 277.333L85.3333 277.333L85.3333 96C85.3333 90.109 90.109 85.3333 96 85.3333L277.333 85.3333L277.333 64C277.333 52.2179 267.782 42.6667 256 42.6667L64 42.6667C52.2179 42.6667 42.6667 52.2179 42.6667 64L42.6667 256C42.6667 267.782 52.2179 277.333 64 277.333L64 277.333Z" id="Shape" fill="#FFFFFF" fill-rule="evenodd" stroke="none" />
    </g>
  </g>
</svg>