<?xml version="1.0" encoding="utf-8"?>
<svg width="512px" height="512px" viewBox="0 0 512 512" version="1.1" xmlns:xlink="http://www.w3.org/1999/xlink" xmlns="http://www.w3.org/2000/svg">
  <defs>
    <path d="M0 0L512 0L512 512L0 512L0 0Z" id="path_1" />
    <clipPath id="mask_1">
      <use xlink:href="#path_1" />
    </clipPath>
  </defs>
  <g id="fps2">
    <path d="M0 0L512 0L512 512L0 512L0 0Z" id="Background" fill="#FFFFFF" fill-opacity="0" fill-rule="evenodd" stroke="none" />
    <g clip-path="url(#mask_1)">
      <path d="M469.333 234.667L256 234.667C244.218 234.667 234.667 244.218 234.667 256L234.667 469.333C234.667 481.115 244.218 490.667 256 490.667L469.333 490.667C481.115 490.667 490.667 481.115 490.667 469.333L490.667 256C490.667 244.218 481.115 234.667 469.333 234.667L469.333 234.667ZM448 448L277.333 448L277.333 277.333L448 277.333L448 448Z" id="Shape" fill="#FFFFFF" fill-rule="evenodd" stroke="none" />
      <path d="M64 256L64 64L256 64C267.782 64 277.333 54.4488 277.333 42.6667C277.333 30.8847 267.782 21.3334 256 21.3333L42.6667 21.3333C30.8846 21.3333 21.3333 30.8846 21.3333 42.6667L21.3333 256C21.3333 267.782 30.8846 277.333 42.6666 277.333C54.4487 277.333 63.9999 267.782 64 256L64 256Z" id="Shape" fill="#FFFFFF" stroke="none" />
      <path d="M149.333 128C137.551 128 128 137.551 128 149.333L128 362.667C128 374.449 137.551 384 149.333 384C161.115 384 170.667 374.449 170.667 362.667L170.667 170.667L362.667 170.667C374.449 170.667 384 161.115 384 149.333C384 137.551 374.449 128 362.667 128L149.333 128Z" id="Shape" fill="#FFFFFF" stroke="none" />
    </g>
  </g>
</svg>