<?xml version="1.0" encoding="utf-8"?>
<svg width="512px" height="512px" viewBox="0 0 512 512" version="1.1" xmlns:xlink="http://www.w3.org/1999/xlink" xmlns="http://www.w3.org/2000/svg">
  <defs>
    <path d="M0 0L512 0L512 512L0 512L0 0Z" id="path_1" />
    <clipPath id="mask_1">
      <use xlink:href="#path_1" />
    </clipPath>
  </defs>
  <g id="resolution">
    <path d="M0 0L512 0L512 512L0 512L0 0Z" id="Background" fill="#FFFFFF" fill-opacity="0" fill-rule="evenodd" stroke="none" />
    <g clip-path="url(#mask_1)">
      <path d="M59.7333 384L264.533 384L264.533 264.533C264.533 259.821 260.713 256 256 256L17.0667 256L17.0667 341.333C17.0971 364.89 36.1849 383.974 59.7374 384L59.7333 384Z" id="Shape" fill="#FFFFFF" stroke="none" />
      <path d="M452.267 34.1333L59.7333 34.1333C36.1809 34.1615 17.0949 53.2475 17.0667 76.8L17.0667 102.4L392.533 102.4C406.672 102.4 418.133 113.862 418.133 128L418.133 384L452.267 384C475.819 383.972 494.905 364.886 494.933 341.333L494.933 76.8C494.903 53.2435 475.815 34.1593 452.263 34.1333L452.267 34.1333Z" id="Shape" fill="#FFFFFF" stroke="none" />
      <path d="M281.6 264.533L281.6 384L332.8 384L332.8 196.267C332.8 191.554 328.98 187.733 324.267 187.733L17.0667 187.733L17.0667 238.933L256 238.933C270.139 238.933 281.6 250.395 281.6 264.533L281.6 264.533Z" id="Shape" fill="#FFFFFF" stroke="none" />
      <path d="M349.867 196.267L349.867 384L401.067 384L401.067 128C401.067 123.287 397.246 119.467 392.533 119.467L17.0667 119.467L17.0667 170.667L324.267 170.667C338.405 170.667 349.867 182.128 349.867 196.267L349.867 196.267Z" id="Shape" fill="#FFFFFF" stroke="none" />
      <path d="M153.6 469.333C153.6 474.046 157.421 477.867 162.133 477.867L349.867 477.867C354.579 477.867 358.4 474.046 358.4 469.333C358.4 464.621 354.58 460.8 349.867 460.8L162.133 460.8C157.421 460.8 153.6 464.621 153.6 469.333L153.6 469.333Z" id="Shape" fill="#FFFFFF" stroke="none" />
      <path d="M222.191 401.067C222.543 416.358 217.88 431.343 208.913 443.734L303.087 443.733C294.12 431.343 289.457 416.357 289.809 401.067L222.191 401.067Z" id="Shape" fill="#FFFFFF" stroke="none" />
    </g>
  </g>
</svg>