<?xml version="1.0" encoding="iso-8859-1"?>
<!-- Generator: Adobe Illustrator 16.0.0, SVG Export Plug-In . SVG Version: 6.00 Build 0)  -->
<!DOCTYPE svg PUBLIC "-//W3C//DTD SVG 1.1//EN" "http://www.w3.org/Graphics/SVG/1.1/DTD/svg11.dtd">
<svg version="1.1" id="Capa_1" xmlns="http://www.w3.org/2000/svg" xmlns:xlink="http://www.w3.org/1999/xlink" x="0px" y="0px"
	 width="486px" height="486px" viewBox="0 0 486 486" style="enable-background:new 0 0 486 486;" xml:space="preserve">
<g>
	<g>
		<path d="M242.995,2.008C108.801,2.008,0,110.798,0,244.991c0,62.957,23.938,120.327,63.22,163.497
			c-26.7-35.008-42.727-78.424-42.727-125.67c0-115.311,94.31-208.769,210.678-208.769c116.339,0,210.667,93.458,210.667,208.769
			c0,96.197-65.766,176.99-155.096,201.174C400.057,463.371,486,364.256,486,244.991C486,110.798,377.194,2.008,242.995,2.008z"/>
		<path d="M290.047,336.266c43.275-22.49,65.66-73.368,50.761-121.618c-16.769-54.298-74.383-84.729-128.699-67.943
			c-54.293,16.75-84.718,74.389-67.949,128.688c7.864,25.468,24.715,45.681,46.008,58.245
			c-15.186-10.813-27.079-26.39-32.988-45.517c-14.41-46.633,12.062-96.255,59.15-110.793c47.082-14.544,96.897,11.49,111.33,58.134
			C339.687,274.388,323.175,315.305,290.047,336.266z"/>
		<path d="M411.735,340.131c30.197-81.32-11.233-171.724-92.553-201.927c-4.157-1.559-8.361-2.861-12.564-4.058
			c65.17,30.588,96.943,106.974,71.207,176.278c-27.126,73.006-107.745,110.396-180.108,83.515
			c-51.718-19.221-85.044-66.104-90.03-117.95c-4.052,67.225,35.732,132.01,102.128,156.672
			C291.11,462.88,381.514,421.461,411.735,340.131z"/>
		<path d="M59.763,247.647c-3.158,37.262,10.451,72.024,34.535,96.967c-8.017-23.657-11.099-50.55-7.917-78.47
			c7.362-64.545,45.961-115.913,93.901-132.401C117.757,135.442,65.17,183.879,59.763,247.647z"/>
		<path d="M242.995,223.243c23.664,0,42.838,19.18,42.838,42.843c0,23.67-19.174,42.844-42.838,42.844
			c-23.658,0-42.843-19.174-42.843-42.844C200.151,242.422,219.337,223.243,242.995,223.243z"/>
	</g>
</g>
<g>
</g>
<g>
</g>
<g>
</g>
<g>
</g>
<g>
</g>
<g>
</g>
<g>
</g>
<g>
</g>
<g>
</g>
<g>
</g>
<g>
</g>
<g>
</g>
<g>
</g>
<g>
</g>
<g>
</g>
</svg>
