<?xml version="1.0" encoding="utf-8"?>
<svg width="100px" height="100px" viewBox="0 0 100 100" version="1.1" xmlns:xlink="http://www.w3.org/1999/xlink" xmlns="http://www.w3.org/2000/svg">
  <defs>
    <path d="M0 0L100 0L100 100L0 100L0 0Z" id="path_1" />
    <clipPath id="mask_1">
      <use xlink:href="#path_1" />
    </clipPath>
  </defs>
  <g id="Asset-1">
    <path d="M0 0L100 0L100 100L0 100L0 0Z" id="Background" fill="#FFFFFF" fill-opacity="0" fill-rule="evenodd" stroke="none" />
    <g clip-path="url(#mask_1)">
      <g id="Layer_2" transform="translate(-0.11107925 0.00039382637)">
        <g id="Layer_1-2">
          <path d="M89.666 62.0157C91.0352 62.0157 92.3048 61.7977 93.7292 61.4623C96.1546 60.8914 97.6092 60.013 98.8183 59.1494C99.5189 58.6497 100.253 58.0653 100.088 57.4605C100.076 57.4173 100.067 57.374 100.056 57.332C99.9386 56.8382 99.8212 56.3707 97.5114 55.9388C97.5469 55.8751 97.5843 55.8109 97.6181 55.7472C97.8574 55.2597 97.9994 54.7675 98.043 54.274C98.073 53.7801 98.0077 53.2861 97.8475 52.7949C97.1714 50.8146 94.7415 48.9431 90.8592 47.4123C89.893 47.0318 88.8351 46.6775 87.6958 46.3528C86.562 46.0255 85.3461 45.7301 84.0611 45.4699C83.4299 45.3343 82.7595 45.2198 82.1051 45.1C81.4241 44.9924 80.7519 44.8791 80.0496 44.7891C79.3614 44.688 78.6412 44.6138 77.9317 44.5279C77.2098 44.4583 76.4914 44.3818 75.7535 44.3292C75.0244 44.2661 74.2776 44.2281 73.5378 44.1825C72.7892 44.1521 72.0424 44.1136 71.2902 44.1013C70.538 44.0773 69.7841 44.0785 69.0301 44.0738C68.2762 44.0814 67.5222 44.0861 66.7718 44.1118C63.7667 44.1997 60.8229 44.4435 58.0498 44.8341C52.5001 45.62 47.7618 46.9174 44.4076 48.5694C43.5796 48.9791 42.8307 49.4056 42.1653 49.8462C41.6549 50.2015 41.1801 50.5626 40.7765 50.932C40.022 50.9274 39.2739 50.9785 38.5875 51.0816C39.2739 50.0098 39.6367 48.1206 39.089 47.77C38.8883 47.6507 38.5861 47.5532 38.2194 47.4895C38.383 47.1488 38.6515 46.8017 38.9165 46.4563L39.3753 45.8749C39.5417 45.6707 39.6506 45.462 39.7007 45.2513C39.7497 45.0323 39.6957 44.8122 39.5406 44.5986C39.3777 44.3779 39.0747 44.171 38.6515 43.9914C38.3061 43.8466 37.8995 43.7187 37.4442 43.6116C37.4939 43.5332 37.4697 43.4516 37.3748 43.3778C36.5035 42.7309 34.487 42.2535 32.4688 42.2167L32.3834 42.2167C32.6697 41.6832 33.173 41.1526 33.6655 40.6331C33.8771 40.411 34.0852 40.1895 34.2808 39.9681C36.2925 37.6647 36.6648 35.2402 35.369 32.882C35.0383 32.2854 34.5973 31.6893 34.1705 31.1125C33.8415 30.669 33.5019 30.2109 33.2174 29.7586C32.5648 28.7172 31.9531 27.9879 31.4623 27.4024C30.5946 26.3681 30.2087 25.9035 30.8524 25.1555C32.2104 25.2487 33.5828 25.3173 34.9636 25.3612C45.2427 25.6848 55.4913 24.6517 63.4502 22.4896C67.3613 21.4242 70.589 20.114 72.9457 18.6351C75.287 17.1642 76.7364 15.5578 77.2133 13.9052C77.6259 12.4715 77.2891 11.0252 76.2176 9.62882C76.23 9.61831 76.2496 9.60896 76.262 9.59844L76.1855 9.58792C76.0386 9.39742 75.8779 9.20808 75.7037 9.01991C71.2471 4.16255 58.4099 0.645605 43.0686 0.0790812C40.5756 -0.0134595 38.0609 -0.0248141 35.5611 0.0451868C16.6435 0.546343 1.62921 5.48544 0.123191 11.7029C-1.38283 17.9203 11.0647 23.5778 29.5028 25.0561C28.7915 25.9128 29.236 26.4586 30.1287 27.5239C30.6141 28.103 31.2205 28.8242 31.8642 29.8509C32.1523 30.3114 32.4955 30.7736 32.8262 31.2212C33.2476 31.791 33.6851 32.3806 34.0087 32.9644C35.2661 35.2534 34.9047 37.6067 32.9524 39.8424C32.7604 40.061 32.5541 40.2789 32.3461 40.4981C31.802 41.0719 31.2454 41.6592 30.9609 42.2611C28.964 42.4014 27.0204 42.8455 25.9731 43.2861C24.7532 43.7992 24.0668 44.487 23.9868 45.2729C23.9335 45.8053 24.3122 46.4236 24.6483 46.9676C24.7283 47.0997 24.8066 47.2282 24.8777 47.3533C24.3193 47.5362 24.0419 47.7892 23.7717 48.0393C23.6262 48.1825 23.4546 48.3226 23.2578 48.4589C22.6301 48.868 22.3295 49.3425 22.0664 49.7591C21.8032 50.1758 21.5792 50.5884 21.3747 51.0044C21.0724 51.0681 20.7683 51.1318 20.4625 51.1973C19.76 51.3434 19.081 51.5014 18.4282 51.6706C17.7706 51.846 17.1569 52.0385 16.5931 52.2462C14.3269 53.0899 12.981 54.1577 12.7682 55.2808C12.6658 55.8505 12.9881 56.4198 13.7071 56.9393C14.0857 57.2054 14.6142 57.4455 15.2648 57.6469C15.5978 57.7476 15.9633 57.836 16.3548 57.9105C16.7343 57.9807 17.1297 58.0413 17.5373 58.0916C18.3162 58.1916 19.047 58.271 19.6285 58.399C20.2291 58.5328 20.7404 58.7054 21.1311 58.9063C21.9475 59.327 22.4169 59.8103 22.4931 60.3088C22.5891 60.8085 22.2985 61.308 21.6485 61.7609C20.9959 62.2056 19.9432 62.5907 18.6256 62.8063C17.2623 63.0254 15.732 63.1067 14.2281 63.0401C12.6601 62.9792 11.208 62.7383 10.1276 62.3599C10.5146 62.6036 11.0715 62.8139 11.7529 62.9735C12.4505 63.1345 13.235 63.2506 14.0645 63.3153C15.7626 63.45 17.55 63.388 19.1253 63.14C20.7256 62.8852 21.9437 62.4388 22.7047 61.9298C23.4574 61.4186 23.8025 60.853 23.7076 60.286C23.7076 60.2725 23.6988 60.2591 23.697 60.245C24.2589 60.6541 24.8297 61.0789 25.3471 61.5307C25.5961 61.748 25.7686 61.9567 25.9357 62.1583C26.2505 62.5393 26.5492 62.8993 27.2978 63.2551C27.8562 63.5204 28.795 63.7916 29.6237 64.0312C29.9793 64.1352 30.3243 64.2339 30.5981 64.3233C31.5583 64.6313 32.0207 64.9568 32.515 65.301C33.0093 65.6452 33.5001 65.9853 34.471 66.3195C34.4266 66.5375 34.3946 66.7543 34.3697 66.9659L34.0745 69.6808C28.795 70.2547 27.2356 71.1003 26.7839 71.6168C26.1953 72.3035 26.9973 73.0445 28.9302 73.5984C30.2191 73.9549 31.7528 74.2028 33.3988 74.3207C32.6093 75.0395 33.2636 76.0055 33.7153 76.6652C33.854 76.8709 34.014 77.1023 33.998 77.1707C33.71 77.412 33.7171 78.2518 33.758 79.8149L33.7669 80.1971C33.7669 80.5144 33.8629 80.903 33.9447 81.2788C34.0443 81.7089 34.1456 82.1553 34.1225 82.4966C34.1225 82.6573 34.0869 82.8648 34.0549 83.1049C33.966 83.7957 33.8558 84.6547 34.0852 85.128C34.4639 85.9064 35.6731 86.6573 37.0725 87.5274C37.8354 88.0014 38.6996 88.5384 39.5157 89.1368C39.6313 89.2215 39.8998 89.3343 40.4048 89.5459C41.454 89.9795 43.2108 90.7052 43.6892 91.4036C44.1301 92.0464 44.6903 92.5723 47.1228 92.8919C45.2682 93.228 44.2226 93.7954 43.7212 94.7035C43.2997 95.4678 44.1942 96.3193 45.9492 96.8247C45.9704 96.8814 45.9704 96.9387 45.9492 96.9954C45.9119 97.145 45.8657 97.3314 46.2302 97.4681C46.4862 97.5564 46.8426 97.6055 47.2135 97.6037C47.3238 97.6037 47.434 97.6037 47.546 97.6037C49.4025 97.6037 51.1504 97.37 52.8433 97.1479L53.0051 97.1269C58.9496 96.3403 63.0412 95.2119 65.1928 93.7703C65.9556 94.2838 66.9549 94.7557 68.1553 95.1692C68.5005 95.291 68.9072 95.3922 69.3573 95.4684C67.8245 96.4771 68.1659 97.4804 69.039 98.2366C69.0397 98.2385 69.0397 98.2405 69.039 98.2424C69.7698 98.8706 70.8652 99.327 71.5551 99.4696C73.176 99.815 75.0681 99.9978 77 99.9955C78.5464 99.9881 80.0774 99.893 81.5255 99.7144C82.5357 99.605 83.4717 99.4321 84.2816 99.2055C85.738 98.7824 86.6769 98.174 86.7907 97.5768C86.9151 96.9241 87.205 96.2643 87.4842 95.6268C88.0567 94.3236 88.5155 93.2765 87.269 92.8563C87.8451 92.1878 87.5802 91.4965 86.4546 90.811C86.2041 90.6634 85.9237 90.5214 85.6153 90.3862C85.2773 90.2416 84.9837 90.0863 84.7386 89.9228C84.5039 89.7568 84.2319 89.585 83.9687 89.4184C83.3321 89.0141 82.6724 88.5963 82.395 88.1913C82.1283 87.8027 81.3156 87.3556 80.455 86.8823C79.4823 86.3458 78.4741 85.7919 78.4172 85.3822C78.1789 83.7092 78.595 82.8274 79.0075 81.9748C79.2885 81.3875 79.5534 80.8323 79.5659 80.0697C79.5801 79.2756 79.5854 78.4534 77.3396 76.8925C77.7976 76.6287 78.2033 76.3554 78.5541 76.0744C78.7959 76.8656 79.621 77.6446 80.4674 78.3394L80.5741 78.4259C80.744 78.5506 80.8796 78.6801 80.9796 78.8127C81.0738 78.9941 81.1078 79.1783 81.0809 79.362L81.0809 79.4485C81.0642 80.2435 81.3686 81.0356 81.9861 81.8042C82.1514 82.0104 82.4057 82.2459 82.9071 82.3838C82.4679 82.8642 82.9854 83.6589 84.0932 84.051C84.5093 84.1983 84.9823 84.2737 85.4535 84.2737C85.6073 84.2733 85.7601 84.2654 85.9069 84.2503C85.9727 84.2859 86.0403 84.3204 86.1096 84.3549C86.3532 84.4718 86.6911 84.6161 87.1677 84.6921C87.408 84.727 87.6616 84.7509 87.9216 84.7634C87.9821 84.7675 88.0425 84.771 88.0994 84.7757C88.4134 84.7969 88.7311 84.8115 89.0508 84.8195C89.4011 84.8266 89.7481 84.8462 90.0857 84.8779C90.4064 84.9058 90.7372 84.9192 91.069 84.9177C91.8905 84.9177 92.8276 84.8493 93.402 84.7049C93.7657 84.6103 94.1657 84.5317 94.5916 84.4712L95.0166 84.4034C95.1716 84.3797 95.3321 84.3602 95.4967 84.345C95.6568 84.3307 95.8141 84.3133 95.9679 84.293C97.3247 84.106 97.8973 83.5625 97.9755 83.154C98.0626 82.69 97.6785 82.2313 97.3389 81.8275L96.9068 81.3103C97.3279 81.1711 97.6561 81.0045 97.8706 80.8212C98.404 80.3578 98.1604 79.8126 97.979 79.4141C97.8706 79.1721 97.7283 78.9419 97.5914 78.7187C97.4403 78.4738 97.2838 78.2196 97.1771 77.959C96.8214 77.1076 96.4658 76.2275 96.3467 75.3562C96.32 75.1721 96.304 74.9875 96.288 74.8028C96.2453 74.3242 96.2026 73.8293 95.9768 73.346C95.751 72.8627 95.2762 72.3894 94.8121 71.9271C94.4234 71.5632 94.0958 71.1926 93.8305 70.8168C93.4589 70.2325 93.2508 69.6212 93.0499 69.0287C92.7974 68.2819 92.536 67.5093 91.9439 66.7771C90.6476 65.1759 89.145 64.2579 84.2745 63.4708C84.3681 63.3169 84.3306 63.1576 84.1661 63.0103C85.5416 62.6791 86.8272 62.3093 88.0087 61.9052C88.5359 61.9751 89.0977 62.0125 89.666 62.0157L89.666 62.0157ZM5.85641 7.611C6.76149 7.5374 7.63793 7.42995 8.46857 7.29077C9.46728 7.12024 10.4367 6.93178 11.3724 6.72626C12.2467 6.53594 13.15 6.3604 14.0788 6.20033C14.9287 6.0549 15.8494 5.95939 16.7994 5.91809C17.2587 5.90006 17.7226 5.89869 18.1828 5.914C18.6594 5.92977 19.1715 5.96075 19.7263 5.99055C20.318 6.02643 20.9172 6.04733 21.5187 6.05307C22.1408 6.05562 22.7622 6.0376 23.3733 5.99931C24.5281 5.92238 25.653 5.8032 26.727 5.64402C27.769 5.49793 28.747 5.33781 29.7108 5.19522C30.6341 5.05174 31.5984 4.93879 32.5897 4.85804C34.538 4.71547 36.5696 4.75803 38.447 4.98076C38.9171 5.03653 39.3752 5.10272 39.818 5.17886C40.2715 5.25725 40.7081 5.3457 41.125 5.44358C41.5995 5.55526 42.0955 5.65676 42.6098 5.74745C43.176 5.84188 43.7902 5.9013 44.4218 5.92276C45.6665 5.96659 46.8028 5.87777 47.8626 5.8018C48.396 5.76381 48.9295 5.72466 49.4256 5.70304C49.94 5.68093 50.4607 5.67956 50.9762 5.69895C51.494 5.71612 51.9975 5.76487 52.461 5.8427C52.9376 5.92335 53.3264 6.05053 53.5741 6.20677C53.4171 6.02709 53.0886 5.86874 52.637 5.75505C52.1765 5.6405 51.6521 5.55672 51.0935 5.50844C50.5342 5.46061 49.9591 5.43568 49.3811 5.43423C48.819 5.43579 48.2575 5.44711 47.699 5.46812C46.6107 5.50026 45.5527 5.53649 44.6298 5.47221C44.1796 5.44179 43.7508 5.38391 43.3655 5.30158C42.9373 5.20993 42.5263 5.10982 42.135 5.0018C41.6874 4.88022 41.2158 4.76855 40.7231 4.66754C40.2226 4.56377 39.6955 4.47461 39.1477 4.40107C38.0507 4.25039 36.8939 4.152 35.7122 4.10888C34.5204 4.06903 33.3172 4.08873 32.1434 4.16732C31.0066 4.24798 29.897 4.36543 28.8306 4.51794C27.7921 4.65936 26.807 4.81363 25.8397 4.94745C24.9187 5.08093 23.9556 5.18049 22.9679 5.24431C22.5056 5.27159 22.0363 5.28373 21.5667 5.28054C21.0769 5.27616 20.5889 5.25955 20.1068 5.23087C19.584 5.2034 19.0221 5.16951 18.4122 5.15081C17.7854 5.13124 17.154 5.13418 16.5291 5.15958C15.3121 5.21572 14.1362 5.34382 13.0581 5.53766C12.0621 5.71672 11.1017 5.91639 10.1827 6.13547C9.29365 6.34 8.41522 6.53869 7.52613 6.70582C7.38387 6.73211 7.24162 6.75607 7.09758 6.78061C11.6521 3.98795 19.3819 1.90038 28.6012 0.973162C37.8211 0.0206434 48.2129 0.357239 56.7411 1.88595C61.0279 2.64406 64.8125 3.67506 67.8743 4.91882C68.6551 5.23651 69.3869 5.5669 70.0668 5.90874C68.6808 5.87015 67.3183 5.76746 66.0197 5.6037C64.4193 5.39741 62.9398 5.10582 61.7822 4.69267C61.1723 4.48171 60.5375 4.2205 59.6484 3.98617C58.7225 3.75362 57.6323 3.60203 56.4797 3.54555C55.438 3.49792 54.3821 3.49419 53.3376 3.53445C52.3471 3.56425 51.4083 3.61568 50.4925 3.64665C49.6232 3.68308 48.7446 3.68915 47.8714 3.66476C47.4643 3.6498 47.0617 3.62381 46.6676 3.58704C46.2644 3.54428 45.873 3.49033 45.4976 3.42576C44.7063 3.29427 43.8972 3.12189 43.0081 2.96878C42.1029 2.81854 41.1483 2.70286 40.163 2.624C39.1867 2.54622 38.1856 2.50699 37.181 2.50713C36.6813 2.50713 36.1852 2.51765 35.6909 2.5305C35.1983 2.55388 34.7093 2.5755 34.2274 2.61465C32.3152 2.75246 30.5378 3.04491 29.0564 3.46549C32.3222 2.86645 36.192 2.73319 39.7647 3.09676C40.6115 3.18806 41.4268 3.30832 42.1972 3.45556C42.9636 3.60633 43.7229 3.79449 44.6014 3.96571C45.0539 4.05713 45.5299 4.13535 46.0239 4.19946C46.5314 4.26005 47.0554 4.30447 47.5887 4.33211C48.6083 4.38061 49.6408 4.39314 50.6686 4.36951C52.6245 4.33737 54.4988 4.23861 56.0707 4.33503C56.8115 4.3766 57.5104 4.47689 58.1067 4.62722C58.7113 4.78149 59.2803 5.01115 59.9809 5.25308C61.437 5.75965 63.2874 6.12545 65.3315 6.31078C67.1195 6.47385 69.0125 6.46472 70.7852 6.28449C71.1604 6.49077 71.5196 6.70056 71.8521 6.91385C72.9672 7.62222 73.87 8.36455 74.5478 9.13036C74.6225 9.21626 74.6936 9.30216 74.763 9.38865L74.7363 9.38514C74.5194 9.54059 74.0588 9.64811 73.4383 9.71122C72.7686 9.77101 72.073 9.79314 71.3809 9.77667C69.9231 9.75118 68.4978 9.62557 67.1968 9.40793C66.8881 9.35285 66.5937 9.28952 66.3166 9.2186C66.0108 9.1438 65.7067 9.06491 65.399 8.98485C64.7856 8.82298 64.1543 8.65234 63.4893 8.48755C62.7961 8.313 62.0514 8.16168 61.2665 8.03584C60.4093 7.90016 59.4797 7.82076 58.5299 7.80209C57.5341 7.78514 56.6112 7.85351 55.8164 7.91896C55.0215 7.98441 54.2978 8.05103 53.6666 8.06622C53.0518 8.08142 52.4348 8.04816 51.867 7.96922C51.1961 7.87533 50.5496 7.76353 49.9341 7.63496C49.2177 7.48579 48.4736 7.35151 47.7061 7.23291C46.9049 7.11362 46.0714 7.01932 45.2166 6.95125C43.5559 6.82294 41.8548 6.75959 40.1488 6.7625C38.479 6.7625 36.8431 6.79406 35.241 6.83788L30.4399 6.97229C27.2391 7.06871 24.0242 7.18032 20.8234 7.35739C17.6068 7.52411 14.434 7.77203 11.3332 8.09895C8.86839 8.36333 6.48125 8.70032 4.20088 9.10582C4.65223 8.5969 5.20528 8.09832 5.85641 7.61334L5.85641 7.611ZM21.8477 22.9892C17.6897 22.2449 14.007 21.2444 11.0007 20.0423C10.7624 19.9476 10.5313 19.8506 10.3019 19.753C10.4904 19.7729 10.6806 19.7927 10.8691 19.8114C11.3457 19.857 11.8222 19.8985 12.3006 19.9347C12.7789 19.971 13.2892 20.0002 13.7836 20.0218C14.7623 20.0653 15.7496 20.0849 16.7372 20.0802C18.6932 20.0762 20.5869 19.9885 22.4416 19.9914C24.2962 19.9943 26.1402 20.0627 27.7761 20.4005C27.4584 20.2786 27.0924 20.1713 26.6879 20.0814C26.2738 19.9921 25.8314 19.9178 25.3685 19.8599C24.4391 19.7506 23.4688 19.6834 22.4843 19.6601C20.5282 19.6017 18.622 19.6385 16.778 19.59C15.8636 19.5693 14.9538 19.5303 14.0539 19.4731C13.6111 19.4439 13.1648 19.4088 12.7451 19.3673C12.3255 19.3258 11.8685 19.2779 11.4381 19.2277C10.5885 19.1314 9.7623 19.0142 8.96647 18.877C8.67317 18.8267 8.38825 18.7714 8.11294 18.7111C6.51395 17.8484 5.24821 16.9236 4.34495 15.9581C3.57421 15.1301 3.07935 14.2769 2.86905 13.4138C3.41591 13.6198 4.03147 13.8051 4.70414 13.966C5.63057 14.1902 6.63749 14.3761 7.70216 14.5194C8.74979 14.6633 9.83552 14.7752 10.9456 14.8537C13.131 15.0033 15.2701 15.0541 17.3275 15.1213C19.3849 15.1885 21.3622 15.2732 23.1742 15.4719C24.9862 15.6706 26.7181 15.9914 28.5265 16.3397C30.335 16.688 32.2607 17.0468 34.4461 17.2613C35.543 17.3691 36.6799 17.4267 37.8247 17.4325C38.9359 17.4356 40.0448 17.3991 41.1321 17.3238C43.2659 17.1754 45.2504 16.9147 47.178 16.6272C45.0708 16.7125 42.9885 16.8265 40.9543 16.844C39.9593 16.8558 38.9631 16.8382 37.9776 16.7914C37.025 16.7448 36.0938 16.6594 35.2054 16.5372C33.4166 16.2976 31.7326 15.9336 29.9615 15.5625C28.1905 15.1914 26.3056 14.8028 24.1184 14.5556C21.9312 14.3084 19.7298 14.2144 17.6138 14.1466C15.4977 14.0788 13.435 14.0455 11.4933 13.9321C9.59764 13.8311 7.77946 13.6105 6.13914 13.2823C5.35656 13.1218 4.65267 12.9232 4.05155 12.6933C3.47972 12.4705 3.05034 12.2121 2.78903 11.9336C2.8157 11.7337 2.8566 11.5333 2.91351 11.3334C3.05365 10.8392 3.28765 10.3484 3.61411 9.86374C9.19762 9.02459 15.1723 8.54658 21.2644 8.24212C24.3834 8.08551 27.5325 7.96688 30.703 7.86754L35.4686 7.72787C37.0547 7.68405 38.6124 7.64139 40.1452 7.63964C41.6392 7.63033 43.1314 7.67897 44.5907 7.78456C45.294 7.83772 45.9809 7.91205 46.6427 8.00662C47.3296 8.10759 47.996 8.22295 48.6378 8.35198C49.3841 8.50007 50.1669 8.62732 50.978 8.7324C51.9021 8.84925 52.896 8.89406 53.8817 8.8633C54.8491 8.83058 55.6724 8.74292 56.4174 8.67572C57.1625 8.60852 57.8222 8.55885 58.4321 8.56352C59.6768 8.5682 60.9589 8.785 62.2054 9.07075C62.8331 9.21275 63.4591 9.37053 64.1116 9.52948C64.4371 9.60896 64.7696 9.68902 65.1163 9.76674C65.4817 9.85247 65.867 9.92867 66.2686 9.99464C67.0597 10.1202 67.892 10.2155 68.7492 10.2786C69.5936 10.3443 70.4565 10.3807 71.324 10.3873C72.2339 10.3979 73.1423 10.3545 74.0055 10.2594C74.4446 10.2083 74.8563 10.1348 75.2253 10.0414C76.002 11.2954 76.1676 12.5821 75.7161 13.8532C75.6219 14.1232 75.4956 14.392 75.3445 14.6591C74.0384 14.5688 72.704 14.5308 71.3702 14.5457C69.7935 14.5609 68.2283 14.6394 66.7096 14.7794C65.2028 14.9167 63.7515 15.1129 62.3868 15.3638C61.0342 15.608 59.7932 15.9137 58.7006 16.2719C60.0628 16.0689 61.4612 15.8933 62.8882 15.746C64.2793 15.6056 65.6997 15.4988 67.1381 15.4263C68.5548 15.3571 69.9843 15.3196 71.4165 15.3141C72.5723 15.3095 73.7281 15.3258 74.8804 15.3527C74.5158 15.8315 74.0615 16.3024 73.5201 16.7628C72.5223 16.6126 71.4558 16.5176 70.3638 16.4817C69.0756 16.4409 67.7764 16.4606 66.5051 16.5401C63.9996 16.6921 61.6791 17.0152 59.5346 17.4033C57.3901 17.7913 55.4181 18.2074 53.3678 18.5498C51.3176 18.8922 49.2122 19.1581 47.0304 19.2189C44.8485 19.2797 42.5849 19.1546 40.3657 18.9524C38.1465 18.7502 35.9309 18.4686 33.6459 18.2214C31.361 17.9742 28.9462 17.7895 26.4816 17.7732C25.2505 17.7613 24.0201 17.8042 22.8239 17.9006C21.6414 17.9969 20.526 18.1667 19.5378 18.4008C21.7605 18.0998 24.1184 18.0636 26.3927 18.1635C27.534 18.2157 28.6629 18.2938 29.7713 18.3973C30.8844 18.5001 31.9887 18.6182 33.0787 18.7543C35.2783 19.0208 37.4833 19.3264 39.8127 19.5654C42.1421 19.8044 44.628 19.9745 47.1922 19.916C48.4616 19.8859 49.7153 19.8057 50.9264 19.677C52.1089 19.5506 53.2598 19.3943 54.369 19.2095C56.565 18.8507 58.5904 18.4323 60.6264 18.0636C61.6233 17.8822 62.6537 17.7213 63.7116 17.5821C64.746 17.443 65.8175 17.3358 66.9123 17.2618C68.8968 17.1304 70.931 17.1502 72.6967 17.3974C72.2581 17.7165 71.7786 18.0281 71.2582 18.3324C69.4974 19.3575 67.2952 20.2936 64.7198 21.1117C64.6824 21.1193 64.6451 21.1274 64.6078 21.1345C63.8236 21.2876 62.9967 21.4266 62.1503 21.5575C61.3039 21.6884 60.4397 21.8158 59.5559 21.9409C58.6722 22.0659 57.808 22.1933 56.9473 22.2962C56.1202 22.3992 55.2626 22.4736 54.3885 22.5182C53.5517 22.5557 52.7022 22.5502 51.8706 22.5019C50.1458 22.4113 48.3605 22.1635 46.3102 22.0262C45.2784 21.96 44.2281 21.9299 43.177 21.9362C42.1592 21.9444 41.1444 21.9759 40.1399 22.0303C38.1554 22.1366 36.2706 22.3026 34.4159 22.4428C32.606 22.5876 30.7619 22.6814 28.9035 22.7233C27.0613 22.7555 25.2067 22.6988 23.3645 22.4651C24.095 22.6925 24.9532 22.8712 25.8913 22.991C26.8394 23.1141 27.8333 23.195 28.8466 23.2317C30.8702 23.3089 32.8991 23.2446 34.8373 23.1306C36.7756 23.0167 38.6462 22.8858 40.4866 22.8098C42.3271 22.7339 44.1248 22.7152 45.839 22.8285C47.5798 22.9413 49.406 23.1791 51.5079 23.2902C52.585 23.3472 53.683 23.3472 54.7602 23.2902C55.0251 23.2756 55.2847 23.2586 55.5408 23.2393C53.5563 23.5606 51.4876 23.8223 49.3598 24.0212C44.7841 24.4491 39.9969 24.5767 35.2712 24.397C30.5638 24.2158 26.0065 23.7386 21.8477 22.9916L21.8477 22.9892ZM97.2962 56.2924C98.8361 56.6103 98.9126 56.9165 99.0175 57.3559C99.0282 57.3998 99.0388 57.4436 99.0513 57.4886C99.1935 58.0098 98.5463 58.5229 97.8723 59.0044C96.7218 59.8225 95.3509 60.657 93.1228 61.1818C91.277 61.6166 90.0999 61.7498 88.8 61.6347C89.3121 61.4477 89.8065 61.2558 90.283 61.0591C91.212 60.6757 92.0672 60.2736 92.8437 59.8552C93.6293 59.4378 94.3377 59.0052 94.965 58.5597C95.603 58.114 96.1472 57.6544 96.5938 57.1841C96.8766 56.8931 97.1024 56.5951 97.2962 56.2947L97.2962 56.2924ZM66.907 44.6389C67.6182 44.6149 68.3295 44.6114 69.0408 44.605C69.7521 44.6103 70.4633 44.6091 71.1746 44.6325C71.8859 44.6442 72.5865 44.6816 73.2907 44.7102C73.9877 44.7546 74.6919 44.7897 75.3783 44.8504C76.0735 44.9001 76.7475 44.9732 77.4303 45.0392C78.0971 45.1193 78.7746 45.1906 79.4219 45.2864C80.0834 45.3717 80.7146 45.4798 81.353 45.5786C81.9736 45.6954 82.5977 45.8 83.1987 45.9292C84.4058 46.1755 85.5478 46.4546 86.6129 46.7637L86.7782 46.8139C85.8381 47.0681 84.9539 47.3438 84.1323 47.6391C83.0931 48.0112 82.1586 48.4135 81.3405 48.8411C80.5097 49.2724 79.8308 49.7333 79.3169 50.215C78.9642 50.5503 78.721 50.897 78.5914 51.2493C72.2913 50.5621 66.2864 50.1612 63.299 50.0168C63.0376 50.004 62.7762 49.9923 62.5148 49.9812C63.0764 49.1733 63.3001 48.3441 63.1799 47.5163C63.0428 46.644 62.3982 45.7885 61.2808 44.9959C63.1127 44.8121 64.9985 44.6925 66.907 44.6389L66.907 44.6389ZM67.7249 50.9857C64.7251 50.9086 61.6898 50.832 58.7184 50.9857C55.7471 51.1394 52.797 51.5549 50.8499 52.3093C48.7303 53.1274 47.5265 55.5134 46.9112 56.5705C46.4631 55.4147 46.6445 53.1228 47.6812 52.0084C48.0457 51.6168 48.5365 51.2171 49.486 50.9518C50.4356 50.6865 51.7657 50.5907 53.0246 50.5328C57.9658 50.3144 62.9934 50.4693 67.7249 50.9857L67.7249 50.9857ZM40.4208 51.2779C39.9843 51.7234 39.6379 52.1778 39.3842 52.6383C39.2312 52.8785 39.1494 53.1228 39.0463 53.3659C39.0001 53.4874 38.9787 53.6101 38.9432 53.7323C38.9076 53.8544 38.8792 53.9765 38.872 54.0992C38.7157 55.1797 39.0671 56.2616 39.914 57.3068C38.5484 57.2011 37.7091 56.8931 36.7489 56.1925C35.6233 55.3702 35.7086 54.4247 35.9683 53.5254C36.1212 52.9995 36.3488 52.4467 37.2663 52.0201L37.4975 51.9108C38.2319 51.5631 38.7565 51.3165 40.4208 51.2802L40.4208 51.2779ZM38.3048 48.7067C37.6789 48.6535 37.0494 48.6062 36.4146 48.5711C35.6037 48.5267 34.7893 48.4899 33.9714 48.4718C33.1534 48.4537 32.3354 48.4455 31.5175 48.4496C31.1191 48.4519 30.7208 48.4597 30.3225 48.4729C30.5608 48.3122 30.7866 48.1492 30.9822 47.9821C31.16 47.8249 31.329 47.6642 31.473 47.5023C32.2295 47.4879 32.9885 47.4986 33.7384 47.5344C34.0265 47.5514 34.3732 47.5631 34.7733 47.5765C35.9665 47.6163 37.7696 47.6764 38.1625 47.9271C38.2835 48.0078 38.3297 48.3082 38.3048 48.7073L38.3048 48.7067ZM37.7393 44.2234C38.3919 44.4981 38.6089 44.8604 38.5324 45.2285C38.4959 45.4169 38.4067 45.6037 38.2657 45.7866L37.83 46.3675C37.6042 46.6737 37.3837 46.9811 37.2361 47.3025C37.2272 47.3217 37.2201 47.3416 37.2112 47.3609C36.4457 47.2991 35.666 47.2581 34.88 47.2382C34.5155 47.2259 34.1687 47.2148 33.9198 47.2002C33.2012 47.1635 32.4734 47.1502 31.7469 47.1605C31.9223 46.9043 32.0465 46.6447 32.1185 46.3832C32.2418 45.9198 32.1928 45.4532 31.9727 44.9936L32.5559 45.0521C33.1342 45.1003 33.7041 45.1588 34.263 45.2274L34.263 45.2274C33.9856 45.0281 33.397 44.8949 32.8315 44.8084C32.2661 44.7219 31.6561 44.6728 31.1351 44.5986C30.6263 44.5343 30.1637 44.436 29.7766 44.3099C29.4427 44.2044 29.2975 44.0498 29.3925 43.9008C29.53 43.7485 29.8315 43.6179 30.2407 43.5333C30.6802 43.4436 31.1851 43.3943 31.7024 43.3907C32.78 43.3732 33.9482 43.4795 35.0223 43.6098C36.0963 43.7401 37.0974 43.9441 37.7393 44.224L37.7393 44.2234ZM37.7791 43.4678L37.7791 44.4678L36.7791 43.5392C37.112 43.5075 37.446 43.5075 37.779 43.5382L37.7791 43.4678ZM32.2376 42.558L32.4154 42.558C33.8789 42.5911 35.3957 43.0011 36.1959 43.558C35.9434 43.51 35.6891 43.4656 35.433 43.4249C34.8367 43.3323 34.2223 43.2601 33.5961 43.209C33.1198 43.1688 32.6353 43.1464 32.1487 43.1421C32.1528 42.9472 32.1824 42.7524 32.2376 42.5587L32.2376 42.558ZM25.0271 45.2881C25.1 44.5723 25.7099 43.9529 26.7928 43.4976C27.8414 43.0802 29.2449 42.775 30.824 42.6211C30.7802 42.7765 30.7606 42.9325 30.7653 43.0886C30.7173 43.0927 30.671 43.095 30.6248 43.0997C30.2806 43.1336 29.9548 43.185 29.6592 43.2522C29.0367 43.3882 28.5959 43.5973 28.427 43.8366C28.3491 43.9634 28.3767 44.0949 28.507 44.217C28.6334 44.3329 28.8369 44.4381 29.1027 44.525C29.2799 44.5815 29.4728 44.6326 29.6788 44.6775C29.5686 44.7166 29.4619 44.7569 29.3481 44.7943C29.1151 44.8744 28.8662 44.9486 28.6137 45.024C28.3612 45.0994 28.098 45.1707 27.8242 45.2391C27.5364 45.3077 27.268 45.3848 27.0222 45.4693C27.3864 45.4604 27.7425 45.4297 28.0731 45.3787C28.739 45.2841 29.3687 45.1641 29.9491 45.0211C30.1798 44.9649 30.4001 44.9042 30.6088 44.8393C30.6764 44.8487 30.7439 44.8592 30.8115 44.868L30.8524 44.8727C31.232 45.6374 31.1181 46.4199 30.5181 47.1692C29.8639 47.1768 29.209 47.1641 28.5621 47.1312C27.3387 47.0617 26.4656 47.0833 25.8166 47.161C25.765 47.0769 25.7134 46.9904 25.6601 46.9033C25.3294 46.3505 24.9773 45.779 25.0271 45.2881L25.0271 45.2881ZM23.0853 49.8322C23.3484 49.4173 23.6187 48.9872 24.1878 48.6155C24.4049 48.4669 24.5932 48.3139 24.7514 48.1574C25.3222 47.6315 25.6654 47.313 28.3932 47.4684C28.9957 47.5003 29.6056 47.5146 30.2158 47.5111C30.1038 47.6209 29.9846 47.7296 29.8602 47.8372C28.7026 48.7938 26.7555 49.637 24.3709 50.3044C23.7976 50.4663 23.1942 50.6164 22.5643 50.7537C22.7172 50.4458 22.8915 50.1384 23.0853 49.8322L23.0853 49.8322ZM20.3344 58.0502C19.5645 57.8807 18.7341 57.7936 18.0228 57.6995C17.3347 57.6189 16.7028 57.4937 16.1646 57.3314C15.642 57.1655 15.2197 56.9686 14.9198 56.7511C14.3094 56.2961 14.0446 55.7991 14.1481 55.303C14.3454 54.2831 15.5639 53.3133 17.6138 52.5448C18.126 52.3553 18.6831 52.1794 19.28 52.0189C19.8698 51.8651 20.4829 51.7211 21.1168 51.5876C20.8519 52.1872 20.626 52.7844 20.4055 53.3723C20.3344 53.5622 20.2615 53.7527 20.1886 53.9426C19.4596 55.8348 20.1068 57.1567 21.2715 58.3055C20.9862 58.2102 20.6722 58.1247 20.3344 58.0502L20.3344 58.0502ZM31.3254 64.0756C31.2489 64.051 31.1689 64.0259 31.0836 64.0002C30.9626 63.8852 30.8611 63.7682 30.7795 63.6496C30.6904 63.513 30.631 63.3746 30.6017 63.2353C30.57 63.0938 30.5748 62.9516 30.6159 62.8104C30.655 62.6684 30.7102 62.5258 30.7315 62.3721C30.4523 62.4943 30.2487 62.6333 30.1322 62.7812C30.0092 62.9288 29.9235 63.0795 29.8762 63.2317C29.8356 63.3677 29.8314 63.5046 29.8637 63.6408C29.2111 63.4491 28.5514 63.2452 28.1549 63.0564C27.5076 62.7491 27.2462 62.4323 26.9422 62.063C26.7643 61.8532 26.5865 61.6364 26.3234 61.4038C25.7259 60.8837 25.0662 60.4028 24.426 59.9377C24.186 59.7623 23.9477 59.587 23.7148 59.4117C23.777 59.3276 23.8286 59.244 23.8677 59.1616L24.0188 58.8525C24.0685 58.7519 24.1337 58.6522 24.2144 58.5539L24.4758 58.2506C24.1749 58.3064 23.9283 58.389 23.7645 58.489C23.595 58.5843 23.447 58.6835 23.3218 58.7859C23.2489 58.8443 23.1866 58.8987 23.1244 58.9553C21.4991 57.6534 20.3433 56.2287 21.2111 53.9771C21.2834 53.7866 21.3557 53.5961 21.428 53.4056C21.6876 52.7231 21.9615 52.0265 22.2762 51.3305C23.3101 51.1209 24.2955 50.8865 25.2244 50.6293C27.2666 50.0583 28.9448 49.3602 30.1625 48.5752L31.4979 48.612C32.2963 48.6331 33.0983 48.6658 33.8807 48.709C34.6631 48.7523 35.4508 48.8025 36.2243 48.8662C36.9107 48.9215 37.5906 48.9839 38.2639 49.0532C38.1448 49.8953 37.7767 50.9752 37.1845 51.4702C36.9907 51.5502 36.8147 51.6338 36.6351 51.7191L36.411 51.8249C35.3441 52.3204 35.0863 52.9469 34.928 53.495C34.7502 54.1103 34.6542 54.7479 34.944 55.365C34.1139 55.344 33.279 55.3613 32.4634 55.4164C31.4311 55.4836 30.4241 55.5874 29.4601 55.7261C28.5052 55.8631 27.5909 56.0288 26.7288 56.2211C25.8806 56.4168 25.0715 56.6424 24.4972 56.9264C25.2724 56.7123 26.1057 56.522 26.9866 56.3578C27.8575 56.1938 28.7731 56.0568 29.7215 55.9488C30.6585 55.84 31.6257 55.7617 32.6093 55.715C33.4509 55.6732 34.3069 55.6732 35.1485 55.715C35.3062 55.9271 35.5241 56.1339 35.7993 56.3327C36.8218 57.0801 37.942 57.5692 40.2324 57.6727C40.8125 58.2973 41.5753 58.902 42.5102 59.4783C41.7403 59.7449 41.3234 60.1009 41.3508 60.4683L41.3224 60.4759L41.3224 60.4759C38.8578 60.9124 37.5882 61.8515 37.1845 62.9133C35.6535 63.7285 34.9671 64.7219 34.6417 65.7077C34.4243 65.5812 34.2387 65.4491 34.0869 65.3127C33.8306 65.0782 33.6709 64.8335 33.6122 64.5851C33.5497 64.3332 33.5952 64.0797 33.7473 63.8319C33.9065 63.5796 34.135 63.3326 34.4301 63.0938C33.8937 63.2974 33.497 63.5366 33.2672 63.7951C33.0266 64.0548 32.898 64.3242 32.8849 64.5956C32.8849 64.6572 32.8884 64.7186 32.8955 64.7797C32.4888 64.5192 31.9589 64.2815 31.3254 64.0756L31.3254 64.0756ZM82.3381 63.7326C81.2818 63.791 80.2274 63.843 79.1694 63.881L78.298 63.9114L77.4267 63.9347L76.5536 63.9546L75.6788 63.9663C74.5105 63.985 73.344 63.9721 72.1686 63.9663C70.9932 63.9605 69.8107 63.9464 68.5891 63.9558C69.6989 64.1197 70.8705 64.2341 72.0726 64.2959C73.2721 64.3573 74.4843 64.3882 75.6983 64.3882L76.6088 64.3829L77.5192 64.3701L78.4278 64.3438L79.3329 64.3087C80.5379 64.2548 81.7274 64.1684 82.8893 64.0504L82.8538 64.0031C83.0194 64.0877 83.0945 64.1881 83.0671 64.2883C83.015 64.5186 82.6499 64.729 82.0731 64.861C81.0436 65.0824 79.7028 65.083 78.1825 65.062C74.9035 65.017 71.5143 64.9697 68.2246 64.8142C60.1321 64.4314 52.4325 63.3919 44.9872 62.3862C43.867 62.2354 42.4746 62.0472 41.7474 61.6931C41.353 61.4884 41.2339 61.2393 41.4184 61.0047C41.4779 60.9344 41.5842 60.8693 41.7296 60.8142C42.9411 61.0869 44.1912 61.3388 45.4798 61.5698C46.7956 61.8035 48.1364 62.0215 49.5092 62.2155C50.8819 62.4095 52.2796 62.5837 53.6986 62.735C55.1176 62.8864 56.5561 63.0231 58.0711 63.0453C56.7251 62.818 55.3381 62.6637 53.9617 62.4919C52.5854 62.3201 51.2393 62.1267 49.9128 61.921C48.5863 61.7153 47.2758 61.4979 46.0008 61.2601C44.7881 61.0365 43.5967 60.8008 42.4266 60.553L42.4266 60.5431C42.329 60.2733 42.5676 60.002 43.0881 59.791C55.2643 61.9795 68.9185 63.1275 82.7968 63.1295L83.2076 63.1295C83.5135 63.4263 83.108 63.566 82.7044 63.6554L82.3381 63.7326ZM42.9388 70.506C43.2689 69.975 44.6949 69.5947 46.344 69.5978C46.5617 69.5979 46.779 69.6045 46.993 69.6177C47.9027 69.6715 48.7083 69.8434 49.2282 70.0946C49.7328 70.336 49.9212 70.6339 49.751 70.9214C49.5742 71.2191 49.0345 71.4801 48.2573 71.6437C48.3605 71.4328 48.4796 70.9133 47.3682 70.6643C47.071 70.5948 46.7453 70.5395 46.4009 70.5001C45.5633 70.4209 44.6609 70.4997 44.0537 70.7052C43.698 70.818 43.3566 70.922 43.0188 71.0196C42.8683 70.8529 42.8409 70.6768 42.9388 70.506L42.9388 70.506ZM47.8626 72.0838C49.358 71.9126 50.4656 71.4939 50.7735 70.9834C50.9969 70.6063 50.7502 70.2156 50.0888 69.8988C49.0613 69.4072 47.2402 69.1645 45.4609 69.282C43.6815 69.3996 42.2874 69.8548 41.9181 70.4388C41.7561 70.7117 41.8401 70.9942 42.1599 71.2516C40.5595 71.6718 39.1494 71.9242 37.9598 72.0627L40.5133 67.7156C40.9242 67.0603 42.8618 66.6352 44.861 66.7619L54.0791 67.3264L52.7455 69.7217L52.8735 69.7802C53.3856 70.0174 53.9315 70.2599 54.4596 70.4943C54.9415 70.7082 55.4376 70.929 55.9071 71.1447C55.699 71.5403 54.6624 73.5038 54.0667 74.5001L42.7574 73.8076C44.9001 73.4062 46.9664 72.7926 47.8626 72.0861L47.8626 72.0838ZM35.4152 66.9735C35.5362 65.9216 35.8438 64.7581 37.0369 63.7711C37.0528 64.2 37.1807 64.6275 37.4193 65.0492C37.9047 65.9047 39.2864 66.8694 39.8909 67.2639C39.7043 67.3863 39.5685 67.5164 39.4873 67.6507L38.5057 69.3226C37.3643 69.3866 36.2336 69.4699 35.1183 69.5721L35.4152 66.9735ZM40.8743 61.8813C41.1897 62.0309 41.5813 62.1616 42.0319 62.2675C39.971 63.4772 42.6951 65.398 44.0323 66.34L44.1159 66.3984C42.7524 66.4032 41.4594 66.5982 40.5595 66.9349C39.9069 66.489 38.8436 65.6931 38.4435 64.9854C37.6646 63.6157 38.0203 62.035 40.2821 61.1818C40.2559 61.4305 40.4639 61.6758 40.8778 61.8842L40.8743 61.8813ZM36.8342 72.1662C35.6535 72.2445 34.7733 72.1989 34.2487 72.1077C33.6833 72.0125 33.4166 71.8629 33.4966 71.687C33.6335 71.3889 34.8107 70.9857 37.6487 70.7794L36.8342 72.1662ZM56.958 71.1312L56.9953 71.0611L56.8709 71.0027C56.3587 70.7654 55.804 70.5229 55.2829 70.2886C54.8028 70.0747 54.3067 69.8544 53.8373 69.6388L55.0998 67.3884L71.5943 68.4011C72.5689 68.4595 73.4312 68.6442 73.9877 68.9136C74.5311 69.1721 74.7349 69.4916 74.5532 69.8L71.8663 74.3716C71.4555 75.0274 69.5152 75.4524 67.5151 75.3247L55.0802 74.565C55.7399 73.4547 56.9491 71.1581 56.9616 71.1336L56.958 71.1312ZM71.5534 68.0487L45.3251 66.4423C45.2308 66.3733 45.1153 66.2915 44.9694 66.1951C43.8119 65.377 41.1659 63.5122 42.9103 62.4499C43.4518 62.5425 44.0073 62.6259 44.5747 62.7C52.0786 63.7133 59.8404 64.761 68.061 65.1496C71.4058 65.308 74.8181 65.3553 78.1256 65.4009C78.4616 65.4056 78.8368 65.4109 79.212 65.4109L79.2814 65.4109C78.8635 66.3459 74.466 67.3691 72.286 67.8757C72.0086 67.9441 71.7579 68.0025 71.5569 68.051L71.5534 68.0487ZM29.6095 73.3384C27.9646 72.8662 27.2978 72.2719 27.7833 71.7074C28.5763 70.7835 32.3247 70.0554 38.1128 69.6931L37.6807 70.4306C34.1474 70.6643 32.6679 71.2031 32.467 71.6391C32.3194 71.9622 32.8084 72.2521 33.774 72.4151C35.7104 72.7418 39.7505 72.553 44.7685 70.9478C45.1004 70.8307 45.6009 70.7829 46.0719 70.8233C46.322 70.8527 46.5585 70.8934 46.7743 70.9442C47.4714 71.0997 47.258 71.535 47.2082 71.6209C46.6836 72.5226 43.5967 73.3419 40.9507 73.7212C36.0305 74.4294 31.7628 73.9584 29.613 73.3407L29.6095 73.3384ZM48.7339 75.6829C48.8121 75.538 49.1946 75.4322 49.6425 75.4316C49.6962 75.4317 49.7497 75.4333 49.8026 75.4363L57.1518 75.857C57.6535 75.8858 57.9893 76.0427 57.9022 76.2076L57.2798 77.384C57.1913 77.5486 56.7145 77.6589 56.2129 77.6306L48.8655 77.2098C48.6242 77.1961 48.4094 77.1515 48.2683 77.0857C48.1273 77.02 48.0715 76.9385 48.1133 76.8592L48.7339 75.6829ZM47.0748 76.83C44.6049 76.6547 42.1635 76.4303 39.866 76.1066C38.5982 75.9248 37.3659 75.7109 36.3435 75.4281C35.8406 75.2934 35.4133 75.1308 35.0809 74.9477C34.7799 74.7787 34.6335 74.5848 34.6595 74.3891C35.1145 74.4068 35.5723 74.4157 36.0305 74.416C36.8401 74.4151 37.6475 74.3887 38.4417 74.3371C40.4404 74.9028 44.0412 75.2171 46.4756 75.4298L46.8045 75.4585L47.779 75.542C47.7494 75.5689 47.7263 75.5964 47.7096 75.6244L47.0855 76.8002C47.0837 76.8125 47.0819 76.8224 47.0784 76.8323L47.0748 76.83ZM44.7525 94.7596C45.286 93.8 46.4222 93.2987 48.6556 93.0392C49.0578 93.0691 49.4685 93.0848 49.8808 93.086C50.5565 93.086 51.186 93.0421 52.0555 92.9819L55.2136 92.7628C55.5472 92.7647 55.88 92.7745 56.2094 92.792C56.5471 92.8102 56.8796 92.8375 57.2034 92.8738C57.5349 92.9099 57.8562 92.9555 58.1636 93.01C58.4748 93.0649 58.7807 93.1269 59.1363 93.1789C58.9812 93.0622 58.7456 92.9589 58.4481 92.8773C58.1587 92.7927 57.8428 92.7185 57.5057 92.6559C57.415 92.6383 57.3172 92.6243 57.223 92.6085C57.8965 92.549 58.5455 92.4629 59.1559 92.352C59.9276 92.2065 60.8291 92.0364 61.3679 91.7846C61.3673 91.7859 61.3673 91.7873 61.3679 91.7887C61.4764 91.8471 61.592 91.9055 61.7076 91.9593C61.9759 92.0825 62.2081 92.2138 62.4011 92.3514C62.57 92.4852 63.0305 92.5507 63.468 92.6144C63.5747 92.6296 63.7187 92.6506 63.8378 92.6728C60.4593 94.4317 52.5943 96.7394 46.5272 96.5337C45.0839 96.0752 44.4213 95.4124 44.7561 94.7619L44.7525 94.7596ZM52.6174 96.8049L52.4538 96.8265C50.7646 97.0503 49.0113 97.2794 47.2615 97.2554C47.1743 97.2575 47.0872 97.2505 47.0126 97.2355C46.9397 97.2075 46.9681 97.0877 46.9859 97.0164C46.9966 96.9737 47.0073 96.9282 47.009 96.8826C47.1104 96.8826 47.2118 96.8826 47.3149 96.8826C53.4728 96.8826 60.7224 94.8069 64.3304 93.0509C64.4246 93.1491 64.5295 93.2443 64.638 93.3384C62.7336 94.8426 58.6935 96.0066 52.621 96.8095L52.6174 96.8049ZM83.6006 98.9489C82.888 99.146 82.0671 99.2963 81.1823 99.3919C78.0118 99.7635 75.2591 99.7349 72.7892 99.3048C73.803 99.4071 74.8583 99.4581 75.9188 99.4561C77.3576 99.4511 78.7859 99.3753 80.1562 99.2312C82.2141 99.008 84.0418 98.6006 85.4339 98.0548C85.0644 98.4003 84.435 98.7095 83.6042 98.9536L83.6006 98.9489ZM86.4617 95.5771C86.2465 96.0674 86.026 96.5705 85.8767 97.0766C85.1654 97.9327 82.2456 98.6544 79.8433 98.9045C77.2631 99.1704 74.7239 99.1803 72.695 98.9326C71.7312 98.8157 70.2322 98.3704 69.9583 98.0607L69.9583 98.0607C69.2186 97.3846 68.9412 96.4875 70.3389 95.5894C71.2085 95.659 72.1026 95.6901 72.9973 95.6817C73.2818 95.6817 73.5681 95.6817 73.8508 95.6817L74.4002 95.6817C76.2284 95.6721 78.036 95.5533 79.7348 95.3311C80.0672 95.3289 80.3997 95.3332 80.7306 95.3439C81.09 95.3567 81.4441 95.3822 81.7868 95.4199C82.1388 95.4592 82.4773 95.5105 82.7969 95.573C83.1305 95.6424 83.4761 95.7054 83.8318 95.7618C83.6476 95.6414 83.3967 95.5334 83.092 95.4433C82.7876 95.3496 82.4496 95.2683 82.0856 95.2013C81.841 95.1568 81.5845 95.1199 81.3192 95.0909C82.7717 94.844 84.0727 94.511 85.1565 94.1086C85.834 93.8543 86.3986 93.5699 86.8333 93.2636C87.2903 93.6995 86.8725 94.6526 86.4653 95.5818L86.4617 95.5771ZM78.5292 80.0726C78.5168 80.8095 78.2571 81.3518 77.9833 81.9263C77.5107 82.8168 77.2869 83.7197 77.3147 84.6237L77.3023 84.6202C77.0614 84.7198 76.9132 84.8401 76.8755 84.9667C76.8464 85.0774 76.8673 85.1889 76.9377 85.2975C76.9946 85.3962 77.0782 85.4915 77.1031 85.5634C77.1173 85.5975 77.1107 85.6323 77.0835 85.6656L77.016 85.8047C76.9458 85.9845 76.7998 86.1601 76.5821 86.3266C76.3413 86.4923 76.0056 86.6413 75.5934 86.7654C76.1944 86.7286 76.7066 86.5819 77.0426 86.4148C77.2368 86.3184 77.3995 86.2156 77.5281 86.108C77.5583 86.1577 77.5868 86.2068 77.6134 86.2559C77.7061 86.3973 77.7656 86.5409 77.7913 86.6854C77.8012 86.8278 77.7515 86.9699 77.6437 87.1079C77.5211 87.252 77.3702 87.3933 77.192 87.5309C77.6083 87.4432 77.9338 87.3161 78.1255 87.1663C78.2301 87.0929 78.3186 87.0171 78.3905 86.9396C78.4678 86.8606 78.5226 86.7794 78.5541 86.6971C78.5717 86.6329 78.5788 86.5686 78.5754 86.5042C78.8848 86.69 79.2263 86.8782 79.5641 87.064C80.3447 87.4935 81.1503 87.9406 81.3814 88.2731C81.6873 88.7213 82.379 89.159 83.0476 89.5821C83.3161 89.7533 83.5704 89.9146 83.798 90.0735C84.0695 90.2567 84.396 90.4305 84.7724 90.5925C85.0543 90.7159 85.3109 90.8453 85.5406 90.9799C87.1854 91.9815 86.7853 92.9597 84.3492 93.8883C82.0607 94.7596 78.1487 95.3299 74.3789 95.341L73.8241 95.341C71.9179 95.351 70.1166 95.3603 68.9092 94.9355C68.4489 94.7739 68.0167 94.604 67.6147 94.4265C67.9689 94.4776 68.3316 94.5221 68.7011 94.5597C70.7439 94.7712 72.9339 94.774 74.9817 94.5679C75.9852 94.4693 76.925 94.3108 77.7539 94.1004C76.8187 94.2325 75.8492 94.3367 74.8573 94.4119C73.881 94.4835 72.8779 94.5071 71.8806 94.482C70.8933 94.4573 69.9214 94.3875 68.9928 94.2746C68.1059 94.166 67.2618 94.023 66.4784 93.8485C65.9742 93.5448 65.5666 93.2249 65.2621 92.8937C65.4737 92.903 65.6871 92.9112 65.9041 92.9153C66.4384 92.9296 66.9762 92.9146 67.4956 92.8709C67.9913 92.8192 68.4642 92.7463 68.9021 92.6541C69.3289 92.5717 69.7147 92.4858 70.1646 92.4075C69.6489 92.3941 69.1422 92.4513 68.6869 92.5086C68.2606 92.5708 67.8109 92.614 67.3497 92.6371C66.9022 92.6515 66.4506 92.6447 66.009 92.6167C65.6534 92.5957 65.2977 92.5664 64.9261 92.5361C64.7287 92.4227 64.3055 92.3607 63.8929 92.3023C63.7061 92.2782 63.5273 92.2479 63.3595 92.2117C63.1428 92.0572 62.8827 91.9097 62.5824 91.7711L62.5469 91.7536C62.6624 91.7536 62.778 91.7536 62.89 91.7495C63.4049 91.7364 63.9164 91.7118 64.4211 91.6759C64.9172 91.642 65.4062 91.6034 65.8916 91.5672C66.3771 91.5309 66.8465 91.4848 67.3444 91.4433C66.8472 91.4012 66.331 91.3889 65.8205 91.4071C65.319 91.4182 64.8212 91.4316 64.3286 91.4398C63.836 91.448 63.3452 91.4573 62.8776 91.4485C62.6561 91.4459 62.4356 91.4377 62.2179 91.424C62.093 91.4173 61.9726 91.4035 61.8622 91.3831C60.9643 90.8174 60.3188 90.0572 59.9685 89.1561C60.333 89.1742 60.6993 89.1894 61.0656 89.1993C61.6993 89.2181 62.3356 89.2261 62.9718 89.2233C63.6061 89.2206 64.2385 89.2089 64.8692 89.1882C65.5016 89.1704 66.1251 89.1272 66.7256 89.0597C66.089 89.038 65.4702 89.0334 64.8514 89.0269C64.2326 89.0205 63.6173 89.0076 63.0056 88.9854C62.3939 88.9632 61.7858 88.9375 61.1848 88.9013C60.7331 88.8744 60.285 88.8429 59.8387 88.8101L59.7462 88.7739C57.1129 87.743 55.6781 86.4384 55.6973 85.0924L55.6973 85.0515C55.6973 84.8867 55.7115 84.7009 55.4928 84.5255C55.3146 84.3969 55.0744 84.2785 54.7815 84.1749C54.689 84.1387 54.6037 84.1031 54.5094 84.0657C53.6203 83.6805 53.4763 83.1891 53.4105 82.6661C53.4105 82.6661 53.4105 82.6661 53.4105 82.6661L53.4105 82.6661C53.4105 82.6077 53.3963 82.5457 53.3892 82.4844C53.3447 82.0753 53.2967 81.6604 52.9411 81.2665C53.0476 81.2491 53.151 81.2296 53.2505 81.2081C53.6242 81.1267 53.9806 81.0371 54.3174 80.9399C54.9864 80.7572 55.6112 80.5577 56.1863 80.3432C55.3777 80.4488 54.5953 80.5748 53.8462 80.7201C53.471 80.7891 53.1011 80.8715 52.7793 80.9264C52.4574 80.9814 52.1409 81.0082 51.9044 80.9895C51.6679 80.9708 51.3709 80.9042 51.0491 80.8142C50.7272 80.7242 50.3858 80.6354 50.0426 80.5495C49.6994 80.4636 49.3314 80.3836 49.0042 80.3017C48.6556 80.2229 48.3466 80.1267 48.0884 80.0166C48.1669 80.164 48.3577 80.3026 48.6432 80.4192C48.9188 80.5361 49.2015 80.6424 49.4914 80.7476C49.7812 80.8528 50.08 80.9539 50.3805 81.0538C50.681 81.1537 51.074 81.2765 51.6786 81.3238C51.7624 81.3293 51.8474 81.3329 51.9328 81.3343C52.2725 81.6955 52.3169 82.1004 52.3596 82.4937C52.3596 82.5358 52.3685 82.5779 52.3738 82.6199C52.2827 82.7199 52.1692 82.8176 52.0342 82.9121C51.8659 83.027 51.6659 83.1365 51.4367 83.2394C51.2017 83.3436 50.9412 83.4413 50.6579 83.5315C50.3698 83.6245 50.0693 83.7139 49.7777 83.8202C50.2017 83.7929 50.6049 83.738 50.9637 83.6589C51.3302 83.582 51.6721 83.4931 51.9844 83.3936C52.1702 83.3346 52.3431 83.2713 52.5019 83.2043C52.6459 83.5841 52.9535 83.9511 53.6915 84.2696C53.7893 84.3117 53.8924 84.352 53.9973 84.3929C54.2135 84.4693 54.3933 84.556 54.5308 84.65C54.6695 84.7634 54.6641 84.9007 54.6588 85.0456L54.6588 85.0877C54.6447 85.7077 54.9279 86.3246 55.4981 86.9156C55.4412 86.9635 55.3861 87.0115 55.3203 87.0594C55.2261 87.1263 55.1198 87.1912 55.002 87.254C54.8814 87.3187 54.749 87.3809 54.6055 87.4404C54.443 87.5033 54.3017 87.5719 54.184 87.6449C54.4501 87.6394 54.707 87.6109 54.9291 87.5625C55.1515 87.5178 55.361 87.4666 55.555 87.4094C55.6821 87.3734 55.801 87.3343 55.9106 87.2925C56.6152 87.8931 57.6095 88.4525 58.8553 88.9492C59.0231 89.517 59.353 90.0783 59.8404 90.6257C59.5808 90.7084 59.3429 90.7982 59.1292 90.894C58.9104 90.9886 58.6864 91.0775 58.4606 91.1657C58.2343 91.2531 57.9882 91.3348 57.7244 91.41C57.4577 91.4848 57.1909 91.5555 56.894 91.6437C57.2809 91.6427 57.6607 91.6095 57.9982 91.5473C58.3373 91.4893 58.6588 91.4208 58.9585 91.3428C59.2536 91.2665 59.5367 91.1854 59.8067 91.0997C59.94 91.0588 60.0734 91.0155 60.1996 90.9764C60.3774 91.1312 60.5641 91.2767 60.7686 91.4146C60.5535 91.6951 59.5417 91.8857 58.6206 92.0574C57.6355 92.2433 56.4654 92.3245 55.3363 92.4028L51.8475 92.6447C50.3574 92.7488 49.7403 92.7914 48.3 92.6553C46.6338 92.4975 45.8212 92.2655 45.3393 91.954C45.7748 92.0197 46.227 92.0727 46.6907 92.1124C47.5298 92.1833 48.394 92.2169 49.2602 92.2123C50.111 92.2062 50.9577 92.1716 51.787 92.1089C52.6096 92.0489 53.4034 91.9524 54.1467 91.822C53.3163 91.8658 52.5107 91.916 51.6999 91.9493C50.8979 91.9849 50.0869 91.9931 49.2798 91.9739C48.4876 91.9552 47.7053 91.9047 46.9503 91.8237C46.2107 91.7441 45.5113 91.6287 44.8752 91.4813L44.8467 91.4947C44.8023 91.4363 44.7614 91.3778 44.7205 91.3194C44.187 90.5445 42.3395 89.7808 41.2335 89.3244C40.997 89.2262 40.7551 89.1263 40.6075 89.0579C40.9943 89.1014 41.3944 89.1308 41.8007 89.1455C42.3128 89.166 42.8089 89.1736 43.3033 89.1841C43.8052 89.1968 44.3098 89.1929 44.8094 89.1724C43.8759 89.0351 42.8658 89.0006 41.943 88.9124C41.4982 88.874 41.0694 88.8179 40.6662 88.7453C40.3031 88.6792 39.9914 88.5864 39.7558 88.4741L39.7451 88.4741C39.1477 88.0703 38.5502 87.6975 38.0043 87.3586C36.6493 86.5159 35.4775 85.7878 35.1254 85.0649C34.912 84.6261 35.0258 83.7501 35.1076 83.1108C35.1396 82.8683 35.1663 82.6585 35.1752 82.4937C35.1947 82.1355 35.0916 81.6826 34.9974 81.2443C34.9138 80.8744 34.8195 80.4917 34.8195 80.1854L34.8089 79.8033C34.7822 78.7058 34.7502 77.4617 34.976 77.2905C35.1343 77.1736 35.0258 76.9983 34.7413 76.5828C34.4568 76.1673 34.0585 75.5806 34.0869 75.0477C34.1207 75.0687 34.1527 75.0903 34.1883 75.1108C34.5516 75.3137 35.0163 75.495 35.5628 75.6472C35.6587 75.8031 35.8127 75.9544 36.0216 76.0978C36.2581 76.258 36.5518 76.4085 36.8965 76.546C37.2304 76.6783 37.5866 76.8043 37.9634 76.9235C38.3327 77.0435 38.7385 77.1508 39.1743 77.2437C38.9331 77.0934 38.6516 76.9505 38.3332 76.8166C38.0282 76.6855 37.7457 76.5489 37.4868 76.4075C37.2361 76.2721 37.0271 76.1288 36.8627 75.9797L36.8485 75.9628C37.6813 76.1359 38.5555 76.2866 39.4624 76.4133C41.9856 76.7686 44.6191 76.9977 47.2669 77.1859C47.54 77.3723 48.0694 77.5041 48.6894 77.54L56.0369 77.9607C56.1502 77.9672 56.265 77.9705 56.3801 77.9707C57.0405 77.9703 57.6558 77.8604 58.016 77.6785C60.2352 77.7358 62.4585 77.7687 64.686 77.7773C67.5405 77.7906 70.395 77.7504 73.2356 77.6569L74.3024 77.6154L74.8359 77.592C74.9355 77.5867 74.987 77.5862 75.1382 77.5762C75.2607 77.5669 75.3799 77.5534 75.4938 77.5359C75.7911 77.487 76.0625 77.4227 76.2976 77.3454C76.2976 77.3664 76.2976 77.3875 76.2976 77.4085C76.2849 77.5366 76.2499 77.6645 76.1927 77.7913C76.1362 77.9188 76.0494 78.0446 75.933 78.1676C75.8157 78.2915 75.6823 78.4142 75.5774 78.5509C75.915 78.4651 76.1927 78.3565 76.3918 78.2325C76.5993 78.11 76.772 77.9815 76.9075 77.8485C77.0002 77.7562 77.0762 77.6622 77.1351 77.5669C78.5523 78.7228 78.547 79.3825 78.5292 80.0726L78.5292 80.0726ZM76.2869 76.8066C76.1297 76.8962 75.9431 76.9799 75.7303 77.0561C75.5342 77.1277 75.3035 77.1881 75.0475 77.235C74.9316 77.2514 74.8074 77.2608 74.6812 77.2624L74.1602 77.2858L73.1164 77.3261C70.3159 77.418 67.5018 77.457 64.6877 77.443C62.5753 77.434 60.4622 77.404 58.3485 77.353L58.9247 76.2678C58.9247 76.2643 58.9247 76.2614 58.9247 76.2579C61.1135 76.3464 63.3165 76.3919 65.5218 76.3941C69.6417 76.3996 73.7425 76.2095 77.697 75.8295C77.3088 76.1669 76.8397 76.4937 76.294 76.8066L76.2869 76.8066ZM84.6106 83.9032C83.7215 83.5882 83.245 82.894 83.5437 82.4925C83.8314 82.5061 84.1239 82.5041 84.4097 82.4867C84.4737 82.4867 84.5502 82.4802 84.6284 82.4779C84.5172 83.0199 84.8397 83.5621 85.5637 84.0504C85.329 84.0604 84.9929 84.0388 84.6106 83.9032L84.6106 83.9032ZM97.2927 83.1499C97.2215 83.5204 96.7041 83.9558 95.7101 84.0931C95.58 84.11 95.447 84.1245 95.3118 84.1363L95.2637 84.141C95.3319 84.0905 95.3861 84.0381 95.4255 83.9844C95.4706 83.9263 95.4587 83.8649 95.3918 83.8091C95.2935 83.8522 95.2027 83.8971 95.1197 83.9435C95.0396 83.9852 94.9479 84.0243 94.8458 84.0604L94.5276 84.1772C94.444 84.2065 94.364 84.2398 94.284 84.2737C93.8214 84.3402 93.3869 84.426 92.9912 84.529C92.3564 84.6886 91.0156 84.7324 90.2884 84.664C90.0817 84.6443 89.8714 84.6289 89.6589 84.6179C89.5607 84.5999 89.4662 84.5798 89.3762 84.5577C89.2675 84.5275 89.1702 84.4932 89.0863 84.4554C88.9965 84.416 88.9247 84.3725 88.8729 84.3263C88.8178 84.2789 88.7662 84.2298 88.6844 84.1737C88.5832 84.2259 88.5364 84.2874 88.5511 84.3491C88.5585 84.4104 88.5932 84.471 88.6542 84.529C88.6773 84.5491 88.7047 84.5686 88.736 84.5875C88.5938 84.5816 88.439 84.5735 88.2577 84.5612L88.0638 84.5483C87.8647 84.5388 87.67 84.5211 87.4842 84.4957C87.1601 84.4316 86.8894 84.342 86.6964 84.2351C85.6939 83.7305 85.2125 83.1332 85.3237 82.5317C85.8377 82.6107 86.3993 82.6506 86.9667 82.6485C87.6456 82.645 88.3173 82.6023 88.9512 82.5223C89.5584 82.4457 90.1521 82.3579 90.7293 82.2594C91.2411 82.1713 91.7664 82.0919 92.303 82.0215C92.6996 81.9719 93.1032 81.9333 93.5282 81.8918C94.1348 81.8386 94.7291 81.7712 95.3064 81.6902C95.6773 81.6349 96.0296 81.5669 96.3573 81.4874L96.7005 81.8965C97.0064 82.2851 97.378 82.7233 97.2927 83.1499L97.2927 83.1499ZM90.9481 66.8712C91.5207 67.58 91.7785 68.3385 92.0257 69.0731C92.2302 69.6732 92.44 70.2944 92.8223 70.8934C93.0942 71.2821 93.432 71.6654 93.8341 72.0417C94.2644 72.47 94.7054 72.9124 94.9277 73.3437C94.3264 73.5323 93.6917 73.7091 93.0268 73.8731C92.2204 74.071 91.3685 74.248 90.4786 74.4025C89.5851 74.5582 88.6515 74.6877 87.6887 74.7894C86.7249 74.8952 85.7327 74.9723 84.7244 75.0494C85.7661 75.0624 86.8082 75.0274 87.8203 74.9454C89.8658 74.784 91.8076 74.5042 93.5549 74.1191C94.0859 74.0026 94.597 73.8766 95.0859 73.7416C95.1944 74.0993 95.2264 74.4645 95.2637 74.8204C95.2797 75.0068 95.2957 75.1938 95.3224 75.3796C95.4362 76.1755 95.7403 76.9726 96.0533 77.7486C95.9076 77.8444 95.7412 77.9366 95.5554 78.0245C95.3046 78.1349 94.8263 78.2033 94.5027 78.3336C94.7483 78.3218 94.9877 78.2988 95.214 78.2652C95.4572 78.2332 95.6854 78.1899 95.8914 78.1367C95.9933 78.1089 96.0874 78.0782 96.1724 78.0449C96.2827 78.3073 96.4338 78.5562 96.5814 78.797C96.7148 79.015 96.8552 79.2411 96.9601 79.4749C97.1717 79.9424 97.3158 80.3584 96.9086 80.7096C96.4907 81.0713 95.5607 81.273 94.8548 81.3787C94.3246 81.4528 93.7791 81.5145 93.2224 81.5634C92.7956 81.6049 92.3564 81.6475 91.9208 81.7013C91.3446 81.7732 90.7898 81.8649 90.251 81.9532C89.7117 82.0459 89.1572 82.1288 88.5902 82.2015C87.7527 82.302 86.5453 82.3809 85.5566 82.1869C85.1565 82.1086 84.6889 82.1285 84.2763 82.1478C84.0921 82.1602 83.903 82.163 83.7162 82.1559C83.4477 82.125 83.2059 81.9806 83.0049 81.7235C82.9107 81.6066 82.8271 81.4898 82.7506 81.3729C82.7969 81.3816 82.8431 81.3922 82.8911 81.4003C83.1265 81.4377 83.3733 81.4667 83.6273 81.4868C83.868 81.5053 84.1121 81.5186 84.3581 81.5266C84.5999 81.5336 84.8187 81.5388 85.0907 81.5394C85.5677 81.5332 86.043 81.5166 86.5133 81.4898C87.4273 81.4415 88.3318 81.3844 89.2268 81.3185C90.1159 81.2525 91.005 81.1748 91.8941 81.0912C90.973 81.1058 90.0608 81.1444 89.1521 81.1812C88.2435 81.218 87.3383 81.263 86.435 81.2893C85.9951 81.3047 85.5526 81.3109 85.1103 81.308C84.8977 81.3022 84.6867 81.2913 84.479 81.2753C84.2714 81.2628 84.066 81.2466 83.8638 81.2268C83.6784 81.2052 83.4998 81.1778 83.3303 81.145C83.1757 81.1116 83.0336 81.0724 82.9071 81.0281C82.6701 80.9361 82.4955 80.8285 82.395 80.7125C82.2192 80.2974 82.1342 79.8787 82.1407 79.4596L82.1407 79.3749C82.1593 79.1945 82.1319 79.0139 82.0589 78.835L82.7471 78.8484C83.1869 78.8574 83.6279 78.8587 84.0683 78.8525C84.5162 78.8468 84.961 78.8253 85.3948 78.7882C85.8359 78.753 86.2336 78.6743 86.5346 78.5627C85.7643 78.6781 84.9138 78.7235 84.0718 78.6941C83.6504 78.6836 83.229 78.669 82.8022 78.6485C82.507 78.6351 82.2065 78.6223 81.9042 78.6106C81.8028 78.5042 81.6801 78.4037 81.5575 78.3055L81.4525 78.2214C80.3127 77.2864 79.2174 76.1948 79.6406 75.1616C80.3704 74.4618 80.9223 73.7433 81.2907 73.0135C81.8312 72.8926 82.3333 72.7542 82.7897 72.6003C83.1016 72.4935 83.3949 72.3809 83.6682 72.2632C83.9429 72.1459 84.1711 72.0177 84.3474 71.8816C84.0185 71.9838 83.7286 72.0914 83.4192 72.193C82.8132 72.3982 82.1399 72.5806 81.4117 72.7371C81.4686 72.598 81.5219 72.4583 81.5628 72.3181C82.0639 72.0096 82.5041 71.6909 82.8804 71.3638C83.1175 71.1562 83.3315 70.9468 83.5224 70.7356C83.7167 70.5243 83.8583 70.3082 83.9456 70.0893C83.6788 70.2927 83.4566 70.4984 83.2112 70.7011C82.9658 70.9039 82.7151 71.1049 82.4359 71.3025C82.1988 71.4723 81.9439 71.6402 81.6713 71.8062C81.6819 71.725 81.6944 71.6437 81.6962 71.5619C81.7148 71.0875 81.5176 70.6148 81.1112 70.1595C80.9831 70.6316 80.8835 71.0892 80.743 71.5461C80.6026 72.0031 80.4336 72.4583 80.1829 72.91C79.7161 73.7669 79.0437 74.6102 78.1718 75.4322C72.2077 76.044 66.0659 76.2065 58.8144 75.9108C58.5571 75.7077 58.0016 75.562 57.3421 75.5245L49.9946 75.1038C49.4813 75.0737 48.9528 75.1127 48.5276 75.2119C48.4832 75.2218 48.4476 75.2347 48.4067 75.2452C47.9704 75.2089 47.53 75.1713 47.0855 75.1324L46.7548 75.1038C44.6565 74.9203 41.6531 74.6573 39.7505 74.2354C40.243 74.1866 40.7274 74.1292 41.2015 74.0636L67.3409 75.6636C69.9036 75.823 72.3808 75.2763 72.9012 74.4364L75.5881 69.8649C75.6183 69.8129 75.6396 69.7609 75.6539 69.7089C78.5257 69.4167 81.6446 68.2181 83.0849 67.5263C84.0736 67.0512 86.9703 65.5564 86.8938 64.4145C89.0863 65.0176 90.0465 65.758 90.9481 66.8712L90.9481 66.8712ZM85.722 64.1352C86.339 64.9486 84.335 66.3114 82.2101 67.3329C80.9831 67.9231 78.1327 69.0439 75.5987 69.3536C75.4947 69.1269 75.2371 68.9108 74.8448 68.7213C74.3445 68.4795 73.6459 68.2893 72.8301 68.1726L72.8977 68.1568C75.2431 67.6116 80.0104 66.5042 80.343 65.3939C81.1574 65.3722 81.9446 65.2875 82.6404 65.1467C83.4928 64.9552 84.0319 64.6461 84.1038 64.3076C84.1449 64.1344 84.0118 63.9615 83.7251 63.8155C83.7571 63.805 83.782 63.7927 83.8104 63.7816C84.4686 63.8868 85.1069 64.0049 85.722 64.1352L85.722 64.1352ZM83.3605 62.7859L82.7844 62.7859C69.1579 62.7833 55.7492 61.6621 43.7763 59.5239C41.0428 57.8716 39.7801 55.9998 40.1328 54.1226C40.1452 54.0058 40.1772 53.8889 40.2164 53.772C40.2555 53.6551 40.2786 53.5383 40.3284 53.4214C40.4369 53.1876 40.524 52.9539 40.684 52.7236C40.9595 52.261 41.3296 51.8049 41.7918 51.3586C42.2512 50.9125 42.7989 50.4768 43.4313 50.0542C44.0748 49.6338 44.7981 49.227 45.5971 48.8364C48.5184 47.4196 52.5149 46.2781 57.1909 45.5248C57.3794 45.6627 57.5572 45.803 57.7155 45.9461C57.9559 46.1688 58.1543 46.3962 58.3094 46.6269C58.4693 46.8596 58.5792 47.0957 58.6384 47.3334L58.7931 48.0569C59.0056 47.8203 59.1193 47.5754 59.131 47.3288C59.1484 47.0814 59.1134 46.834 59.026 46.5884C58.9377 46.341 58.792 46.0962 58.5904 45.8561C58.4574 45.6966 58.2978 45.5395 58.112 45.3857C58.2899 45.3594 58.4677 45.3326 58.6455 45.308C59.179 45.2355 59.7124 45.1695 60.2601 45.1076C61.2679 45.8749 61.8114 46.6994 61.8605 47.535C61.9032 48.3411 61.604 49.1451 60.9713 49.924C56.6468 49.7808 52.2582 49.8263 48.0439 50.1694C47.6632 50.2004 47.3503 50.2892 47.2011 50.4084C43.8225 53.1029 43.3389 56.224 46.2729 58.9723C46.3569 59.0517 46.5134 59.1207 46.721 59.1698C56.0316 61.377 69.6116 62.4055 79.9002 61.8678C80.1784 61.8529 80.4329 61.8074 80.6221 61.7387C87.2352 59.3591 91.983 56.688 92.2782 53.5575C92.291 53.4164 92.0777 53.2833 91.7162 53.2069C88.295 52.4846 84.1821 51.8909 80.1011 51.4182C80.1678 51.0597 80.3678 50.7053 80.6968 50.3628C81.1337 49.9096 81.7261 49.4741 82.4626 49.0649C83.2029 48.6509 84.0558 48.2597 85.0107 47.8962C85.7984 47.5954 86.6518 47.314 87.5642 47.0541C88.281 47.2772 88.9556 47.5145 89.5842 47.7647C90.4989 48.1237 91.331 48.5046 92.0737 48.9042C92.8026 49.3054 93.4461 49.7226 93.9994 50.153C94.5443 50.5858 95.0023 51.0299 95.3704 51.4824C95.7205 51.9363 95.9877 52.3966 96.1706 52.861C96.3309 53.3265 96.4016 53.795 96.3822 54.2634C96.289 55.6758 95.3349 57.0678 93.5763 58.3569C92.4093 59.2209 90.9471 60.0384 89.2179 60.7938C87.5433 61.5403 85.5735 62.2103 83.3605 62.7859L83.3605 62.7859ZM82.9107 54.9554C81.4152 54.5025 80.9653 53.8632 81.9078 53.5277C82.8502 53.1923 84.824 53.287 86.3195 53.7399C87.8149 54.1928 88.2648 54.8321 87.3223 55.1675C86.3799 55.5029 84.4061 55.4082 82.9107 54.9553L82.9107 54.9554ZM85.8198 56.9223C85.4443 57.0711 84.8599 57.1228 84.3391 57.0532C83.8184 56.9836 83.4639 56.8065 83.441 56.6044C83.4181 56.4023 83.7313 56.2151 84.2345 56.1301C84.7378 56.0451 85.3319 56.079 85.7398 56.216C86.2963 56.403 86.3321 56.7191 85.8198 56.9223L85.8198 56.9223Z" id="Shape" fill="#FFFFFF" fill-rule="evenodd" stroke="none" />
          <path d="M37.2183 53.1597C37.0636 53.4316 37.2734 53.6943 37.6895 53.7454C38.1056 53.7964 38.568 53.6207 38.7244 53.3488C38.8809 53.0769 38.6693 52.815 38.2532 52.7632C37.8371 52.7113 37.373 52.8887 37.2183 53.1597L37.2183 53.1597Z" id="Shape" fill="#FFFFFF" fill-rule="evenodd" stroke="none" />
          <path d="M37.798 55.2109C37.3695 55.2249 37.0565 55.4577 37.0974 55.7357C37.1383 56.0138 37.5224 56.2236 37.9527 56.2096C38.383 56.1956 38.696 55.9628 38.6533 55.6847C38.6106 55.4067 38.2283 55.1969 37.798 55.2109L37.798 55.2109Z" id="Shape" fill="#FFFFFF" fill-rule="evenodd" stroke="none" />
          <path d="M96.9352 58.7197C97.3513 58.7725 97.8137 58.595 97.9701 58.3238C98.1266 58.0526 97.9132 57.7889 97.4971 57.7378C97.0811 57.6868 96.6187 57.8626 96.464 58.1346C96.3093 58.4067 96.5191 58.667 96.9352 58.7197L96.9352 58.7197Z" id="Shape" fill="#FFFFFF" fill-rule="evenodd" stroke="none" />
          <path d="M94.147 59.9455C93.7914 59.8233 93.2295 59.9259 92.8934 60.1739C92.5573 60.4219 92.5733 60.7216 92.929 60.843C93.2846 60.9643 93.8465 60.8617 94.1737 60.6137C94.5009 60.3657 94.5027 60.0668 94.147 59.9455L94.147 59.9455Z" id="Shape" fill="#FFFFFF" fill-rule="evenodd" stroke="none" />
          <path d="M68.7492 71.1003C68.9644 71.1135 69.1828 71.1201 69.4018 71.1201C71.0712 71.1208 72.51 70.7341 72.839 70.1962C73.0138 69.9023 72.8216 69.5976 72.3055 69.3507C71.5057 68.9674 70.0867 68.7781 68.7003 68.8698C67.3139 68.9614 66.228 69.3163 65.9414 69.7714C65.7676 70.0654 65.9598 70.37 66.4749 70.617C67.0036 70.8723 67.8237 71.0466 68.7492 71.1003L68.7492 71.1003ZM66.971 69.8363C67.2044 69.4581 68.2188 69.187 69.3929 69.1888C69.548 69.1889 69.7027 69.1936 69.8552 69.2028C70.5066 69.2404 71.0839 69.3631 71.4556 69.5429C71.8152 69.7144 71.9492 69.9264 71.8272 70.1308C71.6174 70.4495 70.8518 70.6968 69.8785 70.7603C68.9053 70.8237 67.9103 70.6912 67.3462 70.423C66.9874 70.2518 66.8522 70.0405 66.971 69.8363L66.971 69.8363Z" id="Shape" fill="#FFFFFF" fill-rule="evenodd" stroke="none" />
          <path d="M68.8754 70.4702C69.6932 70.5248 70.4883 70.347 70.6536 70.0726C70.7255 69.9416 70.6387 69.8063 70.4124 69.6967C70.186 69.5872 69.8389 69.5126 69.448 69.4893C68.6337 69.4366 67.845 69.6141 67.6805 69.887C67.6073 70.0176 67.6923 70.1526 67.9166 70.262C68.1409 70.3715 68.486 70.4465 68.8754 70.4702L68.8754 70.4702Z" id="Shape" fill="#FFFFFF" fill-rule="evenodd" stroke="none" />
          <path d="M69.6223 72.5302L69.8214 72.147C69.8796 72.0226 69.6581 71.904 69.3253 71.8814L67.0243 71.7214C66.6893 71.6973 66.365 71.7785 66.297 71.9033L66.0979 72.2872C66.0386 72.4117 66.2607 72.5306 66.594 72.5528L68.895 72.7128C69.2307 72.7372 69.556 72.6555 69.6223 72.5302L69.6223 72.5302Z" id="Shape" fill="#FFFFFF" fill-rule="evenodd" stroke="none" />
          <path d="M49.9466 77.0152L55.395 77.3273C55.4485 77.3301 55.5026 77.3314 55.5568 77.3314C56.0123 77.3329 56.4036 77.2254 56.4797 77.0778L56.8353 76.4011C56.9235 76.2346 56.5844 76.076 56.0778 76.0469L50.6241 75.7337C50.1176 75.7051 49.636 75.8163 49.5465 75.9827L49.1909 76.6599C49.1025 76.8265 49.4402 76.9853 49.9466 77.0152L49.9466 77.0152ZM50.2293 76.0218C50.2412 76.0016 50.2762 75.9836 50.3271 75.9716C50.3674 75.9624 50.4151 75.9575 50.464 75.9575C50.4776 75.957 50.4914 75.957 50.5049 75.9575L55.9551 76.269C56.0836 76.277 56.1695 76.3171 56.1489 76.3596L55.7933 77.0363C55.7829 77.0568 55.7478 77.0751 55.696 77.0871C55.6442 77.099 55.58 77.1037 55.5177 77.1L50.0693 76.7879C50.0068 76.7845 49.9511 76.773 49.9147 76.756C49.8783 76.7389 49.8641 76.7178 49.8755 76.6973L50.2293 76.0218Z" id="Shape" fill="#FFFFFF" fill-rule="evenodd" stroke="none" />
          <path d="M56.0138 14.6088C56.5615 14.5336 57.108 14.4604 57.6533 14.3891L58.4695 14.2786L59.2892 14.1758C59.563 14.1419 59.8351 14.1057 60.1107 14.0729L60.9376 13.9812C61.4888 13.9152 62.0436 13.8643 62.6037 13.8059C64.8389 13.5984 67.1666 13.4781 69.5529 13.54C67.2555 13.3185 64.7518 13.3168 62.3637 13.4401C61.7662 13.4716 61.1616 13.4985 60.5748 13.5482L59.6857 13.6148C59.3923 13.6382 59.1043 13.6656 58.8126 13.6908C57.6408 13.7889 56.501 13.9105 55.3683 14.0315C53.0958 14.2681 50.8801 14.5293 48.645 14.7111C46.4098 14.8928 44.187 15.0103 41.9696 14.9764C39.7522 14.9425 37.5242 14.7865 35.3477 14.5609C33.1451 14.3232 30.9832 14.0466 28.8714 13.7322C26.7217 13.4185 24.5701 13.0836 22.3527 12.7739C20.1203 12.4496 17.8133 12.1838 15.4533 11.9792C14.2461 11.8793 13.02 11.8061 11.7831 11.76L10.958 11.7378C11.3652 11.6624 11.7849 11.5929 12.2028 11.5304C13.217 11.3855 14.2742 11.2754 15.3573 11.2019C16.4646 11.1271 17.5874 11.0795 18.7163 11.0594C19.8668 11.0336 21.0279 11.0249 22.2104 11.0202C24.563 11.0079 26.9653 11.0132 29.4014 10.9466C30.6195 10.9133 31.8411 10.8589 33.0342 10.7865C34.2274 10.714 35.4046 10.6246 36.5675 10.5323C38.8916 10.3482 41.1623 10.139 43.4473 9.99405C44.5889 9.92101 45.727 9.85673 46.8757 9.81874C48.0203 9.77641 49.172 9.75826 50.3236 9.7644C52.6246 9.77959 54.9326 9.90581 57.1358 10.2167C55.2563 9.72232 52.8468 9.4465 50.4285 9.34015C49.2137 9.288 47.9881 9.26846 46.7636 9.28171C45.5463 9.29798 44.3328 9.337 43.129 9.39858C40.7374 9.52188 38.4026 9.69836 36.0998 9.86023C33.7971 10.0221 31.5174 10.1571 29.2289 10.2079C26.9404 10.2588 24.5772 10.2424 22.1855 10.2465C20.9888 10.25 19.7814 10.2576 18.5651 10.2833C17.3238 10.304 16.0888 10.3546 14.87 10.4347C13.626 10.5187 12.4117 10.6446 11.2461 10.8104C10.6602 10.894 10.089 10.9885 9.53548 11.0933C9.26164 11.1476 8.98424 11.2008 8.72107 11.261L8.52191 11.3048C8.42546 11.3249 8.33336 11.3471 8.24629 11.3714C7.94776 11.4539 7.73103 11.5637 7.62393 11.687C7.41639 11.9328 7.66284 12.1958 8.25518 12.3607C8.55309 12.4431 8.919 12.4944 9.30609 12.508L9.44124 12.5115L9.54437 12.5115L9.64928 12.5115L9.85911 12.5115C10.1365 12.5156 10.4157 12.5144 10.6931 12.5226L11.5288 12.546C12.6507 12.5887 13.7623 12.6567 14.8558 12.7493C19.2728 13.1309 23.4623 13.848 27.8046 14.5025C28.8946 14.6661 29.9935 14.8279 31.1156 14.9787C32.2376 15.1295 33.3845 15.2668 34.5564 15.3878C36.9018 15.6256 39.3699 15.8009 41.8985 15.8109C42.2133 15.8138 42.528 15.8161 42.8445 15.8109C43.161 15.8056 43.4758 15.8079 43.7905 15.7968C44.4147 15.7717 45.0477 15.7571 45.6612 15.7209C46.8811 15.6526 48.0868 15.5591 49.2709 15.441C51.6092 15.209 53.8319 14.9109 56.0138 14.6088L56.0138 14.6088ZM10.5296 11.7203C8.87754 11.7203 9.55783 11.7203 10.5296 11.7203L10.5296 11.7203L10.5296 11.7203ZM10.7771 11.9751C9.20734 13.5796 9.70304 13.0065 10.7771 11.9751L10.7771 11.9751Z" id="Shape" fill="#FFFFFF" fill-rule="evenodd" stroke="none" />
          <path d="M36.4501 1.7866C37.9723 1.70538 39.5122 1.68609 40.9561 1.7866C41.6737 1.83228 42.3658 1.91388 43.0081 2.02853C43.6483 2.13255 44.2386 2.30319 44.9783 2.44986C45.7294 2.5952 46.553 2.69552 47.4109 2.74614C48.2317 2.79563 49.0662 2.81658 49.9003 2.80866C51.5381 2.80457 53.1011 2.73094 54.6517 2.76776C56.2023 2.80457 57.7777 2.92671 58.9691 3.29194C58.4796 3.07626 57.8367 2.90331 57.0967 2.78821C56.3517 2.67236 55.561 2.59132 54.7477 2.54745C53.942 2.50593 53.1287 2.48231 52.3134 2.47674C51.5079 2.46798 50.713 2.46973 49.9377 2.45512C48.3889 2.42415 46.8757 2.34877 45.6861 2.08229C45.0726 1.95315 44.4502 1.77375 43.6696 1.63642C42.9136 1.49696 42.0967 1.39663 41.2477 1.33898C39.5885 1.24292 37.889 1.25065 36.2385 1.36177C34.6452 1.46754 33.0801 1.61508 31.5584 1.80296C28.5312 2.15171 25.5922 2.57825 22.7688 3.07863C25.8095 2.74847 28.8342 2.42649 31.8891 2.14365C33.4112 2.00048 34.9191 1.85907 36.4501 1.7866L36.4501 1.7866Z" id="Shape" fill="#FFFFFF" fill-rule="evenodd" stroke="none" />
          <path d="M52.7135 10.7596C51.3674 10.832 50.1955 11.0038 49.134 11.0307C48.576 11.0408 48.0164 11.0298 47.466 10.998C47.1673 10.9834 46.8419 10.9694 46.5183 10.9583C46.1946 10.9472 45.8745 10.9314 45.5509 10.9279C42.9583 10.8636 40.3604 10.9752 37.9047 11.1844C35.4689 11.4031 33.0865 11.6817 30.7778 12.0177C33.2672 11.8728 35.6962 11.6794 38.1394 11.559C39.3487 11.4958 40.5672 11.4534 41.79 11.4322C42.9993 11.4143 44.211 11.4248 45.4158 11.4637C45.7163 11.4713 46.015 11.4854 46.3049 11.4982C46.5947 11.5111 46.8988 11.5239 47.2171 11.5409C47.8999 11.5827 48.5968 11.5937 49.2887 11.5736C49.9608 11.5453 50.6234 11.4963 51.2678 11.4275C51.8795 11.3691 52.4343 11.3106 53.0033 11.2709C54.1513 11.1918 55.3309 11.1746 56.4957 11.2201C57.0792 11.2438 57.656 11.2829 58.2205 11.3369C58.4997 11.3644 58.786 11.3954 59.0492 11.4281C59.2959 11.4583 59.5315 11.4975 59.7515 11.545C60.1854 11.6402 60.5677 11.7711 60.6904 11.8892C60.7487 11.9388 60.7525 11.9936 60.7011 12.044C60.6726 12.0698 60.6337 12.0941 60.5855 12.1165C60.5571 12.1258 60.5339 12.1358 60.5091 12.1457C60.4756 12.1525 60.4446 12.1605 60.4166 12.1697C60.1516 12.2281 59.5986 12.2421 59.0367 12.2228C58.4748 12.2036 57.8649 12.1644 57.2034 12.1334C55.804 12.0703 54.4223 12.1702 53.1989 12.3198C52.0121 12.4735 50.8553 12.6511 49.735 12.8516C48.5916 13.045 47.5283 13.2496 46.4258 13.4243C45.3429 13.6037 44.2034 13.7437 43.0277 13.8415C41.8521 13.937 40.635 13.9649 39.4304 13.9239C39.1259 13.915 38.8235 13.8994 38.5253 13.8772C38.3759 13.8678 38.223 13.8602 38.0737 13.8491L37.6309 13.8053C37.0349 13.7452 36.4511 13.6728 35.8829 13.5885C38.0005 14.0892 40.6426 14.2885 43.2126 14.1413C44.4888 14.0706 45.7331 13.9477 46.9166 13.7755C48.0973 13.6119 49.2104 13.4073 50.3129 13.2385C51.4598 13.0632 52.557 12.8791 53.6755 12.7458C54.7939 12.6126 55.9355 12.539 57.0327 12.5863C57.6124 12.6109 58.2419 12.6535 58.914 12.6751C59.2688 12.6862 59.6261 12.6862 59.9809 12.6751C60.4038 12.6645 60.8128 12.6208 61.1741 12.5477C61.2683 12.5244 61.3608 12.5004 61.4515 12.4765C61.5422 12.4525 61.6097 12.418 61.6862 12.39C61.8223 12.3293 61.9302 12.2624 62.0063 12.1913C62.1602 12.0456 62.1602 11.887 62.0063 11.7413C61.8659 11.6156 61.6507 11.5004 61.3732 11.4024C61.123 11.3139 60.8419 11.2355 60.5357 11.1686C60.2373 11.1011 59.9178 11.0443 59.5826 10.9992C59.2643 10.9559 58.9585 10.9214 58.6384 10.8876C58.0038 10.8229 57.3544 10.775 56.6966 10.7444C55.3746 10.681 54.0306 10.6861 52.7135 10.7596L52.7135 10.7596Z" id="Shape" fill="#FFFFFF" fill-rule="evenodd" stroke="none" />
        </g>
      </g>
    </g>
  </g>
</svg>