<?xml version="1.0" encoding="utf-8"?>
<svg width="100px" height="100px" viewBox="0 0 100 100" version="1.1" xmlns:xlink="http://www.w3.org/1999/xlink" xmlns="http://www.w3.org/2000/svg">
  <defs>
    <path d="M0 0L100 0L100 100L0 100L0 0Z" id="path_1" />
    <clipPath id="mask_1">
      <use xlink:href="#path_1" />
    </clipPath>
  </defs>
  <g id="Asset-8">
    <path d="M0 0L100 0L100 100L0 100L0 0Z" id="Background" fill="#FFFFFF" fill-opacity="0" fill-rule="evenodd" stroke="none" />
    <g clip-path="url(#mask_1)">
      <g id="Layer_2" transform="translate(-0.0001266995 -0)">
        <g id="Layer_1-2">
          <path d="M1.52319 73.4089C1.74249 73.4989 1.9694 73.5722 2.20164 73.6279C2.09865 73.8204 2.03081 74.0272 2.00087 74.2402C1.93852 74.6768 2.05293 75.1193 2.3221 75.4826C2.39379 75.5792 2.47692 75.6681 2.56995 75.7477C2.66492 75.8263 2.76893 75.895 2.8801 75.9526C3.08044 76.0528 3.29616 76.1241 3.51978 76.1639C3.91447 76.2295 4.31713 76.2437 4.71608 76.2062C4.87946 76.1947 5.04423 76.1768 5.20623 76.1576C5.02136 76.5003 5.00076 76.899 5.14946 77.2565C5.41668 77.8636 6.15745 78.1531 6.73482 78.1761L6.83867 78.1761C7.76432 78.1625 8.6492 77.8215 9.31157 77.2232C9.63972 76.9337 10.2448 76.5661 10.7806 76.2408C11.1655 76.0064 11.5297 75.7848 11.7997 75.5901C12.3452 75.2059 13.0015 74.9356 13.698 74.6552C14.0372 74.5194 14.3792 74.3811 14.7129 74.2261C14.1578 75.0069 13.7204 75.854 13.4128 76.7442C13.101 77.6464 12.9637 78.5925 13.0071 79.5389C13.0619 80.5018 13.3531 81.4405 13.8586 82.2837C14.3592 83.1132 15.0156 83.8536 15.797 84.4701C15.8912 84.5495 15.9923 84.6199 16.0906 84.6955C16.1957 84.775 16.3052 84.8494 16.4187 84.9184C16.6401 85.0512 16.8715 85.1694 17.111 85.2719C17.5832 85.4729 18.0567 85.6164 18.5095 85.7624C18.9444 85.8932 19.3672 86.0564 19.7736 86.2504C19.9598 86.3453 20.1356 86.4569 20.2984 86.5834C20.3801 86.6462 20.4438 86.7038 20.5282 86.782C20.6268 86.8761 20.7323 86.9638 20.8439 87.0445C21.2874 87.3583 21.8044 87.5715 22.3531 87.667C22.8448 87.7493 23.3407 87.8083 23.8388 87.8437C24.2822 87.8747 24.7191 87.9608 25.1376 88.0999C25.57 88.2585 25.9921 88.4402 26.4017 88.6442C26.8281 88.8466 27.2629 89.0618 27.7295 89.2501C28.2181 89.4606 28.7413 89.5939 29.2775 89.6446C29.5718 89.6642 29.8675 89.6382 30.1526 89.5677L30.4696 89.5011C30.5776 89.4819 30.687 89.4717 30.795 89.4563C31.2443 89.414 31.6971 89.414 32.1464 89.4563C32.8789 89.5152 33.6252 89.651 34.3978 89.7637C34.0973 91.6708 35.1676 93.7534 37.0603 94.887C38.251 95.5736 39.6298 95.9292 41.0328 95.9116C41.8289 95.9107 42.621 95.8076 43.3866 95.6055C45.26 95.1124 47.9821 93.6292 49.5854 92.2562C50.5811 93.4721 51.8132 94.5054 53.2186 95.3032C53.2539 95.6009 53.3331 95.8926 53.454 96.1703C53.6648 96.6385 53.9577 97.0712 54.3208 97.4512C54.6665 97.8185 55.0552 98.1492 55.4797 98.4374C56.3168 99.0094 57.2566 99.44 58.2558 99.7093C60.2801 100.236 62.4332 100.01 64.3259 99.2968C65.2841 98.9313 66.1703 98.4215 66.9483 97.788C67.748 97.1424 68.3799 96.3381 68.7968 95.4352C68.9988 94.9739 69.1334 94.4897 69.1969 93.9955C69.2497 93.5034 69.2385 93.0072 69.1637 92.5175C68.9984 91.6024 68.6485 90.7242 68.1322 89.9289C69.2399 89.8533 70.4569 89.391 71.6518 88.9337C72.2763 88.6955 72.8661 88.4701 73.3964 88.3189C73.9399 88.1861 74.4966 88.1045 75.0579 88.0756C76.2113 87.9795 77.4048 87.8783 78.381 87.0035C79.0179 86.4297 79.9276 86.1582 80.8913 85.8713C81.7469 85.6151 82.6317 85.3513 83.3642 84.8466C85.0257 83.7093 86.1971 82.2337 86.6415 80.6916C86.8449 79.9665 86.9118 79.2143 86.8395 78.4681L86.8533 78.4681C86.8533 78.4502 86.8423 78.4336 86.8367 78.4156C86.7464 77.5538 86.5158 76.7096 86.1527 75.9116C85.8329 75.2037 85.4319 74.5295 84.9565 73.9007C85.3815 74.1185 85.8301 74.2991 86.2704 74.4758C86.9627 74.755 87.6246 75.0202 88.1687 75.4108C88.4456 75.6055 88.8029 75.8271 89.1892 76.0615C89.7236 76.3855 90.3301 76.7544 90.6568 77.0439C91.3183 77.6433 92.2025 77.9861 93.1284 78.0019L93.2322 78.0019C93.8096 77.984 94.5517 77.6894 94.819 77.0823C94.9706 76.7144 94.9444 76.304 94.747 75.9552C94.9145 75.977 95.0834 75.9949 95.2537 76.0064C95.65 76.0462 96.0504 76.0341 96.4431 75.9705C96.6647 75.9311 96.8789 75.8616 97.0786 75.7643C97.1893 75.7096 97.2929 75.6435 97.3874 75.5671C97.4793 75.4901 97.5619 75.4043 97.6339 75.3109C97.9038 74.9503 98.0197 74.51 97.9592 74.0749C97.9311 73.8655 97.866 73.6617 97.7668 73.4717C98.0007 73.4186 98.2291 73.3466 98.4494 73.2565C99.0047 73.0456 99.467 72.668 99.762 72.1844C99.9207 71.921 100.003 71.624 100 71.3225C99.9988 71.2416 99.9895 71.161 99.9724 71.0816C99.96 71.0343 99.9461 70.9869 99.9295 70.9408L99.8686 70.8191C99.7843 70.6766 99.6726 70.5494 99.539 70.4438C99.0323 70.048 98.4203 69.9494 97.8692 69.9597C97.7543 69.9597 97.6422 69.9699 97.53 69.9814C97.6152 69.8819 97.6929 69.777 97.7626 69.6676C98.1606 69.039 98.2811 68.2925 98.0991 67.5837C98.0048 67.2164 97.8195 66.8744 97.5577 66.5847C97.2656 66.2653 96.8583 66.0546 96.4112 65.9917C96.3229 65.9833 96.2338 65.9833 96.1454 65.9917C96.1656 65.7724 96.1175 65.5524 96.0069 65.3577C95.8707 65.1349 95.6859 64.9408 95.4642 64.7877C95.104 64.5308 94.7287 64.2926 94.3399 64.0743C93.5551 63.6252 92.6972 63.2961 91.7992 63.0996C90.8848 62.9036 89.9345 62.901 89.0189 63.0919C88.6982 63.1597 88.3849 63.2544 88.0829 63.375C88.0698 63.1994 88.0373 63.0256 87.986 62.8562C87.8542 62.4533 87.671 62.0664 87.4404 61.7035C87.2209 61.3476 86.9719 61.008 86.6955 60.6878C86.5563 60.5257 86.4079 60.3705 86.251 60.2229L85.7983 59.8053C85.1864 59.2517 84.5426 58.7292 83.8695 58.2402C83.1943 57.7429 82.4729 57.3018 81.7137 56.9222C81.0852 56.6077 80.4294 56.3425 79.7531 56.1294C78.9874 51.822 77.2332 49.7189 75.5356 47.6862C75.3076 47.4138 75.0769 47.1372 74.8433 46.8562C75.1826 45.2936 75.8596 40.4355 75.2158 38.8012C74.637 37.3295 72.5698 35.056 69.3617 34.7627C69.3728 34.7435 69.3852 34.7256 69.3963 34.7077C69.5517 34.7246 69.7079 34.7336 69.8643 34.7346C71.3528 34.7346 72.3843 33.9404 73.4864 32.6942C74.9583 31.0291 75.5093 28.9004 75.8873 26.846C76.1061 25.6561 76.3027 24.2843 75.8015 23.033C75.7655 22.9433 75.7323 22.8549 75.6976 22.7679C75.2906 21.7061 74.9029 20.7045 72.6986 20.2446C71.5978 8.90042 61.8447 0 50.0133 0C38.1819 0 28.3983 8.92988 27.3211 20.2997C25.33 20.7813 24.9548 21.747 24.5616 22.7679C24.5283 22.8549 24.4951 22.9433 24.4591 23.033C23.9634 24.2818 24.1545 25.6561 24.3733 26.846C24.7499 28.8953 25.3023 31.0317 26.7742 32.6942C27.8818 33.9404 28.9078 34.7346 30.3963 34.7346C30.5858 34.7325 30.775 34.7188 30.9626 34.6936C31.1273 34.9382 31.2963 35.1816 31.4721 35.4198C28.1878 35.6619 26.0722 37.9814 25.4837 39.4685C24.8399 41.1041 25.5183 45.9622 25.8575 47.5235C25.6291 47.8053 25.3992 48.0807 25.1722 48.3535C23.4926 50.3657 21.7577 52.4521 20.9796 56.666C20.2673 56.8768 19.5794 57.1527 18.9262 57.4896C18.1595 57.8721 17.4323 58.3188 16.7538 58.8242C16.0789 59.318 15.4371 59.8492 14.832 60.415L14.3917 60.8389C14.2344 60.989 14.0861 61.1467 13.9472 61.3116C13.6737 61.6379 13.4274 61.983 13.2106 62.3439C12.9842 62.7131 12.8079 63.1067 12.6858 63.5159C12.6526 63.6196 12.636 63.7349 12.6111 63.8437L12.6111 63.8847C12.1012 63.5843 11.5391 63.3677 10.9495 63.2443C10.0319 63.0543 9.07973 63.0578 8.16373 63.2546C7.26721 63.4485 6.41058 63.7755 5.62714 64.2229C5.23844 64.4424 4.86267 64.681 4.50145 64.9376C4.27973 65.0917 4.09493 65.2866 3.9587 65.5101C3.83945 65.7168 3.79115 65.9523 3.82024 66.1851C3.73364 66.178 3.64653 66.178 3.55993 66.1851C3.12257 66.2459 2.72398 66.4516 2.43841 66.764C2.17906 67.0512 1.99644 67.3908 1.90534 67.7554C1.72401 68.4555 1.8405 69.1933 2.23072 69.8162C2.30812 69.9408 2.3956 70.0599 2.49241 70.1723C2.36068 70.1553 2.228 70.1455 2.09503 70.1428C1.49898 70.111 0.911362 70.2848 0.445968 70.6308C0.315419 70.7341 0.206529 70.8587 0.124741 70.9984L0.0665876 71.1175C0.051357 71.1623 0.037511 71.2072 0.0250496 71.2533C0.00960732 71.3311 0.00127022 71.4099 0.000126699 71.489C-0.00362657 71.785 0.0760676 72.0767 0.231354 72.3356C0.523107 72.8147 0.97701 73.1918 1.52319 73.4089L1.52319 73.4089ZM18.8307 84.9363C18.371 84.7877 17.9238 84.6494 17.5167 84.4765C17.3185 84.3926 17.127 84.2958 16.9435 84.187C16.8549 84.1306 16.7746 84.0781 16.6873 84.0128C16.6001 83.9475 16.5087 83.8847 16.4229 83.8079C15.7288 83.2596 15.1459 82.6012 14.7018 81.8636C14.264 81.1367 14.0125 80.3264 13.9666 79.4954C13.939 78.9708 13.978 78.4451 14.0829 77.9289C14.6948 76.3877 15.9195 75.1205 17.507 74.3862L18.1689 74.9984C19.5535 76.2792 20.8647 77.5024 22.3393 78.6577C20.7982 80.4598 19.9356 82.9459 19.9965 85.3705C19.6174 85.2048 19.2281 85.0598 18.8307 84.9363L18.8307 84.9363ZM43.172 94.8806C41.1629 95.4096 39.0459 95.1752 37.509 94.2542C35.8737 93.2731 34.9474 91.4864 35.2064 89.861L35.457 89.8854C35.961 91.6388 37.2999 93.1105 38.9711 93.7381C39.665 93.9961 40.4067 94.1266 41.1546 94.1223C42.0811 94.1124 42.9984 93.9511 43.8643 93.6459C45.0066 93.2616 46.4424 92.2933 47.7093 91.4429C48.0222 91.2328 48.3213 91.0317 48.5996 90.8511C48.7621 91.1184 48.9351 91.3805 49.1188 91.6375C47.6304 92.9363 44.936 94.4144 43.165 94.8806L43.172 94.8806ZM43.604 90.1979C44.1267 90.3344 44.6726 90.3778 45.2129 90.326C45.4306 90.2841 45.6262 90.1742 45.7667 90.0147C45.8312 89.9474 45.8904 89.8759 45.9439 89.8008C46.2932 89.9049 46.635 90.0294 46.9672 90.1736C47.2316 90.2824 47.5002 90.39 47.7661 90.481C47.5935 90.5945 47.4158 90.7132 47.233 90.837C46.009 91.6593 44.6216 92.5905 43.5846 92.944C42.0103 93.4781 40.5205 93.5139 39.2757 93.0477C37.9105 92.5354 36.7973 91.3558 36.3113 89.9302L36.5203 89.9302L37.9714 89.8931L40.8722 89.8162L41.2335 89.806C41.3568 89.806 41.4786 89.806 41.5741 89.806C41.7893 89.8127 42.0034 89.8372 42.2138 89.879C42.6458 89.9533 43.1055 90.0877 43.597 90.1979L43.604 90.1979ZM53.5316 93.2065C53.4123 93.61 53.3198 94.0197 53.2546 94.4336C52.444 93.9314 51.7004 93.3424 51.0393 92.6788C51.2043 91.7712 51.523 90.8933 51.9836 90.0775C52.2242 89.6608 52.4982 89.2614 52.8033 88.8825C53.1051 88.4982 53.4374 88.123 53.7863 87.7298C53.2663 87.9103 52.7883 88.1812 52.3782 88.5277C51.9649 88.876 51.6023 89.2725 51.2996 89.7073C50.994 90.1445 50.7454 90.6136 50.5588 91.1047C50.463 91.3662 50.3858 91.6331 50.3276 91.9039C49.8883 91.3815 49.4996 90.8243 49.1659 90.2389C49.5467 88.0435 51.204 85.4243 53.3197 84.8236C54.7915 85.5191 56.0654 87.0945 56.946 88.3253C56.8643 88.3817 56.7812 88.4368 56.7023 88.4957C55.9099 89.0865 55.242 89.8072 54.732 90.6218C54.2037 91.4283 53.7975 92.298 53.5246 93.2065L53.5316 93.2065ZM56.1997 97.5408C55.4825 97.0605 54.8566 96.4521 54.5382 95.7643C54.3822 95.4333 54.3216 95.0706 54.3623 94.7115C54.4184 94.2949 54.5035 93.882 54.6171 93.4755C54.8479 92.6555 55.1992 91.8686 55.6611 91.1367C56.1326 90.4078 56.6823 89.7247 57.3018 89.0977C57.6106 88.7787 57.9374 88.4739 58.2849 88.178C58.6418 87.8787 59.0147 87.5962 59.4023 87.3314C58.7724 87.4192 58.1665 87.6179 57.6175 87.9168C56.6552 86.5706 55.2332 84.8236 53.5219 84.0833L53.3903 84.0269L53.2519 84.0602C50.8011 84.6468 48.9236 87.407 48.4058 89.879C48.0259 89.774 47.6556 89.6417 47.2981 89.4832C46.9893 89.3551 46.675 89.227 46.3676 89.1335C46.3773 89.1194 46.3856 89.1028 46.3953 89.0887C46.4397 89.0129 46.4906 88.9405 46.5476 88.8722L46.6141 88.8005C46.6404 88.7698 46.6681 88.739 46.6916 88.7057C46.7376 88.6436 46.7788 88.5786 46.8149 88.5111C46.928 88.2755 47.0085 88.0276 47.0544 87.7733L47.3313 86.4553L47.9073 83.8271C48.097 82.9548 48.3116 82.0544 48.3338 81.1079C48.3568 80.5157 48.2735 79.9241 48.0873 79.357C48.3321 79.4154 48.581 79.4582 48.8322 79.4851C49.2719 79.5279 49.7138 79.5468 50.1559 79.5415C50.7809 81.5866 52.8099 82.9906 55.1072 82.9677C55.4129 82.9669 55.7178 82.9403 56.0183 82.8883C56.0875 83.0368 56.1568 83.1867 56.2218 83.3353C56.4891 83.9308 56.7646 84.5469 57.209 85.0861C58.026 86.0737 59.2292 86.6026 60.3936 87.115C61.0284 87.3771 61.6419 87.681 62.2296 88.0243C64.3134 89.3205 65.4682 91.822 65.0362 94.1095C64.6208 96.2869 62.7848 98.2081 60.5044 98.8652C59.8554 98.8653 59.2093 98.7838 58.584 98.6231C57.7247 98.3943 56.9154 98.028 56.1927 97.5408L56.1997 97.5408ZM53.1896 79.3724C54.498 79.544 55.1349 80.9811 55.5558 81.934L55.6638 82.1774C53.6167 82.4498 51.6522 81.3281 50.9977 79.5133C51.1708 79.5056 51.3453 79.5005 51.517 79.4915C51.8133 79.4762 52.1137 79.4518 52.4017 79.4262C52.6897 79.4006 52.932 79.3839 53.1896 79.3724L53.1896 79.3724ZM68.0048 93.8674C67.9484 94.2596 67.8382 94.6436 67.6766 95.0099C67.3252 95.7535 66.7982 96.4148 66.1342 96.9452C65.4572 97.4896 64.6876 97.9267 63.8565 98.2389C63.5398 98.3586 63.2163 98.462 62.8873 98.5488C64.3951 97.5062 65.5 95.9462 65.8226 94.2376C66.3073 91.6683 65.0099 88.8582 62.6685 87.4006C62.0492 87.035 61.4012 86.7127 60.7301 86.4361C59.6044 85.9404 58.5397 85.4729 57.8432 84.6289C57.4624 84.1678 57.2187 83.6234 56.9598 83.0471C56.8297 82.7563 56.6954 82.4553 56.5444 82.1646C56.4752 82.0365 56.3963 81.8546 56.3063 81.6523C56.0488 81.0708 55.6957 80.2728 55.1294 79.6401C55.7528 79.9147 56.296 80.3236 56.7134 80.8325C57.389 81.6241 57.821 82.6039 58.2489 83.6004L58.2489 83.6004L58.2877 83.6952L58.3846 83.7643C59.945 84.8761 61.637 85.7662 63.1988 86.7666C63.975 87.2544 64.7096 87.7965 65.3962 88.3881C66.0555 88.9744 66.626 89.6405 67.0923 90.3682C67.5535 91.0749 67.8611 91.858 67.9979 92.6737C68.0528 93.0698 68.0565 93.4705 68.0089 93.8674L68.0048 93.8674ZM85.8578 80.5059C85.4604 81.8841 84.404 83.2149 82.8823 84.2498C82.2565 84.6763 81.4714 84.9107 80.6407 85.1591C80.3803 85.236 80.1173 85.3154 79.857 85.4012C79.9262 82.9677 79.0636 80.4624 77.5142 78.6526C78.993 77.4998 80.307 76.2741 81.693 74.9856L82.3451 74.381C83.9983 75.1495 85.4771 76.8146 86.0337 78.5604C86.0958 79.2134 86.0363 79.8715 85.8578 80.5059L85.8578 80.5059ZM84.9661 75.357C84.263 74.6074 83.3961 74.0041 82.4226 73.5869L82.1693 73.4858L81.974 73.6651L81.1197 74.4566C79.6507 75.8207 78.2633 77.1092 76.689 78.3157L76.3692 78.5591L76.6461 78.8498C78.3076 80.6186 79.2048 83.2238 79.0373 85.7138C78.5899 85.9009 78.1791 86.1554 77.8216 86.4669C77.0532 87.1572 76.0521 87.2354 74.9929 87.3301C74.375 87.3627 73.7625 87.4546 73.1652 87.6042C72.765 87.717 72.3441 87.8604 71.9038 88.032C71.8945 87.9229 71.8788 87.8143 71.8567 87.7067C71.7976 87.424 71.71 87.1469 71.5951 86.8793C71.482 86.6204 71.353 86.3676 71.2087 86.1223C71.0708 85.8738 70.894 85.6455 70.684 85.4448C70.7091 85.7198 70.7658 85.9916 70.8529 86.2556C70.9305 86.5117 70.9914 86.7679 71.0509 87.024C71.1036 87.2738 71.1365 87.5268 71.1492 87.781C71.1545 87.9628 71.1457 88.1447 71.1229 88.3254C70.4416 88.5981 69.7424 88.8308 69.0294 89.0221C68.9843 88.7625 68.9214 88.5058 68.8411 88.2536C68.7187 87.8718 68.5603 87.5006 68.3676 87.1444C68.1761 86.7918 67.9553 86.4535 67.7071 86.1326C67.4643 85.809 67.1626 85.5268 66.8154 85.2988C66.9996 85.6561 67.1976 85.984 67.3803 86.3234C67.5645 86.6532 67.7205 86.9958 67.8469 87.3481C67.9731 87.6967 68.0739 88.0527 68.1488 88.4137C68.1986 88.6699 68.2332 88.9145 68.2582 89.1643C68.0443 89.1905 67.8281 89.1965 67.6129 89.1822C67.1761 88.6322 66.6823 88.123 66.1384 87.6619C65.3955 87.0509 64.6025 86.4942 63.7665 85.9968C62.1604 85.017 60.4933 84.1947 58.9633 83.2123C58.548 82.2466 58.1021 81.2399 57.3558 80.3625C56.971 79.9015 56.5025 79.5058 55.9712 79.1931C55.4234 78.8751 54.8017 78.6819 54.1574 78.6295C53.5507 78.5934 52.9416 78.6093 52.338 78.6769C52.1843 78.691 52.0348 78.7026 51.8853 78.7141L52.2854 78.5463C52.6246 78.408 52.968 78.2773 53.3128 78.1505L53.832 77.9648C54.0037 77.9033 54.1892 77.8367 54.3277 77.7996C54.6645 77.7222 55.0085 77.6745 55.3551 77.6574C55.7682 77.6282 56.1762 77.5543 56.5708 77.4371C56.7734 77.3706 56.9701 77.2897 57.1592 77.195C57.234 77.1553 57.3101 77.1169 57.3821 77.0746C57.7832 77.2361 58.1726 77.4214 58.548 77.6292C59.0098 77.8881 59.4483 78.1811 59.8592 78.5053C60.2754 78.831 60.6591 79.1906 61.0056 79.5799C61.3573 79.9642 61.6827 80.3792 62.0261 80.798C61.8737 80.2895 61.6334 79.8073 61.3144 79.3699C60.9934 78.9277 60.6306 78.5128 60.2302 78.13C59.8314 77.7433 59.3938 77.3925 58.9232 77.0823C58.6961 76.9312 58.458 76.7915 58.2143 76.6609L58.3112 76.6263C58.3901 76.5982 58.4787 76.5828 58.5618 76.5597C59.265 76.3954 59.9829 76.2903 60.7066 76.2459C61.4432 76.1896 62.1881 76.1575 62.9371 76.1447C63.6862 76.1319 64.4367 76.1332 65.1927 76.0922C65.9583 76.0685 66.7199 75.9789 67.4676 75.8245C66.7116 75.6849 65.9667 75.5863 65.212 75.5133C64.4574 75.4403 63.7014 75.4172 62.9413 75.4031C61.4182 75.3929 59.8952 75.3737 58.3237 75.7234C58.2253 75.7477 58.1284 75.7643 58.0287 75.7964L57.7934 75.8745C57.839 75.8258 57.8889 75.7797 57.9318 75.7285C58.2392 75.379 58.5205 75.0106 58.7736 74.6257C59.0313 74.2437 59.225 73.8278 59.3483 73.3923C59.034 73.7381 58.7529 74.0852 58.4593 74.4169C58.1693 74.7536 57.8547 75.0715 57.5178 75.3686C57.1846 75.6673 56.8327 75.9479 56.4641 76.2088C56.1872 76.3971 55.9103 76.5713 55.6181 76.7365C55.4991 76.7531 55.3758 76.7672 55.2471 76.7775C54.8405 76.8031 54.4376 76.8648 54.0439 76.9619C53.8223 77.0272 53.6562 77.09 53.4762 77.1553C53.2962 77.2206 53.1203 77.2834 52.9445 77.3577C52.5928 77.4977 52.2439 77.6437 51.8977 77.7957C51.2287 78.0786 50.5859 78.4118 49.9759 78.7922C49.6201 78.7922 49.267 78.7768 48.9222 78.7422C48.6566 78.718 48.3938 78.6717 48.1372 78.6039C47.9261 78.5607 47.7312 78.4666 47.5722 78.3311L47.5722 78.3311C47.4277 78.1224 47.2582 77.9295 47.0669 77.756C46.9707 77.6639 46.8675 77.5783 46.7581 77.4998L46.4632 77.2988C46.2555 77.154 46.0409 76.9837 45.8083 76.8159L45.8083 76.8069L45.7376 76.7698C45.5907 76.6597 45.4367 76.5579 45.2766 76.465C45.1168 76.3775 44.9502 76.3013 44.7781 76.2369C44.6853 76.1844 44.5926 76.1345 44.5012 76.0807C44.0664 75.8309 43.6469 75.5581 43.2287 75.2827C42.8106 75.0074 42.4063 74.7089 42.0145 74.399C41.6226 74.089 41.2294 73.7752 40.8043 73.4793C41.0674 73.9042 41.3844 74.2985 41.7486 74.6539C42.1058 75.0112 42.4811 75.357 42.8715 75.6862C42.9546 75.7579 43.0418 75.8232 43.1263 75.8911L43.0307 75.8822C42.8275 75.8673 42.6283 75.8218 42.4409 75.7477C42.0255 75.6004 41.5935 75.3634 41.0314 75.2418C40.8844 75.2132 40.7343 75.2003 40.5841 75.2033C40.5061 75.2045 40.4284 75.2113 40.3515 75.2238C40.3128 75.2238 40.274 75.2366 40.2352 75.2456L40.1383 75.2674C39.9412 75.3165 39.7371 75.3368 39.5332 75.3276C39.0825 75.2933 38.639 75.2019 38.2151 75.056C37.9866 74.9869 37.7485 74.9152 37.4993 74.8549C37.2495 74.7938 36.9948 74.751 36.7377 74.7269C34.8062 74.5386 32.8609 74.2735 30.9099 74.6487C32.8193 75.1611 34.7411 75.1521 36.6491 75.398C36.8735 75.4192 37.0958 75.4569 37.3137 75.5107C37.5325 75.5632 37.754 75.6311 37.9853 75.7029C38.4324 75.854 38.8971 75.9563 39.3699 76.0077C39.5732 76.319 39.7558 76.6415 39.9168 76.9734C40.0952 77.3474 40.2446 77.7326 40.364 78.1262C40.4879 78.522 40.5777 78.9263 40.6326 79.3352C40.6894 79.7464 40.7282 80.1614 40.7905 80.5905C40.941 80.1778 41.0168 79.7451 41.0148 79.3096C41.0186 78.8746 40.9857 78.4399 40.9165 78.0096C40.8455 77.5744 40.7334 77.1458 40.5814 76.7288C40.4857 76.464 40.3729 76.2048 40.2435 75.9526L40.3308 75.9347L40.4097 75.9167L40.472 75.9052C40.5142 75.8991 40.5567 75.8957 40.5994 75.895C40.6925 75.894 40.7854 75.903 40.8763 75.9219C41.264 75.9974 41.6766 76.219 42.1598 76.3996C42.418 76.5011 42.6918 76.5642 42.9712 76.5866C43.1987 76.6029 43.4251 76.6299 43.6497 76.6673C43.966 76.7204 44.2742 76.8085 44.5677 76.9299C44.8446 77.1079 45.1215 77.2821 45.4123 77.4422L45.4123 77.4422C45.5936 77.5792 45.7806 77.7265 45.9869 77.8738L46.2749 78.0723C46.3577 78.1312 46.4359 78.1954 46.5089 78.2645C46.66 78.4039 46.7938 78.5585 46.9076 78.7256C47.1392 79.0702 47.3059 79.4487 47.4005 79.845C47.4988 80.2508 47.5393 80.6668 47.521 81.0823C47.4975 81.9289 47.2912 82.787 47.0946 83.6644L46.5019 86.2914L46.2001 87.6081C46.1672 87.7955 46.1091 87.9784 46.027 88.1524C46.0103 88.1852 45.9903 88.2165 45.9675 88.2459C45.9578 88.26 45.9467 88.2715 45.9356 88.2856L45.883 88.3394C45.7885 88.4457 45.7046 88.5598 45.6324 88.6801C45.5023 88.8863 45.3943 89.0797 45.278 89.2488C45.2283 89.3248 45.1718 89.3968 45.109 89.464C45.0912 89.4837 45.0707 89.5014 45.0481 89.5165C44.6283 89.5444 44.2065 89.5037 43.802 89.3961C43.694 89.3717 43.5846 89.3448 43.4738 89.3167C43.6676 88.9612 43.8342 88.5935 43.9723 88.2165C44.1521 87.7344 44.2873 87.239 44.3766 86.7358C44.4633 86.2368 44.5096 85.7324 44.515 85.227C44.5267 84.7249 44.4567 84.2241 44.3073 83.7413C44.2464 84.2421 44.2049 84.7275 44.1384 85.2091C44.0759 85.6892 43.9732 86.1641 43.831 86.6295C43.6924 87.0911 43.5198 87.5435 43.3146 87.9834C43.1286 88.3745 42.9177 88.7552 42.6832 89.1233C42.5863 89.1015 42.4894 89.0797 42.3897 89.0605C42.1274 89.0072 41.8605 88.9759 41.5921 88.967C41.4468 88.967 41.3249 88.967 41.2072 88.967L40.8445 88.9747L37.9368 89.0349L36.4885 89.0644C36.0285 89.067 35.5688 89.0375 35.1136 88.976C34.1831 88.862 33.2333 88.6584 32.2253 88.5764C31.7166 88.529 31.204 88.529 30.6953 88.5764C30.8558 88.4448 31.0053 88.3023 31.1426 88.1499C31.7045 87.5204 32.141 86.8035 32.4316 86.0327C32.7304 85.2849 32.9357 84.5079 33.0436 83.7169C33.1537 82.9323 33.129 82.1365 32.9702 81.359C32.927 82.1331 32.8252 82.9035 32.6656 83.6645C32.5039 84.4145 32.2503 85.145 31.9096 85.8418C31.594 86.5291 31.1559 87.1625 30.6136 87.7157C30.1027 88.219 29.4672 88.5892 28.786 88.675C28.5531 88.613 28.325 88.5364 28.1034 88.4457C28.0106 88.4086 27.9178 88.3638 27.8264 88.3241C28.1766 88.1478 28.499 87.9281 28.7846 87.6708C29.0746 87.4091 29.3268 87.1137 29.535 86.7922C29.7456 86.4767 29.8714 86.1193 29.902 85.7496C29.6707 86.0493 29.4575 86.3285 29.2207 86.5885C28.9876 86.8472 28.719 87.0767 28.4218 87.2712C27.9733 87.5712 27.4665 87.7886 26.9292 87.9116L26.8337 87.8655C26.394 87.6449 25.9409 87.4477 25.4768 87.2751C24.9863 87.1101 24.474 87.0072 23.9537 86.969C23.4895 86.9356 23.0274 86.8809 22.5691 86.805C22.1629 86.7371 21.7797 86.5818 21.4504 86.3516C21.3715 86.2945 21.297 86.2325 21.2274 86.1659C21.1326 86.0757 21.0328 85.9902 20.9284 85.9097C20.9021 85.8892 20.873 85.8713 20.8453 85.8521C20.6362 83.3224 21.5376 80.6583 23.2282 78.8575L23.5051 78.568L23.1853 78.3234C21.6124 77.1194 20.2264 75.8335 18.7545 74.472L17.8919 73.6728L17.6953 73.4934L17.4433 73.5946C16.7305 73.8827 16.0705 74.2716 15.4869 74.7474C15.9999 74.0026 16.6095 73.3187 17.3021 72.7109C18.6689 71.5163 20.281 70.5877 22.043 69.9801C22.6891 69.7522 23.3468 69.5459 24.016 69.3615C24.0769 69.35 24.1379 69.3372 24.2002 69.3269C24.8987 69.2162 25.6077 69.1733 26.3158 69.1988C27.03 69.2226 27.739 69.3218 28.4287 69.4947C29.1271 69.6719 29.8065 69.9077 30.4586 70.1992C29.8933 69.7396 29.2355 69.3879 28.5229 69.1643C27.9389 68.9699 27.3362 68.8275 26.7229 68.739C26.9906 68.6895 27.2588 68.6425 27.5274 68.5981C28.2557 68.4803 28.9923 68.3855 29.7289 68.3241C30.4639 68.4077 31.2037 68.4505 31.9443 68.4521C32.0536 68.4521 32.1616 68.4521 32.2696 68.4521C34.8879 70.1966 40.2089 71.398 46.3552 71.6849L46.3552 71.7784C46.3559 72.3009 46.8136 72.7243 47.3784 72.7249L53.9774 72.7249C54.5422 72.7242 54.9999 72.3009 55.0006 71.7784L55.0006 71.4697C60.8644 70.8985 65.705 69.4345 68.7248 67.2725L70.2326 67.6273C71.1534 67.8437 72.0866 68.0628 72.9852 68.2831C72.2204 68.4155 71.4724 68.6206 70.7532 68.8953C70.0334 69.1733 69.3451 69.5165 68.6985 69.92C68.0526 70.315 67.4763 70.7998 66.9899 71.357C67.6047 70.9474 68.2425 70.5682 68.9006 70.2209C69.5522 69.8825 70.2381 69.6041 70.9484 69.3897C71.6535 69.1768 72.3785 69.025 73.114 68.9363C73.8136 68.854 74.5199 68.8304 75.2241 68.8658L75.2906 68.8838C74.9899 68.9857 74.6983 69.1091 74.4183 69.2527C74.0673 69.4328 73.7337 69.6406 73.4213 69.8738C73.1052 70.1029 72.8437 70.3898 72.6529 70.7166C72.9963 70.5258 73.3133 70.3324 73.6401 70.1646C73.9639 69.9917 74.3035 69.8456 74.655 69.7278C75.0022 69.6087 75.358 69.5124 75.7198 69.4397C76.0478 69.3756 76.3798 69.3303 76.7139 69.3039L77.0019 69.3987C80.6227 70.6013 83.4666 72.7506 84.9661 75.357L84.9661 75.357ZM32.7349 65.7893C32.9159 65.4998 33.0489 65.1868 33.1295 64.8607C37.7637 64.7749 39.7257 61.8918 41.6212 59.097C41.8075 58.8049 42.1606 58.6398 42.5254 58.6744C42.7258 58.7033 42.9204 58.7599 43.1027 58.8421C43.6954 59.0842 43.7286 60.0525 43.7286 60.2434C43.7286 62.6679 40.8209 64.9606 39.9348 65.6049C38.2179 66.8473 34.8048 67.895 30.8089 67.6542C31.6078 67.2161 32.181 66.6423 32.7349 65.7893L32.7349 65.7893ZM66.5413 39.4044L66.3225 39.6337C65.5637 39.9526 64.7994 40.2613 64.0324 40.5405L63.3968 40.7685L62.7558 40.9862L62.1105 41.1924L61.4612 41.3705C60.5944 41.6266 59.7083 41.82 58.8207 42.0263C57.9332 42.2325 57.0374 42.4246 56.1235 42.6667C57.0589 42.8061 58.0102 42.8293 58.9523 42.7358C59.8919 42.6399 60.8222 42.478 61.7353 42.2517L62.4165 42.0698L63.0936 41.8713L63.7596 41.6459L64.4187 41.4025C65.2672 41.071 66.0858 40.6774 66.8666 40.2254C66.9234 40.2331 66.976 40.2446 67.03 40.2549C67.1184 40.3776 67.1801 40.5151 67.2114 40.6596C67.314 41.157 67.1691 41.6707 66.8168 42.0583C66.1785 42.7205 65.1705 42.9728 64.0144 43.211C61.5221 43.7233 58.9412 44.2664 56.3728 44.552C50.0521 45.259 43.622 44.5008 37.4037 43.7669C36.4691 43.6567 35.3074 43.521 34.5404 42.9075C34.1175 42.548 33.8744 42.0426 33.8688 41.5114C33.8706 41.3515 33.9108 41.194 33.9865 41.0503C35.0638 41.3999 36.1617 41.6984 37.2708 41.9468C38.4048 42.1928 39.5471 42.4054 40.6977 42.5591C41.8483 42.7128 43.0086 42.8152 44.1689 42.8729C45.3292 42.9305 46.495 42.9485 47.647 42.7115C46.495 42.4822 45.3569 42.4156 44.216 42.3093C43.0751 42.203 41.9452 42.0468 40.8209 41.8598C39.6966 41.6727 38.5779 41.4589 37.473 41.1937C36.4221 40.9478 35.3822 40.6699 34.3493 40.3663L34.3396 40.3471C34.0987 39.7945 34.1107 39.1751 34.3728 38.6308C44.9817 41.0116 56.0705 40.8613 66.5994 38.194C67.0148 38.7653 66.7905 39.1367 66.5413 39.4019L66.5413 39.4044ZM67.6406 64.5533C67.6794 64.4252 67.7154 64.3074 67.7514 64.1844C67.8422 64.6259 67.9978 65.0538 68.2139 65.4563C68.4682 65.8839 68.7924 66.2727 69.1748 66.609C68.434 66.4336 67.7029 66.2581 67.0037 66.0813C67.2766 65.5954 67.4902 65.0829 67.6406 64.5533L67.6406 64.5533ZM67.7209 67.0355C64.6001 69.0503 59.9533 70.2299 55.0075 70.7281L55.0075 68.9081C58.6726 68.5623 62.1493 67.7554 64.9767 66.3157C65.8116 66.5552 66.7379 66.7922 67.7209 67.0304L67.7209 67.0355ZM54.9909 68.1729C54.9109 67.7159 54.4848 67.3798 53.9843 67.3788L47.3853 67.3788C46.8802 67.3825 46.4542 67.7281 46.3842 68.1908C43.8759 67.9904 41.3881 67.6101 38.9434 67.0535C39.1123 66.9766 39.2729 66.8959 39.428 66.8152C39.5166 66.8216 39.6066 66.8281 39.6966 66.8281L60.5072 66.8281C61.5195 66.8271 62.4857 66.4363 63.1739 65.7496C63.401 65.835 63.6428 65.917 63.8994 65.9955C61.3102 67.1687 58.2295 67.8565 54.9909 68.1678L54.9909 68.1729ZM54.1962 68.3253L54.1962 71.7643C54.1962 71.8727 54.1016 71.9608 53.9844 71.9616L47.3853 71.9616C47.2681 71.9609 47.1735 71.8728 47.1735 71.7643L47.1735 68.3202C47.1734 68.2118 47.268 68.1237 47.3852 68.123L53.9843 68.123C54.1015 68.1237 54.1962 68.2118 54.1962 68.3202L54.1962 68.3253ZM37.7194 67.5376C40.5482 68.2485 43.441 68.7201 46.3621 68.9465L46.3621 70.9433C41.1698 70.6872 36.447 69.7714 33.6764 68.3702C35.0572 68.2518 36.4159 67.9703 37.7194 67.5325L37.7194 67.5376ZM36.645 44.4444C36.8707 44.4765 37.0922 44.5034 37.3027 44.5277C41.7971 45.058 46.4022 45.601 51.0102 45.601C52.8327 45.6064 54.654 45.5106 56.4641 45.3141C58.9993 45.0311 61.5248 44.5123 63.9728 44.0038C63.4384 45.6241 61.3185 48.7544 60.3106 49.8854L39.8766 49.8854C38.9074 48.7915 36.969 45.9161 36.645 44.4444L36.645 44.4444ZM60.5072 50.6308C62.0731 50.6329 63.3419 51.8067 63.3442 53.2552L63.3442 63.4531C63.3426 64.9023 62.0734 66.0767 60.507 66.0788L50.8288 66.0788C50.8288 63.5991 50.7291 58.4963 50.7277 58.4425L50.7277 58.2888L50.6087 58.1812C50.1185 57.7368 49.6007 57.2847 49.0994 56.8517C48.6439 56.4547 48.1745 56.0461 47.7259 55.6426L47.6816 50.6308L60.5072 50.6308ZM63.8745 51.9603C63.4135 50.9405 62.4433 50.1932 61.2756 49.9584C62.3833 48.57 64.5087 45.4896 64.8659 43.8104C65.7465 43.6017 66.7434 43.2763 67.426 42.568C67.8942 42.0591 68.1155 41.3945 68.038 40.7301C68.4423 41.0695 68.7068 41.5754 68.8563 42.2747C69.1748 43.7707 68.1349 46.2453 67.3596 47.553C66.6354 48.7685 65.0763 50.7281 63.8704 51.9603L63.8745 51.9603ZM34.0115 43.4864C34.5315 43.8813 35.1456 44.1561 35.8031 44.2882C35.9859 45.8341 37.8385 48.6122 38.9185 49.9584C37.7696 50.1901 36.8112 50.9189 36.3431 51.9168C35.3213 50.8921 34.1084 49.5062 33.3427 48.2203C32.577 46.9344 31.5289 44.4444 31.8459 42.9433C32.0453 42.0096 32.4496 41.4192 33.117 41.113C33.0832 41.2419 33.0638 41.3737 33.0588 41.5062C33.0553 42.262 33.4021 42.9829 34.0114 43.4864L34.0115 43.4864ZM36.8527 53.2552C36.8549 51.8068 38.1237 50.633 39.6896 50.6308L46.8633 50.6308L46.9118 55.9616L47.0322 56.0704C47.521 56.5136 48.0375 56.967 48.5373 57.3974C48.9956 57.7957 49.4677 58.2056 49.9219 58.6103C49.9399 59.4838 50.0244 63.8514 50.0188 66.0788L40.6035 66.0788C41.5035 65.4051 43.5292 63.7208 44.2672 61.7125C45.4933 61.0693 46.1753 59.8027 45.9917 58.51C45.8081 57.2173 44.7956 56.1566 43.4315 55.8282C42.0675 55.4999 40.6244 55.9694 39.7829 57.0153C38.9414 58.0613 38.8695 59.4747 39.6011 60.5892C38.8202 61.6036 37.959 62.5104 36.8568 63.1418L36.8527 53.2552ZM39.9071 58.9395C39.9041 57.8486 40.6823 56.8878 41.8148 56.5839C42.9473 56.2799 44.1605 56.7063 44.7891 57.6292C45.4178 58.5521 45.3099 59.7485 44.5247 60.5623C44.533 60.4573 44.54 60.3522 44.5386 60.2459C44.5386 59.8617 44.4555 58.5809 43.4309 58.1607C43.1769 58.0499 42.9068 57.9735 42.6292 57.934C41.9509 57.864 41.2901 58.1636 40.9345 58.7025C40.6575 59.1047 40.3903 59.503 40.1148 59.8899C39.9768 59.5893 39.9062 59.266 39.9071 58.9395L39.9071 58.9395ZM95.0142 67.7182C95.0141 67.7991 94.9938 67.8789 94.9547 67.9513C94.9493 67.9601 94.9428 67.9683 94.9353 67.9757L94.9145 67.9846C94.891 67.9846 94.8743 67.9974 94.8466 68.0038C94.5638 68.0532 94.2753 68.0687 93.9882 68.0499C93.8331 68.0499 93.6767 68.0307 93.5244 68.0179C93.3842 68.0064 93.2453 67.9846 93.109 67.9526C92.8321 67.8719 92.5067 67.7592 92.2034 67.6503C91.9002 67.5415 91.5901 67.4262 91.2896 67.3058L90.8424 67.1278C90.7842 67.1034 90.7219 67.0778 90.6638 67.0509L90.715 66.9958C90.8308 66.8826 90.9728 66.795 91.1304 66.7397C91.2854 66.6841 91.4528 66.6647 91.6178 66.6833C91.6998 66.6917 91.7803 66.7097 91.8573 66.7371C91.8905 66.7474 91.9404 66.7666 91.9958 66.7871L92.1508 66.8447C92.5676 67.0017 92.9933 67.1376 93.4261 67.252C93.6575 67.3135 93.8942 67.3563 94.1336 67.3801C94.4093 67.4001 94.6864 67.3616 94.9436 67.2674L95.0114 67.2418L95.0114 67.2815C95.0073 67.4531 95.017 67.6004 95.01 67.7182L95.0142 67.7182ZM74.889 48.1447C76.5505 50.1339 78.1207 52.0231 78.8808 55.9014C78.1809 55.7435 77.4656 55.6508 76.7458 55.6247C76.5284 55.6145 76.311 55.6247 76.095 55.6247L75.7696 55.6247L75.447 55.6542C75.2296 55.6772 75.0206 55.6888 74.7976 55.7234C74.569 55.7604 74.3462 55.8236 74.1344 55.9116C73.7296 56.0875 73.359 56.3243 73.0378 56.6122C72.7231 56.8822 72.4409 57.1828 72.196 57.5088C72.9132 57.0836 73.6013 56.6314 74.3379 56.4073C74.5171 56.3487 74.7029 56.3092 74.8918 56.2895L75.4968 56.2523L75.8015 56.2331L76.1061 56.2331C76.3096 56.2395 76.5132 56.2331 76.7153 56.2485C78.3402 56.3673 79.9149 56.8244 81.3219 57.5857C81.4216 57.6369 81.5171 57.692 81.6154 57.7445C81.3198 57.8052 81.0296 57.8865 80.7473 57.9878C80.4507 58.0951 80.1637 58.2236 79.8888 58.3721C79.6097 58.5152 79.363 58.7065 79.1619 58.9356C79.479 58.8716 79.7628 58.7807 80.0466 58.6961C80.6069 58.5298 81.1865 58.4258 81.7732 58.3862C82.0612 58.3682 82.3492 58.3618 82.6358 58.3695L82.6358 58.3618C83.5437 58.9722 84.3987 59.6471 85.1932 60.3804L85.5518 60.7173C85.2265 60.7267 84.9025 60.7593 84.5826 60.8146C83.8987 60.9304 83.2391 61.1466 82.6289 61.455C82.0281 61.7605 81.4813 62.1492 81.0076 62.6077C80.5358 63.0575 80.172 63.5943 79.94 64.1832C80.3384 63.7054 80.7848 63.2637 81.2734 62.8639C81.7534 62.475 82.2951 62.1567 82.8795 61.9199C83.4557 61.6868 84.066 61.5336 84.6906 61.4653C85.2057 61.4082 85.7263 61.4082 86.2413 61.4653C86.4049 61.6674 86.5569 61.8773 86.6969 62.0942C86.8966 62.3998 87.0569 62.7261 87.1746 63.0663C87.2208 63.2001 87.2496 63.3386 87.2604 63.4787C87.0214 63.44 86.7786 63.4254 86.5363 63.4352C86.118 63.4576 85.7049 63.5321 85.3081 63.6567C84.9308 63.7743 84.563 63.9164 84.2074 64.082C84.0301 64.1627 83.8668 64.2331 83.6909 64.3189C83.5003 64.4102 83.3191 64.5174 83.1496 64.6391C82.4973 65.1091 81.9812 65.7212 81.6472 66.4208C81.3095 67.1028 81.2357 67.8717 81.4382 68.5981C81.56 68.2472 81.6666 67.9193 81.7995 67.603C81.9343 67.2956 82.0892 66.9962 82.2634 66.7064C82.6013 66.1379 83.0748 65.6482 83.648 65.2744C83.7825 65.1861 83.9258 65.1098 84.0758 65.0464L84.5881 64.8274C84.9156 64.6855 85.2511 64.5602 85.5934 64.4521C85.9324 64.3452 86.2845 64.2777 86.6415 64.251C86.6138 64.2754 86.5847 64.2984 86.5584 64.3241C86.214 64.6319 85.9387 64.9997 85.7484 65.4063C85.5551 65.8207 85.5471 66.2891 85.7263 66.7089C85.9561 66.3144 86.1417 66.0006 86.366 65.692C86.5697 65.3775 86.8153 65.0879 87.097 64.83C87.6822 64.3228 88.412 63.9811 89.2003 63.845C89.9977 63.7013 90.8188 63.7135 91.6108 63.8809C92.4152 64.0614 93.1844 64.3561 93.8913 64.7544C94.2522 64.949 94.602 65.1606 94.9394 65.3884C95.0706 65.4735 95.1825 65.5814 95.269 65.7061C95.3268 65.7951 95.3409 65.9027 95.3077 66.0019C95.2468 66.2248 94.9588 66.4694 94.65 66.586C94.5032 66.6471 94.343 66.676 94.1821 66.6705C93.9873 66.6561 93.7941 66.6265 93.6047 66.5821C93.1948 66.4885 92.7908 66.3739 92.3945 66.2389L92.2436 66.1876C92.1965 66.171 92.1439 66.1531 92.0747 66.1326C91.9456 66.0929 91.8116 66.0684 91.6759 66.0595C91.405 66.0386 91.1327 66.079 90.8826 66.1774C90.6311 66.2715 90.4106 66.4247 90.2429 66.6218C90.1595 66.7188 90.0915 66.8261 90.0407 66.9408C89.9942 67.0463 89.9604 67.1563 89.9396 67.2686C89.9099 67.4484 89.853 67.6235 89.7707 67.7886C89.673 67.961 89.5399 68.1142 89.3789 68.2395C89.6195 68.2186 89.8461 68.1255 90.0241 67.9744C90.1141 67.899 90.1928 67.8129 90.2581 67.7182L90.4713 67.8245C90.6264 67.8988 90.7787 67.9693 90.9338 68.0371C91.2426 68.1652 91.5513 68.2933 91.8629 68.4214C92.1744 68.5495 92.4804 68.6622 92.8321 68.7749C93.018 68.827 93.2084 68.8643 93.4011 68.8863C93.5811 68.9094 93.7584 68.9235 93.937 68.9311C94.3174 68.9575 94.6998 68.9355 95.0737 68.8658C95.1264 68.8556 95.1873 68.8351 95.244 68.8184C95.3108 68.7942 95.376 68.7664 95.4393 68.7352C95.5737 68.6544 95.6868 68.5467 95.7702 68.4201C95.896 68.2213 95.9642 67.9959 95.9682 67.7656C95.9779 67.5748 95.9682 67.4121 95.9682 67.2725C95.9598 67.1699 95.9682 67.0667 95.9931 66.9664C96.018 66.9164 96.0056 66.9267 96.0762 66.8857C96.1468 66.8544 96.226 66.8437 96.3033 66.8549C96.5233 66.888 96.7243 66.9902 96.8723 67.1444C97.0446 67.3292 97.1683 67.5484 97.2337 67.7848C97.3729 68.2922 97.3038 68.8293 97.0399 69.2924C96.758 69.765 96.3086 70.1332 95.7674 70.3349C95.1813 70.5486 94.5664 70.6873 93.9397 70.7474C94.223 70.9691 94.576 71.1007 94.9464 71.1226C95.3183 71.1515 95.6925 71.1011 96.0402 70.9753C96.2107 70.9155 96.3763 70.8445 96.5359 70.7627C96.9677 70.6617 97.413 70.6185 97.8582 70.6346C98.3012 70.6513 98.7374 70.7781 98.9949 71.001C99.0522 71.0482 99.0992 71.1052 99.1334 71.1687C99.1375 71.1812 99.1431 71.1933 99.15 71.2046C99.1486 71.214 99.1486 71.2234 99.15 71.2328C99.1559 71.268 99.1587 71.3035 99.1583 71.3391C99.1541 71.5057 99.1036 71.6685 99.0115 71.8117C98.7979 72.1406 98.4762 72.3977 98.0935 72.5456C97.6678 72.711 97.2197 72.8217 96.7616 72.8748C96.2881 72.9341 95.8099 72.9538 95.3327 72.9337C94.8512 72.9143 94.3713 72.869 93.8954 72.798C93.4136 72.7249 92.9345 72.6161 92.4305 72.497C93.1934 73.1527 94.2305 73.5216 95.2759 73.6279C95.8029 73.6785 96.3342 73.6785 96.8612 73.6279L96.8862 73.6279C96.9787 73.7969 97.0347 73.9809 97.0509 74.1697C97.0686 74.3999 97.0002 74.6288 96.8571 74.8178C96.8259 74.8583 96.7901 74.8957 96.7505 74.9292C96.7066 74.9597 96.6603 74.9871 96.612 75.0112C96.4955 75.0709 96.3699 75.1141 96.2395 75.1393C95.9261 75.1901 95.6074 75.2073 95.2897 75.1905C94.609 75.1714 93.933 75.0794 93.2751 74.9164L92.2755 74.6603C91.939 74.5706 91.5984 74.4745 91.2287 74.3926C91.4567 74.6701 91.7339 74.91 92.0484 75.1021C92.3577 75.2987 92.6921 75.4591 93.0439 75.5799C93.2239 75.6401 93.4053 75.6939 93.5894 75.7438C94.0048 76.1691 94.1737 76.5482 94.0547 76.8159C93.9356 77.0836 93.5188 77.259 93.1934 77.2693C92.4492 77.2746 91.7331 77.0065 91.2024 76.5238C90.823 76.1883 90.211 75.8168 89.6198 75.4569C89.2487 75.2315 88.897 75.0176 88.6506 74.8421C88.0247 74.3926 87.2895 74.0967 86.5737 73.8175C85.7581 73.4896 84.9869 73.1771 84.4123 72.6647C83.9146 72.2198 83.592 71.6337 83.4957 70.9997L83.4583 70.7435L83.1938 70.6808C82.8366 70.5975 82.3229 70.5053 81.8273 70.4182C81.3717 70.3362 80.9037 70.253 80.5714 70.1787C79.5253 69.5845 78.4159 69.0914 77.2608 68.707C76.6876 68.5162 76.0368 68.3228 75.3404 68.1345L75.3404 68.1345C74.392 67.8783 73.3577 67.6222 72.2943 67.366C70.5372 66.8396 69.5542 66.1851 68.9034 65.1066C68.5517 64.5239 68.3191 63.1713 68.2111 62.0058C68.5596 59.7428 68.5787 57.4467 68.2679 55.179C68.0948 53.9328 67.7916 52.6827 67.1256 51.5645C67.1837 52.8389 67.379 54.0352 67.5105 55.2559L67.5783 56.1716C67.5963 56.4765 67.5963 56.7826 67.606 57.0887C67.6157 57.3948 67.6129 57.7009 67.606 58.0058C67.5991 58.3106 67.606 58.618 67.577 58.9228C67.5226 60.144 67.3867 61.361 67.1699 62.5667C67.0508 63.1649 66.9345 63.7656 66.7656 64.3471C66.688 64.6417 66.5883 64.9235 66.4886 65.2053C66.436 65.3449 66.3751 65.4742 66.3197 65.61C66.2775 65.7055 66.2285 65.7984 66.173 65.8879C65.2245 65.6318 64.3605 65.3884 63.653 65.1438C63.9676 64.6371 64.1337 64.0631 64.1348 63.4787L64.1348 53.2552C64.1331 53.1082 64.1215 52.9615 64.1002 52.8159C65.392 51.5773 67.217 49.318 68.0533 47.9142C68.8231 46.6218 70.0222 43.9501 69.6345 42.13C69.3423 40.7608 68.6251 39.9283 67.4537 39.5991C67.4357 39.5825 67.4205 39.5632 67.4011 39.5479C67.4909 39.4001 67.5549 39.2402 67.5908 39.074C68.308 39.2418 69.2606 39.895 70.2215 40.9068C70.9138 41.6356 71.3209 42.5501 71.7169 43.4352C72.6307 45.4396 73.7786 46.8152 74.889 48.1447L74.889 48.1447ZM74.457 39.0573C74.9167 40.2267 74.5443 43.9641 74.1801 46.0096C73.5023 45.1149 72.9299 44.1557 72.4729 43.1483C72.0714 42.2517 71.6144 41.2334 70.8377 40.4137C70.1301 39.6657 68.8092 38.4579 67.5409 38.2991C67.472 38.1104 67.3751 37.9315 67.2529 37.7675C67.861 37.044 68.4161 36.2836 68.9145 35.4915C71.9675 35.6068 73.9281 37.7112 74.457 39.0573L74.457 39.0573ZM72.7637 21.0298C74.3158 21.4076 74.5636 22.0544 74.9375 23.0189C74.9721 23.1086 75.0067 23.1995 75.0441 23.293C75.4706 24.3676 75.3016 25.5754 75.0912 26.7205C74.7326 28.6737 74.2133 30.691 72.862 32.219C71.7086 33.5229 70.8875 34.0122 69.7965 33.9853C71.6809 30.4476 72.8066 26.2619 72.8066 22.3926C72.8066 21.9353 72.7913 21.4806 72.7637 21.0298L72.7637 21.0298ZM50.0133 0.74928C53.2663 0.750539 56.4734 1.4591 59.376 2.81781C58.0563 4.48209 57.0468 6.33885 56.3894 8.31124C56.0308 9.37918 55.8046 10.4813 55.7151 11.5965C55.6557 12.3727 55.6863 13.1524 55.8064 13.9225C50.646 13.6471 45.8858 13.9225 43.5472 14.1787C43.3437 14.2004 43.1387 14.2261 42.9352 14.2504C42.8594 12.4356 42.517 10.6388 41.9175 8.90933C41.2585 7.0285 40.2029 5.28719 38.8119 3.7861C42.1573 1.80868 46.0432 0.755183 50.0133 0.749278L50.0133 0.74928ZM35.2742 31.115C34.2261 28.7531 32.9495 23.8668 33.0436 21.3154C33.0755 20.4188 33.1973 19.48 33.7484 18.7422C34.2994 18.0045 35.241 17.5511 36.152 17.1924C39.7321 15.8051 43.6072 15.1918 47.4822 15.3993C45.1783 15.7976 42.8494 16.2036 40.7115 17.09C38.5737 17.9763 36.609 19.4044 35.6107 21.3654C34.5224 23.4928 35.0859 28.7621 35.2742 31.115L35.2742 31.115ZM27.4014 32.219C26.05 30.691 25.5308 28.6737 25.1722 26.7205C24.9617 25.5754 24.7928 24.3676 25.2192 23.293C25.2566 23.1995 25.2912 23.1086 25.3259 23.0189C25.6748 22.1108 25.9212 21.4819 27.2643 21.0977C27.2394 21.528 27.2255 21.9609 27.2255 22.3964C27.2058 26.4591 28.3372 30.4556 30.507 33.9878C29.3924 34.0275 28.5658 33.5357 27.4014 32.219L27.4014 32.219ZM28.0314 22.3926C28.0314 15.6644 31.1661 9.64329 36.0745 5.67019C36.3514 5.9699 36.6076 6.27858 36.8513 6.60134C37.1693 7.0277 37.4588 7.47169 37.718 7.93083C37.9805 8.39305 38.2082 8.87151 38.3993 9.3628L38.9614 10.8665C38.9772 10.3259 38.9124 9.78585 38.7689 9.2616C38.63 8.73495 38.4514 8.21795 38.2345 7.71437C38.015 7.2076 37.7544 6.71692 37.4549 6.24654C37.2246 5.88125 36.9698 5.52963 36.692 5.19374C37.1536 4.84449 37.6313 4.51318 38.1251 4.19981C39.4208 5.66935 40.3825 7.36574 40.9525 9.18732C41.4789 10.8857 41.7473 12.6437 41.75 14.4105C38.4089 14.9228 35.1344 15.8373 32.181 17.3564C31.9143 17.4936 31.7339 17.7399 31.695 18.0199C30.8116 24.3573 32.3749 31.0522 36.2739 36.3202C36.3868 36.472 36.5472 36.5882 36.7336 36.6532C45.0938 39.5799 55.9366 39.2149 63.3401 36.1473C63.5407 36.0649 63.7045 35.921 63.8039 35.74C67.3097 29.464 69.2343 22.9228 67.5285 16.2459C67.4516 15.9434 67.2088 15.7003 66.8888 15.6055C63.8731 14.7179 60.4144 14.2325 57.0581 13.9968C56.8866 13.2253 56.8182 12.4373 56.8546 11.6503C56.9046 10.6105 57.082 9.57922 57.3835 8.57638C57.6804 7.55923 58.0771 6.5693 58.5687 5.61895C59.0116 4.76666 59.5269 3.94821 60.1098 3.17131C67.1712 6.77938 71.9966 14.0403 71.9966 22.3926C71.9966 27.6721 69.8463 33.56 66.515 37.4358C56.1399 40.0886 45.2071 40.2648 34.7384 37.9481C30.4129 33.8367 28.0314 28.3189 28.0314 22.3926L28.0314 22.3926ZM64.7994 20.5725C64.2982 21.4589 62.7544 21.6279 61.3518 20.9491C59.9492 20.2703 59.2167 19.0022 59.7166 18.1159C60.2164 17.2296 61.7616 17.0605 63.1642 17.7381C64.5668 18.4156 65.2951 19.6849 64.7994 20.5725L64.7994 20.5725ZM64.697 24.3919C64.4221 24.8735 63.7776 25.0583 63.2564 24.805C62.7353 24.5517 62.5342 23.956 62.8069 23.4733C63.0797 22.9907 63.7233 22.8034 64.2456 23.0548C64.4968 23.177 64.6851 23.3868 64.7687 23.6377C64.8524 23.8886 64.8246 24.16 64.6914 24.3919L64.697 24.3919ZM26.2452 39.7259C26.7894 38.3426 28.8386 36.1524 32.0246 36.1486C32.5646 36.8241 33.1451 37.4711 33.7636 38.0864C33.6025 38.3723 33.4869 38.6782 33.4202 38.9946C32.0689 39.1739 30.471 40.4329 29.8577 41.081C29.0809 41.902 28.6254 42.919 28.2238 43.8156C27.7666 44.8232 27.1938 45.7825 26.5152 46.6769C26.158 44.6314 25.7855 40.894 26.2452 39.7259L26.2452 39.7259ZM13.554 63.7477C13.6819 63.4143 13.8486 63.0948 14.0511 62.7948C14.2575 62.4837 14.4889 62.1874 14.7434 61.9084C14.8664 61.7694 14.9976 61.6369 15.1366 61.5114L15.5783 61.1092C16.7718 60.0602 18.0345 59.0829 19.4468 58.3567L19.7099 58.2184L19.9799 58.0903C20.1613 58.0109 20.3371 57.9187 20.5254 57.8533L21.0793 57.6369L21.6456 57.455C22.41 57.2314 23.1999 57.0904 23.9994 57.0349C24.1988 57.017 24.3996 57.0234 24.6003 57.0118L24.9022 57.0003L25.204 57.008C25.4034 57.0144 25.6194 57.008 25.8063 57.0234C25.9896 57.0363 26.171 57.0663 26.3477 57.113C27.0843 57.309 27.7904 57.747 28.509 58.1697C28.0147 57.5293 27.4249 56.9222 26.5886 56.5392C26.3765 56.4404 26.1512 56.368 25.9185 56.324C25.6914 56.2856 25.4837 56.2638 25.2649 56.2331L24.9395 56.1921L24.6114 56.1806C24.3926 56.1729 24.1725 56.1614 23.9523 56.1691C23.2435 56.1941 22.539 56.2838 21.8491 56.4368C22.0927 55.1565 22.5062 53.909 23.08 52.7224C23.4799 52.5372 23.9038 52.4003 24.3414 52.3151C24.8531 52.218 25.3769 52.1874 25.8977 52.2241C26.4271 52.2589 26.9481 52.365 27.4443 52.5392C27.952 52.7224 28.4409 52.9474 28.9051 53.2117C28.559 52.7914 28.1126 52.4508 27.6008 52.2165C27.0872 51.9725 26.5376 51.7999 25.9697 51.7041C25.3939 51.6074 24.8055 51.5931 24.2251 51.6619C24.0129 51.6879 23.8025 51.7256 23.5951 51.7746C24.2653 50.6603 25.0295 49.7406 25.8105 48.7992C26.9181 47.4697 28.0701 46.0954 28.9687 44.0897C29.3661 43.2059 29.776 42.2965 30.4655 41.5626C31.1079 40.8838 32.4039 39.9577 33.3648 39.749C33.3765 39.9013 33.4015 40.0525 33.4396 40.2011C32.1436 40.4867 31.3627 41.3346 31.0484 42.7858C30.6607 44.6058 31.8612 47.2776 32.6296 48.57C33.5171 50.0596 34.9668 51.6747 36.0828 52.7454C36.0547 52.9098 36.0399 53.076 36.0385 53.2424L36.0385 63.4403C36.0385 63.4697 36.0385 63.4979 36.0385 63.5274C35.3888 63.7918 34.6999 63.9645 33.9948 64.0397C33.8002 63.6695 33.6427 63.2837 33.5241 62.887C33.3773 62.4042 33.2604 61.9142 33.1738 61.4192C33.0155 60.4163 32.9419 59.4035 32.9536 58.39C32.9713 57.3668 33.0546 56.3455 33.2028 55.3314C33.3261 54.3068 33.5144 53.2911 33.5642 52.2177C33.4258 52.4509 33.3012 52.6916 33.1807 52.935C33.0603 53.1759 32.9554 53.4231 32.8664 53.6753C32.7722 53.9315 32.685 54.18 32.6075 54.4348C32.5299 54.6897 32.469 54.9472 32.4095 55.2033C32.1863 56.248 32.0502 57.3069 32.0024 58.3708C31.9569 59.4422 32.0297 60.5151 32.2198 61.5728C32.307 62.0207 32.4212 62.4637 32.5618 62.8998C32.5618 62.9779 32.5507 63.0548 32.5452 63.1354C32.4898 63.9155 32.4275 64.8005 32.0398 65.3987L32.0149 65.4345C31.6092 66.0544 31.2063 66.4938 30.6815 66.837C30.2066 67.1495 29.6292 67.3839 28.858 67.6055C28.3651 67.6576 27.874 67.7212 27.3848 67.7964C25.4487 68.0993 23.5479 68.5711 21.7079 69.2053C20.9235 69.4759 20.1641 69.8048 19.4371 70.1889C19.541 67.5517 18.1467 65.5178 16.9587 64.9978C16.2096 64.6712 14.6464 64.1178 13.4695 64.0666C13.4881 63.9583 13.5164 63.8517 13.554 63.7477L13.554 63.7477ZM4.91823 67.4031L5.02761 67.4467C5.28557 67.5398 5.56291 67.5779 5.83899 67.5581C6.07881 67.5342 6.31598 67.4914 6.5479 67.43C6.98029 67.3161 7.40555 67.1801 7.82173 67.0227L7.97681 66.9651C8.03081 66.9433 8.08066 66.9254 8.11527 66.9151C8.19229 66.8878 8.2728 66.8697 8.35481 66.8614C8.51969 66.843 8.68693 66.8619 8.84219 66.9164C8.99967 66.9719 9.14164 67.0594 9.25757 67.1726C9.28526 67.1999 9.31157 67.2281 9.33649 67.2571C9.27557 67.2853 9.20911 67.3148 9.14818 67.3391C9.00142 67.4019 8.85049 67.4608 8.69957 67.5197C8.39773 67.6401 8.09173 67.7554 7.78435 67.8668C7.47697 67.9782 7.16128 68.0884 6.87605 68.1703C6.58448 68.2306 6.2872 68.2641 5.98852 68.2703C5.69676 68.2891 5.4036 68.2731 5.11622 68.2229C5.08853 68.2165 5.06776 68.2075 5.04284 68.2024L5.011 68.1883C4.99952 68.1766 4.98889 68.1642 4.97915 68.1512C4.93631 68.0717 4.91493 67.9838 4.91684 67.895C4.90854 67.7669 4.91684 67.626 4.91684 67.4595L4.91823 67.4031ZM0.776888 71.3903C0.778203 71.3793 0.778203 71.3681 0.776888 71.357C0.785058 71.3446 0.791566 71.3312 0.796272 71.3173C0.833129 71.251 0.882882 71.1915 0.94304 71.1419C1.21996 70.9126 1.65611 70.7973 2.10195 70.7794C2.51915 70.7642 2.93691 70.7904 3.34808 70.8575C3.53308 70.9591 3.72774 71.0449 3.92962 71.1137C4.27487 71.2373 4.64086 71.3041 5.011 71.3109C5.3938 71.3168 5.76089 71.1703 6.01899 70.9087C5.69969 70.831 5.37616 70.769 5.04977 70.723C4.752 70.6936 4.4602 70.6255 4.18301 70.5206C3.63539 70.3165 3.17995 69.9449 2.89256 69.4678C2.62395 68.9988 2.55291 68.4544 2.69317 67.9398C2.76077 67.6984 2.88723 67.4745 3.06286 67.2853C3.22064 67.1262 3.43191 67.021 3.6624 66.9869C3.74838 66.9756 3.83606 66.9881 3.91439 67.0227C3.99193 67.0663 3.99193 67.0676 4.01824 67.1265C4.04594 67.2312 4.05575 67.3392 4.04731 67.4467C4.04731 67.5876 4.03208 67.749 4.04039 67.9372C4.04519 68.1625 4.1119 68.3829 4.23424 68.5777C4.31421 68.6987 4.42257 68.8016 4.55131 68.8787C4.61122 68.9088 4.6732 68.9354 4.73685 68.9581C4.79223 68.9747 4.85177 68.9939 4.903 69.0054C5.27291 69.0737 5.65112 69.0952 6.02729 69.0695C6.20452 69.0618 6.38037 69.0452 6.55898 69.0234C6.74934 69.0018 6.93739 68.9654 7.12113 68.9145C7.47005 68.8031 7.77189 68.6865 8.09035 68.5636C8.40881 68.4406 8.71065 68.3164 9.01941 68.1793C9.17311 68.1127 9.3268 68.0436 9.48049 67.968C9.55387 67.9321 9.61895 67.9001 9.69372 67.863C9.76312 67.9703 9.8484 68.0682 9.9471 68.1537C10.125 68.3045 10.3509 68.3979 10.5909 68.4201C10.4289 68.2956 10.2948 68.1428 10.1963 67.9706C10.1141 67.8054 10.0572 67.6303 10.0274 67.4505C10.0069 67.3381 9.97299 67.2282 9.92633 67.1227C9.8763 67.008 9.80868 66.9006 9.72556 66.8037C9.55791 66.607 9.33799 66.4539 9.08726 66.3593C8.83705 66.261 8.56486 66.2201 8.29389 66.2402C8.15825 66.2502 8.02438 66.2751 7.89512 66.3145C7.82589 66.3349 7.77466 66.3529 7.7262 66.3695L7.57666 66.4195C7.18104 66.5525 6.778 66.6658 6.36928 66.7589C6.1798 66.8028 5.98666 66.8319 5.79191 66.846C5.6314 66.8515 5.47169 66.8226 5.3253 66.7615C5.01654 66.6449 4.72992 66.399 4.67038 66.1774C4.63678 66.0796 4.65041 65.9732 4.70777 65.8854C4.79432 65.7611 4.90625 65.6536 5.0373 65.569C5.37194 65.3415 5.71951 65.1307 6.07852 64.9376C6.78577 64.5409 7.55497 64.2475 8.35896 64.0679C9.14995 63.9047 9.96899 63.8956 10.764 64.041C11.5493 64.1778 12.276 64.519 12.8589 65.0247C13.1394 65.2764 13.3787 65.5646 13.5692 65.8802C13.7783 66.1915 13.9652 66.495 14.2366 66.8857C14.447 66.4688 14.447 65.9872 14.2366 65.5703C14.1091 65.3094 13.9442 65.0656 13.7464 64.8453C14.6077 64.9504 15.7569 65.3077 16.6043 65.6792C17.4184 66.0352 18.7975 67.7912 18.6147 70.3516C18.3115 70.4259 18.0193 70.5027 17.7355 70.5796C17.417 70.6654 17.0861 70.755 16.7469 70.8357L16.4824 70.8985L16.445 71.1547C16.3487 71.7887 16.0261 72.3747 15.5284 72.8197C14.9538 73.3321 14.1826 73.642 13.3671 73.9725C12.6554 74.2581 11.9202 74.554 11.2902 74.9971C11.0451 75.1726 10.6934 75.3814 10.3209 75.6119C9.72971 75.9718 9.11911 76.3433 8.73834 76.6788C8.20794 77.1619 7.49163 77.4301 6.74728 77.4243C6.4219 77.414 6.00929 77.2526 5.88606 76.9709C5.77114 76.7147 5.92345 76.3509 6.30975 75.9462C6.51052 75.8924 6.71128 75.8348 6.9079 75.7695C7.61404 75.5466 8.30634 75.1931 8.70788 74.5501C7.92142 74.6411 7.30666 74.8575 6.65036 75.0381C6.3227 75.1213 5.98975 75.1854 5.65346 75.2302C5.31929 75.2789 4.98219 75.3084 4.64409 75.3186C4.32901 75.3376 4.01262 75.323 3.70116 75.2751C3.57305 75.2506 3.44914 75.2101 3.33286 75.1547C3.28659 75.1323 3.24257 75.1061 3.20132 75.0765C3.1618 75.0441 3.12649 75.0076 3.09609 74.9677C2.95302 74.7814 2.8836 74.5553 2.89948 74.3273C2.91787 74.1341 2.97815 73.9464 3.07671 73.7752L3.09886 73.7752C3.62548 73.8299 4.15684 73.8333 4.68423 73.7855C5.21022 73.7391 5.72897 73.6386 6.23083 73.4858C6.73675 73.3245 7.1857 73.0389 7.52958 72.6596C6.98821 72.7147 6.52021 72.8146 6.04668 72.9043C5.58087 73.0075 5.1058 73.0709 4.62746 73.0938C4.15033 73.1146 3.67215 73.0962 3.19855 73.0387C2.73902 72.9904 2.28892 72.8835 1.86103 72.7211C1.46842 72.577 1.13803 72.3172 0.920886 71.9821C0.825942 71.8345 0.773059 71.667 0.767195 71.4954C0.766927 71.4602 0.770171 71.425 0.776885 71.3904L0.776888 71.3903Z" id="Shape" fill="#FFFFFF" fill-rule="evenodd" stroke="none" />
          <path d="M12.1278 72.3996C12.1708 72.0359 12.1971 71.7195 12.2455 71.4147C12.2891 71.1181 12.3501 70.8239 12.4283 70.5335C12.5069 70.2445 12.604 69.9601 12.7191 69.6817C12.8354 69.3935 12.978 69.1079 13.1428 68.7749C12.7616 68.8802 12.4238 69.0896 12.1735 69.3756C11.9188 69.6593 11.7366 69.9924 11.6405 70.3503C11.5419 70.7068 11.5301 71.0791 11.6058 71.4403C11.6759 71.8 11.8572 72.1333 12.1278 72.3996L12.1278 72.3996Z" id="Shape" fill="#FFFFFF" fill-rule="evenodd" stroke="none" />
          <path d="M87.5387 70.3606C87.6168 70.6506 87.6778 70.9443 87.7215 71.2405C87.77 71.5466 87.7963 71.863 87.8392 72.2267C88.1086 71.9599 88.2889 71.6268 88.3584 71.2674C88.434 70.9062 88.4226 70.5341 88.3252 70.1774C88.2283 69.8191 88.0456 69.4856 87.7907 69.2014C87.5404 68.9157 87.2026 68.7068 86.8215 68.602C86.9863 68.9337 87.1289 69.2206 87.2452 69.5075C87.361 69.7863 87.459 70.0711 87.5387 70.3605L87.5387 70.3606Z" id="Shape" fill="#FFFFFF" fill-rule="evenodd" stroke="none" />
          <path d="M18.9152 63.9808C19.4088 64.3827 19.849 64.8376 20.2264 65.3359C20.618 65.8578 20.9563 66.4122 21.2371 66.992C21.2556 66.3172 21.0984 65.6481 20.7788 65.0413C20.1362 63.7863 18.9578 62.8355 17.5264 62.4169C16.8336 62.2058 16.0962 62.1517 15.3761 62.2594C16.0355 62.4371 16.6753 62.6721 17.2869 62.9613C17.8716 63.2398 18.4183 63.5821 18.9152 63.9808L18.9152 63.9808Z" id="Shape" fill="#FFFFFF" fill-rule="evenodd" stroke="none" />
          <path d="M52.4917 68.5239L48.745 68.5239C48.2549 68.5246 47.8576 68.8915 47.8561 69.3448L47.8561 70.4976C47.8568 70.9512 48.2546 71.3186 48.745 71.3186L52.4917 71.3186C52.9821 71.3186 53.3799 70.9512 53.3806 70.4976L53.3806 69.3449C53.3791 68.8915 52.9818 68.5246 52.4917 68.5238L52.4917 68.5239ZM52.8406 70.4963C52.8399 70.6741 52.6839 70.8178 52.4917 70.8178L48.745 70.8178C48.553 70.8178 48.3974 70.6739 48.3974 70.4963L48.3974 69.3436C48.3974 69.166 48.553 69.0221 48.745 69.0221L52.4917 69.0221C52.6839 69.0221 52.8399 69.1658 52.8406 69.3436L52.8406 70.4963Z" id="Shape" fill="#FFFFFF" fill-rule="evenodd" stroke="none" />
          <path d="M59.5532 56.8197C61.0405 56.8197 62.2462 55.7044 62.2462 54.3285C62.2462 52.9527 61.0405 51.8373 59.5532 51.8373C58.0659 51.8373 56.8601 52.9527 56.8601 54.3285C56.8616 55.7037 58.0664 56.8183 59.5531 56.8197L59.5532 56.8197ZM59.5532 52.593C60.5924 52.593 61.4349 53.3723 61.4349 54.3337C61.4349 55.295 60.5924 56.0743 59.5532 56.0743C58.514 56.0743 57.6715 55.295 57.6715 54.3337C57.67 53.3709 58.5125 52.5893 59.5532 52.5879L59.5532 52.593Z" id="Shape" fill="#FFFFFF" fill-rule="evenodd" stroke="none" />
          <path d="M59.369 55.3993C59.8372 55.3993 60.2593 55.1384 60.4384 54.7383C60.6176 54.3382 60.5186 53.8776 60.1875 53.5714C59.8565 53.2652 59.3586 53.1735 58.9261 53.3393C58.4935 53.505 58.2115 53.8954 58.2115 54.3285C58.2115 54.9199 58.7297 55.3993 59.369 55.3993L59.369 55.3993Z" id="Shape" fill="#FFFFFF" fill-rule="evenodd" stroke="none" />
          <path d="M58.062 59.195L58.062 58.8178C58.062 58.6961 58.1085 58.5923 58.2015 58.5063C58.2945 58.4202 58.4067 58.3772 58.5383 58.3772L60.3299 58.3772C60.4615 58.3772 60.5737 58.4202 60.6667 58.5063C60.7597 58.5923 60.8062 58.6961 60.8062 58.8178L60.8062 59.5722C60.8062 59.6939 60.7597 59.7977 60.6667 59.8838C60.5737 59.9698 60.4615 60.0128 60.3299 60.0128L58.5383 60.0128C58.4067 60.0128 58.2945 59.9698 58.2015 59.8838C58.1085 59.7977 58.062 59.6939 58.062 59.5722L58.062 59.195Z" id="Rectangle" fill="#FFFFFF" fill-rule="evenodd" stroke="none" />
          <path d="M26.4169 24.6699C26.0818 24.6699 25.8091 25.0195 25.8091 25.4499C25.8091 25.8802 26.086 26.2286 26.4169 26.2286C26.7478 26.2286 27.0234 25.8802 27.0234 25.4499C27.0234 25.0195 26.752 24.6699 26.4169 24.6699L26.4169 24.6699Z" id="Shape" fill="#FFFFFF" fill-rule="evenodd" stroke="none" />
          <path d="M28.138 31.4121C28.4537 31.3109 28.5866 30.8998 28.4343 30.4925C28.282 30.0852 27.9012 29.838 27.5855 29.9404C27.2698 30.0429 27.1355 30.4528 27.2878 30.8601C27.4401 31.2674 27.8209 31.5146 28.138 31.4121L28.138 31.4121Z" id="Shape" fill="#FFFFFF" fill-rule="evenodd" stroke="none" />
          <path d="M74.025 25.6561C74.3615 25.6561 74.6329 25.3077 74.6329 24.8774C74.6329 24.447 74.3559 24.0973 74.025 24.0973C73.6941 24.0973 73.4186 24.447 73.4186 24.8774C73.4186 25.3077 73.69 25.6561 74.025 25.6561L74.025 25.6561Z" id="Shape" fill="#FFFFFF" fill-rule="evenodd" stroke="none" />
          <path d="M72.3054 30.8396C72.621 30.942 72.9977 30.6948 73.1541 30.2875C73.3106 29.8802 73.1735 29.4691 72.8578 29.3679C72.5421 29.2667 72.1655 29.5127 72.0077 29.92C71.8498 30.3272 71.9883 30.7397 72.3054 30.8396L72.3054 30.8396Z" id="Shape" fill="#FFFFFF" fill-rule="evenodd" stroke="none" />
        </g>
      </g>
    </g>
  </g>
</svg>