<?xml version="1.0" encoding="utf-8"?>
<svg width="512.00006px" height="512.0005px" viewBox="0 0 512.00006 512.0005" version="1.1" xmlns:xlink="http://www.w3.org/1999/xlink" xmlns="http://www.w3.org/2000/svg">
  <defs>
    <path d="M0 0.000499728L512 0.000499728L512 512L0 512L0 0.000499728L0 0.000499728Z" id="path_1" />
    <clipPath id="mask_1">
      <use xlink:href="#path_1" />
    </clipPath>
  </defs>
  <g id="auths1_white" transform="translate(0 0.00048828125)">
    <g id="auths1_white">
      <g id="auths1">
        <path d="M0 0L512 0L512 512L0 512L0 0L0 0Z" id="Background" fill="#FFFFFF" fill-opacity="0" fill-rule="evenodd" stroke="none" />
        <g id="Mask-Group" transform="translate(-0 -0.00049972825)">
          <path d="M0 0.000499728L512 0.000499728L512 512L0 512L0 0.000499728L0 0.000499728Z" id="path_1" fill="none" fill-rule="evenodd" stroke="none" />
          <g clip-path="url(#mask_1)">
            <g id="Group" transform="translate(0.0009999275 0)">
              <g id="Group">
                <g id="Group#1">
                  <path d="M463.747 48.2515C399.411 -16.0845 294.734 -16.0835 230.398 48.2525C186.453 92.1975 171.189 156.959 190.217 215.714L4.395 401.536C1.582 404.349 0 408.158 0 412.142L0 497C0 505.292 6.709 512 15 512L99.858 512C103.842 512 107.651 510.418 110.463 507.605L131.674 486.379C134.911 483.142 136.493 478.602 135.966 474.045L133.329 451.252L164.911 448.278C172.089 447.604 177.758 441.935 178.432 434.757L181.406 403.175L204.199 405.826C208.432 406.397 212.695 404.976 215.903 402.135C219.096 399.279 220.927 395.206 220.927 390.929L220.927 363L248.349 363C252.333 363 256.142 361.418 258.954 358.605L297.421 320.647C356.161 339.69 419.802 325.576 463.747 281.602C528.083 217.267 528.083 112.587 463.747 48.2515L463.747 48.2515L463.747 48.2515ZM421.312 154.322C403.763 171.87 375.228 171.87 357.679 154.322C340.13 136.773 340.13 108.238 357.679 90.6885C375.228 73.1395 403.763 73.1395 421.312 90.6885C438.861 108.238 438.86 136.773 421.312 154.322L421.312 154.322L421.312 154.322Z" id="Shape" fill="#FFD900" fill-rule="evenodd" stroke="none" />
                </g>
              </g>
            </g>
          </g>
        </g>
      </g>
    </g>
  </g>
</svg>