<?xml version="1.0" encoding="utf-8"?>
<svg width="456.556px" height="456.556px" viewBox="0 0 456.556 456.556" version="1.1" xmlns:xlink="http://www.w3.org/1999/xlink" xmlns="http://www.w3.org/2000/svg">
  <defs>
    <path d="M0 0L456.556 0L456.556 456.556L0 456.556L0 0Z" id="path_1" />
    <clipPath id="mask_1">
      <use xlink:href="#path_1" />
    </clipPath>
  </defs>
  <g id="general">
    <path d="M0 0L456.556 0L456.556 456.556L0 456.556L0 0Z" id="Background" fill="#FFFFFF" fill-opacity="0" fill-rule="evenodd" stroke="none" />
    <g clip-path="url(#mask_1)">
      <g id="Group" transform="translate(-9.536743E-07 4.5029907)">
        <path d="M97.564 74.94L13.428 74.94C6.011 74.94 9.53674e-07 68.925 9.53674e-07 61.512C9.53674e-07 54.099 6.011 48.084 13.428 48.084L97.564 48.084C104.981 48.084 110.992 54.099 110.992 61.512C110.992 68.925 104.981 74.94 97.564 74.94L97.564 74.94Z" id="Shape" fill="#FFFFFF" stroke="none" />
        <path d="M145.643 123.015C111.727 123.015 84.136 95.424 84.136 61.511C84.136 27.591 111.727 0 145.643 0C179.559 0 207.15 27.591 207.15 61.511C207.15 95.425 179.559 123.015 145.643 123.015L145.643 123.015ZM145.643 26.857C126.536 26.857 110.992 42.404 110.992 61.511C110.992 80.618 126.536 96.158 145.643 96.158C164.75 96.158 180.294 80.618 180.294 61.511C180.294 42.404 164.75 26.857 145.643 26.857L145.643 26.857Z" id="Shape" fill="#FFFFFF" fill-rule="evenodd" stroke="none" />
        <path d="M443.128 74.94L242.433 74.94C235.016 74.94 229.005 68.925 229.005 61.512C229.005 54.099 235.016 48.084 242.433 48.084L443.127 48.084C450.544 48.084 456.555 54.099 456.555 61.512C456.555 68.925 450.545 74.94 443.128 74.94L443.128 74.94Z" id="Shape" fill="#FFFFFF" stroke="none" />
        <path d="M325.936 285.279C292.019 285.279 264.429 257.688 264.429 223.775C264.429 189.862 292.02 162.271 325.936 162.271C359.852 162.271 387.443 189.862 387.443 223.775C387.443 257.688 359.853 285.279 325.936 285.279L325.936 285.279ZM325.936 189.128C306.829 189.128 291.285 204.668 291.285 223.775C291.285 242.882 306.829 258.422 325.936 258.422C345.043 258.422 360.587 242.882 360.587 223.775C360.587 204.668 345.043 189.128 325.936 189.128L325.936 189.128Z" id="Shape" fill="#FFFFFF" fill-rule="evenodd" stroke="none" />
        <path d="M229.149 237.203L13.428 237.203C6.011 237.203 9.53674e-07 231.188 9.53674e-07 223.775C9.53674e-07 216.362 6.011 210.347 13.428 210.347L229.149 210.347C236.566 210.347 242.577 216.362 242.577 223.775C242.577 231.188 236.566 237.203 229.149 237.203L229.149 237.203Z" id="Shape" fill="#FFFFFF" stroke="none" />
        <path d="M443.128 237.203L374.015 237.203C366.598 237.203 360.587 231.188 360.587 223.775C360.587 216.362 366.598 210.347 374.015 210.347L443.128 210.347C450.545 210.347 456.556 216.362 456.556 223.775C456.556 231.188 450.545 237.203 443.128 237.203L443.128 237.203Z" id="Shape" fill="#FFFFFF" stroke="none" />
        <path d="M130.62 447.549C96.704 447.549 69.113 419.958 69.113 386.038C69.113 352.125 96.704 324.534 130.62 324.534C164.536 324.534 192.127 352.125 192.127 386.038C192.127 419.958 164.536 447.549 130.62 447.549L130.62 447.549ZM130.62 351.391C111.513 351.391 95.969 366.931 95.969 386.038C95.969 405.145 111.513 420.692 130.62 420.692C149.727 420.692 165.271 405.145 165.271 386.038C165.271 366.931 149.727 351.391 130.62 351.391L130.62 351.391Z" id="Shape" fill="#FFFFFF" fill-rule="evenodd" stroke="none" />
        <path d="M443.128 399.467L227.407 399.467C219.99 399.467 213.979 393.452 213.979 386.039C213.979 378.626 219.99 372.611 227.407 372.611L443.128 372.611C450.545 372.611 456.556 378.626 456.556 386.039C456.556 393.452 450.545 399.467 443.128 399.467L443.128 399.467Z" id="Shape" fill="#FFFFFF" stroke="none" />
        <path d="M82.541 399.467L13.428 399.467C6.011 399.467 9.53674e-07 393.452 9.53674e-07 386.038C9.53674e-07 378.625 6.011 372.61 13.428 372.61L82.541 372.61C89.958 372.61 95.969 378.625 95.969 386.038C95.969 393.452 89.958 399.467 82.541 399.467L82.541 399.467Z" id="Shape" fill="#FFFFFF" stroke="none" />
      </g>
    </g>
  </g>
</svg>