<svg height="512pt" viewBox="0 0 512 512.001" width="512pt" xmlns="http://www.w3.org/2000/svg" xmlns:xlink="http://www.w3.org/1999/xlink"><linearGradient id="a"><stop offset="0" stop-color="#ff4974"/><stop offset=".4073" stop-color="#fe4772"/><stop offset=".5963" stop-color="#fb3f6d"/><stop offset=".7403" stop-color="#f73363"/><stop offset=".8615" stop-color="#f02055"/><stop offset=".9673" stop-color="#e70944"/><stop offset="1" stop-color="#e4003d"/></linearGradient><radialGradient id="b" cx="173.9165339452" cy="104.1061090468" gradientUnits="userSpaceOnUse" r="407.5549861016" xlink:href="#a"/><radialGradient id="c" cx="-868.3687" cy="145.1402" gradientTransform="matrix(-1.003922 0 0 -1.003922 -556.172049 512)" gradientUnits="userSpaceOnUse" r="294.7708" xlink:href="#a"/><linearGradient id="d" gradientUnits="userSpaceOnUse" x1="437.896719531" x2="254.0222813068" y1="437.896219531" y2="254.0217813068"><stop offset="0" stop-color="#e4003d" stop-opacity="0"/><stop offset=".5838" stop-color="#bd294b" stop-opacity=".584314"/><stop offset="1" stop-color="#a64153"/></linearGradient><radialGradient id="e" cx="216.0220265472" cy="182.02109782" gradientUnits="userSpaceOnUse" r="198.4971645074"><stop offset="0" stop-color="#ffc738"/><stop offset=".4873" stop-color="#ffc636"/><stop offset=".6746" stop-color="#ffc22f"/><stop offset=".8103" stop-color="#ffbb23"/><stop offset=".9203" stop-color="#ffb112"/><stop offset="1" stop-color="#ffa700"/></radialGradient><path d="m489.460938 184.375h-6.125c-20.085938 0-30.136719-24.273438-15.941407-38.484375l4.328125-4.324219c8.808594-8.808594 8.808594-23.074218 0-31.882812l-69.410156-69.40625c-8.804688-8.808594-23.070312-8.808594-31.878906 0l-4.324219 4.324218c-14.210937 14.199219-38.484375 4.148438-38.484375-15.9375v-6.125c.003906-12.445312-10.09375-22.539062-22.539062-22.539062h-98.171876c-12.445312 0-22.539062 10.09375-22.539062 22.542969v6.121093c0 20.089844-24.273438 30.136719-38.484375 15.941407l-4.324219-4.328125c-8.808594-8.804688-23.074218-8.804688-31.878906 0l-69.410156 69.410156c-8.808594 8.804688-8.808594 23.070312 0 31.878906l4.328125 4.328125c14.195312 14.207031 4.144531 38.480469-15.941407 38.480469h-6.125c-12.445312 0-22.539062 10.09375-22.539062 22.539062v98.171876c0 12.445312 10.09375 22.539062 22.542969 22.539062h6.121093c20.089844 0 30.140626 24.273438 15.941407 38.484375l-4.328125 4.324219c-8.804688 8.808594-8.804688 23.074218 0 31.882812l69.410156 69.40625c8.808594 8.808594 23.074219 8.808594 31.878906 0l4.328125-4.324218c14.207031-14.199219 38.480469-4.152344 38.480469 15.9375v6.125c0 12.445312 10.09375 22.539062 22.539062 22.539062h98.171876c9.328124 0 17.3125-5.671875 20.734374-13.746094.023438-.054687.042969-.109375.066407-.164062.164062-.394532.324219-.789063.464843-1.195313.171876-.480469.328126-.96875.464844-1.464843.066406-.234376.121094-.476563.191406-.722657.121094-.476562.21875-.964843.296876-1.453125.042968-.253906.078124-.5.109374-.742187.066407-.453125.113282-.910157.144532-1.375.023437-.167969.035156-.355469.035156-.53125.023438-.378907.03125-.765625.03125-1.144531v-6.121094c0-20.089844 24.273438-30.140625 38.484375-15.941406l4.324219 4.328124c8.808594 8.804688 23.074218 8.804688 31.878906 0l69.410156-69.410156c8.808594-8.808594 8.808594-23.074218 0-31.878906l-4.328125-4.328125c-14.195312-14.207031-4.144531-38.480469 15.941407-38.480469h6.125c.375 0 .761718-.011718 1.140624-.035156.179688 0 .367188-.007812.53125-.03125.46875-.03125.921876-.078125 1.375-.144531.246094-.03125.488282-.066407.746094-.109375.484375-.078125.972656-.179688 1.449219-.300782.246094-.066406.488281-.121093.722656-.1875.496094-.140624.984375-.296874 1.464844-.46875.40625-.140624.800781-.300781 1.195313-.460937.054687-.023437.113281-.046875.164062-.070313 8.078125-3.425781 13.75-11.410156 13.75-20.734374v-98.171876c0-12.445312-10.09375-22.539062-22.539062-22.539062zm-305.621094 71.625c0-39.855469 32.304687-72.160156 72.160156-72.160156s72.160156 32.304687 72.160156 72.160156-32.304687 72.160156-72.160156 72.160156-72.160156-32.304687-72.160156-72.160156zm0 0" fill="url(#b)"/><path d="m256 441.882812c102.664062 0 185.882812-83.21875 185.882812-185.882812s-83.21875-185.882812-185.882812-185.882812c-3.148438 0-6.289062.078124-9.394531.234374-95.1875 4.734376-171.519531 81.066407-176.253907 176.253907-.15625 3.105469-.234374 6.246093-.234374 9.394531 0 102.664062 83.21875 185.882812 185.882812 185.882812zm0-113.722656c-39.855469 0-72.160156-32.304687-72.160156-72.160156s32.304687-72.160156 72.160156-72.160156 72.160156 32.304687 72.160156 72.160156-32.304687 72.160156-72.160156 72.160156zm0 0" fill="url(#c)"/><path d="m346.574219 170.320312c0-.011718-.011719-.011718-.011719-.011718-1.417969-1.5-2.875-2.960938-4.359375-4.382813-.742187-.71875-1.511719-1.417969-2.265625-2.117187-.761719-.699219-1.539062-1.375-2.316406-2.0625-.011719-.011719-.011719-.023438-.023438-.023438-.777344-.664062-1.5625-1.320312-2.351562-1.972656-2.371094-1.964844-4.824219-3.839844-7.34375-5.613281-.144532-.109375-.296875-.222657-.441406-.3125-.679688-.476563-1.355469-.941407-2.03125-1.394531-1.097657-.746094-2.207032-1.464844-3.328126-2.152344-.6875-.433594-1.375-.867188-2.074218-1.277344-.863282-.519531-1.730469-1.019531-2.597656-1.519531-.164063-.101563-.339844-.199219-.519532-.289063-.621094-.355468-1.242187-.699218-1.875-1.03125-.464844-.253906-.929687-.511718-1.40625-.742187-.488281-.265625-.976562-.511719-1.464844-.753907-.265624-.144531-.53125-.277343-.808593-.410156-.65625-.335937-1.320313-.644531-1.976563-.957031-.355468-.175781-.722656-.351563-1.085937-.507813-.578125-.277343-1.164063-.542968-1.753907-.800781-.289062-.132812-.578124-.253906-.867187-.375-.640625-.289062-1.296875-.566406-1.949219-.832031-.378906-.15625-.753906-.3125-1.132812-.457031-.589844-.242188-1.175782-.476563-1.773438-.699219-.300781-.132812-.613281-.242188-.910156-.34375-.6875-.265625-1.375-.519531-2.0625-.761719-.347656-.136719-.691406-.257812-1.042969-.367187-.765625-.265625-1.542969-.53125-2.332031-.777344-.066406-.03125-.121094-.042969-.1875-.066406-.855469-.277344-1.730469-.542969-2.597656-.808594-.234375-.066406-.476563-.144531-.71875-.210938-.601563-.179687-1.210938-.34375-1.820313-.511718-.523437-.144532-1.042969-.285156-1.574219-.421875-.511718-.132813-1.035156-.265625-1.554687-.386719-.386719-.109375-.789063-.210938-1.1875-.289062-.785156-.199219-1.574219-.378907-2.363281-.542969-.210938-.042969-.421875-.097657-.640625-.132813-.601563-.132812-1.199219-.253906-1.800781-.367187-.628907-.132813-1.261719-.242188-1.894532-.355469-.089844-.023438-.175781-.03125-.265625-.042969-.898437-.167969-1.808593-.320312-2.707031-.457031-.929688-.144531-1.851562-.277344-2.785156-.398438-.699219-.089843-1.40625-.175781-2.128906-.253906-.453126-.054687-.910157-.109375-1.375-.15625-.265626-.023437-.53125-.054687-.808594-.066406-.8125-.089844-1.632813-.167969-2.453125-.222656-3.171875-.242188-6.378907-.367188-9.605469-.367188-68.863281 0-124.683594 55.820313-124.683594 124.683594 0 3.230469.121094 6.433594.367188 9.609375.054687.820313.132812 1.640625.222656 2.449219.007812.277344.042969.542968.066406.8125.042969.464844.097656.917968.152344 1.375.078125.71875.167969 1.429687.257812 2.128906.121094.929688.253907 1.851562.398438 2.785156.132812.898438.289062 1.808594.453125 2.707032.011719.085937.023437.175781.046875.265624.109375.632813.222656 1.261719.355469 1.894532.109375.601562.230469 1.199218.363281 1.796875.035156.222656.089844.433593.136719.644531.164062.789062.34375 1.574219.542969 2.363281.078124.398438.175781.796875.285156 1.1875.125.519531.257812 1.042969.390625 1.550781.132812.53125.277343 1.054688.421875 1.574219.167968.613281.332031 1.222657.507812 1.820313.066406.246094.144532.488281.210938.722656.269531.863281.535156 1.742188.8125 2.59375.019531.066406.03125.125.066406.191406.242188.785156.507812 1.5625.773438 2.328125.113281.355469.234374.699219.367187 1.042969.246094.6875.5 1.375.765625 2.0625.101562.300781.210938.613281.34375.910156.222656.601563.457031 1.1875.699219 1.777344.144531.375.300781.753906.457031 1.128906.265625.65625.542969 1.308594.832031 1.953125.121094.289063.242188.578125.375.867188.253907.585937.523438 1.175781.800781 1.75.15625.367187.332032.734375.507813 1.089843.3125.652344.621094 1.320313.957031 1.972657.132813.277343.265625.542969.410156.8125.242188.488281.488282.972656.753907 1.460937.230469.476563.488281.945313.742187 1.410156.332032.632813.675782 1.253907 1.03125 1.875.089844.175782.1875.355469.289063.519532.5.867187.996093 1.730468 1.519531 2.597656.410156.699219.84375 1.386719 1.277344 2.074219 1.21875 1.972656 2.503906 3.902343 3.859375 5.800781 1.773437 2.515625 3.648437 4.96875 5.613281 7.34375.652344.785156 1.308594 1.574219 1.972656 2.351562 0 .011719.011719.011719.023438.023438.6875.777344 1.363281 1.550781 2.0625 2.316406.699218.753906 1.398437 1.519532 2.117187 2.261719 1.421875 1.488281 2.886719 2.941406 4.382813 4.363281 0 0 0 .007813.011718.007813l95.074219 95.078125 59.148438 59.148437c.964843-1.664062 1.742187-3.460937 2.273437-5.371093.066406-.230469.121094-.476563.1875-.71875.113282-.476563.210938-.964844.300782-1.453126.042968-.257812.078124-.5.109374-.742187.066407-.457031.109376-.910156.144532-1.378906.023437-.164063.035156-.355469.035156-.53125.019531-.375.03125-.765625.03125-1.140625v-6.125c0-20.089844 24.269531-30.136719 38.480469-15.9375l4.328125 4.324218c8.804687 8.808594 23.070312 8.808594 31.878906 0l69.410156-69.40625c8.804688-8.808593 8.804688-23.074218 0-31.882812l-4.328125-4.324219c-14.199219-14.210937-4.148437-38.484375 15.941407-38.484375h6.121093c.378907 0 .765625-.007812 1.144531-.03125.175782 0 .367188-.011718.53125-.03125.464844-.035156.921876-.078125 1.375-.144531.246094-.035156.488282-.066406.742188-.113281.488281-.089844.976562-.1875 1.453125-.296875.246094-.066407.488281-.125.722656-.191407 1.90625-.53125 3.703125-1.308593 5.367188-2.273437zm-90.574219 13.519532c39.855469 0 72.160156 32.304687 72.160156 72.160156s-32.304687 72.160156-72.160156 72.160156-72.160156-32.304687-72.160156-72.160156 32.304687-72.160156 72.160156-72.160156zm0 0" fill="url(#d)"/><path d="m346.574219 170.320312c0-.011718-.011719-.011718-.011719-.011718-1.410156-1.5-2.863281-2.960938-4.359375-4.382813-.742187-.71875-1.511719-1.417969-2.265625-2.117187-.761719-.699219-1.539062-1.375-2.316406-2.0625-.011719-.011719-.011719-.023438-.023438-.023438-.777344-.664062-1.5625-1.320312-2.351562-1.972656-2.371094-1.976562-4.824219-3.839844-7.34375-5.613281-.144532-.109375-.296875-.222657-.441406-.3125-.679688-.476563-1.355469-.941407-2.03125-1.394531-1.097657-.746094-2.207032-1.464844-3.328126-2.152344-.6875-.433594-1.375-.867188-2.074218-1.277344-.863282-.519531-1.730469-1.019531-2.597656-1.519531-.164063-.101563-.339844-.199219-.519532-.289063-.621094-.355468-1.242187-.699218-1.875-1.03125-.464844-.253906-.929687-.511718-1.40625-.742187-.488281-.265625-.976562-.511719-1.464844-.753907-.265624-.144531-.53125-.277343-.808593-.410156-.65625-.335937-1.320313-.644531-1.976563-.957031-.355468-.175781-.722656-.351563-1.085937-.507813-.578125-.277343-1.164063-.542968-1.753907-.800781-.289062-.132812-.578124-.253906-.867187-.375-.640625-.289062-1.296875-.566406-1.949219-.832031-.378906-.15625-.753906-.3125-1.132812-.457031-.589844-.242188-1.175782-.476563-1.773438-.699219-.300781-.132812-.613281-.242188-.910156-.34375-.6875-.265625-1.375-.519531-2.0625-.761719-.347656-.136719-.691406-.257812-1.042969-.367187-.765625-.265625-1.542969-.53125-2.332031-.777344-.066406-.03125-.121094-.042969-.1875-.066406-.855469-.277344-1.730469-.542969-2.597656-.808594-.234375-.066406-.476563-.144531-.71875-.210938-.601563-.179687-1.210938-.34375-1.820313-.511718-.523437-.144532-1.042969-.285156-1.574219-.421875-.511718-.132813-1.035156-.265625-1.554687-.386719-.386719-.109375-.789063-.210938-1.1875-.289062-.785156-.199219-1.574219-.378907-2.363281-.542969-.210938-.042969-.421875-.097657-.640625-.132813-.601563-.132812-1.199219-.253906-1.800781-.367187-.628907-.132813-1.261719-.242188-1.894532-.355469-.089844-.023438-.175781-.03125-.265625-.042969-.898437-.167969-1.808593-.320312-2.707031-.457031-.929688-.144531-1.851562-.277344-2.785156-.398438-.699219-.089843-1.40625-.175781-2.128906-.253906-.453126-.054687-.910157-.109375-1.375-.15625-.265626-.023437-.53125-.054687-.808594-.066406-.8125-.089844-1.632813-.167969-2.453125-.222656-3.171875-.242188-6.378907-.367188-9.605469-.367188-68.863281 0-124.683594 55.820313-124.683594 124.683594 0 3.230469.121094 6.433594.367188 9.609375.054687.820313.132812 1.640625.222656 2.449219.007812.277344.042969.542968.066406.8125.042969.464844.097656.917968.152344 1.375.078125.71875.167969 1.429687.257812 2.128906.121094.929688.253907 1.851562.398438 2.785156.132812.898438.289062 1.808594.453125 2.707032.011719.085937.023437.175781.046875.265624.109375.632813.222656 1.261719.355469 1.894532.109375.601562.230469 1.199218.363281 1.796875.035156.222656.089844.433593.136719.644531.164062.789062.34375 1.574219.542969 2.363281.078124.398438.175781.796875.285156 1.1875.125.519531.257812 1.042969.390625 1.550781.132812.53125.277343 1.054688.421875 1.574219.167968.613281.332031 1.222657.507812 1.820313.066406.246094.144532.488281.210938.722656.269531.863281.535156 1.742188.8125 2.59375.019531.066406.03125.125.066406.191406.242188.785156.507812 1.5625.773438 2.328125.113281.355469.234374.699219.367187 1.042969.246094.6875.5 1.375.765625 2.0625.101562.300781.210938.613281.34375.910156.222656.601563.457031 1.1875.699219 1.777344.144531.375.300781.753906.457031 1.128906.265625.65625.542969 1.308594.832031 1.953125.121094.289063.242188.578125.375.867188.253907.585937.523438 1.175781.800781 1.75.15625.367187.332032.734375.507813 1.089843.3125.652344.621094 1.320313.957031 1.972657.132813.277343.265625.542969.410156.8125.242188.488281.488282.972656.753907 1.460937.230469.476563.488281.945313.742187 1.410156.332032.632813.675782 1.253907 1.03125 1.875.089844.175782.1875.355469.289063.519532.5.867187.996093 1.730468 1.519531 2.597656.410156.699219.84375 1.386719 1.277344 2.074219 1.21875 1.972656 2.503906 3.902343 3.859375 5.800781 1.773437 2.515625 3.636719 4.96875 5.613281 7.34375.652344.785156 1.308594 1.574219 1.972656 2.351562 0 .011719.011719.011719.023438.023438.6875.777344 1.363281 1.550781 2.0625 2.316406.699218.753906 1.398437 1.519532 2.117187 2.261719 1.421875 1.5 2.886719 2.953125 4.382813 4.363281 0 0 0 .007813.011718.007813 22.339844 21.144531 52.488282 34.113281 85.679688 34.113281 68.863281 0 124.683594-55.820312 124.683594-124.683594 0-33.195312-12.96875-63.34375-34.109375-85.683594zm-90.574219 157.839844c-39.855469 0-72.160156-32.304687-72.160156-72.160156s32.304687-72.160156 72.160156-72.160156 72.160156 32.304687 72.160156 72.160156-32.304687 72.160156-72.160156 72.160156zm0 0" fill="url(#e)"/></svg>