<?xml version="1.0" encoding="utf-8"?>
<svg width="512px" height="512px" viewBox="0 0 512 512" version="1.1" xmlns:xlink="http://www.w3.org/1999/xlink" xmlns="http://www.w3.org/2000/svg">
  <defs>
    <path d="M0 0L512 0L512 512L0 512L0 0L0 0L0 0Z" id="path_1" />
    <clipPath id="mask_1">
      <use xlink:href="#path_1" />
    </clipPath>
  </defs>
  <g id="blackhole_dark">
    <g id="008-blackhole_lunacy">
      <g id="008-blackhole">
        <path d="M0 0L512 0L512 512L0 512L0 0L0 0L0 0Z" id="Background" fill="#000" fill-opacity="0" fill-rule="evenodd" stroke="none" />
        <g id="Mask-Group">
          <path d="M0 0L512 0L512 512L0 512L0 0L0 0L0 0Z" id="path_1#1" fill="none" stroke="none" />
          <g id="Mask-Group">
            <path d="M0 0L512 0L512 512L0 512L0 0L0 0L0 0Z" id="path_1" fill="none" stroke="none" />
            <g clip-path="url(#mask_1)">
              <g id="Group" transform="translate(15.999772 15.98446)">
                <g id="Group">
                  <path d="M136 240.016C136 182.578 182.562 136.016 240 136.016C297.438 136.016 344 182.578 344 240.016C344 297.454 297.438 344.016 240 344.016C182.562 344.016 136 297.454 136 240.016L136 240.016L136 240.016Z" id="Circle" fill="#FFFFFF" fill-rule="evenodd" stroke="none" />
                  <path d="M96.0002 32.0155C96.0002 18.7607 106.745 8.01554 120 8.01554C133.255 8.01554 144 18.7607 144 32.0155C144 45.2703 133.255 56.0155 120 56.0155C106.745 56.0155 96.0002 45.2703 96.0002 32.0155L96.0002 32.0155L96.0002 32.0155Z" id="Circle#1" fill="#FFFFFF" fill-rule="evenodd" stroke="none" />
                  <path d="M8.00023 96.0155C8.00023 78.3424 22.3271 64.0155 40.0002 64.0155C57.6733 64.0155 72.0002 78.3424 72.0002 96.0155C72.0002 113.689 57.6733 128.016 40.0002 128.016C22.3271 128.016 8.00023 113.689 8.00023 96.0155L8.00023 96.0155L8.00023 96.0155Z" id="Circle#2" fill="#FFFFFF" fill-rule="evenodd" stroke="none" />
                  <path d="M384 416.016C384 398.343 398.327 384.016 416 384.016C433.673 384.016 448 398.343 448 416.016C448 433.689 433.673 448.016 416 448.016C398.327 448.016 384 433.689 384 416.016L384 416.016L384 416.016Z" id="Circle#3" fill="#FFFFFF" fill-rule="evenodd" stroke="none" />
                  <path d="M306.343 61.6725C338.043 93.3725 356.219 139.419 356.219 188.016C356.219 202.044 354.695 215.985 351.673 229.638C349.014 184.131 328.921 141.731 294.405 109.264C258.056 74.9879 209.961 55.9338 160 56.0155C155.586 56.0216 152.011 59.6015 152.011 64.0155C152.011 68.4294 155.586 72.0094 160 72.0155C205.838 72.1844 249.924 89.6485 283.443 120.916C290.991 128.004 297.892 135.751 304.064 144.065C271.62 120.788 230.672 107.797 188 107.797C135.192 107.797 85.0182 127.684 50.3432 162.359C47.2189 165.483 47.2189 170.549 50.3432 173.673C53.4674 176.797 58.5329 176.797 61.6572 173.673C93.3572 141.973 139.403 123.797 188 123.797C201.95 123.794 215.86 125.307 229.483 128.311C183.734 130.792 141.426 149.427 109.419 181.435C74.9712 215.882 56.0002 262.257 56.0002 312.016C56.0002 316.434 59.5819 320.016 64.0002 320.016C68.4184 320.016 72.0002 316.434 72.0002 312.016C72.0002 252.021 101.934 200.316 148 170.662C122.249 203.885 107.781 246.989 107.781 292.016C107.781 344.824 127.668 394.998 162.343 429.673C165.467 432.797 170.533 432.797 173.657 429.673C176.781 426.548 176.781 421.483 173.657 418.359C141.957 386.659 123.781 340.613 123.781 292.016C123.776 278.055 125.296 264.113 128.312 250.459C130.986 295.901 151.079 338.301 185.595 370.768C221.944 405.044 270.039 424.098 320 424.016C324.418 424.016 328 420.434 328 416.016C328 411.598 324.418 408.016 320 408.016C274.162 407.847 230.076 390.383 196.557 359.116C189.147 352.158 182.36 344.565 176.274 336.425C208.186 359.674 246.944 372.238 288 372.238C339.005 372.238 386.472 352.861 421.657 317.676C424.781 314.552 424.781 309.486 421.657 306.362C418.533 303.238 413.467 303.238 410.343 306.362C378.181 338.522 334.731 356.235 288 356.235C274.636 356.246 261.313 354.763 248.278 351.814C294.552 349.66 337.778 329.479 370.752 294.421C405.028 258.072 424.082 209.977 424 160.016C424 155.598 420.418 152.016 416 152.016C411.582 152.016 408 155.598 408 160.016C407.831 205.855 390.367 249.94 359.1 283.459C352.012 291.007 344.265 297.908 335.951 304.079C359.231 271.636 372.222 230.688 372.222 188.016C372.222 135.208 352.335 85.0335 317.66 50.3585C314.536 47.2342 309.47 47.2342 306.346 50.3585C303.222 53.4827 303.222 58.5482 306.346 61.6725L306.343 61.6725L306.343 61.6725L306.343 61.6725ZM336 240.016C336 293.035 293.019 336.016 240 336.016C186.981 336.016 144 293.036 144 240.016C144 186.997 186.98 144.016 239.999 144.016C292.994 144.075 335.94 187.021 336 240.016L336 240.016L336 240.016L336 240.016Z" id="Shape" fill="#FFFFFF" fill-rule="evenodd" stroke="none" />
                  <path d="M193.646 464.187C144.497 453.848 99.4652 425.587 66.8462 384.62C34.0885 343.525 16.1715 292.569 16.0002 240.016C16.0002 203.816 24.7799 168.116 41.588 136.01C53.884 135.534 65.2753 129.42 72.4689 119.437C79.6625 109.453 81.8563 96.7125 78.4162 84.8975C86.8682 76.0957 96.0192 67.9939 105.781 60.6717C115.381 65.4451 126.734 65.0896 136.017 59.7249C145.299 54.3603 151.275 44.7006 151.932 33.9995C179.757 22.0689 209.725 15.949 240 16.0155C263.514 16.0155 283.728 18.5315 301.8 23.7055C306.012 24.8231 310.344 22.3634 311.543 18.1734C312.742 13.9835 310.366 9.60494 306.2 8.32554C286.681 2.73354 265.025 0.0155401 240 0.0155401C208.699 -0.0479603 177.693 6.06024 148.755 17.9905C143.515 7.22484 132.702 0.28634 120.731 0.00864029C108.761 -0.26896 97.6382 6.16074 91.9042 16.672C86.1712 27.1832 86.7862 40.0163 93.5002 49.9304C85.4072 56.1782 77.7176 62.9328 70.479 70.1537C59.7276 57.4756 42.2535 52.7721 26.5908 58.3403C10.9281 63.9084 0.344228 78.5865 0.00822735 95.2065C-0.327772 111.826 9.65413 126.92 25.079 133.117C8.58913 166.34 0.00592709 202.926 0.000227928 240.016C0.175828 296.184 19.3189 350.651 54.326 394.582C89.2612 438.462 137.568 468.741 190.354 479.845C194.677 480.753 198.919 477.984 199.828 473.662C200.737 469.339 197.97 465.097 193.647 464.187L193.646 464.187L193.646 464.187L193.646 464.187ZM120 16.0155C128.837 16.0155 136 23.1789 136 32.0155C136 40.852 128.837 48.0155 120 48.0155C111.164 48.0155 104 40.8521 104 32.0156C104.011 23.1831 111.168 16.0258 120 16.0155L120 16.0155L120 16.0155L120 16.0155ZM16.0002 96.0155C16.0002 82.7607 26.7453 72.0155 40.0001 72.0155C53.255 72.0155 64.0001 82.7606 64.0002 96.0155C64.0002 109.271 53.2551 120.016 40.0003 120.016C26.7518 120.001 16.0156 109.264 16.0002 96.0155L16.0002 96.0155L16.0002 96.0155L16.0002 96.0155Z" id="Shape#1" fill="#FFFFFF" fill-rule="evenodd" stroke="none" />
                  <path d="M434.542 380.59C464.27 339.765 480.196 290.518 480 240.016C480.105 194.7 467.448 150.266 443.478 111.803C420.17 74.4953 386.962 44.3924 347.553 24.8475C343.594 22.8853 338.794 24.5037 336.832 28.4625C334.87 32.4213 336.488 37.2212 340.447 39.1835C377.202 57.4118 408.174 85.4885 429.911 120.284C452.29 156.203 464.104 197.696 464 240.016C464.191 289.221 447.993 337.088 417.962 376.066C417.312 376.034 416.662 376.016 416 376.016C393.919 376.041 376.025 393.935 376 416.016C376 416.672 376.018 417.324 376.05 417.973C337.071 448.002 289.204 464.201 240 464.016C235.588 464.025 232.016 467.604 232.016 472.016C232.016 476.428 235.588 480.007 240 480.016C290.501 480.209 339.748 464.285 380.576 434.562C388.557 449.821 405.411 458.258 422.409 455.503C439.408 452.748 452.734 439.42 455.487 422.421C458.24 405.422 449.802 388.57 434.542 380.59L434.542 380.59L434.542 380.59L434.542 380.59ZM416 440.016C402.745 440.016 392 429.271 392 416.016C392 402.761 402.745 392.016 416 392.016C429.255 392.016 440 402.761 440 416.016C439.985 429.264 429.249 440 416 440.016L416 440.016L416 440.016L416 440.016Z" id="Shape#2" fill="#FFFFFF" fill-rule="evenodd" stroke="none" />
                </g>
              </g>
            </g>
          </g>
        </g>
      </g>
    </g>
  </g>
</svg>