<?xml version="1.0" encoding="utf-8"?>
<svg width="124px" height="22px" viewBox="0 0 124 22" version="1.1" xmlns:xlink="http://www.w3.org/1999/xlink" xmlns="http://www.w3.org/2000/svg">
  <defs>
    <path d="M0 0L124 0L124 22L0 22L0 0Z" id="path_1" />
    <path d="M0.108 0L124.108 0L124.108 22L0.108 22L0.108 0L0.108 0Z" id="path_2" />
    <clipPath id="mask_1">
      <use xlink:href="#path_1" />
    </clipPath>
    <clipPath id="mask_2">
      <use xlink:href="#path_2" />
    </clipPath>
  </defs>
  <g id="logo_dark">
    <path d="M0 0L124 0L124 22L0 22L0 0Z" id="Background" fill="#FFFFFF" fill-opacity="0" fill-rule="evenodd" stroke="none" />
    <g clip-path="url(#mask_1)">
      <g id="logo_lowercase_extrabold">
        <path d="M0 0L124 0L124 22L0 22L0 0L0 0Z" id="Background" fill="#FFFFFF" fill-opacity="0" fill-rule="evenodd" stroke="none" />
        <g id="Mask-Group" transform="translate(-0.108 -0)">
          <path d="M0.108 0L124.108 0L124.108 22L0.108 22L0.108 0L0.108 0Z" id="path_1" fill="none" stroke="none" />
          <g clip-path="url(#mask_2)">
            <g id="Group" transform="translate(0 4.997)">
              <g id="logo_lowercase_extrabold#1">
                <g id="warp" transform="translate(0 3.0779996)">
                  <path d="M28.692 8.928L28.692 3.384C29.052 2.898 30.006 2.592 30.726 2.592C31.014 2.592 31.248 2.61 31.41 2.664L31.41 0C30.384 0 29.268 0.594 28.692 1.296L28.692 0.234L25.92 0.234L25.92 8.928L28.692 8.928L28.692 8.928L28.692 8.928ZM23.886 0.234L23.886 8.928L21.132 8.928L21.132 7.92C20.412 8.748 19.53 9.144 18.558 9.144C16.416 9.144 14.724 7.524 14.724 4.572C14.724 1.728 16.38 0.0180006 18.558 0.0180006C19.512 0.0180006 20.43 0.396 21.114 1.26L21.114 0.234L23.886 0.234L23.886 0.234L23.886 0.234ZM41.832 4.572C41.832 7.524 40.194 9.144 38.016 9.144C37.044 9.144 36.162 8.766 35.442 7.902L35.442 12.24L32.67 12.24L32.67 0.234L35.442 0.234L35.442 1.242C36.126 0.414001 37.026 0.0180006 38.016 0.0180006C40.194 0.0180006 41.832 1.638 41.832 4.572L41.832 4.572L41.832 4.572ZM14.382 0.234L11.808 8.928L8.82 8.928L7.182 3.546L5.562 8.928L2.574 8.928L0 0.234L2.844 0.234L4.248 5.562L5.958 0.234L8.424 0.234L10.134 5.562L11.52 0.234L14.382 0.234L14.382 0.234L14.382 0.234ZM35.442 5.904C35.784 6.354 36.504 6.696 37.098 6.696C38.178 6.696 39.006 5.886 39.006 4.572C39.006 3.276 38.178 2.466 37.098 2.466C36.504 2.466 35.784 2.79 35.442 3.258L35.442 5.904L35.442 5.904L35.442 5.904ZM17.55 4.572C17.55 5.868 18.36 6.696 19.458 6.696C20.052 6.696 20.772 6.372 21.132 5.904L21.132 3.258C20.772 2.79 20.052 2.484 19.458 2.484C18.36 2.484 17.55 3.276 17.55 4.572L17.55 4.572L17.55 4.572Z" id="Shape" fill="#FFFFFF" fill-rule="evenodd" stroke="none" />
                </g>
                <g id="download" transform="translate(46.08 0)">
                  <path d="M7.848 0L7.848 12.006L6.894 12.006L6.894 10.62C6.282 11.52 5.166 12.222 3.87 12.222C1.566 12.222 0 10.458 0 7.668C0 4.914 1.566 3.096 3.87 3.096C5.112 3.096 6.21 3.726 6.894 4.716L6.894 0L7.848 0L7.848 0L7.848 0ZM45.396 12.222C46.116 12.222 46.53 12.006 46.872 11.682L46.512 10.962C46.314 11.178 45.954 11.376 45.54 11.376C44.928 11.376 44.64 10.89 44.64 10.188L44.64 0L43.704 0L43.704 10.332C43.704 11.52 44.262 12.222 45.396 12.222L45.396 12.222L45.396 12.222ZM76.23 0L76.23 12.006L75.276 12.006L75.276 10.62C74.664 11.52 73.548 12.222 72.252 12.222C69.948 12.222 68.382 10.458 68.382 7.668C68.382 4.914 69.948 3.096 72.252 3.096C73.494 3.096 74.592 3.726 75.276 4.716L75.276 0L76.23 0L76.23 0L76.23 0ZM18.63 7.65C18.63 10.188 17.01 12.222 14.436 12.222C11.898 12.222 10.278 10.188 10.278 7.65C10.278 5.112 11.898 3.096 14.436 3.096C17.01 3.096 18.63 5.112 18.63 7.65L18.63 7.65L18.63 7.65ZM40.788 5.922L40.788 12.006L39.852 12.006L39.852 6.12C39.852 4.446 39.006 3.942 37.746 3.942C36.63 3.942 35.478 4.644 34.92 5.436L34.92 12.006L33.984 12.006L33.984 3.312L34.92 3.312L34.92 4.626C35.55 3.87 36.792 3.096 38.052 3.096C39.816 3.096 40.788 3.96 40.788 5.922L40.788 5.922L40.788 5.922ZM56.178 7.65C56.178 10.188 54.558 12.222 51.984 12.222C49.446 12.222 47.826 10.188 47.826 7.65C47.826 5.112 49.446 3.096 51.984 3.096C54.558 3.096 56.178 5.112 56.178 7.65L56.178 7.65L56.178 7.65ZM65.952 12.006L65.952 3.312L64.998 3.312L64.998 4.716C64.296 3.726 63.216 3.096 61.974 3.096C59.67 3.096 58.104 4.914 58.104 7.668C58.104 10.458 59.67 12.222 61.974 12.222C63.27 12.222 64.386 11.52 64.998 10.62L64.998 12.006L65.952 12.006L65.952 12.006L65.952 12.006ZM29.394 12.006L32.22 3.312L31.212 3.312L28.908 10.692L26.46 3.312L25.65 3.312L23.202 10.692L20.898 3.312L19.89 3.312L22.716 12.006L23.616 12.006L26.064 4.572L28.494 12.006L29.394 12.006L29.394 12.006L29.394 12.006ZM0.990002 7.668C0.990002 9.774 2.106 11.376 4.032 11.376C5.256 11.376 6.39 10.656 6.894 9.828L6.894 5.526C6.39 4.68 5.256 3.942 4.032 3.942C2.106 3.942 0.990002 5.562 0.990002 7.668L0.990002 7.668L0.990002 7.668ZM11.268 7.65C11.268 9.594 12.42 11.376 14.436 11.376C16.488 11.376 17.622 9.594 17.622 7.65C17.622 5.724 16.488 3.942 14.436 3.942C12.42 3.942 11.268 5.724 11.268 7.65L11.268 7.65L11.268 7.65ZM48.816 7.65C48.816 9.594 49.968 11.376 51.984 11.376C54.036 11.376 55.17 9.594 55.17 7.65C55.17 5.724 54.036 3.942 51.984 3.942C49.968 3.942 48.816 5.724 48.816 7.65L48.816 7.65L48.816 7.65ZM62.136 11.376C60.21 11.376 59.094 9.774 59.094 7.668C59.094 5.562 60.21 3.942 62.136 3.942C63.36 3.942 64.494 4.698 64.998 5.526L64.998 9.828C64.494 10.656 63.36 11.376 62.136 11.376L62.136 11.376L62.136 11.376ZM69.372 7.668C69.372 9.774 70.488 11.376 72.414 11.376C73.638 11.376 74.772 10.656 75.276 9.828L75.276 5.526C74.772 4.68 73.638 3.942 72.414 3.942C70.488 3.942 69.372 5.562 69.372 7.668L69.372 7.668L69.372 7.668Z" id="Shape#1" fill="#FFFFFF" fill-rule="evenodd" stroke="none" />
                </g>
              </g>
            </g>
          </g>
        </g>
      </g>
    </g>
  </g>
</svg>