<?xml version="1.0" encoding="utf-8"?>
<svg width="512px" height="512px" viewBox="0 0 512 512" version="1.1" xmlns:xlink="http://www.w3.org/1999/xlink" xmlns="http://www.w3.org/2000/svg">
  <defs>
    <path d="M0 0L512 0L512 512L0 512L0 0Z" id="path_1" />
    <clipPath id="mask_1">
      <use xlink:href="#path_1" />
    </clipPath>
  </defs>
  <g id="back">
    <path d="M0 0L512 0L512 512L0 512L0 0Z" id="Background" fill="#FFFFFF" fill-opacity="0" fill-rule="evenodd" stroke="none" />
    <g clip-path="url(#mask_1)">
      <path d="M464 240L86.624 240L187.312 139.312C193.568 133.056 193.568 122.944 187.312 116.688C181.056 110.432 170.944 110.432 164.688 116.688L36.688 244.688C30.432 250.944 30.432 261.056 36.688 267.312L164.688 395.312C167.808 398.432 171.904 400 176 400C180.096 400 184.192 398.432 187.312 395.312C193.568 389.056 193.568 378.944 187.312 372.688L86.624 272L464 272C472.848 272 480 264.848 480 256C480 247.152 472.848 240 464 240L464 240Z" id="Shape" fill="#1A1A1A" stroke="none" />
    </g>
  </g>
</svg>