<?xml version="1.0" encoding="utf-8"?>
<svg width="512px" height="512px" viewBox="0 0 512 512" version="1.1" xmlns:xlink="http://www.w3.org/1999/xlink" xmlns="http://www.w3.org/2000/svg">
  <defs>
    <path d="M0 0L512 0L512 512L0 512L0 0L0 0Z" id="path_1" />
    <clipPath id="mask_1">
      <use xlink:href="#path_1" />
    </clipPath>
  </defs>
  <g id="moon">
    <g id="moon">
      <path d="M0 0L512 0L512 512L0 512L0 0L0 0Z" id="Background" fill="#FFFFFF" fill-opacity="0" fill-rule="evenodd" stroke="none" />
      <g id="Mask-Group">
        <path d="M0 0L512 0L512 512L0 512L0 0L0 0Z" id="path_1" fill="none" stroke="none" />
        <g clip-path="url(#mask_1)">
          <g id="Group" transform="translate(37.8667 37.865005)">
            <path d="M413.12 287.468C385.386 301.228 355.946 308.268 325.333 308.268C216.533 308.268 128 219.735 128 110.935C128 80.428 135.04 50.8817 148.8 23.1483C151.893 16.9617 150.613 9.6017 145.813 4.695C140.906 -0.211704 133.546 -1.38501 127.36 1.70829C48.8533 40.855 0 119.468 0 206.935C0 333.442 102.826 436.268 229.333 436.268C316.8 436.268 395.413 387.522 434.56 308.908C437.653 302.722 436.373 295.362 431.573 290.455C426.666 285.548 419.2 284.375 413.12 287.468L413.12 287.468L413.12 287.468ZM229.333 404.268C120.533 404.268 32 315.735 32 206.935C32 147.415 58.3466 92.588 102.826 55.6817C98.3463 73.708 96.0003 92.162 96.0003 110.935C96.0003 237.442 198.826 340.268 325.333 340.268C344.106 340.268 362.666 338.028 380.586 333.442C343.68 377.922 288.853 404.268 229.333 404.268L229.333 404.268L229.333 404.268Z" id="Shape" fill="#1A1A1A" fill-rule="evenodd" stroke="none" />
          </g>
        </g>
      </g>
    </g>
  </g>
</svg>