<?xml version="1.0" encoding="iso-8859-1"?>
<!-- Generator: Adobe Illustrator 19.0.0, SVG Export Plug-In . SVG Version: 6.00 Build 0)  -->
<svg version="1.1" id="Capa_1" xmlns="http://www.w3.org/2000/svg" xmlns:xlink="http://www.w3.org/1999/xlink" x="0px" y="0px"
	 viewBox="0 0 468.192 468.192" style="enable-background:new 0 0 468.192 468.192;" xml:space="preserve">
<path style="fill:#3A556A;" d="M298.609,114.596c-78.4,14.2-100.8,39.3-106.2,57c-3.1,10,0.1,20.7,7.6,28
	c11.4,11.1,35.9,30.7,71.9,38.2c30,6.2,6.8,18.7-17.8,28c-17.3,6.5-35.2,11.4-53.3,14.9c-70,13.5-316.8,68.8-135.7,147.3
	c0.8,0.3,1.7,0.5,2.5,0.5h355.9c6.2,0,8.6-8,3.5-11.4c-30.1-20.2-75.3-65.3,10.1-118.3c107.3-66.6-94.6-109.3-132.6-114.8
	c-8-1.2-15.8-3.6-22.8-7.7c-17.5-10.3-32.1-31.3,41.1-61.6h-24.2V114.596z"/>
<path style="fill:#44C4A1;" d="M123.109,275.496c-15.3,26.2-25.9,54.9-31.9,73.6c-1.9,5.8-10,5.8-11.9,0
	c-6-18.6-16.6-47.3-31.9-73.6c-16.5-28.4,0.6-65.8,33.4-68.4c1.5-0.1,2.9-0.2,4.4-0.2s2.9,0.1,4.4,0.2
	C122.509,209.696,139.709,247.096,123.109,275.496z"/>
<circle style="fill:#EBF0F3;" cx="85.309" cy="250.596" r="31.2"/>
<path style="fill:#27A2DB;" d="M435.309,172.696c-15.3,26.2-25.9,54.9-31.9,73.6c-1.9,5.8-10,5.8-11.9,0
	c-6-18.6-16.6-47.3-31.9-73.6c-16.5-28.4,0.6-65.8,33.4-68.4c1.5-0.1,2.9-0.2,4.4-0.2s2.9,0.1,4.4,0.2
	C434.709,106.896,451.909,144.196,435.309,172.696z"/>
<circle style="fill:#EBF0F3;" cx="397.509" cy="147.696" r="31.2"/>
<path style="fill:#E56353;" d="M261.309,102.496c-14,24-23.7,50.2-29.2,67.3c-1.7,5.3-9.1,5.3-10.9,0c-5.5-17.1-15.2-43.3-29.2-67.3
	c-15.1-26,0.6-60.2,30.6-62.6c1.3-0.1,2.7-0.2,4-0.2s2.7,0.1,4,0.2C260.709,42.296,276.409,76.496,261.309,102.496z"/>
<circle style="fill:#EBF0F3;" cx="226.609" cy="79.696" r="28.6"/>
<g>
	<path style="fill:#D5D6DB;" d="M356.909,304.096l-12-7.6c10.7-7,15.9-14.4,16.2-21.7c0.5-11.2-10.3-20.9-13.9-23.5l5.4-4.3
		c0.6,0.4,17.9,11.1,18.8,27.9C371.909,286.396,370.909,292.696,356.909,304.096z"/>
	<path style="fill:#D5D6DB;" d="M316.509,232.596c-4.2-1.2-35.7-10.9-40.4-22.1l8.2-4.4c3,5.1,27.3,16.1,39,18.9L316.509,232.596z"
		/>
	<path style="fill:#D5D6DB;" d="M229.209,366.396l2-11.4c48.7,0.3,76.2-29.7,76.4-30l8.7,5.4
		C315.209,331.696,286.009,366.496,229.209,366.396z"/>
</g>
<g>
</g>
<g>
</g>
<g>
</g>
<g>
</g>
<g>
</g>
<g>
</g>
<g>
</g>
<g>
</g>
<g>
</g>
<g>
</g>
<g>
</g>
<g>
</g>
<g>
</g>
<g>
</g>
<g>
</g>
</svg>
