<svg  fill="#FFFFFF" clip-rule="evenodd" fill-rule="evenodd" height="512" stroke-linejoin="round" stroke-miterlimit="2" viewBox="0 0 48 48" width="512" xmlns="http://www.w3.org/2000/svg"><g transform="translate(-159 -265)"><g transform="translate(-45 -75.094)"><g id="ngicon"><path d="m231.638 381.121c-1.174.248-2.391.379-3.638.379-9.659 0-17.5-7.841-17.5-17.5 0-.828-.672-1.5-1.5-1.5s-1.5.672-1.5 1.5c0 11.314 9.186 20.5 20.5 20.5 1.46 0 2.885-.153 4.259-.444.81-.172 1.329-.968 1.157-1.778-.171-.81-.968-1.329-1.778-1.157zm-1.173-34.449c8.493 1.199 15.035 8.506 15.035 17.328 0 6.24-3.274 11.722-8.195 14.821-.701.441-.911 1.368-.47 2.068.441.701 1.368.911 2.068.47 5.765-3.629 9.597-10.05 9.597-17.359 0-10.335-7.666-18.894-17.616-20.298-.82-.116-1.579.456-1.695 1.275-.116.82.456 1.58 1.276 1.695zm-18.705 10.8c1.875-4.655 5.694-8.321 10.449-9.99.782-.274 1.193-1.131.919-1.912s-1.131-1.193-1.912-.919c-5.57 1.955-10.043 6.249-12.239 11.7-.309.768.063 1.643.831 1.952.768.31 1.642-.063 1.952-.831z"/></g></g></g></svg>
