<?xml version="1.0" encoding="utf-8"?>
<svg width="280.027px" height="280.027px" viewBox="0 0 280.027 280.027" version="1.1" xmlns:xlink="http://www.w3.org/1999/xlink" xmlns="http://www.w3.org/2000/svg">
  <defs>
    <path d="M0 0L280.027 0L280.027 280.027L0 280.027L0 0Z" id="path_1" />
    <clipPath id="mask_1">
      <use xlink:href="#path_1" />
    </clipPath>
  </defs>
  <g id="video">
    <path d="M0 0L280.027 0L280.027 280.027L0 280.027L0 0Z" id="Background" fill="#FFFFFF" fill-opacity="0" fill-rule="evenodd" stroke="none" />
    <g clip-path="url(#mask_1)">
      <g id="Group" transform="translate(17.501 0)">
        <path d="M227.522 0L227.522 17.502C227.522 22.332 223.61 26.253 218.771 26.253L210.02 26.253C205.181 26.253 201.269 22.333 201.269 17.502L201.269 0L43.754 0L43.754 17.502C43.754 22.332 39.842 26.253 35.003 26.253L26.252 26.253C21.422 26.253 17.501 22.333 17.501 17.502L17.501 0L0 0L0 280.027L17.502 280.027L17.502 262.525C17.502 257.695 21.422 253.774 26.253 253.774L35.004 253.774C39.843 253.774 43.755 257.694 43.755 262.525L43.755 280.027L201.27 280.027L201.27 262.525C201.27 257.695 205.182 253.774 210.021 253.774L218.772 253.774C223.611 253.774 227.523 257.694 227.523 262.525L227.523 280.027L245.025 280.027L245.025 0L227.522 0L227.522 0ZM43.754 227.522C43.754 232.361 39.842 236.273 35.003 236.273L26.252 236.273C21.422 236.273 17.501 232.361 17.501 227.522L17.501 210.02C17.501 205.181 21.421 201.269 26.252 201.269L35.003 201.269C39.842 201.269 43.754 205.181 43.754 210.02L43.754 227.522L43.754 227.522ZM43.754 175.017C43.754 179.856 39.842 183.768 35.003 183.768L26.252 183.768C21.422 183.768 17.501 179.856 17.501 175.017L17.501 157.515C17.501 152.685 21.421 148.764 26.252 148.764L35.003 148.764C39.842 148.764 43.754 152.684 43.754 157.515L43.754 175.017L43.754 175.017ZM43.754 122.512C43.754 127.351 39.842 131.263 35.003 131.263L26.252 131.263C21.422 131.263 17.501 127.351 17.501 122.512L17.501 105.01C17.501 100.18 21.421 96.259 26.252 96.259L35.003 96.259C39.842 96.259 43.754 100.179 43.754 105.01L43.754 122.512L43.754 122.512ZM43.754 70.007C43.754 74.846 39.842 78.758 35.003 78.758L26.252 78.758C21.422 78.758 17.501 74.846 17.501 70.007L17.501 52.505C17.501 47.675 21.421 43.754 26.252 43.754L35.003 43.754C39.842 43.754 43.754 47.674 43.754 52.505L43.754 70.007L43.754 70.007ZM227.522 227.522C227.522 232.361 223.61 236.273 218.771 236.273L210.02 236.273C205.181 236.273 201.269 232.361 201.269 227.522L201.269 210.02C201.269 205.181 205.181 201.269 210.02 201.269L218.771 201.269C223.61 201.269 227.522 205.181 227.522 210.02L227.522 227.522L227.522 227.522ZM227.522 175.017C227.522 179.856 223.61 183.768 218.771 183.768L210.02 183.768C205.181 183.768 201.269 179.856 201.269 175.017L201.269 157.515C201.269 152.685 205.181 148.764 210.02 148.764L218.771 148.764C223.61 148.764 227.522 152.684 227.522 157.515L227.522 175.017L227.522 175.017ZM227.522 122.512C227.522 127.351 223.61 131.263 218.771 131.263L210.02 131.263C205.181 131.263 201.269 127.351 201.269 122.512L201.269 105.01C201.269 100.18 205.181 96.259 210.02 96.259L218.771 96.259C223.61 96.259 227.522 100.179 227.522 105.01L227.522 122.512L227.522 122.512ZM227.522 70.007C227.522 74.846 223.61 78.758 218.771 78.758L210.02 78.758C205.181 78.758 201.269 74.846 201.269 70.007L201.269 52.505C201.269 47.675 205.181 43.754 210.02 43.754L218.771 43.754C223.61 43.754 227.522 47.674 227.522 52.505L227.522 70.007L227.522 70.007Z" id="Shape" fill="#0463DB" fill-rule="evenodd" stroke="none" />
        <path d="M175.017 70.016L70.007 70.016C65.177 70.016 61.256 73.936 61.256 78.767L61.256 201.279C61.256 206.127 65.176 210.03 70.007 210.03L175.017 210.03C179.856 210.03 183.768 206.127 183.768 201.279L183.768 78.758C183.768 73.936 179.856 70.016 175.017 70.016L175.017 70.016ZM61.256 0L61.256 43.754C61.256 48.593 65.176 52.505 70.007 52.505L175.017 52.505C179.856 52.505 183.768 48.593 183.768 43.754L183.768 0L61.256 0L61.256 0ZM175.017 227.522L70.007 227.522C65.177 227.522 61.256 231.442 61.256 236.273L61.256 280.027L183.768 280.027L183.768 236.273C183.768 231.451 179.856 227.522 175.017 227.522L175.017 227.522Z" id="Shape" fill="#363636" fill-rule="evenodd" stroke="none" />
      </g>
    </g>
  </g>
</svg>