<svg xmlns="http://www.w3.org/2000/svg" viewBox="0 0 562.37 1711.25"><title>Asset 1</title><g id="Layer_2" data-name="Layer 2"><g id="Layer_1-2" data-name="Layer 1"><path d="M503.63,1061.25c7.7,0,14.84-3.73,22.85-9.47,13.64-9.77,21.82-24.8,28.62-39.58,3.94-8.55,8.07-18.55,7.14-28.9-.07-.74-.12-1.48-.18-2.2-.66-8.45-1.32-16.45-14.31-23.84.2-1.09.41-2.19.6-3.28a193.57,193.57,0,0,0,2.39-25.21,200,200,0,0,0-1.1-25.31,174.2,174.2,0,0,0-39.3-92.11,157.83,157.83,0,0,0-17.79-18.13,150.87,150.87,0,0,0-20.44-15.11c-3.55-2.32-7.32-4.28-11-6.33-3.83-1.84-7.61-3.78-11.56-5.32-3.87-1.73-7.92-3-11.91-4.47-4.06-1.19-8.1-2.5-12.25-3.4-4.1-1.08-8.3-1.73-12.46-2.51-4.21-.52-8.41-1.18-12.64-1.39-4.23-.41-8.47-.39-12.71-.47-4.24.13-8.48.21-12.7.65a160.7,160.7,0,0,0-49.05,12.36,175.94,175.94,0,0,0-76.72,63.92A201.12,201.12,0,0,0,236.5,853c-2.87,6.08-5.54,12.26-7.81,18.58a28.37,28.37,0,0,0-12.31,2.56c3.86-18.34,5.9-50.67,2.82-56.67a12,12,0,0,0-4.89-4.8c.92-5.83,2.43-11.77,3.92-17.68l2.58-9.95a59,59,0,0,0,1.83-10.67,36.57,36.57,0,0,0-.9-11.17,27.6,27.6,0,0,0-5-10.39,33.11,33.11,0,0,0-6.79-6.5,6.74,6.74,0,0,0-.39-4c-4.9-11.07-16.24-19.24-27.59-19.87h-.48c1.61-9.13,4.44-18.21,7.21-27.1,1.19-3.8,2.36-7.59,3.46-11.38a267.33,267.33,0,0,0,6.12-121.26c-1.86-10.21-4.34-20.41-6.74-30.28-1.85-7.59-3.76-15.43-5.36-23.17-3.67-17.82-7.11-30.3-9.87-40.32-4.88-17.7-7.05-25.65-3.43-38.45A213.79,213.79,0,0,0,196,434a218.7,218.7,0,0,0,160.2-49.14A215.56,215.56,0,0,0,409.6,318.9a219.29,219.29,0,0,0,24-80.94A216.08,216.08,0,0,0,428,164.78c.07-.18.18-.34.25-.52l-.43-.18q-1.24-4.89-2.71-9.72a217,217,0,0,0-183.53-153A214.16,214.16,0,0,0,199.36.78a217.45,217.45,0,0,0-34.07,428c-4,14.66-1.5,24,3.52,42.23,2.73,9.91,6.14,22.25,9.76,39.82,1.62,7.88,3.55,15.79,5.41,23.45,2.37,9.75,4.83,19.84,6.65,29.83a259.54,259.54,0,0,1-5.94,117.7c-1.08,3.74-2.24,7.47-3.41,11.22-3.06,9.82-6.19,19.87-7.79,30.17-11.23,2.4-22.16,10-28.05,17.54-6.86,8.78-10.72,20.55-11.17,34-.3,9.11,1.83,19.69,3.72,29,.45,2.26.89,4.46,1.29,6.6-3.14,3.13-4.7,7.46-6.22,11.74a64.1,64.1,0,0,1-2.89,7.18c-3.53,7-5.22,15.12-6.7,22.25s-2.74,14.19-3.89,21.31c-1.7,1.09-3.41,2.18-5.13,3.3a135.35,135.35,0,0,0-11.44,8.1,89,89,0,0,0-10.32,9.85A86.6,86.6,0,0,0,71.18,946a60,60,0,0,0,5.28,28.38,39.79,39.79,0,0,0,8.76,12.11A34.86,34.86,0,0,0,91.35,991,47.92,47.92,0,0,0,98,994.1c4.38,1.71,8.49,3.07,11.76,5.26a30,30,0,0,1,8.45,8.68,49.24,49.24,0,0,1,7.66,24,50.76,50.76,0,0,1-4.75,24.85c-3.67,7.61-9.59,14.2-17,17.89a43.16,43.16,0,0,1-24.73,4,37.69,37.69,0,0,1-23.06-11.64,29.84,29.84,0,0,0,9.14,10.5,37.81,37.81,0,0,0,13,5.85,42.69,42.69,0,0,0,28.46-3c9-4.36,15.85-12,20.13-20.71a57.35,57.35,0,0,0,5.64-28.13c0-.23-.05-.46-.06-.7,3.16,7,6.37,14.27,9.28,22,1.4,3.72,2.37,7.29,3.31,10.74,1.77,6.52,3.45,12.68,7.66,18.77,3.14,4.54,8.42,9.18,13.08,13.28,2,1.78,3.94,3.47,5.48,5,5.4,5.27,8,10.84,10.78,16.73s5.54,11.71,11,17.43c-.25,3.73-.43,7.44-.57,11.06L191,1192.42c-29.69,9.82-38.46,24.29-41,33.13-3.31,11.75,1.2,24.43,12.07,33.91a58.32,58.32,0,0,0,25.13,12.36c-4.44,12.3-.76,28.83,1.78,40.12.78,3.52,1.68,7.48,1.59,8.65-1.62,4.13-1.58,18.5-1.35,45.25l.05,6.54c0,5.43.54,12.08,1,18.51.56,7.36,1.13,15,1,20.84,0,2.75-.2,6.3-.38,10.41-.5,11.82-1.12,26.52.17,34.62,2.13,13.32,8.93,26.17,16.8,41.06,4.29,8.11,9.15,17.3,13.74,27.54.65,1.45,2.16,3.38,5,7,5.9,7.42,15.78,19.84,18.47,31.79,2.48,11,5.63,20,19.31,25.47-10.43,5.75-16.31,15.46-19.13,31-2.37,13.08,2.66,27.65,12.53,36.3a12,12,0,0,1,0,2.92c-.21,2.56-.47,5.75,1.58,8.09a7.49,7.49,0,0,0,5.53,2.32c.62,0,1.24,0,1.87,0,10.44,0,20.27-4,29.79-7.8l.91-.36c33.43-13.46,56.44-32.77,68.54-57.44a95.15,95.15,0,0,0,16.66,23.94,24.71,24.71,0,0,0,6.76,5.12c-8.62,17.26-6.7,34.43-1.79,47.37a.42.42,0,0,1,0,.1c4.11,10.75,10.27,18.56,14.15,21a55.91,55.91,0,0,0,30.62,9,75.6,75.6,0,0,0,25.45-4.81,46.25,46.25,0,0,0,15.5-8.71c8.19-7.24,13.47-17.65,14.11-27.87.7-11.17,2.33-22.46,3.9-33.37,3.22-22.3,5.8-40.22-1.21-47.41,3.24-11.44,1.75-23.27-4.58-35a64.57,64.57,0,0,0-4.72-7.27,47.33,47.33,0,0,1-4.93-7.93c-1.32-2.84-2.85-5.78-4.33-8.63-3.58-6.92-7.29-14.07-8.85-21-1.5-6.65-6.07-14.3-10.91-22.4-5.47-9.18-11.14-18.66-11.46-25.67-1.34-28.63,1-43.72,3.32-58.31,1.58-10.05,3.07-19.55,3.14-32.6.08-13.59.11-27.66-12.52-54.37a120.72,120.72,0,0,0,6.83-14c1.36,13.54,6,26.87,10.76,38.76l.6,1.48a39.37,39.37,0,0,1,2.28,6.62,43.46,43.46,0,0,1,.57,9.4v1.48a153.75,153.75,0,0,0,5.09,40.31c.93,3.53,2.36,7.56,5.18,9.92-2.47,8.22.44,21.82,6.67,28.53,2.34,2.52,5,3.81,7.65,3.81a8.74,8.74,0,0,0,2.55-.4c.37.61.75,1.2,1.14,1.79,1.37,2,3.27,4.47,5.95,5.77a16.31,16.31,0,0,0,4.24,1.22c.34.07.68.13,1,.21a42.33,42.33,0,0,0,5.35.75,27.28,27.28,0,0,1,5.82,1,20.46,20.46,0,0,0,5.53.68c4.62,0,9.89-1.17,13.12-3.64a29.85,29.85,0,0,1,6.69-4l2.39-1.16a17.8,17.8,0,0,1,2.7-1,23.58,23.58,0,0,0,2.65-.89c7.63-3.2,10.85-12.5,11.29-19.49.49-7.94-1.67-15.79-3.58-22.7l-2.43-8.85a24.2,24.2,0,0,0,5.42-8.37c3-7.93,1.63-17.26.61-24.08-.61-4.14-1.41-8.08-2.18-11.9-.85-4.19-1.73-8.54-2.33-13-2-14.57-4-29.63-4.67-44.54-.15-3.15-.24-6.31-.33-9.47-.24-8.19-.48-16.66-1.75-24.93s-3.94-16.37-6.55-24.28a180.63,180.63,0,0,1-5.52-19c-2.09-10-3.26-20.46-4.39-30.6-1.42-12.78-2.89-26-6.22-38.53-7.29-27.4-15.74-43.11-43.13-56.58a14.58,14.58,0,0,0-.61-7.88,166.23,166.23,0,0,0,21.61-18.91A26.11,26.11,0,0,0,503.63,1061.25Zm-471.32-931A68.64,68.64,0,0,0,47,124.77a172.6,172.6,0,0,0,16.33-9.66,173.4,173.4,0,0,1,15.22-9,46.27,46.27,0,0,1,15.3-4.83,35.48,35.48,0,0,1,7.78-.07c2.68.27,5.56.8,8.68,1.31a66.15,66.15,0,0,0,10.08,1.07,52.23,52.23,0,0,0,10.43-.92,88.79,88.79,0,0,0,18.86-6.08c5.86-2.5,11.36-5.24,16.78-7.68a86.63,86.63,0,0,1,16.19-5.77,59.15,59.15,0,0,1,32.94,2.1,62.17,62.17,0,0,1,7.71,3.39,63.5,63.5,0,0,1,7.35,4.53A76.32,76.32,0,0,0,239,98.36a29.14,29.14,0,0,0,10.19,3c7,.75,13.39-.77,19.35-2.07,3-.65,6-1.32,8.79-1.69a35.83,35.83,0,0,1,8.72-.07,23.54,23.54,0,0,1,8.35,2.46,14.59,14.59,0,0,1,6.26,6.23,14.93,14.93,0,0,0-5.27-7.73,24.86,24.86,0,0,0-8.68-4.22A39.43,39.43,0,0,0,277.08,93a89.83,89.83,0,0,0-9.46.58c-6.12.55-12.07,1.17-17.26.07a20.69,20.69,0,0,1-7.11-2.92,71,71,0,0,1-6.92-5.13,73.7,73.7,0,0,0-7.94-5.72,57,57,0,0,0-8.86-4.56,70.18,70.18,0,0,0-19.32-5,66.71,66.71,0,0,0-20.07,1,99.09,99.09,0,0,0-18.63,6c-5.84,2.42-11.38,5.06-16.82,7.35a76.7,76.7,0,0,1-16.15,5.08,39.92,39.92,0,0,1-7.88.62,54.4,54.4,0,0,1-8.21-.85c-2.94-.47-6.1-1.05-9.53-1.37a48.73,48.73,0,0,0-10.59.15,57.25,57.25,0,0,0-19.52,6.47A150.75,150.75,0,0,0,56.64,105c-5,3.5-9.94,6.9-14.94,9.76-.8.45-1.6.86-2.41,1.28A205.4,205.4,0,0,1,160.22,16.66C212.07.36,270.51,6.12,318.47,32.28a206.25,206.25,0,0,1,62.61,51.9,208.54,208.54,0,0,1,12.33,16.94,83.12,83.12,0,0,1-22.76-5.22c-9-3.53-17.32-8.52-23.83-15.59-3.43-3.61-7-8.08-12-12.09A38.76,38.76,0,0,0,317,60.68a69.48,69.48,0,0,0-17.67-.19c-5.57.51-10.85,1.39-16,1.92a69.8,69.8,0,0,1-14.74.31,41.8,41.8,0,0,1-6.77-1.33,42,42,0,0,1-6.58-2.76c-4.45-2.25-9-5.2-14-7.82a74.69,74.69,0,0,0-16-5.9,71.05,71.05,0,0,0-16.77-2c-2.81,0-5.6.18-8.38.4-2.77.4-5.52.77-8.23,1.44a66.16,66.16,0,0,0-29.08,14.56A76.89,76.89,0,0,1,223,53a71.64,71.64,0,0,1,13.68,6.14c4.31,2.58,8.58,5.8,13.52,8.73a51.14,51.14,0,0,0,8,4A47.38,47.38,0,0,0,267,74.14a81.3,81.3,0,0,0,17.32.64c11-.55,21.54-2.24,30.38-.59a26,26,0,0,1,11.45,5c3.4,2.64,6.6,6.57,10.54,10.71A65.27,65.27,0,0,0,366.78,108a54.48,54.48,0,0,0,30.67-.45c2.11,3.53,4.13,7.12,6,10.77a210.53,210.53,0,0,1,15.16,37.93c.42,1.47.82,2.94,1.21,4.42l-.15-.06c-1.22,2.66-3.81,4.5-7.3,5.58a34.6,34.6,0,0,1-11.57,1.12A58.75,58.75,0,0,1,377.27,161a36.07,36.07,0,0,1-4.95-3.24c-1.72-1.28-3.43-2.63-5.16-4-3.45-2.77-7-5.69-10.74-8.51a73.65,73.65,0,0,0-12.5-7.73,41.13,41.13,0,0,0-15.39-4c-5.6-.29-10.79.88-15.26,2s-8.54,2.26-12.09,2.52a21.78,21.78,0,0,1-10.12-1.66,75.12,75.12,0,0,1-10.87-5.72,114.22,114.22,0,0,0-12.53-6.88,79,79,0,0,0-14-4.82,121.77,121.77,0,0,0-28.5-3.23c-9.39,0-18.59.54-27.6,1.29l-27,2.3c-18,1.65-36.08,3.56-54.08,6.59A356.53,356.53,0,0,0,63.11,138.6,242.18,242.18,0,0,0,23,155.83,206.21,206.21,0,0,1,32.31,130.29Zm89.93,263.16a207.34,207.34,0,0,1-61-50.43c-1.34-1.62-2.64-3.28-3.93-4.95,1.06.34,2.13.68,3.19,1,2.68.78,5.36,1.49,8.05,2.11s5.56,1.12,8.34,1.49a112.05,112.05,0,0,0,16.61,1c11-.07,21.65-1.57,32.08-1.52s20.8,1.22,30,7a30.71,30.71,0,0,0-6.12-5.46,38.43,38.43,0,0,0-7.42-3.79,61.13,61.13,0,0,0-16.22-3.42c-11-1-21.72-.37-32.09-1.2a126.24,126.24,0,0,1-15.32-2c-2.49-.5-5-1.1-7.36-1.81s-4.93-1.53-7.35-2.39a100.29,100.29,0,0,1-13.9-6A52.24,52.24,0,0,1,45,320.2a208.13,208.13,0,0,1-21.19-47.11,204.71,204.71,0,0,1-8.3-43.54A62.5,62.5,0,0,0,25.83,239a78.82,78.82,0,0,0,16.86,9.47,104,104,0,0,0,18.24,5.72c12.29,2.56,24.32,3.43,35.89,4.58s22.69,2.6,32.88,6,19.93,8.89,30.1,14.85,21,12.1,33.29,15.77a70,70,0,0,0,19,2.93,86.63,86.63,0,0,0,18.6-1.86c12-2.54,23.16-7,34-11.92-11.85,1.46-23.56,3.41-35,3.71a93.47,93.47,0,0,1-16.74-.9A65.3,65.3,0,0,1,197.36,283c-10.06-4.1-19.53-10.33-29.49-16.68s-20.56-13-32.86-17.23-24.68-5.84-36.58-7-23.5-1.73-34.42-3.67A83.64,83.64,0,0,1,33.9,227.3a51.24,51.24,0,0,1-11.74-10.08,37.13,37.13,0,0,1-7.1-13c.15-3.42.38-6.85.7-10.27a203.88,203.88,0,0,1,3.94-25.15c31.4-14.36,65-22.54,99.26-27.75,17.54-2.68,35.25-4.71,53.08-6.41l26.8-2.39c8.92-.75,17.68-1.48,26.3-1.51a106.85,106.85,0,0,1,25,2.48,66.1,66.1,0,0,1,11.54,3.8,98.89,98.89,0,0,1,11.22,5.91,87.68,87.68,0,0,0,13.16,6.51,36,36,0,0,0,16.33,2.24c5.44-.56,10.07-2.06,14.26-3.21s7.9-2,11.33-1.92c7,.08,14.21,3.79,21.22,8.68,3.53,2.43,7.05,5.13,10.72,7.85,1.83,1.36,3.7,2.73,5.65,4.06a48.35,48.35,0,0,0,6.48,3.9A64.58,64.58,0,0,0,386,175.9a70,70,0,0,0,14.48,1.86,42.68,42.68,0,0,0,15.08-2.19,24.79,24.79,0,0,0,6.86-3.73,206.83,206.83,0,0,1,2.76,65.23c-.53,4.62-1.24,9.22-2.09,13.79a93.22,93.22,0,0,0-22.35-1.94,108.77,108.77,0,0,0-26.21,4,110,110,0,0,0-24.31,10,92.23,92.23,0,0,0-20.73,15.54,207.62,207.62,0,0,1,23.55-9,168.31,168.31,0,0,1,23.9-5.47A177.65,177.65,0,0,1,401,262.07c6.5-.08,13,.2,19.48.66a204.9,204.9,0,0,1-7.65,24.13,56,56,0,0,0-17.75-4.81,76.64,76.64,0,0,0-21.7,1c-14.09,2.6-27.14,8.13-39.2,14.77s-23.15,13.76-34.68,19.62-23.37,10.41-35.64,11.45-25-1.1-37.48-4.56-24.94-8.28-37.79-12.51-26.43-7.39-40.29-7.67a76.91,76.91,0,0,0-20.57,2.18,53.69,53.69,0,0,0-18.48,8.56c12.5-5.15,25.76-5.77,38.55-4.06a140.11,140.11,0,0,1,19,4c6.26,1.76,12.47,3.78,18.6,6.11,12.37,4.56,24.77,9.79,37.87,13.88s27.08,7,41.5,6a89.19,89.19,0,0,0,21-4.09,135.58,135.58,0,0,0,19.36-8c12.35-6.14,23.74-13.3,35.19-19.61a154.15,154.15,0,0,1,17.35-8.24,101.51,101.51,0,0,1,18-5.48c11.16-2.25,22.6-1.91,32.53,2.32q-3.7,8.19-8.09,16a209.14,209.14,0,0,1-36.77,47.56c-.21.13-.42.27-.63.39-4.41,2.62-9.06,5-13.82,7.24s-9.62,4.42-14.59,6.56-9.83,4.32-14.67,6.08a71.62,71.62,0,0,1-14.39,3.8,45.82,45.82,0,0,1-14.16-.28c-9.7-1.55-19.74-5.79-31.27-8.14a84,84,0,0,0-17.62-1.54A123.64,123.64,0,0,0,225.11,377c-11.16,1.82-21.76,4.66-32.19,7.06a184.64,184.64,0,0,1-31,4.8c-10.36.55-20.79-.42-31.15-4.42a43.65,43.65,0,0,0,14.21,9,64.45,64.45,0,0,0,16.62,4.12c11.38,1.32,22.79.22,33.69-1.73s21.42-4.19,31.77-5.49,20.46-1.62,30.1.32c9.79,1.93,20.06,6,31.88,7.9a57.55,57.55,0,0,0,18.29,0c1.49-.25,2.95-.54,4.39-.87a206.53,206.53,0,0,1-34.76,13.38,203.86,203.86,0,0,1-79.23,6.43A207.79,207.79,0,0,1,122.24,393.45Zm424.3,569.9c8.66,5.44,9.09,10.68,9.68,18.2.06.75.12,1.5.19,2.27.8,8.92-2.84,17.7-6.63,25.94-6.47,14-14.18,28.28-26.71,37.26-10.38,7.44-17,9.72-24.31,7.75q4.32-4.8,8.34-9.85a201.48,201.48,0,0,0,14.4-20.6,209,209,0,0,0,11.93-22.17,184.41,184.41,0,0,0,9.16-23.54C544.18,973.59,545.45,968.49,546.54,963.35ZM375.64,763.89c4-.41,8-.47,12-.58,4,.09,8,.07,12,.47,4,.2,7.94.84,11.9,1.33,3.92.76,7.88,1.36,11.74,2.4,3.91.85,7.7,2.1,11.54,3.23,3.75,1.37,7.56,2.59,11.2,4.23,3.72,1.46,7.27,3.31,10.86,5,3.49,2,7,3.79,10.38,6a142.89,142.89,0,0,1,19.2,14.28l.93.86a144.94,144.94,0,0,0-14.88,14.12,143,143,0,0,0-15.7,20.57,115.23,115.23,0,0,0-11.38,23.51,85.6,85.6,0,0,0-4.08,17.7c-35.43-11.76-69.2-18.62-86-21.09-1.47-.22-2.94-.42-4.41-.61a156,156,0,0,0,3.74-42.18A116.93,116.93,0,0,0,344,770,152.87,152.87,0,0,1,375.64,763.89Zm4.6,108.61c-16.87-1.32-33.94-2.63-50.65,0s-33.3,9.74-44.25,22.65c-11.92,14-18.69,54.83-22.15,72.92-2.52-19.78-1.5-59,4.33-78.07,2.05-6.7,4.81-13.54,10.15-18.08s12.82-6.18,19.9-7.17A184.33,184.33,0,0,1,380.24,872.5Zm-153.55,5a181.34,181.34,0,0,0-5.83,23.28c-.86,4.11-1.32,8.29-1.9,12.45-.26,2.08-.38,4.18-.58,6.27s-.36,4.18-.4,6.28a180.08,180.08,0,0,0,5.86,54.89c-7.68-1.81-12.4-7.08-17.8-19.07-6.33-14.07-5.85-30.25-4.39-45.64.86-9,2.14-18.46,7.3-25.76l1.3-1.87C214.38,882.38,217.33,878.16,226.69,877.54Zm-11.9-44c-3.52-.91-7.06-1.72-10.63-2.32-4.56-.76-9.14-1.39-13.74-1.7s-9.2-.45-13.8-.38q-3.36.06-6.72.4c1.34-2.75,2.61-5.54,3.71-8.4,1-2.69,1.95-5.44,2.76-8.21a63.15,63.15,0,0,1,12.74.55c1.62.29,3.57.49,5.82.72,6.71.68,16.85,1.71,19.06,6C214.67,821.54,214.93,826.68,214.79,833.51Zm-3.71-19.17Zm.53-57.55c3.67,4.7,4.89,10.9,4.46,17.2a52.47,52.47,0,0,1-1.5,9.55l-2.45,9.94c-1.27,5.24-2.51,10.5-3.34,16-.05.33-.09.67-.14,1a81.1,81.1,0,0,0-13.11-2.1c-2.05-.21-4-.4-5.4-.65a62.31,62.31,0,0,0-12.22-.68A102.67,102.67,0,0,0,180,793.74a98,98,0,0,0-.82-23.78l3.28,1a92.33,92.33,0,0,1,9.6,3h0c-1.56-3.41-4.87-5.69-8.05-7.17s-6.61-2.32-9.54-3.59a22.12,22.12,0,0,1-7.64-4.94,7.56,7.56,0,0,1-2.16-7,11.19,11.19,0,0,1,4.77-6.29,16.23,16.23,0,0,1,8.22-2.44c6.06-.3,12.63,1.52,18.67,3.75S208,752,211.61,756.79Zm-5.19-12.93,0,.14-.21-.13A1.69,1.69,0,0,1,206.42,743.86Zm-25.75-15.57h1c8.23.46,16.76,6.16,21.26,13.9q-2.13-1-4.29-1.85a64.16,64.16,0,0,0-10.33-3,44.4,44.4,0,0,0-8.14-.93A76.47,76.47,0,0,1,180.67,728.29ZM140.12,775c.41-12.25,3.84-22.85,9.93-30.64a46.57,46.57,0,0,1,22.67-15,78.39,78.39,0,0,0-.33,8c-.27.07-.53.11-.79.19a19.28,19.28,0,0,0-5.43,2.61,16.48,16.48,0,0,0-6.93,10,12.32,12.32,0,0,0,.45,6.51,14.17,14.17,0,0,0,3.35,5.27,22.46,22.46,0,0,0,3.24,2.61c-.62.67-1.22,1.36-1.86,2-1.31,1.37-2.71,2.64-4.13,3.93s-2.9,2.51-4.44,3.68a33.39,33.39,0,0,0-4.51,3.94,16.83,16.83,0,0,0,5.91-1.55,51.89,51.89,0,0,0,10.55-6.12,40.71,40.71,0,0,0,3.71-3.11c.38.16.76.34,1.14.49l.23.08A94.59,94.59,0,0,1,171,807.19a58.62,58.62,0,0,1-11-.65c-6.88-1.19-11.79-.82-15.44.51-.29-1.44-.58-2.92-.88-4.41C141.82,793.18,139.84,783.4,140.12,775ZM129.2,852.76c1.48-7.1,3-14.46,6.2-20.82a66.73,66.73,0,0,0,3.17-7.84c3.21-9,5.14-14.45,20.48-11.79a58,58,0,0,0,10.25.73c-.63,1.88-1.3,3.74-2,5.58-6.51,16.37-17.46,30.8-30.87,42.22a102.55,102.55,0,0,1-10.16,7.69C127.13,863.26,128.11,858,129.2,852.76ZM113.73,993.39c-4.33-2.9-9-4.39-13-6a30.7,30.7,0,0,1-10.45-6.3,32.39,32.39,0,0,1-7-9.93,52.52,52.52,0,0,1-4.34-24.78,79.23,79.23,0,0,1,19.49-47.2,82,82,0,0,1,9.37-9,126,126,0,0,1,10.33-7.38c-1.49,10.26-2.76,20.48-4,30.54-.4,3.25-.81,6.51-1.22,9.76-4.1,32.38-.46,55,6.09,74.66A33.93,33.93,0,0,0,113.73,993.39Zm61.81,103.11c-.43-.42-.88-.85-1.36-1.29a56.4,56.4,0,0,1-1.71-6,50.42,50.42,0,0,1-1-7.09,43.1,43.1,0,0,1,.08-7.27c.22-2.43.53-4.87.65-7.5a20,20,0,0,0-3.37,7,47.43,47.43,0,0,0-1.44,7.71,39.9,39.9,0,0,0-.07,7c-3.67-3.28-7.38-6.77-9.61-10-3.64-5.26-5.11-10.68-6.82-17-1-3.59-2-7.3-3.48-11.28-3.36-8.9-7.07-17.13-10.67-25.09-1.35-3-2.69-6-4-9,.35-1.44.64-2.87.86-4.28l.85-5.29a51,51,0,0,1,1.1-5.11l1.47-5.19a10.28,10.28,0,0,0-4,4.08,38.48,38.48,0,0,0-2.49,5.08c-.41,1-.76,1.93-1.11,2.9-9.14-22.28-15.64-46.66-10.76-85.19q.61-4.89,1.22-9.78c1.46-11.68,3-23.6,4.77-35.51a138.91,138.91,0,0,0,16.58-12A114.3,114.3,0,0,0,169,831.25l7.51.63c4.49.36,9,.92,13.4,1.66s8.83,1.6,13.18,2.69q5.79,1.42,11.47,3.2c-.67,14.41-2.74,32.89-6.07,41.36-1.09,1.37-2.08,2.8-3.09,4.26l-1.26,1.81c-6,8.48-7.45,19.2-8.34,28.58-1,10.53-1.54,21.44.09,32a50.21,50.21,0,0,0-13.95.88,81.67,81.67,0,0,0-16.89,5.3,95.16,95.16,0,0,0-15.36,8.47c-4.77,3.35-9.32,7.21-12.55,12.07a93.23,93.23,0,0,1,14-9.73,90.66,90.66,0,0,1,15.38-7,85.51,85.51,0,0,1,16.24-4,47.81,47.81,0,0,1,14.28,0A59.8,59.8,0,0,0,200.7,964c5.75,12.79,12.05,21.16,24.93,22.93a173.08,173.08,0,0,0,12.81,30.9,23.76,23.76,0,0,0-6.52,16.94l-.16.13v0c-13.86,7.47-21,23.54-23.27,41.71-8.61,13.95-12.47,30.95-14.3,47.82a45.53,45.53,0,0,1-3.12-6.76,47.77,47.77,0,0,1-2.67-12.45,46.19,46.19,0,0,1,.76-12.89A72.86,72.86,0,0,1,193,1079.7a32.07,32.07,0,0,0-6.54,12,49.75,49.75,0,0,0-2.15,13.7q0,1.58.06,3.15A47.35,47.35,0,0,0,175.54,1096.5Zm286.88-5.87c-5.94,1-11.87,1.89-17.82,2.54l-4.9.52-4.9.4-4.91.34-4.92.2c-6.57.32-13.13.1-19.74,0s-13.26-.34-20.13-.18a76.67,76.67,0,0,0,19.59,5.82,132.4,132.4,0,0,0,20.39,1.58l5.12-.09,5.12-.22,5.11-.45,5.09-.6a125,125,0,0,0,20-4.42l-.2-.81a7.74,7.74,0,0,1,1.2,4.88,13.13,13.13,0,0,1-5.59,9.8c-5.79,3.79-13.33,3.8-21.88,3.44-18.44-.77-37.5-1.58-56-4.24-45.51-6.55-88.81-24.34-130.68-41.55-6.3-2.58-14.13-5.8-18.22-11.86a15,15,0,0,1-1.85-11.78,8.43,8.43,0,0,1,1.75-3.26q10.22,7,21.09,12.93c7.4,4,14.94,7.73,22.66,11.05s15.58,6.3,23.56,8.89,16.07,4.93,24.59,5.31c-7.57-3.89-15.37-6.53-23.11-9.47s-15.31-6.25-22.77-9.77-14.83-7.24-22-11.31q-10.23-5.74-20.1-12.1l0-.17a17.21,17.21,0,0,1,3.72-12.87,465.8,465.8,0,0,0,223.31,57.13h2.31c1.72,5.08-.56,7.47-2.83,9ZM240.85,1206.54A19.43,19.43,0,0,1,260,1191a19.84,19.84,0,0,1,3.65.34,19.35,19.35,0,0,1,12.57,8.16,18.69,18.69,0,0,1,2.94,14.15,19,19,0,0,1-8.4,12.36c.58-3.61,1.25-12.5-5-16.76a21.68,21.68,0,0,0-5.44-2.81,13.28,13.28,0,0,0-13.2,3.51c-2,1.93-3.92,3.71-5.82,5.38A18.73,18.73,0,0,1,240.85,1206.54Zm27.69,27a25.11,25.11,0,0,0,16.37-18.83,24.52,24.52,0,0,0-3.85-18.56,25.48,25.48,0,0,0-45.95,9.24,24.43,24.43,0,0,0,1.36,13.91c-9,7.19-16.93,11.51-23.62,13.88l14.36-74.39a20.92,20.92,0,0,1,24.45-16.32l51.84,9.66L296,1193.12l.72,1c2.88,4.06,5.95,8.21,8.92,12.22,2.71,3.66,5.5,7.44,8.14,11.13-1.17,6.77-7,40.37-10.35,57.42l-63.6-11.85C251.88,1256.17,263.5,1245.67,268.54,1233.58Zm-70-87.45c.68-18,2.41-37.91,9.12-54.8a128.14,128.14,0,0,0,2.15,21.87c2.73,14.64,10.5,31.15,13.9,37.9a26.15,26.15,0,0,0-2.27,6.62l-5.52,28.61a189.44,189.44,0,0,0-19.05,4.27Zm30.7-87.14a27.09,27.09,0,0,0,6.51,6.61c-11.59,20.7,3.73,53.57,11.25,69.69l.47,1a27,27,0,0,0-20,9.18c-3.67-7.63-9.65-21.25-11.9-33.36-4.38-23.44-2.38-50.49,10.34-65.09A20.68,20.68,0,0,0,229.26,1059Zm-22.72,176c-6.64,1.34-11.59.56-14.54-1-3.18-1.63-4.68-4.19-4.23-7.2.77-5.1,7.39-12,23.35-15.53Zm113.17-17.71.21-1.2-.7-1c-2.88-4.06-6-8.21-8.93-12.22-2.7-3.66-5.49-7.43-8.13-11.12l7.1-38.51L402,1170.52a20.78,20.78,0,0,1,13.46,8.77,20,20,0,0,1,3.18,15.17l-15.11,78.23A20.91,20.91,0,0,1,379.06,1289l-69.93-13C312.84,1257,319.64,1217.7,319.71,1217.28Zm82.08-52.75L254.27,1137c-.53-1.18-1.18-2.58-2-4.23-6.51-14-21.39-45.91-11.58-64.09a101.1,101.1,0,0,0,9.36,4.28c42.2,17.34,85.85,35.27,132.08,41.92,18.81,2.71,38,3.52,56.6,4.3,1.89.08,4,.17,6.11.17h.39c-2.35,16-27.08,33.51-39.34,42.18C404.33,1162.7,402.92,1163.7,401.79,1164.53Zm-235.88,90.52c-9.25-8.08-13-18.25-10.27-27.91,4.46-15.81,25.54-28.27,58.09-34.47l-2.43,12.62c-19.87,4-28.19,13.22-29.32,20.68-.83,5.53,1.92,10.49,7.35,13.28,10.89,5.59,33.61,2.36,61.83-25.11a7.45,7.45,0,0,1,7.33-2.13,16.05,16.05,0,0,1,3.95,2.07c3.92,2.66,2.72,10.11,2.44,11.58-2.95,15.43-20.31,29.45-35.19,35.94C202,1273.68,178,1265.62,165.91,1255.05Zm107.55,40.12a5.21,5.21,0,0,1,5.11-4.3,5.47,5.47,0,0,1,.9.08l41.33,7.2a5.19,5.19,0,0,1,4.22,6l-3.5,20.13a5.2,5.2,0,0,1-6,4.22l-41.32-7.2a5.19,5.19,0,0,1-4.23-6Zm-9.33,19.63c-13.89-3-27.62-6.84-40.54-12.38-7.13-3.11-14.06-6.77-19.81-11.61a31.29,31.29,0,0,1-7.1-8.22,17.42,17.42,0,0,1-2.37-9.56,66.55,66.55,0,0,0,7.71.46,71.12,71.12,0,0,0,13.56-1.35c11.24,9.68,31.49,15.06,45.18,18.7l1.85.49,5.48,1.43a9.47,9.47,0,0,0-.39,1.41l-3.51,20.12C264.16,1314.46,264.15,1314.63,264.13,1314.8Zm-13.06,306.82c3-16.42,9.39-25,21.95-29.44a32.43,32.43,0,0,0,6.89.8c3.8,0,7.34-.75,12.23-1.78l17.76-3.75a39.36,39.36,0,0,1,5.6.5,34.64,34.64,0,0,1,5.59,1.4,33.72,33.72,0,0,1,5.4,2.33c1.75.94,3.47,2,5.47,2.89a14.05,14.05,0,0,0-3.87-5.16,30.75,30.75,0,0,0-5.3-3.79c-.51-.3-1.06-.54-1.59-.81a48.47,48.47,0,0,0,10.87-4.39c4.34-2.49,9.41-5.4,12.44-9.71a.25.25,0,0,0,0,.07c.61,1,1.26,2,1.91,2.92a41,41,0,0,1,3.9,6.71c.95,2.29,3.54,3.41,6,4.5.6.26,1.41.62,2.08,1-19,30.1-63.23,69.59-97.35,66.07A34.23,34.23,0,0,1,251.07,1621.62Zm44.23,35-.92.37c-9.5,3.83-19.36,7.75-29.2,7.34a2.36,2.36,0,0,1-1.4-.34c-.41-.48-.25-2.53-.15-3.75.06-.73.12-1.51.13-2.29.57,0,1.14,0,1.72,0,34.63,0,75.4-35.52,95.69-65.57.53,1.68,1.12,3.31,1.73,4.92C352.17,1623,329.45,1642.92,295.3,1656.66Zm174.24,36.69a41,41,0,0,1-13.6,7.58c-17.83,6.36-33.31,5.87-47.2-1.49a58.84,58.84,0,0,0,17.6,2.59,81,81,0,0,0,23.83-3.85,65.52,65.52,0,0,0,29.68-20.13A37.15,37.15,0,0,1,469.54,1693.35Zm16.09-57.7c-1.21,8.39-2.45,17-3.29,25.66-4,14.65-20.42,27-33.93,31.28-14.51,4.55-28.79,4.72-40.2.48-5.42-2-13.85-9.62-15.39-14.92h0c-4.16-11.57-5.72-26.92,2.14-42.29a56.35,56.35,0,0,0,14.95,1.58c1.6,0,3.21,0,4.8,0l3.09,0a84.81,84.81,0,0,0,30-6,47.41,47.41,0,0,1,5.6.22,28.27,28.27,0,0,1,5.94,1.3,30,30,0,0,1,5.68,2.62,57.85,57.85,0,0,0,5.82,3.23,18.54,18.54,0,0,0-4.16-5.45,29,29,0,0,0-5.66-4.14,25.48,25.48,0,0,0-4.31-1.89,74.56,74.56,0,0,0,21.58-16.81,61.26,61.26,0,0,0,9.43-14.46C490.27,1603.44,487.92,1619.75,485.63,1635.65ZM441,1370.25c-.07,12.61-1.53,21.89-3.07,31.72a253.79,253.79,0,0,0-3.76,46.16l-.07-.06a11.3,11.3,0,0,0-2.4,5.93,19.22,19.22,0,0,0,.35,5.66c.32,1.69.79,3.32.93,4.55a4.44,4.44,0,0,1-.11,1.75l-.38,2.38a33.39,33.39,0,0,1-2.44,8.93,24.5,24.5,0,0,1-5.56,7.51c3.38-.63,6.26-3.14,8.15-6a28.16,28.16,0,0,0,2.73-5.25c.17.85.33,1.69.48,2.53a48.28,48.28,0,0,1,1,7.35,26.61,26.61,0,0,1-.83,7.23,59.29,59.29,0,0,1-2.54,7.24,13.74,13.74,0,0,0,5.25-6.24,29.31,29.31,0,0,0,1.49-3.88,22.9,22.9,0,0,0,.92-4.15,30.79,30.79,0,0,0,.12-3.3c1.74,3.18,3.66,6.4,5.56,9.58,4.39,7.35,8.92,15,10.22,20.69,1.72,7.67,5.61,15.16,9.37,22.4,1.51,2.93,2.94,5.69,4.22,8.41a52.49,52.49,0,0,0,5.48,8.88,59.7,59.7,0,0,1,4.32,6.63c9.25,17.14,7,33.88-6.7,49.77-12.87,14.91-34.87,24.67-56.07,24.86l-3.12,0c-10.72.17-20.85.33-27.64-6.94a100.58,100.58,0,0,1-7.28-8.71,57.45,57.45,0,0,0,6.11,2.28,59.53,59.53,0,0,0,35.32.14,48,48,0,0,0,15.59-8,95.67,95.67,0,0,1-16.29,5.33,56.92,56.92,0,0,1-16.74,1.2,59.93,59.93,0,0,1-16.24-3.55,66.66,66.66,0,0,1-14.14-7.29,86.13,86.13,0,0,1-6.84-16.34c1.19.16,2.39.3,3.61.37a27.22,27.22,0,0,0,8.95-.76,33.34,33.34,0,0,0,7.91-3.71c2.4-1.41,4.57-2.88,7.1-4.22-2.9-.23-5.75.75-8.31,1.73a29.51,29.51,0,0,1-7.52,2.2,26.31,26.31,0,0,1-7.54-.35c-2-.36-4-.86-6.09-1.38-1.11-1.94-3.49-3-5.81-4a16.34,16.34,0,0,1-3-1.55,46.71,46.71,0,0,0-4.37-7.54l-.2-.3c.65,0,1.3,0,1.93-.07a64.19,64.19,0,0,0,8.61-1.26c2.79-.58,5.54-1.24,8.27-1.86s5.37-1.41,8.17-2.12a24,24,0,0,0-8.57-.62c-2.82.19-5.62.42-8.39.56s-5.53.3-8.16.15a24.57,24.57,0,0,1-3.71-.42,6.07,6.07,0,0,1-2-.7c-5.05-9.68-8.68-22.69-10.65-38.11,2.05.31,4.11.57,6.17.74a103.83,103.83,0,0,0,10.72.41q5.35-.07,10.67-.6a43.76,43.76,0,0,0,10.44-2.2c-3.58-.37-7.06-.45-10.54-.56s-6.94-.33-10.38-.71-6.86-.82-10.24-1.44c-2.54-.46-5.06-1-7.57-1.56l-.52-.62a97.28,97.28,0,0,1-22.77-63v-.7c0-2.82.08-6-1.15-9a22.5,22.5,0,0,0-4-6c-.52-.62-1-1.23-1.53-1.87-5-6.59-5.81-15-6.18-23.95,0,0,0,0,0,0h0c0-1-.08-2.06-.12-3.11-.25-7-.52-14.1-2.52-20.84a16.93,16.93,0,0,0,1.74-1,55.67,55.67,0,0,0,6-4.59,94.5,94.5,0,0,0,10.51-10.21,94.42,94.42,0,0,0-13.16,6.45c-2.11,1.18-4.19,2.59-6,3.53s-3.59,1.4-4.92,1.08-3-1.46-4.81-3-3.73-3.06-5.66-4.53-4-2.84-5.84-4.24a22.84,22.84,0,0,1-5.15-4.88,15.16,15.16,0,0,0,3.12,6.89c1.55,2,3.14,3.82,4.77,5.62s3.31,3.53,5,5.24,3.9,3.81,7.3,4.62a9.81,9.81,0,0,0,1.43.18c1.91,6.18,2.16,13.11,2.4,19.84,0,.72.05,1.44.08,2.16a36.18,36.18,0,0,1-1.91,5,35.65,35.65,0,0,1-3.36,5.6,40.85,40.85,0,0,1-4.38,5c-1.62,1.59-3.31,3.12-4.95,4.94a18.3,18.3,0,0,0,6.67-2.76,36.47,36.47,0,0,0,5.74-4.54,31,31,0,0,0,2.91-3.24c.81,6.5,2.54,12.78,6.69,18.23.55.72,1.13,1.41,1.72,2.11a17.74,17.74,0,0,1,3,4.4c.78,1.94.75,4.29.72,6.77v.72a101,101,0,0,0,4.72,31.28c-.32.82-.63,1.64-1,2.46a31.57,31.57,0,0,1-1.79,3.33,32.13,32.13,0,0,1-2.23,3.19,19.6,19.6,0,0,0-2.37,3.5,8.55,8.55,0,0,0,4.19-1.41,24,24,0,0,0,3.52-2.62,19.29,19.29,0,0,0,2-2,102.58,102.58,0,0,0,16.56,28.35,155.78,155.78,0,0,0,5.54,28.69,36.21,36.21,0,0,0-4,4.59c-1.23,1.62-2.49,3.14-3.76,4.65a38.9,38.9,0,0,1-4.14,4.18c-1.5,1.28-3,2.49-4.67,4a12.92,12.92,0,0,0,6.21-1.65,34,34,0,0,0,5.4-3.5,62.05,62.05,0,0,0,4.77-4.16c.75-.7,1.5-1.44,2.21-2.11,1,2.65,2.05,5.14,3.2,7.5-1.21,4.8-6.9,8.06-12.08,11-5.54,3.18-12.12,4.57-18.47,5.91l-19.62,4.14c-8.38,1.78-11.85,2.51-19.95.18-9.37-2.7-13.94-6.67-16.65-12a45.91,45.91,0,0,0,7.6,2.71,54.52,54.52,0,0,0,14.45,1.71,70.21,70.21,0,0,0,14.21-1.77,52.17,52.17,0,0,0,13.27-4.91c-4.67.75-9.2,1.61-13.76,2.18a66,66,0,0,1-13.61.42,54.89,54.89,0,0,1-13.1-2.57,44.06,44.06,0,0,1-11.67-5.86l-.16.23c-.25-1-.48-2-.71-3-3-13.26-13.39-26.33-19.61-34.14-1.33-1.68-2.69-3.39-3.52-4.56a31.28,31.28,0,0,0,6.71,1.5c2.88.35,5.67.48,8.45.66a42.23,42.23,0,0,0,8.47-.2c-5.25-2.35-10.93-2.94-16.12-4.45a31.66,31.66,0,0,1-7.18-2.86,15.1,15.1,0,0,1-5.12-4.64l-.06,0c-3.36-6.91-6.72-13.29-9.79-19.09-7.62-14.42-14.21-26.88-16.19-39.25-1.2-7.51-.56-22.5-.1-33.44.18-4.15.33-7.74.38-10.56.11-6.13-.47-13.88-1-21.38-.47-6.33-1-12.88-1-18.12l-.06-6.54c-.15-18.78-.33-40.07.94-43,.89-2,.28-5-1.32-12.11s-3.84-17.15-3.68-26.27c.19.36.37.73.57,1.08a35.9,35.9,0,0,0,7.73,9.18,33,33,0,0,0,2.58,7.71,38.46,38.46,0,0,0,4.92,7.67,79,79,0,0,0,6,6.46,42.79,42.79,0,0,0,6.81,5.48,49,49,0,0,0-4.73-7.31,76.07,76.07,0,0,1-4.76-7,40.9,40.9,0,0,1-3.51-7.32l-.08-.29a102.54,102.54,0,0,0,14.7,7.71c14.19,6.08,29,10,43.89,13.22a11,11,0,0,0,8,6.06l41.32,7.2a11.53,11.53,0,0,0,1.93.17,11,11,0,0,0,9.2-5q18.72,1.47,37.51,1.69a422.28,422.28,0,0,0,48.08-2.06l6-.71,3-.4c.56-.09.85-.1,1.7-.27a10.11,10.11,0,0,0,2-.69,17.41,17.41,0,0,0,4.52-3.26c0,.36,0,.72,0,1.08a57.33,57.33,0,0,1-.59,6.55,42.21,42.21,0,0,1-1.46,6.44c-.66,2.12-1.41,4.22-2,6.56a16.79,16.79,0,0,0,4.58-5.45,38.92,38.92,0,0,0,2.9-6.57,42.23,42.23,0,0,0,1.28-4.82C441.13,1347.15,441.1,1358.44,441,1370.25Zm-12.61-55.89a24.18,24.18,0,0,1-3.13,4.27,15,15,0,0,1-3.84,3.06,5.77,5.77,0,0,1-2.06.47l-2.93.4-5.87.69a413.87,413.87,0,0,1-47.4,2q-17.82-.23-35.65-1.54l3.24-18.57c0-.06,0-.11,0-.17a311.23,311.23,0,0,0,37.1,2.33,240.51,240.51,0,0,0,68.47-9.66A116.56,116.56,0,0,1,428.43,1314.36ZM475.2,1435.8c-5-5.39-7.68-17.27-6-24.14a15,15,0,0,0,4.87-.1c.36,0,.79-.11,1.23-.15a53.26,53.26,0,0,0,5.26,26.91C479.24,1438.49,477.35,1438.12,475.2,1435.8Zm71.32-12.89c-.4,6.34-3.31,13.79-8.9,16.14a20.28,20.28,0,0,1-2.24.74l-.27.08a15.67,15.67,0,0,0,.91-2.68,4.89,4.89,0,0,0-.19-3,24.7,24.7,0,0,0-1.53,2.3,13.65,13.65,0,0,1-1.54,2l-1.79,2c-.47.5-.92,1.07-1.37,1.65a33,33,0,0,0-7.27,4.37c-3.57,2.73-11.11,3.48-15.2,2.31a29,29,0,0,0-3.54-.79A14.23,14.23,0,0,1,502,1447a10.07,10.07,0,0,1-1.63-1.75,8.71,8.71,0,0,1-1.2-2.21c-.31-.81-.6-1.65-1.06-2.61a4.87,4.87,0,0,0-.75,3,10.74,10.74,0,0,0,.58,3.08,8,8,0,0,0,.46,1c-.8-.1-1.67-.24-2.69-.45l-1.09-.22a13.64,13.64,0,0,1-3.26-.9,12.87,12.87,0,0,1-4.43-4.46,48,48,0,0,1-7.72-29.15,21.25,21.25,0,0,0,9.24,2,32.6,32.6,0,0,0,11.16-2.16,97.34,97.34,0,0,0,10-4.5,94.68,94.68,0,0,1,8.85-4.07c2.23-.85,4.5-1.51,6.89-2.22a74.08,74.08,0,0,0,10-3.45,32.75,32.75,0,0,0,5.91-3.47l1.93,7C544.91,1408.11,547,1415.61,546.52,1422.91Zm-35.68-278.57c3.22,12.13,4.67,25.11,6.06,37.68,1.15,10.27,2.33,20.9,4.48,31.15a183.18,183.18,0,0,0,5.69,19.65c2.42,7.33,4.9,14.9,6.15,22.28a118.43,118.43,0,0,1-10.69,9.06,109.18,109.18,0,0,1-14.33,9.06,96.69,96.69,0,0,1-15.69,6.62c-5.42,1.81-11,3.13-16.67,4.45a62.76,62.76,0,0,0,17.41-1.78,99.71,99.71,0,0,0,32.25-14.14,98.1,98.1,0,0,0,8.61-6.46c.61,6.12.79,12.37,1,18.46.09,3.19.18,6.39.33,9.57.64,13.62,2.35,27.26,4.11,40.54a38.21,38.21,0,0,1-2.8,4.72c-1.41,1.89-4.1,3.06-5.92,5.29a15,15,0,0,0,4-1.17,15.48,15.48,0,0,0,3.81-2.2,12.35,12.35,0,0,0,1.58-1.57c.62,4.49,1.47,8.75,2.3,12.87.75,3.73,1.54,7.6,2.13,11.6,1.19,8,2,15.12-.29,21.13-2.35,6.19-7.58,9.64-11.55,11.45a68.83,68.83,0,0,1-9.18,3.16c-2.4.71-4.87,1.44-7.32,2.36-3.24,1.23-6.36,2.8-9.39,4.31a93.48,93.48,0,0,1-9.34,4.25c-4.71,1.72-11.5,3.07-17.06-.25-2.25-1.34-4.88-1-7.2-.67a10,10,0,0,1-3.15.14c-1.51-.53-2.87-3-4-7.4-.53-2-1-4-1.43-6,.26.15.52.33.79.47a20.74,20.74,0,0,0,4.14,1.48,32,32,0,0,0,4.11.68c1.36.12,2.59.21,4.12.22a60.82,60.82,0,0,0,8-.85q7.71-1.24,15.26-2.93c5-1.13,10-2.46,15-3.89-5.18.25-10.31.91-15.42,1.54s-10.2,1.4-15.28,1.85a59.29,59.29,0,0,1-7.45.32,24.5,24.5,0,0,1-3.55-.56A32.39,32.39,0,0,1,471,1390a17.32,17.32,0,0,1-3-1.4,13.16,13.16,0,0,1-2.38-2,14.52,14.52,0,0,1-2.88-5.4,150,150,0,0,1-1.43-21.44v-1.45a55.45,55.45,0,0,0-.46-9.24l3.87.23a70.7,70.7,0,0,0,7.43.07,35,35,0,0,0,7.46-1.1,12.51,12.51,0,0,0,6.41-3.86,26.61,26.61,0,0,1-13.85,2.25c-2.37-.18-4.74-.43-7.14-.78-1.66-.23-3.35-.45-5.05-.65-.57-1.82-1.26-3.54-1.95-5.22l-.59-1.44c-6.41-16-12.57-34.68-10.19-52.36a229,229,0,0,0,9.28-36.76,55,55,0,0,0,8.43-7.07,67.47,67.47,0,0,0,4.94-5.77,29.87,29.87,0,0,0,3.82-6.53c-1.85,1.75-3.48,3.59-5.22,5.33a66.25,66.25,0,0,1-11.29,9.31c.32-2.38.62-4.77.85-7.17a139.26,139.26,0,0,0,7.41-16.33q2-5.33,3.61-10.75a69.37,69.37,0,0,0,2.38-11.06c-1.5,3.48-2.75,7-4.13,10.47s-2.79,6.91-4.36,10.29q-2,4.36-4.3,8.62c.06-1.39.13-2.78.14-4.18a81.53,81.53,0,0,0-3.29-24c-.72,8.08-1.28,15.91-2.07,23.73s-1.74,15.61-3.15,23.34a282.2,282.2,0,0,1-11.31,43.16c-33.54,10.47-68.08,13.25-108.86,8.19a11,11,0,0,0-8.28-6.61l-41.32-7.2a10.94,10.94,0,0,0-8.25,1.85c-.25.17-.45.39-.68.57q-3.68-.93-7.43-1.93l-1.86-.49c-11.8-3.14-28.69-7.64-39.39-14.86a82.11,82.11,0,0,0,8.16-2.94l147,27.38a26.82,26.82,0,0,0,31.27-21l15.11-78.23c.17-.89.29-1.78.37-2.67,16.15-5,33.69-25.51,41.79-37.35,5.56-8.13,21.85-33.71,21.42-53.25C500.37,1112.62,505.77,1125.29,510.84,1144.34Zm-29.39-46.82c3.47,13.92-7.8,37.24-19.75,54.72-6.9,10.1-22.93,29.28-37.18,34.58a26.18,26.18,0,0,0-4.24-10.82,26.48,26.48,0,0,0-11.33-9.39l.38-.27c13.19-9.33,40-28.28,41.87-47.28a29.12,29.12,0,0,0,12.92-4.23,19,19,0,0,0,8.23-14.36,13.58,13.58,0,0,0-2.13-8.42c.18-.18.32-.39.48-.58A102.79,102.79,0,0,1,481.45,1097.52Zm-13.28-23.09-3.24,0a460,460,0,0,1-219.37-55.82,171.4,171.4,0,0,1-20.49-92.43c.07-2,.25-4,.47-6s.35-4,.63-6c.61-4,1.1-8,2-11.94a179.49,179.49,0,0,1,6.23-23.36,184.8,184.8,0,0,1,9.22-22.32,191.82,191.82,0,0,1,12.18-20.84A168.18,168.18,0,0,1,321,779.05c1.06,2.36,2.06,4.76,2.95,7.21a98.28,98.28,0,0,1,3.34,11.65A87.17,87.17,0,0,1,329.14,810l.87,12.38a46.55,46.55,0,0,0,1.9-12.46,91,91,0,0,0-.59-12.67,83.81,83.81,0,0,0-2.45-12.53,76.76,76.76,0,0,0-2.69-8.05c1-.45,2-.91,3-1.33,3-1.24,6-2.37,9.08-3.43a110.19,110.19,0,0,1,9,41.54,148.47,148.47,0,0,1-5,40.88c-24.32-2.45-49-1.67-72.7,4.2a6.93,6.93,0,0,0-4.74,4.09c-19,46.11-21.72,99.52-5.22,146.55a7,7,0,0,0,2.52,3.38c52.36,37.77,128.73,55.37,186.59,46.17a7,7,0,0,0,4.06-2.21c37.19-40.72,63.89-86.43,65.55-140a6.89,6.89,0,0,0-3.16-6c-19.24-12.36-42.37-22.52-65.32-30.61a75.23,75.23,0,0,1,3.35-18.06,107.24,107.24,0,0,1,9.93-22.21,136.2,136.2,0,0,1,14.33-20,139.54,139.54,0,0,1,14.36-14.41,136,136,0,0,1,11.36,12.16,161.51,161.51,0,0,1,14,19.5A173.08,173.08,0,0,1,528,858.25,183.56,183.56,0,0,1,535.71,881a201,201,0,0,1,4.5,23.59,190.52,190.52,0,0,1,1.19,24,180.82,180.82,0,0,1-15.78,70.05,213.34,213.34,0,0,1-24.51,41.7A178.71,178.71,0,0,1,468.17,1074.43Zm-2.53-134c-8.41-7.75-10.94-18.69-5.64-24.43s16.4-4.12,24.81,3.63,10.94,18.69,5.64,24.43S474.05,948.18,465.64,940.43ZM482,972.67a7.71,7.71,0,1,1-.45-10.89A7.71,7.71,0,0,1,482,972.67Z"/><path d="M208.68,907.61c-.87,3.25.31,6.39,2.65,7s4.94-1.49,5.82-4.74-.31-6.38-2.65-7S209.55,904.37,208.68,907.61Z"/><path d="M211.94,944.8c-2.41.17-4.17,3-3.94,6.38s2.39,5.93,4.81,5.76,4.18-3,3.94-6.38S214.36,944.63,211.94,944.8Z"/><path d="M544.51,999.73c2.34.63,4.94-1.49,5.82-4.73s-.32-6.39-2.66-7-4.94,1.49-5.81,4.74S542.17,999.1,544.51,999.73Z"/><path d="M528.83,1025.52c-2-1.37-5.16-.22-7.05,2.56s-1.8,6.14.2,7.5,5.16.21,7-2.57S530.83,1026.88,528.83,1025.52Z"/><path d="M386,1216.71a20,20,0,0,0,3.67.34A19.69,19.69,0,0,0,409,1201.24a19.09,19.09,0,0,0-3-14.47,19.84,19.84,0,0,0-35.79,7.2,19.14,19.14,0,0,0,3,14.47A19.59,19.59,0,0,0,386,1216.71Zm-10-21.63A13.83,13.83,0,0,1,389.62,1184a14.38,14.38,0,0,1,2.6.24,13.76,13.76,0,0,1,9,5.82,13.24,13.24,0,0,1,2.09,10.06,14,14,0,0,1-25.2,5A13.3,13.3,0,0,1,376,1195.08Z"/><path d="M386.71,1205.57a8.51,8.51,0,0,0,10-6.66,8.38,8.38,0,0,0-6.78-9.77,8.5,8.5,0,0,0-9.94,6.66A8.36,8.36,0,0,0,386.71,1205.57Z"/><path d="M390.91,1239.51l1.12-5.77a3.46,3.46,0,0,0-2.79-4l-12.94-2.41a3.5,3.5,0,0,0-4.09,2.74l-1.12,5.78a3.45,3.45,0,0,0,2.79,4l12.94,2.41A3.49,3.49,0,0,0,390.91,1239.51Z"/><path d="M280.26,1317.93l30.64,5.34a5.67,5.67,0,0,0,.91.07A5.21,5.21,0,0,0,317,1319l2-11.58a5.24,5.24,0,0,0-4.26-6.06L284.07,1296a5.25,5.25,0,0,0-6.06,4.26l-2,11.59A5.26,5.26,0,0,0,280.26,1317.93Zm1.59-17a1.38,1.38,0,0,1,.55-.86,1.35,1.35,0,0,1,.77-.24.9.9,0,0,1,.23,0l30.65,5.33a1.36,1.36,0,0,1,1.09,1.55l-2,11.58a1.33,1.33,0,0,1-1.55,1.09l-30.64-5.34a1.33,1.33,0,0,1-1.09-1.55Z"/><path d="M314.38,250q4.62-1.93,9.22-3.76l4.59-1.89,4.61-1.76c1.54-.58,3.07-1.2,4.62-1.76l4.65-1.57c3.1-1.13,6.22-2,9.37-3,12.57-3.55,25.66-5.61,39.08-4.55-12.92-3.79-27-3.82-40.43-1.71-3.36.54-6.76,1-10.06,1.85l-5,1.14c-1.65.4-3.27.87-4.91,1.3-6.59,1.68-13,3.76-19.37,5.83-12.78,4.05-25.24,8.52-37.81,11.63s-25.07,5.12-37.54,4.54-25-3.25-37.24-7.11A362,362,0,0,1,161.74,235c-12.09-5.37-24.19-11.1-36.66-16.4A260.06,260.06,0,0,0,86.28,205a157.27,157.27,0,0,0-20.64-3.75L61,200.87c2.29-1.29,4.65-2.48,7-3.55a90.25,90.25,0,0,1,17.74-5.62,128.34,128.34,0,0,1,18.89-2.44c6.47-.44,13-.59,19.65-.67,13.23-.21,26.74-.12,40.44-1.26,6.85-.57,13.72-1.5,20.43-2.74s13.33-2.77,19.87-4.35c13.07-3.15,25.84-6.73,38.69-9.21,6.42-1.25,12.82-2.35,19.28-3a151.41,151.41,0,0,1,19.39-.93c12.94.26,25.92,2.42,38.31,7.74-10.57-8.46-24.12-13.18-37.72-15a126.89,126.89,0,0,0-20.61-1,180.61,180.61,0,0,0-20.44,2c-13.45,2.11-26.58,5.13-39.53,7.9s-25.77,5.08-38.64,5.95-26.16.59-39.61.66c-6.73.06-13.52.19-20.36.63A143.13,143.13,0,0,0,83,178.57,104.11,104.11,0,0,0,62.62,185,95.48,95.48,0,0,0,53,189.84c-1.54.93-3.1,1.84-4.58,2.87l-1.12.75a13.86,13.86,0,0,0-1.55,1.14,11,11,0,0,0-3.5,5.4,11.19,11.19,0,0,0,3.55,11.53,11,11,0,0,0,5.91,2.52l.76.06.58,0,.59,0,1.18,0c1.56.07,3.13.05,4.69.19l4.7.4a138.93,138.93,0,0,1,18.71,3.48c24.84,6.53,48.4,18.8,72.82,30,6.13,2.8,12.31,5.57,18.62,8.15s12.76,4.93,19.35,7c13.19,4.07,27.07,7.07,41.29,7.24,1.77.05,3.54.09,5.32,0s3.55-.05,5.32-.24c3.51-.43,7.07-.68,10.52-1.3a165.23,165.23,0,0,0,20.3-4.79C289.61,260.27,302.11,255.17,314.38,250ZM53.07,200.57c-.17,0-.1,0,0,0h0Zm1.41,4.36c-.19.14-.13.09,0,0Z"/><path d="M204.36,30.58c8.56-1.39,17.22-1.72,25.34,0a40.19,40.19,0,0,1,11.54,4.14c3.6,1.78,6.92,4.7,11.08,7.21A41.37,41.37,0,0,0,266,47a66.88,66.88,0,0,0,14,1.07c9.21-.07,18-1.33,26.72-.7S324.3,50.09,331,56.34a28.17,28.17,0,0,0-10.53-8.62,49.71,49.71,0,0,0-13.21-4.12,102.06,102.06,0,0,0-13.69-1.21c-4.53-.15-9-.12-13.36-.37-8.71-.53-17.22-1.82-23.91-6.38-3.45-2.21-6.95-5.28-11.34-7.63a47.43,47.43,0,0,0-13.62-5.09,75.28,75.28,0,0,0-28.17.39,171.23,171.23,0,0,0-26.32,7.55,343.63,343.63,0,0,0-49.43,21.83c17.1-5.65,34.11-11.16,51.29-16C187.27,34.24,195.75,31.82,204.36,30.58Z"/><path d="M295.82,184.13c-7.57,1.24-14.16,4.18-20.13,4.64a41.09,41.09,0,0,1-9.38-.56c-1.68-.25-3.51-.49-5.33-.68s-3.62-.46-5.44-.52c-14.58-1.1-29.19.81-43,4.39a283.41,283.41,0,0,0-40.08,14.26c14-2.48,27.66-5.79,41.4-7.85a196.68,196.68,0,0,1,20.53-2.17,142.85,142.85,0,0,1,20.39.54c1.69.13,3.37.37,5,.59s3.34.44,5.13.73a43,43,0,0,0,11.65.56,61.22,61.22,0,0,0,11.13-2.5c3.44-1,6.56-2,9.76-2.68a60.75,60.75,0,0,1,19.64-.87,62,62,0,0,1,9.7,2c1.57.47,3.18,1,4.66,1.56a19.72,19.72,0,0,1,3.95,2c2.44,1.63,4.59,3.87,5.28,5.89a3.91,3.91,0,0,1,.06,2.65,5.26,5.26,0,0,1-.65,1.24c-.16.16-.29.33-.43.5a2.93,2.93,0,0,0-.52.41c-1.49,1-4.6,1.24-7.76.91s-6.59-1-10.31-1.53c-7.87-1.08-15.64.63-22.52,3.19a174.45,174.45,0,0,0-19.48,9.1c-6.43,3.31-12.41,6.81-18.61,9.8a93.38,93.38,0,0,1-19.11,7.14,59,59,0,0,1-20.23,1.41,38.47,38.47,0,0,1-5.09-.8c-.84-.16-1.7-.29-2.54-.48l-2.49-.75a83.06,83.06,0,0,1-9.83-3.71A54.54,54.54,0,0,0,242.39,242a87.31,87.31,0,0,0,20.83-6.26c6.64-2.8,12.9-6.3,19.1-9.19,6.45-3,12.62-6.15,18.91-8.43s12.71-3.54,18.88-2.73c3.26.42,6.8,1.15,10.58,1.52a31.82,31.82,0,0,0,6,0,15,15,0,0,0,6.71-2.18c.53-.4,1.05-.81,1.56-1.22s.89-1,1.32-1.48a13,13,0,0,0,1.8-3.4,11.74,11.74,0,0,0,0-7.7,17.23,17.23,0,0,0-3.56-5.8,26.27,26.27,0,0,0-4.71-4,28.55,28.55,0,0,0-5.36-2.9c-1.79-.74-3.51-1.33-5.31-1.91a70.09,70.09,0,0,0-10.92-2.45A71.88,71.88,0,0,0,295.82,184.13Z"/></g></g></svg>