<svg xmlns="http://www.w3.org/2000/svg" viewBox="0 0 1137.97 948.14"><title>Asset 4</title><g id="Layer_2" data-name="Layer 2"><g id="Layer_1-2" data-name="Layer 1"><path d="M552,132.62c-2.13-.6-4.54,1.3-5.38,4.26s.21,5.84,2.35,6.45,4.53-1.31,5.37-4.26S554.14,133.22,552,132.62Z"/><path d="M549.17,170.93c-2.21.12-3.86,2.71-3.68,5.78s2.11,5.45,4.32,5.33,3.86-2.72,3.69-5.79S551.38,170.8,549.17,170.93Z"/><path d="M852.63,225.16c2.13.61,4.54-1.3,5.38-4.26s-.21-5.84-2.34-6.45-4.54,1.31-5.38,4.26S850.5,224.56,852.63,225.16Z"/><path d="M838,248.55c-1.81-1.27-4.71-.26-6.47,2.26s-1.72,5.59.09,6.86,4.72.26,6.48-2.26S839.8,249.82,838,248.55Z"/><path d="M611.21,371.24a10.57,10.57,0,0,0,1.77.15,12,12,0,0,0,8.16-3.46,19.43,19.43,0,0,0,3.78-22.16,11.59,11.59,0,0,0-8.28-6.42c-7-1.18-13.85,5-15.35,13.8S604.25,370.06,611.21,371.24Zm-6.07-17.44c1.05-6.16,5.29-10.69,9.75-10.69a6.89,6.89,0,0,1,1.1.09,7.79,7.79,0,0,1,5.47,4.38,15.57,15.57,0,0,1-3,17.5,7.81,7.81,0,0,1-6.61,2.32C607,366.57,604,360.47,605.14,353.8Z"/><path d="M612.89,361.41c2.57.44,5.13-1.94,5.7-5.32s-1.05-6.46-3.62-6.9-5.13,1.94-5.71,5.31S610.31,361,612.89,361.41Z"/><path d="M1134.4,776.24l3.57-1.89-2.78-2.8h0q-21.35-21.35-43.81-41.36c-15-13.36-30.35-26.35-46.51-38.4-8.09-6-16.38-11.8-25.1-17a150.34,150.34,0,0,0-13.52-7.2c-2.3-1.14-4.76-2-7.16-3a58.13,58.13,0,0,0-7.67-2.11c-20-3.67-41,1.28-57.65,12.56q-1.15-11.31-3.34-22.56l-.35-1.78-1.74-.48a149.55,149.55,0,0,0-35.14-4.94,203.47,203.47,0,0,0-5.64-19.74l-.36-1.06-1-.55c-3-1.64-6.06-3.25-9.09-4.87a92.85,92.85,0,0,1,10.78-14.56,143.15,143.15,0,0,1,15.29-14.66,161.27,161.27,0,0,1,35.91-22.4A165.15,165.15,0,0,1,958.92,560L964,558.5c.86-.23,1.7-.5,2.56-.71l2.59-.56,5.18-1.15,2.59-.58.53-.12.67-.19a11.32,11.32,0,0,0,1.3-.56,7.88,7.88,0,0,0,2.22-1.88,7.72,7.72,0,0,0,1.71-5.28,7.6,7.6,0,0,0-2.34-5.15,8.24,8.24,0,0,0-1.11-.88,9.5,9.5,0,0,0-1-.56l-1.26-.57-2.54-1.15L970,536.87a52.41,52.41,0,0,0-5.13-2.15l-10.47-3.79-10.73-3a172.59,172.59,0,0,0-44.12-4.91,166.36,166.36,0,0,0-43.8,6.83,183.31,183.31,0,0,0-40.7,17.29,224,224,0,0,0-34.17,24.76q-15.49-6.84-31.17-13.25c14.52-1.6,33.79-8,48.74-13.77,12.89-4.93,23.36-12.22,31.14-21.66C844.17,505.58,848.8,482,853,455.3q2.68-17.12,5.39-34.45c6.22-1.59,12.41-3.35,18.53-5.31,13.67-4.38,29-10.52,39.3-22.84,3.92-4.71,6.89-10.07,9.77-15.26,1.76-3.17,3.59-6.46,5.58-9.49,1.38-2.1,4-6.74,7.54-13.17,9.64-17.31,25.76-46.27,38.28-61,10-11.78,4.46-21-1.68-27.83a11.93,11.93,0,0,1,3.37,0,62,62,0,0,0,9.32.84,22.74,22.74,0,0,0,9.77-2.45,29,29,0,0,0,4.24-2.6c1.25-1,2.49-2.07,3.66-3.19,4.59-4.58,7.55-9.89,11.56-13.72a51,51,0,0,1,14.31-9.33c5.29-2.49,10.9-4.57,16.48-6.95,1.39-.61,2.78-1.21,4.17-1.86a21.32,21.32,0,0,0,4.35-2.48,6.94,6.94,0,0,0,2.85-5.57,7.77,7.77,0,0,0-2.71-5.42,10.1,10.1,0,0,0-5-2.42,18,18,0,0,0-5-.18c-3.18.32-6,.81-9.07,1.31s-6,1.1-8.9,1.74l-.1,0,9.24-7.34,7.06-5.55a40.94,40.94,0,0,0,7-6.33,18.59,18.59,0,0,0,2.7-4.29,12.58,12.58,0,0,0,.47-1.26l.19-.67c0-.28.11-.56.14-.85A5.94,5.94,0,0,0,1055,184a6,6,0,0,0-5.66-3.14c-.27,0-.6.06-.81.1l-.56.12-1.13.24c-.76.15-1.51.32-2.25.52a81.19,81.19,0,0,0-17.17,6.43,101.77,101.77,0,0,0-14.78,9.09c.55-.62,1.08-1.25,1.64-1.87,4-4.4,8.35-8.54,12.36-13.12s7.73-9.58,9.82-15.83a7.69,7.69,0,0,0-.32-5.77,6.45,6.45,0,0,0-2.13-2.37,7.45,7.45,0,0,0-2.8-1,12.57,12.57,0,0,0-5.23.33,19.23,19.23,0,0,0-4.61,1.84A80.32,80.32,0,0,0,1007,171a168.3,168.3,0,0,0-12.2,13.43l-.47.6c2.22-5,4.55-9.91,6.84-14.88,1.25-2.73,2.5-5.46,3.71-8.22l.89-2.09.45-1.05c.16-.41.31-.82.43-1.23a18.11,18.11,0,0,0,.74-4.92,18.86,18.86,0,0,0-.11-2.49,7.59,7.59,0,0,0-.79-2.85,6.63,6.63,0,0,0-5.08-3.5,6.47,6.47,0,0,0-3.19.39,7.72,7.72,0,0,0-2.46,1.63c-1.16,1-2.26,2.09-3.34,3.18a100.4,100.4,0,0,0-11.55,14.2,166.85,166.85,0,0,0-9.23,15.66c-2.81,5.38-5.22,10.81-8.65,15.47a34.57,34.57,0,0,1-2.71,3.31c-.49.51-1,1-1.51,1.49a3.47,3.47,0,0,1-1.16.86c-.25.06-.36,0-.67-.16a3.24,3.24,0,0,1-.88-1.14,9,9,0,0,1-.91-3.6c0-.33,0-.66,0-1V193c0-.79,0-1.57-.1-2.34-.11-1.55-.26-3.08-.48-4.61a39.4,39.4,0,0,0-2.29-9.16,10.41,10.41,0,0,0-3.11-4.5,10.18,10.18,0,0,0-2.6-1.28,11.46,11.46,0,0,0-2.75-.46,10.46,10.46,0,0,0-5.38,1.33,14.5,14.5,0,0,0-4,3.37,19.67,19.67,0,0,0-2.73,4.26,15.16,15.16,0,0,0-.93,2.45c-.25.88-.35,1.55-.54,2.34a68.51,68.51,0,0,0-1.24,9.22,77.71,77.71,0,0,0,1,18.52,62.86,62.86,0,0,0,5.32,16.5,12.22,12.22,0,0,1-1.18,2,16.84,16.84,0,0,0-5.39-2.17l-.72-.18c-2.74-.67-7.84-1.94-12.79,1-10.28,6.16-15.66,15.6-23.1,28.68-4.22,7.43-9,15.84-15.74,25.46-1.58,2.26-7.39,8.56-13.06,14.29-10.1-10.47-20.87-17.12-33.93-21,2-1.14,4.11-2.46,6.25-3.95,12.64-8.81,20.32-22.48,26.73-35.95,3.72-7.81,7.63-16.94,6.9-26.47,0-.68-.09-1.35-.14-2-.52-8.06-1-15.68-14.1-22.85A163.23,163.23,0,0,0,839.92,79.7c-19.15-36.91-51-63.29-89.84-74.29C674.7-15.95,595.2,27.79,566.11,104c-13.6-.23-17.88,5.76-22.38,12.1l-1.18,1.64c-5.62,7.73-7.08,17.56-8,26.16-1.61,14.83-2.25,30.5,3.89,44.62,5.15,11.87,10.85,19.65,22.76,21.43A159,159,0,0,0,572.27,238a22.05,22.05,0,0,0-6.15,14.8c-22.64,6.64-33.35,34.85-39.83,51.94l-1.18,3.09c-.82,2.13-1.56,4.29-2.3,6.46-.56,1.64-1.12,3.28-1.72,4.91a125.18,125.18,0,0,1-12.72,25.51,21.5,21.5,0,0,0-5.19,9.1,23.33,23.33,0,0,0,1.6,16,22.94,22.94,0,0,0,7.6,9,99.49,99.49,0,0,0-7,10.58c-4.33,7.17-8.41,13.94-17.87,20.54-5.25,3.66-8.07,8.52-10.57,12.82-2.12,3.65-4.13,7.11-7.36,9.44a29.89,29.89,0,0,0-5.6,5.4c-3.17.56-6.51,1.1-10,1.66-28.74,4.55-67.92,10.8-87.15,46.17-19.62.64-39.22,2-58.74,4.2l-21,2.7-20.87,3.49-5.23.88c-1.73.32-3.45.71-5.18,1.07L245.39,500,235,502.14l-10.27,2.59A558.85,558.85,0,0,0,68.33,569L50.41,580.42c-5.88,4-11.58,8.18-17.38,12.25l-4.33,3.08c-1.42,1.07-2.79,2.19-4.18,3.28l-8.34,6.61L12,608.94l-2.09,1.65-1,.82c-.35.28-.79.71-1.18,1.06A23.78,23.78,0,0,0,.76,623.72a22.84,22.84,0,0,0,.52,13.38A24.65,24.65,0,0,0,4.22,643a26.36,26.36,0,0,0,2,2.57l1.05,1.2.94.94,15,15c1.27,1.24,2.48,2.54,3.79,3.73L31,670l7.91,7.1,7.92,7.1,8.26,6.7,8.26,6.69L67.44,701c1.4,1.08,2.85,2.1,4.27,3.16l17.14,12.57c5.82,4,11.77,7.86,17.66,11.79s12,7.56,18,11.23c12,7.51,24.56,14.06,36.95,20.89,12.65,6.3,25.2,12.83,38.14,18.52,12.77,6.06,25.91,11.26,38.92,16.76,13.2,5,26.31,10.28,39.67,14.8,13.27,4.83,26.74,9,40.16,13.36l20.27,6.05,10.14,3,10.2,2.78c6.81,1.82,13.58,3.78,20.42,5.49l20.5,5.14c6.81,1.77,13.76,3.15,20.63,4.74s13.76,3.18,20.72,4.41l20.81,4C469,860.87,476,861.87,483,863l10.47,1.65L504,866l21,2.56c28.1,2.83,56.31,4.68,84.56,5,28.25.19,56.51-.58,84.64-3.12,3.52-.22,7-.61,10.54-1l10.53-1.13,10.52-1.14,10.49-1.45c4.56-.67,9.13-1.27,13.69-1.93A184.13,184.13,0,0,0,776.4,897l8.4,7.83,9,7.11a52.74,52.74,0,0,0,4.67,3.33l4.78,3.19c1.61,1,3.13,2.2,4.82,3.11l5,2.82,5,2.82c1.66.94,3.44,1.66,5.16,2.51l5.2,2.43,2.6,1.22c.88.38,1.79.69,2.68,1,3.58,1.35,7.13,2.78,10.74,4.05l11,3.25a200.79,200.79,0,0,0,45.33,6.39c3.83,0,7.65.12,11.47,0l11.44-.73c3.81-.38,7.59-1,11.37-1.48l2.84-.4a2.79,2.79,0,0,0,.43-.07l.78-.19a8.11,8.11,0,0,0,1.54-.59,8.46,8.46,0,0,0,2.68-2.08,8.75,8.75,0,0,0,2.12-6.1,8.57,8.57,0,0,0-2.7-6,7.46,7.46,0,0,0-1.29-1l-.68-.41-.32-.18-1.19-.65-2.39-1.31-4.77-2.62c-3.15-1.8-6.18-3.81-9.28-5.7s-6-4.14-9-6.19-5.76-4.45-8.63-6.68a207.12,207.12,0,0,1-30.79-30.88A156.72,156.72,0,0,1,862,857c-1-1.52-1.77-3.14-2.63-4.72s-1.62-3.2-2.34-4.82a47.58,47.58,0,0,1-2.7-7.28l5.73-1.74,1.09-.32.58-1q4.79-7.8,8.93-15.93c8.84,1.61,20.46,2.5,29.84,3.1l1.83.11.9-1.6q5.71-10.1,10.4-20.66a81.27,81.27,0,0,0,17.55,17.48,77.87,77.87,0,0,0,29.13,12.91l4,.75,4.18.45a73.23,73.23,0,0,0,8.12,0,121.82,121.82,0,0,0,15.66-1.94,273.92,273.92,0,0,0,29.93-7.67,590.35,590.35,0,0,0,57.21-21.6Q1107.41,790.45,1134.4,776.24Zm-158.93-228s0,0,0,0ZM936.11,938l-.09,0a.22.22,0,0,0-.07-.06ZM925,655.36A248.47,248.47,0,0,1,929.14,708q-14.88-5.6-29.88-10.76c-.07-6-.32-12-.81-17.93a237.55,237.55,0,0,0-4-28.19A148.74,148.74,0,0,1,925,655.36Zm9.24,61.27c8.27,3.43,16.45,7.06,24.37,11.06a128.92,128.92,0,0,1,11.44,6.43,42.89,42.89,0,0,1,5,3.66,11.8,11.8,0,0,1,1.76,1.85.36.36,0,0,1,.07.1l-.16.12a13.67,13.67,0,0,1-2.25,1.16,44.26,44.26,0,0,1-5.86,1.85c-4.14,1-8.49,1.78-12.85,2.42-8.74,1.27-17.64,2-26.55,2.66-17.82,1.21-35.74,1.79-53.63,2.12-9,.08-17.9.19-26.79,0-4.44-.09-8.89-.23-13.21-.56a46.66,46.66,0,0,1-6.2-.78,55.86,55.86,0,0,1-6-1.42c-7.74-2.52-15-6.84-20.15-13s-8-13.9-7-21.58,5.85-14.64,12.57-19.2,15.09-7,23.46-7.28a55.57,55.57,0,0,1,6.32.27,49.4,49.4,0,0,1,6.33,1c4.29.9,8.62,2,12.93,3.17,8.63,2.33,17.22,4.91,25.78,7.6s17,5.6,25.49,8.63S926,713.21,934.26,716.63ZM818.38,553a185.15,185.15,0,0,1,39.39-16.08,159.12,159.12,0,0,1,42-6.09,165.37,165.37,0,0,1,42,4.83L952,538.55l10,3.65a48.56,48.56,0,0,1,4.88,2.07l4.83,2.21,2.41,1.1.33.15-1.68.37-5.44,1.19-2.72.61c-.9.24-1.78.52-2.67.77l-5.35,1.57a174.13,174.13,0,0,0-20.78,8,156.56,156.56,0,0,0-37.3,24.06A131.56,131.56,0,0,0,882.8,600.1a93,93,0,0,0-11,16.11l-5.13-2.72a124.19,124.19,0,0,1,6.55-11.27,120.33,120.33,0,0,1,10.27-13.47,113.34,113.34,0,0,1,12.16-11.94c4.32-3.73,8.92-7.12,13.55-10.64A70.89,70.89,0,0,0,894,574.63a116.56,116.56,0,0,0-13.42,11.31A110.32,110.32,0,0,0,869,599.28a102.76,102.76,0,0,0-7.39,11.58q-36.82-19.2-74.74-36.24A216.92,216.92,0,0,1,818.38,553ZM606,589.79a35.79,35.79,0,0,1-8.27,4.79,44.81,44.81,0,0,1-9.08,2.75,48.26,48.26,0,0,1-6.31.75c.32-.47.63-.94,1-1.39,1.22-1.51,2.86-3,4.32-4.82a16.52,16.52,0,0,0,3.2-6.3,20.29,20.29,0,0,0,.46-6.74,39.58,39.58,0,0,1-2.7,5.83,17.55,17.55,0,0,1-3.8,4.53c-1.51,1.28-3.29,2.53-5,4.21a19.84,19.84,0,0,0-4.18,5.94c-.53,1.06-.93,2.29-1.31,3.25s-.73,1.87-1.15,2.82l-2.71,5.86c-1.79,4-3.68,8.24-4.18,13.25l-.18,3.29c-.05,1-.23,1.93-.37,2.9a36.49,36.49,0,0,1-1.66,5.7c-.71,1.84-1.57,3.69-2.47,5.59a32.24,32.24,0,0,0-2.11-3.71,39.08,39.08,0,0,0-3.42-4.44,13.19,13.19,0,0,0-4.44-3.42,33.6,33.6,0,0,0,2.16,5A51.69,51.69,0,0,1,557.4,645c.39,1.53.73,3,1,4.58a33.11,33.11,0,0,0-1.46,5.6c0,.2-.05.4-.07.6-2.28-2.1-4.51-4.13-6.91-6s-4.85-3.79-7.35-5.58a39.27,39.27,0,0,0-8-4.56,71.62,71.62,0,0,0,6.28,6.69q3.27,3.13,6.35,6.44c2,2.21,4.11,4.41,6,6.66a32,32,0,0,1,3.26,4.46,40.28,40.28,0,0,1-2.17,9.89c-2.72,7.65-7.26,14.83-11.88,22.11l-6.79,10.79c-2,2.78-4.81,4.05-8.51,4.1a41.5,41.5,0,0,1-11.67-2.2,85,85,0,0,1-11.37-5.13A89.61,89.61,0,0,0,492,698.1a52.54,52.54,0,0,0-13-2.75c3.89,2.13,7.69,4.12,11.35,6.29s7.21,4.48,10.95,6.7c1.2.74,2.44,1.45,3.71,2.14a61.73,61.73,0,0,0,8.34,3.89,57.69,57.69,0,0,0,6.6,2,37.58,37.58,0,0,0,5.5.9c-2.79,9.37-3.62,18.8-6.23,27.44A51,51,0,0,1,512.76,759c-.73,1.09-1.51,2.13-2.33,3.16a22.17,22.17,0,0,0-2.53,4.08c-.64,1.3-1.19,2.55-1.72,3.71L391.36,734.88c-20.42-6.23-34.69-14.6-43.62-25.55l0-.17h0a30.51,30.51,0,0,1,3.2-16.95,40,40,0,0,1,11.2-13.52,41.44,41.44,0,0,1,7.53-4.69,47.9,47.9,0,0,1,8.36-3.28,55.64,55.64,0,0,1,8.88-1.88,61.54,61.54,0,0,1,9.11-.65,73.22,73.22,0,0,1,18.21,2.28,40,40,0,0,1,15.82,8c9.58,7.69,17.61,17.6,26.81,27.07a77.27,77.27,0,0,0-8.91-17.66,69.38,69.38,0,0,0-13.43-15c-.28-.24-.57-.46-.86-.69a41,41,0,0,1,.68-5.33,18.5,18.5,0,0,1,6.82-2.26,37.73,37.73,0,0,1,8.88.05c6.08.7,12.14,2.57,18.14,4.61s11.92,4.59,17.78,7.24a136.4,136.4,0,0,0,18.16,7.12,86.57,86.57,0,0,0-16.26-11,183,183,0,0,0-17.75-8.48,82.93,82.93,0,0,0-19.31-5.5,36.46,36.46,0,0,0-10.49-.07,23.51,23.51,0,0,0-4.37,1c1.21-4.76,3-10.93,5.68-18.94,1.56-4.69,3.38-9.89,5.39-15.44a68.33,68.33,0,0,0,2.83-12.69,58.34,58.34,0,0,1,2.69-11.85,35.6,35.6,0,0,1,5-8,36.91,36.91,0,0,0,5.07-8.15l1.76-4.44c3.11-7.85,5.09-12.9,6.31-16.16a299.83,299.83,0,0,1,57.29,22.13l2.94,1.5,1.14-3.1c7.6-20.75,17.13-38.65,28.3-53.22l1.16-1.52-.91-1.67c-5.77-10.56-15.22-17.25-22.13-21A99.43,99.43,0,0,0,514.83,498a47.46,47.46,0,0,1,14.67,2.06,83.78,83.78,0,0,1,17.88,7.57,79.31,79.31,0,0,1,15.55,11.74c4.78,4.52,9.21,9.43,14,14.41a52.08,52.08,0,0,0-10.43-17.86,71.93,71.93,0,0,0-16-13.6,74.66,74.66,0,0,0-9.33-4.9,68.93,68.93,0,0,0-9.94-3.61,54.53,54.53,0,0,0-6.67-1.45c.95-.95,1.7-1.64,2.46-2.35,1.17-1.09,2.37-2.2,4.31-4.25.42.34.87.68,1.37,1a6.88,6.88,0,0,0,1.6,2.31c5.42,5.1,15.23,11.69,30,20.13h0a5.48,5.48,0,0,0,2.73.73,5.6,5.6,0,0,0,2.07-.4,6.67,6.67,0,0,0,2.94-2.43c2.1.84,4.17,1.64,6.17,2.4,55,20.79,100.07,31.24,134.69,31.24A131.15,131.15,0,0,0,741.09,538q-.11.81-.24,1.62c-.33,2.27-.7,4.52-1.1,6.78-.82,4.5-1.75,9-2.79,13.47s-2.26,8.81-3.7,13.08a59.3,59.3,0,0,1-2.38,6.09,58.24,58.24,0,0,1-3.07,5.78,102.75,102.75,0,0,1-17,20.68c-.81.79-1.65,1.55-2.48,2.33a21.3,21.3,0,0,1-2.27,1.79,29,29,0,0,1-5.39,2.85,54.76,54.76,0,0,1-12.51,3.27,109.48,109.48,0,0,1-26.85.4l-3.38-.37c-1.1-.16-2.09-.29-3.23-.51-2.21-.39-4.49-.86-6.75-1.33L634.31,611c-9.12-1.92-18.22-3.93-27.46-5.68-2.34-.41-4.62-.83-7.11-1.13L598,604a9.81,9.81,0,0,1-1.47-.23,12.88,12.88,0,0,1-2.73-.84c-.7-.3-1.43-.69-2.25-1.14a41.07,41.07,0,0,0,8-3.56,39.26,39.26,0,0,0,8.29-6.37,20.34,20.34,0,0,0,5.3-8.8A55,55,0,0,1,606,589.79ZM418.92,658.27c-.28,1.78-.63,3.55-1,5.31l-1.7-.51A75.1,75.1,0,0,0,396,660.19h-.25c.4-1.71.75-3.46,1-5.23a65.15,65.15,0,1,0-64.47,55.58,64.62,64.62,0,0,0,7.64-.47,14.74,14.74,0,0,0-2.78,5.29,20.21,20.21,0,0,0-.31,9.7,21.08,21.08,0,0,0,2.73,6.87,88,88,0,0,1-20.19-.69,89.68,89.68,0,0,1-31.9-11.49A87.39,87.39,0,0,1,311.06,560.1a88.34,88.34,0,0,1,34.24-1.81,86.54,86.54,0,0,1,32.35,11.54A88.59,88.59,0,0,1,403,593a87.12,87.12,0,0,1,14.47,31.1A88.1,88.1,0,0,1,418.92,658.27Zm-74.45,30.94A35.88,35.88,0,0,0,341.35,704a58.8,58.8,0,0,1-17.87,0,59.39,59.39,0,0,1,8.67-118.12,61.08,61.08,0,0,1,8.92.67A59.45,59.45,0,0,1,391,654.09a58.75,58.75,0,0,1-1.3,6.31,63.91,63.91,0,0,0-14,2.61,52.24,52.24,0,0,0-18.45,9.61A44.93,44.93,0,0,0,344.47,689.21Zm1,40.91a14.68,14.68,0,0,1-2.88-6.24,12.68,12.68,0,0,1,1.55-9.7c9.72,11.31,24.63,19.93,45.49,26.3L502.72,775A17.73,17.73,0,0,1,499,777.5a25.39,25.39,0,0,1-7.14,2.15,40.58,40.58,0,0,1-15.49-.94,161.26,161.26,0,0,1-15.67-4.84l-15.82-5.41-63.27-21.65-15.81-5.42c-5.2-1.8-10.28-3.71-14.62-6.47A25.62,25.62,0,0,1,345.48,730.12ZM445.89,508.93a7.86,7.86,0,0,0-5.34-3.53c-7.38-1.19-14.76-.47-21.9.24-10,1-19.53,1.93-28.5-2.32a5.12,5.12,0,0,1-1.55-1c-1.05-1.17-1.06-4.14,0-6.36a13.91,13.91,0,0,1,5.43-5.59c13.63-8.71,40.9-17.32,54.81-15.18,2.39,4.68,6.88,9,13.25,12.68a82.8,82.8,0,0,0,30.78,10.21c-.91,2.81-1.81,3.29-4.9,4.95-.71.38-1.52.81-2.43,1.32-2.41,1.36-4.86,2.49-7.46,3.69a67.93,67.93,0,0,0-12.88,7.13,82.2,82.2,0,0,0-11,10.8,84.5,84.5,0,0,1-9.3,9.33c-2,1.59-3.17,1.86-3.5,1.65-.53-.33-1.08-2.06-.75-4a21.17,21.17,0,0,1,2.71-6.45,31.5,31.5,0,0,0,2.92-8.41c.21-.84.41-1.69.65-2.53A8.26,8.26,0,0,0,445.89,508.93Zm56.84-6.71c11.1.25,24.2,5.28,32.92,10,5.84,3.17,13.69,8.65,18.84,17-10.47,14-19.48,30.85-26.82,50.13a306.31,306.31,0,0,0-55.31-21c.84-6.24,1.74-12.66,4-18.46C480.91,528.19,490.54,510.44,502.73,502.22Zm33.91-48.4q1.38,1.81,2.93,3.52a118.61,118.61,0,0,0-6.47,19.76C532,470.84,533.52,460.78,536.64,453.82Zm-17.18-71.77a31.18,31.18,0,0,0,6.73,1c1.1,4.71,3.69,8,7.32,9.14a9.29,9.29,0,0,0,3,.47,13.05,13.05,0,0,0,8.45-3.6,27.12,27.12,0,0,0,7.58-12c3.55-10.83.76-21.14-6.34-23.46-4.9-1.6-10.39,1.08-14.49,6.46l-.22-.05a15.58,15.58,0,0,1-3.07-.92c-.36-.16-.7-.34-1-.52L542,315c1.62-4.82,5.65-8.07,8.81-7.11l28.61,8.69c-1.12,2.74-3.74,10.22-11.19,32.24l-.37,1.09L574.21,364l-15.47,46.62L522.3,393.93C519.21,392.51,517.93,387,519.46,382.05Zm22.61-17a10.62,10.62,0,0,0-4.23-3.21c1.84-1.85,3.78-2.86,5.41-2.86a3.49,3.49,0,0,1,1.08.16c3.36,1.1,5.25,8,2.6,16.08a21.69,21.69,0,0,1-5.86,9.45c-2.05,1.78-4.14,2.5-5.74,2-1.32-.43-2.41-1.76-3.08-3.71a15.82,15.82,0,0,0,7.25-2.31,11,11,0,0,0,4.71-7.29A10.67,10.67,0,0,0,542.07,365.07Zm19.81-92.37a17.68,17.68,0,0,0,1.54,3,23.72,23.72,0,0,0,3,3.6,83,83,0,0,0-5.2,25.6l-6.66-2C552.81,285.55,558,276.77,561.88,272.7ZM768.76,449.23a55.72,55.72,0,0,0,8.7-4.22,32.64,32.64,0,0,0,5.85-4.51c-.4,1.55-.81,3.08-1.25,4.55a76.7,76.7,0,0,1-5,12.32A64.8,64.8,0,0,1,770,468.45a63.44,63.44,0,0,1-4.36,4.91A17.23,17.23,0,0,0,762,479.2a12.11,12.11,0,0,1-2.62,1.4,36.26,36.26,0,0,1-5,1.56,88.85,88.85,0,0,1-11,1.8c-3.76.4-7.55.61-11.35.78s-7.63.26-11.55.05A42.28,42.28,0,0,0,731.8,488a77.46,77.46,0,0,0,11.79.83,68.36,68.36,0,0,0,11.95-1,38.73,38.73,0,0,0,4.46-1.11c-.57,3-.94,5.92-1.36,8.79-.49,3.48-.95,7-1.72,10.08-40.6,11.83-92.13-1.23-137.49-15.75L613.82,488c-9.43-3-20.12-6.37-30.56-10.5l.82-2.06c1.55-3.93.21-8.5-3-10.18-9.33-4.95-19.23-10.46-28.51-18.54a5.49,5.49,0,0,0-4.79-1.29,6.77,6.77,0,0,0-4.63,3.9c-.34.71-.65,1.4-1,2.1a46.26,46.26,0,0,1-2.78-3.85,88,88,0,0,0-.2-13.62c-.54-8.67-1.18-19.23,2-24.94L610,440.56a12.33,12.33,0,0,0,5.17,1.13,12.77,12.77,0,0,0,5.26-1.15,17.25,17.25,0,0,0,9.06-10.92l22.47-73.36a178,178,0,0,0,23.34,1.37c24.47,0,56.17-3.71,80.33-14.11-.31.71-.65,1.41-.93,2.14a64.47,64.47,0,0,0-3.17,10.53,54.3,54.3,0,0,0-1.16,10.92,25.63,25.63,0,0,0,2.12,10.67,89.58,89.58,0,0,1,.64-10.5,50.68,50.68,0,0,1,2.34-10,76.49,76.49,0,0,1,3.94-9.51c1.42-2.85,3-5.62,4.68-8.32a72.15,72.15,0,0,0,11.72-7.86c-9.6,29.74-15.15,60-2.57,85.84,1.67,3.42,4.1,7.66,8.19,10.21a15.75,15.75,0,0,0,3.2,1.5,40.92,40.92,0,0,1-3.51,6.31,32.12,32.12,0,0,1-6,6.27,53,53,0,0,1-7.54,5.05,81.77,81.77,0,0,0-8,4.93A39.67,39.67,0,0,0,768.76,449.23Zm-24.57,75.49a21.37,21.37,0,0,0-1.59,4,26.44,26.44,0,0,0-.69,3.08c-35.55,8.72-89.88-.59-161.6-27.72-2-.75-4-1.54-6-2.35,2.1-6.45,4.41-12.55,6.86-18.75,10.59,4.21,21.39,7.62,30.93,10.65l5.6,1.77C651.1,506.08,687.9,516,721.65,516a136.72,136.72,0,0,0,32.11-3.56l-.22.21a53.24,53.24,0,0,0-5.11,5.57A40.93,40.93,0,0,0,744.19,524.72ZM567.67,503a2.15,2.15,0,0,1-.59,1c-5.44-3.11-21.26-12.19-28.74-19.22a2.82,2.82,0,0,1-.41-2.33c2.34-12,5.9-20.91,10.53-30.64a2.08,2.08,0,0,1,.43-.61c9.71,8.43,19.89,14.1,29.48,19.19a2.88,2.88,0,0,1,.26,2.86l-1.41,3.58C573.77,485.57,570.52,493.78,567.67,503ZM585,318.24l54.72,16.63c.29.94.15,2.34-.4,4.44-.1.34-.17.63-.22.85C633.87,365.4,626,390.94,617.74,418l-1.92,6.28a14.3,14.3,0,0,1-5.29,7.49,6.46,6.46,0,0,1-3.35,1.08L564.1,413.09l16.39-49.39-6.36-14.13C578.11,337.83,584.27,319.83,585,318.24Zm63,30.94-24.11,78.73A11.4,11.4,0,0,1,618,435.2a6.58,6.58,0,0,1-5.59,0l-.06,0c.13-.09.28-.15.4-.24a18.15,18.15,0,0,0,6.81-9.56l1.93-6.27C629.8,392,637.66,366.36,642.92,341c0-.16.09-.38.16-.64a17,17,0,0,0,.66-4.08,8.08,8.08,0,0,1,3.53,3.47A12.53,12.53,0,0,1,648,349.18Zm5.68,1.41a18.37,18.37,0,0,0-1.2-13.64,14.82,14.82,0,0,0-2.31-3.22c15-.51,34.88-1.8,44.06-6.44,2.85.55,5.7,1,8.57,1.51,17.17,2.7,34.74,3.67,51.74,4.61,2,.11,4.2.23,6.51.23l1.53,0C731.63,351.43,679.17,353.83,653.64,350.59Zm-12.43-22.46-3.25.09L567,306.66a76.68,76.68,0,0,1,4.18-23.47,70.23,70.23,0,0,0,11.21,5.66c32.28,13.76,65.49,27.89,100.34,36C670.3,327.4,651.53,327.87,641.21,328.13Zm206,126.27c-4,25.86-8.48,48.61-22.09,65.13-7.13,8.65-16.79,15.35-28.71,19.91-21.12,8.09-38.32,12.78-49.54,13.62.35-1.75.69-3.49,1-5.26q.61-3.49,1.13-7c.38-2.37.58-4.88.88-6.92a16.2,16.2,0,0,1,1.62-5.4,31,31,0,0,1,3.37-5.18,45.76,45.76,0,0,1,4.32-4.74l.31-.29.44-.46a9,9,0,0,0,.82-.94,17,17,0,0,0,1.32-1.94,24.72,24.72,0,0,0,1.74-3.87c1.7-5.09,2.23-9.87,2.86-14.52A87.36,87.36,0,0,1,769,483.43a11.74,11.74,0,0,1,2.28-4.52,69.71,69.71,0,0,0,4.87-5.58A72.68,72.68,0,0,0,784,460.87a85.08,85.08,0,0,0,5.37-13.62c1.38-4.73,2.33-9.25,3.35-13.88.22-1,.42-2.05.62-3.07,1.1,0,2.2,0,3.29-.1a312.42,312.42,0,0,0,55.59-7.88Q849.68,438.45,847.19,454.4Zm86.64-260.56a61.9,61.9,0,0,1,.9-8.61c.14-.67.25-1.49.4-2a10,10,0,0,1,.62-1.76,15.29,15.29,0,0,1,2-3.34c1.6-2.05,3.75-3.42,6-3.38a7.46,7.46,0,0,1,1.67.23,7,7,0,0,1,1.45.62,7.19,7.19,0,0,1,1.91,2.81,35.66,35.66,0,0,1,2.17,8.2c.23,1.44.4,2.88.52,4.32.06.73.1,1.44.13,2.15v1.07c0,.42,0,.84,0,1.27a12.49,12.49,0,0,0,1.39,5,6.53,6.53,0,0,0,2,2.3,4.18,4.18,0,0,0,3.59.61,6.55,6.55,0,0,0,2.51-1.62c.6-.53,1.15-1.1,1.69-1.67a38.15,38.15,0,0,0,3-3.63c3.65-5.05,6.18-10.62,9.06-15.77a159.54,159.54,0,0,1,9.34-15.1,102.92,102.92,0,0,1,11.2-13.56c1-1,2.09-2,3.16-3a3.61,3.61,0,0,1,1.21-.9,2.49,2.49,0,0,1,1.22-.18,2.7,2.7,0,0,1,2.07,1.35,8.67,8.67,0,0,1,.52,3.45,16.62,16.62,0,0,1-.46,4c-.08.32-.18.61-.28.9l-.39,1-.8,2.08c-1.09,2.76-2.23,5.53-3.38,8.28l-7.05,16.54-1.75,4.16-.85,2.09-.21.53-.05.13a1.15,1.15,0,0,0-.13.47,1.52,1.52,0,0,0,2.68,1.15l.23-.31.32-.45q2.61-3.6,5.47-7a128.79,128.79,0,0,1,12.27-12.88,81.61,81.61,0,0,1,14-10.54,12.58,12.58,0,0,1,7.41-1.66,2.76,2.76,0,0,1,2.18,1.46,4,4,0,0,1,.09,3c-1.68,5.19-5.07,10.16-8.72,14.7s-7.86,8.91-11.85,13.45c-2,2.26-4,4.59-5.75,7.07l-.34.46-.17.23-.08.12a1.83,1.83,0,0,0-.15.24,1.79,1.79,0,0,0,2,2.59,2.07,2.07,0,0,0,.76-.41l.21-.18.43-.35.85-.7q1.72-1.39,3.51-2.69a84.34,84.34,0,0,1,15.3-8.81,88,88,0,0,1,16.66-5.52c.72-.17,1.43-.31,2.15-.44l1.07-.19.54-.1.31,0a2,2,0,0,1,1.75,1,1.74,1.74,0,0,1,.2,1l0,.26-.12.42c-.09.27-.19.55-.31.83a14.1,14.1,0,0,1-2.1,3.28,40.42,40.42,0,0,1-6.28,5.79l-7,5.67-14,11.28-.44.35-.22.17a2.18,2.18,0,0,0-.36.34,2.33,2.33,0,0,0-.45.82,2.27,2.27,0,0,0,1.69,2.87,2.44,2.44,0,0,0,.89,0l.26-.06.27-.07,2.16-.5,4.35-.95c2.91-.59,5.82-1.13,8.75-1.6s5.94-.91,8.73-1.16,5.35.12,6.87,1.61a3.64,3.64,0,0,1,1.27,2.37,2.64,2.64,0,0,1-1.26,2,17.21,17.21,0,0,1-3.48,1.88c-1.33.61-2.69,1.17-4,1.75-5.48,2.26-11.14,4.27-16.72,6.81a55.53,55.53,0,0,0-15.76,10.06c-4.69,4.46-7.74,9.77-11.75,13.59s-8.88,6.43-14.15,6.41a57,57,0,0,1-8.54-1,17.12,17.12,0,0,0-5.37,0c-.51.12-1,.26-1.53.4a11.28,11.28,0,0,0-1.48.73l-.43.25c-7.73-6.67-23.62-20.16-32.18-27.38a16.7,16.7,0,0,0,2.57-4.86l.38-1.19-.61-1.11C935.65,217.23,933.44,205.36,933.83,193.84Zm-52.63,92.9a304.66,304.66,0,0,0,16-25.91c7-12.3,12.06-21.19,21-26.56,2.88-1.72,6.18-.91,8.37-.36l.84.2A10.43,10.43,0,0,1,932,236.2c13.36,11.24,37.87,32.14,39.07,33.3,7.36,8,7.85,13.37,1.85,20.45-1.24,1.47-2.53,3.11-3.83,4.82a44.07,44.07,0,0,0-3.42-5.34,53,53,0,0,0-7.73-8.3,74.08,74.08,0,0,0-9-6.64,41.42,41.42,0,0,0-10-4.72c2.77,2.47,5.61,4.68,8.38,7a72.39,72.39,0,0,1,7.73,7.31,58.86,58.86,0,0,1,6.33,8.29,47.42,47.42,0,0,1,3.83,7.68c-3.71,5.26-7.52,11.18-11.25,17.26a16.11,16.11,0,0,0-1.2-3.75,25.49,25.49,0,0,0-3.23-5.17,16.69,16.69,0,0,0-4.36-4,28.37,28.37,0,0,0,2,5.44,27,27,0,0,1,1.72,5.06,16.59,16.59,0,0,1,.3,5,50.4,50.4,0,0,0-.34,5.84h.06c-5.64,9.56-10.87,18.95-14.95,26.27-3.39,6.08-6.06,10.89-7.32,12.81-2.12,3.21-4,6.59-5.81,9.86-2.87,5.18-5.58,10.07-9.15,14.35-9.31,11.17-23.72,16.89-36.58,21a309.19,309.19,0,0,1-78.79,14.39c-4.41.22-8.65.25-11.84-1.74-2.81-1.75-4.69-5.08-6-7.79-13.07-26.82-4.88-59.71,6.21-91.4l.74-.13a30.09,30.09,0,0,1,2.64,2.86,24.47,24.47,0,0,1,2.27,3.66,38.44,38.44,0,0,1,2.91,8.61c.7,3,1.14,6.23,1.61,9.44a35.15,35.15,0,0,0,2.5,9.52c.2-3.32.27-6.49.25-9.73s0-6.51-.33-9.86a37.51,37.51,0,0,0-2.22-10,24.38,24.38,0,0,0-2.44-4.8c-.18-.27-.37-.53-.56-.79l2-.29,1.24.58a8.73,8.73,0,0,1,1.3.8,23.17,23.17,0,0,1,2.7,2.77c.92,1.06,1.85,2.12,2.75,3.22a15,15,0,0,0,3.24,3.08,11.21,11.21,0,0,0-.83-4.46c-.53-1.38-1.1-2.75-1.74-4.08a25.21,25.21,0,0,0-1.54-2.86c5.31-.66,10.9-1.28,16.42-1.89,12.7-1.4,25.82-2.85,35.07-4.82a4.77,4.77,0,0,0,1.16-.46,55.45,55.45,0,0,1,11.61,6.87,67.27,67.27,0,0,1,10.81,10.6A84.45,84.45,0,0,1,884.83,344c2.52,4.52,4.8,9.19,7.19,13.92a63.31,63.31,0,0,0-4.71-15.16,89,89,0,0,0-7.84-14,65.69,65.69,0,0,0-10.81-12.12,54.18,54.18,0,0,0-9.68-6.77A237.69,237.69,0,0,0,881.2,286.74Zm-22,15.07c-3.62,3.5-6.68,6.23-7.77,6.68h0c-2,.3-3.95.67-5.94,1.1-8.29,1.38-18.53,2.52-28.53,3.62-11.08,1.22-22.49,2.48-31.36,4.09,0-.29.1-.58.12-.87a12.64,12.64,0,0,0-1.77-7.71c3.15-3.25,4-7.55,2.44-12.46a152.68,152.68,0,0,0,19.32-17,24.28,24.28,0,0,0,9.13,1.89,23.36,23.36,0,0,0,5.51-.69C835.83,283.59,847.93,290.15,859.18,301.81Zm4.13-93.11c.05.68.09,1.37.15,2.07.61,8.1-2.8,16.06-6.35,23.51C851,247,843.84,259.91,832.32,267.94c-9.61,6.7-15.68,8.66-22.33,6.69,18.77-20.88,34-47.53,41.5-74,.86-3,1.61-6.08,2.29-9.13C862.53,196.75,862.85,201.6,863.31,208.7ZM748.48,11.05A137.21,137.21,0,0,1,803.7,41.77a133.19,133.19,0,0,0-15,13.62A131.29,131.29,0,0,0,774.08,74a105.44,105.44,0,0,0-10.75,21.41,78.94,78.94,0,0,0-4,16.13c-32.12-11.11-62.74-17.74-78-20.2l-3.67-.55a143,143,0,0,0,3.89-38.6,107.13,107.13,0,0,0-9.7-40.63A137.41,137.41,0,0,1,748.48,11.05Zm-44.54,95.79c-15.41-1.41-31-2.82-46.32-.58s-30.57,8.5-40.74,20.17c-11.06,12.7-17.74,49.92-21.13,66.42-2.07-18.12-.66-54,4.91-71.34,2-6.11,4.55-12.33,9.49-16.41s11.8-5.49,18.29-6.32A168.43,168.43,0,0,1,703.94,106.84ZM543.8,186.15c-5.6-12.88-5-27.63-3.44-41.66.89-8.21,2.16-16.78,6.93-23.35l1.21-1.69c3.89-5.47,6.63-9.29,15.48-9.63-1,2.81-1.85,5.65-2.67,8.53a166.39,166.39,0,0,0-1.82,85.26C552.68,201.84,548.5,197,543.8,186.15ZM566.94,120C580,73.88,611.51,38.27,650.26,19.82c1.11,2.47,2.14,5,3,7.53a92.36,92.36,0,0,1,3,10.66,81.77,81.77,0,0,1,1.59,11c.29,3.73.44,7.48.76,11.34a40.44,40.44,0,0,0,2-11.38,86.85,86.85,0,0,0-.33-11.62,76.85,76.85,0,0,0-2.06-11.52,71.4,71.4,0,0,0-2.7-8.4c3.48-1.49,7-2.83,10.59-4a100.5,100.5,0,0,1,8.07,39A135.85,135.85,0,0,1,669,89.71c-22.09-2.48-44.57-2-66.15,3a6.37,6.37,0,0,0-4.39,3.69c-18,41.94-21.06,90.75-6.54,134a6.4,6.4,0,0,0,2.27,3.12c47.42,35.17,117,52.18,170.07,44.46a6.4,6.4,0,0,0,3.74-2c34.5-36.79,59.46-78.27,61.63-127.2a6.29,6.29,0,0,0-2.82-5.53c-17.34-11.47-38.23-21-59-28.64a68.19,68.19,0,0,1,3.24-16.51A97.93,97.93,0,0,1,780.36,78a126.67,126.67,0,0,1,27.68-32A146.17,146.17,0,0,1,834.72,82.4c18.43,35.52,22.38,76.94,11.13,116.62-10.25,36.18-35.31,72.67-64,93.28a420.39,420.39,0,0,1-202.7-53.68C559.8,202.65,555.43,160.55,566.94,120Zm214.28,50c-7.6-7.18-9.77-17.22-4.87-22.41S791.41,144,799,151.19s9.78,17.22,4.87,22.41S788.82,177.17,781.22,170Zm14.56,29.68a7,7,0,1,1-.28-10A7.06,7.06,0,0,1,795.78,199.66ZM575.43,243.27a426.2,426.2,0,0,0,205.39,54.89c1.36,4.35-.54,6.35-2.66,7.73l-1.78,1.17c-5.43.78-10.84,1.52-16.27,2l-4.48.41-4.48.3-4.48.26-4.5.13c-6,.23-12-.05-18-.18s-12.12-.36-18.43-.17a66.78,66.78,0,0,0,17.82,5.8,117.64,117.64,0,0,0,18.65,1.76h4.69l4.7-.15c3.12-.21,6.24-.46,9.35-.84a109,109,0,0,0,18.34-3.87l0-.14a7.31,7.31,0,0,1,.6,3.62,11.76,11.76,0,0,1-5.12,8.7c-5.28,3.35-12.13,3.27-19.9,2.84-16.85-.93-34.27-1.89-51.15-4.55-41.51-6.53-80.88-23.32-118.95-39.55-5.69-2.42-12.78-5.45-16.4-11a13.37,13.37,0,0,1-1.52-10.58,7.46,7.46,0,0,1,1.47-2.68,219.83,219.83,0,0,0,18.93,11.94c6.73,3.73,13.58,7.25,20.61,10.37s14.2,5.93,21.48,8.37,14.66,4.68,22.49,5c-6.84-3.79-13.93-6.32-21-9.11s-13.9-5.93-20.67-9.24-13.45-6.81-19.95-10.63c-6.15-3.56-12.19-7.32-18.13-11.23v0A15.44,15.44,0,0,1,575.43,243.27ZM526.59,321.2c.61-1.67,1.19-3.35,1.76-5,.72-2.09,1.43-4.19,2.23-6.25l1.18-3.11c5.69-15,13.85-36.47,29.15-45.43a18.48,18.48,0,0,0-.45,4.77c-4.45,3.36-13.7,13.17-11.89,35.76-5.09.54-10,4.83-12.13,11.19l-8.14,24.22a22,22,0,0,0-9.22.76A140.56,140.56,0,0,0,526.59,321.2Zm-17.82,34.16a17.17,17.17,0,0,1,7.37-9.51,17.79,17.79,0,0,1,11.33-2.74L524,354.67h0a3.4,3.4,0,0,0-.4,1.94,5.18,5.18,0,0,0,.67,2,9,9,0,0,0,2.8,2.91,11.3,11.3,0,0,0,3.64,1.66c1.19.33,2.34.61,3.42,1a9,9,0,0,1,5,3.19,6.75,6.75,0,0,1-1.93,9.74,12.29,12.29,0,0,1-5.86,1.42,29.68,29.68,0,0,1-13-2.22C510.61,373,506.4,363.15,508.77,355.36ZM473,437c4.24-3,6.66-7.21,9-11.24s4.68-8,8.86-11a56.54,56.54,0,0,0,12.32-11.52,17.26,17.26,0,0,0,2.74,3.12,25.27,25.27,0,0,0,5.87,3.85,64.91,64.91,0,0,0,6.13,2.47,42.17,42.17,0,0,0,6.27,1.79,19.15,19.15,0,0,0-5-4.28c-1.82-1.15-3.61-2.29-5.25-3.5a24.33,24.33,0,0,1-4.3-3.94,13,13,0,0,1-2.53-4.52l-.36.13c1.31-2,2.51-4,3.69-5.92.88-1.47,1.76-2.89,2.66-4.31.46,5,2.91,9.32,6.85,11.12l16,7.34c-3.74,7.2-3.08,18-2.48,27.74.3,5,.59,9.69.18,12.91-5.24,8.11-8.53,24.29-5.57,33.56-2.35,2.53-3.61,3.7-4.92,4.93s-2.94,2.72-5.83,5.88c-.43.09-.87.15-1.3.22-.74,0-1.48.09-2.23.17l-.65.06-1.12.16c-.64.11-1.28.23-1.91.38h0a77.44,77.44,0,0,1-45-9.8c-4.7-2.7-12.54-8.35-12.29-15.84.15-4.49,3.14-8.56,6.73-13,1.58-2,3-4.05,4.36-6.09a41.45,41.45,0,0,0,5.82,8.45,54.67,54.67,0,0,0,11.18,9.58,93.47,93.47,0,0,0,12.72,6.83A84.08,84.08,0,0,0,507,477.45c-4-2.65-8.16-4.88-12.22-7.21a89.12,89.12,0,0,1-11.59-7.67,56,56,0,0,1-9.6-9.55,39.65,39.65,0,0,1-5.92-10.68A26.31,26.31,0,0,1,473,437Zm-18.14,8.1,4.25-.68c-1.4,2.09-2.73,4.06-4.2,5.89-3.29,4.09-7.8,9.7-8,16.51a16.38,16.38,0,0,0,.1,2.32c-16.77-1.21-42.44,7.92-55.34,15.91q-9,0-18,.24C392.12,455,428.17,449.29,454.83,445.06ZM130.39,730c-12.08-6.94-23.51-14.86-35.13-22.49l-16.9-12.21c-1.4-1-2.83-2-4.21-3.07L70.08,689l-8.14-6.5L53.79,676l-7.8-6.9-7.8-6.91-3.9-3.45c-1.3-1.16-2.49-2.42-3.74-3.62L15.72,640.47l-.93-.92-.68-.78a13.53,13.53,0,0,1-1.25-1.6,14.4,14.4,0,0,1-1.77-3.47,12.51,12.51,0,0,1-.37-7.33,13.64,13.64,0,0,1,4-6.42c.27-.23.43-.43.77-.71l1-.81,2-1.63,4.06-3.26L30.68,607c1.36-1.08,2.69-2.2,4.07-3.25l4.22-3c5.66-4,11.21-8.21,17-12.12l17.49-11.34a545.47,545.47,0,0,1,74.22-38l9.66-4c3.23-1.29,6.41-2.72,9.71-3.83l19.67-7.06,7-2.23c9.18,17.71,14.22,37.44,17.33,57.27a356.39,356.39,0,0,1,3.62,63.92A435,435,0,0,1,208,707.2q-2.82,15.79-7,31.29c-1.4,5.16-2.89,10.29-4.55,15.36-1.05,3.23-2.21,6.41-3.4,9.58-8.84-4.2-17.56-8.64-26.34-13C154.58,743.76,142.2,737.34,130.39,730Zm563,130-20.89,1.17c-7,.36-14,.39-20.92.6l-10.45.29-10.46,0c-7-.07-13.95,0-20.92-.16l-20.9-.73-5.23-.18-5.21-.35L568,860c-13.93-.68-27.79-2.27-41.67-3.53l-20.76-2.59-10.37-1.34-10.33-1.62c-6.88-1.11-13.79-2.08-20.66-3.3l-20.55-3.87c-6.87-1.19-13.65-2.82-20.47-4.3s-13.63-2.9-20.41-4.64l-20.34-5c-6.79-1.68-13.5-3.6-20.26-5.39L352,821.6l-10-2.94-20.09-5.94c-13.29-4.28-26.64-8.38-39.77-13.13-13.24-4.44-26.19-9.61-39.25-14.53-12.85-5.4-25.84-10.5-38.44-16.45-1.85-.81-3.68-1.66-5.51-2.5,8.61-18.17,14.38-37.53,18.45-57.11a361.66,361.66,0,0,0,7.19-65.36A327.8,327.8,0,0,0,219.7,578a213.42,213.42,0,0,0-8.35-32,147,147,0,0,0-11.68-25.65c9-2.8,18-5.49,27.08-7.75l10.11-2.68,10.21-2.27,10.22-2.27c1.7-.37,3.4-.78,5.11-1.12l5.15-.93,20.6-3.69,20.73-2.92Q346.64,492,384.75,491a17.23,17.23,0,0,0-1.46,2.45c-1.8,3.83-2.05,9.45,1,12.78a10.16,10.16,0,0,0,3.4,2.36c10.43,4.94,21.18,3.87,31.58,2.85,7.07-.7,13.76-1.36,20.38-.29a2,2,0,0,1,1.35.9,2.33,2.33,0,0,1,.27,1.91c-.25.91-.47,1.82-.69,2.73a26.94,26.94,0,0,1-2.35,6.94,26.11,26.11,0,0,0-3.36,8.32c-.59,3.5.23,7.93,3.38,9.93a6.17,6.17,0,0,0,3.37,1c1.84,0,4.15-.75,6.95-3a89.3,89.3,0,0,0,10-10,76.41,76.41,0,0,1,10.21-10,62.53,62.53,0,0,1,11.81-6.49c1.75-.81,3.55-1.67,5.34-2.58a121.72,121.72,0,0,0-15,27c-2.56,6.59-3.5,13.54-4.4,20.22-.27,1.46-3.84,10.46-7.61,20l-1.75,4.44a32.59,32.59,0,0,1-4.32,6.79,40.1,40.1,0,0,0-5.77,9.45,63.38,63.38,0,0,0-3,13.05,62.66,62.66,0,0,1-2.56,11.61c-2,5.6-3.86,10.84-5.43,15.58-4.76,14.3-7.06,23.45-7.87,29.43-.72-.45-1.46-.88-2.2-1.29-.53-.3-1.08-.57-1.62-.84.5-2.29.95-4.59,1.29-6.91a94.59,94.59,0,0,0-45-94.51,96.8,96.8,0,0,0-34.49-12.49,94.63,94.63,0,0,0-62.95,174.56,93.55,93.55,0,0,0,34.94,12.54,96.21,96.21,0,0,0,28.8-.21l1,.68c5.1,3.22,10.56,5.22,15.86,7.07l15.83,5.43L442.94,774l15.82,5.41a167.47,167.47,0,0,0,16.26,5,46.78,46.78,0,0,0,17.69,1,31.29,31.29,0,0,0,8.81-2.67,19.94,19.94,0,0,0,7.58-6.08c1.93-2.75,2.89-5.56,4-7.83a15.87,15.87,0,0,1,1.85-3c.91-1.16,1.8-2.34,2.63-3.57a57.07,57.07,0,0,0,7.28-16c3-10.1,3.79-20.34,6.87-29.46a14.76,14.76,0,0,0,3.08-1,16.28,16.28,0,0,0,6.25-5.15l7.11-11.14c4.67-7.29,9.55-14.84,12.5-23.61a45.6,45.6,0,0,0,2.51-13.72,45.78,45.78,0,0,1,.18-6.1,28.57,28.57,0,0,1,1.46-5.6c1.41-3.76,3.41-7.67,5-12a41.16,41.16,0,0,0,1.79-6.8c.14-1.18.33-2.36.36-3.54l.1-3.21c.25-3.66,1.77-7.58,3.43-11.46l2.61-6c.43-1,.85-2.09,1.22-3.23,0-.12.08-.21.11-.32h0l0,.77a16.12,16.12,0,0,1,5.89.67,13.88,13.88,0,0,1,2.56,1.24c.91.55,2,1.27,3.25,1.86a19.38,19.38,0,0,0,3.88,1.41,17.54,17.54,0,0,0,2,.41l1.76.3c2.12.36,4.41.89,6.64,1.39,9,2,18.07,4.27,27.13,6.46,4.53,1.1,9.07,2.22,13.66,3.2,2.31.51,4.59,1,7,1.45,1.14.23,2.46.44,3.66.61l3.57.43A117.72,117.72,0,0,0,689.4,624a60.72,60.72,0,0,0,14.47-3.82,36.8,36.8,0,0,0,6.93-3.7A28.62,28.62,0,0,0,714,614c.87-.82,1.76-1.63,2.61-2.47A111,111,0,0,0,735,589.05a66.22,66.22,0,0,0,3.47-6.57,65.52,65.52,0,0,0,2.7-6.93c1.4-4.17,2.55-8.39,3.57-12.62l2.79,1.16A190.08,190.08,0,0,1,758,599.38a314.34,314.34,0,0,1,5.06,36.86,498.86,498.86,0,0,1-.18,74.66,611.05,611.05,0,0,1-10.36,74c-2.51,12.2-5.29,24.35-8.75,36.31-1.74,6-3.52,11.94-5.5,17.84s-4.15,11.65-6.39,17.42Q712.66,858.64,693.38,860Zm162.44.42a145.94,145.94,0,0,0,12.25,19.32A207.28,207.28,0,0,0,899.23,913c3,2.38,5.92,4.79,8.93,7.12s6.15,4.5,9.3,6.64,6.38,4.18,9.65,6.13l5,2.83.27.16c-3.2.4-6.38.89-9.59,1.2l-10.84.68c-3.62.13-7.24,0-10.86,0a190,190,0,0,1-42.9-6.09A178,178,0,0,1,818,915.57a165.68,165.68,0,0,1-35-25.41,182.75,182.75,0,0,1-23.79-27.82l5.53-1a199,199,0,0,0,18.23,19.17,210.8,210.8,0,0,0,21,17,231.54,231.54,0,0,0,22.87,14.2,153.2,153.2,0,0,0,24.57,10.77c-7.85-4.28-15.65-8.51-23.19-13.17a227.86,227.86,0,0,1-21.82-15.07,232.12,232.12,0,0,1-19.89-17.42,223.2,223.2,0,0,1-15.2-16.62l6.76-1.2c23.73-4.73,47.3-10.29,70.51-17.07C850.05,848.61,852.83,854.61,855.82,860.44Zm1.54-27.34c-26.71,6.94-53.66,12.81-80.84,17.29-12.56,2.07-25.16,3.82-37.8,5.33,10.48-21.92,17.6-45.24,23.08-68.78a479.9,479.9,0,0,0,10.84-75.34c1.67-25.32,1.81-50.83-.92-76.16a284.27,284.27,0,0,0-6.32-37.71,191,191,0,0,0-9.95-30.35,1394.4,1394.4,0,0,1,126.91,61.11,217.18,217.18,0,0,1,10.26,51.29c.41,5.14.65,10.29.76,15.45-2.62-.89-5.22-1.78-7.84-2.65-8.58-2.85-17.19-5.58-25.91-8.08-4.36-1.25-8.74-2.44-13.24-3.47a53.93,53.93,0,0,0-7-1.2,63.13,63.13,0,0,0-7.15-.49c-9.56.09-19.34,2.39-27.63,7.82a39.78,39.78,0,0,0-10.81,10.26,33.23,33.23,0,0,0-4.72,29.36,40,40,0,0,0,7.11,13.32,46.94,46.94,0,0,0,11,10,59.07,59.07,0,0,0,13.28,6.39,65.25,65.25,0,0,0,7.13,1.8,55.67,55.67,0,0,0,7.17,1c4.65.42,9.2.62,13.76.77q13.66.45,27.22.17c3.64-.06,7.28-.17,10.91-.28A247,247,0,0,1,857.36,833.1Zm41.69-14.73c-8.26-.54-17.93-1.31-25.66-2.59a258.93,258.93,0,0,0,19.31-56q14.92-.6,29.82-1.9A239.56,239.56,0,0,1,899.05,818.37Zm120.24-3.54a286.52,286.52,0,0,1-28.84,7.52A115.23,115.23,0,0,1,976,824.41a64.15,64.15,0,0,1-7,.18l-3.38-.28-3.52-.55c-17.83-3.24-34.24-13.52-45.61-28.17a247.43,247.43,0,0,0,12.2-38.26c.44-.05.89-.08,1.34-.12,9-.92,18-2,27.09-3.57,4.53-.79,9-1.68,13.61-2.95a53.12,53.12,0,0,0,6.94-2.41,20.58,20.58,0,0,0,3.66-2.07,10.37,10.37,0,0,0,2-1.85,6.53,6.53,0,0,0,1-7.06,10,10,0,0,0-1.37-2.3,19.74,19.74,0,0,0-2.95-3,50.71,50.71,0,0,0-6-4.17c-4-2.43-8.14-4.49-12.27-6.46-8.27-3.9-16.68-7.3-25.11-10.6l-1.69-.64a252.14,252.14,0,0,0-.79-31.31l1.43,2A74.91,74.91,0,0,1,961.72,669a70.67,70.67,0,0,1,28.59-.82,52.22,52.22,0,0,1,6.8,1.88c2.23.9,4.49,1.71,6.68,2.8a143.05,143.05,0,0,1,13,6.91c8.47,5.07,16.62,10.76,24.6,16.69,16,11.89,31.21,24.79,46.11,38.07q20.73,18.53,40.5,38.1-25.8,11.25-52,21.73C1057.27,801.79,1038.41,808.91,1019.29,814.83Z"/><path d="M570.18,470.25a84.67,84.67,0,0,1-16.44-10.69,3.43,3.43,0,0,0-3-.81,4.17,4.17,0,0,0-2.86,2.4,73.42,73.42,0,0,0-6.38,18.59,5.08,5.08,0,0,0,1.31,4.7c4.67,4.39,14.25,9.88,17.41,11.68a3.38,3.38,0,0,0,1.71.46,3.54,3.54,0,0,0,1.28-.24,4.49,4.49,0,0,0,2.55-3c1.6-5.19,3.45-9.86,5.41-14.81l.84-2.11C573,474.07,572.14,471.28,570.18,470.25ZM568.39,475l-.84,2.1c-2,5-3.86,9.77-5.51,15.1a1.17,1.17,0,0,1-.15.35c-3.3-1.89-12.18-7-16.39-11a1.41,1.41,0,0,1-.16-1.11,70.22,70.22,0,0,1,6.07-17.66l.05-.09a87.36,87.36,0,0,0,16.86,10.93A1.55,1.55,0,0,1,568.39,475Z"/><path d="M1095.51,762.65c-5-6-10.15-11.94-15.61-17.56S1068.81,734,1062.8,729a160.28,160.28,0,0,0-18.91-14,86.79,86.79,0,0,0-21.19-9.88,99.67,99.67,0,0,1,20,11.69,188.66,188.66,0,0,1,17.66,14.89c5.58,5.32,11,10.83,16.09,16.59q6.52,7.33,12.65,15c-11.67,5.31-23.48,10.28-35.47,14.79-13,5-26.3,9.4-39.68,13.45-6.7,2-13.38,3.88-20.14,5.27a95.6,95.6,0,0,1-20.48,2.06A59.63,59.63,0,0,1,953.18,795a43.68,43.68,0,0,1-17.08-11.6,41.66,41.66,0,0,0,16.28,13.43,58.13,58.13,0,0,0,20.74,5.44,88.47,88.47,0,0,0,21.45-1.08,192.23,192.23,0,0,0,20.77-4.68c13.64-3.65,27.08-8,40.31-13s26.22-10.55,38.9-16.76l3.11-1.52Z"/><path d="M620.29,848.84A947.27,947.27,0,0,1,522.63,840c-8.09-1.16-16.1-2.53-24.2-3.91s-16.14-2.78-24.2-4.25c-16.12-3-32.23-5.94-48.26-9.3-32.11-6.54-64-14.13-95.9-22.13a846.88,846.88,0,0,0,94.5,28.42c16,3.81,32.1,7.34,48.27,10.43s32.32,6.13,48.71,8.35,32.75,4,49.21,5.18c8.22.58,16.46,1.06,24.69,1.39s16.49.43,24.74.45,16.49-.12,24.73-.5,16.47-.86,24.68-1.68c16.39-1.6,32.77-4.07,48.63-8.45a362,362,0,0,1-48.88,4.9C653,849.54,636.64,849.39,620.29,848.84Z"/><path d="M252.81,656.12A59.52,59.52,0,0,0,256.92,681a66.88,66.88,0,0,0,5.72,11.49,72.47,72.47,0,0,0,7.83,10.24,67.05,67.05,0,0,0,20.74,15,59.3,59.3,0,0,0,24.54,5.81,102.46,102.46,0,0,1-22.4-9.84,86.3,86.3,0,0,1-18.6-15,76.36,76.36,0,0,1-7.5-9.29,85.93,85.93,0,0,1-6.17-10.29A101.6,101.6,0,0,1,252.81,656.12Z"/></g></g></svg>