<?xml version="1.0" encoding="utf-8"?>
<svg width="512px" height="512px" viewBox="0 0 512 512" version="1.1" xmlns:xlink="http://www.w3.org/1999/xlink" xmlns="http://www.w3.org/2000/svg">
  <defs>
    <path d="M0 0L512 0L512 512L0 512L0 0Z" id="path_1" />
    <clipPath id="mask_1">
      <use xlink:href="#path_1" />
    </clipPath>
  </defs>
  <g id="playlistAudio">
    <path d="M0 0L512 0L512 512L0 512L0 0Z" id="Background" fill="#FFFFFF" fill-opacity="0" fill-rule="evenodd" stroke="none" />
    <g clip-path="url(#mask_1)">
      <g id="Group" transform="translate(21.333347 21.333336)">
        <path d="M441.024 106.667L426.667 106.667L426.667 92.3093C426.667 76.6933 413.952 64 398.357 64L384 64L384 28.3093C384 12.6933 371.285 0 355.691 0L28.3093 0C12.7147 0 0 12.6933 0 28.3093L0 355.691C0 371.307 12.7147 384 28.3093 384L64 384L64 398.357C64 413.973 76.7147 426.667 92.3093 426.667L106.667 426.667L106.667 441.024C106.667 456.64 119.381 469.333 134.976 469.333L441.024 469.333C456.619 469.333 469.333 456.64 469.333 441.024L469.333 134.976C469.333 119.36 456.619 106.667 441.024 106.667L441.024 106.667ZM21.3333 355.691L21.3333 28.3093C21.3333 24.4693 24.448 21.3333 28.3093 21.3333L355.691 21.3333C359.552 21.3333 362.667 24.4693 362.667 28.3093L362.667 355.691C362.667 359.531 359.552 362.667 355.691 362.667L28.3093 362.667C24.448 362.667 21.3333 359.531 21.3333 355.691L21.3333 355.691ZM85.3333 398.357L85.3333 384L355.691 384C371.285 384 384 371.307 384 355.691L384 85.3333L398.357 85.3333C402.219 85.3333 405.333 88.4693 405.333 92.3093L405.333 398.357C405.333 402.197 402.219 405.333 398.357 405.333L92.3093 405.333C88.448 405.333 85.3333 402.197 85.3333 398.357L85.3333 398.357ZM448 441.024C448 444.864 444.885 448 441.024 448L134.976 448C131.115 448 128 444.864 128 441.024L128 426.667L398.357 426.667C413.952 426.667 426.667 413.973 426.667 398.357L426.667 128L441.024 128C444.885 128 448 131.136 448 134.976L448 441.024Z" id="Shape" fill="#1A1A1A" fill-rule="evenodd" stroke="none" />
        <path d="M250.027 107.733L207.36 86.4C204.16 84.9067 200.107 84.9067 197.12 86.8267C193.92 88.96 192 92.3733 192 96L192 202.667C183.253 196.053 171.947 192 160 192C130.56 192 106.667 215.893 106.667 245.333C106.667 274.581 130.752 298.667 160 298.667C189.248 298.667 213.333 274.581 213.333 245.333L213.333 113.28L240.64 126.933C245.909 129.515 252.352 127.296 254.933 122.027C257.515 116.757 255.296 110.315 250.027 107.733L250.027 107.733ZM160 277.333C142.293 277.333 128 263.04 128 245.333C128 227.627 142.293 213.333 160 213.333C177.707 213.333 192 227.627 192 245.333C192 263.04 177.707 277.333 160 277.333L160 277.333Z" id="Shape" fill="#1A1A1A" fill-rule="evenodd" stroke="none" />
      </g>
    </g>
  </g>
</svg>