<?xml version="1.0" encoding="utf-8"?>
<svg width="512px" height="512px" viewBox="0 0 512 512" version="1.1" xmlns:xlink="http://www.w3.org/1999/xlink" xmlns="http://www.w3.org/2000/svg">
  <g id="playlistVideo">
    <g id="Group" transform="translate(196.816 224.93333)">
      <g id="Group">
        <path d="M143.82 82.8537L23.32 2.51965C18.718 -0.549347 12.799 -0.835342 7.922 1.77466C3.045 4.38466 0 9.46765 0 15.0007L0 175.668C0 181.2 3.045 186.283 7.922 188.893C10.14 190.079 12.572 190.667 14.999 190.667C17.909 190.667 20.811 189.821 23.32 188.147L143.82 107.814C147.993 105.033 150.5 100.349 150.5 95.3337C150.5 90.3186 147.993 85.6357 143.82 82.8537L143.82 82.8537ZM30 147.641L30 43.0287L108.458 95.3347L30 147.641L30 147.641Z" id="Shape" fill="#1A1A1A" fill-rule="evenodd" stroke="none" />
      </g>
    </g>
    <g id="Group" transform="translate(0 128.533)">
      <g id="Group">
        <path d="M497 0L15 0C6.716 0 0 6.716 0 15L0 368.467C0 376.751 6.716 383.467 15 383.467L497 383.467C505.284 383.467 512 376.751 512 368.467L512 15C512 6.71599 505.284 0 497 0L497 0ZM482 353.467L30 353.467L30 30L482 30L482 353.467L482 353.467Z" id="Shape" fill="#1A1A1A" fill-rule="evenodd" stroke="none" />
      </g>
    </g>
    <g id="Group" transform="translate(48.20099 64.268)">
      <g id="Group">
        <path d="M400.6 0L15 0C6.716 0 0 6.716 0 15C0 23.284 6.716 30 15 30L400.6 30C408.884 30 415.6 23.284 415.6 15C415.6 6.716 408.884 0 400.6 0L400.6 0Z" id="Shape" fill="#1A1A1A" stroke="none" />
      </g>
    </g>
    <g id="Group" transform="translate(96.4 0)">
      <g id="Group">
        <path d="M304.2 0L15 0C6.716 0 0 6.716 0 15C0 23.284 6.716 30 15 30L304.2 30C312.484 30 319.2 23.284 319.2 15C319.2 6.716 312.484 0 304.2 0L304.2 0Z" id="Shape" fill="#1A1A1A" stroke="none" />
      </g>
    </g>
  </g>
</svg>