<?xml version="1.0" encoding="utf-8"?>
<svg width="225.455px" height="225.455px" viewBox="0 0 225.455 225.455" version="1.1" xmlns:xlink="http://www.w3.org/1999/xlink" xmlns="http://www.w3.org/2000/svg">
  <defs>
    <path d="M0 0L225.455 0L225.455 225.455L0 225.455L0 0Z" id="path_1" />
    <clipPath id="mask_1">
      <use xlink:href="#path_1" />
    </clipPath>
  </defs>
  <g id="reload">
    <path d="M0 0L225.455 0L225.455 225.455L0 225.455L0 0Z" id="Background" fill="#FFFFFF" fill-opacity="0" fill-rule="evenodd" stroke="none" />
    <g clip-path="url(#mask_1)">
      <path d="M222.18 67.311C218.756 64.977 214.092 65.859 211.758 69.281L196.461 91.71C192.487 73.195 183.282 56.182 169.585 42.486C150.817 23.718 125.864 13.382 99.321 13.382C72.779 13.382 47.825 23.718 29.057 42.486C-9.68701 81.23 -9.68701 144.271 29.057 183.014C48.429 202.386 73.875 212.072 99.321 212.072C124.767 212.072 150.213 202.386 169.585 183.014C172.514 180.085 172.514 175.336 169.585 172.407C166.656 169.478 161.907 169.478 158.979 172.407C126.083 205.302 72.56 205.302 39.665 172.407C6.76999 139.512 6.76999 85.987 39.665 53.092C55.6 37.158 76.786 28.382 99.322 28.382C121.858 28.382 143.045 37.158 158.979 53.093C171.278 65.391 179.294 80.844 182.319 97.62L155.696 79.462C152.274 77.128 147.608 78.01 145.274 81.432C142.94 84.854 143.822 89.52 147.244 91.854L186.958 118.941C186.96 118.942 186.962 118.944 186.964 118.946C187.592 119.374 188.262 119.689 188.951 119.904C188.972 119.911 188.992 119.922 189.013 119.928C189.13 119.964 189.249 119.978 189.367 120.008C189.967 120.158 190.575 120.25 191.183 120.25C193.579 120.25 195.934 119.104 197.386 116.976L224.15 77.734C226.484 74.311 225.602 69.645 222.18 67.311L222.18 67.311Z" id="Shape" fill="#1A1A1A" stroke="none" />
    </g>
  </g>
</svg>