<?xml version="1.0" encoding="utf-8"?>
<svg width="512px" height="512px" viewBox="0 0 512 512" version="1.1" xmlns:xlink="http://www.w3.org/1999/xlink" xmlns="http://www.w3.org/2000/svg">
  <defs>
    <path d="M0 0L512 0L512 512L0 512L0 0Z" id="path_1" />
    <clipPath id="mask_1">
      <use xlink:href="#path_1" />
    </clipPath>
  </defs>
  <g id="shuttle">
    <path d="M0 0L512 0L512 512L0 512L0 0Z" id="Background" fill="#FFFFFF" fill-opacity="0" fill-rule="evenodd" stroke="none" />
    <g clip-path="url(#mask_1)">
      <path d="M221.797 139.527C218.875 134.648 213.444 131.847 207.773 132.278L85.8793 141.694C73.5384 142.648 62.5455 149.116 55.7176 159.442L4.56296 236.813C-0.613999 244.644 -1.43799 254.443 2.35998 263.027C6.15695 271.611 13.9619 277.592 23.2368 279.029L122.076 294.338C122.845 294.457 123.613 294.516 124.375 294.516C129.438 294.515 134.228 291.948 137.011 287.594L221.567 155.312C224.63 150.519 224.718 144.407 221.797 139.527L221.797 139.527Z" id="Shape" fill="#E45A6E" fill-rule="evenodd" stroke="none" />
      <path d="M372.472 290.203C367.592 287.281 361.479 287.37 356.687 290.433L224.406 374.989C219.397 378.191 216.752 384.049 217.661 389.924L232.969 488.763C234.406 498.039 240.388 505.843 248.973 509.641C252.543 511.22 256.323 511.999 260.085 511.999C265.366 511.999 270.613 510.461 275.186 507.438L352.558 456.282C362.884 449.456 369.353 438.463 370.305 426.121L379.721 304.228C380.16 298.557 377.352 293.126 372.472 290.203L372.472 290.203Z" id="Shape" fill="#D82E44" fill-rule="evenodd" stroke="none" />
      <path d="M192.868 412.275C198.838 418.245 207.321 421.038 215.648 419.645C337.759 399.227 434.388 298.124 471.174 227.001C512.023 148.028 513.536 64.5725 511.401 25.4328C510.669 12.0209 499.978 1.32999 486.566 0.597995C447.426 -1.53599 363.972 -0.0230002 284.998 40.8257C213.876 77.6124 112.773 174.241 92.3552 296.352C90.9633 304.679 93.7552 313.162 99.7252 319.132L192.868 412.275Z" id="Shape" fill="#F1F1FB" fill-rule="evenodd" stroke="none" />
      <path d="M503.739 8.26093L146.297 365.703L192.868 412.275C198.838 418.245 207.321 421.037 215.648 419.645C337.759 399.227 434.388 298.124 471.174 227.002C512.023 148.029 513.536 64.5735 511.401 25.4338C511.035 18.7278 508.179 12.7019 503.739 8.26091L503.739 8.26093Z" id="Shape" fill="#D7D6FB" fill-rule="evenodd" stroke="none" />
      <path d="M350.728 236.236C331.519 236.237 312.319 228.927 297.696 214.304C283.53 200.139 275.728 181.305 275.728 161.272C275.728 141.239 283.53 122.404 297.696 108.239C326.936 78.9974 374.517 78.9964 403.76 108.239C417.926 122.404 425.727 141.239 425.727 161.272C425.727 181.305 417.926 200.139 403.76 214.304C389.141 228.924 369.931 236.234 350.728 236.236L350.728 236.236ZM308.302 118.846L309.302 118.846L308.302 118.846Z" id="Shape" fill="#466288" fill-rule="evenodd" stroke="none" />
      <path d="M92.3553 296.352C90.9633 304.679 93.7553 313.162 99.7252 319.132L192.868 412.275C198.838 418.245 207.321 421.037 215.648 419.645C242.219 415.202 267.581 406.936 291.385 395.993L116.007 220.616C105.064 244.419 96.7982 269.782 92.3553 296.352L92.3553 296.352Z" id="Shape" fill="#466288" fill-rule="evenodd" stroke="none" />
      <path d="M15.3039 421.935C19.1418 421.935 22.9818 420.47 25.9098 417.541L74.8824 368.568C80.7404 362.711 80.7404 353.213 74.8824 347.355C69.0255 341.497 59.5285 341.497 53.6696 347.355L4.69796 396.328C-1.15999 402.185 -1.15999 411.683 4.69796 417.541C7.62694 420.471 11.4649 421.935 15.3039 421.935L15.3039 421.935Z" id="Shape" fill="#FDB43A" fill-rule="evenodd" stroke="none" />
      <path d="M119.763 392.237C113.906 386.38 104.408 386.38 98.5502 392.237L4.39697 486.39C-1.46099 492.247 -1.46099 501.745 4.39697 507.603C7.32594 510.532 11.1649 511.996 15.0039 511.996C18.8429 511.996 22.6818 510.531 25.6098 507.602L119.763 413.449C125.621 407.592 125.621 398.094 119.763 392.237L119.763 392.237Z" id="Shape" fill="#FDB43A" fill-rule="evenodd" stroke="none" />
      <path d="M164.644 437.118C158.787 431.261 149.289 431.261 143.431 437.118L94.4593 486.089C88.6013 491.946 88.6013 501.444 94.4593 507.302C97.3882 510.231 101.227 511.696 105.065 511.696C108.903 511.696 112.743 510.231 115.671 507.302L164.644 458.329C170.502 452.472 170.502 442.975 164.644 437.118L164.644 437.118Z" id="Shape" fill="#F57A21" fill-rule="evenodd" stroke="none" />
      <path d="M4.39697 507.603C7.32594 510.532 11.1649 511.996 15.0039 511.996C18.8428 511.996 22.6818 510.531 25.6098 507.602L119.763 413.449C125.621 407.592 125.621 398.094 119.763 392.236L4.39697 507.603Z" id="Shape" fill="#F57A21" fill-rule="evenodd" stroke="none" />
      <path d="M146.297 365.703L192.868 412.275C198.838 418.245 207.321 421.037 215.648 419.645C242.219 415.202 267.581 406.936 291.385 395.993L203.696 308.305L146.297 365.703Z" id="Shape" fill="#354A67" fill-rule="evenodd" stroke="none" />
      <path d="M297.696 214.304C312.319 228.927 331.519 236.238 350.728 236.236C369.931 236.234 389.141 228.923 403.76 214.304C417.926 200.138 425.727 181.305 425.727 161.272C425.727 141.239 417.926 122.404 403.76 108.239L297.696 214.304Z" id="Shape" fill="#354A67" fill-rule="evenodd" stroke="none" />
      <path d="M350.727 116.294C339.204 116.294 327.68 120.68 318.909 129.453C310.41 137.952 305.728 149.252 305.728 161.272C305.728 173.292 310.41 184.592 318.909 193.09C336.453 210.635 365.003 210.636 382.548 193.09C391.047 184.591 395.728 173.291 395.728 161.271C395.728 149.251 391.047 137.951 382.548 129.452C373.775 120.68 362.252 116.294 350.727 116.294L350.727 116.294Z" id="Shape" fill="#4BBEFD" fill-rule="evenodd" stroke="none" />
      <path d="M382.547 129.453L318.908 193.091C336.453 210.636 365.003 210.637 382.547 193.091C391.046 184.592 395.727 173.292 395.727 161.272C395.727 149.252 391.047 137.952 382.547 129.453L382.547 129.453Z" id="Shape" fill="#0590FB" fill-rule="evenodd" stroke="none" />
    </g>
  </g>
</svg>