<?xml version="1.0" encoding="utf-8"?>
<svg width="125px" height="22px" viewBox="0 0 125 22" version="1.1" xmlns:xlink="http://www.w3.org/1999/xlink" xmlns="http://www.w3.org/2000/svg">
  <g id="logo_lowercase_black">
    <g id="warp" fill="#FFFFFF">
      <path d="M29.358 17.003L29.358 11.675C29.718 11.243 30.6 11.063 31.284 11.063C31.59 11.063 31.86 11.099 32.022 11.153L32.022 8.057C31.032 8.057 29.898 8.633 29.358 9.263L29.358 8.309L26.118 8.309L26.118 17.003L29.358 17.003ZM24.318 8.309L24.318 17.003L21.078 17.003L21.078 16.085C20.34 16.913 19.512 17.219 18.63 17.219C16.524 17.219 14.796 15.635 14.796 12.647C14.796 9.767 16.488 8.093 18.63 8.093C19.512 8.093 20.376 8.399 21.06 9.227L21.06 8.309L24.318 8.309ZM42.642 12.647C42.642 15.635 40.986 17.219 38.826 17.219C37.926 17.219 37.098 16.913 36.378 16.085L36.378 20.315L33.138 20.315L33.138 8.309L36.378 8.309L36.378 9.227C37.08 8.399 37.926 8.093 38.826 8.093C40.986 8.093 42.642 9.677 42.642 12.647ZM14.706 8.309L12.186 17.003L8.658 17.003L7.236 12.143L5.832 17.003L2.304 17.003L-0.216 8.309L3.114 8.309L4.266 13.097L5.796 8.309L8.694 8.309L10.206 13.097L11.358 8.309L14.706 8.309ZM36.378 13.763C36.666 14.123 37.296 14.357 37.71 14.357C38.574 14.357 39.33 13.745 39.33 12.647C39.33 11.567 38.574 10.955 37.71 10.955C37.296 10.955 36.684 11.171 36.378 11.549L36.378 13.763ZM18.108 12.647C18.108 13.727 18.846 14.357 19.728 14.357C20.16 14.357 20.772 14.141 21.078 13.763L21.078 11.549C20.772 11.171 20.16 10.973 19.728 10.973C18.846 10.973 18.108 11.567 18.108 12.647Z" />
    </g>
    <g id="download" fill="#FFFFFF" transform="translate(46 0)">
      <path d="M8.82 4.997L8.82 17.003L7.866 17.003L7.866 15.617C7.254 16.517 6.138 17.219 4.842 17.219C2.538 17.219 0.972 15.455 0.972 12.665C0.972 9.911 2.538 8.093 4.842 8.093C6.084 8.093 7.182 8.723 7.866 9.713L7.866 4.997L8.82 4.997ZM46.368 17.219C47.088 17.219 47.502 17.003 47.844 16.679L47.484 15.959C47.286 16.175 46.926 16.373 46.512 16.373C45.9 16.373 45.612 15.887 45.612 15.185L45.612 4.997L44.676 4.997L44.676 15.329C44.676 16.517 45.234 17.219 46.368 17.219ZM77.202 4.997L77.202 17.003L76.248 17.003L76.248 15.617C75.636 16.517 74.52 17.219 73.224 17.219C70.92 17.219 69.354 15.455 69.354 12.665C69.354 9.911 70.92 8.093 73.224 8.093C74.466 8.093 75.564 8.723 76.248 9.713L76.248 4.997L77.202 4.997ZM19.602 12.647C19.602 15.185 17.982 17.219 15.408 17.219C12.87 17.219 11.25 15.185 11.25 12.647C11.25 10.109 12.87 8.093 15.408 8.093C17.982 8.093 19.602 10.109 19.602 12.647ZM41.76 10.919L41.76 17.003L40.824 17.003L40.824 11.117C40.824 9.443 39.978 8.939 38.718 8.939C37.602 8.939 36.45 9.641 35.892 10.433L35.892 17.003L34.956 17.003L34.956 8.309L35.892 8.309L35.892 9.623C36.522 8.867 37.764 8.093 39.024 8.093C40.788 8.093 41.76 8.957 41.76 10.919ZM57.15 12.647C57.15 15.185 55.53 17.219 52.956 17.219C50.418 17.219 48.798 15.185 48.798 12.647C48.798 10.109 50.418 8.093 52.956 8.093C55.53 8.093 57.15 10.109 57.15 12.647ZM66.924 17.003L66.924 8.309L65.97 8.309L65.97 9.713C65.268 8.723 64.188 8.093 62.946 8.093C60.642 8.093 59.076 9.911 59.076 12.665C59.076 15.455 60.642 17.219 62.946 17.219C64.242 17.219 65.358 16.517 65.97 15.617L65.97 17.003L66.924 17.003ZM30.366 17.003L33.192 8.309L32.184 8.309L29.88 15.689L27.432 8.309L26.622 8.309L24.174 15.689L21.87 8.309L20.862 8.309L23.688 17.003L24.588 17.003L27.036 9.569L29.466 17.003L30.366 17.003ZM1.962 12.665C1.962 14.771 3.078 16.373 5.004 16.373C6.228 16.373 7.362 15.653 7.866 14.825L7.866 10.523C7.362 9.677 6.228 8.939 5.004 8.939C3.078 8.939 1.962 10.559 1.962 12.665ZM12.24 12.647C12.24 14.591 13.392 16.373 15.408 16.373C17.46 16.373 18.594 14.591 18.594 12.647C18.594 10.721 17.46 8.939 15.408 8.939C13.392 8.939 12.24 10.721 12.24 12.647ZM49.788 12.647C49.788 14.591 50.94 16.373 52.956 16.373C55.008 16.373 56.142 14.591 56.142 12.647C56.142 10.721 55.008 8.939 52.956 8.939C50.94 8.939 49.788 10.721 49.788 12.647ZM63.108 16.373C61.182 16.373 60.066 14.771 60.066 12.665C60.066 10.559 61.182 8.939 63.108 8.939C64.332 8.939 65.466 9.695 65.97 10.523L65.97 14.825C65.466 15.653 64.332 16.373 63.108 16.373ZM70.344 12.665C70.344 14.771 71.46 16.373 73.386 16.373C74.61 16.373 75.744 15.653 76.248 14.825L76.248 10.523C75.744 9.677 74.61 8.939 73.386 8.939C71.46 8.939 70.344 10.559 70.344 12.665Z" />
    </g>
  </g>
</svg>