<?xml version="1.0" encoding="utf-8"?>
<svg width="100px" height="100px" viewBox="0 0 100 100" version="1.1" xmlns:xlink="http://www.w3.org/1999/xlink" xmlns="http://www.w3.org/2000/svg">
  <defs>
    <path d="M0 0L100 0L100 100L0 100L0 0Z" id="path_1" />
    <clipPath id="mask_1">
      <use xlink:href="#path_1" />
    </clipPath>
  </defs>
  <g id="Asset-5">
    <path d="M0 0L100 0L100 100L0 100L0 0Z" id="Background" fill="#FFFFFF" fill-opacity="0" fill-rule="evenodd" stroke="none" />
    <g clip-path="url(#mask_1)">
      <g id="Layer_2" transform="translate(-0.001144879 -0.00013877792)">
        <g id="Layer_1-2">
          <path d="M54.9083 57.1109C54.9889 57.1304 55.0716 57.1402 55.1545 57.14C55.7576 57.14 56.3459 56.6195 56.5378 55.8662C56.6408 55.4815 56.6139 55.0743 56.4612 54.7061C56.3295 54.369 56.0434 54.1137 55.6903 54.0182C55.0088 53.8499 54.2785 54.4076 54.0636 55.2593C53.8488 56.1109 54.2232 56.9435 54.9083 57.1109L54.9083 57.1109ZM54.4076 55.3475C54.5561 54.7597 54.995 54.3467 55.4349 54.3467C55.4899 54.3465 55.5448 54.3532 55.5981 54.3667C55.842 54.4363 56.038 54.6159 56.1265 54.8507C56.2479 55.1475 56.268 55.4752 56.1837 55.7843C56.0167 56.4467 55.4828 56.8861 54.9932 56.7669C54.5035 56.6478 54.2435 56.0099 54.4076 55.3475L54.4076 55.3475Z" id="Shape" fill="#FFFFFF" fill-rule="evenodd" stroke="none" />
          <path d="M55.1543 56.1637C55.4166 56.2265 55.6988 56.0099 55.784 55.6796C55.8692 55.3493 55.7263 55.0309 55.464 54.9681C55.2017 54.9053 54.9195 55.1219 54.8334 55.4522C54.7472 55.7825 54.894 56.1009 55.1543 56.1637L55.1543 56.1637Z" id="Shape" fill="#FFFFFF" fill-rule="evenodd" stroke="none" />
          <path d="M81.8746 63.0879C81.7896 62.9334 81.6879 62.7885 81.5712 62.6557C81.4522 62.5258 81.3196 62.4087 81.1756 62.3063C80.8904 62.1069 80.5603 61.9792 80.2138 61.9342C80.0438 61.916 79.8721 61.9222 79.7038 61.9524C79.541 61.9873 79.3851 62.0488 79.2428 62.1344C79.3948 62.083 79.5542 62.0557 79.7149 62.0534C79.871 62.0543 80.0262 62.0766 80.176 62.1198C80.3228 62.1642 80.4639 62.2253 80.5965 62.3018C80.7274 62.3797 80.8508 62.4693 80.9653 62.5693C81.4098 62.9724 81.6108 63.5565 81.6772 64.1479C81.7436 64.7393 81.6708 65.3644 81.5712 65.975C81.5487 66.1281 81.5179 66.28 81.479 66.4299C81.4412 66.5801 81.4144 66.732 81.3711 66.8849C81.2789 67.1787 81.2042 67.4808 81.0797 67.7656L80.91 68.1978L80.7108 68.6182L80.6122 68.8284L80.4978 69.0313L80.27 69.4371C79.6242 70.5025 78.7961 71.4494 77.8227 72.2359C77.5709 72.4179 77.3321 72.6226 77.0628 72.7818C76.931 72.8655 76.8019 72.9538 76.6681 73.0348L76.255 73.2595L76.0485 73.3705L75.8336 73.4615L75.4048 73.6535L74.9622 73.8109C74.8137 73.8646 74.6662 73.9174 74.5159 73.9574C73.9199 74.133 73.3009 74.2213 72.6789 74.2194C72.0707 74.2213 71.4705 74.0819 70.9269 73.8127C70.3969 73.5313 69.959 73.1068 69.6645 72.5889C69.511 72.3288 69.3872 72.0526 69.2956 71.7655C69.2079 71.4748 69.1505 71.176 69.1241 70.8738C69.0702 70.2625 69.1427 69.6468 69.3371 69.064C69.7216 67.8812 70.4898 66.8366 71.3658 65.8858C70.3017 66.6301 69.4007 67.6719 68.9351 68.9294C68.6943 69.5612 68.5875 70.2351 68.6215 70.9093C68.6426 71.2476 68.6985 71.583 68.7884 71.9102C68.8831 72.2394 69.0148 72.5571 69.1813 72.8573C69.5215 73.47 70.0309 73.9748 70.6502 74.3131C71.2709 74.6326 71.9588 74.804 72.6587 74.8136C73.3406 74.8263 74.021 74.743 74.6791 74.5661C74.8432 74.5261 75.0028 74.4751 75.1623 74.4196L75.6409 74.2595L76.102 74.0648L76.3343 73.9665L76.5584 73.8518C77.7673 73.2558 78.8464 72.4324 79.7352 71.4279C80.1818 70.9291 80.5815 70.3913 80.9294 69.8211L81.171 69.3825L81.2909 69.1623L81.3951 68.9348L81.6035 68.4799L81.7759 68.0095C81.9004 67.7001 81.9714 67.3726 82.0645 67.0532C82.1079 66.8921 82.1309 66.7265 82.1632 66.5628C82.1977 66.3998 82.2239 66.2352 82.2416 66.0696C82.2841 65.7391 82.3081 65.4064 82.3135 65.0733C82.3144 64.7334 82.2835 64.3941 82.2213 64.0597C82.1571 63.7201 82.0401 63.3923 81.8746 63.0879L81.8746 63.0879Z" id="Shape" fill="#FFFFFF" fill-rule="evenodd" stroke="none" />
          <path d="M36.3391 89.4728C36.915 89.7727 37.3463 90.2863 37.5379 90.9004C37.7047 91.4652 37.6113 92.0738 37.2825 92.5646C36.968 93.0331 36.4582 93.339 35.8919 93.3989C35.3202 93.4781 34.7281 93.3616 34.1527 93.1387C33.8609 93.0236 33.5782 92.887 33.3071 92.7302C33.0411 92.5866 32.7948 92.4102 32.574 92.2051C32.3701 92.0164 32.214 91.7829 32.1185 91.5236C32.034 91.2512 32.0145 90.9632 32.0613 90.682C32.2199 89.5137 33.3034 88.4218 34.6544 88.2954C33.2951 88.1352 31.828 89.1216 31.4822 90.5746C31.2709 91.3341 31.4812 92.1471 32.0355 92.7138C32.2874 92.9812 32.5731 93.2154 32.8857 93.4107C33.1871 93.601 33.5031 93.7677 33.8309 93.9094C34.1696 94.0566 34.526 94.1606 34.8914 94.2187C35.2695 94.2774 35.6549 94.2719 36.0311 94.2023C36.4159 94.1321 36.7823 93.9857 37.1082 93.772C37.4345 93.5508 37.7008 93.254 37.8837 92.9076C38.064 92.5722 38.1643 92.2006 38.177 91.8212C38.1905 91.4482 38.112 91.0776 37.9483 90.7411C37.6363 90.0981 37.0436 89.631 36.3391 89.4728L36.3391 89.4728Z" id="Shape" fill="#FFFFFF" fill-rule="evenodd" stroke="none" />
          <path d="M80.2986 12.2627C80.0888 11.8248 79.8015 11.4273 79.4503 11.0889C79.0976 10.753 78.6731 10.4994 78.2081 10.3464C77.7558 10.1971 77.27 10.1766 76.8065 10.2873C77.6821 10.3649 78.4877 10.7922 79.0362 11.4701C79.5674 12.1125 79.8837 12.9214 80.0192 13.7449C80.1632 14.5694 80.0759 15.4171 79.7665 16.1961C79.4233 16.9961 78.8066 17.652 78.0237 18.0495C78.4905 17.9715 78.9324 17.7874 79.3147 17.5118C79.7078 17.2264 80.0347 16.8616 80.2737 16.4418C80.7542 15.591 80.8796 14.5801 80.7283 13.6357C80.6537 13.1598 80.5089 12.6972 80.2986 12.2627L80.2986 12.2627Z" id="Shape" fill="#FFFFFF" fill-rule="evenodd" stroke="none" />
          <path d="M99.7236 54.454C99.6357 54.3379 99.5288 54.2371 99.4073 54.1556C99.369 54.1287 99.3286 54.105 99.2865 54.0846L99.2136 54.0509C99.2043 54.0475 99.1955 54.0426 99.1878 54.0364C99.1553 54.0116 99.1343 53.9748 99.1297 53.9345C99.1288 53.9242 99.1288 53.9138 99.1297 53.9035C99.1297 53.9035 99.1297 53.8744 99.1362 53.8535L99.1444 53.7871L99.1777 53.5187C99.2699 52.8053 99.3461 52.0901 99.4063 51.3731C100.154 42.7303 98.7114 34.0398 95.2087 26.0838C92.8843 20.7938 89.6796 15.9245 85.7273 11.6776C81.7784 7.42598 77.1124 3.88197 71.9366 1.203C71.2911 0.869379 70.6379 0.550619 69.9771 0.246718L69.8544 0.189395L69.7926 0.160279C69.7733 0.15118 69.7512 0.141171 69.7198 0.128433C69.6041 0.0784066 69.4827 0.0423566 69.3583 0.0210661C69.0996 -0.0230502 68.8336 0.00240842 68.5883 0.0947668C68.1103 0.279446 67.7509 0.679033 67.6219 1.16934C67.5568 1.4139 67.5542 1.67059 67.6145 1.91636C67.6758 2.1535 67.7909 2.37379 67.9511 2.56055C68.1734 2.83352 68.4021 3.10649 68.6206 3.38764C69.0586 3.94449 69.4883 4.50862 69.8987 5.0864C74.6785 11.7774 77.4855 19.6445 78.008 27.8144C77.2731 26.9362 76.4511 26.1328 75.5542 25.416C75.5016 25.3732 75.4482 25.3332 75.3956 25.2913L75.3956 25.2913L75.3855 25.284C74.3501 24.4576 73.2145 23.7616 72.0049 23.2122C69.4524 22.053 66.603 21.5972 63.8144 21.7682C63.6124 21.781 63.4105 21.7973 63.2085 21.8155L63.2085 21.8155C62.015 21.9178 60.8358 22.1444 59.6906 22.4916C58.345 22.9005 57.0689 23.5053 55.9042 24.2859C54.7414 25.0724 53.7109 26.034 52.8501 27.1356C52.1217 28.0754 51.5077 29.0963 51.0206 30.1774C49.2067 32.6668 48.1822 36.0207 48.3639 38.935C48.442 40.0576 48.6556 41.167 49.0002 42.2397C47.2794 43.348 46.2937 44.5572 45.8464 46.0794C45.3171 47.8856 45.5799 50.1375 46.6681 53.1402C46.1872 53.0819 45.7 53.1745 45.2756 53.4049C44.7822 53.6597 44.4013 54.085 44.2059 54.5996C44.0274 55.1154 44.0411 55.677 44.2447 56.1837C44.4105 56.6187 44.7104 56.9913 45.1023 57.2492L45.0967 57.2619C44.9829 57.5257 44.9279 57.8106 44.9353 58.0972C44.1617 57.806 43.4157 57.5067 42.6918 57.2155C39.9023 56.0927 37.2668 55.0318 33.9904 54.8944C33.3532 54.868 30.0916 54.8034 28.5037 56.0773C27.1758 57.1446 26.5321 58.443 26.5893 59.9306C26.6474 61.4438 28.4788 64.8849 29.6176 65.9823C29.9191 66.3733 30.2589 66.7341 30.632 67.0596C31.2978 67.624 31.9922 68.1549 32.7124 68.6501C32.9244 68.8002 33.1338 68.9494 33.3403 69.0995C32.7511 69.7364 32.2006 70.2742 31.7146 70.7319L31.7146 70.7228C30.2894 70.7035 28.868 70.5736 27.4635 70.3342C26.0526 70.1077 24.6528 69.8029 23.2659 69.4453C20.4912 68.7208 17.7703 67.8087 15.1225 66.7156C12.4777 65.6238 9.89482 64.3663 7.48249 62.8614C6.27844 62.1198 5.13737 61.2829 4.07055 60.3592C3.8096 60.1262 3.55324 59.8888 3.31072 59.6413C3.18715 59.5193 3.07188 59.3911 2.95293 59.2646L2.78233 59.0708C2.71176 58.9862 2.63535 58.9065 2.55364 58.8324C2.35944 58.6601 2.12237 58.5417 1.86664 58.4894C1.61171 58.4379 1.34757 58.4529 1.10034 58.533C0.336638 58.7685 -0.124815 59.5336 0.0297313 60.3082C0.0573956 60.4402 0.0822935 60.512 0.106269 60.6003L0.180041 60.8605L0.479737 61.8969C0.697363 62.5829 0.908534 63.2708 1.1529 63.9487C1.38159 64.6311 1.64902 65.2999 1.90445 65.9732C2.18109 66.6392 2.44759 67.3071 2.74729 67.9622C3.33377 69.2779 3.97005 70.5726 4.67088 71.8328C5.37171 73.093 6.1085 74.3377 6.91722 75.5342C7.72594 76.7307 8.55956 77.9118 9.46418 79.0391C9.68365 79.3257 9.91511 79.6032 10.1466 79.8808L10.4933 80.2984L10.5744 80.3958L10.5532 80.4867C10.5422 80.5377 10.5274 80.5887 10.52 80.6405C10.5014 80.7435 10.4881 80.8474 10.4804 80.9517C10.4637 81.1584 10.4665 81.3661 10.4887 81.5722C10.5331 81.9753 10.6407 82.3692 10.8077 82.7396C11.1323 83.4794 11.6681 84.0935 12.2555 84.584C12.5481 84.8261 12.8561 85.0495 13.1776 85.2527C13.3363 85.3537 13.4967 85.4502 13.6562 85.543C13.8158 85.6358 13.9559 85.7249 14.1053 85.8159C14.4032 85.9979 14.702 86.2008 15.0275 86.3955C15.3591 86.5977 15.7088 86.7695 16.0723 86.9087C16.1645 86.946 16.2567 86.9751 16.3489 87.0079L16.4881 87.0507L16.5564 87.0725C16.5831 87.0798 16.5933 87.0843 16.6486 87.098C16.8192 87.1382 16.9974 87.1341 17.1659 87.0861L17.3006 87.047L17.3264 87.0397L17.3374 87.0397C17.351 87.0387 17.3646 87.0409 17.3771 87.0461C17.3955 87.0552 17.3771 87.0461 17.4776 87.1198L17.9055 87.4556C22.4753 91.0569 27.6489 93.841 33.1919 95.6818C35.961 96.5936 38.8042 97.2693 41.6903 97.7018C43.1332 97.9165 44.5837 98.0682 46.0419 98.1567C46.7704 98.2022 47.4998 98.2277 48.2292 98.2404C48.5981 98.2486 48.9587 98.2477 49.3229 98.2477L49.8116 98.2422L49.819 98.2732C49.8347 98.3306 49.8538 98.3871 49.8762 98.4424C49.9197 98.5578 49.9756 98.6682 50.0431 98.7718C50.1764 98.9774 50.3489 99.1554 50.5512 99.2959C50.9022 99.5231 51.2893 99.6908 51.6965 99.7918C52.465 100.012 53.273 100.062 54.0636 99.941L58.3387 99.1612C59.0524 99.0284 59.7505 98.9073 60.4781 98.7645C61.2056 98.6217 61.9673 98.4169 62.6801 97.9902C63.0441 97.7684 63.3626 97.481 63.6189 97.1431C63.8961 96.7875 64.0742 96.3665 64.1353 95.922C64.1353 95.9175 64.1353 95.9129 64.1353 95.9075L64.5364 95.7764C64.8841 95.6654 65.2299 95.5508 65.572 95.4261C68.3242 94.4607 70.9847 93.2578 73.5227 91.8312C76.0631 90.4093 78.4732 88.7716 80.7256 86.9369C81.8518 86.021 82.9369 85.0586 83.9807 84.0498C85.0246 83.0411 86.0174 81.9874 86.9593 80.8889C88.8642 78.7056 90.5761 76.3653 92.0762 73.8937C92.4552 73.2786 92.8139 72.6499 93.1653 72.0212L93.6688 71.084C93.6983 71.0995 93.7296 71.1149 93.761 71.1304C93.8353 71.1624 93.9125 71.1874 93.9915 71.205C94.2803 71.2592 94.579 71.2203 94.8436 71.094C95.05 70.9988 95.2423 70.8764 95.4153 70.73C95.7172 70.4725 95.9905 70.1839 96.2305 69.8693C96.6855 69.2769 97.0881 68.6471 97.4339 67.9867C97.616 67.6536 97.7762 67.3093 97.9134 66.9558C98.04 66.6155 98.1605 66.2731 98.2749 65.9286C98.5023 65.2395 98.7058 64.5437 98.8853 63.8413C99.2428 62.4355 99.4986 61.0064 99.6507 59.5648C99.7288 58.8442 99.7792 58.1218 99.802 57.3975C99.8093 57.2055 99.8121 57.0645 99.8306 56.8971C99.849 56.7296 99.8702 56.5649 99.896 56.3912C99.943 56.039 100.022 55.676 99.9882 55.2083C99.9716 54.9377 99.88 54.6768 99.7236 54.454L99.7236 54.454ZM78.0338 28.7043L78.0578 28.7379C78.0578 28.7652 78.0578 28.7934 78.0578 28.8217L78.1131 28.8217C78.8894 29.8568 79.4996 31.0036 79.9224 32.2219C80.3548 33.488 80.5908 34.8114 80.6223 36.1471C80.6847 38.8349 80.0353 41.4922 78.7383 43.8566C78.0915 45.0345 77.3019 46.1305 76.3869 47.1204C75.4739 48.1044 74.4141 48.9454 73.2442 49.6143C72.0687 50.2743 70.7953 50.7481 69.4708 51.0183C68.1429 51.2913 66.7855 51.3941 65.3986 51.4732C66.7735 51.7359 68.1862 51.7411 69.563 51.4887C70.6171 51.3014 71.6435 50.986 72.619 50.5497C72.4936 51.5406 71.5807 52.0619 70.5654 52.5405C69.4662 53.0601 68.1881 53.1274 67.0843 53.1201C63.345 53.1038 59.3134 52.2803 55.102 50.6716C54.4104 50.4078 53.6846 50.113 53.0733 49.6635C52.4278 49.1867 51.9999 48.5798 51.8662 47.9547C51.7885 47.5819 51.8244 47.1946 51.9695 46.8419C54.9756 48.7272 61.6575 51.1056 65.193 50.8172C65.6045 50.7772 65.9834 50.5784 66.247 50.264C67.6367 48.6471 68.8447 47.114 69.7834 45.5435C69.8043 45.7534 69.8382 45.9619 69.8848 46.1677C70.1615 47.3505 70.8383 48.2086 71.7854 48.5944C72.13 48.7339 72.4992 48.805 72.8717 48.8036C74.5509 48.8036 76.3546 47.4251 77.2445 45.2951C78.3326 42.6937 77.653 39.9404 75.7303 39.1579C74.7833 38.7721 73.6878 38.9141 72.6476 39.5565C72.3247 39.7595 72.0248 39.9963 71.7531 40.2625C71.9574 38.8138 71.9384 37.3428 71.6969 35.8996C71.6786 35.7758 71.6185 35.6616 71.5263 35.5757C69.4533 33.665 66.4637 31.8206 63.1523 30.5759C64.0846 28.0728 65.4991 26.4559 67.8137 25.2258C69.9116 24.1103 72.9584 24.3159 75.0701 25.7144C75.1162 25.7517 75.1623 25.7881 75.2112 25.8254C76.269 26.6676 77.2171 27.6358 78.0338 28.7079L78.0338 28.7043ZM82.8096 47.8091C82.6712 47.725 82.527 47.6505 82.3781 47.5862C82.2292 47.5154 82.0665 47.4776 81.9013 47.4752C82.0048 47.5943 82.1197 47.7034 82.2443 47.8009C82.3615 47.8919 82.4712 47.9984 82.5763 48.1021C82.6814 48.2058 82.7838 48.3132 82.8769 48.426C82.9535 48.517 83.0254 48.608 83.0973 48.7045C83.3261 49.2317 83.3904 49.8143 83.2818 50.3777C83.1337 50.2143 82.9637 50.0717 82.7764 49.9537C82.5771 49.8298 82.3701 49.7183 82.1567 49.6198C81.9477 49.518 81.7273 49.4405 81.5002 49.3887C81.6589 49.5562 81.8354 49.7063 82.0267 49.8364C82.2085 49.9621 82.3819 50.0992 82.5459 50.2467C82.7012 50.385 82.8382 50.5422 82.9535 50.7144C83.0535 50.8735 83.1319 51.0448 83.1868 51.2239C83.6165 52.738 83.1951 54.3931 82.7838 55.9945L82.7764 56.0236C82.6944 56.3448 82.6049 56.6842 82.4887 57.0144C82.3421 55.279 81.4193 53.6982 79.9713 52.7025C78.4958 51.6898 76.7438 51.2312 75.4399 50.9737C75.45 50.4842 75.4657 49.4851 75.4399 48.7745C75.9203 48.3783 76.3738 47.9513 76.7973 47.4961C77.7371 46.4681 78.5483 45.3323 79.2133 44.1132C79.4143 43.7447 79.5987 43.368 79.7665 42.9849C80.1114 43.4635 80.4711 43.9858 80.8224 44.4926C81.2706 45.1413 81.7344 45.8119 82.1641 46.3897C82.4961 46.8365 82.8382 47.3442 82.8511 47.8382L82.8096 47.8091ZM66.7514 70.9366C61.0627 69.4517 56.7812 67.0869 52.4056 62.9533L54.2674 63.965C54.4481 64.0647 54.6516 64.117 54.8585 64.117C55.0074 64.1166 55.155 64.0904 55.2947 64.0397C55.4176 63.9943 55.5339 63.9332 55.6405 63.8577C58.7555 66.3362 63.0047 68.2861 67.6616 69.3752C67.398 69.9173 67.0938 70.4392 66.7514 70.9366L66.7514 70.9366ZM45.5864 57.4849C45.815 57.5662 46.0523 57.6215 46.2937 57.6495L46.2937 57.6495C46.3656 58.1227 46.597 58.4612 46.9475 58.6031C47.0605 58.6496 47.1818 58.6734 47.3043 58.6732C47.5922 58.6622 47.8687 58.5598 48.0928 58.3811C48.8468 57.769 49.2409 56.8256 49.1431 55.8671C49.0721 55.3939 48.8406 55.0555 48.4902 54.9126C48.019 54.7206 47.4565 54.9444 47.0148 55.4412L46.9733 55.4285C46.8678 55.4006 46.7657 55.3613 46.669 55.3111C46.6276 55.2891 46.5876 55.2648 46.5491 55.2383L48.3556 51.0183C48.5594 50.5415 49.0011 50.2422 49.3257 50.3659L52.1603 51.4505C52.0386 51.6871 51.7297 52.3813 50.7771 54.5869L50.7356 54.6779L51.2723 56.1346L49.3506 60.6758L45.7911 58.735C45.4628 58.5603 45.3771 57.9907 45.5864 57.4849L45.5864 57.4849ZM47.9895 56.0072C47.9102 55.8881 47.8061 55.787 47.6843 55.7106C47.6468 55.6871 47.608 55.6658 47.5681 55.6469C47.7663 55.474 47.9701 55.3803 48.1389 55.3803C48.1887 55.3799 48.2381 55.3889 48.2846 55.4067C48.4496 55.474 48.5677 55.6705 48.6092 55.9471C48.6502 56.3232 48.591 56.7033 48.4377 57.0499L48.4376 57.0499C48.2988 57.4057 48.068 57.7194 47.7682 57.9598C47.5413 58.1263 47.3163 58.1836 47.1513 58.1163C47.0092 58.059 46.9014 57.9043 46.8479 57.6859C47.1149 57.6917 47.3791 57.632 47.6169 57.5122C47.8773 57.3671 48.0654 57.1225 48.137 56.8361C48.2079 56.5516 48.1544 56.2508 47.9895 56.0072L47.9895 56.0072ZM59.295 55.4121C59.4448 55.0366 59.4656 54.623 59.354 54.2347C60.1839 54.1811 60.8036 53.859 61.498 53.4905C61.6824 53.3931 61.8742 53.2921 62.0762 53.192C63.7286 53.4887 65.4039 53.6445 67.0834 53.6579L67.4273 53.6579C65.3313 55.1701 61.8945 55.9198 59.295 55.4121L59.295 55.4121ZM59.0764 53.7097C58.9372 53.5408 58.7561 53.4101 58.5508 53.3303L50.3013 50.1712C50.3216 49.8909 50.5115 49.5033 50.8103 49.1512C50.997 48.9135 51.2356 48.7204 51.5084 48.5862C51.7809 49.1865 52.2082 49.7057 52.7477 50.092C53.4126 50.5825 54.1771 50.8946 54.9037 51.1712C56.9522 51.963 59.0642 52.5845 61.2176 53.0291C60.4984 53.4104 59.911 53.7116 59.0746 53.707L59.0764 53.7097ZM55.7696 62.8477C55.6606 63.1612 55.421 63.4139 55.1112 63.542C54.9205 63.6141 54.7072 63.5994 54.5284 63.5019L54.4897 63.481C54.5164 63.4683 54.5432 63.4573 54.5681 63.4428C54.9105 63.2362 55.1741 62.9236 55.3178 62.5538L55.5594 61.9424C56.6005 59.3155 57.5881 56.8334 58.3037 54.3548C58.3037 54.3385 58.3156 54.3175 58.3249 54.2921C58.3778 54.1522 58.4113 54.0059 58.4245 53.8571C58.5903 53.9454 58.7204 54.087 58.7933 54.2584C58.9212 54.5672 58.9212 54.9132 58.7933 55.222L55.7696 62.8477ZM51.4355 46.4834L51.5148 46.5389C51.2928 47.0168 51.233 47.5526 51.3442 48.0666C51.3437 48.0706 51.3437 48.0745 51.3442 48.0785C50.909 48.2404 50.5245 48.6599 50.3972 48.8064C50.0662 49.1967 49.8559 49.6071 49.7867 49.971L49.5202 49.8709C49.3068 49.7919 49.0726 49.7861 48.8554 49.8546C48.8047 47.7982 49.9905 46.7846 51.1082 46.2005C51.2083 46.3031 51.3166 46.3977 51.4318 46.4834L51.4355 46.4834ZM51.8505 56.1491L51.3193 54.7006C51.8099 53.5605 52.5725 51.8044 52.6528 51.6625L52.5606 51.6061L58.0565 53.7106C58.087 53.8098 58.0639 53.9554 57.9864 54.1756C57.9745 54.2083 57.9652 54.2366 57.9588 54.2575C57.2441 56.7196 56.2639 59.1936 55.2265 61.8095L54.9839 62.421C54.8706 62.7163 54.6615 62.9665 54.3892 63.1325C54.2743 63.1957 54.1432 63.2244 54.012 63.2153L49.8236 60.9315L51.8505 56.1491ZM67.8958 68.8875C63.2971 67.8257 59.1032 65.9158 56.0306 63.4855C56.1313 63.349 56.214 63.2004 56.2768 63.0433L59.0976 55.9162C59.7455 56.0489 60.4056 56.1145 61.0673 56.1118C62.9451 56.1035 64.7962 55.6722 66.4794 54.8507C66.2726 55.1175 66.0902 55.4019 65.9344 55.7006C65.7347 56.0819 65.5945 56.4908 65.5185 56.9134C65.4382 57.3335 65.4752 57.7672 65.6255 58.1682C65.6117 57.763 65.6599 57.3581 65.7684 56.9671C65.8759 56.5836 66.042 56.2185 66.2608 55.8844C66.4808 55.5488 66.7305 55.233 67.0069 54.9408C67.0945 54.8498 67.1867 54.7588 67.277 54.6678C66.7745 55.737 66.4803 56.9626 66.5209 57.9898C66.5891 59.6968 67.5518 61.2381 68.9738 61.916C69.1791 62.0133 69.3922 62.0937 69.611 62.1562C69.5501 62.1799 69.4893 62.2053 69.4266 62.2281C69.1762 62.3224 68.9188 62.3972 68.6566 62.4519C68.3963 62.506 68.1293 62.5217 67.8644 62.4983C67.5918 62.4732 67.3233 62.4151 67.0649 62.3254C67.268 62.5382 67.5316 62.6851 67.8211 62.7467C68.11 62.8141 68.4074 62.8387 68.7036 62.8195C68.9964 62.7996 69.2864 62.7511 69.5695 62.6748C69.6331 62.6585 69.6949 62.6384 69.7539 62.6202C69.4588 63.2781 69.2698 64.097 69.0623 65.0078C68.793 66.1743 68.4933 67.5072 67.8912 68.8857L67.8958 68.8875ZM69.208 61.4338C67.9825 60.8496 67.1193 59.4557 67.0603 57.9662C67.0041 56.5577 67.6311 54.7425 68.5579 53.5987C69.3344 53.538 70.0942 53.3444 70.8033 53.0264C71.2036 52.8479 71.5888 52.638 71.9551 52.3986C73.3549 51.8718 75.1982 51.5278 75.2167 51.5242L75.3393 51.5014C76.5935 51.7462 78.2754 52.1848 79.667 53.1392C81.2588 54.2488 82.1329 56.1096 81.9622 58.0253C81.9502 58.0408 81.94 58.0572 81.9281 58.0717C81.1903 58.9625 79.9915 59.2091 78.7227 59.4702C78.3464 59.5476 77.9564 59.6285 77.5848 59.7259C76.7133 59.957 75.8806 60.3155 75.0747 60.6631C74.5214 60.9006 73.9515 61.1462 73.3798 61.3455C72.2271 61.7449 70.5709 62.0834 69.2034 61.4319L69.208 61.4338ZM73.1806 50.2831C73.2968 50.2231 73.4121 50.163 73.5255 50.1011C74.0088 49.8319 74.4731 49.5307 74.9151 49.1995C74.9244 49.8746 74.9105 50.6707 74.9022 51.0447C74.5205 51.1211 73.6887 51.2995 72.8182 51.5542C73.0652 51.1754 73.19 50.7315 73.176 50.2813L73.1806 50.2831ZM66.3567 38.3536C65.5213 37.6166 65.2585 36.563 65.7693 36.0006C66.2802 35.4383 67.3693 35.5794 68.2038 36.3164C69.0383 37.0534 69.2984 38.1052 68.793 38.6702C68.2877 39.2353 67.1876 39.0897 66.3531 38.3518L66.3567 38.3536ZM68.0028 41.4472C67.7991 41.6719 67.4783 41.7534 67.19 41.6537C66.9016 41.5539 66.7026 41.2926 66.6857 40.9916C66.6689 40.6906 66.8374 40.4093 67.1128 40.2787C67.3882 40.1482 67.7162 40.1942 67.9437 40.3954C68.2518 40.6704 68.2766 41.1394 67.9991 41.4445L68.0028 41.4472ZM72.8311 48.2777C72.5148 48.1867 72.2299 47.9347 72.0473 47.5798C71.8518 47.1995 71.7928 46.7609 71.7623 46.417C71.5927 44.3721 72.2281 42.3413 73.5365 40.7466C74.2226 39.9168 74.9022 39.5556 75.556 39.6675C77.1827 40.3526 77.7203 42.7802 76.7548 45.0977C75.9314 47.0466 74.3028 48.315 72.8274 48.275L72.8311 48.2777ZM73.1179 40.41C71.7215 42.1122 71.0435 44.2798 71.2247 46.4625C71.2588 46.8519 71.328 47.3587 71.5659 47.821C71.5798 47.8483 71.5954 47.8728 71.6102 47.8992C71.032 47.5216 70.6124 46.8829 70.4114 46.0521C70.1652 45.0121 70.2934 43.8093 70.7719 42.6656C71.2505 41.5218 72.0205 40.581 72.9362 40.0105C73.2686 39.8011 73.6338 39.6474 74.017 39.5556C73.6779 39.7972 73.3741 40.0838 73.1142 40.4072L73.1179 40.41ZM63.2915 22.3415C63.476 22.3251 63.6604 22.3105 63.8448 22.2996C66.5541 22.1331 69.3122 22.5726 71.7753 23.6954C72.1195 23.85 72.4576 24.0178 72.7896 24.1985C70.9924 23.7936 69.054 23.9647 67.5583 24.759C65.1506 26.0392 63.6207 27.7898 62.647 30.3948C60.5758 29.6615 58.3931 29.171 56.2399 29.0491C57.2782 26.1466 59.9755 22.9784 63.2915 22.3415L63.2915 22.3415ZM53.2761 27.4605C54.1015 26.4021 55.0908 25.4788 56.2076 24.7244C57.3278 23.9725 58.5555 23.3898 59.8501 22.9957C60.1406 22.9047 60.4338 22.8264 60.7289 22.7545C58.3239 24.1448 56.4741 26.6798 55.6792 29.02C54.4608 28.9824 53.2422 29.085 52.0478 29.3257C52.4064 28.6727 52.8171 28.049 53.2761 27.4605L53.2761 27.4605ZM50.7771 32.6423C51.1275 31.8761 51.548 31.0955 52.2526 30.6278C53.0613 30.0919 55.4183 29.7461 58.0076 30.7142C55.9052 30.7242 53.9871 31.3648 52.3208 33.0299C51.1607 34.19 49.8467 37.2927 49.7941 39.4901C49.1422 37.2253 49.7969 34.7878 50.7771 32.6423L50.7771 32.6423ZM49.1735 42.7647C49.6143 44.0013 50.1805 45.0767 50.7467 45.7965C48.9808 46.7728 48.1877 48.2049 48.3288 50.1539C48.1224 50.337 47.9602 50.5633 47.8539 50.8163L47.0655 52.6588C45.1419 47.1322 46.3674 44.61 49.1735 42.7647L49.1735 42.7647ZM44.7076 54.7798C44.8626 54.3909 45.1551 54.0705 45.5311 53.8781C45.8918 53.685 46.3082 53.6183 46.7123 53.6888L46.2605 54.8325L46.2605 54.8325C46.2253 54.8891 46.208 54.9546 46.2107 55.0209C46.2154 55.0892 46.2335 55.156 46.2642 55.2174C46.3266 55.3367 46.4155 55.4406 46.5242 55.5213C46.6292 55.6042 46.7481 55.6683 46.8755 55.7106C46.9917 55.7524 47.1061 55.7879 47.2121 55.8298C47.4118 55.8915 47.5846 56.0178 47.7027 56.1883C47.8053 56.3533 47.834 56.553 47.782 56.7397C47.7295 56.9232 47.6018 57.0769 47.4297 57.1637C47.2387 57.2472 47.0294 57.2819 46.8211 57.2647C46.37 57.2565 45.9266 57.1483 45.5237 56.948C44.7611 56.5613 44.4079 55.5468 44.7076 54.7798L44.7076 54.7798ZM28.8467 56.4885C29.5973 55.8853 30.9031 55.5786 32.1858 55.4685C32.3444 55.5859 32.4477 55.7688 32.5334 56.0964C30.572 56.686 28.4954 58.8306 27.5336 59.9224C27.387 59.7925 27.2583 59.6441 27.1509 59.4811L27.1352 59.4602C27.2191 58.332 27.7909 57.3338 28.8421 56.4885L28.8467 56.4885ZM39.6699 61.29C39.9463 61.1395 40.2358 61.0138 40.5349 60.9142L40.5247 60.9315C41.7641 61.6803 42.8024 62.6284 43.4756 63.6229C42.637 64.1275 41.8576 64.7223 41.1518 65.3963C40.9028 65.1042 40.6455 64.8176 40.3929 64.5419C39.8488 63.9459 39.2863 63.3309 38.8455 62.6548C38.7533 62.5074 38.6611 62.3546 38.5689 62.1999C38.876 61.8323 39.2492 61.5238 39.6699 61.29L39.6699 61.29ZM38.3909 62.9423C38.852 63.6548 39.4329 64.2871 39.9927 64.8986C40.308 65.2434 40.6382 65.601 40.9332 65.965C41.9245 67.1742 42.393 68.2697 42.3644 69.3143C42.3524 69.7919 42.0795 70.347 41.6857 70.8419C41.8543 70.4586 41.9551 70.0496 41.9836 69.6327C42.109 67.8202 40.9591 66.5864 39.846 65.3945C39.4359 64.9702 39.0504 64.5233 38.6915 64.0561C38.1687 63.3427 37.7694 62.4956 37.3839 61.6767C36.7384 60.3 36.0634 58.8761 34.7752 58.0162C34.2048 57.639 33.5481 57.4082 32.8645 57.3447C33.7027 57.2883 34.5243 57.4667 35.1219 57.8606C36.2156 58.5885 36.7818 59.7796 37.3858 61.0452C37.6891 61.6849 38.0027 62.3445 38.3909 62.9423L38.3909 62.9423ZM27.1832 60.3255C27.2683 60.3961 27.3611 60.4571 27.4598 60.5075L27.6498 60.5985L27.7872 60.4383C28.0878 60.0898 28.5498 59.5767 29.1058 59.0353C28.4096 60.0089 28.0666 61.3027 28.2049 62.602C28.2206 62.7485 28.2436 62.895 28.2704 63.0406C27.7632 62.0743 27.3335 61.0534 27.1832 60.3255L27.1832 60.3255ZM33.0259 68.2151C32.8341 68.0786 32.6404 67.9422 32.4468 67.8002C32.4855 67.7584 32.5261 67.7192 32.5648 67.6774C32.6755 67.5536 32.7907 67.4335 32.8986 67.3071L33.225 66.9276C33.3377 66.7987 33.4309 66.6543 33.5017 66.4991C33.3393 66.558 33.1865 66.6398 33.048 66.742L32.6386 67.0332C32.5021 67.1305 32.3721 67.2334 32.2384 67.3334C32.1683 67.3862 32.101 67.4435 32.0327 67.4981C31.7791 67.3089 31.5274 67.1105 31.2793 66.9058L32.0041 66.1224C32.2854 65.8176 32.5749 65.5219 32.8608 65.2207C33.1467 64.9195 33.439 64.6247 33.7341 64.3317C34.0292 64.0387 34.3196 63.7412 34.5889 63.4155C34.2303 63.6338 33.8887 63.8783 33.5672 64.147C33.2426 64.4121 32.9217 64.6811 32.6044 64.9541C32.2854 65.2271 31.9783 65.51 31.6712 65.7939C31.402 66.0444 31.1385 66.3004 30.881 66.5619C30.5696 66.2791 30.2844 65.9694 30.0289 65.6365L30.0289 65.6365L30.0197 65.6274C29.3916 64.8201 28.97 63.8754 28.7905 62.8732L28.8015 62.8832L29.305 62.2763C29.471 62.0734 29.6462 61.8778 29.8168 61.6794C29.9874 61.4811 30.1681 61.2891 30.3544 61.1044C30.5407 60.9197 30.7233 60.7313 30.8985 60.5193C30.6433 60.6161 30.4037 60.7491 30.1875 60.9142C29.9699 61.0734 29.7587 61.2427 29.5521 61.4165C29.3456 61.5903 29.151 61.775 28.9555 61.9624C28.8762 62.0388 28.7988 62.1162 28.7222 62.1944C28.6752 60.7386 29.2755 59.3419 30.3138 58.5622C30.9336 58.1062 31.6875 57.8627 32.4606 57.8688C33.1771 57.8644 33.8786 58.071 34.4755 58.4621C34.6095 58.5521 34.7379 58.6499 34.86 58.755C34.6304 58.8961 34.3989 59.0371 34.1739 59.1827C33.8715 59.3783 33.5662 59.5676 33.2675 59.7677L32.3656 60.361C32.0612 60.5574 31.7716 60.7751 31.4988 61.0125C31.8409 60.891 32.174 60.7459 32.4956 60.5785L33.4584 60.0871C33.7802 59.9252 34.0956 59.7523 34.4146 59.5858C34.6913 59.4384 34.9734 59.2855 35.251 59.1308C35.9454 59.8878 36.4111 60.8751 36.897 61.9051C37.2935 62.7467 37.7039 63.6166 38.2572 64.3718C38.4315 64.6101 38.626 64.8413 38.8225 65.0678C38.7063 65.1479 38.5919 65.2307 38.4831 65.3208C38.3094 65.4633 38.1437 65.6152 37.987 65.7757C37.8314 65.9344 37.6848 66.1014 37.5481 66.2762C37.4066 66.4488 37.2945 66.6431 37.2161 66.8512C37.3975 66.7284 37.5706 66.594 37.7343 66.449C37.8957 66.3107 38.0645 66.1761 38.236 66.056C38.4075 65.9359 38.5809 65.813 38.7607 65.7048C38.899 65.6219 39.0373 65.5437 39.1784 65.4664C39.27 65.5658 39.3622 65.6641 39.4551 65.7612C39.6293 65.9486 39.8018 66.1342 39.9687 66.3207C39.8551 66.3862 39.7449 66.4572 39.6386 66.5337C39.4848 66.6459 39.3382 66.7674 39.1996 66.8976C39.0617 67.025 38.9318 67.1605 38.8105 67.3034C38.6844 67.445 38.5857 67.6081 38.5191 67.7848C38.6827 67.6986 38.8388 67.5991 38.9857 67.4872C39.1305 67.3817 39.2798 67.2852 39.4302 67.1924C39.5805 67.0996 39.7326 67.0104 39.8912 66.9358C40.0498 66.8612 40.178 66.7975 40.3228 66.7329C41.0199 67.5755 41.5317 68.4617 41.4524 69.6082C41.3685 70.8256 40.5856 71.8738 39.5048 72.2159C38.0386 72.6799 37.0824 71.8246 35.8891 70.5654C34.9891 69.6127 33.9913 68.9021 33.0259 68.216L33.0259 68.2151ZM31.7118 71.4743L31.7118 71.4634C32.2974 70.9175 33.0028 70.2505 33.7728 69.4171C34.3864 69.8686 34.9601 70.3706 35.488 70.9175C36.3244 71.801 37.3323 72.8619 38.7293 72.8619C39.0332 72.86 39.3351 72.8128 39.6247 72.7218C41.0384 72.6554 42.8661 70.7728 42.9048 69.3279C42.9352 68.2051 42.4732 67.0532 41.4958 65.8085C42.2447 65.0875 43.081 64.4604 43.9855 63.9414L44.2244 63.8049L44.0796 63.5738C43.4406 62.5356 42.4271 61.5384 41.1997 60.7295C41.6628 60.6313 42.1336 60.5731 42.6069 60.5557C43.1278 60.5319 43.6497 60.5432 44.169 60.5894C45.2163 60.6901 46.2511 60.8906 47.2592 61.1881C48.2813 61.4706 49.272 61.8538 50.2165 62.3318C49.3755 61.6721 48.3925 61.1926 47.38 60.826C46.3593 60.4621 45.3 60.2139 44.2225 60.0862C43.6799 60.0209 43.1332 59.993 42.5866 60.0025C42.0342 60.0174 41.4845 60.085 40.9452 60.2045C40.6705 60.2664 40.4002 60.3466 40.1365 60.4447C40.1923 60.319 40.2367 60.1887 40.2693 60.0553C40.3123 59.8954 40.3146 59.7276 40.2758 59.5667C40.186 59.6946 40.1041 59.8276 40.0305 59.9652C39.9582 60.0931 39.8753 60.2149 39.7824 60.3292C39.6913 60.4425 39.5934 60.5504 39.4892 60.6522C39.4025 60.7368 39.313 60.8196 39.2236 60.9024C39.07 60.9991 38.9225 61.1048 38.7819 61.219C38.8344 61.0962 38.887 60.9724 38.9359 60.8451C39.017 60.6385 39.0908 60.4265 39.1517 60.2081C39.2232 59.99 39.2399 59.758 39.2005 59.5321C39.1083 59.7405 39.0097 59.9261 38.9128 60.1181C38.816 60.31 38.7063 60.4948 38.5956 60.6813L38.2572 61.2427C38.2231 61.2991 38.1908 61.3582 38.1576 61.4156C38.0598 61.2172 37.9643 61.0191 37.8708 60.8214C37.264 59.5476 36.637 58.2264 35.4188 57.4212C34.457 56.7842 33.0259 56.625 31.7395 57.0072C32.1061 56.805 32.4984 56.652 32.906 56.5522L33.1596 56.4931L33.1089 56.241C33.0629 55.9588 32.9714 55.6857 32.8377 55.4321C33.2306 55.4167 33.6114 55.4167 33.9618 55.4321C37.1442 55.5659 39.7372 56.6095 42.4825 57.7141C43.3124 58.049 44.1755 58.3956 45.0783 58.7278C45.1718 58.9293 45.3269 59.097 45.5218 59.2073L50.6858 62.0224C55.564 67.0004 60.1489 69.7401 66.4148 71.4061C66.2304 71.6463 66.0395 71.8865 65.8284 72.1249C63.7996 74.4114 60.7566 75.8809 57.2524 76.3104C57.3511 76.2412 57.447 76.1684 57.5383 76.0902C57.7183 75.9472 57.8554 75.7584 57.9348 75.5443C57.7504 75.6735 57.5724 75.7808 57.3889 75.8845C57.2059 75.986 57.0154 76.0736 56.819 76.1466C56.6244 76.2208 56.4255 76.2834 56.2233 76.334C56.0413 76.3793 55.8565 76.4124 55.67 76.4332C55.4671 76.4405 55.2643 76.4469 55.0596 76.4469L55.0531 76.4469C55.1306 76.4214 55.208 76.3959 55.2855 76.3677C55.7169 76.2164 56.1262 76.0096 56.5027 75.7526C56.6996 75.6228 56.8675 75.4547 56.9961 75.2586C57.1094 75.0624 57.1909 74.8499 57.2377 74.6289C57.1195 74.8108 56.9896 74.985 56.8485 75.1503C56.7046 75.2999 56.5378 75.4264 56.3542 75.5252C55.9774 75.7295 55.5771 75.8887 55.1619 75.9992C54.7478 76.1176 54.3247 76.2031 53.8967 76.2549C53.5121 76.3078 53.1217 76.306 52.7376 76.2494C50.8859 75.9364 49.1791 75.295 47.4012 74.6253C46.657 74.345 45.8925 74.0584 45.1004 73.7882C45.3938 73.7066 45.679 73.5988 45.9525 73.4661C46.2655 73.3185 46.5573 73.1307 46.8202 72.9074C47.0872 72.6887 47.2977 72.4105 47.4344 72.0958C47.1931 72.3131 46.9251 72.4996 46.6367 72.6508C46.3566 72.8004 46.0656 72.9294 45.7662 73.0366C45.3307 73.1893 44.8815 73.3005 44.4245 73.3687C44.4457 73.3323 44.4688 73.2978 44.49 73.2614C44.8441 72.6408 45.1226 71.9639 45.2009 71.2441C44.9925 71.5426 44.8099 71.841 44.6274 72.1376L44.0741 73.0184C43.7045 73.605 43.2967 74.1673 42.8532 74.7017C42.6208 74.9801 42.3819 75.2476 42.1385 75.5206C42.0809 75.3676 41.9858 75.231 41.8618 75.123C41.7206 75.0084 41.5658 74.9112 41.4008 74.8336C41.2495 74.7566 41.0959 74.6862 40.9397 74.6225L40.0222 74.2467L39.1139 73.8646C39.3446 74.107 39.6125 74.3122 39.9078 74.4724L40.7709 74.951C40.912 75.0311 41.0476 75.1139 41.185 75.1976C41.3114 75.2706 41.4287 75.3579 41.5345 75.4578C41.6792 75.6134 41.7275 75.834 41.6608 76.0347C41.1075 76.6179 40.5459 77.1902 39.9761 77.7635C39.7271 78.0155 39.4836 78.2739 39.2383 78.5359C39.1175 78.6679 38.9977 78.8007 38.8787 78.9363L38.5467 79.3312C38.3974 79.4977 38.1235 79.5532 37.8293 79.5204C37.5351 79.4877 37.2539 79.3485 36.957 79.1792C36.3714 78.8599 35.9113 78.3603 35.3893 77.8717C34.872 77.3658 34.2634 76.9597 33.5948 76.6743C33.8484 76.9309 34.1002 77.1757 34.3399 77.4295C34.5797 77.6834 34.8084 77.94 35.038 78.2038C35.2676 78.4677 35.4991 78.7361 35.7757 78.9882C36.0439 79.2488 36.3412 79.4787 36.6619 79.6733C36.8426 79.7859 37.0315 79.8851 37.2271 79.9699C36.7937 80.7634 36.506 81.5959 36.1206 82.3529C35.898 82.8054 35.6219 83.2302 35.298 83.6186C35.1363 83.8093 34.9599 83.9876 34.7706 84.1518C34.5703 84.3497 34.3919 84.5681 34.2385 84.8032C34.2247 84.8232 34.2099 84.8405 34.1961 84.8596L24.982 79.1019C23.3314 78.0683 22.2811 76.95 21.7757 75.6807C21.9546 74.5889 22.6979 73.628 23.6431 73.0593C24.1293 72.7702 24.6703 72.5822 25.2328 72.5071C25.8026 72.4341 26.3808 72.4556 26.9434 72.5707C27.511 72.6893 28.0575 72.8911 28.5645 73.1694C29.0616 73.4215 29.4479 73.83 29.7808 74.3059C30.4337 75.2676 30.8874 76.3859 31.461 77.4905C31.4249 76.8703 31.3125 76.2568 31.1262 75.6635C30.9425 75.0582 30.6734 74.4814 30.3267 73.9501C30.2154 73.7803 30.0944 73.6169 29.9643 73.4606C29.956 73.2686 30.1248 73.0184 30.418 72.7036C30.6566 72.6468 30.9049 72.6418 31.1456 72.689C31.423 72.7463 31.692 72.838 31.946 72.962C32.4726 73.214 32.9604 73.5734 33.4353 73.9447C33.9102 74.3159 34.3676 74.7281 34.8185 75.1439C35.264 75.5753 35.7439 75.9709 36.2534 76.3267C35.9177 75.8054 35.531 75.3178 35.0988 74.8709C34.6719 74.4233 34.2357 73.9802 33.7617 73.5689C33.2863 73.1431 32.7599 72.7764 32.1941 72.477C31.897 72.3204 31.5773 72.2096 31.2461 72.1486C31.1693 72.1344 31.0917 72.1243 31.0138 72.1185C31.1475 71.9921 31.2904 71.8601 31.4435 71.7191L31.7007 71.4807L31.7118 71.4743ZM21.1653 77.9773C21.1339 77.9291 21.1109 77.8754 21.0832 77.8244C21.0611 77.7758 21.042 77.726 21.026 77.6752C20.9609 77.4591 20.9406 77.2323 20.9661 77.0082C20.9993 76.6625 21.1431 76.314 21.37 76.1075C21.9482 77.3913 23.0381 78.5223 24.6897 79.5559L33.8005 85.2473C33.7866 85.2563 33.7747 85.2664 33.7599 85.2746C33.5608 85.3851 33.3414 85.4554 33.1144 85.4811C32.6329 85.5277 32.1475 85.447 31.7081 85.2472C31.2437 85.0341 30.8004 84.7789 30.3839 84.4848L29.0699 83.6095L23.8137 80.1082L22.5014 79.2302C22.0726 78.9399 21.666 78.636 21.3644 78.2648C21.2912 78.1738 21.2246 78.0777 21.1653 77.9773L21.1653 77.9773ZM64.1371 96.6801C64.1371 95.6674 64.1371 95.0596 64.1371 96.6801L64.1371 96.6801ZM98.8853 56.2456C98.8586 56.4276 98.8319 56.6095 98.8125 56.7988C98.7931 56.9881 98.7848 57.201 98.7784 57.3647C98.7556 58.0654 98.7061 58.7629 98.6299 59.4575C98.4804 60.851 98.2308 62.2324 97.883 63.5911C97.7084 64.2699 97.5107 64.9423 97.29 65.6083C97.1785 65.9413 97.0604 66.2716 96.9387 66.6001C96.8168 66.9121 96.6745 67.2161 96.5127 67.51C96.1938 68.116 95.8237 68.6943 95.4061 69.2387C95.2113 69.4937 94.9904 69.7282 94.7468 69.9384C94.6459 70.0247 94.534 70.0975 94.4139 70.155C94.3531 70.1888 94.2832 70.2034 94.2138 70.1969C94.2046 70.1946 94.1956 70.1916 94.187 70.1878C94.1684 70.1799 94.1505 70.1705 94.1335 70.1596C94.1335 70.1596 94.1096 70.1423 94.0524 70.1095C94.0061 70.0841 93.9577 70.0627 93.9076 70.0458C93.4859 69.9 93.0195 70.0802 92.8103 70.4698L92.7439 70.5926L92.2404 71.5262C91.8918 72.1422 91.5432 72.7573 91.1707 73.3596C89.6976 75.7786 88.0171 78.0687 86.1478 80.2047C85.2146 81.2723 84.2374 82.3004 83.2163 83.2892C82.1952 84.2779 81.1319 85.2181 80.0266 86.1098C77.8243 87.9091 75.4673 89.5157 72.9823 90.9113C70.5004 92.312 67.8978 93.4933 65.205 94.4417C64.8702 94.5654 64.5318 94.6773 64.1906 94.7874L63.6825 94.9539L63.6189 94.9748C63.5616 94.9926 63.5063 95.0161 63.4538 95.0449C63.2372 95.1649 63.098 95.3861 63.085 95.6309L63.085 95.7046C63.0847 95.735 63.0825 95.7654 63.0785 95.7956C63.0241 96.286 62.6174 96.8037 62.113 97.1094C61.5874 97.427 60.9327 97.6144 60.2512 97.7527C59.5698 97.891 58.8385 98.0157 58.1303 98.1485L53.8884 98.9301C53.2464 99.0295 52.5901 98.9888 51.9658 98.8109C51.6705 98.7408 51.3887 98.624 51.1312 98.4651C51.0371 98.4004 50.9564 98.3186 50.8933 98.224C50.8633 98.1774 50.8385 98.1277 50.8195 98.0757C50.8082 98.0488 50.7987 98.0211 50.791 97.9929L50.7698 97.9137C50.9948 97.9074 51.2225 97.9056 51.4521 97.9056C51.9215 97.9056 52.3964 97.9301 52.8759 97.9347C53.3554 97.9392 53.8396 97.941 54.3246 97.9092C54.8135 97.8849 55.2942 97.7759 55.7447 97.5871C55.2569 97.5871 54.7912 97.568 54.3219 97.5389C53.8525 97.5097 53.384 97.4588 52.9119 97.406C52.4398 97.3532 51.963 97.2986 51.4798 97.2595C51.0177 97.2191 50.553 97.2142 50.0901 97.245L50.0901 97.245C50.0358 97.2336 49.9806 97.2272 49.9251 97.2259L49.8412 97.2259L49.3036 97.2322C48.9458 97.2322 48.5889 97.2322 48.232 97.2268C47.5174 97.2158 46.8027 97.1913 46.0899 97.1476C44.6636 97.0639 43.2426 96.9177 41.8268 96.709C38.9981 96.2893 36.211 95.6312 33.4962 94.7419C28.0595 92.9455 22.9835 90.2235 18.4984 86.6994L18.0779 86.3709C18.0374 86.34 18.0245 86.3273 17.9442 86.269C17.739 86.1244 17.488 86.0576 17.2369 86.0807C17.1954 86.084 17.1541 86.0901 17.1134 86.0989C17.0765 86.1062 17.0212 86.1216 17.0082 86.1262L16.8838 86.1626C16.8777 86.1636 16.8714 86.1636 16.8653 86.1626L16.6458 86.0943C16.5675 86.067 16.4872 86.0425 16.4116 86.0115C16.1014 85.8929 15.8029 85.7464 15.5199 85.5739C15.2267 85.3983 14.927 85.199 14.6134 85.0043C14.4576 84.9069 14.2981 84.8123 14.1376 84.7186C13.9772 84.6249 13.8388 84.5421 13.6931 84.4456C13.4063 84.2653 13.1315 84.0668 12.8706 83.8515C12.3588 83.4238 11.9318 82.9252 11.6801 82.3529C11.5532 82.0732 11.4708 81.7758 11.4357 81.4712C11.4185 81.3229 11.4161 81.1733 11.4283 81.0245C11.4283 80.9908 11.4366 80.9581 11.4413 80.9253C11.6165 81.1073 11.788 81.3002 11.966 81.4903C12.1891 81.7342 12.4196 81.978 12.6594 82.2137C12.8975 82.4593 13.1786 82.6603 13.4893 82.807C13.3127 82.5263 13.1216 82.2548 12.9167 81.9935C12.7184 81.7342 12.5303 81.4649 12.3348 81.1974C12.1393 80.9299 11.9374 80.6633 11.7225 80.4012C11.658 80.3239 11.5906 80.2474 11.5224 80.1728C11.5043 80.0909 11.4712 80.0129 11.4247 79.9426C11.4015 79.9095 11.3766 79.8776 11.35 79.8471L11.3075 79.7961L11.2218 79.6933L10.8815 79.2839C10.6537 79.0109 10.426 78.7379 10.2093 78.4586C9.3194 77.3531 8.49316 76.1994 7.70381 75.022C6.91445 73.8446 6.17951 72.629 5.49712 71.3897C4.81473 70.1504 4.17938 68.8784 3.5975 67.5909C3.30242 66.9476 3.03684 66.2916 2.76757 65.6374C2.51491 64.9768 2.2521 64.3199 2.02986 63.6493C1.78918 62.9842 1.57985 62.3081 1.36592 61.6348L1.06899 60.6167L0.995215 60.3619C0.97124 60.2791 0.941731 60.1799 0.933432 60.1372C0.861836 59.8124 1.05538 59.4879 1.3779 59.392C1.57473 59.3232 1.79395 59.3673 1.94779 59.5066C2.00773 59.5576 2.15712 59.7359 2.27515 59.866C2.39318 59.9961 2.52782 60.139 2.66061 60.2673C2.92065 60.5311 3.19268 60.7805 3.46748 61.0234C4.57551 61.9741 5.76007 62.8344 7.00945 63.5956C9.48723 65.127 12.1126 66.3863 14.7979 67.4836C17.4858 68.5798 20.2471 69.4919 23.0622 70.2132C24.4711 70.5699 25.8949 70.8738 27.3362 71.0995C28.5239 71.2929 29.7225 71.4145 30.9252 71.4634C30.2336 72.1003 29.7357 72.5798 29.5236 73.0048C29.4627 72.9511 29.4 72.8983 29.3391 72.8473C29.2047 72.7454 29.0632 72.6526 28.9159 72.5698C28.3522 72.2394 27.7381 72.0009 27.0974 71.8638C26.7754 71.7964 26.4486 71.7535 26.1199 71.7355C25.789 71.7239 25.4576 71.7407 25.1296 71.7855C24.4655 71.8755 23.829 72.1065 23.2641 72.4625C22.6984 72.8128 22.2177 73.2816 21.8559 73.8355C21.6752 74.1119 21.5291 74.4088 21.4207 74.7199C21.3317 74.9858 21.2718 75.2603 21.2418 75.5388C21.009 75.6743 20.8177 75.8695 20.6885 76.1038C20.3994 76.6338 20.3331 77.2548 20.5041 77.8326C20.5249 77.8982 20.5495 77.9627 20.5779 78.0255C20.3115 78.2197 20.0227 78.3819 19.7175 78.5086C19.354 78.667 18.9697 78.7742 18.5759 78.8271C18.3883 78.8499 18.1987 78.8524 18.0106 78.8344C17.811 78.8147 17.6129 78.7818 17.4177 78.7361C17.0226 78.6395 16.6374 78.5073 16.2668 78.3412C15.5046 78.0059 14.7868 77.58 14.1293 77.0729C13.4769 76.5762 12.927 75.961 12.5091 75.2604C12.0988 74.5662 11.8839 73.7765 11.8867 72.9729C11.8759 72.1753 12.1557 71.4004 12.6751 70.7892C13.2283 70.1968 13.9773 69.8184 14.7877 69.7219C15.6194 69.6135 16.4651 69.7456 17.2222 70.1022C16.9099 69.7828 16.5187 69.5491 16.087 69.4244C15.65 69.2942 15.1907 69.2531 14.737 69.3033C13.812 69.3899 12.9488 69.7993 12.3025 70.458C11.6635 71.1386 11.3361 72.0557 11.3085 72.9611C11.278 73.8721 11.4976 74.7743 11.9438 75.5724C12.3909 76.3526 12.9857 77.0408 13.6959 77.5997C14.3924 78.1544 15.1555 78.6222 15.9681 78.9927C16.3828 79.1812 16.8152 79.3293 17.2591 79.4349C17.4842 79.4871 17.7124 79.5251 17.9424 79.5486C18.1845 79.5721 18.4285 79.569 18.6699 79.5396C19.5032 79.4303 20.2956 79.1175 20.9753 78.6297C21.3331 79.0582 21.7711 79.3785 22.1999 79.6697L23.5158 80.5468L28.772 84.048L30.087 84.9233C30.5311 85.2363 31.0041 85.5075 31.4997 85.7331C32.0267 85.9704 32.6083 86.0647 33.1845 86.0061C33.4836 85.9724 33.7727 85.8796 34.0347 85.7331C34.1716 85.6565 34.296 85.5599 34.4035 85.4465C34.5035 85.342 34.5959 85.2307 34.6802 85.1135C34.8119 84.9091 34.9646 84.7185 35.1357 84.5448C35.3434 84.3644 35.537 84.1689 35.7148 83.9598C36.0634 83.5407 36.3609 83.0826 36.601 82.5949C37.0243 81.7597 37.3212 80.8898 37.7555 80.1255C37.9681 80.1588 38.1852 80.1508 38.3946 80.1019C38.6275 80.0484 38.8396 79.9292 39.005 79.7588L39.3591 79.3476C39.4735 79.2184 39.5897 79.0891 39.7086 78.9618C39.9456 78.7061 40.1909 78.4559 40.4344 78.2011C41.4072 77.1838 42.4114 76.1693 43.2847 75.0365C43.5448 74.7011 43.7931 74.3562 44.0298 74.002C45.0193 74.3086 45.9663 74.6553 46.8783 75.0029C46.2209 75.5938 45.7276 76.3408 45.4453 77.1729C45.2671 77.6747 45.1757 78.2026 45.1751 78.7343C45.175 78.8701 45.1837 79.0056 45.2009 79.1402C45.2142 79.2769 45.2389 79.4123 45.2747 79.545L45.3263 79.7461C45.3494 79.8116 45.377 79.8762 45.4029 79.9417C45.4287 80.0072 45.4527 80.0736 45.4831 80.1346L45.5753 80.3166C46.1 81.2647 46.9585 81.9644 47.8917 82.4221C48.8249 82.8797 49.8531 83.1081 50.8518 83.241C51.8524 83.3762 52.8622 83.433 53.8718 83.4111C54.8862 83.3774 55.919 83.2118 56.8762 82.8115C57.8475 82.4172 58.6771 81.745 59.2581 80.8816C59.5473 80.451 59.7438 79.9663 59.8353 79.4576C59.9296 78.9561 59.8811 78.4386 59.6952 77.9627C59.7284 78.9563 59.3918 79.8525 58.8486 80.6077C58.3047 81.3706 57.542 81.9556 56.6586 82.2874C55.777 82.6286 54.8143 82.7578 53.8552 82.7742C52.8827 82.7763 51.9114 82.703 50.9505 82.5549C49.9933 82.4157 49.0527 82.1909 48.22 81.776C47.3873 81.3611 46.6625 80.7415 46.242 79.9563C45.8298 79.2056 45.8602 78.2611 46.1563 77.4086C46.3034 76.9788 46.5121 76.5719 46.7759 76.2003C47.0174 75.8508 47.3159 75.5434 47.6594 75.2904C49.2768 75.8982 50.8527 76.4614 52.5578 76.7589L52.5578 76.7589C53.3539 76.8988 54.1606 76.9715 54.9692 76.9764L55.0614 76.9764C55.2744 76.9764 55.4856 76.9691 55.6968 76.9618L55.6968 76.9618L55.7115 76.9618C60.0059 76.8126 63.8107 75.1985 66.2322 72.467C68.4943 69.9193 69.0992 67.2552 69.5852 65.117C69.8498 63.9541 70.0822 62.9469 70.5322 62.3154C70.6733 62.3264 70.8153 62.3336 70.961 62.3336C71.7485 62.3336 72.6144 62.1708 73.5504 61.845C74.1415 61.6403 74.7215 61.3901 75.2831 61.1481C76.0697 60.8087 76.8839 60.4584 77.7166 60.2382C78.0735 60.1472 78.4543 60.0653 78.8232 59.9889C80.128 59.7159 81.4771 59.4429 82.3356 58.4066C82.8889 57.7433 83.1019 56.898 83.2928 56.1519L83.3002 56.1228C83.7087 54.5323 84.167 52.738 83.7032 51.0865L83.7032 51.0865C83.7028 51.0823 83.7028 51.078 83.7032 51.0738C83.6958 51.0501 83.6912 51.0265 83.6838 51.0028C84.0158 49.9437 83.9024 48.8728 83.3777 48.0912C83.492 47.3451 83.0392 46.6572 82.6012 46.0676C82.177 45.4971 81.716 44.8302 81.2706 44.1851C80.851 43.5773 80.4194 42.954 80.0137 42.4026C80.8251 40.4086 81.2163 38.2725 81.1636 36.1244C81.1312 34.7353 80.8856 33.359 80.4351 32.0426C80.0352 30.886 79.4725 29.7907 78.7632 28.7889L78.8232 28.7889C78.5075 20.1076 75.6577 11.701 70.6161 4.57954C70.2002 3.98817 69.765 3.41039 69.3196 2.8408C69.0992 2.55419 68.8668 2.27667 68.6409 1.9937C68.4882 1.83081 68.4308 1.60209 68.4887 1.38771C68.5456 1.1759 68.6999 1.00272 68.9055 0.920034C68.9999 0.885847 69.1016 0.876747 69.2006 0.893647C69.254 0.903586 69.306 0.919775 69.3556 0.941871C69.3732 0.948404 69.3905 0.956 69.4072 0.964618L69.4671 0.992825L69.5879 1.05015C70.2334 1.35314 70.8789 1.66705 71.5078 1.99734C76.5828 4.63691 81.1565 8.12317 85.0265 12.3018C88.9001 16.4765 92.0387 21.2612 94.3124 26.4578C94.3392 26.5178 94.3641 26.5779 94.3899 26.6398C94.2927 26.654 94.1968 26.6759 94.1031 26.7053C93.8822 26.7806 93.6666 26.8703 93.4576 26.9737C93.0565 27.1638 92.6157 27.3904 92.2847 27.7926C92.1273 27.9901 92.0056 28.213 91.925 28.4513C91.8529 28.6686 91.7935 28.8898 91.747 29.1137C91.6548 29.5359 91.546 29.9972 91.6041 30.4968C91.6372 30.7374 91.7042 30.9723 91.8033 31.1946C91.8865 31.3775 91.9553 31.5664 92.0089 31.7597C92.0956 32.1154 92.0255 32.5549 92.1076 33.0399C92.1531 33.2818 92.2471 33.5122 92.3842 33.7177C92.5113 33.9042 92.6508 34.082 92.802 34.25C92.9505 34.4254 93.1216 34.5807 93.311 34.7123C93.5012 34.8485 93.7317 34.9189 93.9666 34.9124C93.5424 34.7496 93.3211 34.392 93.0971 34.0362C92.8711 33.6641 92.636 33.3192 92.5973 32.9616C92.541 32.5886 92.6351 32.1518 92.5493 31.6523C92.5003 31.4245 92.4296 31.2018 92.3381 30.9872C92.2627 30.811 92.2136 30.625 92.1924 30.4349C92.1592 30.0709 92.2496 29.6679 92.3464 29.252C92.4433 28.8362 92.5456 28.4495 92.766 28.1775C92.9864 27.9054 93.3387 27.6916 93.7177 27.4996C94.034 27.3376 94.3373 27.1902 94.6075 27.1684C95.912 30.2661 96.9047 33.4829 97.5713 36.7722C97.092 37.1088 96.5369 37.3252 95.9538 37.4028C95.7647 37.4295 95.5741 37.4453 95.3831 37.4501C95.1914 37.4496 94.9999 37.4387 94.8095 37.4173C94.4273 37.378 94.0515 37.2918 93.6909 37.1607C93.3316 37.0324 92.9907 36.8587 92.6766 36.6439C92.3596 36.4239 92.0667 36.172 91.8024 35.8924C91.2774 35.3117 90.8587 34.6455 90.5649 33.9234C90.413 33.5596 90.2896 33.1848 90.196 32.8024C90.0984 32.4188 90.0276 32.0291 89.9839 31.6359C89.8796 30.8539 89.906 30.0602 90.0623 29.2866C90.2144 28.5239 90.567 27.8141 91.0849 27.2284C91.6198 26.6235 92.3508 26.2206 93.1533 26.0884C92.7258 26.0442 92.2937 26.1009 91.8928 26.254C91.4859 26.4114 91.112 26.6415 90.7898 26.9327C90.4607 27.2248 90.1828 27.5685 89.9673 27.95C89.7545 28.3309 89.5933 28.7378 89.4878 29.1601C89.2913 29.9946 89.2346 30.8552 89.3199 31.7078C89.3529 32.1327 89.4182 32.5546 89.5154 32.9698C89.6085 33.3879 89.734 33.7982 89.8908 34.1973C90.0467 34.6003 90.2364 34.9899 90.4579 35.3619C90.6861 35.7344 90.9475 36.0861 91.2389 36.4128C91.5393 36.7373 91.873 37.03 92.2348 37.2863C92.6053 37.5415 93.0084 37.7471 93.4336 37.8978C93.8543 38.0523 94.2935 38.1526 94.7403 38.1962C94.9634 38.2179 95.1875 38.2273 95.4116 38.2244C95.6368 38.2165 95.8614 38.195 96.0839 38.1598C96.5324 38.0927 96.9678 37.958 97.3749 37.7604C97.4985 37.6993 97.6185 37.6316 97.7345 37.5575C98.576 42.0844 98.7978 46.7024 98.3938 51.2876C98.3324 51.9913 98.2564 52.6931 98.1661 53.3931L98.132 53.6551L98.1144 53.8035C98.0974 53.964 98.1154 54.1262 98.167 54.2793C98.1541 54.3466 98.1412 54.414 98.1292 54.4813C98.0757 54.7804 98.0287 55.0797 97.9881 55.3794C97.9051 55.9772 97.835 56.5741 97.7612 57.1682C97.6875 57.7624 97.6082 58.351 97.5049 58.9388C97.4016 59.5266 97.3103 60.1108 97.2449 60.7259C97.5738 60.2037 97.8178 59.6339 97.9678 59.0371C98.1209 58.4466 98.2444 57.8497 98.3431 57.2519C98.4418 56.6541 98.5275 56.0572 98.6115 55.4631L98.6852 54.9171C98.715 54.9355 98.7458 54.9522 98.7775 54.9672L98.8199 54.9863L98.8199 54.9863C98.8485 55.0048 98.8737 55.0278 98.8946 55.0545C98.9402 55.1284 98.9654 55.2128 98.9674 55.2993C98.9988 55.5441 98.9416 55.8898 98.889 56.2419L98.8853 56.2456Z" id="Shape" fill="#FFFFFF" fill-rule="evenodd" stroke="none" />
          <path d="M56.2012 89.4582C56.6112 88.8612 57.168 88.3766 57.8195 88.0497C57.0486 88.1107 56.3054 88.5247 55.7632 89.1124C54.5938 90.3536 54.5003 92.2453 55.5418 93.5927C56.0232 94.2296 56.7231 94.7128 57.4848 94.8465C56.8707 94.4577 56.3661 93.9222 56.0177 93.2897C55.3159 92.0865 55.3879 90.5904 56.2021 89.4582L56.2012 89.4582Z" id="Shape" fill="#FFFFFF" fill-rule="evenodd" stroke="none" />
          <path d="M79.6872 82.1C78.834 82.7009 77.8617 83.1173 76.8341 83.3219C76.3216 83.4333 75.8001 83.5 75.2757 83.5212C74.77 83.5491 74.2635 83.4812 73.7837 83.321C73.5542 83.2387 73.3405 83.1184 73.152 82.9653C72.9613 82.808 72.8046 82.6147 72.6909 82.3966C72.5683 82.1747 72.4945 81.9297 72.4742 81.6778C72.4571 81.4142 72.5139 81.151 72.6384 80.9171C72.4411 81.1245 72.3144 81.3876 72.276 81.6696C72.2403 81.9603 72.2718 82.2552 72.3682 82.5322C72.4674 82.8153 72.6243 83.0754 72.8293 83.2965C73.0392 83.5175 73.2895 83.6975 73.567 83.8269C74.1111 84.0999 74.7132 84.1836 75.2896 84.1909C75.8627 84.194 76.4345 84.1348 76.9946 84.0144C78.1104 83.7796 79.1976 83.2928 80.0524 82.5267C80.4797 82.1496 80.8427 81.7072 81.1276 81.2165C81.407 80.7335 81.5893 80.2017 81.6643 79.6506C81.2403 80.6275 80.5573 81.4736 79.6872 82.1L79.6872 82.1Z" id="Shape" fill="#FFFFFF" fill-rule="evenodd" stroke="none" />
          <path d="M92.4866 49.921C92.2504 49.7104 91.9794 49.5415 91.6852 49.4215C91.396 49.3026 91.08 49.2618 90.7696 49.3032C91.38 49.3723 91.8761 49.7272 92.2358 50.1639C92.4216 50.3808 92.583 50.6169 92.7171 50.8682C92.7844 50.9937 92.8453 51.1248 92.9108 51.2512C92.9762 51.3777 93.0288 51.5115 93.0749 51.647C93.4835 52.7031 93.5794 53.8521 93.3516 54.9599C93.1263 56.0592 92.4887 57.0341 91.5663 57.6896C91.0992 58.0212 90.5772 58.27 90.0236 58.4248C89.4499 58.5763 88.8511 58.6116 88.2632 58.5285C88.8421 58.7584 89.4704 58.8404 90.09 58.7669C90.7213 58.6839 91.3288 58.4746 91.8752 58.1518C92.4284 57.821 92.9085 57.3837 93.287 56.8661C93.6565 56.3381 93.9175 55.7436 94.0552 55.1164C94.3157 53.8723 94.1537 52.5782 93.5941 51.4341C93.3312 50.8618 92.9546 50.3472 92.4866 49.921L92.4866 49.921Z" id="Shape" fill="#FFFFFF" fill-rule="evenodd" stroke="none" />
          <path d="M53.3932 81.5022C52.6359 81.4413 51.8846 81.3223 51.146 81.1464C50.7771 81.0554 50.3954 80.9708 50.0265 80.8734C49.6528 80.7782 49.2889 80.6491 48.9393 80.4876C49.2372 80.7457 49.5725 80.9583 49.9343 81.1182C50.2922 81.2796 50.6582 81.4233 51.0307 81.5486C51.4051 81.6746 51.7862 81.7803 52.1723 81.8652C52.5621 81.9469 52.9566 82.0043 53.3536 82.0372C54.1562 82.1045 54.9645 82.0224 55.7364 81.7952C56.5075 81.5797 57.2073 81.1673 57.7651 80.5996C57.106 80.9814 56.3856 81.2494 55.635 81.3921C54.8962 81.5284 54.1421 81.5654 53.3933 81.5022L53.3932 81.5022Z" id="Shape" fill="#FFFFFF" fill-rule="evenodd" stroke="none" />
          <path d="M15.7449 70.9593C15.4434 71.0024 15.1486 71.0821 14.867 71.1968C14.5724 71.3137 14.3036 71.4862 14.0758 71.7045C13.6352 72.1544 13.3703 72.7436 13.328 73.3678C13.2755 73.9776 13.425 74.5878 13.754 75.1066C14.0777 75.6047 14.5287 76.0099 15.0616 76.2813C15.5755 76.5474 16.1418 76.7001 16.7214 76.7289C16.1782 76.5951 15.6631 76.3678 15.1999 76.0574C14.7515 75.7614 14.3813 75.364 14.1201 74.8982C13.8727 74.4442 13.7726 73.9262 13.8333 73.4142C13.8772 72.9136 14.0955 72.4436 14.4511 72.084C14.7877 71.7355 15.3069 71.5526 15.8214 71.4561C16.078 71.4086 16.3402 71.3985 16.5997 71.4261C16.8612 71.4615 17.1173 71.5284 17.3623 71.6254C18.4044 72.0421 19.4713 72.4088 20.3667 73.1067C19.9862 72.6811 19.5396 72.3181 19.0434 72.0312C18.5491 71.7373 18.0438 71.4853 17.5256 71.2432C17.2535 71.1102 16.9634 71.0168 16.6643 70.9657C16.3598 70.9185 16.05 70.9163 15.7449 70.9593L15.7449 70.9593Z" id="Shape" fill="#FFFFFF" fill-rule="evenodd" stroke="none" />
          <path d="M71.9025 70.7683C71.5279 70.1548 71.3897 69.4286 71.5134 68.7228C71.6185 68.0286 71.9274 67.3826 72.3101 66.7912C73.0893 65.6096 74.1709 64.652 75.4454 64.0151C76.0782 63.6967 76.7516 63.4638 77.4474 63.3227C77.7871 63.2461 78.1345 63.2074 78.4829 63.2071C78.8104 63.2027 79.1331 63.2843 79.418 63.4437C79.5492 63.5259 79.6613 63.6344 79.7472 63.7621C79.835 63.8993 79.9015 64.0487 79.9445 64.2053C80.0298 64.5452 80.0778 64.8933 80.0875 65.2434C80.1262 65.9486 80.0423 66.6783 79.6716 67.3116C79.9048 67.0238 80.0773 66.6927 80.1787 66.338C80.2807 65.9822 80.3392 65.6157 80.353 65.2462C80.3735 64.8719 80.3518 64.4966 80.2885 64.127C80.2507 63.9296 80.1803 63.7396 80.0801 63.5647C79.9726 63.3838 79.8281 63.227 79.6559 63.1043C79.315 62.8763 78.9149 62.75 78.5032 62.7403C78.117 62.7271 77.7306 62.7577 77.3515 62.8313C76.6048 62.9689 75.8813 63.2087 75.202 63.5438C74.528 63.8885 73.904 64.3209 73.3466 64.8294C72.797 65.3438 72.3255 65.9337 71.9468 66.581C71.5779 67.2252 71.2957 67.9458 71.2469 68.6992C71.198 69.4526 71.4082 70.2196 71.9025 70.7683L71.9025 70.7683Z" id="Shape" fill="#FFFFFF" fill-rule="evenodd" stroke="none" />
          <path d="M90.9521 56.0636C91.3743 55.3932 91.6185 54.6288 91.6622 53.8408C91.6821 53.4475 91.6467 53.0534 91.5571 52.6697C91.4638 52.2848 91.3048 51.9183 91.0868 51.5861C90.6581 50.9219 90.0168 50.4181 89.2646 50.1548C88.8939 50.0291 88.5002 49.9835 88.1101 50.0211C87.7246 50.0558 87.3606 50.2118 87.0718 50.466C87.3818 50.264 87.747 50.1602 88.1184 50.1685C88.4812 50.1718 88.8392 50.2499 89.1696 50.3978C90.1589 50.8402 90.8734 51.7236 91.0914 52.7735C91.1598 53.1152 91.179 53.4646 91.1486 53.8116C91.0983 54.5093 90.8747 55.184 90.4975 55.7761C90.1344 56.3645 89.5793 56.8137 88.9234 57.0499C88.5955 57.1693 88.2501 57.2353 87.9008 57.2456C87.5574 57.2625 87.2142 57.2089 86.8929 57.0881C86.5867 56.9662 86.3331 56.7242 86.098 56.4512C85.8597 56.1807 85.6562 55.8821 85.4921 55.5623C85.1638 54.9317 85.0504 54.1601 85.3326 53.4641C85.1396 53.7923 85.0366 54.1646 85.0338 54.5441C85.0308 54.929 85.1041 55.3107 85.2496 55.6678C85.396 56.0238 85.5875 56.3601 85.8195 56.6687C86.0471 57.0039 86.3558 57.2778 86.7177 57.4657C87.0897 57.6361 87.4962 57.7205 87.9063 57.7123C88.3095 57.7136 88.7103 57.6506 89.0931 57.5258C89.8641 57.2626 90.5202 56.7465 90.9521 56.0636L90.9521 56.0636Z" id="Shape" fill="#FFFFFF" fill-rule="evenodd" stroke="none" />
        </g>
      </g>
    </g>
  </g>
</svg>