<?xml version="1.0" encoding="utf-8"?>
<svg width="124px" height="22px" viewBox="0 0 124 22" version="1.1" xmlns:xlink="http://www.w3.org/1999/xlink" xmlns="http://www.w3.org/2000/svg">
  <g id="logo_lowercase_extrabold">
    <g id="warp" fill="#FFFFFF">
      <path d="M28.584 17.003L28.584 11.459C28.944 10.973 29.898 10.667 30.618 10.667C30.906 10.667 31.14 10.685 31.302 10.739L31.302 8.075C30.276 8.075 29.16 8.669 28.584 9.371L28.584 8.309L25.812 8.309L25.812 17.003L28.584 17.003ZM23.778 8.309L23.778 17.003L21.024 17.003L21.024 15.995C20.304 16.823 19.422 17.219 18.45 17.219C16.308 17.219 14.616 15.599 14.616 12.647C14.616 9.803 16.272 8.093 18.45 8.093C19.404 8.093 20.322 8.471 21.006 9.335L21.006 8.309L23.778 8.309ZM41.724 12.647C41.724 15.599 40.086 17.219 37.908 17.219C36.936 17.219 36.054 16.841 35.334 15.977L35.334 20.315L32.562 20.315L32.562 8.309L35.334 8.309L35.334 9.317C36.018 8.489 36.918 8.093 37.908 8.093C40.086 8.093 41.724 9.713 41.724 12.647ZM14.274 8.309L11.7 17.003L8.712 17.003L7.074 11.621L5.454 17.003L2.466 17.003L-0.108 8.309L2.736 8.309L4.14 13.637L5.85 8.309L8.316 8.309L10.026 13.637L11.412 8.309L14.274 8.309ZM35.334 13.979C35.676 14.429 36.396 14.771 36.99 14.771C38.07 14.771 38.898 13.961 38.898 12.647C38.898 11.351 38.07 10.541 36.99 10.541C36.396 10.541 35.676 10.865 35.334 11.333L35.334 13.979ZM17.442 12.647C17.442 13.943 18.252 14.771 19.35 14.771C19.944 14.771 20.664 14.447 21.024 13.979L21.024 11.333C20.664 10.865 19.944 10.559 19.35 10.559C18.252 10.559 17.442 11.351 17.442 12.647Z" />
    </g>
    <g id="download" fill="#FFFFFF" transform="translate(45 0)">
      <path d="M8.82 4.997L8.82 17.003L7.866 17.003L7.866 15.617C7.254 16.517 6.138 17.219 4.842 17.219C2.538 17.219 0.972 15.455 0.972 12.665C0.972 9.911 2.538 8.093 4.842 8.093C6.084 8.093 7.182 8.723 7.866 9.713L7.866 4.997L8.82 4.997ZM46.368 17.219C47.088 17.219 47.502 17.003 47.844 16.679L47.484 15.959C47.286 16.175 46.926 16.373 46.512 16.373C45.9 16.373 45.612 15.887 45.612 15.185L45.612 4.997L44.676 4.997L44.676 15.329C44.676 16.517 45.234 17.219 46.368 17.219ZM77.202 4.997L77.202 17.003L76.248 17.003L76.248 15.617C75.636 16.517 74.52 17.219 73.224 17.219C70.92 17.219 69.354 15.455 69.354 12.665C69.354 9.911 70.92 8.093 73.224 8.093C74.466 8.093 75.564 8.723 76.248 9.713L76.248 4.997L77.202 4.997ZM19.602 12.647C19.602 15.185 17.982 17.219 15.408 17.219C12.87 17.219 11.25 15.185 11.25 12.647C11.25 10.109 12.87 8.093 15.408 8.093C17.982 8.093 19.602 10.109 19.602 12.647ZM41.76 10.919L41.76 17.003L40.824 17.003L40.824 11.117C40.824 9.443 39.978 8.939 38.718 8.939C37.602 8.939 36.45 9.641 35.892 10.433L35.892 17.003L34.956 17.003L34.956 8.309L35.892 8.309L35.892 9.623C36.522 8.867 37.764 8.093 39.024 8.093C40.788 8.093 41.76 8.957 41.76 10.919ZM57.15 12.647C57.15 15.185 55.53 17.219 52.956 17.219C50.418 17.219 48.798 15.185 48.798 12.647C48.798 10.109 50.418 8.093 52.956 8.093C55.53 8.093 57.15 10.109 57.15 12.647ZM66.924 17.003L66.924 8.309L65.97 8.309L65.97 9.713C65.268 8.723 64.188 8.093 62.946 8.093C60.642 8.093 59.076 9.911 59.076 12.665C59.076 15.455 60.642 17.219 62.946 17.219C64.242 17.219 65.358 16.517 65.97 15.617L65.97 17.003L66.924 17.003ZM30.366 17.003L33.192 8.309L32.184 8.309L29.88 15.689L27.432 8.309L26.622 8.309L24.174 15.689L21.87 8.309L20.862 8.309L23.688 17.003L24.588 17.003L27.036 9.569L29.466 17.003L30.366 17.003ZM1.962 12.665C1.962 14.771 3.078 16.373 5.004 16.373C6.228 16.373 7.362 15.653 7.866 14.825L7.866 10.523C7.362 9.677 6.228 8.939 5.004 8.939C3.078 8.939 1.962 10.559 1.962 12.665ZM12.24 12.647C12.24 14.591 13.392 16.373 15.408 16.373C17.46 16.373 18.594 14.591 18.594 12.647C18.594 10.721 17.46 8.939 15.408 8.939C13.392 8.939 12.24 10.721 12.24 12.647ZM49.788 12.647C49.788 14.591 50.94 16.373 52.956 16.373C55.008 16.373 56.142 14.591 56.142 12.647C56.142 10.721 55.008 8.939 52.956 8.939C50.94 8.939 49.788 10.721 49.788 12.647ZM63.108 16.373C61.182 16.373 60.066 14.771 60.066 12.665C60.066 10.559 61.182 8.939 63.108 8.939C64.332 8.939 65.466 9.695 65.97 10.523L65.97 14.825C65.466 15.653 64.332 16.373 63.108 16.373ZM70.344 12.665C70.344 14.771 71.46 16.373 73.386 16.373C74.61 16.373 75.744 15.653 76.248 14.825L76.248 10.523C75.744 9.677 74.61 8.939 73.386 8.939C71.46 8.939 70.344 10.559 70.344 12.665Z" />
    </g>
  </g>
</svg>