<?xml version="1.0" encoding="utf-8"?>
<svg width="159px" height="22px" viewBox="0 0 159 22" version="1.1" xmlns:xlink="http://www.w3.org/1999/xlink" xmlns="http://www.w3.org/2000/svg">
  <g id="logo_uppercase_black">
    <g id="W" fill="#FFFFFF">
      <path d="M13.95 17.003L17.388 4.997L13.302 4.997L11.772 12.341L9.954 4.997L7.218 4.997L5.4 12.341L3.852 4.997L-0.216 4.997L3.222 17.003L7.038 17.003L8.586 10.199L10.134 17.003L13.95 17.003Z" />
    </g>
    <g id="A" fill="#FFFFFF" transform="translate(17 0)">
      <path d="M13.104 17.003L8.676 4.997L4.104 4.997L-0.324 17.003L3.798 17.003L4.23 15.599L8.55 15.599L8.982 17.003L13.104 17.003ZM7.578 12.431L5.202 12.431L6.39 8.561L7.578 12.431Z" />
    </g>
    <g id="R" fill="#FFFFFF" transform="translate(30 0)">
      <path d="M11.718 17.003L9.54 12.755C10.494 12.287 11.7 11.189 11.7 9.119C11.7 6.869 10.188 4.997 7.38 4.997L0.972 4.997L0.972 17.003L4.608 17.003L4.608 13.223L5.922 13.223L7.578 17.003L11.718 17.003ZM6.822 10.055L4.608 10.055L4.608 8.165L6.822 8.165C7.434 8.165 8.01 8.453 8.01 9.101C8.01 9.767 7.434 10.055 6.822 10.055Z" />
    </g>
    <g id="P" fill="#FFFFFF" transform="translate(42 0)">
      <path d="M4.608 17.003L4.608 13.223L7.38 13.223C10.188 13.223 11.7 11.351 11.7 9.119C11.7 6.869 10.188 4.997 7.38 4.997L0.972 4.997L0.972 17.003L4.608 17.003ZM6.912 10.055L4.608 10.055L4.608 8.165L6.912 8.165C7.524 8.165 8.01 8.471 8.01 9.119C8.01 9.749 7.524 10.055 6.912 10.055Z" />
    </g>
    <g id="DOWNLOAD" fill="#FFFFFF" transform="translate(58 0)">
      <path d="M25.164 11.009C25.164 14.519 22.842 17.219 19.332 17.219C15.804 17.219 13.5 14.519 13.5 11.009C13.5 7.499 15.804 4.799 19.332 4.799C22.842 4.799 25.164 7.499 25.164 11.009ZM75.816 11.009C75.816 14.519 73.494 17.219 69.984 17.219C66.456 17.219 64.152 14.519 64.152 11.009C64.152 7.499 66.456 4.799 69.984 4.799C73.494 4.799 75.816 7.499 75.816 11.009ZM11.394 11.009C11.394 14.339 9.054 17.003 5.328 17.003L1.494 17.003L1.494 4.997L5.328 4.997C9.054 4.997 11.394 7.715 11.394 11.009ZM38.052 17.003L41.472 4.997L40.32 4.997L37.422 15.563L34.488 4.997L33.552 4.997L30.6 15.563L27.702 4.997L26.55 4.997L29.988 17.003L31.14 17.003L34.02 6.689L36.9 17.003L38.052 17.003ZM52.902 4.997L52.902 17.003L51.894 17.003L44.334 6.689L44.334 17.003L43.308 17.003L43.308 4.997L44.352 4.997L51.876 15.167L51.876 4.997L52.902 4.997ZM62.496 17.003L62.496 16.067L56.682 16.067L56.682 4.997L55.638 4.997L55.638 17.003L62.496 17.003ZM88.236 17.003L83.322 4.997L82.044 4.997L77.13 17.003L78.318 17.003L79.506 14.051L85.86 14.051L87.048 17.003L88.236 17.003ZM99.9 11.009C99.9 14.339 97.56 17.003 93.834 17.003L90 17.003L90 4.997L93.834 4.997C97.56 4.997 99.9 7.715 99.9 11.009ZM14.58 11.009C14.58 14.033 16.434 16.283 19.332 16.283C22.212 16.283 24.084 14.033 24.084 11.009C24.084 7.967 22.212 5.735 19.332 5.735C16.434 5.735 14.58 7.967 14.58 11.009ZM65.232 11.009C65.232 14.033 67.086 16.283 69.984 16.283C72.864 16.283 74.736 14.033 74.736 11.009C74.736 7.967 72.864 5.735 69.984 5.735C67.086 5.735 65.232 7.967 65.232 11.009ZM2.52 16.067L5.328 16.067C8.496 16.067 10.314 13.817 10.314 11.009C10.314 8.201 8.514 5.933 5.328 5.933L2.52 5.933L2.52 16.067ZM91.026 16.067L93.834 16.067C97.002 16.067 98.82 13.817 98.82 11.009C98.82 8.201 97.02 5.933 93.834 5.933L91.026 5.933L91.026 16.067ZM85.518 13.115L79.848 13.115L82.692 6.095L85.518 13.115Z" />
    </g>
  </g>
</svg>