<?xml version="1.0" encoding="utf-8"?>
<svg width="30px" height="30px" viewBox="0 0 30 30" version="1.1" xmlns:xlink="http://www.w3.org/1999/xlink" xmlns="http://www.w3.org/2000/svg">
  <defs>
    <linearGradient gradientUnits="userSpaceOnUse" x1="14.0625" y1="19.453125" x2="14.0625" y2="-0.8690628" id="gradient_1">
      <stop offset="0%" stop-color="#006DF0" />
      <stop offset="100%" stop-color="#00E7F0" />
    </linearGradient>
    <linearGradient gradientUnits="userSpaceOnUse" x1="0.46875" y1="-7.03125" x2="0.46875" y2="-2.7440624" id="gradient_2">
      <stop offset="0%" stop-color="#006DF0" />
      <stop offset="100%" stop-color="#00E7F0" />
    </linearGradient>
    <linearGradient gradientUnits="userSpaceOnUse" x1="0.46875" y1="-22.03125" x2="0.46875" y2="-17.744062" id="gradient_3">
      <stop offset="0%" stop-color="#006DF0" />
      <stop offset="100%" stop-color="#00E7F0" />
    </linearGradient>
    <linearGradient gradientUnits="userSpaceOnUse" x1="12.1875" y1="15.703125" x2="12.1875" y2="-4.6190624" id="gradient_4">
      <stop offset="0%" stop-color="#006DF0" />
      <stop offset="100%" stop-color="#00E7F0" />
    </linearGradient>
    <linearGradient gradientUnits="userSpaceOnUse" x1="12.1875" y1="4.453125" x2="12.1875" y2="-15.869062" id="gradient_5">
      <stop offset="0%" stop-color="#006DF0" />
      <stop offset="100%" stop-color="#00E7F0" />
    </linearGradient>
    <linearGradient gradientUnits="userSpaceOnUse" x1="3.0470057" y1="-10.780994" x2="3.0470057" y2="-6.4938073" id="gradient_6">
      <stop offset="0%" stop-color="#006DF0" />
      <stop offset="100%" stop-color="#00E7F0" />
    </linearGradient>
    <linearGradient gradientUnits="userSpaceOnUse" x1="2.3437479" y1="-10.78125" x2="2.3437479" y2="-6.4940624" id="gradient_7">
      <stop offset="0%" stop-color="#006DF0" />
      <stop offset="100%" stop-color="#00E7F0" />
    </linearGradient>
    <path d="M0 0L30 0L30 30L0 30L0 0Z" id="path_1" />
    <clipPath id="mask_1">
      <use xlink:href="#path_1" />
    </clipPath>
  </defs>
  <g id="4k">
    <path d="M0 0L30 0L30 30L0 30L0 0Z" id="Background" fill="#FFFFFF" fill-opacity="0" fill-rule="evenodd" stroke="none" />
    <g clip-path="url(#mask_1)">
      <path d="M28.5938 24.8438L1.40625 24.8438C1.14737 24.8438 0.9375 24.6339 0.9375 24.375L0.9375 5.625C0.9375 5.36612 1.14737 5.15625 1.40625 5.15625L28.5938 5.15625C28.8526 5.15625 29.0625 5.36612 29.0625 5.625L29.0625 24.375C29.0625 24.6339 28.8526 24.8438 28.5938 24.8438L28.5938 24.8438ZM1.875 23.9063L28.125 23.9063L28.125 6.09375L1.875 6.09375L1.875 23.9063Z" id="Shape" fill="url(#gradient_1)" fill-rule="evenodd" stroke="none" />
      <path d="M4.21875 7.03125L5.15625 7.03125L5.15625 7.96875L4.21875 7.96875L4.21875 7.03125Z" id="Shape" fill="url(#gradient_2)" stroke="none" />
      <path d="M2.34375 7.03125L3.28125 7.03125L3.28125 7.96875L2.34375 7.96875L2.34375 7.03125Z" id="Shape" fill="url(#gradient_2)" stroke="none" />
      <path d="M6.09375 7.03125L7.03125 7.03125L7.03125 7.96875L6.09375 7.96875L6.09375 7.03125Z" id="Shape" fill="url(#gradient_2)" stroke="none" />
      <path d="M7.96875 7.03125L8.90625 7.03125L8.90625 7.96875L7.96875 7.96875L7.96875 7.03125Z" id="Shape" fill="url(#gradient_2)" stroke="none" />
      <path d="M9.84375 7.03125L10.7813 7.03125L10.7813 7.96875L9.84375 7.96875L9.84375 7.03125Z" id="Shape" fill="url(#gradient_2)" stroke="none" />
      <path d="M11.7188 7.03125L12.6563 7.03125L12.6563 7.96875L11.7188 7.96875L11.7188 7.03125Z" id="Shape" fill="url(#gradient_2)" stroke="none" />
      <path d="M13.5938 7.03125L14.5313 7.03125L14.5313 7.96875L13.5938 7.96875L13.5938 7.03125Z" id="Shape" fill="url(#gradient_2)" stroke="none" />
      <path d="M15.4688 7.03125L16.4063 7.03125L16.4063 7.96875L15.4688 7.96875L15.4688 7.03125Z" id="Shape" fill="url(#gradient_2)" stroke="none" />
      <path d="M17.3438 7.03125L18.2813 7.03125L18.2813 7.96875L17.3438 7.96875L17.3438 7.03125Z" id="Shape" fill="url(#gradient_2)" stroke="none" />
      <path d="M19.2188 7.03125L20.1563 7.03125L20.1563 7.96875L19.2188 7.96875L19.2188 7.03125Z" id="Shape" fill="url(#gradient_2)" stroke="none" />
      <path d="M21.0938 7.03125L22.0313 7.03125L22.0313 7.96875L21.0938 7.96875L21.0938 7.03125Z" id="Shape" fill="url(#gradient_2)" stroke="none" />
      <path d="M22.9688 7.03125L23.9063 7.03125L23.9063 7.96875L22.9688 7.96875L22.9688 7.03125Z" id="Shape" fill="url(#gradient_2)" stroke="none" />
      <path d="M24.8438 7.03125L25.7813 7.03125L25.7813 7.96875L24.8438 7.96875L24.8438 7.03125Z" id="Shape" fill="url(#gradient_2)" stroke="none" />
      <path d="M26.7188 7.03125L27.6563 7.03125L27.6563 7.96875L26.7188 7.96875L26.7188 7.03125Z" id="Shape" fill="url(#gradient_2)" stroke="none" />
      <path d="M4.21875 22.0313L5.15625 22.0313L5.15625 22.9688L4.21875 22.9688L4.21875 22.0313Z" id="Shape" fill="url(#gradient_3)" stroke="none" />
      <path d="M2.34375 22.0313L3.28125 22.0313L3.28125 22.9688L2.34375 22.9688L2.34375 22.0313Z" id="Shape" fill="url(#gradient_3)" stroke="none" />
      <path d="M6.09375 22.0313L7.03125 22.0313L7.03125 22.9688L6.09375 22.9688L6.09375 22.0313Z" id="Shape" fill="url(#gradient_3)" stroke="none" />
      <path d="M7.96875 22.0313L8.90625 22.0313L8.90625 22.9688L7.96875 22.9688L7.96875 22.0313Z" id="Shape" fill="url(#gradient_3)" stroke="none" />
      <path d="M9.84375 22.0313L10.7813 22.0313L10.7813 22.9688L9.84375 22.9688L9.84375 22.0313Z" id="Shape" fill="url(#gradient_3)" stroke="none" />
      <path d="M11.7188 22.0313L12.6563 22.0313L12.6563 22.9688L11.7188 22.9688L11.7188 22.0313Z" id="Shape" fill="url(#gradient_3)" stroke="none" />
      <path d="M13.5938 22.0313L14.5313 22.0313L14.5313 22.9688L13.5938 22.9688L13.5938 22.0313Z" id="Shape" fill="url(#gradient_3)" stroke="none" />
      <path d="M15.4688 22.0313L16.4063 22.0313L16.4063 22.9688L15.4688 22.9688L15.4688 22.0313Z" id="Shape" fill="url(#gradient_3)" stroke="none" />
      <path d="M17.3438 22.0313L18.2813 22.0313L18.2813 22.9688L17.3438 22.9688L17.3438 22.0313Z" id="Shape" fill="url(#gradient_3)" stroke="none" />
      <path d="M19.2188 22.0313L20.1563 22.0313L20.1563 22.9688L19.2188 22.9688L19.2188 22.0313Z" id="Shape" fill="url(#gradient_3)" stroke="none" />
      <path d="M21.0938 22.0313L22.0313 22.0313L22.0313 22.9688L21.0938 22.9688L21.0938 22.0313Z" id="Shape" fill="url(#gradient_3)" stroke="none" />
      <path d="M22.9688 22.0313L23.9063 22.0313L23.9063 22.9688L22.9688 22.9688L22.9688 22.0313Z" id="Shape" fill="url(#gradient_3)" stroke="none" />
      <path d="M24.8438 22.0313L25.7813 22.0313L25.7813 22.9688L24.8438 22.9688L24.8438 22.0313Z" id="Shape" fill="url(#gradient_3)" stroke="none" />
      <path d="M26.7188 22.0313L27.6563 22.0313L27.6563 22.9688L26.7188 22.9688L26.7188 22.0313Z" id="Shape" fill="url(#gradient_3)" stroke="none" />
      <path d="M26.7188 9.84375L3.28125 9.84375C3.11378 9.84375 2.95903 9.75441 2.8753 9.60938C2.79157 9.46434 2.79157 9.28566 2.8753 9.14063C2.95903 8.99559 3.11378 8.90625 3.28125 8.90625L26.7188 8.90625C26.8862 8.90625 27.041 8.99559 27.1247 9.14063C27.2084 9.28566 27.2084 9.46434 27.1247 9.60938C27.041 9.75441 26.8862 9.84375 26.7188 9.84375L26.7188 9.84375Z" id="Shape" fill="url(#gradient_4)" stroke="none" />
      <path d="M26.7188 21.0938L3.28125 21.0938C3.11378 21.0938 2.95903 21.0044 2.8753 20.8594C2.79157 20.7143 2.79157 20.5357 2.8753 20.3906C2.95903 20.2456 3.11378 20.1563 3.28125 20.1563L26.7188 20.1563C26.8862 20.1563 27.041 20.2456 27.1247 20.3906C27.2084 20.5357 27.2084 20.7143 27.1247 20.8594C27.041 21.0044 26.8862 21.0938 26.7188 21.0938L26.7188 21.0938Z" id="Shape" fill="url(#gradient_5)" stroke="none" />
      <path d="M14.5313 16.875L13.5938 16.875L13.5938 11.25C13.5939 11.0402 13.4545 10.8559 13.2526 10.7987C13.0507 10.7416 12.8355 10.8256 12.7256 11.0044L8.97563 17.0981C8.88663 17.2428 8.88284 17.4242 8.96572 17.5725C9.04859 17.7207 9.20517 17.8125 9.375 17.8125L12.6563 17.8125L12.6563 18.75C12.6563 19.0089 12.8661 19.2187 13.125 19.2187C13.3839 19.2187 13.5937 19.0089 13.5938 18.75L13.5938 17.8125L14.5313 17.8125C14.7901 17.8125 15 17.6026 15 17.3438C15 17.0849 14.7901 16.875 14.5313 16.875L14.5313 16.875ZM12.6563 16.875L10.2141 16.875L12.6563 12.9061L12.6563 16.875Z" id="Shape" fill="url(#gradient_6)" fill-rule="evenodd" stroke="none" />
      <path d="M20.0381 18.4387L16.6027 14.5739L19.8342 11.7656C20.0299 11.5957 20.0508 11.2992 19.8809 11.1035C19.7109 10.9078 19.4145 10.8869 19.2188 11.0569L16.4063 13.5023L16.4063 11.25C16.4063 10.9911 16.1964 10.7813 15.9375 10.7813C15.6786 10.7812 15.4688 10.9911 15.4688 11.25L15.4688 18.75C15.4688 19.0089 15.6786 19.2188 15.9375 19.2188C16.1964 19.2188 16.4063 19.0089 16.4063 18.75L16.4063 15.7641L19.3369 19.0613C19.5088 19.2554 19.8055 19.2735 19.9997 19.1016C20.1939 18.9297 20.2119 18.6329 20.04 18.4388L20.0381 18.4387Z" id="Shape" fill="url(#gradient_7)" stroke="none" />
    </g>
  </g>
</svg>