<?xml version="1.0" encoding="utf-8"?>
<svg width="100px" height="100px" viewBox="0 0 100 100" version="1.1" xmlns:xlink="http://www.w3.org/1999/xlink" xmlns="http://www.w3.org/2000/svg">
  <defs>
    <path d="M0 0L100 0L100 100L0 100L0 0Z" id="path_1" />
    <clipPath id="mask_1">
      <use xlink:href="#path_1" />
    </clipPath>
  </defs>
  <g id="Asset-6">
    <path d="M0 0L100 0L100 100L0 100L0 0Z" id="Background" fill="#FFFFFF" fill-opacity="0" fill-rule="evenodd" stroke="none" />
    <g clip-path="url(#mask_1)">
      <g id="Layer_2" transform="translate(-0.0002923009 -0.00020136416)">
        <g id="Layer_1-2">
          <path d="M57.3971 46.0583C57.0986 46.0583 56.8575 46.2824 56.8575 46.5562C56.8575 46.8301 57.0986 47.0583 57.3971 47.0583C57.6956 47.0583 57.9367 46.8334 57.9367 46.5562C57.9367 46.2791 57.6946 46.0583 57.3971 46.0583L57.3971 46.0583Z" id="Shape" fill="#FFFFFF" fill-rule="evenodd" stroke="none" />
          <path d="M98.6359 69.2704C98.372 69.0477 98.0836 68.8445 97.7742 68.6632C97.4658 68.4878 97.1422 68.3303 96.8058 68.1919C96.1429 67.9266 95.4474 67.7174 94.7305 67.5674C94.0248 67.4029 93.3098 67.3305 92.5947 67.2318C91.8811 67.1415 91.162 67.0811 90.4405 67.0508C90.0814 67.0335 89.7224 67.0212 89.3664 67.0121C89.0105 67.0031 88.6483 67.0121 88.2944 67.0121C87.5763 67.0121 86.8665 67.0064 86.1504 67.0187C85.4344 67.031 84.7245 67.0697 84.0136 67.1076C82.6547 67.1838 81.2985 67.2765 79.9451 67.3856C77.906 64.5577 75.0785 62.1466 71.684 60.341C71.7589 60.1427 71.8256 59.942 71.8789 59.7379C71.9915 59.3016 72.0427 58.8565 72.0318 58.4109C72.0318 57.9996 72.0041 57.5883 71.9651 57.1769C73.5428 56.7656 75.7012 55.5595 77.2995 54.569C78.5202 53.8146 79.4076 52.9236 79.9369 51.9092C80.9268 50.0171 80.6663 47.8723 80.2549 45.4668C79.8989 43.3854 79.5368 41.2711 79.1778 39.1593C78.8413 37.1848 78.5038 35.2046 78.1694 33.2524C78.1098 32.8341 77.8369 32.4543 77.4154 32.2034C75.4119 31.0764 73.7665 30.6469 71.7025 30.7333C71.9015 30.2512 72.0707 29.7625 72.2103 29.2673C72.825 27.0464 72.7065 24.7353 71.8666 22.5624C71.4456 21.479 70.8231 20.4528 70.0201 19.5184C69.2117 18.5819 68.2227 17.7543 67.0903 17.0668C65.9657 16.384 64.7401 15.8153 63.4414 15.3737L63.2516 15.3104L63.2516 15.3104L63.2393 15.3104C62.009 14.8893 60.7181 14.5925 59.3965 14.4268C56.6031 14.0813 53.7205 14.3536 51.0718 15.1055C50.8789 15.1604 50.6868 15.2177 50.4953 15.2775L50.4953 15.2775C49.3697 15.6213 48.293 16.0604 47.2834 16.5872C46.094 17.207 45.0273 17.9663 44.1186 18.8397C43.214 19.7154 42.487 20.6999 41.9644 21.757C41.505 22.6927 41.1895 23.6699 41.0247 24.6668C40.0163 26.9999 39.9814 29.8037 40.9549 32.0159C42.0136 34.4198 44.3638 36.6665 45.879 37.2128C45.8164 37.2375 45.7549 37.263 45.6943 37.2909C44.3854 37.2087 43.2508 37.8668 42.0505 38.5636C40.5036 39.4628 38.9033 40.3883 36.7223 39.898C33.2345 33.0286 29.4306 25.6335 26.3808 19.7422C23.6859 14.5387 21.2198 9.81402 19.4349 6.43772C17.0662 1.95737 16.5625 1.06146 16.3573 0.855793L16.3635 0.855793C15.5931 0.150753 14.5898 -0.124847 13.4686 0.0520306C11.1317 0.421417 8.68609 2.67475 7.86747 4.54801C6.80982 6.96836 7.61819 9.98926 9.92633 12.2442C10.3592 12.6679 10.8383 13.0669 11.301 13.4487C11.8046 13.8674 12.3268 14.3001 12.7782 14.7592C13.4716 15.4634 14.2749 16.5461 14.1672 17.7077C14.0369 19.0948 12.6807 20.1256 11.8826 20.6167C11.1296 21.0807 10.2741 21.4641 9.44829 21.8335C8.94255 22.0605 8.42245 22.2942 7.91773 22.5476C4.29308 24.3932 1.6656 27.2638 0.556298 30.5901C-0.572127 34.0282 -0.0530514 39.5854 2.7516 42.5685C3.88002 43.7688 5.25978 44.821 6.5944 45.8386C8.25113 47.1031 9.96429 48.4095 11.1573 49.9842C11.5238 50.4722 11.8408 50.9831 12.1052 51.5119C11.7769 51.7398 11.4446 51.9734 11.1225 52.2104C9.11899 53.6838 7.73718 55.1416 6.90318 56.6677C5.87733 58.5376 5.71935 60.5688 6.46309 62.2405C6.74417 62.8715 7.42225 63.9838 8.79893 64.3335C9.07191 64.403 9.35676 64.438 9.6432 64.4371C11.0486 64.4371 12.3453 63.5889 13.0541 62.6618C14.4903 60.7762 14.4041 58.4611 14.1261 56.4455C13.9302 55.0272 13.605 53.3144 12.8274 51.6534C13.5845 51.1293 14.3662 50.5839 15.0771 49.9949C16.4107 48.8785 17.2252 47.7843 17.5668 46.6474C17.815 45.8197 17.5863 44.524 17.1 43.4241L17.7237 43.9473C17.9247 44.1169 18.2035 44.2129 18.4952 44.213C18.8406 44.213 19.1648 44.0794 19.3661 43.8543C21.021 44.4537 22.8159 44.7644 24.6318 44.7659C25.058 44.7652 25.484 44.7469 25.9079 44.7107C25.9584 45.0449 26.1086 45.3644 26.3459 45.642C26.826 46.1784 27.539 46.1858 28.2284 46.1932C28.5131 46.1909 28.7977 46.2055 29.0798 46.2368C30.516 46.4285 32.0814 46.6844 33.5935 46.932C34.2357 47.0373 34.8881 47.1434 35.5354 47.2454L35.5457 47.2537L35.5518 47.2479C36.3725 47.3779 37.187 47.5013 37.9656 47.6074C38.694 49.1343 39.3803 50.5798 40.0173 51.915L40.0173 51.915L40.0255 51.9331C40.0568 51.9941 40.0942 52.053 40.1373 52.1092C39.8383 52.0903 39.5425 52.1689 39.3167 52.3272C39.246 52.378 39.1836 52.4358 39.131 52.4991C39.0835 52.5548 39.0397 52.6125 38.9997 52.6719C38.9206 52.7895 38.8556 52.9129 38.8058 53.0404C38.7475 53.1914 38.7073 53.3465 38.6858 53.5036C37.1562 53.0215 35.4964 53.0511 33.8869 53.0808C33.5032 53.0873 33.1062 53.0947 32.7185 53.0947C30.6914 53.0947 28.1596 53.9281 27.3923 55.7594C27.0917 56.476 27.1133 57.2287 27.1338 57.9568C27.143 58.2818 27.1522 58.615 27.1338 58.9399C27.0938 59.58 26.9286 60.2332 26.7706 60.8642C26.5429 61.7691 26.3059 62.7136 26.4188 63.6663C26.4824 64.2709 26.4944 64.8784 26.4547 65.4844C26.4167 66.3351 26.389 67.036 26.8907 67.8167C26.4307 67.8061 25.9709 67.8421 25.5222 67.9237C24.8595 68.0462 24.2282 68.2596 23.6562 68.5547C23.3639 68.7031 23.0937 68.8778 22.8509 69.0754C22.1532 69.6778 21.6725 70.4208 21.4599 71.2251C21.3868 71.4909 21.3459 71.7617 21.3378 72.0338C21.3344 72.2725 21.3609 72.5109 21.4168 72.7454C21.311 72.8627 21.2232 72.9898 21.1552 73.1239C21.0608 73.3027 21.0163 73.4958 21.0249 73.6899C21.0348 73.9063 21.141 74.1126 21.3244 74.2715C21.4789 74.4046 21.6565 74.519 21.8517 74.6113C22.2185 74.7734 22.607 74.9014 23.0099 74.993L24.1383 75.2875L28.652 76.4631L28.9495 76.5405C26.3593 77.257 23.7895 78.0419 21.305 78.9995C20.6597 79.2463 20.0206 79.5112 19.3928 79.7901C18.7574 80.0648 18.141 80.3669 17.5463 80.6951C17.2478 80.8596 16.941 81.0184 16.6507 81.1928C16.3604 81.3672 16.0773 81.558 15.8044 81.758C15.5289 81.9586 15.2682 82.1721 15.0237 82.3972C14.7737 82.6259 14.5483 82.8711 14.3498 83.1302C14.2473 83.2631 14.1542 83.4004 14.0707 83.5415C13.9874 83.681 13.9131 83.8238 13.8481 83.9693C13.7143 84.2678 13.6292 84.5789 13.5947 84.8949C13.5605 85.2121 13.5788 85.5316 13.6491 85.8451C13.7229 86.159 13.8496 86.4634 14.0256 86.75C14.7262 87.9117 16.0988 88.6422 17.4519 89.0988C18.1299 89.3268 18.8311 89.5076 19.5477 89.6393C20.2576 89.7668 20.9664 89.9075 21.6804 89.9881C22.3944 90.0687 23.1094 90.1461 23.8224 90.202L25.9674 90.3172C26.6855 90.3624 27.4036 90.3797 28.1124 90.3921C28.8213 90.4044 29.5425 90.4044 30.2564 90.3986C30.9704 90.3929 31.6834 90.3814 32.3964 90.36L33.8274 90.2966C37.1199 94.2164 41.8907 97.1879 47.4413 98.776C54.2884 100.707 61.8167 100.342 68.3244 97.765C70.4677 96.9191 72.4633 95.8512 74.2599 94.5886C75.1836 93.9362 76.0524 93.2354 76.8604 92.4907L76.9804 92.4397L76.9548 92.4019C77.6766 91.7316 78.3467 91.0266 78.9613 90.2909C80.6763 88.2386 81.9355 85.9637 82.6831 83.567L82.7169 83.5506L82.6964 83.5218C82.838 83.0677 82.9614 82.6103 83.0667 82.1496C83.529 82.0042 83.991 81.8561 84.4526 81.7053C85.7739 81.277 87.0826 80.8209 88.3785 80.3372C89.0269 80.0953 89.6704 79.846 90.3092 79.5894C90.9462 79.3261 91.574 79.0472 92.206 78.7765C92.5209 78.6383 92.8389 78.5075 93.1497 78.3652C93.4606 78.2229 93.7652 78.0715 94.073 77.9193C94.6914 77.6178 95.29 77.2907 95.8661 76.9395C97.0356 76.255 98.1599 75.4734 99.0011 74.4533C99.2117 74.1966 99.3943 73.9257 99.5469 73.6438C99.7015 73.3586 99.8191 73.0614 99.8977 72.7569C100.056 72.135 100.023 71.4915 99.8013 70.882C99.5716 70.2804 99.173 69.7291 98.6359 69.2704L98.6359 69.2704ZM82.4779 72.1753L82.5415 72.1753L83.2596 72.149C83.7356 72.1292 84.2044 72.1037 84.6681 72.0947C85.1317 72.0856 85.5913 72.0889 86.0632 72.1054C86.5351 72.1218 86.9988 72.1613 87.4655 72.1876C87.9323 72.214 88.4062 72.2411 88.8627 72.2806C89.0824 72.3006 89.3003 72.3317 89.5152 72.3736C89.694 72.4038 89.8646 72.4595 90.0189 72.5381C90.0298 72.5442 90.0398 72.5514 90.0486 72.5595C90.04 72.5792 90.0279 72.5977 90.0127 72.6146C89.9004 72.7344 89.7637 72.8381 89.6085 72.9215C89.4326 73.0233 89.2482 73.1154 89.0566 73.1971C88.8658 73.2793 88.637 73.3559 88.4298 73.4357C87.5784 73.7499 86.7382 74.0798 85.8652 74.3595C84.9922 74.6392 84.1367 74.914 83.2606 75.1715C83.0876 74.1593 82.826 73.1581 82.4779 72.1753L82.4779 72.1753ZM74.8138 63.1109C73.9412 63.4696 73.06 63.8146 72.1702 64.1459C71.1865 64.507 70.1904 64.8476 69.1789 65.1594C67.141 65.7836 65.0599 66.3129 62.9459 66.7448C65.1501 66.6188 67.3289 66.2901 69.4395 65.7649C70.4994 65.5053 71.5408 65.1994 72.559 64.8485C73.563 64.5049 74.5391 64.1111 75.4817 63.6695C75.7022 63.8612 75.9197 64.0546 76.131 64.2528C77.6172 65.6464 78.865 67.1927 79.8415 68.8508C80.0744 69.2482 80.2908 69.6521 80.4919 70.0594L78.9531 70.6212L77.2297 71.2235L75.4909 71.7993L73.747 72.3547L71.9856 72.8828L70.2027 73.3838L68.4157 73.8536L66.6205 74.3036C64.2179 74.8795 61.7898 75.3945 59.337 75.8247C56.8842 76.255 54.4222 76.6474 51.9509 77.1131C54.4899 77.1015 57.0104 76.8449 59.5001 76.4706C61.9898 76.0962 64.4611 75.6363 66.9015 75.0835L68.7265 74.6557L70.5381 74.1892L72.3364 73.6956L74.1224 73.1699L75.893 72.613L77.6441 72.0165L79.3788 71.3905L80.8437 70.8244C81.3088 71.8781 81.6687 72.9598 81.9198 74.0592C82.0224 74.5323 82.1127 75.0086 82.1794 75.4858C80.7545 75.8897 79.3173 76.2682 77.8708 76.6326C76.9712 76.863 76.0664 77.076 75.1647 77.299L72.4483 77.9415C70.6264 78.3413 68.8076 78.7518 66.9816 79.141C63.3224 79.8995 59.655 80.6333 55.9671 81.2948C54.1206 81.6165 52.2792 81.9579 50.4276 82.2376L47.6475 82.6769C46.7243 82.8242 45.7908 82.9541 44.8614 83.0882C43.0018 83.3488 41.1376 83.5879 39.2685 83.8056C37.4004 84.0253 35.5303 84.2244 33.6551 84.3815C32.9185 84.444 32.1813 84.4989 31.4433 84.546C30.7766 83.0481 30.3345 81.4919 30.1262 79.9102C30.6001 79.9143 31.0751 79.9102 31.548 79.8905C32.1748 79.8625 32.8005 79.8304 33.4232 79.7662C34.0459 79.7021 34.6645 79.6321 35.28 79.5441C35.8993 79.4613 36.5062 79.3267 37.0906 79.1426C36.4576 79.1188 35.8401 79.1426 35.2246 79.1665C34.6091 79.1904 33.9936 79.2076 33.3781 79.2076C32.7626 79.2076 32.1522 79.2076 31.5408 79.1838C31.0381 79.1673 30.5372 79.1462 30.0379 79.1204C29.9716 78.3538 29.9565 77.5848 29.9928 76.8169L33.1657 77.6396C33.5412 77.7367 33.9218 77.8403 34.3239 77.9193C34.739 78.0068 35.1683 78.0431 35.597 78.0271C36.0477 78.0061 36.4833 77.8891 36.8588 77.6881C37.1519 77.5317 37.3917 77.319 37.5563 77.0695L42.7009 78.8349L44.1648 79.3376C44.6645 79.5215 45.1844 79.6678 45.7179 79.7745C46.2883 79.8859 46.8854 79.8731 47.4475 79.7374C47.7395 79.6635 48.0102 79.5435 48.2435 79.3845C48.3664 79.3007 48.4729 79.2025 48.5595 79.0933C48.6368 78.9936 48.7054 78.8897 48.7647 78.7823C48.8547 78.6002 48.9678 78.426 49.1022 78.2624L49.3432 77.9909C49.4171 77.8954 49.492 77.8 49.5617 77.7021C49.826 77.3113 50.0326 76.8972 50.1772 76.4681C50.4532 75.6865 50.5876 74.9009 50.8953 74.1925C50.9343 74.1925 50.9743 74.1975 51.0133 74.1975C51.4986 74.2105 51.9676 74.0563 52.3018 73.7738C52.6618 73.4562 52.7531 73.0547 52.8403 72.6673L52.868 72.5488C52.8773 72.5167 52.8855 72.4846 52.8916 72.4525C52.9208 72.3296 52.9616 72.2086 53.0137 72.0906C53.2025 71.6883 53.5995 71.3707 54.019 71.035C54.1606 70.9223 54.3011 70.8096 54.4294 70.6928C55.1341 70.0791 55.4224 69.4218 55.2398 68.864C56.3108 67.8546 57.7254 66.1343 58.0711 65.3067C58.306 65.2886 58.5502 65.2754 58.7892 65.2598C59.8438 65.1956 60.9055 65.152 61.9693 65.1019C62.4996 65.0763 63.031 65.0517 63.5655 65.0196C63.8322 65.004 64.0989 64.985 64.3718 64.9603C64.6447 64.9357 64.9135 64.8937 65.1832 64.8526C66.2604 64.6944 67.3071 64.424 68.2967 64.048C68.8046 63.8502 69.277 63.5984 69.701 63.2993C69.9203 63.1413 70.1149 62.9626 70.2807 62.7671C70.3678 62.6609 70.4284 62.5721 70.4981 62.4767C70.5679 62.3812 70.6325 62.2874 70.6961 62.1912C70.994 61.7511 71.2545 61.2954 71.4758 60.8272C72.6652 61.5131 73.7817 62.277 74.8138 63.1109L74.8138 63.1109ZM29.6994 82.2104C29.8845 83.0194 30.1284 83.8191 30.4298 84.6053C29.6276 84.6522 28.8244 84.6925 28.0211 84.7205C27.0784 84.7534 26.148 84.7739 25.2103 84.755C24.2727 84.7361 23.3351 84.6999 22.3954 84.6489L22.0446 84.6283L21.8928 84.616L21.7563 84.5954C21.7239 84.5893 21.692 84.5813 21.6609 84.5715C21.6856 84.5346 21.714 84.4994 21.7461 84.4662C21.8099 84.4032 21.8784 84.3433 21.9512 84.2869C22.1111 84.164 22.28 84.0489 22.457 83.9422C22.8242 83.7199 23.2057 83.5132 23.5998 83.3227C23.9978 83.1351 24.4204 82.9599 24.8308 82.7772C25.2411 82.5946 25.6514 82.4128 26.07 82.2392C26.4885 82.0656 26.9112 81.8986 27.3338 81.7333C28.0365 81.4568 28.7495 81.1993 29.4686 80.9468C29.5271 81.3696 29.603 81.7917 29.6994 82.2104L29.6994 82.2104ZM33.7648 73.819C33.7644 73.8174 33.7644 73.8157 33.7648 73.8141C34.2399 73.7035 34.7441 73.7015 35.2205 73.8083C35.4864 73.8653 35.7442 73.9442 35.9899 74.0436C36.115 74.0922 36.2361 74.1456 36.3561 74.2032C36.4761 74.2608 36.5808 74.3225 36.6987 74.3933C37.6312 74.965 38.6027 75.5746 39.6521 76.0715C40.1774 76.3241 40.7211 76.5513 41.2801 76.7519C41.8461 76.9495 42.4288 77.1145 43.0241 77.2455C44.2294 77.4734 45.402 77.5384 46.5971 77.6873C46.0647 77.4405 45.4779 77.3006 44.9034 77.16C44.6162 77.0884 44.3248 77.0308 44.0366 76.9658C43.7483 76.9008 43.457 76.8498 43.1872 76.7815C42.6308 76.6419 42.0872 76.4715 41.5602 76.2715C41.037 76.0641 40.5231 75.8387 40.0214 75.5903C39.5198 75.3418 39.0407 75.0703 38.5627 74.7914C38.0846 74.5126 37.623 74.2156 37.1265 73.9268C36.6074 73.6167 36.0135 73.3968 35.3826 73.281C35.0089 73.2112 34.6233 73.1923 34.2418 73.225L34.2418 73.2144C34.1967 72.3439 34.6942 71.4916 35.4677 70.8911C35.6626 70.7429 35.8737 70.609 36.0986 70.4913C36.3267 70.3766 36.567 70.2783 36.8167 70.1976C37.3254 70.0409 37.8624 69.9514 38.4068 69.9327C39.5216 69.9018 40.6244 70.1254 41.5869 70.5777C42.5583 71.0375 43.4016 71.6397 44.3361 72.2642C43.9998 71.5763 43.447 70.9701 42.7317 70.5044C43.0092 70.5264 43.2825 70.5742 43.5462 70.6468C45.3271 71.2078 46.9691 72.0188 48.3954 73.0416L48.5923 73.1847C49.0427 73.5138 49.5074 73.8503 50.0931 74.0486C50.1619 74.0716 50.2326 74.093 50.3065 74.1111C49.9844 74.8638 49.8592 75.6298 49.6048 76.3414C49.47 76.7332 49.2789 77.1111 49.0355 77.4676L48.8406 77.7251L48.619 77.9719C48.4582 78.1622 48.3234 78.3657 48.2169 78.5791C48.1365 78.7463 48.0095 78.8966 47.8455 79.0184C47.673 79.136 47.4728 79.2244 47.2567 79.2784C46.7959 79.3875 46.3072 79.3961 45.841 79.3031C45.344 79.2023 44.8597 79.0646 44.3946 78.8917L42.9307 78.3899L37.0762 76.3801L35.6154 75.8782C35.1384 75.7137 34.6809 75.5294 34.3167 75.2801C34.2282 75.2183 34.1452 75.1515 34.0685 75.0802C34.0274 75.0457 33.9956 75.007 33.9597 74.9708C33.9296 74.9358 33.9019 74.8996 33.8766 74.8622C33.6708 74.5375 33.6304 74.1614 33.7638 73.8133L33.7648 73.819ZM46.8812 58.2464C47.1838 58.3628 47.5088 58.4371 47.8424 58.4661C48.5614 58.5184 49.2838 58.4012 49.9208 58.1288C50.0494 58.0681 50.1843 58.0163 50.3239 57.9741C50.4615 57.9355 50.6025 57.905 50.7456 57.8828C51.0536 57.8387 51.3646 57.8093 51.677 57.7947C52.3172 57.7569 52.9737 57.7536 53.6559 57.682C53.7882 57.6664 53.9195 57.6475 54.0508 57.631C54.3729 57.724 54.732 57.8852 54.9033 58.0424C54.178 58.6355 53.4507 59.2172 52.749 59.7807C52.0474 60.3442 51.3129 60.9267 50.5876 61.5223C48.9717 60.7071 47.1596 60.1745 45.2696 59.9592C45.6364 59.2969 46.1877 58.7109 46.8812 58.2464L46.8812 58.2464ZM45.0973 60.2653C47.0258 60.4717 48.8732 61.0185 50.5065 61.8662L50.644 61.9378L50.7589 61.844C51.5211 61.2179 52.2884 60.605 53.0301 60.0119C53.7718 59.4187 54.5412 58.805 55.3054 58.1773L55.408 58.095L55.3465 57.993C55.2439 57.8285 55.0182 57.6713 54.7494 57.5438C55.693 57.4073 56.626 57.2274 57.5438 57.005C58.1811 56.8498 58.8084 56.6692 59.4231 56.4636C59.577 56.4118 59.7309 56.3591 59.8827 56.3032L60.1084 56.2209L60.3218 56.1444C60.6121 56.0465 60.9127 55.9511 61.2174 55.8581C61.8257 55.6714 62.4484 55.4855 63.0546 55.2625C63.6609 55.0396 64.2744 54.7862 64.8129 54.3954C64.8891 54.3395 64.9614 54.2801 65.0294 54.2177L65.0406 54.2259C65.2458 54.0244 65.4736 53.8319 65.7054 53.6451C65.9372 53.4584 66.1865 53.284 66.4409 53.1128C66.6975 52.9431 66.9657 52.7849 67.2442 52.639C67.5232 52.4917 67.8073 52.3486 68.0864 52.1832C67.746 52.2317 67.4159 52.3183 67.1057 52.4407C66.7937 52.5604 66.4903 52.6938 66.1968 52.8405C66.0942 52.8932 65.9916 52.9516 65.889 53.0092L65.8952 53.0001C65.9978 52.8603 66.1003 52.7212 66.2122 52.583C66.4422 52.4654 66.6625 52.3359 66.8718 52.1955C67.1332 52.0209 67.3781 51.8309 67.6042 51.6271C67.8284 51.4241 68.0361 51.2097 68.2259 50.9854C68.4189 50.7633 68.5683 50.5189 68.6691 50.2606C68.4321 50.4547 68.2197 50.653 68.0023 50.8455C67.7865 51.0382 67.5556 51.2195 67.3108 51.3885C67.2083 51.4568 67.1057 51.5234 67.0031 51.5892C67.3334 51.1779 67.6576 50.7558 67.9571 50.3206C68.2802 49.8511 68.5521 49.3601 68.7696 48.853C68.9897 48.343 69.1239 47.8118 69.1686 47.2734C69.2127 46.7403 69.1433 46.205 68.9635 45.6906C68.9922 46.2093 68.9474 46.729 68.8301 47.2397C68.7025 47.7414 68.5128 48.2317 68.2638 48.7032C67.7766 49.6477 67.1036 50.5288 66.3866 51.3992C66.0285 51.8352 65.6582 52.2696 65.3125 52.7286C65.1354 52.9617 64.9754 53.2029 64.8335 53.451C64.7934 53.5217 64.7729 53.5554 64.7401 53.6048C64.7072 53.6516 64.6702 53.6964 64.6293 53.7389C64.544 53.8286 64.4478 53.9113 64.3421 53.9857C63.904 54.2983 63.3357 54.532 62.7571 54.7385C62.1786 54.945 61.5672 55.121 60.9527 55.3028C60.6449 55.395 60.3372 55.4846 60.0233 55.5932C59.9453 55.6196 59.8673 55.6475 59.7884 55.6755L59.5688 55.7578C59.4242 55.8113 59.2775 55.8623 59.1298 55.9124C58.982 55.9626 58.822 56.0161 58.6599 56.0646C58.6763 56.0507 58.6938 56.0367 58.7102 56.0219C58.9607 55.7999 59.1821 55.5578 59.3708 55.2995C59.5677 55.0434 59.6776 54.7504 59.6899 54.4497C59.5364 54.7058 59.35 54.9485 59.1339 55.1737C58.9216 55.3963 58.6809 55.6006 58.4158 55.7833C58.1541 55.9664 57.8753 56.133 57.5818 56.2818C57.4433 56.3509 57.3007 56.4159 57.1581 56.4751C55.9769 56.7556 54.7722 56.9681 53.5533 57.1111C52.9378 57.1843 52.2864 57.1975 51.6237 57.2435C51.3447 57.2625 51.0615 57.288 50.7733 57.3258C50.946 57.1188 51.0817 56.8934 51.1764 56.6561C51.3013 56.3463 51.3596 56.0216 51.3488 55.6961C51.3433 55.3741 51.2398 55.058 51.0472 54.7755C51.0895 55.079 51.0957 55.385 51.0656 55.6895C51.0337 55.9839 50.9397 56.2718 50.7876 56.541C50.6381 56.8046 50.4368 57.0474 50.1916 57.26C50.0093 57.4152 49.8056 57.5532 49.5843 57.6713C49.0698 57.8912 48.4886 57.9907 47.9071 57.9585C47.3931 57.9221 46.9083 57.7513 46.5273 57.4723C46.6584 57.4026 46.7832 57.3256 46.9007 57.2419C47.3875 56.8835 47.7627 56.4386 47.9963 55.9429C48.4629 54.9656 48.4843 53.8876 48.0568 52.8989C47.8445 52.4054 47.5173 51.9487 47.0926 51.553C46.8551 51.3343 46.5838 51.1407 46.2852 50.9771C46.4011 50.8422 46.6484 50.7303 46.9818 50.6366C47.1948 50.6683 47.405 50.7117 47.6106 50.7665C47.8453 50.8309 48.0731 50.9104 48.2918 51.0043C48.5139 51.098 48.7233 51.2099 48.9165 51.3383C49.1114 51.4675 49.2961 51.6049 49.4971 51.7496C49.4301 51.536 49.2999 51.3385 49.1176 51.1738C48.9387 51.009 48.7393 50.8594 48.5226 50.727C48.3466 50.6181 48.1588 50.522 47.9614 50.4399C48.5174 50.3527 49.1453 50.2861 49.7515 50.2268L49.7874 50.2268C49.9382 50.212 50.089 50.1972 50.2357 50.1841C51.7068 50.0442 53.2281 49.8994 54.1965 49.5555C54.4981 49.4478 54.8653 49.4733 55.2531 49.493C55.6634 49.5177 56.082 49.5415 56.4841 49.4247C56.9201 49.4173 57.3581 49.4165 57.79 49.4338C58.223 49.4384 58.653 49.4922 59.0672 49.5934C59.4849 49.7047 59.8787 49.867 60.2346 50.0746C59.9812 49.7571 59.6124 49.5095 59.178 49.3655C58.75 49.2125 58.2949 49.1142 57.829 49.0743C57.6474 49.057 57.4659 49.0446 57.2853 49.0331C57.4041 48.95 57.5149 48.8598 57.6166 48.7633L57.6166 48.7633C57.7875 48.713 57.9636 48.675 58.1429 48.6497C58.5175 48.5998 58.9007 48.6081 59.2713 48.6744C59.4611 48.709 59.6488 48.7518 59.8632 48.7847C59.7353 48.6448 59.5652 48.5333 59.3688 48.4605C59.1729 48.3825 58.9663 48.3232 58.7533 48.2837C58.5376 48.2442 58.3169 48.2257 58.0957 48.2285L58.067 48.2285C58.2925 47.8857 58.4723 47.5247 58.6035 47.1516C58.6978 46.9971 58.7542 46.8296 58.7697 46.658C58.8251 46.4721 58.8774 46.2862 58.9246 46.1027C59.1429 45.3077 59.5216 44.5465 60.0458 43.8494C60.4556 43.3989 60.9659 43.0131 61.5508 42.7116C61.9489 42.5041 62.3784 42.3382 62.8289 42.218C63.289 42.0968 63.7603 42.005 64.2384 41.9432C63.7432 41.8837 63.2382 41.9027 62.752 41.9992C62.2603 42.092 61.7855 42.2352 61.3394 42.4253L61.3302 42.4294C63.7768 40.1547 67.5591 38.5751 70.7751 38.8335C70.9803 39.2448 71.1547 39.671 71.3116 40.0971C71.3896 40.3184 71.4624 40.5397 71.525 40.7627C71.5876 40.9856 71.646 41.2184 71.7025 41.4463C71.8153 41.9048 71.9162 42.3642 72.0051 42.8243C72.1815 43.7457 72.3077 44.6718 72.3836 45.6025C72.4334 46.0581 72.4403 46.5159 72.4041 46.9723C72.3628 47.423 72.2625 47.8689 72.1046 48.3026C72.0254 48.5186 71.9305 48.7306 71.8204 48.9377C71.765 49.0405 71.7066 49.1425 71.643 49.2429L71.5968 49.3186L71.5435 49.4214L71.4922 49.5276C71.4788 49.5629 71.4727 49.5967 71.4634 49.6312C71.4037 49.8876 71.394 50.1499 71.4347 50.4087C71.4624 50.6555 71.5106 50.8916 71.5588 51.1252C71.5999 51.3276 71.644 51.5283 71.6809 51.7274C71.5184 52.1394 71.27 52.5263 70.9464 52.8718C70.7768 53.0478 70.5808 53.2065 70.3627 53.344C70.1348 53.4882 69.8762 53.598 69.5995 53.6681C69.9121 53.7124 70.2341 53.6794 70.5228 53.5735C70.8166 53.4683 71.0837 53.3205 71.3106 53.1375C71.4676 53.013 71.6104 52.8776 71.7374 52.7328L71.7219 52.787C71.7136 52.8333 71.6974 52.8784 71.6737 52.9211C71.6481 52.9639 71.6409 52.9927 71.5968 53.0585C71.4425 53.2869 71.3383 53.5348 71.289 53.7915C71.2624 53.9182 71.2511 54.0384 71.2337 54.1445C71.2269 54.2246 71.1944 54.302 71.1393 54.3691C71.0439 54.4801 70.769 54.569 70.5063 54.6307C69.9688 54.7664 69.3871 54.8536 68.8168 54.9951C69.413 55.0459 70.0147 55.0363 70.6079 54.9663C70.6838 54.954 70.7597 54.9466 70.8367 54.9301L70.9608 54.9005C71.1219 55.6453 71.2339 56.3964 71.2962 57.1506C71.3301 57.571 71.3486 57.9914 71.3434 58.4076C71.3464 58.8154 71.2962 59.2224 71.1937 59.6219C70.9885 60.4183 70.5782 61.19 70.0827 61.9254L69.8919 62.1953C69.8272 62.2833 69.7595 62.3812 69.7 62.4528C69.566 62.6099 69.409 62.7535 69.2322 62.8806C68.8557 63.1436 68.4368 63.365 67.9869 63.5387C67.7673 63.6276 67.5427 63.7099 67.3129 63.7855C67.3595 63.6974 67.4002 63.6073 67.435 63.5157C67.5496 63.2211 67.6127 62.9152 67.6227 62.6066C67.6307 62.302 67.5897 61.9979 67.5006 61.7017C67.4176 61.4073 67.2555 61.1311 67.0257 60.8922C67.1123 61.1717 67.1774 61.4552 67.2206 61.7412C67.2601 62.0198 67.2539 62.3013 67.2021 62.5787C67.1532 62.8519 67.0629 63.1193 66.9333 63.375C66.8158 63.6047 66.6657 63.8228 66.4861 64.0249C66.0143 64.1454 65.5349 64.2456 65.0499 64.3252C64.7975 64.3664 64.5318 64.4075 64.2887 64.4338C64.0456 64.4602 63.7758 64.4791 63.5101 64.4996C62.9839 64.5383 62.4545 64.572 61.9262 64.6049C60.8665 64.6724 59.8058 64.7325 58.7461 64.8139C58.4784 64.8369 58.2137 64.8608 57.9408 64.8962C57.7952 64.9176 57.6823 64.9389 57.5643 64.9529C57.4476 64.9669 57.3295 64.9727 57.2114 64.9702C57.0935 64.9702 56.9704 64.9496 56.8339 64.9365C56.6913 64.9199 56.5468 64.9158 56.4031 64.9241C56.1247 64.9533 55.8583 65.0332 55.6245 65.1578C55.8795 65.1177 56.1407 65.1091 56.399 65.1323C56.638 65.1561 56.8606 65.254 57.1581 65.3018C57.2445 65.3154 57.3319 65.3245 57.4197 65.3289C57.0309 66.0611 55.9168 67.4449 54.9433 68.3942C54.5452 67.9417 54.0593 67.5431 53.5041 67.2137C52.8868 66.8573 52.2117 66.5703 51.4975 66.3605C50.7957 66.1553 50.0782 65.9864 49.3494 65.8546C48.6252 65.723 47.9009 65.6078 47.1654 65.5255C47.8589 65.7419 48.5728 65.899 49.2755 66.0743C49.9783 66.2376 50.6674 66.4369 51.3385 66.6707C51.9989 66.8995 52.6196 67.196 53.185 67.5526C53.7342 67.9084 54.2041 68.3362 54.575 68.8179L54.5843 68.813L54.6253 68.8952C54.9105 69.4711 54.2765 70.1153 53.9903 70.3646C53.8631 70.4756 53.7277 70.5834 53.5933 70.6936C53.2547 70.9459 52.9525 71.2279 52.6926 71.5344C52.5384 71.2614 52.3344 71.0083 52.0874 70.7833C51.8313 70.5475 51.5382 70.3392 51.2154 70.1638C50.8983 69.9819 50.5242 69.8745 50.1352 69.8537C50.463 69.9872 50.7686 70.153 51.0451 70.3473C51.316 70.5362 51.5553 70.7525 51.7571 70.9906C51.958 71.2204 52.1173 71.4719 52.23 71.7376C52.3032 71.9109 52.3348 72.0938 52.3233 72.2765C52.2946 72.3793 52.271 72.4813 52.2474 72.5825C52.1715 72.919 52.0997 73.2357 51.8555 73.4521C51.476 73.7861 50.7907 73.7639 50.3168 73.6027C49.8244 73.4381 49.4171 73.1395 48.9832 72.8252L48.778 72.6804C47.2995 71.6197 45.5974 70.7784 43.7514 70.1959C43.3862 70.0807 42.9635 70.0404 42.5553 70.0009C41.6884 69.9187 41.3068 69.8463 41.2924 69.5246C41.2822 69.3033 41.2473 69.0935 41.2135 68.8903C41.1468 68.4888 41.0904 68.1392 41.234 67.7953C41.4638 67.6053 41.6443 67.4457 41.8792 67.3519C42.1453 67.2524 42.439 67.2099 42.7317 67.2285C43.3585 67.2606 43.9986 67.4432 44.6193 67.6398C45.2409 67.8545 45.8486 68.0942 46.4401 68.358C47.0413 68.6147 47.625 68.8969 48.2435 69.1404C47.982 68.9627 47.7081 68.7957 47.4352 68.6287C47.1623 68.4617 46.871 68.3161 46.5858 68.1622C46.0056 67.8621 45.4068 67.5859 44.7916 67.3346L44.3156 67.1594C44.1597 67.0977 43.9873 67.0582 43.8232 67.0072C43.6557 66.9573 43.4844 66.9161 43.3103 66.8838C43.1332 66.8456 42.9529 66.8181 42.7707 66.8015C42.5626 66.7857 42.3529 66.7896 42.1459 66.813C42.3477 66.5797 42.5218 66.3319 42.666 66.0726C43.2105 65.0817 43.6661 64.0609 44.0294 63.018C44.1145 62.7835 44.1956 62.5523 44.2756 62.3253C44.5331 61.5865 44.7741 60.8963 45.0993 60.2677L45.0973 60.2653ZM42.1511 50.6843C41.7141 49.8032 41.2535 48.8818 40.7754 47.9266C41.4196 48.0245 42.425 48.1553 43.2026 48.1553C43.3876 48.1571 43.5725 48.1469 43.7555 48.1249C43.8078 48.7773 43.8796 49.3515 43.9391 49.8122C43.9658 50.0228 43.989 50.2129 44.0089 50.3823C43.8645 50.3784 43.72 50.3806 43.576 50.3889C43.0833 50.4207 42.6012 50.5207 42.1511 50.6843L42.1511 50.6843ZM44.5362 49.7629C44.331 48.1348 43.9894 45.4709 44.7988 42.631C45.2479 43.2408 45.8163 43.7889 46.4822 44.2541C46.1436 46.2829 45.9508 48.3791 46.3488 50.342C46.1153 50.4326 45.9149 50.57 45.7672 50.741C45.681 50.7065 45.5938 50.6736 45.5045 50.644C45.219 50.5492 44.9215 50.4797 44.6172 50.4366C44.5967 50.2384 44.568 50.0138 44.5362 49.7629L44.5362 49.7629ZM48.2959 39.8182C49.0755 40.0576 49.9044 40.1333 50.6861 40.1909C52.0032 40.2869 53.2869 40.3351 54.5371 40.3357C56.6784 40.3429 58.8158 40.1859 60.9198 39.8668C59.2406 40.8441 57.8423 42.2986 56.9817 43.5211C54.2293 43.0588 50.8461 42.7083 48.6077 42.5537C47.5819 41.6224 46.7171 40.0938 46.5129 38.7438C46.9038 39.207 47.5255 39.5838 48.2959 39.8182L48.2959 39.8182ZM68.1551 35.5789C68.5247 35.8075 68.8527 36.0764 69.1297 36.3778C69.4705 36.7414 69.7741 37.1266 70.0375 37.5295C70.2099 37.7903 70.3678 38.0569 70.5156 38.3283C66.4779 38.1539 61.7015 40.6006 59.4601 43.7128C59.3842 43.7945 59.3124 43.8785 59.2447 43.9646C58.7471 43.8469 58.1911 43.7342 57.5961 43.6264C58.5891 42.2698 60.6829 40.1152 63.1552 39.4439C64.2836 39.1897 65.5679 38.8343 66.5671 38.1276C67.3026 37.606 68.4813 36.7693 68.1551 35.5797L68.1551 35.5789ZM58.4199 45.7284C58.1742 45.4728 57.7964 45.3213 57.394 45.3171C56.6329 45.3171 56.0143 45.8707 56.0143 46.5511C56.0143 47.2315 56.6298 47.7851 57.394 47.7851C57.4943 47.7849 57.5942 47.7749 57.6915 47.7555C57.391 48.2828 56.9734 48.7115 56.3579 48.9385C56.3139 48.9547 56.2683 48.9679 56.2215 48.978C55.8573 48.9714 55.4932 48.9714 55.1177 48.9936C54.7279 48.9731 54.3309 48.9706 53.9482 49.1064C53.6273 49.2128 53.2949 49.2954 52.9552 49.3532L53.1214 47.3203L52.2874 46.2804L52.4249 43.3788C54.7484 43.6371 57.2412 43.9925 59.0046 44.4031C58.7584 44.8295 58.5626 45.2735 58.4199 45.7292L58.4199 45.7284ZM58.0506 46.9624C57.9297 47.166 57.6781 47.299 57.3971 47.308C56.9673 47.308 56.6175 46.9698 56.6175 46.5544C56.6175 46.1389 56.9673 45.8008 57.3971 45.8008C57.827 45.8008 58.1768 46.1389 58.1768 46.5544C58.1768 46.5675 58.1768 46.5791 58.1768 46.5914C58.1347 46.7173 58.0937 46.8415 58.0506 46.9633L58.0506 46.9624ZM51.8278 43.3237L51.6811 46.4228L52.51 47.456L52.3469 49.4609C51.7427 49.5432 51.079 49.614 50.4173 49.6773C50.5857 49.2961 50.6677 48.8937 50.6594 48.4893C50.6594 47.4676 49.9526 46.6671 49.0499 46.6671C48.6268 46.6708 48.2264 46.8208 47.9512 47.0784C47.5408 47.447 47.3613 48.0089 47.4383 48.6637C47.1892 48.8337 46.9706 49.0306 46.7889 49.2487C46.596 47.3499 46.8812 45.3417 47.2362 43.4241C47.2854 43.1583 47.5316 42.9724 47.8004 42.9839C48.8396 43.0432 50.2757 43.1608 51.8278 43.3245L51.8278 43.3237ZM46.9192 50.152C46.9192 50.1364 46.912 50.1207 46.9089 50.1043C47.191 49.5424 47.5603 49.1574 48.102 48.8702C48.283 48.7599 48.4939 48.6853 48.7175 48.6522C49.0191 48.6243 49.3576 48.7732 49.5382 49.0093C49.6943 49.2291 49.7501 49.4856 49.6961 49.7349C49.6871 49.7425 49.6775 49.7496 49.6674 49.7563C48.6087 49.855 47.6434 49.9611 46.9192 50.1495L46.9192 50.152ZM50.047 48.7477C49.7544 48.3623 49.2181 48.1401 48.657 48.1718C48.4327 48.1948 48.2165 48.2536 48.0209 48.3445C48.0281 47.9513 48.1574 47.6247 48.3995 47.4075C48.5608 47.2521 48.7978 47.1601 49.0499 47.1549C49.5966 47.1549 50.0583 47.7687 50.0583 48.4959C50.0613 48.5798 50.0541 48.6646 50.047 48.7452L50.047 48.7477ZM42.1203 65.885C41.988 66.1318 41.6679 66.5901 41.435 66.7571C40.3866 67.5107 40.5118 68.2429 40.6256 68.9512C40.6574 69.1429 40.6903 69.3411 40.6995 69.5402C40.6995 69.5509 40.6995 69.5608 40.6995 69.5715C40.5487 69.5271 40.3969 69.4892 40.242 69.4506C40.0666 69.4111 39.8891 69.3798 39.7096 69.3535C39.7557 68.3457 39.607 67.3642 39.6552 66.4091C39.6651 65.9066 39.7653 65.4078 39.9527 64.9282C39.9937 64.8197 40.0625 64.6675 40.1004 64.5301C40.1354 64.4041 40.1587 64.2762 40.1702 64.1475C40.8755 64.5776 41.6542 64.9242 42.4824 65.1767C42.3788 65.3914 42.2588 65.6234 42.1203 65.885L42.1203 65.885ZM79.385 51.7184C78.8967 52.6505 78.0719 53.4806 76.9342 54.1864C74.8477 55.4772 73.0945 56.346 71.9076 56.6825C71.827 55.9978 71.6971 55.3174 71.5188 54.6447C71.5188 54.6397 71.5301 54.6365 71.5352 54.6315C71.5671 54.5986 71.5989 54.5641 71.6276 54.5295C71.6508 54.4938 71.6714 54.457 71.6891 54.4193C71.7076 54.3846 71.7213 54.3485 71.7302 54.3115C71.7394 54.2778 71.7517 54.2407 71.7579 54.2095C71.7815 54.0828 71.7948 53.9684 71.8194 53.8631C71.8642 53.6551 71.9538 53.455 72.0841 53.2716C72.1097 53.2338 72.1559 53.1531 72.1867 53.089C72.2224 53.0244 72.2489 52.9568 72.2657 52.8874L72.2944 52.7862L72.3077 52.6883C72.3193 52.6237 72.3255 52.5586 72.3262 52.4934C72.3395 51.9825 72.2236 51.5135 72.1446 51.0504C72.1026 50.8192 72.0605 50.5905 72.042 50.3684C72.0131 50.1599 72.0238 49.949 72.0738 49.7431C72.0781 49.7201 72.0843 49.6972 72.0923 49.6748L72.1231 49.6164L72.1518 49.5564L72.2041 49.4741C72.2749 49.3663 72.3405 49.2544 72.4021 49.145C72.5257 48.9206 72.6322 48.6904 72.7211 48.4556C72.8098 48.2263 72.882 47.9931 72.9376 47.7571C75.3904 47.2851 77.6658 46.3469 79.5717 45.0217L79.6579 45.5277C80.062 47.8625 80.3165 49.9373 79.385 51.7184L79.385 51.7184ZM79.4773 44.4458C77.6498 45.7871 75.4392 46.7476 73.0402 47.243C73.0514 47.1673 73.0638 47.0916 73.072 47.0151C73.1064 46.6755 73.1143 46.3345 73.0956 45.9941C75.335 45.4177 77.4333 44.5351 79.2978 43.3854C79.3573 43.7397 79.4171 44.0932 79.4773 44.4458L79.4773 44.4458ZM78.5848 39.2201C78.79 40.4267 78.9952 41.6309 79.2003 42.8325C77.3674 44.0047 75.2892 44.9062 73.0627 45.4948C72.9875 44.5706 72.8624 43.6514 72.6873 42.7371C72.5984 42.2682 72.4958 41.802 72.3795 41.3385C72.3221 41.1057 72.2636 40.8745 72.2 40.6417C72.1364 40.4089 72.0574 40.1728 71.9764 39.9416C71.8107 39.4808 71.6134 39.0276 71.3855 38.5842C71.1618 38.1387 70.9062 37.7038 70.6202 37.2819C70.4263 36.9989 70.216 36.7208 69.9862 36.4518C70.4992 36.1532 71.0305 35.8298 71.5414 35.5164C73.4392 34.3515 75.3996 33.1504 77.3692 32.8501C77.4787 32.991 77.5487 33.1493 77.5744 33.3141C77.9109 35.2663 78.2484 37.2432 78.5848 39.2201L78.5848 39.2201ZM76.8194 32.456C74.8703 32.8673 72.994 34.0191 71.1772 35.133C70.6643 35.4448 70.1442 35.7665 69.6333 36.0618C69.3007 35.7168 68.9055 35.4137 68.4608 35.1626C69.4164 34.3636 70.2123 33.4509 70.8203 32.4568C71.0693 32.0552 71.2915 31.6433 71.486 31.2228C73.4361 31.1035 74.9749 31.4597 76.8194 32.456L76.8194 32.456ZM66.7241 17.4502C67.8069 18.1042 68.7532 18.892 69.5277 19.7842C70.2971 20.6813 70.8934 21.6665 71.2962 22.7063C72.1039 24.7987 72.2174 27.0237 71.6255 29.162C71.3302 30.2261 70.8752 31.2576 70.2704 32.2339C69.6643 33.2064 68.8774 34.0993 67.9366 34.8821C66.9879 35.6579 65.8942 36.3105 64.695 36.8162C63.4927 37.3247 62.2155 37.708 60.8993 38.0914C62.3044 38.007 63.6755 37.7038 64.936 37.1988C65.8877 36.8259 66.7792 36.3615 67.5909 35.8159C67.7079 36.5892 66.9898 37.1823 66.166 37.7673C65.2551 38.4139 64.0435 38.7454 62.9787 38.9857C59.3667 39.7985 55.248 40.0428 50.7374 39.7121C49.9977 39.6578 49.216 39.5862 48.5072 39.369C47.7583 39.1403 47.1808 38.7627 46.8802 38.3069C46.7073 38.0376 46.6364 37.7337 46.6761 37.4324C50.1157 38.2428 57.2012 38.6278 60.5249 37.6233C60.9116 37.5014 61.2222 37.2614 61.3887 36.9561C62.2709 35.393 63.0033 33.9368 63.4721 32.5087C63.5479 32.6591 63.6342 32.8061 63.7307 32.9488C64.3339 33.82 65.2345 34.3474 66.2665 34.4453C66.3748 34.4551 66.4837 34.4601 66.5927 34.4601C67.516 34.4601 68.4126 34.1055 69.1574 33.4432C69.9637 32.7258 70.491 31.7263 70.6489 30.6288C70.9741 28.3343 69.5369 26.313 67.4473 26.1221C66.0655 25.9963 64.7401 26.698 63.9061 27.8498C63.6956 26.6811 63.2685 25.5442 62.6392 24.4768C62.5868 24.3839 62.4972 24.3078 62.3848 24.2604C59.8561 23.223 56.4667 22.4365 52.9327 22.1897C53.1327 20.026 54.0436 18.4489 55.9302 16.9763C57.6361 15.6436 60.6224 15.1343 63.0413 15.7621L63.2064 15.8172C64.4585 16.2431 65.64 16.7916 66.7241 17.4502L66.7241 17.4502ZM60.5977 27.2895C60.2623 27.844 59.1698 27.974 58.1583 27.5799C57.1468 27.1859 56.599 26.4175 56.9345 25.863C57.2699 25.3085 58.3614 25.1785 59.3729 25.5726C60.3844 25.9667 60.9352 26.7375 60.5977 27.2895L60.5977 27.2895ZM60.6121 29.6424C60.4291 29.9443 59.9755 30.0701 59.599 29.9234C59.2225 29.7767 59.0655 29.413 59.2484 29.111C59.4312 28.809 59.8847 28.683 60.2613 28.8296C60.6377 28.9766 60.7947 29.3403 60.6121 29.6424L60.6121 29.6424ZM67.1631 33.9105C66.8101 33.8909 66.4814 33.7592 66.2501 33.5444C65.9588 33.2927 65.7803 32.962 65.6572 32.7028C64.9243 31.1417 64.9703 29.4141 65.7854 27.8794C66.2101 27.0847 66.7579 26.6561 67.4103 26.6009C69.1543 26.7819 70.334 28.5532 70.0478 30.5704C69.9062 31.5691 69.4323 32.4733 68.707 33.1207C68.2423 33.5313 67.7119 33.7986 67.1631 33.9105L67.1631 33.9105ZM65.2335 27.6894C64.3575 29.3384 64.3082 31.1949 65.0961 32.8723C65.2499 33.2312 65.4857 33.5641 65.7916 33.8537C65.1761 33.6703 64.6467 33.2779 64.2528 32.7094C63.7276 31.9517 63.5173 30.9817 63.6589 29.9871C63.8548 28.6001 64.696 27.4541 65.77 26.916C65.5548 27.1564 65.3748 27.4159 65.2335 27.6894L65.2335 27.6894ZM50.7425 15.7135C50.9169 15.6587 51.0916 15.6066 51.2667 15.5572C53.8313 14.8291 56.6144 14.57 59.3011 14.8991C59.6088 14.9353 59.9094 14.9813 60.21 15.0332C58.426 15.145 56.6872 15.7045 55.5065 16.6267C53.5338 18.1668 52.5428 19.8837 52.3264 22.1486C50.1424 22.0342 47.9153 22.1313 45.8246 22.5048C46.0205 20.0112 47.7337 16.9475 50.7425 15.7135L50.7425 15.7135ZM42.5194 21.9297C43.0194 20.9193 43.7149 19.9784 44.5803 19.1416C45.4503 18.3066 46.471 17.5803 47.6085 16.987C47.8045 16.8842 48.0097 16.783 48.2148 16.6884C46.3611 18.314 45.3291 20.6546 45.2194 22.6249C44.0555 22.8623 42.929 23.2051 41.8618 23.6467C42.0244 23.0622 42.2442 22.4889 42.5193 21.9322L42.5194 21.9297ZM43.1287 26.5014C42.3326 27.6688 41.9295 30.3927 42.4927 32.1286C41.2288 30.4972 41.1786 28.4396 41.5263 26.5392C41.6515 25.8613 41.8392 25.1555 42.3911 24.6314C43.022 24.0325 45.2009 23.2403 47.9717 23.4278C45.9446 23.9025 44.2715 24.8297 43.1287 26.5039L43.1287 26.5014ZM45.8892 37.7483C45.7036 39.2687 46.596 41.2258 47.7829 42.5027C47.2187 42.4952 46.7335 42.8539 46.6412 43.3533L46.5827 43.675C45.4768 42.8186 44.5762 41.5121 44.4192 40.4764C44.2623 39.4998 44.7762 38.3094 45.8892 37.7508L45.8892 37.7483ZM37.9174 40.5142C39.7075 40.5142 41.1232 39.6915 42.4034 38.9511C43.2446 38.4616 44.053 37.9935 44.8716 37.8265C44.0526 38.5671 43.669 39.5538 43.8181 40.5364C43.9109 41.0444 44.1001 41.538 44.3792 42L44.3741 42C43.737 43.9152 43.6396 45.8082 43.7083 47.3647C43.5845 47.2874 43.4635 47.2073 43.3452 47.1245C43.0887 46.9434 42.8531 46.744 42.6414 46.5289C42.4272 46.3137 42.2473 46.078 42.1059 45.8271C41.9651 45.5681 41.8438 45.3024 41.7428 45.0316C41.6948 45.3252 41.7277 45.6238 41.8392 45.9061C41.9492 46.1912 42.1029 46.4642 42.2967 46.7189C42.4915 46.9739 42.7195 47.2117 42.9769 47.4281C43.0795 47.5153 43.182 47.5926 43.2959 47.6749C42.663 47.6798 41.6053 47.5762 40.5087 47.3927C39.4131 45.2085 38.2283 42.8622 37.0003 40.4426C37.3024 40.4905 37.6095 40.5152 37.9174 40.5167L37.9174 40.5142ZM37.6281 45.5441C36.4269 43.0275 35.1374 40.3308 33.81 37.5575C34.1452 37.526 34.4657 37.4291 34.7435 37.2753C36.1561 40.0494 37.5245 42.7478 38.7955 45.2702C38.4817 45.5036 38.0498 45.6058 37.6281 45.5466L37.6281 45.5441ZM34.5086 36.8154C34.2469 36.9862 33.9225 37.0834 33.5853 37.0918C32.2661 34.3358 30.9109 31.5091 29.5712 28.712C26.2044 21.6895 22.774 14.5395 20.2689 9.25789C23.9906 16.3486 29.5107 27.0148 34.5086 36.8179L34.5086 36.8154ZM13.526 56.4982C13.7927 58.4332 13.884 60.6486 12.5391 62.41C11.7862 63.3972 10.3244 64.2133 8.98461 63.8744C7.85618 63.5873 7.27658 62.6256 7.03551 62.0785C6.34307 60.5211 6.49797 58.6232 7.46021 56.8618C8.26242 55.3983 9.59498 53.9923 11.5359 52.5649C11.7985 52.3716 12.0703 52.1799 12.3412 51.989C13.0398 53.5513 13.3414 55.1589 13.526 56.4982L13.526 56.4982ZM16.98 46.5346C16.6641 47.586 15.8988 48.6086 14.6401 49.6608C13.9989 50.1972 13.286 50.6974 12.5884 51.1803C12.3273 50.6807 12.0204 50.1973 11.6703 49.7341C10.4393 48.1051 8.69532 46.7724 7.00781 45.4898C5.69166 44.4853 4.33037 43.4471 3.23169 42.2813C0.615797 39.5007 0.0403001 34.0594 1.13692 30.7127C2.20683 27.5036 4.74127 24.7341 8.23779 22.9532C8.7261 22.7063 9.24209 22.476 9.74065 22.253C10.5859 21.8746 11.46 21.483 12.2488 20.9968C13.1259 20.4571 14.6185 19.3161 14.7652 17.7414C14.8627 16.7007 14.3385 15.5654 13.2501 14.4589C12.7792 13.9809 12.2468 13.5392 11.7328 13.1122C11.2784 12.7354 10.8096 12.3454 10.391 11.9374C8.21215 9.80909 7.44482 6.97083 8.43373 4.70597C9.18259 2.99478 11.4815 0.855796 13.5845 0.52343C14.479 0.381928 15.2484 0.588423 15.8742 1.13304C15.9603 1.43826 16.2517 2.06926 16.9 3.46207C17.5555 4.87626 18.5147 6.91241 19.8319 9.68569C22.2867 14.8513 25.554 21.6681 29.0121 28.8839C30.6606 32.3244 32.3327 35.8117 33.9361 39.1601C33.2897 38.9667 32.6257 38.8132 31.9501 38.701C31.2464 38.5719 30.5827 38.4493 29.8359 38.1959C29.4929 38.0757 29.1024 38.0781 28.7618 38.2025C28.4761 38.3115 28.2092 38.4497 27.9678 38.6138C27.49 38.5589 27.0271 38.4402 26.5983 38.2625C26.1203 38.0708 25.6525 37.8216 25.1467 37.6044C24.6417 37.3792 24.1152 37.1866 23.5721 37.0285C23.011 36.8631 22.4177 36.7795 21.8199 36.7817C21.5117 36.7897 21.2062 36.8315 20.9121 36.9059C20.8091 36.934 20.7089 36.9684 20.6125 37.0088L20.3468 36.9002C20.2085 36.8445 20.1133 36.7377 20.0924 36.6147L19.6667 34.0964C19.6133 33.7719 19.3346 33.4999 18.9479 33.3951C18.5612 33.2902 18.1338 33.3708 17.8458 33.6028L15.6126 35.4062C15.5035 35.4943 15.3474 35.5337 15.1951 35.5115L12.0765 35.0582C11.6768 35.0011 11.2712 35.1303 11.0291 35.3917C10.787 35.6531 10.7501 36.0018 10.9337 36.2922L12.3812 38.5529C12.4536 38.6625 12.4536 38.7938 12.3812 38.9034L10.8742 41.1502C10.6812 41.438 10.7087 41.7888 10.9451 42.0551C11.1815 42.3213 11.5859 42.4569 11.9883 42.4048L15.1161 41.9983C15.2673 41.9804 15.4201 42.022 15.5264 42.1102L15.5264 42.1102C16.544 42.9732 17.3288 45.3697 16.98 46.5346L16.98 46.5346ZM18.6357 43.7128C18.4651 43.7582 18.2771 43.7196 18.1546 43.6141L15.9644 41.777C15.7208 41.5729 15.3674 41.4781 15.0196 41.5237L11.8918 41.9292C11.715 41.9522 11.5372 41.8928 11.4331 41.7758C11.3291 41.6588 11.3168 41.5047 11.4015 41.378L12.9033 39.1403C13.0704 38.8913 13.0738 38.5922 12.9125 38.3407L11.4651 36.0808C11.3828 35.9531 11.3981 35.7991 11.5047 35.6835C11.6112 35.568 11.7905 35.5112 11.9667 35.537L15.0853 35.9903C15.4318 36.0411 15.7873 35.9515 16.0352 35.7509L18.2685 33.9475C18.3948 33.8458 18.5822 33.8103 18.752 33.8561C18.9217 33.9018 19.0445 34.0208 19.0686 34.1631L19.4913 36.6813C19.5387 36.9614 19.7551 37.2048 20.0698 37.3321L20.0934 37.3419L20.0873 37.3477C19.9701 37.4663 19.8962 37.6087 19.8739 37.759C19.8511 37.9092 19.8828 38.0615 19.9652 38.1975C20.1211 38.4461 20.3904 38.637 20.7171 38.7306C20.8602 38.7675 21.0057 38.7978 21.1531 38.8211L21.5635 38.8935C21.8322 38.9437 22.0979 38.9997 22.3595 39.0655L22.8304 39.1815L20.037 40.2608C19.7194 40.3837 19.4974 40.6239 19.4431 40.9033L18.9578 43.4142C18.9314 43.5553 18.806 43.6715 18.6357 43.7128L18.6357 43.7128ZM26.3295 40.58C25.8576 41.6413 25.8515 42.7527 25.8464 43.8272C25.8464 43.9555 25.8464 44.0921 25.8464 44.2319C23.696 44.4068 21.5263 44.1206 19.559 43.4027L20.0288 40.9741C20.0522 40.8511 20.1497 40.7452 20.2894 40.6911L23.1443 39.5887C23.2884 39.5323 23.4152 39.4512 23.5156 39.3509C23.6572 39.3855 23.8019 39.4192 23.9516 39.448L23.9516 39.448C23.5312 39.1349 23.0331 38.8966 22.4898 38.7487C22.22 38.6739 21.9461 38.6081 21.6691 38.5488L21.2588 38.4666C21.1323 38.4444 21.0073 38.417 20.8844 38.3843C20.6799 38.3192 20.5134 38.1951 20.4176 38.0363C20.34 37.8958 20.3725 37.7318 20.5007 37.6175C20.6561 37.4829 20.8561 37.3865 21.0772 37.3395C21.3212 37.2854 21.573 37.2578 21.8261 37.2572C22.8622 37.2514 23.8829 37.6258 24.8369 38.0494C25.315 38.2633 25.7899 38.5044 26.3141 38.715C26.5977 38.8304 26.8946 38.9235 27.2005 38.9931C27.2754 39.0103 27.3513 39.0252 27.4282 39.0391C26.9536 39.4972 26.5834 40.0189 26.3347 40.58L26.3295 40.58ZM35.8165 46.7995C35.6996 46.7173 35.5826 46.6284 35.4698 46.5371C35.3118 46.4112 35.162 46.2747 35.0215 46.1356C34.8809 45.9966 34.7424 45.851 34.6111 45.6996C34.485 45.5413 34.3459 45.3898 34.1946 45.2463C34.209 45.439 34.2649 45.6283 34.3598 45.8057C34.4488 45.9837 34.5516 46.1571 34.6676 46.3248C34.7477 46.4396 34.835 46.5511 34.9291 46.6588L33.6981 46.4598C32.1778 46.213 30.6052 45.9555 29.1598 45.7621C29.047 45.7465 28.9362 45.7375 28.8264 45.7309C28.7153 45.4216 28.6273 45.1073 28.5628 44.7897C28.4878 44.4139 28.4467 44.0342 28.4397 43.6536C28.4307 43.2704 28.4591 42.8872 28.5248 42.5076C28.5884 42.1267 28.6777 41.7474 28.7638 41.3558C28.5277 41.7038 28.3533 42.0765 28.2458 42.4632C28.1329 42.8506 28.0578 43.2445 28.0211 43.6413C27.9854 44.0408 27.9912 44.442 28.0386 44.8407C28.0722 45.133 28.1294 45.4232 28.2099 45.7095C27.5328 45.7021 27.103 45.6799 26.8158 45.359C26.4598 44.9617 26.4331 44.4302 26.4362 43.8264C26.4362 42.7931 26.4475 41.7236 26.8855 40.7396C27.3236 39.7557 28.1165 38.9684 28.9977 38.6377C29.1841 38.5709 29.3971 38.5709 29.5835 38.6377L29.6625 38.6632C29.6014 38.7172 29.5438 38.7738 29.4901 38.8327C29.3626 38.9721 29.253 39.1214 29.1629 39.2785C29.0743 39.4333 29.0056 39.5948 28.9577 39.7606C28.9032 39.9257 28.8972 40.0986 28.9403 40.2658C29.0542 40.1177 29.1372 39.977 29.2255 39.838C29.3987 39.5675 29.6241 39.3207 29.8933 39.1066C30.013 39.013 30.1397 38.9253 30.2729 38.8442C30.8053 38.9848 31.3079 39.0786 31.7973 39.1691C32.5943 39.3156 33.3483 39.4554 34.2193 39.7853C35.439 42.3356 36.6146 44.7955 37.7071 47.0809C37.1009 46.9978 36.4638 46.9007 35.8216 46.7995L35.8165 46.7995ZM37.861 46.046L37.8692 46.046C38.2873 46.0489 38.6952 45.942 39.0305 45.7416C40.004 47.6757 40.917 49.5004 41.7438 51.1713C41.9121 51.5086 41.7643 51.9224 41.4238 52.0763C41.2928 52.1368 41.1351 52.148 40.9929 52.1067C40.7972 52.0421 40.6455 51.9133 40.5764 51.7529L40.5764 51.7529C39.7537 50.0097 38.8407 48.0912 37.8661 46.046L37.861 46.046ZM39.2469 53.1515C39.2858 53.0458 39.3373 52.9433 39.4008 52.8455C39.4336 52.7969 39.4675 52.7492 39.5034 52.7048C39.5343 52.6656 39.5711 52.6297 39.6131 52.5978C39.8356 52.4424 40.1573 52.4188 40.4112 52.5394L40.5138 52.5863C40.552 52.605 40.5917 52.6215 40.6328 52.6357C40.7931 52.6941 40.9644 52.7308 41.1396 52.7443C41.4909 52.7763 41.8449 52.7066 42.1377 52.5476C42.4212 52.3919 42.5959 52.1377 42.6086 51.8623C42.4643 51.9902 42.3002 52.1027 42.1203 52.1972C42.3947 51.8925 42.4854 51.5055 42.3675 51.1417C42.7649 50.9994 43.1901 50.9137 43.6242 50.8883C44.7607 50.8292 45.8661 51.2007 46.6104 51.892C46.9783 52.2401 47.2628 52.6398 47.4495 53.0709C47.8333 53.9429 47.8209 54.8956 47.4147 55.7611C47.2191 56.1839 46.9029 56.5643 46.4914 56.8717C46.0676 57.1636 45.5564 57.3621 45.008 57.4476C44.4303 57.5397 43.8429 57.5868 43.2539 57.5882C42.6486 57.5965 42.0403 57.631 41.6443 57.4163C41.4473 57.3126 41.2822 57.1341 41.1139 56.935L40.601 56.3304L40.3005 55.9766C40.398 55.98 40.4956 55.9781 40.5928 55.9708C40.7141 55.967 40.829 55.9261 40.9139 55.8565C40.8212 55.813 40.7241 55.7758 40.6236 55.7454C40.5333 55.7175 40.4451 55.6837 40.3579 55.65C40.2707 55.6163 40.1825 55.5817 40.0973 55.5431C40.0122 55.5044 39.9465 55.4797 39.8717 55.4484C39.7889 55.3388 39.7103 55.2291 39.6357 55.1194C39.5967 55.0593 39.5598 54.9993 39.5239 54.9384C39.6883 54.9624 39.8555 54.9718 40.0225 54.9664C40.1983 54.9606 40.3728 54.9388 40.5425 54.9014C40.7147 54.8681 40.8724 54.7981 40.9991 54.699C40.8356 54.6838 40.6712 54.6759 40.5066 54.6751C40.3542 54.6713 40.2024 54.6564 40.0532 54.6307C39.909 54.6057 39.7676 54.5711 39.6306 54.527C39.5029 54.4848 39.3791 54.4353 39.2603 54.3789C39.1933 54.1956 39.1551 54.0063 39.1464 53.8154C39.1369 53.591 39.1726 53.3668 39.252 53.1515L39.2469 53.1515ZM27.9606 55.9124C28.3822 54.9055 29.4306 54.2432 30.6032 53.8886C31.8157 53.785 33.1832 54.0474 34.1095 54.3888C32.622 55.7586 31.9552 57.2797 31.3243 58.972C30.2441 58.8585 28.8818 58.9227 27.7267 59.0049C27.7267 58.9918 27.7267 58.9778 27.7267 58.9646C27.7483 58.624 27.738 58.2793 27.7267 57.9461C27.7124 57.2279 27.698 56.5492 27.9606 55.9124L27.9606 55.9124ZM27.3564 60.9613C27.4898 60.4306 27.6262 59.8844 27.6949 59.3323C28.9023 59.2443 30.3518 59.1744 31.4351 59.3118L31.6085 59.334L31.6588 59.1982C32.3143 57.4254 32.9862 55.8442 34.5824 54.4489L34.7589 54.2942L34.527 54.198C33.7815 53.898 32.9801 53.6971 32.1542 53.6032C32.3451 53.5884 32.5338 53.5785 32.7174 53.5785C33.1124 53.5785 33.5125 53.5711 33.9002 53.5645C35.6 53.5341 37.2086 53.5053 38.6786 54.026C38.7477 54.4741 38.9202 54.9079 39.1874 55.3053C39.4807 55.742 39.8047 56.165 40.1578 56.5722L40.6615 57.1827C40.8308 57.3859 41.0206 57.6187 41.3304 57.7923C41.6297 57.9454 41.9731 58.0344 42.3275 58.0506C42.6589 58.0736 42.9625 58.0654 43.2692 58.0654C43.8961 58.071 44.5221 58.0249 45.1373 57.928C45.4236 57.8787 45.703 57.8065 45.9713 57.7125C46.0862 57.8094 46.2096 57.8996 46.3406 57.9823C44.7926 59.0691 44.2817 60.5228 43.7011 62.1904C43.6221 62.4166 43.5421 62.6461 43.457 62.8789C43.1872 63.6194 42.9861 64.136 42.7091 64.7267C41.7972 64.4485 40.9496 64.0504 40.2009 63.5486C40.1713 63.3589 40.1181 63.172 40.0419 62.9908C39.9394 62.5655 39.8368 62.1681 39.9332 61.7823C40.0001 61.5169 40.0467 61.2485 40.0727 60.9785C40.0923 60.7012 40.0723 60.423 40.0132 60.1493C39.9478 59.8755 39.8356 59.6103 39.6798 59.3611L39.5577 59.1785C39.5147 59.1193 39.4634 59.0641 39.4172 59.0066C39.3235 58.8917 39.2207 58.7818 39.1095 58.6775C38.6675 58.2754 38.1429 57.937 37.5584 57.6771C38.0087 58.0654 38.4611 58.4406 38.8284 58.856C39.1956 59.2715 39.4829 59.719 39.5752 60.2077C39.6189 60.4529 39.6272 60.7014 39.5998 60.9481C39.5916 61.0197 39.5803 61.0896 39.567 61.1604C39.5361 61.1559 39.5068 61.1464 39.4808 61.1324C39.3867 61.0716 39.3124 60.9934 39.2644 60.9045C39.13 60.6906 39.011 60.4339 38.8489 60.1937C38.692 59.9482 38.4806 59.7277 38.2252 59.543C37.9721 59.3661 37.6774 59.2318 37.3583 59.1481C37.6297 59.2861 37.8706 59.4593 38.0713 59.6606C38.2627 59.859 38.4121 60.0814 38.5134 60.3187C38.6232 60.5549 38.6848 60.8017 38.8068 61.069C38.871 61.2261 38.9835 61.3676 39.1341 61.4804C39.2279 61.5468 39.3406 61.5937 39.4623 61.6169L39.4408 61.6992C39.4146 61.7981 39.3978 61.8985 39.3905 61.9995C38.9666 61.5549 38.446 61.1753 37.8538 60.879C37.2748 60.5913 36.6549 60.3604 36.0073 60.1912C35.37 60.0258 34.7124 59.9155 34.0459 59.8622C35.2113 60.4027 36.4494 60.7416 37.4804 61.3265C37.9916 61.608 38.4453 61.9513 38.8253 62.3442C39.177 62.7051 39.4351 63.1188 39.5844 63.5609C39.608 63.7297 39.6139 63.8998 39.6019 64.0694C39.5917 64.187 39.5691 64.3037 39.5342 64.4182C39.4982 64.5367 39.4531 64.6313 39.3967 64.7728C39.1827 65.2938 39.0641 65.8369 39.0448 66.3852C39.0079 66.9257 39.0448 67.4547 39.0756 67.9804C39.1002 68.4206 39.1207 68.8558 39.1136 69.286L39.0387 69.2811C38.9447 69.2188 38.8464 69.1608 38.7443 69.1075C38.5779 69.0221 38.4033 68.9476 38.2221 68.8846C38.0427 68.8233 37.8575 68.7738 37.6681 68.7365C37.4783 68.6949 37.2794 68.6873 37.0855 68.7142C37.2385 68.8016 37.3989 68.8802 37.5656 68.9495C37.7218 69.0185 37.8725 69.0951 38.0169 69.1791C38.0703 69.2103 38.1195 69.2424 38.1729 69.2753C37.9218 69.2884 37.6722 69.3159 37.426 69.3576C37.1128 69.4115 36.8058 69.486 36.5079 69.5806C36.2092 69.679 35.9224 69.7993 35.6513 69.9401C35.3847 70.0855 35.1356 70.2508 34.9076 70.4337L34.8563 70.4781C34.7137 70.3539 34.5732 70.2313 34.4367 70.1087C33.1411 68.9528 31.9142 67.8611 29.4306 68.3893C29.1455 68.2574 28.847 68.1451 28.5382 68.0536C28.2412 67.9684 27.9348 67.9061 27.6231 67.8677C27.5995 67.8389 27.578 67.8101 27.5564 67.7813C27.5988 67.6802 27.6634 67.586 27.7472 67.5033C27.8915 67.3641 28.0718 67.2518 28.2755 67.1742C28.6961 67.0096 29.2183 66.9554 29.7292 66.9274C30.2461 66.9017 30.7649 66.9271 31.2741 67.0031C31.791 67.0848 32.3003 67.1947 32.7985 67.3321C32.3555 67.0819 31.861 66.8961 31.3377 66.7834C30.8104 66.6676 30.2675 66.6041 29.7209 66.5942C29.1752 66.5892 28.6141 66.6147 28.0581 66.7949C27.7732 66.8874 27.5184 67.0309 27.3133 67.2145C27.2897 67.2359 27.2702 67.2597 27.2487 67.282C27.0014 66.7357 27.024 66.2042 27.0548 65.5074C27.0959 64.8805 27.0828 64.2522 27.0158 63.6268C26.9091 62.7391 27.1266 61.8744 27.3564 60.9613L27.3564 60.9613ZM28.8377 76.0074L24.324 74.8318L23.1956 74.5372C22.835 74.4561 22.4871 74.3424 22.1585 74.1983C22.012 74.1295 21.8787 74.0441 21.7625 73.9449C21.6734 73.8691 21.6229 73.7693 21.6209 73.6652C21.6212 73.4825 21.6847 73.3033 21.8045 73.1478C22.0117 73.1066 22.2254 73.0905 22.4385 73.1C22.7059 73.1099 22.9718 73.1374 23.2335 73.1823C23.7758 73.2798 24.3103 73.4037 24.8338 73.5533C25.8966 73.847 26.9399 74.2114 27.9801 74.5742C29.0203 74.937 30.0626 75.3147 31.1079 75.6841C32.1532 76.0534 33.1955 76.4557 34.3567 76.5816C33.3699 76.088 32.3297 75.7449 31.3038 75.3435C30.278 74.942 29.2521 74.5413 28.2201 74.1489C27.1882 73.7565 26.1315 73.392 25.04 73.0794C24.4903 72.9183 23.9266 72.7893 23.3536 72.6936C23.0567 72.6463 22.7554 72.6188 22.4529 72.6113C22.3021 72.6087 22.1513 72.6142 22.0015 72.6278C21.8743 71.7384 22.2118 70.8022 22.8222 70.047C22.9833 69.8502 23.1667 69.6657 23.37 69.4958C23.5777 69.3329 23.8056 69.1873 24.0501 69.0614C24.55 68.8018 25.1017 68.6129 25.6812 68.5028C26.2586 68.3896 26.8568 68.3617 27.4467 68.4206C28.0384 68.481 28.6107 68.6298 29.1342 68.859C29.6784 69.0987 30.1993 69.371 30.6924 69.6735C31.2053 69.968 31.7388 70.2568 32.3769 70.4271C32.0024 70.0033 31.5552 69.6242 31.0484 69.3008C30.7601 69.1182 30.4657 68.9389 30.159 68.7686C31.9029 68.5826 32.8385 69.4135 33.9854 70.4361C34.1393 70.5744 34.2993 70.715 34.4624 70.8565C34.407 70.9174 34.3526 70.9791 34.3013 71.0425C34.1304 71.261 33.9858 71.4922 33.8695 71.7327C33.7587 71.9754 33.6807 72.227 33.6366 72.483C33.6057 72.6985 33.6019 72.916 33.6253 73.1321C33.4256 73.2767 33.2767 73.4608 33.1934 73.666C33.0064 74.1401 33.0613 74.6542 33.3463 75.0958C33.3843 75.1525 33.426 75.2074 33.4714 75.2604C33.5186 75.3073 33.5607 75.3575 33.6109 75.4002C33.708 75.49 33.8129 75.5741 33.9248 75.652C34.3711 75.9564 34.882 76.1522 35.3733 76.3258L36.8393 76.8292L36.9942 76.8827C36.7182 77.2727 36.1407 77.5261 35.5518 77.5499C34.8409 77.5869 34.1034 77.3796 33.3514 77.1846L28.8377 76.0074ZM67.6894 96.7251C65.6569 97.5206 63.5025 98.0979 61.282 98.442C59.0604 98.7821 56.7937 98.8926 54.5371 98.7711C52.6879 98.6683 50.8583 98.404 49.0806 97.983L49.3217 97.983C57.4219 97.9736 65.4335 96.6321 72.8617 94.0415C71.2738 95.0938 69.5379 95.9936 67.6894 96.7226L67.6894 96.7251ZM81.5146 83.1508C79.7225 83.8912 77.9068 84.5995 76.0541 85.2354C73.9593 85.9594 71.8249 86.6038 69.6508 87.1688C67.4811 87.7356 65.2715 88.2037 63.0434 88.6241C60.8152 89.0445 58.5594 89.3834 56.282 89.7084C58.6007 89.7318 60.9176 89.5964 63.2075 89.3036C65.503 89.0131 67.7713 88.5978 69.9965 88.0605C72.2258 87.5276 74.4119 86.8847 76.5423 86.1355C78.0935 85.5851 79.6199 84.9837 81.094 84.3165C81.0253 84.4884 80.9556 84.6596 80.8807 84.829C80.1295 86.5458 79.1043 88.1773 77.8308 89.6829C77.1754 90.454 76.4557 91.1887 75.6766 91.8819C75.2498 92.0591 74.82 92.2318 74.3871 92.4002C65.9388 95.6666 56.6268 97.2364 47.2536 96.9744C46.6525 96.9568 46.052 96.931 45.4522 96.897C44.5435 96.5583 43.6595 96.1784 42.8046 95.7593L44.9732 95.7321L47.23 95.663L49.4787 95.5437L51.7242 95.3792L53.9636 95.1694L56.1959 94.9226L58.4189 94.624C61.3774 94.2052 64.3062 93.6606 67.198 93.0156C67.9161 92.8511 68.6342 92.6725 69.3523 92.5006C70.0642 92.3122 70.7741 92.1156 71.4819 91.9173L72.5324 91.5932L73.5767 91.2575C74.264 91.0157 74.9503 90.773 75.6284 90.5064C74.8918 90.6348 74.1686 90.7861 73.4464 90.9383L72.3611 91.1539L71.2798 91.3826C70.5566 91.5265 69.8354 91.673 69.1174 91.8276C68.3993 91.9823 67.673 92.1106 66.9549 92.2628C64.0682 92.833 61.1517 93.2945 58.2209 93.6696L56.0184 93.9271L53.8108 94.1534L51.6001 94.336L49.3833 94.489L47.1633 94.6042L44.9414 94.6865L42.7163 94.7309L40.9365 94.7416C39.4102 93.8475 38.0053 92.8272 36.7449 91.6977C36.2207 91.2279 35.7191 90.7376 35.2513 90.2316L36.671 90.1691L37.7389 90.1222C38.0939 90.1025 38.4488 90.0794 38.8038 90.0556C40.2235 89.9601 41.6409 89.8483 43.0559 89.7199C44.4708 89.5916 45.8831 89.4487 47.2926 89.2913C48.7031 89.1416 50.1054 88.9466 51.5108 88.7673L53.6179 88.4949C53.9698 88.4522 54.3196 88.3995 54.6694 88.3452L55.7178 88.1856C57.115 87.9693 58.5143 87.7595 59.9074 87.5275C65.4766 86.5871 71.0029 85.4559 76.4234 84.0434C78.1899 83.5794 79.9492 83.0916 81.6921 82.5683C81.636 82.7641 81.5769 82.9574 81.5146 83.1483L81.5146 83.1508ZM98.9539 72.6023C98.8853 72.8545 98.7846 73.1004 98.6534 73.3361C98.5197 73.5751 98.3612 73.8046 98.1794 74.0222C97.4408 74.9025 96.3842 75.6372 95.2589 76.2789C94.702 76.6124 94.1237 76.9221 93.5262 77.2068C93.2277 77.3525 92.9261 77.494 92.6214 77.6338C92.3167 77.7737 92.0059 77.8971 91.692 78.0304C91.0693 78.2903 90.4538 78.5585 89.826 78.8119C89.1982 79.0653 88.5571 79.3006 87.9159 79.5334C86.6329 79.999 85.3359 80.4425 84.0249 80.8637C81.41 81.7152 78.7459 82.4655 76.0582 83.1672C70.6787 84.5543 65.1843 85.6632 59.6509 86.5838C58.265 86.8101 56.8729 87.0092 55.486 87.228L54.4447 87.3925C54.098 87.4477 53.7503 87.5011 53.4015 87.5439L51.3088 87.8212C49.9136 88.0021 48.5205 88.2004 47.1182 88.3542C45.7159 88.5081 44.3166 88.6603 42.9122 88.7911C41.5079 88.9219 40.1025 89.0379 38.696 89.1358C38.3432 89.1605 37.9923 89.1843 37.6394 89.2049L36.5828 89.2543L34.4747 89.3439L32.3604 89.4435C31.6557 89.4665 30.9499 89.4789 30.2462 89.4879C29.5425 89.497 28.8377 89.4953 28.134 89.4879C27.4303 89.4805 26.7265 89.4706 26.0269 89.432L23.925 89.3439C23.2253 89.2954 22.5298 89.2354 21.8415 89.1547C21.1531 89.0741 20.4771 88.9532 19.8011 88.8388C19.1327 88.7232 18.4781 88.561 17.8448 88.3543C17.5338 88.2537 17.2307 88.1384 16.9369 88.0087C16.6504 87.8815 16.3761 87.7375 16.1163 87.5776C15.6048 87.2671 15.187 86.8685 14.8935 86.4111C14.7517 86.1882 14.6482 85.9511 14.5857 85.706C14.5277 85.4594 14.5101 85.2077 14.5334 84.9574C14.5578 84.705 14.6226 84.4561 14.7262 84.217C14.7791 84.0944 14.8397 83.9742 14.9078 83.8566C14.9761 83.7396 15.0521 83.6257 15.1356 83.5152C15.4868 83.0592 15.9145 82.644 16.4066 82.2812C16.6538 82.0936 16.9133 81.9159 17.1831 81.7431C17.4529 81.5704 17.7463 81.4207 18.0264 81.2586C18.593 80.9311 19.1817 80.629 19.7898 80.3536C20.3964 80.0728 21.014 79.8063 21.6425 79.554C22.9001 79.0489 24.1886 78.5857 25.4914 78.1505C26.667 77.7548 27.857 77.3854 29.0531 77.0267C29.0844 78.1632 29.2157 79.2966 29.446 80.4184C28.6407 80.6835 27.8355 80.9575 27.0425 81.252C26.6106 81.4116 26.1818 81.5811 25.7561 81.7456C25.3304 81.9102 24.9108 82.1002 24.4871 82.2763C24.0634 82.4523 23.6418 82.6267 23.2202 82.8176C22.8001 83.0145 22.3926 83.2284 21.9995 83.4584C21.7961 83.5772 21.6018 83.7058 21.4178 83.8435C21.3187 83.9178 21.2259 83.9972 21.1398 84.0812C21.0325 84.1844 20.9494 84.3023 20.8946 84.4292C20.8767 84.4723 20.8657 84.5171 20.8618 84.5625C20.8542 84.6158 20.8577 84.6697 20.8721 84.7221C20.9002 84.8314 20.9701 84.9308 21.0721 85.0067C21.2123 85.1044 21.3804 85.1728 21.5614 85.2058C21.6343 85.2198 21.703 85.2297 21.7738 85.2404L21.9789 85.2593L22.3349 85.2848C23.2828 85.349 24.2348 85.4008 25.1898 85.4239C26.1449 85.4469 27.1071 85.437 28.056 85.4107C29.959 85.3589 31.8516 85.2511 33.7484 85.1055C41.3171 84.5156 48.7852 83.3861 56.1959 82.0936L57.5849 81.8575L58.9687 81.5951L61.7385 81.0685C62.6617 80.8966 63.5778 80.6983 64.4949 80.5083L67.2483 79.9324C69.0784 79.5359 70.9023 79.1179 72.7293 78.7107L75.4571 78.0526C76.3629 77.8255 77.2728 77.6075 78.1755 77.373C79.979 76.8992 81.7762 76.4023 83.555 75.8593C84.4441 75.5851 85.3273 75.2996 86.2048 75.0029C87.085 74.7108 87.9415 74.3653 88.8043 74.0354C89.0218 73.9531 89.229 73.8774 89.4557 73.7787C89.6804 73.6816 89.896 73.5717 90.1009 73.4496C90.3348 73.3148 90.537 73.1476 90.698 72.956C90.8149 72.8138 90.8671 72.6435 90.8457 72.4739C90.828 72.3764 90.7823 72.2835 90.7123 72.2024C90.6795 72.1679 90.6446 72.1366 90.6098 72.1054C90.5749 72.0741 90.539 72.056 90.5072 72.033C90.2646 71.9025 89.9918 71.8124 89.705 71.7681C89.4588 71.7233 89.2094 71.6911 88.9581 71.6718C88.474 71.6389 88.0021 71.6241 87.522 71.5994C87.0419 71.5747 86.571 71.5492 86.0858 71.5394C85.6006 71.5295 85.1246 71.5328 84.6424 71.5517C84.1603 71.5706 83.6864 71.6077 83.2175 71.634L82.5148 71.6751L82.166 71.6916C82.1037 71.6991 82.0447 71.7192 81.9947 71.75C81.9898 71.6807 81.9796 71.6117 81.964 71.5435C81.9568 71.5112 81.9472 71.4794 81.9352 71.4481L81.8839 71.3222L81.6501 70.7735C81.4931 70.4082 81.3269 70.0454 81.1566 69.6842C80.9863 69.3231 80.8089 68.9635 80.6263 68.6065C80.498 68.3539 80.3647 68.1047 80.2282 67.8546C81.5044 67.7764 82.7826 67.7089 84.0587 67.6596C84.7645 67.6333 85.4713 67.6078 86.173 67.5987C86.8746 67.5897 87.5815 67.6135 88.2852 67.6193C88.6371 67.625 88.9889 67.625 89.3408 67.6349C89.6926 67.6448 90.0425 67.6645 90.3912 67.6867C91.0876 67.7246 91.7809 67.7916 92.4686 67.8875C93.1497 67.9911 93.8432 68.0718 94.5008 68.2322C95.1549 68.3787 95.7887 68.5783 96.3924 68.8278C96.6846 68.9529 96.9654 69.0945 97.2326 69.2515C97.4939 69.4088 97.7376 69.5842 97.9609 69.7755C98.3961 70.1508 98.7182 70.6011 98.9026 71.0918C99.0731 71.5834 99.0925 72.1009 98.9591 72.5998L98.9539 72.6023Z" id="Shape" fill="#FFFFFF" fill-rule="evenodd" stroke="none" />
          <path d="M96.3062 70.5365C96.6145 70.8344 96.8008 71.2012 96.8397 71.5871C96.8867 71.9656 96.8253 72.3477 96.6602 72.7043C96.3309 73.4167 95.6805 73.9975 94.9716 74.5043C93.5437 75.5302 91.8828 76.3192 90.1584 76.9946C88.4339 77.67 86.6326 78.2492 84.8394 78.8284C83.0462 79.4075 81.2469 79.9596 79.4229 80.4836C75.7874 81.5416 72.0984 82.4762 68.3746 83.3227C66.5117 83.7412 64.6399 84.1363 62.7592 84.5082C60.8788 84.8817 58.9872 85.2198 57.0924 85.5604C59.0179 85.3589 60.9332 85.103 62.8423 84.8142C64.7483 84.5131 66.6492 84.1841 68.5347 83.8056C70.4202 83.4272 72.2944 83.0109 74.1563 82.5609C76.0182 82.1109 77.8637 81.6148 79.6958 81.0875C81.528 80.5601 83.3406 79.9966 85.1328 79.3911C86.9249 78.7856 88.714 78.1768 90.4466 77.4413C91.3167 77.0783 92.1594 76.6745 92.9702 76.232C93.7807 75.7852 94.5423 75.2837 95.2465 74.733C95.9369 74.1786 96.5904 73.536 96.8766 72.7586C97.0184 72.374 97.0483 71.9684 96.9638 71.5731C96.8827 71.1816 96.6531 70.8196 96.3062 70.5365L96.3062 70.5365Z" id="Shape" fill="#FFFFFF" fill-rule="evenodd" stroke="none" />
        </g>
      </g>
    </g>
  </g>
</svg>