<svg xmlns="http://www.w3.org/2000/svg" viewBox="0 0 1084.43 1099.04"><title>Asset 5</title><g id="Layer_2" data-name="Layer 2"><g id="Layer_1-2" data-name="Layer 1"><path d="M595.43,627.67a11.08,11.08,0,0,0,2.67.32c6.54,0,12.92-5.72,15-14a20.1,20.1,0,0,0-.83-12.75,12.5,12.5,0,0,0-8.36-7.56c-7.39-1.85-15.31,4.28-17.64,13.64S588,625.83,595.43,627.67ZM590,608.29c1.61-6.46,6.37-11,11.14-11a7.09,7.09,0,0,1,1.77.22,8.69,8.69,0,0,1,5.73,5.32,16.17,16.17,0,0,1,.62,10.26c-1.81,7.28-7.6,12.11-12.91,10.8S588.22,615.57,590,608.29Z"/><path d="M598,617.26c2.77.69,5.75-1.69,6.65-5.32s-.61-7.13-3.38-7.82-5.75,1.69-6.66,5.32S595.25,616.57,598,617.26Z"/><path d="M887.86,693.36a26.7,26.7,0,0,0-3.29-4.75,27.3,27.3,0,0,0-4.29-3.84,23.3,23.3,0,0,0-10.43-4.09,19.29,19.29,0,0,0-5.53.2,16.27,16.27,0,0,0-5,2,16.56,16.56,0,0,1,5.12-.89,18.21,18.21,0,0,1,5,.73,21.58,21.58,0,0,1,4.56,2,27.37,27.37,0,0,1,4,2.94c4.82,4.43,7,10.85,7.72,17.35s-.07,13.37-1.15,20.08a47.63,47.63,0,0,1-1,5c-.41,1.65-.7,3.32-1.17,5-1,3.23-1.81,6.55-3.16,9.68l-1.84,4.75-2.16,4.62-1.07,2.31-1.24,2.23-2.47,4.46a118.15,118.15,0,0,1-26.54,30.76c-2.73,2-5.32,4.25-8.24,6-1.43.92-2.83,1.89-4.28,2.78l-4.48,2.47-2.24,1.22-2.33,1-4.65,2.11-4.8,1.73c-1.61.59-3.21,1.17-4.84,1.61a68.87,68.87,0,0,1-19.92,2.88,42.07,42.07,0,0,1-19-4.47,34.38,34.38,0,0,1-13.69-13.45,44.62,44.62,0,0,1-4-9.05,49.16,49.16,0,0,1-1.86-9.8,49.82,49.82,0,0,1,2.31-19.89c4.17-13,12.5-24.48,22-34.93-11.54,8.18-21.31,19.63-26.36,33.45a54.18,54.18,0,0,0-3.4,21.76,54.9,54.9,0,0,0,1.81,11,50.3,50.3,0,0,0,4.26,10.41,40.58,40.58,0,0,0,15.93,16,48.56,48.56,0,0,0,21.78,5.5,77.77,77.77,0,0,0,21.91-2.72c1.78-.44,3.51-1,5.24-1.61l5.19-1.76,5-2.14,2.52-1.08,2.43-1.26a112.47,112.47,0,0,0,34.45-26.64,120.64,120.64,0,0,0,12.95-17.66l2.62-4.82,1.3-2.42,1.13-2.5,2.26-5,1.87-5.17c1.35-3.4,2.12-7,3.13-10.51.47-1.77.72-3.59,1.07-5.39a54.55,54.55,0,0,0,.85-5.42,99.69,99.69,0,0,0,.78-10.95,60.85,60.85,0,0,0-1-11.14A36.91,36.91,0,0,0,887.86,693.36Z"/><path d="M394.06,983.34a26.59,26.59,0,0,1,13,15.69,22,22,0,0,1-2.77,18.29,20.74,20.74,0,0,1-15.08,9.17c-6.2.87-12.62-.41-18.86-2.86a68.17,68.17,0,0,1-9.17-4.49,38.7,38.7,0,0,1-7.95-5.77,19.32,19.32,0,0,1-4.94-7.49,20.34,20.34,0,0,1-.62-9.25c1.72-12.84,13.47-24.84,28.12-26.23-14.74-1.76-30.65,9.08-34.4,25.05a24.51,24.51,0,0,0,6,23.51,46.69,46.69,0,0,0,9.22,7.66,74.43,74.43,0,0,0,10.25,5.48,47.16,47.16,0,0,0,11.5,3.4,36.41,36.41,0,0,0,12.36-.18,31.44,31.44,0,0,0,11.68-4.73,26.24,26.24,0,0,0,8.41-9.5,27.41,27.41,0,0,0,3.18-11.94,25.32,25.32,0,0,0-2.48-11.87A25.66,25.66,0,0,0,394.06,983.34Z"/><path d="M870.77,134.77a44.79,44.79,0,0,0-9.2-12.9,35.61,35.61,0,0,0-13.47-8.16,27.5,27.5,0,0,0-15.2-.65,34.94,34.94,0,0,1,24.18,13c5.76,7.06,9.19,15.95,10.66,25A50.39,50.39,0,0,1,865,178a40.79,40.79,0,0,1-18.9,20.37,33.11,33.11,0,0,0,14-5.91,37.24,37.24,0,0,0,10.4-11.76c5.21-9.35,6.57-20.46,4.93-30.84A54.28,54.28,0,0,0,870.77,134.77Z"/><path d="M1081.42,598.47a14.36,14.36,0,0,0-3.43-3.28,9.42,9.42,0,0,0-1.31-.78l-.79-.37a1,1,0,0,1-.28-.16,1.65,1.65,0,0,1-.63-1.12,1.93,1.93,0,0,1,0-.34s0-.32.07-.55l.09-.73.36-2.95q1.5-11.76,2.48-23.58a574.88,574.88,0,0,0-45.52-277.94A568.33,568.33,0,0,0,929.64,128.34,548.41,548.41,0,0,0,780.09,13.22q-10.5-5.5-21.25-10.51l-1.33-.63-.67-.32c-.21-.1-.45-.21-.79-.35A17,17,0,0,0,752.13.23a15.85,15.85,0,0,0-8.35.81A17.37,17.37,0,0,0,733.3,12.85a16.77,16.77,0,0,0-.08,8.21,17.73,17.73,0,0,0,3.65,7.08c2.41,3,4.89,6,7.26,9.09,4.75,6.12,9.41,12.32,13.86,18.67a486.78,486.78,0,0,1,87.94,249.79,187.8,187.8,0,0,0-26.61-26.36c-.57-.47-1.15-.91-1.72-1.37h0l-.11-.08a173.9,173.9,0,0,0-36.66-22.77c-27.68-12.74-58.58-17.75-88.82-15.87-2.19.14-4.38.32-6.57.52h0a184.16,184.16,0,0,0-38.15,7.43,153.47,153.47,0,0,0-41.06,19.72,146.17,146.17,0,0,0-33.12,31.32,166.13,166.13,0,0,0-19.84,33.43c-19.67,27.36-30.78,64.22-28.81,96.25a155.51,155.51,0,0,0,6.9,36.32c-18.66,12.18-29.35,25.47-34.2,42.2-5.74,19.85-2.89,44.6,8.91,77.6a25,25,0,0,0-15.1,2.91,24.53,24.53,0,0,0-11.6,13.13,25.17,25.17,0,0,0,.42,17.41,24.4,24.4,0,0,0,9.3,11.71l-.06.14a22,22,0,0,0-1.75,9.18c-8.39-3.2-16.48-6.49-24.33-9.69-30.25-12.34-58.83-24-94.36-25.51-6.91-.29-42.28-1-59.5,13-14.4,11.73-21.38,26-20.76,42.35.63,16.63,20.49,54.45,32.84,66.51a82.34,82.34,0,0,0,11,11.84,282.21,282.21,0,0,0,22.56,17.48c2.3,1.65,4.57,3.29,6.81,4.94-6.39,7-12.36,12.91-17.63,17.94v-.1A294.6,294.6,0,0,1,297.81,773c-15.3-2.49-30.48-5.84-45.52-9.77a678.56,678.56,0,0,1-88.31-30c-28.68-12-56.69-25.82-82.85-42.36a284.44,284.44,0,0,1-37-27.5c-2.83-2.56-5.61-5.17-8.24-7.89-1.34-1.34-2.59-2.75-3.88-4.14l-1.85-2.13a26.09,26.09,0,0,0-2.48-2.62,16,16,0,0,0-7.45-3.77,16.22,16.22,0,0,0-8.31.48A17,17,0,0,0,.31,662.81c.3,1.45.57,2.24.83,3.21l.8,2.86,3.25,11.39c2.36,7.54,4.65,15.1,7.3,22.55,2.48,7.5,5.38,14.85,8.15,22.25,3,7.32,5.89,14.66,9.14,21.86,6.36,14.46,13.26,28.69,20.86,42.54S66.23,817,75,830.15s17.81,26.13,27.62,38.52c2.38,3.15,4.89,6.2,7.4,9.25l3.76,4.59.88,1.07-.23,1c-.12.56-.28,1.12-.36,1.69a33.29,33.29,0,0,0-.43,3.42,36.94,36.94,0,0,0,.09,6.82,43,43,0,0,0,3.46,12.83c3.52,8.13,9.33,14.88,15.7,20.27a96.78,96.78,0,0,0,10,7.35c1.72,1.11,3.46,2.17,5.19,3.19s3.25,2,4.87,3c3.23,2,6.47,4.23,10,6.37a69.17,69.17,0,0,0,11.33,5.64c1,.41,2,.73,3,1.09l1.51.47.74.24c.29.08.4.13,1,.28a11,11,0,0,0,5.61-.13l1.46-.43.28-.08.12,0a.93.93,0,0,1,.43.07c.2.1,0,0,1.09.81l4.64,3.69a543.36,543.36,0,0,0,165.77,90.41,553.83,553.83,0,0,0,92.16,22.2q23.47,3.54,47.19,5c7.9.5,15.81.78,23.72.92,4,.09,7.91.08,11.86.08l5.3-.06.08.34a16.9,16.9,0,0,0,.62,1.86,18.84,18.84,0,0,0,1.81,3.62,20.64,20.64,0,0,0,5.51,5.76,40.75,40.75,0,0,0,12.42,5.45,59.39,59.39,0,0,0,25.67,1.64l46.36-8.57c7.74-1.46,15.31-2.79,23.2-4.36s16.15-3.82,23.88-8.51a37,37,0,0,0,10.18-9.31,28.23,28.23,0,0,0,5.6-13.42c0-.05,0-.1,0-.16l4.35-1.44c3.77-1.22,7.52-2.48,11.23-3.85a538.8,538.8,0,0,0,86.22-39.51,545.29,545.29,0,0,0,78.11-53.79q18.32-15.1,35.3-31.73T943,889a554.41,554.41,0,0,0,55.49-76.88c4.11-6.76,8-13.67,11.81-20.58l5.46-10.3c.32.17.66.34,1,.51a13.82,13.82,0,0,0,2.5.82,14.85,14.85,0,0,0,9.24-1.22,27.28,27.28,0,0,0,6.2-4,61,61,0,0,0,8.84-9.46,142.68,142.68,0,0,0,13.05-20.69,96.89,96.89,0,0,0,5.2-11.33q2.06-5.61,3.92-11.29,3.7-11.36,6.62-22.94a336.22,336.22,0,0,0,8.3-47q1.27-11.88,1.64-23.82c.08-2.11.11-3.66.31-5.5s.43-3.65.71-5.56c.51-3.87,1.37-7.86,1-13A16.29,16.29,0,0,0,1081.42,598.47Zm-235.21-283,.26.37c0,.3,0,.61,0,.92l.6,0a138,138,0,0,1,19.62,37.37,145.7,145.7,0,0,1,7.59,43.14A169.83,169.83,0,0,1,853.85,482a181.65,181.65,0,0,1-25.5,35.87,144.29,144.29,0,0,1-34.08,27.41,140.09,140.09,0,0,1-40.92,15.43c-14.4,3-29.12,4.13-44.16,5a121.16,121.16,0,0,0,45.16.17,140.64,140.64,0,0,0,33.14-10.32c-1.36,10.89-11.26,16.62-22.27,21.88-11.92,5.71-25.78,6.45-37.75,6.37-40.55-.18-84.27-9.23-129.94-26.91-7.5-2.9-15.37-6.14-22-11.08-7-5.24-11.64-11.91-13.09-18.78a21.18,21.18,0,0,1,1.12-12.23c32.6,20.72,105.06,46.86,143.4,43.69a17,17,0,0,0,11.43-6.08c15.07-17.77,28.17-34.62,38.35-51.88a57,57,0,0,0,1.1,6.86c3,13,10.34,22.43,20.61,26.67a30.71,30.71,0,0,0,11.78,2.3c18.21,0,37.77-15.15,47.42-38.56,11.8-28.59,4.43-58.85-16.42-67.45-10.27-4.24-22.15-2.68-33.43,4.38a58,58,0,0,0-9.7,7.76,159.46,159.46,0,0,0-.61-47.95,6.1,6.1,0,0,0-1.85-3.56c-22.48-21-54.9-41.27-90.81-54.95,10.11-27.51,25.45-45.28,50.55-58.8,22.75-12.26,55.79-10,78.69,5.37.5.41,1,.81,1.53,1.22A178.63,178.63,0,0,1,846.21,315.51ZM898,525.44a37.93,37.93,0,0,0-4.68-2.45,12.32,12.32,0,0,0-5.17-1.22,27,27,0,0,0,3.72,3.58c1.27,1,2.46,2.17,3.6,3.31s2.25,2.32,3.26,3.56c.83,1,1.61,2,2.39,3.06a31.68,31.68,0,0,1,2,18.39,26.43,26.43,0,0,0-5.48-4.66,61.43,61.43,0,0,0-6.72-3.67,32.73,32.73,0,0,0-7.12-2.54,35,35,0,0,0,5.71,4.92,56.42,56.42,0,0,1,5.63,4.51,26.86,26.86,0,0,1,4.42,5.14,23.53,23.53,0,0,1,2.53,5.6c4.66,16.64.09,34.83-4.37,52.43l-.08.32c-.89,3.53-1.86,7.26-3.12,10.89a64.27,64.27,0,0,0-27.3-47.39c-16-11.13-35-16.17-49.14-19,.11-5.38.28-16.36,0-24.17A154.29,154.29,0,0,0,832.8,522,189.76,189.76,0,0,0,859,484.82c2.18-4.05,4.18-8.19,6-12.4,3.74,5.26,7.64,11,11.45,16.57,4.86,7.13,9.89,14.5,14.55,20.85,3.6,4.91,7.31,10.49,7.45,15.92ZM723.86,779.62c-61.69-16.32-108.12-42.31-155.57-87.74L588.48,703a13.13,13.13,0,0,0,6.41,1.67,13.78,13.78,0,0,0,4.73-.85,16.1,16.1,0,0,0,3.75-2c33.78,27.24,79.86,48.67,130.36,60.64A132.77,132.77,0,0,1,723.86,779.62ZM494.34,631.78a34.48,34.48,0,0,0,7.67,1.81v0c.78,5.2,3.29,8.92,7.09,10.48a10,10,0,0,0,3.87.77,14.49,14.49,0,0,0,8.55-3.21A31.67,31.67,0,0,0,532.91,614c-.77-5.2-3.28-8.92-7.08-10.49-5.11-2.11-11.21.35-16,5.81l-.45-.14a16,16,0,0,1-3.3-1.29,13.33,13.33,0,0,1-1.3-.8l19.59-46.38c2.21-5.24,7-8.53,10.52-7.17l30.74,11.92c-1.32,2.6-4.67,10.23-15,34.47l-.45,1L556,616.94l-20.84,49.91-38.6-21.33C493,643.6,492.07,637.34,494.34,631.78Zm26.06-16.24a11.06,11.06,0,0,0-3.31-3.26,12.09,12.09,0,0,0-1.26-.7c2.15-1.9,4.36-2.93,6.19-2.93a4.27,4.27,0,0,1,1.58.29c1.79.74,3.07,2.9,3.52,5.94A23.9,23.9,0,0,1,525.26,627h0A24,24,0,0,1,518,637c-2.46,1.83-4.9,2.46-6.69,1.72-1.54-.63-2.71-2.33-3.29-4.73a17.49,17.49,0,0,0,8.34-1.91,11.77,11.77,0,0,0,5.64-7.43A11.47,11.47,0,0,0,520.4,615.54ZM643,609a20.24,20.24,0,0,0,.64-12.94c9-.59,15.72-4.13,23.25-8.18,2-1.07,4.08-2.18,6.27-3.28a317.66,317.66,0,0,0,54.3,5.12h3.73C708.46,606.34,671.19,614.58,643,609Zm-2.37-18.71a13.93,13.93,0,0,0-5.7-4.17L545.47,551.4c.22-3.08,2.28-7.34,5.52-11.21a22,22,0,0,1,7.57-6.21A41.31,41.31,0,0,0,572,550.53c7.21,5.39,15.5,8.82,23.38,11.86a428.07,428.07,0,0,0,68.47,20.42C656.05,587,649.68,590.31,640.61,590.26ZM604.77,690.72a12.76,12.76,0,0,1-7.14,7.63,7.51,7.51,0,0,1-6.32-.44l-.42-.23c.29-.14.58-.26.85-.42a19.73,19.73,0,0,0,8.13-9.77l2.62-6.72c11.29-28.87,22-56.15,29.76-83.39,0-.18.13-.41.23-.69a18.22,18.22,0,0,0,1.08-4.78,8.94,8.94,0,0,1,4,4.41,14,14,0,0,1,0,10.59Zm-47-179.85.86.61a26.84,26.84,0,0,0-1.85,16.79.5.5,0,0,0,0,.13c-4.72,1.78-8.89,6.39-10.27,8-3.59,4.29-5.87,8.8-6.62,12.8L537,548.1a11,11,0,0,0-7.21-.18c-.55-22.6,12.31-33.74,24.43-40.16A29.64,29.64,0,0,0,557.73,510.87Zm4.5,106.23-5.76-15.92c5.32-12.53,13.59-31.83,14.46-33.39l-1-.62,59.6,23.13c.33,1.09.08,2.69-.76,5.11-.13.36-.23.67-.3.9-7.75,27.06-18.38,54.25-29.63,83l-2.63,6.72a15.75,15.75,0,0,1-6.45,7.82,7.34,7.34,0,0,1-4.09.91l-45.42-25.1Zm174,140c-49.87-11.67-95.35-32.66-128.67-59.37a21.91,21.91,0,0,0,2.67-4.86l30.59-78.33a103,103,0,0,0,21.36,2.15,133.74,133.74,0,0,0,58.69-13.86,62.37,62.37,0,0,0-5.91,9.34,46.86,46.86,0,0,0-4.51,13.33,25.91,25.91,0,0,0,1.16,13.79,44.37,44.37,0,0,1,1.55-13.2,43.08,43.08,0,0,1,5.34-11.9,74.52,74.52,0,0,1,8.09-10.37c.95-1,1.95-2,2.93-3-5.45,11.75-8.64,25.22-8.2,36.51.74,18.76,11.18,35.7,26.6,43.15a44.58,44.58,0,0,0,6.91,2.64c-.66.26-1.32.54-2,.79a55.69,55.69,0,0,1-8.35,2.46,29.11,29.11,0,0,1-8.59.51,36.33,36.33,0,0,1-8.67-1.9,15.86,15.86,0,0,0,8.2,4.63,32.37,32.37,0,0,0,9.57.8,48.25,48.25,0,0,0,9.39-1.59c.69-.18,1.36-.4,2-.6-3.2,7.23-5.25,16.23-7.5,26.24C746,727.28,742.75,741.93,736.22,757.08Zm14.23-81.92c-13.29-6.42-22.65-21.74-23.29-38.11-.61-15.48,6.19-35.43,16.24-48a72.74,72.74,0,0,0,24.35-6.29,88.93,88.93,0,0,0,12.49-6.9c15.18-5.79,35.17-9.57,35.37-9.61l1.33-.25c13.6,2.69,31.84,7.51,46.93,18a59.38,59.38,0,0,1,24.89,53.7c-.13.17-.24.35-.37.51-8,9.79-21,12.5-34.76,15.37-4.08.85-8.31,1.74-12.34,2.81-9.45,2.54-18.48,6.48-27.22,10.3-6,2.61-12.18,5.31-18.38,7.5C783.24,678.6,765.28,682.32,750.45,675.16Zm43.08-122.55c1.26-.66,2.51-1.32,3.74-2a133.14,133.14,0,0,0,15.07-9.91c.1,7.42-.05,16.17-.14,20.28-4.14.84-13.16,2.8-22.6,5.6A24.47,24.47,0,0,0,793.53,552.61Zm-74-131.11c-9.06-8.1-11.91-19.68-6.37-25.86s17.35-4.63,26.4,3.47S751.48,418.79,746,425,728.59,429.61,719.54,421.5Zm17.85,34a8.19,8.19,0,1,1-.64-11.56A8.18,8.18,0,0,1,737.39,455.49Zm52.36,75.07c-3.43-1-6.52-3.77-8.5-7.67-2.12-4.18-2.76-9-3.09-12.78a87.67,87.67,0,0,1,19.24-62.32c7.44-9.12,14.81-13.09,21.9-11.86,17.64,7.53,23.47,34.21,13,59.68C823.41,517.06,805.75,531,789.75,530.56Zm3.11-86.47a93.58,93.58,0,0,0-20.53,66.52c.37,4.28,1.12,9.85,3.7,14.93.15.3.32.57.48.86-6.27-4.15-10.82-11.17-13-20.3-2.67-11.43-1.28-24.65,3.91-37.22S781,446,790.93,439.73a38.81,38.81,0,0,1,11.72-5A49.42,49.42,0,0,0,792.86,444.09ZM686.34,245.54c2-.18,4-.34,6-.46,29.38-1.83,59.29,3,86,15.34q5.6,2.55,11,5.53c-19.49-4.45-40.51-2.57-56.73,6.16-26.11,14.07-42.7,33.31-53.26,61.94-22.46-8.06-46.13-13.45-69.48-14.79C621.13,287.36,650.38,252.54,686.34,245.54ZM577.73,301.8a139.67,139.67,0,0,1,31.79-30.07,147.58,147.58,0,0,1,39.5-19c3.15-1,6.33-1.86,9.53-2.65-26.08,15.28-46.14,43.14-54.76,68.86a170.22,170.22,0,0,0-39.38,3.36A153.52,153.52,0,0,1,577.73,301.8Zm-27.1,56.95c3.8-8.42,8.36-17,16-22.14,8.77-5.89,34.33-9.69,62.41.95-22.8.11-43.6,7.15-61.67,25.45-12.58,12.75-26.83,46.85-27.4,71C532.9,409.12,540,382.33,550.63,358.75ZM533.24,470c4.78,13.59,10.92,25.41,17.06,33.32-19.15,10.73-27.75,26.47-26.22,47.89a20.17,20.17,0,0,0-5.15,7.28l-8.55,20.25C489.52,518,502.81,490.28,533.24,470ZM484.81,602.05a19,19,0,0,1,8.93-9.91,19.68,19.68,0,0,1,12.81-2.08l-4.9,12.57h0a3.68,3.68,0,0,0-.54,2.07,5.78,5.78,0,0,0,.58,2.16,9.83,9.83,0,0,0,2.82,3.34,12.45,12.45,0,0,0,3.81,2.08c1.26.46,2.5.85,3.65,1.31a10.1,10.1,0,0,1,5.32,3.94,7.69,7.69,0,0,1,.86,6.06,7.53,7.53,0,0,1-3.82,4.66,13.51,13.51,0,0,1-6.6,1.11,32.6,32.6,0,0,1-14.07-3.48C485.39,621.63,481.56,610.48,484.81,602.05Zm-172,18.78c8.14-6.63,22.3-10,36.21-11.21,1.72,1.29,2.84,3.3,3.77,6.9C331.52,623,309,646.57,298.57,658.57a24.43,24.43,0,0,1-4.15-4.85l-.17-.23C295.16,641.09,301.36,630.12,312.76,620.83ZM430.18,673.6a57.41,57.41,0,0,1,9.38-4.13l-.11.19c13.44,8.23,24.7,18.65,32,29.58a144.15,144.15,0,0,0-25.2,19.49c-2.7-3.21-5.49-6.36-8.23-9.39-5.9-6.55-12-13.31-16.78-20.74-1-1.62-2-3.3-3-5A42.51,42.51,0,0,1,430.18,673.6Zm-13.87,18.16c5,7.83,11.3,14.78,17.37,21.5,3.42,3.79,7,7.72,10.2,11.72,10.75,13.29,15.83,25.33,15.52,36.81-.13,5.25-3.09,11.35-7.36,16.79a40.18,40.18,0,0,0,3.23-13.29c1.36-19.92-11.11-33.48-23.18-46.58A170.59,170.59,0,0,1,419.57,704c-5.67-7.84-10-17.15-14.18-26.15-7-15.13-14.32-30.78-28.29-40.23a44.73,44.73,0,0,0-20.72-7.38c9.09-.62,18,1.34,24.48,5.67,11.86,8,18,21.09,24.55,35C408.7,677.94,412.1,685.19,416.31,691.76ZM294.77,663a16.33,16.33,0,0,0,3,2l2.06,1,1.49-1.76c3.26-3.83,8.27-9.47,14.3-15.42-7.55,10.7-11.27,24.92-9.77,39.2.17,1.61.42,3.22.71,4.82C301.06,682.22,296.4,671,294.77,663Zm63.36,86.71c-2.08-1.5-4.18-3-6.28-4.56.42-.46.86-.89,1.28-1.35,1.2-1.36,2.45-2.68,3.62-4.07l3.54-4.17a19.44,19.44,0,0,0,3-4.71,19.38,19.38,0,0,0-4.92,2.67l-4.44,3.2c-1.48,1.07-2.89,2.2-4.34,3.3-.76.58-1.49,1.21-2.23,1.81-2.75-2.08-5.48-4.26-8.17-6.51l7.86-8.61c3.05-3.35,6.19-6.6,9.29-9.91s6.27-6.55,9.47-9.77,6.35-6.49,9.27-10.07A91.49,91.49,0,0,0,364,705q-5.28,4.37-10.44,8.87c-3.46,3-6.79,6.11-10.12,9.23q-4.38,4.13-8.57,8.44a77,77,0,0,1-9.24-10.17h0l-.1-.1A69.6,69.6,0,0,1,312.2,691l.12.11,5.46-6.67c1.8-2.23,3.7-4.38,5.55-6.56s3.81-4.29,5.83-6.32,4-4.1,5.9-6.43a30.44,30.44,0,0,0-7.71,4.34c-2.36,1.75-4.65,3.61-6.89,5.52s-4.35,3.94-6.47,6c-.86.84-1.7,1.69-2.53,2.55-.51-16,6-31.35,17.26-39.92A38.43,38.43,0,0,1,352,636a39.06,39.06,0,0,1,21.85,6.52,44,44,0,0,1,4.17,3.22c-2.49,1.55-5,3.1-7.44,4.7-3.28,2.15-6.59,4.23-9.83,6.43l-9.78,6.52a82.4,82.4,0,0,0-9.4,7.16,84.38,84.38,0,0,0,10.81-4.77l10.44-5.4c3.49-1.78,6.91-3.68,10.37-5.51,3-1.62,6.06-3.3,9.07-5,7.53,8.32,12.58,19.17,17.85,30.49,4.3,9.25,8.75,18.81,14.75,27.11,1.89,2.62,4,5.16,6.13,7.65-1.26.88-2.5,1.79-3.68,2.78a66.41,66.41,0,0,0-5.38,5,65.36,65.36,0,0,0-4.76,5.5,22.54,22.54,0,0,0-3.6,6.32,55.09,55.09,0,0,0,5.62-4.42c1.75-1.52,3.58-3,5.44-4.32s3.74-2.67,5.69-3.86c1.5-.91,3-1.77,4.53-2.62q1.49,1.64,3,3.24c1.89,2.06,3.76,4.1,5.57,6.15a42.31,42.31,0,0,0-3.58,2.34,50.11,50.11,0,0,0-4.76,4,50.72,50.72,0,0,0-4.22,4.46,17,17,0,0,0-3.16,5.29,36.08,36.08,0,0,0,5.06-3.27c1.57-1.16,3.19-2.22,4.82-3.24s3.28-2,5-2.82,3.11-1.52,4.68-2.23c7.56,9.26,13.11,19,12.25,31.6-.91,13.38-9.4,24.9-21.12,28.66-15.9,5.1-26.27-4.3-39.21-18.14C379.42,765.07,368.6,757.26,358.13,749.72Zm-14.25,35.82v-.12c6.35-6,14-13.33,22.35-22.49a147.28,147.28,0,0,1,18.6,16.49c9.07,9.71,20,21.37,35.15,21.37a32.66,32.66,0,0,0,9.71-1.54c15.33-.73,35.15-21.42,35.57-37.3.33-12.34-4.68-25-15.28-38.68a138,138,0,0,1,27-20.52l2.59-1.5L478,698.7c-6.93-11.41-17.92-22.37-31.23-31.26a88.2,88.2,0,0,1,15.26-1.91,124.57,124.57,0,0,1,16.94.37,176.74,176.74,0,0,1,33.51,6.58,171.84,171.84,0,0,1,32.07,12.57c-9.12-7.25-19.78-12.52-30.76-16.55a155.27,155.27,0,0,0-34.24-8.13,127.87,127.87,0,0,0-17.74-.92,92.8,92.8,0,0,0-17.8,2.22,67.35,67.35,0,0,0-8.77,2.64,25.65,25.65,0,0,0,1.44-4.28,11,11,0,0,0,.07-5.37,42.79,42.79,0,0,0-2.66,4.38,28.81,28.81,0,0,1-2.69,4,39.67,39.67,0,0,1-3.18,3.55c-.94.93-1.91,1.84-2.88,2.75a49.1,49.1,0,0,0-4.79,3.48c.57-1.35,1.14-2.71,1.67-4.11.88-2.27,1.68-4.6,2.34-7a15.57,15.57,0,0,0,.53-7.43c-1,2.29-2.07,4.33-3.12,6.44s-2.24,4.14-3.44,6.19l-3.67,6.17c-.37.62-.72,1.27-1.08,1.9q-1.59-3.27-3.11-6.53c-6.58-14-13.38-28.52-26.59-37.37-10.43-7-25.95-8.75-39.9-4.55a51.24,51.24,0,0,1,12.65-5l2.75-.65-.55-2.77a29.39,29.39,0,0,0-2.94-8.89c4.26-.17,8.39-.17,12.19,0,34.51,1.47,62.63,12.94,92.4,25.08,9,3.68,18.36,7.49,28.15,11.14a11.68,11.68,0,0,0,4.81,5.27l56,30.94c52.9,54.71,102.62,84.82,170.57,103.13-2,2.64-4.07,5.28-6.36,7.9-22,25.13-55,41.28-93,46,1.07-.76,2.11-1.56,3.1-2.42a13.77,13.77,0,0,0,4.3-6c-2,1.42-3.93,2.6-5.92,3.74a45.06,45.06,0,0,1-6.18,2.88,56.3,56.3,0,0,1-6.46,2.06,45.48,45.48,0,0,1-6,1.09c-2.2.08-4.4.15-6.62.15H597c.84-.28,1.68-.56,2.52-.87a56.4,56.4,0,0,0,13.2-6.76,18.84,18.84,0,0,0,5.35-5.43,23.81,23.81,0,0,0,2.62-6.92,54.77,54.77,0,0,1-4.22,5.73,21.75,21.75,0,0,1-5.36,4.12,58.44,58.44,0,0,1-12.93,5.21,87.66,87.66,0,0,1-13.72,2.81,44,44,0,0,1-12.57-.06c-20.08-3.44-38.59-10.49-57.87-17.85-8.07-3.08-16.36-6.23-24.95-9.2a54.36,54.36,0,0,0,9.24-3.54,42.56,42.56,0,0,0,9.41-6.14,23.74,23.74,0,0,0,6.66-8.92,42.2,42.2,0,0,1-8.65,6.1,70,70,0,0,1-9.44,4.24,78.48,78.48,0,0,1-14.55,3.65c.23-.4.48-.78.71-1.18,3.84-6.82,6.86-14.26,7.71-22.17-2.26,3.28-4.24,6.56-6.22,9.82l-6,9.68A175,175,0,0,1,464.7,821c-2.52,3.06-5.11,6-7.75,9a10.89,10.89,0,0,0-3-4.37,24.39,24.39,0,0,0-5-3.18q-2.46-1.27-5-2.32L434,816l-9.85-4.2a34.83,34.83,0,0,0,8.61,6.68l9.36,5.26c1.53.88,3,1.79,4.49,2.71a20.33,20.33,0,0,1,3.79,2.86,6.42,6.42,0,0,1,1.37,6.34c-6,6.41-12.09,12.7-18.27,19-2.7,2.77-5.34,5.61-8,8.49-1.31,1.45-2.61,2.91-3.9,4.4L418,871.88c-1.62,1.83-4.59,2.44-7.78,2.08s-6.24-1.89-9.46-3.75c-6.35-3.51-11.34-9-17-14.37a63.42,63.42,0,0,0-19.46-13.16c2.75,2.82,5.48,5.51,8.08,8.3s5.08,5.61,7.57,8.51,5,5.85,8,8.62a54.05,54.05,0,0,0,9.61,7.53,46.61,46.61,0,0,0,6.13,3.26c-4.7,8.72-7.82,17.87-12,26.19A70,70,0,0,1,382.77,919a53.52,53.52,0,0,1-5.72,5.86,43.33,43.33,0,0,0-5.77,7.16c-.15.22-.31.41-.46.62L270.9,869.36C253,858,241.61,845.71,236.13,831.76c1.94-12,10-22.56,20.25-28.81a45.13,45.13,0,0,1,17.24-6.07,55.93,55.93,0,0,1,18.55.7,63,63,0,0,1,17.58,6.58c5.39,2.77,9.58,7.26,13.19,12.49,7.08,10.57,12,22.86,18.22,35a84.14,84.14,0,0,0-3.63-20.08,74,74,0,0,0-8.67-18.83,59.09,59.09,0,0,0-3.93-5.38c-.09-2.11,1.74-4.86,4.92-8.32a18.37,18.37,0,0,1,7.89-.16,36.37,36.37,0,0,1,8.68,3c5.71,2.77,11,6.72,16.15,10.8s10.11,8.61,15,13.18a126.85,126.85,0,0,0,15.56,13,103.76,103.76,0,0,0-12.52-16c-4.63-4.92-9.36-9.79-14.5-14.31a85.23,85.23,0,0,0-17-12,35.76,35.76,0,0,0-10.28-3.61,23.14,23.14,0,0,0-2.52-.33c1.45-1.39,3-2.84,4.66-4.39l2.79-2.62ZM229.51,857c-.34-.53-.59-1.12-.89-1.68a14.59,14.59,0,0,1-.62-1.64,18.49,18.49,0,0,1-.65-7.33c.36-3.8,1.92-7.63,4.38-9.9,6.27,14.11,18.09,26.54,36,37.9l98.8,62.55c-.15.1-.28.21-.44.3a18.59,18.59,0,0,1-7,2.27,29.54,29.54,0,0,1-15.25-2.57,89.63,89.63,0,0,1-14.36-8.38l-14.25-9.62-57-38.48L244,870.77c-4.65-3.19-9.06-6.53-12.33-10.61A26.8,26.8,0,0,1,229.51,857Zm466,194.66c0-.1,0-.16,0,0Zm376.82-433.5c-.29,2-.58,4-.79,6.08s-.3,4.42-.37,6.22q-.37,11.55-1.61,23a325.52,325.52,0,0,1-8.1,45.43q-2.84,11.19-6.43,22.17c-1.21,3.66-2.49,7.29-3.81,10.9a85,85,0,0,1-4.62,10,133.14,133.14,0,0,1-12,19,51,51,0,0,1-7.15,7.69,16.53,16.53,0,0,1-3.61,2.38,3.71,3.71,0,0,1-2.17.46,1.68,1.68,0,0,1-.29-.1,3.8,3.8,0,0,1-.58-.31s-.26-.19-.88-.55a9.62,9.62,0,0,0-1.57-.7,9.8,9.8,0,0,0-11.9,4.66l-.72,1.35-5.46,10.26c-3.78,6.77-7.56,13.53-11.6,20.15a543.08,543.08,0,0,1-54.47,75.23q-15.18,17.6-31.79,33.9t-34.59,31a533.87,533.87,0,0,1-76.39,52.77,526,526,0,0,1-84.34,38.8c-3.63,1.36-7.3,2.59-11,3.8l-5.51,1.83-.69.23a9.55,9.55,0,0,0-1.79.77,7.86,7.86,0,0,0-4,6.44l0,.81a8.24,8.24,0,0,1-.07,1c-.59,5.39-5,11.08-10.47,14.44-5.7,3.49-12.8,5.55-20.19,7.07s-15.32,2.89-23,4.35l-46,8.59a48.2,48.2,0,0,1-20.85-1.31,30.54,30.54,0,0,1-9.05-3.8,9.79,9.79,0,0,1-2.58-2.65,8.23,8.23,0,0,1-.8-1.63,7.46,7.46,0,0,1-.31-.91l-.23-.87c2.44-.07,4.91-.09,7.4-.09,5.09,0,10.24.27,15.44.32s10.45.07,15.71-.28a45.2,45.2,0,0,0,15.4-3.54c-5.29,0-10.34-.21-15.43-.53s-10.17-.88-15.29-1.46-10.29-1.18-15.53-1.61a97,97,0,0,0-15.07-.16h0a9.72,9.72,0,0,0-1.79-.21h-.91l-5.83.07c-3.88,0-7.75,0-11.62-.06-7.75-.12-15.5-.39-23.23-.87q-23.2-1.38-46.23-4.82a543,543,0,0,1-90.34-21.62,532.53,532.53,0,0,1-162.64-88.39l-4.56-3.61c-.44-.34-.58-.48-1.45-1.12a11.38,11.38,0,0,0-7.67-2.07,10.07,10.07,0,0,0-1.34.2c-.4.08-1,.25-1.14.3l-1.35.4a.58.58,0,0,1-.2,0l-2.38-.75c-.85-.3-1.72-.57-2.54-.91a58.84,58.84,0,0,1-9.67-4.81c-3.18-1.93-6.43-4.12-9.83-6.26-1.69-1.07-3.42-2.11-5.16-3.14s-3.24-1.94-4.82-3a85.53,85.53,0,0,1-8.92-6.53c-5.55-4.7-10.18-10.18-12.91-16.47A32.76,32.76,0,0,1,124,895.4a25.23,25.23,0,0,1-.08-4.91c0-.37.09-.73.14-1.09,1.9,2,3.76,4.12,5.69,6.21,2.42,2.68,4.92,5.36,7.52,7.95a30.91,30.91,0,0,0,9,6.52,106,106,0,0,0-6.21-8.94c-2.15-2.85-4.19-5.81-6.31-8.75s-4.31-5.87-6.64-8.75c-.7-.85-1.43-1.69-2.17-2.51a7.57,7.57,0,0,0-1.06-2.53,12.09,12.09,0,0,0-.81-1.05l-.46-.56-.93-1.13-3.69-4.5c-2.47-3-4.94-6-7.29-9.07-9.65-12.15-18.61-24.83-27.17-37.77S67,798.22,59.6,784.6,45.31,757,39,742.85c-3.2-7.07-6.08-14.28-9-21.47-2.74-7.26-5.59-14.48-8-21.85-2.61-7.31-4.88-14.74-7.2-22.14L11.58,666.2l-.8-2.8c-.26-.91-.58-2-.67-2.47a7,7,0,0,1,4.82-8.19A6.12,6.12,0,0,1,21.11,654c.65.56,2.27,2.52,3.55,3.95s2.74,3,4.18,4.41c2.82,2.9,5.77,5.64,8.75,8.31A293.67,293.67,0,0,0,76,698.94c26.87,16.83,55.34,30.67,84.46,42.73a686.07,686.07,0,0,0,89.62,30c15.28,3.92,30.72,7.26,46.35,9.74a319.89,319.89,0,0,0,38.92,4c-7.5,7-12.9,12.27-15.2,16.94-.66-.59-1.34-1.17-2-1.73a40.11,40.11,0,0,0-4.59-3.05,66,66,0,0,0-19.72-7.76,69.77,69.77,0,0,0-10.6-1.41,62.27,62.27,0,0,0-10.74.55,50.3,50.3,0,0,0-20.23,7.44A49.44,49.44,0,0,0,237,811.48a44.79,44.79,0,0,0-4.72,9.72,43.3,43.3,0,0,0-1.94,9,16.2,16.2,0,0,0-6,6.21,25.19,25.19,0,0,0-2,19,19.52,19.52,0,0,0,.8,2.12,45.18,45.18,0,0,1-9.33,5.31,46,46,0,0,1-12.38,3.5,28,28,0,0,1-6.13.08,49,49,0,0,1-6.43-1.08A72.18,72.18,0,0,1,176.39,861a111.08,111.08,0,0,1-23.18-13.94,70,70,0,0,1-17.57-19.92A49.56,49.56,0,0,1,128.89,802a36.6,36.6,0,0,1,8.55-24,37.22,37.22,0,0,1,22.91-11.73,47,47,0,0,1,26.4,4.18A28.06,28.06,0,0,0,174.44,763a36.55,36.55,0,0,0-14.64-1.33,42.3,42.3,0,0,0-26.4,12.69c-6.93,7.48-10.48,17.56-10.78,27.51a55.62,55.62,0,0,0,6.89,28.7,76.94,76.94,0,0,0,19,22.28,118.11,118.11,0,0,0,24.64,15.31,76.17,76.17,0,0,0,14,4.86,59.07,59.07,0,0,0,7.41,1.25,35.84,35.84,0,0,0,7.89-.1,54.77,54.77,0,0,0,25-10c3.88,4.71,8.63,8.23,13.28,11.43L255,885.24l57,38.48,14.26,9.62a94.45,94.45,0,0,0,15.32,8.9,35.29,35.29,0,0,0,18.27,3,24.3,24.3,0,0,0,9.22-3,16.92,16.92,0,0,0,4-3.15,34.07,34.07,0,0,0,3-3.66,38.93,38.93,0,0,1,4.94-6.25,59.72,59.72,0,0,0,6.28-6.43,76,76,0,0,0,9.61-15c4.59-9.18,7.81-18.74,12.52-27.14a17.9,17.9,0,0,0,6.93-.26,13.36,13.36,0,0,0,6.62-3.77l3.84-4.52c1.24-1.42,2.5-2.84,3.79-4.24,2.57-2.81,5.23-5.56,7.87-8.36,10.55-11.18,21.44-22.33,30.91-34.78q4.23-5.53,8.08-11.37c10.73,3.37,21,7.18,30.89,11a56.54,56.54,0,0,0-15.54,23.85,52.07,52.07,0,0,0-2.93,17.16,35.37,35.37,0,0,0,.28,4.46,27.54,27.54,0,0,0,.8,4.45l.56,2.21c.25.72.55,1.43.83,2.15s.54,1.45.87,2.12l1,2c5.69,10.42,15,18.11,25.12,23.14s21.27,7.54,32.1,9a207.69,207.69,0,0,0,32.75,1.87c11-.37,22.2-2.19,32.58-6.59a57.07,57.07,0,0,0,25.83-21.21,41.46,41.46,0,0,0,6.26-15.65,30.31,30.31,0,0,0-1.52-16.43c.36,10.92-3.29,20.77-9.18,29.07a51.39,51.39,0,0,1-23.75,18.46c-9.56,3.75-20,5.17-30.4,5.35a201.31,201.31,0,0,1-31.5-2.41c-10.38-1.53-20.58-4-29.61-8.56s-16.89-11.37-21.45-20c-4.47-8.25-4.14-18.63-.93-28a52.35,52.35,0,0,1,6.72-13.28,42,42,0,0,1,9.58-10c17.54,6.68,34.63,12.87,53.12,16.14h0A154.65,154.65,0,0,0,596.09,846h1c2.31,0,4.6-.08,6.89-.16v0l.16,0c46.57-1.64,87.83-19.38,114.09-49.4,24.53-28,31.09-57.28,36.36-80.78,2.87-12.78,5.39-23.85,10.27-30.79,1.53.12,3.07.2,4.65.2,8.54,0,17.93-1.79,28.08-5.37,6.41-2.25,12.7-5,18.79-7.66,8.53-3.73,17.36-7.58,26.39-10,3.87-1,8-1.9,12-2.74,14.15-3,28.78-6,38.09-17.39,6-7.29,8.31-16.58,10.38-24.78l.08-.32c4.43-17.48,9.4-37.2,4.37-55.35h0a.78.78,0,0,1,0-.14c-.08-.26-.13-.52-.21-.78,3.6-11.64,2.37-23.41-3.32-32,1.24-8.2-3.67-15.76-8.42-22.24-4.6-6.27-9.6-13.6-14.43-20.69-4.55-6.68-9.23-13.53-13.63-19.59a173.88,173.88,0,0,0,12.47-69,151.06,151.06,0,0,0-7.9-44.86,143.16,143.16,0,0,0-18.13-35.76l.65,0a495.66,495.66,0,0,0-89-266.07c-4.51-6.5-9.23-12.85-14.06-19.11-2.39-3.15-4.91-6.2-7.36-9.31a7.11,7.11,0,0,1-1.65-6.66,7.67,7.67,0,0,1,4.52-5.14,6.21,6.21,0,0,1,3.2-.29,7.41,7.41,0,0,1,1.68.53,5,5,0,0,1,.56.25l.65.31,1.31.63c7,3.33,14,6.78,20.82,10.41a539.19,539.19,0,0,1,146.6,113.25,557.82,557.82,0,0,1,100.7,155.58c.29.66.56,1.32.84,2a19.9,19.9,0,0,0-3.11.72,57.55,57.55,0,0,0-7,2.95c-4.35,2.09-9.13,4.58-12.72,9a24,24,0,0,0-3.9,7.24,65.75,65.75,0,0,0-1.93,7.28c-1,4.64-2.18,9.71-1.55,15.2a28.59,28.59,0,0,0,2.16,7.67,42.6,42.6,0,0,1,2.23,6.21c.94,3.91.18,8.74,1.07,14.07a20.28,20.28,0,0,0,3,7.45,55.29,55.29,0,0,0,4.53,5.85,28.79,28.79,0,0,0,5.52,5.08,11.55,11.55,0,0,0,7.11,2.2c-4.6-1.79-7-5.72-9.43-9.63-2.45-4.09-5-7.88-5.42-11.81-.61-4.1.41-8.9-.52-14.39a40.61,40.61,0,0,0-2.29-7.31,21.65,21.65,0,0,1-1.58-6.07c-.36-4,.62-8.43,1.67-13s2.16-8.82,4.55-11.81,6.21-5.34,10.32-7.45c3.43-1.78,6.72-3.4,9.65-3.64a562.49,562.49,0,0,1,32.14,105.55,39.32,39.32,0,0,1-17.54,6.93,53.27,53.27,0,0,1-6.19.52,56.25,56.25,0,0,1-6.22-.36,50.1,50.1,0,0,1-12.13-2.82,48,48,0,0,1-11-5.68,60.85,60.85,0,0,1-9.48-8.26,73.83,73.83,0,0,1-13.42-21.64,84.34,84.34,0,0,1-4-12.32,95.33,95.33,0,0,1-2.3-12.82,79.21,79.21,0,0,1,.85-25.82,48.71,48.71,0,0,1,11.09-22.62,38.09,38.09,0,0,1,22.43-12.53,29.4,29.4,0,0,0-13.67,1.82A38.52,38.52,0,0,0,984.54,296a43.57,43.57,0,0,0-8.92,11.18,54.69,54.69,0,0,0-5.2,13.3,86.29,86.29,0,0,0-1.82,28,93.14,93.14,0,0,0,2.12,13.87,91.78,91.78,0,0,0,4.07,13.49,85.46,85.46,0,0,0,6.15,12.8,80.56,80.56,0,0,0,8.47,11.55,69.57,69.57,0,0,0,10.8,9.6,55.41,55.41,0,0,0,13,6.72,56.57,56.57,0,0,0,14.17,3.28,65.45,65.45,0,0,0,7.28.31,59.37,59.37,0,0,0,7.29-.71,48,48,0,0,0,14-4.39,40.81,40.81,0,0,0,3.9-2.23A565.14,565.14,0,0,1,1067,563.67q-1,11.6-2.47,23.14l-.37,2.88-.19,1.63a12.46,12.46,0,0,0,.57,5.23c-.14.74-.28,1.48-.41,2.22q-.87,4.93-1.53,9.87c-.9,6.57-1.66,13.13-2.46,19.66s-1.66,13-2.78,19.46-2.11,12.88-2.82,19.64a64.63,64.63,0,0,0,7.84-18.56c1.66-6.49,3-13.05,4.07-19.62s2-13.13,2.91-19.66l.8-6a10.48,10.48,0,0,0,1,.55l.46.21h0a3.32,3.32,0,0,1,.81.75,5.41,5.41,0,0,1,.79,2.69C1073.56,610.45,1072.94,614.25,1072.37,618.12Z"/><path d="M609.45,983.18A46.86,46.86,0,0,1,627,967.7c-8.36.67-16.42,5.22-22.3,11.68a38.25,38.25,0,0,0-2.4,49.24c5.22,7,12.81,12.31,21.07,13.78a47,47,0,0,1-15.91-17.11,39.08,39.08,0,0,1,2-42.11Z"/><path d="M864.14,902.31a80.77,80.77,0,0,1-30.94,13.43,97,97,0,0,1-16.9,2.19,43,43,0,0,1-16.18-2.2,23.29,23.29,0,0,1-6.85-3.91,20.16,20.16,0,0,1-5-6.25,19.76,19.76,0,0,1-2.35-7.9,15.8,15.8,0,0,1,1.78-8.36,15,15,0,0,0-3.93,8.27,21.29,21.29,0,0,0,1,9.48,24.13,24.13,0,0,0,5,8.4,26.46,26.46,0,0,0,8,5.83c5.9,3,12.43,3.92,18.68,4a84.63,84.63,0,0,0,18.49-1.94c12.1-2.58,23.89-7.93,33.16-16.35a58,58,0,0,0,11.66-14.4,47.47,47.47,0,0,0,5.82-17.21A65,65,0,0,1,864.14,902.31Z"/><path d="M1002.94,548.65a30.15,30.15,0,0,0-8.69-5.49,19.16,19.16,0,0,0-9.93-1.3c6.62.76,12,4.66,15.9,9.46a43.06,43.06,0,0,1,5.22,7.74c.73,1.38,1.39,2.82,2.1,4.21s1.28,2.86,1.78,4.35a65.54,65.54,0,0,1,3,36.41,48.92,48.92,0,0,1-19.36,30,53.71,53.71,0,0,1-16.73,8.08,47.68,47.68,0,0,1-19.09,1.14,40.2,40.2,0,0,0,19.81,2.62,50.74,50.74,0,0,0,19.36-6.76,52.32,52.32,0,0,0,15.31-14.13,53.94,53.94,0,0,0,8.33-19.23,63.53,63.53,0,0,0-5-40.47A51.66,51.66,0,0,0,1002.94,548.65Z"/><path d="M579,895.74a158.87,158.87,0,0,1-24.37-3.91c-4-1-8.14-1.93-12.14-3a67.86,67.86,0,0,1-11.79-4.24,43,43,0,0,0,10.79,6.93,127.87,127.87,0,0,0,11.89,4.73,117.48,117.48,0,0,0,12.38,3.48,103.25,103.25,0,0,0,12.81,1.89,69.74,69.74,0,0,0,25.84-2.66,49.38,49.38,0,0,0,22-13.14,72.83,72.83,0,0,1-23.1,8.71A90.37,90.37,0,0,1,579,895.74Z"/><path d="M170.73,779.87a39.93,39.93,0,0,0-9.52,2.61,26.5,26.5,0,0,0-8.58,5.58,29.1,29.1,0,0,0-8.11,18.28,31.07,31.07,0,0,0,4.62,19.11,37,37,0,0,0,14.18,12.91,43.43,43.43,0,0,0,18,4.92,51.63,51.63,0,0,1-16.5-7.38,36.72,36.72,0,0,1-11.71-12.74A27.66,27.66,0,0,1,150,806.85a23.88,23.88,0,0,1,6.7-14.62c3.65-3.83,9.28-5.84,14.86-6.9A28.91,28.91,0,0,1,180,785a35,35,0,0,1,8.27,2.19c11.3,4.58,22.87,8.61,32.58,16.28a58.74,58.74,0,0,0-14.35-11.82c-5.36-3.23-10.84-6-16.46-8.66a34.14,34.14,0,0,0-9.34-3.05A33.59,33.59,0,0,0,170.73,779.87Z"/><path d="M779.72,777.77a32.75,32.75,0,0,1-4.22-22.48c1.14-7.63,4.49-14.73,8.64-21.23a88,88,0,0,1,34-30.51,85.81,85.81,0,0,1,21.71-7.61,50.64,50.64,0,0,1,11.23-1.27,20,20,0,0,1,10.14,2.6,12,12,0,0,1,3.57,3.5,17.87,17.87,0,0,1,2.14,4.87,53.57,53.57,0,0,1,1.55,11.41c.42,7.75-.49,15.77-4.51,22.73a30.33,30.33,0,0,0,5.5-10.7,51.06,51.06,0,0,0,1.89-12,55.76,55.76,0,0,0-.7-12.3,20.15,20.15,0,0,0-2.26-6.18,16.6,16.6,0,0,0-4.6-5.06,23.26,23.26,0,0,0-12.5-4,54.82,54.82,0,0,0-12.49,1,88.46,88.46,0,0,0-23.31,7.83,92,92,0,0,0-20.12,14.13,85.33,85.33,0,0,0-15.18,19.25c-4,7.08-7.06,15-7.59,23.28S774.36,771.74,779.72,777.77Z"/><path d="M986.3,616.16A51.64,51.64,0,0,0,994,591.73a46.89,46.89,0,0,0-1.14-12.87,38.29,38.29,0,0,0-5.1-11.91A38.81,38.81,0,0,0,968,551.22a29.66,29.66,0,0,0-12.52-1.47,19.59,19.59,0,0,0-11.26,4.89,19.79,19.79,0,0,1,11.35-3.27,28.23,28.23,0,0,1,11.4,2.52A36.77,36.77,0,0,1,987.81,580a40.73,40.73,0,0,1,.62,11.41A46.8,46.8,0,0,1,981.37,613a33.39,33.39,0,0,1-17.07,14,35.05,35.05,0,0,1-11.09,2.15,26.92,26.92,0,0,1-10.93-1.73c-3.32-1.34-6.07-4-8.62-7a47.79,47.79,0,0,1-6.57-9.77c-3.56-6.93-4.79-15.41-1.73-23.06a24,24,0,0,0-3.24,11.87,32.42,32.42,0,0,0,2.34,12.35,50,50,0,0,0,6.18,11,26.69,26.69,0,0,0,9.74,8.76,29.22,29.22,0,0,0,12.89,2.71,40.63,40.63,0,0,0,12.87-2.05A38.67,38.67,0,0,0,986.3,616.16Z"/></g></g></svg>