<svg xmlns="http://www.w3.org/2000/svg" viewBox="0 0 558.22 856.45"><title>Asset 3</title><g id="Layer_2" data-name="Layer 2"><g id="Layer_1-2" data-name="Layer 1"><path d="M11.57,209.5c5.89,29.43,22.87,59,44.68,77.36,17.45,14.7,40.27,25.05,57.52,28.77a53.59,53.59,0,0,0,6.5,24.2l-.19-.13c-6.3,9.33-9.14,28.73-9.82,38.73-.2,3-.32,6-.45,9-.28,7.06-.57,14.35-2,21.25-.8,3.82-2,7.69-3.17,11.43q-.78,2.49-1.52,5c-3.55,12.13-4.9,22.68-4.15,32.23a69.38,69.38,0,0,0,2.46,14.42c.78,2.61,0,7.67-.65,12.13s-1.31,8.71-.9,12.12a96.79,96.79,0,0,0-9,15.63c-3.1,7.08-6.6,15.1-7.34,23.59C82,553.24,93.24,572,112.24,583a65.93,65.93,0,0,0,10.13,4.63c3.73,17.7,11.76,38.41,20.17,51.93a14.36,14.36,0,0,0,5.22,5.5v11.34c-.95.37-1.91.74-2.86,1.15a68.93,68.93,0,0,0-15.09,8.87,49.45,49.45,0,0,0-11.87,13.19,43.37,43.37,0,0,0-5.68,15.33c-13.51,11.65-43.79,25.91-60.19,29.79a82.68,82.68,0,0,1-13.31,1.71c-9.7.71-18.85,1.39-26.41,10.1-8.12,9.35-6.41,18.78-3.53,29.26a48.25,48.25,0,0,0,3.51,9,32.74,32.74,0,0,0-1.73,13.74c2.44,31.19,26.18,31.62,36.31,31.8h1.17a26,26,0,0,0,15.08-4.91,136.14,136.14,0,0,0,46.06,7.7c4.65,0,9.37-.22,14.13-.65,0,.49,0,1,0,1.47,2.37,31.91,25.4,32.35,35.24,32.54h1.13A25,25,0,0,0,177.28,849c6.57-6.43,10.33-16.09,10.33-26.5a47.56,47.56,0,0,0-2.71-16.44c24.15-10.14,46.92-23.46,69.2-36.51l74.63-43.72c28.52-16.72,58-34,86.3-52.3,17.61-11.38,32.79-21.95,46.27-32.21,7.18,7.44,17.65,8.26,23.35,8.7l.6.05c.6,0,1.21.07,1.81.07A24.09,24.09,0,0,0,502.91,644c6.1-5.31,9.9-13.43,10.42-22.28.51-8.53-1.24-16-5.07-21.75-.14-.2-.3-.38-.44-.58,17.7-20.72,26-40.87,25.33-61.07-.28-8.1-2.19-14.81-5.67-19.94-4.85-7.17-18-14-25.37-16.37-20.11-6.47-37.49-7.24-51.82-2.35a76.88,76.88,0,0,0,7.6-20.63c3.83-17.72-6.08-44.9-17.15-56.42,14.86-12.7,35.22-40.7,41.14-51.2,7.37-13.1,11.08-26.5,11-39.81-.09-24.93-12.6-47.95-27.72-73.31l-2.67-4.49c.89-3,1.82-6.08,2.92-9,.89-2.35,2.41-7.45,4.5-14.51,5.63-19,15.05-50.76,24-67.91,7.17-13.68-.24-21.51-7.71-26.8a11.88,11.88,0,0,1,3.32-.7,60.91,60.91,0,0,0,9.31-1.23,22.77,22.77,0,0,0,9-4.56,30.13,30.13,0,0,0,3.57-3.48c1-1.29,2-2.57,2.87-3.92,3.47-5.5,5.21-11.33,8.31-16a51.68,51.68,0,0,1,12-12.22c4.65-3.59,9.69-6.85,14.62-10.41,1.23-.89,2.46-1.79,3.67-2.73a19.12,19.12,0,0,0,3.7-3.48A7.84,7.84,0,0,0,558,74.14a6.28,6.28,0,0,0-.12-3.41,8,8,0,0,0-4-4.47,10.46,10.46,0,0,0-5.46-1.08,19.6,19.6,0,0,0-4.93,1c-3,1-5.72,2.13-8.56,3.29s-5.42,2.32-8.09,3.56l7.69-9.51,5.69-7a37.22,37.22,0,0,0,5.35-7.81,16.76,16.76,0,0,0,1.57-4.87,12,12,0,0,0,.12-1.37,6.59,6.59,0,0,0-.19-1.69,6.29,6.29,0,0,0-1.71-2.9,5.76,5.76,0,0,0-3-1.57,5.47,5.47,0,0,0-3.53.53c-1.41.8-2.67,1.56-4,2.38A130.4,130.4,0,0,0,520.13,50c-4.66,3.89-9.1,8-13.4,12.28-.21.2-.41.42-.61.63q1.31-2.73,2.73-5.41c2.84-5.24,6-10.41,8.7-15.85,1.36-2.72,2.64-5.49,3.81-8.3.55-1.42,1.12-2.84,1.62-4.28.26-.75.5-1.35.78-2.23a8,8,0,0,0,.27-2.95,7.23,7.23,0,0,0-2.89-5.18,7.58,7.58,0,0,0-5.75-1.08,16,16,0,0,0-8.67,5.1A105.59,105.59,0,0,0,496,37.6c-3.19,5.16-6.11,10.44-9,15.74l-.52,1,.3-1.5C488,47,489.31,41.1,490.57,35.21c.63-2.94,1.24-5.9,1.8-8.88s1.28-5.85,1.28-9.26a12.21,12.21,0,0,0-.3-2.67,5.58,5.58,0,0,0-1.72-2.94,7.08,7.08,0,0,0-6-1.25,9.54,9.54,0,0,0-5,2.65l-.51.6-.35.49-.67,1c-.44.63-.87,1.27-1.28,1.92a95.84,95.84,0,0,0-8.4,16.33,160,160,0,0,0-5.74,17.3c-1.62,5.86-2.77,11.75-5,17.12a37.53,37.53,0,0,1-1.83,3.9c-.35.62-.7,1.24-1.09,1.84-.18.3-.38.59-.59.88a3.12,3.12,0,0,1-.42.56h0s0,0-.12,0l-.26-.09a5.92,5.92,0,0,1-1.39-.92,17.27,17.27,0,0,1-2.68-3,21.55,21.55,0,0,1-2.06-3.6,14.26,14.26,0,0,1-1.13-3.92,30.28,30.28,0,0,0-2.9-9.14,9.06,9.06,0,0,0-4.09-3.92,11.64,11.64,0,0,0-2.77-.66,10.35,10.35,0,0,0-7.82,2.46,15,15,0,0,0-3.23,4.15,19.39,19.39,0,0,0-1.78,4.76,16.17,16.17,0,0,0-.4,2.58c-.07,1,0,1.61,0,2.43a67.18,67.18,0,0,0,.78,9.3A77.06,77.06,0,0,0,430,93a62.33,62.33,0,0,0,8.8,15,12.26,12.26,0,0,1-.72,2.17,14.57,14.57,0,0,0-5.51-.94c-.27,0-.59,0-1,0-2.84-.07-8.08-.18-12.26,3.78-8.7,8.26-11.88,18.65-16.29,33-.51,1.67-1,3.41-1.6,5.18l-12.9-21.65a18.52,18.52,0,0,0-11.75-8.86c-20.41-4.37-45-.15-68,11.55a178.6,178.6,0,0,0-6.7-28.62,158.92,158.92,0,0,0-44.18-68.56,136.77,136.77,0,0,0-34.3-22.82A130.38,130.38,0,0,0,183.85,1.14a166.64,166.64,0,0,0-41.09.28c-.67.08-1.33.18-2,.27h0l-.12,0a156.94,156.94,0,0,0-37.75,9.78C77.3,21.66,54.75,38.76,37.12,59.72c-1.28,1.52-2.54,3.08-3.78,4.64h0v0A165.69,165.69,0,0,0,14.41,94,139,139,0,0,0,1.7,133.14a132.28,132.28,0,0,0-.16,41.23A150.79,150.79,0,0,0,11.57,209.5Zm15.81,17.19c-3.13-7.72-5.89-16.05-4.48-24.26,1.61-9.4,15-28.46,39.48-40.18-14.12,15-22.48,32.94-21.77,56.14.5,16.15,13.9,46.7,29.31,62.1C49.25,269.64,36.16,248.33,27.38,226.69Zm92.27,90a49.86,49.86,0,0,0,7.23.48,23.76,23.76,0,0,0,10.72,14,28.54,28.54,0,0,0,7.4,3.12,35.59,35.59,0,0,0,6,11.78,12,12,0,0,0-2.41,12.14l.29.9C132.34,352,120.46,334.68,119.65,316.67Zm190.46-122.3c1.7.69,3.38,1.46,5,2.27a116.24,116.24,0,0,1,13.65,8.15c2.26,1.55,4.47,3.17,6.65,4.83a67,67,0,0,0-20.31,6.72h0a19.86,19.86,0,0,0-4.72,3.51C312.75,212.26,314.65,202.65,310.11,194.37ZM338.93,325c1.47,1,2.83,1.87,4.14,2.64a51.8,51.8,0,0,1-6.55-.79,42.37,42.37,0,0,1-9.58-3,78.27,78.27,0,0,1-9.08-4.92,24.1,24.1,0,0,0,7.77,7.36,46.48,46.48,0,0,0,9.86,4.55,43.6,43.6,0,0,0,10.8,2,36,36,0,0,0,10.71-.9c3.66-.11,7.14-1.19,11.32-2.52,1.53-.49,3.18-1,5-1.55,17.3-5,23-8.16,31.52-13.61a73.87,73.87,0,0,1,1.28,8.61c.1,1.36.18,2.72.22,4.08a5.55,5.55,0,0,0-1.1,1,8.11,8.11,0,0,0-1.12,1.86,20.82,20.82,0,0,0-1.05,3.16c-.5,1.94-.89,3.8-1.42,5.23a8.67,8.67,0,0,1-.4.88,3.17,3.17,0,0,1-.22.32l-.4.49a22.37,22.37,0,0,1-1.8,1.85,39.33,39.33,0,0,1-4.3,3.3c-1.52,1-3.19,2.1-4.76,3.07A12.34,12.34,0,0,1,385,350c-3.42.58-7.57-.15-11.37,1.1,3.87.43,7.37,1.85,11.63,1.72a15.5,15.5,0,0,0,6.14-1.59c1.81-.84,3.51-1.65,5.29-2.57a34.8,34.8,0,0,0,5.18-3.24,24.76,24.76,0,0,0,2.42-2.07l.57-.58a6.56,6.56,0,0,0,.67-.81,10.69,10.69,0,0,0,.95-1.66c.09-.19.15-.37.23-.56a36.39,36.39,0,0,0,3.32,7.89c1.34,2.5,2.81,4.84,4.26,7.16,2.07,3.33,4.18,6.59,6,9.89a40.38,40.38,0,0,1-1.84,5.13,34.18,34.18,0,0,1-3.15,5.54,26.4,26.4,0,0,1-4.24,4.78,42.91,42.91,0,0,1-5.42,3.92,11.7,11.7,0,0,0,7-1.63,26.25,26.25,0,0,0,5.81-4.42,32.92,32.92,0,0,0,4.55-5.74c.11-.18.19-.38.3-.56a10.63,10.63,0,0,1,.42,3.53c0,.21,0,.56-.09.93l-.11,1.05c-.06.7-.14,1.41-.17,2.11-.1,1.42-.14,2.84-.13,4.27a48.54,48.54,0,0,0,.79,8.57c.25,1.4.59,2.81.87,4.06,0,.12.05.24.07.35-16.11,6.94-70.6,11.28-91.19,12.91l-1.69.14c-1.42-.45-3-.88-4.39-1.33-5.21-1.43-10.43-2.54-15.66-3.46a6.32,6.32,0,0,0,2.12-6.23c-1.94-10.63-8.23-27.75-13.78-42.86-2.93-8-5.7-15.51-7.37-20.9-3-9.73-8.47-23-20.6-25.75-6.24-1.42-12.54.52-17.6,2.08-1.86.57-5.09,1.53-9.3,2.79-21.94,6.51-67.24,20-90,29.37l.53-.43a29.57,29.57,0,0,1-4.37-7.49c1,.07,2,.12,3,.12a44.26,44.26,0,0,0,7.67-.69c8.18-1.45,15.76-4.84,22.81-8.19,41.49-19.68,76-43.51,102.55-70.83,5.69-5.86,11.72-12.65,16.3-20.47C296.65,275.14,316.41,309.35,338.93,325Zm70.78,6.69v0ZM373,422.81a65.77,65.77,0,0,0-11.32-4.64c-3.82-1.25-7.65-2.31-11.45-3.33l-2.45-.66c31.11-2.67,64.19-6.34,78.22-11.73,3.42,2.93,4.27,6.9,5.31,11.8a68.85,68.85,0,0,0,1.66,6.71c-20.38,5.73-36.91,7.85-53.18,6.85A30.1,30.1,0,0,0,373,422.81ZM156.7,349.12c9.35-3.92,23-8.63,37.25-13.25l15.3,33.61,12.83,7.59,8.28,20.9c-6.88-.17-13.76-.27-20.65-.25-7.89.06-15.85.21-23.87,1a135.65,135.65,0,0,0-16.17,2.69c-3.9-10.21-7.34-20.26-15.49-45.05C153.16,353.26,154.24,350.14,156.7,349.12Zm70.08,23.93-13-7.67-14.25-31.32c17.84-5.68,36-11.07,47.55-14.51,4.25-1.26,7.49-2.23,9.36-2.8,4.63-1.43,9.87-3,14.58-2,9.19,2.09,13.71,13.43,16.3,21.78,1.73,5.53,4.52,13.13,7.47,21.18,5.47,14.88,11.67,31.76,13.52,41.9.21,1.13-1.88,2-5.81,3.21l-1.11.36c-14.78-2-29.6-3.28-44.42-4.14-6.75-.39-13.51-.68-20.27-.91ZM107,470.06a63.37,63.37,0,0,1-2.23-13.21c-.7-8.83.58-18.69,3.93-30.13q.72-2.45,1.49-4.89c1.2-3.87,2.45-7.87,3.31-12,1.56-7.38,1.86-14.92,2.16-22.22.11-2.95.23-5.89.43-8.83.63-9.27,3.12-25,7.49-33.52a54.05,54.05,0,0,0,24.73,19.91l1.4-3.66c7.24,22,10.59,31.72,14.25,41.34-.63.18-1.26.32-1.88.51a90.81,90.81,0,0,0-22.3,10.11,72.6,72.6,0,0,0-18.3,16.59,61.65,61.65,0,0,0-6.64,10.6l-1.31,2.86-1.16,2.93-1,3c-.26,1.11-.55,2.22-.75,3.33a43.45,43.45,0,0,0,.12,12.85c.56,4.1,1.42,8,2.21,11.82.24,1.16.46,2.3.68,3.43a47.32,47.32,0,0,0-7.6,7.1c.14-1.08.31-2.2.48-3.3C107.38,479.17,108.17,473.92,107,470.06ZM89.38,535.71c.66-7.53,3.82-14.77,6.87-21.76,3.34-7.65,11.11-19.84,18.45-26.36,0,.36.09.73.12,1.09a36.61,36.61,0,0,1,.12,5.32c0,.88-.2,1.68-.28,2.52l-.2,1.7a11.42,11.42,0,0,0-.08,1.93c.18,5.12,2.21,9.24,4.31,12.88a82.18,82.18,0,0,0,7.15,10c5.07,6.23,10.46,12,15.22,17.92a50.18,50.18,0,0,1,6.05,9.06,19.12,19.12,0,0,1,.92,2.26c.28.86.53,1.75.78,2.66l1.45,5.65c.5,2,1.06,4,1.77,6s1.36,3.76,2.1,5.63a97.17,97.17,0,0,0,5.11,11.11,52.67,52.67,0,0,0,4.75,7.27c-16.56-2.32-36.16-5.38-48.82-12.69C101.21,569.83,87.82,553.66,89.38,535.71Zm58.13,100.72a120.18,120.18,0,0,1-6.43-11.92,25.7,25.7,0,0,0,4.57-.09,38.29,38.29,0,0,0,9.88-2.57,57.15,57.15,0,0,0,8.86-4.41,28.24,28.24,0,0,0,7.43-6.51,70.66,70.66,0,0,0-9.23,2.86c-2.92,1.11-5.84,2.15-8.77,3-5.41,1.5-11,2.33-15.71,1.1a182.68,182.68,0,0,1-9.27-28.11c12.12,3.56,25.81,5.47,37.59,7.1l5.09.72c.17.1.32.24.5.34l1.55.85,1.21.61a24.3,24.3,0,0,1,2.24,1.3c5.73,3.57,9.12,10.15,11.4,17.25a94.14,94.14,0,0,1,2.78,11l.31,1.49c.07.33.18.65.28,1-1.84.68-3.65,1.38-5.39,2.07-8.71,3.45-17,6.72-30.92,6.49-.71,0-1.43,0-2.15.1a6.36,6.36,0,0,1-2.66-.1C149.45,639.43,148.44,637.92,147.51,636.43Zm37.25,13.33c-2.08,0-4.15,0-6.22.11a101.73,101.73,0,0,0-24.92,4.43v-8.41h.17a12.6,12.6,0,0,1,1.6-.08c15.15.21,24.3-3.4,33.17-6.91l2.9-1.14A54.45,54.45,0,0,0,184.76,649.76Zm-67.5,48.57.16-.15-.14-.15c0-.3,0-.6.07-.89.1-.83.28-1.65.43-2.47a38.09,38.09,0,0,1,4.63-12.41c5.4-9.17,14.52-15.87,24.45-20.3a93.85,93.85,0,0,1,31.94-7.59c2.91-.18,5.83-.23,8.74-.14,2.59.08,5.18.26,7.74.58,5.47.78,10.63,1.74,16.54,2.27-4.34-4.24-10.29-5.88-16-6.57-.53-.07-1.06-.11-1.59-.17q-1.62-.2-3.24-.33a48.94,48.94,0,0,1,6.17-10.12c.32.31.64.61,1,.9a32.83,32.83,0,0,0,5.37,3.83l.32.16a21.2,21.2,0,0,0,6.25,2.2,34.35,34.35,0,0,0,13-.4,116.65,116.65,0,0,0,11.72-3.15c3.79-1.22,7.58-2.46,11.32-3.9a131.41,131.41,0,0,0,21.77-10.37,97.76,97.76,0,0,0,10-6.93,76.61,76.61,0,0,0,8.95-8.43c.09-.09.17-.21.27-.31l7.16,8.63a62.39,62.39,0,0,1,7.62,11.37,64.52,64.52,0,0,1,7.29,26.2l.06,1c-3.67,10.85-13.28,23.9-49.81,32.49-7.23,1.7-12.2,5.71-17,9.58a59.19,59.19,0,0,1-11.94,8.06c-19.15,9.11-42.11,15.27-64.64,17.34-20.86,1.92-29.43.87-33-.34-7.57-2.61-13.3-8.41-14.59-14.78l-.14,0h0A50.07,50.07,0,0,1,117.26,698.33ZM326.4,573.11a42.07,42.07,0,0,1-11,4.23,48.36,48.36,0,0,1-11.64,1.28,43.41,43.41,0,0,1-10.22-1.38c-1.16-1.15-2.27-2.13-3.17-3.09a8.1,8.1,0,0,1-2.2-3.65c-.77-2.67.2-6.71-.13-11.16a35,35,0,0,0-3.17-12.43c-.17-.38-.38-.73-.56-1.1A286.08,286.08,0,0,0,347,553.19c4,0,7.93-.12,11.77-.32-.8,1.14-1.65,2.34-2.57,3.6-6.33,8.73-15,19.68-20.35,24s-11,9-17.6,10.88c-6.94,2-15.65,2.06-19.34-1.08,0-.2,0-.4,0-.6a17.09,17.09,0,0,0-.7-5.12c-.08-.28-.2-.56-.3-.84a42.5,42.5,0,0,0,6,0,51.82,51.82,0,0,0,6.81-.91,44.57,44.57,0,0,0,5.84-1.6,45.82,45.82,0,0,0,11.39-5.8,27.45,27.45,0,0,0,6.44-6.33,20,20,0,0,0,1.86-3.11A51.2,51.2,0,0,1,326.4,573.11Zm-32.09,30.8a35.33,35.33,0,0,0,3.41-7.43,24,24,0,0,0,10.57,2.12A43.39,43.39,0,0,0,319.84,597c7.71-2.25,14.05-7.41,19.65-12,7.92-6.44,21.06-24.17,26.67-32.67q6.6-.6,12.76-1.64c-1.61,4-5.36,9-9.82,15-7.73,10.35-17.34,23.23-23.9,40.72s-14.88,29.82-34.12,33.49a71.28,71.28,0,0,0-4-9.14,68.26,68.26,0,0,0-8.31-12.39l-7.87-9.48C292.1,607.26,293.23,605.66,294.31,603.91Zm-178.55,118A29.53,29.53,0,0,0,131,733.36c3.34,1.15,8.41,1.72,15.32,1.72,5.51,0,12.18-.37,20.08-1.09,23.19-2.13,46.85-8.48,66.62-17.88a64.55,64.55,0,0,0,13.1-8.79c4.69-3.78,8.75-7.05,14.68-8.44,36.11-8.49,48-21.62,52.86-33.25a11.85,11.85,0,0,1,.93,1.72,15.7,15.7,0,0,1,1.42,6.86A15.51,15.51,0,0,1,314.3,681c-.25.52-.59,1-.88,1.5s-.66.91-1.08,1.41c-.89,1-1.78,2.06-2.7,3a49,49,0,0,1-12.34,9.85,61.35,61.35,0,0,1-15,5.54q-4,.93-8,1.57l-2,.3-1,.16-1.31.24a24.59,24.59,0,0,0-4.56,1.62,122.16,122.16,0,0,0-15,8.72c-4.72,3.09-9.35,6.3-14,9.17-1.16.71-2.33,1.4-3.46,2-.59.3-1.08.55-1.68.8l-1.92.79c-2.54,1.07-5.11,2.06-7.71,3a188.38,188.38,0,0,1-65,11.2c-5.52,0-11.05-.29-16.55-.74-2.76-.3-5.52-.46-8.14-.92a69.75,69.75,0,0,1-7.88-1.71,28.31,28.31,0,0,1-3.55-1.25,9,9,0,0,1-2.62-1.79,9.66,9.66,0,0,1-2.66-5.81A23.68,23.68,0,0,1,115.76,721.87Zm197.06-76.36c22.73-4.61,31.66-20.49,37.86-37,6.27-16.7,15.61-29.21,23.11-39.27,6-8,10.54-14.13,11.59-19.73,2.89-.61,5.7-1.3,8.39-2.07-2.67,6.83-8.51,15.18-14.21,23.31-3.35,4.78-6.82,9.73-9.55,14.27-4.76,7.94-7.9,16.7-10.94,25.17-.76,2.12-1.52,4.24-2.31,6.35-3.53,9.48-8.19,20.22-16,27.92-7.56,7.47-17.71,11-26.29,9.28A71.1,71.1,0,0,0,312.82,645.51ZM16.43,788a29.37,29.37,0,0,1,.16-6.18A76.18,76.18,0,0,0,27.26,794c.52.47,1.06.91,1.58,1.38a28.21,28.21,0,0,0,4.44,13.08,23.33,23.33,0,0,0,5.31,5.5C28.8,812.65,18,807.8,16.43,788Zm39.71,24.66a18.16,18.16,0,0,1-18-7.53,18.46,18.46,0,0,1-2-3.94,105.73,105.73,0,0,0,20.12,11.42Zm73.09,10.8c0-.57,0-1.12,0-1.67q6-.75,12-1.95c-.1.95-.18,1.93-.23,2.93-.31,5.77-.2,14.27,4.39,21.48a23.54,23.54,0,0,0,5.37,5.83C141.23,848.8,130.74,843.85,129.23,823.46Zm52.53-1c0,8.85-3.13,17-8.58,22.32a20.57,20.57,0,0,1-5.68,4,17,17,0,0,1-17.24-7.69c-2.81-4.4-3.91-10.12-3.48-18,.08-1.62.24-3.13.43-4.59,3.76-.88,7.49-1.83,11.18-2.91a17.94,17.94,0,0,0-1.49,5.13c-1,6.9,1.92,13.07,6.43,13.77s8.95-4.33,9.91-11.23c.65-4.73-.49-9.11-2.73-11.62,3-1.07,6-2.17,8.94-3.34A42.45,42.45,0,0,1,181.76,822.5ZM466,637.72q2.46-1.92,4.84-3.82a22.63,22.63,0,0,0,2.06,4.68,20.88,20.88,0,0,0,3.63,4.48A21.45,21.45,0,0,1,466,637.72Zm41.51-16.32h0a26.2,26.2,0,0,1-8.43,18.21,19.35,19.35,0,0,1-5.81,3.49,15.9,15.9,0,0,1-15.33-7.51,17.79,17.79,0,0,1-2.09-5.76c3-2.49,5.95-5,8.8-7.44.22,4.29,2.31,7.76,5.5,8.43,4.12.86,8.46-3.27,9.7-9.22.94-4.49-.17-8.72-2.53-10.91q3.42-3.39,6.5-6.76C506.57,608.45,507.89,614.6,507.49,621.4Zm-24.88-5c-19,16.72-41.51,33.31-70.76,52.22-28.18,18.23-57.62,35.47-86.08,52.15L251.15,764.5c-33.59,19.67-68.3,40-106.81,48.66,8.43-3.21,17.07-7.09,26.62-11.39,78.26-35.23,152-81.58,223.28-126.4,25.53-16,51.92-32.63,75.88-52,14.86-12,37.61-32.7,51.68-56.53C515,582.94,502.05,599.33,482.61,616.4Zm17.71-108.79c6.68,2.15,18.46,8.4,22.32,14.08,2.8,4.13,4.35,9.69,4.64,16.52-7,33-41.08,64.65-60.84,80.61-23.69,19.15-49.93,35.64-75.31,51.6-71.13,44.71-144.69,90.94-222.58,126-27.48,12.37-47.33,21.31-76,19.76h0c-24-2.85-45.46-11.88-61.3-26.55-8.72-8.08-14.37-16.64-16.78-25.43C11.41,753.07,11,747,16.77,740.34c6-6.88,13.23-7.41,22.42-8.09a87.44,87.44,0,0,0,14.23-1.86c15.51-3.66,42.45-15.91,58.17-27.46a59.05,59.05,0,0,0,1,10.38,43.84,43.84,0,0,0-2.42,7.76,29,29,0,0,0-.54,9.31,15.5,15.5,0,0,0,4.24,9.19,14.78,14.78,0,0,0,4.26,3,31.11,31.11,0,0,0,4.37,1.61,74.27,74.27,0,0,0,8.55,2c2.91.53,5.76.74,8.58,1.06,5.68.48,11.37.83,17.07.82a194.55,194.55,0,0,0,67.15-11.38c2.69-1,5.36-2,8-3.08l2-.81c.7-.29,1.46-.66,2.13-1,1.35-.7,2.61-1.44,3.84-2.2,4.91-3,9.52-6.19,14.2-9.23A122.27,122.27,0,0,1,268,712a18.46,18.46,0,0,1,3.35-1.23l.75-.14,1.07-.17,2.13-.33c2.84-.46,5.67-1,8.5-1.71a67.18,67.18,0,0,0,16.49-6.21,55.22,55.22,0,0,0,13.83-11.12c1-1.07,1.94-2.16,2.88-3.26.48-.58,1-1.29,1.47-1.94s.88-1.4,1.25-2.14a21.64,21.64,0,0,0,2.29-9.45,21.91,21.91,0,0,0-2.06-9.46,22.39,22.39,0,0,0-2.57-4.17c-.23-.25-.46-.51-.68-.77.69.05,1.39.08,2.09.08,9,0,18.65-4.09,26.05-11.39,8.61-8.51,13.61-20,17.37-30,.79-2.14,1.56-4.28,2.33-6.43,2.94-8.2,6-16.68,10.45-24.13,2.62-4.36,5.88-9,9.32-13.92,7.06-10.07,14.35-20.47,16.28-29,7.63-3.11,13-7.22,16.12-12.5.34-.57.65-1.15,1-1.73a14.65,14.65,0,0,1,2-3,14.85,14.85,0,0,1,4.63-2.82l1.1-.51a53.42,53.42,0,0,0,19-15.74C458.91,500.55,477.2,500.18,500.32,507.61Zm-48.15-29.78c-2.92,13.52-9.27,25.2-17.78,33.29a44.84,44.84,0,0,1-11.53,8l-1,.48a19.68,19.68,0,0,0-6.45,4.13,19.44,19.44,0,0,0-2.83,4.26c-.27.5-.54,1-.83,1.49-3.18,5.31-9.38,9.26-19,12.08a132,132,0,0,1-17.46,3.76A213.37,213.37,0,0,1,329,546.66c1.22-.61,2.42-1.26,3.58-2a50.2,50.2,0,0,0,7-5,17.35,17.35,0,0,0,5.09-6.92,79.11,79.11,0,0,1-6.74,4.7,47.85,47.85,0,0,1-7.18,3.63,73.5,73.5,0,0,1-14.88,4.34,297.21,297.21,0,0,1-33.81-6.12c.42-.17.85-.31,1.25-.51a33,33,0,0,0,6.09-3.81,33.32,33.32,0,0,0,5-5,15.85,15.85,0,0,0,3.27-6.17c-1.9,1.42-3.53,2.85-5.23,4.2a34.94,34.94,0,0,1-5.35,3.51,35.43,35.43,0,0,1-5.77,2.45,38.31,38.31,0,0,1-5.11,1.22,31.22,31.22,0,0,0-3.65-2.93,26.75,26.75,0,0,0-2.75-1.7l-1.18-.69a5.85,5.85,0,0,1-.95-.64c-2.46-1.79-3.84-4.74-4.59-8.22a101,101,0,0,1-1.41-11.22,53.66,53.66,0,0,0-2.18-11.95c-1.25-3.93-3.68-7.76-7.2-9.76a20.48,20.48,0,0,1,4,10.5,93.8,93.8,0,0,1,.29,11.43,61.54,61.54,0,0,0,.73,12.19,22,22,0,0,0,2.15,6.36,16.51,16.51,0,0,0,2.57,3.59,44.45,44.45,0,0,1,3.08,7,48.63,48.63,0,0,1,2,8.06,40.27,40.27,0,0,1,.46,8.36,85.53,85.53,0,0,1-.95,8.58,19,19,0,0,0,3.69-8.21,43.16,43.16,0,0,0-.17-18,28.89,28.89,0,0,1,3.08,2.67,30.22,30.22,0,0,1,6,8.79,28.77,28.77,0,0,1,2.57,10.26,40.26,40.26,0,0,1-.14,5.52,22.66,22.66,0,0,0,.38,6.79c0,.07.05.14.07.21a51.68,51.68,0,0,1-1.54,9.56c-.93,3.21-2.92,6.4-4.94,9.49a49.42,49.42,0,0,1-7.11,8.5,69.2,69.2,0,0,1-8.91,7A25.23,25.23,0,0,0,270.35,602,52.86,52.86,0,0,0,279,593.8a39,39,0,0,0,6.58-10.27,27.05,27.05,0,0,0,1.2-4.06c1.15,1.14,2.25,2.12,3.12,3.09a9.41,9.41,0,0,1,2.24,3.82,11.63,11.63,0,0,1,.33,4.56,19.79,19.79,0,0,1-.59,2.81c-1.57,5.59-5.54,11-9.79,15.7a71.06,71.06,0,0,1-8.22,7.66,88.65,88.65,0,0,1-9.36,6.38,123.14,123.14,0,0,1-20.74,9.74c-3.59,1.37-7.27,2.56-11,3.72a111.58,111.58,0,0,1-11,2.91,28.26,28.26,0,0,1-10.11.38l-.29,0a14.36,14.36,0,0,1-4.44-1.61,26.45,26.45,0,0,1-4.19-3,16.73,16.73,0,0,1-3.16-3.66,10,10,0,0,1-.94-2,9.1,9.1,0,0,1-.27-1l-.28-1.39c-.24-1.29-.55-2.57-.83-3.85.77,0,1.55-.05,2.32-.12,1.85-.16,3.68-.32,5.49-.66s3.61-.71,5.38-1.17a15.21,15.21,0,0,0,5.1-2.24,24.71,24.71,0,0,0-5.45-.51c-1.77,0-3.52-.08-5.27-.17s-3.47-.2-5.2-.39L195.8,618c-.21-.76-.4-1.52-.63-2.28a51.5,51.5,0,0,0-5.08-11.53,29.29,29.29,0,0,0-9.13-9.58c-.93-.62-1.88-1.16-2.83-1.67l-1.42-.72-1-.58a18,18,0,0,1-3.83-3.08,38.47,38.47,0,0,1-6.18-8.76,87.37,87.37,0,0,1-4.66-10.3c-.7-1.77-1.34-3.59-2-5.41-.18-.5-.33-1-.49-1.55q-.85-6.24-1.24-12.55c-.27-4.3-.27-8.62-.19-13s.51-8.74.45-13.24-.78-9.17-3.15-13a45.58,45.58,0,0,1,.39,12.91c-.37,4.29-1.2,8.58-1.75,13-.32,2.41-.52,4.82-.66,7.25a70.27,70.27,0,0,0-5.39-7.71c-5-6.33-10.37-12.07-15.18-18a84.36,84.36,0,0,1-6.5-9.11c-1.84-3.08-3.22-6.36-3.28-9.14a4.7,4.7,0,0,1,0-1l.14-1.23a31.43,31.43,0,0,0,.35-3.32,43,43,0,0,0-.14-6.44,108.35,108.35,0,0,0-2-12c-1.6-7.67-3.38-15.22-2.33-21.91.14-.82.36-1.61.53-2.42l.84-2.59,1-2.54,1.14-2.5a54.46,54.46,0,0,1,5.82-9.33,65,65,0,0,1,16.39-14.91,83.17,83.17,0,0,1,20.44-9.32A121.09,121.09,0,0,1,186.62,406c7.6-.81,15.35-1,23.16-1.12,15.59-.16,31.24.23,46.85,1s31.21,2,46.6,4.12a177.17,177.17,0,0,1,22.68,4.37c1.84.56,3.54,1,5.51,1.66s3.84,1.2,5.76,1.74c3.83,1.07,7.65,2,11.43,3,7.54,2,15,4.08,21.72,7.2a31.17,31.17,0,0,1,8.95,5.78c2.57,2.39,4.05,5.78,4.66,9.81a13.75,13.75,0,0,0,.76-6.15,12.54,12.54,0,0,0-.89-3.58q1.86.06,3.72.06c14.76,0,30.12-2.49,48.42-7.74C445.94,435.87,455.56,462.13,452.17,477.83Zm34.89-146.18c0,12.29-3.42,24.71-10.29,36.92-5.46,9.69-24.76,36.27-38.79,48.72-.37-1.42-.68-2.85-1-4.25-1.1-5.2-2.24-10.56-6.85-14.71a4.66,4.66,0,0,0,.06-.47,10.38,10.38,0,0,0-.3-2.74c-.31-1.41-.6-2.64-.82-3.91a42.69,42.69,0,0,1-.67-7.66c0-1.29,0-2.59.14-3.89,0-.65.11-1.3.16-2l.11-1c0-.31.08-.64.11-1.11a20.12,20.12,0,0,0-1.87-9.14c-2.32-5.36-5.4-9.94-8.25-14.55-1.42-2.29-2.83-4.57-4.06-6.87a31.39,31.39,0,0,1-2.89-6.88,9.76,9.76,0,0,1-.34-3.18c.06-1.37.22-2.8.23-4.2a79.52,79.52,0,0,0-.22-8.46A83,83,0,0,0,410,312.18q4.14-3,8-6.32c1.4-.85,2.88-1.74,4.48-2.67,12.38-7.25,26-16.59,33.37-30.86a72.65,72.65,0,0,0,4.35-10.94C474.86,286,487,308.22,487.06,331.65ZM429.71,74.32a61.32,61.32,0,0,1-1-8.62,14,14,0,0,1,.18-3.94,14.88,14.88,0,0,1,1.28-3.7c1.14-2.33,2.95-4.14,5.13-4.5a6.35,6.35,0,0,1,1.7-.11,9,9,0,0,1,1.61.31,5.19,5.19,0,0,1,2.3,2.21,26.51,26.51,0,0,1,2.61,7.93c.15.72.28,1.43.54,2.33a16.85,16.85,0,0,0,.91,2.35,25.63,25.63,0,0,0,2.48,4.17,20.17,20.17,0,0,0,3.32,3.63,8.82,8.82,0,0,0,2.39,1.47l.82.25a5.43,5.43,0,0,0,1,.06,2.83,2.83,0,0,0,1.08-.26,2.24,2.24,0,0,0,.93-.6,6,6,0,0,0,1-1.17c.23-.33.45-.65.66-1,.44-.67.83-1.35,1.21-2a42,42,0,0,0,2-4.25c2.32-5.79,3.54-11.75,5.27-17.41a153.62,153.62,0,0,1,6-16.76,98.56,98.56,0,0,1,8.18-15.61c.39-.62.8-1.22,1.22-1.82l.63-.9.3-.43.21-.26a5.62,5.62,0,0,1,2.81-1.5,3.33,3.33,0,0,1,2.61.31c.35.15.71,1.36.72,2.68a57.92,57.92,0,0,1-.93,8.6c-.44,2.94-.94,5.89-1.46,8.84-1,5.91-2.15,11.81-3.28,17.72l-.82,4.45L482.92,59l-.19,1.12-.09.56-.05.28a1.92,1.92,0,0,0,0,.75A1.51,1.51,0,0,0,484,62.9a1.55,1.55,0,0,0,1.42-.85l.27-.5.52-1,1-2,2.14-3.94c2.86-5.25,6-10.37,9.25-15.34a109.82,109.82,0,0,1,10.78-14A12.33,12.33,0,0,1,516,21.41a3.76,3.76,0,0,1,2.88.47,3.48,3.48,0,0,1,1.36,2.46,4.22,4.22,0,0,1-.11,1.51l-.68,2c-.47,1.4-1,2.78-1.52,4.17-1.05,2.76-2.17,5.5-3.41,8.2-2.47,5.4-5.32,10.65-8.11,16-1.39,2.68-2.73,5.41-3.95,8.2l-.45,1-.22.52-.11.26a1.93,1.93,0,0,0-.14,1,1.76,1.76,0,0,0,1.37,1.48,1.85,1.85,0,0,0,1.74-.53l.79-.8c1-1.07,2.1-2.11,3.16-3.15a151.47,151.47,0,0,1,13.55-11.64,157.17,157.17,0,0,1,14.72-10c1.25-.74,2.59-1.49,3.81-2.14a1.53,1.53,0,0,1,1.74.42,2,2,0,0,1,.56.93,1.8,1.8,0,0,1,0,.53,6.69,6.69,0,0,1-.08.88,12.75,12.75,0,0,1-1.2,3.66,28.4,28.4,0,0,1-2.12,3.57C538.88,51.63,538,52.76,537,54L531.42,61,520.2,75.13l-.71.88-.09.11a2.42,2.42,0,0,0-.37.65,2.27,2.27,0,0,0,1.51,3,2.35,2.35,0,0,0,1.66-.17l2-1,4-1.88q4.07-1.84,8.21-3.49c2.73-1.08,5.6-2.19,8.29-3.08S550.07,69,551.9,70a3.79,3.79,0,0,1,1.9,2,2.41,2.41,0,0,1-.63,2.23,14.64,14.64,0,0,1-2.91,2.6c-1.17.89-2.37,1.75-3.58,2.61-4.86,3.41-10,6.62-14.87,10.31A56.49,56.49,0,0,0,518.55,103c-3.63,5.38-5.46,11.26-8.53,15.88s-7.27,8.27-12.42,9.41a57.28,57.28,0,0,1-8.56.92,17.31,17.31,0,0,0-5.26,1.13,8.57,8.57,0,0,0-3,2.13c-9-4.82-27.54-14.57-37.41-19.73a16.87,16.87,0,0,0,1.44-5.3l.12-1.24-.84-.95C436.59,96.81,431.84,85.68,429.71,74.32Zm-21.09,73.43c4.15-13.52,7.14-23.29,14.72-30.49,2.05-2,4.79-2.2,7-2.2l1.15,0c.47,0,.89,0,1.24,0a9.43,9.43,0,0,1,4.62,1.14c14.6,7.6,43.68,23,45.24,23.9,8.93,6.23,10.57,11.34,6.27,19.56-.9,1.71-1.8,3.59-2.69,5.54a44.25,44.25,0,0,0-4.51-4.47,53.29,53.29,0,0,0-9.35-6.41,73.39,73.39,0,0,0-10.2-4.53,41.42,41.42,0,0,0-10.78-2.43c3.24,1.81,6.5,3.34,9.69,5a71.35,71.35,0,0,1,9.14,5.45,58.28,58.28,0,0,1,8,6.71,47.47,47.47,0,0,1,5.41,6.66c-2.47,5.95-4.89,12.55-7.21,19.29a16.5,16.5,0,0,0-2-3.39,25.51,25.51,0,0,0-4.28-4.34,16.52,16.52,0,0,0-5.13-3,28.27,28.27,0,0,0,3.13,4.87,25.93,25.93,0,0,1,2.79,4.57A16.14,16.14,0,0,1,472.2,194a48.85,48.85,0,0,0,.94,5.78h.06c-3.42,10.55-6.48,20.85-8.86,28.88-2,6.68-3.55,12-4.36,14.11-1.36,3.59-2.45,7.3-3.51,10.89-1.68,5.68-3.26,11-5.81,16-6.65,12.94-19.46,21.66-31.12,28.49-6.67,3.91-11.46,7-15.31,9.5-9.87,6.39-14.38,9.3-32.52,14.55-1.89.54-3.59,1.09-5.17,1.59-9.21,2.94-13,4.16-24.28-3.64-22.06-15.29-41.3-49.83-31.41-89.55a14.05,14.05,0,0,1,7-9.07h0c12.2-6.42,23.74-7.06,34.91-7.69,6-.33,11.66-.67,17-1.93a41.38,41.38,0,0,1,17.5,2.35,20.4,20.4,0,0,1,3.78,2c1.26.84,2.49,1.75,3.68,2.71a76.66,76.66,0,0,1,6.8,6.35,150.94,150.94,0,0,1,12.14,14.59c3.8,5.09,7.28,10.41,11,15.71A92.76,92.76,0,0,0,416,238.35a155.37,155.37,0,0,0-11.36-15.77,68.83,68.83,0,0,0-6.83-7.17c-1.24-1.11-2.53-2.19-3.89-3.19a24.67,24.67,0,0,0-4.54-2.74,35.87,35.87,0,0,0-9.53-2.77c6.48-7.69,17.7-27.56,18.77-30.16C403.2,165.44,406.08,156.05,408.62,147.75Zm-25.13-15.18L399,158.64c-1.63,4.85-3.5,10.05-5.82,15.68-2,4.93-16.17,28-18.92,30-6.18,2.84-13.44,3.25-21.84,3.72-2.92.16-5.95.33-9.06.62-3.66-3-7.41-5.88-11.31-8.58q-2.88-2-5.88-3.83l1.25-2c14.32-23.6,32.07-52.77,52-66A14,14,0,0,1,383.49,132.57Zm-10.95-6.69c-19.46,14.81-36.32,42.55-50.09,65.23l-1.29,2.13c-1.13-.62-2.26-1.23-3.41-1.81a65.94,65.94,0,0,0-11.66-4.6c.16-.59.33-1.16.48-1.75A130.32,130.32,0,0,0,310,144c-.13-1.84-.3-3.69-.49-5.52C330.8,127.21,353.47,122.7,372.54,125.88ZM141.77,7.47c.57-.08,1.14-.17,1.72-.24A160.41,160.41,0,0,1,183.14,7a124.78,124.78,0,0,1,37.94,10.62,131.27,131.27,0,0,1,32.84,21.86,153,153,0,0,1,42.53,66A164,164,0,0,1,304,144.37a130.64,130.64,0,0,1-3.31,39.24,127,127,0,0,1-15.33,36.28c-7,11.27-15.35,21.6-24,32.09a106,106,0,0,0,28.44-29.26,127.1,127.1,0,0,0,13.79-27.59c5.75,7.49,3.23,17.34-.26,27.64-3.87,11.41-12.25,21-19.94,28.95-26.07,26.82-60,50.24-100.86,69.62-6.69,3.18-13.86,6.39-21.32,7.72-7.87,1.38-15.17.35-20.56-2.91a18.26,18.26,0,0,1-7.82-9.7c32.45-6.47,99.6-39.2,122.44-67.51a15.28,15.28,0,0,0,3.14-11.25c-2.2-20.74-5-39.64-9.89-56.93,7.53,5.71,15.9,8.92,23.94,8.92a28,28,0,0,0,11.48-2.4c18.74-8.33,24.72-36,13.32-61.62s-35.92-39.75-54.67-31.42c-12.38,5.5-19.18,19.43-19.09,35.64a144.37,144.37,0,0,0-31.43-29.1,5.52,5.52,0,0,0-3.47-1c-27.64,1.61-61,10.12-92.19,25-11.64-23.67-13.7-44.69-6.92-69.44C95.61,32.92,117.57,12.84,141.77,7.47Zm31.78,148c-10.93.87-20.27-4.48-20.86-11.94s7.78-14.22,18.71-15.09,20.27,4.47,20.86,11.94S184.48,154.55,173.55,155.42Zm25.37,2.71a7.39,7.39,0,1,1-6.78,8A7.39,7.39,0,0,1,198.92,158.13Zm89.29,19.16a12.86,12.86,0,0,1-9.92.67c-4-1.2-7.54-3.78-10.17-5.89a78.81,78.81,0,0,1-28.63-51.18c-1.32-10.42.63-17.61,5.77-21.42a22.71,22.71,0,0,1,8.94-1.81c14,0,29.47,11.9,37.69,30.37C300.36,147.11,298.41,167.18,288.21,177.29Zm-54.53-55.67a84.68,84.68,0,0,0,30.78,55,37,37,0,0,0,11.94,6.86c-15,2.65-32.77-9.69-41.79-30-6.94-15.6-6.91-31.9-1.1-42.85A46.87,46.87,0,0,0,233.68,121.62ZM38.14,67.73q1.7-2.15,3.46-4.24c17.08-20.3,38.84-36.77,63.47-46.56,2.79-1.13,5.62-2.14,8.47-3.08-14.3,10-25.47,24.43-29.71,39.92-7.1,25.89-4.85,48.78,7.31,73.57C72.08,136.93,54,148.92,38.69,163.19,24.93,136.06,20.43,95.46,38.14,67.73ZM7.48,134.08A132.85,132.85,0,0,1,19.66,96.55c1-2.08,2.12-4.13,3.24-6.16-5.57,26.2.18,55.83,11.39,77A153.81,153.81,0,0,0,12.37,194.7a138.4,138.4,0,0,1-5-21.22A126.37,126.37,0,0,1,7.48,134.08Z"/><path d="M267.71,372.69c9.05-3.54,12.71-15.87,8.16-27.47s-15.61-18.16-24.64-14.62-12.71,15.87-8.16,27.47a26.26,26.26,0,0,0,10.26,12.8,17.34,17.34,0,0,0,9.16,2.8A14.18,14.18,0,0,0,267.71,372.69Zm-11.29-6.79a20.4,20.4,0,0,1-7.9-10c-3.37-8.59-1.2-17.51,4.84-19.88a8.55,8.55,0,0,1,3.12-.58c5.35,0,11.13,4.72,13.94,11.89,3.37,8.59,1.19,17.51-4.84,19.88C262.8,368.32,259.55,367.85,256.42,365.9Z"/><path d="M266.88,349.66c-2.06-5.25-6.9-8.27-10.82-6.73s-5.44,7-3.38,12.29,6.9,8.26,10.83,6.73S268.94,354.91,266.88,349.66Z"/></g></g></svg>