<svg height="512" viewBox="0 0 64 64" width="512" xmlns="http://www.w3.org/2000/svg"><g id="Layer_18" data-name="Layer 18"><path d="m2 50v-48h28l6 6v42z" fill="#e0e0e0"/><path d="m30 2h-28v42h26a4 4 0 0 0 4-4v-36z" fill="#f2f2f2"/><path d="m2 28h34v22h-34z" fill="#aa2b24"/><path d="m32 40v-12h-30v16h26a4 4 0 0 0 4-4z" fill="#d24034"/><path d="m10 12h12v10h-12z" fill="#686868"/><path d="m22 14 6-2v10l-6-2z" fill="#868686"/><path d="m10 12v7h6a3 3 0 0 0 3-3v-4z" fill="#868686"/><path d="m30 2v6h6z" fill="#ccc"/><path d="m28 62v-48h28l6 6v42z" fill="#e0e0e0"/><path d="m28 41h-2.179l2.179-3.425v-3.725l-4.844 7.613a1 1 0 0 0 .844 1.537h4z" fill="#fff"/><path d="m56 14h-28v42h26a4 4 0 0 0 4-4v-36z" fill="#f2f2f2"/><path d="m36 24h12v10h-12z" fill="#686868"/><path d="m48 26 6-2v10l-6-2z" fill="#868686"/><path d="m36 24v7h6a3 3 0 0 0 3-3v-4z" fill="#868686"/><path d="m28 40h34v22h-34z" fill="#f3a845"/><path d="m58 52v-12h-30v16h26a4 4 0 0 0 4-4z" fill="#eecc61"/><path d="m14 45h-2v-6.764l-1.1 2.211a1.042 1.042 0 0 1 -1.79 0l-1.11-2.211v6.764h-2v-11a1 1 0 0 1 1.9-.447l2.1 4.211 2.105-4.211a1 1 0 0 1 1.895.447z" fill="#fff"/><path d="m18 45h-2v-11a1 1 0 0 1 1-1h2a4 4 0 0 1 0 8h-1zm0-6h1a2 2 0 0 0 0-4h-1z" fill="#fff"/><path d="m56 14v6h6z" fill="#ccc"/><path d="m56.293 6.293-1.293 1.293v-3.586a1 1 0 0 0 -1-1h-15v2h14v2.586l-1.293-1.293-1.414 1.414 3 3a1 1 0 0 0 1.414 0l3-3z" fill="#686868"/><path d="m11 56.414 1.293 1.293 1.414-1.414-3-3a1 1 0 0 0 -1.414 0l-3 3 1.414 1.414 1.293-1.293v3.586a1 1 0 0 0 1 1h15v-2h-14z" fill="#686868"/><g fill="#fff"><path d="m57 47v-2h-6v2h2v8h-2v2h6v-2h-2v-8z"/><path d="m38.948 45.684a1 1 0 0 0 -.948-.684h-2a1 1 0 0 0 -.948.684l-2 6a1 1 0 0 0 -.052.316v5h2v-4h4v4h2v-5a1 1 0 0 0 -.052-.316zm-2.227 1.316h.558l1.334 4h-3.226z"/><path d="m48 49.838-1.721 5.162h-.558l-1.721-5.162v-4.838h-2v5a1 1 0 0 0 .052.316l2 6a1 1 0 0 0 .948.684h2a1 1 0 0 0 .948-.684l2-6a1 1 0 0 0 .052-.316v-5h-2z"/></g></g></svg>