<svg id="Capa_1" enable-background="new 0 0 512 512" height="512" viewBox="0 0 512 512" width="512" xmlns="http://www.w3.org/2000/svg"><g><g><g><path d="m5.127 141.341-5.127 9.235v266.984c0 17.618 14.282 31.9 31.9 31.9h448.2c17.618 0 31.9-14.282 31.9-31.9v-266.984l-5.127-9.235z" fill="#736e6e"/></g></g><g><g><path d="m192.259 317.912c-2.224.001-4.432-.955-5.96-2.804l-46.497-56.26c-2.361-2.857-2.361-6.987 0-9.844l46.497-56.26c2.718-3.29 7.589-3.753 10.878-1.034 3.289 2.718 3.752 7.589 1.033 10.878l-42.43 51.338 42.43 51.338c2.718 3.289 2.256 8.159-1.033 10.878-1.44 1.189-3.185 1.77-4.918 1.77z" fill="#ddeafb"/></g><g><path d="m319.915 317.912c-1.733.001-3.478-.58-4.919-1.771-3.289-2.718-3.751-7.589-1.033-10.878l42.43-51.338-42.43-51.338c-2.718-3.289-2.256-8.159 1.033-10.878 3.29-2.718 8.159-2.256 10.878 1.034l46.497 56.26c2.361 2.857 2.361 6.987 0 9.844l-46.497 56.26c-1.528 1.849-3.735 2.805-5.959 2.805z" fill="#ddeafb"/></g><g><path d="m229.448 317.914c-1.103 0-2.222-.237-3.286-.738-3.861-1.817-5.517-6.421-3.7-10.281l52.97-112.52c1.818-3.861 6.421-5.519 10.282-3.7 3.861 1.817 5.517 6.421 3.7 10.281l-52.97 112.52c-1.317 2.798-4.097 4.438-6.996 4.438z" fill="#ddeafb"/></g></g><g><g><path d="m459.765 141.341v223.983c0 17.618-14.282 31.9-31.9 31.9h-427.865v20.335c0 17.618 14.282 31.9 31.9 31.9h448.2c17.618 0 31.9-14.282 31.9-31.9v-266.983l-5.127-9.235z" fill="#595454"/></g></g><g><g><path d="m480.1 62.54h-448.2c-17.618 0-31.9 14.282-31.9 31.9v56.136h512v-56.136c0-17.618-14.282-31.9-31.9-31.9z" fill="#698ed5"/></g></g><g><g><path d="m480.1 62.54h-20.335v88.036h52.235v-56.136c0-17.618-14.282-31.9-31.9-31.9z" fill="#4073c8"/></g></g><g><g><g><circle cx="57.783" cy="106.558" fill="#dd636e" r="14.312"/></g></g><g><g><circle cx="101.809" cy="106.558" fill="#ffe07d" r="14.312"/></g></g><g><g><circle cx="145.835" cy="106.558" fill="#86f1a7" r="14.312"/></g></g></g><g><g><path d="m88.133 377.683h-34.36c-4.268 0-7.726-3.459-7.726-7.726s3.459-7.726 7.726-7.726h34.36c4.268 0 7.726 3.459 7.726 7.726s-3.458 7.726-7.726 7.726z" fill="#fb74c4"/></g><g><path d="m177.673 377.683h-55.033c-4.268 0-7.726-3.459-7.726-7.726s3.459-7.726 7.726-7.726h55.033c4.268 0 7.726 3.459 7.726 7.726s-3.458 7.726-7.726 7.726z" fill="#ddeafb"/></g><g><path d="m349.189 377.683h-74.817c-4.268 0-7.726-3.459-7.726-7.726s3.459-7.726 7.726-7.726h74.817c4.268 0 7.726 3.459 7.726 7.726s-3.458 7.726-7.726 7.726z" fill="#ffe07d"/></g><g><path d="m237.255 377.683h-22.609c-4.268 0-7.726-3.459-7.726-7.726s3.459-7.726 7.726-7.726h22.609c4.268 0 7.726 3.459 7.726 7.726s-3.459 7.726-7.726 7.726z" fill="#fb74c4"/></g><g><path d="m134.905 415.123h-34.36c-4.268 0-7.726-3.459-7.726-7.726s3.459-7.726 7.726-7.726h34.36c4.268 0 7.726 3.459 7.726 7.726s-3.459 7.726-7.726 7.726z" fill="#bed8fb"/></g><g><path d="m221.049 415.123h-51.639c-4.268 0-7.726-3.459-7.726-7.726s3.459-7.726 7.726-7.726h51.639c4.268 0 7.726 3.459 7.726 7.726s-3.458 7.726-7.726 7.726z" fill="#ddeafb"/></g><g><path d="m281.557 415.123h-23.496c-4.268 0-7.726-3.459-7.726-7.726s3.459-7.726 7.726-7.726h23.496c4.268 0 7.726 3.459 7.726 7.726s-3.459 7.726-7.726 7.726z" fill="#fb74c4"/></g><g><path d="m453.88 415.123h-23.307c-4.268 0-7.726-3.459-7.726-7.726s3.459-7.726 7.726-7.726h23.307c4.268 0 7.726 3.459 7.726 7.726s-3.458 7.726-7.726 7.726z" fill="#fb74c4"/></g><g><path d="m394.196 415.123h-75.751c-4.268 0-7.726-3.459-7.726-7.726s3.459-7.726 7.726-7.726h75.751c4.268 0 7.726 3.459 7.726 7.726s-3.458 7.726-7.726 7.726z" fill="#ffe07d"/></g></g></g></svg>