<svg height="512" viewBox="0 0 256 256" width="512" xmlns="http://www.w3.org/2000/svg"><g id="Layer_72"><g><g><g><path d="m205.322 147.804c-2.761 0-5 2.238-5 5v70.428c0 2.762 2.239 5 5 5s5-2.238 5-5v-70.428c0-2.762-2.238-5-5-5z" fill="#dae6f1"/></g></g><g><g><path d="m237.685 167.838-27.363-14.127v32.613l27.363-14.127c1.77-.913 1.77-3.445 0-4.359z" fill="#fc657e"/></g></g><g><g><path d="m109.59 27.768h-87.518c-8.284 0-15 6.716-15 15s6.716 15 15 15h88.017l14.75-14.75z" fill="#70d6f9"/></g></g><g><g><path d="m110.261 193.268h-46.314c-14.543 0-26.375-11.832-26.375-26.375s11.832-26.375 26.375-26.375h58.03l-14.5-14.5 15.5-15.5h-59.03c-31.085 0-56.375 25.29-56.375 56.375s25.29 56.375 56.375 56.375h45.814l15.25-15.25z" fill="#f5c84c"/></g></g><g><g><path d="m171.947 27.768h-62.357l15.25 15.25-14.75 14.75h61.857c14.456 0 26.287 11.761 26.375 26.216.088 14.641-11.735 26.534-26.375 26.534h-48.969l-15.5 15.5 14.5 14.5h49.969c31.295 0 56.563-25.426 56.374-56.716-.188-30.897-25.477-56.034-56.374-56.034z" fill="#87d147"/></g></g><g><g><path d="m200.326 223.268c0-.012-.004-.024-.004-.036v-29.964h-90.061l14.75 14.75-15.25 15.25z" fill="#fc657e"/></g></g><g><g><path d="m85.512 240.85c-4.5-.8-8-4.3-8.9-8.7 0-.2-.4-.2-.4 0-.9 4.4-4.4 7.9-8.9 8.7-.2 0-.2.3 0 .4 4.5.8 8 4.3 8.9 8.7 0 .2.4.2.4 0 .9-4.4 4.4-7.9 8.9-8.7.2-.1.2-.4 0-.4z" fill="#f5c84c"/></g></g><g><g><path d="m251.322 147.21c-3.157-.562-5.613-3.018-6.245-6.104 0-.141-.281-.141-.281 0-.632 3.087-3.087 5.543-6.245 6.104-.14 0-.14.21 0 .28 3.157.562 5.613 3.018 6.245 6.104 0 .141.281.141.281 0 .631-3.087 3.087-5.543 6.245-6.104.141-.07.141-.28 0-.28z" fill="#f5c84c"/></g></g><g><g><path d="m209.412 5.5h-2.3v-2.3c0-1.7-1.4-3.2-3.2-3.2s-3.2 1.4-3.2 3.2v2.3h-2.3c-1.7 0-3.2 1.4-3.2 3.2s1.4 3.2 3.2 3.2h2.3v2.3c0 1.7 1.4 3.2 3.2 3.2s3.2-1.4 3.2-3.2v-2.3h2.3c1.7 0 3.2-1.4 3.2-3.2s-1.4-3.2-3.2-3.2z" fill="#70d6f9"/></g></g><g><g><path d="m174.512 8.2c-1.878 0-3.4 1.522-3.4 3.4 0 1.877 1.522 3.4 3.4 3.4s3.4-1.522 3.4-3.4-1.522-3.4-3.4-3.4z" fill="#f5c84c"/></g></g><g><g><path d="m76.512 93.2c-1.878 0-3.4 1.522-3.4 3.4 0 1.877 1.522 3.4 3.4 3.4s3.4-1.522 3.4-3.4-1.522-3.4-3.4-3.4z" fill="#fc657e"/></g></g><g><g><path d="m107.512 249.2c-1.878 0-3.4 1.522-3.4 3.4 0 1.877 1.522 3.4 3.4 3.4s3.4-1.522 3.4-3.4-1.522-3.4-3.4-3.4z" fill="#87d147"/></g></g><g><g><g><g><path d="m205.322 145.305c-4.136 0-7.5 3.364-7.5 7.5v70.428c0 4.136 3.364 7.5 7.5 7.5s7.5-3.364 7.5-7.5v-70.428c0-4.136-3.364-7.5-7.5-7.5zm2.5 77.927c0 1.379-1.122 2.5-2.5 2.5s-2.5-1.121-2.5-2.5v-70.428c0-1.379 1.122-2.5 2.5-2.5s2.5 1.121 2.5 2.5z"/></g></g></g></g><g><g><path d="m63.947 143.018h108c15.806 0 30.639-6.166 41.767-17.361 11.127-11.195 17.203-26.064 17.107-41.868-.195-32.269-26.606-58.521-58.874-58.521h-149.875c-9.649 0-17.5 7.851-17.5 17.5s7.851 17.5 17.5 17.5h149.875c13.085 0 23.795 10.646 23.875 23.731.039 6.41-2.425 12.44-6.937 16.979s-10.527 7.039-16.938 7.039h-108c-32.464 0-58.875 26.411-58.875 58.875s26.411 58.875 58.875 58.875h135.553c1.381 0 2.5-1.119 2.5-2.5s-1.119-2.5-2.5-2.5h-135.553c-29.707 0-53.875-24.168-53.875-53.875s24.168-53.875 53.875-53.875h108c7.751 0 15.026-3.023 20.483-8.515 5.458-5.49 8.438-12.782 8.391-20.534-.096-15.826-13.049-28.701-28.875-28.701h-149.874c-6.893 0-12.5-5.607-12.5-12.5s5.607-12.5 12.5-12.5h149.875c29.527 0 53.695 24.022 53.874 53.551.088 14.463-5.471 28.069-15.653 38.313s-23.756 15.886-38.22 15.886h-108c-15.922 0-28.875 12.953-28.875 28.875s12.953 28.875 28.875 28.875h135.511c1.381 0 2.5-1.119 2.5-2.5s-1.119-2.5-2.5-2.5h-135.512c-13.165 0-23.875-10.71-23.875-23.875s10.711-23.874 23.875-23.874z"/></g></g><g><g><path d="m238.832 165.616-26.652-13.76c-1.226-.633-2.735-.152-3.368 1.075-.634 1.227-.152 2.734 1.074 3.368l26.652 13.676-26.902 13.89c-1.227.634-1.708 2.142-1.074 3.368.444.86 1.318 1.354 2.223 1.354.386 0 .778-.09 1.145-.279l26.902-13.89c1.653-.854 2.681-2.541 2.681-4.401s-1.028-3.546-2.681-4.401z"/></g></g><g><g><path d="m126.779 206.25-14.227-14.227c-.976-.977-2.56-.977-3.535 0-.977.977-.977 2.559 0 3.535l12.459 12.459-13.056 13.057c-.977.977-.977 2.559 0 3.535.488.488 1.128.732 1.768.732s1.28-.244 1.768-.732l14.824-14.824c.469-.469.732-1.104.732-1.768s-.264-1.298-.733-1.767z"/></g></g><g><g><path d="m124.281 109.215c-.976-.977-2.56-.977-3.535 0l-15.036 15.035c-.469.469-.732 1.104-.732 1.768s.263 1.299.732 1.768l13.988 13.988c.488.488 1.128.732 1.768.732s1.28-.244 1.768-.732c.977-.977.977-2.559 0-3.535l-12.22-12.221 13.268-13.268c.975-.977.975-2.559-.001-3.535z"/></g></g><g><g><path d="m126.607 41.25-14.593-14.592c-.977-.977-2.559-.977-3.536 0-.976.977-.976 2.56 0 3.535l12.825 12.824-12.413 12.416c-.977.977-.977 2.56 0 3.535.488.488 1.128.732 1.768.732s1.28-.244 1.768-.732l14.182-14.183c.469-.469.732-1.104.732-1.768s-.263-1.298-.733-1.767z"/></g></g></g></g></svg>