<svg height="512pt" viewBox="-102 0 512 512.00002" width="512pt" xmlns="http://www.w3.org/2000/svg"><path d="m298.667969 324.265625c0 51.882813-13.398438 93.867187-29.867188 93.867187-3.246093-.148437-6.308593-1.554687-8.535156-3.925781-7.933594-7.507812-14.503906-25.085937-18.175781-48.042969h-17.066406l-159.914063.257813c-4.949219 30.71875-15.105469 51.710937-26.710937 51.710937-3.246094-.148437-6.304688-1.554687-8.53125-3.925781-12.289063-11.519531-21.332032-47.445312-21.332032-89.941406 0-51.285156 13.054688-92.839844 29.265625-93.867187h231.597657c16.210937 1.027343 29.269531 42.582031 29.269531 93.867187zm0 0" fill="#9e9e9e"/><path d="m281.601562 324.265625c0 42.496094-9.046874 78.421875-21.335937 89.941406-2.222656 2.371094-5.285156 3.777344-8.53125 3.925781-11.691406 0-21.761719-21.164062-26.710937-51.96875l-159.914063.257813-13.910156-24.023437c-2.671875 32.539062-13.398438 64.386718-21.332031 71.808593-12.289063-11.519531-21.332032-47.445312-21.332032-89.941406 0-51.285156 13.054688-92.839844 29.265625-93.867187h214.53125c16.210938 1.027343 29.269531 42.582031 29.269531 93.867187zm0 0" fill="#cfd8dc"/><path d="m272.128906 197.886719v.085937c-.597656 10.582032-1.535156 21.417969-2.730468 32.425782-10.410157 92.671874-42.15625 208.300781-82.773438 257.453124-8.121094 9.875-20.238281 15.601563-33.023438 15.601563-12.789062 0-24.90625-5.726563-33.027343-15.601563-40.703125-49.152343-72.445313-164.78125-82.773438-257.453124-1.191406-11.007813-2.132812-21.84375-2.730469-32.425782l215.722657-.085937zm0 0" fill="#cfd8dc"/><path d="m250.792969 197.886719v.085937c-.59375 10.582032-1.535157 21.417969-2.730469 32.425782-10.410156 92.671874-42.152344 208.300781-82.773438 257.453124-5.75 7.003907-13.578124 11.996094-22.355468 14.25-8.777344-2.253906-16.609375-7.246093-22.359375-14.25-40.703125-49.152343-72.445313-164.78125-82.773438-257.453124-1.191406-11.007813-2.132812-21.84375-2.730469-32.425782zm0 0" fill="#f5f5f5"/><path d="m290.132812 128c0 80.128906-34.132812 102.398438-136.53125 102.398438-3.671874 0-7.253906 0-10.667968-.082032-94.121094-1.539062-125.867188-25.003906-125.867188-102.316406 0-75.433594 68.011719-114.6875 125.867188-119.039062 3.582031-.257813 7.167968-.425782 10.667968-.425782 59.730469 0 136.53125 39.335938 136.53125 119.464844zm0 0" fill="#9e9e9e"/><path d="m268.800781 128c0 77.3125-31.746093 100.777344-125.867187 102.316406-94.121094-1.539062-125.867188-25.003906-125.867188-102.316406 0-75.433594 68.011719-114.6875 125.867188-119.039062 57.855468 4.351562 125.867187 43.605468 125.867187 119.039062zm0 0" fill="#cfd8dc"/><path d="m256 128c0-37.703125-45.847656-68.265625-102.398438-68.265625-56.554687 0-102.402343 30.5625-102.402343 68.265625s45.847656 68.265625 102.402343 68.265625c56.550782 0 102.398438-30.5625 102.398438-68.265625zm0 0" fill="#37474f"/><path d="m135.851562 143.785156c-2.816406 8.277344-14.507812 11.863282-26.882812 8.621094-.9375-.257812-1.960938-.511719-2.898438-.855469-13.3125-4.605469-21.675781-15.613281-18.519531-24.488281 1.703125-4.28125 5.351563-7.484375 9.816407-8.621094 6.578124-1.824218 13.566406-1.523437 19.964843.855469 13.3125 4.605469 21.675781 15.613281 18.519531 24.488281zm0 0" fill="#0377bc"/><path d="m201.128906 151.550781c-6.398437 2.382813-13.386718 2.679688-19.964844.855469-4.464843-1.136719-8.113281-4.339844-9.816406-8.621094-3.15625-8.875 5.207032-19.882812 18.519532-24.488281.9375-.34375 1.960937-.597656 2.902343-.855469 12.371094-3.242187 24.0625.34375 26.878907 8.621094 3.15625 8.875-5.207032 19.882812-18.519532 24.488281zm0 0" fill="#0377bc"/><path d="m118.785156 143.785156c-1.703125 4.28125-5.351562 7.484375-9.816406 8.621094-.9375-.257812-1.960938-.511719-2.898438-.855469-13.3125-4.605469-21.675781-15.613281-18.519531-24.488281 1.703125-4.28125 5.351563-7.484375 9.816407-8.621094.9375.257813 1.960937.511719 2.898437.855469 13.3125 4.605469 21.675781 15.613281 18.519531 24.488281zm0 0" fill="#02a9f4"/><path d="m184.0625 151.550781c-.9375.34375-1.960938.597657-2.898438.855469-4.464843-1.136719-8.113281-4.339844-9.816406-8.621094-3.15625-8.875 5.207032-19.882812 18.519532-24.488281.9375-.34375 1.960937-.597656 2.902343-.855469 4.460938 1.136719 8.109375 4.339844 9.8125 8.621094 3.15625 8.875-5.207031 19.882812-18.519531 24.488281zm0 0" fill="#02a9f4"/><path d="m221.867188 294.398438c0 11.785156-9.550782 21.335937-21.332032 21.335937-2.941406.015625-5.851562-.597656-8.535156-1.792969-7.761719-3.398437-12.773438-11.070312-12.773438-19.542968 0-8.472657 5.011719-16.140626 12.773438-19.539063 2.683594-1.199219 5.59375-1.808594 8.535156-1.792969 11.78125 0 21.332032 9.550782 21.332032 21.332032zm0 0" fill="#2e7d32"/><path d="m204.800781 294.398438c0-10.789063-5.730469-19.539063-12.800781-19.539063s-12.800781 8.75-12.800781 19.539063c0 10.792968 5.730469 19.542968 12.800781 19.542968s12.800781-8.75 12.800781-19.542968zm0 0" fill="#4caf50"/><path d="m153.601562 204.800781c79.828126 0 110.933594-21.53125 110.933594-76.800781 0-37.09375-44.578125-76.800781-110.933594-76.800781-66.355468 0-110.933593 39.707031-110.933593 76.800781 0 55.269531 31.101562 76.800781 110.933593 76.800781zm0-136.535156c55.3125 0 93.863282 31.480469 93.863282 59.734375 0 32.683594-7.0625 59.734375-93.863282 59.734375-86.800781 0-93.867187-27.050781-93.867187-59.734375 0-28.253906 38.550781-59.734375 93.867187-59.734375zm0 0"/><path d="m103.3125 159.574219c4.6875 1.65625 9.613281 2.523437 14.585938 2.558593 3.066406.011719 6.121093-.363281 9.09375-1.117187 7.722656-1.628906 14.101562-7.046875 16.957031-14.40625 2.320312-7.542969.667969-15.75-4.394531-21.808594-10.429688-12.6875-27.082032-18.472656-43.128907-14.976562-7.722656 1.628906-14.101562 7.050781-16.953125 14.414062-4.71875 13.550781 5.757813 29.097657 23.839844 35.335938zm-7.738281-29.75c1.074219-1.890625 2.964843-3.175781 5.117187-3.480469 1.566406-.390625 3.175782-.585938 4.789063-.570312 3.070312.027343 6.117187.566406 9.011719 1.585937 4.480468 1.441406 8.453124 4.128906 11.460937 7.75 1.503906 1.566406 2.191406 3.746094 1.859375 5.894531-1.074219 1.894532-2.964844 3.179688-5.121094 3.484375-4.601562.988281-9.390625.636719-13.796875-1.015625-9.6875-3.355468-14.429687-10.4375-13.320312-13.648437zm0 0"/><path d="m180.207031 161.015625c2.972657.753906 6.03125 1.128906 9.097657 1.117187 4.96875-.035156 9.898437-.902343 14.582031-2.558593 18.082031-6.265625 28.5625-21.8125 23.894531-35.355469-2.867188-7.367188-9.265625-12.785156-17.007812-14.394531-16.050782-3.5-32.710938 2.28125-43.144532 14.976562-5.0625 6.058594-6.714844 14.265625-4.394531 21.808594 2.859375 7.363281 9.242187 12.78125 16.972656 14.40625zm-.851562-20.011719c-.332031-2.148437.355469-4.328125 1.859375-5.894531 3.007812-3.621094 6.984375-6.308594 11.46875-7.75 2.890625-1.019531 5.929687-1.558594 8.992187-1.585937 1.617188-.015626 3.230469.179687 4.796875.570312 2.15625.304688 4.050782 1.59375 5.121094 3.492188 1.117188 3.199218-3.628906 10.28125-13.320312 13.652343-4.410157 1.652344-9.199219 2.003907-13.800782 1.015625-2.152344-.304687-4.042968-1.589844-5.117187-3.480468zm0 0"/><path d="m200.535156 264.535156c-16.496094 0-29.867187 13.371094-29.867187 29.863282 0 16.496093 13.371093 29.867187 29.867187 29.867187 16.492188 0 29.863282-13.371094 29.863282-29.867187 0-16.492188-13.371094-29.863282-29.863282-29.863282zm0 42.664063c-7.070312 0-12.800781-5.730469-12.800781-12.800781 0-7.066407 5.730469-12.796876 12.800781-12.796876 7.066406 0 12.796875 5.730469 12.796875 12.796876 0 7.070312-5.730469 12.800781-12.796875 12.800781zm0 0"/><path d="m0 324.265625c0 49.316406 12.015625 102.402344 38.398438 102.402344 11.230468 0 20.796874-10.191407 27.640624-28.765625 13.253907 38.730468 29.390626 73 47.933594 95.425781 9.75 11.835937 24.289063 18.6875 39.628906 18.671875 15.332032.003906 29.859376-6.855469 39.601563-18.695312 18.527344-22.433594 34.671875-56.746094 47.933594-95.523438 5.578125 15.480469 14.257812 28.886719 27.664062 28.886719 26.382813 0 38.398438-53.085938 38.398438-102.402344 0-42.402344-9.042969-88.183594-28.671875-99.660156.804687-8.070313 1.460937-15.949219 1.921875-23.628907 12.039062-16.613281 18.21875-39.976562 18.21875-72.976562 0-88.292969-84.832031-128-145.066407-128-60.238281 0-145.066406 39.707031-145.066406 128 0 32.980469 6.175782 56.320312 18.191406 72.941406.460938 7.484375 1.125 15.4375 1.945313 23.664063-19.625 11.476562-28.671875 57.257812-28.671875 99.660156zm38.398438 85.335937c-6.382813 0-21.332032-29.015624-21.332032-85.335937 0-39.335937 7.507813-65.550781 14.140625-77.652344 5.449219 40.6875 13.84375 80.925781 25.113281 120.398438-5.511718 32.390625-15.011718 42.589843-17.921874 42.589843zm141.65625 72.832032c-6.507813 7.910156-16.210938 12.496094-26.453126 12.5-10.242187 0-19.949218-4.582032-26.453124-12.492188-39.972657-48.324218-70.921876-163.839844-80.839844-252.964844-.390625-3.660156-.699219-7.15625-1.03125-10.691406 24.21875 15.882813 60.382812 20.148438 108.324218 20.148438 47.9375 0 84.113282-4.265625 108.371094-20.148438-.324218 3.523438-.640625 7.023438-1.03125 10.667969-10.011718 89.15625-40.996094 204.679687-80.886718 252.980469zm110.078124-158.167969c0 56.320313-14.949218 85.335937-21.332031 85.335937-2.902343 0-12.390625-10.242187-17.921875-42.820312 11.25-39.402344 19.640625-79.558594 25.105469-120.167969 6.640625 12.082031 14.148437 38.296875 14.148437 77.652344zm-136.53125-307.199219c53.152344 0 128 34.414063 128 110.933594 0 73.695312-27.511718 93.867188-128 93.867188-100.488281 0-128-20.171876-128-93.867188 0-76.519531 74.84375-110.933594 128-110.933594zm0 0"/></svg>