<?xml version="1.0" encoding="iso-8859-1"?>
<!-- Generator: Adobe Illustrator 19.0.0, SVG Export Plug-In . SVG Version: 6.00 Build 0)  -->
<svg version="1.1" id="Layer_1" xmlns="http://www.w3.org/2000/svg" xmlns:xlink="http://www.w3.org/1999/xlink" x="0px" y="0px"
	 viewBox="0 0 512.005 512.005" style="enable-background:new 0 0 512.005 512.005;" xml:space="preserve">
<rect x="49.18" y="186.589" style="fill:#333333;" width="344.77" height="266.08"/>
<polygon style="fill:#818085;" points="461.425,291.515 363.959,329.002 363.959,415.184 461.425,452.671 512,452.671 512,291.515 
	"/>
<rect x="461.43" y="291.519" style="fill:#555559;" width="50.575" height="161.16"/>
<rect x="221" y="186.589" width="172.96" height="266.08"/>
<path style="fill:#555559;" d="M324.857,295.898c-65.223,0-118.286-53.062-118.286-118.286c0-65.223,53.063-118.286,118.286-118.286
	s118.286,53.063,118.286,118.286S390.08,295.898,324.857,295.898z"/>
<path d="M324.857,265.898c-48.681,0-88.286-39.605-88.286-88.286s39.605-88.286,88.286-88.286s88.286,39.605,88.286,88.286
	S373.538,265.898,324.857,265.898z"/>
<path style="fill:#818085;" d="M118.286,59.327C53.063,59.327,0,112.389,0,177.612s53.063,118.286,118.286,118.286
	s118.286-53.062,118.286-118.286C236.571,112.389,183.509,59.327,118.286,59.327z"/>
<path style="fill:#333333;" d="M118.286,265.898C69.605,265.898,30,226.293,30,177.612s39.605-88.286,88.286-88.286
	s88.286,39.605,88.286,88.286C206.571,226.293,166.966,265.898,118.286,265.898z"/>
<g>
</g>
<g>
</g>
<g>
</g>
<g>
</g>
<g>
</g>
<g>
</g>
<g>
</g>
<g>
</g>
<g>
</g>
<g>
</g>
<g>
</g>
<g>
</g>
<g>
</g>
<g>
</g>
<g>
</g>
</svg>
