<?xml version="1.0" encoding="utf-8"?>
<svg width="512px" height="512px" viewBox="0 0 512 512" version="1.1" xmlns:xlink="http://www.w3.org/1999/xlink" xmlns="http://www.w3.org/2000/svg">
  <defs>
    <path d="M0 0L512 0L512 512L0 512L0 0Z" id="path_1" />
    <clipPath id="mask_1">
      <use xlink:href="#path_1" />
    </clipPath>
  </defs>
  <g id="video3">
    <path d="M0 0L512 0L512 512L0 512L0 0Z" id="Background" fill="#FFFFFF" fill-opacity="0" fill-rule="evenodd" stroke="none" />
    <g clip-path="url(#mask_1)">
      <path d="M176 144C176 99.8172 211.817 64 256 64C300.183 64 336 99.8172 336 144C336 188.183 300.183 224 256 224C211.817 224 176 188.183 176 144Z" id="Circle" fill="#0B88E6" fill-rule="evenodd" stroke="none" />
      <path d="M48 160C48 124.654 76.6538 96 112 96C147.346 96 176 124.654 176 160C176 195.346 147.346 224 112 224C76.6538 224 48 195.346 48 160Z" id="Circle" fill="#0B88E6" fill-rule="evenodd" stroke="none" />
      <path d="M32 288L32 256C32 247.163 35.1242 239.621 41.3726 233.373C47.621 227.124 55.1634 224 64 224L320 224C328.837 224 336.379 227.124 342.627 233.373C348.876 239.621 352 247.163 352 256L352 416C352 424.837 348.876 432.379 342.627 438.627C336.379 444.876 328.837 448 320 448L64 448C55.1634 448 47.621 444.876 41.3726 438.627C35.1242 432.379 32 424.837 32 416L32 288Z" id="Rectangle" fill="#13AFF2" fill-rule="evenodd" stroke="none" />
      <path d="M320 448L64 448C59.4714 447.986 54.9981 447.004 50.88 445.12C48.996 441.002 48.0141 436.529 48 432L48 256C48 247.163 55.1634 240 64 240L336 240C340.529 240.014 345.002 240.996 349.12 242.88C351.004 246.998 351.986 251.471 352 256L352 416C352 433.673 337.673 448 320 448L320 448Z" id="Shape" fill="#0463DB" stroke="none" />
      <path d="M352 272L384 272L384 400L352 400L352 272Z" id="Shape" fill="#0B88E6" stroke="none" />
      <path d="M480 224L384 272L384 400L480 448L480 224Z" id="Shape" fill="#0463DB" stroke="none" />
      <path d="M224 144C224 126.327 238.327 112 256 112C273.673 112 288 126.327 288 144C288 161.673 273.673 176 256 176C238.327 176 224 161.673 224 144Z" id="Circle" fill="#13AFF2" fill-rule="evenodd" stroke="none" />
      <path d="M88 160C88 146.745 98.7452 136 112 136C125.255 136 136 146.745 136 160C136 173.255 125.255 184 112 184C98.7452 184 88 173.255 88 160Z" id="Circle" fill="#13AFF2" fill-rule="evenodd" stroke="none" />
      <path d="M272 280C272 266.745 282.745 256 296 256C309.255 256 320 266.745 320 280C320 293.255 309.255 304 296 304C282.745 304 272 293.255 272 280Z" id="Circle" fill="#A1D8FD" fill-rule="evenodd" stroke="none" />
      <path d="M208 368L320 368L320 416L208 416L208 368Z" id="Shape" fill="#DD4650" stroke="none" />
      <path d="M320 424L208 424C203.582 424 200 420.418 200 416L200 368C200 363.582 203.582 360 208 360L320 360C324.418 360 328 363.582 328 368L328 416C328 420.418 324.418 424 320 424L320 424ZM216 408L312 408L312 376L216 376L216 408Z" id="Shape" fill="#0B88E6" fill-rule="evenodd" stroke="none" />
      <g id="Group" transform="translate(56 248)">
        <path d="M88 16L8 16C5.14188 16 2.50086 14.4752 1.0718 12C-0.357265 9.52478 -0.357265 6.4752 1.0718 4C2.50086 1.5248 5.14188 0 8 0L88 0C90.8581 0 93.4991 1.5248 94.9282 4C96.3573 6.4752 96.3573 9.52478 94.9282 12C93.4991 14.4752 90.8581 16 88 16L88 16Z" id="Shape" fill="#13AFF2" stroke="none" />
        <path d="M88 48L8 48C5.14188 48 2.50086 46.4752 1.0718 44C-0.357265 41.5248 -0.357265 38.4752 1.0718 36C2.50086 33.5248 5.14188 32 8 32L88 32C90.8581 32 93.4991 33.5248 94.9282 36C96.3573 38.4752 96.3573 41.5248 94.9282 44C93.4991 46.4752 90.8581 48 88 48L88 48Z" id="Shape" fill="#13AFF2" stroke="none" />
        <path d="M88 80L8 80C5.14188 80 2.50086 78.4752 1.0718 76C-0.357265 73.5248 -0.357265 70.4752 1.0718 68C2.50086 65.5248 5.14188 64 8 64L88 64C90.8581 64 93.4991 65.5248 94.9282 68C96.3573 70.4752 96.3573 73.5248 94.9282 76C93.4991 78.4752 90.8581 80 88 80L88 80Z" id="Shape" fill="#13AFF2" stroke="none" />
      </g>
      <path d="M280 272C280 267.582 283.582 264 288 264C292.418 264 296 267.582 296 272C296 276.418 292.418 280 288 280C283.582 280 280 276.418 280 272Z" id="Circle" fill="#BCE3FE" fill-rule="evenodd" stroke="none" />
    </g>
  </g>
</svg>