<?xml version="1.0" encoding="iso-8859-1"?>
<!-- Generator: Adobe Illustrator 19.0.0, SVG Export Plug-In . SVG Version: 6.00 Build 0)  -->
<svg version="1.1" id="Layer_1" xmlns="http://www.w3.org/2000/svg" xmlns:xlink="http://www.w3.org/1999/xlink" x="0px" y="0px"
	 viewBox="0 0 512 512" style="enable-background:new 0 0 512 512;" xml:space="preserve">
<circle style="fill:#FFFFFF;" cx="256" cy="256" r="234.67"/>
<path style="fill:#BEE6F9;" d="M256,21.333c123.712,0,224,105.064,224,234.667S379.712,490.667,256,490.667"/>
<path d="M256,512c-68.38,0-132.667-26.629-181.019-74.981S0,324.38,0,256S26.629,123.333,74.981,74.981S187.62,0,256,0
	s132.668,26.629,181.02,74.981C485.371,123.333,512,187.62,512,256s-26.629,132.667-74.98,181.019
	C388.668,485.371,324.38,512,256,512z M256,30c-60.367,0-117.12,23.508-159.806,66.194S30,195.633,30,256
	s23.508,117.12,66.194,159.806S195.633,482,256,482s117.12-23.508,159.806-66.194S482,316.367,482,256
	s-23.508-117.12-66.194-159.806S316.367,30,256,30z"/>
<polygon style="fill:#555559;" points="482.879,314.901 324.647,314.901 447.685,101.793 421.704,86.793 341.333,226 218.271,12.85 
	192.291,27.85 272.686,167.099 32,167.099 32,197.099 187.352,197.099 64.315,410.207 90.295,425.207 170.666,286 293.729,499.15 
	319.709,484.15 239.314,344.901 482.879,344.901 "/>
<g>
	<polygon style="fill:#333333;" points="324.647,314.901 447.685,101.793 421.704,86.793 341.333,226 256,78.198 256,138.198 
		272.686,167.099 256,167.099 256,344.901 482.879,344.901 482.879,314.901 	"/>
	<polygon style="fill:#333333;" points="256,433.802 293.729,499.15 319.709,484.15 256,373.802 	"/>
	<path style="fill:#333333;" d="M256,512c-68.38,0-132.667-26.629-181.019-74.981S0,324.38,0,256S26.629,123.333,74.981,74.981
		S187.62,0,256,0s132.668,26.629,181.02,74.981C485.371,123.333,512,187.62,512,256s-26.629,132.667-74.98,181.019
		C388.668,485.371,324.38,512,256,512z M256,30c-60.367,0-117.12,23.508-159.806,66.194S30,195.633,30,256
		s23.508,117.12,66.194,159.806S195.633,482,256,482s117.12-23.508,159.806-66.194S482,316.367,482,256
		s-23.508-117.12-66.194-159.806S316.367,30,256,30z"/>
</g>
<path d="M437.02,74.981C388.668,26.629,324.38,0,256,0l0,0v30l0,0c60.367,0,117.12,23.508,159.806,66.194S482,195.633,482,256
	s-23.508,117.12-66.194,159.806S316.367,482,256,482l0,0v30l0,0c68.38,0,132.668-26.629,181.02-74.981
	C485.371,388.667,512,324.38,512,256S485.371,123.333,437.02,74.981z"/>
<polygon style="fill:#333333;" points="221.82,315.201 187.641,256 221.82,196.799 290.18,196.799 324.359,256 290.18,315.201 "/>
<polygon points="290.18,196.799 256,196.799 256,315.201 290.18,315.201 324.359,256 "/>
<g>
</g>
<g>
</g>
<g>
</g>
<g>
</g>
<g>
</g>
<g>
</g>
<g>
</g>
<g>
</g>
<g>
</g>
<g>
</g>
<g>
</g>
<g>
</g>
<g>
</g>
<g>
</g>
<g>
</g>
</svg>
