<svg id="Capa_1" enable-background="new 0 0 350.094 350.094" height="512" viewBox="0 0 350.094 350.094" width="512" xmlns="http://www.w3.org/2000/svg" xmlns:xlink="http://www.w3.org/1999/xlink"><linearGradient id="SVGID_1_" gradientTransform="matrix(1 0 0 -1 0 350.067)" gradientUnits="userSpaceOnUse" x1="361.104" x2="-1.533" y1="175.116" y2="175.116"><stop offset="0" stop-color="#faad37"/><stop offset="1" stop-color="#f78b1f"/></linearGradient><linearGradient id="lg1"><stop offset="0" stop-color="#f4841a"/><stop offset="1" stop-color="#f26f11"/></linearGradient><linearGradient id="SVGID_2_" gradientTransform="matrix(1 0 0 -1 0 350.067)" gradientUnits="userSpaceOnUse" x1="177.686" x2="40.532" xlink:href="#lg1" y1="173.87" y2="223.978"/><linearGradient id="SVGID_3_" gradientTransform="matrix(1 0 0 -1 0 350.067)" gradientUnits="userSpaceOnUse" x1="3.118" x2="348.981" xlink:href="#lg1" y1="164.675" y2="164.675"/><clipPath id="SVGID_5_"><circle id="SVGID_4_" cx="175.058" cy="174.951" r="174.951"/></clipPath><linearGradient id="lg2"><stop offset="0" stop-color="#f16430"/><stop offset="1" stop-color="#e73d14"/></linearGradient><linearGradient id="SVGID_6_" gradientTransform="matrix(1 0 0 -1 0 350.067)" gradientUnits="userSpaceOnUse" x1="213.937" x2="37.711" xlink:href="#lg2" y1="156.953" y2="188.378"/><linearGradient id="SVGID_7_" gradientTransform="matrix(1 0 0 -1 0 350.067)" gradientUnits="userSpaceOnUse" x1="-9.442" x2="345.424" xlink:href="#lg2" y1="153.035" y2="153.035"/><linearGradient id="SVGID_8_" gradientTransform="matrix(1 0 0 -1 0 350.067)" gradientUnits="userSpaceOnUse" x1="221.441" x2="18.885" y1="134.167" y2="112.087"><stop offset=".003" stop-color="#ce3814"/><stop offset=".999" stop-color="#d63914"/></linearGradient><linearGradient id="SVGID_9_" gradientTransform="matrix(1 0 0 -1 0 350.067)" gradientUnits="userSpaceOnUse" x1="-1.497" x2="345.526" y1="133.369" y2="133.369"><stop offset=".003" stop-color="#dd3814"/><stop offset=".999" stop-color="#d63914"/></linearGradient><g><g><g id="Layer_1_copy_29_"><circle cx="175.058" cy="174.951" fill="url(#SVGID_1_)" r="174.951"/><path d="m103.365 15.308c-88.138 39.594-127.49 143.142-87.896 231.279s143.141 127.49 231.279 87.895 127.49-143.141 87.895-231.279c-17.213-38.316-47.636-69.16-85.713-86.897-15.837 4.302-31.342 9.747-46.391 16.292-40.035 17.269-72.116 30.485-90.391 30.485-7.141.808-14.032-2.911-17.276-9.323-4.534-9.597-3.378-20.917 3.003-29.399z" fill="url(#SVGID_2_)"/><path d="m349.178 157.879c-2.454-25.423-10.478-49.992-23.502-71.963-16.217-27.362-39.551-49.813-67.516-64.965-18.126 4.408-35.836 10.382-52.93 17.852-71.096 30.66-103.418 42.112-116.277 18.151-5.658-11.693-4.44-25.549 3.171-36.076-85.077 45.803-116.914 151.902-71.111 236.978s151.902 116.914 236.979 71.111c56.665-30.507 92.006-89.661 92.017-154.016 0-5.759-.277-11.45-.831-17.072z" fill="url(#SVGID_3_)"/><g><g clip-path="url(#SVGID_5_)"><path d="m285.598 39.364c-25.251 11.758-55.532 33.634-105.933 76.41-15.513 13.53-33.041 24.558-51.953 32.687-14.117 6.077-29.289 9.328-44.656 9.571-16.997.613-33.61-5.146-46.581-16.146-9.579-8.806-13.748-22.598-13.18-40.734.19-6.014.518-10.934.867-14.783-48.921 83.321-21.033 190.526 62.289 239.447s190.528 21.034 239.449-62.288c43.702-74.433 26.589-169.615-40.302-224.164z" fill="url(#SVGID_6_)"/></g></g><path d="m349.178 157.879c-2.454-25.423-10.478-49.992-23.502-71.963-9.246-15.599-20.85-29.674-34.4-41.726-26.345 11.663-58.28 35.187-107.238 76.738-65.33 55.438-124.47 51.377-152.142 25.929-12.575-11.561-16.146-28.539-15.352-46.012-40.89 87.544-3.069 191.66 84.476 232.55s191.66 3.069 232.55-84.476c10.817-23.159 16.428-48.407 16.438-73.968.001-5.759-.276-11.45-.83-17.072z" fill="url(#SVGID_7_)"/><path d="m175.058 349.902c96.623.008 174.957-78.313 174.965-174.936.003-34.698-10.312-68.612-29.632-97.433-3.422-.651-6.897-.978-10.38-.977h-1.195c-15.141.306-29.508 8.062-46.595 25.149-20.557 22.17-39.555 45.735-56.859 70.527-16.104 22.666-35.679 42.654-58.003 59.228-19.2 14.853-42.572 23.317-66.831 24.202-12.835-.062-25.509-2.86-37.177-8.208-12.096-5.236-22.46-13.794-29.887-24.683-4.142-6.093-7.824-12.487-11.015-19.128 14.05 84.391 87.056 146.252 172.609 146.259z" fill="url(#SVGID_8_)"/><path d="m349.178 157.879c-2.454-25.423-10.478-49.992-23.502-71.963-5.385-1.874-11.066-2.754-16.766-2.595-27.307.547-51.866 30.259-98.111 92.928-43.854 59.476-105.853 106.326-170.256 77.365-13.252-5.733-24.595-15.125-32.701-27.074 28.411 92.351 126.309 144.185 218.66 115.773 73.463-22.6 123.571-90.501 123.508-167.362-.001-5.759-.278-11.45-.832-17.072z" fill="url(#SVGID_9_)"/></g><g id="Layer_2_copy_29_" fill="#fff"><path d="m164.707 235.455c5.693 5.691 14.922 5.691 20.615 0l57.435-57.435c5.594-5.792 5.433-15.021-.358-20.615-5.65-5.457-14.607-5.457-20.257 0l-32.504 32.468v-128.895c0-8.052-6.527-14.579-14.579-14.579s-14.579 6.527-14.579 14.579v128.982l-32.504-32.504c-5.792-5.594-15.021-5.433-20.615.358-5.457 5.65-5.457 14.607 0 20.257z"/><path d="m232.449 258.49h-114.782c-8.052 0-14.579 6.527-14.579 14.579s6.527 14.579 14.579 14.579h114.782c8.052 0 14.579-6.527 14.579-14.579s-6.527-14.579-14.579-14.579z"/></g></g></g></svg>