<?xml version="1.0" encoding="utf-8"?>
<svg width="432px" height="432px" viewBox="0 0 432 432" version="1.1" xmlns:xlink="http://www.w3.org/1999/xlink" xmlns="http://www.w3.org/2000/svg">
  <defs>
    <path d="M0 0L432 0L432 432L0 432L0 0L0 0L0 0Z" id="path_1" />
    <clipPath id="mask_1">
      <use xlink:href="#path_1" />
    </clipPath>
  </defs>
  <g id="fileTypeVideo">
    <g id="fileTypeVideo">
      <g id="fileTypeVideo#1">
        <path d="M0 0L432 0L432 432L0 432L0 0L0 0L0 0Z" id="Background" fill="#FFFFFF" fill-opacity="0" fill-rule="evenodd" stroke="none" />
        <g id="Mask-Group">
          <path d="M0 0L432 0L432 432L0 432L0 0L0 0L0 0Z" id="path_1#1" fill="none" stroke="none" />
          <g id="Mask-Group">
            <path d="M0 0L432 0L432 432L0 432L0 0L0 0L0 0Z" id="path_1" fill="none" stroke="none" />
            <g clip-path="url(#mask_1)">
              <g id="Group" transform="translate(0 87)">
                <g id="Group">
                  <path d="M278.906 0L30 0C13.4375 0.0195007 0.0195313 13.438 0 30L0 227.422C0.0195312 243.984 13.4375 257.402 30 257.422L278.906 257.422C295.465 257.402 308.887 243.984 308.906 227.422L308.906 30C308.887 13.438 295.465 0.0195007 278.906 0L278.906 0L278.906 0L278.906 0Z" id="Shape" fill="#FFFFFF" fill-rule="evenodd" stroke="none" />
                  <path d="M328.906 169.801L432 226.086L432 31.98L328.906 88.266L328.906 169.801L328.906 169.801L328.906 169.801Z" id="Shape#1" fill="#FFFFFF" fill-rule="evenodd" stroke="none" />
                </g>
              </g>
            </g>
          </g>
        </g>
      </g>
    </g>
  </g>
</svg>