<?xml version="1.0" encoding="utf-8"?>
<svg width="448px" height="512.04266px" viewBox="0 0 448 512.04266" version="1.1" xmlns:xlink="http://www.w3.org/1999/xlink" xmlns="http://www.w3.org/2000/svg">
  <defs>
    <path d="M0 0.000289175L448 0.000289175L448 512L0 512L0 0.000289175L0 0.000289175Z" id="path_1" />
    <clipPath id="mask_1">
      <use xlink:href="#path_1" />
    </clipPath>
  </defs>
  <g id="linux" transform="translate(0 0.0002746582)">
    <g id="linux">
      <path d="M0 0L448 0L448 512L0 512L0 0L0 0Z" id="Background" fill="#FFFFFF" fill-opacity="0" fill-rule="evenodd" stroke="none" />
      <g id="Mask-Group" transform="translate(-0 -0.00028917455)">
        <path d="M0 0.000289175L448 0.000289175L448 512L0 512L0 0.000289175L0 0.000289175Z" id="path_1" fill="none" stroke="none" />
        <g clip-path="url(#mask_1)">
          <g id="Group" transform="translate(12.673858 0)">
            <path d="M208.126 123.3C209.126 123.8 209.926 125 211.126 125C212.226 125 213.926 124.6 214.026 123.5C214.226 122.1 212.126 121.2 210.826 120.6C209.126 119.9 206.926 119.6 205.326 120.5C204.926 120.7 204.526 121.2 204.726 121.6C205.026 122.9 207.026 122.7 208.126 123.3L208.126 123.3L208.126 123.3ZM186.226 125C187.426 125 188.226 123.8 189.226 123.3C190.326 122.7 192.326 122.9 192.726 121.7C192.926 121.3 192.526 120.8 192.126 120.6C190.526 119.7 188.326 120 186.626 120.7C185.326 121.3 183.226 122.2 183.426 123.6C183.526 124.6 185.226 125.1 186.226 125L186.226 125L186.226 125ZM407.326 403.8C403.726 399.8 402.026 392.2 400.126 384.1C398.326 376 396.226 367.3 389.626 361.7C388.326 360.6 387.026 359.6 385.626 358.8C384.326 358 382.926 357.3 381.526 356.8C390.726 329.5 387.126 302.3 377.826 277.7C366.426 247.6 346.526 221.3 331.326 203.3C314.226 181.8 297.626 161.4 297.926 131.3C298.426 85.4003 303.026 0.100289 222.126 0.000289175C119.726 -0.199711 145.326 103.4 144.226 135.2C142.526 158.6 137.826 177 121.726 199.9C102.826 222.4 76.2261 258.7 63.6261 296.6C57.6261 314.5 54.8261 332.7 57.4261 349.9C50.9261 355.7 46.0261 364.6 40.8261 370.1C36.6261 374.4 30.5261 376 23.8261 378.4C17.1261 380.8 9.82614 384.4 5.32614 392.9C3.22614 396.8 2.52614 401 2.52614 405.3C2.52614 409.2 3.12614 413.2 3.72614 417.1C4.92614 425.2 6.22614 432.8 4.52614 437.9C-0.673858 452.3 -1.37386 462.3 2.32614 469.6C6.12614 476.9 13.7261 480.1 22.4261 481.9C39.7261 485.5 63.2261 484.6 81.7261 494.4C101.526 504.8 121.626 508.5 137.626 504.8C149.226 502.2 158.726 495.2 163.526 484.6C176.026 484.5 189.826 479.2 211.826 478C226.726 476.8 245.426 483.3 266.926 482.1C267.526 484.4 268.326 486.7 269.426 488.8L269.426 488.9C277.726 505.6 293.226 513.2 309.726 511.9C326.326 510.6 343.826 500.9 358.026 484C371.626 467.6 394.026 460.8 408.926 451.8C416.326 447.3 422.326 441.7 422.826 433.5C423.226 425.3 418.426 416.2 407.326 403.8L407.326 403.8L407.326 403.8ZM211.026 87.3003C220.826 65.1003 245.226 65.5003 255.026 86.9003C261.526 101.1 258.626 117.8 250.726 127.3C249.126 126.5 244.826 124.7 238.126 122.4C239.226 121.2 241.226 119.7 242.026 117.8C246.826 106 241.826 90.8003 232.926 90.5003C225.626 90.0003 219.026 101.3 221.126 113.5C217.026 111.5 211.726 110 208.126 109.1C207.126 102.2 207.826 94.5003 211.026 87.3003L211.026 87.3003L211.026 87.3003ZM170.326 75.8003C180.426 75.8003 191.126 90.0003 189.426 109.3C185.926 110.3 182.326 111.8 179.226 113.9C180.426 105 175.926 93.8003 169.626 94.3003C161.226 95.0003 159.826 115.5 167.826 122.4C168.826 123.2 169.726 122.2 161.926 127.9C146.326 113.3 151.426 75.8003 170.326 75.8003L170.326 75.8003L170.326 75.8003ZM156.726 136.5C162.926 131.9 170.326 126.5 170.826 126C175.526 121.6 184.326 111.8 198.726 111.8C205.826 111.8 214.326 114.1 224.626 120.7C230.926 124.8 235.926 125.1 247.226 130C255.626 133.5 260.926 139.7 257.726 148.2C255.126 155.3 246.726 162.6 235.026 166.3C223.926 169.9 215.226 182.3 196.826 181.2C192.926 181 189.826 180.2 187.226 179.1C179.226 175.6 175.026 168.7 167.226 164.1C158.626 159.3 154.026 153.7 152.526 148.8C151.126 143.9 152.526 139.8 156.726 136.5L156.726 136.5L156.726 136.5ZM160.026 470.5C157.326 505.6 116.126 504.9 84.7261 488.5C54.8261 472.7 16.1261 482 8.22614 466.6C5.82614 461.9 5.82614 453.9 10.8261 440.2L10.8261 440C13.2261 432.4 11.4261 424 10.2261 416.1C9.02614 408.3 8.42614 401.1 11.1261 396.1C14.6261 389.4 19.6261 387 25.9261 384.8C36.2261 381.1 37.7261 381.4 45.5261 374.9C51.0261 369.2 55.0261 362 59.8261 356.9C64.9261 351.4 69.8261 348.8 77.5261 350C85.6261 351.2 92.6261 356.8 99.4261 366L119.026 401.6C128.526 421.5 162.126 450 160.026 470.5L160.026 470.5L160.026 470.5ZM158.626 444.6C154.526 438 149.026 431 144.226 425C151.326 425 158.426 422.8 160.926 416.1C163.226 409.9 160.926 401.2 153.526 391.2C140.026 373 115.226 358.7 115.226 358.7C101.726 350.3 94.1261 340 90.6261 328.8C87.1261 317.6 87.6261 305.5 90.3261 293.6C95.5261 270.7 108.926 248.4 117.526 234.4C119.826 232.7 118.326 237.6 108.826 255.2C100.326 271.3 84.4261 308.5 106.226 337.6C106.826 316.9 111.726 295.8 120.026 276.1C132.026 248.7 157.326 201.2 159.326 163.4C160.426 164.2 163.926 166.6 165.526 167.5C170.126 170.2 173.626 174.2 178.126 177.8C190.526 187.8 206.626 187 220.526 179C226.726 175.5 231.726 171.5 236.426 170C246.326 166.9 254.226 161.4 258.726 155C266.426 185.4 284.426 229.3 295.926 250.7C302.026 262.1 314.226 286.2 319.526 315.3C322.826 315.2 326.526 315.7 330.426 316.7C344.226 281 318.726 242.5 307.126 231.8C302.426 227.2 302.226 225.2 304.526 225.3C317.126 236.5 333.726 259 339.726 284.3C342.526 295.9 343.026 308 340.126 320C356.526 326.8 376.026 337.9 370.826 354.8C368.626 354.7 367.626 354.8 366.626 354.8C369.826 344.7 362.726 337.2 343.826 328.7C324.226 320.1 307.826 320.1 305.526 341.2C293.426 345.4 287.226 355.9 284.126 368.5C281.326 379.7 280.526 393.2 279.726 408.4C279.226 416.1 276.126 426.4 272.926 437.4C240.826 460.3 196.226 470.3 158.626 444.6L158.626 444.6L158.626 444.6ZM416.026 433.1C415.126 449.9 374.826 453 352.826 479.6C339.626 495.3 323.426 504 309.226 505.1C295.026 506.2 282.726 500.3 275.526 485.8C270.826 474.7 273.126 462.7 276.626 449.5C280.326 435.3 285.826 420.7 286.526 408.9C287.326 393.7 288.226 380.4 290.726 370.2C293.326 359.9 297.326 353 304.426 349.1C304.726 348.9 305.126 348.8 305.426 348.6C306.226 361.8 312.726 375.2 324.226 378.1C336.826 381.4 354.926 370.6 362.626 361.8C371.626 361.5 378.326 360.9 385.226 366.9C395.126 375.4 392.326 397.2 402.326 408.5C412.926 420.1 416.326 428 416.026 433.1L416.026 433.1L416.026 433.1ZM160.626 148.7C162.626 150.6 165.326 153.2 168.626 155.8C175.226 161 184.426 166.4 195.926 166.4C207.526 166.4 218.426 160.5 227.726 155.6C232.626 153 238.626 148.6 242.526 145.2C246.426 141.8 248.426 138.9 245.626 138.6C242.826 138.3 243.026 141.2 239.626 143.7C235.226 146.9 229.926 151.1 225.726 153.5C218.326 157.7 206.226 163.7 195.826 163.7C185.426 163.7 177.126 158.9 170.926 154C167.826 151.5 165.226 149 163.226 147.1C161.726 145.7 161.326 142.5 158.926 142.2C157.526 142.1 157.126 145.9 160.626 148.7L160.626 148.7L160.626 148.7Z" id="Shape" fill="#FFFFFF" fill-rule="evenodd" stroke="none" />
          </g>
        </g>
      </g>
    </g>
  </g>
</svg>