<svg xmlns="http://www.w3.org/2000/svg" viewBox="0 0 974.81 1215.53"><title>Asset 6</title><g id="Layer_2" data-name="Layer 2"><g id="Layer_1-2" data-name="Layer 1"><path d="M559.51,559.85c-2.91,0-5.26,2.7-5.26,6s2.35,6.05,5.26,6.05,5.26-2.71,5.26-6.05S562.41,559.85,559.51,559.85Z"/><path d="M961.51,842a62.19,62.19,0,0,0-8.4-7.38,77.37,77.37,0,0,0-9.44-5.73,104.24,104.24,0,0,0-20.23-7.59c-6.88-2-13.85-2.88-20.82-4.08a202.71,202.71,0,0,0-21-2.2c-3.5-.21-7-.36-10.47-.47s-7,0-10.45,0c-7,0-13.92-.07-20.9.08s-13.9.62-20.83,1.08q-19.87,1.39-39.66,3.38a257.33,257.33,0,0,0-80.53-85.63c.73-2.41,1.38-4.85,1.9-7.33A72.57,72.57,0,0,0,702.17,710c0-5-.27-10-.65-15,15.38-5,36.42-19.66,52-31.7,11.9-9.17,20.55-20,25.71-32.33,9.65-23,7.11-49.07,3.1-78.31-3.47-25.3-7-51-10.5-76.67-3.28-24-6.57-48.07-9.83-71.8a18.49,18.49,0,0,0-7.35-12.75c-19.53-13.7-35.57-18.92-55.69-17.87q2.91-8.79,4.95-17.82a158.94,158.94,0,0,0-3.35-81.5,137.06,137.06,0,0,0-18-37A130.62,130.62,0,0,0,654,207.45a166.77,166.77,0,0,0-35.57-20.58l-1.85-.77h0l-.12,0A157.28,157.28,0,0,0,579,175.36c-27.23-4.2-55.33-.89-81.15,8.25q-2.82,1-5.62,2.09h0a165.29,165.29,0,0,0-31.31,15.92A138.35,138.35,0,0,0,430.07,229a131.64,131.64,0,0,0-21,35.46,150.58,150.58,0,0,0-9.16,35.37c-9.83,28.36-10.17,62.44-.68,89.33,10.32,29.22,33.23,56.53,48,63.17-.61.3-1.21.61-1.8.95-12.76-1-23.82,7-35.52,15.47-15.08,10.93-30.68,22.18-51.94,16.22-34-83.5-71.08-173.39-100.81-245-26.27-63.25-50.31-120.68-67.71-161.72-23.09-54.46-28-65.35-30-67.85l.06,0C152,1.83,142.22-1.52,131.29.63c-22.78,4.49-46.62,31.88-54.6,54.65-10.31,29.42-2.43,66.14,20.07,93.55,4.22,5.15,8.89,10,13.4,14.64,4.91,5.09,10,10.35,14.4,15.93,6.76,8.56,14.59,21.72,13.54,35.84-1.27,16.86-14.49,29.39-22.27,35.36-7.34,5.64-15.68,10.3-23.73,14.79-4.93,2.76-10,5.6-14.92,8.68A166.87,166.87,0,0,0,5.42,371.83c-11,41.79-5.94,109.34,21.4,145.6,11,14.59,24.45,27.38,37.46,39.75,16.15,15.37,32.85,31.25,44.48,50.39A129.21,129.21,0,0,1,118,626.14c-3.2,2.77-6.44,5.61-9.58,8.49-19.53,17.91-33,35.63-41.13,54.18-10,22.73-11.54,47.42-4.29,67.74,2.74,7.67,9.35,21.19,22.77,25.44A26.82,26.82,0,0,0,94,783.25c13.7,0,26.34-10.31,33.25-21.58,14-22.92,13.16-51.06,10.45-75.56-1.91-17.24-5.08-38.06-12.66-58.25,7.38-6.37,15-13,21.93-20.16,13-13.57,20.94-26.87,24.27-40.69,2.42-10.06.19-25.81-4.55-39.18l6.08,6.36a10.38,10.38,0,0,0,7.52,3.23,10.45,10.45,0,0,0,8.49-4.36,125,125,0,0,0,51.33,11.08,119.82,119.82,0,0,0,12.44-.67,25.43,25.43,0,0,0,4.27,11.32c4.68,6.52,11.63,6.61,18.35,6.7a56.43,56.43,0,0,1,8.3.53c14,2.33,29.26,5.44,44,8.45,6.26,1.28,12.62,2.57,18.93,3.81l.1.1.06-.07c8,1.58,15.94,3.08,23.53,4.37,7.1,18.56,13.79,36.13,20,52.36h0l.08.22a14.82,14.82,0,0,0,1.09,2.14,10.86,10.86,0,0,0-8,2.65,11,11,0,0,0-1.81,2.09,23.52,23.52,0,0,0-1.28,2.1,25.48,25.48,0,0,0-1.89,4.48,30.12,30.12,0,0,0-1.17,5.63c-14.91-5.86-31.09-5.5-46.78-5.14-3.74.08-7.61.17-11.39.17-19.76,0-44.44,10.13-51.92,32.39-2.93,8.71-2.72,17.86-2.52,26.71.09,3.95.18,8,0,11.95-.39,7.78-2,15.72-3.54,23.39-2.22,11-4.53,22.48-3.43,34.06a161.72,161.72,0,0,1,.35,22.1c-.37,10.34-.64,18.86,4.25,28.35a53.42,53.42,0,0,0-13.34,1.3,57.51,57.51,0,0,0-18.19,7.67,44.28,44.28,0,0,0-7.85,6.33,55.23,55.23,0,0,0-13.56,26.13,51.39,51.39,0,0,0-1.19,9.83,43.42,43.42,0,0,0,.77,8.65,22,22,0,0,0-2.55,4.6,16.17,16.17,0,0,0-1.27,6.88,11,11,0,0,0,2.92,7.07,22.92,22.92,0,0,0,5.14,4.13,53.76,53.76,0,0,0,11.29,4.64l11,3.58,44,14.29,2.9.94c-25.25,8.71-50.3,18.25-74.52,29.89-6.29,3-12.52,6.22-18.64,9.61a195.35,195.35,0,0,0-18,11c-2.91,2-5.9,3.93-8.73,6.05s-5.59,4.44-8.25,6.87a93.08,93.08,0,0,0-7.61,7.77,65.61,65.61,0,0,0-6.57,8.91,51.38,51.38,0,0,0-2.72,5,54.62,54.62,0,0,0-2.17,5.2,44.8,44.8,0,0,0-2.47,11.25,43.9,43.9,0,0,0,.53,11.55,42.9,42.9,0,0,0,3.67,11c6.83,14.12,20.21,23,33.4,28.55a125.13,125.13,0,0,0,20.43,6.57c6.92,1.55,13.83,3.26,20.79,4.24s13.93,1.92,20.88,2.6l20.91,1.4c7,.55,14,.76,20.91.91s13.94.15,20.9.08,13.91-.21,20.86-.47l13.95-.77a269,269,0,0,0,132.71,103.07,262.86,262.86,0,0,0,203.57-12.29,266,266,0,0,0,57.86-38.61,271.17,271.17,0,0,0,25.35-25.5l1.17-.62-.25-.46a264.34,264.34,0,0,0,19.56-25.66A260.26,260.26,0,0,0,806,1015.78l.33-.2-.2-.35q2.07-8.28,3.61-16.68,6.76-2.65,13.51-5.4,19.32-7.81,38.27-16.63,9.48-4.41,18.82-9.09c6.21-3.2,12.33-6.59,18.49-9.88,3.07-1.68,6.17-3.27,9.2-5s6-3.57,9-5.42a204,204,0,0,0,17.48-11.91c11.4-8.32,22.36-17.82,30.56-30.22a64.92,64.92,0,0,0,5.32-9.84,55,55,0,0,0,3.42-10.78,47.57,47.57,0,0,0-.94-22.79A50,50,0,0,0,961.51,842ZM804,877.31l.62,0,7-.32c4.64-.24,9.21-.55,13.73-.66s9-.07,13.6.13,9.12.68,13.67,1,9.17.65,13.62,1.13a51.64,51.64,0,0,1,6.36,1.13,14.9,14.9,0,0,1,4.91,2,1.62,1.62,0,0,1,.29.26,2.61,2.61,0,0,1-.35.67,16.23,16.23,0,0,1-3.94,3.73,46.34,46.34,0,0,1-5.38,3.35c-1.86,1-4.09,1.93-6.11,2.9-8.3,3.82-16.49,7.83-25,11.23s-16.85,6.74-25.39,9.87A265.06,265.06,0,0,0,804,877.31ZM729.29,767.13q-12.76,6.54-25.77,12.58c-9.59,4.39-19.3,8.53-29.16,12.32A552.56,552.56,0,0,1,613.6,811.3a281,281,0,0,0,63.3-11.91,295.92,295.92,0,0,0,30.41-11.14,254.63,254.63,0,0,0,28.49-14.33c2.15,2.33,4.27,4.68,6.33,7.09A250.76,250.76,0,0,1,778.3,836.9c2.27,4.83,4.38,9.74,6.34,14.69l-15,6.83-16.8,7.32-16.95,7-17,6.75-17.17,6.42L684.34,892l-17.42,5.71-17.5,5.47c-23.42,7-47.09,13.26-71,18.49s-47.91,10-72,15.66c24.75-.14,49.32-3.26,73.59-7.81s48.36-10.14,72.15-16.86l17.79-5.2,17.66-5.67,17.53-6,17.41-6.39,17.26-6.77,17.07-7.25,16.91-7.61,14.28-6.88a256.15,256.15,0,0,1,10.49,39.32c1,5.75,1.88,11.54,2.53,17.34-13.89,4.91-27.9,9.51-42,13.94-8.77,2.8-17.59,5.39-26.38,8.1l-26.48,7.81c-17.76,4.86-35.49,9.85-53.29,14.58-35.67,9.22-71.42,18.14-107.37,26.18-18,3.91-35.95,8.06-54,11.46l-27.1,5.34c-9,1.79-18.1,3.37-27.16,5q-27.19,4.75-54.52,8.72c-18.21,2.67-36.44,5.09-54.72,7q-10.77,1.14-21.56,2a243.79,243.79,0,0,1-12.84-56.35c4.62.05,9.25,0,13.86-.24,6.11-.34,12.21-.73,18.28-1.51s12.1-1.63,18.1-2.7A87.76,87.76,0,0,0,361.56,962c-6.17-.29-12.19,0-18.19.29s-12,.5-18,.5-11.95,0-17.91-.29q-7.35-.3-14.65-.77a261.41,261.41,0,0,1-.44-28l30.93,10c3.66,1.18,7.37,2.44,11.29,3.4A41.25,41.25,0,0,0,347,948.44a24.73,24.73,0,0,0,12.3-4.12,20.61,20.61,0,0,0,6.8-7.52l50.15,21.46,14.27,6.11a86.4,86.4,0,0,0,15.14,5.31,32.12,32.12,0,0,0,16.86-.45,22.39,22.39,0,0,0,7.76-4.29,15.72,15.72,0,0,0,3.08-3.54,30.59,30.59,0,0,0,2-3.78,34.84,34.84,0,0,1,3.29-6.32L481,948c.72-1.16,1.45-2.32,2.13-3.51a69.54,69.54,0,0,0,6-15c2.69-9.5,4-19.05,7-27.66.38,0,.77.06,1.15.06a16.55,16.55,0,0,0,12.56-5.15c3.51-3.86,4.4-8.74,5.25-13.45l.27-1.44c.09-.39.17-.78.23-1.17a30.09,30.09,0,0,1,1.19-4.4c1.84-4.89,5.71-8.75,9.8-12.83,1.38-1.37,2.75-2.74,4-4.16,6.87-7.46,9.68-15.45,7.9-22.23,10.44-12.27,24.23-33.18,27.6-43.24,2.29-.22,4.67-.38,7-.57,10.28-.78,20.63-1.31,31-1.92,5.17-.31,10.35-.61,15.56-1,2.6-.19,5.2-.42,7.86-.72s5.28-.81,7.91-1.31a122.35,122.35,0,0,0,30.35-9.78,61.19,61.19,0,0,0,13.69-9.1,35.61,35.61,0,0,0,5.65-6.47c.85-1.29,1.44-2.37,2.12-3.53s1.31-2.3,1.93-3.47a135.18,135.18,0,0,0,7.6-16.58A258.42,258.42,0,0,1,729.29,767.13ZM289.51,999.29a256.8,256.8,0,0,0,7.12,29.11c-7.82.57-15.65,1.06-23.48,1.4-9.19.4-18.26.65-27.4.42s-18.28-.67-27.44-1.29l-3.42-.25-1.48-.15-1.33-.25a6.88,6.88,0,0,1-.93-.29,9.05,9.05,0,0,1,.83-1.28,24.44,24.44,0,0,1,2-2.18,54,54,0,0,1,4.93-4.19,129.28,129.28,0,0,1,11.14-7.53c3.88-2.28,8-4.41,12-6.63s8-4.43,12.08-6.54,8.2-4.14,12.32-6.15c6.85-3.36,13.8-6.49,20.81-9.56C287.83,989.07,288.57,994.2,289.51,999.29Zm39.63-102a.14.14,0,0,1,0-.06,25.9,25.9,0,0,1,14.19-.07,39,39,0,0,1,7.5,2.86c1.22.59,2.4,1.24,3.57,1.94s2.19,1.45,3.34,2.31c9.09,6.95,18.56,14.36,28.79,20.4a150.15,150.15,0,0,0,15.87,8.27,126.36,126.36,0,0,0,17,6c11.75,2.77,23.18,3.56,34.83,5.37-5.19-3-10.91-4.7-16.51-6.41-2.8-.87-5.64-1.57-8.45-2.36s-5.65-1.41-8.28-2.24a122.89,122.89,0,0,1-15.86-6.2c-5.1-2.52-10.11-5.26-15-8.28s-9.56-6.32-14.22-9.71-9.16-7-14-10.51a45.42,45.42,0,0,0-17-7.85,33.35,33.35,0,0,0-11.12-.68v-.13c-.44-10.58,4.41-20.94,11.95-28.24a43.5,43.5,0,0,1,6.15-4.86,44.52,44.52,0,0,1,7-3.57,49.1,49.1,0,0,1,15.5-3.22,57.4,57.4,0,0,1,31,7.84c9.47,5.59,17.69,12.91,26.8,20.5a52,52,0,0,0-15.64-21.39,35.09,35.09,0,0,1,7.94,1.73,157.09,157.09,0,0,1,47.27,29.11l1.92,1.74c4.39,4,8.92,8.09,14.63,10.5.67.28,1.36.54,2.08.76-3.14,9.15-4.36,18.46-6.84,27.11A63.91,63.91,0,0,1,478,941.64l-1.9,3.13-2.16,3a39,39,0,0,0-3.92,7.38,14.27,14.27,0,0,1-3.62,5.34,16.4,16.4,0,0,1-5.74,3.16,26.3,26.3,0,0,1-13.8.3,80.28,80.28,0,0,1-14.1-5l-14.27-6.1-57.07-24.43-14.24-6.1c-4.65-2-9.11-4.24-12.66-7.27a24.13,24.13,0,0,1-2.42-2.43c-.4-.42-.71-.89-1.06-1.33a14.54,14.54,0,0,1-.81-1.32,17.07,17.07,0,0,1-1.1-12.75ZM457,708a28.82,28.82,0,0,0,9.37,2.67,36.11,36.11,0,0,0,20.26-4.1,25.52,25.52,0,0,1,3.93-1.88,29.38,29.38,0,0,1,4.11-1.11,77,77,0,0,1,9.08-1.07c6.24-.46,12.64-.5,19.29-1.37,1.29-.19,2.57-.42,3.85-.62,3.14,1.13,6.64,3.09,8.31,5-7.07,7.21-14.16,14.28-21,21.13s-14,13.93-21.07,21.17a132.29,132.29,0,0,0-51.84-19A57.57,57.57,0,0,1,457,708Zm-17.39,24.54A128.3,128.3,0,0,1,492.34,752l1.34.87,1.12-1.14c7.43-7.61,14.91-15.06,22.14-22.27s14.73-14.67,22.18-22.3l1-1-.6-1.24c-1-2-3.2-3.91-5.82-5.46a243.66,243.66,0,0,0,27.24-6.55,194.11,194.11,0,0,0,18.32-6.58c1.5-.63,3-1.27,4.48-1.95l2.2-1,2.08-.93c2.83-1.19,5.76-2.35,8.73-3.48,5.93-2.27,12-4.53,17.91-7.24s11.89-5.79,17.14-10.54a27,27,0,0,0,2.11-2.16l.11.1c2-2.45,4.22-4.79,6.48-7.06s4.69-4.39,7.17-6.47a87.63,87.63,0,0,1,7.83-5.76c2.72-1.79,5.49-3.53,8.21-5.54a35.86,35.86,0,0,0-9.56,3.13,90.83,90.83,0,0,0-8.86,4.86c-1,.64-2,1.35-3,2.05l.06-.11c1-1.7,2-3.39,3.09-5.07a62,62,0,0,0,6.43-4.71,66.62,66.62,0,0,0,7.14-6.91,76.85,76.85,0,0,0,6.06-7.8,32.23,32.23,0,0,0,4.32-8.81c-2.31,2.36-4.38,4.77-6.5,7.11a73.61,73.61,0,0,1-6.74,6.6c-1,.83-2,1.64-3,2.44,3.22-5,6.38-10.13,9.3-15.42a113,113,0,0,0,7.92-17.84,73.7,73.7,0,0,0,3.89-19.2,57.24,57.24,0,0,0-2-19.24,83.5,83.5,0,0,1-1.3,18.83A93.67,93.67,0,0,1,665.44,592c-4.75,11.48-11.31,22.19-18.3,32.77-3.49,5.3-7.1,10.58-10.47,16.16a85,85,0,0,0-4.67,8.78c-.39.86-.59,1.27-.91,1.87a13.51,13.51,0,0,1-1.08,1.63,20.71,20.71,0,0,1-2.8,3c-4.27,3.8-9.81,6.64-15.45,9.15s-11.6,4.65-17.59,6.86c-3,1.12-6,2.21-9.06,3.53-.76.32-1.52.66-2.29,1l-2.14,1c-1.41.65-2.84,1.27-4.28,1.88s-3,1.26-4.58,1.85c.16-.17.33-.34.49-.52a53.1,53.1,0,0,0,6.44-8.78,21,21,0,0,0,3.11-10.33,49.75,49.75,0,0,1-5.42,8.8,49,49,0,0,1-7,7.41,66,66,0,0,1-8.13,6.06c-1.35.84-2.74,1.63-4.13,2.35a252.46,252.46,0,0,1-35.14,7.73c-6,.89-12.35,1.05-18.81,1.61-2.72.23-5.48.54-8.29,1a32.37,32.37,0,0,0,3.93-8.14A34.9,34.9,0,0,0,500.55,677a24,24,0,0,0-2.94-11.19,58.37,58.37,0,0,1,.18,11.11,31.73,31.73,0,0,1-2.71,10.35,33,33,0,0,1-5.81,8.74,34.13,34.13,0,0,1-5.92,5A30.33,30.33,0,0,1,467,704.5a22.93,22.93,0,0,1-13.45-5.91,32.61,32.61,0,0,0,3.64-2.8A41.22,41.22,0,0,0,467.87,680a54,54,0,0,0,.59-37,50.13,50.13,0,0,0-9.4-16.36,41.38,41.38,0,0,0-7.87-7c1.13-1.64,3.54-3,6.79-4.14a46,46,0,0,1,6.13,1.58,44.76,44.76,0,0,1,6.64,2.89,35.28,35.28,0,0,1,6.09,4.06c1.9,1.57,3.7,3.24,5.66,5a16.67,16.67,0,0,0-3.7-7A39.1,39.1,0,0,0,473,616.6a36.23,36.23,0,0,0-5.47-3.49c5.42-1.06,11.54-1.87,17.45-2.59l.35,0c1.47-.18,2.94-.36,4.37-.52,14.34-1.7,29.17-3.46,38.61-7.64,2.94-1.31,6.52-1,10.3-.76,4,.3,8.08.59,12-.83,4.25-.09,8.52-.1,12.73.11a44.78,44.78,0,0,1,12.45,1.94,41.69,41.69,0,0,1,11.38,5.85,22.38,22.38,0,0,0-10.3-8.62,43.71,43.71,0,0,0-13.15-3.54c-1.77-.21-3.54-.36-5.3-.5a30.32,30.32,0,0,0,3.23-3.28v0a30,30,0,0,1,5.13-1.38,28.81,28.81,0,0,1,11,.3c1.85.42,3.68.94,5.77,1.34a12.45,12.45,0,0,0-4.82-3.94,27.34,27.34,0,0,0-6-2.15,26.9,26.9,0,0,0-6.41-.67h-.28a67.1,67.1,0,0,0,5.23-13.09,16.33,16.33,0,0,0,1.62-6c.54-2.26,1.05-4.52,1.51-6.75A90.88,90.88,0,0,1,585.33,533,54.91,54.91,0,0,1,600,519.17a54.34,54.34,0,0,1,12.46-6,89.78,89.78,0,0,1,13.74-3.34,37.29,37.29,0,0,0-14.49.68,57.32,57.32,0,0,0-13.77,5.18l-.09.05c23.85-27.65,60.72-46.85,92.07-43.71,2,5,3.7,10.18,5.23,15.36.76,2.69,1.47,5.38,2.08,8.09s1.18,5.54,1.73,8.31q1.65,8.36,2.95,16.75,2.58,16.8,3.69,33.77a110.48,110.48,0,0,1,.2,16.65,78.16,78.16,0,0,1-2.92,16.17,70.24,70.24,0,0,1-2.77,7.72c-.54,1.25-1.11,2.49-1.73,3.71l-.45.92-.52,1.25-.5,1.29c-.13.43-.19.84-.28,1.26a30.62,30.62,0,0,0-.28,9.45c.27,3,.74,5.87,1.21,8.71.4,2.46.83,4.9,1.19,7.32a46.53,46.53,0,0,1-7.16,13.91,32.88,32.88,0,0,1-5.69,5.74,23.4,23.4,0,0,1-7.44,3.94,15.26,15.26,0,0,0,9-1.15,25.49,25.49,0,0,0,7.68-5.3,36.21,36.21,0,0,0,4.16-4.92l-.15.66a6.2,6.2,0,0,1-.47,1.63c-.25.52-.32.87-.75,1.67a27.47,27.47,0,0,0-3,8.91c-.26,1.54-.37,3-.54,4.29a5.66,5.66,0,0,1-.92,2.73c-.93,1.35-3.61,2.43-6.17,3.18-5.24,1.65-10.91,2.71-16.47,4.43a69.54,69.54,0,0,0,17.46-.35c.74-.15,1.48-.24,2.23-.44l1.21-.36A260.83,260.83,0,0,1,695,694.68c.33,5.11.51,10.22.46,15.28A71.13,71.13,0,0,1,694,724.72c-2,9.68-6,19.06-10.83,28L681.31,756c-.63,1.07-1.29,2.26-1.87,3.13a28.93,28.93,0,0,1-4.56,5.2,54.45,54.45,0,0,1-12.14,8q-3.21,1.62-6.57,3a33,33,0,0,0,1.19-3.28A40.64,40.64,0,0,0,659.19,761,43.08,43.08,0,0,0,658,750a25.21,25.21,0,0,0-4.63-9.84,85.29,85.29,0,0,1,1.9,10.32,38.94,38.94,0,0,1-.18,10.18,41.34,41.34,0,0,1-2.62,9.68,39.38,39.38,0,0,1-4.36,7.9,136.32,136.32,0,0,1-14,3.65c-2.46.5-5.05,1-7.42,1.32s-5,.55-7.59.8c-5.13.47-10.29.88-15.44,1.28-10.33.82-20.67,1.55-31,2.54-2.61.28-5.19.57-7.85,1-1.42.26-2.52.52-3.67.69a19.75,19.75,0,0,1-3.44.21c-1.15,0-2.35-.25-3.68-.41a19.51,19.51,0,0,0-4.2-.15,17.91,17.91,0,0,0-7.59,2.84,24.9,24.9,0,0,1,7.55-.31c2.33.29,4.5,1.48,7.4,2.06a19.53,19.53,0,0,0,2.55.33c-3.79,8.9-14.65,25.72-24.14,37.26A63.09,63.09,0,0,0,521.56,817,81.34,81.34,0,0,0,502,806.63a170.78,170.78,0,0,0-20.94-6.15c-7.06-1.6-14.12-3-21.29-4,6.76,2.63,13.72,4.54,20.57,6.67a167.48,167.48,0,0,1,20.11,7.25,81.24,81.24,0,0,1,18,10.72A60.91,60.91,0,0,1,532,836.5l.09-.06.4,1c2.78,7-3.4,14.83-6.19,17.86-1.24,1.35-2.56,2.66-3.87,4a60,60,0,0,0-8.78,10.22,36.77,36.77,0,0,0-5.9-9.13,44,44,0,0,0-8.5-7.53,20.44,20.44,0,0,0-10.53-3.77,43,43,0,0,1,8.87,6,40.61,40.61,0,0,1,6.94,7.82,36,36,0,0,1,4.61,9.08,17.64,17.64,0,0,1,.91,6.55c-.28,1.25-.51,2.49-.74,3.72-.74,4.09-1.44,7.94-3.82,10.57-3.7,4.06-10.38,3.79-15,1.83-4.8-2-8.77-5.63-13-9.45l-2-1.76a163,163,0,0,0-49-30.2c-3.56-1.4-7.68-1.89-11.66-2.37-8.45-1-12.17-1.88-12.31-5.79-.1-2.69-.44-5.24-.77-7.71-.65-4.88-1.2-9.13.2-13.31,2.24-2.31,4-4.25,6.29-5.39a16.58,16.58,0,0,1,8.31-1.5c6.11.39,12.35,2.61,18.4,5a195.71,195.71,0,0,1,17.75,8.73c5.86,3.12,11.55,6.55,17.58,9.51-2.55-2.16-5.22-4.19-7.88-6.22s-5.5-3.8-8.28-5.67a198.27,198.27,0,0,0-17.49-10.06l-4.64-2.13c-1.52-.75-3.2-1.23-4.8-1.85a40.74,40.74,0,0,0-5-1.5,35.67,35.67,0,0,0-5.26-1,26,26,0,0,0-6.09.14,55.44,55.44,0,0,0,5.07-9A276.69,276.69,0,0,0,429.2,766c.83-2.85,1.62-5.66,2.4-8.42C434.11,748.6,436.46,740.21,439.63,732.57ZM410.89,616.08c-4.26-10.71-8.75-21.91-13.41-33.52,6.28,1.19,16.08,2.78,23.66,2.78a33.72,33.72,0,0,0,5.39-.37c.51,7.93,1.21,14.91,1.79,20.51q.39,3.84.68,6.93a39.57,39.57,0,0,0-4.22.08A41.78,41.78,0,0,0,410.89,616.08Zm23.25-11.2c-2-19.79-5.33-52.17,2.56-86.69a80.4,80.4,0,0,0,16.41,19.73c-3.3,24.66-5.18,50.14-1.3,74a14.67,14.67,0,0,0-5.67,4.85c-.84-.42-1.69-.82-2.56-1.18a41.42,41.42,0,0,0-8.65-2.52C434.73,610.66,434.45,607.93,434.14,604.88ZM470.79,484c7.6,2.91,15.68,3.83,23.3,4.53q19.26,1.75,37.54,1.76a327.47,327.47,0,0,0,62.22-5.7c-16.37,11.88-30,29.56-38.39,44.42-26.83-5.62-59.81-9.88-81.63-11.76-10-11.32-18.43-29.9-20.42-46.31C457.22,476.57,463.28,481.15,470.79,484Zm193.59-51.53a48.91,48.91,0,0,1,9.5,9.71,102.66,102.66,0,0,1,8.85,14c1.68,3.17,3.22,6.41,4.66,9.71-39.36-2.12-85.92,27.62-107.77,65.45q-1.11,1.49-2.1,3.06c-4.85-1.43-10.27-2.8-16.07-4.11,9.68-16.49,30.09-42.68,54.19-50.84,11-3.09,23.52-7.41,33.26-16C656.07,457.11,667.56,446.94,664.38,432.48Zm-94.9,123.37a12.84,12.84,0,0,0-10-5c-7.42,0-13.45,6.73-13.45,15s6,15,13.45,15a12.19,12.19,0,0,0,2.9-.36c-2.93,6.41-7,11.62-13,14.38a8.41,8.41,0,0,1-1.33.48c-3.55-.08-7.1-.08-10.76.19-3.8-.25-7.67-.28-11.4,1.37a55.36,55.36,0,0,1-9.68,3l1.62-24.71-8.13-12.64,1.34-35.27c22.65,3.14,46.95,7.46,64.14,12.45A91.34,91.34,0,0,0,569.48,555.85Zm-3.6,15a7.38,7.38,0,0,1-6.37,4.2c-4.19,0-7.6-4.11-7.6-9.16s3.41-9.16,7.6-9.16,7.6,4.11,7.6,9.16c0,.16,0,.3,0,.45C566.7,567.86,566.3,569.37,565.88,570.85Zm-60.66-44.23-1.43,37.67,8.08,12.56-1.59,24.37c-5.89,1-12.36,1.86-18.81,2.63a41.21,41.21,0,0,0,2.36-14.44c0-12.42-6.89-22.15-15.69-22.15a14.31,14.31,0,0,0-10.71,5c-4,4.48-5.75,11.31-5,19.27a34.51,34.51,0,0,0-6.33,7.11c-1.88-23.08.9-47.49,4.36-70.8.48-3.23,2.88-5.49,5.5-5.35C476.09,523.2,490.09,524.63,505.22,526.62Zm-47.85,83c0-.19-.07-.38-.1-.58,2.75-6.83,6.35-11.51,11.63-15a14.16,14.16,0,0,1,6-2.65c2.94-.34,6.24,1.47,8,4.34a13.24,13.24,0,0,1,1.54,8.82,3.08,3.08,0,0,1-.28.26C473.84,606,464.43,607.29,457.37,609.58Zm30.49-17.07a14.66,14.66,0,0,0-13.55-7,16.55,16.55,0,0,0-6.2,2.1c.07-4.78,1.33-8.75,3.69-11.39a8.53,8.53,0,0,1,6.34-3.07c5.33,0,9.83,7.46,9.83,16.3C488,590.5,487.93,591.53,487.86,592.51ZM410.59,800.85c-1.29,3-4.41,8.57-6.68,10.6-10.22,9.16-9,18.06-7.89,26.67.31,2.33.63,4.74.72,7.16,0,.13,0,.25,0,.38-1.47-.54-2.95-1-4.46-1.47-1.71-.48-3.44-.86-5.19-1.18.45-12.25-1-24.18-.53-35.79a63.54,63.54,0,0,1,2.9-18c.4-1.32,1.07-3.17,1.44-4.84a31.79,31.79,0,0,0,.68-4.65,90.23,90.23,0,0,0,22.54,12.51C413.11,794.85,411.94,797.67,410.59,800.85Zm363.26-172.2c-4.76,11.33-12.8,21.42-23.89,30-20.34,15.69-37.43,26.25-49,30.34a217.62,217.62,0,0,0-3.79-24.77c0-.06.11-.1.16-.16.31-.4.62-.82.9-1.24a12.22,12.22,0,0,0,.6-1.34,6.43,6.43,0,0,0,.4-1.31c.09-.41.21-.86.27-1.24.23-1.54.36-2.93.6-4.21a22.12,22.12,0,0,1,2.58-7.19c.25-.46.7-1.44,1-2.22a11.34,11.34,0,0,0,.77-2.45l.28-1.23.13-1.19a17.67,17.67,0,0,0,.18-2.37c.13-6.21-1-11.91-1.77-17.54-.41-2.81-.82-5.59-1-8.29a25.16,25.16,0,0,1,.31-7.6,6.36,6.36,0,0,1,.18-.83l.3-.71.28-.73.51-1c.69-1.31,1.33-2.67,1.93-4a73.94,73.94,0,0,0,3.11-8.38A76.85,76.85,0,0,0,711,580.5a153.35,153.35,0,0,0,64.67-33.25l.84,6.15C780.45,581.78,782.93,607,773.85,628.65Zm.9-88.4a147.38,147.38,0,0,1-62.75,34c.11-.92.23-1.84.31-2.77a99,99,0,0,0,.23-12.41A198.91,198.91,0,0,0,773,527.36Q773.87,533.82,774.75,540.25Zm-8.7-63.52q3,22,6,43.91A192.75,192.75,0,0,1,712.22,553q-1.1-16.85-3.66-33.52-1.3-8.55-3-17c-.56-2.83-1.13-5.64-1.75-8.47s-1.39-5.7-2.18-8.51A158.58,158.58,0,0,0,695.87,469a152.1,152.1,0,0,0-7.46-15.83c-1.89-3.44-3.94-6.82-6.18-10.09,5-3.63,10.18-7.56,15.16-11.37,18.5-14.16,37.61-28.76,56.81-32.41a13.94,13.94,0,0,1,2,5.64C759.48,428.67,762.77,452.7,766.05,476.73Zm-17.21-82.22c-19,5-37.29,19-55,32.54-5,3.79-10.07,7.7-15.05,11.29a53.07,53.07,0,0,0-11.43-10.93,130.6,130.6,0,0,0,23-32.89,153.89,153.89,0,0,0,6.49-15C715.86,378.07,730.86,382.4,748.84,394.51Zm-98.41-182.4a124.71,124.71,0,0,1,27.33,28.37A131.57,131.57,0,0,1,695,276a153.14,153.14,0,0,1,3.21,78.47A164,164,0,0,1,685,391.81,130.39,130.39,0,0,1,662.25,424a127.14,127.14,0,0,1-31.6,23.51c-11.72,6.18-24.17,10.84-37,15.5A105.73,105.73,0,0,0,633,452.16a127.18,127.18,0,0,0,25.88-16.81c1.14,9.4-5.86,16.61-13.89,23.72-8.88,7.86-20.69,11.89-31.07,14.81-35.21,9.88-75.36,12.85-119.33,8.83-7.21-.66-14.83-1.53-21.74-4.17-7.3-2.78-12.93-7.37-15.86-12.91A18.89,18.89,0,0,1,455,455c33.53,9.85,102.6,14.53,135,2.32a15.3,15.3,0,0,0,8.42-8.11c8.6-19,15.74-36.7,20.31-54.06a52.43,52.43,0,0,0,2.52,5.35c5.88,10.59,14.66,17,24.72,18.19a28.25,28.25,0,0,0,3.18.18c9,0,17.74-4.31,25-12.36,7.86-8.72,13-20.87,14.54-34.21,3.17-27.89-10.84-52.46-31.21-54.78-13.47-1.53-26.39,7-34.52,21a144.12,144.12,0,0,0-12.35-41,5.56,5.56,0,0,0-2.48-2.63c-24.65-12.61-57.69-22.17-92.14-25.17,1.95-26.3,10.83-45.47,29.22-63.37,16.63-16.2,45.74-22.39,69.32-14.76l1.61.67A160.72,160.72,0,0,1,650.43,212.11Zm-59.72,119.6c-3.27,6.74-13.92,8.32-23.78,3.53s-15.2-14.13-11.93-20.87,13.91-8.32,23.77-3.53S594,325,590.71,331.71Zm.14,28.6a7.39,7.39,0,1,1-3.42-9.88A7.4,7.4,0,0,1,590.85,360.31Zm63.86,51.88a12.94,12.94,0,0,1-8.9-4.45c-2.84-3.06-4.58-7.08-5.78-10.23a78.78,78.78,0,0,1,1.25-58.63c4.14-9.66,9.48-14.87,15.84-15.54,17,2.2,28.5,23.73,25.71,48.25-1.38,12.14-6,23.13-13.07,31C665.23,407.58,660.06,410.83,654.71,412.19ZM635.9,336.57a84.63,84.63,0,0,0-1.34,63,37.15,37.15,0,0,0,6.78,11.93c-6-2.23-11.16-7-15-13.91-5.12-9.21-7.17-21-5.79-33.09,1.91-16.86,10.11-30.79,20.58-37.33A46.87,46.87,0,0,0,635.9,336.57ZM494.64,191q2.55-1,5.11-1.9c25-8.85,52.13-12,78.32-8,3,.44,5.93,1,8.86,1.63-17.39,1.36-34.34,8.16-45.85,19.37-19.23,18.72-28.89,39.59-31,67.12-21.29-1.39-43-.21-63.38,4.33C448.61,243.24,465.31,206,494.64,191Zm-80.16,75.56a125.75,125.75,0,0,1,20.09-33.89,132.87,132.87,0,0,1,29.52-26.19C466,205.23,468,204,470,202.85c-18.07,19.76-28.13,48.21-29.2,72.16a154.38,154.38,0,0,0-32.73,12.42A138.29,138.29,0,0,1,414.48,266.59Zm5.94,55.57c-7.76,14.19-11.69,47.3-6.2,68.4-12.32-19.83-12.81-44.84-9.42-67.94,1.22-8.24,3.05-16.82,8.43-23.19,6.15-7.28,27.39-16.91,54.4-14.63C447.87,290.54,431.56,301.81,420.42,322.16Zm26.91,136.71c-1.81,18.48,6.89,42.27,18.46,57.79-5.5-.09-10.23,4.27-11.13,10.34l-.57,3.91C443.31,520.47,434.53,504.59,433,492,431.47,480.13,436.48,465.66,447.33,458.87Zm-77.71,33.62c17.45,0,31.25-10,43.73-19,8.2-5.95,16.08-11.64,24.06-13.67a42,42,0,0,0-10.27,32.94,61.15,61.15,0,0,0,5.47,17.79h-.05c-6.21,23.28-7.16,46.29-6.49,65.21q-1.81-1.41-3.54-2.92a55.25,55.25,0,0,1-6.86-7.24,40.23,40.23,0,0,1-5.22-8.53,85.45,85.45,0,0,1-3.54-9.67,24.61,24.61,0,0,0,.94,10.63,43.86,43.86,0,0,0,4.46,9.88,51.34,51.34,0,0,0,6.63,8.62c1,1.06,2,2,3.11,3-6.17.06-16.48-1.2-27.17-3.43-10.68-26.55-22.23-55.07-34.2-84.48A47.63,47.63,0,0,0,369.62,492.49Zm-2.82,61.14c-11.71-30.59-24.28-63.37-37.22-97.08a20.13,20.13,0,0,0,9.1-3.43c13.77,33.72,27.11,66.52,39.5,97.18A13.35,13.35,0,0,1,366.8,553.63Zm-30.41-106.1a15,15,0,0,1-9,3.36C314.53,417.36,301.32,383,288.26,349,255.44,263.64,222,176.73,197.58,112.53,233.86,198.72,287.67,328.37,336.39,447.53ZM131.85,686.75c2.6,23.52,3.49,50.45-9.62,71.86-7.34,12-21.59,21.92-34.65,17.8-11-3.49-16.65-15.18-19-21.83-6.75-18.93-5.24-42,4.14-63.41,7.82-17.79,20.81-34.88,39.73-52.23,2.56-2.35,5.21-4.68,7.85-7C127.11,650.93,130.05,670.47,131.85,686.75Zm33.67-121.11c-3.08,12.78-10.54,25.21-22.81,38-6.25,6.52-13.2,12.6-20,18.47a133.39,133.39,0,0,0-8.95-17.58c-12-19.8-29-36-45.45-51.59-12.83-12.21-26.1-24.83-36.81-39C6,480.14.39,414,11.08,373.32A161,161,0,0,1,80.3,279c4.76-3,9.79-5.8,14.65-8.51,8.24-4.6,16.76-9.36,24.45-15.27,8.55-6.56,23.1-20.43,24.53-39.57.95-12.65-4.16-26.45-14.77-39.9-4.59-5.81-9.78-11.18-14.79-16.37-4.43-4.58-9-9.32-13.08-14.28-21.24-25.87-28.72-60.37-19.08-87.9,7.3-20.8,29.71-46.8,50.21-50.84,8.72-1.72,16.22.79,22.32,7.41.84,3.71,3.68,11.38,10,28.31,6.39,17.19,15.74,41.94,28.58,75.65,23.93,62.79,55.78,145.65,89.49,233.36,16.07,41.82,32.37,84.21,48,124.91a132,132,0,0,0-19.36-5.58c-6.86-1.57-13.33-3.06-20.61-6.14a12.85,12.85,0,0,0-10.47.08,35.67,35.67,0,0,0-7.74,5,42.07,42.07,0,0,1-13.35-4.27c-4.66-2.33-9.22-5.36-14.15-8a106.06,106.06,0,0,0-15.35-7,48.87,48.87,0,0,0-17.08-3,33,33,0,0,0-8.85,1.51,20.68,20.68,0,0,0-2.92,1.25l-2.59-1.32a4.57,4.57,0,0,1-2.48-3.47l-4.15-30.61a10.44,10.44,0,0,0-17.75-6l-21.77,21.92a4.58,4.58,0,0,1-4.07,1.28l-30.4-5.51a10.44,10.44,0,0,0-11.14,15l14.11,27.48a4.55,4.55,0,0,1,0,4.26L106,500.19a10.44,10.44,0,0,0,10.86,15.25l30.49-4.94a4.62,4.62,0,0,1,4,1.36h0C161.27,522.35,168.92,551.48,165.52,565.64Zm16.14-34.3a4.48,4.48,0,0,1-4.69-1.2l-21.35-22.33a10.42,10.42,0,0,0-9.21-3.08l-30.49,4.93a4.59,4.59,0,0,1-4.78-6.7l14.64-27.2a10.44,10.44,0,0,0,.09-9.72l-14.11-27.47a4.58,4.58,0,0,1,4.89-6.61l30.4,5.51a10.4,10.4,0,0,0,9.26-2.91l21.77-21.92a4.59,4.59,0,0,1,7.8,2.62L190,445.87a10.43,10.43,0,0,0,5.64,7.91l.23.12-.06.07a9.94,9.94,0,0,0-2.08,5,9.56,9.56,0,0,0,.89,5.33,13.16,13.16,0,0,0,7.33,6.48,37.79,37.79,0,0,0,4.25,1.1l4,.88c2.62.61,5.21,1.29,7.76,2.09l4.59,1.41-27.23,13.12a10.46,10.46,0,0,0-5.79,7.81l-4.73,30.52A4.49,4.49,0,0,1,181.66,531.34Zm75-38.08c-4.6,12.9-4.66,26.41-4.71,39.47,0,1.56,0,3.22,0,4.92a119,119,0,0,1-61.29-10.08l4.58-29.52a4.59,4.59,0,0,1,2.54-3.44l27.83-13.4a10.61,10.61,0,0,0,3.62-2.89c1.38.42,2.79.83,4.25,1.18h0A39.69,39.69,0,0,0,219.23,471c-2.63-.91-5.3-1.71-8-2.43l-4-1a35.86,35.86,0,0,1-3.65-1,8.56,8.56,0,0,1-4.55-4.23,4.74,4.74,0,0,1,.81-5.09,11.77,11.77,0,0,1,5.62-3.38,27.72,27.72,0,0,1,7.3-1c10.1-.07,20.05,4.48,29.35,9.63,4.66,2.6,9.29,5.53,14.4,8.09a48.15,48.15,0,0,0,8.64,3.38c.73.21,1.47.39,2.22.56A61.6,61.6,0,0,0,256.71,493.26Zm92.48,75.6c-1.14-1-2.28-2.08-3.38-3.19-1.54-1.53-3-3.19-4.37-4.88s-2.72-3.46-4-5.3a51.51,51.51,0,0,0-4.06-5.51,20.32,20.32,0,0,0,1.61,6.8,56.1,56.1,0,0,0,3,6.31,47.59,47.59,0,0,0,2.55,4.06l-12-2.42c-14.82-3-30.15-6.13-44.24-8.48-1.1-.19-2.18-.3-3.25-.38a98.56,98.56,0,0,1-2.57-11.44,96.4,96.4,0,0,1-1.2-13.81,89.14,89.14,0,0,1,.83-13.93c.62-4.63,1.49-9.24,2.33-14a51.7,51.7,0,0,0-5.05,13.46,93.27,93.27,0,0,0-2.19,14.32,87.67,87.67,0,0,0,.17,14.58,82.53,82.53,0,0,0,1.67,10.56c-6.6-.09-10.79-.36-13.59-4.26-3.47-4.83-3.73-11.29-3.7-18.63,0-12.56.11-25.56,4.38-37.52s12-21.53,20.59-25.55a7,7,0,0,1,5.71,0l.77.31a25.18,25.18,0,0,0-1.68,2.06,31.18,31.18,0,0,0-3.19,5.42,30.52,30.52,0,0,0-2,5.86,13.39,13.39,0,0,0-.17,6.14c1.11-1.8,1.92-3.51,2.78-5.2a35.15,35.15,0,0,1,6.51-8.89,39.7,39.7,0,0,1,3.7-3.19c5.19,1.71,10.09,2.85,14.86,3.95,7.77,1.78,15.12,3.48,23.61,7.49,11.89,31,23.35,60.9,34,88.68C361.66,571.27,355.45,570.09,349.19,568.86Zm19.93-9.16h.08A18.67,18.67,0,0,0,380.47,556c9.49,23.51,18.39,45.69,26.45,66,1.64,4.1.2,9.13-3.12,11a5,5,0,0,1-4.2.37,7.19,7.19,0,0,1-4.06-4.3v0C387.52,607.88,378.62,584.56,369.12,559.7Zm13.51,86.37a20.82,20.82,0,0,1,1.5-3.72c.32-.59.65-1.17,1-1.71a6.75,6.75,0,0,1,1.07-1.3,6.67,6.67,0,0,1,7.78-.71l1,.57a9.11,9.11,0,0,0,1.16.6,15.53,15.53,0,0,0,4.94,1.32,14.45,14.45,0,0,0,9.73-2.39,10.57,10.57,0,0,0,4.59-8.33,24.58,24.58,0,0,1-4.76,4.07A15.33,15.33,0,0,0,413,621.64a36.58,36.58,0,0,1,12.25-3.08,35.43,35.43,0,0,1,29.11,12.2,45,45,0,0,1,8.18,14.33,47.73,47.73,0,0,1-.34,32.7,35.16,35.16,0,0,1-9,13.5,31.38,31.38,0,0,1-14.46,7A89.12,89.12,0,0,1,421.64,700c-5.9.1-11.83.52-15.69-2.09-1.92-1.26-3.53-3.43-5.17-5.85l-5-7.35-2.93-4.3a21,21,0,0,0,2.85-.07,4.63,4.63,0,0,0,3.13-1.39A18.61,18.61,0,0,0,396,677.6c-.88-.34-1.74-.75-2.59-1.16s-1.71-.83-2.54-1.3-1.47-.77-2.2-1.15q-1.21-2-2.3-4c-.38-.73-.74-1.46-1.09-2.2a22.14,22.14,0,0,0,4.86.34,22.53,22.53,0,0,0,5.07-.79,9.59,9.59,0,0,0,4.45-2.46,44.11,44.11,0,0,0-4.8-.29,24.73,24.73,0,0,1-4.42-.54,25.55,25.55,0,0,1-4.12-1.26,28.25,28.25,0,0,1-3.61-1.8,28,28,0,0,1-1.11-6.85A25.41,25.41,0,0,1,382.63,646.07ZM272.56,679.63c4.11-12.24,14.33-20.29,25.76-24.6,11.82-1.26,25.15,1.93,34.18,6.08-14.5,16.65-21,35.14-27.15,55.71-10.53-1.38-23.81-.6-35.07.4,0-.16,0-.33,0-.49.21-4.14.11-8.33,0-12.38C270.14,695.62,270,687.37,272.56,679.63ZM266.67,741c1.3-6.45,2.63-13.09,3.3-19.8,11.77-1.07,25.9-1.92,36.46-.25l1.69.27.49-1.65c6.39-21.55,12.94-40.77,28.5-57.73l1.72-1.88-2.26-1.17a75.09,75.09,0,0,0-23.13-7.23c1.86-.18,3.7-.3,5.49-.3,3.85,0,7.75-.09,11.53-.17,16.57-.37,32.25-.72,46.58,5.61A44.18,44.18,0,0,0,382,672.25a159.05,159.05,0,0,0,9.46,15.4l4.91,7.42c1.65,2.47,3.5,5.3,6.52,7.41a20.22,20.22,0,0,0,9.72,3.14c3.23.28,6.19.18,9.18.18A89.35,89.35,0,0,0,440,704.13a42.76,42.76,0,0,0,8.13-2.62,34,34,0,0,0,3.6,3.28C436.64,718,431.66,735.67,426,755.94c-.77,2.75-1.55,5.54-2.38,8.37-2.63,9-4.59,15.28-7.29,22.46a85.57,85.57,0,0,1-24.45-14.32,34.73,34.73,0,0,0-1.55-6.78c-1-5.17-2-10-1.06-14.69a80.64,80.64,0,0,0,1.36-9.77,44.35,44.35,0,0,0-.58-10.08,36.86,36.86,0,0,0-3.25-9.58l-1.19-2.22c-.42-.72-.92-1.39-1.37-2.09a38.92,38.92,0,0,0-3-4,57,57,0,0,0-15.12-12.16c4.39,4.72,8.8,9.28,12.38,14.33s6.38,10.49,7.28,16.43a39.11,39.11,0,0,1,.24,9c-.08.87-.19,1.72-.32,2.58a2.19,2.19,0,0,1-.84-.34,7.27,7.27,0,0,1-2.11-2.77c-1.31-2.6-2.47-5.72-4.05-8.64a27.6,27.6,0,0,0-6.08-7.91,24.43,24.43,0,0,0-8.45-4.8,28.32,28.32,0,0,1,6.95,6.23,27.81,27.81,0,0,1,4.31,8c1.07,2.87,1.67,5.87,2.86,9.12a11.92,11.92,0,0,0,3.19,5,7.45,7.45,0,0,0,3.2,1.66l-.21,1a24.21,24.21,0,0,0-.49,3.65A56.52,56.52,0,0,0,369,740a83,83,0,0,0-18-8.36,91.69,91.69,0,0,0-19.12-4c11.36,6.57,23.43,10.69,33.48,17.8a58.45,58.45,0,0,1,13.11,12.37,41.76,41.76,0,0,1,7.4,14.79,36.71,36.71,0,0,1,.17,6.18,25.11,25.11,0,0,1-.66,4.24c-.35,1.44-.79,2.59-1.34,4.31a68.85,68.85,0,0,0-3.43,19.6c-.36,6.57,0,13,.3,19.39.24,5.35.44,10.64.37,15.87l-.73-.06a31.12,31.12,0,0,0-2.87-2.11,36,36,0,0,0-5.09-2.71,35.27,35.27,0,0,0-5.4-1.8,13.07,13.07,0,0,0-5.68-.27,39.26,39.26,0,0,0,4.68,2.86,42,42,0,0,1,4.4,2.79c.52.38,1,.77,1.52,1.17a51.28,51.28,0,0,0-7.28,1,56.56,56.56,0,0,0-8.95,2.71,51.08,51.08,0,0,0-8.35,4.37,50.07,50.07,0,0,0-7.25,6l-.5.54c-1.39-1.51-2.76-3-4.09-4.49-12.63-14.05-24.59-27.32-48.8-20.9a56.75,56.75,0,0,0-8.7-4.08,48.21,48.21,0,0,0-8.92-2.26c-.23-.35-.44-.7-.65-1.05a10.83,10.83,0,0,1,1.86-3.38,15.16,15.16,0,0,1,5.15-4c4.1-2,9.19-2.66,14.17-3a61.51,61.51,0,0,1,15.06.92,112.66,112.66,0,0,1,14.86,4,45,45,0,0,0-14.24-6.67,65.22,65.22,0,0,0-15.76-2.3c-5.32-.06-10.79.25-16.21,2.44a19.64,19.64,0,0,0-7.26,5.1c-.23.26-.42.55-.63.82-2.41-6.64-2.19-13.1-1.89-21.57a165.53,165.53,0,0,0-.38-22.86C262.31,762.61,264.43,752.1,266.67,741Zm14.44,182.89-44-14.29-11-3.58A48.24,48.24,0,0,1,216,901.9a17.27,17.27,0,0,1-3.86-3.08,5.07,5.07,0,0,1-1.38-3.4,12,12,0,0,1,1.79-6.29,20.87,20.87,0,0,1,6.18-.58,47.66,47.66,0,0,1,7.75,1,133.8,133.8,0,0,1,15.6,4.51c10.36,3.57,20.53,8,30.67,12.41s20.3,9,30.49,13.49,20.35,9.38,31.67,10.91c-9.62-6-19.76-10.17-29.76-15.05s-20-9.75-30.06-14.52-20.36-9.2-31-13a118,118,0,0,0-16.44-4.69,53.49,53.49,0,0,0-8.78-1,32.85,32.85,0,0,0-4.4.2c-1.24-10.81,2.05-22.19,8-31.37a46.6,46.6,0,0,1,5.34-6.7,41.67,41.67,0,0,1,6.63-5.28,50.76,50.76,0,0,1,15.9-6.79,47.69,47.69,0,0,1,17.21-1A46.61,46.61,0,0,1,284,837a120.32,120.32,0,0,1,15.19,9.9c5,3.58,10.2,7.09,16.42,9.16a67,67,0,0,0-12.95-13.69c-2.81-2.22-5.68-4.4-8.67-6.47,17-2.26,26.12,7.84,37.3,20.27,1.5,1.68,3.06,3.39,4.65,5.11-.54.74-1.07,1.49-1.57,2.26a49.49,49.49,0,0,0-4.21,8.39,44.11,44.11,0,0,0-2.27,9.12,39.26,39.26,0,0,0-.11,7.89,15,15,0,0,0-4.21,6.49,22.83,22.83,0,0,0,1.49,17.38,21.67,21.67,0,0,0,1.22,2c.46.57.87,1.18,1.36,1.7a30.48,30.48,0,0,0,3.06,3.06c4.35,3.7,9.33,6.08,14.12,8.19l14.29,6.12,1.51.65c-2.69,4.74-8.32,7.82-14.06,8.11-6.93.45-14.12-2.07-21.45-4.44Zm378.73,251.83a251,251,0,0,1-62.46,20.87,258.39,258.39,0,0,1-65.75,4,248.42,248.42,0,0,1-53.19-9.58l2.35,0a577.49,577.49,0,0,0,229.47-47.91A257.58,257.58,0,0,1,659.84,1175.69Zm134.77-165c-17.47,9-35.17,17.61-53.23,25.34q-30.63,13.2-62.42,23.5c-21.15,6.89-42.69,12.58-64.41,17.69s-43.71,9.23-65.91,13.18a397,397,0,0,0,67.51-4.92,499.78,499.78,0,0,0,66.18-15.11A550.38,550.38,0,0,0,746.14,1047c15.12-6.69,30-14,44.37-22.11-.67,2.09-1.35,4.17-2.08,6.23a256.28,256.28,0,0,1-29.73,59,251.49,251.49,0,0,1-21,26.73q-6.24,3.23-12.57,6.3a563.83,563.83,0,0,1-264.5,55.6q-8.79-.32-17.56-.94a257.83,257.83,0,0,1-25.81-13.83l21.14-.33,22-.84,21.92-1.45,21.89-2,21.83-2.55,21.76-3,21.67-3.63c28.84-5.09,57.39-11.71,85.58-19.55,7-2,14-4.17,21-6.26,6.94-2.29,13.86-4.68,20.76-7.09l10.24-3.94,10.18-4.08c6.7-2.94,13.39-5.89,20-9.13-7.18,1.56-14.23,3.4-21.27,5.25L705.38,1108l-10.54,2.78c-7.05,1.75-14.08,3.53-21.08,5.41s-14.08,3.44-21.08,5.29c-28.14,6.93-56.57,12.54-85.14,17.1l-21.47,3.13-21.52,2.75L503,1146.68l-21.61,1.86-21.64,1.4-21.66,1-21.69.54-17.35.13a263,263,0,0,1-40.86-37c-5.11-5.71-10-11.67-14.56-17.82l13.84-.76,10.41-.57c3.46-.24,6.92-.52,10.38-.81q20.76-1.74,41.45-4.08t41.3-5.21c13.75-1.82,27.42-4.19,41.12-6.37l20.54-3.31c3.43-.52,6.84-1.16,10.25-1.82l10.22-1.94c13.62-2.63,27.26-5.18,40.84-8,54.29-11.43,108.16-25.18,161-42.35,17.22-5.64,34.37-11.57,51.36-17.93Q795.52,1007.21,794.61,1010.69Zm170-128.22a45.85,45.85,0,0,1-2.93,8.92,56.59,56.59,0,0,1-4.62,8.34c-7.2,10.7-17.5,19.63-28.47,27.43a193,193,0,0,1-16.89,11.28c-2.91,1.77-5.85,3.49-8.82,5.19s-6,3.2-9.06,4.82c-6.07,3.16-12.07,6.42-18.19,9.5s-12.37,5.94-18.62,8.77q-18.76,8.49-37.93,16.17c-25.49,10.35-51.46,19.47-77.66,28-52.44,16.86-106,30.34-159.94,41.53-13.51,2.75-27.08,5.17-40.6,7.83l-10.15,2c-3.38.67-6.77,1.32-10.17,1.84l-20.4,3.37c-13.6,2.2-27.18,4.61-40.85,6.48s-27.31,3.72-41,5.31-27.39,3-41.1,4.19c-3.44.3-6.86.59-10.3.84l-10.3.6L336.06,1086l-20.61,1.21c-6.87.28-13.75.43-20.61.54s-13.73.09-20.59,0-13.72-.21-20.54-.68L233.22,1086c-6.82-.59-13.6-1.32-20.31-2.3s-13.3-2.45-19.89-3.84a114.72,114.72,0,0,1-19.07-5.89,81.77,81.77,0,0,1-8.85-4.2,64.4,64.4,0,0,1-8-5.24,41.74,41.74,0,0,1-11.92-14.18,33.71,33.71,0,0,1-3-8.57,35.06,35.06,0,0,1-.51-9.1,35.84,35.84,0,0,1,1.88-9,46.13,46.13,0,0,1,1.77-4.38,43.94,43.94,0,0,1,2.22-4.15,71.22,71.22,0,0,1,12.39-15c2.41-2.28,4.94-4.44,7.57-6.54s5.49-3.92,8.22-5.89a185,185,0,0,1,17.19-11q8.87-5.12,18.06-9.72c12.26-6.14,24.82-11.77,37.52-17.06,11.46-4.81,23.06-9.3,34.72-13.66a293.74,293.74,0,0,0,3.83,41.23c-7.85,3.22-15.7,6.55-23.43,10.13-4.21,1.94-8.39,4-12.54,6s-8.24,4.31-12.37,6.45-8.24,4.26-12.35,6.58a140.4,140.4,0,0,0-11.9,7.79,60.84,60.84,0,0,0-5.67,4.68,30.21,30.21,0,0,0-2.71,2.89,13.48,13.48,0,0,0-2.39,4.23,6.54,6.54,0,0,0-.32,1.62,5.92,5.92,0,0,0,.1,1.94,6.52,6.52,0,0,0,1.95,3.46,11,11,0,0,0,4.77,2.42c.71.17,1.38.29,2.07.42l2,.23,3.47.31c9.24.78,18.52,1.41,27.83,1.69s18.69.16,27.94-.16c18.55-.63,37-1.94,55.49-3.71,73.78-7.17,146.58-20.9,218.82-36.61L561.34,995l13.49-3.19,27-6.4c9-2.09,17.93-4.5,26.87-6.81l26.84-7c17.84-4.82,35.62-9.9,53.43-14.85l26.59-8c8.83-2.76,17.7-5.41,26.5-8.26,17.58-5.76,35.1-11.8,52.44-18.4q13-5,25.83-10.41c8.58-3.55,16.93-7.75,25.34-11.76,2.12-1,4.14-1.92,6.35-3.12a51.65,51.65,0,0,0,6.29-4,23.71,23.71,0,0,0,5.82-6,9,9,0,0,0,1.44-5.86,7.76,7.76,0,0,0-1.3-3.3c-.32-.42-.66-.8-1-1.18s-.69-.6-1-.88a21.27,21.27,0,0,0-7.82-3.22,57.92,57.92,0,0,0-7.28-1.17c-4.72-.4-9.32-.58-14-.88s-9.27-.61-14-.73-9.37-.08-14.07.15-9.32.68-13.89,1l-6.85.5-3.4.2a3.62,3.62,0,0,0-1.67.71,20.32,20.32,0,0,0-.3-2.51,9.77,9.77,0,0,0-.28-1.16l-.5-1.53-2.28-6.67c-1.53-4.44-3.15-8.85-4.81-13.24s-3.39-8.76-5.17-13.1c-1.25-3.07-2.55-6.1-3.88-9.14,12.44-.95,24.9-1.77,37.34-2.37,6.88-.32,13.77-.63,20.61-.74s13.73.18,20.59.25c3.43.07,6.86.07,10.29.19s6.84.36,10.24.63a195.3,195.3,0,0,1,20.25,2.44c6.64,1.26,13.4,2.24,19.81,4.19a97.49,97.49,0,0,1,18.44,7.24,68.18,68.18,0,0,1,8.19,5.15,54.74,54.74,0,0,1,7.1,6.37,40.77,40.77,0,0,1,9.18,16A38.37,38.37,0,0,1,964.66,882.47Z"/><path d="M938.8,857.39A22.88,22.88,0,0,1,944,870.16a30.36,30.36,0,0,1-1.75,13.58c-3.21,8.66-9.55,15.72-16.46,21.88-13.92,12.47-30.11,22.06-46.92,30.27s-34.37,15.25-51.85,22.29S792,971.93,774.22,978.3c-35.44,12.86-71.4,24.22-107.7,34.51q-27.24,7.63-54.74,14.41c-18.33,4.54-36.77,8.65-55.24,12.79,18.77-2.45,37.44-5.56,56.05-9.07,18.58-3.66,37.11-7.66,55.49-12.26s36.65-9.66,54.8-15.13,36.14-11.5,54-17.91,35.53-13.26,53-20.62,34.91-14.76,51.8-23.7a243.15,243.15,0,0,0,24.6-14.7,168.5,168.5,0,0,0,22.19-18.22c6.73-6.74,13.1-14.55,15.89-24a31.84,31.84,0,0,0,.85-14.41A23.46,23.46,0,0,0,938.8,857.39Z"/></g></g></svg>