<?xml version="1.0" encoding="utf-8"?>
<svg width="512px" height="512px" viewBox="0 0 512 512" version="1.1" xmlns:xlink="http://www.w3.org/1999/xlink" xmlns="http://www.w3.org/2000/svg">
  <defs>
    <path d="M0 0L512 0L512 512L0 512L0 0Z" id="path_1" />
    <clipPath id="mask_1">
      <use xlink:href="#path_1" />
    </clipPath>
  </defs>
  <g id="collapse">
    <path d="M0 0L512 0L512 512L0 512L0 0Z" id="Background" fill="#FFFFFF" fill-opacity="0" fill-rule="evenodd" stroke="none" />
    <g clip-path="url(#mask_1)">
      <path d="M326.248 256L259.124 188.876C254.959 184.71 254.959 177.956 259.124 173.791C263.29 169.625 270.044 169.625 274.209 173.791L359.542 259.124C363.708 263.29 363.708 270.044 359.542 274.209L274.209 359.542C270.044 363.708 263.29 363.708 259.124 359.542C254.959 355.377 254.959 348.623 259.124 344.458L326.248 277.333L96 277.333C90.109 277.333 85.3334 272.558 85.3334 266.667C85.3334 260.776 90.109 256 96 256L326.248 256ZM405.333 117.333C405.333 111.442 410.109 106.667 416 106.667C421.891 106.667 426.667 111.442 426.667 117.333L426.667 416C426.667 421.891 421.891 426.667 416 426.667C410.109 426.667 405.333 421.891 405.333 416L405.333 117.333Z" id="Shape" fill="#1A1A1A" fill-rule="evenodd" stroke="none" />
    </g>
  </g>
</svg>