<svg height="512" viewBox="0 0 520 520" width="512" xmlns="http://www.w3.org/2000/svg"><g id="_13-Cancel" data-name="13-Cancel"><path d="m260 488a228 228 0 0 1 -161.22-389.22 228 228 0 0 1 322.441 322.44 226.508 226.508 0 0 1 -161.221 66.78zm0-436c-114.691 0-208 93.309-208 208s93.309 208 208 208 208-93.309 208-208-93.309-208-208-208z"/><path d="m183.736 388a10.038 10.038 0 0 1 -7.088-2.929l-41.719-41.72a10 10 0 0 1 0-14.142l69.2-69.2-69.2-69.2a10 10 0 0 1 0-14.142l41.727-41.728a10 10 0 0 1 14.143 0l69.2 69.2 69.2-69.2a10 10 0 0 1 14.143 0l41.727 41.728a10 10 0 0 1 0 14.142l-69.199 69.191 69.2 69.2a10 10 0 0 1 0 14.143l-41.719 41.719a10.026 10.026 0 0 1 -14.16 0l-69.191-69.188-69.193 69.193a9.968 9.968 0 0 1 -7.071 2.933z"/></g></svg>