<?xml version="1.0" encoding="utf-8"?>
<svg width="512px" height="512px" viewBox="0 0 512 512" version="1.1" xmlns:xlink="http://www.w3.org/1999/xlink" xmlns="http://www.w3.org/2000/svg">
  <defs>
    <path d="M0 0L512 0L512 512L0 512L0 0Z" id="path_1" />
    <clipPath id="mask_1">
      <use xlink:href="#path_1" />
    </clipPath>
  </defs>
  <g id="folder1">
    <path d="M0 0L512 0L512 512L0 512L0 0Z" id="Background" fill="#FFFFFF" fill-opacity="0" fill-rule="evenodd" stroke="none" />
    <g clip-path="url(#mask_1)">
      <path d="M506.039 237.492C498.266 224.938 484.516 217.445 469.258 217.445L431.172 217.445L431.172 147.582C431.172 130.719 416.945 117.004 399.461 117.004L213.02 117.004C212.746 117.004 212.563 116.926 212.488 116.879L179.121 70.2109C173.203 61.9375 163.445 57 153.016 57L31.7109 57C14.2227 57 0 70.7188 0 87.5781L0 422.727C0 439.984 14.5703 454.027 32.4844 454.027L409.848 454.027C415.727 454.027 420.805 450.633 423.262 445.707L423.273 445.711L507.836 275.871C513.969 263.563 513.293 249.215 506.039 237.492L506.039 237.492ZM31.7109 87L153.016 87C153.914 87 154.523 87.3945 154.715 87.6641L188.133 134.398C193.773 142.289 203.078 147.004 213.02 147.004L399.461 147.004C400.508 147.004 401.039 147.496 401.172 147.672L401.172 217.445L129.699 217.445C112.863 217.445 97.5508 226.934 90.6875 241.621L30 371.492L30 87.668C30.1328 87.4922 30.6641 87 31.7109 87L31.7109 87ZM480.98 262.5L400.559 424.023L38.5664 424.023L117.867 254.324C119.789 250.211 124.547 247.445 129.699 247.445L469.258 247.445C474.051 247.445 478.266 249.629 480.531 253.285C481.805 255.344 482.914 258.613 480.98 262.5L480.98 262.5Z" id="Shape" fill="#1A1A1A" fill-rule="evenodd" stroke="none" />
    </g>
  </g>
</svg>