<?xml version="1.0" encoding="utf-8"?>
<svg width="512px" height="512px" viewBox="0 0 512 512" version="1.1" xmlns:xlink="http://www.w3.org/1999/xlink" xmlns="http://www.w3.org/2000/svg">
  <defs>
    <path d="M0 0L512 0L512 512L0 512L0 0L0 0Z" id="path_1" />
    <clipPath id="mask_1">
      <use xlink:href="#path_1" />
    </clipPath>
  </defs>
  <g id="fps1">
    <g id="fps1">
      <path d="M0 0L512 0L512 512L0 512L0 0L0 0Z" id="Background" fill="#FFFFFF" fill-opacity="0" fill-rule="evenodd" stroke="none" />
      <g id="Mask-Group">
        <path d="M0 0L512 0L512 512L0 512L0 0L0 0Z" id="path_1" fill="none" stroke="none" />
        <g clip-path="url(#mask_1)">
          <g id="Group" transform="translate(42.6667 42.6667)">
            <path d="M426.666 234.666L426.666 405.333C426.666 417.115 417.115 426.666 405.333 426.666L234.666 426.666C222.884 426.666 213.333 417.115 213.333 405.333L213.333 234.666C213.333 222.884 222.884 213.333 234.666 213.333L405.333 213.333C417.115 213.333 426.666 222.884 426.666 234.666L426.666 234.666L426.666 234.666ZM106.666 85.3333C94.8843 85.3333 85.3333 94.8843 85.3333 106.666L85.3333 298.666C85.3333 310.448 94.8843 320 106.666 320L170.666 320L170.666 181.333C170.666 175.442 175.442 170.666 181.333 170.666L320 170.666L320 106.666C320 94.8843 310.448 85.3333 298.666 85.3333L106.666 85.3333L106.666 85.3333ZM21.3333 234.666L42.6666 234.666L42.6666 53.3333C42.6666 47.4423 47.4423 42.6666 53.3333 42.6666L234.666 42.6666L234.666 21.3333C234.666 9.5512 225.115 0 213.333 0L21.3333 0C9.5512 0 0 9.5512 0 21.3333L0 213.333C0 225.115 9.5512 234.666 21.3333 234.666L21.3333 234.666L21.3333 234.666Z" id="Shape" fill="#1A1A1A" fill-rule="evenodd" stroke="none" />
          </g>
        </g>
      </g>
    </g>
  </g>
</svg>