<?xml version="1.0" encoding="utf-8"?>
<svg width="100px" height="100px" viewBox="0 0 100 100" version="1.1" xmlns:xlink="http://www.w3.org/1999/xlink" xmlns="http://www.w3.org/2000/svg">
  <defs>
    <path d="M0 0L100 0L100 100L0 100L0 0Z" id="path_1" />
    <clipPath id="mask_1">
      <use xlink:href="#path_1" />
    </clipPath>
  </defs>
  <g id="Asset-4">
    <path d="M0 0L100 0L100 100L0 100L0 0Z" id="Background" fill="#FFFFFF" fill-opacity="0" fill-rule="evenodd" stroke="none" />
    <g clip-path="url(#mask_1)">
      <g id="Layer_2" transform="translate(1.9737903E-05 -1.0851549E-05)">
        <g id="Layer_1-2">
          <path d="M48.6922 13.9874C48.4356 13.9241 48.1453 14.1245 48.0441 14.4367C47.9429 14.7489 48.0694 15.0526 48.3272 15.117C48.585 15.1813 48.873 14.9788 48.9742 14.6677C49.0754 14.3565 48.9501 14.0507 48.6922 13.9874L48.6922 13.9874Z" id="Shape" fill="#FFFFFF" fill-rule="evenodd" stroke="none" />
          <path d="M48.3938 18.0279C48.1188 18.0406 47.9134 18.3138 47.9358 18.6376C47.9582 18.9613 48.1984 19.2124 48.4734 19.1997C48.7485 19.187 48.9538 18.9128 48.9327 18.589C48.9115 18.2652 48.6688 18.0142 48.3938 18.0279L48.3938 18.0279Z" id="Shape" fill="#FFFFFF" fill-rule="evenodd" stroke="none" />
          <path d="M75.0113 23.7476C75.2679 23.8119 75.5583 23.6104 75.6595 23.2983C75.7607 22.9861 75.6342 22.6823 75.3776 22.618C75.1209 22.5536 74.8305 22.7561 74.7293 23.0673C74.6281 23.3784 74.7546 23.6843 75.0113 23.7476L75.0113 23.7476Z" id="Shape" fill="#FFFFFF" fill-rule="evenodd" stroke="none" />
          <path d="M73.8062 26.2145C73.6083 26.0805 73.2914 26.1871 73.099 26.4529C72.9067 26.7186 72.9111 27.0424 73.1089 27.1764C73.3067 27.3103 73.6247 27.2038 73.8171 26.938C74.0095 26.6722 74.0029 26.3484 73.8062 26.2145L73.8062 26.2145Z" id="Shape" fill="#FFFFFF" fill-rule="evenodd" stroke="none" />
          <path d="M53.7105 39.1546C53.7619 39.1651 53.814 39.1704 53.8661 39.1704C54.1351 39.163 54.3917 39.0325 54.5832 38.8055C55.0963 38.1902 55.2295 37.2529 54.9153 36.4683C54.7765 36.1163 54.5063 35.8649 54.1877 35.7911C53.5726 35.6667 52.9706 36.3185 52.8388 37.2466C52.707 38.1747 53.0989 39.0301 53.7105 39.1546L53.7105 39.1546ZM53.1771 37.3152C53.2694 36.6655 53.642 36.1877 54.0339 36.1877C54.0663 36.1878 54.0986 36.1909 54.1306 36.1972C54.3427 36.2511 54.521 36.4225 54.6113 36.6592C54.8529 37.2801 54.7478 38.0159 54.3476 38.5049C54.1971 38.6919 53.9817 38.7826 53.7668 38.7496C53.3406 38.662 53.077 38.0187 53.1771 37.3152L53.1771 37.3152Z" id="Shape" fill="#FFFFFF" fill-rule="evenodd" stroke="none" />
          <path d="M53.9208 38.1178C54.1896 38.1642 54.4573 37.9132 54.5169 37.5567C54.5766 37.2002 54.4071 36.8754 54.1383 36.829C53.8695 36.7826 53.6018 37.0336 53.5411 37.389C53.4805 37.7444 53.651 38.0746 53.9208 38.1178L53.9208 38.1178Z" id="Shape" fill="#FFFFFF" fill-rule="evenodd" stroke="none" />
          <path d="M99.6863 81.8698L100 81.6704L99.7557 81.3751L99.7557 81.3751C98.5049 79.8739 97.2216 78.4199 95.9058 77.0129C94.5877 75.6038 93.2388 74.2338 91.8187 72.9629C91.1078 72.33 90.3793 71.7183 89.6131 71.1699C89.228 70.8927 88.8315 70.6392 88.425 70.4105C88.2229 70.2903 88.0067 70.1996 87.7958 70.0941C87.5756 70.0015 87.3504 69.9272 87.1218 69.8715C85.3643 69.4845 83.5189 70.0066 82.0557 71.1962C81.9884 70.401 81.8905 69.6079 81.7622 68.8168L81.7315 68.6291L81.5786 68.5785C80.5701 68.2583 79.5335 68.0834 78.4906 68.0575C78.3547 67.3539 78.1893 66.659 77.995 65.9755L77.9634 65.8637L77.8755 65.8057C77.6119 65.6327 77.343 65.4629 77.0767 65.2921C77.35 64.7443 77.6673 64.23 78.024 63.7564C78.4395 63.2019 78.8885 62.6851 79.3676 62.2102C80.3285 61.2598 81.3895 60.4654 82.5232 59.8477C83.0895 59.5417 83.6716 59.2796 84.2658 59.063L84.7122 58.9048C84.7878 58.8806 84.8616 58.8521 84.9372 58.8299L85.1648 58.7709L85.62 58.6496L85.8476 58.5884L85.8942 58.5757L85.953 58.5557C85.9921 58.5389 86.0303 58.5192 86.0673 58.4966C86.142 58.4456 86.2082 58.3784 86.2624 58.2984C86.3682 58.1415 86.4218 57.943 86.4126 57.7415C86.4049 57.5354 86.3312 57.3409 86.207 57.1983C86.1768 57.1641 86.1441 57.133 86.1095 57.1055C86.0812 57.0837 86.0518 57.064 86.0216 57.0464L85.9109 56.9863L85.6877 56.865L85.2395 56.6235C85.0927 56.5384 84.9422 56.4627 84.7887 56.3967L83.8686 55.997L82.9257 55.6806C81.6573 55.3084 80.3542 55.1343 79.0486 55.1627C77.7446 55.1957 76.4502 55.438 75.1997 55.8831C73.9506 56.3155 72.7496 56.9278 71.6231 57.7067C70.556 58.4618 69.5506 59.3362 68.6204 60.3181C67.713 59.8372 66.7999 59.3713 65.8813 58.9206C67.1573 58.7519 68.8507 58.0769 70.1644 57.4683C71.2971 56.9484 72.2172 56.1795 72.9009 55.1838C74.1821 53.3234 74.5889 50.8364 74.958 48.0203C75.115 46.8166 75.2729 45.6054 75.4317 44.3869C75.9783 44.2192 76.5222 44.0336 77.06 43.8269C78.2613 43.3649 79.6084 42.7173 80.5135 41.4179C80.858 40.9212 81.119 40.3559 81.3721 39.8085C81.5267 39.4741 81.6876 39.1271 81.8624 38.8076C81.9837 38.5861 82.2139 38.0967 82.525 37.4185C83.3721 35.5929 84.7887 32.5385 85.8889 30.9849C86.7676 29.7425 86.2808 28.77 85.7413 28.0497C85.8395 28.0328 85.9392 28.0328 86.0374 28.0497C86.3081 28.1039 86.5819 28.1335 86.8564 28.1383C87.1551 28.1302 87.4485 28.0419 87.715 27.8799C87.8455 27.8014 87.9701 27.7097 88.0875 27.6056C88.1974 27.5002 88.3064 27.3873 88.4092 27.2692C88.8125 26.7861 89.0726 26.2261 89.425 25.8221C89.7951 25.4116 90.2202 25.0789 90.6825 24.8381C91.1474 24.5755 91.6404 24.3561 92.1307 24.1051C92.2529 24.0408 92.375 23.9775 92.4972 23.9089C92.6327 23.8401 92.761 23.7523 92.8794 23.6474C93.0359 23.5104 93.1288 23.2923 93.1299 23.0599C93.1182 22.8385 93.0323 22.6323 92.8917 22.4882C92.768 22.3556 92.6158 22.2671 92.4523 22.233C92.3073 22.2022 92.1594 22.1958 92.013 22.214C91.7335 22.2478 91.4857 22.2995 91.2159 22.3522C90.9462 22.4049 90.6887 22.4682 90.4338 22.5357L90.4251 22.5357L91.237 21.7616L91.8574 21.1762C92.0832 20.9829 92.2896 20.7588 92.4726 20.5086C92.5685 20.3715 92.6483 20.2192 92.7098 20.0561C92.7256 20.0127 92.7393 19.9684 92.7511 19.9232L92.7678 19.8526C92.7678 19.823 92.7775 19.7935 92.7801 19.7629C92.7865 19.6382 92.7617 19.5141 92.7089 19.4064C92.6112 19.189 92.417 19.0596 92.2116 19.0753C92.1878 19.0753 92.1588 19.0816 92.1404 19.0858L92.0911 19.0985L91.9919 19.1238C91.9251 19.1396 91.8592 19.1575 91.7941 19.1786C91.2715 19.3356 90.7653 19.5631 90.2853 19.8568C89.8304 20.1314 89.3959 20.4521 88.9865 20.8155C89.0348 20.7501 89.0814 20.6837 89.1306 20.6183C89.4821 20.1542 89.8644 19.7176 90.2168 19.2345C90.5691 18.7515 90.896 18.2241 91.0797 17.5649C91.1366 17.3654 91.1265 17.1471 91.0516 16.9564C91.0076 16.8556 90.9432 16.7696 90.8644 16.7064C90.7891 16.6518 90.7054 16.6159 90.6183 16.6009C90.4648 16.5737 90.3082 16.5855 90.1588 16.6357C90.0173 16.6792 89.8811 16.7444 89.7536 16.8298C89.2957 17.1724 88.872 17.5769 88.4909 18.0353C88.1126 18.484 87.7547 18.9568 87.4188 19.4518L87.3775 19.5151C87.5726 18.9877 87.7773 18.4699 87.9786 17.9457C88.0884 17.6577 88.1983 17.3698 88.3046 17.0787L88.3828 16.8583L88.4224 16.7475C88.4364 16.7043 88.4496 16.6611 88.4601 16.6178C88.5016 16.4493 88.5235 16.2746 88.5252 16.0989C88.5268 16.0112 88.5235 15.9235 88.5155 15.8363C88.509 15.7316 88.4854 15.6295 88.4461 15.5357C88.3569 15.332 88.19 15.194 87.9997 15.1665C87.9048 15.1517 87.8084 15.1659 87.7194 15.2077C87.6388 15.2478 87.5654 15.3061 87.5032 15.3796C87.4012 15.4851 87.3046 15.6 87.2097 15.715C86.8341 16.1761 86.4943 16.6774 86.1947 17.2127C85.8995 17.7451 85.6288 18.2965 85.3836 18.8643C85.1367 19.4317 84.9249 20.0044 84.6235 20.4959C84.5502 20.6181 84.4706 20.7347 84.3853 20.845C84.3423 20.8988 84.2975 20.9505 84.2526 21.0022C84.2243 21.0407 84.1896 21.0716 84.1507 21.0929C84.1287 21.0992 84.1191 21.0929 84.0918 21.076C84.0589 21.0434 84.0324 21.0023 84.0145 20.9558C83.9662 20.8373 83.9389 20.7079 83.9345 20.5761C83.9345 20.5413 83.9345 20.5065 83.9345 20.4706L83.9345 20.3557C83.9345 20.2723 83.9345 20.1901 83.9258 20.1089C83.9161 19.9454 83.9029 19.784 83.8836 19.6226C83.849 19.2921 83.7814 18.9677 83.6824 18.6565C83.6281 18.4719 83.5338 18.3081 83.4091 18.1819C83.3387 18.1241 83.2617 18.0786 83.1806 18.0469C83.102 18.019 83.0208 18.0027 82.9389 17.9984C82.7737 17.9933 82.6104 18.0418 82.4661 18.1387C82.332 18.2306 82.2129 18.351 82.1146 18.4941C82.0189 18.6309 81.9383 18.7819 81.8747 18.9434C81.8413 19.0266 81.814 19.113 81.793 19.2018C81.771 19.2946 81.7623 19.3653 81.7456 19.4486C81.6909 19.7694 81.6545 20.0943 81.6366 20.421C81.6008 21.074 81.6303 21.7298 81.7245 22.3743C81.8126 22.9776 81.9699 23.5632 82.192 24.1146C82.1631 24.1887 82.1283 24.2593 82.0883 24.3255C81.9426 24.2169 81.7824 24.1394 81.6146 24.0967L81.5514 24.0777C81.3106 24.007 80.8624 23.8731 80.4274 24.1831C79.5241 24.8328 79.0513 25.8285 78.3975 27.208C78.0267 27.9917 77.6066 28.8787 77.0143 29.8933C76.8755 30.1316 76.3649 30.7961 75.8667 31.4004C74.9791 30.2962 74.0327 29.5948 72.8851 29.1856C73.0608 29.0653 73.2462 28.9261 73.4343 28.769C74.545 27.8398 75.2199 26.398 75.7832 24.9773C76.1101 24.1536 76.4537 23.1907 76.3895 22.1856C76.3895 22.1138 76.3816 22.0432 76.3772 21.9746C76.3315 21.1245 76.2894 20.3208 75.1382 19.5646C75.7509 15.7714 75.2826 11.841 73.8086 8.40594C72.1258 4.51306 69.3269 1.73077 65.9138 0.570601C59.2898 -1.68223 52.3037 2.93101 49.7473 10.9689C48.5522 10.9446 48.1761 11.5764 47.7807 12.245L47.677 12.418C47.1831 13.2333 47.0548 14.2701 46.974 15.1771C46.8325 16.7412 46.7763 18.3939 47.3158 19.8831C47.7684 21.1351 48.2693 21.9556 49.3159 22.1434C49.5613 23.1643 49.887 24.1549 50.2887 25.1018C49.9518 25.5223 49.7589 26.0795 49.7482 26.6627C47.7587 27.3631 46.8176 30.3384 46.2481 32.1408L46.1444 32.4667C46.0724 32.6914 46.0073 32.9192 45.9423 33.1481C45.8931 33.321 45.8439 33.494 45.7912 33.6659C45.5052 34.6109 45.1301 35.5136 44.6734 36.3565C44.4578 36.6264 44.3011 36.9561 44.2173 37.3162C44.0961 37.881 44.1459 38.479 44.3579 39.0037C44.5079 39.3845 44.7381 39.7117 45.0258 39.953C44.8012 40.3088 44.5957 40.6816 44.4106 41.0688C44.0301 41.8251 43.6716 42.5391 42.8403 43.2352C42.379 43.6212 42.1311 44.1338 41.9115 44.5873C41.7252 44.9723 41.5485 45.3372 41.2647 45.5829C41.0807 45.7463 40.9153 45.9377 40.7726 46.1525C40.494 46.2115 40.2005 46.2685 39.8938 46.3276C37.3683 46.8074 33.9253 47.4666 32.2355 51.1971C30.5113 51.2646 28.789 51.408 27.0736 51.6401L25.2282 51.9248L23.3943 52.2929L22.9347 52.3857C22.7827 52.4195 22.6315 52.4606 22.4795 52.4986L21.5638 52.7348L20.6508 52.9605L19.7483 53.2337C14.9071 54.6435 10.2728 56.9292 6.0045 60.0123L4.4298 61.2167C3.91309 61.6386 3.4122 62.0794 2.90252 62.5087L2.52202 62.8336C2.39723 62.9464 2.27684 63.0645 2.15469 63.1795L1.42181 63.8767L1.05449 64.2247L0.870829 64.3987L0.782954 64.4852C0.752197 64.5148 0.713532 64.5601 0.67926 64.597C0.385664 64.915 0.173274 65.3264 0.0667656 65.7835C-0.0358103 66.2488 -0.0198941 66.7404 0.112461 67.1947C0.174979 67.4151 0.261873 67.6244 0.370815 67.817C0.424688 67.9116 0.483384 68.0021 0.546566 68.088L0.638837 68.2146L0.72144 68.3138L2.03958 69.8958C2.15118 70.0266 2.25751 70.1637 2.37263 70.2892L2.72413 70.6647L3.41923 71.4135L4.1152 72.1623L4.84106 72.869L5.56691 73.5746L5.92632 73.9342C6.04935 74.0481 6.17677 74.1557 6.30155 74.2675L7.80774 75.5933C8.31918 76.0152 8.84204 76.4223 9.35963 76.8368C9.87722 77.2513 10.4141 77.6341 10.9414 78.0212C11.9959 78.8133 13.0996 79.5041 14.1884 80.2244C15.3 80.8889 16.4029 81.5776 17.54 82.1777C18.6622 82.8169 19.8168 83.3653 20.9601 83.9454C22.1201 84.4728 23.2721 85.0296 24.4461 85.5064C25.6123 86.0158 26.7959 86.4556 27.9752 86.9154L29.7565 87.5535L30.6475 87.8699L31.5439 88.1631C32.1423 88.3551 32.7372 88.5618 33.3383 88.7422L35.1398 89.2843C35.7382 89.471 36.3489 89.6165 36.9526 89.7842C37.5563 89.9519 38.1618 90.1196 38.7734 90.2493L40.6021 90.6712C41.2137 90.7957 41.8289 90.9011 42.444 91.0203L43.364 91.1943L44.2894 91.3367L46.1348 91.6067C48.6041 91.9052 51.0831 92.1003 53.5655 92.1341C56.048 92.1541 58.5314 92.0729 61.0033 91.805C61.3127 91.7818 61.6185 91.7407 61.9296 91.6995L62.8549 91.5804L63.7794 91.4601L64.7012 91.3072C65.1019 91.2365 65.5035 91.1732 65.9042 91.1036C66.5633 92.3747 67.3427 93.5501 68.2267 94.6063L68.9649 95.4321L69.7558 96.182C69.8872 96.3079 70.0242 96.4252 70.1662 96.5332L70.5862 96.8697C70.7277 96.9751 70.8613 97.1017 71.0098 97.1977L71.4492 97.4951L71.8885 97.7925C72.0344 97.8917 72.1908 97.9676 72.342 98.0573L72.7989 98.3136L73.0274 98.4422C73.1047 98.4823 73.1847 98.515 73.2629 98.5477C73.5775 98.6901 73.8895 98.8409 74.2067 98.9748L75.1733 99.3176C76.4754 99.7238 77.8119 99.9499 79.1567 99.9916C79.4933 99.9916 79.829 100.004 80.1647 99.9916L81.17 99.9146C81.5048 99.8745 81.8369 99.8091 82.1691 99.7585L82.4187 99.7163C82.4314 99.715 82.444 99.7125 82.4565 99.7089L82.525 99.6889C82.5718 99.6737 82.6171 99.6529 82.6603 99.6266C82.7504 99.5733 82.8305 99.4987 82.8958 99.4072C83.024 99.2292 83.0907 98.999 83.0821 98.7639C83.0763 98.5235 82.991 98.2957 82.8449 98.1311C82.8104 98.091 82.7724 98.0557 82.7315 98.0256L82.6718 97.9824L82.6436 97.9634L82.5391 97.8948L82.329 97.7567L81.9099 97.4803C81.6331 97.2905 81.3668 97.0785 81.0944 96.8792C80.822 96.6798 80.5671 96.4425 80.3035 96.2263C80.0399 96.0101 79.7973 95.757 79.5451 95.5218C78.5503 94.5534 77.6433 93.4617 76.8394 92.2648C76.4402 91.6701 76.0759 91.0428 75.7489 90.3875C75.661 90.2272 75.5934 90.0563 75.5178 89.8897C75.4422 89.7231 75.3754 89.5522 75.3122 89.3813C75.2158 89.1336 75.1364 88.8768 75.0749 88.6135L75.5784 88.43L75.6742 88.3962L75.7252 88.2908C76.0058 87.7423 76.2674 87.1823 76.5099 86.6106C77.2867 86.7804 78.3078 86.8743 79.1321 86.9376L79.2929 86.9492L79.372 86.7804C79.7065 86.0703 80.0112 85.3439 80.2859 84.6014C80.7185 85.3069 81.2386 85.9287 81.8282 86.4451C82.5941 87.1058 83.4656 87.5694 84.388 87.8066L84.7395 87.8858L85.1068 87.9332C85.3445 87.9491 85.5827 87.9491 85.8204 87.9332C86.2823 87.9008 86.7419 87.8324 87.1965 87.7286C88.0852 87.5186 88.9633 87.2485 89.8266 86.9197C91.534 86.265 93.2121 85.5046 94.8539 84.6415C96.4943 83.7928 98.1051 82.8689 99.6863 81.8698L99.6863 81.8698ZM83.2473 99.9242L82.6846 99.9242C82.5674 99.511 82.4182 99.1712 82.2473 98.9242L83.2473 99.9242ZM81.2851 69.1206C81.5703 70.9505 81.6923 72.8116 81.6489 74.6725C80.7772 74.2788 79.9019 73.9005 79.0232 73.5377C79.017 72.9048 78.995 72.272 78.952 71.6466C78.8844 70.648 78.7671 69.6551 78.6005 68.6734C79.5058 68.7104 80.4055 68.8603 81.2851 69.1206L81.2851 69.1206ZM82.097 75.5827C82.8238 75.9445 83.5426 76.3273 84.2386 76.7492C84.5831 76.9547 84.9186 77.181 85.2439 77.4274C85.3979 77.5432 85.5447 77.6722 85.6833 77.8134C85.7405 77.8715 85.7924 77.937 85.8379 78.0085C85.8405 78.0116 85.8425 78.0152 85.8441 78.0191L85.83 78.0317C85.7674 78.0798 85.7012 78.1207 85.6323 78.1541C85.4646 78.2334 85.2926 78.2985 85.1173 78.3492C84.7535 78.4547 84.3713 78.5369 83.9881 78.6044C83.2201 78.7384 82.438 78.8154 81.655 78.885C80.0891 79.0126 78.5144 79.0737 76.9423 79.1086C76.1514 79.117 75.3693 79.1286 74.5881 79.1086C74.1979 79.0991 73.8069 79.0843 73.4272 79.0495C73.2443 79.0367 73.0623 79.0092 72.8824 78.9672C72.7045 78.929 72.5285 78.879 72.3551 78.8175C71.675 78.5517 71.037 78.096 70.5844 77.4464C70.1319 76.7967 69.8814 75.9803 69.9693 75.1703C70.0572 74.3603 70.4834 73.6262 71.0739 73.1453C71.6644 72.6644 72.4 72.407 73.1355 72.3775C73.3209 72.3743 73.5063 72.3838 73.6909 72.406C73.878 72.4266 74.0638 72.4619 74.2471 72.5114C74.6241 72.6063 75.0046 72.7224 75.3833 72.8458C76.1417 73.0915 76.8966 73.3636 77.6488 73.6473C78.401 73.931 79.1427 74.238 79.8887 74.5575C80.6348 74.8771 81.373 75.222 82.0988 75.5827L82.097 75.5827ZM71.9158 58.3247C73.0114 57.6016 74.1729 57.0326 75.3772 56.6288C76.578 56.2178 77.8193 56.0018 79.068 55.9865C80.3113 55.9661 81.5517 56.1373 82.7587 56.4959L83.6577 56.8007L84.5365 57.1857C84.6826 57.249 84.8258 57.3219 84.9653 57.404L85.3898 57.6371L85.6015 57.7531L85.6305 57.7689L85.4829 57.8079L85.0049 57.9334L84.7658 57.9978C84.6868 58.0231 84.6094 58.0526 84.5312 58.079L84.0611 58.2446C83.438 58.4788 82.8281 58.7606 82.235 59.0883C81.0476 59.7431 79.9439 60.5975 78.9572 61.6259C78.4586 62.1336 77.9968 62.691 77.5767 63.2924C77.2058 63.8165 76.8818 64.386 76.6101 64.9915L76.1593 64.7046C76.3337 64.2965 76.5258 63.8998 76.7349 63.5159C77.0075 63.0175 77.3091 62.5428 77.6374 62.0953C77.9667 61.6439 78.3239 61.2229 78.7059 60.836C79.0855 60.4426 79.4898 60.085 79.8966 59.7138C79.4226 59.9443 78.974 60.2439 78.5609 60.606C78.1434 60.9675 77.7492 61.3663 77.3816 61.7989C77.0116 62.2345 76.6714 62.705 76.364 63.2059C76.1251 63.5951 75.9082 64.0032 75.7146 64.4272C73.5576 63.0772 71.3683 61.8031 69.1468 60.605C70.0121 59.7486 70.9387 58.9856 71.9158 58.3247L71.9158 58.3247ZM53.2527 62.205C53.0304 62.4116 52.7859 62.5815 52.526 62.7102C52.2693 62.8405 52.0018 62.9377 51.7281 63.0002C51.5449 63.0412 51.3596 63.0676 51.1736 63.0793C51.2017 63.0297 51.2289 62.9802 51.2614 62.9327C51.3686 62.7734 51.5128 62.6163 51.6411 62.4243C51.7736 62.2298 51.8696 62.0031 51.9223 61.7599C51.9688 61.5273 51.9824 61.287 51.9627 61.049C51.8976 61.2614 51.8183 61.467 51.7254 61.6639C51.6374 61.8447 51.5245 62.0062 51.3915 62.1417C51.2588 62.2767 51.1024 62.4085 50.9521 62.5857C50.7986 62.7656 50.6741 62.978 50.5848 63.2122C50.5382 63.324 50.5031 63.4537 50.4697 63.555C50.4363 63.6562 50.4055 63.7522 50.3686 63.8524L50.1305 64.4704C49.9732 64.8923 49.8071 65.3395 49.7632 65.8679L49.7473 66.2149C49.743 66.3204 49.7271 66.4185 49.7148 66.5208C49.6799 66.7256 49.6311 66.9267 49.569 67.122C49.5066 67.316 49.431 67.5111 49.3519 67.7115C49.2974 67.5763 49.2354 67.4456 49.1665 67.3202C49.0758 67.1557 48.9753 66.9992 48.866 66.8519C48.7589 66.6996 48.6259 66.5766 48.4758 66.4912C48.5271 66.6729 48.5905 66.8493 48.6656 67.0186C48.7986 67.3417 48.9045 67.6798 48.9819 68.0279C49.0162 68.1893 49.0461 68.3443 49.0698 68.511C49.0128 68.703 48.9698 68.9006 48.9415 69.1016C48.9415 69.1227 48.9371 69.1438 48.9354 69.1649C48.735 68.9434 48.539 68.7293 48.3281 68.5321C48.1172 68.3349 47.902 68.1323 47.6823 67.9436C47.4645 67.7507 47.2285 67.5893 46.9793 67.4626C47.1505 67.7117 47.3348 67.9474 47.5311 68.1682C47.7227 68.3883 47.9087 68.6147 48.0891 68.8474C48.2649 69.0805 48.4503 69.3125 48.6164 69.5499C48.723 69.6964 48.8188 69.8538 48.9029 70.0202C48.8761 70.3762 48.812 70.7267 48.7122 71.0633C48.4732 71.8702 48.0742 72.6275 47.6682 73.3953L47.0715 74.5333C46.8958 74.8265 46.6488 74.9604 46.3237 74.9657C45.9744 74.9478 45.629 74.8696 45.2982 74.7337C44.9546 74.5829 44.6206 74.4021 44.299 74.1926C43.9564 73.9733 43.6007 73.7847 43.2349 73.6284C42.8658 73.4741 42.482 73.3766 42.0925 73.3383C42.4343 73.563 42.7682 73.7729 43.0899 74.0017C43.4115 74.2306 43.7235 74.4742 44.0521 74.7084C44.1576 74.7864 44.2665 74.8613 44.3781 74.9341C44.6136 75.0925 44.8586 75.2297 45.111 75.3444C45.3007 75.4285 45.4943 75.4989 45.691 75.5553C45.8499 75.6013 46.0115 75.633 46.1743 75.6502C45.9291 76.6385 45.8562 77.6331 45.6268 78.5443C45.5035 79.0788 45.312 79.5872 45.0592 80.0515C44.995 80.1664 44.9265 80.2761 44.8544 80.3848C44.7676 80.5181 44.693 80.6624 44.6321 80.8151C44.5759 80.9522 44.5275 81.084 44.4809 81.2064L34.391 77.5075C32.5966 76.8505 31.3426 75.9677 30.5579 74.8128L30.5579 74.7949L30.5579 74.7949C30.5064 74.1789 30.604 73.5582 30.8391 73.0072C31.0751 72.4502 31.4113 71.9632 31.8233 71.5812C32.0285 71.3884 32.2503 71.2225 32.485 71.0866C32.7203 70.9439 32.9663 70.8281 33.2197 70.7406C33.4748 70.6491 33.7358 70.5828 34 70.5423C34.2651 70.4957 34.5327 70.4728 34.8005 70.4738C35.3402 70.4731 35.8779 70.5539 36.4008 70.7142C36.9109 70.8672 37.386 71.1555 37.791 71.558C38.6328 72.3691 39.3385 73.4143 40.1469 74.4131C39.9535 73.7545 39.6903 73.1285 39.3639 72.5505C39.0367 71.9571 38.6392 71.4241 38.1838 70.9684C38.1592 70.9431 38.1337 70.9199 38.1082 70.8957C38.1178 70.7069 38.1378 70.5191 38.1679 70.3335C38.3528 70.2078 38.5564 70.1268 38.7673 70.0951C39.0266 70.06 39.2886 70.0618 39.5476 70.1004C40.0819 70.1742 40.6144 70.3715 41.1417 70.5866C41.6689 70.8018 42.1891 71.0707 42.7041 71.3502C43.2204 71.6459 43.7537 71.8969 44.2999 72.1012C43.8618 71.6507 43.3825 71.2614 42.8711 70.941C42.3649 70.6095 41.8442 70.311 41.3112 70.0466C40.7673 69.7715 40.1975 69.5767 39.6144 69.4665C39.309 69.4108 38.9985 69.4083 38.6926 69.4592C38.5621 69.4795 38.4335 69.5149 38.3086 69.5646C38.4149 69.0626 38.5722 68.4118 38.8077 67.567C38.9448 67.0724 39.1047 66.5239 39.2813 65.9386C39.3995 65.5029 39.4828 65.0548 39.53 64.6002C39.5724 64.1748 39.6516 63.756 39.7664 63.3504C39.881 63.047 40.0288 62.7632 40.2058 62.5066C40.3848 62.2446 40.5346 61.9556 40.6513 61.647L40.806 61.1787C41.0793 60.3508 41.2533 59.8182 41.3605 59.4743C43.1007 60.0435 44.7877 60.8256 46.3949 61.8084L46.6532 61.9666L46.7534 61.6396C47.4213 59.4511 48.2587 57.5632 49.2403 56.0265L49.3422 55.8662L49.2623 55.6901C48.7552 54.5763 47.9248 53.8707 47.3176 53.4752C46.662 53.0533 45.9642 52.7336 45.2411 52.5239C45.6776 52.5149 46.1126 52.5882 46.5302 52.7412C47.078 52.9333 47.6052 53.2013 48.1014 53.5396C48.5976 53.8833 49.0565 54.2992 49.4679 54.7778C49.8879 55.2545 50.2772 55.7724 50.6982 56.2976C50.5006 55.6025 50.189 54.9619 49.7816 54.4139C49.3739 53.8558 48.9002 53.3725 48.3756 52.9795C48.1128 52.7843 47.8388 52.6116 47.5557 52.4627C47.2731 52.3091 46.9811 52.1819 46.6822 52.082C46.4897 52.0164 46.2939 51.9653 46.0961 51.929C46.1796 51.8288 46.2455 51.7561 46.3123 51.6812C46.4151 51.5662 46.5205 51.4492 46.691 51.2329C46.7279 51.2688 46.7675 51.3047 46.8114 51.3384C46.8438 51.4304 46.8917 51.5133 46.952 51.5821C47.4283 52.1199 48.2904 52.815 49.5883 53.7052L49.5883 53.7052C49.6613 53.7556 49.744 53.7821 49.8282 53.7822C49.8905 53.782 49.9522 53.7677 50.0101 53.74C50.1152 53.6865 50.2049 53.5975 50.2684 53.4837C50.453 53.5723 50.6349 53.6566 50.8106 53.7368C55.6438 55.9295 59.6044 57.0317 62.6466 57.0317C63.4786 57.043 64.3092 56.9461 65.1239 56.7427C65.1174 56.7996 65.1104 56.8566 65.1028 56.9135C65.0738 57.153 65.0412 57.3903 65.0061 57.6286C64.934 58.1032 64.8523 58.5779 64.7609 59.0493C64.6695 59.5208 64.5623 59.9785 64.4358 60.4288C64.376 60.6474 64.3061 60.8618 64.2266 61.0712C64.1463 61.2803 64.0562 61.4838 63.9569 61.6808C63.5403 62.4829 63.0381 63.2162 62.463 63.8619C62.3918 63.9452 62.318 64.0254 62.245 64.1076C62.1822 64.1759 62.1155 64.239 62.0456 64.2964C61.8969 64.4163 61.7382 64.5171 61.5719 64.597C61.2181 64.7637 60.8491 64.8795 60.4726 64.9419C59.6905 65.0721 58.8981 65.0863 58.1131 64.9841L57.8161 64.9451C57.7194 64.9282 57.6324 64.9145 57.5323 64.8913C57.3381 64.8501 57.1377 64.8006 56.9391 64.751L55.7405 64.442C54.939 64.2395 54.1394 64.0275 53.3274 63.8429C53.1218 63.7997 52.9214 63.7554 52.7026 63.7237L52.5497 63.7037C52.5062 63.6995 52.463 63.6914 52.4205 63.6794C52.3381 63.6607 52.2576 63.6309 52.1806 63.5908C52.1191 63.5592 52.055 63.5181 51.9829 63.4706C52.2277 63.3759 52.4634 63.25 52.6859 63.0951C52.9526 62.9112 53.1976 62.6852 53.4144 62.4233C53.6333 62.1668 53.7936 61.8473 53.8801 61.4951C53.689 61.7537 53.4791 61.9913 53.2527 62.2049L53.2527 62.205ZM36.8129 69.4275C36.7883 69.6153 36.7575 69.8019 36.725 69.9876L36.5756 69.9338C35.9976 69.7359 35.3998 69.6337 34.7988 69.63L34.7768 69.63C34.812 69.4497 34.8427 69.2651 34.8647 69.0784C35.2161 66.2382 34.059 63.4351 31.9634 62.05C29.8677 60.6649 27.2755 60.9898 25.4635 62.8647C23.6515 64.7396 23.0019 67.7691 23.8346 70.4609C24.6674 73.1527 26.8069 74.9392 29.1993 74.9404C29.4237 74.9398 29.6479 74.9233 29.8707 74.8909C29.7584 75.0549 29.6753 75.2447 29.6264 75.4488C29.5482 75.7821 29.5389 76.1332 29.5992 76.4718C29.643 76.7284 29.7242 76.9737 29.8391 77.1964C29.2473 77.254 28.652 77.2296 28.0649 77.1237C27.0748 76.9373 26.1233 76.526 25.2616 75.9118C22.6021 73.9951 21.1646 70.346 21.618 66.6627C22.0715 62.9794 24.3268 59.9853 27.3346 59.0736C28.3176 58.7747 29.3398 58.7098 30.3435 58.8827C31.3493 59.0563 32.3159 59.4702 33.1863 60.0998C34.0545 60.7322 34.8113 61.5623 35.4139 62.5435C36.0147 63.5249 36.4469 64.6399 36.6855 65.8236C36.9237 67.0034 36.967 68.2278 36.8129 69.4275L36.8129 69.4275ZM30.2706 72.6908C30.0879 73.1814 29.9944 73.7132 29.9964 74.2506C29.476 74.3467 28.9464 74.3467 28.426 74.2506C25.7276 73.7638 23.7971 70.8642 23.9969 67.5979C24.1966 64.3315 26.4592 61.8013 29.1879 61.7926C29.4503 61.7931 29.7123 61.8167 29.9718 61.8632C32.8208 62.3793 34.7838 65.5663 34.3594 68.9867C34.3315 69.2108 34.2934 69.433 34.2452 69.6522C33.8278 69.6886 33.4152 69.781 33.0149 69.9274C32.4233 70.1314 31.872 70.4761 31.3936 70.941C30.9096 71.4099 30.5248 72.0095 30.2705 72.6908L30.2706 72.6908ZM30.3584 77.0055C30.2319 76.8133 30.1451 76.5877 30.1053 76.3474C30.0344 75.9983 30.0835 75.6295 30.2416 75.3243C31.0957 76.5172 32.4059 77.4263 34.239 78.0982L44.1769 81.739C44.0777 81.8431 43.9678 81.9317 43.85 82.0027C43.6513 82.1149 43.4399 82.1913 43.2226 82.2294C42.7677 82.3018 42.3056 82.2681 41.8614 82.1303C41.3954 81.9883 40.9358 81.8179 40.4843 81.6198L39.0942 81.0492L33.5343 78.7658L32.1449 78.1942C31.688 78.0043 31.2416 77.8029 30.8602 77.5118C30.6736 77.3732 30.5048 77.2027 30.3593 77.0055L30.3584 77.0055ZM39.1829 53.6767C39.0776 53.4783 38.907 53.3429 38.7137 53.3044C38.0651 53.1789 37.4166 53.2548 36.7892 53.3297C35.9104 53.4352 35.073 53.5332 34.2847 53.085C34.2344 53.06 34.1882 53.0243 34.1485 52.9795C34.0562 52.8561 34.0554 52.5429 34.1485 52.3087C34.2575 52.0617 34.4231 51.8571 34.6257 51.7192C35.8234 50.8005 38.2198 49.8924 39.4422 50.1181C39.6522 50.6117 40.0467 51.0674 40.6065 51.4555C41.4402 52.0249 42.3594 52.3909 43.3113 52.5323C43.2314 52.8287 43.1523 52.8793 42.8807 53.0544C42.8183 53.0945 42.7472 53.1398 42.6672 53.1936C42.4554 53.3371 42.2401 53.4562 42.0116 53.5828C41.6128 53.7835 41.2333 54.0357 40.8798 54.3348C40.5286 54.6773 40.2049 55.0587 39.9132 55.4739C39.6625 55.8269 39.3893 56.1559 39.0959 56.4579C38.9202 56.6256 38.8174 56.6541 38.7884 56.6319C38.7418 56.5971 38.6935 56.4147 38.7225 56.2101C38.7698 55.969 38.8503 55.7391 38.9606 55.5298C39.0807 55.2502 39.1671 54.9515 39.2172 54.6428C39.2356 54.5542 39.2532 54.4645 39.2743 54.3759C39.3277 54.1378 39.2945 53.8837 39.1829 53.6767L39.1829 53.6767ZM44.1778 52.969C45.1532 52.9953 46.3044 53.5259 47.0706 54.0237C47.5838 54.358 48.2737 54.936 48.7262 55.8167C47.8062 57.2932 47.0144 59.0704 46.3694 61.1039C44.8126 60.1791 43.1849 59.4373 41.509 58.889C41.5828 58.2309 41.6619 57.5537 41.8605 56.942C42.2603 55.708 43.1066 53.8359 44.1778 52.969L44.1778 52.969ZM47.386 47.8643C47.5208 47.9915 47.6639 48.1153 47.8152 48.2355C47.4152 48.9089 47.098 49.6063 46.8674 50.3196C46.7063 49.6593 46.929 48.5983 47.386 47.8643L47.386 47.8643ZM45.6479 40.2947C45.8413 40.3556 46.0396 40.391 46.2393 40.4002C46.336 40.8969 46.5636 41.2439 46.8826 41.3642C46.9676 41.3979 47.0567 41.4147 47.1462 41.4137C47.4239 41.3993 47.6878 41.2644 47.8888 41.034C48.2005 40.6906 48.4304 40.2538 48.5549 39.7684C48.8668 38.6262 48.6217 37.5388 47.9977 37.2941C47.5671 37.1253 47.0847 37.408 46.7244 37.9754L46.7051 37.9701C46.6126 37.949 46.5222 37.9165 46.4353 37.8731C46.4037 37.8562 46.3738 37.8373 46.3474 37.8183L47.6287 33.2229C47.771 32.7146 48.1252 32.3718 48.4028 32.4731L50.917 33.3896C50.8185 33.6786 50.5883 34.4675 49.9336 36.7899L49.9011 36.9049L50.4591 38.391L49.0997 43.308L45.8975 41.5477C45.626 41.3979 45.5135 40.8168 45.6479 40.2947L45.6479 40.2947ZM47.6348 38.5017C47.5368 38.3529 47.4089 38.2364 47.2631 38.1632C47.4248 37.968 47.5953 37.8615 47.7385 37.8615C47.7707 37.8611 47.8027 37.8668 47.8334 37.8784C48.1287 37.9944 48.2948 38.7221 48.0619 39.5743C47.9653 39.9546 47.7878 40.2981 47.5469 40.571C47.3668 40.7588 47.1831 40.8347 47.0425 40.782C46.9265 40.7366 46.8307 40.5963 46.7719 40.3907C46.9976 40.3729 47.2163 40.2893 47.409 40.147C47.6289 39.9697 47.7785 39.6917 47.8229 39.3782C47.8646 39.068 47.7964 38.751 47.6348 38.5038L47.6348 38.5017ZM49.3756 28.7595C49.4122 28.8699 49.4576 28.9758 49.511 29.0759C49.5882 29.2126 49.6765 29.3398 49.7746 29.4556C49.5045 30.321 49.3502 31.2323 49.3176 32.1556L48.7324 31.9447C48.5786 30.1169 49.0347 29.1908 49.3756 28.7616L49.3756 28.7595ZM67.5554 47.3801C67.8205 47.2587 68.0763 47.1097 68.3199 46.9351C68.5057 46.8004 68.6782 46.6408 68.834 46.4594C68.7988 46.6229 68.7628 46.7842 68.7241 46.9393C68.6093 47.3869 68.4623 47.8216 68.2847 48.2387C68.1115 48.6524 67.9036 49.044 67.6643 49.4073C67.5442 49.5877 67.4163 49.7606 67.2812 49.9251C67.1411 50.1025 67.0324 50.312 66.9613 50.5411C66.8899 50.6014 66.8126 50.651 66.7311 50.6887C66.5881 50.7562 66.4413 50.8112 66.2917 50.8533C65.9731 50.9408 65.6503 51.0042 65.3251 51.0431C64.9947 51.0853 64.6616 51.1074 64.3277 51.1254C63.9938 51.1433 63.6572 51.1528 63.3127 51.1306C63.6295 51.2986 63.9644 51.4125 64.3075 51.4692C64.6505 51.53 64.9968 51.5593 65.3435 51.5567C65.6955 51.5586 66.0469 51.5233 66.3936 51.4513C66.5261 51.4216 66.657 51.3825 66.7856 51.3342C66.7355 51.6506 66.703 51.9586 66.6661 52.2613C66.623 52.6283 66.5826 52.9996 66.5149 53.3244C62.9472 54.5721 58.4189 53.1947 54.4329 51.6633L53.9399 51.4692C53.1112 51.1528 52.1718 50.7974 51.2544 50.3618L51.3265 50.1445C51.4627 49.73 51.3449 49.248 51.0628 49.0708C50.243 48.5487 49.373 47.9676 48.5575 47.1154C48.4432 46.9922 48.2869 46.9417 48.1366 46.9794C47.9546 47.032 47.8039 47.1844 47.7297 47.3907C47.6998 47.4656 47.6726 47.5383 47.6418 47.6122C47.5547 47.4819 47.4731 47.3464 47.3975 47.2061C47.4226 46.7275 47.4167 46.2472 47.38 45.7696C47.3325 44.8552 47.2763 43.7414 47.5557 43.1392L53.6042 46.4657C53.7467 46.5444 53.9017 46.5851 54.0585 46.5849C54.218 46.5844 54.3756 46.543 54.5208 46.4636C54.9115 46.2345 55.2014 45.8151 55.3169 45.3119L57.2915 37.5746C57.9718 37.6767 58.6569 37.725 59.3425 37.7191C61.4928 37.7191 64.2785 37.3278 66.4016 36.2309C66.3743 36.3058 66.3444 36.3797 66.3198 36.4567C66.2008 36.8167 66.1076 37.1882 66.0413 37.5673C65.975 37.946 65.9408 38.3319 65.9393 38.719C65.9336 39.1058 65.9972 39.4895 66.1256 39.8443C66.1263 39.4745 66.1451 39.1047 66.1818 38.7372C66.2205 38.3781 66.2894 38.0246 66.3875 37.6822C66.484 37.3389 66.5997 37.0038 66.7337 36.6792C66.8585 36.3786 66.9974 36.0865 67.145 35.8017C67.51 35.5664 67.855 35.2888 68.1749 34.9727C67.3313 38.1094 66.8436 41.3009 67.9491 44.0262C68.0958 44.3869 68.3093 44.8341 68.6688 45.1031C68.7572 45.1683 68.8516 45.2214 68.95 45.2613C68.8637 45.4936 68.7605 45.7163 68.6415 45.9268C68.4915 46.1748 68.3141 46.3973 68.1143 46.5881C67.9065 46.788 67.6848 46.9662 67.4517 47.1207C67.2092 47.2777 66.9745 47.4513 66.7487 47.6406C67.0253 47.5929 67.2962 47.5055 67.5554 47.3801L67.5554 47.3801ZM65.3963 55.342C65.338 55.4767 65.2912 55.618 65.2565 55.7639C65.2309 55.8707 65.2107 55.9791 65.1959 56.0888C62.0719 57.0085 57.2976 56.0265 50.9952 53.1652C50.8194 53.0861 50.6437 53.0027 50.4679 52.9173C50.6525 52.237 50.8554 51.5937 51.0707 50.9397C52.0014 51.3838 52.9504 51.7434 53.7887 52.063L54.2808 52.2497C57.2159 53.3761 60.4497 54.4224 63.4155 54.4224C64.3652 54.4315 65.3123 54.3054 66.2372 54.0469L66.2179 54.069C66.0568 54.2518 65.9068 54.4482 65.7689 54.6565C65.6268 54.8703 65.5021 55.0999 65.3963 55.342L65.3963 55.342ZM49.8844 53.0512C49.8755 53.0914 49.8576 53.1279 49.8326 53.1567C49.3545 52.8287 47.9643 51.871 47.307 51.1296C47.2656 51.058 47.2524 50.9681 47.271 50.8838C47.4766 49.6182 47.7895 48.6785 48.1963 47.6523C48.2056 47.6283 48.2184 47.6065 48.2341 47.5879C49.0874 48.477 49.982 49.075 50.8247 49.6119C50.8765 49.7004 50.8852 49.8153 50.8475 49.9135L50.7236 50.2911C50.4205 51.2129 50.1349 52.0788 49.8844 53.0512L49.8844 53.0512ZM51.4073 33.5647L56.2159 35.3186C56.2414 35.4178 56.2291 35.5654 56.1807 35.7869C56.1719 35.8228 56.1658 35.8534 56.1614 35.8766C55.7018 38.5386 55.0102 41.2323 54.2844 44.0863L54.1156 44.7487C54.0371 45.0661 53.8738 45.3437 53.6508 45.5386C53.5633 45.6086 53.4614 45.648 53.3564 45.6525L49.5707 43.5685L51.011 38.3593L50.4521 36.869C50.8018 35.6308 51.3432 33.7324 51.4073 33.5647L51.4073 33.5647ZM56.9435 36.8279L54.8248 45.1315C54.7521 45.465 54.5636 45.745 54.3072 45.9004C54.1516 45.988 53.9716 45.988 53.816 45.9004L53.8107 45.9004C53.8221 45.8909 53.8353 45.8846 53.8459 45.8751C54.1329 45.6278 54.3434 45.2732 54.4443 44.8668L54.6139 44.2055C55.3441 41.3441 56.0349 38.6399 56.4971 35.9652C56.4971 35.9483 56.505 35.9251 56.5111 35.8977C56.545 35.7576 56.5644 35.6131 56.5691 35.4673C56.7019 35.5474 56.8104 35.6754 56.8793 35.8333C57.0082 36.1421 57.0312 36.499 56.9435 36.8279L56.9435 36.8279ZM57.4426 36.9766C57.5633 36.4987 57.5255 35.9833 57.3372 35.538C57.2825 35.4144 57.2142 35.3002 57.1342 35.1984C58.4523 35.1446 60.1993 35.0086 61.006 34.5192C61.2564 34.5772 61.5069 34.6246 61.7591 34.6784C63.2679 34.9632 64.8119 35.0655 66.3058 35.1646C66.4815 35.1762 66.6749 35.1889 66.8778 35.1889L67.0123 35.1889C64.2925 37.0652 59.6826 37.3183 57.4391 36.9766L57.4426 36.9766ZM56.3503 34.6078L56.0647 34.6173L49.8256 32.3433C49.8397 31.5002 49.9637 30.665 50.1929 29.8679C50.5057 30.1018 50.8354 30.3016 51.178 30.4649C54.0146 31.9162 56.9329 33.4065 59.9954 34.2618C58.9031 34.5308 57.2537 34.5803 56.3468 34.6078L56.3503 34.6078ZM74.4527 47.9254C74.1012 50.6529 73.7076 53.0523 72.5116 54.7947C71.885 55.707 71.0361 56.4136 69.9886 56.8946C68.1327 57.7478 66.6212 58.2425 65.6353 58.3311C65.666 58.1465 65.6959 57.963 65.7232 57.7763C65.7589 57.5309 65.792 57.2848 65.8224 57.038C65.8558 56.788 65.8734 56.5233 65.8998 56.3081C65.9191 56.1098 65.9673 55.917 66.0421 55.7386C66.1255 55.5451 66.2246 55.3621 66.3383 55.1923C66.4549 55.0152 66.5818 54.8481 66.7179 54.6924L66.7451 54.6618L66.7838 54.6132C66.8097 54.5822 66.8338 54.5491 66.8559 54.5141C66.8984 54.4492 66.9372 54.3808 66.9719 54.3095C67.0325 54.1789 67.0836 54.0424 67.1248 53.9013C67.2742 53.3645 67.3207 52.8603 67.3761 52.3699C67.4135 51.9036 67.4805 51.4413 67.5764 50.9872C67.6136 50.8127 67.6819 50.65 67.7768 50.5105C67.9281 50.3235 68.0709 50.1271 68.2048 49.922C68.4712 49.5131 68.7023 49.0728 68.8946 48.6078C69.086 48.1461 69.2439 47.6655 69.3665 47.1713C69.4878 46.6724 69.5712 46.1957 69.6609 45.7074C69.6802 45.6019 69.6978 45.4912 69.7153 45.3836C69.812 45.3836 69.9087 45.3836 70.0045 45.3731C71.6503 45.2725 73.2852 44.9944 74.8895 44.542C74.7407 45.6761 74.5933 46.8039 74.4475 47.9254L74.4527 47.9254ZM82.0663 20.4442C82.075 20.1397 82.1014 19.8363 82.1454 19.5361C82.1577 19.4655 82.1674 19.379 82.1805 19.3252C82.1938 19.2614 82.2121 19.1993 82.235 19.1396C82.2809 19.0137 82.3399 18.8953 82.4108 18.7873C82.5514 18.5711 82.7403 18.4266 82.938 18.4308C82.9875 18.4322 83.0368 18.4404 83.0848 18.4551C83.1292 18.4711 83.1719 18.493 83.2122 18.5205C83.2871 18.6018 83.3446 18.7034 83.38 18.8168C83.472 19.095 83.5361 19.3853 83.5707 19.6817C83.5909 19.8336 83.6059 19.9855 83.6164 20.1373C83.6217 20.2143 83.6252 20.2892 83.6278 20.3641L83.6278 20.4769C83.6278 20.5212 83.6278 20.5655 83.6278 20.6109C83.6374 20.795 83.679 20.9747 83.75 21.1382C83.7918 21.2346 83.852 21.3177 83.9258 21.3808C84.0172 21.459 84.1334 21.4827 84.2412 21.4452C84.3247 21.4094 84.4002 21.3509 84.4618 21.2743C84.5145 21.2184 84.5629 21.1583 84.6103 21.0982C84.7047 20.9772 84.7927 20.8493 84.8739 20.7153C85.1947 20.1827 85.417 19.5952 85.6701 19.052C85.9188 18.5033 86.1928 17.9716 86.4909 17.4594C86.7843 16.9499 87.1136 16.4714 87.475 16.0293C87.5629 15.9238 87.6587 15.8183 87.7527 15.7129C87.7822 15.6726 87.8185 15.6403 87.8591 15.618C87.8929 15.6009 87.9298 15.5944 87.9663 15.599C88.0425 15.6084 88.1103 15.6614 88.1482 15.7414C88.1838 15.8577 88.1993 15.9815 88.1939 16.1052C88.1947 16.2473 88.1811 16.389 88.1535 16.5271C88.1464 16.5609 88.1376 16.5914 88.1288 16.622L88.0946 16.7275L88.0243 16.9469C87.9285 17.238 87.8283 17.5301 87.7273 17.8202L87.1077 19.5646L86.9539 20.0034L86.8793 20.2238L86.8608 20.2797L86.8564 20.2934C86.8497 20.3088 86.8458 20.3257 86.845 20.343C86.8379 20.4136 86.8705 20.4813 86.9249 20.5094C86.9794 20.5374 87.0427 20.5191 87.0805 20.4643L87.1007 20.4316L87.1288 20.3841C87.2817 20.131 87.4419 19.8849 87.6095 19.6458C87.9424 19.1637 88.3027 18.7099 88.6877 18.2874C89.0634 17.8649 89.4759 17.4922 89.918 17.1757C90.1148 17.0383 90.3423 16.9771 90.5692 17.0007C90.6506 17.01 90.7226 17.0678 90.7607 17.1547C90.7975 17.2549 90.8003 17.3684 90.7686 17.4711C90.621 18.0184 90.3231 18.5426 90.0024 19.0215C89.6816 19.5003 89.3117 19.9612 88.961 20.44C88.7853 20.6784 88.6095 20.9241 88.4557 21.1857L88.4259 21.2342L88.4109 21.2585L88.4039 21.2711C88.399 21.2791 88.3946 21.2876 88.3907 21.2964C88.3611 21.3621 88.3666 21.4425 88.4046 21.5016C88.4426 21.5607 88.5061 21.5873 88.5665 21.5696C88.591 21.561 88.6138 21.5463 88.6333 21.5264L88.6517 21.5074L88.6895 21.4705L88.7642 21.3966C88.865 21.2989 88.9678 21.2043 89.0726 21.1129C89.4925 20.7476 89.9431 20.4362 90.4171 20.1837C90.8877 19.9316 91.3782 19.7366 91.8811 19.6015C91.9444 19.5836 92.0068 19.5689 92.0701 19.5551L92.1641 19.5351L92.2116 19.5246L92.2388 19.5246C92.3022 19.5239 92.3609 19.5642 92.3926 19.63C92.4071 19.6623 92.4132 19.699 92.4102 19.7355L92.4102 19.7629L92.3996 19.8072C92.3917 19.8357 92.3829 19.8652 92.3724 19.8947C92.3245 20.0198 92.2624 20.1362 92.1878 20.2407C92.0224 20.4671 91.8374 20.6718 91.636 20.8514L91.0208 21.4494L89.7906 22.6391L89.7519 22.676L89.7326 22.6939C89.7209 22.7044 89.7103 22.7164 89.701 22.7298C89.683 22.7551 89.6696 22.7845 89.6614 22.8163C89.6454 22.8801 89.6524 22.9491 89.6806 23.0065C89.7088 23.064 89.7556 23.1047 89.8099 23.119C89.8358 23.1247 89.8623 23.1247 89.8881 23.119L89.911 23.1126L89.9347 23.1052L90.1245 23.0525L90.5068 22.9523C90.7625 22.8901 91.0182 22.8331 91.2757 22.7836C91.5332 22.734 91.7977 22.6876 92.0428 22.6612C92.288 22.6348 92.513 22.6739 92.6465 22.831C92.709 22.8942 92.7489 22.9836 92.7581 23.081C92.751 23.1683 92.71 23.2465 92.6474 23.2919C92.5522 23.3719 92.4496 23.4384 92.3416 23.4902C92.2247 23.5545 92.1052 23.6136 91.9901 23.6748C91.5086 23.9131 91.0112 24.1251 90.5208 24.393C90.0125 24.6502 89.5443 25.009 89.1359 25.4541C88.7238 25.9244 88.4557 26.4845 88.1034 26.8874C87.751 27.2903 87.323 27.5656 86.8599 27.5634C86.6079 27.551 86.357 27.5158 86.1095 27.458C85.9531 27.4282 85.7939 27.4282 85.6376 27.458C85.5928 27.4706 85.5497 27.4854 85.5031 27.5002C85.4583 27.522 85.4148 27.5477 85.3731 27.5772L85.3353 27.6035C84.656 26.9 83.2597 25.4773 82.5074 24.7158C82.6058 24.5611 82.6821 24.3878 82.7333 24.2032L82.7667 24.0777L82.7131 23.9606C82.221 22.9112 82.0267 21.6593 82.061 20.4442L82.0663 20.4442ZM77.4414 30.2424C77.9477 29.3602 78.417 28.4481 78.8474 27.5097C79.4625 26.2124 79.9072 25.2748 80.6928 24.7084C80.9459 24.527 81.2359 24.6124 81.4283 24.6704L81.5021 24.6915C81.6477 24.7253 81.7843 24.8009 81.9002 24.9119C83.0742 26.0974 85.2281 28.3017 85.3335 28.4241C85.9803 29.2678 86.0233 29.8342 85.4961 30.5809C85.3871 30.736 85.2738 30.9089 85.1595 31.0893C85.0707 30.8932 84.9703 30.7049 84.859 30.5261C84.6593 30.206 84.4316 29.9125 84.1797 29.6507C83.9312 29.3937 83.6668 29.1596 83.3888 28.9504C83.1158 28.738 82.8202 28.5706 82.5101 28.4526C82.7535 28.7131 83.003 28.9462 83.2465 29.1908C83.4883 29.4275 83.7154 29.6852 83.9257 29.9618C84.1323 30.2329 84.3185 30.5255 84.482 30.8362C84.6144 31.0934 84.727 31.3645 84.8186 31.6462C84.4925 32.201 84.1577 32.8253 83.83 33.4666C83.8084 33.3301 83.773 33.1972 83.7245 33.0711C83.6484 32.8763 83.5531 32.6933 83.4407 32.5258C83.3349 32.3589 83.2052 32.216 83.0575 32.1039C83.0996 32.3019 83.1585 32.4941 83.2333 32.6777C83.2982 32.8491 83.3489 33.0279 83.3844 33.2113C83.4154 33.3845 83.4243 33.5623 83.4108 33.7387C83.3909 33.9431 83.3809 34.1488 83.3809 34.3546L83.3862 34.3546C82.8906 35.3629 82.431 36.3533 82.0724 37.1253C81.7745 37.7666 81.5399 38.2739 81.4292 38.4764C81.2429 38.815 81.0777 39.1714 80.9186 39.5163C80.6664 40.0627 80.4283 40.5784 80.1146 41.0298C79.2964 42.2079 78.0302 42.8112 76.9001 43.2447C74.6568 44.1087 72.3293 44.6189 69.9763 44.7624C69.5888 44.7856 69.2162 44.7888 68.9359 44.5789C68.689 44.3943 68.5238 44.0431 68.4086 43.7573C67.2601 40.9286 67.9798 37.4597 68.9543 34.1173L69.0194 34.1036C69.102 34.1981 69.1795 34.2988 69.2514 34.4053C69.3272 34.5267 69.3939 34.6558 69.4508 34.7913C69.5657 35.0808 69.6515 35.3856 69.7066 35.6994C69.7681 36.0158 69.8067 36.3565 69.848 36.695C69.8817 37.0404 69.9556 37.3784 70.0677 37.6991C70.0853 37.3489 70.0915 37.0146 70.0897 36.6729C70.0879 36.3311 70.0897 35.9863 70.0607 35.6329C70.0362 35.2723 69.9705 34.9174 69.8656 34.5782C69.8099 34.4005 69.738 34.2307 69.6512 34.072C69.6354 34.0435 69.6187 34.0161 69.602 33.9887L69.7777 33.9581L69.8867 34.0192C69.9268 34.0433 69.965 34.0715 70.0009 34.1036C70.0867 34.1929 70.166 34.2906 70.2382 34.3958C70.319 34.5076 70.4008 34.6194 70.4799 34.7354C70.5607 34.8601 70.6567 34.9696 70.7646 35.0602C70.7672 34.8991 70.7424 34.739 70.6916 34.5898C70.6451 34.4443 70.595 34.2998 70.5387 34.1595C70.4991 34.0556 70.4539 33.9548 70.4034 33.8579C70.87 33.7883 71.3613 33.7229 71.8463 33.6585C72.9624 33.5109 74.1153 33.3579 74.9281 33.1502C74.9637 33.1394 74.998 33.1231 75.0301 33.1017C75.3934 33.2924 75.7361 33.5358 76.0503 33.8262C76.401 34.1548 76.7197 34.5298 77.0002 34.9442C77.2851 35.3616 77.5378 35.8093 77.7551 36.2816C77.9766 36.7583 78.1769 37.2508 78.3869 37.7497C78.3054 37.198 78.1664 36.6608 77.973 36.1508C77.7809 35.6347 77.5503 35.1405 77.2841 34.6742C77.0127 34.2026 76.6936 33.7732 76.3342 33.3959C76.0731 33.1214 75.7879 32.882 75.4835 32.6819C76.1794 31.9224 76.8317 31.1074 77.4361 30.2424L77.4414 30.2424ZM75.5081 31.8318C75.19 32.201 74.9211 32.4889 74.8253 32.5363L74.8253 32.5363C74.6496 32.568 74.4782 32.607 74.3033 32.6524C73.5749 32.7979 72.675 32.9181 71.7962 33.0342C70.8226 33.1628 69.8199 33.2957 69.0405 33.4655C69.0405 33.4349 69.0492 33.4044 69.051 33.3738C69.073 33.0897 69.0185 32.8047 68.8955 32.5606C69.1723 32.2178 69.247 31.7643 69.1099 31.2465C69.7168 30.7072 70.2848 30.1074 70.8076 29.4535C71.0618 29.5815 71.3343 29.6492 71.6099 29.6528C71.7732 29.6517 71.9357 29.6273 72.0941 29.58C73.4492 29.9101 74.5125 30.602 75.5011 31.8318L75.5081 31.8318ZM75.871 22.0115C75.8754 22.0832 75.879 22.156 75.8842 22.2299C75.9378 23.0842 75.6382 23.9237 75.3262 24.7094C74.7823 26.051 74.1531 27.4126 73.1407 28.2596C72.2963 28.9662 71.7629 29.1729 71.1785 28.9651C72.8279 26.7629 74.1663 23.9522 74.8253 21.1604C74.9009 20.844 74.9668 20.5191 75.0266 20.1975C75.7955 20.7512 75.8236 21.2627 75.864 22.0115L75.871 22.0115ZM65.7732 1.16545C67.5788 1.77763 69.2403 2.88706 70.6257 4.40548C70.1566 4.84345 69.716 5.32368 69.3076 5.84199C68.831 6.4485 68.401 7.10542 68.0229 7.80476C67.6375 8.51195 67.3206 9.26954 67.0782 10.0629C66.9115 10.6135 66.7937 11.1838 66.7267 11.7641C63.9041 10.5923 61.2134 9.89307 59.8724 9.63361L59.5499 9.5756C59.8174 8.24349 59.9324 6.87385 59.8917 5.50447C59.8446 4.02277 59.555 2.56668 59.0393 1.21924C61.2343 0.435258 63.5698 0.416604 65.7733 1.16545L65.7732 1.16545ZM61.8593 11.2684C60.5051 11.1197 59.1351 10.971 57.7889 11.2072C56.4426 11.4435 55.1025 12.1037 54.2088 13.3345C53.2369 14.674 52.6499 18.5996 52.352 20.3398C52.1701 18.4287 52.294 14.6445 52.7834 12.8156C52.9592 12.1712 53.1833 11.5152 53.6174 11.0849C54.0515 10.6546 54.6543 10.5058 55.2246 10.4183C57.4613 10.0919 59.7305 10.3826 61.8593 11.2684L61.8593 11.2684ZM47.7868 19.6332C47.2947 18.2747 47.3475 16.7191 47.4845 15.2393C47.5627 14.3734 47.6743 13.4695 48.0935 12.7766L48.1998 12.5984C48.5417 12.0214 48.7825 11.6185 49.5602 11.5827C49.4723 11.8791 49.3976 12.1786 49.3255 12.4823C48.6223 15.4122 48.5671 18.5115 49.1656 21.4747C48.5672 21.288 48.1998 20.7775 47.7868 19.6332L47.7868 19.6332ZM49.8203 12.6564C50.9679 7.79211 53.7369 4.03633 57.1421 2.09042C57.2396 2.35093 57.3301 2.61777 57.4057 2.88461C57.5122 3.25271 57.6003 3.62815 57.6693 4.00891C57.7378 4.39139 57.7845 4.779 57.8091 5.16908C57.8345 5.56248 57.8477 5.95799 57.8759 6.3651C57.982 5.97718 58.0412 5.57298 58.0516 5.16486C58.0648 4.75604 58.0551 4.3466 58.0226 3.93931C57.9881 3.52938 57.9276 3.1232 57.8416 2.7243C57.7778 2.4234 57.6985 2.12752 57.6043 1.83835C57.9101 1.6812 58.2194 1.53987 58.5349 1.41647C58.9976 2.71707 59.2387 4.11563 59.2441 5.52978C59.2452 6.85846 59.092 8.18181 58.7891 9.46077C56.8477 9.20013 54.8723 9.25075 52.9759 9.7781C52.8032 9.82709 52.66 9.97149 52.5901 10.1673C51.0084 14.5907 50.7395 19.7387 52.0154 24.3002C52.0521 24.4319 52.1218 24.5468 52.2149 24.6293C56.382 28.3386 62.4964 30.1327 67.1599 29.3185C67.2863 29.295 67.4022 29.2206 67.4886 29.1075C70.5203 25.2273 72.7137 20.8524 72.9044 15.6918C72.913 15.4586 72.8189 15.2371 72.6566 15.1085C71.1328 13.8988 69.2971 12.8937 67.4719 12.0879C67.5065 11.4956 67.6022 10.9107 67.7566 10.3466C67.9616 9.60507 68.2361 8.89388 68.5747 8.22664C69.2221 6.94591 70.0444 5.80499 71.0071 4.85161C71.9495 5.97792 72.7405 7.27305 73.3517 8.69071C74.9712 12.437 75.3183 16.8055 74.3297 20.9906C73.429 24.8065 71.2268 28.6551 68.7057 30.8288C62.4651 30.7777 56.337 28.8299 50.8933 25.1672C49.1928 21.3734 48.8088 16.9332 49.8203 12.6564L49.8203 12.6564ZM68.6503 17.9299C67.9824 17.1726 67.7917 16.1137 68.2223 15.5663C68.6529 15.0189 69.5457 15.1876 70.2127 15.946C70.8797 16.7043 71.0722 17.7622 70.6407 18.3095C70.2092 18.8569 69.3182 18.6861 68.6503 17.9299L68.6503 17.9299ZM69.9298 21.0602C69.6949 21.352 69.3079 21.3617 69.0631 21.082C68.8183 20.8022 68.8075 20.3377 69.0388 20.042C69.2702 19.7462 69.6571 19.7299 69.9052 20.0055C70.1541 20.288 70.1651 20.7593 69.9298 21.0581L69.9298 21.0602ZM50.5663 25.6576C56.0786 29.3862 62.288 31.3779 68.6152 31.4468C68.7347 31.9056 68.5677 32.1166 68.3814 32.2621L68.225 32.3855C67.7478 32.4678 67.2724 32.5458 66.7952 32.5965L66.4016 32.6397L66.0079 32.6713L65.6142 32.6988L65.2188 32.7125C64.6915 32.7367 64.1642 32.7072 63.637 32.6935C63.1097 32.6798 62.5719 32.6555 62.0174 32.6756C62.5129 32.9668 63.04 33.1727 63.5834 33.2873C64.1247 33.4014 64.6727 33.4634 65.2223 33.4729L65.6344 33.4729L66.0474 33.4571C66.3216 33.435 66.5958 33.4086 66.8691 33.3685C67.4151 33.2882 67.9543 33.1517 68.4807 32.9603L68.4807 32.9456C68.525 33.0654 68.5432 33.1968 68.5334 33.3274C68.506 33.6989 68.3408 34.0358 68.0835 34.245C67.6195 34.5983 67.0176 34.5898 66.3348 34.5445C64.8541 34.4464 63.3233 34.3451 61.8399 34.0646C58.1922 33.3759 54.7325 31.6051 51.3871 29.8933C50.8871 29.638 50.264 29.3185 49.9459 28.7331C49.7741 28.3996 49.7257 27.9953 49.8124 27.6173C49.8387 27.5133 49.8827 27.4171 49.9415 27.3346C50.4779 27.788 51.0331 28.2083 51.605 28.5939C52.1964 28.9873 52.7984 29.3586 53.4161 29.6876C54.0339 30.0167 54.664 30.3131 55.3037 30.5704C55.9435 30.8277 56.592 31.064 57.28 31.0977C56.679 30.698 56.0559 30.4312 55.4347 30.1369C54.8134 29.8427 54.2132 29.5115 53.6183 29.1624C53.0233 28.8133 52.4363 28.4441 51.8651 28.0412C51.3247 27.6658 50.7939 27.2692 50.2719 26.8568L50.2719 26.8568C50.2332 26.426 50.3392 25.9944 50.5663 25.6576L50.5663 25.6576ZM46.2745 33.8769C46.3281 33.7007 46.3791 33.5235 46.4292 33.3495C46.4924 33.1291 46.5548 32.9076 46.6251 32.6903L46.7288 32.3623C47.2288 30.7803 47.9459 28.5158 49.2904 27.5708C49.2591 27.7358 49.2458 27.9049 49.2508 28.0739C48.8598 28.4283 48.0469 29.463 48.206 31.8455C47.7587 31.9025 47.3272 32.3549 47.1401 33.0257L46.4248 35.5802C46.153 35.5377 45.8768 35.565 45.6145 35.6604C45.8669 35.0839 46.0874 34.4881 46.2745 33.8769L46.2745 33.8769ZM44.7085 37.4797C44.8166 37.0626 45.0466 36.7063 45.3562 36.4767C45.6516 36.2489 46.0023 36.1471 46.3518 36.1877L46.0469 37.4069L46.0469 37.4069C46.0185 37.4694 46.0063 37.5407 46.0117 37.6115C46.0191 37.686 46.0391 37.7578 46.0706 37.8225C46.1322 37.9458 46.2163 38.0508 46.3167 38.1294C46.4138 38.2101 46.5221 38.2694 46.6365 38.3045C46.7411 38.3393 46.8422 38.3688 46.9371 38.41C47.111 38.4593 47.2659 38.5779 47.3764 38.7464C47.4742 38.9071 47.5115 39.1095 47.4793 39.3047C47.4471 39.4998 47.3483 39.6699 47.2068 39.7737C47.0482 39.8741 46.8712 39.9256 46.6919 39.9234C46.3013 39.9492 45.9109 39.8692 45.5495 39.6893C44.8702 39.3402 44.5003 38.3013 44.7085 37.4797L44.7085 37.4797ZM41.5652 46.0902C41.9378 45.7738 42.1505 45.3298 42.3561 44.9048C42.5617 44.4797 42.7674 44.061 43.1347 43.7446C43.5441 43.4068 43.9091 42.9973 44.2173 42.5296C44.2863 42.6505 44.3671 42.761 44.4581 42.8587C44.6135 43.0222 44.7871 43.1588 44.9739 43.2647C45.1497 43.3625 45.3295 43.4494 45.5126 43.5252C45.6919 43.6051 45.8761 43.6683 46.0636 43.714C45.9399 43.5342 45.7913 43.3815 45.6242 43.2626C45.4643 43.1413 45.307 43.0211 45.1629 42.8935C45.0235 42.7736 44.8966 42.6341 44.785 42.4779C44.685 42.3385 44.6094 42.1764 44.5627 42.0012L44.531 42.0149C44.6462 41.804 44.7516 41.593 44.8553 41.3905C44.9326 41.2355 45.01 41.0857 45.0891 40.936C45.1295 41.4633 45.3448 41.9189 45.691 42.1088L47.097 42.8829C46.7684 43.6423 46.8263 44.7814 46.8791 45.8086C46.9054 46.336 46.9309 46.8306 46.8949 47.1703C46.4344 48.0256 46.1453 49.7321 46.4054 50.7098C46.1989 50.9767 46.0882 51.1001 45.9731 51.2298C45.858 51.3595 45.7147 51.5167 45.4608 51.8499C45.423 51.8594 45.3843 51.8658 45.3465 51.8732C45.2815 51.8732 45.2165 51.8826 45.1506 51.8911L45.0934 51.8974L44.995 51.9143C44.9388 51.9259 44.8825 51.9385 44.8272 51.9544L44.8272 51.9544C43.4522 52.0991 42.0731 51.7386 40.8728 50.9208C40.4598 50.636 39.7708 50.0401 39.7928 49.2501C39.806 48.7766 40.0687 48.3473 40.3842 47.879C40.523 47.6681 40.6478 47.4519 40.7673 47.2367C40.9064 47.5581 41.0782 47.8574 41.2788 48.1279C41.5668 48.5164 41.8973 48.8562 42.2612 49.1383C42.6178 49.4127 42.9915 49.6535 43.379 49.8587C43.7579 50.064 44.1507 50.2305 44.553 50.3565C44.2015 50.077 43.8359 49.8418 43.4792 49.5961C43.1226 49.3586 42.7821 49.0882 42.4607 48.7871C42.1466 48.4936 41.8633 48.1553 41.6171 47.7799C41.3962 47.4389 41.2208 47.0589 41.0968 46.6535C41.2296 46.4397 41.3874 46.25 41.5652 46.0902L41.5652 46.0902ZM39.9712 46.9446L40.3446 46.8728C40.2216 47.0933 40.1047 47.301 39.9756 47.4941C39.6864 47.9254 39.2901 48.5171 39.2725 49.2354C39.2706 49.3171 39.2736 49.3988 39.2813 49.4801C37.8077 49.3524 35.5519 50.3154 34.4183 51.1581C33.891 51.1581 33.3638 51.1665 32.8365 51.1834C34.4578 47.9887 37.6258 47.3865 39.9685 46.9403L39.9712 46.9446ZM11.4581 76.9929C10.3966 76.2609 9.39214 75.4256 8.37103 74.6208L6.88593 73.3331C6.7629 73.2276 6.63724 73.1221 6.51597 73.0093L6.15832 72.6686L5.44301 71.983L4.72682 71.2975L4.04139 70.5697L3.35596 69.841L3.01324 69.4771C2.899 69.3548 2.79443 69.2218 2.68459 69.0953L1.38139 67.5502L1.29966 67.4531L1.23991 67.3708C1.19982 67.318 1.1631 67.2616 1.13006 67.2021C1.06464 67.0891 1.01232 66.966 0.974523 66.8361C0.899529 66.5881 0.888204 66.3188 0.942009 66.063C1.00365 65.8021 1.1255 65.5673 1.29351 65.3859C1.31724 65.3617 1.3313 65.3406 1.36118 65.311L1.44905 65.2256L1.6248 65.0537L1.98158 64.7099L2.69601 64.0201C2.81552 63.9062 2.93239 63.7881 3.05366 63.6773L3.4245 63.3609C3.92188 62.939 4.40959 62.495 4.91839 62.0826L6.45534 60.8866C8.54101 59.3529 10.7214 58.013 12.9775 56.8787L13.8264 56.4569C14.1102 56.3208 14.3896 56.17 14.6796 56.0529L16.4081 55.3083L17.0233 55.0731C17.83 56.941 18.2729 59.0219 18.5462 61.1133C18.8205 63.3446 18.927 65.6009 18.8643 67.855C18.8073 70.1136 18.6114 72.3641 18.2781 74.5882C18.1129 75.6984 17.9079 76.7984 17.663 77.8883C17.54 78.4325 17.409 78.9736 17.2632 79.5083C17.1709 79.849 17.069 80.1844 16.9644 80.5187C16.1876 80.0757 15.4213 79.6075 14.6498 79.1476C13.5838 78.4441 12.4959 77.767 11.4581 76.9929L11.4581 76.9929ZM60.9322 90.7039L59.0964 90.8273C58.4813 90.8653 57.8662 90.8684 57.2581 90.8906L56.3398 90.9212L55.4206 90.9212C54.8055 90.9138 54.1947 90.9212 53.5822 90.9043L51.7456 90.8273L51.286 90.8083L50.8282 90.7714L49.9134 90.7039C48.6893 90.6322 47.4714 90.4645 46.2516 90.3316L44.4273 90.0584L43.5161 89.9171L42.6083 89.7462C42.0037 89.6292 41.3965 89.5269 40.7928 89.3982L38.987 88.99C38.3832 88.8645 37.7874 88.6926 37.1881 88.5365C36.5888 88.3804 35.9904 88.2306 35.3946 88.0471L33.6072 87.5198C33.0105 87.3426 32.4209 87.1401 31.8268 86.9513L30.9323 86.6539L30.0535 86.3438L28.2881 85.7173C27.1202 85.2659 25.9471 84.8335 24.7933 84.3325C23.6298 83.8642 22.4918 83.3189 21.3441 82.8C20.2149 82.2305 19.0734 81.6926 17.9662 81.065C17.8036 80.9796 17.6428 80.89 17.482 80.8014C18.2386 78.885 18.7456 76.8431 19.1033 74.778C19.4879 72.5079 19.6994 70.2006 19.7351 67.8845C19.7861 65.5654 19.6424 63.2461 19.3063 60.9615C19.1348 59.8154 18.8895 58.687 18.5725 57.5864C18.3034 56.6473 17.9597 55.7414 17.5461 54.8811C18.337 54.5858 19.1279 54.3021 19.9258 54.0638L20.8142 53.7811L21.7115 53.5417L22.6095 53.3023C22.7589 53.2632 22.9083 53.22 23.0586 53.1841L23.5111 53.0861L25.3214 52.6969L27.1431 52.3889C29.3552 52.057 31.5776 51.8559 33.8102 51.7856C33.7616 51.8673 33.7186 51.9538 33.6819 52.044C33.5237 52.448 33.5017 53.0407 33.7698 53.3919C33.8541 53.4986 33.9558 53.5833 34.0685 53.6408C34.9851 54.1618 35.9297 54.049 36.8437 53.9414C37.4649 53.8676 38.0528 53.798 38.6346 53.9108C38.6835 53.9209 38.7266 53.9554 38.7532 54.0057C38.785 54.0656 38.7936 54.1391 38.7769 54.2072C38.755 54.3032 38.7356 54.3991 38.7163 54.4951C38.6755 54.7493 38.6061 54.9955 38.5098 55.2271C38.3699 55.4969 38.27 55.7938 38.2145 56.1046C38.1627 56.4737 38.2347 56.941 38.5115 57.1519C38.5996 57.2208 38.7025 57.2574 38.8077 57.2574C38.9694 57.2574 39.1724 57.1783 39.4184 56.941C39.7341 56.6178 40.028 56.2652 40.2972 55.8863C40.5681 55.5018 40.8685 55.1487 41.1944 54.8316C41.5188 54.5592 41.8667 54.3297 42.2322 54.1471C42.386 54.0616 42.5442 53.9709 42.7015 53.875C42.1631 54.7531 41.7202 55.7101 41.3833 56.7226C41.1584 57.4177 41.0758 58.1507 40.9967 58.8552C40.9729 59.0092 40.6592 59.9584 40.3279 60.9646L40.1742 61.4329C40.0728 61.6895 39.9452 61.9301 39.7945 62.149C39.5879 62.4515 39.4173 62.787 39.2875 63.1457C39.1594 63.5921 39.071 64.0534 39.0239 64.5221C38.9814 64.9379 38.9061 65.3479 38.7989 65.7466C38.6231 66.3372 38.4597 66.8899 38.3217 67.3898C37.9034 68.8981 37.7013 69.8631 37.6301 70.4938C37.5669 70.4463 37.5019 70.401 37.4368 70.3578C37.3903 70.3261 37.3419 70.2976 37.2945 70.2691C37.3384 70.0276 37.3779 69.785 37.4078 69.5404C37.8812 65.5654 36.3228 61.6372 33.4534 59.5724C32.5223 58.9055 31.4936 58.4584 30.4226 58.2551C26.5038 57.5532 22.7167 60.2671 21.3726 64.7406C20.0285 69.2141 21.5007 74.2044 24.8908 76.6659C25.8304 77.3485 26.8744 77.7982 27.9612 77.9885C28.8009 78.1335 29.6541 78.1261 30.492 77.9663L30.5799 78.038C31.028 78.3777 31.5078 78.5886 31.9736 78.7837L33.3647 79.3564L38.9237 81.6335L40.3139 82.2041C40.7824 82.4088 41.2593 82.5848 41.7427 82.7315C42.2506 82.8851 42.7782 82.9209 43.2973 82.8369C43.5655 82.7894 43.8264 82.6945 44.0714 82.5553C44.3341 82.4108 44.563 82.1905 44.7375 81.9141C44.9071 81.624 44.9915 81.3277 45.089 81.0882C45.1333 80.9758 45.1878 80.8697 45.2516 80.7718C45.3316 80.6495 45.4098 80.525 45.4827 80.3953C45.7673 79.8758 45.9831 79.3066 46.1225 78.7078C46.3861 77.6425 46.4555 76.5625 46.7262 75.6006C46.8193 75.5775 46.9101 75.5421 46.9968 75.4952C47.2151 75.3725 47.404 75.1857 47.5461 74.952L48.1708 73.7771C48.5812 73.0082 49.0101 72.2119 49.2693 71.2869C49.4042 70.821 49.4786 70.333 49.4899 69.8399C49.4832 69.6253 49.4885 69.4103 49.5057 69.1965C49.5317 68.9949 49.5747 68.7971 49.634 68.6059C49.7579 68.2093 49.9336 67.797 50.0734 67.3403C50.1427 67.107 50.1954 66.8671 50.2307 66.6231C50.243 66.4986 50.2597 66.3742 50.2623 66.2497L50.2711 65.9112C50.293 65.5251 50.4266 65.1117 50.5725 64.7025L50.8018 64.0697C50.8396 63.9642 50.8765 63.8492 50.909 63.729C50.909 63.7163 50.9161 63.7068 50.9187 63.6952L50.9187 63.6952L50.9187 63.7765C51.0934 63.7614 51.2689 63.7854 51.4363 63.8471C51.5148 63.8814 51.5902 63.9252 51.6613 63.9779C51.7412 64.0359 51.837 64.1118 51.9469 64.1741C52.0558 64.2381 52.1701 64.2879 52.2878 64.3228C52.3457 64.3413 52.4043 64.3557 52.4636 64.366L52.6182 64.3977C52.8045 64.4356 53.0058 64.4915 53.2017 64.5443C53.9926 64.7552 54.7896 64.9946 55.5858 65.2256C55.9839 65.3416 56.3828 65.4597 56.7862 65.5631C56.9892 65.6169 57.1895 65.6686 57.4013 65.716C57.5015 65.7403 57.6175 65.7625 57.7229 65.7804L58.0366 65.8257C58.8821 65.9472 59.7369 65.943 60.5815 65.8131C61.0176 65.7422 61.4447 65.6069 61.8531 65.4102C62.0671 65.3065 62.2713 65.1757 62.4621 65.0199C62.5609 64.9408 62.6548 64.8534 62.7433 64.7584C62.8197 64.6719 62.898 64.5865 62.9726 64.4979C63.5955 63.7959 64.1389 62.9988 64.5887 62.1269C64.701 61.903 64.8028 61.6716 64.8936 61.434C64.9842 61.1959 65.0634 60.9519 65.1309 60.7031C65.2539 60.2633 65.3549 59.8182 65.4446 59.372L65.6898 59.4944C66.0961 60.6964 66.4042 61.9429 66.6098 63.2164C66.8219 64.5006 66.9704 65.7988 67.0545 67.1041C67.2131 69.7256 67.2078 72.3578 67.0387 74.9784C66.8681 77.5998 66.5641 80.2063 66.1283 82.7831C65.9077 84.0699 65.6634 85.3513 65.3594 86.6127C65.2065 87.2456 65.05 87.8721 64.876 88.4943C64.702 89.1166 64.5114 89.7231 64.3145 90.3316C63.1885 90.4842 62.0608 90.6083 60.9313 90.7039L60.9322 90.7039ZM75.2067 90.7482C75.5206 91.4602 75.8805 92.1415 76.2832 92.7859C77.0854 94.0724 78.0034 95.2488 79.0205 96.2938C79.2841 96.5448 79.5407 96.799 79.8052 97.0447C80.0698 97.2905 80.3457 97.5194 80.6225 97.7451C80.8993 97.9708 81.1831 98.1859 81.4705 98.3916L81.9099 98.6901L81.9336 98.7069C81.6524 98.7491 81.373 98.8008 81.0909 98.8335L80.1383 98.9052C79.8202 98.9189 79.5021 98.9052 79.184 98.9052C77.911 98.8644 76.6462 98.6489 75.4141 98.2629C74.1837 97.8715 72.9977 97.3012 71.8824 96.5649C70.764 95.8367 69.7299 94.9357 68.8067 93.8849C68.0298 92.9932 67.3294 92.0103 66.7162 90.9507L67.2021 90.8452C67.6982 91.5611 68.2333 92.2365 68.8041 92.8671C69.3867 93.5115 70.003 94.1104 70.6495 94.6601C71.2946 95.2057 71.9657 95.7057 72.6592 96.1578C73.3498 96.6114 74.0723 96.9915 74.8183 97.2937C74.1285 96.8422 73.443 96.3961 72.7805 95.9046C72.1161 95.4199 71.4759 94.8892 70.863 94.3152C70.2518 93.7431 69.6682 93.1297 69.1152 92.4779C68.6456 91.921 68.1998 91.3359 67.7794 90.725L68.3735 90.5984C70.4588 90.0996 72.53 89.5132 74.5696 88.7981C74.6988 89.5026 74.9431 90.1354 75.2058 90.7503L75.2067 90.7482ZM75.342 87.8647C72.9949 88.5966 70.6266 89.2157 68.2382 89.6882C67.1344 89.9066 66.0272 90.0911 64.9165 90.2504C65.8374 87.9385 66.4631 85.4789 66.9446 82.9962C67.437 80.3819 67.7555 77.7249 67.8972 75.0501C68.044 72.3796 68.0563 69.6891 67.8164 67.0175C67.7058 65.6783 67.5203 64.3495 67.261 63.0402C67.0445 61.9458 66.752 60.8751 66.3866 59.8393C70.1922 61.7608 73.9143 63.912 77.5389 66.2845C78.02 68.0375 78.3227 69.8539 78.4406 71.6941C78.4766 72.2362 78.4977 72.7793 78.5073 73.3236C78.2771 73.2297 78.0486 73.1358 77.8184 73.0441C77.0644 72.7435 76.3078 72.4555 75.5415 72.1919C75.1584 72.06 74.7735 71.9345 74.3781 71.8259C74.1755 71.7675 73.9701 71.7253 73.7629 71.6993C73.5545 71.6678 73.3447 71.6506 73.1346 71.6476C72.2945 71.6571 71.4351 71.8997 70.7066 72.4724C70.336 72.7581 70.0137 73.1252 69.7567 73.5545C69.2198 74.4508 69.0662 75.5981 69.3419 76.6511C69.474 77.1628 69.686 77.6395 69.9667 78.056C70.2402 78.4669 70.5665 78.823 70.9333 79.1107C71.2973 79.3929 71.6894 79.6193 72.1003 79.7846C72.306 79.862 72.5152 79.9254 72.7269 79.9745C72.9348 80.026 73.1452 80.0612 73.3569 80.0799C73.7656 80.1242 74.1654 80.1453 74.5661 80.1612C75.3664 80.1928 76.1637 80.1988 76.9581 80.1791C77.278 80.1728 77.5978 80.1612 77.9168 80.1496C77.408 82.8708 76.5384 85.4764 75.3412 87.8668L75.342 87.8647ZM79.0056 86.3111C78.2797 86.2541 77.43 86.1729 76.7507 86.0379C77.5027 84.1535 78.0721 82.1718 78.4476 80.1316C79.3216 80.0894 80.1951 80.0226 81.068 79.9312C80.6247 82.1611 79.9305 84.3081 79.0047 86.3132L79.0056 86.3111ZM89.5718 85.9377C88.739 86.2547 87.8931 86.5194 87.0374 86.7309C86.6181 86.8362 86.1937 86.9094 85.7667 86.9502C85.5621 86.97 85.3568 86.9763 85.1516 86.9692L84.8546 86.9397L84.5453 86.8817C82.9784 86.54 81.5364 85.4557 80.5373 83.9106C80.9851 82.6026 81.3437 81.2531 81.6093 79.8753C81.648 79.8701 81.6875 79.8669 81.7271 79.8627C82.518 79.7656 83.3089 79.6517 84.1077 79.4862C84.5057 79.4028 84.8985 79.309 85.3036 79.175C85.5116 79.1073 85.7153 79.0224 85.9135 78.9208C86.0266 78.8614 86.1344 78.7883 86.2351 78.7025C86.3006 78.647 86.3597 78.5814 86.4109 78.5074C86.5605 78.302 86.5949 78.01 86.4987 77.7628C86.4679 77.6758 86.4274 77.5942 86.3784 77.5202C86.3016 77.4039 86.2147 77.2979 86.1191 77.2038C85.9524 77.0422 85.7762 76.8952 85.5919 76.764C85.2404 76.5077 84.8766 76.2904 84.5136 76.0826C83.7869 75.6713 83.0479 75.3127 82.3071 74.9647L82.1586 74.8972C82.1925 73.7957 82.1693 72.6929 82.0891 71.5949L82.2148 71.8059C82.9064 71.2166 83.6864 70.7933 84.5119 70.5592C85.3357 70.3251 86.1906 70.2957 87.0242 70.4727C87.2269 70.5226 87.4266 70.5888 87.6218 70.671C87.8178 70.7659 88.0164 70.8514 88.2088 70.9663C88.5998 71.1855 88.9811 71.4288 89.3512 71.6951C90.0955 72.2298 90.8117 72.83 91.5129 73.4554C92.919 74.7094 94.2555 76.07 95.5649 77.4706C96.7793 78.7735 97.9657 80.113 99.1239 81.489C97.6124 82.28 96.0892 83.044 94.5543 83.7809C92.9084 84.5645 91.2511 85.3155 89.5709 85.9398L89.5718 85.9377Z" id="Shape" fill="#FFFFFF" fill-rule="evenodd" stroke="none" />
          <path d="M50.105 49.5971C49.5887 49.2897 49.1039 48.9114 48.6603 48.4696C48.5888 48.3923 48.4909 48.3605 48.3967 48.3842C48.2844 48.4164 48.1912 48.5102 48.1454 48.6373C47.8861 49.2578 47.6975 49.9173 47.5847 50.598C47.5501 50.776 47.5935 50.9629 47.6998 51.0937C48.1102 51.5567 48.9521 52.1358 49.2298 52.3256C49.2754 52.3575 49.3272 52.3743 49.38 52.3741C49.4185 52.3741 49.4566 52.3655 49.4925 52.3488C49.6038 52.2904 49.6865 52.1737 49.7166 52.0324C49.8572 51.485 50.0198 50.9925 50.192 50.4704L50.2658 50.2479C50.3528 50 50.2772 49.7057 50.105 49.5971L50.105 49.5971ZM49.9477 50.0981L49.8739 50.3196C49.6981 50.8469 49.5347 51.35 49.3897 51.9122C49.387 51.9253 49.3825 51.9377 49.3765 51.9491C49.0865 51.7498 48.3062 51.2108 47.9362 50.7889C47.9182 50.7539 47.9132 50.7115 47.9222 50.6719C48.0301 50.0253 48.2095 49.3989 48.4556 48.8093L48.46 48.7998C48.9152 49.2511 49.4124 49.638 49.9415 49.9525C49.9625 49.9972 49.9648 50.0511 49.9477 50.0981L49.9477 50.0981Z" id="Shape" fill="#FFFFFF" fill-rule="evenodd" stroke="none" />
          <path d="M96.2688 80.4364C95.8294 79.8036 95.3768 79.1771 94.897 78.5844C94.4172 77.9917 93.9225 77.4147 93.3944 76.8874C92.8713 76.347 92.3159 75.8535 91.7326 75.4108C91.1539 74.9642 90.5275 74.6137 89.8705 74.3688C90.4943 74.6964 91.0841 75.1101 91.6281 75.6017C92.1716 76.0866 92.6899 76.6111 93.1799 77.1721C93.6703 77.7333 94.1466 78.3144 94.5939 78.9219C94.9758 79.4373 95.3464 79.9646 95.7055 80.5039C94.68 81.064 93.6422 81.5882 92.5885 82.0638C91.4462 82.5912 90.2774 83.0553 89.1016 83.4824C88.5129 83.6933 87.9258 83.8916 87.3318 84.0382C86.7402 84.1882 86.1368 84.261 85.5321 84.2555C84.9267 84.2436 84.3276 84.1059 83.7614 83.8484C83.1868 83.5904 82.6722 83.1708 82.2605 82.6249C82.6282 83.2366 83.1208 83.7244 83.6911 84.0414C84.2637 84.3666 84.8818 84.5612 85.5137 84.6152C86.1435 84.6692 86.7765 84.6309 87.3986 84.5012C88.0141 84.3773 88.6235 84.2125 89.2238 84.0076C90.4224 83.6227 91.6035 83.1639 92.7661 82.6365C93.9286 82.1092 95.0702 81.5238 96.1844 80.8689L96.4577 80.7085L96.2688 80.4364Z" id="Shape" fill="#FFFFFF" fill-rule="evenodd" stroke="none" />
          <path d="M54.5084 89.5269C51.6363 89.3941 48.7718 89.0829 45.9264 88.5945C45.2156 88.4722 44.5117 88.3277 43.7999 88.1821C43.0881 88.0366 42.3816 87.8889 41.6733 87.7339C40.2568 87.4175 38.8411 87.1074 37.4324 86.753C34.6107 86.0632 31.8084 85.2627 29.0051 84.419C31.7223 85.611 34.4951 86.6118 37.3094 87.4164C38.7154 87.8183 40.1302 88.1906 41.5512 88.5165C42.9721 88.8424 44.3913 89.163 45.8316 89.3971C47.2719 89.6313 48.7095 89.819 50.156 89.9435C50.8783 90.0046 51.6024 90.0553 52.3256 90.0901C53.0488 90.1249 53.7747 90.1354 54.4997 90.1375C55.2246 90.1396 55.9487 90.1249 56.6728 90.0848C57.3969 90.0447 58.1201 89.9941 58.8416 89.9076C60.2819 89.7389 61.7213 89.4783 63.115 89.0164C61.6946 89.3052 60.2596 89.4779 58.8197 89.5332C57.3829 89.6007 55.9452 89.5849 54.5084 89.5269L54.5084 89.5269Z" id="Shape" fill="#FFFFFF" fill-rule="evenodd" stroke="none" />
          <path d="M22.2159 69.2008C22.1787 70.0964 22.3019 70.9911 22.577 71.8248C22.7118 72.2472 22.8801 72.653 23.0797 73.0367C23.2818 73.4205 23.5121 73.7819 23.7677 74.1167C24.285 74.7796 24.9038 75.3167 25.5903 75.6987C26.2642 76.0862 26.9996 76.2952 27.7468 76.3115C27.0584 76.0612 26.3976 75.7128 25.7783 75.2737C25.175 74.8399 24.6249 74.3074 24.1439 73.6916C23.9032 73.3862 23.6828 73.0586 23.4848 72.7118C23.2832 72.3657 23.102 72.003 22.9426 71.6266C22.6199 70.856 22.3759 70.0415 22.2159 69.2007L22.2159 69.2008Z" id="Shape" fill="#FFFFFF" fill-rule="evenodd" stroke="none" />
        </g>
      </g>
    </g>
  </g>
</svg>