<?xml version="1.0" encoding="utf-8"?>
<svg width="512px" height="512px" viewBox="0 0 512 512" version="1.1" xmlns:xlink="http://www.w3.org/1999/xlink" xmlns="http://www.w3.org/2000/svg">
  <defs>
    <path d="M0 0L512 0L512 512L0 512L0 0Z" id="path_1" />
    <clipPath id="mask_1">
      <use xlink:href="#path_1" />
    </clipPath>
  </defs>
  <g id="audio">
    <path d="M0 0L512 0L512 512L0 512L0 0Z" id="Background" fill="#FFFFFF" fill-opacity="0" fill-rule="evenodd" stroke="none" />
    <g clip-path="url(#mask_1)">
      <g id="Group">
        <path d="M31.628 257.94C31.628 191.817 60.636 131.579 106.545 89.9C106.09 89.508 105.639 89.11 105.208 88.679L83.442 66.915C80.572 69.533 77.746 72.215 74.98 74.981C26.629 123.332 0 187.619 0 255.999L0 340.773L4.474 346.141L31.628 346.141L31.628 257.94Z" id="Shape" fill="#FFECDB" stroke="none" />
        <path d="M16.454 255.999C16.454 187.619 43.082 123.332 91.434 74.98C91.447 74.968 91.459 74.956 91.471 74.944L83.442 66.915C80.572 69.533 77.746 72.215 74.98 74.981C26.629 123.332 7.62939e-06 187.619 7.62939e-06 255.999L7.62939e-06 340.773L4.47401 346.141L20.928 346.141L16.454 340.773L16.454 255.999Z" id="Shape" fill="#FFB5B5" stroke="none" />
        <path d="M437.02 74.981C434.254 72.215 431.428 69.533 428.558 66.915L406.793 88.68C406.558 88.914 406.307 89.122 406.065 89.345C451.66 130.442 480.373 189.928 480.373 255.999L480.373 346.142L505.405 346.142L512.001 340.774L512.001 256C512 187.619 485.372 123.332 437.02 74.981L437.02 74.981Z" id="Shape" fill="#FFECDB" stroke="none" />
        <path d="M437.02 74.981C434.254 72.215 431.428 69.533 428.558 66.915L406.793 88.68C406.558 88.914 406.307 89.122 406.065 89.345C451.66 130.442 480.373 189.928 480.373 255.999L480.373 346.142L505.405 346.142L512.001 340.774L512.001 256C512 187.619 485.372 123.332 437.02 74.981L437.02 74.981Z" id="Shape" fill="#FFECDB" stroke="none" />
        <path d="M497.384 346.142L497.384 255.999C497.384 192.771 471.089 135.573 428.867 94.75C425.751 91.737 425.748 86.74 428.812 83.675C430.786 81.701 433.507 78.978 437.259 75.225C437.178 75.144 437.101 75.061 437.02 74.98C434.254 72.214 431.428 69.532 428.558 66.914L406.793 88.68C406.558 88.914 406.307 89.122 406.065 89.345C451.66 130.442 480.373 189.928 480.373 255.999L480.373 346.142L497.384 346.142Z" id="Shape" fill="#FFB5B5" stroke="none" />
        <path d="M480.372 340.773L476.044 344.081L476.044 402.974L480.372 407.736C497.84 407.736 512 393.576 512 376.108L512 340.774L480.372 340.774L480.372 340.773Z" id="Shape" fill="#FF0000" stroke="none" />
        <path d="M497.384 340.773L480.372 340.773L476.044 344.081L476.044 402.974L480.372 407.736C486.636 407.736 492.47 405.907 497.384 402.765L497.384 340.773Z" id="Shape" fill="#F16451" stroke="none" />
        <path d="M31.628 340.773L0 340.773L0 376.107C0 393.575 14.16 407.735 31.628 407.735L38.385 403.66L38.385 346.141L31.628 340.773Z" id="Shape" fill="#F16451" stroke="none" />
        <path d="M16.454 376.108L16.454 340.774L0 340.774L0 376.108C0 393.576 14.16 407.736 31.628 407.736L35.758 405.245C24.413 400.44 16.454 389.204 16.454 376.108L16.454 376.108Z" id="Shape" fill="#D9AF6B" stroke="none" />
        <path d="M256 0C191.531 0 130.705 23.679 83.436 66.908L105.207 88.679C113.607 97.079 126.852 98.069 136.461 91.084C170.061 66.658 211.375 52.231 256 52.231C300.625 52.231 341.938 66.658 375.539 91.084C385.148 98.069 398.393 97.079 406.793 88.679L428.564 66.908C381.295 23.679 320.469 7.62939e-06 256 7.62939e-06L256 0Z" id="Shape" fill="#E86400" stroke="none" />
        <g id="Group" transform="translate(83.436005 3.5762787E-07)">
          <path d="M73.432 52.558C110.458 24.144 154.204 6.595 200.711 1.534C191.427 0.525 182.037 0 172.564 0C108.095 0 47.269 23.679 0 66.909L21.771 88.68C30.171 97.08 43.416 98.07 53.025 91.085C58.421 87.162 64.019 83.501 69.795 80.112C63.315 71.634 64.71 59.252 73.432 52.558L73.432 52.558Z" id="Shape" fill="#FF8500" stroke="none" />
        </g>
        <path d="M458.322 300.288L442.273 300.288L436.381 310.085L436.381 484.702L442.273 490.907L458.322 490.907C470.449 490.907 480.372 480.985 480.372 468.857L480.372 322.338C480.372 310.21 470.45 300.288 458.322 300.288L458.322 300.288Z" id="Shape" fill="#D9AF6B" stroke="none" />
        <path d="M69.727 300.288L53.678 300.288C41.551 300.288 31.628 310.21 31.628 322.338L31.628 468.857C31.628 480.985 41.55 490.907 53.678 490.907L69.727 490.907L78.22 485.475L78.22 308.54L69.727 300.288Z" id="Shape" fill="#D9AF6B" stroke="none" />
        <path d="M464.313 301.142C462.404 300.599 460.399 300.288 458.323 300.288L442.274 300.288L436.382 310.085L436.382 484.702L442.274 490.907L458.323 490.907C460.4 490.907 462.405 490.596 464.313 490.053L464.313 301.142Z" id="Shape" fill="#D2BE4D" stroke="none" />
        <path d="M54.924 468.857L54.924 322.338C54.924 312.394 61.598 303.944 70.685 301.219L69.727 300.288L53.678 300.288C41.551 300.288 31.628 310.21 31.628 322.338L31.628 468.857C31.628 480.985 41.55 490.907 53.678 490.907L69.727 490.907L71.039 490.067C61.774 487.457 54.924 478.928 54.924 468.857L54.924 468.857Z" id="Shape" fill="#D2BE4D" stroke="none" />
        <path d="M366.021 279.195L427.189 279.195C435.486 279.195 442.274 285.983 442.274 294.28L442.274 496.915C442.274 505.212 435.486 512 427.189 512L366.021 512C357.724 512 350.936 505.212 350.936 496.915L350.936 294.28C350.936 285.984 357.724 279.195 366.021 279.195L366.021 279.195Z" id="Shape" fill="#E86400" stroke="none" />
        <path d="M145.979 279.195L84.811 279.195C76.514 279.195 69.726 285.983 69.726 294.28L69.726 496.915C69.726 505.212 76.514 512 84.811 512L145.979 512C154.276 512 161.064 505.212 161.064 496.915L161.064 294.28C161.065 285.984 154.276 279.195 145.979 279.195L145.979 279.195Z" id="Shape" fill="#E86400" stroke="none" />
        <g id="Group" transform="translate(69.726 279.19498)">
          <path d="M319.164 217.721L319.164 15.085C319.164 6.78799 325.952 0 334.249 0L296.295 0C287.998 0 281.21 6.789 281.21 15.085L281.21 217.72C281.21 226.017 287.998 232.805 296.295 232.805L334.249 232.805C325.952 232.805 319.164 226.017 319.164 217.721L319.164 217.721Z" id="Shape" fill="#FF8500" stroke="none" />
          <path d="M37.955 217.721L37.955 15.085C37.955 6.78799 44.743 0 53.04 0L15.085 0C6.788 0 0 6.789 0 15.085L0 217.72C0 226.017 6.788 232.805 15.085 232.805L53.039 232.805C44.743 232.805 37.955 226.017 37.955 217.721L37.955 217.721Z" id="Shape" fill="#FF8500" stroke="none" />
        </g>
      </g>
    </g>
  </g>
</svg>