<svg id="Layer_1" enable-background="new 0 0 512 512" height="512" viewBox="0 0 512 512" width="512" xmlns="http://www.w3.org/2000/svg" xmlns:xlink="http://www.w3.org/1999/xlink"><linearGradient id="SVGID_1_" gradientTransform="matrix(1 0 0 -1 0 512)" gradientUnits="userSpaceOnUse" x1="17.414" x2="502.348" y1="17.407" y2="502.342"><stop offset="0" stop-color="#ed325d"/><stop offset=".1154" stop-color="#ee3f5c"/><stop offset=".3294" stop-color="#f0625b"/><stop offset=".6185" stop-color="#f39958"/><stop offset=".9683" stop-color="#f7e654"/><stop offset="1" stop-color="#f7ed54"/></linearGradient><g id="_x32_5_Rocket"><path d="m144.886 410.011 17.646 17.646c-2.887 6.917-7.134 13.398-12.799 19.009-14.488 14.488-70.095 37.417-110.016 52.666-16.938 6.482-33.55-10.13-27.068-27.069 15.249-39.921 38.179-95.529 52.666-110.016 5.664-5.61 12.091-9.858 19.007-12.745l17.646 17.592c-2.233 2.832-4.411 5.719-6.535 8.551-37.199 49.562-39.54 63.069-30.772 71.783 1.852 1.852 5.119 4.085 10.349 4.085 13.07 0 43.025-20.697 69.876-41.502zm-41.665-124.34c11.873-38.669 35.456-82.185 67.916-125.375l-65.738-1.743c-18.082-.436-35.565 6.536-48.364 19.28l-51.195 51.251c-10.784 10.784-5.828 29.192 8.878 33.114zm122.161 119.384 24.454 92.206c3.921 14.76 22.329 19.716 33.114 8.932l51.196-51.196c12.799-12.799 19.77-30.282 19.281-48.364l-1.852-70.912c-43.408 32.953-87.196 57.079-126.193 69.334zm251.846-405.004c-31.411 1.718-80.471 8.394-131.698 30.47l135.941 135.94c22.071-51.237 28.736-100.31 30.447-131.727 1.068-19.609-15.082-35.756-34.69-34.683zm-385.499 322.764c-5.174 5.174-5.174 13.507 0 18.681l16.938 16.938c5.828-7.353 11.547-14.433 16.612-20.696l-14.923-14.923c-5.313-5.203-13.526-5.1-18.627 0zm82.294 63.668c-6.1 5.119-13.071 10.893-20.533 16.775l17.047 17.047c5.119 5.119 13.507 5.119 18.627 0 5.174-5.174 5.174-13.507 0-18.681zm-101.687 53.26c10.002 10.002 104.575-68.347 116.101-79.874 11.617-11.617 30.193-46.416 20.19-56.418-10.081-10.081-44.88 8.495-56.497 20.112-11.526 11.526-89.875 106.099-79.794 116.18zm262.572-404.44 141.823 141.822c-52.337 110.995-193.943 206.744-276.402 221.177-2.145-3.659-3.878-4.578-17.918-18.844 8.278-7.026 13.562-11.71 13.725-11.873 14.186-14.186 36.737-55.193 20.205-71.838-16.57-16.573-56.707 4.913-71.891 20.097-2.342 2.342-6.59 7.134-12.091 13.562-13.968-13.701-15.022-15.512-18.627-17.701 14.456-82.593 110.637-224.476 221.176-276.402zm33.931 107.892c-23.909-23.909-62.687-23.964-86.596 0-23.909 23.909-23.909 62.687 0 86.597 23.909 23.909 62.687 23.909 86.596 0 23.909-23.964 23.909-62.688 0-86.597z" fill="url(#SVGID_1_)"/></g></svg>