<?xml version="1.0" encoding="utf-8"?>
<svg width="40px" height="40px" viewBox="0 0 40 40" version="1.1" xmlns:xlink="http://www.w3.org/1999/xlink" xmlns="http://www.w3.org/2000/svg">
  <defs>
    <path d="M0 0L40 0L40 40L0 40L0 0Z" id="path_1" />
    <clipPath id="mask_1">
      <use xlink:href="#path_1" />
    </clipPath>
  </defs>
  <g id="astronaut-ingravity">
    <path d="M0 0L40 0L40 40L0 40L0 0Z" id="Background" fill="#FFFFFF" fill-opacity="0" fill-rule="evenodd" stroke="none" />
    <g clip-path="url(#mask_1)">
      <g id="Group" transform="translate(0 6.1280975)">
        <path d="M14.2516 5.39376C14.3008 5.54633 14.341 5.70323 14.3709 5.85991C14.4096 6.06221 14.5867 6.20296 14.7853 6.20296C14.8117 6.20296 14.8384 6.20053 14.8652 6.19535C15.0943 6.15154 15.2444 5.93023 15.2006 5.70111C15.1641 5.51054 15.1153 5.31996 15.0556 5.13455C14.9841 4.91261 14.7464 4.79045 14.524 4.86225C14.3019 4.93384 14.1799 5.17182 14.2516 5.39376L14.2516 5.39376Z" id="Shape" fill="#000000" stroke="none" />
        <path d="M9.94814 2.1347C9.94771 2.36794 10.1365 2.55735 10.3697 2.55778C11.5892 2.55989 12.7836 3.14366 13.5648 4.11958C13.6482 4.22368 13.7709 4.27795 13.8949 4.27795C13.9874 4.27795 14.0806 4.24765 14.1585 4.18536C14.3406 4.03954 14.37 3.77379 14.2243 3.59166C13.2847 2.41788 11.8442 1.71553 10.3712 1.7131C10.3709 1.7131 10.3707 1.7131 10.3705 1.7131C10.1376 1.7131 9.94856 1.90168 9.94814 2.1347L9.94814 2.1347Z" id="Shape" fill="#000000" stroke="none" />
        <path d="M11.7785 16.3811L9.88088 16.3811C9.64764 16.3811 9.45854 16.5702 9.45854 16.8034C9.45854 17.0366 9.64764 17.2257 9.88088 17.2257L11.7785 17.2257C12.0118 17.2257 12.2009 17.0366 12.2009 16.8034C12.2009 16.5702 12.0118 16.3811 11.7785 16.3811L11.7785 16.3811Z" id="Shape" fill="#000000" stroke="none" />
        <path d="M39.8763 19.5143L38.5811 18.219C37.7522 17.3901 36.4606 17.2998 35.5307 17.9468L34.6845 17.1006C34.8118 17.1175 34.8977 17.1287 34.9022 17.1287C34.9939 17.1287 35.0838 17.0988 35.1577 17.0427C35.2469 16.9749 35.3054 16.8744 35.3206 16.7635L36.3713 9.06397C36.4029 8.83295 36.2412 8.61999 36.0101 8.58842L34.1945 8.34009C33.033 8.1816 31.9502 8.89208 31.6012 9.96988L27.5024 9.41081C27.2122 9.37111 26.9226 9.35961 26.6362 9.37375L26.6362 7.50671C26.6362 6.61738 26.29 5.78231 25.6621 5.15578C25.0359 4.52808 24.2012 4.18229 23.3118 4.18229C22.4239 4.18229 21.5892 4.52808 20.9613 5.1562C20.3335 5.78432 19.988 6.61917 19.9888 7.50671L19.9888 9.76135L18.3552 9.76135L16.68 8.08605C16.8024 7.58706 16.8687 7.06621 16.8687 6.52995C16.8687 2.92932 13.9394 0 10.3388 0C7.05777 0 4.33528 2.43266 3.87757 5.58878L0.869484 8.59687C0.308833 9.15752 0 9.90305 0 10.6961C0 11.489 0.308833 12.2346 0.869591 12.7953L7.69043 19.6161L7.69043 20.3229C7.69043 22.8841 9.77402 24.9677 12.3351 24.9677L12.9982 24.9677L13.3318 25.301C14.9604 26.9296 17.0989 27.7437 19.2382 27.7437C21.377 27.7437 23.5165 26.9292 25.1446 25.301L29.3213 21.1395L33.7843 25.6063C33.8667 25.6887 33.9748 25.73 34.0829 25.73C34.1909 25.73 34.2991 25.6887 34.3815 25.6063L39.8763 20.1114C40.0412 19.9466 40.0412 19.6791 39.8763 19.5143L39.8763 19.5143ZM29.7437 20.3674L29.7437 17.1704C30.4066 17.0807 31.0464 16.7821 31.5546 16.2737C31.7436 16.0848 31.9049 15.8756 32.0391 15.6498L33.8649 17.4755L30.3584 20.9821L29.7437 20.3674L29.7437 20.3674ZM24.8264 16.2324L22.9875 14.3935L23.1097 13.4996C23.1102 13.4956 23.111 13.492 23.1116 13.4882C23.3582 13.6089 23.6201 13.6976 23.8956 13.7518C24.1014 13.7922 24.3079 13.8122 24.513 13.8122C25.0061 13.8122 25.4898 13.6948 25.9324 13.4704L26.6956 14.4745C26.4624 14.6351 26.2415 14.8172 26.0371 15.0218L24.8264 16.2324L24.8264 16.2324ZM26.7894 10.2135C26.8439 10.5046 26.8427 10.7995 26.7852 11.0921C26.6656 11.7008 26.3161 12.2264 25.801 12.5723C25.286 12.9182 24.6674 13.043 24.0585 12.9231C23.7975 12.8718 23.553 12.7787 23.3287 12.6467C23.5789 11.9936 24.0053 11.421 24.5757 10.9873C25.2228 10.4954 25.9922 10.2295 26.7894 10.2135L26.7894 10.2135ZM29.3213 13.6612C28.6624 13.6612 28.025 13.7988 27.44 14.0581L26.6308 12.9935C27.1365 12.5382 27.4805 11.9347 27.614 11.2552C27.6776 10.9319 27.6897 10.6067 27.6529 10.2839L29.9889 10.6025L29.5715 13.6684C29.4885 13.6638 29.4052 13.6612 29.3213 13.6612L29.3213 13.6612ZM29.3213 14.5059C30.0608 14.5059 30.7676 14.7166 31.3746 15.1081C31.2656 15.3169 31.1264 15.5074 30.9575 15.6764C30.052 16.5818 28.5787 16.5819 27.6732 15.6764C27.505 15.5082 27.3669 15.3195 27.2589 15.1139C27.868 14.7186 28.5781 14.5059 29.3213 14.5059L29.3213 14.5059ZM34.541 16.2307L33.873 16.1394L34.8101 9.27682L35.4774 9.36805L34.541 16.2307L34.541 16.2307ZM31.8685 10.8588C32.1007 10.8891 32.3125 10.7285 32.344 10.4974C32.454 9.69113 33.1723 9.11623 33.9725 9.16797L33.1048 15.521L32.6055 15.0217C31.9904 14.4065 31.2329 13.986 30.4076 13.7891L30.8259 10.7165L31.8685 10.8588L31.8685 10.8588ZM24.0646 10.3148C23.52 10.7288 23.0829 11.2466 22.7715 11.8335L20.8335 9.89554C20.8335 9.89554 20.8346 7.4404 20.8359 7.40756L25.7891 7.40756C25.7904 7.44061 25.7916 9.49496 25.7916 9.49496C25.1732 9.64299 24.5862 9.91835 24.0646 10.3148L24.0646 10.3148ZM23.3119 5.02707C23.9753 5.02707 24.5976 5.28459 25.0649 5.75317C25.3009 5.98852 25.4834 6.26346 25.6065 6.5629L21.0183 6.5629C21.1412 6.26378 21.3233 5.98905 21.5589 5.75338C22.0271 5.28501 22.6497 5.02707 23.3119 5.02707L23.3119 5.02707ZM20.3495 10.606C20.3495 10.606 22.4068 12.6589 22.4275 12.6732C22.3585 12.9043 22.3061 13.1419 22.273 13.3854L22.2377 13.6438L19.2 10.6061L20.3495 10.6061L20.3495 10.606ZM24.2292 16.8297L22.9289 18.13L15.4218 10.623C15.8186 10.1313 16.1452 9.58123 16.3873 8.98764L24.2292 16.8297L24.2292 16.8297ZM16.0243 6.52995C16.0243 6.72654 16.0143 6.92082 15.9946 7.11235C14.6094 8.45844 12.7385 9.02743 11.1254 8.60921C11.0945 8.07971 10.876 7.58568 10.4977 7.20758C10.089 6.79876 9.54554 6.57366 8.96758 6.57366C8.87487 6.57366 8.78344 6.58158 8.69295 6.59298C7.8978 4.86816 8.42044 2.61943 10.0241 1.01592C10.0834 0.956586 10.1416 0.901365 10.199 0.848362C10.2457 0.847201 10.2921 0.844772 10.3391 0.844772C13.4738 0.844772 16.0243 3.39516 16.0243 6.52995L16.0243 6.52995ZM8.96757 7.41833C9.31991 7.41833 9.65133 7.55559 9.90051 7.80477C10.1497 8.05395 10.2869 8.38538 10.2869 8.73782C10.2869 9.09026 10.1497 9.42158 9.90051 9.67076C9.65133 9.91994 9.31991 10.0572 8.96757 10.0572C8.61513 10.0572 8.2837 9.91994 8.03452 9.67066C7.78535 9.42158 7.64809 9.09026 7.64809 8.73782C7.64809 8.38538 7.78535 8.05395 8.03452 7.80477C8.2837 7.55559 8.61513 7.41833 8.96757 7.41833L8.96757 7.41833ZM8.87898 1.03568C7.48707 2.79914 7.09609 5.05188 7.88797 6.86391C7.72569 6.95778 7.57343 7.07149 7.43734 7.2077C7.02851 7.61641 6.80341 8.15996 6.80341 8.73793C6.80341 9.31589 7.02862 9.85944 7.43734 10.2681C7.84605 10.6769 8.38949 10.902 8.96757 10.902C9.54564 10.902 10.089 10.6769 10.4977 10.2682C10.732 10.0339 10.9036 9.75449 11.0095 9.45051C11.3973 9.54258 11.796 9.5884 12.1986 9.5884C13.392 9.5884 14.6183 9.19215 15.6888 8.45317C14.8988 10.6445 12.7992 12.2154 10.3391 12.2154C7.20421 12.2154 4.65372 9.66506 4.65372 6.53006C4.65361 3.89985 6.44939 1.68185 8.87898 1.03568L8.87898 1.03568ZM7.69043 14.2532L2.04907 8.61187L3.81687 6.84407C3.93692 9.36753 5.4966 11.5189 7.69032 12.4966L7.69032 14.2532L7.69043 14.2532ZM3.19846 13.9297L4.6855 12.4427L5.35153 13.1087L3.86448 14.5957L3.19846 13.9297L3.19846 13.9297ZM0.844666 10.6961C0.844666 10.1357 1.0609 9.6092 1.45262 9.20978L4.08831 11.8455L2.60127 13.3325L1.46687 12.1981C1.06565 11.7969 0.844666 11.2634 0.844666 10.6961L0.844666 10.6961ZM4.46167 15.1929L5.94872 13.7059L7.69043 15.4476L7.69043 18.4217L4.46167 15.1929L4.46167 15.1929ZM8.59338 20.9813C9.40818 20.609 10.3737 20.7726 11.0219 21.4207C11.706 22.1048 11.8421 23.1725 11.3851 24.0027C9.95605 23.6335 8.85133 22.4513 8.59338 20.9813L8.59338 20.9813ZM12.2663 24.1213C12.6633 23.1863 12.5618 22.1148 11.9865 21.2689L14.0913 19.164L16.5938 19.164C16.627 19.164 16.6598 19.1653 16.6927 19.1666L16.6927 24.1206C16.6599 24.1217 12.2893 24.1217 12.2663 24.1213L12.2663 24.1213ZM19.0733 21.6436C19.0733 22.6768 18.4379 23.564 17.5374 23.936L17.5374 19.3509C18.4378 19.723 19.0733 20.6103 19.0733 21.6436L19.0733 21.6436ZM24.5475 24.7038C21.7106 27.5403 17.1502 27.6284 14.2066 24.9677L16.5938 24.9677C18.4267 24.9677 19.9179 23.4765 19.9179 21.6436C19.9179 19.8106 18.4267 18.3194 16.5938 18.3194L14.3387 18.3194L14.3387 13.6357C14.3387 13.4024 14.1496 13.2133 13.9164 13.2133C13.6832 13.2133 13.4941 13.4024 13.4941 13.6357L13.4941 18.5669L11.4195 20.6414C10.6089 19.9623 9.51724 19.7669 8.5351 20.0974L8.5351 12.8046C9.10852 12.9696 9.7132 13.06 10.339 13.06C12.0874 13.06 13.6762 12.368 14.8494 11.2451L22.3316 18.7271L21.3083 19.7504C21.1433 19.9153 21.1433 20.1827 21.3083 20.3475C21.4732 20.5126 21.7408 20.5126 21.9055 20.3475L26.5958 15.6574C26.7287 15.8797 26.8885 16.0863 27.0758 16.2736C27.5873 16.7851 28.2318 17.084 28.899 17.1718L28.899 20.3674L24.5475 24.7038L24.5475 24.7038ZM30.9557 21.5792L34.4622 18.0727L35.2057 18.8162C35.3708 18.9813 35.6382 18.9813 35.8029 18.8162C36.3783 18.2411 37.2977 18.2178 37.9029 18.7431L33.0092 23.6367L30.9557 21.5792L30.9557 21.5792ZM34.0829 24.7104L33.6064 24.2339L38.504 19.3363L38.9804 19.8128L34.0829 24.7104L34.0829 24.7104Z" id="Shape" fill="#000000" fill-rule="evenodd" stroke="none" />
      </g>
    </g>
  </g>
</svg>