<?xml version="1.0" encoding="utf-8"?>
<svg width="40px" height="40px" viewBox="0 0 40 40" version="1.1" xmlns:xlink="http://www.w3.org/1999/xlink" xmlns="http://www.w3.org/2000/svg">
  <defs>
    <path d="M0 0L40 0L40 40L0 40L0 0Z" id="path_1" />
    <clipPath id="mask_1">
      <use xlink:href="#path_1" />
    </clipPath>
  </defs>
  <g id="film-strip">
    <path d="M0 0L40 0L40 40L0 40L0 0Z" id="Background" fill="#FFFFFF" fill-opacity="0" fill-rule="evenodd" stroke="none" />
    <g clip-path="url(#mask_1)">
      <g id="Group" transform="translate(2.4998932 0)">
        <path d="M32.5 0L32.5 2.50004C32.5 3.18998 31.9412 3.75007 31.25 3.75007L30 3.75007C29.3087 3.75007 28.7499 3.19012 28.7499 2.50005L28.7499 0L6.24997 0L6.24997 2.50004C6.24997 3.18998 5.69117 3.75007 4.99995 3.75007L3.74992 3.75007C3.05999 3.75007 2.4999 3.19012 2.4999 2.50005L2.4999 0L0 0L0 40L2.50004 40L2.50004 37.5C2.50004 36.81 3.05999 36.2499 3.75007 36.2499L5.00009 36.2499C5.69131 36.2499 6.25011 36.8099 6.25011 37.5L6.25011 40L28.7501 40L28.7501 37.5C28.7501 36.81 29.3089 36.2499 30.0001 36.2499L31.2501 36.2499C31.9413 36.2499 32.5002 36.8099 32.5002 37.5L32.5002 40L35.0002 40L35.0002 0L32.5 0L32.5 0ZM6.24996 32.5C6.24996 33.1912 5.69116 33.75 4.99994 33.75L3.74992 33.75C3.05998 33.75 2.49989 33.1912 2.49989 32.5L2.49989 30C2.49989 29.3087 3.05984 28.7499 3.74992 28.7499L4.99994 28.7499C5.69116 28.7499 6.24996 29.3087 6.24996 30L6.24996 32.5L6.24996 32.5ZM6.24996 25C6.24996 25.6912 5.69116 26.25 4.99994 26.25L3.74992 26.25C3.05998 26.25 2.49989 25.6912 2.49989 25L2.49989 22.5C2.49989 21.81 3.05984 21.2499 3.74992 21.2499L4.99994 21.2499C5.69116 21.2499 6.24996 21.8099 6.24996 22.5L6.24996 25L6.24996 25ZM6.24996 17.5C6.24996 18.1912 5.69116 18.75 4.99994 18.75L3.74992 18.75C3.05998 18.75 2.49989 18.1912 2.49989 17.5L2.49989 15C2.49989 14.31 3.05984 13.75 3.74992 13.75L4.99994 13.75C5.69116 13.75 6.24996 14.3099 6.24996 15L6.24996 17.5L6.24996 17.5ZM6.24996 10C6.24996 10.6912 5.69116 11.25 4.99994 11.25L3.74992 11.25C3.05998 11.25 2.49989 10.6912 2.49989 10L2.49989 7.49998C2.49989 6.81004 3.05984 6.24995 3.74992 6.24995L4.99994 6.24995C5.69116 6.24995 6.24996 6.8099 6.24996 7.49998L6.24996 10L6.24996 10ZM32.5 32.5C32.5 33.1912 31.9412 33.75 31.25 33.75L30 33.75C29.3087 33.75 28.7499 33.1912 28.7499 32.5L28.7499 30C28.7499 29.3087 29.3087 28.7499 30 28.7499L31.25 28.7499C31.9412 28.7499 32.5 29.3087 32.5 30L32.5 32.5L32.5 32.5ZM32.5 25C32.5 25.6912 31.9412 26.25 31.25 26.25L30 26.25C29.3087 26.25 28.7499 25.6912 28.7499 25L28.7499 22.5C28.7499 21.81 29.3087 21.2499 30 21.2499L31.25 21.2499C31.9412 21.2499 32.5 21.8099 32.5 22.5L32.5 25L32.5 25ZM32.5 17.5C32.5 18.1912 31.9412 18.75 31.25 18.75L30 18.75C29.3087 18.75 28.7499 18.1912 28.7499 17.5L28.7499 15C28.7499 14.31 29.3087 13.75 30 13.75L31.25 13.75C31.9412 13.75 32.5 14.3099 32.5 15L32.5 17.5L32.5 17.5ZM32.5 10C32.5 10.6912 31.9412 11.25 31.25 11.25L30 11.25C29.3087 11.25 28.7499 10.6912 28.7499 10L28.7499 7.49998C28.7499 6.81004 29.3087 6.24995 30 6.24995L31.25 6.24995C31.9412 6.24995 32.5 6.8099 32.5 7.49998L32.5 10L32.5 10Z" id="Shape" fill="#324D5B" fill-rule="evenodd" stroke="none" />
        <path d="M25 10.0013L10 10.0013C9.3101 10.0013 8.75002 10.5613 8.75002 11.2513L8.75002 28.7514C8.75002 29.4439 9.30996 30.0014 10 30.0014L25 30.0014C25.6912 30.0014 26.25 29.4439 26.25 28.7514L26.25 11.2501C26.25 10.5613 25.6912 10.0013 25 10.0013L25 10.0013ZM8.75002 0L8.75002 6.24997C8.75002 6.94119 9.30996 7.49999 10 7.49999L25 7.49999C25.6912 7.49999 26.25 6.94119 26.25 6.24997L26.25 0L8.75002 0L8.75002 0ZM25 32.5L10 32.5C9.3101 32.5 8.75002 33.06 8.75002 33.75L8.75002 40L26.25 40L26.25 33.75C26.25 33.0612 25.6912 32.5 25 32.5L25 32.5Z" id="Shape" fill="#5B717C" fill-rule="evenodd" stroke="none" />
      </g>
    </g>
  </g>
</svg>