<?xml version="1.0" encoding="utf-8"?>
<svg width="40px" height="40px" viewBox="0 0 40 40" version="1.1" xmlns:xlink="http://www.w3.org/1999/xlink" xmlns="http://www.w3.org/2000/svg">
  <defs>
    <linearGradient gradientUnits="userSpaceOnUse" x1="8488.032" y1="-216.27977" x2="8488.032" y2="19947.139" id="gradient_1">
      <stop offset="0%" stop-color="#00EFD1" />
      <stop offset="100%" stop-color="#00ACEA" />
    </linearGradient>
    <linearGradient gradientUnits="userSpaceOnUse" x1="285.76907" y1="-29.737242" x2="285.76907" y2="2742.6184" id="gradient_2">
      <stop offset="0%" stop-color="#00EFD1" />
      <stop offset="100%" stop-color="#00ACEA" />
    </linearGradient>
    <linearGradient gradientUnits="userSpaceOnUse" x1="250.58937" y1="-53.447144" x2="250.58937" y2="4929.3447" id="gradient_3">
      <stop offset="0%" stop-color="#00EFD1" />
      <stop offset="100%" stop-color="#00ACEA" />
    </linearGradient>
    <linearGradient gradientUnits="userSpaceOnUse" x1="215.40967" y1="-75.62525" x2="215.40967" y2="6974.7964" id="gradient_4">
      <stop offset="0%" stop-color="#00EFD1" />
      <stop offset="100%" stop-color="#00ACEA" />
    </linearGradient>
    <linearGradient gradientUnits="userSpaceOnUse" x1="180.22997" y1="-53.447144" x2="180.22997" y2="4929.3447" id="gradient_5">
      <stop offset="0%" stop-color="#00EFD1" />
      <stop offset="100%" stop-color="#00ACEA" />
    </linearGradient>
    <linearGradient gradientUnits="userSpaceOnUse" x1="143.69722" y1="-31.267263" x2="143.69722" y2="2883.7297" id="gradient_6">
      <stop offset="0%" stop-color="#00EFD1" />
      <stop offset="100%" stop-color="#00ACEA" />
    </linearGradient>
    <linearGradient gradientUnits="userSpaceOnUse" x1="391.3082" y1="-75.62525" x2="391.3082" y2="6974.7964" id="gradient_7">
      <stop offset="0%" stop-color="#00EFD1" />
      <stop offset="100%" stop-color="#00ACEA" />
    </linearGradient>
    <linearGradient gradientUnits="userSpaceOnUse" x1="356.1285" y1="-53.447144" x2="356.1285" y2="4929.3447" id="gradient_8">
      <stop offset="0%" stop-color="#00EFD1" />
      <stop offset="100%" stop-color="#00ACEA" />
    </linearGradient>
    <linearGradient gradientUnits="userSpaceOnUse" x1="320.9488" y1="-41.463802" x2="320.9488" y2="3824.1401" id="gradient_9">
      <stop offset="0%" stop-color="#00EFD1" />
      <stop offset="100%" stop-color="#00ACEA" />
    </linearGradient>
    <linearGradient gradientUnits="userSpaceOnUse" x1="426.4879" y1="-53.447144" x2="426.4879" y2="4929.3447" id="gradient_10">
      <stop offset="0%" stop-color="#00EFD1" />
      <stop offset="100%" stop-color="#00ACEA" />
    </linearGradient>
    <linearGradient gradientUnits="userSpaceOnUse" x1="463.0207" y1="-31.267263" x2="463.0207" y2="2883.7297" id="gradient_11">
      <stop offset="0%" stop-color="#00EFD1" />
      <stop offset="100%" stop-color="#00ACEA" />
    </linearGradient>
    <path d="M0 0L40 0L40 40L0 40L0 0Z" id="path_1" />
    <clipPath id="mask_1">
      <use xlink:href="#path_1" />
    </clipPath>
  </defs>
  <g id="headphones">
    <path d="M0 0L40 0L40 40L0 40L0 0Z" id="Background" fill="#FFFFFF" fill-opacity="0" fill-rule="evenodd" stroke="none" />
    <g clip-path="url(#mask_1)">
      <path d="M20.0595 0C9.62276 0 1.13207 8.47655 1.13207 18.8966C1.13009 19.1301 1.25 19.3475 1.44821 19.4711L3.73811 20.8876L3.73811 25.6022C2.59382 26.2238 1.88062 27.419 1.87765 28.7194L1.87765 35.4708C1.8793 37.411 3.44378 38.9888 5.38716 39.0106L6.10598 39.0274L6.10598 39.3054C6.11126 39.685 6.41682 39.992 6.79671 40L10.4331 40C10.8077 39.9894 11.1033 39.6791 11.0954 39.3051L11.0954 25.1098C11.0974 24.9353 11.0277 24.7674 10.9025 24.6457C10.7773 24.524 10.6078 24.4587 10.4331 24.465L6.79671 24.465C6.4231 24.465 6.10598 24.7368 6.10598 25.1098L6.10598 25.1404L5.42482 25.1404C5.3125 25.152 5.20118 25.1701 5.09118 25.1952L5.09118 18.8966C5.09118 10.6615 11.8106 3.96124 20.0595 3.96124C28.308 3.96124 35.0278 10.6612 35.0278 18.8966L35.0278 25.1952C34.9174 25.1701 34.8061 25.152 34.6938 25.1404L34.013 25.1404L34.013 25.1098C34.013 24.7368 33.6955 24.465 33.3219 24.465L29.6855 24.465C29.5108 24.4587 29.3413 24.524 29.2161 24.6457C29.0909 24.7674 29.0212 24.9353 29.0235 25.1098L29.0235 39.3051C29.0153 39.6791 29.3109 39.9894 29.6855 40L33.3219 40C33.7021 39.992 34.0077 39.6847 34.013 39.3051L34.013 39.027L34.7318 39.0102C36.6748 38.9885 38.2393 37.4107 38.2413 35.4708L38.2413 28.7194C38.238 27.419 37.5248 26.2238 36.3808 25.6022L36.3808 20.8876L38.6704 19.4711C38.8693 19.3478 38.9898 19.1305 38.9888 18.8966C38.9888 8.47688 30.4958 0 20.0595 0L20.0595 0ZM7.45905 25.8159L9.74234 25.8159L9.74234 38.6491L7.45905 38.6491L7.45905 25.8159ZM6.10598 26.4913L6.10598 37.6758L5.41392 37.6597L5.40533 37.6597C4.20224 37.6485 3.23203 36.6723 3.23071 35.4708L3.23071 28.7194C3.23071 27.513 4.21578 26.4913 5.42482 26.4913L6.10598 26.4913ZM32.6599 38.6491L30.3766 38.6491L30.3766 25.8159L32.6599 25.8159L32.6599 38.6491ZM36.8882 35.4708C36.8846 36.6729 35.9134 37.6488 34.7093 37.6597C34.7057 37.6597 34.7086 37.6597 34.705 37.6597L34.013 37.6755L34.013 26.4913L34.6938 26.4913C35.9031 26.4913 36.8882 27.513 36.8882 28.7194L36.8882 35.4708ZM36.3808 19.2993L36.3808 18.8966C36.3808 9.91647 29.0539 2.61038 20.0595 2.61038C11.0647 2.61038 3.73812 9.91647 3.73812 18.8966L3.73812 19.2993L2.48448 18.5223C2.685 9.02007 10.4919 1.35054 20.0575 1.35054C29.6228 1.35054 37.4326 9.02007 37.6331 18.5226L36.3808 19.2993Z" id="Shape" fill="url(#gradient_1)" fill-rule="evenodd" stroke="none" />
      <path d="M18.9601 15.5518C18.5862 15.5518 18.2836 15.8542 18.2836 16.2272L18.2836 20.3761C18.2836 20.7491 18.5862 21.0516 18.9601 21.0516C19.3337 21.0516 19.6366 20.7491 19.6366 20.3761L19.6366 16.2272C19.6366 15.8542 19.3337 15.5518 18.9601 15.5518L18.9601 15.5518Z" id="Shape" fill="url(#gradient_2)" stroke="none" />
      <path d="M16.7614 13.3593C16.3874 13.3593 16.0848 13.6617 16.0848 14.0347L16.0848 22.5686C16.0848 22.9416 16.3874 23.2441 16.7614 23.2441C17.135 23.2441 17.4379 22.9416 17.4379 22.5686L17.4379 14.0347C17.4379 13.6617 17.135 13.3593 16.7614 13.3593L16.7614 13.3593Z" id="Shape" fill="url(#gradient_3)" stroke="none" />
      <path d="M14.5626 11.3086C14.1887 11.3086 13.8861 11.611 13.8861 11.984L13.8861 24.6197C13.8861 24.9927 14.1887 25.2951 14.5626 25.2951C14.9362 25.2951 15.2392 24.9927 15.2392 24.6197L15.2392 11.984C15.2392 11.611 14.9362 11.3086 14.5626 11.3086L14.5626 11.3086Z" id="Shape" fill="url(#gradient_4)" stroke="none" />
      <path d="M12.3639 13.3593C11.99 13.3593 11.6874 13.6617 11.6874 14.0347L11.6874 22.5686C11.6874 22.9416 11.99 23.2441 12.3639 23.2441C12.7375 23.2441 13.0404 22.9416 13.0404 22.5686L13.0404 14.0347C13.0404 13.6617 12.7375 13.3593 12.3639 13.3593L12.3639 13.3593Z" id="Shape" fill="url(#gradient_5)" stroke="none" />
      <path d="M9.40407 16.0857L9.40407 20.5176C9.40407 20.8906 9.70666 21.193 10.0806 21.193C10.4542 21.193 10.7571 20.8906 10.7571 20.5176L10.7571 16.0857C10.7571 15.7127 10.4542 15.4103 10.0806 15.4103C9.70666 15.4103 9.40407 15.7127 9.40407 16.0857L9.40407 16.0857Z" id="Shape" fill="url(#gradient_6)" stroke="none" />
      <path d="M25.5563 11.3086C25.1824 11.3086 24.8798 11.611 24.8798 11.984L24.8798 24.6197C24.8798 24.9927 25.1824 25.2951 25.5563 25.2951C25.9299 25.2951 26.2328 24.9927 26.2328 24.6197L26.2328 11.984C26.2328 11.611 25.9299 11.3086 25.5563 11.3086L25.5563 11.3086Z" id="Shape" fill="url(#gradient_7)" stroke="none" />
      <path d="M23.3576 13.3593C22.9836 13.3593 22.681 13.6617 22.681 14.0347L22.681 22.5686C22.681 22.9416 22.9836 23.2441 23.3576 23.2441C23.7312 23.2441 24.0341 22.9416 24.0341 22.5686L24.0341 14.0347C24.0341 13.6617 23.7312 13.3593 23.3576 13.3593L23.3576 13.3593Z" id="Shape" fill="url(#gradient_8)" stroke="none" />
      <path d="M21.1588 14.4674C20.7849 14.4674 20.4823 14.7698 20.4823 15.1428L20.4823 21.4605C20.4823 21.8335 20.7849 22.1359 21.1588 22.1359C21.5324 22.1359 21.8354 21.8335 21.8354 21.4605L21.8354 15.1428C21.8354 14.7698 21.5324 14.4674 21.1588 14.4674L21.1588 14.4674Z" id="Shape" fill="url(#gradient_9)" stroke="none" />
      <path d="M27.755 13.3593C27.3811 13.3593 27.0785 13.6617 27.0785 14.0347L27.0785 22.5686C27.0785 22.9416 27.3811 23.2441 27.755 23.2441C28.1286 23.2441 28.4316 22.9416 28.4316 22.5686L28.4316 14.0347C28.4316 13.6617 28.1286 13.3593 27.755 13.3593L27.755 13.3593Z" id="Shape" fill="url(#gradient_10)" stroke="none" />
      <path d="M30.7149 20.5176L30.7149 16.0857C30.7149 15.7127 30.4119 15.4103 30.0383 15.4103C29.6644 15.4103 29.3618 15.7127 29.3618 16.0857L29.3618 20.5176C29.3618 20.8906 29.6644 21.193 30.0383 21.193C30.4119 21.193 30.7149 20.8906 30.7149 20.5176L30.7149 20.5176Z" id="Shape" fill="url(#gradient_11)" stroke="none" />
    </g>
  </g>
</svg>