<?xml version="1.0" encoding="utf-8"?>
<svg width="512px" height="512px" viewBox="0 0 512 512" version="1.1" xmlns:xlink="http://www.w3.org/1999/xlink" xmlns="http://www.w3.org/2000/svg">
  <defs>
    <path d="M0 0L512 0L512 512L0 512L0 0Z" id="path_1" />
    <clipPath id="mask_1">
      <use xlink:href="#path_1" />
    </clipPath>
  </defs>
  <g id="menu">
    <path d="M0 0L512 0L512 512L0 512L0 0Z" id="Background" fill="#FFFFFF" fill-opacity="0" fill-rule="evenodd" stroke="none" />
    <g clip-path="url(#mask_1)">
      <path d="M301.255 18.7448C326.249 43.7383 326.249 84.261 301.255 109.254C276.262 134.248 235.739 134.248 210.746 109.254C185.752 84.261 185.752 43.7383 210.746 18.7448C235.738 -6.24861 276.261 -6.24861 301.255 18.7448" id="Shape" fill="#FFFFFF" stroke="none" />
      <path d="M301.255 210.746C326.249 235.739 326.249 276.262 301.255 301.255C276.262 326.249 235.739 326.249 210.746 301.255C185.752 276.262 185.752 235.739 210.746 210.746C235.738 185.752 276.261 185.752 301.255 210.746" id="Shape" fill="#FFFFFF" stroke="none" />
      <path d="M301.255 402.745C326.249 427.738 326.249 468.261 301.255 493.254C276.262 518.248 235.739 518.248 210.746 493.254C185.752 468.261 185.752 427.738 210.746 402.745C235.738 377.751 276.261 377.751 301.255 402.745" id="Shape" fill="#FFFFFF" stroke="none" />
    </g>
  </g>
</svg>