<?xml version="1.0" encoding="utf-8"?>
<svg width="512px" height="512px" viewBox="0 0 512 512" version="1.1" xmlns:xlink="http://www.w3.org/1999/xlink" xmlns="http://www.w3.org/2000/svg">
  <defs>
    <path d="M0 0L512 0L512 512L0 512L0 0Z" id="path_1" />
    <clipPath id="mask_1">
      <use xlink:href="#path_1" />
    </clipPath>
  </defs>
  <g id="removeAll4">
    <path d="M0 0L512 0L512 512L0 512L0 0Z" id="Background" fill="#FFFFFF" fill-opacity="0" fill-rule="evenodd" stroke="none" />
    <g clip-path="url(#mask_1)">
      <g id="Group" transform="translate(22.825104 0.001083374)">
        <path d="M434.615 402.706C442.902 402.706 449.62 395.992 449.62 387.71C448.83 367.818 420.397 367.823 419.609 387.71C419.609 395.992 426.328 402.706 434.615 402.706L434.615 402.706Z" id="Shape" fill="#1A1A1A" stroke="none" />
        <path d="M23.4403 402.706C31.7272 402.706 38.4456 395.992 38.4456 387.71C37.6553 367.818 9.22223 367.823 8.43495 387.71C8.43495 395.992 15.1523 402.706 23.4403 402.706L23.4403 402.706Z" id="Shape" fill="#1A1A1A" stroke="none" />
        <path d="M307.049 352.441C304.15 352.441 301.367 352.929 298.773 353.825C295.43 354.979 291.771 353.995 289.163 351.606C276.622 339.637 255.216 339.177 242.166 350.652C240.048 352.439 237.234 353.099 234.491 352.703C232.366 352.391 230.089 352.357 227.948 352.609C225.337 352.911 222.681 352.22 220.663 350.535C207.651 339.217 186.462 339.675 173.957 351.48C171.348 353.845 167.728 354.675 164.37 353.615C161.816 352.809 159.088 352.395 156.255 352.447C142.205 352.702 130.852 364.7 131.344 378.744C131.615 395.209 148.822 407.296 164.444 402.04C167.751 400.984 171.327 401.896 173.893 404.234C186.417 416.115 207.704 416.57 220.729 405.181C222.755 403.481 225.427 402.789 228.056 403.081C230.137 403.316 232.345 403.282 234.41 402.987C237.157 402.599 239.972 403.258 242.087 405.054C255.165 416.615 276.661 416.153 289.228 404.106C291.897 401.65 295.629 400.814 299.072 401.954C315.227 407.709 333.275 394.015 332.43 376.928C331.95 363.323 320.77 352.441 307.049 352.441L307.049 352.441Z" id="Shape" fill="#1A1A1A" stroke="none" />
        <path d="M402.165 283.458C408.22 281.467 426.646 275.408 426.646 259.448C426.646 253.529 423.932 245.185 411 239.049C405.4 236.392 397.917 234.03 388.122 231.827C372.016 228.205 350.117 225.172 324.466 223C327.305 217.167 330.431 211.086 333.9 204.687C318.127 205.348 302.289 202.318 287.919 196.038C285.106 194.811 281.921 194.833 279.132 196.114C263.858 203.135 247.224 206.775 229.994 206.775C214.773 206.775 199.881 203.88 185.988 198.291C183.344 197.228 180.398 197.273 177.78 198.397C162.565 204.97 145.431 207.778 128.626 206.462C131.733 212.209 134.571 217.714 137.172 223.015C112.129 225.132 90.7841 228.08 74.9935 231.617C62.403 234.437 36.2028 240.306 36.2028 259.446C36.2028 275.406 54.6283 281.465 60.6834 283.456C90.2089 292.509 128.322 295.518 164.572 297.761C166.312 304.454 167.943 311.156 169.61 318.019L169.653 318.574C188.799 309.22 213.239 310.392 231.479 321.55C249.226 310.687 272.987 309.261 291.861 317.887C293.685 310.949 295.418 304.308 297.178 297.821C333.86 295.586 372.291 292.602 402.165 283.458L402.165 283.458ZM88.6163 259.463C102.166 256.868 121.867 254.16 149.592 252.143C149.741 252.132 149.889 252.119 150.037 252.104C152.059 257.268 153.877 262.272 155.539 267.168C126.582 265.252 104.192 262.386 88.6163 259.463L88.6163 259.463ZM311.889 251.757C312.91 252.064 313.979 252.267 315.085 252.352C341.584 254.379 360.606 257.013 373.852 259.535C358.112 262.466 335.514 265.333 306.306 267.234C308.013 262.153 309.855 257.018 311.889 251.757L311.889 251.757Z" id="Shape" fill="#1A1A1A" fill-rule="evenodd" stroke="none" />
        <path d="M439.163 481.988L297.277 481.988C293.448 472.983 289.377 459.361 287.301 439.657C269.132 446.312 247.929 444.195 231.48 434.22C215.006 444.247 193.443 446.314 175.378 439.589C173.431 459.448 169.375 473.038 165.492 481.988L23.6864 481.988C3.77733 482.782 3.79233 511.214 23.6864 511.999L439.163 511.999C459.072 511.207 459.057 482.775 439.163 481.988L439.163 481.988Z" id="Shape" fill="#1A1A1A" stroke="none" />
        <path d="M46.1063 179.641C59.6391 179.641 71.8054 173.811 80.2383 164.528C84.0867 160.292 90.4799 159.74 95.2206 162.947C117.676 178.965 152.149 179.793 175.403 164.777C178.994 162.581 183.449 162.451 187.123 164.505C213.621 180.158 251.882 178.976 277.281 161.864C281.063 159.449 285.897 159.54 289.676 161.961C313.134 177.771 348.126 177.305 371.13 160.946C375.871 157.741 382.264 158.292 386.112 162.528C394.544 171.811 406.711 177.641 420.243 177.641C445.706 177.641 466.348 157.01 466.348 131.562C466.607 103.559 440.713 81.4997 413.114 86.0363C407.515 86.9107 402.253 83.3124 400.605 77.8905C391.352 47.4767 363.079 25.3419 329.623 25.3419C321.064 25.3419 312.849 26.7984 305.201 29.4683C301.024 30.9259 296.355 29.8425 293.281 26.6604C260.344 -8.8322 199.844 -8.89822 166.827 26.5313C163.922 29.5264 159.672 30.8368 155.637 29.7755C117.572 19.1247 76.1439 43.1492 65.7452 79.8912C64.0956 85.3121 58.8337 88.9114 53.2347 88.037C25.634 83.5044 -0.257166 105.557 0.00192451 133.564C0.00192451 159.011 20.6432 179.641 46.1062 179.641L46.1063 179.641Z" id="Shape" fill="#1A1A1A" stroke="none" />
      </g>
    </g>
  </g>
</svg>