<svg xmlns="http://www.w3.org/2000/svg" viewBox="0 0 869.04 1334.8"><title>Asset 7</title><g id="Layer_2" data-name="Layer 2"><g id="Layer_1-2" data-name="Layer 1"><path d="M585.29,685.74a19.45,19.45,0,1,0-19.45-19.45A19.47,19.47,0,0,0,585.29,685.74Zm0-33a13.6,13.6,0,1,1-13.59,13.59A13.61,13.61,0,0,1,585.29,652.7Z"/><path d="M584,674.65a8.36,8.36,0,1,0-8.36-8.36A8.36,8.36,0,0,0,584,674.65Z"/><rect x="574.52" y="697.91" width="19.82" height="12.76" rx="3.44"/><path d="M346,434.74c-2.43,0-4.39,2.72-4.39,6.08s2,6.09,4.39,6.09,4.38-2.73,4.38-6.09S348.39,434.74,346,434.74Z"/><path d="M358.39,487.38c2.29-.8,3.25-4,2.15-7.19s-3.85-5.1-6.14-4.31-3.25,4-2.14,7.19S356.11,488.17,358.39,487.38Z"/><path d="M689.81,442.44c2.42,0,4.39-2.73,4.39-6.09s-2-6.08-4.39-6.08-4.38,2.72-4.38,6.08S687.39,442.44,689.81,442.44Z"/><path d="M677.39,482.91c2.28.79,5-1.14,6.13-4.31s.14-6.4-2.14-7.19-5,1.14-6.14,4.31S675.1,482.11,677.39,482.91Z"/><path d="M376.33,1078.44c-7-4.83-14.18-7.21-21.27-4.14-3.34,1.45-8.18,6.47-10,9.8-2,3.7-2,8.4-1.89,12.88.24,10.44,1.23,22.19,8.58,29.83.47-7.6,9.66-11,16.29-7.36s10.51,11.64,11.87,19.32c.52,2.92.74,6-.27,8.6,8.12-2.87,13.06-11.73,14-21s-1.52-19-4.76-28.21C386.25,1090.62,382.68,1082.81,376.33,1078.44Z"/><path d="M382.54,991.79c6.19-10.16,8.32-23.28,7-35.57-.72-6.93-3.42-14.26-9.43-17.78s-15.55-.77-16.67,6.1a43.31,43.31,0,0,1,4.3,28.18c-.84,4.4-2.63,9-6.46,11.33s-10,.89-11-3.48c-3.24,4-2.32,10.2.72,14.37a9.62,9.62,0,0,0,1.59,1.65A20,20,0,0,0,382.54,991.79Z"/><path d="M489.66,1189.81c-4.1-5.51-10.63-9.61-17.48-9.17a10.79,10.79,0,0,0-5.86,2c-5.44,4.13-3.6,12.6-1.23,19,1.53,4.15,3.12,8.39,6,11.77a19.63,19.63,0,0,0,21.38,5.54c2-.77,4-2,4.9-4s.41-4.11,0-6.15C495.77,1202.07,493.75,1195.32,489.66,1189.81Z"/><path d="M567.23,996.8c10,22.33,29.23,35.45,42.94,29.3s16.72-29.22,6.72-51.54-29.22-35.44-42.93-29.3S557.23,974.48,567.23,996.8Z"/><path d="M551.7,1146.82a34.56,34.56,0,0,0,3.25,12c3.59,8.2,9.74,16.48,18.61,17.68s17.28-5.43,21.82-13.24a42.62,42.62,0,0,0,.74-40.75c-2.44-4.57-6.17-8.94-11.24-10-5.27-1.06-10.5,1.73-14.89,4.81C560.09,1124.27,551.06,1134.75,551.7,1146.82Z"/><path d="M458.29,1032.31a13.54,13.54,0,0,1,8.53,25.06c3.76,7.75,15.17,8.9,22.48,4.35s11.32-12.85,14.39-20.9a20.12,20.12,0,0,0,1.62-6.3,15.1,15.1,0,0,0-1.5-6.65c-5.41-12.16-21.15-18.51-33.48-13.51C463.12,1017.29,457.09,1024.63,458.29,1032.31Z"/><path d="M564.1,890.28a21.26,21.26,0,0,0,7.4,5.71,34.07,34.07,0,0,1-4.88-7.36,23.9,23.9,0,0,1-1.54-3.93,10.07,10.07,0,0,1-.61-3.65,4.43,4.43,0,0,1,1-2.65,7.41,7.41,0,0,1,2.51-1.92,10.57,10.57,0,0,1,3.3-.94,17,17,0,0,1,3.76.08c2.6.33,5.5,1.11,8.42,1.8s5.71,1.37,8.46,2.26a42.58,42.58,0,0,1,15.28,8.42c-2.88-5.43-8-9.65-13.66-12.39a62.48,62.48,0,0,0-8.63-3.43,58.68,58.68,0,0,0-9.09-2.43,19.34,19.34,0,0,0-5.22-.09,14.24,14.24,0,0,0-5.27,1.73,11.87,11.87,0,0,0-4.25,3.9,9,9,0,0,0-1.37,5.87C560.27,885.15,562.12,887.76,564.1,890.28Z"/><path d="M718.82,1038.87a29.83,29.83,0,0,0-3.81-10.26,14.29,14.29,0,0,0-8.87-6.46,12.18,12.18,0,0,0-5.44,0,8.64,8.64,0,0,0-4.46,2.8c2.69-2.34,6.44-2.37,9.45-1.23a12.26,12.26,0,0,1,6.83,6.34,26.88,26.88,0,0,1,2.51,9.42c.35,3.32.55,6.77.62,10.17a143.89,143.89,0,0,1-1,20.35c-.79,6.75-1.83,13.45-4.75,19a20.85,20.85,0,0,1-5.63,7.12,16,16,0,0,1-7.95,3.49,12,12,0,0,1-8.14-1.94,19.14,19.14,0,0,1-6.09-6.73c-3.13-5.47-3.46-12.36-2.78-19.08s2.12-13.63,3-20.53q-1.6,5-3.1,10c-1,3.32-2,6.68-2.69,10.15a46.93,46.93,0,0,0-1,10.72,26.66,26.66,0,0,0,2.56,10.85,22.47,22.47,0,0,0,7.28,8.9,17.4,17.4,0,0,0,11.56,3.2c8.26-.82,14.81-6.69,18.24-13.44s4.38-14.17,5.06-21.13a123.69,123.69,0,0,0,0-21.17A105.27,105.27,0,0,0,718.82,1038.87Z"/><path d="M545,1006.13c3.37,6.31,7.19,12.17,10.91,18.08,3.89,5.84,8.11,11.89,13.82,16.85a41.27,41.27,0,0,0,9.57,6.15,28.92,28.92,0,0,0,11.25,2.75,29.55,29.55,0,0,0,11.25-1.89,64.16,64.16,0,0,0,9.77-4.68,39.7,39.7,0,0,0,8.53-6.64,19.22,19.22,0,0,0,5-9.35c-3,6.43-9.14,10-15.3,12.57s-12.84,4.68-18.84,3.92a30.11,30.11,0,0,1-16.35-8.35c-4.69-4.33-8.52-9.81-12.2-15.59s-7.62-11.56-11-17.4a87.41,87.41,0,0,1-8.33-18.16,48.32,48.32,0,0,1-2-19.55,34.63,34.63,0,0,1,7.48-18.6c-5.69,4.19-9.44,10.89-11.23,17.91a47.41,47.41,0,0,0-.1,21.78C538.75,993.1,541.73,999.8,545,1006.13Z"/><path d="M454.82,1004.66a42.73,42.73,0,0,0-9.22,9.19,43.53,43.53,0,0,0-6.09,11.91,48.57,48.57,0,0,0-.57,26.83,60.4,60.4,0,0,0,4.7,12.58,45.83,45.83,0,0,0,7.65,11.22,24.82,24.82,0,0,0,11.95,7.23c4.52,1.08,9.58.56,13.09-2.13a17.6,17.6,0,0,1-11.7-1.77,24.42,24.42,0,0,1-8.37-7.55,58.88,58.88,0,0,1-5.77-10.28,74.15,74.15,0,0,1-4-11.23,54,54,0,0,1-1.22-23.44C446.53,1019.35,450.09,1011.84,454.82,1004.66Z"/><path d="M529.23,1042.29a38.33,38.33,0,0,0,.16-12.19A37.68,37.68,0,0,0,518.16,1009c-5.75-5.55-13.31-9.27-21-9.75a44.79,44.79,0,0,1,17.67,12.87,39.91,39.91,0,0,1,8.79,18.93,35.18,35.18,0,0,1,.16,10.45,42,42,0,0,1-2.64,10.29,44.62,44.62,0,0,1-12.81,17.71c7.17-2.85,13.19-8.73,16.94-15.79A38.58,38.58,0,0,0,529.23,1042.29Z"/><path d="M394.34,932.1a24.62,24.62,0,0,0-13.72-7.47,19.25,19.25,0,0,0-7.75.22,14.41,14.41,0,0,0-6.6,3.56,16.75,16.75,0,0,1,13.67-1,23,23,0,0,1,10.94,7.65,29.69,29.69,0,0,1,5.24,12.28,57.88,57.88,0,0,1,.95,13.92,134.11,134.11,0,0,1-1.19,14.28,70.89,70.89,0,0,1-3.12,13.77c-3.05,8.76-8.69,17-17.5,21.6a28.46,28.46,0,0,0,13-7.33A40.23,40.23,0,0,0,397,991a62.5,62.5,0,0,0,4.35-14.6,121,121,0,0,0,1.58-15,60.33,60.33,0,0,0-1.39-15.31A31.74,31.74,0,0,0,394.34,932.1Z"/><path d="M492.84,1169.44a34.48,34.48,0,0,0-18.9-5.27c-6.54.07-13.15,2.2-17.88,6.39a39,39,0,0,1,17.64-1.84,39.87,39.87,0,0,1,16,5.66,52,52,0,0,1,12.47,11.94c3.66,4.71,6.9,10,10.64,15a69.48,69.48,0,0,0-6.83-17.54A40.52,40.52,0,0,0,492.84,1169.44Z"/><path d="M594.52,1194.36a21.63,21.63,0,0,0,6.64-9.46c-4,6.52-11,10.26-18,11.3s-14.26-.39-21-2.83c-6.78-2.62-13.45-5.79-18.64-10.37a35.75,35.75,0,0,1-10.94-17.08,59.89,59.89,0,0,1-2.55-21.08,76.49,76.49,0,0,1,3.69-21.32A50.39,50.39,0,0,1,544.51,1105a40.72,40.72,0,0,1,18.68-11.54c-7.67.35-15.16,3.77-21.28,8.75A50,50,0,0,0,528,1121.35a73.75,73.75,0,0,0-5.38,23.07,65.16,65.16,0,0,0,2.47,23.87,42.73,42.73,0,0,0,13.66,20.4,53.8,53.8,0,0,0,10.37,6.34,68.31,68.31,0,0,0,11.12,4.14c7.58,2.16,15.92,3,23.76.77A28.91,28.91,0,0,0,594.52,1194.36Z"/><path d="M617.49,1144a44.14,44.14,0,0,0-.51-15.24,42,42,0,0,0-5.77-14.15A34.17,34.17,0,0,0,600.59,1104a105.64,105.64,0,0,1,6.56,12.81,73.52,73.52,0,0,1,4.1,13.2,81.73,81.73,0,0,1,1.66,13.77c.21,4.7,0,9.46-.24,14.46A38.65,38.65,0,0,0,617.49,1144Z"/><path d="M671.22,1117.12A34.17,34.17,0,0,1,660,1101.89a50.14,50.14,0,0,1-2.51-19,118.45,118.45,0,0,1,2.69-19.62c1.3-6.59,2.71-13.17,4.48-19.55a89.71,89.71,0,0,1,7-18.39,53,53,0,0,1,12-15.34,39,39,0,0,1,17.58-9c-6.84.12-13.6,2.78-19.33,6.75a51.17,51.17,0,0,0-14.22,15.33,82.29,82.29,0,0,0-8.4,19.09c-2,6.63-3.49,13.3-4.91,20a116.34,116.34,0,0,0-2.5,20.63c0,7,.88,14.24,3.81,20.86a35.52,35.52,0,0,0,13.91,15.9,27.39,27.39,0,0,0,9.88,3.65,20.85,20.85,0,0,0,10.24-.94A24,24,0,0,1,671.22,1117.12Z"/><path d="M440.31,913.42a35.29,35.29,0,0,0,20.93,2.38,31.4,31.4,0,0,0,17.9-9.72,45.15,45.15,0,0,1-18.46,5.19,37.62,37.62,0,0,1-32.34-14.47,45,45,0,0,1-8.43-17.23,31.57,31.57,0,0,0,4.68,19.82A35.41,35.41,0,0,0,440.31,913.42Z"/><path d="M587.87,911A30.16,30.16,0,0,1,577,907.42a17.5,17.5,0,0,0,9.81,8.06,20.6,20.6,0,0,0,24-7.82,17.51,17.51,0,0,0,3.16-12.31,30.26,30.26,0,0,1-6.68,9.35A23.11,23.11,0,0,1,587.87,911Z"/><path d="M675.06,959a28.7,28.7,0,0,0,11.75,1,21.05,21.05,0,0,0,10.57-4.38c-7.11,2.62-14.45,1.73-20.79-1A36.14,36.14,0,0,1,661,941.8c-3.89-5.72-6.22-12.46-7.69-19.47a159.66,159.66,0,0,1-2.45-21.89A65.75,65.75,0,0,0,648.75,923a51.93,51.93,0,0,0,2.24,11.4A45.16,45.16,0,0,0,656.08,945,34.92,34.92,0,0,0,675.06,959Z"/><path d="M606.35,1233.39a35.48,35.48,0,0,1-12.27-2.32,44.53,44.53,0,0,1-11.62-6.55,23.67,23.67,0,0,0,9.58,10.67,27.64,27.64,0,0,0,28.61.12,23.54,23.54,0,0,0,9.67-10.59,44.53,44.53,0,0,1-11.67,6.45A35.79,35.79,0,0,1,606.35,1233.39Z"/><path d="M463,1119.84a18.38,18.38,0,0,1,6.06,3.67,24.69,24.69,0,0,1,5.06,6.45,11.79,11.79,0,0,0-1.45-9.29,14.65,14.65,0,0,0-17.72-6.27,11.87,11.87,0,0,0-7,6.31,24.1,24.1,0,0,1,8-1.83A18,18,0,0,1,463,1119.84Z"/><path d="M429.64,988.46a64.94,64.94,0,0,1-7,3.86,63.64,63.64,0,0,1-7.41,3c-2.58.87-5.27,1.57-8.32,2.35a17,17,0,0,0,9.06,2.17,23.1,23.1,0,0,0,16.71-7.91,16.92,16.92,0,0,0,4-8.4C434.19,985.37,432,987,429.64,988.46Z"/><path d="M662.33,989.53a20.72,20.72,0,0,1-4.2,1.57c-1.59.42-3.37.7-5.6,1.11a9,9,0,0,0,5.55,3.47,10.56,10.56,0,0,0,6.87-.91,10.84,10.84,0,0,0,4.86-4.91,9.31,9.31,0,0,0,.7-6.49c-1.73,1.47-3.06,2.71-4.38,3.72A23.73,23.73,0,0,1,662.33,989.53Z"/><path d="M507.25,934.3a40.77,40.77,0,0,1,8.71-1.85,43.94,43.94,0,0,1,9.61.17,16.45,16.45,0,0,0-9.4-4.77,22.94,22.94,0,0,0-19.93,6.63,16.51,16.51,0,0,0-4.69,9.43,44.44,44.44,0,0,1,7.6-5.89A40.49,40.49,0,0,1,507.25,934.3Z"/><path d="M680.16,1191.32a14.41,14.41,0,0,0-13.76,4.57,10,10,0,0,0-2.62,6.85,44.65,44.65,0,0,1,5.53-3.31,40.08,40.08,0,0,1,5.2-2.13,41.88,41.88,0,0,1,5.43-1.39,45,45,0,0,1,6.42-.66A10,10,0,0,0,680.16,1191.32Z"/><path d="M575.77,1062c-1.62-3.64-7.9-4.36-14-1.62s-9.76,7.91-8.13,11.54,7.91,4.36,14,1.62S577.4,1065.64,575.77,1062Z"/><path d="M467.54,956.88c3.19-1.43,4.9-4.54,3.82-6.94s-4.53-3.2-7.72-1.77-4.9,4.54-3.83,6.94S464.35,958.31,467.54,956.88Z"/><path d="M439.28,1098.5c-3.62,1.61-5.74,4.74-4.74,7s4.74,2.73,8.36,1.11,5.74-4.74,4.74-7S442.89,1096.88,439.28,1098.5Z"/><path d="M677.7,1150.82c.5-3.45-3-6.83-7.9-7.53s-9.21,1.54-9.71,5,3,6.83,7.9,7.53S677.2,1154.28,677.7,1150.82Z"/><path d="M618.17,950.32A50.65,50.65,0,0,0,608,943a48.88,48.88,0,0,0-11.59-4.45,43.42,43.42,0,0,0-24.12.67,63.17,63.17,0,0,1,22.81,3.68,57.31,57.31,0,0,1,10.16,4.9,48.44,48.44,0,0,1,8.86,6.77A55.16,55.16,0,0,1,626.79,973a63.16,63.16,0,0,1,4.9,22.58,43.4,43.4,0,0,0-.6-24.13A48.35,48.35,0,0,0,618.17,950.32Z"/><path d="M533.2,776.41H502.09a5.25,5.25,0,0,0-5.24,5.24v11.76a5.25,5.25,0,0,0,5.24,5.24H533.2a5.25,5.25,0,0,0,5.24-5.24V781.65A5.25,5.25,0,0,0,533.2,776.41Zm1.33,17a1.34,1.34,0,0,1-1.33,1.33H502.09a1.34,1.34,0,0,1-1.34-1.33V781.65a1.34,1.34,0,0,1,1.34-1.34H533.2a1.34,1.34,0,0,1,1.33,1.34Z"/><path d="M867.05,838.4C862.26,818,848.12,801,830.74,794.45c-21-12.75-52.11-6.89-66.72,12.59a53.9,53.9,0,0,0-6.33,11,162.72,162.72,0,0,0-11.3-16.16l.16.06c3.79-11.16.72-23-1.93-31-.88-2.67-1.86-5.33-2.81-7.91-2.49-6.78-4.84-13.18-5.77-20-1.12-8.23-.51-17.08.09-25.64.65-9.4,1.32-19.12-.2-28.45-5.53-34-19.93-53.3-33.86-72-2.17-2.92-4.31-5.79-6.4-8.69,2.43-11.82,7.45-50.34,2.76-63.22-4.18-11.49-19.11-29.24-42.28-31.53l.25-.43a30.5,30.5,0,0,0,3.38.21c10.74,0,18.2-6.2,26.16-15.93,10.63-13,14.62-29.62,17.34-45.66,1.58-9.29,3-20-.62-29.76-.26-.7-.51-1.4-.75-2.08-2.94-8.28-5.74-16.11-21.66-19.7-8-88.56-78.41-158.06-163.86-158.06s-156.11,69.72-163.9,158.49c-14.37,3.76-17.08,11.3-19.92,19.27-.24.68-.48,1.38-.74,2.08-3.59,9.74-2.2,20.47-.63,29.76,2.73,16,6.72,32.68,17.35,45.66,8,9.73,15.41,15.93,26.16,15.93a31,31,0,0,0,4.09-.32q1.77,2.87,3.65,5.65c-25.51,1.35-42.13,15.34-44.58,37.5a41.61,41.61,0,0,1-8.27-6.83c-6.77-7.46-9.85-18-12.57-27.24L302.85,473.7c-1.69-5.76-3.79-12.92-9.39-17.57a19.06,19.06,0,0,0-2.07-1.47c-.14-6.32.79-12.77,1.6-19.4.85-6.93,1.63-14.28.54-21.69a38.8,38.8,0,0,0-3.16-10.92,29.42,29.42,0,0,0-6.84-9.43c-.28-.26-.58-.49-.87-.73a22.82,22.82,0,0,0-5.6-16.54A23.42,23.42,0,0,0,265,368.36L312.44,22.54a11.29,11.29,0,0,0-9.64-12.7,11.29,11.29,0,0,0-12.7,9.63l-1,7.17c-29.62-16.3-75-34.81-135.31-20.18-17.76,4.32-36.94,7-60.35,8.41-16.39,1-39.51-.31-56.53-12.21L33.12,0l-.76,4.58C27.66,33,21.9,62.16,16.33,90.33S5,147.72.26,176.26L0,177.82l1.17,1.07c33.63,30.85,89.81,31.31,131,26.26,5.77-.71,11.46-1.48,17.1-2.25,37.53-5.11,73-9.92,114.52,8.18L242.23,368.2c-13.14,2.75-25.62,15.05-31,25.87-5.29,10.59-7.11,23.84-5.26,38.3,1.24,9.78,5.17,20.7,8.63,30.34q1.34,3.71,2.54,7.21a31.53,31.53,0,0,0-5.73,10.9c-1.86,6.48-1.4,13.32-1,19.35,1.15,17.19,4.2,34.33,7.14,50.89q.71,4,1.4,7.93c7.19,41.09,27.58,59.84,49.17,79.69,6,5.48,12.14,11.16,18.06,17.37a93.19,93.19,0,0,1,6.48,7.77c3.71,4.81,7.21,9.35,13.4,13.3,4.57,2.92,11.45,5.49,17.52,7.76,2.66,1,5.17,1.93,7.23,2.8L341.07,692l.91,51.43c-29.51,4.77-59.05,27.92-79.55,63.45-16.24-11.56-40.74-13.59-57.81-3.23-17.11,6.73-31,23.58-35.73,43.74-4.62,19.66-1.12,42,9.62,61.17a318,318,0,0,0,17.36,26.77c8.47,12.13,16.48,23.59,22.63,37.56,7.18,16.28,16.1,36.52,39.83,37.31a24.66,24.66,0,0,0,7.07,1,39.94,39.94,0,0,0,8.22-1,45.07,45.07,0,0,0,3.4,17.41,39.72,39.72,0,0,1,2.4,10.61l.28,2c1.17,8.31-.05,14.79-3.65,19.25-16.55,20.54-18.93,39.74-15.93,58.19a77.68,77.68,0,0,0,11.75,39c3.22,7.74,7,13.94,11.64,18.81,1.86,2,3.88,3.77,5.84,5.5,1.71,1.52,3.33,3,4.85,4.5,7.66,7.81,12.49,18.25,17.15,28.35,1,2.19,2,4.38,3.06,6.54,11.11,23.15,36.21,63.52,79.62,73.83,4,.95,8.16,1.66,12.18,2.33,2.88.49,5.72,1,8.47,1.53,14.43,7.21,24.26,22.32,38.87,29.65,1.18.6,2.37,1.11,3.55,1.59,7.58,4.25,16.52,5.54,25.64,5.54a159,159,0,0,0,16.87-1.08l71.32-7.6c17-.49,34.15-2.46,50-7.28,17.24-3.89,34.1-9.94,48.94-20.35,15.37-10.78,27.25-25.35,38.74-39.44,8.87-10.89,18-22.15,25.72-34.34,11.06-17.59,18.92-37,26.53-55.82,4.88-12.06,10.41-25.73,10.25-40-.08-7.46-1.72-14.74-3.29-21.77-1.43-6.37-2.79-12.39-3.1-18.57-.5-9.77,1.6-19.3,3.82-29.39s4.47-20.31,4-30.81c-.71-14.66-4.08-21.56-7.62-26.65a37,37,0,0,0,5.65.48,24.66,24.66,0,0,0,7.07-1c23.74-.79,32.66-21,39.84-37.31,6.15-14,14.15-25.43,22.62-37.56a313.1,313.1,0,0,0,17.36-26.77C868.17,880.36,871.67,858.07,867.05,838.4ZM768.7,810.55c6.52-8.7,17.12-14.29,28.35-16.19a49.72,49.72,0,0,0-23.19,17c-11.21,15.07-13.11,34.26-15,52.82-1.1,11.08-2.24,22.54-5.34,32.95a190,190,0,0,1-7.82,20.2c-7.87,18.24-16,37.11-7.28,57.55a44.86,44.86,0,0,0,10.19,14.74c-7.64-4.39-14.13-10.45-16.48-16.66-4.59-12.12-3.68-26.81,2.79-44.92,1.95-5.43,4.24-10.9,6.46-16.18,3.92-9.33,8-19,10.38-29.09,2-8.48,2.93-17.39,3.82-26C757.39,839.63,759.06,823.41,768.7,810.55Zm-13.63,14.56c-3.08,9.95-4.19,20.62-5.26,31.08-.87,8.44-1.77,17.16-3.69,25.26-2.3,9.65-6.26,19.07-10.09,28.18-2.24,5.36-4.57,10.89-6.57,16.48-5.11,14.3-6.94,26.72-5.54,37.66a53.49,53.49,0,0,1-7.58-3.24,128.74,128.74,0,0,1-4.45-75.6c5.79-23.35,20.9-48.15,39.77-65.54C752.85,821.29,754,823.19,755.07,825.11ZM697.38,620.47c13.51,18.11,27.47,36.83,32.78,69.41,1.41,8.66.76,18,.13,27.1-.62,8.86-1.25,18,0,26.85.14,1,.31,2,.5,3-.91,1.22-1.86,2.41-2.89,3.56a40.76,40.76,0,0,1-9,7.34c-1.71,1-3.46,2-5.25,3.26a15,15,0,0,0,6.37-.72,35.16,35.16,0,0,0,6-2.5,34.77,34.77,0,0,0,5.45-3.61c.34-.27.64-.58,1-.87,1.17,4,2.59,7.92,4,11.75.93,2.53,1.89,5.16,2.75,7.73,3.18,9.59,4.09,17.24,2.84,23.73-27.48-31.92-67.12-55-94.87-46.24.38-1.82.74-3.65,1.08-5.47.45-2.49.85-5,1.23-7.47a46.5,46.5,0,0,0,6.46-.4,51.62,51.62,0,0,0,8.27-1.79,59.11,59.11,0,0,0,7.82-3,23.88,23.88,0,0,0,6.87-4.71c-2.75.61-5.3,1.4-7.85,2.12a53.47,53.47,0,0,1-7.73,1.64,64.08,64.08,0,0,1-7.79.64c-1.76,0-3.52,0-5.26-.14.41-3.3.77-6.61,1-9.93.1-1.14.17-2.29.25-3.43,1.37-.38,2.74-.78,4.1-1.23,1.53-.53,3.07-1,4.58-1.56l4.56-1.69a15.29,15.29,0,0,0,4.39-2.4,15.83,15.83,0,0,0-5-.31l-4.84.4c-1.61.13-3.2.36-4.81.53-.88.1-1.76.26-2.65.39.21-4.65.28-9.31.14-14a159.71,159.71,0,0,0-2.14-23.2,80.48,80.48,0,0,0-7.18-22.17c.66,7.78,1.39,15.29,1.95,22.84s1,15.06,1,22.62A283.42,283.42,0,0,1,642,743.38l-.14-.16c-9.72,8.22-23.42,13.81-37.45,17.62a26.38,26.38,0,0,0,14.08-23.3V657.92a27.85,27.85,0,0,0-.25-3.44c9.33-9.67,22.52-27.31,28.55-38.27,5.56-10.08,14.22-31,11.42-45.15-2.11-10.7-7.29-17.2-15.75-19.77-.13-.12-.24-.27-.38-.39a12.25,12.25,0,0,0,1.37-3.72c5.2,1.29,12.06,6.42,19,14.33,5,5.68,7.94,12.82,10.8,19.73C679.67,596.72,688.67,608.79,697.38,620.47Zm-148,154.2c14.44-.57,63.13-3.91,91.16-23.09a136.44,136.44,0,0,1-3.57,14.06c-.56,1.77-1.17,3.51-1.87,5.15-.34.83-.71,1.61-1.1,2.35-.19.37-.4.66-.59,1s-.51.74-.76,1.09a11,11,0,0,1-3.11,3.19,3.11,3.11,0,0,1-.79.34l-1.35.43-2.72.85a334.84,334.84,0,0,1-44.27,10.66c-10.16,1.73-20.4,2.95-30.68,3.73V777.39A11.08,11.08,0,0,0,549.33,774.67Zm-10.69-8.32H496.69a11,11,0,0,0-8.54,4V770a95.55,95.55,0,0,1-34.95-6.13H591.42a278.13,278.13,0,0,1-45.71,5A11,11,0,0,0,538.64,766.35Zm5.19,11v20.43a5.19,5.19,0,0,1-5.19,5.19H496.69a5.19,5.19,0,0,1-5.19-5.19V777.39a5.19,5.19,0,0,1,5.19-5.19h41.95A5.2,5.2,0,0,1,543.83,777.39Zm-185-34.62a67.08,67.08,0,0,0-11,0L347,694.53,376.57,707c0,.49,0,1,.05,1.46-14.41,12.19-17.64,23.78-17.89,31.16A29.29,29.29,0,0,0,358.8,742.77Zm55.74-49.08v12.82c-18.47,7.59-24.77,18.18-24.44,25.72.24,5.56,4,10,9.8,11.72,11.57,3.33,32.89-4.13,54.86-36.09a7.15,7.15,0,0,1,6.61-3.4,15.53,15.53,0,0,1,4.17,1.31c4.28,1.89,4.51,9.45,4.51,10.94,0,16.45-17.93,33.08-27.58,42a52,52,0,0,1-56.94,9.72c-13.31-6.09-21.34-17.05-20.95-28.59C364.92,729.81,372,710.7,414.54,693.69Zm.94,18.78v24.07c-6.05,2.48-10.88,2.67-14,1.78-3.4-1-5.43-3.29-5.56-6.34C395.72,726.83,400.79,718.82,415.48,712.47ZM400.82,581.64a30.72,30.72,0,0,0,12.94,6.27c1.32,12.06,14.7,33.75,22.5,44.27a26.45,26.45,0,0,0-18.61,15.29c-7.37-8-16.13-18.83-21.66-28.86s-13.1-29.53-10.8-41.21c1.43-7.29,4.36-11.9,9.18-14.29a15.35,15.35,0,0,0-.42,3.08A20.61,20.61,0,0,0,400.82,581.64Zm73.71-9.08q-12.33-1.34-24.52-3.51c-8.12-1.46-16.2-3.14-24.18-5.21-7.59-1.92-15.1-4.09-22.56-6.45l-.07-.16a17.17,17.17,0,0,1,.23-13.39,465.86,465.86,0,0,0,232.72-3.51c3,4.45,1.41,7.35-.39,9.42l-1.58,1.81c-5.48,2.49-11,4.91-16.54,7.09l-4.59,1.77-4.64,1.66-4.65,1.6-4.69,1.48c-6.26,2-12.66,3.51-19.07,5.12s-12.89,3.12-19.48,5.06a76.85,76.85,0,0,0,20.43.53,132.32,132.32,0,0,0,20.1-3.78l4.92-1.42,4.88-1.55,4.82-1.76,4.76-1.9a123.48,123.48,0,0,0,17.68-9.19c.4.07.79.15,1.18.24a8.69,8.69,0,0,1,1.31,3.16,13.11,13.11,0,0,1-2.85,10.91c-4.61,5.17-11.89,7.14-20.23,9-18,4-36.62,8.23-55.2,10.47-45.65,5.51-92.08-.41-137-6.13-6.75-.86-15.15-1.93-20.68-6.72a15,15,0,0,1-4.85-10.89,8.41,8.41,0,0,1,.85-3.6,245,245,0,0,0,23.72,7c8.18,1.93,16.44,3.59,24.75,4.79s16.69,2,25.07,2.45,16.79.58,25.12-1.27C491,573.91,482.77,573.38,474.53,572.56Zm172-12.44c2.92,2.65,4.83,6.6,5.91,12.07,2.3,11.67-5.21,31-10.81,41.2-5.22,9.49-16.5,24.79-25.2,34.41a26.43,26.43,0,0,0-18.77-15.63c8-10.83,23.35-34.89,25.93-48,6.36-1.63,13.56-4.17,18.49-9.69A19,19,0,0,0,646.57,560.12ZM521.52,698.41l0-1.2-.86-.84c-3.54-3.46-7.28-7-10.91-10.39-3.29-3.09-6.68-6.28-9.91-9.42l-.32-39.13h92.65a20.51,20.51,0,0,1,20.49,20.49v79.62A20.51,20.51,0,0,1,592.15,758h-69.9C522.28,738.68,521.53,698.83,521.52,698.41Zm-46.46,25.41a25,25,0,1,0-33.58-8.13c-7.31,8.67-14.14,14.35-20.14,17.9V657.92a20.51,20.51,0,0,1,20.49-20.49h51.81L494,679l.86.85c3.54,3.46,7.27,7,10.88,10.36,3.3,3.11,6.71,6.31,10,9.47.12,6.82.73,40.92.7,58.31H451.77C460.68,749.45,471.92,737.19,475.06,723.82Zm-7.15-23.4a21.26,21.26,0,0,0-5.8-1.77,13,13,0,0,0-12.17,5.89c-1.52,2.22-3,4.29-4.53,6.24a18.93,18.93,0,0,1-2-8.49,19.1,19.1,0,1,1,32.49,13.6C475.77,712.21,474.74,703.44,467.91,700.42ZM419.84,589.1c1.63.25,3.23.45,4.75.65,32.47,4.13,65.72,8.37,99.05,8.37A328.7,328.7,0,0,0,563,595.88c18.34-2.21,36.56-6.26,54.23-10.22-3.86,12.64-19.17,37.08-26.46,45.91H443.18C436.16,623.06,422.17,600.61,419.84,589.1ZM443,765.94a102.4,102.4,0,0,0,42.72,9.9,11.43,11.43,0,0,0-.12,1.55v15.82A351.3,351.3,0,0,1,416.19,778,57.09,57.09,0,0,0,443,765.94Zm189.33,17.59a16.59,16.59,0,0,0,5-4.85c.31-.44.58-.81.88-1.27s.63-1,.88-1.46c.52-1,1-1.9,1.37-2.83.81-1.88,1.49-3.75,2.11-5.63,1.13-3.46,2.08-6.93,2.92-10.42,17.6-8,41.79.42,64,16.89a114.8,114.8,0,0,0-39.21,33l-6.22-3.72C653.58,797,641.86,790,632.28,783.57Zm60.56-236.46c3.34,9.15.62,38.49-2,54.43A128,128,0,0,1,678.65,579c-3-7.35-6.2-14.94-11.81-21.35-5.11-5.83-14.67-15.29-23.81-16.51A17,17,0,0,0,641,537a159.15,159.15,0,0,0,12-17.77C675,520.11,689.11,536.55,692.93,547.07ZM680.7,406.31c11.21,2.95,13,8,15.7,15.53.25.7.5,1.42.76,2.14,3.09,8.39,1.87,17.82.35,26.76-2.59,15.25-6.33,31-16.1,42.94-8.33,10.17-14.26,14-22.14,13.78C672.88,479.85,681,447.16,681,417,681,413.38,680.9,409.83,680.7,406.31ZM516.39,248A150,150,0,0,1,584,264.09,144.83,144.83,0,0,0,562.44,307a115.34,115.34,0,0,0-4.87,25.66,85,85,0,0,0,.66,18.15c-37.27-2.14-71.65,0-88.54,2l-4.42.56a156.35,156.35,0,0,0-7.35-41.7,116.64,116.64,0,0,0-22.43-40A150.61,150.61,0,0,1,516.39,248ZM409.94,485.05c-7.57-18.44-16.79-56.58-16.11-76.51.23-7,1.11-14.32,5.09-20.09s10.78-9.3,17.35-12.1a184.31,184.31,0,0,1,81.84-14.05c-16.64,3.12-33.46,6.29-48.9,13.21s-29.63,18.06-36.84,33.37C404.51,425.54,408.58,466.69,409.94,485.05Zm-56.86,8.63c-9.77-11.94-13.51-27.69-16.1-42.94-1.52-8.94-2.74-18.37.34-26.76.27-.72.52-1.44.77-2.14,2.52-7.08,4.3-12,14-15-.18,3.36-.28,6.74-.28,10.14a181.53,181.53,0,0,0,23.7,90.5C367.46,507.79,361.49,504,353.08,493.68ZM357.62,417c0-52.53,22.65-99.54,58.09-130.56,2,2.35,3.86,4.75,5.62,7.27a98,98,0,0,1,6.26,10.39,87.12,87.12,0,0,1,4.92,11.18L436.57,327a46.45,46.45,0,0,0-1.41-12.53,91.66,91.66,0,0,0-3.86-12.08,83.79,83.79,0,0,0-5.63-11.45,78.33,78.33,0,0,0-5.53-8.23c3.35-2.72,6.8-5.32,10.35-7.76a110.09,110.09,0,0,1,20.42,38.94,148.81,148.81,0,0,1,5.76,40.79c-24.13,4-47.78,11.13-69.11,22.95a7,7,0,0,0-3.51,5.19c-6.38,49.47,4.91,101.74,33.07,142.87a7,7,0,0,0,3.32,2.61c60.38,22.85,138.69,20,192.16-4a7,7,0,0,0,3.35-3.19c25.32-49,39.21-100.07,26.9-152.19a6.9,6.9,0,0,0-4.62-5c-21.78-6.94-46.76-10.73-71-12.57a75,75,0,0,1-1.47-18.31,107.46,107.46,0,0,1,3.82-24A135.34,135.34,0,0,1,578.18,286a137.88,137.88,0,0,1,11.13-19.1c51,28.16,85.85,84.85,85.85,150.06,0,41.23-15.53,87.2-39.59,117.46a459.88,459.88,0,0,1-229.51,4C374.83,506.31,357.62,463.22,357.62,417Zm265.52-14.21c-3.62,6.92-14.77,8.24-24.91,2.95s-15.42-15.2-11.8-22.13,14.77-8.24,24.9-2.94S626.75,395.82,623.14,402.74Zm-.74,29.82a7.71,7.71,0,1,1-3.26-10.4A7.71,7.71,0,0,1,622.4,432.56ZM386.47,524.35A173.38,173.38,0,0,0,399,539.48a24.06,24.06,0,0,0-2.32,16.62c-9.36,2.22-15,8.85-17.27,20.17-.06.31-.09.65-.14,1L350.51,563c-2.35-1.16-4.73-2.35-7.06-3.6C344.59,537.45,360.62,524.36,386.47,524.35Zm-98-68.62Zm-15.88-76a17.69,17.69,0,0,1,4.08,8.65,47.91,47.91,0,0,0-13.46-4.64l-.36-.06,1.31-9.52A17.63,17.63,0,0,1,272.6,379.75ZM148.5,197.1c-5.62.76-11.29,1.53-17,2.24-39.5,4.83-93,4.58-125.17-23.71C11,147.69,16.6,119.11,22.07,91.47,27.36,64.7,32.83,37.06,37.41,9.93,55.28,20.51,77.67,21.7,93.82,20.71c23.76-1.44,43.26-4.16,61.37-8.56,59.7-14.48,104.38,4.65,133.07,20.71l-23.63,172.2C222.27,187.06,186.41,191.94,148.5,197.1ZM295.9,20.27a5.42,5.42,0,1,1,10.74,1.47L257.07,382.9c-1.59-.15-3.18-.24-4.79-.27a42.92,42.92,0,0,0-6.17.37ZM242.76,389.88c5.87-1.71,12.77-1,19.22.15s12.63,3.75,17.15,8,7,10.12,7.88,16.53.47,13.13-.31,20a147.9,147.9,0,0,0-1.29,17v.6c-5.15-1.39-10.87-1.26-16.44-.93-5.14.31-10.35.64-15.54,1.3l4.48-32.62a48.43,48.43,0,0,1,5.43,1.1h0c-2.07-3.18-5.76-5-9.2-6s-7-1.28-10.17-2.1a21.53,21.53,0,0,1-8.4-3.87,8.71,8.71,0,0,1-3.41-7,12.36,12.36,0,0,1,3.2-7.63,13.19,13.19,0,0,1,3.28-2.74A18.67,18.67,0,0,1,242.76,389.88Zm9.34,29.2-15,109a5.42,5.42,0,1,1-10.74-1.47L241.31,418l.42-.58,1.11.27C246.09,418.31,249.13,418.71,252.1,419.08Zm-40.36,12.55c-1.7-13.31-.07-25.39,4.7-34.94,4.54-9.09,14.66-19.12,24.93-22.23l-1.37,10a24.09,24.09,0,0,0-4.43,2.07,19.54,19.54,0,0,0-4.65,4A17.67,17.67,0,0,0,226.61,402a13.77,13.77,0,0,0,1.6,6.27,14.81,14.81,0,0,0,4.08,4.78,21.38,21.38,0,0,0,3.49,2.16l-.16,1.18c-.37.6-.72,1.21-1.1,1.81-1.05,1.7-2.23,3.31-3.42,4.93s-2.45,3.2-3.8,4.73a39.31,39.31,0,0,0-3.83,5,18.21,18.21,0,0,0,5.7-2.92,59.13,59.13,0,0,0,5-4l.21-.2-4.63,33.74a44.35,44.35,0,0,0-8.06,5.67c-.51-1.44-1-2.91-1.57-4.4C216.55,450.92,212.91,440.77,211.74,431.63ZM217,482.44c1.69-5.9,5.85-11.3,11.66-15.44l-3,21.79c-1.27.72-2.54,1.46-3.78,2.24a70.31,70.31,0,0,0-5.94,4.23A40,40,0,0,1,217,482.44ZM333.06,682.29c-2.18-.92-4.75-1.88-7.46-2.9a127.32,127.32,0,0,1-14.19-5.93,34.43,34.43,0,0,1-3.78-6.87,36.09,36.09,0,0,1-2.24-8.47,33.63,33.63,0,0,1-.08-8.91,85,85,0,0,1,1.72-9.09,21.1,21.1,0,0,0-4.44,8.55,37.7,37.7,0,0,0-1.27,9.73,34.59,34.59,0,0,0,1,8c-1.76-1.9-3.34-3.94-5-6.12a98.78,98.78,0,0,0-6.87-8.23c-6.06-6.35-12.3-12.09-18.34-17.64-20.84-19.16-40.52-37.26-47.36-76.39q-.69-4-1.4-7.94c-2.77-15.55-5.6-31.59-6.85-47.58a90.77,90.77,0,0,1,8.35-7.16l-4.18,30.46a11.29,11.29,0,0,0,9.63,12.71h0a11.48,11.48,0,0,0,1.54.1,11.29,11.29,0,0,0,11.16-9.74l6.38-46.43c2.49-.89,5-1.78,7.57-2.72a36.88,36.88,0,0,0-7.27.48l3-21.69c5.54-.79,11.18-1.14,16.72-1.47,7.86-.47,15.35-.55,20.4,3.64,4.22,3.5,6,9.72,7.51,14.71l14.18,48.37c2.9,9.87,6.18,21.07,13.85,29.52A49.52,49.52,0,0,0,336,561.89a28.63,28.63,0,0,0-2.27,1.85,29.59,29.59,0,0,0-5.43,6.61,31.45,31.45,0,0,0-3.33,7.71,16.85,16.85,0,0,0-.34,8.22c1-2.59,1.86-5,2.94-7.27a28.2,28.2,0,0,1,4.05-6.31,30.8,30.8,0,0,1,5.37-5,29.7,29.7,0,0,1,4.58-2.67c2.16,1.14,4.3,2.21,6.37,3.23l31,15.3c.43,13.34,7.25,29.39,11.91,37.85,6.41,11.63,16.88,24.25,24.94,32.6a26.17,26.17,0,0,0-.32,3.89V687c-13.62,5.21-24,10.72-32,16.22,0-1.75-.07-3.5-.06-5.25a202.48,202.48,0,0,1,1.79-23.93c.89-8,2.25-15.92,2.6-24.31-1,1.83-1.9,3.71-2.76,5.6a51.08,51.08,0,0,0-2.27,5.79c-.68,2-1.31,3.93-1.87,5.92s-1,4-1.43,6a163.54,163.54,0,0,0-2.95,24.73c0,.93,0,1.86,0,2.8Zm26.79,66.48c2.89,10.35,11.19,19.49,23.25,25A56.47,56.47,0,0,0,399,778.26c.49.18,1,.34,1.47.53-15.66,7.76-39.1,18.87-48.23,21.41a100.41,100.41,0,0,0-38.6-39.81C328.68,751.29,344.58,747.08,359.85,748.77Zm-87.78,53.58c1.75.5,3.49,1,5.21,1.65a72.61,72.61,0,0,1,8,3.47,61.4,61.4,0,0,1,7.54,4.49c2.42,1.67,4.8,3.42,7.42,5.07a27.86,27.86,0,0,0-5.68-7.22,67.39,67.39,0,0,0-7.17-5.84,59.85,59.85,0,0,0-8.05-4.71c-1.3-.64-2.64-1.21-4-1.74,9.71-13.9,20.91-25.24,32.79-33.51a94.46,94.46,0,0,1,40,40.85l.95,1.9,2.11-.32c10.16-1.55,48.85-20.83,57-24.92a357.37,357.37,0,0,0,77.62,17.59,11.06,11.06,0,0,0,11,9.76h41.95a11.07,11.07,0,0,0,10.75-8.54c10.7-.78,21.37-2,32-3.85a342.33,342.33,0,0,0,44-10.53c10.29,7.1,23.78,15.16,35.76,22.31,3,1.77,5.82,3.48,8.52,5.11l2.37,1.42,1.56-2.27c9.6-14,25.26-27.14,41.15-34.57a172.24,172.24,0,0,1,17.63,16.44c-1.52,1.2-3,2.45-4.43,3.79a77.22,77.22,0,0,0-5.57,5.73q-2.61,3-5,6.2a27,27,0,0,0-3.85,7,59.7,59.7,0,0,0,5.93-5.15q2.77-2.68,5.74-5.11c2-1.59,3.94-3.21,6-4.68,1.64-1.2,3.32-2.34,5-3.47a167.12,167.12,0,0,1,12.22,15.76c-20.29,18.38-36,44-42.21,69.09a134.71,134.71,0,0,0,2.18,71.86c-9.67-7.55-16.36-17.93-22.47-28.59a61.52,61.52,0,0,1-1-8.74,65.11,65.11,0,0,1,.37-10,50.76,50.76,0,0,1,2.08-9.8,80.54,80.54,0,0,1,3.75-9.52,23.88,23.88,0,0,0-6.33,8.5,54.51,54.51,0,0,0-4.88,18.9c-5.14-9-10.66-18-17.87-24.91-10.93-10.54-36.56-32.34-63.76-35.23,1.45-.8,2.87-1.64,4.26-2.56a76.74,76.74,0,0,0,8.12-6.09,29.81,29.81,0,0,0,6.51-7.72L609,845.18a71.4,71.4,0,0,1-8.44,4.74c-2.93,1.37-5.87,2.68-8.9,3.77s-6,2.07-9,2.95c-73.78,14.33-106.07,8.29-127.43,4.28h-.08c-2.9-1.4-5.77-2.84-8.61-4.35s-5.86-3.28-8.73-5a90.48,90.48,0,0,1-8.29-5.73l-8-6.32a32.37,32.37,0,0,0,6.2,8.39,95.25,95.25,0,0,0,7.77,7c1.62,1.34,3.31,2.57,5,3.77-14.54-1.23-26.66,2.75-52,24.4-4.19,4.06-7.95,7.85-11.39,11.43a51.15,51.15,0,0,0,.81-8.38,46.1,46.1,0,0,0-1-10.41,18.09,18.09,0,0,0-4.73-9.2,39.27,39.27,0,0,1,2,9.63,42.88,42.88,0,0,1-.35,9.67,64.23,64.23,0,0,1-2.1,9.45,61.28,61.28,0,0,1-3.33,8.6,270.21,270.21,0,0,0-17.35,21.42,73,73,0,0,0,1.22-9.06,74.55,74.55,0,0,0-.13-12.94,35.64,35.64,0,0,0-3.42-12.37,124,124,0,0,1,.65,12.52,71.11,71.11,0,0,1-1.14,12.28,95.7,95.7,0,0,1-2.93,12A109.9,109.9,0,0,1,341,939.1l.19.08C336,946.42,331.09,952,322,958.26a95.38,95.38,0,0,0,3.86-63.48c-6.73-23.09-22.66-43.62-43.85-56.68a61.36,61.36,0,0,0-10.07-22.05,40.13,40.13,0,0,0-4.91-5.36Q269.46,806.4,272.07,802.35Zm40.7,161.53.05,0-.36.21c-.19-8.73-2.17-18.34-6-29-2-5.59-4.32-11.13-6.57-16.48-3.83-9.12-7.79-18.54-10.09-28.18-1.92-8.1-2.82-16.82-3.68-25.26-.65-6.31-1.31-12.7-2.41-19,17.56,12.32,30.68,30.24,36.49,50.17A89.49,89.49,0,0,1,312.77,963.88Zm-8,48.67a5.12,5.12,0,0,1-4.82,1.75c-3.08-.65-3.47-3.78-3.41-6.4a58.53,58.53,0,0,1,.88-9.06c5.47-4.32,9.78-9.43,11.8-14.75a50.44,50.44,0,0,0,3-13.18c2.25-1.22,4.38-2.41,6.32-3.56a3.5,3.5,0,0,1,.86,2.15A61.52,61.52,0,0,1,304.79,1012.55Zm-37.55-193c9.65,12.86,11.31,29.08,13.07,46.25.89,8.62,1.8,17.54,3.82,26,2.41,10.11,6.46,19.76,10.38,29.09,2.22,5.29,4.51,10.75,6.46,16.19,5.79,16.2,7.12,29.67,4,41a39.55,39.55,0,0,1-1.25,3.91,22.29,22.29,0,0,1-3.26,5.64,45.65,45.65,0,0,1-13.21,11,45,45,0,0,0,10.18-14.74c8.72-20.44.59-39.31-7.28-57.55a188.37,188.37,0,0,1-7.82-20.2c-3.1-10.41-4.24-21.87-5.34-32.95-1.84-18.56-3.74-37.75-14.95-52.82a49.74,49.74,0,0,0-22.91-16.93C250.33,805.42,260.79,811,267.24,819.56Zm-7.63,184.85h-.75c-18.85-.46-26.4-14.32-35-33.84-6.39-14.49-14.93-26.73-23.19-38.56-1.71-2.45-3.44-4.93-5.16-7.45.75-.38,1.5-.73,2.23-1.13,1.79-1,3.59-1.9,5.36-2.91l5.3-3a23.4,23.4,0,0,0,5-3.7,23.45,23.45,0,0,0-6.12,1.16l-5.83,1.83c-2,.6-3.85,1.3-5.78,2-1.11.38-2.2.8-3.3,1.21-2.25-3.38-4.43-6.87-6.55-10.43l11.83-6.37c4.46-2.4,9-4.67,13.5-7s9.06-4.57,13.64-6.77,9.13-4.47,13.57-7.09a113.15,113.15,0,0,0-14.66,4.55q-7.16,2.7-14.26,5.61c-4.74,1.91-9.4,4-14.07,6.09q-6.27,2.85-12.43,6c-8.94-16.63-12.17-35.52-9-52.55q3.66-2.19,7.36-4.35c2.85-1.68,5.77-3.23,8.68-4.82s5.88-3.06,8.89-4.46,6-2.82,9-4.52a40.54,40.54,0,0,0-10,1.94c-3.23,1-6.42,2.13-9.59,3.33s-6.26,2.57-9.34,4c-1.06.48-2.11,1-3.16,1.51,5.4-17.27,18.07-31.24,33.22-36.2a40.86,40.86,0,0,1,12.73-2,45,45,0,0,1,35.67,17.61,49.8,49.8,0,0,1,3.48,5.38c-3.36.75-6.73,1.5-10.08,2.31-4.26,1-8.53,2-12.77,3.12L225.28,838a103.71,103.71,0,0,0-12.6,3.94,104.35,104.35,0,0,0,13.14-1.23l13-1.95c4.34-.62,8.66-1.38,13-2.06,3.9-.63,7.79-1.32,11.68-2,5,11.68,6.33,25.13,7.73,39.18,1.12,11.36,2.29,23.09,5.55,34.05,1.07,3.58,2.38,7.15,3.79,10.69-1.79.49-3.56,1-5.3,1.65a69.81,69.81,0,0,0-7.5,3.2q-3.64,1.83-7.07,4a26.6,26.6,0,0,0-6.21,5.21,68.79,68.79,0,0,0,7.48-2.76c2.41-1,4.86-1.88,7.33-2.65s4.94-1.49,7.45-2c2-.46,4-.86,6-1.22.68,1.6,1.37,3.2,2.05,4.79,1.3,3,2.58,6,3.78,8.95a48.4,48.4,0,0,0-5.06,1.22,58.9,58.9,0,0,0-6.48,2.35,56.25,56.25,0,0,0-6.1,3.09,19.6,19.6,0,0,0-5.35,4.28,48.34,48.34,0,0,0,6.48-1.75c2.07-.68,4.17-1.24,6.27-1.73s4.2-.93,6.31-1.22,4-.54,6.07-.72c4.65,12.74,7,25.28,1.35,38.47C286.24,995.34,273.26,1004.41,259.61,1004.41Zm53,180.56a76.92,76.92,0,0,0-1.6-19.08A73.38,73.38,0,0,0,294.25,1133a76.37,76.37,0,0,0-14.51-12.48,41.44,41.44,0,0,1,17.69,9.22,52.22,52.22,0,0,1,12.52,16,51.69,51.69,0,0,1,5.59,19.5A41.31,41.31,0,0,1,312.63,1185Zm108.87,98.35a79.39,79.39,0,0,1-35-27.62c-1.88-2.65-3.66-6-2.49-9s4.83-4.33,8.1-4.64c8.18-.79,16.35,2,23.47,6.16,9.31,5.4,17.69,13.84,19.38,24.47.7,4.37-.35,9.74-4.41,11.52C427.67,1285.45,424.38,1284.47,421.5,1283.32Zm33.88-6.94a27,27,0,0,1-1.59,6.38,22.49,22.49,0,0,1-3.35,5.64,22.82,22.82,0,0,1-10.32,7.31,20.17,20.17,0,0,1-6.18,1,16.12,16.12,0,0,1-5.92-1.31,17.89,17.89,0,0,0,11-2.31,22.28,22.28,0,0,0,7.79-7.36A23.57,23.57,0,0,0,449,1281a21.63,21.63,0,0,0,.9-5.1,26.35,26.35,0,0,0-1.57-10.4,38.42,38.42,0,0,0-12.89-17.33c-5.91-4.68-12.88-8.21-20-11.69a58.23,58.23,0,0,1,22.65,8,41.26,41.26,0,0,1,9.48,8.12,35.78,35.78,0,0,1,6.3,11A30.26,30.26,0,0,1,455.38,1276.38Zm146.94,28.12a28.27,28.27,0,0,1-13.16.39,22,22,0,0,1-6.39-2.63,19.08,19.08,0,0,1-5.34-4.66,15.51,15.51,0,0,1-3-6.67,23.62,23.62,0,0,1-.28-6.9,24.88,24.88,0,0,1,5-12.4,36.05,36.05,0,0,1,9.48-8.7,69,69,0,0,1,23.06-9c-7.52,3.22-14.87,6.87-21.06,11.8a36.81,36.81,0,0,0-7.83,8.46,22,22,0,0,0-3.46,10.32,16.38,16.38,0,0,0,.47,5.26A12.14,12.14,0,0,0,582,1294a17.76,17.76,0,0,0,3.82,3.37,21.5,21.5,0,0,0,4.8,2.25,32.71,32.71,0,0,0,11.16,1.18c3.94-.16,8-.71,12.18-1A51.5,51.5,0,0,1,602.32,1304.5ZM654,1262.67c-1.91,6.56-6.65,12.4-12.38,16.33-9.2,6.31-20.64,8.51-31.43,10.6a11.82,11.82,0,0,1-10.57-2.91c-5.29-5.19-1.67-12.33,2.66-17,11.57-12.43,29.63-18.32,46.34-15.58A6.78,6.78,0,0,1,654,1262.67Zm112.67-234c.48,9.73-1.61,19.22-3.83,29.27s-4.49,20.39-4,30.94c.34,6.69,1.81,13.24,3.23,19.56.79,3.52,1.56,6.94,2.14,10.34l-.87-.3a15.84,15.84,0,0,0-8.36-.14,16.68,16.68,0,0,0-7.33,3.73,23.36,23.36,0,0,0-4.73,6.17,46,46,0,0,0-4.38,13.83c-.82,4.61-1.58,9.23-2.1,13.92,1.86-4.34,3.46-8.74,5-13.14s3-8.7,5.39-12.28A18.45,18.45,0,0,1,751,1126a12.4,12.4,0,0,1,5.17-2.25c3.69-.71,7.44.4,9,2.91,0,.77.08,1.54.09,2.31.14,13.1-5.16,26.19-9.83,37.74l-3.44,8.47q-7,6.45-14.65,12.65a13.22,13.22,0,0,1-2.1,0,22.09,22.09,0,0,1-10.48-3.88c-6.39-4.15-9.79-12.07-10.78-20.58a64.44,64.44,0,0,1,2.84-26.1,118.14,118.14,0,0,1,11.53-25,44.34,44.34,0,0,0-10.62,9.89,54.78,54.78,0,0,0-7.47,12.69,72.13,72.13,0,0,0-4.23,14.25,59.88,59.88,0,0,0-1,15.06,42.71,42.71,0,0,0,3.57,15.27,31.88,31.88,0,0,0,4.27,7.06,29.71,29.71,0,0,0,6.13,5.73,32.63,32.63,0,0,0,7.49,4c-28.58,21.06-62.49,38.53-97.31,47.73-19.62,5.19-40.19,8.26-60.27,5.27S529,1236.12,518.21,1219c-10.65,13.51-32.27,15.37-46.6,5.85s-21.12-28.09-19.05-45.18a114.7,114.7,0,0,1-37.34-25.29c-16.87,13.35-42,14.32-60.73,3.73s-30.65-31.58-31.94-53.06c-.95-16,5.7-33.49,17.61-43.15a46.08,46.08,0,0,1,4.46-1.92c9.84-3.55,20.89-2.67,30.76,1.2a55.25,55.25,0,0,1,24.78,19.74c6.33,8.81,10.64,19,13.69,29.8a64.78,64.78,0,0,0-10.4-32.05,60,60,0,0,0-26.1-22.25,50.1,50.1,0,0,0-20-4.3,57.11,57.11,0,0,1,3.33-36.57c-12.86-2.51-23.51-12.85-28.4-25.23a95.52,95.52,0,0,1-7.95,14.19A84.8,84.8,0,0,1,312,1019c-4.67,4.26-10.05,8.06-16.2,9.6,6-2,10.94-6.13,15.17-10.64a82.75,82.75,0,0,0,10.92-15.06A91.37,91.37,0,0,0,329.39,986c.29-.91.56-1.82.82-2.73a36.1,36.1,0,0,1-.06-14.82c1-4.77.85-7.56.06-9,8.9-7,13.61-13.72,19.92-22.73,7.62-10.91,18.06-25.85,42.34-49.37,30.9-26.44,39.28-24.88,61.68-20.68,2.28.43,4.69.88,7.26,1.32a42.9,42.9,0,0,0-8.87,5.18,36.46,36.46,0,0,0-4.45,4.06,35.11,35.11,0,0,0-3.65,4.8,26.51,26.51,0,0,0-2.4,5.47,19.38,19.38,0,0,0-.74,5.77c3-7.07,8.54-11.67,14.61-15s12.93-5.59,19.16-5.38a13.66,13.66,0,0,1,8,2.69,12.17,12.17,0,0,1,4.26,7.25,11.89,11.89,0,0,1-1.75,8.84A15.27,15.27,0,0,1,477.4,898a14.17,14.17,0,0,0,11.12-3.84,15.76,15.76,0,0,0,3.74-5.29,16,16,0,0,0,1.23-6.59,17.54,17.54,0,0,0-4.36-11.11c21.3,1.12,50.81-.29,94.79-8.84,30.64-6,64.42,23.84,74.05,33.12,7.87,7.58,13.54,17.67,19.54,28.36q1.41,2.5,2.84,5v0h0c10.08,17.67,21.5,34.86,44.8,41.35a47,47,0,0,0,1.54,4.84c3,7.93,11.09,15.37,20.49,20.45a40.77,40.77,0,0,0-3.91,11.87,38,38,0,0,0,2.94,22.47,36.46,36.46,0,0,1,6.44-31.73c1.07.45,2.14.86,3.22,1.24.65.93,1.32,1.82,2,2.7C762,1007.46,765.87,1012.55,766.65,1028.63ZM853,895.44c-4.11-2.06-8.25-4.06-12.44-6-4.66-2.09-9.32-4.19-14.06-6.1s-9.49-3.8-14.26-5.61a111.58,111.58,0,0,0-14.66-4.54c4.44,2.61,9,4.88,13.57,7.09s9.13,4.45,13.64,6.77,9,4.61,13.5,7l11.82,6.36q-3.17,5.35-6.54,10.44c-1.1-.41-2.19-.84-3.3-1.22-1.93-.64-3.83-1.34-5.78-2l-5.83-1.82a23.45,23.45,0,0,0-6.12-1.16,23.74,23.74,0,0,0,5,3.7l5.3,3c1.77,1,3.57,1.94,5.36,2.91.73.4,1.48.75,2.23,1.13q-2.59,3.78-5.17,7.46c-8.26,11.83-16.8,24.06-23.18,38.55-8.6,19.52-16.15,33.38-35,33.84h-.75A33.79,33.79,0,0,1,755.62,988l-1.68-1.92a3.71,3.71,0,0,0-.27.29,38.9,38.9,0,0,1-9.81-13.73c-5.63-13.18-3.3-25.72,1.35-38.46q3,.27,6.06.71c2.12.3,4.21.76,6.32,1.22s4.2,1.06,6.27,1.73a46.88,46.88,0,0,0,6.48,1.75,20,20,0,0,0-5.35-4.28,58.06,58.06,0,0,0-12.58-5.44,51.21,51.21,0,0,0-5.07-1.21c1.21-3,2.49-5.94,3.79-8.95.68-1.59,1.37-3.19,2-4.8,2,.37,4,.77,6,1.23,2.51.56,5,1.31,7.45,2s4.92,1.65,7.32,2.65a69.72,69.72,0,0,0,7.49,2.75,27.1,27.1,0,0,0-6.21-5.21c-2.28-1.43-4.64-2.76-7.07-4a69.81,69.81,0,0,0-7.5-3.2c-1.74-.64-3.51-1.17-5.3-1.65,1.41-3.54,2.72-7.12,3.79-10.69,3.26-11,4.43-22.7,5.55-34.05,1.4-14,2.74-27.51,7.73-39.19,3.88.71,7.77,1.4,11.68,2,4.32.68,8.64,1.43,13,2.06l13,1.95a106.25,106.25,0,0,0,13.14,1.23,102,102,0,0,0-12.6-4l-12.74-3.23c-4.24-1.1-8.51-2.07-12.77-3.11-3.35-.81-6.72-1.56-10.08-2.31a49.8,49.8,0,0,1,3.48-5.38c8.29-11.15,22-17.61,35.67-17.61a40.86,40.86,0,0,1,12.73,2c14.9,4.88,27.39,18.47,32.93,35.33-.83-.38-1.65-.77-2.48-1.13-3.15-1.35-6.3-2.66-9.52-3.77s-6.46-2.17-9.72-3.13a45.41,45.41,0,0,0-10.07-1.85,99.53,99.53,0,0,0,9.12,4.46q4.6,2,9.07,4.27c3,1.53,6,3,8.85,4.64,2.25,1.25,4.47,2.54,6.68,3.84C865.26,859.23,862.09,878.51,853,895.44Z"/><path d="M226.63,52.12c-11.38-8.87-28.22-8-40.85-1S163.89,64,156.59,76.44C147,63.11,139.33,54.84,125.09,48s-32.88-6-44.17,5C68.71,65,67.2,86,75.85,100.71c14.89,25.35,61.44,58.55,78.86,76.82,19.37-19,67.34-57.43,77-73.7S241.57,63.77,226.63,52.12Z"/></g></g></svg>