<svg xmlns="http://www.w3.org/2000/svg" viewBox="0 0 609.95 738.16"><title>Asset 2</title><g id="Layer_2" data-name="Layer 2"><g id="Layer_1-2" data-name="Layer 1"><path d="M77.51,633.66a35.17,35.17,0,0,0,15.78,9.7,24.34,24.34,0,0,0,9.67.7,17,17,0,0,0,4.92-1.4,33.56,33.56,0,0,0,4.13-2.27,39.27,39.27,0,0,1,6.93-3.91,59.58,59.58,0,0,0,8.25-3.57,76.27,76.27,0,0,0,14.58-10.29c7.73-6.76,14.33-14.39,21.87-20.39a18,18,0,0,0,5.87,2.29,13.62,13.62,0,0,0,8.21-.89l5.73-3c7.36-3.8,15-7.08,22.7-10.32,9-3.79,18.28-7.24,27.5-10.89-10.4,20.63-19.41,30.25-25,36.21-2.29,2.43-4.29,4.56-5.35,6.74a36.65,36.65,0,0,0-4-2.14,68.37,68.37,0,0,0-17.58-5.3,59.45,59.45,0,0,0-18.55-.21A51.89,51.89,0,0,0,154,617a39.73,39.73,0,0,0-8.56,4.37,35.88,35.88,0,0,0-12.53,14.49A31.36,31.36,0,0,0,130.13,653a12.43,12.43,0,0,0-4.1,6.43,18.92,18.92,0,0,0-.18,8.81,20.64,20.64,0,0,0,3.47,8,31.24,31.24,0,0,0,5.83,5.88A70.14,70.14,0,0,0,148.66,690l13.62,6.39,54.43,25.48,13.6,6.37c4.54,2.09,9,4.32,13.87,6.23a48.15,48.15,0,0,0,15.49,3.7c5.4.19,11.35-.65,16.19-4.76,2.52-2.28,3.6-5.08,4.66-7.22a20.87,20.87,0,0,1,1.59-2.87c.44-.66,1.47-1.74,2.27-2.82a45.4,45.4,0,0,0,7.2-14.23c2.75-8.64,3.57-17.41,6.08-25.2l.39,0a16.14,16.14,0,0,0,5.56-.89,10.54,10.54,0,0,0,5.2-3.86l.74-1.17.55-.91c.36-.62.78-1.21,1.16-1.82.8-1.19,1.64-2.38,2.5-3.55,7-9.36,15.55-18.13,22.37-28.53a78.26,78.26,0,0,0,12.22-29.68c.47,0,.95.06,1.42.08,4.89,1.57,9.81,3,14.78,4.37,6.12,1.62,12.26,3.08,18.57,4.2,1.6.26,3.15.54,4.9.69q2.39.19,4.77.33,4.77.25,9.57.21a120.23,120.23,0,0,0,19.17-1.64A65.78,65.78,0,0,0,440.2,613a33.9,33.9,0,0,0,8.34-5.89c2.29-2.29,4.44-4.59,6.57-7a123.65,123.65,0,0,0,11.65-15.3,75.54,75.54,0,0,0,8.47-17.56,181.8,181.8,0,0,0,4.52-18.57c.15-.77.27-1.55.42-2.33,16.13-1,40.31-10.21,58.48-18.14,13.78-6,24.81-14.47,32.79-25.13,15-19.95,18.83-45.86,22-75.21,2.79-25.47,5.63-51.32,8.47-77.17,2.64-24,5.28-48.06,7.88-71.79a18.52,18.52,0,0,0-4.05-14.15c-15.61-18-29.9-27-49.68-30.87a184.63,184.63,0,0,0,9.13-16.08A158.83,158.83,0,0,0,581.78,138a136.67,136.67,0,0,0-8.46-40.32A130.54,130.54,0,0,0,552.8,61.88a166.09,166.09,0,0,0-29.5-28.61c-.53-.41-1.08-.8-1.61-1.2h0l-.1-.05a156.44,156.44,0,0,0-33.79-19.49C462.42,1.83,434.36-1.79,407.09.8c-2,.19-4,.42-5.95.67h0A166.11,166.11,0,0,0,366.9,9.3a139,139,0,0,0-36.53,19,132,132,0,0,0-29,29.29,150.84,150.84,0,0,0-17.47,32.09,144.16,144.16,0,0,0-22.76,72.56l-.85-.18a97.33,97.33,0,0,0-14-1.3,108.91,108.91,0,0,0-14,.8,120.6,120.6,0,0,0-22.48,5.18,46,46,0,0,0-10.86-.23,56.12,56.12,0,0,0-15.53,3.68c-9.89,3.89-18.88,10.78-24.32,20.23A34.55,34.55,0,0,0,154.42,206a28.25,28.25,0,0,0,1.91,10.76,83.26,83.26,0,0,0-2.69,7.89,78.38,78.38,0,0,0-10-8.09,84.34,84.34,0,0,0-16-8.63,91,91,0,0,0-26.5-6.36c-3-.29-6.07-.23-9.1-.35a103.15,103.15,0,0,0-27.91,4.26,104.14,104.14,0,0,0-25.73,11.89A88.37,88.37,0,0,0,17.2,236.68a74.73,74.73,0,0,0-13,25.87,91.15,91.15,0,0,0,3.4,56.7c7,17.89,18.7,33.38,32.5,46.06S70,388,86.54,396.17c8.3,4.08,16.75,7.76,25.25,11.2s17.23,6.7,25.93,9.47c17.42,5.61,34.9,10.73,52.53,15.54,4.42,1.19,8.83,2.35,13.37,3.41,1.12.27,2.27.53,3.51.75a13.4,13.4,0,0,0,2.33.33,7.76,7.76,0,0,0,1.61,0c.44-.11.88-.24,1.32-.37a10,10,0,0,0,2.17-.92,16.32,16.32,0,0,0,1.79-1,37.34,37.34,0,0,0,3.09-2.16,129.59,129.59,0,0,0,14.14-13.12c.38.45.76.89,1.19,1.31s.71.69,1.1,1,.77.62,1.07.84c4.06,3.07,8.2,6,12.38,8.92a61,61,0,0,0-22.45,3.13c-12.41,4.06-21.2,9.49-32.27,16.72-27.19,17.76-48.72,27.07-63,33.22-10,4.33-17.23,7.46-21.15,11.3-.34-.68-.68-1.36-1.06-2a39.79,39.79,0,0,0-3.09-4.55A65.61,65.61,0,0,0,91,474.48a66.41,66.41,0,0,0-9.27-5.32,62.6,62.6,0,0,0-10.15-3.55,50.28,50.28,0,0,0-21.53-.78,49.63,49.63,0,0,0-19.84,8.24,44.47,44.47,0,0,0-8,7.22A42.74,42.74,0,0,0,17,487.88a16.24,16.24,0,0,0-7.88,3.49,25.22,25.22,0,0,0-9,16.82,19.51,19.51,0,0,0,0,2.54c.07.8.09,1.6.23,2.38a31.32,31.32,0,0,0,1,4.64c1.79,6,5,11.21,8.12,16.06l9.57,14.33,38.22,57.19,9.56,14.3A93.8,93.8,0,0,0,77.51,633.66Zm182.41,98.63a42.78,42.78,0,0,1-13.6-3.29c-4.48-1.78-9-4-13.53-6.1l-13.6-6.37-54.43-25.48-13.59-6.36a65.48,65.48,0,0,1-12.39-7.2,25.93,25.93,0,0,1-4.74-4.74,14.77,14.77,0,0,1-2.45-5.71,13.2,13.2,0,0,1,.08-6.07,7.41,7.41,0,0,1,1.08-2.32c8.35,11,21.2,20.23,39.17,28.1L270.61,730A19.07,19.07,0,0,1,259.92,732.29Zm79.16-110.84a75.36,75.36,0,0,1-3.35,6.81,30.64,30.64,0,0,0-4.57-4.47,29.76,29.76,0,0,0-5.49-3.39,13.56,13.56,0,0,0-6.2-1.49c1.63,1.45,3.21,2.61,4.73,3.84a31.67,31.67,0,0,1,4.15,4,32.29,32.29,0,0,1,3.29,4.58c.38.66.73,1.34,1.07,2-.69,1.09-1.39,2.17-2.12,3.23-3.31,4.81-7.06,9.38-10.89,14s-7.84,9.18-11.47,14.24c-.91,1.27-1.8,2.55-2.65,3.87-.42.67-.86,1.33-1.26,2l-1.05,1.78c-.7,1.17-2.76,2-5.27,2a21.29,21.29,0,0,1-7.65-1.55,53.72,53.72,0,0,1-7.82-3.47c-5-2.7-9.73-6.41-15.06-9.49a59.67,59.67,0,0,0-17.06-7c4.9,3.77,9.69,7.21,14.29,11a118.58,118.58,0,0,0,14.85,10.77,61.27,61.27,0,0,0,8.58,4.1c1.18.46,2.43.88,3.72,1.25-2.58,8.38-3.36,16.77-5.84,24.36a39.62,39.62,0,0,1-6.28,12.44c-.34.47-.71.9-1.08,1.35a19.52,19.52,0,0,0-1.34,1.7,26.28,26.28,0,0,0-2.07,3.68c-.27.58-.53,1.13-.79,1.66l-100.18-43.9c-18-7.89-30.46-17.06-38.11-28a26.93,26.93,0,0,1,3.1-14.32,29.27,29.27,0,0,1,4.5-6.22,28.91,28.91,0,0,1,5.93-4.92,37.6,37.6,0,0,1,14.66-5.23,56.57,56.57,0,0,1,16.12.11,69.07,69.07,0,0,1,15.76,4.37,38.22,38.22,0,0,1,6.84,3.87,58.13,58.13,0,0,1,6.22,5.28c7.91,7.74,14.64,16.95,22.64,25.75a72.25,72.25,0,0,0-6.9-16.36,69.05,69.05,0,0,0-10.74-14.4,58.42,58.42,0,0,0-5.86-5.32c-.24-.81.22-1.65,1.81-3.46,4.62-1.57,10.26-.75,15.64.78a101.67,101.67,0,0,1,16.55,6.82c5.4,2.73,10.74,5.72,16,8.87a121.54,121.54,0,0,0,16.44,8.65,79.55,79.55,0,0,0-14.11-12.24c-5.09-3.56-10.29-7-15.77-10.09a90.89,90.89,0,0,0-17.39-7.78,38.54,38.54,0,0,0-9.75-1.87c-.41,0-.84,0-1.27,0,6.23-7,15.35-18.58,25.17-39.5,3.77-1.56,7.52-3.18,11.24-4.91,4.28-2,8.55-4.15,12.69-6.55,18.12,17.13,40.19,29.16,62.9,38.44,4.81,1.94,9.67,3.72,14.56,5.41A74.25,74.25,0,0,1,339.08,621.45Zm56.84-147.93c25.13,13.81,54.14,21,93.31,23.17L489,497c-.72.76-1.4,1.57-2.05,2.37-2.61,3.22-4.59,6.74-6.91,9.19a13.63,13.63,0,0,1-8.64,4.27,45.31,45.31,0,0,1-11-.07c-3.75-.41-7.54-1.09-11.31-1.86a261.57,261.57,0,0,1-44.33-13.4,148.7,148.7,0,0,1-20.58-10.21,84.8,84.8,0,0,1-12.36-9,60.76,60.76,0,0,0,9.31-.68A72.76,72.76,0,0,0,395.92,473.52Zm191.74-46.28c-3.11,28.47-6.84,53.56-20.9,72.33-7.37,9.84-17.62,17.67-30.45,23.27-23.65,10.33-42.91,16.43-55.07,17.56q.88-5.21,1.59-10.44c.79-6,1.43-12,1.71-18.05,2.78-3.15,4.56-6.38,6.78-9.08.58-.71,1.16-1.41,1.78-2.07l.46-.5.6-.67a13.82,13.82,0,0,0,1.1-1.48,22.21,22.21,0,0,0,2.59-6.17,73.48,73.48,0,0,0,1.87-12.05c.37-3.94.63-7.82,1.11-11.57s1.2-7.47,2.73-10.22a9.05,9.05,0,0,1,.62-.91l.33-.42.49-.57c.65-.78,1.34-1.53,2-2.33,1.28-1.58,2.48-3.21,3.63-4.89a77.45,77.45,0,0,0,6-10.54c.13-.27.24-.56.36-.83l2.11,0a153.32,153.32,0,0,0,69.26-16.57C588.11,423.11,587.88,425.18,587.66,427.24Zm-64.12-10a198.87,198.87,0,0,0,67-16.09L589.11,414a147.61,147.61,0,0,1-69.7,17.71A94.39,94.39,0,0,0,523.54,417.2ZM604,278.27c-2.6,23.73-5.24,47.76-7.88,71.79q-2.45,22.19-4.87,44.31a192.89,192.89,0,0,1-66.6,16.9A388.92,388.92,0,0,0,530,368.68c.48-7.86,1-15.66.83-23.68a175.71,175.71,0,0,0-2.27-23.7,134.27,134.27,0,0,0-5.83-23.18c-.07-.21-.16-.42-.23-.63,5.92-2.35,12-5,17.94-7.55,21.39-9.24,43.49-18.75,63-17.63A14,14,0,0,1,604,278.27ZM459.24,325.83a93.68,93.68,0,0,0-31.34,10.88,91.89,91.89,0,0,0-16.18,11.77c-4.35,3.89-8.41,8-12.41,12.07-4.38-2.58-9.35-5.26-14.7-8,13.4-13.64,39.55-34.08,64.91-36.15,11.41-.33,24.62-1.48,36.17-7.47,8.59-4.46,22.44-11.66,22.55-26.82,4.26,5,7.27,11.29,9.58,17.73A118.44,118.44,0,0,1,522,314.94C502.55,311.4,476.6,315.82,459.24,325.83Zm-85,49.35h0a10.26,10.26,0,0,1-2.84,4.95l-.75-.36c-3.78-2-7.6-3.84-11.44-5.69a10.5,10.5,0,0,1,.29-2.59,10,10,0,0,1,3.9-5.85,7.24,7.24,0,0,1,4.15-1.38,6.13,6.13,0,0,1,1.54.19,6.94,6.94,0,0,1,4.47,3.73A10.07,10.07,0,0,1,374.28,375.18Zm4.75,4.13a17.67,17.67,0,0,0,.93-2.71,15.84,15.84,0,0,0-1.15-11.08,12.51,12.51,0,0,0-18.72-4.68,15.89,15.89,0,0,0-6.23,9.23c-.11.44-.19.87-.27,1.31q-11.83-5.5-24-10.33l6.86-23.53c20.95,8.44,43.18,18.4,58.63,27.33-3.63,3.67-7.28,7.25-11.13,10.51-1.19,1-2.39,2-3.63,3Zm-89.67-32.24-1.78-.52q6.6-11.12,12.47-22.66c8.8,3,19.54,7,30.91,11.45l-6.86,23.57q-12.59-4.83-25.41-9C295.59,349,292.48,348,289.36,347.07Zm89.73,2.8c-24.66-12-55.6-24.11-76.31-31.24l0-.09c3.47-7.11,6.69-14.36,9.57-21.75.92-2.32,1.79-4.65,2.64-7a117.26,117.26,0,0,0,14.47,5.9c34,11.9,66.75,18.73,97.63,20.42C408.33,323.68,390.81,337.51,379.09,349.87Zm220.29-83.5c-19.68.25-40.78,9.35-61.27,18.2-5.88,2.54-12,5.17-17.82,7.49-.75-1.7-1.57-3.38-2.47-5a47.35,47.35,0,0,0-5.77-8.38,130.41,130.41,0,0,0,30.61-26.49,157.41,157.41,0,0,0,9.94-13C571.37,242.41,584.88,250.25,599.38,266.37ZM548.22,65.52a124.85,124.85,0,0,1,19.62,34.17,131.29,131.29,0,0,1,8.1,38.61A153.16,153.16,0,0,1,560,215.2a163.63,163.63,0,0,1-21.92,33,130.31,130.31,0,0,1-29.86,25.67A127.38,127.38,0,0,1,471.86,289c-12.87,3.14-26.08,4.64-39.62,6.06a105.93,105.93,0,0,0,40.79-.94,126.86,126.86,0,0,0,29.18-10c-1.17,9.39-9.71,14.69-19.22,19.63-10.53,5.47-23,6.52-33.74,6.82-36.56,1-76.22-5.83-117.9-20.42a108.35,108.35,0,0,1-14.47-6c1.5-4.51,2.86-9.08,4-13.71q.72-2.83,1.35-5.72c33.35,14.26,80.46,27,107.75,23.88a15.32,15.32,0,0,0,10.13-5.82c13-16.34,24.2-31.79,32.85-47.53,2,13.94,9.34,25.21,20.7,29.47a27.88,27.88,0,0,0,9.82,1.76c16.83,0,34.65-14.45,42.87-36.38,4.71-12.57,5.63-25.74,2.59-37.08-3.13-11.69-10.07-20.09-19.56-23.65-12.68-4.75-27.29.42-38.6,12a144,144,0,0,0-2-42.78,5.53,5.53,0,0,0-1.77-3.15C466.2,117.31,436.46,100,403.77,88.73c8.29-25,21.56-41.47,43.74-54.37,20.08-11.67,49.82-10.6,70.84,2.52.46.35.94.69,1.4,1A160.33,160.33,0,0,1,548.22,65.52ZM437.31,164.69c-8.4-7-11.31-17.4-6.51-23.14s15.52-4.69,23.93,2.35,11.32,17.4,6.51,23.14S445.72,171.73,437.31,164.69Zm17.11,30.12a7.39,7.39,0,1,1-.92-10.4A7.38,7.38,0,0,1,454.42,194.81Zm49.49,65.9a12.83,12.83,0,0,1-7.69-6.53c-2-3.67-2.73-8-3.13-11.33a78.88,78.88,0,0,1,15.46-56.58c6.35-8.32,12.76-12.09,19.07-11.24,7.53,2.93,13.11,9.86,15.71,19.57,2.72,10.17,1.86,22.07-2.42,33.5C533.61,247.58,518.23,260.56,503.91,260.71Zm0-78a84.68,84.68,0,0,0-16.61,60.81,37.13,37.13,0,0,0,3.68,13.2c-12.49-8.62-16.54-29.85-8.75-50.63,6-15.92,17.34-27.5,29.11-31.28A47.49,47.49,0,0,0,503.89,182.73ZM402.24,7.23c1.8-.22,3.6-.43,5.4-.6,26.41-2.51,53.49,1,77.91,11.28q4.17,1.74,8.2,3.74c-17.19-2.9-35.29-.42-49.18,7.65-23.2,13.49-37.64,31.39-46.35,57.59C377.9,80.38,356.6,76.25,335.68,75.7,344.88,46.69,370.15,14.57,402.24,7.23ZM306.1,61.06a125.92,125.92,0,0,1,27.73-28,133,133,0,0,1,35-18.23c2.19-.76,4.41-1.46,6.63-2.11-22.33,14.77-39,39.93-45.86,62.91a154,154,0,0,0-34.77,4.09A139.58,139.58,0,0,1,306.1,61.06Zm-23,52c3.18-7.71,7-15.58,13.81-20.46,7.73-5.57,30.67-9.74,56.32-1-20.57.77-39.12,7.73-54.88,24.77-8.75,9.47-18.05,31.2-21.36,50.67-1-.44-2.05-.86-3.08-1.27l-1.19-.4C271.42,147.8,276.28,129.61,283.11,113.07ZM158.76,206.24A30.3,30.3,0,0,1,163,192.73c4.85-8.36,13-14.63,22.07-18.17a51.44,51.44,0,0,1,14.25-3.33,37.71,37.71,0,0,1,14.31,1.22,45.1,45.1,0,0,1,12.88,6.49c1.84,1.36,3.22,2.94,3.49,4.6a3,3,0,0,1-1.87,3.61,7.08,7.08,0,0,1-5.47-.42c-1.58-.8-2.9-3-5.43-5a10.89,10.89,0,0,0-1-.67l-.89-.48c-.59-.32-1.19-.62-1.8-.91a34.7,34.7,0,0,0-3.8-1.55,18.15,18.15,0,0,0-4.27-.93,9.31,9.31,0,0,0-2.54.15,6.27,6.27,0,0,0-1.39.46,3.79,3.79,0,0,0-1.66,1.47,3.89,3.89,0,0,0-.51,2,8.91,8.91,0,0,0,.06,1.16c0,.68.13,1.35.22,2,.18,1.34.44,2.66.75,4a61.75,61.75,0,0,0,2.36,7.58c.46,1.22.94,2.43,1.43,3.63a18.28,18.28,0,0,1,1.16,3.27,3.66,3.66,0,0,1,0,2.31,1.24,1.24,0,0,1-1.3.61c-1.35.06-3.12-1.7-4.83-3.53a49.75,49.75,0,0,1-4.65-5.71,39.19,39.19,0,0,1-3.63-6.33c-.5-1.1-.85-2.24-1.42-3.31a11.9,11.9,0,0,0-2.52-3.24l-.84,1.51.27-.22a7,7,0,0,0-.29,3,14.12,14.12,0,0,0,1.24,3.87c.48,1.11,1,2.18,1.62,3.23.4,1.19.81,2.34,1.22,3.55.77,2.2,1.55,4.45,2.15,6.55.31,1.13.6,2.22.81,3.28a15.6,15.6,0,0,1,.34,2.93,1.31,1.31,0,0,1-.16.65.7.7,0,0,1-.32.25,2.19,2.19,0,0,1-.79.18,3.67,3.67,0,0,1-1-.12c-3.4-1.1-6.24-4.6-8.14-8.55-1.24-2.37-2-5-3.16-7.51a16.46,16.46,0,0,0-3.4-4.91,16.73,16.73,0,0,0,.72,9.7c.52,1.55,1.15,3.08,1.79,4.63a30.36,30.36,0,0,0,2.62,4.7c1.07,2.17,2.23,4.27,3.39,6.23,2,3.81.84,5.18-2.39,5a13,13,0,0,1-4.89-2.55,5.48,5.48,0,0,1-1.89-1.8c-.59-.83-1.17-1.77-1.77-2.71-.76-1.22-1.59-2.42-2.4-3.63-1.73-2.56-3.54-5.11-5.53-7.7a20.22,20.22,0,0,0,1,7.17,37.14,37.14,0,0,0,2.53,6.49,35.62,35.62,0,0,1,.32,3.73c0,1.22,0,2.44-.06,3.64a15.84,15.84,0,0,1-.47,3.08l-.12,0c-.18-.07-.34,0-.55-.15a8.17,8.17,0,0,1-2.46-1.73,23,23,0,0,1-4.11-5.68C160,215.58,158.53,210.77,158.76,206.24ZM214.69,426a19.63,19.63,0,0,1-4.64,2.8,1.15,1.15,0,0,0-.31.11c-.1,0-.06-.09-.09-.08.17,0-.56-.1-1-.21-1-.19-2.07-.45-3.15-.72-4.31-1.05-8.68-2.26-13-3.48-17.41-5-34.8-10.28-51.93-16-8.61-2.85-16.85-6-25.21-9.55s-16.51-7.18-24.49-11.22c-15.93-8.09-31.11-17.59-44-29.61s-23.54-26.3-29.7-42.45-7.67-34-3.3-50.43a65.74,65.74,0,0,1,10.79-22.86A81.48,81.48,0,0,1,43.08,224.4a92.33,92.33,0,0,1,23.3-11.62,96,96,0,0,1,25.75-4.64c2.82.09,5.65,0,8.45.21a80.86,80.86,0,0,1,8.38,1,81.15,81.15,0,0,1,31.23,12.29,83.43,83.43,0,0,1,6.8,5,60.19,60.19,0,0,1,6,5.69l4,4.55,1.1-5.93v0a62.34,62.34,0,0,1,1.82-7,24.15,24.15,0,0,0,3.64,4.44,12.12,12.12,0,0,0,3.85,2.54,7.06,7.06,0,0,0,1.3.33,3.83,3.83,0,0,0,1.44,0l.75-.09h.1l.27-.09a3.5,3.5,0,0,0,.51-.27,3.39,3.39,0,0,0,.58-.53,4.44,4.44,0,0,0,.76-1.5,18.39,18.39,0,0,0,.63-4.29c0-.58,0-1.17,0-1.75l0,0,.68.55a15.9,15.9,0,0,0,7.28,3.75,9.59,9.59,0,0,0,4.79-.45,7.2,7.2,0,0,0,4.05-3.5,8,8,0,0,0,.29-6.08,6.93,6.93,0,0,0,4.2-.65,5.42,5.42,0,0,0,2.22-2.14,5.94,5.94,0,0,0,.68-2.74,15.71,15.71,0,0,0-.57-4.06c-.15-.58-.33-1.1-.5-1.64a25.09,25.09,0,0,0,2.21,2.11,8,8,0,0,0,4.62,2,5.82,5.82,0,0,0,2.89-.55,5.18,5.18,0,0,0,2.25-2.17,7.48,7.48,0,0,0,.48-5.17,23.15,23.15,0,0,0-1.34-4c-.47-1.17-.93-2.34-1.36-3.51a60.33,60.33,0,0,1-2.14-7.08c-.26-1.19-.49-2.38-.64-3.57-.07-.6-.14-1.2-.18-1.79,0-.15,0-.31,0-.45l.12,0a5.18,5.18,0,0,1,1.28,0,13.22,13.22,0,0,1,3.19.75,29.86,29.86,0,0,1,3.29,1.38c.54.26,1.08.54,1.62.83l.8.44c.18.11.37.23.56.37,1.57,1.1,2.95,3.58,5.88,5.33a11.75,11.75,0,0,0,4.57,1.37,10.8,10.8,0,0,0,4.82-.61,7.65,7.65,0,0,0,4.06-3.53,8.12,8.12,0,0,0,.74-5.23,10.11,10.11,0,0,0-2-4.48,17.22,17.22,0,0,0-3.2-3.09,50.17,50.17,0,0,0-6.9-4.21c-.92-.46-1.87-.88-2.82-1.29a113,113,0,0,1,13.26-2.49,102.58,102.58,0,0,1,13.22-.73,92.65,92.65,0,0,1,13.11,1.25,81.06,81.06,0,0,1,12.65,3.47,78.1,78.1,0,0,1,11.77,5.75,75.45,75.45,0,0,1,32.33,40,68.06,68.06,0,0,1,3.38,25.82A133.26,133.26,0,0,1,315.11,269c-4.47,17.33-11.44,34-19.72,50-4.51,8.72-9.38,17.25-14.53,25.61l-1.08-.26a23.71,23.71,0,0,0-11.19-.1,23.27,23.27,0,0,0-5.87,2.47c.09-1.47.32-3.16.49-4.81.39-3.41.67-6.63,1.1-10,.78-6.62,1.66-13.67.14-20.79-.22-.89-.38-1.72-.71-2.68a8.53,8.53,0,0,0-1.64-3,6.28,6.28,0,0,0-3.37-2,7.74,7.74,0,0,0-3.56.11,8.69,8.69,0,0,0-3,1.52,11.5,11.5,0,0,0-2.14,2.23,27.46,27.46,0,0,0-2.67,4.73,69.37,69.37,0,0,0-5.66,17.92l-.45-.26-.73-.43-.74-.4c-.41-.22-.82-.43-1.21-.69a20.37,20.37,0,0,1-4.31-3.63,42.1,42.1,0,0,1-6.36-9.91c-1.78-3.61-3.32-7.53-5.3-11.35a40,40,0,0,0-7.68-10.89,10.91,10.91,0,0,0-3.35-2.4,5.58,5.58,0,0,0-2.94-.33A5.82,5.82,0,0,0,206,291a8.9,8.9,0,0,0-2.53,3.6,13.91,13.91,0,0,0-.93,3.59,43,43,0,0,0-.53,4.92,28.46,28.46,0,0,0-3.29-4.4,11.88,11.88,0,0,0-2.68-2.21,5.86,5.86,0,0,0-1.41-.52,6.36,6.36,0,0,0-1.14-.15,7.19,7.19,0,0,0-2.19.25,8.88,8.88,0,0,0-5.66,4.94,14.84,14.84,0,0,0-1.18,6.21c0,1.87.16,3.56.33,5.33a62.33,62.33,0,0,0,1.28,7.83,12.44,12.44,0,0,0-4.83-1,10.53,10.53,0,0,0-2.74.31,8.24,8.24,0,0,0-1.52.57,4.55,4.55,0,0,0-.88.54,4.2,4.2,0,0,0-1,1.11,9.65,9.65,0,0,0-1.23,5.59c.07,1.62.32,2.93.5,4.37a51.21,51.21,0,0,0,5.57,16.06,43.58,43.58,0,0,0,2.68,4.31h-.11a7.07,7.07,0,0,0-3.22,1.61,7.81,7.81,0,0,0-2.08,2.83,6,6,0,0,0-.19,3.88,11.65,11.65,0,0,0,1.21,2.9,32.25,32.25,0,0,0,3.17,4.51c4.72,5.59,10.6,9.42,15.84,13.59s10.74,8.44,16.6,12.25a85.63,85.63,0,0,0,16.53,8.4,21.08,21.08,0,0,0-.85,4.87,17.5,17.5,0,0,0,.47,4.84A130.51,130.51,0,0,1,214.69,426Zm17.17-29.43a79.79,79.79,0,0,1-15.16-7.37c-5.64-3.5-11-7.59-16.49-11.65S189,369.8,184.82,365a27.71,27.71,0,0,1-2.78-3.77,7.59,7.59,0,0,1-.8-1.76,1.94,1.94,0,0,1-.05-1.14,3.34,3.34,0,0,1,2.16-1.94,4.48,4.48,0,0,1,3.16.77,35.71,35.71,0,0,0,11.1,8.15c-1.75-2.16-3.43-4.25-5-6.38s-3-4.33-4.34-6.55a61.86,61.86,0,0,1-6.37-14,54.34,54.34,0,0,1-1.72-7.45c-.16-1.23-.4-2.59-.45-3.67a5.4,5.4,0,0,1,.18-1.95l.12-.05a4.86,4.86,0,0,1,1.27-.18,7.71,7.71,0,0,1,2.89.46,11.06,11.06,0,0,1,4.45,3.16c.54,1.38,1.11,2.74,1.74,4.08,3,6.24,6.61,12.48,12.69,16.25-2.55-6.55-5.93-12-8.1-18.16a82.35,82.35,0,0,1-2.69-9.31,80.91,80.91,0,0,1-1.4-9.52c-.2-3.18-.47-6.66.4-8.39a2.83,2.83,0,0,1,1.65-1.55.94.94,0,0,1,.31,0h0a8.69,8.69,0,0,1,1.06.92,38.64,38.64,0,0,1,5.31,7.48,63.46,63.46,0,0,1,3.32,7c1,6.44,2.83,12.67,6.81,18.08.47-8.82-2.41-16.51-2.7-24.6a50.94,50.94,0,0,1,.63-11.86,9.08,9.08,0,0,1,.64-2.44,3.77,3.77,0,0,1,1-1.5c.28-.17.11-.09.31-.07a7.08,7.08,0,0,1,1.62,1.34,35.39,35.39,0,0,1,6.7,9.45c1.85,3.58,3.52,7.37,5.5,11.21a43.28,43.28,0,0,0,7.6,10.75,25.18,25.18,0,0,0,5.44,4.13,14.82,14.82,0,0,0,1.55.76l.67.29.65.32a11.42,11.42,0,0,0,1.74.75,4.17,4.17,0,0,0,1.36.23,3.13,3.13,0,0,0,1.86-.61l.6-.46.14-.74v0a65.81,65.81,0,0,1,6.14-18.4,24.26,24.26,0,0,1,2.34-3.94,5,5,0,0,1,2.79-2,2.17,2.17,0,0,1,2.29.52,9.22,9.22,0,0,1,1.18,3.59c1.14,6.08.25,12.55-.73,19.12-.51,3.3-.91,6.74-1.36,10-.22,1.66-.49,3.27-.66,5.12a12.4,12.4,0,0,0,.06,3.25,6.69,6.69,0,0,0,.3,1.1c-9.91,8.76-16.44,20.28-21,32C234.67,387.34,233.19,392,231.86,396.6ZM241,417.1c-.35-.25-.61-.47-.83-.66a6.76,6.76,0,0,1-.68-.63,10.93,10.93,0,0,1-1.21-1.42,11.5,11.5,0,0,1-1.6-3.33,10.91,10.91,0,0,1-.44-3.67,17.08,17.08,0,0,1,.82-4,173.18,173.18,0,0,1,5.85-18.07,93.74,93.74,0,0,1,8.3-16.69,61.11,61.11,0,0,1,5.48-7.36,50,50,0,0,1,6.43-6.35,19.46,19.46,0,0,1,7.19-3.86,16.82,16.82,0,0,1,8,.15c2.64.59,5.53,1.49,8.36,2.31a.86.86,0,0,1-.14.13c-1.24,1.21-2.53,2.4-3.72,3.69s-2.38,2.62-3.48,4a13.29,13.29,0,0,0-2.55,4.75,26.52,26.52,0,0,0,4.48-2.76c1.36-1,2.77-1.93,4.18-2.86l4.28-2.78,2.11-1.39a5.6,5.6,0,0,1,1.51-.74h0c1.08.34,2.16.65,3.24,1a476.76,476.76,0,0,1,71.09,29.26,21.34,21.34,0,0,0,5.11,1.89,31.25,31.25,0,0,1,2.73,2.56,36.77,36.77,0,0,1,4.28,5.63,33.08,33.08,0,0,1,3.15,6.5c.82,2.29,1.5,4.61,2.22,7.15a15.9,15.9,0,0,0,.46-7.84,36.43,36.43,0,0,0-2.19-7.65,30.07,30.07,0,0,0-2.21-4.39c.68.14,1.33.28,2,.43a36.76,36.76,0,0,1,6.1,2.05,37.59,37.59,0,0,1,5.78,3.12c1.86,1.21,3.65,2.53,5.74,3.77a16.68,16.68,0,0,0-4-5.91,34.64,34.64,0,0,0-12.07-7.93c-.56-.22-1.1-.42-1.64-.61l1.29-1c1.33-1,2.6-2.09,3.85-3.18,5.05-4.33,9.6-9,14.12-13.68,9-9.28,17.79-18.46,28.61-24.56a85.83,85.83,0,0,1,35.37-11.1,48.39,48.39,0,0,1,18,1.88A63.58,63.58,0,0,1,501,341c-2.15-6.58-8.23-11.46-14.77-13.64a47.45,47.45,0,0,0-11.29-2.23c15.54-5.46,34.09-7.15,48.26-3.95l.18,1a168.72,168.72,0,0,1,2.16,23c.17,7.62-.37,15.45-.86,23.18a380.85,380.85,0,0,1-6.09,46.16,86.81,86.81,0,0,1-6.9,21.63,74.07,74.07,0,0,1-5.62,9.79q-1.6,2.33-3.37,4.52c-.58.74-1.22,1.43-1.82,2.15l-.47.54-.58.73a16.13,16.13,0,0,0-1,1.51c-2.27,4.14-2.87,8.28-3.45,12.27s-.79,7.92-1.15,11.77a67.92,67.92,0,0,1-1.73,11.1l-.16.52c-37.5-1.8-65.49-8.16-89.49-20.43,5.16-2.41,10.11-5.15,14.95-7.95l12.47-7.32c3.85-.18,7.72-.41,11.59-.8s7.8-.83,11.66-1.57A95.27,95.27,0,0,0,465,450.11a29.93,29.93,0,0,0,10.45-5.48,105.1,105.1,0,0,1-11.15,2.8,90.89,90.89,0,0,1-11.3,1.44c-3.81.25-7.62.44-11.45.48h-1.2L451.17,443c11.16-6.51,22.34-13,32.2-21.7-12.45,4.28-23.57,10.84-34.74,17.34L415.1,458c-1.91,1.1-3.84,2.16-5.78,3.21l.49-.63c3.32-4.54,6.35-9.15,8.22-14.47a61.64,61.64,0,0,0-5.68,6c-1.74,2.08-3.51,4.11-5.4,6-.93.94-1.91,1.84-2.93,2.7s-2,1.7-3,2.48c-2.08,1.54-4.39,3.13-6.57,4.9h0a66.48,66.48,0,0,1-14.09,3.8c-12.18,1.79-24.81-1-37.2-4A256.51,256.51,0,0,1,306.84,456a283.91,283.91,0,0,1-34.16-17.26q-8-4.79-15.76-10.07a19.32,19.32,0,0,1-1-8.8c.37-3.46,1.62-7,2.77-10.65a109.79,109.79,0,0,1,3.86-10.67,74,74,0,0,1,5.26-10.08,26.87,26.87,0,0,0-7.73,8.82,114.36,114.36,0,0,0-5.19,10.47,53.5,53.5,0,0,0-4,11.28,22.27,22.27,0,0,0-.48,5C247.22,421.77,244.09,419.47,241,417.1ZM228.68,440c13-4.24,25.44-3.9,35.15.94l.06-.12c1.84,1.13,3.67,2.27,5.53,3.36q11.2,6.51,22.94,12a30.27,30.27,0,0,1,5.59,7.66c-5.05,1.53-12.11,4.07-19.5,6.74-10.46,3.77-24.35,8.78-29.63,9.58a46.19,46.19,0,0,0-7.45-10.51,105.55,105.55,0,0,0-29-22.53A93.35,93.35,0,0,1,228.68,440ZM51.35,472.5a45,45,0,0,1,18.26.91,55.76,55.76,0,0,1,16.91,7.67,62.62,62.62,0,0,1,13.78,12.73c4,4.61,6.12,10.35,7.49,16.56,2.55,12.46,2.44,25.69,3.63,39.25a84.05,84.05,0,0,0,4.24-20,73.71,73.71,0,0,0-.9-20.71,58.42,58.42,0,0,0-1.66-6.63c.54-1.94,2.49-3.67,6-5.65a19.11,19.11,0,0,1,7.42,2.84,39.25,39.25,0,0,1,7.14,6.05c4.42,4.69,8,10.31,11.47,16s6.49,11.76,9.42,17.86a147.83,147.83,0,0,0,9.77,18,96,96,0,0,0-5.85-19.73,195.68,195.68,0,0,0-8.58-18.79,87.18,87.18,0,0,0-11.8-17.44,38.32,38.32,0,0,0-8.37-7.13,25.67,25.67,0,0,0-2.79-1.51c2.09-.93,4.41-1.94,7-3.06,4-1.74,8.62-3.73,13.73-6.07a51.06,51.06,0,0,0,6.17,3.44,52.35,52.35,0,0,1,8.7,4.93,37.2,37.2,0,0,1,7.18,6.9,89.84,89.84,0,0,1,5.86,8.48A24.94,24.94,0,0,0,172,497.4a40.41,40.41,0,0,0-6.85-8.46,48.67,48.67,0,0,0-8.83-6.31c-.94-.57-1.83-1.12-2.71-1.69a375,375,0,0,0,44.19-24.86c3.08-2,6-3.86,8.82-5.59l-.13.26A99.47,99.47,0,0,1,237,473.62c2.48,2.76,5.54,6.46,7.2,10.66l.65,1.64,1.74.2c.25,0,.52,0,.81,0,4.86,0,15.91-3.85,33-10,8.78-3.17,17.07-6.16,21.84-7.39l2.27-.59-.08-2.35A12.57,12.57,0,0,0,303,461c.49.21,1,.44,1.48.64a262.9,262.9,0,0,0,37.25,12.11,194.87,194.87,0,0,0,19.31,3.75l2,.23a80.2,80.2,0,0,0,18.11,14.5,157.1,157.1,0,0,0,21.41,10.59A268,268,0,0,0,448,516.43c3.89.79,7.82,1.49,11.84,1.92a50.57,50.57,0,0,0,12.42,0,21.7,21.7,0,0,0,6.16-1.79c-.32,4.2-.79,8.42-1.34,12.62q-1.21,9.22-3,18.37a173.29,173.29,0,0,1-4.33,17.95,69.72,69.72,0,0,1-7.81,16.21,117.75,117.75,0,0,1-11.08,14.59c-2,2.29-4.16,4.56-6.3,6.71a28.62,28.62,0,0,1-6.95,4.91,60.45,60.45,0,0,1-17,5.38,113,113,0,0,1-18.24,1.59c-3.07,0-6.14,0-9.22-.2-1.53-.08-3.07-.18-4.6-.3s-2.92-.38-4.41-.62c-6-1.06-12.1-2.49-18.09-4.07-.64-.17-1.27-.36-1.9-.54.64-.16,1.29-.32,1.93-.51a61.57,61.57,0,0,0,9.43-3.57,24.4,24.4,0,0,0,8.09-5.91c-3.11,1.26-6.08,2.36-9.12,3.34a58.36,58.36,0,0,1-9.28,2.16,64.81,64.81,0,0,1-9.39.75c-1.74,0-3.47-.09-5.17-.27-6.72-2.17-13.37-4.54-19.92-7.17-21.33-8.67-42-19.81-59-35.14a24.51,24.51,0,0,0,4.85-.29,27.37,27.37,0,0,0,13.38-6.07,14.39,14.39,0,0,0,4.34-5.75c-2.1,1.24-4,2.42-5.9,3.46a27.27,27.27,0,0,1-6,2.35,27.58,27.58,0,0,1-6,.87,42.35,42.35,0,0,0,8.09-8.55A29.14,29.14,0,0,0,289.56,537a64.41,64.41,0,0,1-8,9.52,82.2,82.2,0,0,1-9.36,7.68,115.74,115.74,0,0,1-21.62,11.73q-4.43,1.88-8.91,3.62c.41-1.33.78-2.64,1.09-3.94.53-2.12,1-4.2,1.63-6.23s1.28-4,1.88-6.26a15.11,15.11,0,0,0-4.42,5.16c-1.11,2-2.07,4-3,6s-1.72,3.95-2.73,5.66a17.06,17.06,0,0,1-1.6,2.36c-4.55,1.73-9.13,3.42-13.72,5.12a22.85,22.85,0,0,0,.39-3,28.36,28.36,0,0,0-.15-5.38,11.13,11.13,0,0,0-1.76-5,36.57,36.57,0,0,0-1,5,32.77,32.77,0,0,1-1.12,4.67,32,32,0,0,1-1.72,4.37c-.27.57-.57,1.12-.87,1.67q-5.52,2.09-11,4.28c-7.88,3.13-15.65,6.64-23.25,10.56l-5.43,2.89a6.79,6.79,0,0,1-4.13.43,13.8,13.8,0,0,1-4.58-1.85,21.09,21.09,0,0,1-4.09-3.58,51.48,51.48,0,0,1-6.84-9.66c-1.86-3.52-3.43-7.31-5.11-11.18a90.08,90.08,0,0,0-5.89-11.42,57,57,0,0,0-8-10.07c3.37,7.92,6.2,15.51,8.8,23.47a95.05,95.05,0,0,0,4.83,12,57.26,57.26,0,0,0,7.39,11.11c.52.62,1.1,1.23,1.69,1.83-7.65,6.29-14,13.58-21,19.69a70.42,70.42,0,0,1-13.45,9.51,53.79,53.79,0,0,1-7.52,3.25,42.82,42.82,0,0,0-8,4.45c-.23.15-.45.27-.67.4L39.67,539.48c-12.29-17.28-18.16-33-18-48C28.06,481.12,39.46,474.39,51.35,472.5ZM23.77,544.88,14.24,530.6c-3.1-4.71-5.92-9.47-7.39-14.49a25.08,25.08,0,0,1-.8-3.77c-.11-.63-.12-1.26-.18-1.9a11.43,11.43,0,0,1,0-1.75,18.47,18.47,0,0,1,2.17-7c1.77-3.38,4.67-6.33,7.8-7.51.47,15.43,6.71,31.41,19,48.72l67.8,95.28c-.17,0-.34.09-.52.11a18.62,18.62,0,0,1-7.36-.55,29.58,29.58,0,0,1-13.15-8.16,88.79,88.79,0,0,1-10.11-13.18L62,602.07Z"/></g></g></svg>