  0
SECTION
  2
HEADER
  9
$ACADVER
  1
AC1027
  9
$ACADMAINTVER
 70
   125
  9
$DWGCODEPAGE
  3
ANSI_1252
  9
$REQUIREDVERSIONS
160
                 0
  9
$INSBASE
 10
0.0
 20
0.0
 30
0.0
  9
$EXTMIN
 10
1.000000000000000E+20
 20
1.000000000000000E+20
 30
1.000000000000000E+20
  9
$EXTMAX
 10
-1.000000000000000E+20
 20
-1.000000000000000E+20
 30
-1.000000000000000E+20
  9
$LIMMIN
 10
0.0
 20
0.0
  9
$LIMMAX
 10
12.0
 20
9.0
  9
$ORTHOMODE
 70
     0
  9
$REGENMODE
 70
     1
  9
$FILLMODE
 70
     1
  9
$QTEXTMODE
 70
     0
  9
$MIRRTEXT
 70
     0
  9
$LTSCALE
 40
1.0
  9
$ATTMODE
 70
     1
  9
$TEXTSIZE
 40
0.2
  9
$TRACEWID
 40
0.05
  9
$TEXTSTYLE
  7
Standard
  9
$CLAYER
  8
0
  9
$CELTYPE
  6
ByLayer
  9
$CECOLOR
 62
   256
  9
$CELTSCALE
 40
1.0
  9
$DISPSILH
 70
     0
  9
$DIMSCALE
 40
1.0
  9
$DIMASZ
 40
0.18
  9
$DIMEXO
 40
0.0625
  9
$DIMDLI
 40
0.38
  9
$DIMRND
 40
0.0
  9
$DIMDLE
 40
0.0
  9
$DIMEXE
 40
0.18
  9
$DIMTP
 40
0.0
  9
$DIMTM
 40
0.0
  9
$DIMTXT
 40
0.18
  9
$DIMCEN
 40
0.09
  9
$DIMTSZ
 40
0.0
  9
$DIMTOL
 70
     0
  9
$DIMLIM
 70
     0
  9
$DIMTIH
 70
     1
  9
$DIMTOH
 70
     1
  9
$DIMSE1
 70
     0
  9
$DIMSE2
 70
     0
  9
$DIMTAD
 70
     0
  9
$DIMZIN
 70
     0
  9
$DIMBLK
  1

  9
$DIMASO
 70
     1
  9
$DIMSHO
 70
     1
  9
$DIMPOST
  1

  9
$DIMAPOST
  1

  9
$DIMALT
 70
     0
  9
$DIMALTD
 70
     2
  9
$DIMALTF
 40
25.4
  9
$DIMLFAC
 40
1.0
  9
$DIMTOFL
 70
     0
  9
$DIMTVP
 40
0.0
  9
$DIMTIX
 70
     0
  9
$DIMSOXD
 70
     0
  9
$DIMSAH
 70
     0
  9
$DIMBLK1
  1

  9
$DIMBLK2
  1

  9
$DIMSTYLE
  2
Standard
  9
$DIMCLRD
 70
     0
  9
$DIMCLRE
 70
     0
  9
$DIMCLRT
 70
     0
  9
$DIMTFAC
 40
1.0
  9
$DIMGAP
 40
0.09
  9
$DIMJUST
 70
     0
  9
$DIMSD1
 70
     0
  9
$DIMSD2
 70
     0
  9
$DIMTOLJ
 70
     1
  9
$DIMTZIN
 70
     0
  9
$DIMALTZ
 70
     0
  9
$DIMALTTZ
 70
     0
  9
$DIMUPT
 70
     0
  9
$DIMDEC
 70
     4
  9
$DIMTDEC
 70
     4
  9
$DIMALTU
 70
     2
  9
$DIMALTTD
 70
     2
  9
$DIMTXSTY
  7
Standard
  9
$DIMAUNIT
 70
     0
  9
$DIMADEC
 70
     0
  9
$DIMALTRND
 40
0.0
  9
$DIMAZIN
 70
     0
  9
$DIMDSEP
 70
    46
  9
$DIMATFIT
 70
     3
  9
$DIMFRAC
 70
     0
  9
$DIMLDRBLK
  1

  9
$DIMLUNIT
 70
     2
  9
$DIMLWD
 70
    -2
  9
$DIMLWE
 70
    -2
  9
$DIMTMOVE
 70
     0
  9
$DIMFXL
 40
1.0
  9
$DIMFXLON
 70
     0
  9
$DIMJOGANG
 40
0.7853981633974483
  9
$DIMTFILL
 70
     0
  9
$DIMTFILLCLR
 70
     0
  9
$DIMARCSYM
 70
     0
  9
$DIMLTYPE
  6

  9
$DIMLTEX1
  6

  9
$DIMLTEX2
  6

  9
$DIMTXTDIRECTION
 70
     0
  9
$LUNITS
 70
     2
  9
$LUPREC
 70
     4
  9
$SKETCHINC
 40
0.1
  9
$FILLETRAD
 40
0.0
  9
$AUNITS
 70
     0
  9
$AUPREC
 70
     0
  9
$MENU
  1
.
  9
$ELEVATION
 40
0.0
  9
$PELEVATION
 40
0.0
  9
$THICKNESS
 40
0.0
  9
$LIMCHECK
 70
     0
  9
$CHAMFERA
 40
0.0
  9
$CHAMFERB
 40
0.0
  9
$CHAMFERC
 40
0.0
  9
$CHAMFERD
 40
0.0
  9
$SKPOLY
 70
     0
  9
$TDCREATE
 40
2459734.970787037
  9
$TDUCREATE
 40
2459734.554120370
  9
$TDUPDATE
 40
2459734.970787037
  9
$TDUUPDATE
 40
2459734.554120370
  9
$TDINDWG
 40
0.0000000000
  9
$TDUSRTIMER
 40
0.0000000000
  9
$USRTIMER
 70
     1
  9
$ANGBASE
 50
0.0
  9
$ANGDIR
 70
     0
  9
$PDMODE
 70
     0
  9
$PDSIZE
 40
0.0
  9
$PLINEWID
 40
0.0
  9
$SPLFRAME
 70
     0
  9
$SPLINETYPE
 70
     6
  9
$SPLINESEGS
 70
     8
  9
$HANDSEED
  5
97
  9
$SURFTAB1
 70
     6
  9
$SURFTAB2
 70
     6
  9
$SURFTYPE
 70
     6
  9
$SURFU
 70
     6
  9
$SURFV
 70
     6
  9
$UCSBASE
  2

  9
$UCSNAME
  2

  9
$UCSORG
 10
0.0
 20
0.0
 30
0.0
  9
$UCSXDIR
 10
1.0
 20
0.0
 30
0.0
  9
$UCSYDIR
 10
0.0
 20
1.0
 30
0.0
  9
$UCSORTHOREF
  2

  9
$UCSORTHOVIEW
 70
     0
  9
$UCSORGTOP
 10
0.0
 20
0.0
 30
0.0
  9
$UCSORGBOTTOM
 10
0.0
 20
0.0
 30
0.0
  9
$UCSORGLEFT
 10
0.0
 20
0.0
 30
0.0
  9
$UCSORGRIGHT
 10
0.0
 20
0.0
 30
0.0
  9
$UCSORGFRONT
 10
0.0
 20
0.0
 30
0.0
  9
$UCSORGBACK
 10
0.0
 20
0.0
 30
0.0
  9
$PUCSBASE
  2

  9
$PUCSNAME
  2

  9
$PUCSORG
 10
0.0
 20
0.0
 30
0.0
  9
$PUCSXDIR
 10
1.0
 20
0.0
 30
0.0
  9
$PUCSYDIR
 10
0.0
 20
1.0
 30
0.0
  9
$PUCSORTHOREF
  2

  9
$PUCSORTHOVIEW
 70
     0
  9
$PUCSORGTOP
 10
0.0
 20
0.0
 30
0.0
  9
$PUCSORGBOTTOM
 10
0.0
 20
0.0
 30
0.0
  9
$PUCSORGLEFT
 10
0.0
 20
0.0
 30
0.0
  9
$PUCSORGRIGHT
 10
0.0
 20
0.0
 30
0.0
  9
$PUCSORGFRONT
 10
0.0
 20
0.0
 30
0.0
  9
$PUCSORGBACK
 10
0.0
 20
0.0
 30
0.0
  9
$USERI1
 70
     0
  9
$USERI2
 70
     0
  9
$USERI3
 70
     0
  9
$USERI4
 70
     0
  9
$USERI5
 70
     0
  9
$USERR1
 40
0.0
  9
$USERR2
 40
0.0
  9
$USERR3
 40
0.0
  9
$USERR4
 40
0.0
  9
$USERR5
 40
0.0
  9
$WORLDVIEW
 70
     1
  9
$SHADEDGE
 70
     3
  9
$SHADEDIF
 70
    70
  9
$TILEMODE
 70
     1
  9
$MAXACTVP
 70
    64
  9
$PINSBASE
 10
0.0
 20
0.0
 30
0.0
  9
$PLIMCHECK
 70
     0
  9
$PEXTMIN
 10
1.000000000000000E+20
 20
1.000000000000000E+20
 30
1.000000000000000E+20
  9
$PEXTMAX
 10
-1.000000000000000E+20
 20
-1.000000000000000E+20
 30
-1.000000000000000E+20
  9
$PLIMMIN
 10
0.0
 20
0.0
  9
$PLIMMAX
 10
12.0
 20
9.0
  9
$UNITMODE
 70
     0
  9
$VISRETAIN
 70
     1
  9
$PLINEGEN
 70
     0
  9
$PSLTSCALE
 70
     1
  9
$TREEDEPTH
 70
  3020
  9
$CMLSTYLE
  2
Standard
  9
$CMLJUST
 70
     0
  9
$CMLSCALE
 40
1.0
  9
$PROXYGRAPHICS
 70
     1
  9
$MEASUREMENT
 70
     0
  9
$CELWEIGHT
370
    -1
  9
$ENDCAPS
280
     0
  9
$JOINSTYLE
280
     0
  9
$LWDISPLAY
290
     1
  9
$INSUNITS
 70
     4
  9
$HYPERLINKBASE
  1

  9
$STYLESHEET
  1

  9
$XEDIT
290
     1
  9
$CEPSNTYPE
380
     0
  9
$PSTYLEMODE
290
     1
  9
$FINGERPRINTGUID
  2
{05AC31F6-8787-2E4C-B60A-443BF431D9BE}
  9
$VERSIONGUID
  2
{90974588-8D8A-E046-A5A3-C4D2490D64F5}
  9
$EXTNAMES
290
     1
  9
$PSVPSCALE
 40
0.0
  9
$OLESTARTUP
290
     0
  9
$SORTENTS
280
   127
  9
$INDEXCTL
280
     0
  9
$HIDETEXT
280
     1
  9
$XCLIPFRAME
280
     2
  9
$HALOGAP
280
     0
  9
$OBSCOLOR
 70
   257
  9
$OBSLTYPE
280
     0
  9
$INTERSECTIONDISPLAY
280
     0
  9
$INTERSECTIONCOLOR
 70
   257
  9
$DIMASSOC
280
     2
  9
$PROJECTNAME
  1

  9
$CAMERADISPLAY
290
     0
  9
$LENSLENGTH
 40
50.0
  9
$CAMERAHEIGHT
 40
0.0
  9
$STEPSPERSEC
 40
2.0
  9
$STEPSIZE
 40
6.0
  9
$3DDWFPREC
 40
2.0
  9
$PSOLWIDTH
 40
0.25
  9
$PSOLHEIGHT
 40
4.0
  9
$LOFTANG1
 40
1.570796326794896
  9
$LOFTANG2
 40
1.570796326794896
  9
$LOFTMAG1
 40
0.0
  9
$LOFTMAG2
 40
0.0
  9
$LOFTPARAM
 70
     7
  9
$LOFTNORMALS
280
     1
  9
$LATITUDE
 40
37.795
  9
$LONGITUDE
 40
-122.394
  9
$NORTHDIRECTION
 40
0.0
  9
$TIMEZONE
 70
 -8000
  9
$LIGHTGLYPHDISPLAY
280
     1
  9
$TILEMODELIGHTSYNCH
280
     1
  9
$CMATERIAL
347
11
  9
$SOLIDHIST
280
     0
  9
$SHOWHIST
280
     1
  9
$DWFFRAME
280
     2
  9
$DGNFRAME
280
     0
  9
$REALWORLDSCALE
290
     1
  9
$INTERFERECOLOR
 62
     1
  9
$INTERFEREOBJVS
345
33
  9
$INTERFEREVPVS
346
30
  9
$CSHADOW
280
     0
  9
$SHADOWPLANELOCATION
 40
0.0
  0
ENDSEC
  0
SECTION
  2
CLASSES
  0
CLASS
  1
ACDBDICTIONARYWDFLT
  2
AcDbDictionaryWithDefault
  3
ObjectDBX Classes
 90
        0
 91
        1
280
     0
281
     0
  0
CLASS
  1
MATERIAL
  2
AcDbMaterial
  3
ObjectDBX Classes
 90
     1153
 91
        3
280
     0
281
     0
  0
CLASS
  1
VISUALSTYLE
  2
AcDbVisualStyle
  3
ObjectDBX Classes
 90
     4095
 91
       24
280
     0
281
     0
  0
CLASS
  1
SCALE
  2
AcDbScale
  3
ObjectDBX Classes
 90
     1153
 91
       17
280
     0
281
     0
  0
CLASS
  1
TABLESTYLE
  2
AcDbTableStyle
  3
ObjectDBX Classes
 90
     4095
 91
        1
280
     0
281
     0
  0
CLASS
  1
MLEADERSTYLE
  2
AcDbMLeaderStyle
  3
ACDB_MLEADERSTYLE_CLASS
 90
     4095
 91
        1
280
     0
281
     0
  0
CLASS
  1
ACDBSECTIONVIEWSTYLE
  2
AcDbSectionViewStyle
  3
ObjectDBX Classes
 90
     1025
 91
        1
280
     0
281
     0
  0
CLASS
  1
ACDBDETAILVIEWSTYLE
  2
AcDbDetailViewStyle
  3
ObjectDBX Classes
 90
     1025
 91
        1
280
     0
281
     0
  0
CLASS
  1
DICTIONARYVAR
  2
AcDbDictionaryVar
  3
ObjectDBX Classes
 90
        0
 91
        5
280
     0
281
     0
  0
CLASS
  1
CELLSTYLEMAP
  2
AcDbCellStyleMap
  3
ObjectDBX Classes
 90
     1152
 91
        1
280
     0
281
     0
  0
ENDSEC
  0
SECTION
  2
TABLES
  0
TABLE
  2
VPORT
  5
8
330
0
100
AcDbSymbolTable
 70
     1
1001
ACAD
1000
DbSaveVer
1071
      247
  0
VPORT
  5
57
330
8
100
AcDbSymbolTableRecord
100
AcDbViewportTableRecord
  2
*Active
 70
     0
 10
0.0
 20
0.0
 11
1.0
 21
1.0
 12
0.0
 22
0.0
 13
0.0
 23
0.0
 14
1.0
 24
1.0
 15
0.0
 25
0.0
 16
0.0
 26
0.0
 36
1.0
 17
-111.9583333053439
 27
3.302777776952218
 37
0.0
 40
214.1999999464498
 41
0.9999999999999998
 42
50.0
 43
0.0
 44
0.0
 50
0.0
 51
0.0
 71
     0
 72
   100
 73
     1
 74
     1
 75
     0
 76
     0
 77
     0
 78
     0
281
     0
 65
     1
110
0.0
120
0.0
130
0.0
111
1.0
121
0.0
131
0.0
112
0.0
122
1.0
132
0.0
 79
     0
146
0.0
 60
     3
 61
     5
292
     1
282
     1
141
0.0
142
0.0
 63
   250
421
  3355443
  0
ENDTAB
  0
TABLE
  2
LTYPE
  5
5
330
0
100
AcDbSymbolTable
 70
     1
  0
LTYPE
  5
5B
330
5
100
AcDbSymbolTableRecord
100
AcDbLinetypeTableRecord
  2
ByBlock
 70
     0
  3

 72
    65
 73
     0
 40
0.0
  0
LTYPE
  5
5C
330
5
100
AcDbSymbolTableRecord
100
AcDbLinetypeTableRecord
  2
ByLayer
 70
     0
  3

 72
    65
 73
     0
 40
0.0
  0
LTYPE
  5
5D
330
5
100
AcDbSymbolTableRecord
100
AcDbLinetypeTableRecord
  2
Continuous
 70
     0
  3
Solid line
 72
    65
 73
     0
 40
0.0
  0
ENDTAB
  0
TABLE
  2
LAYER
  5
2
330
0
100
AcDbSymbolTable
 70
     2
  0
LAYER
  5
54
330
2
100
AcDbSymbolTableRecord
100
AcDbLayerTableRecord
  2
0
 70
     0
 62
     7
  6
Continuous
370
    -3
390
F
347
21
348
0
  0
LAYER
  5
78
330
2
100
AcDbSymbolTableRecord
100
AcDbLayerTableRecord
  2
Layer 1
 70
     0
 62
     7
  6
Continuous
370
     0
390
F
347
21
348
0
  0
ENDTAB
  0
TABLE
  2
STYLE
  5
3
330
0
100
AcDbSymbolTable
 70
     2
  0
STYLE
  5
55
330
3
100
AcDbSymbolTableRecord
100
AcDbTextStyleTableRecord
  2
Standard
 70
     0
 40
0.0
 41
1.0
 50
0.0
 71
     0
 42
0.2
  3
txt
  4

  0
STYLE
  5
5A
330
3
100
AcDbSymbolTableRecord
100
AcDbTextStyleTableRecord
  2
Annotative
 70
     0
 40
0.0
 41
1.0
 50
0.0
 71
     0
 42
0.2
  3
txt
  4

1001
AcadAnnotative
1000
AnnotativeData
1002
{
1070
     1
1070
     1
1002
}
  0
ENDTAB
  0
TABLE
  2
VIEW
  5
6
330
0
100
AcDbSymbolTable
 70
     0
  0
ENDTAB
  0
TABLE
  2
UCS
  5
7
330
0
100
AcDbSymbolTable
 70
     0
  0
ENDTAB
  0
TABLE
  2
APPID
  5
9
330
0
100
AcDbSymbolTable
 70
     2
  0
APPID
  5
56
330
9
100
AcDbSymbolTableRecord
100
AcDbRegAppTableRecord
  2
ACAD
 70
     0
  0
APPID
  5
5E
330
9
100
AcDbSymbolTableRecord
100
AcDbRegAppTableRecord
  2
AcadAnnotative
 70
     0
  0
ENDTAB
  0
TABLE
  2
DIMSTYLE
  5
A
330
0
100
AcDbSymbolTable
 70
     2
100
AcDbDimStyleTable
 71
     0
  0
DIMSTYLE
105
58
330
A
100
AcDbSymbolTableRecord
100
AcDbDimStyleTableRecord
  2
Standard
 70
     0
340
55
  0
DIMSTYLE
105
59
330
A
100
AcDbSymbolTableRecord
100
AcDbDimStyleTableRecord
  2
Annotative
 70
     0
340
55
1001
AcadAnnotative
1000
AnnotativeData
1002
{
1070
     1
1070
     1
1002
}
  0
ENDTAB
  0
TABLE
  2
BLOCK_RECORD
  5
1
330
0
100
AcDbSymbolTable
 70
     2
  0
BLOCK_RECORD
  5
70
330
1
100
AcDbSymbolTableRecord
100
AcDbBlockTableRecord
  2
*Model_Space
340
73
 70
     0
280
     1
281
     0
  0
BLOCK_RECORD
  5
6C
330
1
100
AcDbSymbolTableRecord
100
AcDbBlockTableRecord
  2
*Paper_Space
340
6F
 70
     0
280
     1
281
     0
  0
BLOCK_RECORD
  5
74
330
1
100
AcDbSymbolTableRecord
100
AcDbBlockTableRecord
  2
*Paper_Space0
340
77
 70
     0
280
     1
281
     0
  0
BLOCK_RECORD
  5
79
330
1
100
AcDbSymbolTableRecord
100
AcDbBlockTableRecord
  2
Block_0
340
0
102
{BLKREFS
331
7A
102
}
 70
     0
280
     1
281
     0
  0
ENDTAB
  0
ENDSEC
  0
SECTION
  2
BLOCKS
  0
BLOCK
  5
71
330
70
100
AcDbEntity
  8
0
100
AcDbBlockBegin
  2
*Model_Space
 70
     0
 10
0.0
 20
0.0
 30
0.0
  3
*Model_Space
  1

  0
ENDBLK
  5
72
330
70
100
AcDbEntity
  8
0
100
AcDbBlockEnd
  0
BLOCK
  5
6D
330
6C
100
AcDbEntity
 67
     1
  8
0
100
AcDbBlockBegin
  2
*Paper_Space
 70
     0
 10
0.0
 20
0.0
 30
0.0
  3
*Paper_Space
  1

  0
ENDBLK
  5
6E
330
6C
100
AcDbEntity
 67
     1
  8
0
100
AcDbBlockEnd
  0
BLOCK
  5
75
330
74
100
AcDbEntity
 67
     1
  8
0
100
AcDbBlockBegin
  2
*Paper_Space0
 70
     0
 10
0.0
 20
0.0
 30
0.0
  3
*Paper_Space0
  1

  0
ENDBLK
  5
76
330
74
100
AcDbEntity
 67
     1
  8
0
100
AcDbBlockEnd
  0
BLOCK
  5
7B
330
79
100
AcDbEntity
  8
0
100
AcDbBlockBegin
  2
Block_0
 70
     0
 10
0.0
 20
0.0
 30
0.0
  3
Block_0
  1

  0
SPLINE
  5
7D
330
79
100
AcDbEntity
  8
Layer 1
100
AcDbSpline
210
0.0
220
0.0
230
1.0
 70
     9
 71
     3
 72
   437
 73
   433
 74
     0
 42
0.0000000001
 43
0.0000000001
 40
0.0
 40
0.0
 40
0.0
 40
0.0
 40
1.0
 40
1.0
 40
1.0
 40
2.0
 40
2.0
 40
2.0
 40
3.0
 40
3.0
 40
3.0
 40
4.0
 40
4.0
 40
4.0
 40
5.0
 40
5.0
 40
5.0
 40
6.0
 40
6.0
 40
6.0
 40
7.0
 40
7.0
 40
7.0
 40
8.0
 40
8.0
 40
8.0
 40
9.0
 40
9.0
 40
9.0
 40
10.0
 40
10.0
 40
10.0
 40
11.0
 40
11.0
 40
11.0
 40
12.0
 40
12.0
 40
12.0
 40
13.0
 40
13.0
 40
13.0
 40
14.0
 40
14.0
 40
14.0
 40
15.0
 40
15.0
 40
15.0
 40
16.0
 40
16.0
 40
16.0
 40
17.0
 40
17.0
 40
17.0
 40
18.0
 40
18.0
 40
18.0
 40
19.0
 40
19.0
 40
19.0
 40
20.0
 40
20.0
 40
20.0
 40
21.0
 40
21.0
 40
21.0
 40
22.0
 40
22.0
 40
22.0
 40
23.0
 40
23.0
 40
23.0
 40
24.0
 40
24.0
 40
24.0
 40
25.0
 40
25.0
 40
25.0
 40
26.0
 40
26.0
 40
26.0
 40
27.0
 40
27.0
 40
27.0
 40
28.0
 40
28.0
 40
28.0
 40
29.0
 40
29.0
 40
29.0
 40
30.0
 40
30.0
 40
30.0
 40
31.0
 40
31.0
 40
31.0
 40
32.0
 40
32.0
 40
32.0
 40
33.0
 40
33.0
 40
33.0
 40
34.0
 40
34.0
 40
34.0
 40
35.0
 40
35.0
 40
35.0
 40
36.0
 40
36.0
 40
36.0
 40
37.0
 40
37.0
 40
37.0
 40
38.0
 40
38.0
 40
38.0
 40
39.0
 40
39.0
 40
39.0
 40
40.0
 40
40.0
 40
40.0
 40
41.0
 40
41.0
 40
41.0
 40
42.0
 40
42.0
 40
42.0
 40
43.0
 40
43.0
 40
43.0
 40
44.0
 40
44.0
 40
44.0
 40
45.0
 40
45.0
 40
45.0
 40
46.0
 40
46.0
 40
46.0
 40
47.0
 40
47.0
 40
47.0
 40
48.0
 40
48.0
 40
48.0
 40
49.0
 40
49.0
 40
49.0
 40
50.0
 40
50.0
 40
50.0
 40
51.0
 40
51.0
 40
51.0
 40
52.0
 40
52.0
 40
52.0
 40
53.0
 40
53.0
 40
53.0
 40
54.0
 40
54.0
 40
54.0
 40
55.0
 40
55.0
 40
55.0
 40
56.0
 40
56.0
 40
56.0
 40
57.0
 40
57.0
 40
57.0
 40
58.0
 40
58.0
 40
58.0
 40
59.0
 40
59.0
 40
59.0
 40
60.0
 40
60.0
 40
60.0
 40
61.0
 40
61.0
 40
61.0
 40
62.0
 40
62.0
 40
62.0
 40
63.0
 40
63.0
 40
63.0
 40
64.0
 40
64.0
 40
64.0
 40
65.0
 40
65.0
 40
65.0
 40
66.0
 40
66.0
 40
66.0
 40
67.0
 40
67.0
 40
67.0
 40
68.0
 40
68.0
 40
68.0
 40
69.0
 40
69.0
 40
69.0
 40
70.0
 40
70.0
 40
70.0
 40
71.0
 40
71.0
 40
71.0
 40
72.0
 40
72.0
 40
72.0
 40
73.0
 40
73.0
 40
73.0
 40
74.0
 40
74.0
 40
74.0
 40
75.0
 40
75.0
 40
75.0
 40
76.0
 40
76.0
 40
76.0
 40
77.0
 40
77.0
 40
77.0
 40
78.0
 40
78.0
 40
78.0
 40
79.0
 40
79.0
 40
79.0
 40
80.0
 40
80.0
 40
80.0
 40
81.0
 40
81.0
 40
81.0
 40
82.0
 40
82.0
 40
82.0
 40
83.0
 40
83.0
 40
83.0
 40
84.0
 40
84.0
 40
84.0
 40
85.0
 40
85.0
 40
85.0
 40
86.0
 40
86.0
 40
86.0
 40
87.0
 40
87.0
 40
87.0
 40
88.0
 40
88.0
 40
88.0
 40
89.0
 40
89.0
 40
89.0
 40
90.0
 40
90.0
 40
90.0
 40
91.0
 40
91.0
 40
91.0
 40
92.0
 40
92.0
 40
92.0
 40
93.0
 40
93.0
 40
93.0
 40
94.0
 40
94.0
 40
94.0
 40
95.0
 40
95.0
 40
95.0
 40
96.0
 40
96.0
 40
96.0
 40
97.0
 40
97.0
 40
97.0
 40
98.0
 40
98.0
 40
98.0
 40
99.0
 40
99.0
 40
99.0
 40
100.0
 40
100.0
 40
100.0
 40
101.0
 40
101.0
 40
101.0
 40
102.0
 40
102.0
 40
102.0
 40
103.0
 40
103.0
 40
103.0
 40
104.0
 40
104.0
 40
104.0
 40
105.0
 40
105.0
 40
105.0
 40
106.0
 40
106.0
 40
106.0
 40
107.0
 40
107.0
 40
107.0
 40
108.0
 40
108.0
 40
108.0
 40
109.0
 40
109.0
 40
109.0
 40
110.0
 40
110.0
 40
110.0
 40
111.0
 40
111.0
 40
111.0
 40
112.0
 40
112.0
 40
112.0
 40
113.0
 40
113.0
 40
113.0
 40
114.0
 40
114.0
 40
114.0
 40
115.0
 40
115.0
 40
115.0
 40
116.0
 40
116.0
 40
116.0
 40
117.0
 40
117.0
 40
117.0
 40
118.0
 40
118.0
 40
118.0
 40
119.0
 40
119.0
 40
119.0
 40
120.0
 40
120.0
 40
120.0
 40
121.0
 40
121.0
 40
121.0
 40
122.0
 40
122.0
 40
122.0
 40
123.0
 40
123.0
 40
123.0
 40
124.0
 40
124.0
 40
124.0
 40
125.0
 40
125.0
 40
125.0
 40
126.0
 40
126.0
 40
126.0
 40
127.0
 40
127.0
 40
127.0
 40
128.0
 40
128.0
 40
128.0
 40
129.0
 40
129.0
 40
129.0
 40
130.0
 40
130.0
 40
130.0
 40
131.0
 40
131.0
 40
131.0
 40
132.0
 40
132.0
 40
132.0
 40
133.0
 40
133.0
 40
133.0
 40
134.0
 40
134.0
 40
134.0
 40
135.0
 40
135.0
 40
135.0
 40
136.0
 40
136.0
 40
136.0
 40
137.0
 40
137.0
 40
137.0
 40
138.0
 40
138.0
 40
138.0
 40
139.0
 40
139.0
 40
139.0
 40
140.0
 40
140.0
 40
140.0
 40
141.0
 40
141.0
 40
141.0
 40
142.0
 40
142.0
 40
142.0
 40
143.0
 40
143.0
 40
143.0
 40
144.0
 40
144.0
 40
144.0
 40
144.0
 10
-101.2613584752602
 20
-70.74811413018602
 30
0.0
 10
-101.2629038435208
 20
-71.00739258268851
 30
0.0
 10
-101.2646209193661
 20
-71.26810193172639
 30
0.0
 10
-101.2666814103801
 20
-71.52938363938023
 30
0.0
 10
-101.2707451565447
 20
-72.05188981882464
 30
0.0
 10
-101.2758391482148
 20
-72.57657096100377
 30
0.0
 10
-101.2816199702248
 20
-73.09655876254415
 30
0.0
 10
-101.2845389991594
 20
-73.35652404538014
 30
0.0
 10
-101.287629735682
 20
-73.61534461099257
 30
0.0
 10
-101.2908349439221
 20
-73.87210468558717
 30
0.0
 10
-101.3005078045127
 20
-74.64238490937677
 30
0.0
 10
-101.311497089918
 20
-75.3941207140426
 30
0.0
 10
-101.3229442622133
 20
-76.10395986810845
 30
0.0
 10
-101.3343341986492
 20
-76.81379902217431
 30
0.0
 10
-101.3461820219752
 20
-77.48179876150023
 30
0.0
 10
-101.3575147225452
 20
-78.08443514701315
 30
0.0
 10
-101.3687901872559
 20
-78.68712876838934
 30
0.0
 10
-101.3796650009391
 20
-79.22451627181965
 30
0.0
 10
-101.3889944463585
 20
-79.67307371823231
 30
0.0
 10
-101.3936877870004
 20
-79.89738105936834
 30
0.0
 10
-101.398037712475
 20
-80.09948088625366
 30
0.0
 10
-101.401872515193
 20
-80.27651140580719
 30
0.0
 10
-101.4047915441271
 20
-80.40924136857938
 30
0.0
 10
-101.4074243937564
 20
-80.52789130942313
 30
0.0
 10
-101.4097138282163
 20
-80.63114480353277
 30
0.0
 10
-101.4166966033157
 20
-80.94096252172048
 30
0.0
 10
-101.4208175853436
 20
-81.11255563443595
 30
0.0
 10
-101.4208175853436
 20
-81.11255563443595
 30
0.0
 10
-101.4208175853436
 20
-81.11255563443595
 30
0.0
 10
-124.1949096320717
 20
-81.11255563443595
 30
0.0
 10
-124.1949096320717
 20
-81.11255563443595
 30
0.0
 10
-124.1949096320717
 20
-81.11255563443595
 30
0.0
 10
-124.5648250048138
 20
-65.68777714508391
 30
0.0
 10
-124.1949096320717
 20
-63.25908783493844
 30
0.0
 10
-123.9557782028124
 20
-61.69528962759864
 30
0.0
 10
-121.5671539956995
 20
-59.98742875692042
 30
0.0
 10
-119.8967826142879
 20
-58.96931725292749
 30
0.0
 10
-119.8967826142879
 20
-58.96931725292749
 30
0.0
 10
-120.5844714899631
 20
-58.96931725292749
 30
0.0
 10
-120.5844714899631
 20
-58.96931725292749
 30
0.0
 10
-120.8143307096625
 20
-58.96931725292749
 30
0.0
 10
-121.0226692454453
 20
-58.87613727043976
 30
0.0
 10
-121.1734857404467
 20
-58.72537801130418
 30
0.0
 10
-121.3243022354404
 20
-58.57467598802802
 30
0.0
 10
-121.4176539255166
 20
-58.36633745224589
 30
0.0
 10
-121.4176539255166
 20
-58.13613481737466
 30
0.0
 10
-121.4176539255166
 20
-58.13613481737466
 30
0.0
 10
-121.4176539255166
 20
-51.36644882919246
 30
0.0
 10
-121.4176539255166
 20
-51.36644882919246
 30
0.0
 10
-121.4176539255166
 20
-51.36644882919246
 30
0.0
 10
-125.5001162172463
 20
-51.36644882919246
 30
0.0
 10
-125.5001162172463
 20
-51.36644882919246
 30
0.0
 10
-125.4992576793218
 20
-51.632137698179
 30
0.0
 10
-125.4985136131224
 20
-51.8895846031148
 30
0.0
 10
-125.4977695469263
 20
-52.13220741992348
 30
0.0
 10
-125.4961097069436
 20
-52.66009377034656
 30
0.0
 10
-125.4946788104044
 20
-53.13251857099581
 30
0.0
 10
-125.4933623855898
 20
-53.54576149087718
 30
0.0
 10
-125.489470347013
 20
-54.78549025051745
 30
0.0
 10
-125.4870664408271
 20
-55.49263931909589
 30
0.0
 10
-125.4867230256591
 20
-55.56773276935442
 30
0.0
 10
-125.4864940822157
 20
-55.67836968959408
 30
0.0
 10
-125.4972544241743
 20
-55.78797636432579
 30
0.0
 10
-125.5183744570564
 20
-55.89495018943143
 30
0.0
 10
-125.5606145228314
 20
-56.10895507550212
 30
0.0
 10
-125.6444650598972
 20
-56.31277197823016
 30
0.0
 10
-125.7650610200335
 20
-56.49472478187293
 30
0.0
 10
-125.8253876180308
 20
-56.58572980162531
 30
0.0
 10
-125.8948719538672
 20
-56.67124017867378
 30
0.0
 10
-125.9730561406476
 20
-56.74982501648487
 30
0.0
 10
-126.1291955707651
 20
-56.90636509763041
 30
0.0
 10
-126.3135522805898
 20
-57.02884984119668
 30
0.0
 10
-126.5142212109366
 20
-57.11212801965038
 30
0.0
 10
-126.7148901412826
 20
-57.19546343396348
 30
0.0
 10
-126.9318140562887
 20
-57.23959228316402
 30
0.0
 10
-127.1530878967648
 20
-57.23959228316402
 30
0.0
 10
-127.1530878967648
 20
-57.23959228316402
 30
0.0
 10
-130.0139079610834
 20
-57.23959228316402
 30
0.0
 10
-130.0139079610834
 20
-57.23959228316402
 30
0.0
 10
-130.0139079610834
 20
-57.23959228316402
 30
0.0
 10
-131.1447741121906
 20
-69.46534400271514
 30
0.0
 10
-131.1447741121906
 20
-69.46534400271514
 30
0.0
 10
-131.1447741121906
 20
-69.46534400271514
 30
0.0
 10
-131.2195813831438
 20
-70.27431566886399
 30
0.0
 10
-131.2195813831438
 20
-70.27431566886399
 30
0.0
 10
-131.2195813831438
 20
-70.27431566886399
 30
0.0
 10
-150.0923054038648
 20
-70.27431566886399
 30
0.0
 10
-150.0923054038648
 20
-70.27431566886399
 30
0.0
 10
-150.0923054038648
 20
-70.27431566886399
 30
0.0
 10
-151.2985511845399
 20
-57.23959228316402
 30
0.0
 10
-151.2985511845399
 20
-57.23959228316402
 30
0.0
 10
-151.2985511845399
 20
-57.23959228316402
 30
0.0
 10
-154.1596574281645
 20
-57.23959228316402
 30
0.0
 10
-154.1596574281645
 20
-57.23959228316402
 30
0.0
 10
-154.6022051091225
 20
-57.23959228316402
 30
0.0
 10
-155.0262656068226
 20
-57.06296241463856
 30
0.0
 10
-155.339746420143
 20
-56.74982501648487
 30
0.0
 10
-155.6523114596821
 20
-56.43548566524307
 30
0.0
 10
-155.8268808371935
 20
-56.01028045031048
 30
0.0
 10
-155.8260222992715
 20
-55.56773276935442
 30
0.0
 10
-155.8255644123795
 20
-55.45612283947201
 30
0.0
 10
-155.8204131848475
 20
-53.94469544538797
 30
0.0
 10
-155.8124574001015
 20
-51.36644882919246
 30
0.0
 10
-155.8124574001015
 20
-51.36644882919246
 30
0.0
 10
-159.8953775787226
 20
-51.36644882919246
 30
0.0
 10
-159.8953775787226
 20
-51.36644882919246
 30
0.0
 10
-159.8953775787226
 20
-51.36644882919246
 30
0.0
 10
-159.8953775787226
 20
-58.13613481737466
 30
0.0
 10
-159.8953775787226
 20
-58.13613481737466
 30
0.0
 10
-159.8953775787226
 20
-58.59654008711328
 30
0.0
 10
-160.2684981597061
 20
-58.96931725292749
 30
0.0
 10
-160.7282738349681
 20
-58.96931725292749
 30
0.0
 10
-160.7282738349681
 20
-58.96931725292749
 30
0.0
 10
-161.4162488899487
 20
-58.96931725292749
 30
0.0
 10
-161.4162488899487
 20
-58.96931725292749
 30
0.0
 10
-159.7455913292317
 20
-59.98742875692042
 30
0.0
 10
-157.3569671221189
 20
-61.69528962759864
 30
0.0
 10
-157.1178356928576
 20
-63.25908783493844
 30
0.0
 10
-156.7479203201174
 20
-65.68777714508391
 30
0.0
 10
-157.1178356928576
 20
-81.11255563443595
 30
0.0
 10
-157.1178356928576
 20
-81.11255563443595
 30
0.0
 10
-157.1178356928576
 20
-81.11255563443595
 30
0.0
 10
-179.8918132678663
 20
-81.11255563443595
 30
0.0
 10
-179.8918132678663
 20
-81.11255563443595
 30
0.0
 10
-179.8918132678663
 20
-81.11255563443595
 30
0.0
 10
-180.2182293858819
 20
-67.55046102106558
 30
0.0
 10
-179.9528266962027
 20
-63.85783218187135
 30
0.0
 10
-179.9351980508661
 20
-63.61240480784554
 30
0.0
 10
-179.9149365559035
 20
-63.41041945268869
 30
0.0
 10
-179.8918132678663
 20
-63.25908783493844
 30
0.0
 10
-179.7567366347747
 20
-62.37307669923593
 30
0.0
 10
-178.9252712750658
 20
-61.44459655431941
 30
0.0
 10
-177.9314850122009
 20
-60.61771006352857
 30
0.0
 10
-177.1713355358964
 20
-59.98519655832243
 30
0.0
 10
-176.3186929074397
 20
-59.41060574493538
 30
0.0
 10
-175.5947164955879
 20
-58.96931725292749
 30
0.0
 10
-175.5947164955879
 20
-58.96931725292749
 30
0.0
 10
-176.2812606540318
 20
-58.96931725292749
 30
0.0
 10
-176.2812606540318
 20
-58.96931725292749
 30
0.0
 10
-176.3779892599309
 20
-58.96931725292749
 30
0.0
 10
-176.4688798079612
 20
-58.95014323933349
 30
0.0
 10
-176.5533027036436
 20
-58.91717538312223
 30
0.0
 10
-176.6377255993241
 20
-58.88420752691033
 30
0.0
 10
-176.7156236067972
 20
-58.83738859221789
 30
0.0
 10
-176.7863671315863
 20
-58.78204151416803
 30
0.0
 10
-176.7863671315863
 20
-58.78204151416803
 30
0.0
 10
-176.7863671315863
 20
-58.78209875002745
 30
0.0
 10
-176.7863671315863
 20
-58.78209875002745
 30
0.0
 10
-176.8130390430355
 20
-58.76115042472938
 30
0.0
 10
-176.8465792578634
 20
-58.74935983726218
 30
0.0
 10
-176.8705038479601
 20
-58.72537801130418
 30
0.0
 10
-177.0213775788196
 20
-58.57467598802802
 30
0.0
 10
-177.1146720330319
 20
-58.36633745224589
 30
0.0
 10
-177.1146720330319
 20
-58.13613481737466
 30
0.0
 10
-177.1146720330319
 20
-58.13613481737466
 30
0.0
 10
-177.1146720330319
 20
34.62614035376541
 30
0.0
 10
-177.1146720330319
 20
34.62614035376541
 30
0.0
 10
-177.1146720330319
 20
36.27705154226987
 30
0.0
 10
-176.0542059915432
 20
39.4623417053155
 30
0.0
 10
-174.7116816246853
 20
42.83336223885545
 30
0.0
 10
-174.4879466421639
 20
43.39518945513639
 30
0.0
 10
-174.2563131107573
 20
43.96222513481327
 30
0.0
 10
-174.0205013614633
 20
44.52811609725888
 30
0.0
 10
-173.6667265016597
 20
45.37698115885573
 30
0.0
 10
-173.3035077247128
 20
46.2233850784118
 30
0.0
 10
-172.9429217973939
 20
47.04626505889995
 30
0.0
 10
-172.365869841959
 20
48.36309052395009
 30
0.0
 10
-171.7967736712713
 20
49.6167275979303
 30
0.0
 10
-171.2830818144949
 20
50.72675989545895
 30
0.0
 10
-171.2617328381643
 20
50.77283476395205
 30
0.0
 10
-171.239353616325
 20
50.82159971793
 30
0.0
 10
-171.2182335834384
 20
50.86721669952918
 30
0.0
 10
-170.688229506142
 20
52.01044579671638
 30
0.0
 10
-170.2218717068081
 20
52.99083886799602
 30
0.0
 10
-169.8754802731358
 20
53.71080876954319
 30
0.0
 10
-169.5290888394635
 20
54.43072143523031
 30
0.0
 10
-169.3026637714522
 20
54.89021093118559
 30
0.0
 10
-169.2525251567957
 20
54.9916328777247
 30
0.0
 10
-169.1113815223875
 20
55.27552275066248
 30
0.0
 10
-168.8215391198576
 20
55.45587295018136
 30
0.0
 10
-168.5051965134613
 20
55.45587295018136
 30
0.0
 10
-168.267495980738
 20
55.45587295018136
 30
0.0
 10
-168.0450774230287
 20
55.35445100364289
 30
0.0
 10
-167.8896248232518
 20
55.18394537229479
 30
0.0
 10
-167.8378263686133
 20
55.12711016184693
 30
0.0
 10
-167.7934685759661
 20
55.06260534595915
 30
0.0
 10
-167.7584402287409
 20
54.9916328777247
 30
0.0
 10
-167.708301614085
 20
54.89021093118559
 30
0.0
 10
-167.4818765460731
 20
54.43072143523031
 30
0.0
 10
-167.1354278765407
 20
53.71080876954319
 30
0.0
 10
-166.7890364428678
 20
52.99083886799602
 30
0.0
 10
-166.3226214076732
 20
52.01044579671638
 30
0.0
 10
-165.7925028586521
 20
50.86721669952918
 30
0.0
 10
-165.2624415454931
 20
49.72393036647937
 30
0.0
 10
-164.6687339543689
 20
48.41780800752522
 30
0.0
 10
-164.0676429371133
 20
47.04626505889995
 30
0.0
 10
-163.8271950830394
 20
46.49771656248037
 30
0.0
 10
-163.5856025117348
 20
45.93863666755331
 30
0.0
 10
-163.3464138466142
 20
45.37537855473568
 30
0.0
 10
-162.5092821366181
 20
43.40394654194366
 30
0.0
 10
-161.7019130745912
 20
41.38105948968308
 30
0.0
 10
-161.078843486529
 20
39.57423781450717
 30
0.0
 10
-160.9008399573289
 20
39.05802757982541
 30
0.0
 10
-160.7378322238347
 20
38.55938875461761
 30
0.0
 10
-160.5935406170465
 20
38.08473175537037
 30
0.0
 10
-160.1605513249558
 20
36.66064628590532
 30
0.0
 10
-159.8953775787226
 20
35.45159594801957
 30
0.0
 10
-159.8953775787226
 20
34.62614035376541
 30
0.0
 10
-159.8953775787226
 20
34.62614035376541
 30
0.0
 10
-159.8953775787226
 20
18.41087738152567
 30
0.0
 10
-159.8953775787226
 20
18.41087738152567
 30
0.0
 10
-159.8953775787226
 20
18.41087738152567
 30
0.0
 10
-155.6963830730206
 20
18.41087738152567
 30
0.0
 10
-155.6963830730206
 20
18.41087738152567
 30
0.0
 10
-155.6967837240519
 20
19.23999607091384
 30
0.0
 10
-155.6972988468033
 20
20.06041490935737
 30
0.0
 10
-155.6979284412799
 20
20.87127535893488
 30
0.0
 10
-155.6991303943719
 20
22.49293902222472
 30
0.0
 10
-155.7008474702166
 20
24.07608295073869
 30
0.0
 10
-155.7030796688145
 20
25.61212176525867
 30
0.0
 10
-155.7034803198446
 20
25.85754913928
 30
0.0
 10
-155.7039382067359
 20
26.09376153960783
 30
0.0
 10
-155.7042816219046
 20
26.3367850074478
 30
0.0
 10
-155.7050829239659
 20
26.85413995935954
 30
0.0
 10
-155.7058842260259
 20
27.37389881745007
 30
0.0
 10
-155.7067999998105
 20
27.87980659706649
 30
0.0
 10
-155.7109209818359
 20
30.1101164113265
 30
0.0
 10
-155.7163011528158
 20
32.22515320057008
 30
0.0
 10
-155.7229977486085
 20
34.19635626991546
 30
0.0
 10
-155.7274621458045
 20
35.51049164948075
 30
0.0
 10
-155.7324989016145
 20
36.76075180763365
 30
0.0
 10
-155.7382797236232
 20
37.93860860101156
 30
0.0
 10
-155.7468651028458
 20
39.70542240901745
 30
0.0
 10
-155.7569958503271
 20
41.30940019110872
 30
0.0
 10
-155.7687292019297
 20
42.7222101958631
 30
0.0
 10
-155.784354592115
 20
44.60589963300868
 30
0.0
 10
-155.8029562470949
 20
46.1496652888267
 30
0.0
 10
-155.8248775820422
 20
47.28585437505254
 30
0.0
 10
-156.1132318521734
 20
62.22905032591355
 30
0.0
 10
-143.6619708383936
 20
75.41716582037645
 30
0.0
 10
-142.0033900444486
 20
77.10625332849197
 30
0.0
 10
-141.9133580343422
 20
77.22650587345961
 30
0.0
 10
-141.8072999830211
 20
77.33462441579267
 30
0.0
 10
-141.6873908532215
 20
77.42746098311238
 30
0.0
 10
-141.5674817234226
 20
77.52024031457267
 30
0.0
 10
-141.4337787510076
 20
77.59762319929116
 30
0.0
 10
-141.2886286062961
 20
77.65623272144694
 30
0.0
 10
-141.087501789058
 20
77.73664910682537
 30
0.0
 10
-140.8772172339833
 20
77.77579843607532
 30
0.0
 10
-140.6689359340606
 20
77.77579843607532
 30
0.0
 10
-140.3987254320174
 20
77.77579843607532
 30
0.0
 10
-140.1316056664929
 20
77.71043508226617
 30
0.0
 10
-139.8931038317089
 20
77.58411553598252
 30
0.0
 10
-139.6925493730855
 20
77.48263635357758
 30
0.0
 10
-139.5179227597127
 20
77.34217954951055
 30
0.0
 10
-139.3756344080745
 20
77.17379164503903
 30
0.0
 10
-139.2511464093576
 20
77.04810169322946
 30
0.0
 10
-139.0281554930342
 20
76.81932995489425
 30
0.0
 10
-138.7288119374984
 20
76.49880913061055
 30
0.0
 10
-138.4192231627561
 20
76.16729902092609
 30
0.0
 10
-138.0271002757626
 20
75.73682810673943
 30
0.0
 10
-137.5724185921719
 20
75.21466534246306
 30
0.0
 10
-137.4208580309737
 20
75.04061108770684
 30
0.0
 10
-137.2623719305382
 20
74.8563688496041
 30
0.0
 10
-137.0976471212007
 20
74.6621675716047
 30
0.0
 10
-136.8624077305214
 20
74.38485982273817
 30
0.0
 10
-136.6110850627662
 20
74.08076569069845
 30
0.0
 10
-136.3531230350789
 20
73.76442308430146
 30
0.0
 10
-135.8988992383797
 20
73.20723197280369
 30
0.0
 10
-135.4165153978331
 20
72.59767004804953
 30
0.0
 10
-134.9114089202786
 20
71.92738087426366
 30
0.0
 10
-134.5154512305651
 20
71.40195566588456
 30
0.0
 10
-134.1076457175257
 20
70.84333365784757
 30
0.0
 10
-133.6941166183376
 20
70.25403322805861
 30
0.0
 10
-133.0737943516249
 20
69.37013981923269
 30
0.0
 10
-132.4404795443568
 20
68.41721996146425
 30
0.0
 10
-131.8143192197746
 20
67.40363009052991
 30
0.0
 10
-131.3968980820066
 20
66.72790350990595
 30
0.0
 10
-130.9827393883425
 20
66.02521883852347
 30
0.0
 10
-130.5777384325157
 20
65.29809445429293
 30
0.0
 10
-129.9702942346381
 20
64.20740787794551
 30
0.0
 10
-129.383569418612
 20
63.0617176387137
 30
0.0
 10
-128.8378254794096
 20
61.86932293651791
 30
0.0
 10
-127.5644992690788
 20
59.0872021817324
 30
0.0
 10
-126.51445015438
 20
56.05106867370551
 30
0.0
 10
-125.9450678043876
 20
52.86761005822722
 30
0.0
 10
-125.863735645222
 20
52.41281390291453
 30
0.0
 10
-125.7922480542348
 20
51.95504148280454
 30
0.0
 10
-125.7312346259009
 20
51.49457897720329
 30
0.0
 10
-125.6397717192546
 20
50.80385660087203
 30
0.0
 10
-125.5721189309855
 20
50.10700998736213
 30
0.0
 10
-125.5306801672756
 20
49.40524108976621
 30
0.0
 10
-125.4892986394251
 20
48.7034149563083
 30
0.0
 10
-125.4741883719964
 20
47.99666653876115
 30
0.0
 10
-125.4879249787517
 20
47.28585437505254
 30
0.0
 10
-125.4987997924317
 20
46.71778844987093
 30
0.0
 10
-125.5088733040536
 20
46.04778545539431
 30
0.0
 10
-125.5182027494723
 20
45.28437353498331
 30
0.0
 10
-125.5275321948943
 20
44.52096161457166
 30
0.0
 10
-125.5360603382549
 20
43.66408353236688
 30
0.0
 10
-125.543901651275
 20
42.7222101958631
 30
0.0
 10
-125.5556350028796
 20
41.30940019110872
 30
0.0
 10
-125.5657085145015
 20
39.70542240901745
 30
0.0
 10
-125.5743511295835
 20
37.93860860101156
 30
0.0
 10
-125.5800747157308
 20
36.76075180763365
 30
0.0
 10
-125.5851687074041
 20
35.51049164948075
 30
0.0
 10
-125.5896331046001
 20
34.19635626991546
 30
0.0
 10
-125.5985618989913
 20
31.56808551079064
 30
0.0
 10
-125.6050867872006
 20
28.68419939429413
 30
0.0
 10
-125.6094939485308
 20
25.61212176525867
 30
0.0
 10
-125.6111537885166
 20
24.46013558126421
 30
0.0
 10
-125.61252744919
 20
23.28159195754509
 30
0.0
 10
-125.613614930558
 20
22.0802112250954
 30
0.0
 10
-125.6147024119254
 20
20.8788304926457
 30
0.0
 10
-125.61556094985
 20
19.654555415606
 30
0.0
 10
-125.6161333084653
 20
18.41087738152567
 30
0.0
 10
-125.6161333084653
 20
18.41087738152567
 30
0.0
 10
-121.4176539255166
 20
18.41087738152567
 30
0.0
 10
-121.4176539255166
 20
18.41087738152567
 30
0.0
 10
-121.4176539255166
 20
18.41087738152567
 30
0.0
 10
-121.4176539255166
 20
34.62614035376541
 30
0.0
 10
-121.4176539255166
 20
34.62614035376541
 30
0.0
 10
-121.4176539255166
 20
35.45159594801957
 30
0.0
 10
-121.1524801792821
 20
36.66064628590532
 30
0.0
 10
-120.7194908871921
 20
38.08473175537037
 30
0.0
 10
-120.5751420445412
 20
38.55938875461761
 30
0.0
 10
-120.4121915469078
 20
39.05802757982541
 30
0.0
 10
-120.2341307818495
 20
39.57423781450717
 30
0.0
 10
-120.0560700167874
 20
40.09050528504769
 30
0.0
 10
-119.8630134560179
 20
40.62428692920661
 30
0.0
 10
-119.65850972295
 20
41.16957298151578
 30
0.0
 10
-119.4540059898853
 20
41.71485903382879
 30
0.0
 10
-119.2380550845226
 20
42.27153502257771
 30
0.0
 10
-119.0142628661393
 20
42.83336223885545
 30
0.0
 10
-118.9023667569476
 20
43.11427584699592
 30
0.0
 10
-118.7884673926046
 20
43.39644864408842
 30
0.0
 10
-118.6731371317224
 20
43.67919379979942
 30
0.0
 10
-118.4424193741023
 20
44.2446268753524
 30
0.0
 10
-118.2056918510217
 20
44.8121204419187
 30
0.0
 10
-117.9665031859036
 20
45.37537855473568
 30
0.0
 10
-117.8106499350916
 20
45.74237489853994
 30
0.0
 10
-117.6538236746407
 20
46.10628050582548
 30
0.0
 10
-117.4968829424645
 20
46.46795391451241
 30
0.0
 10
-117.3254043014743
 20
46.86328200974859
 30
0.0
 10
-117.1538684246182
 20
47.25443188709807
 30
0.0
 10
-116.9835917367174
 20
47.63922858382227
 30
0.0
 10
-116.6430383609158
 20
48.4087647414119
 30
0.0
 10
-116.3074645050622
 20
49.15271646892028
 30
0.0
 10
-115.987458803535
 20
49.85265381894888
 30
0.0
 10
-115.8274273348401
 20
50.20259387603187
 30
0.0
 10
-115.671287904722
 20
50.54154464771346
 30
0.0
 10
-115.5202997021398
 20
50.86721669952918
 30
0.0
 10
-115.3580360348469
 20
51.21715675661217
 30
0.0
 10
-115.2041860391894
 20
51.54609125253447
 30
0.0
 10
-115.0554300352052
 20
51.86272003823752
 30
0.0
 10
-114.7840175800713
 20
52.44068776745638
 30
0.0
 10
-114.5383612626027
 20
52.9576993042001
 30
0.0
 10
-114.3272754054667
 20
53.39830096586358
 30
0.0
 10
-114.2006124440144
 20
53.66255893831472
 30
0.0
 10
-114.0835651072868
 20
53.90563964201668
 30
0.0
 10
-113.9843181234831
 20
54.11071573369609
 30
0.0
 10
-113.8658398902227
 20
54.35545627738135
 30
0.0
 10
-113.768367218123
 20
54.55538114152808
 30
0.0
 10
-113.6955059664593
 20
54.70430885310019
 30
0.0
 10
-113.6226447147955
 20
54.85317932880581
 30
0.0
 10
-113.5743376477076
 20
54.95105265193615
 30
0.0
 10
-113.5543050961897
 20
54.9916328777247
 30
0.0
 10
-113.4143061790095
 20
55.27552275066248
 30
0.0
 10
-113.124463776481
 20
55.45587295018136
 30
0.0
 10
-112.808121170084
 20
55.45587295018136
 30
0.0
 10
-112.4912062050717
 20
55.45587295018136
 30
0.0
 10
-112.2014210384058
 20
55.27552275066248
 30
0.0
 10
-112.0602201681362
 20
54.9916328777247
 30
0.0
 10
-112.0100815534778
 20
54.89021093118559
 30
0.0
 10
-111.7836564854658
 20
54.43072143523031
 30
0.0
 10
-111.4372650517954
 20
53.71080876954319
 30
0.0
 10
-111.0908736181206
 20
52.99083886799602
 30
0.0
 10
-110.6245158187912
 20
52.01044579671638
 30
0.0
 10
-110.0945117414915
 20
50.86721669952918
 30
0.0
 10
-109.5645076641957
 20
49.72393036647937
 30
0.0
 10
-108.9708573089322
 20
48.41780800752522
 30
0.0
 10
-108.3698235275393
 20
47.04626505889995
 30
0.0
 10
-108.1294329093247
 20
46.49771656248037
 30
0.0
 10
-107.8878975738841
 20
45.93863666755331
 30
0.0
 10
-107.6487089087589
 20
45.37537855473568
 30
0.0
 10
-106.8116916704881
 20
43.40394654194366
 30
0.0
 10
-106.0044370801845
 20
41.38105948968308
 30
0.0
 10
-105.3814247279811
 20
39.57423781450717
 30
0.0
 10
-105.2034211987816
 20
39.05802757982541
 30
0.0
 10
-105.0404134652901
 20
38.55938875461761
 30
0.0
 10
-104.8961218585012
 20
38.08473175537037
 30
0.0
 10
-104.4631898022699
 20
36.66064628590532
 30
0.0
 10
-104.1980732918986
 20
35.45159594801957
 30
0.0
 10
-104.1980732918986
 20
34.62614035376541
 30
0.0
 10
-104.1980732918986
 20
34.62614035376541
 30
0.0
 10
-104.1980732918986
 20
-58.13613481737466
 30
0.0
 10
-104.1980732918986
 20
-58.13613481737466
 30
0.0
 10
-104.1980732918986
 20
-58.48143876967766
 30
0.0
 10
-104.4080716676673
 20
-58.77746264525068
 30
0.0
 10
-104.7070718080344
 20
-58.90389666325638
 30
0.0
 10
-104.8067194428727
 20
-58.94602225730684
 30
0.0
 10
-104.9162688817411
 20
-58.96931725292749
 30
0.0
 10
-105.0311984915927
 20
-58.96931725292749
 30
0.0
 10
-105.0311984915927
 20
-58.96931725292749
 30
0.0
 10
-105.7177426500373
 20
-58.96931725292749
 30
0.0
 10
-105.7177426500373
 20
-58.96931725292749
 30
0.0
 10
-105.300149804682
 20
-59.22384512892477
 30
0.0
 10
-104.8376840439294
 20
-59.52147160861847
 30
0.0
 10
-104.3751610473148
 20
-59.84920415144753
 30
0.0
 10
-103.9126380507034
 20
-60.17687945841845
 30
0.0
 10
-103.4501150540882
 20
-60.53471806438413
 30
0.0
 10
-103.0322360294307
 20
-60.90955572121167
 30
0.0
 10
-102.614414240632
 20
-61.28445061390247
 30
0.0
 10
-102.2413508955085
 20
-61.67634455745127
 30
0.0
 10
-101.9578044377426
 20
-62.07224501130276
 30
0.0
 10
-101.6743152158355
 20
-62.46820270101624
 30
0.0
 10
-101.4803428812789
 20
-62.86810966517298
 30
0.0
 10
-101.4208175853436
 20
-63.25908783493844
 30
0.0
 10
-101.4091987054604
 20
-63.33498258725827
 30
0.0
 10
-101.3983238917804
 20
-63.42358370082544
 30
0.0
 10
-101.3881359084371
 20
-63.52397540185982
 30
0.0
 10
-101.3779479250938
 20
-63.62442433875938
 30
0.0
 10
-101.3684467720872
 20
-63.7366066272571
 30
0.0
 10
-101.3596324494212
 20
-63.85983543702206
 30
0.0
 10
-101.3243179228867
 20
-64.35257896849531
 30
0.0
 10
-101.299477559008
 20
-65.02069317954583
 30
0.0
 10
-101.282993630902
 20
-65.80854481280424
 30
0.0
 10
-101.2623887207688
 20
-66.79340228127921
 30
0.0
 10
-101.2547763511915
 20
-67.9654210167884
 30
0.0
 10
-101.2559783042809
 20
-69.21625353355659
 30
0.0
 10
-101.2564361911741
 20
-69.71655219874707
 30
0.0
 10
-101.2583249746034
 20
-70.22949998932611
 30
0.0
 10
-101.2613584752602
 20
-70.74811413018602
 30
0.0
  0
SPLINE
  5
7E
330
79
100
AcDbEntity
  8
Layer 1
100
AcDbSpline
210
0.0
220
0.0
230
1.0
 70
    11
 71
     3
 72
   101
 73
    97
 74
     0
 42
0.0000000001
 43
0.0000000001
 40
0.0
 40
0.0
 40
0.0
 40
0.0
 40
1.0
 40
1.0
 40
1.0
 40
2.0
 40
2.0
 40
2.0
 40
3.0
 40
3.0
 40
3.0
 40
4.0
 40
4.0
 40
4.0
 40
5.0
 40
5.0
 40
5.0
 40
6.0
 40
6.0
 40
6.0
 40
7.0
 40
7.0
 40
7.0
 40
8.0
 40
8.0
 40
8.0
 40
9.0
 40
9.0
 40
9.0
 40
10.0
 40
10.0
 40
10.0
 40
11.0
 40
11.0
 40
11.0
 40
12.0
 40
12.0
 40
12.0
 40
13.0
 40
13.0
 40
13.0
 40
14.0
 40
14.0
 40
14.0
 40
15.0
 40
15.0
 40
15.0
 40
16.0
 40
16.0
 40
16.0
 40
17.0
 40
17.0
 40
17.0
 40
18.0
 40
18.0
 40
18.0
 40
19.0
 40
19.0
 40
19.0
 40
20.0
 40
20.0
 40
20.0
 40
21.0
 40
21.0
 40
21.0
 40
22.0
 40
22.0
 40
22.0
 40
23.0
 40
23.0
 40
23.0
 40
24.0
 40
24.0
 40
24.0
 40
25.0
 40
25.0
 40
25.0
 40
26.0
 40
26.0
 40
26.0
 40
27.0
 40
27.0
 40
27.0
 40
28.0
 40
28.0
 40
28.0
 40
29.0
 40
29.0
 40
29.0
 40
30.0
 40
30.0
 40
30.0
 40
31.0
 40
31.0
 40
31.0
 40
32.0
 40
32.0
 40
32.0
 40
32.0
 10
-18.66588937868329
 20
-86.09991689615226
 30
0.0
 10
-18.66588937868329
 20
-86.09991689615226
 30
0.0
 10
-75.40791984508742
 20
4.221649433928484
 30
0.0
 10
-75.40791984508742
 20
4.221649433928484
 30
0.0
 10
-75.40791984508742
 20
4.221649433928484
 30
0.0
 10
-33.77661469609444
 20
70.65977825008474
 30
0.0
 10
-33.77661469609444
 20
70.65977825008474
 30
0.0
 10
-33.77661469609444
 20
70.65977825008474
 30
0.0
 10
-33.74255935851517
 20
70.7142095543506
 30
0.0
 10
-33.74255935851517
 20
70.7142095543506
 30
0.0
 10
-33.74255935851517
 20
70.7142095543506
 30
0.0
 10
-32.07384781708627
 20
73.37710800967322
 30
0.0
 10
-32.07384781708627
 20
73.37710800967322
 30
0.0
 10
-32.07384781708627
 20
73.37710800967322
 30
0.0
 10
-32.07293204330293
 20
73.37561987727456
 30
0.0
 10
-32.07293204330293
 20
73.37561987727456
 30
0.0
 10
-32.07293204330293
 20
73.37561987727456
 30
0.0
 10
-26.48396464157841
 20
82.28472513168899
 30
0.0
 10
-26.48396464157841
 20
82.28472513168899
 30
0.0
 10
-26.48396464157841
 20
82.28472513168899
 30
0.0
 10
-26.00839186854783
 20
82.7632169336536
 30
0.0
 10
-26.00839186854783
 20
82.7632169336536
 30
0.0
 10
-26.00839186854783
 20
82.7632169336536
 30
0.0
 10
-78.16874885939914
 20
82.7632169336536
 30
0.0
 10
-78.16874885939914
 20
82.7632169336536
 30
0.0
 10
-78.16874885939914
 20
82.7632169336536
 30
0.0
 10
-102.3746532168947
 20
42.30828044564823
 30
0.0
 10
-102.3746532168947
 20
42.30828044564823
 30
0.0
 10
-104.2832402537784
 20
47.51680107611926
 30
0.0
 10
-107.138966326427
 20
53.50075315791513
 30
0.0
 10
-108.6976705420904
 20
56.65387676680309
 30
0.0
 10
-109.4615403493915
 20
58.19031623235372
 30
0.0
 10
-110.9754861213795
 20
59.14815837421141
 30
0.0
 10
-112.6728155935496
 20
59.19749568680401
 30
0.0
 10
-112.6728155935496
 20
59.19749568680401
 30
0.0
 10
-126.2584913818467
 20
82.7632169336536
 30
0.0
 10
-126.2584913818467
 20
82.7632169336536
 30
0.0
 10
-126.2584913818467
 20
82.7632169336536
 30
0.0
 10
-191.7459897746932
 20
82.7632169336536
 30
0.0
 10
-191.7459897746932
 20
82.7632169336536
 30
0.0
 10
-191.7459897746932
 20
82.7632169336536
 30
0.0
 10
-173.676857249141
 20
54.47444963339698
 30
0.0
 10
-173.676857249141
 20
54.47444963339698
 30
0.0
 10
-176.4454703406166
 20
48.70873789142499
 30
0.0
 10
-180.865681450936
 20
38.84270626894008
 30
0.0
 10
-180.865681450936
 20
34.62614035376541
 30
0.0
 10
-180.865681450936
 20
34.62614035376541
 30
0.0
 10
-180.865681450936
 20
-58.13613481737466
 30
0.0
 10
-180.865681450936
 20
-58.13613481737466
 30
0.0
 10
-180.865681450936
 20
-58.15204638686529
 30
0.0
 10
-180.8656242150733
 20
-58.1680151922192
 30
0.0
 10
-180.8654525074893
 20
-58.18386952584722
 30
0.0
 10
-182.4741236302258
 20
-59.64761944731812
 30
0.0
 10
-183.3603637093698
 20
-61.12195800316296
 30
0.0
 10
-183.6000102613824
 20
-62.69382646696627
 30
0.0
 10
-183.7700007699759
 20
-63.80580478378685
 30
0.0
 10
-183.816647997083
 20
-66.75574108442535
 30
0.0
 10
-183.8079481461371
 20
-70.03758814578346
 30
0.0
 10
-183.8079481461371
 20
-70.03758814578346
 30
0.0
 10
-193.8282304153095
 20
-86.09991689615226
 30
0.0
 10
-193.8282304153095
 20
-86.09991689615226
 30
0.0
 10
-193.8282304153095
 20
-86.09991689615226
 30
0.0
 10
-140.9915172493563
 20
-86.09991689615226
 30
0.0
 10
-140.9915172493563
 20
-86.09991689615226
 30
0.0
 10
-140.9915172493563
 20
-86.09991689615226
 30
0.0
 10
-133.8440173395512
 20
-74.02532508676737
 30
0.0
 10
-133.8440173395512
 20
-74.02532508676737
 30
0.0
 10
-133.8440173395512
 20
-74.02532508676737
 30
0.0
 10
-131.2195813831438
 20
-74.02532508676737
 30
0.0
 10
-131.2195813831438
 20
-74.02532508676737
 30
0.0
 10
-129.924391073729
 20
-74.02532508676737
 30
0.0
 10
-128.7717752952605
 20
-73.36602519838674
 30
0.0
 10
-128.0964493656672
 20
-72.35254979917378
 30
0.0
 10
-128.0637676887645
 20
-75.92950496231772
 30
0.0
 10
-127.9859841530115
 20
-79.48768676289896
 30
0.0
 10
-127.9448315686077
 20
-81.20247317281712
 30
0.0
 10
-127.8960093787678
 20
-83.23846723735568
 30
0.0
 10
-126.2315332910882
 20
-84.86356505233933
 30
0.0
 10
-124.1949096320717
 20
-84.86356505233933
 30
0.0
 10
-124.1949096320717
 20
-84.86356505233933
 30
0.0
 10
-101.4208175853436
 20
-84.86356505233933
 30
0.0
 10
-101.4208175853436
 20
-84.86356505233933
 30
0.0
 10
-99.38430839804853
 20
-84.86356505233933
 30
0.0
 10
-97.71983231037216
 20
-83.23863894494357
 30
0.0
 10
-97.67083841294436
 20
-81.20275935212637
 30
0.0
 10
-97.58195112006857
 20
-77.50681083296296
 30
0.0
 10
-97.322214780676
 20
-65.24906426684653
 30
0.0
 10
-97.71279229941017
 20
-62.69256727801425
 30
0.0
 10
-97.71697051729688
 20
-62.66515130036567
 30
0.0
 10
-97.72498353790481
 20
-62.63830768133304
 30
0.0
 10
-97.72956240682219
 20
-62.61094893954322
 30
0.0
 10
-97.72956240682219
 20
-62.61094893954322
 30
0.0
 10
-83.95827071974512
 20
-86.09991689615226
 30
0.0
 10
-83.95827071974512
 20
-86.09991689615226
 30
0.0
 10
-83.95827071974512
 20
-86.09991689615226
 30
0.0
 10
-18.66588937868329
 20
-86.09991689615226
 30
0.0
 10
-18.66588937868329
 20
-86.09991689615226
 30
0.0
  0
HATCH
  5
7F
330
79
100
AcDbEntity
  8
Layer 1
 62
     7
440
 33554687
100
AcDbHatch
 10
0.0
 20
0.0
 30
0.0
210
0.0
220
0.0
230
1.0
  2
SOLID
 70
     1
 71
     1
 91
        2
 92
        1
 93
        1
 72
     4
 94
        3
 73
     0
 74
     0
 95
      437
 96
      433
 40
0.0
 40
0.0
 40
0.0
 40
0.0
 40
1.0
 40
1.0
 40
1.0
 40
2.0
 40
2.0
 40
2.0
 40
3.0
 40
3.0
 40
3.0
 40
4.0
 40
4.0
 40
4.0
 40
5.0
 40
5.0
 40
5.0
 40
6.0
 40
6.0
 40
6.0
 40
7.0
 40
7.0
 40
7.0
 40
8.0
 40
8.0
 40
8.0
 40
9.0
 40
9.0
 40
9.0
 40
10.0
 40
10.0
 40
10.0
 40
11.0
 40
11.0
 40
11.0
 40
12.0
 40
12.0
 40
12.0
 40
13.0
 40
13.0
 40
13.0
 40
14.0
 40
14.0
 40
14.0
 40
15.0
 40
15.0
 40
15.0
 40
16.0
 40
16.0
 40
16.0
 40
17.0
 40
17.0
 40
17.0
 40
18.0
 40
18.0
 40
18.0
 40
19.0
 40
19.0
 40
19.0
 40
20.0
 40
20.0
 40
20.0
 40
21.0
 40
21.0
 40
21.0
 40
22.0
 40
22.0
 40
22.0
 40
23.0
 40
23.0
 40
23.0
 40
24.0
 40
24.0
 40
24.0
 40
25.0
 40
25.0
 40
25.0
 40
26.0
 40
26.0
 40
26.0
 40
27.0
 40
27.0
 40
27.0
 40
28.0
 40
28.0
 40
28.0
 40
29.0
 40
29.0
 40
29.0
 40
30.0
 40
30.0
 40
30.0
 40
31.0
 40
31.0
 40
31.0
 40
32.0
 40
32.0
 40
32.0
 40
33.0
 40
33.0
 40
33.0
 40
34.0
 40
34.0
 40
34.0
 40
35.0
 40
35.0
 40
35.0
 40
36.0
 40
36.0
 40
36.0
 40
37.0
 40
37.0
 40
37.0
 40
38.0
 40
38.0
 40
38.0
 40
39.0
 40
39.0
 40
39.0
 40
40.0
 40
40.0
 40
40.0
 40
41.0
 40
41.0
 40
41.0
 40
42.0
 40
42.0
 40
42.0
 40
43.0
 40
43.0
 40
43.0
 40
44.0
 40
44.0
 40
44.0
 40
45.0
 40
45.0
 40
45.0
 40
46.0
 40
46.0
 40
46.0
 40
47.0
 40
47.0
 40
47.0
 40
48.0
 40
48.0
 40
48.0
 40
49.0
 40
49.0
 40
49.0
 40
50.0
 40
50.0
 40
50.0
 40
51.0
 40
51.0
 40
51.0
 40
52.0
 40
52.0
 40
52.0
 40
53.0
 40
53.0
 40
53.0
 40
54.0
 40
54.0
 40
54.0
 40
55.0
 40
55.0
 40
55.0
 40
56.0
 40
56.0
 40
56.0
 40
57.0
 40
57.0
 40
57.0
 40
58.0
 40
58.0
 40
58.0
 40
59.0
 40
59.0
 40
59.0
 40
60.0
 40
60.0
 40
60.0
 40
61.0
 40
61.0
 40
61.0
 40
62.0
 40
62.0
 40
62.0
 40
63.0
 40
63.0
 40
63.0
 40
64.0
 40
64.0
 40
64.0
 40
65.0
 40
65.0
 40
65.0
 40
66.0
 40
66.0
 40
66.0
 40
67.0
 40
67.0
 40
67.0
 40
68.0
 40
68.0
 40
68.0
 40
69.0
 40
69.0
 40
69.0
 40
70.0
 40
70.0
 40
70.0
 40
71.0
 40
71.0
 40
71.0
 40
72.0
 40
72.0
 40
72.0
 40
73.0
 40
73.0
 40
73.0
 40
74.0
 40
74.0
 40
74.0
 40
75.0
 40
75.0
 40
75.0
 40
76.0
 40
76.0
 40
76.0
 40
77.0
 40
77.0
 40
77.0
 40
78.0
 40
78.0
 40
78.0
 40
79.0
 40
79.0
 40
79.0
 40
80.0
 40
80.0
 40
80.0
 40
81.0
 40
81.0
 40
81.0
 40
82.0
 40
82.0
 40
82.0
 40
83.0
 40
83.0
 40
83.0
 40
84.0
 40
84.0
 40
84.0
 40
85.0
 40
85.0
 40
85.0
 40
86.0
 40
86.0
 40
86.0
 40
87.0
 40
87.0
 40
87.0
 40
88.0
 40
88.0
 40
88.0
 40
89.0
 40
89.0
 40
89.0
 40
90.0
 40
90.0
 40
90.0
 40
91.0
 40
91.0
 40
91.0
 40
92.0
 40
92.0
 40
92.0
 40
93.0
 40
93.0
 40
93.0
 40
94.0
 40
94.0
 40
94.0
 40
95.0
 40
95.0
 40
95.0
 40
96.0
 40
96.0
 40
96.0
 40
97.0
 40
97.0
 40
97.0
 40
98.0
 40
98.0
 40
98.0
 40
99.0
 40
99.0
 40
99.0
 40
100.0
 40
100.0
 40
100.0
 40
101.0
 40
101.0
 40
101.0
 40
102.0
 40
102.0
 40
102.0
 40
103.0
 40
103.0
 40
103.0
 40
104.0
 40
104.0
 40
104.0
 40
105.0
 40
105.0
 40
105.0
 40
106.0
 40
106.0
 40
106.0
 40
107.0
 40
107.0
 40
107.0
 40
108.0
 40
108.0
 40
108.0
 40
109.0
 40
109.0
 40
109.0
 40
110.0
 40
110.0
 40
110.0
 40
111.0
 40
111.0
 40
111.0
 40
112.0
 40
112.0
 40
112.0
 40
113.0
 40
113.0
 40
113.0
 40
114.0
 40
114.0
 40
114.0
 40
115.0
 40
115.0
 40
115.0
 40
116.0
 40
116.0
 40
116.0
 40
117.0
 40
117.0
 40
117.0
 40
118.0
 40
118.0
 40
118.0
 40
119.0
 40
119.0
 40
119.0
 40
120.0
 40
120.0
 40
120.0
 40
121.0
 40
121.0
 40
121.0
 40
122.0
 40
122.0
 40
122.0
 40
123.0
 40
123.0
 40
123.0
 40
124.0
 40
124.0
 40
124.0
 40
125.0
 40
125.0
 40
125.0
 40
126.0
 40
126.0
 40
126.0
 40
127.0
 40
127.0
 40
127.0
 40
128.0
 40
128.0
 40
128.0
 40
129.0
 40
129.0
 40
129.0
 40
130.0
 40
130.0
 40
130.0
 40
131.0
 40
131.0
 40
131.0
 40
132.0
 40
132.0
 40
132.0
 40
133.0
 40
133.0
 40
133.0
 40
134.0
 40
134.0
 40
134.0
 40
135.0
 40
135.0
 40
135.0
 40
136.0
 40
136.0
 40
136.0
 40
137.0
 40
137.0
 40
137.0
 40
138.0
 40
138.0
 40
138.0
 40
139.0
 40
139.0
 40
139.0
 40
140.0
 40
140.0
 40
140.0
 40
141.0
 40
141.0
 40
141.0
 40
142.0
 40
142.0
 40
142.0
 40
143.0
 40
143.0
 40
143.0
 40
144.0
 40
144.0
 40
144.0
 40
144.0
 10
-101.2613584752602
 20
-70.74811413018602
 10
-101.2629038435208
 20
-71.00739258268851
 10
-101.2646209193661
 20
-71.26810193172639
 10
-101.2666814103801
 20
-71.52938363938023
 10
-101.2707451565447
 20
-72.05188981882464
 10
-101.2758391482148
 20
-72.57657096100377
 10
-101.2816199702248
 20
-73.09655876254415
 10
-101.2845389991594
 20
-73.35652404538014
 10
-101.287629735682
 20
-73.61534461099257
 10
-101.2908349439221
 20
-73.87210468558717
 10
-101.3005078045127
 20
-74.64238490937677
 10
-101.311497089918
 20
-75.3941207140426
 10
-101.3229442622133
 20
-76.10395986810845
 10
-101.3343341986492
 20
-76.81379902217431
 10
-101.3461820219752
 20
-77.48179876150023
 10
-101.3575147225452
 20
-78.08443514701315
 10
-101.3687901872559
 20
-78.68712876838934
 10
-101.3796650009391
 20
-79.22451627181965
 10
-101.3889944463585
 20
-79.67307371823231
 10
-101.3936877870004
 20
-79.89738105936834
 10
-101.398037712475
 20
-80.09948088625366
 10
-101.401872515193
 20
-80.27651140580719
 10
-101.4047915441271
 20
-80.40924136857938
 10
-101.4074243937564
 20
-80.52789130942313
 10
-101.4097138282163
 20
-80.63114480353277
 10
-101.4166966033157
 20
-80.94096252172048
 10
-101.4208175853436
 20
-81.11255563443595
 10
-101.4208175853436
 20
-81.11255563443595
 10
-101.4208175853436
 20
-81.11255563443595
 10
-124.1949096320717
 20
-81.11255563443595
 10
-124.1949096320717
 20
-81.11255563443595
 10
-124.1949096320717
 20
-81.11255563443595
 10
-124.5648250048138
 20
-65.68777714508391
 10
-124.1949096320717
 20
-63.25908783493844
 10
-123.9557782028124
 20
-61.69528962759864
 10
-121.5671539956995
 20
-59.98742875692042
 10
-119.8967826142879
 20
-58.96931725292749
 10
-119.8967826142879
 20
-58.96931725292749
 10
-120.5844714899631
 20
-58.96931725292749
 10
-120.5844714899631
 20
-58.96931725292749
 10
-120.8143307096625
 20
-58.96931725292749
 10
-121.0226692454453
 20
-58.87613727043976
 10
-121.1734857404467
 20
-58.72537801130418
 10
-121.3243022354404
 20
-58.57467598802802
 10
-121.4176539255166
 20
-58.36633745224589
 10
-121.4176539255166
 20
-58.13613481737466
 10
-121.4176539255166
 20
-58.13613481737466
 10
-121.4176539255166
 20
-51.36644882919246
 10
-121.4176539255166
 20
-51.36644882919246
 10
-121.4176539255166
 20
-51.36644882919246
 10
-125.5001162172463
 20
-51.36644882919246
 10
-125.5001162172463
 20
-51.36644882919246
 10
-125.4992576793218
 20
-51.632137698179
 10
-125.4985136131224
 20
-51.8895846031148
 10
-125.4977695469263
 20
-52.13220741992348
 10
-125.4961097069436
 20
-52.66009377034656
 10
-125.4946788104044
 20
-53.13251857099581
 10
-125.4933623855898
 20
-53.54576149087718
 10
-125.489470347013
 20
-54.78549025051745
 10
-125.4870664408271
 20
-55.49263931909589
 10
-125.4867230256591
 20
-55.56773276935442
 10
-125.4864940822157
 20
-55.67836968959408
 10
-125.4972544241743
 20
-55.78797636432579
 10
-125.5183744570564
 20
-55.89495018943143
 10
-125.5606145228314
 20
-56.10895507550212
 10
-125.6444650598972
 20
-56.31277197823016
 10
-125.7650610200335
 20
-56.49472478187293
 10
-125.8253876180308
 20
-56.58572980162531
 10
-125.8948719538672
 20
-56.67124017867378
 10
-125.9730561406476
 20
-56.74982501648487
 10
-126.1291955707651
 20
-56.90636509763041
 10
-126.3135522805898
 20
-57.02884984119668
 10
-126.5142212109366
 20
-57.11212801965038
 10
-126.7148901412826
 20
-57.19546343396348
 10
-126.9318140562887
 20
-57.23959228316402
 10
-127.1530878967648
 20
-57.23959228316402
 10
-127.1530878967648
 20
-57.23959228316402
 10
-130.0139079610834
 20
-57.23959228316402
 10
-130.0139079610834
 20
-57.23959228316402
 10
-130.0139079610834
 20
-57.23959228316402
 10
-131.1447741121906
 20
-69.46534400271514
 10
-131.1447741121906
 20
-69.46534400271514
 10
-131.1447741121906
 20
-69.46534400271514
 10
-131.2195813831438
 20
-70.27431566886399
 10
-131.2195813831438
 20
-70.27431566886399
 10
-131.2195813831438
 20
-70.27431566886399
 10
-150.0923054038648
 20
-70.27431566886399
 10
-150.0923054038648
 20
-70.27431566886399
 10
-150.0923054038648
 20
-70.27431566886399
 10
-151.2985511845399
 20
-57.23959228316402
 10
-151.2985511845399
 20
-57.23959228316402
 10
-151.2985511845399
 20
-57.23959228316402
 10
-154.1596574281645
 20
-57.23959228316402
 10
-154.1596574281645
 20
-57.23959228316402
 10
-154.6022051091225
 20
-57.23959228316402
 10
-155.0262656068226
 20
-57.06296241463856
 10
-155.339746420143
 20
-56.74982501648487
 10
-155.6523114596821
 20
-56.43548566524307
 10
-155.8268808371935
 20
-56.01028045031048
 10
-155.8260222992715
 20
-55.56773276935442
 10
-155.8255644123795
 20
-55.45612283947201
 10
-155.8204131848475
 20
-53.94469544538797
 10
-155.8124574001015
 20
-51.36644882919246
 10
-155.8124574001015
 20
-51.36644882919246
 10
-159.8953775787226
 20
-51.36644882919246
 10
-159.8953775787226
 20
-51.36644882919246
 10
-159.8953775787226
 20
-51.36644882919246
 10
-159.8953775787226
 20
-58.13613481737466
 10
-159.8953775787226
 20
-58.13613481737466
 10
-159.8953775787226
 20
-58.59654008711328
 10
-160.2684981597061
 20
-58.96931725292749
 10
-160.7282738349681
 20
-58.96931725292749
 10
-160.7282738349681
 20
-58.96931725292749
 10
-161.4162488899487
 20
-58.96931725292749
 10
-161.4162488899487
 20
-58.96931725292749
 10
-159.7455913292317
 20
-59.98742875692042
 10
-157.3569671221189
 20
-61.69528962759864
 10
-157.1178356928576
 20
-63.25908783493844
 10
-156.7479203201174
 20
-65.68777714508391
 10
-157.1178356928576
 20
-81.11255563443595
 10
-157.1178356928576
 20
-81.11255563443595
 10
-157.1178356928576
 20
-81.11255563443595
 10
-179.8918132678663
 20
-81.11255563443595
 10
-179.8918132678663
 20
-81.11255563443595
 10
-179.8918132678663
 20
-81.11255563443595
 10
-180.2182293858819
 20
-67.55046102106558
 10
-179.9528266962027
 20
-63.85783218187135
 10
-179.9351980508661
 20
-63.61240480784554
 10
-179.9149365559035
 20
-63.41041945268869
 10
-179.8918132678663
 20
-63.25908783493844
 10
-179.7567366347747
 20
-62.37307669923593
 10
-178.9252712750658
 20
-61.44459655431941
 10
-177.9314850122009
 20
-60.61771006352857
 10
-177.1713355358964
 20
-59.98519655832243
 10
-176.3186929074397
 20
-59.41060574493538
 10
-175.5947164955879
 20
-58.96931725292749
 10
-175.5947164955879
 20
-58.96931725292749
 10
-176.2812606540318
 20
-58.96931725292749
 10
-176.2812606540318
 20
-58.96931725292749
 10
-176.3779892599309
 20
-58.96931725292749
 10
-176.4688798079612
 20
-58.95014323933349
 10
-176.5533027036436
 20
-58.91717538312223
 10
-176.6377255993241
 20
-58.88420752691033
 10
-176.7156236067972
 20
-58.83738859221789
 10
-176.7863671315863
 20
-58.78204151416803
 10
-176.7863671315863
 20
-58.78204151416803
 10
-176.7863671315863
 20
-58.78209875002745
 10
-176.7863671315863
 20
-58.78209875002745
 10
-176.8130390430355
 20
-58.76115042472938
 10
-176.8465792578634
 20
-58.74935983726218
 10
-176.8705038479601
 20
-58.72537801130418
 10
-177.0213775788196
 20
-58.57467598802802
 10
-177.1146720330319
 20
-58.36633745224589
 10
-177.1146720330319
 20
-58.13613481737466
 10
-177.1146720330319
 20
-58.13613481737466
 10
-177.1146720330319
 20
34.62614035376541
 10
-177.1146720330319
 20
34.62614035376541
 10
-177.1146720330319
 20
36.27705154226987
 10
-176.0542059915432
 20
39.4623417053155
 10
-174.7116816246853
 20
42.83336223885545
 10
-174.4879466421639
 20
43.39518945513639
 10
-174.2563131107573
 20
43.96222513481327
 10
-174.0205013614633
 20
44.52811609725888
 10
-173.6667265016597
 20
45.37698115885573
 10
-173.3035077247128
 20
46.2233850784118
 10
-172.9429217973939
 20
47.04626505889995
 10
-172.365869841959
 20
48.36309052395009
 10
-171.7967736712713
 20
49.6167275979303
 10
-171.2830818144949
 20
50.72675989545895
 10
-171.2617328381643
 20
50.77283476395205
 10
-171.239353616325
 20
50.82159971793
 10
-171.2182335834384
 20
50.86721669952918
 10
-170.688229506142
 20
52.01044579671638
 10
-170.2218717068081
 20
52.99083886799602
 10
-169.8754802731358
 20
53.71080876954319
 10
-169.5290888394635
 20
54.43072143523031
 10
-169.3026637714522
 20
54.89021093118559
 10
-169.2525251567957
 20
54.9916328777247
 10
-169.1113815223875
 20
55.27552275066248
 10
-168.8215391198576
 20
55.45587295018136
 10
-168.5051965134613
 20
55.45587295018136
 10
-168.267495980738
 20
55.45587295018136
 10
-168.0450774230287
 20
55.35445100364289
 10
-167.8896248232518
 20
55.18394537229479
 10
-167.8378263686133
 20
55.12711016184693
 10
-167.7934685759661
 20
55.06260534595915
 10
-167.7584402287409
 20
54.9916328777247
 10
-167.708301614085
 20
54.89021093118559
 10
-167.4818765460731
 20
54.43072143523031
 10
-167.1354278765407
 20
53.71080876954319
 10
-166.7890364428678
 20
52.99083886799602
 10
-166.3226214076732
 20
52.01044579671638
 10
-165.7925028586521
 20
50.86721669952918
 10
-165.2624415454931
 20
49.72393036647937
 10
-164.6687339543689
 20
48.41780800752522
 10
-164.0676429371133
 20
47.04626505889995
 10
-163.8271950830394
 20
46.49771656248037
 10
-163.5856025117348
 20
45.93863666755331
 10
-163.3464138466142
 20
45.37537855473568
 10
-162.5092821366181
 20
43.40394654194366
 10
-161.7019130745912
 20
41.38105948968308
 10
-161.078843486529
 20
39.57423781450717
 10
-160.9008399573289
 20
39.05802757982541
 10
-160.7378322238347
 20
38.55938875461761
 10
-160.5935406170465
 20
38.08473175537037
 10
-160.1605513249558
 20
36.66064628590532
 10
-159.8953775787226
 20
35.45159594801957
 10
-159.8953775787226
 20
34.62614035376541
 10
-159.8953775787226
 20
34.62614035376541
 10
-159.8953775787226
 20
18.41087738152567
 10
-159.8953775787226
 20
18.41087738152567
 10
-159.8953775787226
 20
18.41087738152567
 10
-155.6963830730206
 20
18.41087738152567
 10
-155.6963830730206
 20
18.41087738152567
 10
-155.6967837240519
 20
19.23999607091384
 10
-155.6972988468033
 20
20.06041490935737
 10
-155.6979284412799
 20
20.87127535893488
 10
-155.6991303943719
 20
22.49293902222472
 10
-155.7008474702166
 20
24.07608295073869
 10
-155.7030796688145
 20
25.61212176525867
 10
-155.7034803198446
 20
25.85754913928
 10
-155.7039382067359
 20
26.09376153960783
 10
-155.7042816219046
 20
26.3367850074478
 10
-155.7050829239659
 20
26.85413995935954
 10
-155.7058842260259
 20
27.37389881745007
 10
-155.7067999998105
 20
27.87980659706649
 10
-155.7109209818359
 20
30.1101164113265
 10
-155.7163011528158
 20
32.22515320057008
 10
-155.7229977486085
 20
34.19635626991546
 10
-155.7274621458045
 20
35.51049164948075
 10
-155.7324989016145
 20
36.76075180763365
 10
-155.7382797236232
 20
37.93860860101156
 10
-155.7468651028458
 20
39.70542240901745
 10
-155.7569958503271
 20
41.30940019110872
 10
-155.7687292019297
 20
42.7222101958631
 10
-155.784354592115
 20
44.60589963300868
 10
-155.8029562470949
 20
46.1496652888267
 10
-155.8248775820422
 20
47.28585437505254
 10
-156.1132318521734
 20
62.22905032591355
 10
-143.6619708383936
 20
75.41716582037645
 10
-142.0033900444486
 20
77.10625332849197
 10
-141.9133580343422
 20
77.22650587345961
 10
-141.8072999830211
 20
77.33462441579267
 10
-141.6873908532215
 20
77.42746098311238
 10
-141.5674817234226
 20
77.52024031457267
 10
-141.4337787510076
 20
77.59762319929116
 10
-141.2886286062961
 20
77.65623272144694
 10
-141.087501789058
 20
77.73664910682537
 10
-140.8772172339833
 20
77.77579843607532
 10
-140.6689359340606
 20
77.77579843607532
 10
-140.3987254320174
 20
77.77579843607532
 10
-140.1316056664929
 20
77.71043508226617
 10
-139.8931038317089
 20
77.58411553598252
 10
-139.6925493730855
 20
77.48263635357758
 10
-139.5179227597127
 20
77.34217954951055
 10
-139.3756344080745
 20
77.17379164503903
 10
-139.2511464093576
 20
77.04810169322946
 10
-139.0281554930342
 20
76.81932995489425
 10
-138.7288119374984
 20
76.49880913061055
 10
-138.4192231627561
 20
76.16729902092609
 10
-138.0271002757626
 20
75.73682810673943
 10
-137.5724185921719
 20
75.21466534246306
 10
-137.4208580309737
 20
75.04061108770684
 10
-137.2623719305382
 20
74.8563688496041
 10
-137.0976471212007
 20
74.6621675716047
 10
-136.8624077305214
 20
74.38485982273817
 10
-136.6110850627662
 20
74.08076569069845
 10
-136.3531230350789
 20
73.76442308430146
 10
-135.8988992383797
 20
73.20723197280369
 10
-135.4165153978331
 20
72.59767004804953
 10
-134.9114089202786
 20
71.92738087426366
 10
-134.5154512305651
 20
71.40195566588456
 10
-134.1076457175257
 20
70.84333365784757
 10
-133.6941166183376
 20
70.25403322805861
 10
-133.0737943516249
 20
69.37013981923269
 10
-132.4404795443568
 20
68.41721996146425
 10
-131.8143192197746
 20
67.40363009052991
 10
-131.3968980820066
 20
66.72790350990595
 10
-130.9827393883425
 20
66.02521883852347
 10
-130.5777384325157
 20
65.29809445429293
 10
-129.9702942346381
 20
64.20740787794551
 10
-129.383569418612
 20
63.0617176387137
 10
-128.8378254794096
 20
61.86932293651791
 10
-127.5644992690788
 20
59.0872021817324
 10
-126.51445015438
 20
56.05106867370551
 10
-125.9450678043876
 20
52.86761005822722
 10
-125.863735645222
 20
52.41281390291453
 10
-125.7922480542348
 20
51.95504148280454
 10
-125.7312346259009
 20
51.49457897720329
 10
-125.6397717192546
 20
50.80385660087203
 10
-125.5721189309855
 20
50.10700998736213
 10
-125.5306801672756
 20
49.40524108976621
 10
-125.4892986394251
 20
48.7034149563083
 10
-125.4741883719964
 20
47.99666653876115
 10
-125.4879249787517
 20
47.28585437505254
 10
-125.4987997924317
 20
46.71778844987093
 10
-125.5088733040536
 20
46.04778545539431
 10
-125.5182027494723
 20
45.28437353498331
 10
-125.5275321948943
 20
44.52096161457166
 10
-125.5360603382549
 20
43.66408353236688
 10
-125.543901651275
 20
42.7222101958631
 10
-125.5556350028796
 20
41.30940019110872
 10
-125.5657085145015
 20
39.70542240901745
 10
-125.5743511295835
 20
37.93860860101156
 10
-125.5800747157308
 20
36.76075180763365
 10
-125.5851687074041
 20
35.51049164948075
 10
-125.5896331046001
 20
34.19635626991546
 10
-125.5985618989913
 20
31.56808551079064
 10
-125.6050867872006
 20
28.68419939429413
 10
-125.6094939485308
 20
25.61212176525867
 10
-125.6111537885166
 20
24.46013558126421
 10
-125.61252744919
 20
23.28159195754509
 10
-125.613614930558
 20
22.0802112250954
 10
-125.6147024119254
 20
20.8788304926457
 10
-125.61556094985
 20
19.654555415606
 10
-125.6161333084653
 20
18.41087738152567
 10
-125.6161333084653
 20
18.41087738152567
 10
-121.4176539255166
 20
18.41087738152567
 10
-121.4176539255166
 20
18.41087738152567
 10
-121.4176539255166
 20
18.41087738152567
 10
-121.4176539255166
 20
34.62614035376541
 10
-121.4176539255166
 20
34.62614035376541
 10
-121.4176539255166
 20
35.45159594801957
 10
-121.1524801792821
 20
36.66064628590532
 10
-120.7194908871921
 20
38.08473175537037
 10
-120.5751420445412
 20
38.55938875461761
 10
-120.4121915469078
 20
39.05802757982541
 10
-120.2341307818495
 20
39.57423781450717
 10
-120.0560700167874
 20
40.09050528504769
 10
-119.8630134560179
 20
40.62428692920661
 10
-119.65850972295
 20
41.16957298151578
 10
-119.4540059898853
 20
41.71485903382879
 10
-119.2380550845226
 20
42.27153502257771
 10
-119.0142628661393
 20
42.83336223885545
 10
-118.9023667569476
 20
43.11427584699592
 10
-118.7884673926046
 20
43.39644864408842
 10
-118.6731371317224
 20
43.67919379979942
 10
-118.4424193741023
 20
44.2446268753524
 10
-118.2056918510217
 20
44.8121204419187
 10
-117.9665031859036
 20
45.37537855473568
 10
-117.8106499350916
 20
45.74237489853994
 10
-117.6538236746407
 20
46.10628050582548
 10
-117.4968829424645
 20
46.46795391451241
 10
-117.3254043014743
 20
46.86328200974859
 10
-117.1538684246182
 20
47.25443188709807
 10
-116.9835917367174
 20
47.63922858382227
 10
-116.6430383609158
 20
48.4087647414119
 10
-116.3074645050622
 20
49.15271646892028
 10
-115.987458803535
 20
49.85265381894888
 10
-115.8274273348401
 20
50.20259387603187
 10
-115.671287904722
 20
50.54154464771346
 10
-115.5202997021398
 20
50.86721669952918
 10
-115.3580360348469
 20
51.21715675661217
 10
-115.2041860391894
 20
51.54609125253447
 10
-115.0554300352052
 20
51.86272003823752
 10
-114.7840175800713
 20
52.44068776745638
 10
-114.5383612626027
 20
52.9576993042001
 10
-114.3272754054667
 20
53.39830096586358
 10
-114.2006124440144
 20
53.66255893831472
 10
-114.0835651072868
 20
53.90563964201668
 10
-113.9843181234831
 20
54.11071573369609
 10
-113.8658398902227
 20
54.35545627738135
 10
-113.768367218123
 20
54.55538114152808
 10
-113.6955059664593
 20
54.70430885310019
 10
-113.6226447147955
 20
54.85317932880581
 10
-113.5743376477076
 20
54.95105265193615
 10
-113.5543050961897
 20
54.9916328777247
 10
-113.4143061790095
 20
55.27552275066248
 10
-113.124463776481
 20
55.45587295018136
 10
-112.808121170084
 20
55.45587295018136
 10
-112.4912062050717
 20
55.45587295018136
 10
-112.2014210384058
 20
55.27552275066248
 10
-112.0602201681362
 20
54.9916328777247
 10
-112.0100815534778
 20
54.89021093118559
 10
-111.7836564854658
 20
54.43072143523031
 10
-111.4372650517954
 20
53.71080876954319
 10
-111.0908736181206
 20
52.99083886799602
 10
-110.6245158187912
 20
52.01044579671638
 10
-110.0945117414915
 20
50.86721669952918
 10
-109.5645076641957
 20
49.72393036647937
 10
-108.9708573089322
 20
48.41780800752522
 10
-108.3698235275393
 20
47.04626505889995
 10
-108.1294329093247
 20
46.49771656248037
 10
-107.8878975738841
 20
45.93863666755331
 10
-107.6487089087589
 20
45.37537855473568
 10
-106.8116916704881
 20
43.40394654194366
 10
-106.0044370801845
 20
41.38105948968308
 10
-105.3814247279811
 20
39.57423781450717
 10
-105.2034211987816
 20
39.05802757982541
 10
-105.0404134652901
 20
38.55938875461761
 10
-104.8961218585012
 20
38.08473175537037
 10
-104.4631898022699
 20
36.66064628590532
 10
-104.1980732918986
 20
35.45159594801957
 10
-104.1980732918986
 20
34.62614035376541
 10
-104.1980732918986
 20
34.62614035376541
 10
-104.1980732918986
 20
-58.13613481737466
 10
-104.1980732918986
 20
-58.13613481737466
 10
-104.1980732918986
 20
-58.48143876967766
 10
-104.4080716676673
 20
-58.77746264525068
 10
-104.7070718080344
 20
-58.90389666325638
 10
-104.8067194428727
 20
-58.94602225730684
 10
-104.9162688817411
 20
-58.96931725292749
 10
-105.0311984915927
 20
-58.96931725292749
 10
-105.0311984915927
 20
-58.96931725292749
 10
-105.7177426500373
 20
-58.96931725292749
 10
-105.7177426500373
 20
-58.96931725292749
 10
-105.300149804682
 20
-59.22384512892477
 10
-104.8376840439294
 20
-59.52147160861847
 10
-104.3751610473148
 20
-59.84920415144753
 10
-103.9126380507034
 20
-60.17687945841845
 10
-103.4501150540882
 20
-60.53471806438413
 10
-103.0322360294307
 20
-60.90955572121167
 10
-102.614414240632
 20
-61.28445061390247
 10
-102.2413508955085
 20
-61.67634455745127
 10
-101.9578044377426
 20
-62.07224501130276
 10
-101.6743152158355
 20
-62.46820270101624
 10
-101.4803428812789
 20
-62.86810966517298
 10
-101.4208175853436
 20
-63.25908783493844
 10
-101.4091987054604
 20
-63.33498258725827
 10
-101.3983238917804
 20
-63.42358370082544
 10
-101.3881359084371
 20
-63.52397540185982
 10
-101.3779479250938
 20
-63.62442433875938
 10
-101.3684467720872
 20
-63.7366066272571
 10
-101.3596324494212
 20
-63.85983543702206
 10
-101.3243179228867
 20
-64.35257896849531
 10
-101.299477559008
 20
-65.02069317954583
 10
-101.282993630902
 20
-65.80854481280424
 10
-101.2623887207688
 20
-66.79340228127921
 10
-101.2547763511915
 20
-67.9654210167884
 10
-101.2559783042809
 20
-69.21625353355659
 10
-101.2564361911741
 20
-69.71655219874707
 10
-101.2583249746034
 20
-70.22949998932611
 10
-101.2613584752602
 20
-70.74811413018602
 97
        0
 97
        1
330
7D
 92
        1
 93
        1
 72
     4
 94
        3
 73
     0
 74
     0
 95
      101
 96
       97
 40
0.0
 40
0.0
 40
0.0
 40
0.0
 40
1.0
 40
1.0
 40
1.0
 40
2.0
 40
2.0
 40
2.0
 40
3.0
 40
3.0
 40
3.0
 40
4.0
 40
4.0
 40
4.0
 40
5.0
 40
5.0
 40
5.0
 40
6.0
 40
6.0
 40
6.0
 40
7.0
 40
7.0
 40
7.0
 40
8.0
 40
8.0
 40
8.0
 40
9.0
 40
9.0
 40
9.0
 40
10.0
 40
10.0
 40
10.0
 40
11.0
 40
11.0
 40
11.0
 40
12.0
 40
12.0
 40
12.0
 40
13.0
 40
13.0
 40
13.0
 40
14.0
 40
14.0
 40
14.0
 40
15.0
 40
15.0
 40
15.0
 40
16.0
 40
16.0
 40
16.0
 40
17.0
 40
17.0
 40
17.0
 40
18.0
 40
18.0
 40
18.0
 40
19.0
 40
19.0
 40
19.0
 40
20.0
 40
20.0
 40
20.0
 40
21.0
 40
21.0
 40
21.0
 40
22.0
 40
22.0
 40
22.0
 40
23.0
 40
23.0
 40
23.0
 40
24.0
 40
24.0
 40
24.0
 40
25.0
 40
25.0
 40
25.0
 40
26.0
 40
26.0
 40
26.0
 40
27.0
 40
27.0
 40
27.0
 40
28.0
 40
28.0
 40
28.0
 40
29.0
 40
29.0
 40
29.0
 40
30.0
 40
30.0
 40
30.0
 40
31.0
 40
31.0
 40
31.0
 40
32.0
 40
32.0
 40
32.0
 40
32.0
 10
-18.66588937868329
 20
-86.09991689615226
 10
-18.66588937868329
 20
-86.09991689615226
 10
-75.40791984508742
 20
4.221649433928484
 10
-75.40791984508742
 20
4.221649433928484
 10
-75.40791984508742
 20
4.221649433928484
 10
-33.77661469609444
 20
70.65977825008474
 10
-33.77661469609444
 20
70.65977825008474
 10
-33.77661469609444
 20
70.65977825008474
 10
-33.74255935851517
 20
70.7142095543506
 10
-33.74255935851517
 20
70.7142095543506
 10
-33.74255935851517
 20
70.7142095543506
 10
-32.07384781708627
 20
73.37710800967322
 10
-32.07384781708627
 20
73.37710800967322
 10
-32.07384781708627
 20
73.37710800967322
 10
-32.07293204330293
 20
73.37561987727456
 10
-32.07293204330293
 20
73.37561987727456
 10
-32.07293204330293
 20
73.37561987727456
 10
-26.48396464157841
 20
82.28472513168899
 10
-26.48396464157841
 20
82.28472513168899
 10
-26.48396464157841
 20
82.28472513168899
 10
-26.00839186854783
 20
82.7632169336536
 10
-26.00839186854783
 20
82.7632169336536
 10
-26.00839186854783
 20
82.7632169336536
 10
-78.16874885939914
 20
82.7632169336536
 10
-78.16874885939914
 20
82.7632169336536
 10
-78.16874885939914
 20
82.7632169336536
 10
-102.3746532168947
 20
42.30828044564823
 10
-102.3746532168947
 20
42.30828044564823
 10
-104.2832402537784
 20
47.51680107611926
 10
-107.138966326427
 20
53.50075315791513
 10
-108.6976705420904
 20
56.65387676680309
 10
-109.4615403493915
 20
58.19031623235372
 10
-110.9754861213795
 20
59.14815837421141
 10
-112.6728155935496
 20
59.19749568680401
 10
-112.6728155935496
 20
59.19749568680401
 10
-126.2584913818467
 20
82.7632169336536
 10
-126.2584913818467
 20
82.7632169336536
 10
-126.2584913818467
 20
82.7632169336536
 10
-191.7459897746932
 20
82.7632169336536
 10
-191.7459897746932
 20
82.7632169336536
 10
-191.7459897746932
 20
82.7632169336536
 10
-173.676857249141
 20
54.47444963339698
 10
-173.676857249141
 20
54.47444963339698
 10
-176.4454703406166
 20
48.70873789142499
 10
-180.865681450936
 20
38.84270626894008
 10
-180.865681450936
 20
34.62614035376541
 10
-180.865681450936
 20
34.62614035376541
 10
-180.865681450936
 20
-58.13613481737466
 10
-180.865681450936
 20
-58.13613481737466
 10
-180.865681450936
 20
-58.15204638686529
 10
-180.8656242150733
 20
-58.1680151922192
 10
-180.8654525074893
 20
-58.18386952584722
 10
-182.4741236302258
 20
-59.64761944731812
 10
-183.3603637093698
 20
-61.12195800316296
 10
-183.6000102613824
 20
-62.69382646696627
 10
-183.7700007699759
 20
-63.80580478378685
 10
-183.816647997083
 20
-66.75574108442535
 10
-183.8079481461371
 20
-70.03758814578346
 10
-183.8079481461371
 20
-70.03758814578346
 10
-193.8282304153095
 20
-86.09991689615226
 10
-193.8282304153095
 20
-86.09991689615226
 10
-193.8282304153095
 20
-86.09991689615226
 10
-140.9915172493563
 20
-86.09991689615226
 10
-140.9915172493563
 20
-86.09991689615226
 10
-140.9915172493563
 20
-86.09991689615226
 10
-133.8440173395512
 20
-74.02532508676737
 10
-133.8440173395512
 20
-74.02532508676737
 10
-133.8440173395512
 20
-74.02532508676737
 10
-131.2195813831438
 20
-74.02532508676737
 10
-131.2195813831438
 20
-74.02532508676737
 10
-129.924391073729
 20
-74.02532508676737
 10
-128.7717752952605
 20
-73.36602519838674
 10
-128.0964493656672
 20
-72.35254979917378
 10
-128.0637676887645
 20
-75.92950496231772
 10
-127.9859841530115
 20
-79.48768676289896
 10
-127.9448315686077
 20
-81.20247317281712
 10
-127.8960093787678
 20
-83.23846723735568
 10
-126.2315332910882
 20
-84.86356505233933
 10
-124.1949096320717
 20
-84.86356505233933
 10
-124.1949096320717
 20
-84.86356505233933
 10
-101.4208175853436
 20
-84.86356505233933
 10
-101.4208175853436
 20
-84.86356505233933
 10
-99.38430839804853
 20
-84.86356505233933
 10
-97.71983231037216
 20
-83.23863894494357
 10
-97.67083841294436
 20
-81.20275935212637
 10
-97.58195112006857
 20
-77.50681083296296
 10
-97.322214780676
 20
-65.24906426684653
 10
-97.71279229941017
 20
-62.69256727801425
 10
-97.71697051729688
 20
-62.66515130036567
 10
-97.72498353790481
 20
-62.63830768133304
 10
-97.72956240682219
 20
-62.61094893954322
 10
-97.72956240682219
 20
-62.61094893954322
 10
-83.95827071974512
 20
-86.09991689615226
 10
-83.95827071974512
 20
-86.09991689615226
 10
-83.95827071974512
 20
-86.09991689615226
 10
-18.66588937868329
 20
-86.09991689615226
 10
-18.66588937868329
 20
-86.09991689615226
 97
        0
 97
        1
330
7E
 75
     2
 76
     1
 98
        1
 10
0.0
 20
0.0
450
        0
451
        0
460
0.0
461
0.0
452
        0
462
0.0
453
        0
470

  0
SPLINE
  5
80
330
79
100
AcDbEntity
  8
Layer 1
100
AcDbSpline
210
0.0
220
0.0
230
1.0
 70
    11
 71
     3
 72
    23
 73
    19
 74
     0
 42
0.0000000001
 43
0.0000000001
 40
0.0
 40
0.0
 40
0.0
 40
0.0
 40
1.0
 40
1.0
 40
1.0
 40
2.0
 40
2.0
 40
2.0
 40
3.0
 40
3.0
 40
3.0
 40
4.0
 40
4.0
 40
4.0
 40
5.0
 40
5.0
 40
5.0
 40
6.0
 40
6.0
 40
6.0
 40
6.0
 10
-159.8953775787226
 20
6.026181674643799
 30
0.0
 10
-159.8953775787226
 20
6.026181674643799
 30
0.0
 10
-159.8953775787226
 20
-10.33440314988894
 30
0.0
 10
-159.8953775787226
 20
-10.33440314988894
 30
0.0
 10
-159.8953775787226
 20
-10.33440314988894
 30
0.0
 10
-155.7168162755685
 20
-10.33440314988894
 30
0.0
 10
-155.7168162755685
 20
-10.33440314988894
 30
0.0
 10
-155.7152136714485
 20
-9.311598305257263
 30
0.0
 10
-155.7136683031872
 20
-8.285073129625741
 30
0.0
 10
-155.7121801707886
 20
-7.256315755396237
 30
0.0
 10
-155.7058269901659
 20
-2.825573246566216
 30
0.0
 10
-155.7010191778012
 20
1.642086392918343
 30
0.0
 10
-155.6982146205885
 20
6.026181674643799
 30
0.0
 10
-155.6982146205885
 20
6.026181674643799
 30
0.0
 10
-155.6982718564499
 20
6.026181674643799
 30
0.0
 10
-155.6982718564499
 20
6.026181674643799
 30
0.0
 10
-155.6982718564499
 20
6.026181674643799
 30
0.0
 10
-159.8953775787226
 20
6.026181674643799
 30
0.0
 10
-159.8953775787226
 20
6.026181674643799
 30
0.0
  0
HATCH
  5
81
330
79
100
AcDbEntity
  8
Layer 1
 62
     7
440
 33554687
100
AcDbHatch
 10
0.0
 20
0.0
 30
0.0
210
0.0
220
0.0
230
1.0
  2
SOLID
 70
     1
 71
     1
 91
        1
 92
        1
 93
        1
 72
     4
 94
        3
 73
     0
 74
     0
 95
       23
 96
       19
 40
0.0
 40
0.0
 40
0.0
 40
0.0
 40
1.0
 40
1.0
 40
1.0
 40
2.0
 40
2.0
 40
2.0
 40
3.0
 40
3.0
 40
3.0
 40
4.0
 40
4.0
 40
4.0
 40
5.0
 40
5.0
 40
5.0
 40
6.0
 40
6.0
 40
6.0
 40
6.0
 10
-159.8953775787226
 20
6.026181674643799
 10
-159.8953775787226
 20
6.026181674643799
 10
-159.8953775787226
 20
-10.33440314988894
 10
-159.8953775787226
 20
-10.33440314988894
 10
-159.8953775787226
 20
-10.33440314988894
 10
-155.7168162755685
 20
-10.33440314988894
 10
-155.7168162755685
 20
-10.33440314988894
 10
-155.7152136714485
 20
-9.311598305257263
 10
-155.7136683031872
 20
-8.285073129625741
 10
-155.7121801707886
 20
-7.256315755396237
 10
-155.7058269901659
 20
-2.825573246566216
 10
-155.7010191778012
 20
1.642086392918343
 10
-155.6982146205885
 20
6.026181674643799
 10
-155.6982146205885
 20
6.026181674643799
 10
-155.6982718564499
 20
6.026181674643799
 10
-155.6982718564499
 20
6.026181674643799
 10
-155.6982718564499
 20
6.026181674643799
 10
-159.8953775787226
 20
6.026181674643799
 10
-159.8953775787226
 20
6.026181674643799
 97
        0
 97
        1
330
80
 75
     2
 76
     1
 98
        1
 10
0.0
 20
0.0
450
        0
451
        0
460
0.0
461
0.0
452
        0
462
0.0
453
        0
470

  0
SPLINE
  5
82
330
79
100
AcDbEntity
  8
Layer 1
100
AcDbSpline
210
0.0
220
0.0
230
1.0
 70
    11
 71
     3
 72
    23
 73
    19
 74
     0
 42
0.0000000001
 43
0.0000000001
 40
0.0
 40
0.0
 40
0.0
 40
0.0
 40
1.0
 40
1.0
 40
1.0
 40
2.0
 40
2.0
 40
2.0
 40
3.0
 40
3.0
 40
3.0
 40
4.0
 40
4.0
 40
4.0
 40
5.0
 40
5.0
 40
5.0
 40
6.0
 40
6.0
 40
6.0
 40
6.0
 10
-159.8953775787226
 20
-31.7060448827938
 30
0.0
 10
-159.8953775787226
 20
-31.7060448827938
 30
0.0
 10
-159.8953775787226
 20
-39.07962644544478
 30
0.0
 10
-159.8953775787226
 20
-39.07962644544478
 30
0.0
 10
-159.8953775787226
 20
-39.07962644544478
 30
0.0
 10
-155.7776007604603
 20
-39.07962644544478
 30
0.0
 10
-155.7776007604603
 20
-39.07962644544478
 30
0.0
 10
-155.7668404185017
 20
-34.9082768608348
 30
0.0
 10
-155.7552215386211
 20
-30.14550911956377
 30
0.0
 10
-155.7442894890797
 20
-25.05197533480376
 30
0.0
 10
-155.7429730642651
 20
-24.43268331359637
 30
0.0
 10
-155.7417138753124
 20
-23.8055499793689
 30
0.0
 10
-155.7403974504991
 20
-23.17675680515941
 30
0.0
 10
-155.7403974504991
 20
-23.17675680515941
 30
0.0
 10
-159.8953775787226
 20
-23.17675680515941
 30
0.0
 10
-159.8953775787226
 20
-23.17675680515941
 30
0.0
 10
-159.8953775787226
 20
-23.17675680515941
 30
0.0
 10
-159.8953775787226
 20
-31.7060448827938
 30
0.0
 10
-159.8953775787226
 20
-31.7060448827938
 30
0.0
  0
HATCH
  5
83
330
79
100
AcDbEntity
  8
Layer 1
 62
     7
440
 33554687
100
AcDbHatch
 10
0.0
 20
0.0
 30
0.0
210
0.0
220
0.0
230
1.0
  2
SOLID
 70
     1
 71
     1
 91
        1
 92
        1
 93
        1
 72
     4
 94
        3
 73
     0
 74
     0
 95
       23
 96
       19
 40
0.0
 40
0.0
 40
0.0
 40
0.0
 40
1.0
 40
1.0
 40
1.0
 40
2.0
 40
2.0
 40
2.0
 40
3.0
 40
3.0
 40
3.0
 40
4.0
 40
4.0
 40
4.0
 40
5.0
 40
5.0
 40
5.0
 40
6.0
 40
6.0
 40
6.0
 40
6.0
 10
-159.8953775787226
 20
-31.7060448827938
 10
-159.8953775787226
 20
-31.7060448827938
 10
-159.8953775787226
 20
-39.07962644544478
 10
-159.8953775787226
 20
-39.07962644544478
 10
-159.8953775787226
 20
-39.07962644544478
 10
-155.7776007604603
 20
-39.07962644544478
 10
-155.7776007604603
 20
-39.07962644544478
 10
-155.7668404185017
 20
-34.9082768608348
 10
-155.7552215386211
 20
-30.14550911956377
 10
-155.7442894890797
 20
-25.05197533480376
 10
-155.7429730642651
 20
-24.43268331359637
 10
-155.7417138753124
 20
-23.8055499793689
 10
-155.7403974504991
 20
-23.17675680515941
 10
-155.7403974504991
 20
-23.17675680515941
 10
-159.8953775787226
 20
-23.17675680515941
 10
-159.8953775787226
 20
-23.17675680515941
 10
-159.8953775787226
 20
-23.17675680515941
 10
-159.8953775787226
 20
-31.7060448827938
 10
-159.8953775787226
 20
-31.7060448827938
 97
        0
 97
        1
330
82
 75
     2
 76
     1
 98
        1
 10
0.0
 20
0.0
450
        0
451
        0
460
0.0
461
0.0
452
        0
462
0.0
453
        0
470

  0
SPLINE
  5
84
330
79
100
AcDbEntity
  8
Layer 1
100
AcDbSpline
210
0.0
220
0.0
230
1.0
 70
     9
 71
     3
 72
    17
 73
    13
 74
     0
 42
0.0000000001
 43
0.0000000001
 40
0.0
 40
0.0
 40
0.0
 40
0.0
 40
1.0
 40
1.0
 40
1.0
 40
2.0
 40
2.0
 40
2.0
 40
3.0
 40
3.0
 40
3.0
 40
4.0
 40
4.0
 40
4.0
 40
4.0
 10
-125.5959290493627
 20
-10.33440314988894
 30
0.0
 10
-125.5959290493627
 20
-10.33440314988894
 30
0.0
 10
-121.4176539255166
 20
-10.33440314988894
 30
0.0
 10
-121.4176539255166
 20
-10.33440314988894
 30
0.0
 10
-121.4176539255166
 20
-10.33440314988894
 30
0.0
 10
-121.4176539255166
 20
6.026181674643799
 30
0.0
 10
-121.4176539255166
 20
6.026181674643799
 30
0.0
 10
-121.4176539255166
 20
6.026181674643799
 30
0.0
 10
-125.6145307043446
 20
6.026181674643799
 30
0.0
 10
-125.6145307043446
 20
6.026181674643799
 30
0.0
 10
-125.6110393167914
 20
0.6242038323726983
 30
0.0
 10
-125.604514428586
 20
-4.906268518921272
 30
0.0
 10
-125.5959290493627
 20
-10.33440314988894
 30
0.0
  0
HATCH
  5
85
330
79
100
AcDbEntity
  8
Layer 1
 62
     7
440
 33554687
100
AcDbHatch
 10
0.0
 20
0.0
 30
0.0
210
0.0
220
0.0
230
1.0
  2
SOLID
 70
     1
 71
     1
 91
        1
 92
        1
 93
        1
 72
     4
 94
        3
 73
     0
 74
     0
 95
       17
 96
       13
 40
0.0
 40
0.0
 40
0.0
 40
0.0
 40
1.0
 40
1.0
 40
1.0
 40
2.0
 40
2.0
 40
2.0
 40
3.0
 40
3.0
 40
3.0
 40
4.0
 40
4.0
 40
4.0
 40
4.0
 10
-125.5959290493627
 20
-10.33440314988894
 10
-125.5959290493627
 20
-10.33440314988894
 10
-121.4176539255166
 20
-10.33440314988894
 10
-121.4176539255166
 20
-10.33440314988894
 10
-121.4176539255166
 20
-10.33440314988894
 10
-121.4176539255166
 20
6.026181674643799
 10
-121.4176539255166
 20
6.026181674643799
 10
-121.4176539255166
 20
6.026181674643799
 10
-125.6145307043446
 20
6.026181674643799
 10
-125.6145307043446
 20
6.026181674643799
 10
-125.6110393167914
 20
0.6242038323726983
 10
-125.604514428586
 20
-4.906268518921272
 10
-125.5959290493627
 20
-10.33440314988894
 97
        0
 97
        1
330
84
 75
     2
 76
     1
 98
        1
 10
0.0
 20
0.0
450
        0
451
        0
460
0.0
461
0.0
452
        0
462
0.0
453
        0
470

  0
SPLINE
  5
86
330
79
100
AcDbEntity
  8
Layer 1
100
AcDbSpline
210
0.0
220
0.0
230
1.0
 70
     9
 71
     3
 72
    17
 73
    13
 74
     0
 42
0.0000000001
 43
0.0000000001
 40
0.0
 40
0.0
 40
0.0
 40
0.0
 40
1.0
 40
1.0
 40
1.0
 40
2.0
 40
2.0
 40
2.0
 40
3.0
 40
3.0
 40
3.0
 40
4.0
 40
4.0
 40
4.0
 40
4.0
 10
-125.5348583851623
 20
-39.07962644544478
 30
0.0
 10
-125.5348583851623
 20
-39.07962644544478
 30
0.0
 10
-121.4176539255166
 20
-39.07962644544478
 30
0.0
 10
-121.4176539255166
 20
-39.07962644544478
 30
0.0
 10
-121.4176539255166
 20
-39.07962644544478
 30
0.0
 10
-121.4176539255166
 20
-23.17675680515941
 30
0.0
 10
-121.4176539255166
 20
-23.17675680515941
 30
0.0
 10
-121.4176539255166
 20
-23.17675680515941
 30
0.0
 10
-125.5723478744321
 20
-23.17675680515941
 30
0.0
 10
-125.5723478744321
 20
-23.17675680515941
 30
0.0
 10
-125.5602711076595
 20
-28.97749689435663
 30
0.0
 10
-125.5471068595189
 20
-34.40110989227021
 30
0.0
 10
-125.5348583851623
 20
-39.07962644544478
 30
0.0
  0
HATCH
  5
87
330
79
100
AcDbEntity
  8
Layer 1
 62
     7
440
 33554687
100
AcDbHatch
 10
0.0
 20
0.0
 30
0.0
210
0.0
220
0.0
230
1.0
  2
SOLID
 70
     1
 71
     1
 91
        1
 92
        1
 93
        1
 72
     4
 94
        3
 73
     0
 74
     0
 95
       17
 96
       13
 40
0.0
 40
0.0
 40
0.0
 40
0.0
 40
1.0
 40
1.0
 40
1.0
 40
2.0
 40
2.0
 40
2.0
 40
3.0
 40
3.0
 40
3.0
 40
4.0
 40
4.0
 40
4.0
 40
4.0
 10
-125.5348583851623
 20
-39.07962644544478
 10
-125.5348583851623
 20
-39.07962644544478
 10
-121.4176539255166
 20
-39.07962644544478
 10
-121.4176539255166
 20
-39.07962644544478
 10
-121.4176539255166
 20
-39.07962644544478
 10
-121.4176539255166
 20
-23.17675680515941
 10
-121.4176539255166
 20
-23.17675680515941
 10
-121.4176539255166
 20
-23.17675680515941
 10
-125.5723478744321
 20
-23.17675680515941
 10
-125.5723478744321
 20
-23.17675680515941
 10
-125.5602711076595
 20
-28.97749689435663
 10
-125.5471068595189
 20
-34.40110989227021
 10
-125.5348583851623
 20
-39.07962644544478
 97
        0
 97
        1
330
86
 75
     2
 76
     1
 98
        1
 10
0.0
 20
0.0
450
        0
451
        0
460
0.0
461
0.0
452
        0
462
0.0
453
        0
470

  0
SPLINE
  5
88
330
79
100
AcDbEntity
  8
Layer 1
100
AcDbSpline
210
0.0
220
0.0
230
1.0
 70
     9
 71
     3
 72
    29
 73
    25
 74
     0
 42
0.0000000001
 43
0.0000000001
 40
0.0
 40
0.0
 40
0.0
 40
0.0
 40
1.0
 40
1.0
 40
1.0
 40
2.0
 40
2.0
 40
2.0
 40
3.0
 40
3.0
 40
3.0
 40
4.0
 40
4.0
 40
4.0
 40
5.0
 40
5.0
 40
5.0
 40
6.0
 40
6.0
 40
6.0
 40
7.0
 40
7.0
 40
7.0
 40
8.0
 40
8.0
 40
8.0
 40
8.0
 10
-137.1474995565499
 20
41.73517776465598
 30
0.0
 10
-137.1474995565499
 20
41.73517776465598
 30
0.0
 10
-144.1655319476887
 20
41.73517776465598
 30
0.0
 10
-144.1655319476887
 20
41.73517776465598
 30
0.0
 10
-147.9698851884919
 20
41.73517776465598
 30
0.0
 10
-151.0649143979819
 20
38.64009131930528
 30
0.0
 10
-151.0649143979819
 20
34.83573807849956
 30
0.0
 10
-151.0649143979819
 20
34.83573807849956
 30
0.0
 10
-151.0649143979819
 20
28.10010742790048
 30
0.0
 10
-151.0649143979819
 20
28.10010742790048
 30
0.0
 10
-151.0649143979819
 20
24.29581142295737
 30
0.0
 10
-147.9698851884919
 20
21.20078221346865
 30
0.0
 10
-144.1655319476887
 20
21.20078221346865
 30
0.0
 10
-144.1655319476887
 20
21.20078221346865
 30
0.0
 10
-137.1474995565499
 20
21.20078221346865
 30
0.0
 10
-137.1474995565499
 20
21.20078221346865
 30
0.0
 10
-133.3424022495474
 20
21.20078221346865
 30
0.0
 10
-130.2466862097207
 20
24.29581142295737
 30
0.0
 10
-130.2466862097207
 20
28.10010742790048
 30
0.0
 10
-130.2466862097207
 20
28.10010742790048
 30
0.0
 10
-130.2466862097207
 20
34.83573807849956
 30
0.0
 10
-130.2466862097207
 20
34.83573807849956
 30
0.0
 10
-130.2466862097207
 20
38.64009131930528
 30
0.0
 10
-133.3424022495474
 20
41.73517776465598
 30
0.0
 10
-137.1474995565499
 20
41.73517776465598
 30
0.0
  0
HATCH
  5
89
330
79
100
AcDbEntity
  8
Layer 1
 62
     7
440
 33554687
100
AcDbHatch
 10
0.0
 20
0.0
 30
0.0
210
0.0
220
0.0
230
1.0
  2
SOLID
 70
     1
 71
     1
 91
        1
 92
        1
 93
        1
 72
     4
 94
        3
 73
     0
 74
     0
 95
       29
 96
       25
 40
0.0
 40
0.0
 40
0.0
 40
0.0
 40
1.0
 40
1.0
 40
1.0
 40
2.0
 40
2.0
 40
2.0
 40
3.0
 40
3.0
 40
3.0
 40
4.0
 40
4.0
 40
4.0
 40
5.0
 40
5.0
 40
5.0
 40
6.0
 40
6.0
 40
6.0
 40
7.0
 40
7.0
 40
7.0
 40
8.0
 40
8.0
 40
8.0
 40
8.0
 10
-137.1474995565499
 20
41.73517776465598
 10
-137.1474995565499
 20
41.73517776465598
 10
-144.1655319476887
 20
41.73517776465598
 10
-144.1655319476887
 20
41.73517776465598
 10
-147.9698851884919
 20
41.73517776465598
 10
-151.0649143979819
 20
38.64009131930528
 10
-151.0649143979819
 20
34.83573807849956
 10
-151.0649143979819
 20
34.83573807849956
 10
-151.0649143979819
 20
28.10010742790048
 10
-151.0649143979819
 20
28.10010742790048
 10
-151.0649143979819
 20
24.29581142295737
 10
-147.9698851884919
 20
21.20078221346865
 10
-144.1655319476887
 20
21.20078221346865
 10
-144.1655319476887
 20
21.20078221346865
 10
-137.1474995565499
 20
21.20078221346865
 10
-137.1474995565499
 20
21.20078221346865
 10
-133.3424022495474
 20
21.20078221346865
 10
-130.2466862097207
 20
24.29581142295737
 10
-130.2466862097207
 20
28.10010742790048
 10
-130.2466862097207
 20
28.10010742790048
 10
-130.2466862097207
 20
34.83573807849956
 10
-130.2466862097207
 20
34.83573807849956
 10
-130.2466862097207
 20
38.64009131930528
 10
-133.3424022495474
 20
41.73517776465598
 10
-137.1474995565499
 20
41.73517776465598
 97
        0
 97
        1
330
88
 75
     2
 76
     1
 98
        1
 10
0.0
 20
0.0
450
        0
451
        0
460
0.0
461
0.0
452
        0
462
0.0
453
        0
470

  0
ENDBLK
  5
7C
330
79
100
AcDbEntity
  8
0
100
AcDbBlockEnd
  0
ENDSEC
  0
SECTION
  2
ENTITIES
  0
INSERT
  5
7A
330
70
100
AcDbEntity
  8
Layer 1
100
AcDbBlockReference
  2
Block_0
 10
0.0
 20
0.0
 30
0.0
  0
ENDSEC
  0
SECTION
  2
OBJECTS
  0
DICTIONARY
  5
C
330
0
100
AcDbDictionary
281
     1
  3
ACAD_COLOR
350
63
  3
ACAD_DETAILVIEWSTYLE
350
6A
  3
ACAD_GROUP
350
D
  3
ACAD_LAYOUT
350
62
  3
ACAD_MATERIAL
350
10
  3
ACAD_MLEADERSTYLE
350
66
  3
ACAD_MLINESTYLE
350
5F
  3
ACAD_PLOTSETTINGS
350
61
  3
ACAD_PLOTSTYLENAME
350
E
  3
ACAD_SCALELIST
350
42
  3
ACAD_SECTIONVIEWSTYLE
350
68
  3
ACAD_TABLESTYLE
350
64
  3
ACAD_VISUALSTYLE
350
29
  3
ACDB_RECOMPOSE_DATA
350
92
  3
AcDbVariableDictionary
350
8A
  0
DICTIONARY
  5
63
102
{ACAD_REACTORS
330
C
102
}
330
C
100
AcDbDictionary
281
     1
  0
DICTIONARY
  5
6A
102
{ACAD_REACTORS
330
C
102
}
330
C
100
AcDbDictionary
281
     1
  3
Imperial24
350
6B
  0
DICTIONARY
  5
D
102
{ACAD_REACTORS
330
C
102
}
330
C
100
AcDbDictionary
281
     1
  0
DICTIONARY
  5
62
102
{ACAD_REACTORS
330
C
102
}
330
C
100
AcDbDictionary
281
     1
  3
Layout1
350
6F
  3
Layout2
350
77
  3
Model
350
73
  0
DICTIONARY
  5
10
102
{ACAD_REACTORS
330
C
102
}
330
C
100
AcDbDictionary
281
     1
  3
ByBlock
350
19
  3
ByLayer
350
11
  3
Global
350
21
  0
DICTIONARY
  5
66
102
{ACAD_REACTORS
330
C
102
}
330
C
100
AcDbDictionary
281
     1
  3
Standard
350
67
  0
DICTIONARY
  5
5F
102
{ACAD_REACTORS
330
C
102
}
330
C
100
AcDbDictionary
281
     1
  3
Standard
350
60
  0
DICTIONARY
  5
61
102
{ACAD_REACTORS
330
C
102
}
330
C
100
AcDbDictionary
281
     1
  0
ACDBDICTIONARYWDFLT
  5
E
102
{ACAD_REACTORS
330
C
102
}
330
C
100
AcDbDictionary
281
     1
  3
Normal
350
F
100
AcDbDictionaryWithDefault
340
F
  0
DICTIONARY
  5
42
102
{ACAD_REACTORS
330
C
102
}
330
C
100
AcDbDictionary
281
     1
  3
A0
350
43
  3
A1
350
44
  3
A2
350
45
  3
A3
350
46
  3
A4
350
47
  3
A5
350
48
  3
A6
350
49
  3
A7
350
4A
  3
A8
350
4B
  3
A9
350
4C
  3
B0
350
4D
  3
B1
350
4E
  3
B2
350
4F
  3
B3
350
50
  3
B4
350
51
  3
B5
350
52
  3
B6
350
53
  0
DICTIONARY
  5
68
102
{ACAD_REACTORS
330
C
102
}
330
C
100
AcDbDictionary
281
     1
  3
Imperial24
350
69
  0
DICTIONARY
  5
64
102
{ACAD_REACTORS
330
C
102
}
330
C
100
AcDbDictionary
281
     1
  3
Standard
350
65
  0
DICTIONARY
  5
29
102
{ACAD_REACTORS
330
C
102
}
330
C
100
AcDbDictionary
281
     1
  3
2dWireframe
350
2F
  3
Basic
350
2E
  3
Brighten
350
35
  3
ColorChange
350
39
  3
Conceptual
350
32
  3
Dim
350
34
  3
EdgeColorOff
350
41
  3
Facepattern
350
38
  3
Flat
350
2A
  3
FlatWithEdges
350
2B
  3
Gouraud
350
2C
  3
GouraudWithEdges
350
2D
  3
Hidden
350
31
  3
JitterOff
350
3F
  3
Linepattern
350
37
  3
OverhangOff
350
40
  3
Realistic
350
33
  3
Shaded
350
3E
  3
Shaded with edges
350
3D
  3
Shades of Gray
350
3A
  3
Sketchy
350
3B
  3
Thicken
350
36
  3
Wireframe
350
30
  3
X-Ray
350
3C
  0
XRECORD
  5
92
102
{ACAD_REACTORS
330
C
102
}
330
C
100
AcDbXrecord
280
     1
 90
        1
330
65
  0
DICTIONARY
  5
8A
102
{ACAD_REACTORS
330
C
102
}
330
C
100
AcDbDictionary
281
     1
  3
CANNOSCALE
350
8F
  3
CMLEADERSTYLE
350
8C
  3
CTABLESTYLE
350
8B
  3
CVIEWDETAILSTYLE
350
8D
  3
CVIEWSECTIONSTYLE
350
8E
  0
ACDBDETAILVIEWSTYLE
  5
6B
102
{ACAD_XDICTIONARY
360
95
102
}
102
{ACAD_REACTORS
330
6A
102
}
330
6A
100
AcDbModelDocViewStyle
 70
     0
  3
Imperial24
290
     0
100
AcDbDetailViewStyle
 70
     0
 71
     0
 90
        3
 71
     1
340
55
 62
   256
 40
0.24
340
0
 62
   256
 40
0.24
300

 40
0.36
280
     3
 71
     2
340
5D
 90
       25
 62
   256
 71
     3
340
55
 62
   256
 40
0.24
 90
        1
 40
0.75
 90
        1
300
%<\AcVar ViewType \f "%tc1">% %<\AcVar ViewDetailId>%\PSCALE %<\AcVar ViewScale \f "%sn">%
 71
     4
340
5D
 90
       25
 62
   256
340
5D
 90
       25
 62
   256
280
     0
  0
LAYOUT
  5
6F
102
{ACAD_REACTORS
330
62
102
}
330
62
100
AcDbPlotSettings
  1

  2

  4

  6

 40
0.0
 41
0.0
 42
0.0
 43
0.0
 44
0.0
 45
0.0
 46
0.0
 47
0.0
 48
0.0
 49
0.0
140
0.0
141
0.0
142
1.0
143
1.0
 70
   688
 72
     0
 73
     0
 74
     5
  7

 75
    16
147
1.0
 76
     0
 77
     2
 78
   300
148
0.0
149
0.0
100
AcDbLayout
  1
Layout1
 70
     1
 71
     1
 10
0.0
 20
0.0
 11
12.0
 21
9.0
 12
0.0
 22
0.0
 32
0.0
 14
0.0
 24
0.0
 34
0.0
 15
0.0
 25
0.0
 35
0.0
146
0.0
 13
0.0
 23
0.0
 33
0.0
 16
1.0
 26
0.0
 36
0.0
 17
0.0
 27
1.0
 37
0.0
 76
     0
330
6C
  0
LAYOUT
  5
77
102
{ACAD_REACTORS
330
62
102
}
330
62
100
AcDbPlotSettings
  1

  2

  4

  6

 40
0.0
 41
0.0
 42
0.0
 43
0.0
 44
0.0
 45
0.0
 46
0.0
 47
0.0
 48
0.0
 49
0.0
140
0.0
141
0.0
142
1.0
143
1.0
 70
   688
 72
     0
 73
     0
 74
     5
  7

 75
    16
147
1.0
 76
     0
 77
     2
 78
   300
148
0.0
149
0.0
100
AcDbLayout
  1
Layout2
 70
     1
 71
     2
 10
0.0
 20
0.0
 11
12.0
 21
9.0
 12
0.0
 22
0.0
 32
0.0
 14
0.0
 24
0.0
 34
0.0
 15
0.0
 25
0.0
 35
0.0
146
0.0
 13
0.0
 23
0.0
 33
0.0
 16
1.0
 26
0.0
 36
0.0
 17
0.0
 27
1.0
 37
0.0
 76
     0
330
74
  0
LAYOUT
  5
73
102
{ACAD_REACTORS
330
62
102
}
330
62
100
AcDbPlotSettings
  1

  2

  4

  6

 40
0.0
 41
0.0
 42
0.0
 43
0.0
 44
0.0
 45
0.0
 46
0.0
 47
0.0
 48
0.0
 49
0.0
140
0.0
141
0.0
142
1.0
143
1.0
 70
  1712
 72
     0
 73
     0
 74
     0
  7

 75
     0
147
1.0
 76
     0
 77
     2
 78
   300
148
0.0
149
0.0
100
AcDbLayout
  1
Model
 70
     1
 71
     0
 10
0.0
 20
0.0
 11
12.0
 21
9.0
 12
0.0
 22
0.0
 32
0.0
 14
0.0
 24
0.0
 34
0.0
 15
0.0
 25
0.0
 35
0.0
146
0.0
 13
0.0
 23
0.0
 33
0.0
 16
1.0
 26
0.0
 36
0.0
 17
0.0
 27
1.0
 37
0.0
 76
     0
330
70
  0
MATERIAL
  5
19
102
{ACAD_XDICTIONARY
360
1A
102
}
102
{ACAD_REACTORS
330
10
102
}
330
10
100
AcDbMaterial
  1
ByBlock
 72
     0
 43
0.0208333333333333
 43
0.0
 43
0.0
 43
0.0
 43
0.0
 43
0.0208333333333333
 43
0.0
 43
0.0
 43
0.0
 43
0.0
 43
1.0
 43
0.0
 43
0.0
 43
0.0
 43
0.0
 43
1.0
 77
     0
 47
0.0208333333333333
 47
0.0
 47
0.0
 47
0.0
 47
0.0
 47
0.0208333333333333
 47
0.0
 47
0.0
 47
0.0
 47
0.0
 47
1.0
 47
0.0
 47
0.0
 47
0.0
 47
0.0
 47
1.0
171
     0
 49
0.0208333333333333
 49
0.0
 49
0.0
 49
0.0
 49
0.0
 49
0.0208333333333333
 49
0.0
 49
0.0
 49
0.0
 49
0.0
 49
1.0
 49
0.0
 49
0.0
 49
0.0
 49
0.0
 49
1.0
175
     0
142
0.0208333333333333
142
0.0
142
0.0
142
0.0
142
0.0
142
0.0208333333333333
142
0.0
142
0.0
142
0.0
142
0.0
142
1.0
142
0.0
142
0.0
142
0.0
142
0.0
142
1.0
179
     0
144
0.0208333333333333
144
0.0
144
0.0
144
0.0
144
0.0
144
0.0208333333333333
144
0.0
144
0.0
144
0.0
144
0.0
144
1.0
144
0.0
144
0.0
144
0.0
144
0.0
144
1.0
147
0.0208333333333333
147
0.0
147
0.0
147
0.0
147
0.0
147
0.0208333333333333
147
0.0
147
0.0
147
0.0
147
0.0
147
1.0
147
0.0
147
0.0
147
0.0
147
0.0
147
1.0
  0
MATERIAL
  5
11
102
{ACAD_XDICTIONARY
360
12
102
}
102
{ACAD_REACTORS
330
10
102
}
330
10
100
AcDbMaterial
  1
ByLayer
 72
     0
 43
0.0208333333333333
 43
0.0
 43
0.0
 43
0.0
 43
0.0
 43
0.0208333333333333
 43
0.0
 43
0.0
 43
0.0
 43
0.0
 43
1.0
 43
0.0
 43
0.0
 43
0.0
 43
0.0
 43
1.0
 77
     0
 47
0.0208333333333333
 47
0.0
 47
0.0
 47
0.0
 47
0.0
 47
0.0208333333333333
 47
0.0
 47
0.0
 47
0.0
 47
0.0
 47
1.0
 47
0.0
 47
0.0
 47
0.0
 47
0.0
 47
1.0
171
     0
 49
0.0208333333333333
 49
0.0
 49
0.0
 49
0.0
 49
0.0
 49
0.0208333333333333
 49
0.0
 49
0.0
 49
0.0
 49
0.0
 49
1.0
 49
0.0
 49
0.0
 49
0.0
 49
0.0
 49
1.0
175
     0
142
0.0208333333333333
142
0.0
142
0.0
142
0.0
142
0.0
142
0.0208333333333333
142
0.0
142
0.0
142
0.0
142
0.0
142
1.0
142
0.0
142
0.0
142
0.0
142
0.0
142
1.0
179
     0
144
0.0208333333333333
144
0.0
144
0.0
144
0.0
144
0.0
144
0.0208333333333333
144
0.0
144
0.0
144
0.0
144
0.0
144
1.0
144
0.0
144
0.0
144
0.0
144
0.0
144
1.0
147
0.0208333333333333
147
0.0
147
0.0
147
0.0
147
0.0
147
0.0208333333333333
147
0.0
147
0.0
147
0.0
147
0.0
147
1.0
147
0.0
147
0.0
147
0.0
147
0.0
147
1.0
  0
MATERIAL
  5
21
102
{ACAD_XDICTIONARY
360
22
102
}
102
{ACAD_REACTORS
330
10
102
}
330
10
100
AcDbMaterial
  1
Global
 72
     0
 43
0.0208333333333333
 43
0.0
 43
0.0
 43
0.0
 43
0.0
 43
0.0208333333333333
 43
0.0
 43
0.0
 43
0.0
 43
0.0
 43
1.0
 43
0.0
 43
0.0
 43
0.0
 43
0.0
 43
1.0
 77
     0
 47
0.0208333333333333
 47
0.0
 47
0.0
 47
0.0
 47
0.0
 47
0.0208333333333333
 47
0.0
 47
0.0
 47
0.0
 47
0.0
 47
1.0
 47
0.0
 47
0.0
 47
0.0
 47
0.0
 47
1.0
171
     0
 49
0.0208333333333333
 49
0.0
 49
0.0
 49
0.0
 49
0.0
 49
0.0208333333333333
 49
0.0
 49
0.0
 49
0.0
 49
0.0
 49
1.0
 49
0.0
 49
0.0
 49
0.0
 49
0.0
 49
1.0
175
     0
142
0.0208333333333333
142
0.0
142
0.0
142
0.0
142
0.0
142
0.0208333333333333
142
0.0
142
0.0
142
0.0
142
0.0
142
1.0
142
0.0
142
0.0
142
0.0
142
0.0
142
1.0
179
     0
144
0.0208333333333333
144
0.0
144
0.0
144
0.0
144
0.0
144
0.0208333333333333
144
0.0
144
0.0
144
0.0
144
0.0
144
1.0
144
0.0
144
0.0
144
0.0
144
0.0
144
1.0
147
0.0208333333333333
147
0.0
147
0.0
147
0.0
147
0.0
147
0.0208333333333333
147
0.0
147
0.0
147
0.0
147
0.0
147
1.0
147
0.0
147
0.0
147
0.0
147
0.0
147
1.0
  0
MLEADERSTYLE
  5
67
102
{ACAD_REACTORS
330
66
102
}
330
66
100
AcDbMLeaderStyle
179
     2
170
     2
171
     1
172
     0
 90
        2
 40
0.0
 41
0.0
173
     1
 91
-1056964608
340
5B
 92
       -2
290
     1
 42
0.09
291
     1
 43
0.36
  3
Standard
 44
0.18
300

342
55
174
     1
178
     6
175
     1
176
     0
 93
-1056964608
 45
0.18
292
     0
297
     0
 46
0.18
 94
-1056964608
 47
1.0
 49
1.0
140
1.0
293
     1
141
0.0
294
     1
177
     0
142
1.0
295
     0
296
     0
143
0.125
271
     0
272
     9
273
     9
298
     1
  0
MLINESTYLE
  5
60
102
{ACAD_REACTORS
330
5F
102
}
330
5F
100
AcDbMlineStyle
  2
STANDARD
 70
     0
  3

 62
   256
 51
90.0
 52
90.0
 71
     2
 49
0.5
 62
   256
  6
BYLAYER
 49
-0.5
 62
   256
  6
BYLAYER
  0
ACDBPLACEHOLDER
  5
F
102
{ACAD_REACTORS
330
E
102
}
330
E
  0
SCALE
  5
43
102
{ACAD_REACTORS
330
42
102
}
330
42
100
AcDbScale
 70
     0
300
1:1
140
1.0
141
1.0
290
     1
  0
SCALE
  5
44
102
{ACAD_REACTORS
330
42
102
}
330
42
100
AcDbScale
 70
     0
300
1/128" = 1'-0"
140
0.0078125
141
12.0
290
     0
  0
SCALE
  5
45
102
{ACAD_REACTORS
330
42
102
}
330
42
100
AcDbScale
 70
     0
300
1/64" = 1'-0"
140
0.015625
141
12.0
290
     0
  0
SCALE
  5
46
102
{ACAD_REACTORS
330
42
102
}
330
42
100
AcDbScale
 70
     0
300
1/32" = 1'-0"
140
0.03125
141
12.0
290
     0
  0
SCALE
  5
47
102
{ACAD_REACTORS
330
42
102
}
330
42
100
AcDbScale
 70
     0
300
1/16" = 1'-0"
140
0.0625
141
12.0
290
     0
  0
SCALE
  5
48
102
{ACAD_REACTORS
330
42
102
}
330
42
100
AcDbScale
 70
     0
300
3/32" = 1'-0"
140
0.09375
141
12.0
290
     0
  0
SCALE
  5
49
102
{ACAD_REACTORS
330
42
102
}
330
42
100
AcDbScale
 70
     0
300
1/8" = 1'-0"
140
0.125
141
12.0
290
     0
  0
SCALE
  5
4A
102
{ACAD_REACTORS
330
42
102
}
330
42
100
AcDbScale
 70
     0
300
3/16" = 1'-0"
140
0.1875
141
12.0
290
     0
  0
SCALE
  5
4B
102
{ACAD_REACTORS
330
42
102
}
330
42
100
AcDbScale
 70
     0
300
1/4" = 1'-0"
140
0.25
141
12.0
290
     0
  0
SCALE
  5
4C
102
{ACAD_REACTORS
330
42
102
}
330
42
100
AcDbScale
 70
     0
300
3/8" = 1'-0"
140
0.375
141
12.0
290
     0
  0
SCALE
  5
4D
102
{ACAD_REACTORS
330
42
102
}
330
42
100
AcDbScale
 70
     0
300
1/2" = 1'-0"
140
0.5
141
12.0
290
     0
  0
SCALE
  5
4E
102
{ACAD_REACTORS
330
42
102
}
330
42
100
AcDbScale
 70
     0
300
3/4" = 1'-0"
140
0.75
141
12.0
290
     0
  0
SCALE
  5
4F
102
{ACAD_REACTORS
330
42
102
}
330
42
100
AcDbScale
 70
     0
300
1" = 1'-0"
140
1.0
141
12.0
290
     0
  0
SCALE
  5
50
102
{ACAD_REACTORS
330
42
102
}
330
42
100
AcDbScale
 70
     0
300
1-1/2" = 1'-0"
140
1.5
141
12.0
290
     0
  0
SCALE
  5
51
102
{ACAD_REACTORS
330
42
102
}
330
42
100
AcDbScale
 70
     0
300
3" = 1'-0"
140
3.0
141
12.0
290
     0
  0
SCALE
  5
52
102
{ACAD_REACTORS
330
42
102
}
330
42
100
AcDbScale
 70
     0
300
6" = 1'-0"
140
6.0
141
12.0
290
     0
  0
SCALE
  5
53
102
{ACAD_REACTORS
330
42
102
}
330
42
100
AcDbScale
 70
     0
300
1'-0" = 1'-0"
140
12.0
141
12.0
290
     0
  0
ACDBSECTIONVIEWSTYLE
  5
69
102
{ACAD_XDICTIONARY
360
93
102
}
102
{ACAD_REACTORS
330
68
102
}
330
68
100
AcDbModelDocViewStyle
 70
     0
  3
Imperial24
290
     0
100
AcDbSectionViewStyle
 70
     0
 71
     0
 90
       78
 71
     1
340
55
 62
   256
 40
0.24
340
0
340
0
 62
   256
 40
0.24
300
I, O, Q, S, X, Z
 40
0.48
 90
        3
 40
0.18
 90
        1
 71
     2
340
5D
 90
       25
 62
   256
340
5D
 90
       50
 62
   256
 40
0.24
 40
0.0
 40
0.24
 71
     3
340
55
 62
   256
 40
0.24
 90
        1
 40
0.75
 90
        1
300
%<\AcVar ViewType \f "%tc1">% %<\AcVar ViewSectionStartId>%-%<\AcVar ViewSectionEndId>%\PSCALE %<\AcVar ViewScale \f "%sn">%
 71
     4
 62
   256
 62
   257
300
ANSI31
 40
1.0
 90
        0
290
     0
290
     0
 90
        6
 40
0.0
 40
1.570796326794896
 40
0.2617993877991494
 40
1.308996938995747
 40
-0.2617993877991494
 40
1.832595714594046
  0
TABLESTYLE
  5
65
102
{ACAD_XDICTIONARY
360
90
102
}
102
{ACAD_REACTORS
330
64
102
}
330
64
100
AcDbTableStyle
280
     0
  3
Standard
 70
     0
 71
     0
 40
0.06
 41
0.06
280
     0
281
     0
  7
Standard
140
0.18
170
     2
 62
     0
 63
     7
283
     0
 90
      512
 91
        0
  1

274
    -2
284
     1
 64
     0
275
    -2
285
     1
 65
     0
276
    -2
286
     1
 66
     0
277
    -2
287
     1
 67
     0
278
    -2
288
     1
 68
     0
279
    -2
289
     1
 69
     0
  7
Standard
140
0.25
170
     5
 62
     0
 63
     7
283
     0
 90
      512
 91
        0
  1

274
    -2
284
     1
 64
     0
275
    -2
285
     1
 65
     0
276
    -2
286
     1
 66
     0
277
    -2
287
     1
 67
     0
278
    -2
288
     1
 68
     0
279
    -2
289
     1
 69
     0
  7
Standard
140
0.18
170
     5
 62
     0
 63
     7
283
     0
 90
      512
 91
        0
  1

274
    -2
284
     1
 64
     0
275
    -2
285
     1
 65
     0
276
    -2
286
     1
 66
     0
277
    -2
287
     1
 67
     0
278
    -2
288
     1
 68
     0
279
    -2
289
     1
 69
     0
  0
VISUALSTYLE
  5
2F
102
{ACAD_REACTORS
330
29
102
}
330
29
100
AcDbVisualStyle
  2
2dWireframe
 70
     4
177
     3
291
     0
 70
    58
 90
        0
176
     1
 90
        2
176
     1
 90
        0
176
     1
 90
        0
176
     1
 40
0.6
176
     1
 40
30.0
176
     1
 62
     7
420
 16777215
176
     1
 90
        1
176
     1
 90
        4
176
     1
 62
     7
176
     1
 62
   257
176
     1
 90
        1
176
     1
 90
        1
176
     1
 40
1.0
176
     1
 90
        0
176
     1
 62
   257
176
     1
 40
1.0
176
     1
 90
        1
176
     1
 90
        6
176
     1
 90
        2
176
     1
 62
     7
176
     1
 90
        5
176
     1
 90
        0
176
     1
 90
        0
176
     1
290
     0
176
     1
 90
        1
176
     1
 40
0.0
176
     1
 90
        0
176
     1
290
     1
176
     1
290
     1
176
     1
290
     0
176
     1
290
     0
176
     1
290
     0
176
     1
290
     0
176
     1
290
     0
176
     1
290
     0
176
     1
290
     0
176
     1
 90
       50
176
     1
 40
0.0
176
     1
 40
1.0
176
     1
 90
        0
176
     1
 62
    18
420
        0
176
     1
 90
       50
176
     1
 90
        3
176
     1
 62
     5
420
      255
176
     1
290
     0
176
     1
 90
       50
176
     1
 90
       50
176
     1
 90
       50
176
     1
290
     0
176
     1
 90
       50
176
     1
 62
   256
176
     0
 40
1.0
176
     0
 90
        2
176
     1
  1
strokes_ogs.tif
176
     1
290
     0
176
     1
 40
1.0
176
     1
 40
1.0
176
     1
1001
ACAD
1000
AcDbSavedByObjectVersion
1070
     0
  0
VISUALSTYLE
  5
2E
102
{ACAD_REACTORS
330
29
102
}
330
29
100
AcDbVisualStyle
  2
Basic
 70
     7
177
     3
291
     1
 70
    58
 90
        1
176
     1
 90
        0
176
     1
 90
        1
176
     1
 90
        0
176
     1
 40
0.6
176
     1
 40
30.0
176
     1
 62
     7
420
 16777215
176
     1
 90
        0
176
     1
 90
        4
176
     1
 62
     7
176
     1
 62
   257
176
     1
 90
        1
176
     1
 90
        1
176
     1
 40
1.0
176
     1
 90
        8
176
     1
 62
     7
176
     1
 40
1.0
176
     1
 90
        1
176
     1
 90
        6
176
     1
 90
        2
176
     1
 62
     7
176
     1
 90
        5
176
     1
 90
        0
176
     1
 90
        0
176
     1
290
     0
176
     1
 90
        1
176
     1
 40
0.0
176
     1
 90
        0
176
     1
290
     0
176
     1
290
     1
176
     1
290
     1
176
     1
290
     0
176
     1
290
     0
176
     1
290
     0
176
     1
290
     0
176
     1
290
     0
176
     1
290
     0
176
     1
 90
       50
176
     1
 40
0.0
176
     1
 40
1.0
176
     1
 90
        0
176
     1
 62
    18
420
        0
176
     1
 90
       50
176
     1
 90
        3
176
     1
 62
     5
420
      255
176
     1
290
     0
176
     1
 90
       50
176
     1
 90
       50
176
     1
 90
       50
176
     1
290
     0
176
     1
 90
       50
176
     1
 62
   256
176
     0
 40
1.0
176
     0
 90
        2
176
     1
  1
strokes_ogs.tif
176
     1
290
     0
176
     1
 40
1.0
176
     1
 40
1.0
176
     1
1001
ACAD
1000
AcDbSavedByObjectVersion
1070
     0
  0
VISUALSTYLE
  5
35
102
{ACAD_REACTORS
330
29
102
}
330
29
100
AcDbVisualStyle
  2
Brighten
 70
    12
177
     3
291
     1
 70
    58
 90
        2
176
     1
 90
        2
176
     1
 90
        0
176
     1
 90
        0
176
     1
 40
0.6
176
     1
 40
30.0
176
     1
 62
     7
420
 16777215
176
     1
 90
        1
176
     1
 90
        4
176
     1
 62
     7
176
     1
 62
   257
176
     1
 90
        1
176
     1
 90
        1
176
     1
 40
1.0
176
     1
 90
        8
176
     1
 62
     7
176
     1
 40
1.0
176
     1
 90
        1
176
     1
 90
        6
176
     1
 90
        2
176
     1
 62
     7
176
     1
 90
        5
176
     1
 90
        0
176
     1
 90
        0
176
     1
290
     0
176
     1
 90
        1
176
     1
 40
50.0
176
     1
 90
        0
176
     1
290
     0
176
     1
290
     1
176
     1
290
     1
176
     1
290
     0
176
     1
290
     0
176
     1
290
     0
176
     1
290
     0
176
     1
290
     0
176
     1
290
     0
176
     1
 90
       50
176
     1
 40
0.0
176
     1
 40
1.0
176
     1
 90
        0
176
     1
 62
    18
420
        0
176
     1
 90
       50
176
     1
 90
        3
176
     1
 62
     5
420
      255
176
     1
290
     0
176
     1
 90
       50
176
     1
 90
       50
176
     1
 90
       50
176
     1
290
     0
176
     1
 90
       50
176
     1
 62
   256
176
     0
 40
1.0
176
     0
 90
        2
176
     1
  1
strokes_ogs.tif
176
     1
290
     0
176
     1
 40
1.0
176
     1
 40
1.0
176
     1
1001
ACAD
1000
AcDbSavedByObjectVersion
1070
     0
  0
VISUALSTYLE
  5
39
102
{ACAD_REACTORS
330
29
102
}
330
29
100
AcDbVisualStyle
  2
ColorChange
 70
    16
177
     3
291
     1
 70
    58
 90
        2
176
     1
 90
        2
176
     1
 90
        3
176
     1
 90
        0
176
     1
 40
0.6
176
     1
 40
30.0
176
     1
 62
     8
420
  8421504
176
     1
 90
        1
176
     1
 90
        4
176
     1
 62
     7
176
     1
 62
   257
176
     1
 90
        1
176
     1
 90
        1
176
     1
 40
1.0
176
     1
 90
        8
176
     1
 62
     8
420
  8421504
176
     1
 40
1.0
176
     1
 90
        1
176
     1
 90
        6
176
     1
 90
        2
176
     1
 62
     7
176
     1
 90
        5
176
     1
 90
        0
176
     1
 90
        0
176
     1
290
     0
176
     1
 90
        1
176
     1
 40
0.0
176
     1
 90
        0
176
     1
290
     0
176
     1
290
     1
176
     1
290
     1
176
     1
290
     0
176
     1
290
     0
176
     1
290
     0
176
     1
290
     0
176
     1
290
     0
176
     1
290
     0
176
     1
 90
       50
176
     1
 40
0.0
176
     1
 40
1.0
176
     1
 90
        0
176
     1
 62
    18
420
        0
176
     1
 90
       50
176
     1
 90
        3
176
     1
 62
     5
420
      255
176
     1
290
     0
176
     1
 90
       50
176
     1
 90
       50
176
     1
 90
       50
176
     1
290
     0
176
     1
 90
       50
176
     1
 62
   256
176
     0
 40
1.0
176
     0
 90
        2
176
     1
  1
strokes_ogs.tif
176
     1
290
     0
176
     1
 40
1.0
176
     1
 40
1.0
176
     1
1001
ACAD
1000
AcDbSavedByObjectVersion
1070
     0
  0
VISUALSTYLE
  5
32
102
{ACAD_REACTORS
330
29
102
}
330
29
100
AcDbVisualStyle
  2
Conceptual
 70
     9
177
     3
291
     0
 70
    58
 90
        3
176
     1
 90
        2
176
     1
 90
        0
176
     1
 90
        0
176
     1
 40
0.6
176
     1
 40
30.0
176
     1
 62
     7
420
 16777215
176
     1
 90
        2
176
     1
 90
        2
176
     1
 62
     7
176
     1
 62
   257
176
     1
 90
        1
176
     1
 90
        1
176
     1
 40
179.0
176
     1
 90
        8
176
     1
 62
     7
176
     1
 40
1.0
176
     1
 90
        1
176
     1
 90
        6
176
     1
 90
        2
176
     1
 62
     7
176
     1
 90
        3
176
     1
 90
        0
176
     1
 90
        0
176
     1
290
     0
176
     1
 90
        1
176
     1
 40
0.0
176
     1
 90
        0
176
     1
290
     0
176
     1
290
     1
176
     1
290
     1
176
     1
290
     0
176
     1
290
     0
176
     1
290
     0
176
     1
290
     0
176
     1
290
     0
176
     1
290
     0
176
     1
 90
       50
176
     1
 40
0.0
176
     1
 40
1.0
176
     1
 90
        0
176
     1
 62
    18
420
        0
176
     1
 90
       50
176
     1
 90
        3
176
     1
 62
     5
420
      255
176
     1
290
     0
176
     1
 90
       50
176
     1
 90
       50
176
     1
 90
       50
176
     1
290
     0
176
     1
 90
       50
176
     1
 62
   256
176
     0
 40
1.0
176
     0
 90
        2
176
     1
  1
strokes_ogs.tif
176
     1
290
     0
176
     1
 40
1.0
176
     1
 40
1.0
176
     1
1001
ACAD
1000
AcDbSavedByObjectVersion
1070
     0
  0
VISUALSTYLE
  5
34
102
{ACAD_REACTORS
330
29
102
}
330
29
100
AcDbVisualStyle
  2
Dim
 70
    11
177
     3
291
     1
 70
    58
 90
        2
176
     1
 90
        2
176
     1
 90
        0
176
     1
 90
        0
176
     1
 40
0.6
176
     1
 40
30.0
176
     1
 62
     7
420
 16777215
176
     1
 90
        1
176
     1
 90
        4
176
     1
 62
     7
176
     1
 62
   257
176
     1
 90
        1
176
     1
 90
        1
176
     1
 40
1.0
176
     1
 90
        8
176
     1
 62
     7
176
     1
 40
1.0
176
     1
 90
        1
176
     1
 90
        6
176
     1
 90
        2
176
     1
 62
     7
176
     1
 90
        5
176
     1
 90
        0
176
     1
 90
        0
176
     1
290
     0
176
     1
 90
        1
176
     1
 40
-50.0
176
     1
 90
        0
176
     1
290
     0
176
     1
290
     1
176
     1
290
     1
176
     1
290
     0
176
     1
290
     0
176
     1
290
     0
176
     1
290
     0
176
     1
290
     0
176
     1
290
     0
176
     1
 90
       50
176
     1
 40
0.0
176
     1
 40
1.0
176
     1
 90
        0
176
     1
 62
    18
420
        0
176
     1
 90
       50
176
     1
 90
        3
176
     1
 62
     5
420
      255
176
     1
290
     0
176
     1
 90
       50
176
     1
 90
       50
176
     1
 90
       50
176
     1
290
     0
176
     1
 90
       50
176
     1
 62
   256
176
     0
 40
1.0
176
     0
 90
        2
176
     1
  1
strokes_ogs.tif
176
     1
290
     0
176
     1
 40
1.0
176
     1
 40
1.0
176
     1
1001
ACAD
1000
AcDbSavedByObjectVersion
1070
     0
  0
VISUALSTYLE
  5
41
102
{ACAD_REACTORS
330
29
102
}
330
29
100
AcDbVisualStyle
  2
EdgeColorOff
 70
    22
177
     3
291
     1
 70
    58
 90
        2
176
     0
 90
        2
176
     0
 90
        0
176
     0
 90
        0
176
     0
 40
0.6
176
     0
 40
30.0
176
     0
 62
     7
420
 16777215
176
     0
 90
        1
176
     0
 90
        4
176
     0
 62
     7
176
     0
 62
   257
176
     0
 90
        1
176
     0
 90
        1
176
     0
 40
1.0
176
     0
 90
        8
176
     2
 62
     7
176
     0
 40
1.0
176
     0
 90
        1
176
     0
 90
        6
176
     0
 90
        2
176
     0
 62
     7
176
     0
 90
        5
176
     0
 90
        0
176
     0
 90
        0
176
     0
290
     0
176
     0
 90
        1
176
     0
 40
0.0
176
     0
 90
        0
176
     0
290
     0
176
     0
290
     1
176
     0
290
     1
176
     0
290
     0
176
     0
290
     0
176
     0
290
     0
176
     0
290
     0
176
     0
290
     0
176
     0
290
     0
176
     0
 90
       50
176
     0
 40
0.0
176
     0
 40
1.0
176
     0
 90
        0
176
     0
 62
    18
420
        0
176
     0
 90
       50
176
     0
 90
        3
176
     0
 62
     5
420
      255
176
     0
290
     0
176
     0
 90
       50
176
     0
 90
       50
176
     0
 90
       50
176
     0
290
     0
176
     0
 90
       50
176
     0
 62
   256
176
     0
 40
1.0
176
     0
 90
        2
176
     0
  1
strokes_ogs.tif
176
     0
290
     0
176
     0
 40
1.0
176
     0
 40
1.0
176
     0
1001
ACAD
1000
AcDbSavedByObjectVersion
1070
     0
  0
VISUALSTYLE
  5
38
102
{ACAD_REACTORS
330
29
102
}
330
29
100
AcDbVisualStyle
  2
Facepattern
 70
    15
177
     3
291
     1
 70
    58
 90
        2
176
     1
 90
        2
176
     1
 90
        0
176
     1
 90
        0
176
     1
 40
0.6
176
     1
 40
30.0
176
     1
 62
     7
420
 16777215
176
     1
 90
        1
176
     1
 90
        4
176
     1
 62
     7
176
     1
 62
   257
176
     1
 90
        1
176
     1
 90
        1
176
     1
 40
1.0
176
     1
 90
        8
176
     1
 62
     7
176
     1
 40
1.0
176
     1
 90
        1
176
     1
 90
        6
176
     1
 90
        2
176
     1
 62
     7
176
     1
 90
        5
176
     1
 90
        0
176
     1
 90
        0
176
     1
290
     0
176
     1
 90
        1
176
     1
 40
0.0
176
     1
 90
        0
176
     1
290
     0
176
     1
290
     1
176
     1
290
     1
176
     1
290
     0
176
     1
290
     0
176
     1
290
     0
176
     1
290
     0
176
     1
290
     0
176
     1
290
     0
176
     1
 90
       50
176
     1
 40
0.0
176
     1
 40
1.0
176
     1
 90
        0
176
     1
 62
    18
420
        0
176
     1
 90
       50
176
     1
 90
        3
176
     1
 62
     5
420
      255
176
     1
290
     0
176
     1
 90
       50
176
     1
 90
       50
176
     1
 90
       50
176
     1
290
     0
176
     1
 90
       50
176
     1
 62
   256
176
     0
 40
1.0
176
     0
 90
        2
176
     1
  1
strokes_ogs.tif
176
     1
290
     0
176
     1
 40
1.0
176
     1
 40
1.0
176
     1
1001
ACAD
1000
AcDbSavedByObjectVersion
1070
     0
  0
VISUALSTYLE
  5
2A
102
{ACAD_REACTORS
330
29
102
}
330
29
100
AcDbVisualStyle
  2
Flat
 70
     0
177
     3
291
     1
 70
    58
 90
        2
176
     1
 90
        1
176
     1
 90
        1
176
     1
 90
        2
176
     1
 40
0.6
176
     1
 40
30.0
176
     1
 62
     7
420
 16777215
176
     1
 90
        0
176
     1
 90
        0
176
     1
 62
     7
176
     1
 62
   257
176
     1
 90
        1
176
     1
 90
        1
176
     1
 40
1.0
176
     1
 90
        8
176
     1
 62
     7
176
     1
 40
1.0
176
     1
 90
        1
176
     1
 90
        6
176
     1
 90
        2
176
     1
 62
     7
176
     1
 90
        5
176
     1
 90
        0
176
     1
 90
        0
176
     1
290
     0
176
     1
 90
       13
176
     1
 40
0.0
176
     1
 90
        0
176
     1
290
     0
176
     1
290
     1
176
     1
290
     1
176
     1
290
     0
176
     1
290
     0
176
     1
290
     0
176
     1
290
     0
176
     1
290
     0
176
     1
290
     0
176
     1
 90
       50
176
     1
 40
0.0
176
     1
 40
1.0
176
     1
 90
        0
176
     1
 62
    18
420
        0
176
     1
 90
       50
176
     1
 90
        3
176
     1
 62
     5
420
      255
176
     1
290
     0
176
     1
 90
       50
176
     1
 90
       50
176
     1
 90
       50
176
     1
290
     0
176
     1
 90
       50
176
     1
 62
   256
176
     0
 40
1.0
176
     0
 90
        2
176
     1
  1
strokes_ogs.tif
176
     1
290
     0
176
     1
 40
1.0
176
     1
 40
1.0
176
     1
1001
ACAD
1000
AcDbSavedByObjectVersion
1070
     0
  0
VISUALSTYLE
  5
2B
102
{ACAD_REACTORS
330
29
102
}
330
29
100
AcDbVisualStyle
  2
FlatWithEdges
 70
     1
177
     3
291
     1
 70
    58
 90
        2
176
     1
 90
        1
176
     1
 90
        1
176
     1
 90
        2
176
     1
 40
0.6
176
     1
 40
30.0
176
     1
 62
     7
420
 16777215
176
     1
 90
        1
176
     1
 90
        0
176
     1
 62
     7
176
     1
 62
   257
176
     1
 90
        1
176
     1
 90
        1
176
     1
 40
1.0
176
     1
 90
        0
176
     1
 62
   257
176
     1
 40
1.0
176
     1
 90
        1
176
     1
 90
        6
176
     1
 90
        2
176
     1
 62
     7
176
     1
 90
        5
176
     1
 90
        0
176
     1
 90
        0
176
     1
290
     0
176
     1
 90
       13
176
     1
 40
0.0
176
     1
 90
        0
176
     1
290
     0
176
     1
290
     1
176
     1
290
     1
176
     1
290
     0
176
     1
290
     0
176
     1
290
     0
176
     1
290
     0
176
     1
290
     0
176
     1
290
     0
176
     1
 90
       50
176
     1
 40
0.0
176
     1
 40
1.0
176
     1
 90
        0
176
     1
 62
    18
420
        0
176
     1
 90
       50
176
     1
 90
        3
176
     1
 62
     5
420
      255
176
     1
290
     0
176
     1
 90
       50
176
     1
 90
       50
176
     1
 90
       50
176
     1
290
     0
176
     1
 90
       50
176
     1
 62
   256
176
     0
 40
1.0
176
     0
 90
        2
176
     1
  1
strokes_ogs.tif
176
     1
290
     0
176
     1
 40
1.0
176
     1
 40
1.0
176
     1
1001
ACAD
1000
AcDbSavedByObjectVersion
1070
     0
  0
VISUALSTYLE
  5
2C
102
{ACAD_REACTORS
330
29
102
}
330
29
100
AcDbVisualStyle
  2
Gouraud
 70
     2
177
     3
291
     1
 70
    58
 90
        2
176
     1
 90
        2
176
     1
 90
        1
176
     1
 90
        2
176
     1
 40
0.6
176
     1
 40
30.0
176
     1
 62
     7
420
 16777215
176
     1
 90
        0
176
     1
 90
        0
176
     1
 62
     7
176
     1
 62
   257
176
     1
 90
        1
176
     1
 90
        1
176
     1
 40
1.0
176
     1
 90
        0
176
     1
 62
     7
176
     1
 40
1.0
176
     1
 90
        1
176
     1
 90
        6
176
     1
 90
        2
176
     1
 62
     7
176
     1
 90
        5
176
     1
 90
        0
176
     1
 90
        0
176
     1
290
     0
176
     1
 90
       13
176
     1
 40
0.0
176
     1
 90
        0
176
     1
290
     0
176
     1
290
     1
176
     1
290
     1
176
     1
290
     0
176
     1
290
     0
176
     1
290
     0
176
     1
290
     0
176
     1
290
     0
176
     1
290
     0
176
     1
 90
       50
176
     1
 40
0.0
176
     1
 40
1.0
176
     1
 90
        0
176
     1
 62
    18
420
        0
176
     1
 90
       50
176
     1
 90
        3
176
     1
 62
     5
420
      255
176
     1
290
     0
176
     1
 90
       50
176
     1
 90
       50
176
     1
 90
       50
176
     1
290
     0
176
     1
 90
       50
176
     1
 62
   256
176
     0
 40
1.0
176
     0
 90
        2
176
     1
  1
strokes_ogs.tif
176
     1
290
     0
176
     1
 40
1.0
176
     1
 40
1.0
176
     1
1001
ACAD
1000
AcDbSavedByObjectVersion
1070
     0
  0
VISUALSTYLE
  5
2D
102
{ACAD_REACTORS
330
29
102
}
330
29
100
AcDbVisualStyle
  2
GouraudWithEdges
 70
     3
177
     3
291
     1
 70
    58
 90
        2
176
     1
 90
        2
176
     1
 90
        1
176
     1
 90
        2
176
     1
 40
0.6
176
     1
 40
30.0
176
     1
 62
     7
420
 16777215
176
     1
 90
        1
176
     1
 90
        0
176
     1
 62
     7
176
     1
 62
   257
176
     1
 90
        1
176
     1
 90
        1
176
     1
 40
1.0
176
     1
 90
        0
176
     1
 62
   257
176
     1
 40
1.0
176
     1
 90
        1
176
     1
 90
        6
176
     1
 90
        2
176
     1
 62
     7
176
     1
 90
        5
176
     1
 90
        0
176
     1
 90
        0
176
     1
290
     0
176
     1
 90
       13
176
     1
 40
0.0
176
     1
 90
        0
176
     1
290
     0
176
     1
290
     1
176
     1
290
     1
176
     1
290
     0
176
     1
290
     0
176
     1
290
     0
176
     1
290
     0
176
     1
290
     0
176
     1
290
     0
176
     1
 90
       50
176
     1
 40
0.0
176
     1
 40
1.0
176
     1
 90
        0
176
     1
 62
    18
420
        0
176
     1
 90
       50
176
     1
 90
        3
176
     1
 62
     5
420
      255
176
     1
290
     0
176
     1
 90
       50
176
     1
 90
       50
176
     1
 90
       50
176
     1
290
     0
176
     1
 90
       50
176
     1
 62
   256
176
     0
 40
1.0
176
     0
 90
        2
176
     1
  1
strokes_ogs.tif
176
     1
290
     0
176
     1
 40
1.0
176
     1
 40
1.0
176
     1
1001
ACAD
1000
AcDbSavedByObjectVersion
1070
     0
  0
VISUALSTYLE
  5
31
102
{ACAD_REACTORS
330
29
102
}
330
29
100
AcDbVisualStyle
  2
Hidden
 70
     6
177
     3
291
     0
 70
    58
 90
        1
176
     1
 90
        2
176
     1
 90
        2
176
     1
 90
        0
176
     1
 40
0.6
176
     1
 40
30.0
176
     1
 62
     7
420
 16777215
176
     1
 90
        2
176
     1
 90
        2
176
     1
 62
     7
176
     1
 62
   257
176
     1
 90
        2
176
     1
 90
        1
176
     1
 40
40.0
176
     1
 90
        0
176
     1
 62
   257
176
     1
 40
1.0
176
     1
 90
        1
176
     1
 90
        6
176
     1
 90
        2
176
     1
 62
     7
176
     1
 90
        3
176
     1
 90
        0
176
     1
 90
        0
176
     1
290
     0
176
     1
 90
        1
176
     1
 40
0.0
176
     1
 90
        0
176
     1
290
     0
176
     1
290
     1
176
     1
290
     1
176
     1
290
     0
176
     1
290
     0
176
     1
290
     0
176
     1
290
     0
176
     1
290
     0
176
     1
290
     0
176
     1
 90
       50
176
     1
 40
0.0
176
     1
 40
1.0
176
     1
 90
        0
176
     1
 62
    18
420
        0
176
     1
 90
       50
176
     1
 90
        3
176
     1
 62
     5
420
      255
176
     1
290
     0
176
     1
 90
       50
176
     1
 90
       50
176
     1
 90
       50
176
     1
290
     0
176
     1
 90
       50
176
     1
 62
   256
176
     0
 40
1.0
176
     0
 90
        2
176
     1
  1
strokes_ogs.tif
176
     1
290
     0
176
     1
 40
1.0
176
     1
 40
1.0
176
     1
1001
ACAD
1000
AcDbSavedByObjectVersion
1070
     0
  0
VISUALSTYLE
  5
3F
102
{ACAD_REACTORS
330
29
102
}
330
29
100
AcDbVisualStyle
  2
JitterOff
 70
    20
177
     3
291
     1
 70
    58
 90
        2
176
     0
 90
        2
176
     0
 90
        0
176
     0
 90
        0
176
     0
 40
0.6
176
     0
 40
30.0
176
     0
 62
     7
420
 16777215
176
     0
 90
        1
176
     0
 90
        4
176
     0
 62
     7
176
     0
 62
   257
176
     0
 90
        1
176
     0
 90
        1
176
     0
 40
1.0
176
     0
 90
       10
176
     2
 62
     7
176
     0
 40
1.0
176
     0
 90
        1
176
     0
 90
        6
176
     0
 90
        2
176
     0
 62
     7
176
     0
 90
        5
176
     0
 90
        0
176
     0
 90
        0
176
     0
290
     0
176
     0
 90
        1
176
     0
 40
0.0
176
     0
 90
        0
176
     0
290
     0
176
     0
290
     1
176
     0
290
     1
176
     0
290
     0
176
     0
290
     0
176
     0
290
     0
176
     0
290
     0
176
     0
290
     0
176
     0
290
     0
176
     0
 90
       50
176
     0
 40
0.0
176
     0
 40
1.0
176
     0
 90
        0
176
     0
 62
    18
420
        0
176
     0
 90
       50
176
     0
 90
        3
176
     0
 62
     5
420
      255
176
     0
290
     0
176
     0
 90
       50
176
     0
 90
       50
176
     0
 90
       50
176
     0
290
     0
176
     0
 90
       50
176
     0
 62
   256
176
     0
 40
1.0
176
     0
 90
        2
176
     0
  1
strokes_ogs.tif
176
     0
290
     0
176
     0
 40
1.0
176
     0
 40
1.0
176
     0
1001
ACAD
1000
AcDbSavedByObjectVersion
1070
     0
  0
VISUALSTYLE
  5
37
102
{ACAD_REACTORS
330
29
102
}
330
29
100
AcDbVisualStyle
  2
Linepattern
 70
    14
177
     3
291
     1
 70
    58
 90
        2
176
     1
 90
        2
176
     1
 90
        0
176
     1
 90
        0
176
     1
 40
0.6
176
     1
 40
30.0
176
     1
 62
     7
420
 16777215
176
     1
 90
        1
176
     1
 90
        4
176
     1
 62
     7
176
     1
 62
   257
176
     1
 90
        7
176
     1
 90
        7
176
     1
 40
1.0
176
     1
 90
        8
176
     1
 62
     7
176
     1
 40
1.0
176
     1
 90
        1
176
     1
 90
        6
176
     1
 90
        2
176
     1
 62
     7
176
     1
 90
        5
176
     1
 90
        0
176
     1
 90
        0
176
     1
290
     0
176
     1
 90
        1
176
     1
 40
0.0
176
     1
 90
        0
176
     1
290
     0
176
     1
290
     1
176
     1
290
     1
176
     1
290
     0
176
     1
290
     0
176
     1
290
     0
176
     1
290
     0
176
     1
290
     0
176
     1
290
     0
176
     1
 90
       50
176
     1
 40
0.0
176
     1
 40
1.0
176
     1
 90
        0
176
     1
 62
    18
420
        0
176
     1
 90
       50
176
     1
 90
        3
176
     1
 62
     5
420
      255
176
     1
290
     0
176
     1
 90
       50
176
     1
 90
       50
176
     1
 90
       50
176
     1
290
     0
176
     1
 90
       50
176
     1
 62
   256
176
     0
 40
1.0
176
     0
 90
        2
176
     1
  1
strokes_ogs.tif
176
     1
290
     0
176
     1
 40
1.0
176
     1
 40
1.0
176
     1
1001
ACAD
1000
AcDbSavedByObjectVersion
1070
     0
  0
VISUALSTYLE
  5
40
102
{ACAD_REACTORS
330
29
102
}
330
29
100
AcDbVisualStyle
  2
OverhangOff
 70
    21
177
     3
291
     1
 70
    58
 90
        2
176
     0
 90
        2
176
     0
 90
        0
176
     0
 90
        0
176
     0
 40
0.6
176
     0
 40
30.0
176
     0
 62
     7
420
 16777215
176
     0
 90
        1
176
     0
 90
        4
176
     0
 62
     7
176
     0
 62
   257
176
     0
 90
        1
176
     0
 90
        1
176
     0
 40
1.0
176
     0
 90
        9
176
     2
 62
     7
176
     0
 40
1.0
176
     0
 90
        1
176
     0
 90
        6
176
     0
 90
        2
176
     0
 62
     7
176
     0
 90
        5
176
     0
 90
        0
176
     0
 90
        0
176
     0
290
     0
176
     0
 90
        1
176
     0
 40
0.0
176
     0
 90
        0
176
     0
290
     0
176
     0
290
     1
176
     0
290
     1
176
     0
290
     0
176
     0
290
     0
176
     0
290
     0
176
     0
290
     0
176
     0
290
     0
176
     0
290
     0
176
     0
 90
       50
176
     0
 40
0.0
176
     0
 40
1.0
176
     0
 90
        0
176
     0
 62
    18
420
        0
176
     0
 90
       50
176
     0
 90
        3
176
     0
 62
     5
420
      255
176
     0
290
     0
176
     0
 90
       50
176
     0
 90
       50
176
     0
 90
       50
176
     0
290
     0
176
     0
 90
       50
176
     0
 62
   256
176
     0
 40
1.0
176
     0
 90
        2
176
     0
  1
strokes_ogs.tif
176
     0
290
     0
176
     0
 40
1.0
176
     0
 40
1.0
176
     0
1001
ACAD
1000
AcDbSavedByObjectVersion
1070
     0
  0
VISUALSTYLE
  5
33
102
{ACAD_REACTORS
330
29
102
}
330
29
100
AcDbVisualStyle
  2
Realistic
 70
     8
177
     3
291
     0
 70
    58
 90
        2
176
     1
 90
        3
176
     1
 90
        0
176
     1
 90
        2
176
     1
 40
0.6
176
     1
 40
30.0
176
     1
 62
     7
420
 16777215
176
     1
 90
        0
176
     1
 90
        0
176
     1
 62
     7
176
     1
 62
   257
176
     1
 90
        1
176
     1
 90
        1
176
     1
 40
1.0
176
     1
 90
        8
176
     1
 62
   257
176
     1
 40
1.0
176
     1
 90
        1
176
     1
 90
        6
176
     1
 90
        2
176
     1
 62
     7
176
     1
 90
        3
176
     1
 90
        0
176
     1
 90
        0
176
     1
290
     0
176
     1
 90
       13
176
     1
 40
0.0
176
     1
 90
        0
176
     1
290
     0
176
     1
290
     1
176
     1
290
     1
176
     1
290
     0
176
     1
290
     0
176
     1
290
     0
176
     1
290
     0
176
     1
290
     0
176
     1
290
     0
176
     1
 90
       50
176
     1
 40
0.0
176
     1
 40
1.0
176
     1
 90
        0
176
     1
 62
    18
420
        0
176
     1
 90
       50
176
     1
 90
        3
176
     1
 62
     5
420
      255
176
     1
290
     0
176
     1
 90
       50
176
     1
 90
       50
176
     1
 90
       50
176
     1
290
     0
176
     1
 90
       50
176
     1
 62
   256
176
     0
 40
1.0
176
     0
 90
        2
176
     1
  1
strokes_ogs.tif
176
     1
290
     0
176
     1
 40
1.0
176
     1
 40
1.0
176
     1
1001
ACAD
1000
AcDbSavedByObjectVersion
1070
     0
  0
VISUALSTYLE
  5
3E
102
{ACAD_REACTORS
330
29
102
}
330
29
100
AcDbVisualStyle
  2
Shaded
 70
    27
177
     3
291
     0
 70
    58
 90
        2
176
     1
 90
        2
176
     1
 90
        1
176
     1
 90
        2
176
     1
 40
0.6
176
     1
 40
30.0
176
     1
 62
     7
420
 16777215
176
     1
 90
        0
176
     1
 90
        4
176
     1
 62
     7
176
     1
 62
   257
176
     1
 90
        1
176
     1
 90
        1
176
     1
 40
1.0
176
     1
 90
        8
176
     1
 62
   257
176
     1
 40
1.0
176
     1
 90
        1
176
     1
 90
        6
176
     1
 90
        2
176
     1
 62
     8
420
  7895160
176
     1
 90
        3
176
     1
 90
        0
176
     1
 90
        0
176
     1
290
     0
176
     1
 90
        5
176
     1
 40
0.0
176
     1
 90
        0
176
     1
290
     0
176
     1
290
     1
176
     1
290
     1
176
     1
290
     0
176
     1
290
     0
176
     1
290
     0
176
     1
290
     0
176
     1
290
     0
176
     1
290
     0
176
     1
 90
       50
176
     1
 40
0.0
176
     1
 40
1.0
176
     1
 90
        0
176
     1
 62
    18
420
        0
176
     1
 90
       50
176
     1
 90
        3
176
     1
 62
     5
420
      255
176
     1
290
     0
176
     1
 90
       50
176
     1
 90
       50
176
     1
 90
       50
176
     1
290
     0
176
     1
 90
       50
176
     1
 62
   256
176
     0
 40
1.0
176
     0
 90
        2
176
     1
  1
strokes_ogs.tif
176
     1
290
     0
176
     1
 40
1.0
176
     1
 40
1.0
176
     1
1001
ACAD
1000
AcDbSavedByObjectVersion
1070
     0
  0
VISUALSTYLE
  5
3D
102
{ACAD_REACTORS
330
29
102
}
330
29
100
AcDbVisualStyle
  2
Shaded with edges
 70
    26
177
     3
291
     0
 70
    58
 90
        2
176
     1
 90
        2
176
     1
 90
        1
176
     1
 90
        2
176
     1
 40
0.6
176
     1
 40
30.0
176
     1
 62
     7
420
 16777215
176
     1
 90
        1
176
     1
 90
        2
176
     1
 62
     7
176
     1
 62
   257
176
     1
 90
        2
176
     1
 90
        1
176
     1
 40
1.0
176
     1
 90
        8
176
     1
 62
   257
176
     1
 40
1.0
176
     1
 90
        1
176
     1
 90
        6
176
     1
 90
        2
176
     1
 62
     7
176
     1
 90
        3
176
     1
 90
        0
176
     1
 90
        0
176
     1
290
     0
176
     1
 90
        5
176
     1
 40
0.0
176
     1
 90
        0
176
     1
290
     0
176
     1
290
     1
176
     1
290
     1
176
     1
290
     0
176
     1
290
     0
176
     1
290
     0
176
     1
290
     0
176
     1
290
     0
176
     1
290
     0
176
     1
 90
       50
176
     1
 40
0.0
176
     1
 40
1.0
176
     1
 90
        0
176
     1
 62
    18
420
        0
176
     1
 90
       50
176
     1
 90
        3
176
     1
 62
     5
420
      255
176
     1
290
     0
176
     1
 90
       50
176
     1
 90
       50
176
     1
 90
       50
176
     1
290
     0
176
     1
 90
       50
176
     1
 62
   256
176
     0
 40
1.0
176
     0
 90
        2
176
     1
  1
strokes_ogs.tif
176
     1
290
     0
176
     1
 40
1.0
176
     1
 40
1.0
176
     1
1001
ACAD
1000
AcDbSavedByObjectVersion
1070
     0
  0
VISUALSTYLE
  5
3A
102
{ACAD_REACTORS
330
29
102
}
330
29
100
AcDbVisualStyle
  2
Shades of Gray
 70
    23
177
     3
291
     0
 70
    58
 90
        2
176
     1
 90
        2
176
     1
 90
        3
176
     1
 90
        0
176
     1
 40
0.6
176
     1
 40
30.0
176
     1
 62
     7
420
 16777215
176
     1
 90
        2
176
     1
 90
        2
176
     1
 62
     7
176
     1
 62
     7
176
     1
 90
        1
176
     1
 90
        1
176
     1
 40
40.0
176
     1
 90
        8
176
     1
 62
     7
176
     1
 40
1.0
176
     1
 90
        1
176
     1
 90
        6
176
     1
 90
        2
176
     1
 62
     7
176
     1
 90
        3
176
     1
 90
        0
176
     1
 90
        0
176
     1
290
     0
176
     1
 90
        1
176
     1
 40
0.0
176
     1
 90
        0
176
     1
290
     0
176
     1
290
     1
176
     1
290
     1
176
     1
290
     0
176
     1
290
     0
176
     1
290
     0
176
     1
290
     0
176
     1
290
     0
176
     1
290
     0
176
     1
 90
       50
176
     1
 40
0.0
176
     1
 40
1.0
176
     1
 90
        0
176
     1
 62
    18
420
        0
176
     1
 90
       50
176
     1
 90
        3
176
     1
 62
     5
420
      255
176
     1
290
     0
176
     1
 90
       50
176
     1
 90
       50
176
     1
 90
       50
176
     1
290
     0
176
     1
 90
       50
176
     1
 62
   256
176
     0
 40
1.0
176
     0
 90
        2
176
     1
  1
strokes_ogs.tif
176
     1
290
     0
176
     1
 40
1.0
176
     1
 40
1.0
176
     1
1001
ACAD
1000
AcDbSavedByObjectVersion
1070
     0
  0
VISUALSTYLE
  5
3B
102
{ACAD_REACTORS
330
29
102
}
330
29
100
AcDbVisualStyle
  2
Sketchy
 70
    24
177
     3
291
     0
 70
    58
 90
        1
176
     1
 90
        2
176
     1
 90
        2
176
     1
 90
        0
176
     1
 40
0.6
176
     1
 40
30.0
176
     1
 62
     7
420
 16777215
176
     1
 90
        2
176
     1
 90
        2
176
     1
 62
     7
176
     1
 62
     7
176
     1
 90
        1
176
     1
 90
        1
176
     1
 40
40.0
176
     1
 90
       11
176
     1
 62
     7
176
     1
 40
1.0
176
     1
 90
        1
176
     1
 90
        6
176
     1
 90
        2
176
     1
 62
     7
176
     1
 90
        6
176
     1
 90
        0
176
     1
 90
        0
176
     1
290
     0
176
     1
 90
        1
176
     1
 40
0.0
176
     1
 90
        0
176
     1
290
     0
176
     1
290
     1
176
     1
290
     1
176
     1
290
     0
176
     1
290
     0
176
     1
290
     0
176
     1
290
     0
176
     1
290
     0
176
     1
290
     0
176
     1
 90
       50
176
     1
 40
0.0
176
     1
 40
1.0
176
     1
 90
        0
176
     1
 62
    18
420
        0
176
     1
 90
       50
176
     1
 90
        3
176
     1
 62
     5
420
      255
176
     1
290
     0
176
     1
 90
       50
176
     1
 90
       50
176
     1
 90
       50
176
     1
290
     0
176
     1
 90
       50
176
     1
 62
   256
176
     0
 40
1.0
176
     0
 90
        2
176
     1
  1
strokes_ogs.tif
176
     1
290
     0
176
     1
 40
1.0
176
     1
 40
1.0
176
     1
1001
ACAD
1000
AcDbSavedByObjectVersion
1070
     0
  0
VISUALSTYLE
  5
36
102
{ACAD_REACTORS
330
29
102
}
330
29
100
AcDbVisualStyle
  2
Thicken
 70
    13
177
     3
291
     1
 70
    58
 90
        2
176
     1
 90
        2
176
     1
 90
        0
176
     1
 90
        0
176
     1
 40
0.6
176
     1
 40
30.0
176
     1
 62
     7
420
 16777215
176
     1
 90
        1
176
     1
 90
        4
176
     1
 62
     7
176
     1
 62
   257
176
     1
 90
        1
176
     1
 90
        1
176
     1
 40
1.0
176
     1
 90
       12
176
     1
 62
     7
176
     1
 40
1.0
176
     1
 90
        1
176
     1
 90
        6
176
     1
 90
        2
176
     1
 62
     7
176
     1
 90
        5
176
     1
 90
        0
176
     1
 90
        0
176
     1
290
     0
176
     1
 90
        1
176
     1
 40
0.0
176
     1
 90
        0
176
     1
290
     0
176
     1
290
     1
176
     1
290
     1
176
     1
290
     0
176
     1
290
     0
176
     1
290
     0
176
     1
290
     0
176
     1
290
     0
176
     1
290
     0
176
     1
 90
       50
176
     1
 40
0.0
176
     1
 40
1.0
176
     1
 90
        0
176
     1
 62
    18
420
        0
176
     1
 90
       50
176
     1
 90
        3
176
     1
 62
     5
420
      255
176
     1
290
     0
176
     1
 90
       50
176
     1
 90
       50
176
     1
 90
       50
176
     1
290
     0
176
     1
 90
       50
176
     1
 62
   256
176
     0
 40
1.0
176
     0
 90
        2
176
     1
  1
strokes_ogs.tif
176
     1
290
     0
176
     1
 40
1.0
176
     1
 40
1.0
176
     1
1001
ACAD
1000
AcDbSavedByObjectVersion
1070
     0
  0
VISUALSTYLE
  5
30
102
{ACAD_REACTORS
330
29
102
}
330
29
100
AcDbVisualStyle
  2
Wireframe
 70
     5
177
     3
291
     0
 70
    58
 90
        0
176
     1
 90
        2
176
     1
 90
        0
176
     1
 90
        0
176
     1
 40
0.6
176
     1
 40
30.0
176
     1
 62
     7
420
 16777215
176
     1
 90
        1
176
     1
 90
        4
176
     1
 62
     7
176
     1
 62
   257
176
     1
 90
        1
176
     1
 90
        1
176
     1
 40
1.0
176
     1
 90
        0
176
     1
 62
   257
176
     1
 40
1.0
176
     1
 90
        1
176
     1
 90
        6
176
     1
 90
        2
176
     1
 62
     7
176
     1
 90
        3
176
     1
 90
        0
176
     1
 90
        0
176
     1
290
     0
176
     1
 90
        1
176
     1
 40
0.0
176
     1
 90
        0
176
     1
290
     0
176
     1
290
     1
176
     1
290
     1
176
     1
290
     0
176
     1
290
     0
176
     1
290
     0
176
     1
290
     0
176
     1
290
     0
176
     1
290
     0
176
     1
 90
       50
176
     1
 40
0.0
176
     1
 40
1.0
176
     1
 90
        0
176
     1
 62
    18
420
        0
176
     1
 90
       50
176
     1
 90
        3
176
     1
 62
     5
420
      255
176
     1
290
     0
176
     1
 90
       50
176
     1
 90
       50
176
     1
 90
       50
176
     1
290
     0
176
     1
 90
       50
176
     1
 62
   256
176
     0
 40
1.0
176
     0
 90
        2
176
     1
  1
strokes_ogs.tif
176
     1
290
     0
176
     1
 40
1.0
176
     1
 40
1.0
176
     1
1001
ACAD
1000
AcDbSavedByObjectVersion
1070
     0
  0
VISUALSTYLE
  5
3C
102
{ACAD_REACTORS
330
29
102
}
330
29
100
AcDbVisualStyle
  2
X-Ray
 70
    25
177
     3
291
     0
 70
    58
 90
        2
176
     1
 90
        2
176
     1
 90
        1
176
     1
 90
        1
176
     1
 40
0.5
176
     1
 40
30.0
176
     1
 62
     7
420
 16777215
176
     1
 90
        1
176
     1
 90
        0
176
     1
 62
     7
176
     1
 62
   257
176
     1
 90
        1
176
     1
 90
        1
176
     1
 40
1.0
176
     1
 90
        8
176
     1
 62
     7
176
     1
 40
1.0
176
     1
 90
        1
176
     1
 90
        6
176
     1
 90
        2
176
     1
 62
     7
176
     1
 90
        3
176
     1
 90
        0
176
     1
 90
        0
176
     1
290
     0
176
     1
 90
       13
176
     1
 40
0.0
176
     1
 90
        0
176
     1
290
     0
176
     1
290
     1
176
     1
290
     1
176
     1
290
     0
176
     1
290
     0
176
     1
290
     0
176
     1
290
     0
176
     1
290
     0
176
     1
290
     0
176
     1
 90
       50
176
     1
 40
0.0
176
     1
 40
1.0
176
     1
 90
        0
176
     1
 62
    18
420
        0
176
     1
 90
       50
176
     1
 90
        3
176
     1
 62
     5
420
      255
176
     1
290
     0
176
     1
 90
       50
176
     1
 90
       50
176
     1
 90
       50
176
     1
290
     0
176
     1
 90
       50
176
     1
 62
   256
176
     0
 40
1.0
176
     0
 90
        2
176
     1
  1
strokes_ogs.tif
176
     1
290
     0
176
     1
 40
1.0
176
     1
 40
1.0
176
     1
1001
ACAD
1000
AcDbSavedByObjectVersion
1070
     0
  0
DICTIONARYVAR
  5
8F
102
{ACAD_REACTORS
330
8A
102
}
330
8A
100
DictionaryVariables
280
     0
  1
1:1
  0
DICTIONARYVAR
  5
8C
102
{ACAD_REACTORS
330
8A
102
}
330
8A
100
DictionaryVariables
280
     0
  1
STANDARD
  0
DICTIONARYVAR
  5
8B
102
{ACAD_REACTORS
330
8A
102
}
330
8A
100
DictionaryVariables
280
     0
  1
STANDARD
  0
DICTIONARYVAR
  5
8D
102
{ACAD_REACTORS
330
8A
102
}
330
8A
100
DictionaryVariables
280
     0
  1
Imperial24
  0
DICTIONARYVAR
  5
8E
102
{ACAD_REACTORS
330
8A
102
}
330
8A
100
DictionaryVariables
280
     0
  1
Imperial24
  0
DICTIONARY
  5
95
330
6B
100
AcDbDictionary
280
     1
281
     1
  3
ACAD_XREC_ROUNDTRIP
360
96
  0
DICTIONARY
  5
1A
330
19
100
AcDbDictionary
280
     1
281
     1
  3
BUMPTILE
360
1C
  3
DIFFUSETILE
360
1B
  3
OPACITYTILE
360
1F
  3
REFLECTIONTILE
360
1E
  3
REFRACTIONTILE
360
20
  3
SPECULARTILE
360
1D
  0
DICTIONARY
  5
12
330
11
100
AcDbDictionary
280
     1
281
     1
  3
BUMPTILE
360
14
  3
DIFFUSETILE
360
13
  3
OPACITYTILE
360
17
  3
REFLECTIONTILE
360
16
  3
REFRACTIONTILE
360
18
  3
SPECULARTILE
360
15
  0
DICTIONARY
  5
22
330
21
100
AcDbDictionary
280
     1
281
     1
  3
BUMPTILE
360
24
  3
DIFFUSETILE
360
23
  3
OPACITYTILE
360
27
  3
REFLECTIONTILE
360
26
  3
REFRACTIONTILE
360
28
  3
SPECULARTILE
360
25
  0
DICTIONARY
  5
93
330
69
100
AcDbDictionary
280
     1
281
     1
  3
ACAD_XREC_ROUNDTRIP
360
94
  0
DICTIONARY
  5
90
330
65
100
AcDbDictionary
280
     1
281
     1
  3
ACAD_ROUNDTRIP_2008_TABLESTYLE_CELLSTYLEMAP
360
91
  0
XRECORD
  5
96
102
{ACAD_REACTORS
330
95
102
}
330
95
100
AcDbXrecord
280
     1
102
DISPLAYNAME
  1
Imperial24
102
FLAGS
 90
        0
  0
XRECORD
  5
1C
102
{ACAD_REACTORS
330
1A
102
}
330
1A
100
AcDbXrecord
280
     1
270
     1
271
     1
  0
XRECORD
  5
1B
102
{ACAD_REACTORS
330
1A
102
}
330
1A
100
AcDbXrecord
280
     1
270
     1
271
     1
  0
XRECORD
  5
1F
102
{ACAD_REACTORS
330
1A
102
}
330
1A
100
AcDbXrecord
280
     1
270
     1
271
     1
  0
XRECORD
  5
1E
102
{ACAD_REACTORS
330
1A
102
}
330
1A
100
AcDbXrecord
280
     1
270
     1
271
     1
  0
XRECORD
  5
20
102
{ACAD_REACTORS
330
1A
102
}
330
1A
100
AcDbXrecord
280
     1
270
     1
271
     1
  0
XRECORD
  5
1D
102
{ACAD_REACTORS
330
1A
102
}
330
1A
100
AcDbXrecord
280
     1
270
     1
271
     1
  0
XRECORD
  5
14
102
{ACAD_REACTORS
330
12
102
}
330
12
100
AcDbXrecord
280
     1
270
     1
271
     1
  0
XRECORD
  5
13
102
{ACAD_REACTORS
330
12
102
}
330
12
100
AcDbXrecord
280
     1
270
     1
271
     1
  0
XRECORD
  5
17
102
{ACAD_REACTORS
330
12
102
}
330
12
100
AcDbXrecord
280
     1
270
     1
271
     1
  0
XRECORD
  5
16
102
{ACAD_REACTORS
330
12
102
}
330
12
100
AcDbXrecord
280
     1
270
     1
271
     1
  0
XRECORD
  5
18
102
{ACAD_REACTORS
330
12
102
}
330
12
100
AcDbXrecord
280
     1
270
     1
271
     1
  0
XRECORD
  5
15
102
{ACAD_REACTORS
330
12
102
}
330
12
100
AcDbXrecord
280
     1
270
     1
271
     1
  0
XRECORD
  5
24
102
{ACAD_REACTORS
330
22
102
}
330
22
100
AcDbXrecord
280
     1
270
     1
271
     1
  0
XRECORD
  5
23
102
{ACAD_REACTORS
330
22
102
}
330
22
100
AcDbXrecord
280
     1
270
     1
271
     1
  0
XRECORD
  5
27
102
{ACAD_REACTORS
330
22
102
}
330
22
100
AcDbXrecord
280
     1
270
     1
271
     1
  0
XRECORD
  5
26
102
{ACAD_REACTORS
330
22
102
}
330
22
100
AcDbXrecord
280
     1
270
     1
271
     1
  0
XRECORD
  5
28
102
{ACAD_REACTORS
330
22
102
}
330
22
100
AcDbXrecord
280
     1
270
     1
271
     1
  0
XRECORD
  5
25
102
{ACAD_REACTORS
330
22
102
}
330
22
100
AcDbXrecord
280
     1
270
     1
271
     1
  0
XRECORD
  5
94
102
{ACAD_REACTORS
330
93
102
}
330
93
100
AcDbXrecord
280
     1
102
DISPLAYNAME
  1
Imperial24
102
FLAGS
 90
        0
  0
CELLSTYLEMAP
  5
91
102
{ACAD_REACTORS
330
90
102
}
330
90
100
AcDbCellStyleMap
 90
        3
300
CELLSTYLE
  1
TABLEFORMAT_BEGIN
 90
        5
170
     1
 91
        0
 92
    32768
 62
   257
 93
        1
300
CONTENTFORMAT
  1
CONTENTFORMAT_BEGIN
 90
        0
 91
        0
 92
      512
 93
        0
300

 40
0.0
140
1.0
 94
        5
 62
     0
340
55
144
0.25
309
CONTENTFORMAT_END
171
     0
 94
        0
309
TABLEFORMAT_END
  1
CELLSTYLE_BEGIN
 90
        1
 91
        1
300
_TITLE
309
CELLSTYLE_END
300
CELLSTYLE
  1
TABLEFORMAT_BEGIN
 90
        5
170
     1
 91
        0
 92
        0
 62
   257
 93
        1
300
CONTENTFORMAT
  1
CONTENTFORMAT_BEGIN
 90
        0
 91
        0
 92
      512
 93
        0
300

 40
0.0
140
1.0
 94
        5
 62
     0
340
55
144
0.18
309
CONTENTFORMAT_END
171
     0
 94
        0
309
TABLEFORMAT_END
  1
CELLSTYLE_BEGIN
 90
        2
 91
        1
300
_HEADER
309
CELLSTYLE_END
300
CELLSTYLE
  1
TABLEFORMAT_BEGIN
 90
        5
170
     1
 91
        0
 92
        0
 62
   257
 93
        1
300
CONTENTFORMAT
  1
CONTENTFORMAT_BEGIN
 90
        0
 91
        0
 92
      512
 93
        0
300

 40
0.0
140
1.0
 94
        2
 62
     0
340
55
144
0.18
309
CONTENTFORMAT_END
171
     0
 94
        0
309
TABLEFORMAT_END
  1
CELLSTYLE_BEGIN
 90
        3
 91
        2
300
_DATA
309
CELLSTYLE_END
  0
ENDSEC
  0
EOF
