  0
SECTION
  2
HEADER
  9
$ACADVER
  1
AC1027
  9
$ACADMAINTVER
 70
   125
  9
$DWGCODEPAGE
  3
ANSI_1252
  9
$REQUIREDVERSIONS
160
                 0
  9
$INSBASE
 10
0.0
 20
0.0
 30
0.0
  9
$EXTMIN
 10
1.000000000000000E+20
 20
1.000000000000000E+20
 30
1.000000000000000E+20
  9
$EXTMAX
 10
-1.000000000000000E+20
 20
-1.000000000000000E+20
 30
-1.000000000000000E+20
  9
$LIMMIN
 10
0.0
 20
0.0
  9
$LIMMAX
 10
12.0
 20
9.0
  9
$ORTHOMODE
 70
     0
  9
$REGENMODE
 70
     1
  9
$FILLMODE
 70
     1
  9
$QTEXTMODE
 70
     0
  9
$MIRRTEXT
 70
     0
  9
$LTSCALE
 40
1.0
  9
$ATTMODE
 70
     1
  9
$TEXTSIZE
 40
0.2
  9
$TRACEWID
 40
0.05
  9
$TEXTSTYLE
  7
Standard
  9
$CLAYER
  8
0
  9
$CELTYPE
  6
ByLayer
  9
$CECOLOR
 62
   256
  9
$CELTSCALE
 40
1.0
  9
$DISPSILH
 70
     0
  9
$DIMSCALE
 40
1.0
  9
$DIMASZ
 40
0.18
  9
$DIMEXO
 40
0.0625
  9
$DIMDLI
 40
0.38
  9
$DIMRND
 40
0.0
  9
$DIMDLE
 40
0.0
  9
$DIMEXE
 40
0.18
  9
$DIMTP
 40
0.0
  9
$DIMTM
 40
0.0
  9
$DIMTXT
 40
0.18
  9
$DIMCEN
 40
0.09
  9
$DIMTSZ
 40
0.0
  9
$DIMTOL
 70
     0
  9
$DIMLIM
 70
     0
  9
$DIMTIH
 70
     1
  9
$DIMTOH
 70
     1
  9
$DIMSE1
 70
     0
  9
$DIMSE2
 70
     0
  9
$DIMTAD
 70
     0
  9
$DIMZIN
 70
     0
  9
$DIMBLK
  1

  9
$DIMASO
 70
     1
  9
$DIMSHO
 70
     1
  9
$DIMPOST
  1

  9
$DIMAPOST
  1

  9
$DIMALT
 70
     0
  9
$DIMALTD
 70
     2
  9
$DIMALTF
 40
25.4
  9
$DIMLFAC
 40
1.0
  9
$DIMTOFL
 70
     0
  9
$DIMTVP
 40
0.0
  9
$DIMTIX
 70
     0
  9
$DIMSOXD
 70
     0
  9
$DIMSAH
 70
     0
  9
$DIMBLK1
  1

  9
$DIMBLK2
  1

  9
$DIMSTYLE
  2
Standard
  9
$DIMCLRD
 70
     0
  9
$DIMCLRE
 70
     0
  9
$DIMCLRT
 70
     0
  9
$DIMTFAC
 40
1.0
  9
$DIMGAP
 40
0.09
  9
$DIMJUST
 70
     0
  9
$DIMSD1
 70
     0
  9
$DIMSD2
 70
     0
  9
$DIMTOLJ
 70
     1
  9
$DIMTZIN
 70
     0
  9
$DIMALTZ
 70
     0
  9
$DIMALTTZ
 70
     0
  9
$DIMUPT
 70
     0
  9
$DIMDEC
 70
     4
  9
$DIMTDEC
 70
     4
  9
$DIMALTU
 70
     2
  9
$DIMALTTD
 70
     2
  9
$DIMTXSTY
  7
Standard
  9
$DIMAUNIT
 70
     0
  9
$DIMADEC
 70
     0
  9
$DIMALTRND
 40
0.0
  9
$DIMAZIN
 70
     0
  9
$DIMDSEP
 70
    46
  9
$DIMATFIT
 70
     3
  9
$DIMFRAC
 70
     0
  9
$DIMLDRBLK
  1

  9
$DIMLUNIT
 70
     2
  9
$DIMLWD
 70
    -2
  9
$DIMLWE
 70
    -2
  9
$DIMTMOVE
 70
     0
  9
$DIMFXL
 40
1.0
  9
$DIMFXLON
 70
     0
  9
$DIMJOGANG
 40
0.7853981633974483
  9
$DIMTFILL
 70
     0
  9
$DIMTFILLCLR
 70
     0
  9
$DIMARCSYM
 70
     0
  9
$DIMLTYPE
  6

  9
$DIMLTEX1
  6

  9
$DIMLTEX2
  6

  9
$DIMTXTDIRECTION
 70
     0
  9
$LUNITS
 70
     2
  9
$LUPREC
 70
     4
  9
$SKETCHINC
 40
0.1
  9
$FILLETRAD
 40
0.0
  9
$AUNITS
 70
     0
  9
$AUPREC
 70
     0
  9
$MENU
  1
.
  9
$ELEVATION
 40
0.0
  9
$PELEVATION
 40
0.0
  9
$THICKNESS
 40
0.0
  9
$LIMCHECK
 70
     0
  9
$CHAMFERA
 40
0.0
  9
$CHAMFERB
 40
0.0
  9
$CHAMFERC
 40
0.0
  9
$CHAMFERD
 40
0.0
  9
$SKPOLY
 70
     0
  9
$TDCREATE
 40
2459734.948958333
  9
$TDUCREATE
 40
2459734.532291667
  9
$TDUPDATE
 40
2459734.948958333
  9
$TDUUPDATE
 40
2459734.532291667
  9
$TDINDWG
 40
0.0000000000
  9
$TDUSRTIMER
 40
0.0000000000
  9
$USRTIMER
 70
     1
  9
$ANGBASE
 50
0.0
  9
$ANGDIR
 70
     0
  9
$PDMODE
 70
     0
  9
$PDSIZE
 40
0.0
  9
$PLINEWID
 40
0.0
  9
$SPLFRAME
 70
     0
  9
$SPLINETYPE
 70
     6
  9
$SPLINESEGS
 70
     8
  9
$HANDSEED
  5
95
  9
$SURFTAB1
 70
     6
  9
$SURFTAB2
 70
     6
  9
$SURFTYPE
 70
     6
  9
$SURFU
 70
     6
  9
$SURFV
 70
     6
  9
$UCSBASE
  2

  9
$UCSNAME
  2

  9
$UCSORG
 10
0.0
 20
0.0
 30
0.0
  9
$UCSXDIR
 10
1.0
 20
0.0
 30
0.0
  9
$UCSYDIR
 10
0.0
 20
1.0
 30
0.0
  9
$UCSORTHOREF
  2

  9
$UCSORTHOVIEW
 70
     0
  9
$UCSORGTOP
 10
0.0
 20
0.0
 30
0.0
  9
$UCSORGBOTTOM
 10
0.0
 20
0.0
 30
0.0
  9
$UCSORGLEFT
 10
0.0
 20
0.0
 30
0.0
  9
$UCSORGRIGHT
 10
0.0
 20
0.0
 30
0.0
  9
$UCSORGFRONT
 10
0.0
 20
0.0
 30
0.0
  9
$UCSORGBACK
 10
0.0
 20
0.0
 30
0.0
  9
$PUCSBASE
  2

  9
$PUCSNAME
  2

  9
$PUCSORG
 10
0.0
 20
0.0
 30
0.0
  9
$PUCSXDIR
 10
1.0
 20
0.0
 30
0.0
  9
$PUCSYDIR
 10
0.0
 20
1.0
 30
0.0
  9
$PUCSORTHOREF
  2

  9
$PUCSORTHOVIEW
 70
     0
  9
$PUCSORGTOP
 10
0.0
 20
0.0
 30
0.0
  9
$PUCSORGBOTTOM
 10
0.0
 20
0.0
 30
0.0
  9
$PUCSORGLEFT
 10
0.0
 20
0.0
 30
0.0
  9
$PUCSORGRIGHT
 10
0.0
 20
0.0
 30
0.0
  9
$PUCSORGFRONT
 10
0.0
 20
0.0
 30
0.0
  9
$PUCSORGBACK
 10
0.0
 20
0.0
 30
0.0
  9
$USERI1
 70
     0
  9
$USERI2
 70
     0
  9
$USERI3
 70
     0
  9
$USERI4
 70
     0
  9
$USERI5
 70
     0
  9
$USERR1
 40
0.0
  9
$USERR2
 40
0.0
  9
$USERR3
 40
0.0
  9
$USERR4
 40
0.0
  9
$USERR5
 40
0.0
  9
$WORLDVIEW
 70
     1
  9
$SHADEDGE
 70
     3
  9
$SHADEDIF
 70
    70
  9
$TILEMODE
 70
     1
  9
$MAXACTVP
 70
    64
  9
$PINSBASE
 10
0.0
 20
0.0
 30
0.0
  9
$PLIMCHECK
 70
     0
  9
$PEXTMIN
 10
1.000000000000000E+20
 20
1.000000000000000E+20
 30
1.000000000000000E+20
  9
$PEXTMAX
 10
-1.000000000000000E+20
 20
-1.000000000000000E+20
 30
-1.000000000000000E+20
  9
$PLIMMIN
 10
0.0
 20
0.0
  9
$PLIMMAX
 10
12.0
 20
9.0
  9
$UNITMODE
 70
     0
  9
$VISRETAIN
 70
     1
  9
$PLINEGEN
 70
     0
  9
$PSLTSCALE
 70
     1
  9
$TREEDEPTH
 70
  3020
  9
$CMLSTYLE
  2
Standard
  9
$CMLJUST
 70
     0
  9
$CMLSCALE
 40
1.0
  9
$PROXYGRAPHICS
 70
     1
  9
$MEASUREMENT
 70
     0
  9
$CELWEIGHT
370
    -1
  9
$ENDCAPS
280
     0
  9
$JOINSTYLE
280
     0
  9
$LWDISPLAY
290
     1
  9
$INSUNITS
 70
     4
  9
$HYPERLINKBASE
  1

  9
$STYLESHEET
  1

  9
$XEDIT
290
     1
  9
$CEPSNTYPE
380
     0
  9
$PSTYLEMODE
290
     1
  9
$FINGERPRINTGUID
  2
{E411F84A-BF38-7946-9155-1CFD3A0F1632}
  9
$VERSIONGUID
  2
{F1AB0399-74CC-4B4B-B3BA-9ADC2059224F}
  9
$EXTNAMES
290
     1
  9
$PSVPSCALE
 40
0.0
  9
$OLESTARTUP
290
     0
  9
$SORTENTS
280
   127
  9
$INDEXCTL
280
     0
  9
$HIDETEXT
280
     1
  9
$XCLIPFRAME
280
     2
  9
$HALOGAP
280
     0
  9
$OBSCOLOR
 70
   257
  9
$OBSLTYPE
280
     0
  9
$INTERSECTIONDISPLAY
280
     0
  9
$INTERSECTIONCOLOR
 70
   257
  9
$DIMASSOC
280
     2
  9
$PROJECTNAME
  1

  9
$CAMERADISPLAY
290
     0
  9
$LENSLENGTH
 40
50.0
  9
$CAMERAHEIGHT
 40
0.0
  9
$STEPSPERSEC
 40
2.0
  9
$STEPSIZE
 40
6.0
  9
$3DDWFPREC
 40
2.0
  9
$PSOLWIDTH
 40
0.25
  9
$PSOLHEIGHT
 40
4.0
  9
$LOFTANG1
 40
1.570796326794896
  9
$LOFTANG2
 40
1.570796326794896
  9
$LOFTMAG1
 40
0.0
  9
$LOFTMAG2
 40
0.0
  9
$LOFTPARAM
 70
     7
  9
$LOFTNORMALS
280
     1
  9
$LATITUDE
 40
37.795
  9
$LONGITUDE
 40
-122.394
  9
$NORTHDIRECTION
 40
0.0
  9
$TIMEZONE
 70
 -8000
  9
$LIGHTGLYPHDISPLAY
280
     1
  9
$TILEMODELIGHTSYNCH
280
     1
  9
$CMATERIAL
347
11
  9
$SOLIDHIST
280
     0
  9
$SHOWHIST
280
     1
  9
$DWFFRAME
280
     2
  9
$DGNFRAME
280
     0
  9
$REALWORLDSCALE
290
     1
  9
$INTERFERECOLOR
 62
     1
  9
$INTERFEREOBJVS
345
33
  9
$INTERFEREVPVS
346
30
  9
$CSHADOW
280
     0
  9
$SHADOWPLANELOCATION
 40
0.0
  0
ENDSEC
  0
SECTION
  2
CLASSES
  0
CLASS
  1
ACDBDICTIONARYWDFLT
  2
AcDbDictionaryWithDefault
  3
ObjectDBX Classes
 90
        0
 91
        1
280
     0
281
     0
  0
CLASS
  1
MATERIAL
  2
AcDbMaterial
  3
ObjectDBX Classes
 90
     1153
 91
        3
280
     0
281
     0
  0
CLASS
  1
VISUALSTYLE
  2
AcDbVisualStyle
  3
ObjectDBX Classes
 90
     4095
 91
       24
280
     0
281
     0
  0
CLASS
  1
SCALE
  2
AcDbScale
  3
ObjectDBX Classes
 90
     1153
 91
       17
280
     0
281
     0
  0
CLASS
  1
TABLESTYLE
  2
AcDbTableStyle
  3
ObjectDBX Classes
 90
     4095
 91
        1
280
     0
281
     0
  0
CLASS
  1
MLEADERSTYLE
  2
AcDbMLeaderStyle
  3
ACDB_MLEADERSTYLE_CLASS
 90
     4095
 91
        1
280
     0
281
     0
  0
CLASS
  1
ACDBSECTIONVIEWSTYLE
  2
AcDbSectionViewStyle
  3
ObjectDBX Classes
 90
     1025
 91
        1
280
     0
281
     0
  0
CLASS
  1
ACDBDETAILVIEWSTYLE
  2
AcDbDetailViewStyle
  3
ObjectDBX Classes
 90
     1025
 91
        1
280
     0
281
     0
  0
CLASS
  1
DICTIONARYVAR
  2
AcDbDictionaryVar
  3
ObjectDBX Classes
 90
        0
 91
        5
280
     0
281
     0
  0
CLASS
  1
CELLSTYLEMAP
  2
AcDbCellStyleMap
  3
ObjectDBX Classes
 90
     1152
 91
        1
280
     0
281
     0
  0
ENDSEC
  0
SECTION
  2
TABLES
  0
TABLE
  2
VPORT
  5
8
330
0
100
AcDbSymbolTable
 70
     1
1001
ACAD
1000
DbSaveVer
1071
      247
  0
VPORT
  5
57
330
8
100
AcDbSymbolTableRecord
100
AcDbViewportTableRecord
  2
*Active
 70
     0
 10
0.0
 20
0.0
 11
1.0
 21
1.0
 12
0.0
 22
0.0
 13
0.0
 23
0.0
 14
1.0
 24
1.0
 15
0.0
 25
0.0
 16
0.0
 26
0.0
 36
1.0
 17
-111.9583333053439
 27
3.302777776952218
 37
0.0
 40
214.1999999464498
 41
0.9999999999999998
 42
50.0
 43
0.0
 44
0.0
 50
0.0
 51
0.0
 71
     0
 72
   100
 73
     1
 74
     1
 75
     0
 76
     0
 77
     0
 78
     0
281
     0
 65
     1
110
0.0
120
0.0
130
0.0
111
1.0
121
0.0
131
0.0
112
0.0
122
1.0
132
0.0
 79
     0
146
0.0
 60
     3
 61
     5
292
     1
282
     1
141
0.0
142
0.0
 63
   250
421
  3355443
  0
ENDTAB
  0
TABLE
  2
LTYPE
  5
5
330
0
100
AcDbSymbolTable
 70
     1
  0
LTYPE
  5
5B
330
5
100
AcDbSymbolTableRecord
100
AcDbLinetypeTableRecord
  2
ByBlock
 70
     0
  3

 72
    65
 73
     0
 40
0.0
  0
LTYPE
  5
5C
330
5
100
AcDbSymbolTableRecord
100
AcDbLinetypeTableRecord
  2
ByLayer
 70
     0
  3

 72
    65
 73
     0
 40
0.0
  0
LTYPE
  5
5D
330
5
100
AcDbSymbolTableRecord
100
AcDbLinetypeTableRecord
  2
Continuous
 70
     0
  3
Solid line
 72
    65
 73
     0
 40
0.0
  0
ENDTAB
  0
TABLE
  2
LAYER
  5
2
330
0
100
AcDbSymbolTable
 70
     2
  0
LAYER
  5
54
330
2
100
AcDbSymbolTableRecord
100
AcDbLayerTableRecord
  2
0
 70
     0
 62
     7
  6
Continuous
370
    -3
390
F
347
21
348
0
  0
LAYER
  5
78
330
2
100
AcDbSymbolTableRecord
100
AcDbLayerTableRecord
  2
Layer 1
 70
     0
 62
     7
  6
Continuous
370
     0
390
F
347
21
348
0
  0
ENDTAB
  0
TABLE
  2
STYLE
  5
3
330
0
100
AcDbSymbolTable
 70
     2
  0
STYLE
  5
55
330
3
100
AcDbSymbolTableRecord
100
AcDbTextStyleTableRecord
  2
Standard
 70
     0
 40
0.0
 41
1.0
 50
0.0
 71
     0
 42
0.2
  3
txt
  4

  0
STYLE
  5
5A
330
3
100
AcDbSymbolTableRecord
100
AcDbTextStyleTableRecord
  2
Annotative
 70
     0
 40
0.0
 41
1.0
 50
0.0
 71
     0
 42
0.2
  3
txt
  4

1001
AcadAnnotative
1000
AnnotativeData
1002
{
1070
     1
1070
     1
1002
}
  0
ENDTAB
  0
TABLE
  2
VIEW
  5
6
330
0
100
AcDbSymbolTable
 70
     0
  0
ENDTAB
  0
TABLE
  2
UCS
  5
7
330
0
100
AcDbSymbolTable
 70
     0
  0
ENDTAB
  0
TABLE
  2
APPID
  5
9
330
0
100
AcDbSymbolTable
 70
     2
  0
APPID
  5
56
330
9
100
AcDbSymbolTableRecord
100
AcDbRegAppTableRecord
  2
ACAD
 70
     0
  0
APPID
  5
5E
330
9
100
AcDbSymbolTableRecord
100
AcDbRegAppTableRecord
  2
AcadAnnotative
 70
     0
  0
ENDTAB
  0
TABLE
  2
DIMSTYLE
  5
A
330
0
100
AcDbSymbolTable
 70
     2
100
AcDbDimStyleTable
 71
     0
  0
DIMSTYLE
105
58
330
A
100
AcDbSymbolTableRecord
100
AcDbDimStyleTableRecord
  2
Standard
 70
     0
340
55
  0
DIMSTYLE
105
59
330
A
100
AcDbSymbolTableRecord
100
AcDbDimStyleTableRecord
  2
Annotative
 70
     0
340
55
1001
AcadAnnotative
1000
AnnotativeData
1002
{
1070
     1
1070
     1
1002
}
  0
ENDTAB
  0
TABLE
  2
BLOCK_RECORD
  5
1
330
0
100
AcDbSymbolTable
 70
     2
  0
BLOCK_RECORD
  5
70
330
1
100
AcDbSymbolTableRecord
100
AcDbBlockTableRecord
  2
*Model_Space
340
73
 70
     0
280
     1
281
     0
  0
BLOCK_RECORD
  5
6C
330
1
100
AcDbSymbolTableRecord
100
AcDbBlockTableRecord
  2
*Paper_Space
340
6F
 70
     0
280
     1
281
     0
  0
BLOCK_RECORD
  5
74
330
1
100
AcDbSymbolTableRecord
100
AcDbBlockTableRecord
  2
*Paper_Space0
340
77
 70
     0
280
     1
281
     0
  0
BLOCK_RECORD
  5
79
330
1
100
AcDbSymbolTableRecord
100
AcDbBlockTableRecord
  2
Block_0
340
0
102
{BLKREFS
331
7A
102
}
 70
     0
280
     1
281
     0
  0
ENDTAB
  0
ENDSEC
  0
SECTION
  2
BLOCKS
  0
BLOCK
  5
71
330
70
100
AcDbEntity
  8
0
100
AcDbBlockBegin
  2
*Model_Space
 70
     0
 10
0.0
 20
0.0
 30
0.0
  3
*Model_Space
  1

  0
ENDBLK
  5
72
330
70
100
AcDbEntity
  8
0
100
AcDbBlockEnd
  0
BLOCK
  5
6D
330
6C
100
AcDbEntity
 67
     1
  8
0
100
AcDbBlockBegin
  2
*Paper_Space
 70
     0
 10
0.0
 20
0.0
 30
0.0
  3
*Paper_Space
  1

  0
ENDBLK
  5
6E
330
6C
100
AcDbEntity
 67
     1
  8
0
100
AcDbBlockEnd
  0
BLOCK
  5
75
330
74
100
AcDbEntity
 67
     1
  8
0
100
AcDbBlockBegin
  2
*Paper_Space0
 70
     0
 10
0.0
 20
0.0
 30
0.0
  3
*Paper_Space0
  1

  0
ENDBLK
  5
76
330
74
100
AcDbEntity
 67
     1
  8
0
100
AcDbBlockEnd
  0
BLOCK
  5
7B
330
79
100
AcDbEntity
  8
0
100
AcDbBlockBegin
  2
Block_0
 70
     0
 10
0.0
 20
0.0
 30
0.0
  3
Block_0
  1

  0
SPLINE
  5
7D
330
79
100
AcDbEntity
  8
Layer 1
100
AcDbSpline
210
0.0
220
0.0
230
1.0
 70
     9
 71
     3
 72
   131
 73
   127
 74
     0
 42
0.0000000001
 43
0.0000000001
 40
0.0
 40
0.0
 40
0.0
 40
0.0
 40
1.0
 40
1.0
 40
1.0
 40
2.0
 40
2.0
 40
2.0
 40
3.0
 40
3.0
 40
3.0
 40
4.0
 40
4.0
 40
4.0
 40
5.0
 40
5.0
 40
5.0
 40
6.0
 40
6.0
 40
6.0
 40
7.0
 40
7.0
 40
7.0
 40
8.0
 40
8.0
 40
8.0
 40
9.0
 40
9.0
 40
9.0
 40
10.0
 40
10.0
 40
10.0
 40
11.0
 40
11.0
 40
11.0
 40
12.0
 40
12.0
 40
12.0
 40
13.0
 40
13.0
 40
13.0
 40
14.0
 40
14.0
 40
14.0
 40
15.0
 40
15.0
 40
15.0
 40
16.0
 40
16.0
 40
16.0
 40
17.0
 40
17.0
 40
17.0
 40
18.0
 40
18.0
 40
18.0
 40
19.0
 40
19.0
 40
19.0
 40
20.0
 40
20.0
 40
20.0
 40
21.0
 40
21.0
 40
21.0
 40
22.0
 40
22.0
 40
22.0
 40
23.0
 40
23.0
 40
23.0
 40
24.0
 40
24.0
 40
24.0
 40
25.0
 40
25.0
 40
25.0
 40
26.0
 40
26.0
 40
26.0
 40
27.0
 40
27.0
 40
27.0
 40
28.0
 40
28.0
 40
28.0
 40
29.0
 40
29.0
 40
29.0
 40
30.0
 40
30.0
 40
30.0
 40
31.0
 40
31.0
 40
31.0
 40
32.0
 40
32.0
 40
32.0
 40
33.0
 40
33.0
 40
33.0
 40
34.0
 40
34.0
 40
34.0
 40
35.0
 40
35.0
 40
35.0
 40
36.0
 40
36.0
 40
36.0
 40
37.0
 40
37.0
 40
37.0
 40
38.0
 40
38.0
 40
38.0
 40
39.0
 40
39.0
 40
39.0
 40
40.0
 40
40.0
 40
40.0
 40
41.0
 40
41.0
 40
41.0
 40
42.0
 40
42.0
 40
42.0
 40
42.0
 10
-38.43209935946548
 20
-25.17839064870735
 30
0.0
 10
-42.39762878619351
 20
-27.57909162259374
 30
0.0
 10
-46.40196412700347
 20
-29.74827353679618
 30
0.0
 10
-50.3346974051049
 20
-31.63013142636832
 30
0.0
 10
-51.66096678730095
 20
-32.26390412053193
 30
0.0
 10
-52.98632039571493
 20
-32.85778341924015
 30
0.0
 10
-54.31075823034556
 20
-33.43271764779877
 30
0.0
 10
-60.40872414820584
 20
-36.0798762412109
 30
0.0
 10
-66.47521034225222
 20
-38.10986054029672
 30
0.0
 10
-72.39574508952703
 20
-39.45885255950516
 30
0.0
 10
-74.67854018876547
 20
-39.97855418173659
 30
0.0
 10
-76.97072196928527
 20
-40.43043130811137
 30
0.0
 10
-79.18832542229857
 20
-40.86559556293935
 30
0.0
 10
-84.46409819000997
 20
-41.90414026947476
 30
0.0
 10
-89.44739570556292
 20
-42.88596423729654
 30
0.0
 10
-94.55603975775417
 20
-44.75110925532219
 30
0.0
 10
-97.26489860984401
 20
-45.74134689477261
 30
0.0
 10
-100.0107318284497
 20
-46.8022135872872
 30
0.0
 10
-102.6664758010864
 20
-47.82776575327501
 30
0.0
 10
-109.7103788016151
 20
-50.5500750328131
 30
0.0
 10
-116.9950730713845
 20
-53.36453404933163
 30
0.0
 10
-124.4033968019521
 20
-55.16179733563544
 30
0.0
 10
-130.613773951758
 20
-56.66710049254342
 30
0.0
 10
-136.0289160421704
 20
-57.39788797191054
 30
0.0
 10
-140.9590986782701
 20
-57.39788797191054
 30
0.0
 10
-144.9185611036809
 20
-57.39788797191054
 30
0.0
 10
-148.6410670625683
 20
-56.91350087621584
 30
0.0
 10
-152.0226189946241
 20
-55.95857776329157
 30
0.0
 10
-156.3727161746303
 20
-54.73224219523951
 30
0.0
 10
-166.8392092198941
 20
-50.85228038142385
 30
0.0
 10
-170.0823076030323
 20
-41.35187144206656
 30
0.0
 10
-172.2528631779104
 20
-34.93824974814857
 30
0.0
 10
-172.6175700872553
 20
-29.3261018225248
 30
0.0
 10
-170.0974751063236
 20
-23.00457262972076
 30
0.0
 10
-170.0974751063236
 20
-23.00274108215311
 30
0.0
 10
-169.8988666669915
 20
-22.50438843625232
 30
0.0
 10
-169.8988666669915
 20
-22.50438843625232
 30
0.0
 10
-163.6556361326964
 20
-6.791141205051242
 30
0.0
 10
-148.1953141733683
 20
-1.192043055840597
 30
0.0
 10
-135.8093592775363
 20
-1.192043055840597
 30
0.0
 10
-135.6374799855142
 20
-1.192043055840597
 30
0.0
 10
-135.4642270328161
 20
-1.193931839272472
 30
0.0
 10
-135.2931490428546
 20
-1.194847613056457
 30
0.0
 10
-130.9439676366304
 20
-1.246016473221213
 30
0.0
 10
-126.6791518902273
 20
-2.12836451378522
 30
0.0
 10
-122.9156078186593
 20
-2.905627512668082
 30
0.0
 10
-116.0825617318225
 20
-4.320784187741515
 30
0.0
 10
-110.7903622718658
 20
-5.241251312057798
 30
0.0
 10
-105.7549228865057
 20
-5.890248745372449
 30
0.0
 10
-99.54855224700381
 20
-6.688402833694927
 30
0.0
 10
-93.46472358692947
 20
-7.092888666769992
 30
0.0
 10
-87.67462936796624
 20
-7.092888666769992
 30
0.0
 10
-81.87148537258511
 20
-7.092888666769992
 30
0.0
 10
-76.15671354732706
 20
-6.687029173019269
 30
0.0
 10
-70.6894868229695
 20
-5.886528414372604
 30
0.0
 10
-70.6894868229695
 20
-5.886528414372604
 30
0.0
 10
-70.60947108862173
 20
-5.880461413058517
 30
0.0
 10
-70.60947108862173
 20
-5.880461413058517
 30
0.0
 10
-70.39186034327771
 20
-5.880461413058517
 30
0.0
 10
-70.11913146332727
 20
-5.994360777395437
 30
0.0
 10
-70.00174071143426
 20
-6.247286049272337
 30
0.0
 10
-69.91588691921648
 20
-6.432272353573438
 30
0.0
 10
-69.93099718664581
 20
-6.651714646492801
 30
0.0
 10
-70.04214922964007
 20
-6.835327290118246
 30
0.0
 10
-72.90960865388877
 20
-11.49587178278051
 30
0.0
 10
-78.37901034098297
 20
-13.67524168033395
 30
0.0
 10
-82.82268815450761
 20
-15.05313780958289
 30
0.0
 10
-83.5668115896
 20
-15.28465686926459
 30
0.0
 10
-84.31511324257909
 20
-15.50226761460668
 30
0.0
 10
-85.06009521559414
 20
-15.70493980010345
 30
0.0
 10
-83.98182882118609
 20
-15.71054891453614
 30
0.0
 10
-82.90178811507331
 20
-15.71701656687735
 30
0.0
 10
-81.8226631827439
 20
-15.71701656687735
 30
0.0
 10
-77.10116249759749
 20
-15.71701656687735
 30
0.0
 10
-72.05439041166536
 20
-15.60449086320678
 30
0.0
 10
-67.1536270083668
 20
-14.78721999714747
 30
0.0
 10
-62.7970621760126
 20
-14.06129756600536
 30
0.0
 10
-58.48061968255432
 20
-12.77412027720467
 30
0.0
 10
-54.27664565690432
 20
-11.44796536672296
 30
0.0
 10
-53.65603721088486
 20
-11.2522187204687
 30
0.0
 10
-53.03771819932343
 20
-11.05567077215217
 30
0.0
 10
-52.42226098083664
 20
-10.85986689002245
 30
0.0
 10
-48.65368015345932
 20
-9.660489412733728
 30
0.0
 10
-44.75460156190777
 20
-8.421104068259566
 30
0.0
 10
-40.84041270292755
 20
-7.544765793145099
 30
0.0
 10
-40.79576873097304
 20
-7.534520573948479
 30
0.0
 10
-40.72084698829725
 20
-7.521985920282913
 30
0.0
 10
-40.63161628025022
 20
-7.521985920282913
 30
0.0
 10
-40.21327936869943
 20
-7.521985920282913
 30
0.0
 10
-40.02474444098604
 20
-7.794829271950896
 30
0.0
 10
-39.98851414067078
 20
-8.050101214153588
 30
0.0
 10
-39.57441268286804
 20
-11.30527636405699
 30
0.0
 10
-42.0912452196951
 20
-13.97040701798047
 30
0.0
 10
-44.01894903431595
 20
-15.6928630333302
 30
0.0
 10
-46.93048007190319
 20
-18.29045537070436
 30
0.0
 10
-50.25353695352652
 20
-20.33818278685072
 30
0.0
 10
-53.35984162772782
 20
-22.03637079694282
 30
0.0
 10
-54.09280406983159
 20
-22.43707906315286
 30
0.0
 10
-54.81741007615939
 20
-22.824279666069
 30
0.0
 10
-55.5174046620506
 20
-23.18778462231908
 30
0.0
 10
-60.73302253934624
 20
-25.89154948273373
 30
0.0
 10
-65.57569154324427
 20
-28.09415714004135
 30
0.0
 10
-70.25592517226414
 20
-29.88958887878681
 30
0.0
 10
-69.44363382615122
 20
-29.92209884810737
 30
0.0
 10
-68.63088459314505
 20
-29.95375027949918
 30
0.0
 10
-67.81779194497149
 20
-29.98351292746907
 30
0.0
 10
-67.35521171249621
 20
-29.9993100252412
 30
0.0
 10
-66.89354725380429
 20
-30.00766646101525
 30
0.0
 10
-66.43428670129563
 20
-30.00766646101525
 30
0.0
 10
-62.0903137584661
 20
-30.00766646101525
 30
0.0
 10
-57.80901408395702
 20
-29.26766400795657
 30
0.0
 10
-53.60240720867837
 20
-28.25836682662359
 30
0.0
 10
-50.88519192081257
 20
-27.60639312851708
 30
0.0
 10
-48.19848334711534
 20
-26.84469828394688
 30
0.0
 10
-45.54840572476467
 20
-26.08866978967327
 30
0.0
 10
-43.37327128096793
 20
-25.46846199467869
 30
0.0
 10
-41.12241379243537
 20
-24.8259894495807
 30
0.0
 10
-38.89004348716077
 20
-24.25603474096786
 30
0.0
 10
-38.84368243936226
 20
-24.24401521005979
 30
0.0
 10
-38.78982349371041
 20
-24.23840609562775
 30
0.0
 10
-38.7284094143439
 20
-24.23840609562775
 30
0.0
 10
-38.31591056066186
 20
-24.23840609562775
 30
0.0
 10
-38.20063753564222
 20
-24.47547703387727
 30
0.0
 10
-38.1694439911363
 20
-24.61776538551676
 30
0.0
 10
-38.150098269957
 20
-24.69955543156988
 30
0.0
 10
-38.11558504548446
 20
-24.985906446551
 30
0.0
 10
-38.43209935946548
 20
-25.17839064870735
 30
0.0
  0
SPLINE
  5
7E
330
79
100
AcDbEntity
  8
Layer 1
100
AcDbSpline
210
0.0
220
0.0
230
1.0
 70
     9
 71
     3
 72
    98
 73
    94
 74
     0
 42
0.0000000001
 43
0.0000000001
 40
0.0
 40
0.0
 40
0.0
 40
0.0
 40
1.0
 40
1.0
 40
1.0
 40
2.0
 40
2.0
 40
2.0
 40
3.0
 40
3.0
 40
3.0
 40
4.0
 40
4.0
 40
4.0
 40
5.0
 40
5.0
 40
5.0
 40
6.0
 40
6.0
 40
6.0
 40
7.0
 40
7.0
 40
7.0
 40
8.0
 40
8.0
 40
8.0
 40
9.0
 40
9.0
 40
9.0
 40
10.0
 40
10.0
 40
10.0
 40
11.0
 40
11.0
 40
11.0
 40
12.0
 40
12.0
 40
12.0
 40
13.0
 40
13.0
 40
13.0
 40
14.0
 40
14.0
 40
14.0
 40
15.0
 40
15.0
 40
15.0
 40
16.0
 40
16.0
 40
16.0
 40
17.0
 40
17.0
 40
17.0
 40
18.0
 40
18.0
 40
18.0
 40
19.0
 40
19.0
 40
19.0
 40
20.0
 40
20.0
 40
20.0
 40
21.0
 40
21.0
 40
21.0
 40
22.0
 40
22.0
 40
22.0
 40
23.0
 40
23.0
 40
23.0
 40
24.0
 40
24.0
 40
24.0
 40
25.0
 40
25.0
 40
25.0
 40
26.0
 40
26.0
 40
26.0
 40
27.0
 40
27.0
 40
27.0
 40
28.0
 40
28.0
 40
28.0
 40
29.0
 40
29.0
 40
29.0
 40
30.0
 40
30.0
 40
30.0
 40
31.0
 40
31.0
 40
31.0
 40
31.0
 10
-34.51006918746067
 20
-23.79362621608109
 30
0.0
 10
-34.94729393330068
 20
-21.84594708579562
 30
0.0
 10
-36.67885045063214
 20
-20.48739667772406
 30
0.0
 10
-38.7284094143439
 20
-20.48739667772406
 30
0.0
 10
-39.10753976078274
 20
-20.48739667772406
 30
0.0
 10
-39.47837090730567
 20
-20.53364325379893
 30
0.0
 10
-39.83048592712594
 20
-20.62481998113918
 30
0.0
 10
-42.07785202810913
 20
-21.1986094924723
 30
0.0
 10
-44.33094171523904
 20
-21.84102480171472
 30
0.0
 10
-46.50985372589182
 20
-22.46232007806896
 30
0.0
 10
-46.50985372589182
 20
-22.46232007806896
 30
0.0
 10
-46.57693415554689
 20
-22.48143685580548
 30
0.0
 10
-46.57693415554689
 20
-22.48143685580548
 30
0.0
 10
-46.69209270884256
 20
-22.51429024029695
 30
0.0
 10
-46.80736573386091
 20
-22.54714362477816
 30
0.0
 10
-46.92269599474189
 20
-22.58005424513482
 30
0.0
 10
-45.07832759443607
 20
-21.37850180509822
 30
0.0
 10
-43.24443335677895
 20
-20.0287657196911
 30
0.0
 10
-41.52180563383686
 20
-18.49186836725585
 30
0.0
 10
-40.04489146422729
 20
-17.17218110912563
 30
0.0
 10
-35.55697032977816
 20
-13.16206494630827
 30
0.0
 10
-36.267496314182
 20
-7.576760639717457
 30
0.0
 10
-36.267496314182
 20
-7.576760639717457
 30
0.0
 10
-36.27093046587002
 20
-7.54985978482028
 30
0.0
 10
-36.27093046587002
 20
-7.54985978482028
 30
0.0
 10
-36.27093046587002
 20
-7.54985978482028
 30
0.0
 10
-36.274708032728
 20
-7.522958929922461
 30
0.0
 10
-36.274708032728
 20
-7.522958929922461
 30
0.0
 10
-36.58332379782374
 20
-5.348911967494689
 30
0.0
 10
-38.41561543135888
 20
-3.770976502379221
 30
0.0
 10
-40.63161628025022
 20
-3.770976502379221
 30
0.0
 10
-40.98596349866848
 20
-3.770976502379221
 30
0.0
 10
-41.33825022607404
 20
-3.81058371851828
 30
0.0
 10
-41.67868913015236
 20
-3.888596197715024
 30
0.0
 10
-45.75124961784673
 20
-4.800363471077353
 30
0.0
 10
-49.72090002660142
 20
-6.063730641512401
 30
0.0
 10
-53.55982372773783
 20
-7.285544576511004
 30
0.0
 10
-54.05531458056366
 20
-7.443172139022295
 30
0.0
 10
-54.5534382830175
 20
-7.601314824290767
 30
0.0
 10
-55.05224881580804
 20
-7.759114094387999
 30
0.0
 10
-57.24976248144209
 20
1.358959290287129
 30
0.0
 10
-61.56763587143768
 20
9.284466265176355
 30
0.0
 10
-67.99516587969562
 20
15.89778387979959
 30
0.0
 10
-77.73951406067492
 20
25.92024111170255
 30
0.0
 10
-90.54174537704563
 20
31.0020987807267
 30
0.0
 10
-106.0464823648821
 20
31.0020987807267
 30
0.0
 10
-118.6186255181068
 20
31.0020987807267
 30
0.0
 10
-132.2797381718343
 20
27.33991941983874
 30
0.0
 10
-139.3448184411097
 20
21.03058146553801
 30
0.0
 10
-140.3096433580641
 20
44.62463446381407
 30
0.0
 10
-129.4932674915787
 20
50.6764110414637
 30
0.0
 10
-119.3470090912913
 20
50.6764110414637
 30
0.0
 10
-114.7107326038873
 20
50.6764110414637
 30
0.0
 10
-107.2062526260366
 20
50.73919878150972
 30
0.0
 10
-105.3650321981095
 20
37.41755202221235
 30
0.0
 10
-105.3650321981095
 20
37.41755202221235
 30
0.0
 10
-57.83259525888628
 20
42.74420747077282
 30
0.0
 10
-57.83259525888628
 20
42.74420747077282
 30
0.0
 10
-60.37495498993262
 20
58.3024599890935
 30
0.0
 10
-67.14990667737017
 20
70.55574215802071
 30
0.0
 10
-78.05986317737461
 20
79.11513629879461
 30
0.0
 10
-89.24867279450621
 20
87.8925990718103
 30
0.0
 10
-103.0177322829846
 20
92.34251559422855
 30
0.0
 10
-118.9826455971138
 20
92.34251559422855
 30
0.0
 10
-141.5437057674191
 20
92.34251559422855
 30
0.0
 10
-159.1860877097818
 20
83.58834781684121
 30
0.0
 10
-171.4203675726942
 20
66.32166206923213
 30
0.0
 10
-183.4246165083207
 20
49.37395177763683
 30
0.0
 10
-189.511192489747
 20
27.53360557508417
 30
0.0
 10
-189.511192489747
 20
1.406465055317549
 30
0.0
 10
-189.511192489747
 20
-13.96142098773041
 30
0.0
 10
-186.7416636244893
 20
-28.32310058595832
 30
0.0
 10
-181.2811907317838
 20
-41.28112791727331
 30
0.0
 10
-175.730456885526
 20
-54.45607916359881
 30
0.0
 10
-167.3432282160819
 20
-64.57606630347178
 30
0.0
 10
-156.3524546796671
 20
-71.36303752182058
 30
0.0
 10
-145.4228090433133
 20
-78.11068770332709
 30
0.0
 10
-132.8099139567161
 20
-81.53259091772286
 30
0.0
 10
-118.8632515900682
 20
-81.53259091772286
 30
0.0
 10
-99.79392238516636
 20
-81.53259091772286
 30
0.0
 10
-83.95424113595348
 20
-75.80419695743862
 30
0.0
 10
-71.78400820203687
 20
-64.50618131660725
 30
0.0
 10
-63.52779241951583
 20
-56.84155539833255
 30
0.0
 10
-58.02988727340567
 20
-47.93886056040441
 30
0.0
 10
-55.31988370408651
 20
-37.92773602906736
 30
0.0
 10
-53.12231280258984
 20
-37.03256715553174
 30
0.0
 10
-50.92027750389849
 20
-36.06716987996036
 30
0.0
 10
-48.71744090314713
 20
-35.01460238736457
 30
0.0
 10
-44.66216564561936
 20
-33.07407773977177
 30
0.0
 10
-40.54873875282846
 20
-30.84462646343281
 30
0.0
 10
-36.48951422085936
 20
-28.38720475081481
 30
0.0
 10
-34.89543824280019
 20
-27.41785820080272
 30
0.0
 10
-34.10592676955589
 20
-25.57749631080054
 30
0.0
 10
-34.51006918746067
 20
-23.79362621608109
 30
0.0
  0
HATCH
  5
7F
330
79
100
AcDbEntity
  8
Layer 1
 62
     7
440
 33554687
100
AcDbHatch
 10
0.0
 20
0.0
 30
0.0
210
0.0
220
0.0
230
1.0
  2
SOLID
 70
     1
 71
     1
 91
        2
 92
        1
 93
        1
 72
     4
 94
        3
 73
     0
 74
     0
 95
      131
 96
      127
 40
0.0
 40
0.0
 40
0.0
 40
0.0
 40
1.0
 40
1.0
 40
1.0
 40
2.0
 40
2.0
 40
2.0
 40
3.0
 40
3.0
 40
3.0
 40
4.0
 40
4.0
 40
4.0
 40
5.0
 40
5.0
 40
5.0
 40
6.0
 40
6.0
 40
6.0
 40
7.0
 40
7.0
 40
7.0
 40
8.0
 40
8.0
 40
8.0
 40
9.0
 40
9.0
 40
9.0
 40
10.0
 40
10.0
 40
10.0
 40
11.0
 40
11.0
 40
11.0
 40
12.0
 40
12.0
 40
12.0
 40
13.0
 40
13.0
 40
13.0
 40
14.0
 40
14.0
 40
14.0
 40
15.0
 40
15.0
 40
15.0
 40
16.0
 40
16.0
 40
16.0
 40
17.0
 40
17.0
 40
17.0
 40
18.0
 40
18.0
 40
18.0
 40
19.0
 40
19.0
 40
19.0
 40
20.0
 40
20.0
 40
20.0
 40
21.0
 40
21.0
 40
21.0
 40
22.0
 40
22.0
 40
22.0
 40
23.0
 40
23.0
 40
23.0
 40
24.0
 40
24.0
 40
24.0
 40
25.0
 40
25.0
 40
25.0
 40
26.0
 40
26.0
 40
26.0
 40
27.0
 40
27.0
 40
27.0
 40
28.0
 40
28.0
 40
28.0
 40
29.0
 40
29.0
 40
29.0
 40
30.0
 40
30.0
 40
30.0
 40
31.0
 40
31.0
 40
31.0
 40
32.0
 40
32.0
 40
32.0
 40
33.0
 40
33.0
 40
33.0
 40
34.0
 40
34.0
 40
34.0
 40
35.0
 40
35.0
 40
35.0
 40
36.0
 40
36.0
 40
36.0
 40
37.0
 40
37.0
 40
37.0
 40
38.0
 40
38.0
 40
38.0
 40
39.0
 40
39.0
 40
39.0
 40
40.0
 40
40.0
 40
40.0
 40
41.0
 40
41.0
 40
41.0
 40
42.0
 40
42.0
 40
42.0
 40
42.0
 10
-38.43209935946548
 20
-25.17839064870735
 10
-42.39762878619351
 20
-27.57909162259374
 10
-46.40196412700347
 20
-29.74827353679618
 10
-50.3346974051049
 20
-31.63013142636832
 10
-51.66096678730095
 20
-32.26390412053193
 10
-52.98632039571493
 20
-32.85778341924015
 10
-54.31075823034556
 20
-33.43271764779877
 10
-60.40872414820584
 20
-36.0798762412109
 10
-66.47521034225222
 20
-38.10986054029672
 10
-72.39574508952703
 20
-39.45885255950516
 10
-74.67854018876547
 20
-39.97855418173659
 10
-76.97072196928527
 20
-40.43043130811137
 10
-79.18832542229857
 20
-40.86559556293935
 10
-84.46409819000997
 20
-41.90414026947476
 10
-89.44739570556292
 20
-42.88596423729654
 10
-94.55603975775417
 20
-44.75110925532219
 10
-97.26489860984401
 20
-45.74134689477261
 10
-100.0107318284497
 20
-46.8022135872872
 10
-102.6664758010864
 20
-47.82776575327501
 10
-109.7103788016151
 20
-50.5500750328131
 10
-116.9950730713845
 20
-53.36453404933163
 10
-124.4033968019521
 20
-55.16179733563544
 10
-130.613773951758
 20
-56.66710049254342
 10
-136.0289160421704
 20
-57.39788797191054
 10
-140.9590986782701
 20
-57.39788797191054
 10
-144.9185611036809
 20
-57.39788797191054
 10
-148.6410670625683
 20
-56.91350087621584
 10
-152.0226189946241
 20
-55.95857776329157
 10
-156.3727161746303
 20
-54.73224219523951
 10
-166.8392092198941
 20
-50.85228038142385
 10
-170.0823076030323
 20
-41.35187144206656
 10
-172.2528631779104
 20
-34.93824974814857
 10
-172.6175700872553
 20
-29.3261018225248
 10
-170.0974751063236
 20
-23.00457262972076
 10
-170.0974751063236
 20
-23.00274108215311
 10
-169.8988666669915
 20
-22.50438843625232
 10
-169.8988666669915
 20
-22.50438843625232
 10
-163.6556361326964
 20
-6.791141205051242
 10
-148.1953141733683
 20
-1.192043055840597
 10
-135.8093592775363
 20
-1.192043055840597
 10
-135.6374799855142
 20
-1.192043055840597
 10
-135.4642270328161
 20
-1.193931839272472
 10
-135.2931490428546
 20
-1.194847613056457
 10
-130.9439676366304
 20
-1.246016473221213
 10
-126.6791518902273
 20
-2.12836451378522
 10
-122.9156078186593
 20
-2.905627512668082
 10
-116.0825617318225
 20
-4.320784187741515
 10
-110.7903622718658
 20
-5.241251312057798
 10
-105.7549228865057
 20
-5.890248745372449
 10
-99.54855224700381
 20
-6.688402833694927
 10
-93.46472358692947
 20
-7.092888666769992
 10
-87.67462936796624
 20
-7.092888666769992
 10
-81.87148537258511
 20
-7.092888666769992
 10
-76.15671354732706
 20
-6.687029173019269
 10
-70.6894868229695
 20
-5.886528414372604
 10
-70.6894868229695
 20
-5.886528414372604
 10
-70.60947108862173
 20
-5.880461413058517
 10
-70.60947108862173
 20
-5.880461413058517
 10
-70.39186034327771
 20
-5.880461413058517
 10
-70.11913146332727
 20
-5.994360777395437
 10
-70.00174071143426
 20
-6.247286049272337
 10
-69.91588691921648
 20
-6.432272353573438
 10
-69.93099718664581
 20
-6.651714646492801
 10
-70.04214922964007
 20
-6.835327290118246
 10
-72.90960865388877
 20
-11.49587178278051
 10
-78.37901034098297
 20
-13.67524168033395
 10
-82.82268815450761
 20
-15.05313780958289
 10
-83.5668115896
 20
-15.28465686926459
 10
-84.31511324257909
 20
-15.50226761460668
 10
-85.06009521559414
 20
-15.70493980010345
 10
-83.98182882118609
 20
-15.71054891453614
 10
-82.90178811507331
 20
-15.71701656687735
 10
-81.8226631827439
 20
-15.71701656687735
 10
-77.10116249759749
 20
-15.71701656687735
 10
-72.05439041166536
 20
-15.60449086320678
 10
-67.1536270083668
 20
-14.78721999714747
 10
-62.7970621760126
 20
-14.06129756600536
 10
-58.48061968255432
 20
-12.77412027720467
 10
-54.27664565690432
 20
-11.44796536672296
 10
-53.65603721088486
 20
-11.2522187204687
 10
-53.03771819932343
 20
-11.05567077215217
 10
-52.42226098083664
 20
-10.85986689002245
 10
-48.65368015345932
 20
-9.660489412733728
 10
-44.75460156190777
 20
-8.421104068259566
 10
-40.84041270292755
 20
-7.544765793145099
 10
-40.79576873097304
 20
-7.534520573948479
 10
-40.72084698829725
 20
-7.521985920282913
 10
-40.63161628025022
 20
-7.521985920282913
 10
-40.21327936869943
 20
-7.521985920282913
 10
-40.02474444098604
 20
-7.794829271950896
 10
-39.98851414067078
 20
-8.050101214153588
 10
-39.57441268286804
 20
-11.30527636405699
 10
-42.0912452196951
 20
-13.97040701798047
 10
-44.01894903431595
 20
-15.6928630333302
 10
-46.93048007190319
 20
-18.29045537070436
 10
-50.25353695352652
 20
-20.33818278685072
 10
-53.35984162772782
 20
-22.03637079694282
 10
-54.09280406983159
 20
-22.43707906315286
 10
-54.81741007615939
 20
-22.824279666069
 10
-55.5174046620506
 20
-23.18778462231908
 10
-60.73302253934624
 20
-25.89154948273373
 10
-65.57569154324427
 20
-28.09415714004135
 10
-70.25592517226414
 20
-29.88958887878681
 10
-69.44363382615122
 20
-29.92209884810737
 10
-68.63088459314505
 20
-29.95375027949918
 10
-67.81779194497149
 20
-29.98351292746907
 10
-67.35521171249621
 20
-29.9993100252412
 10
-66.89354725380429
 20
-30.00766646101525
 10
-66.43428670129563
 20
-30.00766646101525
 10
-62.0903137584661
 20
-30.00766646101525
 10
-57.80901408395702
 20
-29.26766400795657
 10
-53.60240720867837
 20
-28.25836682662359
 10
-50.88519192081257
 20
-27.60639312851708
 10
-48.19848334711534
 20
-26.84469828394688
 10
-45.54840572476467
 20
-26.08866978967327
 10
-43.37327128096793
 20
-25.46846199467869
 10
-41.12241379243537
 20
-24.8259894495807
 10
-38.89004348716077
 20
-24.25603474096786
 10
-38.84368243936226
 20
-24.24401521005979
 10
-38.78982349371041
 20
-24.23840609562775
 10
-38.7284094143439
 20
-24.23840609562775
 10
-38.31591056066186
 20
-24.23840609562775
 10
-38.20063753564222
 20
-24.47547703387727
 10
-38.1694439911363
 20
-24.61776538551676
 10
-38.150098269957
 20
-24.69955543156988
 10
-38.11558504548446
 20
-24.985906446551
 10
-38.43209935946548
 20
-25.17839064870735
 97
        0
 97
        1
330
7D
 92
        1
 93
        1
 72
     4
 94
        3
 73
     0
 74
     0
 95
       98
 96
       94
 40
0.0
 40
0.0
 40
0.0
 40
0.0
 40
1.0
 40
1.0
 40
1.0
 40
2.0
 40
2.0
 40
2.0
 40
3.0
 40
3.0
 40
3.0
 40
4.0
 40
4.0
 40
4.0
 40
5.0
 40
5.0
 40
5.0
 40
6.0
 40
6.0
 40
6.0
 40
7.0
 40
7.0
 40
7.0
 40
8.0
 40
8.0
 40
8.0
 40
9.0
 40
9.0
 40
9.0
 40
10.0
 40
10.0
 40
10.0
 40
11.0
 40
11.0
 40
11.0
 40
12.0
 40
12.0
 40
12.0
 40
13.0
 40
13.0
 40
13.0
 40
14.0
 40
14.0
 40
14.0
 40
15.0
 40
15.0
 40
15.0
 40
16.0
 40
16.0
 40
16.0
 40
17.0
 40
17.0
 40
17.0
 40
18.0
 40
18.0
 40
18.0
 40
19.0
 40
19.0
 40
19.0
 40
20.0
 40
20.0
 40
20.0
 40
21.0
 40
21.0
 40
21.0
 40
22.0
 40
22.0
 40
22.0
 40
23.0
 40
23.0
 40
23.0
 40
24.0
 40
24.0
 40
24.0
 40
25.0
 40
25.0
 40
25.0
 40
26.0
 40
26.0
 40
26.0
 40
27.0
 40
27.0
 40
27.0
 40
28.0
 40
28.0
 40
28.0
 40
29.0
 40
29.0
 40
29.0
 40
30.0
 40
30.0
 40
30.0
 40
31.0
 40
31.0
 40
31.0
 40
31.0
 10
-34.51006918746067
 20
-23.79362621608109
 10
-34.94729393330068
 20
-21.84594708579562
 10
-36.67885045063214
 20
-20.48739667772406
 10
-38.7284094143439
 20
-20.48739667772406
 10
-39.10753976078274
 20
-20.48739667772406
 10
-39.47837090730567
 20
-20.53364325379893
 10
-39.83048592712594
 20
-20.62481998113918
 10
-42.07785202810913
 20
-21.1986094924723
 10
-44.33094171523904
 20
-21.84102480171472
 10
-46.50985372589182
 20
-22.46232007806896
 10
-46.50985372589182
 20
-22.46232007806896
 10
-46.57693415554689
 20
-22.48143685580548
 10
-46.57693415554689
 20
-22.48143685580548
 10
-46.69209270884256
 20
-22.51429024029695
 10
-46.80736573386091
 20
-22.54714362477816
 10
-46.92269599474189
 20
-22.58005424513482
 10
-45.07832759443607
 20
-21.37850180509822
 10
-43.24443335677895
 20
-20.0287657196911
 10
-41.52180563383686
 20
-18.49186836725585
 10
-40.04489146422729
 20
-17.17218110912563
 10
-35.55697032977816
 20
-13.16206494630827
 10
-36.267496314182
 20
-7.576760639717457
 10
-36.267496314182
 20
-7.576760639717457
 10
-36.27093046587002
 20
-7.54985978482028
 10
-36.27093046587002
 20
-7.54985978482028
 10
-36.27093046587002
 20
-7.54985978482028
 10
-36.274708032728
 20
-7.522958929922461
 10
-36.274708032728
 20
-7.522958929922461
 10
-36.58332379782374
 20
-5.348911967494689
 10
-38.41561543135888
 20
-3.770976502379221
 10
-40.63161628025022
 20
-3.770976502379221
 10
-40.98596349866848
 20
-3.770976502379221
 10
-41.33825022607404
 20
-3.81058371851828
 10
-41.67868913015236
 20
-3.888596197715024
 10
-45.75124961784673
 20
-4.800363471077353
 10
-49.72090002660142
 20
-6.063730641512401
 10
-53.55982372773783
 20
-7.285544576511004
 10
-54.05531458056366
 20
-7.443172139022295
 10
-54.5534382830175
 20
-7.601314824290767
 10
-55.05224881580804
 20
-7.759114094387999
 10
-57.24976248144209
 20
1.358959290287129
 10
-61.56763587143768
 20
9.284466265176355
 10
-67.99516587969562
 20
15.89778387979959
 10
-77.73951406067492
 20
25.92024111170255
 10
-90.54174537704563
 20
31.0020987807267
 10
-106.0464823648821
 20
31.0020987807267
 10
-118.6186255181068
 20
31.0020987807267
 10
-132.2797381718343
 20
27.33991941983874
 10
-139.3448184411097
 20
21.03058146553801
 10
-140.3096433580641
 20
44.62463446381407
 10
-129.4932674915787
 20
50.6764110414637
 10
-119.3470090912913
 20
50.6764110414637
 10
-114.7107326038873
 20
50.6764110414637
 10
-107.2062526260366
 20
50.73919878150972
 10
-105.3650321981095
 20
37.41755202221235
 10
-105.3650321981095
 20
37.41755202221235
 10
-57.83259525888628
 20
42.74420747077282
 10
-57.83259525888628
 20
42.74420747077282
 10
-60.37495498993262
 20
58.3024599890935
 10
-67.14990667737017
 20
70.55574215802071
 10
-78.05986317737461
 20
79.11513629879461
 10
-89.24867279450621
 20
87.8925990718103
 10
-103.0177322829846
 20
92.34251559422855
 10
-118.9826455971138
 20
92.34251559422855
 10
-141.5437057674191
 20
92.34251559422855
 10
-159.1860877097818
 20
83.58834781684121
 10
-171.4203675726942
 20
66.32166206923213
 10
-183.4246165083207
 20
49.37395177763683
 10
-189.511192489747
 20
27.53360557508417
 10
-189.511192489747
 20
1.406465055317549
 10
-189.511192489747
 20
-13.96142098773041
 10
-186.7416636244893
 20
-28.32310058595832
 10
-181.2811907317838
 20
-41.28112791727331
 10
-175.730456885526
 20
-54.45607916359881
 10
-167.3432282160819
 20
-64.57606630347178
 10
-156.3524546796671
 20
-71.36303752182058
 10
-145.4228090433133
 20
-78.11068770332709
 10
-132.8099139567161
 20
-81.53259091772286
 10
-118.8632515900682
 20
-81.53259091772286
 10
-99.79392238516636
 20
-81.53259091772286
 10
-83.95424113595348
 20
-75.80419695743862
 10
-71.78400820203687
 20
-64.50618131660725
 10
-63.52779241951583
 20
-56.84155539833255
 10
-58.02988727340567
 20
-47.93886056040441
 10
-55.31988370408651
 20
-37.92773602906736
 10
-53.12231280258984
 20
-37.03256715553174
 10
-50.92027750389849
 20
-36.06716987996036
 10
-48.71744090314713
 20
-35.01460238736457
 10
-44.66216564561936
 20
-33.07407773977177
 10
-40.54873875282846
 20
-30.84462646343281
 10
-36.48951422085936
 20
-28.38720475081481
 10
-34.89543824280019
 20
-27.41785820080272
 10
-34.10592676955589
 20
-25.57749631080054
 10
-34.51006918746067
 20
-23.79362621608109
 97
        0
 97
        1
330
7E
 75
     2
 76
     1
 98
        1
 10
0.0
 20
0.0
450
        0
451
        0
460
0.0
461
0.0
452
        0
462
0.0
453
        0
470

  0
SPLINE
  5
80
330
79
100
AcDbEntity
  8
Layer 1
100
AcDbSpline
210
0.0
220
0.0
230
1.0
 70
     9
 71
     3
 72
    86
 73
    82
 74
     0
 42
0.0000000001
 43
0.0000000001
 40
0.0
 40
0.0
 40
0.0
 40
0.0
 40
1.0
 40
1.0
 40
1.0
 40
2.0
 40
2.0
 40
2.0
 40
3.0
 40
3.0
 40
3.0
 40
4.0
 40
4.0
 40
4.0
 40
5.0
 40
5.0
 40
5.0
 40
6.0
 40
6.0
 40
6.0
 40
7.0
 40
7.0
 40
7.0
 40
8.0
 40
8.0
 40
8.0
 40
9.0
 40
9.0
 40
9.0
 40
10.0
 40
10.0
 40
10.0
 40
11.0
 40
11.0
 40
11.0
 40
12.0
 40
12.0
 40
12.0
 40
13.0
 40
13.0
 40
13.0
 40
14.0
 40
14.0
 40
14.0
 40
15.0
 40
15.0
 40
15.0
 40
16.0
 40
16.0
 40
16.0
 40
17.0
 40
17.0
 40
17.0
 40
18.0
 40
18.0
 40
18.0
 40
19.0
 40
19.0
 40
19.0
 40
20.0
 40
20.0
 40
20.0
 40
21.0
 40
21.0
 40
21.0
 40
22.0
 40
22.0
 40
22.0
 40
23.0
 40
23.0
 40
23.0
 40
24.0
 40
24.0
 40
24.0
 40
25.0
 40
25.0
 40
25.0
 40
26.0
 40
26.0
 40
26.0
 40
27.0
 40
27.0
 40
27.0
 40
27.0
 10
-116.7701361357724
 20
-43.30487350745942
 30
0.0
 10
-116.8676660437328
 20
-43.33457891956379
 30
0.0
 10
-119.4567874736077
 20
-44.10577491714188
 30
0.0
 10
-123.3279922006174
 20
-44.95704388491654
 30
0.0
 10
-123.2816883886815
 20
-44.89637387175418
 30
0.0
 10
-123.228802452675
 20
-44.83942418958043
 30
0.0
 10
-123.1832999427991
 20
-44.7783535253813
 30
0.0
 10
-122.4447856221314
 20
-43.7879441783443
 30
0.0
 10
-121.8209719678686
 20
-42.74390482909791
 30
0.0
 10
-121.2965770049968
 20
-41.66186086783894
 30
0.0
 10
-119.8696297424578
 20
-38.71724750231006
 30
0.0
 10
-119.2363149351903
 20
-35.47014260887369
 30
0.0
 10
-119.4680057024583
 20
-32.09626028225557
 30
0.0
 10
-119.4167223705725
 20
-31.3842461654534
 30
0.0
 10
-119.3846702881439
 20
-30.68138978648819
 30
0.0
 10
-119.3736810027393
 20
-29.99776465698089
 30
0.0
 10
-119.3471235630147
 20
-27.66620460376162
 30
0.0
 10
-119.5348571886661
 20
-25.6121240069948
 30
0.0
 10
-119.9478711651002
 20
-23.71693016169417
 30
0.0
 10
-120.1053842558904
 20
-22.99804774151468
 30
0.0
 10
-120.2976967504605
 20
-22.29564924944114
 30
0.0
 10
-120.5193140061091
 20
-21.62942382182313
 30
0.0
 10
-120.5193140061091
 20
-21.62942382182313
 30
0.0
 10
-120.6072282893402
 20
-21.41055388752582
 30
0.0
 10
-120.6072282893402
 20
-21.41055388752582
 30
0.0
 10
-122.340559118377
 20
-17.79553687649704
 30
0.0
 10
-125.212368468099
 20
-15.07631833348022
 30
0.0
 10
-128.4676580897325
 20
-13.02738896424447
 30
0.0
 10
-129.4304797515356
 20
-12.42131842704159
 30
0.0
 10
-130.4258113826586
 20
-11.8742008271651
 30
0.0
 10
-131.4367684039682
 20
-11.38054152190274
 30
0.0
 10
-129.3436529496718
 20
-11.36663320756248
 30
0.0
 10
-127.2407501630622
 20
-11.42758940004149
 30
0.0
 10
-125.1583950507251
 20
-11.54841430362092
 30
0.0
 10
-116.9800772756785
 20
-12.02301406701035
 30
0.0
 10
-109.1498680101481
 20
-13.3930116473782
 30
0.0
 10
-103.6738841989826
 20
-14.55461345609616
 30
0.0
 10
-102.332619021078
 20
-14.83913292351027
 30
0.0
 10
-101.124885108005
 20
-15.11169009587252
 30
0.0
 10
-100.0966428565307
 20
-15.35454185613008
 30
0.0
 10
-100.0966428565307
 20
-15.35454185613008
 30
0.0
 10
-101.8322631200268
 20
-16.39108330752153
 30
0.0
 10
-101.8322631200268
 20
-16.39108330752153
 30
0.0
 10
-101.8322631200268
 20
-16.39108330752153
 30
0.0
 10
-105.3238796137057
 20
-18.47641468465432
 30
0.0
 10
-105.3238796137057
 20
-18.47641468465432
 30
0.0
 10
-106.1434971500892
 20
-18.96635365891651
 30
0.0
 10
-106.5427745197687
 20
-19.9187583939313
 30
0.0
 10
-106.317494168986
 20
-20.84643723678716
 30
0.0
 10
-106.0931295919873
 20
-21.77274241896672
 30
0.0
 10
-105.3028168166824
 20
-22.43530475145071
 30
0.0
 10
-104.3522436292346
 20
-22.49528793428087
 30
0.0
 10
-103.1805683088922
 20
-22.56975179006467
 30
0.0
 10
-101.2160045994794
 20
-22.68920303297775
 30
0.0
 10
-98.88009462078782
 20
-22.81168777653824
 30
0.0
 10
-95.19662351943024
 20
-23.00480157317157
 30
0.0
 10
-90.58272625386484
 20
-23.20535603179496
 30
0.0
 10
-86.64484174823073
 20
-23.24851187134792
 30
0.0
 10
-90.61540793077005
 20
-25.58218965144026
 30
0.0
 10
-95.83348695010965
 20
-28.45073655705887
 30
0.0
 10
-99.84852539701689
 20
-29.98614577709963
 30
0.0
 10
-100.234008924079
 20
-30.13358535627018
 30
0.0
 10
-100.6232127821379
 20
-30.28491697402524
 30
0.0
 10
-100.9840276529041
 20
-30.40574187760467
 30
0.0
 10
-102.0069469692616
 20
-30.74778338580431
 30
0.0
 10
-102.6150207616165
 20
-31.76566594635188
 30
0.0
 10
-102.4300344573151
 20
-32.82658987473103
 30
0.0
 10
-102.3740005489266
 20
-33.14842712382488
 30
0.0
 10
-102.2479671819496
 20
-33.43632350706855
 30
0.0
 10
-102.0772898430201
 20
-33.68798958999087
 30
0.0
 10
-101.6843084181026
 20
-34.26738821574737
 30
0.0
 10
-101.0272979641807
 20
-34.63261024784467
 30
0.0
 10
-100.2477455308363
 20
-34.61921705626063
 30
0.0
 10
-97.5489601903658
 20
-34.55923387343048
 30
0.0
 10
-95.29798823010992
 20
-34.5074926546533
 30
0.0
 10
-93.41882042602231
 20
-34.46261973925376
 30
0.0
 10
-101.5188395425658
 20
-38.04604255474629
 30
0.0
 10
-112.9934850519258
 20
-42.86804941264974
 30
0.0
 10
-116.4047423960889
 20
-43.22932217030698
 30
0.0
 10
-116.4047423960889
 20
-43.22932217030698
 30
0.0
 10
-116.7701361357724
 20
-43.30487350745942
 30
0.0
 10
-116.7701361357724
 20
-43.30487350745942
 30
0.0
  0
SPLINE
  5
81
330
79
100
AcDbEntity
  8
Layer 1
100
AcDbSpline
210
0.0
220
0.0
230
1.0
 70
     9
 71
     3
 72
   128
 73
   124
 74
     0
 42
0.0000000001
 43
0.0000000001
 40
0.0
 40
0.0
 40
0.0
 40
0.0
 40
1.0
 40
1.0
 40
1.0
 40
2.0
 40
2.0
 40
2.0
 40
3.0
 40
3.0
 40
3.0
 40
4.0
 40
4.0
 40
4.0
 40
5.0
 40
5.0
 40
5.0
 40
6.0
 40
6.0
 40
6.0
 40
7.0
 40
7.0
 40
7.0
 40
8.0
 40
8.0
 40
8.0
 40
9.0
 40
9.0
 40
9.0
 40
10.0
 40
10.0
 40
10.0
 40
11.0
 40
11.0
 40
11.0
 40
12.0
 40
12.0
 40
12.0
 40
13.0
 40
13.0
 40
13.0
 40
14.0
 40
14.0
 40
14.0
 40
15.0
 40
15.0
 40
15.0
 40
16.0
 40
16.0
 40
16.0
 40
17.0
 40
17.0
 40
17.0
 40
18.0
 40
18.0
 40
18.0
 40
19.0
 40
19.0
 40
19.0
 40
20.0
 40
20.0
 40
20.0
 40
21.0
 40
21.0
 40
21.0
 40
22.0
 40
22.0
 40
22.0
 40
23.0
 40
23.0
 40
23.0
 40
24.0
 40
24.0
 40
24.0
 40
25.0
 40
25.0
 40
25.0
 40
26.0
 40
26.0
 40
26.0
 40
27.0
 40
27.0
 40
27.0
 40
28.0
 40
28.0
 40
28.0
 40
29.0
 40
29.0
 40
29.0
 40
30.0
 40
30.0
 40
30.0
 40
31.0
 40
31.0
 40
31.0
 40
32.0
 40
32.0
 40
32.0
 40
33.0
 40
33.0
 40
33.0
 40
34.0
 40
34.0
 40
34.0
 40
35.0
 40
35.0
 40
35.0
 40
36.0
 40
36.0
 40
36.0
 40
37.0
 40
37.0
 40
37.0
 40
38.0
 40
38.0
 40
38.0
 40
39.0
 40
39.0
 40
39.0
 40
40.0
 40
40.0
 40
40.0
 40
41.0
 40
41.0
 40
41.0
 40
41.0
 10
-150.8838542946329
 20
-48.09969333115965
 30
0.0
 10
-151.5346832755123
 20
-47.78695658403693
 30
0.0
 10
-152.174351263405
 20
-47.45756420122136
 30
0.0
 10
-152.7856874998645
 20
-47.09434542427732
 30
0.0
 10
-152.7856874998645
 20
-47.09434542427732
 30
0.0
 10
-152.8827595209342
 20
-47.04031477104114
 30
0.0
 10
-152.8827595209342
 20
-47.04031477104114
 30
0.0
 10
-153.5384535500396
 20
-46.70102058419153
 30
0.0
 10
-154.1703374607703
 20
-46.33150586248196
 30
0.0
 10
-154.7582642298858
 20
-45.94230200442281
 30
0.0
 10
-157.7207924200509
 20
-43.9797987860224
 30
0.0
 10
-160.1714030651475
 20
-41.15463666340692
 30
0.0
 10
-161.8454375416912
 20
-37.7717683065381
 30
0.0
 10
-162.0343158845732
 20
-37.3900051104687
 30
0.0
 10
-162.2103161586227
 20
-36.99834011036493
 30
0.0
 10
-162.3779599968955
 20
-36.60249689237927
 30
0.0
 10
-162.5752520114142
 20
-36.13671145166293
 30
0.0
 10
-162.7598376646838
 20
-35.66457283031812
 30
0.0
 10
-162.9242190588526
 20
-35.18608102835125
 30
0.0
 10
-163.7224303830421
 20
-32.00113428047462
 30
0.0
 10
-163.328361476758
 20
-28.55868339181112
 30
0.0
 10
-162.1603492515509
 20
-25.25611694859869
 30
0.0
 10
-161.2560798760415
 20
-22.69939101631881
 30
0.0
 10
-159.8845941632744
 20
-20.23120896174733
 30
0.0
 10
-158.2349993995813
 20
-18.02917366305277
 30
0.0
 10
-157.8267359996499
 20
-17.48417379004966
 30
0.0
 10
-157.4067964839765
 20
-16.95090726864856
 30
0.0
 10
-156.9672823036778
 20
-16.4418515166505
 30
0.0
 10
-156.9797024856185
 20
-16.50486820013801
 30
0.0
 10
-156.9870286758865
 20
-16.56943025188585
 30
0.0
 10
-156.9975028385384
 20
-16.63307652985098
 30
0.0
 10
-157.139733954314
 20
-17.49974194437195
 30
0.0
 10
-157.0991537285261
 20
-18.41654597354395
 30
0.0
 10
-156.8812568038735
 20
-19.32590934072621
 30
0.0
 10
-156.7455505763065
 20
-19.89237266179002
 30
0.0
 10
-156.5492315714331
 20
-20.4553445952955
 30
0.0
 10
-156.2775329369906
 20
-20.99845568487539
 30
0.0
 10
-155.4139582589912
 20
-22.72423138019817
 30
0.0
 10
-153.9880984778221
 20
-24.02463015300658
 30
0.0
 10
-152.3635157855944
 20
-24.56631034604595
 30
0.0
 10
-152.3635157855944
 20
-24.56631034604595
 30
0.0
 10
-152.176697933725
 20
-24.61850945171545
 30
0.0
 10
-152.176697933725
 20
-24.61850945171545
 30
0.0
 10
-151.727053005945
 20
-24.71832879413451
 30
0.0
 10
-151.2819869470823
 20
-24.76778057845301
 30
0.0
 10
-150.844247078489
 20
-24.76778057845301
 30
0.0
 10
-149.6528253859366
 20
-24.76778057845301
 30
0.0
 10
-148.5181816679733
 20
-24.39963951741845
 30
0.0
 10
-147.5108305059377
 20
-23.6775518889963
 30
0.0
 10
-145.2387957486573
 20
-22.04930610163455
 30
0.0
 10
-144.1655088741991
 20
-19.01626333012668
 30
0.0
 10
-143.9365654282812
 20
-16.91364672282439
 30
0.0
 10
-143.9365654282812
 20
-16.91364672282439
 30
0.0
 10
-143.9292392380119
 20
-16.82893764783498
 30
0.0
 10
-143.9292392380119
 20
-16.82893764783498
 30
0.0
 10
-143.8341132362341
 20
-15.31459122481978
 30
0.0
 10
-144.2289834445783
 20
-13.93555037833636
 30
0.0
 10
-145.0385274693425
 20
-12.84806901023065
 30
0.0
 10
-145.2188776688626
 20
-12.60578960858584
 30
0.0
 10
-145.4128500034154
 20
-12.37312583167864
 30
0.0
 10
-145.6344100232014
 20
-12.1621544462637
 30
0.0
 10
-145.6344100232014
 20
-12.1621544462637
 30
0.0
 10
-145.8313013866901
 20
-11.97396293371994
 30
0.0
 10
-145.8313013866901
 20
-11.97396293371994
 30
0.0
 10
-145.8313013866901
 20
-11.97396293371994
 30
0.0
 10
-146.0739814393627
 20
-11.84987558603298
 30
0.0
 10
-146.0739814393627
 20
-11.84987558603298
 30
0.0
 10
-146.3825399685978
 20
-11.6923624952418
 30
0.0
 10
-146.6953339515815
 20
-11.55677073939401
 30
0.0
 10
-147.0100167179939
 20
-11.43554518478778
 30
0.0
 10
-147.5520403262029
 20
-11.22680599796729
 30
0.0
 10
-148.1004171150353
 20
-11.0695218506266
 30
0.0
 10
-148.647591950777
 20
-10.96947356475673
 30
0.0
 10
-148.2140875359329
 20
-10.90096223856819
 30
0.0
 10
-147.7824719045182
 20
-10.82117544766706
 30
0.0
 10
-147.3469069986609
 20
-10.77567293779087
 30
0.0
 10
-146.7277866850407
 20
-10.84721776463678
 30
0.0
 10
-146.0989362749673
 20
-10.93473139684204
 30
0.0
 10
-145.4655642318386
 20
-11.03237577652382
 30
0.0
 10
-143.8778414344034
 20
-11.27711632021325
 30
0.0
 10
-142.2560060635282
 20
-11.60530674992884
 30
0.0
 10
-140.643900789105
 20
-12.02141146288517
 30
0.0
 10
-137.5876774936963
 20
-12.81023610579373
 30
0.0
 10
-134.576269877828
 20
-13.91757831783497
 30
0.0
 10
-131.9167483383334
 20
-15.37554741728948
 30
0.0
 10
-128.4566688043279
 20
-17.27240110258176
 30
0.0
 10
-125.5955053248418
 20
-19.76027229349191
 30
0.0
 10
-124.0413799780965
 20
-22.92615949949625
 30
0.0
 10
-123.8765406970357
 20
-23.4339560625407
 30
0.0
 10
-123.7327642130001
 20
-23.96876795220308
 30
0.0
 10
-123.6127978473391
 20
-24.51685856172842
 30
0.0
 10
-123.2611407144102
 20
-26.13090985544289
 30
0.0
 10
-123.101796076052
 20
-27.90980043021722
 30
0.0
 10
-123.124690420644
 20
-29.94648132509506
 30
0.0
 10
-123.1347639322646
 20
-30.59164395568879
 30
0.0
 10
-123.1668160146925
 20
-31.2670271211444
 30
0.0
 10
-123.2180993465777
 20
-31.95385745889533
 30
0.0
 10
-123.2180993465777
 20
-31.95385745889533
 30
0.0
 10
-123.2290886319816
 20
-32.09488662158024
 30
0.0
 10
-123.2290886319816
 20
-32.09488662158024
 30
0.0
 10
-123.2290886319816
 20
-32.09488662158024
 30
0.0
 10
-123.2180993465777
 20
-32.23637367115681
 30
0.0
 10
-123.2180993465777
 20
-32.23637367115681
 30
0.0
 10
-122.9792540966244
 20
-35.39155777106452
 30
0.0
 10
-123.6803933997463
 20
-38.40834555790762
 30
0.0
 10
-125.2320576044489
 20
-41.06712303120229
 30
0.0
 10
-125.5248190359141
 20
-41.5687953570758
 30
0.0
 10
-125.8370406602838
 20
-42.06222571888703
 30
0.0
 10
-126.1907010483647
 20
-42.53653930296207
 30
0.0
 10
-126.7136078788378
 20
-43.23756413435996
 30
0.0
 10
-127.3033661955207
 20
-43.90745265711326
 30
0.0
 10
-127.9444078440881
 20
-44.52743150865543
 30
0.0
 10
-127.9444078440881
 20
-44.52743150865543
 30
0.0
 10
-128.0451429602911
 20
-44.6322876068864
 30
0.0
 10
-128.0451429602911
 20
-44.6322876068864
 30
0.0
 10
-128.5354825855856
 20
-45.18598733083384
 30
0.0
 10
-129.0485448478847
 20
-45.68382485398804
 30
0.0
 10
-129.5732259900652
 20
-46.15104119123463
 30
0.0
 10
-130.6868069110058
 20
-47.14248078378439
 30
0.0
 10
-131.8741076215302
 20
-47.93330868183788
 30
0.0
 10
-133.1079983232999
 20
-48.5619301484701
 30
0.0
 10
-138.7716012883934
 20
-51.44713268977194
 30
0.0
 10
-145.4436428968907
 20
-50.71371236078419
 30
0.0
 10
-150.8838542946329
 20
-48.09969333115965
 30
0.0
  0
SPLINE
  5
82
330
79
100
AcDbEntity
  8
Layer 1
100
AcDbSpline
210
0.0
220
0.0
230
1.0
 70
     9
 71
     3
 72
   101
 73
    97
 74
     0
 42
0.0000000001
 43
0.0000000001
 40
0.0
 40
0.0
 40
0.0
 40
0.0
 40
1.0
 40
1.0
 40
1.0
 40
2.0
 40
2.0
 40
2.0
 40
3.0
 40
3.0
 40
3.0
 40
4.0
 40
4.0
 40
4.0
 40
5.0
 40
5.0
 40
5.0
 40
6.0
 40
6.0
 40
6.0
 40
7.0
 40
7.0
 40
7.0
 40
8.0
 40
8.0
 40
8.0
 40
9.0
 40
9.0
 40
9.0
 40
10.0
 40
10.0
 40
10.0
 40
11.0
 40
11.0
 40
11.0
 40
12.0
 40
12.0
 40
12.0
 40
13.0
 40
13.0
 40
13.0
 40
14.0
 40
14.0
 40
14.0
 40
15.0
 40
15.0
 40
15.0
 40
16.0
 40
16.0
 40
16.0
 40
17.0
 40
17.0
 40
17.0
 40
18.0
 40
18.0
 40
18.0
 40
19.0
 40
19.0
 40
19.0
 40
20.0
 40
20.0
 40
20.0
 40
21.0
 40
21.0
 40
21.0
 40
22.0
 40
22.0
 40
22.0
 40
23.0
 40
23.0
 40
23.0
 40
24.0
 40
24.0
 40
24.0
 40
25.0
 40
25.0
 40
25.0
 40
26.0
 40
26.0
 40
26.0
 40
27.0
 40
27.0
 40
27.0
 40
28.0
 40
28.0
 40
28.0
 40
29.0
 40
29.0
 40
29.0
 40
30.0
 40
30.0
 40
30.0
 40
31.0
 40
31.0
 40
31.0
 40
32.0
 40
32.0
 40
32.0
 40
32.0
 10
-80.9423183973306
 20
-19.38257284359391
 30
0.0
 10
-84.40119597824418
 20
-19.6609680738281
 30
0.0
 10
-91.83819487541173
 20
-19.42881941966879
 30
0.0
 10
-98.97115687640154
 20
-19.05152062079759
 30
0.0
 10
-98.97115687640154
 20
-19.05152062079759
 30
0.0
 10
-94.88589002745918
 20
-16.61098348732261
 30
0.0
 10
-94.88589002745918
 20
-16.61098348732261
 30
0.0
 10
-94.13587129863541
 20
-16.16408588089295
 30
0.0
 10
-93.72743619111998
 20
-15.3174530178912
 30
0.0
 10
-93.84557100921169
 20
-14.45387833989247
 30
0.0
 10
-93.96370582730531
 20
-13.59396675702839
 30
0.0
 10
-94.58093735749809
 20
-12.89156826495485
 30
0.0
 10
-95.41887036955422
 20
-12.66399847971385
 30
0.0
 10
-100.4739988912623
 20
-11.29108187041004
 30
0.0
 10
-122.3651133029529
 20
-5.800731858014234
 30
0.0
 10
-140.4847278583296
 20
-8.203779502224172
 30
0.0
 10
-143.3018769603391
 20
-7.524790477489148
 30
0.0
 10
-145.7041233024838
 20
-7.184122629964836
 30
0.0
 10
-147.1262055167969
 20
-7.025579293670202
 30
0.0
 10
-147.1262055167969
 20
-7.025579293670202
 30
0.0
 10
-147.3194337851516
 20
-7.004058609753936
 30
0.0
 10
-147.3194337851516
 20
-7.004058609753936
 30
0.0
 10
-147.3194337851516
 20
-7.004058609753936
 30
0.0
 10
-147.5135778272884
 20
-7.022831972318889
 30
0.0
 10
-147.5135778272884
 20
-7.022831972318889
 30
0.0
 10
-148.4449197652789
 20
-7.112119916226616
 30
0.0
 10
-149.3826721197548
 20
-7.249485983776866
 30
0.0
 10
-150.2984459034226
 20
-7.429893419159326
 30
0.0
 10
-150.2984459034226
 20
-7.429893419159326
 30
0.0
 10
-150.4275700069196
 20
-7.460113954020561
 30
0.0
 10
-150.4275700069196
 20
-7.460113954020561
 30
0.0
 10
-151.5484771181295
 20
-7.764608737090303
 30
0.0
 10
-152.6611422652868
 20
-8.161138785418764
 30
0.0
 10
-153.7353449135289
 20
-8.639172700493006
 30
0.0
 10
-153.7353449135289
 20
-8.639172700493006
 30
0.0
 10
-154.0174032388981
 20
-8.795312130608529
 30
0.0
 10
-154.0174032388981
 20
-8.795312130608529
 30
0.0
 10
-162.21449437651
 20
-14.29544947531762
 30
0.0
 10
-169.1395757286078
 20
-26.0452850066695
 30
0.0
 10
-166.5406097305576
 20
-36.18656388700824
 30
0.0
 10
-166.5406097305576
 20
-36.18656388700824
 30
0.0
 10
-166.4993999102924
 20
-36.32530361523415
 30
0.0
 10
-166.4993999102924
 20
-36.32530361523415
 30
0.0
 10
-166.1367534919602
 20
-37.39034852563994
 30
0.0
 10
-165.7017609447169
 20
-38.43707796037212
 30
0.0
 10
-165.207243101537
 20
-39.43572927146275
 30
0.0
 10
-163.2401610142183
 20
-43.4106453794731
 30
0.0
 10
-160.343568536477
 20
-46.74177251756506
 30
0.0
 10
-156.8288287547583
 20
-49.07012736254102
 30
0.0
 10
-156.1438299645744
 20
-49.52389327234833
 30
0.0
 10
-155.4121267114245
 20
-49.95339117688902
 30
0.0
 10
-154.6538660185475
 20
-50.34717390386584
 30
0.0
 10
-150.6528503577029
 20
-52.71353336086403
 30
0.0
 10
-145.8532799574994
 20
-54.20029209864888
 30
0.0
 10
-141.0289836651366
 20
-54.19983421175722
 30
0.0
 10
-136.4620770418457
 20
-54.19949079658564
 30
0.0
 10
-131.8722760739635
 20
-52.8663531110155
 30
0.0
 10
-127.9202543105442
 20
-49.68644311894951
 30
0.0
 10
-121.6521834123671
 20
-48.62706455883067
 30
0.0
 10
-116.8112887201757
 20
-47.23148254838672
 30
0.0
 10
-115.826889138594
 20
-46.9382059941618
 30
0.0
 10
-113.063999633267
 20
-46.58380153988285
 30
0.0
 10
-106.8056015956818
 20
-44.32046663354703
 30
0.0
 10
-97.2165343068935
 20
-40.20772657109475
 30
0.0
 10
-88.8078994252555
 20
-36.60049363722632
 30
0.0
 10
-85.26843375137884
 20
-34.98506868283619
 30
0.0
 10
-83.72443915211546
 20
-34.11645724902714
 30
0.0
 10
-83.69147129590228
 20
-34.10867317186584
 30
0.0
 10
-83.66491385617633
 20
-34.10043120781318
 30
0.0
 10
-83.63744064266578
 20
-34.09218924375988
 30
0.0
 10
-83.63744064266578
 20
-34.09218924375988
 30
0.0
 10
-83.64385105915303
 20
-34.07112644673593
 30
0.0
 10
-83.64385105915303
 20
-34.07112644673593
 30
0.0
 10
-82.62093174279483
 20
-33.48640488586306
 30
0.0
 10
-82.53393323334577
 20
-33.25105102346108
 30
0.0
 10
-82.42129305795542
 20
-32.94930356174265
 30
0.0
 10
-82.42129305795542
 20
-32.94930356174265
 30
0.0
 10
-82.01743681935733
 20
-31.85770121160997
 30
0.0
 10
-82.01743681935733
 20
-31.85770121160997
 30
0.0
 10
-82.01743681935733
 20
-31.85770121160997
 30
0.0
 10
-83.61637784564118
 20
-30.16580914628404
 30
0.0
 10
-83.61637784564118
 20
-30.16580914628404
 30
0.0
 10
-83.61637784564118
 20
-30.16580914628404
 30
0.0
 10
-84.55138287876572
 20
-30.44969901922054
 30
0.0
 10
-84.55138287876572
 20
-30.44969901922054
 30
0.0
 10
-85.16220399247252
 20
-30.4867878574591
 30
0.0
 10
-87.51482684271543
 20
-30.56279708150386
 30
0.0
 10
-92.33271271859353
 20
-30.68230556027218
 30
0.0
 10
-87.30694619382337
 20
-28.11539164465156
 30
0.0
 10
-82.19601270717214
 20
-24.98893994720836
 30
0.0
 10
-79.62177260128125
 20
-23.37030978457525
 30
0.0
 10
-78.77468185138912
 20
-22.83732944248084
 30
0.0
 10
-78.40287769522086
 20
-21.80296295382828
 30
0.0
 10
-78.71790387680194
 20
-20.85422131394782
 30
0.0
 10
-79.03201428459903
 20
-19.90731122163534
 30
0.0
 10
-79.95053538961761
 20
-19.31068460157548
 30
0.0
 10
-80.9423183973306
 20
-19.38257284359391
 30
0.0
  0
HATCH
  5
83
330
79
100
AcDbEntity
  8
Layer 1
 62
     7
440
 33554687
100
AcDbHatch
 10
0.0
 20
0.0
 30
0.0
210
0.0
220
0.0
230
1.0
  2
SOLID
 70
     1
 71
     1
 91
        3
 92
        1
 93
        1
 72
     4
 94
        3
 73
     0
 74
     0
 95
       86
 96
       82
 40
0.0
 40
0.0
 40
0.0
 40
0.0
 40
1.0
 40
1.0
 40
1.0
 40
2.0
 40
2.0
 40
2.0
 40
3.0
 40
3.0
 40
3.0
 40
4.0
 40
4.0
 40
4.0
 40
5.0
 40
5.0
 40
5.0
 40
6.0
 40
6.0
 40
6.0
 40
7.0
 40
7.0
 40
7.0
 40
8.0
 40
8.0
 40
8.0
 40
9.0
 40
9.0
 40
9.0
 40
10.0
 40
10.0
 40
10.0
 40
11.0
 40
11.0
 40
11.0
 40
12.0
 40
12.0
 40
12.0
 40
13.0
 40
13.0
 40
13.0
 40
14.0
 40
14.0
 40
14.0
 40
15.0
 40
15.0
 40
15.0
 40
16.0
 40
16.0
 40
16.0
 40
17.0
 40
17.0
 40
17.0
 40
18.0
 40
18.0
 40
18.0
 40
19.0
 40
19.0
 40
19.0
 40
20.0
 40
20.0
 40
20.0
 40
21.0
 40
21.0
 40
21.0
 40
22.0
 40
22.0
 40
22.0
 40
23.0
 40
23.0
 40
23.0
 40
24.0
 40
24.0
 40
24.0
 40
25.0
 40
25.0
 40
25.0
 40
26.0
 40
26.0
 40
26.0
 40
27.0
 40
27.0
 40
27.0
 40
27.0
 10
-116.7701361357724
 20
-43.30487350745942
 10
-116.8676660437328
 20
-43.33457891956379
 10
-119.4567874736077
 20
-44.10577491714188
 10
-123.3279922006174
 20
-44.95704388491654
 10
-123.2816883886815
 20
-44.89637387175418
 10
-123.228802452675
 20
-44.83942418958043
 10
-123.1832999427991
 20
-44.7783535253813
 10
-122.4447856221314
 20
-43.7879441783443
 10
-121.8209719678686
 20
-42.74390482909791
 10
-121.2965770049968
 20
-41.66186086783894
 10
-119.8696297424578
 20
-38.71724750231006
 10
-119.2363149351903
 20
-35.47014260887369
 10
-119.4680057024583
 20
-32.09626028225557
 10
-119.4167223705725
 20
-31.3842461654534
 10
-119.3846702881439
 20
-30.68138978648819
 10
-119.3736810027393
 20
-29.99776465698089
 10
-119.3471235630147
 20
-27.66620460376162
 10
-119.5348571886661
 20
-25.6121240069948
 10
-119.9478711651002
 20
-23.71693016169417
 10
-120.1053842558904
 20
-22.99804774151468
 10
-120.2976967504605
 20
-22.29564924944114
 10
-120.5193140061091
 20
-21.62942382182313
 10
-120.5193140061091
 20
-21.62942382182313
 10
-120.6072282893402
 20
-21.41055388752582
 10
-120.6072282893402
 20
-21.41055388752582
 10
-122.340559118377
 20
-17.79553687649704
 10
-125.212368468099
 20
-15.07631833348022
 10
-128.4676580897325
 20
-13.02738896424447
 10
-129.4304797515356
 20
-12.42131842704159
 10
-130.4258113826586
 20
-11.8742008271651
 10
-131.4367684039682
 20
-11.38054152190274
 10
-129.3436529496718
 20
-11.36663320756248
 10
-127.2407501630622
 20
-11.42758940004149
 10
-125.1583950507251
 20
-11.54841430362092
 10
-116.9800772756785
 20
-12.02301406701035
 10
-109.1498680101481
 20
-13.3930116473782
 10
-103.6738841989826
 20
-14.55461345609616
 10
-102.332619021078
 20
-14.83913292351027
 10
-101.124885108005
 20
-15.11169009587252
 10
-100.0966428565307
 20
-15.35454185613008
 10
-100.0966428565307
 20
-15.35454185613008
 10
-101.8322631200268
 20
-16.39108330752153
 10
-101.8322631200268
 20
-16.39108330752153
 10
-101.8322631200268
 20
-16.39108330752153
 10
-105.3238796137057
 20
-18.47641468465432
 10
-105.3238796137057
 20
-18.47641468465432
 10
-106.1434971500892
 20
-18.96635365891651
 10
-106.5427745197687
 20
-19.9187583939313
 10
-106.317494168986
 20
-20.84643723678716
 10
-106.0931295919873
 20
-21.77274241896672
 10
-105.3028168166824
 20
-22.43530475145071
 10
-104.3522436292346
 20
-22.49528793428087
 10
-103.1805683088922
 20
-22.56975179006467
 10
-101.2160045994794
 20
-22.68920303297775
 10
-98.88009462078782
 20
-22.81168777653824
 10
-95.19662351943024
 20
-23.00480157317157
 10
-90.58272625386484
 20
-23.20535603179496
 10
-86.64484174823073
 20
-23.24851187134792
 10
-90.61540793077005
 20
-25.58218965144026
 10
-95.83348695010965
 20
-28.45073655705887
 10
-99.84852539701689
 20
-29.98614577709963
 10
-100.234008924079
 20
-30.13358535627018
 10
-100.6232127821379
 20
-30.28491697402524
 10
-100.9840276529041
 20
-30.40574187760467
 10
-102.0069469692616
 20
-30.74778338580431
 10
-102.6150207616165
 20
-31.76566594635188
 10
-102.4300344573151
 20
-32.82658987473103
 10
-102.3740005489266
 20
-33.14842712382488
 10
-102.2479671819496
 20
-33.43632350706855
 10
-102.0772898430201
 20
-33.68798958999087
 10
-101.6843084181026
 20
-34.26738821574737
 10
-101.0272979641807
 20
-34.63261024784467
 10
-100.2477455308363
 20
-34.61921705626063
 10
-97.5489601903658
 20
-34.55923387343048
 10
-95.29798823010992
 20
-34.5074926546533
 10
-93.41882042602231
 20
-34.46261973925376
 10
-101.5188395425658
 20
-38.04604255474629
 10
-112.9934850519258
 20
-42.86804941264974
 10
-116.4047423960889
 20
-43.22932217030698
 10
-116.4047423960889
 20
-43.22932217030698
 10
-116.7701361357724
 20
-43.30487350745942
 10
-116.7701361357724
 20
-43.30487350745942
 97
        0
 97
        1
330
80
 92
        1
 93
        1
 72
     4
 94
        3
 73
     0
 74
     0
 95
      128
 96
      124
 40
0.0
 40
0.0
 40
0.0
 40
0.0
 40
1.0
 40
1.0
 40
1.0
 40
2.0
 40
2.0
 40
2.0
 40
3.0
 40
3.0
 40
3.0
 40
4.0
 40
4.0
 40
4.0
 40
5.0
 40
5.0
 40
5.0
 40
6.0
 40
6.0
 40
6.0
 40
7.0
 40
7.0
 40
7.0
 40
8.0
 40
8.0
 40
8.0
 40
9.0
 40
9.0
 40
9.0
 40
10.0
 40
10.0
 40
10.0
 40
11.0
 40
11.0
 40
11.0
 40
12.0
 40
12.0
 40
12.0
 40
13.0
 40
13.0
 40
13.0
 40
14.0
 40
14.0
 40
14.0
 40
15.0
 40
15.0
 40
15.0
 40
16.0
 40
16.0
 40
16.0
 40
17.0
 40
17.0
 40
17.0
 40
18.0
 40
18.0
 40
18.0
 40
19.0
 40
19.0
 40
19.0
 40
20.0
 40
20.0
 40
20.0
 40
21.0
 40
21.0
 40
21.0
 40
22.0
 40
22.0
 40
22.0
 40
23.0
 40
23.0
 40
23.0
 40
24.0
 40
24.0
 40
24.0
 40
25.0
 40
25.0
 40
25.0
 40
26.0
 40
26.0
 40
26.0
 40
27.0
 40
27.0
 40
27.0
 40
28.0
 40
28.0
 40
28.0
 40
29.0
 40
29.0
 40
29.0
 40
30.0
 40
30.0
 40
30.0
 40
31.0
 40
31.0
 40
31.0
 40
32.0
 40
32.0
 40
32.0
 40
33.0
 40
33.0
 40
33.0
 40
34.0
 40
34.0
 40
34.0
 40
35.0
 40
35.0
 40
35.0
 40
36.0
 40
36.0
 40
36.0
 40
37.0
 40
37.0
 40
37.0
 40
38.0
 40
38.0
 40
38.0
 40
39.0
 40
39.0
 40
39.0
 40
40.0
 40
40.0
 40
40.0
 40
41.0
 40
41.0
 40
41.0
 40
41.0
 10
-150.8838542946329
 20
-48.09969333115965
 10
-151.5346832755123
 20
-47.78695658403693
 10
-152.174351263405
 20
-47.45756420122136
 10
-152.7856874998645
 20
-47.09434542427732
 10
-152.7856874998645
 20
-47.09434542427732
 10
-152.8827595209342
 20
-47.04031477104114
 10
-152.8827595209342
 20
-47.04031477104114
 10
-153.5384535500396
 20
-46.70102058419153
 10
-154.1703374607703
 20
-46.33150586248196
 10
-154.7582642298858
 20
-45.94230200442281
 10
-157.7207924200509
 20
-43.9797987860224
 10
-160.1714030651475
 20
-41.15463666340692
 10
-161.8454375416912
 20
-37.7717683065381
 10
-162.0343158845732
 20
-37.3900051104687
 10
-162.2103161586227
 20
-36.99834011036493
 10
-162.3779599968955
 20
-36.60249689237927
 10
-162.5752520114142
 20
-36.13671145166293
 10
-162.7598376646838
 20
-35.66457283031812
 10
-162.9242190588526
 20
-35.18608102835125
 10
-163.7224303830421
 20
-32.00113428047462
 10
-163.328361476758
 20
-28.55868339181112
 10
-162.1603492515509
 20
-25.25611694859869
 10
-161.2560798760415
 20
-22.69939101631881
 10
-159.8845941632744
 20
-20.23120896174733
 10
-158.2349993995813
 20
-18.02917366305277
 10
-157.8267359996499
 20
-17.48417379004966
 10
-157.4067964839765
 20
-16.95090726864856
 10
-156.9672823036778
 20
-16.4418515166505
 10
-156.9797024856185
 20
-16.50486820013801
 10
-156.9870286758865
 20
-16.56943025188585
 10
-156.9975028385384
 20
-16.63307652985098
 10
-157.139733954314
 20
-17.49974194437195
 10
-157.0991537285261
 20
-18.41654597354395
 10
-156.8812568038735
 20
-19.32590934072621
 10
-156.7455505763065
 20
-19.89237266179002
 10
-156.5492315714331
 20
-20.4553445952955
 10
-156.2775329369906
 20
-20.99845568487539
 10
-155.4139582589912
 20
-22.72423138019817
 10
-153.9880984778221
 20
-24.02463015300658
 10
-152.3635157855944
 20
-24.56631034604595
 10
-152.3635157855944
 20
-24.56631034604595
 10
-152.176697933725
 20
-24.61850945171545
 10
-152.176697933725
 20
-24.61850945171545
 10
-151.727053005945
 20
-24.71832879413451
 10
-151.2819869470823
 20
-24.76778057845301
 10
-150.844247078489
 20
-24.76778057845301
 10
-149.6528253859366
 20
-24.76778057845301
 10
-148.5181816679733
 20
-24.39963951741845
 10
-147.5108305059377
 20
-23.6775518889963
 10
-145.2387957486573
 20
-22.04930610163455
 10
-144.1655088741991
 20
-19.01626333012668
 10
-143.9365654282812
 20
-16.91364672282439
 10
-143.9365654282812
 20
-16.91364672282439
 10
-143.9292392380119
 20
-16.82893764783498
 10
-143.9292392380119
 20
-16.82893764783498
 10
-143.8341132362341
 20
-15.31459122481978
 10
-144.2289834445783
 20
-13.93555037833636
 10
-145.0385274693425
 20
-12.84806901023065
 10
-145.2188776688626
 20
-12.60578960858584
 10
-145.4128500034154
 20
-12.37312583167864
 10
-145.6344100232014
 20
-12.1621544462637
 10
-145.6344100232014
 20
-12.1621544462637
 10
-145.8313013866901
 20
-11.97396293371994
 10
-145.8313013866901
 20
-11.97396293371994
 10
-145.8313013866901
 20
-11.97396293371994
 10
-146.0739814393627
 20
-11.84987558603298
 10
-146.0739814393627
 20
-11.84987558603298
 10
-146.3825399685978
 20
-11.6923624952418
 10
-146.6953339515815
 20
-11.55677073939401
 10
-147.0100167179939
 20
-11.43554518478778
 10
-147.5520403262029
 20
-11.22680599796729
 10
-148.1004171150353
 20
-11.0695218506266
 10
-148.647591950777
 20
-10.96947356475673
 10
-148.2140875359329
 20
-10.90096223856819
 10
-147.7824719045182
 20
-10.82117544766706
 10
-147.3469069986609
 20
-10.77567293779087
 10
-146.7277866850407
 20
-10.84721776463678
 10
-146.0989362749673
 20
-10.93473139684204
 10
-145.4655642318386
 20
-11.03237577652382
 10
-143.8778414344034
 20
-11.27711632021325
 10
-142.2560060635282
 20
-11.60530674992884
 10
-140.643900789105
 20
-12.02141146288517
 10
-137.5876774936963
 20
-12.81023610579373
 10
-134.576269877828
 20
-13.91757831783497
 10
-131.9167483383334
 20
-15.37554741728948
 10
-128.4566688043279
 20
-17.27240110258176
 10
-125.5955053248418
 20
-19.76027229349191
 10
-124.0413799780965
 20
-22.92615949949625
 10
-123.8765406970357
 20
-23.4339560625407
 10
-123.7327642130001
 20
-23.96876795220308
 10
-123.6127978473391
 20
-24.51685856172842
 10
-123.2611407144102
 20
-26.13090985544289
 10
-123.101796076052
 20
-27.90980043021722
 10
-123.124690420644
 20
-29.94648132509506
 10
-123.1347639322646
 20
-30.59164395568879
 10
-123.1668160146925
 20
-31.2670271211444
 10
-123.2180993465777
 20
-31.95385745889533
 10
-123.2180993465777
 20
-31.95385745889533
 10
-123.2290886319816
 20
-32.09488662158024
 10
-123.2290886319816
 20
-32.09488662158024
 10
-123.2290886319816
 20
-32.09488662158024
 10
-123.2180993465777
 20
-32.23637367115681
 10
-123.2180993465777
 20
-32.23637367115681
 10
-122.9792540966244
 20
-35.39155777106452
 10
-123.6803933997463
 20
-38.40834555790762
 10
-125.2320576044489
 20
-41.06712303120229
 10
-125.5248190359141
 20
-41.5687953570758
 10
-125.8370406602838
 20
-42.06222571888703
 10
-126.1907010483647
 20
-42.53653930296207
 10
-126.7136078788378
 20
-43.23756413435996
 10
-127.3033661955207
 20
-43.90745265711326
 10
-127.9444078440881
 20
-44.52743150865543
 10
-127.9444078440881
 20
-44.52743150865543
 10
-128.0451429602911
 20
-44.6322876068864
 10
-128.0451429602911
 20
-44.6322876068864
 10
-128.5354825855856
 20
-45.18598733083384
 10
-129.0485448478847
 20
-45.68382485398804
 10
-129.5732259900652
 20
-46.15104119123463
 10
-130.6868069110058
 20
-47.14248078378439
 10
-131.8741076215302
 20
-47.93330868183788
 10
-133.1079983232999
 20
-48.5619301484701
 10
-138.7716012883934
 20
-51.44713268977194
 10
-145.4436428968907
 20
-50.71371236078419
 10
-150.8838542946329
 20
-48.09969333115965
 97
        0
 97
        1
330
81
 92
        1
 93
        1
 72
     4
 94
        3
 73
     0
 74
     0
 95
      101
 96
       97
 40
0.0
 40
0.0
 40
0.0
 40
0.0
 40
1.0
 40
1.0
 40
1.0
 40
2.0
 40
2.0
 40
2.0
 40
3.0
 40
3.0
 40
3.0
 40
4.0
 40
4.0
 40
4.0
 40
5.0
 40
5.0
 40
5.0
 40
6.0
 40
6.0
 40
6.0
 40
7.0
 40
7.0
 40
7.0
 40
8.0
 40
8.0
 40
8.0
 40
9.0
 40
9.0
 40
9.0
 40
10.0
 40
10.0
 40
10.0
 40
11.0
 40
11.0
 40
11.0
 40
12.0
 40
12.0
 40
12.0
 40
13.0
 40
13.0
 40
13.0
 40
14.0
 40
14.0
 40
14.0
 40
15.0
 40
15.0
 40
15.0
 40
16.0
 40
16.0
 40
16.0
 40
17.0
 40
17.0
 40
17.0
 40
18.0
 40
18.0
 40
18.0
 40
19.0
 40
19.0
 40
19.0
 40
20.0
 40
20.0
 40
20.0
 40
21.0
 40
21.0
 40
21.0
 40
22.0
 40
22.0
 40
22.0
 40
23.0
 40
23.0
 40
23.0
 40
24.0
 40
24.0
 40
24.0
 40
25.0
 40
25.0
 40
25.0
 40
26.0
 40
26.0
 40
26.0
 40
27.0
 40
27.0
 40
27.0
 40
28.0
 40
28.0
 40
28.0
 40
29.0
 40
29.0
 40
29.0
 40
30.0
 40
30.0
 40
30.0
 40
31.0
 40
31.0
 40
31.0
 40
32.0
 40
32.0
 40
32.0
 40
32.0
 10
-80.9423183973306
 20
-19.38257284359391
 10
-84.40119597824418
 20
-19.6609680738281
 10
-91.83819487541173
 20
-19.42881941966879
 10
-98.97115687640154
 20
-19.05152062079759
 10
-98.97115687640154
 20
-19.05152062079759
 10
-94.88589002745918
 20
-16.61098348732261
 10
-94.88589002745918
 20
-16.61098348732261
 10
-94.13587129863541
 20
-16.16408588089295
 10
-93.72743619111998
 20
-15.3174530178912
 10
-93.84557100921169
 20
-14.45387833989247
 10
-93.96370582730531
 20
-13.59396675702839
 10
-94.58093735749809
 20
-12.89156826495485
 10
-95.41887036955422
 20
-12.66399847971385
 10
-100.4739988912623
 20
-11.29108187041004
 10
-122.3651133029529
 20
-5.800731858014234
 10
-140.4847278583296
 20
-8.203779502224172
 10
-143.3018769603391
 20
-7.524790477489148
 10
-145.7041233024838
 20
-7.184122629964836
 10
-147.1262055167969
 20
-7.025579293670202
 10
-147.1262055167969
 20
-7.025579293670202
 10
-147.3194337851516
 20
-7.004058609753936
 10
-147.3194337851516
 20
-7.004058609753936
 10
-147.3194337851516
 20
-7.004058609753936
 10
-147.5135778272884
 20
-7.022831972318889
 10
-147.5135778272884
 20
-7.022831972318889
 10
-148.4449197652789
 20
-7.112119916226616
 10
-149.3826721197548
 20
-7.249485983776866
 10
-150.2984459034226
 20
-7.429893419159326
 10
-150.2984459034226
 20
-7.429893419159326
 10
-150.4275700069196
 20
-7.460113954020561
 10
-150.4275700069196
 20
-7.460113954020561
 10
-151.5484771181295
 20
-7.764608737090303
 10
-152.6611422652868
 20
-8.161138785418764
 10
-153.7353449135289
 20
-8.639172700493006
 10
-153.7353449135289
 20
-8.639172700493006
 10
-154.0174032388981
 20
-8.795312130608529
 10
-154.0174032388981
 20
-8.795312130608529
 10
-162.21449437651
 20
-14.29544947531762
 10
-169.1395757286078
 20
-26.0452850066695
 10
-166.5406097305576
 20
-36.18656388700824
 10
-166.5406097305576
 20
-36.18656388700824
 10
-166.4993999102924
 20
-36.32530361523415
 10
-166.4993999102924
 20
-36.32530361523415
 10
-166.1367534919602
 20
-37.39034852563994
 10
-165.7017609447169
 20
-38.43707796037212
 10
-165.207243101537
 20
-39.43572927146275
 10
-163.2401610142183
 20
-43.4106453794731
 10
-160.343568536477
 20
-46.74177251756506
 10
-156.8288287547583
 20
-49.07012736254102
 10
-156.1438299645744
 20
-49.52389327234833
 10
-155.4121267114245
 20
-49.95339117688902
 10
-154.6538660185475
 20
-50.34717390386584
 10
-150.6528503577029
 20
-52.71353336086403
 10
-145.8532799574994
 20
-54.20029209864888
 10
-141.0289836651366
 20
-54.19983421175722
 10
-136.4620770418457
 20
-54.19949079658564
 10
-131.8722760739635
 20
-52.8663531110155
 10
-127.9202543105442
 20
-49.68644311894951
 10
-121.6521834123671
 20
-48.62706455883067
 10
-116.8112887201757
 20
-47.23148254838672
 10
-115.826889138594
 20
-46.9382059941618
 10
-113.063999633267
 20
-46.58380153988285
 10
-106.8056015956818
 20
-44.32046663354703
 10
-97.2165343068935
 20
-40.20772657109475
 10
-88.8078994252555
 20
-36.60049363722632
 10
-85.26843375137884
 20
-34.98506868283619
 10
-83.72443915211546
 20
-34.11645724902714
 10
-83.69147129590228
 20
-34.10867317186584
 10
-83.66491385617633
 20
-34.10043120781318
 10
-83.63744064266578
 20
-34.09218924375988
 10
-83.63744064266578
 20
-34.09218924375988
 10
-83.64385105915303
 20
-34.07112644673593
 10
-83.64385105915303
 20
-34.07112644673593
 10
-82.62093174279483
 20
-33.48640488586306
 10
-82.53393323334577
 20
-33.25105102346108
 10
-82.42129305795542
 20
-32.94930356174265
 10
-82.42129305795542
 20
-32.94930356174265
 10
-82.01743681935733
 20
-31.85770121160997
 10
-82.01743681935733
 20
-31.85770121160997
 10
-82.01743681935733
 20
-31.85770121160997
 10
-83.61637784564118
 20
-30.16580914628404
 10
-83.61637784564118
 20
-30.16580914628404
 10
-83.61637784564118
 20
-30.16580914628404
 10
-84.55138287876572
 20
-30.44969901922054
 10
-84.55138287876572
 20
-30.44969901922054
 10
-85.16220399247252
 20
-30.4867878574591
 10
-87.51482684271543
 20
-30.56279708150386
 10
-92.33271271859353
 20
-30.68230556027218
 10
-87.30694619382337
 20
-28.11539164465156
 10
-82.19601270717214
 20
-24.98893994720836
 10
-79.62177260128125
 20
-23.37030978457525
 10
-78.77468185138912
 20
-22.83732944248084
 10
-78.40287769522086
 20
-21.80296295382828
 10
-78.71790387680194
 20
-20.85422131394782
 10
-79.03201428459903
 20
-19.90731122163534
 10
-79.95053538961761
 20
-19.31068460157548
 10
-80.9423183973306
 20
-19.38257284359391
 97
        0
 97
        1
330
82
 75
     2
 76
     1
 98
        1
 10
0.0
 20
0.0
450
        0
451
        0
460
0.0
461
0.0
452
        0
462
0.0
453
        0
470

  0
SPLINE
  5
84
330
79
100
AcDbEntity
  8
Layer 1
100
AcDbSpline
210
0.0
220
0.0
230
1.0
 70
     9
 71
     3
 72
    53
 73
    49
 74
     0
 42
0.0000000001
 43
0.0000000001
 40
0.0
 40
0.0
 40
0.0
 40
0.0
 40
1.0
 40
1.0
 40
1.0
 40
2.0
 40
2.0
 40
2.0
 40
3.0
 40
3.0
 40
3.0
 40
4.0
 40
4.0
 40
4.0
 40
5.0
 40
5.0
 40
5.0
 40
6.0
 40
6.0
 40
6.0
 40
7.0
 40
7.0
 40
7.0
 40
8.0
 40
8.0
 40
8.0
 40
9.0
 40
9.0
 40
9.0
 40
10.0
 40
10.0
 40
10.0
 40
11.0
 40
11.0
 40
11.0
 40
12.0
 40
12.0
 40
12.0
 40
13.0
 40
13.0
 40
13.0
 40
14.0
 40
14.0
 40
14.0
 40
15.0
 40
15.0
 40
15.0
 40
16.0
 40
16.0
 40
16.0
 40
16.0
 10
-141.0014565825799
 20
-32.2414890580925
 30
0.0
 10
-141.0014565825799
 20
-32.2414890580925
 30
0.0
 10
-141.2569574682218
 20
-32.0876390624363
 30
0.0
 10
-141.2569574682218
 20
-32.0876390624363
 30
0.0
 10
-141.4776589500877
 20
-31.97728832150461
 30
0.0
 10
-141.6956131106004
 20
-31.86327448543828
 30
0.0
 10
-141.9117357235452
 20
-31.75063431004696
 30
0.0
 10
-143.3907103841706
 20
-30.97772123663097
 30
0.0
 10
-145.2314156893418
 20
-30.01661665067153
 30
0.0
 10
-147.2607703939503
 20
-30.69245770301849
 30
0.0
 10
-150.0630381719732
 20
-31.62700484925167
 30
0.0
 10
-152.2315904917
 20
-33.76808395546721
 30
0.0
 10
-153.0594499921355
 20
-36.41970694607819
 30
0.0
 10
-153.8543988722204
 20
-38.96458505502569
 30
0.0
 10
-153.3441984029953
 20
-41.71745828459721
 30
0.0
 10
-151.6618647265344
 20
-43.98004912472472
 30
0.0
 10
-151.6542523569597
 20
-43.99029434393001
 30
0.0
 10
-151.6485860066718
 20
-44.00128362933461
 30
0.0
 10
-151.6409164012344
 20
-44.01147161268498
 30
0.0
 10
-151.6409164012344
 20
-44.01147161268498
 30
0.0
 10
-151.4660036085536
 20
-44.21294184509235
 30
0.0
 10
-151.4660036085536
 20
-44.21294184509235
 30
0.0
 10
-150.4961991716492
 20
-45.18211668751818
 30
0.0
 10
-149.5569586847741
 20
-45.91381994066897
 30
0.0
 10
-148.6390099383702
 20
-46.43174725118864
 30
0.0
 10
-147.5701874611067
 20
-47.03484152359902
 30
0.0
 10
-146.5304980373359
 20
-47.34443029834458
 30
0.0
 10
-145.5107266933603
 20
-47.34443029834458
 30
0.0
 10
-145.1196912877335
 20
-47.34443029834458
 30
0.0
 10
-144.7304874296747
 20
-47.30047315672871
 30
0.0
 10
-144.3440308929678
 20
-47.21255887349664
 30
0.0
 10
-143.7412227998683
 20
-47.13025370468698
 30
0.0
 10
-143.1828297352773
 20
-46.98607656961498
 30
0.0
 10
-142.6591216027422
 20
-46.79405025436024
 30
0.0
 10
-141.5531530513782
 20
-46.38841970405102
 30
0.0
 10
-140.6242150195697
 20
-45.73862096868309
 30
0.0
 10
-139.8740245831613
 20
-44.84722966200254
 30
0.0
 10
-138.5856453412632
 20
-43.31634207501556
 30
0.0
 10
-137.8198867505328
 20
-41.07962184427247
 30
0.0
 10
-137.5966096549022
 20
-38.13632490356337
 30
0.0
 10
-137.5966096549022
 20
-38.13632490356337
 30
0.0
 10
-137.5792099530122
 20
-37.90326047561974
 30
0.0
 10
-137.5792099530122
 20
-37.90326047561974
 30
0.0
 10
-137.5792099530122
 20
-37.90326047561974
 30
0.0
 10
-137.6185882257101
 20
-37.67340125591942
 30
0.0
 10
-137.6185882257101
 20
-37.67340125591942
 30
0.0
 10
-138.0032132148509
 20
-35.45906024701043
 30
0.0
 10
-139.2047084190226
 20
-33.52998277171392
 30
0.0
 10
-141.0014565825799
 20
-32.2414890580925
 30
0.0
  0
HATCH
  5
85
330
79
100
AcDbEntity
  8
Layer 1
 62
     7
440
 33554687
100
AcDbHatch
 10
0.0
 20
0.0
 30
0.0
210
0.0
220
0.0
230
1.0
  2
SOLID
 70
     1
 71
     1
 91
        1
 92
        1
 93
        1
 72
     4
 94
        3
 73
     0
 74
     0
 95
       53
 96
       49
 40
0.0
 40
0.0
 40
0.0
 40
0.0
 40
1.0
 40
1.0
 40
1.0
 40
2.0
 40
2.0
 40
2.0
 40
3.0
 40
3.0
 40
3.0
 40
4.0
 40
4.0
 40
4.0
 40
5.0
 40
5.0
 40
5.0
 40
6.0
 40
6.0
 40
6.0
 40
7.0
 40
7.0
 40
7.0
 40
8.0
 40
8.0
 40
8.0
 40
9.0
 40
9.0
 40
9.0
 40
10.0
 40
10.0
 40
10.0
 40
11.0
 40
11.0
 40
11.0
 40
12.0
 40
12.0
 40
12.0
 40
13.0
 40
13.0
 40
13.0
 40
14.0
 40
14.0
 40
14.0
 40
15.0
 40
15.0
 40
15.0
 40
16.0
 40
16.0
 40
16.0
 40
16.0
 10
-141.0014565825799
 20
-32.2414890580925
 10
-141.0014565825799
 20
-32.2414890580925
 10
-141.2569574682218
 20
-32.0876390624363
 10
-141.2569574682218
 20
-32.0876390624363
 10
-141.4776589500877
 20
-31.97728832150461
 10
-141.6956131106004
 20
-31.86327448543828
 10
-141.9117357235452
 20
-31.75063431004696
 10
-143.3907103841706
 20
-30.97772123663097
 10
-145.2314156893418
 20
-30.01661665067153
 10
-147.2607703939503
 20
-30.69245770301849
 10
-150.0630381719732
 20
-31.62700484925167
 10
-152.2315904917
 20
-33.76808395546721
 10
-153.0594499921355
 20
-36.41970694607819
 10
-153.8543988722204
 20
-38.96458505502569
 10
-153.3441984029953
 20
-41.71745828459721
 10
-151.6618647265344
 20
-43.98004912472472
 10
-151.6542523569597
 20
-43.99029434393001
 10
-151.6485860066718
 20
-44.00128362933461
 10
-151.6409164012344
 20
-44.01147161268498
 10
-151.6409164012344
 20
-44.01147161268498
 10
-151.4660036085536
 20
-44.21294184509235
 10
-151.4660036085536
 20
-44.21294184509235
 10
-150.4961991716492
 20
-45.18211668751818
 10
-149.5569586847741
 20
-45.91381994066897
 10
-148.6390099383702
 20
-46.43174725118864
 10
-147.5701874611067
 20
-47.03484152359902
 10
-146.5304980373359
 20
-47.34443029834458
 10
-145.5107266933603
 20
-47.34443029834458
 10
-145.1196912877335
 20
-47.34443029834458
 10
-144.7304874296747
 20
-47.30047315672871
 10
-144.3440308929678
 20
-47.21255887349664
 10
-143.7412227998683
 20
-47.13025370468698
 10
-143.1828297352773
 20
-46.98607656961498
 10
-142.6591216027422
 20
-46.79405025436024
 10
-141.5531530513782
 20
-46.38841970405102
 10
-140.6242150195697
 20
-45.73862096868309
 10
-139.8740245831613
 20
-44.84722966200254
 10
-138.5856453412632
 20
-43.31634207501556
 10
-137.8198867505328
 20
-41.07962184427247
 10
-137.5966096549022
 20
-38.13632490356337
 10
-137.5966096549022
 20
-38.13632490356337
 10
-137.5792099530122
 20
-37.90326047561974
 10
-137.5792099530122
 20
-37.90326047561974
 10
-137.5792099530122
 20
-37.90326047561974
 10
-137.6185882257101
 20
-37.67340125591942
 10
-137.6185882257101
 20
-37.67340125591942
 10
-138.0032132148509
 20
-35.45906024701043
 10
-139.2047084190226
 20
-33.52998277171392
 10
-141.0014565825799
 20
-32.2414890580925
 97
        0
 97
        1
330
84
 75
     2
 76
     1
 98
        1
 10
0.0
 20
0.0
450
        0
451
        0
460
0.0
461
0.0
452
        0
462
0.0
453
        0
470

  0
SPLINE
  5
86
330
79
100
AcDbEntity
  8
Layer 1
100
AcDbSpline
210
0.0
220
0.0
230
1.0
 70
     9
 71
     3
 72
    50
 73
    46
 74
     0
 42
0.0000000001
 43
0.0000000001
 40
0.0
 40
0.0
 40
0.0
 40
0.0
 40
1.0
 40
1.0
 40
1.0
 40
2.0
 40
2.0
 40
2.0
 40
3.0
 40
3.0
 40
3.0
 40
4.0
 40
4.0
 40
4.0
 40
5.0
 40
5.0
 40
5.0
 40
6.0
 40
6.0
 40
6.0
 40
7.0
 40
7.0
 40
7.0
 40
8.0
 40
8.0
 40
8.0
 40
9.0
 40
9.0
 40
9.0
 40
10.0
 40
10.0
 40
10.0
 40
11.0
 40
11.0
 40
11.0
 40
12.0
 40
12.0
 40
12.0
 40
13.0
 40
13.0
 40
13.0
 40
14.0
 40
14.0
 40
14.0
 40
15.0
 40
15.0
 40
15.0
 40
15.0
 10
-125.1540451252519
 20
-27.21976488422395
 30
0.0
 10
-125.1540451252519
 20
-27.21976488422395
 30
0.0
 10
-125.1494662563338
 20
-27.1533712849075
 30
0.0
 10
-125.1494662563338
 20
-27.1533712849075
 30
0.0
 10
-125.1494662563338
 20
-27.1533712849075
 30
0.0
 10
-125.1503820301172
 20
-27.08651979870035
 30
0.0
 10
-125.1503820301172
 20
-27.08651979870035
 30
0.0
 10
-125.1659501844392
 20
-25.24260928528459
 30
0.0
 10
-125.9269581986688
 20
-23.47058701388758
 30
0.0
 10
-127.2914611363327
 20
-22.0969263383854
 30
0.0
 10
-127.2914611363327
 20
-22.0969263383854
 30
0.0
 10
-127.4095959544264
 20
-21.98840714502041
 30
0.0
 10
-127.4095959544264
 20
-21.98840714502041
 30
0.0
 10
-128.3546744991715
 20
-21.18802085809482
 30
0.0
 10
-129.511296787944
 20
-20.56666834587635
 30
0.0
 10
-130.7604122288676
 20
-20.18982743389651
 30
0.0
 10
-132.0049488008706
 20
-19.81802327772761
 30
0.0
 10
-133.3053475736812
 20
-19.69988845963463
 30
0.0
 10
-134.4931061710983
 20
-19.84320705677853
 30
0.0
 10
-135.5207760639579
 20
-19.9534433259901
 30
0.0
 10
-136.5061486551849
 20
-20.33423351241002
 30
0.0
 10
-137.379796844803
 20
-20.91059863750819
 30
0.0
 10
-138.3893802054365
 20
-21.57659512167667
 30
0.0
 10
-139.248032599348
 20
-22.50673510657683
 30
0.0
 10
-139.8229095920456
 20
-23.63222108670445
 30
0.0
 10
-140.8055348619219
 20
-25.55626180619097
 30
0.0
 10
-140.790882481382
 20
-27.67078347268026
 30
0.0
 10
-139.7826155455643
 20
-29.43364800624094
 30
0.0
 10
-139.7826155455643
 20
-29.43364800624094
 30
0.0
 10
-139.6553229896335
 20
-29.62779204837869
 30
0.0
 10
-139.6553229896335
 20
-29.62779204837869
 30
0.0
 10
-139.2255389057867
 20
-30.20089472936965
 30
0.0
 10
-138.7354854598002
 20
-30.84405410481011
 30
0.0
 10
-138.151908616158
 20
-31.44628983930202
 30
0.0
 10
-137.0631108232392
 20
-32.57000150771851
 30
0.0
 10
-135.6334734752109
 20
-33.545872945937
 30
0.0
 10
-133.5544380428385
 20
-33.62010785827898
 30
0.0
 10
-133.0022264512855
 20
-33.73778478948061
 30
0.0
 10
-132.4545937286538
 20
-33.79593642474344
 30
0.0
 10
-131.9188660652074
 20
-33.79593642474344
 30
0.0
 10
-130.4563753326892
 20
-33.79593642474344
 30
0.0
 10
-129.0799673358366
 20
-33.36231753817642
 30
0.0
 10
-127.9251765946315
 20
-32.51980565720197
 30
0.0
 10
-126.2767837840298
 20
-31.31373158411095
 30
0.0
 10
-125.2923269665861
 20
-29.43135857178194
 30
0.0
 10
-125.1540451252519
 20
-27.21976488422395
 30
0.0
  0
HATCH
  5
87
330
79
100
AcDbEntity
  8
Layer 1
 62
     7
440
 33554687
100
AcDbHatch
 10
0.0
 20
0.0
 30
0.0
210
0.0
220
0.0
230
1.0
  2
SOLID
 70
     1
 71
     1
 91
        1
 92
        1
 93
        1
 72
     4
 94
        3
 73
     0
 74
     0
 95
       50
 96
       46
 40
0.0
 40
0.0
 40
0.0
 40
0.0
 40
1.0
 40
1.0
 40
1.0
 40
2.0
 40
2.0
 40
2.0
 40
3.0
 40
3.0
 40
3.0
 40
4.0
 40
4.0
 40
4.0
 40
5.0
 40
5.0
 40
5.0
 40
6.0
 40
6.0
 40
6.0
 40
7.0
 40
7.0
 40
7.0
 40
8.0
 40
8.0
 40
8.0
 40
9.0
 40
9.0
 40
9.0
 40
10.0
 40
10.0
 40
10.0
 40
11.0
 40
11.0
 40
11.0
 40
12.0
 40
12.0
 40
12.0
 40
13.0
 40
13.0
 40
13.0
 40
14.0
 40
14.0
 40
14.0
 40
15.0
 40
15.0
 40
15.0
 40
15.0
 10
-125.1540451252519
 20
-27.21976488422395
 10
-125.1540451252519
 20
-27.21976488422395
 10
-125.1494662563338
 20
-27.1533712849075
 10
-125.1494662563338
 20
-27.1533712849075
 10
-125.1494662563338
 20
-27.1533712849075
 10
-125.1503820301172
 20
-27.08651979870035
 10
-125.1503820301172
 20
-27.08651979870035
 10
-125.1659501844392
 20
-25.24260928528459
 10
-125.9269581986688
 20
-23.47058701388758
 10
-127.2914611363327
 20
-22.0969263383854
 10
-127.2914611363327
 20
-22.0969263383854
 10
-127.4095959544264
 20
-21.98840714502041
 10
-127.4095959544264
 20
-21.98840714502041
 10
-128.3546744991715
 20
-21.18802085809482
 10
-129.511296787944
 20
-20.56666834587635
 10
-130.7604122288676
 20
-20.18982743389651
 10
-132.0049488008706
 20
-19.81802327772761
 10
-133.3053475736812
 20
-19.69988845963463
 10
-134.4931061710983
 20
-19.84320705677853
 10
-135.5207760639579
 20
-19.9534433259901
 10
-136.5061486551849
 20
-20.33423351241002
 10
-137.379796844803
 20
-20.91059863750819
 10
-138.3893802054365
 20
-21.57659512167667
 10
-139.248032599348
 20
-22.50673510657683
 10
-139.8229095920456
 20
-23.63222108670445
 10
-140.8055348619219
 20
-25.55626180619097
 10
-140.790882481382
 20
-27.67078347268026
 10
-139.7826155455643
 20
-29.43364800624094
 10
-139.7826155455643
 20
-29.43364800624094
 10
-139.6553229896335
 20
-29.62779204837869
 10
-139.6553229896335
 20
-29.62779204837869
 10
-139.2255389057867
 20
-30.20089472936965
 10
-138.7354854598002
 20
-30.84405410481011
 10
-138.151908616158
 20
-31.44628983930202
 10
-137.0631108232392
 20
-32.57000150771851
 10
-135.6334734752109
 20
-33.545872945937
 10
-133.5544380428385
 20
-33.62010785827898
 10
-133.0022264512855
 20
-33.73778478948061
 10
-132.4545937286538
 20
-33.79593642474344
 10
-131.9188660652074
 20
-33.79593642474344
 10
-130.4563753326892
 20
-33.79593642474344
 10
-129.0799673358366
 20
-33.36231753817642
 10
-127.9251765946315
 20
-32.51980565720197
 10
-126.2767837840298
 20
-31.31373158411095
 10
-125.2923269665861
 20
-29.43135857178194
 10
-125.1540451252519
 20
-27.21976488422395
 97
        0
 97
        1
330
86
 75
     2
 76
     1
 98
        1
 10
0.0
 20
0.0
450
        0
451
        0
460
0.0
461
0.0
452
        0
462
0.0
453
        0
470

  0
ENDBLK
  5
7C
330
79
100
AcDbEntity
  8
0
100
AcDbBlockEnd
  0
ENDSEC
  0
SECTION
  2
ENTITIES
  0
INSERT
  5
7A
330
70
100
AcDbEntity
  8
Layer 1
100
AcDbBlockReference
  2
Block_0
 10
0.0
 20
0.0
 30
0.0
  0
ENDSEC
  0
SECTION
  2
OBJECTS
  0
DICTIONARY
  5
C
330
0
100
AcDbDictionary
281
     1
  3
ACAD_COLOR
350
63
  3
ACAD_DETAILVIEWSTYLE
350
6A
  3
ACAD_GROUP
350
D
  3
ACAD_LAYOUT
350
62
  3
ACAD_MATERIAL
350
10
  3
ACAD_MLEADERSTYLE
350
66
  3
ACAD_MLINESTYLE
350
5F
  3
ACAD_PLOTSETTINGS
350
61
  3
ACAD_PLOTSTYLENAME
350
E
  3
ACAD_SCALELIST
350
42
  3
ACAD_SECTIONVIEWSTYLE
350
68
  3
ACAD_TABLESTYLE
350
64
  3
ACAD_VISUALSTYLE
350
29
  3
ACDB_RECOMPOSE_DATA
350
90
  3
AcDbVariableDictionary
350
88
  0
DICTIONARY
  5
63
102
{ACAD_REACTORS
330
C
102
}
330
C
100
AcDbDictionary
281
     1
  0
DICTIONARY
  5
6A
102
{ACAD_REACTORS
330
C
102
}
330
C
100
AcDbDictionary
281
     1
  3
Imperial24
350
6B
  0
DICTIONARY
  5
D
102
{ACAD_REACTORS
330
C
102
}
330
C
100
AcDbDictionary
281
     1
  0
DICTIONARY
  5
62
102
{ACAD_REACTORS
330
C
102
}
330
C
100
AcDbDictionary
281
     1
  3
Layout1
350
6F
  3
Layout2
350
77
  3
Model
350
73
  0
DICTIONARY
  5
10
102
{ACAD_REACTORS
330
C
102
}
330
C
100
AcDbDictionary
281
     1
  3
ByBlock
350
19
  3
ByLayer
350
11
  3
Global
350
21
  0
DICTIONARY
  5
66
102
{ACAD_REACTORS
330
C
102
}
330
C
100
AcDbDictionary
281
     1
  3
Standard
350
67
  0
DICTIONARY
  5
5F
102
{ACAD_REACTORS
330
C
102
}
330
C
100
AcDbDictionary
281
     1
  3
Standard
350
60
  0
DICTIONARY
  5
61
102
{ACAD_REACTORS
330
C
102
}
330
C
100
AcDbDictionary
281
     1
  0
ACDBDICTIONARYWDFLT
  5
E
102
{ACAD_REACTORS
330
C
102
}
330
C
100
AcDbDictionary
281
     1
  3
Normal
350
F
100
AcDbDictionaryWithDefault
340
F
  0
DICTIONARY
  5
42
102
{ACAD_REACTORS
330
C
102
}
330
C
100
AcDbDictionary
281
     1
  3
A0
350
43
  3
A1
350
44
  3
A2
350
45
  3
A3
350
46
  3
A4
350
47
  3
A5
350
48
  3
A6
350
49
  3
A7
350
4A
  3
A8
350
4B
  3
A9
350
4C
  3
B0
350
4D
  3
B1
350
4E
  3
B2
350
4F
  3
B3
350
50
  3
B4
350
51
  3
B5
350
52
  3
B6
350
53
  0
DICTIONARY
  5
68
102
{ACAD_REACTORS
330
C
102
}
330
C
100
AcDbDictionary
281
     1
  3
Imperial24
350
69
  0
DICTIONARY
  5
64
102
{ACAD_REACTORS
330
C
102
}
330
C
100
AcDbDictionary
281
     1
  3
Standard
350
65
  0
DICTIONARY
  5
29
102
{ACAD_REACTORS
330
C
102
}
330
C
100
AcDbDictionary
281
     1
  3
2dWireframe
350
2F
  3
Basic
350
2E
  3
Brighten
350
35
  3
ColorChange
350
39
  3
Conceptual
350
32
  3
Dim
350
34
  3
EdgeColorOff
350
41
  3
Facepattern
350
38
  3
Flat
350
2A
  3
FlatWithEdges
350
2B
  3
Gouraud
350
2C
  3
GouraudWithEdges
350
2D
  3
Hidden
350
31
  3
JitterOff
350
3F
  3
Linepattern
350
37
  3
OverhangOff
350
40
  3
Realistic
350
33
  3
Shaded
350
3E
  3
Shaded with edges
350
3D
  3
Shades of Gray
350
3A
  3
Sketchy
350
3B
  3
Thicken
350
36
  3
Wireframe
350
30
  3
X-Ray
350
3C
  0
XRECORD
  5
90
102
{ACAD_REACTORS
330
C
102
}
330
C
100
AcDbXrecord
280
     1
 90
        1
330
65
  0
DICTIONARY
  5
88
102
{ACAD_REACTORS
330
C
102
}
330
C
100
AcDbDictionary
281
     1
  3
CANNOSCALE
350
8D
  3
CMLEADERSTYLE
350
8A
  3
CTABLESTYLE
350
89
  3
CVIEWDETAILSTYLE
350
8B
  3
CVIEWSECTIONSTYLE
350
8C
  0
ACDBDETAILVIEWSTYLE
  5
6B
102
{ACAD_XDICTIONARY
360
93
102
}
102
{ACAD_REACTORS
330
6A
102
}
330
6A
100
AcDbModelDocViewStyle
 70
     0
  3
Imperial24
290
     0
100
AcDbDetailViewStyle
 70
     0
 71
     0
 90
        3
 71
     1
340
55
 62
   256
 40
0.24
340
0
 62
   256
 40
0.24
300

 40
0.36
280
     3
 71
     2
340
5D
 90
       25
 62
   256
 71
     3
340
55
 62
   256
 40
0.24
 90
        1
 40
0.75
 90
        1
300
%<\AcVar ViewType \f "%tc1">% %<\AcVar ViewDetailId>%\PSCALE %<\AcVar ViewScale \f "%sn">%
 71
     4
340
5D
 90
       25
 62
   256
340
5D
 90
       25
 62
   256
280
     0
  0
LAYOUT
  5
6F
102
{ACAD_REACTORS
330
62
102
}
330
62
100
AcDbPlotSettings
  1

  2

  4

  6

 40
0.0
 41
0.0
 42
0.0
 43
0.0
 44
0.0
 45
0.0
 46
0.0
 47
0.0
 48
0.0
 49
0.0
140
0.0
141
0.0
142
1.0
143
1.0
 70
   688
 72
     0
 73
     0
 74
     5
  7

 75
    16
147
1.0
 76
     0
 77
     2
 78
   300
148
0.0
149
0.0
100
AcDbLayout
  1
Layout1
 70
     1
 71
     1
 10
0.0
 20
0.0
 11
12.0
 21
9.0
 12
0.0
 22
0.0
 32
0.0
 14
0.0
 24
0.0
 34
0.0
 15
0.0
 25
0.0
 35
0.0
146
0.0
 13
0.0
 23
0.0
 33
0.0
 16
1.0
 26
0.0
 36
0.0
 17
0.0
 27
1.0
 37
0.0
 76
     0
330
6C
  0
LAYOUT
  5
77
102
{ACAD_REACTORS
330
62
102
}
330
62
100
AcDbPlotSettings
  1

  2

  4

  6

 40
0.0
 41
0.0
 42
0.0
 43
0.0
 44
0.0
 45
0.0
 46
0.0
 47
0.0
 48
0.0
 49
0.0
140
0.0
141
0.0
142
1.0
143
1.0
 70
   688
 72
     0
 73
     0
 74
     5
  7

 75
    16
147
1.0
 76
     0
 77
     2
 78
   300
148
0.0
149
0.0
100
AcDbLayout
  1
Layout2
 70
     1
 71
     2
 10
0.0
 20
0.0
 11
12.0
 21
9.0
 12
0.0
 22
0.0
 32
0.0
 14
0.0
 24
0.0
 34
0.0
 15
0.0
 25
0.0
 35
0.0
146
0.0
 13
0.0
 23
0.0
 33
0.0
 16
1.0
 26
0.0
 36
0.0
 17
0.0
 27
1.0
 37
0.0
 76
     0
330
74
  0
LAYOUT
  5
73
102
{ACAD_REACTORS
330
62
102
}
330
62
100
AcDbPlotSettings
  1

  2

  4

  6

 40
0.0
 41
0.0
 42
0.0
 43
0.0
 44
0.0
 45
0.0
 46
0.0
 47
0.0
 48
0.0
 49
0.0
140
0.0
141
0.0
142
1.0
143
1.0
 70
  1712
 72
     0
 73
     0
 74
     0
  7

 75
     0
147
1.0
 76
     0
 77
     2
 78
   300
148
0.0
149
0.0
100
AcDbLayout
  1
Model
 70
     1
 71
     0
 10
0.0
 20
0.0
 11
12.0
 21
9.0
 12
0.0
 22
0.0
 32
0.0
 14
0.0
 24
0.0
 34
0.0
 15
0.0
 25
0.0
 35
0.0
146
0.0
 13
0.0
 23
0.0
 33
0.0
 16
1.0
 26
0.0
 36
0.0
 17
0.0
 27
1.0
 37
0.0
 76
     0
330
70
  0
MATERIAL
  5
19
102
{ACAD_XDICTIONARY
360
1A
102
}
102
{ACAD_REACTORS
330
10
102
}
330
10
100
AcDbMaterial
  1
ByBlock
 72
     0
 43
0.0208333333333333
 43
0.0
 43
0.0
 43
0.0
 43
0.0
 43
0.0208333333333333
 43
0.0
 43
0.0
 43
0.0
 43
0.0
 43
1.0
 43
0.0
 43
0.0
 43
0.0
 43
0.0
 43
1.0
 77
     0
 47
0.0208333333333333
 47
0.0
 47
0.0
 47
0.0
 47
0.0
 47
0.0208333333333333
 47
0.0
 47
0.0
 47
0.0
 47
0.0
 47
1.0
 47
0.0
 47
0.0
 47
0.0
 47
0.0
 47
1.0
171
     0
 49
0.0208333333333333
 49
0.0
 49
0.0
 49
0.0
 49
0.0
 49
0.0208333333333333
 49
0.0
 49
0.0
 49
0.0
 49
0.0
 49
1.0
 49
0.0
 49
0.0
 49
0.0
 49
0.0
 49
1.0
175
     0
142
0.0208333333333333
142
0.0
142
0.0
142
0.0
142
0.0
142
0.0208333333333333
142
0.0
142
0.0
142
0.0
142
0.0
142
1.0
142
0.0
142
0.0
142
0.0
142
0.0
142
1.0
179
     0
144
0.0208333333333333
144
0.0
144
0.0
144
0.0
144
0.0
144
0.0208333333333333
144
0.0
144
0.0
144
0.0
144
0.0
144
1.0
144
0.0
144
0.0
144
0.0
144
0.0
144
1.0
147
0.0208333333333333
147
0.0
147
0.0
147
0.0
147
0.0
147
0.0208333333333333
147
0.0
147
0.0
147
0.0
147
0.0
147
1.0
147
0.0
147
0.0
147
0.0
147
0.0
147
1.0
  0
MATERIAL
  5
11
102
{ACAD_XDICTIONARY
360
12
102
}
102
{ACAD_REACTORS
330
10
102
}
330
10
100
AcDbMaterial
  1
ByLayer
 72
     0
 43
0.0208333333333333
 43
0.0
 43
0.0
 43
0.0
 43
0.0
 43
0.0208333333333333
 43
0.0
 43
0.0
 43
0.0
 43
0.0
 43
1.0
 43
0.0
 43
0.0
 43
0.0
 43
0.0
 43
1.0
 77
     0
 47
0.0208333333333333
 47
0.0
 47
0.0
 47
0.0
 47
0.0
 47
0.0208333333333333
 47
0.0
 47
0.0
 47
0.0
 47
0.0
 47
1.0
 47
0.0
 47
0.0
 47
0.0
 47
0.0
 47
1.0
171
     0
 49
0.0208333333333333
 49
0.0
 49
0.0
 49
0.0
 49
0.0
 49
0.0208333333333333
 49
0.0
 49
0.0
 49
0.0
 49
0.0
 49
1.0
 49
0.0
 49
0.0
 49
0.0
 49
0.0
 49
1.0
175
     0
142
0.0208333333333333
142
0.0
142
0.0
142
0.0
142
0.0
142
0.0208333333333333
142
0.0
142
0.0
142
0.0
142
0.0
142
1.0
142
0.0
142
0.0
142
0.0
142
0.0
142
1.0
179
     0
144
0.0208333333333333
144
0.0
144
0.0
144
0.0
144
0.0
144
0.0208333333333333
144
0.0
144
0.0
144
0.0
144
0.0
144
1.0
144
0.0
144
0.0
144
0.0
144
0.0
144
1.0
147
0.0208333333333333
147
0.0
147
0.0
147
0.0
147
0.0
147
0.0208333333333333
147
0.0
147
0.0
147
0.0
147
0.0
147
1.0
147
0.0
147
0.0
147
0.0
147
0.0
147
1.0
  0
MATERIAL
  5
21
102
{ACAD_XDICTIONARY
360
22
102
}
102
{ACAD_REACTORS
330
10
102
}
330
10
100
AcDbMaterial
  1
Global
 72
     0
 43
0.0208333333333333
 43
0.0
 43
0.0
 43
0.0
 43
0.0
 43
0.0208333333333333
 43
0.0
 43
0.0
 43
0.0
 43
0.0
 43
1.0
 43
0.0
 43
0.0
 43
0.0
 43
0.0
 43
1.0
 77
     0
 47
0.0208333333333333
 47
0.0
 47
0.0
 47
0.0
 47
0.0
 47
0.0208333333333333
 47
0.0
 47
0.0
 47
0.0
 47
0.0
 47
1.0
 47
0.0
 47
0.0
 47
0.0
 47
0.0
 47
1.0
171
     0
 49
0.0208333333333333
 49
0.0
 49
0.0
 49
0.0
 49
0.0
 49
0.0208333333333333
 49
0.0
 49
0.0
 49
0.0
 49
0.0
 49
1.0
 49
0.0
 49
0.0
 49
0.0
 49
0.0
 49
1.0
175
     0
142
0.0208333333333333
142
0.0
142
0.0
142
0.0
142
0.0
142
0.0208333333333333
142
0.0
142
0.0
142
0.0
142
0.0
142
1.0
142
0.0
142
0.0
142
0.0
142
0.0
142
1.0
179
     0
144
0.0208333333333333
144
0.0
144
0.0
144
0.0
144
0.0
144
0.0208333333333333
144
0.0
144
0.0
144
0.0
144
0.0
144
1.0
144
0.0
144
0.0
144
0.0
144
0.0
144
1.0
147
0.0208333333333333
147
0.0
147
0.0
147
0.0
147
0.0
147
0.0208333333333333
147
0.0
147
0.0
147
0.0
147
0.0
147
1.0
147
0.0
147
0.0
147
0.0
147
0.0
147
1.0
  0
MLEADERSTYLE
  5
67
102
{ACAD_REACTORS
330
66
102
}
330
66
100
AcDbMLeaderStyle
179
     2
170
     2
171
     1
172
     0
 90
        2
 40
0.0
 41
0.0
173
     1
 91
-1056964608
340
5B
 92
       -2
290
     1
 42
0.09
291
     1
 43
0.36
  3
Standard
 44
0.18
300

342
55
174
     1
178
     6
175
     1
176
     0
 93
-1056964608
 45
0.18
292
     0
297
     0
 46
0.18
 94
-1056964608
 47
1.0
 49
1.0
140
1.0
293
     1
141
0.0
294
     1
177
     0
142
1.0
295
     0
296
     0
143
0.125
271
     0
272
     9
273
     9
298
     1
  0
MLINESTYLE
  5
60
102
{ACAD_REACTORS
330
5F
102
}
330
5F
100
AcDbMlineStyle
  2
STANDARD
 70
     0
  3

 62
   256
 51
90.0
 52
90.0
 71
     2
 49
0.5
 62
   256
  6
BYLAYER
 49
-0.5
 62
   256
  6
BYLAYER
  0
ACDBPLACEHOLDER
  5
F
102
{ACAD_REACTORS
330
E
102
}
330
E
  0
SCALE
  5
43
102
{ACAD_REACTORS
330
42
102
}
330
42
100
AcDbScale
 70
     0
300
1:1
140
1.0
141
1.0
290
     1
  0
SCALE
  5
44
102
{ACAD_REACTORS
330
42
102
}
330
42
100
AcDbScale
 70
     0
300
1/128" = 1'-0"
140
0.0078125
141
12.0
290
     0
  0
SCALE
  5
45
102
{ACAD_REACTORS
330
42
102
}
330
42
100
AcDbScale
 70
     0
300
1/64" = 1'-0"
140
0.015625
141
12.0
290
     0
  0
SCALE
  5
46
102
{ACAD_REACTORS
330
42
102
}
330
42
100
AcDbScale
 70
     0
300
1/32" = 1'-0"
140
0.03125
141
12.0
290
     0
  0
SCALE
  5
47
102
{ACAD_REACTORS
330
42
102
}
330
42
100
AcDbScale
 70
     0
300
1/16" = 1'-0"
140
0.0625
141
12.0
290
     0
  0
SCALE
  5
48
102
{ACAD_REACTORS
330
42
102
}
330
42
100
AcDbScale
 70
     0
300
3/32" = 1'-0"
140
0.09375
141
12.0
290
     0
  0
SCALE
  5
49
102
{ACAD_REACTORS
330
42
102
}
330
42
100
AcDbScale
 70
     0
300
1/8" = 1'-0"
140
0.125
141
12.0
290
     0
  0
SCALE
  5
4A
102
{ACAD_REACTORS
330
42
102
}
330
42
100
AcDbScale
 70
     0
300
3/16" = 1'-0"
140
0.1875
141
12.0
290
     0
  0
SCALE
  5
4B
102
{ACAD_REACTORS
330
42
102
}
330
42
100
AcDbScale
 70
     0
300
1/4" = 1'-0"
140
0.25
141
12.0
290
     0
  0
SCALE
  5
4C
102
{ACAD_REACTORS
330
42
102
}
330
42
100
AcDbScale
 70
     0
300
3/8" = 1'-0"
140
0.375
141
12.0
290
     0
  0
SCALE
  5
4D
102
{ACAD_REACTORS
330
42
102
}
330
42
100
AcDbScale
 70
     0
300
1/2" = 1'-0"
140
0.5
141
12.0
290
     0
  0
SCALE
  5
4E
102
{ACAD_REACTORS
330
42
102
}
330
42
100
AcDbScale
 70
     0
300
3/4" = 1'-0"
140
0.75
141
12.0
290
     0
  0
SCALE
  5
4F
102
{ACAD_REACTORS
330
42
102
}
330
42
100
AcDbScale
 70
     0
300
1" = 1'-0"
140
1.0
141
12.0
290
     0
  0
SCALE
  5
50
102
{ACAD_REACTORS
330
42
102
}
330
42
100
AcDbScale
 70
     0
300
1-1/2" = 1'-0"
140
1.5
141
12.0
290
     0
  0
SCALE
  5
51
102
{ACAD_REACTORS
330
42
102
}
330
42
100
AcDbScale
 70
     0
300
3" = 1'-0"
140
3.0
141
12.0
290
     0
  0
SCALE
  5
52
102
{ACAD_REACTORS
330
42
102
}
330
42
100
AcDbScale
 70
     0
300
6" = 1'-0"
140
6.0
141
12.0
290
     0
  0
SCALE
  5
53
102
{ACAD_REACTORS
330
42
102
}
330
42
100
AcDbScale
 70
     0
300
1'-0" = 1'-0"
140
12.0
141
12.0
290
     0
  0
ACDBSECTIONVIEWSTYLE
  5
69
102
{ACAD_XDICTIONARY
360
91
102
}
102
{ACAD_REACTORS
330
68
102
}
330
68
100
AcDbModelDocViewStyle
 70
     0
  3
Imperial24
290
     0
100
AcDbSectionViewStyle
 70
     0
 71
     0
 90
       78
 71
     1
340
55
 62
   256
 40
0.24
340
0
340
0
 62
   256
 40
0.24
300
I, O, Q, S, X, Z
 40
0.48
 90
        3
 40
0.18
 90
        1
 71
     2
340
5D
 90
       25
 62
   256
340
5D
 90
       50
 62
   256
 40
0.24
 40
0.0
 40
0.24
 71
     3
340
55
 62
   256
 40
0.24
 90
        1
 40
0.75
 90
        1
300
%<\AcVar ViewType \f "%tc1">% %<\AcVar ViewSectionStartId>%-%<\AcVar ViewSectionEndId>%\PSCALE %<\AcVar ViewScale \f "%sn">%
 71
     4
 62
   256
 62
   257
300
ANSI31
 40
1.0
 90
        0
290
     0
290
     0
 90
        6
 40
0.0
 40
1.570796326794896
 40
0.2617993877991494
 40
1.308996938995747
 40
-0.2617993877991494
 40
1.832595714594046
  0
TABLESTYLE
  5
65
102
{ACAD_XDICTIONARY
360
8E
102
}
102
{ACAD_REACTORS
330
64
102
}
330
64
100
AcDbTableStyle
280
     0
  3
Standard
 70
     0
 71
     0
 40
0.06
 41
0.06
280
     0
281
     0
  7
Standard
140
0.18
170
     2
 62
     0
 63
     7
283
     0
 90
      512
 91
        0
  1

274
    -2
284
     1
 64
     0
275
    -2
285
     1
 65
     0
276
    -2
286
     1
 66
     0
277
    -2
287
     1
 67
     0
278
    -2
288
     1
 68
     0
279
    -2
289
     1
 69
     0
  7
Standard
140
0.25
170
     5
 62
     0
 63
     7
283
     0
 90
      512
 91
        0
  1

274
    -2
284
     1
 64
     0
275
    -2
285
     1
 65
     0
276
    -2
286
     1
 66
     0
277
    -2
287
     1
 67
     0
278
    -2
288
     1
 68
     0
279
    -2
289
     1
 69
     0
  7
Standard
140
0.18
170
     5
 62
     0
 63
     7
283
     0
 90
      512
 91
        0
  1

274
    -2
284
     1
 64
     0
275
    -2
285
     1
 65
     0
276
    -2
286
     1
 66
     0
277
    -2
287
     1
 67
     0
278
    -2
288
     1
 68
     0
279
    -2
289
     1
 69
     0
  0
VISUALSTYLE
  5
2F
102
{ACAD_REACTORS
330
29
102
}
330
29
100
AcDbVisualStyle
  2
2dWireframe
 70
     4
177
     3
291
     0
 70
    58
 90
        0
176
     1
 90
        2
176
     1
 90
        0
176
     1
 90
        0
176
     1
 40
0.6
176
     1
 40
30.0
176
     1
 62
     7
420
 16777215
176
     1
 90
        1
176
     1
 90
        4
176
     1
 62
     7
176
     1
 62
   257
176
     1
 90
        1
176
     1
 90
        1
176
     1
 40
1.0
176
     1
 90
        0
176
     1
 62
   257
176
     1
 40
1.0
176
     1
 90
        1
176
     1
 90
        6
176
     1
 90
        2
176
     1
 62
     7
176
     1
 90
        5
176
     1
 90
        0
176
     1
 90
        0
176
     1
290
     0
176
     1
 90
        1
176
     1
 40
0.0
176
     1
 90
        0
176
     1
290
     1
176
     1
290
     1
176
     1
290
     0
176
     1
290
     0
176
     1
290
     0
176
     1
290
     0
176
     1
290
     0
176
     1
290
     0
176
     1
290
     0
176
     1
 90
       50
176
     1
 40
0.0
176
     1
 40
1.0
176
     1
 90
        0
176
     1
 62
    18
420
        0
176
     1
 90
       50
176
     1
 90
        3
176
     1
 62
     5
420
      255
176
     1
290
     0
176
     1
 90
       50
176
     1
 90
       50
176
     1
 90
       50
176
     1
290
     0
176
     1
 90
       50
176
     1
 62
   256
176
     0
 40
1.0
176
     0
 90
        2
176
     1
  1
strokes_ogs.tif
176
     1
290
     0
176
     1
 40
1.0
176
     1
 40
1.0
176
     1
1001
ACAD
1000
AcDbSavedByObjectVersion
1070
     0
  0
VISUALSTYLE
  5
2E
102
{ACAD_REACTORS
330
29
102
}
330
29
100
AcDbVisualStyle
  2
Basic
 70
     7
177
     3
291
     1
 70
    58
 90
        1
176
     1
 90
        0
176
     1
 90
        1
176
     1
 90
        0
176
     1
 40
0.6
176
     1
 40
30.0
176
     1
 62
     7
420
 16777215
176
     1
 90
        0
176
     1
 90
        4
176
     1
 62
     7
176
     1
 62
   257
176
     1
 90
        1
176
     1
 90
        1
176
     1
 40
1.0
176
     1
 90
        8
176
     1
 62
     7
176
     1
 40
1.0
176
     1
 90
        1
176
     1
 90
        6
176
     1
 90
        2
176
     1
 62
     7
176
     1
 90
        5
176
     1
 90
        0
176
     1
 90
        0
176
     1
290
     0
176
     1
 90
        1
176
     1
 40
0.0
176
     1
 90
        0
176
     1
290
     0
176
     1
290
     1
176
     1
290
     1
176
     1
290
     0
176
     1
290
     0
176
     1
290
     0
176
     1
290
     0
176
     1
290
     0
176
     1
290
     0
176
     1
 90
       50
176
     1
 40
0.0
176
     1
 40
1.0
176
     1
 90
        0
176
     1
 62
    18
420
        0
176
     1
 90
       50
176
     1
 90
        3
176
     1
 62
     5
420
      255
176
     1
290
     0
176
     1
 90
       50
176
     1
 90
       50
176
     1
 90
       50
176
     1
290
     0
176
     1
 90
       50
176
     1
 62
   256
176
     0
 40
1.0
176
     0
 90
        2
176
     1
  1
strokes_ogs.tif
176
     1
290
     0
176
     1
 40
1.0
176
     1
 40
1.0
176
     1
1001
ACAD
1000
AcDbSavedByObjectVersion
1070
     0
  0
VISUALSTYLE
  5
35
102
{ACAD_REACTORS
330
29
102
}
330
29
100
AcDbVisualStyle
  2
Brighten
 70
    12
177
     3
291
     1
 70
    58
 90
        2
176
     1
 90
        2
176
     1
 90
        0
176
     1
 90
        0
176
     1
 40
0.6
176
     1
 40
30.0
176
     1
 62
     7
420
 16777215
176
     1
 90
        1
176
     1
 90
        4
176
     1
 62
     7
176
     1
 62
   257
176
     1
 90
        1
176
     1
 90
        1
176
     1
 40
1.0
176
     1
 90
        8
176
     1
 62
     7
176
     1
 40
1.0
176
     1
 90
        1
176
     1
 90
        6
176
     1
 90
        2
176
     1
 62
     7
176
     1
 90
        5
176
     1
 90
        0
176
     1
 90
        0
176
     1
290
     0
176
     1
 90
        1
176
     1
 40
50.0
176
     1
 90
        0
176
     1
290
     0
176
     1
290
     1
176
     1
290
     1
176
     1
290
     0
176
     1
290
     0
176
     1
290
     0
176
     1
290
     0
176
     1
290
     0
176
     1
290
     0
176
     1
 90
       50
176
     1
 40
0.0
176
     1
 40
1.0
176
     1
 90
        0
176
     1
 62
    18
420
        0
176
     1
 90
       50
176
     1
 90
        3
176
     1
 62
     5
420
      255
176
     1
290
     0
176
     1
 90
       50
176
     1
 90
       50
176
     1
 90
       50
176
     1
290
     0
176
     1
 90
       50
176
     1
 62
   256
176
     0
 40
1.0
176
     0
 90
        2
176
     1
  1
strokes_ogs.tif
176
     1
290
     0
176
     1
 40
1.0
176
     1
 40
1.0
176
     1
1001
ACAD
1000
AcDbSavedByObjectVersion
1070
     0
  0
VISUALSTYLE
  5
39
102
{ACAD_REACTORS
330
29
102
}
330
29
100
AcDbVisualStyle
  2
ColorChange
 70
    16
177
     3
291
     1
 70
    58
 90
        2
176
     1
 90
        2
176
     1
 90
        3
176
     1
 90
        0
176
     1
 40
0.6
176
     1
 40
30.0
176
     1
 62
     8
420
  8421504
176
     1
 90
        1
176
     1
 90
        4
176
     1
 62
     7
176
     1
 62
   257
176
     1
 90
        1
176
     1
 90
        1
176
     1
 40
1.0
176
     1
 90
        8
176
     1
 62
     8
420
  8421504
176
     1
 40
1.0
176
     1
 90
        1
176
     1
 90
        6
176
     1
 90
        2
176
     1
 62
     7
176
     1
 90
        5
176
     1
 90
        0
176
     1
 90
        0
176
     1
290
     0
176
     1
 90
        1
176
     1
 40
0.0
176
     1
 90
        0
176
     1
290
     0
176
     1
290
     1
176
     1
290
     1
176
     1
290
     0
176
     1
290
     0
176
     1
290
     0
176
     1
290
     0
176
     1
290
     0
176
     1
290
     0
176
     1
 90
       50
176
     1
 40
0.0
176
     1
 40
1.0
176
     1
 90
        0
176
     1
 62
    18
420
        0
176
     1
 90
       50
176
     1
 90
        3
176
     1
 62
     5
420
      255
176
     1
290
     0
176
     1
 90
       50
176
     1
 90
       50
176
     1
 90
       50
176
     1
290
     0
176
     1
 90
       50
176
     1
 62
   256
176
     0
 40
1.0
176
     0
 90
        2
176
     1
  1
strokes_ogs.tif
176
     1
290
     0
176
     1
 40
1.0
176
     1
 40
1.0
176
     1
1001
ACAD
1000
AcDbSavedByObjectVersion
1070
     0
  0
VISUALSTYLE
  5
32
102
{ACAD_REACTORS
330
29
102
}
330
29
100
AcDbVisualStyle
  2
Conceptual
 70
     9
177
     3
291
     0
 70
    58
 90
        3
176
     1
 90
        2
176
     1
 90
        0
176
     1
 90
        0
176
     1
 40
0.6
176
     1
 40
30.0
176
     1
 62
     7
420
 16777215
176
     1
 90
        2
176
     1
 90
        2
176
     1
 62
     7
176
     1
 62
   257
176
     1
 90
        1
176
     1
 90
        1
176
     1
 40
179.0
176
     1
 90
        8
176
     1
 62
     7
176
     1
 40
1.0
176
     1
 90
        1
176
     1
 90
        6
176
     1
 90
        2
176
     1
 62
     7
176
     1
 90
        3
176
     1
 90
        0
176
     1
 90
        0
176
     1
290
     0
176
     1
 90
        1
176
     1
 40
0.0
176
     1
 90
        0
176
     1
290
     0
176
     1
290
     1
176
     1
290
     1
176
     1
290
     0
176
     1
290
     0
176
     1
290
     0
176
     1
290
     0
176
     1
290
     0
176
     1
290
     0
176
     1
 90
       50
176
     1
 40
0.0
176
     1
 40
1.0
176
     1
 90
        0
176
     1
 62
    18
420
        0
176
     1
 90
       50
176
     1
 90
        3
176
     1
 62
     5
420
      255
176
     1
290
     0
176
     1
 90
       50
176
     1
 90
       50
176
     1
 90
       50
176
     1
290
     0
176
     1
 90
       50
176
     1
 62
   256
176
     0
 40
1.0
176
     0
 90
        2
176
     1
  1
strokes_ogs.tif
176
     1
290
     0
176
     1
 40
1.0
176
     1
 40
1.0
176
     1
1001
ACAD
1000
AcDbSavedByObjectVersion
1070
     0
  0
VISUALSTYLE
  5
34
102
{ACAD_REACTORS
330
29
102
}
330
29
100
AcDbVisualStyle
  2
Dim
 70
    11
177
     3
291
     1
 70
    58
 90
        2
176
     1
 90
        2
176
     1
 90
        0
176
     1
 90
        0
176
     1
 40
0.6
176
     1
 40
30.0
176
     1
 62
     7
420
 16777215
176
     1
 90
        1
176
     1
 90
        4
176
     1
 62
     7
176
     1
 62
   257
176
     1
 90
        1
176
     1
 90
        1
176
     1
 40
1.0
176
     1
 90
        8
176
     1
 62
     7
176
     1
 40
1.0
176
     1
 90
        1
176
     1
 90
        6
176
     1
 90
        2
176
     1
 62
     7
176
     1
 90
        5
176
     1
 90
        0
176
     1
 90
        0
176
     1
290
     0
176
     1
 90
        1
176
     1
 40
-50.0
176
     1
 90
        0
176
     1
290
     0
176
     1
290
     1
176
     1
290
     1
176
     1
290
     0
176
     1
290
     0
176
     1
290
     0
176
     1
290
     0
176
     1
290
     0
176
     1
290
     0
176
     1
 90
       50
176
     1
 40
0.0
176
     1
 40
1.0
176
     1
 90
        0
176
     1
 62
    18
420
        0
176
     1
 90
       50
176
     1
 90
        3
176
     1
 62
     5
420
      255
176
     1
290
     0
176
     1
 90
       50
176
     1
 90
       50
176
     1
 90
       50
176
     1
290
     0
176
     1
 90
       50
176
     1
 62
   256
176
     0
 40
1.0
176
     0
 90
        2
176
     1
  1
strokes_ogs.tif
176
     1
290
     0
176
     1
 40
1.0
176
     1
 40
1.0
176
     1
1001
ACAD
1000
AcDbSavedByObjectVersion
1070
     0
  0
VISUALSTYLE
  5
41
102
{ACAD_REACTORS
330
29
102
}
330
29
100
AcDbVisualStyle
  2
EdgeColorOff
 70
    22
177
     3
291
     1
 70
    58
 90
        2
176
     0
 90
        2
176
     0
 90
        0
176
     0
 90
        0
176
     0
 40
0.6
176
     0
 40
30.0
176
     0
 62
     7
420
 16777215
176
     0
 90
        1
176
     0
 90
        4
176
     0
 62
     7
176
     0
 62
   257
176
     0
 90
        1
176
     0
 90
        1
176
     0
 40
1.0
176
     0
 90
        8
176
     2
 62
     7
176
     0
 40
1.0
176
     0
 90
        1
176
     0
 90
        6
176
     0
 90
        2
176
     0
 62
     7
176
     0
 90
        5
176
     0
 90
        0
176
     0
 90
        0
176
     0
290
     0
176
     0
 90
        1
176
     0
 40
0.0
176
     0
 90
        0
176
     0
290
     0
176
     0
290
     1
176
     0
290
     1
176
     0
290
     0
176
     0
290
     0
176
     0
290
     0
176
     0
290
     0
176
     0
290
     0
176
     0
290
     0
176
     0
 90
       50
176
     0
 40
0.0
176
     0
 40
1.0
176
     0
 90
        0
176
     0
 62
    18
420
        0
176
     0
 90
       50
176
     0
 90
        3
176
     0
 62
     5
420
      255
176
     0
290
     0
176
     0
 90
       50
176
     0
 90
       50
176
     0
 90
       50
176
     0
290
     0
176
     0
 90
       50
176
     0
 62
   256
176
     0
 40
1.0
176
     0
 90
        2
176
     0
  1
strokes_ogs.tif
176
     0
290
     0
176
     0
 40
1.0
176
     0
 40
1.0
176
     0
1001
ACAD
1000
AcDbSavedByObjectVersion
1070
     0
  0
VISUALSTYLE
  5
38
102
{ACAD_REACTORS
330
29
102
}
330
29
100
AcDbVisualStyle
  2
Facepattern
 70
    15
177
     3
291
     1
 70
    58
 90
        2
176
     1
 90
        2
176
     1
 90
        0
176
     1
 90
        0
176
     1
 40
0.6
176
     1
 40
30.0
176
     1
 62
     7
420
 16777215
176
     1
 90
        1
176
     1
 90
        4
176
     1
 62
     7
176
     1
 62
   257
176
     1
 90
        1
176
     1
 90
        1
176
     1
 40
1.0
176
     1
 90
        8
176
     1
 62
     7
176
     1
 40
1.0
176
     1
 90
        1
176
     1
 90
        6
176
     1
 90
        2
176
     1
 62
     7
176
     1
 90
        5
176
     1
 90
        0
176
     1
 90
        0
176
     1
290
     0
176
     1
 90
        1
176
     1
 40
0.0
176
     1
 90
        0
176
     1
290
     0
176
     1
290
     1
176
     1
290
     1
176
     1
290
     0
176
     1
290
     0
176
     1
290
     0
176
     1
290
     0
176
     1
290
     0
176
     1
290
     0
176
     1
 90
       50
176
     1
 40
0.0
176
     1
 40
1.0
176
     1
 90
        0
176
     1
 62
    18
420
        0
176
     1
 90
       50
176
     1
 90
        3
176
     1
 62
     5
420
      255
176
     1
290
     0
176
     1
 90
       50
176
     1
 90
       50
176
     1
 90
       50
176
     1
290
     0
176
     1
 90
       50
176
     1
 62
   256
176
     0
 40
1.0
176
     0
 90
        2
176
     1
  1
strokes_ogs.tif
176
     1
290
     0
176
     1
 40
1.0
176
     1
 40
1.0
176
     1
1001
ACAD
1000
AcDbSavedByObjectVersion
1070
     0
  0
VISUALSTYLE
  5
2A
102
{ACAD_REACTORS
330
29
102
}
330
29
100
AcDbVisualStyle
  2
Flat
 70
     0
177
     3
291
     1
 70
    58
 90
        2
176
     1
 90
        1
176
     1
 90
        1
176
     1
 90
        2
176
     1
 40
0.6
176
     1
 40
30.0
176
     1
 62
     7
420
 16777215
176
     1
 90
        0
176
     1
 90
        0
176
     1
 62
     7
176
     1
 62
   257
176
     1
 90
        1
176
     1
 90
        1
176
     1
 40
1.0
176
     1
 90
        8
176
     1
 62
     7
176
     1
 40
1.0
176
     1
 90
        1
176
     1
 90
        6
176
     1
 90
        2
176
     1
 62
     7
176
     1
 90
        5
176
     1
 90
        0
176
     1
 90
        0
176
     1
290
     0
176
     1
 90
       13
176
     1
 40
0.0
176
     1
 90
        0
176
     1
290
     0
176
     1
290
     1
176
     1
290
     1
176
     1
290
     0
176
     1
290
     0
176
     1
290
     0
176
     1
290
     0
176
     1
290
     0
176
     1
290
     0
176
     1
 90
       50
176
     1
 40
0.0
176
     1
 40
1.0
176
     1
 90
        0
176
     1
 62
    18
420
        0
176
     1
 90
       50
176
     1
 90
        3
176
     1
 62
     5
420
      255
176
     1
290
     0
176
     1
 90
       50
176
     1
 90
       50
176
     1
 90
       50
176
     1
290
     0
176
     1
 90
       50
176
     1
 62
   256
176
     0
 40
1.0
176
     0
 90
        2
176
     1
  1
strokes_ogs.tif
176
     1
290
     0
176
     1
 40
1.0
176
     1
 40
1.0
176
     1
1001
ACAD
1000
AcDbSavedByObjectVersion
1070
     0
  0
VISUALSTYLE
  5
2B
102
{ACAD_REACTORS
330
29
102
}
330
29
100
AcDbVisualStyle
  2
FlatWithEdges
 70
     1
177
     3
291
     1
 70
    58
 90
        2
176
     1
 90
        1
176
     1
 90
        1
176
     1
 90
        2
176
     1
 40
0.6
176
     1
 40
30.0
176
     1
 62
     7
420
 16777215
176
     1
 90
        1
176
     1
 90
        0
176
     1
 62
     7
176
     1
 62
   257
176
     1
 90
        1
176
     1
 90
        1
176
     1
 40
1.0
176
     1
 90
        0
176
     1
 62
   257
176
     1
 40
1.0
176
     1
 90
        1
176
     1
 90
        6
176
     1
 90
        2
176
     1
 62
     7
176
     1
 90
        5
176
     1
 90
        0
176
     1
 90
        0
176
     1
290
     0
176
     1
 90
       13
176
     1
 40
0.0
176
     1
 90
        0
176
     1
290
     0
176
     1
290
     1
176
     1
290
     1
176
     1
290
     0
176
     1
290
     0
176
     1
290
     0
176
     1
290
     0
176
     1
290
     0
176
     1
290
     0
176
     1
 90
       50
176
     1
 40
0.0
176
     1
 40
1.0
176
     1
 90
        0
176
     1
 62
    18
420
        0
176
     1
 90
       50
176
     1
 90
        3
176
     1
 62
     5
420
      255
176
     1
290
     0
176
     1
 90
       50
176
     1
 90
       50
176
     1
 90
       50
176
     1
290
     0
176
     1
 90
       50
176
     1
 62
   256
176
     0
 40
1.0
176
     0
 90
        2
176
     1
  1
strokes_ogs.tif
176
     1
290
     0
176
     1
 40
1.0
176
     1
 40
1.0
176
     1
1001
ACAD
1000
AcDbSavedByObjectVersion
1070
     0
  0
VISUALSTYLE
  5
2C
102
{ACAD_REACTORS
330
29
102
}
330
29
100
AcDbVisualStyle
  2
Gouraud
 70
     2
177
     3
291
     1
 70
    58
 90
        2
176
     1
 90
        2
176
     1
 90
        1
176
     1
 90
        2
176
     1
 40
0.6
176
     1
 40
30.0
176
     1
 62
     7
420
 16777215
176
     1
 90
        0
176
     1
 90
        0
176
     1
 62
     7
176
     1
 62
   257
176
     1
 90
        1
176
     1
 90
        1
176
     1
 40
1.0
176
     1
 90
        0
176
     1
 62
     7
176
     1
 40
1.0
176
     1
 90
        1
176
     1
 90
        6
176
     1
 90
        2
176
     1
 62
     7
176
     1
 90
        5
176
     1
 90
        0
176
     1
 90
        0
176
     1
290
     0
176
     1
 90
       13
176
     1
 40
0.0
176
     1
 90
        0
176
     1
290
     0
176
     1
290
     1
176
     1
290
     1
176
     1
290
     0
176
     1
290
     0
176
     1
290
     0
176
     1
290
     0
176
     1
290
     0
176
     1
290
     0
176
     1
 90
       50
176
     1
 40
0.0
176
     1
 40
1.0
176
     1
 90
        0
176
     1
 62
    18
420
        0
176
     1
 90
       50
176
     1
 90
        3
176
     1
 62
     5
420
      255
176
     1
290
     0
176
     1
 90
       50
176
     1
 90
       50
176
     1
 90
       50
176
     1
290
     0
176
     1
 90
       50
176
     1
 62
   256
176
     0
 40
1.0
176
     0
 90
        2
176
     1
  1
strokes_ogs.tif
176
     1
290
     0
176
     1
 40
1.0
176
     1
 40
1.0
176
     1
1001
ACAD
1000
AcDbSavedByObjectVersion
1070
     0
  0
VISUALSTYLE
  5
2D
102
{ACAD_REACTORS
330
29
102
}
330
29
100
AcDbVisualStyle
  2
GouraudWithEdges
 70
     3
177
     3
291
     1
 70
    58
 90
        2
176
     1
 90
        2
176
     1
 90
        1
176
     1
 90
        2
176
     1
 40
0.6
176
     1
 40
30.0
176
     1
 62
     7
420
 16777215
176
     1
 90
        1
176
     1
 90
        0
176
     1
 62
     7
176
     1
 62
   257
176
     1
 90
        1
176
     1
 90
        1
176
     1
 40
1.0
176
     1
 90
        0
176
     1
 62
   257
176
     1
 40
1.0
176
     1
 90
        1
176
     1
 90
        6
176
     1
 90
        2
176
     1
 62
     7
176
     1
 90
        5
176
     1
 90
        0
176
     1
 90
        0
176
     1
290
     0
176
     1
 90
       13
176
     1
 40
0.0
176
     1
 90
        0
176
     1
290
     0
176
     1
290
     1
176
     1
290
     1
176
     1
290
     0
176
     1
290
     0
176
     1
290
     0
176
     1
290
     0
176
     1
290
     0
176
     1
290
     0
176
     1
 90
       50
176
     1
 40
0.0
176
     1
 40
1.0
176
     1
 90
        0
176
     1
 62
    18
420
        0
176
     1
 90
       50
176
     1
 90
        3
176
     1
 62
     5
420
      255
176
     1
290
     0
176
     1
 90
       50
176
     1
 90
       50
176
     1
 90
       50
176
     1
290
     0
176
     1
 90
       50
176
     1
 62
   256
176
     0
 40
1.0
176
     0
 90
        2
176
     1
  1
strokes_ogs.tif
176
     1
290
     0
176
     1
 40
1.0
176
     1
 40
1.0
176
     1
1001
ACAD
1000
AcDbSavedByObjectVersion
1070
     0
  0
VISUALSTYLE
  5
31
102
{ACAD_REACTORS
330
29
102
}
330
29
100
AcDbVisualStyle
  2
Hidden
 70
     6
177
     3
291
     0
 70
    58
 90
        1
176
     1
 90
        2
176
     1
 90
        2
176
     1
 90
        0
176
     1
 40
0.6
176
     1
 40
30.0
176
     1
 62
     7
420
 16777215
176
     1
 90
        2
176
     1
 90
        2
176
     1
 62
     7
176
     1
 62
   257
176
     1
 90
        2
176
     1
 90
        1
176
     1
 40
40.0
176
     1
 90
        0
176
     1
 62
   257
176
     1
 40
1.0
176
     1
 90
        1
176
     1
 90
        6
176
     1
 90
        2
176
     1
 62
     7
176
     1
 90
        3
176
     1
 90
        0
176
     1
 90
        0
176
     1
290
     0
176
     1
 90
        1
176
     1
 40
0.0
176
     1
 90
        0
176
     1
290
     0
176
     1
290
     1
176
     1
290
     1
176
     1
290
     0
176
     1
290
     0
176
     1
290
     0
176
     1
290
     0
176
     1
290
     0
176
     1
290
     0
176
     1
 90
       50
176
     1
 40
0.0
176
     1
 40
1.0
176
     1
 90
        0
176
     1
 62
    18
420
        0
176
     1
 90
       50
176
     1
 90
        3
176
     1
 62
     5
420
      255
176
     1
290
     0
176
     1
 90
       50
176
     1
 90
       50
176
     1
 90
       50
176
     1
290
     0
176
     1
 90
       50
176
     1
 62
   256
176
     0
 40
1.0
176
     0
 90
        2
176
     1
  1
strokes_ogs.tif
176
     1
290
     0
176
     1
 40
1.0
176
     1
 40
1.0
176
     1
1001
ACAD
1000
AcDbSavedByObjectVersion
1070
     0
  0
VISUALSTYLE
  5
3F
102
{ACAD_REACTORS
330
29
102
}
330
29
100
AcDbVisualStyle
  2
JitterOff
 70
    20
177
     3
291
     1
 70
    58
 90
        2
176
     0
 90
        2
176
     0
 90
        0
176
     0
 90
        0
176
     0
 40
0.6
176
     0
 40
30.0
176
     0
 62
     7
420
 16777215
176
     0
 90
        1
176
     0
 90
        4
176
     0
 62
     7
176
     0
 62
   257
176
     0
 90
        1
176
     0
 90
        1
176
     0
 40
1.0
176
     0
 90
       10
176
     2
 62
     7
176
     0
 40
1.0
176
     0
 90
        1
176
     0
 90
        6
176
     0
 90
        2
176
     0
 62
     7
176
     0
 90
        5
176
     0
 90
        0
176
     0
 90
        0
176
     0
290
     0
176
     0
 90
        1
176
     0
 40
0.0
176
     0
 90
        0
176
     0
290
     0
176
     0
290
     1
176
     0
290
     1
176
     0
290
     0
176
     0
290
     0
176
     0
290
     0
176
     0
290
     0
176
     0
290
     0
176
     0
290
     0
176
     0
 90
       50
176
     0
 40
0.0
176
     0
 40
1.0
176
     0
 90
        0
176
     0
 62
    18
420
        0
176
     0
 90
       50
176
     0
 90
        3
176
     0
 62
     5
420
      255
176
     0
290
     0
176
     0
 90
       50
176
     0
 90
       50
176
     0
 90
       50
176
     0
290
     0
176
     0
 90
       50
176
     0
 62
   256
176
     0
 40
1.0
176
     0
 90
        2
176
     0
  1
strokes_ogs.tif
176
     0
290
     0
176
     0
 40
1.0
176
     0
 40
1.0
176
     0
1001
ACAD
1000
AcDbSavedByObjectVersion
1070
     0
  0
VISUALSTYLE
  5
37
102
{ACAD_REACTORS
330
29
102
}
330
29
100
AcDbVisualStyle
  2
Linepattern
 70
    14
177
     3
291
     1
 70
    58
 90
        2
176
     1
 90
        2
176
     1
 90
        0
176
     1
 90
        0
176
     1
 40
0.6
176
     1
 40
30.0
176
     1
 62
     7
420
 16777215
176
     1
 90
        1
176
     1
 90
        4
176
     1
 62
     7
176
     1
 62
   257
176
     1
 90
        7
176
     1
 90
        7
176
     1
 40
1.0
176
     1
 90
        8
176
     1
 62
     7
176
     1
 40
1.0
176
     1
 90
        1
176
     1
 90
        6
176
     1
 90
        2
176
     1
 62
     7
176
     1
 90
        5
176
     1
 90
        0
176
     1
 90
        0
176
     1
290
     0
176
     1
 90
        1
176
     1
 40
0.0
176
     1
 90
        0
176
     1
290
     0
176
     1
290
     1
176
     1
290
     1
176
     1
290
     0
176
     1
290
     0
176
     1
290
     0
176
     1
290
     0
176
     1
290
     0
176
     1
290
     0
176
     1
 90
       50
176
     1
 40
0.0
176
     1
 40
1.0
176
     1
 90
        0
176
     1
 62
    18
420
        0
176
     1
 90
       50
176
     1
 90
        3
176
     1
 62
     5
420
      255
176
     1
290
     0
176
     1
 90
       50
176
     1
 90
       50
176
     1
 90
       50
176
     1
290
     0
176
     1
 90
       50
176
     1
 62
   256
176
     0
 40
1.0
176
     0
 90
        2
176
     1
  1
strokes_ogs.tif
176
     1
290
     0
176
     1
 40
1.0
176
     1
 40
1.0
176
     1
1001
ACAD
1000
AcDbSavedByObjectVersion
1070
     0
  0
VISUALSTYLE
  5
40
102
{ACAD_REACTORS
330
29
102
}
330
29
100
AcDbVisualStyle
  2
OverhangOff
 70
    21
177
     3
291
     1
 70
    58
 90
        2
176
     0
 90
        2
176
     0
 90
        0
176
     0
 90
        0
176
     0
 40
0.6
176
     0
 40
30.0
176
     0
 62
     7
420
 16777215
176
     0
 90
        1
176
     0
 90
        4
176
     0
 62
     7
176
     0
 62
   257
176
     0
 90
        1
176
     0
 90
        1
176
     0
 40
1.0
176
     0
 90
        9
176
     2
 62
     7
176
     0
 40
1.0
176
     0
 90
        1
176
     0
 90
        6
176
     0
 90
        2
176
     0
 62
     7
176
     0
 90
        5
176
     0
 90
        0
176
     0
 90
        0
176
     0
290
     0
176
     0
 90
        1
176
     0
 40
0.0
176
     0
 90
        0
176
     0
290
     0
176
     0
290
     1
176
     0
290
     1
176
     0
290
     0
176
     0
290
     0
176
     0
290
     0
176
     0
290
     0
176
     0
290
     0
176
     0
290
     0
176
     0
 90
       50
176
     0
 40
0.0
176
     0
 40
1.0
176
     0
 90
        0
176
     0
 62
    18
420
        0
176
     0
 90
       50
176
     0
 90
        3
176
     0
 62
     5
420
      255
176
     0
290
     0
176
     0
 90
       50
176
     0
 90
       50
176
     0
 90
       50
176
     0
290
     0
176
     0
 90
       50
176
     0
 62
   256
176
     0
 40
1.0
176
     0
 90
        2
176
     0
  1
strokes_ogs.tif
176
     0
290
     0
176
     0
 40
1.0
176
     0
 40
1.0
176
     0
1001
ACAD
1000
AcDbSavedByObjectVersion
1070
     0
  0
VISUALSTYLE
  5
33
102
{ACAD_REACTORS
330
29
102
}
330
29
100
AcDbVisualStyle
  2
Realistic
 70
     8
177
     3
291
     0
 70
    58
 90
        2
176
     1
 90
        3
176
     1
 90
        0
176
     1
 90
        2
176
     1
 40
0.6
176
     1
 40
30.0
176
     1
 62
     7
420
 16777215
176
     1
 90
        0
176
     1
 90
        0
176
     1
 62
     7
176
     1
 62
   257
176
     1
 90
        1
176
     1
 90
        1
176
     1
 40
1.0
176
     1
 90
        8
176
     1
 62
   257
176
     1
 40
1.0
176
     1
 90
        1
176
     1
 90
        6
176
     1
 90
        2
176
     1
 62
     7
176
     1
 90
        3
176
     1
 90
        0
176
     1
 90
        0
176
     1
290
     0
176
     1
 90
       13
176
     1
 40
0.0
176
     1
 90
        0
176
     1
290
     0
176
     1
290
     1
176
     1
290
     1
176
     1
290
     0
176
     1
290
     0
176
     1
290
     0
176
     1
290
     0
176
     1
290
     0
176
     1
290
     0
176
     1
 90
       50
176
     1
 40
0.0
176
     1
 40
1.0
176
     1
 90
        0
176
     1
 62
    18
420
        0
176
     1
 90
       50
176
     1
 90
        3
176
     1
 62
     5
420
      255
176
     1
290
     0
176
     1
 90
       50
176
     1
 90
       50
176
     1
 90
       50
176
     1
290
     0
176
     1
 90
       50
176
     1
 62
   256
176
     0
 40
1.0
176
     0
 90
        2
176
     1
  1
strokes_ogs.tif
176
     1
290
     0
176
     1
 40
1.0
176
     1
 40
1.0
176
     1
1001
ACAD
1000
AcDbSavedByObjectVersion
1070
     0
  0
VISUALSTYLE
  5
3E
102
{ACAD_REACTORS
330
29
102
}
330
29
100
AcDbVisualStyle
  2
Shaded
 70
    27
177
     3
291
     0
 70
    58
 90
        2
176
     1
 90
        2
176
     1
 90
        1
176
     1
 90
        2
176
     1
 40
0.6
176
     1
 40
30.0
176
     1
 62
     7
420
 16777215
176
     1
 90
        0
176
     1
 90
        4
176
     1
 62
     7
176
     1
 62
   257
176
     1
 90
        1
176
     1
 90
        1
176
     1
 40
1.0
176
     1
 90
        8
176
     1
 62
   257
176
     1
 40
1.0
176
     1
 90
        1
176
     1
 90
        6
176
     1
 90
        2
176
     1
 62
     8
420
  7895160
176
     1
 90
        3
176
     1
 90
        0
176
     1
 90
        0
176
     1
290
     0
176
     1
 90
        5
176
     1
 40
0.0
176
     1
 90
        0
176
     1
290
     0
176
     1
290
     1
176
     1
290
     1
176
     1
290
     0
176
     1
290
     0
176
     1
290
     0
176
     1
290
     0
176
     1
290
     0
176
     1
290
     0
176
     1
 90
       50
176
     1
 40
0.0
176
     1
 40
1.0
176
     1
 90
        0
176
     1
 62
    18
420
        0
176
     1
 90
       50
176
     1
 90
        3
176
     1
 62
     5
420
      255
176
     1
290
     0
176
     1
 90
       50
176
     1
 90
       50
176
     1
 90
       50
176
     1
290
     0
176
     1
 90
       50
176
     1
 62
   256
176
     0
 40
1.0
176
     0
 90
        2
176
     1
  1
strokes_ogs.tif
176
     1
290
     0
176
     1
 40
1.0
176
     1
 40
1.0
176
     1
1001
ACAD
1000
AcDbSavedByObjectVersion
1070
     0
  0
VISUALSTYLE
  5
3D
102
{ACAD_REACTORS
330
29
102
}
330
29
100
AcDbVisualStyle
  2
Shaded with edges
 70
    26
177
     3
291
     0
 70
    58
 90
        2
176
     1
 90
        2
176
     1
 90
        1
176
     1
 90
        2
176
     1
 40
0.6
176
     1
 40
30.0
176
     1
 62
     7
420
 16777215
176
     1
 90
        1
176
     1
 90
        2
176
     1
 62
     7
176
     1
 62
   257
176
     1
 90
        2
176
     1
 90
        1
176
     1
 40
1.0
176
     1
 90
        8
176
     1
 62
   257
176
     1
 40
1.0
176
     1
 90
        1
176
     1
 90
        6
176
     1
 90
        2
176
     1
 62
     7
176
     1
 90
        3
176
     1
 90
        0
176
     1
 90
        0
176
     1
290
     0
176
     1
 90
        5
176
     1
 40
0.0
176
     1
 90
        0
176
     1
290
     0
176
     1
290
     1
176
     1
290
     1
176
     1
290
     0
176
     1
290
     0
176
     1
290
     0
176
     1
290
     0
176
     1
290
     0
176
     1
290
     0
176
     1
 90
       50
176
     1
 40
0.0
176
     1
 40
1.0
176
     1
 90
        0
176
     1
 62
    18
420
        0
176
     1
 90
       50
176
     1
 90
        3
176
     1
 62
     5
420
      255
176
     1
290
     0
176
     1
 90
       50
176
     1
 90
       50
176
     1
 90
       50
176
     1
290
     0
176
     1
 90
       50
176
     1
 62
   256
176
     0
 40
1.0
176
     0
 90
        2
176
     1
  1
strokes_ogs.tif
176
     1
290
     0
176
     1
 40
1.0
176
     1
 40
1.0
176
     1
1001
ACAD
1000
AcDbSavedByObjectVersion
1070
     0
  0
VISUALSTYLE
  5
3A
102
{ACAD_REACTORS
330
29
102
}
330
29
100
AcDbVisualStyle
  2
Shades of Gray
 70
    23
177
     3
291
     0
 70
    58
 90
        2
176
     1
 90
        2
176
     1
 90
        3
176
     1
 90
        0
176
     1
 40
0.6
176
     1
 40
30.0
176
     1
 62
     7
420
 16777215
176
     1
 90
        2
176
     1
 90
        2
176
     1
 62
     7
176
     1
 62
     7
176
     1
 90
        1
176
     1
 90
        1
176
     1
 40
40.0
176
     1
 90
        8
176
     1
 62
     7
176
     1
 40
1.0
176
     1
 90
        1
176
     1
 90
        6
176
     1
 90
        2
176
     1
 62
     7
176
     1
 90
        3
176
     1
 90
        0
176
     1
 90
        0
176
     1
290
     0
176
     1
 90
        1
176
     1
 40
0.0
176
     1
 90
        0
176
     1
290
     0
176
     1
290
     1
176
     1
290
     1
176
     1
290
     0
176
     1
290
     0
176
     1
290
     0
176
     1
290
     0
176
     1
290
     0
176
     1
290
     0
176
     1
 90
       50
176
     1
 40
0.0
176
     1
 40
1.0
176
     1
 90
        0
176
     1
 62
    18
420
        0
176
     1
 90
       50
176
     1
 90
        3
176
     1
 62
     5
420
      255
176
     1
290
     0
176
     1
 90
       50
176
     1
 90
       50
176
     1
 90
       50
176
     1
290
     0
176
     1
 90
       50
176
     1
 62
   256
176
     0
 40
1.0
176
     0
 90
        2
176
     1
  1
strokes_ogs.tif
176
     1
290
     0
176
     1
 40
1.0
176
     1
 40
1.0
176
     1
1001
ACAD
1000
AcDbSavedByObjectVersion
1070
     0
  0
VISUALSTYLE
  5
3B
102
{ACAD_REACTORS
330
29
102
}
330
29
100
AcDbVisualStyle
  2
Sketchy
 70
    24
177
     3
291
     0
 70
    58
 90
        1
176
     1
 90
        2
176
     1
 90
        2
176
     1
 90
        0
176
     1
 40
0.6
176
     1
 40
30.0
176
     1
 62
     7
420
 16777215
176
     1
 90
        2
176
     1
 90
        2
176
     1
 62
     7
176
     1
 62
     7
176
     1
 90
        1
176
     1
 90
        1
176
     1
 40
40.0
176
     1
 90
       11
176
     1
 62
     7
176
     1
 40
1.0
176
     1
 90
        1
176
     1
 90
        6
176
     1
 90
        2
176
     1
 62
     7
176
     1
 90
        6
176
     1
 90
        0
176
     1
 90
        0
176
     1
290
     0
176
     1
 90
        1
176
     1
 40
0.0
176
     1
 90
        0
176
     1
290
     0
176
     1
290
     1
176
     1
290
     1
176
     1
290
     0
176
     1
290
     0
176
     1
290
     0
176
     1
290
     0
176
     1
290
     0
176
     1
290
     0
176
     1
 90
       50
176
     1
 40
0.0
176
     1
 40
1.0
176
     1
 90
        0
176
     1
 62
    18
420
        0
176
     1
 90
       50
176
     1
 90
        3
176
     1
 62
     5
420
      255
176
     1
290
     0
176
     1
 90
       50
176
     1
 90
       50
176
     1
 90
       50
176
     1
290
     0
176
     1
 90
       50
176
     1
 62
   256
176
     0
 40
1.0
176
     0
 90
        2
176
     1
  1
strokes_ogs.tif
176
     1
290
     0
176
     1
 40
1.0
176
     1
 40
1.0
176
     1
1001
ACAD
1000
AcDbSavedByObjectVersion
1070
     0
  0
VISUALSTYLE
  5
36
102
{ACAD_REACTORS
330
29
102
}
330
29
100
AcDbVisualStyle
  2
Thicken
 70
    13
177
     3
291
     1
 70
    58
 90
        2
176
     1
 90
        2
176
     1
 90
        0
176
     1
 90
        0
176
     1
 40
0.6
176
     1
 40
30.0
176
     1
 62
     7
420
 16777215
176
     1
 90
        1
176
     1
 90
        4
176
     1
 62
     7
176
     1
 62
   257
176
     1
 90
        1
176
     1
 90
        1
176
     1
 40
1.0
176
     1
 90
       12
176
     1
 62
     7
176
     1
 40
1.0
176
     1
 90
        1
176
     1
 90
        6
176
     1
 90
        2
176
     1
 62
     7
176
     1
 90
        5
176
     1
 90
        0
176
     1
 90
        0
176
     1
290
     0
176
     1
 90
        1
176
     1
 40
0.0
176
     1
 90
        0
176
     1
290
     0
176
     1
290
     1
176
     1
290
     1
176
     1
290
     0
176
     1
290
     0
176
     1
290
     0
176
     1
290
     0
176
     1
290
     0
176
     1
290
     0
176
     1
 90
       50
176
     1
 40
0.0
176
     1
 40
1.0
176
     1
 90
        0
176
     1
 62
    18
420
        0
176
     1
 90
       50
176
     1
 90
        3
176
     1
 62
     5
420
      255
176
     1
290
     0
176
     1
 90
       50
176
     1
 90
       50
176
     1
 90
       50
176
     1
290
     0
176
     1
 90
       50
176
     1
 62
   256
176
     0
 40
1.0
176
     0
 90
        2
176
     1
  1
strokes_ogs.tif
176
     1
290
     0
176
     1
 40
1.0
176
     1
 40
1.0
176
     1
1001
ACAD
1000
AcDbSavedByObjectVersion
1070
     0
  0
VISUALSTYLE
  5
30
102
{ACAD_REACTORS
330
29
102
}
330
29
100
AcDbVisualStyle
  2
Wireframe
 70
     5
177
     3
291
     0
 70
    58
 90
        0
176
     1
 90
        2
176
     1
 90
        0
176
     1
 90
        0
176
     1
 40
0.6
176
     1
 40
30.0
176
     1
 62
     7
420
 16777215
176
     1
 90
        1
176
     1
 90
        4
176
     1
 62
     7
176
     1
 62
   257
176
     1
 90
        1
176
     1
 90
        1
176
     1
 40
1.0
176
     1
 90
        0
176
     1
 62
   257
176
     1
 40
1.0
176
     1
 90
        1
176
     1
 90
        6
176
     1
 90
        2
176
     1
 62
     7
176
     1
 90
        3
176
     1
 90
        0
176
     1
 90
        0
176
     1
290
     0
176
     1
 90
        1
176
     1
 40
0.0
176
     1
 90
        0
176
     1
290
     0
176
     1
290
     1
176
     1
290
     1
176
     1
290
     0
176
     1
290
     0
176
     1
290
     0
176
     1
290
     0
176
     1
290
     0
176
     1
290
     0
176
     1
 90
       50
176
     1
 40
0.0
176
     1
 40
1.0
176
     1
 90
        0
176
     1
 62
    18
420
        0
176
     1
 90
       50
176
     1
 90
        3
176
     1
 62
     5
420
      255
176
     1
290
     0
176
     1
 90
       50
176
     1
 90
       50
176
     1
 90
       50
176
     1
290
     0
176
     1
 90
       50
176
     1
 62
   256
176
     0
 40
1.0
176
     0
 90
        2
176
     1
  1
strokes_ogs.tif
176
     1
290
     0
176
     1
 40
1.0
176
     1
 40
1.0
176
     1
1001
ACAD
1000
AcDbSavedByObjectVersion
1070
     0
  0
VISUALSTYLE
  5
3C
102
{ACAD_REACTORS
330
29
102
}
330
29
100
AcDbVisualStyle
  2
X-Ray
 70
    25
177
     3
291
     0
 70
    58
 90
        2
176
     1
 90
        2
176
     1
 90
        1
176
     1
 90
        1
176
     1
 40
0.5
176
     1
 40
30.0
176
     1
 62
     7
420
 16777215
176
     1
 90
        1
176
     1
 90
        0
176
     1
 62
     7
176
     1
 62
   257
176
     1
 90
        1
176
     1
 90
        1
176
     1
 40
1.0
176
     1
 90
        8
176
     1
 62
     7
176
     1
 40
1.0
176
     1
 90
        1
176
     1
 90
        6
176
     1
 90
        2
176
     1
 62
     7
176
     1
 90
        3
176
     1
 90
        0
176
     1
 90
        0
176
     1
290
     0
176
     1
 90
       13
176
     1
 40
0.0
176
     1
 90
        0
176
     1
290
     0
176
     1
290
     1
176
     1
290
     1
176
     1
290
     0
176
     1
290
     0
176
     1
290
     0
176
     1
290
     0
176
     1
290
     0
176
     1
290
     0
176
     1
 90
       50
176
     1
 40
0.0
176
     1
 40
1.0
176
     1
 90
        0
176
     1
 62
    18
420
        0
176
     1
 90
       50
176
     1
 90
        3
176
     1
 62
     5
420
      255
176
     1
290
     0
176
     1
 90
       50
176
     1
 90
       50
176
     1
 90
       50
176
     1
290
     0
176
     1
 90
       50
176
     1
 62
   256
176
     0
 40
1.0
176
     0
 90
        2
176
     1
  1
strokes_ogs.tif
176
     1
290
     0
176
     1
 40
1.0
176
     1
 40
1.0
176
     1
1001
ACAD
1000
AcDbSavedByObjectVersion
1070
     0
  0
DICTIONARYVAR
  5
8D
102
{ACAD_REACTORS
330
88
102
}
330
88
100
DictionaryVariables
280
     0
  1
1:1
  0
DICTIONARYVAR
  5
8A
102
{ACAD_REACTORS
330
88
102
}
330
88
100
DictionaryVariables
280
     0
  1
STANDARD
  0
DICTIONARYVAR
  5
89
102
{ACAD_REACTORS
330
88
102
}
330
88
100
DictionaryVariables
280
     0
  1
STANDARD
  0
DICTIONARYVAR
  5
8B
102
{ACAD_REACTORS
330
88
102
}
330
88
100
DictionaryVariables
280
     0
  1
Imperial24
  0
DICTIONARYVAR
  5
8C
102
{ACAD_REACTORS
330
88
102
}
330
88
100
DictionaryVariables
280
     0
  1
Imperial24
  0
DICTIONARY
  5
93
330
6B
100
AcDbDictionary
280
     1
281
     1
  3
ACAD_XREC_ROUNDTRIP
360
94
  0
DICTIONARY
  5
1A
330
19
100
AcDbDictionary
280
     1
281
     1
  3
BUMPTILE
360
1C
  3
DIFFUSETILE
360
1B
  3
OPACITYTILE
360
1F
  3
REFLECTIONTILE
360
1E
  3
REFRACTIONTILE
360
20
  3
SPECULARTILE
360
1D
  0
DICTIONARY
  5
12
330
11
100
AcDbDictionary
280
     1
281
     1
  3
BUMPTILE
360
14
  3
DIFFUSETILE
360
13
  3
OPACITYTILE
360
17
  3
REFLECTIONTILE
360
16
  3
REFRACTIONTILE
360
18
  3
SPECULARTILE
360
15
  0
DICTIONARY
  5
22
330
21
100
AcDbDictionary
280
     1
281
     1
  3
BUMPTILE
360
24
  3
DIFFUSETILE
360
23
  3
OPACITYTILE
360
27
  3
REFLECTIONTILE
360
26
  3
REFRACTIONTILE
360
28
  3
SPECULARTILE
360
25
  0
DICTIONARY
  5
91
330
69
100
AcDbDictionary
280
     1
281
     1
  3
ACAD_XREC_ROUNDTRIP
360
92
  0
DICTIONARY
  5
8E
330
65
100
AcDbDictionary
280
     1
281
     1
  3
ACAD_ROUNDTRIP_2008_TABLESTYLE_CELLSTYLEMAP
360
8F
  0
XRECORD
  5
94
102
{ACAD_REACTORS
330
93
102
}
330
93
100
AcDbXrecord
280
     1
102
DISPLAYNAME
  1
Imperial24
102
FLAGS
 90
        0
  0
XRECORD
  5
1C
102
{ACAD_REACTORS
330
1A
102
}
330
1A
100
AcDbXrecord
280
     1
270
     1
271
     1
  0
XRECORD
  5
1B
102
{ACAD_REACTORS
330
1A
102
}
330
1A
100
AcDbXrecord
280
     1
270
     1
271
     1
  0
XRECORD
  5
1F
102
{ACAD_REACTORS
330
1A
102
}
330
1A
100
AcDbXrecord
280
     1
270
     1
271
     1
  0
XRECORD
  5
1E
102
{ACAD_REACTORS
330
1A
102
}
330
1A
100
AcDbXrecord
280
     1
270
     1
271
     1
  0
XRECORD
  5
20
102
{ACAD_REACTORS
330
1A
102
}
330
1A
100
AcDbXrecord
280
     1
270
     1
271
     1
  0
XRECORD
  5
1D
102
{ACAD_REACTORS
330
1A
102
}
330
1A
100
AcDbXrecord
280
     1
270
     1
271
     1
  0
XRECORD
  5
14
102
{ACAD_REACTORS
330
12
102
}
330
12
100
AcDbXrecord
280
     1
270
     1
271
     1
  0
XRECORD
  5
13
102
{ACAD_REACTORS
330
12
102
}
330
12
100
AcDbXrecord
280
     1
270
     1
271
     1
  0
XRECORD
  5
17
102
{ACAD_REACTORS
330
12
102
}
330
12
100
AcDbXrecord
280
     1
270
     1
271
     1
  0
XRECORD
  5
16
102
{ACAD_REACTORS
330
12
102
}
330
12
100
AcDbXrecord
280
     1
270
     1
271
     1
  0
XRECORD
  5
18
102
{ACAD_REACTORS
330
12
102
}
330
12
100
AcDbXrecord
280
     1
270
     1
271
     1
  0
XRECORD
  5
15
102
{ACAD_REACTORS
330
12
102
}
330
12
100
AcDbXrecord
280
     1
270
     1
271
     1
  0
XRECORD
  5
24
102
{ACAD_REACTORS
330
22
102
}
330
22
100
AcDbXrecord
280
     1
270
     1
271
     1
  0
XRECORD
  5
23
102
{ACAD_REACTORS
330
22
102
}
330
22
100
AcDbXrecord
280
     1
270
     1
271
     1
  0
XRECORD
  5
27
102
{ACAD_REACTORS
330
22
102
}
330
22
100
AcDbXrecord
280
     1
270
     1
271
     1
  0
XRECORD
  5
26
102
{ACAD_REACTORS
330
22
102
}
330
22
100
AcDbXrecord
280
     1
270
     1
271
     1
  0
XRECORD
  5
28
102
{ACAD_REACTORS
330
22
102
}
330
22
100
AcDbXrecord
280
     1
270
     1
271
     1
  0
XRECORD
  5
25
102
{ACAD_REACTORS
330
22
102
}
330
22
100
AcDbXrecord
280
     1
270
     1
271
     1
  0
XRECORD
  5
92
102
{ACAD_REACTORS
330
91
102
}
330
91
100
AcDbXrecord
280
     1
102
DISPLAYNAME
  1
Imperial24
102
FLAGS
 90
        0
  0
CELLSTYLEMAP
  5
8F
102
{ACAD_REACTORS
330
8E
102
}
330
8E
100
AcDbCellStyleMap
 90
        3
300
CELLSTYLE
  1
TABLEFORMAT_BEGIN
 90
        5
170
     1
 91
        0
 92
    32768
 62
   257
 93
        1
300
CONTENTFORMAT
  1
CONTENTFORMAT_BEGIN
 90
        0
 91
        0
 92
      512
 93
        0
300

 40
0.0
140
1.0
 94
        5
 62
     0
340
55
144
0.25
309
CONTENTFORMAT_END
171
     0
 94
        0
309
TABLEFORMAT_END
  1
CELLSTYLE_BEGIN
 90
        1
 91
        1
300
_TITLE
309
CELLSTYLE_END
300
CELLSTYLE
  1
TABLEFORMAT_BEGIN
 90
        5
170
     1
 91
        0
 92
        0
 62
   257
 93
        1
300
CONTENTFORMAT
  1
CONTENTFORMAT_BEGIN
 90
        0
 91
        0
 92
      512
 93
        0
300

 40
0.0
140
1.0
 94
        5
 62
     0
340
55
144
0.18
309
CONTENTFORMAT_END
171
     0
 94
        0
309
TABLEFORMAT_END
  1
CELLSTYLE_BEGIN
 90
        2
 91
        1
300
_HEADER
309
CELLSTYLE_END
300
CELLSTYLE
  1
TABLEFORMAT_BEGIN
 90
        5
170
     1
 91
        0
 92
        0
 62
   257
 93
        1
300
CONTENTFORMAT
  1
CONTENTFORMAT_BEGIN
 90
        0
 91
        0
 92
      512
 93
        0
300

 40
0.0
140
1.0
 94
        2
 62
     0
340
55
144
0.18
309
CONTENTFORMAT_END
171
     0
 94
        0
309
TABLEFORMAT_END
  1
CELLSTYLE_BEGIN
 90
        3
 91
        2
300
_DATA
309
CELLSTYLE_END
  0
ENDSEC
  0
EOF
