  0
SECTION
  2
HEADER
  9
$ACADVER
  1
AC1027
  9
$ACADMAINTVER
 70
   125
  9
$DWGCODEPAGE
  3
ANSI_1252
  9
$REQUIREDVERSIONS
160
                 0
  9
$INSBASE
 10
0.0
 20
0.0
 30
0.0
  9
$EXTMIN
 10
1.000000000000000E+20
 20
1.000000000000000E+20
 30
1.000000000000000E+20
  9
$EXTMAX
 10
-1.000000000000000E+20
 20
-1.000000000000000E+20
 30
-1.000000000000000E+20
  9
$LIMMIN
 10
0.0
 20
0.0
  9
$LIMMAX
 10
12.0
 20
9.0
  9
$ORTHOMODE
 70
     0
  9
$REGENMODE
 70
     1
  9
$FILLMODE
 70
     1
  9
$QTEXTMODE
 70
     0
  9
$MIRRTEXT
 70
     0
  9
$LTSCALE
 40
1.0
  9
$ATTMODE
 70
     1
  9
$TEXTSIZE
 40
0.2
  9
$TRACEWID
 40
0.05
  9
$TEXTSTYLE
  7
Standard
  9
$CLAYER
  8
0
  9
$CELTYPE
  6
ByLayer
  9
$CECOLOR
 62
   256
  9
$CELTSCALE
 40
1.0
  9
$DISPSILH
 70
     0
  9
$DIMSCALE
 40
1.0
  9
$DIMASZ
 40
0.18
  9
$DIMEXO
 40
0.0625
  9
$DIMDLI
 40
0.38
  9
$DIMRND
 40
0.0
  9
$DIMDLE
 40
0.0
  9
$DIMEXE
 40
0.18
  9
$DIMTP
 40
0.0
  9
$DIMTM
 40
0.0
  9
$DIMTXT
 40
0.18
  9
$DIMCEN
 40
0.09
  9
$DIMTSZ
 40
0.0
  9
$DIMTOL
 70
     0
  9
$DIMLIM
 70
     0
  9
$DIMTIH
 70
     1
  9
$DIMTOH
 70
     1
  9
$DIMSE1
 70
     0
  9
$DIMSE2
 70
     0
  9
$DIMTAD
 70
     0
  9
$DIMZIN
 70
     0
  9
$DIMBLK
  1

  9
$DIMASO
 70
     1
  9
$DIMSHO
 70
     1
  9
$DIMPOST
  1

  9
$DIMAPOST
  1

  9
$DIMALT
 70
     0
  9
$DIMALTD
 70
     2
  9
$DIMALTF
 40
25.4
  9
$DIMLFAC
 40
1.0
  9
$DIMTOFL
 70
     0
  9
$DIMTVP
 40
0.0
  9
$DIMTIX
 70
     0
  9
$DIMSOXD
 70
     0
  9
$DIMSAH
 70
     0
  9
$DIMBLK1
  1

  9
$DIMBLK2
  1

  9
$DIMSTYLE
  2
Standard
  9
$DIMCLRD
 70
     0
  9
$DIMCLRE
 70
     0
  9
$DIMCLRT
 70
     0
  9
$DIMTFAC
 40
1.0
  9
$DIMGAP
 40
0.09
  9
$DIMJUST
 70
     0
  9
$DIMSD1
 70
     0
  9
$DIMSD2
 70
     0
  9
$DIMTOLJ
 70
     1
  9
$DIMTZIN
 70
     0
  9
$DIMALTZ
 70
     0
  9
$DIMALTTZ
 70
     0
  9
$DIMUPT
 70
     0
  9
$DIMDEC
 70
     4
  9
$DIMTDEC
 70
     4
  9
$DIMALTU
 70
     2
  9
$DIMALTTD
 70
     2
  9
$DIMTXSTY
  7
Standard
  9
$DIMAUNIT
 70
     0
  9
$DIMADEC
 70
     0
  9
$DIMALTRND
 40
0.0
  9
$DIMAZIN
 70
     0
  9
$DIMDSEP
 70
    46
  9
$DIMATFIT
 70
     3
  9
$DIMFRAC
 70
     0
  9
$DIMLDRBLK
  1

  9
$DIMLUNIT
 70
     2
  9
$DIMLWD
 70
    -2
  9
$DIMLWE
 70
    -2
  9
$DIMTMOVE
 70
     0
  9
$DIMFXL
 40
1.0
  9
$DIMFXLON
 70
     0
  9
$DIMJOGANG
 40
0.7853981633974483
  9
$DIMTFILL
 70
     0
  9
$DIMTFILLCLR
 70
     0
  9
$DIMARCSYM
 70
     0
  9
$DIMLTYPE
  6

  9
$DIMLTEX1
  6

  9
$DIMLTEX2
  6

  9
$DIMTXTDIRECTION
 70
     0
  9
$LUNITS
 70
     2
  9
$LUPREC
 70
     4
  9
$SKETCHINC
 40
0.1
  9
$FILLETRAD
 40
0.0
  9
$AUNITS
 70
     0
  9
$AUPREC
 70
     0
  9
$MENU
  1
.
  9
$ELEVATION
 40
0.0
  9
$PELEVATION
 40
0.0
  9
$THICKNESS
 40
0.0
  9
$LIMCHECK
 70
     0
  9
$CHAMFERA
 40
0.0
  9
$CHAMFERB
 40
0.0
  9
$CHAMFERC
 40
0.0
  9
$CHAMFERD
 40
0.0
  9
$SKPOLY
 70
     0
  9
$TDCREATE
 40
2459734.946863426
  9
$TDUCREATE
 40
2459734.530196759
  9
$TDUPDATE
 40
2459734.946863426
  9
$TDUUPDATE
 40
2459734.530196759
  9
$TDINDWG
 40
0.0000000000
  9
$TDUSRTIMER
 40
0.0000000000
  9
$USRTIMER
 70
     1
  9
$ANGBASE
 50
0.0
  9
$ANGDIR
 70
     0
  9
$PDMODE
 70
     0
  9
$PDSIZE
 40
0.0
  9
$PLINEWID
 40
0.0
  9
$SPLFRAME
 70
     0
  9
$SPLINETYPE
 70
     6
  9
$SPLINESEGS
 70
     8
  9
$HANDSEED
  5
8C
  9
$SURFTAB1
 70
     6
  9
$SURFTAB2
 70
     6
  9
$SURFTYPE
 70
     6
  9
$SURFU
 70
     6
  9
$SURFV
 70
     6
  9
$UCSBASE
  2

  9
$UCSNAME
  2

  9
$UCSORG
 10
0.0
 20
0.0
 30
0.0
  9
$UCSXDIR
 10
1.0
 20
0.0
 30
0.0
  9
$UCSYDIR
 10
0.0
 20
1.0
 30
0.0
  9
$UCSORTHOREF
  2

  9
$UCSORTHOVIEW
 70
     0
  9
$UCSORGTOP
 10
0.0
 20
0.0
 30
0.0
  9
$UCSORGBOTTOM
 10
0.0
 20
0.0
 30
0.0
  9
$UCSORGLEFT
 10
0.0
 20
0.0
 30
0.0
  9
$UCSORGRIGHT
 10
0.0
 20
0.0
 30
0.0
  9
$UCSORGFRONT
 10
0.0
 20
0.0
 30
0.0
  9
$UCSORGBACK
 10
0.0
 20
0.0
 30
0.0
  9
$PUCSBASE
  2

  9
$PUCSNAME
  2

  9
$PUCSORG
 10
0.0
 20
0.0
 30
0.0
  9
$PUCSXDIR
 10
1.0
 20
0.0
 30
0.0
  9
$PUCSYDIR
 10
0.0
 20
1.0
 30
0.0
  9
$PUCSORTHOREF
  2

  9
$PUCSORTHOVIEW
 70
     0
  9
$PUCSORGTOP
 10
0.0
 20
0.0
 30
0.0
  9
$PUCSORGBOTTOM
 10
0.0
 20
0.0
 30
0.0
  9
$PUCSORGLEFT
 10
0.0
 20
0.0
 30
0.0
  9
$PUCSORGRIGHT
 10
0.0
 20
0.0
 30
0.0
  9
$PUCSORGFRONT
 10
0.0
 20
0.0
 30
0.0
  9
$PUCSORGBACK
 10
0.0
 20
0.0
 30
0.0
  9
$USERI1
 70
     0
  9
$USERI2
 70
     0
  9
$USERI3
 70
     0
  9
$USERI4
 70
     0
  9
$USERI5
 70
     0
  9
$USERR1
 40
0.0
  9
$USERR2
 40
0.0
  9
$USERR3
 40
0.0
  9
$USERR4
 40
0.0
  9
$USERR5
 40
0.0
  9
$WORLDVIEW
 70
     1
  9
$SHADEDGE
 70
     3
  9
$SHADEDIF
 70
    70
  9
$TILEMODE
 70
     1
  9
$MAXACTVP
 70
    64
  9
$PINSBASE
 10
0.0
 20
0.0
 30
0.0
  9
$PLIMCHECK
 70
     0
  9
$PEXTMIN
 10
1.000000000000000E+20
 20
1.000000000000000E+20
 30
1.000000000000000E+20
  9
$PEXTMAX
 10
-1.000000000000000E+20
 20
-1.000000000000000E+20
 30
-1.000000000000000E+20
  9
$PLIMMIN
 10
0.0
 20
0.0
  9
$PLIMMAX
 10
12.0
 20
9.0
  9
$UNITMODE
 70
     0
  9
$VISRETAIN
 70
     1
  9
$PLINEGEN
 70
     0
  9
$PSLTSCALE
 70
     1
  9
$TREEDEPTH
 70
  3020
  9
$CMLSTYLE
  2
Standard
  9
$CMLJUST
 70
     0
  9
$CMLSCALE
 40
1.0
  9
$PROXYGRAPHICS
 70
     1
  9
$MEASUREMENT
 70
     0
  9
$CELWEIGHT
370
    -1
  9
$ENDCAPS
280
     0
  9
$JOINSTYLE
280
     0
  9
$LWDISPLAY
290
     1
  9
$INSUNITS
 70
     4
  9
$HYPERLINKBASE
  1

  9
$STYLESHEET
  1

  9
$XEDIT
290
     1
  9
$CEPSNTYPE
380
     0
  9
$PSTYLEMODE
290
     1
  9
$FINGERPRINTGUID
  2
{4D4FA932-7A07-614C-B477-3A7EB9109680}
  9
$VERSIONGUID
  2
{E36B186A-45D1-4D46-86FA-2F839003FC09}
  9
$EXTNAMES
290
     1
  9
$PSVPSCALE
 40
0.0
  9
$OLESTARTUP
290
     0
  9
$SORTENTS
280
   127
  9
$INDEXCTL
280
     0
  9
$HIDETEXT
280
     1
  9
$XCLIPFRAME
280
     2
  9
$HALOGAP
280
     0
  9
$OBSCOLOR
 70
   257
  9
$OBSLTYPE
280
     0
  9
$INTERSECTIONDISPLAY
280
     0
  9
$INTERSECTIONCOLOR
 70
   257
  9
$DIMASSOC
280
     2
  9
$PROJECTNAME
  1

  9
$CAMERADISPLAY
290
     0
  9
$LENSLENGTH
 40
50.0
  9
$CAMERAHEIGHT
 40
0.0
  9
$STEPSPERSEC
 40
2.0
  9
$STEPSIZE
 40
6.0
  9
$3DDWFPREC
 40
2.0
  9
$PSOLWIDTH
 40
0.25
  9
$PSOLHEIGHT
 40
4.0
  9
$LOFTANG1
 40
1.570796326794896
  9
$LOFTANG2
 40
1.570796326794896
  9
$LOFTMAG1
 40
0.0
  9
$LOFTMAG2
 40
0.0
  9
$LOFTPARAM
 70
     7
  9
$LOFTNORMALS
280
     1
  9
$LATITUDE
 40
37.795
  9
$LONGITUDE
 40
-122.394
  9
$NORTHDIRECTION
 40
0.0
  9
$TIMEZONE
 70
 -8000
  9
$LIGHTGLYPHDISPLAY
280
     1
  9
$TILEMODELIGHTSYNCH
280
     1
  9
$CMATERIAL
347
11
  9
$SOLIDHIST
280
     0
  9
$SHOWHIST
280
     1
  9
$DWFFRAME
280
     2
  9
$DGNFRAME
280
     0
  9
$REALWORLDSCALE
290
     1
  9
$INTERFERECOLOR
 62
     1
  9
$INTERFEREOBJVS
345
33
  9
$INTERFEREVPVS
346
30
  9
$CSHADOW
280
     0
  9
$SHADOWPLANELOCATION
 40
0.0
  0
ENDSEC
  0
SECTION
  2
CLASSES
  0
CLASS
  1
ACDBDICTIONARYWDFLT
  2
AcDbDictionaryWithDefault
  3
ObjectDBX Classes
 90
        0
 91
        1
280
     0
281
     0
  0
CLASS
  1
MATERIAL
  2
AcDbMaterial
  3
ObjectDBX Classes
 90
     1153
 91
        3
280
     0
281
     0
  0
CLASS
  1
VISUALSTYLE
  2
AcDbVisualStyle
  3
ObjectDBX Classes
 90
     4095
 91
       24
280
     0
281
     0
  0
CLASS
  1
SCALE
  2
AcDbScale
  3
ObjectDBX Classes
 90
     1153
 91
       17
280
     0
281
     0
  0
CLASS
  1
TABLESTYLE
  2
AcDbTableStyle
  3
ObjectDBX Classes
 90
     4095
 91
        1
280
     0
281
     0
  0
CLASS
  1
MLEADERSTYLE
  2
AcDbMLeaderStyle
  3
ACDB_MLEADERSTYLE_CLASS
 90
     4095
 91
        1
280
     0
281
     0
  0
CLASS
  1
ACDBSECTIONVIEWSTYLE
  2
AcDbSectionViewStyle
  3
ObjectDBX Classes
 90
     1025
 91
        1
280
     0
281
     0
  0
CLASS
  1
ACDBDETAILVIEWSTYLE
  2
AcDbDetailViewStyle
  3
ObjectDBX Classes
 90
     1025
 91
        1
280
     0
281
     0
  0
CLASS
  1
DICTIONARYVAR
  2
AcDbDictionaryVar
  3
ObjectDBX Classes
 90
        0
 91
        5
280
     0
281
     0
  0
CLASS
  1
CELLSTYLEMAP
  2
AcDbCellStyleMap
  3
ObjectDBX Classes
 90
     1152
 91
        1
280
     0
281
     0
  0
ENDSEC
  0
SECTION
  2
TABLES
  0
TABLE
  2
VPORT
  5
8
330
0
100
AcDbSymbolTable
 70
     1
1001
ACAD
1000
DbSaveVer
1071
      247
  0
VPORT
  5
57
330
8
100
AcDbSymbolTableRecord
100
AcDbViewportTableRecord
  2
*Active
 70
     0
 10
0.0
 20
0.0
 11
1.0
 21
1.0
 12
0.0
 22
0.0
 13
0.0
 23
0.0
 14
1.0
 24
1.0
 15
0.0
 25
0.0
 16
0.0
 26
0.0
 36
1.0
 17
-111.9583333053439
 27
3.302777776952218
 37
0.0
 40
214.1999999464498
 41
0.9999999999999998
 42
50.0
 43
0.0
 44
0.0
 50
0.0
 51
0.0
 71
     0
 72
   100
 73
     1
 74
     1
 75
     0
 76
     0
 77
     0
 78
     0
281
     0
 65
     1
110
0.0
120
0.0
130
0.0
111
1.0
121
0.0
131
0.0
112
0.0
122
1.0
132
0.0
 79
     0
146
0.0
 60
     3
 61
     5
292
     1
282
     1
141
0.0
142
0.0
 63
   250
421
  3355443
  0
ENDTAB
  0
TABLE
  2
LTYPE
  5
5
330
0
100
AcDbSymbolTable
 70
     1
  0
LTYPE
  5
5B
330
5
100
AcDbSymbolTableRecord
100
AcDbLinetypeTableRecord
  2
ByBlock
 70
     0
  3

 72
    65
 73
     0
 40
0.0
  0
LTYPE
  5
5C
330
5
100
AcDbSymbolTableRecord
100
AcDbLinetypeTableRecord
  2
ByLayer
 70
     0
  3

 72
    65
 73
     0
 40
0.0
  0
LTYPE
  5
5D
330
5
100
AcDbSymbolTableRecord
100
AcDbLinetypeTableRecord
  2
Continuous
 70
     0
  3
Solid line
 72
    65
 73
     0
 40
0.0
  0
ENDTAB
  0
TABLE
  2
LAYER
  5
2
330
0
100
AcDbSymbolTable
 70
     2
  0
LAYER
  5
54
330
2
100
AcDbSymbolTableRecord
100
AcDbLayerTableRecord
  2
0
 70
     0
 62
     7
  6
Continuous
370
    -3
390
F
347
21
348
0
  0
LAYER
  5
78
330
2
100
AcDbSymbolTableRecord
100
AcDbLayerTableRecord
  2
Layer 1
 70
     0
 62
     7
  6
Continuous
370
     0
390
F
347
21
348
0
  0
ENDTAB
  0
TABLE
  2
STYLE
  5
3
330
0
100
AcDbSymbolTable
 70
     2
  0
STYLE
  5
55
330
3
100
AcDbSymbolTableRecord
100
AcDbTextStyleTableRecord
  2
Standard
 70
     0
 40
0.0
 41
1.0
 50
0.0
 71
     0
 42
0.2
  3
txt
  4

  0
STYLE
  5
5A
330
3
100
AcDbSymbolTableRecord
100
AcDbTextStyleTableRecord
  2
Annotative
 70
     0
 40
0.0
 41
1.0
 50
0.0
 71
     0
 42
0.2
  3
txt
  4

1001
AcadAnnotative
1000
AnnotativeData
1002
{
1070
     1
1070
     1
1002
}
  0
ENDTAB
  0
TABLE
  2
VIEW
  5
6
330
0
100
AcDbSymbolTable
 70
     0
  0
ENDTAB
  0
TABLE
  2
UCS
  5
7
330
0
100
AcDbSymbolTable
 70
     0
  0
ENDTAB
  0
TABLE
  2
APPID
  5
9
330
0
100
AcDbSymbolTable
 70
     2
  0
APPID
  5
56
330
9
100
AcDbSymbolTableRecord
100
AcDbRegAppTableRecord
  2
ACAD
 70
     0
  0
APPID
  5
5E
330
9
100
AcDbSymbolTableRecord
100
AcDbRegAppTableRecord
  2
AcadAnnotative
 70
     0
  0
ENDTAB
  0
TABLE
  2
DIMSTYLE
  5
A
330
0
100
AcDbSymbolTable
 70
     2
100
AcDbDimStyleTable
 71
     0
  0
DIMSTYLE
105
58
330
A
100
AcDbSymbolTableRecord
100
AcDbDimStyleTableRecord
  2
Standard
 70
     0
340
55
  0
DIMSTYLE
105
59
330
A
100
AcDbSymbolTableRecord
100
AcDbDimStyleTableRecord
  2
Annotative
 70
     0
340
55
1001
AcadAnnotative
1000
AnnotativeData
1002
{
1070
     1
1070
     1
1002
}
  0
ENDTAB
  0
TABLE
  2
BLOCK_RECORD
  5
1
330
0
100
AcDbSymbolTable
 70
     1
  0
BLOCK_RECORD
  5
70
330
1
100
AcDbSymbolTableRecord
100
AcDbBlockTableRecord
  2
*Model_Space
340
73
 70
     0
280
     1
281
     0
  0
BLOCK_RECORD
  5
6C
330
1
100
AcDbSymbolTableRecord
100
AcDbBlockTableRecord
  2
*Paper_Space
340
6F
 70
     0
280
     1
281
     0
  0
BLOCK_RECORD
  5
74
330
1
100
AcDbSymbolTableRecord
100
AcDbBlockTableRecord
  2
*Paper_Space0
340
77
 70
     0
280
     1
281
     0
  0
ENDTAB
  0
ENDSEC
  0
SECTION
  2
BLOCKS
  0
BLOCK
  5
71
330
70
100
AcDbEntity
  8
0
100
AcDbBlockBegin
  2
*Model_Space
 70
     0
 10
0.0
 20
0.0
 30
0.0
  3
*Model_Space
  1

  0
ENDBLK
  5
72
330
70
100
AcDbEntity
  8
0
100
AcDbBlockEnd
  0
BLOCK
  5
6D
330
6C
100
AcDbEntity
 67
     1
  8
0
100
AcDbBlockBegin
  2
*Paper_Space
 70
     0
 10
0.0
 20
0.0
 30
0.0
  3
*Paper_Space
  1

  0
ENDBLK
  5
6E
330
6C
100
AcDbEntity
 67
     1
  8
0
100
AcDbBlockEnd
  0
BLOCK
  5
75
330
74
100
AcDbEntity
 67
     1
  8
0
100
AcDbBlockBegin
  2
*Paper_Space0
 70
     0
 10
0.0
 20
0.0
 30
0.0
  3
*Paper_Space0
  1

  0
ENDBLK
  5
76
330
74
100
AcDbEntity
 67
     1
  8
0
100
AcDbBlockEnd
  0
ENDSEC
  0
SECTION
  2
ENTITIES
  0
SPLINE
  5
79
330
70
100
AcDbEntity
  8
Layer 1
100
AcDbSpline
210
0.0
220
0.0
230
1.0
 70
     9
 71
     3
 72
    62
 73
    58
 74
     0
 42
0.0000000001
 43
0.0000000001
 40
0.0
 40
0.0
 40
0.0
 40
0.0
 40
1.0
 40
1.0
 40
1.0
 40
2.0
 40
2.0
 40
2.0
 40
3.0
 40
3.0
 40
3.0
 40
4.0
 40
4.0
 40
4.0
 40
5.0
 40
5.0
 40
5.0
 40
6.0
 40
6.0
 40
6.0
 40
7.0
 40
7.0
 40
7.0
 40
8.0
 40
8.0
 40
8.0
 40
9.0
 40
9.0
 40
9.0
 40
10.0
 40
10.0
 40
10.0
 40
11.0
 40
11.0
 40
11.0
 40
12.0
 40
12.0
 40
12.0
 40
13.0
 40
13.0
 40
13.0
 40
14.0
 40
14.0
 40
14.0
 40
15.0
 40
15.0
 40
15.0
 40
16.0
 40
16.0
 40
16.0
 40
17.0
 40
17.0
 40
17.0
 40
18.0
 40
18.0
 40
18.0
 40
19.0
 40
19.0
 40
19.0
 40
19.0
 10
-41.21120314990835
 20
15.71617364424137
 30
0.0
 10
-47.35907873897913
 20
8.969210293068048
 30
0.0
 10
-55.04396615221327
 20
2.606871931035234
 30
0.0
 10
-63.84804360081205
 20
-3.137834249769332
 30
0.0
 10
-73.54608796985612
 20
-9.465888330779772
 30
0.0
 10
-84.60508665315277
 20
-15.04283620159718
 30
0.0
 10
-96.53183823233678
 20
-19.52137065476047
 30
0.0
 10
-99.95362697501244
 20
-20.80625850911146
 30
0.0
 10
-103.3826274362334
 20
-21.97759041427816
 30
0.0
 10
-106.8058470754458
 20
-23.03330587927131
 30
0.0
 10
-117.3980873083798
 20
-26.30004267319111
 30
0.0
 10
-127.931546311574
 20
-28.44987886621617
 30
0.0
 10
-138.0242319455182
 20
-29.42174379413904
 30
0.0
 10
-142.1085257848159
 20
-29.81506863422419
 30
0.0
 10
-146.1231635806918
 20
-30.02209074518879
 30
0.0
 10
-150.0364366658907
 20
-30.02209074518879
 30
0.0
 10
-156.66211722659
 20
-30.02209074518879
 30
0.0
 10
-162.7619146920169
 20
-29.43839942982066
 30
0.0
 10
-168.2213573392145
 20
-28.32739412265535
 30
0.0
 10
-182.4057202385857
 20
-25.44081792066919
 30
0.0
 10
-192.2544093950433
 20
-18.98358250030527
 30
0.0
 10
-195.6752823639343
 20
-9.87357937209718
 30
0.0
 10
-198.4265529893813
 20
-2.546816744141513
 30
0.0
 10
-197.0266782893216
 20
6.094710857854818
 30
0.0
 10
-191.7715676676047
 20
15.22869581202508
 30
0.0
 10
-191.6439889323678
 20
15.16453441130244
 30
0.0
 10
-191.5153227157628
 20
15.10231902987848
 30
0.0
 10
-191.3852256026186
 20
15.04256479049849
 30
0.0
 10
-192.9518856030292
 20
9.693816299400333
 30
0.0
 10
-192.9663090401218
 20
4.513398476912028
 30
0.0
 10
-191.1747121040998
 20
-0.257782935998875
 30
0.0
 10
-186.6537658775762
 20
-12.29740363401635
 30
0.0
 10
-171.6405704681222
 20
-19.20245243460259
 30
0.0
 10
-149.9846382112521
 20
-19.20245243460259
 30
0.0
 10
-146.1980280875082
 20
-19.20245243460259
 30
0.0
 10
-142.29791925045
 20
-18.99348430434092
 30
0.0
 10
-138.3146467066627
 20
-18.58808269748155
 30
0.0
 10
-125.9536466464366
 20
-17.32998122630762
 30
0.0
 10
-112.7784092208064
 20
-14.14944163976401
 30
0.0
 10
-99.6005389455462
 20
-9.201000763859035
 30
0.0
 10
-82.97872964921969
 20
-2.959372833684256
 30
0.0
 10
-68.08555784128992
 20
5.494134963354893
 30
0.0
 10
-56.71416582603891
 20
15.04262202635373
 30
0.0
 10
-54.25519874516893
 20
17.10740572921943
 30
0.0
 10
-51.95322963233457
 20
19.22106885779024
 30
0.0
 10
-49.84265724028695
 20
21.3772582314364
 30
0.0
 10
-37.27017067189422
 20
34.22150067012656
 30
0.0
 10
-32.54809762813378
 20
47.15892309130926
 30
0.0
 10
-36.54630873176639
 20
57.80622422299063
 30
0.0
 10
-38.03776081019192
 20
61.7782213020634
 30
0.0
 10
-40.66980913617729
 20
65.19079507104655
 30
0.0
 10
-44.30663301042901
 20
67.98150120504537
 30
0.0
 10
-36.25079997894864
 20
64.51718621729437
 30
0.0
 10
-30.65244589594084
 20
59.41518152502928
 30
0.0
 10
-28.24287336352611
 20
52.99841185873348
 30
0.0
 10
-24.29022200563135
 20
42.47216457408267
 30
0.0
 10
-28.89576283541949
 20
29.23173550222568
 30
0.0
 10
-41.21120314990835
 20
15.71617364424137
 30
0.0
  0
SPLINE
  5
7A
330
70
100
AcDbEntity
  8
Layer 1
100
AcDbSpline
210
0.0
220
0.0
230
1.0
 70
     9
 71
     3
 72
    92
 73
    88
 74
     0
 42
0.0000000001
 43
0.0000000001
 40
0.0
 40
0.0
 40
0.0
 40
0.0
 40
1.0
 40
1.0
 40
1.0
 40
2.0
 40
2.0
 40
2.0
 40
3.0
 40
3.0
 40
3.0
 40
4.0
 40
4.0
 40
4.0
 40
5.0
 40
5.0
 40
5.0
 40
6.0
 40
6.0
 40
6.0
 40
7.0
 40
7.0
 40
7.0
 40
8.0
 40
8.0
 40
8.0
 40
9.0
 40
9.0
 40
9.0
 40
10.0
 40
10.0
 40
10.0
 40
11.0
 40
11.0
 40
11.0
 40
12.0
 40
12.0
 40
12.0
 40
13.0
 40
13.0
 40
13.0
 40
14.0
 40
14.0
 40
14.0
 40
15.0
 40
15.0
 40
15.0
 40
16.0
 40
16.0
 40
16.0
 40
17.0
 40
17.0
 40
17.0
 40
18.0
 40
18.0
 40
18.0
 40
19.0
 40
19.0
 40
19.0
 40
20.0
 40
20.0
 40
20.0
 40
21.0
 40
21.0
 40
21.0
 40
22.0
 40
22.0
 40
22.0
 40
23.0
 40
23.0
 40
23.0
 40
24.0
 40
24.0
 40
24.0
 40
25.0
 40
25.0
 40
25.0
 40
26.0
 40
26.0
 40
26.0
 40
27.0
 40
27.0
 40
27.0
 40
28.0
 40
28.0
 40
28.0
 40
29.0
 40
29.0
 40
29.0
 40
29.0
 10
-104.5356438657326
 20
-44.86266279641968
 30
0.0
 10
-107.7565347346162
 20
-47.5332308571806
 30
0.0
 10
-111.894859227151
 20
-48.83059612933164
 30
0.0
 10
-117.1892908857038
 20
-48.83059612933164
 30
0.0
 10
-127.5888752088984
 20
-48.83059612933164
 30
0.0
 10
-133.9844676064511
 20
-43.85519716266366
 30
0.0
 10
-137.0769784380358
 20
-33.30319374034983
 30
0.0
 10
-137.0769784380358
 20
-33.30319374034983
 30
0.0
 10
-137.0860789400104
 20
-33.09800317694293
 30
0.0
 10
-137.0860789400104
 20
-33.09800317694293
 30
0.0
 10
-137.0760626642518
 20
-33.09685845971872
 30
0.0
 10
-137.0660463884944
 20
-33.09565650662837
 30
0.0
 10
-137.0561445844578
 20
-33.09468349697983
 30
0.0
 10
-136.0989320370787
 20
-32.99772594763155
 30
0.0
 10
-135.1354235449369
 20
-32.88926399013207
 30
0.0
 10
-134.1668782969852
 20
-32.77124364375984
 30
0.0
 10
-133.9576812232785
 20
-32.74577368540254
 30
0.0
 10
-133.7476256116498
 20
-32.71875835878461
 30
0.0
 10
-133.5379706510505
 20
-32.69231539077879
 30
0.0
 10
-132.574748338216
 20
-32.57074642100164
 30
0.0
 10
-131.6077484585256
 20
-32.44167955335961
 30
0.0
 10
-130.6343381623479
 20
-32.29927672999937
 30
0.0
 10
-130.5924415117453
 20
-32.29315249282971
 30
0.0
 10
-130.5509455121728
 20
-32.28794402943346
 30
0.0
 10
-130.5090488615689
 20
-32.28176255638996
 30
0.0
 10
-129.509195597388
 20
-32.13466639238968
 30
0.0
 10
-128.5024740298303
 20
-31.972803376122
 30
0.0
 10
-127.4926044898913
 20
-31.80367140545919
 30
0.0
 10
-127.2694418659833
 20
-31.76629638790496
 30
0.0
 10
-127.0463937137987
 20
-31.72909307794565
 30
0.0
 10
-126.82283043886
 20
-31.69063057903176
 30
0.0
 10
-125.827670515321
 20
-31.51955258907092
 30
0.0
 10
-124.8286757890614
 20
-31.33943133299483
 30
0.0
 10
-123.8247587787157
 20
-31.14694713083912
 30
0.0
 10
-123.6650707251889
 20
-31.11632594495108
 30
0.0
 10
-123.5044668978787
 20
-31.08335808873885
 30
0.0
 10
-123.3445499009058
 20
-31.05222178009395
 30
0.0
 10
-122.4231097669493
 20
-30.87261564677505
 30
0.0
 10
-121.4981210095847
 20
-30.6837373038888
 30
0.0
 10
-120.5700415156976
 20
-30.4861018742017
 30
0.0
 10
-120.3884893630867
 20
-30.44741043184695
 30
0.0
 10
-120.2076240408114
 20
-30.41037882946364
 30
0.0
 10
-120.0258429447539
 20
-30.37105779263127
 30
0.0
 10
-119.0160878765363
 20
-30.15247403764033
 30
0.0
 10
-118.0022118262933
 20
-29.92198522346272
 30
0.0
 10
-116.9854167471144
 20
-29.68199525627658
 30
0.0
 10
-116.7598502170251
 20
-29.62876590510332
 30
0.0
 10
-116.5338258000437
 20
-29.57404842153364
 30
0.0
 10
-116.3079158547851
 20
-29.51973158899141
 30
0.0
 10
-115.2801314902028
 20
-29.27264437497715
 30
0.0
 10
-114.2500004552986
 20
-29.018173734847
 30
0.0
 10
-113.2159773818151
 20
-28.74922242175517
 30
0.0
 10
-113.1929685654998
 20
-28.74326989216184
 30
0.0
 10
-113.1701886926312
 20
-28.73777524945921
 30
0.0
 10
-113.1471798763166
 20
-28.73176548400069
 30
0.0
 10
-112.0973597050644
 20
-28.4582353019899
 30
0.0
 10
-111.0435330235089
 20
-28.16930867324277
 30
0.0
 10
-109.9881037378314
 20
-27.87311309009087
 30
0.0
 10
-109.7584734615755
 20
-27.80866551006315
 30
0.0
 10
-109.5289576570448
 20
-27.74444687348559
 30
0.0
 10
-109.2990984373442
 20
-27.67896904795313
 30
0.0
 10
-108.2631293445687
 20
-27.38363200272035
 30
0.0
 10
-107.2250997607818
 20
-27.07896551206563
 30
0.0
 10
-106.1846090349503
 20
-26.76176436774502
 30
0.0
 10
-106.0147902339408
 20
-26.71002314896784
 30
0.0
 10
-105.844570781902
 20
-26.65593525987546
 30
0.0
 10
-105.6746947450325
 20
-26.60356444662131
 30
0.0
 10
-104.9468835304627
 20
-26.3793143413434
 30
0.0
 10
-104.2172407683249
 20
-26.14453283755256
 30
0.0
 10
-103.4875980061871
 20
-25.90957962618636
 30
0.0
 10
-103.4734035125398
 20
-25.90500075726836
 30
0.0
 10
-103.4592662547552
 20
-25.90059359593534
 30
0.0
 10
-103.4450717611072
 20
-25.89607196287291
 30
0.0
 10
-103.4450717611072
 20
-25.89607196287291
 30
0.0
 10
-103.4422099680345
 20
-25.899849529728
 30
0.0
 10
-103.4422099680345
 20
-25.899849529728
 30
0.0
 10
-103.4562327540959
 20
-25.90437116279075
 30
0.0
 10
-103.4701983042965
 20
-25.90895003170907
 30
0.0
 10
-103.4842210903604
 20
-25.9134716647622
 30
0.0
 10
-103.1325067215708
 20
-26.31177602480243
 30
0.0
 10
-102.7832534948239
 20
-26.72976952118133
 30
0.0
 10
-102.4388080804416
 20
-27.18250518548453
 30
0.0
 10
-100.8021486214412
 20
-29.33898073843707
 30
0.0
 10
-100.0041662406989
 20
-31.77362257817459
 30
0.0
 10
-100.0041662406989
 20
-34.62763157497533
 30
0.0
 10
-100.0041662406989
 20
-38.98287998252355
 30
0.0
 10
-101.4865178171485
 20
-42.33197918111851
 30
0.0
 10
-104.5356438657326
 20
-44.86266279641968
 30
0.0
  0
SPLINE
  5
7B
330
70
100
AcDbEntity
  8
Layer 1
100
AcDbSpline
210
0.0
220
0.0
230
1.0
 70
     9
 71
     3
 72
   167
 73
   163
 74
     0
 42
0.0000000001
 43
0.0000000001
 40
0.0
 40
0.0
 40
0.0
 40
0.0
 40
1.0
 40
1.0
 40
1.0
 40
2.0
 40
2.0
 40
2.0
 40
3.0
 40
3.0
 40
3.0
 40
4.0
 40
4.0
 40
4.0
 40
5.0
 40
5.0
 40
5.0
 40
6.0
 40
6.0
 40
6.0
 40
7.0
 40
7.0
 40
7.0
 40
8.0
 40
8.0
 40
8.0
 40
9.0
 40
9.0
 40
9.0
 40
10.0
 40
10.0
 40
10.0
 40
11.0
 40
11.0
 40
11.0
 40
12.0
 40
12.0
 40
12.0
 40
13.0
 40
13.0
 40
13.0
 40
14.0
 40
14.0
 40
14.0
 40
15.0
 40
15.0
 40
15.0
 40
16.0
 40
16.0
 40
16.0
 40
17.0
 40
17.0
 40
17.0
 40
18.0
 40
18.0
 40
18.0
 40
19.0
 40
19.0
 40
19.0
 40
20.0
 40
20.0
 40
20.0
 40
21.0
 40
21.0
 40
21.0
 40
22.0
 40
22.0
 40
22.0
 40
23.0
 40
23.0
 40
23.0
 40
24.0
 40
24.0
 40
24.0
 40
25.0
 40
25.0
 40
25.0
 40
26.0
 40
26.0
 40
26.0
 40
27.0
 40
27.0
 40
27.0
 40
28.0
 40
28.0
 40
28.0
 40
29.0
 40
29.0
 40
29.0
 40
30.0
 40
30.0
 40
30.0
 40
31.0
 40
31.0
 40
31.0
 40
32.0
 40
32.0
 40
32.0
 40
33.0
 40
33.0
 40
33.0
 40
34.0
 40
34.0
 40
34.0
 40
35.0
 40
35.0
 40
35.0
 40
36.0
 40
36.0
 40
36.0
 40
37.0
 40
37.0
 40
37.0
 40
38.0
 40
38.0
 40
38.0
 40
39.0
 40
39.0
 40
39.0
 40
40.0
 40
40.0
 40
40.0
 40
41.0
 40
41.0
 40
41.0
 40
42.0
 40
42.0
 40
42.0
 40
43.0
 40
43.0
 40
43.0
 40
44.0
 40
44.0
 40
44.0
 40
45.0
 40
45.0
 40
45.0
 40
46.0
 40
46.0
 40
46.0
 40
47.0
 40
47.0
 40
47.0
 40
48.0
 40
48.0
 40
48.0
 40
49.0
 40
49.0
 40
49.0
 40
50.0
 40
50.0
 40
50.0
 40
51.0
 40
51.0
 40
51.0
 40
52.0
 40
52.0
 40
52.0
 40
53.0
 40
53.0
 40
53.0
 40
54.0
 40
54.0
 40
54.0
 40
54.0
 10
-187.7908135017221
 20
14.0224500313478
 30
0.0
 10
-187.3009889991829
 20
13.96263855610391
 30
0.0
 10
-186.8053264387724
 20
13.92228727375686
 30
0.0
 10
-186.2993614232959
 20
13.92228727375686
 30
0.0
 10
-179.5572631203483
 20
13.92228727375686
 30
0.0
 10
-174.0916962359727
 20
19.38785415813785
 30
0.0
 10
-174.0916962359727
 20
26.1299524610868
 30
0.0
 10
-174.0916962359727
 20
28.28219256029258
 30
0.0
 10
-174.6532372729457
 20
30.30135928154978
 30
0.0
 10
-175.6309402587348
 20
32.05718380415716
 30
0.0
 10
-175.6309402587348
 20
32.05718380415716
 30
0.0
 10
-137.7644383702637
 20
28.63127407945516
 30
0.0
 10
-137.7644383702637
 20
28.63127407945516
 30
0.0
 10
-137.7522471317677
 20
28.73773278180234
 30
0.0
 10
-137.7675291067824
 20
28.84567961655427
 30
0.0
 10
-137.7525905469371
 20
28.95196661131486
 30
0.0
 10
-136.9362926905208
 20
34.75076068123139
 30
0.0
 10
-132.1418162819873
 20
40.16441463923995
 30
0.0
 10
-125.2230881105155
 20
42.29456169591639
 30
0.0
 10
-120.6724937077459
 20
43.69569558492817
 30
0.0
 10
-116.0870426653364
 20
43.40012959624394
 30
0.0
 10
-112.3595571864997
 20
41.80565296715797
 30
0.0
 10
-110.4524010461507
 20
41.22356425591631
 30
0.0
 10
-108.7858644674598
 20
40.32879603340781
 30
0.0
 10
-107.372138688922
 20
39.05632836100132
 30
0.0
 10
-104.823940900005
 20
36.76151373085962
 30
0.0
 10
-103.5833536024415
 20
33.97321150303252
 30
0.0
 10
-103.5833536024415
 20
30.53242045435009
 30
0.0
 10
-103.5831246589955
 20
26.59270440114577
 30
0.0
 10
-105.7746285591742
 20
22.55814852547617
 30
0.0
 10
-109.2954925780702
 20
20.69157261090968
 30
0.0
 10
-112.8255143348029
 20
18.81990270467859
 30
0.0
 10
-117.7262205022408
 20
18.83524191555937
 30
0.0
 10
-121.6042362967671
 20
18.83524191555937
 30
0.0
 10
-121.6042362967671
 20
18.83524191555937
 30
0.0
 10
-138.3146467066627
 20
18.83524191555937
 30
0.0
 10
-138.3146467066627
 20
18.83524191555937
 30
0.0
 10
-138.3146467066627
 20
18.83524191555937
 30
0.0
 10
-138.3146467066627
 20
-14.80330412130336
 30
0.0
 10
-138.3146467066627
 20
-14.80330412130336
 30
0.0
 10
-138.2503708342209
 20
-14.79649305379059
 30
0.0
 10
-138.1872969148718
 20
-14.79162800556621
 30
0.0
 10
-138.1229638065699
 20
-14.78470246632306
 30
0.0
 10
-138.1865528486724
 20
-14.79151353383616
 30
0.0
 10
-138.2511721362829
 20
-14.7999844413393
 30
0.0
 10
-138.3146467066627
 20
-14.806681037131
 30
0.0
 10
-138.9561462421221
 20
-14.87462000470776
 30
0.0
 10
-139.5903768231742
 20
-14.93191310205308
 30
0.0
 10
-140.2246074042256
 20
-14.98897725594566
 30
0.0
 10
-140.5854222749905
 20
-15.02148722526621
 30
0.0
 10
-140.9490417029681
 20
-15.05817541246834
 30
0.0
 10
-141.3074526675516
 20
-15.08713675838462
 30
0.0
 10
-142.2406261531089
 20
-15.16257362380636
 30
0.0
 10
-143.1648136084134
 20
-15.22536136385302
 30
0.0
 10
-144.08087357139
 20
-15.27704534676501
 30
0.0
 10
-144.1940288695349
 20
-15.28339852739542
 30
0.0
 10
-144.3099314890299
 20
-15.2935292748716
 30
0.0
 10
-144.4228006078669
 20
-15.29953904032981
 30
0.0
 10
-145.4474370000679
 20
-15.35425652389981
 30
0.0
 10
-146.4590236158528
 20
-15.39180324902971
 30
0.0
 10
-147.4606511917397
 20
-15.41687255636052
 30
0.0
 10
-147.7764214395195
 20
-15.42477110524226
 30
0.0
 10
-148.0857812708152
 20
-15.42477110524226
 30
0.0
 10
-148.3992048482763
 20
-15.42975062519701
 30
0.0
 10
-148.9286365669587
 20
-15.43810706097009
 30
0.0
 10
-149.4621892676678
 20
-15.45144301669793
 30
0.0
 10
-149.9846382112521
 20
-15.45144301669793
 30
0.0
 10
-150.1813006312942
 20
-15.45144301669793
 30
0.0
 10
-150.3743571920643
 20
-15.44720756294187
 30
0.0
 10
-150.5699893665997
 20
-15.44600560985183
 30
0.0
 10
-150.7414107717292
 20
-15.44497536434805
 30
0.0
 10
-150.912145346522
 20
-15.4432010526456
 30
0.0
 10
-151.0827654495922
 20
-15.44125503334821
 30
0.0
 10
-151.9915564581607
 20
-15.43089534242153
 30
0.0
 10
-152.8908463137214
 20
-15.40954636609153
 30
0.0
 10
-153.7766285059747
 20
-15.37343053750119
 30
0.0
 10
-153.900601381939
 20
-15.36839378169152
 30
0.0
 10
-154.0226854744746
 20
-15.36135377072761
 30
0.0
 10
-154.1461432276843
 20
-15.35580189216076
 30
0.0
 10
-155.0557355383116
 20
-15.31487825120225
 30
0.0
 10
-155.9552543373202
 20
-15.26313703242411
 30
0.0
 10
-156.8389188026988
 20
-15.19496912140648
 30
0.0
 10
-156.8632440438261
 20
-15.19308033797397
 30
0.0
 10
-156.8882561152927
 20
-15.1919356207488
 30
0.0
 10
-156.9125813564219
 20
-15.18998960146104
 30
0.0
 10
-157.8059186823899
 20
-15.12027632217251
 30
0.0
 10
-158.6819707781919
 20
-15.03310610514844
 30
0.0
 10
-159.5473770037573
 20
-14.93563343304298
 30
0.0
 10
-159.6739827293496
 20
-14.92138170354078
 30
0.0
 10
-159.8017904080338
 20
-14.9082174553976
 30
0.0
 10
-159.9277665391495
 20
-14.89339336727336
 30
0.0
 10
-160.7559122188923
 20
-14.7957489875919
 30
0.0
 10
-161.5695199898199
 20
-14.68431076529094
 30
0.0
 10
-162.3704213994994
 20
-14.56113919138764
 30
0.0
 10
-162.510706495985
 20
-14.53956127160683
 30
0.0
 10
-162.6503047621326
 20
-14.51741099321263
 30
0.0
 10
-162.7896740848335
 20
-14.4950890072434
 30
0.0
 10
-163.5921208627731
 20
-14.36642279063812
 30
0.0
 10
-164.3823764022167
 20
-14.22648110931287
 30
0.0
 10
-165.155690126663
 20
-14.07194428332317
 30
0.0
 10
-165.2529338553167
 20
-14.05254132628092
 30
0.0
 10
-165.3481743288185
 20
-14.0313640575359
 30
0.0
 10
-165.4449029347175
 20
-14.01150321360102
 30
0.0
 10
-167.0593548794633
 20
-13.68056546252609
 30
0.0
 10
-168.607241517308
 20
-13.29262079342121
 30
0.0
 10
-170.0840412151961
 20
-12.84858498006393
 30
0.0
 10
-170.1789382735279
 20
-12.8200242851844
 30
0.0
 10
-170.2752089925362
 20
-12.79266554340422
 30
0.0
 10
-170.3695336922533
 20
-12.76364696163334
 30
0.0
 10
-171.0710164105432
 20
-12.54792499971414
 30
0.0
 10
-171.7545270683291
 20
-12.3182374875988
 30
0.0
 10
-172.4224695717918
 20
-12.07681662388177
 30
0.0
 10
-172.5315038879101
 20
-12.03743835118421
 30
0.0
 10
-172.6399658454125
 20
-11.99748771986461
 30
0.0
 10
-172.7480843877474
 20
-11.95742261683356
 30
0.0
 10
-173.4127644471055
 20
-11.71096499730654
 30
0.0
 10
-174.0622197673108
 20
-11.45311744133911
 30
0.0
 10
-174.6916997718583
 20
-11.18096092000463
 30
0.0
 10
-174.768796477272
 20
-11.14764964862116
 30
0.0
 10
-174.8434892765012
 20
-11.11267853726561
 30
0.0
 10
-174.9200136233002
 20
-11.07896661484603
 30
0.0
 10
-176.2242471988283
 20
-10.50449027317973
 30
0.0
 10
-177.4493808137906
 20
-9.873922787268742
 30
0.0
 10
-178.5908928351325
 20
-9.188065459157041
 30
0.0
 10
-178.6639257943797
 20
-9.144222789271543
 30
0.0
 10
-178.7386758294727
 20
-9.101410364880516
 30
0.0
 10
-178.8109647225205
 20
-9.05710980809308
 30
0.0
 10
-179.3498403583482
 20
-8.726858887359671
 30
0.0
 10
-179.8673670178433
 20
-8.382699652286003
 30
0.0
 10
-180.3672077961411
 20
-8.027322188358198
 30
0.0
 10
-180.4510583332082
 20
-7.967682420698961
 30
0.0
 10
-180.5342792757993
 20
-7.907584766148374
 30
0.0
 10
-180.6170423314971
 20
-7.847258168146978
 30
0.0
 10
-181.1099575705576
 20
-7.487874193921939
 30
0.0
 10
-181.5851869284201
 20
-7.117271990842444
 30
0.0
 10
-182.0376364134134
 20
-6.732875945143121
 30
0.0
 10
-182.0985353700273
 20
-6.68113472636594
 30
0.0
 10
-182.1566297694278
 20
-6.627676431751489
 30
0.0
 10
-182.2167274239816
 20
-6.575477326082959
 30
0.0
 10
-183.1481265978334
 20
-5.7671352544098
 30
0.0
 10
-183.9893220539936
 20
-4.904590821914841
 30
0.0
 10
-184.735677687684
 20
-3.988359151354943
 30
0.0
 10
-184.7878767933531
 20
-3.924312222363648
 30
0.0
 10
-184.8421936258963
 20
-3.86152448231699
 30
0.0
 10
-184.8934197219202
 20
-3.796905194703967
 30
0.0
 10
-185.2412420521304
 20
-3.358650203363068
 30
0.0
 10
-185.5649108487948
 20
-2.906887548709033
 30
0.0
 10
-185.8690049808345
 20
-2.444479023812323
 30
0.0
 10
-185.9249816533604
 20
-2.359312061931566
 30
0.0
 10
-185.9801570238262
 20
-2.273744449023042
 30
0.0
 10
-186.0345883280928
 20
-2.1878334209436
 30
0.0
 10
-186.3300970809111
 20
-1.721647329191803
 30
0.0
 10
-186.6059166973797
 20
-1.244758131351714
 30
0.0
 10
-186.8563808272129
 20
-0.7546474495032577
 30
0.0
 10
-186.8942709675121
 20
-0.6804697730264692
 30
0.0
 10
-186.9287269561214
 20
-0.6045177848372743
 30
0.0
 10
-186.9655868509152
 20
-0.529767749748062
 30
0.0
 10
-187.2212022082818
 20
-0.0114970240565079
 30
0.0
 10
-187.4586737975578
 20
0.5162748546413228
 30
0.0
 10
-187.6631202947625
 20
1.060816840762708
 30
0.0
 10
-189.1641307620546
 20
5.058054934742936
 30
0.0
 10
-189.1303616037827
 20
9.446271198503703
 30
0.0
 10
-187.7908135017221
 20
14.0224500313478
 30
0.0
  0
SPLINE
  5
7C
330
70
100
AcDbEntity
  8
Layer 1
100
AcDbSpline
210
0.0
220
0.0
230
1.0
 70
     9
 71
     3
 72
   116
 73
   112
 74
     0
 42
0.0000000001
 43
0.0000000001
 40
0.0
 40
0.0
 40
0.0
 40
0.0
 40
1.0
 40
1.0
 40
1.0
 40
2.0
 40
2.0
 40
2.0
 40
3.0
 40
3.0
 40
3.0
 40
4.0
 40
4.0
 40
4.0
 40
5.0
 40
5.0
 40
5.0
 40
6.0
 40
6.0
 40
6.0
 40
7.0
 40
7.0
 40
7.0
 40
8.0
 40
8.0
 40
8.0
 40
9.0
 40
9.0
 40
9.0
 40
10.0
 40
10.0
 40
10.0
 40
11.0
 40
11.0
 40
11.0
 40
12.0
 40
12.0
 40
12.0
 40
13.0
 40
13.0
 40
13.0
 40
14.0
 40
14.0
 40
14.0
 40
15.0
 40
15.0
 40
15.0
 40
16.0
 40
16.0
 40
16.0
 40
17.0
 40
17.0
 40
17.0
 40
18.0
 40
18.0
 40
18.0
 40
19.0
 40
19.0
 40
19.0
 40
20.0
 40
20.0
 40
20.0
 40
21.0
 40
21.0
 40
21.0
 40
22.0
 40
22.0
 40
22.0
 40
23.0
 40
23.0
 40
23.0
 40
24.0
 40
24.0
 40
24.0
 40
25.0
 40
25.0
 40
25.0
 40
26.0
 40
26.0
 40
26.0
 40
27.0
 40
27.0
 40
27.0
 40
28.0
 40
28.0
 40
28.0
 40
29.0
 40
29.0
 40
29.0
 40
30.0
 40
30.0
 40
30.0
 40
31.0
 40
31.0
 40
31.0
 40
32.0
 40
32.0
 40
32.0
 40
33.0
 40
33.0
 40
33.0
 40
34.0
 40
34.0
 40
34.0
 40
35.0
 40
35.0
 40
35.0
 40
36.0
 40
36.0
 40
36.0
 40
37.0
 40
37.0
 40
37.0
 40
37.0
 10
-72.00369597471343
 20
72.82004922691965
 30
0.0
 10
-71.61225991805726
 20
72.79520886304061
 30
0.0
 10
-71.22076662553912
 20
72.7705974426018
 30
0.0
 10
-70.83442456055299
 20
72.74060585118206
 30
0.0
 10
-70.83041805024966
 20
72.74031967187633
 30
0.0
 10
-70.826354304085
 20
72.74009072843418
 30
0.0
 10
-70.82234779378231
 20
72.73974731326326
 30
0.0
 10
-69.91504491761242
 20
72.66911826019974
 30
0.0
 10
-69.02525621505578
 20
72.58074609007632
 30
0.0
 10
-68.14674297721108
 20
72.48149910626935
 30
0.0
 10
-68.03438898112742
 20
72.46879274501785
 30
0.0
 10
-67.9209475036751
 20
72.4571738651366
 30
0.0
 10
-67.80910863034413
 20
72.44406685285892
 30
0.0
 10
-66.96797041004661
 20
72.34510604836764
 30
0.0
 10
-66.14159904200912
 20
72.23195075021978
 30
0.0
 10
-65.32856362969687
 20
72.1066042135776
 30
0.0
 10
-65.2034460365039
 20
72.08731572826508
 30
0.0
 10
-65.07878633020162
 20
72.06751212018577
 30
0.0
 10
-64.95429833148337
 20
72.04759404039598
 30
0.0
 10
-64.13857283368052
 20
71.91703904035849
 30
0.0
 10
-63.33566816885025
 20
71.77486516044841
 30
0.0
 10
-62.5500487341866
 20
71.61769548482848
 30
0.0
 10
-62.46722844262555
 20
71.60115432085733
 30
0.0
 10
-62.38618246277112
 20
71.58312502449106
 30
0.0
 10
-62.30370558637937
 20
71.56624044535799
 30
0.0
 10
-60.67002239217697
 20
71.23209748604009
 30
0.0
 10
-59.10410645796701
 20
70.83974565560314
 30
0.0
 10
-57.61116624714154
 20
70.38992902023654
 30
0.0
 10
-57.52966238039512
 20
70.36537483566259
 30
0.0
 10
-57.44689932469732
 20
70.34179366072915
 30
0.0
 10
-57.36585334484161
 20
70.31689606098396
 30
0.0
 10
-56.6541254073471
 20
70.09825507013842
 30
0.0
 10
-55.96088465311115
 20
69.86524787805068
 30
0.0
 10
-55.28366994008854
 20
69.6202211550629
 30
0.0
 10
-55.18453742800619
 20
69.58433426991469
 30
0.0
 10
-55.08592003867716
 20
69.54816120545948
 30
0.0
 10
-54.98753159279413
 20
69.51170196169918
 30
0.0
 10
-54.31403721076815
 20
69.26226807737004
 30
0.0
 10
-53.65639716237211
 20
69.00115807730407
 30
0.0
 10
-53.0190758448007
 20
68.72533846083396
 30
0.0
 10
-52.95153752825555
 20
68.69609093561194
 30
0.0
 10
-52.88600246686112
 20
68.66541251385872
 30
0.0
 10
-52.81886480134662
 20
68.63587880934125
 30
0.0
 10
-51.50450047833661
 20
68.05779660839522
 30
0.0
 10
-50.27049530484369
 20
67.42259301770136
 30
0.0
 10
-49.12119920634112
 20
66.73152722620367
 30
0.0
 10
-49.05263064428868
 20
66.6902601700736
 30
0.0
 10
-48.98234500639158
 20
66.6500805953218
 30
0.0
 10
-48.91440603881642
 20
66.60847012402081
 30
0.0
 10
-48.37261137405342
 20
66.27661659916093
 30
0.0
 10
-47.85245186493094
 20
65.93074028825096
 30
0.0
 10
-47.35014994458784
 20
65.57347404089096
 30
0.0
 10
-47.26858884198072
 20
65.51537964149236
 30
0.0
 10
-47.18760009798827
 20
65.45694182692283
 30
0.0
 10
-47.10706924088653
 20
65.39821783304789
 30
0.0
 10
-46.6119790390907
 20
65.03728849055324
 30
0.0
 10
-46.1348036619375
 20
64.66525539094188
 30
0.0
 10
-45.68057986523949
 20
64.27914226940528
 30
0.0
 10
-45.62214205066837
 20
64.22946154163726
 30
0.0
 10
-45.56645155744855
 20
64.17817820975177
 30
0.0
 10
-45.50875780907932
 20
64.12809683095564
 30
0.0
 10
-44.57512643662821
 20
63.318266626888
 30
0.0
 10
-43.73209943290201
 20
62.45389064682571
 30
0.0
 10
-42.9843129026756
 20
61.53571295697838
 30
0.0
 10
-42.9325716838965
 20
61.47223838659854
 30
0.0
 10
-42.87876997410664
 20
61.40996576930938
 30
0.0
 10
-42.82794452911345
 20
61.34591884031745
 30
0.0
 10
-42.47989325545655
 20
60.90732043379568
 30
0.0
 10
-42.15599551534746
 20
60.45527159983592
 30
0.0
 10
-41.85172967572436
 20
59.99257689563187
 30
0.0
 10
-41.79586747491924
 20
59.90763887720192
 30
0.0
 10
-41.74086381203806
 20
59.82218573601415
 30
0.0
 10
-41.68648974363224
 20
59.73644641552065
 30
0.0
 10
-41.39086651909245
 20
59.27014585204843
 30
0.0
 10
-41.11498966676261
 20
58.79319941834283
 30
0.0
 10
-40.86441106520541
 20
58.30285979304388
 30
0.0
 10
-40.82663539662886
 20
58.22891106001822
 30
0.0
 10
-40.79235111560424
 20
58.15307354355876
 30
0.0
 10
-40.75554845667303
 20
58.07855245191009
 30
0.0
 10
-40.4998186275838
 20
57.56016725448977
 30
0.0
 10
-40.26234703830587
 20
57.03228090407022
 30
0.0
 10
-40.05784330524178
 20
56.48762444622937
 30
0.0
 10
-36.40734006009417
 20
46.76611337398128
 30
0.0
 10
-41.7452709733714
 20
34.74938702055573
 30
0.0
 10
-53.25769215130733
 20
23.2773171249614
 30
0.0
 10
-52.20953182003783
 20
26.93932477826438
 30
0.0
 10
-51.67563570416072
 20
30.83428238778895
 30
0.0
 10
-51.67563570416072
 20
34.94719415782813
 30
0.0
 10
-51.67563570416072
 20
49.77626180089787
 30
0.0
 10
-57.52628546456779
 20
61.81256281895129
 30
0.0
 10
-69.06457725189231
 20
70.72252661129318
 30
0.0
 10
-69.45549818579515
 20
71.02433130886685
 30
0.0
 10
-69.85580580098126
 20
71.31537566448833
 30
0.0
 10
-70.25765878442801
 20
71.60464570840701
 30
0.0
 10
-70.26372578574402
 20
71.60945352077551
 30
0.0
 10
-70.26584351261933
 20
71.6158067013966
 30
0.0
 10
-70.27202498565866
 20
71.62055727790054
 30
0.0
 10
-70.51659382175991
 20
71.80811919596703
 30
0.0
 10
-70.835054155029
 20
72.026702950957
 30
0.0
 10
-71.19083226998586
 20
72.26028250164754
 30
0.0
 10
-71.4562921955264
 20
72.44349449424714
 30
0.0
 10
-71.71940545074564
 20
72.62945380819677
 30
0.0
 10
-71.98761269763749
 20
72.80946059254313
 30
0.0
 10
-72.01153728773544
 20
72.81100596080311
 30
0.0
 10
-72.03574805714135
 20
72.81220791389348
 30
0.0
 10
-72.05967264723994
 20
72.81375328215474
 30
0.0
 10
-72.0650528182186
 20
72.81707296211784
 30
0.0
 10
-72.0710625836752
 20
72.82062158553208
 30
0.0
 10
-72.07644275465387
 20
72.82394126549516
 30
0.0
 10
-72.05234645697062
 20
72.82245313309973
 30
0.0
 10
-72.02773503653469
 20
72.82159459518061
 30
0.0
 10
-72.00369597471343
 20
72.82004922691965
 30
0.0
  0
SPLINE
  5
7D
330
70
100
AcDbEntity
  8
Layer 1
100
AcDbSpline
210
0.0
220
0.0
230
1.0
 70
     9
 71
     3
 72
   425
 73
   421
 74
     0
 42
0.0000000001
 43
0.0000000001
 40
0.0
 40
0.0
 40
0.0
 40
0.0
 40
1.0
 40
1.0
 40
1.0
 40
2.0
 40
2.0
 40
2.0
 40
3.0
 40
3.0
 40
3.0
 40
4.0
 40
4.0
 40
4.0
 40
5.0
 40
5.0
 40
5.0
 40
6.0
 40
6.0
 40
6.0
 40
7.0
 40
7.0
 40
7.0
 40
8.0
 40
8.0
 40
8.0
 40
9.0
 40
9.0
 40
9.0
 40
10.0
 40
10.0
 40
10.0
 40
11.0
 40
11.0
 40
11.0
 40
12.0
 40
12.0
 40
12.0
 40
13.0
 40
13.0
 40
13.0
 40
14.0
 40
14.0
 40
14.0
 40
15.0
 40
15.0
 40
15.0
 40
16.0
 40
16.0
 40
16.0
 40
17.0
 40
17.0
 40
17.0
 40
18.0
 40
18.0
 40
18.0
 40
19.0
 40
19.0
 40
19.0
 40
20.0
 40
20.0
 40
20.0
 40
21.0
 40
21.0
 40
21.0
 40
22.0
 40
22.0
 40
22.0
 40
23.0
 40
23.0
 40
23.0
 40
24.0
 40
24.0
 40
24.0
 40
25.0
 40
25.0
 40
25.0
 40
26.0
 40
26.0
 40
26.0
 40
27.0
 40
27.0
 40
27.0
 40
28.0
 40
28.0
 40
28.0
 40
29.0
 40
29.0
 40
29.0
 40
30.0
 40
30.0
 40
30.0
 40
31.0
 40
31.0
 40
31.0
 40
32.0
 40
32.0
 40
32.0
 40
33.0
 40
33.0
 40
33.0
 40
34.0
 40
34.0
 40
34.0
 40
35.0
 40
35.0
 40
35.0
 40
36.0
 40
36.0
 40
36.0
 40
37.0
 40
37.0
 40
37.0
 40
38.0
 40
38.0
 40
38.0
 40
39.0
 40
39.0
 40
39.0
 40
40.0
 40
40.0
 40
40.0
 40
41.0
 40
41.0
 40
41.0
 40
42.0
 40
42.0
 40
42.0
 40
43.0
 40
43.0
 40
43.0
 40
44.0
 40
44.0
 40
44.0
 40
45.0
 40
45.0
 40
45.0
 40
46.0
 40
46.0
 40
46.0
 40
47.0
 40
47.0
 40
47.0
 40
48.0
 40
48.0
 40
48.0
 40
49.0
 40
49.0
 40
49.0
 40
50.0
 40
50.0
 40
50.0
 40
51.0
 40
51.0
 40
51.0
 40
52.0
 40
52.0
 40
52.0
 40
53.0
 40
53.0
 40
53.0
 40
54.0
 40
54.0
 40
54.0
 40
55.0
 40
55.0
 40
55.0
 40
56.0
 40
56.0
 40
56.0
 40
57.0
 40
57.0
 40
57.0
 40
58.0
 40
58.0
 40
58.0
 40
59.0
 40
59.0
 40
59.0
 40
60.0
 40
60.0
 40
60.0
 40
61.0
 40
61.0
 40
61.0
 40
62.0
 40
62.0
 40
62.0
 40
63.0
 40
63.0
 40
63.0
 40
64.0
 40
64.0
 40
64.0
 40
65.0
 40
65.0
 40
65.0
 40
66.0
 40
66.0
 40
66.0
 40
67.0
 40
67.0
 40
67.0
 40
68.0
 40
68.0
 40
68.0
 40
69.0
 40
69.0
 40
69.0
 40
70.0
 40
70.0
 40
70.0
 40
71.0
 40
71.0
 40
71.0
 40
72.0
 40
72.0
 40
72.0
 40
73.0
 40
73.0
 40
73.0
 40
74.0
 40
74.0
 40
74.0
 40
75.0
 40
75.0
 40
75.0
 40
76.0
 40
76.0
 40
76.0
 40
77.0
 40
77.0
 40
77.0
 40
78.0
 40
78.0
 40
78.0
 40
79.0
 40
79.0
 40
79.0
 40
80.0
 40
80.0
 40
80.0
 40
81.0
 40
81.0
 40
81.0
 40
82.0
 40
82.0
 40
82.0
 40
83.0
 40
83.0
 40
83.0
 40
84.0
 40
84.0
 40
84.0
 40
85.0
 40
85.0
 40
85.0
 40
86.0
 40
86.0
 40
86.0
 40
87.0
 40
87.0
 40
87.0
 40
88.0
 40
88.0
 40
88.0
 40
89.0
 40
89.0
 40
89.0
 40
90.0
 40
90.0
 40
90.0
 40
91.0
 40
91.0
 40
91.0
 40
92.0
 40
92.0
 40
92.0
 40
93.0
 40
93.0
 40
93.0
 40
94.0
 40
94.0
 40
94.0
 40
95.0
 40
95.0
 40
95.0
 40
96.0
 40
96.0
 40
96.0
 40
97.0
 40
97.0
 40
97.0
 40
98.0
 40
98.0
 40
98.0
 40
99.0
 40
99.0
 40
99.0
 40
100.0
 40
100.0
 40
100.0
 40
101.0
 40
101.0
 40
101.0
 40
102.0
 40
102.0
 40
102.0
 40
103.0
 40
103.0
 40
103.0
 40
104.0
 40
104.0
 40
104.0
 40
105.0
 40
105.0
 40
105.0
 40
106.0
 40
106.0
 40
106.0
 40
107.0
 40
107.0
 40
107.0
 40
108.0
 40
108.0
 40
108.0
 40
109.0
 40
109.0
 40
109.0
 40
110.0
 40
110.0
 40
110.0
 40
111.0
 40
111.0
 40
111.0
 40
112.0
 40
112.0
 40
112.0
 40
113.0
 40
113.0
 40
113.0
 40
114.0
 40
114.0
 40
114.0
 40
115.0
 40
115.0
 40
115.0
 40
116.0
 40
116.0
 40
116.0
 40
117.0
 40
117.0
 40
117.0
 40
118.0
 40
118.0
 40
118.0
 40
119.0
 40
119.0
 40
119.0
 40
120.0
 40
120.0
 40
120.0
 40
121.0
 40
121.0
 40
121.0
 40
122.0
 40
122.0
 40
122.0
 40
123.0
 40
123.0
 40
123.0
 40
124.0
 40
124.0
 40
124.0
 40
125.0
 40
125.0
 40
125.0
 40
126.0
 40
126.0
 40
126.0
 40
127.0
 40
127.0
 40
127.0
 40
128.0
 40
128.0
 40
128.0
 40
129.0
 40
129.0
 40
129.0
 40
130.0
 40
130.0
 40
130.0
 40
131.0
 40
131.0
 40
131.0
 40
132.0
 40
132.0
 40
132.0
 40
133.0
 40
133.0
 40
133.0
 40
134.0
 40
134.0
 40
134.0
 40
135.0
 40
135.0
 40
135.0
 40
136.0
 40
136.0
 40
136.0
 40
137.0
 40
137.0
 40
137.0
 40
138.0
 40
138.0
 40
138.0
 40
139.0
 40
139.0
 40
139.0
 40
140.0
 40
140.0
 40
140.0
 40
140.0
 10
-23.18614223769604
 20
47.14821998522128
 30
0.0
 10
-23.24269126883657
 20
47.96915394641493
 30
0.0
 10
-23.33695873269423
 20
48.78281895320382
 30
0.0
 10
-23.46951698788049
 20
49.58835646766015
 30
0.0
 10
-23.73469073411305
 20
51.19931702485208
 30
0.0
 10
-24.15331382497181
 20
52.77771037686981
 30
0.0
 10
-24.73133879005137
 20
54.31706887134999
 30
0.0
 10
-24.89177090977628
 20
54.74433457729622
 30
0.0
 10
-25.06611134384369
 20
55.16444580055845
 30
0.0
 10
-25.24880821368515
 20
55.58009262661411
 30
0.0
 10
-25.30770391514634
 20
55.71408177833512
 30
0.0
 10
-25.37175084414213
 20
55.84520913698534
 30
0.0
 10
-25.43293598006393
 20
55.97799633561759
 30
0.0
 10
-25.56268967803689
 20
56.25942506650947
 30
0.0
 10
-25.6954768766685
 20
56.53925119328548
 30
0.0
 10
-25.8353613221247
 20
56.81518528147536
 30
0.0
 10
-25.91154225375252
 20
56.96542941786178
 30
0.0
 10
-25.9905849784556
 20
57.11407095012269
 30
0.0
 10
-26.0697994107427
 20
57.26265524651777
 30
0.0
 10
-26.20750889346162
 20
57.52124686868388
 30
0.0
 10
-26.34962553751453
 20
57.77737734880505
 30
0.0
 10
-26.49637828634806
 20
58.03104668688064
 30
0.0
 10
-26.58011435169246
 20
58.17573894470052
 30
0.0
 10
-26.66379318117489
 20
58.32037396665425
 30
0.0
 10
-26.75039103959264
 20
58.46346362035761
 30
0.0
 10
-26.9113382820728
 20
58.72949590451282
 30
0.0
 10
-27.0790965920683
 20
58.99169338594872
 30
0.0
 10
-27.25000287444577
 20
59.25217379153611
 30
0.0
 10
-27.32961795776352
 20
59.37351381787209
 30
0.0
 10
-27.40654295559066
 20
59.49639921246998
 30
0.0
 10
-27.48833300164506
 20
59.6165372857159
 30
0.0
 10
-27.74017079215364
 20
59.98656713018266
 30
0.0
 10
-27.99996436740754
 20
60.35207534158761
 30
0.0
 10
-28.27177747357271
 20
60.71060077789321
 30
0.0
 10
-28.27566951215336
 20
60.71575200542396
 30
0.0
 10
-28.279160899704
 20
60.72113217640551
 30
0.0
 10
-28.28311017414599
 20
60.72622616808069
 30
0.0
 10
-28.56024621542849
 20
61.09116202087258
 30
0.0
 10
-28.84980243865163
 20
61.44882891925008
 30
0.0
 10
-29.14731444662074
 20
61.80180247699845
 30
0.0
 10
-29.23957865532513
 20
61.91135191586722
 30
0.0
 10
-29.33647896880886
 20
62.01809679752943
 30
0.0
 10
-29.43074643266588
 20
62.12644428330881
 30
0.0
 10
-29.64114545946326
 20
62.36843750563826
 30
0.0
 10
-29.85457798691864
 20
62.60859918041002
 30
0.0
 10
-30.07459263844594
 20
62.84481158073144
 30
0.0
 10
-30.18998013518761
 20
62.96872722083278
 30
0.0
 10
-30.30811495328123
 20
63.0910974926722
 30
0.0
 10
-30.42613529965154
 20
63.21341052865766
 30
0.0
 10
-30.63813693057089
 20
63.43313900087217
 30
0.0
 10
-30.85414507179422
 20
63.65034909518745
 30
0.0
 10
-31.07444590262756
 20
63.86492633987185
 30
0.0
 10
-31.19704511791523
 20
63.98432034691975
 30
0.0
 10
-31.31975880492686
 20
64.10365711810341
 30
0.0
 10
-31.44493363398245
 20
64.22150575689002
 30
0.0
 10
-31.68257693084376
 20
64.44518350355583
 30
0.0
 10
-31.92634446488434
 20
64.66502644749171
 30
0.0
 10
-32.17303102785961
 20
64.88298060800504
 30
0.0
 10
-32.28509884463529
 20
64.98194141250596
 30
0.0
 10
-32.39481999109161
 20
65.08244758525851
 30
0.0
 10
-32.5087765912966
 20
65.18026367253489
 30
0.0
 10
-32.86449747039019
 20
65.48561699352311
 30
0.0
 10
-33.22748730389112
 20
65.78639144559301
 30
0.0
 10
-33.60118024348996
 20
66.08012588670927
 30
0.0
 10
-33.60827749031456
 20
66.08567776526682
 30
0.0
 10
-33.6149168502446
 20
66.09157305900459
 30
0.0
 10
-33.62201409706727
 20
66.09712493756245
 30
0.0
 10
-34.00612396345541
 20
66.39852898411991
 30
0.0
 10
-34.40133758696955
 20
66.69254960453291
 30
0.0
 10
-34.80393463661434
 20
66.9817051767299
 30
0.0
 10
-34.92229839815397
 20
67.06670043102599
 30
0.0
 10
-35.04472590585762
 20
67.14900559983597
 30
0.0
 10
-35.16463503565659
 20
67.23291337276183
 30
0.0
 10
-35.4525314188977
 20
67.43438360516856
 30
0.0
 10
-35.74334683107414
 20
67.63385058242299
 30
0.0
 10
-36.04028648042794
 20
67.82919657764981
 30
0.0
 10
-36.18824118235086
 20
67.9265547780252
 30
0.0
 10
-36.33865702631969
 20
68.02231037428345
 30
0.0
 10
-36.48884392683995
 20
68.11812320639693
 30
0.0
 10
-36.77021542187306
 20
68.29761486799637
 30
0.0
 10
-37.05525001203889
 20
68.47453091583044
 30
0.0
 10
-37.34429111250999
 20
68.64869964231224
 30
0.0
 10
-37.50083119365552
 20
68.74296710616508
 30
0.0
 10
-37.65754298238636
 20
68.83717733416301
 30
0.0
 10
-37.81631526212923
 20
68.92989942976325
 30
0.0
 10
-38.12281330035032
 20
69.10887596860519
 30
0.0
 10
-38.43474874541269
 20
69.284074940593
 30
0.0
 10
-38.74943151182446
 20
69.45715618570583
 30
0.0
 10
-38.89131921243265
 20
69.53522590076776
 30
0.0
 10
-39.03120365788821
 20
69.61478374821743
 30
0.0
 10
-39.17475119847715
 20
69.6915942743251
 30
0.0
 10
-39.61964554975516
 20
69.92975269394327
 30
0.0
 10
-40.07106478924244
 20
70.16316053704787
 30
0.0
 10
-40.53158453070374
 20
70.38975731265027
 30
0.0
 10
-40.54577902435101
 20
70.39668285188317
 30
0.0
 10
-40.55928668765966
 20
70.4042379856036
 30
0.0
 10
-40.57348118130757
 20
70.41116352484642
 30
0.0
 10
-41.05311770050283
 20
70.6465746231043
 30
0.0
 10
-41.54271325959667
 20
70.87448782351749
 30
0.0
 10
-42.03883370689916
 20
71.09730703225553
 30
0.0
 10
-42.18157994542743
 20
71.16141119711169
 30
0.0
 10
-42.32793204323095
 20
71.22271080475231
 30
0.0
 10
-42.47199470657322
 20
71.28578472410437
 30
0.0
 10
-42.82765834980611
 20
71.44146626732823
 30
0.0
 10
-43.18589760680437
 20
71.59503008367902
 30
0.0
 10
-43.54968874236661
 20
71.74430121041658
 30
0.0
 10
-43.72866528121207
 20
71.81779205655988
 30
0.0
 10
-43.90987401865552
 20
71.88950859099269
 30
0.0
 10
-44.09079657679099
 20
71.9613968330108
 30
0.0
 10
-44.43203678292998
 20
72.09704582471383
 30
0.0
 10
-44.77653943317424
 20
72.23006196678662
 30
0.0
 10
-45.12459070682921
 20
72.36021631579794
 30
0.0
 10
-45.3125532759273
 20
72.43050195368958
 30
0.0
 10
-45.50074478847138
 20
72.50061588400491
 30
0.0
 10
-45.69065337685883
 20
72.56929891778035
 30
0.0
 10
-46.05684841860434
 20
72.70168546537586
 30
0.0
 10
-46.42779403685059
 20
72.83017997440514
 30
0.0
 10
-46.80120079714209
 20
72.95661399240668
 30
0.0
 10
-46.97130577745697
 20
73.01419326905739
 30
0.0
 10
-47.1395792102058
 20
73.07320344223902
 30
0.0
 10
-47.31117232292191
 20
73.12958076579938
 30
0.0
 10
-47.82022807491772
 20
73.29676671718374
 30
0.0
 10
-48.3352935923695
 20
73.45891591274848
 30
0.0
 10
-48.85711294147464
 20
73.61511257872888
 30
0.0
 10
-48.89362942109981
 20
73.62604462826798
 30
0.0
 10
-48.92900118349435
 20
73.63789245160036
 30
0.0
 10
-48.96563213483963
 20
73.64882450113978
 30
0.0
 10
-49.52763105870523
 20
73.81595321665897
 30
0.0
 10
-50.09827259765351
 20
73.97564127018839
 30
0.0
 10
-50.67469495861045
 20
74.13000638859215
 30
0.0
 10
-50.84199538171461
 20
74.17476483227094
 30
0.0
 10
-51.01238654133874
 20
74.21666148287798
 30
0.0
 10
-51.18083168167223
 20
74.26038968104433
 30
0.0
 10
-51.592643705015
 20
74.3673062702912
 30
0.0
 10
-52.0066879269564
 20
74.47216236852185
 30
0.0
 10
-52.42553996125987
 20
74.57261130540922
 30
0.0
 10
-52.6354238653052
 20
74.62297886351106
 30
0.0
 10
-52.84725378863989
 20
74.67140040232514
 30
0.0
 10
-53.05885476852859
 20
74.72010812044593
 30
0.0
 10
-53.44908887209408
 20
74.80996842296544
 30
0.0
 10
-53.84212753287286
 20
74.89719587586337
 30
0.0
 10
-54.23819969430773
 20
74.9815615356825
 30
0.0
 10
-54.45558149620638
 20
75.02780811175802
 30
0.0
 10
-54.67307776982708
 20
75.07394021611182
 30
0.0
 10
-54.89217664757039
 20
75.11852695220594
 30
0.0
 10
-55.30822412466378
 20
75.20329326305091
 30
0.0
 10
-55.7283353479199
 20
75.28405306359897
 30
0.0
 10
-56.15050706219127
 20
75.36280960899439
 30
0.0
 10
-56.34814249187933
 20
75.39966950379209
 30
0.0
 10
-56.54428978916938
 20
75.43796029512036
 30
0.0
 10
-56.74324164367145
 20
75.47350376509829
 30
0.0
 10
-57.30243601032247
 20
75.57338034338254
 30
0.0
 10
-57.86683884036943
 20
75.66804845826251
 30
0.0
 10
-58.43639289795034
 20
75.7575081097552
 30
0.0
 10
-58.49752079800952
 20
75.76712373448384
 30
0.0
 10
-58.55744674497866
 20
75.77811301988781
 30
0.0
 10
-58.61868911676115
 20
75.7876141728957
 30
0.0
 10
-59.2516605088612
 20
75.88560196774807
 30
0.0
 10
-59.89184361950531
 20
75.97603462888033
 30
0.0
 10
-60.53706348596263
 20
76.06114435490616
 30
0.0
 10
-60.72720101779545
 20
76.08621366223633
 30
0.0
 10
-60.92020034270352
 20
76.10830670476501
 30
0.0
 10
-61.11136812004492
 20
76.13223129486168
 30
0.0
 10
-61.56982737049226
 20
76.18963886392646
 30
0.0
 10
-62.03011816850757
 20
76.24510041370284
 30
0.0
 10
-62.49452994855145
 20
76.29609756627267
 30
0.0
 10
-62.73200153782809
 20
76.32213988325105
 30
0.0
 10
-62.97124743881138
 20
76.34629341679853
 30
0.0
 10
-63.21020716048796
 20
76.37067589378621
 30
0.0
 10
-63.64039189536663
 20
76.41451856368134
 30
0.0
 10
-64.07275159298002
 20
76.45590009152254
 30
0.0
 10
-64.50780137608404
 20
76.49424811871631
 30
0.0
 10
-64.75546094870463
 20
76.51611221780382
 30
0.0
 10
-65.00352117235459
 20
76.53757566585522
 30
0.0
 10
-65.25272611323583
 20
76.55766545324026
 30
0.0
 10
-65.70128355964911
 20
76.59378128182996
 30
0.0
 10
-66.15316068602838
 20
76.62606230770869
 30
0.0
 10
-66.60664041652707
 20
76.65639731429068
 30
0.0
 10
-66.83741541001234
 20
76.67185099689222
 30
0.0
 10
-67.06698845040564
 20
76.68873557602498
 30
0.0
 10
-67.2990226328423
 20
76.70264389036588
 30
0.0
 10
-67.88752176057186
 20
76.7379584168917
 30
0.0
 10
-68.48031357791336
 20
76.76806448003251
 30
0.0
 10
-69.07671125452562
 20
76.7937633818406
 30
0.0
 10
-69.1711504259673
 20
76.79788436386662
 30
0.0
 10
-69.26410146500903
 20
76.80372242174016
 30
0.0
 10
-69.35871234403409
 20
76.80755722445113
 30
0.0
 10
-70.05040773001131
 20
76.8354883248524
 30
0.0
 10
-70.74811288144322
 20
76.85597876326458
 30
0.0
 10
-71.4500534866238
 20
76.87097455897507
 30
0.0
 10
-71.65982291894646
 20
76.87543895617297
 30
0.0
 10
-71.87193902158785
 20
76.87669814511792
 30
0.0
 10
-72.08256699183185
 20
76.8800178250913
 30
0.0
 10
-72.58074793014639
 20
76.88785913810784
 30
0.0
 10
-73.08053147258353
 20
76.89369719598106
 30
0.0
 10
-73.58357745912532
 20
76.89501362079122
 30
0.0
 10
-73.68351127326834
 20
76.89524256424234
 30
0.0
 10
-73.78155630398206
 20
76.89798988559333
 30
0.0
 10
-73.88166182570974
 20
76.89798988559333
 30
0.0
 10
-73.99338622731611
 20
76.89798988559333
 30
0.0
 10
-74.10808689371979
 20
76.89386890356669
 30
0.0
 10
-74.22004023877409
 20
76.8935254883948
 30
0.0
 10
-75.10547901585744
 20
76.8910071104959
 30
0.0
 10
-75.99629796392074
 20
76.88104807059571
 30
0.0
 10
-76.89593123465137
 20
76.85838266944433
 30
0.0
 10
-76.94109032935855
 20
76.85723795222012
 30
0.0
 10
-76.9855625937284
 20
76.85706624463482
 30
0.0
 10
-77.03077892429758
 20
76.85586429154479
 30
0.0
 10
-77.6444045952164
 20
76.83972377861008
 30
0.0
 10
-78.26741694741722
 20
76.80967495133415
 30
0.0
 10
-78.88762474240667
 20
76.78386157780625
 30
0.0
 10
-78.88762474240667
 20
76.78386157780625
 30
0.0
 10
-79.36239621337595
 20
76.98813636741954
 30
0.0
 10
-79.36239621337595
 20
76.98813636741954
 30
0.0
 10
-79.36239621337595
 20
76.98813636741954
 30
0.0
 10
-79.36399881749856
 20
76.98424432884337
 30
0.0
 10
-79.36399881749856
 20
76.98424432884337
 30
0.0
 10
-79.66534562818698
 20
77.12470113291586
 30
0.0
 10
-79.96640625956742
 20
77.26544411628477
 30
0.0
 10
-80.27004250471451
 20
77.40309636315036
 30
0.0
 10
-80.33237235786501
 20
77.43583527591275
 30
0.0
 10
-80.36837371473685
 20
77.45466587434258
 30
0.0
 10
-80.36837371473685
 20
77.45466587434258
 30
0.0
 10
-80.36837371473685
 20
77.45466587434258
 30
0.0
 10
-80.37117827194821
 20
77.44985806197345
 30
0.0
 10
-80.37117827194821
 20
77.44985806197345
 30
0.0
 10
-89.81337834017972
 20
81.71083900566015
 30
0.0
 10
-101.0114029310106
 20
83.87567099438641
 30
0.0
 10
-113.8489487739132
 20
83.87567099438641
 30
0.0
 10
-130.2390100671098
 20
83.87567099438641
 30
0.0
 10
-144.6546058468582
 20
79.51315363244209
 30
0.0
 10
-156.6937686579866
 20
70.90745567972973
 30
0.0
 10
-168.1329279332287
 20
62.7311411598357
 30
0.0
 10
-175.9314857673612
 20
51.17001226377483
 30
0.0
 10
-179.9141287166712
 20
36.52015010299815
 30
0.0
 10
-181.7734929126863
 20
37.66538245533957
 30
0.0
 10
-183.9553239522756
 20
38.33761764840744
 30
0.0
 10
-186.2993614232959
 20
38.33761764840744
 30
0.0
 10
-193.0414597262443
 20
38.33761764840744
 30
0.0
 10
-198.5070266106198
 20
32.8720507640364
 30
0.0
 10
-198.5070266106198
 20
26.1299524610868
 30
0.0
 10
-198.5070266106198
 20
22.70570257636748
 30
0.0
 10
-197.0930146527754
 20
19.61525223579451
 30
0.0
 10
-194.8221246127249
 20
17.39839284898405
 30
0.0
 10
-200.6335105721587
 20
7.400661509231046
 30
0.0
 10
-202.4447394086692
 20
-2.516310029974869
 30
0.0
 10
-199.1868741732704
 20
-11.19217914885844
 30
0.0
 10
-199.0264420535455
 20
-11.61944485479537
 30
0.0
 10
-198.8521016194794
 20
-12.03955607805792
 30
0.0
 10
-198.6694047496366
 20
-12.45520290412257
 30
0.0
 10
-198.6105090481754
 20
-12.58919205584389
 30
0.0
 10
-198.546462119179
 20
-12.72031941449508
 30
0.0
 10
-198.4852769832579
 20
-12.85310661312669
 30
0.0
 10
-198.3555232852842
 20
-13.13459257987381
 30
0.0
 10
-198.2226788507919
 20
-13.41441870664949
 30
0.0
 10
-198.0827371694744
 20
-13.69041003070425
 30
0.0
 10
-198.0067279454306
 20
-13.84042522364114
 30
0.0
 10
-197.9277424565889
 20
-13.9888378124506
 30
0.0
 10
-197.8487569677484
 20
-14.13719316540514
 30
0.0
 10
-197.7108185415815
 20
-14.39618543860736
 30
0.0
 10
-197.5684729540839
 20
-14.65277380560993
 30
0.0
 10
-197.4214912618057
 20
-14.90678655885772
 30
0.0
 10
-197.3379269040453
 20
-15.05124987323546
 30
0.0
 10
-197.2543053104249
 20
-15.19559871588346
 30
0.0
 10
-197.1678791595898
 20
-15.33840219027082
 30
0.0
 10
-197.0067029736649
 20
-15.60483512546278
 30
0.0
 10
-196.8387729560848
 20
-15.86743325792516
 30
0.0
 10
-196.6675804944006
 20
-16.12825707868476
 30
0.0
 10
-196.5882515903902
 20
-16.24908198227317
 30
0.0
 10
-196.5116700077298
 20
-16.37150948997907
 30
0.0
 10
-196.430223376846
 20
-16.49113244046782
 30
0.0
 10
-196.1782711146141
 20
-16.86139122837575
 30
0.0
 10
-195.9183630676369
 20
-17.22707114736537
 30
0.0
 10
-195.6463782538884
 20
-17.58582552712242
 30
0.0
 10
-195.6425434511684
 20
-17.59091951878797
 30
0.0
 10
-195.6389948277571
 20
-17.59624245390369
 30
0.0
 10
-195.6351027891751
 20
-17.60133644557984
 30
0.0
 10
-195.3577950403093
 20
-17.96655847767746
 30
0.0
 10
-195.0680098736408
 20
-18.32445431950609
 30
0.0
 10
-194.7703261580864
 20
-18.67765682069597
 30
0.0
 10
-194.678977723166
 20
-18.78606154233989
 30
0.0
 10
-194.5831076551882
 20
-18.89160447090276
 30
0.0
 10
-194.4898704368372
 20
-18.99886447532247
 30
0.0
 10
-194.2782122210878
 20
-19.24228859419245
 30
0.0
 10
-194.0634632688178
 20
-19.48388116549543
 30
0.0
 10
-193.8421321924778
 20
-19.72152446235641
 30
0.0
 10
-193.7278321771035
 20
-19.84429538522392
 30
0.0
 10
-193.6108420762392
 20
-19.96546370398389
 30
0.0
 10
-193.4939092112376
 20
-20.0866320227336
 30
0.0
 10
-193.2807628630895
 20
-20.30756244803943
 30
0.0
 10
-193.0634955329142
 20
-20.52603173130897
 30
0.0
 10
-192.8419355131269
 20
-20.74181092908245
 30
0.0
 10
-192.7204810150692
 20
-20.86011745476138
 30
0.0
 10
-192.5988548094249
 20
-20.97842398044094
 30
0.0
 10
-192.4748819334613
 20
-21.09512790199405
 30
0.0
 10
-192.2357505042007
 20
-21.32029378105465
 30
0.0
 10
-191.9905520736234
 20
-21.54145314981096
 30
0.0
 10
-191.7422056706661
 20
-21.76078097099898
 30
0.0
 10
-191.6313970428425
 20
-21.85865429413125
 30
0.0
 10
-191.5230495570615
 20
-21.95795851379409
 30
0.0
 10
-191.4104093816705
 20
-22.054629883836
 30
0.0
 10
-191.0518267095023
 20
-22.36244434686883
 30
0.0
 10
-190.6860323187887
 20
-22.66562270512907
 30
0.0
 10
-190.3092486426712
 20
-22.96164658069407
 30
0.0
 10
-190.3051276606432
 20
-22.96490902480224
 30
0.0
 10
-190.3012356220645
 20
-22.96834317648673
 30
0.0
 10
-190.2970574041759
 20
-22.97160562059394
 30
0.0
 10
-189.9127185943424
 20
-23.27323861059226
 30
0.0
 10
-189.5171615556602
 20
-23.56748817445543
 30
0.0
 10
-189.1142783267074
 20
-23.85681545422969
 30
0.0
 10
-188.9959145651678
 20
-23.94181070852547
 30
0.0
 10
-188.8734870574635
 20
-24.02405864146962
 30
0.0
 10
-188.7535779276652
 20
-24.10802365026098
 30
0.0
 10
-188.4655670727014
 20
-24.3095511185329
 30
0.0
 10
-188.1745799529409
 20
-24.50913256750776
 30
0.0
 10
-187.8775830677252
 20
-24.70459303446527
 30
0.0
 10
-187.7303151961396
 20
-24.80149334794869
 30
0.0
 10
-187.5805861825094
 20
-24.89667658558424
 30
0.0
 10
-187.4311433481865
 20
-24.99208876667156
 30
0.0
 10
-187.1480547773101
 20
-25.17272514549552
 30
0.0
 10
-186.8612458754382
 20
-25.35078591056406
 30
0.0
 10
-186.5703732274004
 20
-25.52598488254995
 30
0.0
 10
-186.4160081089915
 20
-25.61899315745752
 30
0.0
 10
-186.261414047136
 20
-25.7118869606344
 30
0.0
 10
-186.1048167301272
 20
-25.80334986728069
 30
0.0
 10
-185.7956858422801
 20
-25.9839862461053
 30
0.0
 10
-185.4810030758651
 20
-26.16061611463171
 30
0.0
 10
-185.1635157522407
 20
-26.33524272800646
 30
0.0
 10
-185.0239174860931
 20
-26.41199601824829
 30
0.0
 10
-184.8863224750969
 20
-26.49023744088686
 30
0.0
 10
-184.7451216048279
 20
-26.56584601390449
 30
0.0
 10
-184.2975944039207
 20
-26.80549256592003
 30
0.0
 10
-183.8434278430833
 20
-27.04033130556612
 30
0.0
 10
-183.3801035444087
 20
-27.26824450597804
 30
0.0
 10
-183.3683701928054
 20
-27.27402532798639
 30
0.0
 10
-183.3571519639555
 20
-27.28014956516567
 30
0.0
 10
-183.3453613764908
 20
-27.28593038717403
 30
0.0
 10
-182.8647518476503
 20
-27.52185660818939
 30
0.0
 10
-182.3741832789105
 20
-27.75028493135881
 30
0.0
 10
-181.8769181143799
 20
-27.97356202698819
 30
0.0
 10
-181.737205376509
 20
-28.03623529530543
 30
0.0
 10
-181.5940012510881
 20
-28.09627571400013
 30
0.0
 10
-181.4530293242652
 20
-28.15797597267751
 30
0.0
 10
-181.094790067265
 20
-28.31485946899011
 30
0.0
 10
-180.7338034889161
 20
-28.46951076670024
 30
0.0
 10
-180.3673222678638
 20
-28.61992661067228
 30
0.0
 10
-180.189089795219
 20
-28.69307404164497
 30
0.0
 10
-180.0087395956975
 20
-28.76450439677109
 30
0.0
 10
-179.8285611037601
 20
-28.83610645948379
 30
0.0
 10
-179.6727078529519
 20
-28.8980356616017
 30
0.0
 10
-179.5140500449317
 20
-28.95778990098073
 30
0.0
 10
-179.3563652465562
 20
-29.01823097070256
 30
0.0
 10
-179.3563652465562
 20
-29.01823097070256
 30
0.0
 10
-179.3563652465562
 20
-29.04267068355576
 30
0.0
 10
-179.3563652465562
 20
-29.04267068355576
 30
0.0
 10
-179.3563652465562
 20
-29.04267068355576
 30
0.0
 10
-187.5117886770116
 20
-29.56655052367871
 30
0.0
 10
-187.5117886770116
 20
-29.56655052367871
 30
0.0
 10
-187.1916685037566
 20
-31.54027197092427
 30
0.0
 10
-186.8204939420644
 20
-33.41720757641648
 30
0.0
 10
-186.5085584970026
 20
-34.87042609937733
 30
0.0
 10
-185.4410524445532
 20
-39.84582506604499
 30
0.0
 10
-183.7897978408775
 20
-44.76765126636848
 30
0.0
 10
-181.8143593177834
 20
-49.45767222769393
 30
0.0
 10
-180.0668339950987
 20
-53.60629917529504
 30
0.0
 10
-177.9713146346204
 20
-57.61263777125667
 30
0.0
 10
-175.4837296230086
 20
-61.366680689828
 30
0.0
 10
-173.130992301043
 20
-64.91673499807252
 30
0.0
 10
-170.4277425633791
 20
-68.23538471836376
 30
0.0
 10
-167.391551819489
 20
-71.22355457447177
 30
0.0
 10
-164.4019510668433
 20
-74.16599297726304
 30
0.0
 10
-161.0949202264346
 20
-76.78081330894087
 30
0.0
 10
-157.54744153195
 20
-79.0188499644954
 30
0.0
 10
-153.896594871635
 20
-81.322078266285
 30
0.0
 10
-149.9994622993748
 20
-83.22356805635148
 30
0.0
 10
-145.9603847906456
 20
-84.7430657068971
 30
0.0
 10
-141.6453731937253
 20
-86.36627473844887
 30
0.0
 10
-137.1730774494595
 20
-87.55534976068604
 30
0.0
 10
-132.6401689278878
 20
-88.38624276177924
 30
0.0
 10
-127.6758737183468
 20
-89.29594954413179
 30
0.0
 10
-122.6382593702513
 20
-89.77902021501826
 30
0.0
 10
-117.5957227380672
 20
-89.93882274026779
 30
0.0
 10
-116.3074579678937
 20
-89.9798036170825
 30
0.0
 10
-115.0183918956576
 20
-89.9994355175653
 30
0.0
 10
-113.7295547668675
 20
-89.9994355175653
 30
0.0
 10
-94.24085840490702
 20
-89.9994355175653
 30
0.0
 10
-78.09250415473707
 20
-85.45198908718665
 30
0.0
 10
-65.73591125584305
 20
-76.48227105546512
 30
0.0
 10
-53.07928797107654
 20
-67.29711724113106
 30
0.0
 10
-46.66074399307057
 20
-54.25901693960986
 30
0.0
 10
-46.66074399307057
 20
-37.73061656921419
 30
0.0
 10
-46.66074399307057
 20
-23.80959586850564
 30
0.0
 10
-51.34727356685245
 20
-13.0306522554281
 30
0.0
 10
-60.61587726721843
 20
-5.492861006200971
 30
0.0
 10
-57.15430960081553
 20
-3.185969609277044
 30
0.0
 10
-53.8871149199954
 20
-0.7995203649027963
 30
0.0
 10
-50.83650073901198
 20
1.64708376989589
 30
0.0
 10
-50.31920302296286
 20
2.061929293896991
 30
0.0
 10
-49.80808677995372
 20
2.478491893736325
 30
0.0
 10
-49.30326648170594
 20
2.896657097710146
 30
0.0
 10
-45.76940992225522
 20
5.823870761340425
 30
0.0
 10
-42.54285270308499
 20
8.82989820623036
 30
0.0
 10
-39.65530349145704
 20
11.87999726445692
 30
0.0
 10
-33.88009059647909
 20
17.98019538091999
 30
0.0
 10
-29.4607952599431
 20
24.25667995072925
 30
0.0
 10
-26.65039998958828
 20
30.43162810228153
 30
0.0
 10
-26.44967382338023
 20
30.87268765083797
 30
0.0
 10
-26.25707514950409
 20
31.31323207664717
 30
0.0
 10
-26.07289014726397
 20
31.7531469079794
 30
0.0
 10
-25.52016343295833
 20
33.07294863782044
 30
0.0
 10
-25.04224398960644
 20
34.38719848911515
 30
0.0
 10
-24.64142125166764
 20
35.69309190462555
 30
0.0
 10
-24.37424425028181
 20
36.56370659358722
 30
0.0
 10
-24.14135152992316
 20
37.43065818740494
 30
0.0
 10
-23.94354439265044
 20
38.29303091231427
 30
0.0
 10
-23.64677645088066
 20
39.58667585347478
 30
0.0
 10
-23.42893676209065
 20
40.87013281128524
 30
0.0
 10
-23.29242923246177
 20
42.14076893612506
 30
0.0
 10
-23.1103619570976
 20
43.83495043591062
 30
0.0
 10
-23.07298693955042
 20
45.50623759110457
 30
0.0
 10
-23.18614223769604
 20
47.14821998522128
 30
0.0
  0
HATCH
  5
7E
330
70
100
AcDbEntity
  8
Layer 1
 62
     7
440
 33554687
100
AcDbHatch
 10
0.0
 20
0.0
 30
0.0
210
0.0
220
0.0
230
1.0
  2
SOLID
 70
     1
 71
     1
 91
        5
 92
        1
 93
        1
 72
     4
 94
        3
 73
     0
 74
     0
 95
       62
 96
       58
 40
0.0
 40
0.0
 40
0.0
 40
0.0
 40
1.0
 40
1.0
 40
1.0
 40
2.0
 40
2.0
 40
2.0
 40
3.0
 40
3.0
 40
3.0
 40
4.0
 40
4.0
 40
4.0
 40
5.0
 40
5.0
 40
5.0
 40
6.0
 40
6.0
 40
6.0
 40
7.0
 40
7.0
 40
7.0
 40
8.0
 40
8.0
 40
8.0
 40
9.0
 40
9.0
 40
9.0
 40
10.0
 40
10.0
 40
10.0
 40
11.0
 40
11.0
 40
11.0
 40
12.0
 40
12.0
 40
12.0
 40
13.0
 40
13.0
 40
13.0
 40
14.0
 40
14.0
 40
14.0
 40
15.0
 40
15.0
 40
15.0
 40
16.0
 40
16.0
 40
16.0
 40
17.0
 40
17.0
 40
17.0
 40
18.0
 40
18.0
 40
18.0
 40
19.0
 40
19.0
 40
19.0
 40
19.0
 10
-41.21120314990835
 20
15.71617364424137
 10
-47.35907873897913
 20
8.969210293068048
 10
-55.04396615221327
 20
2.606871931035234
 10
-63.84804360081205
 20
-3.137834249769332
 10
-73.54608796985612
 20
-9.465888330779772
 10
-84.60508665315277
 20
-15.04283620159718
 10
-96.53183823233678
 20
-19.52137065476047
 10
-99.95362697501244
 20
-20.80625850911146
 10
-103.3826274362334
 20
-21.97759041427816
 10
-106.8058470754458
 20
-23.03330587927131
 10
-117.3980873083798
 20
-26.30004267319111
 10
-127.931546311574
 20
-28.44987886621617
 10
-138.0242319455182
 20
-29.42174379413904
 10
-142.1085257848159
 20
-29.81506863422419
 10
-146.1231635806918
 20
-30.02209074518879
 10
-150.0364366658907
 20
-30.02209074518879
 10
-156.66211722659
 20
-30.02209074518879
 10
-162.7619146920169
 20
-29.43839942982066
 10
-168.2213573392145
 20
-28.32739412265535
 10
-182.4057202385857
 20
-25.44081792066919
 10
-192.2544093950433
 20
-18.98358250030527
 10
-195.6752823639343
 20
-9.87357937209718
 10
-198.4265529893813
 20
-2.546816744141513
 10
-197.0266782893216
 20
6.094710857854818
 10
-191.7715676676047
 20
15.22869581202508
 10
-191.6439889323678
 20
15.16453441130244
 10
-191.5153227157628
 20
15.10231902987848
 10
-191.3852256026186
 20
15.04256479049849
 10
-192.9518856030292
 20
9.693816299400333
 10
-192.9663090401218
 20
4.513398476912028
 10
-191.1747121040998
 20
-0.257782935998875
 10
-186.6537658775762
 20
-12.29740363401635
 10
-171.6405704681222
 20
-19.20245243460259
 10
-149.9846382112521
 20
-19.20245243460259
 10
-146.1980280875082
 20
-19.20245243460259
 10
-142.29791925045
 20
-18.99348430434092
 10
-138.3146467066627
 20
-18.58808269748155
 10
-125.9536466464366
 20
-17.32998122630762
 10
-112.7784092208064
 20
-14.14944163976401
 10
-99.6005389455462
 20
-9.201000763859035
 10
-82.97872964921969
 20
-2.959372833684256
 10
-68.08555784128992
 20
5.494134963354893
 10
-56.71416582603891
 20
15.04262202635373
 10
-54.25519874516893
 20
17.10740572921943
 10
-51.95322963233457
 20
19.22106885779024
 10
-49.84265724028695
 20
21.3772582314364
 10
-37.27017067189422
 20
34.22150067012656
 10
-32.54809762813378
 20
47.15892309130926
 10
-36.54630873176639
 20
57.80622422299063
 10
-38.03776081019192
 20
61.7782213020634
 10
-40.66980913617729
 20
65.19079507104655
 10
-44.30663301042901
 20
67.98150120504537
 10
-36.25079997894864
 20
64.51718621729437
 10
-30.65244589594084
 20
59.41518152502928
 10
-28.24287336352611
 20
52.99841185873348
 10
-24.29022200563135
 20
42.47216457408267
 10
-28.89576283541949
 20
29.23173550222568
 10
-41.21120314990835
 20
15.71617364424137
 97
        0
 97
        1
330
79
 92
        1
 93
        1
 72
     4
 94
        3
 73
     0
 74
     0
 95
       92
 96
       88
 40
0.0
 40
0.0
 40
0.0
 40
0.0
 40
1.0
 40
1.0
 40
1.0
 40
2.0
 40
2.0
 40
2.0
 40
3.0
 40
3.0
 40
3.0
 40
4.0
 40
4.0
 40
4.0
 40
5.0
 40
5.0
 40
5.0
 40
6.0
 40
6.0
 40
6.0
 40
7.0
 40
7.0
 40
7.0
 40
8.0
 40
8.0
 40
8.0
 40
9.0
 40
9.0
 40
9.0
 40
10.0
 40
10.0
 40
10.0
 40
11.0
 40
11.0
 40
11.0
 40
12.0
 40
12.0
 40
12.0
 40
13.0
 40
13.0
 40
13.0
 40
14.0
 40
14.0
 40
14.0
 40
15.0
 40
15.0
 40
15.0
 40
16.0
 40
16.0
 40
16.0
 40
17.0
 40
17.0
 40
17.0
 40
18.0
 40
18.0
 40
18.0
 40
19.0
 40
19.0
 40
19.0
 40
20.0
 40
20.0
 40
20.0
 40
21.0
 40
21.0
 40
21.0
 40
22.0
 40
22.0
 40
22.0
 40
23.0
 40
23.0
 40
23.0
 40
24.0
 40
24.0
 40
24.0
 40
25.0
 40
25.0
 40
25.0
 40
26.0
 40
26.0
 40
26.0
 40
27.0
 40
27.0
 40
27.0
 40
28.0
 40
28.0
 40
28.0
 40
29.0
 40
29.0
 40
29.0
 40
29.0
 10
-104.5356438657326
 20
-44.86266279641968
 10
-107.7565347346162
 20
-47.5332308571806
 10
-111.894859227151
 20
-48.83059612933164
 10
-117.1892908857038
 20
-48.83059612933164
 10
-127.5888752088984
 20
-48.83059612933164
 10
-133.9844676064511
 20
-43.85519716266366
 10
-137.0769784380358
 20
-33.30319374034983
 10
-137.0769784380358
 20
-33.30319374034983
 10
-137.0860789400104
 20
-33.09800317694293
 10
-137.0860789400104
 20
-33.09800317694293
 10
-137.0760626642518
 20
-33.09685845971872
 10
-137.0660463884944
 20
-33.09565650662837
 10
-137.0561445844578
 20
-33.09468349697983
 10
-136.0989320370787
 20
-32.99772594763155
 10
-135.1354235449369
 20
-32.88926399013207
 10
-134.1668782969852
 20
-32.77124364375984
 10
-133.9576812232785
 20
-32.74577368540254
 10
-133.7476256116498
 20
-32.71875835878461
 10
-133.5379706510505
 20
-32.69231539077879
 10
-132.574748338216
 20
-32.57074642100164
 10
-131.6077484585256
 20
-32.44167955335961
 10
-130.6343381623479
 20
-32.29927672999937
 10
-130.5924415117453
 20
-32.29315249282971
 10
-130.5509455121728
 20
-32.28794402943346
 10
-130.5090488615689
 20
-32.28176255638996
 10
-129.509195597388
 20
-32.13466639238968
 10
-128.5024740298303
 20
-31.972803376122
 10
-127.4926044898913
 20
-31.80367140545919
 10
-127.2694418659833
 20
-31.76629638790496
 10
-127.0463937137987
 20
-31.72909307794565
 10
-126.82283043886
 20
-31.69063057903176
 10
-125.827670515321
 20
-31.51955258907092
 10
-124.8286757890614
 20
-31.33943133299483
 10
-123.8247587787157
 20
-31.14694713083912
 10
-123.6650707251889
 20
-31.11632594495108
 10
-123.5044668978787
 20
-31.08335808873885
 10
-123.3445499009058
 20
-31.05222178009395
 10
-122.4231097669493
 20
-30.87261564677505
 10
-121.4981210095847
 20
-30.6837373038888
 10
-120.5700415156976
 20
-30.4861018742017
 10
-120.3884893630867
 20
-30.44741043184695
 10
-120.2076240408114
 20
-30.41037882946364
 10
-120.0258429447539
 20
-30.37105779263127
 10
-119.0160878765363
 20
-30.15247403764033
 10
-118.0022118262933
 20
-29.92198522346272
 10
-116.9854167471144
 20
-29.68199525627658
 10
-116.7598502170251
 20
-29.62876590510332
 10
-116.5338258000437
 20
-29.57404842153364
 10
-116.3079158547851
 20
-29.51973158899141
 10
-115.2801314902028
 20
-29.27264437497715
 10
-114.2500004552986
 20
-29.018173734847
 10
-113.2159773818151
 20
-28.74922242175517
 10
-113.1929685654998
 20
-28.74326989216184
 10
-113.1701886926312
 20
-28.73777524945921
 10
-113.1471798763166
 20
-28.73176548400069
 10
-112.0973597050644
 20
-28.4582353019899
 10
-111.0435330235089
 20
-28.16930867324277
 10
-109.9881037378314
 20
-27.87311309009087
 10
-109.7584734615755
 20
-27.80866551006315
 10
-109.5289576570448
 20
-27.74444687348559
 10
-109.2990984373442
 20
-27.67896904795313
 10
-108.2631293445687
 20
-27.38363200272035
 10
-107.2250997607818
 20
-27.07896551206563
 10
-106.1846090349503
 20
-26.76176436774502
 10
-106.0147902339408
 20
-26.71002314896784
 10
-105.844570781902
 20
-26.65593525987546
 10
-105.6746947450325
 20
-26.60356444662131
 10
-104.9468835304627
 20
-26.3793143413434
 10
-104.2172407683249
 20
-26.14453283755256
 10
-103.4875980061871
 20
-25.90957962618636
 10
-103.4734035125398
 20
-25.90500075726836
 10
-103.4592662547552
 20
-25.90059359593534
 10
-103.4450717611072
 20
-25.89607196287291
 10
-103.4450717611072
 20
-25.89607196287291
 10
-103.4422099680345
 20
-25.899849529728
 10
-103.4422099680345
 20
-25.899849529728
 10
-103.4562327540959
 20
-25.90437116279075
 10
-103.4701983042965
 20
-25.90895003170907
 10
-103.4842210903604
 20
-25.9134716647622
 10
-103.1325067215708
 20
-26.31177602480243
 10
-102.7832534948239
 20
-26.72976952118133
 10
-102.4388080804416
 20
-27.18250518548453
 10
-100.8021486214412
 20
-29.33898073843707
 10
-100.0041662406989
 20
-31.77362257817459
 10
-100.0041662406989
 20
-34.62763157497533
 10
-100.0041662406989
 20
-38.98287998252355
 10
-101.4865178171485
 20
-42.33197918111851
 10
-104.5356438657326
 20
-44.86266279641968
 97
        0
 97
        1
330
7A
 92
        1
 93
        1
 72
     4
 94
        3
 73
     0
 74
     0
 95
      167
 96
      163
 40
0.0
 40
0.0
 40
0.0
 40
0.0
 40
1.0
 40
1.0
 40
1.0
 40
2.0
 40
2.0
 40
2.0
 40
3.0
 40
3.0
 40
3.0
 40
4.0
 40
4.0
 40
4.0
 40
5.0
 40
5.0
 40
5.0
 40
6.0
 40
6.0
 40
6.0
 40
7.0
 40
7.0
 40
7.0
 40
8.0
 40
8.0
 40
8.0
 40
9.0
 40
9.0
 40
9.0
 40
10.0
 40
10.0
 40
10.0
 40
11.0
 40
11.0
 40
11.0
 40
12.0
 40
12.0
 40
12.0
 40
13.0
 40
13.0
 40
13.0
 40
14.0
 40
14.0
 40
14.0
 40
15.0
 40
15.0
 40
15.0
 40
16.0
 40
16.0
 40
16.0
 40
17.0
 40
17.0
 40
17.0
 40
18.0
 40
18.0
 40
18.0
 40
19.0
 40
19.0
 40
19.0
 40
20.0
 40
20.0
 40
20.0
 40
21.0
 40
21.0
 40
21.0
 40
22.0
 40
22.0
 40
22.0
 40
23.0
 40
23.0
 40
23.0
 40
24.0
 40
24.0
 40
24.0
 40
25.0
 40
25.0
 40
25.0
 40
26.0
 40
26.0
 40
26.0
 40
27.0
 40
27.0
 40
27.0
 40
28.0
 40
28.0
 40
28.0
 40
29.0
 40
29.0
 40
29.0
 40
30.0
 40
30.0
 40
30.0
 40
31.0
 40
31.0
 40
31.0
 40
32.0
 40
32.0
 40
32.0
 40
33.0
 40
33.0
 40
33.0
 40
34.0
 40
34.0
 40
34.0
 40
35.0
 40
35.0
 40
35.0
 40
36.0
 40
36.0
 40
36.0
 40
37.0
 40
37.0
 40
37.0
 40
38.0
 40
38.0
 40
38.0
 40
39.0
 40
39.0
 40
39.0
 40
40.0
 40
40.0
 40
40.0
 40
41.0
 40
41.0
 40
41.0
 40
42.0
 40
42.0
 40
42.0
 40
43.0
 40
43.0
 40
43.0
 40
44.0
 40
44.0
 40
44.0
 40
45.0
 40
45.0
 40
45.0
 40
46.0
 40
46.0
 40
46.0
 40
47.0
 40
47.0
 40
47.0
 40
48.0
 40
48.0
 40
48.0
 40
49.0
 40
49.0
 40
49.0
 40
50.0
 40
50.0
 40
50.0
 40
51.0
 40
51.0
 40
51.0
 40
52.0
 40
52.0
 40
52.0
 40
53.0
 40
53.0
 40
53.0
 40
54.0
 40
54.0
 40
54.0
 40
54.0
 10
-187.7908135017221
 20
14.0224500313478
 10
-187.3009889991829
 20
13.96263855610391
 10
-186.8053264387724
 20
13.92228727375686
 10
-186.2993614232959
 20
13.92228727375686
 10
-179.5572631203483
 20
13.92228727375686
 10
-174.0916962359727
 20
19.38785415813785
 10
-174.0916962359727
 20
26.1299524610868
 10
-174.0916962359727
 20
28.28219256029258
 10
-174.6532372729457
 20
30.30135928154978
 10
-175.6309402587348
 20
32.05718380415716
 10
-175.6309402587348
 20
32.05718380415716
 10
-137.7644383702637
 20
28.63127407945516
 10
-137.7644383702637
 20
28.63127407945516
 10
-137.7522471317677
 20
28.73773278180234
 10
-137.7675291067824
 20
28.84567961655427
 10
-137.7525905469371
 20
28.95196661131486
 10
-136.9362926905208
 20
34.75076068123139
 10
-132.1418162819873
 20
40.16441463923995
 10
-125.2230881105155
 20
42.29456169591639
 10
-120.6724937077459
 20
43.69569558492817
 10
-116.0870426653364
 20
43.40012959624394
 10
-112.3595571864997
 20
41.80565296715797
 10
-110.4524010461507
 20
41.22356425591631
 10
-108.7858644674598
 20
40.32879603340781
 10
-107.372138688922
 20
39.05632836100132
 10
-104.823940900005
 20
36.76151373085962
 10
-103.5833536024415
 20
33.97321150303252
 10
-103.5833536024415
 20
30.53242045435009
 10
-103.5831246589955
 20
26.59270440114577
 10
-105.7746285591742
 20
22.55814852547617
 10
-109.2954925780702
 20
20.69157261090968
 10
-112.8255143348029
 20
18.81990270467859
 10
-117.7262205022408
 20
18.83524191555937
 10
-121.6042362967671
 20
18.83524191555937
 10
-121.6042362967671
 20
18.83524191555937
 10
-138.3146467066627
 20
18.83524191555937
 10
-138.3146467066627
 20
18.83524191555937
 10
-138.3146467066627
 20
18.83524191555937
 10
-138.3146467066627
 20
-14.80330412130336
 10
-138.3146467066627
 20
-14.80330412130336
 10
-138.2503708342209
 20
-14.79649305379059
 10
-138.1872969148718
 20
-14.79162800556621
 10
-138.1229638065699
 20
-14.78470246632306
 10
-138.1865528486724
 20
-14.79151353383616
 10
-138.2511721362829
 20
-14.7999844413393
 10
-138.3146467066627
 20
-14.806681037131
 10
-138.9561462421221
 20
-14.87462000470776
 10
-139.5903768231742
 20
-14.93191310205308
 10
-140.2246074042256
 20
-14.98897725594566
 10
-140.5854222749905
 20
-15.02148722526621
 10
-140.9490417029681
 20
-15.05817541246834
 10
-141.3074526675516
 20
-15.08713675838462
 10
-142.2406261531089
 20
-15.16257362380636
 10
-143.1648136084134
 20
-15.22536136385302
 10
-144.08087357139
 20
-15.27704534676501
 10
-144.1940288695349
 20
-15.28339852739542
 10
-144.3099314890299
 20
-15.2935292748716
 10
-144.4228006078669
 20
-15.29953904032981
 10
-145.4474370000679
 20
-15.35425652389981
 10
-146.4590236158528
 20
-15.39180324902971
 10
-147.4606511917397
 20
-15.41687255636052
 10
-147.7764214395195
 20
-15.42477110524226
 10
-148.0857812708152
 20
-15.42477110524226
 10
-148.3992048482763
 20
-15.42975062519701
 10
-148.9286365669587
 20
-15.43810706097009
 10
-149.4621892676678
 20
-15.45144301669793
 10
-149.9846382112521
 20
-15.45144301669793
 10
-150.1813006312942
 20
-15.45144301669793
 10
-150.3743571920643
 20
-15.44720756294187
 10
-150.5699893665997
 20
-15.44600560985183
 10
-150.7414107717292
 20
-15.44497536434805
 10
-150.912145346522
 20
-15.4432010526456
 10
-151.0827654495922
 20
-15.44125503334821
 10
-151.9915564581607
 20
-15.43089534242153
 10
-152.8908463137214
 20
-15.40954636609153
 10
-153.7766285059747
 20
-15.37343053750119
 10
-153.900601381939
 20
-15.36839378169152
 10
-154.0226854744746
 20
-15.36135377072761
 10
-154.1461432276843
 20
-15.35580189216076
 10
-155.0557355383116
 20
-15.31487825120225
 10
-155.9552543373202
 20
-15.26313703242411
 10
-156.8389188026988
 20
-15.19496912140648
 10
-156.8632440438261
 20
-15.19308033797397
 10
-156.8882561152927
 20
-15.1919356207488
 10
-156.9125813564219
 20
-15.18998960146104
 10
-157.8059186823899
 20
-15.12027632217251
 10
-158.6819707781919
 20
-15.03310610514844
 10
-159.5473770037573
 20
-14.93563343304298
 10
-159.6739827293496
 20
-14.92138170354078
 10
-159.8017904080338
 20
-14.9082174553976
 10
-159.9277665391495
 20
-14.89339336727336
 10
-160.7559122188923
 20
-14.7957489875919
 10
-161.5695199898199
 20
-14.68431076529094
 10
-162.3704213994994
 20
-14.56113919138764
 10
-162.510706495985
 20
-14.53956127160683
 10
-162.6503047621326
 20
-14.51741099321263
 10
-162.7896740848335
 20
-14.4950890072434
 10
-163.5921208627731
 20
-14.36642279063812
 10
-164.3823764022167
 20
-14.22648110931287
 10
-165.155690126663
 20
-14.07194428332317
 10
-165.2529338553167
 20
-14.05254132628092
 10
-165.3481743288185
 20
-14.0313640575359
 10
-165.4449029347175
 20
-14.01150321360102
 10
-167.0593548794633
 20
-13.68056546252609
 10
-168.607241517308
 20
-13.29262079342121
 10
-170.0840412151961
 20
-12.84858498006393
 10
-170.1789382735279
 20
-12.8200242851844
 10
-170.2752089925362
 20
-12.79266554340422
 10
-170.3695336922533
 20
-12.76364696163334
 10
-171.0710164105432
 20
-12.54792499971414
 10
-171.7545270683291
 20
-12.3182374875988
 10
-172.4224695717918
 20
-12.07681662388177
 10
-172.5315038879101
 20
-12.03743835118421
 10
-172.6399658454125
 20
-11.99748771986461
 10
-172.7480843877474
 20
-11.95742261683356
 10
-173.4127644471055
 20
-11.71096499730654
 10
-174.0622197673108
 20
-11.45311744133911
 10
-174.6916997718583
 20
-11.18096092000463
 10
-174.768796477272
 20
-11.14764964862116
 10
-174.8434892765012
 20
-11.11267853726561
 10
-174.9200136233002
 20
-11.07896661484603
 10
-176.2242471988283
 20
-10.50449027317973
 10
-177.4493808137906
 20
-9.873922787268742
 10
-178.5908928351325
 20
-9.188065459157041
 10
-178.6639257943797
 20
-9.144222789271543
 10
-178.7386758294727
 20
-9.101410364880516
 10
-178.8109647225205
 20
-9.05710980809308
 10
-179.3498403583482
 20
-8.726858887359671
 10
-179.8673670178433
 20
-8.382699652286003
 10
-180.3672077961411
 20
-8.027322188358198
 10
-180.4510583332082
 20
-7.967682420698961
 10
-180.5342792757993
 20
-7.907584766148374
 10
-180.6170423314971
 20
-7.847258168146978
 10
-181.1099575705576
 20
-7.487874193921939
 10
-181.5851869284201
 20
-7.117271990842444
 10
-182.0376364134134
 20
-6.732875945143121
 10
-182.0985353700273
 20
-6.68113472636594
 10
-182.1566297694278
 20
-6.627676431751489
 10
-182.2167274239816
 20
-6.575477326082959
 10
-183.1481265978334
 20
-5.7671352544098
 10
-183.9893220539936
 20
-4.904590821914841
 10
-184.735677687684
 20
-3.988359151354943
 10
-184.7878767933531
 20
-3.924312222363648
 10
-184.8421936258963
 20
-3.86152448231699
 10
-184.8934197219202
 20
-3.796905194703967
 10
-185.2412420521304
 20
-3.358650203363068
 10
-185.5649108487948
 20
-2.906887548709033
 10
-185.8690049808345
 20
-2.444479023812323
 10
-185.9249816533604
 20
-2.359312061931566
 10
-185.9801570238262
 20
-2.273744449023042
 10
-186.0345883280928
 20
-2.1878334209436
 10
-186.3300970809111
 20
-1.721647329191803
 10
-186.6059166973797
 20
-1.244758131351714
 10
-186.8563808272129
 20
-0.7546474495032577
 10
-186.8942709675121
 20
-0.6804697730264692
 10
-186.9287269561214
 20
-0.6045177848372743
 10
-186.9655868509152
 20
-0.529767749748062
 10
-187.2212022082818
 20
-0.0114970240565079
 10
-187.4586737975578
 20
0.5162748546413228
 10
-187.6631202947625
 20
1.060816840762708
 10
-189.1641307620546
 20
5.058054934742936
 10
-189.1303616037827
 20
9.446271198503703
 10
-187.7908135017221
 20
14.0224500313478
 97
        0
 97
        1
330
7B
 92
        1
 93
        1
 72
     4
 94
        3
 73
     0
 74
     0
 95
      116
 96
      112
 40
0.0
 40
0.0
 40
0.0
 40
0.0
 40
1.0
 40
1.0
 40
1.0
 40
2.0
 40
2.0
 40
2.0
 40
3.0
 40
3.0
 40
3.0
 40
4.0
 40
4.0
 40
4.0
 40
5.0
 40
5.0
 40
5.0
 40
6.0
 40
6.0
 40
6.0
 40
7.0
 40
7.0
 40
7.0
 40
8.0
 40
8.0
 40
8.0
 40
9.0
 40
9.0
 40
9.0
 40
10.0
 40
10.0
 40
10.0
 40
11.0
 40
11.0
 40
11.0
 40
12.0
 40
12.0
 40
12.0
 40
13.0
 40
13.0
 40
13.0
 40
14.0
 40
14.0
 40
14.0
 40
15.0
 40
15.0
 40
15.0
 40
16.0
 40
16.0
 40
16.0
 40
17.0
 40
17.0
 40
17.0
 40
18.0
 40
18.0
 40
18.0
 40
19.0
 40
19.0
 40
19.0
 40
20.0
 40
20.0
 40
20.0
 40
21.0
 40
21.0
 40
21.0
 40
22.0
 40
22.0
 40
22.0
 40
23.0
 40
23.0
 40
23.0
 40
24.0
 40
24.0
 40
24.0
 40
25.0
 40
25.0
 40
25.0
 40
26.0
 40
26.0
 40
26.0
 40
27.0
 40
27.0
 40
27.0
 40
28.0
 40
28.0
 40
28.0
 40
29.0
 40
29.0
 40
29.0
 40
30.0
 40
30.0
 40
30.0
 40
31.0
 40
31.0
 40
31.0
 40
32.0
 40
32.0
 40
32.0
 40
33.0
 40
33.0
 40
33.0
 40
34.0
 40
34.0
 40
34.0
 40
35.0
 40
35.0
 40
35.0
 40
36.0
 40
36.0
 40
36.0
 40
37.0
 40
37.0
 40
37.0
 40
37.0
 10
-72.00369597471343
 20
72.82004922691965
 10
-71.61225991805726
 20
72.79520886304061
 10
-71.22076662553912
 20
72.7705974426018
 10
-70.83442456055299
 20
72.74060585118206
 10
-70.83041805024966
 20
72.74031967187633
 10
-70.826354304085
 20
72.74009072843418
 10
-70.82234779378231
 20
72.73974731326326
 10
-69.91504491761242
 20
72.66911826019974
 10
-69.02525621505578
 20
72.58074609007632
 10
-68.14674297721108
 20
72.48149910626935
 10
-68.03438898112742
 20
72.46879274501785
 10
-67.9209475036751
 20
72.4571738651366
 10
-67.80910863034413
 20
72.44406685285892
 10
-66.96797041004661
 20
72.34510604836764
 10
-66.14159904200912
 20
72.23195075021978
 10
-65.32856362969687
 20
72.1066042135776
 10
-65.2034460365039
 20
72.08731572826508
 10
-65.07878633020162
 20
72.06751212018577
 10
-64.95429833148337
 20
72.04759404039598
 10
-64.13857283368052
 20
71.91703904035849
 10
-63.33566816885025
 20
71.77486516044841
 10
-62.5500487341866
 20
71.61769548482848
 10
-62.46722844262555
 20
71.60115432085733
 10
-62.38618246277112
 20
71.58312502449106
 10
-62.30370558637937
 20
71.56624044535799
 10
-60.67002239217697
 20
71.23209748604009
 10
-59.10410645796701
 20
70.83974565560314
 10
-57.61116624714154
 20
70.38992902023654
 10
-57.52966238039512
 20
70.36537483566259
 10
-57.44689932469732
 20
70.34179366072915
 10
-57.36585334484161
 20
70.31689606098396
 10
-56.6541254073471
 20
70.09825507013842
 10
-55.96088465311115
 20
69.86524787805068
 10
-55.28366994008854
 20
69.6202211550629
 10
-55.18453742800619
 20
69.58433426991469
 10
-55.08592003867716
 20
69.54816120545948
 10
-54.98753159279413
 20
69.51170196169918
 10
-54.31403721076815
 20
69.26226807737004
 10
-53.65639716237211
 20
69.00115807730407
 10
-53.0190758448007
 20
68.72533846083396
 10
-52.95153752825555
 20
68.69609093561194
 10
-52.88600246686112
 20
68.66541251385872
 10
-52.81886480134662
 20
68.63587880934125
 10
-51.50450047833661
 20
68.05779660839522
 10
-50.27049530484369
 20
67.42259301770136
 10
-49.12119920634112
 20
66.73152722620367
 10
-49.05263064428868
 20
66.6902601700736
 10
-48.98234500639158
 20
66.6500805953218
 10
-48.91440603881642
 20
66.60847012402081
 10
-48.37261137405342
 20
66.27661659916093
 10
-47.85245186493094
 20
65.93074028825096
 10
-47.35014994458784
 20
65.57347404089096
 10
-47.26858884198072
 20
65.51537964149236
 10
-47.18760009798827
 20
65.45694182692283
 10
-47.10706924088653
 20
65.39821783304789
 10
-46.6119790390907
 20
65.03728849055324
 10
-46.1348036619375
 20
64.66525539094188
 10
-45.68057986523949
 20
64.27914226940528
 10
-45.62214205066837
 20
64.22946154163726
 10
-45.56645155744855
 20
64.17817820975177
 10
-45.50875780907932
 20
64.12809683095564
 10
-44.57512643662821
 20
63.318266626888
 10
-43.73209943290201
 20
62.45389064682571
 10
-42.9843129026756
 20
61.53571295697838
 10
-42.9325716838965
 20
61.47223838659854
 10
-42.87876997410664
 20
61.40996576930938
 10
-42.82794452911345
 20
61.34591884031745
 10
-42.47989325545655
 20
60.90732043379568
 10
-42.15599551534746
 20
60.45527159983592
 10
-41.85172967572436
 20
59.99257689563187
 10
-41.79586747491924
 20
59.90763887720192
 10
-41.74086381203806
 20
59.82218573601415
 10
-41.68648974363224
 20
59.73644641552065
 10
-41.39086651909245
 20
59.27014585204843
 10
-41.11498966676261
 20
58.79319941834283
 10
-40.86441106520541
 20
58.30285979304388
 10
-40.82663539662886
 20
58.22891106001822
 10
-40.79235111560424
 20
58.15307354355876
 10
-40.75554845667303
 20
58.07855245191009
 10
-40.4998186275838
 20
57.56016725448977
 10
-40.26234703830587
 20
57.03228090407022
 10
-40.05784330524178
 20
56.48762444622937
 10
-36.40734006009417
 20
46.76611337398128
 10
-41.7452709733714
 20
34.74938702055573
 10
-53.25769215130733
 20
23.2773171249614
 10
-52.20953182003783
 20
26.93932477826438
 10
-51.67563570416072
 20
30.83428238778895
 10
-51.67563570416072
 20
34.94719415782813
 10
-51.67563570416072
 20
49.77626180089787
 10
-57.52628546456779
 20
61.81256281895129
 10
-69.06457725189231
 20
70.72252661129318
 10
-69.45549818579515
 20
71.02433130886685
 10
-69.85580580098126
 20
71.31537566448833
 10
-70.25765878442801
 20
71.60464570840701
 10
-70.26372578574402
 20
71.60945352077551
 10
-70.26584351261933
 20
71.6158067013966
 10
-70.27202498565866
 20
71.62055727790054
 10
-70.51659382175991
 20
71.80811919596703
 10
-70.835054155029
 20
72.026702950957
 10
-71.19083226998586
 20
72.26028250164754
 10
-71.4562921955264
 20
72.44349449424714
 10
-71.71940545074564
 20
72.62945380819677
 10
-71.98761269763749
 20
72.80946059254313
 10
-72.01153728773544
 20
72.81100596080311
 10
-72.03574805714135
 20
72.81220791389348
 10
-72.05967264723994
 20
72.81375328215474
 10
-72.0650528182186
 20
72.81707296211784
 10
-72.0710625836752
 20
72.82062158553208
 10
-72.07644275465387
 20
72.82394126549516
 10
-72.05234645697062
 20
72.82245313309973
 10
-72.02773503653469
 20
72.82159459518061
 10
-72.00369597471343
 20
72.82004922691965
 97
        0
 97
        1
330
7C
 92
        1
 93
        1
 72
     4
 94
        3
 73
     0
 74
     0
 95
      425
 96
      421
 40
0.0
 40
0.0
 40
0.0
 40
0.0
 40
1.0
 40
1.0
 40
1.0
 40
2.0
 40
2.0
 40
2.0
 40
3.0
 40
3.0
 40
3.0
 40
4.0
 40
4.0
 40
4.0
 40
5.0
 40
5.0
 40
5.0
 40
6.0
 40
6.0
 40
6.0
 40
7.0
 40
7.0
 40
7.0
 40
8.0
 40
8.0
 40
8.0
 40
9.0
 40
9.0
 40
9.0
 40
10.0
 40
10.0
 40
10.0
 40
11.0
 40
11.0
 40
11.0
 40
12.0
 40
12.0
 40
12.0
 40
13.0
 40
13.0
 40
13.0
 40
14.0
 40
14.0
 40
14.0
 40
15.0
 40
15.0
 40
15.0
 40
16.0
 40
16.0
 40
16.0
 40
17.0
 40
17.0
 40
17.0
 40
18.0
 40
18.0
 40
18.0
 40
19.0
 40
19.0
 40
19.0
 40
20.0
 40
20.0
 40
20.0
 40
21.0
 40
21.0
 40
21.0
 40
22.0
 40
22.0
 40
22.0
 40
23.0
 40
23.0
 40
23.0
 40
24.0
 40
24.0
 40
24.0
 40
25.0
 40
25.0
 40
25.0
 40
26.0
 40
26.0
 40
26.0
 40
27.0
 40
27.0
 40
27.0
 40
28.0
 40
28.0
 40
28.0
 40
29.0
 40
29.0
 40
29.0
 40
30.0
 40
30.0
 40
30.0
 40
31.0
 40
31.0
 40
31.0
 40
32.0
 40
32.0
 40
32.0
 40
33.0
 40
33.0
 40
33.0
 40
34.0
 40
34.0
 40
34.0
 40
35.0
 40
35.0
 40
35.0
 40
36.0
 40
36.0
 40
36.0
 40
37.0
 40
37.0
 40
37.0
 40
38.0
 40
38.0
 40
38.0
 40
39.0
 40
39.0
 40
39.0
 40
40.0
 40
40.0
 40
40.0
 40
41.0
 40
41.0
 40
41.0
 40
42.0
 40
42.0
 40
42.0
 40
43.0
 40
43.0
 40
43.0
 40
44.0
 40
44.0
 40
44.0
 40
45.0
 40
45.0
 40
45.0
 40
46.0
 40
46.0
 40
46.0
 40
47.0
 40
47.0
 40
47.0
 40
48.0
 40
48.0
 40
48.0
 40
49.0
 40
49.0
 40
49.0
 40
50.0
 40
50.0
 40
50.0
 40
51.0
 40
51.0
 40
51.0
 40
52.0
 40
52.0
 40
52.0
 40
53.0
 40
53.0
 40
53.0
 40
54.0
 40
54.0
 40
54.0
 40
55.0
 40
55.0
 40
55.0
 40
56.0
 40
56.0
 40
56.0
 40
57.0
 40
57.0
 40
57.0
 40
58.0
 40
58.0
 40
58.0
 40
59.0
 40
59.0
 40
59.0
 40
60.0
 40
60.0
 40
60.0
 40
61.0
 40
61.0
 40
61.0
 40
62.0
 40
62.0
 40
62.0
 40
63.0
 40
63.0
 40
63.0
 40
64.0
 40
64.0
 40
64.0
 40
65.0
 40
65.0
 40
65.0
 40
66.0
 40
66.0
 40
66.0
 40
67.0
 40
67.0
 40
67.0
 40
68.0
 40
68.0
 40
68.0
 40
69.0
 40
69.0
 40
69.0
 40
70.0
 40
70.0
 40
70.0
 40
71.0
 40
71.0
 40
71.0
 40
72.0
 40
72.0
 40
72.0
 40
73.0
 40
73.0
 40
73.0
 40
74.0
 40
74.0
 40
74.0
 40
75.0
 40
75.0
 40
75.0
 40
76.0
 40
76.0
 40
76.0
 40
77.0
 40
77.0
 40
77.0
 40
78.0
 40
78.0
 40
78.0
 40
79.0
 40
79.0
 40
79.0
 40
80.0
 40
80.0
 40
80.0
 40
81.0
 40
81.0
 40
81.0
 40
82.0
 40
82.0
 40
82.0
 40
83.0
 40
83.0
 40
83.0
 40
84.0
 40
84.0
 40
84.0
 40
85.0
 40
85.0
 40
85.0
 40
86.0
 40
86.0
 40
86.0
 40
87.0
 40
87.0
 40
87.0
 40
88.0
 40
88.0
 40
88.0
 40
89.0
 40
89.0
 40
89.0
 40
90.0
 40
90.0
 40
90.0
 40
91.0
 40
91.0
 40
91.0
 40
92.0
 40
92.0
 40
92.0
 40
93.0
 40
93.0
 40
93.0
 40
94.0
 40
94.0
 40
94.0
 40
95.0
 40
95.0
 40
95.0
 40
96.0
 40
96.0
 40
96.0
 40
97.0
 40
97.0
 40
97.0
 40
98.0
 40
98.0
 40
98.0
 40
99.0
 40
99.0
 40
99.0
 40
100.0
 40
100.0
 40
100.0
 40
101.0
 40
101.0
 40
101.0
 40
102.0
 40
102.0
 40
102.0
 40
103.0
 40
103.0
 40
103.0
 40
104.0
 40
104.0
 40
104.0
 40
105.0
 40
105.0
 40
105.0
 40
106.0
 40
106.0
 40
106.0
 40
107.0
 40
107.0
 40
107.0
 40
108.0
 40
108.0
 40
108.0
 40
109.0
 40
109.0
 40
109.0
 40
110.0
 40
110.0
 40
110.0
 40
111.0
 40
111.0
 40
111.0
 40
112.0
 40
112.0
 40
112.0
 40
113.0
 40
113.0
 40
113.0
 40
114.0
 40
114.0
 40
114.0
 40
115.0
 40
115.0
 40
115.0
 40
116.0
 40
116.0
 40
116.0
 40
117.0
 40
117.0
 40
117.0
 40
118.0
 40
118.0
 40
118.0
 40
119.0
 40
119.0
 40
119.0
 40
120.0
 40
120.0
 40
120.0
 40
121.0
 40
121.0
 40
121.0
 40
122.0
 40
122.0
 40
122.0
 40
123.0
 40
123.0
 40
123.0
 40
124.0
 40
124.0
 40
124.0
 40
125.0
 40
125.0
 40
125.0
 40
126.0
 40
126.0
 40
126.0
 40
127.0
 40
127.0
 40
127.0
 40
128.0
 40
128.0
 40
128.0
 40
129.0
 40
129.0
 40
129.0
 40
130.0
 40
130.0
 40
130.0
 40
131.0
 40
131.0
 40
131.0
 40
132.0
 40
132.0
 40
132.0
 40
133.0
 40
133.0
 40
133.0
 40
134.0
 40
134.0
 40
134.0
 40
135.0
 40
135.0
 40
135.0
 40
136.0
 40
136.0
 40
136.0
 40
137.0
 40
137.0
 40
137.0
 40
138.0
 40
138.0
 40
138.0
 40
139.0
 40
139.0
 40
139.0
 40
140.0
 40
140.0
 40
140.0
 40
140.0
 10
-23.18614223769604
 20
47.14821998522128
 10
-23.24269126883657
 20
47.96915394641493
 10
-23.33695873269423
 20
48.78281895320382
 10
-23.46951698788049
 20
49.58835646766015
 10
-23.73469073411305
 20
51.19931702485208
 10
-24.15331382497181
 20
52.77771037686981
 10
-24.73133879005137
 20
54.31706887134999
 10
-24.89177090977628
 20
54.74433457729622
 10
-25.06611134384369
 20
55.16444580055845
 10
-25.24880821368515
 20
55.58009262661411
 10
-25.30770391514634
 20
55.71408177833512
 10
-25.37175084414213
 20
55.84520913698534
 10
-25.43293598006393
 20
55.97799633561759
 10
-25.56268967803689
 20
56.25942506650947
 10
-25.6954768766685
 20
56.53925119328548
 10
-25.8353613221247
 20
56.81518528147536
 10
-25.91154225375252
 20
56.96542941786178
 10
-25.9905849784556
 20
57.11407095012269
 10
-26.0697994107427
 20
57.26265524651777
 10
-26.20750889346162
 20
57.52124686868388
 10
-26.34962553751453
 20
57.77737734880505
 10
-26.49637828634806
 20
58.03104668688064
 10
-26.58011435169246
 20
58.17573894470052
 10
-26.66379318117489
 20
58.32037396665425
 10
-26.75039103959264
 20
58.46346362035761
 10
-26.9113382820728
 20
58.72949590451282
 10
-27.0790965920683
 20
58.99169338594872
 10
-27.25000287444577
 20
59.25217379153611
 10
-27.32961795776352
 20
59.37351381787209
 10
-27.40654295559066
 20
59.49639921246998
 10
-27.48833300164506
 20
59.6165372857159
 10
-27.74017079215364
 20
59.98656713018266
 10
-27.99996436740754
 20
60.35207534158761
 10
-28.27177747357271
 20
60.71060077789321
 10
-28.27566951215336
 20
60.71575200542396
 10
-28.279160899704
 20
60.72113217640551
 10
-28.28311017414599
 20
60.72622616808069
 10
-28.56024621542849
 20
61.09116202087258
 10
-28.84980243865163
 20
61.44882891925008
 10
-29.14731444662074
 20
61.80180247699845
 10
-29.23957865532513
 20
61.91135191586722
 10
-29.33647896880886
 20
62.01809679752943
 10
-29.43074643266588
 20
62.12644428330881
 10
-29.64114545946326
 20
62.36843750563826
 10
-29.85457798691864
 20
62.60859918041002
 10
-30.07459263844594
 20
62.84481158073144
 10
-30.18998013518761
 20
62.96872722083278
 10
-30.30811495328123
 20
63.0910974926722
 10
-30.42613529965154
 20
63.21341052865766
 10
-30.63813693057089
 20
63.43313900087217
 10
-30.85414507179422
 20
63.65034909518745
 10
-31.07444590262756
 20
63.86492633987185
 10
-31.19704511791523
 20
63.98432034691975
 10
-31.31975880492686
 20
64.10365711810341
 10
-31.44493363398245
 20
64.22150575689002
 10
-31.68257693084376
 20
64.44518350355583
 10
-31.92634446488434
 20
64.66502644749171
 10
-32.17303102785961
 20
64.88298060800504
 10
-32.28509884463529
 20
64.98194141250596
 10
-32.39481999109161
 20
65.08244758525851
 10
-32.5087765912966
 20
65.18026367253489
 10
-32.86449747039019
 20
65.48561699352311
 10
-33.22748730389112
 20
65.78639144559301
 10
-33.60118024348996
 20
66.08012588670927
 10
-33.60827749031456
 20
66.08567776526682
 10
-33.6149168502446
 20
66.09157305900459
 10
-33.62201409706727
 20
66.09712493756245
 10
-34.00612396345541
 20
66.39852898411991
 10
-34.40133758696955
 20
66.69254960453291
 10
-34.80393463661434
 20
66.9817051767299
 10
-34.92229839815397
 20
67.06670043102599
 10
-35.04472590585762
 20
67.14900559983597
 10
-35.16463503565659
 20
67.23291337276183
 10
-35.4525314188977
 20
67.43438360516856
 10
-35.74334683107414
 20
67.63385058242299
 10
-36.04028648042794
 20
67.82919657764981
 10
-36.18824118235086
 20
67.9265547780252
 10
-36.33865702631969
 20
68.02231037428345
 10
-36.48884392683995
 20
68.11812320639693
 10
-36.77021542187306
 20
68.29761486799637
 10
-37.05525001203889
 20
68.47453091583044
 10
-37.34429111250999
 20
68.64869964231224
 10
-37.50083119365552
 20
68.74296710616508
 10
-37.65754298238636
 20
68.83717733416301
 10
-37.81631526212923
 20
68.92989942976325
 10
-38.12281330035032
 20
69.10887596860519
 10
-38.43474874541269
 20
69.284074940593
 10
-38.74943151182446
 20
69.45715618570583
 10
-38.89131921243265
 20
69.53522590076776
 10
-39.03120365788821
 20
69.61478374821743
 10
-39.17475119847715
 20
69.6915942743251
 10
-39.61964554975516
 20
69.92975269394327
 10
-40.07106478924244
 20
70.16316053704787
 10
-40.53158453070374
 20
70.38975731265027
 10
-40.54577902435101
 20
70.39668285188317
 10
-40.55928668765966
 20
70.4042379856036
 10
-40.57348118130757
 20
70.41116352484642
 10
-41.05311770050283
 20
70.6465746231043
 10
-41.54271325959667
 20
70.87448782351749
 10
-42.03883370689916
 20
71.09730703225553
 10
-42.18157994542743
 20
71.16141119711169
 10
-42.32793204323095
 20
71.22271080475231
 10
-42.47199470657322
 20
71.28578472410437
 10
-42.82765834980611
 20
71.44146626732823
 10
-43.18589760680437
 20
71.59503008367902
 10
-43.54968874236661
 20
71.74430121041658
 10
-43.72866528121207
 20
71.81779205655988
 10
-43.90987401865552
 20
71.88950859099269
 10
-44.09079657679099
 20
71.9613968330108
 10
-44.43203678292998
 20
72.09704582471383
 10
-44.77653943317424
 20
72.23006196678662
 10
-45.12459070682921
 20
72.36021631579794
 10
-45.3125532759273
 20
72.43050195368958
 10
-45.50074478847138
 20
72.50061588400491
 10
-45.69065337685883
 20
72.56929891778035
 10
-46.05684841860434
 20
72.70168546537586
 10
-46.42779403685059
 20
72.83017997440514
 10
-46.80120079714209
 20
72.95661399240668
 10
-46.97130577745697
 20
73.01419326905739
 10
-47.1395792102058
 20
73.07320344223902
 10
-47.31117232292191
 20
73.12958076579938
 10
-47.82022807491772
 20
73.29676671718374
 10
-48.3352935923695
 20
73.45891591274848
 10
-48.85711294147464
 20
73.61511257872888
 10
-48.89362942109981
 20
73.62604462826798
 10
-48.92900118349435
 20
73.63789245160036
 10
-48.96563213483963
 20
73.64882450113978
 10
-49.52763105870523
 20
73.81595321665897
 10
-50.09827259765351
 20
73.97564127018839
 10
-50.67469495861045
 20
74.13000638859215
 10
-50.84199538171461
 20
74.17476483227094
 10
-51.01238654133874
 20
74.21666148287798
 10
-51.18083168167223
 20
74.26038968104433
 10
-51.592643705015
 20
74.3673062702912
 10
-52.0066879269564
 20
74.47216236852185
 10
-52.42553996125987
 20
74.57261130540922
 10
-52.6354238653052
 20
74.62297886351106
 10
-52.84725378863989
 20
74.67140040232514
 10
-53.05885476852859
 20
74.72010812044593
 10
-53.44908887209408
 20
74.80996842296544
 10
-53.84212753287286
 20
74.89719587586337
 10
-54.23819969430773
 20
74.9815615356825
 10
-54.45558149620638
 20
75.02780811175802
 10
-54.67307776982708
 20
75.07394021611182
 10
-54.89217664757039
 20
75.11852695220594
 10
-55.30822412466378
 20
75.20329326305091
 10
-55.7283353479199
 20
75.28405306359897
 10
-56.15050706219127
 20
75.36280960899439
 10
-56.34814249187933
 20
75.39966950379209
 10
-56.54428978916938
 20
75.43796029512036
 10
-56.74324164367145
 20
75.47350376509829
 10
-57.30243601032247
 20
75.57338034338254
 10
-57.86683884036943
 20
75.66804845826251
 10
-58.43639289795034
 20
75.7575081097552
 10
-58.49752079800952
 20
75.76712373448384
 10
-58.55744674497866
 20
75.77811301988781
 10
-58.61868911676115
 20
75.7876141728957
 10
-59.2516605088612
 20
75.88560196774807
 10
-59.89184361950531
 20
75.97603462888033
 10
-60.53706348596263
 20
76.06114435490616
 10
-60.72720101779545
 20
76.08621366223633
 10
-60.92020034270352
 20
76.10830670476501
 10
-61.11136812004492
 20
76.13223129486168
 10
-61.56982737049226
 20
76.18963886392646
 10
-62.03011816850757
 20
76.24510041370284
 10
-62.49452994855145
 20
76.29609756627267
 10
-62.73200153782809
 20
76.32213988325105
 10
-62.97124743881138
 20
76.34629341679853
 10
-63.21020716048796
 20
76.37067589378621
 10
-63.64039189536663
 20
76.41451856368134
 10
-64.07275159298002
 20
76.45590009152254
 10
-64.50780137608404
 20
76.49424811871631
 10
-64.75546094870463
 20
76.51611221780382
 10
-65.00352117235459
 20
76.53757566585522
 10
-65.25272611323583
 20
76.55766545324026
 10
-65.70128355964911
 20
76.59378128182996
 10
-66.15316068602838
 20
76.62606230770869
 10
-66.60664041652707
 20
76.65639731429068
 10
-66.83741541001234
 20
76.67185099689222
 10
-67.06698845040564
 20
76.68873557602498
 10
-67.2990226328423
 20
76.70264389036588
 10
-67.88752176057186
 20
76.7379584168917
 10
-68.48031357791336
 20
76.76806448003251
 10
-69.07671125452562
 20
76.7937633818406
 10
-69.1711504259673
 20
76.79788436386662
 10
-69.26410146500903
 20
76.80372242174016
 10
-69.35871234403409
 20
76.80755722445113
 10
-70.05040773001131
 20
76.8354883248524
 10
-70.74811288144322
 20
76.85597876326458
 10
-71.4500534866238
 20
76.87097455897507
 10
-71.65982291894646
 20
76.87543895617297
 10
-71.87193902158785
 20
76.87669814511792
 10
-72.08256699183185
 20
76.8800178250913
 10
-72.58074793014639
 20
76.88785913810784
 10
-73.08053147258353
 20
76.89369719598106
 10
-73.58357745912532
 20
76.89501362079122
 10
-73.68351127326834
 20
76.89524256424234
 10
-73.78155630398206
 20
76.89798988559333
 10
-73.88166182570974
 20
76.89798988559333
 10
-73.99338622731611
 20
76.89798988559333
 10
-74.10808689371979
 20
76.89386890356669
 10
-74.22004023877409
 20
76.8935254883948
 10
-75.10547901585744
 20
76.8910071104959
 10
-75.99629796392074
 20
76.88104807059571
 10
-76.89593123465137
 20
76.85838266944433
 10
-76.94109032935855
 20
76.85723795222012
 10
-76.9855625937284
 20
76.85706624463482
 10
-77.03077892429758
 20
76.85586429154479
 10
-77.6444045952164
 20
76.83972377861008
 10
-78.26741694741722
 20
76.80967495133415
 10
-78.88762474240667
 20
76.78386157780625
 10
-78.88762474240667
 20
76.78386157780625
 10
-79.36239621337595
 20
76.98813636741954
 10
-79.36239621337595
 20
76.98813636741954
 10
-79.36239621337595
 20
76.98813636741954
 10
-79.36399881749856
 20
76.98424432884337
 10
-79.36399881749856
 20
76.98424432884337
 10
-79.66534562818698
 20
77.12470113291586
 10
-79.96640625956742
 20
77.26544411628477
 10
-80.27004250471451
 20
77.40309636315036
 10
-80.33237235786501
 20
77.43583527591275
 10
-80.36837371473685
 20
77.45466587434258
 10
-80.36837371473685
 20
77.45466587434258
 10
-80.36837371473685
 20
77.45466587434258
 10
-80.37117827194821
 20
77.44985806197345
 10
-80.37117827194821
 20
77.44985806197345
 10
-89.81337834017972
 20
81.71083900566015
 10
-101.0114029310106
 20
83.87567099438641
 10
-113.8489487739132
 20
83.87567099438641
 10
-130.2390100671098
 20
83.87567099438641
 10
-144.6546058468582
 20
79.51315363244209
 10
-156.6937686579866
 20
70.90745567972973
 10
-168.1329279332287
 20
62.7311411598357
 10
-175.9314857673612
 20
51.17001226377483
 10
-179.9141287166712
 20
36.52015010299815
 10
-181.7734929126863
 20
37.66538245533957
 10
-183.9553239522756
 20
38.33761764840744
 10
-186.2993614232959
 20
38.33761764840744
 10
-193.0414597262443
 20
38.33761764840744
 10
-198.5070266106198
 20
32.8720507640364
 10
-198.5070266106198
 20
26.1299524610868
 10
-198.5070266106198
 20
22.70570257636748
 10
-197.0930146527754
 20
19.61525223579451
 10
-194.8221246127249
 20
17.39839284898405
 10
-200.6335105721587
 20
7.400661509231046
 10
-202.4447394086692
 20
-2.516310029974869
 10
-199.1868741732704
 20
-11.19217914885844
 10
-199.0264420535455
 20
-11.61944485479537
 10
-198.8521016194794
 20
-12.03955607805792
 10
-198.6694047496366
 20
-12.45520290412257
 10
-198.6105090481754
 20
-12.58919205584389
 10
-198.546462119179
 20
-12.72031941449508
 10
-198.4852769832579
 20
-12.85310661312669
 10
-198.3555232852842
 20
-13.13459257987381
 10
-198.2226788507919
 20
-13.41441870664949
 10
-198.0827371694744
 20
-13.69041003070425
 10
-198.0067279454306
 20
-13.84042522364114
 10
-197.9277424565889
 20
-13.9888378124506
 10
-197.8487569677484
 20
-14.13719316540514
 10
-197.7108185415815
 20
-14.39618543860736
 10
-197.5684729540839
 20
-14.65277380560993
 10
-197.4214912618057
 20
-14.90678655885772
 10
-197.3379269040453
 20
-15.05124987323546
 10
-197.2543053104249
 20
-15.19559871588346
 10
-197.1678791595898
 20
-15.33840219027082
 10
-197.0067029736649
 20
-15.60483512546278
 10
-196.8387729560848
 20
-15.86743325792516
 10
-196.6675804944006
 20
-16.12825707868476
 10
-196.5882515903902
 20
-16.24908198227317
 10
-196.5116700077298
 20
-16.37150948997907
 10
-196.430223376846
 20
-16.49113244046782
 10
-196.1782711146141
 20
-16.86139122837575
 10
-195.9183630676369
 20
-17.22707114736537
 10
-195.6463782538884
 20
-17.58582552712242
 10
-195.6425434511684
 20
-17.59091951878797
 10
-195.6389948277571
 20
-17.59624245390369
 10
-195.6351027891751
 20
-17.60133644557984
 10
-195.3577950403093
 20
-17.96655847767746
 10
-195.0680098736408
 20
-18.32445431950609
 10
-194.7703261580864
 20
-18.67765682069597
 10
-194.678977723166
 20
-18.78606154233989
 10
-194.5831076551882
 20
-18.89160447090276
 10
-194.4898704368372
 20
-18.99886447532247
 10
-194.2782122210878
 20
-19.24228859419245
 10
-194.0634632688178
 20
-19.48388116549543
 10
-193.8421321924778
 20
-19.72152446235641
 10
-193.7278321771035
 20
-19.84429538522392
 10
-193.6108420762392
 20
-19.96546370398389
 10
-193.4939092112376
 20
-20.0866320227336
 10
-193.2807628630895
 20
-20.30756244803943
 10
-193.0634955329142
 20
-20.52603173130897
 10
-192.8419355131269
 20
-20.74181092908245
 10
-192.7204810150692
 20
-20.86011745476138
 10
-192.5988548094249
 20
-20.97842398044094
 10
-192.4748819334613
 20
-21.09512790199405
 10
-192.2357505042007
 20
-21.32029378105465
 10
-191.9905520736234
 20
-21.54145314981096
 10
-191.7422056706661
 20
-21.76078097099898
 10
-191.6313970428425
 20
-21.85865429413125
 10
-191.5230495570615
 20
-21.95795851379409
 10
-191.4104093816705
 20
-22.054629883836
 10
-191.0518267095023
 20
-22.36244434686883
 10
-190.6860323187887
 20
-22.66562270512907
 10
-190.3092486426712
 20
-22.96164658069407
 10
-190.3051276606432
 20
-22.96490902480224
 10
-190.3012356220645
 20
-22.96834317648673
 10
-190.2970574041759
 20
-22.97160562059394
 10
-189.9127185943424
 20
-23.27323861059226
 10
-189.5171615556602
 20
-23.56748817445543
 10
-189.1142783267074
 20
-23.85681545422969
 10
-188.9959145651678
 20
-23.94181070852547
 10
-188.8734870574635
 20
-24.02405864146962
 10
-188.7535779276652
 20
-24.10802365026098
 10
-188.4655670727014
 20
-24.3095511185329
 10
-188.1745799529409
 20
-24.50913256750776
 10
-187.8775830677252
 20
-24.70459303446527
 10
-187.7303151961396
 20
-24.80149334794869
 10
-187.5805861825094
 20
-24.89667658558424
 10
-187.4311433481865
 20
-24.99208876667156
 10
-187.1480547773101
 20
-25.17272514549552
 10
-186.8612458754382
 20
-25.35078591056406
 10
-186.5703732274004
 20
-25.52598488254995
 10
-186.4160081089915
 20
-25.61899315745752
 10
-186.261414047136
 20
-25.7118869606344
 10
-186.1048167301272
 20
-25.80334986728069
 10
-185.7956858422801
 20
-25.9839862461053
 10
-185.4810030758651
 20
-26.16061611463171
 10
-185.1635157522407
 20
-26.33524272800646
 10
-185.0239174860931
 20
-26.41199601824829
 10
-184.8863224750969
 20
-26.49023744088686
 10
-184.7451216048279
 20
-26.56584601390449
 10
-184.2975944039207
 20
-26.80549256592003
 10
-183.8434278430833
 20
-27.04033130556612
 10
-183.3801035444087
 20
-27.26824450597804
 10
-183.3683701928054
 20
-27.27402532798639
 10
-183.3571519639555
 20
-27.28014956516567
 10
-183.3453613764908
 20
-27.28593038717403
 10
-182.8647518476503
 20
-27.52185660818939
 10
-182.3741832789105
 20
-27.75028493135881
 10
-181.8769181143799
 20
-27.97356202698819
 10
-181.737205376509
 20
-28.03623529530543
 10
-181.5940012510881
 20
-28.09627571400013
 10
-181.4530293242652
 20
-28.15797597267751
 10
-181.094790067265
 20
-28.31485946899011
 10
-180.7338034889161
 20
-28.46951076670024
 10
-180.3673222678638
 20
-28.61992661067228
 10
-180.189089795219
 20
-28.69307404164497
 10
-180.0087395956975
 20
-28.76450439677109
 10
-179.8285611037601
 20
-28.83610645948379
 10
-179.6727078529519
 20
-28.8980356616017
 10
-179.5140500449317
 20
-28.95778990098073
 10
-179.3563652465562
 20
-29.01823097070256
 10
-179.3563652465562
 20
-29.01823097070256
 10
-179.3563652465562
 20
-29.04267068355576
 10
-179.3563652465562
 20
-29.04267068355576
 10
-179.3563652465562
 20
-29.04267068355576
 10
-187.5117886770116
 20
-29.56655052367871
 10
-187.5117886770116
 20
-29.56655052367871
 10
-187.1916685037566
 20
-31.54027197092427
 10
-186.8204939420644
 20
-33.41720757641648
 10
-186.5085584970026
 20
-34.87042609937733
 10
-185.4410524445532
 20
-39.84582506604499
 10
-183.7897978408775
 20
-44.76765126636848
 10
-181.8143593177834
 20
-49.45767222769393
 10
-180.0668339950987
 20
-53.60629917529504
 10
-177.9713146346204
 20
-57.61263777125667
 10
-175.4837296230086
 20
-61.366680689828
 10
-173.130992301043
 20
-64.91673499807252
 10
-170.4277425633791
 20
-68.23538471836376
 10
-167.391551819489
 20
-71.22355457447177
 10
-164.4019510668433
 20
-74.16599297726304
 10
-161.0949202264346
 20
-76.78081330894087
 10
-157.54744153195
 20
-79.0188499644954
 10
-153.896594871635
 20
-81.322078266285
 10
-149.9994622993748
 20
-83.22356805635148
 10
-145.9603847906456
 20
-84.7430657068971
 10
-141.6453731937253
 20
-86.36627473844887
 10
-137.1730774494595
 20
-87.55534976068604
 10
-132.6401689278878
 20
-88.38624276177924
 10
-127.6758737183468
 20
-89.29594954413179
 10
-122.6382593702513
 20
-89.77902021501826
 10
-117.5957227380672
 20
-89.93882274026779
 10
-116.3074579678937
 20
-89.9798036170825
 10
-115.0183918956576
 20
-89.9994355175653
 10
-113.7295547668675
 20
-89.9994355175653
 10
-94.24085840490702
 20
-89.9994355175653
 10
-78.09250415473707
 20
-85.45198908718665
 10
-65.73591125584305
 20
-76.48227105546512
 10
-53.07928797107654
 20
-67.29711724113106
 10
-46.66074399307057
 20
-54.25901693960986
 10
-46.66074399307057
 20
-37.73061656921419
 10
-46.66074399307057
 20
-23.80959586850564
 10
-51.34727356685245
 20
-13.0306522554281
 10
-60.61587726721843
 20
-5.492861006200971
 10
-57.15430960081553
 20
-3.185969609277044
 10
-53.8871149199954
 20
-0.7995203649027963
 10
-50.83650073901198
 20
1.64708376989589
 10
-50.31920302296286
 20
2.061929293896991
 10
-49.80808677995372
 20
2.478491893736325
 10
-49.30326648170594
 20
2.896657097710146
 10
-45.76940992225522
 20
5.823870761340425
 10
-42.54285270308499
 20
8.82989820623036
 10
-39.65530349145704
 20
11.87999726445692
 10
-33.88009059647909
 20
17.98019538091999
 10
-29.4607952599431
 20
24.25667995072925
 10
-26.65039998958828
 20
30.43162810228153
 10
-26.44967382338023
 20
30.87268765083797
 10
-26.25707514950409
 20
31.31323207664717
 10
-26.07289014726397
 20
31.7531469079794
 10
-25.52016343295833
 20
33.07294863782044
 10
-25.04224398960644
 20
34.38719848911515
 10
-24.64142125166764
 20
35.69309190462555
 10
-24.37424425028181
 20
36.56370659358722
 10
-24.14135152992316
 20
37.43065818740494
 10
-23.94354439265044
 20
38.29303091231427
 10
-23.64677645088066
 20
39.58667585347478
 10
-23.42893676209065
 20
40.87013281128524
 10
-23.29242923246177
 20
42.14076893612506
 10
-23.1103619570976
 20
43.83495043591062
 10
-23.07298693955042
 20
45.50623759110457
 10
-23.18614223769604
 20
47.14821998522128
 97
        0
 97
        1
330
7D
 75
     2
 76
     1
 98
        1
 10
0.0
 20
0.0
450
        0
451
        0
460
0.0
461
0.0
452
        0
462
0.0
453
        0
470

  0
ENDSEC
  0
SECTION
  2
OBJECTS
  0
DICTIONARY
  5
C
330
0
100
AcDbDictionary
281
     1
  3
ACAD_COLOR
350
63
  3
ACAD_DETAILVIEWSTYLE
350
6A
  3
ACAD_GROUP
350
D
  3
ACAD_LAYOUT
350
62
  3
ACAD_MATERIAL
350
10
  3
ACAD_MLEADERSTYLE
350
66
  3
ACAD_MLINESTYLE
350
5F
  3
ACAD_PLOTSETTINGS
350
61
  3
ACAD_PLOTSTYLENAME
350
E
  3
ACAD_SCALELIST
350
42
  3
ACAD_SECTIONVIEWSTYLE
350
68
  3
ACAD_TABLESTYLE
350
64
  3
ACAD_VISUALSTYLE
350
29
  3
ACDB_RECOMPOSE_DATA
350
87
  3
AcDbVariableDictionary
350
7F
  0
DICTIONARY
  5
63
102
{ACAD_REACTORS
330
C
102
}
330
C
100
AcDbDictionary
281
     1
  0
DICTIONARY
  5
6A
102
{ACAD_REACTORS
330
C
102
}
330
C
100
AcDbDictionary
281
     1
  3
Imperial24
350
6B
  0
DICTIONARY
  5
D
102
{ACAD_REACTORS
330
C
102
}
330
C
100
AcDbDictionary
281
     1
  0
DICTIONARY
  5
62
102
{ACAD_REACTORS
330
C
102
}
330
C
100
AcDbDictionary
281
     1
  3
Layout1
350
6F
  3
Layout2
350
77
  3
Model
350
73
  0
DICTIONARY
  5
10
102
{ACAD_REACTORS
330
C
102
}
330
C
100
AcDbDictionary
281
     1
  3
ByBlock
350
19
  3
ByLayer
350
11
  3
Global
350
21
  0
DICTIONARY
  5
66
102
{ACAD_REACTORS
330
C
102
}
330
C
100
AcDbDictionary
281
     1
  3
Standard
350
67
  0
DICTIONARY
  5
5F
102
{ACAD_REACTORS
330
C
102
}
330
C
100
AcDbDictionary
281
     1
  3
Standard
350
60
  0
DICTIONARY
  5
61
102
{ACAD_REACTORS
330
C
102
}
330
C
100
AcDbDictionary
281
     1
  0
ACDBDICTIONARYWDFLT
  5
E
102
{ACAD_REACTORS
330
C
102
}
330
C
100
AcDbDictionary
281
     1
  3
Normal
350
F
100
AcDbDictionaryWithDefault
340
F
  0
DICTIONARY
  5
42
102
{ACAD_REACTORS
330
C
102
}
330
C
100
AcDbDictionary
281
     1
  3
A0
350
43
  3
A1
350
44
  3
A2
350
45
  3
A3
350
46
  3
A4
350
47
  3
A5
350
48
  3
A6
350
49
  3
A7
350
4A
  3
A8
350
4B
  3
A9
350
4C
  3
B0
350
4D
  3
B1
350
4E
  3
B2
350
4F
  3
B3
350
50
  3
B4
350
51
  3
B5
350
52
  3
B6
350
53
  0
DICTIONARY
  5
68
102
{ACAD_REACTORS
330
C
102
}
330
C
100
AcDbDictionary
281
     1
  3
Imperial24
350
69
  0
DICTIONARY
  5
64
102
{ACAD_REACTORS
330
C
102
}
330
C
100
AcDbDictionary
281
     1
  3
Standard
350
65
  0
DICTIONARY
  5
29
102
{ACAD_REACTORS
330
C
102
}
330
C
100
AcDbDictionary
281
     1
  3
2dWireframe
350
2F
  3
Basic
350
2E
  3
Brighten
350
35
  3
ColorChange
350
39
  3
Conceptual
350
32
  3
Dim
350
34
  3
EdgeColorOff
350
41
  3
Facepattern
350
38
  3
Flat
350
2A
  3
FlatWithEdges
350
2B
  3
Gouraud
350
2C
  3
GouraudWithEdges
350
2D
  3
Hidden
350
31
  3
JitterOff
350
3F
  3
Linepattern
350
37
  3
OverhangOff
350
40
  3
Realistic
350
33
  3
Shaded
350
3E
  3
Shaded with edges
350
3D
  3
Shades of Gray
350
3A
  3
Sketchy
350
3B
  3
Thicken
350
36
  3
Wireframe
350
30
  3
X-Ray
350
3C
  0
XRECORD
  5
87
102
{ACAD_REACTORS
330
C
102
}
330
C
100
AcDbXrecord
280
     1
 90
        1
330
65
  0
DICTIONARY
  5
7F
102
{ACAD_REACTORS
330
C
102
}
330
C
100
AcDbDictionary
281
     1
  3
CANNOSCALE
350
84
  3
CMLEADERSTYLE
350
81
  3
CTABLESTYLE
350
80
  3
CVIEWDETAILSTYLE
350
82
  3
CVIEWSECTIONSTYLE
350
83
  0
ACDBDETAILVIEWSTYLE
  5
6B
102
{ACAD_XDICTIONARY
360
8A
102
}
102
{ACAD_REACTORS
330
6A
102
}
330
6A
100
AcDbModelDocViewStyle
 70
     0
  3
Imperial24
290
     0
100
AcDbDetailViewStyle
 70
     0
 71
     0
 90
        3
 71
     1
340
55
 62
   256
 40
0.24
340
0
 62
   256
 40
0.24
300

 40
0.36
280
     3
 71
     2
340
5D
 90
       25
 62
   256
 71
     3
340
55
 62
   256
 40
0.24
 90
        1
 40
0.75
 90
        1
300
%<\AcVar ViewType \f "%tc1">% %<\AcVar ViewDetailId>%\PSCALE %<\AcVar ViewScale \f "%sn">%
 71
     4
340
5D
 90
       25
 62
   256
340
5D
 90
       25
 62
   256
280
     0
  0
LAYOUT
  5
6F
102
{ACAD_REACTORS
330
62
102
}
330
62
100
AcDbPlotSettings
  1

  2

  4

  6

 40
0.0
 41
0.0
 42
0.0
 43
0.0
 44
0.0
 45
0.0
 46
0.0
 47
0.0
 48
0.0
 49
0.0
140
0.0
141
0.0
142
1.0
143
1.0
 70
   688
 72
     0
 73
     0
 74
     5
  7

 75
    16
147
1.0
 76
     0
 77
     2
 78
   300
148
0.0
149
0.0
100
AcDbLayout
  1
Layout1
 70
     1
 71
     1
 10
0.0
 20
0.0
 11
12.0
 21
9.0
 12
0.0
 22
0.0
 32
0.0
 14
0.0
 24
0.0
 34
0.0
 15
0.0
 25
0.0
 35
0.0
146
0.0
 13
0.0
 23
0.0
 33
0.0
 16
1.0
 26
0.0
 36
0.0
 17
0.0
 27
1.0
 37
0.0
 76
     0
330
6C
  0
LAYOUT
  5
77
102
{ACAD_REACTORS
330
62
102
}
330
62
100
AcDbPlotSettings
  1

  2

  4

  6

 40
0.0
 41
0.0
 42
0.0
 43
0.0
 44
0.0
 45
0.0
 46
0.0
 47
0.0
 48
0.0
 49
0.0
140
0.0
141
0.0
142
1.0
143
1.0
 70
   688
 72
     0
 73
     0
 74
     5
  7

 75
    16
147
1.0
 76
     0
 77
     2
 78
   300
148
0.0
149
0.0
100
AcDbLayout
  1
Layout2
 70
     1
 71
     2
 10
0.0
 20
0.0
 11
12.0
 21
9.0
 12
0.0
 22
0.0
 32
0.0
 14
0.0
 24
0.0
 34
0.0
 15
0.0
 25
0.0
 35
0.0
146
0.0
 13
0.0
 23
0.0
 33
0.0
 16
1.0
 26
0.0
 36
0.0
 17
0.0
 27
1.0
 37
0.0
 76
     0
330
74
  0
LAYOUT
  5
73
102
{ACAD_REACTORS
330
62
102
}
330
62
100
AcDbPlotSettings
  1

  2

  4

  6

 40
0.0
 41
0.0
 42
0.0
 43
0.0
 44
0.0
 45
0.0
 46
0.0
 47
0.0
 48
0.0
 49
0.0
140
0.0
141
0.0
142
1.0
143
1.0
 70
  1712
 72
     0
 73
     0
 74
     0
  7

 75
     0
147
1.0
 76
     0
 77
     2
 78
   300
148
0.0
149
0.0
100
AcDbLayout
  1
Model
 70
     1
 71
     0
 10
0.0
 20
0.0
 11
12.0
 21
9.0
 12
0.0
 22
0.0
 32
0.0
 14
0.0
 24
0.0
 34
0.0
 15
0.0
 25
0.0
 35
0.0
146
0.0
 13
0.0
 23
0.0
 33
0.0
 16
1.0
 26
0.0
 36
0.0
 17
0.0
 27
1.0
 37
0.0
 76
     0
330
70
  0
MATERIAL
  5
19
102
{ACAD_XDICTIONARY
360
1A
102
}
102
{ACAD_REACTORS
330
10
102
}
330
10
100
AcDbMaterial
  1
ByBlock
 72
     0
 43
0.0208333333333333
 43
0.0
 43
0.0
 43
0.0
 43
0.0
 43
0.0208333333333333
 43
0.0
 43
0.0
 43
0.0
 43
0.0
 43
1.0
 43
0.0
 43
0.0
 43
0.0
 43
0.0
 43
1.0
 77
     0
 47
0.0208333333333333
 47
0.0
 47
0.0
 47
0.0
 47
0.0
 47
0.0208333333333333
 47
0.0
 47
0.0
 47
0.0
 47
0.0
 47
1.0
 47
0.0
 47
0.0
 47
0.0
 47
0.0
 47
1.0
171
     0
 49
0.0208333333333333
 49
0.0
 49
0.0
 49
0.0
 49
0.0
 49
0.0208333333333333
 49
0.0
 49
0.0
 49
0.0
 49
0.0
 49
1.0
 49
0.0
 49
0.0
 49
0.0
 49
0.0
 49
1.0
175
     0
142
0.0208333333333333
142
0.0
142
0.0
142
0.0
142
0.0
142
0.0208333333333333
142
0.0
142
0.0
142
0.0
142
0.0
142
1.0
142
0.0
142
0.0
142
0.0
142
0.0
142
1.0
179
     0
144
0.0208333333333333
144
0.0
144
0.0
144
0.0
144
0.0
144
0.0208333333333333
144
0.0
144
0.0
144
0.0
144
0.0
144
1.0
144
0.0
144
0.0
144
0.0
144
0.0
144
1.0
147
0.0208333333333333
147
0.0
147
0.0
147
0.0
147
0.0
147
0.0208333333333333
147
0.0
147
0.0
147
0.0
147
0.0
147
1.0
147
0.0
147
0.0
147
0.0
147
0.0
147
1.0
  0
MATERIAL
  5
11
102
{ACAD_XDICTIONARY
360
12
102
}
102
{ACAD_REACTORS
330
10
102
}
330
10
100
AcDbMaterial
  1
ByLayer
 72
     0
 43
0.0208333333333333
 43
0.0
 43
0.0
 43
0.0
 43
0.0
 43
0.0208333333333333
 43
0.0
 43
0.0
 43
0.0
 43
0.0
 43
1.0
 43
0.0
 43
0.0
 43
0.0
 43
0.0
 43
1.0
 77
     0
 47
0.0208333333333333
 47
0.0
 47
0.0
 47
0.0
 47
0.0
 47
0.0208333333333333
 47
0.0
 47
0.0
 47
0.0
 47
0.0
 47
1.0
 47
0.0
 47
0.0
 47
0.0
 47
0.0
 47
1.0
171
     0
 49
0.0208333333333333
 49
0.0
 49
0.0
 49
0.0
 49
0.0
 49
0.0208333333333333
 49
0.0
 49
0.0
 49
0.0
 49
0.0
 49
1.0
 49
0.0
 49
0.0
 49
0.0
 49
0.0
 49
1.0
175
     0
142
0.0208333333333333
142
0.0
142
0.0
142
0.0
142
0.0
142
0.0208333333333333
142
0.0
142
0.0
142
0.0
142
0.0
142
1.0
142
0.0
142
0.0
142
0.0
142
0.0
142
1.0
179
     0
144
0.0208333333333333
144
0.0
144
0.0
144
0.0
144
0.0
144
0.0208333333333333
144
0.0
144
0.0
144
0.0
144
0.0
144
1.0
144
0.0
144
0.0
144
0.0
144
0.0
144
1.0
147
0.0208333333333333
147
0.0
147
0.0
147
0.0
147
0.0
147
0.0208333333333333
147
0.0
147
0.0
147
0.0
147
0.0
147
1.0
147
0.0
147
0.0
147
0.0
147
0.0
147
1.0
  0
MATERIAL
  5
21
102
{ACAD_XDICTIONARY
360
22
102
}
102
{ACAD_REACTORS
330
10
102
}
330
10
100
AcDbMaterial
  1
Global
 72
     0
 43
0.0208333333333333
 43
0.0
 43
0.0
 43
0.0
 43
0.0
 43
0.0208333333333333
 43
0.0
 43
0.0
 43
0.0
 43
0.0
 43
1.0
 43
0.0
 43
0.0
 43
0.0
 43
0.0
 43
1.0
 77
     0
 47
0.0208333333333333
 47
0.0
 47
0.0
 47
0.0
 47
0.0
 47
0.0208333333333333
 47
0.0
 47
0.0
 47
0.0
 47
0.0
 47
1.0
 47
0.0
 47
0.0
 47
0.0
 47
0.0
 47
1.0
171
     0
 49
0.0208333333333333
 49
0.0
 49
0.0
 49
0.0
 49
0.0
 49
0.0208333333333333
 49
0.0
 49
0.0
 49
0.0
 49
0.0
 49
1.0
 49
0.0
 49
0.0
 49
0.0
 49
0.0
 49
1.0
175
     0
142
0.0208333333333333
142
0.0
142
0.0
142
0.0
142
0.0
142
0.0208333333333333
142
0.0
142
0.0
142
0.0
142
0.0
142
1.0
142
0.0
142
0.0
142
0.0
142
0.0
142
1.0
179
     0
144
0.0208333333333333
144
0.0
144
0.0
144
0.0
144
0.0
144
0.0208333333333333
144
0.0
144
0.0
144
0.0
144
0.0
144
1.0
144
0.0
144
0.0
144
0.0
144
0.0
144
1.0
147
0.0208333333333333
147
0.0
147
0.0
147
0.0
147
0.0
147
0.0208333333333333
147
0.0
147
0.0
147
0.0
147
0.0
147
1.0
147
0.0
147
0.0
147
0.0
147
0.0
147
1.0
  0
MLEADERSTYLE
  5
67
102
{ACAD_REACTORS
330
66
102
}
330
66
100
AcDbMLeaderStyle
179
     2
170
     2
171
     1
172
     0
 90
        2
 40
0.0
 41
0.0
173
     1
 91
-1056964608
340
5B
 92
       -2
290
     1
 42
0.09
291
     1
 43
0.36
  3
Standard
 44
0.18
300

342
55
174
     1
178
     6
175
     1
176
     0
 93
-1056964608
 45
0.18
292
     0
297
     0
 46
0.18
 94
-1056964608
 47
1.0
 49
1.0
140
1.0
293
     1
141
0.0
294
     1
177
     0
142
1.0
295
     0
296
     0
143
0.125
271
     0
272
     9
273
     9
298
     1
  0
MLINESTYLE
  5
60
102
{ACAD_REACTORS
330
5F
102
}
330
5F
100
AcDbMlineStyle
  2
STANDARD
 70
     0
  3

 62
   256
 51
90.0
 52
90.0
 71
     2
 49
0.5
 62
   256
  6
BYLAYER
 49
-0.5
 62
   256
  6
BYLAYER
  0
ACDBPLACEHOLDER
  5
F
102
{ACAD_REACTORS
330
E
102
}
330
E
  0
SCALE
  5
43
102
{ACAD_REACTORS
330
42
102
}
330
42
100
AcDbScale
 70
     0
300
1:1
140
1.0
141
1.0
290
     1
  0
SCALE
  5
44
102
{ACAD_REACTORS
330
42
102
}
330
42
100
AcDbScale
 70
     0
300
1/128" = 1'-0"
140
0.0078125
141
12.0
290
     0
  0
SCALE
  5
45
102
{ACAD_REACTORS
330
42
102
}
330
42
100
AcDbScale
 70
     0
300
1/64" = 1'-0"
140
0.015625
141
12.0
290
     0
  0
SCALE
  5
46
102
{ACAD_REACTORS
330
42
102
}
330
42
100
AcDbScale
 70
     0
300
1/32" = 1'-0"
140
0.03125
141
12.0
290
     0
  0
SCALE
  5
47
102
{ACAD_REACTORS
330
42
102
}
330
42
100
AcDbScale
 70
     0
300
1/16" = 1'-0"
140
0.0625
141
12.0
290
     0
  0
SCALE
  5
48
102
{ACAD_REACTORS
330
42
102
}
330
42
100
AcDbScale
 70
     0
300
3/32" = 1'-0"
140
0.09375
141
12.0
290
     0
  0
SCALE
  5
49
102
{ACAD_REACTORS
330
42
102
}
330
42
100
AcDbScale
 70
     0
300
1/8" = 1'-0"
140
0.125
141
12.0
290
     0
  0
SCALE
  5
4A
102
{ACAD_REACTORS
330
42
102
}
330
42
100
AcDbScale
 70
     0
300
3/16" = 1'-0"
140
0.1875
141
12.0
290
     0
  0
SCALE
  5
4B
102
{ACAD_REACTORS
330
42
102
}
330
42
100
AcDbScale
 70
     0
300
1/4" = 1'-0"
140
0.25
141
12.0
290
     0
  0
SCALE
  5
4C
102
{ACAD_REACTORS
330
42
102
}
330
42
100
AcDbScale
 70
     0
300
3/8" = 1'-0"
140
0.375
141
12.0
290
     0
  0
SCALE
  5
4D
102
{ACAD_REACTORS
330
42
102
}
330
42
100
AcDbScale
 70
     0
300
1/2" = 1'-0"
140
0.5
141
12.0
290
     0
  0
SCALE
  5
4E
102
{ACAD_REACTORS
330
42
102
}
330
42
100
AcDbScale
 70
     0
300
3/4" = 1'-0"
140
0.75
141
12.0
290
     0
  0
SCALE
  5
4F
102
{ACAD_REACTORS
330
42
102
}
330
42
100
AcDbScale
 70
     0
300
1" = 1'-0"
140
1.0
141
12.0
290
     0
  0
SCALE
  5
50
102
{ACAD_REACTORS
330
42
102
}
330
42
100
AcDbScale
 70
     0
300
1-1/2" = 1'-0"
140
1.5
141
12.0
290
     0
  0
SCALE
  5
51
102
{ACAD_REACTORS
330
42
102
}
330
42
100
AcDbScale
 70
     0
300
3" = 1'-0"
140
3.0
141
12.0
290
     0
  0
SCALE
  5
52
102
{ACAD_REACTORS
330
42
102
}
330
42
100
AcDbScale
 70
     0
300
6" = 1'-0"
140
6.0
141
12.0
290
     0
  0
SCALE
  5
53
102
{ACAD_REACTORS
330
42
102
}
330
42
100
AcDbScale
 70
     0
300
1'-0" = 1'-0"
140
12.0
141
12.0
290
     0
  0
ACDBSECTIONVIEWSTYLE
  5
69
102
{ACAD_XDICTIONARY
360
88
102
}
102
{ACAD_REACTORS
330
68
102
}
330
68
100
AcDbModelDocViewStyle
 70
     0
  3
Imperial24
290
     0
100
AcDbSectionViewStyle
 70
     0
 71
     0
 90
       78
 71
     1
340
55
 62
   256
 40
0.24
340
0
340
0
 62
   256
 40
0.24
300
I, O, Q, S, X, Z
 40
0.48
 90
        3
 40
0.18
 90
        1
 71
     2
340
5D
 90
       25
 62
   256
340
5D
 90
       50
 62
   256
 40
0.24
 40
0.0
 40
0.24
 71
     3
340
55
 62
   256
 40
0.24
 90
        1
 40
0.75
 90
        1
300
%<\AcVar ViewType \f "%tc1">% %<\AcVar ViewSectionStartId>%-%<\AcVar ViewSectionEndId>%\PSCALE %<\AcVar ViewScale \f "%sn">%
 71
     4
 62
   256
 62
   257
300
ANSI31
 40
1.0
 90
        0
290
     0
290
     0
 90
        6
 40
0.0
 40
1.570796326794896
 40
0.2617993877991494
 40
1.308996938995747
 40
-0.2617993877991494
 40
1.832595714594046
  0
TABLESTYLE
  5
65
102
{ACAD_XDICTIONARY
360
85
102
}
102
{ACAD_REACTORS
330
64
102
}
330
64
100
AcDbTableStyle
280
     0
  3
Standard
 70
     0
 71
     0
 40
0.06
 41
0.06
280
     0
281
     0
  7
Standard
140
0.18
170
     2
 62
     0
 63
     7
283
     0
 90
      512
 91
        0
  1

274
    -2
284
     1
 64
     0
275
    -2
285
     1
 65
     0
276
    -2
286
     1
 66
     0
277
    -2
287
     1
 67
     0
278
    -2
288
     1
 68
     0
279
    -2
289
     1
 69
     0
  7
Standard
140
0.25
170
     5
 62
     0
 63
     7
283
     0
 90
      512
 91
        0
  1

274
    -2
284
     1
 64
     0
275
    -2
285
     1
 65
     0
276
    -2
286
     1
 66
     0
277
    -2
287
     1
 67
     0
278
    -2
288
     1
 68
     0
279
    -2
289
     1
 69
     0
  7
Standard
140
0.18
170
     5
 62
     0
 63
     7
283
     0
 90
      512
 91
        0
  1

274
    -2
284
     1
 64
     0
275
    -2
285
     1
 65
     0
276
    -2
286
     1
 66
     0
277
    -2
287
     1
 67
     0
278
    -2
288
     1
 68
     0
279
    -2
289
     1
 69
     0
  0
VISUALSTYLE
  5
2F
102
{ACAD_REACTORS
330
29
102
}
330
29
100
AcDbVisualStyle
  2
2dWireframe
 70
     4
177
     3
291
     0
 70
    58
 90
        0
176
     1
 90
        2
176
     1
 90
        0
176
     1
 90
        0
176
     1
 40
0.6
176
     1
 40
30.0
176
     1
 62
     7
420
 16777215
176
     1
 90
        1
176
     1
 90
        4
176
     1
 62
     7
176
     1
 62
   257
176
     1
 90
        1
176
     1
 90
        1
176
     1
 40
1.0
176
     1
 90
        0
176
     1
 62
   257
176
     1
 40
1.0
176
     1
 90
        1
176
     1
 90
        6
176
     1
 90
        2
176
     1
 62
     7
176
     1
 90
        5
176
     1
 90
        0
176
     1
 90
        0
176
     1
290
     0
176
     1
 90
        1
176
     1
 40
0.0
176
     1
 90
        0
176
     1
290
     1
176
     1
290
     1
176
     1
290
     0
176
     1
290
     0
176
     1
290
     0
176
     1
290
     0
176
     1
290
     0
176
     1
290
     0
176
     1
290
     0
176
     1
 90
       50
176
     1
 40
0.0
176
     1
 40
1.0
176
     1
 90
        0
176
     1
 62
    18
420
        0
176
     1
 90
       50
176
     1
 90
        3
176
     1
 62
     5
420
      255
176
     1
290
     0
176
     1
 90
       50
176
     1
 90
       50
176
     1
 90
       50
176
     1
290
     0
176
     1
 90
       50
176
     1
 62
   256
176
     0
 40
1.0
176
     0
 90
        2
176
     1
  1
strokes_ogs.tif
176
     1
290
     0
176
     1
 40
1.0
176
     1
 40
1.0
176
     1
1001
ACAD
1000
AcDbSavedByObjectVersion
1070
     0
  0
VISUALSTYLE
  5
2E
102
{ACAD_REACTORS
330
29
102
}
330
29
100
AcDbVisualStyle
  2
Basic
 70
     7
177
     3
291
     1
 70
    58
 90
        1
176
     1
 90
        0
176
     1
 90
        1
176
     1
 90
        0
176
     1
 40
0.6
176
     1
 40
30.0
176
     1
 62
     7
420
 16777215
176
     1
 90
        0
176
     1
 90
        4
176
     1
 62
     7
176
     1
 62
   257
176
     1
 90
        1
176
     1
 90
        1
176
     1
 40
1.0
176
     1
 90
        8
176
     1
 62
     7
176
     1
 40
1.0
176
     1
 90
        1
176
     1
 90
        6
176
     1
 90
        2
176
     1
 62
     7
176
     1
 90
        5
176
     1
 90
        0
176
     1
 90
        0
176
     1
290
     0
176
     1
 90
        1
176
     1
 40
0.0
176
     1
 90
        0
176
     1
290
     0
176
     1
290
     1
176
     1
290
     1
176
     1
290
     0
176
     1
290
     0
176
     1
290
     0
176
     1
290
     0
176
     1
290
     0
176
     1
290
     0
176
     1
 90
       50
176
     1
 40
0.0
176
     1
 40
1.0
176
     1
 90
        0
176
     1
 62
    18
420
        0
176
     1
 90
       50
176
     1
 90
        3
176
     1
 62
     5
420
      255
176
     1
290
     0
176
     1
 90
       50
176
     1
 90
       50
176
     1
 90
       50
176
     1
290
     0
176
     1
 90
       50
176
     1
 62
   256
176
     0
 40
1.0
176
     0
 90
        2
176
     1
  1
strokes_ogs.tif
176
     1
290
     0
176
     1
 40
1.0
176
     1
 40
1.0
176
     1
1001
ACAD
1000
AcDbSavedByObjectVersion
1070
     0
  0
VISUALSTYLE
  5
35
102
{ACAD_REACTORS
330
29
102
}
330
29
100
AcDbVisualStyle
  2
Brighten
 70
    12
177
     3
291
     1
 70
    58
 90
        2
176
     1
 90
        2
176
     1
 90
        0
176
     1
 90
        0
176
     1
 40
0.6
176
     1
 40
30.0
176
     1
 62
     7
420
 16777215
176
     1
 90
        1
176
     1
 90
        4
176
     1
 62
     7
176
     1
 62
   257
176
     1
 90
        1
176
     1
 90
        1
176
     1
 40
1.0
176
     1
 90
        8
176
     1
 62
     7
176
     1
 40
1.0
176
     1
 90
        1
176
     1
 90
        6
176
     1
 90
        2
176
     1
 62
     7
176
     1
 90
        5
176
     1
 90
        0
176
     1
 90
        0
176
     1
290
     0
176
     1
 90
        1
176
     1
 40
50.0
176
     1
 90
        0
176
     1
290
     0
176
     1
290
     1
176
     1
290
     1
176
     1
290
     0
176
     1
290
     0
176
     1
290
     0
176
     1
290
     0
176
     1
290
     0
176
     1
290
     0
176
     1
 90
       50
176
     1
 40
0.0
176
     1
 40
1.0
176
     1
 90
        0
176
     1
 62
    18
420
        0
176
     1
 90
       50
176
     1
 90
        3
176
     1
 62
     5
420
      255
176
     1
290
     0
176
     1
 90
       50
176
     1
 90
       50
176
     1
 90
       50
176
     1
290
     0
176
     1
 90
       50
176
     1
 62
   256
176
     0
 40
1.0
176
     0
 90
        2
176
     1
  1
strokes_ogs.tif
176
     1
290
     0
176
     1
 40
1.0
176
     1
 40
1.0
176
     1
1001
ACAD
1000
AcDbSavedByObjectVersion
1070
     0
  0
VISUALSTYLE
  5
39
102
{ACAD_REACTORS
330
29
102
}
330
29
100
AcDbVisualStyle
  2
ColorChange
 70
    16
177
     3
291
     1
 70
    58
 90
        2
176
     1
 90
        2
176
     1
 90
        3
176
     1
 90
        0
176
     1
 40
0.6
176
     1
 40
30.0
176
     1
 62
     8
420
  8421504
176
     1
 90
        1
176
     1
 90
        4
176
     1
 62
     7
176
     1
 62
   257
176
     1
 90
        1
176
     1
 90
        1
176
     1
 40
1.0
176
     1
 90
        8
176
     1
 62
     8
420
  8421504
176
     1
 40
1.0
176
     1
 90
        1
176
     1
 90
        6
176
     1
 90
        2
176
     1
 62
     7
176
     1
 90
        5
176
     1
 90
        0
176
     1
 90
        0
176
     1
290
     0
176
     1
 90
        1
176
     1
 40
0.0
176
     1
 90
        0
176
     1
290
     0
176
     1
290
     1
176
     1
290
     1
176
     1
290
     0
176
     1
290
     0
176
     1
290
     0
176
     1
290
     0
176
     1
290
     0
176
     1
290
     0
176
     1
 90
       50
176
     1
 40
0.0
176
     1
 40
1.0
176
     1
 90
        0
176
     1
 62
    18
420
        0
176
     1
 90
       50
176
     1
 90
        3
176
     1
 62
     5
420
      255
176
     1
290
     0
176
     1
 90
       50
176
     1
 90
       50
176
     1
 90
       50
176
     1
290
     0
176
     1
 90
       50
176
     1
 62
   256
176
     0
 40
1.0
176
     0
 90
        2
176
     1
  1
strokes_ogs.tif
176
     1
290
     0
176
     1
 40
1.0
176
     1
 40
1.0
176
     1
1001
ACAD
1000
AcDbSavedByObjectVersion
1070
     0
  0
VISUALSTYLE
  5
32
102
{ACAD_REACTORS
330
29
102
}
330
29
100
AcDbVisualStyle
  2
Conceptual
 70
     9
177
     3
291
     0
 70
    58
 90
        3
176
     1
 90
        2
176
     1
 90
        0
176
     1
 90
        0
176
     1
 40
0.6
176
     1
 40
30.0
176
     1
 62
     7
420
 16777215
176
     1
 90
        2
176
     1
 90
        2
176
     1
 62
     7
176
     1
 62
   257
176
     1
 90
        1
176
     1
 90
        1
176
     1
 40
179.0
176
     1
 90
        8
176
     1
 62
     7
176
     1
 40
1.0
176
     1
 90
        1
176
     1
 90
        6
176
     1
 90
        2
176
     1
 62
     7
176
     1
 90
        3
176
     1
 90
        0
176
     1
 90
        0
176
     1
290
     0
176
     1
 90
        1
176
     1
 40
0.0
176
     1
 90
        0
176
     1
290
     0
176
     1
290
     1
176
     1
290
     1
176
     1
290
     0
176
     1
290
     0
176
     1
290
     0
176
     1
290
     0
176
     1
290
     0
176
     1
290
     0
176
     1
 90
       50
176
     1
 40
0.0
176
     1
 40
1.0
176
     1
 90
        0
176
     1
 62
    18
420
        0
176
     1
 90
       50
176
     1
 90
        3
176
     1
 62
     5
420
      255
176
     1
290
     0
176
     1
 90
       50
176
     1
 90
       50
176
     1
 90
       50
176
     1
290
     0
176
     1
 90
       50
176
     1
 62
   256
176
     0
 40
1.0
176
     0
 90
        2
176
     1
  1
strokes_ogs.tif
176
     1
290
     0
176
     1
 40
1.0
176
     1
 40
1.0
176
     1
1001
ACAD
1000
AcDbSavedByObjectVersion
1070
     0
  0
VISUALSTYLE
  5
34
102
{ACAD_REACTORS
330
29
102
}
330
29
100
AcDbVisualStyle
  2
Dim
 70
    11
177
     3
291
     1
 70
    58
 90
        2
176
     1
 90
        2
176
     1
 90
        0
176
     1
 90
        0
176
     1
 40
0.6
176
     1
 40
30.0
176
     1
 62
     7
420
 16777215
176
     1
 90
        1
176
     1
 90
        4
176
     1
 62
     7
176
     1
 62
   257
176
     1
 90
        1
176
     1
 90
        1
176
     1
 40
1.0
176
     1
 90
        8
176
     1
 62
     7
176
     1
 40
1.0
176
     1
 90
        1
176
     1
 90
        6
176
     1
 90
        2
176
     1
 62
     7
176
     1
 90
        5
176
     1
 90
        0
176
     1
 90
        0
176
     1
290
     0
176
     1
 90
        1
176
     1
 40
-50.0
176
     1
 90
        0
176
     1
290
     0
176
     1
290
     1
176
     1
290
     1
176
     1
290
     0
176
     1
290
     0
176
     1
290
     0
176
     1
290
     0
176
     1
290
     0
176
     1
290
     0
176
     1
 90
       50
176
     1
 40
0.0
176
     1
 40
1.0
176
     1
 90
        0
176
     1
 62
    18
420
        0
176
     1
 90
       50
176
     1
 90
        3
176
     1
 62
     5
420
      255
176
     1
290
     0
176
     1
 90
       50
176
     1
 90
       50
176
     1
 90
       50
176
     1
290
     0
176
     1
 90
       50
176
     1
 62
   256
176
     0
 40
1.0
176
     0
 90
        2
176
     1
  1
strokes_ogs.tif
176
     1
290
     0
176
     1
 40
1.0
176
     1
 40
1.0
176
     1
1001
ACAD
1000
AcDbSavedByObjectVersion
1070
     0
  0
VISUALSTYLE
  5
41
102
{ACAD_REACTORS
330
29
102
}
330
29
100
AcDbVisualStyle
  2
EdgeColorOff
 70
    22
177
     3
291
     1
 70
    58
 90
        2
176
     0
 90
        2
176
     0
 90
        0
176
     0
 90
        0
176
     0
 40
0.6
176
     0
 40
30.0
176
     0
 62
     7
420
 16777215
176
     0
 90
        1
176
     0
 90
        4
176
     0
 62
     7
176
     0
 62
   257
176
     0
 90
        1
176
     0
 90
        1
176
     0
 40
1.0
176
     0
 90
        8
176
     2
 62
     7
176
     0
 40
1.0
176
     0
 90
        1
176
     0
 90
        6
176
     0
 90
        2
176
     0
 62
     7
176
     0
 90
        5
176
     0
 90
        0
176
     0
 90
        0
176
     0
290
     0
176
     0
 90
        1
176
     0
 40
0.0
176
     0
 90
        0
176
     0
290
     0
176
     0
290
     1
176
     0
290
     1
176
     0
290
     0
176
     0
290
     0
176
     0
290
     0
176
     0
290
     0
176
     0
290
     0
176
     0
290
     0
176
     0
 90
       50
176
     0
 40
0.0
176
     0
 40
1.0
176
     0
 90
        0
176
     0
 62
    18
420
        0
176
     0
 90
       50
176
     0
 90
        3
176
     0
 62
     5
420
      255
176
     0
290
     0
176
     0
 90
       50
176
     0
 90
       50
176
     0
 90
       50
176
     0
290
     0
176
     0
 90
       50
176
     0
 62
   256
176
     0
 40
1.0
176
     0
 90
        2
176
     0
  1
strokes_ogs.tif
176
     0
290
     0
176
     0
 40
1.0
176
     0
 40
1.0
176
     0
1001
ACAD
1000
AcDbSavedByObjectVersion
1070
     0
  0
VISUALSTYLE
  5
38
102
{ACAD_REACTORS
330
29
102
}
330
29
100
AcDbVisualStyle
  2
Facepattern
 70
    15
177
     3
291
     1
 70
    58
 90
        2
176
     1
 90
        2
176
     1
 90
        0
176
     1
 90
        0
176
     1
 40
0.6
176
     1
 40
30.0
176
     1
 62
     7
420
 16777215
176
     1
 90
        1
176
     1
 90
        4
176
     1
 62
     7
176
     1
 62
   257
176
     1
 90
        1
176
     1
 90
        1
176
     1
 40
1.0
176
     1
 90
        8
176
     1
 62
     7
176
     1
 40
1.0
176
     1
 90
        1
176
     1
 90
        6
176
     1
 90
        2
176
     1
 62
     7
176
     1
 90
        5
176
     1
 90
        0
176
     1
 90
        0
176
     1
290
     0
176
     1
 90
        1
176
     1
 40
0.0
176
     1
 90
        0
176
     1
290
     0
176
     1
290
     1
176
     1
290
     1
176
     1
290
     0
176
     1
290
     0
176
     1
290
     0
176
     1
290
     0
176
     1
290
     0
176
     1
290
     0
176
     1
 90
       50
176
     1
 40
0.0
176
     1
 40
1.0
176
     1
 90
        0
176
     1
 62
    18
420
        0
176
     1
 90
       50
176
     1
 90
        3
176
     1
 62
     5
420
      255
176
     1
290
     0
176
     1
 90
       50
176
     1
 90
       50
176
     1
 90
       50
176
     1
290
     0
176
     1
 90
       50
176
     1
 62
   256
176
     0
 40
1.0
176
     0
 90
        2
176
     1
  1
strokes_ogs.tif
176
     1
290
     0
176
     1
 40
1.0
176
     1
 40
1.0
176
     1
1001
ACAD
1000
AcDbSavedByObjectVersion
1070
     0
  0
VISUALSTYLE
  5
2A
102
{ACAD_REACTORS
330
29
102
}
330
29
100
AcDbVisualStyle
  2
Flat
 70
     0
177
     3
291
     1
 70
    58
 90
        2
176
     1
 90
        1
176
     1
 90
        1
176
     1
 90
        2
176
     1
 40
0.6
176
     1
 40
30.0
176
     1
 62
     7
420
 16777215
176
     1
 90
        0
176
     1
 90
        0
176
     1
 62
     7
176
     1
 62
   257
176
     1
 90
        1
176
     1
 90
        1
176
     1
 40
1.0
176
     1
 90
        8
176
     1
 62
     7
176
     1
 40
1.0
176
     1
 90
        1
176
     1
 90
        6
176
     1
 90
        2
176
     1
 62
     7
176
     1
 90
        5
176
     1
 90
        0
176
     1
 90
        0
176
     1
290
     0
176
     1
 90
       13
176
     1
 40
0.0
176
     1
 90
        0
176
     1
290
     0
176
     1
290
     1
176
     1
290
     1
176
     1
290
     0
176
     1
290
     0
176
     1
290
     0
176
     1
290
     0
176
     1
290
     0
176
     1
290
     0
176
     1
 90
       50
176
     1
 40
0.0
176
     1
 40
1.0
176
     1
 90
        0
176
     1
 62
    18
420
        0
176
     1
 90
       50
176
     1
 90
        3
176
     1
 62
     5
420
      255
176
     1
290
     0
176
     1
 90
       50
176
     1
 90
       50
176
     1
 90
       50
176
     1
290
     0
176
     1
 90
       50
176
     1
 62
   256
176
     0
 40
1.0
176
     0
 90
        2
176
     1
  1
strokes_ogs.tif
176
     1
290
     0
176
     1
 40
1.0
176
     1
 40
1.0
176
     1
1001
ACAD
1000
AcDbSavedByObjectVersion
1070
     0
  0
VISUALSTYLE
  5
2B
102
{ACAD_REACTORS
330
29
102
}
330
29
100
AcDbVisualStyle
  2
FlatWithEdges
 70
     1
177
     3
291
     1
 70
    58
 90
        2
176
     1
 90
        1
176
     1
 90
        1
176
     1
 90
        2
176
     1
 40
0.6
176
     1
 40
30.0
176
     1
 62
     7
420
 16777215
176
     1
 90
        1
176
     1
 90
        0
176
     1
 62
     7
176
     1
 62
   257
176
     1
 90
        1
176
     1
 90
        1
176
     1
 40
1.0
176
     1
 90
        0
176
     1
 62
   257
176
     1
 40
1.0
176
     1
 90
        1
176
     1
 90
        6
176
     1
 90
        2
176
     1
 62
     7
176
     1
 90
        5
176
     1
 90
        0
176
     1
 90
        0
176
     1
290
     0
176
     1
 90
       13
176
     1
 40
0.0
176
     1
 90
        0
176
     1
290
     0
176
     1
290
     1
176
     1
290
     1
176
     1
290
     0
176
     1
290
     0
176
     1
290
     0
176
     1
290
     0
176
     1
290
     0
176
     1
290
     0
176
     1
 90
       50
176
     1
 40
0.0
176
     1
 40
1.0
176
     1
 90
        0
176
     1
 62
    18
420
        0
176
     1
 90
       50
176
     1
 90
        3
176
     1
 62
     5
420
      255
176
     1
290
     0
176
     1
 90
       50
176
     1
 90
       50
176
     1
 90
       50
176
     1
290
     0
176
     1
 90
       50
176
     1
 62
   256
176
     0
 40
1.0
176
     0
 90
        2
176
     1
  1
strokes_ogs.tif
176
     1
290
     0
176
     1
 40
1.0
176
     1
 40
1.0
176
     1
1001
ACAD
1000
AcDbSavedByObjectVersion
1070
     0
  0
VISUALSTYLE
  5
2C
102
{ACAD_REACTORS
330
29
102
}
330
29
100
AcDbVisualStyle
  2
Gouraud
 70
     2
177
     3
291
     1
 70
    58
 90
        2
176
     1
 90
        2
176
     1
 90
        1
176
     1
 90
        2
176
     1
 40
0.6
176
     1
 40
30.0
176
     1
 62
     7
420
 16777215
176
     1
 90
        0
176
     1
 90
        0
176
     1
 62
     7
176
     1
 62
   257
176
     1
 90
        1
176
     1
 90
        1
176
     1
 40
1.0
176
     1
 90
        0
176
     1
 62
     7
176
     1
 40
1.0
176
     1
 90
        1
176
     1
 90
        6
176
     1
 90
        2
176
     1
 62
     7
176
     1
 90
        5
176
     1
 90
        0
176
     1
 90
        0
176
     1
290
     0
176
     1
 90
       13
176
     1
 40
0.0
176
     1
 90
        0
176
     1
290
     0
176
     1
290
     1
176
     1
290
     1
176
     1
290
     0
176
     1
290
     0
176
     1
290
     0
176
     1
290
     0
176
     1
290
     0
176
     1
290
     0
176
     1
 90
       50
176
     1
 40
0.0
176
     1
 40
1.0
176
     1
 90
        0
176
     1
 62
    18
420
        0
176
     1
 90
       50
176
     1
 90
        3
176
     1
 62
     5
420
      255
176
     1
290
     0
176
     1
 90
       50
176
     1
 90
       50
176
     1
 90
       50
176
     1
290
     0
176
     1
 90
       50
176
     1
 62
   256
176
     0
 40
1.0
176
     0
 90
        2
176
     1
  1
strokes_ogs.tif
176
     1
290
     0
176
     1
 40
1.0
176
     1
 40
1.0
176
     1
1001
ACAD
1000
AcDbSavedByObjectVersion
1070
     0
  0
VISUALSTYLE
  5
2D
102
{ACAD_REACTORS
330
29
102
}
330
29
100
AcDbVisualStyle
  2
GouraudWithEdges
 70
     3
177
     3
291
     1
 70
    58
 90
        2
176
     1
 90
        2
176
     1
 90
        1
176
     1
 90
        2
176
     1
 40
0.6
176
     1
 40
30.0
176
     1
 62
     7
420
 16777215
176
     1
 90
        1
176
     1
 90
        0
176
     1
 62
     7
176
     1
 62
   257
176
     1
 90
        1
176
     1
 90
        1
176
     1
 40
1.0
176
     1
 90
        0
176
     1
 62
   257
176
     1
 40
1.0
176
     1
 90
        1
176
     1
 90
        6
176
     1
 90
        2
176
     1
 62
     7
176
     1
 90
        5
176
     1
 90
        0
176
     1
 90
        0
176
     1
290
     0
176
     1
 90
       13
176
     1
 40
0.0
176
     1
 90
        0
176
     1
290
     0
176
     1
290
     1
176
     1
290
     1
176
     1
290
     0
176
     1
290
     0
176
     1
290
     0
176
     1
290
     0
176
     1
290
     0
176
     1
290
     0
176
     1
 90
       50
176
     1
 40
0.0
176
     1
 40
1.0
176
     1
 90
        0
176
     1
 62
    18
420
        0
176
     1
 90
       50
176
     1
 90
        3
176
     1
 62
     5
420
      255
176
     1
290
     0
176
     1
 90
       50
176
     1
 90
       50
176
     1
 90
       50
176
     1
290
     0
176
     1
 90
       50
176
     1
 62
   256
176
     0
 40
1.0
176
     0
 90
        2
176
     1
  1
strokes_ogs.tif
176
     1
290
     0
176
     1
 40
1.0
176
     1
 40
1.0
176
     1
1001
ACAD
1000
AcDbSavedByObjectVersion
1070
     0
  0
VISUALSTYLE
  5
31
102
{ACAD_REACTORS
330
29
102
}
330
29
100
AcDbVisualStyle
  2
Hidden
 70
     6
177
     3
291
     0
 70
    58
 90
        1
176
     1
 90
        2
176
     1
 90
        2
176
     1
 90
        0
176
     1
 40
0.6
176
     1
 40
30.0
176
     1
 62
     7
420
 16777215
176
     1
 90
        2
176
     1
 90
        2
176
     1
 62
     7
176
     1
 62
   257
176
     1
 90
        2
176
     1
 90
        1
176
     1
 40
40.0
176
     1
 90
        0
176
     1
 62
   257
176
     1
 40
1.0
176
     1
 90
        1
176
     1
 90
        6
176
     1
 90
        2
176
     1
 62
     7
176
     1
 90
        3
176
     1
 90
        0
176
     1
 90
        0
176
     1
290
     0
176
     1
 90
        1
176
     1
 40
0.0
176
     1
 90
        0
176
     1
290
     0
176
     1
290
     1
176
     1
290
     1
176
     1
290
     0
176
     1
290
     0
176
     1
290
     0
176
     1
290
     0
176
     1
290
     0
176
     1
290
     0
176
     1
 90
       50
176
     1
 40
0.0
176
     1
 40
1.0
176
     1
 90
        0
176
     1
 62
    18
420
        0
176
     1
 90
       50
176
     1
 90
        3
176
     1
 62
     5
420
      255
176
     1
290
     0
176
     1
 90
       50
176
     1
 90
       50
176
     1
 90
       50
176
     1
290
     0
176
     1
 90
       50
176
     1
 62
   256
176
     0
 40
1.0
176
     0
 90
        2
176
     1
  1
strokes_ogs.tif
176
     1
290
     0
176
     1
 40
1.0
176
     1
 40
1.0
176
     1
1001
ACAD
1000
AcDbSavedByObjectVersion
1070
     0
  0
VISUALSTYLE
  5
3F
102
{ACAD_REACTORS
330
29
102
}
330
29
100
AcDbVisualStyle
  2
JitterOff
 70
    20
177
     3
291
     1
 70
    58
 90
        2
176
     0
 90
        2
176
     0
 90
        0
176
     0
 90
        0
176
     0
 40
0.6
176
     0
 40
30.0
176
     0
 62
     7
420
 16777215
176
     0
 90
        1
176
     0
 90
        4
176
     0
 62
     7
176
     0
 62
   257
176
     0
 90
        1
176
     0
 90
        1
176
     0
 40
1.0
176
     0
 90
       10
176
     2
 62
     7
176
     0
 40
1.0
176
     0
 90
        1
176
     0
 90
        6
176
     0
 90
        2
176
     0
 62
     7
176
     0
 90
        5
176
     0
 90
        0
176
     0
 90
        0
176
     0
290
     0
176
     0
 90
        1
176
     0
 40
0.0
176
     0
 90
        0
176
     0
290
     0
176
     0
290
     1
176
     0
290
     1
176
     0
290
     0
176
     0
290
     0
176
     0
290
     0
176
     0
290
     0
176
     0
290
     0
176
     0
290
     0
176
     0
 90
       50
176
     0
 40
0.0
176
     0
 40
1.0
176
     0
 90
        0
176
     0
 62
    18
420
        0
176
     0
 90
       50
176
     0
 90
        3
176
     0
 62
     5
420
      255
176
     0
290
     0
176
     0
 90
       50
176
     0
 90
       50
176
     0
 90
       50
176
     0
290
     0
176
     0
 90
       50
176
     0
 62
   256
176
     0
 40
1.0
176
     0
 90
        2
176
     0
  1
strokes_ogs.tif
176
     0
290
     0
176
     0
 40
1.0
176
     0
 40
1.0
176
     0
1001
ACAD
1000
AcDbSavedByObjectVersion
1070
     0
  0
VISUALSTYLE
  5
37
102
{ACAD_REACTORS
330
29
102
}
330
29
100
AcDbVisualStyle
  2
Linepattern
 70
    14
177
     3
291
     1
 70
    58
 90
        2
176
     1
 90
        2
176
     1
 90
        0
176
     1
 90
        0
176
     1
 40
0.6
176
     1
 40
30.0
176
     1
 62
     7
420
 16777215
176
     1
 90
        1
176
     1
 90
        4
176
     1
 62
     7
176
     1
 62
   257
176
     1
 90
        7
176
     1
 90
        7
176
     1
 40
1.0
176
     1
 90
        8
176
     1
 62
     7
176
     1
 40
1.0
176
     1
 90
        1
176
     1
 90
        6
176
     1
 90
        2
176
     1
 62
     7
176
     1
 90
        5
176
     1
 90
        0
176
     1
 90
        0
176
     1
290
     0
176
     1
 90
        1
176
     1
 40
0.0
176
     1
 90
        0
176
     1
290
     0
176
     1
290
     1
176
     1
290
     1
176
     1
290
     0
176
     1
290
     0
176
     1
290
     0
176
     1
290
     0
176
     1
290
     0
176
     1
290
     0
176
     1
 90
       50
176
     1
 40
0.0
176
     1
 40
1.0
176
     1
 90
        0
176
     1
 62
    18
420
        0
176
     1
 90
       50
176
     1
 90
        3
176
     1
 62
     5
420
      255
176
     1
290
     0
176
     1
 90
       50
176
     1
 90
       50
176
     1
 90
       50
176
     1
290
     0
176
     1
 90
       50
176
     1
 62
   256
176
     0
 40
1.0
176
     0
 90
        2
176
     1
  1
strokes_ogs.tif
176
     1
290
     0
176
     1
 40
1.0
176
     1
 40
1.0
176
     1
1001
ACAD
1000
AcDbSavedByObjectVersion
1070
     0
  0
VISUALSTYLE
  5
40
102
{ACAD_REACTORS
330
29
102
}
330
29
100
AcDbVisualStyle
  2
OverhangOff
 70
    21
177
     3
291
     1
 70
    58
 90
        2
176
     0
 90
        2
176
     0
 90
        0
176
     0
 90
        0
176
     0
 40
0.6
176
     0
 40
30.0
176
     0
 62
     7
420
 16777215
176
     0
 90
        1
176
     0
 90
        4
176
     0
 62
     7
176
     0
 62
   257
176
     0
 90
        1
176
     0
 90
        1
176
     0
 40
1.0
176
     0
 90
        9
176
     2
 62
     7
176
     0
 40
1.0
176
     0
 90
        1
176
     0
 90
        6
176
     0
 90
        2
176
     0
 62
     7
176
     0
 90
        5
176
     0
 90
        0
176
     0
 90
        0
176
     0
290
     0
176
     0
 90
        1
176
     0
 40
0.0
176
     0
 90
        0
176
     0
290
     0
176
     0
290
     1
176
     0
290
     1
176
     0
290
     0
176
     0
290
     0
176
     0
290
     0
176
     0
290
     0
176
     0
290
     0
176
     0
290
     0
176
     0
 90
       50
176
     0
 40
0.0
176
     0
 40
1.0
176
     0
 90
        0
176
     0
 62
    18
420
        0
176
     0
 90
       50
176
     0
 90
        3
176
     0
 62
     5
420
      255
176
     0
290
     0
176
     0
 90
       50
176
     0
 90
       50
176
     0
 90
       50
176
     0
290
     0
176
     0
 90
       50
176
     0
 62
   256
176
     0
 40
1.0
176
     0
 90
        2
176
     0
  1
strokes_ogs.tif
176
     0
290
     0
176
     0
 40
1.0
176
     0
 40
1.0
176
     0
1001
ACAD
1000
AcDbSavedByObjectVersion
1070
     0
  0
VISUALSTYLE
  5
33
102
{ACAD_REACTORS
330
29
102
}
330
29
100
AcDbVisualStyle
  2
Realistic
 70
     8
177
     3
291
     0
 70
    58
 90
        2
176
     1
 90
        3
176
     1
 90
        0
176
     1
 90
        2
176
     1
 40
0.6
176
     1
 40
30.0
176
     1
 62
     7
420
 16777215
176
     1
 90
        0
176
     1
 90
        0
176
     1
 62
     7
176
     1
 62
   257
176
     1
 90
        1
176
     1
 90
        1
176
     1
 40
1.0
176
     1
 90
        8
176
     1
 62
   257
176
     1
 40
1.0
176
     1
 90
        1
176
     1
 90
        6
176
     1
 90
        2
176
     1
 62
     7
176
     1
 90
        3
176
     1
 90
        0
176
     1
 90
        0
176
     1
290
     0
176
     1
 90
       13
176
     1
 40
0.0
176
     1
 90
        0
176
     1
290
     0
176
     1
290
     1
176
     1
290
     1
176
     1
290
     0
176
     1
290
     0
176
     1
290
     0
176
     1
290
     0
176
     1
290
     0
176
     1
290
     0
176
     1
 90
       50
176
     1
 40
0.0
176
     1
 40
1.0
176
     1
 90
        0
176
     1
 62
    18
420
        0
176
     1
 90
       50
176
     1
 90
        3
176
     1
 62
     5
420
      255
176
     1
290
     0
176
     1
 90
       50
176
     1
 90
       50
176
     1
 90
       50
176
     1
290
     0
176
     1
 90
       50
176
     1
 62
   256
176
     0
 40
1.0
176
     0
 90
        2
176
     1
  1
strokes_ogs.tif
176
     1
290
     0
176
     1
 40
1.0
176
     1
 40
1.0
176
     1
1001
ACAD
1000
AcDbSavedByObjectVersion
1070
     0
  0
VISUALSTYLE
  5
3E
102
{ACAD_REACTORS
330
29
102
}
330
29
100
AcDbVisualStyle
  2
Shaded
 70
    27
177
     3
291
     0
 70
    58
 90
        2
176
     1
 90
        2
176
     1
 90
        1
176
     1
 90
        2
176
     1
 40
0.6
176
     1
 40
30.0
176
     1
 62
     7
420
 16777215
176
     1
 90
        0
176
     1
 90
        4
176
     1
 62
     7
176
     1
 62
   257
176
     1
 90
        1
176
     1
 90
        1
176
     1
 40
1.0
176
     1
 90
        8
176
     1
 62
   257
176
     1
 40
1.0
176
     1
 90
        1
176
     1
 90
        6
176
     1
 90
        2
176
     1
 62
     8
420
  7895160
176
     1
 90
        3
176
     1
 90
        0
176
     1
 90
        0
176
     1
290
     0
176
     1
 90
        5
176
     1
 40
0.0
176
     1
 90
        0
176
     1
290
     0
176
     1
290
     1
176
     1
290
     1
176
     1
290
     0
176
     1
290
     0
176
     1
290
     0
176
     1
290
     0
176
     1
290
     0
176
     1
290
     0
176
     1
 90
       50
176
     1
 40
0.0
176
     1
 40
1.0
176
     1
 90
        0
176
     1
 62
    18
420
        0
176
     1
 90
       50
176
     1
 90
        3
176
     1
 62
     5
420
      255
176
     1
290
     0
176
     1
 90
       50
176
     1
 90
       50
176
     1
 90
       50
176
     1
290
     0
176
     1
 90
       50
176
     1
 62
   256
176
     0
 40
1.0
176
     0
 90
        2
176
     1
  1
strokes_ogs.tif
176
     1
290
     0
176
     1
 40
1.0
176
     1
 40
1.0
176
     1
1001
ACAD
1000
AcDbSavedByObjectVersion
1070
     0
  0
VISUALSTYLE
  5
3D
102
{ACAD_REACTORS
330
29
102
}
330
29
100
AcDbVisualStyle
  2
Shaded with edges
 70
    26
177
     3
291
     0
 70
    58
 90
        2
176
     1
 90
        2
176
     1
 90
        1
176
     1
 90
        2
176
     1
 40
0.6
176
     1
 40
30.0
176
     1
 62
     7
420
 16777215
176
     1
 90
        1
176
     1
 90
        2
176
     1
 62
     7
176
     1
 62
   257
176
     1
 90
        2
176
     1
 90
        1
176
     1
 40
1.0
176
     1
 90
        8
176
     1
 62
   257
176
     1
 40
1.0
176
     1
 90
        1
176
     1
 90
        6
176
     1
 90
        2
176
     1
 62
     7
176
     1
 90
        3
176
     1
 90
        0
176
     1
 90
        0
176
     1
290
     0
176
     1
 90
        5
176
     1
 40
0.0
176
     1
 90
        0
176
     1
290
     0
176
     1
290
     1
176
     1
290
     1
176
     1
290
     0
176
     1
290
     0
176
     1
290
     0
176
     1
290
     0
176
     1
290
     0
176
     1
290
     0
176
     1
 90
       50
176
     1
 40
0.0
176
     1
 40
1.0
176
     1
 90
        0
176
     1
 62
    18
420
        0
176
     1
 90
       50
176
     1
 90
        3
176
     1
 62
     5
420
      255
176
     1
290
     0
176
     1
 90
       50
176
     1
 90
       50
176
     1
 90
       50
176
     1
290
     0
176
     1
 90
       50
176
     1
 62
   256
176
     0
 40
1.0
176
     0
 90
        2
176
     1
  1
strokes_ogs.tif
176
     1
290
     0
176
     1
 40
1.0
176
     1
 40
1.0
176
     1
1001
ACAD
1000
AcDbSavedByObjectVersion
1070
     0
  0
VISUALSTYLE
  5
3A
102
{ACAD_REACTORS
330
29
102
}
330
29
100
AcDbVisualStyle
  2
Shades of Gray
 70
    23
177
     3
291
     0
 70
    58
 90
        2
176
     1
 90
        2
176
     1
 90
        3
176
     1
 90
        0
176
     1
 40
0.6
176
     1
 40
30.0
176
     1
 62
     7
420
 16777215
176
     1
 90
        2
176
     1
 90
        2
176
     1
 62
     7
176
     1
 62
     7
176
     1
 90
        1
176
     1
 90
        1
176
     1
 40
40.0
176
     1
 90
        8
176
     1
 62
     7
176
     1
 40
1.0
176
     1
 90
        1
176
     1
 90
        6
176
     1
 90
        2
176
     1
 62
     7
176
     1
 90
        3
176
     1
 90
        0
176
     1
 90
        0
176
     1
290
     0
176
     1
 90
        1
176
     1
 40
0.0
176
     1
 90
        0
176
     1
290
     0
176
     1
290
     1
176
     1
290
     1
176
     1
290
     0
176
     1
290
     0
176
     1
290
     0
176
     1
290
     0
176
     1
290
     0
176
     1
290
     0
176
     1
 90
       50
176
     1
 40
0.0
176
     1
 40
1.0
176
     1
 90
        0
176
     1
 62
    18
420
        0
176
     1
 90
       50
176
     1
 90
        3
176
     1
 62
     5
420
      255
176
     1
290
     0
176
     1
 90
       50
176
     1
 90
       50
176
     1
 90
       50
176
     1
290
     0
176
     1
 90
       50
176
     1
 62
   256
176
     0
 40
1.0
176
     0
 90
        2
176
     1
  1
strokes_ogs.tif
176
     1
290
     0
176
     1
 40
1.0
176
     1
 40
1.0
176
     1
1001
ACAD
1000
AcDbSavedByObjectVersion
1070
     0
  0
VISUALSTYLE
  5
3B
102
{ACAD_REACTORS
330
29
102
}
330
29
100
AcDbVisualStyle
  2
Sketchy
 70
    24
177
     3
291
     0
 70
    58
 90
        1
176
     1
 90
        2
176
     1
 90
        2
176
     1
 90
        0
176
     1
 40
0.6
176
     1
 40
30.0
176
     1
 62
     7
420
 16777215
176
     1
 90
        2
176
     1
 90
        2
176
     1
 62
     7
176
     1
 62
     7
176
     1
 90
        1
176
     1
 90
        1
176
     1
 40
40.0
176
     1
 90
       11
176
     1
 62
     7
176
     1
 40
1.0
176
     1
 90
        1
176
     1
 90
        6
176
     1
 90
        2
176
     1
 62
     7
176
     1
 90
        6
176
     1
 90
        0
176
     1
 90
        0
176
     1
290
     0
176
     1
 90
        1
176
     1
 40
0.0
176
     1
 90
        0
176
     1
290
     0
176
     1
290
     1
176
     1
290
     1
176
     1
290
     0
176
     1
290
     0
176
     1
290
     0
176
     1
290
     0
176
     1
290
     0
176
     1
290
     0
176
     1
 90
       50
176
     1
 40
0.0
176
     1
 40
1.0
176
     1
 90
        0
176
     1
 62
    18
420
        0
176
     1
 90
       50
176
     1
 90
        3
176
     1
 62
     5
420
      255
176
     1
290
     0
176
     1
 90
       50
176
     1
 90
       50
176
     1
 90
       50
176
     1
290
     0
176
     1
 90
       50
176
     1
 62
   256
176
     0
 40
1.0
176
     0
 90
        2
176
     1
  1
strokes_ogs.tif
176
     1
290
     0
176
     1
 40
1.0
176
     1
 40
1.0
176
     1
1001
ACAD
1000
AcDbSavedByObjectVersion
1070
     0
  0
VISUALSTYLE
  5
36
102
{ACAD_REACTORS
330
29
102
}
330
29
100
AcDbVisualStyle
  2
Thicken
 70
    13
177
     3
291
     1
 70
    58
 90
        2
176
     1
 90
        2
176
     1
 90
        0
176
     1
 90
        0
176
     1
 40
0.6
176
     1
 40
30.0
176
     1
 62
     7
420
 16777215
176
     1
 90
        1
176
     1
 90
        4
176
     1
 62
     7
176
     1
 62
   257
176
     1
 90
        1
176
     1
 90
        1
176
     1
 40
1.0
176
     1
 90
       12
176
     1
 62
     7
176
     1
 40
1.0
176
     1
 90
        1
176
     1
 90
        6
176
     1
 90
        2
176
     1
 62
     7
176
     1
 90
        5
176
     1
 90
        0
176
     1
 90
        0
176
     1
290
     0
176
     1
 90
        1
176
     1
 40
0.0
176
     1
 90
        0
176
     1
290
     0
176
     1
290
     1
176
     1
290
     1
176
     1
290
     0
176
     1
290
     0
176
     1
290
     0
176
     1
290
     0
176
     1
290
     0
176
     1
290
     0
176
     1
 90
       50
176
     1
 40
0.0
176
     1
 40
1.0
176
     1
 90
        0
176
     1
 62
    18
420
        0
176
     1
 90
       50
176
     1
 90
        3
176
     1
 62
     5
420
      255
176
     1
290
     0
176
     1
 90
       50
176
     1
 90
       50
176
     1
 90
       50
176
     1
290
     0
176
     1
 90
       50
176
     1
 62
   256
176
     0
 40
1.0
176
     0
 90
        2
176
     1
  1
strokes_ogs.tif
176
     1
290
     0
176
     1
 40
1.0
176
     1
 40
1.0
176
     1
1001
ACAD
1000
AcDbSavedByObjectVersion
1070
     0
  0
VISUALSTYLE
  5
30
102
{ACAD_REACTORS
330
29
102
}
330
29
100
AcDbVisualStyle
  2
Wireframe
 70
     5
177
     3
291
     0
 70
    58
 90
        0
176
     1
 90
        2
176
     1
 90
        0
176
     1
 90
        0
176
     1
 40
0.6
176
     1
 40
30.0
176
     1
 62
     7
420
 16777215
176
     1
 90
        1
176
     1
 90
        4
176
     1
 62
     7
176
     1
 62
   257
176
     1
 90
        1
176
     1
 90
        1
176
     1
 40
1.0
176
     1
 90
        0
176
     1
 62
   257
176
     1
 40
1.0
176
     1
 90
        1
176
     1
 90
        6
176
     1
 90
        2
176
     1
 62
     7
176
     1
 90
        3
176
     1
 90
        0
176
     1
 90
        0
176
     1
290
     0
176
     1
 90
        1
176
     1
 40
0.0
176
     1
 90
        0
176
     1
290
     0
176
     1
290
     1
176
     1
290
     1
176
     1
290
     0
176
     1
290
     0
176
     1
290
     0
176
     1
290
     0
176
     1
290
     0
176
     1
290
     0
176
     1
 90
       50
176
     1
 40
0.0
176
     1
 40
1.0
176
     1
 90
        0
176
     1
 62
    18
420
        0
176
     1
 90
       50
176
     1
 90
        3
176
     1
 62
     5
420
      255
176
     1
290
     0
176
     1
 90
       50
176
     1
 90
       50
176
     1
 90
       50
176
     1
290
     0
176
     1
 90
       50
176
     1
 62
   256
176
     0
 40
1.0
176
     0
 90
        2
176
     1
  1
strokes_ogs.tif
176
     1
290
     0
176
     1
 40
1.0
176
     1
 40
1.0
176
     1
1001
ACAD
1000
AcDbSavedByObjectVersion
1070
     0
  0
VISUALSTYLE
  5
3C
102
{ACAD_REACTORS
330
29
102
}
330
29
100
AcDbVisualStyle
  2
X-Ray
 70
    25
177
     3
291
     0
 70
    58
 90
        2
176
     1
 90
        2
176
     1
 90
        1
176
     1
 90
        1
176
     1
 40
0.5
176
     1
 40
30.0
176
     1
 62
     7
420
 16777215
176
     1
 90
        1
176
     1
 90
        0
176
     1
 62
     7
176
     1
 62
   257
176
     1
 90
        1
176
     1
 90
        1
176
     1
 40
1.0
176
     1
 90
        8
176
     1
 62
     7
176
     1
 40
1.0
176
     1
 90
        1
176
     1
 90
        6
176
     1
 90
        2
176
     1
 62
     7
176
     1
 90
        3
176
     1
 90
        0
176
     1
 90
        0
176
     1
290
     0
176
     1
 90
       13
176
     1
 40
0.0
176
     1
 90
        0
176
     1
290
     0
176
     1
290
     1
176
     1
290
     1
176
     1
290
     0
176
     1
290
     0
176
     1
290
     0
176
     1
290
     0
176
     1
290
     0
176
     1
290
     0
176
     1
 90
       50
176
     1
 40
0.0
176
     1
 40
1.0
176
     1
 90
        0
176
     1
 62
    18
420
        0
176
     1
 90
       50
176
     1
 90
        3
176
     1
 62
     5
420
      255
176
     1
290
     0
176
     1
 90
       50
176
     1
 90
       50
176
     1
 90
       50
176
     1
290
     0
176
     1
 90
       50
176
     1
 62
   256
176
     0
 40
1.0
176
     0
 90
        2
176
     1
  1
strokes_ogs.tif
176
     1
290
     0
176
     1
 40
1.0
176
     1
 40
1.0
176
     1
1001
ACAD
1000
AcDbSavedByObjectVersion
1070
     0
  0
DICTIONARYVAR
  5
84
102
{ACAD_REACTORS
330
7F
102
}
330
7F
100
DictionaryVariables
280
     0
  1
1:1
  0
DICTIONARYVAR
  5
81
102
{ACAD_REACTORS
330
7F
102
}
330
7F
100
DictionaryVariables
280
     0
  1
STANDARD
  0
DICTIONARYVAR
  5
80
102
{ACAD_REACTORS
330
7F
102
}
330
7F
100
DictionaryVariables
280
     0
  1
STANDARD
  0
DICTIONARYVAR
  5
82
102
{ACAD_REACTORS
330
7F
102
}
330
7F
100
DictionaryVariables
280
     0
  1
Imperial24
  0
DICTIONARYVAR
  5
83
102
{ACAD_REACTORS
330
7F
102
}
330
7F
100
DictionaryVariables
280
     0
  1
Imperial24
  0
DICTIONARY
  5
8A
330
6B
100
AcDbDictionary
280
     1
281
     1
  3
ACAD_XREC_ROUNDTRIP
360
8B
  0
DICTIONARY
  5
1A
330
19
100
AcDbDictionary
280
     1
281
     1
  3
BUMPTILE
360
1C
  3
DIFFUSETILE
360
1B
  3
OPACITYTILE
360
1F
  3
REFLECTIONTILE
360
1E
  3
REFRACTIONTILE
360
20
  3
SPECULARTILE
360
1D
  0
DICTIONARY
  5
12
330
11
100
AcDbDictionary
280
     1
281
     1
  3
BUMPTILE
360
14
  3
DIFFUSETILE
360
13
  3
OPACITYTILE
360
17
  3
REFLECTIONTILE
360
16
  3
REFRACTIONTILE
360
18
  3
SPECULARTILE
360
15
  0
DICTIONARY
  5
22
330
21
100
AcDbDictionary
280
     1
281
     1
  3
BUMPTILE
360
24
  3
DIFFUSETILE
360
23
  3
OPACITYTILE
360
27
  3
REFLECTIONTILE
360
26
  3
REFRACTIONTILE
360
28
  3
SPECULARTILE
360
25
  0
DICTIONARY
  5
88
330
69
100
AcDbDictionary
280
     1
281
     1
  3
ACAD_XREC_ROUNDTRIP
360
89
  0
DICTIONARY
  5
85
330
65
100
AcDbDictionary
280
     1
281
     1
  3
ACAD_ROUNDTRIP_2008_TABLESTYLE_CELLSTYLEMAP
360
86
  0
XRECORD
  5
8B
102
{ACAD_REACTORS
330
8A
102
}
330
8A
100
AcDbXrecord
280
     1
102
DISPLAYNAME
  1
Imperial24
102
FLAGS
 90
        0
  0
XRECORD
  5
1C
102
{ACAD_REACTORS
330
1A
102
}
330
1A
100
AcDbXrecord
280
     1
270
     1
271
     1
  0
XRECORD
  5
1B
102
{ACAD_REACTORS
330
1A
102
}
330
1A
100
AcDbXrecord
280
     1
270
     1
271
     1
  0
XRECORD
  5
1F
102
{ACAD_REACTORS
330
1A
102
}
330
1A
100
AcDbXrecord
280
     1
270
     1
271
     1
  0
XRECORD
  5
1E
102
{ACAD_REACTORS
330
1A
102
}
330
1A
100
AcDbXrecord
280
     1
270
     1
271
     1
  0
XRECORD
  5
20
102
{ACAD_REACTORS
330
1A
102
}
330
1A
100
AcDbXrecord
280
     1
270
     1
271
     1
  0
XRECORD
  5
1D
102
{ACAD_REACTORS
330
1A
102
}
330
1A
100
AcDbXrecord
280
     1
270
     1
271
     1
  0
XRECORD
  5
14
102
{ACAD_REACTORS
330
12
102
}
330
12
100
AcDbXrecord
280
     1
270
     1
271
     1
  0
XRECORD
  5
13
102
{ACAD_REACTORS
330
12
102
}
330
12
100
AcDbXrecord
280
     1
270
     1
271
     1
  0
XRECORD
  5
17
102
{ACAD_REACTORS
330
12
102
}
330
12
100
AcDbXrecord
280
     1
270
     1
271
     1
  0
XRECORD
  5
16
102
{ACAD_REACTORS
330
12
102
}
330
12
100
AcDbXrecord
280
     1
270
     1
271
     1
  0
XRECORD
  5
18
102
{ACAD_REACTORS
330
12
102
}
330
12
100
AcDbXrecord
280
     1
270
     1
271
     1
  0
XRECORD
  5
15
102
{ACAD_REACTORS
330
12
102
}
330
12
100
AcDbXrecord
280
     1
270
     1
271
     1
  0
XRECORD
  5
24
102
{ACAD_REACTORS
330
22
102
}
330
22
100
AcDbXrecord
280
     1
270
     1
271
     1
  0
XRECORD
  5
23
102
{ACAD_REACTORS
330
22
102
}
330
22
100
AcDbXrecord
280
     1
270
     1
271
     1
  0
XRECORD
  5
27
102
{ACAD_REACTORS
330
22
102
}
330
22
100
AcDbXrecord
280
     1
270
     1
271
     1
  0
XRECORD
  5
26
102
{ACAD_REACTORS
330
22
102
}
330
22
100
AcDbXrecord
280
     1
270
     1
271
     1
  0
XRECORD
  5
28
102
{ACAD_REACTORS
330
22
102
}
330
22
100
AcDbXrecord
280
     1
270
     1
271
     1
  0
XRECORD
  5
25
102
{ACAD_REACTORS
330
22
102
}
330
22
100
AcDbXrecord
280
     1
270
     1
271
     1
  0
XRECORD
  5
89
102
{ACAD_REACTORS
330
88
102
}
330
88
100
AcDbXrecord
280
     1
102
DISPLAYNAME
  1
Imperial24
102
FLAGS
 90
        0
  0
CELLSTYLEMAP
  5
86
102
{ACAD_REACTORS
330
85
102
}
330
85
100
AcDbCellStyleMap
 90
        3
300
CELLSTYLE
  1
TABLEFORMAT_BEGIN
 90
        5
170
     1
 91
        0
 92
    32768
 62
   257
 93
        1
300
CONTENTFORMAT
  1
CONTENTFORMAT_BEGIN
 90
        0
 91
        0
 92
      512
 93
        0
300

 40
0.0
140
1.0
 94
        5
 62
     0
340
55
144
0.25
309
CONTENTFORMAT_END
171
     0
 94
        0
309
TABLEFORMAT_END
  1
CELLSTYLE_BEGIN
 90
        1
 91
        1
300
_TITLE
309
CELLSTYLE_END
300
CELLSTYLE
  1
TABLEFORMAT_BEGIN
 90
        5
170
     1
 91
        0
 92
        0
 62
   257
 93
        1
300
CONTENTFORMAT
  1
CONTENTFORMAT_BEGIN
 90
        0
 91
        0
 92
      512
 93
        0
300

 40
0.0
140
1.0
 94
        5
 62
     0
340
55
144
0.18
309
CONTENTFORMAT_END
171
     0
 94
        0
309
TABLEFORMAT_END
  1
CELLSTYLE_BEGIN
 90
        2
 91
        1
300
_HEADER
309
CELLSTYLE_END
300
CELLSTYLE
  1
TABLEFORMAT_BEGIN
 90
        5
170
     1
 91
        0
 92
        0
 62
   257
 93
        1
300
CONTENTFORMAT
  1
CONTENTFORMAT_BEGIN
 90
        0
 91
        0
 92
      512
 93
        0
300

 40
0.0
140
1.0
 94
        2
 62
     0
340
55
144
0.18
309
CONTENTFORMAT_END
171
     0
 94
        0
309
TABLEFORMAT_END
  1
CELLSTYLE_BEGIN
 90
        3
 91
        2
300
_DATA
309
CELLSTYLE_END
  0
ENDSEC
  0
EOF
