  0
SECTION
  2
HEADER
  9
$ACADVER
  1
AC1027
  9
$ACADMAINTVER
 70
   125
  9
$DWGCODEPAGE
  3
ANSI_1252
  9
$REQUIREDVERSIONS
160
                 0
  9
$INSBASE
 10
0.0
 20
0.0
 30
0.0
  9
$EXTMIN
 10
1.000000000000000E+20
 20
1.000000000000000E+20
 30
1.000000000000000E+20
  9
$EXTMAX
 10
-1.000000000000000E+20
 20
-1.000000000000000E+20
 30
-1.000000000000000E+20
  9
$LIMMIN
 10
0.0
 20
0.0
  9
$LIMMAX
 10
12.0
 20
9.0
  9
$ORTHOMODE
 70
     0
  9
$REGENMODE
 70
     1
  9
$FILLMODE
 70
     1
  9
$QTEXTMODE
 70
     0
  9
$MIRRTEXT
 70
     0
  9
$LTSCALE
 40
1.0
  9
$ATTMODE
 70
     1
  9
$TEXTSIZE
 40
0.2
  9
$TRACEWID
 40
0.05
  9
$TEXTSTYLE
  7
Standard
  9
$CLAYER
  8
0
  9
$CELTYPE
  6
ByLayer
  9
$CECOLOR
 62
   256
  9
$CELTSCALE
 40
1.0
  9
$DISPSILH
 70
     0
  9
$DIMSCALE
 40
1.0
  9
$DIMASZ
 40
0.18
  9
$DIMEXO
 40
0.0625
  9
$DIMDLI
 40
0.38
  9
$DIMRND
 40
0.0
  9
$DIMDLE
 40
0.0
  9
$DIMEXE
 40
0.18
  9
$DIMTP
 40
0.0
  9
$DIMTM
 40
0.0
  9
$DIMTXT
 40
0.18
  9
$DIMCEN
 40
0.09
  9
$DIMTSZ
 40
0.0
  9
$DIMTOL
 70
     0
  9
$DIMLIM
 70
     0
  9
$DIMTIH
 70
     1
  9
$DIMTOH
 70
     1
  9
$DIMSE1
 70
     0
  9
$DIMSE2
 70
     0
  9
$DIMTAD
 70
     0
  9
$DIMZIN
 70
     0
  9
$DIMBLK
  1

  9
$DIMASO
 70
     1
  9
$DIMSHO
 70
     1
  9
$DIMPOST
  1

  9
$DIMAPOST
  1

  9
$DIMALT
 70
     0
  9
$DIMALTD
 70
     2
  9
$DIMALTF
 40
25.4
  9
$DIMLFAC
 40
1.0
  9
$DIMTOFL
 70
     0
  9
$DIMTVP
 40
0.0
  9
$DIMTIX
 70
     0
  9
$DIMSOXD
 70
     0
  9
$DIMSAH
 70
     0
  9
$DIMBLK1
  1

  9
$DIMBLK2
  1

  9
$DIMSTYLE
  2
Standard
  9
$DIMCLRD
 70
     0
  9
$DIMCLRE
 70
     0
  9
$DIMCLRT
 70
     0
  9
$DIMTFAC
 40
1.0
  9
$DIMGAP
 40
0.09
  9
$DIMJUST
 70
     0
  9
$DIMSD1
 70
     0
  9
$DIMSD2
 70
     0
  9
$DIMTOLJ
 70
     1
  9
$DIMTZIN
 70
     0
  9
$DIMALTZ
 70
     0
  9
$DIMALTTZ
 70
     0
  9
$DIMUPT
 70
     0
  9
$DIMDEC
 70
     4
  9
$DIMTDEC
 70
     4
  9
$DIMALTU
 70
     2
  9
$DIMALTTD
 70
     2
  9
$DIMTXSTY
  7
Standard
  9
$DIMAUNIT
 70
     0
  9
$DIMADEC
 70
     0
  9
$DIMALTRND
 40
0.0
  9
$DIMAZIN
 70
     0
  9
$DIMDSEP
 70
    46
  9
$DIMATFIT
 70
     3
  9
$DIMFRAC
 70
     0
  9
$DIMLDRBLK
  1

  9
$DIMLUNIT
 70
     2
  9
$DIMLWD
 70
    -2
  9
$DIMLWE
 70
    -2
  9
$DIMTMOVE
 70
     0
  9
$DIMFXL
 40
1.0
  9
$DIMFXLON
 70
     0
  9
$DIMJOGANG
 40
0.7853981633974483
  9
$DIMTFILL
 70
     0
  9
$DIMTFILLCLR
 70
     0
  9
$DIMARCSYM
 70
     0
  9
$DIMLTYPE
  6

  9
$DIMLTEX1
  6

  9
$DIMLTEX2
  6

  9
$DIMTXTDIRECTION
 70
     0
  9
$LUNITS
 70
     2
  9
$LUPREC
 70
     4
  9
$SKETCHINC
 40
0.1
  9
$FILLETRAD
 40
0.0
  9
$AUNITS
 70
     0
  9
$AUPREC
 70
     0
  9
$MENU
  1
.
  9
$ELEVATION
 40
0.0
  9
$PELEVATION
 40
0.0
  9
$THICKNESS
 40
0.0
  9
$LIMCHECK
 70
     0
  9
$CHAMFERA
 40
0.0
  9
$CHAMFERB
 40
0.0
  9
$CHAMFERC
 40
0.0
  9
$CHAMFERD
 40
0.0
  9
$SKPOLY
 70
     0
  9
$TDCREATE
 40
2459734.952245371
  9
$TDUCREATE
 40
2459734.535578704
  9
$TDUPDATE
 40
2459734.952245371
  9
$TDUUPDATE
 40
2459734.535578704
  9
$TDINDWG
 40
0.0000000000
  9
$TDUSRTIMER
 40
0.0000000000
  9
$USRTIMER
 70
     1
  9
$ANGBASE
 50
0.0
  9
$ANGDIR
 70
     0
  9
$PDMODE
 70
     0
  9
$PDSIZE
 40
0.0
  9
$PLINEWID
 40
0.0
  9
$SPLFRAME
 70
     0
  9
$SPLINETYPE
 70
     6
  9
$SPLINESEGS
 70
     8
  9
$HANDSEED
  5
97
  9
$SURFTAB1
 70
     6
  9
$SURFTAB2
 70
     6
  9
$SURFTYPE
 70
     6
  9
$SURFU
 70
     6
  9
$SURFV
 70
     6
  9
$UCSBASE
  2

  9
$UCSNAME
  2

  9
$UCSORG
 10
0.0
 20
0.0
 30
0.0
  9
$UCSXDIR
 10
1.0
 20
0.0
 30
0.0
  9
$UCSYDIR
 10
0.0
 20
1.0
 30
0.0
  9
$UCSORTHOREF
  2

  9
$UCSORTHOVIEW
 70
     0
  9
$UCSORGTOP
 10
0.0
 20
0.0
 30
0.0
  9
$UCSORGBOTTOM
 10
0.0
 20
0.0
 30
0.0
  9
$UCSORGLEFT
 10
0.0
 20
0.0
 30
0.0
  9
$UCSORGRIGHT
 10
0.0
 20
0.0
 30
0.0
  9
$UCSORGFRONT
 10
0.0
 20
0.0
 30
0.0
  9
$UCSORGBACK
 10
0.0
 20
0.0
 30
0.0
  9
$PUCSBASE
  2

  9
$PUCSNAME
  2

  9
$PUCSORG
 10
0.0
 20
0.0
 30
0.0
  9
$PUCSXDIR
 10
1.0
 20
0.0
 30
0.0
  9
$PUCSYDIR
 10
0.0
 20
1.0
 30
0.0
  9
$PUCSORTHOREF
  2

  9
$PUCSORTHOVIEW
 70
     0
  9
$PUCSORGTOP
 10
0.0
 20
0.0
 30
0.0
  9
$PUCSORGBOTTOM
 10
0.0
 20
0.0
 30
0.0
  9
$PUCSORGLEFT
 10
0.0
 20
0.0
 30
0.0
  9
$PUCSORGRIGHT
 10
0.0
 20
0.0
 30
0.0
  9
$PUCSORGFRONT
 10
0.0
 20
0.0
 30
0.0
  9
$PUCSORGBACK
 10
0.0
 20
0.0
 30
0.0
  9
$USERI1
 70
     0
  9
$USERI2
 70
     0
  9
$USERI3
 70
     0
  9
$USERI4
 70
     0
  9
$USERI5
 70
     0
  9
$USERR1
 40
0.0
  9
$USERR2
 40
0.0
  9
$USERR3
 40
0.0
  9
$USERR4
 40
0.0
  9
$USERR5
 40
0.0
  9
$WORLDVIEW
 70
     1
  9
$SHADEDGE
 70
     3
  9
$SHADEDIF
 70
    70
  9
$TILEMODE
 70
     1
  9
$MAXACTVP
 70
    64
  9
$PINSBASE
 10
0.0
 20
0.0
 30
0.0
  9
$PLIMCHECK
 70
     0
  9
$PEXTMIN
 10
1.000000000000000E+20
 20
1.000000000000000E+20
 30
1.000000000000000E+20
  9
$PEXTMAX
 10
-1.000000000000000E+20
 20
-1.000000000000000E+20
 30
-1.000000000000000E+20
  9
$PLIMMIN
 10
0.0
 20
0.0
  9
$PLIMMAX
 10
12.0
 20
9.0
  9
$UNITMODE
 70
     0
  9
$VISRETAIN
 70
     1
  9
$PLINEGEN
 70
     0
  9
$PSLTSCALE
 70
     1
  9
$TREEDEPTH
 70
  3020
  9
$CMLSTYLE
  2
Standard
  9
$CMLJUST
 70
     0
  9
$CMLSCALE
 40
1.0
  9
$PROXYGRAPHICS
 70
     1
  9
$MEASUREMENT
 70
     0
  9
$CELWEIGHT
370
    -1
  9
$ENDCAPS
280
     0
  9
$JOINSTYLE
280
     0
  9
$LWDISPLAY
290
     1
  9
$INSUNITS
 70
     4
  9
$HYPERLINKBASE
  1

  9
$STYLESHEET
  1

  9
$XEDIT
290
     1
  9
$CEPSNTYPE
380
     0
  9
$PSTYLEMODE
290
     1
  9
$FINGERPRINTGUID
  2
{896C5E65-ED6C-824B-86F5-67AE0E7C6623}
  9
$VERSIONGUID
  2
{1A1161D3-C36A-DA4F-AFB4-C511EBD14386}
  9
$EXTNAMES
290
     1
  9
$PSVPSCALE
 40
0.0
  9
$OLESTARTUP
290
     0
  9
$SORTENTS
280
   127
  9
$INDEXCTL
280
     0
  9
$HIDETEXT
280
     1
  9
$XCLIPFRAME
280
     2
  9
$HALOGAP
280
     0
  9
$OBSCOLOR
 70
   257
  9
$OBSLTYPE
280
     0
  9
$INTERSECTIONDISPLAY
280
     0
  9
$INTERSECTIONCOLOR
 70
   257
  9
$DIMASSOC
280
     2
  9
$PROJECTNAME
  1

  9
$CAMERADISPLAY
290
     0
  9
$LENSLENGTH
 40
50.0
  9
$CAMERAHEIGHT
 40
0.0
  9
$STEPSPERSEC
 40
2.0
  9
$STEPSIZE
 40
6.0
  9
$3DDWFPREC
 40
2.0
  9
$PSOLWIDTH
 40
0.25
  9
$PSOLHEIGHT
 40
4.0
  9
$LOFTANG1
 40
1.570796326794896
  9
$LOFTANG2
 40
1.570796326794896
  9
$LOFTMAG1
 40
0.0
  9
$LOFTMAG2
 40
0.0
  9
$LOFTPARAM
 70
     7
  9
$LOFTNORMALS
280
     1
  9
$LATITUDE
 40
37.795
  9
$LONGITUDE
 40
-122.394
  9
$NORTHDIRECTION
 40
0.0
  9
$TIMEZONE
 70
 -8000
  9
$LIGHTGLYPHDISPLAY
280
     1
  9
$TILEMODELIGHTSYNCH
280
     1
  9
$CMATERIAL
347
11
  9
$SOLIDHIST
280
     0
  9
$SHOWHIST
280
     1
  9
$DWFFRAME
280
     2
  9
$DGNFRAME
280
     0
  9
$REALWORLDSCALE
290
     1
  9
$INTERFERECOLOR
 62
     1
  9
$INTERFEREOBJVS
345
33
  9
$INTERFEREVPVS
346
30
  9
$CSHADOW
280
     0
  9
$SHADOWPLANELOCATION
 40
0.0
  0
ENDSEC
  0
SECTION
  2
CLASSES
  0
CLASS
  1
ACDBDICTIONARYWDFLT
  2
AcDbDictionaryWithDefault
  3
ObjectDBX Classes
 90
        0
 91
        1
280
     0
281
     0
  0
CLASS
  1
MATERIAL
  2
AcDbMaterial
  3
ObjectDBX Classes
 90
     1153
 91
        3
280
     0
281
     0
  0
CLASS
  1
VISUALSTYLE
  2
AcDbVisualStyle
  3
ObjectDBX Classes
 90
     4095
 91
       24
280
     0
281
     0
  0
CLASS
  1
SCALE
  2
AcDbScale
  3
ObjectDBX Classes
 90
     1153
 91
       17
280
     0
281
     0
  0
CLASS
  1
TABLESTYLE
  2
AcDbTableStyle
  3
ObjectDBX Classes
 90
     4095
 91
        1
280
     0
281
     0
  0
CLASS
  1
MLEADERSTYLE
  2
AcDbMLeaderStyle
  3
ACDB_MLEADERSTYLE_CLASS
 90
     4095
 91
        1
280
     0
281
     0
  0
CLASS
  1
ACDBSECTIONVIEWSTYLE
  2
AcDbSectionViewStyle
  3
ObjectDBX Classes
 90
     1025
 91
        1
280
     0
281
     0
  0
CLASS
  1
ACDBDETAILVIEWSTYLE
  2
AcDbDetailViewStyle
  3
ObjectDBX Classes
 90
     1025
 91
        1
280
     0
281
     0
  0
CLASS
  1
DICTIONARYVAR
  2
AcDbDictionaryVar
  3
ObjectDBX Classes
 90
        0
 91
        5
280
     0
281
     0
  0
CLASS
  1
CELLSTYLEMAP
  2
AcDbCellStyleMap
  3
ObjectDBX Classes
 90
     1152
 91
        1
280
     0
281
     0
  0
ENDSEC
  0
SECTION
  2
TABLES
  0
TABLE
  2
VPORT
  5
8
330
0
100
AcDbSymbolTable
 70
     1
1001
ACAD
1000
DbSaveVer
1071
      247
  0
VPORT
  5
57
330
8
100
AcDbSymbolTableRecord
100
AcDbViewportTableRecord
  2
*Active
 70
     0
 10
0.0
 20
0.0
 11
1.0
 21
1.0
 12
0.0
 22
0.0
 13
0.0
 23
0.0
 14
1.0
 24
1.0
 15
0.0
 25
0.0
 16
0.0
 26
0.0
 36
1.0
 17
-111.9583333053439
 27
3.302777776952218
 37
0.0
 40
214.1999999464498
 41
0.9999999999999998
 42
50.0
 43
0.0
 44
0.0
 50
0.0
 51
0.0
 71
     0
 72
   100
 73
     1
 74
     1
 75
     0
 76
     0
 77
     0
 78
     0
281
     0
 65
     1
110
0.0
120
0.0
130
0.0
111
1.0
121
0.0
131
0.0
112
0.0
122
1.0
132
0.0
 79
     0
146
0.0
 60
     3
 61
     5
292
     1
282
     1
141
0.0
142
0.0
 63
   250
421
  3355443
  0
ENDTAB
  0
TABLE
  2
LTYPE
  5
5
330
0
100
AcDbSymbolTable
 70
     1
  0
LTYPE
  5
5B
330
5
100
AcDbSymbolTableRecord
100
AcDbLinetypeTableRecord
  2
ByBlock
 70
     0
  3

 72
    65
 73
     0
 40
0.0
  0
LTYPE
  5
5C
330
5
100
AcDbSymbolTableRecord
100
AcDbLinetypeTableRecord
  2
ByLayer
 70
     0
  3

 72
    65
 73
     0
 40
0.0
  0
LTYPE
  5
5D
330
5
100
AcDbSymbolTableRecord
100
AcDbLinetypeTableRecord
  2
Continuous
 70
     0
  3
Solid line
 72
    65
 73
     0
 40
0.0
  0
ENDTAB
  0
TABLE
  2
LAYER
  5
2
330
0
100
AcDbSymbolTable
 70
     2
  0
LAYER
  5
54
330
2
100
AcDbSymbolTableRecord
100
AcDbLayerTableRecord
  2
0
 70
     0
 62
     7
  6
Continuous
370
    -3
390
F
347
21
348
0
  0
LAYER
  5
78
330
2
100
AcDbSymbolTableRecord
100
AcDbLayerTableRecord
  2
Layer 1
 70
     0
 62
     7
  6
Continuous
370
     0
390
F
347
21
348
0
  0
ENDTAB
  0
TABLE
  2
STYLE
  5
3
330
0
100
AcDbSymbolTable
 70
     2
  0
STYLE
  5
55
330
3
100
AcDbSymbolTableRecord
100
AcDbTextStyleTableRecord
  2
Standard
 70
     0
 40
0.0
 41
1.0
 50
0.0
 71
     0
 42
0.2
  3
txt
  4

  0
STYLE
  5
5A
330
3
100
AcDbSymbolTableRecord
100
AcDbTextStyleTableRecord
  2
Annotative
 70
     0
 40
0.0
 41
1.0
 50
0.0
 71
     0
 42
0.2
  3
txt
  4

1001
AcadAnnotative
1000
AnnotativeData
1002
{
1070
     1
1070
     1
1002
}
  0
ENDTAB
  0
TABLE
  2
VIEW
  5
6
330
0
100
AcDbSymbolTable
 70
     0
  0
ENDTAB
  0
TABLE
  2
UCS
  5
7
330
0
100
AcDbSymbolTable
 70
     0
  0
ENDTAB
  0
TABLE
  2
APPID
  5
9
330
0
100
AcDbSymbolTable
 70
     2
  0
APPID
  5
56
330
9
100
AcDbSymbolTableRecord
100
AcDbRegAppTableRecord
  2
ACAD
 70
     0
  0
APPID
  5
5E
330
9
100
AcDbSymbolTableRecord
100
AcDbRegAppTableRecord
  2
AcadAnnotative
 70
     0
  0
ENDTAB
  0
TABLE
  2
DIMSTYLE
  5
A
330
0
100
AcDbSymbolTable
 70
     2
100
AcDbDimStyleTable
 71
     0
  0
DIMSTYLE
105
58
330
A
100
AcDbSymbolTableRecord
100
AcDbDimStyleTableRecord
  2
Standard
 70
     0
340
55
  0
DIMSTYLE
105
59
330
A
100
AcDbSymbolTableRecord
100
AcDbDimStyleTableRecord
  2
Annotative
 70
     0
340
55
1001
AcadAnnotative
1000
AnnotativeData
1002
{
1070
     1
1070
     1
1002
}
  0
ENDTAB
  0
TABLE
  2
BLOCK_RECORD
  5
1
330
0
100
AcDbSymbolTable
 70
     2
  0
BLOCK_RECORD
  5
70
330
1
100
AcDbSymbolTableRecord
100
AcDbBlockTableRecord
  2
*Model_Space
340
73
 70
     0
280
     1
281
     0
  0
BLOCK_RECORD
  5
6C
330
1
100
AcDbSymbolTableRecord
100
AcDbBlockTableRecord
  2
*Paper_Space
340
6F
 70
     0
280
     1
281
     0
  0
BLOCK_RECORD
  5
74
330
1
100
AcDbSymbolTableRecord
100
AcDbBlockTableRecord
  2
*Paper_Space0
340
77
 70
     0
280
     1
281
     0
  0
BLOCK_RECORD
  5
79
330
1
100
AcDbSymbolTableRecord
100
AcDbBlockTableRecord
  2
Block_0
340
0
102
{BLKREFS
331
7A
102
}
 70
     0
280
     1
281
     0
  0
ENDTAB
  0
ENDSEC
  0
SECTION
  2
BLOCKS
  0
BLOCK
  5
71
330
70
100
AcDbEntity
  8
0
100
AcDbBlockBegin
  2
*Model_Space
 70
     0
 10
0.0
 20
0.0
 30
0.0
  3
*Model_Space
  1

  0
ENDBLK
  5
72
330
70
100
AcDbEntity
  8
0
100
AcDbBlockEnd
  0
BLOCK
  5
6D
330
6C
100
AcDbEntity
 67
     1
  8
0
100
AcDbBlockBegin
  2
*Paper_Space
 70
     0
 10
0.0
 20
0.0
 30
0.0
  3
*Paper_Space
  1

  0
ENDBLK
  5
6E
330
6C
100
AcDbEntity
 67
     1
  8
0
100
AcDbBlockEnd
  0
BLOCK
  5
75
330
74
100
AcDbEntity
 67
     1
  8
0
100
AcDbBlockBegin
  2
*Paper_Space0
 70
     0
 10
0.0
 20
0.0
 30
0.0
  3
*Paper_Space0
  1

  0
ENDBLK
  5
76
330
74
100
AcDbEntity
 67
     1
  8
0
100
AcDbBlockEnd
  0
BLOCK
  5
7B
330
79
100
AcDbEntity
  8
0
100
AcDbBlockBegin
  2
Block_0
 70
     0
 10
0.0
 20
0.0
 30
0.0
  3
Block_0
  1

  0
SPLINE
  5
7D
330
79
100
AcDbEntity
  8
Layer 1
100
AcDbSpline
210
0.0
220
0.0
230
1.0
 70
     9
 71
     3
 72
   581
 73
   577
 74
     0
 42
0.0000000001
 43
0.0000000001
 40
0.0
 40
0.0
 40
0.0
 40
0.0
 40
1.0
 40
1.0
 40
1.0
 40
2.0
 40
2.0
 40
2.0
 40
3.0
 40
3.0
 40
3.0
 40
4.0
 40
4.0
 40
4.0
 40
5.0
 40
5.0
 40
5.0
 40
6.0
 40
6.0
 40
6.0
 40
7.0
 40
7.0
 40
7.0
 40
8.0
 40
8.0
 40
8.0
 40
9.0
 40
9.0
 40
9.0
 40
10.0
 40
10.0
 40
10.0
 40
11.0
 40
11.0
 40
11.0
 40
12.0
 40
12.0
 40
12.0
 40
13.0
 40
13.0
 40
13.0
 40
14.0
 40
14.0
 40
14.0
 40
15.0
 40
15.0
 40
15.0
 40
16.0
 40
16.0
 40
16.0
 40
17.0
 40
17.0
 40
17.0
 40
18.0
 40
18.0
 40
18.0
 40
19.0
 40
19.0
 40
19.0
 40
20.0
 40
20.0
 40
20.0
 40
21.0
 40
21.0
 40
21.0
 40
22.0
 40
22.0
 40
22.0
 40
23.0
 40
23.0
 40
23.0
 40
24.0
 40
24.0
 40
24.0
 40
25.0
 40
25.0
 40
25.0
 40
26.0
 40
26.0
 40
26.0
 40
27.0
 40
27.0
 40
27.0
 40
28.0
 40
28.0
 40
28.0
 40
29.0
 40
29.0
 40
29.0
 40
30.0
 40
30.0
 40
30.0
 40
31.0
 40
31.0
 40
31.0
 40
32.0
 40
32.0
 40
32.0
 40
33.0
 40
33.0
 40
33.0
 40
34.0
 40
34.0
 40
34.0
 40
35.0
 40
35.0
 40
35.0
 40
36.0
 40
36.0
 40
36.0
 40
37.0
 40
37.0
 40
37.0
 40
38.0
 40
38.0
 40
38.0
 40
39.0
 40
39.0
 40
39.0
 40
40.0
 40
40.0
 40
40.0
 40
41.0
 40
41.0
 40
41.0
 40
42.0
 40
42.0
 40
42.0
 40
43.0
 40
43.0
 40
43.0
 40
44.0
 40
44.0
 40
44.0
 40
45.0
 40
45.0
 40
45.0
 40
46.0
 40
46.0
 40
46.0
 40
47.0
 40
47.0
 40
47.0
 40
48.0
 40
48.0
 40
48.0
 40
49.0
 40
49.0
 40
49.0
 40
50.0
 40
50.0
 40
50.0
 40
51.0
 40
51.0
 40
51.0
 40
52.0
 40
52.0
 40
52.0
 40
53.0
 40
53.0
 40
53.0
 40
54.0
 40
54.0
 40
54.0
 40
55.0
 40
55.0
 40
55.0
 40
56.0
 40
56.0
 40
56.0
 40
57.0
 40
57.0
 40
57.0
 40
58.0
 40
58.0
 40
58.0
 40
59.0
 40
59.0
 40
59.0
 40
60.0
 40
60.0
 40
60.0
 40
61.0
 40
61.0
 40
61.0
 40
62.0
 40
62.0
 40
62.0
 40
63.0
 40
63.0
 40
63.0
 40
64.0
 40
64.0
 40
64.0
 40
65.0
 40
65.0
 40
65.0
 40
66.0
 40
66.0
 40
66.0
 40
67.0
 40
67.0
 40
67.0
 40
68.0
 40
68.0
 40
68.0
 40
69.0
 40
69.0
 40
69.0
 40
70.0
 40
70.0
 40
70.0
 40
71.0
 40
71.0
 40
71.0
 40
72.0
 40
72.0
 40
72.0
 40
73.0
 40
73.0
 40
73.0
 40
74.0
 40
74.0
 40
74.0
 40
75.0
 40
75.0
 40
75.0
 40
76.0
 40
76.0
 40
76.0
 40
77.0
 40
77.0
 40
77.0
 40
78.0
 40
78.0
 40
78.0
 40
79.0
 40
79.0
 40
79.0
 40
80.0
 40
80.0
 40
80.0
 40
81.0
 40
81.0
 40
81.0
 40
82.0
 40
82.0
 40
82.0
 40
83.0
 40
83.0
 40
83.0
 40
84.0
 40
84.0
 40
84.0
 40
85.0
 40
85.0
 40
85.0
 40
86.0
 40
86.0
 40
86.0
 40
87.0
 40
87.0
 40
87.0
 40
88.0
 40
88.0
 40
88.0
 40
89.0
 40
89.0
 40
89.0
 40
90.0
 40
90.0
 40
90.0
 40
91.0
 40
91.0
 40
91.0
 40
92.0
 40
92.0
 40
92.0
 40
93.0
 40
93.0
 40
93.0
 40
94.0
 40
94.0
 40
94.0
 40
95.0
 40
95.0
 40
95.0
 40
96.0
 40
96.0
 40
96.0
 40
97.0
 40
97.0
 40
97.0
 40
98.0
 40
98.0
 40
98.0
 40
99.0
 40
99.0
 40
99.0
 40
100.0
 40
100.0
 40
100.0
 40
101.0
 40
101.0
 40
101.0
 40
102.0
 40
102.0
 40
102.0
 40
103.0
 40
103.0
 40
103.0
 40
104.0
 40
104.0
 40
104.0
 40
105.0
 40
105.0
 40
105.0
 40
106.0
 40
106.0
 40
106.0
 40
107.0
 40
107.0
 40
107.0
 40
108.0
 40
108.0
 40
108.0
 40
109.0
 40
109.0
 40
109.0
 40
110.0
 40
110.0
 40
110.0
 40
111.0
 40
111.0
 40
111.0
 40
112.0
 40
112.0
 40
112.0
 40
113.0
 40
113.0
 40
113.0
 40
114.0
 40
114.0
 40
114.0
 40
115.0
 40
115.0
 40
115.0
 40
116.0
 40
116.0
 40
116.0
 40
117.0
 40
117.0
 40
117.0
 40
118.0
 40
118.0
 40
118.0
 40
119.0
 40
119.0
 40
119.0
 40
120.0
 40
120.0
 40
120.0
 40
121.0
 40
121.0
 40
121.0
 40
122.0
 40
122.0
 40
122.0
 40
123.0
 40
123.0
 40
123.0
 40
124.0
 40
124.0
 40
124.0
 40
125.0
 40
125.0
 40
125.0
 40
126.0
 40
126.0
 40
126.0
 40
127.0
 40
127.0
 40
127.0
 40
128.0
 40
128.0
 40
128.0
 40
129.0
 40
129.0
 40
129.0
 40
130.0
 40
130.0
 40
130.0
 40
131.0
 40
131.0
 40
131.0
 40
132.0
 40
132.0
 40
132.0
 40
133.0
 40
133.0
 40
133.0
 40
134.0
 40
134.0
 40
134.0
 40
135.0
 40
135.0
 40
135.0
 40
136.0
 40
136.0
 40
136.0
 40
137.0
 40
137.0
 40
137.0
 40
138.0
 40
138.0
 40
138.0
 40
139.0
 40
139.0
 40
139.0
 40
140.0
 40
140.0
 40
140.0
 40
141.0
 40
141.0
 40
141.0
 40
142.0
 40
142.0
 40
142.0
 40
143.0
 40
143.0
 40
143.0
 40
144.0
 40
144.0
 40
144.0
 40
145.0
 40
145.0
 40
145.0
 40
146.0
 40
146.0
 40
146.0
 40
147.0
 40
147.0
 40
147.0
 40
148.0
 40
148.0
 40
148.0
 40
149.0
 40
149.0
 40
149.0
 40
150.0
 40
150.0
 40
150.0
 40
151.0
 40
151.0
 40
151.0
 40
152.0
 40
152.0
 40
152.0
 40
153.0
 40
153.0
 40
153.0
 40
154.0
 40
154.0
 40
154.0
 40
155.0
 40
155.0
 40
155.0
 40
156.0
 40
156.0
 40
156.0
 40
157.0
 40
157.0
 40
157.0
 40
158.0
 40
158.0
 40
158.0
 40
159.0
 40
159.0
 40
159.0
 40
160.0
 40
160.0
 40
160.0
 40
161.0
 40
161.0
 40
161.0
 40
162.0
 40
162.0
 40
162.0
 40
163.0
 40
163.0
 40
163.0
 40
164.0
 40
164.0
 40
164.0
 40
165.0
 40
165.0
 40
165.0
 40
166.0
 40
166.0
 40
166.0
 40
167.0
 40
167.0
 40
167.0
 40
168.0
 40
168.0
 40
168.0
 40
169.0
 40
169.0
 40
169.0
 40
170.0
 40
170.0
 40
170.0
 40
171.0
 40
171.0
 40
171.0
 40
172.0
 40
172.0
 40
172.0
 40
173.0
 40
173.0
 40
173.0
 40
174.0
 40
174.0
 40
174.0
 40
175.0
 40
175.0
 40
175.0
 40
176.0
 40
176.0
 40
176.0
 40
177.0
 40
177.0
 40
177.0
 40
178.0
 40
178.0
 40
178.0
 40
179.0
 40
179.0
 40
179.0
 40
180.0
 40
180.0
 40
180.0
 40
181.0
 40
181.0
 40
181.0
 40
182.0
 40
182.0
 40
182.0
 40
183.0
 40
183.0
 40
183.0
 40
184.0
 40
184.0
 40
184.0
 40
185.0
 40
185.0
 40
185.0
 40
186.0
 40
186.0
 40
186.0
 40
187.0
 40
187.0
 40
187.0
 40
188.0
 40
188.0
 40
188.0
 40
189.0
 40
189.0
 40
189.0
 40
190.0
 40
190.0
 40
190.0
 40
191.0
 40
191.0
 40
191.0
 40
192.0
 40
192.0
 40
192.0
 40
192.0
 10
-73.77591807944003
 20
-31.01987989423471
 30
0.0
 10
-74.72689191791783
 20
-32.73500971932219
 30
0.0
 10
-76.07800166399643
 20
-33.3137787505998
 30
0.0
 10
-77.29208875769346
 20
-33.42693404874798
 30
0.0
 10
-77.28390402950279
 20
-33.73234460560107
 30
0.0
 10
-77.2689082337955
 20
-34.03569467143633
 30
0.0
 10
-77.2689082337955
 20
-34.34173482276671
 30
0.0
 10
-77.2689082337955
 20
-34.34173482276671
 30
0.0
 10
-77.2689082337955
 20
-34.34179205863254
 30
0.0
 10
-77.2689082337955
 20
-34.34179205863254
 30
0.0
 10
-77.2689082337955
 20
-36.87362039116819
 30
0.0
 10
-77.5627571466293
 20
-39.33647951061239
 30
0.0
 10
-78.11788776711694
 20
-41.69854627799799
 30
0.0
 10
-78.33996290965628
 20
-42.64339587930164
 30
0.0
 10
-78.60387746693682
 20
-43.57204773180668
 30
0.0
 10
-78.90745647622323
 20
-44.48261305207672
 30
0.0
 10
-79.05924598086546
 20
-44.93786709428268
 30
0.0
 10
-79.22093728954495
 20
-45.38859950343133
 30
0.0
 10
-79.39235869467447
 20
-45.83452410021664
 30
0.0
 10
-80.07792984347306
 20
-47.61822248735528
 30
0.0
 10
-80.91832399757317
 20
-49.32528205597412
 30
0.0
 10
-81.89677104956087
 20
-50.93921887796591
 30
0.0
 10
-82.38602319348542
 20
-51.74624452482348
 30
0.0
 10
-82.90967409015852
 20
-52.52991794019776
 30
0.0
 10
-83.46589219201417
 20
-53.28835034065882
 30
0.0
 10
-84.02205305800782
 20
-54.04678274112052
 30
0.0
 10
-84.61072389332205
 20
-54.77991689080702
 30
0.0
 10
-85.22967249935884
 20
-55.48569229870757
 30
0.0
 10
-85.04525855367273
 20
-55.77198607782734
 30
0.0
 10
-84.86445046725929
 20
-56.09170560005038
 30
0.0
 10
-84.69692110070978
 20
-56.45326453701398
 30
0.0
 10
-84.52939173416028
 20
-56.81482347397952
 30
0.0
 10
-84.37514108747341
 20
-57.21822182568434
 30
0.0
 10
-84.24395649296315
 20
-57.6718732637696
 30
0.0
 10
-83.48935889522076
 20
-60.28137066033108
 30
0.0
 10
-87.11250339857983
 20
-63.44783022494688
 30
0.0
 10
-89.22645270645478
 20
-64.73277531515633
 30
0.0
 10
-89.44080100769415
 20
-64.86321584346791
 30
0.0
 10
-89.65709532822479
 20
-64.99966613723483
 30
0.0
 10
-89.87459160184549
 20
-65.13783350684509
 30
0.0
 10
-90.08584916656552
 20
-65.27205160201467
 30
0.0
 10
-90.29893827885222
 20
-65.40792953716627
 30
0.0
 10
-90.51311487250822
 20
-65.54375023645651
 30
0.0
 10
-90.56182259062676
 20
-65.57465760165574
 30
0.0
 10
-90.61075925219128
 20
-65.60527878754699
 30
0.0
 10
-90.65963867789511
 20
-65.6360716810229
 30
0.0
 10
-90.87032388399983
 20
-65.76880164379251
 30
0.0
 10
-91.08232551491981
 20
-65.9003868893341
 30
0.0
 10
-91.29587251409851
 20
-66.02808009629244
 30
0.0
 10
-91.32231548210242
 20
-66.04387719406105
 30
0.0
 10
-91.34893015768971
 20
-66.0589302256297
 30
0.0
 10
-91.37531588983163
 20
-66.07461285167627
 30
0.0
 10
-91.58462743526099
 20
-66.19864296350124
 30
0.0
 10
-91.79519816964303
 20
-66.31860932916154
 30
0.0
 10
-92.00725703642373
 20
-66.43210804247584
 30
0.0
 10
-92.02488568175965
 20
-66.44160919548051
 30
0.0
 10
-92.04239985537162
 20
-66.45168270710114
 30
0.0
 10
-92.06014297243088
 20
-66.46106938838378
 30
0.0
 10
-92.27420509436356
 20
-66.57445362997474
 30
0.0
 10
-92.49015599972427
 20
-66.67856566200447
 30
0.0
 10
-92.70702267886894
 20
-66.77575215479618
 30
0.0
 10
-92.74680160259682
 20
-66.79360974357876
 30
0.0
 10
-92.78646605460204
 20
-66.81175351166737
 30
0.0
 10
-92.82635945005326
 20
-66.82892427011132
 30
0.0
 10
-93.03979197750928
 20
-66.92090229950837
 30
0.0
 10
-93.25448369391796
 20
-67.00274958142411
 30
0.0
 10
-93.47049183514064
 20
-67.07337863448795
 30
0.0
 10
-93.50941222094652
 20
-67.08608499573722
 30
0.0
 10
-93.54844707847574
 20
-67.09730322458717
 30
0.0
 10
-93.58742470014295
 20
-67.10920828377513
 30
0.0
 10
-93.81087350335763
 20
-67.17754790238095
 30
0.0
 10
-94.03546702380292
 20
-67.2356995376441
 30
0.0
 10
-94.26172038423024
 20
-67.27513504620396
 30
0.0
 10
-94.27906285025819
 20
-67.27816854686132
 30
0.0
 10
-94.29663425973215
 20
-67.27925602822931
 30
0.0
 10
-94.31403396162208
 20
-67.28206058544261
 30
0.0
 10
-94.5338196697021
 20
-67.31794747059048
 30
0.0
 10
-94.75509351018141
 20
-67.33672083315576
 30
0.0
 10
-94.97751206788942
 20
-67.34004051312045
 30
0.0
 10
-94.99857486491338
 20
-67.34038392828978
 30
0.0
 10
-95.01923701090731
 20
-67.34553515582309
 30
0.0
 10
-95.04029980793191
 20
-67.34553515582309
 30
0.0
 10
-95.05254828228919
 20
-67.34553515582309
 30
0.0
 10
-95.06496846422981
 20
-67.34347466480912
 30
0.0
 10
-95.07721693858645
 20
-67.34336019308708
 30
0.0
 10
-95.18167238578612
 20
-67.34244441930311
 30
0.0
 10
-95.28664295573914
 20
-67.33368733249711
 30
0.0
 10
-95.39172799741484
 20
-67.32464406638314
 30
0.0
 10
-95.44346921619201
 20
-67.32023690504853
 30
0.0
 10
-95.49492425566185
 20
-67.31955007471118
 30
0.0
 10
-95.54677994616236
 20
-67.31308242236451
 30
0.0
 10
-95.70394962178326
 20
-67.29345052187595
 30
0.0
 10
-95.86169165602012
 20
-67.26534771389002
 30
0.0
 10
-96.02012052059496
 20
-67.22574049774678
 30
0.0
 10
-96.678619106913
 20
-67.06181699046933
 30
0.0
 10
-97.22453475370267
 20
-66.67324272688714
 30
0.0
 10
-97.67023040704197
 20
-66.19452198147524
 30
0.0
 10
-97.89310685164197
 20
-65.95521884463062
 30
0.0
 10
-98.09097122477602
 20
-65.69319307077809
 30
0.0
 10
-98.26531165884087
 20
-65.42561541836289
 30
0.0
 10
-98.43970932876899
 20
-65.15798053008571
 30
0.0
 10
-98.59058305962852
 20
-64.88462205566055
 30
0.0
 10
-98.7195926914028
 20
-64.62236733836395
 30
0.0
 10
-102.0530664998151
 20
-65.79490119662647
 30
0.0
 10
-105.6325972767276
 20
-66.43909081757519
 30
0.0
 10
-109.3662069927384
 20
-66.43909081757519
 30
0.0
 10
-110.382601420889
 20
-66.43909081757519
 30
0.0
 10
-111.3878348560502
 20
-66.39164228840996
 30
0.0
 10
-112.3798468072044
 20
-66.29897742867363
 30
0.0
 10
-113.3718587583669
 20
-66.2063125689405
 30
0.0
 10
-114.3507064613872
 20
-66.06837414277366
 30
0.0
 10
-115.3143294252478
 20
-65.88727987705546
 30
0.0
 10
-116.5991600437336
 20
-65.6458590133349
 30
0.0
 10
-117.8568608638807
 20
-65.32774209523319
 30
0.0
 10
-119.0826813091855
 20
-64.93796587856033
 30
0.0
 10
-120.308501754481
 20
-64.54824689774818
 30
0.0
 10
-121.5024990607972
 20
-64.08686861836294
 30
0.0
 10
-122.6597509440486
 20
-63.55892503207853
 30
0.0
 10
-123.2384055036048
 20
-63.29495323893729
 30
0.0
 10
-123.8078450894614
 20
-63.01432581010287
 30
0.0
 10
-124.3674973430022
 20
-62.71772957591839
 30
0.0
 10
-124.6490405456248
 20
-62.86665728748728
 30
0.0
 10
-124.9635516044503
 20
-62.99148870137357
 30
0.0
 10
-125.3000412340837
 20
-63.10790644362254
 30
0.0
 10
-125.6365880995808
 20
-63.22438142173286
 30
0.0
 10
-125.9951135358873
 20
-63.33249996406655
 30
0.0
 10
-126.3649144369139
 20
-63.44805916839416
 30
0.0
 10
-127.1044590030805
 20
-63.6792348129088
 30
0.0
 10
-127.8887047770711
 20
-63.94034481297733
 30
0.0
 10
-128.630710485284
 20
-64.35788042246745
 30
0.0
 10
-128.7672180149149
 20
-64.43469094857255
 30
0.0
 10
-128.8968572411693
 20
-64.49513201829502
 30
0.0
 10
-129.0234629667567
 20
-64.54756006740955
 30
0.0
 10
-129.0616965222294
 20
-64.56341440103949
 30
0.0
 10
-129.0986708887383
 20
-64.57583458298014
 30
0.0
 10
-129.1361031421478
 20
-64.58951395387344
 30
0.0
 10
-129.2261351522529
 20
-64.62248181008598
 30
0.0
 10
-129.3140494354849
 20
-64.64961160842851
 30
0.0
 10
-129.3997315201232
 20
-64.67050269786717
 30
0.0
 10
-129.4364197073356
 20
-64.67948872811851
 30
0.0
 10
-129.4733368379879
 20
-64.68898988112575
 30
0.0
 10
-129.5092809589929
 20
-64.69580094864173
 30
0.0
 10
-129.6089285938261
 20
-64.71468878292968
 30
0.0
 10
-129.7060578507603
 20
-64.72584977591703
 30
0.0
 10
-129.8006687297847
 20
-64.72882604071434
 30
0.0
 10
-129.815778997215
 20
-64.72928392760697
 30
0.0
 10
-129.8316905667088
 20
-64.73231742826562
 30
0.0
 10
-129.8466291265529
 20
-64.73243189998766
 30
0.0
 10
-129.8498343347955
 20
-64.73243189998766
 30
0.0
 10
-129.8532112506245
 20
-64.73323320204767
 30
0.0
 10
-129.8564164588678
 20
-64.73323320204767
 30
0.0
 10
-129.8643150077495
 20
-64.73323320204767
 30
0.0
 10
-129.8711833111268
 20
-64.72951287105232
 30
0.0
 10
-129.8790246241527
 20
-64.72939839932836
 30
0.0
 10
-130.0450658583032
 20
-64.72710896486969
 30
0.0
 10
-130.2032085435714
 20
-64.69614436380912
 30
0.0
 10
-130.3577453695611
 20
-64.64818071188992
 30
0.0
 10
-130.3893395650976
 20
-64.6383933795779
 30
0.0
 10
-130.4212771758048
 20
-64.6304948306933
 30
0.0
 10
-130.4524707203146
 20
-64.61893318667401
 30
0.0
 10
-130.6075226690605
 20
-64.56146838174949
 30
0.0
 10
-130.7587970509523
 20
-64.48374208185976
 30
0.0
 10
-130.9081254135454
 20
-64.38541087183999
 30
0.0
 10
-130.9372012311808
 20
-64.36623685824343
 30
0.0
 10
-130.9661625770868
 20
-64.3439148722668
 30
0.0
 10
-130.9951239229938
 20
-64.32330996213422
 30
0.0
 10
-131.1368971518761
 20
-64.22274655351518
 30
0.0
 10
-131.2778690787058
 20
-64.10867548158687
 30
0.0
 10
-131.4199857227606
 20
-63.9765751132926
 30
0.0
 10
-131.4342374522625
 20
-63.96335362929193
 30
0.0
 10
-131.448317474188
 20
-63.95247881561065
 30
0.0
 10
-131.4625692037005
 20
-63.93897115230136
 30
0.0
 10
-131.6168770862487
 20
-63.79267629035982
 30
0.0
 10
-131.773588874976
 20
-63.62680676379299
 30
0.0
 10
-131.9342499381453
 20
-63.44937559320752
 30
0.0
 10
-131.969449992961
 20
-63.41051244326298
 30
0.0
 10
-132.0046500477664
 20
-63.37176376504174
 30
0.0
 10
-132.0403079894647
 20
-63.33164142614519
 30
0.0
 10
-132.2023427133183
 20
-63.14911626388774
 30
0.0
 10
-132.3676398812705
 20
-62.95760507137703
 30
0.0
 10
-132.5427816173928
 20
-62.75109808316095
 30
0.0
 10
-132.7002374723281
 20
-62.56548218438352
 30
0.0
 10
-132.8663359423332
 20
-62.37036513260141
 30
0.0
 10
-133.0386731212493
 20
-62.16963896639336
 30
0.0
 10
-133.0869801883413
 20
-62.11331887869754
 30
0.0
 10
-133.1319103395971
 20
-62.06077635785906
 30
0.0
 10
-133.1816483032213
 20
-62.00348326051919
 30
0.0
 10
-133.3731022598733
 20
-61.78289625037788
 30
0.0
 10
-133.5764040398473
 20
-61.55589882375123
 30
0.0
 10
-133.7914964072886
 20
-61.32397911303726
 30
0.0
 10
-133.8379719268046
 20
-61.27389773424339
 30
0.0
 10
-133.8855349277002
 20
-61.22438871406355
 30
0.0
 10
-133.9332696361712
 20
-61.17390668423839
 30
0.0
 10
-134.1634150351785
 20
-60.93036809364381
 30
0.0
 10
-134.4038056533918
 20
-60.68368153066854
 30
0.0
 10
-134.6665754934389
 20
-60.43464829737262
 30
0.0
 10
-134.6674912672222
 20
-60.43378975945061
 30
0.0
 10
-134.6682353334305
 20
-60.4329312215286
 30
0.0
 10
-134.6691511072138
 20
-60.43207268360596
 30
0.0
 10
-134.8484138253618
 20
-60.26225388259714
 30
0.0
 10
-135.0206365325562
 20
-60.10537038628292
 30
0.0
 10
-135.1860481722288
 20
-59.95964788295606
 30
0.0
 10
-135.3514598119023
 20
-59.81392537962983
 30
0.0
 10
-135.510117619927
 20
-59.67930663343089
 30
0.0
 10
-135.6622505397363
 20
-59.55401733265262
 30
0.0
 10
-135.9665736152205
 20
-59.3034387310967
 30
0.0
 10
-136.244911609591
 20
-59.08994896777933
 30
0.0
 10
-136.4996111931801
 20
-58.89889566216126
 30
0.0
 10
-136.7543107767607
 20
-58.70784235654382
 30
0.0
 10
-136.9853719495514
 20
-58.53922550862567
 30
0.0
 10
-137.1951413818763
 20
-58.37822103028546
 30
0.0
 10
-138.244045779338
 20
-57.57331311030256
 30
0.0
 10
-138.760599429191
 20
-56.96008809041311
 30
0.0
 10
-139.0367052249675
 20
-54.6956084668486
 30
0.0
 10
-139.1299996791811
 20
-53.93179589540823
 30
0.0
 10
-139.077170979034
 20
-53.17479439148319
 30
0.0
 10
-138.9355694577367
 20
-52.45562579199734
 30
0.0
 10
-138.8411875221538
 20
-51.97621821624743
 30
0.0
 10
-138.7073700780181
 20
-51.5135235120482
 30
0.0
 10
-138.5511161761821
 20
-51.07698559654618
 30
0.0
 10
-138.3949195102011
 20
-50.64039044518345
 30
0.0
 10
-138.2162291506655
 20
-50.22983761079206
 30
0.0
 10
-138.0322730918688
 20
-49.85454206707316
 30
0.0
 10
-137.940295062476
 20
-49.66686567728178
 30
0.0
 10
-137.847000608262
 20
-49.48806084601969
 30
0.0
 10
-137.7544502202471
 20
-49.31915781879548
 30
0.0
 10
-138.9361418163491
 20
-47.08352506941558
 30
0.0
 10
-139.8634200081785
 20
-44.69181012578341
 30
0.0
 10
-140.4952466830438
 20
-42.18270443025247
 30
0.0
 10
-140.8111314025443
 20
-40.92815158249277
 30
0.0
 10
-141.0531818607392
 20
-39.64429397365518
 30
0.0
 10
-141.2163040659621
 20
-38.33582494436882
 30
0.0
 10
-141.3793690353102
 20
-37.02741315095792
 30
0.0
 10
-141.4635057516872
 20
-35.69444717296601
 30
0.0
 10
-141.4635057516872
 20
-34.34179205863254
 30
0.0
 10
-141.4635057516872
 20
-34.34179205863254
 30
0.0
 10
-141.4635057516872
 20
-34.34173482276671
 30
0.0
 10
-141.4635057516872
 20
-34.34173482276671
 30
0.0
 10
-141.4635057516872
 20
-33.0057925799807
 30
0.0
 10
-141.3813722904638
 20
-31.68925329423982
 30
0.0
 10
-141.2220848879705
 20
-30.39658136272784
 30
0.0
 10
-140.7441654446164
 20
-26.51856556819962
 30
0.0
 10
-139.5718605298008
 20
-22.85598555628517
 30
0.0
 10
-137.8396744179927
 20
-19.53275696707527
 30
0.0
 10
-137.9758385324529
 20
-19.23604626116555
 30
0.0
 10
-138.1108006938144
 20
-18.91861617340569
 30
0.0
 10
-138.2382649573294
 20
-18.58447321408681
 30
0.0
 10
-138.3657292208452
 20
-18.25027301891301
 30
0.0
 10
-138.4857528223707
 20
-17.89935995218278
 30
0.0
 10
-138.5921542888614
 20
-17.53568328834579
 30
0.0
 10
-138.6453264041695
 20
-17.35384495642249
 30
0.0
 10
-138.6951216036589
 20
-17.16874418040095
 30
0.0
 10
-138.7406813494019
 20
-16.9810105547495
 30
0.0
 10
-138.8318008408766
 20
-16.60548606758013
 30
0.0
 10
-138.9062074607949
 20
-16.21914400259336
 30
0.0
 10
-138.9576052644008
 20
-15.82593363423762
 30
0.0
 10
-138.983304166208
 20
-15.62932845005558
 30
0.0
 10
-139.0032222459984
 20
-15.43106342589087
 30
0.0
 10
-139.0166726734473
 20
-15.23148197690703
 30
0.0
 10
-139.0301231008956
 20
-15.03195776379736
 30
0.0
 10
-139.0369914042739
 20
-14.83117436172412
 30
0.0
 10
-139.0366479891026
 20
-14.62970412931739
 30
0.0
 10
-139.0362473380752
 20
-14.42823389690937
 30
0.0
 10
-139.0285204967794
 20
-14.22596236244004
 30
0.0
 10
-139.0127806348715
 20
-14.0235191203944
 30
0.0
 10
-138.9339096177556
 20
-13.01124567426893
 30
0.0
 10
-138.6532249530615
 20
-11.99313417027215
 30
0.0
 10
-138.0735401479999
 20
-11.03094210295274
 30
0.0
 10
-137.9575802926352
 20
-10.83851513665162
 30
0.0
 10
-137.829658142228
 20
-10.64826313309935
 30
0.0
 10
-137.6890296305795
 20
-10.46081568675459
 30
0.0
 10
-137.6809593741118
 20
-10.45005534479148
 30
0.0
 10
-137.673862127284
 20
-10.43975288972871
 30
0.0
 10
-137.6657918708163
 20
-10.42899254776753
 30
0.0
 10
-137.4556790233295
 20
-10.14819341135166
 30
0.0
 10
-137.2546666778141
 20
-9.871915907991166
 30
0.0
 10
-137.0618962963523
 20
-9.600503452862424
 30
0.0
 10
-136.9853719495514
 20
-9.492728325696759
 30
0.0
 10
-136.9150863116597
 20
-9.38918865227721
 30
0.0
 10
-136.8410803427583
 20
-9.282958893371539
 30
0.0
 10
-136.7202554391792
 20
-9.109648704816565
 30
0.0
 10
-136.5986292335365
 20
-8.93599510108201
 30
0.0
 10
-136.4841575105782
 20
-8.767263781446319
 30
0.0
 10
-136.4025964079669
 20
-8.647011236479315
 30
0.0
 10
-136.326472712202
 20
-8.531623739737002
 30
0.0
 10
-136.2478878743919
 20
-8.413775100950068
 30
0.0
 10
-136.1483547112789
 20
-8.264618445932617
 30
0.0
 10
-136.0482491895525
 20
-8.115290083329867
 30
0.0
 10
-135.9531804236367
 20
-7.970139938618953
 30
0.0
 10
-135.8677272824493
 20
-7.839756646176401
 30
0.0
 10
-135.7869674819012
 20
-7.714696288840267
 30
0.0
 10
-135.7048340206769
 20
-7.587804383937446
 30
0.0
 10
-135.620296653274
 20
-7.457134912188842
 30
0.0
 10
-135.5359309934562
 20
-7.327323978348768
 30
0.0
 10
-135.4545988342851
 20
-7.200489309310493
 30
0.0
 10
-135.3203807391223
 20
-6.991292235607644
 30
0.0
 10
-135.1917717583723
 20
-6.790222654227072
 30
0.0
 10
-135.0652232686506
 20
-6.592072101784395
 30
0.0
 10
-135.0034657741081
 20
-6.49540073175051
 30
0.0
 10
-134.9445700726469
 20
-6.403937825104215
 30
0.0
 10
-134.8843579463762
 20
-6.309956540558378
 30
0.0
 10
-134.7862556797934
 20
-6.156793375235672
 30
0.0
 10
-134.6906717911304
 20
-6.008895909174087
 30
0.0
 10
-134.5961753838268
 20
-5.863459585155839
 30
0.0
 10
-134.5403131830226
 20
-5.777376849490776
 30
0.0
 10
-134.4854239918583
 20
-5.694098671042215
 30
0.0
 10
-134.4306492724244
 20
-5.610877728447293
 30
0.0
 10
-134.3478289808669
 20
-5.485016069058834
 30
0.0
 10
-134.2663251141208
 20
-5.363332627551946
 30
0.0
 10
-134.1855653135718
 20
-5.244110328089678
 30
0.0
 10
-134.1299320562094
 20
-5.161862395145212
 30
0.0
 10
-134.0745277422976
 20
-5.081446009767433
 30
0.0
 10
-134.019638551143
 20
-5.002460520921836
 30
0.0
 10
-133.942942496765
 20
-4.892167015854704
 30
0.0
 10
-133.8671049802966
 20
-4.786624087281887
 30
0.0
 10
-133.7916108790093
 20
-4.682855470421476
 30
0.0
 10
-133.7367789237096
 20
-4.60753307671952
 30
0.0
 10
-133.6820042042757
 20
-4.53284027748587
 30
0.0
 10
-133.6275729000124
 20
-4.461066507187551
 30
0.0
 10
-133.5529373366433
 20
-4.362678061309014
 30
0.0
 10
-133.478702424301
 20
-4.270013201573966
 30
0.0
 10
-133.4045247478242
 20
-4.178550294926387
 30
0.0
 10
-133.3509519814797
 20
-4.112500110782465
 30
0.0
 10
-133.2973219792796
 20
-4.045877568024515
 30
0.0
 10
-133.2437492129351
 20
-3.983547714870812
 30
0.0
 10
-133.1688847061152
 20
-3.896434733702296
 30
0.0
 10
-133.0937340199896
 20
-3.81641899935132
 30
0.0
 10
-133.0185833338732
 20
-3.736746680172868
 30
0.0
 10
-132.9656973978609
 20
-3.680712771783098
 30
0.0
 10
-132.9128114618589
 20
-3.622675608240702
 30
0.0
 10
-132.8595821106863
 20
-3.57047650257153
 30
0.0
 10
-132.781684103209
 20
-3.4940093916351
 30
0.0
 10
-132.702584142643
 20
-3.426356603373054
 30
0.0
 10
-132.6235414179402
 20
-3.358303164066879
 30
0.0
 10
-132.5722580860557
 20
-3.314231550730252
 30
0.0
 10
-132.5215471127819
 20
-3.266725785700473
 30
0.0
 10
-132.4696341864195
 20
-3.226260031641656
 30
0.0
 10
-132.3830363280072
 20
-3.15872171509202
 30
0.0
 10
-132.2940917992713
 20
-3.101886504640302
 30
0.0
 10
-132.2052045063897
 20
-3.044765114890232
 30
0.0
 10
-132.1587862227289
 20
-3.014945231056443
 30
0.0
 10
-132.1135126563023
 20
-2.980145827275925
 30
0.0
 10
-132.0663503064434
 20
-2.953187736523185
 30
0.0
 10
-131.9530805365751
 20
-2.88856844890952
 30
0.0
 10
-131.8362621432926
 20
-2.836369343240989
 30
0.0
 10
-131.7177839100284
 20
-2.788978049940305
 30
0.0
 10
-131.6924856592571
 20
-2.77890453831968
 30
0.0
 10
-131.6686183050262
 20
-2.764023214331208
 30
0.0
 10
-131.6430911108037
 20
-2.754751004774457
 30
0.0
 10
-131.497998201948
 20
-2.701922304627352
 30
0.0
 10
-131.3482691883182
 20
-2.662658503651512
 30
0.0
 10
-131.1932744754371
 20
-2.636558950816284
 30
0.0
 10
-131.1498324565784
 20
-2.62923276054633
 30
0.0
 10
-131.1028418142952
 20
-2.630377477781445
 30
0.0
 10
-131.0585412575168
 20
-2.625226250240434
 30
0.0
 10
-130.9548298765126
 20
-2.613149483476806
 30
0.0
 10
-130.8521487410208
 20
-2.598726046379686
 30
0.0
 10
-130.7431716607641
 20
-2.598726046379686
 30
0.0
 10
-130.7340139229272
 20
-2.598726046379686
 30
0.0
 10
-130.7235397602807
 20
-2.601358896009605
 30
0.0
 10
-130.7143247865783
 20
-2.601473367730357
 30
0.0
 10
-130.5308838505391
 20
-2.60319044357565
 30
0.0
 10
-130.3405746111213
 20
-2.619502664096303
 30
0.0
 10
-130.1399629166337
 20
-2.656534266470311
 30
0.0
 10
-129.8664327346232
 20
-2.707016296302533
 30
0.0
 10
-129.5681194245976
 20
-2.763908742611098
 30
0.0
 10
-129.2515478747549
 20
-2.826868190233108
 30
0.0
 10
-128.6184047750689
 20
-2.952729849632476
 30
0.0
 10
-127.9122287161403
 20
-3.102687806702893
 30
0.0
 10
-127.185047096043
 20
-3.273651324942982
 30
0.0
 10
-126.8214849039271
 20
-3.3591617019953
 30
0.0
 10
-126.4526570125587
 20
-3.449880542433284
 30
0.0
 10
-126.0850310742727
 20
-3.545407195250023
 30
0.0
 10
-125.7174623718599
 20
-3.640991083913983
 30
0.0
 10
-125.3511528583926
 20
-3.741440020811619
 30
0.0
 10
-124.9926274220867
 20
-3.846296119042598
 30
0.0
 10
-123.9169938773028
 20
-4.160978885451792
 30
0.0
 10
-122.9113025552502
 20
-4.515783990767173
 30
0.0
 10
-122.1513247865262
 20
-4.90029450818725
 30
0.0
 10
-121.6923504133233
 20
-4.700655823347844
 30
0.0
 10
-121.2278813974277
 20
-4.511548537020414
 30
0.0
 10
-120.7580894464061
 20
-4.333201592645823
 30
0.0
 10
-119.8185627802182
 20
-3.976507703906909
 30
0.0
 10
-118.8579160811507
 20
-3.662969654721921
 30
0.0
 10
-117.8786104912385
 20
-3.394819643692689
 30
0.0
 10
-115.4304037523316
 20
-2.72435876232664
 30
0.0
 10
-112.8653213842774
 20
-2.337215395277286
 30
0.0
 10
-110.2203949894597
 20
-2.267330408412125
 30
0.0
 10
-109.8947229376449
 20
-1.515938018911757
 30
0.0
 10
-109.5155925912064
 20
-0.7501794281807412
 30
0.0
 10
-109.0890709514582
 20
-0.0665542986727967
 30
0.0
 10
-108.8047231916294
 20
0.3892148662781509
 30
0.0
 10
-108.4993126347757
 20
0.8084675516218977
 30
0.0
 10
-108.1744991208803
 20
1.162700298316192
 30
0.0
 10
-107.6873074679688
 20
1.694020800428568
 30
0.0
 10
-107.1566165603337
 20
2.078989204731653
 30
0.0
 10
-106.588321691708
 20
2.221105848785843
 30
0.0
 10
-106.3901139034053
 20
2.270614868967608
 30
0.0
 10
-106.1674664022513
 20
2.31354176508067
 30
0.0
 10
-105.9282205012674
 20
2.351317433652722
 30
0.0
 10
-105.8484337103659
 20
2.363909323182514
 30
0.0
 10
-105.7570852754449
 20
2.372780881702836
 30
0.0
 10
-105.6731775025161
 20
2.384056346422482
 30
0.0
 10
-105.505361956659
 20
2.406607275843164
 30
0.0
 10
-105.3368595804641
 20
2.429043733543735
 30
0.0
 10
-105.1534758802844
 20
2.446328963712279
 30
0.0
 10
-105.0442698565824
 20
2.456631418774409
 30
0.0
 10
-104.9258488591821
 20
2.463385250430335
 30
0.0
 10
-104.8116060796694
 20
2.471798922069573
 30
0.0
 10
-104.6384103628329
 20
2.484562519176323
 30
0.0
 10
-104.4646995232434
 20
2.497154408705474
 30
0.0
 10
-104.2808579361714
 20
2.505625316200917
 30
0.0
 10
-104.1517338326747
 20
2.511577845794252
 30
0.0
 10
-104.0162565485528
 20
2.514611346451617
 30
0.0
 10
-103.8823818685532
 20
2.518388913308309
 30
0.0
 10
-103.6997994704344
 20
2.523540140846753
 30
0.0
 10
-103.51584341164
 20
2.528061773901489
 30
0.0
 10
-103.3253624646375
 20
2.529263726990883
 30
0.0
 10
-103.2690423769417
 20
2.529607142162124
 30
0.0
 10
-103.2177590450565
 20
2.532468935233547
 30
0.0
 10
-103.1608093628844
 20
2.532468935233547
 30
0.0
 10
-103.0042120458765
 20
2.532468935233547
 30
0.0
 10
-102.8422345578917
 20
2.529206491133395
 30
0.0
 10
-102.6812300795498
 20
2.526573641503476
 30
0.0
 10
-102.6254251146073
 20
2.525657867719491
 30
0.0
 10
-102.5712799896482
 20
2.525772339442168
 30
0.0
 10
-102.515017137814
 20
2.524513150486301
 30
0.0
 10
-102.2204813946425
 20
2.518045498144769
 30
0.0
 10
-101.9189628763688
 20
2.506827269290312
 30
0.0
 10
-101.6130371967627
 20
2.491602530138301
 30
0.0
 10
-101.5386305768396
 20
2.487882199139098
 30
0.0
 10
-101.4628502962415
 20
2.482845443329106
 30
0.0
 10
-101.3879285535647
 20
2.478609989581705
 30
0.0
 10
-101.1466793974295
 20
2.464987854547175
 30
0.0
 10
-100.9029690992509
 20
2.448732869892352
 30
0.0
 10
-100.6570266024743
 20
2.42973056387659
 30
0.0
 10
-100.5660215827232
 20
2.422690552914612
 30
0.0
 10
-100.4750737988322
 20
2.415765013680446
 30
0.0
 10
-100.3834964204658
 20
2.407980936517858
 30
0.0
 10
-100.076998382244
 20
2.381938619540119
 30
0.0
 10
-99.76861156059365
 20
2.352862801913357
 30
0.0
 10
-99.45845042723792
 20
2.318464049160926
 30
0.0
 10
-99.44688878321928
 20
2.317147624350779
 30
0.0
 10
-99.43544161092269
 20
2.316289086431342
 30
0.0
 10
-99.42393720276665
 20
2.31497266161157
 30
0.0
 10
-99.10473280329632
 20
2.279257484047709
 30
0.0
 10
-98.7844409224586
 20
2.237532541035591
 30
0.0
 10
-98.46466416437358
 20
2.192945804943708
 30
0.0
 10
-98.37280060669984
 20
2.180124971971128
 30
0.0
 10
-98.28122322833344
 20
2.166216657629906
 30
0.0
 10
-98.18947414238174
 20
2.15270899431677
 30
0.0
 10
-97.94261587182118
 20
2.116192514699302
 30
0.0
 10
-97.69655890332256
 20
2.076985949578384
 30
0.0
 10
-97.45170388791398
 20
2.035089298980325
 30
0.0
 10
-97.36796782257085
 20
2.020780333613582
 30
0.0
 10
-97.28394557791848
 20
2.007215434444242
 30
0.0
 10
-97.2005529277434
 20
1.99227687458994
 30
0.0
 10
-96.88546951030033
 20
1.935842315172726
 30
0.0
 10
-96.57267552731596
 20
1.875401245451539
 30
0.0
 10
-96.26463212083422
 20
1.809980655782984
 30
0.0
 10
-96.21094488276767
 20
1.798533483487664
 30
0.0
 10
-96.15868854123718
 20
1.785712650515726
 30
0.0
 10
-96.10523024661469
 20
1.77403653477056
 30
0.0
 10
-95.84726821892877
 20
1.717659211219176
 30
0.0
 10
-95.59296928637493
 20
1.657847735973357
 30
0.0
 10
-95.34256239240432
 20
1.595002760063114
 30
0.0
 10
-95.2551632319246
 20
1.573081425119724
 30
0.0
 10
-95.16850813764552
 20
1.550702203284983
 30
0.0
 10
-95.08213922267376
 20
1.527979566270018
 30
0.0
 10
-94.83791380174183
 20
1.46370369383786
 30
0.0
 10
-94.59838172145122
 20
1.396279849007693
 30
0.0
 10
-94.36394363283195
 20
1.325708031808394
 30
0.0
 10
-94.31019915890342
 20
1.309567518865339
 30
0.0
 10
-94.25462313740629
 20
1.294514487299268
 30
0.0
 10
-94.20145102209179
 20
1.278030559193315
 30
0.0
 10
-93.9222544897966
 20
1.191318229050961
 30
0.0
 10
-93.65238740292209
 20
1.099454671378504
 30
0.0
 10
-93.3910484594082
 20
1.003527367543945
 30
0.0
 10
-93.32614299249041
 20
0.9796600133034916
 30
0.0
 10
-93.26432826209195
 20
0.9544762342528905
 30
0.0
 10
-93.20062474826547
 20
0.9300937572642386
 30
0.0
 10
-92.99921175172071
 20
0.8529398159853283
 30
0.0
 10
-92.80438087924531
 20
0.772924081635636
 30
0.0
 10
-92.6163038384252
 20
0.6900465542138786
 30
0.0
 10
-92.54819316326473
 20
0.6600549628031321
 30
0.0
 10
-92.47968183707362
 20
0.6302350789699844
 30
0.0
 10
-92.41345994534183
 20
0.5994421854960052
 30
0.0
 10
-92.17827779052386
 20
0.4902361617975157
 30
0.0
 10
-91.95105142045186
 20
0.3779394015681308
 30
0.0
 10
-91.74185434674454
 20
0.2592322248630439
 30
0.0
 10
-91.5091333339699
 20
0.1270746207080851
 30
0.0
 10
-91.2862568893699
 20
-0.0116078716523117
 30
0.0
 10
-91.07293883363654
 20
-0.1559567143096176
 30
0.0
 10
-90.85956354204185
 20
-0.3002483210933927
 30
0.0
 10
-90.65574663931382
 20
-0.450320749894829
 30
0.0
 10
-90.46125918200836
 20
-0.6051437551995641
 30
0.0
 10
-89.09961803741714
 20
-1.68919097161245
 30
0.0
 10
-88.1920289819399
 20
-3.011282135921787
 30
0.0
 10
-87.64124828692557
 20
-4.293651612363932
 30
0.0
 10
-87.56254897739115
 20
-4.476806369096744
 30
0.0
 10
-87.49117585812733
 20
-4.659217059632794
 30
0.0
 10
-87.42678551396286
 20
-4.839967910186174
 30
0.0
 10
-87.23355724560944
 20
-5.382220461838613
 30
0.0
 10
-87.10346013246587
 20
-5.909877868815692
 30
0.0
 10
-87.02859562565143
 20
-6.401018796168244
 30
0.0
 10
-86.95378835469766
 20
-6.892159723521437
 30
0.0
 10
-86.9342709259337
 20
-7.346726935391974
 30
0.0
 10
-86.96254544150429
 20
-7.742970804413421
 30
0.0
 10
-86.97513733103022
 20
-7.923778890823006
 30
0.0
 10
-87.01234064099081
 20
-8.119640008807646
 30
0.0
 10
-87.06963373833259
 20
-8.326662119780911
 30
0.0
 10
-87.19864337010561
 20
-8.792504796351842
 30
0.0
 10
-87.42976177876018
 20
-9.314896504079349
 30
0.0
 10
-87.71325100066666
 20
-9.849765629597287
 30
0.0
 10
-87.80774740796905
 20
-10.02805533810541
 30
0.0
 10
-87.90808187314208
 20
-10.20771870729078
 30
0.0
 10
-88.01236561275645
 20
-10.38721036888894
 30
0.0
 10
-86.42401322084657
 20
-11.80379794050258
 30
0.0
 10
-84.97468673646894
 20
-13.37372038501588
 30
0.0
 10
-83.69380539242545
 20
-15.07860499089936
 30
0.0
 10
-83.45324306662687
 20
-15.03321695274231
 30
0.0
 10
-83.19785665270634
 20
-14.98943151871238
 30
0.0
 10
-82.93417103887177
 20
-14.94902300051105
 30
0.0
 10
-82.85381188935534
 20
-14.93666005443111
 30
0.0
 10
-82.76824427644296
 20
-14.92733060900917
 30
0.0
 10
-82.68622528694384
 20
-14.91571172912662
 30
0.0
 10
-82.49854889715374
 20
-14.88926876112144
 30
0.0
 10
-82.31012844116429
 20
-14.86299750071182
 30
0.0
 10
-82.11592716316554
 20
-14.84164852437155
 30
0.0
 10
-82.0128453766412
 20
-14.83031582380532
 30
0.0
 10
-81.90730244807351
 20
-14.82333304869763
 30
0.0
 10
-81.80290423673453
 20
-14.81377465983354
 30
0.0
 10
-81.62512965098036
 20
-14.79746243931289
 30
0.0
 10
-81.44718335764158
 20
-14.78143639809893
 30
0.0
 10
-81.26746275259613
 20
-14.771191178893
 30
0.0
 10
-81.15133118965514
 20
-14.76460905482173
 30
0.0
 10
-81.03531409843617
 20
-14.76340710173234
 30
0.0
 10
-80.91912529963384
 20
-14.75974400659832
 30
0.0
 10
-80.78948607338356
 20
-14.75568026043622
 30
0.0
 10
-80.65967513954797
 20
-14.74703764534714
 30
0.0
 10
-80.53066550777371
 20
-14.74703764534714
 30
0.0
 10
-80.49483585848845
 20
-14.74703764534714
 30
0.0
 10
-80.46060881332323
 20
-14.75144480667984
 30
0.0
 10
-80.42489363576001
 20
-14.75178822185044
 30
0.0
 10
-80.25352946649183
 20
-14.75339082597754
 30
0.0
 10
-80.08588562821902
 20
-14.76443734723643
 30
0.0
 10
-79.91766943133153
 20
-14.77445362300214
 30
0.0
 10
-79.7867137802666
 20
-14.78223770016216
 30
0.0
 10
-79.65455617611164
 20
-14.78710274838685
 30
0.0
 10
-79.5265195539827
 20
-14.80049593997089
 30
0.0
 10
-79.35441131851455
 20
-14.81858247220331
 30
0.0
 10
-79.19071675468372
 20
-14.84983325256864
 30
0.0
 10
-79.02570576603888
 20
-14.87913801364653
 30
0.0
 10
-78.9106616844646
 20
-14.89957121619255
 30
0.0
 10
-78.79172556431225
 20
-14.91428083259572
 30
0.0
 10
-78.68103140821124
 20
-14.94066656473764
 30
0.0
 10
-78.50360023762577
 20
-14.98290663050566
 30
0.0
 10
-78.3407642117163
 20
-15.04306152092272
 30
0.0
 10
-78.17689794030146
 20
-15.10195722238263
 30
0.0
 10
-78.09173097842037
 20
-15.13257840827131
 30
0.0
 10
-77.99900888282398
 20
-15.15432803563838
 30
0.0
 10
-77.91807737469288
 20
-15.18975703389555
 30
0.0
 10
-77.68140708747562
 20
-15.29346841488949
 30
0.0
 10
-77.46207926628759
 20
-15.4163538094877
 30
0.0
 10
-77.2689082337955
 20
-15.56533875691985
 30
0.0
 10
-76.85394823807012
 20
-15.88557340189686
 30
0.0
 10
-76.46554568207195
 20
-16.32800661112959
 30
0.0
 10
-76.10702024576635
 20
-16.8405537506767
 30
0.0
 10
-75.74849480946075
 20
-17.35304365435925
 30
0.0
 10
-75.41990372870841
 20
-17.93570472422393
 30
0.0
 10
-75.12439497589065
 20
-18.5362233828577
 30
0.0
 10
-74.53349194197845
 20
-19.73726070013937
 30
0.0
 10
-74.07514716325315
 20
-21.00995731599668
 30
0.0
 10
-73.77591807944003
 20
-21.93706380023081
 30
0.0
 10
-73.77591807944003
 20
-21.93706380023081
 30
0.0
 10
-71.6122880438006
 20
-27.12269008611441
 30
0.0
 10
-73.77591807944003
 20
-31.01987989423471
 30
0.0
  0
SPLINE
  5
7E
330
79
100
AcDbEntity
  8
Layer 1
100
AcDbSpline
210
0.0
220
0.0
230
1.0
 70
    11
 71
     3
 72
    44
 73
    40
 74
     0
 42
0.0000000001
 43
0.0000000001
 40
0.0
 40
0.0
 40
0.0
 40
0.0
 40
1.0
 40
1.0
 40
1.0
 40
2.0
 40
2.0
 40
2.0
 40
3.0
 40
3.0
 40
3.0
 40
4.0
 40
4.0
 40
4.0
 40
5.0
 40
5.0
 40
5.0
 40
6.0
 40
6.0
 40
6.0
 40
7.0
 40
7.0
 40
7.0
 40
8.0
 40
8.0
 40
8.0
 40
9.0
 40
9.0
 40
9.0
 40
10.0
 40
10.0
 40
10.0
 40
11.0
 40
11.0
 40
11.0
 40
12.0
 40
12.0
 40
12.0
 40
13.0
 40
13.0
 40
13.0
 40
13.0
 10
-162.0944582011854
 20
14.47633403700209
 30
0.0
 10
-162.0944582011854
 20
14.47633403700209
 30
0.0
 10
-162.0945154370513
 20
14.47633403700209
 30
0.0
 10
-162.0945154370513
 20
14.47633403700209
 30
0.0
 10
-162.0945154370513
 20
14.47633403700209
 30
0.0
 10
-154.6790944596649
 20
26.70946918267938
 30
0.0
 10
-154.6790944596649
 20
26.70946918267938
 30
0.0
 10
-154.6790944596649
 20
26.70946918267938
 30
0.0
 10
-160.5514938474348
 20
39.75289241932722
 30
0.0
 10
-160.5514938474348
 20
39.75289241932722
 30
0.0
 10
-160.5514938474348
 20
39.75289241932722
 30
0.0
 10
-146.6263521647009
 20
36.48060374683961
 30
0.0
 10
-146.6263521647009
 20
36.48060374683961
 30
0.0
 10
-146.6263521647009
 20
36.48060374683961
 30
0.0
 10
-136.0356000641671
 20
46.0970870132714
 30
0.0
 10
-136.0356000641671
 20
46.0970870132714
 30
0.0
 10
-136.0356000641671
 20
46.0970870132714
 30
0.0
 10
-134.8449796736786
 20
31.84186611738907
 30
0.0
 10
-134.8449796736786
 20
31.84186611738907
 30
0.0
 10
-134.8449796736786
 20
31.84186611738907
 30
0.0
 10
-131.1135449203928
 20
29.70851385247028
 30
0.0
 10
-131.1135449203928
 20
29.70851385247028
 30
0.0
 10
-131.1135449203928
 20
29.70851385247028
 30
0.0
 10
-123.4365560560491
 20
25.31932457907157
 30
0.0
 10
-123.4365560560491
 20
25.31932457907157
 30
0.0
 10
-123.4365560560491
 20
25.31932457907157
 30
0.0
 10
-122.4260569216267
 20
24.7415857933064
 30
0.0
 10
-122.4260569216267
 20
24.7415857933064
 30
0.0
 10
-122.4260569216267
 20
24.7415857933064
 30
0.0
 10
-135.6164046146879
 20
19.20378725173734
 30
0.0
 10
-135.6164046146879
 20
19.20378725173734
 30
0.0
 10
-135.6164046146879
 20
19.20378725173734
 30
0.0
 10
-138.5310263887974
 20
5.198572598796893
 30
0.0
 10
-138.5310263887974
 20
5.198572598796893
 30
0.0
 10
-138.5310263887974
 20
5.198572598796893
 30
0.0
 10
-147.8734643504712
 20
16.03148962925473
 30
0.0
 10
-147.8734643504712
 20
16.03148962925473
 30
0.0
 10
-147.8734643504712
 20
16.03148962925473
 30
0.0
 10
-162.0944582011854
 20
14.47633403700209
 30
0.0
 10
-162.0944582011854
 20
14.47633403700209
 30
0.0
  0
SPLINE
  5
7F
330
79
100
AcDbEntity
  8
Layer 1
100
AcDbSpline
210
0.0
220
0.0
230
1.0
 70
    11
 71
     3
 72
    29
 73
    25
 74
     0
 42
0.0000000001
 43
0.0000000001
 40
0.0
 40
0.0
 40
0.0
 40
0.0
 40
1.0
 40
1.0
 40
1.0
 40
2.0
 40
2.0
 40
2.0
 40
3.0
 40
3.0
 40
3.0
 40
4.0
 40
4.0
 40
4.0
 40
5.0
 40
5.0
 40
5.0
 40
6.0
 40
6.0
 40
6.0
 40
7.0
 40
7.0
 40
7.0
 40
8.0
 40
8.0
 40
8.0
 40
8.0
 10
-131.1135449203928
 20
46.80286242117323
 30
0.0
 10
-131.1135449203928
 20
46.80286242117323
 30
0.0
 10
-111.7792136768476
 20
46.80286242117323
 30
0.0
 10
-111.7792136768476
 20
46.80286242117323
 30
0.0
 10
-99.61481880079944
 20
46.80286242117323
 30
0.0
 10
-98.05382515067549
 20
41.12546561345914
 30
0.0
 10
-98.05382515067549
 20
36.18051612510257
 30
0.0
 10
-98.05382515067549
 20
33.51870515114282
 30
0.0
 10
-99.00617264982926
 20
31.04914943590531
 30
0.0
 10
-100.9690192833986
 20
28.62904550497796
 30
0.0
 10
-102.7483677450653
 20
26.43324891518279
 30
0.0
 10
-106.1032477656715
 20
25.31932457907157
 30
0.0
 10
-110.9433983916652
 20
25.31932457907157
 30
0.0
 10
-110.9433983916652
 20
25.31932457907157
 30
0.0
 10
-115.8791329063289
 20
25.31932457907157
 30
0.0
 10
-115.8791329063289
 20
25.31932457907157
 30
0.0
 10
-115.8791329063289
 20
25.31932457907157
 30
0.0
 10
-120.5643460552949
 20
27.99796289630017
 30
0.0
 10
-120.5643460552949
 20
27.99796289630017
 30
0.0
 10
-120.5643460552949
 20
27.99796289630017
 30
0.0
 10
-131.1135449203928
 20
34.02930627140185
 30
0.0
 10
-131.1135449203928
 20
34.02930627140185
 30
0.0
 10
-131.1135449203928
 20
34.02930627140185
 30
0.0
 10
-131.1135449203928
 20
46.80286242117323
 30
0.0
 10
-131.1135449203928
 20
46.80286242117323
 30
0.0
  0
SPLINE
  5
80
330
79
100
AcDbEntity
  8
Layer 1
100
AcDbSpline
210
0.0
220
0.0
230
1.0
 70
     9
 71
     3
 72
    35
 73
    31
 74
     0
 42
0.0000000001
 43
0.0000000001
 40
0.0
 40
0.0
 40
0.0
 40
0.0
 40
1.0
 40
1.0
 40
1.0
 40
2.0
 40
2.0
 40
2.0
 40
3.0
 40
3.0
 40
3.0
 40
4.0
 40
4.0
 40
4.0
 40
5.0
 40
5.0
 40
5.0
 40
6.0
 40
6.0
 40
6.0
 40
7.0
 40
7.0
 40
7.0
 40
8.0
 40
8.0
 40
8.0
 40
9.0
 40
9.0
 40
9.0
 40
10.0
 40
10.0
 40
10.0
 40
10.0
 10
-66.1968597740809
 20
6.718871551414736
 30
0.0
 10
-60.48889901634012
 20
9.51896436670037
 30
0.0
 10
-55.89045543337402
 20
13.39657951019281
 30
0.0
 10
-52.46569042590104
 20
18.30518422651787
 30
0.0
 10
-47.55857384197785
 20
25.34988852910276
 30
0.0
 10
-45.06864216004731
 20
33.3323451861667
 30
0.0
 10
-45.06864216004731
 20
42.0282468565711
 30
0.0
 10
-45.06864216004731
 20
53.87961880618861
 30
0.0
 10
-49.30300842814258
 20
64.55147412244233
 30
0.0
 10
-57.65818501516069
 20
73.74836128836877
 30
0.0
 10
-66.08914188277593
 20
83.02818321758214
 30
0.0
 10
-79.4795861475695
 20
87.73434469185195
 30
0.0
 10
-97.45977414438261
 20
87.73434469185195
 30
0.0
 10
-97.45977414438261
 20
87.73434469185195
 30
0.0
 10
-183.1435758546591
 20
87.73434469185195
 30
0.0
 10
-183.1435758546591
 20
87.73434469185195
 30
0.0
 10
-183.1435758546591
 20
87.73434469185195
 30
0.0
 10
-183.1435758546591
 20
-81.12878913794752
 30
0.0
 10
-183.1435758546591
 20
-81.12878913794752
 30
0.0
 10
-183.1435758546591
 20
-81.12878913794752
 30
0.0
 10
-102.5910835977201
 20
-81.12878913794752
 30
0.0
 10
-102.5910835977201
 20
-81.12878913794752
 30
0.0
 10
-77.04208251475222
 20
-81.12878913794752
 30
0.0
 10
-60.67817801025221
 20
-76.0891715346994
 30
0.0
 10
-52.56470846626072
 20
-65.72307019047001
 30
0.0
 10
-44.73953595654164
 20
-55.72533885072214
 30
0.0
 10
-40.77309075602897
 20
-44.20599213354627
 30
0.0
 10
-40.77309075602897
 20
-31.48532191978846
 30
0.0
 10
-40.77309075602897
 20
-12.73342280264587
 30
0.0
 10
-49.31754633695916
 20
0.0847773190742393
 30
0.0
 10
-66.1968597740809
 20
6.718871551414736
 30
0.0
  0
HATCH
  5
81
330
79
100
AcDbEntity
  8
Layer 1
 62
     7
440
 33554687
100
AcDbHatch
 10
0.0
 20
0.0
 30
0.0
210
0.0
220
0.0
230
1.0
  2
SOLID
 70
     1
 71
     1
 91
        4
 92
        1
 93
        1
 72
     4
 94
        3
 73
     0
 74
     0
 95
      581
 96
      577
 40
0.0
 40
0.0
 40
0.0
 40
0.0
 40
1.0
 40
1.0
 40
1.0
 40
2.0
 40
2.0
 40
2.0
 40
3.0
 40
3.0
 40
3.0
 40
4.0
 40
4.0
 40
4.0
 40
5.0
 40
5.0
 40
5.0
 40
6.0
 40
6.0
 40
6.0
 40
7.0
 40
7.0
 40
7.0
 40
8.0
 40
8.0
 40
8.0
 40
9.0
 40
9.0
 40
9.0
 40
10.0
 40
10.0
 40
10.0
 40
11.0
 40
11.0
 40
11.0
 40
12.0
 40
12.0
 40
12.0
 40
13.0
 40
13.0
 40
13.0
 40
14.0
 40
14.0
 40
14.0
 40
15.0
 40
15.0
 40
15.0
 40
16.0
 40
16.0
 40
16.0
 40
17.0
 40
17.0
 40
17.0
 40
18.0
 40
18.0
 40
18.0
 40
19.0
 40
19.0
 40
19.0
 40
20.0
 40
20.0
 40
20.0
 40
21.0
 40
21.0
 40
21.0
 40
22.0
 40
22.0
 40
22.0
 40
23.0
 40
23.0
 40
23.0
 40
24.0
 40
24.0
 40
24.0
 40
25.0
 40
25.0
 40
25.0
 40
26.0
 40
26.0
 40
26.0
 40
27.0
 40
27.0
 40
27.0
 40
28.0
 40
28.0
 40
28.0
 40
29.0
 40
29.0
 40
29.0
 40
30.0
 40
30.0
 40
30.0
 40
31.0
 40
31.0
 40
31.0
 40
32.0
 40
32.0
 40
32.0
 40
33.0
 40
33.0
 40
33.0
 40
34.0
 40
34.0
 40
34.0
 40
35.0
 40
35.0
 40
35.0
 40
36.0
 40
36.0
 40
36.0
 40
37.0
 40
37.0
 40
37.0
 40
38.0
 40
38.0
 40
38.0
 40
39.0
 40
39.0
 40
39.0
 40
40.0
 40
40.0
 40
40.0
 40
41.0
 40
41.0
 40
41.0
 40
42.0
 40
42.0
 40
42.0
 40
43.0
 40
43.0
 40
43.0
 40
44.0
 40
44.0
 40
44.0
 40
45.0
 40
45.0
 40
45.0
 40
46.0
 40
46.0
 40
46.0
 40
47.0
 40
47.0
 40
47.0
 40
48.0
 40
48.0
 40
48.0
 40
49.0
 40
49.0
 40
49.0
 40
50.0
 40
50.0
 40
50.0
 40
51.0
 40
51.0
 40
51.0
 40
52.0
 40
52.0
 40
52.0
 40
53.0
 40
53.0
 40
53.0
 40
54.0
 40
54.0
 40
54.0
 40
55.0
 40
55.0
 40
55.0
 40
56.0
 40
56.0
 40
56.0
 40
57.0
 40
57.0
 40
57.0
 40
58.0
 40
58.0
 40
58.0
 40
59.0
 40
59.0
 40
59.0
 40
60.0
 40
60.0
 40
60.0
 40
61.0
 40
61.0
 40
61.0
 40
62.0
 40
62.0
 40
62.0
 40
63.0
 40
63.0
 40
63.0
 40
64.0
 40
64.0
 40
64.0
 40
65.0
 40
65.0
 40
65.0
 40
66.0
 40
66.0
 40
66.0
 40
67.0
 40
67.0
 40
67.0
 40
68.0
 40
68.0
 40
68.0
 40
69.0
 40
69.0
 40
69.0
 40
70.0
 40
70.0
 40
70.0
 40
71.0
 40
71.0
 40
71.0
 40
72.0
 40
72.0
 40
72.0
 40
73.0
 40
73.0
 40
73.0
 40
74.0
 40
74.0
 40
74.0
 40
75.0
 40
75.0
 40
75.0
 40
76.0
 40
76.0
 40
76.0
 40
77.0
 40
77.0
 40
77.0
 40
78.0
 40
78.0
 40
78.0
 40
79.0
 40
79.0
 40
79.0
 40
80.0
 40
80.0
 40
80.0
 40
81.0
 40
81.0
 40
81.0
 40
82.0
 40
82.0
 40
82.0
 40
83.0
 40
83.0
 40
83.0
 40
84.0
 40
84.0
 40
84.0
 40
85.0
 40
85.0
 40
85.0
 40
86.0
 40
86.0
 40
86.0
 40
87.0
 40
87.0
 40
87.0
 40
88.0
 40
88.0
 40
88.0
 40
89.0
 40
89.0
 40
89.0
 40
90.0
 40
90.0
 40
90.0
 40
91.0
 40
91.0
 40
91.0
 40
92.0
 40
92.0
 40
92.0
 40
93.0
 40
93.0
 40
93.0
 40
94.0
 40
94.0
 40
94.0
 40
95.0
 40
95.0
 40
95.0
 40
96.0
 40
96.0
 40
96.0
 40
97.0
 40
97.0
 40
97.0
 40
98.0
 40
98.0
 40
98.0
 40
99.0
 40
99.0
 40
99.0
 40
100.0
 40
100.0
 40
100.0
 40
101.0
 40
101.0
 40
101.0
 40
102.0
 40
102.0
 40
102.0
 40
103.0
 40
103.0
 40
103.0
 40
104.0
 40
104.0
 40
104.0
 40
105.0
 40
105.0
 40
105.0
 40
106.0
 40
106.0
 40
106.0
 40
107.0
 40
107.0
 40
107.0
 40
108.0
 40
108.0
 40
108.0
 40
109.0
 40
109.0
 40
109.0
 40
110.0
 40
110.0
 40
110.0
 40
111.0
 40
111.0
 40
111.0
 40
112.0
 40
112.0
 40
112.0
 40
113.0
 40
113.0
 40
113.0
 40
114.0
 40
114.0
 40
114.0
 40
115.0
 40
115.0
 40
115.0
 40
116.0
 40
116.0
 40
116.0
 40
117.0
 40
117.0
 40
117.0
 40
118.0
 40
118.0
 40
118.0
 40
119.0
 40
119.0
 40
119.0
 40
120.0
 40
120.0
 40
120.0
 40
121.0
 40
121.0
 40
121.0
 40
122.0
 40
122.0
 40
122.0
 40
123.0
 40
123.0
 40
123.0
 40
124.0
 40
124.0
 40
124.0
 40
125.0
 40
125.0
 40
125.0
 40
126.0
 40
126.0
 40
126.0
 40
127.0
 40
127.0
 40
127.0
 40
128.0
 40
128.0
 40
128.0
 40
129.0
 40
129.0
 40
129.0
 40
130.0
 40
130.0
 40
130.0
 40
131.0
 40
131.0
 40
131.0
 40
132.0
 40
132.0
 40
132.0
 40
133.0
 40
133.0
 40
133.0
 40
134.0
 40
134.0
 40
134.0
 40
135.0
 40
135.0
 40
135.0
 40
136.0
 40
136.0
 40
136.0
 40
137.0
 40
137.0
 40
137.0
 40
138.0
 40
138.0
 40
138.0
 40
139.0
 40
139.0
 40
139.0
 40
140.0
 40
140.0
 40
140.0
 40
141.0
 40
141.0
 40
141.0
 40
142.0
 40
142.0
 40
142.0
 40
143.0
 40
143.0
 40
143.0
 40
144.0
 40
144.0
 40
144.0
 40
145.0
 40
145.0
 40
145.0
 40
146.0
 40
146.0
 40
146.0
 40
147.0
 40
147.0
 40
147.0
 40
148.0
 40
148.0
 40
148.0
 40
149.0
 40
149.0
 40
149.0
 40
150.0
 40
150.0
 40
150.0
 40
151.0
 40
151.0
 40
151.0
 40
152.0
 40
152.0
 40
152.0
 40
153.0
 40
153.0
 40
153.0
 40
154.0
 40
154.0
 40
154.0
 40
155.0
 40
155.0
 40
155.0
 40
156.0
 40
156.0
 40
156.0
 40
157.0
 40
157.0
 40
157.0
 40
158.0
 40
158.0
 40
158.0
 40
159.0
 40
159.0
 40
159.0
 40
160.0
 40
160.0
 40
160.0
 40
161.0
 40
161.0
 40
161.0
 40
162.0
 40
162.0
 40
162.0
 40
163.0
 40
163.0
 40
163.0
 40
164.0
 40
164.0
 40
164.0
 40
165.0
 40
165.0
 40
165.0
 40
166.0
 40
166.0
 40
166.0
 40
167.0
 40
167.0
 40
167.0
 40
168.0
 40
168.0
 40
168.0
 40
169.0
 40
169.0
 40
169.0
 40
170.0
 40
170.0
 40
170.0
 40
171.0
 40
171.0
 40
171.0
 40
172.0
 40
172.0
 40
172.0
 40
173.0
 40
173.0
 40
173.0
 40
174.0
 40
174.0
 40
174.0
 40
175.0
 40
175.0
 40
175.0
 40
176.0
 40
176.0
 40
176.0
 40
177.0
 40
177.0
 40
177.0
 40
178.0
 40
178.0
 40
178.0
 40
179.0
 40
179.0
 40
179.0
 40
180.0
 40
180.0
 40
180.0
 40
181.0
 40
181.0
 40
181.0
 40
182.0
 40
182.0
 40
182.0
 40
183.0
 40
183.0
 40
183.0
 40
184.0
 40
184.0
 40
184.0
 40
185.0
 40
185.0
 40
185.0
 40
186.0
 40
186.0
 40
186.0
 40
187.0
 40
187.0
 40
187.0
 40
188.0
 40
188.0
 40
188.0
 40
189.0
 40
189.0
 40
189.0
 40
190.0
 40
190.0
 40
190.0
 40
191.0
 40
191.0
 40
191.0
 40
192.0
 40
192.0
 40
192.0
 40
192.0
 10
-73.77591807944003
 20
-31.01987989423471
 10
-74.72689191791783
 20
-32.73500971932219
 10
-76.07800166399643
 20
-33.3137787505998
 10
-77.29208875769346
 20
-33.42693404874798
 10
-77.28390402950279
 20
-33.73234460560107
 10
-77.2689082337955
 20
-34.03569467143633
 10
-77.2689082337955
 20
-34.34173482276671
 10
-77.2689082337955
 20
-34.34173482276671
 10
-77.2689082337955
 20
-34.34179205863254
 10
-77.2689082337955
 20
-34.34179205863254
 10
-77.2689082337955
 20
-36.87362039116819
 10
-77.5627571466293
 20
-39.33647951061239
 10
-78.11788776711694
 20
-41.69854627799799
 10
-78.33996290965628
 20
-42.64339587930164
 10
-78.60387746693682
 20
-43.57204773180668
 10
-78.90745647622323
 20
-44.48261305207672
 10
-79.05924598086546
 20
-44.93786709428268
 10
-79.22093728954495
 20
-45.38859950343133
 10
-79.39235869467447
 20
-45.83452410021664
 10
-80.07792984347306
 20
-47.61822248735528
 10
-80.91832399757317
 20
-49.32528205597412
 10
-81.89677104956087
 20
-50.93921887796591
 10
-82.38602319348542
 20
-51.74624452482348
 10
-82.90967409015852
 20
-52.52991794019776
 10
-83.46589219201417
 20
-53.28835034065882
 10
-84.02205305800782
 20
-54.04678274112052
 10
-84.61072389332205
 20
-54.77991689080702
 10
-85.22967249935884
 20
-55.48569229870757
 10
-85.04525855367273
 20
-55.77198607782734
 10
-84.86445046725929
 20
-56.09170560005038
 10
-84.69692110070978
 20
-56.45326453701398
 10
-84.52939173416028
 20
-56.81482347397952
 10
-84.37514108747341
 20
-57.21822182568434
 10
-84.24395649296315
 20
-57.6718732637696
 10
-83.48935889522076
 20
-60.28137066033108
 10
-87.11250339857983
 20
-63.44783022494688
 10
-89.22645270645478
 20
-64.73277531515633
 10
-89.44080100769415
 20
-64.86321584346791
 10
-89.65709532822479
 20
-64.99966613723483
 10
-89.87459160184549
 20
-65.13783350684509
 10
-90.08584916656552
 20
-65.27205160201467
 10
-90.29893827885222
 20
-65.40792953716627
 10
-90.51311487250822
 20
-65.54375023645651
 10
-90.56182259062676
 20
-65.57465760165574
 10
-90.61075925219128
 20
-65.60527878754699
 10
-90.65963867789511
 20
-65.6360716810229
 10
-90.87032388399983
 20
-65.76880164379251
 10
-91.08232551491981
 20
-65.9003868893341
 10
-91.29587251409851
 20
-66.02808009629244
 10
-91.32231548210242
 20
-66.04387719406105
 10
-91.34893015768971
 20
-66.0589302256297
 10
-91.37531588983163
 20
-66.07461285167627
 10
-91.58462743526099
 20
-66.19864296350124
 10
-91.79519816964303
 20
-66.31860932916154
 10
-92.00725703642373
 20
-66.43210804247584
 10
-92.02488568175965
 20
-66.44160919548051
 10
-92.04239985537162
 20
-66.45168270710114
 10
-92.06014297243088
 20
-66.46106938838378
 10
-92.27420509436356
 20
-66.57445362997474
 10
-92.49015599972427
 20
-66.67856566200447
 10
-92.70702267886894
 20
-66.77575215479618
 10
-92.74680160259682
 20
-66.79360974357876
 10
-92.78646605460204
 20
-66.81175351166737
 10
-92.82635945005326
 20
-66.82892427011132
 10
-93.03979197750928
 20
-66.92090229950837
 10
-93.25448369391796
 20
-67.00274958142411
 10
-93.47049183514064
 20
-67.07337863448795
 10
-93.50941222094652
 20
-67.08608499573722
 10
-93.54844707847574
 20
-67.09730322458717
 10
-93.58742470014295
 20
-67.10920828377513
 10
-93.81087350335763
 20
-67.17754790238095
 10
-94.03546702380292
 20
-67.2356995376441
 10
-94.26172038423024
 20
-67.27513504620396
 10
-94.27906285025819
 20
-67.27816854686132
 10
-94.29663425973215
 20
-67.27925602822931
 10
-94.31403396162208
 20
-67.28206058544261
 10
-94.5338196697021
 20
-67.31794747059048
 10
-94.75509351018141
 20
-67.33672083315576
 10
-94.97751206788942
 20
-67.34004051312045
 10
-94.99857486491338
 20
-67.34038392828978
 10
-95.01923701090731
 20
-67.34553515582309
 10
-95.04029980793191
 20
-67.34553515582309
 10
-95.05254828228919
 20
-67.34553515582309
 10
-95.06496846422981
 20
-67.34347466480912
 10
-95.07721693858645
 20
-67.34336019308708
 10
-95.18167238578612
 20
-67.34244441930311
 10
-95.28664295573914
 20
-67.33368733249711
 10
-95.39172799741484
 20
-67.32464406638314
 10
-95.44346921619201
 20
-67.32023690504853
 10
-95.49492425566185
 20
-67.31955007471118
 10
-95.54677994616236
 20
-67.31308242236451
 10
-95.70394962178326
 20
-67.29345052187595
 10
-95.86169165602012
 20
-67.26534771389002
 10
-96.02012052059496
 20
-67.22574049774678
 10
-96.678619106913
 20
-67.06181699046933
 10
-97.22453475370267
 20
-66.67324272688714
 10
-97.67023040704197
 20
-66.19452198147524
 10
-97.89310685164197
 20
-65.95521884463062
 10
-98.09097122477602
 20
-65.69319307077809
 10
-98.26531165884087
 20
-65.42561541836289
 10
-98.43970932876899
 20
-65.15798053008571
 10
-98.59058305962852
 20
-64.88462205566055
 10
-98.7195926914028
 20
-64.62236733836395
 10
-102.0530664998151
 20
-65.79490119662647
 10
-105.6325972767276
 20
-66.43909081757519
 10
-109.3662069927384
 20
-66.43909081757519
 10
-110.382601420889
 20
-66.43909081757519
 10
-111.3878348560502
 20
-66.39164228840996
 10
-112.3798468072044
 20
-66.29897742867363
 10
-113.3718587583669
 20
-66.2063125689405
 10
-114.3507064613872
 20
-66.06837414277366
 10
-115.3143294252478
 20
-65.88727987705546
 10
-116.5991600437336
 20
-65.6458590133349
 10
-117.8568608638807
 20
-65.32774209523319
 10
-119.0826813091855
 20
-64.93796587856033
 10
-120.308501754481
 20
-64.54824689774818
 10
-121.5024990607972
 20
-64.08686861836294
 10
-122.6597509440486
 20
-63.55892503207853
 10
-123.2384055036048
 20
-63.29495323893729
 10
-123.8078450894614
 20
-63.01432581010287
 10
-124.3674973430022
 20
-62.71772957591839
 10
-124.6490405456248
 20
-62.86665728748728
 10
-124.9635516044503
 20
-62.99148870137357
 10
-125.3000412340837
 20
-63.10790644362254
 10
-125.6365880995808
 20
-63.22438142173286
 10
-125.9951135358873
 20
-63.33249996406655
 10
-126.3649144369139
 20
-63.44805916839416
 10
-127.1044590030805
 20
-63.6792348129088
 10
-127.8887047770711
 20
-63.94034481297733
 10
-128.630710485284
 20
-64.35788042246745
 10
-128.7672180149149
 20
-64.43469094857255
 10
-128.8968572411693
 20
-64.49513201829502
 10
-129.0234629667567
 20
-64.54756006740955
 10
-129.0616965222294
 20
-64.56341440103949
 10
-129.0986708887383
 20
-64.57583458298014
 10
-129.1361031421478
 20
-64.58951395387344
 10
-129.2261351522529
 20
-64.62248181008598
 10
-129.3140494354849
 20
-64.64961160842851
 10
-129.3997315201232
 20
-64.67050269786717
 10
-129.4364197073356
 20
-64.67948872811851
 10
-129.4733368379879
 20
-64.68898988112575
 10
-129.5092809589929
 20
-64.69580094864173
 10
-129.6089285938261
 20
-64.71468878292968
 10
-129.7060578507603
 20
-64.72584977591703
 10
-129.8006687297847
 20
-64.72882604071434
 10
-129.815778997215
 20
-64.72928392760697
 10
-129.8316905667088
 20
-64.73231742826562
 10
-129.8466291265529
 20
-64.73243189998766
 10
-129.8498343347955
 20
-64.73243189998766
 10
-129.8532112506245
 20
-64.73323320204767
 10
-129.8564164588678
 20
-64.73323320204767
 10
-129.8643150077495
 20
-64.73323320204767
 10
-129.8711833111268
 20
-64.72951287105232
 10
-129.8790246241527
 20
-64.72939839932836
 10
-130.0450658583032
 20
-64.72710896486969
 10
-130.2032085435714
 20
-64.69614436380912
 10
-130.3577453695611
 20
-64.64818071188992
 10
-130.3893395650976
 20
-64.6383933795779
 10
-130.4212771758048
 20
-64.6304948306933
 10
-130.4524707203146
 20
-64.61893318667401
 10
-130.6075226690605
 20
-64.56146838174949
 10
-130.7587970509523
 20
-64.48374208185976
 10
-130.9081254135454
 20
-64.38541087183999
 10
-130.9372012311808
 20
-64.36623685824343
 10
-130.9661625770868
 20
-64.3439148722668
 10
-130.9951239229938
 20
-64.32330996213422
 10
-131.1368971518761
 20
-64.22274655351518
 10
-131.2778690787058
 20
-64.10867548158687
 10
-131.4199857227606
 20
-63.9765751132926
 10
-131.4342374522625
 20
-63.96335362929193
 10
-131.448317474188
 20
-63.95247881561065
 10
-131.4625692037005
 20
-63.93897115230136
 10
-131.6168770862487
 20
-63.79267629035982
 10
-131.773588874976
 20
-63.62680676379299
 10
-131.9342499381453
 20
-63.44937559320752
 10
-131.969449992961
 20
-63.41051244326298
 10
-132.0046500477664
 20
-63.37176376504174
 10
-132.0403079894647
 20
-63.33164142614519
 10
-132.2023427133183
 20
-63.14911626388774
 10
-132.3676398812705
 20
-62.95760507137703
 10
-132.5427816173928
 20
-62.75109808316095
 10
-132.7002374723281
 20
-62.56548218438352
 10
-132.8663359423332
 20
-62.37036513260141
 10
-133.0386731212493
 20
-62.16963896639336
 10
-133.0869801883413
 20
-62.11331887869754
 10
-133.1319103395971
 20
-62.06077635785906
 10
-133.1816483032213
 20
-62.00348326051919
 10
-133.3731022598733
 20
-61.78289625037788
 10
-133.5764040398473
 20
-61.55589882375123
 10
-133.7914964072886
 20
-61.32397911303726
 10
-133.8379719268046
 20
-61.27389773424339
 10
-133.8855349277002
 20
-61.22438871406355
 10
-133.9332696361712
 20
-61.17390668423839
 10
-134.1634150351785
 20
-60.93036809364381
 10
-134.4038056533918
 20
-60.68368153066854
 10
-134.6665754934389
 20
-60.43464829737262
 10
-134.6674912672222
 20
-60.43378975945061
 10
-134.6682353334305
 20
-60.4329312215286
 10
-134.6691511072138
 20
-60.43207268360596
 10
-134.8484138253618
 20
-60.26225388259714
 10
-135.0206365325562
 20
-60.10537038628292
 10
-135.1860481722288
 20
-59.95964788295606
 10
-135.3514598119023
 20
-59.81392537962983
 10
-135.510117619927
 20
-59.67930663343089
 10
-135.6622505397363
 20
-59.55401733265262
 10
-135.9665736152205
 20
-59.3034387310967
 10
-136.244911609591
 20
-59.08994896777933
 10
-136.4996111931801
 20
-58.89889566216126
 10
-136.7543107767607
 20
-58.70784235654382
 10
-136.9853719495514
 20
-58.53922550862567
 10
-137.1951413818763
 20
-58.37822103028546
 10
-138.244045779338
 20
-57.57331311030256
 10
-138.760599429191
 20
-56.96008809041311
 10
-139.0367052249675
 20
-54.6956084668486
 10
-139.1299996791811
 20
-53.93179589540823
 10
-139.077170979034
 20
-53.17479439148319
 10
-138.9355694577367
 20
-52.45562579199734
 10
-138.8411875221538
 20
-51.97621821624743
 10
-138.7073700780181
 20
-51.5135235120482
 10
-138.5511161761821
 20
-51.07698559654618
 10
-138.3949195102011
 20
-50.64039044518345
 10
-138.2162291506655
 20
-50.22983761079206
 10
-138.0322730918688
 20
-49.85454206707316
 10
-137.940295062476
 20
-49.66686567728178
 10
-137.847000608262
 20
-49.48806084601969
 10
-137.7544502202471
 20
-49.31915781879548
 10
-138.9361418163491
 20
-47.08352506941558
 10
-139.8634200081785
 20
-44.69181012578341
 10
-140.4952466830438
 20
-42.18270443025247
 10
-140.8111314025443
 20
-40.92815158249277
 10
-141.0531818607392
 20
-39.64429397365518
 10
-141.2163040659621
 20
-38.33582494436882
 10
-141.3793690353102
 20
-37.02741315095792
 10
-141.4635057516872
 20
-35.69444717296601
 10
-141.4635057516872
 20
-34.34179205863254
 10
-141.4635057516872
 20
-34.34179205863254
 10
-141.4635057516872
 20
-34.34173482276671
 10
-141.4635057516872
 20
-34.34173482276671
 10
-141.4635057516872
 20
-33.0057925799807
 10
-141.3813722904638
 20
-31.68925329423982
 10
-141.2220848879705
 20
-30.39658136272784
 10
-140.7441654446164
 20
-26.51856556819962
 10
-139.5718605298008
 20
-22.85598555628517
 10
-137.8396744179927
 20
-19.53275696707527
 10
-137.9758385324529
 20
-19.23604626116555
 10
-138.1108006938144
 20
-18.91861617340569
 10
-138.2382649573294
 20
-18.58447321408681
 10
-138.3657292208452
 20
-18.25027301891301
 10
-138.4857528223707
 20
-17.89935995218278
 10
-138.5921542888614
 20
-17.53568328834579
 10
-138.6453264041695
 20
-17.35384495642249
 10
-138.6951216036589
 20
-17.16874418040095
 10
-138.7406813494019
 20
-16.9810105547495
 10
-138.8318008408766
 20
-16.60548606758013
 10
-138.9062074607949
 20
-16.21914400259336
 10
-138.9576052644008
 20
-15.82593363423762
 10
-138.983304166208
 20
-15.62932845005558
 10
-139.0032222459984
 20
-15.43106342589087
 10
-139.0166726734473
 20
-15.23148197690703
 10
-139.0301231008956
 20
-15.03195776379736
 10
-139.0369914042739
 20
-14.83117436172412
 10
-139.0366479891026
 20
-14.62970412931739
 10
-139.0362473380752
 20
-14.42823389690937
 10
-139.0285204967794
 20
-14.22596236244004
 10
-139.0127806348715
 20
-14.0235191203944
 10
-138.9339096177556
 20
-13.01124567426893
 10
-138.6532249530615
 20
-11.99313417027215
 10
-138.0735401479999
 20
-11.03094210295274
 10
-137.9575802926352
 20
-10.83851513665162
 10
-137.829658142228
 20
-10.64826313309935
 10
-137.6890296305795
 20
-10.46081568675459
 10
-137.6809593741118
 20
-10.45005534479148
 10
-137.673862127284
 20
-10.43975288972871
 10
-137.6657918708163
 20
-10.42899254776753
 10
-137.4556790233295
 20
-10.14819341135166
 10
-137.2546666778141
 20
-9.871915907991166
 10
-137.0618962963523
 20
-9.600503452862424
 10
-136.9853719495514
 20
-9.492728325696759
 10
-136.9150863116597
 20
-9.38918865227721
 10
-136.8410803427583
 20
-9.282958893371539
 10
-136.7202554391792
 20
-9.109648704816565
 10
-136.5986292335365
 20
-8.93599510108201
 10
-136.4841575105782
 20
-8.767263781446319
 10
-136.4025964079669
 20
-8.647011236479315
 10
-136.326472712202
 20
-8.531623739737002
 10
-136.2478878743919
 20
-8.413775100950068
 10
-136.1483547112789
 20
-8.264618445932617
 10
-136.0482491895525
 20
-8.115290083329867
 10
-135.9531804236367
 20
-7.970139938618953
 10
-135.8677272824493
 20
-7.839756646176401
 10
-135.7869674819012
 20
-7.714696288840267
 10
-135.7048340206769
 20
-7.587804383937446
 10
-135.620296653274
 20
-7.457134912188842
 10
-135.5359309934562
 20
-7.327323978348768
 10
-135.4545988342851
 20
-7.200489309310493
 10
-135.3203807391223
 20
-6.991292235607644
 10
-135.1917717583723
 20
-6.790222654227072
 10
-135.0652232686506
 20
-6.592072101784395
 10
-135.0034657741081
 20
-6.49540073175051
 10
-134.9445700726469
 20
-6.403937825104215
 10
-134.8843579463762
 20
-6.309956540558378
 10
-134.7862556797934
 20
-6.156793375235672
 10
-134.6906717911304
 20
-6.008895909174087
 10
-134.5961753838268
 20
-5.863459585155839
 10
-134.5403131830226
 20
-5.777376849490776
 10
-134.4854239918583
 20
-5.694098671042215
 10
-134.4306492724244
 20
-5.610877728447293
 10
-134.3478289808669
 20
-5.485016069058834
 10
-134.2663251141208
 20
-5.363332627551946
 10
-134.1855653135718
 20
-5.244110328089678
 10
-134.1299320562094
 20
-5.161862395145212
 10
-134.0745277422976
 20
-5.081446009767433
 10
-134.019638551143
 20
-5.002460520921836
 10
-133.942942496765
 20
-4.892167015854704
 10
-133.8671049802966
 20
-4.786624087281887
 10
-133.7916108790093
 20
-4.682855470421476
 10
-133.7367789237096
 20
-4.60753307671952
 10
-133.6820042042757
 20
-4.53284027748587
 10
-133.6275729000124
 20
-4.461066507187551
 10
-133.5529373366433
 20
-4.362678061309014
 10
-133.478702424301
 20
-4.270013201573966
 10
-133.4045247478242
 20
-4.178550294926387
 10
-133.3509519814797
 20
-4.112500110782465
 10
-133.2973219792796
 20
-4.045877568024515
 10
-133.2437492129351
 20
-3.983547714870812
 10
-133.1688847061152
 20
-3.896434733702296
 10
-133.0937340199896
 20
-3.81641899935132
 10
-133.0185833338732
 20
-3.736746680172868
 10
-132.9656973978609
 20
-3.680712771783098
 10
-132.9128114618589
 20
-3.622675608240702
 10
-132.8595821106863
 20
-3.57047650257153
 10
-132.781684103209
 20
-3.4940093916351
 10
-132.702584142643
 20
-3.426356603373054
 10
-132.6235414179402
 20
-3.358303164066879
 10
-132.5722580860557
 20
-3.314231550730252
 10
-132.5215471127819
 20
-3.266725785700473
 10
-132.4696341864195
 20
-3.226260031641656
 10
-132.3830363280072
 20
-3.15872171509202
 10
-132.2940917992713
 20
-3.101886504640302
 10
-132.2052045063897
 20
-3.044765114890232
 10
-132.1587862227289
 20
-3.014945231056443
 10
-132.1135126563023
 20
-2.980145827275925
 10
-132.0663503064434
 20
-2.953187736523185
 10
-131.9530805365751
 20
-2.88856844890952
 10
-131.8362621432926
 20
-2.836369343240989
 10
-131.7177839100284
 20
-2.788978049940305
 10
-131.6924856592571
 20
-2.77890453831968
 10
-131.6686183050262
 20
-2.764023214331208
 10
-131.6430911108037
 20
-2.754751004774457
 10
-131.497998201948
 20
-2.701922304627352
 10
-131.3482691883182
 20
-2.662658503651512
 10
-131.1932744754371
 20
-2.636558950816284
 10
-131.1498324565784
 20
-2.62923276054633
 10
-131.1028418142952
 20
-2.630377477781445
 10
-131.0585412575168
 20
-2.625226250240434
 10
-130.9548298765126
 20
-2.613149483476806
 10
-130.8521487410208
 20
-2.598726046379686
 10
-130.7431716607641
 20
-2.598726046379686
 10
-130.7340139229272
 20
-2.598726046379686
 10
-130.7235397602807
 20
-2.601358896009605
 10
-130.7143247865783
 20
-2.601473367730357
 10
-130.5308838505391
 20
-2.60319044357565
 10
-130.3405746111213
 20
-2.619502664096303
 10
-130.1399629166337
 20
-2.656534266470311
 10
-129.8664327346232
 20
-2.707016296302533
 10
-129.5681194245976
 20
-2.763908742611098
 10
-129.2515478747549
 20
-2.826868190233108
 10
-128.6184047750689
 20
-2.952729849632476
 10
-127.9122287161403
 20
-3.102687806702893
 10
-127.185047096043
 20
-3.273651324942982
 10
-126.8214849039271
 20
-3.3591617019953
 10
-126.4526570125587
 20
-3.449880542433284
 10
-126.0850310742727
 20
-3.545407195250023
 10
-125.7174623718599
 20
-3.640991083913983
 10
-125.3511528583926
 20
-3.741440020811619
 10
-124.9926274220867
 20
-3.846296119042598
 10
-123.9169938773028
 20
-4.160978885451792
 10
-122.9113025552502
 20
-4.515783990767173
 10
-122.1513247865262
 20
-4.90029450818725
 10
-121.6923504133233
 20
-4.700655823347844
 10
-121.2278813974277
 20
-4.511548537020414
 10
-120.7580894464061
 20
-4.333201592645823
 10
-119.8185627802182
 20
-3.976507703906909
 10
-118.8579160811507
 20
-3.662969654721921
 10
-117.8786104912385
 20
-3.394819643692689
 10
-115.4304037523316
 20
-2.72435876232664
 10
-112.8653213842774
 20
-2.337215395277286
 10
-110.2203949894597
 20
-2.267330408412125
 10
-109.8947229376449
 20
-1.515938018911757
 10
-109.5155925912064
 20
-0.7501794281807412
 10
-109.0890709514582
 20
-0.0665542986727967
 10
-108.8047231916294
 20
0.3892148662781509
 10
-108.4993126347757
 20
0.8084675516218977
 10
-108.1744991208803
 20
1.162700298316192
 10
-107.6873074679688
 20
1.694020800428568
 10
-107.1566165603337
 20
2.078989204731653
 10
-106.588321691708
 20
2.221105848785843
 10
-106.3901139034053
 20
2.270614868967608
 10
-106.1674664022513
 20
2.31354176508067
 10
-105.9282205012674
 20
2.351317433652722
 10
-105.8484337103659
 20
2.363909323182514
 10
-105.7570852754449
 20
2.372780881702836
 10
-105.6731775025161
 20
2.384056346422482
 10
-105.505361956659
 20
2.406607275843164
 10
-105.3368595804641
 20
2.429043733543735
 10
-105.1534758802844
 20
2.446328963712279
 10
-105.0442698565824
 20
2.456631418774409
 10
-104.9258488591821
 20
2.463385250430335
 10
-104.8116060796694
 20
2.471798922069573
 10
-104.6384103628329
 20
2.484562519176323
 10
-104.4646995232434
 20
2.497154408705474
 10
-104.2808579361714
 20
2.505625316200917
 10
-104.1517338326747
 20
2.511577845794252
 10
-104.0162565485528
 20
2.514611346451617
 10
-103.8823818685532
 20
2.518388913308309
 10
-103.6997994704344
 20
2.523540140846753
 10
-103.51584341164
 20
2.528061773901489
 10
-103.3253624646375
 20
2.529263726990883
 10
-103.2690423769417
 20
2.529607142162124
 10
-103.2177590450565
 20
2.532468935233547
 10
-103.1608093628844
 20
2.532468935233547
 10
-103.0042120458765
 20
2.532468935233547
 10
-102.8422345578917
 20
2.529206491133395
 10
-102.6812300795498
 20
2.526573641503476
 10
-102.6254251146073
 20
2.525657867719491
 10
-102.5712799896482
 20
2.525772339442168
 10
-102.515017137814
 20
2.524513150486301
 10
-102.2204813946425
 20
2.518045498144769
 10
-101.9189628763688
 20
2.506827269290312
 10
-101.6130371967627
 20
2.491602530138301
 10
-101.5386305768396
 20
2.487882199139098
 10
-101.4628502962415
 20
2.482845443329106
 10
-101.3879285535647
 20
2.478609989581705
 10
-101.1466793974295
 20
2.464987854547175
 10
-100.9029690992509
 20
2.448732869892352
 10
-100.6570266024743
 20
2.42973056387659
 10
-100.5660215827232
 20
2.422690552914612
 10
-100.4750737988322
 20
2.415765013680446
 10
-100.3834964204658
 20
2.407980936517858
 10
-100.076998382244
 20
2.381938619540119
 10
-99.76861156059365
 20
2.352862801913357
 10
-99.45845042723792
 20
2.318464049160926
 10
-99.44688878321928
 20
2.317147624350779
 10
-99.43544161092269
 20
2.316289086431342
 10
-99.42393720276665
 20
2.31497266161157
 10
-99.10473280329632
 20
2.279257484047709
 10
-98.7844409224586
 20
2.237532541035591
 10
-98.46466416437358
 20
2.192945804943708
 10
-98.37280060669984
 20
2.180124971971128
 10
-98.28122322833344
 20
2.166216657629906
 10
-98.18947414238174
 20
2.15270899431677
 10
-97.94261587182118
 20
2.116192514699302
 10
-97.69655890332256
 20
2.076985949578384
 10
-97.45170388791398
 20
2.035089298980325
 10
-97.36796782257085
 20
2.020780333613582
 10
-97.28394557791848
 20
2.007215434444242
 10
-97.2005529277434
 20
1.99227687458994
 10
-96.88546951030033
 20
1.935842315172726
 10
-96.57267552731596
 20
1.875401245451539
 10
-96.26463212083422
 20
1.809980655782984
 10
-96.21094488276767
 20
1.798533483487664
 10
-96.15868854123718
 20
1.785712650515726
 10
-96.10523024661469
 20
1.77403653477056
 10
-95.84726821892877
 20
1.717659211219176
 10
-95.59296928637493
 20
1.657847735973357
 10
-95.34256239240432
 20
1.595002760063114
 10
-95.2551632319246
 20
1.573081425119724
 10
-95.16850813764552
 20
1.550702203284983
 10
-95.08213922267376
 20
1.527979566270018
 10
-94.83791380174183
 20
1.46370369383786
 10
-94.59838172145122
 20
1.396279849007693
 10
-94.36394363283195
 20
1.325708031808394
 10
-94.31019915890342
 20
1.309567518865339
 10
-94.25462313740629
 20
1.294514487299268
 10
-94.20145102209179
 20
1.278030559193315
 10
-93.9222544897966
 20
1.191318229050961
 10
-93.65238740292209
 20
1.099454671378504
 10
-93.3910484594082
 20
1.003527367543945
 10
-93.32614299249041
 20
0.9796600133034916
 10
-93.26432826209195
 20
0.9544762342528905
 10
-93.20062474826547
 20
0.9300937572642386
 10
-92.99921175172071
 20
0.8529398159853283
 10
-92.80438087924531
 20
0.772924081635636
 10
-92.6163038384252
 20
0.6900465542138786
 10
-92.54819316326473
 20
0.6600549628031321
 10
-92.47968183707362
 20
0.6302350789699844
 10
-92.41345994534183
 20
0.5994421854960052
 10
-92.17827779052386
 20
0.4902361617975157
 10
-91.95105142045186
 20
0.3779394015681308
 10
-91.74185434674454
 20
0.2592322248630439
 10
-91.5091333339699
 20
0.1270746207080851
 10
-91.2862568893699
 20
-0.0116078716523117
 10
-91.07293883363654
 20
-0.1559567143096176
 10
-90.85956354204185
 20
-0.3002483210933927
 10
-90.65574663931382
 20
-0.450320749894829
 10
-90.46125918200836
 20
-0.6051437551995641
 10
-89.09961803741714
 20
-1.68919097161245
 10
-88.1920289819399
 20
-3.011282135921787
 10
-87.64124828692557
 20
-4.293651612363932
 10
-87.56254897739115
 20
-4.476806369096744
 10
-87.49117585812733
 20
-4.659217059632794
 10
-87.42678551396286
 20
-4.839967910186174
 10
-87.23355724560944
 20
-5.382220461838613
 10
-87.10346013246587
 20
-5.909877868815692
 10
-87.02859562565143
 20
-6.401018796168244
 10
-86.95378835469766
 20
-6.892159723521437
 10
-86.9342709259337
 20
-7.346726935391974
 10
-86.96254544150429
 20
-7.742970804413421
 10
-86.97513733103022
 20
-7.923778890823006
 10
-87.01234064099081
 20
-8.119640008807646
 10
-87.06963373833259
 20
-8.326662119780911
 10
-87.19864337010561
 20
-8.792504796351842
 10
-87.42976177876018
 20
-9.314896504079349
 10
-87.71325100066666
 20
-9.849765629597287
 10
-87.80774740796905
 20
-10.02805533810541
 10
-87.90808187314208
 20
-10.20771870729078
 10
-88.01236561275645
 20
-10.38721036888894
 10
-86.42401322084657
 20
-11.80379794050258
 10
-84.97468673646894
 20
-13.37372038501588
 10
-83.69380539242545
 20
-15.07860499089936
 10
-83.45324306662687
 20
-15.03321695274231
 10
-83.19785665270634
 20
-14.98943151871238
 10
-82.93417103887177
 20
-14.94902300051105
 10
-82.85381188935534
 20
-14.93666005443111
 10
-82.76824427644296
 20
-14.92733060900917
 10
-82.68622528694384
 20
-14.91571172912662
 10
-82.49854889715374
 20
-14.88926876112144
 10
-82.31012844116429
 20
-14.86299750071182
 10
-82.11592716316554
 20
-14.84164852437155
 10
-82.0128453766412
 20
-14.83031582380532
 10
-81.90730244807351
 20
-14.82333304869763
 10
-81.80290423673453
 20
-14.81377465983354
 10
-81.62512965098036
 20
-14.79746243931289
 10
-81.44718335764158
 20
-14.78143639809893
 10
-81.26746275259613
 20
-14.771191178893
 10
-81.15133118965514
 20
-14.76460905482173
 10
-81.03531409843617
 20
-14.76340710173234
 10
-80.91912529963384
 20
-14.75974400659832
 10
-80.78948607338356
 20
-14.75568026043622
 10
-80.65967513954797
 20
-14.74703764534714
 10
-80.53066550777371
 20
-14.74703764534714
 10
-80.49483585848845
 20
-14.74703764534714
 10
-80.46060881332323
 20
-14.75144480667984
 10
-80.42489363576001
 20
-14.75178822185044
 10
-80.25352946649183
 20
-14.75339082597754
 10
-80.08588562821902
 20
-14.76443734723643
 10
-79.91766943133153
 20
-14.77445362300214
 10
-79.7867137802666
 20
-14.78223770016216
 10
-79.65455617611164
 20
-14.78710274838685
 10
-79.5265195539827
 20
-14.80049593997089
 10
-79.35441131851455
 20
-14.81858247220331
 10
-79.19071675468372
 20
-14.84983325256864
 10
-79.02570576603888
 20
-14.87913801364653
 10
-78.9106616844646
 20
-14.89957121619255
 10
-78.79172556431225
 20
-14.91428083259572
 10
-78.68103140821124
 20
-14.94066656473764
 10
-78.50360023762577
 20
-14.98290663050566
 10
-78.3407642117163
 20
-15.04306152092272
 10
-78.17689794030146
 20
-15.10195722238263
 10
-78.09173097842037
 20
-15.13257840827131
 10
-77.99900888282398
 20
-15.15432803563838
 10
-77.91807737469288
 20
-15.18975703389555
 10
-77.68140708747562
 20
-15.29346841488949
 10
-77.46207926628759
 20
-15.4163538094877
 10
-77.2689082337955
 20
-15.56533875691985
 10
-76.85394823807012
 20
-15.88557340189686
 10
-76.46554568207195
 20
-16.32800661112959
 10
-76.10702024576635
 20
-16.8405537506767
 10
-75.74849480946075
 20
-17.35304365435925
 10
-75.41990372870841
 20
-17.93570472422393
 10
-75.12439497589065
 20
-18.5362233828577
 10
-74.53349194197845
 20
-19.73726070013937
 10
-74.07514716325315
 20
-21.00995731599668
 10
-73.77591807944003
 20
-21.93706380023081
 10
-73.77591807944003
 20
-21.93706380023081
 10
-71.6122880438006
 20
-27.12269008611441
 10
-73.77591807944003
 20
-31.01987989423471
 97
        0
 97
        1
330
7D
 92
        1
 93
        1
 72
     4
 94
        3
 73
     0
 74
     0
 95
       44
 96
       40
 40
0.0
 40
0.0
 40
0.0
 40
0.0
 40
1.0
 40
1.0
 40
1.0
 40
2.0
 40
2.0
 40
2.0
 40
3.0
 40
3.0
 40
3.0
 40
4.0
 40
4.0
 40
4.0
 40
5.0
 40
5.0
 40
5.0
 40
6.0
 40
6.0
 40
6.0
 40
7.0
 40
7.0
 40
7.0
 40
8.0
 40
8.0
 40
8.0
 40
9.0
 40
9.0
 40
9.0
 40
10.0
 40
10.0
 40
10.0
 40
11.0
 40
11.0
 40
11.0
 40
12.0
 40
12.0
 40
12.0
 40
13.0
 40
13.0
 40
13.0
 40
13.0
 10
-162.0944582011854
 20
14.47633403700209
 10
-162.0944582011854
 20
14.47633403700209
 10
-162.0945154370513
 20
14.47633403700209
 10
-162.0945154370513
 20
14.47633403700209
 10
-162.0945154370513
 20
14.47633403700209
 10
-154.6790944596649
 20
26.70946918267938
 10
-154.6790944596649
 20
26.70946918267938
 10
-154.6790944596649
 20
26.70946918267938
 10
-160.5514938474348
 20
39.75289241932722
 10
-160.5514938474348
 20
39.75289241932722
 10
-160.5514938474348
 20
39.75289241932722
 10
-146.6263521647009
 20
36.48060374683961
 10
-146.6263521647009
 20
36.48060374683961
 10
-146.6263521647009
 20
36.48060374683961
 10
-136.0356000641671
 20
46.0970870132714
 10
-136.0356000641671
 20
46.0970870132714
 10
-136.0356000641671
 20
46.0970870132714
 10
-134.8449796736786
 20
31.84186611738907
 10
-134.8449796736786
 20
31.84186611738907
 10
-134.8449796736786
 20
31.84186611738907
 10
-131.1135449203928
 20
29.70851385247028
 10
-131.1135449203928
 20
29.70851385247028
 10
-131.1135449203928
 20
29.70851385247028
 10
-123.4365560560491
 20
25.31932457907157
 10
-123.4365560560491
 20
25.31932457907157
 10
-123.4365560560491
 20
25.31932457907157
 10
-122.4260569216267
 20
24.7415857933064
 10
-122.4260569216267
 20
24.7415857933064
 10
-122.4260569216267
 20
24.7415857933064
 10
-135.6164046146879
 20
19.20378725173734
 10
-135.6164046146879
 20
19.20378725173734
 10
-135.6164046146879
 20
19.20378725173734
 10
-138.5310263887974
 20
5.198572598796893
 10
-138.5310263887974
 20
5.198572598796893
 10
-138.5310263887974
 20
5.198572598796893
 10
-147.8734643504712
 20
16.03148962925473
 10
-147.8734643504712
 20
16.03148962925473
 10
-147.8734643504712
 20
16.03148962925473
 10
-162.0944582011854
 20
14.47633403700209
 10
-162.0944582011854
 20
14.47633403700209
 97
        0
 97
        1
330
7E
 92
        1
 93
        1
 72
     4
 94
        3
 73
     0
 74
     0
 95
       29
 96
       25
 40
0.0
 40
0.0
 40
0.0
 40
0.0
 40
1.0
 40
1.0
 40
1.0
 40
2.0
 40
2.0
 40
2.0
 40
3.0
 40
3.0
 40
3.0
 40
4.0
 40
4.0
 40
4.0
 40
5.0
 40
5.0
 40
5.0
 40
6.0
 40
6.0
 40
6.0
 40
7.0
 40
7.0
 40
7.0
 40
8.0
 40
8.0
 40
8.0
 40
8.0
 10
-131.1135449203928
 20
46.80286242117323
 10
-131.1135449203928
 20
46.80286242117323
 10
-111.7792136768476
 20
46.80286242117323
 10
-111.7792136768476
 20
46.80286242117323
 10
-99.61481880079944
 20
46.80286242117323
 10
-98.05382515067549
 20
41.12546561345914
 10
-98.05382515067549
 20
36.18051612510257
 10
-98.05382515067549
 20
33.51870515114282
 10
-99.00617264982926
 20
31.04914943590531
 10
-100.9690192833986
 20
28.62904550497796
 10
-102.7483677450653
 20
26.43324891518279
 10
-106.1032477656715
 20
25.31932457907157
 10
-110.9433983916652
 20
25.31932457907157
 10
-110.9433983916652
 20
25.31932457907157
 10
-115.8791329063289
 20
25.31932457907157
 10
-115.8791329063289
 20
25.31932457907157
 10
-115.8791329063289
 20
25.31932457907157
 10
-120.5643460552949
 20
27.99796289630017
 10
-120.5643460552949
 20
27.99796289630017
 10
-120.5643460552949
 20
27.99796289630017
 10
-131.1135449203928
 20
34.02930627140185
 10
-131.1135449203928
 20
34.02930627140185
 10
-131.1135449203928
 20
34.02930627140185
 10
-131.1135449203928
 20
46.80286242117323
 10
-131.1135449203928
 20
46.80286242117323
 97
        0
 97
        1
330
7F
 92
        1
 93
        1
 72
     4
 94
        3
 73
     0
 74
     0
 95
       35
 96
       31
 40
0.0
 40
0.0
 40
0.0
 40
0.0
 40
1.0
 40
1.0
 40
1.0
 40
2.0
 40
2.0
 40
2.0
 40
3.0
 40
3.0
 40
3.0
 40
4.0
 40
4.0
 40
4.0
 40
5.0
 40
5.0
 40
5.0
 40
6.0
 40
6.0
 40
6.0
 40
7.0
 40
7.0
 40
7.0
 40
8.0
 40
8.0
 40
8.0
 40
9.0
 40
9.0
 40
9.0
 40
10.0
 40
10.0
 40
10.0
 40
10.0
 10
-66.1968597740809
 20
6.718871551414736
 10
-60.48889901634012
 20
9.51896436670037
 10
-55.89045543337402
 20
13.39657951019281
 10
-52.46569042590104
 20
18.30518422651787
 10
-47.55857384197785
 20
25.34988852910276
 10
-45.06864216004731
 20
33.3323451861667
 10
-45.06864216004731
 20
42.0282468565711
 10
-45.06864216004731
 20
53.87961880618861
 10
-49.30300842814258
 20
64.55147412244233
 10
-57.65818501516069
 20
73.74836128836877
 10
-66.08914188277593
 20
83.02818321758214
 10
-79.4795861475695
 20
87.73434469185195
 10
-97.45977414438261
 20
87.73434469185195
 10
-97.45977414438261
 20
87.73434469185195
 10
-183.1435758546591
 20
87.73434469185195
 10
-183.1435758546591
 20
87.73434469185195
 10
-183.1435758546591
 20
87.73434469185195
 10
-183.1435758546591
 20
-81.12878913794752
 10
-183.1435758546591
 20
-81.12878913794752
 10
-183.1435758546591
 20
-81.12878913794752
 10
-102.5910835977201
 20
-81.12878913794752
 10
-102.5910835977201
 20
-81.12878913794752
 10
-77.04208251475222
 20
-81.12878913794752
 10
-60.67817801025221
 20
-76.0891715346994
 10
-52.56470846626072
 20
-65.72307019047001
 10
-44.73953595654164
 20
-55.72533885072214
 10
-40.77309075602897
 20
-44.20599213354627
 10
-40.77309075602897
 20
-31.48532191978846
 10
-40.77309075602897
 20
-12.73342280264587
 10
-49.31754633695916
 20
0.0847773190742393
 10
-66.1968597740809
 20
6.718871551414736
 97
        0
 97
        1
330
80
 75
     2
 76
     1
 98
        1
 10
0.0
 20
0.0
450
        0
451
        0
460
0.0
461
0.0
452
        0
462
0.0
453
        0
470

  0
SPLINE
  5
82
330
79
100
AcDbEntity
  8
Layer 1
100
AcDbSpline
210
0.0
220
0.0
230
1.0
 70
     9
 71
     3
 72
    20
 73
    16
 74
     0
 42
0.0000000001
 43
0.0000000001
 40
0.0
 40
0.0
 40
0.0
 40
0.0
 40
1.0
 40
1.0
 40
1.0
 40
2.0
 40
2.0
 40
2.0
 40
3.0
 40
3.0
 40
3.0
 40
4.0
 40
4.0
 40
4.0
 40
5.0
 40
5.0
 40
5.0
 40
5.0
 10
-101.744965857472
 20
-11.05938832610092
 30
0.0
 10
-95.70652523554992
 20
-11.4683957922304
 30
0.0
 10
-90.27146506534295
 20
-11.41997425342562
 30
0.0
 10
-90.42279668309447
 20
-6.613421078115041
 30
0.0
 10
-90.57344147050738
 20
-1.807840912461974
 30
0.0
 10
-100.6576561969503
 20
1.522370451847281
 30
0.0
 10
-104.5228511585063
 20
-0.4443109844350217
 30
0.0
 10
-106.286345286543
 20
-1.341368641403483
 30
0.0
 10
-108.0307798727096
 20
-2.820515009613611
 30
0.0
 10
-108.241407842953
 20
-4.697851266131341
 30
0.0
 10
-108.3082593291601
 20
-5.295679839280916
 30
0.0
 10
-108.2202878100635
 20
-5.933115628579496
 30
0.0
 10
-107.9285566241105
 20
-6.606610010602268
 30
0.0
 10
-106.7989496619514
 20
-9.207235848633795
 30
0.0
 10
-104.599146561858
 20
-10.86575940672132
 30
0.0
 10
-101.744965857472
 20
-11.05938832610092
 30
0.0
  0
HATCH
  5
83
330
79
100
AcDbEntity
  8
Layer 1
 62
     7
440
 33554687
100
AcDbHatch
 10
0.0
 20
0.0
 30
0.0
210
0.0
220
0.0
230
1.0
  2
SOLID
 70
     1
 71
     1
 91
        1
 92
        1
 93
        1
 72
     4
 94
        3
 73
     0
 74
     0
 95
       20
 96
       16
 40
0.0
 40
0.0
 40
0.0
 40
0.0
 40
1.0
 40
1.0
 40
1.0
 40
2.0
 40
2.0
 40
2.0
 40
3.0
 40
3.0
 40
3.0
 40
4.0
 40
4.0
 40
4.0
 40
5.0
 40
5.0
 40
5.0
 40
5.0
 10
-101.744965857472
 20
-11.05938832610092
 10
-95.70652523554992
 20
-11.4683957922304
 10
-90.27146506534295
 20
-11.41997425342562
 10
-90.42279668309447
 20
-6.613421078115041
 10
-90.57344147050738
 20
-1.807840912461974
 10
-100.6576561969503
 20
1.522370451847281
 10
-104.5228511585063
 20
-0.4443109844350217
 10
-106.286345286543
 20
-1.341368641403483
 10
-108.0307798727096
 20
-2.820515009613611
 10
-108.241407842953
 20
-4.697851266131341
 10
-108.3082593291601
 20
-5.295679839280916
 10
-108.2202878100635
 20
-5.933115628579496
 10
-107.9285566241105
 20
-6.606610010602268
 10
-106.7989496619514
 20
-9.207235848633795
 10
-104.599146561858
 20
-10.86575940672132
 10
-101.744965857472
 20
-11.05938832610092
 97
        0
 97
        1
330
82
 75
     2
 76
     1
 98
        1
 10
0.0
 20
0.0
450
        0
451
        0
460
0.0
461
0.0
452
        0
462
0.0
453
        0
470

  0
SPLINE
  5
84
330
79
100
AcDbEntity
  8
Layer 1
100
AcDbSpline
210
0.0
220
0.0
230
1.0
 70
     9
 71
     3
 72
    14
 73
    10
 74
     0
 42
0.0000000001
 43
0.0000000001
 40
0.0
 40
0.0
 40
0.0
 40
0.0
 40
1.0
 40
1.0
 40
1.0
 40
2.0
 40
2.0
 40
2.0
 40
3.0
 40
3.0
 40
3.0
 40
3.0
 10
-111.6437363927206
 20
-21.61196410702847
 30
0.0
 10
-115.5689145371074
 20
-18.59271517814075
 30
0.0
 10
-127.1937469469879
 20
-19.19603839399103
 30
0.0
 10
-129.3076962548642
 20
-25.68772980297193
 30
0.0
 10
-129.3076962548642
 20
-25.68772980297193
 30
0.0
 10
-133.2328171633864
 20
-37.52118692794103
 30
0.0
 10
-119.7960690866634
 20
-35.22660124124117
 30
0.0
 10
-106.3599506044054
 20
-32.93407604554821
 30
0.0
 10
-107.7185582483344
 20
-24.63178539453855
 30
0.0
 10
-111.6437363927206
 20
-21.61196410702847
 30
0.0
  0
HATCH
  5
85
330
79
100
AcDbEntity
  8
Layer 1
 62
     7
440
 33554687
100
AcDbHatch
 10
0.0
 20
0.0
 30
0.0
210
0.0
220
0.0
230
1.0
  2
SOLID
 70
     1
 71
     1
 91
        1
 92
        1
 93
        1
 72
     4
 94
        3
 73
     0
 74
     0
 95
       14
 96
       10
 40
0.0
 40
0.0
 40
0.0
 40
0.0
 40
1.0
 40
1.0
 40
1.0
 40
2.0
 40
2.0
 40
2.0
 40
3.0
 40
3.0
 40
3.0
 40
3.0
 10
-111.6437363927206
 20
-21.61196410702847
 10
-115.5689145371074
 20
-18.59271517814075
 10
-127.1937469469879
 20
-19.19603839399103
 10
-129.3076962548642
 20
-25.68772980297193
 10
-129.3076962548642
 20
-25.68772980297193
 10
-133.2328171633864
 20
-37.52118692794103
 10
-119.7960690866634
 20
-35.22660124124117
 10
-106.3599506044054
 20
-32.93407604554821
 10
-107.7185582483344
 20
-24.63178539453855
 10
-111.6437363927206
 20
-21.61196410702847
 97
        0
 97
        1
330
84
 75
     2
 76
     1
 98
        1
 10
0.0
 20
0.0
450
        0
451
        0
460
0.0
461
0.0
452
        0
462
0.0
453
        0
470

  0
SPLINE
  5
86
330
79
100
AcDbEntity
  8
Layer 1
100
AcDbSpline
210
0.0
220
0.0
230
1.0
 70
     9
 71
     3
 72
    26
 73
    22
 74
     0
 42
0.0000000001
 43
0.0000000001
 40
0.0
 40
0.0
 40
0.0
 40
0.0
 40
1.0
 40
1.0
 40
1.0
 40
2.0
 40
2.0
 40
2.0
 40
3.0
 40
3.0
 40
3.0
 40
4.0
 40
4.0
 40
4.0
 40
5.0
 40
5.0
 40
5.0
 40
6.0
 40
6.0
 40
6.0
 40
7.0
 40
7.0
 40
7.0
 40
7.0
 10
-95.890595766068
 20
-56.73251830517243
 30
0.0
 10
-97.05557449061585
 20
-58.35973384702752
 30
0.0
 10
-98.50759106048343
 20
-63.18534656420365
 30
0.0
 10
-95.41067306756477
 20
-63.94475197431003
 30
0.0
 10
-94.88851030328904
 20
-64.07158664334831
 30
0.0
 10
-94.25387907120695
 20
-63.80635566125377
 30
0.0
 10
-93.76439798383643
 20
-63.65983185586624
 30
0.0
 10
-92.37648557882661
 20
-63.24332649188214
 30
0.0
 10
-91.01450101906669
 20
-62.42531155962062
 30
0.0
 10
-89.9435608149286
 20
-61.40479614944569
 30
0.0
 10
-89.03488427808401
 20
-60.53767284803562
 30
0.0
 10
-87.45196929301283
 20
-58.94600077615909
 30
0.0
 10
-87.16092493739166
 20
-57.62007480912981
 30
0.0
 10
-87.09819443321052
 20
-57.33172053899799
 30
0.0
 10
-87.1111297379045
 20
-57.06585996242743
 30
0.0
 10
-87.18135813993962
 20
-56.82111941874217
 30
0.0
 10
-87.48058722375402
 20
-55.77879714534269
 30
0.0
 10
-88.82557273265398
 20
-55.11966896454864
 30
0.0
 10
-89.88563812311145
 20
-54.8162616628469
 30
0.0
 10
-90.67297463361974
 20
-54.5920115575722
 30
0.0
 10
-92.96275250795819
 20
-52.63963908665214
 30
0.0
 10
-95.890595766068
 20
-56.73251830517243
 30
0.0
  0
HATCH
  5
87
330
79
100
AcDbEntity
  8
Layer 1
 62
     7
440
 33554687
100
AcDbHatch
 10
0.0
 20
0.0
 30
0.0
210
0.0
220
0.0
230
1.0
  2
SOLID
 70
     1
 71
     1
 91
        1
 92
        1
 93
        1
 72
     4
 94
        3
 73
     0
 74
     0
 95
       26
 96
       22
 40
0.0
 40
0.0
 40
0.0
 40
0.0
 40
1.0
 40
1.0
 40
1.0
 40
2.0
 40
2.0
 40
2.0
 40
3.0
 40
3.0
 40
3.0
 40
4.0
 40
4.0
 40
4.0
 40
5.0
 40
5.0
 40
5.0
 40
6.0
 40
6.0
 40
6.0
 40
7.0
 40
7.0
 40
7.0
 40
7.0
 10
-95.890595766068
 20
-56.73251830517243
 10
-97.05557449061585
 20
-58.35973384702752
 10
-98.50759106048343
 20
-63.18534656420365
 10
-95.41067306756477
 20
-63.94475197431003
 10
-94.88851030328904
 20
-64.07158664334831
 10
-94.25387907120695
 20
-63.80635566125377
 10
-93.76439798383643
 20
-63.65983185586624
 10
-92.37648557882661
 20
-63.24332649188214
 10
-91.01450101906669
 20
-62.42531155962062
 10
-89.9435608149286
 20
-61.40479614944569
 10
-89.03488427808401
 20
-60.53767284803562
 10
-87.45196929301283
 20
-58.94600077615909
 10
-87.16092493739166
 20
-57.62007480912981
 10
-87.09819443321052
 20
-57.33172053899799
 10
-87.1111297379045
 20
-57.06585996242743
 10
-87.18135813993962
 20
-56.82111941874217
 10
-87.48058722375402
 20
-55.77879714534269
 10
-88.82557273265398
 20
-55.11966896454864
 10
-89.88563812311145
 20
-54.8162616628469
 10
-90.67297463361974
 20
-54.5920115575722
 10
-92.96275250795819
 20
-52.63963908665214
 10
-95.890595766068
 20
-56.73251830517243
 97
        0
 97
        1
330
86
 75
     2
 76
     1
 98
        1
 10
0.0
 20
0.0
450
        0
451
        0
460
0.0
461
0.0
452
        0
462
0.0
453
        0
470

  0
SPLINE
  5
88
330
79
100
AcDbEntity
  8
Layer 1
100
AcDbSpline
210
0.0
220
0.0
230
1.0
 70
     9
 71
     3
 72
    23
 73
    19
 74
     0
 42
0.0000000001
 43
0.0000000001
 40
0.0
 40
0.0
 40
0.0
 40
0.0
 40
1.0
 40
1.0
 40
1.0
 40
2.0
 40
2.0
 40
2.0
 40
3.0
 40
3.0
 40
3.0
 40
4.0
 40
4.0
 40
4.0
 40
5.0
 40
5.0
 40
5.0
 40
6.0
 40
6.0
 40
6.0
 40
6.0
 10
-129.813489562756
 20
-5.750418758736753
 30
0.0
 10
-129.9811906368873
 20
-5.370029223344609
 30
0.0
 10
-130.4385624059743
 20
-5.251436518358991
 30
0.0
 10
-131.3772877700891
 20
-5.627705071725769
 30
0.0
 10
-132.2545990548431
 20
-5.978103015699466
 30
0.0
 10
-132.9812655521835
 20
-6.676151582295547
 30
0.0
 10
-133.5491025339224
 20
-7.417127045013033
 30
0.0
 10
-134.7550048994278
 20
-8.991857301885197
 30
0.0
 10
-135.5430854761389
 20
-10.88281569344002
 30
0.0
 10
-136.216579858162
 20
-12.73290767989896
 30
0.0
 10
-137.1839231530215
 20
-15.38876612425766
 30
0.0
 10
-137.1839231530215
 20
-16.3649809776474
 30
0.0
 10
-134.6486606688017
 20
-15.38126822640177
 30
0.0
 10
-132.7202127879828
 20
-14.63010478034355
 30
0.0
 10
-131.6233447385902
 20
-11.48751256996563
 30
0.0
 10
-130.927986257479
 20
-9.765571677365384
 30
0.0
 10
-130.5865171078918
 20
-8.918881578498766
 30
0.0
 10
-129.4262317239846
 20
-6.632480619994708
 30
0.0
 10
-129.813489562756
 20
-5.750418758736753
 30
0.0
  0
HATCH
  5
89
330
79
100
AcDbEntity
  8
Layer 1
 62
     7
440
 33554687
100
AcDbHatch
 10
0.0
 20
0.0
 30
0.0
210
0.0
220
0.0
230
1.0
  2
SOLID
 70
     1
 71
     1
 91
        1
 92
        1
 93
        1
 72
     4
 94
        3
 73
     0
 74
     0
 95
       23
 96
       19
 40
0.0
 40
0.0
 40
0.0
 40
0.0
 40
1.0
 40
1.0
 40
1.0
 40
2.0
 40
2.0
 40
2.0
 40
3.0
 40
3.0
 40
3.0
 40
4.0
 40
4.0
 40
4.0
 40
5.0
 40
5.0
 40
5.0
 40
6.0
 40
6.0
 40
6.0
 40
6.0
 10
-129.813489562756
 20
-5.750418758736753
 10
-129.9811906368873
 20
-5.370029223344609
 10
-130.4385624059743
 20
-5.251436518358991
 10
-131.3772877700891
 20
-5.627705071725769
 10
-132.2545990548431
 20
-5.978103015699466
 10
-132.9812655521835
 20
-6.676151582295547
 10
-133.5491025339224
 20
-7.417127045013033
 10
-134.7550048994278
 20
-8.991857301885197
 10
-135.5430854761389
 20
-10.88281569344002
 10
-136.216579858162
 20
-12.73290767989896
 10
-137.1839231530215
 20
-15.38876612425766
 10
-137.1839231530215
 20
-16.3649809776474
 10
-134.6486606688017
 20
-15.38126822640177
 10
-132.7202127879828
 20
-14.63010478034355
 10
-131.6233447385902
 20
-11.48751256996563
 10
-130.927986257479
 20
-9.765571677365384
 10
-130.5865171078918
 20
-8.918881578498766
 10
-129.4262317239846
 20
-6.632480619994708
 10
-129.813489562756
 20
-5.750418758736753
 97
        0
 97
        1
330
88
 75
     2
 76
     1
 98
        1
 10
0.0
 20
0.0
450
        0
451
        0
460
0.0
461
0.0
452
        0
462
0.0
453
        0
470

  0
ENDBLK
  5
7C
330
79
100
AcDbEntity
  8
0
100
AcDbBlockEnd
  0
ENDSEC
  0
SECTION
  2
ENTITIES
  0
INSERT
  5
7A
330
70
100
AcDbEntity
  8
Layer 1
100
AcDbBlockReference
  2
Block_0
 10
0.0
 20
0.0
 30
0.0
  0
ENDSEC
  0
SECTION
  2
OBJECTS
  0
DICTIONARY
  5
C
330
0
100
AcDbDictionary
281
     1
  3
ACAD_COLOR
350
63
  3
ACAD_DETAILVIEWSTYLE
350
6A
  3
ACAD_GROUP
350
D
  3
ACAD_LAYOUT
350
62
  3
ACAD_MATERIAL
350
10
  3
ACAD_MLEADERSTYLE
350
66
  3
ACAD_MLINESTYLE
350
5F
  3
ACAD_PLOTSETTINGS
350
61
  3
ACAD_PLOTSTYLENAME
350
E
  3
ACAD_SCALELIST
350
42
  3
ACAD_SECTIONVIEWSTYLE
350
68
  3
ACAD_TABLESTYLE
350
64
  3
ACAD_VISUALSTYLE
350
29
  3
ACDB_RECOMPOSE_DATA
350
92
  3
AcDbVariableDictionary
350
8A
  0
DICTIONARY
  5
63
102
{ACAD_REACTORS
330
C
102
}
330
C
100
AcDbDictionary
281
     1
  0
DICTIONARY
  5
6A
102
{ACAD_REACTORS
330
C
102
}
330
C
100
AcDbDictionary
281
     1
  3
Imperial24
350
6B
  0
DICTIONARY
  5
D
102
{ACAD_REACTORS
330
C
102
}
330
C
100
AcDbDictionary
281
     1
  0
DICTIONARY
  5
62
102
{ACAD_REACTORS
330
C
102
}
330
C
100
AcDbDictionary
281
     1
  3
Layout1
350
6F
  3
Layout2
350
77
  3
Model
350
73
  0
DICTIONARY
  5
10
102
{ACAD_REACTORS
330
C
102
}
330
C
100
AcDbDictionary
281
     1
  3
ByBlock
350
19
  3
ByLayer
350
11
  3
Global
350
21
  0
DICTIONARY
  5
66
102
{ACAD_REACTORS
330
C
102
}
330
C
100
AcDbDictionary
281
     1
  3
Standard
350
67
  0
DICTIONARY
  5
5F
102
{ACAD_REACTORS
330
C
102
}
330
C
100
AcDbDictionary
281
     1
  3
Standard
350
60
  0
DICTIONARY
  5
61
102
{ACAD_REACTORS
330
C
102
}
330
C
100
AcDbDictionary
281
     1
  0
ACDBDICTIONARYWDFLT
  5
E
102
{ACAD_REACTORS
330
C
102
}
330
C
100
AcDbDictionary
281
     1
  3
Normal
350
F
100
AcDbDictionaryWithDefault
340
F
  0
DICTIONARY
  5
42
102
{ACAD_REACTORS
330
C
102
}
330
C
100
AcDbDictionary
281
     1
  3
A0
350
43
  3
A1
350
44
  3
A2
350
45
  3
A3
350
46
  3
A4
350
47
  3
A5
350
48
  3
A6
350
49
  3
A7
350
4A
  3
A8
350
4B
  3
A9
350
4C
  3
B0
350
4D
  3
B1
350
4E
  3
B2
350
4F
  3
B3
350
50
  3
B4
350
51
  3
B5
350
52
  3
B6
350
53
  0
DICTIONARY
  5
68
102
{ACAD_REACTORS
330
C
102
}
330
C
100
AcDbDictionary
281
     1
  3
Imperial24
350
69
  0
DICTIONARY
  5
64
102
{ACAD_REACTORS
330
C
102
}
330
C
100
AcDbDictionary
281
     1
  3
Standard
350
65
  0
DICTIONARY
  5
29
102
{ACAD_REACTORS
330
C
102
}
330
C
100
AcDbDictionary
281
     1
  3
2dWireframe
350
2F
  3
Basic
350
2E
  3
Brighten
350
35
  3
ColorChange
350
39
  3
Conceptual
350
32
  3
Dim
350
34
  3
EdgeColorOff
350
41
  3
Facepattern
350
38
  3
Flat
350
2A
  3
FlatWithEdges
350
2B
  3
Gouraud
350
2C
  3
GouraudWithEdges
350
2D
  3
Hidden
350
31
  3
JitterOff
350
3F
  3
Linepattern
350
37
  3
OverhangOff
350
40
  3
Realistic
350
33
  3
Shaded
350
3E
  3
Shaded with edges
350
3D
  3
Shades of Gray
350
3A
  3
Sketchy
350
3B
  3
Thicken
350
36
  3
Wireframe
350
30
  3
X-Ray
350
3C
  0
XRECORD
  5
92
102
{ACAD_REACTORS
330
C
102
}
330
C
100
AcDbXrecord
280
     1
 90
        1
330
65
  0
DICTIONARY
  5
8A
102
{ACAD_REACTORS
330
C
102
}
330
C
100
AcDbDictionary
281
     1
  3
CANNOSCALE
350
8F
  3
CMLEADERSTYLE
350
8C
  3
CTABLESTYLE
350
8B
  3
CVIEWDETAILSTYLE
350
8D
  3
CVIEWSECTIONSTYLE
350
8E
  0
ACDBDETAILVIEWSTYLE
  5
6B
102
{ACAD_XDICTIONARY
360
95
102
}
102
{ACAD_REACTORS
330
6A
102
}
330
6A
100
AcDbModelDocViewStyle
 70
     0
  3
Imperial24
290
     0
100
AcDbDetailViewStyle
 70
     0
 71
     0
 90
        3
 71
     1
340
55
 62
   256
 40
0.24
340
0
 62
   256
 40
0.24
300

 40
0.36
280
     3
 71
     2
340
5D
 90
       25
 62
   256
 71
     3
340
55
 62
   256
 40
0.24
 90
        1
 40
0.75
 90
        1
300
%<\AcVar ViewType \f "%tc1">% %<\AcVar ViewDetailId>%\PSCALE %<\AcVar ViewScale \f "%sn">%
 71
     4
340
5D
 90
       25
 62
   256
340
5D
 90
       25
 62
   256
280
     0
  0
LAYOUT
  5
6F
102
{ACAD_REACTORS
330
62
102
}
330
62
100
AcDbPlotSettings
  1

  2

  4

  6

 40
0.0
 41
0.0
 42
0.0
 43
0.0
 44
0.0
 45
0.0
 46
0.0
 47
0.0
 48
0.0
 49
0.0
140
0.0
141
0.0
142
1.0
143
1.0
 70
   688
 72
     0
 73
     0
 74
     5
  7

 75
    16
147
1.0
 76
     0
 77
     2
 78
   300
148
0.0
149
0.0
100
AcDbLayout
  1
Layout1
 70
     1
 71
     1
 10
0.0
 20
0.0
 11
12.0
 21
9.0
 12
0.0
 22
0.0
 32
0.0
 14
0.0
 24
0.0
 34
0.0
 15
0.0
 25
0.0
 35
0.0
146
0.0
 13
0.0
 23
0.0
 33
0.0
 16
1.0
 26
0.0
 36
0.0
 17
0.0
 27
1.0
 37
0.0
 76
     0
330
6C
  0
LAYOUT
  5
77
102
{ACAD_REACTORS
330
62
102
}
330
62
100
AcDbPlotSettings
  1

  2

  4

  6

 40
0.0
 41
0.0
 42
0.0
 43
0.0
 44
0.0
 45
0.0
 46
0.0
 47
0.0
 48
0.0
 49
0.0
140
0.0
141
0.0
142
1.0
143
1.0
 70
   688
 72
     0
 73
     0
 74
     5
  7

 75
    16
147
1.0
 76
     0
 77
     2
 78
   300
148
0.0
149
0.0
100
AcDbLayout
  1
Layout2
 70
     1
 71
     2
 10
0.0
 20
0.0
 11
12.0
 21
9.0
 12
0.0
 22
0.0
 32
0.0
 14
0.0
 24
0.0
 34
0.0
 15
0.0
 25
0.0
 35
0.0
146
0.0
 13
0.0
 23
0.0
 33
0.0
 16
1.0
 26
0.0
 36
0.0
 17
0.0
 27
1.0
 37
0.0
 76
     0
330
74
  0
LAYOUT
  5
73
102
{ACAD_REACTORS
330
62
102
}
330
62
100
AcDbPlotSettings
  1

  2

  4

  6

 40
0.0
 41
0.0
 42
0.0
 43
0.0
 44
0.0
 45
0.0
 46
0.0
 47
0.0
 48
0.0
 49
0.0
140
0.0
141
0.0
142
1.0
143
1.0
 70
  1712
 72
     0
 73
     0
 74
     0
  7

 75
     0
147
1.0
 76
     0
 77
     2
 78
   300
148
0.0
149
0.0
100
AcDbLayout
  1
Model
 70
     1
 71
     0
 10
0.0
 20
0.0
 11
12.0
 21
9.0
 12
0.0
 22
0.0
 32
0.0
 14
0.0
 24
0.0
 34
0.0
 15
0.0
 25
0.0
 35
0.0
146
0.0
 13
0.0
 23
0.0
 33
0.0
 16
1.0
 26
0.0
 36
0.0
 17
0.0
 27
1.0
 37
0.0
 76
     0
330
70
  0
MATERIAL
  5
19
102
{ACAD_XDICTIONARY
360
1A
102
}
102
{ACAD_REACTORS
330
10
102
}
330
10
100
AcDbMaterial
  1
ByBlock
 72
     0
 43
0.0208333333333333
 43
0.0
 43
0.0
 43
0.0
 43
0.0
 43
0.0208333333333333
 43
0.0
 43
0.0
 43
0.0
 43
0.0
 43
1.0
 43
0.0
 43
0.0
 43
0.0
 43
0.0
 43
1.0
 77
     0
 47
0.0208333333333333
 47
0.0
 47
0.0
 47
0.0
 47
0.0
 47
0.0208333333333333
 47
0.0
 47
0.0
 47
0.0
 47
0.0
 47
1.0
 47
0.0
 47
0.0
 47
0.0
 47
0.0
 47
1.0
171
     0
 49
0.0208333333333333
 49
0.0
 49
0.0
 49
0.0
 49
0.0
 49
0.0208333333333333
 49
0.0
 49
0.0
 49
0.0
 49
0.0
 49
1.0
 49
0.0
 49
0.0
 49
0.0
 49
0.0
 49
1.0
175
     0
142
0.0208333333333333
142
0.0
142
0.0
142
0.0
142
0.0
142
0.0208333333333333
142
0.0
142
0.0
142
0.0
142
0.0
142
1.0
142
0.0
142
0.0
142
0.0
142
0.0
142
1.0
179
     0
144
0.0208333333333333
144
0.0
144
0.0
144
0.0
144
0.0
144
0.0208333333333333
144
0.0
144
0.0
144
0.0
144
0.0
144
1.0
144
0.0
144
0.0
144
0.0
144
0.0
144
1.0
147
0.0208333333333333
147
0.0
147
0.0
147
0.0
147
0.0
147
0.0208333333333333
147
0.0
147
0.0
147
0.0
147
0.0
147
1.0
147
0.0
147
0.0
147
0.0
147
0.0
147
1.0
  0
MATERIAL
  5
11
102
{ACAD_XDICTIONARY
360
12
102
}
102
{ACAD_REACTORS
330
10
102
}
330
10
100
AcDbMaterial
  1
ByLayer
 72
     0
 43
0.0208333333333333
 43
0.0
 43
0.0
 43
0.0
 43
0.0
 43
0.0208333333333333
 43
0.0
 43
0.0
 43
0.0
 43
0.0
 43
1.0
 43
0.0
 43
0.0
 43
0.0
 43
0.0
 43
1.0
 77
     0
 47
0.0208333333333333
 47
0.0
 47
0.0
 47
0.0
 47
0.0
 47
0.0208333333333333
 47
0.0
 47
0.0
 47
0.0
 47
0.0
 47
1.0
 47
0.0
 47
0.0
 47
0.0
 47
0.0
 47
1.0
171
     0
 49
0.0208333333333333
 49
0.0
 49
0.0
 49
0.0
 49
0.0
 49
0.0208333333333333
 49
0.0
 49
0.0
 49
0.0
 49
0.0
 49
1.0
 49
0.0
 49
0.0
 49
0.0
 49
0.0
 49
1.0
175
     0
142
0.0208333333333333
142
0.0
142
0.0
142
0.0
142
0.0
142
0.0208333333333333
142
0.0
142
0.0
142
0.0
142
0.0
142
1.0
142
0.0
142
0.0
142
0.0
142
0.0
142
1.0
179
     0
144
0.0208333333333333
144
0.0
144
0.0
144
0.0
144
0.0
144
0.0208333333333333
144
0.0
144
0.0
144
0.0
144
0.0
144
1.0
144
0.0
144
0.0
144
0.0
144
0.0
144
1.0
147
0.0208333333333333
147
0.0
147
0.0
147
0.0
147
0.0
147
0.0208333333333333
147
0.0
147
0.0
147
0.0
147
0.0
147
1.0
147
0.0
147
0.0
147
0.0
147
0.0
147
1.0
  0
MATERIAL
  5
21
102
{ACAD_XDICTIONARY
360
22
102
}
102
{ACAD_REACTORS
330
10
102
}
330
10
100
AcDbMaterial
  1
Global
 72
     0
 43
0.0208333333333333
 43
0.0
 43
0.0
 43
0.0
 43
0.0
 43
0.0208333333333333
 43
0.0
 43
0.0
 43
0.0
 43
0.0
 43
1.0
 43
0.0
 43
0.0
 43
0.0
 43
0.0
 43
1.0
 77
     0
 47
0.0208333333333333
 47
0.0
 47
0.0
 47
0.0
 47
0.0
 47
0.0208333333333333
 47
0.0
 47
0.0
 47
0.0
 47
0.0
 47
1.0
 47
0.0
 47
0.0
 47
0.0
 47
0.0
 47
1.0
171
     0
 49
0.0208333333333333
 49
0.0
 49
0.0
 49
0.0
 49
0.0
 49
0.0208333333333333
 49
0.0
 49
0.0
 49
0.0
 49
0.0
 49
1.0
 49
0.0
 49
0.0
 49
0.0
 49
0.0
 49
1.0
175
     0
142
0.0208333333333333
142
0.0
142
0.0
142
0.0
142
0.0
142
0.0208333333333333
142
0.0
142
0.0
142
0.0
142
0.0
142
1.0
142
0.0
142
0.0
142
0.0
142
0.0
142
1.0
179
     0
144
0.0208333333333333
144
0.0
144
0.0
144
0.0
144
0.0
144
0.0208333333333333
144
0.0
144
0.0
144
0.0
144
0.0
144
1.0
144
0.0
144
0.0
144
0.0
144
0.0
144
1.0
147
0.0208333333333333
147
0.0
147
0.0
147
0.0
147
0.0
147
0.0208333333333333
147
0.0
147
0.0
147
0.0
147
0.0
147
1.0
147
0.0
147
0.0
147
0.0
147
0.0
147
1.0
  0
MLEADERSTYLE
  5
67
102
{ACAD_REACTORS
330
66
102
}
330
66
100
AcDbMLeaderStyle
179
     2
170
     2
171
     1
172
     0
 90
        2
 40
0.0
 41
0.0
173
     1
 91
-1056964608
340
5B
 92
       -2
290
     1
 42
0.09
291
     1
 43
0.36
  3
Standard
 44
0.18
300

342
55
174
     1
178
     6
175
     1
176
     0
 93
-1056964608
 45
0.18
292
     0
297
     0
 46
0.18
 94
-1056964608
 47
1.0
 49
1.0
140
1.0
293
     1
141
0.0
294
     1
177
     0
142
1.0
295
     0
296
     0
143
0.125
271
     0
272
     9
273
     9
298
     1
  0
MLINESTYLE
  5
60
102
{ACAD_REACTORS
330
5F
102
}
330
5F
100
AcDbMlineStyle
  2
STANDARD
 70
     0
  3

 62
   256
 51
90.0
 52
90.0
 71
     2
 49
0.5
 62
   256
  6
BYLAYER
 49
-0.5
 62
   256
  6
BYLAYER
  0
ACDBPLACEHOLDER
  5
F
102
{ACAD_REACTORS
330
E
102
}
330
E
  0
SCALE
  5
43
102
{ACAD_REACTORS
330
42
102
}
330
42
100
AcDbScale
 70
     0
300
1:1
140
1.0
141
1.0
290
     1
  0
SCALE
  5
44
102
{ACAD_REACTORS
330
42
102
}
330
42
100
AcDbScale
 70
     0
300
1/128" = 1'-0"
140
0.0078125
141
12.0
290
     0
  0
SCALE
  5
45
102
{ACAD_REACTORS
330
42
102
}
330
42
100
AcDbScale
 70
     0
300
1/64" = 1'-0"
140
0.015625
141
12.0
290
     0
  0
SCALE
  5
46
102
{ACAD_REACTORS
330
42
102
}
330
42
100
AcDbScale
 70
     0
300
1/32" = 1'-0"
140
0.03125
141
12.0
290
     0
  0
SCALE
  5
47
102
{ACAD_REACTORS
330
42
102
}
330
42
100
AcDbScale
 70
     0
300
1/16" = 1'-0"
140
0.0625
141
12.0
290
     0
  0
SCALE
  5
48
102
{ACAD_REACTORS
330
42
102
}
330
42
100
AcDbScale
 70
     0
300
3/32" = 1'-0"
140
0.09375
141
12.0
290
     0
  0
SCALE
  5
49
102
{ACAD_REACTORS
330
42
102
}
330
42
100
AcDbScale
 70
     0
300
1/8" = 1'-0"
140
0.125
141
12.0
290
     0
  0
SCALE
  5
4A
102
{ACAD_REACTORS
330
42
102
}
330
42
100
AcDbScale
 70
     0
300
3/16" = 1'-0"
140
0.1875
141
12.0
290
     0
  0
SCALE
  5
4B
102
{ACAD_REACTORS
330
42
102
}
330
42
100
AcDbScale
 70
     0
300
1/4" = 1'-0"
140
0.25
141
12.0
290
     0
  0
SCALE
  5
4C
102
{ACAD_REACTORS
330
42
102
}
330
42
100
AcDbScale
 70
     0
300
3/8" = 1'-0"
140
0.375
141
12.0
290
     0
  0
SCALE
  5
4D
102
{ACAD_REACTORS
330
42
102
}
330
42
100
AcDbScale
 70
     0
300
1/2" = 1'-0"
140
0.5
141
12.0
290
     0
  0
SCALE
  5
4E
102
{ACAD_REACTORS
330
42
102
}
330
42
100
AcDbScale
 70
     0
300
3/4" = 1'-0"
140
0.75
141
12.0
290
     0
  0
SCALE
  5
4F
102
{ACAD_REACTORS
330
42
102
}
330
42
100
AcDbScale
 70
     0
300
1" = 1'-0"
140
1.0
141
12.0
290
     0
  0
SCALE
  5
50
102
{ACAD_REACTORS
330
42
102
}
330
42
100
AcDbScale
 70
     0
300
1-1/2" = 1'-0"
140
1.5
141
12.0
290
     0
  0
SCALE
  5
51
102
{ACAD_REACTORS
330
42
102
}
330
42
100
AcDbScale
 70
     0
300
3" = 1'-0"
140
3.0
141
12.0
290
     0
  0
SCALE
  5
52
102
{ACAD_REACTORS
330
42
102
}
330
42
100
AcDbScale
 70
     0
300
6" = 1'-0"
140
6.0
141
12.0
290
     0
  0
SCALE
  5
53
102
{ACAD_REACTORS
330
42
102
}
330
42
100
AcDbScale
 70
     0
300
1'-0" = 1'-0"
140
12.0
141
12.0
290
     0
  0
ACDBSECTIONVIEWSTYLE
  5
69
102
{ACAD_XDICTIONARY
360
93
102
}
102
{ACAD_REACTORS
330
68
102
}
330
68
100
AcDbModelDocViewStyle
 70
     0
  3
Imperial24
290
     0
100
AcDbSectionViewStyle
 70
     0
 71
     0
 90
       78
 71
     1
340
55
 62
   256
 40
0.24
340
0
340
0
 62
   256
 40
0.24
300
I, O, Q, S, X, Z
 40
0.48
 90
        3
 40
0.18
 90
        1
 71
     2
340
5D
 90
       25
 62
   256
340
5D
 90
       50
 62
   256
 40
0.24
 40
0.0
 40
0.24
 71
     3
340
55
 62
   256
 40
0.24
 90
        1
 40
0.75
 90
        1
300
%<\AcVar ViewType \f "%tc1">% %<\AcVar ViewSectionStartId>%-%<\AcVar ViewSectionEndId>%\PSCALE %<\AcVar ViewScale \f "%sn">%
 71
     4
 62
   256
 62
   257
300
ANSI31
 40
1.0
 90
        0
290
     0
290
     0
 90
        6
 40
0.0
 40
1.570796326794896
 40
0.2617993877991494
 40
1.308996938995747
 40
-0.2617993877991494
 40
1.832595714594046
  0
TABLESTYLE
  5
65
102
{ACAD_XDICTIONARY
360
90
102
}
102
{ACAD_REACTORS
330
64
102
}
330
64
100
AcDbTableStyle
280
     0
  3
Standard
 70
     0
 71
     0
 40
0.06
 41
0.06
280
     0
281
     0
  7
Standard
140
0.18
170
     2
 62
     0
 63
     7
283
     0
 90
      512
 91
        0
  1

274
    -2
284
     1
 64
     0
275
    -2
285
     1
 65
     0
276
    -2
286
     1
 66
     0
277
    -2
287
     1
 67
     0
278
    -2
288
     1
 68
     0
279
    -2
289
     1
 69
     0
  7
Standard
140
0.25
170
     5
 62
     0
 63
     7
283
     0
 90
      512
 91
        0
  1

274
    -2
284
     1
 64
     0
275
    -2
285
     1
 65
     0
276
    -2
286
     1
 66
     0
277
    -2
287
     1
 67
     0
278
    -2
288
     1
 68
     0
279
    -2
289
     1
 69
     0
  7
Standard
140
0.18
170
     5
 62
     0
 63
     7
283
     0
 90
      512
 91
        0
  1

274
    -2
284
     1
 64
     0
275
    -2
285
     1
 65
     0
276
    -2
286
     1
 66
     0
277
    -2
287
     1
 67
     0
278
    -2
288
     1
 68
     0
279
    -2
289
     1
 69
     0
  0
VISUALSTYLE
  5
2F
102
{ACAD_REACTORS
330
29
102
}
330
29
100
AcDbVisualStyle
  2
2dWireframe
 70
     4
177
     3
291
     0
 70
    58
 90
        0
176
     1
 90
        2
176
     1
 90
        0
176
     1
 90
        0
176
     1
 40
0.6
176
     1
 40
30.0
176
     1
 62
     7
420
 16777215
176
     1
 90
        1
176
     1
 90
        4
176
     1
 62
     7
176
     1
 62
   257
176
     1
 90
        1
176
     1
 90
        1
176
     1
 40
1.0
176
     1
 90
        0
176
     1
 62
   257
176
     1
 40
1.0
176
     1
 90
        1
176
     1
 90
        6
176
     1
 90
        2
176
     1
 62
     7
176
     1
 90
        5
176
     1
 90
        0
176
     1
 90
        0
176
     1
290
     0
176
     1
 90
        1
176
     1
 40
0.0
176
     1
 90
        0
176
     1
290
     1
176
     1
290
     1
176
     1
290
     0
176
     1
290
     0
176
     1
290
     0
176
     1
290
     0
176
     1
290
     0
176
     1
290
     0
176
     1
290
     0
176
     1
 90
       50
176
     1
 40
0.0
176
     1
 40
1.0
176
     1
 90
        0
176
     1
 62
    18
420
        0
176
     1
 90
       50
176
     1
 90
        3
176
     1
 62
     5
420
      255
176
     1
290
     0
176
     1
 90
       50
176
     1
 90
       50
176
     1
 90
       50
176
     1
290
     0
176
     1
 90
       50
176
     1
 62
   256
176
     0
 40
1.0
176
     0
 90
        2
176
     1
  1
strokes_ogs.tif
176
     1
290
     0
176
     1
 40
1.0
176
     1
 40
1.0
176
     1
1001
ACAD
1000
AcDbSavedByObjectVersion
1070
     0
  0
VISUALSTYLE
  5
2E
102
{ACAD_REACTORS
330
29
102
}
330
29
100
AcDbVisualStyle
  2
Basic
 70
     7
177
     3
291
     1
 70
    58
 90
        1
176
     1
 90
        0
176
     1
 90
        1
176
     1
 90
        0
176
     1
 40
0.6
176
     1
 40
30.0
176
     1
 62
     7
420
 16777215
176
     1
 90
        0
176
     1
 90
        4
176
     1
 62
     7
176
     1
 62
   257
176
     1
 90
        1
176
     1
 90
        1
176
     1
 40
1.0
176
     1
 90
        8
176
     1
 62
     7
176
     1
 40
1.0
176
     1
 90
        1
176
     1
 90
        6
176
     1
 90
        2
176
     1
 62
     7
176
     1
 90
        5
176
     1
 90
        0
176
     1
 90
        0
176
     1
290
     0
176
     1
 90
        1
176
     1
 40
0.0
176
     1
 90
        0
176
     1
290
     0
176
     1
290
     1
176
     1
290
     1
176
     1
290
     0
176
     1
290
     0
176
     1
290
     0
176
     1
290
     0
176
     1
290
     0
176
     1
290
     0
176
     1
 90
       50
176
     1
 40
0.0
176
     1
 40
1.0
176
     1
 90
        0
176
     1
 62
    18
420
        0
176
     1
 90
       50
176
     1
 90
        3
176
     1
 62
     5
420
      255
176
     1
290
     0
176
     1
 90
       50
176
     1
 90
       50
176
     1
 90
       50
176
     1
290
     0
176
     1
 90
       50
176
     1
 62
   256
176
     0
 40
1.0
176
     0
 90
        2
176
     1
  1
strokes_ogs.tif
176
     1
290
     0
176
     1
 40
1.0
176
     1
 40
1.0
176
     1
1001
ACAD
1000
AcDbSavedByObjectVersion
1070
     0
  0
VISUALSTYLE
  5
35
102
{ACAD_REACTORS
330
29
102
}
330
29
100
AcDbVisualStyle
  2
Brighten
 70
    12
177
     3
291
     1
 70
    58
 90
        2
176
     1
 90
        2
176
     1
 90
        0
176
     1
 90
        0
176
     1
 40
0.6
176
     1
 40
30.0
176
     1
 62
     7
420
 16777215
176
     1
 90
        1
176
     1
 90
        4
176
     1
 62
     7
176
     1
 62
   257
176
     1
 90
        1
176
     1
 90
        1
176
     1
 40
1.0
176
     1
 90
        8
176
     1
 62
     7
176
     1
 40
1.0
176
     1
 90
        1
176
     1
 90
        6
176
     1
 90
        2
176
     1
 62
     7
176
     1
 90
        5
176
     1
 90
        0
176
     1
 90
        0
176
     1
290
     0
176
     1
 90
        1
176
     1
 40
50.0
176
     1
 90
        0
176
     1
290
     0
176
     1
290
     1
176
     1
290
     1
176
     1
290
     0
176
     1
290
     0
176
     1
290
     0
176
     1
290
     0
176
     1
290
     0
176
     1
290
     0
176
     1
 90
       50
176
     1
 40
0.0
176
     1
 40
1.0
176
     1
 90
        0
176
     1
 62
    18
420
        0
176
     1
 90
       50
176
     1
 90
        3
176
     1
 62
     5
420
      255
176
     1
290
     0
176
     1
 90
       50
176
     1
 90
       50
176
     1
 90
       50
176
     1
290
     0
176
     1
 90
       50
176
     1
 62
   256
176
     0
 40
1.0
176
     0
 90
        2
176
     1
  1
strokes_ogs.tif
176
     1
290
     0
176
     1
 40
1.0
176
     1
 40
1.0
176
     1
1001
ACAD
1000
AcDbSavedByObjectVersion
1070
     0
  0
VISUALSTYLE
  5
39
102
{ACAD_REACTORS
330
29
102
}
330
29
100
AcDbVisualStyle
  2
ColorChange
 70
    16
177
     3
291
     1
 70
    58
 90
        2
176
     1
 90
        2
176
     1
 90
        3
176
     1
 90
        0
176
     1
 40
0.6
176
     1
 40
30.0
176
     1
 62
     8
420
  8421504
176
     1
 90
        1
176
     1
 90
        4
176
     1
 62
     7
176
     1
 62
   257
176
     1
 90
        1
176
     1
 90
        1
176
     1
 40
1.0
176
     1
 90
        8
176
     1
 62
     8
420
  8421504
176
     1
 40
1.0
176
     1
 90
        1
176
     1
 90
        6
176
     1
 90
        2
176
     1
 62
     7
176
     1
 90
        5
176
     1
 90
        0
176
     1
 90
        0
176
     1
290
     0
176
     1
 90
        1
176
     1
 40
0.0
176
     1
 90
        0
176
     1
290
     0
176
     1
290
     1
176
     1
290
     1
176
     1
290
     0
176
     1
290
     0
176
     1
290
     0
176
     1
290
     0
176
     1
290
     0
176
     1
290
     0
176
     1
 90
       50
176
     1
 40
0.0
176
     1
 40
1.0
176
     1
 90
        0
176
     1
 62
    18
420
        0
176
     1
 90
       50
176
     1
 90
        3
176
     1
 62
     5
420
      255
176
     1
290
     0
176
     1
 90
       50
176
     1
 90
       50
176
     1
 90
       50
176
     1
290
     0
176
     1
 90
       50
176
     1
 62
   256
176
     0
 40
1.0
176
     0
 90
        2
176
     1
  1
strokes_ogs.tif
176
     1
290
     0
176
     1
 40
1.0
176
     1
 40
1.0
176
     1
1001
ACAD
1000
AcDbSavedByObjectVersion
1070
     0
  0
VISUALSTYLE
  5
32
102
{ACAD_REACTORS
330
29
102
}
330
29
100
AcDbVisualStyle
  2
Conceptual
 70
     9
177
     3
291
     0
 70
    58
 90
        3
176
     1
 90
        2
176
     1
 90
        0
176
     1
 90
        0
176
     1
 40
0.6
176
     1
 40
30.0
176
     1
 62
     7
420
 16777215
176
     1
 90
        2
176
     1
 90
        2
176
     1
 62
     7
176
     1
 62
   257
176
     1
 90
        1
176
     1
 90
        1
176
     1
 40
179.0
176
     1
 90
        8
176
     1
 62
     7
176
     1
 40
1.0
176
     1
 90
        1
176
     1
 90
        6
176
     1
 90
        2
176
     1
 62
     7
176
     1
 90
        3
176
     1
 90
        0
176
     1
 90
        0
176
     1
290
     0
176
     1
 90
        1
176
     1
 40
0.0
176
     1
 90
        0
176
     1
290
     0
176
     1
290
     1
176
     1
290
     1
176
     1
290
     0
176
     1
290
     0
176
     1
290
     0
176
     1
290
     0
176
     1
290
     0
176
     1
290
     0
176
     1
 90
       50
176
     1
 40
0.0
176
     1
 40
1.0
176
     1
 90
        0
176
     1
 62
    18
420
        0
176
     1
 90
       50
176
     1
 90
        3
176
     1
 62
     5
420
      255
176
     1
290
     0
176
     1
 90
       50
176
     1
 90
       50
176
     1
 90
       50
176
     1
290
     0
176
     1
 90
       50
176
     1
 62
   256
176
     0
 40
1.0
176
     0
 90
        2
176
     1
  1
strokes_ogs.tif
176
     1
290
     0
176
     1
 40
1.0
176
     1
 40
1.0
176
     1
1001
ACAD
1000
AcDbSavedByObjectVersion
1070
     0
  0
VISUALSTYLE
  5
34
102
{ACAD_REACTORS
330
29
102
}
330
29
100
AcDbVisualStyle
  2
Dim
 70
    11
177
     3
291
     1
 70
    58
 90
        2
176
     1
 90
        2
176
     1
 90
        0
176
     1
 90
        0
176
     1
 40
0.6
176
     1
 40
30.0
176
     1
 62
     7
420
 16777215
176
     1
 90
        1
176
     1
 90
        4
176
     1
 62
     7
176
     1
 62
   257
176
     1
 90
        1
176
     1
 90
        1
176
     1
 40
1.0
176
     1
 90
        8
176
     1
 62
     7
176
     1
 40
1.0
176
     1
 90
        1
176
     1
 90
        6
176
     1
 90
        2
176
     1
 62
     7
176
     1
 90
        5
176
     1
 90
        0
176
     1
 90
        0
176
     1
290
     0
176
     1
 90
        1
176
     1
 40
-50.0
176
     1
 90
        0
176
     1
290
     0
176
     1
290
     1
176
     1
290
     1
176
     1
290
     0
176
     1
290
     0
176
     1
290
     0
176
     1
290
     0
176
     1
290
     0
176
     1
290
     0
176
     1
 90
       50
176
     1
 40
0.0
176
     1
 40
1.0
176
     1
 90
        0
176
     1
 62
    18
420
        0
176
     1
 90
       50
176
     1
 90
        3
176
     1
 62
     5
420
      255
176
     1
290
     0
176
     1
 90
       50
176
     1
 90
       50
176
     1
 90
       50
176
     1
290
     0
176
     1
 90
       50
176
     1
 62
   256
176
     0
 40
1.0
176
     0
 90
        2
176
     1
  1
strokes_ogs.tif
176
     1
290
     0
176
     1
 40
1.0
176
     1
 40
1.0
176
     1
1001
ACAD
1000
AcDbSavedByObjectVersion
1070
     0
  0
VISUALSTYLE
  5
41
102
{ACAD_REACTORS
330
29
102
}
330
29
100
AcDbVisualStyle
  2
EdgeColorOff
 70
    22
177
     3
291
     1
 70
    58
 90
        2
176
     0
 90
        2
176
     0
 90
        0
176
     0
 90
        0
176
     0
 40
0.6
176
     0
 40
30.0
176
     0
 62
     7
420
 16777215
176
     0
 90
        1
176
     0
 90
        4
176
     0
 62
     7
176
     0
 62
   257
176
     0
 90
        1
176
     0
 90
        1
176
     0
 40
1.0
176
     0
 90
        8
176
     2
 62
     7
176
     0
 40
1.0
176
     0
 90
        1
176
     0
 90
        6
176
     0
 90
        2
176
     0
 62
     7
176
     0
 90
        5
176
     0
 90
        0
176
     0
 90
        0
176
     0
290
     0
176
     0
 90
        1
176
     0
 40
0.0
176
     0
 90
        0
176
     0
290
     0
176
     0
290
     1
176
     0
290
     1
176
     0
290
     0
176
     0
290
     0
176
     0
290
     0
176
     0
290
     0
176
     0
290
     0
176
     0
290
     0
176
     0
 90
       50
176
     0
 40
0.0
176
     0
 40
1.0
176
     0
 90
        0
176
     0
 62
    18
420
        0
176
     0
 90
       50
176
     0
 90
        3
176
     0
 62
     5
420
      255
176
     0
290
     0
176
     0
 90
       50
176
     0
 90
       50
176
     0
 90
       50
176
     0
290
     0
176
     0
 90
       50
176
     0
 62
   256
176
     0
 40
1.0
176
     0
 90
        2
176
     0
  1
strokes_ogs.tif
176
     0
290
     0
176
     0
 40
1.0
176
     0
 40
1.0
176
     0
1001
ACAD
1000
AcDbSavedByObjectVersion
1070
     0
  0
VISUALSTYLE
  5
38
102
{ACAD_REACTORS
330
29
102
}
330
29
100
AcDbVisualStyle
  2
Facepattern
 70
    15
177
     3
291
     1
 70
    58
 90
        2
176
     1
 90
        2
176
     1
 90
        0
176
     1
 90
        0
176
     1
 40
0.6
176
     1
 40
30.0
176
     1
 62
     7
420
 16777215
176
     1
 90
        1
176
     1
 90
        4
176
     1
 62
     7
176
     1
 62
   257
176
     1
 90
        1
176
     1
 90
        1
176
     1
 40
1.0
176
     1
 90
        8
176
     1
 62
     7
176
     1
 40
1.0
176
     1
 90
        1
176
     1
 90
        6
176
     1
 90
        2
176
     1
 62
     7
176
     1
 90
        5
176
     1
 90
        0
176
     1
 90
        0
176
     1
290
     0
176
     1
 90
        1
176
     1
 40
0.0
176
     1
 90
        0
176
     1
290
     0
176
     1
290
     1
176
     1
290
     1
176
     1
290
     0
176
     1
290
     0
176
     1
290
     0
176
     1
290
     0
176
     1
290
     0
176
     1
290
     0
176
     1
 90
       50
176
     1
 40
0.0
176
     1
 40
1.0
176
     1
 90
        0
176
     1
 62
    18
420
        0
176
     1
 90
       50
176
     1
 90
        3
176
     1
 62
     5
420
      255
176
     1
290
     0
176
     1
 90
       50
176
     1
 90
       50
176
     1
 90
       50
176
     1
290
     0
176
     1
 90
       50
176
     1
 62
   256
176
     0
 40
1.0
176
     0
 90
        2
176
     1
  1
strokes_ogs.tif
176
     1
290
     0
176
     1
 40
1.0
176
     1
 40
1.0
176
     1
1001
ACAD
1000
AcDbSavedByObjectVersion
1070
     0
  0
VISUALSTYLE
  5
2A
102
{ACAD_REACTORS
330
29
102
}
330
29
100
AcDbVisualStyle
  2
Flat
 70
     0
177
     3
291
     1
 70
    58
 90
        2
176
     1
 90
        1
176
     1
 90
        1
176
     1
 90
        2
176
     1
 40
0.6
176
     1
 40
30.0
176
     1
 62
     7
420
 16777215
176
     1
 90
        0
176
     1
 90
        0
176
     1
 62
     7
176
     1
 62
   257
176
     1
 90
        1
176
     1
 90
        1
176
     1
 40
1.0
176
     1
 90
        8
176
     1
 62
     7
176
     1
 40
1.0
176
     1
 90
        1
176
     1
 90
        6
176
     1
 90
        2
176
     1
 62
     7
176
     1
 90
        5
176
     1
 90
        0
176
     1
 90
        0
176
     1
290
     0
176
     1
 90
       13
176
     1
 40
0.0
176
     1
 90
        0
176
     1
290
     0
176
     1
290
     1
176
     1
290
     1
176
     1
290
     0
176
     1
290
     0
176
     1
290
     0
176
     1
290
     0
176
     1
290
     0
176
     1
290
     0
176
     1
 90
       50
176
     1
 40
0.0
176
     1
 40
1.0
176
     1
 90
        0
176
     1
 62
    18
420
        0
176
     1
 90
       50
176
     1
 90
        3
176
     1
 62
     5
420
      255
176
     1
290
     0
176
     1
 90
       50
176
     1
 90
       50
176
     1
 90
       50
176
     1
290
     0
176
     1
 90
       50
176
     1
 62
   256
176
     0
 40
1.0
176
     0
 90
        2
176
     1
  1
strokes_ogs.tif
176
     1
290
     0
176
     1
 40
1.0
176
     1
 40
1.0
176
     1
1001
ACAD
1000
AcDbSavedByObjectVersion
1070
     0
  0
VISUALSTYLE
  5
2B
102
{ACAD_REACTORS
330
29
102
}
330
29
100
AcDbVisualStyle
  2
FlatWithEdges
 70
     1
177
     3
291
     1
 70
    58
 90
        2
176
     1
 90
        1
176
     1
 90
        1
176
     1
 90
        2
176
     1
 40
0.6
176
     1
 40
30.0
176
     1
 62
     7
420
 16777215
176
     1
 90
        1
176
     1
 90
        0
176
     1
 62
     7
176
     1
 62
   257
176
     1
 90
        1
176
     1
 90
        1
176
     1
 40
1.0
176
     1
 90
        0
176
     1
 62
   257
176
     1
 40
1.0
176
     1
 90
        1
176
     1
 90
        6
176
     1
 90
        2
176
     1
 62
     7
176
     1
 90
        5
176
     1
 90
        0
176
     1
 90
        0
176
     1
290
     0
176
     1
 90
       13
176
     1
 40
0.0
176
     1
 90
        0
176
     1
290
     0
176
     1
290
     1
176
     1
290
     1
176
     1
290
     0
176
     1
290
     0
176
     1
290
     0
176
     1
290
     0
176
     1
290
     0
176
     1
290
     0
176
     1
 90
       50
176
     1
 40
0.0
176
     1
 40
1.0
176
     1
 90
        0
176
     1
 62
    18
420
        0
176
     1
 90
       50
176
     1
 90
        3
176
     1
 62
     5
420
      255
176
     1
290
     0
176
     1
 90
       50
176
     1
 90
       50
176
     1
 90
       50
176
     1
290
     0
176
     1
 90
       50
176
     1
 62
   256
176
     0
 40
1.0
176
     0
 90
        2
176
     1
  1
strokes_ogs.tif
176
     1
290
     0
176
     1
 40
1.0
176
     1
 40
1.0
176
     1
1001
ACAD
1000
AcDbSavedByObjectVersion
1070
     0
  0
VISUALSTYLE
  5
2C
102
{ACAD_REACTORS
330
29
102
}
330
29
100
AcDbVisualStyle
  2
Gouraud
 70
     2
177
     3
291
     1
 70
    58
 90
        2
176
     1
 90
        2
176
     1
 90
        1
176
     1
 90
        2
176
     1
 40
0.6
176
     1
 40
30.0
176
     1
 62
     7
420
 16777215
176
     1
 90
        0
176
     1
 90
        0
176
     1
 62
     7
176
     1
 62
   257
176
     1
 90
        1
176
     1
 90
        1
176
     1
 40
1.0
176
     1
 90
        0
176
     1
 62
     7
176
     1
 40
1.0
176
     1
 90
        1
176
     1
 90
        6
176
     1
 90
        2
176
     1
 62
     7
176
     1
 90
        5
176
     1
 90
        0
176
     1
 90
        0
176
     1
290
     0
176
     1
 90
       13
176
     1
 40
0.0
176
     1
 90
        0
176
     1
290
     0
176
     1
290
     1
176
     1
290
     1
176
     1
290
     0
176
     1
290
     0
176
     1
290
     0
176
     1
290
     0
176
     1
290
     0
176
     1
290
     0
176
     1
 90
       50
176
     1
 40
0.0
176
     1
 40
1.0
176
     1
 90
        0
176
     1
 62
    18
420
        0
176
     1
 90
       50
176
     1
 90
        3
176
     1
 62
     5
420
      255
176
     1
290
     0
176
     1
 90
       50
176
     1
 90
       50
176
     1
 90
       50
176
     1
290
     0
176
     1
 90
       50
176
     1
 62
   256
176
     0
 40
1.0
176
     0
 90
        2
176
     1
  1
strokes_ogs.tif
176
     1
290
     0
176
     1
 40
1.0
176
     1
 40
1.0
176
     1
1001
ACAD
1000
AcDbSavedByObjectVersion
1070
     0
  0
VISUALSTYLE
  5
2D
102
{ACAD_REACTORS
330
29
102
}
330
29
100
AcDbVisualStyle
  2
GouraudWithEdges
 70
     3
177
     3
291
     1
 70
    58
 90
        2
176
     1
 90
        2
176
     1
 90
        1
176
     1
 90
        2
176
     1
 40
0.6
176
     1
 40
30.0
176
     1
 62
     7
420
 16777215
176
     1
 90
        1
176
     1
 90
        0
176
     1
 62
     7
176
     1
 62
   257
176
     1
 90
        1
176
     1
 90
        1
176
     1
 40
1.0
176
     1
 90
        0
176
     1
 62
   257
176
     1
 40
1.0
176
     1
 90
        1
176
     1
 90
        6
176
     1
 90
        2
176
     1
 62
     7
176
     1
 90
        5
176
     1
 90
        0
176
     1
 90
        0
176
     1
290
     0
176
     1
 90
       13
176
     1
 40
0.0
176
     1
 90
        0
176
     1
290
     0
176
     1
290
     1
176
     1
290
     1
176
     1
290
     0
176
     1
290
     0
176
     1
290
     0
176
     1
290
     0
176
     1
290
     0
176
     1
290
     0
176
     1
 90
       50
176
     1
 40
0.0
176
     1
 40
1.0
176
     1
 90
        0
176
     1
 62
    18
420
        0
176
     1
 90
       50
176
     1
 90
        3
176
     1
 62
     5
420
      255
176
     1
290
     0
176
     1
 90
       50
176
     1
 90
       50
176
     1
 90
       50
176
     1
290
     0
176
     1
 90
       50
176
     1
 62
   256
176
     0
 40
1.0
176
     0
 90
        2
176
     1
  1
strokes_ogs.tif
176
     1
290
     0
176
     1
 40
1.0
176
     1
 40
1.0
176
     1
1001
ACAD
1000
AcDbSavedByObjectVersion
1070
     0
  0
VISUALSTYLE
  5
31
102
{ACAD_REACTORS
330
29
102
}
330
29
100
AcDbVisualStyle
  2
Hidden
 70
     6
177
     3
291
     0
 70
    58
 90
        1
176
     1
 90
        2
176
     1
 90
        2
176
     1
 90
        0
176
     1
 40
0.6
176
     1
 40
30.0
176
     1
 62
     7
420
 16777215
176
     1
 90
        2
176
     1
 90
        2
176
     1
 62
     7
176
     1
 62
   257
176
     1
 90
        2
176
     1
 90
        1
176
     1
 40
40.0
176
     1
 90
        0
176
     1
 62
   257
176
     1
 40
1.0
176
     1
 90
        1
176
     1
 90
        6
176
     1
 90
        2
176
     1
 62
     7
176
     1
 90
        3
176
     1
 90
        0
176
     1
 90
        0
176
     1
290
     0
176
     1
 90
        1
176
     1
 40
0.0
176
     1
 90
        0
176
     1
290
     0
176
     1
290
     1
176
     1
290
     1
176
     1
290
     0
176
     1
290
     0
176
     1
290
     0
176
     1
290
     0
176
     1
290
     0
176
     1
290
     0
176
     1
 90
       50
176
     1
 40
0.0
176
     1
 40
1.0
176
     1
 90
        0
176
     1
 62
    18
420
        0
176
     1
 90
       50
176
     1
 90
        3
176
     1
 62
     5
420
      255
176
     1
290
     0
176
     1
 90
       50
176
     1
 90
       50
176
     1
 90
       50
176
     1
290
     0
176
     1
 90
       50
176
     1
 62
   256
176
     0
 40
1.0
176
     0
 90
        2
176
     1
  1
strokes_ogs.tif
176
     1
290
     0
176
     1
 40
1.0
176
     1
 40
1.0
176
     1
1001
ACAD
1000
AcDbSavedByObjectVersion
1070
     0
  0
VISUALSTYLE
  5
3F
102
{ACAD_REACTORS
330
29
102
}
330
29
100
AcDbVisualStyle
  2
JitterOff
 70
    20
177
     3
291
     1
 70
    58
 90
        2
176
     0
 90
        2
176
     0
 90
        0
176
     0
 90
        0
176
     0
 40
0.6
176
     0
 40
30.0
176
     0
 62
     7
420
 16777215
176
     0
 90
        1
176
     0
 90
        4
176
     0
 62
     7
176
     0
 62
   257
176
     0
 90
        1
176
     0
 90
        1
176
     0
 40
1.0
176
     0
 90
       10
176
     2
 62
     7
176
     0
 40
1.0
176
     0
 90
        1
176
     0
 90
        6
176
     0
 90
        2
176
     0
 62
     7
176
     0
 90
        5
176
     0
 90
        0
176
     0
 90
        0
176
     0
290
     0
176
     0
 90
        1
176
     0
 40
0.0
176
     0
 90
        0
176
     0
290
     0
176
     0
290
     1
176
     0
290
     1
176
     0
290
     0
176
     0
290
     0
176
     0
290
     0
176
     0
290
     0
176
     0
290
     0
176
     0
290
     0
176
     0
 90
       50
176
     0
 40
0.0
176
     0
 40
1.0
176
     0
 90
        0
176
     0
 62
    18
420
        0
176
     0
 90
       50
176
     0
 90
        3
176
     0
 62
     5
420
      255
176
     0
290
     0
176
     0
 90
       50
176
     0
 90
       50
176
     0
 90
       50
176
     0
290
     0
176
     0
 90
       50
176
     0
 62
   256
176
     0
 40
1.0
176
     0
 90
        2
176
     0
  1
strokes_ogs.tif
176
     0
290
     0
176
     0
 40
1.0
176
     0
 40
1.0
176
     0
1001
ACAD
1000
AcDbSavedByObjectVersion
1070
     0
  0
VISUALSTYLE
  5
37
102
{ACAD_REACTORS
330
29
102
}
330
29
100
AcDbVisualStyle
  2
Linepattern
 70
    14
177
     3
291
     1
 70
    58
 90
        2
176
     1
 90
        2
176
     1
 90
        0
176
     1
 90
        0
176
     1
 40
0.6
176
     1
 40
30.0
176
     1
 62
     7
420
 16777215
176
     1
 90
        1
176
     1
 90
        4
176
     1
 62
     7
176
     1
 62
   257
176
     1
 90
        7
176
     1
 90
        7
176
     1
 40
1.0
176
     1
 90
        8
176
     1
 62
     7
176
     1
 40
1.0
176
     1
 90
        1
176
     1
 90
        6
176
     1
 90
        2
176
     1
 62
     7
176
     1
 90
        5
176
     1
 90
        0
176
     1
 90
        0
176
     1
290
     0
176
     1
 90
        1
176
     1
 40
0.0
176
     1
 90
        0
176
     1
290
     0
176
     1
290
     1
176
     1
290
     1
176
     1
290
     0
176
     1
290
     0
176
     1
290
     0
176
     1
290
     0
176
     1
290
     0
176
     1
290
     0
176
     1
 90
       50
176
     1
 40
0.0
176
     1
 40
1.0
176
     1
 90
        0
176
     1
 62
    18
420
        0
176
     1
 90
       50
176
     1
 90
        3
176
     1
 62
     5
420
      255
176
     1
290
     0
176
     1
 90
       50
176
     1
 90
       50
176
     1
 90
       50
176
     1
290
     0
176
     1
 90
       50
176
     1
 62
   256
176
     0
 40
1.0
176
     0
 90
        2
176
     1
  1
strokes_ogs.tif
176
     1
290
     0
176
     1
 40
1.0
176
     1
 40
1.0
176
     1
1001
ACAD
1000
AcDbSavedByObjectVersion
1070
     0
  0
VISUALSTYLE
  5
40
102
{ACAD_REACTORS
330
29
102
}
330
29
100
AcDbVisualStyle
  2
OverhangOff
 70
    21
177
     3
291
     1
 70
    58
 90
        2
176
     0
 90
        2
176
     0
 90
        0
176
     0
 90
        0
176
     0
 40
0.6
176
     0
 40
30.0
176
     0
 62
     7
420
 16777215
176
     0
 90
        1
176
     0
 90
        4
176
     0
 62
     7
176
     0
 62
   257
176
     0
 90
        1
176
     0
 90
        1
176
     0
 40
1.0
176
     0
 90
        9
176
     2
 62
     7
176
     0
 40
1.0
176
     0
 90
        1
176
     0
 90
        6
176
     0
 90
        2
176
     0
 62
     7
176
     0
 90
        5
176
     0
 90
        0
176
     0
 90
        0
176
     0
290
     0
176
     0
 90
        1
176
     0
 40
0.0
176
     0
 90
        0
176
     0
290
     0
176
     0
290
     1
176
     0
290
     1
176
     0
290
     0
176
     0
290
     0
176
     0
290
     0
176
     0
290
     0
176
     0
290
     0
176
     0
290
     0
176
     0
 90
       50
176
     0
 40
0.0
176
     0
 40
1.0
176
     0
 90
        0
176
     0
 62
    18
420
        0
176
     0
 90
       50
176
     0
 90
        3
176
     0
 62
     5
420
      255
176
     0
290
     0
176
     0
 90
       50
176
     0
 90
       50
176
     0
 90
       50
176
     0
290
     0
176
     0
 90
       50
176
     0
 62
   256
176
     0
 40
1.0
176
     0
 90
        2
176
     0
  1
strokes_ogs.tif
176
     0
290
     0
176
     0
 40
1.0
176
     0
 40
1.0
176
     0
1001
ACAD
1000
AcDbSavedByObjectVersion
1070
     0
  0
VISUALSTYLE
  5
33
102
{ACAD_REACTORS
330
29
102
}
330
29
100
AcDbVisualStyle
  2
Realistic
 70
     8
177
     3
291
     0
 70
    58
 90
        2
176
     1
 90
        3
176
     1
 90
        0
176
     1
 90
        2
176
     1
 40
0.6
176
     1
 40
30.0
176
     1
 62
     7
420
 16777215
176
     1
 90
        0
176
     1
 90
        0
176
     1
 62
     7
176
     1
 62
   257
176
     1
 90
        1
176
     1
 90
        1
176
     1
 40
1.0
176
     1
 90
        8
176
     1
 62
   257
176
     1
 40
1.0
176
     1
 90
        1
176
     1
 90
        6
176
     1
 90
        2
176
     1
 62
     7
176
     1
 90
        3
176
     1
 90
        0
176
     1
 90
        0
176
     1
290
     0
176
     1
 90
       13
176
     1
 40
0.0
176
     1
 90
        0
176
     1
290
     0
176
     1
290
     1
176
     1
290
     1
176
     1
290
     0
176
     1
290
     0
176
     1
290
     0
176
     1
290
     0
176
     1
290
     0
176
     1
290
     0
176
     1
 90
       50
176
     1
 40
0.0
176
     1
 40
1.0
176
     1
 90
        0
176
     1
 62
    18
420
        0
176
     1
 90
       50
176
     1
 90
        3
176
     1
 62
     5
420
      255
176
     1
290
     0
176
     1
 90
       50
176
     1
 90
       50
176
     1
 90
       50
176
     1
290
     0
176
     1
 90
       50
176
     1
 62
   256
176
     0
 40
1.0
176
     0
 90
        2
176
     1
  1
strokes_ogs.tif
176
     1
290
     0
176
     1
 40
1.0
176
     1
 40
1.0
176
     1
1001
ACAD
1000
AcDbSavedByObjectVersion
1070
     0
  0
VISUALSTYLE
  5
3E
102
{ACAD_REACTORS
330
29
102
}
330
29
100
AcDbVisualStyle
  2
Shaded
 70
    27
177
     3
291
     0
 70
    58
 90
        2
176
     1
 90
        2
176
     1
 90
        1
176
     1
 90
        2
176
     1
 40
0.6
176
     1
 40
30.0
176
     1
 62
     7
420
 16777215
176
     1
 90
        0
176
     1
 90
        4
176
     1
 62
     7
176
     1
 62
   257
176
     1
 90
        1
176
     1
 90
        1
176
     1
 40
1.0
176
     1
 90
        8
176
     1
 62
   257
176
     1
 40
1.0
176
     1
 90
        1
176
     1
 90
        6
176
     1
 90
        2
176
     1
 62
     8
420
  7895160
176
     1
 90
        3
176
     1
 90
        0
176
     1
 90
        0
176
     1
290
     0
176
     1
 90
        5
176
     1
 40
0.0
176
     1
 90
        0
176
     1
290
     0
176
     1
290
     1
176
     1
290
     1
176
     1
290
     0
176
     1
290
     0
176
     1
290
     0
176
     1
290
     0
176
     1
290
     0
176
     1
290
     0
176
     1
 90
       50
176
     1
 40
0.0
176
     1
 40
1.0
176
     1
 90
        0
176
     1
 62
    18
420
        0
176
     1
 90
       50
176
     1
 90
        3
176
     1
 62
     5
420
      255
176
     1
290
     0
176
     1
 90
       50
176
     1
 90
       50
176
     1
 90
       50
176
     1
290
     0
176
     1
 90
       50
176
     1
 62
   256
176
     0
 40
1.0
176
     0
 90
        2
176
     1
  1
strokes_ogs.tif
176
     1
290
     0
176
     1
 40
1.0
176
     1
 40
1.0
176
     1
1001
ACAD
1000
AcDbSavedByObjectVersion
1070
     0
  0
VISUALSTYLE
  5
3D
102
{ACAD_REACTORS
330
29
102
}
330
29
100
AcDbVisualStyle
  2
Shaded with edges
 70
    26
177
     3
291
     0
 70
    58
 90
        2
176
     1
 90
        2
176
     1
 90
        1
176
     1
 90
        2
176
     1
 40
0.6
176
     1
 40
30.0
176
     1
 62
     7
420
 16777215
176
     1
 90
        1
176
     1
 90
        2
176
     1
 62
     7
176
     1
 62
   257
176
     1
 90
        2
176
     1
 90
        1
176
     1
 40
1.0
176
     1
 90
        8
176
     1
 62
   257
176
     1
 40
1.0
176
     1
 90
        1
176
     1
 90
        6
176
     1
 90
        2
176
     1
 62
     7
176
     1
 90
        3
176
     1
 90
        0
176
     1
 90
        0
176
     1
290
     0
176
     1
 90
        5
176
     1
 40
0.0
176
     1
 90
        0
176
     1
290
     0
176
     1
290
     1
176
     1
290
     1
176
     1
290
     0
176
     1
290
     0
176
     1
290
     0
176
     1
290
     0
176
     1
290
     0
176
     1
290
     0
176
     1
 90
       50
176
     1
 40
0.0
176
     1
 40
1.0
176
     1
 90
        0
176
     1
 62
    18
420
        0
176
     1
 90
       50
176
     1
 90
        3
176
     1
 62
     5
420
      255
176
     1
290
     0
176
     1
 90
       50
176
     1
 90
       50
176
     1
 90
       50
176
     1
290
     0
176
     1
 90
       50
176
     1
 62
   256
176
     0
 40
1.0
176
     0
 90
        2
176
     1
  1
strokes_ogs.tif
176
     1
290
     0
176
     1
 40
1.0
176
     1
 40
1.0
176
     1
1001
ACAD
1000
AcDbSavedByObjectVersion
1070
     0
  0
VISUALSTYLE
  5
3A
102
{ACAD_REACTORS
330
29
102
}
330
29
100
AcDbVisualStyle
  2
Shades of Gray
 70
    23
177
     3
291
     0
 70
    58
 90
        2
176
     1
 90
        2
176
     1
 90
        3
176
     1
 90
        0
176
     1
 40
0.6
176
     1
 40
30.0
176
     1
 62
     7
420
 16777215
176
     1
 90
        2
176
     1
 90
        2
176
     1
 62
     7
176
     1
 62
     7
176
     1
 90
        1
176
     1
 90
        1
176
     1
 40
40.0
176
     1
 90
        8
176
     1
 62
     7
176
     1
 40
1.0
176
     1
 90
        1
176
     1
 90
        6
176
     1
 90
        2
176
     1
 62
     7
176
     1
 90
        3
176
     1
 90
        0
176
     1
 90
        0
176
     1
290
     0
176
     1
 90
        1
176
     1
 40
0.0
176
     1
 90
        0
176
     1
290
     0
176
     1
290
     1
176
     1
290
     1
176
     1
290
     0
176
     1
290
     0
176
     1
290
     0
176
     1
290
     0
176
     1
290
     0
176
     1
290
     0
176
     1
 90
       50
176
     1
 40
0.0
176
     1
 40
1.0
176
     1
 90
        0
176
     1
 62
    18
420
        0
176
     1
 90
       50
176
     1
 90
        3
176
     1
 62
     5
420
      255
176
     1
290
     0
176
     1
 90
       50
176
     1
 90
       50
176
     1
 90
       50
176
     1
290
     0
176
     1
 90
       50
176
     1
 62
   256
176
     0
 40
1.0
176
     0
 90
        2
176
     1
  1
strokes_ogs.tif
176
     1
290
     0
176
     1
 40
1.0
176
     1
 40
1.0
176
     1
1001
ACAD
1000
AcDbSavedByObjectVersion
1070
     0
  0
VISUALSTYLE
  5
3B
102
{ACAD_REACTORS
330
29
102
}
330
29
100
AcDbVisualStyle
  2
Sketchy
 70
    24
177
     3
291
     0
 70
    58
 90
        1
176
     1
 90
        2
176
     1
 90
        2
176
     1
 90
        0
176
     1
 40
0.6
176
     1
 40
30.0
176
     1
 62
     7
420
 16777215
176
     1
 90
        2
176
     1
 90
        2
176
     1
 62
     7
176
     1
 62
     7
176
     1
 90
        1
176
     1
 90
        1
176
     1
 40
40.0
176
     1
 90
       11
176
     1
 62
     7
176
     1
 40
1.0
176
     1
 90
        1
176
     1
 90
        6
176
     1
 90
        2
176
     1
 62
     7
176
     1
 90
        6
176
     1
 90
        0
176
     1
 90
        0
176
     1
290
     0
176
     1
 90
        1
176
     1
 40
0.0
176
     1
 90
        0
176
     1
290
     0
176
     1
290
     1
176
     1
290
     1
176
     1
290
     0
176
     1
290
     0
176
     1
290
     0
176
     1
290
     0
176
     1
290
     0
176
     1
290
     0
176
     1
 90
       50
176
     1
 40
0.0
176
     1
 40
1.0
176
     1
 90
        0
176
     1
 62
    18
420
        0
176
     1
 90
       50
176
     1
 90
        3
176
     1
 62
     5
420
      255
176
     1
290
     0
176
     1
 90
       50
176
     1
 90
       50
176
     1
 90
       50
176
     1
290
     0
176
     1
 90
       50
176
     1
 62
   256
176
     0
 40
1.0
176
     0
 90
        2
176
     1
  1
strokes_ogs.tif
176
     1
290
     0
176
     1
 40
1.0
176
     1
 40
1.0
176
     1
1001
ACAD
1000
AcDbSavedByObjectVersion
1070
     0
  0
VISUALSTYLE
  5
36
102
{ACAD_REACTORS
330
29
102
}
330
29
100
AcDbVisualStyle
  2
Thicken
 70
    13
177
     3
291
     1
 70
    58
 90
        2
176
     1
 90
        2
176
     1
 90
        0
176
     1
 90
        0
176
     1
 40
0.6
176
     1
 40
30.0
176
     1
 62
     7
420
 16777215
176
     1
 90
        1
176
     1
 90
        4
176
     1
 62
     7
176
     1
 62
   257
176
     1
 90
        1
176
     1
 90
        1
176
     1
 40
1.0
176
     1
 90
       12
176
     1
 62
     7
176
     1
 40
1.0
176
     1
 90
        1
176
     1
 90
        6
176
     1
 90
        2
176
     1
 62
     7
176
     1
 90
        5
176
     1
 90
        0
176
     1
 90
        0
176
     1
290
     0
176
     1
 90
        1
176
     1
 40
0.0
176
     1
 90
        0
176
     1
290
     0
176
     1
290
     1
176
     1
290
     1
176
     1
290
     0
176
     1
290
     0
176
     1
290
     0
176
     1
290
     0
176
     1
290
     0
176
     1
290
     0
176
     1
 90
       50
176
     1
 40
0.0
176
     1
 40
1.0
176
     1
 90
        0
176
     1
 62
    18
420
        0
176
     1
 90
       50
176
     1
 90
        3
176
     1
 62
     5
420
      255
176
     1
290
     0
176
     1
 90
       50
176
     1
 90
       50
176
     1
 90
       50
176
     1
290
     0
176
     1
 90
       50
176
     1
 62
   256
176
     0
 40
1.0
176
     0
 90
        2
176
     1
  1
strokes_ogs.tif
176
     1
290
     0
176
     1
 40
1.0
176
     1
 40
1.0
176
     1
1001
ACAD
1000
AcDbSavedByObjectVersion
1070
     0
  0
VISUALSTYLE
  5
30
102
{ACAD_REACTORS
330
29
102
}
330
29
100
AcDbVisualStyle
  2
Wireframe
 70
     5
177
     3
291
     0
 70
    58
 90
        0
176
     1
 90
        2
176
     1
 90
        0
176
     1
 90
        0
176
     1
 40
0.6
176
     1
 40
30.0
176
     1
 62
     7
420
 16777215
176
     1
 90
        1
176
     1
 90
        4
176
     1
 62
     7
176
     1
 62
   257
176
     1
 90
        1
176
     1
 90
        1
176
     1
 40
1.0
176
     1
 90
        0
176
     1
 62
   257
176
     1
 40
1.0
176
     1
 90
        1
176
     1
 90
        6
176
     1
 90
        2
176
     1
 62
     7
176
     1
 90
        3
176
     1
 90
        0
176
     1
 90
        0
176
     1
290
     0
176
     1
 90
        1
176
     1
 40
0.0
176
     1
 90
        0
176
     1
290
     0
176
     1
290
     1
176
     1
290
     1
176
     1
290
     0
176
     1
290
     0
176
     1
290
     0
176
     1
290
     0
176
     1
290
     0
176
     1
290
     0
176
     1
 90
       50
176
     1
 40
0.0
176
     1
 40
1.0
176
     1
 90
        0
176
     1
 62
    18
420
        0
176
     1
 90
       50
176
     1
 90
        3
176
     1
 62
     5
420
      255
176
     1
290
     0
176
     1
 90
       50
176
     1
 90
       50
176
     1
 90
       50
176
     1
290
     0
176
     1
 90
       50
176
     1
 62
   256
176
     0
 40
1.0
176
     0
 90
        2
176
     1
  1
strokes_ogs.tif
176
     1
290
     0
176
     1
 40
1.0
176
     1
 40
1.0
176
     1
1001
ACAD
1000
AcDbSavedByObjectVersion
1070
     0
  0
VISUALSTYLE
  5
3C
102
{ACAD_REACTORS
330
29
102
}
330
29
100
AcDbVisualStyle
  2
X-Ray
 70
    25
177
     3
291
     0
 70
    58
 90
        2
176
     1
 90
        2
176
     1
 90
        1
176
     1
 90
        1
176
     1
 40
0.5
176
     1
 40
30.0
176
     1
 62
     7
420
 16777215
176
     1
 90
        1
176
     1
 90
        0
176
     1
 62
     7
176
     1
 62
   257
176
     1
 90
        1
176
     1
 90
        1
176
     1
 40
1.0
176
     1
 90
        8
176
     1
 62
     7
176
     1
 40
1.0
176
     1
 90
        1
176
     1
 90
        6
176
     1
 90
        2
176
     1
 62
     7
176
     1
 90
        3
176
     1
 90
        0
176
     1
 90
        0
176
     1
290
     0
176
     1
 90
       13
176
     1
 40
0.0
176
     1
 90
        0
176
     1
290
     0
176
     1
290
     1
176
     1
290
     1
176
     1
290
     0
176
     1
290
     0
176
     1
290
     0
176
     1
290
     0
176
     1
290
     0
176
     1
290
     0
176
     1
 90
       50
176
     1
 40
0.0
176
     1
 40
1.0
176
     1
 90
        0
176
     1
 62
    18
420
        0
176
     1
 90
       50
176
     1
 90
        3
176
     1
 62
     5
420
      255
176
     1
290
     0
176
     1
 90
       50
176
     1
 90
       50
176
     1
 90
       50
176
     1
290
     0
176
     1
 90
       50
176
     1
 62
   256
176
     0
 40
1.0
176
     0
 90
        2
176
     1
  1
strokes_ogs.tif
176
     1
290
     0
176
     1
 40
1.0
176
     1
 40
1.0
176
     1
1001
ACAD
1000
AcDbSavedByObjectVersion
1070
     0
  0
DICTIONARYVAR
  5
8F
102
{ACAD_REACTORS
330
8A
102
}
330
8A
100
DictionaryVariables
280
     0
  1
1:1
  0
DICTIONARYVAR
  5
8C
102
{ACAD_REACTORS
330
8A
102
}
330
8A
100
DictionaryVariables
280
     0
  1
STANDARD
  0
DICTIONARYVAR
  5
8B
102
{ACAD_REACTORS
330
8A
102
}
330
8A
100
DictionaryVariables
280
     0
  1
STANDARD
  0
DICTIONARYVAR
  5
8D
102
{ACAD_REACTORS
330
8A
102
}
330
8A
100
DictionaryVariables
280
     0
  1
Imperial24
  0
DICTIONARYVAR
  5
8E
102
{ACAD_REACTORS
330
8A
102
}
330
8A
100
DictionaryVariables
280
     0
  1
Imperial24
  0
DICTIONARY
  5
95
330
6B
100
AcDbDictionary
280
     1
281
     1
  3
ACAD_XREC_ROUNDTRIP
360
96
  0
DICTIONARY
  5
1A
330
19
100
AcDbDictionary
280
     1
281
     1
  3
BUMPTILE
360
1C
  3
DIFFUSETILE
360
1B
  3
OPACITYTILE
360
1F
  3
REFLECTIONTILE
360
1E
  3
REFRACTIONTILE
360
20
  3
SPECULARTILE
360
1D
  0
DICTIONARY
  5
12
330
11
100
AcDbDictionary
280
     1
281
     1
  3
BUMPTILE
360
14
  3
DIFFUSETILE
360
13
  3
OPACITYTILE
360
17
  3
REFLECTIONTILE
360
16
  3
REFRACTIONTILE
360
18
  3
SPECULARTILE
360
15
  0
DICTIONARY
  5
22
330
21
100
AcDbDictionary
280
     1
281
     1
  3
BUMPTILE
360
24
  3
DIFFUSETILE
360
23
  3
OPACITYTILE
360
27
  3
REFLECTIONTILE
360
26
  3
REFRACTIONTILE
360
28
  3
SPECULARTILE
360
25
  0
DICTIONARY
  5
93
330
69
100
AcDbDictionary
280
     1
281
     1
  3
ACAD_XREC_ROUNDTRIP
360
94
  0
DICTIONARY
  5
90
330
65
100
AcDbDictionary
280
     1
281
     1
  3
ACAD_ROUNDTRIP_2008_TABLESTYLE_CELLSTYLEMAP
360
91
  0
XRECORD
  5
96
102
{ACAD_REACTORS
330
95
102
}
330
95
100
AcDbXrecord
280
     1
102
DISPLAYNAME
  1
Imperial24
102
FLAGS
 90
        0
  0
XRECORD
  5
1C
102
{ACAD_REACTORS
330
1A
102
}
330
1A
100
AcDbXrecord
280
     1
270
     1
271
     1
  0
XRECORD
  5
1B
102
{ACAD_REACTORS
330
1A
102
}
330
1A
100
AcDbXrecord
280
     1
270
     1
271
     1
  0
XRECORD
  5
1F
102
{ACAD_REACTORS
330
1A
102
}
330
1A
100
AcDbXrecord
280
     1
270
     1
271
     1
  0
XRECORD
  5
1E
102
{ACAD_REACTORS
330
1A
102
}
330
1A
100
AcDbXrecord
280
     1
270
     1
271
     1
  0
XRECORD
  5
20
102
{ACAD_REACTORS
330
1A
102
}
330
1A
100
AcDbXrecord
280
     1
270
     1
271
     1
  0
XRECORD
  5
1D
102
{ACAD_REACTORS
330
1A
102
}
330
1A
100
AcDbXrecord
280
     1
270
     1
271
     1
  0
XRECORD
  5
14
102
{ACAD_REACTORS
330
12
102
}
330
12
100
AcDbXrecord
280
     1
270
     1
271
     1
  0
XRECORD
  5
13
102
{ACAD_REACTORS
330
12
102
}
330
12
100
AcDbXrecord
280
     1
270
     1
271
     1
  0
XRECORD
  5
17
102
{ACAD_REACTORS
330
12
102
}
330
12
100
AcDbXrecord
280
     1
270
     1
271
     1
  0
XRECORD
  5
16
102
{ACAD_REACTORS
330
12
102
}
330
12
100
AcDbXrecord
280
     1
270
     1
271
     1
  0
XRECORD
  5
18
102
{ACAD_REACTORS
330
12
102
}
330
12
100
AcDbXrecord
280
     1
270
     1
271
     1
  0
XRECORD
  5
15
102
{ACAD_REACTORS
330
12
102
}
330
12
100
AcDbXrecord
280
     1
270
     1
271
     1
  0
XRECORD
  5
24
102
{ACAD_REACTORS
330
22
102
}
330
22
100
AcDbXrecord
280
     1
270
     1
271
     1
  0
XRECORD
  5
23
102
{ACAD_REACTORS
330
22
102
}
330
22
100
AcDbXrecord
280
     1
270
     1
271
     1
  0
XRECORD
  5
27
102
{ACAD_REACTORS
330
22
102
}
330
22
100
AcDbXrecord
280
     1
270
     1
271
     1
  0
XRECORD
  5
26
102
{ACAD_REACTORS
330
22
102
}
330
22
100
AcDbXrecord
280
     1
270
     1
271
     1
  0
XRECORD
  5
28
102
{ACAD_REACTORS
330
22
102
}
330
22
100
AcDbXrecord
280
     1
270
     1
271
     1
  0
XRECORD
  5
25
102
{ACAD_REACTORS
330
22
102
}
330
22
100
AcDbXrecord
280
     1
270
     1
271
     1
  0
XRECORD
  5
94
102
{ACAD_REACTORS
330
93
102
}
330
93
100
AcDbXrecord
280
     1
102
DISPLAYNAME
  1
Imperial24
102
FLAGS
 90
        0
  0
CELLSTYLEMAP
  5
91
102
{ACAD_REACTORS
330
90
102
}
330
90
100
AcDbCellStyleMap
 90
        3
300
CELLSTYLE
  1
TABLEFORMAT_BEGIN
 90
        5
170
     1
 91
        0
 92
    32768
 62
   257
 93
        1
300
CONTENTFORMAT
  1
CONTENTFORMAT_BEGIN
 90
        0
 91
        0
 92
      512
 93
        0
300

 40
0.0
140
1.0
 94
        5
 62
     0
340
55
144
0.25
309
CONTENTFORMAT_END
171
     0
 94
        0
309
TABLEFORMAT_END
  1
CELLSTYLE_BEGIN
 90
        1
 91
        1
300
_TITLE
309
CELLSTYLE_END
300
CELLSTYLE
  1
TABLEFORMAT_BEGIN
 90
        5
170
     1
 91
        0
 92
        0
 62
   257
 93
        1
300
CONTENTFORMAT
  1
CONTENTFORMAT_BEGIN
 90
        0
 91
        0
 92
      512
 93
        0
300

 40
0.0
140
1.0
 94
        5
 62
     0
340
55
144
0.18
309
CONTENTFORMAT_END
171
     0
 94
        0
309
TABLEFORMAT_END
  1
CELLSTYLE_BEGIN
 90
        2
 91
        1
300
_HEADER
309
CELLSTYLE_END
300
CELLSTYLE
  1
TABLEFORMAT_BEGIN
 90
        5
170
     1
 91
        0
 92
        0
 62
   257
 93
        1
300
CONTENTFORMAT
  1
CONTENTFORMAT_BEGIN
 90
        0
 91
        0
 92
      512
 93
        0
300

 40
0.0
140
1.0
 94
        2
 62
     0
340
55
144
0.18
309
CONTENTFORMAT_END
171
     0
 94
        0
309
TABLEFORMAT_END
  1
CELLSTYLE_BEGIN
 90
        3
 91
        2
300
_DATA
309
CELLSTYLE_END
  0
ENDSEC
  0
EOF
