  0
SECTION
  2
HEADER
  9
$ACADVER
  1
AC1027
  9
$ACADMAINTVER
 70
   125
  9
$DWGCODEPAGE
  3
ANSI_1252
  9
$REQUIREDVERSIONS
160
                 0
  9
$INSBASE
 10
0.0
 20
0.0
 30
0.0
  9
$EXTMIN
 10
1.000000000000000E+20
 20
1.000000000000000E+20
 30
1.000000000000000E+20
  9
$EXTMAX
 10
-1.000000000000000E+20
 20
-1.000000000000000E+20
 30
-1.000000000000000E+20
  9
$LIMMIN
 10
0.0
 20
0.0
  9
$LIMMAX
 10
12.0
 20
9.0
  9
$ORTHOMODE
 70
     0
  9
$REGENMODE
 70
     1
  9
$FILLMODE
 70
     1
  9
$QTEXTMODE
 70
     0
  9
$MIRRTEXT
 70
     0
  9
$LTSCALE
 40
1.0
  9
$ATTMODE
 70
     1
  9
$TEXTSIZE
 40
0.2
  9
$TRACEWID
 40
0.05
  9
$TEXTSTYLE
  7
Standard
  9
$CLAYER
  8
0
  9
$CELTYPE
  6
ByLayer
  9
$CECOLOR
 62
   256
  9
$CELTSCALE
 40
1.0
  9
$DISPSILH
 70
     0
  9
$DIMSCALE
 40
1.0
  9
$DIMASZ
 40
0.18
  9
$DIMEXO
 40
0.0625
  9
$DIMDLI
 40
0.38
  9
$DIMRND
 40
0.0
  9
$DIMDLE
 40
0.0
  9
$DIMEXE
 40
0.18
  9
$DIMTP
 40
0.0
  9
$DIMTM
 40
0.0
  9
$DIMTXT
 40
0.18
  9
$DIMCEN
 40
0.09
  9
$DIMTSZ
 40
0.0
  9
$DIMTOL
 70
     0
  9
$DIMLIM
 70
     0
  9
$DIMTIH
 70
     1
  9
$DIMTOH
 70
     1
  9
$DIMSE1
 70
     0
  9
$DIMSE2
 70
     0
  9
$DIMTAD
 70
     0
  9
$DIMZIN
 70
     0
  9
$DIMBLK
  1

  9
$DIMASO
 70
     1
  9
$DIMSHO
 70
     1
  9
$DIMPOST
  1

  9
$DIMAPOST
  1

  9
$DIMALT
 70
     0
  9
$DIMALTD
 70
     2
  9
$DIMALTF
 40
25.4
  9
$DIMLFAC
 40
1.0
  9
$DIMTOFL
 70
     0
  9
$DIMTVP
 40
0.0
  9
$DIMTIX
 70
     0
  9
$DIMSOXD
 70
     0
  9
$DIMSAH
 70
     0
  9
$DIMBLK1
  1

  9
$DIMBLK2
  1

  9
$DIMSTYLE
  2
Standard
  9
$DIMCLRD
 70
     0
  9
$DIMCLRE
 70
     0
  9
$DIMCLRT
 70
     0
  9
$DIMTFAC
 40
1.0
  9
$DIMGAP
 40
0.09
  9
$DIMJUST
 70
     0
  9
$DIMSD1
 70
     0
  9
$DIMSD2
 70
     0
  9
$DIMTOLJ
 70
     1
  9
$DIMTZIN
 70
     0
  9
$DIMALTZ
 70
     0
  9
$DIMALTTZ
 70
     0
  9
$DIMUPT
 70
     0
  9
$DIMDEC
 70
     4
  9
$DIMTDEC
 70
     4
  9
$DIMALTU
 70
     2
  9
$DIMALTTD
 70
     2
  9
$DIMTXSTY
  7
Standard
  9
$DIMAUNIT
 70
     0
  9
$DIMADEC
 70
     0
  9
$DIMALTRND
 40
0.0
  9
$DIMAZIN
 70
     0
  9
$DIMDSEP
 70
    46
  9
$DIMATFIT
 70
     3
  9
$DIMFRAC
 70
     0
  9
$DIMLDRBLK
  1

  9
$DIMLUNIT
 70
     2
  9
$DIMLWD
 70
    -2
  9
$DIMLWE
 70
    -2
  9
$DIMTMOVE
 70
     0
  9
$DIMFXL
 40
1.0
  9
$DIMFXLON
 70
     0
  9
$DIMJOGANG
 40
0.7853981633974483
  9
$DIMTFILL
 70
     0
  9
$DIMTFILLCLR
 70
     0
  9
$DIMARCSYM
 70
     0
  9
$DIMLTYPE
  6

  9
$DIMLTEX1
  6

  9
$DIMLTEX2
  6

  9
$DIMTXTDIRECTION
 70
     0
  9
$LUNITS
 70
     2
  9
$LUPREC
 70
     4
  9
$SKETCHINC
 40
0.1
  9
$FILLETRAD
 40
0.0
  9
$AUNITS
 70
     0
  9
$AUPREC
 70
     0
  9
$MENU
  1
.
  9
$ELEVATION
 40
0.0
  9
$PELEVATION
 40
0.0
  9
$THICKNESS
 40
0.0
  9
$LIMCHECK
 70
     0
  9
$CHAMFERA
 40
0.0
  9
$CHAMFERB
 40
0.0
  9
$CHAMFERC
 40
0.0
  9
$CHAMFERD
 40
0.0
  9
$SKPOLY
 70
     0
  9
$TDCREATE
 40
2459734.959826389
  9
$TDUCREATE
 40
2459734.543159723
  9
$TDUPDATE
 40
2459734.959826389
  9
$TDUUPDATE
 40
2459734.543159723
  9
$TDINDWG
 40
0.0000000000
  9
$TDUSRTIMER
 40
0.0000000000
  9
$USRTIMER
 70
     1
  9
$ANGBASE
 50
0.0
  9
$ANGDIR
 70
     0
  9
$PDMODE
 70
     0
  9
$PDSIZE
 40
0.0
  9
$PLINEWID
 40
0.0
  9
$SPLFRAME
 70
     0
  9
$SPLINETYPE
 70
     6
  9
$SPLINESEGS
 70
     8
  9
$HANDSEED
  5
95
  9
$SURFTAB1
 70
     6
  9
$SURFTAB2
 70
     6
  9
$SURFTYPE
 70
     6
  9
$SURFU
 70
     6
  9
$SURFV
 70
     6
  9
$UCSBASE
  2

  9
$UCSNAME
  2

  9
$UCSORG
 10
0.0
 20
0.0
 30
0.0
  9
$UCSXDIR
 10
1.0
 20
0.0
 30
0.0
  9
$UCSYDIR
 10
0.0
 20
1.0
 30
0.0
  9
$UCSORTHOREF
  2

  9
$UCSORTHOVIEW
 70
     0
  9
$UCSORGTOP
 10
0.0
 20
0.0
 30
0.0
  9
$UCSORGBOTTOM
 10
0.0
 20
0.0
 30
0.0
  9
$UCSORGLEFT
 10
0.0
 20
0.0
 30
0.0
  9
$UCSORGRIGHT
 10
0.0
 20
0.0
 30
0.0
  9
$UCSORGFRONT
 10
0.0
 20
0.0
 30
0.0
  9
$UCSORGBACK
 10
0.0
 20
0.0
 30
0.0
  9
$PUCSBASE
  2

  9
$PUCSNAME
  2

  9
$PUCSORG
 10
0.0
 20
0.0
 30
0.0
  9
$PUCSXDIR
 10
1.0
 20
0.0
 30
0.0
  9
$PUCSYDIR
 10
0.0
 20
1.0
 30
0.0
  9
$PUCSORTHOREF
  2

  9
$PUCSORTHOVIEW
 70
     0
  9
$PUCSORGTOP
 10
0.0
 20
0.0
 30
0.0
  9
$PUCSORGBOTTOM
 10
0.0
 20
0.0
 30
0.0
  9
$PUCSORGLEFT
 10
0.0
 20
0.0
 30
0.0
  9
$PUCSORGRIGHT
 10
0.0
 20
0.0
 30
0.0
  9
$PUCSORGFRONT
 10
0.0
 20
0.0
 30
0.0
  9
$PUCSORGBACK
 10
0.0
 20
0.0
 30
0.0
  9
$USERI1
 70
     0
  9
$USERI2
 70
     0
  9
$USERI3
 70
     0
  9
$USERI4
 70
     0
  9
$USERI5
 70
     0
  9
$USERR1
 40
0.0
  9
$USERR2
 40
0.0
  9
$USERR3
 40
0.0
  9
$USERR4
 40
0.0
  9
$USERR5
 40
0.0
  9
$WORLDVIEW
 70
     1
  9
$SHADEDGE
 70
     3
  9
$SHADEDIF
 70
    70
  9
$TILEMODE
 70
     1
  9
$MAXACTVP
 70
    64
  9
$PINSBASE
 10
0.0
 20
0.0
 30
0.0
  9
$PLIMCHECK
 70
     0
  9
$PEXTMIN
 10
1.000000000000000E+20
 20
1.000000000000000E+20
 30
1.000000000000000E+20
  9
$PEXTMAX
 10
-1.000000000000000E+20
 20
-1.000000000000000E+20
 30
-1.000000000000000E+20
  9
$PLIMMIN
 10
0.0
 20
0.0
  9
$PLIMMAX
 10
12.0
 20
9.0
  9
$UNITMODE
 70
     0
  9
$VISRETAIN
 70
     1
  9
$PLINEGEN
 70
     0
  9
$PSLTSCALE
 70
     1
  9
$TREEDEPTH
 70
  3020
  9
$CMLSTYLE
  2
Standard
  9
$CMLJUST
 70
     0
  9
$CMLSCALE
 40
1.0
  9
$PROXYGRAPHICS
 70
     1
  9
$MEASUREMENT
 70
     0
  9
$CELWEIGHT
370
    -1
  9
$ENDCAPS
280
     0
  9
$JOINSTYLE
280
     0
  9
$LWDISPLAY
290
     1
  9
$INSUNITS
 70
     4
  9
$HYPERLINKBASE
  1

  9
$STYLESHEET
  1

  9
$XEDIT
290
     1
  9
$CEPSNTYPE
380
     0
  9
$PSTYLEMODE
290
     1
  9
$FINGERPRINTGUID
  2
{CE1E994C-3FA4-6A43-B42E-F20630DEEFCC}
  9
$VERSIONGUID
  2
{B80B5CA1-CC52-7A47-A74D-7A83AC06C1E5}
  9
$EXTNAMES
290
     1
  9
$PSVPSCALE
 40
0.0
  9
$OLESTARTUP
290
     0
  9
$SORTENTS
280
   127
  9
$INDEXCTL
280
     0
  9
$HIDETEXT
280
     1
  9
$XCLIPFRAME
280
     2
  9
$HALOGAP
280
     0
  9
$OBSCOLOR
 70
   257
  9
$OBSLTYPE
280
     0
  9
$INTERSECTIONDISPLAY
280
     0
  9
$INTERSECTIONCOLOR
 70
   257
  9
$DIMASSOC
280
     2
  9
$PROJECTNAME
  1

  9
$CAMERADISPLAY
290
     0
  9
$LENSLENGTH
 40
50.0
  9
$CAMERAHEIGHT
 40
0.0
  9
$STEPSPERSEC
 40
2.0
  9
$STEPSIZE
 40
6.0
  9
$3DDWFPREC
 40
2.0
  9
$PSOLWIDTH
 40
0.25
  9
$PSOLHEIGHT
 40
4.0
  9
$LOFTANG1
 40
1.570796326794896
  9
$LOFTANG2
 40
1.570796326794896
  9
$LOFTMAG1
 40
0.0
  9
$LOFTMAG2
 40
0.0
  9
$LOFTPARAM
 70
     7
  9
$LOFTNORMALS
280
     1
  9
$LATITUDE
 40
37.795
  9
$LONGITUDE
 40
-122.394
  9
$NORTHDIRECTION
 40
0.0
  9
$TIMEZONE
 70
 -8000
  9
$LIGHTGLYPHDISPLAY
280
     1
  9
$TILEMODELIGHTSYNCH
280
     1
  9
$CMATERIAL
347
11
  9
$SOLIDHIST
280
     0
  9
$SHOWHIST
280
     1
  9
$DWFFRAME
280
     2
  9
$DGNFRAME
280
     0
  9
$REALWORLDSCALE
290
     1
  9
$INTERFERECOLOR
 62
     1
  9
$INTERFEREOBJVS
345
33
  9
$INTERFEREVPVS
346
30
  9
$CSHADOW
280
     0
  9
$SHADOWPLANELOCATION
 40
0.0
  0
ENDSEC
  0
SECTION
  2
CLASSES
  0
CLASS
  1
ACDBDICTIONARYWDFLT
  2
AcDbDictionaryWithDefault
  3
ObjectDBX Classes
 90
        0
 91
        1
280
     0
281
     0
  0
CLASS
  1
MATERIAL
  2
AcDbMaterial
  3
ObjectDBX Classes
 90
     1153
 91
        3
280
     0
281
     0
  0
CLASS
  1
VISUALSTYLE
  2
AcDbVisualStyle
  3
ObjectDBX Classes
 90
     4095
 91
       24
280
     0
281
     0
  0
CLASS
  1
SCALE
  2
AcDbScale
  3
ObjectDBX Classes
 90
     1153
 91
       17
280
     0
281
     0
  0
CLASS
  1
TABLESTYLE
  2
AcDbTableStyle
  3
ObjectDBX Classes
 90
     4095
 91
        1
280
     0
281
     0
  0
CLASS
  1
MLEADERSTYLE
  2
AcDbMLeaderStyle
  3
ACDB_MLEADERSTYLE_CLASS
 90
     4095
 91
        1
280
     0
281
     0
  0
CLASS
  1
ACDBSECTIONVIEWSTYLE
  2
AcDbSectionViewStyle
  3
ObjectDBX Classes
 90
     1025
 91
        1
280
     0
281
     0
  0
CLASS
  1
ACDBDETAILVIEWSTYLE
  2
AcDbDetailViewStyle
  3
ObjectDBX Classes
 90
     1025
 91
        1
280
     0
281
     0
  0
CLASS
  1
DICTIONARYVAR
  2
AcDbDictionaryVar
  3
ObjectDBX Classes
 90
        0
 91
        5
280
     0
281
     0
  0
CLASS
  1
CELLSTYLEMAP
  2
AcDbCellStyleMap
  3
ObjectDBX Classes
 90
     1152
 91
        1
280
     0
281
     0
  0
ENDSEC
  0
SECTION
  2
TABLES
  0
TABLE
  2
VPORT
  5
8
330
0
100
AcDbSymbolTable
 70
     1
1001
ACAD
1000
DbSaveVer
1071
      247
  0
VPORT
  5
57
330
8
100
AcDbSymbolTableRecord
100
AcDbViewportTableRecord
  2
*Active
 70
     0
 10
0.0
 20
0.0
 11
1.0
 21
1.0
 12
0.0
 22
0.0
 13
0.0
 23
0.0
 14
1.0
 24
1.0
 15
0.0
 25
0.0
 16
0.0
 26
0.0
 36
1.0
 17
-111.9583333053439
 27
3.302777776952218
 37
0.0
 40
214.1999999464498
 41
0.9999999999999998
 42
50.0
 43
0.0
 44
0.0
 50
0.0
 51
0.0
 71
     0
 72
   100
 73
     1
 74
     1
 75
     0
 76
     0
 77
     0
 78
     0
281
     0
 65
     1
110
0.0
120
0.0
130
0.0
111
1.0
121
0.0
131
0.0
112
0.0
122
1.0
132
0.0
 79
     0
146
0.0
 60
     3
 61
     5
292
     1
282
     1
141
0.0
142
0.0
 63
   250
421
  3355443
  0
ENDTAB
  0
TABLE
  2
LTYPE
  5
5
330
0
100
AcDbSymbolTable
 70
     1
  0
LTYPE
  5
5B
330
5
100
AcDbSymbolTableRecord
100
AcDbLinetypeTableRecord
  2
ByBlock
 70
     0
  3

 72
    65
 73
     0
 40
0.0
  0
LTYPE
  5
5C
330
5
100
AcDbSymbolTableRecord
100
AcDbLinetypeTableRecord
  2
ByLayer
 70
     0
  3

 72
    65
 73
     0
 40
0.0
  0
LTYPE
  5
5D
330
5
100
AcDbSymbolTableRecord
100
AcDbLinetypeTableRecord
  2
Continuous
 70
     0
  3
Solid line
 72
    65
 73
     0
 40
0.0
  0
ENDTAB
  0
TABLE
  2
LAYER
  5
2
330
0
100
AcDbSymbolTable
 70
     2
  0
LAYER
  5
54
330
2
100
AcDbSymbolTableRecord
100
AcDbLayerTableRecord
  2
0
 70
     0
 62
     7
  6
Continuous
370
    -3
390
F
347
21
348
0
  0
LAYER
  5
78
330
2
100
AcDbSymbolTableRecord
100
AcDbLayerTableRecord
  2
Layer 1
 70
     0
 62
     7
  6
Continuous
370
     0
390
F
347
21
348
0
  0
ENDTAB
  0
TABLE
  2
STYLE
  5
3
330
0
100
AcDbSymbolTable
 70
     2
  0
STYLE
  5
55
330
3
100
AcDbSymbolTableRecord
100
AcDbTextStyleTableRecord
  2
Standard
 70
     0
 40
0.0
 41
1.0
 50
0.0
 71
     0
 42
0.2
  3
txt
  4

  0
STYLE
  5
5A
330
3
100
AcDbSymbolTableRecord
100
AcDbTextStyleTableRecord
  2
Annotative
 70
     0
 40
0.0
 41
1.0
 50
0.0
 71
     0
 42
0.2
  3
txt
  4

1001
AcadAnnotative
1000
AnnotativeData
1002
{
1070
     1
1070
     1
1002
}
  0
ENDTAB
  0
TABLE
  2
VIEW
  5
6
330
0
100
AcDbSymbolTable
 70
     0
  0
ENDTAB
  0
TABLE
  2
UCS
  5
7
330
0
100
AcDbSymbolTable
 70
     0
  0
ENDTAB
  0
TABLE
  2
APPID
  5
9
330
0
100
AcDbSymbolTable
 70
     2
  0
APPID
  5
56
330
9
100
AcDbSymbolTableRecord
100
AcDbRegAppTableRecord
  2
ACAD
 70
     0
  0
APPID
  5
5E
330
9
100
AcDbSymbolTableRecord
100
AcDbRegAppTableRecord
  2
AcadAnnotative
 70
     0
  0
ENDTAB
  0
TABLE
  2
DIMSTYLE
  5
A
330
0
100
AcDbSymbolTable
 70
     2
100
AcDbDimStyleTable
 71
     0
  0
DIMSTYLE
105
58
330
A
100
AcDbSymbolTableRecord
100
AcDbDimStyleTableRecord
  2
Standard
 70
     0
340
55
  0
DIMSTYLE
105
59
330
A
100
AcDbSymbolTableRecord
100
AcDbDimStyleTableRecord
  2
Annotative
 70
     0
340
55
1001
AcadAnnotative
1000
AnnotativeData
1002
{
1070
     1
1070
     1
1002
}
  0
ENDTAB
  0
TABLE
  2
BLOCK_RECORD
  5
1
330
0
100
AcDbSymbolTable
 70
     2
  0
BLOCK_RECORD
  5
70
330
1
100
AcDbSymbolTableRecord
100
AcDbBlockTableRecord
  2
*Model_Space
340
73
 70
     0
280
     1
281
     0
  0
BLOCK_RECORD
  5
6C
330
1
100
AcDbSymbolTableRecord
100
AcDbBlockTableRecord
  2
*Paper_Space
340
6F
 70
     0
280
     1
281
     0
  0
BLOCK_RECORD
  5
74
330
1
100
AcDbSymbolTableRecord
100
AcDbBlockTableRecord
  2
*Paper_Space0
340
77
 70
     0
280
     1
281
     0
  0
BLOCK_RECORD
  5
79
330
1
100
AcDbSymbolTableRecord
100
AcDbBlockTableRecord
  2
Block_0
340
0
102
{BLKREFS
331
7A
102
}
 70
     0
280
     1
281
     0
  0
ENDTAB
  0
ENDSEC
  0
SECTION
  2
BLOCKS
  0
BLOCK
  5
71
330
70
100
AcDbEntity
  8
0
100
AcDbBlockBegin
  2
*Model_Space
 70
     0
 10
0.0
 20
0.0
 30
0.0
  3
*Model_Space
  1

  0
ENDBLK
  5
72
330
70
100
AcDbEntity
  8
0
100
AcDbBlockEnd
  0
BLOCK
  5
6D
330
6C
100
AcDbEntity
 67
     1
  8
0
100
AcDbBlockBegin
  2
*Paper_Space
 70
     0
 10
0.0
 20
0.0
 30
0.0
  3
*Paper_Space
  1

  0
ENDBLK
  5
6E
330
6C
100
AcDbEntity
 67
     1
  8
0
100
AcDbBlockEnd
  0
BLOCK
  5
75
330
74
100
AcDbEntity
 67
     1
  8
0
100
AcDbBlockBegin
  2
*Paper_Space0
 70
     0
 10
0.0
 20
0.0
 30
0.0
  3
*Paper_Space0
  1

  0
ENDBLK
  5
76
330
74
100
AcDbEntity
 67
     1
  8
0
100
AcDbBlockEnd
  0
BLOCK
  5
7B
330
79
100
AcDbEntity
  8
0
100
AcDbBlockBegin
  2
Block_0
 70
     0
 10
0.0
 20
0.0
 30
0.0
  3
Block_0
  1

  0
SPLINE
  5
7D
330
79
100
AcDbEntity
  8
Layer 1
100
AcDbSpline
210
0.0
220
0.0
230
1.0
 70
     9
 71
     3
 72
   629
 73
   625
 74
     0
 42
0.0000000001
 43
0.0000000001
 40
0.0
 40
0.0
 40
0.0
 40
0.0
 40
1.0
 40
1.0
 40
1.0
 40
2.0
 40
2.0
 40
2.0
 40
3.0
 40
3.0
 40
3.0
 40
4.0
 40
4.0
 40
4.0
 40
5.0
 40
5.0
 40
5.0
 40
6.0
 40
6.0
 40
6.0
 40
7.0
 40
7.0
 40
7.0
 40
8.0
 40
8.0
 40
8.0
 40
9.0
 40
9.0
 40
9.0
 40
10.0
 40
10.0
 40
10.0
 40
11.0
 40
11.0
 40
11.0
 40
12.0
 40
12.0
 40
12.0
 40
13.0
 40
13.0
 40
13.0
 40
14.0
 40
14.0
 40
14.0
 40
15.0
 40
15.0
 40
15.0
 40
16.0
 40
16.0
 40
16.0
 40
17.0
 40
17.0
 40
17.0
 40
18.0
 40
18.0
 40
18.0
 40
19.0
 40
19.0
 40
19.0
 40
20.0
 40
20.0
 40
20.0
 40
21.0
 40
21.0
 40
21.0
 40
22.0
 40
22.0
 40
22.0
 40
23.0
 40
23.0
 40
23.0
 40
24.0
 40
24.0
 40
24.0
 40
25.0
 40
25.0
 40
25.0
 40
26.0
 40
26.0
 40
26.0
 40
27.0
 40
27.0
 40
27.0
 40
28.0
 40
28.0
 40
28.0
 40
29.0
 40
29.0
 40
29.0
 40
30.0
 40
30.0
 40
30.0
 40
31.0
 40
31.0
 40
31.0
 40
32.0
 40
32.0
 40
32.0
 40
33.0
 40
33.0
 40
33.0
 40
34.0
 40
34.0
 40
34.0
 40
35.0
 40
35.0
 40
35.0
 40
36.0
 40
36.0
 40
36.0
 40
37.0
 40
37.0
 40
37.0
 40
38.0
 40
38.0
 40
38.0
 40
39.0
 40
39.0
 40
39.0
 40
40.0
 40
40.0
 40
40.0
 40
41.0
 40
41.0
 40
41.0
 40
42.0
 40
42.0
 40
42.0
 40
43.0
 40
43.0
 40
43.0
 40
44.0
 40
44.0
 40
44.0
 40
45.0
 40
45.0
 40
45.0
 40
46.0
 40
46.0
 40
46.0
 40
47.0
 40
47.0
 40
47.0
 40
48.0
 40
48.0
 40
48.0
 40
49.0
 40
49.0
 40
49.0
 40
50.0
 40
50.0
 40
50.0
 40
51.0
 40
51.0
 40
51.0
 40
52.0
 40
52.0
 40
52.0
 40
53.0
 40
53.0
 40
53.0
 40
54.0
 40
54.0
 40
54.0
 40
55.0
 40
55.0
 40
55.0
 40
56.0
 40
56.0
 40
56.0
 40
57.0
 40
57.0
 40
57.0
 40
58.0
 40
58.0
 40
58.0
 40
59.0
 40
59.0
 40
59.0
 40
60.0
 40
60.0
 40
60.0
 40
61.0
 40
61.0
 40
61.0
 40
62.0
 40
62.0
 40
62.0
 40
63.0
 40
63.0
 40
63.0
 40
64.0
 40
64.0
 40
64.0
 40
65.0
 40
65.0
 40
65.0
 40
66.0
 40
66.0
 40
66.0
 40
67.0
 40
67.0
 40
67.0
 40
68.0
 40
68.0
 40
68.0
 40
69.0
 40
69.0
 40
69.0
 40
70.0
 40
70.0
 40
70.0
 40
71.0
 40
71.0
 40
71.0
 40
72.0
 40
72.0
 40
72.0
 40
73.0
 40
73.0
 40
73.0
 40
74.0
 40
74.0
 40
74.0
 40
75.0
 40
75.0
 40
75.0
 40
76.0
 40
76.0
 40
76.0
 40
77.0
 40
77.0
 40
77.0
 40
78.0
 40
78.0
 40
78.0
 40
79.0
 40
79.0
 40
79.0
 40
80.0
 40
80.0
 40
80.0
 40
81.0
 40
81.0
 40
81.0
 40
82.0
 40
82.0
 40
82.0
 40
83.0
 40
83.0
 40
83.0
 40
84.0
 40
84.0
 40
84.0
 40
85.0
 40
85.0
 40
85.0
 40
86.0
 40
86.0
 40
86.0
 40
87.0
 40
87.0
 40
87.0
 40
88.0
 40
88.0
 40
88.0
 40
89.0
 40
89.0
 40
89.0
 40
90.0
 40
90.0
 40
90.0
 40
91.0
 40
91.0
 40
91.0
 40
92.0
 40
92.0
 40
92.0
 40
93.0
 40
93.0
 40
93.0
 40
94.0
 40
94.0
 40
94.0
 40
95.0
 40
95.0
 40
95.0
 40
96.0
 40
96.0
 40
96.0
 40
97.0
 40
97.0
 40
97.0
 40
98.0
 40
98.0
 40
98.0
 40
99.0
 40
99.0
 40
99.0
 40
100.0
 40
100.0
 40
100.0
 40
101.0
 40
101.0
 40
101.0
 40
102.0
 40
102.0
 40
102.0
 40
103.0
 40
103.0
 40
103.0
 40
104.0
 40
104.0
 40
104.0
 40
105.0
 40
105.0
 40
105.0
 40
106.0
 40
106.0
 40
106.0
 40
107.0
 40
107.0
 40
107.0
 40
108.0
 40
108.0
 40
108.0
 40
109.0
 40
109.0
 40
109.0
 40
110.0
 40
110.0
 40
110.0
 40
111.0
 40
111.0
 40
111.0
 40
112.0
 40
112.0
 40
112.0
 40
113.0
 40
113.0
 40
113.0
 40
114.0
 40
114.0
 40
114.0
 40
115.0
 40
115.0
 40
115.0
 40
116.0
 40
116.0
 40
116.0
 40
117.0
 40
117.0
 40
117.0
 40
118.0
 40
118.0
 40
118.0
 40
119.0
 40
119.0
 40
119.0
 40
120.0
 40
120.0
 40
120.0
 40
121.0
 40
121.0
 40
121.0
 40
122.0
 40
122.0
 40
122.0
 40
123.0
 40
123.0
 40
123.0
 40
124.0
 40
124.0
 40
124.0
 40
125.0
 40
125.0
 40
125.0
 40
126.0
 40
126.0
 40
126.0
 40
127.0
 40
127.0
 40
127.0
 40
128.0
 40
128.0
 40
128.0
 40
129.0
 40
129.0
 40
129.0
 40
130.0
 40
130.0
 40
130.0
 40
131.0
 40
131.0
 40
131.0
 40
132.0
 40
132.0
 40
132.0
 40
133.0
 40
133.0
 40
133.0
 40
134.0
 40
134.0
 40
134.0
 40
135.0
 40
135.0
 40
135.0
 40
136.0
 40
136.0
 40
136.0
 40
137.0
 40
137.0
 40
137.0
 40
138.0
 40
138.0
 40
138.0
 40
139.0
 40
139.0
 40
139.0
 40
140.0
 40
140.0
 40
140.0
 40
141.0
 40
141.0
 40
141.0
 40
142.0
 40
142.0
 40
142.0
 40
143.0
 40
143.0
 40
143.0
 40
144.0
 40
144.0
 40
144.0
 40
145.0
 40
145.0
 40
145.0
 40
146.0
 40
146.0
 40
146.0
 40
147.0
 40
147.0
 40
147.0
 40
148.0
 40
148.0
 40
148.0
 40
149.0
 40
149.0
 40
149.0
 40
150.0
 40
150.0
 40
150.0
 40
151.0
 40
151.0
 40
151.0
 40
152.0
 40
152.0
 40
152.0
 40
153.0
 40
153.0
 40
153.0
 40
154.0
 40
154.0
 40
154.0
 40
155.0
 40
155.0
 40
155.0
 40
156.0
 40
156.0
 40
156.0
 40
157.0
 40
157.0
 40
157.0
 40
158.0
 40
158.0
 40
158.0
 40
159.0
 40
159.0
 40
159.0
 40
160.0
 40
160.0
 40
160.0
 40
161.0
 40
161.0
 40
161.0
 40
162.0
 40
162.0
 40
162.0
 40
163.0
 40
163.0
 40
163.0
 40
164.0
 40
164.0
 40
164.0
 40
165.0
 40
165.0
 40
165.0
 40
166.0
 40
166.0
 40
166.0
 40
167.0
 40
167.0
 40
167.0
 40
168.0
 40
168.0
 40
168.0
 40
169.0
 40
169.0
 40
169.0
 40
170.0
 40
170.0
 40
170.0
 40
171.0
 40
171.0
 40
171.0
 40
172.0
 40
172.0
 40
172.0
 40
173.0
 40
173.0
 40
173.0
 40
174.0
 40
174.0
 40
174.0
 40
175.0
 40
175.0
 40
175.0
 40
176.0
 40
176.0
 40
176.0
 40
177.0
 40
177.0
 40
177.0
 40
178.0
 40
178.0
 40
178.0
 40
179.0
 40
179.0
 40
179.0
 40
180.0
 40
180.0
 40
180.0
 40
181.0
 40
181.0
 40
181.0
 40
182.0
 40
182.0
 40
182.0
 40
183.0
 40
183.0
 40
183.0
 40
184.0
 40
184.0
 40
184.0
 40
185.0
 40
185.0
 40
185.0
 40
186.0
 40
186.0
 40
186.0
 40
187.0
 40
187.0
 40
187.0
 40
188.0
 40
188.0
 40
188.0
 40
189.0
 40
189.0
 40
189.0
 40
190.0
 40
190.0
 40
190.0
 40
191.0
 40
191.0
 40
191.0
 40
192.0
 40
192.0
 40
192.0
 40
193.0
 40
193.0
 40
193.0
 40
194.0
 40
194.0
 40
194.0
 40
195.0
 40
195.0
 40
195.0
 40
196.0
 40
196.0
 40
196.0
 40
197.0
 40
197.0
 40
197.0
 40
198.0
 40
198.0
 40
198.0
 40
199.0
 40
199.0
 40
199.0
 40
200.0
 40
200.0
 40
200.0
 40
201.0
 40
201.0
 40
201.0
 40
202.0
 40
202.0
 40
202.0
 40
203.0
 40
203.0
 40
203.0
 40
204.0
 40
204.0
 40
204.0
 40
205.0
 40
205.0
 40
205.0
 40
206.0
 40
206.0
 40
206.0
 40
207.0
 40
207.0
 40
207.0
 40
208.0
 40
208.0
 40
208.0
 40
208.0
 10
-85.94905704193179
 20
-23.04185901643767
 30
0.0
 10
-86.0694812944841
 20
-23.68318684431048
 30
0.0
 10
-86.20902232477098
 20
-24.3178180763932
 30
0.0
 10
-86.36687883072729
 20
-24.94512311820532
 30
0.0
 10
-86.7490999136887
 20
-26.46296092877983
 30
0.0
 10
-87.25163077747716
 20
-27.93128971916102
 30
0.0
 10
-87.84104567898813
 20
-29.35457388656733
 30
0.0
 10
-88.03347264528284
 20
-29.81938631764379
 30
0.0
 10
-88.23356921701423
 20
-30.28036394599965
 30
0.0
 10
-88.44373930036368
 20
-30.73544628061774
 30
0.0
 10
-88.653909383717
 20
-31.19058585110038
 30
0.0
 10
-88.87426745041297
 20
-31.63988736371108
 30
0.0
 10
-89.10767529352495
 20
-32.08151927088829
 30
0.0
 10
-89.10767529352495
 20
-32.08151927088829
 30
0.0
 10
-89.10767529352495
 20
-32.08157650674321
 30
0.0
 10
-89.10767529352495
 20
-32.08157650674321
 30
0.0
 10
-88.54779409653529
 20
-33.10346557759731
 30
0.0
 10
-87.96089757292513
 20
-34.49034773709727
 30
0.0
 10
-87.81483165443216
 20
-35.98660762789065
 30
0.0
 10
-87.7676693045749
 20
-36.46864805326983
 30
0.0
 10
-87.76492198322102
 20
-36.96173499991046
 30
0.0
 10
-87.82547752466554
 20
-37.45802715480273
 30
0.0
 10
-87.88763567023393
 20
-37.96754079368477
 30
0.0
 10
-87.96181334670848
 20
-38.39343283895471
 30
0.0
 10
-88.05167364923473
 20
-38.75676608763072
 30
0.0
 10
-88.14153395175713
 20
-39.12009933629582
 30
0.0
 10
-88.24684793687623
 20
-39.42081655251016
 30
0.0
 10
-88.37093528456255
 20
-39.67992329742286
 30
0.0
 10
-88.45369834026421
 20
-39.85266112736958
 30
0.0
 10
-88.54470336001659
 20
-40.00691177405451
 30
0.0
 10
-88.64520953277235
 20
-40.1488567105234
 30
0.0
 10
-88.84610740656569
 20
-40.43280381932381
 30
0.0
 10
-89.08432306204103
 20
-40.66764255897053
 30
0.0
 10
-89.36798399153216
 20
-40.9031108930984
 30
0.0
 10
-89.65164492102331
 20
-41.1386364630844
 30
0.0
 10
-89.98052218108298
 20
-41.374734391687
 30
0.0
 10
-90.36251432059454
 20
-41.66131435011346
 30
0.0
 10
-90.61732837590042
 20
-41.85236765573026
 30
0.0
 10
-90.89560913441291
 20
-42.06585741904826
 30
0.0
 10
-91.1998749740373
 20
-42.31643602060483
 30
0.0
 10
-91.50425528538308
 20
-42.56707185802208
 30
0.0
 10
-91.83439173439477
 20
-42.85479653367854
 30
0.0
 10
-92.19303164242562
 20
-43.19443413569683
 30
0.0
 10
-92.45700343556686
 20
-43.44449761449878
 30
0.0
 10
-92.69842429928614
 20
-43.69232889470402
 30
0.0
 10
-92.92954270794137
 20
-43.93689773080462
 30
0.0
 10
-92.97704847296666
 20
-43.98709358132181
 30
0.0
 10
-93.02421082282775
 20
-44.03631642219368
 30
0.0
 10
-93.07045739890103
 20
-44.08611162168213
 30
0.0
 10
-93.28566423806497
 20
-44.31826027584146
 30
0.0
 10
-93.48919496148374
 20
-44.54537217419079
 30
0.0
 10
-93.68082062571714
 20
-44.7661308919174
 30
0.0
 10
-93.72889874936157
 20
-44.82164967755191
 30
0.0
 10
-93.77251247580622
 20
-44.87270406599047
 30
0.0
 10
-93.81944588222003
 20
-44.92730707784228
 30
0.0
 10
-93.99699152452626
 20
-45.13410024536506
 30
0.0
 10
-94.1680122786264
 20
-45.33511259088044
 30
0.0
 10
-94.32987529489183
 20
-45.52582248133048
 30
0.0
 10
-94.50089604899199
 20
-45.72740718545925
 30
0.0
 10
-94.66230117836028
 20
-45.91422503732864
 30
0.0
 10
-94.82073004293512
 20
-46.09285816100544
 30
0.0
 10
-94.856903107391
 20
-46.13355285851731
 30
0.0
 10
-94.89261828495676
 20
-46.17275942363053
 30
0.0
 10
-94.92821899079411
 20
-46.21213769632777
 30
0.0
 10
-95.08870834638228
 20
-46.38939715932858
 30
0.0
 10
-95.24542013511183
 20
-46.55515221417274
 30
0.0
 10
-95.39949907421595
 20
-46.70138984025292
 30
0.0
 10
-95.41392251130856
 20
-46.71489750356221
 30
0.0
 10
-95.42788806151049
 20
-46.72577231724286
 30
0.0
 10
-95.44219702687788
 20
-46.73899380124417
 30
0.0
 10
-95.58402749162473
 20
-46.87092246195442
 30
0.0
 10
-95.72482771086365
 20
-46.98482182629808
 30
0.0
 10
-95.86631476043926
 20
-47.08527076319443
 30
0.0
 10
-95.89561952151651
 20
-47.10604738091105
 30
0.0
 10
-95.92492428259504
 20
-47.12871278205762
 30
0.0
 10
-95.95422904367294
 20
-47.14805850323691
 30
0.0
 10
-96.10350017040921
 20
-47.24627524153593
 30
0.0
 10
-96.25471731643806
 20
-47.32394430556111
 30
0.0
 10
-96.40959755760029
 20
-47.38135187462622
 30
0.0
 10
-96.44084833797075
 20
-47.3929135186455
 30
0.0
 10
-96.47278594867408
 20
-47.40081206752948
 30
0.0
 10
-96.50438014421192
 20
-47.41059939984149
 30
0.0
 10
-96.65891697020292
 20
-47.45856305176069
 30
0.0
 10
-96.81688794788769
 20
-47.48952765282189
 30
0.0
 10
-96.98287194617719
 20
-47.49181708728057
 30
0.0
 10
-96.99409017502524
 20
-47.49198879486587
 30
0.0
 10
-97.00439263009378
 20
-47.49490782380184
 30
0.0
 10
-97.01549638722042
 20
-47.49485058793922
 30
0.0
 10
-97.03049218292774
 20
-47.4947361162159
 30
0.0
 10
-97.04640375241837
 20
-47.49170261555853
 30
0.0
 10
-97.0616284915691
 20
-47.49124472866655
 30
0.0
 10
-97.15618213473796
 20
-47.48826846386924
 30
0.0
 10
-97.25325415580634
 20
-47.47710747088061
 30
0.0
 10
-97.35284455477811
 20
-47.4582196365933
 30
0.0
 10
-97.38878867578733
 20
-47.45140856907732
 30
0.0
 10
-97.4256485705799
 20
-47.44190741607073
 30
0.0
 10
-97.46227952192903
 20
-47.43297862168073
 30
0.0
 10
-97.54813331414553
 20
-47.41208753223886
 30
0.0
 10
-97.63616206910059
 20
-47.38484326217622
 30
0.0
 10
-97.72636578679167
 20
-47.35181817010297
 30
0.0
 10
-97.76356909675225
 20
-47.33813879920903
 30
0.0
 10
-97.8004289915448
 20
-47.32583308899171
 30
0.0
 10
-97.83843360356733
 20
-47.31009322708444
 30
0.0
 10
-97.96515380088615
 20
-47.25766517796991
 30
0.0
 10
-98.09485026299777
 20
-47.19716687238674
 30
0.0
 10
-98.23141502848415
 20
-47.12029911041966
 30
0.0
 10
-98.60241788259365
 20
-46.91150268774297
 30
0.0
 10
-98.98406660693654
 20
-46.74185559431816
 30
0.0
 10
-99.36525744438998
 20
-46.59550349651593
 30
0.0
 10
-99.55596733484004
 20
-46.52229882968351
 30
0.0
 10
-99.74644828184345
 20
-46.45498945658499
 30
0.0
 10
-99.93555556816957
 20
-46.39145765034125
 30
0.0
 10
-100.313770140825
 20
-46.26445127372089
 30
0.0
 10
-100.68626112733
 20
-46.15278410797393
 30
0.0
 10
-101.0421537140076
 20
-46.0407162911976
 30
0.0
 10
-101.5759353581659
 20
-45.87261456603343
 30
0.0
 10
-102.0723992206351
 20
-45.70353983122457
 30
0.0
 10
-102.4946854066298
 20
-45.48014826386996
 30
0.0
 10
-103.0543376601722
 20
-45.77674449805443
 30
0.0
 10
-103.6238344818898
 20
-46.0573719268895
 30
0.0
 10
-104.2023745697234
 20
-46.32134372003075
 30
0.0
 10
-105.3596836888345
 20
-46.84928730631515
 30
0.0
 10
-106.5536237592916
 20
-47.31066558569846
 30
0.0
 10
-107.7793869687299
 20
-47.70038456651191
 30
0.0
 10
-108.3922685734495
 20
-47.89527267484865
 30
0.0
 10
-109.0132776705015
 20
-48.07224595854278
 30
0.0
 10
-109.6414984860963
 20
-48.23067482311699
 30
0.0
 10
-112.1544962202047
 20
-48.86439028141507
 30
0.0
 10
-114.7855143006834
 20
-49.20145226966671
 30
0.0
 10
-117.4959757568939
 20
-49.20145226966671
 30
0.0
 10
-118.8458263140186
 20
-49.20145226966671
 30
0.0
 10
-120.1746140741231
 20
-49.11451099607836
 30
0.0
 10
-121.479820659294
 20
-48.95161773430948
 30
0.0
 10
-122.5386840966601
 20
-48.81946013015387
 30
0.0
 10
-123.5806057190302
 20
-48.6333863444851
 30
0.0
 10
-124.6050131677852
 20
-48.40043638826383
 30
0.0
 10
-125.2500613266546
 20
-48.25379811115426
 30
0.0
 10
-125.8874398800873
 20
-48.08729899011206
 30
0.0
 10
-126.5172632998061
 20
-47.90259886511861
 30
0.0
 10
-127.0644381355484
 20
-47.74216674539114
 30
0.0
 10
-127.6077209327069
 20
-47.57286306713629
 30
0.0
 10
-128.1425328223705
 20
-47.38478602631616
 30
0.0
 10
-128.4005520859171
 20
-47.90935269677198
 30
0.0
 10
-128.74614221753
 20
-48.47827715987495
 30
0.0
 10
-129.1918951067333
 20
-48.95694066942681
 30
0.0
 10
-129.6376479959333
 20
-49.43566141484
 30
0.0
 10
-130.1835636427197
 20
-49.82417844256019
 30
0.0
 10
-130.8420049931764
 20
-49.98815918569771
 30
0.0
 10
-130.8426918235163
 20
-49.98833089328237
 30
0.0
 10
-130.843378653853
 20
-49.98833089328237
 30
0.0
 10
-130.8440654841936
 20
-49.98850260086768
 30
0.0
 10
-131.0018075184279
 20
-50.02782363770357
 30
0.0
 10
-131.1588627223261
 20
-50.05592644568886
 30
0.0
 10
-131.3152310958908
 20
-50.07550111031608
 30
0.0
 10
-131.3677736167267
 20
-50.08208323438607
 30
0.0
 10
-131.4198582506733
 20
-50.08271282886079
 30
0.0
 10
-131.4721718280664
 20
-50.0871772260574
 30
0.0
 10
-131.5764555676814
 20
-50.09604878458734
 30
0.0
 10
-131.6806248355712
 20
-50.10480587139333
 30
0.0
 10
-131.7843362165735
 20
-50.10572164517668
 30
0.0
 10
-131.8181053748441
 20
-50.10600782448337
 30
0.0
 10
-131.8515311179493
 20
-50.10291708796402
 30
0.0
 10
-131.8853002762193
 20
-50.10240196521005
 30
0.0
 10
-132.1073754187612
 20
-50.09908228524599
 30
0.0
 10
-132.3285347875159
 20
-50.08030892268136
 30
0.0
 10
-132.5480915521499
 20
-50.04447927339418
 30
0.0
 10
-132.5654912540431
 20
-50.04167471618153
 30
0.0
 10
-132.5831198993752
 20
-50.04058723481224
 30
0.0
 10
-132.600405129543
 20
-50.03755373415552
 30
0.0
 10
-132.8267157258304
 20
-49.99811822559567
 30
0.0
 10
-133.0513092462751
 20
-49.93990935447119
 30
0.0
 10
-133.2747580494904
 20
-49.87156973586473
 30
0.0
 10
-133.3135639635749
 20
-49.85966467667677
 30
0.0
 10
-133.3524843493808
 20
-49.84856091955077
 30
0.0
 10
-133.3912902634653
 20
-49.83591179416221
 30
0.0
 10
-133.6074128764094
 20
-49.76528274109836
 30
0.0
 10
-133.822390772126
 20
-49.68332098745994
 30
0.0
 10
-134.0358805354414
 20
-49.59134295806353
 30
0.0
 10
-134.0756022233093
 20
-49.57422943547964
 30
0.0
 10
-134.1152094394519
 20
-49.55608566739101
 30
0.0
 10
-134.1548166555983
 20
-49.53834255033305
 30
0.0
 10
-134.3718550423257
 20
-49.44104158581866
 30
0.0
 10
-134.5882065987196
 20
-49.33675784620364
 30
0.0
 10
-134.8024976640964
 20
-49.22325913288934
 30
0.0
 10
-134.8194394790924
 20
-49.21427310263801
 30
0.0
 10
-134.8361523506482
 20
-49.20454300618605
 30
0.0
 10
-134.8530941656442
 20
-49.19549974007209
 30
0.0
 10
-135.0657826269009
 20
-49.08171484745175
 30
0.0
 10
-135.2770974274804
 20
-48.9613478307595
 30
0.0
 10
-135.4870385673864
 20
-48.83697430376713
 30
0.0
 10
-135.5133670636676
 20
-48.8213489135819
 30
0.0
 10
-135.5399245033948
 20
-48.80623864615192
 30
0.0
 10
-135.5662529996754
 20
-48.79049878424466
 30
0.0
 10
-135.780544065056
 20
-48.66229045453105
 30
0.0
 10
-135.9934614697555
 20
-48.53030455796075
 30
0.0
 10
-136.2048907420608
 20
-48.39705947243714
 30
0.0
 10
-136.2510228464127
 20
-48.36804089066723
 30
0.0
 10
-136.2970404790438
 20
-48.33913678062064
 30
0.0
 10
-136.342943639949
 20
-48.31000372712676
 30
0.0
 10
-136.5605543852911
 20
-48.17206530096184
 30
0.0
 10
-136.7770204134065
 20
-48.03401240307488
 30
0.0
 10
-136.9916548939557
 20
-47.89773381689199
 30
0.0
 10
-137.2056025441638
 20
-47.7618558817404
 30
0.0
 10
-137.4184054771419
 20
-47.62763778657148
 30
0.0
 10
-137.6293768625572
 20
-47.49914327754988
 30
0.0
 10
-137.6314373535705
 20
-47.49788408859787
 30
0.0
 10
-137.6336123163059
 20
-47.49645319206055
 30
0.0
 10
-137.6356728073198
 20
-47.49519400310726
 30
0.0
 10
-137.7512892475075
 20
-47.42490836521016
 30
0.0
 10
-137.8713700848917
 20
-47.34901361289096
 30
0.0
 10
-137.9951140174094
 20
-47.26791039717391
 30
0.0
 10
-139.6027548946373
 20
-46.2132251776964
 30
0.0
 10
-141.8106854870593
 20
-44.27504720042491
 30
0.0
 10
-142.5031249392365
 20
-42.32948579702212
 30
0.0
 10
-142.6096981133115
 20
-42.03019947734831
 30
0.0
 10
-142.6803271663773
 20
-41.73068421422594
 30
0.0
 10
-142.7074569647166
 20
-41.43420245176414
 30
0.0
 10
-142.7383643299184
 20
-41.09536615180587
 30
0.0
 10
-142.7124937205272
 20
-40.76047912629216
 30
0.0
 10
-142.6181690208095
 20
-40.43429195172118
 30
0.0
 10
-142.4869844262986
 20
-39.98064051363591
 30
0.0
 10
-142.332676543751
 20
-39.57724216193109
 30
0.0
 10
-142.1652044130635
 20
-39.21568322496812
 30
0.0
 10
-141.997732282376
 20
-38.85412428800516
 30
0.0
 10
-141.8168669601006
 20
-38.53440476577571
 30
0.0
 10
-141.6324530144132
 20
-38.2481109866585
 30
0.0
 10
-142.1178131197596
 20
-37.69469744201679
 30
0.0
 10
-142.5785618046663
 20
-37.11970597759267
 30
0.0
 10
-143.0256883545435
 20
-36.53366799190965
 30
0.0
 10
-144.8589529977214
 20
-34.13004798908954
 30
0.0
 10
-146.3673468911462
 20
-31.4650890427504
 30
0.0
 10
-147.4697095832356
 20
-28.59694278816693
 30
0.0
 10
-147.8125523934972
 20
-27.70509359459504
 30
0.0
 10
-148.1167037613963
 20
-26.79401315157487
 30
0.0
 10
-148.3799887242047
 20
-25.86581918596247
 30
0.0
 10
-149.1700725560611
 20
-23.08123728913554
 30
0.0
 10
-149.5932745158391
 20
-20.14234750975913
 30
0.0
 10
-149.5932745158391
 20
-17.1041535107202
 30
0.0
 10
-149.5932745158391
 20
-16.79811335938919
 30
0.0
 10
-149.5782787201318
 20
-16.49470605768937
 30
0.0
 10
-149.5700367560811
 20
-16.18935273670147
 30
0.0
 10
-150.1770803029274
 20
-16.13274646968869
 30
0.0
 10
-150.8183508949414
 20
-15.95977969630624
 30
0.0
 10
-151.4267681024643
 20
-15.58654464359683
 30
0.0
 10
-152.0351853099917
 20
-15.21330959088741
 30
0.0
 10
-152.6106346613033
 20
-14.63986349473483
 30
0.0
 10
-153.0861501984706
 20
-13.78229858218564
 30
0.0
 10
-153.6271435611723
 20
-12.80797251222778
 30
0.0
 10
-153.8975257708015
 20
-11.75317282102824
 30
0.0
 10
-153.9989477173438
 20
-10.71897803996001
 30
0.0
 10
-154.024360439841
 20
-10.46044365365107
 30
0.0
 10
-154.039241763827
 20
-10.20316845630442
 30
0.0
 10
-154.0449653499743
 20
-9.948755052030469
 30
0.0
 10
-154.0449653499743
 20
-9.946064966544986
 30
0.0
 10
-154.044850878249
 20
-9.943489352769988
 30
0.0
 10
-154.0449653499743
 20
-9.940856503148411
 30
0.0
 10
-154.0663715621663
 20
-8.970594179351371
 30
0.0
 10
-153.9561352929573
 20
-8.046006073009081
 30
0.0
 10
-153.8046892034818
 20
-7.247508569516647
 30
0.0
 10
-153.7906091815578
 20
-7.173502600624837
 30
0.0
 10
-153.7768725748058
 20
-7.101270943436451
 30
0.0
 10
-153.7621057225419
 20
-7.029611644867225
 30
0.0
 10
-153.6033334427984
 20
-6.254695316299568
 30
0.0
 10
-153.4109064765069
 20
-5.613768139452915
 30
0.0
 10
-153.2715943896666
 20
-5.203730427819981
 30
0.0
 10
-153.162273894241
 20
-4.881778706996396
 30
0.0
 10
-153.0861501984706
 20
-4.699482488181097
 30
0.0
 10
-153.0861501984706
 20
-4.699482488181097
 30
0.0
 10
-152.9365356565657
 20
-4.235929246058577
 30
0.0
 10
-152.7471994267929
 20
-3.686007088966869
 30
0.0
 10
-152.5213467173962
 20
-3.101800650852465
 30
0.0
 10
-152.408477598558
 20
-2.809726049725932
 30
0.0
 10
-152.2864507418863
 20
-2.509066069376787
 30
0.0
 10
-152.1557240342654
 20
-2.20634559801111
 30
0.0
 10
-151.8942706190275
 20
-1.600961891139168
 30
0.0
 10
-151.5979033282897
 20
-0.9873362202274043
 30
0.0
 10
-151.2700563137348
 20
-0.4177821626407168
 30
0.0
 10
-151.0242855245448
 20
0.0094263074400088
 30
0.0
 10
-150.760542674847
 20
0.4118516494956536
 30
0.0
 10
-150.4806593122151
 20
0.7675152927304724
 30
0.0
 10
-150.2007759495793
 20
1.123178935965291
 30
0.0
 10
-149.9045231305629
 20
1.432138116223296
 30
0.0
 10
-149.5932745158391
 20
1.672299790995692
 30
0.0
 10
-149.5906416662144
 20
1.674303046148319
 30
0.0
 10
-149.5872075145238
 20
1.675333291653056
 30
0.0
 10
-149.5845746648945
 20
1.677336546804401
 30
0.0
 10
-149.393406887555
 20
1.823631408742728
 30
0.0
 10
-149.177742161501
 20
1.945429321969085
 30
0.0
 10
-148.9443343183897
 20
2.047709806434049
 30
0.0
 10
-148.86237256475
 20
2.083653927447756
 30
0.0
 10
-148.7685057519217
 20
2.105689734111257
 30
0.0
 10
-148.6821940728151
 20
2.136654335169894
 30
0.0
 10
-148.5194152827664
 20
2.195034913883531
 30
0.0
 10
-148.3575522665042
 20
2.254903624993255
 30
0.0
 10
-148.1812658131467
 20
2.296914747311424
 30
0.0
 10
-148.0705716570477
 20
2.323243243597782
 30
0.0
 10
-147.9518644803374
 20
2.338010095856517
 30
0.0
 10
-147.8369348704897
 20
2.358386062547614
 30
0.0
 10
-147.6715232308123
 20
2.387748059481711
 30
0.0
 10
-147.5075997235361
 20
2.418998839855383
 30
0.0
 10
-147.3350908370373
 20
2.437085372078818
 30
0.0
 10
-147.2077982811077
 20
2.450421327806654
 30
0.0
 10
-147.0762702714287
 20
2.455229140165517
 30
0.0
 10
-146.9461159224232
 20
2.463013217327463
 30
0.0
 10
-146.7772701310622
 20
2.473086728948088
 30
0.0
 10
-146.6091111700341
 20
2.484190486072168
 30
0.0
 10
-146.4371746421507
 20
2.485793090198633
 30
0.0
 10
-146.4014594645881
 20
2.486136505370515
 30
0.0
 10
-146.3673468911462
 20
2.490543666701932
 30
0.0
 10
-146.3315172418622
 20
2.490543666701932
 30
0.0
 10
-146.2025076100873
 20
2.490543666701932
 30
0.0
 10
-146.0726966762498
 20
2.481901051612847
 30
0.0
 10
-145.9431146858628
 20
2.477837305450746
 30
0.0
 10
-145.8268114153346
 20
2.474174210316731
 30
0.0
 10
-145.7107370882568
 20
2.472972257227336
 30
0.0
 10
-145.5945482894532
 20
2.466390133156068
 30
0.0
 10
-145.4151710995771
 20
2.456144913950785
 30
0.0
 10
-145.2375109855463
 20
2.440176108600729
 30
0.0
 10
-145.0599653432362
 20
2.423863888080718
 30
0.0
 10
-144.9553381884538
 20
2.414248263351443
 30
0.0
 10
-144.8494518447187
 20
2.407265488244387
 30
0.0
 10
-144.7460838788838
 20
2.395875551812331
 30
0.0
 10
-144.5523977236403
 20
2.374526575482969
 30
0.0
 10
-144.3645496262662
 20
2.348427022647741
 30
0.0
 10
-144.1775028309502
 20
2.322098526362025
 30
0.0
 10
-144.0948542469737
 20
2.310479646491032
 30
0.0
 10
-144.0087715113106
 20
2.300921257617963
 30
0.0
 10
-143.9277255314581
 20
2.288501075683095
 30
0.0
 10
-143.6640971534817
 20
2.248092557471499
 30
0.0
 10
-143.4087107395598
 20
2.204364359306754
 30
0.0
 10
-143.1683201213485
 20
2.158976321149713
 30
0.0
 10
-142.5279653031184
 20
3.011447242023726
 30
0.0
 10
-141.8453704191165
 20
3.830091768758053
 30
0.0
 10
-141.1243130362026
 20
4.612792174488298
 30
0.0
 10
-140.7639560523291
 20
5.004113759420505
 30
0.0
 10
-140.3937545002809
 20
5.386449314102013
 30
0.0
 10
-140.014624153842
 20
5.759455423359655
 30
0.0
 10
-139.9904706202962
 20
5.783093834159247
 30
0.0
 10
-139.9647144826341
 20
5.805072404968468
 30
0.0
 10
-139.9406754208103
 20
5.828653579891962
 30
0.0
 10
-139.5844394189646
 20
6.17693379699228
 30
0.0
 10
-139.2216785289097
 20
6.518689125885233
 30
0.0
 10
-138.8497599010162
 20
6.85037094316013
 30
0.0
 10
-138.9888430444098
 20
7.08967408000282
 30
0.0
 10
-139.1208289409821
 20
7.329320632019318
 30
0.0
 10
-139.241482136981
 20
7.565590268204644
 30
0.0
 10
-139.3619063895333
 20
7.801859904390612
 30
0.0
 10
-139.4711124132331
 20
8.034695388883429
 30
0.0
 10
-139.5644068674461
 20
8.260204683116558
 30
0.0
 10
-139.7511102475909
 20
8.711223271573832
 30
0.0
 10
-139.8743962932184
 20
9.133051570672042
 30
0.0
 10
-139.899580072269
 20
9.494667743501478
 30
0.0
 10
-139.9330058153742
 20
9.96337221315346
 30
0.0
 10
-139.8958025054098
 20
10.51621339918306
 30
0.0
 10
-139.782933386576
 20
11.11203871717873
 30
0.0
 10
-139.7369157539455
 20
11.35580625122123
 30
0.0
 10
-139.6813969683078
 20
11.60461054107244
 30
0.0
 10
-139.6077916504486
 20
11.86108443636421
 30
0.0
 10
-139.35446572754
 20
12.74451995828788
 30
0.0
 10
-138.9330953153293
 20
13.68885443683563
 30
0.0
 10
-138.3085375948685
 20
14.59272316131558
 30
0.0
 10
-137.9337571739029
 20
15.13509018469647
 30
0.0
 10
-137.485714850243
 20
15.66280482753104
 30
0.0
 10
-136.9568554901733
 20
16.15411746246953
 30
0.0
 10
-136.7805690368191
 20
16.31786926216042
 30
0.0
 10
-136.5953537890736
 20
16.47755731568921
 30
0.0
 10
-136.400866331765
 20
16.6324375568495
 30
0.0
 10
-136.0117769454288
 20
16.94214080331582
 30
0.0
 10
-135.5857131925787
 20
17.23244109273893
 30
0.0
 10
-135.1202711670294
 20
17.49681353691147
 30
0.0
 10
-135.1196988084141
 20
17.49715695208271
 30
0.0
 10
-135.1188975063522
 20
17.49744313138941
 30
0.0
 10
-135.1184396194621
 20
17.49778654656064
 30
0.0
 10
-134.91010108368
 20
17.61592136465427
 30
0.0
 10
-134.684019430836
 20
17.72764576626193
 30
0.0
 10
-134.4501537008307
 20
17.83639390306778
 30
0.0
 10
-134.3827298560057
 20
17.86770191929766
 30
0.0
 10
-134.3129021050013
 20
17.8980941617442
 30
0.0
 10
-134.2435322408901
 20
17.92865811177603
 30
0.0
 10
-134.0571722759146
 20
18.01073433713519
 30
0.0
 10
-133.8641729510046
 20
18.08994876942294
 30
0.0
 10
-133.6646487378879
 20
18.16641588035873
 30
0.0
 10
-133.5993998558014
 20
18.19142795182466
 30
0.0
 10
-133.5362114647283
 20
18.21729856121839
 30
0.0
 10
-133.4695889219677
 20
18.24168103820576
 30
0.0
 10
-133.2085933936238
 20
18.33737939859945
 30
0.0
 10
-132.939126957778
 20
18.42912848454988
 30
0.0
 10
-132.6605027840975
 20
18.51566910710758
 30
0.0
 10
-132.6073879046424
 20
18.53215303521353
 30
0.0
 10
-132.5520980624558
 20
18.5470915950582
 30
0.0
 10
-132.4985252961107
 20
18.56323210799292
 30
0.0
 10
-132.2646595661054
 20
18.6336322176159
 30
0.0
 10
-132.0256426085681
 20
18.70094159071505
 30
0.0
 10
-131.7820467821135
 20
18.76504575557153
 30
0.0
 10
-131.6941324988831
 20
18.78816904360303
 30
0.0
 10
-131.6059892722027
 20
18.81089168061928
 30
0.0
 10
-131.5170447434637
 20
18.83321366659076
 30
0.0
 10
-131.2676108591364
 20
18.89571522732976
 30
0.0
 10
-131.0143994079532
 20
18.95535499498835
 30
0.0
 10
-130.7576393333579
 20
19.01150337509823
 30
0.0
 10
-130.7040665670128
 20
19.02323672670089
 30
0.0
 10
-130.6517529896196
 20
19.03605755967219
 30
0.0
 10
-130.5978368081065
 20
19.04750473196815
 30
0.0
 10
-130.2891065712861
 20
19.11309702923034
 30
0.0
 10
-129.9755685221056
 20
19.17365257067357
 30
0.0
 10
-129.6597410384613
 20
19.23020160180961
 30
0.0
 10
-129.5780082282683
 20
19.24485398234887
 30
0.0
 10
-129.4955885877391
 20
19.25813270221216
 30
0.0
 10
-129.413397890656
 20
19.27221272413804
 30
0.0
 10
-129.1670547428507
 20
19.31433831818659
 30
0.0
 10
-128.9194524060902
 20
19.35388829846976
 30
0.0
 10
-128.6710487672715
 20
19.39057648568216
 30
0.0
 10
-128.5805016344124
 20
19.40391244139973
 30
0.0
 10
-128.4901834449968
 20
19.41759181229945
 30
0.0
 10
-128.3996363121338
 20
19.43024093768609
 30
0.0
 10
-128.0791154878501
 20
19.47499938135493
 30
0.0
 10
-127.7579078332303
 20
19.51672432437795
 30
0.0
 10
-127.4379593675619
 20
19.55255397366064
 30
0.0
 10
-127.4268556104353
 20
19.55381316261522
 30
0.0
 10
-127.4159807967521
 20
19.55472893639921
 30
0.0
 10
-127.40499151135
 20
19.5559308894886
 30
0.0
 10
-127.2907487318351
 20
19.56863725074043
 30
0.0
 10
-127.177307254386
 20
19.57888246994636
 30
0.0
 10
-127.0635223617651
 20
19.59044411396243
 30
0.0
 10
-127.0635223617651
 20
19.59044411396243
 30
0.0
 10
-127.0635223617651
 20
19.58895598156634
 30
0.0
 10
-127.0635223617651
 20
19.58895598156634
 30
0.0
 10
-126.8677757155076
 20
19.60881682550154
 30
0.0
 10
-126.6719145975223
 20
19.62913555632745
 30
0.0
 10
-126.4778850271063
 20
19.6456194844334
 30
0.0
 10
-126.3872234225258
 20
19.65328908986561
 30
0.0
 10
-126.297248648282
 20
19.66015739324165
 30
0.0
 10
-126.2072738740343
 20
19.66714016834998
 30
0.0
 10
-125.961388613123
 20
19.68619971022131
 30
0.0
 10
-125.7175638432172
 20
19.70245469487613
 30
0.0
 10
-125.4764863946698
 20
19.71607682991066
 30
0.0
 10
-125.4000192837314
 20
19.72042675537753
 30
0.0
 10
-125.3227508707343
 20
19.72552074705336
 30
0.0
 10
-125.2468561184139
 20
19.72929831391005
 30
0.0
 10
-124.9416745050061
 20
19.74446581720457
 30
0.0
 10
-124.6410717605158
 20
19.75568404604876
 30
0.0
 10
-124.3473373194027
 20
19.76215169839928
 30
0.0
 10
-124.2902159296494
 20
19.76341088735514
 30
0.0
 10
-124.235269502627
 20
19.76329641563439
 30
0.0
 10
-124.1787204714884
 20
19.76421218941838
 30
0.0
 10
-123.9609952544211
 20
19.7677608128233
 30
0.0
 10
-123.748650208333
 20
19.76816146386037
 30
0.0
 10
-123.5391669553165
 20
19.76690227490514
 30
0.0
 10
-123.3461676304096
 20
19.76570032181446
 30
0.0
 10
-123.1600366088808
 20
19.76117868875203
 30
0.0
 10
-122.9750503045788
 20
19.75591298950117
 30
0.0
 10
-122.8435222948991
 20
19.75213542264577
 30
0.0
 10
-122.7101627376535
 20
19.74921639370723
 30
0.0
 10
-122.5830991251705
 20
19.74337833583529
 30
0.0
 10
-122.3976549339746
 20
19.73485019247594
 30
0.0
 10
-122.2222842544037
 20
19.72214383122539
 30
0.0
 10
-122.0476004051663
 20
19.70920852653334
 30
0.0
 10
-121.9345023428859
 20
19.70085209076058
 30
0.0
 10
-121.8170543551303
 20
19.69415549496856
 30
0.0
 10
-121.70876410521
 20
19.68391027576199
 30
0.0
 10
-121.5237778009111
 20
19.66645333800622
 30
0.0
 10
-121.3536728205943
 20
19.64390240858682
 30
0.0
 10
-121.1842546706149
 20
19.62106529985047
 30
0.0
 10
-121.102292916979
 20
19.61001877859029
 30
0.0
 10
-121.0127760296247
 20
19.6013761635012
 30
0.0
 10
-120.9348207862877
 20
19.58907045328645
 30
0.0
 10
-120.6952314701382
 20
19.55123754885049
 30
0.0
 10
-120.472240553813
 20
19.50825341688251
 30
0.0
 10
-120.2738610579276
 20
19.45868716083491
 30
0.0
 10
-119.8949596549347
 20
19.36396181009103
 30
0.0
 10
-119.5328855952165
 20
19.16123238872971
 30
0.0
 10
-119.1891270111709
 20
18.87923129922381
 30
0.0
 10
-118.5017243148082
 20
18.31517188433911
 30
0.0
 10
-117.8881558797488
 20
17.43379685342363
 30
0.0
 10
-117.3625017279237
 20
16.46359176549371
 30
0.0
 10
-117.0996746520124
 20
15.97846060359005
 30
0.0
 10
-116.8588261469046
 20
15.47117916330471
 30
0.0
 10
-116.6417877601772
 20
14.9702509036363
 30
0.0
 10
-115.5751402456504
 20
14.94209085978583
 30
0.0
 10
-114.5228589323529
 20
14.8586409737494
 30
0.0
 10
-113.4860885375194
 20
14.72562483167757
 30
0.0
 10
-112.4493181426851
 20
14.592551453729
 30
0.0
 10
-111.4280586663115
 20
14.40996905561792
 30
0.0
 10
-110.4234548256272
 20
14.18342951588133
 30
0.0
 10
-109.5582775435052
 20
13.98831246409474
 30
0.0
 10
-108.7018001123311
 20
13.77024383186066
 30
0.0
 10
-107.8643249871631
 20
13.50735952008357
 30
0.0
 10
-107.627368520643
 20
13.4330101360295
 30
0.0
 10
-107.3920146582397
 20
13.35557001544582
 30
0.0
 10
-107.1574620978978
 20
13.27584046040154
 30
0.0
 10
-106.3271986912796
 20
12.99366766331033
 30
0.0
 10
-105.5091837590181
 20
12.6845367754574
 30
0.0
 10
-104.7108579631065
 20
12.33728680387145
 30
0.0
 10
-104.2042061172907
 20
12.59358899156828
 30
0.0
 10
-103.5883482477746
 20
12.83672693113222
 30
0.0
 10
-102.9153689885006
 20
13.06360988604068
 30
0.0
 10
-101.905842863731
 20
13.40387708252856
 30
0.0
 10
-100.7678794657978
 20
13.70745609181496
 30
0.0
 10
-99.67707841772904
 20
13.96392998710737
 30
0.0
 10
-98.94995403349529
 20
14.13489350534617
 30
0.0
 10
-98.24366350284142
 20
14.28485146241659
 30
0.0
 10
-97.61063487488195
 20
14.41071312181596
 30
0.0
 10
-97.29400608917892
 20
14.47367256943925
 30
0.0
 10
-96.99569277914914
 20
14.53056501575616
 30
0.0
 10
-96.72210536127606
 20
14.58104704557747
 30
0.0
 10
-96.72199088955466
 20
14.58110428143432
 30
0.0
 10
-96.72176194610802
 20
14.58104704557747
 30
0.0
 10
-96.72164747438598
 20
14.58110428143432
 30
0.0
 10
-96.52132195920794
 20
14.61790694036618
 30
0.0
 10
-96.33129889909845
 20
14.63439086847342
 30
0.0
 10
-96.14814414236308
 20
14.63610794431935
 30
0.0
 10
-96.02886460704141
 20
14.63725266155318
 30
0.0
 10
-95.91553760131368
 20
14.62551930994091
 30
0.0
 10
-95.80266848247541
 20
14.61229782594345
 30
0.0
 10
-95.7587113408589
 20
14.60714659841334
 30
0.0
 10
-95.7120068778917
 20
14.60829131563755
 30
0.0
 10
-95.66896551005788
 20
14.60102236123343
 30
0.0
 10
-95.51397079717363
 20
14.57492280839884
 30
0.0
 10
-95.36424178354343
 20
14.53571624328691
 30
0.0
 10
-95.2190916388306
 20
14.48288754314108
 30
0.0
 10
-95.19264867082862
 20
14.4732146825479
 30
0.0
 10
-95.16780830694605
 20
14.45787547167514
 30
0.0
 10
-95.14170875411211
 20
14.44734407316316
 30
0.0
 10
-95.02426076635712
 20
14.40023895915826
 30
0.0
 10
-94.90841538272217
 20
14.34855497624756
 30
0.0
 10
-94.79623309422509
 20
14.28450804725562
 30
0.0
 10
-94.74792602713721
 20
14.25697759787987
 30
0.0
 10
-94.70145050761344
 20
14.22137689203868
 30
0.0
 10
-94.65405921430955
 20
14.19081294201584
 30
0.0
 10
-94.56637387452188
 20
14.13437838258964
 30
0.0
 10
-94.47868853473485
 20
14.07828723834495
 30
0.0
 10
-94.39317815768637
 20
14.01172193144448
 30
0.0
 10
-94.34029222168177
 20
13.97056934704318
 30
0.0
 10
-94.28866547462535
 20
13.9222050440837
 30
0.0
 10
-94.23646636895746
 20
13.8772748928302
 30
0.0
 10
-94.15828218217638
 20
13.80990828386523
 30
0.0
 10
-94.08009799539595
 20
13.74305679765743
 30
0.0
 10
-94.00294405412408
 20
13.66744822464942
 30
0.0
 10
-93.94868445743902
 20
13.61427610933172
 30
0.0
 10
-93.89488274765046
 20
13.55532317200534
 30
0.0
 10
-93.84108103785866
 20
13.49814454639008
 30
0.0
 10
-93.76736124827354
 20
13.41990312374252
 30
0.0
 10
-93.69352698696383
 20
13.34143275766309
 30
0.0
 10
-93.62015061254737
 20
13.25597961646634
 30
0.0
 10
-93.56497524208219
 20
13.19198992334023
 30
0.0
 10
-93.51002881506362
 20
13.12359306887052
 30
0.0
 10
-93.45485344459843
 20
13.05565410129408
 30
0.0
 10
-93.38182048535001
 20
12.96556485532248
 30
0.0
 10
-93.30890199782365
 20
12.87444536384806
 30
0.0
 10
-93.2355256234072
 20
12.77765952208508
 30
0.0
 10
-93.17989236604871
 20
12.70451209112169
 30
0.0
 10
-93.12425910869347
 20
12.62844563121207
 30
0.0
 10
-93.06828243616632
 20
12.55157786925012
 30
0.0
 10
-92.99467711830258
 20
12.45032763028925
 30
0.0
 10
-92.92061391354945
 20
12.34736031549143
 30
0.0
 10
-92.84586387845637
 20
12.23987136763053
 30
0.0
 10
-92.7879411866405
 20
12.15659318917363
 30
0.0
 10
-92.72956060793136
 20
12.07165517074368
 30
0.0
 10
-92.67072214233214
 20
11.98471389715918
 30
0.0
 10
-92.59448397484042
 20
11.87218819348765
 30
0.0
 10
-92.51767344873661
 20
11.75743029122455
 30
0.0
 10
-92.43960373367757
 20
11.63895205795969
 30
0.0
 10
-92.37927713568033
 20
11.54726020787253
 30
0.0
 10
-92.3186071225106
 20
11.45539665019879
 30
0.0
 10
-92.25702133556071
 20
11.36027064841784
 30
0.0
 10
-92.17048071300366
 20
11.22708279875108
 30
0.0
 10
-92.08302431666004
 20
11.09160551463207
 30
0.0
 10
-91.99350742930953
 20
10.95195001262185
 30
0.0
 10
-91.92001658316785
 20
10.83747828966417
 30
0.0
 10
-91.84812834115005
 20
10.72586835977662
 30
0.0
 10
-91.77234806055162
 20
10.60721841893736
 30
0.0
 10
-91.65467112935319
 20
10.42286170911259
 30
0.0
 10
-91.53584948092158
 20
10.23713133860414
 30
0.0
 10
-91.41153318978862
 20
10.04333071163924
 30
0.0
 10
-91.32682411479825
 20
9.911058635763536
 30
0.0
 10
-91.23879535984318
 20
9.775581351636818
 30
0.0
 10
-91.15053766144084
 20
9.639188293734459
 30
0.0
 10
-91.07143770088027
 20
9.516989729480014
 30
0.0
 10
-90.99371140098989
 20
9.396851656233762
 30
0.0
 10
-90.91163517562881
 20
9.271447883727029
 30
0.0
 10
-90.81399079594509
 20
9.122291228719845
 30
0.0
 10
-90.71108071700413
 20
8.968841884089162
 30
0.0
 10
-90.60862852495644
 20
8.815392539460404
 30
0.0
 10
-90.531932470574
 20
8.700462929609443
 30
0.0
 10
-90.45775479409945
 20
8.587937225949461
 30
0.0
 10
-90.37831141836315
 20
8.470660945774632
 30
0.0
 10
-90.25948976993154
 20
8.295461973788425
 30
0.0
 10
-90.1333419312319
 20
8.115340717711054
 30
0.0
 10
-90.00765197942554
 20
7.935219461634324
 30
0.0
 10
-89.9386255304798
 20
7.836373128863153
 30
0.0
 10
-89.87349112011795
 20
7.740274117434312
 30
0.0
 10
-89.80228970843622
 20
7.639996888121332
 30
0.0
 10
-89.60150630636874
 20
7.357251732419949
 30
0.0
 10
-89.39282435541411
 20
7.069698764348793
 30
0.0
 10
-89.17315311905804
 20
6.776765625295123
 30
0.0
 10
-88.8917816240243
 20
6.401813496748117
 30
0.0
 10
-88.66146451743167
 20
6.015929318652704
 30
0.0
 10
-88.47590585451749
 20
5.62311960132441
 30
0.0
 10
-88.29034719160011
 20
5.230252648131568
 30
0.0
 10
-88.14954697236121
 20
4.830517391560122
 30
0.0
 10
-88.04709478031352
 20
4.427691398466123
 30
0.0
 10
-87.5865750388535
 20
2.614974429561416
 30
0.0
 10
-87.90595114590656
 20
0.7410723247246462
 30
0.0
 10
-88.43904595972494
 20
-0.8336006962913117
 30
0.0
 10
-88.61682054547781
 20
-1.358510781919002
 30
0.0
 10
-88.81829077788582
 20
-1.850109596162905
 30
0.0
 10
-89.02250833164449
 20
-2.295175655026202
 30
0.0
 10
-88.15641527573918
 20
-3.956789949626019
 30
0.0
 10
-87.43020666529197
 20
-5.703227790946582
 30
0.0
 10
-86.86093878701775
 20
-7.519035496373843
 30
0.0
 10
-86.48135055368884
 20
-8.729573966662105
 30
0.0
 10
-86.17147559963852
 20
-9.970905330424988
 30
0.0
 10
-85.93635068068124
 20
-11.23850795460583
 30
0.0
 10
-85.70111129000322
 20
-12.50611057878796
 30
0.0
 10
-85.54050746269302
 20
-13.79986999166023
 30
0.0
 10
-85.45969042628394
 20
-15.11532179603504
 30
0.0
 10
-85.41916743635352
 20
-15.77307631615888
 30
0.0
 10
-85.39867699794552
 20
-16.43621100725498
 30
0.0
 10
-85.39867699794552
 20
-17.1041535107202
 30
0.0
 10
-85.39867699794552
 20
-18.56664424323779
 30
0.0
 10
-85.5004423596565
 20
-20.00503867807407
 30
0.0
 10
-85.69057989149124
 20
-21.41544477664325
 30
0.0
 10
-85.76418520935112
 20
-21.96170383860158
 30
0.0
 10
-85.84820745400413
 20
-22.50470045645142
 30
0.0
 10
-85.94905704193179
 20
-23.04185901643767
 30
0.0
  0
SPLINE
  5
7E
330
79
100
AcDbEntity
  8
Layer 1
100
AcDbSpline
210
0.0
220
0.0
230
1.0
 70
    11
 71
     3
 72
    68
 73
    64
 74
     0
 42
0.0000000001
 43
0.0000000001
 40
0.0
 40
0.0
 40
0.0
 40
0.0
 40
1.0
 40
1.0
 40
1.0
 40
2.0
 40
2.0
 40
2.0
 40
3.0
 40
3.0
 40
3.0
 40
4.0
 40
4.0
 40
4.0
 40
5.0
 40
5.0
 40
5.0
 40
6.0
 40
6.0
 40
6.0
 40
7.0
 40
7.0
 40
7.0
 40
8.0
 40
8.0
 40
8.0
 40
9.0
 40
9.0
 40
9.0
 40
10.0
 40
10.0
 40
10.0
 40
11.0
 40
11.0
 40
11.0
 40
12.0
 40
12.0
 40
12.0
 40
13.0
 40
13.0
 40
13.0
 40
14.0
 40
14.0
 40
14.0
 40
15.0
 40
15.0
 40
15.0
 40
16.0
 40
16.0
 40
16.0
 40
17.0
 40
17.0
 40
17.0
 40
18.0
 40
18.0
 40
18.0
 40
19.0
 40
19.0
 40
19.0
 40
20.0
 40
20.0
 40
20.0
 40
21.0
 40
21.0
 40
21.0
 40
21.0
 10
-127.0635223617651
 20
88.98732355342772
 30
0.0
 10
-127.0635223617651
 20
88.98732355342772
 30
0.0
 10
-127.0635223617651
 20
23.35891046962093
 30
0.0
 10
-127.0635223617651
 20
23.35891046962093
 30
0.0
 10
-130.4619588729568
 20
23.04977958176735
 30
0.0
 10
-134.3183967477058
 20
22.26496144916437
 30
0.0
 10
-136.9717368141592
 20
20.75897146192225
 30
0.0
 10
-141.918861265255
 20
17.94920578604344
 30
0.0
 10
-143.896589222809
 20
12.8121727465589
 30
0.0
 10
-143.6410883371658
 20
9.227948629002504
 30
0.0
 10
-143.6075481223392
 20
8.746537798108963
 30
0.0
 10
-143.5125365922841
 20
8.24709767083921
 30
0.0
 10
-143.3519327649746
 20
7.718181074904981
 30
0.0
 10
-143.8363770965332
 20
7.214333786303168
 30
0.0
 10
-144.3054822172165
 20
6.697322249567159
 30
0.0
 10
-144.7584468249663
 20
6.168005002607411
 30
0.0
 10
-145.3051637738147
 20
6.216941664166805
 30
0.0
 10
-145.8305889821938
 20
6.241553084606586
 30
0.0
 10
-146.3315172418622
 20
6.241553084606586
 30
0.0
 10
-148.6402974222119
 20
6.241495848740756
 30
0.0
 10
-150.5083614691691
 20
5.703535986701547
 30
0.0
 10
-151.8840826356849
 20
4.642554822456898
 30
0.0
 10
-153.744820492374
 20
3.206564293810963
 30
0.0
 10
-155.3356340263317
 20
0.4948436486400883
 30
0.0
 10
-156.6140542283319
 20
-3.41883008758681
 30
0.0
 10
-157.0956367668152
 20
-4.642818985323661
 30
0.0
 10
-159.1644842158443
 20
-10.56192283606179
 30
0.0
 10
-156.3656505895094
 20
-15.60302857170278
 30
0.0
 10
-155.591478327143
 20
-16.99924017662532
 30
0.0
 10
-154.5466949116976
 20
-18.09261683846913
 30
0.0
 10
-153.3025017548646
 20
-18.83513766943763
 30
0.0
 10
-152.9996095759174
 20
-25.10727231378002
 30
0.0
 10
-151.0485535298121
 20
-31.16145279760971
 30
0.0
 10
-147.6836572334469
 20
-36.41467463589979
 30
0.0
 10
-152.3768834030201
 20
-36.08940323511215
 30
0.0
 10
-157.3892567362062
 20
-35.18221483065787
 30
0.0
 10
-162.6452258958438
 20
-33.68772925157755
 30
0.0
 10
-162.6452258958438
 20
-33.68772925157755
 30
0.0
 10
-166.4427108332677
 20
-32.60871879097594
 30
0.0
 10
-166.4427108332677
 20
-32.60871879097594
 30
0.0
 10
-166.4427108332677
 20
-32.60871879097594
 30
0.0
 10
-166.4427108332677
 20
-77.75859852439857
 30
0.0
 10
-166.4427108332677
 20
-77.75859852439857
 30
0.0
 10
-166.4427108332677
 20
-77.75859852439857
 30
0.0
 10
-164.2208146906437
 20
-78.34543781214546
 30
0.0
 10
-164.2208146906437
 20
-78.34543781214546
 30
0.0
 10
-154.0803371123682
 20
-81.02321759145141
 30
0.0
 10
-142.5799354653435
 20
-82.38176799952329
 30
0.0
 10
-130.0457396882781
 20
-82.38176799952329
 30
0.0
 10
-115.5746823587571
 20
-82.38176799952329
 30
0.0
 10
-103.8646829869938
 20
-79.81462514045635
 30
0.0
 10
-95.24152809653116
 20
-74.75171254158631
 30
0.0
 10
-86.45536547257629
 20
-69.59121279889391
 30
0.0
 10
-80.45315515096977
 20
-62.46643552609605
 30
0.0
 10
-77.40111007345224
 20
-53.57684770044688
 30
0.0
 10
-74.48311138351705
 20
-45.0687368915572
 30
0.0
 10
-73.0036788360028
 20
-32.63642094792608
 30
0.0
 10
-73.0036788360028
 20
-16.62783667149222
 30
0.0
 10
-73.0036788360028
 20
-16.62783667149222
 30
0.0
 10
-73.0036788360028
 20
88.98732355342772
 30
0.0
 10
-73.0036788360028
 20
88.98732355342772
 30
0.0
 10
-73.0036788360028
 20
88.98732355342772
 30
0.0
 10
-127.0635223617651
 20
88.98732355342772
 30
0.0
 10
-127.0635223617651
 20
88.98732355342772
 30
0.0
  0
HATCH
  5
7F
330
79
100
AcDbEntity
  8
Layer 1
 62
     7
440
 33554687
100
AcDbHatch
 10
0.0
 20
0.0
 30
0.0
210
0.0
220
0.0
230
1.0
  2
SOLID
 70
     1
 71
     1
 91
        2
 92
        1
 93
        1
 72
     4
 94
        3
 73
     0
 74
     0
 95
      629
 96
      625
 40
0.0
 40
0.0
 40
0.0
 40
0.0
 40
1.0
 40
1.0
 40
1.0
 40
2.0
 40
2.0
 40
2.0
 40
3.0
 40
3.0
 40
3.0
 40
4.0
 40
4.0
 40
4.0
 40
5.0
 40
5.0
 40
5.0
 40
6.0
 40
6.0
 40
6.0
 40
7.0
 40
7.0
 40
7.0
 40
8.0
 40
8.0
 40
8.0
 40
9.0
 40
9.0
 40
9.0
 40
10.0
 40
10.0
 40
10.0
 40
11.0
 40
11.0
 40
11.0
 40
12.0
 40
12.0
 40
12.0
 40
13.0
 40
13.0
 40
13.0
 40
14.0
 40
14.0
 40
14.0
 40
15.0
 40
15.0
 40
15.0
 40
16.0
 40
16.0
 40
16.0
 40
17.0
 40
17.0
 40
17.0
 40
18.0
 40
18.0
 40
18.0
 40
19.0
 40
19.0
 40
19.0
 40
20.0
 40
20.0
 40
20.0
 40
21.0
 40
21.0
 40
21.0
 40
22.0
 40
22.0
 40
22.0
 40
23.0
 40
23.0
 40
23.0
 40
24.0
 40
24.0
 40
24.0
 40
25.0
 40
25.0
 40
25.0
 40
26.0
 40
26.0
 40
26.0
 40
27.0
 40
27.0
 40
27.0
 40
28.0
 40
28.0
 40
28.0
 40
29.0
 40
29.0
 40
29.0
 40
30.0
 40
30.0
 40
30.0
 40
31.0
 40
31.0
 40
31.0
 40
32.0
 40
32.0
 40
32.0
 40
33.0
 40
33.0
 40
33.0
 40
34.0
 40
34.0
 40
34.0
 40
35.0
 40
35.0
 40
35.0
 40
36.0
 40
36.0
 40
36.0
 40
37.0
 40
37.0
 40
37.0
 40
38.0
 40
38.0
 40
38.0
 40
39.0
 40
39.0
 40
39.0
 40
40.0
 40
40.0
 40
40.0
 40
41.0
 40
41.0
 40
41.0
 40
42.0
 40
42.0
 40
42.0
 40
43.0
 40
43.0
 40
43.0
 40
44.0
 40
44.0
 40
44.0
 40
45.0
 40
45.0
 40
45.0
 40
46.0
 40
46.0
 40
46.0
 40
47.0
 40
47.0
 40
47.0
 40
48.0
 40
48.0
 40
48.0
 40
49.0
 40
49.0
 40
49.0
 40
50.0
 40
50.0
 40
50.0
 40
51.0
 40
51.0
 40
51.0
 40
52.0
 40
52.0
 40
52.0
 40
53.0
 40
53.0
 40
53.0
 40
54.0
 40
54.0
 40
54.0
 40
55.0
 40
55.0
 40
55.0
 40
56.0
 40
56.0
 40
56.0
 40
57.0
 40
57.0
 40
57.0
 40
58.0
 40
58.0
 40
58.0
 40
59.0
 40
59.0
 40
59.0
 40
60.0
 40
60.0
 40
60.0
 40
61.0
 40
61.0
 40
61.0
 40
62.0
 40
62.0
 40
62.0
 40
63.0
 40
63.0
 40
63.0
 40
64.0
 40
64.0
 40
64.0
 40
65.0
 40
65.0
 40
65.0
 40
66.0
 40
66.0
 40
66.0
 40
67.0
 40
67.0
 40
67.0
 40
68.0
 40
68.0
 40
68.0
 40
69.0
 40
69.0
 40
69.0
 40
70.0
 40
70.0
 40
70.0
 40
71.0
 40
71.0
 40
71.0
 40
72.0
 40
72.0
 40
72.0
 40
73.0
 40
73.0
 40
73.0
 40
74.0
 40
74.0
 40
74.0
 40
75.0
 40
75.0
 40
75.0
 40
76.0
 40
76.0
 40
76.0
 40
77.0
 40
77.0
 40
77.0
 40
78.0
 40
78.0
 40
78.0
 40
79.0
 40
79.0
 40
79.0
 40
80.0
 40
80.0
 40
80.0
 40
81.0
 40
81.0
 40
81.0
 40
82.0
 40
82.0
 40
82.0
 40
83.0
 40
83.0
 40
83.0
 40
84.0
 40
84.0
 40
84.0
 40
85.0
 40
85.0
 40
85.0
 40
86.0
 40
86.0
 40
86.0
 40
87.0
 40
87.0
 40
87.0
 40
88.0
 40
88.0
 40
88.0
 40
89.0
 40
89.0
 40
89.0
 40
90.0
 40
90.0
 40
90.0
 40
91.0
 40
91.0
 40
91.0
 40
92.0
 40
92.0
 40
92.0
 40
93.0
 40
93.0
 40
93.0
 40
94.0
 40
94.0
 40
94.0
 40
95.0
 40
95.0
 40
95.0
 40
96.0
 40
96.0
 40
96.0
 40
97.0
 40
97.0
 40
97.0
 40
98.0
 40
98.0
 40
98.0
 40
99.0
 40
99.0
 40
99.0
 40
100.0
 40
100.0
 40
100.0
 40
101.0
 40
101.0
 40
101.0
 40
102.0
 40
102.0
 40
102.0
 40
103.0
 40
103.0
 40
103.0
 40
104.0
 40
104.0
 40
104.0
 40
105.0
 40
105.0
 40
105.0
 40
106.0
 40
106.0
 40
106.0
 40
107.0
 40
107.0
 40
107.0
 40
108.0
 40
108.0
 40
108.0
 40
109.0
 40
109.0
 40
109.0
 40
110.0
 40
110.0
 40
110.0
 40
111.0
 40
111.0
 40
111.0
 40
112.0
 40
112.0
 40
112.0
 40
113.0
 40
113.0
 40
113.0
 40
114.0
 40
114.0
 40
114.0
 40
115.0
 40
115.0
 40
115.0
 40
116.0
 40
116.0
 40
116.0
 40
117.0
 40
117.0
 40
117.0
 40
118.0
 40
118.0
 40
118.0
 40
119.0
 40
119.0
 40
119.0
 40
120.0
 40
120.0
 40
120.0
 40
121.0
 40
121.0
 40
121.0
 40
122.0
 40
122.0
 40
122.0
 40
123.0
 40
123.0
 40
123.0
 40
124.0
 40
124.0
 40
124.0
 40
125.0
 40
125.0
 40
125.0
 40
126.0
 40
126.0
 40
126.0
 40
127.0
 40
127.0
 40
127.0
 40
128.0
 40
128.0
 40
128.0
 40
129.0
 40
129.0
 40
129.0
 40
130.0
 40
130.0
 40
130.0
 40
131.0
 40
131.0
 40
131.0
 40
132.0
 40
132.0
 40
132.0
 40
133.0
 40
133.0
 40
133.0
 40
134.0
 40
134.0
 40
134.0
 40
135.0
 40
135.0
 40
135.0
 40
136.0
 40
136.0
 40
136.0
 40
137.0
 40
137.0
 40
137.0
 40
138.0
 40
138.0
 40
138.0
 40
139.0
 40
139.0
 40
139.0
 40
140.0
 40
140.0
 40
140.0
 40
141.0
 40
141.0
 40
141.0
 40
142.0
 40
142.0
 40
142.0
 40
143.0
 40
143.0
 40
143.0
 40
144.0
 40
144.0
 40
144.0
 40
145.0
 40
145.0
 40
145.0
 40
146.0
 40
146.0
 40
146.0
 40
147.0
 40
147.0
 40
147.0
 40
148.0
 40
148.0
 40
148.0
 40
149.0
 40
149.0
 40
149.0
 40
150.0
 40
150.0
 40
150.0
 40
151.0
 40
151.0
 40
151.0
 40
152.0
 40
152.0
 40
152.0
 40
153.0
 40
153.0
 40
153.0
 40
154.0
 40
154.0
 40
154.0
 40
155.0
 40
155.0
 40
155.0
 40
156.0
 40
156.0
 40
156.0
 40
157.0
 40
157.0
 40
157.0
 40
158.0
 40
158.0
 40
158.0
 40
159.0
 40
159.0
 40
159.0
 40
160.0
 40
160.0
 40
160.0
 40
161.0
 40
161.0
 40
161.0
 40
162.0
 40
162.0
 40
162.0
 40
163.0
 40
163.0
 40
163.0
 40
164.0
 40
164.0
 40
164.0
 40
165.0
 40
165.0
 40
165.0
 40
166.0
 40
166.0
 40
166.0
 40
167.0
 40
167.0
 40
167.0
 40
168.0
 40
168.0
 40
168.0
 40
169.0
 40
169.0
 40
169.0
 40
170.0
 40
170.0
 40
170.0
 40
171.0
 40
171.0
 40
171.0
 40
172.0
 40
172.0
 40
172.0
 40
173.0
 40
173.0
 40
173.0
 40
174.0
 40
174.0
 40
174.0
 40
175.0
 40
175.0
 40
175.0
 40
176.0
 40
176.0
 40
176.0
 40
177.0
 40
177.0
 40
177.0
 40
178.0
 40
178.0
 40
178.0
 40
179.0
 40
179.0
 40
179.0
 40
180.0
 40
180.0
 40
180.0
 40
181.0
 40
181.0
 40
181.0
 40
182.0
 40
182.0
 40
182.0
 40
183.0
 40
183.0
 40
183.0
 40
184.0
 40
184.0
 40
184.0
 40
185.0
 40
185.0
 40
185.0
 40
186.0
 40
186.0
 40
186.0
 40
187.0
 40
187.0
 40
187.0
 40
188.0
 40
188.0
 40
188.0
 40
189.0
 40
189.0
 40
189.0
 40
190.0
 40
190.0
 40
190.0
 40
191.0
 40
191.0
 40
191.0
 40
192.0
 40
192.0
 40
192.0
 40
193.0
 40
193.0
 40
193.0
 40
194.0
 40
194.0
 40
194.0
 40
195.0
 40
195.0
 40
195.0
 40
196.0
 40
196.0
 40
196.0
 40
197.0
 40
197.0
 40
197.0
 40
198.0
 40
198.0
 40
198.0
 40
199.0
 40
199.0
 40
199.0
 40
200.0
 40
200.0
 40
200.0
 40
201.0
 40
201.0
 40
201.0
 40
202.0
 40
202.0
 40
202.0
 40
203.0
 40
203.0
 40
203.0
 40
204.0
 40
204.0
 40
204.0
 40
205.0
 40
205.0
 40
205.0
 40
206.0
 40
206.0
 40
206.0
 40
207.0
 40
207.0
 40
207.0
 40
208.0
 40
208.0
 40
208.0
 40
208.0
 10
-85.94905704193179
 20
-23.04185901643767
 10
-86.0694812944841
 20
-23.68318684431048
 10
-86.20902232477098
 20
-24.3178180763932
 10
-86.36687883072729
 20
-24.94512311820532
 10
-86.7490999136887
 20
-26.46296092877983
 10
-87.25163077747716
 20
-27.93128971916102
 10
-87.84104567898813
 20
-29.35457388656733
 10
-88.03347264528284
 20
-29.81938631764379
 10
-88.23356921701423
 20
-30.28036394599965
 10
-88.44373930036368
 20
-30.73544628061774
 10
-88.653909383717
 20
-31.19058585110038
 10
-88.87426745041297
 20
-31.63988736371108
 10
-89.10767529352495
 20
-32.08151927088829
 10
-89.10767529352495
 20
-32.08151927088829
 10
-89.10767529352495
 20
-32.08157650674321
 10
-89.10767529352495
 20
-32.08157650674321
 10
-88.54779409653529
 20
-33.10346557759731
 10
-87.96089757292513
 20
-34.49034773709727
 10
-87.81483165443216
 20
-35.98660762789065
 10
-87.7676693045749
 20
-36.46864805326983
 10
-87.76492198322102
 20
-36.96173499991046
 10
-87.82547752466554
 20
-37.45802715480273
 10
-87.88763567023393
 20
-37.96754079368477
 10
-87.96181334670848
 20
-38.39343283895471
 10
-88.05167364923473
 20
-38.75676608763072
 10
-88.14153395175713
 20
-39.12009933629582
 10
-88.24684793687623
 20
-39.42081655251016
 10
-88.37093528456255
 20
-39.67992329742286
 10
-88.45369834026421
 20
-39.85266112736958
 10
-88.54470336001659
 20
-40.00691177405451
 10
-88.64520953277235
 20
-40.1488567105234
 10
-88.84610740656569
 20
-40.43280381932381
 10
-89.08432306204103
 20
-40.66764255897053
 10
-89.36798399153216
 20
-40.9031108930984
 10
-89.65164492102331
 20
-41.1386364630844
 10
-89.98052218108298
 20
-41.374734391687
 10
-90.36251432059454
 20
-41.66131435011346
 10
-90.61732837590042
 20
-41.85236765573026
 10
-90.89560913441291
 20
-42.06585741904826
 10
-91.1998749740373
 20
-42.31643602060483
 10
-91.50425528538308
 20
-42.56707185802208
 10
-91.83439173439477
 20
-42.85479653367854
 10
-92.19303164242562
 20
-43.19443413569683
 10
-92.45700343556686
 20
-43.44449761449878
 10
-92.69842429928614
 20
-43.69232889470402
 10
-92.92954270794137
 20
-43.93689773080462
 10
-92.97704847296666
 20
-43.98709358132181
 10
-93.02421082282775
 20
-44.03631642219368
 10
-93.07045739890103
 20
-44.08611162168213
 10
-93.28566423806497
 20
-44.31826027584146
 10
-93.48919496148374
 20
-44.54537217419079
 10
-93.68082062571714
 20
-44.7661308919174
 10
-93.72889874936157
 20
-44.82164967755191
 10
-93.77251247580622
 20
-44.87270406599047
 10
-93.81944588222003
 20
-44.92730707784228
 10
-93.99699152452626
 20
-45.13410024536506
 10
-94.1680122786264
 20
-45.33511259088044
 10
-94.32987529489183
 20
-45.52582248133048
 10
-94.50089604899199
 20
-45.72740718545925
 10
-94.66230117836028
 20
-45.91422503732864
 10
-94.82073004293512
 20
-46.09285816100544
 10
-94.856903107391
 20
-46.13355285851731
 10
-94.89261828495676
 20
-46.17275942363053
 10
-94.92821899079411
 20
-46.21213769632777
 10
-95.08870834638228
 20
-46.38939715932858
 10
-95.24542013511183
 20
-46.55515221417274
 10
-95.39949907421595
 20
-46.70138984025292
 10
-95.41392251130856
 20
-46.71489750356221
 10
-95.42788806151049
 20
-46.72577231724286
 10
-95.44219702687788
 20
-46.73899380124417
 10
-95.58402749162473
 20
-46.87092246195442
 10
-95.72482771086365
 20
-46.98482182629808
 10
-95.86631476043926
 20
-47.08527076319443
 10
-95.89561952151651
 20
-47.10604738091105
 10
-95.92492428259504
 20
-47.12871278205762
 10
-95.95422904367294
 20
-47.14805850323691
 10
-96.10350017040921
 20
-47.24627524153593
 10
-96.25471731643806
 20
-47.32394430556111
 10
-96.40959755760029
 20
-47.38135187462622
 10
-96.44084833797075
 20
-47.3929135186455
 10
-96.47278594867408
 20
-47.40081206752948
 10
-96.50438014421192
 20
-47.41059939984149
 10
-96.65891697020292
 20
-47.45856305176069
 10
-96.81688794788769
 20
-47.48952765282189
 10
-96.98287194617719
 20
-47.49181708728057
 10
-96.99409017502524
 20
-47.49198879486587
 10
-97.00439263009378
 20
-47.49490782380184
 10
-97.01549638722042
 20
-47.49485058793922
 10
-97.03049218292774
 20
-47.4947361162159
 10
-97.04640375241837
 20
-47.49170261555853
 10
-97.0616284915691
 20
-47.49124472866655
 10
-97.15618213473796
 20
-47.48826846386924
 10
-97.25325415580634
 20
-47.47710747088061
 10
-97.35284455477811
 20
-47.4582196365933
 10
-97.38878867578733
 20
-47.45140856907732
 10
-97.4256485705799
 20
-47.44190741607073
 10
-97.46227952192903
 20
-47.43297862168073
 10
-97.54813331414553
 20
-47.41208753223886
 10
-97.63616206910059
 20
-47.38484326217622
 10
-97.72636578679167
 20
-47.35181817010297
 10
-97.76356909675225
 20
-47.33813879920903
 10
-97.8004289915448
 20
-47.32583308899171
 10
-97.83843360356733
 20
-47.31009322708444
 10
-97.96515380088615
 20
-47.25766517796991
 10
-98.09485026299777
 20
-47.19716687238674
 10
-98.23141502848415
 20
-47.12029911041966
 10
-98.60241788259365
 20
-46.91150268774297
 10
-98.98406660693654
 20
-46.74185559431816
 10
-99.36525744438998
 20
-46.59550349651593
 10
-99.55596733484004
 20
-46.52229882968351
 10
-99.74644828184345
 20
-46.45498945658499
 10
-99.93555556816957
 20
-46.39145765034125
 10
-100.313770140825
 20
-46.26445127372089
 10
-100.68626112733
 20
-46.15278410797393
 10
-101.0421537140076
 20
-46.0407162911976
 10
-101.5759353581659
 20
-45.87261456603343
 10
-102.0723992206351
 20
-45.70353983122457
 10
-102.4946854066298
 20
-45.48014826386996
 10
-103.0543376601722
 20
-45.77674449805443
 10
-103.6238344818898
 20
-46.0573719268895
 10
-104.2023745697234
 20
-46.32134372003075
 10
-105.3596836888345
 20
-46.84928730631515
 10
-106.5536237592916
 20
-47.31066558569846
 10
-107.7793869687299
 20
-47.70038456651191
 10
-108.3922685734495
 20
-47.89527267484865
 10
-109.0132776705015
 20
-48.07224595854278
 10
-109.6414984860963
 20
-48.23067482311699
 10
-112.1544962202047
 20
-48.86439028141507
 10
-114.7855143006834
 20
-49.20145226966671
 10
-117.4959757568939
 20
-49.20145226966671
 10
-118.8458263140186
 20
-49.20145226966671
 10
-120.1746140741231
 20
-49.11451099607836
 10
-121.479820659294
 20
-48.95161773430948
 10
-122.5386840966601
 20
-48.81946013015387
 10
-123.5806057190302
 20
-48.6333863444851
 10
-124.6050131677852
 20
-48.40043638826383
 10
-125.2500613266546
 20
-48.25379811115426
 10
-125.8874398800873
 20
-48.08729899011206
 10
-126.5172632998061
 20
-47.90259886511861
 10
-127.0644381355484
 20
-47.74216674539114
 10
-127.6077209327069
 20
-47.57286306713629
 10
-128.1425328223705
 20
-47.38478602631616
 10
-128.4005520859171
 20
-47.90935269677198
 10
-128.74614221753
 20
-48.47827715987495
 10
-129.1918951067333
 20
-48.95694066942681
 10
-129.6376479959333
 20
-49.43566141484
 10
-130.1835636427197
 20
-49.82417844256019
 10
-130.8420049931764
 20
-49.98815918569771
 10
-130.8426918235163
 20
-49.98833089328237
 10
-130.843378653853
 20
-49.98833089328237
 10
-130.8440654841936
 20
-49.98850260086768
 10
-131.0018075184279
 20
-50.02782363770357
 10
-131.1588627223261
 20
-50.05592644568886
 10
-131.3152310958908
 20
-50.07550111031608
 10
-131.3677736167267
 20
-50.08208323438607
 10
-131.4198582506733
 20
-50.08271282886079
 10
-131.4721718280664
 20
-50.0871772260574
 10
-131.5764555676814
 20
-50.09604878458734
 10
-131.6806248355712
 20
-50.10480587139333
 10
-131.7843362165735
 20
-50.10572164517668
 10
-131.8181053748441
 20
-50.10600782448337
 10
-131.8515311179493
 20
-50.10291708796402
 10
-131.8853002762193
 20
-50.10240196521005
 10
-132.1073754187612
 20
-50.09908228524599
 10
-132.3285347875159
 20
-50.08030892268136
 10
-132.5480915521499
 20
-50.04447927339418
 10
-132.5654912540431
 20
-50.04167471618153
 10
-132.5831198993752
 20
-50.04058723481224
 10
-132.600405129543
 20
-50.03755373415552
 10
-132.8267157258304
 20
-49.99811822559567
 10
-133.0513092462751
 20
-49.93990935447119
 10
-133.2747580494904
 20
-49.87156973586473
 10
-133.3135639635749
 20
-49.85966467667677
 10
-133.3524843493808
 20
-49.84856091955077
 10
-133.3912902634653
 20
-49.83591179416221
 10
-133.6074128764094
 20
-49.76528274109836
 10
-133.822390772126
 20
-49.68332098745994
 10
-134.0358805354414
 20
-49.59134295806353
 10
-134.0756022233093
 20
-49.57422943547964
 10
-134.1152094394519
 20
-49.55608566739101
 10
-134.1548166555983
 20
-49.53834255033305
 10
-134.3718550423257
 20
-49.44104158581866
 10
-134.5882065987196
 20
-49.33675784620364
 10
-134.8024976640964
 20
-49.22325913288934
 10
-134.8194394790924
 20
-49.21427310263801
 10
-134.8361523506482
 20
-49.20454300618605
 10
-134.8530941656442
 20
-49.19549974007209
 10
-135.0657826269009
 20
-49.08171484745175
 10
-135.2770974274804
 20
-48.9613478307595
 10
-135.4870385673864
 20
-48.83697430376713
 10
-135.5133670636676
 20
-48.8213489135819
 10
-135.5399245033948
 20
-48.80623864615192
 10
-135.5662529996754
 20
-48.79049878424466
 10
-135.780544065056
 20
-48.66229045453105
 10
-135.9934614697555
 20
-48.53030455796075
 10
-136.2048907420608
 20
-48.39705947243714
 10
-136.2510228464127
 20
-48.36804089066723
 10
-136.2970404790438
 20
-48.33913678062064
 10
-136.342943639949
 20
-48.31000372712676
 10
-136.5605543852911
 20
-48.17206530096184
 10
-136.7770204134065
 20
-48.03401240307488
 10
-136.9916548939557
 20
-47.89773381689199
 10
-137.2056025441638
 20
-47.7618558817404
 10
-137.4184054771419
 20
-47.62763778657148
 10
-137.6293768625572
 20
-47.49914327754988
 10
-137.6314373535705
 20
-47.49788408859787
 10
-137.6336123163059
 20
-47.49645319206055
 10
-137.6356728073198
 20
-47.49519400310726
 10
-137.7512892475075
 20
-47.42490836521016
 10
-137.8713700848917
 20
-47.34901361289096
 10
-137.9951140174094
 20
-47.26791039717391
 10
-139.6027548946373
 20
-46.2132251776964
 10
-141.8106854870593
 20
-44.27504720042491
 10
-142.5031249392365
 20
-42.32948579702212
 10
-142.6096981133115
 20
-42.03019947734831
 10
-142.6803271663773
 20
-41.73068421422594
 10
-142.7074569647166
 20
-41.43420245176414
 10
-142.7383643299184
 20
-41.09536615180587
 10
-142.7124937205272
 20
-40.76047912629216
 10
-142.6181690208095
 20
-40.43429195172118
 10
-142.4869844262986
 20
-39.98064051363591
 10
-142.332676543751
 20
-39.57724216193109
 10
-142.1652044130635
 20
-39.21568322496812
 10
-141.997732282376
 20
-38.85412428800516
 10
-141.8168669601006
 20
-38.53440476577571
 10
-141.6324530144132
 20
-38.2481109866585
 10
-142.1178131197596
 20
-37.69469744201679
 10
-142.5785618046663
 20
-37.11970597759267
 10
-143.0256883545435
 20
-36.53366799190965
 10
-144.8589529977214
 20
-34.13004798908954
 10
-146.3673468911462
 20
-31.4650890427504
 10
-147.4697095832356
 20
-28.59694278816693
 10
-147.8125523934972
 20
-27.70509359459504
 10
-148.1167037613963
 20
-26.79401315157487
 10
-148.3799887242047
 20
-25.86581918596247
 10
-149.1700725560611
 20
-23.08123728913554
 10
-149.5932745158391
 20
-20.14234750975913
 10
-149.5932745158391
 20
-17.1041535107202
 10
-149.5932745158391
 20
-16.79811335938919
 10
-149.5782787201318
 20
-16.49470605768937
 10
-149.5700367560811
 20
-16.18935273670147
 10
-150.1770803029274
 20
-16.13274646968869
 10
-150.8183508949414
 20
-15.95977969630624
 10
-151.4267681024643
 20
-15.58654464359683
 10
-152.0351853099917
 20
-15.21330959088741
 10
-152.6106346613033
 20
-14.63986349473483
 10
-153.0861501984706
 20
-13.78229858218564
 10
-153.6271435611723
 20
-12.80797251222778
 10
-153.8975257708015
 20
-11.75317282102824
 10
-153.9989477173438
 20
-10.71897803996001
 10
-154.024360439841
 20
-10.46044365365107
 10
-154.039241763827
 20
-10.20316845630442
 10
-154.0449653499743
 20
-9.948755052030469
 10
-154.0449653499743
 20
-9.946064966544986
 10
-154.044850878249
 20
-9.943489352769988
 10
-154.0449653499743
 20
-9.940856503148411
 10
-154.0663715621663
 20
-8.970594179351371
 10
-153.9561352929573
 20
-8.046006073009081
 10
-153.8046892034818
 20
-7.247508569516647
 10
-153.7906091815578
 20
-7.173502600624837
 10
-153.7768725748058
 20
-7.101270943436451
 10
-153.7621057225419
 20
-7.029611644867225
 10
-153.6033334427984
 20
-6.254695316299568
 10
-153.4109064765069
 20
-5.613768139452915
 10
-153.2715943896666
 20
-5.203730427819981
 10
-153.162273894241
 20
-4.881778706996396
 10
-153.0861501984706
 20
-4.699482488181097
 10
-153.0861501984706
 20
-4.699482488181097
 10
-152.9365356565657
 20
-4.235929246058577
 10
-152.7471994267929
 20
-3.686007088966869
 10
-152.5213467173962
 20
-3.101800650852465
 10
-152.408477598558
 20
-2.809726049725932
 10
-152.2864507418863
 20
-2.509066069376787
 10
-152.1557240342654
 20
-2.20634559801111
 10
-151.8942706190275
 20
-1.600961891139168
 10
-151.5979033282897
 20
-0.9873362202274043
 10
-151.2700563137348
 20
-0.4177821626407168
 10
-151.0242855245448
 20
0.0094263074400088
 10
-150.760542674847
 20
0.4118516494956536
 10
-150.4806593122151
 20
0.7675152927304724
 10
-150.2007759495793
 20
1.123178935965291
 10
-149.9045231305629
 20
1.432138116223296
 10
-149.5932745158391
 20
1.672299790995692
 10
-149.5906416662144
 20
1.674303046148319
 10
-149.5872075145238
 20
1.675333291653056
 10
-149.5845746648945
 20
1.677336546804401
 10
-149.393406887555
 20
1.823631408742728
 10
-149.177742161501
 20
1.945429321969085
 10
-148.9443343183897
 20
2.047709806434049
 10
-148.86237256475
 20
2.083653927447756
 10
-148.7685057519217
 20
2.105689734111257
 10
-148.6821940728151
 20
2.136654335169894
 10
-148.5194152827664
 20
2.195034913883531
 10
-148.3575522665042
 20
2.254903624993255
 10
-148.1812658131467
 20
2.296914747311424
 10
-148.0705716570477
 20
2.323243243597782
 10
-147.9518644803374
 20
2.338010095856517
 10
-147.8369348704897
 20
2.358386062547614
 10
-147.6715232308123
 20
2.387748059481711
 10
-147.5075997235361
 20
2.418998839855383
 10
-147.3350908370373
 20
2.437085372078818
 10
-147.2077982811077
 20
2.450421327806654
 10
-147.0762702714287
 20
2.455229140165517
 10
-146.9461159224232
 20
2.463013217327463
 10
-146.7772701310622
 20
2.473086728948088
 10
-146.6091111700341
 20
2.484190486072168
 10
-146.4371746421507
 20
2.485793090198633
 10
-146.4014594645881
 20
2.486136505370515
 10
-146.3673468911462
 20
2.490543666701932
 10
-146.3315172418622
 20
2.490543666701932
 10
-146.2025076100873
 20
2.490543666701932
 10
-146.0726966762498
 20
2.481901051612847
 10
-145.9431146858628
 20
2.477837305450746
 10
-145.8268114153346
 20
2.474174210316731
 10
-145.7107370882568
 20
2.472972257227336
 10
-145.5945482894532
 20
2.466390133156068
 10
-145.4151710995771
 20
2.456144913950785
 10
-145.2375109855463
 20
2.440176108600729
 10
-145.0599653432362
 20
2.423863888080718
 10
-144.9553381884538
 20
2.414248263351443
 10
-144.8494518447187
 20
2.407265488244387
 10
-144.7460838788838
 20
2.395875551812331
 10
-144.5523977236403
 20
2.374526575482969
 10
-144.3645496262662
 20
2.348427022647741
 10
-144.1775028309502
 20
2.322098526362025
 10
-144.0948542469737
 20
2.310479646491032
 10
-144.0087715113106
 20
2.300921257617963
 10
-143.9277255314581
 20
2.288501075683095
 10
-143.6640971534817
 20
2.248092557471499
 10
-143.4087107395598
 20
2.204364359306754
 10
-143.1683201213485
 20
2.158976321149713
 10
-142.5279653031184
 20
3.011447242023726
 10
-141.8453704191165
 20
3.830091768758053
 10
-141.1243130362026
 20
4.612792174488298
 10
-140.7639560523291
 20
5.004113759420505
 10
-140.3937545002809
 20
5.386449314102013
 10
-140.014624153842
 20
5.759455423359655
 10
-139.9904706202962
 20
5.783093834159247
 10
-139.9647144826341
 20
5.805072404968468
 10
-139.9406754208103
 20
5.828653579891962
 10
-139.5844394189646
 20
6.17693379699228
 10
-139.2216785289097
 20
6.518689125885233
 10
-138.8497599010162
 20
6.85037094316013
 10
-138.9888430444098
 20
7.08967408000282
 10
-139.1208289409821
 20
7.329320632019318
 10
-139.241482136981
 20
7.565590268204644
 10
-139.3619063895333
 20
7.801859904390612
 10
-139.4711124132331
 20
8.034695388883429
 10
-139.5644068674461
 20
8.260204683116558
 10
-139.7511102475909
 20
8.711223271573832
 10
-139.8743962932184
 20
9.133051570672042
 10
-139.899580072269
 20
9.494667743501478
 10
-139.9330058153742
 20
9.96337221315346
 10
-139.8958025054098
 20
10.51621339918306
 10
-139.782933386576
 20
11.11203871717873
 10
-139.7369157539455
 20
11.35580625122123
 10
-139.6813969683078
 20
11.60461054107244
 10
-139.6077916504486
 20
11.86108443636421
 10
-139.35446572754
 20
12.74451995828788
 10
-138.9330953153293
 20
13.68885443683563
 10
-138.3085375948685
 20
14.59272316131558
 10
-137.9337571739029
 20
15.13509018469647
 10
-137.485714850243
 20
15.66280482753104
 10
-136.9568554901733
 20
16.15411746246953
 10
-136.7805690368191
 20
16.31786926216042
 10
-136.5953537890736
 20
16.47755731568921
 10
-136.400866331765
 20
16.6324375568495
 10
-136.0117769454288
 20
16.94214080331582
 10
-135.5857131925787
 20
17.23244109273893
 10
-135.1202711670294
 20
17.49681353691147
 10
-135.1196988084141
 20
17.49715695208271
 10
-135.1188975063522
 20
17.49744313138941
 10
-135.1184396194621
 20
17.49778654656064
 10
-134.91010108368
 20
17.61592136465427
 10
-134.684019430836
 20
17.72764576626193
 10
-134.4501537008307
 20
17.83639390306778
 10
-134.3827298560057
 20
17.86770191929766
 10
-134.3129021050013
 20
17.8980941617442
 10
-134.2435322408901
 20
17.92865811177603
 10
-134.0571722759146
 20
18.01073433713519
 10
-133.8641729510046
 20
18.08994876942294
 10
-133.6646487378879
 20
18.16641588035873
 10
-133.5993998558014
 20
18.19142795182466
 10
-133.5362114647283
 20
18.21729856121839
 10
-133.4695889219677
 20
18.24168103820576
 10
-133.2085933936238
 20
18.33737939859945
 10
-132.939126957778
 20
18.42912848454988
 10
-132.6605027840975
 20
18.51566910710758
 10
-132.6073879046424
 20
18.53215303521353
 10
-132.5520980624558
 20
18.5470915950582
 10
-132.4985252961107
 20
18.56323210799292
 10
-132.2646595661054
 20
18.6336322176159
 10
-132.0256426085681
 20
18.70094159071505
 10
-131.7820467821135
 20
18.76504575557153
 10
-131.6941324988831
 20
18.78816904360303
 10
-131.6059892722027
 20
18.81089168061928
 10
-131.5170447434637
 20
18.83321366659076
 10
-131.2676108591364
 20
18.89571522732976
 10
-131.0143994079532
 20
18.95535499498835
 10
-130.7576393333579
 20
19.01150337509823
 10
-130.7040665670128
 20
19.02323672670089
 10
-130.6517529896196
 20
19.03605755967219
 10
-130.5978368081065
 20
19.04750473196815
 10
-130.2891065712861
 20
19.11309702923034
 10
-129.9755685221056
 20
19.17365257067357
 10
-129.6597410384613
 20
19.23020160180961
 10
-129.5780082282683
 20
19.24485398234887
 10
-129.4955885877391
 20
19.25813270221216
 10
-129.413397890656
 20
19.27221272413804
 10
-129.1670547428507
 20
19.31433831818659
 10
-128.9194524060902
 20
19.35388829846976
 10
-128.6710487672715
 20
19.39057648568216
 10
-128.5805016344124
 20
19.40391244139973
 10
-128.4901834449968
 20
19.41759181229945
 10
-128.3996363121338
 20
19.43024093768609
 10
-128.0791154878501
 20
19.47499938135493
 10
-127.7579078332303
 20
19.51672432437795
 10
-127.4379593675619
 20
19.55255397366064
 10
-127.4268556104353
 20
19.55381316261522
 10
-127.4159807967521
 20
19.55472893639921
 10
-127.40499151135
 20
19.5559308894886
 10
-127.2907487318351
 20
19.56863725074043
 10
-127.177307254386
 20
19.57888246994636
 10
-127.0635223617651
 20
19.59044411396243
 10
-127.0635223617651
 20
19.59044411396243
 10
-127.0635223617651
 20
19.58895598156634
 10
-127.0635223617651
 20
19.58895598156634
 10
-126.8677757155076
 20
19.60881682550154
 10
-126.6719145975223
 20
19.62913555632745
 10
-126.4778850271063
 20
19.6456194844334
 10
-126.3872234225258
 20
19.65328908986561
 10
-126.297248648282
 20
19.66015739324165
 10
-126.2072738740343
 20
19.66714016834998
 10
-125.961388613123
 20
19.68619971022131
 10
-125.7175638432172
 20
19.70245469487613
 10
-125.4764863946698
 20
19.71607682991066
 10
-125.4000192837314
 20
19.72042675537753
 10
-125.3227508707343
 20
19.72552074705336
 10
-125.2468561184139
 20
19.72929831391005
 10
-124.9416745050061
 20
19.74446581720457
 10
-124.6410717605158
 20
19.75568404604876
 10
-124.3473373194027
 20
19.76215169839928
 10
-124.2902159296494
 20
19.76341088735514
 10
-124.235269502627
 20
19.76329641563439
 10
-124.1787204714884
 20
19.76421218941838
 10
-123.9609952544211
 20
19.7677608128233
 10
-123.748650208333
 20
19.76816146386037
 10
-123.5391669553165
 20
19.76690227490514
 10
-123.3461676304096
 20
19.76570032181446
 10
-123.1600366088808
 20
19.76117868875203
 10
-122.9750503045788
 20
19.75591298950117
 10
-122.8435222948991
 20
19.75213542264577
 10
-122.7101627376535
 20
19.74921639370723
 10
-122.5830991251705
 20
19.74337833583529
 10
-122.3976549339746
 20
19.73485019247594
 10
-122.2222842544037
 20
19.72214383122539
 10
-122.0476004051663
 20
19.70920852653334
 10
-121.9345023428859
 20
19.70085209076058
 10
-121.8170543551303
 20
19.69415549496856
 10
-121.70876410521
 20
19.68391027576199
 10
-121.5237778009111
 20
19.66645333800622
 10
-121.3536728205943
 20
19.64390240858682
 10
-121.1842546706149
 20
19.62106529985047
 10
-121.102292916979
 20
19.61001877859029
 10
-121.0127760296247
 20
19.6013761635012
 10
-120.9348207862877
 20
19.58907045328645
 10
-120.6952314701382
 20
19.55123754885049
 10
-120.472240553813
 20
19.50825341688251
 10
-120.2738610579276
 20
19.45868716083491
 10
-119.8949596549347
 20
19.36396181009103
 10
-119.5328855952165
 20
19.16123238872971
 10
-119.1891270111709
 20
18.87923129922381
 10
-118.5017243148082
 20
18.31517188433911
 10
-117.8881558797488
 20
17.43379685342363
 10
-117.3625017279237
 20
16.46359176549371
 10
-117.0996746520124
 20
15.97846060359005
 10
-116.8588261469046
 20
15.47117916330471
 10
-116.6417877601772
 20
14.9702509036363
 10
-115.5751402456504
 20
14.94209085978583
 10
-114.5228589323529
 20
14.8586409737494
 10
-113.4860885375194
 20
14.72562483167757
 10
-112.4493181426851
 20
14.592551453729
 10
-111.4280586663115
 20
14.40996905561792
 10
-110.4234548256272
 20
14.18342951588133
 10
-109.5582775435052
 20
13.98831246409474
 10
-108.7018001123311
 20
13.77024383186066
 10
-107.8643249871631
 20
13.50735952008357
 10
-107.627368520643
 20
13.4330101360295
 10
-107.3920146582397
 20
13.35557001544582
 10
-107.1574620978978
 20
13.27584046040154
 10
-106.3271986912796
 20
12.99366766331033
 10
-105.5091837590181
 20
12.6845367754574
 10
-104.7108579631065
 20
12.33728680387145
 10
-104.2042061172907
 20
12.59358899156828
 10
-103.5883482477746
 20
12.83672693113222
 10
-102.9153689885006
 20
13.06360988604068
 10
-101.905842863731
 20
13.40387708252856
 10
-100.7678794657978
 20
13.70745609181496
 10
-99.67707841772904
 20
13.96392998710737
 10
-98.94995403349529
 20
14.13489350534617
 10
-98.24366350284142
 20
14.28485146241659
 10
-97.61063487488195
 20
14.41071312181596
 10
-97.29400608917892
 20
14.47367256943925
 10
-96.99569277914914
 20
14.53056501575616
 10
-96.72210536127606
 20
14.58104704557747
 10
-96.72199088955466
 20
14.58110428143432
 10
-96.72176194610802
 20
14.58104704557747
 10
-96.72164747438598
 20
14.58110428143432
 10
-96.52132195920794
 20
14.61790694036618
 10
-96.33129889909845
 20
14.63439086847342
 10
-96.14814414236308
 20
14.63610794431935
 10
-96.02886460704141
 20
14.63725266155318
 10
-95.91553760131368
 20
14.62551930994091
 10
-95.80266848247541
 20
14.61229782594345
 10
-95.7587113408589
 20
14.60714659841334
 10
-95.7120068778917
 20
14.60829131563755
 10
-95.66896551005788
 20
14.60102236123343
 10
-95.51397079717363
 20
14.57492280839884
 10
-95.36424178354343
 20
14.53571624328691
 10
-95.2190916388306
 20
14.48288754314108
 10
-95.19264867082862
 20
14.4732146825479
 10
-95.16780830694605
 20
14.45787547167514
 10
-95.14170875411211
 20
14.44734407316316
 10
-95.02426076635712
 20
14.40023895915826
 10
-94.90841538272217
 20
14.34855497624756
 10
-94.79623309422509
 20
14.28450804725562
 10
-94.74792602713721
 20
14.25697759787987
 10
-94.70145050761344
 20
14.22137689203868
 10
-94.65405921430955
 20
14.19081294201584
 10
-94.56637387452188
 20
14.13437838258964
 10
-94.47868853473485
 20
14.07828723834495
 10
-94.39317815768637
 20
14.01172193144448
 10
-94.34029222168177
 20
13.97056934704318
 10
-94.28866547462535
 20
13.9222050440837
 10
-94.23646636895746
 20
13.8772748928302
 10
-94.15828218217638
 20
13.80990828386523
 10
-94.08009799539595
 20
13.74305679765743
 10
-94.00294405412408
 20
13.66744822464942
 10
-93.94868445743902
 20
13.61427610933172
 10
-93.89488274765046
 20
13.55532317200534
 10
-93.84108103785866
 20
13.49814454639008
 10
-93.76736124827354
 20
13.41990312374252
 10
-93.69352698696383
 20
13.34143275766309
 10
-93.62015061254737
 20
13.25597961646634
 10
-93.56497524208219
 20
13.19198992334023
 10
-93.51002881506362
 20
13.12359306887052
 10
-93.45485344459843
 20
13.05565410129408
 10
-93.38182048535001
 20
12.96556485532248
 10
-93.30890199782365
 20
12.87444536384806
 10
-93.2355256234072
 20
12.77765952208508
 10
-93.17989236604871
 20
12.70451209112169
 10
-93.12425910869347
 20
12.62844563121207
 10
-93.06828243616632
 20
12.55157786925012
 10
-92.99467711830258
 20
12.45032763028925
 10
-92.92061391354945
 20
12.34736031549143
 10
-92.84586387845637
 20
12.23987136763053
 10
-92.7879411866405
 20
12.15659318917363
 10
-92.72956060793136
 20
12.07165517074368
 10
-92.67072214233214
 20
11.98471389715918
 10
-92.59448397484042
 20
11.87218819348765
 10
-92.51767344873661
 20
11.75743029122455
 10
-92.43960373367757
 20
11.63895205795969
 10
-92.37927713568033
 20
11.54726020787253
 10
-92.3186071225106
 20
11.45539665019879
 10
-92.25702133556071
 20
11.36027064841784
 10
-92.17048071300366
 20
11.22708279875108
 10
-92.08302431666004
 20
11.09160551463207
 10
-91.99350742930953
 20
10.95195001262185
 10
-91.92001658316785
 20
10.83747828966417
 10
-91.84812834115005
 20
10.72586835977662
 10
-91.77234806055162
 20
10.60721841893736
 10
-91.65467112935319
 20
10.42286170911259
 10
-91.53584948092158
 20
10.23713133860414
 10
-91.41153318978862
 20
10.04333071163924
 10
-91.32682411479825
 20
9.911058635763536
 10
-91.23879535984318
 20
9.775581351636818
 10
-91.15053766144084
 20
9.639188293734459
 10
-91.07143770088027
 20
9.516989729480014
 10
-90.99371140098989
 20
9.396851656233762
 10
-90.91163517562881
 20
9.271447883727029
 10
-90.81399079594509
 20
9.122291228719845
 10
-90.71108071700413
 20
8.968841884089162
 10
-90.60862852495644
 20
8.815392539460404
 10
-90.531932470574
 20
8.700462929609443
 10
-90.45775479409945
 20
8.587937225949461
 10
-90.37831141836315
 20
8.470660945774632
 10
-90.25948976993154
 20
8.295461973788425
 10
-90.1333419312319
 20
8.115340717711054
 10
-90.00765197942554
 20
7.935219461634324
 10
-89.9386255304798
 20
7.836373128863153
 10
-89.87349112011795
 20
7.740274117434312
 10
-89.80228970843622
 20
7.639996888121332
 10
-89.60150630636874
 20
7.357251732419949
 10
-89.39282435541411
 20
7.069698764348793
 10
-89.17315311905804
 20
6.776765625295123
 10
-88.8917816240243
 20
6.401813496748117
 10
-88.66146451743167
 20
6.015929318652704
 10
-88.47590585451749
 20
5.62311960132441
 10
-88.29034719160011
 20
5.230252648131568
 10
-88.14954697236121
 20
4.830517391560122
 10
-88.04709478031352
 20
4.427691398466123
 10
-87.5865750388535
 20
2.614974429561416
 10
-87.90595114590656
 20
0.7410723247246462
 10
-88.43904595972494
 20
-0.8336006962913117
 10
-88.61682054547781
 20
-1.358510781919002
 10
-88.81829077788582
 20
-1.850109596162905
 10
-89.02250833164449
 20
-2.295175655026202
 10
-88.15641527573918
 20
-3.956789949626019
 10
-87.43020666529197
 20
-5.703227790946582
 10
-86.86093878701775
 20
-7.519035496373843
 10
-86.48135055368884
 20
-8.729573966662105
 10
-86.17147559963852
 20
-9.970905330424988
 10
-85.93635068068124
 20
-11.23850795460583
 10
-85.70111129000322
 20
-12.50611057878796
 10
-85.54050746269302
 20
-13.79986999166023
 10
-85.45969042628394
 20
-15.11532179603504
 10
-85.41916743635352
 20
-15.77307631615888
 10
-85.39867699794552
 20
-16.43621100725498
 10
-85.39867699794552
 20
-17.1041535107202
 10
-85.39867699794552
 20
-18.56664424323779
 10
-85.5004423596565
 20
-20.00503867807407
 10
-85.69057989149124
 20
-21.41544477664325
 10
-85.76418520935112
 20
-21.96170383860158
 10
-85.84820745400413
 20
-22.50470045645142
 10
-85.94905704193179
 20
-23.04185901643767
 97
        0
 97
        1
330
7D
 92
        1
 93
        1
 72
     4
 94
        3
 73
     0
 74
     0
 95
       68
 96
       64
 40
0.0
 40
0.0
 40
0.0
 40
0.0
 40
1.0
 40
1.0
 40
1.0
 40
2.0
 40
2.0
 40
2.0
 40
3.0
 40
3.0
 40
3.0
 40
4.0
 40
4.0
 40
4.0
 40
5.0
 40
5.0
 40
5.0
 40
6.0
 40
6.0
 40
6.0
 40
7.0
 40
7.0
 40
7.0
 40
8.0
 40
8.0
 40
8.0
 40
9.0
 40
9.0
 40
9.0
 40
10.0
 40
10.0
 40
10.0
 40
11.0
 40
11.0
 40
11.0
 40
12.0
 40
12.0
 40
12.0
 40
13.0
 40
13.0
 40
13.0
 40
14.0
 40
14.0
 40
14.0
 40
15.0
 40
15.0
 40
15.0
 40
16.0
 40
16.0
 40
16.0
 40
17.0
 40
17.0
 40
17.0
 40
18.0
 40
18.0
 40
18.0
 40
19.0
 40
19.0
 40
19.0
 40
20.0
 40
20.0
 40
20.0
 40
21.0
 40
21.0
 40
21.0
 40
21.0
 10
-127.0635223617651
 20
88.98732355342772
 10
-127.0635223617651
 20
88.98732355342772
 10
-127.0635223617651
 20
23.35891046962093
 10
-127.0635223617651
 20
23.35891046962093
 10
-130.4619588729568
 20
23.04977958176735
 10
-134.3183967477058
 20
22.26496144916437
 10
-136.9717368141592
 20
20.75897146192225
 10
-141.918861265255
 20
17.94920578604344
 10
-143.896589222809
 20
12.8121727465589
 10
-143.6410883371658
 20
9.227948629002504
 10
-143.6075481223392
 20
8.746537798108963
 10
-143.5125365922841
 20
8.24709767083921
 10
-143.3519327649746
 20
7.718181074904981
 10
-143.8363770965332
 20
7.214333786303168
 10
-144.3054822172165
 20
6.697322249567159
 10
-144.7584468249663
 20
6.168005002607411
 10
-145.3051637738147
 20
6.216941664166805
 10
-145.8305889821938
 20
6.241553084606586
 10
-146.3315172418622
 20
6.241553084606586
 10
-148.6402974222119
 20
6.241495848740756
 10
-150.5083614691691
 20
5.703535986701547
 10
-151.8840826356849
 20
4.642554822456898
 10
-153.744820492374
 20
3.206564293810963
 10
-155.3356340263317
 20
0.4948436486400883
 10
-156.6140542283319
 20
-3.41883008758681
 10
-157.0956367668152
 20
-4.642818985323661
 10
-159.1644842158443
 20
-10.56192283606179
 10
-156.3656505895094
 20
-15.60302857170278
 10
-155.591478327143
 20
-16.99924017662532
 10
-154.5466949116976
 20
-18.09261683846913
 10
-153.3025017548646
 20
-18.83513766943763
 10
-152.9996095759174
 20
-25.10727231378002
 10
-151.0485535298121
 20
-31.16145279760971
 10
-147.6836572334469
 20
-36.41467463589979
 10
-152.3768834030201
 20
-36.08940323511215
 10
-157.3892567362062
 20
-35.18221483065787
 10
-162.6452258958438
 20
-33.68772925157755
 10
-162.6452258958438
 20
-33.68772925157755
 10
-166.4427108332677
 20
-32.60871879097594
 10
-166.4427108332677
 20
-32.60871879097594
 10
-166.4427108332677
 20
-32.60871879097594
 10
-166.4427108332677
 20
-77.75859852439857
 10
-166.4427108332677
 20
-77.75859852439857
 10
-166.4427108332677
 20
-77.75859852439857
 10
-164.2208146906437
 20
-78.34543781214546
 10
-164.2208146906437
 20
-78.34543781214546
 10
-154.0803371123682
 20
-81.02321759145141
 10
-142.5799354653435
 20
-82.38176799952329
 10
-130.0457396882781
 20
-82.38176799952329
 10
-115.5746823587571
 20
-82.38176799952329
 10
-103.8646829869938
 20
-79.81462514045635
 10
-95.24152809653116
 20
-74.75171254158631
 10
-86.45536547257629
 20
-69.59121279889391
 10
-80.45315515096977
 20
-62.46643552609605
 10
-77.40111007345224
 20
-53.57684770044688
 10
-74.48311138351705
 20
-45.0687368915572
 10
-73.0036788360028
 20
-32.63642094792608
 10
-73.0036788360028
 20
-16.62783667149222
 10
-73.0036788360028
 20
-16.62783667149222
 10
-73.0036788360028
 20
88.98732355342772
 10
-73.0036788360028
 20
88.98732355342772
 10
-73.0036788360028
 20
88.98732355342772
 10
-127.0635223617651
 20
88.98732355342772
 10
-127.0635223617651
 20
88.98732355342772
 97
        0
 97
        1
330
7E
 75
     2
 76
     1
 98
        1
 10
0.0
 20
0.0
450
        0
451
        0
460
0.0
461
0.0
452
        0
462
0.0
453
        0
470

  0
SPLINE
  5
80
330
79
100
AcDbEntity
  8
Layer 1
100
AcDbSpline
210
0.0
220
0.0
230
1.0
 70
     9
 71
     3
 72
    26
 73
    22
 74
     0
 42
0.0000000001
 43
0.0000000001
 40
0.0
 40
0.0
 40
0.0
 40
0.0
 40
1.0
 40
1.0
 40
1.0
 40
2.0
 40
2.0
 40
2.0
 40
3.0
 40
3.0
 40
3.0
 40
4.0
 40
4.0
 40
4.0
 40
5.0
 40
5.0
 40
5.0
 40
6.0
 40
6.0
 40
6.0
 40
7.0
 40
7.0
 40
7.0
 40
7.0
 10
-122.3392743552654
 20
16.79327032761469
 30
0.0
 10
-123.4992163240052
 20
17.38342929532178
 30
0.0
 10
-125.22006973524
 20
17.4937228003902
 30
0.0
 10
-127.0635223617651
 20
17.23318515893633
 30
0.0
 10
-131.3630802760842
 20
16.62551201761662
 30
0.0
 10
-136.3339003738357
 20
13.98768286961616
 30
0.0
 10
-136.4394433024021
 20
10.62416023393595
 30
0.0
 10
-136.574176520325
 20
6.342116493224333
 30
0.0
 10
-132.2727870584386
 20
5.838383676341988
 30
0.0
 10
-127.0635223617651
 20
6.068185660187066
 30
0.0
 10
-126.425456977995
 20
6.096345704029201
 30
0.0
 10
-125.7761733653736
 20
6.133549013988508
 30
0.0
 10
-125.1172741280236
 20
6.178192985947505
 30
0.0
 10
-122.2630361877769
 20
6.371821905328387
 30
0.0
 10
-120.0631186159628
 20
8.030345463415917
 30
0.0
 10
-118.9336261255309
 20
10.6309713014468
 30
0.0
 10
-118.6418377037065
 20
11.30452291933412
 30
0.0
 10
-118.5539234204767
 20
11.94190147276751
 30
0.0
 10
-118.6207749066839
 20
12.53973004591709
 30
0.0
 10
-118.8314028769266
 20
14.41712353830193
 30
0.0
 10
-120.5757229913699
 20
15.89621267064494
 30
0.0
 10
-122.3392743552654
 20
16.79327032761469
 30
0.0
  0
HATCH
  5
81
330
79
100
AcDbEntity
  8
Layer 1
 62
     7
440
 33554687
100
AcDbHatch
 10
0.0
 20
0.0
 30
0.0
210
0.0
220
0.0
230
1.0
  2
SOLID
 70
     1
 71
     1
 91
        1
 92
        1
 93
        1
 72
     4
 94
        3
 73
     0
 74
     0
 95
       26
 96
       22
 40
0.0
 40
0.0
 40
0.0
 40
0.0
 40
1.0
 40
1.0
 40
1.0
 40
2.0
 40
2.0
 40
2.0
 40
3.0
 40
3.0
 40
3.0
 40
4.0
 40
4.0
 40
4.0
 40
5.0
 40
5.0
 40
5.0
 40
6.0
 40
6.0
 40
6.0
 40
7.0
 40
7.0
 40
7.0
 40
7.0
 10
-122.3392743552654
 20
16.79327032761469
 10
-123.4992163240052
 20
17.38342929532178
 10
-125.22006973524
 20
17.4937228003902
 10
-127.0635223617651
 20
17.23318515893633
 10
-131.3630802760842
 20
16.62551201761662
 10
-136.3339003738357
 20
13.98768286961616
 10
-136.4394433024021
 20
10.62416023393595
 10
-136.574176520325
 20
6.342116493224333
 10
-132.2727870584386
 20
5.838383676341988
 10
-127.0635223617651
 20
6.068185660187066
 10
-126.425456977995
 20
6.096345704029201
 10
-125.7761733653736
 20
6.133549013988508
 10
-125.1172741280236
 20
6.178192985947505
 10
-122.2630361877769
 20
6.371821905328387
 10
-120.0631186159628
 20
8.030345463415917
 10
-118.9336261255309
 20
10.6309713014468
 10
-118.6418377037065
 20
11.30452291933412
 10
-118.5539234204767
 20
11.94190147276751
 10
-118.6207749066839
 20
12.53973004591709
 10
-118.8314028769266
 20
14.41712353830193
 10
-120.5757229913699
 20
15.89621267064494
 10
-122.3392743552654
 20
16.79327032761469
 97
        0
 97
        1
330
80
 75
     2
 76
     1
 98
        1
 10
0.0
 20
0.0
450
        0
451
        0
460
0.0
461
0.0
452
        0
462
0.0
453
        0
470

  0
SPLINE
  5
82
330
79
100
AcDbEntity
  8
Layer 1
100
AcDbSpline
210
0.0
220
0.0
230
1.0
 70
     9
 71
     3
 72
    14
 73
    10
 74
     0
 42
0.0000000001
 43
0.0000000001
 40
0.0
 40
0.0
 40
0.0
 40
0.0
 40
1.0
 40
1.0
 40
1.0
 40
2.0
 40
2.0
 40
2.0
 40
3.0
 40
3.0
 40
3.0
 40
3.0
 10
-115.2184463569115
 20
-4.37432555912319
 30
0.0
 10
-119.1435672654369
 20
-7.394204082489479
 30
0.0
 10
-120.5022321452276
 20
-15.6964947335017
 30
0.0
 10
-107.0661136629767
 20
-17.98901992918503
 30
0.0
 10
-93.62930835038595
 20
-20.28360561589389
 30
0.0
 10
-97.55454373062956
 20
-8.450148490923496
 30
0.0
 10
-97.55454373062956
 20
-8.450148490923496
 30
0.0
 10
-99.66837856678374
 20
-1.958457081941956
 30
0.0
 10
-111.2932109766634
 20
-1.35513386609168
 30
0.0
 10
-115.2184463569115
 20
-4.37432555912319
 30
0.0
  0
HATCH
  5
83
330
79
100
AcDbEntity
  8
Layer 1
 62
     7
440
 33554687
100
AcDbHatch
 10
0.0
 20
0.0
 30
0.0
210
0.0
220
0.0
230
1.0
  2
SOLID
 70
     1
 71
     1
 91
        1
 92
        1
 93
        1
 72
     4
 94
        3
 73
     0
 74
     0
 95
       14
 96
       10
 40
0.0
 40
0.0
 40
0.0
 40
0.0
 40
1.0
 40
1.0
 40
1.0
 40
2.0
 40
2.0
 40
2.0
 40
3.0
 40
3.0
 40
3.0
 40
3.0
 10
-115.2184463569115
 20
-4.37432555912319
 10
-119.1435672654369
 20
-7.394204082489479
 10
-120.5022321452276
 20
-15.6964947335017
 10
-107.0661136629767
 20
-17.98901992918503
 10
-93.62930835038595
 20
-20.28360561589389
 10
-97.55454373062956
 20
-8.450148490923496
 10
-97.55454373062956
 20
-8.450148490923496
 10
-99.66837856678374
 20
-1.958457081941956
 10
-111.2932109766634
 20
-1.35513386609168
 10
-115.2184463569115
 20
-4.37432555912319
 97
        0
 97
        1
330
82
 75
     2
 76
     1
 98
        1
 10
0.0
 20
0.0
450
        0
451
        0
460
0.0
461
0.0
452
        0
462
0.0
453
        0
470

  0
SPLINE
  5
84
330
79
100
AcDbEntity
  8
Layer 1
100
AcDbSpline
210
0.0
220
0.0
230
1.0
 70
     9
 71
     3
 72
    26
 73
    22
 74
     0
 42
0.0000000001
 43
0.0000000001
 40
0.0
 40
0.0
 40
0.0
 40
0.0
 40
1.0
 40
1.0
 40
1.0
 40
2.0
 40
2.0
 40
2.0
 40
3.0
 40
3.0
 40
3.0
 40
4.0
 40
4.0
 40
4.0
 40
5.0
 40
5.0
 40
5.0
 40
6.0
 40
6.0
 40
6.0
 40
7.0
 40
7.0
 40
7.0
 40
7.0
 10
-136.9765446265232
 20
-37.57868035079719
 30
0.0
 10
-138.0365527811187
 20
-37.882087652497
 30
0.0
 10
-139.3815955258826
 20
-38.54121583329682
 30
0.0
 10
-139.6808246096925
 20
-39.58353810669567
 30
0.0
 10
-139.7511102475909
 20
-39.82827865037901
 30
0.0
 10
-139.7639310805628
 20
-40.09413922694956
 30
0.0
 10
-139.7012005763829
 20
-40.38249349708266
 30
0.0
 10
-139.4102134566205
 20
-41.70836222824997
 30
0.0
 10
-137.8272984715493
 20
-43.30009153598719
 30
0.0
 10
-136.9186219347073
 20
-44.16721483739791
 30
0.0
 10
-135.8476244947066
 20
-45.18773024757282
 30
0.0
 10
-134.4856399349467
 20
-46.00574517983435
 30
0.0
 10
-133.0977847657995
 20
-46.42225054381845
 30
0.0
 10
-132.6083036784257
 20
-46.56877434920597
 30
0.0
 10
-131.9736724463469
 20
-46.83400533129988
 30
0.0
 10
-131.4514524462085
 20
-46.70717066226097
 30
0.0
 10
-128.3545344532905
 20
-45.94776525215458
 30
0.0
 10
-129.8064937872981
 20
-41.12215253497909
 30
0.0
 10
-130.9715869835667
 20
-39.49493699312208
 30
0.0
 10
-133.8993157699512
 20
-35.40205777460372
 30
0.0
 10
-136.189208116013
 20
-37.354430245518
 30
0.0
 10
-136.9765446265232
 20
-37.57868035079719
 30
0.0
  0
HATCH
  5
85
330
79
100
AcDbEntity
  8
Layer 1
 62
     7
440
 33554687
100
AcDbHatch
 10
0.0
 20
0.0
 30
0.0
210
0.0
220
0.0
230
1.0
  2
SOLID
 70
     1
 71
     1
 91
        1
 92
        1
 93
        1
 72
     4
 94
        3
 73
     0
 74
     0
 95
       26
 96
       22
 40
0.0
 40
0.0
 40
0.0
 40
0.0
 40
1.0
 40
1.0
 40
1.0
 40
2.0
 40
2.0
 40
2.0
 40
3.0
 40
3.0
 40
3.0
 40
4.0
 40
4.0
 40
4.0
 40
5.0
 40
5.0
 40
5.0
 40
6.0
 40
6.0
 40
6.0
 40
7.0
 40
7.0
 40
7.0
 40
7.0
 10
-136.9765446265232
 20
-37.57868035079719
 10
-138.0365527811187
 20
-37.882087652497
 10
-139.3815955258826
 20
-38.54121583329682
 10
-139.6808246096925
 20
-39.58353810669567
 10
-139.7511102475909
 20
-39.82827865037901
 10
-139.7639310805628
 20
-40.09413922694956
 10
-139.7012005763829
 20
-40.38249349708266
 10
-139.4102134566205
 20
-41.70836222824997
 10
-137.8272984715493
 20
-43.30009153598719
 10
-136.9186219347073
 20
-44.16721483739791
 10
-135.8476244947066
 20
-45.18773024757282
 10
-134.4856399349467
 20
-46.00574517983435
 10
-133.0977847657995
 20
-46.42225054381845
 10
-132.6083036784257
 20
-46.56877434920597
 10
-131.9736724463469
 20
-46.83400533129988
 10
-131.4514524462085
 20
-46.70717066226097
 10
-128.3545344532905
 20
-45.94776525215458
 10
-129.8064937872981
 20
-41.12215253497909
 10
-130.9715869835667
 20
-39.49493699312208
 10
-133.8993157699512
 20
-35.40205777460372
 10
-136.189208116013
 20
-37.354430245518
 10
-136.9765446265232
 20
-37.57868035079719
 97
        0
 97
        1
330
84
 75
     2
 76
     1
 98
        1
 10
0.0
 20
0.0
450
        0
451
        0
460
0.0
461
0.0
452
        0
462
0.0
453
        0
470

  0
SPLINE
  5
86
330
79
100
AcDbEntity
  8
Layer 1
100
AcDbSpline
210
0.0
220
0.0
230
1.0
 70
     9
 71
     3
 72
    23
 73
    19
 74
     0
 42
0.0000000001
 43
0.0000000001
 40
0.0
 40
0.0
 40
0.0
 40
0.0
 40
1.0
 40
1.0
 40
1.0
 40
2.0
 40
2.0
 40
2.0
 40
3.0
 40
3.0
 40
3.0
 40
4.0
 40
4.0
 40
4.0
 40
5.0
 40
5.0
 40
5.0
 40
6.0
 40
6.0
 40
6.0
 40
6.0
 10
-93.31302297985093
 20
9.820454267035394
 30
0.0
 10
-93.88091719744853
 20
10.56148696560972
 30
0.0
 10
-94.60758369478837
 20
11.25953553221543
 30
0.0
 10
-95.48489497954303
 20
11.6098762403233
 30
0.0
 10
-96.42356310780286
 20
11.98620202955527
 30
0.0
 10
-96.88099211274417
 20
11.86760932457029
 30
0.0
 10
-97.04869318687897
 20
11.48716255331167
 30
0.0
 10
-97.4359510256478
 20
10.60510069206334
 30
0.0
 10
-96.27566564173998
 20
8.318699733550946
 30
0.0
 10
-95.93408202043297
 20
7.47200963468497
 30
0.0
 10
-95.23878077518114
 20
5.750068742082794
 30
0.0
 10
-94.14191272579246
 20
2.607533767560443
 30
0.0
 10
-92.21352208083427
 20
1.856313085647941
 30
0.0
 10
-89.67820236075054
 20
0.8726003344029548
 30
0.0
 10
-89.67820236075054
 20
1.848815187792687
 30
0.0
 10
-90.64560289147358
 20
4.504673632158451
 30
0.0
 10
-91.31904003763695
 20
6.354765618608405
 30
0.0
 10
-92.10706337848387
 20
8.245781246018154
 30
0.0
 10
-93.31302297985093
 20
9.820454267035394
 30
0.0
  0
HATCH
  5
87
330
79
100
AcDbEntity
  8
Layer 1
 62
     7
440
 33554687
100
AcDbHatch
 10
0.0
 20
0.0
 30
0.0
210
0.0
220
0.0
230
1.0
  2
SOLID
 70
     1
 71
     1
 91
        1
 92
        1
 93
        1
 72
     4
 94
        3
 73
     0
 74
     0
 95
       23
 96
       19
 40
0.0
 40
0.0
 40
0.0
 40
0.0
 40
1.0
 40
1.0
 40
1.0
 40
2.0
 40
2.0
 40
2.0
 40
3.0
 40
3.0
 40
3.0
 40
4.0
 40
4.0
 40
4.0
 40
5.0
 40
5.0
 40
5.0
 40
6.0
 40
6.0
 40
6.0
 40
6.0
 10
-93.31302297985093
 20
9.820454267035394
 10
-93.88091719744853
 20
10.56148696560972
 10
-94.60758369478837
 20
11.25953553221543
 10
-95.48489497954303
 20
11.6098762403233
 10
-96.42356310780286
 20
11.98620202955527
 10
-96.88099211274417
 20
11.86760932457029
 10
-97.04869318687897
 20
11.48716255331167
 10
-97.4359510256478
 20
10.60510069206334
 10
-96.27566564173998
 20
8.318699733550946
 10
-95.93408202043297
 20
7.47200963468497
 10
-95.23878077518114
 20
5.750068742082794
 10
-94.14191272579246
 20
2.607533767560443
 10
-92.21352208083427
 20
1.856313085647941
 10
-89.67820236075054
 20
0.8726003344029548
 10
-89.67820236075054
 20
1.848815187792687
 10
-90.64560289147358
 20
4.504673632158451
 10
-91.31904003763695
 20
6.354765618608405
 10
-92.10706337848387
 20
8.245781246018154
 10
-93.31302297985093
 20
9.820454267035394
 97
        0
 97
        1
330
86
 75
     2
 76
     1
 98
        1
 10
0.0
 20
0.0
450
        0
451
        0
460
0.0
461
0.0
452
        0
462
0.0
453
        0
470

  0
ENDBLK
  5
7C
330
79
100
AcDbEntity
  8
0
100
AcDbBlockEnd
  0
ENDSEC
  0
SECTION
  2
ENTITIES
  0
INSERT
  5
7A
330
70
100
AcDbEntity
  8
Layer 1
100
AcDbBlockReference
  2
Block_0
 10
0.0
 20
0.0
 30
0.0
  0
ENDSEC
  0
SECTION
  2
OBJECTS
  0
DICTIONARY
  5
C
330
0
100
AcDbDictionary
281
     1
  3
ACAD_COLOR
350
63
  3
ACAD_DETAILVIEWSTYLE
350
6A
  3
ACAD_GROUP
350
D
  3
ACAD_LAYOUT
350
62
  3
ACAD_MATERIAL
350
10
  3
ACAD_MLEADERSTYLE
350
66
  3
ACAD_MLINESTYLE
350
5F
  3
ACAD_PLOTSETTINGS
350
61
  3
ACAD_PLOTSTYLENAME
350
E
  3
ACAD_SCALELIST
350
42
  3
ACAD_SECTIONVIEWSTYLE
350
68
  3
ACAD_TABLESTYLE
350
64
  3
ACAD_VISUALSTYLE
350
29
  3
ACDB_RECOMPOSE_DATA
350
90
  3
AcDbVariableDictionary
350
88
  0
DICTIONARY
  5
63
102
{ACAD_REACTORS
330
C
102
}
330
C
100
AcDbDictionary
281
     1
  0
DICTIONARY
  5
6A
102
{ACAD_REACTORS
330
C
102
}
330
C
100
AcDbDictionary
281
     1
  3
Imperial24
350
6B
  0
DICTIONARY
  5
D
102
{ACAD_REACTORS
330
C
102
}
330
C
100
AcDbDictionary
281
     1
  0
DICTIONARY
  5
62
102
{ACAD_REACTORS
330
C
102
}
330
C
100
AcDbDictionary
281
     1
  3
Layout1
350
6F
  3
Layout2
350
77
  3
Model
350
73
  0
DICTIONARY
  5
10
102
{ACAD_REACTORS
330
C
102
}
330
C
100
AcDbDictionary
281
     1
  3
ByBlock
350
19
  3
ByLayer
350
11
  3
Global
350
21
  0
DICTIONARY
  5
66
102
{ACAD_REACTORS
330
C
102
}
330
C
100
AcDbDictionary
281
     1
  3
Standard
350
67
  0
DICTIONARY
  5
5F
102
{ACAD_REACTORS
330
C
102
}
330
C
100
AcDbDictionary
281
     1
  3
Standard
350
60
  0
DICTIONARY
  5
61
102
{ACAD_REACTORS
330
C
102
}
330
C
100
AcDbDictionary
281
     1
  0
ACDBDICTIONARYWDFLT
  5
E
102
{ACAD_REACTORS
330
C
102
}
330
C
100
AcDbDictionary
281
     1
  3
Normal
350
F
100
AcDbDictionaryWithDefault
340
F
  0
DICTIONARY
  5
42
102
{ACAD_REACTORS
330
C
102
}
330
C
100
AcDbDictionary
281
     1
  3
A0
350
43
  3
A1
350
44
  3
A2
350
45
  3
A3
350
46
  3
A4
350
47
  3
A5
350
48
  3
A6
350
49
  3
A7
350
4A
  3
A8
350
4B
  3
A9
350
4C
  3
B0
350
4D
  3
B1
350
4E
  3
B2
350
4F
  3
B3
350
50
  3
B4
350
51
  3
B5
350
52
  3
B6
350
53
  0
DICTIONARY
  5
68
102
{ACAD_REACTORS
330
C
102
}
330
C
100
AcDbDictionary
281
     1
  3
Imperial24
350
69
  0
DICTIONARY
  5
64
102
{ACAD_REACTORS
330
C
102
}
330
C
100
AcDbDictionary
281
     1
  3
Standard
350
65
  0
DICTIONARY
  5
29
102
{ACAD_REACTORS
330
C
102
}
330
C
100
AcDbDictionary
281
     1
  3
2dWireframe
350
2F
  3
Basic
350
2E
  3
Brighten
350
35
  3
ColorChange
350
39
  3
Conceptual
350
32
  3
Dim
350
34
  3
EdgeColorOff
350
41
  3
Facepattern
350
38
  3
Flat
350
2A
  3
FlatWithEdges
350
2B
  3
Gouraud
350
2C
  3
GouraudWithEdges
350
2D
  3
Hidden
350
31
  3
JitterOff
350
3F
  3
Linepattern
350
37
  3
OverhangOff
350
40
  3
Realistic
350
33
  3
Shaded
350
3E
  3
Shaded with edges
350
3D
  3
Shades of Gray
350
3A
  3
Sketchy
350
3B
  3
Thicken
350
36
  3
Wireframe
350
30
  3
X-Ray
350
3C
  0
XRECORD
  5
90
102
{ACAD_REACTORS
330
C
102
}
330
C
100
AcDbXrecord
280
     1
 90
        1
330
65
  0
DICTIONARY
  5
88
102
{ACAD_REACTORS
330
C
102
}
330
C
100
AcDbDictionary
281
     1
  3
CANNOSCALE
350
8D
  3
CMLEADERSTYLE
350
8A
  3
CTABLESTYLE
350
89
  3
CVIEWDETAILSTYLE
350
8B
  3
CVIEWSECTIONSTYLE
350
8C
  0
ACDBDETAILVIEWSTYLE
  5
6B
102
{ACAD_XDICTIONARY
360
93
102
}
102
{ACAD_REACTORS
330
6A
102
}
330
6A
100
AcDbModelDocViewStyle
 70
     0
  3
Imperial24
290
     0
100
AcDbDetailViewStyle
 70
     0
 71
     0
 90
        3
 71
     1
340
55
 62
   256
 40
0.24
340
0
 62
   256
 40
0.24
300

 40
0.36
280
     3
 71
     2
340
5D
 90
       25
 62
   256
 71
     3
340
55
 62
   256
 40
0.24
 90
        1
 40
0.75
 90
        1
300
%<\AcVar ViewType \f "%tc1">% %<\AcVar ViewDetailId>%\PSCALE %<\AcVar ViewScale \f "%sn">%
 71
     4
340
5D
 90
       25
 62
   256
340
5D
 90
       25
 62
   256
280
     0
  0
LAYOUT
  5
6F
102
{ACAD_REACTORS
330
62
102
}
330
62
100
AcDbPlotSettings
  1

  2

  4

  6

 40
0.0
 41
0.0
 42
0.0
 43
0.0
 44
0.0
 45
0.0
 46
0.0
 47
0.0
 48
0.0
 49
0.0
140
0.0
141
0.0
142
1.0
143
1.0
 70
   688
 72
     0
 73
     0
 74
     5
  7

 75
    16
147
1.0
 76
     0
 77
     2
 78
   300
148
0.0
149
0.0
100
AcDbLayout
  1
Layout1
 70
     1
 71
     1
 10
0.0
 20
0.0
 11
12.0
 21
9.0
 12
0.0
 22
0.0
 32
0.0
 14
0.0
 24
0.0
 34
0.0
 15
0.0
 25
0.0
 35
0.0
146
0.0
 13
0.0
 23
0.0
 33
0.0
 16
1.0
 26
0.0
 36
0.0
 17
0.0
 27
1.0
 37
0.0
 76
     0
330
6C
  0
LAYOUT
  5
77
102
{ACAD_REACTORS
330
62
102
}
330
62
100
AcDbPlotSettings
  1

  2

  4

  6

 40
0.0
 41
0.0
 42
0.0
 43
0.0
 44
0.0
 45
0.0
 46
0.0
 47
0.0
 48
0.0
 49
0.0
140
0.0
141
0.0
142
1.0
143
1.0
 70
   688
 72
     0
 73
     0
 74
     5
  7

 75
    16
147
1.0
 76
     0
 77
     2
 78
   300
148
0.0
149
0.0
100
AcDbLayout
  1
Layout2
 70
     1
 71
     2
 10
0.0
 20
0.0
 11
12.0
 21
9.0
 12
0.0
 22
0.0
 32
0.0
 14
0.0
 24
0.0
 34
0.0
 15
0.0
 25
0.0
 35
0.0
146
0.0
 13
0.0
 23
0.0
 33
0.0
 16
1.0
 26
0.0
 36
0.0
 17
0.0
 27
1.0
 37
0.0
 76
     0
330
74
  0
LAYOUT
  5
73
102
{ACAD_REACTORS
330
62
102
}
330
62
100
AcDbPlotSettings
  1

  2

  4

  6

 40
0.0
 41
0.0
 42
0.0
 43
0.0
 44
0.0
 45
0.0
 46
0.0
 47
0.0
 48
0.0
 49
0.0
140
0.0
141
0.0
142
1.0
143
1.0
 70
  1712
 72
     0
 73
     0
 74
     0
  7

 75
     0
147
1.0
 76
     0
 77
     2
 78
   300
148
0.0
149
0.0
100
AcDbLayout
  1
Model
 70
     1
 71
     0
 10
0.0
 20
0.0
 11
12.0
 21
9.0
 12
0.0
 22
0.0
 32
0.0
 14
0.0
 24
0.0
 34
0.0
 15
0.0
 25
0.0
 35
0.0
146
0.0
 13
0.0
 23
0.0
 33
0.0
 16
1.0
 26
0.0
 36
0.0
 17
0.0
 27
1.0
 37
0.0
 76
     0
330
70
  0
MATERIAL
  5
19
102
{ACAD_XDICTIONARY
360
1A
102
}
102
{ACAD_REACTORS
330
10
102
}
330
10
100
AcDbMaterial
  1
ByBlock
 72
     0
 43
0.0208333333333333
 43
0.0
 43
0.0
 43
0.0
 43
0.0
 43
0.0208333333333333
 43
0.0
 43
0.0
 43
0.0
 43
0.0
 43
1.0
 43
0.0
 43
0.0
 43
0.0
 43
0.0
 43
1.0
 77
     0
 47
0.0208333333333333
 47
0.0
 47
0.0
 47
0.0
 47
0.0
 47
0.0208333333333333
 47
0.0
 47
0.0
 47
0.0
 47
0.0
 47
1.0
 47
0.0
 47
0.0
 47
0.0
 47
0.0
 47
1.0
171
     0
 49
0.0208333333333333
 49
0.0
 49
0.0
 49
0.0
 49
0.0
 49
0.0208333333333333
 49
0.0
 49
0.0
 49
0.0
 49
0.0
 49
1.0
 49
0.0
 49
0.0
 49
0.0
 49
0.0
 49
1.0
175
     0
142
0.0208333333333333
142
0.0
142
0.0
142
0.0
142
0.0
142
0.0208333333333333
142
0.0
142
0.0
142
0.0
142
0.0
142
1.0
142
0.0
142
0.0
142
0.0
142
0.0
142
1.0
179
     0
144
0.0208333333333333
144
0.0
144
0.0
144
0.0
144
0.0
144
0.0208333333333333
144
0.0
144
0.0
144
0.0
144
0.0
144
1.0
144
0.0
144
0.0
144
0.0
144
0.0
144
1.0
147
0.0208333333333333
147
0.0
147
0.0
147
0.0
147
0.0
147
0.0208333333333333
147
0.0
147
0.0
147
0.0
147
0.0
147
1.0
147
0.0
147
0.0
147
0.0
147
0.0
147
1.0
  0
MATERIAL
  5
11
102
{ACAD_XDICTIONARY
360
12
102
}
102
{ACAD_REACTORS
330
10
102
}
330
10
100
AcDbMaterial
  1
ByLayer
 72
     0
 43
0.0208333333333333
 43
0.0
 43
0.0
 43
0.0
 43
0.0
 43
0.0208333333333333
 43
0.0
 43
0.0
 43
0.0
 43
0.0
 43
1.0
 43
0.0
 43
0.0
 43
0.0
 43
0.0
 43
1.0
 77
     0
 47
0.0208333333333333
 47
0.0
 47
0.0
 47
0.0
 47
0.0
 47
0.0208333333333333
 47
0.0
 47
0.0
 47
0.0
 47
0.0
 47
1.0
 47
0.0
 47
0.0
 47
0.0
 47
0.0
 47
1.0
171
     0
 49
0.0208333333333333
 49
0.0
 49
0.0
 49
0.0
 49
0.0
 49
0.0208333333333333
 49
0.0
 49
0.0
 49
0.0
 49
0.0
 49
1.0
 49
0.0
 49
0.0
 49
0.0
 49
0.0
 49
1.0
175
     0
142
0.0208333333333333
142
0.0
142
0.0
142
0.0
142
0.0
142
0.0208333333333333
142
0.0
142
0.0
142
0.0
142
0.0
142
1.0
142
0.0
142
0.0
142
0.0
142
0.0
142
1.0
179
     0
144
0.0208333333333333
144
0.0
144
0.0
144
0.0
144
0.0
144
0.0208333333333333
144
0.0
144
0.0
144
0.0
144
0.0
144
1.0
144
0.0
144
0.0
144
0.0
144
0.0
144
1.0
147
0.0208333333333333
147
0.0
147
0.0
147
0.0
147
0.0
147
0.0208333333333333
147
0.0
147
0.0
147
0.0
147
0.0
147
1.0
147
0.0
147
0.0
147
0.0
147
0.0
147
1.0
  0
MATERIAL
  5
21
102
{ACAD_XDICTIONARY
360
22
102
}
102
{ACAD_REACTORS
330
10
102
}
330
10
100
AcDbMaterial
  1
Global
 72
     0
 43
0.0208333333333333
 43
0.0
 43
0.0
 43
0.0
 43
0.0
 43
0.0208333333333333
 43
0.0
 43
0.0
 43
0.0
 43
0.0
 43
1.0
 43
0.0
 43
0.0
 43
0.0
 43
0.0
 43
1.0
 77
     0
 47
0.0208333333333333
 47
0.0
 47
0.0
 47
0.0
 47
0.0
 47
0.0208333333333333
 47
0.0
 47
0.0
 47
0.0
 47
0.0
 47
1.0
 47
0.0
 47
0.0
 47
0.0
 47
0.0
 47
1.0
171
     0
 49
0.0208333333333333
 49
0.0
 49
0.0
 49
0.0
 49
0.0
 49
0.0208333333333333
 49
0.0
 49
0.0
 49
0.0
 49
0.0
 49
1.0
 49
0.0
 49
0.0
 49
0.0
 49
0.0
 49
1.0
175
     0
142
0.0208333333333333
142
0.0
142
0.0
142
0.0
142
0.0
142
0.0208333333333333
142
0.0
142
0.0
142
0.0
142
0.0
142
1.0
142
0.0
142
0.0
142
0.0
142
0.0
142
1.0
179
     0
144
0.0208333333333333
144
0.0
144
0.0
144
0.0
144
0.0
144
0.0208333333333333
144
0.0
144
0.0
144
0.0
144
0.0
144
1.0
144
0.0
144
0.0
144
0.0
144
0.0
144
1.0
147
0.0208333333333333
147
0.0
147
0.0
147
0.0
147
0.0
147
0.0208333333333333
147
0.0
147
0.0
147
0.0
147
0.0
147
1.0
147
0.0
147
0.0
147
0.0
147
0.0
147
1.0
  0
MLEADERSTYLE
  5
67
102
{ACAD_REACTORS
330
66
102
}
330
66
100
AcDbMLeaderStyle
179
     2
170
     2
171
     1
172
     0
 90
        2
 40
0.0
 41
0.0
173
     1
 91
-1056964608
340
5B
 92
       -2
290
     1
 42
0.09
291
     1
 43
0.36
  3
Standard
 44
0.18
300

342
55
174
     1
178
     6
175
     1
176
     0
 93
-1056964608
 45
0.18
292
     0
297
     0
 46
0.18
 94
-1056964608
 47
1.0
 49
1.0
140
1.0
293
     1
141
0.0
294
     1
177
     0
142
1.0
295
     0
296
     0
143
0.125
271
     0
272
     9
273
     9
298
     1
  0
MLINESTYLE
  5
60
102
{ACAD_REACTORS
330
5F
102
}
330
5F
100
AcDbMlineStyle
  2
STANDARD
 70
     0
  3

 62
   256
 51
90.0
 52
90.0
 71
     2
 49
0.5
 62
   256
  6
BYLAYER
 49
-0.5
 62
   256
  6
BYLAYER
  0
ACDBPLACEHOLDER
  5
F
102
{ACAD_REACTORS
330
E
102
}
330
E
  0
SCALE
  5
43
102
{ACAD_REACTORS
330
42
102
}
330
42
100
AcDbScale
 70
     0
300
1:1
140
1.0
141
1.0
290
     1
  0
SCALE
  5
44
102
{ACAD_REACTORS
330
42
102
}
330
42
100
AcDbScale
 70
     0
300
1/128" = 1'-0"
140
0.0078125
141
12.0
290
     0
  0
SCALE
  5
45
102
{ACAD_REACTORS
330
42
102
}
330
42
100
AcDbScale
 70
     0
300
1/64" = 1'-0"
140
0.015625
141
12.0
290
     0
  0
SCALE
  5
46
102
{ACAD_REACTORS
330
42
102
}
330
42
100
AcDbScale
 70
     0
300
1/32" = 1'-0"
140
0.03125
141
12.0
290
     0
  0
SCALE
  5
47
102
{ACAD_REACTORS
330
42
102
}
330
42
100
AcDbScale
 70
     0
300
1/16" = 1'-0"
140
0.0625
141
12.0
290
     0
  0
SCALE
  5
48
102
{ACAD_REACTORS
330
42
102
}
330
42
100
AcDbScale
 70
     0
300
3/32" = 1'-0"
140
0.09375
141
12.0
290
     0
  0
SCALE
  5
49
102
{ACAD_REACTORS
330
42
102
}
330
42
100
AcDbScale
 70
     0
300
1/8" = 1'-0"
140
0.125
141
12.0
290
     0
  0
SCALE
  5
4A
102
{ACAD_REACTORS
330
42
102
}
330
42
100
AcDbScale
 70
     0
300
3/16" = 1'-0"
140
0.1875
141
12.0
290
     0
  0
SCALE
  5
4B
102
{ACAD_REACTORS
330
42
102
}
330
42
100
AcDbScale
 70
     0
300
1/4" = 1'-0"
140
0.25
141
12.0
290
     0
  0
SCALE
  5
4C
102
{ACAD_REACTORS
330
42
102
}
330
42
100
AcDbScale
 70
     0
300
3/8" = 1'-0"
140
0.375
141
12.0
290
     0
  0
SCALE
  5
4D
102
{ACAD_REACTORS
330
42
102
}
330
42
100
AcDbScale
 70
     0
300
1/2" = 1'-0"
140
0.5
141
12.0
290
     0
  0
SCALE
  5
4E
102
{ACAD_REACTORS
330
42
102
}
330
42
100
AcDbScale
 70
     0
300
3/4" = 1'-0"
140
0.75
141
12.0
290
     0
  0
SCALE
  5
4F
102
{ACAD_REACTORS
330
42
102
}
330
42
100
AcDbScale
 70
     0
300
1" = 1'-0"
140
1.0
141
12.0
290
     0
  0
SCALE
  5
50
102
{ACAD_REACTORS
330
42
102
}
330
42
100
AcDbScale
 70
     0
300
1-1/2" = 1'-0"
140
1.5
141
12.0
290
     0
  0
SCALE
  5
51
102
{ACAD_REACTORS
330
42
102
}
330
42
100
AcDbScale
 70
     0
300
3" = 1'-0"
140
3.0
141
12.0
290
     0
  0
SCALE
  5
52
102
{ACAD_REACTORS
330
42
102
}
330
42
100
AcDbScale
 70
     0
300
6" = 1'-0"
140
6.0
141
12.0
290
     0
  0
SCALE
  5
53
102
{ACAD_REACTORS
330
42
102
}
330
42
100
AcDbScale
 70
     0
300
1'-0" = 1'-0"
140
12.0
141
12.0
290
     0
  0
ACDBSECTIONVIEWSTYLE
  5
69
102
{ACAD_XDICTIONARY
360
91
102
}
102
{ACAD_REACTORS
330
68
102
}
330
68
100
AcDbModelDocViewStyle
 70
     0
  3
Imperial24
290
     0
100
AcDbSectionViewStyle
 70
     0
 71
     0
 90
       78
 71
     1
340
55
 62
   256
 40
0.24
340
0
340
0
 62
   256
 40
0.24
300
I, O, Q, S, X, Z
 40
0.48
 90
        3
 40
0.18
 90
        1
 71
     2
340
5D
 90
       25
 62
   256
340
5D
 90
       50
 62
   256
 40
0.24
 40
0.0
 40
0.24
 71
     3
340
55
 62
   256
 40
0.24
 90
        1
 40
0.75
 90
        1
300
%<\AcVar ViewType \f "%tc1">% %<\AcVar ViewSectionStartId>%-%<\AcVar ViewSectionEndId>%\PSCALE %<\AcVar ViewScale \f "%sn">%
 71
     4
 62
   256
 62
   257
300
ANSI31
 40
1.0
 90
        0
290
     0
290
     0
 90
        6
 40
0.0
 40
1.570796326794896
 40
0.2617993877991494
 40
1.308996938995747
 40
-0.2617993877991494
 40
1.832595714594046
  0
TABLESTYLE
  5
65
102
{ACAD_XDICTIONARY
360
8E
102
}
102
{ACAD_REACTORS
330
64
102
}
330
64
100
AcDbTableStyle
280
     0
  3
Standard
 70
     0
 71
     0
 40
0.06
 41
0.06
280
     0
281
     0
  7
Standard
140
0.18
170
     2
 62
     0
 63
     7
283
     0
 90
      512
 91
        0
  1

274
    -2
284
     1
 64
     0
275
    -2
285
     1
 65
     0
276
    -2
286
     1
 66
     0
277
    -2
287
     1
 67
     0
278
    -2
288
     1
 68
     0
279
    -2
289
     1
 69
     0
  7
Standard
140
0.25
170
     5
 62
     0
 63
     7
283
     0
 90
      512
 91
        0
  1

274
    -2
284
     1
 64
     0
275
    -2
285
     1
 65
     0
276
    -2
286
     1
 66
     0
277
    -2
287
     1
 67
     0
278
    -2
288
     1
 68
     0
279
    -2
289
     1
 69
     0
  7
Standard
140
0.18
170
     5
 62
     0
 63
     7
283
     0
 90
      512
 91
        0
  1

274
    -2
284
     1
 64
     0
275
    -2
285
     1
 65
     0
276
    -2
286
     1
 66
     0
277
    -2
287
     1
 67
     0
278
    -2
288
     1
 68
     0
279
    -2
289
     1
 69
     0
  0
VISUALSTYLE
  5
2F
102
{ACAD_REACTORS
330
29
102
}
330
29
100
AcDbVisualStyle
  2
2dWireframe
 70
     4
177
     3
291
     0
 70
    58
 90
        0
176
     1
 90
        2
176
     1
 90
        0
176
     1
 90
        0
176
     1
 40
0.6
176
     1
 40
30.0
176
     1
 62
     7
420
 16777215
176
     1
 90
        1
176
     1
 90
        4
176
     1
 62
     7
176
     1
 62
   257
176
     1
 90
        1
176
     1
 90
        1
176
     1
 40
1.0
176
     1
 90
        0
176
     1
 62
   257
176
     1
 40
1.0
176
     1
 90
        1
176
     1
 90
        6
176
     1
 90
        2
176
     1
 62
     7
176
     1
 90
        5
176
     1
 90
        0
176
     1
 90
        0
176
     1
290
     0
176
     1
 90
        1
176
     1
 40
0.0
176
     1
 90
        0
176
     1
290
     1
176
     1
290
     1
176
     1
290
     0
176
     1
290
     0
176
     1
290
     0
176
     1
290
     0
176
     1
290
     0
176
     1
290
     0
176
     1
290
     0
176
     1
 90
       50
176
     1
 40
0.0
176
     1
 40
1.0
176
     1
 90
        0
176
     1
 62
    18
420
        0
176
     1
 90
       50
176
     1
 90
        3
176
     1
 62
     5
420
      255
176
     1
290
     0
176
     1
 90
       50
176
     1
 90
       50
176
     1
 90
       50
176
     1
290
     0
176
     1
 90
       50
176
     1
 62
   256
176
     0
 40
1.0
176
     0
 90
        2
176
     1
  1
strokes_ogs.tif
176
     1
290
     0
176
     1
 40
1.0
176
     1
 40
1.0
176
     1
1001
ACAD
1000
AcDbSavedByObjectVersion
1070
     0
  0
VISUALSTYLE
  5
2E
102
{ACAD_REACTORS
330
29
102
}
330
29
100
AcDbVisualStyle
  2
Basic
 70
     7
177
     3
291
     1
 70
    58
 90
        1
176
     1
 90
        0
176
     1
 90
        1
176
     1
 90
        0
176
     1
 40
0.6
176
     1
 40
30.0
176
     1
 62
     7
420
 16777215
176
     1
 90
        0
176
     1
 90
        4
176
     1
 62
     7
176
     1
 62
   257
176
     1
 90
        1
176
     1
 90
        1
176
     1
 40
1.0
176
     1
 90
        8
176
     1
 62
     7
176
     1
 40
1.0
176
     1
 90
        1
176
     1
 90
        6
176
     1
 90
        2
176
     1
 62
     7
176
     1
 90
        5
176
     1
 90
        0
176
     1
 90
        0
176
     1
290
     0
176
     1
 90
        1
176
     1
 40
0.0
176
     1
 90
        0
176
     1
290
     0
176
     1
290
     1
176
     1
290
     1
176
     1
290
     0
176
     1
290
     0
176
     1
290
     0
176
     1
290
     0
176
     1
290
     0
176
     1
290
     0
176
     1
 90
       50
176
     1
 40
0.0
176
     1
 40
1.0
176
     1
 90
        0
176
     1
 62
    18
420
        0
176
     1
 90
       50
176
     1
 90
        3
176
     1
 62
     5
420
      255
176
     1
290
     0
176
     1
 90
       50
176
     1
 90
       50
176
     1
 90
       50
176
     1
290
     0
176
     1
 90
       50
176
     1
 62
   256
176
     0
 40
1.0
176
     0
 90
        2
176
     1
  1
strokes_ogs.tif
176
     1
290
     0
176
     1
 40
1.0
176
     1
 40
1.0
176
     1
1001
ACAD
1000
AcDbSavedByObjectVersion
1070
     0
  0
VISUALSTYLE
  5
35
102
{ACAD_REACTORS
330
29
102
}
330
29
100
AcDbVisualStyle
  2
Brighten
 70
    12
177
     3
291
     1
 70
    58
 90
        2
176
     1
 90
        2
176
     1
 90
        0
176
     1
 90
        0
176
     1
 40
0.6
176
     1
 40
30.0
176
     1
 62
     7
420
 16777215
176
     1
 90
        1
176
     1
 90
        4
176
     1
 62
     7
176
     1
 62
   257
176
     1
 90
        1
176
     1
 90
        1
176
     1
 40
1.0
176
     1
 90
        8
176
     1
 62
     7
176
     1
 40
1.0
176
     1
 90
        1
176
     1
 90
        6
176
     1
 90
        2
176
     1
 62
     7
176
     1
 90
        5
176
     1
 90
        0
176
     1
 90
        0
176
     1
290
     0
176
     1
 90
        1
176
     1
 40
50.0
176
     1
 90
        0
176
     1
290
     0
176
     1
290
     1
176
     1
290
     1
176
     1
290
     0
176
     1
290
     0
176
     1
290
     0
176
     1
290
     0
176
     1
290
     0
176
     1
290
     0
176
     1
 90
       50
176
     1
 40
0.0
176
     1
 40
1.0
176
     1
 90
        0
176
     1
 62
    18
420
        0
176
     1
 90
       50
176
     1
 90
        3
176
     1
 62
     5
420
      255
176
     1
290
     0
176
     1
 90
       50
176
     1
 90
       50
176
     1
 90
       50
176
     1
290
     0
176
     1
 90
       50
176
     1
 62
   256
176
     0
 40
1.0
176
     0
 90
        2
176
     1
  1
strokes_ogs.tif
176
     1
290
     0
176
     1
 40
1.0
176
     1
 40
1.0
176
     1
1001
ACAD
1000
AcDbSavedByObjectVersion
1070
     0
  0
VISUALSTYLE
  5
39
102
{ACAD_REACTORS
330
29
102
}
330
29
100
AcDbVisualStyle
  2
ColorChange
 70
    16
177
     3
291
     1
 70
    58
 90
        2
176
     1
 90
        2
176
     1
 90
        3
176
     1
 90
        0
176
     1
 40
0.6
176
     1
 40
30.0
176
     1
 62
     8
420
  8421504
176
     1
 90
        1
176
     1
 90
        4
176
     1
 62
     7
176
     1
 62
   257
176
     1
 90
        1
176
     1
 90
        1
176
     1
 40
1.0
176
     1
 90
        8
176
     1
 62
     8
420
  8421504
176
     1
 40
1.0
176
     1
 90
        1
176
     1
 90
        6
176
     1
 90
        2
176
     1
 62
     7
176
     1
 90
        5
176
     1
 90
        0
176
     1
 90
        0
176
     1
290
     0
176
     1
 90
        1
176
     1
 40
0.0
176
     1
 90
        0
176
     1
290
     0
176
     1
290
     1
176
     1
290
     1
176
     1
290
     0
176
     1
290
     0
176
     1
290
     0
176
     1
290
     0
176
     1
290
     0
176
     1
290
     0
176
     1
 90
       50
176
     1
 40
0.0
176
     1
 40
1.0
176
     1
 90
        0
176
     1
 62
    18
420
        0
176
     1
 90
       50
176
     1
 90
        3
176
     1
 62
     5
420
      255
176
     1
290
     0
176
     1
 90
       50
176
     1
 90
       50
176
     1
 90
       50
176
     1
290
     0
176
     1
 90
       50
176
     1
 62
   256
176
     0
 40
1.0
176
     0
 90
        2
176
     1
  1
strokes_ogs.tif
176
     1
290
     0
176
     1
 40
1.0
176
     1
 40
1.0
176
     1
1001
ACAD
1000
AcDbSavedByObjectVersion
1070
     0
  0
VISUALSTYLE
  5
32
102
{ACAD_REACTORS
330
29
102
}
330
29
100
AcDbVisualStyle
  2
Conceptual
 70
     9
177
     3
291
     0
 70
    58
 90
        3
176
     1
 90
        2
176
     1
 90
        0
176
     1
 90
        0
176
     1
 40
0.6
176
     1
 40
30.0
176
     1
 62
     7
420
 16777215
176
     1
 90
        2
176
     1
 90
        2
176
     1
 62
     7
176
     1
 62
   257
176
     1
 90
        1
176
     1
 90
        1
176
     1
 40
179.0
176
     1
 90
        8
176
     1
 62
     7
176
     1
 40
1.0
176
     1
 90
        1
176
     1
 90
        6
176
     1
 90
        2
176
     1
 62
     7
176
     1
 90
        3
176
     1
 90
        0
176
     1
 90
        0
176
     1
290
     0
176
     1
 90
        1
176
     1
 40
0.0
176
     1
 90
        0
176
     1
290
     0
176
     1
290
     1
176
     1
290
     1
176
     1
290
     0
176
     1
290
     0
176
     1
290
     0
176
     1
290
     0
176
     1
290
     0
176
     1
290
     0
176
     1
 90
       50
176
     1
 40
0.0
176
     1
 40
1.0
176
     1
 90
        0
176
     1
 62
    18
420
        0
176
     1
 90
       50
176
     1
 90
        3
176
     1
 62
     5
420
      255
176
     1
290
     0
176
     1
 90
       50
176
     1
 90
       50
176
     1
 90
       50
176
     1
290
     0
176
     1
 90
       50
176
     1
 62
   256
176
     0
 40
1.0
176
     0
 90
        2
176
     1
  1
strokes_ogs.tif
176
     1
290
     0
176
     1
 40
1.0
176
     1
 40
1.0
176
     1
1001
ACAD
1000
AcDbSavedByObjectVersion
1070
     0
  0
VISUALSTYLE
  5
34
102
{ACAD_REACTORS
330
29
102
}
330
29
100
AcDbVisualStyle
  2
Dim
 70
    11
177
     3
291
     1
 70
    58
 90
        2
176
     1
 90
        2
176
     1
 90
        0
176
     1
 90
        0
176
     1
 40
0.6
176
     1
 40
30.0
176
     1
 62
     7
420
 16777215
176
     1
 90
        1
176
     1
 90
        4
176
     1
 62
     7
176
     1
 62
   257
176
     1
 90
        1
176
     1
 90
        1
176
     1
 40
1.0
176
     1
 90
        8
176
     1
 62
     7
176
     1
 40
1.0
176
     1
 90
        1
176
     1
 90
        6
176
     1
 90
        2
176
     1
 62
     7
176
     1
 90
        5
176
     1
 90
        0
176
     1
 90
        0
176
     1
290
     0
176
     1
 90
        1
176
     1
 40
-50.0
176
     1
 90
        0
176
     1
290
     0
176
     1
290
     1
176
     1
290
     1
176
     1
290
     0
176
     1
290
     0
176
     1
290
     0
176
     1
290
     0
176
     1
290
     0
176
     1
290
     0
176
     1
 90
       50
176
     1
 40
0.0
176
     1
 40
1.0
176
     1
 90
        0
176
     1
 62
    18
420
        0
176
     1
 90
       50
176
     1
 90
        3
176
     1
 62
     5
420
      255
176
     1
290
     0
176
     1
 90
       50
176
     1
 90
       50
176
     1
 90
       50
176
     1
290
     0
176
     1
 90
       50
176
     1
 62
   256
176
     0
 40
1.0
176
     0
 90
        2
176
     1
  1
strokes_ogs.tif
176
     1
290
     0
176
     1
 40
1.0
176
     1
 40
1.0
176
     1
1001
ACAD
1000
AcDbSavedByObjectVersion
1070
     0
  0
VISUALSTYLE
  5
41
102
{ACAD_REACTORS
330
29
102
}
330
29
100
AcDbVisualStyle
  2
EdgeColorOff
 70
    22
177
     3
291
     1
 70
    58
 90
        2
176
     0
 90
        2
176
     0
 90
        0
176
     0
 90
        0
176
     0
 40
0.6
176
     0
 40
30.0
176
     0
 62
     7
420
 16777215
176
     0
 90
        1
176
     0
 90
        4
176
     0
 62
     7
176
     0
 62
   257
176
     0
 90
        1
176
     0
 90
        1
176
     0
 40
1.0
176
     0
 90
        8
176
     2
 62
     7
176
     0
 40
1.0
176
     0
 90
        1
176
     0
 90
        6
176
     0
 90
        2
176
     0
 62
     7
176
     0
 90
        5
176
     0
 90
        0
176
     0
 90
        0
176
     0
290
     0
176
     0
 90
        1
176
     0
 40
0.0
176
     0
 90
        0
176
     0
290
     0
176
     0
290
     1
176
     0
290
     1
176
     0
290
     0
176
     0
290
     0
176
     0
290
     0
176
     0
290
     0
176
     0
290
     0
176
     0
290
     0
176
     0
 90
       50
176
     0
 40
0.0
176
     0
 40
1.0
176
     0
 90
        0
176
     0
 62
    18
420
        0
176
     0
 90
       50
176
     0
 90
        3
176
     0
 62
     5
420
      255
176
     0
290
     0
176
     0
 90
       50
176
     0
 90
       50
176
     0
 90
       50
176
     0
290
     0
176
     0
 90
       50
176
     0
 62
   256
176
     0
 40
1.0
176
     0
 90
        2
176
     0
  1
strokes_ogs.tif
176
     0
290
     0
176
     0
 40
1.0
176
     0
 40
1.0
176
     0
1001
ACAD
1000
AcDbSavedByObjectVersion
1070
     0
  0
VISUALSTYLE
  5
38
102
{ACAD_REACTORS
330
29
102
}
330
29
100
AcDbVisualStyle
  2
Facepattern
 70
    15
177
     3
291
     1
 70
    58
 90
        2
176
     1
 90
        2
176
     1
 90
        0
176
     1
 90
        0
176
     1
 40
0.6
176
     1
 40
30.0
176
     1
 62
     7
420
 16777215
176
     1
 90
        1
176
     1
 90
        4
176
     1
 62
     7
176
     1
 62
   257
176
     1
 90
        1
176
     1
 90
        1
176
     1
 40
1.0
176
     1
 90
        8
176
     1
 62
     7
176
     1
 40
1.0
176
     1
 90
        1
176
     1
 90
        6
176
     1
 90
        2
176
     1
 62
     7
176
     1
 90
        5
176
     1
 90
        0
176
     1
 90
        0
176
     1
290
     0
176
     1
 90
        1
176
     1
 40
0.0
176
     1
 90
        0
176
     1
290
     0
176
     1
290
     1
176
     1
290
     1
176
     1
290
     0
176
     1
290
     0
176
     1
290
     0
176
     1
290
     0
176
     1
290
     0
176
     1
290
     0
176
     1
 90
       50
176
     1
 40
0.0
176
     1
 40
1.0
176
     1
 90
        0
176
     1
 62
    18
420
        0
176
     1
 90
       50
176
     1
 90
        3
176
     1
 62
     5
420
      255
176
     1
290
     0
176
     1
 90
       50
176
     1
 90
       50
176
     1
 90
       50
176
     1
290
     0
176
     1
 90
       50
176
     1
 62
   256
176
     0
 40
1.0
176
     0
 90
        2
176
     1
  1
strokes_ogs.tif
176
     1
290
     0
176
     1
 40
1.0
176
     1
 40
1.0
176
     1
1001
ACAD
1000
AcDbSavedByObjectVersion
1070
     0
  0
VISUALSTYLE
  5
2A
102
{ACAD_REACTORS
330
29
102
}
330
29
100
AcDbVisualStyle
  2
Flat
 70
     0
177
     3
291
     1
 70
    58
 90
        2
176
     1
 90
        1
176
     1
 90
        1
176
     1
 90
        2
176
     1
 40
0.6
176
     1
 40
30.0
176
     1
 62
     7
420
 16777215
176
     1
 90
        0
176
     1
 90
        0
176
     1
 62
     7
176
     1
 62
   257
176
     1
 90
        1
176
     1
 90
        1
176
     1
 40
1.0
176
     1
 90
        8
176
     1
 62
     7
176
     1
 40
1.0
176
     1
 90
        1
176
     1
 90
        6
176
     1
 90
        2
176
     1
 62
     7
176
     1
 90
        5
176
     1
 90
        0
176
     1
 90
        0
176
     1
290
     0
176
     1
 90
       13
176
     1
 40
0.0
176
     1
 90
        0
176
     1
290
     0
176
     1
290
     1
176
     1
290
     1
176
     1
290
     0
176
     1
290
     0
176
     1
290
     0
176
     1
290
     0
176
     1
290
     0
176
     1
290
     0
176
     1
 90
       50
176
     1
 40
0.0
176
     1
 40
1.0
176
     1
 90
        0
176
     1
 62
    18
420
        0
176
     1
 90
       50
176
     1
 90
        3
176
     1
 62
     5
420
      255
176
     1
290
     0
176
     1
 90
       50
176
     1
 90
       50
176
     1
 90
       50
176
     1
290
     0
176
     1
 90
       50
176
     1
 62
   256
176
     0
 40
1.0
176
     0
 90
        2
176
     1
  1
strokes_ogs.tif
176
     1
290
     0
176
     1
 40
1.0
176
     1
 40
1.0
176
     1
1001
ACAD
1000
AcDbSavedByObjectVersion
1070
     0
  0
VISUALSTYLE
  5
2B
102
{ACAD_REACTORS
330
29
102
}
330
29
100
AcDbVisualStyle
  2
FlatWithEdges
 70
     1
177
     3
291
     1
 70
    58
 90
        2
176
     1
 90
        1
176
     1
 90
        1
176
     1
 90
        2
176
     1
 40
0.6
176
     1
 40
30.0
176
     1
 62
     7
420
 16777215
176
     1
 90
        1
176
     1
 90
        0
176
     1
 62
     7
176
     1
 62
   257
176
     1
 90
        1
176
     1
 90
        1
176
     1
 40
1.0
176
     1
 90
        0
176
     1
 62
   257
176
     1
 40
1.0
176
     1
 90
        1
176
     1
 90
        6
176
     1
 90
        2
176
     1
 62
     7
176
     1
 90
        5
176
     1
 90
        0
176
     1
 90
        0
176
     1
290
     0
176
     1
 90
       13
176
     1
 40
0.0
176
     1
 90
        0
176
     1
290
     0
176
     1
290
     1
176
     1
290
     1
176
     1
290
     0
176
     1
290
     0
176
     1
290
     0
176
     1
290
     0
176
     1
290
     0
176
     1
290
     0
176
     1
 90
       50
176
     1
 40
0.0
176
     1
 40
1.0
176
     1
 90
        0
176
     1
 62
    18
420
        0
176
     1
 90
       50
176
     1
 90
        3
176
     1
 62
     5
420
      255
176
     1
290
     0
176
     1
 90
       50
176
     1
 90
       50
176
     1
 90
       50
176
     1
290
     0
176
     1
 90
       50
176
     1
 62
   256
176
     0
 40
1.0
176
     0
 90
        2
176
     1
  1
strokes_ogs.tif
176
     1
290
     0
176
     1
 40
1.0
176
     1
 40
1.0
176
     1
1001
ACAD
1000
AcDbSavedByObjectVersion
1070
     0
  0
VISUALSTYLE
  5
2C
102
{ACAD_REACTORS
330
29
102
}
330
29
100
AcDbVisualStyle
  2
Gouraud
 70
     2
177
     3
291
     1
 70
    58
 90
        2
176
     1
 90
        2
176
     1
 90
        1
176
     1
 90
        2
176
     1
 40
0.6
176
     1
 40
30.0
176
     1
 62
     7
420
 16777215
176
     1
 90
        0
176
     1
 90
        0
176
     1
 62
     7
176
     1
 62
   257
176
     1
 90
        1
176
     1
 90
        1
176
     1
 40
1.0
176
     1
 90
        0
176
     1
 62
     7
176
     1
 40
1.0
176
     1
 90
        1
176
     1
 90
        6
176
     1
 90
        2
176
     1
 62
     7
176
     1
 90
        5
176
     1
 90
        0
176
     1
 90
        0
176
     1
290
     0
176
     1
 90
       13
176
     1
 40
0.0
176
     1
 90
        0
176
     1
290
     0
176
     1
290
     1
176
     1
290
     1
176
     1
290
     0
176
     1
290
     0
176
     1
290
     0
176
     1
290
     0
176
     1
290
     0
176
     1
290
     0
176
     1
 90
       50
176
     1
 40
0.0
176
     1
 40
1.0
176
     1
 90
        0
176
     1
 62
    18
420
        0
176
     1
 90
       50
176
     1
 90
        3
176
     1
 62
     5
420
      255
176
     1
290
     0
176
     1
 90
       50
176
     1
 90
       50
176
     1
 90
       50
176
     1
290
     0
176
     1
 90
       50
176
     1
 62
   256
176
     0
 40
1.0
176
     0
 90
        2
176
     1
  1
strokes_ogs.tif
176
     1
290
     0
176
     1
 40
1.0
176
     1
 40
1.0
176
     1
1001
ACAD
1000
AcDbSavedByObjectVersion
1070
     0
  0
VISUALSTYLE
  5
2D
102
{ACAD_REACTORS
330
29
102
}
330
29
100
AcDbVisualStyle
  2
GouraudWithEdges
 70
     3
177
     3
291
     1
 70
    58
 90
        2
176
     1
 90
        2
176
     1
 90
        1
176
     1
 90
        2
176
     1
 40
0.6
176
     1
 40
30.0
176
     1
 62
     7
420
 16777215
176
     1
 90
        1
176
     1
 90
        0
176
     1
 62
     7
176
     1
 62
   257
176
     1
 90
        1
176
     1
 90
        1
176
     1
 40
1.0
176
     1
 90
        0
176
     1
 62
   257
176
     1
 40
1.0
176
     1
 90
        1
176
     1
 90
        6
176
     1
 90
        2
176
     1
 62
     7
176
     1
 90
        5
176
     1
 90
        0
176
     1
 90
        0
176
     1
290
     0
176
     1
 90
       13
176
     1
 40
0.0
176
     1
 90
        0
176
     1
290
     0
176
     1
290
     1
176
     1
290
     1
176
     1
290
     0
176
     1
290
     0
176
     1
290
     0
176
     1
290
     0
176
     1
290
     0
176
     1
290
     0
176
     1
 90
       50
176
     1
 40
0.0
176
     1
 40
1.0
176
     1
 90
        0
176
     1
 62
    18
420
        0
176
     1
 90
       50
176
     1
 90
        3
176
     1
 62
     5
420
      255
176
     1
290
     0
176
     1
 90
       50
176
     1
 90
       50
176
     1
 90
       50
176
     1
290
     0
176
     1
 90
       50
176
     1
 62
   256
176
     0
 40
1.0
176
     0
 90
        2
176
     1
  1
strokes_ogs.tif
176
     1
290
     0
176
     1
 40
1.0
176
     1
 40
1.0
176
     1
1001
ACAD
1000
AcDbSavedByObjectVersion
1070
     0
  0
VISUALSTYLE
  5
31
102
{ACAD_REACTORS
330
29
102
}
330
29
100
AcDbVisualStyle
  2
Hidden
 70
     6
177
     3
291
     0
 70
    58
 90
        1
176
     1
 90
        2
176
     1
 90
        2
176
     1
 90
        0
176
     1
 40
0.6
176
     1
 40
30.0
176
     1
 62
     7
420
 16777215
176
     1
 90
        2
176
     1
 90
        2
176
     1
 62
     7
176
     1
 62
   257
176
     1
 90
        2
176
     1
 90
        1
176
     1
 40
40.0
176
     1
 90
        0
176
     1
 62
   257
176
     1
 40
1.0
176
     1
 90
        1
176
     1
 90
        6
176
     1
 90
        2
176
     1
 62
     7
176
     1
 90
        3
176
     1
 90
        0
176
     1
 90
        0
176
     1
290
     0
176
     1
 90
        1
176
     1
 40
0.0
176
     1
 90
        0
176
     1
290
     0
176
     1
290
     1
176
     1
290
     1
176
     1
290
     0
176
     1
290
     0
176
     1
290
     0
176
     1
290
     0
176
     1
290
     0
176
     1
290
     0
176
     1
 90
       50
176
     1
 40
0.0
176
     1
 40
1.0
176
     1
 90
        0
176
     1
 62
    18
420
        0
176
     1
 90
       50
176
     1
 90
        3
176
     1
 62
     5
420
      255
176
     1
290
     0
176
     1
 90
       50
176
     1
 90
       50
176
     1
 90
       50
176
     1
290
     0
176
     1
 90
       50
176
     1
 62
   256
176
     0
 40
1.0
176
     0
 90
        2
176
     1
  1
strokes_ogs.tif
176
     1
290
     0
176
     1
 40
1.0
176
     1
 40
1.0
176
     1
1001
ACAD
1000
AcDbSavedByObjectVersion
1070
     0
  0
VISUALSTYLE
  5
3F
102
{ACAD_REACTORS
330
29
102
}
330
29
100
AcDbVisualStyle
  2
JitterOff
 70
    20
177
     3
291
     1
 70
    58
 90
        2
176
     0
 90
        2
176
     0
 90
        0
176
     0
 90
        0
176
     0
 40
0.6
176
     0
 40
30.0
176
     0
 62
     7
420
 16777215
176
     0
 90
        1
176
     0
 90
        4
176
     0
 62
     7
176
     0
 62
   257
176
     0
 90
        1
176
     0
 90
        1
176
     0
 40
1.0
176
     0
 90
       10
176
     2
 62
     7
176
     0
 40
1.0
176
     0
 90
        1
176
     0
 90
        6
176
     0
 90
        2
176
     0
 62
     7
176
     0
 90
        5
176
     0
 90
        0
176
     0
 90
        0
176
     0
290
     0
176
     0
 90
        1
176
     0
 40
0.0
176
     0
 90
        0
176
     0
290
     0
176
     0
290
     1
176
     0
290
     1
176
     0
290
     0
176
     0
290
     0
176
     0
290
     0
176
     0
290
     0
176
     0
290
     0
176
     0
290
     0
176
     0
 90
       50
176
     0
 40
0.0
176
     0
 40
1.0
176
     0
 90
        0
176
     0
 62
    18
420
        0
176
     0
 90
       50
176
     0
 90
        3
176
     0
 62
     5
420
      255
176
     0
290
     0
176
     0
 90
       50
176
     0
 90
       50
176
     0
 90
       50
176
     0
290
     0
176
     0
 90
       50
176
     0
 62
   256
176
     0
 40
1.0
176
     0
 90
        2
176
     0
  1
strokes_ogs.tif
176
     0
290
     0
176
     0
 40
1.0
176
     0
 40
1.0
176
     0
1001
ACAD
1000
AcDbSavedByObjectVersion
1070
     0
  0
VISUALSTYLE
  5
37
102
{ACAD_REACTORS
330
29
102
}
330
29
100
AcDbVisualStyle
  2
Linepattern
 70
    14
177
     3
291
     1
 70
    58
 90
        2
176
     1
 90
        2
176
     1
 90
        0
176
     1
 90
        0
176
     1
 40
0.6
176
     1
 40
30.0
176
     1
 62
     7
420
 16777215
176
     1
 90
        1
176
     1
 90
        4
176
     1
 62
     7
176
     1
 62
   257
176
     1
 90
        7
176
     1
 90
        7
176
     1
 40
1.0
176
     1
 90
        8
176
     1
 62
     7
176
     1
 40
1.0
176
     1
 90
        1
176
     1
 90
        6
176
     1
 90
        2
176
     1
 62
     7
176
     1
 90
        5
176
     1
 90
        0
176
     1
 90
        0
176
     1
290
     0
176
     1
 90
        1
176
     1
 40
0.0
176
     1
 90
        0
176
     1
290
     0
176
     1
290
     1
176
     1
290
     1
176
     1
290
     0
176
     1
290
     0
176
     1
290
     0
176
     1
290
     0
176
     1
290
     0
176
     1
290
     0
176
     1
 90
       50
176
     1
 40
0.0
176
     1
 40
1.0
176
     1
 90
        0
176
     1
 62
    18
420
        0
176
     1
 90
       50
176
     1
 90
        3
176
     1
 62
     5
420
      255
176
     1
290
     0
176
     1
 90
       50
176
     1
 90
       50
176
     1
 90
       50
176
     1
290
     0
176
     1
 90
       50
176
     1
 62
   256
176
     0
 40
1.0
176
     0
 90
        2
176
     1
  1
strokes_ogs.tif
176
     1
290
     0
176
     1
 40
1.0
176
     1
 40
1.0
176
     1
1001
ACAD
1000
AcDbSavedByObjectVersion
1070
     0
  0
VISUALSTYLE
  5
40
102
{ACAD_REACTORS
330
29
102
}
330
29
100
AcDbVisualStyle
  2
OverhangOff
 70
    21
177
     3
291
     1
 70
    58
 90
        2
176
     0
 90
        2
176
     0
 90
        0
176
     0
 90
        0
176
     0
 40
0.6
176
     0
 40
30.0
176
     0
 62
     7
420
 16777215
176
     0
 90
        1
176
     0
 90
        4
176
     0
 62
     7
176
     0
 62
   257
176
     0
 90
        1
176
     0
 90
        1
176
     0
 40
1.0
176
     0
 90
        9
176
     2
 62
     7
176
     0
 40
1.0
176
     0
 90
        1
176
     0
 90
        6
176
     0
 90
        2
176
     0
 62
     7
176
     0
 90
        5
176
     0
 90
        0
176
     0
 90
        0
176
     0
290
     0
176
     0
 90
        1
176
     0
 40
0.0
176
     0
 90
        0
176
     0
290
     0
176
     0
290
     1
176
     0
290
     1
176
     0
290
     0
176
     0
290
     0
176
     0
290
     0
176
     0
290
     0
176
     0
290
     0
176
     0
290
     0
176
     0
 90
       50
176
     0
 40
0.0
176
     0
 40
1.0
176
     0
 90
        0
176
     0
 62
    18
420
        0
176
     0
 90
       50
176
     0
 90
        3
176
     0
 62
     5
420
      255
176
     0
290
     0
176
     0
 90
       50
176
     0
 90
       50
176
     0
 90
       50
176
     0
290
     0
176
     0
 90
       50
176
     0
 62
   256
176
     0
 40
1.0
176
     0
 90
        2
176
     0
  1
strokes_ogs.tif
176
     0
290
     0
176
     0
 40
1.0
176
     0
 40
1.0
176
     0
1001
ACAD
1000
AcDbSavedByObjectVersion
1070
     0
  0
VISUALSTYLE
  5
33
102
{ACAD_REACTORS
330
29
102
}
330
29
100
AcDbVisualStyle
  2
Realistic
 70
     8
177
     3
291
     0
 70
    58
 90
        2
176
     1
 90
        3
176
     1
 90
        0
176
     1
 90
        2
176
     1
 40
0.6
176
     1
 40
30.0
176
     1
 62
     7
420
 16777215
176
     1
 90
        0
176
     1
 90
        0
176
     1
 62
     7
176
     1
 62
   257
176
     1
 90
        1
176
     1
 90
        1
176
     1
 40
1.0
176
     1
 90
        8
176
     1
 62
   257
176
     1
 40
1.0
176
     1
 90
        1
176
     1
 90
        6
176
     1
 90
        2
176
     1
 62
     7
176
     1
 90
        3
176
     1
 90
        0
176
     1
 90
        0
176
     1
290
     0
176
     1
 90
       13
176
     1
 40
0.0
176
     1
 90
        0
176
     1
290
     0
176
     1
290
     1
176
     1
290
     1
176
     1
290
     0
176
     1
290
     0
176
     1
290
     0
176
     1
290
     0
176
     1
290
     0
176
     1
290
     0
176
     1
 90
       50
176
     1
 40
0.0
176
     1
 40
1.0
176
     1
 90
        0
176
     1
 62
    18
420
        0
176
     1
 90
       50
176
     1
 90
        3
176
     1
 62
     5
420
      255
176
     1
290
     0
176
     1
 90
       50
176
     1
 90
       50
176
     1
 90
       50
176
     1
290
     0
176
     1
 90
       50
176
     1
 62
   256
176
     0
 40
1.0
176
     0
 90
        2
176
     1
  1
strokes_ogs.tif
176
     1
290
     0
176
     1
 40
1.0
176
     1
 40
1.0
176
     1
1001
ACAD
1000
AcDbSavedByObjectVersion
1070
     0
  0
VISUALSTYLE
  5
3E
102
{ACAD_REACTORS
330
29
102
}
330
29
100
AcDbVisualStyle
  2
Shaded
 70
    27
177
     3
291
     0
 70
    58
 90
        2
176
     1
 90
        2
176
     1
 90
        1
176
     1
 90
        2
176
     1
 40
0.6
176
     1
 40
30.0
176
     1
 62
     7
420
 16777215
176
     1
 90
        0
176
     1
 90
        4
176
     1
 62
     7
176
     1
 62
   257
176
     1
 90
        1
176
     1
 90
        1
176
     1
 40
1.0
176
     1
 90
        8
176
     1
 62
   257
176
     1
 40
1.0
176
     1
 90
        1
176
     1
 90
        6
176
     1
 90
        2
176
     1
 62
     8
420
  7895160
176
     1
 90
        3
176
     1
 90
        0
176
     1
 90
        0
176
     1
290
     0
176
     1
 90
        5
176
     1
 40
0.0
176
     1
 90
        0
176
     1
290
     0
176
     1
290
     1
176
     1
290
     1
176
     1
290
     0
176
     1
290
     0
176
     1
290
     0
176
     1
290
     0
176
     1
290
     0
176
     1
290
     0
176
     1
 90
       50
176
     1
 40
0.0
176
     1
 40
1.0
176
     1
 90
        0
176
     1
 62
    18
420
        0
176
     1
 90
       50
176
     1
 90
        3
176
     1
 62
     5
420
      255
176
     1
290
     0
176
     1
 90
       50
176
     1
 90
       50
176
     1
 90
       50
176
     1
290
     0
176
     1
 90
       50
176
     1
 62
   256
176
     0
 40
1.0
176
     0
 90
        2
176
     1
  1
strokes_ogs.tif
176
     1
290
     0
176
     1
 40
1.0
176
     1
 40
1.0
176
     1
1001
ACAD
1000
AcDbSavedByObjectVersion
1070
     0
  0
VISUALSTYLE
  5
3D
102
{ACAD_REACTORS
330
29
102
}
330
29
100
AcDbVisualStyle
  2
Shaded with edges
 70
    26
177
     3
291
     0
 70
    58
 90
        2
176
     1
 90
        2
176
     1
 90
        1
176
     1
 90
        2
176
     1
 40
0.6
176
     1
 40
30.0
176
     1
 62
     7
420
 16777215
176
     1
 90
        1
176
     1
 90
        2
176
     1
 62
     7
176
     1
 62
   257
176
     1
 90
        2
176
     1
 90
        1
176
     1
 40
1.0
176
     1
 90
        8
176
     1
 62
   257
176
     1
 40
1.0
176
     1
 90
        1
176
     1
 90
        6
176
     1
 90
        2
176
     1
 62
     7
176
     1
 90
        3
176
     1
 90
        0
176
     1
 90
        0
176
     1
290
     0
176
     1
 90
        5
176
     1
 40
0.0
176
     1
 90
        0
176
     1
290
     0
176
     1
290
     1
176
     1
290
     1
176
     1
290
     0
176
     1
290
     0
176
     1
290
     0
176
     1
290
     0
176
     1
290
     0
176
     1
290
     0
176
     1
 90
       50
176
     1
 40
0.0
176
     1
 40
1.0
176
     1
 90
        0
176
     1
 62
    18
420
        0
176
     1
 90
       50
176
     1
 90
        3
176
     1
 62
     5
420
      255
176
     1
290
     0
176
     1
 90
       50
176
     1
 90
       50
176
     1
 90
       50
176
     1
290
     0
176
     1
 90
       50
176
     1
 62
   256
176
     0
 40
1.0
176
     0
 90
        2
176
     1
  1
strokes_ogs.tif
176
     1
290
     0
176
     1
 40
1.0
176
     1
 40
1.0
176
     1
1001
ACAD
1000
AcDbSavedByObjectVersion
1070
     0
  0
VISUALSTYLE
  5
3A
102
{ACAD_REACTORS
330
29
102
}
330
29
100
AcDbVisualStyle
  2
Shades of Gray
 70
    23
177
     3
291
     0
 70
    58
 90
        2
176
     1
 90
        2
176
     1
 90
        3
176
     1
 90
        0
176
     1
 40
0.6
176
     1
 40
30.0
176
     1
 62
     7
420
 16777215
176
     1
 90
        2
176
     1
 90
        2
176
     1
 62
     7
176
     1
 62
     7
176
     1
 90
        1
176
     1
 90
        1
176
     1
 40
40.0
176
     1
 90
        8
176
     1
 62
     7
176
     1
 40
1.0
176
     1
 90
        1
176
     1
 90
        6
176
     1
 90
        2
176
     1
 62
     7
176
     1
 90
        3
176
     1
 90
        0
176
     1
 90
        0
176
     1
290
     0
176
     1
 90
        1
176
     1
 40
0.0
176
     1
 90
        0
176
     1
290
     0
176
     1
290
     1
176
     1
290
     1
176
     1
290
     0
176
     1
290
     0
176
     1
290
     0
176
     1
290
     0
176
     1
290
     0
176
     1
290
     0
176
     1
 90
       50
176
     1
 40
0.0
176
     1
 40
1.0
176
     1
 90
        0
176
     1
 62
    18
420
        0
176
     1
 90
       50
176
     1
 90
        3
176
     1
 62
     5
420
      255
176
     1
290
     0
176
     1
 90
       50
176
     1
 90
       50
176
     1
 90
       50
176
     1
290
     0
176
     1
 90
       50
176
     1
 62
   256
176
     0
 40
1.0
176
     0
 90
        2
176
     1
  1
strokes_ogs.tif
176
     1
290
     0
176
     1
 40
1.0
176
     1
 40
1.0
176
     1
1001
ACAD
1000
AcDbSavedByObjectVersion
1070
     0
  0
VISUALSTYLE
  5
3B
102
{ACAD_REACTORS
330
29
102
}
330
29
100
AcDbVisualStyle
  2
Sketchy
 70
    24
177
     3
291
     0
 70
    58
 90
        1
176
     1
 90
        2
176
     1
 90
        2
176
     1
 90
        0
176
     1
 40
0.6
176
     1
 40
30.0
176
     1
 62
     7
420
 16777215
176
     1
 90
        2
176
     1
 90
        2
176
     1
 62
     7
176
     1
 62
     7
176
     1
 90
        1
176
     1
 90
        1
176
     1
 40
40.0
176
     1
 90
       11
176
     1
 62
     7
176
     1
 40
1.0
176
     1
 90
        1
176
     1
 90
        6
176
     1
 90
        2
176
     1
 62
     7
176
     1
 90
        6
176
     1
 90
        0
176
     1
 90
        0
176
     1
290
     0
176
     1
 90
        1
176
     1
 40
0.0
176
     1
 90
        0
176
     1
290
     0
176
     1
290
     1
176
     1
290
     1
176
     1
290
     0
176
     1
290
     0
176
     1
290
     0
176
     1
290
     0
176
     1
290
     0
176
     1
290
     0
176
     1
 90
       50
176
     1
 40
0.0
176
     1
 40
1.0
176
     1
 90
        0
176
     1
 62
    18
420
        0
176
     1
 90
       50
176
     1
 90
        3
176
     1
 62
     5
420
      255
176
     1
290
     0
176
     1
 90
       50
176
     1
 90
       50
176
     1
 90
       50
176
     1
290
     0
176
     1
 90
       50
176
     1
 62
   256
176
     0
 40
1.0
176
     0
 90
        2
176
     1
  1
strokes_ogs.tif
176
     1
290
     0
176
     1
 40
1.0
176
     1
 40
1.0
176
     1
1001
ACAD
1000
AcDbSavedByObjectVersion
1070
     0
  0
VISUALSTYLE
  5
36
102
{ACAD_REACTORS
330
29
102
}
330
29
100
AcDbVisualStyle
  2
Thicken
 70
    13
177
     3
291
     1
 70
    58
 90
        2
176
     1
 90
        2
176
     1
 90
        0
176
     1
 90
        0
176
     1
 40
0.6
176
     1
 40
30.0
176
     1
 62
     7
420
 16777215
176
     1
 90
        1
176
     1
 90
        4
176
     1
 62
     7
176
     1
 62
   257
176
     1
 90
        1
176
     1
 90
        1
176
     1
 40
1.0
176
     1
 90
       12
176
     1
 62
     7
176
     1
 40
1.0
176
     1
 90
        1
176
     1
 90
        6
176
     1
 90
        2
176
     1
 62
     7
176
     1
 90
        5
176
     1
 90
        0
176
     1
 90
        0
176
     1
290
     0
176
     1
 90
        1
176
     1
 40
0.0
176
     1
 90
        0
176
     1
290
     0
176
     1
290
     1
176
     1
290
     1
176
     1
290
     0
176
     1
290
     0
176
     1
290
     0
176
     1
290
     0
176
     1
290
     0
176
     1
290
     0
176
     1
 90
       50
176
     1
 40
0.0
176
     1
 40
1.0
176
     1
 90
        0
176
     1
 62
    18
420
        0
176
     1
 90
       50
176
     1
 90
        3
176
     1
 62
     5
420
      255
176
     1
290
     0
176
     1
 90
       50
176
     1
 90
       50
176
     1
 90
       50
176
     1
290
     0
176
     1
 90
       50
176
     1
 62
   256
176
     0
 40
1.0
176
     0
 90
        2
176
     1
  1
strokes_ogs.tif
176
     1
290
     0
176
     1
 40
1.0
176
     1
 40
1.0
176
     1
1001
ACAD
1000
AcDbSavedByObjectVersion
1070
     0
  0
VISUALSTYLE
  5
30
102
{ACAD_REACTORS
330
29
102
}
330
29
100
AcDbVisualStyle
  2
Wireframe
 70
     5
177
     3
291
     0
 70
    58
 90
        0
176
     1
 90
        2
176
     1
 90
        0
176
     1
 90
        0
176
     1
 40
0.6
176
     1
 40
30.0
176
     1
 62
     7
420
 16777215
176
     1
 90
        1
176
     1
 90
        4
176
     1
 62
     7
176
     1
 62
   257
176
     1
 90
        1
176
     1
 90
        1
176
     1
 40
1.0
176
     1
 90
        0
176
     1
 62
   257
176
     1
 40
1.0
176
     1
 90
        1
176
     1
 90
        6
176
     1
 90
        2
176
     1
 62
     7
176
     1
 90
        3
176
     1
 90
        0
176
     1
 90
        0
176
     1
290
     0
176
     1
 90
        1
176
     1
 40
0.0
176
     1
 90
        0
176
     1
290
     0
176
     1
290
     1
176
     1
290
     1
176
     1
290
     0
176
     1
290
     0
176
     1
290
     0
176
     1
290
     0
176
     1
290
     0
176
     1
290
     0
176
     1
 90
       50
176
     1
 40
0.0
176
     1
 40
1.0
176
     1
 90
        0
176
     1
 62
    18
420
        0
176
     1
 90
       50
176
     1
 90
        3
176
     1
 62
     5
420
      255
176
     1
290
     0
176
     1
 90
       50
176
     1
 90
       50
176
     1
 90
       50
176
     1
290
     0
176
     1
 90
       50
176
     1
 62
   256
176
     0
 40
1.0
176
     0
 90
        2
176
     1
  1
strokes_ogs.tif
176
     1
290
     0
176
     1
 40
1.0
176
     1
 40
1.0
176
     1
1001
ACAD
1000
AcDbSavedByObjectVersion
1070
     0
  0
VISUALSTYLE
  5
3C
102
{ACAD_REACTORS
330
29
102
}
330
29
100
AcDbVisualStyle
  2
X-Ray
 70
    25
177
     3
291
     0
 70
    58
 90
        2
176
     1
 90
        2
176
     1
 90
        1
176
     1
 90
        1
176
     1
 40
0.5
176
     1
 40
30.0
176
     1
 62
     7
420
 16777215
176
     1
 90
        1
176
     1
 90
        0
176
     1
 62
     7
176
     1
 62
   257
176
     1
 90
        1
176
     1
 90
        1
176
     1
 40
1.0
176
     1
 90
        8
176
     1
 62
     7
176
     1
 40
1.0
176
     1
 90
        1
176
     1
 90
        6
176
     1
 90
        2
176
     1
 62
     7
176
     1
 90
        3
176
     1
 90
        0
176
     1
 90
        0
176
     1
290
     0
176
     1
 90
       13
176
     1
 40
0.0
176
     1
 90
        0
176
     1
290
     0
176
     1
290
     1
176
     1
290
     1
176
     1
290
     0
176
     1
290
     0
176
     1
290
     0
176
     1
290
     0
176
     1
290
     0
176
     1
290
     0
176
     1
 90
       50
176
     1
 40
0.0
176
     1
 40
1.0
176
     1
 90
        0
176
     1
 62
    18
420
        0
176
     1
 90
       50
176
     1
 90
        3
176
     1
 62
     5
420
      255
176
     1
290
     0
176
     1
 90
       50
176
     1
 90
       50
176
     1
 90
       50
176
     1
290
     0
176
     1
 90
       50
176
     1
 62
   256
176
     0
 40
1.0
176
     0
 90
        2
176
     1
  1
strokes_ogs.tif
176
     1
290
     0
176
     1
 40
1.0
176
     1
 40
1.0
176
     1
1001
ACAD
1000
AcDbSavedByObjectVersion
1070
     0
  0
DICTIONARYVAR
  5
8D
102
{ACAD_REACTORS
330
88
102
}
330
88
100
DictionaryVariables
280
     0
  1
1:1
  0
DICTIONARYVAR
  5
8A
102
{ACAD_REACTORS
330
88
102
}
330
88
100
DictionaryVariables
280
     0
  1
STANDARD
  0
DICTIONARYVAR
  5
89
102
{ACAD_REACTORS
330
88
102
}
330
88
100
DictionaryVariables
280
     0
  1
STANDARD
  0
DICTIONARYVAR
  5
8B
102
{ACAD_REACTORS
330
88
102
}
330
88
100
DictionaryVariables
280
     0
  1
Imperial24
  0
DICTIONARYVAR
  5
8C
102
{ACAD_REACTORS
330
88
102
}
330
88
100
DictionaryVariables
280
     0
  1
Imperial24
  0
DICTIONARY
  5
93
330
6B
100
AcDbDictionary
280
     1
281
     1
  3
ACAD_XREC_ROUNDTRIP
360
94
  0
DICTIONARY
  5
1A
330
19
100
AcDbDictionary
280
     1
281
     1
  3
BUMPTILE
360
1C
  3
DIFFUSETILE
360
1B
  3
OPACITYTILE
360
1F
  3
REFLECTIONTILE
360
1E
  3
REFRACTIONTILE
360
20
  3
SPECULARTILE
360
1D
  0
DICTIONARY
  5
12
330
11
100
AcDbDictionary
280
     1
281
     1
  3
BUMPTILE
360
14
  3
DIFFUSETILE
360
13
  3
OPACITYTILE
360
17
  3
REFLECTIONTILE
360
16
  3
REFRACTIONTILE
360
18
  3
SPECULARTILE
360
15
  0
DICTIONARY
  5
22
330
21
100
AcDbDictionary
280
     1
281
     1
  3
BUMPTILE
360
24
  3
DIFFUSETILE
360
23
  3
OPACITYTILE
360
27
  3
REFLECTIONTILE
360
26
  3
REFRACTIONTILE
360
28
  3
SPECULARTILE
360
25
  0
DICTIONARY
  5
91
330
69
100
AcDbDictionary
280
     1
281
     1
  3
ACAD_XREC_ROUNDTRIP
360
92
  0
DICTIONARY
  5
8E
330
65
100
AcDbDictionary
280
     1
281
     1
  3
ACAD_ROUNDTRIP_2008_TABLESTYLE_CELLSTYLEMAP
360
8F
  0
XRECORD
  5
94
102
{ACAD_REACTORS
330
93
102
}
330
93
100
AcDbXrecord
280
     1
102
DISPLAYNAME
  1
Imperial24
102
FLAGS
 90
        0
  0
XRECORD
  5
1C
102
{ACAD_REACTORS
330
1A
102
}
330
1A
100
AcDbXrecord
280
     1
270
     1
271
     1
  0
XRECORD
  5
1B
102
{ACAD_REACTORS
330
1A
102
}
330
1A
100
AcDbXrecord
280
     1
270
     1
271
     1
  0
XRECORD
  5
1F
102
{ACAD_REACTORS
330
1A
102
}
330
1A
100
AcDbXrecord
280
     1
270
     1
271
     1
  0
XRECORD
  5
1E
102
{ACAD_REACTORS
330
1A
102
}
330
1A
100
AcDbXrecord
280
     1
270
     1
271
     1
  0
XRECORD
  5
20
102
{ACAD_REACTORS
330
1A
102
}
330
1A
100
AcDbXrecord
280
     1
270
     1
271
     1
  0
XRECORD
  5
1D
102
{ACAD_REACTORS
330
1A
102
}
330
1A
100
AcDbXrecord
280
     1
270
     1
271
     1
  0
XRECORD
  5
14
102
{ACAD_REACTORS
330
12
102
}
330
12
100
AcDbXrecord
280
     1
270
     1
271
     1
  0
XRECORD
  5
13
102
{ACAD_REACTORS
330
12
102
}
330
12
100
AcDbXrecord
280
     1
270
     1
271
     1
  0
XRECORD
  5
17
102
{ACAD_REACTORS
330
12
102
}
330
12
100
AcDbXrecord
280
     1
270
     1
271
     1
  0
XRECORD
  5
16
102
{ACAD_REACTORS
330
12
102
}
330
12
100
AcDbXrecord
280
     1
270
     1
271
     1
  0
XRECORD
  5
18
102
{ACAD_REACTORS
330
12
102
}
330
12
100
AcDbXrecord
280
     1
270
     1
271
     1
  0
XRECORD
  5
15
102
{ACAD_REACTORS
330
12
102
}
330
12
100
AcDbXrecord
280
     1
270
     1
271
     1
  0
XRECORD
  5
24
102
{ACAD_REACTORS
330
22
102
}
330
22
100
AcDbXrecord
280
     1
270
     1
271
     1
  0
XRECORD
  5
23
102
{ACAD_REACTORS
330
22
102
}
330
22
100
AcDbXrecord
280
     1
270
     1
271
     1
  0
XRECORD
  5
27
102
{ACAD_REACTORS
330
22
102
}
330
22
100
AcDbXrecord
280
     1
270
     1
271
     1
  0
XRECORD
  5
26
102
{ACAD_REACTORS
330
22
102
}
330
22
100
AcDbXrecord
280
     1
270
     1
271
     1
  0
XRECORD
  5
28
102
{ACAD_REACTORS
330
22
102
}
330
22
100
AcDbXrecord
280
     1
270
     1
271
     1
  0
XRECORD
  5
25
102
{ACAD_REACTORS
330
22
102
}
330
22
100
AcDbXrecord
280
     1
270
     1
271
     1
  0
XRECORD
  5
92
102
{ACAD_REACTORS
330
91
102
}
330
91
100
AcDbXrecord
280
     1
102
DISPLAYNAME
  1
Imperial24
102
FLAGS
 90
        0
  0
CELLSTYLEMAP
  5
8F
102
{ACAD_REACTORS
330
8E
102
}
330
8E
100
AcDbCellStyleMap
 90
        3
300
CELLSTYLE
  1
TABLEFORMAT_BEGIN
 90
        5
170
     1
 91
        0
 92
    32768
 62
   257
 93
        1
300
CONTENTFORMAT
  1
CONTENTFORMAT_BEGIN
 90
        0
 91
        0
 92
      512
 93
        0
300

 40
0.0
140
1.0
 94
        5
 62
     0
340
55
144
0.25
309
CONTENTFORMAT_END
171
     0
 94
        0
309
TABLEFORMAT_END
  1
CELLSTYLE_BEGIN
 90
        1
 91
        1
300
_TITLE
309
CELLSTYLE_END
300
CELLSTYLE
  1
TABLEFORMAT_BEGIN
 90
        5
170
     1
 91
        0
 92
        0
 62
   257
 93
        1
300
CONTENTFORMAT
  1
CONTENTFORMAT_BEGIN
 90
        0
 91
        0
 92
      512
 93
        0
300

 40
0.0
140
1.0
 94
        5
 62
     0
340
55
144
0.18
309
CONTENTFORMAT_END
171
     0
 94
        0
309
TABLEFORMAT_END
  1
CELLSTYLE_BEGIN
 90
        2
 91
        1
300
_HEADER
309
CELLSTYLE_END
300
CELLSTYLE
  1
TABLEFORMAT_BEGIN
 90
        5
170
     1
 91
        0
 92
        0
 62
   257
 93
        1
300
CONTENTFORMAT
  1
CONTENTFORMAT_BEGIN
 90
        0
 91
        0
 92
      512
 93
        0
300

 40
0.0
140
1.0
 94
        2
 62
     0
340
55
144
0.18
309
CONTENTFORMAT_END
171
     0
 94
        0
309
TABLEFORMAT_END
  1
CELLSTYLE_BEGIN
 90
        3
 91
        2
300
_DATA
309
CELLSTYLE_END
  0
ENDSEC
  0
EOF
