  0
SECTION
  2
HEADER
  9
$ACADVER
  1
AC1027
  9
$ACADMAINTVER
 70
   125
  9
$DWGCODEPAGE
  3
ANSI_1252
  9
$REQUIREDVERSIONS
160
                 0
  9
$INSBASE
 10
0.0
 20
0.0
 30
0.0
  9
$EXTMIN
 10
1.000000000000000E+20
 20
1.000000000000000E+20
 30
1.000000000000000E+20
  9
$EXTMAX
 10
-1.000000000000000E+20
 20
-1.000000000000000E+20
 30
-1.000000000000000E+20
  9
$LIMMIN
 10
0.0
 20
0.0
  9
$LIMMAX
 10
12.0
 20
9.0
  9
$ORTHOMODE
 70
     0
  9
$REGENMODE
 70
     1
  9
$FILLMODE
 70
     1
  9
$QTEXTMODE
 70
     0
  9
$MIRRTEXT
 70
     0
  9
$LTSCALE
 40
1.0
  9
$ATTMODE
 70
     1
  9
$TEXTSIZE
 40
0.2
  9
$TRACEWID
 40
0.05
  9
$TEXTSTYLE
  7
Standard
  9
$CLAYER
  8
0
  9
$CELTYPE
  6
ByLayer
  9
$CECOLOR
 62
   256
  9
$CELTSCALE
 40
1.0
  9
$DISPSILH
 70
     0
  9
$DIMSCALE
 40
1.0
  9
$DIMASZ
 40
0.18
  9
$DIMEXO
 40
0.0625
  9
$DIMDLI
 40
0.38
  9
$DIMRND
 40
0.0
  9
$DIMDLE
 40
0.0
  9
$DIMEXE
 40
0.18
  9
$DIMTP
 40
0.0
  9
$DIMTM
 40
0.0
  9
$DIMTXT
 40
0.18
  9
$DIMCEN
 40
0.09
  9
$DIMTSZ
 40
0.0
  9
$DIMTOL
 70
     0
  9
$DIMLIM
 70
     0
  9
$DIMTIH
 70
     1
  9
$DIMTOH
 70
     1
  9
$DIMSE1
 70
     0
  9
$DIMSE2
 70
     0
  9
$DIMTAD
 70
     0
  9
$DIMZIN
 70
     0
  9
$DIMBLK
  1

  9
$DIMASO
 70
     1
  9
$DIMSHO
 70
     1
  9
$DIMPOST
  1

  9
$DIMAPOST
  1

  9
$DIMALT
 70
     0
  9
$DIMALTD
 70
     2
  9
$DIMALTF
 40
25.4
  9
$DIMLFAC
 40
1.0
  9
$DIMTOFL
 70
     0
  9
$DIMTVP
 40
0.0
  9
$DIMTIX
 70
     0
  9
$DIMSOXD
 70
     0
  9
$DIMSAH
 70
     0
  9
$DIMBLK1
  1

  9
$DIMBLK2
  1

  9
$DIMSTYLE
  2
Standard
  9
$DIMCLRD
 70
     0
  9
$DIMCLRE
 70
     0
  9
$DIMCLRT
 70
     0
  9
$DIMTFAC
 40
1.0
  9
$DIMGAP
 40
0.09
  9
$DIMJUST
 70
     0
  9
$DIMSD1
 70
     0
  9
$DIMSD2
 70
     0
  9
$DIMTOLJ
 70
     1
  9
$DIMTZIN
 70
     0
  9
$DIMALTZ
 70
     0
  9
$DIMALTTZ
 70
     0
  9
$DIMUPT
 70
     0
  9
$DIMDEC
 70
     4
  9
$DIMTDEC
 70
     4
  9
$DIMALTU
 70
     2
  9
$DIMALTTD
 70
     2
  9
$DIMTXSTY
  7
Standard
  9
$DIMAUNIT
 70
     0
  9
$DIMADEC
 70
     0
  9
$DIMALTRND
 40
0.0
  9
$DIMAZIN
 70
     0
  9
$DIMDSEP
 70
    46
  9
$DIMATFIT
 70
     3
  9
$DIMFRAC
 70
     0
  9
$DIMLDRBLK
  1

  9
$DIMLUNIT
 70
     2
  9
$DIMLWD
 70
    -2
  9
$DIMLWE
 70
    -2
  9
$DIMTMOVE
 70
     0
  9
$DIMFXL
 40
1.0
  9
$DIMFXLON
 70
     0
  9
$DIMJOGANG
 40
0.7853981633974483
  9
$DIMTFILL
 70
     0
  9
$DIMTFILLCLR
 70
     0
  9
$DIMARCSYM
 70
     0
  9
$DIMLTYPE
  6

  9
$DIMLTEX1
  6

  9
$DIMLTEX2
  6

  9
$DIMTXTDIRECTION
 70
     0
  9
$LUNITS
 70
     2
  9
$LUPREC
 70
     4
  9
$SKETCHINC
 40
0.1
  9
$FILLETRAD
 40
0.0
  9
$AUNITS
 70
     0
  9
$AUPREC
 70
     0
  9
$MENU
  1
.
  9
$ELEVATION
 40
0.0
  9
$PELEVATION
 40
0.0
  9
$THICKNESS
 40
0.0
  9
$LIMCHECK
 70
     0
  9
$CHAMFERA
 40
0.0
  9
$CHAMFERB
 40
0.0
  9
$CHAMFERC
 40
0.0
  9
$CHAMFERD
 40
0.0
  9
$SKPOLY
 70
     0
  9
$TDCREATE
 40
2459734.953321759
  9
$TDUCREATE
 40
2459734.536655093
  9
$TDUPDATE
 40
2459734.953321759
  9
$TDUUPDATE
 40
2459734.536655093
  9
$TDINDWG
 40
0.0000000000
  9
$TDUSRTIMER
 40
0.0000000000
  9
$USRTIMER
 70
     1
  9
$ANGBASE
 50
0.0
  9
$ANGDIR
 70
     0
  9
$PDMODE
 70
     0
  9
$PDSIZE
 40
0.0
  9
$PLINEWID
 40
0.0
  9
$SPLFRAME
 70
     0
  9
$SPLINETYPE
 70
     6
  9
$SPLINESEGS
 70
     8
  9
$HANDSEED
  5
8E
  9
$SURFTAB1
 70
     6
  9
$SURFTAB2
 70
     6
  9
$SURFTYPE
 70
     6
  9
$SURFU
 70
     6
  9
$SURFV
 70
     6
  9
$UCSBASE
  2

  9
$UCSNAME
  2

  9
$UCSORG
 10
0.0
 20
0.0
 30
0.0
  9
$UCSXDIR
 10
1.0
 20
0.0
 30
0.0
  9
$UCSYDIR
 10
0.0
 20
1.0
 30
0.0
  9
$UCSORTHOREF
  2

  9
$UCSORTHOVIEW
 70
     0
  9
$UCSORGTOP
 10
0.0
 20
0.0
 30
0.0
  9
$UCSORGBOTTOM
 10
0.0
 20
0.0
 30
0.0
  9
$UCSORGLEFT
 10
0.0
 20
0.0
 30
0.0
  9
$UCSORGRIGHT
 10
0.0
 20
0.0
 30
0.0
  9
$UCSORGFRONT
 10
0.0
 20
0.0
 30
0.0
  9
$UCSORGBACK
 10
0.0
 20
0.0
 30
0.0
  9
$PUCSBASE
  2

  9
$PUCSNAME
  2

  9
$PUCSORG
 10
0.0
 20
0.0
 30
0.0
  9
$PUCSXDIR
 10
1.0
 20
0.0
 30
0.0
  9
$PUCSYDIR
 10
0.0
 20
1.0
 30
0.0
  9
$PUCSORTHOREF
  2

  9
$PUCSORTHOVIEW
 70
     0
  9
$PUCSORGTOP
 10
0.0
 20
0.0
 30
0.0
  9
$PUCSORGBOTTOM
 10
0.0
 20
0.0
 30
0.0
  9
$PUCSORGLEFT
 10
0.0
 20
0.0
 30
0.0
  9
$PUCSORGRIGHT
 10
0.0
 20
0.0
 30
0.0
  9
$PUCSORGFRONT
 10
0.0
 20
0.0
 30
0.0
  9
$PUCSORGBACK
 10
0.0
 20
0.0
 30
0.0
  9
$USERI1
 70
     0
  9
$USERI2
 70
     0
  9
$USERI3
 70
     0
  9
$USERI4
 70
     0
  9
$USERI5
 70
     0
  9
$USERR1
 40
0.0
  9
$USERR2
 40
0.0
  9
$USERR3
 40
0.0
  9
$USERR4
 40
0.0
  9
$USERR5
 40
0.0
  9
$WORLDVIEW
 70
     1
  9
$SHADEDGE
 70
     3
  9
$SHADEDIF
 70
    70
  9
$TILEMODE
 70
     1
  9
$MAXACTVP
 70
    64
  9
$PINSBASE
 10
0.0
 20
0.0
 30
0.0
  9
$PLIMCHECK
 70
     0
  9
$PEXTMIN
 10
1.000000000000000E+20
 20
1.000000000000000E+20
 30
1.000000000000000E+20
  9
$PEXTMAX
 10
-1.000000000000000E+20
 20
-1.000000000000000E+20
 30
-1.000000000000000E+20
  9
$PLIMMIN
 10
0.0
 20
0.0
  9
$PLIMMAX
 10
12.0
 20
9.0
  9
$UNITMODE
 70
     0
  9
$VISRETAIN
 70
     1
  9
$PLINEGEN
 70
     0
  9
$PSLTSCALE
 70
     1
  9
$TREEDEPTH
 70
  3020
  9
$CMLSTYLE
  2
Standard
  9
$CMLJUST
 70
     0
  9
$CMLSCALE
 40
1.0
  9
$PROXYGRAPHICS
 70
     1
  9
$MEASUREMENT
 70
     0
  9
$CELWEIGHT
370
    -1
  9
$ENDCAPS
280
     0
  9
$JOINSTYLE
280
     0
  9
$LWDISPLAY
290
     1
  9
$INSUNITS
 70
     4
  9
$HYPERLINKBASE
  1

  9
$STYLESHEET
  1

  9
$XEDIT
290
     1
  9
$CEPSNTYPE
380
     0
  9
$PSTYLEMODE
290
     1
  9
$FINGERPRINTGUID
  2
{8EDFE3CA-86DF-C049-959E-7970BA51E8FB}
  9
$VERSIONGUID
  2
{2C46B86F-09E3-8B4D-B344-F1AFBA8467DD}
  9
$EXTNAMES
290
     1
  9
$PSVPSCALE
 40
0.0
  9
$OLESTARTUP
290
     0
  9
$SORTENTS
280
   127
  9
$INDEXCTL
280
     0
  9
$HIDETEXT
280
     1
  9
$XCLIPFRAME
280
     2
  9
$HALOGAP
280
     0
  9
$OBSCOLOR
 70
   257
  9
$OBSLTYPE
280
     0
  9
$INTERSECTIONDISPLAY
280
     0
  9
$INTERSECTIONCOLOR
 70
   257
  9
$DIMASSOC
280
     2
  9
$PROJECTNAME
  1

  9
$CAMERADISPLAY
290
     0
  9
$LENSLENGTH
 40
50.0
  9
$CAMERAHEIGHT
 40
0.0
  9
$STEPSPERSEC
 40
2.0
  9
$STEPSIZE
 40
6.0
  9
$3DDWFPREC
 40
2.0
  9
$PSOLWIDTH
 40
0.25
  9
$PSOLHEIGHT
 40
4.0
  9
$LOFTANG1
 40
1.570796326794896
  9
$LOFTANG2
 40
1.570796326794896
  9
$LOFTMAG1
 40
0.0
  9
$LOFTMAG2
 40
0.0
  9
$LOFTPARAM
 70
     7
  9
$LOFTNORMALS
280
     1
  9
$LATITUDE
 40
37.795
  9
$LONGITUDE
 40
-122.394
  9
$NORTHDIRECTION
 40
0.0
  9
$TIMEZONE
 70
 -8000
  9
$LIGHTGLYPHDISPLAY
280
     1
  9
$TILEMODELIGHTSYNCH
280
     1
  9
$CMATERIAL
347
11
  9
$SOLIDHIST
280
     0
  9
$SHOWHIST
280
     1
  9
$DWFFRAME
280
     2
  9
$DGNFRAME
280
     0
  9
$REALWORLDSCALE
290
     1
  9
$INTERFERECOLOR
 62
     1
  9
$INTERFEREOBJVS
345
33
  9
$INTERFEREVPVS
346
30
  9
$CSHADOW
280
     0
  9
$SHADOWPLANELOCATION
 40
0.0
  0
ENDSEC
  0
SECTION
  2
CLASSES
  0
CLASS
  1
ACDBDICTIONARYWDFLT
  2
AcDbDictionaryWithDefault
  3
ObjectDBX Classes
 90
        0
 91
        1
280
     0
281
     0
  0
CLASS
  1
MATERIAL
  2
AcDbMaterial
  3
ObjectDBX Classes
 90
     1153
 91
        3
280
     0
281
     0
  0
CLASS
  1
VISUALSTYLE
  2
AcDbVisualStyle
  3
ObjectDBX Classes
 90
     4095
 91
       24
280
     0
281
     0
  0
CLASS
  1
SCALE
  2
AcDbScale
  3
ObjectDBX Classes
 90
     1153
 91
       17
280
     0
281
     0
  0
CLASS
  1
TABLESTYLE
  2
AcDbTableStyle
  3
ObjectDBX Classes
 90
     4095
 91
        1
280
     0
281
     0
  0
CLASS
  1
MLEADERSTYLE
  2
AcDbMLeaderStyle
  3
ACDB_MLEADERSTYLE_CLASS
 90
     4095
 91
        1
280
     0
281
     0
  0
CLASS
  1
ACDBSECTIONVIEWSTYLE
  2
AcDbSectionViewStyle
  3
ObjectDBX Classes
 90
     1025
 91
        1
280
     0
281
     0
  0
CLASS
  1
ACDBDETAILVIEWSTYLE
  2
AcDbDetailViewStyle
  3
ObjectDBX Classes
 90
     1025
 91
        1
280
     0
281
     0
  0
CLASS
  1
DICTIONARYVAR
  2
AcDbDictionaryVar
  3
ObjectDBX Classes
 90
        0
 91
        5
280
     0
281
     0
  0
CLASS
  1
CELLSTYLEMAP
  2
AcDbCellStyleMap
  3
ObjectDBX Classes
 90
     1152
 91
        1
280
     0
281
     0
  0
ENDSEC
  0
SECTION
  2
TABLES
  0
TABLE
  2
VPORT
  5
8
330
0
100
AcDbSymbolTable
 70
     1
1001
ACAD
1000
DbSaveVer
1071
      247
  0
VPORT
  5
57
330
8
100
AcDbSymbolTableRecord
100
AcDbViewportTableRecord
  2
*Active
 70
     0
 10
0.0
 20
0.0
 11
1.0
 21
1.0
 12
0.0
 22
0.0
 13
0.0
 23
0.0
 14
1.0
 24
1.0
 15
0.0
 25
0.0
 16
0.0
 26
0.0
 36
1.0
 17
-111.9583333053439
 27
3.302777776952218
 37
0.0
 40
214.1999999464498
 41
0.9999999999999998
 42
50.0
 43
0.0
 44
0.0
 50
0.0
 51
0.0
 71
     0
 72
   100
 73
     1
 74
     1
 75
     0
 76
     0
 77
     0
 78
     0
281
     0
 65
     1
110
0.0
120
0.0
130
0.0
111
1.0
121
0.0
131
0.0
112
0.0
122
1.0
132
0.0
 79
     0
146
0.0
 60
     3
 61
     5
292
     1
282
     1
141
0.0
142
0.0
 63
   250
421
  3355443
  0
ENDTAB
  0
TABLE
  2
LTYPE
  5
5
330
0
100
AcDbSymbolTable
 70
     1
  0
LTYPE
  5
5B
330
5
100
AcDbSymbolTableRecord
100
AcDbLinetypeTableRecord
  2
ByBlock
 70
     0
  3

 72
    65
 73
     0
 40
0.0
  0
LTYPE
  5
5C
330
5
100
AcDbSymbolTableRecord
100
AcDbLinetypeTableRecord
  2
ByLayer
 70
     0
  3

 72
    65
 73
     0
 40
0.0
  0
LTYPE
  5
5D
330
5
100
AcDbSymbolTableRecord
100
AcDbLinetypeTableRecord
  2
Continuous
 70
     0
  3
Solid line
 72
    65
 73
     0
 40
0.0
  0
ENDTAB
  0
TABLE
  2
LAYER
  5
2
330
0
100
AcDbSymbolTable
 70
     2
  0
LAYER
  5
54
330
2
100
AcDbSymbolTableRecord
100
AcDbLayerTableRecord
  2
0
 70
     0
 62
     7
  6
Continuous
370
    -3
390
F
347
21
348
0
  0
LAYER
  5
78
330
2
100
AcDbSymbolTableRecord
100
AcDbLayerTableRecord
  2
Layer 1
 70
     0
 62
     7
  6
Continuous
370
     0
390
F
347
21
348
0
  0
ENDTAB
  0
TABLE
  2
STYLE
  5
3
330
0
100
AcDbSymbolTable
 70
     2
  0
STYLE
  5
55
330
3
100
AcDbSymbolTableRecord
100
AcDbTextStyleTableRecord
  2
Standard
 70
     0
 40
0.0
 41
1.0
 50
0.0
 71
     0
 42
0.2
  3
txt
  4

  0
STYLE
  5
5A
330
3
100
AcDbSymbolTableRecord
100
AcDbTextStyleTableRecord
  2
Annotative
 70
     0
 40
0.0
 41
1.0
 50
0.0
 71
     0
 42
0.2
  3
txt
  4

1001
AcadAnnotative
1000
AnnotativeData
1002
{
1070
     1
1070
     1
1002
}
  0
ENDTAB
  0
TABLE
  2
VIEW
  5
6
330
0
100
AcDbSymbolTable
 70
     0
  0
ENDTAB
  0
TABLE
  2
UCS
  5
7
330
0
100
AcDbSymbolTable
 70
     0
  0
ENDTAB
  0
TABLE
  2
APPID
  5
9
330
0
100
AcDbSymbolTable
 70
     2
  0
APPID
  5
56
330
9
100
AcDbSymbolTableRecord
100
AcDbRegAppTableRecord
  2
ACAD
 70
     0
  0
APPID
  5
5E
330
9
100
AcDbSymbolTableRecord
100
AcDbRegAppTableRecord
  2
AcadAnnotative
 70
     0
  0
ENDTAB
  0
TABLE
  2
DIMSTYLE
  5
A
330
0
100
AcDbSymbolTable
 70
     2
100
AcDbDimStyleTable
 71
     0
  0
DIMSTYLE
105
58
330
A
100
AcDbSymbolTableRecord
100
AcDbDimStyleTableRecord
  2
Standard
 70
     0
340
55
  0
DIMSTYLE
105
59
330
A
100
AcDbSymbolTableRecord
100
AcDbDimStyleTableRecord
  2
Annotative
 70
     0
340
55
1001
AcadAnnotative
1000
AnnotativeData
1002
{
1070
     1
1070
     1
1002
}
  0
ENDTAB
  0
TABLE
  2
BLOCK_RECORD
  5
1
330
0
100
AcDbSymbolTable
 70
     1
  0
BLOCK_RECORD
  5
70
330
1
100
AcDbSymbolTableRecord
100
AcDbBlockTableRecord
  2
*Model_Space
340
73
 70
     0
280
     1
281
     0
  0
BLOCK_RECORD
  5
6C
330
1
100
AcDbSymbolTableRecord
100
AcDbBlockTableRecord
  2
*Paper_Space
340
6F
 70
     0
280
     1
281
     0
  0
BLOCK_RECORD
  5
74
330
1
100
AcDbSymbolTableRecord
100
AcDbBlockTableRecord
  2
*Paper_Space0
340
77
 70
     0
280
     1
281
     0
  0
ENDTAB
  0
ENDSEC
  0
SECTION
  2
BLOCKS
  0
BLOCK
  5
71
330
70
100
AcDbEntity
  8
0
100
AcDbBlockBegin
  2
*Model_Space
 70
     0
 10
0.0
 20
0.0
 30
0.0
  3
*Model_Space
  1

  0
ENDBLK
  5
72
330
70
100
AcDbEntity
  8
0
100
AcDbBlockEnd
  0
BLOCK
  5
6D
330
6C
100
AcDbEntity
 67
     1
  8
0
100
AcDbBlockBegin
  2
*Paper_Space
 70
     0
 10
0.0
 20
0.0
 30
0.0
  3
*Paper_Space
  1

  0
ENDBLK
  5
6E
330
6C
100
AcDbEntity
 67
     1
  8
0
100
AcDbBlockEnd
  0
BLOCK
  5
75
330
74
100
AcDbEntity
 67
     1
  8
0
100
AcDbBlockBegin
  2
*Paper_Space0
 70
     0
 10
0.0
 20
0.0
 30
0.0
  3
*Paper_Space0
  1

  0
ENDBLK
  5
76
330
74
100
AcDbEntity
 67
     1
  8
0
100
AcDbBlockEnd
  0
ENDSEC
  0
SECTION
  2
ENTITIES
  0
SPLINE
  5
79
330
70
100
AcDbEntity
  8
Layer 1
100
AcDbSpline
210
0.0
220
0.0
230
1.0
 70
    11
 71
     3
 72
    53
 73
    49
 74
     0
 42
0.0000000001
 43
0.0000000001
 40
0.0
 40
0.0
 40
0.0
 40
0.0
 40
1.0
 40
1.0
 40
1.0
 40
2.0
 40
2.0
 40
2.0
 40
3.0
 40
3.0
 40
3.0
 40
4.0
 40
4.0
 40
4.0
 40
5.0
 40
5.0
 40
5.0
 40
6.0
 40
6.0
 40
6.0
 40
7.0
 40
7.0
 40
7.0
 40
8.0
 40
8.0
 40
8.0
 40
9.0
 40
9.0
 40
9.0
 40
10.0
 40
10.0
 40
10.0
 40
11.0
 40
11.0
 40
11.0
 40
12.0
 40
12.0
 40
12.0
 40
13.0
 40
13.0
 40
13.0
 40
14.0
 40
14.0
 40
14.0
 40
15.0
 40
15.0
 40
15.0
 40
16.0
 40
16.0
 40
16.0
 40
16.0
 10
-57.05031351553843
 20
1.475723224739186
 30
0.0
 10
-57.05031351553843
 20
1.475723224739186
 30
0.0
 10
-63.56295324981611
 20
-6.760688949704147
 30
0.0
 10
-63.56295324981611
 20
-6.760688949704147
 30
0.0
 10
-63.56295324981611
 20
-6.760688949704147
 30
0.0
 10
-63.71325462206097
 20
3.738371300743434
 30
0.0
 10
-63.71325462206097
 20
3.738371300743434
 30
0.0
 10
-63.71325462206097
 20
3.738371300743434
 30
0.0
 10
-74.14242988564018
 20
2.519361922950103
 30
0.0
 10
-74.14242988564018
 20
2.519361922950103
 30
0.0
 10
-74.14242988564018
 20
2.519361922950103
 30
0.0
 10
-66.82425263690361
 20
10.04885397226805
 30
0.0
 10
-66.82425263690361
 20
10.04885397226805
 30
0.0
 10
-66.82425263690361
 20
10.04885397226805
 30
0.0
 10
-75.06129440582935
 20
16.56155094240899
 30
0.0
 10
-75.06129440582935
 20
16.56155094240899
 30
0.0
 10
-75.06129440582935
 20
16.56155094240899
 30
0.0
 10
-64.56166179676839
 20
16.71162337120979
 30
0.0
 10
-64.56166179676839
 20
16.71162337120979
 30
0.0
 10
-64.56166179676839
 20
16.71162337120979
 30
0.0
 10
-65.78107182558404
 20
27.14137099340367
 30
0.0
 10
-65.78107182558404
 20
27.14137099340367
 30
0.0
 10
-65.78107182558404
 20
27.14137099340367
 30
0.0
 10
-58.25089294592746
 20
19.82353715983255
 30
0.0
 10
-58.25089294592746
 20
19.82353715983255
 30
0.0
 10
-58.25089294592746
 20
19.82353715983255
 30
0.0
 10
-51.73825321165042
 20
28.0598348625577
 30
0.0
 10
-51.73825321165042
 20
28.0598348625577
 30
0.0
 10
-51.73825321165042
 20
28.0598348625577
 30
0.0
 10
-51.58795183940555
 20
17.56088908384113
 30
0.0
 10
-51.58795183940555
 20
17.56088908384113
 30
0.0
 10
-51.58795183940555
 20
17.56088908384113
 30
0.0
 10
-41.158719339965
 20
18.77984122575901
 30
0.0
 10
-41.158719339965
 20
18.77984122575901
 30
0.0
 10
-41.158719339965
 20
18.77984122575901
 30
0.0
 10
-48.47724000387026
 20
11.24954787438682
 30
0.0
 10
-48.47724000387026
 20
11.24954787438682
 30
0.0
 10
-48.47724000387026
 20
11.24954787438682
 30
0.0
 10
-40.24025547080649
 20
4.736621960796668
 30
0.0
 10
-40.24025547080649
 20
4.736621960796668
 30
0.0
 10
-40.24025547080649
 20
4.736621960796668
 30
0.0
 10
-50.73983084400611
 20
4.586778475447003
 30
0.0
 10
-50.73983084400611
 20
4.586778475447003
 30
0.0
 10
-50.73983084400611
 20
4.586778475447003
 30
0.0
 10
-49.52013463588249
 20
-5.842110608829365
 30
0.0
 10
-49.52013463588249
 20
-5.842110608829365
 30
0.0
 10
-49.52013463588249
 20
-5.842110608829365
 30
0.0
 10
-57.05031351553843
 20
1.475723224739186
 30
0.0
 10
-57.05031351553843
 20
1.475723224739186
 30
0.0
  0
SPLINE
  5
7A
330
70
100
AcDbEntity
  8
Layer 1
100
AcDbSpline
210
0.0
220
0.0
230
1.0
 70
    11
 71
     3
 72
    23
 73
    19
 74
     0
 42
0.0000000001
 43
0.0000000001
 40
0.0
 40
0.0
 40
0.0
 40
0.0
 40
1.0
 40
1.0
 40
1.0
 40
2.0
 40
2.0
 40
2.0
 40
3.0
 40
3.0
 40
3.0
 40
4.0
 40
4.0
 40
4.0
 40
5.0
 40
5.0
 40
5.0
 40
6.0
 40
6.0
 40
6.0
 40
6.0
 10
-90.97263495361273
 20
-49.25499641808183
 30
0.0
 10
-90.97263495361273
 20
-49.25499641808183
 30
0.0
 10
-96.31090928205866
 20
-27.97435970493064
 30
0.0
 10
-96.31090928205866
 20
-27.97435970493064
 30
0.0
 10
-96.31090928205866
 20
-27.97435970493064
 30
0.0
 10
-97.87327659285857
 20
-21.74618220220477
 30
0.0
 10
-97.87327659285857
 20
-21.74618220220477
 30
0.0
 10
-97.87327659285857
 20
-21.74618220220477
 30
0.0
 10
-91.82006911867548
 20
-20.22777203301945
 30
0.0
 10
-91.82006911867548
 20
-20.22777203301945
 30
0.0
 10
-91.82006911867548
 20
-20.22777203301945
 30
0.0
 10
-61.68538804985239
 20
-12.66846009987605
 30
0.0
 10
-61.68538804985239
 20
-12.66846009987605
 30
0.0
 10
-61.68538804985239
 20
-12.66846009987605
 30
0.0
 10
-54.7848036464666
 20
-40.17721707988985
 30
0.0
 10
-54.7848036464666
 20
-40.17721707988985
 30
0.0
 10
-54.7848036464666
 20
-40.17721707988985
 30
0.0
 10
-90.97263495361273
 20
-49.25499641808183
 30
0.0
 10
-90.97263495361273
 20
-49.25499641808183
 30
0.0
  0
SPLINE
  5
7B
330
70
100
AcDbEntity
  8
Layer 1
100
AcDbSpline
210
0.0
220
0.0
230
1.0
 70
     9
 71
     3
 72
   527
 73
   523
 74
     0
 42
0.0000000001
 43
0.0000000001
 40
0.0
 40
0.0
 40
0.0
 40
0.0
 40
1.0
 40
1.0
 40
1.0
 40
2.0
 40
2.0
 40
2.0
 40
3.0
 40
3.0
 40
3.0
 40
4.0
 40
4.0
 40
4.0
 40
5.0
 40
5.0
 40
5.0
 40
6.0
 40
6.0
 40
6.0
 40
7.0
 40
7.0
 40
7.0
 40
8.0
 40
8.0
 40
8.0
 40
9.0
 40
9.0
 40
9.0
 40
10.0
 40
10.0
 40
10.0
 40
11.0
 40
11.0
 40
11.0
 40
12.0
 40
12.0
 40
12.0
 40
13.0
 40
13.0
 40
13.0
 40
14.0
 40
14.0
 40
14.0
 40
15.0
 40
15.0
 40
15.0
 40
16.0
 40
16.0
 40
16.0
 40
17.0
 40
17.0
 40
17.0
 40
18.0
 40
18.0
 40
18.0
 40
19.0
 40
19.0
 40
19.0
 40
20.0
 40
20.0
 40
20.0
 40
21.0
 40
21.0
 40
21.0
 40
22.0
 40
22.0
 40
22.0
 40
23.0
 40
23.0
 40
23.0
 40
24.0
 40
24.0
 40
24.0
 40
25.0
 40
25.0
 40
25.0
 40
26.0
 40
26.0
 40
26.0
 40
27.0
 40
27.0
 40
27.0
 40
28.0
 40
28.0
 40
28.0
 40
29.0
 40
29.0
 40
29.0
 40
30.0
 40
30.0
 40
30.0
 40
31.0
 40
31.0
 40
31.0
 40
32.0
 40
32.0
 40
32.0
 40
33.0
 40
33.0
 40
33.0
 40
34.0
 40
34.0
 40
34.0
 40
35.0
 40
35.0
 40
35.0
 40
36.0
 40
36.0
 40
36.0
 40
37.0
 40
37.0
 40
37.0
 40
38.0
 40
38.0
 40
38.0
 40
39.0
 40
39.0
 40
39.0
 40
40.0
 40
40.0
 40
40.0
 40
41.0
 40
41.0
 40
41.0
 40
42.0
 40
42.0
 40
42.0
 40
43.0
 40
43.0
 40
43.0
 40
44.0
 40
44.0
 40
44.0
 40
45.0
 40
45.0
 40
45.0
 40
46.0
 40
46.0
 40
46.0
 40
47.0
 40
47.0
 40
47.0
 40
48.0
 40
48.0
 40
48.0
 40
49.0
 40
49.0
 40
49.0
 40
50.0
 40
50.0
 40
50.0
 40
51.0
 40
51.0
 40
51.0
 40
52.0
 40
52.0
 40
52.0
 40
53.0
 40
53.0
 40
53.0
 40
54.0
 40
54.0
 40
54.0
 40
55.0
 40
55.0
 40
55.0
 40
56.0
 40
56.0
 40
56.0
 40
57.0
 40
57.0
 40
57.0
 40
58.0
 40
58.0
 40
58.0
 40
59.0
 40
59.0
 40
59.0
 40
60.0
 40
60.0
 40
60.0
 40
61.0
 40
61.0
 40
61.0
 40
62.0
 40
62.0
 40
62.0
 40
63.0
 40
63.0
 40
63.0
 40
64.0
 40
64.0
 40
64.0
 40
65.0
 40
65.0
 40
65.0
 40
66.0
 40
66.0
 40
66.0
 40
67.0
 40
67.0
 40
67.0
 40
68.0
 40
68.0
 40
68.0
 40
69.0
 40
69.0
 40
69.0
 40
70.0
 40
70.0
 40
70.0
 40
71.0
 40
71.0
 40
71.0
 40
72.0
 40
72.0
 40
72.0
 40
73.0
 40
73.0
 40
73.0
 40
74.0
 40
74.0
 40
74.0
 40
75.0
 40
75.0
 40
75.0
 40
76.0
 40
76.0
 40
76.0
 40
77.0
 40
77.0
 40
77.0
 40
78.0
 40
78.0
 40
78.0
 40
79.0
 40
79.0
 40
79.0
 40
80.0
 40
80.0
 40
80.0
 40
81.0
 40
81.0
 40
81.0
 40
82.0
 40
82.0
 40
82.0
 40
83.0
 40
83.0
 40
83.0
 40
84.0
 40
84.0
 40
84.0
 40
85.0
 40
85.0
 40
85.0
 40
86.0
 40
86.0
 40
86.0
 40
87.0
 40
87.0
 40
87.0
 40
88.0
 40
88.0
 40
88.0
 40
89.0
 40
89.0
 40
89.0
 40
90.0
 40
90.0
 40
90.0
 40
91.0
 40
91.0
 40
91.0
 40
92.0
 40
92.0
 40
92.0
 40
93.0
 40
93.0
 40
93.0
 40
94.0
 40
94.0
 40
94.0
 40
95.0
 40
95.0
 40
95.0
 40
96.0
 40
96.0
 40
96.0
 40
97.0
 40
97.0
 40
97.0
 40
98.0
 40
98.0
 40
98.0
 40
99.0
 40
99.0
 40
99.0
 40
100.0
 40
100.0
 40
100.0
 40
101.0
 40
101.0
 40
101.0
 40
102.0
 40
102.0
 40
102.0
 40
103.0
 40
103.0
 40
103.0
 40
104.0
 40
104.0
 40
104.0
 40
105.0
 40
105.0
 40
105.0
 40
106.0
 40
106.0
 40
106.0
 40
107.0
 40
107.0
 40
107.0
 40
108.0
 40
108.0
 40
108.0
 40
109.0
 40
109.0
 40
109.0
 40
110.0
 40
110.0
 40
110.0
 40
111.0
 40
111.0
 40
111.0
 40
112.0
 40
112.0
 40
112.0
 40
113.0
 40
113.0
 40
113.0
 40
114.0
 40
114.0
 40
114.0
 40
115.0
 40
115.0
 40
115.0
 40
116.0
 40
116.0
 40
116.0
 40
117.0
 40
117.0
 40
117.0
 40
118.0
 40
118.0
 40
118.0
 40
119.0
 40
119.0
 40
119.0
 40
120.0
 40
120.0
 40
120.0
 40
121.0
 40
121.0
 40
121.0
 40
122.0
 40
122.0
 40
122.0
 40
123.0
 40
123.0
 40
123.0
 40
124.0
 40
124.0
 40
124.0
 40
125.0
 40
125.0
 40
125.0
 40
126.0
 40
126.0
 40
126.0
 40
127.0
 40
127.0
 40
127.0
 40
128.0
 40
128.0
 40
128.0
 40
129.0
 40
129.0
 40
129.0
 40
130.0
 40
130.0
 40
130.0
 40
131.0
 40
131.0
 40
131.0
 40
132.0
 40
132.0
 40
132.0
 40
133.0
 40
133.0
 40
133.0
 40
134.0
 40
134.0
 40
134.0
 40
135.0
 40
135.0
 40
135.0
 40
136.0
 40
136.0
 40
136.0
 40
137.0
 40
137.0
 40
137.0
 40
138.0
 40
138.0
 40
138.0
 40
139.0
 40
139.0
 40
139.0
 40
140.0
 40
140.0
 40
140.0
 40
141.0
 40
141.0
 40
141.0
 40
142.0
 40
142.0
 40
142.0
 40
143.0
 40
143.0
 40
143.0
 40
144.0
 40
144.0
 40
144.0
 40
145.0
 40
145.0
 40
145.0
 40
146.0
 40
146.0
 40
146.0
 40
147.0
 40
147.0
 40
147.0
 40
148.0
 40
148.0
 40
148.0
 40
149.0
 40
149.0
 40
149.0
 40
150.0
 40
150.0
 40
150.0
 40
151.0
 40
151.0
 40
151.0
 40
152.0
 40
152.0
 40
152.0
 40
153.0
 40
153.0
 40
153.0
 40
154.0
 40
154.0
 40
154.0
 40
155.0
 40
155.0
 40
155.0
 40
156.0
 40
156.0
 40
156.0
 40
157.0
 40
157.0
 40
157.0
 40
158.0
 40
158.0
 40
158.0
 40
159.0
 40
159.0
 40
159.0
 40
160.0
 40
160.0
 40
160.0
 40
161.0
 40
161.0
 40
161.0
 40
162.0
 40
162.0
 40
162.0
 40
163.0
 40
163.0
 40
163.0
 40
164.0
 40
164.0
 40
164.0
 40
165.0
 40
165.0
 40
165.0
 40
166.0
 40
166.0
 40
166.0
 40
167.0
 40
167.0
 40
167.0
 40
168.0
 40
168.0
 40
168.0
 40
169.0
 40
169.0
 40
169.0
 40
170.0
 40
170.0
 40
170.0
 40
171.0
 40
171.0
 40
171.0
 40
172.0
 40
172.0
 40
172.0
 40
173.0
 40
173.0
 40
173.0
 40
174.0
 40
174.0
 40
174.0
 40
174.0
 10
-95.8760312065393
 20
-53.93763395328434
 30
0.0
 10
-95.8926296063692
 20
-54.08547418348522
 30
0.0
 10
-95.93504137972509
 20
-54.22678952547746
 30
0.0
 10
-95.95879426223902
 20
-54.37296991569439
 30
0.0
 10
-96.15602904089579
 20
-55.58591229216209
 30
0.0
 10
-96.57476660347851
 20
-56.74407994919588
 30
0.0
 10
-97.21952858304192
 20
-57.76928870001149
 30
0.0
 10
-97.70116835739107
 20
-58.53516176246582
 30
0.0
 10
-98.29665026022063
 20
-59.23000512082372
 30
0.0
 10
-98.98926141998055
 20
-59.82623108985389
 30
0.0
 10
-99.68187257974049
 20
-60.4223998230208
 30
0.0
 10
-100.471670232294
 20
-60.91989393099798
 30
0.0
 10
-101.3420559778074
 20
-61.29083954924615
 30
0.0
 10
-101.7772774684955
 20
-61.47634097629962
 30
0.0
 10
-102.232588746564
 20
-61.63019097195647
 30
0.0
 10
-102.7059865568593
 20
-61.74895538452609
 30
0.0
 10
-103.0375539024083
 20
-61.83211909125455
 30
0.0
 10
-103.3691784838193
 20
-61.889126009289
 30
0.0
 10
-103.7001162348916
 20
-61.93428510399427
 30
0.0
 10
-103.7745228548148
 20
-61.94447308733821
 30
0.0
 10
-103.8488722388771
 20
-61.95471830654222
 30
0.0
 10
-103.9231643870769
 20
-61.96296027059616
 30
0.0
 10
-104.2469476554646
 20
-61.99901886332805
 30
0.0
 10
-104.5698151500677
 20
-62.02105466999796
 30
0.0
 10
-104.890393210214
 20
-62.02231385894934
 30
0.0
 10
-104.9024127411247
 20
-62.0223710948126
 30
0.0
 10
-104.9146039796193
 20
-62.02454605754796
 30
0.0
 10
-104.9265662746692
 20
-62.02454605754796
 30
0.0
 10
-104.9585038853732
 20
-62.02454605754796
 30
0.0
 10
-104.9894684864351
 20
-62.01899417898464
 30
0.0
 10
-105.021348861279
 20
-62.01865076381468
 30
0.0
 10
-105.3250423422874
 20
-62.01544555557266
 30
0.0
 10
-105.6263891529758
 20
-61.9959281268087
 30
0.0
 10
-105.9248741705896
 20
-61.96267409128882
 30
0.0
 10
-105.9841132872201
 20
-61.95609196721883
 30
0.0
 10
-106.0438675266059
 20
-61.9517420417462
 30
0.0
 10
-106.1029349356511
 20
-61.94395796458553
 30
0.0
 10
-106.4218531558134
 20
-61.90206131398169
 30
0.0
 10
-106.7367076298118
 20
-61.8423070745985
 30
0.0
 10
-107.0468687631676
 20
-61.76738533192206
 30
0.0
 10
-107.1114308149154
 20
-61.75181717759945
 30
0.0
 10
-107.1751915646032
 20
-61.73384511709548
 30
0.0
 10
-107.2392957294603
 20
-61.7168460662362
 30
0.0
 10
-107.5447635221747
 20
-61.6359145581038
 30
0.0
 10
-107.8465682197545
 20
-61.54347864181475
 30
0.0
 10
-108.1405888401743
 20
-61.43186871193042
 30
0.0
 10
-108.1535241448689
 20
-61.42694642784374
 30
0.0
 10
-108.1669745723155
 20
-61.42334056856978
 30
0.0
 10
-108.1799098770102
 20
-61.41836104862178
 30
0.0
 10
-108.4828020559592
 20
-61.30177159878814
 30
0.0
 10
-108.7765937329323
 20
-61.16434829537527
 30
0.0
 10
-109.0647190596188
 20
-61.01662253689834
 30
0.0
 10
-109.1253890727866
 20
-60.98548622825376
 30
0.0
 10
-109.1860018500931
 20
-60.95446439133251
 30
0.0
 10
-109.2459277970616
 20
-60.92206889373527
 30
0.0
 10
-109.5255249803881
 20
-60.77073727598374
 30
0.0
 10
-109.7983683320586
 20
-60.60727165559891
 30
0.0
 10
-110.0607947569411
 20
-60.42760828641545
 30
0.0
 10
-110.100516444809
 20
-60.40042125221351
 30
0.0
 10
-110.1382921133842
 20
-60.37042966079763
 30
0.0
 10
-110.1776131502214
 20
-60.34261303211838
 30
0.0
 10
-110.4174314098194
 20
-60.17279423110956
 30
0.0
 10
-110.6488932336407
 20
-59.99107037091278
 30
0.0
 10
-110.8717696782413
 20
-59.79847169703472
 30
0.0
 10
-110.9121781964452
 20
-59.7635578215328
 30
0.0
 10
-110.9540748470484
 20
-59.73058996532089
 30
0.0
 10
-110.9938537707757
 20
-59.69493202361902
 30
0.0
 10
-111.2308102373003
 20
-59.48281592097699
 30
0.0
 10
-111.4555754653296
 20
-59.25650532468832
 30
0.0
 10
-111.6700382382923
 20
-59.01949162230239
 30
0.0
 10
-111.7158269274761
 20
-58.96889512075519
 30
0.0
 10
-111.7600702483993
 20
-58.91669601508667
 30
0.0
 10
-111.8047714562145
 20
-58.86501203217082
 30
0.0
 10
-112.0198065877912
 20
-58.61626497818159
 30
0.0
 10
-112.2265997553159
 20
-58.3595049035857
 30
0.0
 10
-112.414848503722
 20
-58.08637537260652
 30
0.0
 10
-112.414848503722
 20
-58.08637537260652
 30
0.0
 10
-113.9636509153507
 20
-58.47489240032801
 30
0.0
 10
-113.9636509153507
 20
-58.47489240032801
 30
0.0
 10
-113.9636509153507
 20
-58.47489240032801
 30
0.0
 10
-114.4941701154011
 20
-58.60796577826824
 30
0.0
 10
-114.4941701154011
 20
-58.60796577826824
 30
0.0
 10
-114.4941701154011
 20
-58.60796577826824
 30
0.0
 10
-116.2802724087224
 20
-51.4877101385264
 30
0.0
 10
-116.2802724087224
 20
-51.4877101385264
 30
0.0
 10
-116.2802724087224
 20
-51.4877101385264
 30
0.0
 10
-117.2397743905601
 20
-47.66275198759127
 30
0.0
 10
-117.2397743905601
 20
-47.66275198759127
 30
0.0
 10
-117.2397743905601
 20
-47.66275198759127
 30
0.0
 10
-117.2397743905601
 20
-47.66269475172994
 30
0.0
 10
-117.2397743905601
 20
-47.66269475172994
 30
0.0
 10
-117.2397743905601
 20
-47.66269475172994
 30
0.0
 10
-119.7410960089266
 20
-37.69129190826137
 30
0.0
 10
-119.7410960089266
 20
-37.69129190826137
 30
0.0
 10
-119.7410960089266
 20
-37.69129190826137
 30
0.0
 10
-119.7411532447879
 20
-37.69129190826137
 30
0.0
 10
-119.7411532447879
 20
-37.69129190826137
 30
0.0
 10
-119.7411532447879
 20
-37.69129190826137
 30
0.0
 10
-120.3394969406928
 20
-35.30593014525127
 30
0.0
 10
-120.3394969406928
 20
-35.30593014525127
 30
0.0
 10
-120.3394969406928
 20
-35.30593014525127
 30
0.0
 10
-121.2989989225299
 20
-31.4809147584516
 30
0.0
 10
-121.2989989225299
 20
-31.4809147584516
 30
0.0
 10
-121.2989989225299
 20
-31.4809147584516
 30
0.0
 10
-121.2989989225299
 20
-31.48085752259603
 30
0.0
 10
-121.2989989225299
 20
-31.48085752259603
 30
0.0
 10
-121.2989989225299
 20
-31.48085752259603
 30
0.0
 10
-123.1710122439322
 20
-24.01821695948588
 30
0.0
 10
-123.1710122439322
 20
-24.01821695948588
 30
0.0
 10
-123.1710122439322
 20
-24.01821695948588
 30
0.0
 10
-123.9409490525506
 20
-20.9488294159359
 30
0.0
 10
-123.9409490525506
 20
-20.9488294159359
 30
0.0
 10
-123.9409490525506
 20
-20.9488294159359
 30
0.0
 10
-117.5643589610098
 20
-19.34925879517475
 30
0.0
 10
-117.5643589610098
 20
-19.34925879517475
 30
0.0
 10
-117.5643589610098
 20
-19.34925879517475
 30
0.0
 10
-117.8791561991449
 20
-18.09436253224381
 30
0.0
 10
-117.8791561991449
 20
-18.09436253224381
 30
0.0
 10
-118.5737706140581
 20
-18.18479519337638
 30
0.0
 10
-119.2627759145447
 20
-18.25158944372862
 30
0.0
 10
-119.9453135626846
 20
-18.29657683084859
 30
0.0
 10
-120.1734557065413
 20
-18.31162986241466
 30
0.0
 10
-120.3960459718333
 20
-18.30997002243199
 30
0.0
 10
-120.6226427474299
 20
-18.32004353405261
 30
0.0
 10
-121.0742336945025
 20
-18.34007608557375
 30
0.0
 10
-121.5271983022485
 20
-18.36388620394773
 30
0.0
 10
-121.9721498893878
 20
-18.36440132670556
 30
0.0
 10
-122.5929872788527
 20
-18.36514539290296
 30
0.0
 10
-123.2060405911575
 20
-18.34574243586039
 30
0.0
 10
-123.8111953545776
 20
-18.30928319209977
 30
0.0
 10
-123.8916117399554
 20
-18.30441814387508
 30
0.0
 10
-123.9693952757065
 20
-18.29428739638927
 30
0.0
 10
-124.0494682459156
 20
-18.28879275368728
 30
0.0
 10
-124.144365304248
 20
-18.28232510133741
 30
0.0
 10
-124.237201871567
 20
-18.27190817455517
 30
0.0
 10
-124.3316982788688
 20
-18.26446751255548
 30
0.0
 10
-124.7599942303181
 20
-18.23087006187526
 30
0.0
 10
-125.1863441624781
 20
-18.19355228018622
 30
0.0
 10
-125.6050817250602
 20
-18.14158211796818
 30
0.0
 10
-125.8264700372622
 20
-18.11405166859243
 30
0.0
 10
-126.0429360653749
 20
-18.07810754757872
 30
0.0
 10
-126.2614625845042
 20
-18.0455403424026
 30
0.0
 10
-126.6252537200658
 20
-17.99139521744663
 30
0.0
 10
-126.9869843646147
 20
-17.93393041251569
 30
0.0
 10
-127.342247356817
 20
-17.86593420908369
 30
0.0
 10
-127.5711908027336
 20
-17.82209153918857
 30
0.0
 10
-127.7965856252396
 20
-17.77298317004131
 30
0.0
 10
-128.0218087401603
 20
-17.72347414985762
 30
0.0
 10
-128.3585845491039
 20
-17.64952541682201
 30
0.0
 10
-128.6914110836049
 20
-17.56991033350875
 30
0.0
 10
-129.0193153340199
 20
-17.48348418267181
 30
0.0
 10
-129.2409898255299
 20
-17.42498913224704
 30
0.0
 10
-129.4612334205013
 20
-17.36471977010153
 30
0.0
 10
-129.6786152223993
 20
-17.30067284111024
 30
0.0
 10
-130.0038293873243
 20
-17.20486000899579
 30
0.0
 10
-130.3222324847333
 20
-17.10057626937819
 30
0.0
 10
-130.6373159021764
 20
-16.99240049118509
 30
0.0
 10
-130.8409038614584
 20
-16.92245826845473
 30
0.0
 10
-131.0458082455551
 20
-16.85417588570706
 30
0.0
 10
-131.2449890435025
 20
-16.77919690717634
 30
0.0
 10
-131.5746103697603
 20
-16.6550523236229
 30
0.0
 10
-131.8937575333686
 20
-16.51951780364127
 30
0.0
 10
-132.2106724983803
 20
-16.38163661333448
 30
0.0
 10
-132.3801478842204
 20
-16.30791682374936
 30
0.0
 10
-132.5543738465633
 20
-16.23906208239728
 30
0.0
 10
-132.720071665546
 20
-16.16145025422702
 30
0.0
 10
-133.1299376695975
 20
-15.96948117482817
 30
0.0
 10
-133.5257808875883
 20
-15.7637182528082
 30
0.0
 10
-133.9112071787905
 20
-15.54856864951202
 30
0.0
 10
-133.9719916636816
 20
-15.51462778365029
 30
0.0
 10
-134.0377556685214
 20
-15.48526578670785
 30
0.0
 10
-134.0979105589346
 20
-15.4507525622366
 30
0.0
 10
-134.5377109185406
 20
-15.19851412070057
 30
0.0
 10
-134.958108321106
 20
-14.92910492071548
 30
0.0
 10
-135.3625941541801
 20
-14.64704659534566
 30
0.0
 10
-135.4917754935391
 20
-14.55695734937599
 30
0.0
 10
-135.61019649094
 20
-14.45856890349681
 30
0.0
 10
-135.7356574993023
 20
-14.36550339273432
 30
0.0
 10
-136.0046660482548
 20
-14.16586470789491
 30
0.0
 10
-136.2704693889647
 20
-13.96387935273035
 30
0.0
 10
-136.5214486415506
 20
-13.75079024044107
 30
0.0
 10
-136.6635080497428
 20
-13.63019428030411
 30
0.0
 10
-136.7961235407898
 20
-13.5029589602384
 30
0.0
 10
-136.9321731835247
 20
-13.37812754635275
 30
0.0
 10
-137.1498411647314
 20
-13.17837438979323
 30
0.0
 10
-137.3633309280494
 20
-12.97581667601785
 30
0.0
 10
-137.5652018114861
 20
-12.76541764921534
 30
0.0
 10
-137.6976455949491
 20
-12.62742198718716
 30
0.0
 10
-137.8239079053727
 20
-12.48547705071891
 30
0.0
 10
-137.9493116778736
 20
-12.34295975563856
 30
0.0
 10
-138.1363584731871
 20
-12.13038576610582
 30
0.0
 10
-138.3155639554792
 20
-11.91294672835031
 30
0.0
 10
-138.4864702378567
 20
-11.69052817063974
 30
0.0
 10
-138.6010564325377
 20
-11.54137151562165
 30
0.0
 10
-138.71375384379
 20
-11.39112737923427
 30
0.0
 10
-138.8209566123404
 20
-11.23762079875123
 30
0.0
 10
-138.9837926382498
 20
-11.00427019150123
 30
0.0
 10
-139.1340367746321
 20
-10.76382233742279
 30
0.0
 10
-139.2790724476203
 20
-10.52062716200394
 30
0.0
 10
-139.3704781184034
 20
-10.36729228909401
 30
0.0
 10
-139.4649745257051
 20
-10.21567449204284
 30
0.0
 10
-139.5491684779408
 20
-10.05850481642322
 30
0.0
 10
-139.6945475660978
 20
-9.786920653700843
 30
0.0
 10
-139.8214967068587
 20
-9.506007045555236
 30
0.0
 10
-139.9445538090396
 20
-9.223204653987378
 30
0.0
 10
-140.0050521146241
 20
-9.084235982319647
 30
0.0
 10
-140.0739068559826
 20
-8.94944552853477
 30
0.0
 10
-140.1288532830031
 20
-8.807786771372571
 30
0.0
 10
-140.2950089888773
 20
-8.379147404751321
 30
0.0
 10
-140.4402736053115
 20
-7.940606234105012
 30
0.0
 10
-140.5538295544865
 20
-7.488385692558344
 30
0.0
 10
-140.5540012620711
 20
-7.487698862215863
 30
0.0
 10
-140.5542874413785
 20
-7.48712650360376
 30
0.0
 10
-140.5544591489625
 20
-7.486439673261279
 30
0.0
 10
-140.6208527482783
 20
-7.221838285647235
 30
0.0
 10
-140.6770583642521
 20
-6.956092180796793
 30
0.0
 10
-140.723533883772
 20
-6.689602009750232
 30
0.0
 10
-140.7718981867231
 20
-6.578163787447985
 30
0.0
 10
-140.8109902801124
 20
-6.463749300354205
 30
0.0
 10
-140.8405239846363
 20
-6.346186840873324
 30
0.0
 10
-140.8439009004642
 20
-6.332564705838795
 30
0.0
 10
-140.8428706549569
 20
-6.318198504607504
 30
0.0
 10
-140.8460758631996
 20
-6.304576369581958
 30
0.0
 10
-140.846877165259
 20
-6.30423295441136
 30
0.0
 10
-140.8478501749056
 20
-6.304004010959588
 30
0.0
 10
-140.8487087128276
 20
-6.303660595797974
 30
0.0
 10
-140.8627887347522
 20
-6.241731393671074
 30
0.0
 10
-140.8626170271662
 20
-6.177569992958385
 30
0.0
 10
-140.8711451705275
 20
-6.114782252912048
 30
0.0
 10
-140.8826495786854
 20
-6.028699517247627
 30
0.0
 10
-140.9005644033274
 20
-5.943704262951206
 30
0.0
 10
-140.9018808281414
 20
-5.855904451439568
 30
0.0
 10
-140.9021097715874
 20
-5.844400043288685
 30
0.0
 10
-140.8992479785141
 20
-5.832494984101374
 30
0.0
 10
-140.8993052143754
 20
-5.820990575940223
 30
0.0
 10
-140.8999920447134
 20
-5.676985148463783
 30
0.0
 10
-140.8909487785994
 20
-5.531434352716441
 30
0.0
 10
-140.8669097167782
 20
-5.383307943211427
 30
0.0
 10
-140.8417259377269
 20
-5.229400711690035
 30
0.0
 10
-140.7868367465678
 20
-5.071143554703057
 30
0.0
 10
-140.7344086974526
 20
-4.913287048739674
 30
0.0
 10
-140.5677951046871
 20
-4.411557487009957
 30
0.0
 10
-140.2813296179846
 20
-3.893401233039476
 30
0.0
 10
-139.8556092803019
 20
-3.361680079900296
 30
0.0
 10
-139.714064994863
 20
-3.184878503787624
 30
0.0
 10
-139.5546631206441
 20
-3.006588795288489
 30
0.0
 10
-139.3821542341447
 20
-2.827326077129914
 30
0.0
 10
-139.2095881117852
 20
-2.648063358981605
 30
0.0
 10
-139.0239149771471
 20
-2.467884867039686
 30
0.0
 10
-138.8295992274243
 20
-2.287191252351495
 30
0.0
 10
-138.5918986947017
 20
-2.066146355316255
 30
0.0
 10
-138.3360543938885
 20
-1.84441462794816
 30
0.0
 10
-138.0610360794813
 20
-1.62176712679608
 30
0.0
 10
-137.3041490472796
 20
-1.00894275793664
 30
0.0
 10
-136.4247772715116
 20
-0.3923980580779972
 30
0.0
 10
-135.4088979661167
 20
0.2184802914850203
 30
0.0
 10
-134.6134911991404
 20
0.696743150008787
 30
0.0
 10
-133.7440212274077
 20
1.171285677535275
 30
0.0
 10
-132.8087300149765
 20
1.636956646530532
 30
0.0
 10
-131.873438802544
 20
2.102684851381995
 30
0.0
 10
-130.8723263494103
 20
2.559655969431963
 30
0.0
 10
-129.8136918554908
 20
3.002833244872369
 30
0.0
 10
-128.0428143013222
 20
3.74415212275147
 30
0.0
 10
-126.1035488426814
 20
4.443230934851005
 30
0.0
 10
-124.0494682459156
 20
5.084158111698942
 30
0.0
 10
-123.6476152624701
 20
5.209561884205033
 30
0.0
 10
-123.2484523645127
 20
5.336339317378118
 30
0.0
 10
-122.8375561149546
 20
5.456820805796253
 30
0.0
 10
-122.8375561149546
 20
5.456820805796253
 30
0.0
 10
-124.0494682459156
 20
12.70728803040111
 30
0.0
 10
-124.0494682459156
 20
12.70728803040111
 30
0.0
 10
-124.0494682459156
 20
12.70728803040111
 30
0.0
 10
-124.8276470185866
 20
17.36285300311857
 30
0.0
 10
-124.8276470185866
 20
17.36285300311857
 30
0.0
 10
-125.1524032966209
 20
17.46198551520542
 30
0.0
 10
-125.4628506092833
 20
17.60101142273641
 30
0.0
 10
-125.7513193511398
 20
17.77592421541721
 30
0.0
 10
-126.11196251432
 20
17.99456520626404
 30
0.0
 10
-126.438321396475
 20
18.26918286964186
 30
0.0
 10
-126.7155719094802
 20
18.59193589252033
 30
0.0
 10
-126.7155719094802
 20
18.59193589252033
 30
0.0
 10
-127.3853459605102
 20
19.69630183976876
 30
0.0
 10
-127.3853459605102
 20
19.69630183976876
 30
0.0
 10
-127.4510527294887
 20
19.86062599807303
 30
0.0
 10
-127.5065715151238
 20
20.03136057287097
 30
0.0
 10
-127.550872071909
 20
20.20804767725327
 30
0.0
 10
-127.6181242091455
 20
20.47619768828122
 30
0.0
 10
-127.656643943922
 20
20.74486282206827
 30
0.0
 10
-127.668320059664
 20
21.01072339863883
 30
0.0
 10
-127.6916722911466
 20
21.54244455177929
 30
0.0
 10
-127.6077072823575
 20
22.06306194779439
 30
0.0
 10
-127.4320504234774
 20
22.54641879798435
 30
0.0
 10
-127.344193376107
 20
22.78812584101803
 30
0.0
 10
-127.2335564558673
 20
23.02050343861821
 30
0.0
 10
-127.1018567386031
 20
23.24034638256405
 30
0.0
 10
-126.9071403378503
 20
23.5654460757664
 30
0.0
 10
-126.6530131128831
 20
23.85008001490094
 30
0.0
 10
-126.3729008068039
 20
24.10970188257147
 30
0.0
 10
-126.1341127927126
 20
24.33103295891275
 30
0.0
 10
-125.8699692919854
 20
24.52798155825641
 30
0.0
 10
-125.5809854273763
 20
24.69087482002914
 30
0.0
 10
-125.2920015627672
 20
24.85371084593605
 30
0.0
 10
-124.9781773342781
 20
24.98249153427138
 30
0.0
 10
-124.6401423363812
 20
25.06725784511603
 30
0.0
 10
-124.4429075577237
 20
25.11670962943453
 30
0.0
 10
-124.2459017225123
 20
25.14572821120445
 30
0.0
 10
-124.0494682459156
 20
25.1648449889416
 30
0.0
 10
-124.0055111042991
 20
25.16913767855419
 30
0.0
 10
-123.9617829061292
 20
25.16999621647235
 30
0.0
 10
-123.917940236236
 20
25.17285800954442
 30
0.0
 10
-123.8715791884375
 20
25.17583427434557
 30
0.0
 10
-123.8252181406396
 20
25.18006972809362
 30
0.0
 10
-123.7790288004257
 20
25.18138615290312
 30
0.0
 10
-123.7403945939278
 20
25.18253087013759
 30
0.0
 10
-123.701245264676
 20
25.18854063559804
 30
0.0
 10
-123.6627827657614
 20
25.18854063559804
 30
0.0
 10
-123.5033236556806
 20
25.18854063559804
 30
0.0
 10
-123.3473559331491
 20
25.16770678201431
 30
0.0
 10
-123.1911592671728
 20
25.14893341944775
 30
0.0
 10
-123.137243085659
 20
25.14246576709724
 30
0.0
 10
-123.0818387717465
 20
25.14389666363776
 30
0.0
 10
-123.0284377129873
 20
25.13525404855895
 30
0.0
 10
-122.7897069347574
 20
25.09661984205911
 30
0.0
 10
-122.5564707992294
 20
25.0361215364721
 30
0.0
 10
-122.3310187408628
 20
24.95610580212112
 30
0.0
 10
-122.272237511123
 20
24.93527194854766
 30
0.0
 10
-122.2178634427184
 20
24.90470799851582
 30
0.0
 10
-122.1602269302086
 20
24.88118405944661
 30
0.0
 10
-121.9963606587938
 20
24.81433257323946
 30
0.0
 10
-121.8352417087289
 20
24.74124237813035
 30
0.0
 10
-121.6819068358261
 20
24.65361427420465
 30
0.0
 10
-121.6069278572883
 20
24.6107446139587
 30
0.0
 10
-121.5368711628385
 20
24.56043429172141
 30
0.0
 10
-121.4648112132348
 20
24.51287129082644
 30
0.0
 10
-121.3366028835211
 20
24.42816221583735
 30
0.0
 10
-121.2118859413582
 20
24.33853085676801
 30
0.0
 10
-121.0939800667118
 20
24.23951281640127
 30
0.0
 10
-121.0237516646754
 20
24.18050264321868
 30
0.0
 10
-120.9563850557149
 20
24.11817279006498
 30
0.0
 10
-120.8902203998451
 20
24.05435480452354
 30
0.0
 10
-120.7807854326968
 20
23.94881187595136
 30
0.0
 10
-120.6783332406485
 20
23.83599999297377
 30
0.0
 10
-120.5810895119967
 20
23.71786517488208
 30
0.0
 10
-120.5233957636249
 20
23.64780848043033
 30
0.0
 10
-120.4651296566391
 20
23.5783813804578
 30
0.0
 10
-120.4120720130479
 20
23.50408923225995
 30
0.0
 10
-120.3160874733468
 20
23.36969942950187
 30
0.0
 10
-120.2323514080031
 20
23.22546505857494
 30
0.0
 10
-120.152850796408
 20
23.07808271526861
 30
0.0
 10
-120.1150751278321
 20
23.00808325668334
 30
0.0
 10
-120.0720909958616
 20
22.94197583667487
 30
0.0
 10
-120.038321837589
 20
22.86917182087245
 30
0.0
 10
-119.9335802110813
 20
22.64331911146808
 30
0.0
 10
-119.8441777954509
 20
22.40745012631791
 30
0.0
 10
-119.7813328195465
 20
22.15704323234023
 30
0.0
 10
-119.6926744701148
 20
21.80366902357435
 30
0.0
 10
-119.6546126222309
 20
21.45006587134965
 30
0.0
 10
-119.6623394635321
 20
21.10333102250933
 30
0.0
 10
-119.6661742662495
 20
20.92996359808981
 30
0.0
 10
-119.6814562412648
 20
20.75831324951686
 30
0.0
 10
-119.707613029962
 20
20.58929575056485
 30
0.0
 10
-119.7598693714925
 20
20.25131798852731
 30
0.0
 10
-119.8555677318862
 20
19.92369991742478
 30
0.0
 10
-119.9899002987772
 20
19.61388219923963
 30
0.0
 10
-120.1914277670439
 20
19.14906976816189
 30
0.0
 10
-120.479896508901
 20
18.72409349668492
 30
0.0
 10
-120.8392232472679
 20
18.36310691833405
 30
0.0
 10
-120.8392232472679
 20
18.36310691833405
 30
0.0
 10
-116.9740855215736
 20
6.927667974086611
 30
0.0
 10
-116.9740855215736
 20
6.927667974086611
 30
0.0
 10
-116.3767148353154
 20
7.052728331411837
 30
0.0
 10
-115.7860407448492
 20
7.167142818515243
 30
0.0
 10
-115.200460646055
 20
7.274746238095609
 30
0.0
 10
-115.0110671804202
 20
7.309545641876127
 30
0.0
 10
-114.8251078664741
 20
7.339937884323302
 30
0.0
 10
-114.637088061516
 20
7.372905740535208
 30
0.0
 10
-114.2413020793871
 20
7.442332840508377
 30
0.0
 10
-113.8471187013784
 20
7.509642213608167
 30
0.0
 10
-113.4579148433189
 20
7.570999057113337
 30
0.0
 10
-113.2433948344955
 20
7.60482545124404
 30
0.0
 10
-113.0314504394381
 20
7.635790052304601
 30
0.0
 10
-112.8190481574881
 20
7.667155304397742
 30
0.0
 10
-112.4597786549832
 20
7.7202701838509
 30
0.0
 10
-112.1031992379676
 20
7.770466034367443
 30
0.0
 10
-111.7503973878093
 20
7.816598138721887
 30
0.0
 10
-111.5363352658773
 20
7.844586474980006
 30
0.0
 10
-111.323188917728
 20
7.871716273328313
 30
0.0
 10
-111.1117024095613
 20
7.897128995818493
 30
0.0
 10
-110.7582709649283
 20
7.939598005040205
 30
0.0
 10
-110.4095900967961
 20
7.977602617062103
 30
0.0
 10
-110.0637137858778
 20
8.012974379452797
 30
0.0
 10
-109.8686539699557
 20
8.032892459253828
 30
0.0
 10
-109.6723922009443
 20
8.054069727997891
 30
0.0
 10
-109.4798507629269
 20
8.071812845059069
 30
0.0
 10
-109.0923639807127
 20
8.10741355089191
 30
0.0
 10
-108.7125468039365
 20
8.136546604383861
 30
0.0
 10
-108.3358203636797
 20
8.163104044111081
 30
0.0
 10
-108.196336569256
 20
8.172948612290202
 30
0.0
 10
-108.0533041514185
 20
8.185769445260858
 30
0.0
 10
-107.9153657252529
 20
8.194354824484753
 30
0.0
 10
-107.4053941994738
 20
8.226120727607264
 30
0.0
 10
-106.9053244777293
 20
8.249930845982531
 30
0.0
 10
-106.4177321737875
 20
8.26475493409683
 30
0.0
 10
-106.3214614547804
 20
8.267673963035367
 30
0.0
 10
-106.2303419633047
 20
8.267044368556149
 30
0.0
 10
-106.1349870180803
 20
8.269333803016111
 30
0.0
 10
-105.805079512514
 20
8.277175116041963
 30
0.0
 10
-105.4750575352243
 20
8.285016429069099
 30
0.0
 10
-105.1565399660926
 20
8.285016429069099
 30
0.0
 10
-105.1100644465714
 20
8.285016429069099
 30
0.0
 10
-105.0681105601062
 20
8.282097400131203
 30
0.0
 10
-105.0219212198943
 20
8.281925692545904
 30
0.0
 10
-104.5913930698463
 20
8.280380324283344
 30
0.0
 10
-104.1758034796455
 20
8.269104859575248
 30
0.0
 10
-103.7678262590214
 20
8.253136054225194
 30
0.0
 10
-103.6666332559264
 20
8.249186779774861
 30
0.0
 10
-103.5589153646221
 20
8.249301251505238
 30
0.0
 10
-103.4591532580644
 20
8.244436203280546
 30
0.0
 10
-102.9569085735832
 20
8.219996490427989
 30
0.0
 10
-102.474353025452
 20
8.183708954242399
 30
0.0
 10
-102.0106853116081
 20
8.13694725542029
 30
0.0
 10
-101.8837361708478
 20
8.124183658303914
 30
0.0
 10
-101.7676618437681
 20
8.105467531604473
 30
0.0
 10
-101.6438034395272
 20
8.091044094516977
 30
0.0
 10
-101.3146400001595
 20
8.052638831458008
 30
0.0
 10
-100.9906850241865
 20
8.011371775337241
 30
0.0
 10
-100.6837863349354
 20
7.961233160675619
 30
0.0
 10
-100.5293639806652
 20
7.93599214576047
 30
0.0
 10
-100.3852440814596
 20
7.905485431592543
 30
0.0
 10
-100.2366597850594
 20
7.877325387750407
 30
0.0
 10
-99.97783921945023
 20
7.828217018603789
 30
0.0
 10
-99.72388370206701
 20
7.776704743267472
 30
0.0
 10
-99.48349308385374
 20
7.718610343870154
 30
0.0
 10
-99.33502325917748
 20
7.682723458720993
 30
0.0
 10
-99.19353620960059
 20
7.64363136532917
 30
0.0
 10
-99.05233533933037
 20
7.604367564351405
 30
0.0
 10
-98.83180556505232
 20
7.543067956711423
 30
0.0
 10
-98.61980393413297
 20
7.477819074620466
 30
0.0
 10
-98.41758963552628
 20
7.408220267061998
 30
0.0
 10
-98.28674845618465
 20
7.363232879940745
 30
0.0
 10
-98.15831118302568
 20
7.317158011452132
 30
0.0
 10
-98.03542578842877
 20
7.268679236782805
 30
0.0
 10
-97.84265540696669
 20
7.192612776873179
 30
0.0
 10
-97.66367886812187
 20
7.110879966675628
 30
0.0
 10
-97.49094103817707
 20
7.026399835138313
 30
0.0
 10
-97.38522640202473
 20
6.974715852225681
 30
0.0
 10
-97.27636379349107
 20
6.924233822392176
 30
0.0
 10
-97.17843323450003
 20
6.869401867103352
 30
0.0
 10
-97.00472239491055
 20
6.772158138448379
 30
0.0
 10
-96.85121581442366
 20
6.666901389183539
 30
0.0
 10
-96.70263151802345
 20
6.559755856493882
 30
0.0
 10
-96.63125839875963
 20
6.508300817022112
 30
0.0
 10
-96.55078477751859
 20
6.460394400966813
 30
0.0
 10
-96.48536418784747
 20
6.406707162899628
 30
0.0
 10
-96.28412289888736
 20
6.241467230813936
 30
0.0
 10
-96.10577595451792
 20
6.067527447772046
 30
0.0
 10
-95.96285800840433
 20
5.880881303489236
 30
0.0
 10
-95.86446956252194
 20
5.752501266190969
 30
0.0
 10
-95.77964601580955
 20
5.61937065239582
 30
0.0
 10
-95.70890249102109
 20
5.48137499036892
 30
0.0
 10
-95.66597559491059
 20
5.397925104324793
 30
0.0
 10
-95.63936091932268
 20
5.308980575588306
 30
0.0
 10
-95.60742330861808
 20
5.221753122699038
 30
0.0
 10
-95.58784864399214
 20
5.167779705318101
 30
0.0
 10
-95.55980307186692
 20
5.116668081017571
 30
0.0
 10
-95.54463556857495
 20
5.061206531250814
 30
0.0
 10
-95.54515069132829
 20
5.060634172629086
 30
0.0
 10
-95.54583752166626
 20
5.060004578152436
 30
0.0
 10
-95.5463526444196
 20
5.059432219539691
 30
0.0
 10
-95.54268954928494
 20
5.045752848648956
 30
0.0
 10
-95.53479100040096
 20
5.033447138425215
 30
0.0
 10
-95.53129961285032
 20
5.019653295814371
 30
0.0
 10
-95.50182314418906
 20
4.902090836334132
 30
0.0
 10
-95.48247742300848
 20
4.782696829286564
 30
0.0
 10
-95.4723466755265
 20
4.661700218120873
 30
0.0
 10
-95.3876948363994
 20
4.404768435937114
 30
0.0
 10
-95.31168561235496
 20
4.144001851043026
 30
0.0
 10
-95.24529201303916
 20
3.879400463427699
 30
0.0
 10
-95.00621781963927
 20
2.926251662204278
 30
0.0
 10
-94.8970117959382
 20
1.961941868002499
 30
0.0
 10
-94.90891685512551
 20
0.9962584131253839
 30
0.0
 10
-94.91635751711687
 20
0.3927062538323206
 30
0.0
 10
-94.97113223655333
 20
-0.2113610282172824
 30
0.0
 10
-95.07106605069507
 20
-0.813482290978805
 30
0.0
 10
-95.22090953604857
 20
-1.71672142099109
 30
0.0
 10
-95.47240391138913
 20
-2.615496153797145
 30
0.0
 10
-95.81828022230808
 20
-3.501907940522611
 30
0.0
 10
-96.16409929736443
 20
-4.38831972725642
 30
0.0
 10
-96.6043003080024
 20
-5.262196860317925
 30
0.0
 10
-97.13161429981145
 20
-6.115354611525435
 30
0.0
 10
-97.69407111056583
 20
-7.02546204491504
 30
0.0
 10
-98.35566043340577
 20
-7.911931067505054
 30
0.0
 10
-99.10756794565884
 20
-8.764917111127264
 30
0.0
 10
-100.9872508724985
 20
-10.89752530983838
 30
0.0
 10
-103.4313938652464
 20
-12.82087919899108
 30
0.0
 10
-106.3025163846304
 20
-14.37969788638031
 30
0.0
 10
-107.4509539452104
 20
-15.00322536133702
 30
0.0
 10
-108.667731124398
 20
-15.56842949343759
 30
0.0
 10
-109.9439763636622
 20
-16.06540847866208
 30
0.0
 10
-109.9439763636622
 20
-16.06540847866208
 30
0.0
 10
-109.6201358594131
 20
-17.35642057019267
 30
0.0
 10
-109.6201358594131
 20
-17.35642057019267
 30
0.0
 10
-109.6201358594131
 20
-17.35642057019267
 30
0.0
 10
-103.2429161733957
 20
-15.75667824184558
 30
0.0
 10
-103.2429161733957
 20
-15.75667824184558
 30
0.0
 10
-103.2429161733957
 20
-15.75667824184558
 30
0.0
 10
-102.4241571749348
 20
-19.02055324270294
 30
0.0
 10
-102.4241571749348
 20
-19.02055324270294
 30
0.0
 10
-102.4241571749348
 20
-19.02055324270294
 30
0.0
 10
-101.5115313636482
 20
-22.65886524935076
 30
0.0
 10
-101.5115313636482
 20
-22.65886524935076
 30
0.0
 10
-101.5115313636482
 20
-22.65886524935076
 30
0.0
 10
-99.31544859455026
 20
-31.413204734325
 30
0.0
 10
-99.31544859455026
 20
-31.413204734325
 30
0.0
 10
-99.31544859455026
 20
-31.413204734325
 30
0.0
 10
-94.61088972440244
 20
-50.16762222936906
 30
0.0
 10
-94.61088972440244
 20
-50.16762222936906
 30
0.0
 10
-94.61088972440244
 20
-50.16762222936906
 30
0.0
 10
-93.79608000038485
 20
-53.41587184003861
 30
0.0
 10
-93.79608000038485
 20
-53.41587184003861
 30
0.0
 10
-93.79608000038485
 20
-53.41587184003861
 30
0.0
 10
-95.8760312065393
 20
-53.93763395328434
 30
0.0
 10
-95.8760312065393
 20
-53.93763395328434
 30
0.0
  0
SPLINE
  5
7C
330
70
100
AcDbEntity
  8
Layer 1
100
AcDbSpline
210
0.0
220
0.0
230
1.0
 70
    11
 71
     3
 72
    29
 73
    25
 74
     0
 42
0.0000000001
 43
0.0000000001
 40
0.0
 40
0.0
 40
0.0
 40
0.0
 40
1.0
 40
1.0
 40
1.0
 40
2.0
 40
2.0
 40
2.0
 40
3.0
 40
3.0
 40
3.0
 40
4.0
 40
4.0
 40
4.0
 40
5.0
 40
5.0
 40
5.0
 40
6.0
 40
6.0
 40
6.0
 40
7.0
 40
7.0
 40
7.0
 40
8.0
 40
8.0
 40
8.0
 40
8.0
 10
-165.6739050915274
 20
-38.54731145254479
 30
0.0
 10
-165.6739050915274
 20
-38.54731145254479
 30
0.0
 10
-125.8966412034353
 20
-28.56915477742349
 30
0.0
 10
-125.8966412034353
 20
-28.56915477742349
 30
0.0
 10
-125.8966412034353
 20
-28.56915477742349
 30
0.0
 10
-124.0494682459156
 20
-35.93272006431134
 30
0.0
 10
-124.0494682459156
 20
-35.93272006431134
 30
0.0
 10
-124.0494682459156
 20
-35.93272006431134
 30
0.0
 10
-123.6083514614943
 20
-37.69129190826137
 30
0.0
 10
-123.6083514614943
 20
-37.69129190826137
 30
0.0
 10
-123.6083514614943
 20
-37.69129190826137
 30
0.0
 10
-119.4667072889954
 20
-54.20149127470226
 30
0.0
 10
-119.4667072889954
 20
-54.20149127470226
 30
0.0
 10
-119.4667072889954
 20
-54.20149127470226
 30
0.0
 10
-119.4667072889954
 20
-54.20149127470226
 30
0.0
 10
-119.4667072889954
 20
-54.20149127470226
 30
0.0
 10
-119.4667072889954
 20
-54.20149127470226
 30
0.0
 10
-119.0546663222054
 20
-56.09262137383854
 30
0.0
 10
-119.0546663222054
 20
-56.09262137383854
 30
0.0
 10
-119.0546663222054
 20
-56.09262137383854
 30
0.0
 10
-158.7732634522848
 20
-66.0560684325618
 30
0.0
 10
-158.7732634522848
 20
-66.0560684325618
 30
0.0
 10
-158.7732634522848
 20
-66.0560684325618
 30
0.0
 10
-165.6739050915274
 20
-38.54731145254479
 30
0.0
 10
-165.6739050915274
 20
-38.54731145254479
 30
0.0
  0
SPLINE
  5
7D
330
70
100
AcDbEntity
  8
Layer 1
100
AcDbSpline
210
0.0
220
0.0
230
1.0
 70
    11
 71
     3
 72
    77
 73
    73
 74
     0
 42
0.0000000001
 43
0.0000000001
 40
0.0
 40
0.0
 40
0.0
 40
0.0
 40
1.0
 40
1.0
 40
1.0
 40
2.0
 40
2.0
 40
2.0
 40
3.0
 40
3.0
 40
3.0
 40
4.0
 40
4.0
 40
4.0
 40
5.0
 40
5.0
 40
5.0
 40
6.0
 40
6.0
 40
6.0
 40
7.0
 40
7.0
 40
7.0
 40
8.0
 40
8.0
 40
8.0
 40
9.0
 40
9.0
 40
9.0
 40
10.0
 40
10.0
 40
10.0
 40
11.0
 40
11.0
 40
11.0
 40
12.0
 40
12.0
 40
12.0
 40
13.0
 40
13.0
 40
13.0
 40
14.0
 40
14.0
 40
14.0
 40
15.0
 40
15.0
 40
15.0
 40
16.0
 40
16.0
 40
16.0
 40
17.0
 40
17.0
 40
17.0
 40
18.0
 40
18.0
 40
18.0
 40
19.0
 40
19.0
 40
19.0
 40
20.0
 40
20.0
 40
20.0
 40
21.0
 40
21.0
 40
21.0
 40
22.0
 40
22.0
 40
22.0
 40
23.0
 40
23.0
 40
23.0
 40
24.0
 40
24.0
 40
24.0
 40
24.0
 10
-124.0494682459156
 20
44.7744807262097
 30
0.0
 10
-124.0494682459156
 20
44.7744807262097
 30
0.0
 10
-114.0255801174699
 20
44.7744807262097
 30
0.0
 10
-114.0255801174699
 20
44.7744807262097
 30
0.0
 10
-105.5363571428681
 20
44.7744807262097
 30
0.0
 10
-99.21391217628718
 20
41.03955458537585
 30
0.0
 10
-94.69702969593013
 20
33.35564018178832
 30
0.0
 10
-89.9413592014792
 20
25.26981555889269
 30
0.0
 10
-87.53001235735913
 20
15.45993231652151
 30
0.0
 10
-87.53001235735913
 20
4.196830551188206
 30
0.0
 10
-87.53001235735913
 20
-3.4567488458167
 30
0.0
 10
-88.44601508447366
 20
-10.19232226055893
 30
0.0
 10
-90.25094797622157
 20
-15.96690556106279
 30
0.0
 10
-90.25094797622157
 20
-15.96690556106279
 30
0.0
 10
-98.78590240414451
 20
-18.10792743141315
 30
0.0
 10
-98.78590240414451
 20
-18.10792743141315
 30
0.0
 10
-98.78590240414451
 20
-18.10792743141315
 30
0.0
 10
-99.60466140260535
 20
-14.84405243055579
 30
0.0
 10
-99.60466140260535
 20
-14.84405243055579
 30
0.0
 10
-99.60466140260535
 20
-14.84405243055579
 30
0.0
 10
-99.69709731889507
 20
-14.475396246774
 30
0.0
 10
-99.69709731889507
 20
-14.475396246774
 30
0.0
 10
-93.3836383825648
 20
-9.374250092437348
 30
0.0
 10
-90.13121055400596
 20
-2.45506403406839
 30
0.0
 10
-91.45324448245331
 20
4.111606353443223
 30
0.0
 10
-91.45324448245331
 20
4.111606353443223
 30
0.0
 10
-91.41020311462206
 20
4.163290336364839
 30
0.0
 10
-91.41020311462206
 20
4.163290336364839
 30
0.0
 10
-91.41020311462206
 20
4.163290336364839
 30
0.0
 10
-91.88268515113266
 20
5.890554164082416
 30
0.0
 10
-91.88268515113266
 20
5.890554164082416
 30
0.0
 10
-91.88600483109929
 20
5.904176299116946
 30
0.0
 10
-91.88938174692598
 20
5.91774119828757
 30
0.0
 10
-91.89275866275393
 20
5.931306097455627
 30
0.0
 10
-91.89275866275393
 20
5.931306097455627
 30
0.0
 10
-91.97025601919575
 20
6.240436985300216
 30
0.0
 10
-91.97025601919575
 20
6.240436985300216
 30
0.0
 10
-91.97025601919575
 20
6.240436985300216
 30
0.0
 10
-92.03281481579351
 20
6.383870054173537
 30
0.0
 10
-92.03281481579351
 20
6.383870054173537
 30
0.0
 10
-92.05754070795213
 20
6.451408370714188
 30
0.0
 10
-92.08180871321939
 20
6.512479034913308
 30
0.0
 10
-92.10464582194997
 20
6.567368226067962
 30
0.0
 10
-92.15804688070981
 20
6.717841305906469
 30
0.0
 10
-92.2427559556989
 20
6.943465071850726
 30
0.0
 10
-92.37405502193315
 20
7.198508070601967
 30
0.0
 10
-92.54324422846531
 20
7.528930698920354
 30
0.0
 10
-92.75060975460467
 20
7.856090883140514
 30
0.0
 10
-92.98653597562134
 20
8.163733638587732
 30
0.0
 10
-94.95384700638672
 20
10.73247910177663
 30
0.0
 10
-99.0489584235037
 20
12.03602584697183
 30
0.0
 10
-105.1565399660926
 20
12.03602584697183
 30
0.0
 10
-107.9794698901101
 20
12.03602584697183
 30
0.0
 10
-111.1486195402165
 20
11.75345239884419
 30
0.0
 10
-114.4624614481412
 20
11.21131431891443
 30
0.0
 10
-114.4624614481412
 20
11.21131431891443
 30
0.0
 10
-116.6896805258831
 20
17.80070734343202
 30
0.0
 10
-116.6896805258831
 20
17.80070734343202
 30
0.0
 10
-115.8981657974862
 20
19.41332774061496
 30
0.0
 10
-115.6899989692868
 20
21.26347696293139
 30
0.0
 10
-116.1430780487561
 20
23.06966904362937
 30
0.0
 10
-117.0100296425828
 20
26.52568483147281
 30
0.0
 10
-120.1022542948608
 20
28.93943558177104
 30
0.0
 10
-123.6627255298994
 20
28.93955005350142
 30
0.0
 10
-123.6627255298994
 20
28.93955005350142
 30
0.0
 10
-123.6627827657614
 20
28.93955005350142
 30
0.0
 10
-123.6627827657614
 20
28.93955005350142
 30
0.0
 10
-123.791906869259
 20
28.93955005350142
 30
0.0
 10
-123.92040137828
 20
28.92209311574693
 30
0.0
 10
-124.0494682459156
 20
28.91562546339513
 30
0.0
 10
-124.0494682459156
 20
28.91562546339513
 30
0.0
 10
-124.0494682459156
 20
44.7744807262097
 30
0.0
 10
-124.0494682459156
 20
44.7744807262097
 30
0.0
  0
SPLINE
  5
7E
330
70
100
AcDbEntity
  8
Layer 1
100
AcDbSpline
210
0.0
220
0.0
230
1.0
 70
    11
 71
     3
 72
    53
 73
    49
 74
     0
 42
0.0000000001
 43
0.0000000001
 40
0.0
 40
0.0
 40
0.0
 40
0.0
 40
1.0
 40
1.0
 40
1.0
 40
2.0
 40
2.0
 40
2.0
 40
3.0
 40
3.0
 40
3.0
 40
4.0
 40
4.0
 40
4.0
 40
5.0
 40
5.0
 40
5.0
 40
6.0
 40
6.0
 40
6.0
 40
7.0
 40
7.0
 40
7.0
 40
8.0
 40
8.0
 40
8.0
 40
9.0
 40
9.0
 40
9.0
 40
10.0
 40
10.0
 40
10.0
 40
11.0
 40
11.0
 40
11.0
 40
12.0
 40
12.0
 40
12.0
 40
13.0
 40
13.0
 40
13.0
 40
14.0
 40
14.0
 40
14.0
 40
15.0
 40
15.0
 40
15.0
 40
16.0
 40
16.0
 40
16.0
 40
16.0
 10
-91.09483351787103
 20
73.45062033695142
 30
0.0
 10
-91.09483351787103
 20
73.45062033695142
 30
0.0
 10
-86.1425006033793
 20
68.63788568861498
 30
0.0
 10
-86.1425006033793
 20
68.63788568861498
 30
0.0
 10
-86.1425006033793
 20
68.63788568861498
 30
0.0
 10
-81.85931214544154
 20
74.05463038314547
 30
0.0
 10
-81.85931214544154
 20
74.05463038314547
 30
0.0
 10
-81.85931214544154
 20
74.05463038314547
 30
0.0
 10
-81.76046581266653
 20
67.14981052600972
 30
0.0
 10
-81.76046581266653
 20
67.14981052600972
 30
0.0
 10
-81.76046581266653
 20
67.14981052600972
 30
0.0
 10
-74.9014346447172
 20
67.95151323775508
 30
0.0
 10
-74.9014346447172
 20
67.95151323775508
 30
0.0
 10
-74.9014346447172
 20
67.95151323775508
 30
0.0
 10
-79.71462717995205
 20
62.9990086156787
 30
0.0
 10
-79.71462717995205
 20
62.9990086156787
 30
0.0
 10
-79.71462717995205
 20
62.9990086156787
 30
0.0
 10
-74.29742459852637
 20
58.71564845014731
 30
0.0
 10
-74.29742459852637
 20
58.71564845014731
 30
0.0
 10
-74.29742459852637
 20
58.71564845014731
 30
0.0
 10
-81.20270234255155
 20
58.61708829668282
 30
0.0
 10
-81.20270234255155
 20
58.61708829668282
 30
0.0
 10
-81.20270234255155
 20
58.61708829668282
 30
0.0
 10
-80.40048450805796
 20
51.75834330804724
 30
0.0
 10
-80.40048450805796
 20
51.75834330804724
 30
0.0
 10
-80.40048450805796
 20
51.75834330804724
 30
0.0
 10
-85.35287465841234
 20
56.57107795638368
 30
0.0
 10
-85.35287465841234
 20
56.57107795638368
 30
0.0
 10
-85.35287465841234
 20
56.57107795638368
 30
0.0
 10
-89.63606311634944
 20
51.15421879013309
 30
0.0
 10
-89.63606311634944
 20
51.15421879013309
 30
0.0
 10
-89.63606311634944
 20
51.15421879013309
 30
0.0
 10
-89.7349094491251
 20
58.05915311898959
 30
0.0
 10
-89.7349094491251
 20
58.05915311898959
 30
0.0
 10
-89.7349094491251
 20
58.05915311898959
 30
0.0
 10
-96.59388338121246
 20
57.25745040724358
 30
0.0
 10
-96.59388338121246
 20
57.25745040724358
 30
0.0
 10
-96.59388338121246
 20
57.25745040724358
 30
0.0
 10
-91.78091978942296
 20
62.2093826707053
 30
0.0
 10
-91.78091978942296
 20
62.2093826707053
 30
0.0
 10
-91.78091978942296
 20
62.2093826707053
 30
0.0
 10
-97.19817960670997
 20
66.49257112864241
 30
0.0
 10
-97.19817960670997
 20
66.49257112864241
 30
0.0
 10
-97.19817960670997
 20
66.49257112864241
 30
0.0
 10
-90.29290186268609
 20
66.59130298969284
 30
0.0
 10
-90.29290186268609
 20
66.59130298969284
 30
0.0
 10
-90.29290186268609
 20
66.59130298969284
 30
0.0
 10
-91.09483351787103
 20
73.45062033695142
 30
0.0
 10
-91.09483351787103
 20
73.45062033695142
 30
0.0
  0
SPLINE
  5
7F
330
70
100
AcDbEntity
  8
Layer 1
100
AcDbSpline
210
0.0
220
0.0
230
1.0
 70
     9
 71
     3
 72
    26
 73
    22
 74
     0
 42
0.0000000001
 43
0.0000000001
 40
0.0
 40
0.0
 40
0.0
 40
0.0
 40
1.0
 40
1.0
 40
1.0
 40
2.0
 40
2.0
 40
2.0
 40
3.0
 40
3.0
 40
3.0
 40
4.0
 40
4.0
 40
4.0
 40
5.0
 40
5.0
 40
5.0
 40
6.0
 40
6.0
 40
6.0
 40
7.0
 40
7.0
 40
7.0
 40
7.0
 10
-50.2795972818515
 20
62.32219455368416
 30
0.0
 10
-64.41267684933753
 20
79.18405105305527
 30
0.0
 10
-85.86130081593214
 20
87.73434469185676
 30
0.0
 10
-114.0255801174699
 20
87.73434469185676
 30
0.0
 10
-114.0255801174699
 20
87.73434469185676
 30
0.0
 10
-180.0168685630594
 20
87.73434469185676
 30
0.0
 10
-180.0168685630594
 20
87.73434469185676
 30
0.0
 10
-180.0168685630594
 20
87.73434469185676
 30
0.0
 10
-180.0168685630594
 20
-81.12878913795233
 30
0.0
 10
-180.0168685630594
 20
-81.12878913795233
 30
0.0
 10
-180.0168685630594
 20
-81.12878913795233
 30
0.0
 10
-110.9211069908365
 20
-81.12878913795233
 30
0.0
 10
-110.9211069908365
 20
-81.12878913795233
 30
0.0
 10
-86.87477621514508
 20
-81.12878913795233
 30
0.0
 10
-67.01622171630567
 20
-73.13030643967379
 30
0.0
 10
-51.90463786097058
 20
-57.35621748771605
 30
0.0
 10
-36.82212982326677
 20
-41.61847330779755
 30
0.0
 10
-29.17461742757915
 20
-20.94888665180173
 30
0.0
 10
-29.17461742757915
 20
4.077436544140639
 30
0.0
 10
-29.17461742757915
 20
26.01971981599569
 30
0.0
 10
-36.27466880821711
 20
45.61613406925606
 30
0.0
 10
-50.2795972818515
 20
62.32219455368416
 30
0.0
  0
HATCH
  5
80
330
70
100
AcDbEntity
  8
Layer 1
 62
     7
440
 33554687
100
AcDbHatch
 10
0.0
 20
0.0
 30
0.0
210
0.0
220
0.0
230
1.0
  2
SOLID
 70
     1
 71
     1
 91
        7
 92
        1
 93
        1
 72
     4
 94
        3
 73
     0
 74
     0
 95
       53
 96
       49
 40
0.0
 40
0.0
 40
0.0
 40
0.0
 40
1.0
 40
1.0
 40
1.0
 40
2.0
 40
2.0
 40
2.0
 40
3.0
 40
3.0
 40
3.0
 40
4.0
 40
4.0
 40
4.0
 40
5.0
 40
5.0
 40
5.0
 40
6.0
 40
6.0
 40
6.0
 40
7.0
 40
7.0
 40
7.0
 40
8.0
 40
8.0
 40
8.0
 40
9.0
 40
9.0
 40
9.0
 40
10.0
 40
10.0
 40
10.0
 40
11.0
 40
11.0
 40
11.0
 40
12.0
 40
12.0
 40
12.0
 40
13.0
 40
13.0
 40
13.0
 40
14.0
 40
14.0
 40
14.0
 40
15.0
 40
15.0
 40
15.0
 40
16.0
 40
16.0
 40
16.0
 40
16.0
 10
-57.05031351553843
 20
1.475723224739186
 10
-57.05031351553843
 20
1.475723224739186
 10
-63.56295324981611
 20
-6.760688949704147
 10
-63.56295324981611
 20
-6.760688949704147
 10
-63.56295324981611
 20
-6.760688949704147
 10
-63.71325462206097
 20
3.738371300743434
 10
-63.71325462206097
 20
3.738371300743434
 10
-63.71325462206097
 20
3.738371300743434
 10
-74.14242988564018
 20
2.519361922950103
 10
-74.14242988564018
 20
2.519361922950103
 10
-74.14242988564018
 20
2.519361922950103
 10
-66.82425263690361
 20
10.04885397226805
 10
-66.82425263690361
 20
10.04885397226805
 10
-66.82425263690361
 20
10.04885397226805
 10
-75.06129440582935
 20
16.56155094240899
 10
-75.06129440582935
 20
16.56155094240899
 10
-75.06129440582935
 20
16.56155094240899
 10
-64.56166179676839
 20
16.71162337120979
 10
-64.56166179676839
 20
16.71162337120979
 10
-64.56166179676839
 20
16.71162337120979
 10
-65.78107182558404
 20
27.14137099340367
 10
-65.78107182558404
 20
27.14137099340367
 10
-65.78107182558404
 20
27.14137099340367
 10
-58.25089294592746
 20
19.82353715983255
 10
-58.25089294592746
 20
19.82353715983255
 10
-58.25089294592746
 20
19.82353715983255
 10
-51.73825321165042
 20
28.0598348625577
 10
-51.73825321165042
 20
28.0598348625577
 10
-51.73825321165042
 20
28.0598348625577
 10
-51.58795183940555
 20
17.56088908384113
 10
-51.58795183940555
 20
17.56088908384113
 10
-51.58795183940555
 20
17.56088908384113
 10
-41.158719339965
 20
18.77984122575901
 10
-41.158719339965
 20
18.77984122575901
 10
-41.158719339965
 20
18.77984122575901
 10
-48.47724000387026
 20
11.24954787438682
 10
-48.47724000387026
 20
11.24954787438682
 10
-48.47724000387026
 20
11.24954787438682
 10
-40.24025547080649
 20
4.736621960796668
 10
-40.24025547080649
 20
4.736621960796668
 10
-40.24025547080649
 20
4.736621960796668
 10
-50.73983084400611
 20
4.586778475447003
 10
-50.73983084400611
 20
4.586778475447003
 10
-50.73983084400611
 20
4.586778475447003
 10
-49.52013463588249
 20
-5.842110608829365
 10
-49.52013463588249
 20
-5.842110608829365
 10
-49.52013463588249
 20
-5.842110608829365
 10
-57.05031351553843
 20
1.475723224739186
 10
-57.05031351553843
 20
1.475723224739186
 97
        0
 97
        1
330
79
 92
        1
 93
        1
 72
     4
 94
        3
 73
     0
 74
     0
 95
       23
 96
       19
 40
0.0
 40
0.0
 40
0.0
 40
0.0
 40
1.0
 40
1.0
 40
1.0
 40
2.0
 40
2.0
 40
2.0
 40
3.0
 40
3.0
 40
3.0
 40
4.0
 40
4.0
 40
4.0
 40
5.0
 40
5.0
 40
5.0
 40
6.0
 40
6.0
 40
6.0
 40
6.0
 10
-90.97263495361273
 20
-49.25499641808183
 10
-90.97263495361273
 20
-49.25499641808183
 10
-96.31090928205866
 20
-27.97435970493064
 10
-96.31090928205866
 20
-27.97435970493064
 10
-96.31090928205866
 20
-27.97435970493064
 10
-97.87327659285857
 20
-21.74618220220477
 10
-97.87327659285857
 20
-21.74618220220477
 10
-97.87327659285857
 20
-21.74618220220477
 10
-91.82006911867548
 20
-20.22777203301945
 10
-91.82006911867548
 20
-20.22777203301945
 10
-91.82006911867548
 20
-20.22777203301945
 10
-61.68538804985239
 20
-12.66846009987605
 10
-61.68538804985239
 20
-12.66846009987605
 10
-61.68538804985239
 20
-12.66846009987605
 10
-54.7848036464666
 20
-40.17721707988985
 10
-54.7848036464666
 20
-40.17721707988985
 10
-54.7848036464666
 20
-40.17721707988985
 10
-90.97263495361273
 20
-49.25499641808183
 10
-90.97263495361273
 20
-49.25499641808183
 97
        0
 97
        1
330
7A
 92
        1
 93
        1
 72
     4
 94
        3
 73
     0
 74
     0
 95
      527
 96
      523
 40
0.0
 40
0.0
 40
0.0
 40
0.0
 40
1.0
 40
1.0
 40
1.0
 40
2.0
 40
2.0
 40
2.0
 40
3.0
 40
3.0
 40
3.0
 40
4.0
 40
4.0
 40
4.0
 40
5.0
 40
5.0
 40
5.0
 40
6.0
 40
6.0
 40
6.0
 40
7.0
 40
7.0
 40
7.0
 40
8.0
 40
8.0
 40
8.0
 40
9.0
 40
9.0
 40
9.0
 40
10.0
 40
10.0
 40
10.0
 40
11.0
 40
11.0
 40
11.0
 40
12.0
 40
12.0
 40
12.0
 40
13.0
 40
13.0
 40
13.0
 40
14.0
 40
14.0
 40
14.0
 40
15.0
 40
15.0
 40
15.0
 40
16.0
 40
16.0
 40
16.0
 40
17.0
 40
17.0
 40
17.0
 40
18.0
 40
18.0
 40
18.0
 40
19.0
 40
19.0
 40
19.0
 40
20.0
 40
20.0
 40
20.0
 40
21.0
 40
21.0
 40
21.0
 40
22.0
 40
22.0
 40
22.0
 40
23.0
 40
23.0
 40
23.0
 40
24.0
 40
24.0
 40
24.0
 40
25.0
 40
25.0
 40
25.0
 40
26.0
 40
26.0
 40
26.0
 40
27.0
 40
27.0
 40
27.0
 40
28.0
 40
28.0
 40
28.0
 40
29.0
 40
29.0
 40
29.0
 40
30.0
 40
30.0
 40
30.0
 40
31.0
 40
31.0
 40
31.0
 40
32.0
 40
32.0
 40
32.0
 40
33.0
 40
33.0
 40
33.0
 40
34.0
 40
34.0
 40
34.0
 40
35.0
 40
35.0
 40
35.0
 40
36.0
 40
36.0
 40
36.0
 40
37.0
 40
37.0
 40
37.0
 40
38.0
 40
38.0
 40
38.0
 40
39.0
 40
39.0
 40
39.0
 40
40.0
 40
40.0
 40
40.0
 40
41.0
 40
41.0
 40
41.0
 40
42.0
 40
42.0
 40
42.0
 40
43.0
 40
43.0
 40
43.0
 40
44.0
 40
44.0
 40
44.0
 40
45.0
 40
45.0
 40
45.0
 40
46.0
 40
46.0
 40
46.0
 40
47.0
 40
47.0
 40
47.0
 40
48.0
 40
48.0
 40
48.0
 40
49.0
 40
49.0
 40
49.0
 40
50.0
 40
50.0
 40
50.0
 40
51.0
 40
51.0
 40
51.0
 40
52.0
 40
52.0
 40
52.0
 40
53.0
 40
53.0
 40
53.0
 40
54.0
 40
54.0
 40
54.0
 40
55.0
 40
55.0
 40
55.0
 40
56.0
 40
56.0
 40
56.0
 40
57.0
 40
57.0
 40
57.0
 40
58.0
 40
58.0
 40
58.0
 40
59.0
 40
59.0
 40
59.0
 40
60.0
 40
60.0
 40
60.0
 40
61.0
 40
61.0
 40
61.0
 40
62.0
 40
62.0
 40
62.0
 40
63.0
 40
63.0
 40
63.0
 40
64.0
 40
64.0
 40
64.0
 40
65.0
 40
65.0
 40
65.0
 40
66.0
 40
66.0
 40
66.0
 40
67.0
 40
67.0
 40
67.0
 40
68.0
 40
68.0
 40
68.0
 40
69.0
 40
69.0
 40
69.0
 40
70.0
 40
70.0
 40
70.0
 40
71.0
 40
71.0
 40
71.0
 40
72.0
 40
72.0
 40
72.0
 40
73.0
 40
73.0
 40
73.0
 40
74.0
 40
74.0
 40
74.0
 40
75.0
 40
75.0
 40
75.0
 40
76.0
 40
76.0
 40
76.0
 40
77.0
 40
77.0
 40
77.0
 40
78.0
 40
78.0
 40
78.0
 40
79.0
 40
79.0
 40
79.0
 40
80.0
 40
80.0
 40
80.0
 40
81.0
 40
81.0
 40
81.0
 40
82.0
 40
82.0
 40
82.0
 40
83.0
 40
83.0
 40
83.0
 40
84.0
 40
84.0
 40
84.0
 40
85.0
 40
85.0
 40
85.0
 40
86.0
 40
86.0
 40
86.0
 40
87.0
 40
87.0
 40
87.0
 40
88.0
 40
88.0
 40
88.0
 40
89.0
 40
89.0
 40
89.0
 40
90.0
 40
90.0
 40
90.0
 40
91.0
 40
91.0
 40
91.0
 40
92.0
 40
92.0
 40
92.0
 40
93.0
 40
93.0
 40
93.0
 40
94.0
 40
94.0
 40
94.0
 40
95.0
 40
95.0
 40
95.0
 40
96.0
 40
96.0
 40
96.0
 40
97.0
 40
97.0
 40
97.0
 40
98.0
 40
98.0
 40
98.0
 40
99.0
 40
99.0
 40
99.0
 40
100.0
 40
100.0
 40
100.0
 40
101.0
 40
101.0
 40
101.0
 40
102.0
 40
102.0
 40
102.0
 40
103.0
 40
103.0
 40
103.0
 40
104.0
 40
104.0
 40
104.0
 40
105.0
 40
105.0
 40
105.0
 40
106.0
 40
106.0
 40
106.0
 40
107.0
 40
107.0
 40
107.0
 40
108.0
 40
108.0
 40
108.0
 40
109.0
 40
109.0
 40
109.0
 40
110.0
 40
110.0
 40
110.0
 40
111.0
 40
111.0
 40
111.0
 40
112.0
 40
112.0
 40
112.0
 40
113.0
 40
113.0
 40
113.0
 40
114.0
 40
114.0
 40
114.0
 40
115.0
 40
115.0
 40
115.0
 40
116.0
 40
116.0
 40
116.0
 40
117.0
 40
117.0
 40
117.0
 40
118.0
 40
118.0
 40
118.0
 40
119.0
 40
119.0
 40
119.0
 40
120.0
 40
120.0
 40
120.0
 40
121.0
 40
121.0
 40
121.0
 40
122.0
 40
122.0
 40
122.0
 40
123.0
 40
123.0
 40
123.0
 40
124.0
 40
124.0
 40
124.0
 40
125.0
 40
125.0
 40
125.0
 40
126.0
 40
126.0
 40
126.0
 40
127.0
 40
127.0
 40
127.0
 40
128.0
 40
128.0
 40
128.0
 40
129.0
 40
129.0
 40
129.0
 40
130.0
 40
130.0
 40
130.0
 40
131.0
 40
131.0
 40
131.0
 40
132.0
 40
132.0
 40
132.0
 40
133.0
 40
133.0
 40
133.0
 40
134.0
 40
134.0
 40
134.0
 40
135.0
 40
135.0
 40
135.0
 40
136.0
 40
136.0
 40
136.0
 40
137.0
 40
137.0
 40
137.0
 40
138.0
 40
138.0
 40
138.0
 40
139.0
 40
139.0
 40
139.0
 40
140.0
 40
140.0
 40
140.0
 40
141.0
 40
141.0
 40
141.0
 40
142.0
 40
142.0
 40
142.0
 40
143.0
 40
143.0
 40
143.0
 40
144.0
 40
144.0
 40
144.0
 40
145.0
 40
145.0
 40
145.0
 40
146.0
 40
146.0
 40
146.0
 40
147.0
 40
147.0
 40
147.0
 40
148.0
 40
148.0
 40
148.0
 40
149.0
 40
149.0
 40
149.0
 40
150.0
 40
150.0
 40
150.0
 40
151.0
 40
151.0
 40
151.0
 40
152.0
 40
152.0
 40
152.0
 40
153.0
 40
153.0
 40
153.0
 40
154.0
 40
154.0
 40
154.0
 40
155.0
 40
155.0
 40
155.0
 40
156.0
 40
156.0
 40
156.0
 40
157.0
 40
157.0
 40
157.0
 40
158.0
 40
158.0
 40
158.0
 40
159.0
 40
159.0
 40
159.0
 40
160.0
 40
160.0
 40
160.0
 40
161.0
 40
161.0
 40
161.0
 40
162.0
 40
162.0
 40
162.0
 40
163.0
 40
163.0
 40
163.0
 40
164.0
 40
164.0
 40
164.0
 40
165.0
 40
165.0
 40
165.0
 40
166.0
 40
166.0
 40
166.0
 40
167.0
 40
167.0
 40
167.0
 40
168.0
 40
168.0
 40
168.0
 40
169.0
 40
169.0
 40
169.0
 40
170.0
 40
170.0
 40
170.0
 40
171.0
 40
171.0
 40
171.0
 40
172.0
 40
172.0
 40
172.0
 40
173.0
 40
173.0
 40
173.0
 40
174.0
 40
174.0
 40
174.0
 40
174.0
 10
-95.8760312065393
 20
-53.93763395328434
 10
-95.8926296063692
 20
-54.08547418348522
 10
-95.93504137972509
 20
-54.22678952547746
 10
-95.95879426223902
 20
-54.37296991569439
 10
-96.15602904089579
 20
-55.58591229216209
 10
-96.57476660347851
 20
-56.74407994919588
 10
-97.21952858304192
 20
-57.76928870001149
 10
-97.70116835739107
 20
-58.53516176246582
 10
-98.29665026022063
 20
-59.23000512082372
 10
-98.98926141998055
 20
-59.82623108985389
 10
-99.68187257974049
 20
-60.4223998230208
 10
-100.471670232294
 20
-60.91989393099798
 10
-101.3420559778074
 20
-61.29083954924615
 10
-101.7772774684955
 20
-61.47634097629962
 10
-102.232588746564
 20
-61.63019097195647
 10
-102.7059865568593
 20
-61.74895538452609
 10
-103.0375539024083
 20
-61.83211909125455
 10
-103.3691784838193
 20
-61.889126009289
 10
-103.7001162348916
 20
-61.93428510399427
 10
-103.7745228548148
 20
-61.94447308733821
 10
-103.8488722388771
 20
-61.95471830654222
 10
-103.9231643870769
 20
-61.96296027059616
 10
-104.2469476554646
 20
-61.99901886332805
 10
-104.5698151500677
 20
-62.02105466999796
 10
-104.890393210214
 20
-62.02231385894934
 10
-104.9024127411247
 20
-62.0223710948126
 10
-104.9146039796193
 20
-62.02454605754796
 10
-104.9265662746692
 20
-62.02454605754796
 10
-104.9585038853732
 20
-62.02454605754796
 10
-104.9894684864351
 20
-62.01899417898464
 10
-105.021348861279
 20
-62.01865076381468
 10
-105.3250423422874
 20
-62.01544555557266
 10
-105.6263891529758
 20
-61.9959281268087
 10
-105.9248741705896
 20
-61.96267409128882
 10
-105.9841132872201
 20
-61.95609196721883
 10
-106.0438675266059
 20
-61.9517420417462
 10
-106.1029349356511
 20
-61.94395796458553
 10
-106.4218531558134
 20
-61.90206131398169
 10
-106.7367076298118
 20
-61.8423070745985
 10
-107.0468687631676
 20
-61.76738533192206
 10
-107.1114308149154
 20
-61.75181717759945
 10
-107.1751915646032
 20
-61.73384511709548
 10
-107.2392957294603
 20
-61.7168460662362
 10
-107.5447635221747
 20
-61.6359145581038
 10
-107.8465682197545
 20
-61.54347864181475
 10
-108.1405888401743
 20
-61.43186871193042
 10
-108.1535241448689
 20
-61.42694642784374
 10
-108.1669745723155
 20
-61.42334056856978
 10
-108.1799098770102
 20
-61.41836104862178
 10
-108.4828020559592
 20
-61.30177159878814
 10
-108.7765937329323
 20
-61.16434829537527
 10
-109.0647190596188
 20
-61.01662253689834
 10
-109.1253890727866
 20
-60.98548622825376
 10
-109.1860018500931
 20
-60.95446439133251
 10
-109.2459277970616
 20
-60.92206889373527
 10
-109.5255249803881
 20
-60.77073727598374
 10
-109.7983683320586
 20
-60.60727165559891
 10
-110.0607947569411
 20
-60.42760828641545
 10
-110.100516444809
 20
-60.40042125221351
 10
-110.1382921133842
 20
-60.37042966079763
 10
-110.1776131502214
 20
-60.34261303211838
 10
-110.4174314098194
 20
-60.17279423110956
 10
-110.6488932336407
 20
-59.99107037091278
 10
-110.8717696782413
 20
-59.79847169703472
 10
-110.9121781964452
 20
-59.7635578215328
 10
-110.9540748470484
 20
-59.73058996532089
 10
-110.9938537707757
 20
-59.69493202361902
 10
-111.2308102373003
 20
-59.48281592097699
 10
-111.4555754653296
 20
-59.25650532468832
 10
-111.6700382382923
 20
-59.01949162230239
 10
-111.7158269274761
 20
-58.96889512075519
 10
-111.7600702483993
 20
-58.91669601508667
 10
-111.8047714562145
 20
-58.86501203217082
 10
-112.0198065877912
 20
-58.61626497818159
 10
-112.2265997553159
 20
-58.3595049035857
 10
-112.414848503722
 20
-58.08637537260652
 10
-112.414848503722
 20
-58.08637537260652
 10
-113.9636509153507
 20
-58.47489240032801
 10
-113.9636509153507
 20
-58.47489240032801
 10
-113.9636509153507
 20
-58.47489240032801
 10
-114.4941701154011
 20
-58.60796577826824
 10
-114.4941701154011
 20
-58.60796577826824
 10
-114.4941701154011
 20
-58.60796577826824
 10
-116.2802724087224
 20
-51.4877101385264
 10
-116.2802724087224
 20
-51.4877101385264
 10
-116.2802724087224
 20
-51.4877101385264
 10
-117.2397743905601
 20
-47.66275198759127
 10
-117.2397743905601
 20
-47.66275198759127
 10
-117.2397743905601
 20
-47.66275198759127
 10
-117.2397743905601
 20
-47.66269475172994
 10
-117.2397743905601
 20
-47.66269475172994
 10
-117.2397743905601
 20
-47.66269475172994
 10
-119.7410960089266
 20
-37.69129190826137
 10
-119.7410960089266
 20
-37.69129190826137
 10
-119.7410960089266
 20
-37.69129190826137
 10
-119.7411532447879
 20
-37.69129190826137
 10
-119.7411532447879
 20
-37.69129190826137
 10
-119.7411532447879
 20
-37.69129190826137
 10
-120.3394969406928
 20
-35.30593014525127
 10
-120.3394969406928
 20
-35.30593014525127
 10
-120.3394969406928
 20
-35.30593014525127
 10
-121.2989989225299
 20
-31.4809147584516
 10
-121.2989989225299
 20
-31.4809147584516
 10
-121.2989989225299
 20
-31.4809147584516
 10
-121.2989989225299
 20
-31.48085752259603
 10
-121.2989989225299
 20
-31.48085752259603
 10
-121.2989989225299
 20
-31.48085752259603
 10
-123.1710122439322
 20
-24.01821695948588
 10
-123.1710122439322
 20
-24.01821695948588
 10
-123.1710122439322
 20
-24.01821695948588
 10
-123.9409490525506
 20
-20.9488294159359
 10
-123.9409490525506
 20
-20.9488294159359
 10
-123.9409490525506
 20
-20.9488294159359
 10
-117.5643589610098
 20
-19.34925879517475
 10
-117.5643589610098
 20
-19.34925879517475
 10
-117.5643589610098
 20
-19.34925879517475
 10
-117.8791561991449
 20
-18.09436253224381
 10
-117.8791561991449
 20
-18.09436253224381
 10
-118.5737706140581
 20
-18.18479519337638
 10
-119.2627759145447
 20
-18.25158944372862
 10
-119.9453135626846
 20
-18.29657683084859
 10
-120.1734557065413
 20
-18.31162986241466
 10
-120.3960459718333
 20
-18.30997002243199
 10
-120.6226427474299
 20
-18.32004353405261
 10
-121.0742336945025
 20
-18.34007608557375
 10
-121.5271983022485
 20
-18.36388620394773
 10
-121.9721498893878
 20
-18.36440132670556
 10
-122.5929872788527
 20
-18.36514539290296
 10
-123.2060405911575
 20
-18.34574243586039
 10
-123.8111953545776
 20
-18.30928319209977
 10
-123.8916117399554
 20
-18.30441814387508
 10
-123.9693952757065
 20
-18.29428739638927
 10
-124.0494682459156
 20
-18.28879275368728
 10
-124.144365304248
 20
-18.28232510133741
 10
-124.237201871567
 20
-18.27190817455517
 10
-124.3316982788688
 20
-18.26446751255548
 10
-124.7599942303181
 20
-18.23087006187526
 10
-125.1863441624781
 20
-18.19355228018622
 10
-125.6050817250602
 20
-18.14158211796818
 10
-125.8264700372622
 20
-18.11405166859243
 10
-126.0429360653749
 20
-18.07810754757872
 10
-126.2614625845042
 20
-18.0455403424026
 10
-126.6252537200658
 20
-17.99139521744663
 10
-126.9869843646147
 20
-17.93393041251569
 10
-127.342247356817
 20
-17.86593420908369
 10
-127.5711908027336
 20
-17.82209153918857
 10
-127.7965856252396
 20
-17.77298317004131
 10
-128.0218087401603
 20
-17.72347414985762
 10
-128.3585845491039
 20
-17.64952541682201
 10
-128.6914110836049
 20
-17.56991033350875
 10
-129.0193153340199
 20
-17.48348418267181
 10
-129.2409898255299
 20
-17.42498913224704
 10
-129.4612334205013
 20
-17.36471977010153
 10
-129.6786152223993
 20
-17.30067284111024
 10
-130.0038293873243
 20
-17.20486000899579
 10
-130.3222324847333
 20
-17.10057626937819
 10
-130.6373159021764
 20
-16.99240049118509
 10
-130.8409038614584
 20
-16.92245826845473
 10
-131.0458082455551
 20
-16.85417588570706
 10
-131.2449890435025
 20
-16.77919690717634
 10
-131.5746103697603
 20
-16.6550523236229
 10
-131.8937575333686
 20
-16.51951780364127
 10
-132.2106724983803
 20
-16.38163661333448
 10
-132.3801478842204
 20
-16.30791682374936
 10
-132.5543738465633
 20
-16.23906208239728
 10
-132.720071665546
 20
-16.16145025422702
 10
-133.1299376695975
 20
-15.96948117482817
 10
-133.5257808875883
 20
-15.7637182528082
 10
-133.9112071787905
 20
-15.54856864951202
 10
-133.9719916636816
 20
-15.51462778365029
 10
-134.0377556685214
 20
-15.48526578670785
 10
-134.0979105589346
 20
-15.4507525622366
 10
-134.5377109185406
 20
-15.19851412070057
 10
-134.958108321106
 20
-14.92910492071548
 10
-135.3625941541801
 20
-14.64704659534566
 10
-135.4917754935391
 20
-14.55695734937599
 10
-135.61019649094
 20
-14.45856890349681
 10
-135.7356574993023
 20
-14.36550339273432
 10
-136.0046660482548
 20
-14.16586470789491
 10
-136.2704693889647
 20
-13.96387935273035
 10
-136.5214486415506
 20
-13.75079024044107
 10
-136.6635080497428
 20
-13.63019428030411
 10
-136.7961235407898
 20
-13.5029589602384
 10
-136.9321731835247
 20
-13.37812754635275
 10
-137.1498411647314
 20
-13.17837438979323
 10
-137.3633309280494
 20
-12.97581667601785
 10
-137.5652018114861
 20
-12.76541764921534
 10
-137.6976455949491
 20
-12.62742198718716
 10
-137.8239079053727
 20
-12.48547705071891
 10
-137.9493116778736
 20
-12.34295975563856
 10
-138.1363584731871
 20
-12.13038576610582
 10
-138.3155639554792
 20
-11.91294672835031
 10
-138.4864702378567
 20
-11.69052817063974
 10
-138.6010564325377
 20
-11.54137151562165
 10
-138.71375384379
 20
-11.39112737923427
 10
-138.8209566123404
 20
-11.23762079875123
 10
-138.9837926382498
 20
-11.00427019150123
 10
-139.1340367746321
 20
-10.76382233742279
 10
-139.2790724476203
 20
-10.52062716200394
 10
-139.3704781184034
 20
-10.36729228909401
 10
-139.4649745257051
 20
-10.21567449204284
 10
-139.5491684779408
 20
-10.05850481642322
 10
-139.6945475660978
 20
-9.786920653700843
 10
-139.8214967068587
 20
-9.506007045555236
 10
-139.9445538090396
 20
-9.223204653987378
 10
-140.0050521146241
 20
-9.084235982319647
 10
-140.0739068559826
 20
-8.94944552853477
 10
-140.1288532830031
 20
-8.807786771372571
 10
-140.2950089888773
 20
-8.379147404751321
 10
-140.4402736053115
 20
-7.940606234105012
 10
-140.5538295544865
 20
-7.488385692558344
 10
-140.5540012620711
 20
-7.487698862215863
 10
-140.5542874413785
 20
-7.48712650360376
 10
-140.5544591489625
 20
-7.486439673261279
 10
-140.6208527482783
 20
-7.221838285647235
 10
-140.6770583642521
 20
-6.956092180796793
 10
-140.723533883772
 20
-6.689602009750232
 10
-140.7718981867231
 20
-6.578163787447985
 10
-140.8109902801124
 20
-6.463749300354205
 10
-140.8405239846363
 20
-6.346186840873324
 10
-140.8439009004642
 20
-6.332564705838795
 10
-140.8428706549569
 20
-6.318198504607504
 10
-140.8460758631996
 20
-6.304576369581958
 10
-140.846877165259
 20
-6.30423295441136
 10
-140.8478501749056
 20
-6.304004010959588
 10
-140.8487087128276
 20
-6.303660595797974
 10
-140.8627887347522
 20
-6.241731393671074
 10
-140.8626170271662
 20
-6.177569992958385
 10
-140.8711451705275
 20
-6.114782252912048
 10
-140.8826495786854
 20
-6.028699517247627
 10
-140.9005644033274
 20
-5.943704262951206
 10
-140.9018808281414
 20
-5.855904451439568
 10
-140.9021097715874
 20
-5.844400043288685
 10
-140.8992479785141
 20
-5.832494984101374
 10
-140.8993052143754
 20
-5.820990575940223
 10
-140.8999920447134
 20
-5.676985148463783
 10
-140.8909487785994
 20
-5.531434352716441
 10
-140.8669097167782
 20
-5.383307943211427
 10
-140.8417259377269
 20
-5.229400711690035
 10
-140.7868367465678
 20
-5.071143554703057
 10
-140.7344086974526
 20
-4.913287048739674
 10
-140.5677951046871
 20
-4.411557487009957
 10
-140.2813296179846
 20
-3.893401233039476
 10
-139.8556092803019
 20
-3.361680079900296
 10
-139.714064994863
 20
-3.184878503787624
 10
-139.5546631206441
 20
-3.006588795288489
 10
-139.3821542341447
 20
-2.827326077129914
 10
-139.2095881117852
 20
-2.648063358981605
 10
-139.0239149771471
 20
-2.467884867039686
 10
-138.8295992274243
 20
-2.287191252351495
 10
-138.5918986947017
 20
-2.066146355316255
 10
-138.3360543938885
 20
-1.84441462794816
 10
-138.0610360794813
 20
-1.62176712679608
 10
-137.3041490472796
 20
-1.00894275793664
 10
-136.4247772715116
 20
-0.3923980580779972
 10
-135.4088979661167
 20
0.2184802914850203
 10
-134.6134911991404
 20
0.696743150008787
 10
-133.7440212274077
 20
1.171285677535275
 10
-132.8087300149765
 20
1.636956646530532
 10
-131.873438802544
 20
2.102684851381995
 10
-130.8723263494103
 20
2.559655969431963
 10
-129.8136918554908
 20
3.002833244872369
 10
-128.0428143013222
 20
3.74415212275147
 10
-126.1035488426814
 20
4.443230934851005
 10
-124.0494682459156
 20
5.084158111698942
 10
-123.6476152624701
 20
5.209561884205033
 10
-123.2484523645127
 20
5.336339317378118
 10
-122.8375561149546
 20
5.456820805796253
 10
-122.8375561149546
 20
5.456820805796253
 10
-124.0494682459156
 20
12.70728803040111
 10
-124.0494682459156
 20
12.70728803040111
 10
-124.0494682459156
 20
12.70728803040111
 10
-124.8276470185866
 20
17.36285300311857
 10
-124.8276470185866
 20
17.36285300311857
 10
-125.1524032966209
 20
17.46198551520542
 10
-125.4628506092833
 20
17.60101142273641
 10
-125.7513193511398
 20
17.77592421541721
 10
-126.11196251432
 20
17.99456520626404
 10
-126.438321396475
 20
18.26918286964186
 10
-126.7155719094802
 20
18.59193589252033
 10
-126.7155719094802
 20
18.59193589252033
 10
-127.3853459605102
 20
19.69630183976876
 10
-127.3853459605102
 20
19.69630183976876
 10
-127.4510527294887
 20
19.86062599807303
 10
-127.5065715151238
 20
20.03136057287097
 10
-127.550872071909
 20
20.20804767725327
 10
-127.6181242091455
 20
20.47619768828122
 10
-127.656643943922
 20
20.74486282206827
 10
-127.668320059664
 20
21.01072339863883
 10
-127.6916722911466
 20
21.54244455177929
 10
-127.6077072823575
 20
22.06306194779439
 10
-127.4320504234774
 20
22.54641879798435
 10
-127.344193376107
 20
22.78812584101803
 10
-127.2335564558673
 20
23.02050343861821
 10
-127.1018567386031
 20
23.24034638256405
 10
-126.9071403378503
 20
23.5654460757664
 10
-126.6530131128831
 20
23.85008001490094
 10
-126.3729008068039
 20
24.10970188257147
 10
-126.1341127927126
 20
24.33103295891275
 10
-125.8699692919854
 20
24.52798155825641
 10
-125.5809854273763
 20
24.69087482002914
 10
-125.2920015627672
 20
24.85371084593605
 10
-124.9781773342781
 20
24.98249153427138
 10
-124.6401423363812
 20
25.06725784511603
 10
-124.4429075577237
 20
25.11670962943453
 10
-124.2459017225123
 20
25.14572821120445
 10
-124.0494682459156
 20
25.1648449889416
 10
-124.0055111042991
 20
25.16913767855419
 10
-123.9617829061292
 20
25.16999621647235
 10
-123.917940236236
 20
25.17285800954442
 10
-123.8715791884375
 20
25.17583427434557
 10
-123.8252181406396
 20
25.18006972809362
 10
-123.7790288004257
 20
25.18138615290312
 10
-123.7403945939278
 20
25.18253087013759
 10
-123.701245264676
 20
25.18854063559804
 10
-123.6627827657614
 20
25.18854063559804
 10
-123.5033236556806
 20
25.18854063559804
 10
-123.3473559331491
 20
25.16770678201431
 10
-123.1911592671728
 20
25.14893341944775
 10
-123.137243085659
 20
25.14246576709724
 10
-123.0818387717465
 20
25.14389666363776
 10
-123.0284377129873
 20
25.13525404855895
 10
-122.7897069347574
 20
25.09661984205911
 10
-122.5564707992294
 20
25.0361215364721
 10
-122.3310187408628
 20
24.95610580212112
 10
-122.272237511123
 20
24.93527194854766
 10
-122.2178634427184
 20
24.90470799851582
 10
-122.1602269302086
 20
24.88118405944661
 10
-121.9963606587938
 20
24.81433257323946
 10
-121.8352417087289
 20
24.74124237813035
 10
-121.6819068358261
 20
24.65361427420465
 10
-121.6069278572883
 20
24.6107446139587
 10
-121.5368711628385
 20
24.56043429172141
 10
-121.4648112132348
 20
24.51287129082644
 10
-121.3366028835211
 20
24.42816221583735
 10
-121.2118859413582
 20
24.33853085676801
 10
-121.0939800667118
 20
24.23951281640127
 10
-121.0237516646754
 20
24.18050264321868
 10
-120.9563850557149
 20
24.11817279006498
 10
-120.8902203998451
 20
24.05435480452354
 10
-120.7807854326968
 20
23.94881187595136
 10
-120.6783332406485
 20
23.83599999297377
 10
-120.5810895119967
 20
23.71786517488208
 10
-120.5233957636249
 20
23.64780848043033
 10
-120.4651296566391
 20
23.5783813804578
 10
-120.4120720130479
 20
23.50408923225995
 10
-120.3160874733468
 20
23.36969942950187
 10
-120.2323514080031
 20
23.22546505857494
 10
-120.152850796408
 20
23.07808271526861
 10
-120.1150751278321
 20
23.00808325668334
 10
-120.0720909958616
 20
22.94197583667487
 10
-120.038321837589
 20
22.86917182087245
 10
-119.9335802110813
 20
22.64331911146808
 10
-119.8441777954509
 20
22.40745012631791
 10
-119.7813328195465
 20
22.15704323234023
 10
-119.6926744701148
 20
21.80366902357435
 10
-119.6546126222309
 20
21.45006587134965
 10
-119.6623394635321
 20
21.10333102250933
 10
-119.6661742662495
 20
20.92996359808981
 10
-119.6814562412648
 20
20.75831324951686
 10
-119.707613029962
 20
20.58929575056485
 10
-119.7598693714925
 20
20.25131798852731
 10
-119.8555677318862
 20
19.92369991742478
 10
-119.9899002987772
 20
19.61388219923963
 10
-120.1914277670439
 20
19.14906976816189
 10
-120.479896508901
 20
18.72409349668492
 10
-120.8392232472679
 20
18.36310691833405
 10
-120.8392232472679
 20
18.36310691833405
 10
-116.9740855215736
 20
6.927667974086611
 10
-116.9740855215736
 20
6.927667974086611
 10
-116.3767148353154
 20
7.052728331411837
 10
-115.7860407448492
 20
7.167142818515243
 10
-115.200460646055
 20
7.274746238095609
 10
-115.0110671804202
 20
7.309545641876127
 10
-114.8251078664741
 20
7.339937884323302
 10
-114.637088061516
 20
7.372905740535208
 10
-114.2413020793871
 20
7.442332840508377
 10
-113.8471187013784
 20
7.509642213608167
 10
-113.4579148433189
 20
7.570999057113337
 10
-113.2433948344955
 20
7.60482545124404
 10
-113.0314504394381
 20
7.635790052304601
 10
-112.8190481574881
 20
7.667155304397742
 10
-112.4597786549832
 20
7.7202701838509
 10
-112.1031992379676
 20
7.770466034367443
 10
-111.7503973878093
 20
7.816598138721887
 10
-111.5363352658773
 20
7.844586474980006
 10
-111.323188917728
 20
7.871716273328313
 10
-111.1117024095613
 20
7.897128995818493
 10
-110.7582709649283
 20
7.939598005040205
 10
-110.4095900967961
 20
7.977602617062103
 10
-110.0637137858778
 20
8.012974379452797
 10
-109.8686539699557
 20
8.032892459253828
 10
-109.6723922009443
 20
8.054069727997891
 10
-109.4798507629269
 20
8.071812845059069
 10
-109.0923639807127
 20
8.10741355089191
 10
-108.7125468039365
 20
8.136546604383861
 10
-108.3358203636797
 20
8.163104044111081
 10
-108.196336569256
 20
8.172948612290202
 10
-108.0533041514185
 20
8.185769445260858
 10
-107.9153657252529
 20
8.194354824484753
 10
-107.4053941994738
 20
8.226120727607264
 10
-106.9053244777293
 20
8.249930845982531
 10
-106.4177321737875
 20
8.26475493409683
 10
-106.3214614547804
 20
8.267673963035367
 10
-106.2303419633047
 20
8.267044368556149
 10
-106.1349870180803
 20
8.269333803016111
 10
-105.805079512514
 20
8.277175116041963
 10
-105.4750575352243
 20
8.285016429069099
 10
-105.1565399660926
 20
8.285016429069099
 10
-105.1100644465714
 20
8.285016429069099
 10
-105.0681105601062
 20
8.282097400131203
 10
-105.0219212198943
 20
8.281925692545904
 10
-104.5913930698463
 20
8.280380324283344
 10
-104.1758034796455
 20
8.269104859575248
 10
-103.7678262590214
 20
8.253136054225194
 10
-103.6666332559264
 20
8.249186779774861
 10
-103.5589153646221
 20
8.249301251505238
 10
-103.4591532580644
 20
8.244436203280546
 10
-102.9569085735832
 20
8.219996490427989
 10
-102.474353025452
 20
8.183708954242399
 10
-102.0106853116081
 20
8.13694725542029
 10
-101.8837361708478
 20
8.124183658303914
 10
-101.7676618437681
 20
8.105467531604473
 10
-101.6438034395272
 20
8.091044094516977
 10
-101.3146400001595
 20
8.052638831458008
 10
-100.9906850241865
 20
8.011371775337241
 10
-100.6837863349354
 20
7.961233160675619
 10
-100.5293639806652
 20
7.93599214576047
 10
-100.3852440814596
 20
7.905485431592543
 10
-100.2366597850594
 20
7.877325387750407
 10
-99.97783921945023
 20
7.828217018603789
 10
-99.72388370206701
 20
7.776704743267472
 10
-99.48349308385374
 20
7.718610343870154
 10
-99.33502325917748
 20
7.682723458720993
 10
-99.19353620960059
 20
7.64363136532917
 10
-99.05233533933037
 20
7.604367564351405
 10
-98.83180556505232
 20
7.543067956711423
 10
-98.61980393413297
 20
7.477819074620466
 10
-98.41758963552628
 20
7.408220267061998
 10
-98.28674845618465
 20
7.363232879940745
 10
-98.15831118302568
 20
7.317158011452132
 10
-98.03542578842877
 20
7.268679236782805
 10
-97.84265540696669
 20
7.192612776873179
 10
-97.66367886812187
 20
7.110879966675628
 10
-97.49094103817707
 20
7.026399835138313
 10
-97.38522640202473
 20
6.974715852225681
 10
-97.27636379349107
 20
6.924233822392176
 10
-97.17843323450003
 20
6.869401867103352
 10
-97.00472239491055
 20
6.772158138448379
 10
-96.85121581442366
 20
6.666901389183539
 10
-96.70263151802345
 20
6.559755856493882
 10
-96.63125839875963
 20
6.508300817022112
 10
-96.55078477751859
 20
6.460394400966813
 10
-96.48536418784747
 20
6.406707162899628
 10
-96.28412289888736
 20
6.241467230813936
 10
-96.10577595451792
 20
6.067527447772046
 10
-95.96285800840433
 20
5.880881303489236
 10
-95.86446956252194
 20
5.752501266190969
 10
-95.77964601580955
 20
5.61937065239582
 10
-95.70890249102109
 20
5.48137499036892
 10
-95.66597559491059
 20
5.397925104324793
 10
-95.63936091932268
 20
5.308980575588306
 10
-95.60742330861808
 20
5.221753122699038
 10
-95.58784864399214
 20
5.167779705318101
 10
-95.55980307186692
 20
5.116668081017571
 10
-95.54463556857495
 20
5.061206531250814
 10
-95.54515069132829
 20
5.060634172629086
 10
-95.54583752166626
 20
5.060004578152436
 10
-95.5463526444196
 20
5.059432219539691
 10
-95.54268954928494
 20
5.045752848648956
 10
-95.53479100040096
 20
5.033447138425215
 10
-95.53129961285032
 20
5.019653295814371
 10
-95.50182314418906
 20
4.902090836334132
 10
-95.48247742300848
 20
4.782696829286564
 10
-95.4723466755265
 20
4.661700218120873
 10
-95.3876948363994
 20
4.404768435937114
 10
-95.31168561235496
 20
4.144001851043026
 10
-95.24529201303916
 20
3.879400463427699
 10
-95.00621781963927
 20
2.926251662204278
 10
-94.8970117959382
 20
1.961941868002499
 10
-94.90891685512551
 20
0.9962584131253839
 10
-94.91635751711687
 20
0.3927062538323206
 10
-94.97113223655333
 20
-0.2113610282172824
 10
-95.07106605069507
 20
-0.813482290978805
 10
-95.22090953604857
 20
-1.71672142099109
 10
-95.47240391138913
 20
-2.615496153797145
 10
-95.81828022230808
 20
-3.501907940522611
 10
-96.16409929736443
 20
-4.38831972725642
 10
-96.6043003080024
 20
-5.262196860317925
 10
-97.13161429981145
 20
-6.115354611525435
 10
-97.69407111056583
 20
-7.02546204491504
 10
-98.35566043340577
 20
-7.911931067505054
 10
-99.10756794565884
 20
-8.764917111127264
 10
-100.9872508724985
 20
-10.89752530983838
 10
-103.4313938652464
 20
-12.82087919899108
 10
-106.3025163846304
 20
-14.37969788638031
 10
-107.4509539452104
 20
-15.00322536133702
 10
-108.667731124398
 20
-15.56842949343759
 10
-109.9439763636622
 20
-16.06540847866208
 10
-109.9439763636622
 20
-16.06540847866208
 10
-109.6201358594131
 20
-17.35642057019267
 10
-109.6201358594131
 20
-17.35642057019267
 10
-109.6201358594131
 20
-17.35642057019267
 10
-103.2429161733957
 20
-15.75667824184558
 10
-103.2429161733957
 20
-15.75667824184558
 10
-103.2429161733957
 20
-15.75667824184558
 10
-102.4241571749348
 20
-19.02055324270294
 10
-102.4241571749348
 20
-19.02055324270294
 10
-102.4241571749348
 20
-19.02055324270294
 10
-101.5115313636482
 20
-22.65886524935076
 10
-101.5115313636482
 20
-22.65886524935076
 10
-101.5115313636482
 20
-22.65886524935076
 10
-99.31544859455026
 20
-31.413204734325
 10
-99.31544859455026
 20
-31.413204734325
 10
-99.31544859455026
 20
-31.413204734325
 10
-94.61088972440244
 20
-50.16762222936906
 10
-94.61088972440244
 20
-50.16762222936906
 10
-94.61088972440244
 20
-50.16762222936906
 10
-93.79608000038485
 20
-53.41587184003861
 10
-93.79608000038485
 20
-53.41587184003861
 10
-93.79608000038485
 20
-53.41587184003861
 10
-95.8760312065393
 20
-53.93763395328434
 10
-95.8760312065393
 20
-53.93763395328434
 97
        0
 97
        1
330
7B
 92
        1
 93
        1
 72
     4
 94
        3
 73
     0
 74
     0
 95
       29
 96
       25
 40
0.0
 40
0.0
 40
0.0
 40
0.0
 40
1.0
 40
1.0
 40
1.0
 40
2.0
 40
2.0
 40
2.0
 40
3.0
 40
3.0
 40
3.0
 40
4.0
 40
4.0
 40
4.0
 40
5.0
 40
5.0
 40
5.0
 40
6.0
 40
6.0
 40
6.0
 40
7.0
 40
7.0
 40
7.0
 40
8.0
 40
8.0
 40
8.0
 40
8.0
 10
-165.6739050915274
 20
-38.54731145254479
 10
-165.6739050915274
 20
-38.54731145254479
 10
-125.8966412034353
 20
-28.56915477742349
 10
-125.8966412034353
 20
-28.56915477742349
 10
-125.8966412034353
 20
-28.56915477742349
 10
-124.0494682459156
 20
-35.93272006431134
 10
-124.0494682459156
 20
-35.93272006431134
 10
-124.0494682459156
 20
-35.93272006431134
 10
-123.6083514614943
 20
-37.69129190826137
 10
-123.6083514614943
 20
-37.69129190826137
 10
-123.6083514614943
 20
-37.69129190826137
 10
-119.4667072889954
 20
-54.20149127470226
 10
-119.4667072889954
 20
-54.20149127470226
 10
-119.4667072889954
 20
-54.20149127470226
 10
-119.4667072889954
 20
-54.20149127470226
 10
-119.4667072889954
 20
-54.20149127470226
 10
-119.4667072889954
 20
-54.20149127470226
 10
-119.0546663222054
 20
-56.09262137383854
 10
-119.0546663222054
 20
-56.09262137383854
 10
-119.0546663222054
 20
-56.09262137383854
 10
-158.7732634522848
 20
-66.0560684325618
 10
-158.7732634522848
 20
-66.0560684325618
 10
-158.7732634522848
 20
-66.0560684325618
 10
-165.6739050915274
 20
-38.54731145254479
 10
-165.6739050915274
 20
-38.54731145254479
 97
        0
 97
        1
330
7C
 92
        1
 93
        1
 72
     4
 94
        3
 73
     0
 74
     0
 95
       77
 96
       73
 40
0.0
 40
0.0
 40
0.0
 40
0.0
 40
1.0
 40
1.0
 40
1.0
 40
2.0
 40
2.0
 40
2.0
 40
3.0
 40
3.0
 40
3.0
 40
4.0
 40
4.0
 40
4.0
 40
5.0
 40
5.0
 40
5.0
 40
6.0
 40
6.0
 40
6.0
 40
7.0
 40
7.0
 40
7.0
 40
8.0
 40
8.0
 40
8.0
 40
9.0
 40
9.0
 40
9.0
 40
10.0
 40
10.0
 40
10.0
 40
11.0
 40
11.0
 40
11.0
 40
12.0
 40
12.0
 40
12.0
 40
13.0
 40
13.0
 40
13.0
 40
14.0
 40
14.0
 40
14.0
 40
15.0
 40
15.0
 40
15.0
 40
16.0
 40
16.0
 40
16.0
 40
17.0
 40
17.0
 40
17.0
 40
18.0
 40
18.0
 40
18.0
 40
19.0
 40
19.0
 40
19.0
 40
20.0
 40
20.0
 40
20.0
 40
21.0
 40
21.0
 40
21.0
 40
22.0
 40
22.0
 40
22.0
 40
23.0
 40
23.0
 40
23.0
 40
24.0
 40
24.0
 40
24.0
 40
24.0
 10
-124.0494682459156
 20
44.7744807262097
 10
-124.0494682459156
 20
44.7744807262097
 10
-114.0255801174699
 20
44.7744807262097
 10
-114.0255801174699
 20
44.7744807262097
 10
-105.5363571428681
 20
44.7744807262097
 10
-99.21391217628718
 20
41.03955458537585
 10
-94.69702969593013
 20
33.35564018178832
 10
-89.9413592014792
 20
25.26981555889269
 10
-87.53001235735913
 20
15.45993231652151
 10
-87.53001235735913
 20
4.196830551188206
 10
-87.53001235735913
 20
-3.4567488458167
 10
-88.44601508447366
 20
-10.19232226055893
 10
-90.25094797622157
 20
-15.96690556106279
 10
-90.25094797622157
 20
-15.96690556106279
 10
-98.78590240414451
 20
-18.10792743141315
 10
-98.78590240414451
 20
-18.10792743141315
 10
-98.78590240414451
 20
-18.10792743141315
 10
-99.60466140260535
 20
-14.84405243055579
 10
-99.60466140260535
 20
-14.84405243055579
 10
-99.60466140260535
 20
-14.84405243055579
 10
-99.69709731889507
 20
-14.475396246774
 10
-99.69709731889507
 20
-14.475396246774
 10
-93.3836383825648
 20
-9.374250092437348
 10
-90.13121055400596
 20
-2.45506403406839
 10
-91.45324448245331
 20
4.111606353443223
 10
-91.45324448245331
 20
4.111606353443223
 10
-91.41020311462206
 20
4.163290336364839
 10
-91.41020311462206
 20
4.163290336364839
 10
-91.41020311462206
 20
4.163290336364839
 10
-91.88268515113266
 20
5.890554164082416
 10
-91.88268515113266
 20
5.890554164082416
 10
-91.88600483109929
 20
5.904176299116946
 10
-91.88938174692598
 20
5.91774119828757
 10
-91.89275866275393
 20
5.931306097455627
 10
-91.89275866275393
 20
5.931306097455627
 10
-91.97025601919575
 20
6.240436985300216
 10
-91.97025601919575
 20
6.240436985300216
 10
-91.97025601919575
 20
6.240436985300216
 10
-92.03281481579351
 20
6.383870054173537
 10
-92.03281481579351
 20
6.383870054173537
 10
-92.05754070795213
 20
6.451408370714188
 10
-92.08180871321939
 20
6.512479034913308
 10
-92.10464582194997
 20
6.567368226067962
 10
-92.15804688070981
 20
6.717841305906469
 10
-92.2427559556989
 20
6.943465071850726
 10
-92.37405502193315
 20
7.198508070601967
 10
-92.54324422846531
 20
7.528930698920354
 10
-92.75060975460467
 20
7.856090883140514
 10
-92.98653597562134
 20
8.163733638587732
 10
-94.95384700638672
 20
10.73247910177663
 10
-99.0489584235037
 20
12.03602584697183
 10
-105.1565399660926
 20
12.03602584697183
 10
-107.9794698901101
 20
12.03602584697183
 10
-111.1486195402165
 20
11.75345239884419
 10
-114.4624614481412
 20
11.21131431891443
 10
-114.4624614481412
 20
11.21131431891443
 10
-116.6896805258831
 20
17.80070734343202
 10
-116.6896805258831
 20
17.80070734343202
 10
-115.8981657974862
 20
19.41332774061496
 10
-115.6899989692868
 20
21.26347696293139
 10
-116.1430780487561
 20
23.06966904362937
 10
-117.0100296425828
 20
26.52568483147281
 10
-120.1022542948608
 20
28.93943558177104
 10
-123.6627255298994
 20
28.93955005350142
 10
-123.6627255298994
 20
28.93955005350142
 10
-123.6627827657614
 20
28.93955005350142
 10
-123.6627827657614
 20
28.93955005350142
 10
-123.791906869259
 20
28.93955005350142
 10
-123.92040137828
 20
28.92209311574693
 10
-124.0494682459156
 20
28.91562546339513
 10
-124.0494682459156
 20
28.91562546339513
 10
-124.0494682459156
 20
44.7744807262097
 10
-124.0494682459156
 20
44.7744807262097
 97
        0
 97
        1
330
7D
 92
        1
 93
        1
 72
     4
 94
        3
 73
     0
 74
     0
 95
       53
 96
       49
 40
0.0
 40
0.0
 40
0.0
 40
0.0
 40
1.0
 40
1.0
 40
1.0
 40
2.0
 40
2.0
 40
2.0
 40
3.0
 40
3.0
 40
3.0
 40
4.0
 40
4.0
 40
4.0
 40
5.0
 40
5.0
 40
5.0
 40
6.0
 40
6.0
 40
6.0
 40
7.0
 40
7.0
 40
7.0
 40
8.0
 40
8.0
 40
8.0
 40
9.0
 40
9.0
 40
9.0
 40
10.0
 40
10.0
 40
10.0
 40
11.0
 40
11.0
 40
11.0
 40
12.0
 40
12.0
 40
12.0
 40
13.0
 40
13.0
 40
13.0
 40
14.0
 40
14.0
 40
14.0
 40
15.0
 40
15.0
 40
15.0
 40
16.0
 40
16.0
 40
16.0
 40
16.0
 10
-91.09483351787103
 20
73.45062033695142
 10
-91.09483351787103
 20
73.45062033695142
 10
-86.1425006033793
 20
68.63788568861498
 10
-86.1425006033793
 20
68.63788568861498
 10
-86.1425006033793
 20
68.63788568861498
 10
-81.85931214544154
 20
74.05463038314547
 10
-81.85931214544154
 20
74.05463038314547
 10
-81.85931214544154
 20
74.05463038314547
 10
-81.76046581266653
 20
67.14981052600972
 10
-81.76046581266653
 20
67.14981052600972
 10
-81.76046581266653
 20
67.14981052600972
 10
-74.9014346447172
 20
67.95151323775508
 10
-74.9014346447172
 20
67.95151323775508
 10
-74.9014346447172
 20
67.95151323775508
 10
-79.71462717995205
 20
62.9990086156787
 10
-79.71462717995205
 20
62.9990086156787
 10
-79.71462717995205
 20
62.9990086156787
 10
-74.29742459852637
 20
58.71564845014731
 10
-74.29742459852637
 20
58.71564845014731
 10
-74.29742459852637
 20
58.71564845014731
 10
-81.20270234255155
 20
58.61708829668282
 10
-81.20270234255155
 20
58.61708829668282
 10
-81.20270234255155
 20
58.61708829668282
 10
-80.40048450805796
 20
51.75834330804724
 10
-80.40048450805796
 20
51.75834330804724
 10
-80.40048450805796
 20
51.75834330804724
 10
-85.35287465841234
 20
56.57107795638368
 10
-85.35287465841234
 20
56.57107795638368
 10
-85.35287465841234
 20
56.57107795638368
 10
-89.63606311634944
 20
51.15421879013309
 10
-89.63606311634944
 20
51.15421879013309
 10
-89.63606311634944
 20
51.15421879013309
 10
-89.7349094491251
 20
58.05915311898959
 10
-89.7349094491251
 20
58.05915311898959
 10
-89.7349094491251
 20
58.05915311898959
 10
-96.59388338121246
 20
57.25745040724358
 10
-96.59388338121246
 20
57.25745040724358
 10
-96.59388338121246
 20
57.25745040724358
 10
-91.78091978942296
 20
62.2093826707053
 10
-91.78091978942296
 20
62.2093826707053
 10
-91.78091978942296
 20
62.2093826707053
 10
-97.19817960670997
 20
66.49257112864241
 10
-97.19817960670997
 20
66.49257112864241
 10
-97.19817960670997
 20
66.49257112864241
 10
-90.29290186268609
 20
66.59130298969284
 10
-90.29290186268609
 20
66.59130298969284
 10
-90.29290186268609
 20
66.59130298969284
 10
-91.09483351787103
 20
73.45062033695142
 10
-91.09483351787103
 20
73.45062033695142
 97
        0
 97
        1
330
7E
 92
        1
 93
        1
 72
     4
 94
        3
 73
     0
 74
     0
 95
       26
 96
       22
 40
0.0
 40
0.0
 40
0.0
 40
0.0
 40
1.0
 40
1.0
 40
1.0
 40
2.0
 40
2.0
 40
2.0
 40
3.0
 40
3.0
 40
3.0
 40
4.0
 40
4.0
 40
4.0
 40
5.0
 40
5.0
 40
5.0
 40
6.0
 40
6.0
 40
6.0
 40
7.0
 40
7.0
 40
7.0
 40
7.0
 10
-50.2795972818515
 20
62.32219455368416
 10
-64.41267684933753
 20
79.18405105305527
 10
-85.86130081593214
 20
87.73434469185676
 10
-114.0255801174699
 20
87.73434469185676
 10
-114.0255801174699
 20
87.73434469185676
 10
-180.0168685630594
 20
87.73434469185676
 10
-180.0168685630594
 20
87.73434469185676
 10
-180.0168685630594
 20
87.73434469185676
 10
-180.0168685630594
 20
-81.12878913795233
 10
-180.0168685630594
 20
-81.12878913795233
 10
-180.0168685630594
 20
-81.12878913795233
 10
-110.9211069908365
 20
-81.12878913795233
 10
-110.9211069908365
 20
-81.12878913795233
 10
-86.87477621514508
 20
-81.12878913795233
 10
-67.01622171630567
 20
-73.13030643967379
 10
-51.90463786097058
 20
-57.35621748771605
 10
-36.82212982326677
 20
-41.61847330779755
 10
-29.17461742757915
 20
-20.94888665180173
 10
-29.17461742757915
 20
4.077436544140639
 10
-29.17461742757915
 20
26.01971981599569
 10
-36.27466880821711
 20
45.61613406925606
 10
-50.2795972818515
 20
62.32219455368416
 97
        0
 97
        1
330
7F
 75
     2
 76
     1
 98
        1
 10
0.0
 20
0.0
450
        0
451
        0
460
0.0
461
0.0
452
        0
462
0.0
453
        0
470

  0
ENDSEC
  0
SECTION
  2
OBJECTS
  0
DICTIONARY
  5
C
330
0
100
AcDbDictionary
281
     1
  3
ACAD_COLOR
350
63
  3
ACAD_DETAILVIEWSTYLE
350
6A
  3
ACAD_GROUP
350
D
  3
ACAD_LAYOUT
350
62
  3
ACAD_MATERIAL
350
10
  3
ACAD_MLEADERSTYLE
350
66
  3
ACAD_MLINESTYLE
350
5F
  3
ACAD_PLOTSETTINGS
350
61
  3
ACAD_PLOTSTYLENAME
350
E
  3
ACAD_SCALELIST
350
42
  3
ACAD_SECTIONVIEWSTYLE
350
68
  3
ACAD_TABLESTYLE
350
64
  3
ACAD_VISUALSTYLE
350
29
  3
ACDB_RECOMPOSE_DATA
350
89
  3
AcDbVariableDictionary
350
81
  0
DICTIONARY
  5
63
102
{ACAD_REACTORS
330
C
102
}
330
C
100
AcDbDictionary
281
     1
  0
DICTIONARY
  5
6A
102
{ACAD_REACTORS
330
C
102
}
330
C
100
AcDbDictionary
281
     1
  3
Imperial24
350
6B
  0
DICTIONARY
  5
D
102
{ACAD_REACTORS
330
C
102
}
330
C
100
AcDbDictionary
281
     1
  0
DICTIONARY
  5
62
102
{ACAD_REACTORS
330
C
102
}
330
C
100
AcDbDictionary
281
     1
  3
Layout1
350
6F
  3
Layout2
350
77
  3
Model
350
73
  0
DICTIONARY
  5
10
102
{ACAD_REACTORS
330
C
102
}
330
C
100
AcDbDictionary
281
     1
  3
ByBlock
350
19
  3
ByLayer
350
11
  3
Global
350
21
  0
DICTIONARY
  5
66
102
{ACAD_REACTORS
330
C
102
}
330
C
100
AcDbDictionary
281
     1
  3
Standard
350
67
  0
DICTIONARY
  5
5F
102
{ACAD_REACTORS
330
C
102
}
330
C
100
AcDbDictionary
281
     1
  3
Standard
350
60
  0
DICTIONARY
  5
61
102
{ACAD_REACTORS
330
C
102
}
330
C
100
AcDbDictionary
281
     1
  0
ACDBDICTIONARYWDFLT
  5
E
102
{ACAD_REACTORS
330
C
102
}
330
C
100
AcDbDictionary
281
     1
  3
Normal
350
F
100
AcDbDictionaryWithDefault
340
F
  0
DICTIONARY
  5
42
102
{ACAD_REACTORS
330
C
102
}
330
C
100
AcDbDictionary
281
     1
  3
A0
350
43
  3
A1
350
44
  3
A2
350
45
  3
A3
350
46
  3
A4
350
47
  3
A5
350
48
  3
A6
350
49
  3
A7
350
4A
  3
A8
350
4B
  3
A9
350
4C
  3
B0
350
4D
  3
B1
350
4E
  3
B2
350
4F
  3
B3
350
50
  3
B4
350
51
  3
B5
350
52
  3
B6
350
53
  0
DICTIONARY
  5
68
102
{ACAD_REACTORS
330
C
102
}
330
C
100
AcDbDictionary
281
     1
  3
Imperial24
350
69
  0
DICTIONARY
  5
64
102
{ACAD_REACTORS
330
C
102
}
330
C
100
AcDbDictionary
281
     1
  3
Standard
350
65
  0
DICTIONARY
  5
29
102
{ACAD_REACTORS
330
C
102
}
330
C
100
AcDbDictionary
281
     1
  3
2dWireframe
350
2F
  3
Basic
350
2E
  3
Brighten
350
35
  3
ColorChange
350
39
  3
Conceptual
350
32
  3
Dim
350
34
  3
EdgeColorOff
350
41
  3
Facepattern
350
38
  3
Flat
350
2A
  3
FlatWithEdges
350
2B
  3
Gouraud
350
2C
  3
GouraudWithEdges
350
2D
  3
Hidden
350
31
  3
JitterOff
350
3F
  3
Linepattern
350
37
  3
OverhangOff
350
40
  3
Realistic
350
33
  3
Shaded
350
3E
  3
Shaded with edges
350
3D
  3
Shades of Gray
350
3A
  3
Sketchy
350
3B
  3
Thicken
350
36
  3
Wireframe
350
30
  3
X-Ray
350
3C
  0
XRECORD
  5
89
102
{ACAD_REACTORS
330
C
102
}
330
C
100
AcDbXrecord
280
     1
 90
        1
330
65
  0
DICTIONARY
  5
81
102
{ACAD_REACTORS
330
C
102
}
330
C
100
AcDbDictionary
281
     1
  3
CANNOSCALE
350
86
  3
CMLEADERSTYLE
350
83
  3
CTABLESTYLE
350
82
  3
CVIEWDETAILSTYLE
350
84
  3
CVIEWSECTIONSTYLE
350
85
  0
ACDBDETAILVIEWSTYLE
  5
6B
102
{ACAD_XDICTIONARY
360
8C
102
}
102
{ACAD_REACTORS
330
6A
102
}
330
6A
100
AcDbModelDocViewStyle
 70
     0
  3
Imperial24
290
     0
100
AcDbDetailViewStyle
 70
     0
 71
     0
 90
        3
 71
     1
340
55
 62
   256
 40
0.24
340
0
 62
   256
 40
0.24
300

 40
0.36
280
     3
 71
     2
340
5D
 90
       25
 62
   256
 71
     3
340
55
 62
   256
 40
0.24
 90
        1
 40
0.75
 90
        1
300
%<\AcVar ViewType \f "%tc1">% %<\AcVar ViewDetailId>%\PSCALE %<\AcVar ViewScale \f "%sn">%
 71
     4
340
5D
 90
       25
 62
   256
340
5D
 90
       25
 62
   256
280
     0
  0
LAYOUT
  5
6F
102
{ACAD_REACTORS
330
62
102
}
330
62
100
AcDbPlotSettings
  1

  2

  4

  6

 40
0.0
 41
0.0
 42
0.0
 43
0.0
 44
0.0
 45
0.0
 46
0.0
 47
0.0
 48
0.0
 49
0.0
140
0.0
141
0.0
142
1.0
143
1.0
 70
   688
 72
     0
 73
     0
 74
     5
  7

 75
    16
147
1.0
 76
     0
 77
     2
 78
   300
148
0.0
149
0.0
100
AcDbLayout
  1
Layout1
 70
     1
 71
     1
 10
0.0
 20
0.0
 11
12.0
 21
9.0
 12
0.0
 22
0.0
 32
0.0
 14
0.0
 24
0.0
 34
0.0
 15
0.0
 25
0.0
 35
0.0
146
0.0
 13
0.0
 23
0.0
 33
0.0
 16
1.0
 26
0.0
 36
0.0
 17
0.0
 27
1.0
 37
0.0
 76
     0
330
6C
  0
LAYOUT
  5
77
102
{ACAD_REACTORS
330
62
102
}
330
62
100
AcDbPlotSettings
  1

  2

  4

  6

 40
0.0
 41
0.0
 42
0.0
 43
0.0
 44
0.0
 45
0.0
 46
0.0
 47
0.0
 48
0.0
 49
0.0
140
0.0
141
0.0
142
1.0
143
1.0
 70
   688
 72
     0
 73
     0
 74
     5
  7

 75
    16
147
1.0
 76
     0
 77
     2
 78
   300
148
0.0
149
0.0
100
AcDbLayout
  1
Layout2
 70
     1
 71
     2
 10
0.0
 20
0.0
 11
12.0
 21
9.0
 12
0.0
 22
0.0
 32
0.0
 14
0.0
 24
0.0
 34
0.0
 15
0.0
 25
0.0
 35
0.0
146
0.0
 13
0.0
 23
0.0
 33
0.0
 16
1.0
 26
0.0
 36
0.0
 17
0.0
 27
1.0
 37
0.0
 76
     0
330
74
  0
LAYOUT
  5
73
102
{ACAD_REACTORS
330
62
102
}
330
62
100
AcDbPlotSettings
  1

  2

  4

  6

 40
0.0
 41
0.0
 42
0.0
 43
0.0
 44
0.0
 45
0.0
 46
0.0
 47
0.0
 48
0.0
 49
0.0
140
0.0
141
0.0
142
1.0
143
1.0
 70
  1712
 72
     0
 73
     0
 74
     0
  7

 75
     0
147
1.0
 76
     0
 77
     2
 78
   300
148
0.0
149
0.0
100
AcDbLayout
  1
Model
 70
     1
 71
     0
 10
0.0
 20
0.0
 11
12.0
 21
9.0
 12
0.0
 22
0.0
 32
0.0
 14
0.0
 24
0.0
 34
0.0
 15
0.0
 25
0.0
 35
0.0
146
0.0
 13
0.0
 23
0.0
 33
0.0
 16
1.0
 26
0.0
 36
0.0
 17
0.0
 27
1.0
 37
0.0
 76
     0
330
70
  0
MATERIAL
  5
19
102
{ACAD_XDICTIONARY
360
1A
102
}
102
{ACAD_REACTORS
330
10
102
}
330
10
100
AcDbMaterial
  1
ByBlock
 72
     0
 43
0.0208333333333333
 43
0.0
 43
0.0
 43
0.0
 43
0.0
 43
0.0208333333333333
 43
0.0
 43
0.0
 43
0.0
 43
0.0
 43
1.0
 43
0.0
 43
0.0
 43
0.0
 43
0.0
 43
1.0
 77
     0
 47
0.0208333333333333
 47
0.0
 47
0.0
 47
0.0
 47
0.0
 47
0.0208333333333333
 47
0.0
 47
0.0
 47
0.0
 47
0.0
 47
1.0
 47
0.0
 47
0.0
 47
0.0
 47
0.0
 47
1.0
171
     0
 49
0.0208333333333333
 49
0.0
 49
0.0
 49
0.0
 49
0.0
 49
0.0208333333333333
 49
0.0
 49
0.0
 49
0.0
 49
0.0
 49
1.0
 49
0.0
 49
0.0
 49
0.0
 49
0.0
 49
1.0
175
     0
142
0.0208333333333333
142
0.0
142
0.0
142
0.0
142
0.0
142
0.0208333333333333
142
0.0
142
0.0
142
0.0
142
0.0
142
1.0
142
0.0
142
0.0
142
0.0
142
0.0
142
1.0
179
     0
144
0.0208333333333333
144
0.0
144
0.0
144
0.0
144
0.0
144
0.0208333333333333
144
0.0
144
0.0
144
0.0
144
0.0
144
1.0
144
0.0
144
0.0
144
0.0
144
0.0
144
1.0
147
0.0208333333333333
147
0.0
147
0.0
147
0.0
147
0.0
147
0.0208333333333333
147
0.0
147
0.0
147
0.0
147
0.0
147
1.0
147
0.0
147
0.0
147
0.0
147
0.0
147
1.0
  0
MATERIAL
  5
11
102
{ACAD_XDICTIONARY
360
12
102
}
102
{ACAD_REACTORS
330
10
102
}
330
10
100
AcDbMaterial
  1
ByLayer
 72
     0
 43
0.0208333333333333
 43
0.0
 43
0.0
 43
0.0
 43
0.0
 43
0.0208333333333333
 43
0.0
 43
0.0
 43
0.0
 43
0.0
 43
1.0
 43
0.0
 43
0.0
 43
0.0
 43
0.0
 43
1.0
 77
     0
 47
0.0208333333333333
 47
0.0
 47
0.0
 47
0.0
 47
0.0
 47
0.0208333333333333
 47
0.0
 47
0.0
 47
0.0
 47
0.0
 47
1.0
 47
0.0
 47
0.0
 47
0.0
 47
0.0
 47
1.0
171
     0
 49
0.0208333333333333
 49
0.0
 49
0.0
 49
0.0
 49
0.0
 49
0.0208333333333333
 49
0.0
 49
0.0
 49
0.0
 49
0.0
 49
1.0
 49
0.0
 49
0.0
 49
0.0
 49
0.0
 49
1.0
175
     0
142
0.0208333333333333
142
0.0
142
0.0
142
0.0
142
0.0
142
0.0208333333333333
142
0.0
142
0.0
142
0.0
142
0.0
142
1.0
142
0.0
142
0.0
142
0.0
142
0.0
142
1.0
179
     0
144
0.0208333333333333
144
0.0
144
0.0
144
0.0
144
0.0
144
0.0208333333333333
144
0.0
144
0.0
144
0.0
144
0.0
144
1.0
144
0.0
144
0.0
144
0.0
144
0.0
144
1.0
147
0.0208333333333333
147
0.0
147
0.0
147
0.0
147
0.0
147
0.0208333333333333
147
0.0
147
0.0
147
0.0
147
0.0
147
1.0
147
0.0
147
0.0
147
0.0
147
0.0
147
1.0
  0
MATERIAL
  5
21
102
{ACAD_XDICTIONARY
360
22
102
}
102
{ACAD_REACTORS
330
10
102
}
330
10
100
AcDbMaterial
  1
Global
 72
     0
 43
0.0208333333333333
 43
0.0
 43
0.0
 43
0.0
 43
0.0
 43
0.0208333333333333
 43
0.0
 43
0.0
 43
0.0
 43
0.0
 43
1.0
 43
0.0
 43
0.0
 43
0.0
 43
0.0
 43
1.0
 77
     0
 47
0.0208333333333333
 47
0.0
 47
0.0
 47
0.0
 47
0.0
 47
0.0208333333333333
 47
0.0
 47
0.0
 47
0.0
 47
0.0
 47
1.0
 47
0.0
 47
0.0
 47
0.0
 47
0.0
 47
1.0
171
     0
 49
0.0208333333333333
 49
0.0
 49
0.0
 49
0.0
 49
0.0
 49
0.0208333333333333
 49
0.0
 49
0.0
 49
0.0
 49
0.0
 49
1.0
 49
0.0
 49
0.0
 49
0.0
 49
0.0
 49
1.0
175
     0
142
0.0208333333333333
142
0.0
142
0.0
142
0.0
142
0.0
142
0.0208333333333333
142
0.0
142
0.0
142
0.0
142
0.0
142
1.0
142
0.0
142
0.0
142
0.0
142
0.0
142
1.0
179
     0
144
0.0208333333333333
144
0.0
144
0.0
144
0.0
144
0.0
144
0.0208333333333333
144
0.0
144
0.0
144
0.0
144
0.0
144
1.0
144
0.0
144
0.0
144
0.0
144
0.0
144
1.0
147
0.0208333333333333
147
0.0
147
0.0
147
0.0
147
0.0
147
0.0208333333333333
147
0.0
147
0.0
147
0.0
147
0.0
147
1.0
147
0.0
147
0.0
147
0.0
147
0.0
147
1.0
  0
MLEADERSTYLE
  5
67
102
{ACAD_REACTORS
330
66
102
}
330
66
100
AcDbMLeaderStyle
179
     2
170
     2
171
     1
172
     0
 90
        2
 40
0.0
 41
0.0
173
     1
 91
-1056964608
340
5B
 92
       -2
290
     1
 42
0.09
291
     1
 43
0.36
  3
Standard
 44
0.18
300

342
55
174
     1
178
     6
175
     1
176
     0
 93
-1056964608
 45
0.18
292
     0
297
     0
 46
0.18
 94
-1056964608
 47
1.0
 49
1.0
140
1.0
293
     1
141
0.0
294
     1
177
     0
142
1.0
295
     0
296
     0
143
0.125
271
     0
272
     9
273
     9
298
     1
  0
MLINESTYLE
  5
60
102
{ACAD_REACTORS
330
5F
102
}
330
5F
100
AcDbMlineStyle
  2
STANDARD
 70
     0
  3

 62
   256
 51
90.0
 52
90.0
 71
     2
 49
0.5
 62
   256
  6
BYLAYER
 49
-0.5
 62
   256
  6
BYLAYER
  0
ACDBPLACEHOLDER
  5
F
102
{ACAD_REACTORS
330
E
102
}
330
E
  0
SCALE
  5
43
102
{ACAD_REACTORS
330
42
102
}
330
42
100
AcDbScale
 70
     0
300
1:1
140
1.0
141
1.0
290
     1
  0
SCALE
  5
44
102
{ACAD_REACTORS
330
42
102
}
330
42
100
AcDbScale
 70
     0
300
1/128" = 1'-0"
140
0.0078125
141
12.0
290
     0
  0
SCALE
  5
45
102
{ACAD_REACTORS
330
42
102
}
330
42
100
AcDbScale
 70
     0
300
1/64" = 1'-0"
140
0.015625
141
12.0
290
     0
  0
SCALE
  5
46
102
{ACAD_REACTORS
330
42
102
}
330
42
100
AcDbScale
 70
     0
300
1/32" = 1'-0"
140
0.03125
141
12.0
290
     0
  0
SCALE
  5
47
102
{ACAD_REACTORS
330
42
102
}
330
42
100
AcDbScale
 70
     0
300
1/16" = 1'-0"
140
0.0625
141
12.0
290
     0
  0
SCALE
  5
48
102
{ACAD_REACTORS
330
42
102
}
330
42
100
AcDbScale
 70
     0
300
3/32" = 1'-0"
140
0.09375
141
12.0
290
     0
  0
SCALE
  5
49
102
{ACAD_REACTORS
330
42
102
}
330
42
100
AcDbScale
 70
     0
300
1/8" = 1'-0"
140
0.125
141
12.0
290
     0
  0
SCALE
  5
4A
102
{ACAD_REACTORS
330
42
102
}
330
42
100
AcDbScale
 70
     0
300
3/16" = 1'-0"
140
0.1875
141
12.0
290
     0
  0
SCALE
  5
4B
102
{ACAD_REACTORS
330
42
102
}
330
42
100
AcDbScale
 70
     0
300
1/4" = 1'-0"
140
0.25
141
12.0
290
     0
  0
SCALE
  5
4C
102
{ACAD_REACTORS
330
42
102
}
330
42
100
AcDbScale
 70
     0
300
3/8" = 1'-0"
140
0.375
141
12.0
290
     0
  0
SCALE
  5
4D
102
{ACAD_REACTORS
330
42
102
}
330
42
100
AcDbScale
 70
     0
300
1/2" = 1'-0"
140
0.5
141
12.0
290
     0
  0
SCALE
  5
4E
102
{ACAD_REACTORS
330
42
102
}
330
42
100
AcDbScale
 70
     0
300
3/4" = 1'-0"
140
0.75
141
12.0
290
     0
  0
SCALE
  5
4F
102
{ACAD_REACTORS
330
42
102
}
330
42
100
AcDbScale
 70
     0
300
1" = 1'-0"
140
1.0
141
12.0
290
     0
  0
SCALE
  5
50
102
{ACAD_REACTORS
330
42
102
}
330
42
100
AcDbScale
 70
     0
300
1-1/2" = 1'-0"
140
1.5
141
12.0
290
     0
  0
SCALE
  5
51
102
{ACAD_REACTORS
330
42
102
}
330
42
100
AcDbScale
 70
     0
300
3" = 1'-0"
140
3.0
141
12.0
290
     0
  0
SCALE
  5
52
102
{ACAD_REACTORS
330
42
102
}
330
42
100
AcDbScale
 70
     0
300
6" = 1'-0"
140
6.0
141
12.0
290
     0
  0
SCALE
  5
53
102
{ACAD_REACTORS
330
42
102
}
330
42
100
AcDbScale
 70
     0
300
1'-0" = 1'-0"
140
12.0
141
12.0
290
     0
  0
ACDBSECTIONVIEWSTYLE
  5
69
102
{ACAD_XDICTIONARY
360
8A
102
}
102
{ACAD_REACTORS
330
68
102
}
330
68
100
AcDbModelDocViewStyle
 70
     0
  3
Imperial24
290
     0
100
AcDbSectionViewStyle
 70
     0
 71
     0
 90
       78
 71
     1
340
55
 62
   256
 40
0.24
340
0
340
0
 62
   256
 40
0.24
300
I, O, Q, S, X, Z
 40
0.48
 90
        3
 40
0.18
 90
        1
 71
     2
340
5D
 90
       25
 62
   256
340
5D
 90
       50
 62
   256
 40
0.24
 40
0.0
 40
0.24
 71
     3
340
55
 62
   256
 40
0.24
 90
        1
 40
0.75
 90
        1
300
%<\AcVar ViewType \f "%tc1">% %<\AcVar ViewSectionStartId>%-%<\AcVar ViewSectionEndId>%\PSCALE %<\AcVar ViewScale \f "%sn">%
 71
     4
 62
   256
 62
   257
300
ANSI31
 40
1.0
 90
        0
290
     0
290
     0
 90
        6
 40
0.0
 40
1.570796326794896
 40
0.2617993877991494
 40
1.308996938995747
 40
-0.2617993877991494
 40
1.832595714594046
  0
TABLESTYLE
  5
65
102
{ACAD_XDICTIONARY
360
87
102
}
102
{ACAD_REACTORS
330
64
102
}
330
64
100
AcDbTableStyle
280
     0
  3
Standard
 70
     0
 71
     0
 40
0.06
 41
0.06
280
     0
281
     0
  7
Standard
140
0.18
170
     2
 62
     0
 63
     7
283
     0
 90
      512
 91
        0
  1

274
    -2
284
     1
 64
     0
275
    -2
285
     1
 65
     0
276
    -2
286
     1
 66
     0
277
    -2
287
     1
 67
     0
278
    -2
288
     1
 68
     0
279
    -2
289
     1
 69
     0
  7
Standard
140
0.25
170
     5
 62
     0
 63
     7
283
     0
 90
      512
 91
        0
  1

274
    -2
284
     1
 64
     0
275
    -2
285
     1
 65
     0
276
    -2
286
     1
 66
     0
277
    -2
287
     1
 67
     0
278
    -2
288
     1
 68
     0
279
    -2
289
     1
 69
     0
  7
Standard
140
0.18
170
     5
 62
     0
 63
     7
283
     0
 90
      512
 91
        0
  1

274
    -2
284
     1
 64
     0
275
    -2
285
     1
 65
     0
276
    -2
286
     1
 66
     0
277
    -2
287
     1
 67
     0
278
    -2
288
     1
 68
     0
279
    -2
289
     1
 69
     0
  0
VISUALSTYLE
  5
2F
102
{ACAD_REACTORS
330
29
102
}
330
29
100
AcDbVisualStyle
  2
2dWireframe
 70
     4
177
     3
291
     0
 70
    58
 90
        0
176
     1
 90
        2
176
     1
 90
        0
176
     1
 90
        0
176
     1
 40
0.6
176
     1
 40
30.0
176
     1
 62
     7
420
 16777215
176
     1
 90
        1
176
     1
 90
        4
176
     1
 62
     7
176
     1
 62
   257
176
     1
 90
        1
176
     1
 90
        1
176
     1
 40
1.0
176
     1
 90
        0
176
     1
 62
   257
176
     1
 40
1.0
176
     1
 90
        1
176
     1
 90
        6
176
     1
 90
        2
176
     1
 62
     7
176
     1
 90
        5
176
     1
 90
        0
176
     1
 90
        0
176
     1
290
     0
176
     1
 90
        1
176
     1
 40
0.0
176
     1
 90
        0
176
     1
290
     1
176
     1
290
     1
176
     1
290
     0
176
     1
290
     0
176
     1
290
     0
176
     1
290
     0
176
     1
290
     0
176
     1
290
     0
176
     1
290
     0
176
     1
 90
       50
176
     1
 40
0.0
176
     1
 40
1.0
176
     1
 90
        0
176
     1
 62
    18
420
        0
176
     1
 90
       50
176
     1
 90
        3
176
     1
 62
     5
420
      255
176
     1
290
     0
176
     1
 90
       50
176
     1
 90
       50
176
     1
 90
       50
176
     1
290
     0
176
     1
 90
       50
176
     1
 62
   256
176
     0
 40
1.0
176
     0
 90
        2
176
     1
  1
strokes_ogs.tif
176
     1
290
     0
176
     1
 40
1.0
176
     1
 40
1.0
176
     1
1001
ACAD
1000
AcDbSavedByObjectVersion
1070
     0
  0
VISUALSTYLE
  5
2E
102
{ACAD_REACTORS
330
29
102
}
330
29
100
AcDbVisualStyle
  2
Basic
 70
     7
177
     3
291
     1
 70
    58
 90
        1
176
     1
 90
        0
176
     1
 90
        1
176
     1
 90
        0
176
     1
 40
0.6
176
     1
 40
30.0
176
     1
 62
     7
420
 16777215
176
     1
 90
        0
176
     1
 90
        4
176
     1
 62
     7
176
     1
 62
   257
176
     1
 90
        1
176
     1
 90
        1
176
     1
 40
1.0
176
     1
 90
        8
176
     1
 62
     7
176
     1
 40
1.0
176
     1
 90
        1
176
     1
 90
        6
176
     1
 90
        2
176
     1
 62
     7
176
     1
 90
        5
176
     1
 90
        0
176
     1
 90
        0
176
     1
290
     0
176
     1
 90
        1
176
     1
 40
0.0
176
     1
 90
        0
176
     1
290
     0
176
     1
290
     1
176
     1
290
     1
176
     1
290
     0
176
     1
290
     0
176
     1
290
     0
176
     1
290
     0
176
     1
290
     0
176
     1
290
     0
176
     1
 90
       50
176
     1
 40
0.0
176
     1
 40
1.0
176
     1
 90
        0
176
     1
 62
    18
420
        0
176
     1
 90
       50
176
     1
 90
        3
176
     1
 62
     5
420
      255
176
     1
290
     0
176
     1
 90
       50
176
     1
 90
       50
176
     1
 90
       50
176
     1
290
     0
176
     1
 90
       50
176
     1
 62
   256
176
     0
 40
1.0
176
     0
 90
        2
176
     1
  1
strokes_ogs.tif
176
     1
290
     0
176
     1
 40
1.0
176
     1
 40
1.0
176
     1
1001
ACAD
1000
AcDbSavedByObjectVersion
1070
     0
  0
VISUALSTYLE
  5
35
102
{ACAD_REACTORS
330
29
102
}
330
29
100
AcDbVisualStyle
  2
Brighten
 70
    12
177
     3
291
     1
 70
    58
 90
        2
176
     1
 90
        2
176
     1
 90
        0
176
     1
 90
        0
176
     1
 40
0.6
176
     1
 40
30.0
176
     1
 62
     7
420
 16777215
176
     1
 90
        1
176
     1
 90
        4
176
     1
 62
     7
176
     1
 62
   257
176
     1
 90
        1
176
     1
 90
        1
176
     1
 40
1.0
176
     1
 90
        8
176
     1
 62
     7
176
     1
 40
1.0
176
     1
 90
        1
176
     1
 90
        6
176
     1
 90
        2
176
     1
 62
     7
176
     1
 90
        5
176
     1
 90
        0
176
     1
 90
        0
176
     1
290
     0
176
     1
 90
        1
176
     1
 40
50.0
176
     1
 90
        0
176
     1
290
     0
176
     1
290
     1
176
     1
290
     1
176
     1
290
     0
176
     1
290
     0
176
     1
290
     0
176
     1
290
     0
176
     1
290
     0
176
     1
290
     0
176
     1
 90
       50
176
     1
 40
0.0
176
     1
 40
1.0
176
     1
 90
        0
176
     1
 62
    18
420
        0
176
     1
 90
       50
176
     1
 90
        3
176
     1
 62
     5
420
      255
176
     1
290
     0
176
     1
 90
       50
176
     1
 90
       50
176
     1
 90
       50
176
     1
290
     0
176
     1
 90
       50
176
     1
 62
   256
176
     0
 40
1.0
176
     0
 90
        2
176
     1
  1
strokes_ogs.tif
176
     1
290
     0
176
     1
 40
1.0
176
     1
 40
1.0
176
     1
1001
ACAD
1000
AcDbSavedByObjectVersion
1070
     0
  0
VISUALSTYLE
  5
39
102
{ACAD_REACTORS
330
29
102
}
330
29
100
AcDbVisualStyle
  2
ColorChange
 70
    16
177
     3
291
     1
 70
    58
 90
        2
176
     1
 90
        2
176
     1
 90
        3
176
     1
 90
        0
176
     1
 40
0.6
176
     1
 40
30.0
176
     1
 62
     8
420
  8421504
176
     1
 90
        1
176
     1
 90
        4
176
     1
 62
     7
176
     1
 62
   257
176
     1
 90
        1
176
     1
 90
        1
176
     1
 40
1.0
176
     1
 90
        8
176
     1
 62
     8
420
  8421504
176
     1
 40
1.0
176
     1
 90
        1
176
     1
 90
        6
176
     1
 90
        2
176
     1
 62
     7
176
     1
 90
        5
176
     1
 90
        0
176
     1
 90
        0
176
     1
290
     0
176
     1
 90
        1
176
     1
 40
0.0
176
     1
 90
        0
176
     1
290
     0
176
     1
290
     1
176
     1
290
     1
176
     1
290
     0
176
     1
290
     0
176
     1
290
     0
176
     1
290
     0
176
     1
290
     0
176
     1
290
     0
176
     1
 90
       50
176
     1
 40
0.0
176
     1
 40
1.0
176
     1
 90
        0
176
     1
 62
    18
420
        0
176
     1
 90
       50
176
     1
 90
        3
176
     1
 62
     5
420
      255
176
     1
290
     0
176
     1
 90
       50
176
     1
 90
       50
176
     1
 90
       50
176
     1
290
     0
176
     1
 90
       50
176
     1
 62
   256
176
     0
 40
1.0
176
     0
 90
        2
176
     1
  1
strokes_ogs.tif
176
     1
290
     0
176
     1
 40
1.0
176
     1
 40
1.0
176
     1
1001
ACAD
1000
AcDbSavedByObjectVersion
1070
     0
  0
VISUALSTYLE
  5
32
102
{ACAD_REACTORS
330
29
102
}
330
29
100
AcDbVisualStyle
  2
Conceptual
 70
     9
177
     3
291
     0
 70
    58
 90
        3
176
     1
 90
        2
176
     1
 90
        0
176
     1
 90
        0
176
     1
 40
0.6
176
     1
 40
30.0
176
     1
 62
     7
420
 16777215
176
     1
 90
        2
176
     1
 90
        2
176
     1
 62
     7
176
     1
 62
   257
176
     1
 90
        1
176
     1
 90
        1
176
     1
 40
179.0
176
     1
 90
        8
176
     1
 62
     7
176
     1
 40
1.0
176
     1
 90
        1
176
     1
 90
        6
176
     1
 90
        2
176
     1
 62
     7
176
     1
 90
        3
176
     1
 90
        0
176
     1
 90
        0
176
     1
290
     0
176
     1
 90
        1
176
     1
 40
0.0
176
     1
 90
        0
176
     1
290
     0
176
     1
290
     1
176
     1
290
     1
176
     1
290
     0
176
     1
290
     0
176
     1
290
     0
176
     1
290
     0
176
     1
290
     0
176
     1
290
     0
176
     1
 90
       50
176
     1
 40
0.0
176
     1
 40
1.0
176
     1
 90
        0
176
     1
 62
    18
420
        0
176
     1
 90
       50
176
     1
 90
        3
176
     1
 62
     5
420
      255
176
     1
290
     0
176
     1
 90
       50
176
     1
 90
       50
176
     1
 90
       50
176
     1
290
     0
176
     1
 90
       50
176
     1
 62
   256
176
     0
 40
1.0
176
     0
 90
        2
176
     1
  1
strokes_ogs.tif
176
     1
290
     0
176
     1
 40
1.0
176
     1
 40
1.0
176
     1
1001
ACAD
1000
AcDbSavedByObjectVersion
1070
     0
  0
VISUALSTYLE
  5
34
102
{ACAD_REACTORS
330
29
102
}
330
29
100
AcDbVisualStyle
  2
Dim
 70
    11
177
     3
291
     1
 70
    58
 90
        2
176
     1
 90
        2
176
     1
 90
        0
176
     1
 90
        0
176
     1
 40
0.6
176
     1
 40
30.0
176
     1
 62
     7
420
 16777215
176
     1
 90
        1
176
     1
 90
        4
176
     1
 62
     7
176
     1
 62
   257
176
     1
 90
        1
176
     1
 90
        1
176
     1
 40
1.0
176
     1
 90
        8
176
     1
 62
     7
176
     1
 40
1.0
176
     1
 90
        1
176
     1
 90
        6
176
     1
 90
        2
176
     1
 62
     7
176
     1
 90
        5
176
     1
 90
        0
176
     1
 90
        0
176
     1
290
     0
176
     1
 90
        1
176
     1
 40
-50.0
176
     1
 90
        0
176
     1
290
     0
176
     1
290
     1
176
     1
290
     1
176
     1
290
     0
176
     1
290
     0
176
     1
290
     0
176
     1
290
     0
176
     1
290
     0
176
     1
290
     0
176
     1
 90
       50
176
     1
 40
0.0
176
     1
 40
1.0
176
     1
 90
        0
176
     1
 62
    18
420
        0
176
     1
 90
       50
176
     1
 90
        3
176
     1
 62
     5
420
      255
176
     1
290
     0
176
     1
 90
       50
176
     1
 90
       50
176
     1
 90
       50
176
     1
290
     0
176
     1
 90
       50
176
     1
 62
   256
176
     0
 40
1.0
176
     0
 90
        2
176
     1
  1
strokes_ogs.tif
176
     1
290
     0
176
     1
 40
1.0
176
     1
 40
1.0
176
     1
1001
ACAD
1000
AcDbSavedByObjectVersion
1070
     0
  0
VISUALSTYLE
  5
41
102
{ACAD_REACTORS
330
29
102
}
330
29
100
AcDbVisualStyle
  2
EdgeColorOff
 70
    22
177
     3
291
     1
 70
    58
 90
        2
176
     0
 90
        2
176
     0
 90
        0
176
     0
 90
        0
176
     0
 40
0.6
176
     0
 40
30.0
176
     0
 62
     7
420
 16777215
176
     0
 90
        1
176
     0
 90
        4
176
     0
 62
     7
176
     0
 62
   257
176
     0
 90
        1
176
     0
 90
        1
176
     0
 40
1.0
176
     0
 90
        8
176
     2
 62
     7
176
     0
 40
1.0
176
     0
 90
        1
176
     0
 90
        6
176
     0
 90
        2
176
     0
 62
     7
176
     0
 90
        5
176
     0
 90
        0
176
     0
 90
        0
176
     0
290
     0
176
     0
 90
        1
176
     0
 40
0.0
176
     0
 90
        0
176
     0
290
     0
176
     0
290
     1
176
     0
290
     1
176
     0
290
     0
176
     0
290
     0
176
     0
290
     0
176
     0
290
     0
176
     0
290
     0
176
     0
290
     0
176
     0
 90
       50
176
     0
 40
0.0
176
     0
 40
1.0
176
     0
 90
        0
176
     0
 62
    18
420
        0
176
     0
 90
       50
176
     0
 90
        3
176
     0
 62
     5
420
      255
176
     0
290
     0
176
     0
 90
       50
176
     0
 90
       50
176
     0
 90
       50
176
     0
290
     0
176
     0
 90
       50
176
     0
 62
   256
176
     0
 40
1.0
176
     0
 90
        2
176
     0
  1
strokes_ogs.tif
176
     0
290
     0
176
     0
 40
1.0
176
     0
 40
1.0
176
     0
1001
ACAD
1000
AcDbSavedByObjectVersion
1070
     0
  0
VISUALSTYLE
  5
38
102
{ACAD_REACTORS
330
29
102
}
330
29
100
AcDbVisualStyle
  2
Facepattern
 70
    15
177
     3
291
     1
 70
    58
 90
        2
176
     1
 90
        2
176
     1
 90
        0
176
     1
 90
        0
176
     1
 40
0.6
176
     1
 40
30.0
176
     1
 62
     7
420
 16777215
176
     1
 90
        1
176
     1
 90
        4
176
     1
 62
     7
176
     1
 62
   257
176
     1
 90
        1
176
     1
 90
        1
176
     1
 40
1.0
176
     1
 90
        8
176
     1
 62
     7
176
     1
 40
1.0
176
     1
 90
        1
176
     1
 90
        6
176
     1
 90
        2
176
     1
 62
     7
176
     1
 90
        5
176
     1
 90
        0
176
     1
 90
        0
176
     1
290
     0
176
     1
 90
        1
176
     1
 40
0.0
176
     1
 90
        0
176
     1
290
     0
176
     1
290
     1
176
     1
290
     1
176
     1
290
     0
176
     1
290
     0
176
     1
290
     0
176
     1
290
     0
176
     1
290
     0
176
     1
290
     0
176
     1
 90
       50
176
     1
 40
0.0
176
     1
 40
1.0
176
     1
 90
        0
176
     1
 62
    18
420
        0
176
     1
 90
       50
176
     1
 90
        3
176
     1
 62
     5
420
      255
176
     1
290
     0
176
     1
 90
       50
176
     1
 90
       50
176
     1
 90
       50
176
     1
290
     0
176
     1
 90
       50
176
     1
 62
   256
176
     0
 40
1.0
176
     0
 90
        2
176
     1
  1
strokes_ogs.tif
176
     1
290
     0
176
     1
 40
1.0
176
     1
 40
1.0
176
     1
1001
ACAD
1000
AcDbSavedByObjectVersion
1070
     0
  0
VISUALSTYLE
  5
2A
102
{ACAD_REACTORS
330
29
102
}
330
29
100
AcDbVisualStyle
  2
Flat
 70
     0
177
     3
291
     1
 70
    58
 90
        2
176
     1
 90
        1
176
     1
 90
        1
176
     1
 90
        2
176
     1
 40
0.6
176
     1
 40
30.0
176
     1
 62
     7
420
 16777215
176
     1
 90
        0
176
     1
 90
        0
176
     1
 62
     7
176
     1
 62
   257
176
     1
 90
        1
176
     1
 90
        1
176
     1
 40
1.0
176
     1
 90
        8
176
     1
 62
     7
176
     1
 40
1.0
176
     1
 90
        1
176
     1
 90
        6
176
     1
 90
        2
176
     1
 62
     7
176
     1
 90
        5
176
     1
 90
        0
176
     1
 90
        0
176
     1
290
     0
176
     1
 90
       13
176
     1
 40
0.0
176
     1
 90
        0
176
     1
290
     0
176
     1
290
     1
176
     1
290
     1
176
     1
290
     0
176
     1
290
     0
176
     1
290
     0
176
     1
290
     0
176
     1
290
     0
176
     1
290
     0
176
     1
 90
       50
176
     1
 40
0.0
176
     1
 40
1.0
176
     1
 90
        0
176
     1
 62
    18
420
        0
176
     1
 90
       50
176
     1
 90
        3
176
     1
 62
     5
420
      255
176
     1
290
     0
176
     1
 90
       50
176
     1
 90
       50
176
     1
 90
       50
176
     1
290
     0
176
     1
 90
       50
176
     1
 62
   256
176
     0
 40
1.0
176
     0
 90
        2
176
     1
  1
strokes_ogs.tif
176
     1
290
     0
176
     1
 40
1.0
176
     1
 40
1.0
176
     1
1001
ACAD
1000
AcDbSavedByObjectVersion
1070
     0
  0
VISUALSTYLE
  5
2B
102
{ACAD_REACTORS
330
29
102
}
330
29
100
AcDbVisualStyle
  2
FlatWithEdges
 70
     1
177
     3
291
     1
 70
    58
 90
        2
176
     1
 90
        1
176
     1
 90
        1
176
     1
 90
        2
176
     1
 40
0.6
176
     1
 40
30.0
176
     1
 62
     7
420
 16777215
176
     1
 90
        1
176
     1
 90
        0
176
     1
 62
     7
176
     1
 62
   257
176
     1
 90
        1
176
     1
 90
        1
176
     1
 40
1.0
176
     1
 90
        0
176
     1
 62
   257
176
     1
 40
1.0
176
     1
 90
        1
176
     1
 90
        6
176
     1
 90
        2
176
     1
 62
     7
176
     1
 90
        5
176
     1
 90
        0
176
     1
 90
        0
176
     1
290
     0
176
     1
 90
       13
176
     1
 40
0.0
176
     1
 90
        0
176
     1
290
     0
176
     1
290
     1
176
     1
290
     1
176
     1
290
     0
176
     1
290
     0
176
     1
290
     0
176
     1
290
     0
176
     1
290
     0
176
     1
290
     0
176
     1
 90
       50
176
     1
 40
0.0
176
     1
 40
1.0
176
     1
 90
        0
176
     1
 62
    18
420
        0
176
     1
 90
       50
176
     1
 90
        3
176
     1
 62
     5
420
      255
176
     1
290
     0
176
     1
 90
       50
176
     1
 90
       50
176
     1
 90
       50
176
     1
290
     0
176
     1
 90
       50
176
     1
 62
   256
176
     0
 40
1.0
176
     0
 90
        2
176
     1
  1
strokes_ogs.tif
176
     1
290
     0
176
     1
 40
1.0
176
     1
 40
1.0
176
     1
1001
ACAD
1000
AcDbSavedByObjectVersion
1070
     0
  0
VISUALSTYLE
  5
2C
102
{ACAD_REACTORS
330
29
102
}
330
29
100
AcDbVisualStyle
  2
Gouraud
 70
     2
177
     3
291
     1
 70
    58
 90
        2
176
     1
 90
        2
176
     1
 90
        1
176
     1
 90
        2
176
     1
 40
0.6
176
     1
 40
30.0
176
     1
 62
     7
420
 16777215
176
     1
 90
        0
176
     1
 90
        0
176
     1
 62
     7
176
     1
 62
   257
176
     1
 90
        1
176
     1
 90
        1
176
     1
 40
1.0
176
     1
 90
        0
176
     1
 62
     7
176
     1
 40
1.0
176
     1
 90
        1
176
     1
 90
        6
176
     1
 90
        2
176
     1
 62
     7
176
     1
 90
        5
176
     1
 90
        0
176
     1
 90
        0
176
     1
290
     0
176
     1
 90
       13
176
     1
 40
0.0
176
     1
 90
        0
176
     1
290
     0
176
     1
290
     1
176
     1
290
     1
176
     1
290
     0
176
     1
290
     0
176
     1
290
     0
176
     1
290
     0
176
     1
290
     0
176
     1
290
     0
176
     1
 90
       50
176
     1
 40
0.0
176
     1
 40
1.0
176
     1
 90
        0
176
     1
 62
    18
420
        0
176
     1
 90
       50
176
     1
 90
        3
176
     1
 62
     5
420
      255
176
     1
290
     0
176
     1
 90
       50
176
     1
 90
       50
176
     1
 90
       50
176
     1
290
     0
176
     1
 90
       50
176
     1
 62
   256
176
     0
 40
1.0
176
     0
 90
        2
176
     1
  1
strokes_ogs.tif
176
     1
290
     0
176
     1
 40
1.0
176
     1
 40
1.0
176
     1
1001
ACAD
1000
AcDbSavedByObjectVersion
1070
     0
  0
VISUALSTYLE
  5
2D
102
{ACAD_REACTORS
330
29
102
}
330
29
100
AcDbVisualStyle
  2
GouraudWithEdges
 70
     3
177
     3
291
     1
 70
    58
 90
        2
176
     1
 90
        2
176
     1
 90
        1
176
     1
 90
        2
176
     1
 40
0.6
176
     1
 40
30.0
176
     1
 62
     7
420
 16777215
176
     1
 90
        1
176
     1
 90
        0
176
     1
 62
     7
176
     1
 62
   257
176
     1
 90
        1
176
     1
 90
        1
176
     1
 40
1.0
176
     1
 90
        0
176
     1
 62
   257
176
     1
 40
1.0
176
     1
 90
        1
176
     1
 90
        6
176
     1
 90
        2
176
     1
 62
     7
176
     1
 90
        5
176
     1
 90
        0
176
     1
 90
        0
176
     1
290
     0
176
     1
 90
       13
176
     1
 40
0.0
176
     1
 90
        0
176
     1
290
     0
176
     1
290
     1
176
     1
290
     1
176
     1
290
     0
176
     1
290
     0
176
     1
290
     0
176
     1
290
     0
176
     1
290
     0
176
     1
290
     0
176
     1
 90
       50
176
     1
 40
0.0
176
     1
 40
1.0
176
     1
 90
        0
176
     1
 62
    18
420
        0
176
     1
 90
       50
176
     1
 90
        3
176
     1
 62
     5
420
      255
176
     1
290
     0
176
     1
 90
       50
176
     1
 90
       50
176
     1
 90
       50
176
     1
290
     0
176
     1
 90
       50
176
     1
 62
   256
176
     0
 40
1.0
176
     0
 90
        2
176
     1
  1
strokes_ogs.tif
176
     1
290
     0
176
     1
 40
1.0
176
     1
 40
1.0
176
     1
1001
ACAD
1000
AcDbSavedByObjectVersion
1070
     0
  0
VISUALSTYLE
  5
31
102
{ACAD_REACTORS
330
29
102
}
330
29
100
AcDbVisualStyle
  2
Hidden
 70
     6
177
     3
291
     0
 70
    58
 90
        1
176
     1
 90
        2
176
     1
 90
        2
176
     1
 90
        0
176
     1
 40
0.6
176
     1
 40
30.0
176
     1
 62
     7
420
 16777215
176
     1
 90
        2
176
     1
 90
        2
176
     1
 62
     7
176
     1
 62
   257
176
     1
 90
        2
176
     1
 90
        1
176
     1
 40
40.0
176
     1
 90
        0
176
     1
 62
   257
176
     1
 40
1.0
176
     1
 90
        1
176
     1
 90
        6
176
     1
 90
        2
176
     1
 62
     7
176
     1
 90
        3
176
     1
 90
        0
176
     1
 90
        0
176
     1
290
     0
176
     1
 90
        1
176
     1
 40
0.0
176
     1
 90
        0
176
     1
290
     0
176
     1
290
     1
176
     1
290
     1
176
     1
290
     0
176
     1
290
     0
176
     1
290
     0
176
     1
290
     0
176
     1
290
     0
176
     1
290
     0
176
     1
 90
       50
176
     1
 40
0.0
176
     1
 40
1.0
176
     1
 90
        0
176
     1
 62
    18
420
        0
176
     1
 90
       50
176
     1
 90
        3
176
     1
 62
     5
420
      255
176
     1
290
     0
176
     1
 90
       50
176
     1
 90
       50
176
     1
 90
       50
176
     1
290
     0
176
     1
 90
       50
176
     1
 62
   256
176
     0
 40
1.0
176
     0
 90
        2
176
     1
  1
strokes_ogs.tif
176
     1
290
     0
176
     1
 40
1.0
176
     1
 40
1.0
176
     1
1001
ACAD
1000
AcDbSavedByObjectVersion
1070
     0
  0
VISUALSTYLE
  5
3F
102
{ACAD_REACTORS
330
29
102
}
330
29
100
AcDbVisualStyle
  2
JitterOff
 70
    20
177
     3
291
     1
 70
    58
 90
        2
176
     0
 90
        2
176
     0
 90
        0
176
     0
 90
        0
176
     0
 40
0.6
176
     0
 40
30.0
176
     0
 62
     7
420
 16777215
176
     0
 90
        1
176
     0
 90
        4
176
     0
 62
     7
176
     0
 62
   257
176
     0
 90
        1
176
     0
 90
        1
176
     0
 40
1.0
176
     0
 90
       10
176
     2
 62
     7
176
     0
 40
1.0
176
     0
 90
        1
176
     0
 90
        6
176
     0
 90
        2
176
     0
 62
     7
176
     0
 90
        5
176
     0
 90
        0
176
     0
 90
        0
176
     0
290
     0
176
     0
 90
        1
176
     0
 40
0.0
176
     0
 90
        0
176
     0
290
     0
176
     0
290
     1
176
     0
290
     1
176
     0
290
     0
176
     0
290
     0
176
     0
290
     0
176
     0
290
     0
176
     0
290
     0
176
     0
290
     0
176
     0
 90
       50
176
     0
 40
0.0
176
     0
 40
1.0
176
     0
 90
        0
176
     0
 62
    18
420
        0
176
     0
 90
       50
176
     0
 90
        3
176
     0
 62
     5
420
      255
176
     0
290
     0
176
     0
 90
       50
176
     0
 90
       50
176
     0
 90
       50
176
     0
290
     0
176
     0
 90
       50
176
     0
 62
   256
176
     0
 40
1.0
176
     0
 90
        2
176
     0
  1
strokes_ogs.tif
176
     0
290
     0
176
     0
 40
1.0
176
     0
 40
1.0
176
     0
1001
ACAD
1000
AcDbSavedByObjectVersion
1070
     0
  0
VISUALSTYLE
  5
37
102
{ACAD_REACTORS
330
29
102
}
330
29
100
AcDbVisualStyle
  2
Linepattern
 70
    14
177
     3
291
     1
 70
    58
 90
        2
176
     1
 90
        2
176
     1
 90
        0
176
     1
 90
        0
176
     1
 40
0.6
176
     1
 40
30.0
176
     1
 62
     7
420
 16777215
176
     1
 90
        1
176
     1
 90
        4
176
     1
 62
     7
176
     1
 62
   257
176
     1
 90
        7
176
     1
 90
        7
176
     1
 40
1.0
176
     1
 90
        8
176
     1
 62
     7
176
     1
 40
1.0
176
     1
 90
        1
176
     1
 90
        6
176
     1
 90
        2
176
     1
 62
     7
176
     1
 90
        5
176
     1
 90
        0
176
     1
 90
        0
176
     1
290
     0
176
     1
 90
        1
176
     1
 40
0.0
176
     1
 90
        0
176
     1
290
     0
176
     1
290
     1
176
     1
290
     1
176
     1
290
     0
176
     1
290
     0
176
     1
290
     0
176
     1
290
     0
176
     1
290
     0
176
     1
290
     0
176
     1
 90
       50
176
     1
 40
0.0
176
     1
 40
1.0
176
     1
 90
        0
176
     1
 62
    18
420
        0
176
     1
 90
       50
176
     1
 90
        3
176
     1
 62
     5
420
      255
176
     1
290
     0
176
     1
 90
       50
176
     1
 90
       50
176
     1
 90
       50
176
     1
290
     0
176
     1
 90
       50
176
     1
 62
   256
176
     0
 40
1.0
176
     0
 90
        2
176
     1
  1
strokes_ogs.tif
176
     1
290
     0
176
     1
 40
1.0
176
     1
 40
1.0
176
     1
1001
ACAD
1000
AcDbSavedByObjectVersion
1070
     0
  0
VISUALSTYLE
  5
40
102
{ACAD_REACTORS
330
29
102
}
330
29
100
AcDbVisualStyle
  2
OverhangOff
 70
    21
177
     3
291
     1
 70
    58
 90
        2
176
     0
 90
        2
176
     0
 90
        0
176
     0
 90
        0
176
     0
 40
0.6
176
     0
 40
30.0
176
     0
 62
     7
420
 16777215
176
     0
 90
        1
176
     0
 90
        4
176
     0
 62
     7
176
     0
 62
   257
176
     0
 90
        1
176
     0
 90
        1
176
     0
 40
1.0
176
     0
 90
        9
176
     2
 62
     7
176
     0
 40
1.0
176
     0
 90
        1
176
     0
 90
        6
176
     0
 90
        2
176
     0
 62
     7
176
     0
 90
        5
176
     0
 90
        0
176
     0
 90
        0
176
     0
290
     0
176
     0
 90
        1
176
     0
 40
0.0
176
     0
 90
        0
176
     0
290
     0
176
     0
290
     1
176
     0
290
     1
176
     0
290
     0
176
     0
290
     0
176
     0
290
     0
176
     0
290
     0
176
     0
290
     0
176
     0
290
     0
176
     0
 90
       50
176
     0
 40
0.0
176
     0
 40
1.0
176
     0
 90
        0
176
     0
 62
    18
420
        0
176
     0
 90
       50
176
     0
 90
        3
176
     0
 62
     5
420
      255
176
     0
290
     0
176
     0
 90
       50
176
     0
 90
       50
176
     0
 90
       50
176
     0
290
     0
176
     0
 90
       50
176
     0
 62
   256
176
     0
 40
1.0
176
     0
 90
        2
176
     0
  1
strokes_ogs.tif
176
     0
290
     0
176
     0
 40
1.0
176
     0
 40
1.0
176
     0
1001
ACAD
1000
AcDbSavedByObjectVersion
1070
     0
  0
VISUALSTYLE
  5
33
102
{ACAD_REACTORS
330
29
102
}
330
29
100
AcDbVisualStyle
  2
Realistic
 70
     8
177
     3
291
     0
 70
    58
 90
        2
176
     1
 90
        3
176
     1
 90
        0
176
     1
 90
        2
176
     1
 40
0.6
176
     1
 40
30.0
176
     1
 62
     7
420
 16777215
176
     1
 90
        0
176
     1
 90
        0
176
     1
 62
     7
176
     1
 62
   257
176
     1
 90
        1
176
     1
 90
        1
176
     1
 40
1.0
176
     1
 90
        8
176
     1
 62
   257
176
     1
 40
1.0
176
     1
 90
        1
176
     1
 90
        6
176
     1
 90
        2
176
     1
 62
     7
176
     1
 90
        3
176
     1
 90
        0
176
     1
 90
        0
176
     1
290
     0
176
     1
 90
       13
176
     1
 40
0.0
176
     1
 90
        0
176
     1
290
     0
176
     1
290
     1
176
     1
290
     1
176
     1
290
     0
176
     1
290
     0
176
     1
290
     0
176
     1
290
     0
176
     1
290
     0
176
     1
290
     0
176
     1
 90
       50
176
     1
 40
0.0
176
     1
 40
1.0
176
     1
 90
        0
176
     1
 62
    18
420
        0
176
     1
 90
       50
176
     1
 90
        3
176
     1
 62
     5
420
      255
176
     1
290
     0
176
     1
 90
       50
176
     1
 90
       50
176
     1
 90
       50
176
     1
290
     0
176
     1
 90
       50
176
     1
 62
   256
176
     0
 40
1.0
176
     0
 90
        2
176
     1
  1
strokes_ogs.tif
176
     1
290
     0
176
     1
 40
1.0
176
     1
 40
1.0
176
     1
1001
ACAD
1000
AcDbSavedByObjectVersion
1070
     0
  0
VISUALSTYLE
  5
3E
102
{ACAD_REACTORS
330
29
102
}
330
29
100
AcDbVisualStyle
  2
Shaded
 70
    27
177
     3
291
     0
 70
    58
 90
        2
176
     1
 90
        2
176
     1
 90
        1
176
     1
 90
        2
176
     1
 40
0.6
176
     1
 40
30.0
176
     1
 62
     7
420
 16777215
176
     1
 90
        0
176
     1
 90
        4
176
     1
 62
     7
176
     1
 62
   257
176
     1
 90
        1
176
     1
 90
        1
176
     1
 40
1.0
176
     1
 90
        8
176
     1
 62
   257
176
     1
 40
1.0
176
     1
 90
        1
176
     1
 90
        6
176
     1
 90
        2
176
     1
 62
     8
420
  7895160
176
     1
 90
        3
176
     1
 90
        0
176
     1
 90
        0
176
     1
290
     0
176
     1
 90
        5
176
     1
 40
0.0
176
     1
 90
        0
176
     1
290
     0
176
     1
290
     1
176
     1
290
     1
176
     1
290
     0
176
     1
290
     0
176
     1
290
     0
176
     1
290
     0
176
     1
290
     0
176
     1
290
     0
176
     1
 90
       50
176
     1
 40
0.0
176
     1
 40
1.0
176
     1
 90
        0
176
     1
 62
    18
420
        0
176
     1
 90
       50
176
     1
 90
        3
176
     1
 62
     5
420
      255
176
     1
290
     0
176
     1
 90
       50
176
     1
 90
       50
176
     1
 90
       50
176
     1
290
     0
176
     1
 90
       50
176
     1
 62
   256
176
     0
 40
1.0
176
     0
 90
        2
176
     1
  1
strokes_ogs.tif
176
     1
290
     0
176
     1
 40
1.0
176
     1
 40
1.0
176
     1
1001
ACAD
1000
AcDbSavedByObjectVersion
1070
     0
  0
VISUALSTYLE
  5
3D
102
{ACAD_REACTORS
330
29
102
}
330
29
100
AcDbVisualStyle
  2
Shaded with edges
 70
    26
177
     3
291
     0
 70
    58
 90
        2
176
     1
 90
        2
176
     1
 90
        1
176
     1
 90
        2
176
     1
 40
0.6
176
     1
 40
30.0
176
     1
 62
     7
420
 16777215
176
     1
 90
        1
176
     1
 90
        2
176
     1
 62
     7
176
     1
 62
   257
176
     1
 90
        2
176
     1
 90
        1
176
     1
 40
1.0
176
     1
 90
        8
176
     1
 62
   257
176
     1
 40
1.0
176
     1
 90
        1
176
     1
 90
        6
176
     1
 90
        2
176
     1
 62
     7
176
     1
 90
        3
176
     1
 90
        0
176
     1
 90
        0
176
     1
290
     0
176
     1
 90
        5
176
     1
 40
0.0
176
     1
 90
        0
176
     1
290
     0
176
     1
290
     1
176
     1
290
     1
176
     1
290
     0
176
     1
290
     0
176
     1
290
     0
176
     1
290
     0
176
     1
290
     0
176
     1
290
     0
176
     1
 90
       50
176
     1
 40
0.0
176
     1
 40
1.0
176
     1
 90
        0
176
     1
 62
    18
420
        0
176
     1
 90
       50
176
     1
 90
        3
176
     1
 62
     5
420
      255
176
     1
290
     0
176
     1
 90
       50
176
     1
 90
       50
176
     1
 90
       50
176
     1
290
     0
176
     1
 90
       50
176
     1
 62
   256
176
     0
 40
1.0
176
     0
 90
        2
176
     1
  1
strokes_ogs.tif
176
     1
290
     0
176
     1
 40
1.0
176
     1
 40
1.0
176
     1
1001
ACAD
1000
AcDbSavedByObjectVersion
1070
     0
  0
VISUALSTYLE
  5
3A
102
{ACAD_REACTORS
330
29
102
}
330
29
100
AcDbVisualStyle
  2
Shades of Gray
 70
    23
177
     3
291
     0
 70
    58
 90
        2
176
     1
 90
        2
176
     1
 90
        3
176
     1
 90
        0
176
     1
 40
0.6
176
     1
 40
30.0
176
     1
 62
     7
420
 16777215
176
     1
 90
        2
176
     1
 90
        2
176
     1
 62
     7
176
     1
 62
     7
176
     1
 90
        1
176
     1
 90
        1
176
     1
 40
40.0
176
     1
 90
        8
176
     1
 62
     7
176
     1
 40
1.0
176
     1
 90
        1
176
     1
 90
        6
176
     1
 90
        2
176
     1
 62
     7
176
     1
 90
        3
176
     1
 90
        0
176
     1
 90
        0
176
     1
290
     0
176
     1
 90
        1
176
     1
 40
0.0
176
     1
 90
        0
176
     1
290
     0
176
     1
290
     1
176
     1
290
     1
176
     1
290
     0
176
     1
290
     0
176
     1
290
     0
176
     1
290
     0
176
     1
290
     0
176
     1
290
     0
176
     1
 90
       50
176
     1
 40
0.0
176
     1
 40
1.0
176
     1
 90
        0
176
     1
 62
    18
420
        0
176
     1
 90
       50
176
     1
 90
        3
176
     1
 62
     5
420
      255
176
     1
290
     0
176
     1
 90
       50
176
     1
 90
       50
176
     1
 90
       50
176
     1
290
     0
176
     1
 90
       50
176
     1
 62
   256
176
     0
 40
1.0
176
     0
 90
        2
176
     1
  1
strokes_ogs.tif
176
     1
290
     0
176
     1
 40
1.0
176
     1
 40
1.0
176
     1
1001
ACAD
1000
AcDbSavedByObjectVersion
1070
     0
  0
VISUALSTYLE
  5
3B
102
{ACAD_REACTORS
330
29
102
}
330
29
100
AcDbVisualStyle
  2
Sketchy
 70
    24
177
     3
291
     0
 70
    58
 90
        1
176
     1
 90
        2
176
     1
 90
        2
176
     1
 90
        0
176
     1
 40
0.6
176
     1
 40
30.0
176
     1
 62
     7
420
 16777215
176
     1
 90
        2
176
     1
 90
        2
176
     1
 62
     7
176
     1
 62
     7
176
     1
 90
        1
176
     1
 90
        1
176
     1
 40
40.0
176
     1
 90
       11
176
     1
 62
     7
176
     1
 40
1.0
176
     1
 90
        1
176
     1
 90
        6
176
     1
 90
        2
176
     1
 62
     7
176
     1
 90
        6
176
     1
 90
        0
176
     1
 90
        0
176
     1
290
     0
176
     1
 90
        1
176
     1
 40
0.0
176
     1
 90
        0
176
     1
290
     0
176
     1
290
     1
176
     1
290
     1
176
     1
290
     0
176
     1
290
     0
176
     1
290
     0
176
     1
290
     0
176
     1
290
     0
176
     1
290
     0
176
     1
 90
       50
176
     1
 40
0.0
176
     1
 40
1.0
176
     1
 90
        0
176
     1
 62
    18
420
        0
176
     1
 90
       50
176
     1
 90
        3
176
     1
 62
     5
420
      255
176
     1
290
     0
176
     1
 90
       50
176
     1
 90
       50
176
     1
 90
       50
176
     1
290
     0
176
     1
 90
       50
176
     1
 62
   256
176
     0
 40
1.0
176
     0
 90
        2
176
     1
  1
strokes_ogs.tif
176
     1
290
     0
176
     1
 40
1.0
176
     1
 40
1.0
176
     1
1001
ACAD
1000
AcDbSavedByObjectVersion
1070
     0
  0
VISUALSTYLE
  5
36
102
{ACAD_REACTORS
330
29
102
}
330
29
100
AcDbVisualStyle
  2
Thicken
 70
    13
177
     3
291
     1
 70
    58
 90
        2
176
     1
 90
        2
176
     1
 90
        0
176
     1
 90
        0
176
     1
 40
0.6
176
     1
 40
30.0
176
     1
 62
     7
420
 16777215
176
     1
 90
        1
176
     1
 90
        4
176
     1
 62
     7
176
     1
 62
   257
176
     1
 90
        1
176
     1
 90
        1
176
     1
 40
1.0
176
     1
 90
       12
176
     1
 62
     7
176
     1
 40
1.0
176
     1
 90
        1
176
     1
 90
        6
176
     1
 90
        2
176
     1
 62
     7
176
     1
 90
        5
176
     1
 90
        0
176
     1
 90
        0
176
     1
290
     0
176
     1
 90
        1
176
     1
 40
0.0
176
     1
 90
        0
176
     1
290
     0
176
     1
290
     1
176
     1
290
     1
176
     1
290
     0
176
     1
290
     0
176
     1
290
     0
176
     1
290
     0
176
     1
290
     0
176
     1
290
     0
176
     1
 90
       50
176
     1
 40
0.0
176
     1
 40
1.0
176
     1
 90
        0
176
     1
 62
    18
420
        0
176
     1
 90
       50
176
     1
 90
        3
176
     1
 62
     5
420
      255
176
     1
290
     0
176
     1
 90
       50
176
     1
 90
       50
176
     1
 90
       50
176
     1
290
     0
176
     1
 90
       50
176
     1
 62
   256
176
     0
 40
1.0
176
     0
 90
        2
176
     1
  1
strokes_ogs.tif
176
     1
290
     0
176
     1
 40
1.0
176
     1
 40
1.0
176
     1
1001
ACAD
1000
AcDbSavedByObjectVersion
1070
     0
  0
VISUALSTYLE
  5
30
102
{ACAD_REACTORS
330
29
102
}
330
29
100
AcDbVisualStyle
  2
Wireframe
 70
     5
177
     3
291
     0
 70
    58
 90
        0
176
     1
 90
        2
176
     1
 90
        0
176
     1
 90
        0
176
     1
 40
0.6
176
     1
 40
30.0
176
     1
 62
     7
420
 16777215
176
     1
 90
        1
176
     1
 90
        4
176
     1
 62
     7
176
     1
 62
   257
176
     1
 90
        1
176
     1
 90
        1
176
     1
 40
1.0
176
     1
 90
        0
176
     1
 62
   257
176
     1
 40
1.0
176
     1
 90
        1
176
     1
 90
        6
176
     1
 90
        2
176
     1
 62
     7
176
     1
 90
        3
176
     1
 90
        0
176
     1
 90
        0
176
     1
290
     0
176
     1
 90
        1
176
     1
 40
0.0
176
     1
 90
        0
176
     1
290
     0
176
     1
290
     1
176
     1
290
     1
176
     1
290
     0
176
     1
290
     0
176
     1
290
     0
176
     1
290
     0
176
     1
290
     0
176
     1
290
     0
176
     1
 90
       50
176
     1
 40
0.0
176
     1
 40
1.0
176
     1
 90
        0
176
     1
 62
    18
420
        0
176
     1
 90
       50
176
     1
 90
        3
176
     1
 62
     5
420
      255
176
     1
290
     0
176
     1
 90
       50
176
     1
 90
       50
176
     1
 90
       50
176
     1
290
     0
176
     1
 90
       50
176
     1
 62
   256
176
     0
 40
1.0
176
     0
 90
        2
176
     1
  1
strokes_ogs.tif
176
     1
290
     0
176
     1
 40
1.0
176
     1
 40
1.0
176
     1
1001
ACAD
1000
AcDbSavedByObjectVersion
1070
     0
  0
VISUALSTYLE
  5
3C
102
{ACAD_REACTORS
330
29
102
}
330
29
100
AcDbVisualStyle
  2
X-Ray
 70
    25
177
     3
291
     0
 70
    58
 90
        2
176
     1
 90
        2
176
     1
 90
        1
176
     1
 90
        1
176
     1
 40
0.5
176
     1
 40
30.0
176
     1
 62
     7
420
 16777215
176
     1
 90
        1
176
     1
 90
        0
176
     1
 62
     7
176
     1
 62
   257
176
     1
 90
        1
176
     1
 90
        1
176
     1
 40
1.0
176
     1
 90
        8
176
     1
 62
     7
176
     1
 40
1.0
176
     1
 90
        1
176
     1
 90
        6
176
     1
 90
        2
176
     1
 62
     7
176
     1
 90
        3
176
     1
 90
        0
176
     1
 90
        0
176
     1
290
     0
176
     1
 90
       13
176
     1
 40
0.0
176
     1
 90
        0
176
     1
290
     0
176
     1
290
     1
176
     1
290
     1
176
     1
290
     0
176
     1
290
     0
176
     1
290
     0
176
     1
290
     0
176
     1
290
     0
176
     1
290
     0
176
     1
 90
       50
176
     1
 40
0.0
176
     1
 40
1.0
176
     1
 90
        0
176
     1
 62
    18
420
        0
176
     1
 90
       50
176
     1
 90
        3
176
     1
 62
     5
420
      255
176
     1
290
     0
176
     1
 90
       50
176
     1
 90
       50
176
     1
 90
       50
176
     1
290
     0
176
     1
 90
       50
176
     1
 62
   256
176
     0
 40
1.0
176
     0
 90
        2
176
     1
  1
strokes_ogs.tif
176
     1
290
     0
176
     1
 40
1.0
176
     1
 40
1.0
176
     1
1001
ACAD
1000
AcDbSavedByObjectVersion
1070
     0
  0
DICTIONARYVAR
  5
86
102
{ACAD_REACTORS
330
81
102
}
330
81
100
DictionaryVariables
280
     0
  1
1:1
  0
DICTIONARYVAR
  5
83
102
{ACAD_REACTORS
330
81
102
}
330
81
100
DictionaryVariables
280
     0
  1
STANDARD
  0
DICTIONARYVAR
  5
82
102
{ACAD_REACTORS
330
81
102
}
330
81
100
DictionaryVariables
280
     0
  1
STANDARD
  0
DICTIONARYVAR
  5
84
102
{ACAD_REACTORS
330
81
102
}
330
81
100
DictionaryVariables
280
     0
  1
Imperial24
  0
DICTIONARYVAR
  5
85
102
{ACAD_REACTORS
330
81
102
}
330
81
100
DictionaryVariables
280
     0
  1
Imperial24
  0
DICTIONARY
  5
8C
330
6B
100
AcDbDictionary
280
     1
281
     1
  3
ACAD_XREC_ROUNDTRIP
360
8D
  0
DICTIONARY
  5
1A
330
19
100
AcDbDictionary
280
     1
281
     1
  3
BUMPTILE
360
1C
  3
DIFFUSETILE
360
1B
  3
OPACITYTILE
360
1F
  3
REFLECTIONTILE
360
1E
  3
REFRACTIONTILE
360
20
  3
SPECULARTILE
360
1D
  0
DICTIONARY
  5
12
330
11
100
AcDbDictionary
280
     1
281
     1
  3
BUMPTILE
360
14
  3
DIFFUSETILE
360
13
  3
OPACITYTILE
360
17
  3
REFLECTIONTILE
360
16
  3
REFRACTIONTILE
360
18
  3
SPECULARTILE
360
15
  0
DICTIONARY
  5
22
330
21
100
AcDbDictionary
280
     1
281
     1
  3
BUMPTILE
360
24
  3
DIFFUSETILE
360
23
  3
OPACITYTILE
360
27
  3
REFLECTIONTILE
360
26
  3
REFRACTIONTILE
360
28
  3
SPECULARTILE
360
25
  0
DICTIONARY
  5
8A
330
69
100
AcDbDictionary
280
     1
281
     1
  3
ACAD_XREC_ROUNDTRIP
360
8B
  0
DICTIONARY
  5
87
330
65
100
AcDbDictionary
280
     1
281
     1
  3
ACAD_ROUNDTRIP_2008_TABLESTYLE_CELLSTYLEMAP
360
88
  0
XRECORD
  5
8D
102
{ACAD_REACTORS
330
8C
102
}
330
8C
100
AcDbXrecord
280
     1
102
DISPLAYNAME
  1
Imperial24
102
FLAGS
 90
        0
  0
XRECORD
  5
1C
102
{ACAD_REACTORS
330
1A
102
}
330
1A
100
AcDbXrecord
280
     1
270
     1
271
     1
  0
XRECORD
  5
1B
102
{ACAD_REACTORS
330
1A
102
}
330
1A
100
AcDbXrecord
280
     1
270
     1
271
     1
  0
XRECORD
  5
1F
102
{ACAD_REACTORS
330
1A
102
}
330
1A
100
AcDbXrecord
280
     1
270
     1
271
     1
  0
XRECORD
  5
1E
102
{ACAD_REACTORS
330
1A
102
}
330
1A
100
AcDbXrecord
280
     1
270
     1
271
     1
  0
XRECORD
  5
20
102
{ACAD_REACTORS
330
1A
102
}
330
1A
100
AcDbXrecord
280
     1
270
     1
271
     1
  0
XRECORD
  5
1D
102
{ACAD_REACTORS
330
1A
102
}
330
1A
100
AcDbXrecord
280
     1
270
     1
271
     1
  0
XRECORD
  5
14
102
{ACAD_REACTORS
330
12
102
}
330
12
100
AcDbXrecord
280
     1
270
     1
271
     1
  0
XRECORD
  5
13
102
{ACAD_REACTORS
330
12
102
}
330
12
100
AcDbXrecord
280
     1
270
     1
271
     1
  0
XRECORD
  5
17
102
{ACAD_REACTORS
330
12
102
}
330
12
100
AcDbXrecord
280
     1
270
     1
271
     1
  0
XRECORD
  5
16
102
{ACAD_REACTORS
330
12
102
}
330
12
100
AcDbXrecord
280
     1
270
     1
271
     1
  0
XRECORD
  5
18
102
{ACAD_REACTORS
330
12
102
}
330
12
100
AcDbXrecord
280
     1
270
     1
271
     1
  0
XRECORD
  5
15
102
{ACAD_REACTORS
330
12
102
}
330
12
100
AcDbXrecord
280
     1
270
     1
271
     1
  0
XRECORD
  5
24
102
{ACAD_REACTORS
330
22
102
}
330
22
100
AcDbXrecord
280
     1
270
     1
271
     1
  0
XRECORD
  5
23
102
{ACAD_REACTORS
330
22
102
}
330
22
100
AcDbXrecord
280
     1
270
     1
271
     1
  0
XRECORD
  5
27
102
{ACAD_REACTORS
330
22
102
}
330
22
100
AcDbXrecord
280
     1
270
     1
271
     1
  0
XRECORD
  5
26
102
{ACAD_REACTORS
330
22
102
}
330
22
100
AcDbXrecord
280
     1
270
     1
271
     1
  0
XRECORD
  5
28
102
{ACAD_REACTORS
330
22
102
}
330
22
100
AcDbXrecord
280
     1
270
     1
271
     1
  0
XRECORD
  5
25
102
{ACAD_REACTORS
330
22
102
}
330
22
100
AcDbXrecord
280
     1
270
     1
271
     1
  0
XRECORD
  5
8B
102
{ACAD_REACTORS
330
8A
102
}
330
8A
100
AcDbXrecord
280
     1
102
DISPLAYNAME
  1
Imperial24
102
FLAGS
 90
        0
  0
CELLSTYLEMAP
  5
88
102
{ACAD_REACTORS
330
87
102
}
330
87
100
AcDbCellStyleMap
 90
        3
300
CELLSTYLE
  1
TABLEFORMAT_BEGIN
 90
        5
170
     1
 91
        0
 92
    32768
 62
   257
 93
        1
300
CONTENTFORMAT
  1
CONTENTFORMAT_BEGIN
 90
        0
 91
        0
 92
      512
 93
        0
300

 40
0.0
140
1.0
 94
        5
 62
     0
340
55
144
0.25
309
CONTENTFORMAT_END
171
     0
 94
        0
309
TABLEFORMAT_END
  1
CELLSTYLE_BEGIN
 90
        1
 91
        1
300
_TITLE
309
CELLSTYLE_END
300
CELLSTYLE
  1
TABLEFORMAT_BEGIN
 90
        5
170
     1
 91
        0
 92
        0
 62
   257
 93
        1
300
CONTENTFORMAT
  1
CONTENTFORMAT_BEGIN
 90
        0
 91
        0
 92
      512
 93
        0
300

 40
0.0
140
1.0
 94
        5
 62
     0
340
55
144
0.18
309
CONTENTFORMAT_END
171
     0
 94
        0
309
TABLEFORMAT_END
  1
CELLSTYLE_BEGIN
 90
        2
 91
        1
300
_HEADER
309
CELLSTYLE_END
300
CELLSTYLE
  1
TABLEFORMAT_BEGIN
 90
        5
170
     1
 91
        0
 92
        0
 62
   257
 93
        1
300
CONTENTFORMAT
  1
CONTENTFORMAT_BEGIN
 90
        0
 91
        0
 92
      512
 93
        0
300

 40
0.0
140
1.0
 94
        2
 62
     0
340
55
144
0.18
309
CONTENTFORMAT_END
171
     0
 94
        0
309
TABLEFORMAT_END
  1
CELLSTYLE_BEGIN
 90
        3
 91
        2
300
_DATA
309
CELLSTYLE_END
  0
ENDSEC
  0
EOF
