  0
SECTION
  2
HEADER
  9
$ACADVER
  1
AC1027
  9
$ACADMAINTVER
 70
   125
  9
$DWGCODEPAGE
  3
ANSI_1252
  9
$REQUIREDVERSIONS
160
                 0
  9
$INSBASE
 10
0.0
 20
0.0
 30
0.0
  9
$EXTMIN
 10
1.000000000000000E+20
 20
1.000000000000000E+20
 30
1.000000000000000E+20
  9
$EXTMAX
 10
-1.000000000000000E+20
 20
-1.000000000000000E+20
 30
-1.000000000000000E+20
  9
$LIMMIN
 10
0.0
 20
0.0
  9
$LIMMAX
 10
12.0
 20
9.0
  9
$ORTHOMODE
 70
     0
  9
$REGENMODE
 70
     1
  9
$FILLMODE
 70
     1
  9
$QTEXTMODE
 70
     0
  9
$MIRRTEXT
 70
     0
  9
$LTSCALE
 40
1.0
  9
$ATTMODE
 70
     1
  9
$TEXTSIZE
 40
0.2
  9
$TRACEWID
 40
0.05
  9
$TEXTSTYLE
  7
Standard
  9
$CLAYER
  8
0
  9
$CELTYPE
  6
ByLayer
  9
$CECOLOR
 62
   256
  9
$CELTSCALE
 40
1.0
  9
$DISPSILH
 70
     0
  9
$DIMSCALE
 40
1.0
  9
$DIMASZ
 40
0.18
  9
$DIMEXO
 40
0.0625
  9
$DIMDLI
 40
0.38
  9
$DIMRND
 40
0.0
  9
$DIMDLE
 40
0.0
  9
$DIMEXE
 40
0.18
  9
$DIMTP
 40
0.0
  9
$DIMTM
 40
0.0
  9
$DIMTXT
 40
0.18
  9
$DIMCEN
 40
0.09
  9
$DIMTSZ
 40
0.0
  9
$DIMTOL
 70
     0
  9
$DIMLIM
 70
     0
  9
$DIMTIH
 70
     1
  9
$DIMTOH
 70
     1
  9
$DIMSE1
 70
     0
  9
$DIMSE2
 70
     0
  9
$DIMTAD
 70
     0
  9
$DIMZIN
 70
     0
  9
$DIMBLK
  1

  9
$DIMASO
 70
     1
  9
$DIMSHO
 70
     1
  9
$DIMPOST
  1

  9
$DIMAPOST
  1

  9
$DIMALT
 70
     0
  9
$DIMALTD
 70
     2
  9
$DIMALTF
 40
25.4
  9
$DIMLFAC
 40
1.0
  9
$DIMTOFL
 70
     0
  9
$DIMTVP
 40
0.0
  9
$DIMTIX
 70
     0
  9
$DIMSOXD
 70
     0
  9
$DIMSAH
 70
     0
  9
$DIMBLK1
  1

  9
$DIMBLK2
  1

  9
$DIMSTYLE
  2
Standard
  9
$DIMCLRD
 70
     0
  9
$DIMCLRE
 70
     0
  9
$DIMCLRT
 70
     0
  9
$DIMTFAC
 40
1.0
  9
$DIMGAP
 40
0.09
  9
$DIMJUST
 70
     0
  9
$DIMSD1
 70
     0
  9
$DIMSD2
 70
     0
  9
$DIMTOLJ
 70
     1
  9
$DIMTZIN
 70
     0
  9
$DIMALTZ
 70
     0
  9
$DIMALTTZ
 70
     0
  9
$DIMUPT
 70
     0
  9
$DIMDEC
 70
     4
  9
$DIMTDEC
 70
     4
  9
$DIMALTU
 70
     2
  9
$DIMALTTD
 70
     2
  9
$DIMTXSTY
  7
Standard
  9
$DIMAUNIT
 70
     0
  9
$DIMADEC
 70
     0
  9
$DIMALTRND
 40
0.0
  9
$DIMAZIN
 70
     0
  9
$DIMDSEP
 70
    46
  9
$DIMATFIT
 70
     3
  9
$DIMFRAC
 70
     0
  9
$DIMLDRBLK
  1

  9
$DIMLUNIT
 70
     2
  9
$DIMLWD
 70
    -2
  9
$DIMLWE
 70
    -2
  9
$DIMTMOVE
 70
     0
  9
$DIMFXL
 40
1.0
  9
$DIMFXLON
 70
     0
  9
$DIMJOGANG
 40
0.7853981633974483
  9
$DIMTFILL
 70
     0
  9
$DIMTFILLCLR
 70
     0
  9
$DIMARCSYM
 70
     0
  9
$DIMLTYPE
  6

  9
$DIMLTEX1
  6

  9
$DIMLTEX2
  6

  9
$DIMTXTDIRECTION
 70
     0
  9
$LUNITS
 70
     2
  9
$LUPREC
 70
     4
  9
$SKETCHINC
 40
0.1
  9
$FILLETRAD
 40
0.0
  9
$AUNITS
 70
     0
  9
$AUPREC
 70
     0
  9
$MENU
  1
.
  9
$ELEVATION
 40
0.0
  9
$PELEVATION
 40
0.0
  9
$THICKNESS
 40
0.0
  9
$LIMCHECK
 70
     0
  9
$CHAMFERA
 40
0.0
  9
$CHAMFERB
 40
0.0
  9
$CHAMFERC
 40
0.0
  9
$CHAMFERD
 40
0.0
  9
$SKPOLY
 70
     0
  9
$TDCREATE
 40
2459734.950115741
  9
$TDUCREATE
 40
2459734.533449074
  9
$TDUPDATE
 40
2459734.950115741
  9
$TDUUPDATE
 40
2459734.533449074
  9
$TDINDWG
 40
0.0000000000
  9
$TDUSRTIMER
 40
0.0000000000
  9
$USRTIMER
 70
     1
  9
$ANGBASE
 50
0.0
  9
$ANGDIR
 70
     0
  9
$PDMODE
 70
     0
  9
$PDSIZE
 40
0.0
  9
$PLINEWID
 40
0.0
  9
$SPLFRAME
 70
     0
  9
$SPLINETYPE
 70
     6
  9
$SPLINESEGS
 70
     8
  9
$HANDSEED
  5
90
  9
$SURFTAB1
 70
     6
  9
$SURFTAB2
 70
     6
  9
$SURFTYPE
 70
     6
  9
$SURFU
 70
     6
  9
$SURFV
 70
     6
  9
$UCSBASE
  2

  9
$UCSNAME
  2

  9
$UCSORG
 10
0.0
 20
0.0
 30
0.0
  9
$UCSXDIR
 10
1.0
 20
0.0
 30
0.0
  9
$UCSYDIR
 10
0.0
 20
1.0
 30
0.0
  9
$UCSORTHOREF
  2

  9
$UCSORTHOVIEW
 70
     0
  9
$UCSORGTOP
 10
0.0
 20
0.0
 30
0.0
  9
$UCSORGBOTTOM
 10
0.0
 20
0.0
 30
0.0
  9
$UCSORGLEFT
 10
0.0
 20
0.0
 30
0.0
  9
$UCSORGRIGHT
 10
0.0
 20
0.0
 30
0.0
  9
$UCSORGFRONT
 10
0.0
 20
0.0
 30
0.0
  9
$UCSORGBACK
 10
0.0
 20
0.0
 30
0.0
  9
$PUCSBASE
  2

  9
$PUCSNAME
  2

  9
$PUCSORG
 10
0.0
 20
0.0
 30
0.0
  9
$PUCSXDIR
 10
1.0
 20
0.0
 30
0.0
  9
$PUCSYDIR
 10
0.0
 20
1.0
 30
0.0
  9
$PUCSORTHOREF
  2

  9
$PUCSORTHOVIEW
 70
     0
  9
$PUCSORGTOP
 10
0.0
 20
0.0
 30
0.0
  9
$PUCSORGBOTTOM
 10
0.0
 20
0.0
 30
0.0
  9
$PUCSORGLEFT
 10
0.0
 20
0.0
 30
0.0
  9
$PUCSORGRIGHT
 10
0.0
 20
0.0
 30
0.0
  9
$PUCSORGFRONT
 10
0.0
 20
0.0
 30
0.0
  9
$PUCSORGBACK
 10
0.0
 20
0.0
 30
0.0
  9
$USERI1
 70
     0
  9
$USERI2
 70
     0
  9
$USERI3
 70
     0
  9
$USERI4
 70
     0
  9
$USERI5
 70
     0
  9
$USERR1
 40
0.0
  9
$USERR2
 40
0.0
  9
$USERR3
 40
0.0
  9
$USERR4
 40
0.0
  9
$USERR5
 40
0.0
  9
$WORLDVIEW
 70
     1
  9
$SHADEDGE
 70
     3
  9
$SHADEDIF
 70
    70
  9
$TILEMODE
 70
     1
  9
$MAXACTVP
 70
    64
  9
$PINSBASE
 10
0.0
 20
0.0
 30
0.0
  9
$PLIMCHECK
 70
     0
  9
$PEXTMIN
 10
1.000000000000000E+20
 20
1.000000000000000E+20
 30
1.000000000000000E+20
  9
$PEXTMAX
 10
-1.000000000000000E+20
 20
-1.000000000000000E+20
 30
-1.000000000000000E+20
  9
$PLIMMIN
 10
0.0
 20
0.0
  9
$PLIMMAX
 10
12.0
 20
9.0
  9
$UNITMODE
 70
     0
  9
$VISRETAIN
 70
     1
  9
$PLINEGEN
 70
     0
  9
$PSLTSCALE
 70
     1
  9
$TREEDEPTH
 70
  3020
  9
$CMLSTYLE
  2
Standard
  9
$CMLJUST
 70
     0
  9
$CMLSCALE
 40
1.0
  9
$PROXYGRAPHICS
 70
     1
  9
$MEASUREMENT
 70
     0
  9
$CELWEIGHT
370
    -1
  9
$ENDCAPS
280
     0
  9
$JOINSTYLE
280
     0
  9
$LWDISPLAY
290
     1
  9
$INSUNITS
 70
     4
  9
$HYPERLINKBASE
  1

  9
$STYLESHEET
  1

  9
$XEDIT
290
     1
  9
$CEPSNTYPE
380
     0
  9
$PSTYLEMODE
290
     1
  9
$FINGERPRINTGUID
  2
{1929F384-C846-DC44-98AC-4C34B0981D07}
  9
$VERSIONGUID
  2
{C2ADE5D0-EBB2-2D43-BAB9-EE01B7E66A6E}
  9
$EXTNAMES
290
     1
  9
$PSVPSCALE
 40
0.0
  9
$OLESTARTUP
290
     0
  9
$SORTENTS
280
   127
  9
$INDEXCTL
280
     0
  9
$HIDETEXT
280
     1
  9
$XCLIPFRAME
280
     2
  9
$HALOGAP
280
     0
  9
$OBSCOLOR
 70
   257
  9
$OBSLTYPE
280
     0
  9
$INTERSECTIONDISPLAY
280
     0
  9
$INTERSECTIONCOLOR
 70
   257
  9
$DIMASSOC
280
     2
  9
$PROJECTNAME
  1

  9
$CAMERADISPLAY
290
     0
  9
$LENSLENGTH
 40
50.0
  9
$CAMERAHEIGHT
 40
0.0
  9
$STEPSPERSEC
 40
2.0
  9
$STEPSIZE
 40
6.0
  9
$3DDWFPREC
 40
2.0
  9
$PSOLWIDTH
 40
0.25
  9
$PSOLHEIGHT
 40
4.0
  9
$LOFTANG1
 40
1.570796326794896
  9
$LOFTANG2
 40
1.570796326794896
  9
$LOFTMAG1
 40
0.0
  9
$LOFTMAG2
 40
0.0
  9
$LOFTPARAM
 70
     7
  9
$LOFTNORMALS
280
     1
  9
$LATITUDE
 40
37.795
  9
$LONGITUDE
 40
-122.394
  9
$NORTHDIRECTION
 40
0.0
  9
$TIMEZONE
 70
 -8000
  9
$LIGHTGLYPHDISPLAY
280
     1
  9
$TILEMODELIGHTSYNCH
280
     1
  9
$CMATERIAL
347
11
  9
$SOLIDHIST
280
     0
  9
$SHOWHIST
280
     1
  9
$DWFFRAME
280
     2
  9
$DGNFRAME
280
     0
  9
$REALWORLDSCALE
290
     1
  9
$INTERFERECOLOR
 62
     1
  9
$INTERFEREOBJVS
345
33
  9
$INTERFEREVPVS
346
30
  9
$CSHADOW
280
     0
  9
$SHADOWPLANELOCATION
 40
0.0
  0
ENDSEC
  0
SECTION
  2
CLASSES
  0
CLASS
  1
ACDBDICTIONARYWDFLT
  2
AcDbDictionaryWithDefault
  3
ObjectDBX Classes
 90
        0
 91
        1
280
     0
281
     0
  0
CLASS
  1
MATERIAL
  2
AcDbMaterial
  3
ObjectDBX Classes
 90
     1153
 91
        3
280
     0
281
     0
  0
CLASS
  1
VISUALSTYLE
  2
AcDbVisualStyle
  3
ObjectDBX Classes
 90
     4095
 91
       24
280
     0
281
     0
  0
CLASS
  1
SCALE
  2
AcDbScale
  3
ObjectDBX Classes
 90
     1153
 91
       17
280
     0
281
     0
  0
CLASS
  1
TABLESTYLE
  2
AcDbTableStyle
  3
ObjectDBX Classes
 90
     4095
 91
        1
280
     0
281
     0
  0
CLASS
  1
MLEADERSTYLE
  2
AcDbMLeaderStyle
  3
ACDB_MLEADERSTYLE_CLASS
 90
     4095
 91
        1
280
     0
281
     0
  0
CLASS
  1
ACDBSECTIONVIEWSTYLE
  2
AcDbSectionViewStyle
  3
ObjectDBX Classes
 90
     1025
 91
        1
280
     0
281
     0
  0
CLASS
  1
ACDBDETAILVIEWSTYLE
  2
AcDbDetailViewStyle
  3
ObjectDBX Classes
 90
     1025
 91
        1
280
     0
281
     0
  0
CLASS
  1
DICTIONARYVAR
  2
AcDbDictionaryVar
  3
ObjectDBX Classes
 90
        0
 91
        5
280
     0
281
     0
  0
CLASS
  1
CELLSTYLEMAP
  2
AcDbCellStyleMap
  3
ObjectDBX Classes
 90
     1152
 91
        1
280
     0
281
     0
  0
ENDSEC
  0
SECTION
  2
TABLES
  0
TABLE
  2
VPORT
  5
8
330
0
100
AcDbSymbolTable
 70
     1
1001
ACAD
1000
DbSaveVer
1071
      247
  0
VPORT
  5
57
330
8
100
AcDbSymbolTableRecord
100
AcDbViewportTableRecord
  2
*Active
 70
     0
 10
0.0
 20
0.0
 11
1.0
 21
1.0
 12
0.0
 22
0.0
 13
0.0
 23
0.0
 14
1.0
 24
1.0
 15
0.0
 25
0.0
 16
0.0
 26
0.0
 36
1.0
 17
-111.9583333053439
 27
3.302777776952218
 37
0.0
 40
214.1999999464498
 41
0.9999999999999998
 42
50.0
 43
0.0
 44
0.0
 50
0.0
 51
0.0
 71
     0
 72
   100
 73
     1
 74
     1
 75
     0
 76
     0
 77
     0
 78
     0
281
     0
 65
     1
110
0.0
120
0.0
130
0.0
111
1.0
121
0.0
131
0.0
112
0.0
122
1.0
132
0.0
 79
     0
146
0.0
 60
     3
 61
     5
292
     1
282
     1
141
0.0
142
0.0
 63
   250
421
  3355443
  0
ENDTAB
  0
TABLE
  2
LTYPE
  5
5
330
0
100
AcDbSymbolTable
 70
     1
  0
LTYPE
  5
5B
330
5
100
AcDbSymbolTableRecord
100
AcDbLinetypeTableRecord
  2
ByBlock
 70
     0
  3

 72
    65
 73
     0
 40
0.0
  0
LTYPE
  5
5C
330
5
100
AcDbSymbolTableRecord
100
AcDbLinetypeTableRecord
  2
ByLayer
 70
     0
  3

 72
    65
 73
     0
 40
0.0
  0
LTYPE
  5
5D
330
5
100
AcDbSymbolTableRecord
100
AcDbLinetypeTableRecord
  2
Continuous
 70
     0
  3
Solid line
 72
    65
 73
     0
 40
0.0
  0
ENDTAB
  0
TABLE
  2
LAYER
  5
2
330
0
100
AcDbSymbolTable
 70
     2
  0
LAYER
  5
54
330
2
100
AcDbSymbolTableRecord
100
AcDbLayerTableRecord
  2
0
 70
     0
 62
     7
  6
Continuous
370
    -3
390
F
347
21
348
0
  0
LAYER
  5
78
330
2
100
AcDbSymbolTableRecord
100
AcDbLayerTableRecord
  2
Layer 1
 70
     0
 62
     7
  6
Continuous
370
     0
390
F
347
21
348
0
  0
ENDTAB
  0
TABLE
  2
STYLE
  5
3
330
0
100
AcDbSymbolTable
 70
     2
  0
STYLE
  5
55
330
3
100
AcDbSymbolTableRecord
100
AcDbTextStyleTableRecord
  2
Standard
 70
     0
 40
0.0
 41
1.0
 50
0.0
 71
     0
 42
0.2
  3
txt
  4

  0
STYLE
  5
5A
330
3
100
AcDbSymbolTableRecord
100
AcDbTextStyleTableRecord
  2
Annotative
 70
     0
 40
0.0
 41
1.0
 50
0.0
 71
     0
 42
0.2
  3
txt
  4

1001
AcadAnnotative
1000
AnnotativeData
1002
{
1070
     1
1070
     1
1002
}
  0
ENDTAB
  0
TABLE
  2
VIEW
  5
6
330
0
100
AcDbSymbolTable
 70
     0
  0
ENDTAB
  0
TABLE
  2
UCS
  5
7
330
0
100
AcDbSymbolTable
 70
     0
  0
ENDTAB
  0
TABLE
  2
APPID
  5
9
330
0
100
AcDbSymbolTable
 70
     2
  0
APPID
  5
56
330
9
100
AcDbSymbolTableRecord
100
AcDbRegAppTableRecord
  2
ACAD
 70
     0
  0
APPID
  5
5E
330
9
100
AcDbSymbolTableRecord
100
AcDbRegAppTableRecord
  2
AcadAnnotative
 70
     0
  0
ENDTAB
  0
TABLE
  2
DIMSTYLE
  5
A
330
0
100
AcDbSymbolTable
 70
     2
100
AcDbDimStyleTable
 71
     0
  0
DIMSTYLE
105
58
330
A
100
AcDbSymbolTableRecord
100
AcDbDimStyleTableRecord
  2
Standard
 70
     0
340
55
  0
DIMSTYLE
105
59
330
A
100
AcDbSymbolTableRecord
100
AcDbDimStyleTableRecord
  2
Annotative
 70
     0
340
55
1001
AcadAnnotative
1000
AnnotativeData
1002
{
1070
     1
1070
     1
1002
}
  0
ENDTAB
  0
TABLE
  2
BLOCK_RECORD
  5
1
330
0
100
AcDbSymbolTable
 70
     1
  0
BLOCK_RECORD
  5
70
330
1
100
AcDbSymbolTableRecord
100
AcDbBlockTableRecord
  2
*Model_Space
340
73
 70
     0
280
     1
281
     0
  0
BLOCK_RECORD
  5
6C
330
1
100
AcDbSymbolTableRecord
100
AcDbBlockTableRecord
  2
*Paper_Space
340
6F
 70
     0
280
     1
281
     0
  0
BLOCK_RECORD
  5
74
330
1
100
AcDbSymbolTableRecord
100
AcDbBlockTableRecord
  2
*Paper_Space0
340
77
 70
     0
280
     1
281
     0
  0
ENDTAB
  0
ENDSEC
  0
SECTION
  2
BLOCKS
  0
BLOCK
  5
71
330
70
100
AcDbEntity
  8
0
100
AcDbBlockBegin
  2
*Model_Space
 70
     0
 10
0.0
 20
0.0
 30
0.0
  3
*Model_Space
  1

  0
ENDBLK
  5
72
330
70
100
AcDbEntity
  8
0
100
AcDbBlockEnd
  0
BLOCK
  5
6D
330
6C
100
AcDbEntity
 67
     1
  8
0
100
AcDbBlockBegin
  2
*Paper_Space
 70
     0
 10
0.0
 20
0.0
 30
0.0
  3
*Paper_Space
  1

  0
ENDBLK
  5
6E
330
6C
100
AcDbEntity
 67
     1
  8
0
100
AcDbBlockEnd
  0
BLOCK
  5
75
330
74
100
AcDbEntity
 67
     1
  8
0
100
AcDbBlockBegin
  2
*Paper_Space0
 70
     0
 10
0.0
 20
0.0
 30
0.0
  3
*Paper_Space0
  1

  0
ENDBLK
  5
76
330
74
100
AcDbEntity
 67
     1
  8
0
100
AcDbBlockEnd
  0
ENDSEC
  0
SECTION
  2
ENTITIES
  0
SPLINE
  5
79
330
70
100
AcDbEntity
  8
Layer 1
100
AcDbSpline
210
0.0
220
0.0
230
1.0
 70
     9
 71
     3
 72
   257
 73
   253
 74
     0
 42
0.0000000001
 43
0.0000000001
 40
0.0
 40
0.0
 40
0.0
 40
0.0
 40
1.0
 40
1.0
 40
1.0
 40
2.0
 40
2.0
 40
2.0
 40
3.0
 40
3.0
 40
3.0
 40
4.0
 40
4.0
 40
4.0
 40
5.0
 40
5.0
 40
5.0
 40
6.0
 40
6.0
 40
6.0
 40
7.0
 40
7.0
 40
7.0
 40
8.0
 40
8.0
 40
8.0
 40
9.0
 40
9.0
 40
9.0
 40
10.0
 40
10.0
 40
10.0
 40
11.0
 40
11.0
 40
11.0
 40
12.0
 40
12.0
 40
12.0
 40
13.0
 40
13.0
 40
13.0
 40
14.0
 40
14.0
 40
14.0
 40
15.0
 40
15.0
 40
15.0
 40
16.0
 40
16.0
 40
16.0
 40
17.0
 40
17.0
 40
17.0
 40
18.0
 40
18.0
 40
18.0
 40
19.0
 40
19.0
 40
19.0
 40
20.0
 40
20.0
 40
20.0
 40
21.0
 40
21.0
 40
21.0
 40
22.0
 40
22.0
 40
22.0
 40
23.0
 40
23.0
 40
23.0
 40
24.0
 40
24.0
 40
24.0
 40
25.0
 40
25.0
 40
25.0
 40
26.0
 40
26.0
 40
26.0
 40
27.0
 40
27.0
 40
27.0
 40
28.0
 40
28.0
 40
28.0
 40
29.0
 40
29.0
 40
29.0
 40
30.0
 40
30.0
 40
30.0
 40
31.0
 40
31.0
 40
31.0
 40
32.0
 40
32.0
 40
32.0
 40
33.0
 40
33.0
 40
33.0
 40
34.0
 40
34.0
 40
34.0
 40
35.0
 40
35.0
 40
35.0
 40
36.0
 40
36.0
 40
36.0
 40
37.0
 40
37.0
 40
37.0
 40
38.0
 40
38.0
 40
38.0
 40
39.0
 40
39.0
 40
39.0
 40
40.0
 40
40.0
 40
40.0
 40
41.0
 40
41.0
 40
41.0
 40
42.0
 40
42.0
 40
42.0
 40
43.0
 40
43.0
 40
43.0
 40
44.0
 40
44.0
 40
44.0
 40
45.0
 40
45.0
 40
45.0
 40
46.0
 40
46.0
 40
46.0
 40
47.0
 40
47.0
 40
47.0
 40
48.0
 40
48.0
 40
48.0
 40
49.0
 40
49.0
 40
49.0
 40
50.0
 40
50.0
 40
50.0
 40
51.0
 40
51.0
 40
51.0
 40
52.0
 40
52.0
 40
52.0
 40
53.0
 40
53.0
 40
53.0
 40
54.0
 40
54.0
 40
54.0
 40
55.0
 40
55.0
 40
55.0
 40
56.0
 40
56.0
 40
56.0
 40
57.0
 40
57.0
 40
57.0
 40
58.0
 40
58.0
 40
58.0
 40
59.0
 40
59.0
 40
59.0
 40
60.0
 40
60.0
 40
60.0
 40
61.0
 40
61.0
 40
61.0
 40
62.0
 40
62.0
 40
62.0
 40
63.0
 40
63.0
 40
63.0
 40
64.0
 40
64.0
 40
64.0
 40
65.0
 40
65.0
 40
65.0
 40
66.0
 40
66.0
 40
66.0
 40
67.0
 40
67.0
 40
67.0
 40
68.0
 40
68.0
 40
68.0
 40
69.0
 40
69.0
 40
69.0
 40
70.0
 40
70.0
 40
70.0
 40
71.0
 40
71.0
 40
71.0
 40
72.0
 40
72.0
 40
72.0
 40
73.0
 40
73.0
 40
73.0
 40
74.0
 40
74.0
 40
74.0
 40
75.0
 40
75.0
 40
75.0
 40
76.0
 40
76.0
 40
76.0
 40
77.0
 40
77.0
 40
77.0
 40
78.0
 40
78.0
 40
78.0
 40
79.0
 40
79.0
 40
79.0
 40
80.0
 40
80.0
 40
80.0
 40
81.0
 40
81.0
 40
81.0
 40
82.0
 40
82.0
 40
82.0
 40
83.0
 40
83.0
 40
83.0
 40
84.0
 40
84.0
 40
84.0
 40
84.0
 10
-82.00073999193696
 20
-42.29623176151026
 30
0.0
 10
-82.6133926532111
 20
-42.5076610338066
 30
0.0
 10
-83.22947946617324
 20
-42.71222200273653
 30
0.0
 10
-83.85518190386468
 20
-42.89646424083894
 30
0.0
 10
-84.57566692816582
 20
-43.10863757934455
 30
0.0
 10
-85.30508074685696
 20
-43.30203755528361
 30
0.0
 10
-86.04411019027676
 20
-43.47488985694531
 30
0.0
 10
-86.04456807716811
 20
-43.4750043286667
 30
0.0
 10
-86.04502596406074
 20
-43.47511880039708
 30
0.0
 10
-86.04571279439936
 20
-43.47523327211687
 30
0.0
 10
-86.6986595021528
 20
-43.62793855053989
 30
0.0
 10
-87.36076394774608
 20
-43.75511663474844
 30
0.0
 10
-88.02767620570207
 20
-43.86855811220235
 30
0.0
 10
-88.23624368493213
 20
-43.90410158218027
 30
0.0
 10
-88.44732954206813
 20
-43.93266227705916
 30
0.0
 10
-88.65727068197289
 20
-43.96448541603724
 30
0.0
 10
-89.12774946333341
 20
-44.03585853530811
 30
0.0
 10
-89.60005979226
 20
-44.09996270016555
 30
0.0
 10
-90.07580427287525
 20
-44.15347823064326
 30
0.0
 10
-90.31001341804852
 20
-44.17980672692962
 30
0.0
 10
-90.54468045011381
 20
-44.20453261908823
 30
0.0
 10
-90.78003431251579
 20
-44.22674013333703
 30
0.0
 10
-91.26516547441431
 20
-44.27241435080012
 30
0.0
 10
-91.75281501421622
 20
-44.30824400008345
 30
0.0
 10
-92.24206715814139
 20
-44.3369764025486
 30
0.0
 10
-92.44674259879207
 20
-44.34899593345698
 30
0.0
 10
-92.6502733222115
 20
-44.36467855950034
 30
0.0
 10
-92.85563559319951
 20
-44.37383629733731
 30
0.0
 10
-93.54269487439676
 20
-44.40451471908989
 30
0.0
 10
-94.23273042039003
 20
-44.42294466649291
 30
0.0
 10
-94.92597117462597
 20
-44.42323084580024
 30
0.0
 10
-94.9328394780052
 20
-44.42323084580024
 30
0.0
 10
-94.93993672482725
 20
-44.42374596854683
 30
0.0
 10
-94.9468050282052
 20
-44.42374596854683
 30
0.0
 10
-94.98572541401108
 20
-44.42374596854683
 30
0.0
 10
-95.02487474326297
 20
-44.42105588306072
 30
0.0
 10
-95.06379512906885
 20
-44.42094141134028
 30
0.0
 10
-95.7671093949254
 20
-44.41933880721381
 30
0.0
 10
-96.47339992557929
 20
-44.39982137845018
 30
0.0
 10
-97.18037728657115
 20
-44.36977255117553
 30
0.0
 10
-97.40062088154315
 20
-44.36044310575263
 30
0.0
 10
-97.62109341996051
 20
-44.34830910312444
 30
0.0
 10
-97.84156595837917
 20
-44.33634680807163
 30
0.0
 10
-98.42102181999541
 20
-44.30492432012036
 30
0.0
 10
-99.00093556850299
 20
-44.26503092466594
 30
0.0
 10
-99.58084931701058
 20
-44.21672385758255
 30
0.0
 10
-99.65342438936508
 20
-44.21065685626783
 30
0.0
 10
-99.72599946172213
 20
-44.20802400663759
 30
0.0
 10
-99.79880347752327
 20
-44.20172806187205
 30
0.0
 10
-99.91327520048159
 20
-44.19176902197281
 30
0.0
 10
-100.0275179799939
 20
-44.18158103863144
 30
0.0
 10
-100.1422186463982
 20
-44.1709924042546
 30
0.0
 10
-100.8858269587379
 20
-44.10248107806476
 30
0.0
 10
-101.6292063276297
 20
-44.02235087199368
 30
0.0
 10
-102.3707541489554
 20
-43.92951430468232
 30
0.0
 10
-102.5236883708277
 20
-43.91034029107966
 30
0.0
 10
-102.6761647058092
 20
-43.88744594648837
 30
0.0
 10
-102.8290989276814
 20
-43.86735615911296
 30
0.0
 10
-103.4360280028063
 20
-43.78745489648273
 30
0.0
 10
-104.0415834172571
 20
-43.7007425663407
 30
0.0
 10
-104.6450783406939
 20
-43.60681851765909
 30
0.0
 10
-104.8669245397866
 20
-43.57230529318591
 30
0.0
 10
-105.0883128519893
 20
-43.53721971010094
 30
0.0
 10
-105.3094722207453
 20
-43.50098940978022
 30
0.0
 10
-105.9241853730321
 20
-43.40025429357686
 30
0.0
 10
-106.5363801474149
 20
-43.29356664777951
 30
0.0
 10
-107.1453697135537
 20
-43.18058305721758
 30
0.0
 10
-107.2742648736047
 20
-43.15665846712061
 30
0.0
 10
-107.404304750885
 20
-43.13485160389926
 30
0.0
 10
-107.5329709674906
 20
-43.11041189104574
 30
0.0
 10
-108.2614690123997
 20
-42.97213004971214
 30
0.0
 10
-108.9842434711582
 20
-42.82532006501952
 30
0.0
 10
-109.701523287216
 20
-42.6727864941741
 30
0.0
 10
-109.8945226121248
 20
-42.6317483814942
 30
0.0
 10
-110.0854614460202
 20
-42.58893595711248
 30
0.0
 10
-110.2773160536976
 20
-42.54698207064923
 30
0.0
 10
-110.829069758358
 20
-42.42655781809693
 30
0.0
 10
-111.376702480991
 20
-42.3031000648879
 30
0.0
 10
-111.9195273912607
 20
-42.17637986757038
 30
0.0
 10
-112.1198529064387
 20
-42.12961816873736
 30
0.0
 10
-112.3206363085068
 20
-42.08319988507686
 30
0.0
 10
-112.5195881630089
 20
-42.03569412005704
 30
0.0
 10
-113.2162630689347
 20
-41.86942394245537
 30
0.0
 10
-113.9079012190493
 20
-41.70029197178325
 30
0.0
 10
-114.5869474796393
 20
-41.52698178322924
 30
0.0
 10
-116.0146388083777
 20
-41.16261828904946
 30
0.0
 10
-117.4295093041453
 20
-40.76322644765054
 30
0.0
 10
-118.8327036841692
 20
-40.33241211828943
 30
0.0
 10
-123.4404194766952
 20
-38.91782780182842
 30
0.0
 10
-127.9185532788317
 20
-37.15364684345728
 30
0.0
 10
-132.3211357438145
 20
-35.19406265399379
 30
0.0
 10
-135.9629391380168
 20
-33.573143056902
 30
0.0
 10
-139.5541460306706
 20
-31.82206911080819
 30
0.0
 10
-143.1116982367745
 20
-29.99258203448025
 30
0.0
 10
-143.2241094687196
 20
-29.9347738143893
 30
0.0
 10
-143.3356049268812
 20
-29.87513404673039
 30
0.0
 10
-143.4477872153802
 20
-29.8172113549081
 30
0.0
 10
-143.3163736774233
 20
-28.12297261925767
 30
0.0
 10
-143.0464493546874
 20
-26.46839833561984
 30
0.0
 10
-142.6581612704126
 20
-24.85875420323806
 30
0.0
 10
-142.6172948653161
 20
-24.72676830666904
 30
0.0
 10
-142.5388817350903
 20
-24.47504498788122
 30
0.0
 10
-142.4343690520293
 20
-24.14233292510287
 30
0.0
 10
-142.2597996745178
 20
-24.27689443543758
 30
0.0
 10
-142.0876342031876
 20
-24.41546245607819
 30
0.0
 10
-141.9099740891562
 20
-24.54538786163741
 30
0.0
 10
-141.0502914497388
 20
-25.17435274343188
 30
0.0
 10
-140.1622198230255
 20
-25.76067690843089
 30
0.0
 10
-139.2436987180063
 20
-26.30510442282127
 30
0.0
 10
-137.8659170604797
 20
-27.12168845854611
 30
0.0
 10
-136.4189944822828
 20
-27.84394779455486
 30
0.0
 10
-134.8942311324754
 20
-28.47422910115947
 30
0.0
 10
-134.3168357618724
 20
-28.71295987939006
 30
0.0
 10
-133.7282221624209
 20
-28.91683401797655
 30
0.0
 10
-133.1336560333747
 20
-29.09993153885572
 30
0.0
 10
-133.0649729995995
 20
-29.12110880760043
 30
0.0
 10
-132.9969767961624
 20
-29.14491892597505
 30
0.0
 10
-132.9280648189413
 20
-29.16540936438754
 30
0.0
 10
-132.8014590933483
 20
-29.20295608951777
 30
0.0
 10
-132.6741665374194
 20
-29.23764102156662
 30
0.0
 10
-132.5468739814897
 20
-29.2727838405171
 30
0.0
 10
-132.1054710177617
 20
-29.39475346133036
 30
0.0
 10
-131.6597181285611
 20
-29.50041086162361
 30
0.0
 10
-131.2114468614551
 20
-29.59410596686435
 30
0.0
 10
-131.1141458969408
 20
-29.61442469769058
 30
0.0
 10
-131.0175317627637
 20
-29.63543025884998
 30
0.0
 10
-130.9197729113573
 20
-29.65443256486575
 30
0.0
 10
-130.3503905613617
 20
-29.76552737199611
 30
0.0
 10
-129.7768872293401
 20
-29.85470084417346
 30
0.0
 10
-129.1999497456286
 20
-29.92298322692179
 30
0.0
 10
-129.0999014597635
 20
-29.93483105024487
 30
0.0
 10
-129.0000821173431
 20
-29.94507626945015
 30
0.0
 10
-128.9000338314774
 20
-29.95566490382732
 30
0.0
 10
-128.3150833271592
 20
-30.01753687009063
 30
0.0
 10
-127.7280723318283
 20
-30.06166571928282
 30
0.0
 10
-127.1390008454841
 20
-30.08267128045153
 30
0.0
 10
-127.0611600738723
 20
-30.0854186018022
 30
0.0
 10
-126.9835482457065
 20
-30.0854186018022
 30
0.0
 10
-126.9054785306494
 20
-30.08747909281071
 30
0.0
 10
-126.6657747427742
 20
-30.09388950929637
 30
0.0
 10
-126.4260709548989
 20
-30.1024748885209
 30
0.0
 10
-126.186138223577
 20
-30.1024748885209
 30
0.0
 10
-125.9658946286056
 20
-30.1024748885209
 30
0.0
 10
-125.7458799770796
 20
-30.0864488473063
 30
0.0
 10
-125.5256363821063
 20
-30.08118314805545
 30
0.0
 10
-125.263725079979
 20
-30.07494443914579
 30
0.0
 10
-125.0025006081865
 20
-30.06939256058857
 30
0.0
 10
-124.740818249504
 20
-30.05582766141858
 30
0.0
 10
-124.3493249569864
 20
-30.03556616644824
 30
0.0
 10
-123.9594342685897
 20
-30.00299896127212
 30
0.0
 10
-123.5695435801928
 20
-29.96711207612328
 30
0.0
 10
-123.3234293758309
 20
-29.94444667497318
 30
0.0
 10
-123.077544114917
 20
-29.92618843516412
 30
0.0
 10
-122.8325746277864
 20
-29.89757050442968
 30
0.0
 10
-122.4044503839217
 20
-29.84754636148945
 30
0.0
 10
-121.9799892351903
 20
-29.7826981304346
 30
0.0
 10
-121.5555280864622
 20
-29.71521704974983
 30
0.0
 10
-121.3529131368249
 20
-29.68299325973597
 30
0.0
 10
-121.1489245265122
 20
-29.65786671654992
 30
0.0
 10
-120.9472253506594
 20
-29.62180812381514
 30
0.0
 10
-120.3238123474267
 20
-29.51036990151417
 30
0.0
 10
-119.7049782131132
 20
-29.38382141179222
 30
0.0
 10
-119.094614986299
 20
-29.23792720087332
 30
0.0
 10
-117.9407400188778
 20
-28.96210758441283
 30
0.0
 10
-116.8111330567219
 20
-28.61136622526822
 30
0.0
 10
-115.693431153756
 20
-28.22284919754192
 30
0.0
 10
-114.5757292507893
 20
-27.8343321698259
 30
0.0
 10
-113.4699324070113
 20
-27.40809670938312
 30
0.0
 10
-112.3641355632307
 20
-26.98134612619439
 30
0.0
 10
-110.705440297563
 20
-26.34127748727583
 30
0.0
 10
-109.046516088448
 20
-25.70006413112217
 30
0.0
 10
-107.3466110025145
 20
-25.18345324541296
 30
0.0
 10
-106.7799759738702
 20
-25.01128777408347
 30
0.0
 10
-106.2085331328612
 20
-24.85291614536452
 30
0.0
 10
-105.631366705705
 20
-24.71308893576964
 30
0.0
 10
-105.6311377622589
 20
-24.7130316999144
 30
0.0
 10
-105.6311377622589
 20
-24.71308893576964
 30
0.0
 10
-105.6309088188123
 20
-24.7130316999144
 30
0.0
 10
-105.2101107652169
 20
-24.61115186647624
 30
0.0
 10
-104.7865653902709
 20
-24.54264054028642
 30
0.0
 10
-104.3621042415408
 20
-24.48958289669973
 30
0.0
 10
-104.2810582616857
 20
-24.4794521492136
 30
0.0
 10
-104.2000122818307
 20
-24.46789050519721
 30
0.0
 10
-104.1187373585309
 20
-24.45941959769374
 30
0.0
 10
-103.7098443641234
 20
-24.4168361167532
 30
0.0
 10
-103.2998066524873
 20
-24.3942279514776
 30
0.0
 10
-102.8890821105119
 20
-24.3916523377026
 30
0.0
 10
-102.8606931232167
 20
-24.39148063012629
 30
0.0
 10
-102.8325330793694
 20
-24.38695899706257
 30
0.0
 10
-102.8043730355209
 20
-24.38695899706257
 30
0.0
 10
-102.7514870995143
 20
-24.38695899706257
 30
0.0
 10
-102.6983722200625
 20
-24.39399900802647
 30
0.0
 10
-102.6452573406093
 20
-24.39462860250376
 30
0.0
 10
-102.2757426188998
 20
-24.39892129211635
 30
0.0
 10
-101.9057700102975
 20
-24.41574863539387
 30
0.0
 10
-101.535110571358
 20
-24.4482586047141
 30
0.0
 10
-101.4884061083902
 20
-24.45232235087491
 30
0.0
 10
-101.4417016454242
 20
-24.45386771913619
 30
0.0
 10
-101.3949971824571
 20
-24.45838935218933
 30
0.0
 10
-100.9922856610889
 20
-24.49730973799521
 30
0.0
 10
-100.5893451962742
 20
-24.55477454292486
 30
0.0
 10
-100.1866336749067
 20
-24.62259903877253
 30
0.0
 10
-100.0948273530943
 20
-24.63805272137471
 30
0.0
 10
-100.0027920878359
 20
-24.65430770603883
 30
0.0
 10
-99.9109857660242
 20
-24.67119228517095
 30
0.0
 10
-99.5096479053295
 20
-24.74479760303595
 30
0.0
 10
-99.10853898808399
 20
-24.82727447942192
 30
0.0
 10
-98.7078879577292
 20
-24.92463267979733
 30
0.0
 10
-98.6751490449633
 20
-24.93258846454329
 30
0.0
 10
-98.64263907564273
 20
-24.94208961755181
 30
0.0
 10
-98.60990016287619
 20
-24.95015987401853
 30
0.0
 10
-98.22733566474997
 20
-25.04482798890812
 30
0.0
 10
-97.84545799695917
 20
-25.15065709678732
 30
0.0
 10
-97.46449610295428
 20
-25.26306832872751
 30
0.0
 10
-97.37910019762592
 20
-25.28825210777843
 30
0.0
 10
-97.29370429230014
 20
-25.31280629235142
 30
0.0
 10
-97.20830838697306
 20
-25.33873413760038
 30
0.0
 10
-96.8140677731036
 20
-25.45881497499204
 30
0.0
 10
-96.42097187646413
 20
-25.58605029505551
 30
0.0
 10
-96.02924964049996
 20
-25.72049733367011
 30
0.0
 10
-95.95255358611755
 20
-25.74676859408871
 30
0.0
 10
-95.87631541862775
 20
-25.77424180759928
 30
0.0
 10
-95.80007725113667
 20
-25.80097095491212
 30
0.0
 10
-95.62333291088918
 20
-25.86272844944377
 30
0.0
 10
-95.44819117476304
 20
-25.92843521842672
 30
0.0
 10
-95.27213366485161
 20
-25.99242491155411
 30
0.0
 10
-95.09218411636148
 20
-26.05784550123101
 30
0.0
 10
-94.91131879408799
 20
-26.12091942058372
 30
0.0
 10
-94.73182713248919
 20
-26.18828602953778
 30
0.0
 10
-94.67184394965807
 20
-26.21083695895846
 30
0.0
 10
-94.6111739364896
 20
-26.23275829391116
 30
0.0
 10
-94.5511907536604
 20
-26.25553816678297
 30
0.0
 10
-94.15695013979094
 20
-26.40515270868151
 30
0.0
 10
-93.7647700169361
 20
-26.55871652503134
 30
0.0
 10
-93.37487932853864
 20
-26.71399741722871
 30
0.0
 10
-93.2807835722682
 20
-26.75148690649374
 30
0.0
 10
-93.18691675944055
 20
-26.7890908674898
 30
0.0
 10
-93.09304994661417
 20
-26.82675206434078
 30
0.0
 10
-92.71689586497265
 20
-26.9777975027808
 30
0.0
 10
-92.34165755711638
 20
-27.12970147914796
 30
0.0
 10
-91.97076917473083
 20
-27.28126204034517
 30
0.0
 10
-88.81890475479039
 20
-28.56786697054466
 30
0.0
 10
-85.735036538289
 20
-29.91233735668906
 30
0.0
 10
-82.53623871193667
 20
-30.90309011889762
 30
0.0
 10
-81.8255982558108
 20
-31.12316200628369
 30
0.0
 10
-81.10740266596897
 20
-31.32022507735805
 30
0.0
 10
-80.38348348997917
 20
-31.50091869204688
 30
0.0
 10
-80.37707307349384
 20
-31.76048332385157
 30
0.0
 10
-80.36379435362992
 20
-32.01838811567455
 30
0.0
 10
-80.36379435362992
 20
-32.27944087988465
 30
0.0
 10
-80.36379435362992
 20
-35.78038681898222
 30
0.0
 10
-80.94462387592148
 20
-39.14625612499849
 30
0.0
 10
-82.00073999193696
 20
-42.29623176151026
 30
0.0
  0
SPLINE
  5
7A
330
70
100
AcDbEntity
  8
Layer 1
100
AcDbSpline
210
0.0
220
0.0
230
1.0
 70
     9
 71
     3
 72
    98
 73
    94
 74
     0
 42
0.0000000001
 43
0.0000000001
 40
0.0
 40
0.0
 40
0.0
 40
0.0
 40
1.0
 40
1.0
 40
1.0
 40
2.0
 40
2.0
 40
2.0
 40
3.0
 40
3.0
 40
3.0
 40
4.0
 40
4.0
 40
4.0
 40
5.0
 40
5.0
 40
5.0
 40
6.0
 40
6.0
 40
6.0
 40
7.0
 40
7.0
 40
7.0
 40
8.0
 40
8.0
 40
8.0
 40
9.0
 40
9.0
 40
9.0
 40
10.0
 40
10.0
 40
10.0
 40
11.0
 40
11.0
 40
11.0
 40
12.0
 40
12.0
 40
12.0
 40
13.0
 40
13.0
 40
13.0
 40
14.0
 40
14.0
 40
14.0
 40
15.0
 40
15.0
 40
15.0
 40
16.0
 40
16.0
 40
16.0
 40
17.0
 40
17.0
 40
17.0
 40
18.0
 40
18.0
 40
18.0
 40
19.0
 40
19.0
 40
19.0
 40
20.0
 40
20.0
 40
20.0
 40
21.0
 40
21.0
 40
21.0
 40
22.0
 40
22.0
 40
22.0
 40
23.0
 40
23.0
 40
23.0
 40
24.0
 40
24.0
 40
24.0
 40
25.0
 40
25.0
 40
25.0
 40
26.0
 40
26.0
 40
26.0
 40
27.0
 40
27.0
 40
27.0
 40
28.0
 40
28.0
 40
28.0
 40
29.0
 40
29.0
 40
29.0
 40
30.0
 40
30.0
 40
30.0
 40
31.0
 40
31.0
 40
31.0
 40
31.0
 10
-84.09282520072663
 20
-47.15172159837222
 30
0.0
 10
-84.36915993994846
 20
-47.66936272959546
 30
0.0
 10
-84.65923128592429
 20
-48.17950596295447
 30
0.0
 10
-84.96418395588667
 20
-48.68089210951294
 30
0.0
 10
-85.1480255429581
 20
-48.98218168433938
 30
0.0
 10
-85.34194064164953
 20
-49.27637401234829
 30
0.0
 10
-85.53539785345025
 20
-49.57096699138237
 30
0.0
 10
-85.72633668734502
 20
-49.86218305458884
 30
0.0
 10
-85.92368593772381
 20
-50.14910642818398
 30
0.0
 10
-86.12446933979319
 20
-50.43408378248944
 30
0.0
 10
-86.43720608691687
 20
-50.87777618067644
 30
0.0
 10
-86.76093211944388
 20
-51.31265425618906
 30
0.0
 10
-87.09564743737486
 20
-51.73923313180211
 30
0.0
 10
-87.32184356193956
 20
-52.02764463779175
 30
0.0
 10
-87.55032912096487
 20
-52.31439630380062
 30
0.0
 10
-87.78705664404347
 20
-52.59530991194591
 30
0.0
 10
-88.01966318509478
 20
-52.87153017944218
 30
0.0
 10
-88.25455916060541
 20
-53.14563272006538
 30
0.0
 10
-88.49632343949336
 20
-53.41366825937322
 30
0.0
 10
-88.87911688106687
 20
-53.83761428534707
 30
0.0
 10
-89.27221277770698
 20
-54.25349005486252
 30
0.0
 10
-89.67927422454582
 20
-54.65831930309889
 30
0.0
 10
-89.76902005534681
 20
-54.74777895459255
 30
0.0
 10
-89.84937920486327
 20
-54.84479373979607
 30
0.0
 10
-89.94049869633768
 20
-54.93328038164987
 30
0.0
 10
-89.95011432106631
 20
-54.93402444784823
 30
0.0
 10
-89.9597299457943
 20
-54.93419615543386
 30
0.0
 10
-89.96934557052357
 20
-54.9349402216319
 30
0.0
 10
-91.6910002838197
 20
-55.06726953337216
 30
0.0
 10
-93.45890157318974
 20
-55.13486508577767
 30
0.0
 10
-95.24214207343895
 20
-55.13486508577767
 30
0.0
 10
-102.0548121935885
 20
-55.13486508577767
 30
0.0
 10
-109.2392864699101
 20
-54.18297547352072
 30
0.0
 10
-116.5959262175606
 20
-52.30569645285566
 30
0.0
 10
-124.2295875347709
 20
-50.35681536949009
 30
0.0
 10
-132.2593210134186
 20
-47.30625842437218
 30
0.0
 10
-141.7664265485666
 20
-42.73740578178713
 30
0.0
 10
-141.7687159830253
 20
-42.73626106456292
 30
0.0
 10
-141.7710054174846
 20
-42.73528805491311
 30
0.0
 10
-141.7732948519433
 20
-42.73414333767991
 30
0.0
 10
-141.7987075744405
 20
-42.66191168049956
 30
0.0
 10
-141.8167941066678
 20
-42.58779123987832
 30
0.0
 10
-141.8417489422724
 20
-42.51538787511298
 30
0.0
 10
-142.0315430589385
 20
-41.96260392493926
 30
0.0
 10
-142.2048532474979
 20
-41.40569899274788
 30
0.0
 10
-142.3632821120721
 20
-40.84524543714323
 30
0.0
 10
-142.3994551765261
 20
-40.71686539984464
 30
0.0
 10
-142.4381466188866
 20
-40.58957284391405
 30
0.0
 10
-142.4727170792205
 20
-40.46056321214812
 30
0.0
 10
-142.6467140981166
 20
-39.81334009053529
 30
0.0
 10
-142.8019377544488
 20
-39.16176704345591
 30
0.0
 10
-142.9338091792964
 20
-38.50550065573746
 30
0.0
 10
-142.9551009197664
 20
-38.39955707613751
 30
0.0
 10
-142.9708980175356
 20
-38.29178194897121
 30
0.0
 10
-142.9910450407769
 20
-38.18549495420131
 30
0.0
 10
-143.0959011390053
 20
-37.63534385366649
 30
0.0
 10
-143.1842733091297
 20
-37.08210201661073
 30
0.0
 10
-143.2593667593921
 20
-36.52639903751034
 30
0.0
 10
-143.284779481888
 20
-36.33877988357931
 30
0.0
 10
-143.3092764306013
 20
-36.15087455034064
 30
0.0
 10
-143.3312550014086
 20
-35.96222515090552
 30
0.0
 10
-143.3999380351843
 20
-35.37487074040305
 30
0.0
 10
-143.4541976318655
 20
-34.7850551878656
 30
0.0
 10
-143.4896838659847
 20
-34.19243507810201
 30
0.0
 10
-143.4935759045641
 20
-34.1286170925519
 30
0.0
 10
-143.503420472738
 20
-34.06577211664936
 30
0.0
 10
-143.5068546244274
 20
-34.00189689524368
 30
0.0
 10
-143.505938850644
 20
-34.00235478213567
 30
0.0
 10
-143.5050230768594
 20
-34.00275543316183
 30
0.0
 10
-143.5041073030754
 20
-34.00321332005415
 30
0.0
 10
-138.6905713526719
 20
-36.44850103003339
 30
0.0
 10
-134.1050630743997
 20
-38.61327578290345
 30
0.0
 10
-129.5497753309908
 20
-40.47160973340669
 30
0.0
 10
-124.9086337953615
 20
-42.36502926700613
 30
0.0
 10
-120.2993153987147
 20
-43.94033188250003
 30
0.0
 10
-115.5146263224951
 20
-45.16145898715679
 30
0.0
 10
-112.1981515649418
 20
-46.00797737843747
 30
0.0
 10
-109.1044387802658
 20
-46.66218327514741
 30
0.0
 10
-106.184036184148
 20
-47.14954663563493
 30
0.0
 10
-102.1090717902722
 20
-47.82962314173795
 30
0.0
 10
-98.38141460385088
 20
-48.17475538645085
 30
0.0
 10
-94.94703397165055
 20
-48.17475538645085
 30
0.0
 10
-91.44328347533841
 20
-48.17475538645085
 30
0.0
 10
-88.16046340433434
 20
-47.82235418732421
 30
0.0
 10
-85.18969325011466
 20
-47.12733912138516
 30
0.0
 10
-84.76500315793797
 20
-47.02797766585746
 30
0.0
 10
-84.34077095265392
 20
-46.9216906710866
 30
0.0
 10
-83.91699663426249
 20
-46.80905049569528
 30
0.0
 10
-83.90944150054718
 20
-46.80704724054296
 30
0.0
 10
-83.90188636683122
 20
-46.80538740056094
 30
0.0
 10
-83.89433123311656
 20
-46.80338414540799
 30
0.0
 10
-83.95591702006838
 20
-46.9221485579786
 30
0.0
 10
-84.02986575310013
 20
-47.03375848786549
 30
0.0
 10
-84.09282520072663
 20
-47.15172159837222
 30
0.0
  0
SPLINE
  5
7B
330
70
100
AcDbEntity
  8
Layer 1
100
AcDbSpline
210
0.0
220
0.0
230
1.0
 70
     9
 71
     3
 72
    65
 73
    61
 74
     0
 42
0.0000000001
 43
0.0000000001
 40
0.0
 40
0.0
 40
0.0
 40
0.0
 40
1.0
 40
1.0
 40
1.0
 40
2.0
 40
2.0
 40
2.0
 40
3.0
 40
3.0
 40
3.0
 40
4.0
 40
4.0
 40
4.0
 40
5.0
 40
5.0
 40
5.0
 40
6.0
 40
6.0
 40
6.0
 40
7.0
 40
7.0
 40
7.0
 40
8.0
 40
8.0
 40
8.0
 40
9.0
 40
9.0
 40
9.0
 40
10.0
 40
10.0
 40
10.0
 40
11.0
 40
11.0
 40
11.0
 40
12.0
 40
12.0
 40
12.0
 40
13.0
 40
13.0
 40
13.0
 40
14.0
 40
14.0
 40
14.0
 40
15.0
 40
15.0
 40
15.0
 40
16.0
 40
16.0
 40
16.0
 40
17.0
 40
17.0
 40
17.0
 40
18.0
 40
18.0
 40
18.0
 40
19.0
 40
19.0
 40
19.0
 40
20.0
 40
20.0
 40
20.0
 40
20.0
 10
-111.9589056639585
 20
-63.87392259573568
 30
0.0
 10
-123.6556263158579
 20
-63.87392259573568
 30
0.0
 10
-133.8802406105097
 20
-57.4797610947251
 30
0.0
 10
-139.3419154563053
 20
-48.00819902955277
 30
0.0
 10
-137.8338649780505
 20
-48.69554449005157
 30
0.0
 10
-136.3207777439857
 20
-49.37064147619985
 30
0.0
 10
-134.7950986203936
 20
-50.01465938956969
 30
0.0
 10
-132.5548870020964
 20
-50.96048200051321
 30
0.0
 10
-130.2936125867739
 20
-51.85507851543642
 30
0.0
 10
-128.0066965055088
 20
-52.68517021446574
 30
0.0
 10
-125.719780424245
 20
-53.51526191349603
 30
0.0
 10
-123.4069937335913
 20
-54.28084879664239
 30
0.0
 10
-121.0630707342931
 20
-54.96859490817698
 30
0.0
 10
-119.8913381780906
 20
-55.31246796394428
 30
0.0
 10
-118.7118215447249
 20
-55.63682359094794
 30
0.0
 10
-117.5238340038624
 20
-55.94011642092828
 30
0.0
 10
-116.4649705664963
 20
-56.21032692297469
 30
0.0
 10
-115.3951178437268
 20
-56.45947462798815
 30
0.0
 10
-114.3199994216994
 20
-56.69717516071529
 30
0.0
 10
-113.9969602195111
 20
-56.76860551584141
 30
0.0
 10
-113.6720894697554
 20
-56.83459846413073
 30
0.0
 10
-113.3479055503364
 20
-56.90299531859018
 30
0.0
 10
-112.5635453046247
 20
-57.0682924865417
 30
0.0
 10
-111.7766666810078
 20
-57.22426020908187
 30
0.0
 10
-110.9856670753661
 20
-57.37078401446876
 30
0.0
 10
-110.6401914154772
 20
-57.43477370759487
 30
0.0
 10
-110.2956315293716
 20
-57.49916405175773
 30
0.0
 10
-109.9490111522526
 20
-57.5594334139042
 30
0.0
 10
-109.022248083182
 20
-57.72066683568432
 30
0.0
 10
-108.0920508624209
 20
-57.86822088657594
 30
0.0
 10
-107.158648433417
 20
-58.00186662313662
 30
0.0
 10
-106.9839645841829
 20
-58.02687869460064
 30
0.0
 10
-106.8106543956234
 20
-58.05704199359668
 30
0.0
 10
-106.6357416029426
 20
-58.0810810554234
 30
0.0
 10
-105.5370420059859
 20
-58.23201202214235
 30
0.0
 10
-104.4346793138972
 20
-58.35953352151411
 30
0.0
 10
-103.3297982439012
 20
-58.46954084728386
 30
0.0
 10
-103.0237008567095
 20
-58.50004756145146
 30
0.0
 10
-102.7173745260737
 20
-58.52271296259258
 30
0.0
 10
-102.41081925199
 20
-58.54995723266132
 30
0.0
 10
-101.5898280549318
 20
-58.62293295604807
 30
0.0
 10
-100.7686079144276
 20
-58.6847476864462
 30
0.0
 10
-99.94624305669413
 20
-58.73356987628676
 30
0.0
 10
-99.5861150162672
 20
-58.7549760884826
 30
0.0
 10
-99.22667380617697
 20
-58.77483693240753
 30
0.0
 10
-98.8665457657494
 20
-58.7914353322429
 30
0.0
 10
-98.0038868615353
 20
-58.8312142559679
 30
0.0
 10
-97.14168584421125
 20
-58.85531055364857
 30
0.0
 10
-96.27925588344186
 20
-58.86698666939566
 30
0.0
 10
-96.01734458131202
 20
-58.87053529280059
 30
0.0
 10
-95.75566222262882
 20
-58.88043709684489
 30
0.0
 10
-95.49375092050025
 20
-58.88129563476304
 30
0.0
 10
-95.40995761929449
 20
-58.88158181406975
 30
0.0
 10
-95.32593537464277
 20
-58.88587450368169
 30
0.0
 10
-95.24214207343895
 20
-58.88587450368169
 30
0.0
 10
-95.14186484412533
 20
-58.88587450368169
 30
0.0
 10
-95.04227444515292
 20
-58.87929237961042
 30
0.0
 10
-94.94199721584058
 20
-58.87889172858329
 30
0.0
 10
-99.85787088656977
 20
-62.03470542295868
 30
0.0
 10
-105.6959287574534
 20
-63.87392259573568
 30
0.0
 10
-111.9589056639585
 20
-63.87392259573568
 30
0.0
  0
SPLINE
  5
7C
330
70
100
AcDbEntity
  8
Layer 1
100
AcDbSpline
210
0.0
220
0.0
230
1.0
 70
     9
 71
     3
 72
    38
 73
    34
 74
     0
 42
0.0000000001
 43
0.0000000001
 40
0.0
 40
0.0
 40
0.0
 40
0.0
 40
1.0
 40
1.0
 40
1.0
 40
2.0
 40
2.0
 40
2.0
 40
3.0
 40
3.0
 40
3.0
 40
4.0
 40
4.0
 40
4.0
 40
5.0
 40
5.0
 40
5.0
 40
6.0
 40
6.0
 40
6.0
 40
7.0
 40
7.0
 40
7.0
 40
8.0
 40
8.0
 40
8.0
 40
9.0
 40
9.0
 40
9.0
 40
10.0
 40
10.0
 40
10.0
 40
11.0
 40
11.0
 40
11.0
 40
11.0
 10
-132.775588483961
 20
41.16533039097808
 30
0.0
 10
-132.1844565066029
 20
49.80502644540837
 30
0.0
 10
-122.8898104892643
 20
56.20577007048956
 30
0.0
 10
-112.0154546950991
 20
55.46153216368315
 30
0.0
 10
-103.3824552364624
 20
54.87097254493867
 30
0.0
 10
-96.36762805356497
 20
49.94920358047043
 30
0.0
 10
-94.13085058695635
 20
43.62481259460427
 30
0.0
 10
-94.13085058695635
 20
43.62481259460427
 30
0.0
 10
-96.4056326655875
 20
41.29136375795248
 30
0.0
 10
-96.4056326655875
 20
41.29136375795248
 30
0.0
 10
-96.4056326655875
 20
41.29136375795248
 30
0.0
 10
-101.5644153324352
 20
35.99956494902776
 30
0.0
 10
-101.5644153324352
 20
35.99956494902776
 30
0.0
 10
-101.5644153324352
 20
35.99956494902776
 30
0.0
 10
-108.8489378946213
 20
37.24885209753693
 30
0.0
 10
-108.8489378946213
 20
37.24885209753693
 30
0.0
 10
-108.8489378946213
 20
37.24885209753693
 30
0.0
 10
-116.33973850158
 20
38.53356824430198
 30
0.0
 10
-116.33973850158
 20
38.53356824430198
 30
0.0
 10
-116.33973850158
 20
38.53356824430198
 30
0.0
 10
-112.803020149054
 20
31.80629402947791
 30
0.0
 10
-112.803020149054
 20
31.80629402947791
 30
0.0
 10
-112.803020149054
 20
31.80629402947791
 30
0.0
 10
-109.363831704489
 20
25.26429229825972
 30
0.0
 10
-109.363831704489
 20
25.26429229825972
 30
0.0
 10
-109.363831704489
 20
25.26429229825972
 30
0.0
 10
-109.8931489514501
 20
24.25717007966627
 30
0.0
 10
-109.8931489514501
 20
24.25717007966627
 30
0.0
 10
-111.2757384213419
 20
24.11230611427071
 30
0.0
 10
-112.699995598391
 20
24.07458768155454
 30
0.0
 10
-114.1563048578693
 20
24.17423531638895
 30
0.0
 10
-125.0306606520344
 20
24.91835875147396
 30
0.0
 10
-133.3667204613186
 20
32.52546262896281
 30
0.0
 10
-132.775588483961
 20
41.16533039097808
 30
0.0
  0
SPLINE
  5
7D
330
70
100
AcDbEntity
  8
Layer 1
100
AcDbSpline
210
0.0
220
0.0
230
1.0
 70
    11
 71
     3
 72
    41
 73
    37
 74
     0
 42
0.0000000001
 43
0.0000000001
 40
0.0
 40
0.0
 40
0.0
 40
0.0
 40
1.0
 40
1.0
 40
1.0
 40
2.0
 40
2.0
 40
2.0
 40
3.0
 40
3.0
 40
3.0
 40
4.0
 40
4.0
 40
4.0
 40
5.0
 40
5.0
 40
5.0
 40
6.0
 40
6.0
 40
6.0
 40
7.0
 40
7.0
 40
7.0
 40
8.0
 40
8.0
 40
8.0
 40
9.0
 40
9.0
 40
9.0
 40
10.0
 40
10.0
 40
10.0
 40
11.0
 40
11.0
 40
11.0
 40
12.0
 40
12.0
 40
12.0
 40
12.0
 10
-93.53628445791079
 20
37.41140194413745
 30
0.0
 10
-93.53628445791079
 20
37.41140194413745
 30
0.0
 10
-92.37348069609765
 20
29.40805419763679
 30
0.0
 10
-92.37348069609765
 20
29.40805419763679
 30
0.0
 10
-92.37348069609765
 20
29.40805419763679
 30
0.0
 10
-83.97766664743095
 20
25.26423506239485
 30
0.0
 10
-83.97766664743095
 20
25.26423506239485
 30
0.0
 10
-83.97766664743095
 20
25.26423506239485
 30
0.0
 10
-92.37348069609765
 20
21.12098828577464
 30
0.0
 10
-92.37348069609765
 20
21.12098828577464
 30
0.0
 10
-92.37348069609765
 20
21.12098828577464
 30
0.0
 10
-93.71966815808894
 20
11.85547532192864
 30
0.0
 10
-93.71966815808894
 20
11.85547532192864
 30
0.0
 10
-93.71966815808894
 20
11.85547532192864
 30
0.0
 10
-100.2550877652365
 20
18.56042755078379
 30
0.0
 10
-100.2550877652365
 20
18.56042755078379
 30
0.0
 10
-100.2550877652365
 20
18.56042755078379
 30
0.0
 10
-109.482882296366
 20
16.97722638639726
 30
0.0
 10
-109.482882296366
 20
16.97722638639726
 30
0.0
 10
-109.482882296366
 20
16.97722638639726
 30
0.0
 10
-105.1258595771205
 20
25.26423506239485
 30
0.0
 10
-105.1258595771205
 20
25.26423506239485
 30
0.0
 10
-105.1258595771205
 20
25.26423506239485
 30
0.0
 10
-105.1292937288091
 20
25.27087442233131
 30
0.0
 10
-105.1292937288091
 20
25.27087442233131
 30
0.0
 10
-105.1292937288091
 20
25.27087442233131
 30
0.0
 10
-109.482882296366
 20
33.5518160970039
 30
0.0
 10
-109.482882296366
 20
33.5518160970039
 30
0.0
 10
-109.482882296366
 20
33.5518160970039
 30
0.0
 10
-100.2550877652365
 20
31.96918729124905
 30
0.0
 10
-100.2550877652365
 20
31.96918729124905
 30
0.0
 10
-100.2550877652365
 20
31.96918729124905
 30
0.0
 10
-93.71966815808894
 20
38.67299480286074
 30
0.0
 10
-93.71966815808894
 20
38.67299480286074
 30
0.0
 10
-93.71966815808894
 20
38.67299480286074
 30
0.0
 10
-93.53628445791079
 20
37.41140194413745
 30
0.0
 10
-93.53628445791079
 20
37.41140194413745
 30
0.0
  0
SPLINE
  5
7E
330
70
100
AcDbEntity
  8
Layer 1
100
AcDbSpline
210
0.0
220
0.0
230
1.0
 70
     9
 71
     3
 72
    89
 73
    85
 74
     0
 42
0.0000000001
 43
0.0000000001
 40
0.0
 40
0.0
 40
0.0
 40
0.0
 40
1.0
 40
1.0
 40
1.0
 40
2.0
 40
2.0
 40
2.0
 40
3.0
 40
3.0
 40
3.0
 40
4.0
 40
4.0
 40
4.0
 40
5.0
 40
5.0
 40
5.0
 40
6.0
 40
6.0
 40
6.0
 40
7.0
 40
7.0
 40
7.0
 40
8.0
 40
8.0
 40
8.0
 40
9.0
 40
9.0
 40
9.0
 40
10.0
 40
10.0
 40
10.0
 40
11.0
 40
11.0
 40
11.0
 40
12.0
 40
12.0
 40
12.0
 40
13.0
 40
13.0
 40
13.0
 40
14.0
 40
14.0
 40
14.0
 40
15.0
 40
15.0
 40
15.0
 40
16.0
 40
16.0
 40
16.0
 40
17.0
 40
17.0
 40
17.0
 40
18.0
 40
18.0
 40
18.0
 40
19.0
 40
19.0
 40
19.0
 40
20.0
 40
20.0
 40
20.0
 40
21.0
 40
21.0
 40
21.0
 40
22.0
 40
22.0
 40
22.0
 40
23.0
 40
23.0
 40
23.0
 40
24.0
 40
24.0
 40
24.0
 40
25.0
 40
25.0
 40
25.0
 40
26.0
 40
26.0
 40
26.0
 40
27.0
 40
27.0
 40
27.0
 40
28.0
 40
28.0
 40
28.0
 40
28.0
 10
-127.264003966955
 20
-4.638640767435033
 30
0.0
 10
-127.1902841773693
 20
-4.597717126476202
 30
0.0
 10
-127.1133591795408
 20
-4.563375609589601
 30
0.0
 10
-127.0394104465097
 20
-4.523024327242553
 30
0.0
 10
-126.6573038352755
 20
-4.314857499043156
 30
0.0
 10
-126.2699315247834
 20
-4.118252314861436
 30
0.0
 10
-125.8800408363865
 20
-3.926340471327772
 30
0.0
 10
-125.5528806521709
 20
-3.765107049536105
 30
0.0
 10
-125.2209126555918
 20
-3.612974129726799
 30
0.0
 10
-124.8875709983369
 20
-3.462787229205573
 30
0.0
 10
-124.5940655006717
 20
-3.330801332637197
 30
0.0
 10
-124.3003310595587
 20
-3.198987143643853
 30
0.0
 10
-124.0029335233116
 20
-3.076158984912117
 30
0.0
 10
-123.7499510155737
 20
-2.971417358402212
 30
0.0
 10
-123.4944501299324
 20
-2.872342082181195
 30
0.0
 10
-123.2382624139511
 20
-2.774068108022448
 30
0.0
 10
-122.9149942683161
 20
-2.650381411371274
 30
0.0
 10
-122.5894366882218
 20
-2.53224659327829
 30
0.0
 10
-122.2622765040061
 20
-2.41926300271605
 30
0.0
 10
-122.0305857367388
 20
-2.339132796644644
 30
0.0
 10
-121.7995817998082
 20
-2.258029580925346
 30
0.0
 10
-121.5658305415269
 20
-2.183165074116024
 30
0.0
 10
-121.1086304800309
 20
-2.037270863205462
 30
0.0
 10
-120.647767323399
 20
-1.902652117006205
 30
0.0
 10
-120.1839279019711
 20
-1.777763467256332
 30
0.0
 10
-120.0749508217154
 20
-1.748401470314214
 30
0.0
 10
-119.9684921193637
 20
-1.713602066534659
 30
0.0
 10
-119.8592860956614
 20
-1.685327550972093
 30
0.0
 10
-119.2828064988425
 20
-1.536686018701876
 30
0.0
 10
-118.7006033158755
 20
-1.40761915106915
 30
0.0
 10
-118.1149659812206
 20
-1.291659295714734
 30
0.0
 10
-117.9354743196212
 20
-1.256001354008041
 30
0.0
 10
-117.7534642801158
 20
-1.227154479821501
 30
0.0
 10
-117.5728279012889
 20
-1.194587274646023
 30
0.0
 10
-117.1460773180983
 20
-1.117833984403221
 30
0.0
 10
-116.7177241307901
 20
-1.048177940979243
 30
0.0
 10
-116.2870815090195
 20
-0.9889388243471318
 30
0.0
 10
-116.0828639552608
 20
-0.9608360163599185
 30
0.0
 10
-115.8779595711648
 20
-0.9347936993898796
 30
0.0
 10
-115.6725973001774
 20
-0.9106401658433739
 30
0.0
 10
-115.2408099611786
 20
-0.8598719567156889
 30
0.0
 10
-114.8071910746119
 20
-0.8195779102344705
 30
0.0
 10
-114.3724274708153
 20
-0.7864955823018124
 30
0.0
 10
-114.1856096189465
 20
-0.7723010886548591
 30
0.0
 10
-113.9999364843071
 20
-0.7546724433141123
 30
0.0
 10
-113.8124318021036
 20
-0.743797629630254
 30
0.0
 10
-113.1970318194775
 20
-0.7079679803472454
 30
0.0
 10
-112.579342402394
 20
-0.6850163998901344
 30
0.0
 10
-111.9589056639585
 20
-0.6850163998901344
 30
0.0
 10
-111.4504222705761
 20
-0.6850163998901344
 30
0.0
 10
-110.9451440854376
 20
-0.6996687804290801
 30
0.0
 10
-110.4423842782038
 20
-0.7235361346695344
 30
0.0
 10
-110.3231047428821
 20
-0.7290880132360658
 30
0.0
 10
-110.2045120378965
 20
-0.738417458659289
 30
0.0
 10
-110.0856903894655
 20
-0.7452857620362882
 30
0.0
 10
-109.6809183770841
 20
-0.7690958804112328
 30
0.0
 10
-109.2775200253786
 20
-0.798457877343725
 30
0.0
 10
-108.8768689950232
 20
-0.8374354990157591
 30
0.0
 10
-108.7788812001708
 20
-0.8468221802926207
 30
0.0
 10
-108.6808934053191
 20
-0.8572963429496752
 30
0.0
 10
-108.5829056104667
 20
-0.8675987980111633
 30
0.0
 10
-108.1163188676875
 20
-0.9173939975002625
 30
0.0
 10
-107.6520215593682
 20
-0.9749732741506667
 30
0.0
 10
-107.1916162896289
 20
-1.044915496871712
 30
0.0
 10
-107.172842927063
 20
-1.04777728995244
 30
0.0
 10
-107.153840621053
 20
-1.050181196132192
 30
0.0
 10
-107.1350672584865
 20
-1.053042989203615
 30
0.0
 10
-106.9999906253962
 20
-1.073647899336217
 30
0.0
 10
-106.8637692750753
 20
-1.089387761244768
 30
0.0
 10
-106.7291505288757
 20
-1.111709747223945
 30
0.0
 10
-106.7378503798223
 20
-1.114914955467251
 30
0.0
 10
-106.7470081176583
 20
-1.117833984403221
 30
0.0
 10
-106.7557079686036
 20
-1.121039192646206
 30
0.0
 10
-107.3708790077804
 20
-1.349581987526753
 30
0.0
 10
-107.9958946151352
 20
-1.569539403192388
 30
0.0
 10
-108.6307547906632
 20
-1.779995665850143
 30
0.0
 10
-114.3976112498665
 20
-3.693276043383826
 30
0.0
 10
-120.1521047629892
 20
-4.663423895459793
 30
0.0
 10
-125.7339749178923
 20
-4.663423895459793
 30
0.0
 10
-126.2367347251255
 20
-4.663423895459793
 30
0.0
 10
-126.739494532358
 20
-4.655067459676118
 30
0.0
 10
-127.2408806789178
 20
-4.639041418461836
 30
0.0
 10
-127.2486647560778
 20
-4.638812475021294
 30
0.0
 10
-127.2562198897931
 20
-4.638869710876537
 30
0.0
 10
-127.264003966955
 20
-4.638640767435033
 30
0.0
  0
SPLINE
  5
7F
330
70
100
AcDbEntity
  8
Layer 1
100
AcDbSpline
210
0.0
220
0.0
230
1.0
 70
     9
 71
     3
 72
   221
 73
   217
 74
     0
 42
0.0000000001
 43
0.0000000001
 40
0.0
 40
0.0
 40
0.0
 40
0.0
 40
1.0
 40
1.0
 40
1.0
 40
2.0
 40
2.0
 40
2.0
 40
3.0
 40
3.0
 40
3.0
 40
4.0
 40
4.0
 40
4.0
 40
5.0
 40
5.0
 40
5.0
 40
6.0
 40
6.0
 40
6.0
 40
7.0
 40
7.0
 40
7.0
 40
8.0
 40
8.0
 40
8.0
 40
9.0
 40
9.0
 40
9.0
 40
10.0
 40
10.0
 40
10.0
 40
11.0
 40
11.0
 40
11.0
 40
12.0
 40
12.0
 40
12.0
 40
13.0
 40
13.0
 40
13.0
 40
14.0
 40
14.0
 40
14.0
 40
15.0
 40
15.0
 40
15.0
 40
16.0
 40
16.0
 40
16.0
 40
17.0
 40
17.0
 40
17.0
 40
18.0
 40
18.0
 40
18.0
 40
19.0
 40
19.0
 40
19.0
 40
20.0
 40
20.0
 40
20.0
 40
21.0
 40
21.0
 40
21.0
 40
22.0
 40
22.0
 40
22.0
 40
23.0
 40
23.0
 40
23.0
 40
24.0
 40
24.0
 40
24.0
 40
25.0
 40
25.0
 40
25.0
 40
26.0
 40
26.0
 40
26.0
 40
27.0
 40
27.0
 40
27.0
 40
28.0
 40
28.0
 40
28.0
 40
29.0
 40
29.0
 40
29.0
 40
30.0
 40
30.0
 40
30.0
 40
31.0
 40
31.0
 40
31.0
 40
32.0
 40
32.0
 40
32.0
 40
33.0
 40
33.0
 40
33.0
 40
34.0
 40
34.0
 40
34.0
 40
35.0
 40
35.0
 40
35.0
 40
36.0
 40
36.0
 40
36.0
 40
37.0
 40
37.0
 40
37.0
 40
38.0
 40
38.0
 40
38.0
 40
39.0
 40
39.0
 40
39.0
 40
40.0
 40
40.0
 40
40.0
 40
41.0
 40
41.0
 40
41.0
 40
42.0
 40
42.0
 40
42.0
 40
43.0
 40
43.0
 40
43.0
 40
44.0
 40
44.0
 40
44.0
 40
45.0
 40
45.0
 40
45.0
 40
46.0
 40
46.0
 40
46.0
 40
47.0
 40
47.0
 40
47.0
 40
48.0
 40
48.0
 40
48.0
 40
49.0
 40
49.0
 40
49.0
 40
50.0
 40
50.0
 40
50.0
 40
51.0
 40
51.0
 40
51.0
 40
52.0
 40
52.0
 40
52.0
 40
53.0
 40
53.0
 40
53.0
 40
54.0
 40
54.0
 40
54.0
 40
55.0
 40
55.0
 40
55.0
 40
56.0
 40
56.0
 40
56.0
 40
57.0
 40
57.0
 40
57.0
 40
58.0
 40
58.0
 40
58.0
 40
59.0
 40
59.0
 40
59.0
 40
60.0
 40
60.0
 40
60.0
 40
61.0
 40
61.0
 40
61.0
 40
62.0
 40
62.0
 40
62.0
 40
63.0
 40
63.0
 40
63.0
 40
64.0
 40
64.0
 40
64.0
 40
65.0
 40
65.0
 40
65.0
 40
66.0
 40
66.0
 40
66.0
 40
67.0
 40
67.0
 40
67.0
 40
68.0
 40
68.0
 40
68.0
 40
69.0
 40
69.0
 40
69.0
 40
70.0
 40
70.0
 40
70.0
 40
71.0
 40
71.0
 40
71.0
 40
72.0
 40
72.0
 40
72.0
 40
72.0
 10
-87.03726685866508
 20
-17.04079341206401
 30
0.0
 10
-88.12474822677046
 20
-16.57724016994245
 30
0.0
 10
-89.21108487764653
 20
-16.11328627679441
 30
0.0
 10
-90.30360300156191
 20
-15.67274185098553
 30
0.0
 10
-90.84986206351898
 20
-15.45249825601352
 30
0.0
 10
-91.39772372960056
 20
-15.23809271891474
 30
0.0
 10
-91.94787483013891
 20
-15.0325587403459
 30
0.0
 10
-92.53397005168519
 20
-14.81351709846393
 30
0.0
 10
-93.1189205560047
 20
-14.61834281082177
 30
0.0
 10
-93.70387106032163
 20
-14.43404333685353
 30
0.0
 10
-93.8531421870592
 20
-14.38699545871542
 30
0.0
 10
-94.00264225724276
 20
-14.3413212412626
 30
0.0
 10
-94.15191338398159
 20
-14.29650556171734
 30
0.0
 10
-94.70733018377593
 20
-14.12994920481123
 30
0.0
 10
-95.26297592701562
 20
-13.97489725606467
 30
0.0
 10
-95.81862167025596
 20
-13.84027850986573
 30
0.0
 10
-95.85158952646914
 20
-13.83226548926389
 30
0.0
 10
-95.88478632612639
 20
-13.82230644936401
 30
0.0
 10
-95.91775418233895
 20
-13.81440790048228
 30
0.0
 10
-96.50018630875187
 20
-13.67532475708513
 30
0.0
 10
-97.08307632205675
 20
-13.55976555275655
 30
0.0
 10
-97.66688210914436
 20
-13.45634035106803
 30
0.0
 10
-97.8161532358832
 20
-13.42984014719733
 30
0.0
 10
-97.96588224951147
 20
-13.4054004343544
 30
0.0
 10
-98.11538231969567
 20
-13.38124690080693
 30
0.0
 10
-98.65133892658739
 20
-13.29482074997127
 30
0.0
 10
-99.18798236381645
 20
-13.22052860177341
 30
0.0
 10
-99.72599946172213
 20
-13.16455192924883
 30
0.0
 10
-99.7832353232013
 20
-13.15859939965517
 30
0.0
 10
-99.8402422412351
 20
-13.14967060526004
 30
0.0
 10
-99.89747810271362
 20
-13.1440614908373
 30
0.0
 10
-100.4831154373704
 20
-13.08671115763738
 30
0.0
 10
-101.0712711499301
 20
-13.05271305591144
 30
0.0
 10
-101.6608005231669
 20
-13.03199367405808
 30
0.0
 10
-101.8098427064585
 20
-13.02678521066183
 30
0.0
 10
-101.9595717200887
 20
-13.02409512517699
 30
0.0
 10
-102.1090717902722
 20
-13.02123333210525
 30
0.0
 10
-102.2897081690997
 20
-13.0177419445469
 30
0.0
 10
-102.4696577175912
 20
-13.00824079154769
 30
0.0
 10
-102.6507519833106
 20
-13.00824079154769
 30
0.0
 10
-103.0150010057661
 20
-13.00824079154769
 30
0.0
 10
-103.3806236888944
 20
-13.01951625625899
 30
0.0
 10
-103.746933202362
 20
-13.03365351403915
 30
0.0
 10
-103.8016506859358
 20
-13.03577124091317
 30
0.0
 10
-103.8559102826183
 20
-13.03502717471481
 30
0.0
 10
-103.9108567096388
 20
-13.0374310808952
 30
0.0
 10
-104.505422838685
 20
-13.06381681304546
 30
0.0
 10
-105.1041099497572
 20
-13.11424160700223
 30
0.0
 10
-105.7050864952894
 20
-13.17817406427373
 30
0.0
 10
-105.8497787531103
 20
-13.19357051101073
 30
0.0
 10
-105.9951578412665
 20
-13.21068403359397
 30
0.0
 10
-106.1403079859787
 20
-13.22825544306889
 30
0.0
 10
-106.7490686086722
 20
-13.30208970437572
 30
0.0
 10
-107.3601186658238
 20
-13.38805796831906
 30
0.0
 10
-107.9768923091252
 20
-13.50092708716119
 30
0.0
 10
-109.0270558955447
 20
-13.69289616656005
 30
0.0
 10
-110.0584461194022
 20
-13.9606455265628
 30
0.0
 10
-111.0774733971772
 20
-14.27515658538733
 30
0.0
 10
-113.6251560633422
 20
-15.06140561453116
 30
0.0
 10
-116.097287392354
 20
-16.14001542410661
 30
0.0
 10
-118.5994103127799
 20
-17.0577352270626
 30
0.0
 10
-118.6726722154749
 20
-17.08463608196042
 30
0.0
 10
-118.7466209485067
 20
-17.10838896447017
 30
0.0
 10
-118.8198828511979
 20
-17.13500364006258
 30
0.0
 10
-119.2473202647252
 20
-17.28999835294267
 30
0.0
 10
-119.675215565144
 20
-17.44287533895996
 30
0.0
 10
-120.1051713565773
 20
-17.58544986990647
 30
0.0
 10
-120.6003760300951
 20
-17.74971679234395
 30
0.0
 10
-121.084820361655
 20
-17.8938939274166
 30
0.0
 10
-121.5621674463922
 20
-18.01924046404916
 30
0.0
 10
-121.7146437813731
 20
-18.05930556708887
 30
0.0
 10
-121.8625412474353
 20
-18.08517617647329
 30
0.0
 10
-122.0136439217408
 20
-18.12123476920679
 30
0.0
 10
-122.0990398270673
 20
-18.14155350003398
 30
0.0
 10
-122.183519958611
 20
-18.15883873020252
 30
0.0
 10
-122.268457977048
 20
-18.17789827207417
 30
0.0
 10
-122.5033539525561
 20
-18.23055526463437
 30
0.0
 10
-122.7409972494187
 20
-18.29185487227564
 30
0.0
 10
-122.9731459035786
 20
-18.33455282494687
 30
0.0
 10
-123.1569874906507
 20
-18.36837921907661
 30
0.0
 10
-123.3378528129249
 20
-18.38629404372406
 30
0.0
 10
-123.5203207393197
 20
-18.41371002136814
 30
0.0
 10
-123.7994027998928
 20
-18.45566390783139
 30
0.0
 10
-124.079171690804
 20
-18.50191048390659
 30
0.0
 10
-124.3561932603625
 20
-18.52886857465997
 30
0.0
 10
-124.5512530762858
 20
-18.54781364481054
 30
0.0
 10
-124.7453971184213
 20
-18.55061820202672
 30
0.0
 10
-124.9399990474514
 20
-18.56206537432204
 30
0.0
 10
-125.2023682364726
 20
-18.57746182105935
 30
0.0
 10
-125.4649663689391
 20
-18.59743713671434
 30
0.0
 10
-125.7273355579603
 20
-18.59892526911107
 30
0.0
 10
-125.755266658361
 20
-18.59909697669637
 30
0.0
 10
-125.7831977587629
 20
-18.6028745435614
 30
0.0
 10
-125.8111288591648
 20
-18.6028745435614
 30
0.0
 10
-126.0343487189347
 20
-18.6028745435614
 30
0.0
 10
-126.2594001262714
 20
-18.58318540721247
 30
0.0
 10
-126.483535759824
 20
-18.57294018800622
 30
0.0
 10
-126.6744745937182
 20
-18.56424033706125
 30
0.0
 10
-126.8647265972769
 20
-18.56361074258428
 30
0.0
 10
-127.0565812049549
 20
-18.54741299378374
 30
0.0
 10
-127.3251318670142
 20
-18.5246903567784
 30
0.0
 10
-127.59734562421
 20
-18.48267923444996
 30
0.0
 10
-127.8686436076212
 20
-18.44501803759898
 30
0.0
 10
-128.0479063257746
 20
-18.42017767371994
 30
0.0
 10
-128.2251085529141
 20
-18.4048384628382
 30
0.0
 10
-128.4059738751889
 20
-18.37341597488661
 30
0.0
 10
-128.7104686582574
 20
-18.32047280302067
 30
0.0
 10
-129.0213738578137
 20
-18.24623789067741
 30
0.0
 10
-129.3315922270308
 20
-18.17446412038101
 30
0.0
 10
-129.4847553923497
 20
-18.13903512213348
 30
0.0
 10
-129.6342554625332
 20
-18.11425199410903
 30
0.0
 10
-129.7892501754188
 20
-18.074186891069
 30
0.0
 10
-130.2572105788727
 20
-17.95296133646277
 30
0.0
 10
-130.7327261160426
 20
-17.81141705102132
 30
0.0
 10
-131.2192309386171
 20
-17.64709289271769
 30
0.0
 10
-132.3067123067225
 20
-17.27963866201631
 30
0.0
 10
-133.3298605665248
 20
-16.72256202224027
 30
0.0
 10
-134.3122568929544
 20
-16.0348731465699
 30
0.0
 10
-134.6398749640621
 20
-15.80558628548201
 30
0.0
 10
-134.9626852228051
 20
-15.56187598730597
 30
0.0
 10
-135.2820613298589
 20
-15.30574550718545
 30
0.0
 10
-135.9787362357854
 20
-14.74695179156219
 30
0.0
 10
-136.65755355293
 20
-14.12622887382101
 30
0.0
 10
-137.3283578494647
 20
-13.47270980745387
 30
0.0
 10
-137.3283578494647
 20
-13.47270980745387
 30
0.0
 10
-136.0696267838144
 20
-11.89271385131064
 30
0.0
 10
-136.0696267838144
 20
-11.89271385131064
 30
0.0
 10
-135.0492258453628
 20
-10.68795620304004
 30
0.0
 10
-133.9338133768549
 20
-9.568251044919819
 30
0.0
 10
-132.7465126663279
 20
-8.52793202667296
 30
0.0
 10
-132.7465126663279
 20
-8.52793202667296
 30
0.0
 10
-132.0659782733412
 20
-8.008287640306711
 30
0.0
 10
-132.0659782733412
 20
-8.008287640306711
 30
0.0
 10
-131.8932404433957
 20
-8.031639871790625
 30
0.0
 10
-131.7208460286216
 20
-8.057624952894514
 30
0.0
 10
-131.5477647835062
 20
-8.077771976135123
 30
0.0
 10
-131.3572838365053
 20
-8.099979490394511
 30
0.0
 10
-131.1665739460559
 20
-8.116463418500142
 30
0.0
 10
-130.9758640556072
 20
-8.13643873415449
 30
0.0
 10
-130.5726946473477
 20
-8.178621564069189
 30
0.0
 10
-130.1695252390869
 20
-8.218629431234729
 30
0.0
 10
-129.7661268873815
 20
-8.25085322124827
 30
0.0
 10
-129.5392439324775
 20
-8.268996989336573
 30
0.0
 10
-129.3123609775742
 20
-8.282962539541381
 30
0.0
 10
-129.0857069661162
 20
-8.297958335251566
 30
0.0
 10
-128.7152764706233
 20
-8.322398048105087
 30
0.0
 10
-128.3448459751291
 20
-8.344033203741783
 30
0.0
 10
-127.9744154796355
 20
-8.360230952541364
 30
0.0
 10
-127.7381458434496
 20
-8.370590643467719
 30
0.0
 10
-127.5018762072636
 20
-8.379061550962202
 30
0.0
 10
-127.265606571077
 20
-8.386158797790329
 30
0.0
 10
-126.8981523403788
 20
-8.397090847328788
 30
0.0
 10
-126.5306981096813
 20
-8.403444027959515
 30
0.0
 10
-126.163243878985
 20
-8.406477528616239
 30
0.0
 10
-126.0201542252875
 20
-8.407679481706917
 30
0.0
 10
-125.8770645715892
 20
-8.414433313363485
 30
0.0
 10
-125.7339749178923
 20
-8.414433313363485
 30
0.0
 10
-125.6593393545226
 20
-8.414433313363485
 30
0.0
 10
-125.5849327346001
 20
-8.409797208579334
 30
0.0
 10
-125.5105261146763
 20
-8.409453793407772
 30
0.0
 10
-124.8246115507097
 20
-8.406477528616239
 30
0.0
 10
-124.1389259301872
 20
-8.393599459780395
 30
0.0
 10
-123.4539271400039
 20
-8.363779575946285
 30
0.0
 10
-123.3804362938654
 20
-8.3605743677033
 30
0.0
 10
-123.3071743911723
 20
-8.354564602254081
 30
0.0
 10
-123.2336835450319
 20
-8.351073214704724
 30
0.0
 10
-122.6130178631523
 20
-8.321539510176023
 30
0.0
 10
-121.9930390116083
 20
-8.279413916127797
 30
0.0
 10
-121.3735180469561
 20
-8.228416763548342
 30
0.0
 10
-121.1818923827247
 20
-8.212676901640753
 30
0.0
 10
-120.9907246053833
 20
-8.195677850787564
 30
0.0
 10
-120.7993278845972
 20
-8.177934733726386
 30
0.0
 10
-120.2061354162257
 20
-8.122873834985471
 30
0.0
 10
-119.6138587216381
 20
-8.059055849434397
 30
0.0
 10
-119.0224978008359
 20
-7.984935408823759
 30
0.0
 10
-118.9215337411855
 20
-7.972286283428136
 30
0.0
 10
-118.8205696815365
 20
-7.962441715257999
 30
0.0
 10
-118.7198345653322
 20
-7.949277467115141
 30
0.0
 10
-118.0396435875129
 20
-7.860275702514107
 30
0.0
 10
-117.3612841572622
 20
-7.756507085652734
 30
0.0
 10
-116.6842983876843
 20
-7.643008372344222
 30
0.0
 10
-116.5073251039908
 20
-7.61336019609509
 30
0.0
 10
-116.3310386506347
 20
-7.580850226774856
 30
0.0
 10
-116.1542943103872
 20
-7.549542210544016
 30
0.0
 10
-115.6103246828888
 20
-7.453157019817786
 30
0.0
 10
-115.0677287160652
 20
-7.349273931226997
 30
0.0
 10
-114.5262774664708
 20
-7.237664001350361
 30
0.0
 10
-114.3641855067613
 20
-7.204238258246141
 30
0.0
 10
-114.2020935470537
 20
-7.172873006150433
 30
0.0
 10
-114.0404594742356
 20
-7.138130838236389
 30
0.0
 10
-113.3691972908063
 20
-6.993953703164061
 30
0.0
 10
-112.7002245418376
 20
-6.839187933723873
 30
0.0
 10
-112.0335412273276
 20
-6.672288161656152
 30
0.0
 10
-111.9023566328167
 20
-6.639434777164357
 30
0.0
 10
-111.7718588686431
 20
-6.603261712709145
 30
0.0
 10
-111.6409032175795
 20
-6.569549790298875
 30
0.0
 10
-111.0861732481232
 20
-6.426803551767393
 30
0.0
 10
-110.5332748262335
 20
-6.276216000219363
 30
0.0
 10
-109.9822079519112
 20
-6.118130550816721
 30
0.0
 10
-109.8004268558524
 20
-6.06604591686766
 30
0.0
 10
-109.6188747032396
 20
-6.014018518784429
 30
0.0
 10
-109.4375514940742
 20
-5.960274044854301
 30
0.0
 10
-108.7722418402389
 20
-5.763096502058553
 30
0.0
 10
-108.1087637339722
 20
-5.558878948300506
 30
0.0
 10
-107.4496355531768
 20
-5.340180721590417
 30
0.0
 10
-105.5933620936831
 20
-4.724837974820206
 30
0.0
 10
-103.7414385596594
 20
-4.011564669063772
 30
0.0
 10
-101.9293511852262
 20
-3.192920142329766
 30
0.0
 10
-101.5802124302038
 20
-3.035178108098044
 30
0.0
 10
-101.2409182433549
 20
-2.854427257544664
 30
0.0
 10
-100.8949846965739
 20
-2.688843910285485
 30
0.0
 10
-93.28856764942822
 20
-5.542166076744065
 30
0.0
 10
-87.06519795906698
 20
-11.24549072970711
 30
0.0
 10
-83.53511896647232
 20
-18.49481323708873
 30
0.0
 10
-84.70891201368878
 20
-18.02937121153401
 30
0.0
 10
-85.87400520996059
 20
-17.53668491592114
 30
0.0
 10
-87.03726685866508
 20
-17.04079341206401
 30
0.0
  0
SPLINE
  5
80
330
70
100
AcDbEntity
  8
Layer 1
100
AcDbSpline
210
0.0
220
0.0
230
1.0
 70
     9
 71
     3
 72
   110
 73
   106
 74
     0
 42
0.0000000001
 43
0.0000000001
 40
0.0
 40
0.0
 40
0.0
 40
0.0
 40
1.0
 40
1.0
 40
1.0
 40
2.0
 40
2.0
 40
2.0
 40
3.0
 40
3.0
 40
3.0
 40
4.0
 40
4.0
 40
4.0
 40
5.0
 40
5.0
 40
5.0
 40
6.0
 40
6.0
 40
6.0
 40
7.0
 40
7.0
 40
7.0
 40
8.0
 40
8.0
 40
8.0
 40
9.0
 40
9.0
 40
9.0
 40
10.0
 40
10.0
 40
10.0
 40
11.0
 40
11.0
 40
11.0
 40
12.0
 40
12.0
 40
12.0
 40
13.0
 40
13.0
 40
13.0
 40
14.0
 40
14.0
 40
14.0
 40
15.0
 40
15.0
 40
15.0
 40
16.0
 40
16.0
 40
16.0
 40
17.0
 40
17.0
 40
17.0
 40
18.0
 40
18.0
 40
18.0
 40
19.0
 40
19.0
 40
19.0
 40
20.0
 40
20.0
 40
20.0
 40
21.0
 40
21.0
 40
21.0
 40
22.0
 40
22.0
 40
22.0
 40
23.0
 40
23.0
 40
23.0
 40
24.0
 40
24.0
 40
24.0
 40
25.0
 40
25.0
 40
25.0
 40
26.0
 40
26.0
 40
26.0
 40
27.0
 40
27.0
 40
27.0
 40
28.0
 40
28.0
 40
28.0
 40
29.0
 40
29.0
 40
29.0
 40
30.0
 40
30.0
 40
30.0
 40
31.0
 40
31.0
 40
31.0
 40
32.0
 40
32.0
 40
32.0
 40
33.0
 40
33.0
 40
33.0
 40
34.0
 40
34.0
 40
34.0
 40
35.0
 40
35.0
 40
35.0
 40
35.0
 10
-81.69853464332588
 20
-23.16125302348909
 30
0.0
 10
-81.64427504664402
 20
-23.34125980783543
 30
0.0
 10
-81.60649937806748
 20
-23.52533033835287
 30
0.0
 10
-81.55544498962894
 20
-23.70619566062701
 30
0.0
 10
-81.44486530525062
 20
-24.09911984968568
 30
0.0
 10
-81.34000920702092
 20
-24.49347493527461
 30
0.0
 10
-81.24499767696521
 20
-24.89034839877463
 30
0.0
 10
-81.18570132447144
 20
-25.13697772588696
 30
0.0
 10
-81.12686285887159
 20
-25.38383599645137
 30
0.0
 10
-81.07329009252772
 20
-25.63269752215783
 30
0.0
 10
-80.94210549801681
 20
-26.24586530618851
 30
0.0
 10
-80.8216812454645
 20
-26.86160870398488
 30
0.0
 10
-80.72735654574678
 20
-27.48284674447393
 30
0.0
 10
-80.72483816784083
 20
-27.49938790844443
 30
0.0
 10
-80.72048824236883
 20
-27.51564289311017
 30
0.0
 10
-80.71819880790886
 20
-27.53218405707072
 30
0.0
 10
-80.71911458169413
 20
-27.53189787776467
 30
0.0
 10
-80.72003035547748
 20
-27.53149722673787
 30
0.0
 10
-80.72117507270681
 20
-27.53121104743181
 30
0.0
 10
-83.43117864202532
 20
-26.74713698102655
 30
0.0
 10
-86.10523809033656
 20
-25.64277103377814
 30
0.0
 10
-88.87797216383752
 20
-24.49765315316613
 30
0.0
 10
-89.43476262430719
 20
-24.26762222588051
 30
0.0
 10
-89.99292674545349
 20
-24.03713341170129
 30
0.0
 10
-90.55223558382911
 20
-23.80876232439835
 30
0.0
 10
-93.29131497077954
 20
-22.68991570420558
 30
0.0
 10
-96.563832586717
 20
-21.36851137023841
 30
0.0
 10
-100.0318679054665
 20
-20.86031415615721
 30
0.0
 10
-100.9453522546758
 20
-20.72643947615663
 30
0.0
 10
-101.869368002397
 20
-20.6359495791592
 30
0.0
 10
-102.8043730355209
 20
-20.6359495791592
 30
0.0
 10
-104.0841668981976
 20
-20.6359495791592
 30
0.0
 10
-105.3325955087826
 20
-20.78115695973594
 30
0.0
 10
-106.5146305200517
 20
-21.0675079747177
 30
0.0
 10
-109.0497212966907
 20
-21.68164876838761
 30
0.0
 10
-111.4032599207176
 20
-22.58986741833539
 30
0.0
 10
-113.6791867165774
 20
-23.46820894860281
 30
0.0
 10
-115.8452206583988
 20
-24.30402423378621
 30
0.0
 10
-117.8910592911127
 20
-25.09353570702826
 30
0.0
 10
-119.9664316283504
 20
-25.5896561543253
 30
0.0
 10
-122.0816401251786
 20
-26.09516328291042
 30
0.0
 10
-124.174183220859
 20
-26.35146547061689
 30
0.0
 10
-126.186138223577
 20
-26.35146547061689
 30
0.0
 10
-127.9808258961209
 20
-26.35146547061689
 30
0.0
 10
-129.6635602236111
 20
-26.12956203566221
 30
0.0
 10
-131.2357148667224
 20
-25.72524791017309
 30
0.0
 10
-132.0038201277741
 20
-25.52778418807225
 30
0.0
 10
-132.7536099131525
 20
-25.30038611041719
 30
0.0
 10
-133.4612741044823
 20
-25.00773915066925
 30
0.0
 10
-136.3022333248651
 20
-23.83331650898064
 30
0.0
 10
-138.8473976131254
 20
-22.30025395925476
 30
0.0
 10
-141.1852536111057
 20
-20.35286100828528
 30
0.0
 10
-141.1230954655392
 20
-20.18046659350499
 30
0.0
 10
-141.0656306606134
 20
-20.02678830543441
 30
0.0
 10
-141.0132026114995
 20
-19.89285638957827
 30
0.0
 10
-140.8263847596302
 20
-19.4538573320297
 30
0.0
 10
-140.6360182843513
 20
-19.01634640688749
 30
0.0
 10
-140.4289389375193
 20
-18.58679126648161
 30
0.0
 10
-140.326601217193
 20
-18.37473239969772
 30
0.0
 10
-140.2141899852493
 20
-18.16868329837266
 30
0.0
 10
-140.1072733960063
 20
-17.95931451708387
 30
0.0
 10
-139.9433498887288
 20
-17.6378779190165
 30
0.0
 10
-139.7769080035479
 20
-17.31775774575928
 30
0.0
 10
-139.6017662674205
 20
-17.00193026212331
 30
0.0
 10
-139.5399515370233
 20
-16.89026309637186
 30
0.0
 10
-139.4863787706788
 20
-16.77436047688264
 30
0.0
 10
-139.4229614361597
 20
-16.66338014147302
 30
0.0
 10
-139.4195272844704
 20
-16.66664258557125
 30
0.0
 10
-139.415864189337
 20
-16.66979055795867
 30
0.0
 10
-139.4124300376477
 20
-16.67305300205722
 30
0.0
 10
-137.4130669244544
 20
-18.54907283376577
 30
0.0
 10
-135.12111408738
 20
-20.28812724895151
 30
0.0
 10
-132.4198103690048
 20
-21.20081029609686
 30
0.0
 10
-131.0800333234982
 20
-21.65337425281445
 30
0.0
 10
-129.7887922885268
 20
-21.95414870489429
 30
0.0
 10
-128.5165535595659
 20
-22.1397073678075
 30
0.0
 10
-127.6076480792766
 20
-22.2722656229883
 30
0.0
 10
-126.7069845630381
 20
-22.35388396146574
 30
0.0
 10
-125.8111288591648
 20
-22.35388396146574
 30
0.0
 10
-123.62746627201
 20
-22.35388396146574
 30
0.0
 10
-121.3746627641861
 20
-21.9586703379471
 30
0.0
 10
-118.9245100059822
 20
-21.14574939735627
 30
0.0
 10
-117.448511610156
 20
-20.65626830998606
 30
0.0
 10
-116.0107467697976
 20
-20.09426938611918
 30
0.0
 10
-114.6201442792972
 20
-19.55081488137766
 30
0.0
 10
-112.2638583339203
 20
-18.62983263431415
 30
0.0
 10
-110.0293703017704
 20
-17.77295455210775
 30
0.0
 10
-107.7884718531351
 20
-17.30281918591397
 30
0.0
 10
-107.6261509499796
 20
-17.26882108419828
 30
0.0
 10
-107.4640589902694
 20
-17.22034230952896
 30
0.0
 10
-107.3017380871152
 20
-17.19069413327982
 30
0.0
 10
-105.7371385777186
 20
-16.90440035416326
 30
0.0
 10
-104.172310124876
 20
-16.7592502094517
 30
0.0
 10
-102.6507519833106
 20
-16.7592502094517
 30
0.0
 10
-99.54948406491936
 20
-16.75930744530726
 30
0.0
 10
-96.47820773794457
 20
-17.34380006273863
 30
0.0
 10
-93.26063654902631
 20
-18.54638274827997
 30
0.0
 10
-91.72557074415292
 20
-19.1197716085757
 30
0.0
 10
-90.21431505765546
 20
-19.76407570125224
 30
0.0
 10
-88.61422931414034
 20
-20.44615546249859
 30
0.0
 10
-86.39027268050368
 20
-21.39426750790175
 30
0.0
 10
-84.10633286403463
 20
-22.36767780407498
 30
0.0
 10
-81.71204230663581
 20
-23.1565024469845
 30
0.0
 10
-81.70746343771716
 20
-23.15799057938091
 30
0.0
 10
-81.70311351224581
 20
-23.159764891093
 30
0.0
 10
-81.69853464332588
 20
-23.16125302348909
 30
0.0
  0
SPLINE
  5
81
330
70
100
AcDbEntity
  8
Layer 1
100
AcDbSpline
210
0.0
220
0.0
230
1.0
 70
     9
 71
     3
 72
    44
 73
    40
 74
     0
 42
0.0000000001
 43
0.0000000001
 40
0.0
 40
0.0
 40
0.0
 40
0.0
 40
1.0
 40
1.0
 40
1.0
 40
2.0
 40
2.0
 40
2.0
 40
3.0
 40
3.0
 40
3.0
 40
4.0
 40
4.0
 40
4.0
 40
5.0
 40
5.0
 40
5.0
 40
6.0
 40
6.0
 40
6.0
 40
7.0
 40
7.0
 40
7.0
 40
8.0
 40
8.0
 40
8.0
 40
9.0
 40
9.0
 40
9.0
 40
10.0
 40
10.0
 40
10.0
 40
11.0
 40
11.0
 40
11.0
 40
12.0
 40
12.0
 40
12.0
 40
13.0
 40
13.0
 40
13.0
 40
13.0
 10
-66.26820427541374
 20
10.69696424973323
 30
0.0
 10
-59.04297806571953
 20
15.96667001611964
 30
0.0
 10
-54.35421629333967
 20
20.91310763688194
 30
0.0
 10
-51.9954119700568
 20
25.74158214713656
 30
0.0
 10
-49.29868712060092
 20
31.25734488202383
 30
0.0
 10
-47.93281052225973
 20
37.30024990114254
 30
0.0
 10
-47.93281052225973
 20
43.69841791246831
 30
0.0
 10
-47.93281052225973
 20
57.78055756323718
 30
0.0
 10
-53.95242054575491
 20
69.23585735140893
 30
0.0
 10
-65.82565659445575
 20
77.74831808577413
 30
0.0
 10
-77.39302419941217
 20
86.03652871486048
 30
0.0
 10
-92.4522372414934
 20
90.24033103293289
 30
0.0
 10
-110.586618649132
 20
90.24033103293289
 30
0.0
 10
-130.8792499214301
 20
90.24033103293289
 30
0.0
 10
-147.0536464885733
 20
85.15853059977457
 30
0.0
 10
-158.659018705551
 20
75.13458523546461
 30
0.0
 10
-170.3923703087963
 20
65.00000295091853
 30
0.0
 10
-176.3391763164897
 20
52.21528580815627
 30
0.0
 10
-176.3391763164897
 20
37.13569679938842
 30
0.0
 10
-176.3391763164897
 20
21.84353380108815
 30
0.0
 10
-170.5292784894552
 20
10.00967602509031
 30
0.0
 10
-159.0550908669878
 20
1.886018497757449
 30
0.0
 10
-173.8578872496425
 20
-6.240615294376896
 30
0.0
 10
-181.3539535558558
 20
-18.72827831605787
 30
0.0
 10
-181.3539535558558
 20
-35.30326867769164
 30
0.0
 10
-181.3539535558558
 20
-49.7508593040083
 30
0.0
 10
-175.3753244091799
 20
-61.59347416681598
 30
0.0
 10
-163.5806159624288
 20
-70.50200706261765
 30
0.0
 10
-152.0423241751043
 20
-79.21691103902883
 30
0.0
 10
-135.4572030659856
 20
-83.63477547902814
 30
0.0
 10
-114.2852000179202
 20
-83.63477547902814
 30
0.0
 10
-93.15120158187797
 20
-83.63477547902814
 30
0.0
 10
-75.81468808326026
 20
-78.99701085922806
 30
0.0
 10
-62.75323555025098
 20
-69.84968994934023
 30
0.0
 10
-49.35409143451212
 20
-60.4664428184274
 30
0.0
 10
-42.56271305483188
 20
-46.99735647997038
 30
0.0
 10
-42.56271305483188
 20
-29.81371996735843
 30
0.0
 10
-42.56271305483188
 20
-12.31116523459115
 30
0.0
 10
-50.53337912443056
 20
1.296260181075551
 30
0.0
 10
-66.26820427541374
 20
10.69696424973323
 30
0.0
  0
HATCH
  5
82
330
70
100
AcDbEntity
  8
Layer 1
 62
     7
440
 33554687
100
AcDbHatch
 10
0.0
 20
0.0
 30
0.0
210
0.0
220
0.0
230
1.0
  2
SOLID
 70
     1
 71
     1
 91
        9
 92
        1
 93
        1
 72
     4
 94
        3
 73
     0
 74
     0
 95
      257
 96
      253
 40
0.0
 40
0.0
 40
0.0
 40
0.0
 40
1.0
 40
1.0
 40
1.0
 40
2.0
 40
2.0
 40
2.0
 40
3.0
 40
3.0
 40
3.0
 40
4.0
 40
4.0
 40
4.0
 40
5.0
 40
5.0
 40
5.0
 40
6.0
 40
6.0
 40
6.0
 40
7.0
 40
7.0
 40
7.0
 40
8.0
 40
8.0
 40
8.0
 40
9.0
 40
9.0
 40
9.0
 40
10.0
 40
10.0
 40
10.0
 40
11.0
 40
11.0
 40
11.0
 40
12.0
 40
12.0
 40
12.0
 40
13.0
 40
13.0
 40
13.0
 40
14.0
 40
14.0
 40
14.0
 40
15.0
 40
15.0
 40
15.0
 40
16.0
 40
16.0
 40
16.0
 40
17.0
 40
17.0
 40
17.0
 40
18.0
 40
18.0
 40
18.0
 40
19.0
 40
19.0
 40
19.0
 40
20.0
 40
20.0
 40
20.0
 40
21.0
 40
21.0
 40
21.0
 40
22.0
 40
22.0
 40
22.0
 40
23.0
 40
23.0
 40
23.0
 40
24.0
 40
24.0
 40
24.0
 40
25.0
 40
25.0
 40
25.0
 40
26.0
 40
26.0
 40
26.0
 40
27.0
 40
27.0
 40
27.0
 40
28.0
 40
28.0
 40
28.0
 40
29.0
 40
29.0
 40
29.0
 40
30.0
 40
30.0
 40
30.0
 40
31.0
 40
31.0
 40
31.0
 40
32.0
 40
32.0
 40
32.0
 40
33.0
 40
33.0
 40
33.0
 40
34.0
 40
34.0
 40
34.0
 40
35.0
 40
35.0
 40
35.0
 40
36.0
 40
36.0
 40
36.0
 40
37.0
 40
37.0
 40
37.0
 40
38.0
 40
38.0
 40
38.0
 40
39.0
 40
39.0
 40
39.0
 40
40.0
 40
40.0
 40
40.0
 40
41.0
 40
41.0
 40
41.0
 40
42.0
 40
42.0
 40
42.0
 40
43.0
 40
43.0
 40
43.0
 40
44.0
 40
44.0
 40
44.0
 40
45.0
 40
45.0
 40
45.0
 40
46.0
 40
46.0
 40
46.0
 40
47.0
 40
47.0
 40
47.0
 40
48.0
 40
48.0
 40
48.0
 40
49.0
 40
49.0
 40
49.0
 40
50.0
 40
50.0
 40
50.0
 40
51.0
 40
51.0
 40
51.0
 40
52.0
 40
52.0
 40
52.0
 40
53.0
 40
53.0
 40
53.0
 40
54.0
 40
54.0
 40
54.0
 40
55.0
 40
55.0
 40
55.0
 40
56.0
 40
56.0
 40
56.0
 40
57.0
 40
57.0
 40
57.0
 40
58.0
 40
58.0
 40
58.0
 40
59.0
 40
59.0
 40
59.0
 40
60.0
 40
60.0
 40
60.0
 40
61.0
 40
61.0
 40
61.0
 40
62.0
 40
62.0
 40
62.0
 40
63.0
 40
63.0
 40
63.0
 40
64.0
 40
64.0
 40
64.0
 40
65.0
 40
65.0
 40
65.0
 40
66.0
 40
66.0
 40
66.0
 40
67.0
 40
67.0
 40
67.0
 40
68.0
 40
68.0
 40
68.0
 40
69.0
 40
69.0
 40
69.0
 40
70.0
 40
70.0
 40
70.0
 40
71.0
 40
71.0
 40
71.0
 40
72.0
 40
72.0
 40
72.0
 40
73.0
 40
73.0
 40
73.0
 40
74.0
 40
74.0
 40
74.0
 40
75.0
 40
75.0
 40
75.0
 40
76.0
 40
76.0
 40
76.0
 40
77.0
 40
77.0
 40
77.0
 40
78.0
 40
78.0
 40
78.0
 40
79.0
 40
79.0
 40
79.0
 40
80.0
 40
80.0
 40
80.0
 40
81.0
 40
81.0
 40
81.0
 40
82.0
 40
82.0
 40
82.0
 40
83.0
 40
83.0
 40
83.0
 40
84.0
 40
84.0
 40
84.0
 40
84.0
 10
-82.00073999193696
 20
-42.29623176151026
 10
-82.6133926532111
 20
-42.5076610338066
 10
-83.22947946617324
 20
-42.71222200273653
 10
-83.85518190386468
 20
-42.89646424083894
 10
-84.57566692816582
 20
-43.10863757934455
 10
-85.30508074685696
 20
-43.30203755528361
 10
-86.04411019027676
 20
-43.47488985694531
 10
-86.04456807716811
 20
-43.4750043286667
 10
-86.04502596406074
 20
-43.47511880039708
 10
-86.04571279439936
 20
-43.47523327211687
 10
-86.6986595021528
 20
-43.62793855053989
 10
-87.36076394774608
 20
-43.75511663474844
 10
-88.02767620570207
 20
-43.86855811220235
 10
-88.23624368493213
 20
-43.90410158218027
 10
-88.44732954206813
 20
-43.93266227705916
 10
-88.65727068197289
 20
-43.96448541603724
 10
-89.12774946333341
 20
-44.03585853530811
 10
-89.60005979226
 20
-44.09996270016555
 10
-90.07580427287525
 20
-44.15347823064326
 10
-90.31001341804852
 20
-44.17980672692962
 10
-90.54468045011381
 20
-44.20453261908823
 10
-90.78003431251579
 20
-44.22674013333703
 10
-91.26516547441431
 20
-44.27241435080012
 10
-91.75281501421622
 20
-44.30824400008345
 10
-92.24206715814139
 20
-44.3369764025486
 10
-92.44674259879207
 20
-44.34899593345698
 10
-92.6502733222115
 20
-44.36467855950034
 10
-92.85563559319951
 20
-44.37383629733731
 10
-93.54269487439676
 20
-44.40451471908989
 10
-94.23273042039003
 20
-44.42294466649291
 10
-94.92597117462597
 20
-44.42323084580024
 10
-94.9328394780052
 20
-44.42323084580024
 10
-94.93993672482725
 20
-44.42374596854683
 10
-94.9468050282052
 20
-44.42374596854683
 10
-94.98572541401108
 20
-44.42374596854683
 10
-95.02487474326297
 20
-44.42105588306072
 10
-95.06379512906885
 20
-44.42094141134028
 10
-95.7671093949254
 20
-44.41933880721381
 10
-96.47339992557929
 20
-44.39982137845018
 10
-97.18037728657115
 20
-44.36977255117553
 10
-97.40062088154315
 20
-44.36044310575263
 10
-97.62109341996051
 20
-44.34830910312444
 10
-97.84156595837917
 20
-44.33634680807163
 10
-98.42102181999541
 20
-44.30492432012036
 10
-99.00093556850299
 20
-44.26503092466594
 10
-99.58084931701058
 20
-44.21672385758255
 10
-99.65342438936508
 20
-44.21065685626783
 10
-99.72599946172213
 20
-44.20802400663759
 10
-99.79880347752327
 20
-44.20172806187205
 10
-99.91327520048159
 20
-44.19176902197281
 10
-100.0275179799939
 20
-44.18158103863144
 10
-100.1422186463982
 20
-44.1709924042546
 10
-100.8858269587379
 20
-44.10248107806476
 10
-101.6292063276297
 20
-44.02235087199368
 10
-102.3707541489554
 20
-43.92951430468232
 10
-102.5236883708277
 20
-43.91034029107966
 10
-102.6761647058092
 20
-43.88744594648837
 10
-102.8290989276814
 20
-43.86735615911296
 10
-103.4360280028063
 20
-43.78745489648273
 10
-104.0415834172571
 20
-43.7007425663407
 10
-104.6450783406939
 20
-43.60681851765909
 10
-104.8669245397866
 20
-43.57230529318591
 10
-105.0883128519893
 20
-43.53721971010094
 10
-105.3094722207453
 20
-43.50098940978022
 10
-105.9241853730321
 20
-43.40025429357686
 10
-106.5363801474149
 20
-43.29356664777951
 10
-107.1453697135537
 20
-43.18058305721758
 10
-107.2742648736047
 20
-43.15665846712061
 10
-107.404304750885
 20
-43.13485160389926
 10
-107.5329709674906
 20
-43.11041189104574
 10
-108.2614690123997
 20
-42.97213004971214
 10
-108.9842434711582
 20
-42.82532006501952
 10
-109.701523287216
 20
-42.6727864941741
 10
-109.8945226121248
 20
-42.6317483814942
 10
-110.0854614460202
 20
-42.58893595711248
 10
-110.2773160536976
 20
-42.54698207064923
 10
-110.829069758358
 20
-42.42655781809693
 10
-111.376702480991
 20
-42.3031000648879
 10
-111.9195273912607
 20
-42.17637986757038
 10
-112.1198529064387
 20
-42.12961816873736
 10
-112.3206363085068
 20
-42.08319988507686
 10
-112.5195881630089
 20
-42.03569412005704
 10
-113.2162630689347
 20
-41.86942394245537
 10
-113.9079012190493
 20
-41.70029197178325
 10
-114.5869474796393
 20
-41.52698178322924
 10
-116.0146388083777
 20
-41.16261828904946
 10
-117.4295093041453
 20
-40.76322644765054
 10
-118.8327036841692
 20
-40.33241211828943
 10
-123.4404194766952
 20
-38.91782780182842
 10
-127.9185532788317
 20
-37.15364684345728
 10
-132.3211357438145
 20
-35.19406265399379
 10
-135.9629391380168
 20
-33.573143056902
 10
-139.5541460306706
 20
-31.82206911080819
 10
-143.1116982367745
 20
-29.99258203448025
 10
-143.2241094687196
 20
-29.9347738143893
 10
-143.3356049268812
 20
-29.87513404673039
 10
-143.4477872153802
 20
-29.8172113549081
 10
-143.3163736774233
 20
-28.12297261925767
 10
-143.0464493546874
 20
-26.46839833561984
 10
-142.6581612704126
 20
-24.85875420323806
 10
-142.6172948653161
 20
-24.72676830666904
 10
-142.5388817350903
 20
-24.47504498788122
 10
-142.4343690520293
 20
-24.14233292510287
 10
-142.2597996745178
 20
-24.27689443543758
 10
-142.0876342031876
 20
-24.41546245607819
 10
-141.9099740891562
 20
-24.54538786163741
 10
-141.0502914497388
 20
-25.17435274343188
 10
-140.1622198230255
 20
-25.76067690843089
 10
-139.2436987180063
 20
-26.30510442282127
 10
-137.8659170604797
 20
-27.12168845854611
 10
-136.4189944822828
 20
-27.84394779455486
 10
-134.8942311324754
 20
-28.47422910115947
 10
-134.3168357618724
 20
-28.71295987939006
 10
-133.7282221624209
 20
-28.91683401797655
 10
-133.1336560333747
 20
-29.09993153885572
 10
-133.0649729995995
 20
-29.12110880760043
 10
-132.9969767961624
 20
-29.14491892597505
 10
-132.9280648189413
 20
-29.16540936438754
 10
-132.8014590933483
 20
-29.20295608951777
 10
-132.6741665374194
 20
-29.23764102156662
 10
-132.5468739814897
 20
-29.2727838405171
 10
-132.1054710177617
 20
-29.39475346133036
 10
-131.6597181285611
 20
-29.50041086162361
 10
-131.2114468614551
 20
-29.59410596686435
 10
-131.1141458969408
 20
-29.61442469769058
 10
-131.0175317627637
 20
-29.63543025884998
 10
-130.9197729113573
 20
-29.65443256486575
 10
-130.3503905613617
 20
-29.76552737199611
 10
-129.7768872293401
 20
-29.85470084417346
 10
-129.1999497456286
 20
-29.92298322692179
 10
-129.0999014597635
 20
-29.93483105024487
 10
-129.0000821173431
 20
-29.94507626945015
 10
-128.9000338314774
 20
-29.95566490382732
 10
-128.3150833271592
 20
-30.01753687009063
 10
-127.7280723318283
 20
-30.06166571928282
 10
-127.1390008454841
 20
-30.08267128045153
 10
-127.0611600738723
 20
-30.0854186018022
 10
-126.9835482457065
 20
-30.0854186018022
 10
-126.9054785306494
 20
-30.08747909281071
 10
-126.6657747427742
 20
-30.09388950929637
 10
-126.4260709548989
 20
-30.1024748885209
 10
-126.186138223577
 20
-30.1024748885209
 10
-125.9658946286056
 20
-30.1024748885209
 10
-125.7458799770796
 20
-30.0864488473063
 10
-125.5256363821063
 20
-30.08118314805545
 10
-125.263725079979
 20
-30.07494443914579
 10
-125.0025006081865
 20
-30.06939256058857
 10
-124.740818249504
 20
-30.05582766141858
 10
-124.3493249569864
 20
-30.03556616644824
 10
-123.9594342685897
 20
-30.00299896127212
 10
-123.5695435801928
 20
-29.96711207612328
 10
-123.3234293758309
 20
-29.94444667497318
 10
-123.077544114917
 20
-29.92618843516412
 10
-122.8325746277864
 20
-29.89757050442968
 10
-122.4044503839217
 20
-29.84754636148945
 10
-121.9799892351903
 20
-29.7826981304346
 10
-121.5555280864622
 20
-29.71521704974983
 10
-121.3529131368249
 20
-29.68299325973597
 10
-121.1489245265122
 20
-29.65786671654992
 10
-120.9472253506594
 20
-29.62180812381514
 10
-120.3238123474267
 20
-29.51036990151417
 10
-119.7049782131132
 20
-29.38382141179222
 10
-119.094614986299
 20
-29.23792720087332
 10
-117.9407400188778
 20
-28.96210758441283
 10
-116.8111330567219
 20
-28.61136622526822
 10
-115.693431153756
 20
-28.22284919754192
 10
-114.5757292507893
 20
-27.8343321698259
 10
-113.4699324070113
 20
-27.40809670938312
 10
-112.3641355632307
 20
-26.98134612619439
 10
-110.705440297563
 20
-26.34127748727583
 10
-109.046516088448
 20
-25.70006413112217
 10
-107.3466110025145
 20
-25.18345324541296
 10
-106.7799759738702
 20
-25.01128777408347
 10
-106.2085331328612
 20
-24.85291614536452
 10
-105.631366705705
 20
-24.71308893576964
 10
-105.6311377622589
 20
-24.7130316999144
 10
-105.6311377622589
 20
-24.71308893576964
 10
-105.6309088188123
 20
-24.7130316999144
 10
-105.2101107652169
 20
-24.61115186647624
 10
-104.7865653902709
 20
-24.54264054028642
 10
-104.3621042415408
 20
-24.48958289669973
 10
-104.2810582616857
 20
-24.4794521492136
 10
-104.2000122818307
 20
-24.46789050519721
 10
-104.1187373585309
 20
-24.45941959769374
 10
-103.7098443641234
 20
-24.4168361167532
 10
-103.2998066524873
 20
-24.3942279514776
 10
-102.8890821105119
 20
-24.3916523377026
 10
-102.8606931232167
 20
-24.39148063012629
 10
-102.8325330793694
 20
-24.38695899706257
 10
-102.8043730355209
 20
-24.38695899706257
 10
-102.7514870995143
 20
-24.38695899706257
 10
-102.6983722200625
 20
-24.39399900802647
 10
-102.6452573406093
 20
-24.39462860250376
 10
-102.2757426188998
 20
-24.39892129211635
 10
-101.9057700102975
 20
-24.41574863539387
 10
-101.535110571358
 20
-24.4482586047141
 10
-101.4884061083902
 20
-24.45232235087491
 10
-101.4417016454242
 20
-24.45386771913619
 10
-101.3949971824571
 20
-24.45838935218933
 10
-100.9922856610889
 20
-24.49730973799521
 10
-100.5893451962742
 20
-24.55477454292486
 10
-100.1866336749067
 20
-24.62259903877253
 10
-100.0948273530943
 20
-24.63805272137471
 10
-100.0027920878359
 20
-24.65430770603883
 10
-99.9109857660242
 20
-24.67119228517095
 10
-99.5096479053295
 20
-24.74479760303595
 10
-99.10853898808399
 20
-24.82727447942192
 10
-98.7078879577292
 20
-24.92463267979733
 10
-98.6751490449633
 20
-24.93258846454329
 10
-98.64263907564273
 20
-24.94208961755181
 10
-98.60990016287619
 20
-24.95015987401853
 10
-98.22733566474997
 20
-25.04482798890812
 10
-97.84545799695917
 20
-25.15065709678732
 10
-97.46449610295428
 20
-25.26306832872751
 10
-97.37910019762592
 20
-25.28825210777843
 10
-97.29370429230014
 20
-25.31280629235142
 10
-97.20830838697306
 20
-25.33873413760038
 10
-96.8140677731036
 20
-25.45881497499204
 10
-96.42097187646413
 20
-25.58605029505551
 10
-96.02924964049996
 20
-25.72049733367011
 10
-95.95255358611755
 20
-25.74676859408871
 10
-95.87631541862775
 20
-25.77424180759928
 10
-95.80007725113667
 20
-25.80097095491212
 10
-95.62333291088918
 20
-25.86272844944377
 10
-95.44819117476304
 20
-25.92843521842672
 10
-95.27213366485161
 20
-25.99242491155411
 10
-95.09218411636148
 20
-26.05784550123101
 10
-94.91131879408799
 20
-26.12091942058372
 10
-94.73182713248919
 20
-26.18828602953778
 10
-94.67184394965807
 20
-26.21083695895846
 10
-94.6111739364896
 20
-26.23275829391116
 10
-94.5511907536604
 20
-26.25553816678297
 10
-94.15695013979094
 20
-26.40515270868151
 10
-93.7647700169361
 20
-26.55871652503134
 10
-93.37487932853864
 20
-26.71399741722871
 10
-93.2807835722682
 20
-26.75148690649374
 10
-93.18691675944055
 20
-26.7890908674898
 10
-93.09304994661417
 20
-26.82675206434078
 10
-92.71689586497265
 20
-26.9777975027808
 10
-92.34165755711638
 20
-27.12970147914796
 10
-91.97076917473083
 20
-27.28126204034517
 10
-88.81890475479039
 20
-28.56786697054466
 10
-85.735036538289
 20
-29.91233735668906
 10
-82.53623871193667
 20
-30.90309011889762
 10
-81.8255982558108
 20
-31.12316200628369
 10
-81.10740266596897
 20
-31.32022507735805
 10
-80.38348348997917
 20
-31.50091869204688
 10
-80.37707307349384
 20
-31.76048332385157
 10
-80.36379435362992
 20
-32.01838811567455
 10
-80.36379435362992
 20
-32.27944087988465
 10
-80.36379435362992
 20
-35.78038681898222
 10
-80.94462387592148
 20
-39.14625612499849
 10
-82.00073999193696
 20
-42.29623176151026
 97
        0
 97
        1
330
79
 92
        1
 93
        1
 72
     4
 94
        3
 73
     0
 74
     0
 95
       98
 96
       94
 40
0.0
 40
0.0
 40
0.0
 40
0.0
 40
1.0
 40
1.0
 40
1.0
 40
2.0
 40
2.0
 40
2.0
 40
3.0
 40
3.0
 40
3.0
 40
4.0
 40
4.0
 40
4.0
 40
5.0
 40
5.0
 40
5.0
 40
6.0
 40
6.0
 40
6.0
 40
7.0
 40
7.0
 40
7.0
 40
8.0
 40
8.0
 40
8.0
 40
9.0
 40
9.0
 40
9.0
 40
10.0
 40
10.0
 40
10.0
 40
11.0
 40
11.0
 40
11.0
 40
12.0
 40
12.0
 40
12.0
 40
13.0
 40
13.0
 40
13.0
 40
14.0
 40
14.0
 40
14.0
 40
15.0
 40
15.0
 40
15.0
 40
16.0
 40
16.0
 40
16.0
 40
17.0
 40
17.0
 40
17.0
 40
18.0
 40
18.0
 40
18.0
 40
19.0
 40
19.0
 40
19.0
 40
20.0
 40
20.0
 40
20.0
 40
21.0
 40
21.0
 40
21.0
 40
22.0
 40
22.0
 40
22.0
 40
23.0
 40
23.0
 40
23.0
 40
24.0
 40
24.0
 40
24.0
 40
25.0
 40
25.0
 40
25.0
 40
26.0
 40
26.0
 40
26.0
 40
27.0
 40
27.0
 40
27.0
 40
28.0
 40
28.0
 40
28.0
 40
29.0
 40
29.0
 40
29.0
 40
30.0
 40
30.0
 40
30.0
 40
31.0
 40
31.0
 40
31.0
 40
31.0
 10
-84.09282520072663
 20
-47.15172159837222
 10
-84.36915993994846
 20
-47.66936272959546
 10
-84.65923128592429
 20
-48.17950596295447
 10
-84.96418395588667
 20
-48.68089210951294
 10
-85.1480255429581
 20
-48.98218168433938
 10
-85.34194064164953
 20
-49.27637401234829
 10
-85.53539785345025
 20
-49.57096699138237
 10
-85.72633668734502
 20
-49.86218305458884
 10
-85.92368593772381
 20
-50.14910642818398
 10
-86.12446933979319
 20
-50.43408378248944
 10
-86.43720608691687
 20
-50.87777618067644
 10
-86.76093211944388
 20
-51.31265425618906
 10
-87.09564743737486
 20
-51.73923313180211
 10
-87.32184356193956
 20
-52.02764463779175
 10
-87.55032912096487
 20
-52.31439630380062
 10
-87.78705664404347
 20
-52.59530991194591
 10
-88.01966318509478
 20
-52.87153017944218
 10
-88.25455916060541
 20
-53.14563272006538
 10
-88.49632343949336
 20
-53.41366825937322
 10
-88.87911688106687
 20
-53.83761428534707
 10
-89.27221277770698
 20
-54.25349005486252
 10
-89.67927422454582
 20
-54.65831930309889
 10
-89.76902005534681
 20
-54.74777895459255
 10
-89.84937920486327
 20
-54.84479373979607
 10
-89.94049869633768
 20
-54.93328038164987
 10
-89.95011432106631
 20
-54.93402444784823
 10
-89.9597299457943
 20
-54.93419615543386
 10
-89.96934557052357
 20
-54.9349402216319
 10
-91.6910002838197
 20
-55.06726953337216
 10
-93.45890157318974
 20
-55.13486508577767
 10
-95.24214207343895
 20
-55.13486508577767
 10
-102.0548121935885
 20
-55.13486508577767
 10
-109.2392864699101
 20
-54.18297547352072
 10
-116.5959262175606
 20
-52.30569645285566
 10
-124.2295875347709
 20
-50.35681536949009
 10
-132.2593210134186
 20
-47.30625842437218
 10
-141.7664265485666
 20
-42.73740578178713
 10
-141.7687159830253
 20
-42.73626106456292
 10
-141.7710054174846
 20
-42.73528805491311
 10
-141.7732948519433
 20
-42.73414333767991
 10
-141.7987075744405
 20
-42.66191168049956
 10
-141.8167941066678
 20
-42.58779123987832
 10
-141.8417489422724
 20
-42.51538787511298
 10
-142.0315430589385
 20
-41.96260392493926
 10
-142.2048532474979
 20
-41.40569899274788
 10
-142.3632821120721
 20
-40.84524543714323
 10
-142.3994551765261
 20
-40.71686539984464
 10
-142.4381466188866
 20
-40.58957284391405
 10
-142.4727170792205
 20
-40.46056321214812
 10
-142.6467140981166
 20
-39.81334009053529
 10
-142.8019377544488
 20
-39.16176704345591
 10
-142.9338091792964
 20
-38.50550065573746
 10
-142.9551009197664
 20
-38.39955707613751
 10
-142.9708980175356
 20
-38.29178194897121
 10
-142.9910450407769
 20
-38.18549495420131
 10
-143.0959011390053
 20
-37.63534385366649
 10
-143.1842733091297
 20
-37.08210201661073
 10
-143.2593667593921
 20
-36.52639903751034
 10
-143.284779481888
 20
-36.33877988357931
 10
-143.3092764306013
 20
-36.15087455034064
 10
-143.3312550014086
 20
-35.96222515090552
 10
-143.3999380351843
 20
-35.37487074040305
 10
-143.4541976318655
 20
-34.7850551878656
 10
-143.4896838659847
 20
-34.19243507810201
 10
-143.4935759045641
 20
-34.1286170925519
 10
-143.503420472738
 20
-34.06577211664936
 10
-143.5068546244274
 20
-34.00189689524368
 10
-143.505938850644
 20
-34.00235478213567
 10
-143.5050230768594
 20
-34.00275543316183
 10
-143.5041073030754
 20
-34.00321332005415
 10
-138.6905713526719
 20
-36.44850103003339
 10
-134.1050630743997
 20
-38.61327578290345
 10
-129.5497753309908
 20
-40.47160973340669
 10
-124.9086337953615
 20
-42.36502926700613
 10
-120.2993153987147
 20
-43.94033188250003
 10
-115.5146263224951
 20
-45.16145898715679
 10
-112.1981515649418
 20
-46.00797737843747
 10
-109.1044387802658
 20
-46.66218327514741
 10
-106.184036184148
 20
-47.14954663563493
 10
-102.1090717902722
 20
-47.82962314173795
 10
-98.38141460385088
 20
-48.17475538645085
 10
-94.94703397165055
 20
-48.17475538645085
 10
-91.44328347533841
 20
-48.17475538645085
 10
-88.16046340433434
 20
-47.82235418732421
 10
-85.18969325011466
 20
-47.12733912138516
 10
-84.76500315793797
 20
-47.02797766585746
 10
-84.34077095265392
 20
-46.9216906710866
 10
-83.91699663426249
 20
-46.80905049569528
 10
-83.90944150054718
 20
-46.80704724054296
 10
-83.90188636683122
 20
-46.80538740056094
 10
-83.89433123311656
 20
-46.80338414540799
 10
-83.95591702006838
 20
-46.9221485579786
 10
-84.02986575310013
 20
-47.03375848786549
 10
-84.09282520072663
 20
-47.15172159837222
 97
        0
 97
        1
330
7A
 92
        1
 93
        1
 72
     4
 94
        3
 73
     0
 74
     0
 95
       65
 96
       61
 40
0.0
 40
0.0
 40
0.0
 40
0.0
 40
1.0
 40
1.0
 40
1.0
 40
2.0
 40
2.0
 40
2.0
 40
3.0
 40
3.0
 40
3.0
 40
4.0
 40
4.0
 40
4.0
 40
5.0
 40
5.0
 40
5.0
 40
6.0
 40
6.0
 40
6.0
 40
7.0
 40
7.0
 40
7.0
 40
8.0
 40
8.0
 40
8.0
 40
9.0
 40
9.0
 40
9.0
 40
10.0
 40
10.0
 40
10.0
 40
11.0
 40
11.0
 40
11.0
 40
12.0
 40
12.0
 40
12.0
 40
13.0
 40
13.0
 40
13.0
 40
14.0
 40
14.0
 40
14.0
 40
15.0
 40
15.0
 40
15.0
 40
16.0
 40
16.0
 40
16.0
 40
17.0
 40
17.0
 40
17.0
 40
18.0
 40
18.0
 40
18.0
 40
19.0
 40
19.0
 40
19.0
 40
20.0
 40
20.0
 40
20.0
 40
20.0
 10
-111.9589056639585
 20
-63.87392259573568
 10
-123.6556263158579
 20
-63.87392259573568
 10
-133.8802406105097
 20
-57.4797610947251
 10
-139.3419154563053
 20
-48.00819902955277
 10
-137.8338649780505
 20
-48.69554449005157
 10
-136.3207777439857
 20
-49.37064147619985
 10
-134.7950986203936
 20
-50.01465938956969
 10
-132.5548870020964
 20
-50.96048200051321
 10
-130.2936125867739
 20
-51.85507851543642
 10
-128.0066965055088
 20
-52.68517021446574
 10
-125.719780424245
 20
-53.51526191349603
 10
-123.4069937335913
 20
-54.28084879664239
 10
-121.0630707342931
 20
-54.96859490817698
 10
-119.8913381780906
 20
-55.31246796394428
 10
-118.7118215447249
 20
-55.63682359094794
 10
-117.5238340038624
 20
-55.94011642092828
 10
-116.4649705664963
 20
-56.21032692297469
 10
-115.3951178437268
 20
-56.45947462798815
 10
-114.3199994216994
 20
-56.69717516071529
 10
-113.9969602195111
 20
-56.76860551584141
 10
-113.6720894697554
 20
-56.83459846413073
 10
-113.3479055503364
 20
-56.90299531859018
 10
-112.5635453046247
 20
-57.0682924865417
 10
-111.7766666810078
 20
-57.22426020908187
 10
-110.9856670753661
 20
-57.37078401446876
 10
-110.6401914154772
 20
-57.43477370759487
 10
-110.2956315293716
 20
-57.49916405175773
 10
-109.9490111522526
 20
-57.5594334139042
 10
-109.022248083182
 20
-57.72066683568432
 10
-108.0920508624209
 20
-57.86822088657594
 10
-107.158648433417
 20
-58.00186662313662
 10
-106.9839645841829
 20
-58.02687869460064
 10
-106.8106543956234
 20
-58.05704199359668
 10
-106.6357416029426
 20
-58.0810810554234
 10
-105.5370420059859
 20
-58.23201202214235
 10
-104.4346793138972
 20
-58.35953352151411
 10
-103.3297982439012
 20
-58.46954084728386
 10
-103.0237008567095
 20
-58.50004756145146
 10
-102.7173745260737
 20
-58.52271296259258
 10
-102.41081925199
 20
-58.54995723266132
 10
-101.5898280549318
 20
-58.62293295604807
 10
-100.7686079144276
 20
-58.6847476864462
 10
-99.94624305669413
 20
-58.73356987628676
 10
-99.5861150162672
 20
-58.7549760884826
 10
-99.22667380617697
 20
-58.77483693240753
 10
-98.8665457657494
 20
-58.7914353322429
 10
-98.0038868615353
 20
-58.8312142559679
 10
-97.14168584421125
 20
-58.85531055364857
 10
-96.27925588344186
 20
-58.86698666939566
 10
-96.01734458131202
 20
-58.87053529280059
 10
-95.75566222262882
 20
-58.88043709684489
 10
-95.49375092050025
 20
-58.88129563476304
 10
-95.40995761929449
 20
-58.88158181406975
 10
-95.32593537464277
 20
-58.88587450368169
 10
-95.24214207343895
 20
-58.88587450368169
 10
-95.14186484412533
 20
-58.88587450368169
 10
-95.04227444515292
 20
-58.87929237961042
 10
-94.94199721584058
 20
-58.87889172858329
 10
-99.85787088656977
 20
-62.03470542295868
 10
-105.6959287574534
 20
-63.87392259573568
 10
-111.9589056639585
 20
-63.87392259573568
 97
        0
 97
        1
330
7B
 92
        1
 93
        1
 72
     4
 94
        3
 73
     0
 74
     0
 95
       38
 96
       34
 40
0.0
 40
0.0
 40
0.0
 40
0.0
 40
1.0
 40
1.0
 40
1.0
 40
2.0
 40
2.0
 40
2.0
 40
3.0
 40
3.0
 40
3.0
 40
4.0
 40
4.0
 40
4.0
 40
5.0
 40
5.0
 40
5.0
 40
6.0
 40
6.0
 40
6.0
 40
7.0
 40
7.0
 40
7.0
 40
8.0
 40
8.0
 40
8.0
 40
9.0
 40
9.0
 40
9.0
 40
10.0
 40
10.0
 40
10.0
 40
11.0
 40
11.0
 40
11.0
 40
11.0
 10
-132.775588483961
 20
41.16533039097808
 10
-132.1844565066029
 20
49.80502644540837
 10
-122.8898104892643
 20
56.20577007048956
 10
-112.0154546950991
 20
55.46153216368315
 10
-103.3824552364624
 20
54.87097254493867
 10
-96.36762805356497
 20
49.94920358047043
 10
-94.13085058695635
 20
43.62481259460427
 10
-94.13085058695635
 20
43.62481259460427
 10
-96.4056326655875
 20
41.29136375795248
 10
-96.4056326655875
 20
41.29136375795248
 10
-96.4056326655875
 20
41.29136375795248
 10
-101.5644153324352
 20
35.99956494902776
 10
-101.5644153324352
 20
35.99956494902776
 10
-101.5644153324352
 20
35.99956494902776
 10
-108.8489378946213
 20
37.24885209753693
 10
-108.8489378946213
 20
37.24885209753693
 10
-108.8489378946213
 20
37.24885209753693
 10
-116.33973850158
 20
38.53356824430198
 10
-116.33973850158
 20
38.53356824430198
 10
-116.33973850158
 20
38.53356824430198
 10
-112.803020149054
 20
31.80629402947791
 10
-112.803020149054
 20
31.80629402947791
 10
-112.803020149054
 20
31.80629402947791
 10
-109.363831704489
 20
25.26429229825972
 10
-109.363831704489
 20
25.26429229825972
 10
-109.363831704489
 20
25.26429229825972
 10
-109.8931489514501
 20
24.25717007966627
 10
-109.8931489514501
 20
24.25717007966627
 10
-111.2757384213419
 20
24.11230611427071
 10
-112.699995598391
 20
24.07458768155454
 10
-114.1563048578693
 20
24.17423531638895
 10
-125.0306606520344
 20
24.91835875147396
 10
-133.3667204613186
 20
32.52546262896281
 10
-132.775588483961
 20
41.16533039097808
 97
        0
 97
        1
330
7C
 92
        1
 93
        1
 72
     4
 94
        3
 73
     0
 74
     0
 95
       41
 96
       37
 40
0.0
 40
0.0
 40
0.0
 40
0.0
 40
1.0
 40
1.0
 40
1.0
 40
2.0
 40
2.0
 40
2.0
 40
3.0
 40
3.0
 40
3.0
 40
4.0
 40
4.0
 40
4.0
 40
5.0
 40
5.0
 40
5.0
 40
6.0
 40
6.0
 40
6.0
 40
7.0
 40
7.0
 40
7.0
 40
8.0
 40
8.0
 40
8.0
 40
9.0
 40
9.0
 40
9.0
 40
10.0
 40
10.0
 40
10.0
 40
11.0
 40
11.0
 40
11.0
 40
12.0
 40
12.0
 40
12.0
 40
12.0
 10
-93.53628445791079
 20
37.41140194413745
 10
-93.53628445791079
 20
37.41140194413745
 10
-92.37348069609765
 20
29.40805419763679
 10
-92.37348069609765
 20
29.40805419763679
 10
-92.37348069609765
 20
29.40805419763679
 10
-83.97766664743095
 20
25.26423506239485
 10
-83.97766664743095
 20
25.26423506239485
 10
-83.97766664743095
 20
25.26423506239485
 10
-92.37348069609765
 20
21.12098828577464
 10
-92.37348069609765
 20
21.12098828577464
 10
-92.37348069609765
 20
21.12098828577464
 10
-93.71966815808894
 20
11.85547532192864
 10
-93.71966815808894
 20
11.85547532192864
 10
-93.71966815808894
 20
11.85547532192864
 10
-100.2550877652365
 20
18.56042755078379
 10
-100.2550877652365
 20
18.56042755078379
 10
-100.2550877652365
 20
18.56042755078379
 10
-109.482882296366
 20
16.97722638639726
 10
-109.482882296366
 20
16.97722638639726
 10
-109.482882296366
 20
16.97722638639726
 10
-105.1258595771205
 20
25.26423506239485
 10
-105.1258595771205
 20
25.26423506239485
 10
-105.1258595771205
 20
25.26423506239485
 10
-105.1292937288091
 20
25.27087442233131
 10
-105.1292937288091
 20
25.27087442233131
 10
-105.1292937288091
 20
25.27087442233131
 10
-109.482882296366
 20
33.5518160970039
 10
-109.482882296366
 20
33.5518160970039
 10
-109.482882296366
 20
33.5518160970039
 10
-100.2550877652365
 20
31.96918729124905
 10
-100.2550877652365
 20
31.96918729124905
 10
-100.2550877652365
 20
31.96918729124905
 10
-93.71966815808894
 20
38.67299480286074
 10
-93.71966815808894
 20
38.67299480286074
 10
-93.71966815808894
 20
38.67299480286074
 10
-93.53628445791079
 20
37.41140194413745
 10
-93.53628445791079
 20
37.41140194413745
 97
        0
 97
        1
330
7D
 92
        1
 93
        1
 72
     4
 94
        3
 73
     0
 74
     0
 95
       89
 96
       85
 40
0.0
 40
0.0
 40
0.0
 40
0.0
 40
1.0
 40
1.0
 40
1.0
 40
2.0
 40
2.0
 40
2.0
 40
3.0
 40
3.0
 40
3.0
 40
4.0
 40
4.0
 40
4.0
 40
5.0
 40
5.0
 40
5.0
 40
6.0
 40
6.0
 40
6.0
 40
7.0
 40
7.0
 40
7.0
 40
8.0
 40
8.0
 40
8.0
 40
9.0
 40
9.0
 40
9.0
 40
10.0
 40
10.0
 40
10.0
 40
11.0
 40
11.0
 40
11.0
 40
12.0
 40
12.0
 40
12.0
 40
13.0
 40
13.0
 40
13.0
 40
14.0
 40
14.0
 40
14.0
 40
15.0
 40
15.0
 40
15.0
 40
16.0
 40
16.0
 40
16.0
 40
17.0
 40
17.0
 40
17.0
 40
18.0
 40
18.0
 40
18.0
 40
19.0
 40
19.0
 40
19.0
 40
20.0
 40
20.0
 40
20.0
 40
21.0
 40
21.0
 40
21.0
 40
22.0
 40
22.0
 40
22.0
 40
23.0
 40
23.0
 40
23.0
 40
24.0
 40
24.0
 40
24.0
 40
25.0
 40
25.0
 40
25.0
 40
26.0
 40
26.0
 40
26.0
 40
27.0
 40
27.0
 40
27.0
 40
28.0
 40
28.0
 40
28.0
 40
28.0
 10
-127.264003966955
 20
-4.638640767435033
 10
-127.1902841773693
 20
-4.597717126476202
 10
-127.1133591795408
 20
-4.563375609589601
 10
-127.0394104465097
 20
-4.523024327242553
 10
-126.6573038352755
 20
-4.314857499043156
 10
-126.2699315247834
 20
-4.118252314861436
 10
-125.8800408363865
 20
-3.926340471327772
 10
-125.5528806521709
 20
-3.765107049536105
 10
-125.2209126555918
 20
-3.612974129726799
 10
-124.8875709983369
 20
-3.462787229205573
 10
-124.5940655006717
 20
-3.330801332637197
 10
-124.3003310595587
 20
-3.198987143643853
 10
-124.0029335233116
 20
-3.076158984912117
 10
-123.7499510155737
 20
-2.971417358402212
 10
-123.4944501299324
 20
-2.872342082181195
 10
-123.2382624139511
 20
-2.774068108022448
 10
-122.9149942683161
 20
-2.650381411371274
 10
-122.5894366882218
 20
-2.53224659327829
 10
-122.2622765040061
 20
-2.41926300271605
 10
-122.0305857367388
 20
-2.339132796644644
 10
-121.7995817998082
 20
-2.258029580925346
 10
-121.5658305415269
 20
-2.183165074116024
 10
-121.1086304800309
 20
-2.037270863205462
 10
-120.647767323399
 20
-1.902652117006205
 10
-120.1839279019711
 20
-1.777763467256332
 10
-120.0749508217154
 20
-1.748401470314214
 10
-119.9684921193637
 20
-1.713602066534659
 10
-119.8592860956614
 20
-1.685327550972093
 10
-119.2828064988425
 20
-1.536686018701876
 10
-118.7006033158755
 20
-1.40761915106915
 10
-118.1149659812206
 20
-1.291659295714734
 10
-117.9354743196212
 20
-1.256001354008041
 10
-117.7534642801158
 20
-1.227154479821501
 10
-117.5728279012889
 20
-1.194587274646023
 10
-117.1460773180983
 20
-1.117833984403221
 10
-116.7177241307901
 20
-1.048177940979243
 10
-116.2870815090195
 20
-0.9889388243471318
 10
-116.0828639552608
 20
-0.9608360163599185
 10
-115.8779595711648
 20
-0.9347936993898796
 10
-115.6725973001774
 20
-0.9106401658433739
 10
-115.2408099611786
 20
-0.8598719567156889
 10
-114.8071910746119
 20
-0.8195779102344705
 10
-114.3724274708153
 20
-0.7864955823018124
 10
-114.1856096189465
 20
-0.7723010886548591
 10
-113.9999364843071
 20
-0.7546724433141123
 10
-113.8124318021036
 20
-0.743797629630254
 10
-113.1970318194775
 20
-0.7079679803472454
 10
-112.579342402394
 20
-0.6850163998901344
 10
-111.9589056639585
 20
-0.6850163998901344
 10
-111.4504222705761
 20
-0.6850163998901344
 10
-110.9451440854376
 20
-0.6996687804290801
 10
-110.4423842782038
 20
-0.7235361346695344
 10
-110.3231047428821
 20
-0.7290880132360658
 10
-110.2045120378965
 20
-0.738417458659289
 10
-110.0856903894655
 20
-0.7452857620362882
 10
-109.6809183770841
 20
-0.7690958804112328
 10
-109.2775200253786
 20
-0.798457877343725
 10
-108.8768689950232
 20
-0.8374354990157591
 10
-108.7788812001708
 20
-0.8468221802926207
 10
-108.6808934053191
 20
-0.8572963429496752
 10
-108.5829056104667
 20
-0.8675987980111633
 10
-108.1163188676875
 20
-0.9173939975002625
 10
-107.6520215593682
 20
-0.9749732741506667
 10
-107.1916162896289
 20
-1.044915496871712
 10
-107.172842927063
 20
-1.04777728995244
 10
-107.153840621053
 20
-1.050181196132192
 10
-107.1350672584865
 20
-1.053042989203615
 10
-106.9999906253962
 20
-1.073647899336217
 10
-106.8637692750753
 20
-1.089387761244768
 10
-106.7291505288757
 20
-1.111709747223945
 10
-106.7378503798223
 20
-1.114914955467251
 10
-106.7470081176583
 20
-1.117833984403221
 10
-106.7557079686036
 20
-1.121039192646206
 10
-107.3708790077804
 20
-1.349581987526753
 10
-107.9958946151352
 20
-1.569539403192388
 10
-108.6307547906632
 20
-1.779995665850143
 10
-114.3976112498665
 20
-3.693276043383826
 10
-120.1521047629892
 20
-4.663423895459793
 10
-125.7339749178923
 20
-4.663423895459793
 10
-126.2367347251255
 20
-4.663423895459793
 10
-126.739494532358
 20
-4.655067459676118
 10
-127.2408806789178
 20
-4.639041418461836
 10
-127.2486647560778
 20
-4.638812475021294
 10
-127.2562198897931
 20
-4.638869710876537
 10
-127.264003966955
 20
-4.638640767435033
 97
        0
 97
        1
330
7E
 92
        1
 93
        1
 72
     4
 94
        3
 73
     0
 74
     0
 95
      221
 96
      217
 40
0.0
 40
0.0
 40
0.0
 40
0.0
 40
1.0
 40
1.0
 40
1.0
 40
2.0
 40
2.0
 40
2.0
 40
3.0
 40
3.0
 40
3.0
 40
4.0
 40
4.0
 40
4.0
 40
5.0
 40
5.0
 40
5.0
 40
6.0
 40
6.0
 40
6.0
 40
7.0
 40
7.0
 40
7.0
 40
8.0
 40
8.0
 40
8.0
 40
9.0
 40
9.0
 40
9.0
 40
10.0
 40
10.0
 40
10.0
 40
11.0
 40
11.0
 40
11.0
 40
12.0
 40
12.0
 40
12.0
 40
13.0
 40
13.0
 40
13.0
 40
14.0
 40
14.0
 40
14.0
 40
15.0
 40
15.0
 40
15.0
 40
16.0
 40
16.0
 40
16.0
 40
17.0
 40
17.0
 40
17.0
 40
18.0
 40
18.0
 40
18.0
 40
19.0
 40
19.0
 40
19.0
 40
20.0
 40
20.0
 40
20.0
 40
21.0
 40
21.0
 40
21.0
 40
22.0
 40
22.0
 40
22.0
 40
23.0
 40
23.0
 40
23.0
 40
24.0
 40
24.0
 40
24.0
 40
25.0
 40
25.0
 40
25.0
 40
26.0
 40
26.0
 40
26.0
 40
27.0
 40
27.0
 40
27.0
 40
28.0
 40
28.0
 40
28.0
 40
29.0
 40
29.0
 40
29.0
 40
30.0
 40
30.0
 40
30.0
 40
31.0
 40
31.0
 40
31.0
 40
32.0
 40
32.0
 40
32.0
 40
33.0
 40
33.0
 40
33.0
 40
34.0
 40
34.0
 40
34.0
 40
35.0
 40
35.0
 40
35.0
 40
36.0
 40
36.0
 40
36.0
 40
37.0
 40
37.0
 40
37.0
 40
38.0
 40
38.0
 40
38.0
 40
39.0
 40
39.0
 40
39.0
 40
40.0
 40
40.0
 40
40.0
 40
41.0
 40
41.0
 40
41.0
 40
42.0
 40
42.0
 40
42.0
 40
43.0
 40
43.0
 40
43.0
 40
44.0
 40
44.0
 40
44.0
 40
45.0
 40
45.0
 40
45.0
 40
46.0
 40
46.0
 40
46.0
 40
47.0
 40
47.0
 40
47.0
 40
48.0
 40
48.0
 40
48.0
 40
49.0
 40
49.0
 40
49.0
 40
50.0
 40
50.0
 40
50.0
 40
51.0
 40
51.0
 40
51.0
 40
52.0
 40
52.0
 40
52.0
 40
53.0
 40
53.0
 40
53.0
 40
54.0
 40
54.0
 40
54.0
 40
55.0
 40
55.0
 40
55.0
 40
56.0
 40
56.0
 40
56.0
 40
57.0
 40
57.0
 40
57.0
 40
58.0
 40
58.0
 40
58.0
 40
59.0
 40
59.0
 40
59.0
 40
60.0
 40
60.0
 40
60.0
 40
61.0
 40
61.0
 40
61.0
 40
62.0
 40
62.0
 40
62.0
 40
63.0
 40
63.0
 40
63.0
 40
64.0
 40
64.0
 40
64.0
 40
65.0
 40
65.0
 40
65.0
 40
66.0
 40
66.0
 40
66.0
 40
67.0
 40
67.0
 40
67.0
 40
68.0
 40
68.0
 40
68.0
 40
69.0
 40
69.0
 40
69.0
 40
70.0
 40
70.0
 40
70.0
 40
71.0
 40
71.0
 40
71.0
 40
72.0
 40
72.0
 40
72.0
 40
72.0
 10
-87.03726685866508
 20
-17.04079341206401
 10
-88.12474822677046
 20
-16.57724016994245
 10
-89.21108487764653
 20
-16.11328627679441
 10
-90.30360300156191
 20
-15.67274185098553
 10
-90.84986206351898
 20
-15.45249825601352
 10
-91.39772372960056
 20
-15.23809271891474
 10
-91.94787483013891
 20
-15.0325587403459
 10
-92.53397005168519
 20
-14.81351709846393
 10
-93.1189205560047
 20
-14.61834281082177
 10
-93.70387106032163
 20
-14.43404333685353
 10
-93.8531421870592
 20
-14.38699545871542
 10
-94.00264225724276
 20
-14.3413212412626
 10
-94.15191338398159
 20
-14.29650556171734
 10
-94.70733018377593
 20
-14.12994920481123
 10
-95.26297592701562
 20
-13.97489725606467
 10
-95.81862167025596
 20
-13.84027850986573
 10
-95.85158952646914
 20
-13.83226548926389
 10
-95.88478632612639
 20
-13.82230644936401
 10
-95.91775418233895
 20
-13.81440790048228
 10
-96.50018630875187
 20
-13.67532475708513
 10
-97.08307632205675
 20
-13.55976555275655
 10
-97.66688210914436
 20
-13.45634035106803
 10
-97.8161532358832
 20
-13.42984014719733
 10
-97.96588224951147
 20
-13.4054004343544
 10
-98.11538231969567
 20
-13.38124690080693
 10
-98.65133892658739
 20
-13.29482074997127
 10
-99.18798236381645
 20
-13.22052860177341
 10
-99.72599946172213
 20
-13.16455192924883
 10
-99.7832353232013
 20
-13.15859939965517
 10
-99.8402422412351
 20
-13.14967060526004
 10
-99.89747810271362
 20
-13.1440614908373
 10
-100.4831154373704
 20
-13.08671115763738
 10
-101.0712711499301
 20
-13.05271305591144
 10
-101.6608005231669
 20
-13.03199367405808
 10
-101.8098427064585
 20
-13.02678521066183
 10
-101.9595717200887
 20
-13.02409512517699
 10
-102.1090717902722
 20
-13.02123333210525
 10
-102.2897081690997
 20
-13.0177419445469
 10
-102.4696577175912
 20
-13.00824079154769
 10
-102.6507519833106
 20
-13.00824079154769
 10
-103.0150010057661
 20
-13.00824079154769
 10
-103.3806236888944
 20
-13.01951625625899
 10
-103.746933202362
 20
-13.03365351403915
 10
-103.8016506859358
 20
-13.03577124091317
 10
-103.8559102826183
 20
-13.03502717471481
 10
-103.9108567096388
 20
-13.0374310808952
 10
-104.505422838685
 20
-13.06381681304546
 10
-105.1041099497572
 20
-13.11424160700223
 10
-105.7050864952894
 20
-13.17817406427373
 10
-105.8497787531103
 20
-13.19357051101073
 10
-105.9951578412665
 20
-13.21068403359397
 10
-106.1403079859787
 20
-13.22825544306889
 10
-106.7490686086722
 20
-13.30208970437572
 10
-107.3601186658238
 20
-13.38805796831906
 10
-107.9768923091252
 20
-13.50092708716119
 10
-109.0270558955447
 20
-13.69289616656005
 10
-110.0584461194022
 20
-13.9606455265628
 10
-111.0774733971772
 20
-14.27515658538733
 10
-113.6251560633422
 20
-15.06140561453116
 10
-116.097287392354
 20
-16.14001542410661
 10
-118.5994103127799
 20
-17.0577352270626
 10
-118.6726722154749
 20
-17.08463608196042
 10
-118.7466209485067
 20
-17.10838896447017
 10
-118.8198828511979
 20
-17.13500364006258
 10
-119.2473202647252
 20
-17.28999835294267
 10
-119.675215565144
 20
-17.44287533895996
 10
-120.1051713565773
 20
-17.58544986990647
 10
-120.6003760300951
 20
-17.74971679234395
 10
-121.084820361655
 20
-17.8938939274166
 10
-121.5621674463922
 20
-18.01924046404916
 10
-121.7146437813731
 20
-18.05930556708887
 10
-121.8625412474353
 20
-18.08517617647329
 10
-122.0136439217408
 20
-18.12123476920679
 10
-122.0990398270673
 20
-18.14155350003398
 10
-122.183519958611
 20
-18.15883873020252
 10
-122.268457977048
 20
-18.17789827207417
 10
-122.5033539525561
 20
-18.23055526463437
 10
-122.7409972494187
 20
-18.29185487227564
 10
-122.9731459035786
 20
-18.33455282494687
 10
-123.1569874906507
 20
-18.36837921907661
 10
-123.3378528129249
 20
-18.38629404372406
 10
-123.5203207393197
 20
-18.41371002136814
 10
-123.7994027998928
 20
-18.45566390783139
 10
-124.079171690804
 20
-18.50191048390659
 10
-124.3561932603625
 20
-18.52886857465997
 10
-124.5512530762858
 20
-18.54781364481054
 10
-124.7453971184213
 20
-18.55061820202672
 10
-124.9399990474514
 20
-18.56206537432204
 10
-125.2023682364726
 20
-18.57746182105935
 10
-125.4649663689391
 20
-18.59743713671434
 10
-125.7273355579603
 20
-18.59892526911107
 10
-125.755266658361
 20
-18.59909697669637
 10
-125.7831977587629
 20
-18.6028745435614
 10
-125.8111288591648
 20
-18.6028745435614
 10
-126.0343487189347
 20
-18.6028745435614
 10
-126.2594001262714
 20
-18.58318540721247
 10
-126.483535759824
 20
-18.57294018800622
 10
-126.6744745937182
 20
-18.56424033706125
 10
-126.8647265972769
 20
-18.56361074258428
 10
-127.0565812049549
 20
-18.54741299378374
 10
-127.3251318670142
 20
-18.5246903567784
 10
-127.59734562421
 20
-18.48267923444996
 10
-127.8686436076212
 20
-18.44501803759898
 10
-128.0479063257746
 20
-18.42017767371994
 10
-128.2251085529141
 20
-18.4048384628382
 10
-128.4059738751889
 20
-18.37341597488661
 10
-128.7104686582574
 20
-18.32047280302067
 10
-129.0213738578137
 20
-18.24623789067741
 10
-129.3315922270308
 20
-18.17446412038101
 10
-129.4847553923497
 20
-18.13903512213348
 10
-129.6342554625332
 20
-18.11425199410903
 10
-129.7892501754188
 20
-18.074186891069
 10
-130.2572105788727
 20
-17.95296133646277
 10
-130.7327261160426
 20
-17.81141705102132
 10
-131.2192309386171
 20
-17.64709289271769
 10
-132.3067123067225
 20
-17.27963866201631
 10
-133.3298605665248
 20
-16.72256202224027
 10
-134.3122568929544
 20
-16.0348731465699
 10
-134.6398749640621
 20
-15.80558628548201
 10
-134.9626852228051
 20
-15.56187598730597
 10
-135.2820613298589
 20
-15.30574550718545
 10
-135.9787362357854
 20
-14.74695179156219
 10
-136.65755355293
 20
-14.12622887382101
 10
-137.3283578494647
 20
-13.47270980745387
 10
-137.3283578494647
 20
-13.47270980745387
 10
-136.0696267838144
 20
-11.89271385131064
 10
-136.0696267838144
 20
-11.89271385131064
 10
-135.0492258453628
 20
-10.68795620304004
 10
-133.9338133768549
 20
-9.568251044919819
 10
-132.7465126663279
 20
-8.52793202667296
 10
-132.7465126663279
 20
-8.52793202667296
 10
-132.0659782733412
 20
-8.008287640306711
 10
-132.0659782733412
 20
-8.008287640306711
 10
-131.8932404433957
 20
-8.031639871790625
 10
-131.7208460286216
 20
-8.057624952894514
 10
-131.5477647835062
 20
-8.077771976135123
 10
-131.3572838365053
 20
-8.099979490394511
 10
-131.1665739460559
 20
-8.116463418500142
 10
-130.9758640556072
 20
-8.13643873415449
 10
-130.5726946473477
 20
-8.178621564069189
 10
-130.1695252390869
 20
-8.218629431234729
 10
-129.7661268873815
 20
-8.25085322124827
 10
-129.5392439324775
 20
-8.268996989336573
 10
-129.3123609775742
 20
-8.282962539541381
 10
-129.0857069661162
 20
-8.297958335251566
 10
-128.7152764706233
 20
-8.322398048105087
 10
-128.3448459751291
 20
-8.344033203741783
 10
-127.9744154796355
 20
-8.360230952541364
 10
-127.7381458434496
 20
-8.370590643467719
 10
-127.5018762072636
 20
-8.379061550962202
 10
-127.265606571077
 20
-8.386158797790329
 10
-126.8981523403788
 20
-8.397090847328788
 10
-126.5306981096813
 20
-8.403444027959515
 10
-126.163243878985
 20
-8.406477528616239
 10
-126.0201542252875
 20
-8.407679481706917
 10
-125.8770645715892
 20
-8.414433313363485
 10
-125.7339749178923
 20
-8.414433313363485
 10
-125.6593393545226
 20
-8.414433313363485
 10
-125.5849327346001
 20
-8.409797208579334
 10
-125.5105261146763
 20
-8.409453793407772
 10
-124.8246115507097
 20
-8.406477528616239
 10
-124.1389259301872
 20
-8.393599459780395
 10
-123.4539271400039
 20
-8.363779575946285
 10
-123.3804362938654
 20
-8.3605743677033
 10
-123.3071743911723
 20
-8.354564602254081
 10
-123.2336835450319
 20
-8.351073214704724
 10
-122.6130178631523
 20
-8.321539510176023
 10
-121.9930390116083
 20
-8.279413916127797
 10
-121.3735180469561
 20
-8.228416763548342
 10
-121.1818923827247
 20
-8.212676901640753
 10
-120.9907246053833
 20
-8.195677850787564
 10
-120.7993278845972
 20
-8.177934733726386
 10
-120.2061354162257
 20
-8.122873834985471
 10
-119.6138587216381
 20
-8.059055849434397
 10
-119.0224978008359
 20
-7.984935408823759
 10
-118.9215337411855
 20
-7.972286283428136
 10
-118.8205696815365
 20
-7.962441715257999
 10
-118.7198345653322
 20
-7.949277467115141
 10
-118.0396435875129
 20
-7.860275702514107
 10
-117.3612841572622
 20
-7.756507085652734
 10
-116.6842983876843
 20
-7.643008372344222
 10
-116.5073251039908
 20
-7.61336019609509
 10
-116.3310386506347
 20
-7.580850226774856
 10
-116.1542943103872
 20
-7.549542210544016
 10
-115.6103246828888
 20
-7.453157019817786
 10
-115.0677287160652
 20
-7.349273931226997
 10
-114.5262774664708
 20
-7.237664001350361
 10
-114.3641855067613
 20
-7.204238258246141
 10
-114.2020935470537
 20
-7.172873006150433
 10
-114.0404594742356
 20
-7.138130838236389
 10
-113.3691972908063
 20
-6.993953703164061
 10
-112.7002245418376
 20
-6.839187933723873
 10
-112.0335412273276
 20
-6.672288161656152
 10
-111.9023566328167
 20
-6.639434777164357
 10
-111.7718588686431
 20
-6.603261712709145
 10
-111.6409032175795
 20
-6.569549790298875
 10
-111.0861732481232
 20
-6.426803551767393
 10
-110.5332748262335
 20
-6.276216000219363
 10
-109.9822079519112
 20
-6.118130550816721
 10
-109.8004268558524
 20
-6.06604591686766
 10
-109.6188747032396
 20
-6.014018518784429
 10
-109.4375514940742
 20
-5.960274044854301
 10
-108.7722418402389
 20
-5.763096502058553
 10
-108.1087637339722
 20
-5.558878948300506
 10
-107.4496355531768
 20
-5.340180721590417
 10
-105.5933620936831
 20
-4.724837974820206
 10
-103.7414385596594
 20
-4.011564669063772
 10
-101.9293511852262
 20
-3.192920142329766
 10
-101.5802124302038
 20
-3.035178108098044
 10
-101.2409182433549
 20
-2.854427257544664
 10
-100.8949846965739
 20
-2.688843910285485
 10
-93.28856764942822
 20
-5.542166076744065
 10
-87.06519795906698
 20
-11.24549072970711
 10
-83.53511896647232
 20
-18.49481323708873
 10
-84.70891201368878
 20
-18.02937121153401
 10
-85.87400520996059
 20
-17.53668491592114
 10
-87.03726685866508
 20
-17.04079341206401
 97
        0
 97
        1
330
7F
 92
        1
 93
        1
 72
     4
 94
        3
 73
     0
 74
     0
 95
      110
 96
      106
 40
0.0
 40
0.0
 40
0.0
 40
0.0
 40
1.0
 40
1.0
 40
1.0
 40
2.0
 40
2.0
 40
2.0
 40
3.0
 40
3.0
 40
3.0
 40
4.0
 40
4.0
 40
4.0
 40
5.0
 40
5.0
 40
5.0
 40
6.0
 40
6.0
 40
6.0
 40
7.0
 40
7.0
 40
7.0
 40
8.0
 40
8.0
 40
8.0
 40
9.0
 40
9.0
 40
9.0
 40
10.0
 40
10.0
 40
10.0
 40
11.0
 40
11.0
 40
11.0
 40
12.0
 40
12.0
 40
12.0
 40
13.0
 40
13.0
 40
13.0
 40
14.0
 40
14.0
 40
14.0
 40
15.0
 40
15.0
 40
15.0
 40
16.0
 40
16.0
 40
16.0
 40
17.0
 40
17.0
 40
17.0
 40
18.0
 40
18.0
 40
18.0
 40
19.0
 40
19.0
 40
19.0
 40
20.0
 40
20.0
 40
20.0
 40
21.0
 40
21.0
 40
21.0
 40
22.0
 40
22.0
 40
22.0
 40
23.0
 40
23.0
 40
23.0
 40
24.0
 40
24.0
 40
24.0
 40
25.0
 40
25.0
 40
25.0
 40
26.0
 40
26.0
 40
26.0
 40
27.0
 40
27.0
 40
27.0
 40
28.0
 40
28.0
 40
28.0
 40
29.0
 40
29.0
 40
29.0
 40
30.0
 40
30.0
 40
30.0
 40
31.0
 40
31.0
 40
31.0
 40
32.0
 40
32.0
 40
32.0
 40
33.0
 40
33.0
 40
33.0
 40
34.0
 40
34.0
 40
34.0
 40
35.0
 40
35.0
 40
35.0
 40
35.0
 10
-81.69853464332588
 20
-23.16125302348909
 10
-81.64427504664402
 20
-23.34125980783543
 10
-81.60649937806748
 20
-23.52533033835287
 10
-81.55544498962894
 20
-23.70619566062701
 10
-81.44486530525062
 20
-24.09911984968568
 10
-81.34000920702092
 20
-24.49347493527461
 10
-81.24499767696521
 20
-24.89034839877463
 10
-81.18570132447144
 20
-25.13697772588696
 10
-81.12686285887159
 20
-25.38383599645137
 10
-81.07329009252772
 20
-25.63269752215783
 10
-80.94210549801681
 20
-26.24586530618851
 10
-80.8216812454645
 20
-26.86160870398488
 10
-80.72735654574678
 20
-27.48284674447393
 10
-80.72483816784083
 20
-27.49938790844443
 10
-80.72048824236883
 20
-27.51564289311017
 10
-80.71819880790886
 20
-27.53218405707072
 10
-80.71911458169413
 20
-27.53189787776467
 10
-80.72003035547748
 20
-27.53149722673787
 10
-80.72117507270681
 20
-27.53121104743181
 10
-83.43117864202532
 20
-26.74713698102655
 10
-86.10523809033656
 20
-25.64277103377814
 10
-88.87797216383752
 20
-24.49765315316613
 10
-89.43476262430719
 20
-24.26762222588051
 10
-89.99292674545349
 20
-24.03713341170129
 10
-90.55223558382911
 20
-23.80876232439835
 10
-93.29131497077954
 20
-22.68991570420558
 10
-96.563832586717
 20
-21.36851137023841
 10
-100.0318679054665
 20
-20.86031415615721
 10
-100.9453522546758
 20
-20.72643947615663
 10
-101.869368002397
 20
-20.6359495791592
 10
-102.8043730355209
 20
-20.6359495791592
 10
-104.0841668981976
 20
-20.6359495791592
 10
-105.3325955087826
 20
-20.78115695973594
 10
-106.5146305200517
 20
-21.0675079747177
 10
-109.0497212966907
 20
-21.68164876838761
 10
-111.4032599207176
 20
-22.58986741833539
 10
-113.6791867165774
 20
-23.46820894860281
 10
-115.8452206583988
 20
-24.30402423378621
 10
-117.8910592911127
 20
-25.09353570702826
 10
-119.9664316283504
 20
-25.5896561543253
 10
-122.0816401251786
 20
-26.09516328291042
 10
-124.174183220859
 20
-26.35146547061689
 10
-126.186138223577
 20
-26.35146547061689
 10
-127.9808258961209
 20
-26.35146547061689
 10
-129.6635602236111
 20
-26.12956203566221
 10
-131.2357148667224
 20
-25.72524791017309
 10
-132.0038201277741
 20
-25.52778418807225
 10
-132.7536099131525
 20
-25.30038611041719
 10
-133.4612741044823
 20
-25.00773915066925
 10
-136.3022333248651
 20
-23.83331650898064
 10
-138.8473976131254
 20
-22.30025395925476
 10
-141.1852536111057
 20
-20.35286100828528
 10
-141.1230954655392
 20
-20.18046659350499
 10
-141.0656306606134
 20
-20.02678830543441
 10
-141.0132026114995
 20
-19.89285638957827
 10
-140.8263847596302
 20
-19.4538573320297
 10
-140.6360182843513
 20
-19.01634640688749
 10
-140.4289389375193
 20
-18.58679126648161
 10
-140.326601217193
 20
-18.37473239969772
 10
-140.2141899852493
 20
-18.16868329837266
 10
-140.1072733960063
 20
-17.95931451708387
 10
-139.9433498887288
 20
-17.6378779190165
 10
-139.7769080035479
 20
-17.31775774575928
 10
-139.6017662674205
 20
-17.00193026212331
 10
-139.5399515370233
 20
-16.89026309637186
 10
-139.4863787706788
 20
-16.77436047688264
 10
-139.4229614361597
 20
-16.66338014147302
 10
-139.4195272844704
 20
-16.66664258557125
 10
-139.415864189337
 20
-16.66979055795867
 10
-139.4124300376477
 20
-16.67305300205722
 10
-137.4130669244544
 20
-18.54907283376577
 10
-135.12111408738
 20
-20.28812724895151
 10
-132.4198103690048
 20
-21.20081029609686
 10
-131.0800333234982
 20
-21.65337425281445
 10
-129.7887922885268
 20
-21.95414870489429
 10
-128.5165535595659
 20
-22.1397073678075
 10
-127.6076480792766
 20
-22.2722656229883
 10
-126.7069845630381
 20
-22.35388396146574
 10
-125.8111288591648
 20
-22.35388396146574
 10
-123.62746627201
 20
-22.35388396146574
 10
-121.3746627641861
 20
-21.9586703379471
 10
-118.9245100059822
 20
-21.14574939735627
 10
-117.448511610156
 20
-20.65626830998606
 10
-116.0107467697976
 20
-20.09426938611918
 10
-114.6201442792972
 20
-19.55081488137766
 10
-112.2638583339203
 20
-18.62983263431415
 10
-110.0293703017704
 20
-17.77295455210775
 10
-107.7884718531351
 20
-17.30281918591397
 10
-107.6261509499796
 20
-17.26882108419828
 10
-107.4640589902694
 20
-17.22034230952896
 10
-107.3017380871152
 20
-17.19069413327982
 10
-105.7371385777186
 20
-16.90440035416326
 10
-104.172310124876
 20
-16.7592502094517
 10
-102.6507519833106
 20
-16.7592502094517
 10
-99.54948406491936
 20
-16.75930744530726
 10
-96.47820773794457
 20
-17.34380006273863
 10
-93.26063654902631
 20
-18.54638274827997
 10
-91.72557074415292
 20
-19.1197716085757
 10
-90.21431505765546
 20
-19.76407570125224
 10
-88.61422931414034
 20
-20.44615546249859
 10
-86.39027268050368
 20
-21.39426750790175
 10
-84.10633286403463
 20
-22.36767780407498
 10
-81.71204230663581
 20
-23.1565024469845
 10
-81.70746343771716
 20
-23.15799057938091
 10
-81.70311351224581
 20
-23.159764891093
 10
-81.69853464332588
 20
-23.16125302348909
 97
        0
 97
        1
330
80
 92
        1
 93
        1
 72
     4
 94
        3
 73
     0
 74
     0
 95
       44
 96
       40
 40
0.0
 40
0.0
 40
0.0
 40
0.0
 40
1.0
 40
1.0
 40
1.0
 40
2.0
 40
2.0
 40
2.0
 40
3.0
 40
3.0
 40
3.0
 40
4.0
 40
4.0
 40
4.0
 40
5.0
 40
5.0
 40
5.0
 40
6.0
 40
6.0
 40
6.0
 40
7.0
 40
7.0
 40
7.0
 40
8.0
 40
8.0
 40
8.0
 40
9.0
 40
9.0
 40
9.0
 40
10.0
 40
10.0
 40
10.0
 40
11.0
 40
11.0
 40
11.0
 40
12.0
 40
12.0
 40
12.0
 40
13.0
 40
13.0
 40
13.0
 40
13.0
 10
-66.26820427541374
 20
10.69696424973323
 10
-59.04297806571953
 20
15.96667001611964
 10
-54.35421629333967
 20
20.91310763688194
 10
-51.9954119700568
 20
25.74158214713656
 10
-49.29868712060092
 20
31.25734488202383
 10
-47.93281052225973
 20
37.30024990114254
 10
-47.93281052225973
 20
43.69841791246831
 10
-47.93281052225973
 20
57.78055756323718
 10
-53.95242054575491
 20
69.23585735140893
 10
-65.82565659445575
 20
77.74831808577413
 10
-77.39302419941217
 20
86.03652871486048
 10
-92.4522372414934
 20
90.24033103293289
 10
-110.586618649132
 20
90.24033103293289
 10
-130.8792499214301
 20
90.24033103293289
 10
-147.0536464885733
 20
85.15853059977457
 10
-158.659018705551
 20
75.13458523546461
 10
-170.3923703087963
 20
65.00000295091853
 10
-176.3391763164897
 20
52.21528580815627
 10
-176.3391763164897
 20
37.13569679938842
 10
-176.3391763164897
 20
21.84353380108815
 10
-170.5292784894552
 20
10.00967602509031
 10
-159.0550908669878
 20
1.886018497757449
 10
-173.8578872496425
 20
-6.240615294376896
 10
-181.3539535558558
 20
-18.72827831605787
 10
-181.3539535558558
 20
-35.30326867769164
 10
-181.3539535558558
 20
-49.7508593040083
 10
-175.3753244091799
 20
-61.59347416681598
 10
-163.5806159624288
 20
-70.50200706261765
 10
-152.0423241751043
 20
-79.21691103902883
 10
-135.4572030659856
 20
-83.63477547902814
 10
-114.2852000179202
 20
-83.63477547902814
 10
-93.15120158187797
 20
-83.63477547902814
 10
-75.81468808326026
 20
-78.99701085922806
 10
-62.75323555025098
 20
-69.84968994934023
 10
-49.35409143451212
 20
-60.4664428184274
 10
-42.56271305483188
 20
-46.99735647997038
 10
-42.56271305483188
 20
-29.81371996735843
 10
-42.56271305483188
 20
-12.31116523459115
 10
-50.53337912443056
 20
1.296260181075551
 10
-66.26820427541374
 20
10.69696424973323
 97
        0
 97
        1
330
81
 75
     2
 76
     1
 98
        1
 10
0.0
 20
0.0
450
        0
451
        0
460
0.0
461
0.0
452
        0
462
0.0
453
        0
470

  0
ENDSEC
  0
SECTION
  2
OBJECTS
  0
DICTIONARY
  5
C
330
0
100
AcDbDictionary
281
     1
  3
ACAD_COLOR
350
63
  3
ACAD_DETAILVIEWSTYLE
350
6A
  3
ACAD_GROUP
350
D
  3
ACAD_LAYOUT
350
62
  3
ACAD_MATERIAL
350
10
  3
ACAD_MLEADERSTYLE
350
66
  3
ACAD_MLINESTYLE
350
5F
  3
ACAD_PLOTSETTINGS
350
61
  3
ACAD_PLOTSTYLENAME
350
E
  3
ACAD_SCALELIST
350
42
  3
ACAD_SECTIONVIEWSTYLE
350
68
  3
ACAD_TABLESTYLE
350
64
  3
ACAD_VISUALSTYLE
350
29
  3
ACDB_RECOMPOSE_DATA
350
8B
  3
AcDbVariableDictionary
350
83
  0
DICTIONARY
  5
63
102
{ACAD_REACTORS
330
C
102
}
330
C
100
AcDbDictionary
281
     1
  0
DICTIONARY
  5
6A
102
{ACAD_REACTORS
330
C
102
}
330
C
100
AcDbDictionary
281
     1
  3
Imperial24
350
6B
  0
DICTIONARY
  5
D
102
{ACAD_REACTORS
330
C
102
}
330
C
100
AcDbDictionary
281
     1
  0
DICTIONARY
  5
62
102
{ACAD_REACTORS
330
C
102
}
330
C
100
AcDbDictionary
281
     1
  3
Layout1
350
6F
  3
Layout2
350
77
  3
Model
350
73
  0
DICTIONARY
  5
10
102
{ACAD_REACTORS
330
C
102
}
330
C
100
AcDbDictionary
281
     1
  3
ByBlock
350
19
  3
ByLayer
350
11
  3
Global
350
21
  0
DICTIONARY
  5
66
102
{ACAD_REACTORS
330
C
102
}
330
C
100
AcDbDictionary
281
     1
  3
Standard
350
67
  0
DICTIONARY
  5
5F
102
{ACAD_REACTORS
330
C
102
}
330
C
100
AcDbDictionary
281
     1
  3
Standard
350
60
  0
DICTIONARY
  5
61
102
{ACAD_REACTORS
330
C
102
}
330
C
100
AcDbDictionary
281
     1
  0
ACDBDICTIONARYWDFLT
  5
E
102
{ACAD_REACTORS
330
C
102
}
330
C
100
AcDbDictionary
281
     1
  3
Normal
350
F
100
AcDbDictionaryWithDefault
340
F
  0
DICTIONARY
  5
42
102
{ACAD_REACTORS
330
C
102
}
330
C
100
AcDbDictionary
281
     1
  3
A0
350
43
  3
A1
350
44
  3
A2
350
45
  3
A3
350
46
  3
A4
350
47
  3
A5
350
48
  3
A6
350
49
  3
A7
350
4A
  3
A8
350
4B
  3
A9
350
4C
  3
B0
350
4D
  3
B1
350
4E
  3
B2
350
4F
  3
B3
350
50
  3
B4
350
51
  3
B5
350
52
  3
B6
350
53
  0
DICTIONARY
  5
68
102
{ACAD_REACTORS
330
C
102
}
330
C
100
AcDbDictionary
281
     1
  3
Imperial24
350
69
  0
DICTIONARY
  5
64
102
{ACAD_REACTORS
330
C
102
}
330
C
100
AcDbDictionary
281
     1
  3
Standard
350
65
  0
DICTIONARY
  5
29
102
{ACAD_REACTORS
330
C
102
}
330
C
100
AcDbDictionary
281
     1
  3
2dWireframe
350
2F
  3
Basic
350
2E
  3
Brighten
350
35
  3
ColorChange
350
39
  3
Conceptual
350
32
  3
Dim
350
34
  3
EdgeColorOff
350
41
  3
Facepattern
350
38
  3
Flat
350
2A
  3
FlatWithEdges
350
2B
  3
Gouraud
350
2C
  3
GouraudWithEdges
350
2D
  3
Hidden
350
31
  3
JitterOff
350
3F
  3
Linepattern
350
37
  3
OverhangOff
350
40
  3
Realistic
350
33
  3
Shaded
350
3E
  3
Shaded with edges
350
3D
  3
Shades of Gray
350
3A
  3
Sketchy
350
3B
  3
Thicken
350
36
  3
Wireframe
350
30
  3
X-Ray
350
3C
  0
XRECORD
  5
8B
102
{ACAD_REACTORS
330
C
102
}
330
C
100
AcDbXrecord
280
     1
 90
        1
330
65
  0
DICTIONARY
  5
83
102
{ACAD_REACTORS
330
C
102
}
330
C
100
AcDbDictionary
281
     1
  3
CANNOSCALE
350
88
  3
CMLEADERSTYLE
350
85
  3
CTABLESTYLE
350
84
  3
CVIEWDETAILSTYLE
350
86
  3
CVIEWSECTIONSTYLE
350
87
  0
ACDBDETAILVIEWSTYLE
  5
6B
102
{ACAD_XDICTIONARY
360
8E
102
}
102
{ACAD_REACTORS
330
6A
102
}
330
6A
100
AcDbModelDocViewStyle
 70
     0
  3
Imperial24
290
     0
100
AcDbDetailViewStyle
 70
     0
 71
     0
 90
        3
 71
     1
340
55
 62
   256
 40
0.24
340
0
 62
   256
 40
0.24
300

 40
0.36
280
     3
 71
     2
340
5D
 90
       25
 62
   256
 71
     3
340
55
 62
   256
 40
0.24
 90
        1
 40
0.75
 90
        1
300
%<\AcVar ViewType \f "%tc1">% %<\AcVar ViewDetailId>%\PSCALE %<\AcVar ViewScale \f "%sn">%
 71
     4
340
5D
 90
       25
 62
   256
340
5D
 90
       25
 62
   256
280
     0
  0
LAYOUT
  5
6F
102
{ACAD_REACTORS
330
62
102
}
330
62
100
AcDbPlotSettings
  1

  2

  4

  6

 40
0.0
 41
0.0
 42
0.0
 43
0.0
 44
0.0
 45
0.0
 46
0.0
 47
0.0
 48
0.0
 49
0.0
140
0.0
141
0.0
142
1.0
143
1.0
 70
   688
 72
     0
 73
     0
 74
     5
  7

 75
    16
147
1.0
 76
     0
 77
     2
 78
   300
148
0.0
149
0.0
100
AcDbLayout
  1
Layout1
 70
     1
 71
     1
 10
0.0
 20
0.0
 11
12.0
 21
9.0
 12
0.0
 22
0.0
 32
0.0
 14
0.0
 24
0.0
 34
0.0
 15
0.0
 25
0.0
 35
0.0
146
0.0
 13
0.0
 23
0.0
 33
0.0
 16
1.0
 26
0.0
 36
0.0
 17
0.0
 27
1.0
 37
0.0
 76
     0
330
6C
  0
LAYOUT
  5
77
102
{ACAD_REACTORS
330
62
102
}
330
62
100
AcDbPlotSettings
  1

  2

  4

  6

 40
0.0
 41
0.0
 42
0.0
 43
0.0
 44
0.0
 45
0.0
 46
0.0
 47
0.0
 48
0.0
 49
0.0
140
0.0
141
0.0
142
1.0
143
1.0
 70
   688
 72
     0
 73
     0
 74
     5
  7

 75
    16
147
1.0
 76
     0
 77
     2
 78
   300
148
0.0
149
0.0
100
AcDbLayout
  1
Layout2
 70
     1
 71
     2
 10
0.0
 20
0.0
 11
12.0
 21
9.0
 12
0.0
 22
0.0
 32
0.0
 14
0.0
 24
0.0
 34
0.0
 15
0.0
 25
0.0
 35
0.0
146
0.0
 13
0.0
 23
0.0
 33
0.0
 16
1.0
 26
0.0
 36
0.0
 17
0.0
 27
1.0
 37
0.0
 76
     0
330
74
  0
LAYOUT
  5
73
102
{ACAD_REACTORS
330
62
102
}
330
62
100
AcDbPlotSettings
  1

  2

  4

  6

 40
0.0
 41
0.0
 42
0.0
 43
0.0
 44
0.0
 45
0.0
 46
0.0
 47
0.0
 48
0.0
 49
0.0
140
0.0
141
0.0
142
1.0
143
1.0
 70
  1712
 72
     0
 73
     0
 74
     0
  7

 75
     0
147
1.0
 76
     0
 77
     2
 78
   300
148
0.0
149
0.0
100
AcDbLayout
  1
Model
 70
     1
 71
     0
 10
0.0
 20
0.0
 11
12.0
 21
9.0
 12
0.0
 22
0.0
 32
0.0
 14
0.0
 24
0.0
 34
0.0
 15
0.0
 25
0.0
 35
0.0
146
0.0
 13
0.0
 23
0.0
 33
0.0
 16
1.0
 26
0.0
 36
0.0
 17
0.0
 27
1.0
 37
0.0
 76
     0
330
70
  0
MATERIAL
  5
19
102
{ACAD_XDICTIONARY
360
1A
102
}
102
{ACAD_REACTORS
330
10
102
}
330
10
100
AcDbMaterial
  1
ByBlock
 72
     0
 43
0.0208333333333333
 43
0.0
 43
0.0
 43
0.0
 43
0.0
 43
0.0208333333333333
 43
0.0
 43
0.0
 43
0.0
 43
0.0
 43
1.0
 43
0.0
 43
0.0
 43
0.0
 43
0.0
 43
1.0
 77
     0
 47
0.0208333333333333
 47
0.0
 47
0.0
 47
0.0
 47
0.0
 47
0.0208333333333333
 47
0.0
 47
0.0
 47
0.0
 47
0.0
 47
1.0
 47
0.0
 47
0.0
 47
0.0
 47
0.0
 47
1.0
171
     0
 49
0.0208333333333333
 49
0.0
 49
0.0
 49
0.0
 49
0.0
 49
0.0208333333333333
 49
0.0
 49
0.0
 49
0.0
 49
0.0
 49
1.0
 49
0.0
 49
0.0
 49
0.0
 49
0.0
 49
1.0
175
     0
142
0.0208333333333333
142
0.0
142
0.0
142
0.0
142
0.0
142
0.0208333333333333
142
0.0
142
0.0
142
0.0
142
0.0
142
1.0
142
0.0
142
0.0
142
0.0
142
0.0
142
1.0
179
     0
144
0.0208333333333333
144
0.0
144
0.0
144
0.0
144
0.0
144
0.0208333333333333
144
0.0
144
0.0
144
0.0
144
0.0
144
1.0
144
0.0
144
0.0
144
0.0
144
0.0
144
1.0
147
0.0208333333333333
147
0.0
147
0.0
147
0.0
147
0.0
147
0.0208333333333333
147
0.0
147
0.0
147
0.0
147
0.0
147
1.0
147
0.0
147
0.0
147
0.0
147
0.0
147
1.0
  0
MATERIAL
  5
11
102
{ACAD_XDICTIONARY
360
12
102
}
102
{ACAD_REACTORS
330
10
102
}
330
10
100
AcDbMaterial
  1
ByLayer
 72
     0
 43
0.0208333333333333
 43
0.0
 43
0.0
 43
0.0
 43
0.0
 43
0.0208333333333333
 43
0.0
 43
0.0
 43
0.0
 43
0.0
 43
1.0
 43
0.0
 43
0.0
 43
0.0
 43
0.0
 43
1.0
 77
     0
 47
0.0208333333333333
 47
0.0
 47
0.0
 47
0.0
 47
0.0
 47
0.0208333333333333
 47
0.0
 47
0.0
 47
0.0
 47
0.0
 47
1.0
 47
0.0
 47
0.0
 47
0.0
 47
0.0
 47
1.0
171
     0
 49
0.0208333333333333
 49
0.0
 49
0.0
 49
0.0
 49
0.0
 49
0.0208333333333333
 49
0.0
 49
0.0
 49
0.0
 49
0.0
 49
1.0
 49
0.0
 49
0.0
 49
0.0
 49
0.0
 49
1.0
175
     0
142
0.0208333333333333
142
0.0
142
0.0
142
0.0
142
0.0
142
0.0208333333333333
142
0.0
142
0.0
142
0.0
142
0.0
142
1.0
142
0.0
142
0.0
142
0.0
142
0.0
142
1.0
179
     0
144
0.0208333333333333
144
0.0
144
0.0
144
0.0
144
0.0
144
0.0208333333333333
144
0.0
144
0.0
144
0.0
144
0.0
144
1.0
144
0.0
144
0.0
144
0.0
144
0.0
144
1.0
147
0.0208333333333333
147
0.0
147
0.0
147
0.0
147
0.0
147
0.0208333333333333
147
0.0
147
0.0
147
0.0
147
0.0
147
1.0
147
0.0
147
0.0
147
0.0
147
0.0
147
1.0
  0
MATERIAL
  5
21
102
{ACAD_XDICTIONARY
360
22
102
}
102
{ACAD_REACTORS
330
10
102
}
330
10
100
AcDbMaterial
  1
Global
 72
     0
 43
0.0208333333333333
 43
0.0
 43
0.0
 43
0.0
 43
0.0
 43
0.0208333333333333
 43
0.0
 43
0.0
 43
0.0
 43
0.0
 43
1.0
 43
0.0
 43
0.0
 43
0.0
 43
0.0
 43
1.0
 77
     0
 47
0.0208333333333333
 47
0.0
 47
0.0
 47
0.0
 47
0.0
 47
0.0208333333333333
 47
0.0
 47
0.0
 47
0.0
 47
0.0
 47
1.0
 47
0.0
 47
0.0
 47
0.0
 47
0.0
 47
1.0
171
     0
 49
0.0208333333333333
 49
0.0
 49
0.0
 49
0.0
 49
0.0
 49
0.0208333333333333
 49
0.0
 49
0.0
 49
0.0
 49
0.0
 49
1.0
 49
0.0
 49
0.0
 49
0.0
 49
0.0
 49
1.0
175
     0
142
0.0208333333333333
142
0.0
142
0.0
142
0.0
142
0.0
142
0.0208333333333333
142
0.0
142
0.0
142
0.0
142
0.0
142
1.0
142
0.0
142
0.0
142
0.0
142
0.0
142
1.0
179
     0
144
0.0208333333333333
144
0.0
144
0.0
144
0.0
144
0.0
144
0.0208333333333333
144
0.0
144
0.0
144
0.0
144
0.0
144
1.0
144
0.0
144
0.0
144
0.0
144
0.0
144
1.0
147
0.0208333333333333
147
0.0
147
0.0
147
0.0
147
0.0
147
0.0208333333333333
147
0.0
147
0.0
147
0.0
147
0.0
147
1.0
147
0.0
147
0.0
147
0.0
147
0.0
147
1.0
  0
MLEADERSTYLE
  5
67
102
{ACAD_REACTORS
330
66
102
}
330
66
100
AcDbMLeaderStyle
179
     2
170
     2
171
     1
172
     0
 90
        2
 40
0.0
 41
0.0
173
     1
 91
-1056964608
340
5B
 92
       -2
290
     1
 42
0.09
291
     1
 43
0.36
  3
Standard
 44
0.18
300

342
55
174
     1
178
     6
175
     1
176
     0
 93
-1056964608
 45
0.18
292
     0
297
     0
 46
0.18
 94
-1056964608
 47
1.0
 49
1.0
140
1.0
293
     1
141
0.0
294
     1
177
     0
142
1.0
295
     0
296
     0
143
0.125
271
     0
272
     9
273
     9
298
     1
  0
MLINESTYLE
  5
60
102
{ACAD_REACTORS
330
5F
102
}
330
5F
100
AcDbMlineStyle
  2
STANDARD
 70
     0
  3

 62
   256
 51
90.0
 52
90.0
 71
     2
 49
0.5
 62
   256
  6
BYLAYER
 49
-0.5
 62
   256
  6
BYLAYER
  0
ACDBPLACEHOLDER
  5
F
102
{ACAD_REACTORS
330
E
102
}
330
E
  0
SCALE
  5
43
102
{ACAD_REACTORS
330
42
102
}
330
42
100
AcDbScale
 70
     0
300
1:1
140
1.0
141
1.0
290
     1
  0
SCALE
  5
44
102
{ACAD_REACTORS
330
42
102
}
330
42
100
AcDbScale
 70
     0
300
1/128" = 1'-0"
140
0.0078125
141
12.0
290
     0
  0
SCALE
  5
45
102
{ACAD_REACTORS
330
42
102
}
330
42
100
AcDbScale
 70
     0
300
1/64" = 1'-0"
140
0.015625
141
12.0
290
     0
  0
SCALE
  5
46
102
{ACAD_REACTORS
330
42
102
}
330
42
100
AcDbScale
 70
     0
300
1/32" = 1'-0"
140
0.03125
141
12.0
290
     0
  0
SCALE
  5
47
102
{ACAD_REACTORS
330
42
102
}
330
42
100
AcDbScale
 70
     0
300
1/16" = 1'-0"
140
0.0625
141
12.0
290
     0
  0
SCALE
  5
48
102
{ACAD_REACTORS
330
42
102
}
330
42
100
AcDbScale
 70
     0
300
3/32" = 1'-0"
140
0.09375
141
12.0
290
     0
  0
SCALE
  5
49
102
{ACAD_REACTORS
330
42
102
}
330
42
100
AcDbScale
 70
     0
300
1/8" = 1'-0"
140
0.125
141
12.0
290
     0
  0
SCALE
  5
4A
102
{ACAD_REACTORS
330
42
102
}
330
42
100
AcDbScale
 70
     0
300
3/16" = 1'-0"
140
0.1875
141
12.0
290
     0
  0
SCALE
  5
4B
102
{ACAD_REACTORS
330
42
102
}
330
42
100
AcDbScale
 70
     0
300
1/4" = 1'-0"
140
0.25
141
12.0
290
     0
  0
SCALE
  5
4C
102
{ACAD_REACTORS
330
42
102
}
330
42
100
AcDbScale
 70
     0
300
3/8" = 1'-0"
140
0.375
141
12.0
290
     0
  0
SCALE
  5
4D
102
{ACAD_REACTORS
330
42
102
}
330
42
100
AcDbScale
 70
     0
300
1/2" = 1'-0"
140
0.5
141
12.0
290
     0
  0
SCALE
  5
4E
102
{ACAD_REACTORS
330
42
102
}
330
42
100
AcDbScale
 70
     0
300
3/4" = 1'-0"
140
0.75
141
12.0
290
     0
  0
SCALE
  5
4F
102
{ACAD_REACTORS
330
42
102
}
330
42
100
AcDbScale
 70
     0
300
1" = 1'-0"
140
1.0
141
12.0
290
     0
  0
SCALE
  5
50
102
{ACAD_REACTORS
330
42
102
}
330
42
100
AcDbScale
 70
     0
300
1-1/2" = 1'-0"
140
1.5
141
12.0
290
     0
  0
SCALE
  5
51
102
{ACAD_REACTORS
330
42
102
}
330
42
100
AcDbScale
 70
     0
300
3" = 1'-0"
140
3.0
141
12.0
290
     0
  0
SCALE
  5
52
102
{ACAD_REACTORS
330
42
102
}
330
42
100
AcDbScale
 70
     0
300
6" = 1'-0"
140
6.0
141
12.0
290
     0
  0
SCALE
  5
53
102
{ACAD_REACTORS
330
42
102
}
330
42
100
AcDbScale
 70
     0
300
1'-0" = 1'-0"
140
12.0
141
12.0
290
     0
  0
ACDBSECTIONVIEWSTYLE
  5
69
102
{ACAD_XDICTIONARY
360
8C
102
}
102
{ACAD_REACTORS
330
68
102
}
330
68
100
AcDbModelDocViewStyle
 70
     0
  3
Imperial24
290
     0
100
AcDbSectionViewStyle
 70
     0
 71
     0
 90
       78
 71
     1
340
55
 62
   256
 40
0.24
340
0
340
0
 62
   256
 40
0.24
300
I, O, Q, S, X, Z
 40
0.48
 90
        3
 40
0.18
 90
        1
 71
     2
340
5D
 90
       25
 62
   256
340
5D
 90
       50
 62
   256
 40
0.24
 40
0.0
 40
0.24
 71
     3
340
55
 62
   256
 40
0.24
 90
        1
 40
0.75
 90
        1
300
%<\AcVar ViewType \f "%tc1">% %<\AcVar ViewSectionStartId>%-%<\AcVar ViewSectionEndId>%\PSCALE %<\AcVar ViewScale \f "%sn">%
 71
     4
 62
   256
 62
   257
300
ANSI31
 40
1.0
 90
        0
290
     0
290
     0
 90
        6
 40
0.0
 40
1.570796326794896
 40
0.2617993877991494
 40
1.308996938995747
 40
-0.2617993877991494
 40
1.832595714594046
  0
TABLESTYLE
  5
65
102
{ACAD_XDICTIONARY
360
89
102
}
102
{ACAD_REACTORS
330
64
102
}
330
64
100
AcDbTableStyle
280
     0
  3
Standard
 70
     0
 71
     0
 40
0.06
 41
0.06
280
     0
281
     0
  7
Standard
140
0.18
170
     2
 62
     0
 63
     7
283
     0
 90
      512
 91
        0
  1

274
    -2
284
     1
 64
     0
275
    -2
285
     1
 65
     0
276
    -2
286
     1
 66
     0
277
    -2
287
     1
 67
     0
278
    -2
288
     1
 68
     0
279
    -2
289
     1
 69
     0
  7
Standard
140
0.25
170
     5
 62
     0
 63
     7
283
     0
 90
      512
 91
        0
  1

274
    -2
284
     1
 64
     0
275
    -2
285
     1
 65
     0
276
    -2
286
     1
 66
     0
277
    -2
287
     1
 67
     0
278
    -2
288
     1
 68
     0
279
    -2
289
     1
 69
     0
  7
Standard
140
0.18
170
     5
 62
     0
 63
     7
283
     0
 90
      512
 91
        0
  1

274
    -2
284
     1
 64
     0
275
    -2
285
     1
 65
     0
276
    -2
286
     1
 66
     0
277
    -2
287
     1
 67
     0
278
    -2
288
     1
 68
     0
279
    -2
289
     1
 69
     0
  0
VISUALSTYLE
  5
2F
102
{ACAD_REACTORS
330
29
102
}
330
29
100
AcDbVisualStyle
  2
2dWireframe
 70
     4
177
     3
291
     0
 70
    58
 90
        0
176
     1
 90
        2
176
     1
 90
        0
176
     1
 90
        0
176
     1
 40
0.6
176
     1
 40
30.0
176
     1
 62
     7
420
 16777215
176
     1
 90
        1
176
     1
 90
        4
176
     1
 62
     7
176
     1
 62
   257
176
     1
 90
        1
176
     1
 90
        1
176
     1
 40
1.0
176
     1
 90
        0
176
     1
 62
   257
176
     1
 40
1.0
176
     1
 90
        1
176
     1
 90
        6
176
     1
 90
        2
176
     1
 62
     7
176
     1
 90
        5
176
     1
 90
        0
176
     1
 90
        0
176
     1
290
     0
176
     1
 90
        1
176
     1
 40
0.0
176
     1
 90
        0
176
     1
290
     1
176
     1
290
     1
176
     1
290
     0
176
     1
290
     0
176
     1
290
     0
176
     1
290
     0
176
     1
290
     0
176
     1
290
     0
176
     1
290
     0
176
     1
 90
       50
176
     1
 40
0.0
176
     1
 40
1.0
176
     1
 90
        0
176
     1
 62
    18
420
        0
176
     1
 90
       50
176
     1
 90
        3
176
     1
 62
     5
420
      255
176
     1
290
     0
176
     1
 90
       50
176
     1
 90
       50
176
     1
 90
       50
176
     1
290
     0
176
     1
 90
       50
176
     1
 62
   256
176
     0
 40
1.0
176
     0
 90
        2
176
     1
  1
strokes_ogs.tif
176
     1
290
     0
176
     1
 40
1.0
176
     1
 40
1.0
176
     1
1001
ACAD
1000
AcDbSavedByObjectVersion
1070
     0
  0
VISUALSTYLE
  5
2E
102
{ACAD_REACTORS
330
29
102
}
330
29
100
AcDbVisualStyle
  2
Basic
 70
     7
177
     3
291
     1
 70
    58
 90
        1
176
     1
 90
        0
176
     1
 90
        1
176
     1
 90
        0
176
     1
 40
0.6
176
     1
 40
30.0
176
     1
 62
     7
420
 16777215
176
     1
 90
        0
176
     1
 90
        4
176
     1
 62
     7
176
     1
 62
   257
176
     1
 90
        1
176
     1
 90
        1
176
     1
 40
1.0
176
     1
 90
        8
176
     1
 62
     7
176
     1
 40
1.0
176
     1
 90
        1
176
     1
 90
        6
176
     1
 90
        2
176
     1
 62
     7
176
     1
 90
        5
176
     1
 90
        0
176
     1
 90
        0
176
     1
290
     0
176
     1
 90
        1
176
     1
 40
0.0
176
     1
 90
        0
176
     1
290
     0
176
     1
290
     1
176
     1
290
     1
176
     1
290
     0
176
     1
290
     0
176
     1
290
     0
176
     1
290
     0
176
     1
290
     0
176
     1
290
     0
176
     1
 90
       50
176
     1
 40
0.0
176
     1
 40
1.0
176
     1
 90
        0
176
     1
 62
    18
420
        0
176
     1
 90
       50
176
     1
 90
        3
176
     1
 62
     5
420
      255
176
     1
290
     0
176
     1
 90
       50
176
     1
 90
       50
176
     1
 90
       50
176
     1
290
     0
176
     1
 90
       50
176
     1
 62
   256
176
     0
 40
1.0
176
     0
 90
        2
176
     1
  1
strokes_ogs.tif
176
     1
290
     0
176
     1
 40
1.0
176
     1
 40
1.0
176
     1
1001
ACAD
1000
AcDbSavedByObjectVersion
1070
     0
  0
VISUALSTYLE
  5
35
102
{ACAD_REACTORS
330
29
102
}
330
29
100
AcDbVisualStyle
  2
Brighten
 70
    12
177
     3
291
     1
 70
    58
 90
        2
176
     1
 90
        2
176
     1
 90
        0
176
     1
 90
        0
176
     1
 40
0.6
176
     1
 40
30.0
176
     1
 62
     7
420
 16777215
176
     1
 90
        1
176
     1
 90
        4
176
     1
 62
     7
176
     1
 62
   257
176
     1
 90
        1
176
     1
 90
        1
176
     1
 40
1.0
176
     1
 90
        8
176
     1
 62
     7
176
     1
 40
1.0
176
     1
 90
        1
176
     1
 90
        6
176
     1
 90
        2
176
     1
 62
     7
176
     1
 90
        5
176
     1
 90
        0
176
     1
 90
        0
176
     1
290
     0
176
     1
 90
        1
176
     1
 40
50.0
176
     1
 90
        0
176
     1
290
     0
176
     1
290
     1
176
     1
290
     1
176
     1
290
     0
176
     1
290
     0
176
     1
290
     0
176
     1
290
     0
176
     1
290
     0
176
     1
290
     0
176
     1
 90
       50
176
     1
 40
0.0
176
     1
 40
1.0
176
     1
 90
        0
176
     1
 62
    18
420
        0
176
     1
 90
       50
176
     1
 90
        3
176
     1
 62
     5
420
      255
176
     1
290
     0
176
     1
 90
       50
176
     1
 90
       50
176
     1
 90
       50
176
     1
290
     0
176
     1
 90
       50
176
     1
 62
   256
176
     0
 40
1.0
176
     0
 90
        2
176
     1
  1
strokes_ogs.tif
176
     1
290
     0
176
     1
 40
1.0
176
     1
 40
1.0
176
     1
1001
ACAD
1000
AcDbSavedByObjectVersion
1070
     0
  0
VISUALSTYLE
  5
39
102
{ACAD_REACTORS
330
29
102
}
330
29
100
AcDbVisualStyle
  2
ColorChange
 70
    16
177
     3
291
     1
 70
    58
 90
        2
176
     1
 90
        2
176
     1
 90
        3
176
     1
 90
        0
176
     1
 40
0.6
176
     1
 40
30.0
176
     1
 62
     8
420
  8421504
176
     1
 90
        1
176
     1
 90
        4
176
     1
 62
     7
176
     1
 62
   257
176
     1
 90
        1
176
     1
 90
        1
176
     1
 40
1.0
176
     1
 90
        8
176
     1
 62
     8
420
  8421504
176
     1
 40
1.0
176
     1
 90
        1
176
     1
 90
        6
176
     1
 90
        2
176
     1
 62
     7
176
     1
 90
        5
176
     1
 90
        0
176
     1
 90
        0
176
     1
290
     0
176
     1
 90
        1
176
     1
 40
0.0
176
     1
 90
        0
176
     1
290
     0
176
     1
290
     1
176
     1
290
     1
176
     1
290
     0
176
     1
290
     0
176
     1
290
     0
176
     1
290
     0
176
     1
290
     0
176
     1
290
     0
176
     1
 90
       50
176
     1
 40
0.0
176
     1
 40
1.0
176
     1
 90
        0
176
     1
 62
    18
420
        0
176
     1
 90
       50
176
     1
 90
        3
176
     1
 62
     5
420
      255
176
     1
290
     0
176
     1
 90
       50
176
     1
 90
       50
176
     1
 90
       50
176
     1
290
     0
176
     1
 90
       50
176
     1
 62
   256
176
     0
 40
1.0
176
     0
 90
        2
176
     1
  1
strokes_ogs.tif
176
     1
290
     0
176
     1
 40
1.0
176
     1
 40
1.0
176
     1
1001
ACAD
1000
AcDbSavedByObjectVersion
1070
     0
  0
VISUALSTYLE
  5
32
102
{ACAD_REACTORS
330
29
102
}
330
29
100
AcDbVisualStyle
  2
Conceptual
 70
     9
177
     3
291
     0
 70
    58
 90
        3
176
     1
 90
        2
176
     1
 90
        0
176
     1
 90
        0
176
     1
 40
0.6
176
     1
 40
30.0
176
     1
 62
     7
420
 16777215
176
     1
 90
        2
176
     1
 90
        2
176
     1
 62
     7
176
     1
 62
   257
176
     1
 90
        1
176
     1
 90
        1
176
     1
 40
179.0
176
     1
 90
        8
176
     1
 62
     7
176
     1
 40
1.0
176
     1
 90
        1
176
     1
 90
        6
176
     1
 90
        2
176
     1
 62
     7
176
     1
 90
        3
176
     1
 90
        0
176
     1
 90
        0
176
     1
290
     0
176
     1
 90
        1
176
     1
 40
0.0
176
     1
 90
        0
176
     1
290
     0
176
     1
290
     1
176
     1
290
     1
176
     1
290
     0
176
     1
290
     0
176
     1
290
     0
176
     1
290
     0
176
     1
290
     0
176
     1
290
     0
176
     1
 90
       50
176
     1
 40
0.0
176
     1
 40
1.0
176
     1
 90
        0
176
     1
 62
    18
420
        0
176
     1
 90
       50
176
     1
 90
        3
176
     1
 62
     5
420
      255
176
     1
290
     0
176
     1
 90
       50
176
     1
 90
       50
176
     1
 90
       50
176
     1
290
     0
176
     1
 90
       50
176
     1
 62
   256
176
     0
 40
1.0
176
     0
 90
        2
176
     1
  1
strokes_ogs.tif
176
     1
290
     0
176
     1
 40
1.0
176
     1
 40
1.0
176
     1
1001
ACAD
1000
AcDbSavedByObjectVersion
1070
     0
  0
VISUALSTYLE
  5
34
102
{ACAD_REACTORS
330
29
102
}
330
29
100
AcDbVisualStyle
  2
Dim
 70
    11
177
     3
291
     1
 70
    58
 90
        2
176
     1
 90
        2
176
     1
 90
        0
176
     1
 90
        0
176
     1
 40
0.6
176
     1
 40
30.0
176
     1
 62
     7
420
 16777215
176
     1
 90
        1
176
     1
 90
        4
176
     1
 62
     7
176
     1
 62
   257
176
     1
 90
        1
176
     1
 90
        1
176
     1
 40
1.0
176
     1
 90
        8
176
     1
 62
     7
176
     1
 40
1.0
176
     1
 90
        1
176
     1
 90
        6
176
     1
 90
        2
176
     1
 62
     7
176
     1
 90
        5
176
     1
 90
        0
176
     1
 90
        0
176
     1
290
     0
176
     1
 90
        1
176
     1
 40
-50.0
176
     1
 90
        0
176
     1
290
     0
176
     1
290
     1
176
     1
290
     1
176
     1
290
     0
176
     1
290
     0
176
     1
290
     0
176
     1
290
     0
176
     1
290
     0
176
     1
290
     0
176
     1
 90
       50
176
     1
 40
0.0
176
     1
 40
1.0
176
     1
 90
        0
176
     1
 62
    18
420
        0
176
     1
 90
       50
176
     1
 90
        3
176
     1
 62
     5
420
      255
176
     1
290
     0
176
     1
 90
       50
176
     1
 90
       50
176
     1
 90
       50
176
     1
290
     0
176
     1
 90
       50
176
     1
 62
   256
176
     0
 40
1.0
176
     0
 90
        2
176
     1
  1
strokes_ogs.tif
176
     1
290
     0
176
     1
 40
1.0
176
     1
 40
1.0
176
     1
1001
ACAD
1000
AcDbSavedByObjectVersion
1070
     0
  0
VISUALSTYLE
  5
41
102
{ACAD_REACTORS
330
29
102
}
330
29
100
AcDbVisualStyle
  2
EdgeColorOff
 70
    22
177
     3
291
     1
 70
    58
 90
        2
176
     0
 90
        2
176
     0
 90
        0
176
     0
 90
        0
176
     0
 40
0.6
176
     0
 40
30.0
176
     0
 62
     7
420
 16777215
176
     0
 90
        1
176
     0
 90
        4
176
     0
 62
     7
176
     0
 62
   257
176
     0
 90
        1
176
     0
 90
        1
176
     0
 40
1.0
176
     0
 90
        8
176
     2
 62
     7
176
     0
 40
1.0
176
     0
 90
        1
176
     0
 90
        6
176
     0
 90
        2
176
     0
 62
     7
176
     0
 90
        5
176
     0
 90
        0
176
     0
 90
        0
176
     0
290
     0
176
     0
 90
        1
176
     0
 40
0.0
176
     0
 90
        0
176
     0
290
     0
176
     0
290
     1
176
     0
290
     1
176
     0
290
     0
176
     0
290
     0
176
     0
290
     0
176
     0
290
     0
176
     0
290
     0
176
     0
290
     0
176
     0
 90
       50
176
     0
 40
0.0
176
     0
 40
1.0
176
     0
 90
        0
176
     0
 62
    18
420
        0
176
     0
 90
       50
176
     0
 90
        3
176
     0
 62
     5
420
      255
176
     0
290
     0
176
     0
 90
       50
176
     0
 90
       50
176
     0
 90
       50
176
     0
290
     0
176
     0
 90
       50
176
     0
 62
   256
176
     0
 40
1.0
176
     0
 90
        2
176
     0
  1
strokes_ogs.tif
176
     0
290
     0
176
     0
 40
1.0
176
     0
 40
1.0
176
     0
1001
ACAD
1000
AcDbSavedByObjectVersion
1070
     0
  0
VISUALSTYLE
  5
38
102
{ACAD_REACTORS
330
29
102
}
330
29
100
AcDbVisualStyle
  2
Facepattern
 70
    15
177
     3
291
     1
 70
    58
 90
        2
176
     1
 90
        2
176
     1
 90
        0
176
     1
 90
        0
176
     1
 40
0.6
176
     1
 40
30.0
176
     1
 62
     7
420
 16777215
176
     1
 90
        1
176
     1
 90
        4
176
     1
 62
     7
176
     1
 62
   257
176
     1
 90
        1
176
     1
 90
        1
176
     1
 40
1.0
176
     1
 90
        8
176
     1
 62
     7
176
     1
 40
1.0
176
     1
 90
        1
176
     1
 90
        6
176
     1
 90
        2
176
     1
 62
     7
176
     1
 90
        5
176
     1
 90
        0
176
     1
 90
        0
176
     1
290
     0
176
     1
 90
        1
176
     1
 40
0.0
176
     1
 90
        0
176
     1
290
     0
176
     1
290
     1
176
     1
290
     1
176
     1
290
     0
176
     1
290
     0
176
     1
290
     0
176
     1
290
     0
176
     1
290
     0
176
     1
290
     0
176
     1
 90
       50
176
     1
 40
0.0
176
     1
 40
1.0
176
     1
 90
        0
176
     1
 62
    18
420
        0
176
     1
 90
       50
176
     1
 90
        3
176
     1
 62
     5
420
      255
176
     1
290
     0
176
     1
 90
       50
176
     1
 90
       50
176
     1
 90
       50
176
     1
290
     0
176
     1
 90
       50
176
     1
 62
   256
176
     0
 40
1.0
176
     0
 90
        2
176
     1
  1
strokes_ogs.tif
176
     1
290
     0
176
     1
 40
1.0
176
     1
 40
1.0
176
     1
1001
ACAD
1000
AcDbSavedByObjectVersion
1070
     0
  0
VISUALSTYLE
  5
2A
102
{ACAD_REACTORS
330
29
102
}
330
29
100
AcDbVisualStyle
  2
Flat
 70
     0
177
     3
291
     1
 70
    58
 90
        2
176
     1
 90
        1
176
     1
 90
        1
176
     1
 90
        2
176
     1
 40
0.6
176
     1
 40
30.0
176
     1
 62
     7
420
 16777215
176
     1
 90
        0
176
     1
 90
        0
176
     1
 62
     7
176
     1
 62
   257
176
     1
 90
        1
176
     1
 90
        1
176
     1
 40
1.0
176
     1
 90
        8
176
     1
 62
     7
176
     1
 40
1.0
176
     1
 90
        1
176
     1
 90
        6
176
     1
 90
        2
176
     1
 62
     7
176
     1
 90
        5
176
     1
 90
        0
176
     1
 90
        0
176
     1
290
     0
176
     1
 90
       13
176
     1
 40
0.0
176
     1
 90
        0
176
     1
290
     0
176
     1
290
     1
176
     1
290
     1
176
     1
290
     0
176
     1
290
     0
176
     1
290
     0
176
     1
290
     0
176
     1
290
     0
176
     1
290
     0
176
     1
 90
       50
176
     1
 40
0.0
176
     1
 40
1.0
176
     1
 90
        0
176
     1
 62
    18
420
        0
176
     1
 90
       50
176
     1
 90
        3
176
     1
 62
     5
420
      255
176
     1
290
     0
176
     1
 90
       50
176
     1
 90
       50
176
     1
 90
       50
176
     1
290
     0
176
     1
 90
       50
176
     1
 62
   256
176
     0
 40
1.0
176
     0
 90
        2
176
     1
  1
strokes_ogs.tif
176
     1
290
     0
176
     1
 40
1.0
176
     1
 40
1.0
176
     1
1001
ACAD
1000
AcDbSavedByObjectVersion
1070
     0
  0
VISUALSTYLE
  5
2B
102
{ACAD_REACTORS
330
29
102
}
330
29
100
AcDbVisualStyle
  2
FlatWithEdges
 70
     1
177
     3
291
     1
 70
    58
 90
        2
176
     1
 90
        1
176
     1
 90
        1
176
     1
 90
        2
176
     1
 40
0.6
176
     1
 40
30.0
176
     1
 62
     7
420
 16777215
176
     1
 90
        1
176
     1
 90
        0
176
     1
 62
     7
176
     1
 62
   257
176
     1
 90
        1
176
     1
 90
        1
176
     1
 40
1.0
176
     1
 90
        0
176
     1
 62
   257
176
     1
 40
1.0
176
     1
 90
        1
176
     1
 90
        6
176
     1
 90
        2
176
     1
 62
     7
176
     1
 90
        5
176
     1
 90
        0
176
     1
 90
        0
176
     1
290
     0
176
     1
 90
       13
176
     1
 40
0.0
176
     1
 90
        0
176
     1
290
     0
176
     1
290
     1
176
     1
290
     1
176
     1
290
     0
176
     1
290
     0
176
     1
290
     0
176
     1
290
     0
176
     1
290
     0
176
     1
290
     0
176
     1
 90
       50
176
     1
 40
0.0
176
     1
 40
1.0
176
     1
 90
        0
176
     1
 62
    18
420
        0
176
     1
 90
       50
176
     1
 90
        3
176
     1
 62
     5
420
      255
176
     1
290
     0
176
     1
 90
       50
176
     1
 90
       50
176
     1
 90
       50
176
     1
290
     0
176
     1
 90
       50
176
     1
 62
   256
176
     0
 40
1.0
176
     0
 90
        2
176
     1
  1
strokes_ogs.tif
176
     1
290
     0
176
     1
 40
1.0
176
     1
 40
1.0
176
     1
1001
ACAD
1000
AcDbSavedByObjectVersion
1070
     0
  0
VISUALSTYLE
  5
2C
102
{ACAD_REACTORS
330
29
102
}
330
29
100
AcDbVisualStyle
  2
Gouraud
 70
     2
177
     3
291
     1
 70
    58
 90
        2
176
     1
 90
        2
176
     1
 90
        1
176
     1
 90
        2
176
     1
 40
0.6
176
     1
 40
30.0
176
     1
 62
     7
420
 16777215
176
     1
 90
        0
176
     1
 90
        0
176
     1
 62
     7
176
     1
 62
   257
176
     1
 90
        1
176
     1
 90
        1
176
     1
 40
1.0
176
     1
 90
        0
176
     1
 62
     7
176
     1
 40
1.0
176
     1
 90
        1
176
     1
 90
        6
176
     1
 90
        2
176
     1
 62
     7
176
     1
 90
        5
176
     1
 90
        0
176
     1
 90
        0
176
     1
290
     0
176
     1
 90
       13
176
     1
 40
0.0
176
     1
 90
        0
176
     1
290
     0
176
     1
290
     1
176
     1
290
     1
176
     1
290
     0
176
     1
290
     0
176
     1
290
     0
176
     1
290
     0
176
     1
290
     0
176
     1
290
     0
176
     1
 90
       50
176
     1
 40
0.0
176
     1
 40
1.0
176
     1
 90
        0
176
     1
 62
    18
420
        0
176
     1
 90
       50
176
     1
 90
        3
176
     1
 62
     5
420
      255
176
     1
290
     0
176
     1
 90
       50
176
     1
 90
       50
176
     1
 90
       50
176
     1
290
     0
176
     1
 90
       50
176
     1
 62
   256
176
     0
 40
1.0
176
     0
 90
        2
176
     1
  1
strokes_ogs.tif
176
     1
290
     0
176
     1
 40
1.0
176
     1
 40
1.0
176
     1
1001
ACAD
1000
AcDbSavedByObjectVersion
1070
     0
  0
VISUALSTYLE
  5
2D
102
{ACAD_REACTORS
330
29
102
}
330
29
100
AcDbVisualStyle
  2
GouraudWithEdges
 70
     3
177
     3
291
     1
 70
    58
 90
        2
176
     1
 90
        2
176
     1
 90
        1
176
     1
 90
        2
176
     1
 40
0.6
176
     1
 40
30.0
176
     1
 62
     7
420
 16777215
176
     1
 90
        1
176
     1
 90
        0
176
     1
 62
     7
176
     1
 62
   257
176
     1
 90
        1
176
     1
 90
        1
176
     1
 40
1.0
176
     1
 90
        0
176
     1
 62
   257
176
     1
 40
1.0
176
     1
 90
        1
176
     1
 90
        6
176
     1
 90
        2
176
     1
 62
     7
176
     1
 90
        5
176
     1
 90
        0
176
     1
 90
        0
176
     1
290
     0
176
     1
 90
       13
176
     1
 40
0.0
176
     1
 90
        0
176
     1
290
     0
176
     1
290
     1
176
     1
290
     1
176
     1
290
     0
176
     1
290
     0
176
     1
290
     0
176
     1
290
     0
176
     1
290
     0
176
     1
290
     0
176
     1
 90
       50
176
     1
 40
0.0
176
     1
 40
1.0
176
     1
 90
        0
176
     1
 62
    18
420
        0
176
     1
 90
       50
176
     1
 90
        3
176
     1
 62
     5
420
      255
176
     1
290
     0
176
     1
 90
       50
176
     1
 90
       50
176
     1
 90
       50
176
     1
290
     0
176
     1
 90
       50
176
     1
 62
   256
176
     0
 40
1.0
176
     0
 90
        2
176
     1
  1
strokes_ogs.tif
176
     1
290
     0
176
     1
 40
1.0
176
     1
 40
1.0
176
     1
1001
ACAD
1000
AcDbSavedByObjectVersion
1070
     0
  0
VISUALSTYLE
  5
31
102
{ACAD_REACTORS
330
29
102
}
330
29
100
AcDbVisualStyle
  2
Hidden
 70
     6
177
     3
291
     0
 70
    58
 90
        1
176
     1
 90
        2
176
     1
 90
        2
176
     1
 90
        0
176
     1
 40
0.6
176
     1
 40
30.0
176
     1
 62
     7
420
 16777215
176
     1
 90
        2
176
     1
 90
        2
176
     1
 62
     7
176
     1
 62
   257
176
     1
 90
        2
176
     1
 90
        1
176
     1
 40
40.0
176
     1
 90
        0
176
     1
 62
   257
176
     1
 40
1.0
176
     1
 90
        1
176
     1
 90
        6
176
     1
 90
        2
176
     1
 62
     7
176
     1
 90
        3
176
     1
 90
        0
176
     1
 90
        0
176
     1
290
     0
176
     1
 90
        1
176
     1
 40
0.0
176
     1
 90
        0
176
     1
290
     0
176
     1
290
     1
176
     1
290
     1
176
     1
290
     0
176
     1
290
     0
176
     1
290
     0
176
     1
290
     0
176
     1
290
     0
176
     1
290
     0
176
     1
 90
       50
176
     1
 40
0.0
176
     1
 40
1.0
176
     1
 90
        0
176
     1
 62
    18
420
        0
176
     1
 90
       50
176
     1
 90
        3
176
     1
 62
     5
420
      255
176
     1
290
     0
176
     1
 90
       50
176
     1
 90
       50
176
     1
 90
       50
176
     1
290
     0
176
     1
 90
       50
176
     1
 62
   256
176
     0
 40
1.0
176
     0
 90
        2
176
     1
  1
strokes_ogs.tif
176
     1
290
     0
176
     1
 40
1.0
176
     1
 40
1.0
176
     1
1001
ACAD
1000
AcDbSavedByObjectVersion
1070
     0
  0
VISUALSTYLE
  5
3F
102
{ACAD_REACTORS
330
29
102
}
330
29
100
AcDbVisualStyle
  2
JitterOff
 70
    20
177
     3
291
     1
 70
    58
 90
        2
176
     0
 90
        2
176
     0
 90
        0
176
     0
 90
        0
176
     0
 40
0.6
176
     0
 40
30.0
176
     0
 62
     7
420
 16777215
176
     0
 90
        1
176
     0
 90
        4
176
     0
 62
     7
176
     0
 62
   257
176
     0
 90
        1
176
     0
 90
        1
176
     0
 40
1.0
176
     0
 90
       10
176
     2
 62
     7
176
     0
 40
1.0
176
     0
 90
        1
176
     0
 90
        6
176
     0
 90
        2
176
     0
 62
     7
176
     0
 90
        5
176
     0
 90
        0
176
     0
 90
        0
176
     0
290
     0
176
     0
 90
        1
176
     0
 40
0.0
176
     0
 90
        0
176
     0
290
     0
176
     0
290
     1
176
     0
290
     1
176
     0
290
     0
176
     0
290
     0
176
     0
290
     0
176
     0
290
     0
176
     0
290
     0
176
     0
290
     0
176
     0
 90
       50
176
     0
 40
0.0
176
     0
 40
1.0
176
     0
 90
        0
176
     0
 62
    18
420
        0
176
     0
 90
       50
176
     0
 90
        3
176
     0
 62
     5
420
      255
176
     0
290
     0
176
     0
 90
       50
176
     0
 90
       50
176
     0
 90
       50
176
     0
290
     0
176
     0
 90
       50
176
     0
 62
   256
176
     0
 40
1.0
176
     0
 90
        2
176
     0
  1
strokes_ogs.tif
176
     0
290
     0
176
     0
 40
1.0
176
     0
 40
1.0
176
     0
1001
ACAD
1000
AcDbSavedByObjectVersion
1070
     0
  0
VISUALSTYLE
  5
37
102
{ACAD_REACTORS
330
29
102
}
330
29
100
AcDbVisualStyle
  2
Linepattern
 70
    14
177
     3
291
     1
 70
    58
 90
        2
176
     1
 90
        2
176
     1
 90
        0
176
     1
 90
        0
176
     1
 40
0.6
176
     1
 40
30.0
176
     1
 62
     7
420
 16777215
176
     1
 90
        1
176
     1
 90
        4
176
     1
 62
     7
176
     1
 62
   257
176
     1
 90
        7
176
     1
 90
        7
176
     1
 40
1.0
176
     1
 90
        8
176
     1
 62
     7
176
     1
 40
1.0
176
     1
 90
        1
176
     1
 90
        6
176
     1
 90
        2
176
     1
 62
     7
176
     1
 90
        5
176
     1
 90
        0
176
     1
 90
        0
176
     1
290
     0
176
     1
 90
        1
176
     1
 40
0.0
176
     1
 90
        0
176
     1
290
     0
176
     1
290
     1
176
     1
290
     1
176
     1
290
     0
176
     1
290
     0
176
     1
290
     0
176
     1
290
     0
176
     1
290
     0
176
     1
290
     0
176
     1
 90
       50
176
     1
 40
0.0
176
     1
 40
1.0
176
     1
 90
        0
176
     1
 62
    18
420
        0
176
     1
 90
       50
176
     1
 90
        3
176
     1
 62
     5
420
      255
176
     1
290
     0
176
     1
 90
       50
176
     1
 90
       50
176
     1
 90
       50
176
     1
290
     0
176
     1
 90
       50
176
     1
 62
   256
176
     0
 40
1.0
176
     0
 90
        2
176
     1
  1
strokes_ogs.tif
176
     1
290
     0
176
     1
 40
1.0
176
     1
 40
1.0
176
     1
1001
ACAD
1000
AcDbSavedByObjectVersion
1070
     0
  0
VISUALSTYLE
  5
40
102
{ACAD_REACTORS
330
29
102
}
330
29
100
AcDbVisualStyle
  2
OverhangOff
 70
    21
177
     3
291
     1
 70
    58
 90
        2
176
     0
 90
        2
176
     0
 90
        0
176
     0
 90
        0
176
     0
 40
0.6
176
     0
 40
30.0
176
     0
 62
     7
420
 16777215
176
     0
 90
        1
176
     0
 90
        4
176
     0
 62
     7
176
     0
 62
   257
176
     0
 90
        1
176
     0
 90
        1
176
     0
 40
1.0
176
     0
 90
        9
176
     2
 62
     7
176
     0
 40
1.0
176
     0
 90
        1
176
     0
 90
        6
176
     0
 90
        2
176
     0
 62
     7
176
     0
 90
        5
176
     0
 90
        0
176
     0
 90
        0
176
     0
290
     0
176
     0
 90
        1
176
     0
 40
0.0
176
     0
 90
        0
176
     0
290
     0
176
     0
290
     1
176
     0
290
     1
176
     0
290
     0
176
     0
290
     0
176
     0
290
     0
176
     0
290
     0
176
     0
290
     0
176
     0
290
     0
176
     0
 90
       50
176
     0
 40
0.0
176
     0
 40
1.0
176
     0
 90
        0
176
     0
 62
    18
420
        0
176
     0
 90
       50
176
     0
 90
        3
176
     0
 62
     5
420
      255
176
     0
290
     0
176
     0
 90
       50
176
     0
 90
       50
176
     0
 90
       50
176
     0
290
     0
176
     0
 90
       50
176
     0
 62
   256
176
     0
 40
1.0
176
     0
 90
        2
176
     0
  1
strokes_ogs.tif
176
     0
290
     0
176
     0
 40
1.0
176
     0
 40
1.0
176
     0
1001
ACAD
1000
AcDbSavedByObjectVersion
1070
     0
  0
VISUALSTYLE
  5
33
102
{ACAD_REACTORS
330
29
102
}
330
29
100
AcDbVisualStyle
  2
Realistic
 70
     8
177
     3
291
     0
 70
    58
 90
        2
176
     1
 90
        3
176
     1
 90
        0
176
     1
 90
        2
176
     1
 40
0.6
176
     1
 40
30.0
176
     1
 62
     7
420
 16777215
176
     1
 90
        0
176
     1
 90
        0
176
     1
 62
     7
176
     1
 62
   257
176
     1
 90
        1
176
     1
 90
        1
176
     1
 40
1.0
176
     1
 90
        8
176
     1
 62
   257
176
     1
 40
1.0
176
     1
 90
        1
176
     1
 90
        6
176
     1
 90
        2
176
     1
 62
     7
176
     1
 90
        3
176
     1
 90
        0
176
     1
 90
        0
176
     1
290
     0
176
     1
 90
       13
176
     1
 40
0.0
176
     1
 90
        0
176
     1
290
     0
176
     1
290
     1
176
     1
290
     1
176
     1
290
     0
176
     1
290
     0
176
     1
290
     0
176
     1
290
     0
176
     1
290
     0
176
     1
290
     0
176
     1
 90
       50
176
     1
 40
0.0
176
     1
 40
1.0
176
     1
 90
        0
176
     1
 62
    18
420
        0
176
     1
 90
       50
176
     1
 90
        3
176
     1
 62
     5
420
      255
176
     1
290
     0
176
     1
 90
       50
176
     1
 90
       50
176
     1
 90
       50
176
     1
290
     0
176
     1
 90
       50
176
     1
 62
   256
176
     0
 40
1.0
176
     0
 90
        2
176
     1
  1
strokes_ogs.tif
176
     1
290
     0
176
     1
 40
1.0
176
     1
 40
1.0
176
     1
1001
ACAD
1000
AcDbSavedByObjectVersion
1070
     0
  0
VISUALSTYLE
  5
3E
102
{ACAD_REACTORS
330
29
102
}
330
29
100
AcDbVisualStyle
  2
Shaded
 70
    27
177
     3
291
     0
 70
    58
 90
        2
176
     1
 90
        2
176
     1
 90
        1
176
     1
 90
        2
176
     1
 40
0.6
176
     1
 40
30.0
176
     1
 62
     7
420
 16777215
176
     1
 90
        0
176
     1
 90
        4
176
     1
 62
     7
176
     1
 62
   257
176
     1
 90
        1
176
     1
 90
        1
176
     1
 40
1.0
176
     1
 90
        8
176
     1
 62
   257
176
     1
 40
1.0
176
     1
 90
        1
176
     1
 90
        6
176
     1
 90
        2
176
     1
 62
     8
420
  7895160
176
     1
 90
        3
176
     1
 90
        0
176
     1
 90
        0
176
     1
290
     0
176
     1
 90
        5
176
     1
 40
0.0
176
     1
 90
        0
176
     1
290
     0
176
     1
290
     1
176
     1
290
     1
176
     1
290
     0
176
     1
290
     0
176
     1
290
     0
176
     1
290
     0
176
     1
290
     0
176
     1
290
     0
176
     1
 90
       50
176
     1
 40
0.0
176
     1
 40
1.0
176
     1
 90
        0
176
     1
 62
    18
420
        0
176
     1
 90
       50
176
     1
 90
        3
176
     1
 62
     5
420
      255
176
     1
290
     0
176
     1
 90
       50
176
     1
 90
       50
176
     1
 90
       50
176
     1
290
     0
176
     1
 90
       50
176
     1
 62
   256
176
     0
 40
1.0
176
     0
 90
        2
176
     1
  1
strokes_ogs.tif
176
     1
290
     0
176
     1
 40
1.0
176
     1
 40
1.0
176
     1
1001
ACAD
1000
AcDbSavedByObjectVersion
1070
     0
  0
VISUALSTYLE
  5
3D
102
{ACAD_REACTORS
330
29
102
}
330
29
100
AcDbVisualStyle
  2
Shaded with edges
 70
    26
177
     3
291
     0
 70
    58
 90
        2
176
     1
 90
        2
176
     1
 90
        1
176
     1
 90
        2
176
     1
 40
0.6
176
     1
 40
30.0
176
     1
 62
     7
420
 16777215
176
     1
 90
        1
176
     1
 90
        2
176
     1
 62
     7
176
     1
 62
   257
176
     1
 90
        2
176
     1
 90
        1
176
     1
 40
1.0
176
     1
 90
        8
176
     1
 62
   257
176
     1
 40
1.0
176
     1
 90
        1
176
     1
 90
        6
176
     1
 90
        2
176
     1
 62
     7
176
     1
 90
        3
176
     1
 90
        0
176
     1
 90
        0
176
     1
290
     0
176
     1
 90
        5
176
     1
 40
0.0
176
     1
 90
        0
176
     1
290
     0
176
     1
290
     1
176
     1
290
     1
176
     1
290
     0
176
     1
290
     0
176
     1
290
     0
176
     1
290
     0
176
     1
290
     0
176
     1
290
     0
176
     1
 90
       50
176
     1
 40
0.0
176
     1
 40
1.0
176
     1
 90
        0
176
     1
 62
    18
420
        0
176
     1
 90
       50
176
     1
 90
        3
176
     1
 62
     5
420
      255
176
     1
290
     0
176
     1
 90
       50
176
     1
 90
       50
176
     1
 90
       50
176
     1
290
     0
176
     1
 90
       50
176
     1
 62
   256
176
     0
 40
1.0
176
     0
 90
        2
176
     1
  1
strokes_ogs.tif
176
     1
290
     0
176
     1
 40
1.0
176
     1
 40
1.0
176
     1
1001
ACAD
1000
AcDbSavedByObjectVersion
1070
     0
  0
VISUALSTYLE
  5
3A
102
{ACAD_REACTORS
330
29
102
}
330
29
100
AcDbVisualStyle
  2
Shades of Gray
 70
    23
177
     3
291
     0
 70
    58
 90
        2
176
     1
 90
        2
176
     1
 90
        3
176
     1
 90
        0
176
     1
 40
0.6
176
     1
 40
30.0
176
     1
 62
     7
420
 16777215
176
     1
 90
        2
176
     1
 90
        2
176
     1
 62
     7
176
     1
 62
     7
176
     1
 90
        1
176
     1
 90
        1
176
     1
 40
40.0
176
     1
 90
        8
176
     1
 62
     7
176
     1
 40
1.0
176
     1
 90
        1
176
     1
 90
        6
176
     1
 90
        2
176
     1
 62
     7
176
     1
 90
        3
176
     1
 90
        0
176
     1
 90
        0
176
     1
290
     0
176
     1
 90
        1
176
     1
 40
0.0
176
     1
 90
        0
176
     1
290
     0
176
     1
290
     1
176
     1
290
     1
176
     1
290
     0
176
     1
290
     0
176
     1
290
     0
176
     1
290
     0
176
     1
290
     0
176
     1
290
     0
176
     1
 90
       50
176
     1
 40
0.0
176
     1
 40
1.0
176
     1
 90
        0
176
     1
 62
    18
420
        0
176
     1
 90
       50
176
     1
 90
        3
176
     1
 62
     5
420
      255
176
     1
290
     0
176
     1
 90
       50
176
     1
 90
       50
176
     1
 90
       50
176
     1
290
     0
176
     1
 90
       50
176
     1
 62
   256
176
     0
 40
1.0
176
     0
 90
        2
176
     1
  1
strokes_ogs.tif
176
     1
290
     0
176
     1
 40
1.0
176
     1
 40
1.0
176
     1
1001
ACAD
1000
AcDbSavedByObjectVersion
1070
     0
  0
VISUALSTYLE
  5
3B
102
{ACAD_REACTORS
330
29
102
}
330
29
100
AcDbVisualStyle
  2
Sketchy
 70
    24
177
     3
291
     0
 70
    58
 90
        1
176
     1
 90
        2
176
     1
 90
        2
176
     1
 90
        0
176
     1
 40
0.6
176
     1
 40
30.0
176
     1
 62
     7
420
 16777215
176
     1
 90
        2
176
     1
 90
        2
176
     1
 62
     7
176
     1
 62
     7
176
     1
 90
        1
176
     1
 90
        1
176
     1
 40
40.0
176
     1
 90
       11
176
     1
 62
     7
176
     1
 40
1.0
176
     1
 90
        1
176
     1
 90
        6
176
     1
 90
        2
176
     1
 62
     7
176
     1
 90
        6
176
     1
 90
        0
176
     1
 90
        0
176
     1
290
     0
176
     1
 90
        1
176
     1
 40
0.0
176
     1
 90
        0
176
     1
290
     0
176
     1
290
     1
176
     1
290
     1
176
     1
290
     0
176
     1
290
     0
176
     1
290
     0
176
     1
290
     0
176
     1
290
     0
176
     1
290
     0
176
     1
 90
       50
176
     1
 40
0.0
176
     1
 40
1.0
176
     1
 90
        0
176
     1
 62
    18
420
        0
176
     1
 90
       50
176
     1
 90
        3
176
     1
 62
     5
420
      255
176
     1
290
     0
176
     1
 90
       50
176
     1
 90
       50
176
     1
 90
       50
176
     1
290
     0
176
     1
 90
       50
176
     1
 62
   256
176
     0
 40
1.0
176
     0
 90
        2
176
     1
  1
strokes_ogs.tif
176
     1
290
     0
176
     1
 40
1.0
176
     1
 40
1.0
176
     1
1001
ACAD
1000
AcDbSavedByObjectVersion
1070
     0
  0
VISUALSTYLE
  5
36
102
{ACAD_REACTORS
330
29
102
}
330
29
100
AcDbVisualStyle
  2
Thicken
 70
    13
177
     3
291
     1
 70
    58
 90
        2
176
     1
 90
        2
176
     1
 90
        0
176
     1
 90
        0
176
     1
 40
0.6
176
     1
 40
30.0
176
     1
 62
     7
420
 16777215
176
     1
 90
        1
176
     1
 90
        4
176
     1
 62
     7
176
     1
 62
   257
176
     1
 90
        1
176
     1
 90
        1
176
     1
 40
1.0
176
     1
 90
       12
176
     1
 62
     7
176
     1
 40
1.0
176
     1
 90
        1
176
     1
 90
        6
176
     1
 90
        2
176
     1
 62
     7
176
     1
 90
        5
176
     1
 90
        0
176
     1
 90
        0
176
     1
290
     0
176
     1
 90
        1
176
     1
 40
0.0
176
     1
 90
        0
176
     1
290
     0
176
     1
290
     1
176
     1
290
     1
176
     1
290
     0
176
     1
290
     0
176
     1
290
     0
176
     1
290
     0
176
     1
290
     0
176
     1
290
     0
176
     1
 90
       50
176
     1
 40
0.0
176
     1
 40
1.0
176
     1
 90
        0
176
     1
 62
    18
420
        0
176
     1
 90
       50
176
     1
 90
        3
176
     1
 62
     5
420
      255
176
     1
290
     0
176
     1
 90
       50
176
     1
 90
       50
176
     1
 90
       50
176
     1
290
     0
176
     1
 90
       50
176
     1
 62
   256
176
     0
 40
1.0
176
     0
 90
        2
176
     1
  1
strokes_ogs.tif
176
     1
290
     0
176
     1
 40
1.0
176
     1
 40
1.0
176
     1
1001
ACAD
1000
AcDbSavedByObjectVersion
1070
     0
  0
VISUALSTYLE
  5
30
102
{ACAD_REACTORS
330
29
102
}
330
29
100
AcDbVisualStyle
  2
Wireframe
 70
     5
177
     3
291
     0
 70
    58
 90
        0
176
     1
 90
        2
176
     1
 90
        0
176
     1
 90
        0
176
     1
 40
0.6
176
     1
 40
30.0
176
     1
 62
     7
420
 16777215
176
     1
 90
        1
176
     1
 90
        4
176
     1
 62
     7
176
     1
 62
   257
176
     1
 90
        1
176
     1
 90
        1
176
     1
 40
1.0
176
     1
 90
        0
176
     1
 62
   257
176
     1
 40
1.0
176
     1
 90
        1
176
     1
 90
        6
176
     1
 90
        2
176
     1
 62
     7
176
     1
 90
        3
176
     1
 90
        0
176
     1
 90
        0
176
     1
290
     0
176
     1
 90
        1
176
     1
 40
0.0
176
     1
 90
        0
176
     1
290
     0
176
     1
290
     1
176
     1
290
     1
176
     1
290
     0
176
     1
290
     0
176
     1
290
     0
176
     1
290
     0
176
     1
290
     0
176
     1
290
     0
176
     1
 90
       50
176
     1
 40
0.0
176
     1
 40
1.0
176
     1
 90
        0
176
     1
 62
    18
420
        0
176
     1
 90
       50
176
     1
 90
        3
176
     1
 62
     5
420
      255
176
     1
290
     0
176
     1
 90
       50
176
     1
 90
       50
176
     1
 90
       50
176
     1
290
     0
176
     1
 90
       50
176
     1
 62
   256
176
     0
 40
1.0
176
     0
 90
        2
176
     1
  1
strokes_ogs.tif
176
     1
290
     0
176
     1
 40
1.0
176
     1
 40
1.0
176
     1
1001
ACAD
1000
AcDbSavedByObjectVersion
1070
     0
  0
VISUALSTYLE
  5
3C
102
{ACAD_REACTORS
330
29
102
}
330
29
100
AcDbVisualStyle
  2
X-Ray
 70
    25
177
     3
291
     0
 70
    58
 90
        2
176
     1
 90
        2
176
     1
 90
        1
176
     1
 90
        1
176
     1
 40
0.5
176
     1
 40
30.0
176
     1
 62
     7
420
 16777215
176
     1
 90
        1
176
     1
 90
        0
176
     1
 62
     7
176
     1
 62
   257
176
     1
 90
        1
176
     1
 90
        1
176
     1
 40
1.0
176
     1
 90
        8
176
     1
 62
     7
176
     1
 40
1.0
176
     1
 90
        1
176
     1
 90
        6
176
     1
 90
        2
176
     1
 62
     7
176
     1
 90
        3
176
     1
 90
        0
176
     1
 90
        0
176
     1
290
     0
176
     1
 90
       13
176
     1
 40
0.0
176
     1
 90
        0
176
     1
290
     0
176
     1
290
     1
176
     1
290
     1
176
     1
290
     0
176
     1
290
     0
176
     1
290
     0
176
     1
290
     0
176
     1
290
     0
176
     1
290
     0
176
     1
 90
       50
176
     1
 40
0.0
176
     1
 40
1.0
176
     1
 90
        0
176
     1
 62
    18
420
        0
176
     1
 90
       50
176
     1
 90
        3
176
     1
 62
     5
420
      255
176
     1
290
     0
176
     1
 90
       50
176
     1
 90
       50
176
     1
 90
       50
176
     1
290
     0
176
     1
 90
       50
176
     1
 62
   256
176
     0
 40
1.0
176
     0
 90
        2
176
     1
  1
strokes_ogs.tif
176
     1
290
     0
176
     1
 40
1.0
176
     1
 40
1.0
176
     1
1001
ACAD
1000
AcDbSavedByObjectVersion
1070
     0
  0
DICTIONARYVAR
  5
88
102
{ACAD_REACTORS
330
83
102
}
330
83
100
DictionaryVariables
280
     0
  1
1:1
  0
DICTIONARYVAR
  5
85
102
{ACAD_REACTORS
330
83
102
}
330
83
100
DictionaryVariables
280
     0
  1
STANDARD
  0
DICTIONARYVAR
  5
84
102
{ACAD_REACTORS
330
83
102
}
330
83
100
DictionaryVariables
280
     0
  1
STANDARD
  0
DICTIONARYVAR
  5
86
102
{ACAD_REACTORS
330
83
102
}
330
83
100
DictionaryVariables
280
     0
  1
Imperial24
  0
DICTIONARYVAR
  5
87
102
{ACAD_REACTORS
330
83
102
}
330
83
100
DictionaryVariables
280
     0
  1
Imperial24
  0
DICTIONARY
  5
8E
330
6B
100
AcDbDictionary
280
     1
281
     1
  3
ACAD_XREC_ROUNDTRIP
360
8F
  0
DICTIONARY
  5
1A
330
19
100
AcDbDictionary
280
     1
281
     1
  3
BUMPTILE
360
1C
  3
DIFFUSETILE
360
1B
  3
OPACITYTILE
360
1F
  3
REFLECTIONTILE
360
1E
  3
REFRACTIONTILE
360
20
  3
SPECULARTILE
360
1D
  0
DICTIONARY
  5
12
330
11
100
AcDbDictionary
280
     1
281
     1
  3
BUMPTILE
360
14
  3
DIFFUSETILE
360
13
  3
OPACITYTILE
360
17
  3
REFLECTIONTILE
360
16
  3
REFRACTIONTILE
360
18
  3
SPECULARTILE
360
15
  0
DICTIONARY
  5
22
330
21
100
AcDbDictionary
280
     1
281
     1
  3
BUMPTILE
360
24
  3
DIFFUSETILE
360
23
  3
OPACITYTILE
360
27
  3
REFLECTIONTILE
360
26
  3
REFRACTIONTILE
360
28
  3
SPECULARTILE
360
25
  0
DICTIONARY
  5
8C
330
69
100
AcDbDictionary
280
     1
281
     1
  3
ACAD_XREC_ROUNDTRIP
360
8D
  0
DICTIONARY
  5
89
330
65
100
AcDbDictionary
280
     1
281
     1
  3
ACAD_ROUNDTRIP_2008_TABLESTYLE_CELLSTYLEMAP
360
8A
  0
XRECORD
  5
8F
102
{ACAD_REACTORS
330
8E
102
}
330
8E
100
AcDbXrecord
280
     1
102
DISPLAYNAME
  1
Imperial24
102
FLAGS
 90
        0
  0
XRECORD
  5
1C
102
{ACAD_REACTORS
330
1A
102
}
330
1A
100
AcDbXrecord
280
     1
270
     1
271
     1
  0
XRECORD
  5
1B
102
{ACAD_REACTORS
330
1A
102
}
330
1A
100
AcDbXrecord
280
     1
270
     1
271
     1
  0
XRECORD
  5
1F
102
{ACAD_REACTORS
330
1A
102
}
330
1A
100
AcDbXrecord
280
     1
270
     1
271
     1
  0
XRECORD
  5
1E
102
{ACAD_REACTORS
330
1A
102
}
330
1A
100
AcDbXrecord
280
     1
270
     1
271
     1
  0
XRECORD
  5
20
102
{ACAD_REACTORS
330
1A
102
}
330
1A
100
AcDbXrecord
280
     1
270
     1
271
     1
  0
XRECORD
  5
1D
102
{ACAD_REACTORS
330
1A
102
}
330
1A
100
AcDbXrecord
280
     1
270
     1
271
     1
  0
XRECORD
  5
14
102
{ACAD_REACTORS
330
12
102
}
330
12
100
AcDbXrecord
280
     1
270
     1
271
     1
  0
XRECORD
  5
13
102
{ACAD_REACTORS
330
12
102
}
330
12
100
AcDbXrecord
280
     1
270
     1
271
     1
  0
XRECORD
  5
17
102
{ACAD_REACTORS
330
12
102
}
330
12
100
AcDbXrecord
280
     1
270
     1
271
     1
  0
XRECORD
  5
16
102
{ACAD_REACTORS
330
12
102
}
330
12
100
AcDbXrecord
280
     1
270
     1
271
     1
  0
XRECORD
  5
18
102
{ACAD_REACTORS
330
12
102
}
330
12
100
AcDbXrecord
280
     1
270
     1
271
     1
  0
XRECORD
  5
15
102
{ACAD_REACTORS
330
12
102
}
330
12
100
AcDbXrecord
280
     1
270
     1
271
     1
  0
XRECORD
  5
24
102
{ACAD_REACTORS
330
22
102
}
330
22
100
AcDbXrecord
280
     1
270
     1
271
     1
  0
XRECORD
  5
23
102
{ACAD_REACTORS
330
22
102
}
330
22
100
AcDbXrecord
280
     1
270
     1
271
     1
  0
XRECORD
  5
27
102
{ACAD_REACTORS
330
22
102
}
330
22
100
AcDbXrecord
280
     1
270
     1
271
     1
  0
XRECORD
  5
26
102
{ACAD_REACTORS
330
22
102
}
330
22
100
AcDbXrecord
280
     1
270
     1
271
     1
  0
XRECORD
  5
28
102
{ACAD_REACTORS
330
22
102
}
330
22
100
AcDbXrecord
280
     1
270
     1
271
     1
  0
XRECORD
  5
25
102
{ACAD_REACTORS
330
22
102
}
330
22
100
AcDbXrecord
280
     1
270
     1
271
     1
  0
XRECORD
  5
8D
102
{ACAD_REACTORS
330
8C
102
}
330
8C
100
AcDbXrecord
280
     1
102
DISPLAYNAME
  1
Imperial24
102
FLAGS
 90
        0
  0
CELLSTYLEMAP
  5
8A
102
{ACAD_REACTORS
330
89
102
}
330
89
100
AcDbCellStyleMap
 90
        3
300
CELLSTYLE
  1
TABLEFORMAT_BEGIN
 90
        5
170
     1
 91
        0
 92
    32768
 62
   257
 93
        1
300
CONTENTFORMAT
  1
CONTENTFORMAT_BEGIN
 90
        0
 91
        0
 92
      512
 93
        0
300

 40
0.0
140
1.0
 94
        5
 62
     0
340
55
144
0.25
309
CONTENTFORMAT_END
171
     0
 94
        0
309
TABLEFORMAT_END
  1
CELLSTYLE_BEGIN
 90
        1
 91
        1
300
_TITLE
309
CELLSTYLE_END
300
CELLSTYLE
  1
TABLEFORMAT_BEGIN
 90
        5
170
     1
 91
        0
 92
        0
 62
   257
 93
        1
300
CONTENTFORMAT
  1
CONTENTFORMAT_BEGIN
 90
        0
 91
        0
 92
      512
 93
        0
300

 40
0.0
140
1.0
 94
        5
 62
     0
340
55
144
0.18
309
CONTENTFORMAT_END
171
     0
 94
        0
309
TABLEFORMAT_END
  1
CELLSTYLE_BEGIN
 90
        2
 91
        1
300
_HEADER
309
CELLSTYLE_END
300
CELLSTYLE
  1
TABLEFORMAT_BEGIN
 90
        5
170
     1
 91
        0
 92
        0
 62
   257
 93
        1
300
CONTENTFORMAT
  1
CONTENTFORMAT_BEGIN
 90
        0
 91
        0
 92
      512
 93
        0
300

 40
0.0
140
1.0
 94
        2
 62
     0
340
55
144
0.18
309
CONTENTFORMAT_END
171
     0
 94
        0
309
TABLEFORMAT_END
  1
CELLSTYLE_BEGIN
 90
        3
 91
        2
300
_DATA
309
CELLSTYLE_END
  0
ENDSEC
  0
EOF
