  0
SECTION
  2
HEADER
  9
$ACADVER
  1
AC1027
  9
$ACADMAINTVER
 70
   125
  9
$DWGCODEPAGE
  3
ANSI_1252
  9
$REQUIREDVERSIONS
160
                 0
  9
$INSBASE
 10
0.0
 20
0.0
 30
0.0
  9
$EXTMIN
 10
1.000000000000000E+20
 20
1.000000000000000E+20
 30
1.000000000000000E+20
  9
$EXTMAX
 10
-1.000000000000000E+20
 20
-1.000000000000000E+20
 30
-1.000000000000000E+20
  9
$LIMMIN
 10
0.0
 20
0.0
  9
$LIMMAX
 10
12.0
 20
9.0
  9
$ORTHOMODE
 70
     0
  9
$REGENMODE
 70
     1
  9
$FILLMODE
 70
     1
  9
$QTEXTMODE
 70
     0
  9
$MIRRTEXT
 70
     0
  9
$LTSCALE
 40
1.0
  9
$ATTMODE
 70
     1
  9
$TEXTSIZE
 40
0.2
  9
$TRACEWID
 40
0.05
  9
$TEXTSTYLE
  7
Standard
  9
$CLAYER
  8
0
  9
$CELTYPE
  6
ByLayer
  9
$CECOLOR
 62
   256
  9
$CELTSCALE
 40
1.0
  9
$DISPSILH
 70
     0
  9
$DIMSCALE
 40
1.0
  9
$DIMASZ
 40
0.18
  9
$DIMEXO
 40
0.0625
  9
$DIMDLI
 40
0.38
  9
$DIMRND
 40
0.0
  9
$DIMDLE
 40
0.0
  9
$DIMEXE
 40
0.18
  9
$DIMTP
 40
0.0
  9
$DIMTM
 40
0.0
  9
$DIMTXT
 40
0.18
  9
$DIMCEN
 40
0.09
  9
$DIMTSZ
 40
0.0
  9
$DIMTOL
 70
     0
  9
$DIMLIM
 70
     0
  9
$DIMTIH
 70
     1
  9
$DIMTOH
 70
     1
  9
$DIMSE1
 70
     0
  9
$DIMSE2
 70
     0
  9
$DIMTAD
 70
     0
  9
$DIMZIN
 70
     0
  9
$DIMBLK
  1

  9
$DIMASO
 70
     1
  9
$DIMSHO
 70
     1
  9
$DIMPOST
  1

  9
$DIMAPOST
  1

  9
$DIMALT
 70
     0
  9
$DIMALTD
 70
     2
  9
$DIMALTF
 40
25.4
  9
$DIMLFAC
 40
1.0
  9
$DIMTOFL
 70
     0
  9
$DIMTVP
 40
0.0
  9
$DIMTIX
 70
     0
  9
$DIMSOXD
 70
     0
  9
$DIMSAH
 70
     0
  9
$DIMBLK1
  1

  9
$DIMBLK2
  1

  9
$DIMSTYLE
  2
Standard
  9
$DIMCLRD
 70
     0
  9
$DIMCLRE
 70
     0
  9
$DIMCLRT
 70
     0
  9
$DIMTFAC
 40
1.0
  9
$DIMGAP
 40
0.09
  9
$DIMJUST
 70
     0
  9
$DIMSD1
 70
     0
  9
$DIMSD2
 70
     0
  9
$DIMTOLJ
 70
     1
  9
$DIMTZIN
 70
     0
  9
$DIMALTZ
 70
     0
  9
$DIMALTTZ
 70
     0
  9
$DIMUPT
 70
     0
  9
$DIMDEC
 70
     4
  9
$DIMTDEC
 70
     4
  9
$DIMALTU
 70
     2
  9
$DIMALTTD
 70
     2
  9
$DIMTXSTY
  7
Standard
  9
$DIMAUNIT
 70
     0
  9
$DIMADEC
 70
     0
  9
$DIMALTRND
 40
0.0
  9
$DIMAZIN
 70
     0
  9
$DIMDSEP
 70
    46
  9
$DIMATFIT
 70
     3
  9
$DIMFRAC
 70
     0
  9
$DIMLDRBLK
  1

  9
$DIMLUNIT
 70
     2
  9
$DIMLWD
 70
    -2
  9
$DIMLWE
 70
    -2
  9
$DIMTMOVE
 70
     0
  9
$DIMFXL
 40
1.0
  9
$DIMFXLON
 70
     0
  9
$DIMJOGANG
 40
0.7853981633974483
  9
$DIMTFILL
 70
     0
  9
$DIMTFILLCLR
 70
     0
  9
$DIMARCSYM
 70
     0
  9
$DIMLTYPE
  6

  9
$DIMLTEX1
  6

  9
$DIMLTEX2
  6

  9
$DIMTXTDIRECTION
 70
     0
  9
$LUNITS
 70
     2
  9
$LUPREC
 70
     4
  9
$SKETCHINC
 40
0.1
  9
$FILLETRAD
 40
0.0
  9
$AUNITS
 70
     0
  9
$AUPREC
 70
     0
  9
$MENU
  1
.
  9
$ELEVATION
 40
0.0
  9
$PELEVATION
 40
0.0
  9
$THICKNESS
 40
0.0
  9
$LIMCHECK
 70
     0
  9
$CHAMFERA
 40
0.0
  9
$CHAMFERB
 40
0.0
  9
$CHAMFERC
 40
0.0
  9
$CHAMFERD
 40
0.0
  9
$SKPOLY
 70
     0
  9
$TDCREATE
 40
2459734.961655092
  9
$TDUCREATE
 40
2459734.544988426
  9
$TDUPDATE
 40
2459734.961655092
  9
$TDUUPDATE
 40
2459734.544988426
  9
$TDINDWG
 40
0.0000000000
  9
$TDUSRTIMER
 40
0.0000000000
  9
$USRTIMER
 70
     1
  9
$ANGBASE
 50
0.0
  9
$ANGDIR
 70
     0
  9
$PDMODE
 70
     0
  9
$PDSIZE
 40
0.0
  9
$PLINEWID
 40
0.0
  9
$SPLFRAME
 70
     0
  9
$SPLINETYPE
 70
     6
  9
$SPLINESEGS
 70
     8
  9
$HANDSEED
  5
91
  9
$SURFTAB1
 70
     6
  9
$SURFTAB2
 70
     6
  9
$SURFTYPE
 70
     6
  9
$SURFU
 70
     6
  9
$SURFV
 70
     6
  9
$UCSBASE
  2

  9
$UCSNAME
  2

  9
$UCSORG
 10
0.0
 20
0.0
 30
0.0
  9
$UCSXDIR
 10
1.0
 20
0.0
 30
0.0
  9
$UCSYDIR
 10
0.0
 20
1.0
 30
0.0
  9
$UCSORTHOREF
  2

  9
$UCSORTHOVIEW
 70
     0
  9
$UCSORGTOP
 10
0.0
 20
0.0
 30
0.0
  9
$UCSORGBOTTOM
 10
0.0
 20
0.0
 30
0.0
  9
$UCSORGLEFT
 10
0.0
 20
0.0
 30
0.0
  9
$UCSORGRIGHT
 10
0.0
 20
0.0
 30
0.0
  9
$UCSORGFRONT
 10
0.0
 20
0.0
 30
0.0
  9
$UCSORGBACK
 10
0.0
 20
0.0
 30
0.0
  9
$PUCSBASE
  2

  9
$PUCSNAME
  2

  9
$PUCSORG
 10
0.0
 20
0.0
 30
0.0
  9
$PUCSXDIR
 10
1.0
 20
0.0
 30
0.0
  9
$PUCSYDIR
 10
0.0
 20
1.0
 30
0.0
  9
$PUCSORTHOREF
  2

  9
$PUCSORTHOVIEW
 70
     0
  9
$PUCSORGTOP
 10
0.0
 20
0.0
 30
0.0
  9
$PUCSORGBOTTOM
 10
0.0
 20
0.0
 30
0.0
  9
$PUCSORGLEFT
 10
0.0
 20
0.0
 30
0.0
  9
$PUCSORGRIGHT
 10
0.0
 20
0.0
 30
0.0
  9
$PUCSORGFRONT
 10
0.0
 20
0.0
 30
0.0
  9
$PUCSORGBACK
 10
0.0
 20
0.0
 30
0.0
  9
$USERI1
 70
     0
  9
$USERI2
 70
     0
  9
$USERI3
 70
     0
  9
$USERI4
 70
     0
  9
$USERI5
 70
     0
  9
$USERR1
 40
0.0
  9
$USERR2
 40
0.0
  9
$USERR3
 40
0.0
  9
$USERR4
 40
0.0
  9
$USERR5
 40
0.0
  9
$WORLDVIEW
 70
     1
  9
$SHADEDGE
 70
     3
  9
$SHADEDIF
 70
    70
  9
$TILEMODE
 70
     1
  9
$MAXACTVP
 70
    64
  9
$PINSBASE
 10
0.0
 20
0.0
 30
0.0
  9
$PLIMCHECK
 70
     0
  9
$PEXTMIN
 10
1.000000000000000E+20
 20
1.000000000000000E+20
 30
1.000000000000000E+20
  9
$PEXTMAX
 10
-1.000000000000000E+20
 20
-1.000000000000000E+20
 30
-1.000000000000000E+20
  9
$PLIMMIN
 10
0.0
 20
0.0
  9
$PLIMMAX
 10
12.0
 20
9.0
  9
$UNITMODE
 70
     0
  9
$VISRETAIN
 70
     1
  9
$PLINEGEN
 70
     0
  9
$PSLTSCALE
 70
     1
  9
$TREEDEPTH
 70
  3020
  9
$CMLSTYLE
  2
Standard
  9
$CMLJUST
 70
     0
  9
$CMLSCALE
 40
1.0
  9
$PROXYGRAPHICS
 70
     1
  9
$MEASUREMENT
 70
     0
  9
$CELWEIGHT
370
    -1
  9
$ENDCAPS
280
     0
  9
$JOINSTYLE
280
     0
  9
$LWDISPLAY
290
     1
  9
$INSUNITS
 70
     4
  9
$HYPERLINKBASE
  1

  9
$STYLESHEET
  1

  9
$XEDIT
290
     1
  9
$CEPSNTYPE
380
     0
  9
$PSTYLEMODE
290
     1
  9
$FINGERPRINTGUID
  2
{C0C56C39-FCF3-DE46-AD4A-F68D00E5864D}
  9
$VERSIONGUID
  2
{342CA9B8-7A2C-B34D-992B-55F5D3BDED5D}
  9
$EXTNAMES
290
     1
  9
$PSVPSCALE
 40
0.0
  9
$OLESTARTUP
290
     0
  9
$SORTENTS
280
   127
  9
$INDEXCTL
280
     0
  9
$HIDETEXT
280
     1
  9
$XCLIPFRAME
280
     2
  9
$HALOGAP
280
     0
  9
$OBSCOLOR
 70
   257
  9
$OBSLTYPE
280
     0
  9
$INTERSECTIONDISPLAY
280
     0
  9
$INTERSECTIONCOLOR
 70
   257
  9
$DIMASSOC
280
     2
  9
$PROJECTNAME
  1

  9
$CAMERADISPLAY
290
     0
  9
$LENSLENGTH
 40
50.0
  9
$CAMERAHEIGHT
 40
0.0
  9
$STEPSPERSEC
 40
2.0
  9
$STEPSIZE
 40
6.0
  9
$3DDWFPREC
 40
2.0
  9
$PSOLWIDTH
 40
0.25
  9
$PSOLHEIGHT
 40
4.0
  9
$LOFTANG1
 40
1.570796326794896
  9
$LOFTANG2
 40
1.570796326794896
  9
$LOFTMAG1
 40
0.0
  9
$LOFTMAG2
 40
0.0
  9
$LOFTPARAM
 70
     7
  9
$LOFTNORMALS
280
     1
  9
$LATITUDE
 40
37.795
  9
$LONGITUDE
 40
-122.394
  9
$NORTHDIRECTION
 40
0.0
  9
$TIMEZONE
 70
 -8000
  9
$LIGHTGLYPHDISPLAY
280
     1
  9
$TILEMODELIGHTSYNCH
280
     1
  9
$CMATERIAL
347
11
  9
$SOLIDHIST
280
     0
  9
$SHOWHIST
280
     1
  9
$DWFFRAME
280
     2
  9
$DGNFRAME
280
     0
  9
$REALWORLDSCALE
290
     1
  9
$INTERFERECOLOR
 62
     1
  9
$INTERFEREOBJVS
345
33
  9
$INTERFEREVPVS
346
30
  9
$CSHADOW
280
     0
  9
$SHADOWPLANELOCATION
 40
0.0
  0
ENDSEC
  0
SECTION
  2
CLASSES
  0
CLASS
  1
ACDBDICTIONARYWDFLT
  2
AcDbDictionaryWithDefault
  3
ObjectDBX Classes
 90
        0
 91
        1
280
     0
281
     0
  0
CLASS
  1
MATERIAL
  2
AcDbMaterial
  3
ObjectDBX Classes
 90
     1153
 91
        3
280
     0
281
     0
  0
CLASS
  1
VISUALSTYLE
  2
AcDbVisualStyle
  3
ObjectDBX Classes
 90
     4095
 91
       24
280
     0
281
     0
  0
CLASS
  1
SCALE
  2
AcDbScale
  3
ObjectDBX Classes
 90
     1153
 91
       17
280
     0
281
     0
  0
CLASS
  1
TABLESTYLE
  2
AcDbTableStyle
  3
ObjectDBX Classes
 90
     4095
 91
        1
280
     0
281
     0
  0
CLASS
  1
MLEADERSTYLE
  2
AcDbMLeaderStyle
  3
ACDB_MLEADERSTYLE_CLASS
 90
     4095
 91
        1
280
     0
281
     0
  0
CLASS
  1
ACDBSECTIONVIEWSTYLE
  2
AcDbSectionViewStyle
  3
ObjectDBX Classes
 90
     1025
 91
        1
280
     0
281
     0
  0
CLASS
  1
ACDBDETAILVIEWSTYLE
  2
AcDbDetailViewStyle
  3
ObjectDBX Classes
 90
     1025
 91
        1
280
     0
281
     0
  0
CLASS
  1
DICTIONARYVAR
  2
AcDbDictionaryVar
  3
ObjectDBX Classes
 90
        0
 91
        5
280
     0
281
     0
  0
CLASS
  1
CELLSTYLEMAP
  2
AcDbCellStyleMap
  3
ObjectDBX Classes
 90
     1152
 91
        1
280
     0
281
     0
  0
ENDSEC
  0
SECTION
  2
TABLES
  0
TABLE
  2
VPORT
  5
8
330
0
100
AcDbSymbolTable
 70
     1
1001
ACAD
1000
DbSaveVer
1071
      247
  0
VPORT
  5
57
330
8
100
AcDbSymbolTableRecord
100
AcDbViewportTableRecord
  2
*Active
 70
     0
 10
0.0
 20
0.0
 11
1.0
 21
1.0
 12
0.0
 22
0.0
 13
0.0
 23
0.0
 14
1.0
 24
1.0
 15
0.0
 25
0.0
 16
0.0
 26
0.0
 36
1.0
 17
-111.9583333053439
 27
3.302777776952218
 37
0.0
 40
214.1999999464498
 41
0.9999999999999998
 42
50.0
 43
0.0
 44
0.0
 50
0.0
 51
0.0
 71
     0
 72
   100
 73
     1
 74
     1
 75
     0
 76
     0
 77
     0
 78
     0
281
     0
 65
     1
110
0.0
120
0.0
130
0.0
111
1.0
121
0.0
131
0.0
112
0.0
122
1.0
132
0.0
 79
     0
146
0.0
 60
     3
 61
     5
292
     1
282
     1
141
0.0
142
0.0
 63
   250
421
  3355443
  0
ENDTAB
  0
TABLE
  2
LTYPE
  5
5
330
0
100
AcDbSymbolTable
 70
     1
  0
LTYPE
  5
5B
330
5
100
AcDbSymbolTableRecord
100
AcDbLinetypeTableRecord
  2
ByBlock
 70
     0
  3

 72
    65
 73
     0
 40
0.0
  0
LTYPE
  5
5C
330
5
100
AcDbSymbolTableRecord
100
AcDbLinetypeTableRecord
  2
ByLayer
 70
     0
  3

 72
    65
 73
     0
 40
0.0
  0
LTYPE
  5
5D
330
5
100
AcDbSymbolTableRecord
100
AcDbLinetypeTableRecord
  2
Continuous
 70
     0
  3
Solid line
 72
    65
 73
     0
 40
0.0
  0
ENDTAB
  0
TABLE
  2
LAYER
  5
2
330
0
100
AcDbSymbolTable
 70
     2
  0
LAYER
  5
54
330
2
100
AcDbSymbolTableRecord
100
AcDbLayerTableRecord
  2
0
 70
     0
 62
     7
  6
Continuous
370
    -3
390
F
347
21
348
0
  0
LAYER
  5
78
330
2
100
AcDbSymbolTableRecord
100
AcDbLayerTableRecord
  2
Layer 1
 70
     0
 62
     7
  6
Continuous
370
     0
390
F
347
21
348
0
  0
ENDTAB
  0
TABLE
  2
STYLE
  5
3
330
0
100
AcDbSymbolTable
 70
     2
  0
STYLE
  5
55
330
3
100
AcDbSymbolTableRecord
100
AcDbTextStyleTableRecord
  2
Standard
 70
     0
 40
0.0
 41
1.0
 50
0.0
 71
     0
 42
0.2
  3
txt
  4

  0
STYLE
  5
5A
330
3
100
AcDbSymbolTableRecord
100
AcDbTextStyleTableRecord
  2
Annotative
 70
     0
 40
0.0
 41
1.0
 50
0.0
 71
     0
 42
0.2
  3
txt
  4

1001
AcadAnnotative
1000
AnnotativeData
1002
{
1070
     1
1070
     1
1002
}
  0
ENDTAB
  0
TABLE
  2
VIEW
  5
6
330
0
100
AcDbSymbolTable
 70
     0
  0
ENDTAB
  0
TABLE
  2
UCS
  5
7
330
0
100
AcDbSymbolTable
 70
     0
  0
ENDTAB
  0
TABLE
  2
APPID
  5
9
330
0
100
AcDbSymbolTable
 70
     2
  0
APPID
  5
56
330
9
100
AcDbSymbolTableRecord
100
AcDbRegAppTableRecord
  2
ACAD
 70
     0
  0
APPID
  5
5E
330
9
100
AcDbSymbolTableRecord
100
AcDbRegAppTableRecord
  2
AcadAnnotative
 70
     0
  0
ENDTAB
  0
TABLE
  2
DIMSTYLE
  5
A
330
0
100
AcDbSymbolTable
 70
     2
100
AcDbDimStyleTable
 71
     0
  0
DIMSTYLE
105
58
330
A
100
AcDbSymbolTableRecord
100
AcDbDimStyleTableRecord
  2
Standard
 70
     0
340
55
  0
DIMSTYLE
105
59
330
A
100
AcDbSymbolTableRecord
100
AcDbDimStyleTableRecord
  2
Annotative
 70
     0
340
55
1001
AcadAnnotative
1000
AnnotativeData
1002
{
1070
     1
1070
     1
1002
}
  0
ENDTAB
  0
TABLE
  2
BLOCK_RECORD
  5
1
330
0
100
AcDbSymbolTable
 70
     2
  0
BLOCK_RECORD
  5
70
330
1
100
AcDbSymbolTableRecord
100
AcDbBlockTableRecord
  2
*Model_Space
340
73
 70
     0
280
     1
281
     0
  0
BLOCK_RECORD
  5
6C
330
1
100
AcDbSymbolTableRecord
100
AcDbBlockTableRecord
  2
*Paper_Space
340
6F
 70
     0
280
     1
281
     0
  0
BLOCK_RECORD
  5
74
330
1
100
AcDbSymbolTableRecord
100
AcDbBlockTableRecord
  2
*Paper_Space0
340
77
 70
     0
280
     1
281
     0
  0
BLOCK_RECORD
  5
79
330
1
100
AcDbSymbolTableRecord
100
AcDbBlockTableRecord
  2
Block_0
340
0
102
{BLKREFS
331
7A
102
}
 70
     0
280
     1
281
     0
  0
ENDTAB
  0
ENDSEC
  0
SECTION
  2
BLOCKS
  0
BLOCK
  5
71
330
70
100
AcDbEntity
  8
0
100
AcDbBlockBegin
  2
*Model_Space
 70
     0
 10
0.0
 20
0.0
 30
0.0
  3
*Model_Space
  1

  0
ENDBLK
  5
72
330
70
100
AcDbEntity
  8
0
100
AcDbBlockEnd
  0
BLOCK
  5
6D
330
6C
100
AcDbEntity
 67
     1
  8
0
100
AcDbBlockBegin
  2
*Paper_Space
 70
     0
 10
0.0
 20
0.0
 30
0.0
  3
*Paper_Space
  1

  0
ENDBLK
  5
6E
330
6C
100
AcDbEntity
 67
     1
  8
0
100
AcDbBlockEnd
  0
BLOCK
  5
75
330
74
100
AcDbEntity
 67
     1
  8
0
100
AcDbBlockBegin
  2
*Paper_Space0
 70
     0
 10
0.0
 20
0.0
 30
0.0
  3
*Paper_Space0
  1

  0
ENDBLK
  5
76
330
74
100
AcDbEntity
 67
     1
  8
0
100
AcDbBlockEnd
  0
BLOCK
  5
7B
330
79
100
AcDbEntity
  8
0
100
AcDbBlockBegin
  2
Block_0
 70
     0
 10
0.0
 20
0.0
 30
0.0
  3
Block_0
  1

  0
SPLINE
  5
7D
330
79
100
AcDbEntity
  8
Layer 1
100
AcDbSpline
210
0.0
220
0.0
230
1.0
 70
     9
 71
     3
 72
   584
 73
   580
 74
     0
 42
0.0000000001
 43
0.0000000001
 40
0.0
 40
0.0
 40
0.0
 40
0.0
 40
1.0
 40
1.0
 40
1.0
 40
2.0
 40
2.0
 40
2.0
 40
3.0
 40
3.0
 40
3.0
 40
4.0
 40
4.0
 40
4.0
 40
5.0
 40
5.0
 40
5.0
 40
6.0
 40
6.0
 40
6.0
 40
7.0
 40
7.0
 40
7.0
 40
8.0
 40
8.0
 40
8.0
 40
9.0
 40
9.0
 40
9.0
 40
10.0
 40
10.0
 40
10.0
 40
11.0
 40
11.0
 40
11.0
 40
12.0
 40
12.0
 40
12.0
 40
13.0
 40
13.0
 40
13.0
 40
14.0
 40
14.0
 40
14.0
 40
15.0
 40
15.0
 40
15.0
 40
16.0
 40
16.0
 40
16.0
 40
17.0
 40
17.0
 40
17.0
 40
18.0
 40
18.0
 40
18.0
 40
19.0
 40
19.0
 40
19.0
 40
20.0
 40
20.0
 40
20.0
 40
21.0
 40
21.0
 40
21.0
 40
22.0
 40
22.0
 40
22.0
 40
23.0
 40
23.0
 40
23.0
 40
24.0
 40
24.0
 40
24.0
 40
25.0
 40
25.0
 40
25.0
 40
26.0
 40
26.0
 40
26.0
 40
27.0
 40
27.0
 40
27.0
 40
28.0
 40
28.0
 40
28.0
 40
29.0
 40
29.0
 40
29.0
 40
30.0
 40
30.0
 40
30.0
 40
31.0
 40
31.0
 40
31.0
 40
32.0
 40
32.0
 40
32.0
 40
33.0
 40
33.0
 40
33.0
 40
34.0
 40
34.0
 40
34.0
 40
35.0
 40
35.0
 40
35.0
 40
36.0
 40
36.0
 40
36.0
 40
37.0
 40
37.0
 40
37.0
 40
38.0
 40
38.0
 40
38.0
 40
39.0
 40
39.0
 40
39.0
 40
40.0
 40
40.0
 40
40.0
 40
41.0
 40
41.0
 40
41.0
 40
42.0
 40
42.0
 40
42.0
 40
43.0
 40
43.0
 40
43.0
 40
44.0
 40
44.0
 40
44.0
 40
45.0
 40
45.0
 40
45.0
 40
46.0
 40
46.0
 40
46.0
 40
47.0
 40
47.0
 40
47.0
 40
48.0
 40
48.0
 40
48.0
 40
49.0
 40
49.0
 40
49.0
 40
50.0
 40
50.0
 40
50.0
 40
51.0
 40
51.0
 40
51.0
 40
52.0
 40
52.0
 40
52.0
 40
53.0
 40
53.0
 40
53.0
 40
54.0
 40
54.0
 40
54.0
 40
55.0
 40
55.0
 40
55.0
 40
56.0
 40
56.0
 40
56.0
 40
57.0
 40
57.0
 40
57.0
 40
58.0
 40
58.0
 40
58.0
 40
59.0
 40
59.0
 40
59.0
 40
60.0
 40
60.0
 40
60.0
 40
61.0
 40
61.0
 40
61.0
 40
62.0
 40
62.0
 40
62.0
 40
63.0
 40
63.0
 40
63.0
 40
64.0
 40
64.0
 40
64.0
 40
65.0
 40
65.0
 40
65.0
 40
66.0
 40
66.0
 40
66.0
 40
67.0
 40
67.0
 40
67.0
 40
68.0
 40
68.0
 40
68.0
 40
69.0
 40
69.0
 40
69.0
 40
70.0
 40
70.0
 40
70.0
 40
71.0
 40
71.0
 40
71.0
 40
72.0
 40
72.0
 40
72.0
 40
73.0
 40
73.0
 40
73.0
 40
74.0
 40
74.0
 40
74.0
 40
75.0
 40
75.0
 40
75.0
 40
76.0
 40
76.0
 40
76.0
 40
77.0
 40
77.0
 40
77.0
 40
78.0
 40
78.0
 40
78.0
 40
79.0
 40
79.0
 40
79.0
 40
80.0
 40
80.0
 40
80.0
 40
81.0
 40
81.0
 40
81.0
 40
82.0
 40
82.0
 40
82.0
 40
83.0
 40
83.0
 40
83.0
 40
84.0
 40
84.0
 40
84.0
 40
85.0
 40
85.0
 40
85.0
 40
86.0
 40
86.0
 40
86.0
 40
87.0
 40
87.0
 40
87.0
 40
88.0
 40
88.0
 40
88.0
 40
89.0
 40
89.0
 40
89.0
 40
90.0
 40
90.0
 40
90.0
 40
91.0
 40
91.0
 40
91.0
 40
92.0
 40
92.0
 40
92.0
 40
93.0
 40
93.0
 40
93.0
 40
94.0
 40
94.0
 40
94.0
 40
95.0
 40
95.0
 40
95.0
 40
96.0
 40
96.0
 40
96.0
 40
97.0
 40
97.0
 40
97.0
 40
98.0
 40
98.0
 40
98.0
 40
99.0
 40
99.0
 40
99.0
 40
100.0
 40
100.0
 40
100.0
 40
101.0
 40
101.0
 40
101.0
 40
102.0
 40
102.0
 40
102.0
 40
103.0
 40
103.0
 40
103.0
 40
104.0
 40
104.0
 40
104.0
 40
105.0
 40
105.0
 40
105.0
 40
106.0
 40
106.0
 40
106.0
 40
107.0
 40
107.0
 40
107.0
 40
108.0
 40
108.0
 40
108.0
 40
109.0
 40
109.0
 40
109.0
 40
110.0
 40
110.0
 40
110.0
 40
111.0
 40
111.0
 40
111.0
 40
112.0
 40
112.0
 40
112.0
 40
113.0
 40
113.0
 40
113.0
 40
114.0
 40
114.0
 40
114.0
 40
115.0
 40
115.0
 40
115.0
 40
116.0
 40
116.0
 40
116.0
 40
117.0
 40
117.0
 40
117.0
 40
118.0
 40
118.0
 40
118.0
 40
119.0
 40
119.0
 40
119.0
 40
120.0
 40
120.0
 40
120.0
 40
121.0
 40
121.0
 40
121.0
 40
122.0
 40
122.0
 40
122.0
 40
123.0
 40
123.0
 40
123.0
 40
124.0
 40
124.0
 40
124.0
 40
125.0
 40
125.0
 40
125.0
 40
126.0
 40
126.0
 40
126.0
 40
127.0
 40
127.0
 40
127.0
 40
128.0
 40
128.0
 40
128.0
 40
129.0
 40
129.0
 40
129.0
 40
130.0
 40
130.0
 40
130.0
 40
131.0
 40
131.0
 40
131.0
 40
132.0
 40
132.0
 40
132.0
 40
133.0
 40
133.0
 40
133.0
 40
134.0
 40
134.0
 40
134.0
 40
135.0
 40
135.0
 40
135.0
 40
136.0
 40
136.0
 40
136.0
 40
137.0
 40
137.0
 40
137.0
 40
138.0
 40
138.0
 40
138.0
 40
139.0
 40
139.0
 40
139.0
 40
140.0
 40
140.0
 40
140.0
 40
141.0
 40
141.0
 40
141.0
 40
142.0
 40
142.0
 40
142.0
 40
143.0
 40
143.0
 40
143.0
 40
144.0
 40
144.0
 40
144.0
 40
145.0
 40
145.0
 40
145.0
 40
146.0
 40
146.0
 40
146.0
 40
147.0
 40
147.0
 40
147.0
 40
148.0
 40
148.0
 40
148.0
 40
149.0
 40
149.0
 40
149.0
 40
150.0
 40
150.0
 40
150.0
 40
151.0
 40
151.0
 40
151.0
 40
152.0
 40
152.0
 40
152.0
 40
153.0
 40
153.0
 40
153.0
 40
154.0
 40
154.0
 40
154.0
 40
155.0
 40
155.0
 40
155.0
 40
156.0
 40
156.0
 40
156.0
 40
157.0
 40
157.0
 40
157.0
 40
158.0
 40
158.0
 40
158.0
 40
159.0
 40
159.0
 40
159.0
 40
160.0
 40
160.0
 40
160.0
 40
161.0
 40
161.0
 40
161.0
 40
162.0
 40
162.0
 40
162.0
 40
163.0
 40
163.0
 40
163.0
 40
164.0
 40
164.0
 40
164.0
 40
165.0
 40
165.0
 40
165.0
 40
166.0
 40
166.0
 40
166.0
 40
167.0
 40
167.0
 40
167.0
 40
168.0
 40
168.0
 40
168.0
 40
169.0
 40
169.0
 40
169.0
 40
170.0
 40
170.0
 40
170.0
 40
171.0
 40
171.0
 40
171.0
 40
172.0
 40
172.0
 40
172.0
 40
173.0
 40
173.0
 40
173.0
 40
174.0
 40
174.0
 40
174.0
 40
175.0
 40
175.0
 40
175.0
 40
176.0
 40
176.0
 40
176.0
 40
177.0
 40
177.0
 40
177.0
 40
178.0
 40
178.0
 40
178.0
 40
179.0
 40
179.0
 40
179.0
 40
180.0
 40
180.0
 40
180.0
 40
181.0
 40
181.0
 40
181.0
 40
182.0
 40
182.0
 40
182.0
 40
183.0
 40
183.0
 40
183.0
 40
184.0
 40
184.0
 40
184.0
 40
185.0
 40
185.0
 40
185.0
 40
186.0
 40
186.0
 40
186.0
 40
187.0
 40
187.0
 40
187.0
 40
188.0
 40
188.0
 40
188.0
 40
189.0
 40
189.0
 40
189.0
 40
190.0
 40
190.0
 40
190.0
 40
191.0
 40
191.0
 40
191.0
 40
192.0
 40
192.0
 40
192.0
 40
193.0
 40
193.0
 40
193.0
 40
193.0
 10
-90.46897928034061
 20
33.54016859919936
 30
0.0
 10
-84.39030184780374
 20
25.5193639149442
 30
0.0
 10
-82.88339608677796
 20
15.12762090477413
 30
0.0
 10
-87.30841500946192
 20
6.057511172018855
 30
0.0
 10
-90.28445086293181
 20
-0.043087595470055
 30
0.0
 10
-95.24588427940365
 20
-4.564033821994354
 30
0.0
 10
-100.7710909314333
 20
-8.248477932996621
 30
0.0
 10
-102.2872689020264
 20
-9.259549426027568
 30
0.0
 10
-103.8433975039189
 20
-10.21126733070276
 30
0.0
 10
-105.4157810904765
 20
-11.11095783729473
 30
0.0
 10
-107.1473948436728
 20
-12.10148165605505
 30
0.0
 10
-108.9186158130069
 20
-12.83049482371811
 30
0.0
 10
-110.708266729745
 20
-13.32741657308063
 30
0.0
 10
-110.2213040202747
 20
-14.71349743052377
 30
0.0
 10
-109.4206887899082
 20
-16.41391763921257
 30
0.0
 10
-108.151311854014
 20
-18.47675532278441
 30
0.0
 10
-107.7282243659589
 20
-19.16438696259376
 30
0.0
 10
-107.2530522439661
 20
-19.89231264888946
 30
0.0
 10
-106.720071901871
 20
-20.66224945750654
 30
0.0
 10
-106.5978161017514
 20
-20.76355693232361
 30
0.0
 10
-106.4476292012298
 20
-20.89165079031519
 30
0.0
 10
-106.2734032388819
 20
-21.04704615423074
 30
0.0
 10
-105.1165520066685
 20
-22.07877979325691
 30
0.0
 10
-102.9008373370845
 20
-24.33398720726148
 30
0.0
 10
-100.7710909314333
 20
-27.91300286141938
 30
0.0
 10
-100.6555889629709
 20
-28.10703243183476
 30
0.0
 10
-100.5392856924455
 20
-28.2839484796669
 30
0.0
 10
-100.424585026046
 20
-28.48593383482761
 30
0.0
 10
-99.35816645496522
 20
-30.36246878928596
 30
0.0
 10
-98.34108519647095
 20
-32.6041113041231
 30
0.0
 10
-97.4970851831004
 20
-35.18533418511142
 30
0.0
 10
-96.3223763621054
 20
-38.77780026671919
 30
0.0
 10
-95.49360108788624
 20
-43.04851130685432
 30
0.0
 10
-95.42892456440641
 20
-48.09036110869913
 30
0.0
 10
-95.42892456440641
 20
-48.09036110869913
 30
0.0
 10
-94.93062915437112
 20
-56.55205363393088
 30
0.0
 10
-97.41993124183144
 20
-57.54755697263922
 30
0.0
 10
-97.5613038196773
 20
-57.60416323964045
 30
0.0
 10
-97.69328971625627
 20
-57.63089238695233
 30
0.0
 10
-97.8203533287351
 20
-57.64291191786231
 30
0.0
 10
-97.84118718231882
 20
-57.64485793715425
 30
0.0
 10
-97.86270786623445
 20
-57.6487499757349
 30
0.0
 10
-97.88319830463699
 20
-57.64960851365562
 30
0.0
 10
-97.9719138899323
 20
-57.65327160879348
 30
0.0
 10
-98.05364670013016
 20
-57.6356429634537
 30
0.0
 10
-98.13560845376827
 20
-57.6188728560417
 30
0.0
 10
-98.1788787650407
 20
-57.61005853337565
 30
0.0
 10
-98.22535428456703
 20
-57.61023024095966
 30
0.0
 10
-98.26690751999414
 20
-57.5959785114485
 30
0.0
 10
-98.35997303076659
 20
-57.56404090074517
 30
0.0
 10
-98.4461702381521
 20
-57.51252862541399
 30
0.0
 10
-98.53030695452908
 20
-57.45534999979745
 30
0.0
 10
-98.55171316671464
 20
-57.44075485511759
 30
0.0
 10
-98.57609564371259
 20
-57.43405825932365
 30
0.0
 10
-98.59692949728575
 20
-57.41786051052695
 30
0.0
 10
-98.69972510450821
 20
-57.33853160651653
 30
0.0
 10
-98.79553793662104
 20
-57.24037210408014
 30
0.0
 10
-98.88528376742044
 20
-57.12687339076457
 30
0.0
 10
-98.9129859243706
 20
-57.09184504353935
 30
0.0
 10
-98.93668157102638
 20
-57.04708659986408
 30
0.0
 10
-98.96312453903156
 20
-57.00913922370417
 30
0.0
 10
-99.02276430669081
 20
-56.92374331837773
 30
0.0
 10
-99.08217513090853
 20
-56.83806123374139
 30
0.0
 10
-99.13609131242525
 20
-56.73898595752167
 30
0.0
 10
-99.16745656451102
 20
-56.68134944501185
 30
0.0
 10
-99.19492977802093
 20
-56.6151847891414
 30
0.0
 10
-99.22446348254867
 20
-56.55331282288289
 30
0.0
 10
-99.26819168071439
 20
-56.46162097279317
 30
0.0
 10
-99.31237776578107
 20
-56.37101660407145
 30
0.0
 10
-99.35221392537094
 20
-56.27102555406516
 30
0.0
 10
-99.38117527127694
 20
-56.19810706654199
 30
0.0
 10
-99.40716035239013
 20
-56.11917881356223
 30
0.0
 10
-99.43417567900901
 20
-56.04236828745841
 30
0.0
 10
-99.46931849794955
 20
-55.94254894503613
 30
0.0
 10
-99.50469026035179
 20
-55.84318748951099
 30
0.0
 10
-99.53651339932859
 20
-55.73758732508197
 30
0.0
 10
-99.56192612183064
 20
-55.65367955215034
 30
0.0
 10
-99.58504940986374
 20
-55.56622315581315
 30
0.0
 10
-99.60840164134637
 20
-55.47922464636283
 30
0.0
 10
-99.63724851553259
 20
-55.37225082125718
 30
0.0
 10
-99.66598091799774
 20
-55.26504805270747
 30
0.0
 10
-99.69208047083233
 20
-55.15412495316176
 30
0.0
 10
-99.71371562646872
 20
-55.06220415962604
 30
0.0
 10
-99.73374817798919
 20
-54.96839458266038
 30
0.0
 10
-99.75355178605825
 20
-54.87424159052667
 30
0.0
 10
-99.77724743271277
 20
-54.76205930202894
 30
0.0
 10
-99.80048519247624
 20
-54.64947636249736
 30
0.0
 10
-99.82166246122128
 20
-54.53494740367705
 30
0.0
 10
-99.83952005000224
 20
-54.43896286397922
 30
0.0
 10
-99.85634739327977
 20
-54.34234872980091
 30
0.0
 10
-99.8726023779349
 20
-54.2452194728699
 30
0.0
 10
-99.89229151428384
 20
-54.12811490028678
 30
0.0
 10
-99.91106487684911
 20
-54.01066691252793
 30
0.0
 10
-99.92857905045948
 20
-53.89264656615763
 30
0.0
 10
-99.94288801583682
 20
-53.7964330830106
 30
0.0
 10
-99.9567390943122
 20
-53.70039130745016
 30
0.0
 10
-99.96967439900361
 20
-53.60406335258109
 30
0.0
 10
-99.98581491193831
 20
-53.48444040208754
 30
0.0
 10
-100.0008107076488
 20
-53.36521810262783
 30
0.0
 10
-100.0150052012954
 20
-53.24616751074958
 30
0.0
 10
-100.0264523735911
 20
-53.15092703724787
 30
0.0
 10
-100.037899545887
 20
-53.05574379960879
 30
0.0
 10
-100.0482020009585
 20
-52.96141909989043
 30
0.0
 10
-100.0610228339301
 20
-52.84357046110478
 30
0.0
 10
-100.0726989496663
 20
-52.72726719057978
 30
0.0
 10
-100.0840316502415
 20
-52.61165075039146
 30
0.0
 10
-100.0930749163577
 20
-52.51955824927108
 30
0.0
 10
-100.1024615976358
 20
-52.42700786125743
 30
0.0
 10
-100.1104746182483
 20
-52.336804143567
 30
0.0
 10
-100.1208915450296
 20
-52.22101599579467
 30
0.0
 10
-100.1301637545966
 20
-52.10860476385032
 30
0.0
 10
-100.1393214924335
 20
-51.99682312638003
 30
0.0
 10
-100.1461897958105
 20
-51.91245746656218
 30
0.0
 10
-100.1534015143498
 20
-51.82643196675782
 30
0.0
 10
-100.159697459115
 20
-51.74487086414941
 30
0.0
 10
-100.168855196952
 20
-51.62295847919846
 30
0.0
 10
-100.1772116327251
 20
-51.50648350108943
 30
0.0
 10
-100.1852246533375
 20
-51.39184007054772
 30
0.0
 10
-100.1894601070842
 20
-51.33054046290005
 30
0.0
 10
-100.1943823911738
 20
-51.26563499598546
 30
0.0
 10
-100.1983889014797
 20
-51.20668205865715
 30
0.0
 10
-100.209378186884
 20
-51.04424668378412
 30
0.0
 10
-100.2194516985037
 20
-50.8885651405561
 30
0.0
 10
-100.2288383797818
 20
-50.74707809098048
 30
0.0
 10
-100.2389118914024
 20
-50.59448728427822
 30
0.0
 10
-100.2482985726899
 20
-50.45328641400866
 30
0.0
 10
-100.2574563105265
 20
-50.33028654769033
 30
0.0
 10
-100.3322063456161
 20
-49.32905962283467
 30
0.0
 10
-101.0612767491356
 20
-46.7551056962511
 30
0.0
 10
-101.7679106949559
 20
-44.4432347793827
 30
0.0
 10
-101.877002246943
 20
-45.04152123942169
 30
0.0
 10
-101.9970830843244
 20
-45.63196638644447
 30
0.0
 10
-102.1260927161009
 20
-46.2127959087354
 30
0.0
 10
-102.3843409230951
 20
-47.37451218917924
 30
0.0
 10
-102.678876666265
 20
-48.49788044243316
 30
0.0
 10
-102.9963067540268
 20
-49.56945024104535
 30
0.0
 10
-103.3136223700668
 20
-50.6410772755208
 30
0.0
 10
-103.6538323306995
 20
-51.66084861949576
 30
0.0
 10
-104.0029710857285
 20
-52.6153710813881
 30
0.0
 10
-104.3523387841981
 20
-53.56989354327659
 30
0.0
 10
-104.7106352770529
 20
-54.45910988721919
 30
0.0
 10
-105.0645818444405
 20
-55.26962692162483
 30
0.0
 10
-105.2415551281391
 20
-55.67485682089825
 30
0.0
 10
-105.4173836946033
 20
-56.06039758382243
 30
0.0
 10
-105.5902359962656
 20
-56.42458937041339
 30
0.0
 10
-109.0653685618449
 20
-63.73979035435523
 30
0.0
 10
-96.58005221047758
 20
-65.77635677750847
 30
0.0
 10
-101.08485792407
 20
-71.88777312281477
 30
0.0
 10
-101.2634338118858
 20
-72.13010976032125
 30
0.0
 10
-101.4557463064559
 20
-72.36036963105189
 30
0.0
 10
-101.6537823871692
 20
-72.5844480287445
 30
0.0
 10
-101.7019749825324
 20
-72.63899380473176
 30
0.0
 10
-101.750510993066
 20
-72.69302445797018
 30
0.0
 10
-101.7998483056644
 20
-72.74642551673132
 30
0.0
 10
-102.0008606511791
 20
-72.96432244137946
 30
0.0
 10
-102.2080544697393
 20
-73.17580894954677
 30
0.0
 10
-102.4257796868012
 20
-73.3730437282061
 30
0.0
 10
-102.4386005197728
 20
-73.38471984394804
 30
0.0
 10
-102.4524515982479
 20
-73.39502229901275
 30
0.0
 10
-102.4653869029502
 20
-73.40664117889208
 30
0.0
 10
-102.6732675518419
 20
-73.59305837973018
 30
0.0
 10
-102.8898480516796
 20
-73.76659751173757
 30
0.0
 10
-103.1107784769848
 20
-73.93229533071782
 30
0.0
 10
-103.1677853950234
 20
-73.97510775510436
 30
0.0
 10
-103.2250212565026
 20
-74.01769123604426
 30
0.0
 10
-103.2828294765941
 20
-74.05901552803277
 30
0.0
 10
-103.5171530934924
 20
-74.22637318699891
 30
0.0
 10
-103.7561700510296
 20
-74.38508823087916
 30
0.0
 10
-104.0021697836653
 20
-74.5272048749327
 30
0.0
 10
-104.0274680344366
 20
-74.54185725547133
 30
0.0
 10
-104.0537965307221
 20
-74.55393402224395
 30
0.0
 10
-104.0790947814928
 20
-74.56824298761453
 30
0.0
 10
-104.3059777363919
 20
-74.69627960974413
 30
0.0
 10
-104.5380119188315
 20
-74.81080856856443
 30
0.0
 10
-104.7729078943418
 20
-74.91566466679413
 30
0.0
 10
-104.8354094550827
 20
-74.94353853133279
 30
0.0
 10
-104.8976820723722
 20
-74.97164133932128
 30
0.0
 10
-104.9606415199942
 20
-74.99785536387726
 30
0.0
 10
-105.2178594814843
 20
-75.10477195312027
 30
0.0
 10
-105.4782826512171
 20
-75.20047031351525
 30
0.0
 10
-105.7423689160753
 20
-75.27750978306572
 30
0.0
 10
-105.777511735026
 20
-75.28775500226778
 30
0.0
 10
-105.8132269125893
 20
-75.29445159806174
 30
0.0
 10
-105.8484842032602
 20
-75.30418169451497
 30
0.0
 10
-106.0864709152937
 20
-75.36965952004486
 30
0.0
 10
-106.3268615335063
 20
-75.420656672624
 30
0.0
 10
-106.5686258123946
 20
-75.46026388876659
 30
0.0
 10
-106.6326155055309
 20
-75.47073805141915
 30
0.0
 10
-106.6964907269366
 20
-75.48201351613045
 30
0.0
 10
-106.7607093635139
 20
-75.49059889535307
 30
0.0
 10
-107.0305192145347
 20
-75.5267147239463
 30
0.0
 10
-107.3018171979411
 20
-75.54875053061557
 30
0.0
 10
-107.5740309551421
 20
-75.55029589887301
 30
0.0
 10
-107.6324115338455
 20
-75.5505820781829
 30
0.0
 10
-107.6911355277204
 20
-75.54543085065024
 30
0.0
 10
-107.7496305781548
 20
-75.5441144258356
 30
0.0
 10
-107.9229407667191
 20
-75.54022238725494
 30
0.0
 10
-108.0962509552731
 20
-75.53054952666433
 30
0.0
 10
-108.269561143837
 20
-75.51177616410162
 30
0.0
 10
-108.3496913499084
 20
-75.50307631315376
 30
0.0
 10
-108.4298215559792
 20
-75.4907133670751
 30
0.0
 10
-108.50995176205
 20
-75.4787510720271
 30
0.0
 10
-108.6679227397335
 20
-75.45516989709719
 30
0.0
 10
-108.8254358305237
 20
-75.42477765465129
 30
0.0
 10
-108.9827199778637
 20
-75.38820393916478
 30
0.0
 10
-109.0621633536023
 20
-75.36971675590748
 30
0.0
 10
-109.1416067293302
 20
-75.35168745954026
 30
0.0
 10
-109.2209356333375
 20
-75.32982336045565
 30
0.0
 10
-109.3963063129099
 20
-75.28134458578374
 30
0.0
 10
-109.5708756904288
 20
-75.2222771767379
 30
0.0
 10
-109.7446437658751
 20
-75.15679935120416
 30
0.0
 10
-109.8009638535709
 20
-75.13562208245945
 30
0.0
 10
-109.857627356438
 20
-75.11896644676948
 30
0.0
 10
-109.9137185006824
 20
-75.09595763045424
 30
0.0
 10
-110.1419751162671
 20
-75.0022052893512
 30
0.0
 10
-110.3685146560043
 20
-74.8935143883996
 30
0.0
 10
-110.5926502895522
 20
-74.7686829745146
 30
0.0
 10
-110.6407284131941
 20
-74.74189659134331
 30
0.0
 10
-110.6876618196124
 20
-74.70875702754419
 30
0.0
 10
-110.7355109998041
 20
-74.68048251197489
 30
0.0
 10
-110.9111106228274
 20
-74.57682836683779
 30
0.0
 10
-111.0855655286162
 20
-74.46487502178349
 30
0.0
 10
-111.2577309999457
 20
-74.34107385340323
 30
0.0
 10
-111.3301916005765
 20
-74.28898921945673
 30
0.0
 10
-111.4017364274227
 20
-74.23192506556222
 30
0.0
 10
-111.4733957259997
 20
-74.17617733648171
 30
0.0
 10
-111.6226668527372
 20
-74.06033195284677
 30
0.0
 10
-111.7701064319078
 20
-73.9365307844665
 30
0.0
 10
-111.9160578786726
 20
-73.80460212375691
 30
0.0
 10
-111.9880605924211
 20
-73.73946771339504
 30
0.0
 10
-112.0601777778798
 20
-73.67410435958269
 30
0.0
 10
-112.131379189565
 20
-73.60496343891878
 30
0.0
 10
-112.2868317893371
 20
-73.4538035287532
 30
0.0
 10
-112.4395370677691
 20
-73.29045238008847
 30
0.0
 10
-112.5906397420743
 20
-73.11983227701961
 30
0.0
 10
-112.6442125084192
 20
-73.05921949971248
 30
0.0
 10
-112.6989299919885
 20
-73.00364347821664
 30
0.0
 10
-112.7518159280001
 20
-72.9405695588681
 30
0.0
 10
-112.9535151038481
 20
-72.70046511996345
 30
0.0
 10
-113.1510932976793
 20
-72.44393398881164
 30
0.0
 10
-113.3427189619069
 20
-72.16679794752979
 30
0.0
 10
-113.3736263271103
 20
-72.12226844729731
 30
0.0
 10
-113.4025876730166
 20
-72.07150023816545
 30
0.0
 10
-113.4331516230491
 20
-72.02599772829088
 30
0.0
 10
-113.5916949593444
 20
-71.78967085624164
 30
0.0
 10
-113.7468041439558
 20
-71.54092380225432
 30
0.0
 10
-113.8976778748096
 20
-71.27775331117118
 30
0.0
 10
-113.9558295100727
 20
-71.17610242118544
 30
0.0
 10
-114.0121495977682
 20
-71.06804111471181
 30
0.0
 10
-114.0690420440761
 20
-70.96232647856138
 30
0.0
 10
-114.1908399573035
 20
-70.73635929743883
 30
0.0
 10
-114.3098905491804
 20
-70.50163502951349
 30
0.0
 10
-114.4257359328144
 20
-70.2566655423816
 30
0.0
 10
-114.4833152094648
 20
-70.13498210087728
 30
0.0
 10
-114.5404365992242
 20
-70.01215394214297
 30
0.0
 10
-114.5964132717481
 20
-69.88571992413406
 30
0.0
 10
-114.7135178443373
 20
-69.62117577237815
 30
0.0
 10
-114.826158019729
 20
-69.34323842903435
 30
0.0
 10
-114.9360508737687
 20
-69.05751700852988
 30
0.0
 10
-114.9805803739966
 20
-68.94201504006682
 30
0.0
 10
-115.0265980066313
 20
-68.83149259154855
 30
0.0
 10
-115.0698683179047
 20
-68.71249923553228
 30
0.0
 10
-115.2187960294713
 20
-68.30223258045143
 30
0.0
 10
-115.3617712114536
 20
-67.87473793106208
 30
0.0
 10
-115.4952452404181
 20
-67.4218305591755
 30
0.0
 10
-115.5087529037325
 20
-67.37598463413224
 30
0.0
 10
-115.5202000760285
 20
-67.32510195327513
 30
0.0
 10
-115.5334787958917
 20
-67.27885537720123
 30
0.0
 10
-115.6513846705339
 20
-66.86979067520977
 30
0.0
 10
-115.7624222418081
 20
-66.44235326168305
 30
0.0
 10
-115.8668204531464
 20
-65.99814574074111
 30
0.0
 10
-115.9041382348258
 20
-65.83965964030365
 30
0.0
 10
-115.9381363365419
 20
-65.67293157581481
 30
0.0
 10
-115.9735080989444
 20
-65.50986660646383
 30
0.0
 10
-116.0502041533207
 20
-65.15757987905762
 30
0.0
 10
-116.1231226408426
 20
-64.79584923450743
 30
0.0
 10
-116.1910043725651
 20
-64.42192735146709
 30
0.0
 10
-116.2255748328935
 20
-64.23167534790711
 30
0.0
 10
-116.2591150477175
 20
-64.03901943816833
 30
0.0
 10
-116.2913960735975
 20
-63.84315832018627
 30
0.0
 10
-116.3551568232825
 20
-63.45549983039
 30
0.0
 10
-116.4130795151048
 20
-63.05370408280331
 30
0.0
 10
-116.4674535835022
 20
-62.64349466358186
 30
0.0
 10
-116.4920650039407
 20
-62.45736364205239
 30
0.0
 10
-116.5188513871181
 20
-62.27586872530032
 30
0.0
 10
-116.5415167882592
 20
-62.08498712726562
 30
0.0
 10
-116.6131760868358
 20
-61.48046195832274
 30
0.0
 10
-116.6775091951335
 20
-60.8586515592126
 30
0.0
 10
-116.7281056966862
 20
-60.20599103076586
 30
0.0
 10
-116.7788166699493
 20
-60.85888050265924
 30
0.0
 10
-116.8430353065365
 20
-61.48091984521666
 30
0.0
 10
-116.9146946051038
 20
-62.08567395760617
 30
0.0
 10
-116.9373600062552
 20
-62.27644108391499
 30
0.0
 10
-116.9640319177019
 20
-62.45776429308368
 30
0.0
 10
-116.9886433381397
 20
-62.64378084289113
 30
0.0
 10
-117.0427884630967
 20
-63.0530172524666
 30
0.0
 10
-117.1004822114678
 20
-63.45383999040348
 30
0.0
 10
-117.1640140177122
 20
-63.84063994228224
 30
0.0
 10
-117.1965239870324
 20
-64.03861878713769
 30
0.0
 10
-117.2304076170276
 20
-64.23333518788978
 30
0.0
 10
-117.2654359642484
 20
-64.42553321073784
 30
0.0
 10
-117.3327453373476
 20
-64.79624988553872
 30
0.0
 10
-117.405091466258
 20
-65.15477532184497
 30
0.0
 10
-117.480986218582
 20
-65.50425749203789
 30
0.0
 10
-117.5170448113161
 20
-65.6703559620488
 30
0.0
 10
-117.5516152716452
 20
-65.84017476305955
 30
0.0
 10
-117.5896198836668
 20
-66.00152265656908
 30
0.0
 10
-117.6924154908886
 20
-66.43920528930173
 30
0.0
 10
-117.8018504580369
 20
-66.86000334289777
 30
0.0
 10
-117.9179247851118
 20
-67.26345893046327
 30
0.0
 10
-117.9328061091015
 20
-67.31554356440978
 30
0.0
 10
-117.9458558855137
 20
-67.37283666175092
 30
0.0
 10
-117.9610806246647
 20
-67.42440617294537
 30
0.0
 10
-118.0939822950274
 20
-67.87525305381477
 30
0.0
 10
-118.2361561749368
 20
-68.30068721219015
 30
0.0
 10
-118.3842825844495
 20
-68.70929402729219
 30
0.0
 10
-118.4291554998497
 20
-68.83298072394722
 30
0.0
 10
-118.4771191517612
 20
-68.94785309793618
 30
0.0
 10
-118.5232512561166
 20
-69.06776222773515
 30
0.0
 10
-118.6313125625893
 20
-69.34787453381433
 30
0.0
 10
-118.741663303521
 20
-69.62071788548809
 30
0.0
 10
-118.8565929133713
 20
-69.88045422488001
 30
0.0
 10
-118.9142866617424
 20
-70.01118093249701
 30
0.0
 10
-118.9733540707899
 20
-70.13813007325859
 30
0.0
 10
-119.0328793667277
 20
-70.26376278920619
 30
0.0
 10
-119.1462063724618
 20
-70.50346657708018
 30
0.0
 10
-119.2629675298792
 20
-70.73332579678275
 30
0.0
 10
-119.3821325934763
 20
-70.95488581656811
 30
0.0
 10
-119.4410855308026
 20
-71.0644352554404
 30
0.0
 10
-119.4992371660655
 20
-71.17633136463208
 30
0.0
 10
-119.5595637640569
 20
-71.28153087803045
 30
0.0
 10
-119.7062020411742
 20
-71.53726070711711
 30
0.0
 10
-119.8570757720286
 20
-71.77856709911499
 30
0.0
 10
-120.0111547111359
 20
-72.00894144157024
 30
0.0
 10
-120.0459541149148
 20
-72.06114054723814
 30
0.0
 10
-120.0792653862887
 20
-72.11934941836327
 30
0.0
 10
-120.1145226769599
 20
-72.17028933507913
 30
0.0
 10
-120.304660208802
 20
-72.44490699845761
 30
0.0
 10
-120.5004068550553
 20
-72.6992059310076
 30
0.0
 10
-120.7002744833459
 20
-72.93742158648678
 30
0.0
 10
-120.7572814013742
 20
-73.00530331819931
 30
0.0
 10
-120.8161198669801
 20
-73.06522926516973
 30
0.0
 10
-120.873813615351
 20
-73.13019196794694
 30
0.0
 10
-121.0206808358998
 20
-73.29560360762498
 30
0.0
 10
-121.168921717133
 20
-73.45460483081129
 30
0.0
 10
-121.3201388631583
 20
-73.60164375895344
 30
0.0
 10
-121.3939731244747
 20
-73.67347476510861
 30
0.0
 10
-121.4686086878435
 20
-73.7412420250991
 30
0.0
 10
-121.5434731946532
 20
-73.8087803416468
 30
0.0
 10
-121.6863339049051
 20
-73.93778997342173
 30
0.0
 10
-121.8307972192841
 20
-74.05890105631074
 30
0.0
 10
-121.976863137779
 20
-74.1725142413445
 30
0.0
 10
-122.0510408142561
 20
-74.23020798971693
 30
0.0
 10
-122.1249895472824
 20
-74.28927539876278
 30
0.0
 10
-122.1999685258231
 20
-74.34307710855456
 30
0.0
 10
-122.3688143171891
 20
-74.46424542730621
 30
0.0
 10
-122.539606127843
 20
-74.57385210204048
 30
0.0
 10
-122.711542655722
 20
-74.67567469961089
 30
0.0
 10
-122.7625970441666
 20
-74.7058379986095
 30
0.0
 10
-122.812735658817
 20
-74.74120976100341
 30
0.0
 10
-122.8640189907025
 20
-74.76971322001934
 30
0.0
 10
-123.0872388504766
 20
-74.89397227529289
 30
0.0
 10
-123.3128626164202
 20
-75.0022052893512
 30
0.0
 10
-123.5403179299415
 20
-75.09561421528236
 30
0.0
 10
-123.5977827348711
 20
-75.1192526260749
 30
0.0
 10
-123.6559343701343
 20
-75.13630891279615
 30
0.0
 10
-123.7136281185054
 20
-75.15800130429676
 30
0.0
 10
-123.8860225332764
 20
-75.2228495353532
 30
0.0
 10
-124.0591037783886
 20
-75.28145905750514
 30
0.0
 10
-124.2328718538452
 20
-75.32953718114959
 30
0.0
 10
-124.3130020599163
 20
-75.35168745954026
 30
0.0
 10
-124.3931322659874
 20
-75.36983122762888
 30
0.0
 10
-124.4734914154983
 20
-75.38849011847405
 30
0.0
 10
-124.630203204226
 20
-75.42489212637653
 30
0.0
 10
-124.7873728798562
 20
-75.45516989709719
 30
0.0
 10
-124.9446570271959
 20
-75.47869383616448
 30
0.0
 10
-125.0250161767178
 20
-75.4907133670751
 30
0.0
 10
-125.1051463827892
 20
-75.50307631315376
 30
0.0
 10
-125.1855055323005
 20
-75.51177616410162
 30
0.0
 10
-125.3588157208648
 20
-75.53054952666433
 30
0.0
 10
-125.5321259094188
 20
-75.54022238725494
 30
0.0
 10
-125.7054360979834
 20
-75.5441144258356
 30
0.0
 10
-125.7639311484069
 20
-75.54543085065024
 30
0.0
 10
-125.8225406705627
 20
-75.55063931404489
 30
0.0
 10
-125.8810357209964
 20
-75.55029589887301
 30
0.0
 10
-126.1531350064663
 20
-75.54875053061557
 30
0.0
 10
-126.4245474616034
 20
-75.5267147239463
 30
0.0
 10
-126.6944717843447
 20
-75.49059889535307
 30
0.0
 10
-126.7584614774705
 20
-75.48201351613045
 30
0.0
 10
-126.8222222271657
 20
-75.47079528728177
 30
0.0
 10
-126.8860974485717
 20
-75.46032112462921
 30
0.0
 10
-127.1287775012443
 20
-75.420656672624
 30
0.0
 10
-127.3698549497994
 20
-75.36948781246469
 30
0.0
 10
-127.6086429638855
 20
-75.30366657176227
 30
0.0
 10
-127.6429844807731
 20
-75.29422265461831
 30
0.0
 10
-127.677783884553
 20
-75.28769776640903
 30
0.0
 10
-127.711896458
 20
-75.27773872651235
 30
0.0
 10
-127.9768984966409
 20
-75.20047031351525
 30
0.0
 10
-128.2382374401573
 20
-75.10448577381487
 30
0.0
 10
-128.496256703711
 20
-74.99711129767793
 30
0.0
 10
-128.5578424906577
 20
-74.97146963173726
 30
0.0
 10
-128.6188559189922
 20
-74.94405365408868
 30
0.0
 10
-128.6798693473368
 20
-74.91675214816149
 30
0.0
 10
-128.9171692290271
 20
-74.81092304028583
 30
0.0
 10
-129.1514928459257
 20
-74.69530660009816
 30
0.0
 10
-129.3805507635634
 20
-74.56589631729515
 30
0.0
 10
-129.4040174667671
 20
-74.55261759742994
 30
0.0
 10
-129.4285144154855
 20
-74.54145660444068
 30
0.0
 10
-129.4518666469691
 20
-74.52789170526877
 30
0.0
 10
-129.6986676816674
 20
-74.38531717432579
 30
0.0
 10
-129.9386004129886
 20
-74.22614424355227
 30
0.0
 10
-130.1737253319404
 20
-74.05815699011141
 30
0.0
 10
-130.2307322499781
 20
-74.01740505673884
 30
0.0
 10
-130.2871668093943
 20
-73.97533669855099
 30
0.0
 10
-130.3434868970902
 20
-73.93309663277976
 30
0.0
 10
-130.5654475679094
 20
-73.76665474759699
 30
0.0
 10
-130.783172784971
 20
-73.59225707766824
 30
0.0
 10
-130.991969207647
 20
-73.40498133890942
 30
0.0
 10
-131.0042176820065
 20
-73.3941065252294
 30
0.0
 10
-131.0171529866979
 20
-73.38431919291676
 30
0.0
 10
-131.0292869893373
 20
-73.37332990751214
 30
0.0
 10
-131.2474700932906
 20
-73.17569447782537
 30
0.0
 10
-131.455007327012
 20
-72.96392179034881
 30
0.0
 10
-131.6565920311494
 20
-72.74556697880675
 30
0.0
 10
-131.7053569851248
 20
-72.69273827866093
 30
0.0
 10
-131.7534351087674
 20
-72.63916551231578
 30
0.0
 10
-131.801284288969
 20
-72.58513485908121
 30
0.0
 10
-131.9995493131328
 20
-72.36082751794516
 30
0.0
 10
-132.192090751144
 20
-72.13033870376851
 30
0.0
 10
-132.3708955824106
 20
-71.88777312281477
 30
0.0
 10
-136.8763881263263
 20
-65.77635677750847
 30
0.0
 10
-124.3906138880769
 20
-63.73979035435523
 30
0.0
 10
-127.8662043405476
 20
-56.42458937041339
 30
0.0
 10
-128.3971241916242
 20
-55.30625787297459
 30
0.0
 10
-128.9552883127704
 20
-53.98662785070796
 30
0.0
 10
-129.490787032774
 20
-52.51429255001767
 30
0.0
 10
-129.8478243366742
 20
-51.53269752564541
 30
0.0
 10
-130.1947881289644
 20
-50.48327800542325
 30
0.0
 10
-130.5170260290953
 20
-49.38040019058183
 30
0.0
 10
-130.6780877433001
 20
-48.8289326652282
 30
0.0
 10
-130.8330824561811
 20
-48.26412918414931
 30
0.0
 10
-130.9799496767392
 20
-47.68776405905433
 30
0.0
 10
-131.2737985895759
 20
-46.53503380886376
 30
0.0
 10
-131.5354809482543
 20
-45.33605698259605
 30
0.0
 10
-131.7504588439755
 20
-44.10525701734708
 30
0.0
 10
-132.4876567398279
 20
-46.49903245199256
 30
0.0
 10
-133.2862114791865
 20
-49.27995125368547
 30
0.0
 10
-133.3646246094107
 20
-50.33028654769033
 30
0.0
 10
-133.3737823472474
 20
-50.45368706503995
 30
0.0
 10
-133.3832835002552
 20
-50.59557476564622
 30
0.0
 10
-133.3933570118759
 20
-50.748737930967
 30
0.0
 10
-133.4027436931531
 20
-50.8896526219273
 30
0.0
 10
-133.4128172047734
 20
-51.04481904239558
 30
0.0
 10
-133.4238064901773
 20
-51.20645311521437
 30
0.0
 10
-133.4275840570324
 20
-51.26197190084759
 30
0.0
 10
-133.4321629259511
 20
-51.32321427263266
 30
0.0
 10
-133.4361694362569
 20
-51.38079354927985
 30
0.0
 10
-133.4446403437611
 20
-51.50087438666349
 30
0.0
 10
-133.453340194706
 20
-51.6231874226451
 30
0.0
 10
-133.4630702911544
 20
-51.75128128063732
 30
0.0
 10
-133.4686794055769
 20
-51.82419976815984
 30
0.0
 10
-133.4752042937833
 20
-51.90112476598891
 30
0.0
 10
-133.481271295108
 20
-51.97621821625064
 30
0.0
 10
-133.4911158632771
 20
-52.09767271430768
 30
0.0
 10
-133.5014183183486
 20
-52.22032916545797
 30
0.0
 10
-133.5126365471937
 20
-52.34659147588286
 30
0.0
 10
-133.5199627374627
 20
-52.42832428607207
 30
0.0
 10
-133.5284336449665
 20
-52.51228929486247
 30
0.0
 10
-133.5366756090198
 20
-52.59562470917558
 30
0.0
 10
-133.5485806682071
 20
-52.71822392446645
 30
0.0
 10
-133.560943614287
 20
-52.84168167767483
 30
0.0
 10
-133.574680221042
 20
-52.96679927086974
 30
0.0
 10
-133.5845247892112
 20
-53.05751811131671
 30
0.0
 10
-133.5955140746151
 20
-53.14898101795915
 30
0.0
 10
-133.6065033600197
 20
-53.24055839632299
 30
0.0
 10
-133.6210412688379
 20
-53.36298590402985
 30
0.0
 10
-133.6366094231596
 20
-53.48564235518013
 30
0.0
 10
-133.653207822986
 20
-53.60875669321984
 30
0.0
 10
-133.6655707690659
 20
-53.70136431709291
 30
0.0
 10
-133.678963960649
 20
-53.79385746924395
 30
0.0
 10
-133.6925860956842
 20
-53.88635062139498
 30
0.0
 10
-133.7109015713574
 20
-54.0092360159919
 30
0.0
 10
-133.7303617642652
 20
-54.13143458024891
 30
0.0
 10
-133.7508522026674
 20
-54.25328972934046
 30
0.0
 10
-133.7663058852693
 20
-54.34543946631961
 30
0.0
 10
-133.7823319264832
 20
-54.43707408054992
 30
0.0
 10
-133.7992737414812
 20
-54.52813633616171
 30
0.0
 10
-133.8214812557406
 20
-54.64856058871337
 30
0.0
 10
-133.8457492610075
 20
-54.76698158611498
 30
0.0
 10
-133.8707040966076
 20
-54.88483022490062
 30
0.0
 10
-133.8894774591726
 20
-54.9733168667464
 30
0.0
 10
-133.9082508217378
 20
-55.06163180101073
 30
0.0
 10
-133.9286267884296
 20
-55.14822965942656
 30
0.0
 10
-133.9559855302091
 20
-55.26493358098287
 30
0.0
 10
-133.9860915933499
 20
-55.37768822809847
 30
0.0
 10
-134.0165410716617
 20
-55.48998498832144
 30
0.0
 10
-134.03863411419
 20
-55.57188950609852
 30
0.0
 10
-134.0604982132782
 20
-55.65442361834968
 30
0.0
 10
-134.0843083316534
 20
-55.73352357891667
 30
0.0
 10
-134.1177340747567
 20
-55.84467562190965
 30
0.0
 10
-134.1548229129959
 20
-55.94936001255469
 30
0.0
 10
-134.1919117512338
 20
-56.05410163905978
 30
0.0
 10
-134.2173244737259
 20
-56.1258181734929
 30
0.0
 10
-134.2415924789932
 20
-56.19976690652467
 30
0.0
 10
-134.2686078056108
 20
-56.26804928926786
 30
0.0
 10
-134.3103899844887
 20
-56.37313433094419
 30
0.0
 10
-134.3567510322937
 20
-56.46848927617114
 30
0.0
 10
-134.402768664919
 20
-56.56441658000954
 30
0.0
 10
-134.4303563501487
 20
-56.62182414907272
 30
0.0
 10
-134.4558835443712
 20
-56.68369611533123
 30
0.0
 10
-134.4851883054484
 20
-56.73744058926039
 30
0.0
 10
-134.5412794497034
 20
-56.84069408337004
 30
0.0
 10
-134.6028652366498
 20
-56.93038267830842
 30
0.0
 10
-134.6651378539392
 20
-57.01875484843216
 30
0.0
 10
-134.6894058592065
 20
-57.05326807290534
 30
0.0
 10
-134.7110410148429
 20
-57.09436342144658
 30
0.0
 10
-134.7363392656248
 20
-57.12635826801252
 30
0.0
 10
-134.8263140398651
 20
-57.2402576323549
 30
0.0
 10
-134.9223558154297
 20
-57.33858884237915
 30
0.0
 10
-135.0253803660924
 20
-57.41808945397038
 30
0.0
 10
-135.0451839741614
 20
-57.43342866484956
 30
0.0
 10
-135.0683072622042
 20
-57.43972460961221
 30
0.0
 10
-135.0886832288859
 20
-57.45369015981477
 30
0.0
 10
-135.1738501907673
 20
-57.51178455921466
 30
0.0
 10
-135.2610776436666
 20
-57.56364024971452
 30
0.0
 10
-135.355402343384
 20
-57.5959785114485
 30
0.0
 10
-135.3967266353696
 20
-57.61017300509704
 30
0.0
 10
-135.4430876831655
 20
-57.60994406165041
 30
0.0
 10
-135.4863579944492
 20
-57.61881562017972
 30
0.0
 10
-135.5683197480866
 20
-57.63558572759492
 30
0.0
 10
-135.6501670299947
 20
-57.65327160879348
 30
0.0
 10
-135.7391115587408
 20
-57.64960851365562
 30
0.0
 10
-135.759601997143
 20
-57.6487499757349
 30
0.0
 10
-135.7811226810593
 20
-57.64491517301687
 30
0.0
 10
-135.8020710063632
 20
-57.64291191786231
 30
0.0
 10
-135.9291346188522
 20
-57.6308351510897
 30
0.0
 10
-136.0610060437002
 20
-57.60416323964045
 30
0.0
 10
-136.2024930932768
 20
-57.54755697263922
 30
0.0
 10
-138.6913372938354
 20
-56.55205363393088
 30
0.0
 10
-138.193843185863
 20
-48.09036110869913
 30
0.0
 10
-138.193843185863
 20
-48.09036110869913
 30
0.0
 10
-137.9440658863627
 20
-28.68087917902634
 30
0.0
 10
-126.5330666549678
 20
-20.36731306330409
 30
0.0
 10
-126.5298614467251
 20
-20.36513810056873
 30
0.0
 10
-124.5388547693104
 20
-17.44925713750692
 30
0.0
 10
-123.3941375397258
 20
-15.15272543151384
 30
0.0
 10
-122.7623681007155
 20
-13.36977111057389
 30
0.0
 10
-123.6829496967522
 20
-13.1209668207246
 30
0.0
 10
-124.5988379521412
 20
-12.81086292323084
 30
0.0
 10
-125.507171073819
 20
-12.435624615372
 30
0.0
 10
-126.4153897237668
 20
-12.06044354337579
 30
0.0
 10
-127.3160532400047
 20
-11.62007082515509
 30
0.0
 10
-128.2062998294498
 20
-11.11095783729473
 30
0.0
 10
-135.5079931500853
 20
-6.932797185173255
 30
0.0
 10
-142.5208743136937
 20
-1.71717930787827
 30
0.0
 10
-146.3133224953041
 20
6.057511172018855
 30
0.0
 10
-150.7378835310958
 20
15.12762090477413
 30
0.0
 10
-149.23097777007
 20
25.5193639149442
 30
0.0
 10
-143.1527582244248
 20
33.54016859919936
 30
0.0
 10
-137.0672124885
 20
41.57093232335438
 30
0.0
 10
-127.2047867252884
 20
45.80003289219558
 30
0.0
 10
-117.2791725710037
 20
46.04866547446149
 30
0.0
 10
-117.2791725710037
 20
46.04866547446149
 30
0.0
 10
-117.2791725710037
 20
46.07287624386612
 30
0.0
 10
-117.2791725710037
 20
46.07287624386612
 30
0.0
 10
-117.122804197447
 20
46.07287624386612
 30
0.0
 10
-116.9668937107723
 20
46.06285996810684
 30
0.0
 10
-116.8112121675491
 20
46.06074224123025
 30
0.0
 10
-116.6545003788215
 20
46.06285996810684
 30
0.0
 10
-116.4981320052548
 20
46.07287624386612
 30
0.0
 10
-116.3421070468706
 20
46.07287624386612
 30
0.0
 10
-116.3421070468706
 20
46.07287624386612
 30
0.0
 10
-116.3421070468706
 20
46.04866547446149
 30
0.0
 10
-116.3421070468706
 20
46.04866547446149
 30
0.0
 10
-110.9307997591763
 20
45.91313095447664
 30
0.0
 10
-105.5430736464064
 20
44.58525896815863
 30
0.0
 10
-100.7710909314333
 20
42.11232633708674
 30
0.0
 10
-96.79033676555935
 20
40.04943141765227
 30
0.0
 10
-93.23667659803605
 20
37.19256062777691
 30
0.0
 10
-90.46897928034061
 20
33.54016859919936
 30
0.0
  0
SPLINE
  5
7E
330
79
100
AcDbEntity
  8
Layer 1
100
AcDbSpline
210
0.0
220
0.0
230
1.0
 70
     9
 71
     3
 72
    38
 73
    34
 74
     0
 42
0.0000000001
 43
0.0000000001
 40
0.0
 40
0.0
 40
0.0
 40
0.0
 40
1.0
 40
1.0
 40
1.0
 40
2.0
 40
2.0
 40
2.0
 40
3.0
 40
3.0
 40
3.0
 40
4.0
 40
4.0
 40
4.0
 40
5.0
 40
5.0
 40
5.0
 40
6.0
 40
6.0
 40
6.0
 40
7.0
 40
7.0
 40
7.0
 40
8.0
 40
8.0
 40
8.0
 40
9.0
 40
9.0
 40
9.0
 40
10.0
 40
10.0
 40
10.0
 40
11.0
 40
11.0
 40
11.0
 40
11.0
 10
-93.58558640961334
 20
-35.18533418511142
 30
0.0
 10
-95.46692917642895
 20
-28.86260303922247
 30
0.0
 10
-98.38904884839273
 20
-24.31567173158883
 30
0.0
 10
-100.7710909314333
 20
-21.42451666068692
 30
0.0
 10
-100.7710909314333
 20
-21.42451666068692
 30
0.0
 10
-100.7710909314333
 20
-12.71464944008317
 30
0.0
 10
-100.7710909314333
 20
-12.71464944008317
 30
0.0
 10
-94.63895520427206
 20
-8.929641920459305
 30
0.0
 10
-87.86291603547292
 20
-3.634294488121962
 30
0.0
 10
-83.93710829660824
 20
4.412895928273189
 30
0.0
 10
-79.04561710286642
 20
14.43918796289963
 30
0.0
 10
-80.40302279371376
 20
26.46827726240995
 30
0.0
 10
-87.47943576355629
 20
35.80579293999706
 30
0.0
 10
-90.86985925414621
 20
40.28003470355096
 30
0.0
 10
-95.47677374460873
 20
43.83878886274685
 30
0.0
 10
-100.7710909314333
 20
46.25465733992424
 30
0.0
 10
-100.7710909314333
 20
46.25465733992424
 30
0.0
 10
-100.7710909314333
 20
87.73434469185323
 30
0.0
 10
-100.7710909314333
 20
87.73434469185323
 30
0.0
 10
-100.7710909314333
 20
87.73434469185323
 30
0.0
 10
-156.7384912485796
 20
87.73434469185323
 30
0.0
 10
-156.7384912485796
 20
87.73434469185323
 30
0.0
 10
-156.7384912485796
 20
87.73434469185323
 30
0.0
 10
-156.7384912485796
 20
-81.1287891379488
 30
0.0
 10
-156.7384912485796
 20
-81.1287891379488
 30
0.0
 10
-156.7384912485796
 20
-81.1287891379488
 30
0.0
 10
-36.56493176952935
 20
-81.1287891379488
 30
0.0
 10
-36.56493176952935
 20
-81.1287891379488
 30
0.0
 10
-36.56493176952935
 20
-81.1287891379488
 30
0.0
 10
-36.56493176952935
 20
-35.18533418511142
 30
0.0
 10
-36.56493176952935
 20
-35.18533418511142
 30
0.0
 10
-36.56493176952935
 20
-35.18533418511142
 30
0.0
 10
-93.58558640961334
 20
-35.18533418511142
 30
0.0
 10
-93.58558640961334
 20
-35.18533418511142
 30
0.0
  0
HATCH
  5
7F
330
79
100
AcDbEntity
  8
Layer 1
 62
     7
440
 33554687
100
AcDbHatch
 10
0.0
 20
0.0
 30
0.0
210
0.0
220
0.0
230
1.0
  2
SOLID
 70
     1
 71
     1
 91
        2
 92
        1
 93
        1
 72
     4
 94
        3
 73
     0
 74
     0
 95
      584
 96
      580
 40
0.0
 40
0.0
 40
0.0
 40
0.0
 40
1.0
 40
1.0
 40
1.0
 40
2.0
 40
2.0
 40
2.0
 40
3.0
 40
3.0
 40
3.0
 40
4.0
 40
4.0
 40
4.0
 40
5.0
 40
5.0
 40
5.0
 40
6.0
 40
6.0
 40
6.0
 40
7.0
 40
7.0
 40
7.0
 40
8.0
 40
8.0
 40
8.0
 40
9.0
 40
9.0
 40
9.0
 40
10.0
 40
10.0
 40
10.0
 40
11.0
 40
11.0
 40
11.0
 40
12.0
 40
12.0
 40
12.0
 40
13.0
 40
13.0
 40
13.0
 40
14.0
 40
14.0
 40
14.0
 40
15.0
 40
15.0
 40
15.0
 40
16.0
 40
16.0
 40
16.0
 40
17.0
 40
17.0
 40
17.0
 40
18.0
 40
18.0
 40
18.0
 40
19.0
 40
19.0
 40
19.0
 40
20.0
 40
20.0
 40
20.0
 40
21.0
 40
21.0
 40
21.0
 40
22.0
 40
22.0
 40
22.0
 40
23.0
 40
23.0
 40
23.0
 40
24.0
 40
24.0
 40
24.0
 40
25.0
 40
25.0
 40
25.0
 40
26.0
 40
26.0
 40
26.0
 40
27.0
 40
27.0
 40
27.0
 40
28.0
 40
28.0
 40
28.0
 40
29.0
 40
29.0
 40
29.0
 40
30.0
 40
30.0
 40
30.0
 40
31.0
 40
31.0
 40
31.0
 40
32.0
 40
32.0
 40
32.0
 40
33.0
 40
33.0
 40
33.0
 40
34.0
 40
34.0
 40
34.0
 40
35.0
 40
35.0
 40
35.0
 40
36.0
 40
36.0
 40
36.0
 40
37.0
 40
37.0
 40
37.0
 40
38.0
 40
38.0
 40
38.0
 40
39.0
 40
39.0
 40
39.0
 40
40.0
 40
40.0
 40
40.0
 40
41.0
 40
41.0
 40
41.0
 40
42.0
 40
42.0
 40
42.0
 40
43.0
 40
43.0
 40
43.0
 40
44.0
 40
44.0
 40
44.0
 40
45.0
 40
45.0
 40
45.0
 40
46.0
 40
46.0
 40
46.0
 40
47.0
 40
47.0
 40
47.0
 40
48.0
 40
48.0
 40
48.0
 40
49.0
 40
49.0
 40
49.0
 40
50.0
 40
50.0
 40
50.0
 40
51.0
 40
51.0
 40
51.0
 40
52.0
 40
52.0
 40
52.0
 40
53.0
 40
53.0
 40
53.0
 40
54.0
 40
54.0
 40
54.0
 40
55.0
 40
55.0
 40
55.0
 40
56.0
 40
56.0
 40
56.0
 40
57.0
 40
57.0
 40
57.0
 40
58.0
 40
58.0
 40
58.0
 40
59.0
 40
59.0
 40
59.0
 40
60.0
 40
60.0
 40
60.0
 40
61.0
 40
61.0
 40
61.0
 40
62.0
 40
62.0
 40
62.0
 40
63.0
 40
63.0
 40
63.0
 40
64.0
 40
64.0
 40
64.0
 40
65.0
 40
65.0
 40
65.0
 40
66.0
 40
66.0
 40
66.0
 40
67.0
 40
67.0
 40
67.0
 40
68.0
 40
68.0
 40
68.0
 40
69.0
 40
69.0
 40
69.0
 40
70.0
 40
70.0
 40
70.0
 40
71.0
 40
71.0
 40
71.0
 40
72.0
 40
72.0
 40
72.0
 40
73.0
 40
73.0
 40
73.0
 40
74.0
 40
74.0
 40
74.0
 40
75.0
 40
75.0
 40
75.0
 40
76.0
 40
76.0
 40
76.0
 40
77.0
 40
77.0
 40
77.0
 40
78.0
 40
78.0
 40
78.0
 40
79.0
 40
79.0
 40
79.0
 40
80.0
 40
80.0
 40
80.0
 40
81.0
 40
81.0
 40
81.0
 40
82.0
 40
82.0
 40
82.0
 40
83.0
 40
83.0
 40
83.0
 40
84.0
 40
84.0
 40
84.0
 40
85.0
 40
85.0
 40
85.0
 40
86.0
 40
86.0
 40
86.0
 40
87.0
 40
87.0
 40
87.0
 40
88.0
 40
88.0
 40
88.0
 40
89.0
 40
89.0
 40
89.0
 40
90.0
 40
90.0
 40
90.0
 40
91.0
 40
91.0
 40
91.0
 40
92.0
 40
92.0
 40
92.0
 40
93.0
 40
93.0
 40
93.0
 40
94.0
 40
94.0
 40
94.0
 40
95.0
 40
95.0
 40
95.0
 40
96.0
 40
96.0
 40
96.0
 40
97.0
 40
97.0
 40
97.0
 40
98.0
 40
98.0
 40
98.0
 40
99.0
 40
99.0
 40
99.0
 40
100.0
 40
100.0
 40
100.0
 40
101.0
 40
101.0
 40
101.0
 40
102.0
 40
102.0
 40
102.0
 40
103.0
 40
103.0
 40
103.0
 40
104.0
 40
104.0
 40
104.0
 40
105.0
 40
105.0
 40
105.0
 40
106.0
 40
106.0
 40
106.0
 40
107.0
 40
107.0
 40
107.0
 40
108.0
 40
108.0
 40
108.0
 40
109.0
 40
109.0
 40
109.0
 40
110.0
 40
110.0
 40
110.0
 40
111.0
 40
111.0
 40
111.0
 40
112.0
 40
112.0
 40
112.0
 40
113.0
 40
113.0
 40
113.0
 40
114.0
 40
114.0
 40
114.0
 40
115.0
 40
115.0
 40
115.0
 40
116.0
 40
116.0
 40
116.0
 40
117.0
 40
117.0
 40
117.0
 40
118.0
 40
118.0
 40
118.0
 40
119.0
 40
119.0
 40
119.0
 40
120.0
 40
120.0
 40
120.0
 40
121.0
 40
121.0
 40
121.0
 40
122.0
 40
122.0
 40
122.0
 40
123.0
 40
123.0
 40
123.0
 40
124.0
 40
124.0
 40
124.0
 40
125.0
 40
125.0
 40
125.0
 40
126.0
 40
126.0
 40
126.0
 40
127.0
 40
127.0
 40
127.0
 40
128.0
 40
128.0
 40
128.0
 40
129.0
 40
129.0
 40
129.0
 40
130.0
 40
130.0
 40
130.0
 40
131.0
 40
131.0
 40
131.0
 40
132.0
 40
132.0
 40
132.0
 40
133.0
 40
133.0
 40
133.0
 40
134.0
 40
134.0
 40
134.0
 40
135.0
 40
135.0
 40
135.0
 40
136.0
 40
136.0
 40
136.0
 40
137.0
 40
137.0
 40
137.0
 40
138.0
 40
138.0
 40
138.0
 40
139.0
 40
139.0
 40
139.0
 40
140.0
 40
140.0
 40
140.0
 40
141.0
 40
141.0
 40
141.0
 40
142.0
 40
142.0
 40
142.0
 40
143.0
 40
143.0
 40
143.0
 40
144.0
 40
144.0
 40
144.0
 40
145.0
 40
145.0
 40
145.0
 40
146.0
 40
146.0
 40
146.0
 40
147.0
 40
147.0
 40
147.0
 40
148.0
 40
148.0
 40
148.0
 40
149.0
 40
149.0
 40
149.0
 40
150.0
 40
150.0
 40
150.0
 40
151.0
 40
151.0
 40
151.0
 40
152.0
 40
152.0
 40
152.0
 40
153.0
 40
153.0
 40
153.0
 40
154.0
 40
154.0
 40
154.0
 40
155.0
 40
155.0
 40
155.0
 40
156.0
 40
156.0
 40
156.0
 40
157.0
 40
157.0
 40
157.0
 40
158.0
 40
158.0
 40
158.0
 40
159.0
 40
159.0
 40
159.0
 40
160.0
 40
160.0
 40
160.0
 40
161.0
 40
161.0
 40
161.0
 40
162.0
 40
162.0
 40
162.0
 40
163.0
 40
163.0
 40
163.0
 40
164.0
 40
164.0
 40
164.0
 40
165.0
 40
165.0
 40
165.0
 40
166.0
 40
166.0
 40
166.0
 40
167.0
 40
167.0
 40
167.0
 40
168.0
 40
168.0
 40
168.0
 40
169.0
 40
169.0
 40
169.0
 40
170.0
 40
170.0
 40
170.0
 40
171.0
 40
171.0
 40
171.0
 40
172.0
 40
172.0
 40
172.0
 40
173.0
 40
173.0
 40
173.0
 40
174.0
 40
174.0
 40
174.0
 40
175.0
 40
175.0
 40
175.0
 40
176.0
 40
176.0
 40
176.0
 40
177.0
 40
177.0
 40
177.0
 40
178.0
 40
178.0
 40
178.0
 40
179.0
 40
179.0
 40
179.0
 40
180.0
 40
180.0
 40
180.0
 40
181.0
 40
181.0
 40
181.0
 40
182.0
 40
182.0
 40
182.0
 40
183.0
 40
183.0
 40
183.0
 40
184.0
 40
184.0
 40
184.0
 40
185.0
 40
185.0
 40
185.0
 40
186.0
 40
186.0
 40
186.0
 40
187.0
 40
187.0
 40
187.0
 40
188.0
 40
188.0
 40
188.0
 40
189.0
 40
189.0
 40
189.0
 40
190.0
 40
190.0
 40
190.0
 40
191.0
 40
191.0
 40
191.0
 40
192.0
 40
192.0
 40
192.0
 40
193.0
 40
193.0
 40
193.0
 40
193.0
 10
-90.46897928034061
 20
33.54016859919936
 10
-84.39030184780374
 20
25.5193639149442
 10
-82.88339608677796
 20
15.12762090477413
 10
-87.30841500946192
 20
6.057511172018855
 10
-90.28445086293181
 20
-0.043087595470055
 10
-95.24588427940365
 20
-4.564033821994354
 10
-100.7710909314333
 20
-8.248477932996621
 10
-102.2872689020264
 20
-9.259549426027568
 10
-103.8433975039189
 20
-10.21126733070276
 10
-105.4157810904765
 20
-11.11095783729473
 10
-107.1473948436728
 20
-12.10148165605505
 10
-108.9186158130069
 20
-12.83049482371811
 10
-110.708266729745
 20
-13.32741657308063
 10
-110.2213040202747
 20
-14.71349743052377
 10
-109.4206887899082
 20
-16.41391763921257
 10
-108.151311854014
 20
-18.47675532278441
 10
-107.7282243659589
 20
-19.16438696259376
 10
-107.2530522439661
 20
-19.89231264888946
 10
-106.720071901871
 20
-20.66224945750654
 10
-106.5978161017514
 20
-20.76355693232361
 10
-106.4476292012298
 20
-20.89165079031519
 10
-106.2734032388819
 20
-21.04704615423074
 10
-105.1165520066685
 20
-22.07877979325691
 10
-102.9008373370845
 20
-24.33398720726148
 10
-100.7710909314333
 20
-27.91300286141938
 10
-100.6555889629709
 20
-28.10703243183476
 10
-100.5392856924455
 20
-28.2839484796669
 10
-100.424585026046
 20
-28.48593383482761
 10
-99.35816645496522
 20
-30.36246878928596
 10
-98.34108519647095
 20
-32.6041113041231
 10
-97.4970851831004
 20
-35.18533418511142
 10
-96.3223763621054
 20
-38.77780026671919
 10
-95.49360108788624
 20
-43.04851130685432
 10
-95.42892456440641
 20
-48.09036110869913
 10
-95.42892456440641
 20
-48.09036110869913
 10
-94.93062915437112
 20
-56.55205363393088
 10
-97.41993124183144
 20
-57.54755697263922
 10
-97.5613038196773
 20
-57.60416323964045
 10
-97.69328971625627
 20
-57.63089238695233
 10
-97.8203533287351
 20
-57.64291191786231
 10
-97.84118718231882
 20
-57.64485793715425
 10
-97.86270786623445
 20
-57.6487499757349
 10
-97.88319830463699
 20
-57.64960851365562
 10
-97.9719138899323
 20
-57.65327160879348
 10
-98.05364670013016
 20
-57.6356429634537
 10
-98.13560845376827
 20
-57.6188728560417
 10
-98.1788787650407
 20
-57.61005853337565
 10
-98.22535428456703
 20
-57.61023024095966
 10
-98.26690751999414
 20
-57.5959785114485
 10
-98.35997303076659
 20
-57.56404090074517
 10
-98.4461702381521
 20
-57.51252862541399
 10
-98.53030695452908
 20
-57.45534999979745
 10
-98.55171316671464
 20
-57.44075485511759
 10
-98.57609564371259
 20
-57.43405825932365
 10
-98.59692949728575
 20
-57.41786051052695
 10
-98.69972510450821
 20
-57.33853160651653
 10
-98.79553793662104
 20
-57.24037210408014
 10
-98.88528376742044
 20
-57.12687339076457
 10
-98.9129859243706
 20
-57.09184504353935
 10
-98.93668157102638
 20
-57.04708659986408
 10
-98.96312453903156
 20
-57.00913922370417
 10
-99.02276430669081
 20
-56.92374331837773
 10
-99.08217513090853
 20
-56.83806123374139
 10
-99.13609131242525
 20
-56.73898595752167
 10
-99.16745656451102
 20
-56.68134944501185
 10
-99.19492977802093
 20
-56.6151847891414
 10
-99.22446348254867
 20
-56.55331282288289
 10
-99.26819168071439
 20
-56.46162097279317
 10
-99.31237776578107
 20
-56.37101660407145
 10
-99.35221392537094
 20
-56.27102555406516
 10
-99.38117527127694
 20
-56.19810706654199
 10
-99.40716035239013
 20
-56.11917881356223
 10
-99.43417567900901
 20
-56.04236828745841
 10
-99.46931849794955
 20
-55.94254894503613
 10
-99.50469026035179
 20
-55.84318748951099
 10
-99.53651339932859
 20
-55.73758732508197
 10
-99.56192612183064
 20
-55.65367955215034
 10
-99.58504940986374
 20
-55.56622315581315
 10
-99.60840164134637
 20
-55.47922464636283
 10
-99.63724851553259
 20
-55.37225082125718
 10
-99.66598091799774
 20
-55.26504805270747
 10
-99.69208047083233
 20
-55.15412495316176
 10
-99.71371562646872
 20
-55.06220415962604
 10
-99.73374817798919
 20
-54.96839458266038
 10
-99.75355178605825
 20
-54.87424159052667
 10
-99.77724743271277
 20
-54.76205930202894
 10
-99.80048519247624
 20
-54.64947636249736
 10
-99.82166246122128
 20
-54.53494740367705
 10
-99.83952005000224
 20
-54.43896286397922
 10
-99.85634739327977
 20
-54.34234872980091
 10
-99.8726023779349
 20
-54.2452194728699
 10
-99.89229151428384
 20
-54.12811490028678
 10
-99.91106487684911
 20
-54.01066691252793
 10
-99.92857905045948
 20
-53.89264656615763
 10
-99.94288801583682
 20
-53.7964330830106
 10
-99.9567390943122
 20
-53.70039130745016
 10
-99.96967439900361
 20
-53.60406335258109
 10
-99.98581491193831
 20
-53.48444040208754
 10
-100.0008107076488
 20
-53.36521810262783
 10
-100.0150052012954
 20
-53.24616751074958
 10
-100.0264523735911
 20
-53.15092703724787
 10
-100.037899545887
 20
-53.05574379960879
 10
-100.0482020009585
 20
-52.96141909989043
 10
-100.0610228339301
 20
-52.84357046110478
 10
-100.0726989496663
 20
-52.72726719057978
 10
-100.0840316502415
 20
-52.61165075039146
 10
-100.0930749163577
 20
-52.51955824927108
 10
-100.1024615976358
 20
-52.42700786125743
 10
-100.1104746182483
 20
-52.336804143567
 10
-100.1208915450296
 20
-52.22101599579467
 10
-100.1301637545966
 20
-52.10860476385032
 10
-100.1393214924335
 20
-51.99682312638003
 10
-100.1461897958105
 20
-51.91245746656218
 10
-100.1534015143498
 20
-51.82643196675782
 10
-100.159697459115
 20
-51.74487086414941
 10
-100.168855196952
 20
-51.62295847919846
 10
-100.1772116327251
 20
-51.50648350108943
 10
-100.1852246533375
 20
-51.39184007054772
 10
-100.1894601070842
 20
-51.33054046290005
 10
-100.1943823911738
 20
-51.26563499598546
 10
-100.1983889014797
 20
-51.20668205865715
 10
-100.209378186884
 20
-51.04424668378412
 10
-100.2194516985037
 20
-50.8885651405561
 10
-100.2288383797818
 20
-50.74707809098048
 10
-100.2389118914024
 20
-50.59448728427822
 10
-100.2482985726899
 20
-50.45328641400866
 10
-100.2574563105265
 20
-50.33028654769033
 10
-100.3322063456161
 20
-49.32905962283467
 10
-101.0612767491356
 20
-46.7551056962511
 10
-101.7679106949559
 20
-44.4432347793827
 10
-101.877002246943
 20
-45.04152123942169
 10
-101.9970830843244
 20
-45.63196638644447
 10
-102.1260927161009
 20
-46.2127959087354
 10
-102.3843409230951
 20
-47.37451218917924
 10
-102.678876666265
 20
-48.49788044243316
 10
-102.9963067540268
 20
-49.56945024104535
 10
-103.3136223700668
 20
-50.6410772755208
 10
-103.6538323306995
 20
-51.66084861949576
 10
-104.0029710857285
 20
-52.6153710813881
 10
-104.3523387841981
 20
-53.56989354327659
 10
-104.7106352770529
 20
-54.45910988721919
 10
-105.0645818444405
 20
-55.26962692162483
 10
-105.2415551281391
 20
-55.67485682089825
 10
-105.4173836946033
 20
-56.06039758382243
 10
-105.5902359962656
 20
-56.42458937041339
 10
-109.0653685618449
 20
-63.73979035435523
 10
-96.58005221047758
 20
-65.77635677750847
 10
-101.08485792407
 20
-71.88777312281477
 10
-101.2634338118858
 20
-72.13010976032125
 10
-101.4557463064559
 20
-72.36036963105189
 10
-101.6537823871692
 20
-72.5844480287445
 10
-101.7019749825324
 20
-72.63899380473176
 10
-101.750510993066
 20
-72.69302445797018
 10
-101.7998483056644
 20
-72.74642551673132
 10
-102.0008606511791
 20
-72.96432244137946
 10
-102.2080544697393
 20
-73.17580894954677
 10
-102.4257796868012
 20
-73.3730437282061
 10
-102.4386005197728
 20
-73.38471984394804
 10
-102.4524515982479
 20
-73.39502229901275
 10
-102.4653869029502
 20
-73.40664117889208
 10
-102.6732675518419
 20
-73.59305837973018
 10
-102.8898480516796
 20
-73.76659751173757
 10
-103.1107784769848
 20
-73.93229533071782
 10
-103.1677853950234
 20
-73.97510775510436
 10
-103.2250212565026
 20
-74.01769123604426
 10
-103.2828294765941
 20
-74.05901552803277
 10
-103.5171530934924
 20
-74.22637318699891
 10
-103.7561700510296
 20
-74.38508823087916
 10
-104.0021697836653
 20
-74.5272048749327
 10
-104.0274680344366
 20
-74.54185725547133
 10
-104.0537965307221
 20
-74.55393402224395
 10
-104.0790947814928
 20
-74.56824298761453
 10
-104.3059777363919
 20
-74.69627960974413
 10
-104.5380119188315
 20
-74.81080856856443
 10
-104.7729078943418
 20
-74.91566466679413
 10
-104.8354094550827
 20
-74.94353853133279
 10
-104.8976820723722
 20
-74.97164133932128
 10
-104.9606415199942
 20
-74.99785536387726
 10
-105.2178594814843
 20
-75.10477195312027
 10
-105.4782826512171
 20
-75.20047031351525
 10
-105.7423689160753
 20
-75.27750978306572
 10
-105.777511735026
 20
-75.28775500226778
 10
-105.8132269125893
 20
-75.29445159806174
 10
-105.8484842032602
 20
-75.30418169451497
 10
-106.0864709152937
 20
-75.36965952004486
 10
-106.3268615335063
 20
-75.420656672624
 10
-106.5686258123946
 20
-75.46026388876659
 10
-106.6326155055309
 20
-75.47073805141915
 10
-106.6964907269366
 20
-75.48201351613045
 10
-106.7607093635139
 20
-75.49059889535307
 10
-107.0305192145347
 20
-75.5267147239463
 10
-107.3018171979411
 20
-75.54875053061557
 10
-107.5740309551421
 20
-75.55029589887301
 10
-107.6324115338455
 20
-75.5505820781829
 10
-107.6911355277204
 20
-75.54543085065024
 10
-107.7496305781548
 20
-75.5441144258356
 10
-107.9229407667191
 20
-75.54022238725494
 10
-108.0962509552731
 20
-75.53054952666433
 10
-108.269561143837
 20
-75.51177616410162
 10
-108.3496913499084
 20
-75.50307631315376
 10
-108.4298215559792
 20
-75.4907133670751
 10
-108.50995176205
 20
-75.4787510720271
 10
-108.6679227397335
 20
-75.45516989709719
 10
-108.8254358305237
 20
-75.42477765465129
 10
-108.9827199778637
 20
-75.38820393916478
 10
-109.0621633536023
 20
-75.36971675590748
 10
-109.1416067293302
 20
-75.35168745954026
 10
-109.2209356333375
 20
-75.32982336045565
 10
-109.3963063129099
 20
-75.28134458578374
 10
-109.5708756904288
 20
-75.2222771767379
 10
-109.7446437658751
 20
-75.15679935120416
 10
-109.8009638535709
 20
-75.13562208245945
 10
-109.857627356438
 20
-75.11896644676948
 10
-109.9137185006824
 20
-75.09595763045424
 10
-110.1419751162671
 20
-75.0022052893512
 10
-110.3685146560043
 20
-74.8935143883996
 10
-110.5926502895522
 20
-74.7686829745146
 10
-110.6407284131941
 20
-74.74189659134331
 10
-110.6876618196124
 20
-74.70875702754419
 10
-110.7355109998041
 20
-74.68048251197489
 10
-110.9111106228274
 20
-74.57682836683779
 10
-111.0855655286162
 20
-74.46487502178349
 10
-111.2577309999457
 20
-74.34107385340323
 10
-111.3301916005765
 20
-74.28898921945673
 10
-111.4017364274227
 20
-74.23192506556222
 10
-111.4733957259997
 20
-74.17617733648171
 10
-111.6226668527372
 20
-74.06033195284677
 10
-111.7701064319078
 20
-73.9365307844665
 10
-111.9160578786726
 20
-73.80460212375691
 10
-111.9880605924211
 20
-73.73946771339504
 10
-112.0601777778798
 20
-73.67410435958269
 10
-112.131379189565
 20
-73.60496343891878
 10
-112.2868317893371
 20
-73.4538035287532
 10
-112.4395370677691
 20
-73.29045238008847
 10
-112.5906397420743
 20
-73.11983227701961
 10
-112.6442125084192
 20
-73.05921949971248
 10
-112.6989299919885
 20
-73.00364347821664
 10
-112.7518159280001
 20
-72.9405695588681
 10
-112.9535151038481
 20
-72.70046511996345
 10
-113.1510932976793
 20
-72.44393398881164
 10
-113.3427189619069
 20
-72.16679794752979
 10
-113.3736263271103
 20
-72.12226844729731
 10
-113.4025876730166
 20
-72.07150023816545
 10
-113.4331516230491
 20
-72.02599772829088
 10
-113.5916949593444
 20
-71.78967085624164
 10
-113.7468041439558
 20
-71.54092380225432
 10
-113.8976778748096
 20
-71.27775331117118
 10
-113.9558295100727
 20
-71.17610242118544
 10
-114.0121495977682
 20
-71.06804111471181
 10
-114.0690420440761
 20
-70.96232647856138
 10
-114.1908399573035
 20
-70.73635929743883
 10
-114.3098905491804
 20
-70.50163502951349
 10
-114.4257359328144
 20
-70.2566655423816
 10
-114.4833152094648
 20
-70.13498210087728
 10
-114.5404365992242
 20
-70.01215394214297
 10
-114.5964132717481
 20
-69.88571992413406
 10
-114.7135178443373
 20
-69.62117577237815
 10
-114.826158019729
 20
-69.34323842903435
 10
-114.9360508737687
 20
-69.05751700852988
 10
-114.9805803739966
 20
-68.94201504006682
 10
-115.0265980066313
 20
-68.83149259154855
 10
-115.0698683179047
 20
-68.71249923553228
 10
-115.2187960294713
 20
-68.30223258045143
 10
-115.3617712114536
 20
-67.87473793106208
 10
-115.4952452404181
 20
-67.4218305591755
 10
-115.5087529037325
 20
-67.37598463413224
 10
-115.5202000760285
 20
-67.32510195327513
 10
-115.5334787958917
 20
-67.27885537720123
 10
-115.6513846705339
 20
-66.86979067520977
 10
-115.7624222418081
 20
-66.44235326168305
 10
-115.8668204531464
 20
-65.99814574074111
 10
-115.9041382348258
 20
-65.83965964030365
 10
-115.9381363365419
 20
-65.67293157581481
 10
-115.9735080989444
 20
-65.50986660646383
 10
-116.0502041533207
 20
-65.15757987905762
 10
-116.1231226408426
 20
-64.79584923450743
 10
-116.1910043725651
 20
-64.42192735146709
 10
-116.2255748328935
 20
-64.23167534790711
 10
-116.2591150477175
 20
-64.03901943816833
 10
-116.2913960735975
 20
-63.84315832018627
 10
-116.3551568232825
 20
-63.45549983039
 10
-116.4130795151048
 20
-63.05370408280331
 10
-116.4674535835022
 20
-62.64349466358186
 10
-116.4920650039407
 20
-62.45736364205239
 10
-116.5188513871181
 20
-62.27586872530032
 10
-116.5415167882592
 20
-62.08498712726562
 10
-116.6131760868358
 20
-61.48046195832274
 10
-116.6775091951335
 20
-60.8586515592126
 10
-116.7281056966862
 20
-60.20599103076586
 10
-116.7788166699493
 20
-60.85888050265924
 10
-116.8430353065365
 20
-61.48091984521666
 10
-116.9146946051038
 20
-62.08567395760617
 10
-116.9373600062552
 20
-62.27644108391499
 10
-116.9640319177019
 20
-62.45776429308368
 10
-116.9886433381397
 20
-62.64378084289113
 10
-117.0427884630967
 20
-63.0530172524666
 10
-117.1004822114678
 20
-63.45383999040348
 10
-117.1640140177122
 20
-63.84063994228224
 10
-117.1965239870324
 20
-64.03861878713769
 10
-117.2304076170276
 20
-64.23333518788978
 10
-117.2654359642484
 20
-64.42553321073784
 10
-117.3327453373476
 20
-64.79624988553872
 10
-117.405091466258
 20
-65.15477532184497
 10
-117.480986218582
 20
-65.50425749203789
 10
-117.5170448113161
 20
-65.6703559620488
 10
-117.5516152716452
 20
-65.84017476305955
 10
-117.5896198836668
 20
-66.00152265656908
 10
-117.6924154908886
 20
-66.43920528930173
 10
-117.8018504580369
 20
-66.86000334289777
 10
-117.9179247851118
 20
-67.26345893046327
 10
-117.9328061091015
 20
-67.31554356440978
 10
-117.9458558855137
 20
-67.37283666175092
 10
-117.9610806246647
 20
-67.42440617294537
 10
-118.0939822950274
 20
-67.87525305381477
 10
-118.2361561749368
 20
-68.30068721219015
 10
-118.3842825844495
 20
-68.70929402729219
 10
-118.4291554998497
 20
-68.83298072394722
 10
-118.4771191517612
 20
-68.94785309793618
 10
-118.5232512561166
 20
-69.06776222773515
 10
-118.6313125625893
 20
-69.34787453381433
 10
-118.741663303521
 20
-69.62071788548809
 10
-118.8565929133713
 20
-69.88045422488001
 10
-118.9142866617424
 20
-70.01118093249701
 10
-118.9733540707899
 20
-70.13813007325859
 10
-119.0328793667277
 20
-70.26376278920619
 10
-119.1462063724618
 20
-70.50346657708018
 10
-119.2629675298792
 20
-70.73332579678275
 10
-119.3821325934763
 20
-70.95488581656811
 10
-119.4410855308026
 20
-71.0644352554404
 10
-119.4992371660655
 20
-71.17633136463208
 10
-119.5595637640569
 20
-71.28153087803045
 10
-119.7062020411742
 20
-71.53726070711711
 10
-119.8570757720286
 20
-71.77856709911499
 10
-120.0111547111359
 20
-72.00894144157024
 10
-120.0459541149148
 20
-72.06114054723814
 10
-120.0792653862887
 20
-72.11934941836327
 10
-120.1145226769599
 20
-72.17028933507913
 10
-120.304660208802
 20
-72.44490699845761
 10
-120.5004068550553
 20
-72.6992059310076
 10
-120.7002744833459
 20
-72.93742158648678
 10
-120.7572814013742
 20
-73.00530331819931
 10
-120.8161198669801
 20
-73.06522926516973
 10
-120.873813615351
 20
-73.13019196794694
 10
-121.0206808358998
 20
-73.29560360762498
 10
-121.168921717133
 20
-73.45460483081129
 10
-121.3201388631583
 20
-73.60164375895344
 10
-121.3939731244747
 20
-73.67347476510861
 10
-121.4686086878435
 20
-73.7412420250991
 10
-121.5434731946532
 20
-73.8087803416468
 10
-121.6863339049051
 20
-73.93778997342173
 10
-121.8307972192841
 20
-74.05890105631074
 10
-121.976863137779
 20
-74.1725142413445
 10
-122.0510408142561
 20
-74.23020798971693
 10
-122.1249895472824
 20
-74.28927539876278
 10
-122.1999685258231
 20
-74.34307710855456
 10
-122.3688143171891
 20
-74.46424542730621
 10
-122.539606127843
 20
-74.57385210204048
 10
-122.711542655722
 20
-74.67567469961089
 10
-122.7625970441666
 20
-74.7058379986095
 10
-122.812735658817
 20
-74.74120976100341
 10
-122.8640189907025
 20
-74.76971322001934
 10
-123.0872388504766
 20
-74.89397227529289
 10
-123.3128626164202
 20
-75.0022052893512
 10
-123.5403179299415
 20
-75.09561421528236
 10
-123.5977827348711
 20
-75.1192526260749
 10
-123.6559343701343
 20
-75.13630891279615
 10
-123.7136281185054
 20
-75.15800130429676
 10
-123.8860225332764
 20
-75.2228495353532
 10
-124.0591037783886
 20
-75.28145905750514
 10
-124.2328718538452
 20
-75.32953718114959
 10
-124.3130020599163
 20
-75.35168745954026
 10
-124.3931322659874
 20
-75.36983122762888
 10
-124.4734914154983
 20
-75.38849011847405
 10
-124.630203204226
 20
-75.42489212637653
 10
-124.7873728798562
 20
-75.45516989709719
 10
-124.9446570271959
 20
-75.47869383616448
 10
-125.0250161767178
 20
-75.4907133670751
 10
-125.1051463827892
 20
-75.50307631315376
 10
-125.1855055323005
 20
-75.51177616410162
 10
-125.3588157208648
 20
-75.53054952666433
 10
-125.5321259094188
 20
-75.54022238725494
 10
-125.7054360979834
 20
-75.5441144258356
 10
-125.7639311484069
 20
-75.54543085065024
 10
-125.8225406705627
 20
-75.55063931404489
 10
-125.8810357209964
 20
-75.55029589887301
 10
-126.1531350064663
 20
-75.54875053061557
 10
-126.4245474616034
 20
-75.5267147239463
 10
-126.6944717843447
 20
-75.49059889535307
 10
-126.7584614774705
 20
-75.48201351613045
 10
-126.8222222271657
 20
-75.47079528728177
 10
-126.8860974485717
 20
-75.46032112462921
 10
-127.1287775012443
 20
-75.420656672624
 10
-127.3698549497994
 20
-75.36948781246469
 10
-127.6086429638855
 20
-75.30366657176227
 10
-127.6429844807731
 20
-75.29422265461831
 10
-127.677783884553
 20
-75.28769776640903
 10
-127.711896458
 20
-75.27773872651235
 10
-127.9768984966409
 20
-75.20047031351525
 10
-128.2382374401573
 20
-75.10448577381487
 10
-128.496256703711
 20
-74.99711129767793
 10
-128.5578424906577
 20
-74.97146963173726
 10
-128.6188559189922
 20
-74.94405365408868
 10
-128.6798693473368
 20
-74.91675214816149
 10
-128.9171692290271
 20
-74.81092304028583
 10
-129.1514928459257
 20
-74.69530660009816
 10
-129.3805507635634
 20
-74.56589631729515
 10
-129.4040174667671
 20
-74.55261759742994
 10
-129.4285144154855
 20
-74.54145660444068
 10
-129.4518666469691
 20
-74.52789170526877
 10
-129.6986676816674
 20
-74.38531717432579
 10
-129.9386004129886
 20
-74.22614424355227
 10
-130.1737253319404
 20
-74.05815699011141
 10
-130.2307322499781
 20
-74.01740505673884
 10
-130.2871668093943
 20
-73.97533669855099
 10
-130.3434868970902
 20
-73.93309663277976
 10
-130.5654475679094
 20
-73.76665474759699
 10
-130.783172784971
 20
-73.59225707766824
 10
-130.991969207647
 20
-73.40498133890942
 10
-131.0042176820065
 20
-73.3941065252294
 10
-131.0171529866979
 20
-73.38431919291676
 10
-131.0292869893373
 20
-73.37332990751214
 10
-131.2474700932906
 20
-73.17569447782537
 10
-131.455007327012
 20
-72.96392179034881
 10
-131.6565920311494
 20
-72.74556697880675
 10
-131.7053569851248
 20
-72.69273827866093
 10
-131.7534351087674
 20
-72.63916551231578
 10
-131.801284288969
 20
-72.58513485908121
 10
-131.9995493131328
 20
-72.36082751794516
 10
-132.192090751144
 20
-72.13033870376851
 10
-132.3708955824106
 20
-71.88777312281477
 10
-136.8763881263263
 20
-65.77635677750847
 10
-124.3906138880769
 20
-63.73979035435523
 10
-127.8662043405476
 20
-56.42458937041339
 10
-128.3971241916242
 20
-55.30625787297459
 10
-128.9552883127704
 20
-53.98662785070796
 10
-129.490787032774
 20
-52.51429255001767
 10
-129.8478243366742
 20
-51.53269752564541
 10
-130.1947881289644
 20
-50.48327800542325
 10
-130.5170260290953
 20
-49.38040019058183
 10
-130.6780877433001
 20
-48.8289326652282
 10
-130.8330824561811
 20
-48.26412918414931
 10
-130.9799496767392
 20
-47.68776405905433
 10
-131.2737985895759
 20
-46.53503380886376
 10
-131.5354809482543
 20
-45.33605698259605
 10
-131.7504588439755
 20
-44.10525701734708
 10
-132.4876567398279
 20
-46.49903245199256
 10
-133.2862114791865
 20
-49.27995125368547
 10
-133.3646246094107
 20
-50.33028654769033
 10
-133.3737823472474
 20
-50.45368706503995
 10
-133.3832835002552
 20
-50.59557476564622
 10
-133.3933570118759
 20
-50.748737930967
 10
-133.4027436931531
 20
-50.8896526219273
 10
-133.4128172047734
 20
-51.04481904239558
 10
-133.4238064901773
 20
-51.20645311521437
 10
-133.4275840570324
 20
-51.26197190084759
 10
-133.4321629259511
 20
-51.32321427263266
 10
-133.4361694362569
 20
-51.38079354927985
 10
-133.4446403437611
 20
-51.50087438666349
 10
-133.453340194706
 20
-51.6231874226451
 10
-133.4630702911544
 20
-51.75128128063732
 10
-133.4686794055769
 20
-51.82419976815984
 10
-133.4752042937833
 20
-51.90112476598891
 10
-133.481271295108
 20
-51.97621821625064
 10
-133.4911158632771
 20
-52.09767271430768
 10
-133.5014183183486
 20
-52.22032916545797
 10
-133.5126365471937
 20
-52.34659147588286
 10
-133.5199627374627
 20
-52.42832428607207
 10
-133.5284336449665
 20
-52.51228929486247
 10
-133.5366756090198
 20
-52.59562470917558
 10
-133.5485806682071
 20
-52.71822392446645
 10
-133.560943614287
 20
-52.84168167767483
 10
-133.574680221042
 20
-52.96679927086974
 10
-133.5845247892112
 20
-53.05751811131671
 10
-133.5955140746151
 20
-53.14898101795915
 10
-133.6065033600197
 20
-53.24055839632299
 10
-133.6210412688379
 20
-53.36298590402985
 10
-133.6366094231596
 20
-53.48564235518013
 10
-133.653207822986
 20
-53.60875669321984
 10
-133.6655707690659
 20
-53.70136431709291
 10
-133.678963960649
 20
-53.79385746924395
 10
-133.6925860956842
 20
-53.88635062139498
 10
-133.7109015713574
 20
-54.0092360159919
 10
-133.7303617642652
 20
-54.13143458024891
 10
-133.7508522026674
 20
-54.25328972934046
 10
-133.7663058852693
 20
-54.34543946631961
 10
-133.7823319264832
 20
-54.43707408054992
 10
-133.7992737414812
 20
-54.52813633616171
 10
-133.8214812557406
 20
-54.64856058871337
 10
-133.8457492610075
 20
-54.76698158611498
 10
-133.8707040966076
 20
-54.88483022490062
 10
-133.8894774591726
 20
-54.9733168667464
 10
-133.9082508217378
 20
-55.06163180101073
 10
-133.9286267884296
 20
-55.14822965942656
 10
-133.9559855302091
 20
-55.26493358098287
 10
-133.9860915933499
 20
-55.37768822809847
 10
-134.0165410716617
 20
-55.48998498832144
 10
-134.03863411419
 20
-55.57188950609852
 10
-134.0604982132782
 20
-55.65442361834968
 10
-134.0843083316534
 20
-55.73352357891667
 10
-134.1177340747567
 20
-55.84467562190965
 10
-134.1548229129959
 20
-55.94936001255469
 10
-134.1919117512338
 20
-56.05410163905978
 10
-134.2173244737259
 20
-56.1258181734929
 10
-134.2415924789932
 20
-56.19976690652467
 10
-134.2686078056108
 20
-56.26804928926786
 10
-134.3103899844887
 20
-56.37313433094419
 10
-134.3567510322937
 20
-56.46848927617114
 10
-134.402768664919
 20
-56.56441658000954
 10
-134.4303563501487
 20
-56.62182414907272
 10
-134.4558835443712
 20
-56.68369611533123
 10
-134.4851883054484
 20
-56.73744058926039
 10
-134.5412794497034
 20
-56.84069408337004
 10
-134.6028652366498
 20
-56.93038267830842
 10
-134.6651378539392
 20
-57.01875484843216
 10
-134.6894058592065
 20
-57.05326807290534
 10
-134.7110410148429
 20
-57.09436342144658
 10
-134.7363392656248
 20
-57.12635826801252
 10
-134.8263140398651
 20
-57.2402576323549
 10
-134.9223558154297
 20
-57.33858884237915
 10
-135.0253803660924
 20
-57.41808945397038
 10
-135.0451839741614
 20
-57.43342866484956
 10
-135.0683072622042
 20
-57.43972460961221
 10
-135.0886832288859
 20
-57.45369015981477
 10
-135.1738501907673
 20
-57.51178455921466
 10
-135.2610776436666
 20
-57.56364024971452
 10
-135.355402343384
 20
-57.5959785114485
 10
-135.3967266353696
 20
-57.61017300509704
 10
-135.4430876831655
 20
-57.60994406165041
 10
-135.4863579944492
 20
-57.61881562017972
 10
-135.5683197480866
 20
-57.63558572759492
 10
-135.6501670299947
 20
-57.65327160879348
 10
-135.7391115587408
 20
-57.64960851365562
 10
-135.759601997143
 20
-57.6487499757349
 10
-135.7811226810593
 20
-57.64491517301687
 10
-135.8020710063632
 20
-57.64291191786231
 10
-135.9291346188522
 20
-57.6308351510897
 10
-136.0610060437002
 20
-57.60416323964045
 10
-136.2024930932768
 20
-57.54755697263922
 10
-138.6913372938354
 20
-56.55205363393088
 10
-138.193843185863
 20
-48.09036110869913
 10
-138.193843185863
 20
-48.09036110869913
 10
-137.9440658863627
 20
-28.68087917902634
 10
-126.5330666549678
 20
-20.36731306330409
 10
-126.5298614467251
 20
-20.36513810056873
 10
-124.5388547693104
 20
-17.44925713750692
 10
-123.3941375397258
 20
-15.15272543151384
 10
-122.7623681007155
 20
-13.36977111057389
 10
-123.6829496967522
 20
-13.1209668207246
 10
-124.5988379521412
 20
-12.81086292323084
 10
-125.507171073819
 20
-12.435624615372
 10
-126.4153897237668
 20
-12.06044354337579
 10
-127.3160532400047
 20
-11.62007082515509
 10
-128.2062998294498
 20
-11.11095783729473
 10
-135.5079931500853
 20
-6.932797185173255
 10
-142.5208743136937
 20
-1.71717930787827
 10
-146.3133224953041
 20
6.057511172018855
 10
-150.7378835310958
 20
15.12762090477413
 10
-149.23097777007
 20
25.5193639149442
 10
-143.1527582244248
 20
33.54016859919936
 10
-137.0672124885
 20
41.57093232335438
 10
-127.2047867252884
 20
45.80003289219558
 10
-117.2791725710037
 20
46.04866547446149
 10
-117.2791725710037
 20
46.04866547446149
 10
-117.2791725710037
 20
46.07287624386612
 10
-117.2791725710037
 20
46.07287624386612
 10
-117.122804197447
 20
46.07287624386612
 10
-116.9668937107723
 20
46.06285996810684
 10
-116.8112121675491
 20
46.06074224123025
 10
-116.6545003788215
 20
46.06285996810684
 10
-116.4981320052548
 20
46.07287624386612
 10
-116.3421070468706
 20
46.07287624386612
 10
-116.3421070468706
 20
46.07287624386612
 10
-116.3421070468706
 20
46.04866547446149
 10
-116.3421070468706
 20
46.04866547446149
 10
-110.9307997591763
 20
45.91313095447664
 10
-105.5430736464064
 20
44.58525896815863
 10
-100.7710909314333
 20
42.11232633708674
 10
-96.79033676555935
 20
40.04943141765227
 10
-93.23667659803605
 20
37.19256062777691
 10
-90.46897928034061
 20
33.54016859919936
 97
        0
 97
        1
330
7D
 92
        1
 93
        1
 72
     4
 94
        3
 73
     0
 74
     0
 95
       38
 96
       34
 40
0.0
 40
0.0
 40
0.0
 40
0.0
 40
1.0
 40
1.0
 40
1.0
 40
2.0
 40
2.0
 40
2.0
 40
3.0
 40
3.0
 40
3.0
 40
4.0
 40
4.0
 40
4.0
 40
5.0
 40
5.0
 40
5.0
 40
6.0
 40
6.0
 40
6.0
 40
7.0
 40
7.0
 40
7.0
 40
8.0
 40
8.0
 40
8.0
 40
9.0
 40
9.0
 40
9.0
 40
10.0
 40
10.0
 40
10.0
 40
11.0
 40
11.0
 40
11.0
 40
11.0
 10
-93.58558640961334
 20
-35.18533418511142
 10
-95.46692917642895
 20
-28.86260303922247
 10
-98.38904884839273
 20
-24.31567173158883
 10
-100.7710909314333
 20
-21.42451666068692
 10
-100.7710909314333
 20
-21.42451666068692
 10
-100.7710909314333
 20
-12.71464944008317
 10
-100.7710909314333
 20
-12.71464944008317
 10
-94.63895520427206
 20
-8.929641920459305
 10
-87.86291603547292
 20
-3.634294488121962
 10
-83.93710829660824
 20
4.412895928273189
 10
-79.04561710286642
 20
14.43918796289963
 10
-80.40302279371376
 20
26.46827726240995
 10
-87.47943576355629
 20
35.80579293999706
 10
-90.86985925414621
 20
40.28003470355096
 10
-95.47677374460873
 20
43.83878886274685
 10
-100.7710909314333
 20
46.25465733992424
 10
-100.7710909314333
 20
46.25465733992424
 10
-100.7710909314333
 20
87.73434469185323
 10
-100.7710909314333
 20
87.73434469185323
 10
-100.7710909314333
 20
87.73434469185323
 10
-156.7384912485796
 20
87.73434469185323
 10
-156.7384912485796
 20
87.73434469185323
 10
-156.7384912485796
 20
87.73434469185323
 10
-156.7384912485796
 20
-81.1287891379488
 10
-156.7384912485796
 20
-81.1287891379488
 10
-156.7384912485796
 20
-81.1287891379488
 10
-36.56493176952935
 20
-81.1287891379488
 10
-36.56493176952935
 20
-81.1287891379488
 10
-36.56493176952935
 20
-81.1287891379488
 10
-36.56493176952935
 20
-35.18533418511142
 10
-36.56493176952935
 20
-35.18533418511142
 10
-36.56493176952935
 20
-35.18533418511142
 10
-93.58558640961334
 20
-35.18533418511142
 10
-93.58558640961334
 20
-35.18533418511142
 97
        0
 97
        1
330
7E
 75
     2
 76
     1
 98
        1
 10
0.0
 20
0.0
450
        0
451
        0
460
0.0
461
0.0
452
        0
462
0.0
453
        0
470

  0
SPLINE
  5
80
330
79
100
AcDbEntity
  8
Layer 1
100
AcDbSpline
210
0.0
220
0.0
230
1.0
 70
     9
 71
     3
 72
    29
 73
    25
 74
     0
 42
0.0000000001
 43
0.0000000001
 40
0.0
 40
0.0
 40
0.0
 40
0.0
 40
1.0
 40
1.0
 40
1.0
 40
2.0
 40
2.0
 40
2.0
 40
3.0
 40
3.0
 40
3.0
 40
4.0
 40
4.0
 40
4.0
 40
5.0
 40
5.0
 40
5.0
 40
6.0
 40
6.0
 40
6.0
 40
7.0
 40
7.0
 40
7.0
 40
8.0
 40
8.0
 40
8.0
 40
8.0
 10
-133.4603229698041
 20
24.56529933994898
 30
0.0
 10
-134.4905684764306
 20
24.91741435976733
 30
0.0
 10
-135.4612886871181
 20
25.09232715244813
 30
0.0
 10
-136.3450103883581
 20
25.09232715244813
 30
0.0
 10
-137.6234305903582
 20
25.09232715244813
 30
0.0
 10
-138.7196118094086
 20
24.72693341276392
 30
0.0
 10
-139.5525080656547
 20
24.0034721236674
 30
0.0
 10
-140.9687522220974
 20
22.77313004530848
 30
0.0
 10
-141.4820434278429
 20
20.64487177206551
 30
0.0
 10
-140.9975990962827
 20
18.0101905964528
 30
0.0
 10
-140.47011339689
 20
15.14290287978749
 30
0.0
 10
-138.8111891877753
 20
11.98852008194365
 30
0.0
 10
-136.3257791389008
 20
9.128100668659513
 30
0.0
 10
-133.8028223648958
 20
6.222808339971661
 30
0.0
 10
-130.8265575679747
 20
4.035482657678996
 30
0.0
 10
-127.9450753576628
 20
2.969064086598835
 30
0.0
 10
-125.2549898681389
 20
1.973160096859843
 30
0.0
 10
-123.009970437477
 20
2.087631819817529
 30
0.0
 10
-121.6248625896792
 20
3.290042797775813
 30
0.0
 10
-118.6499714534341
 20
5.874814302176753
 30
0.0
 10
-120.3556001255156
 20
12.91482526412546
 30
0.0
 10
-125.3493145678572
 20
18.66359519109822
 30
0.0
 10
-127.8425086938927
 20
21.53363022911421
 30
0.0
 10
-130.72307513042
 20
23.62983641992925
 30
0.0
 10
-133.4603229698041
 20
24.56529933994898
 30
0.0
  0
HATCH
  5
81
330
79
100
AcDbEntity
  8
Layer 1
 62
     7
440
 33554687
100
AcDbHatch
 10
0.0
 20
0.0
 30
0.0
210
0.0
220
0.0
230
1.0
  2
SOLID
 70
     1
 71
     1
 91
        1
 92
        1
 93
        1
 72
     4
 94
        3
 73
     0
 74
     0
 95
       29
 96
       25
 40
0.0
 40
0.0
 40
0.0
 40
0.0
 40
1.0
 40
1.0
 40
1.0
 40
2.0
 40
2.0
 40
2.0
 40
3.0
 40
3.0
 40
3.0
 40
4.0
 40
4.0
 40
4.0
 40
5.0
 40
5.0
 40
5.0
 40
6.0
 40
6.0
 40
6.0
 40
7.0
 40
7.0
 40
7.0
 40
8.0
 40
8.0
 40
8.0
 40
8.0
 10
-133.4603229698041
 20
24.56529933994898
 10
-134.4905684764306
 20
24.91741435976733
 10
-135.4612886871181
 20
25.09232715244813
 10
-136.3450103883581
 20
25.09232715244813
 10
-137.6234305903582
 20
25.09232715244813
 10
-138.7196118094086
 20
24.72693341276392
 10
-139.5525080656547
 20
24.0034721236674
 10
-140.9687522220974
 20
22.77313004530848
 10
-141.4820434278429
 20
20.64487177206551
 10
-140.9975990962827
 20
18.0101905964528
 10
-140.47011339689
 20
15.14290287978749
 10
-138.8111891877753
 20
11.98852008194365
 10
-136.3257791389008
 20
9.128100668659513
 10
-133.8028223648958
 20
6.222808339971661
 10
-130.8265575679747
 20
4.035482657678996
 10
-127.9450753576628
 20
2.969064086598835
 10
-125.2549898681389
 20
1.973160096859843
 10
-123.009970437477
 20
2.087631819817529
 10
-121.6248625896792
 20
3.290042797775813
 10
-118.6499714534341
 20
5.874814302176753
 10
-120.3556001255156
 20
12.91482526412546
 10
-125.3493145678572
 20
18.66359519109822
 10
-127.8425086938927
 20
21.53363022911421
 10
-130.72307513042
 20
23.62983641992925
 10
-133.4603229698041
 20
24.56529933994898
 97
        0
 97
        1
330
80
 75
     2
 76
     1
 98
        1
 10
0.0
 20
0.0
450
        0
451
        0
460
0.0
461
0.0
452
        0
462
0.0
453
        0
470

  0
SPLINE
  5
82
330
79
100
AcDbEntity
  8
Layer 1
100
AcDbSpline
210
0.0
220
0.0
230
1.0
 70
     9
 71
     3
 72
    35
 73
    31
 74
     0
 42
0.0000000001
 43
0.0000000001
 40
0.0
 40
0.0
 40
0.0
 40
0.0
 40
1.0
 40
1.0
 40
1.0
 40
2.0
 40
2.0
 40
2.0
 40
3.0
 40
3.0
 40
3.0
 40
4.0
 40
4.0
 40
4.0
 40
5.0
 40
5.0
 40
5.0
 40
6.0
 40
6.0
 40
6.0
 40
7.0
 40
7.0
 40
7.0
 40
8.0
 40
8.0
 40
8.0
 40
9.0
 40
9.0
 40
9.0
 40
10.0
 40
10.0
 40
10.0
 40
10.0
 10
-105.6766621471019
 20
2.969064086598835
 30
0.0
 10
-104.0377704895075
 20
3.575592510693057
 30
0.0
 10
-102.3706043163401
 20
4.555069808188718
 30
0.0
 10
-100.7710909314333
 20
5.8126561566122
 30
0.0
 10
-99.55826302669599
 20
6.766205608854724
 30
0.0
 10
-98.38332526225052
 20
7.875207660874782
 30
0.0
 10
-97.29504259208091
 20
9.128100668659513
 30
0.0
 10
-94.81009043009807
 20
11.98852008194365
 30
0.0
 10
-93.15116622098374
 20
15.14290287978749
 30
0.0
 10
-92.62413840848235
 20
18.0101905964528
 30
0.0
 10
-92.13969407692214
 20
20.64487177206551
 30
0.0
 10
-92.65298528266857
 20
22.77313004530848
 30
0.0
 10
-94.06877155221897
 20
24.0034721236674
 30
0.0
 10
-94.9204411710304
 20
24.74295945397981
 30
0.0
 10
-96.01936971143175
 20
25.09461658690873
 30
0.0
 10
-97.26802726546299
 20
25.09461658690873
 30
0.0
 10
-98.34497723505641
 20
25.09461658690873
 30
0.0
 10
-99.53422396486958
 20
24.82738234966092
 30
0.0
 10
-100.7710909314333
 20
24.32759880722249
 30
0.0
 10
-103.2451682797432
 20
23.32774554304343
 30
0.0
 10
-105.9124738963972
 20
21.38058153551867
 30
0.0
 10
-108.2728808238001
 20
18.66359519109822
 30
0.0
 10
-110.7962954846975
 20
15.75876074930365
 30
0.0
 10
-112.5458812983952
 20
12.50547438282474
 30
0.0
 10
-113.1983701192586
 20
9.503110033067857
 30
0.0
 10
-113.8078175722901
 20
6.699468594369604
 30
0.0
 10
-113.3810669891007
 20
4.492911662620314
 30
0.0
 10
-111.9959591413028
 20
3.290042797775813
 30
0.0
 10
-110.6117670672881
 20
2.087631819817529
 30
0.0
 10
-108.3667476366265
 20
1.973160096859843
 30
0.0
 10
-105.6766621471019
 20
2.969064086598835
 30
0.0
  0
HATCH
  5
83
330
79
100
AcDbEntity
  8
Layer 1
 62
     7
440
 33554687
100
AcDbHatch
 10
0.0
 20
0.0
 30
0.0
210
0.0
220
0.0
230
1.0
  2
SOLID
 70
     1
 71
     1
 91
        1
 92
        1
 93
        1
 72
     4
 94
        3
 73
     0
 74
     0
 95
       35
 96
       31
 40
0.0
 40
0.0
 40
0.0
 40
0.0
 40
1.0
 40
1.0
 40
1.0
 40
2.0
 40
2.0
 40
2.0
 40
3.0
 40
3.0
 40
3.0
 40
4.0
 40
4.0
 40
4.0
 40
5.0
 40
5.0
 40
5.0
 40
6.0
 40
6.0
 40
6.0
 40
7.0
 40
7.0
 40
7.0
 40
8.0
 40
8.0
 40
8.0
 40
9.0
 40
9.0
 40
9.0
 40
10.0
 40
10.0
 40
10.0
 40
10.0
 10
-105.6766621471019
 20
2.969064086598835
 10
-104.0377704895075
 20
3.575592510693057
 10
-102.3706043163401
 20
4.555069808188718
 10
-100.7710909314333
 20
5.8126561566122
 10
-99.55826302669599
 20
6.766205608854724
 10
-98.38332526225052
 20
7.875207660874782
 10
-97.29504259208091
 20
9.128100668659513
 10
-94.81009043009807
 20
11.98852008194365
 10
-93.15116622098374
 20
15.14290287978749
 10
-92.62413840848235
 20
18.0101905964528
 10
-92.13969407692214
 20
20.64487177206551
 10
-92.65298528266857
 20
22.77313004530848
 10
-94.06877155221897
 20
24.0034721236674
 10
-94.9204411710304
 20
24.74295945397981
 10
-96.01936971143175
 20
25.09461658690873
 10
-97.26802726546299
 20
25.09461658690873
 10
-98.34497723505641
 20
25.09461658690873
 10
-99.53422396486958
 20
24.82738234966092
 10
-100.7710909314333
 20
24.32759880722249
 10
-103.2451682797432
 20
23.32774554304343
 10
-105.9124738963972
 20
21.38058153551867
 10
-108.2728808238001
 20
18.66359519109822
 10
-110.7962954846975
 20
15.75876074930365
 10
-112.5458812983952
 20
12.50547438282474
 10
-113.1983701192586
 20
9.503110033067857
 10
-113.8078175722901
 20
6.699468594369604
 10
-113.3810669891007
 20
4.492911662620314
 10
-111.9959591413028
 20
3.290042797775813
 10
-110.6117670672881
 20
2.087631819817529
 10
-108.3667476366265
 20
1.973160096859843
 10
-105.6766621471019
 20
2.969064086598835
 97
        0
 97
        1
330
82
 75
     2
 76
     1
 98
        1
 10
0.0
 20
0.0
450
        0
451
        0
460
0.0
461
0.0
452
        0
462
0.0
453
        0
470

  0
ENDBLK
  5
7C
330
79
100
AcDbEntity
  8
0
100
AcDbBlockEnd
  0
ENDSEC
  0
SECTION
  2
ENTITIES
  0
INSERT
  5
7A
330
70
100
AcDbEntity
  8
Layer 1
100
AcDbBlockReference
  2
Block_0
 10
0.0
 20
0.0
 30
0.0
  0
ENDSEC
  0
SECTION
  2
OBJECTS
  0
DICTIONARY
  5
C
330
0
100
AcDbDictionary
281
     1
  3
ACAD_COLOR
350
63
  3
ACAD_DETAILVIEWSTYLE
350
6A
  3
ACAD_GROUP
350
D
  3
ACAD_LAYOUT
350
62
  3
ACAD_MATERIAL
350
10
  3
ACAD_MLEADERSTYLE
350
66
  3
ACAD_MLINESTYLE
350
5F
  3
ACAD_PLOTSETTINGS
350
61
  3
ACAD_PLOTSTYLENAME
350
E
  3
ACAD_SCALELIST
350
42
  3
ACAD_SECTIONVIEWSTYLE
350
68
  3
ACAD_TABLESTYLE
350
64
  3
ACAD_VISUALSTYLE
350
29
  3
ACDB_RECOMPOSE_DATA
350
8C
  3
AcDbVariableDictionary
350
84
  0
DICTIONARY
  5
63
102
{ACAD_REACTORS
330
C
102
}
330
C
100
AcDbDictionary
281
     1
  0
DICTIONARY
  5
6A
102
{ACAD_REACTORS
330
C
102
}
330
C
100
AcDbDictionary
281
     1
  3
Imperial24
350
6B
  0
DICTIONARY
  5
D
102
{ACAD_REACTORS
330
C
102
}
330
C
100
AcDbDictionary
281
     1
  0
DICTIONARY
  5
62
102
{ACAD_REACTORS
330
C
102
}
330
C
100
AcDbDictionary
281
     1
  3
Layout1
350
6F
  3
Layout2
350
77
  3
Model
350
73
  0
DICTIONARY
  5
10
102
{ACAD_REACTORS
330
C
102
}
330
C
100
AcDbDictionary
281
     1
  3
ByBlock
350
19
  3
ByLayer
350
11
  3
Global
350
21
  0
DICTIONARY
  5
66
102
{ACAD_REACTORS
330
C
102
}
330
C
100
AcDbDictionary
281
     1
  3
Standard
350
67
  0
DICTIONARY
  5
5F
102
{ACAD_REACTORS
330
C
102
}
330
C
100
AcDbDictionary
281
     1
  3
Standard
350
60
  0
DICTIONARY
  5
61
102
{ACAD_REACTORS
330
C
102
}
330
C
100
AcDbDictionary
281
     1
  0
ACDBDICTIONARYWDFLT
  5
E
102
{ACAD_REACTORS
330
C
102
}
330
C
100
AcDbDictionary
281
     1
  3
Normal
350
F
100
AcDbDictionaryWithDefault
340
F
  0
DICTIONARY
  5
42
102
{ACAD_REACTORS
330
C
102
}
330
C
100
AcDbDictionary
281
     1
  3
A0
350
43
  3
A1
350
44
  3
A2
350
45
  3
A3
350
46
  3
A4
350
47
  3
A5
350
48
  3
A6
350
49
  3
A7
350
4A
  3
A8
350
4B
  3
A9
350
4C
  3
B0
350
4D
  3
B1
350
4E
  3
B2
350
4F
  3
B3
350
50
  3
B4
350
51
  3
B5
350
52
  3
B6
350
53
  0
DICTIONARY
  5
68
102
{ACAD_REACTORS
330
C
102
}
330
C
100
AcDbDictionary
281
     1
  3
Imperial24
350
69
  0
DICTIONARY
  5
64
102
{ACAD_REACTORS
330
C
102
}
330
C
100
AcDbDictionary
281
     1
  3
Standard
350
65
  0
DICTIONARY
  5
29
102
{ACAD_REACTORS
330
C
102
}
330
C
100
AcDbDictionary
281
     1
  3
2dWireframe
350
2F
  3
Basic
350
2E
  3
Brighten
350
35
  3
ColorChange
350
39
  3
Conceptual
350
32
  3
Dim
350
34
  3
EdgeColorOff
350
41
  3
Facepattern
350
38
  3
Flat
350
2A
  3
FlatWithEdges
350
2B
  3
Gouraud
350
2C
  3
GouraudWithEdges
350
2D
  3
Hidden
350
31
  3
JitterOff
350
3F
  3
Linepattern
350
37
  3
OverhangOff
350
40
  3
Realistic
350
33
  3
Shaded
350
3E
  3
Shaded with edges
350
3D
  3
Shades of Gray
350
3A
  3
Sketchy
350
3B
  3
Thicken
350
36
  3
Wireframe
350
30
  3
X-Ray
350
3C
  0
XRECORD
  5
8C
102
{ACAD_REACTORS
330
C
102
}
330
C
100
AcDbXrecord
280
     1
 90
        1
330
65
  0
DICTIONARY
  5
84
102
{ACAD_REACTORS
330
C
102
}
330
C
100
AcDbDictionary
281
     1
  3
CANNOSCALE
350
89
  3
CMLEADERSTYLE
350
86
  3
CTABLESTYLE
350
85
  3
CVIEWDETAILSTYLE
350
87
  3
CVIEWSECTIONSTYLE
350
88
  0
ACDBDETAILVIEWSTYLE
  5
6B
102
{ACAD_XDICTIONARY
360
8F
102
}
102
{ACAD_REACTORS
330
6A
102
}
330
6A
100
AcDbModelDocViewStyle
 70
     0
  3
Imperial24
290
     0
100
AcDbDetailViewStyle
 70
     0
 71
     0
 90
        3
 71
     1
340
55
 62
   256
 40
0.24
340
0
 62
   256
 40
0.24
300

 40
0.36
280
     3
 71
     2
340
5D
 90
       25
 62
   256
 71
     3
340
55
 62
   256
 40
0.24
 90
        1
 40
0.75
 90
        1
300
%<\AcVar ViewType \f "%tc1">% %<\AcVar ViewDetailId>%\PSCALE %<\AcVar ViewScale \f "%sn">%
 71
     4
340
5D
 90
       25
 62
   256
340
5D
 90
       25
 62
   256
280
     0
  0
LAYOUT
  5
6F
102
{ACAD_REACTORS
330
62
102
}
330
62
100
AcDbPlotSettings
  1

  2

  4

  6

 40
0.0
 41
0.0
 42
0.0
 43
0.0
 44
0.0
 45
0.0
 46
0.0
 47
0.0
 48
0.0
 49
0.0
140
0.0
141
0.0
142
1.0
143
1.0
 70
   688
 72
     0
 73
     0
 74
     5
  7

 75
    16
147
1.0
 76
     0
 77
     2
 78
   300
148
0.0
149
0.0
100
AcDbLayout
  1
Layout1
 70
     1
 71
     1
 10
0.0
 20
0.0
 11
12.0
 21
9.0
 12
0.0
 22
0.0
 32
0.0
 14
0.0
 24
0.0
 34
0.0
 15
0.0
 25
0.0
 35
0.0
146
0.0
 13
0.0
 23
0.0
 33
0.0
 16
1.0
 26
0.0
 36
0.0
 17
0.0
 27
1.0
 37
0.0
 76
     0
330
6C
  0
LAYOUT
  5
77
102
{ACAD_REACTORS
330
62
102
}
330
62
100
AcDbPlotSettings
  1

  2

  4

  6

 40
0.0
 41
0.0
 42
0.0
 43
0.0
 44
0.0
 45
0.0
 46
0.0
 47
0.0
 48
0.0
 49
0.0
140
0.0
141
0.0
142
1.0
143
1.0
 70
   688
 72
     0
 73
     0
 74
     5
  7

 75
    16
147
1.0
 76
     0
 77
     2
 78
   300
148
0.0
149
0.0
100
AcDbLayout
  1
Layout2
 70
     1
 71
     2
 10
0.0
 20
0.0
 11
12.0
 21
9.0
 12
0.0
 22
0.0
 32
0.0
 14
0.0
 24
0.0
 34
0.0
 15
0.0
 25
0.0
 35
0.0
146
0.0
 13
0.0
 23
0.0
 33
0.0
 16
1.0
 26
0.0
 36
0.0
 17
0.0
 27
1.0
 37
0.0
 76
     0
330
74
  0
LAYOUT
  5
73
102
{ACAD_REACTORS
330
62
102
}
330
62
100
AcDbPlotSettings
  1

  2

  4

  6

 40
0.0
 41
0.0
 42
0.0
 43
0.0
 44
0.0
 45
0.0
 46
0.0
 47
0.0
 48
0.0
 49
0.0
140
0.0
141
0.0
142
1.0
143
1.0
 70
  1712
 72
     0
 73
     0
 74
     0
  7

 75
     0
147
1.0
 76
     0
 77
     2
 78
   300
148
0.0
149
0.0
100
AcDbLayout
  1
Model
 70
     1
 71
     0
 10
0.0
 20
0.0
 11
12.0
 21
9.0
 12
0.0
 22
0.0
 32
0.0
 14
0.0
 24
0.0
 34
0.0
 15
0.0
 25
0.0
 35
0.0
146
0.0
 13
0.0
 23
0.0
 33
0.0
 16
1.0
 26
0.0
 36
0.0
 17
0.0
 27
1.0
 37
0.0
 76
     0
330
70
  0
MATERIAL
  5
19
102
{ACAD_XDICTIONARY
360
1A
102
}
102
{ACAD_REACTORS
330
10
102
}
330
10
100
AcDbMaterial
  1
ByBlock
 72
     0
 43
0.0208333333333333
 43
0.0
 43
0.0
 43
0.0
 43
0.0
 43
0.0208333333333333
 43
0.0
 43
0.0
 43
0.0
 43
0.0
 43
1.0
 43
0.0
 43
0.0
 43
0.0
 43
0.0
 43
1.0
 77
     0
 47
0.0208333333333333
 47
0.0
 47
0.0
 47
0.0
 47
0.0
 47
0.0208333333333333
 47
0.0
 47
0.0
 47
0.0
 47
0.0
 47
1.0
 47
0.0
 47
0.0
 47
0.0
 47
0.0
 47
1.0
171
     0
 49
0.0208333333333333
 49
0.0
 49
0.0
 49
0.0
 49
0.0
 49
0.0208333333333333
 49
0.0
 49
0.0
 49
0.0
 49
0.0
 49
1.0
 49
0.0
 49
0.0
 49
0.0
 49
0.0
 49
1.0
175
     0
142
0.0208333333333333
142
0.0
142
0.0
142
0.0
142
0.0
142
0.0208333333333333
142
0.0
142
0.0
142
0.0
142
0.0
142
1.0
142
0.0
142
0.0
142
0.0
142
0.0
142
1.0
179
     0
144
0.0208333333333333
144
0.0
144
0.0
144
0.0
144
0.0
144
0.0208333333333333
144
0.0
144
0.0
144
0.0
144
0.0
144
1.0
144
0.0
144
0.0
144
0.0
144
0.0
144
1.0
147
0.0208333333333333
147
0.0
147
0.0
147
0.0
147
0.0
147
0.0208333333333333
147
0.0
147
0.0
147
0.0
147
0.0
147
1.0
147
0.0
147
0.0
147
0.0
147
0.0
147
1.0
  0
MATERIAL
  5
11
102
{ACAD_XDICTIONARY
360
12
102
}
102
{ACAD_REACTORS
330
10
102
}
330
10
100
AcDbMaterial
  1
ByLayer
 72
     0
 43
0.0208333333333333
 43
0.0
 43
0.0
 43
0.0
 43
0.0
 43
0.0208333333333333
 43
0.0
 43
0.0
 43
0.0
 43
0.0
 43
1.0
 43
0.0
 43
0.0
 43
0.0
 43
0.0
 43
1.0
 77
     0
 47
0.0208333333333333
 47
0.0
 47
0.0
 47
0.0
 47
0.0
 47
0.0208333333333333
 47
0.0
 47
0.0
 47
0.0
 47
0.0
 47
1.0
 47
0.0
 47
0.0
 47
0.0
 47
0.0
 47
1.0
171
     0
 49
0.0208333333333333
 49
0.0
 49
0.0
 49
0.0
 49
0.0
 49
0.0208333333333333
 49
0.0
 49
0.0
 49
0.0
 49
0.0
 49
1.0
 49
0.0
 49
0.0
 49
0.0
 49
0.0
 49
1.0
175
     0
142
0.0208333333333333
142
0.0
142
0.0
142
0.0
142
0.0
142
0.0208333333333333
142
0.0
142
0.0
142
0.0
142
0.0
142
1.0
142
0.0
142
0.0
142
0.0
142
0.0
142
1.0
179
     0
144
0.0208333333333333
144
0.0
144
0.0
144
0.0
144
0.0
144
0.0208333333333333
144
0.0
144
0.0
144
0.0
144
0.0
144
1.0
144
0.0
144
0.0
144
0.0
144
0.0
144
1.0
147
0.0208333333333333
147
0.0
147
0.0
147
0.0
147
0.0
147
0.0208333333333333
147
0.0
147
0.0
147
0.0
147
0.0
147
1.0
147
0.0
147
0.0
147
0.0
147
0.0
147
1.0
  0
MATERIAL
  5
21
102
{ACAD_XDICTIONARY
360
22
102
}
102
{ACAD_REACTORS
330
10
102
}
330
10
100
AcDbMaterial
  1
Global
 72
     0
 43
0.0208333333333333
 43
0.0
 43
0.0
 43
0.0
 43
0.0
 43
0.0208333333333333
 43
0.0
 43
0.0
 43
0.0
 43
0.0
 43
1.0
 43
0.0
 43
0.0
 43
0.0
 43
0.0
 43
1.0
 77
     0
 47
0.0208333333333333
 47
0.0
 47
0.0
 47
0.0
 47
0.0
 47
0.0208333333333333
 47
0.0
 47
0.0
 47
0.0
 47
0.0
 47
1.0
 47
0.0
 47
0.0
 47
0.0
 47
0.0
 47
1.0
171
     0
 49
0.0208333333333333
 49
0.0
 49
0.0
 49
0.0
 49
0.0
 49
0.0208333333333333
 49
0.0
 49
0.0
 49
0.0
 49
0.0
 49
1.0
 49
0.0
 49
0.0
 49
0.0
 49
0.0
 49
1.0
175
     0
142
0.0208333333333333
142
0.0
142
0.0
142
0.0
142
0.0
142
0.0208333333333333
142
0.0
142
0.0
142
0.0
142
0.0
142
1.0
142
0.0
142
0.0
142
0.0
142
0.0
142
1.0
179
     0
144
0.0208333333333333
144
0.0
144
0.0
144
0.0
144
0.0
144
0.0208333333333333
144
0.0
144
0.0
144
0.0
144
0.0
144
1.0
144
0.0
144
0.0
144
0.0
144
0.0
144
1.0
147
0.0208333333333333
147
0.0
147
0.0
147
0.0
147
0.0
147
0.0208333333333333
147
0.0
147
0.0
147
0.0
147
0.0
147
1.0
147
0.0
147
0.0
147
0.0
147
0.0
147
1.0
  0
MLEADERSTYLE
  5
67
102
{ACAD_REACTORS
330
66
102
}
330
66
100
AcDbMLeaderStyle
179
     2
170
     2
171
     1
172
     0
 90
        2
 40
0.0
 41
0.0
173
     1
 91
-1056964608
340
5B
 92
       -2
290
     1
 42
0.09
291
     1
 43
0.36
  3
Standard
 44
0.18
300

342
55
174
     1
178
     6
175
     1
176
     0
 93
-1056964608
 45
0.18
292
     0
297
     0
 46
0.18
 94
-1056964608
 47
1.0
 49
1.0
140
1.0
293
     1
141
0.0
294
     1
177
     0
142
1.0
295
     0
296
     0
143
0.125
271
     0
272
     9
273
     9
298
     1
  0
MLINESTYLE
  5
60
102
{ACAD_REACTORS
330
5F
102
}
330
5F
100
AcDbMlineStyle
  2
STANDARD
 70
     0
  3

 62
   256
 51
90.0
 52
90.0
 71
     2
 49
0.5
 62
   256
  6
BYLAYER
 49
-0.5
 62
   256
  6
BYLAYER
  0
ACDBPLACEHOLDER
  5
F
102
{ACAD_REACTORS
330
E
102
}
330
E
  0
SCALE
  5
43
102
{ACAD_REACTORS
330
42
102
}
330
42
100
AcDbScale
 70
     0
300
1:1
140
1.0
141
1.0
290
     1
  0
SCALE
  5
44
102
{ACAD_REACTORS
330
42
102
}
330
42
100
AcDbScale
 70
     0
300
1/128" = 1'-0"
140
0.0078125
141
12.0
290
     0
  0
SCALE
  5
45
102
{ACAD_REACTORS
330
42
102
}
330
42
100
AcDbScale
 70
     0
300
1/64" = 1'-0"
140
0.015625
141
12.0
290
     0
  0
SCALE
  5
46
102
{ACAD_REACTORS
330
42
102
}
330
42
100
AcDbScale
 70
     0
300
1/32" = 1'-0"
140
0.03125
141
12.0
290
     0
  0
SCALE
  5
47
102
{ACAD_REACTORS
330
42
102
}
330
42
100
AcDbScale
 70
     0
300
1/16" = 1'-0"
140
0.0625
141
12.0
290
     0
  0
SCALE
  5
48
102
{ACAD_REACTORS
330
42
102
}
330
42
100
AcDbScale
 70
     0
300
3/32" = 1'-0"
140
0.09375
141
12.0
290
     0
  0
SCALE
  5
49
102
{ACAD_REACTORS
330
42
102
}
330
42
100
AcDbScale
 70
     0
300
1/8" = 1'-0"
140
0.125
141
12.0
290
     0
  0
SCALE
  5
4A
102
{ACAD_REACTORS
330
42
102
}
330
42
100
AcDbScale
 70
     0
300
3/16" = 1'-0"
140
0.1875
141
12.0
290
     0
  0
SCALE
  5
4B
102
{ACAD_REACTORS
330
42
102
}
330
42
100
AcDbScale
 70
     0
300
1/4" = 1'-0"
140
0.25
141
12.0
290
     0
  0
SCALE
  5
4C
102
{ACAD_REACTORS
330
42
102
}
330
42
100
AcDbScale
 70
     0
300
3/8" = 1'-0"
140
0.375
141
12.0
290
     0
  0
SCALE
  5
4D
102
{ACAD_REACTORS
330
42
102
}
330
42
100
AcDbScale
 70
     0
300
1/2" = 1'-0"
140
0.5
141
12.0
290
     0
  0
SCALE
  5
4E
102
{ACAD_REACTORS
330
42
102
}
330
42
100
AcDbScale
 70
     0
300
3/4" = 1'-0"
140
0.75
141
12.0
290
     0
  0
SCALE
  5
4F
102
{ACAD_REACTORS
330
42
102
}
330
42
100
AcDbScale
 70
     0
300
1" = 1'-0"
140
1.0
141
12.0
290
     0
  0
SCALE
  5
50
102
{ACAD_REACTORS
330
42
102
}
330
42
100
AcDbScale
 70
     0
300
1-1/2" = 1'-0"
140
1.5
141
12.0
290
     0
  0
SCALE
  5
51
102
{ACAD_REACTORS
330
42
102
}
330
42
100
AcDbScale
 70
     0
300
3" = 1'-0"
140
3.0
141
12.0
290
     0
  0
SCALE
  5
52
102
{ACAD_REACTORS
330
42
102
}
330
42
100
AcDbScale
 70
     0
300
6" = 1'-0"
140
6.0
141
12.0
290
     0
  0
SCALE
  5
53
102
{ACAD_REACTORS
330
42
102
}
330
42
100
AcDbScale
 70
     0
300
1'-0" = 1'-0"
140
12.0
141
12.0
290
     0
  0
ACDBSECTIONVIEWSTYLE
  5
69
102
{ACAD_XDICTIONARY
360
8D
102
}
102
{ACAD_REACTORS
330
68
102
}
330
68
100
AcDbModelDocViewStyle
 70
     0
  3
Imperial24
290
     0
100
AcDbSectionViewStyle
 70
     0
 71
     0
 90
       78
 71
     1
340
55
 62
   256
 40
0.24
340
0
340
0
 62
   256
 40
0.24
300
I, O, Q, S, X, Z
 40
0.48
 90
        3
 40
0.18
 90
        1
 71
     2
340
5D
 90
       25
 62
   256
340
5D
 90
       50
 62
   256
 40
0.24
 40
0.0
 40
0.24
 71
     3
340
55
 62
   256
 40
0.24
 90
        1
 40
0.75
 90
        1
300
%<\AcVar ViewType \f "%tc1">% %<\AcVar ViewSectionStartId>%-%<\AcVar ViewSectionEndId>%\PSCALE %<\AcVar ViewScale \f "%sn">%
 71
     4
 62
   256
 62
   257
300
ANSI31
 40
1.0
 90
        0
290
     0
290
     0
 90
        6
 40
0.0
 40
1.570796326794896
 40
0.2617993877991494
 40
1.308996938995747
 40
-0.2617993877991494
 40
1.832595714594046
  0
TABLESTYLE
  5
65
102
{ACAD_XDICTIONARY
360
8A
102
}
102
{ACAD_REACTORS
330
64
102
}
330
64
100
AcDbTableStyle
280
     0
  3
Standard
 70
     0
 71
     0
 40
0.06
 41
0.06
280
     0
281
     0
  7
Standard
140
0.18
170
     2
 62
     0
 63
     7
283
     0
 90
      512
 91
        0
  1

274
    -2
284
     1
 64
     0
275
    -2
285
     1
 65
     0
276
    -2
286
     1
 66
     0
277
    -2
287
     1
 67
     0
278
    -2
288
     1
 68
     0
279
    -2
289
     1
 69
     0
  7
Standard
140
0.25
170
     5
 62
     0
 63
     7
283
     0
 90
      512
 91
        0
  1

274
    -2
284
     1
 64
     0
275
    -2
285
     1
 65
     0
276
    -2
286
     1
 66
     0
277
    -2
287
     1
 67
     0
278
    -2
288
     1
 68
     0
279
    -2
289
     1
 69
     0
  7
Standard
140
0.18
170
     5
 62
     0
 63
     7
283
     0
 90
      512
 91
        0
  1

274
    -2
284
     1
 64
     0
275
    -2
285
     1
 65
     0
276
    -2
286
     1
 66
     0
277
    -2
287
     1
 67
     0
278
    -2
288
     1
 68
     0
279
    -2
289
     1
 69
     0
  0
VISUALSTYLE
  5
2F
102
{ACAD_REACTORS
330
29
102
}
330
29
100
AcDbVisualStyle
  2
2dWireframe
 70
     4
177
     3
291
     0
 70
    58
 90
        0
176
     1
 90
        2
176
     1
 90
        0
176
     1
 90
        0
176
     1
 40
0.6
176
     1
 40
30.0
176
     1
 62
     7
420
 16777215
176
     1
 90
        1
176
     1
 90
        4
176
     1
 62
     7
176
     1
 62
   257
176
     1
 90
        1
176
     1
 90
        1
176
     1
 40
1.0
176
     1
 90
        0
176
     1
 62
   257
176
     1
 40
1.0
176
     1
 90
        1
176
     1
 90
        6
176
     1
 90
        2
176
     1
 62
     7
176
     1
 90
        5
176
     1
 90
        0
176
     1
 90
        0
176
     1
290
     0
176
     1
 90
        1
176
     1
 40
0.0
176
     1
 90
        0
176
     1
290
     1
176
     1
290
     1
176
     1
290
     0
176
     1
290
     0
176
     1
290
     0
176
     1
290
     0
176
     1
290
     0
176
     1
290
     0
176
     1
290
     0
176
     1
 90
       50
176
     1
 40
0.0
176
     1
 40
1.0
176
     1
 90
        0
176
     1
 62
    18
420
        0
176
     1
 90
       50
176
     1
 90
        3
176
     1
 62
     5
420
      255
176
     1
290
     0
176
     1
 90
       50
176
     1
 90
       50
176
     1
 90
       50
176
     1
290
     0
176
     1
 90
       50
176
     1
 62
   256
176
     0
 40
1.0
176
     0
 90
        2
176
     1
  1
strokes_ogs.tif
176
     1
290
     0
176
     1
 40
1.0
176
     1
 40
1.0
176
     1
1001
ACAD
1000
AcDbSavedByObjectVersion
1070
     0
  0
VISUALSTYLE
  5
2E
102
{ACAD_REACTORS
330
29
102
}
330
29
100
AcDbVisualStyle
  2
Basic
 70
     7
177
     3
291
     1
 70
    58
 90
        1
176
     1
 90
        0
176
     1
 90
        1
176
     1
 90
        0
176
     1
 40
0.6
176
     1
 40
30.0
176
     1
 62
     7
420
 16777215
176
     1
 90
        0
176
     1
 90
        4
176
     1
 62
     7
176
     1
 62
   257
176
     1
 90
        1
176
     1
 90
        1
176
     1
 40
1.0
176
     1
 90
        8
176
     1
 62
     7
176
     1
 40
1.0
176
     1
 90
        1
176
     1
 90
        6
176
     1
 90
        2
176
     1
 62
     7
176
     1
 90
        5
176
     1
 90
        0
176
     1
 90
        0
176
     1
290
     0
176
     1
 90
        1
176
     1
 40
0.0
176
     1
 90
        0
176
     1
290
     0
176
     1
290
     1
176
     1
290
     1
176
     1
290
     0
176
     1
290
     0
176
     1
290
     0
176
     1
290
     0
176
     1
290
     0
176
     1
290
     0
176
     1
 90
       50
176
     1
 40
0.0
176
     1
 40
1.0
176
     1
 90
        0
176
     1
 62
    18
420
        0
176
     1
 90
       50
176
     1
 90
        3
176
     1
 62
     5
420
      255
176
     1
290
     0
176
     1
 90
       50
176
     1
 90
       50
176
     1
 90
       50
176
     1
290
     0
176
     1
 90
       50
176
     1
 62
   256
176
     0
 40
1.0
176
     0
 90
        2
176
     1
  1
strokes_ogs.tif
176
     1
290
     0
176
     1
 40
1.0
176
     1
 40
1.0
176
     1
1001
ACAD
1000
AcDbSavedByObjectVersion
1070
     0
  0
VISUALSTYLE
  5
35
102
{ACAD_REACTORS
330
29
102
}
330
29
100
AcDbVisualStyle
  2
Brighten
 70
    12
177
     3
291
     1
 70
    58
 90
        2
176
     1
 90
        2
176
     1
 90
        0
176
     1
 90
        0
176
     1
 40
0.6
176
     1
 40
30.0
176
     1
 62
     7
420
 16777215
176
     1
 90
        1
176
     1
 90
        4
176
     1
 62
     7
176
     1
 62
   257
176
     1
 90
        1
176
     1
 90
        1
176
     1
 40
1.0
176
     1
 90
        8
176
     1
 62
     7
176
     1
 40
1.0
176
     1
 90
        1
176
     1
 90
        6
176
     1
 90
        2
176
     1
 62
     7
176
     1
 90
        5
176
     1
 90
        0
176
     1
 90
        0
176
     1
290
     0
176
     1
 90
        1
176
     1
 40
50.0
176
     1
 90
        0
176
     1
290
     0
176
     1
290
     1
176
     1
290
     1
176
     1
290
     0
176
     1
290
     0
176
     1
290
     0
176
     1
290
     0
176
     1
290
     0
176
     1
290
     0
176
     1
 90
       50
176
     1
 40
0.0
176
     1
 40
1.0
176
     1
 90
        0
176
     1
 62
    18
420
        0
176
     1
 90
       50
176
     1
 90
        3
176
     1
 62
     5
420
      255
176
     1
290
     0
176
     1
 90
       50
176
     1
 90
       50
176
     1
 90
       50
176
     1
290
     0
176
     1
 90
       50
176
     1
 62
   256
176
     0
 40
1.0
176
     0
 90
        2
176
     1
  1
strokes_ogs.tif
176
     1
290
     0
176
     1
 40
1.0
176
     1
 40
1.0
176
     1
1001
ACAD
1000
AcDbSavedByObjectVersion
1070
     0
  0
VISUALSTYLE
  5
39
102
{ACAD_REACTORS
330
29
102
}
330
29
100
AcDbVisualStyle
  2
ColorChange
 70
    16
177
     3
291
     1
 70
    58
 90
        2
176
     1
 90
        2
176
     1
 90
        3
176
     1
 90
        0
176
     1
 40
0.6
176
     1
 40
30.0
176
     1
 62
     8
420
  8421504
176
     1
 90
        1
176
     1
 90
        4
176
     1
 62
     7
176
     1
 62
   257
176
     1
 90
        1
176
     1
 90
        1
176
     1
 40
1.0
176
     1
 90
        8
176
     1
 62
     8
420
  8421504
176
     1
 40
1.0
176
     1
 90
        1
176
     1
 90
        6
176
     1
 90
        2
176
     1
 62
     7
176
     1
 90
        5
176
     1
 90
        0
176
     1
 90
        0
176
     1
290
     0
176
     1
 90
        1
176
     1
 40
0.0
176
     1
 90
        0
176
     1
290
     0
176
     1
290
     1
176
     1
290
     1
176
     1
290
     0
176
     1
290
     0
176
     1
290
     0
176
     1
290
     0
176
     1
290
     0
176
     1
290
     0
176
     1
 90
       50
176
     1
 40
0.0
176
     1
 40
1.0
176
     1
 90
        0
176
     1
 62
    18
420
        0
176
     1
 90
       50
176
     1
 90
        3
176
     1
 62
     5
420
      255
176
     1
290
     0
176
     1
 90
       50
176
     1
 90
       50
176
     1
 90
       50
176
     1
290
     0
176
     1
 90
       50
176
     1
 62
   256
176
     0
 40
1.0
176
     0
 90
        2
176
     1
  1
strokes_ogs.tif
176
     1
290
     0
176
     1
 40
1.0
176
     1
 40
1.0
176
     1
1001
ACAD
1000
AcDbSavedByObjectVersion
1070
     0
  0
VISUALSTYLE
  5
32
102
{ACAD_REACTORS
330
29
102
}
330
29
100
AcDbVisualStyle
  2
Conceptual
 70
     9
177
     3
291
     0
 70
    58
 90
        3
176
     1
 90
        2
176
     1
 90
        0
176
     1
 90
        0
176
     1
 40
0.6
176
     1
 40
30.0
176
     1
 62
     7
420
 16777215
176
     1
 90
        2
176
     1
 90
        2
176
     1
 62
     7
176
     1
 62
   257
176
     1
 90
        1
176
     1
 90
        1
176
     1
 40
179.0
176
     1
 90
        8
176
     1
 62
     7
176
     1
 40
1.0
176
     1
 90
        1
176
     1
 90
        6
176
     1
 90
        2
176
     1
 62
     7
176
     1
 90
        3
176
     1
 90
        0
176
     1
 90
        0
176
     1
290
     0
176
     1
 90
        1
176
     1
 40
0.0
176
     1
 90
        0
176
     1
290
     0
176
     1
290
     1
176
     1
290
     1
176
     1
290
     0
176
     1
290
     0
176
     1
290
     0
176
     1
290
     0
176
     1
290
     0
176
     1
290
     0
176
     1
 90
       50
176
     1
 40
0.0
176
     1
 40
1.0
176
     1
 90
        0
176
     1
 62
    18
420
        0
176
     1
 90
       50
176
     1
 90
        3
176
     1
 62
     5
420
      255
176
     1
290
     0
176
     1
 90
       50
176
     1
 90
       50
176
     1
 90
       50
176
     1
290
     0
176
     1
 90
       50
176
     1
 62
   256
176
     0
 40
1.0
176
     0
 90
        2
176
     1
  1
strokes_ogs.tif
176
     1
290
     0
176
     1
 40
1.0
176
     1
 40
1.0
176
     1
1001
ACAD
1000
AcDbSavedByObjectVersion
1070
     0
  0
VISUALSTYLE
  5
34
102
{ACAD_REACTORS
330
29
102
}
330
29
100
AcDbVisualStyle
  2
Dim
 70
    11
177
     3
291
     1
 70
    58
 90
        2
176
     1
 90
        2
176
     1
 90
        0
176
     1
 90
        0
176
     1
 40
0.6
176
     1
 40
30.0
176
     1
 62
     7
420
 16777215
176
     1
 90
        1
176
     1
 90
        4
176
     1
 62
     7
176
     1
 62
   257
176
     1
 90
        1
176
     1
 90
        1
176
     1
 40
1.0
176
     1
 90
        8
176
     1
 62
     7
176
     1
 40
1.0
176
     1
 90
        1
176
     1
 90
        6
176
     1
 90
        2
176
     1
 62
     7
176
     1
 90
        5
176
     1
 90
        0
176
     1
 90
        0
176
     1
290
     0
176
     1
 90
        1
176
     1
 40
-50.0
176
     1
 90
        0
176
     1
290
     0
176
     1
290
     1
176
     1
290
     1
176
     1
290
     0
176
     1
290
     0
176
     1
290
     0
176
     1
290
     0
176
     1
290
     0
176
     1
290
     0
176
     1
 90
       50
176
     1
 40
0.0
176
     1
 40
1.0
176
     1
 90
        0
176
     1
 62
    18
420
        0
176
     1
 90
       50
176
     1
 90
        3
176
     1
 62
     5
420
      255
176
     1
290
     0
176
     1
 90
       50
176
     1
 90
       50
176
     1
 90
       50
176
     1
290
     0
176
     1
 90
       50
176
     1
 62
   256
176
     0
 40
1.0
176
     0
 90
        2
176
     1
  1
strokes_ogs.tif
176
     1
290
     0
176
     1
 40
1.0
176
     1
 40
1.0
176
     1
1001
ACAD
1000
AcDbSavedByObjectVersion
1070
     0
  0
VISUALSTYLE
  5
41
102
{ACAD_REACTORS
330
29
102
}
330
29
100
AcDbVisualStyle
  2
EdgeColorOff
 70
    22
177
     3
291
     1
 70
    58
 90
        2
176
     0
 90
        2
176
     0
 90
        0
176
     0
 90
        0
176
     0
 40
0.6
176
     0
 40
30.0
176
     0
 62
     7
420
 16777215
176
     0
 90
        1
176
     0
 90
        4
176
     0
 62
     7
176
     0
 62
   257
176
     0
 90
        1
176
     0
 90
        1
176
     0
 40
1.0
176
     0
 90
        8
176
     2
 62
     7
176
     0
 40
1.0
176
     0
 90
        1
176
     0
 90
        6
176
     0
 90
        2
176
     0
 62
     7
176
     0
 90
        5
176
     0
 90
        0
176
     0
 90
        0
176
     0
290
     0
176
     0
 90
        1
176
     0
 40
0.0
176
     0
 90
        0
176
     0
290
     0
176
     0
290
     1
176
     0
290
     1
176
     0
290
     0
176
     0
290
     0
176
     0
290
     0
176
     0
290
     0
176
     0
290
     0
176
     0
290
     0
176
     0
 90
       50
176
     0
 40
0.0
176
     0
 40
1.0
176
     0
 90
        0
176
     0
 62
    18
420
        0
176
     0
 90
       50
176
     0
 90
        3
176
     0
 62
     5
420
      255
176
     0
290
     0
176
     0
 90
       50
176
     0
 90
       50
176
     0
 90
       50
176
     0
290
     0
176
     0
 90
       50
176
     0
 62
   256
176
     0
 40
1.0
176
     0
 90
        2
176
     0
  1
strokes_ogs.tif
176
     0
290
     0
176
     0
 40
1.0
176
     0
 40
1.0
176
     0
1001
ACAD
1000
AcDbSavedByObjectVersion
1070
     0
  0
VISUALSTYLE
  5
38
102
{ACAD_REACTORS
330
29
102
}
330
29
100
AcDbVisualStyle
  2
Facepattern
 70
    15
177
     3
291
     1
 70
    58
 90
        2
176
     1
 90
        2
176
     1
 90
        0
176
     1
 90
        0
176
     1
 40
0.6
176
     1
 40
30.0
176
     1
 62
     7
420
 16777215
176
     1
 90
        1
176
     1
 90
        4
176
     1
 62
     7
176
     1
 62
   257
176
     1
 90
        1
176
     1
 90
        1
176
     1
 40
1.0
176
     1
 90
        8
176
     1
 62
     7
176
     1
 40
1.0
176
     1
 90
        1
176
     1
 90
        6
176
     1
 90
        2
176
     1
 62
     7
176
     1
 90
        5
176
     1
 90
        0
176
     1
 90
        0
176
     1
290
     0
176
     1
 90
        1
176
     1
 40
0.0
176
     1
 90
        0
176
     1
290
     0
176
     1
290
     1
176
     1
290
     1
176
     1
290
     0
176
     1
290
     0
176
     1
290
     0
176
     1
290
     0
176
     1
290
     0
176
     1
290
     0
176
     1
 90
       50
176
     1
 40
0.0
176
     1
 40
1.0
176
     1
 90
        0
176
     1
 62
    18
420
        0
176
     1
 90
       50
176
     1
 90
        3
176
     1
 62
     5
420
      255
176
     1
290
     0
176
     1
 90
       50
176
     1
 90
       50
176
     1
 90
       50
176
     1
290
     0
176
     1
 90
       50
176
     1
 62
   256
176
     0
 40
1.0
176
     0
 90
        2
176
     1
  1
strokes_ogs.tif
176
     1
290
     0
176
     1
 40
1.0
176
     1
 40
1.0
176
     1
1001
ACAD
1000
AcDbSavedByObjectVersion
1070
     0
  0
VISUALSTYLE
  5
2A
102
{ACAD_REACTORS
330
29
102
}
330
29
100
AcDbVisualStyle
  2
Flat
 70
     0
177
     3
291
     1
 70
    58
 90
        2
176
     1
 90
        1
176
     1
 90
        1
176
     1
 90
        2
176
     1
 40
0.6
176
     1
 40
30.0
176
     1
 62
     7
420
 16777215
176
     1
 90
        0
176
     1
 90
        0
176
     1
 62
     7
176
     1
 62
   257
176
     1
 90
        1
176
     1
 90
        1
176
     1
 40
1.0
176
     1
 90
        8
176
     1
 62
     7
176
     1
 40
1.0
176
     1
 90
        1
176
     1
 90
        6
176
     1
 90
        2
176
     1
 62
     7
176
     1
 90
        5
176
     1
 90
        0
176
     1
 90
        0
176
     1
290
     0
176
     1
 90
       13
176
     1
 40
0.0
176
     1
 90
        0
176
     1
290
     0
176
     1
290
     1
176
     1
290
     1
176
     1
290
     0
176
     1
290
     0
176
     1
290
     0
176
     1
290
     0
176
     1
290
     0
176
     1
290
     0
176
     1
 90
       50
176
     1
 40
0.0
176
     1
 40
1.0
176
     1
 90
        0
176
     1
 62
    18
420
        0
176
     1
 90
       50
176
     1
 90
        3
176
     1
 62
     5
420
      255
176
     1
290
     0
176
     1
 90
       50
176
     1
 90
       50
176
     1
 90
       50
176
     1
290
     0
176
     1
 90
       50
176
     1
 62
   256
176
     0
 40
1.0
176
     0
 90
        2
176
     1
  1
strokes_ogs.tif
176
     1
290
     0
176
     1
 40
1.0
176
     1
 40
1.0
176
     1
1001
ACAD
1000
AcDbSavedByObjectVersion
1070
     0
  0
VISUALSTYLE
  5
2B
102
{ACAD_REACTORS
330
29
102
}
330
29
100
AcDbVisualStyle
  2
FlatWithEdges
 70
     1
177
     3
291
     1
 70
    58
 90
        2
176
     1
 90
        1
176
     1
 90
        1
176
     1
 90
        2
176
     1
 40
0.6
176
     1
 40
30.0
176
     1
 62
     7
420
 16777215
176
     1
 90
        1
176
     1
 90
        0
176
     1
 62
     7
176
     1
 62
   257
176
     1
 90
        1
176
     1
 90
        1
176
     1
 40
1.0
176
     1
 90
        0
176
     1
 62
   257
176
     1
 40
1.0
176
     1
 90
        1
176
     1
 90
        6
176
     1
 90
        2
176
     1
 62
     7
176
     1
 90
        5
176
     1
 90
        0
176
     1
 90
        0
176
     1
290
     0
176
     1
 90
       13
176
     1
 40
0.0
176
     1
 90
        0
176
     1
290
     0
176
     1
290
     1
176
     1
290
     1
176
     1
290
     0
176
     1
290
     0
176
     1
290
     0
176
     1
290
     0
176
     1
290
     0
176
     1
290
     0
176
     1
 90
       50
176
     1
 40
0.0
176
     1
 40
1.0
176
     1
 90
        0
176
     1
 62
    18
420
        0
176
     1
 90
       50
176
     1
 90
        3
176
     1
 62
     5
420
      255
176
     1
290
     0
176
     1
 90
       50
176
     1
 90
       50
176
     1
 90
       50
176
     1
290
     0
176
     1
 90
       50
176
     1
 62
   256
176
     0
 40
1.0
176
     0
 90
        2
176
     1
  1
strokes_ogs.tif
176
     1
290
     0
176
     1
 40
1.0
176
     1
 40
1.0
176
     1
1001
ACAD
1000
AcDbSavedByObjectVersion
1070
     0
  0
VISUALSTYLE
  5
2C
102
{ACAD_REACTORS
330
29
102
}
330
29
100
AcDbVisualStyle
  2
Gouraud
 70
     2
177
     3
291
     1
 70
    58
 90
        2
176
     1
 90
        2
176
     1
 90
        1
176
     1
 90
        2
176
     1
 40
0.6
176
     1
 40
30.0
176
     1
 62
     7
420
 16777215
176
     1
 90
        0
176
     1
 90
        0
176
     1
 62
     7
176
     1
 62
   257
176
     1
 90
        1
176
     1
 90
        1
176
     1
 40
1.0
176
     1
 90
        0
176
     1
 62
     7
176
     1
 40
1.0
176
     1
 90
        1
176
     1
 90
        6
176
     1
 90
        2
176
     1
 62
     7
176
     1
 90
        5
176
     1
 90
        0
176
     1
 90
        0
176
     1
290
     0
176
     1
 90
       13
176
     1
 40
0.0
176
     1
 90
        0
176
     1
290
     0
176
     1
290
     1
176
     1
290
     1
176
     1
290
     0
176
     1
290
     0
176
     1
290
     0
176
     1
290
     0
176
     1
290
     0
176
     1
290
     0
176
     1
 90
       50
176
     1
 40
0.0
176
     1
 40
1.0
176
     1
 90
        0
176
     1
 62
    18
420
        0
176
     1
 90
       50
176
     1
 90
        3
176
     1
 62
     5
420
      255
176
     1
290
     0
176
     1
 90
       50
176
     1
 90
       50
176
     1
 90
       50
176
     1
290
     0
176
     1
 90
       50
176
     1
 62
   256
176
     0
 40
1.0
176
     0
 90
        2
176
     1
  1
strokes_ogs.tif
176
     1
290
     0
176
     1
 40
1.0
176
     1
 40
1.0
176
     1
1001
ACAD
1000
AcDbSavedByObjectVersion
1070
     0
  0
VISUALSTYLE
  5
2D
102
{ACAD_REACTORS
330
29
102
}
330
29
100
AcDbVisualStyle
  2
GouraudWithEdges
 70
     3
177
     3
291
     1
 70
    58
 90
        2
176
     1
 90
        2
176
     1
 90
        1
176
     1
 90
        2
176
     1
 40
0.6
176
     1
 40
30.0
176
     1
 62
     7
420
 16777215
176
     1
 90
        1
176
     1
 90
        0
176
     1
 62
     7
176
     1
 62
   257
176
     1
 90
        1
176
     1
 90
        1
176
     1
 40
1.0
176
     1
 90
        0
176
     1
 62
   257
176
     1
 40
1.0
176
     1
 90
        1
176
     1
 90
        6
176
     1
 90
        2
176
     1
 62
     7
176
     1
 90
        5
176
     1
 90
        0
176
     1
 90
        0
176
     1
290
     0
176
     1
 90
       13
176
     1
 40
0.0
176
     1
 90
        0
176
     1
290
     0
176
     1
290
     1
176
     1
290
     1
176
     1
290
     0
176
     1
290
     0
176
     1
290
     0
176
     1
290
     0
176
     1
290
     0
176
     1
290
     0
176
     1
 90
       50
176
     1
 40
0.0
176
     1
 40
1.0
176
     1
 90
        0
176
     1
 62
    18
420
        0
176
     1
 90
       50
176
     1
 90
        3
176
     1
 62
     5
420
      255
176
     1
290
     0
176
     1
 90
       50
176
     1
 90
       50
176
     1
 90
       50
176
     1
290
     0
176
     1
 90
       50
176
     1
 62
   256
176
     0
 40
1.0
176
     0
 90
        2
176
     1
  1
strokes_ogs.tif
176
     1
290
     0
176
     1
 40
1.0
176
     1
 40
1.0
176
     1
1001
ACAD
1000
AcDbSavedByObjectVersion
1070
     0
  0
VISUALSTYLE
  5
31
102
{ACAD_REACTORS
330
29
102
}
330
29
100
AcDbVisualStyle
  2
Hidden
 70
     6
177
     3
291
     0
 70
    58
 90
        1
176
     1
 90
        2
176
     1
 90
        2
176
     1
 90
        0
176
     1
 40
0.6
176
     1
 40
30.0
176
     1
 62
     7
420
 16777215
176
     1
 90
        2
176
     1
 90
        2
176
     1
 62
     7
176
     1
 62
   257
176
     1
 90
        2
176
     1
 90
        1
176
     1
 40
40.0
176
     1
 90
        0
176
     1
 62
   257
176
     1
 40
1.0
176
     1
 90
        1
176
     1
 90
        6
176
     1
 90
        2
176
     1
 62
     7
176
     1
 90
        3
176
     1
 90
        0
176
     1
 90
        0
176
     1
290
     0
176
     1
 90
        1
176
     1
 40
0.0
176
     1
 90
        0
176
     1
290
     0
176
     1
290
     1
176
     1
290
     1
176
     1
290
     0
176
     1
290
     0
176
     1
290
     0
176
     1
290
     0
176
     1
290
     0
176
     1
290
     0
176
     1
 90
       50
176
     1
 40
0.0
176
     1
 40
1.0
176
     1
 90
        0
176
     1
 62
    18
420
        0
176
     1
 90
       50
176
     1
 90
        3
176
     1
 62
     5
420
      255
176
     1
290
     0
176
     1
 90
       50
176
     1
 90
       50
176
     1
 90
       50
176
     1
290
     0
176
     1
 90
       50
176
     1
 62
   256
176
     0
 40
1.0
176
     0
 90
        2
176
     1
  1
strokes_ogs.tif
176
     1
290
     0
176
     1
 40
1.0
176
     1
 40
1.0
176
     1
1001
ACAD
1000
AcDbSavedByObjectVersion
1070
     0
  0
VISUALSTYLE
  5
3F
102
{ACAD_REACTORS
330
29
102
}
330
29
100
AcDbVisualStyle
  2
JitterOff
 70
    20
177
     3
291
     1
 70
    58
 90
        2
176
     0
 90
        2
176
     0
 90
        0
176
     0
 90
        0
176
     0
 40
0.6
176
     0
 40
30.0
176
     0
 62
     7
420
 16777215
176
     0
 90
        1
176
     0
 90
        4
176
     0
 62
     7
176
     0
 62
   257
176
     0
 90
        1
176
     0
 90
        1
176
     0
 40
1.0
176
     0
 90
       10
176
     2
 62
     7
176
     0
 40
1.0
176
     0
 90
        1
176
     0
 90
        6
176
     0
 90
        2
176
     0
 62
     7
176
     0
 90
        5
176
     0
 90
        0
176
     0
 90
        0
176
     0
290
     0
176
     0
 90
        1
176
     0
 40
0.0
176
     0
 90
        0
176
     0
290
     0
176
     0
290
     1
176
     0
290
     1
176
     0
290
     0
176
     0
290
     0
176
     0
290
     0
176
     0
290
     0
176
     0
290
     0
176
     0
290
     0
176
     0
 90
       50
176
     0
 40
0.0
176
     0
 40
1.0
176
     0
 90
        0
176
     0
 62
    18
420
        0
176
     0
 90
       50
176
     0
 90
        3
176
     0
 62
     5
420
      255
176
     0
290
     0
176
     0
 90
       50
176
     0
 90
       50
176
     0
 90
       50
176
     0
290
     0
176
     0
 90
       50
176
     0
 62
   256
176
     0
 40
1.0
176
     0
 90
        2
176
     0
  1
strokes_ogs.tif
176
     0
290
     0
176
     0
 40
1.0
176
     0
 40
1.0
176
     0
1001
ACAD
1000
AcDbSavedByObjectVersion
1070
     0
  0
VISUALSTYLE
  5
37
102
{ACAD_REACTORS
330
29
102
}
330
29
100
AcDbVisualStyle
  2
Linepattern
 70
    14
177
     3
291
     1
 70
    58
 90
        2
176
     1
 90
        2
176
     1
 90
        0
176
     1
 90
        0
176
     1
 40
0.6
176
     1
 40
30.0
176
     1
 62
     7
420
 16777215
176
     1
 90
        1
176
     1
 90
        4
176
     1
 62
     7
176
     1
 62
   257
176
     1
 90
        7
176
     1
 90
        7
176
     1
 40
1.0
176
     1
 90
        8
176
     1
 62
     7
176
     1
 40
1.0
176
     1
 90
        1
176
     1
 90
        6
176
     1
 90
        2
176
     1
 62
     7
176
     1
 90
        5
176
     1
 90
        0
176
     1
 90
        0
176
     1
290
     0
176
     1
 90
        1
176
     1
 40
0.0
176
     1
 90
        0
176
     1
290
     0
176
     1
290
     1
176
     1
290
     1
176
     1
290
     0
176
     1
290
     0
176
     1
290
     0
176
     1
290
     0
176
     1
290
     0
176
     1
290
     0
176
     1
 90
       50
176
     1
 40
0.0
176
     1
 40
1.0
176
     1
 90
        0
176
     1
 62
    18
420
        0
176
     1
 90
       50
176
     1
 90
        3
176
     1
 62
     5
420
      255
176
     1
290
     0
176
     1
 90
       50
176
     1
 90
       50
176
     1
 90
       50
176
     1
290
     0
176
     1
 90
       50
176
     1
 62
   256
176
     0
 40
1.0
176
     0
 90
        2
176
     1
  1
strokes_ogs.tif
176
     1
290
     0
176
     1
 40
1.0
176
     1
 40
1.0
176
     1
1001
ACAD
1000
AcDbSavedByObjectVersion
1070
     0
  0
VISUALSTYLE
  5
40
102
{ACAD_REACTORS
330
29
102
}
330
29
100
AcDbVisualStyle
  2
OverhangOff
 70
    21
177
     3
291
     1
 70
    58
 90
        2
176
     0
 90
        2
176
     0
 90
        0
176
     0
 90
        0
176
     0
 40
0.6
176
     0
 40
30.0
176
     0
 62
     7
420
 16777215
176
     0
 90
        1
176
     0
 90
        4
176
     0
 62
     7
176
     0
 62
   257
176
     0
 90
        1
176
     0
 90
        1
176
     0
 40
1.0
176
     0
 90
        9
176
     2
 62
     7
176
     0
 40
1.0
176
     0
 90
        1
176
     0
 90
        6
176
     0
 90
        2
176
     0
 62
     7
176
     0
 90
        5
176
     0
 90
        0
176
     0
 90
        0
176
     0
290
     0
176
     0
 90
        1
176
     0
 40
0.0
176
     0
 90
        0
176
     0
290
     0
176
     0
290
     1
176
     0
290
     1
176
     0
290
     0
176
     0
290
     0
176
     0
290
     0
176
     0
290
     0
176
     0
290
     0
176
     0
290
     0
176
     0
 90
       50
176
     0
 40
0.0
176
     0
 40
1.0
176
     0
 90
        0
176
     0
 62
    18
420
        0
176
     0
 90
       50
176
     0
 90
        3
176
     0
 62
     5
420
      255
176
     0
290
     0
176
     0
 90
       50
176
     0
 90
       50
176
     0
 90
       50
176
     0
290
     0
176
     0
 90
       50
176
     0
 62
   256
176
     0
 40
1.0
176
     0
 90
        2
176
     0
  1
strokes_ogs.tif
176
     0
290
     0
176
     0
 40
1.0
176
     0
 40
1.0
176
     0
1001
ACAD
1000
AcDbSavedByObjectVersion
1070
     0
  0
VISUALSTYLE
  5
33
102
{ACAD_REACTORS
330
29
102
}
330
29
100
AcDbVisualStyle
  2
Realistic
 70
     8
177
     3
291
     0
 70
    58
 90
        2
176
     1
 90
        3
176
     1
 90
        0
176
     1
 90
        2
176
     1
 40
0.6
176
     1
 40
30.0
176
     1
 62
     7
420
 16777215
176
     1
 90
        0
176
     1
 90
        0
176
     1
 62
     7
176
     1
 62
   257
176
     1
 90
        1
176
     1
 90
        1
176
     1
 40
1.0
176
     1
 90
        8
176
     1
 62
   257
176
     1
 40
1.0
176
     1
 90
        1
176
     1
 90
        6
176
     1
 90
        2
176
     1
 62
     7
176
     1
 90
        3
176
     1
 90
        0
176
     1
 90
        0
176
     1
290
     0
176
     1
 90
       13
176
     1
 40
0.0
176
     1
 90
        0
176
     1
290
     0
176
     1
290
     1
176
     1
290
     1
176
     1
290
     0
176
     1
290
     0
176
     1
290
     0
176
     1
290
     0
176
     1
290
     0
176
     1
290
     0
176
     1
 90
       50
176
     1
 40
0.0
176
     1
 40
1.0
176
     1
 90
        0
176
     1
 62
    18
420
        0
176
     1
 90
       50
176
     1
 90
        3
176
     1
 62
     5
420
      255
176
     1
290
     0
176
     1
 90
       50
176
     1
 90
       50
176
     1
 90
       50
176
     1
290
     0
176
     1
 90
       50
176
     1
 62
   256
176
     0
 40
1.0
176
     0
 90
        2
176
     1
  1
strokes_ogs.tif
176
     1
290
     0
176
     1
 40
1.0
176
     1
 40
1.0
176
     1
1001
ACAD
1000
AcDbSavedByObjectVersion
1070
     0
  0
VISUALSTYLE
  5
3E
102
{ACAD_REACTORS
330
29
102
}
330
29
100
AcDbVisualStyle
  2
Shaded
 70
    27
177
     3
291
     0
 70
    58
 90
        2
176
     1
 90
        2
176
     1
 90
        1
176
     1
 90
        2
176
     1
 40
0.6
176
     1
 40
30.0
176
     1
 62
     7
420
 16777215
176
     1
 90
        0
176
     1
 90
        4
176
     1
 62
     7
176
     1
 62
   257
176
     1
 90
        1
176
     1
 90
        1
176
     1
 40
1.0
176
     1
 90
        8
176
     1
 62
   257
176
     1
 40
1.0
176
     1
 90
        1
176
     1
 90
        6
176
     1
 90
        2
176
     1
 62
     8
420
  7895160
176
     1
 90
        3
176
     1
 90
        0
176
     1
 90
        0
176
     1
290
     0
176
     1
 90
        5
176
     1
 40
0.0
176
     1
 90
        0
176
     1
290
     0
176
     1
290
     1
176
     1
290
     1
176
     1
290
     0
176
     1
290
     0
176
     1
290
     0
176
     1
290
     0
176
     1
290
     0
176
     1
290
     0
176
     1
 90
       50
176
     1
 40
0.0
176
     1
 40
1.0
176
     1
 90
        0
176
     1
 62
    18
420
        0
176
     1
 90
       50
176
     1
 90
        3
176
     1
 62
     5
420
      255
176
     1
290
     0
176
     1
 90
       50
176
     1
 90
       50
176
     1
 90
       50
176
     1
290
     0
176
     1
 90
       50
176
     1
 62
   256
176
     0
 40
1.0
176
     0
 90
        2
176
     1
  1
strokes_ogs.tif
176
     1
290
     0
176
     1
 40
1.0
176
     1
 40
1.0
176
     1
1001
ACAD
1000
AcDbSavedByObjectVersion
1070
     0
  0
VISUALSTYLE
  5
3D
102
{ACAD_REACTORS
330
29
102
}
330
29
100
AcDbVisualStyle
  2
Shaded with edges
 70
    26
177
     3
291
     0
 70
    58
 90
        2
176
     1
 90
        2
176
     1
 90
        1
176
     1
 90
        2
176
     1
 40
0.6
176
     1
 40
30.0
176
     1
 62
     7
420
 16777215
176
     1
 90
        1
176
     1
 90
        2
176
     1
 62
     7
176
     1
 62
   257
176
     1
 90
        2
176
     1
 90
        1
176
     1
 40
1.0
176
     1
 90
        8
176
     1
 62
   257
176
     1
 40
1.0
176
     1
 90
        1
176
     1
 90
        6
176
     1
 90
        2
176
     1
 62
     7
176
     1
 90
        3
176
     1
 90
        0
176
     1
 90
        0
176
     1
290
     0
176
     1
 90
        5
176
     1
 40
0.0
176
     1
 90
        0
176
     1
290
     0
176
     1
290
     1
176
     1
290
     1
176
     1
290
     0
176
     1
290
     0
176
     1
290
     0
176
     1
290
     0
176
     1
290
     0
176
     1
290
     0
176
     1
 90
       50
176
     1
 40
0.0
176
     1
 40
1.0
176
     1
 90
        0
176
     1
 62
    18
420
        0
176
     1
 90
       50
176
     1
 90
        3
176
     1
 62
     5
420
      255
176
     1
290
     0
176
     1
 90
       50
176
     1
 90
       50
176
     1
 90
       50
176
     1
290
     0
176
     1
 90
       50
176
     1
 62
   256
176
     0
 40
1.0
176
     0
 90
        2
176
     1
  1
strokes_ogs.tif
176
     1
290
     0
176
     1
 40
1.0
176
     1
 40
1.0
176
     1
1001
ACAD
1000
AcDbSavedByObjectVersion
1070
     0
  0
VISUALSTYLE
  5
3A
102
{ACAD_REACTORS
330
29
102
}
330
29
100
AcDbVisualStyle
  2
Shades of Gray
 70
    23
177
     3
291
     0
 70
    58
 90
        2
176
     1
 90
        2
176
     1
 90
        3
176
     1
 90
        0
176
     1
 40
0.6
176
     1
 40
30.0
176
     1
 62
     7
420
 16777215
176
     1
 90
        2
176
     1
 90
        2
176
     1
 62
     7
176
     1
 62
     7
176
     1
 90
        1
176
     1
 90
        1
176
     1
 40
40.0
176
     1
 90
        8
176
     1
 62
     7
176
     1
 40
1.0
176
     1
 90
        1
176
     1
 90
        6
176
     1
 90
        2
176
     1
 62
     7
176
     1
 90
        3
176
     1
 90
        0
176
     1
 90
        0
176
     1
290
     0
176
     1
 90
        1
176
     1
 40
0.0
176
     1
 90
        0
176
     1
290
     0
176
     1
290
     1
176
     1
290
     1
176
     1
290
     0
176
     1
290
     0
176
     1
290
     0
176
     1
290
     0
176
     1
290
     0
176
     1
290
     0
176
     1
 90
       50
176
     1
 40
0.0
176
     1
 40
1.0
176
     1
 90
        0
176
     1
 62
    18
420
        0
176
     1
 90
       50
176
     1
 90
        3
176
     1
 62
     5
420
      255
176
     1
290
     0
176
     1
 90
       50
176
     1
 90
       50
176
     1
 90
       50
176
     1
290
     0
176
     1
 90
       50
176
     1
 62
   256
176
     0
 40
1.0
176
     0
 90
        2
176
     1
  1
strokes_ogs.tif
176
     1
290
     0
176
     1
 40
1.0
176
     1
 40
1.0
176
     1
1001
ACAD
1000
AcDbSavedByObjectVersion
1070
     0
  0
VISUALSTYLE
  5
3B
102
{ACAD_REACTORS
330
29
102
}
330
29
100
AcDbVisualStyle
  2
Sketchy
 70
    24
177
     3
291
     0
 70
    58
 90
        1
176
     1
 90
        2
176
     1
 90
        2
176
     1
 90
        0
176
     1
 40
0.6
176
     1
 40
30.0
176
     1
 62
     7
420
 16777215
176
     1
 90
        2
176
     1
 90
        2
176
     1
 62
     7
176
     1
 62
     7
176
     1
 90
        1
176
     1
 90
        1
176
     1
 40
40.0
176
     1
 90
       11
176
     1
 62
     7
176
     1
 40
1.0
176
     1
 90
        1
176
     1
 90
        6
176
     1
 90
        2
176
     1
 62
     7
176
     1
 90
        6
176
     1
 90
        0
176
     1
 90
        0
176
     1
290
     0
176
     1
 90
        1
176
     1
 40
0.0
176
     1
 90
        0
176
     1
290
     0
176
     1
290
     1
176
     1
290
     1
176
     1
290
     0
176
     1
290
     0
176
     1
290
     0
176
     1
290
     0
176
     1
290
     0
176
     1
290
     0
176
     1
 90
       50
176
     1
 40
0.0
176
     1
 40
1.0
176
     1
 90
        0
176
     1
 62
    18
420
        0
176
     1
 90
       50
176
     1
 90
        3
176
     1
 62
     5
420
      255
176
     1
290
     0
176
     1
 90
       50
176
     1
 90
       50
176
     1
 90
       50
176
     1
290
     0
176
     1
 90
       50
176
     1
 62
   256
176
     0
 40
1.0
176
     0
 90
        2
176
     1
  1
strokes_ogs.tif
176
     1
290
     0
176
     1
 40
1.0
176
     1
 40
1.0
176
     1
1001
ACAD
1000
AcDbSavedByObjectVersion
1070
     0
  0
VISUALSTYLE
  5
36
102
{ACAD_REACTORS
330
29
102
}
330
29
100
AcDbVisualStyle
  2
Thicken
 70
    13
177
     3
291
     1
 70
    58
 90
        2
176
     1
 90
        2
176
     1
 90
        0
176
     1
 90
        0
176
     1
 40
0.6
176
     1
 40
30.0
176
     1
 62
     7
420
 16777215
176
     1
 90
        1
176
     1
 90
        4
176
     1
 62
     7
176
     1
 62
   257
176
     1
 90
        1
176
     1
 90
        1
176
     1
 40
1.0
176
     1
 90
       12
176
     1
 62
     7
176
     1
 40
1.0
176
     1
 90
        1
176
     1
 90
        6
176
     1
 90
        2
176
     1
 62
     7
176
     1
 90
        5
176
     1
 90
        0
176
     1
 90
        0
176
     1
290
     0
176
     1
 90
        1
176
     1
 40
0.0
176
     1
 90
        0
176
     1
290
     0
176
     1
290
     1
176
     1
290
     1
176
     1
290
     0
176
     1
290
     0
176
     1
290
     0
176
     1
290
     0
176
     1
290
     0
176
     1
290
     0
176
     1
 90
       50
176
     1
 40
0.0
176
     1
 40
1.0
176
     1
 90
        0
176
     1
 62
    18
420
        0
176
     1
 90
       50
176
     1
 90
        3
176
     1
 62
     5
420
      255
176
     1
290
     0
176
     1
 90
       50
176
     1
 90
       50
176
     1
 90
       50
176
     1
290
     0
176
     1
 90
       50
176
     1
 62
   256
176
     0
 40
1.0
176
     0
 90
        2
176
     1
  1
strokes_ogs.tif
176
     1
290
     0
176
     1
 40
1.0
176
     1
 40
1.0
176
     1
1001
ACAD
1000
AcDbSavedByObjectVersion
1070
     0
  0
VISUALSTYLE
  5
30
102
{ACAD_REACTORS
330
29
102
}
330
29
100
AcDbVisualStyle
  2
Wireframe
 70
     5
177
     3
291
     0
 70
    58
 90
        0
176
     1
 90
        2
176
     1
 90
        0
176
     1
 90
        0
176
     1
 40
0.6
176
     1
 40
30.0
176
     1
 62
     7
420
 16777215
176
     1
 90
        1
176
     1
 90
        4
176
     1
 62
     7
176
     1
 62
   257
176
     1
 90
        1
176
     1
 90
        1
176
     1
 40
1.0
176
     1
 90
        0
176
     1
 62
   257
176
     1
 40
1.0
176
     1
 90
        1
176
     1
 90
        6
176
     1
 90
        2
176
     1
 62
     7
176
     1
 90
        3
176
     1
 90
        0
176
     1
 90
        0
176
     1
290
     0
176
     1
 90
        1
176
     1
 40
0.0
176
     1
 90
        0
176
     1
290
     0
176
     1
290
     1
176
     1
290
     1
176
     1
290
     0
176
     1
290
     0
176
     1
290
     0
176
     1
290
     0
176
     1
290
     0
176
     1
290
     0
176
     1
 90
       50
176
     1
 40
0.0
176
     1
 40
1.0
176
     1
 90
        0
176
     1
 62
    18
420
        0
176
     1
 90
       50
176
     1
 90
        3
176
     1
 62
     5
420
      255
176
     1
290
     0
176
     1
 90
       50
176
     1
 90
       50
176
     1
 90
       50
176
     1
290
     0
176
     1
 90
       50
176
     1
 62
   256
176
     0
 40
1.0
176
     0
 90
        2
176
     1
  1
strokes_ogs.tif
176
     1
290
     0
176
     1
 40
1.0
176
     1
 40
1.0
176
     1
1001
ACAD
1000
AcDbSavedByObjectVersion
1070
     0
  0
VISUALSTYLE
  5
3C
102
{ACAD_REACTORS
330
29
102
}
330
29
100
AcDbVisualStyle
  2
X-Ray
 70
    25
177
     3
291
     0
 70
    58
 90
        2
176
     1
 90
        2
176
     1
 90
        1
176
     1
 90
        1
176
     1
 40
0.5
176
     1
 40
30.0
176
     1
 62
     7
420
 16777215
176
     1
 90
        1
176
     1
 90
        0
176
     1
 62
     7
176
     1
 62
   257
176
     1
 90
        1
176
     1
 90
        1
176
     1
 40
1.0
176
     1
 90
        8
176
     1
 62
     7
176
     1
 40
1.0
176
     1
 90
        1
176
     1
 90
        6
176
     1
 90
        2
176
     1
 62
     7
176
     1
 90
        3
176
     1
 90
        0
176
     1
 90
        0
176
     1
290
     0
176
     1
 90
       13
176
     1
 40
0.0
176
     1
 90
        0
176
     1
290
     0
176
     1
290
     1
176
     1
290
     1
176
     1
290
     0
176
     1
290
     0
176
     1
290
     0
176
     1
290
     0
176
     1
290
     0
176
     1
290
     0
176
     1
 90
       50
176
     1
 40
0.0
176
     1
 40
1.0
176
     1
 90
        0
176
     1
 62
    18
420
        0
176
     1
 90
       50
176
     1
 90
        3
176
     1
 62
     5
420
      255
176
     1
290
     0
176
     1
 90
       50
176
     1
 90
       50
176
     1
 90
       50
176
     1
290
     0
176
     1
 90
       50
176
     1
 62
   256
176
     0
 40
1.0
176
     0
 90
        2
176
     1
  1
strokes_ogs.tif
176
     1
290
     0
176
     1
 40
1.0
176
     1
 40
1.0
176
     1
1001
ACAD
1000
AcDbSavedByObjectVersion
1070
     0
  0
DICTIONARYVAR
  5
89
102
{ACAD_REACTORS
330
84
102
}
330
84
100
DictionaryVariables
280
     0
  1
1:1
  0
DICTIONARYVAR
  5
86
102
{ACAD_REACTORS
330
84
102
}
330
84
100
DictionaryVariables
280
     0
  1
STANDARD
  0
DICTIONARYVAR
  5
85
102
{ACAD_REACTORS
330
84
102
}
330
84
100
DictionaryVariables
280
     0
  1
STANDARD
  0
DICTIONARYVAR
  5
87
102
{ACAD_REACTORS
330
84
102
}
330
84
100
DictionaryVariables
280
     0
  1
Imperial24
  0
DICTIONARYVAR
  5
88
102
{ACAD_REACTORS
330
84
102
}
330
84
100
DictionaryVariables
280
     0
  1
Imperial24
  0
DICTIONARY
  5
8F
330
6B
100
AcDbDictionary
280
     1
281
     1
  3
ACAD_XREC_ROUNDTRIP
360
90
  0
DICTIONARY
  5
1A
330
19
100
AcDbDictionary
280
     1
281
     1
  3
BUMPTILE
360
1C
  3
DIFFUSETILE
360
1B
  3
OPACITYTILE
360
1F
  3
REFLECTIONTILE
360
1E
  3
REFRACTIONTILE
360
20
  3
SPECULARTILE
360
1D
  0
DICTIONARY
  5
12
330
11
100
AcDbDictionary
280
     1
281
     1
  3
BUMPTILE
360
14
  3
DIFFUSETILE
360
13
  3
OPACITYTILE
360
17
  3
REFLECTIONTILE
360
16
  3
REFRACTIONTILE
360
18
  3
SPECULARTILE
360
15
  0
DICTIONARY
  5
22
330
21
100
AcDbDictionary
280
     1
281
     1
  3
BUMPTILE
360
24
  3
DIFFUSETILE
360
23
  3
OPACITYTILE
360
27
  3
REFLECTIONTILE
360
26
  3
REFRACTIONTILE
360
28
  3
SPECULARTILE
360
25
  0
DICTIONARY
  5
8D
330
69
100
AcDbDictionary
280
     1
281
     1
  3
ACAD_XREC_ROUNDTRIP
360
8E
  0
DICTIONARY
  5
8A
330
65
100
AcDbDictionary
280
     1
281
     1
  3
ACAD_ROUNDTRIP_2008_TABLESTYLE_CELLSTYLEMAP
360
8B
  0
XRECORD
  5
90
102
{ACAD_REACTORS
330
8F
102
}
330
8F
100
AcDbXrecord
280
     1
102
DISPLAYNAME
  1
Imperial24
102
FLAGS
 90
        0
  0
XRECORD
  5
1C
102
{ACAD_REACTORS
330
1A
102
}
330
1A
100
AcDbXrecord
280
     1
270
     1
271
     1
  0
XRECORD
  5
1B
102
{ACAD_REACTORS
330
1A
102
}
330
1A
100
AcDbXrecord
280
     1
270
     1
271
     1
  0
XRECORD
  5
1F
102
{ACAD_REACTORS
330
1A
102
}
330
1A
100
AcDbXrecord
280
     1
270
     1
271
     1
  0
XRECORD
  5
1E
102
{ACAD_REACTORS
330
1A
102
}
330
1A
100
AcDbXrecord
280
     1
270
     1
271
     1
  0
XRECORD
  5
20
102
{ACAD_REACTORS
330
1A
102
}
330
1A
100
AcDbXrecord
280
     1
270
     1
271
     1
  0
XRECORD
  5
1D
102
{ACAD_REACTORS
330
1A
102
}
330
1A
100
AcDbXrecord
280
     1
270
     1
271
     1
  0
XRECORD
  5
14
102
{ACAD_REACTORS
330
12
102
}
330
12
100
AcDbXrecord
280
     1
270
     1
271
     1
  0
XRECORD
  5
13
102
{ACAD_REACTORS
330
12
102
}
330
12
100
AcDbXrecord
280
     1
270
     1
271
     1
  0
XRECORD
  5
17
102
{ACAD_REACTORS
330
12
102
}
330
12
100
AcDbXrecord
280
     1
270
     1
271
     1
  0
XRECORD
  5
16
102
{ACAD_REACTORS
330
12
102
}
330
12
100
AcDbXrecord
280
     1
270
     1
271
     1
  0
XRECORD
  5
18
102
{ACAD_REACTORS
330
12
102
}
330
12
100
AcDbXrecord
280
     1
270
     1
271
     1
  0
XRECORD
  5
15
102
{ACAD_REACTORS
330
12
102
}
330
12
100
AcDbXrecord
280
     1
270
     1
271
     1
  0
XRECORD
  5
24
102
{ACAD_REACTORS
330
22
102
}
330
22
100
AcDbXrecord
280
     1
270
     1
271
     1
  0
XRECORD
  5
23
102
{ACAD_REACTORS
330
22
102
}
330
22
100
AcDbXrecord
280
     1
270
     1
271
     1
  0
XRECORD
  5
27
102
{ACAD_REACTORS
330
22
102
}
330
22
100
AcDbXrecord
280
     1
270
     1
271
     1
  0
XRECORD
  5
26
102
{ACAD_REACTORS
330
22
102
}
330
22
100
AcDbXrecord
280
     1
270
     1
271
     1
  0
XRECORD
  5
28
102
{ACAD_REACTORS
330
22
102
}
330
22
100
AcDbXrecord
280
     1
270
     1
271
     1
  0
XRECORD
  5
25
102
{ACAD_REACTORS
330
22
102
}
330
22
100
AcDbXrecord
280
     1
270
     1
271
     1
  0
XRECORD
  5
8E
102
{ACAD_REACTORS
330
8D
102
}
330
8D
100
AcDbXrecord
280
     1
102
DISPLAYNAME
  1
Imperial24
102
FLAGS
 90
        0
  0
CELLSTYLEMAP
  5
8B
102
{ACAD_REACTORS
330
8A
102
}
330
8A
100
AcDbCellStyleMap
 90
        3
300
CELLSTYLE
  1
TABLEFORMAT_BEGIN
 90
        5
170
     1
 91
        0
 92
    32768
 62
   257
 93
        1
300
CONTENTFORMAT
  1
CONTENTFORMAT_BEGIN
 90
        0
 91
        0
 92
      512
 93
        0
300

 40
0.0
140
1.0
 94
        5
 62
     0
340
55
144
0.25
309
CONTENTFORMAT_END
171
     0
 94
        0
309
TABLEFORMAT_END
  1
CELLSTYLE_BEGIN
 90
        1
 91
        1
300
_TITLE
309
CELLSTYLE_END
300
CELLSTYLE
  1
TABLEFORMAT_BEGIN
 90
        5
170
     1
 91
        0
 92
        0
 62
   257
 93
        1
300
CONTENTFORMAT
  1
CONTENTFORMAT_BEGIN
 90
        0
 91
        0
 92
      512
 93
        0
300

 40
0.0
140
1.0
 94
        5
 62
     0
340
55
144
0.18
309
CONTENTFORMAT_END
171
     0
 94
        0
309
TABLEFORMAT_END
  1
CELLSTYLE_BEGIN
 90
        2
 91
        1
300
_HEADER
309
CELLSTYLE_END
300
CELLSTYLE
  1
TABLEFORMAT_BEGIN
 90
        5
170
     1
 91
        0
 92
        0
 62
   257
 93
        1
300
CONTENTFORMAT
  1
CONTENTFORMAT_BEGIN
 90
        0
 91
        0
 92
      512
 93
        0
300

 40
0.0
140
1.0
 94
        2
 62
     0
340
55
144
0.18
309
CONTENTFORMAT_END
171
     0
 94
        0
309
TABLEFORMAT_END
  1
CELLSTYLE_BEGIN
 90
        3
 91
        2
300
_DATA
309
CELLSTYLE_END
  0
ENDSEC
  0
EOF
