  0
SECTION
  2
HEADER
  9
$ACADVER
  1
AC1027
  9
$ACADMAINTVER
 70
   125
  9
$DWGCODEPAGE
  3
ANSI_1252
  9
$REQUIREDVERSIONS
160
                 0
  9
$INSBASE
 10
0.0
 20
0.0
 30
0.0
  9
$EXTMIN
 10
1.000000000000000E+20
 20
1.000000000000000E+20
 30
1.000000000000000E+20
  9
$EXTMAX
 10
-1.000000000000000E+20
 20
-1.000000000000000E+20
 30
-1.000000000000000E+20
  9
$LIMMIN
 10
0.0
 20
0.0
  9
$LIMMAX
 10
12.0
 20
9.0
  9
$ORTHOMODE
 70
     0
  9
$REGENMODE
 70
     1
  9
$FILLMODE
 70
     1
  9
$QTEXTMODE
 70
     0
  9
$MIRRTEXT
 70
     0
  9
$LTSCALE
 40
1.0
  9
$ATTMODE
 70
     1
  9
$TEXTSIZE
 40
0.2
  9
$TRACEWID
 40
0.05
  9
$TEXTSTYLE
  7
Standard
  9
$CLAYER
  8
0
  9
$CELTYPE
  6
ByLayer
  9
$CECOLOR
 62
   256
  9
$CELTSCALE
 40
1.0
  9
$DISPSILH
 70
     0
  9
$DIMSCALE
 40
1.0
  9
$DIMASZ
 40
0.18
  9
$DIMEXO
 40
0.0625
  9
$DIMDLI
 40
0.38
  9
$DIMRND
 40
0.0
  9
$DIMDLE
 40
0.0
  9
$DIMEXE
 40
0.18
  9
$DIMTP
 40
0.0
  9
$DIMTM
 40
0.0
  9
$DIMTXT
 40
0.18
  9
$DIMCEN
 40
0.09
  9
$DIMTSZ
 40
0.0
  9
$DIMTOL
 70
     0
  9
$DIMLIM
 70
     0
  9
$DIMTIH
 70
     1
  9
$DIMTOH
 70
     1
  9
$DIMSE1
 70
     0
  9
$DIMSE2
 70
     0
  9
$DIMTAD
 70
     0
  9
$DIMZIN
 70
     0
  9
$DIMBLK
  1

  9
$DIMASO
 70
     1
  9
$DIMSHO
 70
     1
  9
$DIMPOST
  1

  9
$DIMAPOST
  1

  9
$DIMALT
 70
     0
  9
$DIMALTD
 70
     2
  9
$DIMALTF
 40
25.4
  9
$DIMLFAC
 40
1.0
  9
$DIMTOFL
 70
     0
  9
$DIMTVP
 40
0.0
  9
$DIMTIX
 70
     0
  9
$DIMSOXD
 70
     0
  9
$DIMSAH
 70
     0
  9
$DIMBLK1
  1

  9
$DIMBLK2
  1

  9
$DIMSTYLE
  2
Standard
  9
$DIMCLRD
 70
     0
  9
$DIMCLRE
 70
     0
  9
$DIMCLRT
 70
     0
  9
$DIMTFAC
 40
1.0
  9
$DIMGAP
 40
0.09
  9
$DIMJUST
 70
     0
  9
$DIMSD1
 70
     0
  9
$DIMSD2
 70
     0
  9
$DIMTOLJ
 70
     1
  9
$DIMTZIN
 70
     0
  9
$DIMALTZ
 70
     0
  9
$DIMALTTZ
 70
     0
  9
$DIMUPT
 70
     0
  9
$DIMDEC
 70
     4
  9
$DIMTDEC
 70
     4
  9
$DIMALTU
 70
     2
  9
$DIMALTTD
 70
     2
  9
$DIMTXSTY
  7
Standard
  9
$DIMAUNIT
 70
     0
  9
$DIMADEC
 70
     0
  9
$DIMALTRND
 40
0.0
  9
$DIMAZIN
 70
     0
  9
$DIMDSEP
 70
    46
  9
$DIMATFIT
 70
     3
  9
$DIMFRAC
 70
     0
  9
$DIMLDRBLK
  1

  9
$DIMLUNIT
 70
     2
  9
$DIMLWD
 70
    -2
  9
$DIMLWE
 70
    -2
  9
$DIMTMOVE
 70
     0
  9
$DIMFXL
 40
1.0
  9
$DIMFXLON
 70
     0
  9
$DIMJOGANG
 40
0.7853981633974483
  9
$DIMTFILL
 70
     0
  9
$DIMTFILLCLR
 70
     0
  9
$DIMARCSYM
 70
     0
  9
$DIMLTYPE
  6

  9
$DIMLTEX1
  6

  9
$DIMLTEX2
  6

  9
$DIMTXTDIRECTION
 70
     0
  9
$LUNITS
 70
     2
  9
$LUPREC
 70
     4
  9
$SKETCHINC
 40
0.1
  9
$FILLETRAD
 40
0.0
  9
$AUNITS
 70
     0
  9
$AUPREC
 70
     0
  9
$MENU
  1
.
  9
$ELEVATION
 40
0.0
  9
$PELEVATION
 40
0.0
  9
$THICKNESS
 40
0.0
  9
$LIMCHECK
 70
     0
  9
$CHAMFERA
 40
0.0
  9
$CHAMFERB
 40
0.0
  9
$CHAMFERC
 40
0.0
  9
$CHAMFERD
 40
0.0
  9
$SKPOLY
 70
     0
  9
$TDCREATE
 40
2459734.963310185
  9
$TDUCREATE
 40
2459734.546643518
  9
$TDUPDATE
 40
2459734.963310185
  9
$TDUUPDATE
 40
2459734.546643518
  9
$TDINDWG
 40
0.0000000000
  9
$TDUSRTIMER
 40
0.0000000000
  9
$USRTIMER
 70
     1
  9
$ANGBASE
 50
0.0
  9
$ANGDIR
 70
     0
  9
$PDMODE
 70
     0
  9
$PDSIZE
 40
0.0
  9
$PLINEWID
 40
0.0
  9
$SPLFRAME
 70
     0
  9
$SPLINETYPE
 70
     6
  9
$SPLINESEGS
 70
     8
  9
$HANDSEED
  5
8B
  9
$SURFTAB1
 70
     6
  9
$SURFTAB2
 70
     6
  9
$SURFTYPE
 70
     6
  9
$SURFU
 70
     6
  9
$SURFV
 70
     6
  9
$UCSBASE
  2

  9
$UCSNAME
  2

  9
$UCSORG
 10
0.0
 20
0.0
 30
0.0
  9
$UCSXDIR
 10
1.0
 20
0.0
 30
0.0
  9
$UCSYDIR
 10
0.0
 20
1.0
 30
0.0
  9
$UCSORTHOREF
  2

  9
$UCSORTHOVIEW
 70
     0
  9
$UCSORGTOP
 10
0.0
 20
0.0
 30
0.0
  9
$UCSORGBOTTOM
 10
0.0
 20
0.0
 30
0.0
  9
$UCSORGLEFT
 10
0.0
 20
0.0
 30
0.0
  9
$UCSORGRIGHT
 10
0.0
 20
0.0
 30
0.0
  9
$UCSORGFRONT
 10
0.0
 20
0.0
 30
0.0
  9
$UCSORGBACK
 10
0.0
 20
0.0
 30
0.0
  9
$PUCSBASE
  2

  9
$PUCSNAME
  2

  9
$PUCSORG
 10
0.0
 20
0.0
 30
0.0
  9
$PUCSXDIR
 10
1.0
 20
0.0
 30
0.0
  9
$PUCSYDIR
 10
0.0
 20
1.0
 30
0.0
  9
$PUCSORTHOREF
  2

  9
$PUCSORTHOVIEW
 70
     0
  9
$PUCSORGTOP
 10
0.0
 20
0.0
 30
0.0
  9
$PUCSORGBOTTOM
 10
0.0
 20
0.0
 30
0.0
  9
$PUCSORGLEFT
 10
0.0
 20
0.0
 30
0.0
  9
$PUCSORGRIGHT
 10
0.0
 20
0.0
 30
0.0
  9
$PUCSORGFRONT
 10
0.0
 20
0.0
 30
0.0
  9
$PUCSORGBACK
 10
0.0
 20
0.0
 30
0.0
  9
$USERI1
 70
     0
  9
$USERI2
 70
     0
  9
$USERI3
 70
     0
  9
$USERI4
 70
     0
  9
$USERI5
 70
     0
  9
$USERR1
 40
0.0
  9
$USERR2
 40
0.0
  9
$USERR3
 40
0.0
  9
$USERR4
 40
0.0
  9
$USERR5
 40
0.0
  9
$WORLDVIEW
 70
     1
  9
$SHADEDGE
 70
     3
  9
$SHADEDIF
 70
    70
  9
$TILEMODE
 70
     1
  9
$MAXACTVP
 70
    64
  9
$PINSBASE
 10
0.0
 20
0.0
 30
0.0
  9
$PLIMCHECK
 70
     0
  9
$PEXTMIN
 10
1.000000000000000E+20
 20
1.000000000000000E+20
 30
1.000000000000000E+20
  9
$PEXTMAX
 10
-1.000000000000000E+20
 20
-1.000000000000000E+20
 30
-1.000000000000000E+20
  9
$PLIMMIN
 10
0.0
 20
0.0
  9
$PLIMMAX
 10
12.0
 20
9.0
  9
$UNITMODE
 70
     0
  9
$VISRETAIN
 70
     1
  9
$PLINEGEN
 70
     0
  9
$PSLTSCALE
 70
     1
  9
$TREEDEPTH
 70
  3020
  9
$CMLSTYLE
  2
Standard
  9
$CMLJUST
 70
     0
  9
$CMLSCALE
 40
1.0
  9
$PROXYGRAPHICS
 70
     1
  9
$MEASUREMENT
 70
     0
  9
$CELWEIGHT
370
    -1
  9
$ENDCAPS
280
     0
  9
$JOINSTYLE
280
     0
  9
$LWDISPLAY
290
     1
  9
$INSUNITS
 70
     4
  9
$HYPERLINKBASE
  1

  9
$STYLESHEET
  1

  9
$XEDIT
290
     1
  9
$CEPSNTYPE
380
     0
  9
$PSTYLEMODE
290
     1
  9
$FINGERPRINTGUID
  2
{EF0A31B1-BD13-6243-BB8F-B51664503C6D}
  9
$VERSIONGUID
  2
{AD9B92AB-D041-D24F-93C8-FE0F75786BCD}
  9
$EXTNAMES
290
     1
  9
$PSVPSCALE
 40
0.0
  9
$OLESTARTUP
290
     0
  9
$SORTENTS
280
   127
  9
$INDEXCTL
280
     0
  9
$HIDETEXT
280
     1
  9
$XCLIPFRAME
280
     2
  9
$HALOGAP
280
     0
  9
$OBSCOLOR
 70
   257
  9
$OBSLTYPE
280
     0
  9
$INTERSECTIONDISPLAY
280
     0
  9
$INTERSECTIONCOLOR
 70
   257
  9
$DIMASSOC
280
     2
  9
$PROJECTNAME
  1

  9
$CAMERADISPLAY
290
     0
  9
$LENSLENGTH
 40
50.0
  9
$CAMERAHEIGHT
 40
0.0
  9
$STEPSPERSEC
 40
2.0
  9
$STEPSIZE
 40
6.0
  9
$3DDWFPREC
 40
2.0
  9
$PSOLWIDTH
 40
0.25
  9
$PSOLHEIGHT
 40
4.0
  9
$LOFTANG1
 40
1.570796326794896
  9
$LOFTANG2
 40
1.570796326794896
  9
$LOFTMAG1
 40
0.0
  9
$LOFTMAG2
 40
0.0
  9
$LOFTPARAM
 70
     7
  9
$LOFTNORMALS
280
     1
  9
$LATITUDE
 40
37.795
  9
$LONGITUDE
 40
-122.394
  9
$NORTHDIRECTION
 40
0.0
  9
$TIMEZONE
 70
 -8000
  9
$LIGHTGLYPHDISPLAY
280
     1
  9
$TILEMODELIGHTSYNCH
280
     1
  9
$CMATERIAL
347
11
  9
$SOLIDHIST
280
     0
  9
$SHOWHIST
280
     1
  9
$DWFFRAME
280
     2
  9
$DGNFRAME
280
     0
  9
$REALWORLDSCALE
290
     1
  9
$INTERFERECOLOR
 62
     1
  9
$INTERFEREOBJVS
345
33
  9
$INTERFEREVPVS
346
30
  9
$CSHADOW
280
     0
  9
$SHADOWPLANELOCATION
 40
0.0
  0
ENDSEC
  0
SECTION
  2
CLASSES
  0
CLASS
  1
ACDBDICTIONARYWDFLT
  2
AcDbDictionaryWithDefault
  3
ObjectDBX Classes
 90
        0
 91
        1
280
     0
281
     0
  0
CLASS
  1
MATERIAL
  2
AcDbMaterial
  3
ObjectDBX Classes
 90
     1153
 91
        3
280
     0
281
     0
  0
CLASS
  1
VISUALSTYLE
  2
AcDbVisualStyle
  3
ObjectDBX Classes
 90
     4095
 91
       24
280
     0
281
     0
  0
CLASS
  1
SCALE
  2
AcDbScale
  3
ObjectDBX Classes
 90
     1153
 91
       17
280
     0
281
     0
  0
CLASS
  1
TABLESTYLE
  2
AcDbTableStyle
  3
ObjectDBX Classes
 90
     4095
 91
        1
280
     0
281
     0
  0
CLASS
  1
MLEADERSTYLE
  2
AcDbMLeaderStyle
  3
ACDB_MLEADERSTYLE_CLASS
 90
     4095
 91
        1
280
     0
281
     0
  0
CLASS
  1
ACDBSECTIONVIEWSTYLE
  2
AcDbSectionViewStyle
  3
ObjectDBX Classes
 90
     1025
 91
        1
280
     0
281
     0
  0
CLASS
  1
ACDBDETAILVIEWSTYLE
  2
AcDbDetailViewStyle
  3
ObjectDBX Classes
 90
     1025
 91
        1
280
     0
281
     0
  0
CLASS
  1
DICTIONARYVAR
  2
AcDbDictionaryVar
  3
ObjectDBX Classes
 90
        0
 91
        5
280
     0
281
     0
  0
CLASS
  1
CELLSTYLEMAP
  2
AcDbCellStyleMap
  3
ObjectDBX Classes
 90
     1152
 91
        1
280
     0
281
     0
  0
ENDSEC
  0
SECTION
  2
TABLES
  0
TABLE
  2
VPORT
  5
8
330
0
100
AcDbSymbolTable
 70
     1
1001
ACAD
1000
DbSaveVer
1071
      247
  0
VPORT
  5
57
330
8
100
AcDbSymbolTableRecord
100
AcDbViewportTableRecord
  2
*Active
 70
     0
 10
0.0
 20
0.0
 11
1.0
 21
1.0
 12
0.0
 22
0.0
 13
0.0
 23
0.0
 14
1.0
 24
1.0
 15
0.0
 25
0.0
 16
0.0
 26
0.0
 36
1.0
 17
-111.9583333053439
 27
3.302777776952218
 37
0.0
 40
214.1999999464498
 41
0.9999999999999998
 42
50.0
 43
0.0
 44
0.0
 50
0.0
 51
0.0
 71
     0
 72
   100
 73
     1
 74
     1
 75
     0
 76
     0
 77
     0
 78
     0
281
     0
 65
     1
110
0.0
120
0.0
130
0.0
111
1.0
121
0.0
131
0.0
112
0.0
122
1.0
132
0.0
 79
     0
146
0.0
 60
     3
 61
     5
292
     1
282
     1
141
0.0
142
0.0
 63
   250
421
  3355443
  0
ENDTAB
  0
TABLE
  2
LTYPE
  5
5
330
0
100
AcDbSymbolTable
 70
     1
  0
LTYPE
  5
5B
330
5
100
AcDbSymbolTableRecord
100
AcDbLinetypeTableRecord
  2
ByBlock
 70
     0
  3

 72
    65
 73
     0
 40
0.0
  0
LTYPE
  5
5C
330
5
100
AcDbSymbolTableRecord
100
AcDbLinetypeTableRecord
  2
ByLayer
 70
     0
  3

 72
    65
 73
     0
 40
0.0
  0
LTYPE
  5
5D
330
5
100
AcDbSymbolTableRecord
100
AcDbLinetypeTableRecord
  2
Continuous
 70
     0
  3
Solid line
 72
    65
 73
     0
 40
0.0
  0
ENDTAB
  0
TABLE
  2
LAYER
  5
2
330
0
100
AcDbSymbolTable
 70
     2
  0
LAYER
  5
54
330
2
100
AcDbSymbolTableRecord
100
AcDbLayerTableRecord
  2
0
 70
     0
 62
     7
  6
Continuous
370
    -3
390
F
347
21
348
0
  0
LAYER
  5
78
330
2
100
AcDbSymbolTableRecord
100
AcDbLayerTableRecord
  2
Layer 1
 70
     0
 62
     7
  6
Continuous
370
     0
390
F
347
21
348
0
  0
ENDTAB
  0
TABLE
  2
STYLE
  5
3
330
0
100
AcDbSymbolTable
 70
     2
  0
STYLE
  5
55
330
3
100
AcDbSymbolTableRecord
100
AcDbTextStyleTableRecord
  2
Standard
 70
     0
 40
0.0
 41
1.0
 50
0.0
 71
     0
 42
0.2
  3
txt
  4

  0
STYLE
  5
5A
330
3
100
AcDbSymbolTableRecord
100
AcDbTextStyleTableRecord
  2
Annotative
 70
     0
 40
0.0
 41
1.0
 50
0.0
 71
     0
 42
0.2
  3
txt
  4

1001
AcadAnnotative
1000
AnnotativeData
1002
{
1070
     1
1070
     1
1002
}
  0
ENDTAB
  0
TABLE
  2
VIEW
  5
6
330
0
100
AcDbSymbolTable
 70
     0
  0
ENDTAB
  0
TABLE
  2
UCS
  5
7
330
0
100
AcDbSymbolTable
 70
     0
  0
ENDTAB
  0
TABLE
  2
APPID
  5
9
330
0
100
AcDbSymbolTable
 70
     2
  0
APPID
  5
56
330
9
100
AcDbSymbolTableRecord
100
AcDbRegAppTableRecord
  2
ACAD
 70
     0
  0
APPID
  5
5E
330
9
100
AcDbSymbolTableRecord
100
AcDbRegAppTableRecord
  2
AcadAnnotative
 70
     0
  0
ENDTAB
  0
TABLE
  2
DIMSTYLE
  5
A
330
0
100
AcDbSymbolTable
 70
     2
100
AcDbDimStyleTable
 71
     0
  0
DIMSTYLE
105
58
330
A
100
AcDbSymbolTableRecord
100
AcDbDimStyleTableRecord
  2
Standard
 70
     0
340
55
  0
DIMSTYLE
105
59
330
A
100
AcDbSymbolTableRecord
100
AcDbDimStyleTableRecord
  2
Annotative
 70
     0
340
55
1001
AcadAnnotative
1000
AnnotativeData
1002
{
1070
     1
1070
     1
1002
}
  0
ENDTAB
  0
TABLE
  2
BLOCK_RECORD
  5
1
330
0
100
AcDbSymbolTable
 70
     1
  0
BLOCK_RECORD
  5
70
330
1
100
AcDbSymbolTableRecord
100
AcDbBlockTableRecord
  2
*Model_Space
340
73
 70
     0
280
     1
281
     0
  0
BLOCK_RECORD
  5
6C
330
1
100
AcDbSymbolTableRecord
100
AcDbBlockTableRecord
  2
*Paper_Space
340
6F
 70
     0
280
     1
281
     0
  0
BLOCK_RECORD
  5
74
330
1
100
AcDbSymbolTableRecord
100
AcDbBlockTableRecord
  2
*Paper_Space0
340
77
 70
     0
280
     1
281
     0
  0
ENDTAB
  0
ENDSEC
  0
SECTION
  2
BLOCKS
  0
BLOCK
  5
71
330
70
100
AcDbEntity
  8
0
100
AcDbBlockBegin
  2
*Model_Space
 70
     0
 10
0.0
 20
0.0
 30
0.0
  3
*Model_Space
  1

  0
ENDBLK
  5
72
330
70
100
AcDbEntity
  8
0
100
AcDbBlockEnd
  0
BLOCK
  5
6D
330
6C
100
AcDbEntity
 67
     1
  8
0
100
AcDbBlockBegin
  2
*Paper_Space
 70
     0
 10
0.0
 20
0.0
 30
0.0
  3
*Paper_Space
  1

  0
ENDBLK
  5
6E
330
6C
100
AcDbEntity
 67
     1
  8
0
100
AcDbBlockEnd
  0
BLOCK
  5
75
330
74
100
AcDbEntity
 67
     1
  8
0
100
AcDbBlockBegin
  2
*Paper_Space0
 70
     0
 10
0.0
 20
0.0
 30
0.0
  3
*Paper_Space0
  1

  0
ENDBLK
  5
76
330
74
100
AcDbEntity
 67
     1
  8
0
100
AcDbBlockEnd
  0
ENDSEC
  0
SECTION
  2
ENTITIES
  0
SPLINE
  5
79
330
70
100
AcDbEntity
  8
Layer 1
100
AcDbSpline
210
0.0
220
0.0
230
1.0
 70
     9
 71
     3
 72
   785
 73
   781
 74
     0
 42
0.0000000001
 43
0.0000000001
 40
0.0
 40
0.0
 40
0.0
 40
0.0
 40
1.0
 40
1.0
 40
1.0
 40
2.0
 40
2.0
 40
2.0
 40
3.0
 40
3.0
 40
3.0
 40
4.0
 40
4.0
 40
4.0
 40
5.0
 40
5.0
 40
5.0
 40
6.0
 40
6.0
 40
6.0
 40
7.0
 40
7.0
 40
7.0
 40
8.0
 40
8.0
 40
8.0
 40
9.0
 40
9.0
 40
9.0
 40
10.0
 40
10.0
 40
10.0
 40
11.0
 40
11.0
 40
11.0
 40
12.0
 40
12.0
 40
12.0
 40
13.0
 40
13.0
 40
13.0
 40
14.0
 40
14.0
 40
14.0
 40
15.0
 40
15.0
 40
15.0
 40
16.0
 40
16.0
 40
16.0
 40
17.0
 40
17.0
 40
17.0
 40
18.0
 40
18.0
 40
18.0
 40
19.0
 40
19.0
 40
19.0
 40
20.0
 40
20.0
 40
20.0
 40
21.0
 40
21.0
 40
21.0
 40
22.0
 40
22.0
 40
22.0
 40
23.0
 40
23.0
 40
23.0
 40
24.0
 40
24.0
 40
24.0
 40
25.0
 40
25.0
 40
25.0
 40
26.0
 40
26.0
 40
26.0
 40
27.0
 40
27.0
 40
27.0
 40
28.0
 40
28.0
 40
28.0
 40
29.0
 40
29.0
 40
29.0
 40
30.0
 40
30.0
 40
30.0
 40
31.0
 40
31.0
 40
31.0
 40
32.0
 40
32.0
 40
32.0
 40
33.0
 40
33.0
 40
33.0
 40
34.0
 40
34.0
 40
34.0
 40
35.0
 40
35.0
 40
35.0
 40
36.0
 40
36.0
 40
36.0
 40
37.0
 40
37.0
 40
37.0
 40
38.0
 40
38.0
 40
38.0
 40
39.0
 40
39.0
 40
39.0
 40
40.0
 40
40.0
 40
40.0
 40
41.0
 40
41.0
 40
41.0
 40
42.0
 40
42.0
 40
42.0
 40
43.0
 40
43.0
 40
43.0
 40
44.0
 40
44.0
 40
44.0
 40
45.0
 40
45.0
 40
45.0
 40
46.0
 40
46.0
 40
46.0
 40
47.0
 40
47.0
 40
47.0
 40
48.0
 40
48.0
 40
48.0
 40
49.0
 40
49.0
 40
49.0
 40
50.0
 40
50.0
 40
50.0
 40
51.0
 40
51.0
 40
51.0
 40
52.0
 40
52.0
 40
52.0
 40
53.0
 40
53.0
 40
53.0
 40
54.0
 40
54.0
 40
54.0
 40
55.0
 40
55.0
 40
55.0
 40
56.0
 40
56.0
 40
56.0
 40
57.0
 40
57.0
 40
57.0
 40
58.0
 40
58.0
 40
58.0
 40
59.0
 40
59.0
 40
59.0
 40
60.0
 40
60.0
 40
60.0
 40
61.0
 40
61.0
 40
61.0
 40
62.0
 40
62.0
 40
62.0
 40
63.0
 40
63.0
 40
63.0
 40
64.0
 40
64.0
 40
64.0
 40
65.0
 40
65.0
 40
65.0
 40
66.0
 40
66.0
 40
66.0
 40
67.0
 40
67.0
 40
67.0
 40
68.0
 40
68.0
 40
68.0
 40
69.0
 40
69.0
 40
69.0
 40
70.0
 40
70.0
 40
70.0
 40
71.0
 40
71.0
 40
71.0
 40
72.0
 40
72.0
 40
72.0
 40
73.0
 40
73.0
 40
73.0
 40
74.0
 40
74.0
 40
74.0
 40
75.0
 40
75.0
 40
75.0
 40
76.0
 40
76.0
 40
76.0
 40
77.0
 40
77.0
 40
77.0
 40
78.0
 40
78.0
 40
78.0
 40
79.0
 40
79.0
 40
79.0
 40
80.0
 40
80.0
 40
80.0
 40
81.0
 40
81.0
 40
81.0
 40
82.0
 40
82.0
 40
82.0
 40
83.0
 40
83.0
 40
83.0
 40
84.0
 40
84.0
 40
84.0
 40
85.0
 40
85.0
 40
85.0
 40
86.0
 40
86.0
 40
86.0
 40
87.0
 40
87.0
 40
87.0
 40
88.0
 40
88.0
 40
88.0
 40
89.0
 40
89.0
 40
89.0
 40
90.0
 40
90.0
 40
90.0
 40
91.0
 40
91.0
 40
91.0
 40
92.0
 40
92.0
 40
92.0
 40
93.0
 40
93.0
 40
93.0
 40
94.0
 40
94.0
 40
94.0
 40
95.0
 40
95.0
 40
95.0
 40
96.0
 40
96.0
 40
96.0
 40
97.0
 40
97.0
 40
97.0
 40
98.0
 40
98.0
 40
98.0
 40
99.0
 40
99.0
 40
99.0
 40
100.0
 40
100.0
 40
100.0
 40
101.0
 40
101.0
 40
101.0
 40
102.0
 40
102.0
 40
102.0
 40
103.0
 40
103.0
 40
103.0
 40
104.0
 40
104.0
 40
104.0
 40
105.0
 40
105.0
 40
105.0
 40
106.0
 40
106.0
 40
106.0
 40
107.0
 40
107.0
 40
107.0
 40
108.0
 40
108.0
 40
108.0
 40
109.0
 40
109.0
 40
109.0
 40
110.0
 40
110.0
 40
110.0
 40
111.0
 40
111.0
 40
111.0
 40
112.0
 40
112.0
 40
112.0
 40
113.0
 40
113.0
 40
113.0
 40
114.0
 40
114.0
 40
114.0
 40
115.0
 40
115.0
 40
115.0
 40
116.0
 40
116.0
 40
116.0
 40
117.0
 40
117.0
 40
117.0
 40
118.0
 40
118.0
 40
118.0
 40
119.0
 40
119.0
 40
119.0
 40
120.0
 40
120.0
 40
120.0
 40
121.0
 40
121.0
 40
121.0
 40
122.0
 40
122.0
 40
122.0
 40
123.0
 40
123.0
 40
123.0
 40
124.0
 40
124.0
 40
124.0
 40
125.0
 40
125.0
 40
125.0
 40
126.0
 40
126.0
 40
126.0
 40
127.0
 40
127.0
 40
127.0
 40
128.0
 40
128.0
 40
128.0
 40
129.0
 40
129.0
 40
129.0
 40
130.0
 40
130.0
 40
130.0
 40
131.0
 40
131.0
 40
131.0
 40
132.0
 40
132.0
 40
132.0
 40
133.0
 40
133.0
 40
133.0
 40
134.0
 40
134.0
 40
134.0
 40
135.0
 40
135.0
 40
135.0
 40
136.0
 40
136.0
 40
136.0
 40
137.0
 40
137.0
 40
137.0
 40
138.0
 40
138.0
 40
138.0
 40
139.0
 40
139.0
 40
139.0
 40
140.0
 40
140.0
 40
140.0
 40
141.0
 40
141.0
 40
141.0
 40
142.0
 40
142.0
 40
142.0
 40
143.0
 40
143.0
 40
143.0
 40
144.0
 40
144.0
 40
144.0
 40
145.0
 40
145.0
 40
145.0
 40
146.0
 40
146.0
 40
146.0
 40
147.0
 40
147.0
 40
147.0
 40
148.0
 40
148.0
 40
148.0
 40
149.0
 40
149.0
 40
149.0
 40
150.0
 40
150.0
 40
150.0
 40
151.0
 40
151.0
 40
151.0
 40
152.0
 40
152.0
 40
152.0
 40
153.0
 40
153.0
 40
153.0
 40
154.0
 40
154.0
 40
154.0
 40
155.0
 40
155.0
 40
155.0
 40
156.0
 40
156.0
 40
156.0
 40
157.0
 40
157.0
 40
157.0
 40
158.0
 40
158.0
 40
158.0
 40
159.0
 40
159.0
 40
159.0
 40
160.0
 40
160.0
 40
160.0
 40
161.0
 40
161.0
 40
161.0
 40
162.0
 40
162.0
 40
162.0
 40
163.0
 40
163.0
 40
163.0
 40
164.0
 40
164.0
 40
164.0
 40
165.0
 40
165.0
 40
165.0
 40
166.0
 40
166.0
 40
166.0
 40
167.0
 40
167.0
 40
167.0
 40
168.0
 40
168.0
 40
168.0
 40
169.0
 40
169.0
 40
169.0
 40
170.0
 40
170.0
 40
170.0
 40
171.0
 40
171.0
 40
171.0
 40
172.0
 40
172.0
 40
172.0
 40
173.0
 40
173.0
 40
173.0
 40
174.0
 40
174.0
 40
174.0
 40
175.0
 40
175.0
 40
175.0
 40
176.0
 40
176.0
 40
176.0
 40
177.0
 40
177.0
 40
177.0
 40
178.0
 40
178.0
 40
178.0
 40
179.0
 40
179.0
 40
179.0
 40
180.0
 40
180.0
 40
180.0
 40
181.0
 40
181.0
 40
181.0
 40
182.0
 40
182.0
 40
182.0
 40
183.0
 40
183.0
 40
183.0
 40
184.0
 40
184.0
 40
184.0
 40
185.0
 40
185.0
 40
185.0
 40
186.0
 40
186.0
 40
186.0
 40
187.0
 40
187.0
 40
187.0
 40
188.0
 40
188.0
 40
188.0
 40
189.0
 40
189.0
 40
189.0
 40
190.0
 40
190.0
 40
190.0
 40
191.0
 40
191.0
 40
191.0
 40
192.0
 40
192.0
 40
192.0
 40
193.0
 40
193.0
 40
193.0
 40
194.0
 40
194.0
 40
194.0
 40
195.0
 40
195.0
 40
195.0
 40
196.0
 40
196.0
 40
196.0
 40
197.0
 40
197.0
 40
197.0
 40
198.0
 40
198.0
 40
198.0
 40
199.0
 40
199.0
 40
199.0
 40
200.0
 40
200.0
 40
200.0
 40
201.0
 40
201.0
 40
201.0
 40
202.0
 40
202.0
 40
202.0
 40
203.0
 40
203.0
 40
203.0
 40
204.0
 40
204.0
 40
204.0
 40
205.0
 40
205.0
 40
205.0
 40
206.0
 40
206.0
 40
206.0
 40
207.0
 40
207.0
 40
207.0
 40
208.0
 40
208.0
 40
208.0
 40
209.0
 40
209.0
 40
209.0
 40
210.0
 40
210.0
 40
210.0
 40
211.0
 40
211.0
 40
211.0
 40
212.0
 40
212.0
 40
212.0
 40
213.0
 40
213.0
 40
213.0
 40
214.0
 40
214.0
 40
214.0
 40
215.0
 40
215.0
 40
215.0
 40
216.0
 40
216.0
 40
216.0
 40
217.0
 40
217.0
 40
217.0
 40
218.0
 40
218.0
 40
218.0
 40
219.0
 40
219.0
 40
219.0
 40
220.0
 40
220.0
 40
220.0
 40
221.0
 40
221.0
 40
221.0
 40
222.0
 40
222.0
 40
222.0
 40
223.0
 40
223.0
 40
223.0
 40
224.0
 40
224.0
 40
224.0
 40
225.0
 40
225.0
 40
225.0
 40
226.0
 40
226.0
 40
226.0
 40
227.0
 40
227.0
 40
227.0
 40
228.0
 40
228.0
 40
228.0
 40
229.0
 40
229.0
 40
229.0
 40
230.0
 40
230.0
 40
230.0
 40
231.0
 40
231.0
 40
231.0
 40
232.0
 40
232.0
 40
232.0
 40
233.0
 40
233.0
 40
233.0
 40
234.0
 40
234.0
 40
234.0
 40
235.0
 40
235.0
 40
235.0
 40
236.0
 40
236.0
 40
236.0
 40
237.0
 40
237.0
 40
237.0
 40
238.0
 40
238.0
 40
238.0
 40
239.0
 40
239.0
 40
239.0
 40
240.0
 40
240.0
 40
240.0
 40
241.0
 40
241.0
 40
241.0
 40
242.0
 40
242.0
 40
242.0
 40
243.0
 40
243.0
 40
243.0
 40
244.0
 40
244.0
 40
244.0
 40
245.0
 40
245.0
 40
245.0
 40
246.0
 40
246.0
 40
246.0
 40
247.0
 40
247.0
 40
247.0
 40
248.0
 40
248.0
 40
248.0
 40
249.0
 40
249.0
 40
249.0
 40
250.0
 40
250.0
 40
250.0
 40
251.0
 40
251.0
 40
251.0
 40
252.0
 40
252.0
 40
252.0
 40
253.0
 40
253.0
 40
253.0
 40
254.0
 40
254.0
 40
254.0
 40
255.0
 40
255.0
 40
255.0
 40
256.0
 40
256.0
 40
256.0
 40
257.0
 40
257.0
 40
257.0
 40
258.0
 40
258.0
 40
258.0
 40
259.0
 40
259.0
 40
259.0
 40
260.0
 40
260.0
 40
260.0
 40
260.0
 10
-29.20565104179956
 20
-14.30182849683498
 30
0.0
 10
-29.28818515405457
 20
-14.64896399670468
 30
0.0
 10
-29.38892027025698
 20
-14.99008973112484
 30
0.0
 10
-29.50310581390925
 20
-15.32669383248383
 30
0.0
 10
-29.54042359559124
 20
-15.43687286582957
 30
0.0
 10
-29.58724253028367
 20
-15.54384669093265
 30
0.0
 10
-29.62799446365688
 20
-15.65288100705161
 30
0.0
 10
-29.71173052900064
 20
-15.87707387646625
 30
0.0
 10
-29.7966685474338
 20
-16.10080885898697
 30
0.0
 10
-29.89442739884274
 20
-16.32019391604083
 30
0.0
 10
-29.9512626092874
 20
-16.44771541541388
 30
0.0
 10
-30.01639701965248
 20
-16.57237512171487
 30
0.0
 10
-30.07786833488032
 20
-16.6982367811091
 30
0.0
 10
-30.17379563872258
 20
-16.89461302184387
 30
0.0
 10
-30.27115383909638
 20
-17.09035966810455
 30
0.0
 10
-30.37841384350807
 20
-17.28272939853726
 30
0.0
 10
-30.45133233103509
 20
-17.41339887029164
 30
0.0
 10
-30.53031781987748
 20
-17.54195061517713
 30
0.0
 10
-30.60838753493268
 20
-17.67078853936418
 30
0.0
 10
-30.71931063448159
 20
-17.85388606023758
 30
0.0
 10
-30.8332099988246
 20
-18.03595333560175
 30
0.0
 10
-30.95443555343501
 20
-18.21533052547787
 30
0.0
 10
-31.04149129874475
 20
-18.34411121380679
 30
0.0
 10
-31.13249631850098
 20
-18.47146100559903
 30
0.0
 10
-31.224817763068
 20
-18.59829567463538
 30
0.0
 10
-31.3521675548564
 20
-18.77326570317495
 30
0.0
 10
-31.48438239487205
 20
-18.94640418415169
 30
0.0
 10
-31.62163399070219
 20
-19.11765388169847
 30
0.0
 10
-31.72128162553724
 20
-19.24197017283142
 30
0.0
 10
-31.8224173927703
 20
-19.36565686948966
 30
0.0
 10
-31.92727349099999
 20
-19.48802714133069
 30
0.0
 10
-32.07276705088086
 20
-19.65784594234143
 30
0.0
 10
-32.22507167827771
 20
-19.82508912958232
 30
0.0
 10
-32.38052427805524
 20
-19.99118759959322
 30
0.0
 10
-32.49047436795499
 20
-20.10869282321085
 30
0.0
 10
-32.59962315579599
 20
-20.2264269902751
 30
0.0
 10
-32.71449552978497
 20
-20.34204343046341
 30
0.0
 10
-32.88248278322518
 20
-20.51111816527162
 30
0.0
 10
-33.05934159519791
 20
-20.67681598425508
 30
0.0
 10
-33.23768853956608
 20
-20.84182697289799
 30
0.0
 10
-33.3529043287231
 20
-20.94845738283559
 30
0.0
 10
-33.46514385308665
 20
-21.0562897458626
 30
0.0
 10
-33.58465233185562
 20
-21.16126031581369
 30
0.0
 10
-33.78749622493704
 20
-21.33926384501319
 30
0.0
 10
-34.00132940342372
 20
-21.51297468460523
 30
0.0
 10
-34.21642177086627
 20
-21.68611316557747
 30
0.0
 10
-34.32385348285813
 20
-21.77259655227191
 30
0.0
 10
-34.42613396732181
 20
-21.86119766584293
 30
0.0
 10
-34.53659917997744
 20
-21.94647909944797
 30
0.0
 10
-34.82043181705261
 20
-22.16563521305133
 30
0.0
 10
-35.11679910779044
 20
-22.37969733498465
 30
0.0
 10
-35.42037811707813
 20
-22.5907831921213
 30
0.0
 10
-35.42037811707813
 20
-22.59066872039991
 30
0.0
 10
-35.42037811707813
 20
-22.59043977695263
 30
0.0
 10
-35.4203208812155
 20
-22.59026806936861
 30
0.0
 10
-35.44458888648276
 20
-22.60720988436463
 30
0.0
 10
-35.46662469315204
 20
-22.62495300142581
 30
0.0
 10
-35.49106440600331
 20
-22.64183758055921
 30
0.0
 10
-35.51796526090305
 20
-22.66043923554111
 30
0.0
 10
-35.54240497375048
 20
-22.67995666430699
 30
0.0
 10
-35.56947753623424
 20
-22.69850108342306
 30
0.0
 10
-35.92863256701457
 20
-22.94392845744823
 30
0.0
 10
-36.30255445005876
 20
-23.18323159429157
 30
0.0
 10
-36.68803797712031
 20
-23.41749797532747
 30
0.0
 10
-36.80628726693726
 20
-23.48932898148264
 30
0.0
 10
-36.93220616219026
 20
-23.55789754353509
 30
0.0
 10
-37.05291659405118
 20
-23.62869830418552
 30
0.0
 10
-37.32530205883167
 20
-23.78850082943377
 30
0.0
 10
-37.59906118428491
 20
-23.94755928848591
 30
0.0
 10
-37.88375235928465
 20
-24.10192440689609
 30
0.0
 10
-38.04040691215158
 20
-24.18686242533245
 30
0.0
 10
-38.20392976839968
 20
-24.2687097072469
 30
0.0
 10
-38.36424741640062
 20
-24.35198788569739
 30
0.0
 10
-38.62455611440785
 20
-24.48723622637297
 30
0.0
 10
-38.88600952964571
 20
-24.62196944429587
 30
0.0
 10
-39.15593385238093
 20
-24.75286785950074
 30
0.0
 10
-39.33439526847434
 20
-24.83940848205716
 30
0.0
 10
-39.51806514796241
 20
-24.92354519842836
 30
0.0
 10
-39.70064754607927
 20
-25.00819703755932
 30
0.0
 10
-39.96547787714444
 20
-25.13102519629362
 30
0.0
 10
-40.23276935025488
 20
-25.25265140193532
 30
0.0
 10
-40.50629953226148
 20
-25.37147305036694
 30
0.0
 10
-40.6990699137255
 20
-25.45520911571134
 30
0.0
 10
-40.89527444687624
 20
-25.53734257693505
 30
0.0
 10
-41.09228028208894
 20
-25.61907538712426
 30
0.0
 10
-41.36872949303024
 20
-25.73377605352858
 30
0.0
 10
-41.64901350669341
 20
-25.84658793650745
 30
0.0
 10
-41.93370468169251
 20
-25.95733932846914
 30
0.0
 10
-42.13712093338925
 20
-26.0364965248917
 30
0.0
 10
-42.34202531748464
 20
-26.11485241926
 30
0.0
 10
-42.54967702293456
 20
-26.1920063605325
 30
0.0
 10
-42.84186609578569
 20
-26.30052555389556
 30
0.0
 10
-43.13932086789153
 20
-26.40641189763448
 30
0.0
 10
-43.43958019721323
 20
-26.5109245806955
 30
0.0
 10
-43.64929239367262
 20
-26.5839003040813
 30
0.0
 10
-43.85860393910135
 20
-26.65710497091373
 30
0.0
 10
-44.0722081741414
 20
-26.72813467501015
 30
0.0
 10
-44.38774947847709
 20
-26.83310524496188
 30
0.0
 10
-44.7102735579147
 20
-26.93441271977896
 30
0.0
 10
-45.03434300560718
 20
-27.03503336425996
 30
0.0
 10
-45.24302495656183
 20
-27.099824359457
 30
0.0
 10
-45.44941747305524
 20
-27.1658173077428
 30
0.0
 10
-45.66153357570047
 20
-27.22883399123192
 30
0.0
 10
-46.01822746443618
 20
-27.33477757082962
 30
0.0
 10
-46.38356396825776
 20
-27.43619951736873
 30
0.0
 10
-46.74993071758729
 20
-27.53710634115515
 30
0.0
 10
-46.93840840943935
 20
-27.58901926751763
 30
0.0
 10
-47.12299406270755
 20
-27.64304992075605
 30
0.0
 10
-47.31399013246686
 20
-27.69358918644127
 30
0.0
 10
-47.80244097432816
 20
-27.82294223338486
 30
0.0
 10
-48.30079362022991
 20
-27.94691510934914
 30
0.0
 10
-48.80549944675436
 20
-28.06739659776086
 30
0.0
 10
-48.88156590665822
 20
-28.08554036585269
 30
0.0
 10
-48.95454163004401
 20
-28.1054012097834
 30
0.0
 10
-49.03095150512038
 20
-28.12337327028801
 30
0.0
 10
-49.61555859426994
 20
-28.26079657370216
 30
0.0
 10
-50.21167009157421
 20
-28.3918666964872
 30
0.0
 10
-50.81722550602568
 20
-28.51744217657217
 30
0.0
 10
-50.99763294141038
 20
-28.55481719412063
 30
0.0
 10
-51.18393567052388
 20
-28.5887580599785
 30
0.0
 10
-51.36617465347207
 20
-28.62510283201452
 30
0.0
 10
-51.79515743526007
 20
-28.71072768078823
 30
0.0
 10
-52.22528493427868
 20
-28.79560846336197
 30
0.0
 10
-52.66422675596334
 20
-28.87539525426631
 30
0.0
 10
-52.90267135488532
 20
-28.91872280140553
 30
0.0
 10
-53.14666783236741
 20
-28.9586734327168
 30
0.0
 10
-53.38797422436528
 20
-29.00028390401458
 30
0.0
 10
-53.77969646033007
 20
-29.06782222055844
 30
0.0
 10
-54.17216276249419
 20
-29.13484541434961
 30
0.0
 10
-54.57138289631037
 20
-29.19780486197932
 30
0.0
 10
-54.83632769909823
 20
-29.23958704085791
 30
0.0
 10
-55.10562242735551
 20
-29.27873637011043
 30
0.0
 10
-55.37382967424929
 20
-29.31851529383768
 30
0.0
 10
-55.76074409785008
 20
-29.37592286290021
 30
0.0
 10
-56.14937559729232
 20
-29.43224295059604
 30
0.0
 10
-56.54304385254903
 20
-29.48541506590989
 30
0.0
 10
-56.82224038484485
 20
-29.52313349862702
 30
0.0
 10
-57.10424147435269
 20
-29.55907761963624
 30
0.0
 10
-57.38675768661385
 20
-29.59467832547677
 30
0.0
 10
-57.7794529322246
 20
-29.64418734565341
 30
0.0
 10
-58.17500997090356
 20
-29.69180758240394
 30
0.0
 10
-58.57405839713959
 20
-29.73719562055713
 30
0.0
 10
-58.86390079967199
 20
-29.77016347676904
 30
0.0
 10
-59.15511686287716
 20
-29.8022155591976
 30
0.0
 10
-59.4482789453749
 20
-29.8330084526735
 30
0.0
 10
-59.85167729708165
 20
-29.87536299016676
 30
0.0
 10
-60.25902492322781
 20
-29.91514191389786
 30
0.0
 10
-60.66854751211256
 20
-29.95337546936704
 30
0.0
 10
-60.96285431183707
 20
-29.98084868287439
 30
0.0
 10
-61.25698940397692
 20
-30.00837913224822
 30
0.0
 10
-61.55438694022335
 20
-30.03373461888283
 30
0.0
 10
-61.97873361723137
 20
-30.06990768333869
 30
0.0
 10
-62.40823152177206
 20
-30.10253212437871
 30
0.0
 10
-62.83875967181749
 20
-30.13429802750058
 30
0.0
 10
-63.12825865918185
 20
-30.15564700383315
 30
0.0
 10
-63.41615504242168
 20
-30.17814069739249
 30
0.0
 10
-63.70840135113607
 20
-30.19754365443699
 30
0.0
 10
-64.17321378220741
 20
-30.22845101963492
 30
0.0
 10
-64.64443662976727
 20
-30.25466504419026
 30
0.0
 10
-65.11611736421656
 20
-30.2804784177188
 30
0.0
 10
-65.38152005389768
 20
-30.29501632653603
 30
0.0
 10
-65.64411818636166
 20
-30.31161472636402
 30
0.0
 10
-65.91169583877816
 20
-30.32455003105735
 30
0.0
 10
-66.49286877624096
 20
-30.35271007490526
 30
0.0
 10
-67.0815968474146
 20
-30.37520376846781
 30
0.0
 10
-67.67261435304884
 20
-30.39580867859785
 30
0.0
 10
-67.83682403963364
 20
-30.40153226474839
 30
0.0
 10
-67.99777128211188
 20
-30.40971699293714
 30
0.0
 10
-68.16278227075862
 20
-30.41486822047302
 30
0.0
 10
-68.91932588778846
 20
-30.43844939540037
 30
0.0
 10
-69.68399699715148
 20
-30.45562015384624
 30
0.0
 10
-70.45593706092375
 20
-30.46689561855754
 30
0.0
 10
-70.67595171245104
 20
-30.47010082680084
 30
0.0
 10
-70.90037352530846
 20
-30.46964293990757
 30
0.0
 10
-71.12164736578842
 20
-30.47187513850555
 30
0.0
 10
-71.65731779337345
 20
-30.47725530948485
 30
0.0
 10
-72.19436188163124
 20
-30.48154799909616
 30
0.0
 10
-72.73707232017759
 20
-30.48097564048085
 30
0.0
 10
-73.87932840771881
 20
-30.47983092325087
 30
0.0
 10
-75.03955655576465
 20
-30.46334699514491
 30
0.0
 10
-76.21197594230834
 20
-30.43598825335575
 30
0.0
 10
-76.4746885464982
 20
-30.42986401618032
 30
0.0
 10
-76.73911822652951
 20
-30.42225164660367
 30
0.0
 10
-77.00326172725798
 20
-30.41475374874778
 30
0.0
 10
-78.20641677141239
 20
-30.38081288289376
 30
0.0
 10
-79.41930191201937
 20
-30.33811493022862
 30
0.0
 10
-80.65124659449898
 20
-30.27652914327552
 30
0.0
 10
-82.12564238620325
 20
-30.20315276885908
 30
0.0
 10
-83.62007072942544
 20
-30.11003002223397
 30
0.0
 10
-85.1328145483235
 20
-29.99693195994904
 30
0.0
 10
-86.64561560308158
 20
-29.88383389766862
 30
0.0
 10
-88.17678936937815
 20
-29.75081775559102
 30
0.0
 10
-89.7249049506669
 20
-29.59759735441082
 30
0.0
 10
-91.87159317130388
 20
-29.38508060073878
 30
0.0
 10
-94.06115105219454
 20
-29.119277260027
 30
0.0
 10
-96.26862375772653
 20
-28.8286335554365
 30
0.0
 10
-103.6128433234338
 20
-27.86174814746614
 30
0.0
 10
-111.2607563701527
 20
-26.47372127073492
 30
0.0
 10
-119.0824947281857
 20
-24.61464325402785
 30
0.0
 10
-123.258594889297
 20
-23.6220589442542
 30
0.0
 10
-127.3198226764155
 20
-22.52410341349816
 30
0.0
 10
-131.2765950163389
 20
-21.35420240486171
 30
0.0
 10
-133.7449487784941
 20
-20.62433069927729
 30
0.0
 10
-136.1816511092475
 20
-19.87276660219611
 30
0.0
 10
-138.5526466710244
 20
-19.08222488344194
 30
0.0
 10
-141.6385181426816
 20
-18.05341027335367
 30
0.0
 10
-144.6379062276379
 20
-16.97588794514686
 30
0.0
 10
-147.5408518860026
 20
-15.85675514564227
 30
0.0
 10
-150.4437403085091
 20
-14.7376795820003
 30
0.0
 10
-153.2500718326986
 20
-13.5769935470612
 30
0.0
 10
-155.9497157110885
 20
-12.38173705179013
 30
0.0
 10
-163.1461522824613
 20
-9.19558835082379
 30
0.0
 10
-169.5791196975599
 20
-5.762982030330742
 30
0.0
 10
-175.0472621957015
 20
-2.215560571708126
 30
0.0
 10
-176.869995440368
 20
-1.03306767354638
 30
0.0
 10
-178.5855259164855
 20
0.1621315858627013
 30
0.0
 10
-180.1863557261987
 20
1.36522939415769
 30
0.0
 10
-181.2536328351996
 20
2.167332756924725
 30
0.0
 10
-182.2698555557664
 20
2.972984743106948
 30
0.0
 10
-183.2329633968782
 20
3.780582748582384
 30
0.0
 10
-185.159121843239
 20
5.395893231250159
 30
0.0
 10
-186.8726490642051
 20
7.019388442106684
 30
0.0
 10
-188.3558591785793
 20
8.639563973001077
 30
0.0
 10
-189.7199614652113
 20
10.12975686247394
 30
0.0
 10
-190.8870006807763
 20
11.61697348715015
 30
0.0
 10
-191.8465598984754
 20
13.09251399608439
 30
0.0
 10
-192.1663938924224
 20
13.5843417537775
 30
0.0
 10
-192.4631618341909
 20
14.07491032251473
 30
0.0
 10
-192.7365203086135
 20
14.56381905126995
 30
0.0
 10
-192.9805167860995
 20
15.00018525918796
 30
0.0
 10
-193.2096319396027
 20
15.43552122160123
 30
0.0
 10
-193.4155093333409
 20
15.86908287230658
 30
0.0
 10
-193.7916634149862
 20
16.66116995931433
 30
0.0
 10
-194.1035416241847
 20
17.44816305465588
 30
0.0
 10
-194.3490834699313
 20
18.2285167900629
 30
0.0
 10
-195.0855945354464
 20
20.56957799628781
 30
0.0
 10
-195.2242770278087
 20
22.85111390657359
 30
0.0
 10
-194.7053767076396
 20
25.0342613709757
 30
0.0
 10
-194.6206676326492
 20
25.39066908040921
 30
0.0
 10
-194.5158687702821
 20
25.74038019404556
 30
0.0
 10
-194.3977911880498
 20
26.08562691048979
 30
0.0
 10
-194.3597293401679
 20
26.19700789692878
 30
0.0
 10
-194.3129676413381
 20
26.30552709029249
 30
0.0
 10
-194.2714716417655
 20
26.41570612363887
 30
0.0
 10
-194.1839580095625
 20
26.64819819296686
 30
0.0
 10
-194.0930102256728
 20
26.87943107334284
 30
0.0
 10
-193.990386326041
 20
27.10671467927939
 30
0.0
 10
-193.9333221721459
 20
27.23314869728829
 30
0.0
 10
-193.8699620734887
 20
27.35740775255863
 30
0.0
 10
-193.8082618148142
 20
27.48218193058165
 30
0.0
 10
-193.7057523869039
 20
27.68954745672167
 30
0.0
 10
-193.5987213259389
 20
27.89531037873778
 30
0.0
 10
-193.4835627726406
 20
28.09821150768568
 30
0.0
 10
-193.4115028230388
 20
28.2251034125808
 30
0.0
 10
-193.3365238445017
 20
28.35090783611562
 30
0.0
 10
-193.2595988466733
 20
28.47602542930668
 30
0.0
 10
-193.1372858106917
 20
28.67503451967071
 30
0.0
 10
-193.0078755278886
 20
28.8714679962681
 30
0.0
 10
-192.8732567816878
 20
29.0660699252988
 30
0.0
 10
-192.791008848742
 20
29.18500604545245
 30
0.0
 10
-192.7093332744122
 20
29.30411387319011
 30
0.0
 10
-192.6225064725491
 20
29.42139015336109
 30
0.0
 10
-192.4714610341049
 20
29.6253787636725
 30
0.0
 10
-192.3103420840421
 20
29.82570427885054
 30
0.0
 10
-192.1457317464266
 20
30.02465613335195
 30
0.0
 10
-192.0622246245288
 20
30.125620193001
 30
0.0
 10
-191.9826667770718
 20
30.22807238504869
 30
0.0
 10
-191.8956682676246
 20
30.32777725574572
 30
0.0
 10
-191.6778285788321
 20
30.57732561179498
 30
0.0
 10
-191.4471680570714
 20
30.82200891962083
 30
0.0
 10
-191.207864920228
 20
31.0633153116155
 30
0.0
 10
-191.1641367220576
 20
31.10738692495726
 30
0.0
 10
-191.1249301569424
 20
31.15323285000052
 30
0.0
 10
-191.0805151284352
 20
31.19707551989179
 30
0.0
 10
-190.790272074876
 20
31.48331206314959
 30
0.0
 10
-190.4838885083756
 20
31.76336713336934
 30
0.0
 10
-190.1638255709852
 20
32.03781308916315
 30
0.0
 10
-190.0847256104176
 20
32.10563758501627
 30
0.0
 10
-189.9987573464797
 20
32.17071475951551
 30
0.0
 10
-189.917883074208
 20
32.23785242503192
 30
0.0
 10
-189.7485793959525
 20
32.37825199323954
 30
0.0
 10
-189.5803631990656
 20
32.51905221247781
 30
0.0
 10
-189.4032754436495
 20
32.65636104416736
 30
0.0
 10
-189.4043629250175
 20
32.65241176972729
 30
0.0
 10
-189.4054504063848
 20
32.64829078770001
 30
0.0
 10
-189.4065378877528
 20
32.64434151325673
 30
0.0
 10
-189.3237175961924
 20
32.70867462156049
 30
0.0
 10
-189.2464491831953
 20
32.77518269259898
 30
0.0
 10
-189.161911815789
 20
32.83882897056603
 30
0.0
 10
-189.042975695636
 20
32.92828862205713
 30
0.0
 10
-188.9181442817503
 20
33.0154016032295
 30
0.0
 10
-188.7958312457687
 20
33.10354482990661
 30
0.0
 10
-188.5588175433822
 20
33.27427940469685
 30
0.0
 10
-188.3178545665561
 20
33.44335413950891
 30
0.0
 10
-188.0684779180915
 20
33.60893748676712
 30
0.0
 10
-187.9311690864026
 20
33.70017144996614
 30
0.0
 10
-187.7905405747483
 20
33.78997451662592
 30
0.0
 10
-187.6495114120628
 20
33.87954863983905
 30
0.0
 10
-187.3987611029242
 20
34.03877880647585
 30
0.0
 10
-187.1422299717723
 20
34.1954905952054
 30
0.0
 10
-186.8798607827511
 20
34.34974124189354
 30
0.0
 10
-186.7336803925336
 20
34.43565226997331
 30
0.0
 10
-186.5872710588687
 20
34.52144882633039
 30
0.0
 10
-186.4375420452385
 20
34.6058717220115
 30
0.0
 10
-186.1580020977753
 20
34.76332757694358
 30
0.0
 10
-185.8702774221189
 20
34.91717757259787
 30
0.0
 10
-185.5784890002984
 20
35.06919602068802
 30
0.0
 10
-185.4368302431355
 20
35.14297304613191
 30
0.0
 10
-185.297861571464
 20
35.21795202467225
 30
0.0
 10
-185.153398257091
 20
35.29046986116413
 30
0.0
 10
-184.8008253503794
 20
35.46738590899948
 30
0.0
 10
-184.4375493375718
 20
35.63937967274237
 30
0.0
 10
-184.068206323445
 20
35.80868335099723
 30
0.0
 10
-183.9768578885239
 20
35.85052276574101
 30
0.0
 10
-183.8897449073515
 20
35.8943081997703
 30
0.0
 10
-183.7973662269257
 20
35.93568972762144
 30
0.0
 10
-183.3215072745859
 20
36.14889331163019
 30
0.0
 10
-182.8328847251374
 20
36.35614436604881
 30
0.0
 10
-182.3304683330735
 20
36.55681329639488
 30
0.0
 10
-182.2748350757151
 20
36.57902081064881
 30
0.0
 10
-182.2160538459746
 20
36.59968295664083
 30
0.0
 10
-182.1601344093101
 20
36.6217187633101
 30
0.0
 10
-181.7205629931481
 20
36.79508618773347
 30
0.0
 10
-181.271776603292
 20
36.96404645081965
 30
0.0
 10
-180.8125732866428
 20
37.12785548637381
 30
0.0
 10
-180.6578075172014
 20
37.183030856839
 30
0.0
 10
-180.4978905202317
 20
37.23568784940081
 30
0.0
 10
-180.3408925521929
 20
37.28983297435742
 30
0.0
 10
-179.9698896980834
 20
37.41775512476497
 30
0.0
 10
-179.5951092771178
 20
37.5437312558806
 30
0.0
 10
-179.2119724203763
 20
37.6655864049683
 30
0.0
 10
-179.0266999367682
 20
37.72453934229275
 30
0.0
 10
-178.8381650090535
 20
37.78177520377191
 30
0.0
 10
-178.6500307323733
 20
37.83929724456034
 30
0.0
 10
-178.2810311334145
 20
37.95210912753536
 30
0.0
 10
-177.9071664862329
 20
38.06240263260633
 30
0.0
 10
-177.5275782529034
 20
38.16966263701803
 30
0.0
 10
-177.3294849363233
 20
38.22563930954582
 30
0.0
 10
-177.1305903176845
 20
38.28115809517905
 30
0.0
 10
-176.9296924438918
 20
38.33558939944492
 30
0.0
 10
-176.5391721610158
 20
38.44141850732058
 30
0.0
 10
-176.1420697540756
 20
38.54369899178426
 30
0.0
 10
-175.7409036009674
 20
38.643861749372
 30
0.0
 10
-175.5473891533041
 20
38.69216881646244
 30
0.0
 10
-175.3554200739059
 20
38.74133442147489
 30
0.0
 10
-175.1595017200612
 20
38.78826782788486
 30
0.0
 10
-174.7074528860985
 20
38.8966153136684
 30
0.0
 10
-174.246704201188
 20
39.00021222294224
 30
0.0
 10
-173.7818345342541
 20
39.10146246190118
 30
0.0
 10
-173.6312469827025
 20
39.13425861052843
 30
0.0
 10
-173.4840363469796
 20
39.16894354258242
 30
0.0
 10
-173.3321323706146
 20
39.20099562501034
 30
0.0
 10
-172.0799834290325
 20
39.46513912573945
 30
0.0
 10
-170.7830188079092
 20
39.70369819638346
 30
0.0
 10
-169.4439285927431
 20
39.91661560108679
 30
0.0
 10
-169.2654099407909
 20
39.94500458838134
 30
0.0
 10
-169.0824268916402
 20
39.9705890184626
 30
0.0
 10
-168.9024201072894
 20
39.9980622319738
 30
0.0
 10
-168.4140837371463
 20
40.07258332362022
 30
0.0
 10
-167.922255979457
 20
40.14492945252808
 30
0.0
 10
-167.4230447956339
 20
40.21269671251921
 30
0.0
 10
-167.1883777635705
 20
40.24451985150435
 30
0.0
 10
-166.950391051538
 20
40.27428249947167
 30
0.0
 10
-166.7133201132926
 20
40.30461750605494
 30
0.0
 10
-166.2562917593787
 20
40.36311255648932
 30
0.0
 10
-165.7957720179181
 20
40.41943264418129
 30
0.0
 10
-165.3301582847848
 20
40.47231858018974
 30
0.0
 10
-165.0748291067256
 20
40.50133716195837
 30
0.0
 10
-164.8181835038518
 20
40.52943996994367
 30
0.0
 10
-164.5602787120265
 20
40.55674147587021
 30
0.0
 10
-164.0940353844153
 20
40.60613602432865
 30
0.0
 10
-163.6229842444433
 20
40.65238260040256
 30
0.0
 10
-163.1485561886433
 20
40.6962825061571
 30
0.0
 10
-162.8940283126422
 20
40.71980644522503
 30
0.0
 10
-162.6400727952564
 20
40.74384550704887
 30
0.0
 10
-162.3831982489398
 20
40.7657668419929
 30
0.0
 10
-161.875458921756
 20
40.80915162499474
 30
0.0
 10
-161.3613091780914
 20
40.84801477493864
 30
0.0
 10
-160.8446410565164
 20
40.88516084903981
 30
0.0
 10
-160.6155259030164
 20
40.90164477714577
 30
0.0
 10
-160.3889863632792
 20
40.91984578109701
 30
0.0
 10
-160.1581541339345
 20
40.93507052024775
 30
0.0
 10
-159.4882656111825
 20
40.97925660531154
 30
0.0
 10
-158.8106502471292
 20
41.01800528353341
 30
0.0
 10
-158.126509994866
 20
41.05183167766925
 30
0.0
 10
-158.0478106853329
 20
41.05572371624669
 30
0.0
 10
-157.9712291026725
 20
41.061103887226
 30
0.0
 10
-157.8923580855553
 20
41.06482421822199
 30
0.0
 10
-157.1231081072749
 20
41.10139793370914
 30
0.0
 10
-156.344185268404
 20
41.1307599306458
 30
0.0
 10
-155.5577072958183
 20
41.15411216212971
 30
0.0
 10
-155.3427294001016
 20
41.16046534275499
 30
0.0
 10
-155.1236877582197
 20
41.16361331513632
 30
0.0
 10
-154.907507909413
 20
41.16899348611498
 30
0.0
 10
-154.3403005221527
 20
41.18318797976097
 30
0.0
 10
-153.7708609362977
 20
41.19555092583899
 30
0.0
 10
-153.1951826415394
 20
41.20293435197285
 30
0.0
 10
-152.900360719059
 20
41.2067119188289
 30
0.0
 10
-152.6021046448919
 20
41.20768492847487
 30
0.0
 10
-152.3051077596722
 20
41.20963094776294
 30
0.0
 10
-151.8289626280308
 20
41.21283615600689
 30
0.0
 10
-151.3505852977838
 20
41.21409534496276
 30
0.0
 10
-150.8689455234378
 20
41.21266444842287
 30
0.0
 10
-150.3384835592481
 20
41.21106184430283
 30
0.0
 10
-149.802641424079
 20
41.2048231354028
 30
0.0
 10
-149.2655400999586
 20
41.19755418099418
 30
0.0
 10
-148.8824604790759
 20
41.19240295346151
 30
0.0
 10
-148.5009262264544
 20
41.18839644315563
 30
0.0
 10
-148.1145841614728
 20
41.1803261866889
 30
0.0
 10
-147.5466327080132
 20
41.1685355992217
 30
0.0
 10
-146.9722708380689
 20
41.15084971802636
 30
0.0
 10
-146.3974510812346
 20
41.13282042165977
 30
0.0
 10
-146.0336027098084
 20
41.12143048522386
 30
0.0
 10
-145.6724444238735
 20
41.11227274738914
 30
0.0
 10
-145.3059059669632
 20
41.09836443304921
 30
0.0
 10
-144.6671537528532
 20
41.07409642778195
 30
0.0
 10
-144.0209036408911
 20
41.04267393983132
 30
0.0
 10
-143.3743101137604
 20
41.01079356498742
 30
0.0
 10
-143.0630042631747
 20
40.99545435411144
 30
0.0
 10
-142.7552470360003
 20
40.98360653078547
 30
0.0
 10
-142.4421668737099
 20
40.96643577233961
 30
0.0
 10
-141.4796886270761
 20
40.91383601564042
 30
0.0
 10
-140.5100558977551
 20
40.85385283281122
 30
0.0
 10
-139.5317233174894
 20
40.7844257328342
 30
0.0
 10
-140.9385235567872
 20
39.76848919158049
 30
0.0
 10
-142.289690538729
 20
38.67431122767987
 30
0.0
 10
-143.5776118937358
 20
37.50509704938334
 30
0.0
 10
-144.2216298070998
 20
36.92043272437117
 30
0.0
 10
-144.8496789151106
 20
36.3171667443803
 30
0.0
 10
-145.4611296232941
 20
35.69535634526952
 30
0.0
 10
-146.0725230956143
 20
35.07360318202137
 30
0.0
 10
-146.6672609322452
 20
34.43342007137533
 30
0.0
 10
-147.2441984159555
 20
33.77532213608729
 30
0.0
 10
-147.2441984159555
 20
33.77532213608729
 30
0.0
 10
-147.2442556518181
 20
33.77532213608729
 30
0.0
 10
-147.2442556518181
 20
33.77532213608729
 30
0.0
 10
-149.2131692867061
 20
33.70177405408683
 30
0.0
 10
-151.0954850631718
 20
33.57076116715993
 30
0.0
 10
-152.8806143468503
 20
33.38308477736982
 30
0.0
 10
-153.4756955986492
 20
33.32052598077461
 30
0.0
 10
-154.0599020367681
 20
33.25172847527552
 30
0.0
 10
-154.6329474818978
 20
33.17657778915438
 30
0.0
 10
-155.3969889967829
 20
33.07641503156343
 30
0.0
 10
-156.1412269035973
 20
32.96509128098707
 30
0.0
 10
-156.8645737209718
 20
32.84272100914284
 30
0.0
 10
-158.3113245915846
 20
32.5979232295988
 30
0.0
 10
-159.6747972837426
 20
32.30893936498777
 30
0.0
 10
-160.9474938995954
 20
31.97617006634744
 30
0.0
 10
-164.1293499109498
 20
31.14424681974982
 30
0.0
 10
-166.7440557709066
 20
30.03913680630657
 30
0.0
 10
-168.6757088599681
 20
28.66953987697002
 30
0.0
 10
-169.4483357540765
 20
28.12173544675361
 30
0.0
 10
-170.1116993886218
 20
27.53157647904009
 30
0.0
 10
-170.6583018657494
 20
26.89974980417003
 30
0.0
 10
-170.8632634857074
 20
26.66279333764671
 30
0.0
 10
-171.0517984134183
 20
26.41999881325018
 30
0.0
 10
-171.2235632337177
 20
26.17130899512549
 30
0.0
 10
-171.7388576946161
 20
25.42529677660378
 30
0.0
 10
-172.1028205377637
 20
24.62674203724552
 30
0.0
 10
-172.3049203646464
 20
23.77644607910879
 30
0.0
 10
-172.3839058534849
 20
23.44396295977452
 30
0.0
 10
-172.4372496763867
 20
23.10730162255353
 30
0.0
 10
-172.4654669560933
 20
22.76697719019853
 30
0.0
 10
-172.4936842358039
 20
22.42659552198476
 30
0.0
 10
-172.4967749723264
 20
22.08255075862993
 30
0.0
 10
-172.475254288406
 20
21.73507184359156
 30
0.0
 10
-172.432212920576
 20
21.04005677764835
 30
0.0
 10
-172.2908403427225
 20
20.33141957667125
 30
0.0
 10
-172.0554292444559
 20
19.61167861857136
 30
0.0
 10
-171.1138420872614
 20
16.73277202202671
 30
0.0
 10
-168.6682109621161
 20
13.67717832109656
 30
0.0
 10
-164.9979613447591
 20
10.61282753335593
 30
0.0
 10
-163.9657125829803
 20
9.750969931203133
 30
0.0
 10
-162.8365062718538
 20
8.888425498712987
 30
0.0
 10
-161.6167528278727
 20
8.028971802738336
 30
0.0
 10
-161.210149267922
 20
7.742449080175767
 30
0.0
 10
-160.7934721963539
 20
7.456327008640004
 30
0.0
 10
-160.3669505566099
 20
7.170662823997515
 30
0.0
 10
-159.7982550369548
 20
6.789758165850115
 30
0.0
 10
-159.2121025795433
 20
6.409712045631136
 30
0.0
 10
-158.6089510712777
 20
6.030810642638289
 30
0.0
 10
-158.4734737871555
 20
5.945700916617266
 30
0.0
 10
-158.327636812106
 20
5.861392492658192
 30
0.0
 10
-158.1904424521384
 20
5.776397238363055
 30
0.0
 10
-157.7272326251872
 20
5.489817279933373
 30
0.0
 10
-157.2624201941152
 20
5.203351793232786
 30
0.0
 10
-156.7792922873706
 20
4.918488910649039
 30
0.0
 10
-156.7281806630662
 20
4.888268375787804
 30
0.0
 10
-156.6809038414876
 20
4.857704425757896
 30
0.0
 10
-156.629620509603
 20
4.827483890896662
 30
0.0
 10
-156.0609822258067
 20
4.492539629520972
 30
0.0
 10
-155.4717962677353
 20
4.159770330880641
 30
0.0
 10
-154.8774590821357
 20
3.827573390854982
 30
0.0
 10
-154.8736242794177
 20
3.825455663982244
 30
0.0
 10
-154.8700756560057
 20
3.823223465384904
 30
0.0
 10
-154.8662408532877
 20
3.821105738508316
 30
0.0
 10
-154.7552605178794
 20
3.759119300527778
 30
0.0
 10
-154.6510340141238
 20
3.696388796344705
 30
0.0
 10
-154.5391951407947
 20
3.634459594223581
 30
0.0
 10
-154.0742682379975
 20
3.377184396875641
 30
0.0
 10
-153.5898811423015
 20
3.12231310570649
 30
0.0
 10
-153.1100729155184
 20
2.866869455925878
 30
0.0
 10
-153.109786736213
 20
2.86669774834122
 30
0.0
 10
-153.1095005569037
 20
2.866583276619827
 30
0.0
 10
-153.1092143775977
 20
2.86641156903196
 30
0.0
 10
-152.8514812933565
 20
2.729217209068293
 30
0.0
 10
-152.6034783055653
 20
2.590706424286779
 30
0.0
 10
-152.341452531716
 20
2.454084422937781
 30
0.0
 10
-151.7587914618545
 20
2.150276470206669
 30
0.0
 10
-151.1568991425403
 20
1.849387546410886
 30
0.0
 10
-150.5537476342708
 20
1.548784801920513
 30
0.0
 10
-150.5026360099702
 20
1.523314843563861
 30
0.0
 10
-150.4536421125431
 20
1.497501470035326
 30
0.0
 10
-150.4024160165205
 20
1.472088747538087
 30
0.0
 10
-149.5012946133932
 20
1.024676018356055
 30
0.0
 10
-148.5845478200767
 20
0.5800678463828258
 30
0.0
 10
-147.6396982187789
 20
0.140897081254733
 30
0.0
 10
-146.9351819998297
 20
-0.1865492822689117
 30
0.0
 10
-146.2133805507158
 20
-0.5102180789339396
 30
0.0
 10
-145.4854548644234
 20
-0.8325704507843287
 30
0.0
 10
-145.3698956600945
 20
-0.8837393109468385
 30
0.0
 10
-145.2594876833015
 20
-0.9361101242032349
 30
0.0
 10
-145.1433561203611
 20
-0.9871645126405008
 30
0.0
 10
-144.5525103223109
 20
-1.246786380311666
 30
0.0
 10
-143.944779945124
 20
-1.502115558370884
 30
0.0
 10
-143.3392817665352
 20
-1.758017095041564
 30
0.0
 10
-143.3361337941539
 20
-1.759333519855561
 30
0.0
 10
-143.3331575293566
 20
-1.760707180532821
 30
0.0
 10
-143.3300095569752
 20
-1.76202360534746
 30
0.0
 10
-143.3292082549133
 20
-1.762367020515492
 30
0.0
 10
-143.3283497169926
 20
-1.762710435683524
 30
0.0
 10
-143.3275484149306
 20
-1.763053850852197
 30
0.0
 10
-143.068269962432
 20
-1.872603289724494
 30
0.0
 10
-142.8170617664
 20
-1.984270455469528
 30
0.0
 10
-142.5551504642689
 20
-2.093075828142497
 30
0.0
 10
-142.1118587171103
 20
-2.277260830382612
 30
0.0
 10
-141.6540862970003
 20
-2.457210378874043
 30
0.0
 10
-141.2034111237149
 20
-2.639277654238853
 30
0.0
 10
-141.1459463187898
 20
-2.662515414000732
 30
0.0
 10
-141.0885959855886
 20
-2.685753173759403
 30
0.0
 10
-141.0310167089382
 20
-2.70893369765866
 30
0.0
 10
-140.6461055404919
 20
-2.863871174683506
 30
0.0
 10
-140.2691501567878
 20
-3.021155322028369
 30
0.0
 10
-139.8789732890843
 20
-3.174432959070543
 30
0.0
 10
-139.5328107988567
 20
-3.310482601804229
 30
0.0
 10
-139.174800485307
 20
-3.442468498377098
 30
0.0
 10
-138.8245742489141
 20
-3.577201716299354
 30
0.0
 10
-137.34096348351
 20
-4.14772878352559
 30
0.0
 10
-135.8310814576865
 20
-4.709441528081933
 30
0.0
 10
-134.2781008281712
 20
-5.253983514195618
 30
0.0
 10
-133.9645627789868
 20
-5.363933604098568
 30
0.0
 10
-133.6414663409371
 20
-5.469705476111607
 30
0.0
 10
-133.3252382062654
 20
-5.578510848780726
 30
0.0
 10
-132.119622020067
 20
-5.993299136923375
 30
0.0
 10
-130.8921989706421
 20
-6.398242856887545
 30
0.0
 10
-129.6512682579118
 20
-6.796547216921033
 30
0.0
 10
-129.495186063657
 20
-6.846628595716183
 30
0.0
 10
-129.3396189921574
 20
-6.896881682095992
 30
0.0
 10
-129.1829072034279
 20
-6.946676881581883
 30
0.0
 10
-128.9114375124314
 20
-7.032874088970265
 30
0.0
 10
-128.6450618131081
 20
-7.121646910125302
 30
0.0
 10
-128.3715316310977
 20
-7.206813872005096
 30
0.0
 10
-127.3633219311426
 20
-7.520638100498704
 30
0.0
 10
-126.3437222947511
 20
-7.828452563531862
 30
0.0
 10
-125.3133050805389
 20
-8.12974213835894
 30
0.0
 10
-124.2828878663267
 20
-8.431088949048641
 30
0.0
 10
-123.2415958384345
 20
-8.725910871525202
 30
0.0
 10
-122.1902302989243
 20
-9.013921726490275
 30
0.0
 10
-121.1388075235482
 20
-9.301875345593368
 30
0.0
 10
-120.0772540006947
 20
-9.583017897176627
 30
0.0
 10
-119.0061420889719
 20
-9.856891494355766
 30
0.0
 10
-117.9350301772492
 20
-10.13076509153426
 30
0.0
 10
-116.8543598766578
 20
-10.39736973430414
 30
0.0
 10
-115.764875253403
 20
-10.65636200750122
 30
0.0
 10
-115.7609832148223
 20
-10.65727778128072
 30
0.0
 10
-115.7570911762417
 20
-10.65807908334266
 30
0.0
 10
-115.753199137661
 20
-10.65899485712601
 30
0.0
 10
-114.2511011889996
 20
-11.0159176893122
 30
0.0
 10
-112.7611944788321
 20
-11.34473771350926
 30
0.0
 10
-111.278270543764
 20
-11.6606796688756
 30
0.0
 10
-111.278270543764
 20
-11.6606796688756
 30
0.0
 10
-111.2743212693239
 20
-11.66153820679632
 30
0.0
 10
-111.2743212693239
 20
-11.66153820679632
 30
0.0
 10
-110.9689679483322
 20
-11.72661538129941
 30
0.0
 10
-110.6639580425085
 20
-11.79112019718655
 30
0.0
 10
-110.3594632594413
 20
-11.85453753170312
 30
0.0
 10
-110.3220310060334
 20
-11.86232160886763
 30
0.0
 10
-110.2845415167636
 20
-11.87044910119761
 30
0.0
 10
-110.2471092633557
 20
-11.87823317835892
 30
0.0
 10
-110.2460217819883
 20
-11.87846212180235
 30
0.0
 10
-110.2448770647584
 20
-11.87869106524898
 30
0.0
 10
-110.2437895833904
 20
-11.87892000869562
 30
0.0
 10
-108.7851336535934
 20
-12.18135430075268
 30
0.0
 10
-107.3344335085379
 20
-12.46879279709923
 30
0.0
 10
-105.8990725743615
 20
-12.73161987301435
 30
0.0
 10
-105.7742411604759
 20
-12.75451421760435
 30
0.0
 10
-105.6507261714049
 20
-12.77546254290562
 30
0.0
 10
-105.5268105313032
 20
-12.79692599096023
 30
0.0
 10
-105.4817659083148
 20
-12.80476730398351
 30
0.0
 10
-105.4367785211968
 20
-12.81243690942342
 30
0.0
 10
-105.3915621906276
 20
-12.82062163761217
 30
0.0
 10
-105.3891582844424
 20
-12.82107952450545
 30
0.0
 10
-105.3867543782604
 20
-12.82148017553675
 30
0.0
 10
-105.3843504720784
 20
-12.82188082656355
 30
0.0
 10
-104.072390055251
 20
-13.05832217033867
 30
0.0
 10
-102.7730215279496
 20
-13.27599015154338
 30
0.0
 10
-101.4840126915755
 20
-13.47957811082413
 30
0.0
 10
-101.4821239081494
 20
-13.47986429013018
 30
0.0
 10
-101.4801778888575
 20
-13.48020770530206
 30
0.0
 10
-101.4782891054275
 20
-13.48049388460812
 30
0.0
 10
-101.3752645547651
 20
-13.49674886926679
 30
0.0
 10
-101.2725261834114
 20
-13.5127176746207
 30
0.0
 10
-101.1694443968864
 20
-13.52914436686402
 30
0.0
 10
-100.9597322004264
 20
-13.56251287410659
 30
0.0
 10
-100.7497910605203
 20
-13.59628203238044
 30
0.0
 10
-100.5411091095657
 20
-13.62810517136172
 30
0.0
 10
-99.14850336391394
 20
-13.84039298158713
 30
0.0
 10
-97.76906186640596
 20
-14.03539556164848
 30
0.0
 10
-96.40787860870418
 20
-14.20933534468331
 30
0.0
 10
-96.40787860870418
 20
-14.20933534468331
 30
0.0
 10
-96.40650494803075
 20
-14.20950705226797
 30
0.0
 10
-96.40650494803075
 20
-14.20950705226797
 30
0.0
 10
-96.19501843986345
 20
-14.23652237888526
 30
0.0
 10
-95.98627925305002
 20
-14.26044696898384
 30
0.0
 10
-95.77628087728138
 20
-14.28574521975968
 30
0.0
 10
-95.74096635075008
 20
-14.28998067350901
 30
0.0
 10
-95.70570906007757
 20
-14.29421612725769
 30
0.0
 10
-95.67028006182106
 20
-14.29856605272841
 30
0.0
 10
-94.83515160698013
 20
-14.40147613166939
 30
0.0
 10
-94.01587748576659
 20
-14.48744439561113
 30
0.0
 10
-93.19414222250522
 20
-14.5758738015975
 30
0.0
 10
-92.82823336007281
 20
-14.61525207429344
 30
0.0
 10
-92.45476936391805
 20
-14.66275783932258
 30
0.0
 10
-92.09166505869445
 20
-14.69933155480973
 30
0.0
 10
-91.83158530413065
 20
-14.7254883435063
 30
0.0
 10
-91.56921611510945
 20
-14.75439245354969
 30
0.0
 10
-91.3106244929475
 20
-14.77911834571022
 30
0.0
 10
-89.99522992442955
 20
-14.90475106165717
 30
0.0
 10
-88.69986790743402
 20
-15.01069464125487
 30
0.0
 10
-87.42436673436792
 20
-15.09872339621058
 30
0.0
 10
-87.42322201713793
 20
-15.09878063207256
 30
0.0
 10
-87.42207729990795
 20
-15.09883786793197
 30
0.0
 10
-87.42093258268118
 20
-15.09895233965722
 30
0.0
 10
-87.36060598468011
 20
-15.10313055754328
 30
0.0
 10
-87.30130963218696
 20
-15.10645023750862
 30
0.0
 10
-87.24138368522039
 20
-15.11028504022665
 30
0.0
 10
-87.02806562948643
 20
-15.12402164698257
 30
0.0
 10
-86.81577781925716
 20
-15.13701418754238
 30
0.0
 10
-86.60274594283242
 20
-15.15052185084717
 30
0.0
 10
-85.61479773783812
 20
-15.21290893986221
 30
0.0
 10
-84.64533671610494
 20
-15.25944169524539
 30
0.0
 10
-83.6837742432545
 20
-15.29939232655665
 30
0.0
 10
-83.52792099244565
 20
-15.30585997890331
 30
0.0
 10
-83.36565732515342
 20
-15.31770780222928
 30
0.0
 10
-83.21054814054392
 20
-15.32354586010187
 30
0.0
 10
-83.05314952147382
 20
-15.32949838969649
 30
0.0
 10
-82.89317528864154
 20
-15.3375686461632
 30
0.0
 10
-82.73583390543469
 20
-15.34357841161659
 30
0.0
 10
-82.71620200494743
 20
-15.34432247781977
 30
0.0
 10
-82.69605498170426
 20
-15.34546719504654
 30
0.0
 10
-82.67653755294221
 20
-15.34609678952383
 30
0.0
 10
-81.45048816419395
 20
-15.38713490220245
 30
0.0
 10
-80.25277052688213
 20
-15.40596550063163
 30
0.0
 10
-79.0755433279738
 20
-15.40980030334966
 30
0.0
 10
-78.95454671680683
 20
-15.41020095438096
 30
0.0
 10
-78.82593773606576
 20
-15.41632519155895
 30
0.0
 10
-78.70551348351411
 20
-15.41632519155895
 30
0.0
 10
-78.41469807133575
 20
-15.41632519155895
 30
0.0
 10
-78.13344104802659
 20
-15.4095141240404
 30
0.0
 10
-77.84577360823341
 20
-15.40722468958365
 30
0.0
 10
-77.84571637237078
 20
-15.40722468958365
 30
0.0
 10
-77.84571637237078
 20
-15.40722468958365
 30
0.0
 10
-77.84565913650816
 20
-15.40722468958365
 30
0.0
 10
-77.71189892823123
 20
-15.40619444407506
 30
0.0
 10
-77.57945514476894
 20
-15.40413395306495
 30
0.0
 10
-77.44580940821404
 20
-15.40298923583432
 30
0.0
 10
-77.24531218545199
 20
-15.40121492412641
 30
0.0
 10
-77.0440136606312
 20
-15.4001274427629
 30
0.0
 10
-76.84592034405113
 20
-15.39669329107167
 30
0.0
 10
-76.74449839751203
 20
-15.39491897936376
 30
0.0
 10
-76.64616718748778
 20
-15.39102694078375
 30
0.0
 10
-76.54543207128601
 20
-15.38885197804839
 30
0.0
 10
-76.1577735814859
 20
-15.38038107055038
 30
0.0
 10
-75.77188940339368
 20
-15.37076544582239
 30
0.0
 10
-75.38949661285148
 20
-15.35857420732389
 30
0.0
 10
-75.38783677286497
 20
-15.35851697146512
 30
0.0
 10
-75.38611969702353
 20
-15.3584597356025
 30
0.0
 10
-75.38445985704085
 20
-15.3584597356025
 30
0.0
 10
-75.08179662153651
 20
-15.34884411087451
 30
0.0
 10
-74.7759854136547
 20
-15.34123174129722
 30
0.0
 10
-74.47732868845625
 20
-15.32886879521855
 30
0.0
 10
-74.47732868845625
 20
-15.32886879521855
 30
0.0
 10
-74.47458136710558
 20
-15.32869708763454
 30
0.0
 10
-74.47458136710558
 20
-15.32869708763454
 30
0.0
 10
-73.95562381106994
 20
-15.30723363958057
 30
0.0
 10
-73.44799895561144
 20
-15.27861570883939
 30
0.0
 10
-72.94151881738357
 20
-15.24913924017684
 30
0.0
 10
-72.93734059949686
 20
-15.24891029673405
 30
0.0
 10
-72.93299067402293
 20
-15.24873858914618
 30
0.0
 10
-72.92881245613623
 20
-15.24850964569955
 30
0.0
 10
-72.6860751675991
 20
-15.23437238791682
 30
0.0
 10
-72.43824388739513
 20
-15.22344033837419
 30
0.0
 10
-72.19819668435312
 20
-15.20747153302093
 30
0.0
 10
-72.19470529680312
 20
-15.20724258957365
 30
0.0
 10
-72.19104220166589
 20
-15.20712811785225
 30
0.0
 10
-72.1875508141159
 20
-15.20689917440561
 30
0.0
 10
-71.44165306731943
 20
-15.15698950319769
 30
0.0
 10
-70.70783208729173
 20
-15.09952469827189
 30
0.0
 10
-69.99118186571054
 20
-15.03187191000342
 30
0.0
 10
-68.57310616170211
 20
-14.89788275827985
 30
0.0
 10
-67.21346827226158
 20
-14.72915143863646
 30
0.0
 10
-65.91730495320409
 20
-14.52613583797423
 30
0.0
 10
-64.62114163414597
 20
-14.32306300144231
 30
0.0
 10
-63.38851012132966
 20
-14.08576311974968
 30
0.0
 10
-62.2244471705626
 20
-13.81440790047843
 30
0.0
 10
-61.06038421979874
 20
-13.54310991706595
 30
0.0
 10
-59.96494706694673
 20
-13.23781383193682
 30
0.0
 10
-58.94311523195717
 20
-12.89897753198048
 30
0.0
 10
-57.410453333269
 20
-12.39072308204019
 30
0.0
 10
-56.04343201769847
 20
-11.80697453081521
 30
0.0
 10
-54.85939375127609
 20
-11.14893383138981
 30
0.0
 10
-52.0966187176718
 20
-9.613524611347765
 30
0.0
 10
-50.32974767380714
 20
-7.673801265815635
 30
0.0
 10
-49.77650583674881
 20
-5.34619048703739
 30
0.0
 10
-49.6867027700884
 20
-4.968262093690507
 30
0.0
 10
-49.63003926722453
 20
-4.585125236948976
 30
0.0
 10
-49.60571402609531
 20
-4.197180567843449
 30
0.0
 10
-49.53279553856893
 20
-3.033346560522374
 30
0.0
 10
-49.75109311425157
 20
-1.826528421234598
 30
0.0
 10
-50.23897159750077
 20
-0.5897186905283757
 30
0.0
 10
-50.40163591582493
 20
-0.1775060161555901
 30
0.0
 10
-50.59417735384166
 20
0.2381980457704025
 30
0.0
 10
-50.81596631707366
 20
0.6565921931805942
 30
0.0
 10
-51.48121873504506
 20
1.911946343006094
 30
0.0
 10
-52.40906928548429
 20
3.19288492290964
 30
0.0
 10
-53.57771110516937
 20
4.486529864064372
 30
0.0
 10
-56.69420376271526
 20
7.936192471281252
 30
0.0
 10
-61.52393746191869
 20
11.4759443244646
 30
0.0
 10
-67.65824815181883
 20
14.85927056822765
 30
0.0
 10
-67.8774042654222
 20
15.70664749742584
 30
0.0
 10
-68.12042773326216
 20
16.54583969843592
 30
0.0
 10
-68.38668896086722
 20
17.37621757677547
 30
0.0
 10
-68.91921141606707
 20
19.03691609759644
 30
0.0
 10
-69.54457043858983
 20
20.66207114843948
 30
0.0
 10
-70.257328621591
 20
22.24538678453747
 30
0.0
 10
-70.61373633102066
 20
23.037015984659
 30
0.0
 10
-70.99189366781418
 20
23.81822825798738
 30
0.0
 10
-71.39128550921824
 20
24.58816506660767
 30
0.0
 10
-70.52937067120217
 20
24.22797979031876
 30
0.0
 10
-69.67735763722079
 20
23.86413141889583
 30
0.0
 10
-68.8354753507233
 20
23.49696336750435
 30
0.0
 10
-67.99365030008458
 20
23.12973808025346
 30
0.0
 10
-67.16189876107098
 20
22.75919311303723
 30
0.0
 10
-66.34067862056615
 20
22.38538570171828
 30
0.0
 10
-64.69823833955584
 20
21.63782811493851
 30
0.0
 10
-63.09769470915195
 20
20.87756416690884
 30
0.0
 10
-61.54156610725461
 20
20.10619646175188
 30
0.0
 10
-59.20737320440768
 20
18.94911628608737
 30
0.0
 10
-56.97317135156381
 20
17.76708127481954
 30
0.0
 10
-54.84737422036225
 20
16.56564330650722
 30
0.0
 10
-54.13879425525163
 20
16.16516398373837
 30
0.0
 10
-53.44223382104714
 20
15.76250969823159
 30
0.0
 10
-52.75803633292517
 20
15.35796662929487
 30
0.0
 10
-51.38969859254
 20
14.54876601970003
 30
0.0
 10
-50.07075540061712
 20
13.73183856880971
 30
0.0
 10
-48.80383960677169
 20
12.90872964487493
 30
0.0
 10
-47.53692381292563
 20
12.08562072094335
 30
0.0
 10
-46.32192094544525
 20
11.25633032397116
 30
0.0
 10
-45.16146385395279
 20
10.42251829394039
 30
0.0
 10
-39.57724702872965
 20
6.410398875967842
 30
0.0
 10
-35.26629917797785
 20
2.294281897685676
 30
0.0
 10
-32.48526590456355
 20
-1.743822601395573
 30
0.0
 10
-31.79866451025572
 20
-2.740814072502565
 30
0.0
 10
-31.19431104889686
 20
-3.733627325723495
 30
0.0
 10
-30.69985044157512
 20
-4.718255850751825
 30
0.0
 10
-30.28363125690029
 20
-5.547031124967475
 30
0.0
 10
-29.93695364392002
 20
-6.37048346407093
 30
0.0
 10
-29.66245045226744
 20
-7.18695302807118
 30
0.0
 10
-28.83882640557997
 20
-9.636304484216367
 30
0.0
 10
-28.66397084876179
 20
-12.0226964927312
 30
0.0
 10
-29.20565104179956
 20
-14.30182849683498
 30
0.0
  0
SPLINE
  5
7A
330
70
100
AcDbEntity
  8
Layer 1
100
AcDbSpline
210
0.0
220
0.0
230
1.0
 70
     9
 71
     3
 72
    98
 73
    94
 74
     0
 42
0.0000000001
 43
0.0000000001
 40
0.0
 40
0.0
 40
0.0
 40
0.0
 40
1.0
 40
1.0
 40
1.0
 40
2.0
 40
2.0
 40
2.0
 40
3.0
 40
3.0
 40
3.0
 40
4.0
 40
4.0
 40
4.0
 40
5.0
 40
5.0
 40
5.0
 40
6.0
 40
6.0
 40
6.0
 40
7.0
 40
7.0
 40
7.0
 40
8.0
 40
8.0
 40
8.0
 40
9.0
 40
9.0
 40
9.0
 40
10.0
 40
10.0
 40
10.0
 40
11.0
 40
11.0
 40
11.0
 40
12.0
 40
12.0
 40
12.0
 40
13.0
 40
13.0
 40
13.0
 40
14.0
 40
14.0
 40
14.0
 40
15.0
 40
15.0
 40
15.0
 40
16.0
 40
16.0
 40
16.0
 40
17.0
 40
17.0
 40
17.0
 40
18.0
 40
18.0
 40
18.0
 40
19.0
 40
19.0
 40
19.0
 40
20.0
 40
20.0
 40
20.0
 40
21.0
 40
21.0
 40
21.0
 40
22.0
 40
22.0
 40
22.0
 40
23.0
 40
23.0
 40
23.0
 40
24.0
 40
24.0
 40
24.0
 40
25.0
 40
25.0
 40
25.0
 40
26.0
 40
26.0
 40
26.0
 40
27.0
 40
27.0
 40
27.0
 40
28.0
 40
28.0
 40
28.0
 40
29.0
 40
29.0
 40
29.0
 40
30.0
 40
30.0
 40
30.0
 40
31.0
 40
31.0
 40
31.0
 40
31.0
 10
-103.3381111883339
 20
-38.20707287398148
 30
0.0
 10
-106.296289453027
 20
-38.85538347695301
 30
0.0
 10
-109.3343117444864
 20
-39.20337751474792
 30
0.0
 10
-112.4170352437591
 20
-39.20337751474792
 30
0.0
 10
-115.4756624453485
 20
-39.20337751474792
 30
0.0
 10
-118.5471104799067
 20
-38.8526933914656
 30
0.0
 10
-121.5629824929722
 20
-38.1894442286449
 30
0.0
 10
-121.7991376574342
 20
-38.13747406642045
 30
0.0
 10
-122.0374677846348
 20
-38.09826750130787
 30
0.0
 10
-122.2728788829007
 20
-38.04229082878136
 30
0.0
 10
-133.1327540041113
 20
-35.4610679477924
 30
0.0
 10
-142.3592893462868
 20
-28.80573921084265
 30
0.0
 10
-148.233577517489
 20
-19.61240066832562
 30
0.0
 10
-146.9763918200962
 20
-20.09266678199881
 30
0.0
 10
-145.7041530911334
 20
-20.5603410061422
 30
0.0
 10
-144.4235579263979
 20
-21.02068904002206
 30
0.0
 10
-144.077280964449
 20
-21.14517703873903
 30
0.0
 10
-143.7267113128887
 20
-21.26588747060059
 30
0.0
 10
-143.3787172750937
 20
-21.38888733691891
 30
0.0
 10
-142.313500657103
 20
-21.76544206958853
 30
0.0
 10
-141.2410150847068
 20
-22.13535744233068
 30
0.0
 10
-140.1604020199775
 20
-22.49811833238561
 30
0.0
 10
-139.7424657594573
 20
-22.63840342887183
 30
0.0
 10
-139.3245294989372
 20
-22.77863128949543
 30
0.0
 10
-138.9043038039526
 20
-22.91685589496768
 30
0.0
 10
-137.662915204329
 20
-23.32517653076046
 30
0.0
 10
-136.4128839896235
 20
-23.72525520250122
 30
0.0
 10
-135.1522641405439
 20
-24.11520312675809
 30
0.0
 10
-134.9746040265131
 20
-24.17014955377986
 30
0.0
 10
-134.7997484696949
 20
-24.22772883042706
 30
0.0
 10
-134.6216877046328
 20
-24.28233184227758
 30
0.0
 10
-133.1910201110952
 20
-24.72104472051882
 30
0.0
 10
-131.7458146087442
 20
-25.14510521821758
 30
0.0
 10
-130.2914513685579
 20
-25.55989350635702
 30
0.0
 10
-130.2205933720455
 20
-25.58009776545897
 30
0.0
 10
-130.1512807437937
 20
-25.60201910040685
 30
0.0
 10
-130.0803655114219
 20
-25.62216612364617
 30
0.0
 10
-129.7501145906888
 20
-25.71603293647126
 30
0.0
 10
-129.4152848010306
 20
-25.80486299348828
 30
0.0
 10
-129.0838891630675
 20
-25.89747061736134
 30
0.0
 10
-127.9764324793049
 20
-26.20688768451776
 30
0.0
 10
-126.8628515583675
 20
-26.50937921243423
 30
0.0
 10
-125.7424595699115
 20
-26.8048879652552
 30
0.0
 10
-125.3080393812816
 20
-26.91947415993428
 30
0.0
 10
-124.8746494381635
 20
-27.03486165667595
 30
0.0
 10
-124.4383404661042
 20
-27.14727288862352
 30
0.0
 10
-122.9582210882526
 20
-27.52874990537853
 30
0.0
 10
-121.4708327559892
 20
-27.90215666567068
 30
0.0
 10
-119.9693644018051
 20
-28.2591367337195
 30
0.0
 10
-119.962782277737
 20
-28.26068210197692
 30
0.0
 10
-119.9564290971117
 20
-28.26245641368484
 30
0.0
 10
-119.949846973043
 20
-28.26400178194226
 30
0.0
 10
-119.9432648489711
 20
-28.26554715020354
 30
0.0
 10
-119.9367971966244
 20
-28.26692081088016
 30
0.0
 10
-119.9302150725557
 20
-28.26846617913822
 30
0.0
 10
-118.4274302935537
 20
-28.62556071890779
 30
0.0
 10
-116.9299112138128
 20
-28.96159246165148
 30
0.0
 10
-115.4351966912814
 20
-29.28709280588705
 30
0.0
 10
-114.9959114544287
 20
-29.38279116627818
 30
0.0
 10
-114.5577709348059
 20
-29.47454025222988
 30
0.0
 10
-114.1192297641487
 20
-29.56749129127162
 30
0.0
 10
-112.9867610089234
 20
-29.80748125845487
 30
0.0
 10
-111.8571540467701
 20
-30.03814178021618
 30
0.0
 10
-110.7300654625202
 20
-30.25987350758555
 30
0.0
 10
-110.3163646557449
 20
-30.34126290260994
 30
0.0
 10
-109.9020342544994
 20
-30.42488449623231
 30
0.0
 10
-109.489077513924
 20
-30.50381274920887
 30
0.0
 10
-108.0048943899039
 20
-30.78747367870001
 30
0.0
 10
-106.5246605403309
 20
-31.05871442625308
 30
0.0
 10
-105.050951578964
 20
-31.31038050917507
 30
0.0
 10
-104.8662514539705
 20
-31.34197470471357
 30
0.0
 10
-104.6829822255138
 20
-31.36939068236151
 30
0.0
 10
-104.4983965722424
 20
-31.40041251928534
 30
0.0
 10
-103.1994286959716
 20
-31.61893903841077
 30
0.0
 10
-101.9053831037862
 20
-31.82367171492215
 30
0.0
 10
-100.6154012577661
 20
-32.01718616258099
 30
0.0
 10
-100.1742272374873
 20
-32.08335081845144
 30
0.0
 10
-99.73431240615674
 20
-32.14665368124983
 30
0.0
 10
-99.29422586724207
 20
-32.20989930818238
 30
0.0
 10
-98.8401737781281
 20
-32.27514819026949
 30
0.0
 10
-98.38383225455091
 20
-32.34657854539721
 30
0.0
 10
-97.93103935439278
 20
-32.40867945510299
 30
0.0
 10
-97.26229554886819
 20
-32.5004285410547
 30
0.0
 10
-96.59818784812356
 20
-32.58073045470787
 30
0.0
 10
-95.93219136395218
 20
-32.66561123728226
 30
0.0
 10
-95.56364965188731
 20
-32.7126018795555
 30
0.0
 10
-95.19396322259179
 20
-32.76279773007589
 30
0.0
 10
-94.82628004844761
 20
-32.80772788133516
 30
0.0
 10
-93.47448347203423
 20
-32.97279610584069
 30
0.0
 10
-92.12697958522573
 20
-33.12756187528216
 30
0.0
 10
-90.78725977558239
 20
-33.26424111249314
 30
0.0
 10
-94.6851936499033
 20
-35.58189285137216
 30
0.0
 10
-98.92001780489184
 20
-37.23875656947445
 30
0.0
 10
-103.3381111883339
 20
-38.20707287398148
 30
0.0
  0
SPLINE
  5
7B
330
70
100
AcDbEntity
  8
Layer 1
100
AcDbSpline
210
0.0
220
0.0
230
1.0
 70
     9
 71
     3
 72
   179
 73
   175
 74
     0
 42
0.0000000001
 43
0.0000000001
 40
0.0
 40
0.0
 40
0.0
 40
0.0
 40
1.0
 40
1.0
 40
1.0
 40
2.0
 40
2.0
 40
2.0
 40
3.0
 40
3.0
 40
3.0
 40
4.0
 40
4.0
 40
4.0
 40
5.0
 40
5.0
 40
5.0
 40
6.0
 40
6.0
 40
6.0
 40
7.0
 40
7.0
 40
7.0
 40
8.0
 40
8.0
 40
8.0
 40
9.0
 40
9.0
 40
9.0
 40
10.0
 40
10.0
 40
10.0
 40
11.0
 40
11.0
 40
11.0
 40
12.0
 40
12.0
 40
12.0
 40
13.0
 40
13.0
 40
13.0
 40
14.0
 40
14.0
 40
14.0
 40
15.0
 40
15.0
 40
15.0
 40
16.0
 40
16.0
 40
16.0
 40
17.0
 40
17.0
 40
17.0
 40
18.0
 40
18.0
 40
18.0
 40
19.0
 40
19.0
 40
19.0
 40
20.0
 40
20.0
 40
20.0
 40
21.0
 40
21.0
 40
21.0
 40
22.0
 40
22.0
 40
22.0
 40
23.0
 40
23.0
 40
23.0
 40
24.0
 40
24.0
 40
24.0
 40
25.0
 40
25.0
 40
25.0
 40
26.0
 40
26.0
 40
26.0
 40
27.0
 40
27.0
 40
27.0
 40
28.0
 40
28.0
 40
28.0
 40
29.0
 40
29.0
 40
29.0
 40
30.0
 40
30.0
 40
30.0
 40
31.0
 40
31.0
 40
31.0
 40
32.0
 40
32.0
 40
32.0
 40
33.0
 40
33.0
 40
33.0
 40
34.0
 40
34.0
 40
34.0
 40
35.0
 40
35.0
 40
35.0
 40
36.0
 40
36.0
 40
36.0
 40
37.0
 40
37.0
 40
37.0
 40
38.0
 40
38.0
 40
38.0
 40
39.0
 40
39.0
 40
39.0
 40
40.0
 40
40.0
 40
40.0
 40
41.0
 40
41.0
 40
41.0
 40
42.0
 40
42.0
 40
42.0
 40
43.0
 40
43.0
 40
43.0
 40
44.0
 40
44.0
 40
44.0
 40
45.0
 40
45.0
 40
45.0
 40
46.0
 40
46.0
 40
46.0
 40
47.0
 40
47.0
 40
47.0
 40
48.0
 40
48.0
 40
48.0
 40
49.0
 40
49.0
 40
49.0
 40
50.0
 40
50.0
 40
50.0
 40
51.0
 40
51.0
 40
51.0
 40
52.0
 40
52.0
 40
52.0
 40
53.0
 40
53.0
 40
53.0
 40
54.0
 40
54.0
 40
54.0
 40
55.0
 40
55.0
 40
55.0
 40
56.0
 40
56.0
 40
56.0
 40
57.0
 40
57.0
 40
57.0
 40
58.0
 40
58.0
 40
58.0
 40
58.0
 10
-137.3355833125307
 20
37.74354164830595
 30
0.0
 10
-137.3355833125307
 20
37.74354164830595
 30
0.0
 10
-137.3340379442732
 20
37.74462912967331
 30
0.0
 10
-137.3340379442732
 20
37.74462912967331
 30
0.0
 10
-132.1817229297721
 20
41.46473118237937
 30
0.0
 10
-126.3918576542543
 20
43.94355910718262
 30
0.0
 10
-120.2918312453807
 20
45.08821910090648
 30
0.0
 10
-117.7295534345385
 20
45.56900033733172
 30
0.0
 10
-115.1137600932143
 20
45.8195217030263
 30
0.0
 10
-112.4656284901524
 20
45.8195217030263
 30
0.0
 10
-109.2004943003475
 20
45.8195217030263
 30
0.0
 10
-105.9186472389894
 20
45.43386646838137
 30
0.0
 10
-102.7086311837871
 20
44.67835309685308
 30
0.0
 10
-102.6780099978945
 20
44.67114137830644
 30
0.0
 10
-102.6469309251126
 20
44.66650527352646
 30
0.0
 10
-102.61630973922
 20
44.65923631911784
 30
0.0
 10
-90.59551963962375
 20
41.80219382165846
 30
0.0
 10
-80.4279122630057
 20
33.85676876697045
 30
0.0
 10
-74.72103898663229
 20
22.86107294646962
 30
0.0
 10
-73.24034725016602
 20
20.00654882691747
 30
0.0
 10
-72.08589992413014
 20
16.99834641929185
 30
0.0
 10
-71.28952014750725
 20
13.91905707170591
 30
0.0
 10
-69.56632006594984
 20
7.26372833476065
 30
0.0
 10
-69.49912516457786
 20
0.1964158668886043
 30
0.0
 10
-71.09520439778581
 20
-6.518838817027716
 30
0.0
 10
-71.48973119096388
 20
-8.178564328202075
 30
0.0
 10
-71.9951238478244
 20
-9.837774716621176
 30
0.0
 10
-72.60365552706933
 20
-11.4735756377008
 30
0.0
 10
-72.71858513692094
 20
-11.48101629969343
 30
0.0
 10
-72.83752125707458
 20
-11.48605305550085
 30
0.0
 10
-72.95325216898429
 20
-11.49309306646283
 30
0.0
 10
-73.68461200696673
 20
-11.53745085911064
 30
0.0
 10
-74.43108211237849
 20
-11.57236473461448
 30
0.0
 10
-75.19014410731621
 20
-11.59915111778513
 30
0.0
 10
-75.43545700961934
 20
-11.60779373286716
 30
0.0
 10
-75.68076991191929
 20
-11.61637911209041
 30
0.0
 10
-75.92877289970726
 20
-11.62319017960575
 30
0.0
 10
-76.83956716342587
 20
-11.64820225107169
 30
0.0
 10
-77.76180859944236
 20
-11.66531577365558
 30
0.0
 10
-78.70551348351411
 20
-11.66531577365558
 30
0.0
 10
-81.41929461968997
 20
-11.66531577365558
 30
0.0
 10
-84.2368443727288
 20
-11.56469512917457
 30
0.0
 10
-87.13692823802201
 20
-11.3660294539792
 30
0.0
 10
-88.99199974442254
 20
-11.23902307735884
 30
0.0
 10
-90.89102839244409
 20
-11.05724198130008
 30
0.0
 10
-92.80814357269163
 20
-10.85079222894341
 30
0.0
 10
-93.88812704294306
 20
-10.73443172255642
 30
0.0
 10
-94.96702303182711
 20
-10.62013170718275
 30
0.0
 10
-96.06394831707778
 20
-10.47893083691318
 30
0.0
 10
-97.20551757427909
 20
-10.33200638049564
 30
0.0
 10
-98.35572944656563
 20
-10.17168873249149
 30
0.0
 10
-99.51349645257005
 20
-9.998092364625328
 30
0.0
 10
-102.9867402347149
 20
-9.477417732748248
 30
0.0
 10
-106.5276368051282
 20
-8.837463565548842
 30
0.0
 10
-110.1063090441174
 20
-8.082121901607768
 30
0.0
 10
-111.6968363987653
 20
-7.74643357403275
 30
0.0
 10
-113.2947471795437
 20
-7.38790813772715
 30
0.0
 10
-114.897465772683
 20
-7.007003479582958
 30
0.0
 10
-114.9060511519063
 20
-7.004942988569633
 30
0.0
 10
-114.9145792952663
 20
-7.002710789971652
 30
0.0
 10
-114.9231646744863
 20
-7.000650298957686
 30
0.0
 10
-115.9010966037207
 20
-6.768100993767071
 30
0.0
 10
-116.874850315069
 20
-6.527653139693757
 30
0.0
 10
-117.8442541009434
 20
-6.280623161548533
 30
0.0
 10
-118.1698689168965
 20
-6.197631162404099
 30
0.0
 10
-118.4919351094415
 20
-6.109888586757649
 30
0.0
 10
-118.8164624440305
 20
-6.025351219351938
 30
0.0
 10
-119.4658032925112
 20
-5.856162012818479
 30
0.0
 10
-120.1154303203012
 20
-5.687258985594923
 30
0.0
 10
-120.7600205922806
 20
-5.511831070158228
 30
0.0
 10
-121.1435008641902
 20
-5.407490094680581
 30
0.0
 10
-121.5229173899357
 20
-5.29862748614884
 30
0.0
 10
-121.9046233501412
 20
-5.192168783795247
 30
0.0
 10
-122.4879140144768
 20
-5.029447229612946
 30
0.0
 10
-123.0716625657024
 20
-4.867298034041466
 30
0.0
 10
-123.6503743611206
 20
-4.699711431631906
 30
0.0
 10
-124.0502240894147
 20
-4.583923283856373
 30
0.0
 10
-124.4460100715442
 20
-4.464185861643982
 30
0.0
 10
-124.8435703653777
 20
-4.346165515274317
 30
0.0
 10
-125.3949806548693
 20
-4.182413715582788
 30
0.0
 10
-125.946562651945
 20
-4.01894809519731
 30
0.0
 10
-126.4932223649346
 20
-3.850960841753247
 30
0.0
 10
-126.9044047937988
 20
-3.724641295469587
 30
0.0
 10
-127.3114662406389
 20
-3.595002069219945
 30
0.0
 10
-127.7197868764317
 20
-3.46633585261306
 30
0.0
 10
-128.2470436323807
 20
-3.300180146739533
 30
0.0
 10
-128.7738997372958
 20
-3.133795497419368
 30
0.0
 10
-129.2960625015716
 20
-2.963919460549205
 30
0.0
 10
-129.7056423263189
 20
-2.83061713916234
 30
0.0
 10
-130.111387348345
 20
-2.694739204013311
 30
0.0
 10
-130.5176474931239
 20
-2.559204684028464
 30
0.0
 10
-131.032713010575
 20
-2.38738262787022
 30
0.0
 10
-131.5467482825214
 20
-2.214816505508799
 30
0.0
 10
-132.0563191572686
 20
-2.039445825934726
 30
0.0
 10
-132.45868726347
 20
-1.900992277019042
 30
0.0
 10
-132.8576212179769
 20
-1.760649944670199
 30
0.0
 10
-133.2563262290449
 20
-1.620021433015947
 30
0.0
 10
-133.3254099138494
 20
-1.595696191889276
 30
0.0
 10
-133.3934633531498
 20
-1.570798592144726
 30
0.0
 10
-133.4624325662297
 20
-1.546358879293452
 30
0.0
 10
-133.8953646224603
 20
-1.393024006388655
 30
0.0
 10
-134.3279532635197
 20
-1.239574661765673
 30
0.0
 10
-134.7564209225518
 20
-1.083778646815614
 30
0.0
 10
-135.1535805653585
 20
-0.9393725683021038
 30
0.0
 10
-135.5481073585321
 20
-0.7935928291190324
 30
0.0
 10
-135.9412032551742
 20
-0.6471834954541774
 30
0.0
 10
-136.4306271066846
 20
-0.4648872766395208
 30
0.0
 10
-136.9169029858106
 20
-0.2811601612926817
 30
0.0
 10
-137.3997447132498
 20
-0.095830441821944
 30
0.0
 10
-137.7867736085719
 20
0.0526966187150072
 30
0.0
 10
-138.1719709563274
 20
0.2020249813145493
 30
0.0
 10
-138.5545926903163
 20
0.3524980611440727
 30
0.0
 10
-139.0341719736521
 20
0.5410902247175295
 30
0.0
 10
-139.5092868597888
 20
0.7313994641362786
 30
0.0
 10
-139.9817688963007
 20
0.9228534207824424
 30
0.0
 10
-140.3568354965748
 20
1.074814633009978
 30
0.0
 10
-140.7312152665097
 20
1.227119260406829
 30
0.0
 10
-141.1015885261413
 20
1.380797548479658
 30
0.0
 10
-141.5698351089039
 20
1.575170534063718
 30
0.0
 10
-142.0321291620725
 20
1.771489538935857
 30
0.0
 10
-142.4926489035363
 20
1.96843813828593
 30
0.0
 10
-142.8551808501446
 20
2.123490087032811
 30
0.0
 10
-143.2179989760621
 20
2.278427564057657
 30
0.0
 10
-143.5754941668598
 20
2.435082116928437
 30
0.0
 10
-144.035327077987
 20
2.636552349332604
 30
0.0
 10
-144.4875476195337
 20
2.840312016201866
 30
0.0
 10
-144.9388523872964
 20
3.044300626513275
 30
0.0
 10
-145.282439263754
 20
3.199581518703586
 30
0.0
 10
-145.6277432160609
 20
3.354461759865809
 30
0.0
 10
-145.9662361008486
 20
3.511116312736589
 30
0.0
 10
-146.4197158313505
 20
3.721000216779994
 30
0.0
 10
-146.8635227012585
 20
3.933288027009248
 30
0.0
 10
-147.3075012787538
 20
4.145633073097273
 30
0.0
 10
-147.6319713774802
 20
4.300742257703568
 30
0.0
 10
-147.9597039203099
 20
4.455164611975724
 30
0.0
 10
-148.2789655556384
 20
4.611532985537244
 30
0.0
 10
-148.7294117854842
 20
4.832119995676641
 30
0.0
 10
-149.1680674278589
 20
5.055168147860658
 30
0.0
 10
-149.6078105516017
 20
5.27804459246066
 30
0.0
 10
-149.9048646726801
 20
5.428574908152164
 30
0.0
 10
-150.2068983137065
 20
5.578132214198344
 30
0.0
 10
-150.4989156789742
 20
5.729692775395226
 30
0.0
 10
-150.9659030727848
 20
5.972086648761112
 30
0.0
 10
-151.4187532088087
 20
6.216941664167767
 30
0.0
 10
-151.8725191186135
 20
6.461682207852387
 30
0.0
 10
-152.122582597418
 20
6.596529897496679
 30
0.0
 10
-152.3795143795973
 20
6.730175634052217
 30
0.0
 10
-152.6254568763751
 20
6.865710154036422
 30
0.0
 10
-153.1881426305774
 20
7.175814051530184
 30
0.0
 10
-153.7341155132271
 20
7.48849356278996
 30
0.0
 10
-154.2745365173136
 20
7.801917140252272
 30
0.0
 10
-154.3987383367245
 20
7.873977089854077
 30
0.0
 10
-154.5296367519255
 20
7.945064029810557
 30
0.0
 10
-154.6526366182438
 20
8.017295686996378
 30
0.0
 10
-154.660420695409
 20
8.021874555917586
 30
0.0
 10
-154.6676324139511
 20
8.026510660693716
 30
0.0
 10
-154.6753592552537
 20
8.031089529614924
 30
0.0
 10
-154.4829322889583
 20
9.768655812401689
 30
0.0
 10
-154.1878814230351
 20
11.47840546650922
 30
0.0
 10
-153.7936408091663
 20
13.13692902459161
 30
0.0
 10
-152.1976188118178
 20
19.85224094436992
 30
0.0
 10
-148.9577256369223
 20
26.13353332654638
 30
0.0
 10
-144.4236723981199
 20
31.30256121259942
 30
0.0
 10
-143.8995636145555
 20
31.90033254988958
 30
0.0
 10
-143.3574255346238
 20
32.48419557283659
 30
0.0
 10
-142.7983456396967
 20
33.05300556421754
 30
0.0
 10
-142.1472304795081
 20
33.71545342497949
 30
0.0
 10
-141.4666388506569
 20
34.35088595912417
 30
0.0
 10
-140.7711086619616
 20
34.97132269755768
 30
0.0
 10
-140.1237710686322
 20
35.54877530402386
 30
0.0
 10
-139.4543976686296
 20
36.10287567900292
 30
0.0
 10
-138.7731192094456
 20
36.64329668308931
 30
0.0
 10
-138.3006944087931
 20
37.01807710405487
 30
0.0
 10
-137.8254650509312
 20
37.38976678850108
 30
0.0
 10
-137.3355833125307
 20
37.74354164830595
 30
0.0
  0
SPLINE
  5
7C
330
70
100
AcDbEntity
  8
Layer 1
100
AcDbSpline
210
0.0
220
0.0
230
1.0
 70
     9
 71
     3
 72
    47
 73
    43
 74
     0
 42
0.0000000001
 43
0.0000000001
 40
0.0
 40
0.0
 40
0.0
 40
0.0
 40
1.0
 40
1.0
 40
1.0
 40
2.0
 40
2.0
 40
2.0
 40
3.0
 40
3.0
 40
3.0
 40
4.0
 40
4.0
 40
4.0
 40
5.0
 40
5.0
 40
5.0
 40
6.0
 40
6.0
 40
6.0
 40
7.0
 40
7.0
 40
7.0
 40
8.0
 40
8.0
 40
8.0
 40
9.0
 40
9.0
 40
9.0
 40
10.0
 40
10.0
 40
10.0
 40
11.0
 40
11.0
 40
11.0
 40
12.0
 40
12.0
 40
12.0
 40
13.0
 40
13.0
 40
13.0
 40
14.0
 40
14.0
 40
14.0
 40
14.0
 10
-32.31550433941477
 20
4.093891854319452
 30
0.0
 10
-32.3138444994289
 20
4.369139112171358
 30
0.0
 10
-32.30079472301353
 20
4.63688847217186
 30
0.0
 10
-32.30079472301353
 20
4.913223211391767
 30
0.0
 10
-32.30079472301353
 20
30.56713762845167
 30
0.0
 10
-39.7852421493476
 20
51.41581529502269
 30
0.0
 10
-54.54734383449039
 20
66.88123124602205
 30
0.0
 10
-69.35025468886903
 20
82.38161830838466
 30
0.0
 10
-88.72539510165266
 20
90.24033103293096
 30
0.0
 10
-112.1397274948894
 20
90.24033103293096
 30
0.0
 10
-137.429621832943
 20
90.24033103293096
 30
0.0
 10
-157.5182072590677
 20
81.8850972100528
 30
0.0
 10
-171.8522419362058
 20
65.4062058598405
 30
0.0
 10
-178.7953525846669
 20
57.42180318348398
 30
0.0
 10
-184.0553282546098
 20
48.33383586194933
 30
0.0
 10
-187.6340004936028
 20
38.2256965454078
 30
0.0
 10
-193.469425514854
 20
35.09993167830194
 30
0.0
 10
-197.1544419844755
 20
30.95147643828645
 30
0.0
 10
-198.3546779996945
 20
25.90167085169568
 30
0.0
 10
-199.6701298040713
 20
20.36719199009645
 30
0.0
 10
-197.8162602507595
 20
14.45323936689612
 30
0.0
 10
-193.1623551180202
 20
8.518796305280099
 30
0.0
 10
-193.2391084082652
 20
6.739734022920795
 30
0.0
 10
-193.2892470229192
 20
4.945675944850984
 30
0.0
 10
-193.2892470229192
 20
3.123629530520487
 30
0.0
 10
-193.2892470229192
 20
-23.00637278232205
 30
0.0
 10
-185.7261575229152
 20
-44.21477783828806
 30
0.0
 10
-170.8067716904237
 20
-59.9132009813681
 30
0.0
 10
-155.8524147465735
 20
-75.65380695436124
 30
0.0
 10
-136.2734574310618
 20
-83.63477547902652
 30
0.0
 10
-112.6144417299992
 20
-83.63477547902652
 30
0.0
 10
-89.0981150316081
 20
-83.63477547902652
 30
0.0
 10
-69.61233769858032
 20
-75.44266386136517
 30
0.0
 10
-54.69587089502734
 20
-59.28412162785256
 30
0.0
 10
-46.51675181791938
 20
-50.42778783772133
 30
0.0
 10
-40.57068987642788
 20
-39.89387094763575
 30
0.0
 10
-36.86495402495181
 20
-27.80107813430024
 30
0.0
 10
-30.68697237274441
 20
-24.64234541098248
 30
0.0
 10
-26.79630745283211
 20
-20.38628675138598
 30
0.0
 10
-25.55629251388194
 20
-15.16918074169234
 30
0.0
 10
-24.51540113702105
 20
-10.78977880060563
 30
0.0
 10
-25.04082634539951
 20
-4.113902389389112
 30
0.0
 10
-32.31550433941477
 20
4.093891854319452
 30
0.0
  0
HATCH
  5
7D
330
70
100
AcDbEntity
  8
Layer 1
 62
     7
440
 33554687
100
AcDbHatch
 10
0.0
 20
0.0
 30
0.0
210
0.0
220
0.0
230
1.0
  2
SOLID
 70
     1
 71
     1
 91
        4
 92
        1
 93
        1
 72
     4
 94
        3
 73
     0
 74
     0
 95
      785
 96
      781
 40
0.0
 40
0.0
 40
0.0
 40
0.0
 40
1.0
 40
1.0
 40
1.0
 40
2.0
 40
2.0
 40
2.0
 40
3.0
 40
3.0
 40
3.0
 40
4.0
 40
4.0
 40
4.0
 40
5.0
 40
5.0
 40
5.0
 40
6.0
 40
6.0
 40
6.0
 40
7.0
 40
7.0
 40
7.0
 40
8.0
 40
8.0
 40
8.0
 40
9.0
 40
9.0
 40
9.0
 40
10.0
 40
10.0
 40
10.0
 40
11.0
 40
11.0
 40
11.0
 40
12.0
 40
12.0
 40
12.0
 40
13.0
 40
13.0
 40
13.0
 40
14.0
 40
14.0
 40
14.0
 40
15.0
 40
15.0
 40
15.0
 40
16.0
 40
16.0
 40
16.0
 40
17.0
 40
17.0
 40
17.0
 40
18.0
 40
18.0
 40
18.0
 40
19.0
 40
19.0
 40
19.0
 40
20.0
 40
20.0
 40
20.0
 40
21.0
 40
21.0
 40
21.0
 40
22.0
 40
22.0
 40
22.0
 40
23.0
 40
23.0
 40
23.0
 40
24.0
 40
24.0
 40
24.0
 40
25.0
 40
25.0
 40
25.0
 40
26.0
 40
26.0
 40
26.0
 40
27.0
 40
27.0
 40
27.0
 40
28.0
 40
28.0
 40
28.0
 40
29.0
 40
29.0
 40
29.0
 40
30.0
 40
30.0
 40
30.0
 40
31.0
 40
31.0
 40
31.0
 40
32.0
 40
32.0
 40
32.0
 40
33.0
 40
33.0
 40
33.0
 40
34.0
 40
34.0
 40
34.0
 40
35.0
 40
35.0
 40
35.0
 40
36.0
 40
36.0
 40
36.0
 40
37.0
 40
37.0
 40
37.0
 40
38.0
 40
38.0
 40
38.0
 40
39.0
 40
39.0
 40
39.0
 40
40.0
 40
40.0
 40
40.0
 40
41.0
 40
41.0
 40
41.0
 40
42.0
 40
42.0
 40
42.0
 40
43.0
 40
43.0
 40
43.0
 40
44.0
 40
44.0
 40
44.0
 40
45.0
 40
45.0
 40
45.0
 40
46.0
 40
46.0
 40
46.0
 40
47.0
 40
47.0
 40
47.0
 40
48.0
 40
48.0
 40
48.0
 40
49.0
 40
49.0
 40
49.0
 40
50.0
 40
50.0
 40
50.0
 40
51.0
 40
51.0
 40
51.0
 40
52.0
 40
52.0
 40
52.0
 40
53.0
 40
53.0
 40
53.0
 40
54.0
 40
54.0
 40
54.0
 40
55.0
 40
55.0
 40
55.0
 40
56.0
 40
56.0
 40
56.0
 40
57.0
 40
57.0
 40
57.0
 40
58.0
 40
58.0
 40
58.0
 40
59.0
 40
59.0
 40
59.0
 40
60.0
 40
60.0
 40
60.0
 40
61.0
 40
61.0
 40
61.0
 40
62.0
 40
62.0
 40
62.0
 40
63.0
 40
63.0
 40
63.0
 40
64.0
 40
64.0
 40
64.0
 40
65.0
 40
65.0
 40
65.0
 40
66.0
 40
66.0
 40
66.0
 40
67.0
 40
67.0
 40
67.0
 40
68.0
 40
68.0
 40
68.0
 40
69.0
 40
69.0
 40
69.0
 40
70.0
 40
70.0
 40
70.0
 40
71.0
 40
71.0
 40
71.0
 40
72.0
 40
72.0
 40
72.0
 40
73.0
 40
73.0
 40
73.0
 40
74.0
 40
74.0
 40
74.0
 40
75.0
 40
75.0
 40
75.0
 40
76.0
 40
76.0
 40
76.0
 40
77.0
 40
77.0
 40
77.0
 40
78.0
 40
78.0
 40
78.0
 40
79.0
 40
79.0
 40
79.0
 40
80.0
 40
80.0
 40
80.0
 40
81.0
 40
81.0
 40
81.0
 40
82.0
 40
82.0
 40
82.0
 40
83.0
 40
83.0
 40
83.0
 40
84.0
 40
84.0
 40
84.0
 40
85.0
 40
85.0
 40
85.0
 40
86.0
 40
86.0
 40
86.0
 40
87.0
 40
87.0
 40
87.0
 40
88.0
 40
88.0
 40
88.0
 40
89.0
 40
89.0
 40
89.0
 40
90.0
 40
90.0
 40
90.0
 40
91.0
 40
91.0
 40
91.0
 40
92.0
 40
92.0
 40
92.0
 40
93.0
 40
93.0
 40
93.0
 40
94.0
 40
94.0
 40
94.0
 40
95.0
 40
95.0
 40
95.0
 40
96.0
 40
96.0
 40
96.0
 40
97.0
 40
97.0
 40
97.0
 40
98.0
 40
98.0
 40
98.0
 40
99.0
 40
99.0
 40
99.0
 40
100.0
 40
100.0
 40
100.0
 40
101.0
 40
101.0
 40
101.0
 40
102.0
 40
102.0
 40
102.0
 40
103.0
 40
103.0
 40
103.0
 40
104.0
 40
104.0
 40
104.0
 40
105.0
 40
105.0
 40
105.0
 40
106.0
 40
106.0
 40
106.0
 40
107.0
 40
107.0
 40
107.0
 40
108.0
 40
108.0
 40
108.0
 40
109.0
 40
109.0
 40
109.0
 40
110.0
 40
110.0
 40
110.0
 40
111.0
 40
111.0
 40
111.0
 40
112.0
 40
112.0
 40
112.0
 40
113.0
 40
113.0
 40
113.0
 40
114.0
 40
114.0
 40
114.0
 40
115.0
 40
115.0
 40
115.0
 40
116.0
 40
116.0
 40
116.0
 40
117.0
 40
117.0
 40
117.0
 40
118.0
 40
118.0
 40
118.0
 40
119.0
 40
119.0
 40
119.0
 40
120.0
 40
120.0
 40
120.0
 40
121.0
 40
121.0
 40
121.0
 40
122.0
 40
122.0
 40
122.0
 40
123.0
 40
123.0
 40
123.0
 40
124.0
 40
124.0
 40
124.0
 40
125.0
 40
125.0
 40
125.0
 40
126.0
 40
126.0
 40
126.0
 40
127.0
 40
127.0
 40
127.0
 40
128.0
 40
128.0
 40
128.0
 40
129.0
 40
129.0
 40
129.0
 40
130.0
 40
130.0
 40
130.0
 40
131.0
 40
131.0
 40
131.0
 40
132.0
 40
132.0
 40
132.0
 40
133.0
 40
133.0
 40
133.0
 40
134.0
 40
134.0
 40
134.0
 40
135.0
 40
135.0
 40
135.0
 40
136.0
 40
136.0
 40
136.0
 40
137.0
 40
137.0
 40
137.0
 40
138.0
 40
138.0
 40
138.0
 40
139.0
 40
139.0
 40
139.0
 40
140.0
 40
140.0
 40
140.0
 40
141.0
 40
141.0
 40
141.0
 40
142.0
 40
142.0
 40
142.0
 40
143.0
 40
143.0
 40
143.0
 40
144.0
 40
144.0
 40
144.0
 40
145.0
 40
145.0
 40
145.0
 40
146.0
 40
146.0
 40
146.0
 40
147.0
 40
147.0
 40
147.0
 40
148.0
 40
148.0
 40
148.0
 40
149.0
 40
149.0
 40
149.0
 40
150.0
 40
150.0
 40
150.0
 40
151.0
 40
151.0
 40
151.0
 40
152.0
 40
152.0
 40
152.0
 40
153.0
 40
153.0
 40
153.0
 40
154.0
 40
154.0
 40
154.0
 40
155.0
 40
155.0
 40
155.0
 40
156.0
 40
156.0
 40
156.0
 40
157.0
 40
157.0
 40
157.0
 40
158.0
 40
158.0
 40
158.0
 40
159.0
 40
159.0
 40
159.0
 40
160.0
 40
160.0
 40
160.0
 40
161.0
 40
161.0
 40
161.0
 40
162.0
 40
162.0
 40
162.0
 40
163.0
 40
163.0
 40
163.0
 40
164.0
 40
164.0
 40
164.0
 40
165.0
 40
165.0
 40
165.0
 40
166.0
 40
166.0
 40
166.0
 40
167.0
 40
167.0
 40
167.0
 40
168.0
 40
168.0
 40
168.0
 40
169.0
 40
169.0
 40
169.0
 40
170.0
 40
170.0
 40
170.0
 40
171.0
 40
171.0
 40
171.0
 40
172.0
 40
172.0
 40
172.0
 40
173.0
 40
173.0
 40
173.0
 40
174.0
 40
174.0
 40
174.0
 40
175.0
 40
175.0
 40
175.0
 40
176.0
 40
176.0
 40
176.0
 40
177.0
 40
177.0
 40
177.0
 40
178.0
 40
178.0
 40
178.0
 40
179.0
 40
179.0
 40
179.0
 40
180.0
 40
180.0
 40
180.0
 40
181.0
 40
181.0
 40
181.0
 40
182.0
 40
182.0
 40
182.0
 40
183.0
 40
183.0
 40
183.0
 40
184.0
 40
184.0
 40
184.0
 40
185.0
 40
185.0
 40
185.0
 40
186.0
 40
186.0
 40
186.0
 40
187.0
 40
187.0
 40
187.0
 40
188.0
 40
188.0
 40
188.0
 40
189.0
 40
189.0
 40
189.0
 40
190.0
 40
190.0
 40
190.0
 40
191.0
 40
191.0
 40
191.0
 40
192.0
 40
192.0
 40
192.0
 40
193.0
 40
193.0
 40
193.0
 40
194.0
 40
194.0
 40
194.0
 40
195.0
 40
195.0
 40
195.0
 40
196.0
 40
196.0
 40
196.0
 40
197.0
 40
197.0
 40
197.0
 40
198.0
 40
198.0
 40
198.0
 40
199.0
 40
199.0
 40
199.0
 40
200.0
 40
200.0
 40
200.0
 40
201.0
 40
201.0
 40
201.0
 40
202.0
 40
202.0
 40
202.0
 40
203.0
 40
203.0
 40
203.0
 40
204.0
 40
204.0
 40
204.0
 40
205.0
 40
205.0
 40
205.0
 40
206.0
 40
206.0
 40
206.0
 40
207.0
 40
207.0
 40
207.0
 40
208.0
 40
208.0
 40
208.0
 40
209.0
 40
209.0
 40
209.0
 40
210.0
 40
210.0
 40
210.0
 40
211.0
 40
211.0
 40
211.0
 40
212.0
 40
212.0
 40
212.0
 40
213.0
 40
213.0
 40
213.0
 40
214.0
 40
214.0
 40
214.0
 40
215.0
 40
215.0
 40
215.0
 40
216.0
 40
216.0
 40
216.0
 40
217.0
 40
217.0
 40
217.0
 40
218.0
 40
218.0
 40
218.0
 40
219.0
 40
219.0
 40
219.0
 40
220.0
 40
220.0
 40
220.0
 40
221.0
 40
221.0
 40
221.0
 40
222.0
 40
222.0
 40
222.0
 40
223.0
 40
223.0
 40
223.0
 40
224.0
 40
224.0
 40
224.0
 40
225.0
 40
225.0
 40
225.0
 40
226.0
 40
226.0
 40
226.0
 40
227.0
 40
227.0
 40
227.0
 40
228.0
 40
228.0
 40
228.0
 40
229.0
 40
229.0
 40
229.0
 40
230.0
 40
230.0
 40
230.0
 40
231.0
 40
231.0
 40
231.0
 40
232.0
 40
232.0
 40
232.0
 40
233.0
 40
233.0
 40
233.0
 40
234.0
 40
234.0
 40
234.0
 40
235.0
 40
235.0
 40
235.0
 40
236.0
 40
236.0
 40
236.0
 40
237.0
 40
237.0
 40
237.0
 40
238.0
 40
238.0
 40
238.0
 40
239.0
 40
239.0
 40
239.0
 40
240.0
 40
240.0
 40
240.0
 40
241.0
 40
241.0
 40
241.0
 40
242.0
 40
242.0
 40
242.0
 40
243.0
 40
243.0
 40
243.0
 40
244.0
 40
244.0
 40
244.0
 40
245.0
 40
245.0
 40
245.0
 40
246.0
 40
246.0
 40
246.0
 40
247.0
 40
247.0
 40
247.0
 40
248.0
 40
248.0
 40
248.0
 40
249.0
 40
249.0
 40
249.0
 40
250.0
 40
250.0
 40
250.0
 40
251.0
 40
251.0
 40
251.0
 40
252.0
 40
252.0
 40
252.0
 40
253.0
 40
253.0
 40
253.0
 40
254.0
 40
254.0
 40
254.0
 40
255.0
 40
255.0
 40
255.0
 40
256.0
 40
256.0
 40
256.0
 40
257.0
 40
257.0
 40
257.0
 40
258.0
 40
258.0
 40
258.0
 40
259.0
 40
259.0
 40
259.0
 40
260.0
 40
260.0
 40
260.0
 40
260.0
 10
-29.20565104179956
 20
-14.30182849683498
 10
-29.28818515405457
 20
-14.64896399670468
 10
-29.38892027025698
 20
-14.99008973112484
 10
-29.50310581390925
 20
-15.32669383248383
 10
-29.54042359559124
 20
-15.43687286582957
 10
-29.58724253028367
 20
-15.54384669093265
 10
-29.62799446365688
 20
-15.65288100705161
 10
-29.71173052900064
 20
-15.87707387646625
 10
-29.7966685474338
 20
-16.10080885898697
 10
-29.89442739884274
 20
-16.32019391604083
 10
-29.9512626092874
 20
-16.44771541541388
 10
-30.01639701965248
 20
-16.57237512171487
 10
-30.07786833488032
 20
-16.6982367811091
 10
-30.17379563872258
 20
-16.89461302184387
 10
-30.27115383909638
 20
-17.09035966810455
 10
-30.37841384350807
 20
-17.28272939853726
 10
-30.45133233103509
 20
-17.41339887029164
 10
-30.53031781987748
 20
-17.54195061517713
 10
-30.60838753493268
 20
-17.67078853936418
 10
-30.71931063448159
 20
-17.85388606023758
 10
-30.8332099988246
 20
-18.03595333560175
 10
-30.95443555343501
 20
-18.21533052547787
 10
-31.04149129874475
 20
-18.34411121380679
 10
-31.13249631850098
 20
-18.47146100559903
 10
-31.224817763068
 20
-18.59829567463538
 10
-31.3521675548564
 20
-18.77326570317495
 10
-31.48438239487205
 20
-18.94640418415169
 10
-31.62163399070219
 20
-19.11765388169847
 10
-31.72128162553724
 20
-19.24197017283142
 10
-31.8224173927703
 20
-19.36565686948966
 10
-31.92727349099999
 20
-19.48802714133069
 10
-32.07276705088086
 20
-19.65784594234143
 10
-32.22507167827771
 20
-19.82508912958232
 10
-32.38052427805524
 20
-19.99118759959322
 10
-32.49047436795499
 20
-20.10869282321085
 10
-32.59962315579599
 20
-20.2264269902751
 10
-32.71449552978497
 20
-20.34204343046341
 10
-32.88248278322518
 20
-20.51111816527162
 10
-33.05934159519791
 20
-20.67681598425508
 10
-33.23768853956608
 20
-20.84182697289799
 10
-33.3529043287231
 20
-20.94845738283559
 10
-33.46514385308665
 20
-21.0562897458626
 10
-33.58465233185562
 20
-21.16126031581369
 10
-33.78749622493704
 20
-21.33926384501319
 10
-34.00132940342372
 20
-21.51297468460523
 10
-34.21642177086627
 20
-21.68611316557747
 10
-34.32385348285813
 20
-21.77259655227191
 10
-34.42613396732181
 20
-21.86119766584293
 10
-34.53659917997744
 20
-21.94647909944797
 10
-34.82043181705261
 20
-22.16563521305133
 10
-35.11679910779044
 20
-22.37969733498465
 10
-35.42037811707813
 20
-22.5907831921213
 10
-35.42037811707813
 20
-22.59066872039991
 10
-35.42037811707813
 20
-22.59043977695263
 10
-35.4203208812155
 20
-22.59026806936861
 10
-35.44458888648276
 20
-22.60720988436463
 10
-35.46662469315204
 20
-22.62495300142581
 10
-35.49106440600331
 20
-22.64183758055921
 10
-35.51796526090305
 20
-22.66043923554111
 10
-35.54240497375048
 20
-22.67995666430699
 10
-35.56947753623424
 20
-22.69850108342306
 10
-35.92863256701457
 20
-22.94392845744823
 10
-36.30255445005876
 20
-23.18323159429157
 10
-36.68803797712031
 20
-23.41749797532747
 10
-36.80628726693726
 20
-23.48932898148264
 10
-36.93220616219026
 20
-23.55789754353509
 10
-37.05291659405118
 20
-23.62869830418552
 10
-37.32530205883167
 20
-23.78850082943377
 10
-37.59906118428491
 20
-23.94755928848591
 10
-37.88375235928465
 20
-24.10192440689609
 10
-38.04040691215158
 20
-24.18686242533245
 10
-38.20392976839968
 20
-24.2687097072469
 10
-38.36424741640062
 20
-24.35198788569739
 10
-38.62455611440785
 20
-24.48723622637297
 10
-38.88600952964571
 20
-24.62196944429587
 10
-39.15593385238093
 20
-24.75286785950074
 10
-39.33439526847434
 20
-24.83940848205716
 10
-39.51806514796241
 20
-24.92354519842836
 10
-39.70064754607927
 20
-25.00819703755932
 10
-39.96547787714444
 20
-25.13102519629362
 10
-40.23276935025488
 20
-25.25265140193532
 10
-40.50629953226148
 20
-25.37147305036694
 10
-40.6990699137255
 20
-25.45520911571134
 10
-40.89527444687624
 20
-25.53734257693505
 10
-41.09228028208894
 20
-25.61907538712426
 10
-41.36872949303024
 20
-25.73377605352858
 10
-41.64901350669341
 20
-25.84658793650745
 10
-41.93370468169251
 20
-25.95733932846914
 10
-42.13712093338925
 20
-26.0364965248917
 10
-42.34202531748464
 20
-26.11485241926
 10
-42.54967702293456
 20
-26.1920063605325
 10
-42.84186609578569
 20
-26.30052555389556
 10
-43.13932086789153
 20
-26.40641189763448
 10
-43.43958019721323
 20
-26.5109245806955
 10
-43.64929239367262
 20
-26.5839003040813
 10
-43.85860393910135
 20
-26.65710497091373
 10
-44.0722081741414
 20
-26.72813467501015
 10
-44.38774947847709
 20
-26.83310524496188
 10
-44.7102735579147
 20
-26.93441271977896
 10
-45.03434300560718
 20
-27.03503336425996
 10
-45.24302495656183
 20
-27.099824359457
 10
-45.44941747305524
 20
-27.1658173077428
 10
-45.66153357570047
 20
-27.22883399123192
 10
-46.01822746443618
 20
-27.33477757082962
 10
-46.38356396825776
 20
-27.43619951736873
 10
-46.74993071758729
 20
-27.53710634115515
 10
-46.93840840943935
 20
-27.58901926751763
 10
-47.12299406270755
 20
-27.64304992075605
 10
-47.31399013246686
 20
-27.69358918644127
 10
-47.80244097432816
 20
-27.82294223338486
 10
-48.30079362022991
 20
-27.94691510934914
 10
-48.80549944675436
 20
-28.06739659776086
 10
-48.88156590665822
 20
-28.08554036585269
 10
-48.95454163004401
 20
-28.1054012097834
 10
-49.03095150512038
 20
-28.12337327028801
 10
-49.61555859426994
 20
-28.26079657370216
 10
-50.21167009157421
 20
-28.3918666964872
 10
-50.81722550602568
 20
-28.51744217657217
 10
-50.99763294141038
 20
-28.55481719412063
 10
-51.18393567052388
 20
-28.5887580599785
 10
-51.36617465347207
 20
-28.62510283201452
 10
-51.79515743526007
 20
-28.71072768078823
 10
-52.22528493427868
 20
-28.79560846336197
 10
-52.66422675596334
 20
-28.87539525426631
 10
-52.90267135488532
 20
-28.91872280140553
 10
-53.14666783236741
 20
-28.9586734327168
 10
-53.38797422436528
 20
-29.00028390401458
 10
-53.77969646033007
 20
-29.06782222055844
 10
-54.17216276249419
 20
-29.13484541434961
 10
-54.57138289631037
 20
-29.19780486197932
 10
-54.83632769909823
 20
-29.23958704085791
 10
-55.10562242735551
 20
-29.27873637011043
 10
-55.37382967424929
 20
-29.31851529383768
 10
-55.76074409785008
 20
-29.37592286290021
 10
-56.14937559729232
 20
-29.43224295059604
 10
-56.54304385254903
 20
-29.48541506590989
 10
-56.82224038484485
 20
-29.52313349862702
 10
-57.10424147435269
 20
-29.55907761963624
 10
-57.38675768661385
 20
-29.59467832547677
 10
-57.7794529322246
 20
-29.64418734565341
 10
-58.17500997090356
 20
-29.69180758240394
 10
-58.57405839713959
 20
-29.73719562055713
 10
-58.86390079967199
 20
-29.77016347676904
 10
-59.15511686287716
 20
-29.8022155591976
 10
-59.4482789453749
 20
-29.8330084526735
 10
-59.85167729708165
 20
-29.87536299016676
 10
-60.25902492322781
 20
-29.91514191389786
 10
-60.66854751211256
 20
-29.95337546936704
 10
-60.96285431183707
 20
-29.98084868287439
 10
-61.25698940397692
 20
-30.00837913224822
 10
-61.55438694022335
 20
-30.03373461888283
 10
-61.97873361723137
 20
-30.06990768333869
 10
-62.40823152177206
 20
-30.10253212437871
 10
-62.83875967181749
 20
-30.13429802750058
 10
-63.12825865918185
 20
-30.15564700383315
 10
-63.41615504242168
 20
-30.17814069739249
 10
-63.70840135113607
 20
-30.19754365443699
 10
-64.17321378220741
 20
-30.22845101963492
 10
-64.64443662976727
 20
-30.25466504419026
 10
-65.11611736421656
 20
-30.2804784177188
 10
-65.38152005389768
 20
-30.29501632653603
 10
-65.64411818636166
 20
-30.31161472636402
 10
-65.91169583877816
 20
-30.32455003105735
 10
-66.49286877624096
 20
-30.35271007490526
 10
-67.0815968474146
 20
-30.37520376846781
 10
-67.67261435304884
 20
-30.39580867859785
 10
-67.83682403963364
 20
-30.40153226474839
 10
-67.99777128211188
 20
-30.40971699293714
 10
-68.16278227075862
 20
-30.41486822047302
 10
-68.91932588778846
 20
-30.43844939540037
 10
-69.68399699715148
 20
-30.45562015384624
 10
-70.45593706092375
 20
-30.46689561855754
 10
-70.67595171245104
 20
-30.47010082680084
 10
-70.90037352530846
 20
-30.46964293990757
 10
-71.12164736578842
 20
-30.47187513850555
 10
-71.65731779337345
 20
-30.47725530948485
 10
-72.19436188163124
 20
-30.48154799909616
 10
-72.73707232017759
 20
-30.48097564048085
 10
-73.87932840771881
 20
-30.47983092325087
 10
-75.03955655576465
 20
-30.46334699514491
 10
-76.21197594230834
 20
-30.43598825335575
 10
-76.4746885464982
 20
-30.42986401618032
 10
-76.73911822652951
 20
-30.42225164660367
 10
-77.00326172725798
 20
-30.41475374874778
 10
-78.20641677141239
 20
-30.38081288289376
 10
-79.41930191201937
 20
-30.33811493022862
 10
-80.65124659449898
 20
-30.27652914327552
 10
-82.12564238620325
 20
-30.20315276885908
 10
-83.62007072942544
 20
-30.11003002223397
 10
-85.1328145483235
 20
-29.99693195994904
 10
-86.64561560308158
 20
-29.88383389766862
 10
-88.17678936937815
 20
-29.75081775559102
 10
-89.7249049506669
 20
-29.59759735441082
 10
-91.87159317130388
 20
-29.38508060073878
 10
-94.06115105219454
 20
-29.119277260027
 10
-96.26862375772653
 20
-28.8286335554365
 10
-103.6128433234338
 20
-27.86174814746614
 10
-111.2607563701527
 20
-26.47372127073492
 10
-119.0824947281857
 20
-24.61464325402785
 10
-123.258594889297
 20
-23.6220589442542
 10
-127.3198226764155
 20
-22.52410341349816
 10
-131.2765950163389
 20
-21.35420240486171
 10
-133.7449487784941
 20
-20.62433069927729
 10
-136.1816511092475
 20
-19.87276660219611
 10
-138.5526466710244
 20
-19.08222488344194
 10
-141.6385181426816
 20
-18.05341027335367
 10
-144.6379062276379
 20
-16.97588794514686
 10
-147.5408518860026
 20
-15.85675514564227
 10
-150.4437403085091
 20
-14.7376795820003
 10
-153.2500718326986
 20
-13.5769935470612
 10
-155.9497157110885
 20
-12.38173705179013
 10
-163.1461522824613
 20
-9.19558835082379
 10
-169.5791196975599
 20
-5.762982030330742
 10
-175.0472621957015
 20
-2.215560571708126
 10
-176.869995440368
 20
-1.03306767354638
 10
-178.5855259164855
 20
0.1621315858627013
 10
-180.1863557261987
 20
1.36522939415769
 10
-181.2536328351996
 20
2.167332756924725
 10
-182.2698555557664
 20
2.972984743106948
 10
-183.2329633968782
 20
3.780582748582384
 10
-185.159121843239
 20
5.395893231250159
 10
-186.8726490642051
 20
7.019388442106684
 10
-188.3558591785793
 20
8.639563973001077
 10
-189.7199614652113
 20
10.12975686247394
 10
-190.8870006807763
 20
11.61697348715015
 10
-191.8465598984754
 20
13.09251399608439
 10
-192.1663938924224
 20
13.5843417537775
 10
-192.4631618341909
 20
14.07491032251473
 10
-192.7365203086135
 20
14.56381905126995
 10
-192.9805167860995
 20
15.00018525918796
 10
-193.2096319396027
 20
15.43552122160123
 10
-193.4155093333409
 20
15.86908287230658
 10
-193.7916634149862
 20
16.66116995931433
 10
-194.1035416241847
 20
17.44816305465588
 10
-194.3490834699313
 20
18.2285167900629
 10
-195.0855945354464
 20
20.56957799628781
 10
-195.2242770278087
 20
22.85111390657359
 10
-194.7053767076396
 20
25.0342613709757
 10
-194.6206676326492
 20
25.39066908040921
 10
-194.5158687702821
 20
25.74038019404556
 10
-194.3977911880498
 20
26.08562691048979
 10
-194.3597293401679
 20
26.19700789692878
 10
-194.3129676413381
 20
26.30552709029249
 10
-194.2714716417655
 20
26.41570612363887
 10
-194.1839580095625
 20
26.64819819296686
 10
-194.0930102256728
 20
26.87943107334284
 10
-193.990386326041
 20
27.10671467927939
 10
-193.9333221721459
 20
27.23314869728829
 10
-193.8699620734887
 20
27.35740775255863
 10
-193.8082618148142
 20
27.48218193058165
 10
-193.7057523869039
 20
27.68954745672167
 10
-193.5987213259389
 20
27.89531037873778
 10
-193.4835627726406
 20
28.09821150768568
 10
-193.4115028230388
 20
28.2251034125808
 10
-193.3365238445017
 20
28.35090783611562
 10
-193.2595988466733
 20
28.47602542930668
 10
-193.1372858106917
 20
28.67503451967071
 10
-193.0078755278886
 20
28.8714679962681
 10
-192.8732567816878
 20
29.0660699252988
 10
-192.791008848742
 20
29.18500604545245
 10
-192.7093332744122
 20
29.30411387319011
 10
-192.6225064725491
 20
29.42139015336109
 10
-192.4714610341049
 20
29.6253787636725
 10
-192.3103420840421
 20
29.82570427885054
 10
-192.1457317464266
 20
30.02465613335195
 10
-192.0622246245288
 20
30.125620193001
 10
-191.9826667770718
 20
30.22807238504869
 10
-191.8956682676246
 20
30.32777725574572
 10
-191.6778285788321
 20
30.57732561179498
 10
-191.4471680570714
 20
30.82200891962083
 10
-191.207864920228
 20
31.0633153116155
 10
-191.1641367220576
 20
31.10738692495726
 10
-191.1249301569424
 20
31.15323285000052
 10
-191.0805151284352
 20
31.19707551989179
 10
-190.790272074876
 20
31.48331206314959
 10
-190.4838885083756
 20
31.76336713336934
 10
-190.1638255709852
 20
32.03781308916315
 10
-190.0847256104176
 20
32.10563758501627
 10
-189.9987573464797
 20
32.17071475951551
 10
-189.917883074208
 20
32.23785242503192
 10
-189.7485793959525
 20
32.37825199323954
 10
-189.5803631990656
 20
32.51905221247781
 10
-189.4032754436495
 20
32.65636104416736
 10
-189.4043629250175
 20
32.65241176972729
 10
-189.4054504063848
 20
32.64829078770001
 10
-189.4065378877528
 20
32.64434151325673
 10
-189.3237175961924
 20
32.70867462156049
 10
-189.2464491831953
 20
32.77518269259898
 10
-189.161911815789
 20
32.83882897056603
 10
-189.042975695636
 20
32.92828862205713
 10
-188.9181442817503
 20
33.0154016032295
 10
-188.7958312457687
 20
33.10354482990661
 10
-188.5588175433822
 20
33.27427940469685
 10
-188.3178545665561
 20
33.44335413950891
 10
-188.0684779180915
 20
33.60893748676712
 10
-187.9311690864026
 20
33.70017144996614
 10
-187.7905405747483
 20
33.78997451662592
 10
-187.6495114120628
 20
33.87954863983905
 10
-187.3987611029242
 20
34.03877880647585
 10
-187.1422299717723
 20
34.1954905952054
 10
-186.8798607827511
 20
34.34974124189354
 10
-186.7336803925336
 20
34.43565226997331
 10
-186.5872710588687
 20
34.52144882633039
 10
-186.4375420452385
 20
34.6058717220115
 10
-186.1580020977753
 20
34.76332757694358
 10
-185.8702774221189
 20
34.91717757259787
 10
-185.5784890002984
 20
35.06919602068802
 10
-185.4368302431355
 20
35.14297304613191
 10
-185.297861571464
 20
35.21795202467225
 10
-185.153398257091
 20
35.29046986116413
 10
-184.8008253503794
 20
35.46738590899948
 10
-184.4375493375718
 20
35.63937967274237
 10
-184.068206323445
 20
35.80868335099723
 10
-183.9768578885239
 20
35.85052276574101
 10
-183.8897449073515
 20
35.8943081997703
 10
-183.7973662269257
 20
35.93568972762144
 10
-183.3215072745859
 20
36.14889331163019
 10
-182.8328847251374
 20
36.35614436604881
 10
-182.3304683330735
 20
36.55681329639488
 10
-182.2748350757151
 20
36.57902081064881
 10
-182.2160538459746
 20
36.59968295664083
 10
-182.1601344093101
 20
36.6217187633101
 10
-181.7205629931481
 20
36.79508618773347
 10
-181.271776603292
 20
36.96404645081965
 10
-180.8125732866428
 20
37.12785548637381
 10
-180.6578075172014
 20
37.183030856839
 10
-180.4978905202317
 20
37.23568784940081
 10
-180.3408925521929
 20
37.28983297435742
 10
-179.9698896980834
 20
37.41775512476497
 10
-179.5951092771178
 20
37.5437312558806
 10
-179.2119724203763
 20
37.6655864049683
 10
-179.0266999367682
 20
37.72453934229275
 10
-178.8381650090535
 20
37.78177520377191
 10
-178.6500307323733
 20
37.83929724456034
 10
-178.2810311334145
 20
37.95210912753536
 10
-177.9071664862329
 20
38.06240263260633
 10
-177.5275782529034
 20
38.16966263701803
 10
-177.3294849363233
 20
38.22563930954582
 10
-177.1305903176845
 20
38.28115809517905
 10
-176.9296924438918
 20
38.33558939944492
 10
-176.5391721610158
 20
38.44141850732058
 10
-176.1420697540756
 20
38.54369899178426
 10
-175.7409036009674
 20
38.643861749372
 10
-175.5473891533041
 20
38.69216881646244
 10
-175.3554200739059
 20
38.74133442147489
 10
-175.1595017200612
 20
38.78826782788486
 10
-174.7074528860985
 20
38.8966153136684
 10
-174.246704201188
 20
39.00021222294224
 10
-173.7818345342541
 20
39.10146246190118
 10
-173.6312469827025
 20
39.13425861052843
 10
-173.4840363469796
 20
39.16894354258242
 10
-173.3321323706146
 20
39.20099562501034
 10
-172.0799834290325
 20
39.46513912573945
 10
-170.7830188079092
 20
39.70369819638346
 10
-169.4439285927431
 20
39.91661560108679
 10
-169.2654099407909
 20
39.94500458838134
 10
-169.0824268916402
 20
39.9705890184626
 10
-168.9024201072894
 20
39.9980622319738
 10
-168.4140837371463
 20
40.07258332362022
 10
-167.922255979457
 20
40.14492945252808
 10
-167.4230447956339
 20
40.21269671251921
 10
-167.1883777635705
 20
40.24451985150435
 10
-166.950391051538
 20
40.27428249947167
 10
-166.7133201132926
 20
40.30461750605494
 10
-166.2562917593787
 20
40.36311255648932
 10
-165.7957720179181
 20
40.41943264418129
 10
-165.3301582847848
 20
40.47231858018974
 10
-165.0748291067256
 20
40.50133716195837
 10
-164.8181835038518
 20
40.52943996994367
 10
-164.5602787120265
 20
40.55674147587021
 10
-164.0940353844153
 20
40.60613602432865
 10
-163.6229842444433
 20
40.65238260040256
 10
-163.1485561886433
 20
40.6962825061571
 10
-162.8940283126422
 20
40.71980644522503
 10
-162.6400727952564
 20
40.74384550704887
 10
-162.3831982489398
 20
40.7657668419929
 10
-161.875458921756
 20
40.80915162499474
 10
-161.3613091780914
 20
40.84801477493864
 10
-160.8446410565164
 20
40.88516084903981
 10
-160.6155259030164
 20
40.90164477714577
 10
-160.3889863632792
 20
40.91984578109701
 10
-160.1581541339345
 20
40.93507052024775
 10
-159.4882656111825
 20
40.97925660531154
 10
-158.8106502471292
 20
41.01800528353341
 10
-158.126509994866
 20
41.05183167766925
 10
-158.0478106853329
 20
41.05572371624669
 10
-157.9712291026725
 20
41.061103887226
 10
-157.8923580855553
 20
41.06482421822199
 10
-157.1231081072749
 20
41.10139793370914
 10
-156.344185268404
 20
41.1307599306458
 10
-155.5577072958183
 20
41.15411216212971
 10
-155.3427294001016
 20
41.16046534275499
 10
-155.1236877582197
 20
41.16361331513632
 10
-154.907507909413
 20
41.16899348611498
 10
-154.3403005221527
 20
41.18318797976097
 10
-153.7708609362977
 20
41.19555092583899
 10
-153.1951826415394
 20
41.20293435197285
 10
-152.900360719059
 20
41.2067119188289
 10
-152.6021046448919
 20
41.20768492847487
 10
-152.3051077596722
 20
41.20963094776294
 10
-151.8289626280308
 20
41.21283615600689
 10
-151.3505852977838
 20
41.21409534496276
 10
-150.8689455234378
 20
41.21266444842287
 10
-150.3384835592481
 20
41.21106184430283
 10
-149.802641424079
 20
41.2048231354028
 10
-149.2655400999586
 20
41.19755418099418
 10
-148.8824604790759
 20
41.19240295346151
 10
-148.5009262264544
 20
41.18839644315563
 10
-148.1145841614728
 20
41.1803261866889
 10
-147.5466327080132
 20
41.1685355992217
 10
-146.9722708380689
 20
41.15084971802636
 10
-146.3974510812346
 20
41.13282042165977
 10
-146.0336027098084
 20
41.12143048522386
 10
-145.6724444238735
 20
41.11227274738914
 10
-145.3059059669632
 20
41.09836443304921
 10
-144.6671537528532
 20
41.07409642778195
 10
-144.0209036408911
 20
41.04267393983132
 10
-143.3743101137604
 20
41.01079356498742
 10
-143.0630042631747
 20
40.99545435411144
 10
-142.7552470360003
 20
40.98360653078547
 10
-142.4421668737099
 20
40.96643577233961
 10
-141.4796886270761
 20
40.91383601564042
 10
-140.5100558977551
 20
40.85385283281122
 10
-139.5317233174894
 20
40.7844257328342
 10
-140.9385235567872
 20
39.76848919158049
 10
-142.289690538729
 20
38.67431122767987
 10
-143.5776118937358
 20
37.50509704938334
 10
-144.2216298070998
 20
36.92043272437117
 10
-144.8496789151106
 20
36.3171667443803
 10
-145.4611296232941
 20
35.69535634526952
 10
-146.0725230956143
 20
35.07360318202137
 10
-146.6672609322452
 20
34.43342007137533
 10
-147.2441984159555
 20
33.77532213608729
 10
-147.2441984159555
 20
33.77532213608729
 10
-147.2442556518181
 20
33.77532213608729
 10
-147.2442556518181
 20
33.77532213608729
 10
-149.2131692867061
 20
33.70177405408683
 10
-151.0954850631718
 20
33.57076116715993
 10
-152.8806143468503
 20
33.38308477736982
 10
-153.4756955986492
 20
33.32052598077461
 10
-154.0599020367681
 20
33.25172847527552
 10
-154.6329474818978
 20
33.17657778915438
 10
-155.3969889967829
 20
33.07641503156343
 10
-156.1412269035973
 20
32.96509128098707
 10
-156.8645737209718
 20
32.84272100914284
 10
-158.3113245915846
 20
32.5979232295988
 10
-159.6747972837426
 20
32.30893936498777
 10
-160.9474938995954
 20
31.97617006634744
 10
-164.1293499109498
 20
31.14424681974982
 10
-166.7440557709066
 20
30.03913680630657
 10
-168.6757088599681
 20
28.66953987697002
 10
-169.4483357540765
 20
28.12173544675361
 10
-170.1116993886218
 20
27.53157647904009
 10
-170.6583018657494
 20
26.89974980417003
 10
-170.8632634857074
 20
26.66279333764671
 10
-171.0517984134183
 20
26.41999881325018
 10
-171.2235632337177
 20
26.17130899512549
 10
-171.7388576946161
 20
25.42529677660378
 10
-172.1028205377637
 20
24.62674203724552
 10
-172.3049203646464
 20
23.77644607910879
 10
-172.3839058534849
 20
23.44396295977452
 10
-172.4372496763867
 20
23.10730162255353
 10
-172.4654669560933
 20
22.76697719019853
 10
-172.4936842358039
 20
22.42659552198476
 10
-172.4967749723264
 20
22.08255075862993
 10
-172.475254288406
 20
21.73507184359156
 10
-172.432212920576
 20
21.04005677764835
 10
-172.2908403427225
 20
20.33141957667125
 10
-172.0554292444559
 20
19.61167861857136
 10
-171.1138420872614
 20
16.73277202202671
 10
-168.6682109621161
 20
13.67717832109656
 10
-164.9979613447591
 20
10.61282753335593
 10
-163.9657125829803
 20
9.750969931203133
 10
-162.8365062718538
 20
8.888425498712987
 10
-161.6167528278727
 20
8.028971802738336
 10
-161.210149267922
 20
7.742449080175767
 10
-160.7934721963539
 20
7.456327008640004
 10
-160.3669505566099
 20
7.170662823997515
 10
-159.7982550369548
 20
6.789758165850115
 10
-159.2121025795433
 20
6.409712045631136
 10
-158.6089510712777
 20
6.030810642638289
 10
-158.4734737871555
 20
5.945700916617266
 10
-158.327636812106
 20
5.861392492658192
 10
-158.1904424521384
 20
5.776397238363055
 10
-157.7272326251872
 20
5.489817279933373
 10
-157.2624201941152
 20
5.203351793232786
 10
-156.7792922873706
 20
4.918488910649039
 10
-156.7281806630662
 20
4.888268375787804
 10
-156.6809038414876
 20
4.857704425757896
 10
-156.629620509603
 20
4.827483890896662
 10
-156.0609822258067
 20
4.492539629520972
 10
-155.4717962677353
 20
4.159770330880641
 10
-154.8774590821357
 20
3.827573390854982
 10
-154.8736242794177
 20
3.825455663982244
 10
-154.8700756560057
 20
3.823223465384904
 10
-154.8662408532877
 20
3.821105738508316
 10
-154.7552605178794
 20
3.759119300527778
 10
-154.6510340141238
 20
3.696388796344705
 10
-154.5391951407947
 20
3.634459594223581
 10
-154.0742682379975
 20
3.377184396875641
 10
-153.5898811423015
 20
3.12231310570649
 10
-153.1100729155184
 20
2.866869455925878
 10
-153.109786736213
 20
2.86669774834122
 10
-153.1095005569037
 20
2.866583276619827
 10
-153.1092143775977
 20
2.86641156903196
 10
-152.8514812933565
 20
2.729217209068293
 10
-152.6034783055653
 20
2.590706424286779
 10
-152.341452531716
 20
2.454084422937781
 10
-151.7587914618545
 20
2.150276470206669
 10
-151.1568991425403
 20
1.849387546410886
 10
-150.5537476342708
 20
1.548784801920513
 10
-150.5026360099702
 20
1.523314843563861
 10
-150.4536421125431
 20
1.497501470035326
 10
-150.4024160165205
 20
1.472088747538087
 10
-149.5012946133932
 20
1.024676018356055
 10
-148.5845478200767
 20
0.5800678463828258
 10
-147.6396982187789
 20
0.140897081254733
 10
-146.9351819998297
 20
-0.1865492822689117
 10
-146.2133805507158
 20
-0.5102180789339396
 10
-145.4854548644234
 20
-0.8325704507843287
 10
-145.3698956600945
 20
-0.8837393109468385
 10
-145.2594876833015
 20
-0.9361101242032349
 10
-145.1433561203611
 20
-0.9871645126405008
 10
-144.5525103223109
 20
-1.246786380311666
 10
-143.944779945124
 20
-1.502115558370884
 10
-143.3392817665352
 20
-1.758017095041564
 10
-143.3361337941539
 20
-1.759333519855561
 10
-143.3331575293566
 20
-1.760707180532821
 10
-143.3300095569752
 20
-1.76202360534746
 10
-143.3292082549133
 20
-1.762367020515492
 10
-143.3283497169926
 20
-1.762710435683524
 10
-143.3275484149306
 20
-1.763053850852197
 10
-143.068269962432
 20
-1.872603289724494
 10
-142.8170617664
 20
-1.984270455469528
 10
-142.5551504642689
 20
-2.093075828142497
 10
-142.1118587171103
 20
-2.277260830382612
 10
-141.6540862970003
 20
-2.457210378874043
 10
-141.2034111237149
 20
-2.639277654238853
 10
-141.1459463187898
 20
-2.662515414000732
 10
-141.0885959855886
 20
-2.685753173759403
 10
-141.0310167089382
 20
-2.70893369765866
 10
-140.6461055404919
 20
-2.863871174683506
 10
-140.2691501567878
 20
-3.021155322028369
 10
-139.8789732890843
 20
-3.174432959070543
 10
-139.5328107988567
 20
-3.310482601804229
 10
-139.174800485307
 20
-3.442468498377098
 10
-138.8245742489141
 20
-3.577201716299354
 10
-137.34096348351
 20
-4.14772878352559
 10
-135.8310814576865
 20
-4.709441528081933
 10
-134.2781008281712
 20
-5.253983514195618
 10
-133.9645627789868
 20
-5.363933604098568
 10
-133.6414663409371
 20
-5.469705476111607
 10
-133.3252382062654
 20
-5.578510848780726
 10
-132.119622020067
 20
-5.993299136923375
 10
-130.8921989706421
 20
-6.398242856887545
 10
-129.6512682579118
 20
-6.796547216921033
 10
-129.495186063657
 20
-6.846628595716183
 10
-129.3396189921574
 20
-6.896881682095992
 10
-129.1829072034279
 20
-6.946676881581883
 10
-128.9114375124314
 20
-7.032874088970265
 10
-128.6450618131081
 20
-7.121646910125302
 10
-128.3715316310977
 20
-7.206813872005096
 10
-127.3633219311426
 20
-7.520638100498704
 10
-126.3437222947511
 20
-7.828452563531862
 10
-125.3133050805389
 20
-8.12974213835894
 10
-124.2828878663267
 20
-8.431088949048641
 10
-123.2415958384345
 20
-8.725910871525202
 10
-122.1902302989243
 20
-9.013921726490275
 10
-121.1388075235482
 20
-9.301875345593368
 10
-120.0772540006947
 20
-9.583017897176627
 10
-119.0061420889719
 20
-9.856891494355766
 10
-117.9350301772492
 20
-10.13076509153426
 10
-116.8543598766578
 20
-10.39736973430414
 10
-115.764875253403
 20
-10.65636200750122
 10
-115.7609832148223
 20
-10.65727778128072
 10
-115.7570911762417
 20
-10.65807908334266
 10
-115.753199137661
 20
-10.65899485712601
 10
-114.2511011889996
 20
-11.0159176893122
 10
-112.7611944788321
 20
-11.34473771350926
 10
-111.278270543764
 20
-11.6606796688756
 10
-111.278270543764
 20
-11.6606796688756
 10
-111.2743212693239
 20
-11.66153820679632
 10
-111.2743212693239
 20
-11.66153820679632
 10
-110.9689679483322
 20
-11.72661538129941
 10
-110.6639580425085
 20
-11.79112019718655
 10
-110.3594632594413
 20
-11.85453753170312
 10
-110.3220310060334
 20
-11.86232160886763
 10
-110.2845415167636
 20
-11.87044910119761
 10
-110.2471092633557
 20
-11.87823317835892
 10
-110.2460217819883
 20
-11.87846212180235
 10
-110.2448770647584
 20
-11.87869106524898
 10
-110.2437895833904
 20
-11.87892000869562
 10
-108.7851336535934
 20
-12.18135430075268
 10
-107.3344335085379
 20
-12.46879279709923
 10
-105.8990725743615
 20
-12.73161987301435
 10
-105.7742411604759
 20
-12.75451421760435
 10
-105.6507261714049
 20
-12.77546254290562
 10
-105.5268105313032
 20
-12.79692599096023
 10
-105.4817659083148
 20
-12.80476730398351
 10
-105.4367785211968
 20
-12.81243690942342
 10
-105.3915621906276
 20
-12.82062163761217
 10
-105.3891582844424
 20
-12.82107952450545
 10
-105.3867543782604
 20
-12.82148017553675
 10
-105.3843504720784
 20
-12.82188082656355
 10
-104.072390055251
 20
-13.05832217033867
 10
-102.7730215279496
 20
-13.27599015154338
 10
-101.4840126915755
 20
-13.47957811082413
 10
-101.4821239081494
 20
-13.47986429013018
 10
-101.4801778888575
 20
-13.48020770530206
 10
-101.4782891054275
 20
-13.48049388460812
 10
-101.3752645547651
 20
-13.49674886926679
 10
-101.2725261834114
 20
-13.5127176746207
 10
-101.1694443968864
 20
-13.52914436686402
 10
-100.9597322004264
 20
-13.56251287410659
 10
-100.7497910605203
 20
-13.59628203238044
 10
-100.5411091095657
 20
-13.62810517136172
 10
-99.14850336391394
 20
-13.84039298158713
 10
-97.76906186640596
 20
-14.03539556164848
 10
-96.40787860870418
 20
-14.20933534468331
 10
-96.40787860870418
 20
-14.20933534468331
 10
-96.40650494803075
 20
-14.20950705226797
 10
-96.40650494803075
 20
-14.20950705226797
 10
-96.19501843986345
 20
-14.23652237888526
 10
-95.98627925305002
 20
-14.26044696898384
 10
-95.77628087728138
 20
-14.28574521975968
 10
-95.74096635075008
 20
-14.28998067350901
 10
-95.70570906007757
 20
-14.29421612725769
 10
-95.67028006182106
 20
-14.29856605272841
 10
-94.83515160698013
 20
-14.40147613166939
 10
-94.01587748576659
 20
-14.48744439561113
 10
-93.19414222250522
 20
-14.5758738015975
 10
-92.82823336007281
 20
-14.61525207429344
 10
-92.45476936391805
 20
-14.66275783932258
 10
-92.09166505869445
 20
-14.69933155480973
 10
-91.83158530413065
 20
-14.7254883435063
 10
-91.56921611510945
 20
-14.75439245354969
 10
-91.3106244929475
 20
-14.77911834571022
 10
-89.99522992442955
 20
-14.90475106165717
 10
-88.69986790743402
 20
-15.01069464125487
 10
-87.42436673436792
 20
-15.09872339621058
 10
-87.42322201713793
 20
-15.09878063207256
 10
-87.42207729990795
 20
-15.09883786793197
 10
-87.42093258268118
 20
-15.09895233965722
 10
-87.36060598468011
 20
-15.10313055754328
 10
-87.30130963218696
 20
-15.10645023750862
 10
-87.24138368522039
 20
-15.11028504022665
 10
-87.02806562948643
 20
-15.12402164698257
 10
-86.81577781925716
 20
-15.13701418754238
 10
-86.60274594283242
 20
-15.15052185084717
 10
-85.61479773783812
 20
-15.21290893986221
 10
-84.64533671610494
 20
-15.25944169524539
 10
-83.6837742432545
 20
-15.29939232655665
 10
-83.52792099244565
 20
-15.30585997890331
 10
-83.36565732515342
 20
-15.31770780222928
 10
-83.21054814054392
 20
-15.32354586010187
 10
-83.05314952147382
 20
-15.32949838969649
 10
-82.89317528864154
 20
-15.3375686461632
 10
-82.73583390543469
 20
-15.34357841161659
 10
-82.71620200494743
 20
-15.34432247781977
 10
-82.69605498170426
 20
-15.34546719504654
 10
-82.67653755294221
 20
-15.34609678952383
 10
-81.45048816419395
 20
-15.38713490220245
 10
-80.25277052688213
 20
-15.40596550063163
 10
-79.0755433279738
 20
-15.40980030334966
 10
-78.95454671680683
 20
-15.41020095438096
 10
-78.82593773606576
 20
-15.41632519155895
 10
-78.70551348351411
 20
-15.41632519155895
 10
-78.41469807133575
 20
-15.41632519155895
 10
-78.13344104802659
 20
-15.4095141240404
 10
-77.84577360823341
 20
-15.40722468958365
 10
-77.84571637237078
 20
-15.40722468958365
 10
-77.84571637237078
 20
-15.40722468958365
 10
-77.84565913650816
 20
-15.40722468958365
 10
-77.71189892823123
 20
-15.40619444407506
 10
-77.57945514476894
 20
-15.40413395306495
 10
-77.44580940821404
 20
-15.40298923583432
 10
-77.24531218545199
 20
-15.40121492412641
 10
-77.0440136606312
 20
-15.4001274427629
 10
-76.84592034405113
 20
-15.39669329107167
 10
-76.74449839751203
 20
-15.39491897936376
 10
-76.64616718748778
 20
-15.39102694078375
 10
-76.54543207128601
 20
-15.38885197804839
 10
-76.1577735814859
 20
-15.38038107055038
 10
-75.77188940339368
 20
-15.37076544582239
 10
-75.38949661285148
 20
-15.35857420732389
 10
-75.38783677286497
 20
-15.35851697146512
 10
-75.38611969702353
 20
-15.3584597356025
 10
-75.38445985704085
 20
-15.3584597356025
 10
-75.08179662153651
 20
-15.34884411087451
 10
-74.7759854136547
 20
-15.34123174129722
 10
-74.47732868845625
 20
-15.32886879521855
 10
-74.47732868845625
 20
-15.32886879521855
 10
-74.47458136710558
 20
-15.32869708763454
 10
-74.47458136710558
 20
-15.32869708763454
 10
-73.95562381106994
 20
-15.30723363958057
 10
-73.44799895561144
 20
-15.27861570883939
 10
-72.94151881738357
 20
-15.24913924017684
 10
-72.93734059949686
 20
-15.24891029673405
 10
-72.93299067402293
 20
-15.24873858914618
 10
-72.92881245613623
 20
-15.24850964569955
 10
-72.6860751675991
 20
-15.23437238791682
 10
-72.43824388739513
 20
-15.22344033837419
 10
-72.19819668435312
 20
-15.20747153302093
 10
-72.19470529680312
 20
-15.20724258957365
 10
-72.19104220166589
 20
-15.20712811785225
 10
-72.1875508141159
 20
-15.20689917440561
 10
-71.44165306731943
 20
-15.15698950319769
 10
-70.70783208729173
 20
-15.09952469827189
 10
-69.99118186571054
 20
-15.03187191000342
 10
-68.57310616170211
 20
-14.89788275827985
 10
-67.21346827226158
 20
-14.72915143863646
 10
-65.91730495320409
 20
-14.52613583797423
 10
-64.62114163414597
 20
-14.32306300144231
 10
-63.38851012132966
 20
-14.08576311974968
 10
-62.2244471705626
 20
-13.81440790047843
 10
-61.06038421979874
 20
-13.54310991706595
 10
-59.96494706694673
 20
-13.23781383193682
 10
-58.94311523195717
 20
-12.89897753198048
 10
-57.410453333269
 20
-12.39072308204019
 10
-56.04343201769847
 20
-11.80697453081521
 10
-54.85939375127609
 20
-11.14893383138981
 10
-52.0966187176718
 20
-9.613524611347765
 10
-50.32974767380714
 20
-7.673801265815635
 10
-49.77650583674881
 20
-5.34619048703739
 10
-49.6867027700884
 20
-4.968262093690507
 10
-49.63003926722453
 20
-4.585125236948976
 10
-49.60571402609531
 20
-4.197180567843449
 10
-49.53279553856893
 20
-3.033346560522374
 10
-49.75109311425157
 20
-1.826528421234598
 10
-50.23897159750077
 20
-0.5897186905283757
 10
-50.40163591582493
 20
-0.1775060161555901
 10
-50.59417735384166
 20
0.2381980457704025
 10
-50.81596631707366
 20
0.6565921931805942
 10
-51.48121873504506
 20
1.911946343006094
 10
-52.40906928548429
 20
3.19288492290964
 10
-53.57771110516937
 20
4.486529864064372
 10
-56.69420376271526
 20
7.936192471281252
 10
-61.52393746191869
 20
11.4759443244646
 10
-67.65824815181883
 20
14.85927056822765
 10
-67.8774042654222
 20
15.70664749742584
 10
-68.12042773326216
 20
16.54583969843592
 10
-68.38668896086722
 20
17.37621757677547
 10
-68.91921141606707
 20
19.03691609759644
 10
-69.54457043858983
 20
20.66207114843948
 10
-70.257328621591
 20
22.24538678453747
 10
-70.61373633102066
 20
23.037015984659
 10
-70.99189366781418
 20
23.81822825798738
 10
-71.39128550921824
 20
24.58816506660767
 10
-70.52937067120217
 20
24.22797979031876
 10
-69.67735763722079
 20
23.86413141889583
 10
-68.8354753507233
 20
23.49696336750435
 10
-67.99365030008458
 20
23.12973808025346
 10
-67.16189876107098
 20
22.75919311303723
 10
-66.34067862056615
 20
22.38538570171828
 10
-64.69823833955584
 20
21.63782811493851
 10
-63.09769470915195
 20
20.87756416690884
 10
-61.54156610725461
 20
20.10619646175188
 10
-59.20737320440768
 20
18.94911628608737
 10
-56.97317135156381
 20
17.76708127481954
 10
-54.84737422036225
 20
16.56564330650722
 10
-54.13879425525163
 20
16.16516398373837
 10
-53.44223382104714
 20
15.76250969823159
 10
-52.75803633292517
 20
15.35796662929487
 10
-51.38969859254
 20
14.54876601970003
 10
-50.07075540061712
 20
13.73183856880971
 10
-48.80383960677169
 20
12.90872964487493
 10
-47.53692381292563
 20
12.08562072094335
 10
-46.32192094544525
 20
11.25633032397116
 10
-45.16146385395279
 20
10.42251829394039
 10
-39.57724702872965
 20
6.410398875967842
 10
-35.26629917797785
 20
2.294281897685676
 10
-32.48526590456355
 20
-1.743822601395573
 10
-31.79866451025572
 20
-2.740814072502565
 10
-31.19431104889686
 20
-3.733627325723495
 10
-30.69985044157512
 20
-4.718255850751825
 10
-30.28363125690029
 20
-5.547031124967475
 10
-29.93695364392002
 20
-6.37048346407093
 10
-29.66245045226744
 20
-7.18695302807118
 10
-28.83882640557997
 20
-9.636304484216367
 10
-28.66397084876179
 20
-12.0226964927312
 10
-29.20565104179956
 20
-14.30182849683498
 97
        0
 97
        1
330
79
 92
        1
 93
        1
 72
     4
 94
        3
 73
     0
 74
     0
 95
       98
 96
       94
 40
0.0
 40
0.0
 40
0.0
 40
0.0
 40
1.0
 40
1.0
 40
1.0
 40
2.0
 40
2.0
 40
2.0
 40
3.0
 40
3.0
 40
3.0
 40
4.0
 40
4.0
 40
4.0
 40
5.0
 40
5.0
 40
5.0
 40
6.0
 40
6.0
 40
6.0
 40
7.0
 40
7.0
 40
7.0
 40
8.0
 40
8.0
 40
8.0
 40
9.0
 40
9.0
 40
9.0
 40
10.0
 40
10.0
 40
10.0
 40
11.0
 40
11.0
 40
11.0
 40
12.0
 40
12.0
 40
12.0
 40
13.0
 40
13.0
 40
13.0
 40
14.0
 40
14.0
 40
14.0
 40
15.0
 40
15.0
 40
15.0
 40
16.0
 40
16.0
 40
16.0
 40
17.0
 40
17.0
 40
17.0
 40
18.0
 40
18.0
 40
18.0
 40
19.0
 40
19.0
 40
19.0
 40
20.0
 40
20.0
 40
20.0
 40
21.0
 40
21.0
 40
21.0
 40
22.0
 40
22.0
 40
22.0
 40
23.0
 40
23.0
 40
23.0
 40
24.0
 40
24.0
 40
24.0
 40
25.0
 40
25.0
 40
25.0
 40
26.0
 40
26.0
 40
26.0
 40
27.0
 40
27.0
 40
27.0
 40
28.0
 40
28.0
 40
28.0
 40
29.0
 40
29.0
 40
29.0
 40
30.0
 40
30.0
 40
30.0
 40
31.0
 40
31.0
 40
31.0
 40
31.0
 10
-103.3381111883339
 20
-38.20707287398148
 10
-106.296289453027
 20
-38.85538347695301
 10
-109.3343117444864
 20
-39.20337751474792
 10
-112.4170352437591
 20
-39.20337751474792
 10
-115.4756624453485
 20
-39.20337751474792
 10
-118.5471104799067
 20
-38.8526933914656
 10
-121.5629824929722
 20
-38.1894442286449
 10
-121.7991376574342
 20
-38.13747406642045
 10
-122.0374677846348
 20
-38.09826750130787
 10
-122.2728788829007
 20
-38.04229082878136
 10
-133.1327540041113
 20
-35.4610679477924
 10
-142.3592893462868
 20
-28.80573921084265
 10
-148.233577517489
 20
-19.61240066832562
 10
-146.9763918200962
 20
-20.09266678199881
 10
-145.7041530911334
 20
-20.5603410061422
 10
-144.4235579263979
 20
-21.02068904002206
 10
-144.077280964449
 20
-21.14517703873903
 10
-143.7267113128887
 20
-21.26588747060059
 10
-143.3787172750937
 20
-21.38888733691891
 10
-142.313500657103
 20
-21.76544206958853
 10
-141.2410150847068
 20
-22.13535744233068
 10
-140.1604020199775
 20
-22.49811833238561
 10
-139.7424657594573
 20
-22.63840342887183
 10
-139.3245294989372
 20
-22.77863128949543
 10
-138.9043038039526
 20
-22.91685589496768
 10
-137.662915204329
 20
-23.32517653076046
 10
-136.4128839896235
 20
-23.72525520250122
 10
-135.1522641405439
 20
-24.11520312675809
 10
-134.9746040265131
 20
-24.17014955377986
 10
-134.7997484696949
 20
-24.22772883042706
 10
-134.6216877046328
 20
-24.28233184227758
 10
-133.1910201110952
 20
-24.72104472051882
 10
-131.7458146087442
 20
-25.14510521821758
 10
-130.2914513685579
 20
-25.55989350635702
 10
-130.2205933720455
 20
-25.58009776545897
 10
-130.1512807437937
 20
-25.60201910040685
 10
-130.0803655114219
 20
-25.62216612364617
 10
-129.7501145906888
 20
-25.71603293647126
 10
-129.4152848010306
 20
-25.80486299348828
 10
-129.0838891630675
 20
-25.89747061736134
 10
-127.9764324793049
 20
-26.20688768451776
 10
-126.8628515583675
 20
-26.50937921243423
 10
-125.7424595699115
 20
-26.8048879652552
 10
-125.3080393812816
 20
-26.91947415993428
 10
-124.8746494381635
 20
-27.03486165667595
 10
-124.4383404661042
 20
-27.14727288862352
 10
-122.9582210882526
 20
-27.52874990537853
 10
-121.4708327559892
 20
-27.90215666567068
 10
-119.9693644018051
 20
-28.2591367337195
 10
-119.962782277737
 20
-28.26068210197692
 10
-119.9564290971117
 20
-28.26245641368484
 10
-119.949846973043
 20
-28.26400178194226
 10
-119.9432648489711
 20
-28.26554715020354
 10
-119.9367971966244
 20
-28.26692081088016
 10
-119.9302150725557
 20
-28.26846617913822
 10
-118.4274302935537
 20
-28.62556071890779
 10
-116.9299112138128
 20
-28.96159246165148
 10
-115.4351966912814
 20
-29.28709280588705
 10
-114.9959114544287
 20
-29.38279116627818
 10
-114.5577709348059
 20
-29.47454025222988
 10
-114.1192297641487
 20
-29.56749129127162
 10
-112.9867610089234
 20
-29.80748125845487
 10
-111.8571540467701
 20
-30.03814178021618
 10
-110.7300654625202
 20
-30.25987350758555
 10
-110.3163646557449
 20
-30.34126290260994
 10
-109.9020342544994
 20
-30.42488449623231
 10
-109.489077513924
 20
-30.50381274920887
 10
-108.0048943899039
 20
-30.78747367870001
 10
-106.5246605403309
 20
-31.05871442625308
 10
-105.050951578964
 20
-31.31038050917507
 10
-104.8662514539705
 20
-31.34197470471357
 10
-104.6829822255138
 20
-31.36939068236151
 10
-104.4983965722424
 20
-31.40041251928534
 10
-103.1994286959716
 20
-31.61893903841077
 10
-101.9053831037862
 20
-31.82367171492215
 10
-100.6154012577661
 20
-32.01718616258099
 10
-100.1742272374873
 20
-32.08335081845144
 10
-99.73431240615674
 20
-32.14665368124983
 10
-99.29422586724207
 20
-32.20989930818238
 10
-98.8401737781281
 20
-32.27514819026949
 10
-98.38383225455091
 20
-32.34657854539721
 10
-97.93103935439278
 20
-32.40867945510299
 10
-97.26229554886819
 20
-32.5004285410547
 10
-96.59818784812356
 20
-32.58073045470787
 10
-95.93219136395218
 20
-32.66561123728226
 10
-95.56364965188731
 20
-32.7126018795555
 10
-95.19396322259179
 20
-32.76279773007589
 10
-94.82628004844761
 20
-32.80772788133516
 10
-93.47448347203423
 20
-32.97279610584069
 10
-92.12697958522573
 20
-33.12756187528216
 10
-90.78725977558239
 20
-33.26424111249314
 10
-94.6851936499033
 20
-35.58189285137216
 10
-98.92001780489184
 20
-37.23875656947445
 10
-103.3381111883339
 20
-38.20707287398148
 97
        0
 97
        1
330
7A
 92
        1
 93
        1
 72
     4
 94
        3
 73
     0
 74
     0
 95
      179
 96
      175
 40
0.0
 40
0.0
 40
0.0
 40
0.0
 40
1.0
 40
1.0
 40
1.0
 40
2.0
 40
2.0
 40
2.0
 40
3.0
 40
3.0
 40
3.0
 40
4.0
 40
4.0
 40
4.0
 40
5.0
 40
5.0
 40
5.0
 40
6.0
 40
6.0
 40
6.0
 40
7.0
 40
7.0
 40
7.0
 40
8.0
 40
8.0
 40
8.0
 40
9.0
 40
9.0
 40
9.0
 40
10.0
 40
10.0
 40
10.0
 40
11.0
 40
11.0
 40
11.0
 40
12.0
 40
12.0
 40
12.0
 40
13.0
 40
13.0
 40
13.0
 40
14.0
 40
14.0
 40
14.0
 40
15.0
 40
15.0
 40
15.0
 40
16.0
 40
16.0
 40
16.0
 40
17.0
 40
17.0
 40
17.0
 40
18.0
 40
18.0
 40
18.0
 40
19.0
 40
19.0
 40
19.0
 40
20.0
 40
20.0
 40
20.0
 40
21.0
 40
21.0
 40
21.0
 40
22.0
 40
22.0
 40
22.0
 40
23.0
 40
23.0
 40
23.0
 40
24.0
 40
24.0
 40
24.0
 40
25.0
 40
25.0
 40
25.0
 40
26.0
 40
26.0
 40
26.0
 40
27.0
 40
27.0
 40
27.0
 40
28.0
 40
28.0
 40
28.0
 40
29.0
 40
29.0
 40
29.0
 40
30.0
 40
30.0
 40
30.0
 40
31.0
 40
31.0
 40
31.0
 40
32.0
 40
32.0
 40
32.0
 40
33.0
 40
33.0
 40
33.0
 40
34.0
 40
34.0
 40
34.0
 40
35.0
 40
35.0
 40
35.0
 40
36.0
 40
36.0
 40
36.0
 40
37.0
 40
37.0
 40
37.0
 40
38.0
 40
38.0
 40
38.0
 40
39.0
 40
39.0
 40
39.0
 40
40.0
 40
40.0
 40
40.0
 40
41.0
 40
41.0
 40
41.0
 40
42.0
 40
42.0
 40
42.0
 40
43.0
 40
43.0
 40
43.0
 40
44.0
 40
44.0
 40
44.0
 40
45.0
 40
45.0
 40
45.0
 40
46.0
 40
46.0
 40
46.0
 40
47.0
 40
47.0
 40
47.0
 40
48.0
 40
48.0
 40
48.0
 40
49.0
 40
49.0
 40
49.0
 40
50.0
 40
50.0
 40
50.0
 40
51.0
 40
51.0
 40
51.0
 40
52.0
 40
52.0
 40
52.0
 40
53.0
 40
53.0
 40
53.0
 40
54.0
 40
54.0
 40
54.0
 40
55.0
 40
55.0
 40
55.0
 40
56.0
 40
56.0
 40
56.0
 40
57.0
 40
57.0
 40
57.0
 40
58.0
 40
58.0
 40
58.0
 40
58.0
 10
-137.3355833125307
 20
37.74354164830595
 10
-137.3355833125307
 20
37.74354164830595
 10
-137.3340379442732
 20
37.74462912967331
 10
-137.3340379442732
 20
37.74462912967331
 10
-132.1817229297721
 20
41.46473118237937
 10
-126.3918576542543
 20
43.94355910718262
 10
-120.2918312453807
 20
45.08821910090648
 10
-117.7295534345385
 20
45.56900033733172
 10
-115.1137600932143
 20
45.8195217030263
 10
-112.4656284901524
 20
45.8195217030263
 10
-109.2004943003475
 20
45.8195217030263
 10
-105.9186472389894
 20
45.43386646838137
 10
-102.7086311837871
 20
44.67835309685308
 10
-102.6780099978945
 20
44.67114137830644
 10
-102.6469309251126
 20
44.66650527352646
 10
-102.61630973922
 20
44.65923631911784
 10
-90.59551963962375
 20
41.80219382165846
 10
-80.4279122630057
 20
33.85676876697045
 10
-74.72103898663229
 20
22.86107294646962
 10
-73.24034725016602
 20
20.00654882691747
 10
-72.08589992413014
 20
16.99834641929185
 10
-71.28952014750725
 20
13.91905707170591
 10
-69.56632006594984
 20
7.26372833476065
 10
-69.49912516457786
 20
0.1964158668886043
 10
-71.09520439778581
 20
-6.518838817027716
 10
-71.48973119096388
 20
-8.178564328202075
 10
-71.9951238478244
 20
-9.837774716621176
 10
-72.60365552706933
 20
-11.4735756377008
 10
-72.71858513692094
 20
-11.48101629969343
 10
-72.83752125707458
 20
-11.48605305550085
 10
-72.95325216898429
 20
-11.49309306646283
 10
-73.68461200696673
 20
-11.53745085911064
 10
-74.43108211237849
 20
-11.57236473461448
 10
-75.19014410731621
 20
-11.59915111778513
 10
-75.43545700961934
 20
-11.60779373286716
 10
-75.68076991191929
 20
-11.61637911209041
 10
-75.92877289970726
 20
-11.62319017960575
 10
-76.83956716342587
 20
-11.64820225107169
 10
-77.76180859944236
 20
-11.66531577365558
 10
-78.70551348351411
 20
-11.66531577365558
 10
-81.41929461968997
 20
-11.66531577365558
 10
-84.2368443727288
 20
-11.56469512917457
 10
-87.13692823802201
 20
-11.3660294539792
 10
-88.99199974442254
 20
-11.23902307735884
 10
-90.89102839244409
 20
-11.05724198130008
 10
-92.80814357269163
 20
-10.85079222894341
 10
-93.88812704294306
 20
-10.73443172255642
 10
-94.96702303182711
 20
-10.62013170718275
 10
-96.06394831707778
 20
-10.47893083691318
 10
-97.20551757427909
 20
-10.33200638049564
 10
-98.35572944656563
 20
-10.17168873249149
 10
-99.51349645257005
 20
-9.998092364625328
 10
-102.9867402347149
 20
-9.477417732748248
 10
-106.5276368051282
 20
-8.837463565548842
 10
-110.1063090441174
 20
-8.082121901607768
 10
-111.6968363987653
 20
-7.74643357403275
 10
-113.2947471795437
 20
-7.38790813772715
 10
-114.897465772683
 20
-7.007003479582958
 10
-114.9060511519063
 20
-7.004942988569633
 10
-114.9145792952663
 20
-7.002710789971652
 10
-114.9231646744863
 20
-7.000650298957686
 10
-115.9010966037207
 20
-6.768100993767071
 10
-116.874850315069
 20
-6.527653139693757
 10
-117.8442541009434
 20
-6.280623161548533
 10
-118.1698689168965
 20
-6.197631162404099
 10
-118.4919351094415
 20
-6.109888586757649
 10
-118.8164624440305
 20
-6.025351219351938
 10
-119.4658032925112
 20
-5.856162012818479
 10
-120.1154303203012
 20
-5.687258985594923
 10
-120.7600205922806
 20
-5.511831070158228
 10
-121.1435008641902
 20
-5.407490094680581
 10
-121.5229173899357
 20
-5.29862748614884
 10
-121.9046233501412
 20
-5.192168783795247
 10
-122.4879140144768
 20
-5.029447229612946
 10
-123.0716625657024
 20
-4.867298034041466
 10
-123.6503743611206
 20
-4.699711431631906
 10
-124.0502240894147
 20
-4.583923283856373
 10
-124.4460100715442
 20
-4.464185861643982
 10
-124.8435703653777
 20
-4.346165515274317
 10
-125.3949806548693
 20
-4.182413715582788
 10
-125.946562651945
 20
-4.01894809519731
 10
-126.4932223649346
 20
-3.850960841753247
 10
-126.9044047937988
 20
-3.724641295469587
 10
-127.3114662406389
 20
-3.595002069219945
 10
-127.7197868764317
 20
-3.46633585261306
 10
-128.2470436323807
 20
-3.300180146739533
 10
-128.7738997372958
 20
-3.133795497419368
 10
-129.2960625015716
 20
-2.963919460549205
 10
-129.7056423263189
 20
-2.83061713916234
 10
-130.111387348345
 20
-2.694739204013311
 10
-130.5176474931239
 20
-2.559204684028464
 10
-131.032713010575
 20
-2.38738262787022
 10
-131.5467482825214
 20
-2.214816505508799
 10
-132.0563191572686
 20
-2.039445825934726
 10
-132.45868726347
 20
-1.900992277019042
 10
-132.8576212179769
 20
-1.760649944670199
 10
-133.2563262290449
 20
-1.620021433015947
 10
-133.3254099138494
 20
-1.595696191889276
 10
-133.3934633531498
 20
-1.570798592144726
 10
-133.4624325662297
 20
-1.546358879293452
 10
-133.8953646224603
 20
-1.393024006388655
 10
-134.3279532635197
 20
-1.239574661765673
 10
-134.7564209225518
 20
-1.083778646815614
 10
-135.1535805653585
 20
-0.9393725683021038
 10
-135.5481073585321
 20
-0.7935928291190324
 10
-135.9412032551742
 20
-0.6471834954541774
 10
-136.4306271066846
 20
-0.4648872766395208
 10
-136.9169029858106
 20
-0.2811601612926817
 10
-137.3997447132498
 20
-0.095830441821944
 10
-137.7867736085719
 20
0.0526966187150072
 10
-138.1719709563274
 20
0.2020249813145493
 10
-138.5545926903163
 20
0.3524980611440727
 10
-139.0341719736521
 20
0.5410902247175295
 10
-139.5092868597888
 20
0.7313994641362786
 10
-139.9817688963007
 20
0.9228534207824424
 10
-140.3568354965748
 20
1.074814633009978
 10
-140.7312152665097
 20
1.227119260406829
 10
-141.1015885261413
 20
1.380797548479658
 10
-141.5698351089039
 20
1.575170534063718
 10
-142.0321291620725
 20
1.771489538935857
 10
-142.4926489035363
 20
1.96843813828593
 10
-142.8551808501446
 20
2.123490087032811
 10
-143.2179989760621
 20
2.278427564057657
 10
-143.5754941668598
 20
2.435082116928437
 10
-144.035327077987
 20
2.636552349332604
 10
-144.4875476195337
 20
2.840312016201866
 10
-144.9388523872964
 20
3.044300626513275
 10
-145.282439263754
 20
3.199581518703586
 10
-145.6277432160609
 20
3.354461759865809
 10
-145.9662361008486
 20
3.511116312736589
 10
-146.4197158313505
 20
3.721000216779994
 10
-146.8635227012585
 20
3.933288027009248
 10
-147.3075012787538
 20
4.145633073097273
 10
-147.6319713774802
 20
4.300742257703568
 10
-147.9597039203099
 20
4.455164611975724
 10
-148.2789655556384
 20
4.611532985537244
 10
-148.7294117854842
 20
4.832119995676641
 10
-149.1680674278589
 20
5.055168147860658
 10
-149.6078105516017
 20
5.27804459246066
 10
-149.9048646726801
 20
5.428574908152164
 10
-150.2068983137065
 20
5.578132214198344
 10
-150.4989156789742
 20
5.729692775395226
 10
-150.9659030727848
 20
5.972086648761112
 10
-151.4187532088087
 20
6.216941664167767
 10
-151.8725191186135
 20
6.461682207852387
 10
-152.122582597418
 20
6.596529897496679
 10
-152.3795143795973
 20
6.730175634052217
 10
-152.6254568763751
 20
6.865710154036422
 10
-153.1881426305774
 20
7.175814051530184
 10
-153.7341155132271
 20
7.48849356278996
 10
-154.2745365173136
 20
7.801917140252272
 10
-154.3987383367245
 20
7.873977089854077
 10
-154.5296367519255
 20
7.945064029810557
 10
-154.6526366182438
 20
8.017295686996378
 10
-154.660420695409
 20
8.021874555917586
 10
-154.6676324139511
 20
8.026510660693716
 10
-154.6753592552537
 20
8.031089529614924
 10
-154.4829322889583
 20
9.768655812401689
 10
-154.1878814230351
 20
11.47840546650922
 10
-153.7936408091663
 20
13.13692902459161
 10
-152.1976188118178
 20
19.85224094436992
 10
-148.9577256369223
 20
26.13353332654638
 10
-144.4236723981199
 20
31.30256121259942
 10
-143.8995636145555
 20
31.90033254988958
 10
-143.3574255346238
 20
32.48419557283659
 10
-142.7983456396967
 20
33.05300556421754
 10
-142.1472304795081
 20
33.71545342497949
 10
-141.4666388506569
 20
34.35088595912417
 10
-140.7711086619616
 20
34.97132269755768
 10
-140.1237710686322
 20
35.54877530402386
 10
-139.4543976686296
 20
36.10287567900292
 10
-138.7731192094456
 20
36.64329668308931
 10
-138.3006944087931
 20
37.01807710405487
 10
-137.8254650509312
 20
37.38976678850108
 10
-137.3355833125307
 20
37.74354164830595
 97
        0
 97
        1
330
7B
 92
        1
 93
        1
 72
     4
 94
        3
 73
     0
 74
     0
 95
       47
 96
       43
 40
0.0
 40
0.0
 40
0.0
 40
0.0
 40
1.0
 40
1.0
 40
1.0
 40
2.0
 40
2.0
 40
2.0
 40
3.0
 40
3.0
 40
3.0
 40
4.0
 40
4.0
 40
4.0
 40
5.0
 40
5.0
 40
5.0
 40
6.0
 40
6.0
 40
6.0
 40
7.0
 40
7.0
 40
7.0
 40
8.0
 40
8.0
 40
8.0
 40
9.0
 40
9.0
 40
9.0
 40
10.0
 40
10.0
 40
10.0
 40
11.0
 40
11.0
 40
11.0
 40
12.0
 40
12.0
 40
12.0
 40
13.0
 40
13.0
 40
13.0
 40
14.0
 40
14.0
 40
14.0
 40
14.0
 10
-32.31550433941477
 20
4.093891854319452
 10
-32.3138444994289
 20
4.369139112171358
 10
-32.30079472301353
 20
4.63688847217186
 10
-32.30079472301353
 20
4.913223211391767
 10
-32.30079472301353
 20
30.56713762845167
 10
-39.7852421493476
 20
51.41581529502269
 10
-54.54734383449039
 20
66.88123124602205
 10
-69.35025468886903
 20
82.38161830838466
 10
-88.72539510165266
 20
90.24033103293096
 10
-112.1397274948894
 20
90.24033103293096
 10
-137.429621832943
 20
90.24033103293096
 10
-157.5182072590677
 20
81.8850972100528
 10
-171.8522419362058
 20
65.4062058598405
 10
-178.7953525846669
 20
57.42180318348398
 10
-184.0553282546098
 20
48.33383586194933
 10
-187.6340004936028
 20
38.2256965454078
 10
-193.469425514854
 20
35.09993167830194
 10
-197.1544419844755
 20
30.95147643828645
 10
-198.3546779996945
 20
25.90167085169568
 10
-199.6701298040713
 20
20.36719199009645
 10
-197.8162602507595
 20
14.45323936689612
 10
-193.1623551180202
 20
8.518796305280099
 10
-193.2391084082652
 20
6.739734022920795
 10
-193.2892470229192
 20
4.945675944850984
 10
-193.2892470229192
 20
3.123629530520487
 10
-193.2892470229192
 20
-23.00637278232205
 10
-185.7261575229152
 20
-44.21477783828806
 10
-170.8067716904237
 20
-59.9132009813681
 10
-155.8524147465735
 20
-75.65380695436124
 10
-136.2734574310618
 20
-83.63477547902652
 10
-112.6144417299992
 20
-83.63477547902652
 10
-89.0981150316081
 20
-83.63477547902652
 10
-69.61233769858032
 20
-75.44266386136517
 10
-54.69587089502734
 20
-59.28412162785256
 10
-46.51675181791938
 20
-50.42778783772133
 10
-40.57068987642788
 20
-39.89387094763575
 10
-36.86495402495181
 20
-27.80107813430024
 10
-30.68697237274441
 20
-24.64234541098248
 10
-26.79630745283211
 20
-20.38628675138598
 10
-25.55629251388194
 20
-15.16918074169234
 10
-24.51540113702105
 20
-10.78977880060563
 10
-25.04082634539951
 20
-4.113902389389112
 10
-32.31550433941477
 20
4.093891854319452
 97
        0
 97
        1
330
7C
 75
     2
 76
     1
 98
        1
 10
0.0
 20
0.0
450
        0
451
        0
460
0.0
461
0.0
452
        0
462
0.0
453
        0
470

  0
ENDSEC
  0
SECTION
  2
OBJECTS
  0
DICTIONARY
  5
C
330
0
100
AcDbDictionary
281
     1
  3
ACAD_COLOR
350
63
  3
ACAD_DETAILVIEWSTYLE
350
6A
  3
ACAD_GROUP
350
D
  3
ACAD_LAYOUT
350
62
  3
ACAD_MATERIAL
350
10
  3
ACAD_MLEADERSTYLE
350
66
  3
ACAD_MLINESTYLE
350
5F
  3
ACAD_PLOTSETTINGS
350
61
  3
ACAD_PLOTSTYLENAME
350
E
  3
ACAD_SCALELIST
350
42
  3
ACAD_SECTIONVIEWSTYLE
350
68
  3
ACAD_TABLESTYLE
350
64
  3
ACAD_VISUALSTYLE
350
29
  3
ACDB_RECOMPOSE_DATA
350
86
  3
AcDbVariableDictionary
350
7E
  0
DICTIONARY
  5
63
102
{ACAD_REACTORS
330
C
102
}
330
C
100
AcDbDictionary
281
     1
  0
DICTIONARY
  5
6A
102
{ACAD_REACTORS
330
C
102
}
330
C
100
AcDbDictionary
281
     1
  3
Imperial24
350
6B
  0
DICTIONARY
  5
D
102
{ACAD_REACTORS
330
C
102
}
330
C
100
AcDbDictionary
281
     1
  0
DICTIONARY
  5
62
102
{ACAD_REACTORS
330
C
102
}
330
C
100
AcDbDictionary
281
     1
  3
Layout1
350
6F
  3
Layout2
350
77
  3
Model
350
73
  0
DICTIONARY
  5
10
102
{ACAD_REACTORS
330
C
102
}
330
C
100
AcDbDictionary
281
     1
  3
ByBlock
350
19
  3
ByLayer
350
11
  3
Global
350
21
  0
DICTIONARY
  5
66
102
{ACAD_REACTORS
330
C
102
}
330
C
100
AcDbDictionary
281
     1
  3
Standard
350
67
  0
DICTIONARY
  5
5F
102
{ACAD_REACTORS
330
C
102
}
330
C
100
AcDbDictionary
281
     1
  3
Standard
350
60
  0
DICTIONARY
  5
61
102
{ACAD_REACTORS
330
C
102
}
330
C
100
AcDbDictionary
281
     1
  0
ACDBDICTIONARYWDFLT
  5
E
102
{ACAD_REACTORS
330
C
102
}
330
C
100
AcDbDictionary
281
     1
  3
Normal
350
F
100
AcDbDictionaryWithDefault
340
F
  0
DICTIONARY
  5
42
102
{ACAD_REACTORS
330
C
102
}
330
C
100
AcDbDictionary
281
     1
  3
A0
350
43
  3
A1
350
44
  3
A2
350
45
  3
A3
350
46
  3
A4
350
47
  3
A5
350
48
  3
A6
350
49
  3
A7
350
4A
  3
A8
350
4B
  3
A9
350
4C
  3
B0
350
4D
  3
B1
350
4E
  3
B2
350
4F
  3
B3
350
50
  3
B4
350
51
  3
B5
350
52
  3
B6
350
53
  0
DICTIONARY
  5
68
102
{ACAD_REACTORS
330
C
102
}
330
C
100
AcDbDictionary
281
     1
  3
Imperial24
350
69
  0
DICTIONARY
  5
64
102
{ACAD_REACTORS
330
C
102
}
330
C
100
AcDbDictionary
281
     1
  3
Standard
350
65
  0
DICTIONARY
  5
29
102
{ACAD_REACTORS
330
C
102
}
330
C
100
AcDbDictionary
281
     1
  3
2dWireframe
350
2F
  3
Basic
350
2E
  3
Brighten
350
35
  3
ColorChange
350
39
  3
Conceptual
350
32
  3
Dim
350
34
  3
EdgeColorOff
350
41
  3
Facepattern
350
38
  3
Flat
350
2A
  3
FlatWithEdges
350
2B
  3
Gouraud
350
2C
  3
GouraudWithEdges
350
2D
  3
Hidden
350
31
  3
JitterOff
350
3F
  3
Linepattern
350
37
  3
OverhangOff
350
40
  3
Realistic
350
33
  3
Shaded
350
3E
  3
Shaded with edges
350
3D
  3
Shades of Gray
350
3A
  3
Sketchy
350
3B
  3
Thicken
350
36
  3
Wireframe
350
30
  3
X-Ray
350
3C
  0
XRECORD
  5
86
102
{ACAD_REACTORS
330
C
102
}
330
C
100
AcDbXrecord
280
     1
 90
        1
330
65
  0
DICTIONARY
  5
7E
102
{ACAD_REACTORS
330
C
102
}
330
C
100
AcDbDictionary
281
     1
  3
CANNOSCALE
350
83
  3
CMLEADERSTYLE
350
80
  3
CTABLESTYLE
350
7F
  3
CVIEWDETAILSTYLE
350
81
  3
CVIEWSECTIONSTYLE
350
82
  0
ACDBDETAILVIEWSTYLE
  5
6B
102
{ACAD_XDICTIONARY
360
89
102
}
102
{ACAD_REACTORS
330
6A
102
}
330
6A
100
AcDbModelDocViewStyle
 70
     0
  3
Imperial24
290
     0
100
AcDbDetailViewStyle
 70
     0
 71
     0
 90
        3
 71
     1
340
55
 62
   256
 40
0.24
340
0
 62
   256
 40
0.24
300

 40
0.36
280
     3
 71
     2
340
5D
 90
       25
 62
   256
 71
     3
340
55
 62
   256
 40
0.24
 90
        1
 40
0.75
 90
        1
300
%<\AcVar ViewType \f "%tc1">% %<\AcVar ViewDetailId>%\PSCALE %<\AcVar ViewScale \f "%sn">%
 71
     4
340
5D
 90
       25
 62
   256
340
5D
 90
       25
 62
   256
280
     0
  0
LAYOUT
  5
6F
102
{ACAD_REACTORS
330
62
102
}
330
62
100
AcDbPlotSettings
  1

  2

  4

  6

 40
0.0
 41
0.0
 42
0.0
 43
0.0
 44
0.0
 45
0.0
 46
0.0
 47
0.0
 48
0.0
 49
0.0
140
0.0
141
0.0
142
1.0
143
1.0
 70
   688
 72
     0
 73
     0
 74
     5
  7

 75
    16
147
1.0
 76
     0
 77
     2
 78
   300
148
0.0
149
0.0
100
AcDbLayout
  1
Layout1
 70
     1
 71
     1
 10
0.0
 20
0.0
 11
12.0
 21
9.0
 12
0.0
 22
0.0
 32
0.0
 14
0.0
 24
0.0
 34
0.0
 15
0.0
 25
0.0
 35
0.0
146
0.0
 13
0.0
 23
0.0
 33
0.0
 16
1.0
 26
0.0
 36
0.0
 17
0.0
 27
1.0
 37
0.0
 76
     0
330
6C
  0
LAYOUT
  5
77
102
{ACAD_REACTORS
330
62
102
}
330
62
100
AcDbPlotSettings
  1

  2

  4

  6

 40
0.0
 41
0.0
 42
0.0
 43
0.0
 44
0.0
 45
0.0
 46
0.0
 47
0.0
 48
0.0
 49
0.0
140
0.0
141
0.0
142
1.0
143
1.0
 70
   688
 72
     0
 73
     0
 74
     5
  7

 75
    16
147
1.0
 76
     0
 77
     2
 78
   300
148
0.0
149
0.0
100
AcDbLayout
  1
Layout2
 70
     1
 71
     2
 10
0.0
 20
0.0
 11
12.0
 21
9.0
 12
0.0
 22
0.0
 32
0.0
 14
0.0
 24
0.0
 34
0.0
 15
0.0
 25
0.0
 35
0.0
146
0.0
 13
0.0
 23
0.0
 33
0.0
 16
1.0
 26
0.0
 36
0.0
 17
0.0
 27
1.0
 37
0.0
 76
     0
330
74
  0
LAYOUT
  5
73
102
{ACAD_REACTORS
330
62
102
}
330
62
100
AcDbPlotSettings
  1

  2

  4

  6

 40
0.0
 41
0.0
 42
0.0
 43
0.0
 44
0.0
 45
0.0
 46
0.0
 47
0.0
 48
0.0
 49
0.0
140
0.0
141
0.0
142
1.0
143
1.0
 70
  1712
 72
     0
 73
     0
 74
     0
  7

 75
     0
147
1.0
 76
     0
 77
     2
 78
   300
148
0.0
149
0.0
100
AcDbLayout
  1
Model
 70
     1
 71
     0
 10
0.0
 20
0.0
 11
12.0
 21
9.0
 12
0.0
 22
0.0
 32
0.0
 14
0.0
 24
0.0
 34
0.0
 15
0.0
 25
0.0
 35
0.0
146
0.0
 13
0.0
 23
0.0
 33
0.0
 16
1.0
 26
0.0
 36
0.0
 17
0.0
 27
1.0
 37
0.0
 76
     0
330
70
  0
MATERIAL
  5
19
102
{ACAD_XDICTIONARY
360
1A
102
}
102
{ACAD_REACTORS
330
10
102
}
330
10
100
AcDbMaterial
  1
ByBlock
 72
     0
 43
0.0208333333333333
 43
0.0
 43
0.0
 43
0.0
 43
0.0
 43
0.0208333333333333
 43
0.0
 43
0.0
 43
0.0
 43
0.0
 43
1.0
 43
0.0
 43
0.0
 43
0.0
 43
0.0
 43
1.0
 77
     0
 47
0.0208333333333333
 47
0.0
 47
0.0
 47
0.0
 47
0.0
 47
0.0208333333333333
 47
0.0
 47
0.0
 47
0.0
 47
0.0
 47
1.0
 47
0.0
 47
0.0
 47
0.0
 47
0.0
 47
1.0
171
     0
 49
0.0208333333333333
 49
0.0
 49
0.0
 49
0.0
 49
0.0
 49
0.0208333333333333
 49
0.0
 49
0.0
 49
0.0
 49
0.0
 49
1.0
 49
0.0
 49
0.0
 49
0.0
 49
0.0
 49
1.0
175
     0
142
0.0208333333333333
142
0.0
142
0.0
142
0.0
142
0.0
142
0.0208333333333333
142
0.0
142
0.0
142
0.0
142
0.0
142
1.0
142
0.0
142
0.0
142
0.0
142
0.0
142
1.0
179
     0
144
0.0208333333333333
144
0.0
144
0.0
144
0.0
144
0.0
144
0.0208333333333333
144
0.0
144
0.0
144
0.0
144
0.0
144
1.0
144
0.0
144
0.0
144
0.0
144
0.0
144
1.0
147
0.0208333333333333
147
0.0
147
0.0
147
0.0
147
0.0
147
0.0208333333333333
147
0.0
147
0.0
147
0.0
147
0.0
147
1.0
147
0.0
147
0.0
147
0.0
147
0.0
147
1.0
  0
MATERIAL
  5
11
102
{ACAD_XDICTIONARY
360
12
102
}
102
{ACAD_REACTORS
330
10
102
}
330
10
100
AcDbMaterial
  1
ByLayer
 72
     0
 43
0.0208333333333333
 43
0.0
 43
0.0
 43
0.0
 43
0.0
 43
0.0208333333333333
 43
0.0
 43
0.0
 43
0.0
 43
0.0
 43
1.0
 43
0.0
 43
0.0
 43
0.0
 43
0.0
 43
1.0
 77
     0
 47
0.0208333333333333
 47
0.0
 47
0.0
 47
0.0
 47
0.0
 47
0.0208333333333333
 47
0.0
 47
0.0
 47
0.0
 47
0.0
 47
1.0
 47
0.0
 47
0.0
 47
0.0
 47
0.0
 47
1.0
171
     0
 49
0.0208333333333333
 49
0.0
 49
0.0
 49
0.0
 49
0.0
 49
0.0208333333333333
 49
0.0
 49
0.0
 49
0.0
 49
0.0
 49
1.0
 49
0.0
 49
0.0
 49
0.0
 49
0.0
 49
1.0
175
     0
142
0.0208333333333333
142
0.0
142
0.0
142
0.0
142
0.0
142
0.0208333333333333
142
0.0
142
0.0
142
0.0
142
0.0
142
1.0
142
0.0
142
0.0
142
0.0
142
0.0
142
1.0
179
     0
144
0.0208333333333333
144
0.0
144
0.0
144
0.0
144
0.0
144
0.0208333333333333
144
0.0
144
0.0
144
0.0
144
0.0
144
1.0
144
0.0
144
0.0
144
0.0
144
0.0
144
1.0
147
0.0208333333333333
147
0.0
147
0.0
147
0.0
147
0.0
147
0.0208333333333333
147
0.0
147
0.0
147
0.0
147
0.0
147
1.0
147
0.0
147
0.0
147
0.0
147
0.0
147
1.0
  0
MATERIAL
  5
21
102
{ACAD_XDICTIONARY
360
22
102
}
102
{ACAD_REACTORS
330
10
102
}
330
10
100
AcDbMaterial
  1
Global
 72
     0
 43
0.0208333333333333
 43
0.0
 43
0.0
 43
0.0
 43
0.0
 43
0.0208333333333333
 43
0.0
 43
0.0
 43
0.0
 43
0.0
 43
1.0
 43
0.0
 43
0.0
 43
0.0
 43
0.0
 43
1.0
 77
     0
 47
0.0208333333333333
 47
0.0
 47
0.0
 47
0.0
 47
0.0
 47
0.0208333333333333
 47
0.0
 47
0.0
 47
0.0
 47
0.0
 47
1.0
 47
0.0
 47
0.0
 47
0.0
 47
0.0
 47
1.0
171
     0
 49
0.0208333333333333
 49
0.0
 49
0.0
 49
0.0
 49
0.0
 49
0.0208333333333333
 49
0.0
 49
0.0
 49
0.0
 49
0.0
 49
1.0
 49
0.0
 49
0.0
 49
0.0
 49
0.0
 49
1.0
175
     0
142
0.0208333333333333
142
0.0
142
0.0
142
0.0
142
0.0
142
0.0208333333333333
142
0.0
142
0.0
142
0.0
142
0.0
142
1.0
142
0.0
142
0.0
142
0.0
142
0.0
142
1.0
179
     0
144
0.0208333333333333
144
0.0
144
0.0
144
0.0
144
0.0
144
0.0208333333333333
144
0.0
144
0.0
144
0.0
144
0.0
144
1.0
144
0.0
144
0.0
144
0.0
144
0.0
144
1.0
147
0.0208333333333333
147
0.0
147
0.0
147
0.0
147
0.0
147
0.0208333333333333
147
0.0
147
0.0
147
0.0
147
0.0
147
1.0
147
0.0
147
0.0
147
0.0
147
0.0
147
1.0
  0
MLEADERSTYLE
  5
67
102
{ACAD_REACTORS
330
66
102
}
330
66
100
AcDbMLeaderStyle
179
     2
170
     2
171
     1
172
     0
 90
        2
 40
0.0
 41
0.0
173
     1
 91
-1056964608
340
5B
 92
       -2
290
     1
 42
0.09
291
     1
 43
0.36
  3
Standard
 44
0.18
300

342
55
174
     1
178
     6
175
     1
176
     0
 93
-1056964608
 45
0.18
292
     0
297
     0
 46
0.18
 94
-1056964608
 47
1.0
 49
1.0
140
1.0
293
     1
141
0.0
294
     1
177
     0
142
1.0
295
     0
296
     0
143
0.125
271
     0
272
     9
273
     9
298
     1
  0
MLINESTYLE
  5
60
102
{ACAD_REACTORS
330
5F
102
}
330
5F
100
AcDbMlineStyle
  2
STANDARD
 70
     0
  3

 62
   256
 51
90.0
 52
90.0
 71
     2
 49
0.5
 62
   256
  6
BYLAYER
 49
-0.5
 62
   256
  6
BYLAYER
  0
ACDBPLACEHOLDER
  5
F
102
{ACAD_REACTORS
330
E
102
}
330
E
  0
SCALE
  5
43
102
{ACAD_REACTORS
330
42
102
}
330
42
100
AcDbScale
 70
     0
300
1:1
140
1.0
141
1.0
290
     1
  0
SCALE
  5
44
102
{ACAD_REACTORS
330
42
102
}
330
42
100
AcDbScale
 70
     0
300
1/128" = 1'-0"
140
0.0078125
141
12.0
290
     0
  0
SCALE
  5
45
102
{ACAD_REACTORS
330
42
102
}
330
42
100
AcDbScale
 70
     0
300
1/64" = 1'-0"
140
0.015625
141
12.0
290
     0
  0
SCALE
  5
46
102
{ACAD_REACTORS
330
42
102
}
330
42
100
AcDbScale
 70
     0
300
1/32" = 1'-0"
140
0.03125
141
12.0
290
     0
  0
SCALE
  5
47
102
{ACAD_REACTORS
330
42
102
}
330
42
100
AcDbScale
 70
     0
300
1/16" = 1'-0"
140
0.0625
141
12.0
290
     0
  0
SCALE
  5
48
102
{ACAD_REACTORS
330
42
102
}
330
42
100
AcDbScale
 70
     0
300
3/32" = 1'-0"
140
0.09375
141
12.0
290
     0
  0
SCALE
  5
49
102
{ACAD_REACTORS
330
42
102
}
330
42
100
AcDbScale
 70
     0
300
1/8" = 1'-0"
140
0.125
141
12.0
290
     0
  0
SCALE
  5
4A
102
{ACAD_REACTORS
330
42
102
}
330
42
100
AcDbScale
 70
     0
300
3/16" = 1'-0"
140
0.1875
141
12.0
290
     0
  0
SCALE
  5
4B
102
{ACAD_REACTORS
330
42
102
}
330
42
100
AcDbScale
 70
     0
300
1/4" = 1'-0"
140
0.25
141
12.0
290
     0
  0
SCALE
  5
4C
102
{ACAD_REACTORS
330
42
102
}
330
42
100
AcDbScale
 70
     0
300
3/8" = 1'-0"
140
0.375
141
12.0
290
     0
  0
SCALE
  5
4D
102
{ACAD_REACTORS
330
42
102
}
330
42
100
AcDbScale
 70
     0
300
1/2" = 1'-0"
140
0.5
141
12.0
290
     0
  0
SCALE
  5
4E
102
{ACAD_REACTORS
330
42
102
}
330
42
100
AcDbScale
 70
     0
300
3/4" = 1'-0"
140
0.75
141
12.0
290
     0
  0
SCALE
  5
4F
102
{ACAD_REACTORS
330
42
102
}
330
42
100
AcDbScale
 70
     0
300
1" = 1'-0"
140
1.0
141
12.0
290
     0
  0
SCALE
  5
50
102
{ACAD_REACTORS
330
42
102
}
330
42
100
AcDbScale
 70
     0
300
1-1/2" = 1'-0"
140
1.5
141
12.0
290
     0
  0
SCALE
  5
51
102
{ACAD_REACTORS
330
42
102
}
330
42
100
AcDbScale
 70
     0
300
3" = 1'-0"
140
3.0
141
12.0
290
     0
  0
SCALE
  5
52
102
{ACAD_REACTORS
330
42
102
}
330
42
100
AcDbScale
 70
     0
300
6" = 1'-0"
140
6.0
141
12.0
290
     0
  0
SCALE
  5
53
102
{ACAD_REACTORS
330
42
102
}
330
42
100
AcDbScale
 70
     0
300
1'-0" = 1'-0"
140
12.0
141
12.0
290
     0
  0
ACDBSECTIONVIEWSTYLE
  5
69
102
{ACAD_XDICTIONARY
360
87
102
}
102
{ACAD_REACTORS
330
68
102
}
330
68
100
AcDbModelDocViewStyle
 70
     0
  3
Imperial24
290
     0
100
AcDbSectionViewStyle
 70
     0
 71
     0
 90
       78
 71
     1
340
55
 62
   256
 40
0.24
340
0
340
0
 62
   256
 40
0.24
300
I, O, Q, S, X, Z
 40
0.48
 90
        3
 40
0.18
 90
        1
 71
     2
340
5D
 90
       25
 62
   256
340
5D
 90
       50
 62
   256
 40
0.24
 40
0.0
 40
0.24
 71
     3
340
55
 62
   256
 40
0.24
 90
        1
 40
0.75
 90
        1
300
%<\AcVar ViewType \f "%tc1">% %<\AcVar ViewSectionStartId>%-%<\AcVar ViewSectionEndId>%\PSCALE %<\AcVar ViewScale \f "%sn">%
 71
     4
 62
   256
 62
   257
300
ANSI31
 40
1.0
 90
        0
290
     0
290
     0
 90
        6
 40
0.0
 40
1.570796326794896
 40
0.2617993877991494
 40
1.308996938995747
 40
-0.2617993877991494
 40
1.832595714594046
  0
TABLESTYLE
  5
65
102
{ACAD_XDICTIONARY
360
84
102
}
102
{ACAD_REACTORS
330
64
102
}
330
64
100
AcDbTableStyle
280
     0
  3
Standard
 70
     0
 71
     0
 40
0.06
 41
0.06
280
     0
281
     0
  7
Standard
140
0.18
170
     2
 62
     0
 63
     7
283
     0
 90
      512
 91
        0
  1

274
    -2
284
     1
 64
     0
275
    -2
285
     1
 65
     0
276
    -2
286
     1
 66
     0
277
    -2
287
     1
 67
     0
278
    -2
288
     1
 68
     0
279
    -2
289
     1
 69
     0
  7
Standard
140
0.25
170
     5
 62
     0
 63
     7
283
     0
 90
      512
 91
        0
  1

274
    -2
284
     1
 64
     0
275
    -2
285
     1
 65
     0
276
    -2
286
     1
 66
     0
277
    -2
287
     1
 67
     0
278
    -2
288
     1
 68
     0
279
    -2
289
     1
 69
     0
  7
Standard
140
0.18
170
     5
 62
     0
 63
     7
283
     0
 90
      512
 91
        0
  1

274
    -2
284
     1
 64
     0
275
    -2
285
     1
 65
     0
276
    -2
286
     1
 66
     0
277
    -2
287
     1
 67
     0
278
    -2
288
     1
 68
     0
279
    -2
289
     1
 69
     0
  0
VISUALSTYLE
  5
2F
102
{ACAD_REACTORS
330
29
102
}
330
29
100
AcDbVisualStyle
  2
2dWireframe
 70
     4
177
     3
291
     0
 70
    58
 90
        0
176
     1
 90
        2
176
     1
 90
        0
176
     1
 90
        0
176
     1
 40
0.6
176
     1
 40
30.0
176
     1
 62
     7
420
 16777215
176
     1
 90
        1
176
     1
 90
        4
176
     1
 62
     7
176
     1
 62
   257
176
     1
 90
        1
176
     1
 90
        1
176
     1
 40
1.0
176
     1
 90
        0
176
     1
 62
   257
176
     1
 40
1.0
176
     1
 90
        1
176
     1
 90
        6
176
     1
 90
        2
176
     1
 62
     7
176
     1
 90
        5
176
     1
 90
        0
176
     1
 90
        0
176
     1
290
     0
176
     1
 90
        1
176
     1
 40
0.0
176
     1
 90
        0
176
     1
290
     1
176
     1
290
     1
176
     1
290
     0
176
     1
290
     0
176
     1
290
     0
176
     1
290
     0
176
     1
290
     0
176
     1
290
     0
176
     1
290
     0
176
     1
 90
       50
176
     1
 40
0.0
176
     1
 40
1.0
176
     1
 90
        0
176
     1
 62
    18
420
        0
176
     1
 90
       50
176
     1
 90
        3
176
     1
 62
     5
420
      255
176
     1
290
     0
176
     1
 90
       50
176
     1
 90
       50
176
     1
 90
       50
176
     1
290
     0
176
     1
 90
       50
176
     1
 62
   256
176
     0
 40
1.0
176
     0
 90
        2
176
     1
  1
strokes_ogs.tif
176
     1
290
     0
176
     1
 40
1.0
176
     1
 40
1.0
176
     1
1001
ACAD
1000
AcDbSavedByObjectVersion
1070
     0
  0
VISUALSTYLE
  5
2E
102
{ACAD_REACTORS
330
29
102
}
330
29
100
AcDbVisualStyle
  2
Basic
 70
     7
177
     3
291
     1
 70
    58
 90
        1
176
     1
 90
        0
176
     1
 90
        1
176
     1
 90
        0
176
     1
 40
0.6
176
     1
 40
30.0
176
     1
 62
     7
420
 16777215
176
     1
 90
        0
176
     1
 90
        4
176
     1
 62
     7
176
     1
 62
   257
176
     1
 90
        1
176
     1
 90
        1
176
     1
 40
1.0
176
     1
 90
        8
176
     1
 62
     7
176
     1
 40
1.0
176
     1
 90
        1
176
     1
 90
        6
176
     1
 90
        2
176
     1
 62
     7
176
     1
 90
        5
176
     1
 90
        0
176
     1
 90
        0
176
     1
290
     0
176
     1
 90
        1
176
     1
 40
0.0
176
     1
 90
        0
176
     1
290
     0
176
     1
290
     1
176
     1
290
     1
176
     1
290
     0
176
     1
290
     0
176
     1
290
     0
176
     1
290
     0
176
     1
290
     0
176
     1
290
     0
176
     1
 90
       50
176
     1
 40
0.0
176
     1
 40
1.0
176
     1
 90
        0
176
     1
 62
    18
420
        0
176
     1
 90
       50
176
     1
 90
        3
176
     1
 62
     5
420
      255
176
     1
290
     0
176
     1
 90
       50
176
     1
 90
       50
176
     1
 90
       50
176
     1
290
     0
176
     1
 90
       50
176
     1
 62
   256
176
     0
 40
1.0
176
     0
 90
        2
176
     1
  1
strokes_ogs.tif
176
     1
290
     0
176
     1
 40
1.0
176
     1
 40
1.0
176
     1
1001
ACAD
1000
AcDbSavedByObjectVersion
1070
     0
  0
VISUALSTYLE
  5
35
102
{ACAD_REACTORS
330
29
102
}
330
29
100
AcDbVisualStyle
  2
Brighten
 70
    12
177
     3
291
     1
 70
    58
 90
        2
176
     1
 90
        2
176
     1
 90
        0
176
     1
 90
        0
176
     1
 40
0.6
176
     1
 40
30.0
176
     1
 62
     7
420
 16777215
176
     1
 90
        1
176
     1
 90
        4
176
     1
 62
     7
176
     1
 62
   257
176
     1
 90
        1
176
     1
 90
        1
176
     1
 40
1.0
176
     1
 90
        8
176
     1
 62
     7
176
     1
 40
1.0
176
     1
 90
        1
176
     1
 90
        6
176
     1
 90
        2
176
     1
 62
     7
176
     1
 90
        5
176
     1
 90
        0
176
     1
 90
        0
176
     1
290
     0
176
     1
 90
        1
176
     1
 40
50.0
176
     1
 90
        0
176
     1
290
     0
176
     1
290
     1
176
     1
290
     1
176
     1
290
     0
176
     1
290
     0
176
     1
290
     0
176
     1
290
     0
176
     1
290
     0
176
     1
290
     0
176
     1
 90
       50
176
     1
 40
0.0
176
     1
 40
1.0
176
     1
 90
        0
176
     1
 62
    18
420
        0
176
     1
 90
       50
176
     1
 90
        3
176
     1
 62
     5
420
      255
176
     1
290
     0
176
     1
 90
       50
176
     1
 90
       50
176
     1
 90
       50
176
     1
290
     0
176
     1
 90
       50
176
     1
 62
   256
176
     0
 40
1.0
176
     0
 90
        2
176
     1
  1
strokes_ogs.tif
176
     1
290
     0
176
     1
 40
1.0
176
     1
 40
1.0
176
     1
1001
ACAD
1000
AcDbSavedByObjectVersion
1070
     0
  0
VISUALSTYLE
  5
39
102
{ACAD_REACTORS
330
29
102
}
330
29
100
AcDbVisualStyle
  2
ColorChange
 70
    16
177
     3
291
     1
 70
    58
 90
        2
176
     1
 90
        2
176
     1
 90
        3
176
     1
 90
        0
176
     1
 40
0.6
176
     1
 40
30.0
176
     1
 62
     8
420
  8421504
176
     1
 90
        1
176
     1
 90
        4
176
     1
 62
     7
176
     1
 62
   257
176
     1
 90
        1
176
     1
 90
        1
176
     1
 40
1.0
176
     1
 90
        8
176
     1
 62
     8
420
  8421504
176
     1
 40
1.0
176
     1
 90
        1
176
     1
 90
        6
176
     1
 90
        2
176
     1
 62
     7
176
     1
 90
        5
176
     1
 90
        0
176
     1
 90
        0
176
     1
290
     0
176
     1
 90
        1
176
     1
 40
0.0
176
     1
 90
        0
176
     1
290
     0
176
     1
290
     1
176
     1
290
     1
176
     1
290
     0
176
     1
290
     0
176
     1
290
     0
176
     1
290
     0
176
     1
290
     0
176
     1
290
     0
176
     1
 90
       50
176
     1
 40
0.0
176
     1
 40
1.0
176
     1
 90
        0
176
     1
 62
    18
420
        0
176
     1
 90
       50
176
     1
 90
        3
176
     1
 62
     5
420
      255
176
     1
290
     0
176
     1
 90
       50
176
     1
 90
       50
176
     1
 90
       50
176
     1
290
     0
176
     1
 90
       50
176
     1
 62
   256
176
     0
 40
1.0
176
     0
 90
        2
176
     1
  1
strokes_ogs.tif
176
     1
290
     0
176
     1
 40
1.0
176
     1
 40
1.0
176
     1
1001
ACAD
1000
AcDbSavedByObjectVersion
1070
     0
  0
VISUALSTYLE
  5
32
102
{ACAD_REACTORS
330
29
102
}
330
29
100
AcDbVisualStyle
  2
Conceptual
 70
     9
177
     3
291
     0
 70
    58
 90
        3
176
     1
 90
        2
176
     1
 90
        0
176
     1
 90
        0
176
     1
 40
0.6
176
     1
 40
30.0
176
     1
 62
     7
420
 16777215
176
     1
 90
        2
176
     1
 90
        2
176
     1
 62
     7
176
     1
 62
   257
176
     1
 90
        1
176
     1
 90
        1
176
     1
 40
179.0
176
     1
 90
        8
176
     1
 62
     7
176
     1
 40
1.0
176
     1
 90
        1
176
     1
 90
        6
176
     1
 90
        2
176
     1
 62
     7
176
     1
 90
        3
176
     1
 90
        0
176
     1
 90
        0
176
     1
290
     0
176
     1
 90
        1
176
     1
 40
0.0
176
     1
 90
        0
176
     1
290
     0
176
     1
290
     1
176
     1
290
     1
176
     1
290
     0
176
     1
290
     0
176
     1
290
     0
176
     1
290
     0
176
     1
290
     0
176
     1
290
     0
176
     1
 90
       50
176
     1
 40
0.0
176
     1
 40
1.0
176
     1
 90
        0
176
     1
 62
    18
420
        0
176
     1
 90
       50
176
     1
 90
        3
176
     1
 62
     5
420
      255
176
     1
290
     0
176
     1
 90
       50
176
     1
 90
       50
176
     1
 90
       50
176
     1
290
     0
176
     1
 90
       50
176
     1
 62
   256
176
     0
 40
1.0
176
     0
 90
        2
176
     1
  1
strokes_ogs.tif
176
     1
290
     0
176
     1
 40
1.0
176
     1
 40
1.0
176
     1
1001
ACAD
1000
AcDbSavedByObjectVersion
1070
     0
  0
VISUALSTYLE
  5
34
102
{ACAD_REACTORS
330
29
102
}
330
29
100
AcDbVisualStyle
  2
Dim
 70
    11
177
     3
291
     1
 70
    58
 90
        2
176
     1
 90
        2
176
     1
 90
        0
176
     1
 90
        0
176
     1
 40
0.6
176
     1
 40
30.0
176
     1
 62
     7
420
 16777215
176
     1
 90
        1
176
     1
 90
        4
176
     1
 62
     7
176
     1
 62
   257
176
     1
 90
        1
176
     1
 90
        1
176
     1
 40
1.0
176
     1
 90
        8
176
     1
 62
     7
176
     1
 40
1.0
176
     1
 90
        1
176
     1
 90
        6
176
     1
 90
        2
176
     1
 62
     7
176
     1
 90
        5
176
     1
 90
        0
176
     1
 90
        0
176
     1
290
     0
176
     1
 90
        1
176
     1
 40
-50.0
176
     1
 90
        0
176
     1
290
     0
176
     1
290
     1
176
     1
290
     1
176
     1
290
     0
176
     1
290
     0
176
     1
290
     0
176
     1
290
     0
176
     1
290
     0
176
     1
290
     0
176
     1
 90
       50
176
     1
 40
0.0
176
     1
 40
1.0
176
     1
 90
        0
176
     1
 62
    18
420
        0
176
     1
 90
       50
176
     1
 90
        3
176
     1
 62
     5
420
      255
176
     1
290
     0
176
     1
 90
       50
176
     1
 90
       50
176
     1
 90
       50
176
     1
290
     0
176
     1
 90
       50
176
     1
 62
   256
176
     0
 40
1.0
176
     0
 90
        2
176
     1
  1
strokes_ogs.tif
176
     1
290
     0
176
     1
 40
1.0
176
     1
 40
1.0
176
     1
1001
ACAD
1000
AcDbSavedByObjectVersion
1070
     0
  0
VISUALSTYLE
  5
41
102
{ACAD_REACTORS
330
29
102
}
330
29
100
AcDbVisualStyle
  2
EdgeColorOff
 70
    22
177
     3
291
     1
 70
    58
 90
        2
176
     0
 90
        2
176
     0
 90
        0
176
     0
 90
        0
176
     0
 40
0.6
176
     0
 40
30.0
176
     0
 62
     7
420
 16777215
176
     0
 90
        1
176
     0
 90
        4
176
     0
 62
     7
176
     0
 62
   257
176
     0
 90
        1
176
     0
 90
        1
176
     0
 40
1.0
176
     0
 90
        8
176
     2
 62
     7
176
     0
 40
1.0
176
     0
 90
        1
176
     0
 90
        6
176
     0
 90
        2
176
     0
 62
     7
176
     0
 90
        5
176
     0
 90
        0
176
     0
 90
        0
176
     0
290
     0
176
     0
 90
        1
176
     0
 40
0.0
176
     0
 90
        0
176
     0
290
     0
176
     0
290
     1
176
     0
290
     1
176
     0
290
     0
176
     0
290
     0
176
     0
290
     0
176
     0
290
     0
176
     0
290
     0
176
     0
290
     0
176
     0
 90
       50
176
     0
 40
0.0
176
     0
 40
1.0
176
     0
 90
        0
176
     0
 62
    18
420
        0
176
     0
 90
       50
176
     0
 90
        3
176
     0
 62
     5
420
      255
176
     0
290
     0
176
     0
 90
       50
176
     0
 90
       50
176
     0
 90
       50
176
     0
290
     0
176
     0
 90
       50
176
     0
 62
   256
176
     0
 40
1.0
176
     0
 90
        2
176
     0
  1
strokes_ogs.tif
176
     0
290
     0
176
     0
 40
1.0
176
     0
 40
1.0
176
     0
1001
ACAD
1000
AcDbSavedByObjectVersion
1070
     0
  0
VISUALSTYLE
  5
38
102
{ACAD_REACTORS
330
29
102
}
330
29
100
AcDbVisualStyle
  2
Facepattern
 70
    15
177
     3
291
     1
 70
    58
 90
        2
176
     1
 90
        2
176
     1
 90
        0
176
     1
 90
        0
176
     1
 40
0.6
176
     1
 40
30.0
176
     1
 62
     7
420
 16777215
176
     1
 90
        1
176
     1
 90
        4
176
     1
 62
     7
176
     1
 62
   257
176
     1
 90
        1
176
     1
 90
        1
176
     1
 40
1.0
176
     1
 90
        8
176
     1
 62
     7
176
     1
 40
1.0
176
     1
 90
        1
176
     1
 90
        6
176
     1
 90
        2
176
     1
 62
     7
176
     1
 90
        5
176
     1
 90
        0
176
     1
 90
        0
176
     1
290
     0
176
     1
 90
        1
176
     1
 40
0.0
176
     1
 90
        0
176
     1
290
     0
176
     1
290
     1
176
     1
290
     1
176
     1
290
     0
176
     1
290
     0
176
     1
290
     0
176
     1
290
     0
176
     1
290
     0
176
     1
290
     0
176
     1
 90
       50
176
     1
 40
0.0
176
     1
 40
1.0
176
     1
 90
        0
176
     1
 62
    18
420
        0
176
     1
 90
       50
176
     1
 90
        3
176
     1
 62
     5
420
      255
176
     1
290
     0
176
     1
 90
       50
176
     1
 90
       50
176
     1
 90
       50
176
     1
290
     0
176
     1
 90
       50
176
     1
 62
   256
176
     0
 40
1.0
176
     0
 90
        2
176
     1
  1
strokes_ogs.tif
176
     1
290
     0
176
     1
 40
1.0
176
     1
 40
1.0
176
     1
1001
ACAD
1000
AcDbSavedByObjectVersion
1070
     0
  0
VISUALSTYLE
  5
2A
102
{ACAD_REACTORS
330
29
102
}
330
29
100
AcDbVisualStyle
  2
Flat
 70
     0
177
     3
291
     1
 70
    58
 90
        2
176
     1
 90
        1
176
     1
 90
        1
176
     1
 90
        2
176
     1
 40
0.6
176
     1
 40
30.0
176
     1
 62
     7
420
 16777215
176
     1
 90
        0
176
     1
 90
        0
176
     1
 62
     7
176
     1
 62
   257
176
     1
 90
        1
176
     1
 90
        1
176
     1
 40
1.0
176
     1
 90
        8
176
     1
 62
     7
176
     1
 40
1.0
176
     1
 90
        1
176
     1
 90
        6
176
     1
 90
        2
176
     1
 62
     7
176
     1
 90
        5
176
     1
 90
        0
176
     1
 90
        0
176
     1
290
     0
176
     1
 90
       13
176
     1
 40
0.0
176
     1
 90
        0
176
     1
290
     0
176
     1
290
     1
176
     1
290
     1
176
     1
290
     0
176
     1
290
     0
176
     1
290
     0
176
     1
290
     0
176
     1
290
     0
176
     1
290
     0
176
     1
 90
       50
176
     1
 40
0.0
176
     1
 40
1.0
176
     1
 90
        0
176
     1
 62
    18
420
        0
176
     1
 90
       50
176
     1
 90
        3
176
     1
 62
     5
420
      255
176
     1
290
     0
176
     1
 90
       50
176
     1
 90
       50
176
     1
 90
       50
176
     1
290
     0
176
     1
 90
       50
176
     1
 62
   256
176
     0
 40
1.0
176
     0
 90
        2
176
     1
  1
strokes_ogs.tif
176
     1
290
     0
176
     1
 40
1.0
176
     1
 40
1.0
176
     1
1001
ACAD
1000
AcDbSavedByObjectVersion
1070
     0
  0
VISUALSTYLE
  5
2B
102
{ACAD_REACTORS
330
29
102
}
330
29
100
AcDbVisualStyle
  2
FlatWithEdges
 70
     1
177
     3
291
     1
 70
    58
 90
        2
176
     1
 90
        1
176
     1
 90
        1
176
     1
 90
        2
176
     1
 40
0.6
176
     1
 40
30.0
176
     1
 62
     7
420
 16777215
176
     1
 90
        1
176
     1
 90
        0
176
     1
 62
     7
176
     1
 62
   257
176
     1
 90
        1
176
     1
 90
        1
176
     1
 40
1.0
176
     1
 90
        0
176
     1
 62
   257
176
     1
 40
1.0
176
     1
 90
        1
176
     1
 90
        6
176
     1
 90
        2
176
     1
 62
     7
176
     1
 90
        5
176
     1
 90
        0
176
     1
 90
        0
176
     1
290
     0
176
     1
 90
       13
176
     1
 40
0.0
176
     1
 90
        0
176
     1
290
     0
176
     1
290
     1
176
     1
290
     1
176
     1
290
     0
176
     1
290
     0
176
     1
290
     0
176
     1
290
     0
176
     1
290
     0
176
     1
290
     0
176
     1
 90
       50
176
     1
 40
0.0
176
     1
 40
1.0
176
     1
 90
        0
176
     1
 62
    18
420
        0
176
     1
 90
       50
176
     1
 90
        3
176
     1
 62
     5
420
      255
176
     1
290
     0
176
     1
 90
       50
176
     1
 90
       50
176
     1
 90
       50
176
     1
290
     0
176
     1
 90
       50
176
     1
 62
   256
176
     0
 40
1.0
176
     0
 90
        2
176
     1
  1
strokes_ogs.tif
176
     1
290
     0
176
     1
 40
1.0
176
     1
 40
1.0
176
     1
1001
ACAD
1000
AcDbSavedByObjectVersion
1070
     0
  0
VISUALSTYLE
  5
2C
102
{ACAD_REACTORS
330
29
102
}
330
29
100
AcDbVisualStyle
  2
Gouraud
 70
     2
177
     3
291
     1
 70
    58
 90
        2
176
     1
 90
        2
176
     1
 90
        1
176
     1
 90
        2
176
     1
 40
0.6
176
     1
 40
30.0
176
     1
 62
     7
420
 16777215
176
     1
 90
        0
176
     1
 90
        0
176
     1
 62
     7
176
     1
 62
   257
176
     1
 90
        1
176
     1
 90
        1
176
     1
 40
1.0
176
     1
 90
        0
176
     1
 62
     7
176
     1
 40
1.0
176
     1
 90
        1
176
     1
 90
        6
176
     1
 90
        2
176
     1
 62
     7
176
     1
 90
        5
176
     1
 90
        0
176
     1
 90
        0
176
     1
290
     0
176
     1
 90
       13
176
     1
 40
0.0
176
     1
 90
        0
176
     1
290
     0
176
     1
290
     1
176
     1
290
     1
176
     1
290
     0
176
     1
290
     0
176
     1
290
     0
176
     1
290
     0
176
     1
290
     0
176
     1
290
     0
176
     1
 90
       50
176
     1
 40
0.0
176
     1
 40
1.0
176
     1
 90
        0
176
     1
 62
    18
420
        0
176
     1
 90
       50
176
     1
 90
        3
176
     1
 62
     5
420
      255
176
     1
290
     0
176
     1
 90
       50
176
     1
 90
       50
176
     1
 90
       50
176
     1
290
     0
176
     1
 90
       50
176
     1
 62
   256
176
     0
 40
1.0
176
     0
 90
        2
176
     1
  1
strokes_ogs.tif
176
     1
290
     0
176
     1
 40
1.0
176
     1
 40
1.0
176
     1
1001
ACAD
1000
AcDbSavedByObjectVersion
1070
     0
  0
VISUALSTYLE
  5
2D
102
{ACAD_REACTORS
330
29
102
}
330
29
100
AcDbVisualStyle
  2
GouraudWithEdges
 70
     3
177
     3
291
     1
 70
    58
 90
        2
176
     1
 90
        2
176
     1
 90
        1
176
     1
 90
        2
176
     1
 40
0.6
176
     1
 40
30.0
176
     1
 62
     7
420
 16777215
176
     1
 90
        1
176
     1
 90
        0
176
     1
 62
     7
176
     1
 62
   257
176
     1
 90
        1
176
     1
 90
        1
176
     1
 40
1.0
176
     1
 90
        0
176
     1
 62
   257
176
     1
 40
1.0
176
     1
 90
        1
176
     1
 90
        6
176
     1
 90
        2
176
     1
 62
     7
176
     1
 90
        5
176
     1
 90
        0
176
     1
 90
        0
176
     1
290
     0
176
     1
 90
       13
176
     1
 40
0.0
176
     1
 90
        0
176
     1
290
     0
176
     1
290
     1
176
     1
290
     1
176
     1
290
     0
176
     1
290
     0
176
     1
290
     0
176
     1
290
     0
176
     1
290
     0
176
     1
290
     0
176
     1
 90
       50
176
     1
 40
0.0
176
     1
 40
1.0
176
     1
 90
        0
176
     1
 62
    18
420
        0
176
     1
 90
       50
176
     1
 90
        3
176
     1
 62
     5
420
      255
176
     1
290
     0
176
     1
 90
       50
176
     1
 90
       50
176
     1
 90
       50
176
     1
290
     0
176
     1
 90
       50
176
     1
 62
   256
176
     0
 40
1.0
176
     0
 90
        2
176
     1
  1
strokes_ogs.tif
176
     1
290
     0
176
     1
 40
1.0
176
     1
 40
1.0
176
     1
1001
ACAD
1000
AcDbSavedByObjectVersion
1070
     0
  0
VISUALSTYLE
  5
31
102
{ACAD_REACTORS
330
29
102
}
330
29
100
AcDbVisualStyle
  2
Hidden
 70
     6
177
     3
291
     0
 70
    58
 90
        1
176
     1
 90
        2
176
     1
 90
        2
176
     1
 90
        0
176
     1
 40
0.6
176
     1
 40
30.0
176
     1
 62
     7
420
 16777215
176
     1
 90
        2
176
     1
 90
        2
176
     1
 62
     7
176
     1
 62
   257
176
     1
 90
        2
176
     1
 90
        1
176
     1
 40
40.0
176
     1
 90
        0
176
     1
 62
   257
176
     1
 40
1.0
176
     1
 90
        1
176
     1
 90
        6
176
     1
 90
        2
176
     1
 62
     7
176
     1
 90
        3
176
     1
 90
        0
176
     1
 90
        0
176
     1
290
     0
176
     1
 90
        1
176
     1
 40
0.0
176
     1
 90
        0
176
     1
290
     0
176
     1
290
     1
176
     1
290
     1
176
     1
290
     0
176
     1
290
     0
176
     1
290
     0
176
     1
290
     0
176
     1
290
     0
176
     1
290
     0
176
     1
 90
       50
176
     1
 40
0.0
176
     1
 40
1.0
176
     1
 90
        0
176
     1
 62
    18
420
        0
176
     1
 90
       50
176
     1
 90
        3
176
     1
 62
     5
420
      255
176
     1
290
     0
176
     1
 90
       50
176
     1
 90
       50
176
     1
 90
       50
176
     1
290
     0
176
     1
 90
       50
176
     1
 62
   256
176
     0
 40
1.0
176
     0
 90
        2
176
     1
  1
strokes_ogs.tif
176
     1
290
     0
176
     1
 40
1.0
176
     1
 40
1.0
176
     1
1001
ACAD
1000
AcDbSavedByObjectVersion
1070
     0
  0
VISUALSTYLE
  5
3F
102
{ACAD_REACTORS
330
29
102
}
330
29
100
AcDbVisualStyle
  2
JitterOff
 70
    20
177
     3
291
     1
 70
    58
 90
        2
176
     0
 90
        2
176
     0
 90
        0
176
     0
 90
        0
176
     0
 40
0.6
176
     0
 40
30.0
176
     0
 62
     7
420
 16777215
176
     0
 90
        1
176
     0
 90
        4
176
     0
 62
     7
176
     0
 62
   257
176
     0
 90
        1
176
     0
 90
        1
176
     0
 40
1.0
176
     0
 90
       10
176
     2
 62
     7
176
     0
 40
1.0
176
     0
 90
        1
176
     0
 90
        6
176
     0
 90
        2
176
     0
 62
     7
176
     0
 90
        5
176
     0
 90
        0
176
     0
 90
        0
176
     0
290
     0
176
     0
 90
        1
176
     0
 40
0.0
176
     0
 90
        0
176
     0
290
     0
176
     0
290
     1
176
     0
290
     1
176
     0
290
     0
176
     0
290
     0
176
     0
290
     0
176
     0
290
     0
176
     0
290
     0
176
     0
290
     0
176
     0
 90
       50
176
     0
 40
0.0
176
     0
 40
1.0
176
     0
 90
        0
176
     0
 62
    18
420
        0
176
     0
 90
       50
176
     0
 90
        3
176
     0
 62
     5
420
      255
176
     0
290
     0
176
     0
 90
       50
176
     0
 90
       50
176
     0
 90
       50
176
     0
290
     0
176
     0
 90
       50
176
     0
 62
   256
176
     0
 40
1.0
176
     0
 90
        2
176
     0
  1
strokes_ogs.tif
176
     0
290
     0
176
     0
 40
1.0
176
     0
 40
1.0
176
     0
1001
ACAD
1000
AcDbSavedByObjectVersion
1070
     0
  0
VISUALSTYLE
  5
37
102
{ACAD_REACTORS
330
29
102
}
330
29
100
AcDbVisualStyle
  2
Linepattern
 70
    14
177
     3
291
     1
 70
    58
 90
        2
176
     1
 90
        2
176
     1
 90
        0
176
     1
 90
        0
176
     1
 40
0.6
176
     1
 40
30.0
176
     1
 62
     7
420
 16777215
176
     1
 90
        1
176
     1
 90
        4
176
     1
 62
     7
176
     1
 62
   257
176
     1
 90
        7
176
     1
 90
        7
176
     1
 40
1.0
176
     1
 90
        8
176
     1
 62
     7
176
     1
 40
1.0
176
     1
 90
        1
176
     1
 90
        6
176
     1
 90
        2
176
     1
 62
     7
176
     1
 90
        5
176
     1
 90
        0
176
     1
 90
        0
176
     1
290
     0
176
     1
 90
        1
176
     1
 40
0.0
176
     1
 90
        0
176
     1
290
     0
176
     1
290
     1
176
     1
290
     1
176
     1
290
     0
176
     1
290
     0
176
     1
290
     0
176
     1
290
     0
176
     1
290
     0
176
     1
290
     0
176
     1
 90
       50
176
     1
 40
0.0
176
     1
 40
1.0
176
     1
 90
        0
176
     1
 62
    18
420
        0
176
     1
 90
       50
176
     1
 90
        3
176
     1
 62
     5
420
      255
176
     1
290
     0
176
     1
 90
       50
176
     1
 90
       50
176
     1
 90
       50
176
     1
290
     0
176
     1
 90
       50
176
     1
 62
   256
176
     0
 40
1.0
176
     0
 90
        2
176
     1
  1
strokes_ogs.tif
176
     1
290
     0
176
     1
 40
1.0
176
     1
 40
1.0
176
     1
1001
ACAD
1000
AcDbSavedByObjectVersion
1070
     0
  0
VISUALSTYLE
  5
40
102
{ACAD_REACTORS
330
29
102
}
330
29
100
AcDbVisualStyle
  2
OverhangOff
 70
    21
177
     3
291
     1
 70
    58
 90
        2
176
     0
 90
        2
176
     0
 90
        0
176
     0
 90
        0
176
     0
 40
0.6
176
     0
 40
30.0
176
     0
 62
     7
420
 16777215
176
     0
 90
        1
176
     0
 90
        4
176
     0
 62
     7
176
     0
 62
   257
176
     0
 90
        1
176
     0
 90
        1
176
     0
 40
1.0
176
     0
 90
        9
176
     2
 62
     7
176
     0
 40
1.0
176
     0
 90
        1
176
     0
 90
        6
176
     0
 90
        2
176
     0
 62
     7
176
     0
 90
        5
176
     0
 90
        0
176
     0
 90
        0
176
     0
290
     0
176
     0
 90
        1
176
     0
 40
0.0
176
     0
 90
        0
176
     0
290
     0
176
     0
290
     1
176
     0
290
     1
176
     0
290
     0
176
     0
290
     0
176
     0
290
     0
176
     0
290
     0
176
     0
290
     0
176
     0
290
     0
176
     0
 90
       50
176
     0
 40
0.0
176
     0
 40
1.0
176
     0
 90
        0
176
     0
 62
    18
420
        0
176
     0
 90
       50
176
     0
 90
        3
176
     0
 62
     5
420
      255
176
     0
290
     0
176
     0
 90
       50
176
     0
 90
       50
176
     0
 90
       50
176
     0
290
     0
176
     0
 90
       50
176
     0
 62
   256
176
     0
 40
1.0
176
     0
 90
        2
176
     0
  1
strokes_ogs.tif
176
     0
290
     0
176
     0
 40
1.0
176
     0
 40
1.0
176
     0
1001
ACAD
1000
AcDbSavedByObjectVersion
1070
     0
  0
VISUALSTYLE
  5
33
102
{ACAD_REACTORS
330
29
102
}
330
29
100
AcDbVisualStyle
  2
Realistic
 70
     8
177
     3
291
     0
 70
    58
 90
        2
176
     1
 90
        3
176
     1
 90
        0
176
     1
 90
        2
176
     1
 40
0.6
176
     1
 40
30.0
176
     1
 62
     7
420
 16777215
176
     1
 90
        0
176
     1
 90
        0
176
     1
 62
     7
176
     1
 62
   257
176
     1
 90
        1
176
     1
 90
        1
176
     1
 40
1.0
176
     1
 90
        8
176
     1
 62
   257
176
     1
 40
1.0
176
     1
 90
        1
176
     1
 90
        6
176
     1
 90
        2
176
     1
 62
     7
176
     1
 90
        3
176
     1
 90
        0
176
     1
 90
        0
176
     1
290
     0
176
     1
 90
       13
176
     1
 40
0.0
176
     1
 90
        0
176
     1
290
     0
176
     1
290
     1
176
     1
290
     1
176
     1
290
     0
176
     1
290
     0
176
     1
290
     0
176
     1
290
     0
176
     1
290
     0
176
     1
290
     0
176
     1
 90
       50
176
     1
 40
0.0
176
     1
 40
1.0
176
     1
 90
        0
176
     1
 62
    18
420
        0
176
     1
 90
       50
176
     1
 90
        3
176
     1
 62
     5
420
      255
176
     1
290
     0
176
     1
 90
       50
176
     1
 90
       50
176
     1
 90
       50
176
     1
290
     0
176
     1
 90
       50
176
     1
 62
   256
176
     0
 40
1.0
176
     0
 90
        2
176
     1
  1
strokes_ogs.tif
176
     1
290
     0
176
     1
 40
1.0
176
     1
 40
1.0
176
     1
1001
ACAD
1000
AcDbSavedByObjectVersion
1070
     0
  0
VISUALSTYLE
  5
3E
102
{ACAD_REACTORS
330
29
102
}
330
29
100
AcDbVisualStyle
  2
Shaded
 70
    27
177
     3
291
     0
 70
    58
 90
        2
176
     1
 90
        2
176
     1
 90
        1
176
     1
 90
        2
176
     1
 40
0.6
176
     1
 40
30.0
176
     1
 62
     7
420
 16777215
176
     1
 90
        0
176
     1
 90
        4
176
     1
 62
     7
176
     1
 62
   257
176
     1
 90
        1
176
     1
 90
        1
176
     1
 40
1.0
176
     1
 90
        8
176
     1
 62
   257
176
     1
 40
1.0
176
     1
 90
        1
176
     1
 90
        6
176
     1
 90
        2
176
     1
 62
     8
420
  7895160
176
     1
 90
        3
176
     1
 90
        0
176
     1
 90
        0
176
     1
290
     0
176
     1
 90
        5
176
     1
 40
0.0
176
     1
 90
        0
176
     1
290
     0
176
     1
290
     1
176
     1
290
     1
176
     1
290
     0
176
     1
290
     0
176
     1
290
     0
176
     1
290
     0
176
     1
290
     0
176
     1
290
     0
176
     1
 90
       50
176
     1
 40
0.0
176
     1
 40
1.0
176
     1
 90
        0
176
     1
 62
    18
420
        0
176
     1
 90
       50
176
     1
 90
        3
176
     1
 62
     5
420
      255
176
     1
290
     0
176
     1
 90
       50
176
     1
 90
       50
176
     1
 90
       50
176
     1
290
     0
176
     1
 90
       50
176
     1
 62
   256
176
     0
 40
1.0
176
     0
 90
        2
176
     1
  1
strokes_ogs.tif
176
     1
290
     0
176
     1
 40
1.0
176
     1
 40
1.0
176
     1
1001
ACAD
1000
AcDbSavedByObjectVersion
1070
     0
  0
VISUALSTYLE
  5
3D
102
{ACAD_REACTORS
330
29
102
}
330
29
100
AcDbVisualStyle
  2
Shaded with edges
 70
    26
177
     3
291
     0
 70
    58
 90
        2
176
     1
 90
        2
176
     1
 90
        1
176
     1
 90
        2
176
     1
 40
0.6
176
     1
 40
30.0
176
     1
 62
     7
420
 16777215
176
     1
 90
        1
176
     1
 90
        2
176
     1
 62
     7
176
     1
 62
   257
176
     1
 90
        2
176
     1
 90
        1
176
     1
 40
1.0
176
     1
 90
        8
176
     1
 62
   257
176
     1
 40
1.0
176
     1
 90
        1
176
     1
 90
        6
176
     1
 90
        2
176
     1
 62
     7
176
     1
 90
        3
176
     1
 90
        0
176
     1
 90
        0
176
     1
290
     0
176
     1
 90
        5
176
     1
 40
0.0
176
     1
 90
        0
176
     1
290
     0
176
     1
290
     1
176
     1
290
     1
176
     1
290
     0
176
     1
290
     0
176
     1
290
     0
176
     1
290
     0
176
     1
290
     0
176
     1
290
     0
176
     1
 90
       50
176
     1
 40
0.0
176
     1
 40
1.0
176
     1
 90
        0
176
     1
 62
    18
420
        0
176
     1
 90
       50
176
     1
 90
        3
176
     1
 62
     5
420
      255
176
     1
290
     0
176
     1
 90
       50
176
     1
 90
       50
176
     1
 90
       50
176
     1
290
     0
176
     1
 90
       50
176
     1
 62
   256
176
     0
 40
1.0
176
     0
 90
        2
176
     1
  1
strokes_ogs.tif
176
     1
290
     0
176
     1
 40
1.0
176
     1
 40
1.0
176
     1
1001
ACAD
1000
AcDbSavedByObjectVersion
1070
     0
  0
VISUALSTYLE
  5
3A
102
{ACAD_REACTORS
330
29
102
}
330
29
100
AcDbVisualStyle
  2
Shades of Gray
 70
    23
177
     3
291
     0
 70
    58
 90
        2
176
     1
 90
        2
176
     1
 90
        3
176
     1
 90
        0
176
     1
 40
0.6
176
     1
 40
30.0
176
     1
 62
     7
420
 16777215
176
     1
 90
        2
176
     1
 90
        2
176
     1
 62
     7
176
     1
 62
     7
176
     1
 90
        1
176
     1
 90
        1
176
     1
 40
40.0
176
     1
 90
        8
176
     1
 62
     7
176
     1
 40
1.0
176
     1
 90
        1
176
     1
 90
        6
176
     1
 90
        2
176
     1
 62
     7
176
     1
 90
        3
176
     1
 90
        0
176
     1
 90
        0
176
     1
290
     0
176
     1
 90
        1
176
     1
 40
0.0
176
     1
 90
        0
176
     1
290
     0
176
     1
290
     1
176
     1
290
     1
176
     1
290
     0
176
     1
290
     0
176
     1
290
     0
176
     1
290
     0
176
     1
290
     0
176
     1
290
     0
176
     1
 90
       50
176
     1
 40
0.0
176
     1
 40
1.0
176
     1
 90
        0
176
     1
 62
    18
420
        0
176
     1
 90
       50
176
     1
 90
        3
176
     1
 62
     5
420
      255
176
     1
290
     0
176
     1
 90
       50
176
     1
 90
       50
176
     1
 90
       50
176
     1
290
     0
176
     1
 90
       50
176
     1
 62
   256
176
     0
 40
1.0
176
     0
 90
        2
176
     1
  1
strokes_ogs.tif
176
     1
290
     0
176
     1
 40
1.0
176
     1
 40
1.0
176
     1
1001
ACAD
1000
AcDbSavedByObjectVersion
1070
     0
  0
VISUALSTYLE
  5
3B
102
{ACAD_REACTORS
330
29
102
}
330
29
100
AcDbVisualStyle
  2
Sketchy
 70
    24
177
     3
291
     0
 70
    58
 90
        1
176
     1
 90
        2
176
     1
 90
        2
176
     1
 90
        0
176
     1
 40
0.6
176
     1
 40
30.0
176
     1
 62
     7
420
 16777215
176
     1
 90
        2
176
     1
 90
        2
176
     1
 62
     7
176
     1
 62
     7
176
     1
 90
        1
176
     1
 90
        1
176
     1
 40
40.0
176
     1
 90
       11
176
     1
 62
     7
176
     1
 40
1.0
176
     1
 90
        1
176
     1
 90
        6
176
     1
 90
        2
176
     1
 62
     7
176
     1
 90
        6
176
     1
 90
        0
176
     1
 90
        0
176
     1
290
     0
176
     1
 90
        1
176
     1
 40
0.0
176
     1
 90
        0
176
     1
290
     0
176
     1
290
     1
176
     1
290
     1
176
     1
290
     0
176
     1
290
     0
176
     1
290
     0
176
     1
290
     0
176
     1
290
     0
176
     1
290
     0
176
     1
 90
       50
176
     1
 40
0.0
176
     1
 40
1.0
176
     1
 90
        0
176
     1
 62
    18
420
        0
176
     1
 90
       50
176
     1
 90
        3
176
     1
 62
     5
420
      255
176
     1
290
     0
176
     1
 90
       50
176
     1
 90
       50
176
     1
 90
       50
176
     1
290
     0
176
     1
 90
       50
176
     1
 62
   256
176
     0
 40
1.0
176
     0
 90
        2
176
     1
  1
strokes_ogs.tif
176
     1
290
     0
176
     1
 40
1.0
176
     1
 40
1.0
176
     1
1001
ACAD
1000
AcDbSavedByObjectVersion
1070
     0
  0
VISUALSTYLE
  5
36
102
{ACAD_REACTORS
330
29
102
}
330
29
100
AcDbVisualStyle
  2
Thicken
 70
    13
177
     3
291
     1
 70
    58
 90
        2
176
     1
 90
        2
176
     1
 90
        0
176
     1
 90
        0
176
     1
 40
0.6
176
     1
 40
30.0
176
     1
 62
     7
420
 16777215
176
     1
 90
        1
176
     1
 90
        4
176
     1
 62
     7
176
     1
 62
   257
176
     1
 90
        1
176
     1
 90
        1
176
     1
 40
1.0
176
     1
 90
       12
176
     1
 62
     7
176
     1
 40
1.0
176
     1
 90
        1
176
     1
 90
        6
176
     1
 90
        2
176
     1
 62
     7
176
     1
 90
        5
176
     1
 90
        0
176
     1
 90
        0
176
     1
290
     0
176
     1
 90
        1
176
     1
 40
0.0
176
     1
 90
        0
176
     1
290
     0
176
     1
290
     1
176
     1
290
     1
176
     1
290
     0
176
     1
290
     0
176
     1
290
     0
176
     1
290
     0
176
     1
290
     0
176
     1
290
     0
176
     1
 90
       50
176
     1
 40
0.0
176
     1
 40
1.0
176
     1
 90
        0
176
     1
 62
    18
420
        0
176
     1
 90
       50
176
     1
 90
        3
176
     1
 62
     5
420
      255
176
     1
290
     0
176
     1
 90
       50
176
     1
 90
       50
176
     1
 90
       50
176
     1
290
     0
176
     1
 90
       50
176
     1
 62
   256
176
     0
 40
1.0
176
     0
 90
        2
176
     1
  1
strokes_ogs.tif
176
     1
290
     0
176
     1
 40
1.0
176
     1
 40
1.0
176
     1
1001
ACAD
1000
AcDbSavedByObjectVersion
1070
     0
  0
VISUALSTYLE
  5
30
102
{ACAD_REACTORS
330
29
102
}
330
29
100
AcDbVisualStyle
  2
Wireframe
 70
     5
177
     3
291
     0
 70
    58
 90
        0
176
     1
 90
        2
176
     1
 90
        0
176
     1
 90
        0
176
     1
 40
0.6
176
     1
 40
30.0
176
     1
 62
     7
420
 16777215
176
     1
 90
        1
176
     1
 90
        4
176
     1
 62
     7
176
     1
 62
   257
176
     1
 90
        1
176
     1
 90
        1
176
     1
 40
1.0
176
     1
 90
        0
176
     1
 62
   257
176
     1
 40
1.0
176
     1
 90
        1
176
     1
 90
        6
176
     1
 90
        2
176
     1
 62
     7
176
     1
 90
        3
176
     1
 90
        0
176
     1
 90
        0
176
     1
290
     0
176
     1
 90
        1
176
     1
 40
0.0
176
     1
 90
        0
176
     1
290
     0
176
     1
290
     1
176
     1
290
     1
176
     1
290
     0
176
     1
290
     0
176
     1
290
     0
176
     1
290
     0
176
     1
290
     0
176
     1
290
     0
176
     1
 90
       50
176
     1
 40
0.0
176
     1
 40
1.0
176
     1
 90
        0
176
     1
 62
    18
420
        0
176
     1
 90
       50
176
     1
 90
        3
176
     1
 62
     5
420
      255
176
     1
290
     0
176
     1
 90
       50
176
     1
 90
       50
176
     1
 90
       50
176
     1
290
     0
176
     1
 90
       50
176
     1
 62
   256
176
     0
 40
1.0
176
     0
 90
        2
176
     1
  1
strokes_ogs.tif
176
     1
290
     0
176
     1
 40
1.0
176
     1
 40
1.0
176
     1
1001
ACAD
1000
AcDbSavedByObjectVersion
1070
     0
  0
VISUALSTYLE
  5
3C
102
{ACAD_REACTORS
330
29
102
}
330
29
100
AcDbVisualStyle
  2
X-Ray
 70
    25
177
     3
291
     0
 70
    58
 90
        2
176
     1
 90
        2
176
     1
 90
        1
176
     1
 90
        1
176
     1
 40
0.5
176
     1
 40
30.0
176
     1
 62
     7
420
 16777215
176
     1
 90
        1
176
     1
 90
        0
176
     1
 62
     7
176
     1
 62
   257
176
     1
 90
        1
176
     1
 90
        1
176
     1
 40
1.0
176
     1
 90
        8
176
     1
 62
     7
176
     1
 40
1.0
176
     1
 90
        1
176
     1
 90
        6
176
     1
 90
        2
176
     1
 62
     7
176
     1
 90
        3
176
     1
 90
        0
176
     1
 90
        0
176
     1
290
     0
176
     1
 90
       13
176
     1
 40
0.0
176
     1
 90
        0
176
     1
290
     0
176
     1
290
     1
176
     1
290
     1
176
     1
290
     0
176
     1
290
     0
176
     1
290
     0
176
     1
290
     0
176
     1
290
     0
176
     1
290
     0
176
     1
 90
       50
176
     1
 40
0.0
176
     1
 40
1.0
176
     1
 90
        0
176
     1
 62
    18
420
        0
176
     1
 90
       50
176
     1
 90
        3
176
     1
 62
     5
420
      255
176
     1
290
     0
176
     1
 90
       50
176
     1
 90
       50
176
     1
 90
       50
176
     1
290
     0
176
     1
 90
       50
176
     1
 62
   256
176
     0
 40
1.0
176
     0
 90
        2
176
     1
  1
strokes_ogs.tif
176
     1
290
     0
176
     1
 40
1.0
176
     1
 40
1.0
176
     1
1001
ACAD
1000
AcDbSavedByObjectVersion
1070
     0
  0
DICTIONARYVAR
  5
83
102
{ACAD_REACTORS
330
7E
102
}
330
7E
100
DictionaryVariables
280
     0
  1
1:1
  0
DICTIONARYVAR
  5
80
102
{ACAD_REACTORS
330
7E
102
}
330
7E
100
DictionaryVariables
280
     0
  1
STANDARD
  0
DICTIONARYVAR
  5
7F
102
{ACAD_REACTORS
330
7E
102
}
330
7E
100
DictionaryVariables
280
     0
  1
STANDARD
  0
DICTIONARYVAR
  5
81
102
{ACAD_REACTORS
330
7E
102
}
330
7E
100
DictionaryVariables
280
     0
  1
Imperial24
  0
DICTIONARYVAR
  5
82
102
{ACAD_REACTORS
330
7E
102
}
330
7E
100
DictionaryVariables
280
     0
  1
Imperial24
  0
DICTIONARY
  5
89
330
6B
100
AcDbDictionary
280
     1
281
     1
  3
ACAD_XREC_ROUNDTRIP
360
8A
  0
DICTIONARY
  5
1A
330
19
100
AcDbDictionary
280
     1
281
     1
  3
BUMPTILE
360
1C
  3
DIFFUSETILE
360
1B
  3
OPACITYTILE
360
1F
  3
REFLECTIONTILE
360
1E
  3
REFRACTIONTILE
360
20
  3
SPECULARTILE
360
1D
  0
DICTIONARY
  5
12
330
11
100
AcDbDictionary
280
     1
281
     1
  3
BUMPTILE
360
14
  3
DIFFUSETILE
360
13
  3
OPACITYTILE
360
17
  3
REFLECTIONTILE
360
16
  3
REFRACTIONTILE
360
18
  3
SPECULARTILE
360
15
  0
DICTIONARY
  5
22
330
21
100
AcDbDictionary
280
     1
281
     1
  3
BUMPTILE
360
24
  3
DIFFUSETILE
360
23
  3
OPACITYTILE
360
27
  3
REFLECTIONTILE
360
26
  3
REFRACTIONTILE
360
28
  3
SPECULARTILE
360
25
  0
DICTIONARY
  5
87
330
69
100
AcDbDictionary
280
     1
281
     1
  3
ACAD_XREC_ROUNDTRIP
360
88
  0
DICTIONARY
  5
84
330
65
100
AcDbDictionary
280
     1
281
     1
  3
ACAD_ROUNDTRIP_2008_TABLESTYLE_CELLSTYLEMAP
360
85
  0
XRECORD
  5
8A
102
{ACAD_REACTORS
330
89
102
}
330
89
100
AcDbXrecord
280
     1
102
DISPLAYNAME
  1
Imperial24
102
FLAGS
 90
        0
  0
XRECORD
  5
1C
102
{ACAD_REACTORS
330
1A
102
}
330
1A
100
AcDbXrecord
280
     1
270
     1
271
     1
  0
XRECORD
  5
1B
102
{ACAD_REACTORS
330
1A
102
}
330
1A
100
AcDbXrecord
280
     1
270
     1
271
     1
  0
XRECORD
  5
1F
102
{ACAD_REACTORS
330
1A
102
}
330
1A
100
AcDbXrecord
280
     1
270
     1
271
     1
  0
XRECORD
  5
1E
102
{ACAD_REACTORS
330
1A
102
}
330
1A
100
AcDbXrecord
280
     1
270
     1
271
     1
  0
XRECORD
  5
20
102
{ACAD_REACTORS
330
1A
102
}
330
1A
100
AcDbXrecord
280
     1
270
     1
271
     1
  0
XRECORD
  5
1D
102
{ACAD_REACTORS
330
1A
102
}
330
1A
100
AcDbXrecord
280
     1
270
     1
271
     1
  0
XRECORD
  5
14
102
{ACAD_REACTORS
330
12
102
}
330
12
100
AcDbXrecord
280
     1
270
     1
271
     1
  0
XRECORD
  5
13
102
{ACAD_REACTORS
330
12
102
}
330
12
100
AcDbXrecord
280
     1
270
     1
271
     1
  0
XRECORD
  5
17
102
{ACAD_REACTORS
330
12
102
}
330
12
100
AcDbXrecord
280
     1
270
     1
271
     1
  0
XRECORD
  5
16
102
{ACAD_REACTORS
330
12
102
}
330
12
100
AcDbXrecord
280
     1
270
     1
271
     1
  0
XRECORD
  5
18
102
{ACAD_REACTORS
330
12
102
}
330
12
100
AcDbXrecord
280
     1
270
     1
271
     1
  0
XRECORD
  5
15
102
{ACAD_REACTORS
330
12
102
}
330
12
100
AcDbXrecord
280
     1
270
     1
271
     1
  0
XRECORD
  5
24
102
{ACAD_REACTORS
330
22
102
}
330
22
100
AcDbXrecord
280
     1
270
     1
271
     1
  0
XRECORD
  5
23
102
{ACAD_REACTORS
330
22
102
}
330
22
100
AcDbXrecord
280
     1
270
     1
271
     1
  0
XRECORD
  5
27
102
{ACAD_REACTORS
330
22
102
}
330
22
100
AcDbXrecord
280
     1
270
     1
271
     1
  0
XRECORD
  5
26
102
{ACAD_REACTORS
330
22
102
}
330
22
100
AcDbXrecord
280
     1
270
     1
271
     1
  0
XRECORD
  5
28
102
{ACAD_REACTORS
330
22
102
}
330
22
100
AcDbXrecord
280
     1
270
     1
271
     1
  0
XRECORD
  5
25
102
{ACAD_REACTORS
330
22
102
}
330
22
100
AcDbXrecord
280
     1
270
     1
271
     1
  0
XRECORD
  5
88
102
{ACAD_REACTORS
330
87
102
}
330
87
100
AcDbXrecord
280
     1
102
DISPLAYNAME
  1
Imperial24
102
FLAGS
 90
        0
  0
CELLSTYLEMAP
  5
85
102
{ACAD_REACTORS
330
84
102
}
330
84
100
AcDbCellStyleMap
 90
        3
300
CELLSTYLE
  1
TABLEFORMAT_BEGIN
 90
        5
170
     1
 91
        0
 92
    32768
 62
   257
 93
        1
300
CONTENTFORMAT
  1
CONTENTFORMAT_BEGIN
 90
        0
 91
        0
 92
      512
 93
        0
300

 40
0.0
140
1.0
 94
        5
 62
     0
340
55
144
0.25
309
CONTENTFORMAT_END
171
     0
 94
        0
309
TABLEFORMAT_END
  1
CELLSTYLE_BEGIN
 90
        1
 91
        1
300
_TITLE
309
CELLSTYLE_END
300
CELLSTYLE
  1
TABLEFORMAT_BEGIN
 90
        5
170
     1
 91
        0
 92
        0
 62
   257
 93
        1
300
CONTENTFORMAT
  1
CONTENTFORMAT_BEGIN
 90
        0
 91
        0
 92
      512
 93
        0
300

 40
0.0
140
1.0
 94
        5
 62
     0
340
55
144
0.18
309
CONTENTFORMAT_END
171
     0
 94
        0
309
TABLEFORMAT_END
  1
CELLSTYLE_BEGIN
 90
        2
 91
        1
300
_HEADER
309
CELLSTYLE_END
300
CELLSTYLE
  1
TABLEFORMAT_BEGIN
 90
        5
170
     1
 91
        0
 92
        0
 62
   257
 93
        1
300
CONTENTFORMAT
  1
CONTENTFORMAT_BEGIN
 90
        0
 91
        0
 92
      512
 93
        0
300

 40
0.0
140
1.0
 94
        2
 62
     0
340
55
144
0.18
309
CONTENTFORMAT_END
171
     0
 94
        0
309
TABLEFORMAT_END
  1
CELLSTYLE_BEGIN
 90
        3
 91
        2
300
_DATA
309
CELLSTYLE_END
  0
ENDSEC
  0
EOF
