  0
SECTION
  2
HEADER
  9
$ACADVER
  1
AC1027
  9
$ACADMAINTVER
 70
   125
  9
$DWGCODEPAGE
  3
ANSI_1252
  9
$REQUIREDVERSIONS
160
                 0
  9
$INSBASE
 10
0.0
 20
0.0
 30
0.0
  9
$EXTMIN
 10
1.000000000000000E+20
 20
1.000000000000000E+20
 30
1.000000000000000E+20
  9
$EXTMAX
 10
-1.000000000000000E+20
 20
-1.000000000000000E+20
 30
-1.000000000000000E+20
  9
$LIMMIN
 10
0.0
 20
0.0
  9
$LIMMAX
 10
12.0
 20
9.0
  9
$ORTHOMODE
 70
     0
  9
$REGENMODE
 70
     1
  9
$FILLMODE
 70
     1
  9
$QTEXTMODE
 70
     0
  9
$MIRRTEXT
 70
     0
  9
$LTSCALE
 40
1.0
  9
$ATTMODE
 70
     1
  9
$TEXTSIZE
 40
0.2
  9
$TRACEWID
 40
0.05
  9
$TEXTSTYLE
  7
Standard
  9
$CLAYER
  8
0
  9
$CELTYPE
  6
ByLayer
  9
$CECOLOR
 62
   256
  9
$CELTSCALE
 40
1.0
  9
$DISPSILH
 70
     0
  9
$DIMSCALE
 40
1.0
  9
$DIMASZ
 40
0.18
  9
$DIMEXO
 40
0.0625
  9
$DIMDLI
 40
0.38
  9
$DIMRND
 40
0.0
  9
$DIMDLE
 40
0.0
  9
$DIMEXE
 40
0.18
  9
$DIMTP
 40
0.0
  9
$DIMTM
 40
0.0
  9
$DIMTXT
 40
0.18
  9
$DIMCEN
 40
0.09
  9
$DIMTSZ
 40
0.0
  9
$DIMTOL
 70
     0
  9
$DIMLIM
 70
     0
  9
$DIMTIH
 70
     1
  9
$DIMTOH
 70
     1
  9
$DIMSE1
 70
     0
  9
$DIMSE2
 70
     0
  9
$DIMTAD
 70
     0
  9
$DIMZIN
 70
     0
  9
$DIMBLK
  1

  9
$DIMASO
 70
     1
  9
$DIMSHO
 70
     1
  9
$DIMPOST
  1

  9
$DIMAPOST
  1

  9
$DIMALT
 70
     0
  9
$DIMALTD
 70
     2
  9
$DIMALTF
 40
25.4
  9
$DIMLFAC
 40
1.0
  9
$DIMTOFL
 70
     0
  9
$DIMTVP
 40
0.0
  9
$DIMTIX
 70
     0
  9
$DIMSOXD
 70
     0
  9
$DIMSAH
 70
     0
  9
$DIMBLK1
  1

  9
$DIMBLK2
  1

  9
$DIMSTYLE
  2
Standard
  9
$DIMCLRD
 70
     0
  9
$DIMCLRE
 70
     0
  9
$DIMCLRT
 70
     0
  9
$DIMTFAC
 40
1.0
  9
$DIMGAP
 40
0.09
  9
$DIMJUST
 70
     0
  9
$DIMSD1
 70
     0
  9
$DIMSD2
 70
     0
  9
$DIMTOLJ
 70
     1
  9
$DIMTZIN
 70
     0
  9
$DIMALTZ
 70
     0
  9
$DIMALTTZ
 70
     0
  9
$DIMUPT
 70
     0
  9
$DIMDEC
 70
     4
  9
$DIMTDEC
 70
     4
  9
$DIMALTU
 70
     2
  9
$DIMALTTD
 70
     2
  9
$DIMTXSTY
  7
Standard
  9
$DIMAUNIT
 70
     0
  9
$DIMADEC
 70
     0
  9
$DIMALTRND
 40
0.0
  9
$DIMAZIN
 70
     0
  9
$DIMDSEP
 70
    46
  9
$DIMATFIT
 70
     3
  9
$DIMFRAC
 70
     0
  9
$DIMLDRBLK
  1

  9
$DIMLUNIT
 70
     2
  9
$DIMLWD
 70
    -2
  9
$DIMLWE
 70
    -2
  9
$DIMTMOVE
 70
     0
  9
$DIMFXL
 40
1.0
  9
$DIMFXLON
 70
     0
  9
$DIMJOGANG
 40
0.7853981633974483
  9
$DIMTFILL
 70
     0
  9
$DIMTFILLCLR
 70
     0
  9
$DIMARCSYM
 70
     0
  9
$DIMLTYPE
  6

  9
$DIMLTEX1
  6

  9
$DIMLTEX2
  6

  9
$DIMTXTDIRECTION
 70
     0
  9
$LUNITS
 70
     2
  9
$LUPREC
 70
     4
  9
$SKETCHINC
 40
0.1
  9
$FILLETRAD
 40
0.0
  9
$AUNITS
 70
     0
  9
$AUPREC
 70
     0
  9
$MENU
  1
.
  9
$ELEVATION
 40
0.0
  9
$PELEVATION
 40
0.0
  9
$THICKNESS
 40
0.0
  9
$LIMCHECK
 70
     0
  9
$CHAMFERA
 40
0.0
  9
$CHAMFERB
 40
0.0
  9
$CHAMFERC
 40
0.0
  9
$CHAMFERD
 40
0.0
  9
$SKPOLY
 70
     0
  9
$TDCREATE
 40
2459734.970231481
  9
$TDUCREATE
 40
2459734.553564815
  9
$TDUPDATE
 40
2459734.970231481
  9
$TDUUPDATE
 40
2459734.553564815
  9
$TDINDWG
 40
0.0000000000
  9
$TDUSRTIMER
 40
0.0000000000
  9
$USRTIMER
 70
     1
  9
$ANGBASE
 50
0.0
  9
$ANGDIR
 70
     0
  9
$PDMODE
 70
     0
  9
$PDSIZE
 40
0.0
  9
$PLINEWID
 40
0.0
  9
$SPLFRAME
 70
     0
  9
$SPLINETYPE
 70
     6
  9
$SPLINESEGS
 70
     8
  9
$HANDSEED
  5
97
  9
$SURFTAB1
 70
     6
  9
$SURFTAB2
 70
     6
  9
$SURFTYPE
 70
     6
  9
$SURFU
 70
     6
  9
$SURFV
 70
     6
  9
$UCSBASE
  2

  9
$UCSNAME
  2

  9
$UCSORG
 10
0.0
 20
0.0
 30
0.0
  9
$UCSXDIR
 10
1.0
 20
0.0
 30
0.0
  9
$UCSYDIR
 10
0.0
 20
1.0
 30
0.0
  9
$UCSORTHOREF
  2

  9
$UCSORTHOVIEW
 70
     0
  9
$UCSORGTOP
 10
0.0
 20
0.0
 30
0.0
  9
$UCSORGBOTTOM
 10
0.0
 20
0.0
 30
0.0
  9
$UCSORGLEFT
 10
0.0
 20
0.0
 30
0.0
  9
$UCSORGRIGHT
 10
0.0
 20
0.0
 30
0.0
  9
$UCSORGFRONT
 10
0.0
 20
0.0
 30
0.0
  9
$UCSORGBACK
 10
0.0
 20
0.0
 30
0.0
  9
$PUCSBASE
  2

  9
$PUCSNAME
  2

  9
$PUCSORG
 10
0.0
 20
0.0
 30
0.0
  9
$PUCSXDIR
 10
1.0
 20
0.0
 30
0.0
  9
$PUCSYDIR
 10
0.0
 20
1.0
 30
0.0
  9
$PUCSORTHOREF
  2

  9
$PUCSORTHOVIEW
 70
     0
  9
$PUCSORGTOP
 10
0.0
 20
0.0
 30
0.0
  9
$PUCSORGBOTTOM
 10
0.0
 20
0.0
 30
0.0
  9
$PUCSORGLEFT
 10
0.0
 20
0.0
 30
0.0
  9
$PUCSORGRIGHT
 10
0.0
 20
0.0
 30
0.0
  9
$PUCSORGFRONT
 10
0.0
 20
0.0
 30
0.0
  9
$PUCSORGBACK
 10
0.0
 20
0.0
 30
0.0
  9
$USERI1
 70
     0
  9
$USERI2
 70
     0
  9
$USERI3
 70
     0
  9
$USERI4
 70
     0
  9
$USERI5
 70
     0
  9
$USERR1
 40
0.0
  9
$USERR2
 40
0.0
  9
$USERR3
 40
0.0
  9
$USERR4
 40
0.0
  9
$USERR5
 40
0.0
  9
$WORLDVIEW
 70
     1
  9
$SHADEDGE
 70
     3
  9
$SHADEDIF
 70
    70
  9
$TILEMODE
 70
     1
  9
$MAXACTVP
 70
    64
  9
$PINSBASE
 10
0.0
 20
0.0
 30
0.0
  9
$PLIMCHECK
 70
     0
  9
$PEXTMIN
 10
1.000000000000000E+20
 20
1.000000000000000E+20
 30
1.000000000000000E+20
  9
$PEXTMAX
 10
-1.000000000000000E+20
 20
-1.000000000000000E+20
 30
-1.000000000000000E+20
  9
$PLIMMIN
 10
0.0
 20
0.0
  9
$PLIMMAX
 10
12.0
 20
9.0
  9
$UNITMODE
 70
     0
  9
$VISRETAIN
 70
     1
  9
$PLINEGEN
 70
     0
  9
$PSLTSCALE
 70
     1
  9
$TREEDEPTH
 70
  3020
  9
$CMLSTYLE
  2
Standard
  9
$CMLJUST
 70
     0
  9
$CMLSCALE
 40
1.0
  9
$PROXYGRAPHICS
 70
     1
  9
$MEASUREMENT
 70
     0
  9
$CELWEIGHT
370
    -1
  9
$ENDCAPS
280
     0
  9
$JOINSTYLE
280
     0
  9
$LWDISPLAY
290
     1
  9
$INSUNITS
 70
     4
  9
$HYPERLINKBASE
  1

  9
$STYLESHEET
  1

  9
$XEDIT
290
     1
  9
$CEPSNTYPE
380
     0
  9
$PSTYLEMODE
290
     1
  9
$FINGERPRINTGUID
  2
{3FAD2F98-D1BF-8247-ABFD-626CC285562C}
  9
$VERSIONGUID
  2
{C1B5AC84-6BC4-4545-81AC-E9FAC7262BFA}
  9
$EXTNAMES
290
     1
  9
$PSVPSCALE
 40
0.0
  9
$OLESTARTUP
290
     0
  9
$SORTENTS
280
   127
  9
$INDEXCTL
280
     0
  9
$HIDETEXT
280
     1
  9
$XCLIPFRAME
280
     2
  9
$HALOGAP
280
     0
  9
$OBSCOLOR
 70
   257
  9
$OBSLTYPE
280
     0
  9
$INTERSECTIONDISPLAY
280
     0
  9
$INTERSECTIONCOLOR
 70
   257
  9
$DIMASSOC
280
     2
  9
$PROJECTNAME
  1

  9
$CAMERADISPLAY
290
     0
  9
$LENSLENGTH
 40
50.0
  9
$CAMERAHEIGHT
 40
0.0
  9
$STEPSPERSEC
 40
2.0
  9
$STEPSIZE
 40
6.0
  9
$3DDWFPREC
 40
2.0
  9
$PSOLWIDTH
 40
0.25
  9
$PSOLHEIGHT
 40
4.0
  9
$LOFTANG1
 40
1.570796326794896
  9
$LOFTANG2
 40
1.570796326794896
  9
$LOFTMAG1
 40
0.0
  9
$LOFTMAG2
 40
0.0
  9
$LOFTPARAM
 70
     7
  9
$LOFTNORMALS
280
     1
  9
$LATITUDE
 40
37.795
  9
$LONGITUDE
 40
-122.394
  9
$NORTHDIRECTION
 40
0.0
  9
$TIMEZONE
 70
 -8000
  9
$LIGHTGLYPHDISPLAY
280
     1
  9
$TILEMODELIGHTSYNCH
280
     1
  9
$CMATERIAL
347
11
  9
$SOLIDHIST
280
     0
  9
$SHOWHIST
280
     1
  9
$DWFFRAME
280
     2
  9
$DGNFRAME
280
     0
  9
$REALWORLDSCALE
290
     1
  9
$INTERFERECOLOR
 62
     1
  9
$INTERFEREOBJVS
345
33
  9
$INTERFEREVPVS
346
30
  9
$CSHADOW
280
     0
  9
$SHADOWPLANELOCATION
 40
0.0
  0
ENDSEC
  0
SECTION
  2
CLASSES
  0
CLASS
  1
ACDBDICTIONARYWDFLT
  2
AcDbDictionaryWithDefault
  3
ObjectDBX Classes
 90
        0
 91
        1
280
     0
281
     0
  0
CLASS
  1
MATERIAL
  2
AcDbMaterial
  3
ObjectDBX Classes
 90
     1153
 91
        3
280
     0
281
     0
  0
CLASS
  1
VISUALSTYLE
  2
AcDbVisualStyle
  3
ObjectDBX Classes
 90
     4095
 91
       24
280
     0
281
     0
  0
CLASS
  1
SCALE
  2
AcDbScale
  3
ObjectDBX Classes
 90
     1153
 91
       17
280
     0
281
     0
  0
CLASS
  1
TABLESTYLE
  2
AcDbTableStyle
  3
ObjectDBX Classes
 90
     4095
 91
        1
280
     0
281
     0
  0
CLASS
  1
MLEADERSTYLE
  2
AcDbMLeaderStyle
  3
ACDB_MLEADERSTYLE_CLASS
 90
     4095
 91
        1
280
     0
281
     0
  0
CLASS
  1
ACDBSECTIONVIEWSTYLE
  2
AcDbSectionViewStyle
  3
ObjectDBX Classes
 90
     1025
 91
        1
280
     0
281
     0
  0
CLASS
  1
ACDBDETAILVIEWSTYLE
  2
AcDbDetailViewStyle
  3
ObjectDBX Classes
 90
     1025
 91
        1
280
     0
281
     0
  0
CLASS
  1
DICTIONARYVAR
  2
AcDbDictionaryVar
  3
ObjectDBX Classes
 90
        0
 91
        5
280
     0
281
     0
  0
CLASS
  1
CELLSTYLEMAP
  2
AcDbCellStyleMap
  3
ObjectDBX Classes
 90
     1152
 91
        1
280
     0
281
     0
  0
ENDSEC
  0
SECTION
  2
TABLES
  0
TABLE
  2
VPORT
  5
8
330
0
100
AcDbSymbolTable
 70
     1
1001
ACAD
1000
DbSaveVer
1071
      247
  0
VPORT
  5
57
330
8
100
AcDbSymbolTableRecord
100
AcDbViewportTableRecord
  2
*Active
 70
     0
 10
0.0
 20
0.0
 11
1.0
 21
1.0
 12
0.0
 22
0.0
 13
0.0
 23
0.0
 14
1.0
 24
1.0
 15
0.0
 25
0.0
 16
0.0
 26
0.0
 36
1.0
 17
-111.9583333053439
 27
3.302777776952218
 37
0.0
 40
214.1999999464498
 41
0.9999999999999998
 42
50.0
 43
0.0
 44
0.0
 50
0.0
 51
0.0
 71
     0
 72
   100
 73
     1
 74
     1
 75
     0
 76
     0
 77
     0
 78
     0
281
     0
 65
     1
110
0.0
120
0.0
130
0.0
111
1.0
121
0.0
131
0.0
112
0.0
122
1.0
132
0.0
 79
     0
146
0.0
 60
     3
 61
     5
292
     1
282
     1
141
0.0
142
0.0
 63
   250
421
  3355443
  0
ENDTAB
  0
TABLE
  2
LTYPE
  5
5
330
0
100
AcDbSymbolTable
 70
     1
  0
LTYPE
  5
5B
330
5
100
AcDbSymbolTableRecord
100
AcDbLinetypeTableRecord
  2
ByBlock
 70
     0
  3

 72
    65
 73
     0
 40
0.0
  0
LTYPE
  5
5C
330
5
100
AcDbSymbolTableRecord
100
AcDbLinetypeTableRecord
  2
ByLayer
 70
     0
  3

 72
    65
 73
     0
 40
0.0
  0
LTYPE
  5
5D
330
5
100
AcDbSymbolTableRecord
100
AcDbLinetypeTableRecord
  2
Continuous
 70
     0
  3
Solid line
 72
    65
 73
     0
 40
0.0
  0
ENDTAB
  0
TABLE
  2
LAYER
  5
2
330
0
100
AcDbSymbolTable
 70
     2
  0
LAYER
  5
54
330
2
100
AcDbSymbolTableRecord
100
AcDbLayerTableRecord
  2
0
 70
     0
 62
     7
  6
Continuous
370
    -3
390
F
347
21
348
0
  0
LAYER
  5
78
330
2
100
AcDbSymbolTableRecord
100
AcDbLayerTableRecord
  2
Layer 1
 70
     0
 62
     7
  6
Continuous
370
     0
390
F
347
21
348
0
  0
ENDTAB
  0
TABLE
  2
STYLE
  5
3
330
0
100
AcDbSymbolTable
 70
     2
  0
STYLE
  5
55
330
3
100
AcDbSymbolTableRecord
100
AcDbTextStyleTableRecord
  2
Standard
 70
     0
 40
0.0
 41
1.0
 50
0.0
 71
     0
 42
0.2
  3
txt
  4

  0
STYLE
  5
5A
330
3
100
AcDbSymbolTableRecord
100
AcDbTextStyleTableRecord
  2
Annotative
 70
     0
 40
0.0
 41
1.0
 50
0.0
 71
     0
 42
0.2
  3
txt
  4

1001
AcadAnnotative
1000
AnnotativeData
1002
{
1070
     1
1070
     1
1002
}
  0
ENDTAB
  0
TABLE
  2
VIEW
  5
6
330
0
100
AcDbSymbolTable
 70
     0
  0
ENDTAB
  0
TABLE
  2
UCS
  5
7
330
0
100
AcDbSymbolTable
 70
     0
  0
ENDTAB
  0
TABLE
  2
APPID
  5
9
330
0
100
AcDbSymbolTable
 70
     2
  0
APPID
  5
56
330
9
100
AcDbSymbolTableRecord
100
AcDbRegAppTableRecord
  2
ACAD
 70
     0
  0
APPID
  5
5E
330
9
100
AcDbSymbolTableRecord
100
AcDbRegAppTableRecord
  2
AcadAnnotative
 70
     0
  0
ENDTAB
  0
TABLE
  2
DIMSTYLE
  5
A
330
0
100
AcDbSymbolTable
 70
     2
100
AcDbDimStyleTable
 71
     0
  0
DIMSTYLE
105
58
330
A
100
AcDbSymbolTableRecord
100
AcDbDimStyleTableRecord
  2
Standard
 70
     0
340
55
  0
DIMSTYLE
105
59
330
A
100
AcDbSymbolTableRecord
100
AcDbDimStyleTableRecord
  2
Annotative
 70
     0
340
55
1001
AcadAnnotative
1000
AnnotativeData
1002
{
1070
     1
1070
     1
1002
}
  0
ENDTAB
  0
TABLE
  2
BLOCK_RECORD
  5
1
330
0
100
AcDbSymbolTable
 70
     2
  0
BLOCK_RECORD
  5
70
330
1
100
AcDbSymbolTableRecord
100
AcDbBlockTableRecord
  2
*Model_Space
340
73
 70
     0
280
     1
281
     0
  0
BLOCK_RECORD
  5
6C
330
1
100
AcDbSymbolTableRecord
100
AcDbBlockTableRecord
  2
*Paper_Space
340
6F
 70
     0
280
     1
281
     0
  0
BLOCK_RECORD
  5
74
330
1
100
AcDbSymbolTableRecord
100
AcDbBlockTableRecord
  2
*Paper_Space0
340
77
 70
     0
280
     1
281
     0
  0
BLOCK_RECORD
  5
79
330
1
100
AcDbSymbolTableRecord
100
AcDbBlockTableRecord
  2
Block_0
340
0
102
{BLKREFS
331
7A
102
}
 70
     0
280
     1
281
     0
  0
ENDTAB
  0
ENDSEC
  0
SECTION
  2
BLOCKS
  0
BLOCK
  5
71
330
70
100
AcDbEntity
  8
0
100
AcDbBlockBegin
  2
*Model_Space
 70
     0
 10
0.0
 20
0.0
 30
0.0
  3
*Model_Space
  1

  0
ENDBLK
  5
72
330
70
100
AcDbEntity
  8
0
100
AcDbBlockEnd
  0
BLOCK
  5
6D
330
6C
100
AcDbEntity
 67
     1
  8
0
100
AcDbBlockBegin
  2
*Paper_Space
 70
     0
 10
0.0
 20
0.0
 30
0.0
  3
*Paper_Space
  1

  0
ENDBLK
  5
6E
330
6C
100
AcDbEntity
 67
     1
  8
0
100
AcDbBlockEnd
  0
BLOCK
  5
75
330
74
100
AcDbEntity
 67
     1
  8
0
100
AcDbBlockBegin
  2
*Paper_Space0
 70
     0
 10
0.0
 20
0.0
 30
0.0
  3
*Paper_Space0
  1

  0
ENDBLK
  5
76
330
74
100
AcDbEntity
 67
     1
  8
0
100
AcDbBlockEnd
  0
BLOCK
  5
7B
330
79
100
AcDbEntity
  8
0
100
AcDbBlockBegin
  2
Block_0
 70
     0
 10
0.0
 20
0.0
 30
0.0
  3
Block_0
  1

  0
SPLINE
  5
7D
330
79
100
AcDbEntity
  8
Layer 1
100
AcDbSpline
210
0.0
220
0.0
230
1.0
 70
     9
 71
     3
 72
   128
 73
   124
 74
     0
 42
0.0000000001
 43
0.0000000001
 40
0.0
 40
0.0
 40
0.0
 40
0.0
 40
1.0
 40
1.0
 40
1.0
 40
2.0
 40
2.0
 40
2.0
 40
3.0
 40
3.0
 40
3.0
 40
4.0
 40
4.0
 40
4.0
 40
5.0
 40
5.0
 40
5.0
 40
6.0
 40
6.0
 40
6.0
 40
7.0
 40
7.0
 40
7.0
 40
8.0
 40
8.0
 40
8.0
 40
9.0
 40
9.0
 40
9.0
 40
10.0
 40
10.0
 40
10.0
 40
11.0
 40
11.0
 40
11.0
 40
12.0
 40
12.0
 40
12.0
 40
13.0
 40
13.0
 40
13.0
 40
14.0
 40
14.0
 40
14.0
 40
15.0
 40
15.0
 40
15.0
 40
16.0
 40
16.0
 40
16.0
 40
17.0
 40
17.0
 40
17.0
 40
18.0
 40
18.0
 40
18.0
 40
19.0
 40
19.0
 40
19.0
 40
20.0
 40
20.0
 40
20.0
 40
21.0
 40
21.0
 40
21.0
 40
22.0
 40
22.0
 40
22.0
 40
23.0
 40
23.0
 40
23.0
 40
24.0
 40
24.0
 40
24.0
 40
25.0
 40
25.0
 40
25.0
 40
26.0
 40
26.0
 40
26.0
 40
27.0
 40
27.0
 40
27.0
 40
28.0
 40
28.0
 40
28.0
 40
29.0
 40
29.0
 40
29.0
 40
30.0
 40
30.0
 40
30.0
 40
31.0
 40
31.0
 40
31.0
 40
32.0
 40
32.0
 40
32.0
 40
33.0
 40
33.0
 40
33.0
 40
34.0
 40
34.0
 40
34.0
 40
35.0
 40
35.0
 40
35.0
 40
36.0
 40
36.0
 40
36.0
 40
37.0
 40
37.0
 40
37.0
 40
38.0
 40
38.0
 40
38.0
 40
39.0
 40
39.0
 40
39.0
 40
40.0
 40
40.0
 40
40.0
 40
41.0
 40
41.0
 40
41.0
 40
41.0
 10
-76.3331027597826
 20
-18.40324782560921
 30
0.0
 10
-77.69315600572608
 20
-19.04826460904882
 30
0.0
 10
-79.08042424552194
 20
-19.67656667185312
 30
0.0
 10
-80.49238955651249
 20
-20.2872432760419
 30
0.0
 10
-83.31262365373431
 20
-21.50698929974194
 30
0.0
 10
-86.23153889008545
 20
-22.65612634332343
 30
0.0
 10
-89.22840258323899
 20
-23.72688634752655
 30
0.0
 10
-89.23220625363935
 20
-23.72827924091256
 30
0.0
 10
-89.23574205992798
 20
-23.72972570712233
 30
0.0
 10
-89.23954573032835
 20
-23.73106502768523
 30
0.0
 10
-89.63453815094956
 20
-23.8721758422671
 30
0.0
 10
-90.04158445664543
 20
-24.00016131532635
 30
0.0
 10
-90.43920194557122
 20
-24.13848634313878
 30
0.0
 10
-91.55239162523015
 20
-24.52576427731236
 30
0.0
 10
-92.66504557666172
 20
-24.91389937664911
 30
0.0
 10
-93.79773576372476
 20
-25.27910530793934
 30
0.0
 10
-93.79773576372476
 20
-25.27910530793934
 30
0.0
 10
-93.79928937557853
 20
-25.27958746334164
 30
0.0
 10
-93.79928937557853
 20
-25.27958746334164
 30
0.0
 10
-94.60839971447221
 20
-25.54021924502111
 30
0.0
 10
-95.4237780736028
 20
-25.79554731727053
 30
0.0
 10
-96.24408513240897
 20
-26.04546453444207
 30
0.0
 10
-99.4242214514865
 20
-27.01357901064585
 30
0.0
 10
-102.6635021666558
 20
-27.89056611570342
 30
0.0
 10
-105.8720320816821
 20
-28.65199664253375
 30
0.0
 10
-106.2748461343959
 20
-28.74757055795392
 30
0.0
 10
-106.6881068875074
 20
-28.82814408306027
 30
0.0
 10
-107.0933317172353
 20
-28.92087863888369
 30
0.0
 10
-108.917111315126
 20
-29.33831807215265
 30
0.0
 10
-110.7571234782479
 20
-29.72173876310532
 30
0.0
 10
-112.6101538372477
 20
-30.07746230480298
 30
0.0
 10
-113.7129503893313
 20
-30.28918209949923
 30
0.0
 10
-114.815157640367
 20
-30.50765206983915
 30
0.0
 10
-115.9196149499487
 20
-30.69569267696874
 30
0.0
 10
-116.045886092687
 20
-30.71722895163246
 30
0.0
 10
-116.1709250605059
 20
-30.73614015799094
 30
0.0
 10
-116.2970354847775
 20
-30.75735499571949
 30
0.0
 10
-116.9244803824215
 20
-30.86305417459906
 30
0.0
 10
-117.5511752605495
 20
-30.96714616880399
 30
0.0
 10
-118.1751379247287
 20
-31.06422012325383
 30
0.0
 10
-119.7715008909172
 20
-31.31215514599339
 30
0.0
 10
-121.3618101281568
 20
-31.53394663132849
 30
0.0
 10
-122.9433869953236
 20
-31.72938028797148
 30
0.0
 10
-124.1295428592869
 20
-31.87595553045404
 30
0.0
 10
-125.3108235963976
 20
-32.0076375282671
 30
0.0
 10
-126.4859970317396
 20
-32.12437270859236
 30
0.0
 10
-127.3673771082454
 20
-32.21191070062972
 30
0.0
 10
-128.2453820969319
 20
-32.29109133235296
 30
0.0
 10
-129.1194226967488
 20
-32.3617538852911
 30
0.0
 10
-131.7416516418481
 20
-32.5738486897418
 30
0.0
 10
-134.3286832425324
 20
-32.70976294054018
 30
0.0
 10
-136.8675528757508
 20
-32.76837160840428
 30
0.0
 10
-137.8135417762462
 20
-32.79022932000254
 30
0.0
 10
-138.7630664830296
 20
-32.8013188942691
 30
0.0
 10
-139.6898763130531
 20
-32.8013188942691
 30
0.0
 10
-160.2272321268733
 20
-32.8013188942691
 30
0.0
 10
-170.8215792220268
 20
-27.57475432680192
 30
0.0
 10
-171.9740377806102
 20
-22.71859225441166
 30
0.0
 10
-173.0315117248223
 20
-18.26256559360875
 30
0.0
 10
-167.1749307642306
 20
-10.34696677133179
 30
0.0
 10
-151.9635171037
 20
-2.147914144968972
 30
0.0
 10
-151.1277810720012
 20
-4.510154182258209
 30
0.0
 10
-150.2555083753281
 20
-6.652370637356655
 30
0.0
 10
-149.3568778499628
 20
-8.54761638052013
 30
0.0
 10
-149.3568778499628
 20
-8.54761638052013
 30
0.0
 10
-148.4449612646058
 20
-10.47088070987604
 30
0.0
 10
-148.4449612646058
 20
-10.47088070987604
 30
0.0
 10
-148.4449612646058
 20
-10.47088070987604
 30
0.0
 10
-147.5358840388447
 20
-10.50548875324215
 30
0.0
 10
-147.5358840388447
 20
-10.50548875324215
 30
0.0
 10
-147.5358840388447
 20
-10.50548875324215
 30
0.0
 10
-146.3180130639345
 20
-10.55182924474423
 30
0.0
 10
-146.3180130639345
 20
-10.55182924474423
 30
0.0
 10
-145.6930860889501
 20
-10.5756155779507
 30
0.0
 10
-144.6466481461831
 20
-10.60395560107896
 30
0.0
 10
-143.2103072009353
 20
-10.60395560107896
 30
0.0
 10
-141.3584554440325
 20
-10.60395560107896
 30
0.0
 10
-139.3975829932495
 20
-10.55686509006349
 30
0.0
 10
-137.3818519721806
 20
-10.46391624294503
 30
0.0
 10
-134.7106038944538
 20
-10.34069875109394
 30
0.0
 10
-132.0045870548963
 20
-10.13503268534467
 30
0.0
 10
-129.286462757443
 20
-9.859293367706756
 30
0.0
 10
-129.2861413205087
 20
-9.859239794883317
 30
0.0
 10
-129.2858734563957
 20
-9.859239794883317
 30
0.0
 10
-129.2855520194602
 20
-9.859186222059555
 30
0.0
 10
-126.8658283435818
 20
-9.613608403514767
 30
0.0
 10
-124.4366758509364
 20
-9.313814888555102
 30
0.0
 10
-122.0115413199795
 20
-8.950644724523813
 30
0.0
 10
-113.7963097012116
 20
-7.719755553737621
 30
0.0
 10
-105.8326024842902
 20
-5.841117385561627
 30
0.0
 10
-98.34156828067998
 20
-3.366910149155938
 30
0.0
 10
-96.17647623035621
 20
-2.651766541003598
 30
0.0
 10
-94.05381385548951
 20
-1.874371313058073
 30
0.0
 10
-91.96613453374272
 20
-1.05931439085979
 30
0.0
 10
-89.17675838230557
 20
0.0297675186520067
 30
0.0
 10
-86.45691975453166
 20
1.194172816662905
 30
0.0
 10
-83.85001263668135
 20
2.443973193808551
 30
0.0
 10
-81.79329840636677
 20
3.430034565566561
 30
0.0
 10
-79.77713880271616
 20
4.472133109706557
 30
0.0
 10
-77.8574638524707
 20
5.541232356409037
 30
0.0
 10
-77.8574638524707
 20
5.541232356409037
 30
0.0
 10
-76.81204379333263
 20
6.123461791826206
 30
0.0
 10
-76.81204379333263
 20
6.123461791826206
 30
0.0
 10
-76.81204379333263
 20
6.123461791826206
 30
0.0
 10
-76.01332658201234
 20
6.56827693741435
 30
0.0
 10
-76.01332658201234
 20
6.56827693741435
 30
0.0
 10
-76.01332658201234
 20
6.56827693741435
 30
0.0
 10
-76.05554196617823
 20
8.678671135919989
 30
0.0
 10
-76.05554196617823
 20
8.678671135919989
 30
0.0
 10
-76.09840022421447
 20
10.82324479520871
 30
0.0
 10
-76.2825300153013
 20
13.18543125967419
 30
0.0
 10
-76.60482411573056
 20
15.73501545740274
 30
0.0
 10
-75.64501342701811
 20
15.70747902661195
 30
0.0
 10
-74.72115010223402
 20
15.66322787518937
 30
0.0
 10
-73.81357291550415
 20
15.61190511119211
 30
0.0
 10
-69.47674578486173
 20
15.36654158393755
 30
0.0
 10
-65.73671989736664
 20
14.85824264363316
 30
0.0
 10
-62.57635194980756
 20
14.16018876587444
 30
0.0
 10
-54.49060584312921
 20
12.37417800787916
 30
0.0
 10
-50.19776199979571
 20
9.35508159337067
 30
0.0
 10
-49.48460058608048
 20
6.349806967077641
 30
0.0
 10
-48.24990774489136
 20
1.147028732821105
 30
0.0
 10
-56.12505908614707
 20
-8.818266280015018
 30
0.0
 10
-76.3331027597826
 20
-18.40324782560921
 30
0.0
  0
SPLINE
  5
7E
330
79
100
AcDbEntity
  8
Layer 1
100
AcDbSpline
210
0.0
220
0.0
230
1.0
 70
     9
 71
     3
 72
    65
 73
    61
 74
     0
 42
0.0000000001
 43
0.0000000001
 40
0.0
 40
0.0
 40
0.0
 40
0.0
 40
1.0
 40
1.0
 40
1.0
 40
2.0
 40
2.0
 40
2.0
 40
3.0
 40
3.0
 40
3.0
 40
4.0
 40
4.0
 40
4.0
 40
5.0
 40
5.0
 40
5.0
 40
6.0
 40
6.0
 40
6.0
 40
7.0
 40
7.0
 40
7.0
 40
8.0
 40
8.0
 40
8.0
 40
9.0
 40
9.0
 40
9.0
 40
10.0
 40
10.0
 40
10.0
 40
11.0
 40
11.0
 40
11.0
 40
12.0
 40
12.0
 40
12.0
 40
13.0
 40
13.0
 40
13.0
 40
14.0
 40
14.0
 40
14.0
 40
15.0
 40
15.0
 40
15.0
 40
16.0
 40
16.0
 40
16.0
 40
17.0
 40
17.0
 40
17.0
 40
18.0
 40
18.0
 40
18.0
 40
19.0
 40
19.0
 40
19.0
 40
20.0
 40
20.0
 40
20.0
 40
20.0
 10
-82.95984661727771
 20
-31.1664370686711
 30
0.0
 10
-83.40337601512544
 20
-31.27170766497118
 30
0.0
 10
-83.8463161119253
 20
-31.34553101443707
 30
0.0
 10
-84.28705972300164
 20
-31.39492515682291
 30
0.0
 10
-84.43433141217736
 20
-31.41142558616704
 30
0.0
 10
-84.57946018845015
 20
-31.41008626560415
 30
0.0
 10
-84.726142576578
 20
-31.4205329659981
 30
0.0
 10
-85.02191812984834
 20
-31.44158708525953
 30
0.0
 10
-85.31785440158357
 20
-31.46344479685747
 30
0.0
 10
-85.61020129421217
 20
-31.46044471879394
 30
0.0
 10
-85.7138111330132
 20
-31.45937326234632
 30
0.0
 10
-85.81576021431553
 20
-31.44978372710976
 30
0.0
 10
-85.91883432489179
 20
-31.44576576541787
 30
0.0
 10
-86.22436013186389
 20
-31.43387259881448
 30
0.0
 10
-86.52752873464507
 20
-31.41088985794452
 30
0.0
 10
-86.82732224960506
 20
-31.37360317345006
 30
0.0
 10
-86.95589702371188
 20
-31.35758489951143
 30
0.0
 10
-87.08361463266035
 20
-31.33904870291156
 30
0.0
 10
-87.21090365902645
 20
-31.31847673905179
 30
0.0
 10
-87.50287554189513
 20
-31.27133265521287
 30
0.0
 10
-87.7907758902498
 20
-31.21127752113965
 30
0.0
 10
-88.07514043231712
 20
-31.14077568667215
 30
0.0
 10
-88.17762524184614
 20
-31.11538216878463
 30
0.0
 10
-88.28171723605139
 20
-31.09464948646095
 30
0.0
 10
-88.38307701630453
 20
-31.06630946333333
 30
0.0
 10
-88.75958681314996
 20
-30.96093172138926
 30
0.0
 10
-89.12923928870803
 20
-30.83792852082583
 30
0.0
 10
-89.48828434540345
 20
-30.69301403584328
 30
0.0
 10
-89.55219672269953
 20
-30.66724550819712
 30
0.0
 10
-89.61262686652945
 20
-30.63494109620523
 30
0.0
 10
-89.67594994277764
 20
-30.60788682081995
 30
0.0
 10
-89.97102904935387
 20
-30.48199068783666
 30
0.0
 10
-90.25935798029026
 20
-30.34361208720433
 30
0.0
 10
-90.53986527913409
 20
-30.19200099940507
 30
0.0
 10
-90.64797523502834
 20
-30.13355305000873
 30
0.0
 10
-90.75346012261929
 20
-30.07108713892082
 30
0.0
 10
-90.85921287432325
 20
-30.00894266476778
 30
0.0
 10
-91.09868339109892
 20
-29.86826043276444
 30
0.0
 10
-91.3313501594097
 20
-29.71782794706064
 30
0.0
 10
-91.55774890748427
 20
-29.55871666410142
 30
0.0
 10
-91.60923238994959
 20
-29.52250143606196
 30
0.0
 10
-91.66109088217291
 20
-29.48676836342416
 30
0.0
 10
-91.71187791794542
 20
-29.44964239740034
 30
0.0
 10
-91.75468260315918
 20
-29.41835586903616
 30
0.0
 10
-91.79946948280589
 20
-29.38964083615055
 30
0.0
 10
-91.84179201261608
 20
-29.3576578610932
 30
0.0
 10
-92.14731781958946
 20
-29.12686614156783
 30
0.0
 10
-92.4437362467289
 20
-28.88439554673313
 30
0.0
 10
-92.72027915670557
 20
-28.62065654134292
 30
0.0
 10
-92.40500309602916
 20
-28.51897532415459
 30
0.0
 10
-92.09503074478504
 20
-28.41300828116135
 30
0.0
 10
-91.7816297328992
 20
-28.30977345211669
 30
0.0
 10
-87.317620721535
 20
-26.83968162866691
 30
0.0
 10
-83.04224161835215
 20
-25.21728227072149
 30
0.0
 10
-79.02631569475201
 20
-23.47809415962993
 30
0.0
 10
-77.59372484708276
 20
-22.8576673017378
 30
0.0
 10
-76.19354555705449
 20
-22.22282935458359
 30
0.0
 10
-74.82867075708101
 20
-21.57556251259705
 30
0.0
 10
-74.9621742308628
 20
-26.00823142277137
 30
0.0
 10
-78.20874084989731
 20
-30.03894344539315
 30
0.0
 10
-82.95984661727771
 20
-31.1664370686711
 30
0.0
  0
SPLINE
  5
7F
330
79
100
AcDbEntity
  8
Layer 1
100
AcDbSpline
210
0.0
220
0.0
230
1.0
 70
     9
 71
     3
 72
   134
 73
   130
 74
     0
 42
0.0000000001
 43
0.0000000001
 40
0.0
 40
0.0
 40
0.0
 40
0.0
 40
1.0
 40
1.0
 40
1.0
 40
2.0
 40
2.0
 40
2.0
 40
3.0
 40
3.0
 40
3.0
 40
4.0
 40
4.0
 40
4.0
 40
5.0
 40
5.0
 40
5.0
 40
6.0
 40
6.0
 40
6.0
 40
7.0
 40
7.0
 40
7.0
 40
8.0
 40
8.0
 40
8.0
 40
9.0
 40
9.0
 40
9.0
 40
10.0
 40
10.0
 40
10.0
 40
11.0
 40
11.0
 40
11.0
 40
12.0
 40
12.0
 40
12.0
 40
13.0
 40
13.0
 40
13.0
 40
14.0
 40
14.0
 40
14.0
 40
15.0
 40
15.0
 40
15.0
 40
16.0
 40
16.0
 40
16.0
 40
17.0
 40
17.0
 40
17.0
 40
18.0
 40
18.0
 40
18.0
 40
19.0
 40
19.0
 40
19.0
 40
20.0
 40
20.0
 40
20.0
 40
21.0
 40
21.0
 40
21.0
 40
22.0
 40
22.0
 40
22.0
 40
23.0
 40
23.0
 40
23.0
 40
24.0
 40
24.0
 40
24.0
 40
25.0
 40
25.0
 40
25.0
 40
26.0
 40
26.0
 40
26.0
 40
27.0
 40
27.0
 40
27.0
 40
28.0
 40
28.0
 40
28.0
 40
29.0
 40
29.0
 40
29.0
 40
30.0
 40
30.0
 40
30.0
 40
31.0
 40
31.0
 40
31.0
 40
32.0
 40
32.0
 40
32.0
 40
33.0
 40
33.0
 40
33.0
 40
34.0
 40
34.0
 40
34.0
 40
35.0
 40
35.0
 40
35.0
 40
36.0
 40
36.0
 40
36.0
 40
37.0
 40
37.0
 40
37.0
 40
38.0
 40
38.0
 40
38.0
 40
39.0
 40
39.0
 40
39.0
 40
40.0
 40
40.0
 40
40.0
 40
41.0
 40
41.0
 40
41.0
 40
42.0
 40
42.0
 40
42.0
 40
43.0
 40
43.0
 40
43.0
 40
43.0
 10
-99.12067783894862
 20
-37.94827424743131
 30
0.0
 10
-99.59833312475728
 20
-38.32269470419691
 30
0.0
 10
-100.1126857940096
 20
-38.65998919493806
 30
0.0
 10
-100.659932176304
 20
-38.95415756353249
 30
0.0
 10
-101.2071785585989
 20
-39.24832593212628
 30
0.0
 10
-101.7873186539347
 20
-39.49931460574896
 30
0.0
 10
-102.3964416462691
 20
-39.70117700109786
 30
0.0
 10
-102.7010031424359
 20
-39.80210819877216
 30
0.0
 10
-103.0128505424693
 20
-39.89077122008474
 30
0.0
 10
-103.33139454532
 20
-39.96636247269142
 30
0.0
 10
-103.3316088366112
 20
-39.96641604551518
 30
0.0
 10
-103.3318231279005
 20
-39.96641604551518
 30
0.0
 10
-103.3320374191911
 20
-39.96646961833894
 30
0.0
 10
-103.6391168380169
 20
-40.0393286569996
 30
0.0
 10
-103.9450176547477
 20
-40.08293693454957
 30
0.0
 10
-104.2510256171233
 20
-40.12884884347311
 30
0.0
 10
-104.3284383457016
 20
-40.14047414596188
 30
0.0
 10
-104.4063332296809
 20
-40.15997465336954
 30
0.0
 10
-104.4836388126129
 20
-40.1699391983612
 30
0.0
 10
-104.5966774681821
 20
-40.18451100609358
 30
0.0
 10
-104.7092339683484
 20
-40.19383267721873
 30
0.0
 10
-104.8219511869827
 20
-40.20476153301785
 30
0.0
 10
-105.1063157290501
 20
-40.23240510944878
 30
0.0
 10
-105.3894480961985
 20
-40.24890553879323
 30
0.0
 10
-105.6710804243169
 20
-40.25426282104737
 30
0.0
 10
-105.7396000643518
 20
-40.25554856879002
 30
0.0
 10
-105.8093518793056
 20
-40.26631670612141
 30
0.0
 10
-105.8776572280492
 20
-40.26631670612141
 30
0.0
 10
-105.9347122840605
 20
-40.26631670612141
 30
0.0
 10
-105.9907494564422
 20
-40.2611201423347
 30
0.0
 10
-106.0476437939841
 20
-40.26020940435066
 30
0.0
 10
-106.1543072836709
 20
-40.25854864685292
 30
0.0
 10
-106.2603278994872
 20
-40.25361994717764
 30
0.0
 10
-106.3664020881248
 20
-40.24879839314924
 30
0.0
 10
-106.5519783454204
 20
-40.24038746000814
 30
0.0
 10
-106.7365902919102
 20
-40.22747640977639
 30
0.0
 10
-106.9200772091267
 20
-40.20963665986969
 30
0.0
 10
-107.0255085238926
 20
-40.19940425076051
 30
0.0
 10
-107.1307791201936
 20
-40.18885040471936
 30
0.0
 10
-107.2354604154461
 20
-40.17556434472964
 30
0.0
 10
-107.4265011006408
 20
-40.15124228329326
 30
0.0
 10
-107.6155595914014
 20
-40.12022361904049
 30
0.0
 10
-107.8037609170009
 20
-40.08588343978966
 30
0.0
 10
-107.8944061327458
 20
-40.06932943762498
 30
0.0
 10
-107.9858013680086
 20
-40.05550764940631
 30
0.0
 10
-108.0756965642382
 20
-40.03670358869469
 30
0.0
 10
-108.3317746560023
 20
-39.98313076615018
 30
0.0
 10
-108.5849598153481
 20
-39.92103986482059
 30
0.0
 10
-108.8343948771161
 20
-39.84935942825474
 30
0.0
 10
-108.85298464654
 20
-39.84400214600093
 30
0.0
 10
-108.8722172898331
 20
-39.84041276689143
 30
0.0
 10
-108.8908070592564
 20
-39.8349483389901
 30
0.0
 10
-109.1572782785932
 20
-39.75678559089843
 30
0.0
 10
-109.4187136526127
 20
-39.66619394797378
 30
0.0
 10
-109.6763453562306
 20
-39.56794139142783
 30
0.0
 10
-109.7594368039966
 20
-39.53627985330245
 30
0.0
 10
-109.8400639019267
 20
-39.49990390679492
 30
0.0
 10
-109.9221374660643
 20
-39.46615302859294
 30
0.0
 10
-110.0965705762706
 20
-39.39447259202774
 30
0.0
 10
-110.2696107930906
 20
-39.32011351433644
 30
0.0
 10
-110.4392223492675
 20
-39.23943284358256
 30
0.0
 10
-110.5322247692046
 20
-39.19523526498375
 30
0.0
 10
-110.6236200044654
 20
-39.14825189961258
 30
0.0
 10
-110.71506881255
 20
-39.10137567988478
 30
0.0
 10
-110.8716621728484
 20
-39.02101644606993
 30
0.0
 10
-111.0259519017776
 20
-38.93701426031831
 30
0.0
 10
-111.177777280869
 20
-38.84904768569889
 30
0.0
 10
-111.2670296032288
 20
-38.79734991194299
 30
0.0
 10
-111.3560676342981
 20
-38.74549141971968
 30
0.0
 10
-111.443552053513
 20
-38.69122215048264
 30
0.0
 10
-111.5998239768752
 20
-38.59430891449927
 30
0.0
 10
-111.751970792904
 20
-38.49177053214778
 30
0.0
 10
-111.9023497057872
 20
-38.38676779996202
 30
0.0
 10
-111.9766552106554
 20
-38.33490930773838
 30
0.0
 10
-112.0526214730249
 20
-38.28524730123823
 30
0.0
 10
-112.1254269388631
 20
-38.23146018740253
 30
0.0
 10
-112.3330216262244
 20
-38.07808119645896
 30
0.0
 10
-112.535151885686
 20
-37.91779131140428
 30
0.0
 10
-112.7298890956355
 20
-37.74914406603516
 30
0.0
 10
-112.7406036601444
 20
-37.73987596773377
 30
0.0
 10
-112.7522289626367
 20
-37.73173289870699
 30
0.0
 10
-112.7628363814994
 20
-37.72246480040561
 30
0.0
 10
-112.9666809712828
 20
-37.54438873826703
 30
0.0
 10
-113.1612574627662
 20
-37.35624098549024
 30
0.0
 10
-113.3496730796557
 20
-37.16203950376647
 30
0.0
 10
-113.4106389517117
 20
-37.09914501009971
 30
0.0
 10
-113.4677475805435
 20
-37.03255399167304
 30
0.0
 10
-113.5270526951014
 20
-36.96805231332972
 30
0.0
 10
-113.6526273911463
 20
-36.83138804302116
 30
0.0
 10
-113.7757377373534
 20
-36.69258085980708
 30
0.0
 10
-113.8934372284852
 20
-36.54879140409622
 30
0.0
 10
-113.9575638970705
 20
-36.4703607918896
 30
0.0
 10
-114.0192797886431
 20
-36.38984083960379
 30
0.0
 10
-114.0810492530363
 20
-36.30932088732153
 30
0.0
 10
-114.187980606836
 20
-36.16987083023741
 30
0.0
 10
-114.2911082902341
 20
-36.02731354944577
 30
0.0
 10
-114.3904323032325
 20
-35.88170261777004
 30
0.0
 10
-114.3915573325058
 20
-35.88004186026939
 30
0.0
 10
-114.392628788956
 20
-35.87838110277196
 30
0.0
 10
-114.3937538182299
 20
-35.87677391809477
 30
0.0
 10
-114.4501124275471
 20
-35.79411105290956
 30
0.0
 10
-114.5063638912199
 20
-35.71139461489706
 30
0.0
 10
-114.5601510050537
 20
-35.62680312810332
 30
0.0
 10
-114.6605464745029
 20
-35.46903116570603
 30
0.0
 10
-114.7546203508908
 20
-35.30670551339562
 30
0.0
 10
-114.845908440508
 20
-35.1423976666526
 30
0.0
 10
-114.8889274170117
 20
-35.06493136525088
 30
0.0
 10
-114.9345178889968
 20
-34.98928653981692
 30
0.0
 10
-114.9754475254207
 20
-34.91048091785552
 30
0.0
 10
-115.1027901246099
 20
-34.66527810906871
 30
0.0
 10
-115.2223646645297
 20
-34.41487873649168
 30
0.0
 10
-115.3287067172809
 20
-34.15655058618193
 30
0.0
 10
-114.7764780624897
 20
-34.06253028261585
 30
0.0
 10
-114.2169099310102
 20
-33.94590224793779
 30
0.0
 10
-113.6624847904943
 20
-33.8456139241329
 30
0.0
 10
-111.2007064489174
 20
-33.40042376878582
 30
0.0
 10
-108.7218919497729
 20
-32.89689280968958
 30
0.0
 10
-106.2300056819267
 20
-32.32527079313636
 30
0.0
 10
-105.8397812425098
 20
-32.23575060666381
 30
0.0
 10
-105.4520211529313
 20
-32.1608022279227
 30
0.0
 10
-105.0613681309353
 20
-32.06806767209928
 30
0.0
 10
-102.1759894814978
 20
-31.38335342715405
 30
0.0
 10
-99.35205885951932
 20
-30.61324410307087
 30
0.0
 10
-96.57720094299143
 20
-29.794222792008
 30
0.0
 10
-96.57720094299143
 20
-29.794222792008
 30
0.0
 10
-95.25063071113853
 20
-31.0591842779381
 30
0.0
 10
-95.25063071113853
 20
-31.0591842779381
 30
0.0
 10
-95.52631645595429
 20
-33.74746851323095
 30
0.0
 10
-96.93667458226668
 20
-36.23624755736936
 30
0.0
 10
-99.12067783894862
 20
-37.94827424743131
 30
0.0
  0
SPLINE
  5
80
330
79
100
AcDbEntity
  8
Layer 1
100
AcDbSpline
210
0.0
220
0.0
230
1.0
 70
     9
 71
     3
 72
    77
 73
    73
 74
     0
 42
0.0000000001
 43
0.0000000001
 40
0.0
 40
0.0
 40
0.0
 40
0.0
 40
1.0
 40
1.0
 40
1.0
 40
2.0
 40
2.0
 40
2.0
 40
3.0
 40
3.0
 40
3.0
 40
4.0
 40
4.0
 40
4.0
 40
5.0
 40
5.0
 40
5.0
 40
6.0
 40
6.0
 40
6.0
 40
7.0
 40
7.0
 40
7.0
 40
8.0
 40
8.0
 40
8.0
 40
9.0
 40
9.0
 40
9.0
 40
10.0
 40
10.0
 40
10.0
 40
11.0
 40
11.0
 40
11.0
 40
12.0
 40
12.0
 40
12.0
 40
13.0
 40
13.0
 40
13.0
 40
14.0
 40
14.0
 40
14.0
 40
15.0
 40
15.0
 40
15.0
 40
16.0
 40
16.0
 40
16.0
 40
17.0
 40
17.0
 40
17.0
 40
18.0
 40
18.0
 40
18.0
 40
19.0
 40
19.0
 40
19.0
 40
20.0
 40
20.0
 40
20.0
 40
21.0
 40
21.0
 40
21.0
 40
22.0
 40
22.0
 40
22.0
 40
23.0
 40
23.0
 40
23.0
 40
24.0
 40
24.0
 40
24.0
 40
24.0
 10
-125.2120353116253
 20
-41.19344797308142
 30
0.0
 10
-125.593098798387
 20
-41.28387889753446
 30
0.0
 10
-125.973465838454
 20
-41.34586265322008
 30
0.0
 10
-126.3526542764259
 20
-41.39498893149514
 30
0.0
 10
-126.4551390859542
 20
-41.4082214186611
 30
0.0
 10
-126.5573560313696
 20
-41.41898955599312
 30
0.0
 10
-126.6595729767849
 20
-41.42932911074598
 30
0.0
 10
-126.9818135043917
 20
-41.46195495967593
 30
0.0
 10
-127.3026611386121
 20
-41.48145546708071
 30
0.0
 10
-127.6212587142854
 20
-41.48541985594883
 30
0.0
 10
-127.6797602365048
 20
-41.48616987546511
 30
0.0
 10
-127.7388510597715
 20
-41.49104500231727
 30
0.0
 10
-127.7971918635236
 20
-41.4908307110264
 30
0.0
 10
-128.2160241901773
 20
-41.48927709917264
 30
0.0
 10
-128.629445661755
 20
-41.45820486209611
 30
0.0
 10
-129.0382062977714
 20
-41.40923930228882
 30
0.0
 10
-129.1245121148912
 20
-41.39889974753885
 30
0.0
 10
-129.210603640721
 20
-41.38791731891949
 30
0.0
 10
-129.2963201567922
 20
-41.37548842408683
 30
0.0
 10
-129.7000985203119
 20
-41.31709404751425
 30
0.0
 10
-130.0988410385122
 20
-41.24043133845225
 30
0.0
 10
-130.4881547399445
 20
-41.13778581045709
 30
0.0
 10
-130.5416739896678
 20
-41.12364258530323
 30
0.0
 10
-130.593478909068
 20
-41.10553497128511
 30
0.0
 10
-130.6466767218551
 20
-41.09058815379474
 30
0.0
 10
-131.0105969054017
 20
-40.98847835402531
 30
0.0
 10
-131.3666418840333
 20
-40.867028765315
 30
0.0
 10
-131.714168783882
 20
-40.7279537179895
 30
0.0
 10
-131.7721345778748
 20
-40.70475668582803
 30
0.0
 10
-131.8315468380777
 20
-40.68450615890728
 30
0.0
 10
-131.8890304766681
 20
-40.66034481593834
 30
0.0
 10
-132.2544506992454
 20
-40.50648366958927
 30
0.0
 10
-132.607763463928
 20
-40.32974692801357
 30
0.0
 10
-132.9505759553923
 20
-40.13661690274096
 30
0.0
 10
-133.0228456930051
 20
-40.09590155760411
 30
0.0
 10
-133.0939368285215
 20
-40.05352545497401
 30
0.0
 10
-133.1651351096834
 20
-40.01114935233942
 30
0.0
 10
-133.5074654457448
 20
-39.80725118973542
 30
0.0
 10
-133.8405812563285
 20
-39.58920980197692
 30
0.0
 10
-134.1551608703108
 20
-39.34770351794681
 30
0.0
 10
-134.1813044077124
 20
-39.3276137094935
 30
0.0
 10
-134.2052514593892
 20
-39.30505955120143
 30
0.0
 10
-134.2311807055008
 20
-39.28475545145725
 30
0.0
 10
-134.528509870625
 20
-39.05176724620839
 30
0.0
 10
-134.8097136161629
 20
-38.79965354331336
 30
0.0
 10
-135.0782206027571
 20
-38.5347359358277
 30
0.0
 10
-135.1298112308668
 20
-38.48378818158842
 30
0.0
 10
-135.1832233349445
 20
-38.43471547613777
 30
0.0
 10
-135.233635360959
 20
-38.38264269262679
 30
0.0
 10
-135.504231687633
 20
-38.10352828716704
 30
0.0
 10
-135.7571489828665
 20
-37.80743129696118
 30
0.0
 10
-135.992922974886
 20
-37.49681607184637
 30
0.0
 10
-136.0408706510628
 20
-37.43365371406883
 30
0.0
 10
-136.0861396861137
 20
-37.36834844338515
 30
0.0
 10
-136.1325337504367
 20
-37.30395391068486
 30
0.0
 10
-136.3688434706823
 20
-36.97598109106917
 30
0.0
 10
-136.5921885678712
 20
-36.63734727976161
 30
0.0
 10
-136.7864436224184
 20
-36.27840936871243
 30
0.0
 10
-132.2557900198092
 20
-36.17383521910553
 30
0.0
 10
-127.4919874934857
 20
-35.82604045514667
 30
0.0
 10
-122.5861098417725
 20
-35.22259618200032
 30
0.0
 10
-121.3677031386369
 20
-35.07275299734249
 30
0.0
 10
-120.1325281420455
 20
-34.89076611916019
 30
0.0
 10
-118.8979960193251
 20
-34.70920782355643
 30
0.0
 10
-118.8979960193251
 20
-34.70920782355643
 30
0.0
 10
-118.5753804819604
 20
-35.49292464456068
 30
0.0
 10
-118.5753804819604
 20
-35.49292464456068
 30
0.0
 10
-118.5004856760436
 20
-35.67491152274618
 30
0.0
 10
-118.4135905578747
 20
-35.8493446329515
 30
0.0
 10
-118.3311955568009
 20
-36.0266171027526
 30
0.0
 10
-119.7111243199097
 20
-38.50950313641082
 30
0.0
 10
-122.1380267540084
 20
-40.46394684848755
 30
0.0
 10
-125.2120353116253
 20
-41.19344797308142
 30
0.0
  0
SPLINE
  5
81
330
79
100
AcDbEntity
  8
Layer 1
100
AcDbSpline
210
0.0
220
0.0
230
1.0
 70
     9
 71
     3
 72
    95
 73
    91
 74
     0
 42
0.0000000001
 43
0.0000000001
 40
0.0
 40
0.0
 40
0.0
 40
0.0
 40
1.0
 40
1.0
 40
1.0
 40
2.0
 40
2.0
 40
2.0
 40
3.0
 40
3.0
 40
3.0
 40
4.0
 40
4.0
 40
4.0
 40
5.0
 40
5.0
 40
5.0
 40
6.0
 40
6.0
 40
6.0
 40
7.0
 40
7.0
 40
7.0
 40
8.0
 40
8.0
 40
8.0
 40
9.0
 40
9.0
 40
9.0
 40
10.0
 40
10.0
 40
10.0
 40
11.0
 40
11.0
 40
11.0
 40
12.0
 40
12.0
 40
12.0
 40
13.0
 40
13.0
 40
13.0
 40
14.0
 40
14.0
 40
14.0
 40
15.0
 40
15.0
 40
15.0
 40
16.0
 40
16.0
 40
16.0
 40
17.0
 40
17.0
 40
17.0
 40
18.0
 40
18.0
 40
18.0
 40
19.0
 40
19.0
 40
19.0
 40
20.0
 40
20.0
 40
20.0
 40
21.0
 40
21.0
 40
21.0
 40
22.0
 40
22.0
 40
22.0
 40
23.0
 40
23.0
 40
23.0
 40
24.0
 40
24.0
 40
24.0
 40
25.0
 40
25.0
 40
25.0
 40
26.0
 40
26.0
 40
26.0
 40
27.0
 40
27.0
 40
27.0
 40
28.0
 40
28.0
 40
28.0
 40
29.0
 40
29.0
 40
29.0
 40
30.0
 40
30.0
 40
30.0
 40
30.0
 10
-142.3057836650911
 20
17.86528517307114
 30
0.0
 10
-142.224138683532
 20
17.95084097067268
 30
0.0
 10
-142.1363864002041
 20
18.03318239892655
 30
0.0
 10
-142.0535628165499
 20
18.11814889548212
 30
0.0
 10
-136.6682084030618
 20
23.64209620089493
 30
0.0
 10
-128.780896031089
 20
27.85286648008663
 30
0.0
 10
-119.7878406017926
 20
29.9870470118026
 30
0.0
 10
-115.7322172166875
 20
30.94948276881739
 30
0.0
 10
-111.6603076935301
 20
31.4374776093805
 30
0.0
 10
-107.6851506878864
 20
31.4374776093805
 30
0.0
 10
-94.14520909074971
 20
31.4374776093805
 30
0.0
 10
-83.71849135733443
 20
25.83504611893858
 30
0.0
 10
-81.7396720109985
 20
17.49654343549453
 30
0.0
 10
-81.25810590914325
 20
15.46736563596818
 30
0.0
 10
-80.89252496809919
 20
13.54672637491364
 30
0.0
 10
-80.65305445132354
 20
11.78809132923818
 30
0.0
 10
-80.48087139966515
 20
10.52339770742593
 30
0.0
 10
-80.37190427860869
 20
9.324973667098737
 30
0.0
 10
-80.32626023380107
 20
8.200747985998626
 30
0.0
 10
-81.99987521009912
 20
7.287277788787289
 30
0.0
 10
-83.68131181848781
 20
6.418487325580273
 30
0.0
 10
-85.36783784501954
 20
5.609859142090797
 30
0.0
 10
-87.91238619742626
 20
4.390005972743555
 30
0.0
 10
-90.46373829829784
 20
3.296209654850562
 30
0.0
 10
-93.00491156288591
 20
2.298308689309385
 30
0.0
 10
-106.7500906431905
 20
-2.29791804809777
 30
0.0
 10
-119.9528984680532
 20
-4.916718332550837
 30
0.0
 10
-129.9054967219491
 20
-6.394203205511131
 30
0.0
 10
-132.7454456178682
 20
-6.676799844436387
 30
0.0
 10
-135.3220840909791
 20
-6.854233032704597
 30
0.0
 10
-137.5436418962657
 20
-6.956717842232652
 30
0.0
 10
-138.1054600862918
 20
-6.982593515522474
 30
0.0
 10
-138.6445633995606
 20
-7.003915498892116
 30
0.0
 10
-139.1613268458264
 20
-7.021487384687716
 30
0.0
 10
-139.3578855317433
 20
-7.028183987507945
 30
0.0
 10
-139.5353187200109
 20
-7.031880512261435
 30
0.0
 10
-139.7251272302886
 20
-7.037505658629875
 30
0.0
 10
-140.0356353097569
 20
-7.046666611284052
 30
0.0
 10
-140.3523578366414
 20
-7.056791874746669
 30
0.0
 10
-140.6443297195108
 20
-7.063327759096258
 30
0.0
 10
-140.8404062500235
 20
-7.06772073054612
 30
0.0
 10
-141.0160179623262
 20
-7.069595779334104
 30
0.0
 10
-141.2035228412329
 20
-7.072917294332819
 30
0.0
 10
-141.4657082347665
 20
-7.077524557069703
 30
0.0
 10
-141.735340250634
 20
-7.083042557791586
 30
0.0
 10
-141.9803823409543
 20
-7.085774771743694
 30
0.0
 10
-142.1689586763119
 20
-7.08786411181966
 30
0.0
 10
-142.336213028296
 20
-7.088078403111174
 30
0.0
 10
-142.514449808902
 20
-7.089203432386081
 30
0.0
 10
-142.7327590607722
 20
-7.090596325772411
 30
0.0
 10
-142.9594792457816
 20
-7.092632093028147
 30
0.0
 10
-143.1618237965332
 20
-7.092739238671818
 30
0.0
 10
-143.1769849053141
 20
-7.092739238671818
 30
0.0
 10
-143.1952532378012
 20
-7.093007102786129
 30
0.0
 10
-143.2103072009353
 20
-7.093007102786129
 30
0.0
 10
-143.4040265272577
 20
-7.093007102786129
 30
0.0
 10
-143.5713344520649
 20
-7.091346345289016
 30
0.0
 10
-143.7498926696071
 20
-7.090382034481541
 30
0.0
 10
-143.8867176583863
 20
-7.089632014964615
 30
0.0
 10
-144.0357036778839
 20
-7.089578442141175
 30
0.0
 10
-144.1634212868291
 20
-7.088346267225484
 30
0.0
 10
-144.37374818814
 20
-7.086310499969749
 30
0.0
 10
-144.5580386976936
 20
-7.083203276261905
 30
0.0
 10
-144.7431863724088
 20
-7.080149625375254
 30
0.0
 10
-144.8255278006608
 20
-7.078810304812684
 30
0.0
 10
-144.9208874247901
 20
-7.077899566828647
 30
0.0
 10
-144.9981930077221
 20
-7.076399527798004
 30
0.0
 10
-145.1157853532076
 20
-7.074095896427637
 30
0.0
 10
-145.2093235013701
 20
-7.071470828122729
 30
0.0
 10
-145.3150226802516
 20
-7.068952905464378
 30
0.0
 10
-145.3303980803218
 20
-7.068577895702867
 30
0.0
 10
-145.3449698880536
 20
-7.068256458771213
 30
0.0
 10
-145.3605060065918
 20
-7.067881449013231
 30
0.0
 10
-145.3605060065918
 20
-7.067881449013231
 30
0.0
 10
-145.3605060065918
 20
-7.067827876189792
 30
0.0
 10
-145.3605060065918
 20
-7.067827876189792
 30
0.0
 10
-145.3449698880536
 20
-7.068202885947774
 30
0.0
 10
-145.3302909346768
 20
-7.068524322882957
 30
0.0
 10
-145.3150762530741
 20
-7.068899332640938
 30
0.0
 10
-145.7560877282622
 20
-6.082087941366324
 30
0.0
 10
-146.1764736667709
 20
-5.009827898133843
 30
0.0
 10
-146.5724839710224
 20
-3.855708582052671
 30
0.0
 10
-146.7083446489957
 20
-3.459858996267341
 30
0.0
 10
-146.8414731130189
 20
-3.051205505898105
 30
0.0
 10
-146.9725658097853
 20
-2.634408946498548
 30
0.0
 10
-147.3992197685323
 20
-1.277945079667139
 30
0.0
 10
-147.8000516268124
 20
0.1841108204001687
 30
0.0
 10
-148.1674540438239
 20
1.732365391945477
 30
0.0
 10
-149.3914858933266
 20
6.89019602808691
 30
0.0
 10
-147.3098067277056
 20
12.61964868077739
 30
0.0
 10
-142.3057836650911
 20
17.86528517307114
 30
0.0
  0
SPLINE
  5
82
330
79
100
AcDbEntity
  8
Layer 1
100
AcDbSpline
210
0.0
220
0.0
230
1.0
 70
    11
 71
     3
 72
   116
 73
   112
 74
     0
 42
0.0000000001
 43
0.0000000001
 40
0.0
 40
0.0
 40
0.0
 40
0.0
 40
1.0
 40
1.0
 40
1.0
 40
2.0
 40
2.0
 40
2.0
 40
3.0
 40
3.0
 40
3.0
 40
4.0
 40
4.0
 40
4.0
 40
5.0
 40
5.0
 40
5.0
 40
6.0
 40
6.0
 40
6.0
 40
7.0
 40
7.0
 40
7.0
 40
8.0
 40
8.0
 40
8.0
 40
9.0
 40
9.0
 40
9.0
 40
10.0
 40
10.0
 40
10.0
 40
11.0
 40
11.0
 40
11.0
 40
12.0
 40
12.0
 40
12.0
 40
13.0
 40
13.0
 40
13.0
 40
14.0
 40
14.0
 40
14.0
 40
15.0
 40
15.0
 40
15.0
 40
16.0
 40
16.0
 40
16.0
 40
17.0
 40
17.0
 40
17.0
 40
18.0
 40
18.0
 40
18.0
 40
19.0
 40
19.0
 40
19.0
 40
20.0
 40
20.0
 40
20.0
 40
21.0
 40
21.0
 40
21.0
 40
22.0
 40
22.0
 40
22.0
 40
23.0
 40
23.0
 40
23.0
 40
24.0
 40
24.0
 40
24.0
 40
25.0
 40
25.0
 40
25.0
 40
26.0
 40
26.0
 40
26.0
 40
27.0
 40
27.0
 40
27.0
 40
28.0
 40
28.0
 40
28.0
 40
29.0
 40
29.0
 40
29.0
 40
30.0
 40
30.0
 40
30.0
 40
31.0
 40
31.0
 40
31.0
 40
32.0
 40
32.0
 40
32.0
 40
33.0
 40
33.0
 40
33.0
 40
34.0
 40
34.0
 40
34.0
 40
35.0
 40
35.0
 40
35.0
 40
36.0
 40
36.0
 40
36.0
 40
37.0
 40
37.0
 40
37.0
 40
37.0
 10
-48.60397052908933
 20
71.66932801991848
 30
0.0
 10
-48.60397052908933
 20
71.66932801991848
 30
0.0
 10
-61.74538389931623
 20
17.58033132995464
 30
0.0
 10
-61.74538389931623
 20
17.58033132995464
 30
0.0
 10
-61.76124145478873
 20
17.58381356342047
 30
0.0
 10
-61.7776347384879
 20
17.58702793277198
 30
0.0
 10
-61.79354586678478
 20
17.59051016623717
 30
0.0
 10
-62.01223012841108
 20
17.63856498806012
 30
0.0
 10
-62.23493235173022
 20
17.68436975133678
 30
0.0
 10
-62.45731313811258
 20
17.73038880590367
 30
0.0
 10
-62.67797959417501
 20
17.77603285070905
 30
0.0
 10
-62.89843175894627
 20
17.8218376139854
 30
0.0
 10
-63.12263402129605
 20
17.86549946435816
 30
0.0
 10
-63.3493542063061
 20
17.90969704296083
 30
0.0
 10
-63.57971734324782
 20
17.95169813583295
 30
0.0
 10
-63.81002690736834
 20
17.99385994717604
 30
0.0
 10
-64.03717567495757
 20
18.03543245747315
 30
0.0
 10
-64.26416372407937
 20
18.07700496776739
 30
0.0
 10
-64.49468757948981
 20
18.11659528362836
 30
0.0
 10
-64.72719362933445
 20
18.15650703642163
 30
0.0
 10
-64.96312833982212
 20
18.19443659478581
 30
0.0
 10
-65.19900947748604
 20
18.23236615314614
 30
0.0
 10
-65.43483704232747
 20
18.27024213868721
 30
0.0
 10
-65.67082532563762
 20
18.30806455140387
 30
0.0
 10
-65.91002797830026
 20
18.34395834250846
 30
0.0
 10
-66.14874847555931
 20
18.37974498796618
 30
0.0
 10
-66.39057619652589
 20
18.41365658463913
 30
0.0
 10
-66.63256463596183
 20
18.44740746284111
 30
0.0
 10
-66.87455307539519
 20
18.48121191386653
 30
0.0
 10
-67.11680937894222
 20
18.5148556464242
 30
0.0
 10
-67.36201218773064
 20
18.54657075737044
 30
0.0
 10
-67.60705427804905
 20
18.57833944114013
 30
0.0
 10
-67.85488215514205
 20
18.60828664894174
 30
0.0
 10
-68.1030850419911
 20
18.63796599263194
 30
0.0
 10
-68.35246653093722
 20
18.66780605478988
 30
0.0
 10
-68.60222302964068
 20
18.69748539848007
 30
0.0
 10
-68.85476531511681
 20
18.72528969338132
 30
0.0
 10
-69.10553969744862
 20
18.75287969699265
 30
0.0
 10
-69.35893914808629
 20
18.77875537027895
 30
0.0
 10
-69.61276718130315
 20
18.80441675228079
 30
0.0
 10
-69.86836311766367
 20
18.83018527992341
 30
0.0
 10
-70.12449478224962
 20
18.85568594345525
 30
0.0
 10
-70.38314436949582
 20
18.87941870384182
 30
0.0
 10
-70.63943675255112
 20
18.90293717293751
 30
0.0
 10
-70.89808633979541
 20
18.92479488453609
 30
0.0
 10
-71.15732522809016
 20
18.94633115919982
 30
0.0
 10
-71.42079636936509
 20
18.9681888707984
 30
0.0
 10
-71.68485681168855
 20
18.98961799981781
 30
0.0
 10
-71.95132803102605
 20
19.00938637133689
 30
0.0
 10
-72.21024548238465
 20
19.02856544180649
 30
0.0
 10
-72.47135941946801
 20
19.04629804606952
 30
0.0
 10
-72.73306265759799
 20
19.06354849492737
 30
0.0
 10
-73.00505187765835
 20
19.08149539048159
 30
0.0
 10
-73.27784469005584
 20
19.09885298498664
 30
0.0
 10
-73.55272684253252
 20
19.11465696763761
 30
0.0
 10
-73.81646584792112
 20
19.12981807641596
 30
0.0
 10
-74.08207990209707
 20
19.14353271898711
 30
0.0
 10
-74.34844397579024
 20
19.15671163333317
 30
0.0
 10
-74.47659016731726
 20
19.16303322639478
 30
0.0
 10
-74.60248630029702
 20
19.17106914977469
 30
0.0
 10
-74.73127536569632
 20
19.17696216025456
 30
0.0
 10
-74.73127536569632
 20
19.17696216025456
 30
0.0
 10
-88.24335909510836
 20
71.66932801991848
 30
0.0
 10
-88.24335909510836
 20
71.66932801991848
 30
0.0
 10
-88.24335909510836
 20
71.66932801991848
 30
0.0
 10
-129.3601789612652
 20
71.66932801991848
 30
0.0
 10
-129.3601789612652
 20
71.66932801991848
 30
0.0
 10
-129.3601789612652
 20
71.66932801991848
 30
0.0
 10
-140.6441690010421
 20
24.06408932407734
 30
0.0
 10
-140.6441690010421
 20
24.06408932407734
 30
0.0
 10
-146.5354651506439
 20
19.46952334417115
 30
0.0
 10
-150.4886572990424
 20
13.87641352485437
 30
0.0
 10
-151.6555269468901
 20
8.164479185135727
 30
0.0
 10
-151.6555269468901
 20
8.164479185135727
 30
0.0
 10
-167.0915178795291
 20
71.66932801991848
 30
0.0
 10
-167.0915178795291
 20
71.66932801991848
 30
0.0
 10
-167.0915178795291
 20
71.66932801991848
 30
0.0
 10
-216.9583332790938
 20
71.66932801991848
 30
0.0
 10
-216.9583332790938
 20
71.66932801991848
 30
0.0
 10
-216.9583332790938
 20
71.66932801991848
 30
0.0
 10
-175.5143977584789
 20
-84.31233779055686
 30
0.0
 10
-175.5143977584789
 20
-84.31233779055686
 30
0.0
 10
-175.5143977584789
 20
-84.31233779055686
 30
0.0
 10
-174.9610440744203
 20
-86.38673105231326
 30
0.0
 10
-174.9610440744203
 20
-86.38673105231326
 30
0.0
 10
-174.9610440744203
 20
-86.38673105231326
 30
0.0
 10
-129.6164177714973
 20
-86.38673105231326
 30
0.0
 10
-129.6164177714973
 20
-86.38673105231326
 30
0.0
 10
-129.6164177714973
 20
-86.38673105231326
 30
0.0
 10
-119.0059452567532
 20
-42.07129224329926
 30
0.0
 10
-119.0059452567532
 20
-42.07129224329926
 30
0.0
 10
-117.9420961466593
 20
-41.26453910859776
 30
0.0
 10
-117.0030181402718
 20
-40.31174645963944
 30
0.0
 10
-116.2133547359629
 20
-39.2402900087438
 30
0.0
 10
-113.6743779570996
 20
-42.07616737015078
 30
0.0
 10
-109.9507453533037
 20
-43.77726520441392
 30
0.0
 10
-105.8776572280492
 20
-43.77726520441392
 30
0.0
 10
-105.0453498569947
 20
-43.77726520441392
 30
0.0
 10
-104.213096058762
 20
-43.67997695867289
 30
0.0
 10
-103.3870567079444
 20
-43.53570534755973
 30
0.0
 10
-103.3870567079444
 20
-43.53570534755973
 30
0.0
 10
-92.52023823732249
 20
-86.38673105231326
 30
0.0
 10
-92.52023823732249
 20
-86.38673105231326
 30
0.0
 10
-92.52023823732249
 20
-86.38673105231326
 30
0.0
 10
-48.88201347809793
 20
-86.38673105231326
 30
0.0
 10
-48.88201347809793
 20
-86.38673105231326
 30
0.0
 10
-48.88201347809793
 20
-86.38673105231326
 30
0.0
 10
-6.958333331594013
 20
71.66932801991848
 30
0.0
 10
-6.958333331594013
 20
71.66932801991848
 30
0.0
 10
-6.958333331594013
 20
71.66932801991848
 30
0.0
 10
-48.60397052908933
 20
71.66932801991848
 30
0.0
 10
-48.60397052908933
 20
71.66932801991848
 30
0.0
  0
HATCH
  5
83
330
79
100
AcDbEntity
  8
Layer 1
 62
     7
440
 33554687
100
AcDbHatch
 10
0.0
 20
0.0
 30
0.0
210
0.0
220
0.0
230
1.0
  2
SOLID
 70
     1
 71
     1
 91
        6
 92
        1
 93
        1
 72
     4
 94
        3
 73
     0
 74
     0
 95
      128
 96
      124
 40
0.0
 40
0.0
 40
0.0
 40
0.0
 40
1.0
 40
1.0
 40
1.0
 40
2.0
 40
2.0
 40
2.0
 40
3.0
 40
3.0
 40
3.0
 40
4.0
 40
4.0
 40
4.0
 40
5.0
 40
5.0
 40
5.0
 40
6.0
 40
6.0
 40
6.0
 40
7.0
 40
7.0
 40
7.0
 40
8.0
 40
8.0
 40
8.0
 40
9.0
 40
9.0
 40
9.0
 40
10.0
 40
10.0
 40
10.0
 40
11.0
 40
11.0
 40
11.0
 40
12.0
 40
12.0
 40
12.0
 40
13.0
 40
13.0
 40
13.0
 40
14.0
 40
14.0
 40
14.0
 40
15.0
 40
15.0
 40
15.0
 40
16.0
 40
16.0
 40
16.0
 40
17.0
 40
17.0
 40
17.0
 40
18.0
 40
18.0
 40
18.0
 40
19.0
 40
19.0
 40
19.0
 40
20.0
 40
20.0
 40
20.0
 40
21.0
 40
21.0
 40
21.0
 40
22.0
 40
22.0
 40
22.0
 40
23.0
 40
23.0
 40
23.0
 40
24.0
 40
24.0
 40
24.0
 40
25.0
 40
25.0
 40
25.0
 40
26.0
 40
26.0
 40
26.0
 40
27.0
 40
27.0
 40
27.0
 40
28.0
 40
28.0
 40
28.0
 40
29.0
 40
29.0
 40
29.0
 40
30.0
 40
30.0
 40
30.0
 40
31.0
 40
31.0
 40
31.0
 40
32.0
 40
32.0
 40
32.0
 40
33.0
 40
33.0
 40
33.0
 40
34.0
 40
34.0
 40
34.0
 40
35.0
 40
35.0
 40
35.0
 40
36.0
 40
36.0
 40
36.0
 40
37.0
 40
37.0
 40
37.0
 40
38.0
 40
38.0
 40
38.0
 40
39.0
 40
39.0
 40
39.0
 40
40.0
 40
40.0
 40
40.0
 40
41.0
 40
41.0
 40
41.0
 40
41.0
 10
-76.3331027597826
 20
-18.40324782560921
 10
-77.69315600572608
 20
-19.04826460904882
 10
-79.08042424552194
 20
-19.67656667185312
 10
-80.49238955651249
 20
-20.2872432760419
 10
-83.31262365373431
 20
-21.50698929974194
 10
-86.23153889008545
 20
-22.65612634332343
 10
-89.22840258323899
 20
-23.72688634752655
 10
-89.23220625363935
 20
-23.72827924091256
 10
-89.23574205992798
 20
-23.72972570712233
 10
-89.23954573032835
 20
-23.73106502768523
 10
-89.63453815094956
 20
-23.8721758422671
 10
-90.04158445664543
 20
-24.00016131532635
 10
-90.43920194557122
 20
-24.13848634313878
 10
-91.55239162523015
 20
-24.52576427731236
 10
-92.66504557666172
 20
-24.91389937664911
 10
-93.79773576372476
 20
-25.27910530793934
 10
-93.79773576372476
 20
-25.27910530793934
 10
-93.79928937557853
 20
-25.27958746334164
 10
-93.79928937557853
 20
-25.27958746334164
 10
-94.60839971447221
 20
-25.54021924502111
 10
-95.4237780736028
 20
-25.79554731727053
 10
-96.24408513240897
 20
-26.04546453444207
 10
-99.4242214514865
 20
-27.01357901064585
 10
-102.6635021666558
 20
-27.89056611570342
 10
-105.8720320816821
 20
-28.65199664253375
 10
-106.2748461343959
 20
-28.74757055795392
 10
-106.6881068875074
 20
-28.82814408306027
 10
-107.0933317172353
 20
-28.92087863888369
 10
-108.917111315126
 20
-29.33831807215265
 10
-110.7571234782479
 20
-29.72173876310532
 10
-112.6101538372477
 20
-30.07746230480298
 10
-113.7129503893313
 20
-30.28918209949923
 10
-114.815157640367
 20
-30.50765206983915
 10
-115.9196149499487
 20
-30.69569267696874
 10
-116.045886092687
 20
-30.71722895163246
 10
-116.1709250605059
 20
-30.73614015799094
 10
-116.2970354847775
 20
-30.75735499571949
 10
-116.9244803824215
 20
-30.86305417459906
 10
-117.5511752605495
 20
-30.96714616880399
 10
-118.1751379247287
 20
-31.06422012325383
 10
-119.7715008909172
 20
-31.31215514599339
 10
-121.3618101281568
 20
-31.53394663132849
 10
-122.9433869953236
 20
-31.72938028797148
 10
-124.1295428592869
 20
-31.87595553045404
 10
-125.3108235963976
 20
-32.0076375282671
 10
-126.4859970317396
 20
-32.12437270859236
 10
-127.3673771082454
 20
-32.21191070062972
 10
-128.2453820969319
 20
-32.29109133235296
 10
-129.1194226967488
 20
-32.3617538852911
 10
-131.7416516418481
 20
-32.5738486897418
 10
-134.3286832425324
 20
-32.70976294054018
 10
-136.8675528757508
 20
-32.76837160840428
 10
-137.8135417762462
 20
-32.79022932000254
 10
-138.7630664830296
 20
-32.8013188942691
 10
-139.6898763130531
 20
-32.8013188942691
 10
-160.2272321268733
 20
-32.8013188942691
 10
-170.8215792220268
 20
-27.57475432680192
 10
-171.9740377806102
 20
-22.71859225441166
 10
-173.0315117248223
 20
-18.26256559360875
 10
-167.1749307642306
 20
-10.34696677133179
 10
-151.9635171037
 20
-2.147914144968972
 10
-151.1277810720012
 20
-4.510154182258209
 10
-150.2555083753281
 20
-6.652370637356655
 10
-149.3568778499628
 20
-8.54761638052013
 10
-149.3568778499628
 20
-8.54761638052013
 10
-148.4449612646058
 20
-10.47088070987604
 10
-148.4449612646058
 20
-10.47088070987604
 10
-148.4449612646058
 20
-10.47088070987604
 10
-147.5358840388447
 20
-10.50548875324215
 10
-147.5358840388447
 20
-10.50548875324215
 10
-147.5358840388447
 20
-10.50548875324215
 10
-146.3180130639345
 20
-10.55182924474423
 10
-146.3180130639345
 20
-10.55182924474423
 10
-145.6930860889501
 20
-10.5756155779507
 10
-144.6466481461831
 20
-10.60395560107896
 10
-143.2103072009353
 20
-10.60395560107896
 10
-141.3584554440325
 20
-10.60395560107896
 10
-139.3975829932495
 20
-10.55686509006349
 10
-137.3818519721806
 20
-10.46391624294503
 10
-134.7106038944538
 20
-10.34069875109394
 10
-132.0045870548963
 20
-10.13503268534467
 10
-129.286462757443
 20
-9.859293367706756
 10
-129.2861413205087
 20
-9.859239794883317
 10
-129.2858734563957
 20
-9.859239794883317
 10
-129.2855520194602
 20
-9.859186222059555
 10
-126.8658283435818
 20
-9.613608403514767
 10
-124.4366758509364
 20
-9.313814888555102
 10
-122.0115413199795
 20
-8.950644724523813
 10
-113.7963097012116
 20
-7.719755553737621
 10
-105.8326024842902
 20
-5.841117385561627
 10
-98.34156828067998
 20
-3.366910149155938
 10
-96.17647623035621
 20
-2.651766541003598
 10
-94.05381385548951
 20
-1.874371313058073
 10
-91.96613453374272
 20
-1.05931439085979
 10
-89.17675838230557
 20
0.0297675186520067
 10
-86.45691975453166
 20
1.194172816662905
 10
-83.85001263668135
 20
2.443973193808551
 10
-81.79329840636677
 20
3.430034565566561
 10
-79.77713880271616
 20
4.472133109706557
 10
-77.8574638524707
 20
5.541232356409037
 10
-77.8574638524707
 20
5.541232356409037
 10
-76.81204379333263
 20
6.123461791826206
 10
-76.81204379333263
 20
6.123461791826206
 10
-76.81204379333263
 20
6.123461791826206
 10
-76.01332658201234
 20
6.56827693741435
 10
-76.01332658201234
 20
6.56827693741435
 10
-76.01332658201234
 20
6.56827693741435
 10
-76.05554196617823
 20
8.678671135919989
 10
-76.05554196617823
 20
8.678671135919989
 10
-76.09840022421447
 20
10.82324479520871
 10
-76.2825300153013
 20
13.18543125967419
 10
-76.60482411573056
 20
15.73501545740274
 10
-75.64501342701811
 20
15.70747902661195
 10
-74.72115010223402
 20
15.66322787518937
 10
-73.81357291550415
 20
15.61190511119211
 10
-69.47674578486173
 20
15.36654158393755
 10
-65.73671989736664
 20
14.85824264363316
 10
-62.57635194980756
 20
14.16018876587444
 10
-54.49060584312921
 20
12.37417800787916
 10
-50.19776199979571
 20
9.35508159337067
 10
-49.48460058608048
 20
6.349806967077641
 10
-48.24990774489136
 20
1.147028732821105
 10
-56.12505908614707
 20
-8.818266280015018
 10
-76.3331027597826
 20
-18.40324782560921
 97
        0
 97
        1
330
7D
 92
        1
 93
        1
 72
     4
 94
        3
 73
     0
 74
     0
 95
       65
 96
       61
 40
0.0
 40
0.0
 40
0.0
 40
0.0
 40
1.0
 40
1.0
 40
1.0
 40
2.0
 40
2.0
 40
2.0
 40
3.0
 40
3.0
 40
3.0
 40
4.0
 40
4.0
 40
4.0
 40
5.0
 40
5.0
 40
5.0
 40
6.0
 40
6.0
 40
6.0
 40
7.0
 40
7.0
 40
7.0
 40
8.0
 40
8.0
 40
8.0
 40
9.0
 40
9.0
 40
9.0
 40
10.0
 40
10.0
 40
10.0
 40
11.0
 40
11.0
 40
11.0
 40
12.0
 40
12.0
 40
12.0
 40
13.0
 40
13.0
 40
13.0
 40
14.0
 40
14.0
 40
14.0
 40
15.0
 40
15.0
 40
15.0
 40
16.0
 40
16.0
 40
16.0
 40
17.0
 40
17.0
 40
17.0
 40
18.0
 40
18.0
 40
18.0
 40
19.0
 40
19.0
 40
19.0
 40
20.0
 40
20.0
 40
20.0
 40
20.0
 10
-82.95984661727771
 20
-31.1664370686711
 10
-83.40337601512544
 20
-31.27170766497118
 10
-83.8463161119253
 20
-31.34553101443707
 10
-84.28705972300164
 20
-31.39492515682291
 10
-84.43433141217736
 20
-31.41142558616704
 10
-84.57946018845015
 20
-31.41008626560415
 10
-84.726142576578
 20
-31.4205329659981
 10
-85.02191812984834
 20
-31.44158708525953
 10
-85.31785440158357
 20
-31.46344479685747
 10
-85.61020129421217
 20
-31.46044471879394
 10
-85.7138111330132
 20
-31.45937326234632
 10
-85.81576021431553
 20
-31.44978372710976
 10
-85.91883432489179
 20
-31.44576576541787
 10
-86.22436013186389
 20
-31.43387259881448
 10
-86.52752873464507
 20
-31.41088985794452
 10
-86.82732224960506
 20
-31.37360317345006
 10
-86.95589702371188
 20
-31.35758489951143
 10
-87.08361463266035
 20
-31.33904870291156
 10
-87.21090365902645
 20
-31.31847673905179
 10
-87.50287554189513
 20
-31.27133265521287
 10
-87.7907758902498
 20
-31.21127752113965
 10
-88.07514043231712
 20
-31.14077568667215
 10
-88.17762524184614
 20
-31.11538216878463
 10
-88.28171723605139
 20
-31.09464948646095
 10
-88.38307701630453
 20
-31.06630946333333
 10
-88.75958681314996
 20
-30.96093172138926
 10
-89.12923928870803
 20
-30.83792852082583
 10
-89.48828434540345
 20
-30.69301403584328
 10
-89.55219672269953
 20
-30.66724550819712
 10
-89.61262686652945
 20
-30.63494109620523
 10
-89.67594994277764
 20
-30.60788682081995
 10
-89.97102904935387
 20
-30.48199068783666
 10
-90.25935798029026
 20
-30.34361208720433
 10
-90.53986527913409
 20
-30.19200099940507
 10
-90.64797523502834
 20
-30.13355305000873
 10
-90.75346012261929
 20
-30.07108713892082
 10
-90.85921287432325
 20
-30.00894266476778
 10
-91.09868339109892
 20
-29.86826043276444
 10
-91.3313501594097
 20
-29.71782794706064
 10
-91.55774890748427
 20
-29.55871666410142
 10
-91.60923238994959
 20
-29.52250143606196
 10
-91.66109088217291
 20
-29.48676836342416
 10
-91.71187791794542
 20
-29.44964239740034
 10
-91.75468260315918
 20
-29.41835586903616
 10
-91.79946948280589
 20
-29.38964083615055
 10
-91.84179201261608
 20
-29.3576578610932
 10
-92.14731781958946
 20
-29.12686614156783
 10
-92.4437362467289
 20
-28.88439554673313
 10
-92.72027915670557
 20
-28.62065654134292
 10
-92.40500309602916
 20
-28.51897532415459
 10
-92.09503074478504
 20
-28.41300828116135
 10
-91.7816297328992
 20
-28.30977345211669
 10
-87.317620721535
 20
-26.83968162866691
 10
-83.04224161835215
 20
-25.21728227072149
 10
-79.02631569475201
 20
-23.47809415962993
 10
-77.59372484708276
 20
-22.8576673017378
 10
-76.19354555705449
 20
-22.22282935458359
 10
-74.82867075708101
 20
-21.57556251259705
 10
-74.9621742308628
 20
-26.00823142277137
 10
-78.20874084989731
 20
-30.03894344539315
 10
-82.95984661727771
 20
-31.1664370686711
 97
        0
 97
        1
330
7E
 92
        1
 93
        1
 72
     4
 94
        3
 73
     0
 74
     0
 95
      134
 96
      130
 40
0.0
 40
0.0
 40
0.0
 40
0.0
 40
1.0
 40
1.0
 40
1.0
 40
2.0
 40
2.0
 40
2.0
 40
3.0
 40
3.0
 40
3.0
 40
4.0
 40
4.0
 40
4.0
 40
5.0
 40
5.0
 40
5.0
 40
6.0
 40
6.0
 40
6.0
 40
7.0
 40
7.0
 40
7.0
 40
8.0
 40
8.0
 40
8.0
 40
9.0
 40
9.0
 40
9.0
 40
10.0
 40
10.0
 40
10.0
 40
11.0
 40
11.0
 40
11.0
 40
12.0
 40
12.0
 40
12.0
 40
13.0
 40
13.0
 40
13.0
 40
14.0
 40
14.0
 40
14.0
 40
15.0
 40
15.0
 40
15.0
 40
16.0
 40
16.0
 40
16.0
 40
17.0
 40
17.0
 40
17.0
 40
18.0
 40
18.0
 40
18.0
 40
19.0
 40
19.0
 40
19.0
 40
20.0
 40
20.0
 40
20.0
 40
21.0
 40
21.0
 40
21.0
 40
22.0
 40
22.0
 40
22.0
 40
23.0
 40
23.0
 40
23.0
 40
24.0
 40
24.0
 40
24.0
 40
25.0
 40
25.0
 40
25.0
 40
26.0
 40
26.0
 40
26.0
 40
27.0
 40
27.0
 40
27.0
 40
28.0
 40
28.0
 40
28.0
 40
29.0
 40
29.0
 40
29.0
 40
30.0
 40
30.0
 40
30.0
 40
31.0
 40
31.0
 40
31.0
 40
32.0
 40
32.0
 40
32.0
 40
33.0
 40
33.0
 40
33.0
 40
34.0
 40
34.0
 40
34.0
 40
35.0
 40
35.0
 40
35.0
 40
36.0
 40
36.0
 40
36.0
 40
37.0
 40
37.0
 40
37.0
 40
38.0
 40
38.0
 40
38.0
 40
39.0
 40
39.0
 40
39.0
 40
40.0
 40
40.0
 40
40.0
 40
41.0
 40
41.0
 40
41.0
 40
42.0
 40
42.0
 40
42.0
 40
43.0
 40
43.0
 40
43.0
 40
43.0
 10
-99.12067783894862
 20
-37.94827424743131
 10
-99.59833312475728
 20
-38.32269470419691
 10
-100.1126857940096
 20
-38.65998919493806
 10
-100.659932176304
 20
-38.95415756353249
 10
-101.2071785585989
 20
-39.24832593212628
 10
-101.7873186539347
 20
-39.49931460574896
 10
-102.3964416462691
 20
-39.70117700109786
 10
-102.7010031424359
 20
-39.80210819877216
 10
-103.0128505424693
 20
-39.89077122008474
 10
-103.33139454532
 20
-39.96636247269142
 10
-103.3316088366112
 20
-39.96641604551518
 10
-103.3318231279005
 20
-39.96641604551518
 10
-103.3320374191911
 20
-39.96646961833894
 10
-103.6391168380169
 20
-40.0393286569996
 10
-103.9450176547477
 20
-40.08293693454957
 10
-104.2510256171233
 20
-40.12884884347311
 10
-104.3284383457016
 20
-40.14047414596188
 10
-104.4063332296809
 20
-40.15997465336954
 10
-104.4836388126129
 20
-40.1699391983612
 10
-104.5966774681821
 20
-40.18451100609358
 10
-104.7092339683484
 20
-40.19383267721873
 10
-104.8219511869827
 20
-40.20476153301785
 10
-105.1063157290501
 20
-40.23240510944878
 10
-105.3894480961985
 20
-40.24890553879323
 10
-105.6710804243169
 20
-40.25426282104737
 10
-105.7396000643518
 20
-40.25554856879002
 10
-105.8093518793056
 20
-40.26631670612141
 10
-105.8776572280492
 20
-40.26631670612141
 10
-105.9347122840605
 20
-40.26631670612141
 10
-105.9907494564422
 20
-40.2611201423347
 10
-106.0476437939841
 20
-40.26020940435066
 10
-106.1543072836709
 20
-40.25854864685292
 10
-106.2603278994872
 20
-40.25361994717764
 10
-106.3664020881248
 20
-40.24879839314924
 10
-106.5519783454204
 20
-40.24038746000814
 10
-106.7365902919102
 20
-40.22747640977639
 10
-106.9200772091267
 20
-40.20963665986969
 10
-107.0255085238926
 20
-40.19940425076051
 10
-107.1307791201936
 20
-40.18885040471936
 10
-107.2354604154461
 20
-40.17556434472964
 10
-107.4265011006408
 20
-40.15124228329326
 10
-107.6155595914014
 20
-40.12022361904049
 10
-107.8037609170009
 20
-40.08588343978966
 10
-107.8944061327458
 20
-40.06932943762498
 10
-107.9858013680086
 20
-40.05550764940631
 10
-108.0756965642382
 20
-40.03670358869469
 10
-108.3317746560023
 20
-39.98313076615018
 10
-108.5849598153481
 20
-39.92103986482059
 10
-108.8343948771161
 20
-39.84935942825474
 10
-108.85298464654
 20
-39.84400214600093
 10
-108.8722172898331
 20
-39.84041276689143
 10
-108.8908070592564
 20
-39.8349483389901
 10
-109.1572782785932
 20
-39.75678559089843
 10
-109.4187136526127
 20
-39.66619394797378
 10
-109.6763453562306
 20
-39.56794139142783
 10
-109.7594368039966
 20
-39.53627985330245
 10
-109.8400639019267
 20
-39.49990390679492
 10
-109.9221374660643
 20
-39.46615302859294
 10
-110.0965705762706
 20
-39.39447259202774
 10
-110.2696107930906
 20
-39.32011351433644
 10
-110.4392223492675
 20
-39.23943284358256
 10
-110.5322247692046
 20
-39.19523526498375
 10
-110.6236200044654
 20
-39.14825189961258
 10
-110.71506881255
 20
-39.10137567988478
 10
-110.8716621728484
 20
-39.02101644606993
 10
-111.0259519017776
 20
-38.93701426031831
 10
-111.177777280869
 20
-38.84904768569889
 10
-111.2670296032288
 20
-38.79734991194299
 10
-111.3560676342981
 20
-38.74549141971968
 10
-111.443552053513
 20
-38.69122215048264
 10
-111.5998239768752
 20
-38.59430891449927
 10
-111.751970792904
 20
-38.49177053214778
 10
-111.9023497057872
 20
-38.38676779996202
 10
-111.9766552106554
 20
-38.33490930773838
 10
-112.0526214730249
 20
-38.28524730123823
 10
-112.1254269388631
 20
-38.23146018740253
 10
-112.3330216262244
 20
-38.07808119645896
 10
-112.535151885686
 20
-37.91779131140428
 10
-112.7298890956355
 20
-37.74914406603516
 10
-112.7406036601444
 20
-37.73987596773377
 10
-112.7522289626367
 20
-37.73173289870699
 10
-112.7628363814994
 20
-37.72246480040561
 10
-112.9666809712828
 20
-37.54438873826703
 10
-113.1612574627662
 20
-37.35624098549024
 10
-113.3496730796557
 20
-37.16203950376647
 10
-113.4106389517117
 20
-37.09914501009971
 10
-113.4677475805435
 20
-37.03255399167304
 10
-113.5270526951014
 20
-36.96805231332972
 10
-113.6526273911463
 20
-36.83138804302116
 10
-113.7757377373534
 20
-36.69258085980708
 10
-113.8934372284852
 20
-36.54879140409622
 10
-113.9575638970705
 20
-36.4703607918896
 10
-114.0192797886431
 20
-36.38984083960379
 10
-114.0810492530363
 20
-36.30932088732153
 10
-114.187980606836
 20
-36.16987083023741
 10
-114.2911082902341
 20
-36.02731354944577
 10
-114.3904323032325
 20
-35.88170261777004
 10
-114.3915573325058
 20
-35.88004186026939
 10
-114.392628788956
 20
-35.87838110277196
 10
-114.3937538182299
 20
-35.87677391809477
 10
-114.4501124275471
 20
-35.79411105290956
 10
-114.5063638912199
 20
-35.71139461489706
 10
-114.5601510050537
 20
-35.62680312810332
 10
-114.6605464745029
 20
-35.46903116570603
 10
-114.7546203508908
 20
-35.30670551339562
 10
-114.845908440508
 20
-35.1423976666526
 10
-114.8889274170117
 20
-35.06493136525088
 10
-114.9345178889968
 20
-34.98928653981692
 10
-114.9754475254207
 20
-34.91048091785552
 10
-115.1027901246099
 20
-34.66527810906871
 10
-115.2223646645297
 20
-34.41487873649168
 10
-115.3287067172809
 20
-34.15655058618193
 10
-114.7764780624897
 20
-34.06253028261585
 10
-114.2169099310102
 20
-33.94590224793779
 10
-113.6624847904943
 20
-33.8456139241329
 10
-111.2007064489174
 20
-33.40042376878582
 10
-108.7218919497729
 20
-32.89689280968958
 10
-106.2300056819267
 20
-32.32527079313636
 10
-105.8397812425098
 20
-32.23575060666381
 10
-105.4520211529313
 20
-32.1608022279227
 10
-105.0613681309353
 20
-32.06806767209928
 10
-102.1759894814978
 20
-31.38335342715405
 10
-99.35205885951932
 20
-30.61324410307087
 10
-96.57720094299143
 20
-29.794222792008
 10
-96.57720094299143
 20
-29.794222792008
 10
-95.25063071113853
 20
-31.0591842779381
 10
-95.25063071113853
 20
-31.0591842779381
 10
-95.52631645595429
 20
-33.74746851323095
 10
-96.93667458226668
 20
-36.23624755736936
 10
-99.12067783894862
 20
-37.94827424743131
 97
        0
 97
        1
330
7F
 92
        1
 93
        1
 72
     4
 94
        3
 73
     0
 74
     0
 95
       77
 96
       73
 40
0.0
 40
0.0
 40
0.0
 40
0.0
 40
1.0
 40
1.0
 40
1.0
 40
2.0
 40
2.0
 40
2.0
 40
3.0
 40
3.0
 40
3.0
 40
4.0
 40
4.0
 40
4.0
 40
5.0
 40
5.0
 40
5.0
 40
6.0
 40
6.0
 40
6.0
 40
7.0
 40
7.0
 40
7.0
 40
8.0
 40
8.0
 40
8.0
 40
9.0
 40
9.0
 40
9.0
 40
10.0
 40
10.0
 40
10.0
 40
11.0
 40
11.0
 40
11.0
 40
12.0
 40
12.0
 40
12.0
 40
13.0
 40
13.0
 40
13.0
 40
14.0
 40
14.0
 40
14.0
 40
15.0
 40
15.0
 40
15.0
 40
16.0
 40
16.0
 40
16.0
 40
17.0
 40
17.0
 40
17.0
 40
18.0
 40
18.0
 40
18.0
 40
19.0
 40
19.0
 40
19.0
 40
20.0
 40
20.0
 40
20.0
 40
21.0
 40
21.0
 40
21.0
 40
22.0
 40
22.0
 40
22.0
 40
23.0
 40
23.0
 40
23.0
 40
24.0
 40
24.0
 40
24.0
 40
24.0
 10
-125.2120353116253
 20
-41.19344797308142
 10
-125.593098798387
 20
-41.28387889753446
 10
-125.973465838454
 20
-41.34586265322008
 10
-126.3526542764259
 20
-41.39498893149514
 10
-126.4551390859542
 20
-41.4082214186611
 10
-126.5573560313696
 20
-41.41898955599312
 10
-126.6595729767849
 20
-41.42932911074598
 10
-126.9818135043917
 20
-41.46195495967593
 10
-127.3026611386121
 20
-41.48145546708071
 10
-127.6212587142854
 20
-41.48541985594883
 10
-127.6797602365048
 20
-41.48616987546511
 10
-127.7388510597715
 20
-41.49104500231727
 10
-127.7971918635236
 20
-41.4908307110264
 10
-128.2160241901773
 20
-41.48927709917264
 10
-128.629445661755
 20
-41.45820486209611
 10
-129.0382062977714
 20
-41.40923930228882
 10
-129.1245121148912
 20
-41.39889974753885
 10
-129.210603640721
 20
-41.38791731891949
 10
-129.2963201567922
 20
-41.37548842408683
 10
-129.7000985203119
 20
-41.31709404751425
 10
-130.0988410385122
 20
-41.24043133845225
 10
-130.4881547399445
 20
-41.13778581045709
 10
-130.5416739896678
 20
-41.12364258530323
 10
-130.593478909068
 20
-41.10553497128511
 10
-130.6466767218551
 20
-41.09058815379474
 10
-131.0105969054017
 20
-40.98847835402531
 10
-131.3666418840333
 20
-40.867028765315
 10
-131.714168783882
 20
-40.7279537179895
 10
-131.7721345778748
 20
-40.70475668582803
 10
-131.8315468380777
 20
-40.68450615890728
 10
-131.8890304766681
 20
-40.66034481593834
 10
-132.2544506992454
 20
-40.50648366958927
 10
-132.607763463928
 20
-40.32974692801357
 10
-132.9505759553923
 20
-40.13661690274096
 10
-133.0228456930051
 20
-40.09590155760411
 10
-133.0939368285215
 20
-40.05352545497401
 10
-133.1651351096834
 20
-40.01114935233942
 10
-133.5074654457448
 20
-39.80725118973542
 10
-133.8405812563285
 20
-39.58920980197692
 10
-134.1551608703108
 20
-39.34770351794681
 10
-134.1813044077124
 20
-39.3276137094935
 10
-134.2052514593892
 20
-39.30505955120143
 10
-134.2311807055008
 20
-39.28475545145725
 10
-134.528509870625
 20
-39.05176724620839
 10
-134.8097136161629
 20
-38.79965354331336
 10
-135.0782206027571
 20
-38.5347359358277
 10
-135.1298112308668
 20
-38.48378818158842
 10
-135.1832233349445
 20
-38.43471547613777
 10
-135.233635360959
 20
-38.38264269262679
 10
-135.504231687633
 20
-38.10352828716704
 10
-135.7571489828665
 20
-37.80743129696118
 10
-135.992922974886
 20
-37.49681607184637
 10
-136.0408706510628
 20
-37.43365371406883
 10
-136.0861396861137
 20
-37.36834844338515
 10
-136.1325337504367
 20
-37.30395391068486
 10
-136.3688434706823
 20
-36.97598109106917
 10
-136.5921885678712
 20
-36.63734727976161
 10
-136.7864436224184
 20
-36.27840936871243
 10
-132.2557900198092
 20
-36.17383521910553
 10
-127.4919874934857
 20
-35.82604045514667
 10
-122.5861098417725
 20
-35.22259618200032
 10
-121.3677031386369
 20
-35.07275299734249
 10
-120.1325281420455
 20
-34.89076611916019
 10
-118.8979960193251
 20
-34.70920782355643
 10
-118.8979960193251
 20
-34.70920782355643
 10
-118.5753804819604
 20
-35.49292464456068
 10
-118.5753804819604
 20
-35.49292464456068
 10
-118.5004856760436
 20
-35.67491152274618
 10
-118.4135905578747
 20
-35.8493446329515
 10
-118.3311955568009
 20
-36.0266171027526
 10
-119.7111243199097
 20
-38.50950313641082
 10
-122.1380267540084
 20
-40.46394684848755
 10
-125.2120353116253
 20
-41.19344797308142
 97
        0
 97
        1
330
80
 92
        1
 93
        1
 72
     4
 94
        3
 73
     0
 74
     0
 95
       95
 96
       91
 40
0.0
 40
0.0
 40
0.0
 40
0.0
 40
1.0
 40
1.0
 40
1.0
 40
2.0
 40
2.0
 40
2.0
 40
3.0
 40
3.0
 40
3.0
 40
4.0
 40
4.0
 40
4.0
 40
5.0
 40
5.0
 40
5.0
 40
6.0
 40
6.0
 40
6.0
 40
7.0
 40
7.0
 40
7.0
 40
8.0
 40
8.0
 40
8.0
 40
9.0
 40
9.0
 40
9.0
 40
10.0
 40
10.0
 40
10.0
 40
11.0
 40
11.0
 40
11.0
 40
12.0
 40
12.0
 40
12.0
 40
13.0
 40
13.0
 40
13.0
 40
14.0
 40
14.0
 40
14.0
 40
15.0
 40
15.0
 40
15.0
 40
16.0
 40
16.0
 40
16.0
 40
17.0
 40
17.0
 40
17.0
 40
18.0
 40
18.0
 40
18.0
 40
19.0
 40
19.0
 40
19.0
 40
20.0
 40
20.0
 40
20.0
 40
21.0
 40
21.0
 40
21.0
 40
22.0
 40
22.0
 40
22.0
 40
23.0
 40
23.0
 40
23.0
 40
24.0
 40
24.0
 40
24.0
 40
25.0
 40
25.0
 40
25.0
 40
26.0
 40
26.0
 40
26.0
 40
27.0
 40
27.0
 40
27.0
 40
28.0
 40
28.0
 40
28.0
 40
29.0
 40
29.0
 40
29.0
 40
30.0
 40
30.0
 40
30.0
 40
30.0
 10
-142.3057836650911
 20
17.86528517307114
 10
-142.224138683532
 20
17.95084097067268
 10
-142.1363864002041
 20
18.03318239892655
 10
-142.0535628165499
 20
18.11814889548212
 10
-136.6682084030618
 20
23.64209620089493
 10
-128.780896031089
 20
27.85286648008663
 10
-119.7878406017926
 20
29.9870470118026
 10
-115.7322172166875
 20
30.94948276881739
 10
-111.6603076935301
 20
31.4374776093805
 10
-107.6851506878864
 20
31.4374776093805
 10
-94.14520909074971
 20
31.4374776093805
 10
-83.71849135733443
 20
25.83504611893858
 10
-81.7396720109985
 20
17.49654343549453
 10
-81.25810590914325
 20
15.46736563596818
 10
-80.89252496809919
 20
13.54672637491364
 10
-80.65305445132354
 20
11.78809132923818
 10
-80.48087139966515
 20
10.52339770742593
 10
-80.37190427860869
 20
9.324973667098737
 10
-80.32626023380107
 20
8.200747985998626
 10
-81.99987521009912
 20
7.287277788787289
 10
-83.68131181848781
 20
6.418487325580273
 10
-85.36783784501954
 20
5.609859142090797
 10
-87.91238619742626
 20
4.390005972743555
 10
-90.46373829829784
 20
3.296209654850562
 10
-93.00491156288591
 20
2.298308689309385
 10
-106.7500906431905
 20
-2.29791804809777
 10
-119.9528984680532
 20
-4.916718332550837
 10
-129.9054967219491
 20
-6.394203205511131
 10
-132.7454456178682
 20
-6.676799844436387
 10
-135.3220840909791
 20
-6.854233032704597
 10
-137.5436418962657
 20
-6.956717842232652
 10
-138.1054600862918
 20
-6.982593515522474
 10
-138.6445633995606
 20
-7.003915498892116
 10
-139.1613268458264
 20
-7.021487384687716
 10
-139.3578855317433
 20
-7.028183987507945
 10
-139.5353187200109
 20
-7.031880512261435
 10
-139.7251272302886
 20
-7.037505658629875
 10
-140.0356353097569
 20
-7.046666611284052
 10
-140.3523578366414
 20
-7.056791874746669
 10
-140.6443297195108
 20
-7.063327759096258
 10
-140.8404062500235
 20
-7.06772073054612
 10
-141.0160179623262
 20
-7.069595779334104
 10
-141.2035228412329
 20
-7.072917294332819
 10
-141.4657082347665
 20
-7.077524557069703
 10
-141.735340250634
 20
-7.083042557791586
 10
-141.9803823409543
 20
-7.085774771743694
 10
-142.1689586763119
 20
-7.08786411181966
 10
-142.336213028296
 20
-7.088078403111174
 10
-142.514449808902
 20
-7.089203432386081
 10
-142.7327590607722
 20
-7.090596325772411
 10
-142.9594792457816
 20
-7.092632093028147
 10
-143.1618237965332
 20
-7.092739238671818
 10
-143.1769849053141
 20
-7.092739238671818
 10
-143.1952532378012
 20
-7.093007102786129
 10
-143.2103072009353
 20
-7.093007102786129
 10
-143.4040265272577
 20
-7.093007102786129
 10
-143.5713344520649
 20
-7.091346345289016
 10
-143.7498926696071
 20
-7.090382034481541
 10
-143.8867176583863
 20
-7.089632014964615
 10
-144.0357036778839
 20
-7.089578442141175
 10
-144.1634212868291
 20
-7.088346267225484
 10
-144.37374818814
 20
-7.086310499969749
 10
-144.5580386976936
 20
-7.083203276261905
 10
-144.7431863724088
 20
-7.080149625375254
 10
-144.8255278006608
 20
-7.078810304812684
 10
-144.9208874247901
 20
-7.077899566828647
 10
-144.9981930077221
 20
-7.076399527798004
 10
-145.1157853532076
 20
-7.074095896427637
 10
-145.2093235013701
 20
-7.071470828122729
 10
-145.3150226802516
 20
-7.068952905464378
 10
-145.3303980803218
 20
-7.068577895702867
 10
-145.3449698880536
 20
-7.068256458771213
 10
-145.3605060065918
 20
-7.067881449013231
 10
-145.3605060065918
 20
-7.067881449013231
 10
-145.3605060065918
 20
-7.067827876189792
 10
-145.3605060065918
 20
-7.067827876189792
 10
-145.3449698880536
 20
-7.068202885947774
 10
-145.3302909346768
 20
-7.068524322882957
 10
-145.3150762530741
 20
-7.068899332640938
 10
-145.7560877282622
 20
-6.082087941366324
 10
-146.1764736667709
 20
-5.009827898133843
 10
-146.5724839710224
 20
-3.855708582052671
 10
-146.7083446489957
 20
-3.459858996267341
 10
-146.8414731130189
 20
-3.051205505898105
 10
-146.9725658097853
 20
-2.634408946498548
 10
-147.3992197685323
 20
-1.277945079667139
 10
-147.8000516268124
 20
0.1841108204001687
 10
-148.1674540438239
 20
1.732365391945477
 10
-149.3914858933266
 20
6.89019602808691
 10
-147.3098067277056
 20
12.61964868077739
 10
-142.3057836650911
 20
17.86528517307114
 97
        0
 97
        1
330
81
 92
        1
 93
        1
 72
     4
 94
        3
 73
     0
 74
     0
 95
      116
 96
      112
 40
0.0
 40
0.0
 40
0.0
 40
0.0
 40
1.0
 40
1.0
 40
1.0
 40
2.0
 40
2.0
 40
2.0
 40
3.0
 40
3.0
 40
3.0
 40
4.0
 40
4.0
 40
4.0
 40
5.0
 40
5.0
 40
5.0
 40
6.0
 40
6.0
 40
6.0
 40
7.0
 40
7.0
 40
7.0
 40
8.0
 40
8.0
 40
8.0
 40
9.0
 40
9.0
 40
9.0
 40
10.0
 40
10.0
 40
10.0
 40
11.0
 40
11.0
 40
11.0
 40
12.0
 40
12.0
 40
12.0
 40
13.0
 40
13.0
 40
13.0
 40
14.0
 40
14.0
 40
14.0
 40
15.0
 40
15.0
 40
15.0
 40
16.0
 40
16.0
 40
16.0
 40
17.0
 40
17.0
 40
17.0
 40
18.0
 40
18.0
 40
18.0
 40
19.0
 40
19.0
 40
19.0
 40
20.0
 40
20.0
 40
20.0
 40
21.0
 40
21.0
 40
21.0
 40
22.0
 40
22.0
 40
22.0
 40
23.0
 40
23.0
 40
23.0
 40
24.0
 40
24.0
 40
24.0
 40
25.0
 40
25.0
 40
25.0
 40
26.0
 40
26.0
 40
26.0
 40
27.0
 40
27.0
 40
27.0
 40
28.0
 40
28.0
 40
28.0
 40
29.0
 40
29.0
 40
29.0
 40
30.0
 40
30.0
 40
30.0
 40
31.0
 40
31.0
 40
31.0
 40
32.0
 40
32.0
 40
32.0
 40
33.0
 40
33.0
 40
33.0
 40
34.0
 40
34.0
 40
34.0
 40
35.0
 40
35.0
 40
35.0
 40
36.0
 40
36.0
 40
36.0
 40
37.0
 40
37.0
 40
37.0
 40
37.0
 10
-48.60397052908933
 20
71.66932801991848
 10
-48.60397052908933
 20
71.66932801991848
 10
-61.74538389931623
 20
17.58033132995464
 10
-61.74538389931623
 20
17.58033132995464
 10
-61.76124145478873
 20
17.58381356342047
 10
-61.7776347384879
 20
17.58702793277198
 10
-61.79354586678478
 20
17.59051016623717
 10
-62.01223012841108
 20
17.63856498806012
 10
-62.23493235173022
 20
17.68436975133678
 10
-62.45731313811258
 20
17.73038880590367
 10
-62.67797959417501
 20
17.77603285070905
 10
-62.89843175894627
 20
17.8218376139854
 10
-63.12263402129605
 20
17.86549946435816
 10
-63.3493542063061
 20
17.90969704296083
 10
-63.57971734324782
 20
17.95169813583295
 10
-63.81002690736834
 20
17.99385994717604
 10
-64.03717567495757
 20
18.03543245747315
 10
-64.26416372407937
 20
18.07700496776739
 10
-64.49468757948981
 20
18.11659528362836
 10
-64.72719362933445
 20
18.15650703642163
 10
-64.96312833982212
 20
18.19443659478581
 10
-65.19900947748604
 20
18.23236615314614
 10
-65.43483704232747
 20
18.27024213868721
 10
-65.67082532563762
 20
18.30806455140387
 10
-65.91002797830026
 20
18.34395834250846
 10
-66.14874847555931
 20
18.37974498796618
 10
-66.39057619652589
 20
18.41365658463913
 10
-66.63256463596183
 20
18.44740746284111
 10
-66.87455307539519
 20
18.48121191386653
 10
-67.11680937894222
 20
18.5148556464242
 10
-67.36201218773064
 20
18.54657075737044
 10
-67.60705427804905
 20
18.57833944114013
 10
-67.85488215514205
 20
18.60828664894174
 10
-68.1030850419911
 20
18.63796599263194
 10
-68.35246653093722
 20
18.66780605478988
 10
-68.60222302964068
 20
18.69748539848007
 10
-68.85476531511681
 20
18.72528969338132
 10
-69.10553969744862
 20
18.75287969699265
 10
-69.35893914808629
 20
18.77875537027895
 10
-69.61276718130315
 20
18.80441675228079
 10
-69.86836311766367
 20
18.83018527992341
 10
-70.12449478224962
 20
18.85568594345525
 10
-70.38314436949582
 20
18.87941870384182
 10
-70.63943675255112
 20
18.90293717293751
 10
-70.89808633979541
 20
18.92479488453609
 10
-71.15732522809016
 20
18.94633115919982
 10
-71.42079636936509
 20
18.9681888707984
 10
-71.68485681168855
 20
18.98961799981781
 10
-71.95132803102605
 20
19.00938637133689
 10
-72.21024548238465
 20
19.02856544180649
 10
-72.47135941946801
 20
19.04629804606952
 10
-72.73306265759799
 20
19.06354849492737
 10
-73.00505187765835
 20
19.08149539048159
 10
-73.27784469005584
 20
19.09885298498664
 10
-73.55272684253252
 20
19.11465696763761
 10
-73.81646584792112
 20
19.12981807641596
 10
-74.08207990209707
 20
19.14353271898711
 10
-74.34844397579024
 20
19.15671163333317
 10
-74.47659016731726
 20
19.16303322639478
 10
-74.60248630029702
 20
19.17106914977469
 10
-74.73127536569632
 20
19.17696216025456
 10
-74.73127536569632
 20
19.17696216025456
 10
-88.24335909510836
 20
71.66932801991848
 10
-88.24335909510836
 20
71.66932801991848
 10
-88.24335909510836
 20
71.66932801991848
 10
-129.3601789612652
 20
71.66932801991848
 10
-129.3601789612652
 20
71.66932801991848
 10
-129.3601789612652
 20
71.66932801991848
 10
-140.6441690010421
 20
24.06408932407734
 10
-140.6441690010421
 20
24.06408932407734
 10
-146.5354651506439
 20
19.46952334417115
 10
-150.4886572990424
 20
13.87641352485437
 10
-151.6555269468901
 20
8.164479185135727
 10
-151.6555269468901
 20
8.164479185135727
 10
-167.0915178795291
 20
71.66932801991848
 10
-167.0915178795291
 20
71.66932801991848
 10
-167.0915178795291
 20
71.66932801991848
 10
-216.9583332790938
 20
71.66932801991848
 10
-216.9583332790938
 20
71.66932801991848
 10
-216.9583332790938
 20
71.66932801991848
 10
-175.5143977584789
 20
-84.31233779055686
 10
-175.5143977584789
 20
-84.31233779055686
 10
-175.5143977584789
 20
-84.31233779055686
 10
-174.9610440744203
 20
-86.38673105231326
 10
-174.9610440744203
 20
-86.38673105231326
 10
-174.9610440744203
 20
-86.38673105231326
 10
-129.6164177714973
 20
-86.38673105231326
 10
-129.6164177714973
 20
-86.38673105231326
 10
-129.6164177714973
 20
-86.38673105231326
 10
-119.0059452567532
 20
-42.07129224329926
 10
-119.0059452567532
 20
-42.07129224329926
 10
-117.9420961466593
 20
-41.26453910859776
 10
-117.0030181402718
 20
-40.31174645963944
 10
-116.2133547359629
 20
-39.2402900087438
 10
-113.6743779570996
 20
-42.07616737015078
 10
-109.9507453533037
 20
-43.77726520441392
 10
-105.8776572280492
 20
-43.77726520441392
 10
-105.0453498569947
 20
-43.77726520441392
 10
-104.213096058762
 20
-43.67997695867289
 10
-103.3870567079444
 20
-43.53570534755973
 10
-103.3870567079444
 20
-43.53570534755973
 10
-92.52023823732249
 20
-86.38673105231326
 10
-92.52023823732249
 20
-86.38673105231326
 10
-92.52023823732249
 20
-86.38673105231326
 10
-48.88201347809793
 20
-86.38673105231326
 10
-48.88201347809793
 20
-86.38673105231326
 10
-48.88201347809793
 20
-86.38673105231326
 10
-6.958333331594013
 20
71.66932801991848
 10
-6.958333331594013
 20
71.66932801991848
 10
-6.958333331594013
 20
71.66932801991848
 10
-48.60397052908933
 20
71.66932801991848
 10
-48.60397052908933
 20
71.66932801991848
 97
        0
 97
        1
330
82
 75
     2
 76
     1
 98
        1
 10
0.0
 20
0.0
450
        0
451
        0
460
0.0
461
0.0
452
        0
462
0.0
453
        0
470

  0
SPLINE
  5
84
330
79
100
AcDbEntity
  8
Layer 1
100
AcDbSpline
210
0.0
220
0.0
230
1.0
 70
     9
 71
     3
 72
   173
 73
   169
 74
     0
 42
0.0000000001
 43
0.0000000001
 40
0.0
 40
0.0
 40
0.0
 40
0.0
 40
1.0
 40
1.0
 40
1.0
 40
2.0
 40
2.0
 40
2.0
 40
3.0
 40
3.0
 40
3.0
 40
4.0
 40
4.0
 40
4.0
 40
5.0
 40
5.0
 40
5.0
 40
6.0
 40
6.0
 40
6.0
 40
7.0
 40
7.0
 40
7.0
 40
8.0
 40
8.0
 40
8.0
 40
9.0
 40
9.0
 40
9.0
 40
10.0
 40
10.0
 40
10.0
 40
11.0
 40
11.0
 40
11.0
 40
12.0
 40
12.0
 40
12.0
 40
13.0
 40
13.0
 40
13.0
 40
14.0
 40
14.0
 40
14.0
 40
15.0
 40
15.0
 40
15.0
 40
16.0
 40
16.0
 40
16.0
 40
17.0
 40
17.0
 40
17.0
 40
18.0
 40
18.0
 40
18.0
 40
19.0
 40
19.0
 40
19.0
 40
20.0
 40
20.0
 40
20.0
 40
21.0
 40
21.0
 40
21.0
 40
22.0
 40
22.0
 40
22.0
 40
23.0
 40
23.0
 40
23.0
 40
24.0
 40
24.0
 40
24.0
 40
25.0
 40
25.0
 40
25.0
 40
26.0
 40
26.0
 40
26.0
 40
27.0
 40
27.0
 40
27.0
 40
28.0
 40
28.0
 40
28.0
 40
29.0
 40
29.0
 40
29.0
 40
30.0
 40
30.0
 40
30.0
 40
31.0
 40
31.0
 40
31.0
 40
32.0
 40
32.0
 40
32.0
 40
33.0
 40
33.0
 40
33.0
 40
34.0
 40
34.0
 40
34.0
 40
35.0
 40
35.0
 40
35.0
 40
36.0
 40
36.0
 40
36.0
 40
37.0
 40
37.0
 40
37.0
 40
38.0
 40
38.0
 40
38.0
 40
39.0
 40
39.0
 40
39.0
 40
40.0
 40
40.0
 40
40.0
 40
41.0
 40
41.0
 40
41.0
 40
42.0
 40
42.0
 40
42.0
 40
43.0
 40
43.0
 40
43.0
 40
44.0
 40
44.0
 40
44.0
 40
45.0
 40
45.0
 40
45.0
 40
46.0
 40
46.0
 40
46.0
 40
47.0
 40
47.0
 40
47.0
 40
48.0
 40
48.0
 40
48.0
 40
49.0
 40
49.0
 40
49.0
 40
50.0
 40
50.0
 40
50.0
 40
51.0
 40
51.0
 40
51.0
 40
52.0
 40
52.0
 40
52.0
 40
53.0
 40
53.0
 40
53.0
 40
54.0
 40
54.0
 40
54.0
 40
55.0
 40
55.0
 40
55.0
 40
56.0
 40
56.0
 40
56.0
 40
56.0
 10
-103.0629411315483
 20
-15.47736812232996
 30
0.0
 10
-103.081798765084
 20
-15.43145621340674
 30
0.0
 10
-103.0987277770093
 20
-15.38479428497012
 30
0.0
 10
-103.1186568669945
 20
-15.33957882274295
 30
0.0
 10
-103.2356599114321
 20
-15.07444692396995
 30
0.0
 10
-103.3718420263416
 20
-14.8224403667186
 30
0.0
 10
-103.5237745510786
 20
-14.58205911196051
 30
0.0
 10
-103.5531324578333
 20
-14.53566504763788
 30
0.0
 10
-103.5835618210388
 20
-14.49082459516933
 30
0.0
 10
-103.6140983298893
 20
-14.44539484164841
 30
0.0
 10
-103.7744417877648
 20
-14.20694220850174
 30
0.0
 10
-103.9474284317617
 20
-13.97931128551053
 30
0.0
 10
-104.138844126715
 20
-13.76925224831204
 30
0.0
 10
-104.1601661100872
 20
-13.74584092485969
 30
0.0
 10
-104.1835238607174
 20
-13.72505466971322
 30
0.0
 10
-104.2052208538476
 20
-13.7020183560195
 30
0.0
 10
-104.394225771785
 20
-13.50122741712206
 30
0.0
 10
-104.5965703225372
 20
-13.315115431601
 30
0.0
 10
-104.8107008942484
 20
-13.14373597227976
 30
0.0
 10
-104.8376480239884
 20
-13.1221461247926
 30
0.0
 10
-104.8626129592942
 20
-13.09857408287315
 30
0.0
 10
-104.8899886716147
 20
-13.07746639079149
 30
0.0
 10
-105.1127444677557
 20
-12.90544405760053
 30
0.0
 10
-105.3493220521131
 20
-12.75335081439609
 30
0.0
 10
-105.5941498511422
 20
-12.61507935940743
 30
0.0
 10
-105.6416689447391
 20
-12.58823937531301
 30
0.0
 10
-105.6885987372887
 20
-12.56172082815347
 30
0.0
 10
-105.7368678504016
 20
-12.53622016462195
 30
0.0
 10
-105.9829278243509
 20
-12.40609177865944
 30
0.0
 10
-106.2370237216789
 20
-12.29198166663973
 30
0.0
 10
-106.5000662803746
 20
-12.19763992614135
 30
0.0
 10
-106.5437281307487
 20
-12.18199666195782
 30
0.0
 10
-106.5880864278156
 20
-12.16946062148116
 30
0.0
 10
-106.6321768607701
 20
-12.15483524092565
 30
0.0
 10
-106.9049696731676
 20
-12.06424359800485
 30
0.0
 10
-107.1833876319329
 20
-11.98854519974712
 30
0.0
 10
-107.4692522130315
 20
-11.93882962042674
 30
0.0
 10
-107.47616310714
 20
-11.93759744550784
 30
0.0
 10
-107.4828061371355
 20
-11.93550810542835
 30
0.0
 10
-107.4897170312441
 20
-11.93432950333321
 30
0.0
 10
-107.7784209719365
 20
-11.88520322505847
 30
0.0
 10
-108.0736607969808
 20
-11.86436339708824
 30
0.0
 10
-108.3712578262167
 20
-11.85948827023672
 30
0.0
 10
-108.4028122186961
 20
-11.85895254201067
 30
0.0
 10
-108.4331344362573
 20
-11.85155949250016
 30
0.0
 10
-108.4647424015574
 20
-11.85155949250016
 30
0.0
 10
-108.4913145215407
 20
-11.85155949250016
 30
0.0
 10
-108.5184223697487
 20
-11.85584531830282
 30
0.0
 10
-108.5450480625526
 20
-11.85622032806145
 30
0.0
 10
-108.6877124889895
 20
-11.85820252249695
 30
0.0
 10
-108.8310733621187
 20
-11.8686492228909
 30
0.0
 10
-108.9748092450064
 20
-11.88123883619099
 30
0.0
 10
-109.0437574676217
 20
-11.88729256513797
 30
0.0
 10
-109.1122771076566
 20
-11.8895426236849
 30
0.0
 10
-109.1814396215619
 20
-11.89811427529022
 30
0.0
 10
-109.3942844455317
 20
-11.92447210398234
 30
0.0
 10
-109.6076649977283
 20
-11.96036589509047
 30
0.0
 10
-109.8211526955685
 20
-12.01104578521511
 30
0.0
 10
-110.3298802184531
 20
-12.13179892723161
 30
0.0
 10
-110.8032496784591
 20
-12.32133957339473
 30
0.0
 10
-111.2429218330833
 20
-12.5579171577531
 30
0.0
 10
-111.5353222985331
 20
-12.715260537568
 30
0.0
 10
-111.8110616161694
 20
-12.89456877462484
 30
0.0
 10
-112.0682647372075
 20
-13.09557400481347
 30
0.0
 10
-112.4705430616965
 20
-13.40999290032832
 30
0.0
 10
-112.8314631671799
 20
-13.76978797653745
 30
0.0
 10
-113.1359710905243
 20
-14.17211987384861
 30
0.0
 10
-113.475408494168
 20
-14.62063154419409
 30
0.0
 10
-113.7497549184206
 20
-15.11660873531303
 30
0.0
 10
-113.9490458182857
 20
-15.64414031891046
 30
0.0
 10
-114.0819599910196
 20
-15.99579232609344
 30
0.0
 10
-114.1814982953079
 20
-16.36148041278597
 30
0.0
 10
-114.2448213715561
 20
-16.73643659777666
 30
0.0
 10
-114.308144447803
 20
-17.11139278276447
 30
0.0
 10
-114.3352522960117
 20
-17.49561706605686
 30
0.0
 10
-114.3231448381158
 20
-17.88439503926334
 30
0.0
 10
-114.3170911091689
 20
-18.07875723945807
 30
0.0
 10
-114.3012871265169
 20
-18.27429804174536
 30
0.0
 10
-114.2753043075841
 20
-18.47037457225807
 30
0.0
 10
-114.2493214886487
 20
-18.66645110277367
 30
0.0
 10
-114.2132134062542
 20
-18.86306336151212
 30
0.0
 10
-114.1665514778176
 20
-19.05967562024993
 30
0.0
 10
-114.1664979049951
 20
-19.05983633871704
 30
0.0
 10
-114.1664979049951
 20
-19.0598899115408
 30
0.0
 10
-114.1664443321726
 20
-19.06005063000855
 30
0.0
 10
-114.0939067304468
 20
-19.36573715545097
 30
0.0
 10
-113.99227908608
 20
-19.65626257210861
 30
0.0
 10
-113.876401070915
 20
-19.93789490022575
 30
0.0
 10
-113.8574362917343
 20
-19.98407467326072
 30
0.0
 10
-113.8404537069873
 20
-20.03089732016444
 30
0.0
 10
-113.820363898534
 20
-20.07632707368248
 30
0.0
 10
-113.8026312942716
 20
-20.11656026341318
 30
0.0
 10
-113.7874166126688
 20
-20.1585077834654
 30
0.0
 10
-113.7688268432455
 20
-20.19820524497101
 30
0.0
 10
-113.6649491403315
 20
-20.41978243901812
 30
0.0
 10
-113.5443031439596
 20
-20.62957361210263
 30
0.0
 10
-113.415567651386
 20
-20.83320391059585
 30
0.0
 10
-113.3859954533401
 20
-20.87997298467614
 30
0.0
 10
-113.3552982260235
 20
-20.92513487408275
 30
0.0
 10
-113.3245474258818
 20
-20.97088606453533
 30
0.0
 10
-113.1643646864731
 20
-21.20901726074714
 30
0.0
 10
-112.9915923337655
 20
-21.43638031962725
 30
0.0
 10
-112.800390930104
 20
-21.64611791988799
 30
0.0
 10
-112.7787475097963
 20
-21.66985068027776
 30
0.0
 10
-112.7550683222312
 20
-21.69090479953598
 30
0.0
 10
-112.7331570378111
 20
-21.71420897734465
 30
0.0
 10
-112.5444199839855
 20
-21.91457133365971
 30
0.0
 10
-112.3424504429913
 20
-22.10036188224558
 30
0.0
 10
-112.1286413082149
 20
-22.27147347745251
 30
0.0
 10
-112.1014263143625
 20
-22.29327761623054
 30
0.0
 10
-112.0761399421219
 20
-22.31706394944119
 30
0.0
 10
-112.0485499385109
 20
-22.33833235999028
 30
0.0
 10
-111.8260084336604
 20
-22.51003325624317
 30
0.0
 10
-111.5897522862392
 20
-22.66196578098339
 30
0.0
 10
-111.3451923513218
 20
-22.80007651750494
 30
0.0
 10
-111.2973518207894
 20
-22.82713079288669
 30
0.0
 10
-111.2500470184818
 20
-22.85375648569312
 30
0.0
 10
-111.201456468434
 20
-22.87947144051583
 30
0.0
 10
-110.9555572129534
 20
-23.00943910800706
 30
0.0
 10
-110.7016220340916
 20
-23.12349564720397
 30
0.0
 10
-110.4388473395102
 20
-23.21767666924101
 30
0.0
 10
-110.3951319163124
 20
-23.23337350624542
 30
0.0
 10
-110.3506129007774
 20
-23.24580240107487
 30
0.0
 10
-110.3064688950017
 20
-23.26048135445061
 30
0.0
 10
-110.0338903738941
 20
-23.35091227890751
 30
0.0
 10
-109.7557402792405
 20
-23.4265571043418
 30
0.0
 10
-109.4701435622556
 20
-23.47621911084162
 30
0.0
 10
-109.462964804034
 20
-23.47745128575732
 30
0.0
 10
-109.4560539099261
 20
-23.47970134430713
 30
0.0
 10
-109.4488215788821
 20
-23.4809335192225
 30
0.0
 10
-109.160117638189
 20
-23.53005979749724
 30
0.0
 10
-108.8649313859678
 20
-23.55089962546779
 30
0.0
 10
-108.5672807839088
 20
-23.55572117949619
 30
0.0
 10
-108.5358335370743
 20
-23.55625690772161
 30
0.0
 10
-108.50561846516
 20
-23.56364995723211
 30
0.0
 10
-108.4740640726806
 20
-23.56364995723211
 30
0.0
 10
-108.4668317416372
 20
-23.56364995723211
 30
0.0
 10
-108.4594386921263
 20
-23.56241778231289
 30
0.0
 10
-108.4522063610823
 20
-23.56236420949234
 30
0.0
 10
-108.4328665721443
 20
-23.56231063666922
 30
0.0
 10
-108.4131517734471
 20
-23.55925698578225
 30
0.0
 10
-108.393758411686
 20
-23.55898912167083
 30
0.0
 10
-108.2508261211367
 20
-23.55700692723532
 30
0.0
 10
-108.1072509567164
 20
-23.54661379966513
 30
0.0
 10
-107.9631400640719
 20
-23.53391704072137
 30
0.0
 10
-107.8944061327458
 20
-23.5279168845943
 30
0.0
 10
-107.8262079296471
 20
-23.52561325322747
 30
0.0
 10
-107.7573668526774
 20
-23.51709517444205
 30
0.0
 10
-107.5444684558844
 20
-23.49073734574993
 30
0.0
 10
-107.3309807580435
 20
-23.45484355464534
 30
0.0
 10
-107.1174394873808
 20
-23.40416366451716
 30
0.0
 10
-106.3308833067788
 20
-23.21746237794725
 30
0.0
 10
-105.6193826505604
 20
-22.88027503285267
 30
0.0
 10
-105.006241696537
 20
-22.43026332347718
 30
0.0
 10
-104.546426160635
 20
-22.09275454144485
 30
0.0
 10
-104.1418977776001
 20
-21.69181553752002
 30
0.0
 10
-103.8025139467782
 20
-21.24341101281885
 30
0.0
 10
-103.5762759171723
 20
-20.9444746630201
 30
0.0
 10
-103.3789672117401
 20
-20.62443062113905
 30
0.0
 10
-103.2135879085446
 20
-20.28793972273506
 30
0.0
 10
-102.9654385945168
 20
-19.7832837343636
 30
0.0
 10
-102.7891304355231
 20
-19.24176964407974
 30
0.0
 10
-102.6941993939724
 20
-18.67930858018166
 30
0.0
 10
-102.5677139599454
 20
-17.92939621020284
 30
0.0
 10
-102.5860894380788
 20
-17.14225072854947
 30
0.0
 10
-102.7727371518233
 20
-16.35574812077322
 30
0.0
 10
-102.8453283263716
 20
-16.04984730404281
 30
0.0
 10
-102.9470095435615
 20
-15.75921474173508
 30
0.0
 10
-103.0629411315483
 20
-15.47736812232996
 30
0.0
  0
HATCH
  5
85
330
79
100
AcDbEntity
  8
Layer 1
 62
     7
440
 33554687
100
AcDbHatch
 10
0.0
 20
0.0
 30
0.0
210
0.0
220
0.0
230
1.0
  2
SOLID
 70
     1
 71
     1
 91
        1
 92
        1
 93
        1
 72
     4
 94
        3
 73
     0
 74
     0
 95
      173
 96
      169
 40
0.0
 40
0.0
 40
0.0
 40
0.0
 40
1.0
 40
1.0
 40
1.0
 40
2.0
 40
2.0
 40
2.0
 40
3.0
 40
3.0
 40
3.0
 40
4.0
 40
4.0
 40
4.0
 40
5.0
 40
5.0
 40
5.0
 40
6.0
 40
6.0
 40
6.0
 40
7.0
 40
7.0
 40
7.0
 40
8.0
 40
8.0
 40
8.0
 40
9.0
 40
9.0
 40
9.0
 40
10.0
 40
10.0
 40
10.0
 40
11.0
 40
11.0
 40
11.0
 40
12.0
 40
12.0
 40
12.0
 40
13.0
 40
13.0
 40
13.0
 40
14.0
 40
14.0
 40
14.0
 40
15.0
 40
15.0
 40
15.0
 40
16.0
 40
16.0
 40
16.0
 40
17.0
 40
17.0
 40
17.0
 40
18.0
 40
18.0
 40
18.0
 40
19.0
 40
19.0
 40
19.0
 40
20.0
 40
20.0
 40
20.0
 40
21.0
 40
21.0
 40
21.0
 40
22.0
 40
22.0
 40
22.0
 40
23.0
 40
23.0
 40
23.0
 40
24.0
 40
24.0
 40
24.0
 40
25.0
 40
25.0
 40
25.0
 40
26.0
 40
26.0
 40
26.0
 40
27.0
 40
27.0
 40
27.0
 40
28.0
 40
28.0
 40
28.0
 40
29.0
 40
29.0
 40
29.0
 40
30.0
 40
30.0
 40
30.0
 40
31.0
 40
31.0
 40
31.0
 40
32.0
 40
32.0
 40
32.0
 40
33.0
 40
33.0
 40
33.0
 40
34.0
 40
34.0
 40
34.0
 40
35.0
 40
35.0
 40
35.0
 40
36.0
 40
36.0
 40
36.0
 40
37.0
 40
37.0
 40
37.0
 40
38.0
 40
38.0
 40
38.0
 40
39.0
 40
39.0
 40
39.0
 40
40.0
 40
40.0
 40
40.0
 40
41.0
 40
41.0
 40
41.0
 40
42.0
 40
42.0
 40
42.0
 40
43.0
 40
43.0
 40
43.0
 40
44.0
 40
44.0
 40
44.0
 40
45.0
 40
45.0
 40
45.0
 40
46.0
 40
46.0
 40
46.0
 40
47.0
 40
47.0
 40
47.0
 40
48.0
 40
48.0
 40
48.0
 40
49.0
 40
49.0
 40
49.0
 40
50.0
 40
50.0
 40
50.0
 40
51.0
 40
51.0
 40
51.0
 40
52.0
 40
52.0
 40
52.0
 40
53.0
 40
53.0
 40
53.0
 40
54.0
 40
54.0
 40
54.0
 40
55.0
 40
55.0
 40
55.0
 40
56.0
 40
56.0
 40
56.0
 40
56.0
 10
-103.0629411315483
 20
-15.47736812232996
 10
-103.081798765084
 20
-15.43145621340674
 10
-103.0987277770093
 20
-15.38479428497012
 10
-103.1186568669945
 20
-15.33957882274295
 10
-103.2356599114321
 20
-15.07444692396995
 10
-103.3718420263416
 20
-14.8224403667186
 10
-103.5237745510786
 20
-14.58205911196051
 10
-103.5531324578333
 20
-14.53566504763788
 10
-103.5835618210388
 20
-14.49082459516933
 10
-103.6140983298893
 20
-14.44539484164841
 10
-103.7744417877648
 20
-14.20694220850174
 10
-103.9474284317617
 20
-13.97931128551053
 10
-104.138844126715
 20
-13.76925224831204
 10
-104.1601661100872
 20
-13.74584092485969
 10
-104.1835238607174
 20
-13.72505466971322
 10
-104.2052208538476
 20
-13.7020183560195
 10
-104.394225771785
 20
-13.50122741712206
 10
-104.5965703225372
 20
-13.315115431601
 10
-104.8107008942484
 20
-13.14373597227976
 10
-104.8376480239884
 20
-13.1221461247926
 10
-104.8626129592942
 20
-13.09857408287315
 10
-104.8899886716147
 20
-13.07746639079149
 10
-105.1127444677557
 20
-12.90544405760053
 10
-105.3493220521131
 20
-12.75335081439609
 10
-105.5941498511422
 20
-12.61507935940743
 10
-105.6416689447391
 20
-12.58823937531301
 10
-105.6885987372887
 20
-12.56172082815347
 10
-105.7368678504016
 20
-12.53622016462195
 10
-105.9829278243509
 20
-12.40609177865944
 10
-106.2370237216789
 20
-12.29198166663973
 10
-106.5000662803746
 20
-12.19763992614135
 10
-106.5437281307487
 20
-12.18199666195782
 10
-106.5880864278156
 20
-12.16946062148116
 10
-106.6321768607701
 20
-12.15483524092565
 10
-106.9049696731676
 20
-12.06424359800485
 10
-107.1833876319329
 20
-11.98854519974712
 10
-107.4692522130315
 20
-11.93882962042674
 10
-107.47616310714
 20
-11.93759744550784
 10
-107.4828061371355
 20
-11.93550810542835
 10
-107.4897170312441
 20
-11.93432950333321
 10
-107.7784209719365
 20
-11.88520322505847
 10
-108.0736607969808
 20
-11.86436339708824
 10
-108.3712578262167
 20
-11.85948827023672
 10
-108.4028122186961
 20
-11.85895254201067
 10
-108.4331344362573
 20
-11.85155949250016
 10
-108.4647424015574
 20
-11.85155949250016
 10
-108.4913145215407
 20
-11.85155949250016
 10
-108.5184223697487
 20
-11.85584531830282
 10
-108.5450480625526
 20
-11.85622032806145
 10
-108.6877124889895
 20
-11.85820252249695
 10
-108.8310733621187
 20
-11.8686492228909
 10
-108.9748092450064
 20
-11.88123883619099
 10
-109.0437574676217
 20
-11.88729256513797
 10
-109.1122771076566
 20
-11.8895426236849
 10
-109.1814396215619
 20
-11.89811427529022
 10
-109.3942844455317
 20
-11.92447210398234
 10
-109.6076649977283
 20
-11.96036589509047
 10
-109.8211526955685
 20
-12.01104578521511
 10
-110.3298802184531
 20
-12.13179892723161
 10
-110.8032496784591
 20
-12.32133957339473
 10
-111.2429218330833
 20
-12.5579171577531
 10
-111.5353222985331
 20
-12.715260537568
 10
-111.8110616161694
 20
-12.89456877462484
 10
-112.0682647372075
 20
-13.09557400481347
 10
-112.4705430616965
 20
-13.40999290032832
 10
-112.8314631671799
 20
-13.76978797653745
 10
-113.1359710905243
 20
-14.17211987384861
 10
-113.475408494168
 20
-14.62063154419409
 10
-113.7497549184206
 20
-15.11660873531303
 10
-113.9490458182857
 20
-15.64414031891046
 10
-114.0819599910196
 20
-15.99579232609344
 10
-114.1814982953079
 20
-16.36148041278597
 10
-114.2448213715561
 20
-16.73643659777666
 10
-114.308144447803
 20
-17.11139278276447
 10
-114.3352522960117
 20
-17.49561706605686
 10
-114.3231448381158
 20
-17.88439503926334
 10
-114.3170911091689
 20
-18.07875723945807
 10
-114.3012871265169
 20
-18.27429804174536
 10
-114.2753043075841
 20
-18.47037457225807
 10
-114.2493214886487
 20
-18.66645110277367
 10
-114.2132134062542
 20
-18.86306336151212
 10
-114.1665514778176
 20
-19.05967562024993
 10
-114.1664979049951
 20
-19.05983633871704
 10
-114.1664979049951
 20
-19.0598899115408
 10
-114.1664443321726
 20
-19.06005063000855
 10
-114.0939067304468
 20
-19.36573715545097
 10
-113.99227908608
 20
-19.65626257210861
 10
-113.876401070915
 20
-19.93789490022575
 10
-113.8574362917343
 20
-19.98407467326072
 10
-113.8404537069873
 20
-20.03089732016444
 10
-113.820363898534
 20
-20.07632707368248
 10
-113.8026312942716
 20
-20.11656026341318
 10
-113.7874166126688
 20
-20.1585077834654
 10
-113.7688268432455
 20
-20.19820524497101
 10
-113.6649491403315
 20
-20.41978243901812
 10
-113.5443031439596
 20
-20.62957361210263
 10
-113.415567651386
 20
-20.83320391059585
 10
-113.3859954533401
 20
-20.87997298467614
 10
-113.3552982260235
 20
-20.92513487408275
 10
-113.3245474258818
 20
-20.97088606453533
 10
-113.1643646864731
 20
-21.20901726074714
 10
-112.9915923337655
 20
-21.43638031962725
 10
-112.800390930104
 20
-21.64611791988799
 10
-112.7787475097963
 20
-21.66985068027776
 10
-112.7550683222312
 20
-21.69090479953598
 10
-112.7331570378111
 20
-21.71420897734465
 10
-112.5444199839855
 20
-21.91457133365971
 10
-112.3424504429913
 20
-22.10036188224558
 10
-112.1286413082149
 20
-22.27147347745251
 10
-112.1014263143625
 20
-22.29327761623054
 10
-112.0761399421219
 20
-22.31706394944119
 10
-112.0485499385109
 20
-22.33833235999028
 10
-111.8260084336604
 20
-22.51003325624317
 10
-111.5897522862392
 20
-22.66196578098339
 10
-111.3451923513218
 20
-22.80007651750494
 10
-111.2973518207894
 20
-22.82713079288669
 10
-111.2500470184818
 20
-22.85375648569312
 10
-111.201456468434
 20
-22.87947144051583
 10
-110.9555572129534
 20
-23.00943910800706
 10
-110.7016220340916
 20
-23.12349564720397
 10
-110.4388473395102
 20
-23.21767666924101
 10
-110.3951319163124
 20
-23.23337350624542
 10
-110.3506129007774
 20
-23.24580240107487
 10
-110.3064688950017
 20
-23.26048135445061
 10
-110.0338903738941
 20
-23.35091227890751
 10
-109.7557402792405
 20
-23.4265571043418
 10
-109.4701435622556
 20
-23.47621911084162
 10
-109.462964804034
 20
-23.47745128575732
 10
-109.4560539099261
 20
-23.47970134430713
 10
-109.4488215788821
 20
-23.4809335192225
 10
-109.160117638189
 20
-23.53005979749724
 10
-108.8649313859678
 20
-23.55089962546779
 10
-108.5672807839088
 20
-23.55572117949619
 10
-108.5358335370743
 20
-23.55625690772161
 10
-108.50561846516
 20
-23.56364995723211
 10
-108.4740640726806
 20
-23.56364995723211
 10
-108.4668317416372
 20
-23.56364995723211
 10
-108.4594386921263
 20
-23.56241778231289
 10
-108.4522063610823
 20
-23.56236420949234
 10
-108.4328665721443
 20
-23.56231063666922
 10
-108.4131517734471
 20
-23.55925698578225
 10
-108.393758411686
 20
-23.55898912167083
 10
-108.2508261211367
 20
-23.55700692723532
 10
-108.1072509567164
 20
-23.54661379966513
 10
-107.9631400640719
 20
-23.53391704072137
 10
-107.8944061327458
 20
-23.5279168845943
 10
-107.8262079296471
 20
-23.52561325322747
 10
-107.7573668526774
 20
-23.51709517444205
 10
-107.5444684558844
 20
-23.49073734574993
 10
-107.3309807580435
 20
-23.45484355464534
 10
-107.1174394873808
 20
-23.40416366451716
 10
-106.3308833067788
 20
-23.21746237794725
 10
-105.6193826505604
 20
-22.88027503285267
 10
-105.006241696537
 20
-22.43026332347718
 10
-104.546426160635
 20
-22.09275454144485
 10
-104.1418977776001
 20
-21.69181553752002
 10
-103.8025139467782
 20
-21.24341101281885
 10
-103.5762759171723
 20
-20.9444746630201
 10
-103.3789672117401
 20
-20.62443062113905
 10
-103.2135879085446
 20
-20.28793972273506
 10
-102.9654385945168
 20
-19.7832837343636
 10
-102.7891304355231
 20
-19.24176964407974
 10
-102.6941993939724
 20
-18.67930858018166
 10
-102.5677139599454
 20
-17.92939621020284
 10
-102.5860894380788
 20
-17.14225072854947
 10
-102.7727371518233
 20
-16.35574812077322
 10
-102.8453283263716
 20
-16.04984730404281
 10
-102.9470095435615
 20
-15.75921474173508
 10
-103.0629411315483
 20
-15.47736812232996
 97
        0
 97
        1
330
84
 75
     2
 76
     1
 98
        1
 10
0.0
 20
0.0
450
        0
451
        0
460
0.0
461
0.0
452
        0
462
0.0
453
        0
470

  0
SPLINE
  5
86
330
79
100
AcDbEntity
  8
Layer 1
100
AcDbSpline
210
0.0
220
0.0
230
1.0
 70
     9
 71
     3
 72
   167
 73
   163
 74
     0
 42
0.0000000001
 43
0.0000000001
 40
0.0
 40
0.0
 40
0.0
 40
0.0
 40
1.0
 40
1.0
 40
1.0
 40
2.0
 40
2.0
 40
2.0
 40
3.0
 40
3.0
 40
3.0
 40
4.0
 40
4.0
 40
4.0
 40
5.0
 40
5.0
 40
5.0
 40
6.0
 40
6.0
 40
6.0
 40
7.0
 40
7.0
 40
7.0
 40
8.0
 40
8.0
 40
8.0
 40
9.0
 40
9.0
 40
9.0
 40
10.0
 40
10.0
 40
10.0
 40
11.0
 40
11.0
 40
11.0
 40
12.0
 40
12.0
 40
12.0
 40
13.0
 40
13.0
 40
13.0
 40
14.0
 40
14.0
 40
14.0
 40
15.0
 40
15.0
 40
15.0
 40
16.0
 40
16.0
 40
16.0
 40
17.0
 40
17.0
 40
17.0
 40
18.0
 40
18.0
 40
18.0
 40
19.0
 40
19.0
 40
19.0
 40
20.0
 40
20.0
 40
20.0
 40
21.0
 40
21.0
 40
21.0
 40
22.0
 40
22.0
 40
22.0
 40
23.0
 40
23.0
 40
23.0
 40
24.0
 40
24.0
 40
24.0
 40
25.0
 40
25.0
 40
25.0
 40
26.0
 40
26.0
 40
26.0
 40
27.0
 40
27.0
 40
27.0
 40
28.0
 40
28.0
 40
28.0
 40
29.0
 40
29.0
 40
29.0
 40
30.0
 40
30.0
 40
30.0
 40
31.0
 40
31.0
 40
31.0
 40
32.0
 40
32.0
 40
32.0
 40
33.0
 40
33.0
 40
33.0
 40
34.0
 40
34.0
 40
34.0
 40
35.0
 40
35.0
 40
35.0
 40
36.0
 40
36.0
 40
36.0
 40
37.0
 40
37.0
 40
37.0
 40
38.0
 40
38.0
 40
38.0
 40
39.0
 40
39.0
 40
39.0
 40
40.0
 40
40.0
 40
40.0
 40
41.0
 40
41.0
 40
41.0
 40
42.0
 40
42.0
 40
42.0
 40
43.0
 40
43.0
 40
43.0
 40
44.0
 40
44.0
 40
44.0
 40
45.0
 40
45.0
 40
45.0
 40
46.0
 40
46.0
 40
46.0
 40
47.0
 40
47.0
 40
47.0
 40
48.0
 40
48.0
 40
48.0
 40
49.0
 40
49.0
 40
49.0
 40
50.0
 40
50.0
 40
50.0
 40
51.0
 40
51.0
 40
51.0
 40
52.0
 40
52.0
 40
52.0
 40
53.0
 40
53.0
 40
53.0
 40
54.0
 40
54.0
 40
54.0
 40
54.0
 10
-133.2188150778742
 20
-18.27210155602156
 30
0.0
 10
-133.2377798570548
 20
-18.22602892863475
 30
0.0
 10
-133.2547624418019
 20
-18.17925985455094
 30
0.0
 10
-133.2747986774327
 20
-18.1338301010329
 30
0.0
 10
-133.3918017218703
 20
-17.868858920727
 30
0.0
 10
-133.5278231183111
 20
-17.61690593629652
 30
0.0
 10
-133.6796484974032
 20
-17.37668540000843
 30
0.0
 10
-133.7091671226259
 20
-17.33002347157182
 30
0.0
 10
-133.7397572042982
 20
-17.28491515498896
 30
0.0
 10
-133.7704544316174
 20
-17.23927111018005
 30
0.0
 10
-133.9306907438474
 20
-17.00097919550081
 30
0.0
 10
-134.1035702421999
 20
-16.77350899097672
 30
0.0
 10
-134.2948252186845
 20
-16.56361067224565
 30
0.0
 10
-134.3164150661691
 20
-16.53993148468253
 30
0.0
 10
-134.3400942537348
 20
-16.51882379259702
 30
0.0
 10
-134.3620591109774
 20
-16.49546604196908
 30
0.0
 10
-134.5504747278688
 20
-16.2953715497648
 30
0.0
 10
-134.7521764047493
 20
-16.10995601093691
 30
0.0
 10
-134.9655569569446
 20
-15.93900513419742
 30
0.0
 10
-134.9932541062006
 20
-15.91682598566429
 30
0.0
 10
-135.0190226338442
 20
-15.89255749705167
 30
0.0
 10
-135.0470947928581
 20
-15.87091407674107
 30
0.0
 10
-135.2694220064193
 20
-15.69932032613185
 30
0.0
 10
-135.5054102897281
 20
-15.54760209268603
 30
0.0
 10
-135.7497023605325
 20
-15.40954492898792
 30
0.0
 10
-135.7977571823555
 20
-15.38238350795929
 30
0.0
 10
-135.8453834215973
 20
-15.35554352386167
 30
0.0
 10
-135.8941882629356
 20
-15.32977499621905
 30
0.0
 10
-136.1397125086582
 20
-15.1999680471914
 30
0.0
 10
-136.3933262505845
 20
-15.0860186536388
 30
0.0
 10
-136.6557795082318
 20
-14.99189120442809
 30
0.0
 10
-136.7001378052987
 20
-14.97598007613313
 30
0.0
 10
-136.745299694704
 20
-14.96328331718937
 30
0.0
 10
-136.7901401471738
 20
-14.94839007252244
 30
0.0
 10
-137.0616472118306
 20
-14.85833415782384
 30
0.0
 10
-137.3386722772095
 20
-14.78306434214817
 30
0.0
 10
-137.6231439649218
 20
-14.73345590847178
 30
0.0
 10
-137.6313406067717
 20
-14.7320094422649
 30
0.0
 10
-137.639162238863
 20
-14.7295450924271
 30
0.0
 10
-137.6473053078892
 20
-14.72815219904077
 30
0.0
 10
-137.9355806660024
 20
-14.67913306641388
 30
0.0
 10
-138.2303383356445
 20
-14.65840038408732
 30
0.0
 10
-138.5275067822992
 20
-14.65352525723516
 30
0.0
 10
-138.5592754660692
 20
-14.65298952900974
 30
0.0
 10
-138.5898119749197
 20
-14.6455429066758
 30
0.0
 10
-138.6216342315109
 20
-14.6455429066758
 30
0.0
 10
-138.6484206427828
 20
-14.6455429066758
 30
0.0
 10
-138.675689209459
 20
-14.6498823053019
 30
0.0
 10
-138.7025291935527
 20
-14.65025731506052
 30
0.0
 10
-138.8451400471685
 20
-14.65223950949603
 30
0.0
 10
-138.9884473474745
 20
-14.66263263706943
 30
0.0
 10
-139.1321296575397
 20
-14.67527582319007
 30
0.0
 10
-139.2010243073313
 20
-14.68132955213705
 30
0.0
 10
-139.269490374545
 20
-14.68363318350741
 30
0.0
 10
-139.3385457428047
 20
-14.69215126229218
 30
0.0
 10
-139.5515512852426
 20
-14.71850909098141
 30
0.0
 10
-139.7650389830835
 20
-14.75440288208954
 30
0.0
 10
-139.9787409722143
 20
-14.80513634503763
 30
0.0
 10
-140.7649757158807
 20
-14.99173048596098
 30
0.0
 10
-141.4762620808079
 20
-15.32897140387868
 30
0.0
 10
-142.089295889187
 20
-15.77903668607793
 30
0.0
 10
-142.3957860069663
 20
-16.00404254076743
 30
0.0
 10
-142.6777933448408
 20
-16.25733484575695
 30
0.0
 10
-142.9322642519292
 20
-16.53403847420266
 30
0.0
 10
-143.3139706125607
 20
-16.9491207032775
 30
0.0
 10
-143.6338539359759
 20
-17.41697216256289
 30
0.0
 10
-143.8820032500025
 20
-17.92178886940211
 30
0.0
 10
-144.1301525640297
 20
-18.42655200341724
 30
0.0
 10
-144.3066214414921
 20
-18.96822681216853
 30
0.0
 10
-144.401606055864
 20
-19.53074144888716
 30
0.0
 10
-144.4332675939872
 20
-19.71824632779455
 30
0.0
 10
-144.4558217522796
 20
-19.90810841089221
 30
0.0
 10
-144.469000666625
 20
-20.09968482431107
 30
0.0
 10
-144.482179580971
 20
-20.29126123773314
 30
0.0
 10
-144.4859296785496
 20
-20.48449840864943
 30
0.0
 10
-144.4798759496013
 20
-20.67896775448847
 30
0.0
 10
-144.4738222206543
 20
-20.87338352750311
 30
0.0
 10
-144.4579646651806
 20
-21.06903147543697
 30
0.0
 10
-144.4319818462464
 20
-21.26516157877312
 30
0.0
 10
-144.4059990273123
 20
-21.46129168210927
 30
0.0
 10
-144.3698373720953
 20
-21.65795751367148
 30
0.0
 10
-144.3231754436574
 20
-21.85462334523304
 30
0.0
 10
-144.2505842691098
 20
-22.16057773478688
 30
0.0
 10
-144.1489030519205
 20
-22.4513174427354
 30
0.0
 10
-144.0329178911105
 20
-22.73316406214405
 30
0.0
 10
-144.0140066847524
 20
-22.77918311671094
 30
0.0
 10
-143.9970776728278
 20
-22.82584504514756
 30
0.0
 10
-143.9770414371963
 20
-22.8711676530184
 30
0.0
 10
-143.8600919655812
 20
-23.13603168768062
 30
0.0
 10
-143.7241241419628
 20
-23.38782395364014
 30
0.0
 10
-143.5723523356933
 20
-23.62793734428456
 30
0.0
 10
-143.5427265648262
 20
-23.67481356401205
 30
0.0
 10
-143.5119757646858
 20
-23.72013617188642
 30
0.0
 10
-143.4810642460767
 20
-23.76604808080611
 30
0.0
 10
-143.3208279338455
 20
-24.00423284984167
 30
0.0
 10
-143.1479484354936
 20
-24.23159590872178
 30
0.0
 10
-142.9567470318321
 20
-24.44138708180564
 30
0.0
 10
-142.9353714756368
 20
-24.46479840525798
 30
0.0
 10
-142.9120137250072
 20
-24.48563823322822
 30
0.0
 10
-142.8902631590546
 20
-24.50872811974538
 30
0.0
 10
-142.7012582411153
 20
-24.70946548581938
 30
0.0
 10
-142.4989672631875
 20
-24.89552389851636
 30
0.0
 10
-142.2848366914756
 20
-25.06684978501704
 30
0.0
 10
-142.2578359889131
 20
-25.08849320532475
 30
0.0
 10
-142.2327639079624
 20
-25.11206524724421
 30
0.0
 10
-142.2053346228188
 20
-25.13322651214963
 30
0.0
 10
-141.9824181082104
 20
-25.30524884534059
 30
0.0
 10
-141.745840523853
 20
-25.45734208854503
 30
0.0
 10
-141.5009055791782
 20
-25.59566711635457
 30
0.0
 10
-141.4535472040488
 20
-25.62239995480466
 30
0.0
 10
-141.4067781299666
 20
-25.6488113563199
 30
0.0
 10
-141.3587233081442
 20
-25.67420487420422
 30
0.0
 10
-141.1126633341968
 20
-25.80433326016673
 30
0.0
 10
-140.8585138640439
 20
-25.91844337218708
 30
0.0
 10
-140.5955248781731
 20
-26.0127315398649
 30
0.0
 10
-140.551702309331
 20
-26.02848194969211
 30
0.0
 10
-140.5071297209736
 20
-26.040964417345
 30
0.0
 10
-140.462878569551
 20
-26.05564337072459
 30
0.0
 10
-140.1898714658636
 20
-26.14623501364572
 30
0.0
 10
-139.9113463614533
 20
-26.22198698472656
 30
0.0
 10
-139.6253210618873
 20
-26.27170256404726
 30
0.0
 10
-139.6187316047136
 20
-26.27282759332217
 30
0.0
 10
-139.6124635844761
 20
-26.27486336057791
 30
0.0
 10
-139.605874127303
 20
-26.27598838984992
 30
0.0
 10
-139.3171701866093
 20
-26.32511466812402
 30
0.0
 10
-139.0219839343875
 20
-26.34595449609426
 30
0.0
 10
-138.7243869051523
 20
-26.35082962294641
 30
0.0
 10
-138.6928325126728
 20
-26.35136535117183
 30
0.0
 10
-138.6625102951123
 20
-26.35875840068233
 30
0.0
 10
-138.6308487569891
 20
-26.35875840068233
 30
0.0
 10
-138.6042766370065
 20
-26.35875840068233
 30
0.0
 10
-138.5771687887997
 20
-26.35447257487967
 30
0.0
 10
-138.5505430959945
 20
-26.35409756512105
 30
0.0
 10
-138.4078250967345
 20
-26.35211537068554
 30
0.0
 10
-138.2643035051367
 20
-26.3416686702916
 30
0.0
 10
-138.1204604766052
 20
-26.32902548417159
 30
0.0
 10
-138.0516729724573
 20
-26.32302532804452
 30
0.0
 10
-137.983367623713
 20
-26.32072169667416
 30
0.0
 10
-137.9143658282752
 20
-26.31220361789227
 30
0.0
 10
-137.7015210043053
 20
-26.28589936202103
 30
0.0
 10
-137.4881940249319
 20
-26.25000557091579
 30
0.0
 10
-137.274706327091
 20
-26.19932568079114
 30
0.0
 10
-136.9796272205148
 20
-26.12930600172273
 30
0.0
 10
-136.6952091056243
 20
-26.03812505775243
 30
0.0
 10
-136.4225234388718
 20
-25.92776504330901
 30
0.0
 10
-136.1498377721186
 20
-25.81740502886912
 30
0.0
 10
-135.8889381263258
 20
-25.6878659439529
 30
0.0
 10
-135.6410566764116
 20
-25.54112998300515
 30
0.0
 10
-135.4758380916836
 20
-25.4433060090387
 30
0.0
 10
-135.3163517989677
 20
-25.33782112144711
 30
0.0
 10
-135.1630263808449
 20
-25.22531819410364
 30
0.0
 10
-134.8563755445983
 20
-25.00031233941478
 30
0.0
 10
-134.5743146339013
 20
-24.74707360724453
 30
0.0
 10
-134.319790153991
 20
-24.47036997880267
 30
0.0
 10
-134.0652121012575
 20
-24.19366635036081
 30
0.0
 10
-133.8382240521357
 20
-23.89349782563995
 30
0.0
 10
-133.6415582205738
 20
-23.57463238585436
 30
0.0
 10
-132.8551091856168
 20
-22.29906348106352
 30
0.0
 10
-132.5553156706568
 20
-20.72359391566903
 30
0.0
 10
-132.9286110981479
 20
-19.15053512728536
 30
0.0
 10
-133.0012022726968
 20
-18.84463431055561
 30
0.0
 10
-133.1028834898867
 20
-18.55394817542732
 30
0.0
 10
-133.2188150778742
 20
-18.27210155602156
 30
0.0
  0
HATCH
  5
87
330
79
100
AcDbEntity
  8
Layer 1
 62
     7
440
 33554687
100
AcDbHatch
 10
0.0
 20
0.0
 30
0.0
210
0.0
220
0.0
230
1.0
  2
SOLID
 70
     1
 71
     1
 91
        1
 92
        1
 93
        1
 72
     4
 94
        3
 73
     0
 74
     0
 95
      167
 96
      163
 40
0.0
 40
0.0
 40
0.0
 40
0.0
 40
1.0
 40
1.0
 40
1.0
 40
2.0
 40
2.0
 40
2.0
 40
3.0
 40
3.0
 40
3.0
 40
4.0
 40
4.0
 40
4.0
 40
5.0
 40
5.0
 40
5.0
 40
6.0
 40
6.0
 40
6.0
 40
7.0
 40
7.0
 40
7.0
 40
8.0
 40
8.0
 40
8.0
 40
9.0
 40
9.0
 40
9.0
 40
10.0
 40
10.0
 40
10.0
 40
11.0
 40
11.0
 40
11.0
 40
12.0
 40
12.0
 40
12.0
 40
13.0
 40
13.0
 40
13.0
 40
14.0
 40
14.0
 40
14.0
 40
15.0
 40
15.0
 40
15.0
 40
16.0
 40
16.0
 40
16.0
 40
17.0
 40
17.0
 40
17.0
 40
18.0
 40
18.0
 40
18.0
 40
19.0
 40
19.0
 40
19.0
 40
20.0
 40
20.0
 40
20.0
 40
21.0
 40
21.0
 40
21.0
 40
22.0
 40
22.0
 40
22.0
 40
23.0
 40
23.0
 40
23.0
 40
24.0
 40
24.0
 40
24.0
 40
25.0
 40
25.0
 40
25.0
 40
26.0
 40
26.0
 40
26.0
 40
27.0
 40
27.0
 40
27.0
 40
28.0
 40
28.0
 40
28.0
 40
29.0
 40
29.0
 40
29.0
 40
30.0
 40
30.0
 40
30.0
 40
31.0
 40
31.0
 40
31.0
 40
32.0
 40
32.0
 40
32.0
 40
33.0
 40
33.0
 40
33.0
 40
34.0
 40
34.0
 40
34.0
 40
35.0
 40
35.0
 40
35.0
 40
36.0
 40
36.0
 40
36.0
 40
37.0
 40
37.0
 40
37.0
 40
38.0
 40
38.0
 40
38.0
 40
39.0
 40
39.0
 40
39.0
 40
40.0
 40
40.0
 40
40.0
 40
41.0
 40
41.0
 40
41.0
 40
42.0
 40
42.0
 40
42.0
 40
43.0
 40
43.0
 40
43.0
 40
44.0
 40
44.0
 40
44.0
 40
45.0
 40
45.0
 40
45.0
 40
46.0
 40
46.0
 40
46.0
 40
47.0
 40
47.0
 40
47.0
 40
48.0
 40
48.0
 40
48.0
 40
49.0
 40
49.0
 40
49.0
 40
50.0
 40
50.0
 40
50.0
 40
51.0
 40
51.0
 40
51.0
 40
52.0
 40
52.0
 40
52.0
 40
53.0
 40
53.0
 40
53.0
 40
54.0
 40
54.0
 40
54.0
 40
54.0
 10
-133.2188150778742
 20
-18.27210155602156
 10
-133.2377798570548
 20
-18.22602892863475
 10
-133.2547624418019
 20
-18.17925985455094
 10
-133.2747986774327
 20
-18.1338301010329
 10
-133.3918017218703
 20
-17.868858920727
 10
-133.5278231183111
 20
-17.61690593629652
 10
-133.6796484974032
 20
-17.37668540000843
 10
-133.7091671226259
 20
-17.33002347157182
 10
-133.7397572042982
 20
-17.28491515498896
 10
-133.7704544316174
 20
-17.23927111018005
 10
-133.9306907438474
 20
-17.00097919550081
 10
-134.1035702421999
 20
-16.77350899097672
 10
-134.2948252186845
 20
-16.56361067224565
 10
-134.3164150661691
 20
-16.53993148468253
 10
-134.3400942537348
 20
-16.51882379259702
 10
-134.3620591109774
 20
-16.49546604196908
 10
-134.5504747278688
 20
-16.2953715497648
 10
-134.7521764047493
 20
-16.10995601093691
 10
-134.9655569569446
 20
-15.93900513419742
 10
-134.9932541062006
 20
-15.91682598566429
 10
-135.0190226338442
 20
-15.89255749705167
 10
-135.0470947928581
 20
-15.87091407674107
 10
-135.2694220064193
 20
-15.69932032613185
 10
-135.5054102897281
 20
-15.54760209268603
 10
-135.7497023605325
 20
-15.40954492898792
 10
-135.7977571823555
 20
-15.38238350795929
 10
-135.8453834215973
 20
-15.35554352386167
 10
-135.8941882629356
 20
-15.32977499621905
 10
-136.1397125086582
 20
-15.1999680471914
 10
-136.3933262505845
 20
-15.0860186536388
 10
-136.6557795082318
 20
-14.99189120442809
 10
-136.7001378052987
 20
-14.97598007613313
 10
-136.745299694704
 20
-14.96328331718937
 10
-136.7901401471738
 20
-14.94839007252244
 10
-137.0616472118306
 20
-14.85833415782384
 10
-137.3386722772095
 20
-14.78306434214817
 10
-137.6231439649218
 20
-14.73345590847178
 10
-137.6313406067717
 20
-14.7320094422649
 10
-137.639162238863
 20
-14.7295450924271
 10
-137.6473053078892
 20
-14.72815219904077
 10
-137.9355806660024
 20
-14.67913306641388
 10
-138.2303383356445
 20
-14.65840038408732
 10
-138.5275067822992
 20
-14.65352525723516
 10
-138.5592754660692
 20
-14.65298952900974
 10
-138.5898119749197
 20
-14.6455429066758
 10
-138.6216342315109
 20
-14.6455429066758
 10
-138.6484206427828
 20
-14.6455429066758
 10
-138.675689209459
 20
-14.6498823053019
 10
-138.7025291935527
 20
-14.65025731506052
 10
-138.8451400471685
 20
-14.65223950949603
 10
-138.9884473474745
 20
-14.66263263706943
 10
-139.1321296575397
 20
-14.67527582319007
 10
-139.2010243073313
 20
-14.68132955213705
 10
-139.269490374545
 20
-14.68363318350741
 10
-139.3385457428047
 20
-14.69215126229218
 10
-139.5515512852426
 20
-14.71850909098141
 10
-139.7650389830835
 20
-14.75440288208954
 10
-139.9787409722143
 20
-14.80513634503763
 10
-140.7649757158807
 20
-14.99173048596098
 10
-141.4762620808079
 20
-15.32897140387868
 10
-142.089295889187
 20
-15.77903668607793
 10
-142.3957860069663
 20
-16.00404254076743
 10
-142.6777933448408
 20
-16.25733484575695
 10
-142.9322642519292
 20
-16.53403847420266
 10
-143.3139706125607
 20
-16.9491207032775
 10
-143.6338539359759
 20
-17.41697216256289
 10
-143.8820032500025
 20
-17.92178886940211
 10
-144.1301525640297
 20
-18.42655200341724
 10
-144.3066214414921
 20
-18.96822681216853
 10
-144.401606055864
 20
-19.53074144888716
 10
-144.4332675939872
 20
-19.71824632779455
 10
-144.4558217522796
 20
-19.90810841089221
 10
-144.469000666625
 20
-20.09968482431107
 10
-144.482179580971
 20
-20.29126123773314
 10
-144.4859296785496
 20
-20.48449840864943
 10
-144.4798759496013
 20
-20.67896775448847
 10
-144.4738222206543
 20
-20.87338352750311
 10
-144.4579646651806
 20
-21.06903147543697
 10
-144.4319818462464
 20
-21.26516157877312
 10
-144.4059990273123
 20
-21.46129168210927
 10
-144.3698373720953
 20
-21.65795751367148
 10
-144.3231754436574
 20
-21.85462334523304
 10
-144.2505842691098
 20
-22.16057773478688
 10
-144.1489030519205
 20
-22.4513174427354
 10
-144.0329178911105
 20
-22.73316406214405
 10
-144.0140066847524
 20
-22.77918311671094
 10
-143.9970776728278
 20
-22.82584504514756
 10
-143.9770414371963
 20
-22.8711676530184
 10
-143.8600919655812
 20
-23.13603168768062
 10
-143.7241241419628
 20
-23.38782395364014
 10
-143.5723523356933
 20
-23.62793734428456
 10
-143.5427265648262
 20
-23.67481356401205
 10
-143.5119757646858
 20
-23.72013617188642
 10
-143.4810642460767
 20
-23.76604808080611
 10
-143.3208279338455
 20
-24.00423284984167
 10
-143.1479484354936
 20
-24.23159590872178
 10
-142.9567470318321
 20
-24.44138708180564
 10
-142.9353714756368
 20
-24.46479840525798
 10
-142.9120137250072
 20
-24.48563823322822
 10
-142.8902631590546
 20
-24.50872811974538
 10
-142.7012582411153
 20
-24.70946548581938
 10
-142.4989672631875
 20
-24.89552389851636
 10
-142.2848366914756
 20
-25.06684978501704
 10
-142.2578359889131
 20
-25.08849320532475
 10
-142.2327639079624
 20
-25.11206524724421
 10
-142.2053346228188
 20
-25.13322651214963
 10
-141.9824181082104
 20
-25.30524884534059
 10
-141.745840523853
 20
-25.45734208854503
 10
-141.5009055791782
 20
-25.59566711635457
 10
-141.4535472040488
 20
-25.62239995480466
 10
-141.4067781299666
 20
-25.6488113563199
 10
-141.3587233081442
 20
-25.67420487420422
 10
-141.1126633341968
 20
-25.80433326016673
 10
-140.8585138640439
 20
-25.91844337218708
 10
-140.5955248781731
 20
-26.0127315398649
 10
-140.551702309331
 20
-26.02848194969211
 10
-140.5071297209736
 20
-26.040964417345
 10
-140.462878569551
 20
-26.05564337072459
 10
-140.1898714658636
 20
-26.14623501364572
 10
-139.9113463614533
 20
-26.22198698472656
 10
-139.6253210618873
 20
-26.27170256404726
 10
-139.6187316047136
 20
-26.27282759332217
 10
-139.6124635844761
 20
-26.27486336057791
 10
-139.605874127303
 20
-26.27598838984992
 10
-139.3171701866093
 20
-26.32511466812402
 10
-139.0219839343875
 20
-26.34595449609426
 10
-138.7243869051523
 20
-26.35082962294641
 10
-138.6928325126728
 20
-26.35136535117183
 10
-138.6625102951123
 20
-26.35875840068233
 10
-138.6308487569891
 20
-26.35875840068233
 10
-138.6042766370065
 20
-26.35875840068233
 10
-138.5771687887997
 20
-26.35447257487967
 10
-138.5505430959945
 20
-26.35409756512105
 10
-138.4078250967345
 20
-26.35211537068554
 10
-138.2643035051367
 20
-26.3416686702916
 10
-138.1204604766052
 20
-26.32902548417159
 10
-138.0516729724573
 20
-26.32302532804452
 10
-137.983367623713
 20
-26.32072169667416
 10
-137.9143658282752
 20
-26.31220361789227
 10
-137.7015210043053
 20
-26.28589936202103
 10
-137.4881940249319
 20
-26.25000557091579
 10
-137.274706327091
 20
-26.19932568079114
 10
-136.9796272205148
 20
-26.12930600172273
 10
-136.6952091056243
 20
-26.03812505775243
 10
-136.4225234388718
 20
-25.92776504330901
 10
-136.1498377721186
 20
-25.81740502886912
 10
-135.8889381263258
 20
-25.6878659439529
 10
-135.6410566764116
 20
-25.54112998300515
 10
-135.4758380916836
 20
-25.4433060090387
 10
-135.3163517989677
 20
-25.33782112144711
 10
-135.1630263808449
 20
-25.22531819410364
 10
-134.8563755445983
 20
-25.00031233941478
 10
-134.5743146339013
 20
-24.74707360724453
 10
-134.319790153991
 20
-24.47036997880267
 10
-134.0652121012575
 20
-24.19366635036081
 10
-133.8382240521357
 20
-23.89349782563995
 10
-133.6415582205738
 20
-23.57463238585436
 10
-132.8551091856168
 20
-22.29906348106352
 10
-132.5553156706568
 20
-20.72359391566903
 10
-132.9286110981479
 20
-19.15053512728536
 10
-133.0012022726968
 20
-18.84463431055561
 10
-133.1028834898867
 20
-18.55394817542732
 10
-133.2188150778742
 20
-18.27210155602156
 97
        0
 97
        1
330
86
 75
     2
 76
     1
 98
        1
 10
0.0
 20
0.0
450
        0
451
        0
460
0.0
461
0.0
452
        0
462
0.0
453
        0
470

  0
SPLINE
  5
88
330
79
100
AcDbEntity
  8
Layer 1
100
AcDbSpline
210
0.0
220
0.0
230
1.0
 70
     9
 71
     3
 72
   149
 73
   145
 74
     0
 42
0.0000000001
 43
0.0000000001
 40
0.0
 40
0.0
 40
0.0
 40
0.0
 40
1.0
 40
1.0
 40
1.0
 40
2.0
 40
2.0
 40
2.0
 40
3.0
 40
3.0
 40
3.0
 40
4.0
 40
4.0
 40
4.0
 40
5.0
 40
5.0
 40
5.0
 40
6.0
 40
6.0
 40
6.0
 40
7.0
 40
7.0
 40
7.0
 40
8.0
 40
8.0
 40
8.0
 40
9.0
 40
9.0
 40
9.0
 40
10.0
 40
10.0
 40
10.0
 40
11.0
 40
11.0
 40
11.0
 40
12.0
 40
12.0
 40
12.0
 40
13.0
 40
13.0
 40
13.0
 40
14.0
 40
14.0
 40
14.0
 40
15.0
 40
15.0
 40
15.0
 40
16.0
 40
16.0
 40
16.0
 40
17.0
 40
17.0
 40
17.0
 40
18.0
 40
18.0
 40
18.0
 40
19.0
 40
19.0
 40
19.0
 40
20.0
 40
20.0
 40
20.0
 40
21.0
 40
21.0
 40
21.0
 40
22.0
 40
22.0
 40
22.0
 40
23.0
 40
23.0
 40
23.0
 40
24.0
 40
24.0
 40
24.0
 40
25.0
 40
25.0
 40
25.0
 40
26.0
 40
26.0
 40
26.0
 40
27.0
 40
27.0
 40
27.0
 40
28.0
 40
28.0
 40
28.0
 40
29.0
 40
29.0
 40
29.0
 40
30.0
 40
30.0
 40
30.0
 40
31.0
 40
31.0
 40
31.0
 40
32.0
 40
32.0
 40
32.0
 40
33.0
 40
33.0
 40
33.0
 40
34.0
 40
34.0
 40
34.0
 40
35.0
 40
35.0
 40
35.0
 40
36.0
 40
36.0
 40
36.0
 40
37.0
 40
37.0
 40
37.0
 40
38.0
 40
38.0
 40
38.0
 40
39.0
 40
39.0
 40
39.0
 40
40.0
 40
40.0
 40
40.0
 40
41.0
 40
41.0
 40
41.0
 40
42.0
 40
42.0
 40
42.0
 40
43.0
 40
43.0
 40
43.0
 40
44.0
 40
44.0
 40
44.0
 40
45.0
 40
45.0
 40
45.0
 40
46.0
 40
46.0
 40
46.0
 40
47.0
 40
47.0
 40
47.0
 40
48.0
 40
48.0
 40
48.0
 40
48.0
 10
-75.48681288204294
 20
-4.571495064070886
 30
0.0
 10
-75.50577766122486
 20
-4.525422436683122
 30
0.0
 10
-75.52276024597194
 20
-4.478599789779393
 30
0.0
 10
-75.54279648160276
 20
-4.433170036261355
 30
0.0
 10
-75.65969238039482
 20
-4.16835957442257
 30
0.0
 10
-75.79560663119192
 20
-3.916620881282965
 30
0.0
 10
-75.94732486463837
 20
-3.676561063462946
 30
0.0
 10
-75.97705778115041
 20
-3.629524125267705
 30
0.0
 10
-76.00786215411389
 20
-3.584094371749666
 30
0.0
 10
-76.03882724554418
 20
-3.538075317186303
 30
0.0
 10
-76.19900998495229
 20
-3.299944120970649
 30
0.0
 10
-76.37188948330545
 20
-3.072527489270633
 30
0.0
 10
-76.5630373141445
 20
-2.862736316186128
 30
0.0
 10
-76.58435929751799
 20
-2.839378565554656
 30
0.0
 10
-76.60766347532441
 20
-2.818538737587951
 30
0.0
 10
-76.62930689563212
 20
-2.79555599671446
 30
0.0
 10
-76.81815109510274
 20
-2.594979349104685
 30
0.0
 10
-77.02028135456369
 20
-2.409028082054589
 30
0.0
 10
-77.2341976349844
 20
-2.237755768377023
 30
0.0
 10
-77.26157334730615
 20
-2.215790911134769
 30
0.0
 10
-77.28707401083735
 20
-2.191897432280129
 30
0.0
 10
-77.31482473291515
 20
-2.170468303261042
 30
0.0
 10
-77.53736623776622
 20
-1.998713834184711
 30
0.0
 10
-77.77356881236563
 20
-1.846781309447378
 30
0.0
 10
-78.0181287472824
 20
-1.708617000102069
 30
0.0
 10
-78.06586213216984
 20
-1.681616297540547
 30
0.0
 10
-78.11311336165435
 20
-1.654990604737328
 30
0.0
 10
-78.16159676605839
 20
-1.629329222738377
 30
0.0
 10
-78.40744244871526
 20
-1.499307982419859
 30
0.0
 10
-78.66132405475522
 20
-1.385305016046708
 30
0.0
 10
-78.92409874933666
 20
-1.291070421189437
 30
0.0
 10
-78.96813560946934
 20
-1.275266438537828
 30
0.0
 10
-79.01302963476165
 20
-1.262623252417824
 30
0.0
 10
-79.05749507747413
 20
-1.247890726218324
 30
0.0
 10
-79.32985930729119
 20
-1.157513374584861
 30
0.0
 10
-79.60774153783042
 20
-1.081975694798097
 30
0.0
 10
-79.89317753634921
 20
-1.032313688297948
 30
0.0
 10
-79.90040986739197
 20
-1.031081513379048
 30
0.0
 10
-79.90721361585619
 20
-1.028831454832121
 30
0.0
 10
-79.91444594689959
 20
-1.027599279913543
 30
0.0
 10
-80.20309631476957
 20
-0.9784730016423363
 30
0.0
 10
-80.49828256699267
 20
-0.9576867464952204
 30
0.0
 10
-80.79582602340606
 20
-0.9528116196433845
 30
0.0
 10
-80.82738041588424
 20
-0.9522758914176508
 30
0.0
 10
-80.85770263344414
 20
-0.9448828419042561
 30
0.0
 10
-80.88936417156856
 20
-0.9448828419042561
 30
0.0
 10
-80.9159898643737
 20
-0.9448828419042561
 30
0.0
 10
-80.94309771258114
 20
-0.9491686677104478
 30
0.0
 10
-80.96972340538565
 20
-0.9495436774655418
 30
0.0
 10
-81.11244140464441
 20
-0.9515258719007249
 30
0.0
 10
-81.25585585059727
 20
-0.9619725722978829
 30
0.0
 10
-81.39969887912997
 20
-0.9745621855947678
 30
0.0
 10
-81.46859352892283
 20
-0.9806159145455925
 30
0.0
 10
-81.53705959613395
 20
-0.9828659730918779
 30
0.0
 10
-81.60611496439489
 20
-0.9914376246972027
 30
0.0
 10
-81.81901336118725
 20
-1.017795453389319
 30
0.0
 10
-82.03239391338382
 20
-1.053689244494237
 30
0.0
 10
-82.24593518404653
 20
-1.104369134622094
 30
0.0
 10
-83.03249136464911
 20
-1.291016848365997
 30
0.0
 10
-83.74399202086499
 20
-1.628311339110349
 30
0.0
 10
-84.35718654771276
 20
-2.078430194129825
 30
0.0
 10
-84.97032750173678
 20
-2.528495476329069
 30
0.0
 10
-85.48521589921453
 20
-3.091438695629445
 30
0.0
 10
-85.87838684387021
 20
-3.72933029366709
 30
0.0
 10
-86.27155778852593
 20
-4.367275464531704
 30
0.0
 10
-86.54301128036086
 20
-5.080169014137116
 30
0.0
 10
-86.66960386003346
 20
-5.830188529762176
 30
0.0
 10
-86.7012118253354
 20
-6.017693408669563
 30
0.0
 10
-86.72376598362715
 20
-6.207555491764019
 30
0.0
 10
-86.7369448979719
 20
-6.399131905186727
 30
0.0
 10
-86.75665969666916
 20
-6.686496525316619
 30
0.0
 10
-86.75521323045972
 20
-6.97777196149087
 30
0.0
 10
-86.7313197516054
 20
-7.270868873633194
 30
0.0
 10
-86.70742627275108
 20
-7.56401935859992
 30
0.0
 10
-86.66108578124996
 20
-7.859044892353987
 30
0.0
 10
-86.59111967500628
 20
-8.154016853284936
 30
0.0
 10
-86.59101252936132
 20
-8.154499008687229
 30
0.0
 10
-86.59079823807077
 20
-8.154927591266085
 30
0.0
 10
-86.59069109242581
 20
-8.155409746671267
 30
0.0
 10
-86.5182070635225
 20
-8.460453398240749
 30
0.0
 10
-86.41684728326806
 20
-8.750389513852431
 30
0.0
 10
-86.30123713221612
 20
-9.031539686567917
 30
0.0
 10
-86.28211163456738
 20
-9.077987323713983
 30
0.0
 10
-86.2649683313529
 20
-9.125292126020326
 30
0.0
 10
-86.24477137725397
 20
-9.171043316472909
 30
0.0
 10
-86.12787547846194
 20
-9.43574663266706
 30
0.0
 10
-85.99196122766484
 20
-9.687378180159784
 30
0.0
 10
-85.84029656704215
 20
-9.927330852339663
 30
0.0
 10
-85.81072436899626
 20
-9.974207072063942
 30
0.0
 10
-85.78002714167835
 20
-10.01947610711487
 30
0.0
 10
-85.7491691958924
 20
-10.06528087039089
 30
0.0
 10
-85.58893288366116
 20
-10.30346563942613
 30
0.0
 10
-85.41605338530992
 20
-10.53088227112647
 30
0.0
 10
-85.22485198164648
 20
-10.74072701703409
 30
0.0
 10
-85.20347642545244
 20
-10.76419191330988
 30
0.0
 10
-85.18006510199912
 20
-10.78503174128043
 30
0.0
 10
-85.15831453604645
 20
-10.80812162779728
 30
0.0
 10
-84.96936319093091
 20
-11.00880542104783
 30
0.0
 10
-84.76712578582434
 20
-11.19486383374802
 30
0.0
 10
-84.5529952141131
 20
-11.36618972024614
 30
0.0
 10
-84.52599451155125
 20
-11.38783314055353
 30
0.0
 10
-84.50086885777675
 20
-11.41145875529353
 30
0.0
 10
-84.47349314545693
 20
-11.4325664473784
 30
0.0
 10
-84.25068377649347
 20
-11.60458878056904
 30
0.0
 10
-84.01405261931358
 20
-11.75668202377349
 30
0.0
 10
-83.76911767463822
 20
-11.89500705158302
 30
0.0
 10
-83.72175929950939
 20
-11.92173989003312
 30
0.0
 10
-83.67488307978286
 20
-11.94815129154835
 30
0.0
 10
-83.62677468513743
 20
-11.97359838225643
 30
0.0
 10
-83.38066113836692
 20
-12.10378034104238
 30
0.0
 10
-83.12656524103703
 20
-12.21794402588264
 30
0.0
 10
-82.86346910952008
 20
-12.312232193564
 30
0.0
 10
-82.81991440479163
 20
-12.32782188492409
 30
0.0
 10
-82.77555610772409
 20
-12.34025077975355
 30
0.0
 10
-82.7315728204139
 20
-12.35487616030938
 30
0.0
 10
-82.45861928954896
 20
-12.44552137605426
 30
0.0
 10
-82.18004061231622
 20
-12.52121977431134
 30
0.0
 10
-81.8940153127502
 20
-12.57093535363205
 30
0.0
 10
-81.88726513710909
 20
-12.57211395572686
 30
0.0
 10
-81.88078282558166
 20
-12.57414972298292
 30
0.0
 10
-81.87403264994056
 20
-12.57532832507838
 30
0.0
 10
-81.5852215636025
 20
-12.62445460335247
 30
0.0
 10
-81.28992816573509
 20
-12.64534800414647
 30
0.0
 10
-80.99222399085427
 20
-12.65016955817519
 30
0.0
 10
-80.96072317119858
 20
-12.65070528640092
 30
0.0
 10
-80.93050809928298
 20
-12.65809833591079
 30
0.0
 10
-80.89895370680416
 20
-12.65809833591079
 30
0.0
 10
-80.87232801399837
 20
-12.65809833591079
 30
0.0
 10
-80.84522016579157
 20
-12.65381251010812
 30
0.0
 10
-80.81859447298644
 20
-12.65343750035014
 30
0.0
 10
-80.67593004655014
 20
-12.65150887873776
 30
0.0
 10
-80.53256917342103
 20
-12.64100860552004
 30
0.0
 10
-80.38883329053264
 20
-12.6284189922206
 30
0.0
 10
-80.3196707766274
 20
-12.62236526327362
 30
0.0
 10
-80.25099041812573
 20
-12.62006163190614
 30
0.0
 10
-80.18166718575242
 20
-12.61148998029793
 30
0.0
 10
-79.96882236178254
 20
-12.58513215160581
 30
0.0
 10
-79.75544180958661
 20
-12.54923836050057
 30
0.0
 10
-79.54195411174509
 20
-12.49855847037304
 30
0.0
 10
-76.39567581651546
 20
-11.75191404256853
 30
0.0
 10
-74.44996447451275
 20
-8.596046212101061
 30
0.0
 10
-75.19660890231918
 20
-5.449928635337583
 30
0.0
 10
-75.26920007686682
 20
-5.144027818607823
 30
0.0
 10
-75.37088129405676
 20
-4.853341683479216
 30
0.0
 10
-75.48681288204294
 20
-4.571495064070886
 30
0.0
  0
HATCH
  5
89
330
79
100
AcDbEntity
  8
Layer 1
 62
     7
440
 33554687
100
AcDbHatch
 10
0.0
 20
0.0
 30
0.0
210
0.0
220
0.0
230
1.0
  2
SOLID
 70
     1
 71
     1
 91
        1
 92
        1
 93
        1
 72
     4
 94
        3
 73
     0
 74
     0
 95
      149
 96
      145
 40
0.0
 40
0.0
 40
0.0
 40
0.0
 40
1.0
 40
1.0
 40
1.0
 40
2.0
 40
2.0
 40
2.0
 40
3.0
 40
3.0
 40
3.0
 40
4.0
 40
4.0
 40
4.0
 40
5.0
 40
5.0
 40
5.0
 40
6.0
 40
6.0
 40
6.0
 40
7.0
 40
7.0
 40
7.0
 40
8.0
 40
8.0
 40
8.0
 40
9.0
 40
9.0
 40
9.0
 40
10.0
 40
10.0
 40
10.0
 40
11.0
 40
11.0
 40
11.0
 40
12.0
 40
12.0
 40
12.0
 40
13.0
 40
13.0
 40
13.0
 40
14.0
 40
14.0
 40
14.0
 40
15.0
 40
15.0
 40
15.0
 40
16.0
 40
16.0
 40
16.0
 40
17.0
 40
17.0
 40
17.0
 40
18.0
 40
18.0
 40
18.0
 40
19.0
 40
19.0
 40
19.0
 40
20.0
 40
20.0
 40
20.0
 40
21.0
 40
21.0
 40
21.0
 40
22.0
 40
22.0
 40
22.0
 40
23.0
 40
23.0
 40
23.0
 40
24.0
 40
24.0
 40
24.0
 40
25.0
 40
25.0
 40
25.0
 40
26.0
 40
26.0
 40
26.0
 40
27.0
 40
27.0
 40
27.0
 40
28.0
 40
28.0
 40
28.0
 40
29.0
 40
29.0
 40
29.0
 40
30.0
 40
30.0
 40
30.0
 40
31.0
 40
31.0
 40
31.0
 40
32.0
 40
32.0
 40
32.0
 40
33.0
 40
33.0
 40
33.0
 40
34.0
 40
34.0
 40
34.0
 40
35.0
 40
35.0
 40
35.0
 40
36.0
 40
36.0
 40
36.0
 40
37.0
 40
37.0
 40
37.0
 40
38.0
 40
38.0
 40
38.0
 40
39.0
 40
39.0
 40
39.0
 40
40.0
 40
40.0
 40
40.0
 40
41.0
 40
41.0
 40
41.0
 40
42.0
 40
42.0
 40
42.0
 40
43.0
 40
43.0
 40
43.0
 40
44.0
 40
44.0
 40
44.0
 40
45.0
 40
45.0
 40
45.0
 40
46.0
 40
46.0
 40
46.0
 40
47.0
 40
47.0
 40
47.0
 40
48.0
 40
48.0
 40
48.0
 40
48.0
 10
-75.48681288204294
 20
-4.571495064070886
 10
-75.50577766122486
 20
-4.525422436683122
 10
-75.52276024597194
 20
-4.478599789779393
 10
-75.54279648160276
 20
-4.433170036261355
 10
-75.65969238039482
 20
-4.16835957442257
 10
-75.79560663119192
 20
-3.916620881282965
 10
-75.94732486463837
 20
-3.676561063462946
 10
-75.97705778115041
 20
-3.629524125267705
 10
-76.00786215411389
 20
-3.584094371749666
 10
-76.03882724554418
 20
-3.538075317186303
 10
-76.19900998495229
 20
-3.299944120970649
 10
-76.37188948330545
 20
-3.072527489270633
 10
-76.5630373141445
 20
-2.862736316186128
 10
-76.58435929751799
 20
-2.839378565554656
 10
-76.60766347532441
 20
-2.818538737587951
 10
-76.62930689563212
 20
-2.79555599671446
 10
-76.81815109510274
 20
-2.594979349104685
 10
-77.02028135456369
 20
-2.409028082054589
 10
-77.2341976349844
 20
-2.237755768377023
 10
-77.26157334730615
 20
-2.215790911134769
 10
-77.28707401083735
 20
-2.191897432280129
 10
-77.31482473291515
 20
-2.170468303261042
 10
-77.53736623776622
 20
-1.998713834184711
 10
-77.77356881236563
 20
-1.846781309447378
 10
-78.0181287472824
 20
-1.708617000102069
 10
-78.06586213216984
 20
-1.681616297540547
 10
-78.11311336165435
 20
-1.654990604737328
 10
-78.16159676605839
 20
-1.629329222738377
 10
-78.40744244871526
 20
-1.499307982419859
 10
-78.66132405475522
 20
-1.385305016046708
 10
-78.92409874933666
 20
-1.291070421189437
 10
-78.96813560946934
 20
-1.275266438537828
 10
-79.01302963476165
 20
-1.262623252417824
 10
-79.05749507747413
 20
-1.247890726218324
 10
-79.32985930729119
 20
-1.157513374584861
 10
-79.60774153783042
 20
-1.081975694798097
 10
-79.89317753634921
 20
-1.032313688297948
 10
-79.90040986739197
 20
-1.031081513379048
 10
-79.90721361585619
 20
-1.028831454832121
 10
-79.91444594689959
 20
-1.027599279913543
 10
-80.20309631476957
 20
-0.9784730016423363
 10
-80.49828256699267
 20
-0.9576867464952204
 10
-80.79582602340606
 20
-0.9528116196433845
 10
-80.82738041588424
 20
-0.9522758914176508
 10
-80.85770263344414
 20
-0.9448828419042561
 10
-80.88936417156856
 20
-0.9448828419042561
 10
-80.9159898643737
 20
-0.9448828419042561
 10
-80.94309771258114
 20
-0.9491686677104478
 10
-80.96972340538565
 20
-0.9495436774655418
 10
-81.11244140464441
 20
-0.9515258719007249
 10
-81.25585585059727
 20
-0.9619725722978829
 10
-81.39969887912997
 20
-0.9745621855947678
 10
-81.46859352892283
 20
-0.9806159145455925
 10
-81.53705959613395
 20
-0.9828659730918779
 10
-81.60611496439489
 20
-0.9914376246972027
 10
-81.81901336118725
 20
-1.017795453389319
 10
-82.03239391338382
 20
-1.053689244494237
 10
-82.24593518404653
 20
-1.104369134622094
 10
-83.03249136464911
 20
-1.291016848365997
 10
-83.74399202086499
 20
-1.628311339110349
 10
-84.35718654771276
 20
-2.078430194129825
 10
-84.97032750173678
 20
-2.528495476329069
 10
-85.48521589921453
 20
-3.091438695629445
 10
-85.87838684387021
 20
-3.72933029366709
 10
-86.27155778852593
 20
-4.367275464531704
 10
-86.54301128036086
 20
-5.080169014137116
 10
-86.66960386003346
 20
-5.830188529762176
 10
-86.7012118253354
 20
-6.017693408669563
 10
-86.72376598362715
 20
-6.207555491764019
 10
-86.7369448979719
 20
-6.399131905186727
 10
-86.75665969666916
 20
-6.686496525316619
 10
-86.75521323045972
 20
-6.97777196149087
 10
-86.7313197516054
 20
-7.270868873633194
 10
-86.70742627275108
 20
-7.56401935859992
 10
-86.66108578124996
 20
-7.859044892353987
 10
-86.59111967500628
 20
-8.154016853284936
 10
-86.59101252936132
 20
-8.154499008687229
 10
-86.59079823807077
 20
-8.154927591266085
 10
-86.59069109242581
 20
-8.155409746671267
 10
-86.5182070635225
 20
-8.460453398240749
 10
-86.41684728326806
 20
-8.750389513852431
 10
-86.30123713221612
 20
-9.031539686567917
 10
-86.28211163456738
 20
-9.077987323713983
 10
-86.2649683313529
 20
-9.125292126020326
 10
-86.24477137725397
 20
-9.171043316472909
 10
-86.12787547846194
 20
-9.43574663266706
 10
-85.99196122766484
 20
-9.687378180159784
 10
-85.84029656704215
 20
-9.927330852339663
 10
-85.81072436899626
 20
-9.974207072063942
 10
-85.78002714167835
 20
-10.01947610711487
 10
-85.7491691958924
 20
-10.06528087039089
 10
-85.58893288366116
 20
-10.30346563942613
 10
-85.41605338530992
 20
-10.53088227112647
 10
-85.22485198164648
 20
-10.74072701703409
 10
-85.20347642545244
 20
-10.76419191330988
 10
-85.18006510199912
 20
-10.78503174128043
 10
-85.15831453604645
 20
-10.80812162779728
 10
-84.96936319093091
 20
-11.00880542104783
 10
-84.76712578582434
 20
-11.19486383374802
 10
-84.5529952141131
 20
-11.36618972024614
 10
-84.52599451155125
 20
-11.38783314055353
 10
-84.50086885777675
 20
-11.41145875529353
 10
-84.47349314545693
 20
-11.4325664473784
 10
-84.25068377649347
 20
-11.60458878056904
 10
-84.01405261931358
 20
-11.75668202377349
 10
-83.76911767463822
 20
-11.89500705158302
 10
-83.72175929950939
 20
-11.92173989003312
 10
-83.67488307978286
 20
-11.94815129154835
 10
-83.62677468513743
 20
-11.97359838225643
 10
-83.38066113836692
 20
-12.10378034104238
 10
-83.12656524103703
 20
-12.21794402588264
 10
-82.86346910952008
 20
-12.312232193564
 10
-82.81991440479163
 20
-12.32782188492409
 10
-82.77555610772409
 20
-12.34025077975355
 10
-82.7315728204139
 20
-12.35487616030938
 10
-82.45861928954896
 20
-12.44552137605426
 10
-82.18004061231622
 20
-12.52121977431134
 10
-81.8940153127502
 20
-12.57093535363205
 10
-81.88726513710909
 20
-12.57211395572686
 10
-81.88078282558166
 20
-12.57414972298292
 10
-81.87403264994056
 20
-12.57532832507838
 10
-81.5852215636025
 20
-12.62445460335247
 10
-81.28992816573509
 20
-12.64534800414647
 10
-80.99222399085427
 20
-12.65016955817519
 10
-80.96072317119858
 20
-12.65070528640092
 10
-80.93050809928298
 20
-12.65809833591079
 10
-80.89895370680416
 20
-12.65809833591079
 10
-80.87232801399837
 20
-12.65809833591079
 10
-80.84522016579157
 20
-12.65381251010812
 10
-80.81859447298644
 20
-12.65343750035014
 10
-80.67593004655014
 20
-12.65150887873776
 10
-80.53256917342103
 20
-12.64100860552004
 10
-80.38883329053264
 20
-12.6284189922206
 10
-80.3196707766274
 20
-12.62236526327362
 10
-80.25099041812573
 20
-12.62006163190614
 10
-80.18166718575242
 20
-12.61148998029793
 10
-79.96882236178254
 20
-12.58513215160581
 10
-79.75544180958661
 20
-12.54923836050057
 10
-79.54195411174509
 20
-12.49855847037304
 10
-76.39567581651546
 20
-11.75191404256853
 10
-74.44996447451275
 20
-8.596046212101061
 10
-75.19660890231918
 20
-5.449928635337583
 10
-75.26920007686682
 20
-5.144027818607823
 10
-75.37088129405676
 20
-4.853341683479216
 10
-75.48681288204294
 20
-4.571495064070886
 97
        0
 97
        1
330
88
 75
     2
 76
     1
 98
        1
 10
0.0
 20
0.0
450
        0
451
        0
460
0.0
461
0.0
452
        0
462
0.0
453
        0
470

  0
ENDBLK
  5
7C
330
79
100
AcDbEntity
  8
0
100
AcDbBlockEnd
  0
ENDSEC
  0
SECTION
  2
ENTITIES
  0
INSERT
  5
7A
330
70
100
AcDbEntity
  8
Layer 1
100
AcDbBlockReference
  2
Block_0
 10
0.0
 20
0.0
 30
0.0
  0
ENDSEC
  0
SECTION
  2
OBJECTS
  0
DICTIONARY
  5
C
330
0
100
AcDbDictionary
281
     1
  3
ACAD_COLOR
350
63
  3
ACAD_DETAILVIEWSTYLE
350
6A
  3
ACAD_GROUP
350
D
  3
ACAD_LAYOUT
350
62
  3
ACAD_MATERIAL
350
10
  3
ACAD_MLEADERSTYLE
350
66
  3
ACAD_MLINESTYLE
350
5F
  3
ACAD_PLOTSETTINGS
350
61
  3
ACAD_PLOTSTYLENAME
350
E
  3
ACAD_SCALELIST
350
42
  3
ACAD_SECTIONVIEWSTYLE
350
68
  3
ACAD_TABLESTYLE
350
64
  3
ACAD_VISUALSTYLE
350
29
  3
ACDB_RECOMPOSE_DATA
350
92
  3
AcDbVariableDictionary
350
8A
  0
DICTIONARY
  5
63
102
{ACAD_REACTORS
330
C
102
}
330
C
100
AcDbDictionary
281
     1
  0
DICTIONARY
  5
6A
102
{ACAD_REACTORS
330
C
102
}
330
C
100
AcDbDictionary
281
     1
  3
Imperial24
350
6B
  0
DICTIONARY
  5
D
102
{ACAD_REACTORS
330
C
102
}
330
C
100
AcDbDictionary
281
     1
  0
DICTIONARY
  5
62
102
{ACAD_REACTORS
330
C
102
}
330
C
100
AcDbDictionary
281
     1
  3
Layout1
350
6F
  3
Layout2
350
77
  3
Model
350
73
  0
DICTIONARY
  5
10
102
{ACAD_REACTORS
330
C
102
}
330
C
100
AcDbDictionary
281
     1
  3
ByBlock
350
19
  3
ByLayer
350
11
  3
Global
350
21
  0
DICTIONARY
  5
66
102
{ACAD_REACTORS
330
C
102
}
330
C
100
AcDbDictionary
281
     1
  3
Standard
350
67
  0
DICTIONARY
  5
5F
102
{ACAD_REACTORS
330
C
102
}
330
C
100
AcDbDictionary
281
     1
  3
Standard
350
60
  0
DICTIONARY
  5
61
102
{ACAD_REACTORS
330
C
102
}
330
C
100
AcDbDictionary
281
     1
  0
ACDBDICTIONARYWDFLT
  5
E
102
{ACAD_REACTORS
330
C
102
}
330
C
100
AcDbDictionary
281
     1
  3
Normal
350
F
100
AcDbDictionaryWithDefault
340
F
  0
DICTIONARY
  5
42
102
{ACAD_REACTORS
330
C
102
}
330
C
100
AcDbDictionary
281
     1
  3
A0
350
43
  3
A1
350
44
  3
A2
350
45
  3
A3
350
46
  3
A4
350
47
  3
A5
350
48
  3
A6
350
49
  3
A7
350
4A
  3
A8
350
4B
  3
A9
350
4C
  3
B0
350
4D
  3
B1
350
4E
  3
B2
350
4F
  3
B3
350
50
  3
B4
350
51
  3
B5
350
52
  3
B6
350
53
  0
DICTIONARY
  5
68
102
{ACAD_REACTORS
330
C
102
}
330
C
100
AcDbDictionary
281
     1
  3
Imperial24
350
69
  0
DICTIONARY
  5
64
102
{ACAD_REACTORS
330
C
102
}
330
C
100
AcDbDictionary
281
     1
  3
Standard
350
65
  0
DICTIONARY
  5
29
102
{ACAD_REACTORS
330
C
102
}
330
C
100
AcDbDictionary
281
     1
  3
2dWireframe
350
2F
  3
Basic
350
2E
  3
Brighten
350
35
  3
ColorChange
350
39
  3
Conceptual
350
32
  3
Dim
350
34
  3
EdgeColorOff
350
41
  3
Facepattern
350
38
  3
Flat
350
2A
  3
FlatWithEdges
350
2B
  3
Gouraud
350
2C
  3
GouraudWithEdges
350
2D
  3
Hidden
350
31
  3
JitterOff
350
3F
  3
Linepattern
350
37
  3
OverhangOff
350
40
  3
Realistic
350
33
  3
Shaded
350
3E
  3
Shaded with edges
350
3D
  3
Shades of Gray
350
3A
  3
Sketchy
350
3B
  3
Thicken
350
36
  3
Wireframe
350
30
  3
X-Ray
350
3C
  0
XRECORD
  5
92
102
{ACAD_REACTORS
330
C
102
}
330
C
100
AcDbXrecord
280
     1
 90
        1
330
65
  0
DICTIONARY
  5
8A
102
{ACAD_REACTORS
330
C
102
}
330
C
100
AcDbDictionary
281
     1
  3
CANNOSCALE
350
8F
  3
CMLEADERSTYLE
350
8C
  3
CTABLESTYLE
350
8B
  3
CVIEWDETAILSTYLE
350
8D
  3
CVIEWSECTIONSTYLE
350
8E
  0
ACDBDETAILVIEWSTYLE
  5
6B
102
{ACAD_XDICTIONARY
360
95
102
}
102
{ACAD_REACTORS
330
6A
102
}
330
6A
100
AcDbModelDocViewStyle
 70
     0
  3
Imperial24
290
     0
100
AcDbDetailViewStyle
 70
     0
 71
     0
 90
        3
 71
     1
340
55
 62
   256
 40
0.24
340
0
 62
   256
 40
0.24
300

 40
0.36
280
     3
 71
     2
340
5D
 90
       25
 62
   256
 71
     3
340
55
 62
   256
 40
0.24
 90
        1
 40
0.75
 90
        1
300
%<\AcVar ViewType \f "%tc1">% %<\AcVar ViewDetailId>%\PSCALE %<\AcVar ViewScale \f "%sn">%
 71
     4
340
5D
 90
       25
 62
   256
340
5D
 90
       25
 62
   256
280
     0
  0
LAYOUT
  5
6F
102
{ACAD_REACTORS
330
62
102
}
330
62
100
AcDbPlotSettings
  1

  2

  4

  6

 40
0.0
 41
0.0
 42
0.0
 43
0.0
 44
0.0
 45
0.0
 46
0.0
 47
0.0
 48
0.0
 49
0.0
140
0.0
141
0.0
142
1.0
143
1.0
 70
   688
 72
     0
 73
     0
 74
     5
  7

 75
    16
147
1.0
 76
     0
 77
     2
 78
   300
148
0.0
149
0.0
100
AcDbLayout
  1
Layout1
 70
     1
 71
     1
 10
0.0
 20
0.0
 11
12.0
 21
9.0
 12
0.0
 22
0.0
 32
0.0
 14
0.0
 24
0.0
 34
0.0
 15
0.0
 25
0.0
 35
0.0
146
0.0
 13
0.0
 23
0.0
 33
0.0
 16
1.0
 26
0.0
 36
0.0
 17
0.0
 27
1.0
 37
0.0
 76
     0
330
6C
  0
LAYOUT
  5
77
102
{ACAD_REACTORS
330
62
102
}
330
62
100
AcDbPlotSettings
  1

  2

  4

  6

 40
0.0
 41
0.0
 42
0.0
 43
0.0
 44
0.0
 45
0.0
 46
0.0
 47
0.0
 48
0.0
 49
0.0
140
0.0
141
0.0
142
1.0
143
1.0
 70
   688
 72
     0
 73
     0
 74
     5
  7

 75
    16
147
1.0
 76
     0
 77
     2
 78
   300
148
0.0
149
0.0
100
AcDbLayout
  1
Layout2
 70
     1
 71
     2
 10
0.0
 20
0.0
 11
12.0
 21
9.0
 12
0.0
 22
0.0
 32
0.0
 14
0.0
 24
0.0
 34
0.0
 15
0.0
 25
0.0
 35
0.0
146
0.0
 13
0.0
 23
0.0
 33
0.0
 16
1.0
 26
0.0
 36
0.0
 17
0.0
 27
1.0
 37
0.0
 76
     0
330
74
  0
LAYOUT
  5
73
102
{ACAD_REACTORS
330
62
102
}
330
62
100
AcDbPlotSettings
  1

  2

  4

  6

 40
0.0
 41
0.0
 42
0.0
 43
0.0
 44
0.0
 45
0.0
 46
0.0
 47
0.0
 48
0.0
 49
0.0
140
0.0
141
0.0
142
1.0
143
1.0
 70
  1712
 72
     0
 73
     0
 74
     0
  7

 75
     0
147
1.0
 76
     0
 77
     2
 78
   300
148
0.0
149
0.0
100
AcDbLayout
  1
Model
 70
     1
 71
     0
 10
0.0
 20
0.0
 11
12.0
 21
9.0
 12
0.0
 22
0.0
 32
0.0
 14
0.0
 24
0.0
 34
0.0
 15
0.0
 25
0.0
 35
0.0
146
0.0
 13
0.0
 23
0.0
 33
0.0
 16
1.0
 26
0.0
 36
0.0
 17
0.0
 27
1.0
 37
0.0
 76
     0
330
70
  0
MATERIAL
  5
19
102
{ACAD_XDICTIONARY
360
1A
102
}
102
{ACAD_REACTORS
330
10
102
}
330
10
100
AcDbMaterial
  1
ByBlock
 72
     0
 43
0.0208333333333333
 43
0.0
 43
0.0
 43
0.0
 43
0.0
 43
0.0208333333333333
 43
0.0
 43
0.0
 43
0.0
 43
0.0
 43
1.0
 43
0.0
 43
0.0
 43
0.0
 43
0.0
 43
1.0
 77
     0
 47
0.0208333333333333
 47
0.0
 47
0.0
 47
0.0
 47
0.0
 47
0.0208333333333333
 47
0.0
 47
0.0
 47
0.0
 47
0.0
 47
1.0
 47
0.0
 47
0.0
 47
0.0
 47
0.0
 47
1.0
171
     0
 49
0.0208333333333333
 49
0.0
 49
0.0
 49
0.0
 49
0.0
 49
0.0208333333333333
 49
0.0
 49
0.0
 49
0.0
 49
0.0
 49
1.0
 49
0.0
 49
0.0
 49
0.0
 49
0.0
 49
1.0
175
     0
142
0.0208333333333333
142
0.0
142
0.0
142
0.0
142
0.0
142
0.0208333333333333
142
0.0
142
0.0
142
0.0
142
0.0
142
1.0
142
0.0
142
0.0
142
0.0
142
0.0
142
1.0
179
     0
144
0.0208333333333333
144
0.0
144
0.0
144
0.0
144
0.0
144
0.0208333333333333
144
0.0
144
0.0
144
0.0
144
0.0
144
1.0
144
0.0
144
0.0
144
0.0
144
0.0
144
1.0
147
0.0208333333333333
147
0.0
147
0.0
147
0.0
147
0.0
147
0.0208333333333333
147
0.0
147
0.0
147
0.0
147
0.0
147
1.0
147
0.0
147
0.0
147
0.0
147
0.0
147
1.0
  0
MATERIAL
  5
11
102
{ACAD_XDICTIONARY
360
12
102
}
102
{ACAD_REACTORS
330
10
102
}
330
10
100
AcDbMaterial
  1
ByLayer
 72
     0
 43
0.0208333333333333
 43
0.0
 43
0.0
 43
0.0
 43
0.0
 43
0.0208333333333333
 43
0.0
 43
0.0
 43
0.0
 43
0.0
 43
1.0
 43
0.0
 43
0.0
 43
0.0
 43
0.0
 43
1.0
 77
     0
 47
0.0208333333333333
 47
0.0
 47
0.0
 47
0.0
 47
0.0
 47
0.0208333333333333
 47
0.0
 47
0.0
 47
0.0
 47
0.0
 47
1.0
 47
0.0
 47
0.0
 47
0.0
 47
0.0
 47
1.0
171
     0
 49
0.0208333333333333
 49
0.0
 49
0.0
 49
0.0
 49
0.0
 49
0.0208333333333333
 49
0.0
 49
0.0
 49
0.0
 49
0.0
 49
1.0
 49
0.0
 49
0.0
 49
0.0
 49
0.0
 49
1.0
175
     0
142
0.0208333333333333
142
0.0
142
0.0
142
0.0
142
0.0
142
0.0208333333333333
142
0.0
142
0.0
142
0.0
142
0.0
142
1.0
142
0.0
142
0.0
142
0.0
142
0.0
142
1.0
179
     0
144
0.0208333333333333
144
0.0
144
0.0
144
0.0
144
0.0
144
0.0208333333333333
144
0.0
144
0.0
144
0.0
144
0.0
144
1.0
144
0.0
144
0.0
144
0.0
144
0.0
144
1.0
147
0.0208333333333333
147
0.0
147
0.0
147
0.0
147
0.0
147
0.0208333333333333
147
0.0
147
0.0
147
0.0
147
0.0
147
1.0
147
0.0
147
0.0
147
0.0
147
0.0
147
1.0
  0
MATERIAL
  5
21
102
{ACAD_XDICTIONARY
360
22
102
}
102
{ACAD_REACTORS
330
10
102
}
330
10
100
AcDbMaterial
  1
Global
 72
     0
 43
0.0208333333333333
 43
0.0
 43
0.0
 43
0.0
 43
0.0
 43
0.0208333333333333
 43
0.0
 43
0.0
 43
0.0
 43
0.0
 43
1.0
 43
0.0
 43
0.0
 43
0.0
 43
0.0
 43
1.0
 77
     0
 47
0.0208333333333333
 47
0.0
 47
0.0
 47
0.0
 47
0.0
 47
0.0208333333333333
 47
0.0
 47
0.0
 47
0.0
 47
0.0
 47
1.0
 47
0.0
 47
0.0
 47
0.0
 47
0.0
 47
1.0
171
     0
 49
0.0208333333333333
 49
0.0
 49
0.0
 49
0.0
 49
0.0
 49
0.0208333333333333
 49
0.0
 49
0.0
 49
0.0
 49
0.0
 49
1.0
 49
0.0
 49
0.0
 49
0.0
 49
0.0
 49
1.0
175
     0
142
0.0208333333333333
142
0.0
142
0.0
142
0.0
142
0.0
142
0.0208333333333333
142
0.0
142
0.0
142
0.0
142
0.0
142
1.0
142
0.0
142
0.0
142
0.0
142
0.0
142
1.0
179
     0
144
0.0208333333333333
144
0.0
144
0.0
144
0.0
144
0.0
144
0.0208333333333333
144
0.0
144
0.0
144
0.0
144
0.0
144
1.0
144
0.0
144
0.0
144
0.0
144
0.0
144
1.0
147
0.0208333333333333
147
0.0
147
0.0
147
0.0
147
0.0
147
0.0208333333333333
147
0.0
147
0.0
147
0.0
147
0.0
147
1.0
147
0.0
147
0.0
147
0.0
147
0.0
147
1.0
  0
MLEADERSTYLE
  5
67
102
{ACAD_REACTORS
330
66
102
}
330
66
100
AcDbMLeaderStyle
179
     2
170
     2
171
     1
172
     0
 90
        2
 40
0.0
 41
0.0
173
     1
 91
-1056964608
340
5B
 92
       -2
290
     1
 42
0.09
291
     1
 43
0.36
  3
Standard
 44
0.18
300

342
55
174
     1
178
     6
175
     1
176
     0
 93
-1056964608
 45
0.18
292
     0
297
     0
 46
0.18
 94
-1056964608
 47
1.0
 49
1.0
140
1.0
293
     1
141
0.0
294
     1
177
     0
142
1.0
295
     0
296
     0
143
0.125
271
     0
272
     9
273
     9
298
     1
  0
MLINESTYLE
  5
60
102
{ACAD_REACTORS
330
5F
102
}
330
5F
100
AcDbMlineStyle
  2
STANDARD
 70
     0
  3

 62
   256
 51
90.0
 52
90.0
 71
     2
 49
0.5
 62
   256
  6
BYLAYER
 49
-0.5
 62
   256
  6
BYLAYER
  0
ACDBPLACEHOLDER
  5
F
102
{ACAD_REACTORS
330
E
102
}
330
E
  0
SCALE
  5
43
102
{ACAD_REACTORS
330
42
102
}
330
42
100
AcDbScale
 70
     0
300
1:1
140
1.0
141
1.0
290
     1
  0
SCALE
  5
44
102
{ACAD_REACTORS
330
42
102
}
330
42
100
AcDbScale
 70
     0
300
1/128" = 1'-0"
140
0.0078125
141
12.0
290
     0
  0
SCALE
  5
45
102
{ACAD_REACTORS
330
42
102
}
330
42
100
AcDbScale
 70
     0
300
1/64" = 1'-0"
140
0.015625
141
12.0
290
     0
  0
SCALE
  5
46
102
{ACAD_REACTORS
330
42
102
}
330
42
100
AcDbScale
 70
     0
300
1/32" = 1'-0"
140
0.03125
141
12.0
290
     0
  0
SCALE
  5
47
102
{ACAD_REACTORS
330
42
102
}
330
42
100
AcDbScale
 70
     0
300
1/16" = 1'-0"
140
0.0625
141
12.0
290
     0
  0
SCALE
  5
48
102
{ACAD_REACTORS
330
42
102
}
330
42
100
AcDbScale
 70
     0
300
3/32" = 1'-0"
140
0.09375
141
12.0
290
     0
  0
SCALE
  5
49
102
{ACAD_REACTORS
330
42
102
}
330
42
100
AcDbScale
 70
     0
300
1/8" = 1'-0"
140
0.125
141
12.0
290
     0
  0
SCALE
  5
4A
102
{ACAD_REACTORS
330
42
102
}
330
42
100
AcDbScale
 70
     0
300
3/16" = 1'-0"
140
0.1875
141
12.0
290
     0
  0
SCALE
  5
4B
102
{ACAD_REACTORS
330
42
102
}
330
42
100
AcDbScale
 70
     0
300
1/4" = 1'-0"
140
0.25
141
12.0
290
     0
  0
SCALE
  5
4C
102
{ACAD_REACTORS
330
42
102
}
330
42
100
AcDbScale
 70
     0
300
3/8" = 1'-0"
140
0.375
141
12.0
290
     0
  0
SCALE
  5
4D
102
{ACAD_REACTORS
330
42
102
}
330
42
100
AcDbScale
 70
     0
300
1/2" = 1'-0"
140
0.5
141
12.0
290
     0
  0
SCALE
  5
4E
102
{ACAD_REACTORS
330
42
102
}
330
42
100
AcDbScale
 70
     0
300
3/4" = 1'-0"
140
0.75
141
12.0
290
     0
  0
SCALE
  5
4F
102
{ACAD_REACTORS
330
42
102
}
330
42
100
AcDbScale
 70
     0
300
1" = 1'-0"
140
1.0
141
12.0
290
     0
  0
SCALE
  5
50
102
{ACAD_REACTORS
330
42
102
}
330
42
100
AcDbScale
 70
     0
300
1-1/2" = 1'-0"
140
1.5
141
12.0
290
     0
  0
SCALE
  5
51
102
{ACAD_REACTORS
330
42
102
}
330
42
100
AcDbScale
 70
     0
300
3" = 1'-0"
140
3.0
141
12.0
290
     0
  0
SCALE
  5
52
102
{ACAD_REACTORS
330
42
102
}
330
42
100
AcDbScale
 70
     0
300
6" = 1'-0"
140
6.0
141
12.0
290
     0
  0
SCALE
  5
53
102
{ACAD_REACTORS
330
42
102
}
330
42
100
AcDbScale
 70
     0
300
1'-0" = 1'-0"
140
12.0
141
12.0
290
     0
  0
ACDBSECTIONVIEWSTYLE
  5
69
102
{ACAD_XDICTIONARY
360
93
102
}
102
{ACAD_REACTORS
330
68
102
}
330
68
100
AcDbModelDocViewStyle
 70
     0
  3
Imperial24
290
     0
100
AcDbSectionViewStyle
 70
     0
 71
     0
 90
       78
 71
     1
340
55
 62
   256
 40
0.24
340
0
340
0
 62
   256
 40
0.24
300
I, O, Q, S, X, Z
 40
0.48
 90
        3
 40
0.18
 90
        1
 71
     2
340
5D
 90
       25
 62
   256
340
5D
 90
       50
 62
   256
 40
0.24
 40
0.0
 40
0.24
 71
     3
340
55
 62
   256
 40
0.24
 90
        1
 40
0.75
 90
        1
300
%<\AcVar ViewType \f "%tc1">% %<\AcVar ViewSectionStartId>%-%<\AcVar ViewSectionEndId>%\PSCALE %<\AcVar ViewScale \f "%sn">%
 71
     4
 62
   256
 62
   257
300
ANSI31
 40
1.0
 90
        0
290
     0
290
     0
 90
        6
 40
0.0
 40
1.570796326794896
 40
0.2617993877991494
 40
1.308996938995747
 40
-0.2617993877991494
 40
1.832595714594046
  0
TABLESTYLE
  5
65
102
{ACAD_XDICTIONARY
360
90
102
}
102
{ACAD_REACTORS
330
64
102
}
330
64
100
AcDbTableStyle
280
     0
  3
Standard
 70
     0
 71
     0
 40
0.06
 41
0.06
280
     0
281
     0
  7
Standard
140
0.18
170
     2
 62
     0
 63
     7
283
     0
 90
      512
 91
        0
  1

274
    -2
284
     1
 64
     0
275
    -2
285
     1
 65
     0
276
    -2
286
     1
 66
     0
277
    -2
287
     1
 67
     0
278
    -2
288
     1
 68
     0
279
    -2
289
     1
 69
     0
  7
Standard
140
0.25
170
     5
 62
     0
 63
     7
283
     0
 90
      512
 91
        0
  1

274
    -2
284
     1
 64
     0
275
    -2
285
     1
 65
     0
276
    -2
286
     1
 66
     0
277
    -2
287
     1
 67
     0
278
    -2
288
     1
 68
     0
279
    -2
289
     1
 69
     0
  7
Standard
140
0.18
170
     5
 62
     0
 63
     7
283
     0
 90
      512
 91
        0
  1

274
    -2
284
     1
 64
     0
275
    -2
285
     1
 65
     0
276
    -2
286
     1
 66
     0
277
    -2
287
     1
 67
     0
278
    -2
288
     1
 68
     0
279
    -2
289
     1
 69
     0
  0
VISUALSTYLE
  5
2F
102
{ACAD_REACTORS
330
29
102
}
330
29
100
AcDbVisualStyle
  2
2dWireframe
 70
     4
177
     3
291
     0
 70
    58
 90
        0
176
     1
 90
        2
176
     1
 90
        0
176
     1
 90
        0
176
     1
 40
0.6
176
     1
 40
30.0
176
     1
 62
     7
420
 16777215
176
     1
 90
        1
176
     1
 90
        4
176
     1
 62
     7
176
     1
 62
   257
176
     1
 90
        1
176
     1
 90
        1
176
     1
 40
1.0
176
     1
 90
        0
176
     1
 62
   257
176
     1
 40
1.0
176
     1
 90
        1
176
     1
 90
        6
176
     1
 90
        2
176
     1
 62
     7
176
     1
 90
        5
176
     1
 90
        0
176
     1
 90
        0
176
     1
290
     0
176
     1
 90
        1
176
     1
 40
0.0
176
     1
 90
        0
176
     1
290
     1
176
     1
290
     1
176
     1
290
     0
176
     1
290
     0
176
     1
290
     0
176
     1
290
     0
176
     1
290
     0
176
     1
290
     0
176
     1
290
     0
176
     1
 90
       50
176
     1
 40
0.0
176
     1
 40
1.0
176
     1
 90
        0
176
     1
 62
    18
420
        0
176
     1
 90
       50
176
     1
 90
        3
176
     1
 62
     5
420
      255
176
     1
290
     0
176
     1
 90
       50
176
     1
 90
       50
176
     1
 90
       50
176
     1
290
     0
176
     1
 90
       50
176
     1
 62
   256
176
     0
 40
1.0
176
     0
 90
        2
176
     1
  1
strokes_ogs.tif
176
     1
290
     0
176
     1
 40
1.0
176
     1
 40
1.0
176
     1
1001
ACAD
1000
AcDbSavedByObjectVersion
1070
     0
  0
VISUALSTYLE
  5
2E
102
{ACAD_REACTORS
330
29
102
}
330
29
100
AcDbVisualStyle
  2
Basic
 70
     7
177
     3
291
     1
 70
    58
 90
        1
176
     1
 90
        0
176
     1
 90
        1
176
     1
 90
        0
176
     1
 40
0.6
176
     1
 40
30.0
176
     1
 62
     7
420
 16777215
176
     1
 90
        0
176
     1
 90
        4
176
     1
 62
     7
176
     1
 62
   257
176
     1
 90
        1
176
     1
 90
        1
176
     1
 40
1.0
176
     1
 90
        8
176
     1
 62
     7
176
     1
 40
1.0
176
     1
 90
        1
176
     1
 90
        6
176
     1
 90
        2
176
     1
 62
     7
176
     1
 90
        5
176
     1
 90
        0
176
     1
 90
        0
176
     1
290
     0
176
     1
 90
        1
176
     1
 40
0.0
176
     1
 90
        0
176
     1
290
     0
176
     1
290
     1
176
     1
290
     1
176
     1
290
     0
176
     1
290
     0
176
     1
290
     0
176
     1
290
     0
176
     1
290
     0
176
     1
290
     0
176
     1
 90
       50
176
     1
 40
0.0
176
     1
 40
1.0
176
     1
 90
        0
176
     1
 62
    18
420
        0
176
     1
 90
       50
176
     1
 90
        3
176
     1
 62
     5
420
      255
176
     1
290
     0
176
     1
 90
       50
176
     1
 90
       50
176
     1
 90
       50
176
     1
290
     0
176
     1
 90
       50
176
     1
 62
   256
176
     0
 40
1.0
176
     0
 90
        2
176
     1
  1
strokes_ogs.tif
176
     1
290
     0
176
     1
 40
1.0
176
     1
 40
1.0
176
     1
1001
ACAD
1000
AcDbSavedByObjectVersion
1070
     0
  0
VISUALSTYLE
  5
35
102
{ACAD_REACTORS
330
29
102
}
330
29
100
AcDbVisualStyle
  2
Brighten
 70
    12
177
     3
291
     1
 70
    58
 90
        2
176
     1
 90
        2
176
     1
 90
        0
176
     1
 90
        0
176
     1
 40
0.6
176
     1
 40
30.0
176
     1
 62
     7
420
 16777215
176
     1
 90
        1
176
     1
 90
        4
176
     1
 62
     7
176
     1
 62
   257
176
     1
 90
        1
176
     1
 90
        1
176
     1
 40
1.0
176
     1
 90
        8
176
     1
 62
     7
176
     1
 40
1.0
176
     1
 90
        1
176
     1
 90
        6
176
     1
 90
        2
176
     1
 62
     7
176
     1
 90
        5
176
     1
 90
        0
176
     1
 90
        0
176
     1
290
     0
176
     1
 90
        1
176
     1
 40
50.0
176
     1
 90
        0
176
     1
290
     0
176
     1
290
     1
176
     1
290
     1
176
     1
290
     0
176
     1
290
     0
176
     1
290
     0
176
     1
290
     0
176
     1
290
     0
176
     1
290
     0
176
     1
 90
       50
176
     1
 40
0.0
176
     1
 40
1.0
176
     1
 90
        0
176
     1
 62
    18
420
        0
176
     1
 90
       50
176
     1
 90
        3
176
     1
 62
     5
420
      255
176
     1
290
     0
176
     1
 90
       50
176
     1
 90
       50
176
     1
 90
       50
176
     1
290
     0
176
     1
 90
       50
176
     1
 62
   256
176
     0
 40
1.0
176
     0
 90
        2
176
     1
  1
strokes_ogs.tif
176
     1
290
     0
176
     1
 40
1.0
176
     1
 40
1.0
176
     1
1001
ACAD
1000
AcDbSavedByObjectVersion
1070
     0
  0
VISUALSTYLE
  5
39
102
{ACAD_REACTORS
330
29
102
}
330
29
100
AcDbVisualStyle
  2
ColorChange
 70
    16
177
     3
291
     1
 70
    58
 90
        2
176
     1
 90
        2
176
     1
 90
        3
176
     1
 90
        0
176
     1
 40
0.6
176
     1
 40
30.0
176
     1
 62
     8
420
  8421504
176
     1
 90
        1
176
     1
 90
        4
176
     1
 62
     7
176
     1
 62
   257
176
     1
 90
        1
176
     1
 90
        1
176
     1
 40
1.0
176
     1
 90
        8
176
     1
 62
     8
420
  8421504
176
     1
 40
1.0
176
     1
 90
        1
176
     1
 90
        6
176
     1
 90
        2
176
     1
 62
     7
176
     1
 90
        5
176
     1
 90
        0
176
     1
 90
        0
176
     1
290
     0
176
     1
 90
        1
176
     1
 40
0.0
176
     1
 90
        0
176
     1
290
     0
176
     1
290
     1
176
     1
290
     1
176
     1
290
     0
176
     1
290
     0
176
     1
290
     0
176
     1
290
     0
176
     1
290
     0
176
     1
290
     0
176
     1
 90
       50
176
     1
 40
0.0
176
     1
 40
1.0
176
     1
 90
        0
176
     1
 62
    18
420
        0
176
     1
 90
       50
176
     1
 90
        3
176
     1
 62
     5
420
      255
176
     1
290
     0
176
     1
 90
       50
176
     1
 90
       50
176
     1
 90
       50
176
     1
290
     0
176
     1
 90
       50
176
     1
 62
   256
176
     0
 40
1.0
176
     0
 90
        2
176
     1
  1
strokes_ogs.tif
176
     1
290
     0
176
     1
 40
1.0
176
     1
 40
1.0
176
     1
1001
ACAD
1000
AcDbSavedByObjectVersion
1070
     0
  0
VISUALSTYLE
  5
32
102
{ACAD_REACTORS
330
29
102
}
330
29
100
AcDbVisualStyle
  2
Conceptual
 70
     9
177
     3
291
     0
 70
    58
 90
        3
176
     1
 90
        2
176
     1
 90
        0
176
     1
 90
        0
176
     1
 40
0.6
176
     1
 40
30.0
176
     1
 62
     7
420
 16777215
176
     1
 90
        2
176
     1
 90
        2
176
     1
 62
     7
176
     1
 62
   257
176
     1
 90
        1
176
     1
 90
        1
176
     1
 40
179.0
176
     1
 90
        8
176
     1
 62
     7
176
     1
 40
1.0
176
     1
 90
        1
176
     1
 90
        6
176
     1
 90
        2
176
     1
 62
     7
176
     1
 90
        3
176
     1
 90
        0
176
     1
 90
        0
176
     1
290
     0
176
     1
 90
        1
176
     1
 40
0.0
176
     1
 90
        0
176
     1
290
     0
176
     1
290
     1
176
     1
290
     1
176
     1
290
     0
176
     1
290
     0
176
     1
290
     0
176
     1
290
     0
176
     1
290
     0
176
     1
290
     0
176
     1
 90
       50
176
     1
 40
0.0
176
     1
 40
1.0
176
     1
 90
        0
176
     1
 62
    18
420
        0
176
     1
 90
       50
176
     1
 90
        3
176
     1
 62
     5
420
      255
176
     1
290
     0
176
     1
 90
       50
176
     1
 90
       50
176
     1
 90
       50
176
     1
290
     0
176
     1
 90
       50
176
     1
 62
   256
176
     0
 40
1.0
176
     0
 90
        2
176
     1
  1
strokes_ogs.tif
176
     1
290
     0
176
     1
 40
1.0
176
     1
 40
1.0
176
     1
1001
ACAD
1000
AcDbSavedByObjectVersion
1070
     0
  0
VISUALSTYLE
  5
34
102
{ACAD_REACTORS
330
29
102
}
330
29
100
AcDbVisualStyle
  2
Dim
 70
    11
177
     3
291
     1
 70
    58
 90
        2
176
     1
 90
        2
176
     1
 90
        0
176
     1
 90
        0
176
     1
 40
0.6
176
     1
 40
30.0
176
     1
 62
     7
420
 16777215
176
     1
 90
        1
176
     1
 90
        4
176
     1
 62
     7
176
     1
 62
   257
176
     1
 90
        1
176
     1
 90
        1
176
     1
 40
1.0
176
     1
 90
        8
176
     1
 62
     7
176
     1
 40
1.0
176
     1
 90
        1
176
     1
 90
        6
176
     1
 90
        2
176
     1
 62
     7
176
     1
 90
        5
176
     1
 90
        0
176
     1
 90
        0
176
     1
290
     0
176
     1
 90
        1
176
     1
 40
-50.0
176
     1
 90
        0
176
     1
290
     0
176
     1
290
     1
176
     1
290
     1
176
     1
290
     0
176
     1
290
     0
176
     1
290
     0
176
     1
290
     0
176
     1
290
     0
176
     1
290
     0
176
     1
 90
       50
176
     1
 40
0.0
176
     1
 40
1.0
176
     1
 90
        0
176
     1
 62
    18
420
        0
176
     1
 90
       50
176
     1
 90
        3
176
     1
 62
     5
420
      255
176
     1
290
     0
176
     1
 90
       50
176
     1
 90
       50
176
     1
 90
       50
176
     1
290
     0
176
     1
 90
       50
176
     1
 62
   256
176
     0
 40
1.0
176
     0
 90
        2
176
     1
  1
strokes_ogs.tif
176
     1
290
     0
176
     1
 40
1.0
176
     1
 40
1.0
176
     1
1001
ACAD
1000
AcDbSavedByObjectVersion
1070
     0
  0
VISUALSTYLE
  5
41
102
{ACAD_REACTORS
330
29
102
}
330
29
100
AcDbVisualStyle
  2
EdgeColorOff
 70
    22
177
     3
291
     1
 70
    58
 90
        2
176
     0
 90
        2
176
     0
 90
        0
176
     0
 90
        0
176
     0
 40
0.6
176
     0
 40
30.0
176
     0
 62
     7
420
 16777215
176
     0
 90
        1
176
     0
 90
        4
176
     0
 62
     7
176
     0
 62
   257
176
     0
 90
        1
176
     0
 90
        1
176
     0
 40
1.0
176
     0
 90
        8
176
     2
 62
     7
176
     0
 40
1.0
176
     0
 90
        1
176
     0
 90
        6
176
     0
 90
        2
176
     0
 62
     7
176
     0
 90
        5
176
     0
 90
        0
176
     0
 90
        0
176
     0
290
     0
176
     0
 90
        1
176
     0
 40
0.0
176
     0
 90
        0
176
     0
290
     0
176
     0
290
     1
176
     0
290
     1
176
     0
290
     0
176
     0
290
     0
176
     0
290
     0
176
     0
290
     0
176
     0
290
     0
176
     0
290
     0
176
     0
 90
       50
176
     0
 40
0.0
176
     0
 40
1.0
176
     0
 90
        0
176
     0
 62
    18
420
        0
176
     0
 90
       50
176
     0
 90
        3
176
     0
 62
     5
420
      255
176
     0
290
     0
176
     0
 90
       50
176
     0
 90
       50
176
     0
 90
       50
176
     0
290
     0
176
     0
 90
       50
176
     0
 62
   256
176
     0
 40
1.0
176
     0
 90
        2
176
     0
  1
strokes_ogs.tif
176
     0
290
     0
176
     0
 40
1.0
176
     0
 40
1.0
176
     0
1001
ACAD
1000
AcDbSavedByObjectVersion
1070
     0
  0
VISUALSTYLE
  5
38
102
{ACAD_REACTORS
330
29
102
}
330
29
100
AcDbVisualStyle
  2
Facepattern
 70
    15
177
     3
291
     1
 70
    58
 90
        2
176
     1
 90
        2
176
     1
 90
        0
176
     1
 90
        0
176
     1
 40
0.6
176
     1
 40
30.0
176
     1
 62
     7
420
 16777215
176
     1
 90
        1
176
     1
 90
        4
176
     1
 62
     7
176
     1
 62
   257
176
     1
 90
        1
176
     1
 90
        1
176
     1
 40
1.0
176
     1
 90
        8
176
     1
 62
     7
176
     1
 40
1.0
176
     1
 90
        1
176
     1
 90
        6
176
     1
 90
        2
176
     1
 62
     7
176
     1
 90
        5
176
     1
 90
        0
176
     1
 90
        0
176
     1
290
     0
176
     1
 90
        1
176
     1
 40
0.0
176
     1
 90
        0
176
     1
290
     0
176
     1
290
     1
176
     1
290
     1
176
     1
290
     0
176
     1
290
     0
176
     1
290
     0
176
     1
290
     0
176
     1
290
     0
176
     1
290
     0
176
     1
 90
       50
176
     1
 40
0.0
176
     1
 40
1.0
176
     1
 90
        0
176
     1
 62
    18
420
        0
176
     1
 90
       50
176
     1
 90
        3
176
     1
 62
     5
420
      255
176
     1
290
     0
176
     1
 90
       50
176
     1
 90
       50
176
     1
 90
       50
176
     1
290
     0
176
     1
 90
       50
176
     1
 62
   256
176
     0
 40
1.0
176
     0
 90
        2
176
     1
  1
strokes_ogs.tif
176
     1
290
     0
176
     1
 40
1.0
176
     1
 40
1.0
176
     1
1001
ACAD
1000
AcDbSavedByObjectVersion
1070
     0
  0
VISUALSTYLE
  5
2A
102
{ACAD_REACTORS
330
29
102
}
330
29
100
AcDbVisualStyle
  2
Flat
 70
     0
177
     3
291
     1
 70
    58
 90
        2
176
     1
 90
        1
176
     1
 90
        1
176
     1
 90
        2
176
     1
 40
0.6
176
     1
 40
30.0
176
     1
 62
     7
420
 16777215
176
     1
 90
        0
176
     1
 90
        0
176
     1
 62
     7
176
     1
 62
   257
176
     1
 90
        1
176
     1
 90
        1
176
     1
 40
1.0
176
     1
 90
        8
176
     1
 62
     7
176
     1
 40
1.0
176
     1
 90
        1
176
     1
 90
        6
176
     1
 90
        2
176
     1
 62
     7
176
     1
 90
        5
176
     1
 90
        0
176
     1
 90
        0
176
     1
290
     0
176
     1
 90
       13
176
     1
 40
0.0
176
     1
 90
        0
176
     1
290
     0
176
     1
290
     1
176
     1
290
     1
176
     1
290
     0
176
     1
290
     0
176
     1
290
     0
176
     1
290
     0
176
     1
290
     0
176
     1
290
     0
176
     1
 90
       50
176
     1
 40
0.0
176
     1
 40
1.0
176
     1
 90
        0
176
     1
 62
    18
420
        0
176
     1
 90
       50
176
     1
 90
        3
176
     1
 62
     5
420
      255
176
     1
290
     0
176
     1
 90
       50
176
     1
 90
       50
176
     1
 90
       50
176
     1
290
     0
176
     1
 90
       50
176
     1
 62
   256
176
     0
 40
1.0
176
     0
 90
        2
176
     1
  1
strokes_ogs.tif
176
     1
290
     0
176
     1
 40
1.0
176
     1
 40
1.0
176
     1
1001
ACAD
1000
AcDbSavedByObjectVersion
1070
     0
  0
VISUALSTYLE
  5
2B
102
{ACAD_REACTORS
330
29
102
}
330
29
100
AcDbVisualStyle
  2
FlatWithEdges
 70
     1
177
     3
291
     1
 70
    58
 90
        2
176
     1
 90
        1
176
     1
 90
        1
176
     1
 90
        2
176
     1
 40
0.6
176
     1
 40
30.0
176
     1
 62
     7
420
 16777215
176
     1
 90
        1
176
     1
 90
        0
176
     1
 62
     7
176
     1
 62
   257
176
     1
 90
        1
176
     1
 90
        1
176
     1
 40
1.0
176
     1
 90
        0
176
     1
 62
   257
176
     1
 40
1.0
176
     1
 90
        1
176
     1
 90
        6
176
     1
 90
        2
176
     1
 62
     7
176
     1
 90
        5
176
     1
 90
        0
176
     1
 90
        0
176
     1
290
     0
176
     1
 90
       13
176
     1
 40
0.0
176
     1
 90
        0
176
     1
290
     0
176
     1
290
     1
176
     1
290
     1
176
     1
290
     0
176
     1
290
     0
176
     1
290
     0
176
     1
290
     0
176
     1
290
     0
176
     1
290
     0
176
     1
 90
       50
176
     1
 40
0.0
176
     1
 40
1.0
176
     1
 90
        0
176
     1
 62
    18
420
        0
176
     1
 90
       50
176
     1
 90
        3
176
     1
 62
     5
420
      255
176
     1
290
     0
176
     1
 90
       50
176
     1
 90
       50
176
     1
 90
       50
176
     1
290
     0
176
     1
 90
       50
176
     1
 62
   256
176
     0
 40
1.0
176
     0
 90
        2
176
     1
  1
strokes_ogs.tif
176
     1
290
     0
176
     1
 40
1.0
176
     1
 40
1.0
176
     1
1001
ACAD
1000
AcDbSavedByObjectVersion
1070
     0
  0
VISUALSTYLE
  5
2C
102
{ACAD_REACTORS
330
29
102
}
330
29
100
AcDbVisualStyle
  2
Gouraud
 70
     2
177
     3
291
     1
 70
    58
 90
        2
176
     1
 90
        2
176
     1
 90
        1
176
     1
 90
        2
176
     1
 40
0.6
176
     1
 40
30.0
176
     1
 62
     7
420
 16777215
176
     1
 90
        0
176
     1
 90
        0
176
     1
 62
     7
176
     1
 62
   257
176
     1
 90
        1
176
     1
 90
        1
176
     1
 40
1.0
176
     1
 90
        0
176
     1
 62
     7
176
     1
 40
1.0
176
     1
 90
        1
176
     1
 90
        6
176
     1
 90
        2
176
     1
 62
     7
176
     1
 90
        5
176
     1
 90
        0
176
     1
 90
        0
176
     1
290
     0
176
     1
 90
       13
176
     1
 40
0.0
176
     1
 90
        0
176
     1
290
     0
176
     1
290
     1
176
     1
290
     1
176
     1
290
     0
176
     1
290
     0
176
     1
290
     0
176
     1
290
     0
176
     1
290
     0
176
     1
290
     0
176
     1
 90
       50
176
     1
 40
0.0
176
     1
 40
1.0
176
     1
 90
        0
176
     1
 62
    18
420
        0
176
     1
 90
       50
176
     1
 90
        3
176
     1
 62
     5
420
      255
176
     1
290
     0
176
     1
 90
       50
176
     1
 90
       50
176
     1
 90
       50
176
     1
290
     0
176
     1
 90
       50
176
     1
 62
   256
176
     0
 40
1.0
176
     0
 90
        2
176
     1
  1
strokes_ogs.tif
176
     1
290
     0
176
     1
 40
1.0
176
     1
 40
1.0
176
     1
1001
ACAD
1000
AcDbSavedByObjectVersion
1070
     0
  0
VISUALSTYLE
  5
2D
102
{ACAD_REACTORS
330
29
102
}
330
29
100
AcDbVisualStyle
  2
GouraudWithEdges
 70
     3
177
     3
291
     1
 70
    58
 90
        2
176
     1
 90
        2
176
     1
 90
        1
176
     1
 90
        2
176
     1
 40
0.6
176
     1
 40
30.0
176
     1
 62
     7
420
 16777215
176
     1
 90
        1
176
     1
 90
        0
176
     1
 62
     7
176
     1
 62
   257
176
     1
 90
        1
176
     1
 90
        1
176
     1
 40
1.0
176
     1
 90
        0
176
     1
 62
   257
176
     1
 40
1.0
176
     1
 90
        1
176
     1
 90
        6
176
     1
 90
        2
176
     1
 62
     7
176
     1
 90
        5
176
     1
 90
        0
176
     1
 90
        0
176
     1
290
     0
176
     1
 90
       13
176
     1
 40
0.0
176
     1
 90
        0
176
     1
290
     0
176
     1
290
     1
176
     1
290
     1
176
     1
290
     0
176
     1
290
     0
176
     1
290
     0
176
     1
290
     0
176
     1
290
     0
176
     1
290
     0
176
     1
 90
       50
176
     1
 40
0.0
176
     1
 40
1.0
176
     1
 90
        0
176
     1
 62
    18
420
        0
176
     1
 90
       50
176
     1
 90
        3
176
     1
 62
     5
420
      255
176
     1
290
     0
176
     1
 90
       50
176
     1
 90
       50
176
     1
 90
       50
176
     1
290
     0
176
     1
 90
       50
176
     1
 62
   256
176
     0
 40
1.0
176
     0
 90
        2
176
     1
  1
strokes_ogs.tif
176
     1
290
     0
176
     1
 40
1.0
176
     1
 40
1.0
176
     1
1001
ACAD
1000
AcDbSavedByObjectVersion
1070
     0
  0
VISUALSTYLE
  5
31
102
{ACAD_REACTORS
330
29
102
}
330
29
100
AcDbVisualStyle
  2
Hidden
 70
     6
177
     3
291
     0
 70
    58
 90
        1
176
     1
 90
        2
176
     1
 90
        2
176
     1
 90
        0
176
     1
 40
0.6
176
     1
 40
30.0
176
     1
 62
     7
420
 16777215
176
     1
 90
        2
176
     1
 90
        2
176
     1
 62
     7
176
     1
 62
   257
176
     1
 90
        2
176
     1
 90
        1
176
     1
 40
40.0
176
     1
 90
        0
176
     1
 62
   257
176
     1
 40
1.0
176
     1
 90
        1
176
     1
 90
        6
176
     1
 90
        2
176
     1
 62
     7
176
     1
 90
        3
176
     1
 90
        0
176
     1
 90
        0
176
     1
290
     0
176
     1
 90
        1
176
     1
 40
0.0
176
     1
 90
        0
176
     1
290
     0
176
     1
290
     1
176
     1
290
     1
176
     1
290
     0
176
     1
290
     0
176
     1
290
     0
176
     1
290
     0
176
     1
290
     0
176
     1
290
     0
176
     1
 90
       50
176
     1
 40
0.0
176
     1
 40
1.0
176
     1
 90
        0
176
     1
 62
    18
420
        0
176
     1
 90
       50
176
     1
 90
        3
176
     1
 62
     5
420
      255
176
     1
290
     0
176
     1
 90
       50
176
     1
 90
       50
176
     1
 90
       50
176
     1
290
     0
176
     1
 90
       50
176
     1
 62
   256
176
     0
 40
1.0
176
     0
 90
        2
176
     1
  1
strokes_ogs.tif
176
     1
290
     0
176
     1
 40
1.0
176
     1
 40
1.0
176
     1
1001
ACAD
1000
AcDbSavedByObjectVersion
1070
     0
  0
VISUALSTYLE
  5
3F
102
{ACAD_REACTORS
330
29
102
}
330
29
100
AcDbVisualStyle
  2
JitterOff
 70
    20
177
     3
291
     1
 70
    58
 90
        2
176
     0
 90
        2
176
     0
 90
        0
176
     0
 90
        0
176
     0
 40
0.6
176
     0
 40
30.0
176
     0
 62
     7
420
 16777215
176
     0
 90
        1
176
     0
 90
        4
176
     0
 62
     7
176
     0
 62
   257
176
     0
 90
        1
176
     0
 90
        1
176
     0
 40
1.0
176
     0
 90
       10
176
     2
 62
     7
176
     0
 40
1.0
176
     0
 90
        1
176
     0
 90
        6
176
     0
 90
        2
176
     0
 62
     7
176
     0
 90
        5
176
     0
 90
        0
176
     0
 90
        0
176
     0
290
     0
176
     0
 90
        1
176
     0
 40
0.0
176
     0
 90
        0
176
     0
290
     0
176
     0
290
     1
176
     0
290
     1
176
     0
290
     0
176
     0
290
     0
176
     0
290
     0
176
     0
290
     0
176
     0
290
     0
176
     0
290
     0
176
     0
 90
       50
176
     0
 40
0.0
176
     0
 40
1.0
176
     0
 90
        0
176
     0
 62
    18
420
        0
176
     0
 90
       50
176
     0
 90
        3
176
     0
 62
     5
420
      255
176
     0
290
     0
176
     0
 90
       50
176
     0
 90
       50
176
     0
 90
       50
176
     0
290
     0
176
     0
 90
       50
176
     0
 62
   256
176
     0
 40
1.0
176
     0
 90
        2
176
     0
  1
strokes_ogs.tif
176
     0
290
     0
176
     0
 40
1.0
176
     0
 40
1.0
176
     0
1001
ACAD
1000
AcDbSavedByObjectVersion
1070
     0
  0
VISUALSTYLE
  5
37
102
{ACAD_REACTORS
330
29
102
}
330
29
100
AcDbVisualStyle
  2
Linepattern
 70
    14
177
     3
291
     1
 70
    58
 90
        2
176
     1
 90
        2
176
     1
 90
        0
176
     1
 90
        0
176
     1
 40
0.6
176
     1
 40
30.0
176
     1
 62
     7
420
 16777215
176
     1
 90
        1
176
     1
 90
        4
176
     1
 62
     7
176
     1
 62
   257
176
     1
 90
        7
176
     1
 90
        7
176
     1
 40
1.0
176
     1
 90
        8
176
     1
 62
     7
176
     1
 40
1.0
176
     1
 90
        1
176
     1
 90
        6
176
     1
 90
        2
176
     1
 62
     7
176
     1
 90
        5
176
     1
 90
        0
176
     1
 90
        0
176
     1
290
     0
176
     1
 90
        1
176
     1
 40
0.0
176
     1
 90
        0
176
     1
290
     0
176
     1
290
     1
176
     1
290
     1
176
     1
290
     0
176
     1
290
     0
176
     1
290
     0
176
     1
290
     0
176
     1
290
     0
176
     1
290
     0
176
     1
 90
       50
176
     1
 40
0.0
176
     1
 40
1.0
176
     1
 90
        0
176
     1
 62
    18
420
        0
176
     1
 90
       50
176
     1
 90
        3
176
     1
 62
     5
420
      255
176
     1
290
     0
176
     1
 90
       50
176
     1
 90
       50
176
     1
 90
       50
176
     1
290
     0
176
     1
 90
       50
176
     1
 62
   256
176
     0
 40
1.0
176
     0
 90
        2
176
     1
  1
strokes_ogs.tif
176
     1
290
     0
176
     1
 40
1.0
176
     1
 40
1.0
176
     1
1001
ACAD
1000
AcDbSavedByObjectVersion
1070
     0
  0
VISUALSTYLE
  5
40
102
{ACAD_REACTORS
330
29
102
}
330
29
100
AcDbVisualStyle
  2
OverhangOff
 70
    21
177
     3
291
     1
 70
    58
 90
        2
176
     0
 90
        2
176
     0
 90
        0
176
     0
 90
        0
176
     0
 40
0.6
176
     0
 40
30.0
176
     0
 62
     7
420
 16777215
176
     0
 90
        1
176
     0
 90
        4
176
     0
 62
     7
176
     0
 62
   257
176
     0
 90
        1
176
     0
 90
        1
176
     0
 40
1.0
176
     0
 90
        9
176
     2
 62
     7
176
     0
 40
1.0
176
     0
 90
        1
176
     0
 90
        6
176
     0
 90
        2
176
     0
 62
     7
176
     0
 90
        5
176
     0
 90
        0
176
     0
 90
        0
176
     0
290
     0
176
     0
 90
        1
176
     0
 40
0.0
176
     0
 90
        0
176
     0
290
     0
176
     0
290
     1
176
     0
290
     1
176
     0
290
     0
176
     0
290
     0
176
     0
290
     0
176
     0
290
     0
176
     0
290
     0
176
     0
290
     0
176
     0
 90
       50
176
     0
 40
0.0
176
     0
 40
1.0
176
     0
 90
        0
176
     0
 62
    18
420
        0
176
     0
 90
       50
176
     0
 90
        3
176
     0
 62
     5
420
      255
176
     0
290
     0
176
     0
 90
       50
176
     0
 90
       50
176
     0
 90
       50
176
     0
290
     0
176
     0
 90
       50
176
     0
 62
   256
176
     0
 40
1.0
176
     0
 90
        2
176
     0
  1
strokes_ogs.tif
176
     0
290
     0
176
     0
 40
1.0
176
     0
 40
1.0
176
     0
1001
ACAD
1000
AcDbSavedByObjectVersion
1070
     0
  0
VISUALSTYLE
  5
33
102
{ACAD_REACTORS
330
29
102
}
330
29
100
AcDbVisualStyle
  2
Realistic
 70
     8
177
     3
291
     0
 70
    58
 90
        2
176
     1
 90
        3
176
     1
 90
        0
176
     1
 90
        2
176
     1
 40
0.6
176
     1
 40
30.0
176
     1
 62
     7
420
 16777215
176
     1
 90
        0
176
     1
 90
        0
176
     1
 62
     7
176
     1
 62
   257
176
     1
 90
        1
176
     1
 90
        1
176
     1
 40
1.0
176
     1
 90
        8
176
     1
 62
   257
176
     1
 40
1.0
176
     1
 90
        1
176
     1
 90
        6
176
     1
 90
        2
176
     1
 62
     7
176
     1
 90
        3
176
     1
 90
        0
176
     1
 90
        0
176
     1
290
     0
176
     1
 90
       13
176
     1
 40
0.0
176
     1
 90
        0
176
     1
290
     0
176
     1
290
     1
176
     1
290
     1
176
     1
290
     0
176
     1
290
     0
176
     1
290
     0
176
     1
290
     0
176
     1
290
     0
176
     1
290
     0
176
     1
 90
       50
176
     1
 40
0.0
176
     1
 40
1.0
176
     1
 90
        0
176
     1
 62
    18
420
        0
176
     1
 90
       50
176
     1
 90
        3
176
     1
 62
     5
420
      255
176
     1
290
     0
176
     1
 90
       50
176
     1
 90
       50
176
     1
 90
       50
176
     1
290
     0
176
     1
 90
       50
176
     1
 62
   256
176
     0
 40
1.0
176
     0
 90
        2
176
     1
  1
strokes_ogs.tif
176
     1
290
     0
176
     1
 40
1.0
176
     1
 40
1.0
176
     1
1001
ACAD
1000
AcDbSavedByObjectVersion
1070
     0
  0
VISUALSTYLE
  5
3E
102
{ACAD_REACTORS
330
29
102
}
330
29
100
AcDbVisualStyle
  2
Shaded
 70
    27
177
     3
291
     0
 70
    58
 90
        2
176
     1
 90
        2
176
     1
 90
        1
176
     1
 90
        2
176
     1
 40
0.6
176
     1
 40
30.0
176
     1
 62
     7
420
 16777215
176
     1
 90
        0
176
     1
 90
        4
176
     1
 62
     7
176
     1
 62
   257
176
     1
 90
        1
176
     1
 90
        1
176
     1
 40
1.0
176
     1
 90
        8
176
     1
 62
   257
176
     1
 40
1.0
176
     1
 90
        1
176
     1
 90
        6
176
     1
 90
        2
176
     1
 62
     8
420
  7895160
176
     1
 90
        3
176
     1
 90
        0
176
     1
 90
        0
176
     1
290
     0
176
     1
 90
        5
176
     1
 40
0.0
176
     1
 90
        0
176
     1
290
     0
176
     1
290
     1
176
     1
290
     1
176
     1
290
     0
176
     1
290
     0
176
     1
290
     0
176
     1
290
     0
176
     1
290
     0
176
     1
290
     0
176
     1
 90
       50
176
     1
 40
0.0
176
     1
 40
1.0
176
     1
 90
        0
176
     1
 62
    18
420
        0
176
     1
 90
       50
176
     1
 90
        3
176
     1
 62
     5
420
      255
176
     1
290
     0
176
     1
 90
       50
176
     1
 90
       50
176
     1
 90
       50
176
     1
290
     0
176
     1
 90
       50
176
     1
 62
   256
176
     0
 40
1.0
176
     0
 90
        2
176
     1
  1
strokes_ogs.tif
176
     1
290
     0
176
     1
 40
1.0
176
     1
 40
1.0
176
     1
1001
ACAD
1000
AcDbSavedByObjectVersion
1070
     0
  0
VISUALSTYLE
  5
3D
102
{ACAD_REACTORS
330
29
102
}
330
29
100
AcDbVisualStyle
  2
Shaded with edges
 70
    26
177
     3
291
     0
 70
    58
 90
        2
176
     1
 90
        2
176
     1
 90
        1
176
     1
 90
        2
176
     1
 40
0.6
176
     1
 40
30.0
176
     1
 62
     7
420
 16777215
176
     1
 90
        1
176
     1
 90
        2
176
     1
 62
     7
176
     1
 62
   257
176
     1
 90
        2
176
     1
 90
        1
176
     1
 40
1.0
176
     1
 90
        8
176
     1
 62
   257
176
     1
 40
1.0
176
     1
 90
        1
176
     1
 90
        6
176
     1
 90
        2
176
     1
 62
     7
176
     1
 90
        3
176
     1
 90
        0
176
     1
 90
        0
176
     1
290
     0
176
     1
 90
        5
176
     1
 40
0.0
176
     1
 90
        0
176
     1
290
     0
176
     1
290
     1
176
     1
290
     1
176
     1
290
     0
176
     1
290
     0
176
     1
290
     0
176
     1
290
     0
176
     1
290
     0
176
     1
290
     0
176
     1
 90
       50
176
     1
 40
0.0
176
     1
 40
1.0
176
     1
 90
        0
176
     1
 62
    18
420
        0
176
     1
 90
       50
176
     1
 90
        3
176
     1
 62
     5
420
      255
176
     1
290
     0
176
     1
 90
       50
176
     1
 90
       50
176
     1
 90
       50
176
     1
290
     0
176
     1
 90
       50
176
     1
 62
   256
176
     0
 40
1.0
176
     0
 90
        2
176
     1
  1
strokes_ogs.tif
176
     1
290
     0
176
     1
 40
1.0
176
     1
 40
1.0
176
     1
1001
ACAD
1000
AcDbSavedByObjectVersion
1070
     0
  0
VISUALSTYLE
  5
3A
102
{ACAD_REACTORS
330
29
102
}
330
29
100
AcDbVisualStyle
  2
Shades of Gray
 70
    23
177
     3
291
     0
 70
    58
 90
        2
176
     1
 90
        2
176
     1
 90
        3
176
     1
 90
        0
176
     1
 40
0.6
176
     1
 40
30.0
176
     1
 62
     7
420
 16777215
176
     1
 90
        2
176
     1
 90
        2
176
     1
 62
     7
176
     1
 62
     7
176
     1
 90
        1
176
     1
 90
        1
176
     1
 40
40.0
176
     1
 90
        8
176
     1
 62
     7
176
     1
 40
1.0
176
     1
 90
        1
176
     1
 90
        6
176
     1
 90
        2
176
     1
 62
     7
176
     1
 90
        3
176
     1
 90
        0
176
     1
 90
        0
176
     1
290
     0
176
     1
 90
        1
176
     1
 40
0.0
176
     1
 90
        0
176
     1
290
     0
176
     1
290
     1
176
     1
290
     1
176
     1
290
     0
176
     1
290
     0
176
     1
290
     0
176
     1
290
     0
176
     1
290
     0
176
     1
290
     0
176
     1
 90
       50
176
     1
 40
0.0
176
     1
 40
1.0
176
     1
 90
        0
176
     1
 62
    18
420
        0
176
     1
 90
       50
176
     1
 90
        3
176
     1
 62
     5
420
      255
176
     1
290
     0
176
     1
 90
       50
176
     1
 90
       50
176
     1
 90
       50
176
     1
290
     0
176
     1
 90
       50
176
     1
 62
   256
176
     0
 40
1.0
176
     0
 90
        2
176
     1
  1
strokes_ogs.tif
176
     1
290
     0
176
     1
 40
1.0
176
     1
 40
1.0
176
     1
1001
ACAD
1000
AcDbSavedByObjectVersion
1070
     0
  0
VISUALSTYLE
  5
3B
102
{ACAD_REACTORS
330
29
102
}
330
29
100
AcDbVisualStyle
  2
Sketchy
 70
    24
177
     3
291
     0
 70
    58
 90
        1
176
     1
 90
        2
176
     1
 90
        2
176
     1
 90
        0
176
     1
 40
0.6
176
     1
 40
30.0
176
     1
 62
     7
420
 16777215
176
     1
 90
        2
176
     1
 90
        2
176
     1
 62
     7
176
     1
 62
     7
176
     1
 90
        1
176
     1
 90
        1
176
     1
 40
40.0
176
     1
 90
       11
176
     1
 62
     7
176
     1
 40
1.0
176
     1
 90
        1
176
     1
 90
        6
176
     1
 90
        2
176
     1
 62
     7
176
     1
 90
        6
176
     1
 90
        0
176
     1
 90
        0
176
     1
290
     0
176
     1
 90
        1
176
     1
 40
0.0
176
     1
 90
        0
176
     1
290
     0
176
     1
290
     1
176
     1
290
     1
176
     1
290
     0
176
     1
290
     0
176
     1
290
     0
176
     1
290
     0
176
     1
290
     0
176
     1
290
     0
176
     1
 90
       50
176
     1
 40
0.0
176
     1
 40
1.0
176
     1
 90
        0
176
     1
 62
    18
420
        0
176
     1
 90
       50
176
     1
 90
        3
176
     1
 62
     5
420
      255
176
     1
290
     0
176
     1
 90
       50
176
     1
 90
       50
176
     1
 90
       50
176
     1
290
     0
176
     1
 90
       50
176
     1
 62
   256
176
     0
 40
1.0
176
     0
 90
        2
176
     1
  1
strokes_ogs.tif
176
     1
290
     0
176
     1
 40
1.0
176
     1
 40
1.0
176
     1
1001
ACAD
1000
AcDbSavedByObjectVersion
1070
     0
  0
VISUALSTYLE
  5
36
102
{ACAD_REACTORS
330
29
102
}
330
29
100
AcDbVisualStyle
  2
Thicken
 70
    13
177
     3
291
     1
 70
    58
 90
        2
176
     1
 90
        2
176
     1
 90
        0
176
     1
 90
        0
176
     1
 40
0.6
176
     1
 40
30.0
176
     1
 62
     7
420
 16777215
176
     1
 90
        1
176
     1
 90
        4
176
     1
 62
     7
176
     1
 62
   257
176
     1
 90
        1
176
     1
 90
        1
176
     1
 40
1.0
176
     1
 90
       12
176
     1
 62
     7
176
     1
 40
1.0
176
     1
 90
        1
176
     1
 90
        6
176
     1
 90
        2
176
     1
 62
     7
176
     1
 90
        5
176
     1
 90
        0
176
     1
 90
        0
176
     1
290
     0
176
     1
 90
        1
176
     1
 40
0.0
176
     1
 90
        0
176
     1
290
     0
176
     1
290
     1
176
     1
290
     1
176
     1
290
     0
176
     1
290
     0
176
     1
290
     0
176
     1
290
     0
176
     1
290
     0
176
     1
290
     0
176
     1
 90
       50
176
     1
 40
0.0
176
     1
 40
1.0
176
     1
 90
        0
176
     1
 62
    18
420
        0
176
     1
 90
       50
176
     1
 90
        3
176
     1
 62
     5
420
      255
176
     1
290
     0
176
     1
 90
       50
176
     1
 90
       50
176
     1
 90
       50
176
     1
290
     0
176
     1
 90
       50
176
     1
 62
   256
176
     0
 40
1.0
176
     0
 90
        2
176
     1
  1
strokes_ogs.tif
176
     1
290
     0
176
     1
 40
1.0
176
     1
 40
1.0
176
     1
1001
ACAD
1000
AcDbSavedByObjectVersion
1070
     0
  0
VISUALSTYLE
  5
30
102
{ACAD_REACTORS
330
29
102
}
330
29
100
AcDbVisualStyle
  2
Wireframe
 70
     5
177
     3
291
     0
 70
    58
 90
        0
176
     1
 90
        2
176
     1
 90
        0
176
     1
 90
        0
176
     1
 40
0.6
176
     1
 40
30.0
176
     1
 62
     7
420
 16777215
176
     1
 90
        1
176
     1
 90
        4
176
     1
 62
     7
176
     1
 62
   257
176
     1
 90
        1
176
     1
 90
        1
176
     1
 40
1.0
176
     1
 90
        0
176
     1
 62
   257
176
     1
 40
1.0
176
     1
 90
        1
176
     1
 90
        6
176
     1
 90
        2
176
     1
 62
     7
176
     1
 90
        3
176
     1
 90
        0
176
     1
 90
        0
176
     1
290
     0
176
     1
 90
        1
176
     1
 40
0.0
176
     1
 90
        0
176
     1
290
     0
176
     1
290
     1
176
     1
290
     1
176
     1
290
     0
176
     1
290
     0
176
     1
290
     0
176
     1
290
     0
176
     1
290
     0
176
     1
290
     0
176
     1
 90
       50
176
     1
 40
0.0
176
     1
 40
1.0
176
     1
 90
        0
176
     1
 62
    18
420
        0
176
     1
 90
       50
176
     1
 90
        3
176
     1
 62
     5
420
      255
176
     1
290
     0
176
     1
 90
       50
176
     1
 90
       50
176
     1
 90
       50
176
     1
290
     0
176
     1
 90
       50
176
     1
 62
   256
176
     0
 40
1.0
176
     0
 90
        2
176
     1
  1
strokes_ogs.tif
176
     1
290
     0
176
     1
 40
1.0
176
     1
 40
1.0
176
     1
1001
ACAD
1000
AcDbSavedByObjectVersion
1070
     0
  0
VISUALSTYLE
  5
3C
102
{ACAD_REACTORS
330
29
102
}
330
29
100
AcDbVisualStyle
  2
X-Ray
 70
    25
177
     3
291
     0
 70
    58
 90
        2
176
     1
 90
        2
176
     1
 90
        1
176
     1
 90
        1
176
     1
 40
0.5
176
     1
 40
30.0
176
     1
 62
     7
420
 16777215
176
     1
 90
        1
176
     1
 90
        0
176
     1
 62
     7
176
     1
 62
   257
176
     1
 90
        1
176
     1
 90
        1
176
     1
 40
1.0
176
     1
 90
        8
176
     1
 62
     7
176
     1
 40
1.0
176
     1
 90
        1
176
     1
 90
        6
176
     1
 90
        2
176
     1
 62
     7
176
     1
 90
        3
176
     1
 90
        0
176
     1
 90
        0
176
     1
290
     0
176
     1
 90
       13
176
     1
 40
0.0
176
     1
 90
        0
176
     1
290
     0
176
     1
290
     1
176
     1
290
     1
176
     1
290
     0
176
     1
290
     0
176
     1
290
     0
176
     1
290
     0
176
     1
290
     0
176
     1
290
     0
176
     1
 90
       50
176
     1
 40
0.0
176
     1
 40
1.0
176
     1
 90
        0
176
     1
 62
    18
420
        0
176
     1
 90
       50
176
     1
 90
        3
176
     1
 62
     5
420
      255
176
     1
290
     0
176
     1
 90
       50
176
     1
 90
       50
176
     1
 90
       50
176
     1
290
     0
176
     1
 90
       50
176
     1
 62
   256
176
     0
 40
1.0
176
     0
 90
        2
176
     1
  1
strokes_ogs.tif
176
     1
290
     0
176
     1
 40
1.0
176
     1
 40
1.0
176
     1
1001
ACAD
1000
AcDbSavedByObjectVersion
1070
     0
  0
DICTIONARYVAR
  5
8F
102
{ACAD_REACTORS
330
8A
102
}
330
8A
100
DictionaryVariables
280
     0
  1
1:1
  0
DICTIONARYVAR
  5
8C
102
{ACAD_REACTORS
330
8A
102
}
330
8A
100
DictionaryVariables
280
     0
  1
STANDARD
  0
DICTIONARYVAR
  5
8B
102
{ACAD_REACTORS
330
8A
102
}
330
8A
100
DictionaryVariables
280
     0
  1
STANDARD
  0
DICTIONARYVAR
  5
8D
102
{ACAD_REACTORS
330
8A
102
}
330
8A
100
DictionaryVariables
280
     0
  1
Imperial24
  0
DICTIONARYVAR
  5
8E
102
{ACAD_REACTORS
330
8A
102
}
330
8A
100
DictionaryVariables
280
     0
  1
Imperial24
  0
DICTIONARY
  5
95
330
6B
100
AcDbDictionary
280
     1
281
     1
  3
ACAD_XREC_ROUNDTRIP
360
96
  0
DICTIONARY
  5
1A
330
19
100
AcDbDictionary
280
     1
281
     1
  3
BUMPTILE
360
1C
  3
DIFFUSETILE
360
1B
  3
OPACITYTILE
360
1F
  3
REFLECTIONTILE
360
1E
  3
REFRACTIONTILE
360
20
  3
SPECULARTILE
360
1D
  0
DICTIONARY
  5
12
330
11
100
AcDbDictionary
280
     1
281
     1
  3
BUMPTILE
360
14
  3
DIFFUSETILE
360
13
  3
OPACITYTILE
360
17
  3
REFLECTIONTILE
360
16
  3
REFRACTIONTILE
360
18
  3
SPECULARTILE
360
15
  0
DICTIONARY
  5
22
330
21
100
AcDbDictionary
280
     1
281
     1
  3
BUMPTILE
360
24
  3
DIFFUSETILE
360
23
  3
OPACITYTILE
360
27
  3
REFLECTIONTILE
360
26
  3
REFRACTIONTILE
360
28
  3
SPECULARTILE
360
25
  0
DICTIONARY
  5
93
330
69
100
AcDbDictionary
280
     1
281
     1
  3
ACAD_XREC_ROUNDTRIP
360
94
  0
DICTIONARY
  5
90
330
65
100
AcDbDictionary
280
     1
281
     1
  3
ACAD_ROUNDTRIP_2008_TABLESTYLE_CELLSTYLEMAP
360
91
  0
XRECORD
  5
96
102
{ACAD_REACTORS
330
95
102
}
330
95
100
AcDbXrecord
280
     1
102
DISPLAYNAME
  1
Imperial24
102
FLAGS
 90
        0
  0
XRECORD
  5
1C
102
{ACAD_REACTORS
330
1A
102
}
330
1A
100
AcDbXrecord
280
     1
270
     1
271
     1
  0
XRECORD
  5
1B
102
{ACAD_REACTORS
330
1A
102
}
330
1A
100
AcDbXrecord
280
     1
270
     1
271
     1
  0
XRECORD
  5
1F
102
{ACAD_REACTORS
330
1A
102
}
330
1A
100
AcDbXrecord
280
     1
270
     1
271
     1
  0
XRECORD
  5
1E
102
{ACAD_REACTORS
330
1A
102
}
330
1A
100
AcDbXrecord
280
     1
270
     1
271
     1
  0
XRECORD
  5
20
102
{ACAD_REACTORS
330
1A
102
}
330
1A
100
AcDbXrecord
280
     1
270
     1
271
     1
  0
XRECORD
  5
1D
102
{ACAD_REACTORS
330
1A
102
}
330
1A
100
AcDbXrecord
280
     1
270
     1
271
     1
  0
XRECORD
  5
14
102
{ACAD_REACTORS
330
12
102
}
330
12
100
AcDbXrecord
280
     1
270
     1
271
     1
  0
XRECORD
  5
13
102
{ACAD_REACTORS
330
12
102
}
330
12
100
AcDbXrecord
280
     1
270
     1
271
     1
  0
XRECORD
  5
17
102
{ACAD_REACTORS
330
12
102
}
330
12
100
AcDbXrecord
280
     1
270
     1
271
     1
  0
XRECORD
  5
16
102
{ACAD_REACTORS
330
12
102
}
330
12
100
AcDbXrecord
280
     1
270
     1
271
     1
  0
XRECORD
  5
18
102
{ACAD_REACTORS
330
12
102
}
330
12
100
AcDbXrecord
280
     1
270
     1
271
     1
  0
XRECORD
  5
15
102
{ACAD_REACTORS
330
12
102
}
330
12
100
AcDbXrecord
280
     1
270
     1
271
     1
  0
XRECORD
  5
24
102
{ACAD_REACTORS
330
22
102
}
330
22
100
AcDbXrecord
280
     1
270
     1
271
     1
  0
XRECORD
  5
23
102
{ACAD_REACTORS
330
22
102
}
330
22
100
AcDbXrecord
280
     1
270
     1
271
     1
  0
XRECORD
  5
27
102
{ACAD_REACTORS
330
22
102
}
330
22
100
AcDbXrecord
280
     1
270
     1
271
     1
  0
XRECORD
  5
26
102
{ACAD_REACTORS
330
22
102
}
330
22
100
AcDbXrecord
280
     1
270
     1
271
     1
  0
XRECORD
  5
28
102
{ACAD_REACTORS
330
22
102
}
330
22
100
AcDbXrecord
280
     1
270
     1
271
     1
  0
XRECORD
  5
25
102
{ACAD_REACTORS
330
22
102
}
330
22
100
AcDbXrecord
280
     1
270
     1
271
     1
  0
XRECORD
  5
94
102
{ACAD_REACTORS
330
93
102
}
330
93
100
AcDbXrecord
280
     1
102
DISPLAYNAME
  1
Imperial24
102
FLAGS
 90
        0
  0
CELLSTYLEMAP
  5
91
102
{ACAD_REACTORS
330
90
102
}
330
90
100
AcDbCellStyleMap
 90
        3
300
CELLSTYLE
  1
TABLEFORMAT_BEGIN
 90
        5
170
     1
 91
        0
 92
    32768
 62
   257
 93
        1
300
CONTENTFORMAT
  1
CONTENTFORMAT_BEGIN
 90
        0
 91
        0
 92
      512
 93
        0
300

 40
0.0
140
1.0
 94
        5
 62
     0
340
55
144
0.25
309
CONTENTFORMAT_END
171
     0
 94
        0
309
TABLEFORMAT_END
  1
CELLSTYLE_BEGIN
 90
        1
 91
        1
300
_TITLE
309
CELLSTYLE_END
300
CELLSTYLE
  1
TABLEFORMAT_BEGIN
 90
        5
170
     1
 91
        0
 92
        0
 62
   257
 93
        1
300
CONTENTFORMAT
  1
CONTENTFORMAT_BEGIN
 90
        0
 91
        0
 92
      512
 93
        0
300

 40
0.0
140
1.0
 94
        5
 62
     0
340
55
144
0.18
309
CONTENTFORMAT_END
171
     0
 94
        0
309
TABLEFORMAT_END
  1
CELLSTYLE_BEGIN
 90
        2
 91
        1
300
_HEADER
309
CELLSTYLE_END
300
CELLSTYLE
  1
TABLEFORMAT_BEGIN
 90
        5
170
     1
 91
        0
 92
        0
 62
   257
 93
        1
300
CONTENTFORMAT
  1
CONTENTFORMAT_BEGIN
 90
        0
 91
        0
 92
      512
 93
        0
300

 40
0.0
140
1.0
 94
        2
 62
     0
340
55
144
0.18
309
CONTENTFORMAT_END
171
     0
 94
        0
309
TABLEFORMAT_END
  1
CELLSTYLE_BEGIN
 90
        3
 91
        2
300
_DATA
309
CELLSTYLE_END
  0
ENDSEC
  0
EOF
