  0
SECTION
  2
HEADER
  9
$ACADVER
  1
AC1027
  9
$ACADMAINTVER
 70
   125
  9
$DWGCODEPAGE
  3
ANSI_1252
  9
$REQUIREDVERSIONS
160
                 0
  9
$INSBASE
 10
0.0
 20
0.0
 30
0.0
  9
$EXTMIN
 10
1.000000000000000E+20
 20
1.000000000000000E+20
 30
1.000000000000000E+20
  9
$EXTMAX
 10
-1.000000000000000E+20
 20
-1.000000000000000E+20
 30
-1.000000000000000E+20
  9
$LIMMIN
 10
0.0
 20
0.0
  9
$LIMMAX
 10
12.0
 20
9.0
  9
$ORTHOMODE
 70
     0
  9
$REGENMODE
 70
     1
  9
$FILLMODE
 70
     1
  9
$QTEXTMODE
 70
     0
  9
$MIRRTEXT
 70
     0
  9
$LTSCALE
 40
1.0
  9
$ATTMODE
 70
     1
  9
$TEXTSIZE
 40
0.2
  9
$TRACEWID
 40
0.05
  9
$TEXTSTYLE
  7
Standard
  9
$CLAYER
  8
0
  9
$CELTYPE
  6
ByLayer
  9
$CECOLOR
 62
   256
  9
$CELTSCALE
 40
1.0
  9
$DISPSILH
 70
     0
  9
$DIMSCALE
 40
1.0
  9
$DIMASZ
 40
0.18
  9
$DIMEXO
 40
0.0625
  9
$DIMDLI
 40
0.38
  9
$DIMRND
 40
0.0
  9
$DIMDLE
 40
0.0
  9
$DIMEXE
 40
0.18
  9
$DIMTP
 40
0.0
  9
$DIMTM
 40
0.0
  9
$DIMTXT
 40
0.18
  9
$DIMCEN
 40
0.09
  9
$DIMTSZ
 40
0.0
  9
$DIMTOL
 70
     0
  9
$DIMLIM
 70
     0
  9
$DIMTIH
 70
     1
  9
$DIMTOH
 70
     1
  9
$DIMSE1
 70
     0
  9
$DIMSE2
 70
     0
  9
$DIMTAD
 70
     0
  9
$DIMZIN
 70
     0
  9
$DIMBLK
  1

  9
$DIMASO
 70
     1
  9
$DIMSHO
 70
     1
  9
$DIMPOST
  1

  9
$DIMAPOST
  1

  9
$DIMALT
 70
     0
  9
$DIMALTD
 70
     2
  9
$DIMALTF
 40
25.4
  9
$DIMLFAC
 40
1.0
  9
$DIMTOFL
 70
     0
  9
$DIMTVP
 40
0.0
  9
$DIMTIX
 70
     0
  9
$DIMSOXD
 70
     0
  9
$DIMSAH
 70
     0
  9
$DIMBLK1
  1

  9
$DIMBLK2
  1

  9
$DIMSTYLE
  2
Standard
  9
$DIMCLRD
 70
     0
  9
$DIMCLRE
 70
     0
  9
$DIMCLRT
 70
     0
  9
$DIMTFAC
 40
1.0
  9
$DIMGAP
 40
0.09
  9
$DIMJUST
 70
     0
  9
$DIMSD1
 70
     0
  9
$DIMSD2
 70
     0
  9
$DIMTOLJ
 70
     1
  9
$DIMTZIN
 70
     0
  9
$DIMALTZ
 70
     0
  9
$DIMALTTZ
 70
     0
  9
$DIMUPT
 70
     0
  9
$DIMDEC
 70
     4
  9
$DIMTDEC
 70
     4
  9
$DIMALTU
 70
     2
  9
$DIMALTTD
 70
     2
  9
$DIMTXSTY
  7
Standard
  9
$DIMAUNIT
 70
     0
  9
$DIMADEC
 70
     0
  9
$DIMALTRND
 40
0.0
  9
$DIMAZIN
 70
     0
  9
$DIMDSEP
 70
    46
  9
$DIMATFIT
 70
     3
  9
$DIMFRAC
 70
     0
  9
$DIMLDRBLK
  1

  9
$DIMLUNIT
 70
     2
  9
$DIMLWD
 70
    -2
  9
$DIMLWE
 70
    -2
  9
$DIMTMOVE
 70
     0
  9
$DIMFXL
 40
1.0
  9
$DIMFXLON
 70
     0
  9
$DIMJOGANG
 40
0.7853981633974483
  9
$DIMTFILL
 70
     0
  9
$DIMTFILLCLR
 70
     0
  9
$DIMARCSYM
 70
     0
  9
$DIMLTYPE
  6

  9
$DIMLTEX1
  6

  9
$DIMLTEX2
  6

  9
$DIMTXTDIRECTION
 70
     0
  9
$LUNITS
 70
     2
  9
$LUPREC
 70
     4
  9
$SKETCHINC
 40
0.1
  9
$FILLETRAD
 40
0.0
  9
$AUNITS
 70
     0
  9
$AUPREC
 70
     0
  9
$MENU
  1
.
  9
$ELEVATION
 40
0.0
  9
$PELEVATION
 40
0.0
  9
$THICKNESS
 40
0.0
  9
$LIMCHECK
 70
     0
  9
$CHAMFERA
 40
0.0
  9
$CHAMFERB
 40
0.0
  9
$CHAMFERC
 40
0.0
  9
$CHAMFERD
 40
0.0
  9
$SKPOLY
 70
     0
  9
$TDCREATE
 40
2459734.952800926
  9
$TDUCREATE
 40
2459734.536134259
  9
$TDUPDATE
 40
2459734.952800926
  9
$TDUUPDATE
 40
2459734.536134259
  9
$TDINDWG
 40
0.0000000000
  9
$TDUSRTIMER
 40
0.0000000000
  9
$USRTIMER
 70
     1
  9
$ANGBASE
 50
0.0
  9
$ANGDIR
 70
     0
  9
$PDMODE
 70
     0
  9
$PDSIZE
 40
0.0
  9
$PLINEWID
 40
0.0
  9
$SPLFRAME
 70
     0
  9
$SPLINETYPE
 70
     6
  9
$SPLINESEGS
 70
     8
  9
$HANDSEED
  5
8B
  9
$SURFTAB1
 70
     6
  9
$SURFTAB2
 70
     6
  9
$SURFTYPE
 70
     6
  9
$SURFU
 70
     6
  9
$SURFV
 70
     6
  9
$UCSBASE
  2

  9
$UCSNAME
  2

  9
$UCSORG
 10
0.0
 20
0.0
 30
0.0
  9
$UCSXDIR
 10
1.0
 20
0.0
 30
0.0
  9
$UCSYDIR
 10
0.0
 20
1.0
 30
0.0
  9
$UCSORTHOREF
  2

  9
$UCSORTHOVIEW
 70
     0
  9
$UCSORGTOP
 10
0.0
 20
0.0
 30
0.0
  9
$UCSORGBOTTOM
 10
0.0
 20
0.0
 30
0.0
  9
$UCSORGLEFT
 10
0.0
 20
0.0
 30
0.0
  9
$UCSORGRIGHT
 10
0.0
 20
0.0
 30
0.0
  9
$UCSORGFRONT
 10
0.0
 20
0.0
 30
0.0
  9
$UCSORGBACK
 10
0.0
 20
0.0
 30
0.0
  9
$PUCSBASE
  2

  9
$PUCSNAME
  2

  9
$PUCSORG
 10
0.0
 20
0.0
 30
0.0
  9
$PUCSXDIR
 10
1.0
 20
0.0
 30
0.0
  9
$PUCSYDIR
 10
0.0
 20
1.0
 30
0.0
  9
$PUCSORTHOREF
  2

  9
$PUCSORTHOVIEW
 70
     0
  9
$PUCSORGTOP
 10
0.0
 20
0.0
 30
0.0
  9
$PUCSORGBOTTOM
 10
0.0
 20
0.0
 30
0.0
  9
$PUCSORGLEFT
 10
0.0
 20
0.0
 30
0.0
  9
$PUCSORGRIGHT
 10
0.0
 20
0.0
 30
0.0
  9
$PUCSORGFRONT
 10
0.0
 20
0.0
 30
0.0
  9
$PUCSORGBACK
 10
0.0
 20
0.0
 30
0.0
  9
$USERI1
 70
     0
  9
$USERI2
 70
     0
  9
$USERI3
 70
     0
  9
$USERI4
 70
     0
  9
$USERI5
 70
     0
  9
$USERR1
 40
0.0
  9
$USERR2
 40
0.0
  9
$USERR3
 40
0.0
  9
$USERR4
 40
0.0
  9
$USERR5
 40
0.0
  9
$WORLDVIEW
 70
     1
  9
$SHADEDGE
 70
     3
  9
$SHADEDIF
 70
    70
  9
$TILEMODE
 70
     1
  9
$MAXACTVP
 70
    64
  9
$PINSBASE
 10
0.0
 20
0.0
 30
0.0
  9
$PLIMCHECK
 70
     0
  9
$PEXTMIN
 10
1.000000000000000E+20
 20
1.000000000000000E+20
 30
1.000000000000000E+20
  9
$PEXTMAX
 10
-1.000000000000000E+20
 20
-1.000000000000000E+20
 30
-1.000000000000000E+20
  9
$PLIMMIN
 10
0.0
 20
0.0
  9
$PLIMMAX
 10
12.0
 20
9.0
  9
$UNITMODE
 70
     0
  9
$VISRETAIN
 70
     1
  9
$PLINEGEN
 70
     0
  9
$PSLTSCALE
 70
     1
  9
$TREEDEPTH
 70
  3020
  9
$CMLSTYLE
  2
Standard
  9
$CMLJUST
 70
     0
  9
$CMLSCALE
 40
1.0
  9
$PROXYGRAPHICS
 70
     1
  9
$MEASUREMENT
 70
     0
  9
$CELWEIGHT
370
    -1
  9
$ENDCAPS
280
     0
  9
$JOINSTYLE
280
     0
  9
$LWDISPLAY
290
     1
  9
$INSUNITS
 70
     4
  9
$HYPERLINKBASE
  1

  9
$STYLESHEET
  1

  9
$XEDIT
290
     1
  9
$CEPSNTYPE
380
     0
  9
$PSTYLEMODE
290
     1
  9
$FINGERPRINTGUID
  2
{9F7AD413-5B9B-BD47-AD6E-DCE4B3590D6A}
  9
$VERSIONGUID
  2
{6C66B95A-2447-764F-8C2C-3B002EFEDDA9}
  9
$EXTNAMES
290
     1
  9
$PSVPSCALE
 40
0.0
  9
$OLESTARTUP
290
     0
  9
$SORTENTS
280
   127
  9
$INDEXCTL
280
     0
  9
$HIDETEXT
280
     1
  9
$XCLIPFRAME
280
     2
  9
$HALOGAP
280
     0
  9
$OBSCOLOR
 70
   257
  9
$OBSLTYPE
280
     0
  9
$INTERSECTIONDISPLAY
280
     0
  9
$INTERSECTIONCOLOR
 70
   257
  9
$DIMASSOC
280
     2
  9
$PROJECTNAME
  1

  9
$CAMERADISPLAY
290
     0
  9
$LENSLENGTH
 40
50.0
  9
$CAMERAHEIGHT
 40
0.0
  9
$STEPSPERSEC
 40
2.0
  9
$STEPSIZE
 40
6.0
  9
$3DDWFPREC
 40
2.0
  9
$PSOLWIDTH
 40
0.25
  9
$PSOLHEIGHT
 40
4.0
  9
$LOFTANG1
 40
1.570796326794896
  9
$LOFTANG2
 40
1.570796326794896
  9
$LOFTMAG1
 40
0.0
  9
$LOFTMAG2
 40
0.0
  9
$LOFTPARAM
 70
     7
  9
$LOFTNORMALS
280
     1
  9
$LATITUDE
 40
37.795
  9
$LONGITUDE
 40
-122.394
  9
$NORTHDIRECTION
 40
0.0
  9
$TIMEZONE
 70
 -8000
  9
$LIGHTGLYPHDISPLAY
280
     1
  9
$TILEMODELIGHTSYNCH
280
     1
  9
$CMATERIAL
347
11
  9
$SOLIDHIST
280
     0
  9
$SHOWHIST
280
     1
  9
$DWFFRAME
280
     2
  9
$DGNFRAME
280
     0
  9
$REALWORLDSCALE
290
     1
  9
$INTERFERECOLOR
 62
     1
  9
$INTERFEREOBJVS
345
33
  9
$INTERFEREVPVS
346
30
  9
$CSHADOW
280
     0
  9
$SHADOWPLANELOCATION
 40
0.0
  0
ENDSEC
  0
SECTION
  2
CLASSES
  0
CLASS
  1
ACDBDICTIONARYWDFLT
  2
AcDbDictionaryWithDefault
  3
ObjectDBX Classes
 90
        0
 91
        1
280
     0
281
     0
  0
CLASS
  1
MATERIAL
  2
AcDbMaterial
  3
ObjectDBX Classes
 90
     1153
 91
        3
280
     0
281
     0
  0
CLASS
  1
VISUALSTYLE
  2
AcDbVisualStyle
  3
ObjectDBX Classes
 90
     4095
 91
       24
280
     0
281
     0
  0
CLASS
  1
SCALE
  2
AcDbScale
  3
ObjectDBX Classes
 90
     1153
 91
       17
280
     0
281
     0
  0
CLASS
  1
TABLESTYLE
  2
AcDbTableStyle
  3
ObjectDBX Classes
 90
     4095
 91
        1
280
     0
281
     0
  0
CLASS
  1
MLEADERSTYLE
  2
AcDbMLeaderStyle
  3
ACDB_MLEADERSTYLE_CLASS
 90
     4095
 91
        1
280
     0
281
     0
  0
CLASS
  1
ACDBSECTIONVIEWSTYLE
  2
AcDbSectionViewStyle
  3
ObjectDBX Classes
 90
     1025
 91
        1
280
     0
281
     0
  0
CLASS
  1
ACDBDETAILVIEWSTYLE
  2
AcDbDetailViewStyle
  3
ObjectDBX Classes
 90
     1025
 91
        1
280
     0
281
     0
  0
CLASS
  1
DICTIONARYVAR
  2
AcDbDictionaryVar
  3
ObjectDBX Classes
 90
        0
 91
        5
280
     0
281
     0
  0
CLASS
  1
CELLSTYLEMAP
  2
AcDbCellStyleMap
  3
ObjectDBX Classes
 90
     1152
 91
        1
280
     0
281
     0
  0
ENDSEC
  0
SECTION
  2
TABLES
  0
TABLE
  2
VPORT
  5
8
330
0
100
AcDbSymbolTable
 70
     1
1001
ACAD
1000
DbSaveVer
1071
      247
  0
VPORT
  5
57
330
8
100
AcDbSymbolTableRecord
100
AcDbViewportTableRecord
  2
*Active
 70
     0
 10
0.0
 20
0.0
 11
1.0
 21
1.0
 12
0.0
 22
0.0
 13
0.0
 23
0.0
 14
1.0
 24
1.0
 15
0.0
 25
0.0
 16
0.0
 26
0.0
 36
1.0
 17
-111.9583333053439
 27
3.302777776952218
 37
0.0
 40
214.1999999464498
 41
0.9999999999999998
 42
50.0
 43
0.0
 44
0.0
 50
0.0
 51
0.0
 71
     0
 72
   100
 73
     1
 74
     1
 75
     0
 76
     0
 77
     0
 78
     0
281
     0
 65
     1
110
0.0
120
0.0
130
0.0
111
1.0
121
0.0
131
0.0
112
0.0
122
1.0
132
0.0
 79
     0
146
0.0
 60
     3
 61
     5
292
     1
282
     1
141
0.0
142
0.0
 63
   250
421
  3355443
  0
ENDTAB
  0
TABLE
  2
LTYPE
  5
5
330
0
100
AcDbSymbolTable
 70
     1
  0
LTYPE
  5
5B
330
5
100
AcDbSymbolTableRecord
100
AcDbLinetypeTableRecord
  2
ByBlock
 70
     0
  3

 72
    65
 73
     0
 40
0.0
  0
LTYPE
  5
5C
330
5
100
AcDbSymbolTableRecord
100
AcDbLinetypeTableRecord
  2
ByLayer
 70
     0
  3

 72
    65
 73
     0
 40
0.0
  0
LTYPE
  5
5D
330
5
100
AcDbSymbolTableRecord
100
AcDbLinetypeTableRecord
  2
Continuous
 70
     0
  3
Solid line
 72
    65
 73
     0
 40
0.0
  0
ENDTAB
  0
TABLE
  2
LAYER
  5
2
330
0
100
AcDbSymbolTable
 70
     2
  0
LAYER
  5
54
330
2
100
AcDbSymbolTableRecord
100
AcDbLayerTableRecord
  2
0
 70
     0
 62
     7
  6
Continuous
370
    -3
390
F
347
21
348
0
  0
LAYER
  5
78
330
2
100
AcDbSymbolTableRecord
100
AcDbLayerTableRecord
  2
Layer 1
 70
     0
 62
     7
  6
Continuous
370
     0
390
F
347
21
348
0
  0
ENDTAB
  0
TABLE
  2
STYLE
  5
3
330
0
100
AcDbSymbolTable
 70
     2
  0
STYLE
  5
55
330
3
100
AcDbSymbolTableRecord
100
AcDbTextStyleTableRecord
  2
Standard
 70
     0
 40
0.0
 41
1.0
 50
0.0
 71
     0
 42
0.2
  3
txt
  4

  0
STYLE
  5
5A
330
3
100
AcDbSymbolTableRecord
100
AcDbTextStyleTableRecord
  2
Annotative
 70
     0
 40
0.0
 41
1.0
 50
0.0
 71
     0
 42
0.2
  3
txt
  4

1001
AcadAnnotative
1000
AnnotativeData
1002
{
1070
     1
1070
     1
1002
}
  0
ENDTAB
  0
TABLE
  2
VIEW
  5
6
330
0
100
AcDbSymbolTable
 70
     0
  0
ENDTAB
  0
TABLE
  2
UCS
  5
7
330
0
100
AcDbSymbolTable
 70
     0
  0
ENDTAB
  0
TABLE
  2
APPID
  5
9
330
0
100
AcDbSymbolTable
 70
     2
  0
APPID
  5
56
330
9
100
AcDbSymbolTableRecord
100
AcDbRegAppTableRecord
  2
ACAD
 70
     0
  0
APPID
  5
5E
330
9
100
AcDbSymbolTableRecord
100
AcDbRegAppTableRecord
  2
AcadAnnotative
 70
     0
  0
ENDTAB
  0
TABLE
  2
DIMSTYLE
  5
A
330
0
100
AcDbSymbolTable
 70
     2
100
AcDbDimStyleTable
 71
     0
  0
DIMSTYLE
105
58
330
A
100
AcDbSymbolTableRecord
100
AcDbDimStyleTableRecord
  2
Standard
 70
     0
340
55
  0
DIMSTYLE
105
59
330
A
100
AcDbSymbolTableRecord
100
AcDbDimStyleTableRecord
  2
Annotative
 70
     0
340
55
1001
AcadAnnotative
1000
AnnotativeData
1002
{
1070
     1
1070
     1
1002
}
  0
ENDTAB
  0
TABLE
  2
BLOCK_RECORD
  5
1
330
0
100
AcDbSymbolTable
 70
     1
  0
BLOCK_RECORD
  5
70
330
1
100
AcDbSymbolTableRecord
100
AcDbBlockTableRecord
  2
*Model_Space
340
73
 70
     0
280
     1
281
     0
  0
BLOCK_RECORD
  5
6C
330
1
100
AcDbSymbolTableRecord
100
AcDbBlockTableRecord
  2
*Paper_Space
340
6F
 70
     0
280
     1
281
     0
  0
BLOCK_RECORD
  5
74
330
1
100
AcDbSymbolTableRecord
100
AcDbBlockTableRecord
  2
*Paper_Space0
340
77
 70
     0
280
     1
281
     0
  0
ENDTAB
  0
ENDSEC
  0
SECTION
  2
BLOCKS
  0
BLOCK
  5
71
330
70
100
AcDbEntity
  8
0
100
AcDbBlockBegin
  2
*Model_Space
 70
     0
 10
0.0
 20
0.0
 30
0.0
  3
*Model_Space
  1

  0
ENDBLK
  5
72
330
70
100
AcDbEntity
  8
0
100
AcDbBlockEnd
  0
BLOCK
  5
6D
330
6C
100
AcDbEntity
 67
     1
  8
0
100
AcDbBlockBegin
  2
*Paper_Space
 70
     0
 10
0.0
 20
0.0
 30
0.0
  3
*Paper_Space
  1

  0
ENDBLK
  5
6E
330
6C
100
AcDbEntity
 67
     1
  8
0
100
AcDbBlockEnd
  0
BLOCK
  5
75
330
74
100
AcDbEntity
 67
     1
  8
0
100
AcDbBlockBegin
  2
*Paper_Space0
 70
     0
 10
0.0
 20
0.0
 30
0.0
  3
*Paper_Space0
  1

  0
ENDBLK
  5
76
330
74
100
AcDbEntity
 67
     1
  8
0
100
AcDbBlockEnd
  0
ENDSEC
  0
SECTION
  2
ENTITIES
  0
SPLINE
  5
79
330
70
100
AcDbEntity
  8
Layer 1
100
AcDbSpline
210
0.0
220
0.0
230
1.0
 70
     9
 71
     3
 72
   464
 73
   460
 74
     0
 42
0.0000000001
 43
0.0000000001
 40
0.0
 40
0.0
 40
0.0
 40
0.0
 40
1.0
 40
1.0
 40
1.0
 40
2.0
 40
2.0
 40
2.0
 40
3.0
 40
3.0
 40
3.0
 40
4.0
 40
4.0
 40
4.0
 40
5.0
 40
5.0
 40
5.0
 40
6.0
 40
6.0
 40
6.0
 40
7.0
 40
7.0
 40
7.0
 40
8.0
 40
8.0
 40
8.0
 40
9.0
 40
9.0
 40
9.0
 40
10.0
 40
10.0
 40
10.0
 40
11.0
 40
11.0
 40
11.0
 40
12.0
 40
12.0
 40
12.0
 40
13.0
 40
13.0
 40
13.0
 40
14.0
 40
14.0
 40
14.0
 40
15.0
 40
15.0
 40
15.0
 40
16.0
 40
16.0
 40
16.0
 40
17.0
 40
17.0
 40
17.0
 40
18.0
 40
18.0
 40
18.0
 40
19.0
 40
19.0
 40
19.0
 40
20.0
 40
20.0
 40
20.0
 40
21.0
 40
21.0
 40
21.0
 40
22.0
 40
22.0
 40
22.0
 40
23.0
 40
23.0
 40
23.0
 40
24.0
 40
24.0
 40
24.0
 40
25.0
 40
25.0
 40
25.0
 40
26.0
 40
26.0
 40
26.0
 40
27.0
 40
27.0
 40
27.0
 40
28.0
 40
28.0
 40
28.0
 40
29.0
 40
29.0
 40
29.0
 40
30.0
 40
30.0
 40
30.0
 40
31.0
 40
31.0
 40
31.0
 40
32.0
 40
32.0
 40
32.0
 40
33.0
 40
33.0
 40
33.0
 40
34.0
 40
34.0
 40
34.0
 40
35.0
 40
35.0
 40
35.0
 40
36.0
 40
36.0
 40
36.0
 40
37.0
 40
37.0
 40
37.0
 40
38.0
 40
38.0
 40
38.0
 40
39.0
 40
39.0
 40
39.0
 40
40.0
 40
40.0
 40
40.0
 40
41.0
 40
41.0
 40
41.0
 40
42.0
 40
42.0
 40
42.0
 40
43.0
 40
43.0
 40
43.0
 40
44.0
 40
44.0
 40
44.0
 40
45.0
 40
45.0
 40
45.0
 40
46.0
 40
46.0
 40
46.0
 40
47.0
 40
47.0
 40
47.0
 40
48.0
 40
48.0
 40
48.0
 40
49.0
 40
49.0
 40
49.0
 40
50.0
 40
50.0
 40
50.0
 40
51.0
 40
51.0
 40
51.0
 40
52.0
 40
52.0
 40
52.0
 40
53.0
 40
53.0
 40
53.0
 40
54.0
 40
54.0
 40
54.0
 40
55.0
 40
55.0
 40
55.0
 40
56.0
 40
56.0
 40
56.0
 40
57.0
 40
57.0
 40
57.0
 40
58.0
 40
58.0
 40
58.0
 40
59.0
 40
59.0
 40
59.0
 40
60.0
 40
60.0
 40
60.0
 40
61.0
 40
61.0
 40
61.0
 40
62.0
 40
62.0
 40
62.0
 40
63.0
 40
63.0
 40
63.0
 40
64.0
 40
64.0
 40
64.0
 40
65.0
 40
65.0
 40
65.0
 40
66.0
 40
66.0
 40
66.0
 40
67.0
 40
67.0
 40
67.0
 40
68.0
 40
68.0
 40
68.0
 40
69.0
 40
69.0
 40
69.0
 40
70.0
 40
70.0
 40
70.0
 40
71.0
 40
71.0
 40
71.0
 40
72.0
 40
72.0
 40
72.0
 40
73.0
 40
73.0
 40
73.0
 40
74.0
 40
74.0
 40
74.0
 40
75.0
 40
75.0
 40
75.0
 40
76.0
 40
76.0
 40
76.0
 40
77.0
 40
77.0
 40
77.0
 40
78.0
 40
78.0
 40
78.0
 40
79.0
 40
79.0
 40
79.0
 40
80.0
 40
80.0
 40
80.0
 40
81.0
 40
81.0
 40
81.0
 40
82.0
 40
82.0
 40
82.0
 40
83.0
 40
83.0
 40
83.0
 40
84.0
 40
84.0
 40
84.0
 40
85.0
 40
85.0
 40
85.0
 40
86.0
 40
86.0
 40
86.0
 40
87.0
 40
87.0
 40
87.0
 40
88.0
 40
88.0
 40
88.0
 40
89.0
 40
89.0
 40
89.0
 40
90.0
 40
90.0
 40
90.0
 40
91.0
 40
91.0
 40
91.0
 40
92.0
 40
92.0
 40
92.0
 40
93.0
 40
93.0
 40
93.0
 40
94.0
 40
94.0
 40
94.0
 40
95.0
 40
95.0
 40
95.0
 40
96.0
 40
96.0
 40
96.0
 40
97.0
 40
97.0
 40
97.0
 40
98.0
 40
98.0
 40
98.0
 40
99.0
 40
99.0
 40
99.0
 40
100.0
 40
100.0
 40
100.0
 40
101.0
 40
101.0
 40
101.0
 40
102.0
 40
102.0
 40
102.0
 40
103.0
 40
103.0
 40
103.0
 40
104.0
 40
104.0
 40
104.0
 40
105.0
 40
105.0
 40
105.0
 40
106.0
 40
106.0
 40
106.0
 40
107.0
 40
107.0
 40
107.0
 40
108.0
 40
108.0
 40
108.0
 40
109.0
 40
109.0
 40
109.0
 40
110.0
 40
110.0
 40
110.0
 40
111.0
 40
111.0
 40
111.0
 40
112.0
 40
112.0
 40
112.0
 40
113.0
 40
113.0
 40
113.0
 40
114.0
 40
114.0
 40
114.0
 40
115.0
 40
115.0
 40
115.0
 40
116.0
 40
116.0
 40
116.0
 40
117.0
 40
117.0
 40
117.0
 40
118.0
 40
118.0
 40
118.0
 40
119.0
 40
119.0
 40
119.0
 40
120.0
 40
120.0
 40
120.0
 40
121.0
 40
121.0
 40
121.0
 40
122.0
 40
122.0
 40
122.0
 40
123.0
 40
123.0
 40
123.0
 40
124.0
 40
124.0
 40
124.0
 40
125.0
 40
125.0
 40
125.0
 40
126.0
 40
126.0
 40
126.0
 40
127.0
 40
127.0
 40
127.0
 40
128.0
 40
128.0
 40
128.0
 40
129.0
 40
129.0
 40
129.0
 40
130.0
 40
130.0
 40
130.0
 40
131.0
 40
131.0
 40
131.0
 40
132.0
 40
132.0
 40
132.0
 40
133.0
 40
133.0
 40
133.0
 40
134.0
 40
134.0
 40
134.0
 40
135.0
 40
135.0
 40
135.0
 40
136.0
 40
136.0
 40
136.0
 40
137.0
 40
137.0
 40
137.0
 40
138.0
 40
138.0
 40
138.0
 40
139.0
 40
139.0
 40
139.0
 40
140.0
 40
140.0
 40
140.0
 40
141.0
 40
141.0
 40
141.0
 40
142.0
 40
142.0
 40
142.0
 40
143.0
 40
143.0
 40
143.0
 40
144.0
 40
144.0
 40
144.0
 40
145.0
 40
145.0
 40
145.0
 40
146.0
 40
146.0
 40
146.0
 40
147.0
 40
147.0
 40
147.0
 40
148.0
 40
148.0
 40
148.0
 40
149.0
 40
149.0
 40
149.0
 40
150.0
 40
150.0
 40
150.0
 40
151.0
 40
151.0
 40
151.0
 40
152.0
 40
152.0
 40
152.0
 40
153.0
 40
153.0
 40
153.0
 40
153.0
 10
-35.08444296256776
 20
-24.54492997474606
 30
0.0
 10
-35.4992312507072
 20
-26.10094410491942
 30
0.0
 10
-41.33585822505295
 20
-28.94963016660412
 30
0.0
 10
-45.23671112830982
 20
-29.1096043994396
 30
0.0
 10
-45.35484594640345
 20
-29.11452668351985
 30
0.0
 10
-45.49850795871571
 20
-29.11962067519503
 30
0.0
 10
-45.64858038751394
 20
-29.12471466687085
 30
0.0
 10
-48.36350624092042
 20
-29.21737952660782
 30
0.0
 10
-56.14672486417625
 20
-29.33963532672553
 30
0.0
 10
-63.52912074949264
 20
-29.33963532672553
 30
0.0
 10
-73.53211778849715
 20
-29.33963532672553
 30
0.0
 10
-75.41449080082744
 20
-29.11303855112441
 30
0.0
 10
-75.70135693855995
 20
-29.06467424817583
 30
0.0
 10
-77.52855458042569
 20
-28.6372368346536
 30
0.0
 10
-86.72475491601863
 20
-27.14961955894033
 30
0.0
 10
-97.41618489689443
 20
-25.49464462426606
 30
0.0
 10
-111.1875910556935
 20
-23.3628949634731
 30
0.0
 10
-127.4332462703791
 20
-20.95469609173177
 30
0.0
 10
-133.6182106976872
 20
-20.17548707356116
 30
0.0
 10
-134.8788877826294
 20
-20.01665755794988
 30
0.0
 10
-135.7282107311195
 20
-19.92445058510554
 30
0.0
 10
-136.0460414699145
 20
-19.9172388665666
 30
0.0
 10
-136.0460414699145
 20
-19.9172388665666
 30
0.0
 10
-136.1954843042361
 20
-19.91563626244014
 30
0.0
 10
-136.1954843042361
 20
-19.91563626244014
 30
0.0
 10
-138.2256403109053
 20
-19.91563626244014
 30
0.0
 10
-144.9291616432164
 20
-21.02709945650675
 30
0.0
 10
-154.9242601333369
 20
-22.72276908868903
 30
0.0
 10
-157.2134084131993
 20
-23.11111440882971
 30
0.0
 10
-159.6632177562346
 20
-23.5266467631627
 30
0.0
 10
-161.5652226690515
 20
-23.83680789652101
 30
0.0
 10
-161.0211958056905
 20
-23.01862125667804
 30
0.0
 10
-160.3044311123866
 20
-21.97738646464847
 30
0.0
 10
-159.5972820438095
 20
-21.05995284099918
 30
0.0
 10
-159.3118468026123
 20
-20.68963681722445
 30
0.0
 10
-159.0281858731231
 20
-20.33969676014339
 30
0.0
 10
-158.7582043145246
 20
-20.03302701433572
 30
0.0
 10
-158.4882799917882
 20
-19.72635726852677
 30
0.0
 10
-158.2321495116683
 20
-19.46295783400276
 30
0.0
 10
-158.0018896409376
 20
-19.26583752706289
 30
0.0
 10
-157.7716297702069
 20
-19.0687172201333
 30
0.0
 10
-157.5672405088643
 20
-18.93776156906773
 30
0.0
 10
-157.4008558595428
 20
-18.89609386191182
 30
0.0
 10
-157.3176349169537
 20
-18.87520277247317
 30
0.0
 10
-157.1678486674621
 20
-18.83416465979262
 30
0.0
 10
-156.9598535468474
 20
-18.77544066590839
 30
0.0
 10
-156.7519156620927
 20
-18.71671667203314
 30
0.0
 10
-156.4858261420755
 20
-18.64030679696254
 30
0.0
 10
-156.1702276018791
 20
-18.54884389031624
 30
0.0
 10
-155.6967725557232
 20
-18.41159229448674
 30
0.0
 10
-155.1118220514043
 20
-18.24039983280515
 30
0.0
 10
-154.4442801989717
 20
-18.04390912034258
 30
0.0
 10
-153.3316722876771
 20
-17.71640552096209
 30
0.0
 10
-151.9895485718498
 20
-17.3185590478238
 30
0.0
 10
-150.5515547880454
 20
-16.89049203981401
 30
0.0
 10
-150.2639445841129
 20
-16.80486719104222
 30
0.0
 10
-149.9724995774605
 20
-16.71804038917912
 30
0.0
 10
-149.6783072494567
 20
-16.63035504939722
 30
0.0
 10
-148.7957302654467
 20
-16.36718455831278
 30
0.0
 10
-147.8882556816934
 20
-16.09605828248111
 30
0.0
 10
-146.9847876082435
 20
-15.82556160113764
 30
0.0
 10
-142.1661576661667
 20
-14.38293171254562
 30
0.0
 10
-137.4609119656816
 20
-12.958846243087
 30
0.0
 10
-137.2490248064849
 20
-12.86595243990017
 30
0.0
 10
-137.0731390041594
 20
-12.78954256482765
 30
0.0
 10
-135.9372360972422
 20
-12.38499949589863
 30
0.0
 10
-134.7171392380886
 20
-11.93524009638695
 30
0.0
 10
-132.9980029026984
 20
-11.30152463808886
 30
0.0
 10
-131.1101352476674
 20
-10.57714757520706
 30
0.0
 10
-131.4912688492569
 20
-10.54721321965316
 30
0.0
 10
-131.5728299518647
 20
-10.54080280316655
 30
0.0
 10
-131.7800237704207
 20
-10.5244905826459
 30
0.0
 10
-132.0813705811078
 20
-10.50079493600165
 30
0.0
 10
-132.3827746276582
 20
-10.47709928934585
 30
0.0
 10
-132.778388902203
 20
-10.44602021655684
 30
0.0
 10
-133.236733680929
 20
-10.40996162383201
 30
0.0
 10
-133.7169997946002
 20
-10.37224319111552
 30
0.0
 10
-134.2678377254766
 20
-10.32885840811239
 30
0.0
 10
-134.8498119649975
 20
-10.28312695479373
 30
0.0
 10
-137.6008536469978
 20
-10.06677539839853
 30
0.0
 10
-141.0834841104253
 20
-9.792959037081372
 30
0.0
 10
-141.4863673393781
 20
-9.761307605689239
 30
0.0
 10
-141.4888857172834
 20
-9.761135898102656
 30
0.0
 10
-141.4919764538021
 20
-9.76102142637292
 30
0.0
 10
-141.4954106054921
 20
-9.76102142637292
 30
0.0
 10
-141.507945259156
 20
-9.76102142637292
 30
0.0
 10
-141.5458353994552
 20
-9.766859484247428
 30
0.0
 10
-141.5697027536918
 20
-9.769492333877346
 30
0.0
 10
-141.5944858817131
 20
-9.772182419362829
 30
0.0
 10
-141.6103402153417
 20
-9.772869249705951
 30
0.0
 10
-141.6470284025509
 20
-9.778363892407295
 30
0.0
 10
-141.6849757787115
 20
-9.784030242695219
 30
0.0
 10
-141.7429557063893
 20
-9.794275461901145
 30
0.0
 10
-141.7932087927692
 20
-9.802803605259851
 30
0.0
 10
-141.845465134299
 20
-9.811675163791083
 30
0.0
 10
-141.8900518703902
 20
-9.818657938888513
 30
0.0
 10
-141.9551862807541
 20
-9.830448526356356
 30
0.0
 10
-142.0057255464405
 20
-9.83966350004856
 30
0.0
 10
-142.0723480892023
 20
-9.852484333019857
 30
0.0
 10
-142.1303852527422
 20
-9.863416382568262
 30
0.0
 10
-142.2206462062946
 20
-9.880358197566849
 30
0.0
 10
-142.3073585364369
 20
-9.896441474636374
 30
0.0
 10
-142.41507642774
 20
-9.917447035804121
 30
0.0
 10
-142.4576026728192
 20
-9.925688999857417
 30
0.0
 10
-142.5105458446877
 20
-9.936334870090146
 30
0.0
 10
-142.5556477035335
 20
-9.945263664476298
 30
0.0
 10
-142.6969058096644
 20
-9.97308029315746
 30
0.0
 10
-142.8414835957607
 20
-10.00175545975742
 30
0.0
 10
-143.0074103581889
 20
-10.0352384387265
 30
0.0
 10
-143.0387183744181
 20
-10.04153438349172
 30
0.0
 10
-143.0761506278266
 20
-10.04931846065303
 30
0.0
 10
-143.1082599461152
 20
-10.05584334885911
 30
0.0
 10
-143.2990270724272
 20
-10.09453479121386
 30
0.0
 10
-143.4983223420967
 20
-10.1352294887315
 30
0.0
 10
-143.7176501632847
 20
-10.18050305515817
 30
0.0
 10
-143.7407162154613
 20
-10.18531086752794
 30
0.0
 10
-143.7672164193265
 20
-10.19080551022992
 30
0.0
 10
-143.7906258866718
 20
-10.19567055845397
 30
0.0
 10
-143.9843120419159
 20
-10.2357928973499
 30
0.0
 10
-144.1895598411819
 20
-10.27854808587638
 30
0.0
 10
-144.4031640762226
 20
-10.32324929369093
 30
0.0
 10
-149.483361905258
 20
-11.38692054342042
 30
0.0
 10
-159.9903779404496
 20
-13.7135583125495
 30
0.0
 10
-166.1893079179589
 20
-15.0925419231674
 30
0.0
 10
-166.3306804958131
 20
-15.12402164698321
 30
0.0
 10
-166.4660433082127
 20
-15.1541277101237
 30
0.0
 10
-166.602837017147
 20
-15.18457718842643
 30
0.0
 10
-167.3284160331195
 20
-15.346039553658
 30
0.0
 10
-167.9870863270228
 20
-15.49273506663084
 30
0.0
 10
-168.5627073859197
 20
-15.6210578680652
 30
0.0
 10
-168.6732298344354
 20
-15.6456692885037
 30
0.0
 10
-168.7813483767698
 20
-15.66970835032945
 30
0.0
 10
-168.8855748805228
 20
-15.69300334594753
 30
0.0
 10
-169.1870933987965
 20
-15.76019824732721
 30
0.0
 10
-169.4668622897064
 20
-15.82264257220167
 30
0.0
 10
-169.7118317768383
 20
-15.87730281991674
 30
0.0
 10
-170.355162859865
 20
-16.02085036050055
 30
0.0
 10
-170.7979967201297
 20
-16.11986840085766
 30
0.0
 10
-170.9792054575731
 20
-16.16033415492418
 30
0.0
 10
-171.0396465272956
 20
-16.1738418182386
 30
0.0
 10
-171.0709545435242
 20
-16.18082459333539
 30
0.0
 10
-171.0709545435242
 20
-16.18082459333539
 30
0.0
 10
-171.0709545435242
 20
-16.18082459333539
 30
0.0
 10
-174.9494854608045
 20
-14.07219822057521
 30
0.0
 10
-174.9494854608045
 20
-14.07219822057521
 30
0.0
 10
-174.4937162958452
 20
-12.18902390619323
 30
0.0
 10
-173.891194382053
 20
-10.21009399554147
 30
0.0
 10
-173.3275356182054
 20
-8.369617633820151
 30
0.0
 10
-172.7032640770506
 20
-6.33110519137498
 30
0.0
 10
-172.1114452693564
 20
-4.398708036106387
 30
0.0
 10
-171.7309412622428
 20
-2.669154773928206
 30
0.0
 10
-170.5829615885523
 20
-1.751950093729401
 30
0.0
 10
-166.0730046474339
 20
-0.8512865774927554
 30
0.0
 10
-162.1327734714785
 20
-0.7783680899599626
 30
0.0
 10
-162.1327734714785
 20
-0.7783680899599626
 30
0.0
 10
-160.5443066078447
 20
-0.7516389426474431
 30
0.0
 10
-160.5443066078447
 20
-0.7516389426474431
 30
0.0
 10
-160.5443066078447
 20
-0.7516389426474431
 30
0.0
 10
-159.4583133721386
 20
0.4079023750514165
 30
0.0
 10
-159.4583133721386
 20
0.4079023750514165
 30
0.0
 10
-159.4583133721386
 20
0.4079023750514165
 30
0.0
 10
-158.2542425541995
 20
1.693419823880662
 30
0.0
 10
-158.2542425541995
 20
1.693419823880662
 30
0.0
 10
-158.2542425541995
 20
1.693419823880662
 30
0.0
 10
-146.8106761176234
 20
-2.386409618226822
 30
0.0
 10
-146.8106761176234
 20
-2.386409618226822
 30
0.0
 10
-146.8106761176234
 20
-2.386409618226822
 30
0.0
 10
-135.2159497708816
 20
-3.298062419866795
 30
0.0
 10
-135.2159497708816
 20
-3.298062419866795
 30
0.0
 10
-135.2159497708816
 20
-3.298062419866795
 30
0.0
 10
-127.9064151372277
 20
-3.87276770497396
 30
0.0
 10
-127.9064151372277
 20
-3.87276770497396
 30
0.0
 10
-127.9064151372277
 20
-3.87276770497396
 30
0.0
 10
-127.9063579013657
 20
-3.87276770497396
 30
0.0
 10
-127.9063579013657
 20
-3.87276770497396
 30
0.0
 10
-127.9063579013657
 20
-3.87276770497396
 30
0.0
 10
-106.6548542417065
 20
-3.317007490018009
 30
0.0
 10
-106.6548542417065
 20
-3.317007490018009
 30
0.0
 10
-106.6548542417065
 20
-3.317007490018009
 30
0.0
 10
-106.592925039586
 20
-3.310768781108998
 30
0.0
 10
-106.4768507125057
 20
-3.298806486064839
 30
0.0
 10
-106.3607763854261
 20
-3.28684419101298
 30
0.0
 10
-106.1906141692479
 20
-3.269215545680896
 30
0.0
 10
-105.9743198487186
 20
-3.246321201089616
 30
0.0
 10
-105.3253796512665
 20
-3.177580931449302
 30
0.0
 10
-104.2608498636144
 20
-3.06185001953639
 30
0.0
 10
-102.9941630132175
 20
-2.912521656942624
 30
0.0
 10
-102.3607909700875
 20
-2.837828857708333
 30
0.0
 10
-101.6769368971329
 20
-2.754836858567107
 30
0.0
 10
-100.9691582340804
 20
-2.665033791902199
 30
0.0
 10
-100.2614368068898
 20
-2.57528796110248
 30
0.0
 10
-99.52979078960071
 20
-2.478731062789988
 30
0.0
 10
-98.80100656538687
 20
-2.377251880388256
 30
0.0
 10
-98.31518857315034
 20
-2.30959909211851
 30
0.0
 10
-97.83051529814382
 20
-2.23971410525399
 30
0.0
 10
-97.35505699683592
 20
-2.168054806676422
 30
0.0
 10
-96.40414039421882
 20
-2.024793445398026
 30
0.0
 10
-95.48979750708822
 20
-1.874549309010007
 30
0.0
 10
-94.67533119823867
 20
-1.721328907833021
 30
0.0
 10
-94.06445284867116
 20
-1.606456533847248
 30
0.0
 10
-93.50978011507551
 20
-1.489924319870462
 30
0.0
 10
-93.03792767303965
 20
-1.373392105903302
 30
0.0
 10
-92.72335937834991
 20
-1.295665806012289
 30
0.0
 10
-92.44565097845338
 20
-1.217996741985181
 30
0.0
 10
-92.21258655050943
 20
-1.140842800707554
 30
0.0
 10
-92.09611157239914
 20
-1.10226583007227
 30
0.0
 10
-91.99074035141547
 20
-1.063803331159021
 30
0.0
 10
-91.89756036892644
 20
-1.025512539829788
 30
0.0
 10
-91.8043803864387
 20
-0.987221748502481
 30
0.0
 10
-91.72344887830758
 20
-0.9491599006141109
 30
0.0
 10
-91.65556714659443
 20
-0.9113269961775124
 30
0.0
 10
-91.6046844657386
 20
-0.8829380088842475
 30
0.0
 10
-91.56118521101344
 20
-0.8547779650401873
 30
0.0
 10
-91.52552726931284
 20
-0.8266751570536158
 30
0.0
 10
-91.41849620834651
 20
-0.742481204812086
 30
0.0
 10
-91.38186525699994
 20
-0.6597753849749861
 30
0.0
 10
-91.42685264412184
 20
-0.5793589995972069
 30
0.0
 10
-91.4667460395737
 20
-0.507871408616489
 30
0.0
 10
-91.56839692956072
 20
-0.4281418535728482
 30
0.0
 10
-91.72379229347626
 20
-0.3414867592950406
 30
0.0
 10
-91.87924489325444
 20
-0.2548316650082492
 30
0.0
 10
-92.08849920282313
 20
-0.161193795633653
 30
0.0
 10
-92.34371390915773
 20
-0.0618895759704898
 30
0.0
 10
-92.72656458659323
 20
0.087038135606099
 30
0.0
 10
-93.21284046572172
 20
0.2486722084236069
 30
0.0
 10
-93.7759268709534
 20
0.4186054811493337
 30
0.0
 10
-93.96366049660549
 20
0.4752117481499225
 30
0.0
 10
-94.15986502975625
 20
0.5327910248016101
 30
0.0
 10
-94.36368193248428
 20
0.5911143676500581
 30
0.0
 10
-94.97507540480512
 20
0.7660271603302135
 30
0.0
 10
-95.65446508056373
 20
0.9477510205237834
 30
0.0
 10
-96.37535075589489
 20
1.131821551039937
 30
0.0
 10
-97.33651257771599
 20
1.377248925063187
 30
0.0
 10
-98.37139418912284
 20
1.626968988699027
 30
0.0
 10
-99.41697890662505
 20
1.870278635848256
 30
0.0
 10
-99.67837508600092
 20
1.931120356606513
 30
0.0
 10
-99.94045809571479
 20
1.991561426328982
 30
0.0
 10
-100.2021976902593
 20
2.051430137429082
 30
0.0
 10
-101.2492705401601
 20
2.290962217723544
 30
0.0
 10
-102.2912493983897
 20
2.521565503620945
 30
0.0
 10
-103.2654037607674
 20
2.732708596622142
 30
0.0
 10
-103.5089423513613
 20
2.785480060904701
 30
0.0
 10
-103.7481882523446
 20
2.837106807961128
 30
0.0
 10
-103.9822829257946
 20
2.887302658476389
 30
0.0
 10
-104.4503578009725
 20
2.987694359509478
 30
0.0
 10
-104.8975988225698
 20
3.082591417840583
 30
0.0
 10
-105.3159929699832
 20
3.170620172802068
 30
0.0
 10
-107.1988238692042
 20
3.56686404181389
 30
0.0
 10
-108.4987075192603
 20
3.824768833648105
 30
0.0
 10
-108.4987075192603
 20
3.824768833648105
 30
0.0
 10
-108.4987075192603
 20
3.824768833648105
 30
0.0
 10
-133.7262147682995
 20
2.746445203377424
 30
0.0
 10
-133.7262147682995
 20
2.746445203377424
 30
0.0
 10
-133.7262147682995
 20
2.746445203377424
 30
0.0
 10
-135.3018607989608
 20
2.966116439727703
 30
0.0
 10
-135.3018607989608
 20
2.966116439727703
 30
0.0
 10
-135.3018607989608
 20
2.966116439727703
 30
0.0
 10
-154.5491935330627
 20
5.649219154154183
 30
0.0
 10
-154.5491935330627
 20
5.649219154154183
 30
0.0
 10
-154.5491935330627
 20
5.649219154154183
 30
0.0
 10
-149.91989982076
 20
10.59170750047449
 30
0.0
 10
-149.91989982076
 20
10.59170750047449
 30
0.0
 10
-147.3087998200766
 20
10.58306488538541
 30
0.0
 10
-141.7904042355552
 20
10.55610679463266
 30
0.0
 10
-135.12889402557
 20
10.47483187133673
 30
0.0
 10
-133.0516329049055
 20
10.44947638470147
 30
0.0
 10
-130.8641927508902
 20
10.41874072708113
 30
0.0
 10
-128.6171700650763
 20
10.3816518888445
 30
0.0
 10
-128.6171700650763
 20
10.3816518888445
 30
0.0
 10
-129.9034315800997
 20
9.004385354072535
 30
0.0
 10
-129.9034315800997
 20
9.004385354072535
 30
0.0
 10
-129.9034315800997
 20
9.004385354072535
 30
0.0
 10
-129.9033743442397
 20
9.004385354072535
 30
0.0
 10
-129.9033743442397
 20
9.004385354072535
 30
0.0
 10
-129.9033743442397
 20
9.004385354072535
 30
0.0
 10
-129.9034315800997
 20
9.004328118207347
 30
0.0
 10
-129.9034315800997
 20
9.004328118207347
 30
0.0
 10
-129.9034315800997
 20
9.004328118207347
 30
0.0
 10
-125.5430891808876
 20
8.196844584463573
 30
0.0
 10
-125.5430891808876
 20
8.196844584463573
 30
0.0
 10
-125.5430891808876
 20
8.196844584463573
 30
0.0
 10
-96.61328023206417
 20
7.671018725051896
 30
0.0
 10
-96.61328023206417
 20
7.671018725051896
 30
0.0
 10
-96.61328023206417
 20
7.671018725051896
 30
0.0
 10
-90.56396479646172
 20
6.923919025164118
 30
0.0
 10
-90.56396479646172
 20
6.923919025164118
 30
0.0
 10
-87.45737394295245
 20
5.662669581603413
 30
0.0
 10
-84.93579082962337
 20
4.0701389718036
 30
0.0
 10
-82.15017868728912
 20
2.300348899001047
 30
0.0
 10
-80.75013227964472
 20
1.410789139898105
 30
0.0
 10
-79.31809102543372
 20
0.5041730940674826
 30
0.0
 10
-77.75412111051439
 20
-0.4015844138462697
 30
0.0
 10
-77.75412111051439
 20
-0.4015844138462697
 30
0.0
 10
-81.61216158938474
 20
-2.88149982001944
 30
0.0
 10
-81.61216158938474
 20
-2.88149982001944
 30
0.0
 10
-81.61216158938474
 20
-2.88149982001944
 30
0.0
 10
-105.724199134054
 20
-6.451128792890855
 30
0.0
 10
-105.724199134054
 20
-6.451128792890855
 30
0.0
 10
-105.724199134054
 20
-6.451128792890855
 30
0.0
 10
-104.0887416281449
 20
-7.892842907690547
 30
0.0
 10
-104.0887416281449
 20
-7.892842907690547
 30
0.0
 10
-104.0887416281449
 20
-7.892842907690547
 30
0.0
 10
-96.4828397037526
 20
-8.490843188426062
 30
0.0
 10
-96.4828397037526
 20
-8.490843188426062
 30
0.0
 10
-96.4828397037526
 20
-8.490843188426062
 30
0.0
 10
-80.86385993640371
 20
-6.657063422495478
 30
0.0
 10
-80.86385993640371
 20
-6.657063422495478
 30
0.0
 10
-80.86385993640371
 20
-6.657063422495478
 30
0.0
 10
-74.58720365900659
 20
-2.116657003069842
 30
0.0
 10
-74.58720365900659
 20
-2.116657003069842
 30
0.0
 10
-74.34772881457732
 20
-2.23725296320937
 30
0.0
 10
-74.11185982942136
 20
-2.358077866786553
 30
0.0
 10
-73.86465814369277
 20
-2.47821594003409
 30
0.0
 10
-70.86733054974651
 20
-3.93532650157045
 30
0.0
 10
-67.65101854978155
 20
-5.486017696636752
 30
0.0
 10
-64.42629287817993
 20
-7.006946243722262
 30
0.0
 10
-64.40626032666135
 20
-6.998704279668964
 30
0.0
 10
-64.38634224686738
 20
-6.990805730778565
 30
0.0
 10
-64.36630969534945
 20
-6.982735474309925
 30
0.0
 10
-64.38576988825207
 20
-6.990634023202249
 30
0.0
 10
-64.40523008115533
 20
-6.999734525173701
 30
0.0
 10
-64.42463303819725
 20
-7.007747545775226
 30
0.0
 10
-64.51546635036497
 20
-7.04495085574416
 30
0.0
 10
-64.60624242667008
 20
-7.084958722919326
 30
0.0
 10
-64.6970185029771
 20
-7.124508703193517
 30
0.0
 10
-64.78333018208687
 20
-7.162055428324064
 30
0.0
 10
-64.86964186119793
 20
-7.197427190725027
 30
0.0
 10
-64.95589630444701
 20
-7.236862699277823
 30
0.0
 10
-65.06573192262663
 20
-7.287058549794368
 30
0.0
 10
-65.17539583321969
 20
-7.341260910616167
 30
0.0
 10
-65.28511697967537
 20
-7.39431855421312
 30
0.0
 10
-65.3721727249851
 20
-7.436386912397119
 30
0.0
 10
-65.45928570615683
 20
-7.47662372301379
 30
0.0
 10
-65.54622697974391
 20
-7.52023744946805
 30
0.0
 10
-65.65806585307424
 20
-7.576385829578571
 30
0.0
 10
-65.7695040753752
 20
-7.635624946209721
 30
0.0
 10
-65.88111400525825
 20
-7.694062760779563
 30
0.0
 10
-65.96450665543398
 20
-7.737733723089386
 30
0.0
 10
-66.04812824905507
 20
-7.779916552993496
 30
0.0
 10
-66.13134919164614
 20
-7.824674996671961
 30
0.0
 10
-66.24822482078775
 20
-7.887519972574503
 30
0.0
 10
-66.36447085545078
 20
-7.952711618801555
 30
0.0
 10
-66.48094583356173
 20
-8.017330906414578
 30
0.0
 10
-66.55924449206485
 20
-8.06077292527263
 30
0.0
 10
-66.6378293298753
 20
-8.103184698627227
 30
0.0
 10
-66.71589904493306
 20
-8.147313547829686
 30
0.0
 10
-66.84193241191131
 20
-8.218514959514619
 30
0.0
 10
-66.96710724096563
 20
-8.291204503586016
 30
0.0
 10
-67.09251101346723
 20
-8.363779575947567
 30
0.0
 10
-67.15930526381369
 20
-8.402413782445474
 30
0.0
 10
-67.22638569346685
 20
-8.440303922748546
 30
0.0
 10
-67.29295100036795
 20
-8.479224308554428
 30
0.0
 10
-67.44485497673351
 20
-8.567939893839785
 30
0.0
 10
-67.59578594345502
 20
-8.657399545332809
 30
0.0
 10
-67.74643073086727
 20
-8.746744725105726
 30
0.0
 10
-67.78580900356451
 20
-8.770096956588357
 30
0.0
 10
-67.82553069143299
 20
-8.793334716352802
 30
0.0
 10
-67.86485172826759
 20
-8.816686947836076
 30
0.0
 10
-68.05355836356501
 20
-8.92892647219193
 30
0.0
 10
-68.24112028163373
 20
-9.040994288969542
 30
0.0
 10
-68.42742301074787
 20
-9.152089096098624
 30
0.0
 10
-68.50228751756232
 20
-9.19673306805698
 30
0.0
 10
-68.57589283542477
 20
-9.240175086916956
 30
0.0
 10
-68.65029945534852
 20
-9.284418407838883
 30
0.0
 10
-68.7645422348602
 20
-9.352357375416605
 30
0.0
 10
-68.87918566540254
 20
-9.420696994019849
 30
0.0
 10
-68.9923409635488
 20
-9.487376772641704
 30
0.0
 10
-69.07458889649326
 20
-9.535798311456751
 30
0.0
 10
-69.15534869704164
 20
-9.582044887531305
 30
0.0
 10
-69.2369670355101
 20
-9.629607888417288
 30
0.0
 10
-69.33936199169711
 20
-9.689247656084868
 30
0.0
 10
-69.44244377822016
 20
-9.750032140969594
 30
0.0
 10
-69.54386572476249
 20
-9.808012068656426
 30
0.0
 10
-69.62697219562895
 20
-9.855517833676579
 30
0.0
 10
-69.70836159065398
 20
-9.899932862185089
 30
0.0
 10
-69.79072399532305
 20
-9.946122202404078
 30
0.0
 10
-69.88825390328343
 20
-10.00078245011851
 30
0.0
 10
-69.98652787744186
 20
-10.05704530194914
 30
0.0
 10
-70.08291306817354
 20
-10.10953058692437
 30
0.0
 10
-70.26045871048168
 20
-10.20625919282152
 30
0.0
 10
-70.43605833350048
 20
-10.29909576014443
 30
0.0
 10
-70.60954022964395
 20
-10.38695280751035
 30
0.0
 10
-72.8926215081891
 20
-11.54363233214805
 30
0.0
 10
-75.16517138822289
 20
-12.72440815446707
 30
0.0
 10
-77.44052582546934
 20
-13.89860185271418
 30
0.0
 10
-77.99599986112565
 20
-14.18523904700328
 30
0.0
 10
-78.55227519884263
 20
-14.47033087302981
 30
0.0
 10
-79.10820712138967
 20
-14.75593782181481
 30
0.0
 10
-79.1189102274863
 20
-14.76143246451615
 30
0.0
 10
-79.1294988618609
 20
-14.76692710721814
 30
0.0
 10
-79.14020196795688
 20
-14.77242174992077
 30
0.0
 10
-79.14020196795688
 20
-14.77242174992077
 30
0.0
 10
-95.68691781402295
 20
-15.8792488392029
 30
0.0
 10
-95.68691781402295
 20
-15.8792488392029
 30
0.0
 10
-95.68691781402295
 20
-15.8792488392029
 30
0.0
 10
-97.16348856846515
 20
-15.97803793611979
 30
0.0
 10
-97.16348856846515
 20
-15.97803793611979
 30
0.0
 10
-97.16348856846515
 20
-15.97803793611979
 30
0.0
 10
-124.9761679729359
 20
-13.79128461244115
 30
0.0
 10
-124.9761679729359
 20
-13.79128461244115
 30
0.0
 10
-124.9761679729359
 20
-13.79128461244115
 30
0.0
 10
-96.47871872172657
 20
-21.62137940624177
 30
0.0
 10
-96.47871872172657
 20
-21.62137940624177
 30
0.0
 10
-96.47871872172657
 20
-21.62137940624177
 30
0.0
 10
-89.30832446733019
 20
-23.59155223008306
 30
0.0
 10
-89.30832446733019
 20
-23.59155223008306
 30
0.0
 10
-89.30832446733019
 20
-23.59155223008306
 30
0.0
 10
-63.87871739140823
 20
-21.6552058003821
 30
0.0
 10
-63.87871739140823
 20
-21.6552058003821
 30
0.0
 10
-63.87871739140823
 20
-21.6552058003821
 30
0.0
 10
-55.98949795269273
 20
-26.21123760998655
 30
0.0
 10
-55.98949795269273
 20
-26.21123760998655
 30
0.0
 10
-55.98949795269273
 20
-26.21123760998655
 30
0.0
 10
-53.74653901304352
 20
-25.61924709471084
 30
0.0
 10
-51.08816219077885
 20
-24.96675827384619
 30
0.0
 10
-50.73375773649861
 20
-24.87970252853324
 30
0.0
 10
-50.37196985608901
 20
-24.79167377357946
 30
0.0
 10
-50.0070340032968
 20
-24.70375949034771
 30
0.0
 10
-49.45974469583308
 20
-24.57188806550008
 30
0.0
 10
-48.90547261326744
 20
-24.44047452754381
 30
0.0
 10
-48.35904184372509
 20
-24.31369709437137
 30
0.0
 10
-48.17686009663632
 20
-24.27145702859244
 30
0.0
 10
-47.99565135919352
 20
-24.22973208557904
 30
0.0
 10
-47.81575904656406
 20
-24.18863673703459
 30
0.0
 10
-47.45757702542714
 20
-24.10684669098212
 30
0.0
 10
-47.10889615729553
 20
-24.02934933454159
 30
0.0
 10
-46.76662570564924
 20
-23.9543131201367
 30
0.0
 10
-45.98346741302957
 20
-23.78272000742959
 30
0.0
 10
-45.24878789508243
 20
-23.63041538002439
 30
0.0
 10
-44.61867829605702
 20
-23.51434105294923
 30
0.0
 10
-44.41772318640362
 20
-23.47730945057522
 30
0.0
 10
-44.22352190840357
 20
-23.4426817543723
 30
0.0
 10
-44.04511772817278
 20
-23.41331975744013
 30
0.0
 10
-43.67674772369254
 20
-23.35276421599755
 30
0.0
 10
-43.36006170212816
 20
-23.30960837643528
 30
0.0
 10
-43.10954033643422
 20
-23.2881449283826
 30
0.0
 10
-42.13223800167584
 20
-23.20555358026625
 30
0.0
 10
-41.51117166876311
 20
-22.39286158312655
 30
0.0
 10
-41.1164159321416
 20
-21.39518328167643
 30
0.0
 10
-40.99902518024729
 20
-21.09852981163318
 30
0.0
 10
-40.90429982949957
 20
-20.78482005486097
 30
0.0
 10
-40.82354002895248
 20
-20.46973663742433
 30
0.0
 10
-40.80573967603188
 20
-20.40019506572014
 30
0.0
 10
-40.78811103069659
 20
-20.33151203194694
 30
0.0
 10
-40.77185604603664
 20
-20.26191322438719
 30
0.0
 10
-40.69670535991355
 20
-19.93996150357259
 30
0.0
 10
-40.63592087502306
 20
-19.61886832066651
 30
0.0
 10
-40.59018942170119
 20
-19.31460248104726
 30
0.0
 10
-40.51669857556207
 20
-18.82615163918275
 30
0.0
 10
-40.47697688769424
 20
-18.38240200513923
 30
0.0
 10
-40.45488384516491
 20
-18.04184862933503
 30
0.0
 10
-40.44652740938829
 20
-17.91266728997353
 30
0.0
 10
-40.4404031722103
 20
-17.7977949159884
 30
0.0
 10
-40.43639666190697
 20
-17.70243997076594
 30
0.0
 10
-40.43593877501498
 20
-17.69156515708208
 30
0.0
 10
-40.43588153915364
 20
-17.68584157092961
 30
0.0
 10
-40.43548088812299
 20
-17.67542464414801
 30
0.0
 10
-37.08907177501512
 20
-20.02839090955253
 30
0.0
 10
-34.91874514358431
 20
-23.18466249082824
 30
0.0
 10
-35.08444296256776
 20
-24.54492997474606
 30
0.0
  0
SPLINE
  5
7A
330
70
100
AcDbEntity
  8
Layer 1
100
AcDbSpline
210
0.0
220
0.0
230
1.0
 70
     9
 71
     3
 72
    41
 73
    37
 74
     0
 42
0.0000000001
 43
0.0000000001
 40
0.0
 40
0.0
 40
0.0
 40
0.0
 40
1.0
 40
1.0
 40
1.0
 40
2.0
 40
2.0
 40
2.0
 40
3.0
 40
3.0
 40
3.0
 40
4.0
 40
4.0
 40
4.0
 40
5.0
 40
5.0
 40
5.0
 40
6.0
 40
6.0
 40
6.0
 40
7.0
 40
7.0
 40
7.0
 40
8.0
 40
8.0
 40
8.0
 40
9.0
 40
9.0
 40
9.0
 40
10.0
 40
10.0
 40
10.0
 40
11.0
 40
11.0
 40
11.0
 40
12.0
 40
12.0
 40
12.0
 40
12.0
 10
-114.8943571526756
 20
-39.95992113177903
 30
0.0
 10
-121.2721491973071
 20
-39.95992113177903
 30
0.0
 10
-126.0919238566125
 20
-37.2850603814052
 30
0.0
 10
-129.6332210780571
 20
-31.77948562985835
 30
0.0
 10
-130.7133190200319
 20
-30.10333342643938
 30
0.0
 10
-131.6363045222458
 20
-27.93787184323646
 30
0.0
 10
-132.4085307653228
 20
-25.31326417924373
 30
0.0
 10
-132.4085307653228
 20
-25.31326417924373
 30
0.0
 10
-132.7245299565499
 20
-24.0612297093855
 30
0.0
 10
-132.7245299565499
 20
-24.0612297093855
 30
0.0
 10
-130.7768508262731
 20
-24.3203364542982
 30
0.0
 10
-128.1244837694625
 20
-24.69362874286318
 30
0.0
 10
-125.0241316248558
 20
-25.14212895341898
 30
0.0
 10
-124.3092557149793
 20
-25.24549691925259
 30
0.0
 10
-123.5649605723041
 20
-25.35384440503293
 30
0.0
 10
-122.8057841056431
 20
-25.46476750457671
 30
0.0
 10
-120.2539804574522
 20
-25.83748743452894
 30
0.0
 10
-117.4755800336652
 20
-26.24872709926089
 30
0.0
 10
-114.5801322731533
 20
-26.68183086307169
 30
0.0
 10
-110.0718351720182
 20
-27.35624101887716
 30
0.0
 10
-105.293499276422
 20
-28.08141938382219
 30
0.0
 10
-100.7012944023578
 20
-28.7875382068959
 30
0.0
 10
-100.0279717279159
 20
-28.89107788030454
 30
0.0
 10
-99.36037263962191
 20
-28.99393072339187
 30
0.0
 10
-98.69649388232518
 20
-29.09644015129705
 30
0.0
 10
-98.68704996518122
 20
-29.09787104783758
 30
0.0
 10
-98.67783499148323
 20
-29.09935918023431
 30
0.0
 10
-98.66839107433861
 20
-29.10079007676585
 30
0.0
 10
-98.66839107433861
 20
-29.10079007676585
 30
0.0
 10
-98.66844831019868
 20
-29.1008473126304
 30
0.0
 10
-98.66844831019868
 20
-29.1008473126304
 30
0.0
 10
-98.67789222734266
 20
-29.09941641608924
 30
0.0
 10
-98.68704996518122
 20
-29.09792828369379
 30
0.0
 10
-98.69649388232518
 20
-29.09649738716353
 30
0.0
 10
-101.8322750251877
 20
-36.37186221151102
 30
0.0
 10
-107.1881779989702
 20
-39.95992113177903
 30
0.0
 10
-114.8943571526756
 20
-39.95992113177903
 30
0.0
  0
SPLINE
  5
7B
330
70
100
AcDbEntity
  8
Layer 1
100
AcDbSpline
210
0.0
220
0.0
230
1.0
 70
     9
 71
     3
 72
    41
 73
    37
 74
     0
 42
0.0000000001
 43
0.0000000001
 40
0.0
 40
0.0
 40
0.0
 40
0.0
 40
1.0
 40
1.0
 40
1.0
 40
2.0
 40
2.0
 40
2.0
 40
3.0
 40
3.0
 40
3.0
 40
4.0
 40
4.0
 40
4.0
 40
5.0
 40
5.0
 40
5.0
 40
6.0
 40
6.0
 40
6.0
 40
7.0
 40
7.0
 40
7.0
 40
8.0
 40
8.0
 40
8.0
 40
9.0
 40
9.0
 40
9.0
 40
10.0
 40
10.0
 40
10.0
 40
11.0
 40
11.0
 40
11.0
 40
12.0
 40
12.0
 40
12.0
 40
12.0
 10
-82.92412200621146
 20
45.81665990995808
 30
0.0
 10
-81.17419277734539
 20
45.97646243520698
 30
0.0
 10
-79.78433435304492
 20
47.3663780953643
 30
0.0
 10
-79.62447459193341
 20
49.1163073242323
 30
0.0
 10
-79.00512533486595
 20
55.89732601298777
 30
0.0
 10
-77.46983058654659
 20
60.78252126196438
 30
0.0
 10
-77.46983058654659
 20
60.78252126196438
 30
0.0
 10
-77.46983058654659
 20
60.78252126196438
 30
0.0
 10
-75.9345930740892
 20
55.89732601298777
 30
0.0
 10
-75.31518658116105
 20
49.1163073242323
 30
0.0
 10
-75.15538405591025
 20
47.3663780953643
 30
0.0
 10
-73.76552563160976
 20
45.97646243520698
 30
0.0
 10
-72.01553916688171
 20
45.81665990995808
 30
0.0
 10
-65.23452047812816
 20
45.19731065289128
 30
0.0
 10
-60.34932522915092
 20
43.66201590457191
 30
0.0
 10
-60.34932522915092
 20
43.66201590457191
 30
0.0
 10
-60.34932522915092
 20
43.66201590457191
 30
0.0
 10
-65.23452047812816
 20
42.12677839210683
 30
0.0
 10
-72.01553916688171
 20
41.50737189917676
 30
0.0
 10
-73.76552563160976
 20
41.34756937392658
 30
0.0
 10
-75.15538405591025
 20
39.9576537137699
 30
0.0
 10
-75.31518658116105
 20
38.20772448490127
 30
0.0
 10
-75.9345930740892
 20
31.42670579614643
 30
0.0
 10
-77.46983058654659
 20
26.54151054716983
 30
0.0
 10
-77.46983058654659
 20
26.54151054716983
 30
0.0
 10
-77.46983058654659
 20
26.54151054716983
 30
0.0
 10
-79.00512533486595
 20
31.42670579614643
 30
0.0
 10
-79.62447459193341
 20
38.20772448490127
 30
0.0
 10
-79.78433435304492
 20
39.9576537137699
 30
0.0
 10
-81.17419277734539
 20
41.34756937392658
 30
0.0
 10
-82.92412200621146
 20
41.50737189917676
 30
0.0
 10
-89.70519793082635
 20
42.12677839210683
 30
0.0
 10
-94.5903931798036
 20
43.66201590457191
 30
0.0
 10
-94.5903931798036
 20
43.66201590457191
 30
0.0
 10
-94.5903931798036
 20
43.66201590457191
 30
0.0
 10
-89.70519793082635
 20
45.19731065289128
 30
0.0
 10
-82.92412200621146
 20
45.81665990995808
 30
0.0
  0
SPLINE
  5
7C
330
70
100
AcDbEntity
  8
Layer 1
100
AcDbSpline
210
0.0
220
0.0
230
1.0
 70
     9
 71
     3
 72
   179
 73
   175
 74
     0
 42
0.0000000001
 43
0.0000000001
 40
0.0
 40
0.0
 40
0.0
 40
0.0
 40
1.0
 40
1.0
 40
1.0
 40
2.0
 40
2.0
 40
2.0
 40
3.0
 40
3.0
 40
3.0
 40
4.0
 40
4.0
 40
4.0
 40
5.0
 40
5.0
 40
5.0
 40
6.0
 40
6.0
 40
6.0
 40
7.0
 40
7.0
 40
7.0
 40
8.0
 40
8.0
 40
8.0
 40
9.0
 40
9.0
 40
9.0
 40
10.0
 40
10.0
 40
10.0
 40
11.0
 40
11.0
 40
11.0
 40
12.0
 40
12.0
 40
12.0
 40
13.0
 40
13.0
 40
13.0
 40
14.0
 40
14.0
 40
14.0
 40
15.0
 40
15.0
 40
15.0
 40
16.0
 40
16.0
 40
16.0
 40
17.0
 40
17.0
 40
17.0
 40
18.0
 40
18.0
 40
18.0
 40
19.0
 40
19.0
 40
19.0
 40
20.0
 40
20.0
 40
20.0
 40
21.0
 40
21.0
 40
21.0
 40
22.0
 40
22.0
 40
22.0
 40
23.0
 40
23.0
 40
23.0
 40
24.0
 40
24.0
 40
24.0
 40
25.0
 40
25.0
 40
25.0
 40
26.0
 40
26.0
 40
26.0
 40
27.0
 40
27.0
 40
27.0
 40
28.0
 40
28.0
 40
28.0
 40
29.0
 40
29.0
 40
29.0
 40
30.0
 40
30.0
 40
30.0
 40
31.0
 40
31.0
 40
31.0
 40
32.0
 40
32.0
 40
32.0
 40
33.0
 40
33.0
 40
33.0
 40
34.0
 40
34.0
 40
34.0
 40
35.0
 40
35.0
 40
35.0
 40
36.0
 40
36.0
 40
36.0
 40
37.0
 40
37.0
 40
37.0
 40
38.0
 40
38.0
 40
38.0
 40
39.0
 40
39.0
 40
39.0
 40
40.0
 40
40.0
 40
40.0
 40
41.0
 40
41.0
 40
41.0
 40
42.0
 40
42.0
 40
42.0
 40
43.0
 40
43.0
 40
43.0
 40
44.0
 40
44.0
 40
44.0
 40
45.0
 40
45.0
 40
45.0
 40
46.0
 40
46.0
 40
46.0
 40
47.0
 40
47.0
 40
47.0
 40
48.0
 40
48.0
 40
48.0
 40
49.0
 40
49.0
 40
49.0
 40
50.0
 40
50.0
 40
50.0
 40
51.0
 40
51.0
 40
51.0
 40
52.0
 40
52.0
 40
52.0
 40
53.0
 40
53.0
 40
53.0
 40
54.0
 40
54.0
 40
54.0
 40
55.0
 40
55.0
 40
55.0
 40
56.0
 40
56.0
 40
56.0
 40
57.0
 40
57.0
 40
57.0
 40
58.0
 40
58.0
 40
58.0
 40
58.0
 10
-33.23143194717542
 20
-19.55951473231461
 30
0.0
 10
-33.67644077017738
 20
-18.92631439677306
 30
0.0
 10
-34.18858725869319
 20
-18.29712057152842
 30
0.0
 10
-34.75590911767547
 20
-17.68458238198401
 30
0.0
 10
-35.03957004716726
 20
-17.3783132872025
 30
0.0
 10
-35.33696758341304
 20
-17.07622241031284
 30
0.0
 10
-35.64667082987679
 20
-16.77985511957628
 30
0.0
 10
-36.18863720222446
 20
-16.26124097871316
 30
0.0
 10
-36.76815029970204
 20
-15.76031271904668
 30
0.0
 10
-37.37719710170158
 20
-15.28542677635088
 30
0.0
 10
-37.83393927630747
 20
-14.92930524623305
 30
0.0
 10
-38.30733708660206
 20
-14.58783609664551
 30
0.0
 10
-38.79389914503661
 20
-14.26468242273253
 30
0.0
 10
-40.25358532034283
 20
-13.29522140099872
 30
0.0
 10
-41.83180696477013
 20
-12.49031348101967
 30
0.0
 10
-43.43675775650995
 20
-11.94697344798896
 30
0.0
 10
-44.04820846469276
 20
-11.74006580874479
 30
0.0
 10
-44.70229988967746
 20
-11.5056849559907
 30
0.0
 10
-45.39451039840802
 20
-11.24634926762751
 30
0.0
 10
-46.08677814299928
 20
-10.98707081512887
 30
0.0
 10
-46.81716497133702
 20
-10.70283752702113
 30
0.0
 10
-47.58143542966939
 20
-10.39633948879812
 30
0.0
 10
-48.09094906855721
 20
-10.19200746331932
 30
0.0
 10
-48.61545850315232
 20
-9.977773633796854
 30
0.0
 10
-49.15370454450335
 20
-9.754439302311919
 30
0.0
 10
-50.76849990441779
 20
-9.084321836108125
 30
0.0
 10
-52.50686748926458
 20
-8.332070908689603
 30
0.0
 10
-54.33389342354438
 20
-7.518520373622116
 30
0.0
 10
-55.55187255582334
 20
-6.976096114384376
 30
0.0
 10
-56.80934443252223
 20
-6.406484820941484
 30
0.0
 10
-58.09572041926706
 20
-5.815810730476564
 30
0.0
 10
-62.59817946253214
 20
-3.748394177980306
 30
0.0
 10
-67.45601596972149
 20
-1.422958361941913
 30
0.0
 10
-72.22462176886574
 20
0.8952657355492018
 30
0.0
 10
-72.8913050833751
 20
1.219277947381619
 30
0.0
 10
-73.52954217473177
 20
1.54741114124967
 30
0.0
 10
-74.14574345941661
 20
1.878005477153356
 30
0.0
 10
-74.78890283485931
 20
2.223023250146463
 30
0.0
 10
-75.40808038434082
 20
2.570731108634036
 30
0.0
 10
-76.00745432575232
 20
2.919583684347098
 30
0.0
 10
-76.59435084935926
 20
3.261167305655395
 30
0.0
 10
-77.16298913315618
 20
3.603723936612224
 30
0.0
 10
-77.7189210557045
 20
3.945708208946682
 30
0.0
 10
-77.99691563490964
 20
4.11667172718613
 30
0.0
 10
-78.27159053414816
 20
4.287578009560389
 30
0.0
 10
-78.54386152720532
 20
4.458026405054206
 30
0.0
 10
-79.63283102770873
 20
5.13999169457948
 30
0.0
 10
-80.68156371759355
 20
5.816347869673675
 30
0.0
 10
-81.73321543641241
 20
6.474274097382821
 30
0.0
 10
-82.7849243910939
 20
7.132143089219719
 30
0.0
 10
-83.83955237471068
 20
7.771639369525207
 30
0.0
 10
-84.94048417026339
 20
8.379770397745895
 30
0.0
 10
-85.49097868597106
 20
8.683807293923003
 30
0.0
 10
-86.05297760983665
 20
8.98011734880592
 30
0.0
 10
-86.63197558456026
 20
9.266869014813842
 30
0.0
 10
-87.50047254664632
 20
9.697053749686102
 30
0.0
 10
-88.40714582833893
 20
10.10594674409547
 30
0.0
 10
-89.37031090531071
 20
10.48822506292077
 30
0.0
 10
-89.69140408821038
 20
10.61563209057051
 30
0.0
 10
-90.01867874414871
 20
10.74006285342935
 30
0.0
 10
-90.35293617518707
 20
10.861402879765
 30
0.0
 10
-91.0214510372644
 20
11.10396846071682
 30
0.0
 10
-91.71778252802097
 20
11.33394215213822
 30
0.0
 10
-92.44731081843543
 20
11.54960687819222
 30
0.0
 10
-92.81207496364361
 20
11.65743924121538
 30
0.0
 10
-93.18519554462715
 20
11.76172298083169
 30
0.0
 10
-93.56718768413934
 20
11.86222915359323
 30
0.0
 10
-94.71333581026057
 20
12.16374767186117
 30
0.0
 10
-95.94024373693082
 20
12.43132532427958
 30
0.0
 10
-97.26622693981889
 20
12.65958193985248
 30
0.0
 10
-97.81872471067854
 20
12.75470794163407
 30
0.0
 10
-98.38845047584284
 20
12.8429656400377
 30
0.0
 10
-98.97660618840371
 20
12.92401161989149
 30
0.0
 10
-100.741187797809
 20
13.16720679532125
 30
0.0
 10
-102.6724402358425
 20
13.34532479624535
 30
0.0
 10
-104.8060214442035
 20
13.44789146001508
 30
0.0
 10
-106.7971425933434
 20
13.54381876384964
 30
0.0
 10
-108.9118359674177
 20
13.62944361262207
 30
0.0
 10
-111.0992188855704
 20
13.70602519527989
 30
0.0
 10
-113.2866018037231
 20
13.78254954208023
 30
0.0
 10
-115.5466170300911
 20
13.84997338690077
 30
0.0
 10
-117.8285535914081
 20
13.90932697525395
 30
0.0
 10
-119.7844746857389
 20
13.96020965611234
 30
0.0
 10
-121.7564218212829
 20
14.00519704323295
 30
0.0
 10
-123.7124573873351
 20
14.04491873110206
 30
0.0
 10
-125.3424202505415
 20
14.07805829489927
 30
0.0
 10
-126.9613938283439
 20
14.10753476356246
 30
0.0
 10
-128.5507192298991
 20
14.13380602398299
 30
0.0
 10
-130.1400446314556
 20
14.16007728439261
 30
0.0
 10
-131.6997218567649
 20
14.18308610071555
 30
0.0
 10
-133.2112637225691
 20
14.20323312395552
 30
0.0
 10
-133.780588836704
 20
14.21084549353088
 30
0.0
 10
-134.3417292226463
 20
14.2179427403497
 30
0.0
 10
-134.8964019562413
 20
14.22481104372831
 30
0.0
 10
-133.237363275405
 20
36.16594959835723
 30
0.0
 10
-126.4534827935768
 20
47.2804670672839
 30
0.0
 10
-114.6555691385818
 20
47.2804670672839
 30
0.0
 10
-109.8766036485121
 20
47.2804670672839
 30
0.0
 10
-105.7965452629644
 20
45.2389783600472
 30
0.0
 10
-102.179524996782
 20
41.03809507091268
 30
0.0
 10
-98.5013768305418
 20
36.76148873704941
 30
0.0
 10
-96.63462920839611
 20
29.46488940808818
 30
0.0
 10
-96.63462920839611
 20
19.35360211916018
 30
0.0
 10
-96.63462920839611
 20
19.35360211916018
 30
0.0
 10
-96.63462920839611
 20
16.20688892675626
 30
0.0
 10
-96.63462920839611
 20
16.20688892675626
 30
0.0
 10
-96.63462920839611
 20
16.20688892675626
 30
0.0
 10
-43.7862971625642
 20
19.04487188234304
 30
0.0
 10
-43.7862971625642
 20
19.04487188234304
 30
0.0
 10
-43.7862971625642
 20
19.04487188234304
 30
0.0
 10
-44.01924711878547
 20
22.08672897651599
 30
0.0
 10
-44.01924711878547
 20
22.08672897651599
 30
0.0
 10
-45.5773217399728
 20
42.43888554475386
 30
0.0
 10
-52.46474189521668
 20
59.04157806334644
 30
0.0
 10
-64.48352873965845
 20
71.4331420736082
 30
0.0
 10
-76.58971474457928
 20
83.91204800848127
 30
0.0
 10
-94.03108434142797
 20
90.24033103293096
 30
0.0
 10
-116.327199708946
 20
90.24033103293096
 30
0.0
 10
-140.2279224530333
 20
90.24033103293096
 30
0.0
 10
-159.1487245973975
 20
81.96373928372716
 30
0.0
 10
-172.5712209446196
 20
65.6421320808533
 30
0.0
 10
-185.8510282891722
 20
49.49377783068912
 30
0.0
 10
-192.5841405618673
 20
28.05826087637378
 30
0.0
 10
-192.5841405618673
 20
1.92968946006663
 30
0.0
 10
-192.5841405618673
 20
-24.50761219305766
 30
0.0
 10
-185.4491180698641
 20
-45.58786615517397
 30
0.0
 10
-171.3801426672352
 20
-60.72417590266701
 30
0.0
 10
-157.2528439217592
 20
-75.92607794741647
 30
0.0
 10
-138.4893259247398
 20
-83.63477547902652
 30
0.0
 10
-115.6107784308102
 20
-83.63477547902652
 30
0.0
 10
-96.5938772750229
 20
-83.63477547902652
 30
0.0
 10
-80.30867208005536
 20
-78.01707567483815
 30
0.0
 10
-67.20646761367223
 20
-66.93890297794557
 30
0.0
 10
-57.15974237649785
 20
-58.44464324753321
 30
0.0
 10
-50.24645161186602
 20
-47.026146118285
 30
0.0
 10
-46.54540910103191
 20
-32.90365518517614
 30
0.0
 10
-46.54180324175988
 20
-32.90354071344577
 30
0.0
 10
-46.53825461834855
 20
-32.90348347759084
 30
0.0
 10
-46.53464875907459
 20
-32.90336900587009
 30
0.0
 10
-46.41845996027096
 20
-32.90033550520246
 30
0.0
 10
-46.29740611324328
 20
-32.89724476868953
 30
0.0
 10
-46.1897454578003
 20
-32.89421126803345
 30
0.0
 10
-46.04442360550473
 20
-32.890147521863
 30
0.0
 10
-45.91455543580845
 20
-32.88608377570091
 30
0.0
 10
-45.7854313323115
 20
-32.88207726539436
 30
0.0
 10
-45.71983903505572
 20
-32.88001677438617
 30
0.0
 10
-45.6461192454706
 20
-32.87795628336836
 30
0.0
 10
-45.58487687368811
 20
-32.87589579235952
 30
0.0
 10
-45.3961702383907
 20
-32.86965708345051
 30
0.0
 10
-45.22635143738122
 20
-32.86347561041503
 30
0.0
 10
-45.08085787750164
 20
-32.85740860910094
 30
0.0
 10
-44.25185365983614
 20
-32.82341050737596
 30
0.0
 10
-43.27014416374378
 20
-32.67940507989695
 30
0.0
 10
-42.21872138837027
 20
-32.43924340512648
 30
0.0
 10
-41.51775379283374
 20
-32.27909746471404
 30
0.0
 10
-40.78582159623855
 20
-32.07625357163133
 30
0.0
 10
-40.04742174729414
 20
-31.83471823618424
 30
0.0
 10
-38.57056481354462
 20
-31.35164756530033
 30
0.0
 10
-37.0680089779918
 20
-30.71398283256089
 30
0.0
 10
-35.73607324550784
 20
-29.95440571487306
 30
0.0
 10
-35.07013399719717
 20
-29.57458853809237
 30
0.0
 10
-34.44683546568838
 20
-29.16437911887414
 30
0.0
 10
-33.89078907141739
 20
-28.72772673165008
 30
0.0
 10
-33.61279449221225
 20
-28.50937192010097
 30
0.0
 10
-33.35151278455969
 20
-28.28449222035539
 30
0.0
 10
-33.11020639256373
 20
-28.05348828341964
 30
0.0
 10
-32.62753637270919
 20
-27.59148040955968
 30
0.0
 10
-32.22442420030978
 20
-27.10509005871107
 30
0.0
 10
-31.92536682408133
 20
-26.59855268462185
 30
0.0
 10
-31.62630944785223
 20
-26.09195807466808
 30
0.0
 10
-31.43130686779216
 20
-25.56515920560852
 30
0.0
 10
-31.36497050433769
 20
-25.02216258775803
 30
0.0
 10
-31.16567523466696
 20
-23.39420297970361
 30
0.0
 10
-31.89634824231205
 20
-21.45900126722815
 30
0.0
 10
-33.23143194717542
 20
-19.55951473231461
 30
0.0
  0
HATCH
  5
7D
330
70
100
AcDbEntity
  8
Layer 1
 62
     7
440
 33554687
100
AcDbHatch
 10
0.0
 20
0.0
 30
0.0
210
0.0
220
0.0
230
1.0
  2
SOLID
 70
     1
 71
     1
 91
        4
 92
        1
 93
        1
 72
     4
 94
        3
 73
     0
 74
     0
 95
      464
 96
      460
 40
0.0
 40
0.0
 40
0.0
 40
0.0
 40
1.0
 40
1.0
 40
1.0
 40
2.0
 40
2.0
 40
2.0
 40
3.0
 40
3.0
 40
3.0
 40
4.0
 40
4.0
 40
4.0
 40
5.0
 40
5.0
 40
5.0
 40
6.0
 40
6.0
 40
6.0
 40
7.0
 40
7.0
 40
7.0
 40
8.0
 40
8.0
 40
8.0
 40
9.0
 40
9.0
 40
9.0
 40
10.0
 40
10.0
 40
10.0
 40
11.0
 40
11.0
 40
11.0
 40
12.0
 40
12.0
 40
12.0
 40
13.0
 40
13.0
 40
13.0
 40
14.0
 40
14.0
 40
14.0
 40
15.0
 40
15.0
 40
15.0
 40
16.0
 40
16.0
 40
16.0
 40
17.0
 40
17.0
 40
17.0
 40
18.0
 40
18.0
 40
18.0
 40
19.0
 40
19.0
 40
19.0
 40
20.0
 40
20.0
 40
20.0
 40
21.0
 40
21.0
 40
21.0
 40
22.0
 40
22.0
 40
22.0
 40
23.0
 40
23.0
 40
23.0
 40
24.0
 40
24.0
 40
24.0
 40
25.0
 40
25.0
 40
25.0
 40
26.0
 40
26.0
 40
26.0
 40
27.0
 40
27.0
 40
27.0
 40
28.0
 40
28.0
 40
28.0
 40
29.0
 40
29.0
 40
29.0
 40
30.0
 40
30.0
 40
30.0
 40
31.0
 40
31.0
 40
31.0
 40
32.0
 40
32.0
 40
32.0
 40
33.0
 40
33.0
 40
33.0
 40
34.0
 40
34.0
 40
34.0
 40
35.0
 40
35.0
 40
35.0
 40
36.0
 40
36.0
 40
36.0
 40
37.0
 40
37.0
 40
37.0
 40
38.0
 40
38.0
 40
38.0
 40
39.0
 40
39.0
 40
39.0
 40
40.0
 40
40.0
 40
40.0
 40
41.0
 40
41.0
 40
41.0
 40
42.0
 40
42.0
 40
42.0
 40
43.0
 40
43.0
 40
43.0
 40
44.0
 40
44.0
 40
44.0
 40
45.0
 40
45.0
 40
45.0
 40
46.0
 40
46.0
 40
46.0
 40
47.0
 40
47.0
 40
47.0
 40
48.0
 40
48.0
 40
48.0
 40
49.0
 40
49.0
 40
49.0
 40
50.0
 40
50.0
 40
50.0
 40
51.0
 40
51.0
 40
51.0
 40
52.0
 40
52.0
 40
52.0
 40
53.0
 40
53.0
 40
53.0
 40
54.0
 40
54.0
 40
54.0
 40
55.0
 40
55.0
 40
55.0
 40
56.0
 40
56.0
 40
56.0
 40
57.0
 40
57.0
 40
57.0
 40
58.0
 40
58.0
 40
58.0
 40
59.0
 40
59.0
 40
59.0
 40
60.0
 40
60.0
 40
60.0
 40
61.0
 40
61.0
 40
61.0
 40
62.0
 40
62.0
 40
62.0
 40
63.0
 40
63.0
 40
63.0
 40
64.0
 40
64.0
 40
64.0
 40
65.0
 40
65.0
 40
65.0
 40
66.0
 40
66.0
 40
66.0
 40
67.0
 40
67.0
 40
67.0
 40
68.0
 40
68.0
 40
68.0
 40
69.0
 40
69.0
 40
69.0
 40
70.0
 40
70.0
 40
70.0
 40
71.0
 40
71.0
 40
71.0
 40
72.0
 40
72.0
 40
72.0
 40
73.0
 40
73.0
 40
73.0
 40
74.0
 40
74.0
 40
74.0
 40
75.0
 40
75.0
 40
75.0
 40
76.0
 40
76.0
 40
76.0
 40
77.0
 40
77.0
 40
77.0
 40
78.0
 40
78.0
 40
78.0
 40
79.0
 40
79.0
 40
79.0
 40
80.0
 40
80.0
 40
80.0
 40
81.0
 40
81.0
 40
81.0
 40
82.0
 40
82.0
 40
82.0
 40
83.0
 40
83.0
 40
83.0
 40
84.0
 40
84.0
 40
84.0
 40
85.0
 40
85.0
 40
85.0
 40
86.0
 40
86.0
 40
86.0
 40
87.0
 40
87.0
 40
87.0
 40
88.0
 40
88.0
 40
88.0
 40
89.0
 40
89.0
 40
89.0
 40
90.0
 40
90.0
 40
90.0
 40
91.0
 40
91.0
 40
91.0
 40
92.0
 40
92.0
 40
92.0
 40
93.0
 40
93.0
 40
93.0
 40
94.0
 40
94.0
 40
94.0
 40
95.0
 40
95.0
 40
95.0
 40
96.0
 40
96.0
 40
96.0
 40
97.0
 40
97.0
 40
97.0
 40
98.0
 40
98.0
 40
98.0
 40
99.0
 40
99.0
 40
99.0
 40
100.0
 40
100.0
 40
100.0
 40
101.0
 40
101.0
 40
101.0
 40
102.0
 40
102.0
 40
102.0
 40
103.0
 40
103.0
 40
103.0
 40
104.0
 40
104.0
 40
104.0
 40
105.0
 40
105.0
 40
105.0
 40
106.0
 40
106.0
 40
106.0
 40
107.0
 40
107.0
 40
107.0
 40
108.0
 40
108.0
 40
108.0
 40
109.0
 40
109.0
 40
109.0
 40
110.0
 40
110.0
 40
110.0
 40
111.0
 40
111.0
 40
111.0
 40
112.0
 40
112.0
 40
112.0
 40
113.0
 40
113.0
 40
113.0
 40
114.0
 40
114.0
 40
114.0
 40
115.0
 40
115.0
 40
115.0
 40
116.0
 40
116.0
 40
116.0
 40
117.0
 40
117.0
 40
117.0
 40
118.0
 40
118.0
 40
118.0
 40
119.0
 40
119.0
 40
119.0
 40
120.0
 40
120.0
 40
120.0
 40
121.0
 40
121.0
 40
121.0
 40
122.0
 40
122.0
 40
122.0
 40
123.0
 40
123.0
 40
123.0
 40
124.0
 40
124.0
 40
124.0
 40
125.0
 40
125.0
 40
125.0
 40
126.0
 40
126.0
 40
126.0
 40
127.0
 40
127.0
 40
127.0
 40
128.0
 40
128.0
 40
128.0
 40
129.0
 40
129.0
 40
129.0
 40
130.0
 40
130.0
 40
130.0
 40
131.0
 40
131.0
 40
131.0
 40
132.0
 40
132.0
 40
132.0
 40
133.0
 40
133.0
 40
133.0
 40
134.0
 40
134.0
 40
134.0
 40
135.0
 40
135.0
 40
135.0
 40
136.0
 40
136.0
 40
136.0
 40
137.0
 40
137.0
 40
137.0
 40
138.0
 40
138.0
 40
138.0
 40
139.0
 40
139.0
 40
139.0
 40
140.0
 40
140.0
 40
140.0
 40
141.0
 40
141.0
 40
141.0
 40
142.0
 40
142.0
 40
142.0
 40
143.0
 40
143.0
 40
143.0
 40
144.0
 40
144.0
 40
144.0
 40
145.0
 40
145.0
 40
145.0
 40
146.0
 40
146.0
 40
146.0
 40
147.0
 40
147.0
 40
147.0
 40
148.0
 40
148.0
 40
148.0
 40
149.0
 40
149.0
 40
149.0
 40
150.0
 40
150.0
 40
150.0
 40
151.0
 40
151.0
 40
151.0
 40
152.0
 40
152.0
 40
152.0
 40
153.0
 40
153.0
 40
153.0
 40
153.0
 10
-35.08444296256776
 20
-24.54492997474606
 10
-35.4992312507072
 20
-26.10094410491942
 10
-41.33585822505295
 20
-28.94963016660412
 10
-45.23671112830982
 20
-29.1096043994396
 10
-45.35484594640345
 20
-29.11452668351985
 10
-45.49850795871571
 20
-29.11962067519503
 10
-45.64858038751394
 20
-29.12471466687085
 10
-48.36350624092042
 20
-29.21737952660782
 10
-56.14672486417625
 20
-29.33963532672553
 10
-63.52912074949264
 20
-29.33963532672553
 10
-73.53211778849715
 20
-29.33963532672553
 10
-75.41449080082744
 20
-29.11303855112441
 10
-75.70135693855995
 20
-29.06467424817583
 10
-77.52855458042569
 20
-28.6372368346536
 10
-86.72475491601863
 20
-27.14961955894033
 10
-97.41618489689443
 20
-25.49464462426606
 10
-111.1875910556935
 20
-23.3628949634731
 10
-127.4332462703791
 20
-20.95469609173177
 10
-133.6182106976872
 20
-20.17548707356116
 10
-134.8788877826294
 20
-20.01665755794988
 10
-135.7282107311195
 20
-19.92445058510554
 10
-136.0460414699145
 20
-19.9172388665666
 10
-136.0460414699145
 20
-19.9172388665666
 10
-136.1954843042361
 20
-19.91563626244014
 10
-136.1954843042361
 20
-19.91563626244014
 10
-138.2256403109053
 20
-19.91563626244014
 10
-144.9291616432164
 20
-21.02709945650675
 10
-154.9242601333369
 20
-22.72276908868903
 10
-157.2134084131993
 20
-23.11111440882971
 10
-159.6632177562346
 20
-23.5266467631627
 10
-161.5652226690515
 20
-23.83680789652101
 10
-161.0211958056905
 20
-23.01862125667804
 10
-160.3044311123866
 20
-21.97738646464847
 10
-159.5972820438095
 20
-21.05995284099918
 10
-159.3118468026123
 20
-20.68963681722445
 10
-159.0281858731231
 20
-20.33969676014339
 10
-158.7582043145246
 20
-20.03302701433572
 10
-158.4882799917882
 20
-19.72635726852677
 10
-158.2321495116683
 20
-19.46295783400276
 10
-158.0018896409376
 20
-19.26583752706289
 10
-157.7716297702069
 20
-19.0687172201333
 10
-157.5672405088643
 20
-18.93776156906773
 10
-157.4008558595428
 20
-18.89609386191182
 10
-157.3176349169537
 20
-18.87520277247317
 10
-157.1678486674621
 20
-18.83416465979262
 10
-156.9598535468474
 20
-18.77544066590839
 10
-156.7519156620927
 20
-18.71671667203314
 10
-156.4858261420755
 20
-18.64030679696254
 10
-156.1702276018791
 20
-18.54884389031624
 10
-155.6967725557232
 20
-18.41159229448674
 10
-155.1118220514043
 20
-18.24039983280515
 10
-154.4442801989717
 20
-18.04390912034258
 10
-153.3316722876771
 20
-17.71640552096209
 10
-151.9895485718498
 20
-17.3185590478238
 10
-150.5515547880454
 20
-16.89049203981401
 10
-150.2639445841129
 20
-16.80486719104222
 10
-149.9724995774605
 20
-16.71804038917912
 10
-149.6783072494567
 20
-16.63035504939722
 10
-148.7957302654467
 20
-16.36718455831278
 10
-147.8882556816934
 20
-16.09605828248111
 10
-146.9847876082435
 20
-15.82556160113764
 10
-142.1661576661667
 20
-14.38293171254562
 10
-137.4609119656816
 20
-12.958846243087
 10
-137.2490248064849
 20
-12.86595243990017
 10
-137.0731390041594
 20
-12.78954256482765
 10
-135.9372360972422
 20
-12.38499949589863
 10
-134.7171392380886
 20
-11.93524009638695
 10
-132.9980029026984
 20
-11.30152463808886
 10
-131.1101352476674
 20
-10.57714757520706
 10
-131.4912688492569
 20
-10.54721321965316
 10
-131.5728299518647
 20
-10.54080280316655
 10
-131.7800237704207
 20
-10.5244905826459
 10
-132.0813705811078
 20
-10.50079493600165
 10
-132.3827746276582
 20
-10.47709928934585
 10
-132.778388902203
 20
-10.44602021655684
 10
-133.236733680929
 20
-10.40996162383201
 10
-133.7169997946002
 20
-10.37224319111552
 10
-134.2678377254766
 20
-10.32885840811239
 10
-134.8498119649975
 20
-10.28312695479373
 10
-137.6008536469978
 20
-10.06677539839853
 10
-141.0834841104253
 20
-9.792959037081372
 10
-141.4863673393781
 20
-9.761307605689239
 10
-141.4888857172834
 20
-9.761135898102656
 10
-141.4919764538021
 20
-9.76102142637292
 10
-141.4954106054921
 20
-9.76102142637292
 10
-141.507945259156
 20
-9.76102142637292
 10
-141.5458353994552
 20
-9.766859484247428
 10
-141.5697027536918
 20
-9.769492333877346
 10
-141.5944858817131
 20
-9.772182419362829
 10
-141.6103402153417
 20
-9.772869249705951
 10
-141.6470284025509
 20
-9.778363892407295
 10
-141.6849757787115
 20
-9.784030242695219
 10
-141.7429557063893
 20
-9.794275461901145
 10
-141.7932087927692
 20
-9.802803605259851
 10
-141.845465134299
 20
-9.811675163791083
 10
-141.8900518703902
 20
-9.818657938888513
 10
-141.9551862807541
 20
-9.830448526356356
 10
-142.0057255464405
 20
-9.83966350004856
 10
-142.0723480892023
 20
-9.852484333019857
 10
-142.1303852527422
 20
-9.863416382568262
 10
-142.2206462062946
 20
-9.880358197566849
 10
-142.3073585364369
 20
-9.896441474636374
 10
-142.41507642774
 20
-9.917447035804121
 10
-142.4576026728192
 20
-9.925688999857417
 10
-142.5105458446877
 20
-9.936334870090146
 10
-142.5556477035335
 20
-9.945263664476298
 10
-142.6969058096644
 20
-9.97308029315746
 10
-142.8414835957607
 20
-10.00175545975742
 10
-143.0074103581889
 20
-10.0352384387265
 10
-143.0387183744181
 20
-10.04153438349172
 10
-143.0761506278266
 20
-10.04931846065303
 10
-143.1082599461152
 20
-10.05584334885911
 10
-143.2990270724272
 20
-10.09453479121386
 10
-143.4983223420967
 20
-10.1352294887315
 10
-143.7176501632847
 20
-10.18050305515817
 10
-143.7407162154613
 20
-10.18531086752794
 10
-143.7672164193265
 20
-10.19080551022992
 10
-143.7906258866718
 20
-10.19567055845397
 10
-143.9843120419159
 20
-10.2357928973499
 10
-144.1895598411819
 20
-10.27854808587638
 10
-144.4031640762226
 20
-10.32324929369093
 10
-149.483361905258
 20
-11.38692054342042
 10
-159.9903779404496
 20
-13.7135583125495
 10
-166.1893079179589
 20
-15.0925419231674
 10
-166.3306804958131
 20
-15.12402164698321
 10
-166.4660433082127
 20
-15.1541277101237
 10
-166.602837017147
 20
-15.18457718842643
 10
-167.3284160331195
 20
-15.346039553658
 10
-167.9870863270228
 20
-15.49273506663084
 10
-168.5627073859197
 20
-15.6210578680652
 10
-168.6732298344354
 20
-15.6456692885037
 10
-168.7813483767698
 20
-15.66970835032945
 10
-168.8855748805228
 20
-15.69300334594753
 10
-169.1870933987965
 20
-15.76019824732721
 10
-169.4668622897064
 20
-15.82264257220167
 10
-169.7118317768383
 20
-15.87730281991674
 10
-170.355162859865
 20
-16.02085036050055
 10
-170.7979967201297
 20
-16.11986840085766
 10
-170.9792054575731
 20
-16.16033415492418
 10
-171.0396465272956
 20
-16.1738418182386
 10
-171.0709545435242
 20
-16.18082459333539
 10
-171.0709545435242
 20
-16.18082459333539
 10
-171.0709545435242
 20
-16.18082459333539
 10
-174.9494854608045
 20
-14.07219822057521
 10
-174.9494854608045
 20
-14.07219822057521
 10
-174.4937162958452
 20
-12.18902390619323
 10
-173.891194382053
 20
-10.21009399554147
 10
-173.3275356182054
 20
-8.369617633820151
 10
-172.7032640770506
 20
-6.33110519137498
 10
-172.1114452693564
 20
-4.398708036106387
 10
-171.7309412622428
 20
-2.669154773928206
 10
-170.5829615885523
 20
-1.751950093729401
 10
-166.0730046474339
 20
-0.8512865774927554
 10
-162.1327734714785
 20
-0.7783680899599626
 10
-162.1327734714785
 20
-0.7783680899599626
 10
-160.5443066078447
 20
-0.7516389426474431
 10
-160.5443066078447
 20
-0.7516389426474431
 10
-160.5443066078447
 20
-0.7516389426474431
 10
-159.4583133721386
 20
0.4079023750514165
 10
-159.4583133721386
 20
0.4079023750514165
 10
-159.4583133721386
 20
0.4079023750514165
 10
-158.2542425541995
 20
1.693419823880662
 10
-158.2542425541995
 20
1.693419823880662
 10
-158.2542425541995
 20
1.693419823880662
 10
-146.8106761176234
 20
-2.386409618226822
 10
-146.8106761176234
 20
-2.386409618226822
 10
-146.8106761176234
 20
-2.386409618226822
 10
-135.2159497708816
 20
-3.298062419866795
 10
-135.2159497708816
 20
-3.298062419866795
 10
-135.2159497708816
 20
-3.298062419866795
 10
-127.9064151372277
 20
-3.87276770497396
 10
-127.9064151372277
 20
-3.87276770497396
 10
-127.9064151372277
 20
-3.87276770497396
 10
-127.9063579013657
 20
-3.87276770497396
 10
-127.9063579013657
 20
-3.87276770497396
 10
-127.9063579013657
 20
-3.87276770497396
 10
-106.6548542417065
 20
-3.317007490018009
 10
-106.6548542417065
 20
-3.317007490018009
 10
-106.6548542417065
 20
-3.317007490018009
 10
-106.592925039586
 20
-3.310768781108998
 10
-106.4768507125057
 20
-3.298806486064839
 10
-106.3607763854261
 20
-3.28684419101298
 10
-106.1906141692479
 20
-3.269215545680896
 10
-105.9743198487186
 20
-3.246321201089616
 10
-105.3253796512665
 20
-3.177580931449302
 10
-104.2608498636144
 20
-3.06185001953639
 10
-102.9941630132175
 20
-2.912521656942624
 10
-102.3607909700875
 20
-2.837828857708333
 10
-101.6769368971329
 20
-2.754836858567107
 10
-100.9691582340804
 20
-2.665033791902199
 10
-100.2614368068898
 20
-2.57528796110248
 10
-99.52979078960071
 20
-2.478731062789988
 10
-98.80100656538687
 20
-2.377251880388256
 10
-98.31518857315034
 20
-2.30959909211851
 10
-97.83051529814382
 20
-2.23971410525399
 10
-97.35505699683592
 20
-2.168054806676422
 10
-96.40414039421882
 20
-2.024793445398026
 10
-95.48979750708822
 20
-1.874549309010007
 10
-94.67533119823867
 20
-1.721328907833021
 10
-94.06445284867116
 20
-1.606456533847248
 10
-93.50978011507551
 20
-1.489924319870462
 10
-93.03792767303965
 20
-1.373392105903302
 10
-92.72335937834991
 20
-1.295665806012289
 10
-92.44565097845338
 20
-1.217996741985181
 10
-92.21258655050943
 20
-1.140842800707554
 10
-92.09611157239914
 20
-1.10226583007227
 10
-91.99074035141547
 20
-1.063803331159021
 10
-91.89756036892644
 20
-1.025512539829788
 10
-91.8043803864387
 20
-0.987221748502481
 10
-91.72344887830758
 20
-0.9491599006141109
 10
-91.65556714659443
 20
-0.9113269961775124
 10
-91.6046844657386
 20
-0.8829380088842475
 10
-91.56118521101344
 20
-0.8547779650401873
 10
-91.52552726931284
 20
-0.8266751570536158
 10
-91.41849620834651
 20
-0.742481204812086
 10
-91.38186525699994
 20
-0.6597753849749861
 10
-91.42685264412184
 20
-0.5793589995972069
 10
-91.4667460395737
 20
-0.507871408616489
 10
-91.56839692956072
 20
-0.4281418535728482
 10
-91.72379229347626
 20
-0.3414867592950406
 10
-91.87924489325444
 20
-0.2548316650082492
 10
-92.08849920282313
 20
-0.161193795633653
 10
-92.34371390915773
 20
-0.0618895759704898
 10
-92.72656458659323
 20
0.087038135606099
 10
-93.21284046572172
 20
0.2486722084236069
 10
-93.7759268709534
 20
0.4186054811493337
 10
-93.96366049660549
 20
0.4752117481499225
 10
-94.15986502975625
 20
0.5327910248016101
 10
-94.36368193248428
 20
0.5911143676500581
 10
-94.97507540480512
 20
0.7660271603302135
 10
-95.65446508056373
 20
0.9477510205237834
 10
-96.37535075589489
 20
1.131821551039937
 10
-97.33651257771599
 20
1.377248925063187
 10
-98.37139418912284
 20
1.626968988699027
 10
-99.41697890662505
 20
1.870278635848256
 10
-99.67837508600092
 20
1.931120356606513
 10
-99.94045809571479
 20
1.991561426328982
 10
-100.2021976902593
 20
2.051430137429082
 10
-101.2492705401601
 20
2.290962217723544
 10
-102.2912493983897
 20
2.521565503620945
 10
-103.2654037607674
 20
2.732708596622142
 10
-103.5089423513613
 20
2.785480060904701
 10
-103.7481882523446
 20
2.837106807961128
 10
-103.9822829257946
 20
2.887302658476389
 10
-104.4503578009725
 20
2.987694359509478
 10
-104.8975988225698
 20
3.082591417840583
 10
-105.3159929699832
 20
3.170620172802068
 10
-107.1988238692042
 20
3.56686404181389
 10
-108.4987075192603
 20
3.824768833648105
 10
-108.4987075192603
 20
3.824768833648105
 10
-108.4987075192603
 20
3.824768833648105
 10
-133.7262147682995
 20
2.746445203377424
 10
-133.7262147682995
 20
2.746445203377424
 10
-133.7262147682995
 20
2.746445203377424
 10
-135.3018607989608
 20
2.966116439727703
 10
-135.3018607989608
 20
2.966116439727703
 10
-135.3018607989608
 20
2.966116439727703
 10
-154.5491935330627
 20
5.649219154154183
 10
-154.5491935330627
 20
5.649219154154183
 10
-154.5491935330627
 20
5.649219154154183
 10
-149.91989982076
 20
10.59170750047449
 10
-149.91989982076
 20
10.59170750047449
 10
-147.3087998200766
 20
10.58306488538541
 10
-141.7904042355552
 20
10.55610679463266
 10
-135.12889402557
 20
10.47483187133673
 10
-133.0516329049055
 20
10.44947638470147
 10
-130.8641927508902
 20
10.41874072708113
 10
-128.6171700650763
 20
10.3816518888445
 10
-128.6171700650763
 20
10.3816518888445
 10
-129.9034315800997
 20
9.004385354072535
 10
-129.9034315800997
 20
9.004385354072535
 10
-129.9034315800997
 20
9.004385354072535
 10
-129.9033743442397
 20
9.004385354072535
 10
-129.9033743442397
 20
9.004385354072535
 10
-129.9033743442397
 20
9.004385354072535
 10
-129.9034315800997
 20
9.004328118207347
 10
-129.9034315800997
 20
9.004328118207347
 10
-129.9034315800997
 20
9.004328118207347
 10
-125.5430891808876
 20
8.196844584463573
 10
-125.5430891808876
 20
8.196844584463573
 10
-125.5430891808876
 20
8.196844584463573
 10
-96.61328023206417
 20
7.671018725051896
 10
-96.61328023206417
 20
7.671018725051896
 10
-96.61328023206417
 20
7.671018725051896
 10
-90.56396479646172
 20
6.923919025164118
 10
-90.56396479646172
 20
6.923919025164118
 10
-87.45737394295245
 20
5.662669581603413
 10
-84.93579082962337
 20
4.0701389718036
 10
-82.15017868728912
 20
2.300348899001047
 10
-80.75013227964472
 20
1.410789139898105
 10
-79.31809102543372
 20
0.5041730940674826
 10
-77.75412111051439
 20
-0.4015844138462697
 10
-77.75412111051439
 20
-0.4015844138462697
 10
-81.61216158938474
 20
-2.88149982001944
 10
-81.61216158938474
 20
-2.88149982001944
 10
-81.61216158938474
 20
-2.88149982001944
 10
-105.724199134054
 20
-6.451128792890855
 10
-105.724199134054
 20
-6.451128792890855
 10
-105.724199134054
 20
-6.451128792890855
 10
-104.0887416281449
 20
-7.892842907690547
 10
-104.0887416281449
 20
-7.892842907690547
 10
-104.0887416281449
 20
-7.892842907690547
 10
-96.4828397037526
 20
-8.490843188426062
 10
-96.4828397037526
 20
-8.490843188426062
 10
-96.4828397037526
 20
-8.490843188426062
 10
-80.86385993640371
 20
-6.657063422495478
 10
-80.86385993640371
 20
-6.657063422495478
 10
-80.86385993640371
 20
-6.657063422495478
 10
-74.58720365900659
 20
-2.116657003069842
 10
-74.58720365900659
 20
-2.116657003069842
 10
-74.34772881457732
 20
-2.23725296320937
 10
-74.11185982942136
 20
-2.358077866786553
 10
-73.86465814369277
 20
-2.47821594003409
 10
-70.86733054974651
 20
-3.93532650157045
 10
-67.65101854978155
 20
-5.486017696636752
 10
-64.42629287817993
 20
-7.006946243722262
 10
-64.40626032666135
 20
-6.998704279668964
 10
-64.38634224686738
 20
-6.990805730778565
 10
-64.36630969534945
 20
-6.982735474309925
 10
-64.38576988825207
 20
-6.990634023202249
 10
-64.40523008115533
 20
-6.999734525173701
 10
-64.42463303819725
 20
-7.007747545775226
 10
-64.51546635036497
 20
-7.04495085574416
 10
-64.60624242667008
 20
-7.084958722919326
 10
-64.6970185029771
 20
-7.124508703193517
 10
-64.78333018208687
 20
-7.162055428324064
 10
-64.86964186119793
 20
-7.197427190725027
 10
-64.95589630444701
 20
-7.236862699277823
 10
-65.06573192262663
 20
-7.287058549794368
 10
-65.17539583321969
 20
-7.341260910616167
 10
-65.28511697967537
 20
-7.39431855421312
 10
-65.3721727249851
 20
-7.436386912397119
 10
-65.45928570615683
 20
-7.47662372301379
 10
-65.54622697974391
 20
-7.52023744946805
 10
-65.65806585307424
 20
-7.576385829578571
 10
-65.7695040753752
 20
-7.635624946209721
 10
-65.88111400525825
 20
-7.694062760779563
 10
-65.96450665543398
 20
-7.737733723089386
 10
-66.04812824905507
 20
-7.779916552993496
 10
-66.13134919164614
 20
-7.824674996671961
 10
-66.24822482078775
 20
-7.887519972574503
 10
-66.36447085545078
 20
-7.952711618801555
 10
-66.48094583356173
 20
-8.017330906414578
 10
-66.55924449206485
 20
-8.06077292527263
 10
-66.6378293298753
 20
-8.103184698627227
 10
-66.71589904493306
 20
-8.147313547829686
 10
-66.84193241191131
 20
-8.218514959514619
 10
-66.96710724096563
 20
-8.291204503586016
 10
-67.09251101346723
 20
-8.363779575947567
 10
-67.15930526381369
 20
-8.402413782445474
 10
-67.22638569346685
 20
-8.440303922748546
 10
-67.29295100036795
 20
-8.479224308554428
 10
-67.44485497673351
 20
-8.567939893839785
 10
-67.59578594345502
 20
-8.657399545332809
 10
-67.74643073086727
 20
-8.746744725105726
 10
-67.78580900356451
 20
-8.770096956588357
 10
-67.82553069143299
 20
-8.793334716352802
 10
-67.86485172826759
 20
-8.816686947836076
 10
-68.05355836356501
 20
-8.92892647219193
 10
-68.24112028163373
 20
-9.040994288969542
 10
-68.42742301074787
 20
-9.152089096098624
 10
-68.50228751756232
 20
-9.19673306805698
 10
-68.57589283542477
 20
-9.240175086916956
 10
-68.65029945534852
 20
-9.284418407838883
 10
-68.7645422348602
 20
-9.352357375416605
 10
-68.87918566540254
 20
-9.420696994019849
 10
-68.9923409635488
 20
-9.487376772641704
 10
-69.07458889649326
 20
-9.535798311456751
 10
-69.15534869704164
 20
-9.582044887531305
 10
-69.2369670355101
 20
-9.629607888417288
 10
-69.33936199169711
 20
-9.689247656084868
 10
-69.44244377822016
 20
-9.750032140969594
 10
-69.54386572476249
 20
-9.808012068656426
 10
-69.62697219562895
 20
-9.855517833676579
 10
-69.70836159065398
 20
-9.899932862185089
 10
-69.79072399532305
 20
-9.946122202404078
 10
-69.88825390328343
 20
-10.00078245011851
 10
-69.98652787744186
 20
-10.05704530194914
 10
-70.08291306817354
 20
-10.10953058692437
 10
-70.26045871048168
 20
-10.20625919282152
 10
-70.43605833350048
 20
-10.29909576014443
 10
-70.60954022964395
 20
-10.38695280751035
 10
-72.8926215081891
 20
-11.54363233214805
 10
-75.16517138822289
 20
-12.72440815446707
 10
-77.44052582546934
 20
-13.89860185271418
 10
-77.99599986112565
 20
-14.18523904700328
 10
-78.55227519884263
 20
-14.47033087302981
 10
-79.10820712138967
 20
-14.75593782181481
 10
-79.1189102274863
 20
-14.76143246451615
 10
-79.1294988618609
 20
-14.76692710721814
 10
-79.14020196795688
 20
-14.77242174992077
 10
-79.14020196795688
 20
-14.77242174992077
 10
-95.68691781402295
 20
-15.8792488392029
 10
-95.68691781402295
 20
-15.8792488392029
 10
-95.68691781402295
 20
-15.8792488392029
 10
-97.16348856846515
 20
-15.97803793611979
 10
-97.16348856846515
 20
-15.97803793611979
 10
-97.16348856846515
 20
-15.97803793611979
 10
-124.9761679729359
 20
-13.79128461244115
 10
-124.9761679729359
 20
-13.79128461244115
 10
-124.9761679729359
 20
-13.79128461244115
 10
-96.47871872172657
 20
-21.62137940624177
 10
-96.47871872172657
 20
-21.62137940624177
 10
-96.47871872172657
 20
-21.62137940624177
 10
-89.30832446733019
 20
-23.59155223008306
 10
-89.30832446733019
 20
-23.59155223008306
 10
-89.30832446733019
 20
-23.59155223008306
 10
-63.87871739140823
 20
-21.6552058003821
 10
-63.87871739140823
 20
-21.6552058003821
 10
-63.87871739140823
 20
-21.6552058003821
 10
-55.98949795269273
 20
-26.21123760998655
 10
-55.98949795269273
 20
-26.21123760998655
 10
-55.98949795269273
 20
-26.21123760998655
 10
-53.74653901304352
 20
-25.61924709471084
 10
-51.08816219077885
 20
-24.96675827384619
 10
-50.73375773649861
 20
-24.87970252853324
 10
-50.37196985608901
 20
-24.79167377357946
 10
-50.0070340032968
 20
-24.70375949034771
 10
-49.45974469583308
 20
-24.57188806550008
 10
-48.90547261326744
 20
-24.44047452754381
 10
-48.35904184372509
 20
-24.31369709437137
 10
-48.17686009663632
 20
-24.27145702859244
 10
-47.99565135919352
 20
-24.22973208557904
 10
-47.81575904656406
 20
-24.18863673703459
 10
-47.45757702542714
 20
-24.10684669098212
 10
-47.10889615729553
 20
-24.02934933454159
 10
-46.76662570564924
 20
-23.9543131201367
 10
-45.98346741302957
 20
-23.78272000742959
 10
-45.24878789508243
 20
-23.63041538002439
 10
-44.61867829605702
 20
-23.51434105294923
 10
-44.41772318640362
 20
-23.47730945057522
 10
-44.22352190840357
 20
-23.4426817543723
 10
-44.04511772817278
 20
-23.41331975744013
 10
-43.67674772369254
 20
-23.35276421599755
 10
-43.36006170212816
 20
-23.30960837643528
 10
-43.10954033643422
 20
-23.2881449283826
 10
-42.13223800167584
 20
-23.20555358026625
 10
-41.51117166876311
 20
-22.39286158312655
 10
-41.1164159321416
 20
-21.39518328167643
 10
-40.99902518024729
 20
-21.09852981163318
 10
-40.90429982949957
 20
-20.78482005486097
 10
-40.82354002895248
 20
-20.46973663742433
 10
-40.80573967603188
 20
-20.40019506572014
 10
-40.78811103069659
 20
-20.33151203194694
 10
-40.77185604603664
 20
-20.26191322438719
 10
-40.69670535991355
 20
-19.93996150357259
 10
-40.63592087502306
 20
-19.61886832066651
 10
-40.59018942170119
 20
-19.31460248104726
 10
-40.51669857556207
 20
-18.82615163918275
 10
-40.47697688769424
 20
-18.38240200513923
 10
-40.45488384516491
 20
-18.04184862933503
 10
-40.44652740938829
 20
-17.91266728997353
 10
-40.4404031722103
 20
-17.7977949159884
 10
-40.43639666190697
 20
-17.70243997076594
 10
-40.43593877501498
 20
-17.69156515708208
 10
-40.43588153915364
 20
-17.68584157092961
 10
-40.43548088812299
 20
-17.67542464414801
 10
-37.08907177501512
 20
-20.02839090955253
 10
-34.91874514358431
 20
-23.18466249082824
 10
-35.08444296256776
 20
-24.54492997474606
 97
        0
 97
        1
330
79
 92
        1
 93
        1
 72
     4
 94
        3
 73
     0
 74
     0
 95
       41
 96
       37
 40
0.0
 40
0.0
 40
0.0
 40
0.0
 40
1.0
 40
1.0
 40
1.0
 40
2.0
 40
2.0
 40
2.0
 40
3.0
 40
3.0
 40
3.0
 40
4.0
 40
4.0
 40
4.0
 40
5.0
 40
5.0
 40
5.0
 40
6.0
 40
6.0
 40
6.0
 40
7.0
 40
7.0
 40
7.0
 40
8.0
 40
8.0
 40
8.0
 40
9.0
 40
9.0
 40
9.0
 40
10.0
 40
10.0
 40
10.0
 40
11.0
 40
11.0
 40
11.0
 40
12.0
 40
12.0
 40
12.0
 40
12.0
 10
-114.8943571526756
 20
-39.95992113177903
 10
-121.2721491973071
 20
-39.95992113177903
 10
-126.0919238566125
 20
-37.2850603814052
 10
-129.6332210780571
 20
-31.77948562985835
 10
-130.7133190200319
 20
-30.10333342643938
 10
-131.6363045222458
 20
-27.93787184323646
 10
-132.4085307653228
 20
-25.31326417924373
 10
-132.4085307653228
 20
-25.31326417924373
 10
-132.7245299565499
 20
-24.0612297093855
 10
-132.7245299565499
 20
-24.0612297093855
 10
-130.7768508262731
 20
-24.3203364542982
 10
-128.1244837694625
 20
-24.69362874286318
 10
-125.0241316248558
 20
-25.14212895341898
 10
-124.3092557149793
 20
-25.24549691925259
 10
-123.5649605723041
 20
-25.35384440503293
 10
-122.8057841056431
 20
-25.46476750457671
 10
-120.2539804574522
 20
-25.83748743452894
 10
-117.4755800336652
 20
-26.24872709926089
 10
-114.5801322731533
 20
-26.68183086307169
 10
-110.0718351720182
 20
-27.35624101887716
 10
-105.293499276422
 20
-28.08141938382219
 10
-100.7012944023578
 20
-28.7875382068959
 10
-100.0279717279159
 20
-28.89107788030454
 10
-99.36037263962191
 20
-28.99393072339187
 10
-98.69649388232518
 20
-29.09644015129705
 10
-98.68704996518122
 20
-29.09787104783758
 10
-98.67783499148323
 20
-29.09935918023431
 10
-98.66839107433861
 20
-29.10079007676585
 10
-98.66839107433861
 20
-29.10079007676585
 10
-98.66844831019868
 20
-29.1008473126304
 10
-98.66844831019868
 20
-29.1008473126304
 10
-98.67789222734266
 20
-29.09941641608924
 10
-98.68704996518122
 20
-29.09792828369379
 10
-98.69649388232518
 20
-29.09649738716353
 10
-101.8322750251877
 20
-36.37186221151102
 10
-107.1881779989702
 20
-39.95992113177903
 10
-114.8943571526756
 20
-39.95992113177903
 97
        0
 97
        1
330
7A
 92
        1
 93
        1
 72
     4
 94
        3
 73
     0
 74
     0
 95
       41
 96
       37
 40
0.0
 40
0.0
 40
0.0
 40
0.0
 40
1.0
 40
1.0
 40
1.0
 40
2.0
 40
2.0
 40
2.0
 40
3.0
 40
3.0
 40
3.0
 40
4.0
 40
4.0
 40
4.0
 40
5.0
 40
5.0
 40
5.0
 40
6.0
 40
6.0
 40
6.0
 40
7.0
 40
7.0
 40
7.0
 40
8.0
 40
8.0
 40
8.0
 40
9.0
 40
9.0
 40
9.0
 40
10.0
 40
10.0
 40
10.0
 40
11.0
 40
11.0
 40
11.0
 40
12.0
 40
12.0
 40
12.0
 40
12.0
 10
-82.92412200621146
 20
45.81665990995808
 10
-81.17419277734539
 20
45.97646243520698
 10
-79.78433435304492
 20
47.3663780953643
 10
-79.62447459193341
 20
49.1163073242323
 10
-79.00512533486595
 20
55.89732601298777
 10
-77.46983058654659
 20
60.78252126196438
 10
-77.46983058654659
 20
60.78252126196438
 10
-77.46983058654659
 20
60.78252126196438
 10
-75.9345930740892
 20
55.89732601298777
 10
-75.31518658116105
 20
49.1163073242323
 10
-75.15538405591025
 20
47.3663780953643
 10
-73.76552563160976
 20
45.97646243520698
 10
-72.01553916688171
 20
45.81665990995808
 10
-65.23452047812816
 20
45.19731065289128
 10
-60.34932522915092
 20
43.66201590457191
 10
-60.34932522915092
 20
43.66201590457191
 10
-60.34932522915092
 20
43.66201590457191
 10
-65.23452047812816
 20
42.12677839210683
 10
-72.01553916688171
 20
41.50737189917676
 10
-73.76552563160976
 20
41.34756937392658
 10
-75.15538405591025
 20
39.9576537137699
 10
-75.31518658116105
 20
38.20772448490127
 10
-75.9345930740892
 20
31.42670579614643
 10
-77.46983058654659
 20
26.54151054716983
 10
-77.46983058654659
 20
26.54151054716983
 10
-77.46983058654659
 20
26.54151054716983
 10
-79.00512533486595
 20
31.42670579614643
 10
-79.62447459193341
 20
38.20772448490127
 10
-79.78433435304492
 20
39.9576537137699
 10
-81.17419277734539
 20
41.34756937392658
 10
-82.92412200621146
 20
41.50737189917676
 10
-89.70519793082635
 20
42.12677839210683
 10
-94.5903931798036
 20
43.66201590457191
 10
-94.5903931798036
 20
43.66201590457191
 10
-94.5903931798036
 20
43.66201590457191
 10
-89.70519793082635
 20
45.19731065289128
 10
-82.92412200621146
 20
45.81665990995808
 97
        0
 97
        1
330
7B
 92
        1
 93
        1
 72
     4
 94
        3
 73
     0
 74
     0
 95
      179
 96
      175
 40
0.0
 40
0.0
 40
0.0
 40
0.0
 40
1.0
 40
1.0
 40
1.0
 40
2.0
 40
2.0
 40
2.0
 40
3.0
 40
3.0
 40
3.0
 40
4.0
 40
4.0
 40
4.0
 40
5.0
 40
5.0
 40
5.0
 40
6.0
 40
6.0
 40
6.0
 40
7.0
 40
7.0
 40
7.0
 40
8.0
 40
8.0
 40
8.0
 40
9.0
 40
9.0
 40
9.0
 40
10.0
 40
10.0
 40
10.0
 40
11.0
 40
11.0
 40
11.0
 40
12.0
 40
12.0
 40
12.0
 40
13.0
 40
13.0
 40
13.0
 40
14.0
 40
14.0
 40
14.0
 40
15.0
 40
15.0
 40
15.0
 40
16.0
 40
16.0
 40
16.0
 40
17.0
 40
17.0
 40
17.0
 40
18.0
 40
18.0
 40
18.0
 40
19.0
 40
19.0
 40
19.0
 40
20.0
 40
20.0
 40
20.0
 40
21.0
 40
21.0
 40
21.0
 40
22.0
 40
22.0
 40
22.0
 40
23.0
 40
23.0
 40
23.0
 40
24.0
 40
24.0
 40
24.0
 40
25.0
 40
25.0
 40
25.0
 40
26.0
 40
26.0
 40
26.0
 40
27.0
 40
27.0
 40
27.0
 40
28.0
 40
28.0
 40
28.0
 40
29.0
 40
29.0
 40
29.0
 40
30.0
 40
30.0
 40
30.0
 40
31.0
 40
31.0
 40
31.0
 40
32.0
 40
32.0
 40
32.0
 40
33.0
 40
33.0
 40
33.0
 40
34.0
 40
34.0
 40
34.0
 40
35.0
 40
35.0
 40
35.0
 40
36.0
 40
36.0
 40
36.0
 40
37.0
 40
37.0
 40
37.0
 40
38.0
 40
38.0
 40
38.0
 40
39.0
 40
39.0
 40
39.0
 40
40.0
 40
40.0
 40
40.0
 40
41.0
 40
41.0
 40
41.0
 40
42.0
 40
42.0
 40
42.0
 40
43.0
 40
43.0
 40
43.0
 40
44.0
 40
44.0
 40
44.0
 40
45.0
 40
45.0
 40
45.0
 40
46.0
 40
46.0
 40
46.0
 40
47.0
 40
47.0
 40
47.0
 40
48.0
 40
48.0
 40
48.0
 40
49.0
 40
49.0
 40
49.0
 40
50.0
 40
50.0
 40
50.0
 40
51.0
 40
51.0
 40
51.0
 40
52.0
 40
52.0
 40
52.0
 40
53.0
 40
53.0
 40
53.0
 40
54.0
 40
54.0
 40
54.0
 40
55.0
 40
55.0
 40
55.0
 40
56.0
 40
56.0
 40
56.0
 40
57.0
 40
57.0
 40
57.0
 40
58.0
 40
58.0
 40
58.0
 40
58.0
 10
-33.23143194717542
 20
-19.55951473231461
 10
-33.67644077017738
 20
-18.92631439677306
 10
-34.18858725869319
 20
-18.29712057152842
 10
-34.75590911767547
 20
-17.68458238198401
 10
-35.03957004716726
 20
-17.3783132872025
 10
-35.33696758341304
 20
-17.07622241031284
 10
-35.64667082987679
 20
-16.77985511957628
 10
-36.18863720222446
 20
-16.26124097871316
 10
-36.76815029970204
 20
-15.76031271904668
 10
-37.37719710170158
 20
-15.28542677635088
 10
-37.83393927630747
 20
-14.92930524623305
 10
-38.30733708660206
 20
-14.58783609664551
 10
-38.79389914503661
 20
-14.26468242273253
 10
-40.25358532034283
 20
-13.29522140099872
 10
-41.83180696477013
 20
-12.49031348101967
 10
-43.43675775650995
 20
-11.94697344798896
 10
-44.04820846469276
 20
-11.74006580874479
 10
-44.70229988967746
 20
-11.5056849559907
 10
-45.39451039840802
 20
-11.24634926762751
 10
-46.08677814299928
 20
-10.98707081512887
 10
-46.81716497133702
 20
-10.70283752702113
 10
-47.58143542966939
 20
-10.39633948879812
 10
-48.09094906855721
 20
-10.19200746331932
 10
-48.61545850315232
 20
-9.977773633796854
 10
-49.15370454450335
 20
-9.754439302311919
 10
-50.76849990441779
 20
-9.084321836108125
 10
-52.50686748926458
 20
-8.332070908689603
 10
-54.33389342354438
 20
-7.518520373622116
 10
-55.55187255582334
 20
-6.976096114384376
 10
-56.80934443252223
 20
-6.406484820941484
 10
-58.09572041926706
 20
-5.815810730476564
 10
-62.59817946253214
 20
-3.748394177980306
 10
-67.45601596972149
 20
-1.422958361941913
 10
-72.22462176886574
 20
0.8952657355492018
 10
-72.8913050833751
 20
1.219277947381619
 10
-73.52954217473177
 20
1.54741114124967
 10
-74.14574345941661
 20
1.878005477153356
 10
-74.78890283485931
 20
2.223023250146463
 10
-75.40808038434082
 20
2.570731108634036
 10
-76.00745432575232
 20
2.919583684347098
 10
-76.59435084935926
 20
3.261167305655395
 10
-77.16298913315618
 20
3.603723936612224
 10
-77.7189210557045
 20
3.945708208946682
 10
-77.99691563490964
 20
4.11667172718613
 10
-78.27159053414816
 20
4.287578009560389
 10
-78.54386152720532
 20
4.458026405054206
 10
-79.63283102770873
 20
5.13999169457948
 10
-80.68156371759355
 20
5.816347869673675
 10
-81.73321543641241
 20
6.474274097382821
 10
-82.7849243910939
 20
7.132143089219719
 10
-83.83955237471068
 20
7.771639369525207
 10
-84.94048417026339
 20
8.379770397745895
 10
-85.49097868597106
 20
8.683807293923003
 10
-86.05297760983665
 20
8.98011734880592
 10
-86.63197558456026
 20
9.266869014813842
 10
-87.50047254664632
 20
9.697053749686102
 10
-88.40714582833893
 20
10.10594674409547
 10
-89.37031090531071
 20
10.48822506292077
 10
-89.69140408821038
 20
10.61563209057051
 10
-90.01867874414871
 20
10.74006285342935
 10
-90.35293617518707
 20
10.861402879765
 10
-91.0214510372644
 20
11.10396846071682
 10
-91.71778252802097
 20
11.33394215213822
 10
-92.44731081843543
 20
11.54960687819222
 10
-92.81207496364361
 20
11.65743924121538
 10
-93.18519554462715
 20
11.76172298083169
 10
-93.56718768413934
 20
11.86222915359323
 10
-94.71333581026057
 20
12.16374767186117
 10
-95.94024373693082
 20
12.43132532427958
 10
-97.26622693981889
 20
12.65958193985248
 10
-97.81872471067854
 20
12.75470794163407
 10
-98.38845047584284
 20
12.8429656400377
 10
-98.97660618840371
 20
12.92401161989149
 10
-100.741187797809
 20
13.16720679532125
 10
-102.6724402358425
 20
13.34532479624535
 10
-104.8060214442035
 20
13.44789146001508
 10
-106.7971425933434
 20
13.54381876384964
 10
-108.9118359674177
 20
13.62944361262207
 10
-111.0992188855704
 20
13.70602519527989
 10
-113.2866018037231
 20
13.78254954208023
 10
-115.5466170300911
 20
13.84997338690077
 10
-117.8285535914081
 20
13.90932697525395
 10
-119.7844746857389
 20
13.96020965611234
 10
-121.7564218212829
 20
14.00519704323295
 10
-123.7124573873351
 20
14.04491873110206
 10
-125.3424202505415
 20
14.07805829489927
 10
-126.9613938283439
 20
14.10753476356246
 10
-128.5507192298991
 20
14.13380602398299
 10
-130.1400446314556
 20
14.16007728439261
 10
-131.6997218567649
 20
14.18308610071555
 10
-133.2112637225691
 20
14.20323312395552
 10
-133.780588836704
 20
14.21084549353088
 10
-134.3417292226463
 20
14.2179427403497
 10
-134.8964019562413
 20
14.22481104372831
 10
-133.237363275405
 20
36.16594959835723
 10
-126.4534827935768
 20
47.2804670672839
 10
-114.6555691385818
 20
47.2804670672839
 10
-109.8766036485121
 20
47.2804670672839
 10
-105.7965452629644
 20
45.2389783600472
 10
-102.179524996782
 20
41.03809507091268
 10
-98.5013768305418
 20
36.76148873704941
 10
-96.63462920839611
 20
29.46488940808818
 10
-96.63462920839611
 20
19.35360211916018
 10
-96.63462920839611
 20
19.35360211916018
 10
-96.63462920839611
 20
16.20688892675626
 10
-96.63462920839611
 20
16.20688892675626
 10
-96.63462920839611
 20
16.20688892675626
 10
-43.7862971625642
 20
19.04487188234304
 10
-43.7862971625642
 20
19.04487188234304
 10
-43.7862971625642
 20
19.04487188234304
 10
-44.01924711878547
 20
22.08672897651599
 10
-44.01924711878547
 20
22.08672897651599
 10
-45.5773217399728
 20
42.43888554475386
 10
-52.46474189521668
 20
59.04157806334644
 10
-64.48352873965845
 20
71.4331420736082
 10
-76.58971474457928
 20
83.91204800848127
 10
-94.03108434142797
 20
90.24033103293096
 10
-116.327199708946
 20
90.24033103293096
 10
-140.2279224530333
 20
90.24033103293096
 10
-159.1487245973975
 20
81.96373928372716
 10
-172.5712209446196
 20
65.6421320808533
 10
-185.8510282891722
 20
49.49377783068912
 10
-192.5841405618673
 20
28.05826087637378
 10
-192.5841405618673
 20
1.92968946006663
 10
-192.5841405618673
 20
-24.50761219305766
 10
-185.4491180698641
 20
-45.58786615517397
 10
-171.3801426672352
 20
-60.72417590266701
 10
-157.2528439217592
 20
-75.92607794741647
 10
-138.4893259247398
 20
-83.63477547902652
 10
-115.6107784308102
 20
-83.63477547902652
 10
-96.5938772750229
 20
-83.63477547902652
 10
-80.30867208005536
 20
-78.01707567483815
 10
-67.20646761367223
 20
-66.93890297794557
 10
-57.15974237649785
 20
-58.44464324753321
 10
-50.24645161186602
 20
-47.026146118285
 10
-46.54540910103191
 20
-32.90365518517614
 10
-46.54180324175988
 20
-32.90354071344577
 10
-46.53825461834855
 20
-32.90348347759084
 10
-46.53464875907459
 20
-32.90336900587009
 10
-46.41845996027096
 20
-32.90033550520246
 10
-46.29740611324328
 20
-32.89724476868953
 10
-46.1897454578003
 20
-32.89421126803345
 10
-46.04442360550473
 20
-32.890147521863
 10
-45.91455543580845
 20
-32.88608377570091
 10
-45.7854313323115
 20
-32.88207726539436
 10
-45.71983903505572
 20
-32.88001677438617
 10
-45.6461192454706
 20
-32.87795628336836
 10
-45.58487687368811
 20
-32.87589579235952
 10
-45.3961702383907
 20
-32.86965708345051
 10
-45.22635143738122
 20
-32.86347561041503
 10
-45.08085787750164
 20
-32.85740860910094
 10
-44.25185365983614
 20
-32.82341050737596
 10
-43.27014416374378
 20
-32.67940507989695
 10
-42.21872138837027
 20
-32.43924340512648
 10
-41.51775379283374
 20
-32.27909746471404
 10
-40.78582159623855
 20
-32.07625357163133
 10
-40.04742174729414
 20
-31.83471823618424
 10
-38.57056481354462
 20
-31.35164756530033
 10
-37.0680089779918
 20
-30.71398283256089
 10
-35.73607324550784
 20
-29.95440571487306
 10
-35.07013399719717
 20
-29.57458853809237
 10
-34.44683546568838
 20
-29.16437911887414
 10
-33.89078907141739
 20
-28.72772673165008
 10
-33.61279449221225
 20
-28.50937192010097
 10
-33.35151278455969
 20
-28.28449222035539
 10
-33.11020639256373
 20
-28.05348828341964
 10
-32.62753637270919
 20
-27.59148040955968
 10
-32.22442420030978
 20
-27.10509005871107
 10
-31.92536682408133
 20
-26.59855268462185
 10
-31.62630944785223
 20
-26.09195807466808
 10
-31.43130686779216
 20
-25.56515920560852
 10
-31.36497050433769
 20
-25.02216258775803
 10
-31.16567523466696
 20
-23.39420297970361
 10
-31.89634824231205
 20
-21.45900126722815
 10
-33.23143194717542
 20
-19.55951473231461
 97
        0
 97
        1
330
7C
 75
     2
 76
     1
 98
        1
 10
0.0
 20
0.0
450
        0
451
        0
460
0.0
461
0.0
452
        0
462
0.0
453
        0
470

  0
ENDSEC
  0
SECTION
  2
OBJECTS
  0
DICTIONARY
  5
C
330
0
100
AcDbDictionary
281
     1
  3
ACAD_COLOR
350
63
  3
ACAD_DETAILVIEWSTYLE
350
6A
  3
ACAD_GROUP
350
D
  3
ACAD_LAYOUT
350
62
  3
ACAD_MATERIAL
350
10
  3
ACAD_MLEADERSTYLE
350
66
  3
ACAD_MLINESTYLE
350
5F
  3
ACAD_PLOTSETTINGS
350
61
  3
ACAD_PLOTSTYLENAME
350
E
  3
ACAD_SCALELIST
350
42
  3
ACAD_SECTIONVIEWSTYLE
350
68
  3
ACAD_TABLESTYLE
350
64
  3
ACAD_VISUALSTYLE
350
29
  3
ACDB_RECOMPOSE_DATA
350
86
  3
AcDbVariableDictionary
350
7E
  0
DICTIONARY
  5
63
102
{ACAD_REACTORS
330
C
102
}
330
C
100
AcDbDictionary
281
     1
  0
DICTIONARY
  5
6A
102
{ACAD_REACTORS
330
C
102
}
330
C
100
AcDbDictionary
281
     1
  3
Imperial24
350
6B
  0
DICTIONARY
  5
D
102
{ACAD_REACTORS
330
C
102
}
330
C
100
AcDbDictionary
281
     1
  0
DICTIONARY
  5
62
102
{ACAD_REACTORS
330
C
102
}
330
C
100
AcDbDictionary
281
     1
  3
Layout1
350
6F
  3
Layout2
350
77
  3
Model
350
73
  0
DICTIONARY
  5
10
102
{ACAD_REACTORS
330
C
102
}
330
C
100
AcDbDictionary
281
     1
  3
ByBlock
350
19
  3
ByLayer
350
11
  3
Global
350
21
  0
DICTIONARY
  5
66
102
{ACAD_REACTORS
330
C
102
}
330
C
100
AcDbDictionary
281
     1
  3
Standard
350
67
  0
DICTIONARY
  5
5F
102
{ACAD_REACTORS
330
C
102
}
330
C
100
AcDbDictionary
281
     1
  3
Standard
350
60
  0
DICTIONARY
  5
61
102
{ACAD_REACTORS
330
C
102
}
330
C
100
AcDbDictionary
281
     1
  0
ACDBDICTIONARYWDFLT
  5
E
102
{ACAD_REACTORS
330
C
102
}
330
C
100
AcDbDictionary
281
     1
  3
Normal
350
F
100
AcDbDictionaryWithDefault
340
F
  0
DICTIONARY
  5
42
102
{ACAD_REACTORS
330
C
102
}
330
C
100
AcDbDictionary
281
     1
  3
A0
350
43
  3
A1
350
44
  3
A2
350
45
  3
A3
350
46
  3
A4
350
47
  3
A5
350
48
  3
A6
350
49
  3
A7
350
4A
  3
A8
350
4B
  3
A9
350
4C
  3
B0
350
4D
  3
B1
350
4E
  3
B2
350
4F
  3
B3
350
50
  3
B4
350
51
  3
B5
350
52
  3
B6
350
53
  0
DICTIONARY
  5
68
102
{ACAD_REACTORS
330
C
102
}
330
C
100
AcDbDictionary
281
     1
  3
Imperial24
350
69
  0
DICTIONARY
  5
64
102
{ACAD_REACTORS
330
C
102
}
330
C
100
AcDbDictionary
281
     1
  3
Standard
350
65
  0
DICTIONARY
  5
29
102
{ACAD_REACTORS
330
C
102
}
330
C
100
AcDbDictionary
281
     1
  3
2dWireframe
350
2F
  3
Basic
350
2E
  3
Brighten
350
35
  3
ColorChange
350
39
  3
Conceptual
350
32
  3
Dim
350
34
  3
EdgeColorOff
350
41
  3
Facepattern
350
38
  3
Flat
350
2A
  3
FlatWithEdges
350
2B
  3
Gouraud
350
2C
  3
GouraudWithEdges
350
2D
  3
Hidden
350
31
  3
JitterOff
350
3F
  3
Linepattern
350
37
  3
OverhangOff
350
40
  3
Realistic
350
33
  3
Shaded
350
3E
  3
Shaded with edges
350
3D
  3
Shades of Gray
350
3A
  3
Sketchy
350
3B
  3
Thicken
350
36
  3
Wireframe
350
30
  3
X-Ray
350
3C
  0
XRECORD
  5
86
102
{ACAD_REACTORS
330
C
102
}
330
C
100
AcDbXrecord
280
     1
 90
        1
330
65
  0
DICTIONARY
  5
7E
102
{ACAD_REACTORS
330
C
102
}
330
C
100
AcDbDictionary
281
     1
  3
CANNOSCALE
350
83
  3
CMLEADERSTYLE
350
80
  3
CTABLESTYLE
350
7F
  3
CVIEWDETAILSTYLE
350
81
  3
CVIEWSECTIONSTYLE
350
82
  0
ACDBDETAILVIEWSTYLE
  5
6B
102
{ACAD_XDICTIONARY
360
89
102
}
102
{ACAD_REACTORS
330
6A
102
}
330
6A
100
AcDbModelDocViewStyle
 70
     0
  3
Imperial24
290
     0
100
AcDbDetailViewStyle
 70
     0
 71
     0
 90
        3
 71
     1
340
55
 62
   256
 40
0.24
340
0
 62
   256
 40
0.24
300

 40
0.36
280
     3
 71
     2
340
5D
 90
       25
 62
   256
 71
     3
340
55
 62
   256
 40
0.24
 90
        1
 40
0.75
 90
        1
300
%<\AcVar ViewType \f "%tc1">% %<\AcVar ViewDetailId>%\PSCALE %<\AcVar ViewScale \f "%sn">%
 71
     4
340
5D
 90
       25
 62
   256
340
5D
 90
       25
 62
   256
280
     0
  0
LAYOUT
  5
6F
102
{ACAD_REACTORS
330
62
102
}
330
62
100
AcDbPlotSettings
  1

  2

  4

  6

 40
0.0
 41
0.0
 42
0.0
 43
0.0
 44
0.0
 45
0.0
 46
0.0
 47
0.0
 48
0.0
 49
0.0
140
0.0
141
0.0
142
1.0
143
1.0
 70
   688
 72
     0
 73
     0
 74
     5
  7

 75
    16
147
1.0
 76
     0
 77
     2
 78
   300
148
0.0
149
0.0
100
AcDbLayout
  1
Layout1
 70
     1
 71
     1
 10
0.0
 20
0.0
 11
12.0
 21
9.0
 12
0.0
 22
0.0
 32
0.0
 14
0.0
 24
0.0
 34
0.0
 15
0.0
 25
0.0
 35
0.0
146
0.0
 13
0.0
 23
0.0
 33
0.0
 16
1.0
 26
0.0
 36
0.0
 17
0.0
 27
1.0
 37
0.0
 76
     0
330
6C
  0
LAYOUT
  5
77
102
{ACAD_REACTORS
330
62
102
}
330
62
100
AcDbPlotSettings
  1

  2

  4

  6

 40
0.0
 41
0.0
 42
0.0
 43
0.0
 44
0.0
 45
0.0
 46
0.0
 47
0.0
 48
0.0
 49
0.0
140
0.0
141
0.0
142
1.0
143
1.0
 70
   688
 72
     0
 73
     0
 74
     5
  7

 75
    16
147
1.0
 76
     0
 77
     2
 78
   300
148
0.0
149
0.0
100
AcDbLayout
  1
Layout2
 70
     1
 71
     2
 10
0.0
 20
0.0
 11
12.0
 21
9.0
 12
0.0
 22
0.0
 32
0.0
 14
0.0
 24
0.0
 34
0.0
 15
0.0
 25
0.0
 35
0.0
146
0.0
 13
0.0
 23
0.0
 33
0.0
 16
1.0
 26
0.0
 36
0.0
 17
0.0
 27
1.0
 37
0.0
 76
     0
330
74
  0
LAYOUT
  5
73
102
{ACAD_REACTORS
330
62
102
}
330
62
100
AcDbPlotSettings
  1

  2

  4

  6

 40
0.0
 41
0.0
 42
0.0
 43
0.0
 44
0.0
 45
0.0
 46
0.0
 47
0.0
 48
0.0
 49
0.0
140
0.0
141
0.0
142
1.0
143
1.0
 70
  1712
 72
     0
 73
     0
 74
     0
  7

 75
     0
147
1.0
 76
     0
 77
     2
 78
   300
148
0.0
149
0.0
100
AcDbLayout
  1
Model
 70
     1
 71
     0
 10
0.0
 20
0.0
 11
12.0
 21
9.0
 12
0.0
 22
0.0
 32
0.0
 14
0.0
 24
0.0
 34
0.0
 15
0.0
 25
0.0
 35
0.0
146
0.0
 13
0.0
 23
0.0
 33
0.0
 16
1.0
 26
0.0
 36
0.0
 17
0.0
 27
1.0
 37
0.0
 76
     0
330
70
  0
MATERIAL
  5
19
102
{ACAD_XDICTIONARY
360
1A
102
}
102
{ACAD_REACTORS
330
10
102
}
330
10
100
AcDbMaterial
  1
ByBlock
 72
     0
 43
0.0208333333333333
 43
0.0
 43
0.0
 43
0.0
 43
0.0
 43
0.0208333333333333
 43
0.0
 43
0.0
 43
0.0
 43
0.0
 43
1.0
 43
0.0
 43
0.0
 43
0.0
 43
0.0
 43
1.0
 77
     0
 47
0.0208333333333333
 47
0.0
 47
0.0
 47
0.0
 47
0.0
 47
0.0208333333333333
 47
0.0
 47
0.0
 47
0.0
 47
0.0
 47
1.0
 47
0.0
 47
0.0
 47
0.0
 47
0.0
 47
1.0
171
     0
 49
0.0208333333333333
 49
0.0
 49
0.0
 49
0.0
 49
0.0
 49
0.0208333333333333
 49
0.0
 49
0.0
 49
0.0
 49
0.0
 49
1.0
 49
0.0
 49
0.0
 49
0.0
 49
0.0
 49
1.0
175
     0
142
0.0208333333333333
142
0.0
142
0.0
142
0.0
142
0.0
142
0.0208333333333333
142
0.0
142
0.0
142
0.0
142
0.0
142
1.0
142
0.0
142
0.0
142
0.0
142
0.0
142
1.0
179
     0
144
0.0208333333333333
144
0.0
144
0.0
144
0.0
144
0.0
144
0.0208333333333333
144
0.0
144
0.0
144
0.0
144
0.0
144
1.0
144
0.0
144
0.0
144
0.0
144
0.0
144
1.0
147
0.0208333333333333
147
0.0
147
0.0
147
0.0
147
0.0
147
0.0208333333333333
147
0.0
147
0.0
147
0.0
147
0.0
147
1.0
147
0.0
147
0.0
147
0.0
147
0.0
147
1.0
  0
MATERIAL
  5
11
102
{ACAD_XDICTIONARY
360
12
102
}
102
{ACAD_REACTORS
330
10
102
}
330
10
100
AcDbMaterial
  1
ByLayer
 72
     0
 43
0.0208333333333333
 43
0.0
 43
0.0
 43
0.0
 43
0.0
 43
0.0208333333333333
 43
0.0
 43
0.0
 43
0.0
 43
0.0
 43
1.0
 43
0.0
 43
0.0
 43
0.0
 43
0.0
 43
1.0
 77
     0
 47
0.0208333333333333
 47
0.0
 47
0.0
 47
0.0
 47
0.0
 47
0.0208333333333333
 47
0.0
 47
0.0
 47
0.0
 47
0.0
 47
1.0
 47
0.0
 47
0.0
 47
0.0
 47
0.0
 47
1.0
171
     0
 49
0.0208333333333333
 49
0.0
 49
0.0
 49
0.0
 49
0.0
 49
0.0208333333333333
 49
0.0
 49
0.0
 49
0.0
 49
0.0
 49
1.0
 49
0.0
 49
0.0
 49
0.0
 49
0.0
 49
1.0
175
     0
142
0.0208333333333333
142
0.0
142
0.0
142
0.0
142
0.0
142
0.0208333333333333
142
0.0
142
0.0
142
0.0
142
0.0
142
1.0
142
0.0
142
0.0
142
0.0
142
0.0
142
1.0
179
     0
144
0.0208333333333333
144
0.0
144
0.0
144
0.0
144
0.0
144
0.0208333333333333
144
0.0
144
0.0
144
0.0
144
0.0
144
1.0
144
0.0
144
0.0
144
0.0
144
0.0
144
1.0
147
0.0208333333333333
147
0.0
147
0.0
147
0.0
147
0.0
147
0.0208333333333333
147
0.0
147
0.0
147
0.0
147
0.0
147
1.0
147
0.0
147
0.0
147
0.0
147
0.0
147
1.0
  0
MATERIAL
  5
21
102
{ACAD_XDICTIONARY
360
22
102
}
102
{ACAD_REACTORS
330
10
102
}
330
10
100
AcDbMaterial
  1
Global
 72
     0
 43
0.0208333333333333
 43
0.0
 43
0.0
 43
0.0
 43
0.0
 43
0.0208333333333333
 43
0.0
 43
0.0
 43
0.0
 43
0.0
 43
1.0
 43
0.0
 43
0.0
 43
0.0
 43
0.0
 43
1.0
 77
     0
 47
0.0208333333333333
 47
0.0
 47
0.0
 47
0.0
 47
0.0
 47
0.0208333333333333
 47
0.0
 47
0.0
 47
0.0
 47
0.0
 47
1.0
 47
0.0
 47
0.0
 47
0.0
 47
0.0
 47
1.0
171
     0
 49
0.0208333333333333
 49
0.0
 49
0.0
 49
0.0
 49
0.0
 49
0.0208333333333333
 49
0.0
 49
0.0
 49
0.0
 49
0.0
 49
1.0
 49
0.0
 49
0.0
 49
0.0
 49
0.0
 49
1.0
175
     0
142
0.0208333333333333
142
0.0
142
0.0
142
0.0
142
0.0
142
0.0208333333333333
142
0.0
142
0.0
142
0.0
142
0.0
142
1.0
142
0.0
142
0.0
142
0.0
142
0.0
142
1.0
179
     0
144
0.0208333333333333
144
0.0
144
0.0
144
0.0
144
0.0
144
0.0208333333333333
144
0.0
144
0.0
144
0.0
144
0.0
144
1.0
144
0.0
144
0.0
144
0.0
144
0.0
144
1.0
147
0.0208333333333333
147
0.0
147
0.0
147
0.0
147
0.0
147
0.0208333333333333
147
0.0
147
0.0
147
0.0
147
0.0
147
1.0
147
0.0
147
0.0
147
0.0
147
0.0
147
1.0
  0
MLEADERSTYLE
  5
67
102
{ACAD_REACTORS
330
66
102
}
330
66
100
AcDbMLeaderStyle
179
     2
170
     2
171
     1
172
     0
 90
        2
 40
0.0
 41
0.0
173
     1
 91
-1056964608
340
5B
 92
       -2
290
     1
 42
0.09
291
     1
 43
0.36
  3
Standard
 44
0.18
300

342
55
174
     1
178
     6
175
     1
176
     0
 93
-1056964608
 45
0.18
292
     0
297
     0
 46
0.18
 94
-1056964608
 47
1.0
 49
1.0
140
1.0
293
     1
141
0.0
294
     1
177
     0
142
1.0
295
     0
296
     0
143
0.125
271
     0
272
     9
273
     9
298
     1
  0
MLINESTYLE
  5
60
102
{ACAD_REACTORS
330
5F
102
}
330
5F
100
AcDbMlineStyle
  2
STANDARD
 70
     0
  3

 62
   256
 51
90.0
 52
90.0
 71
     2
 49
0.5
 62
   256
  6
BYLAYER
 49
-0.5
 62
   256
  6
BYLAYER
  0
ACDBPLACEHOLDER
  5
F
102
{ACAD_REACTORS
330
E
102
}
330
E
  0
SCALE
  5
43
102
{ACAD_REACTORS
330
42
102
}
330
42
100
AcDbScale
 70
     0
300
1:1
140
1.0
141
1.0
290
     1
  0
SCALE
  5
44
102
{ACAD_REACTORS
330
42
102
}
330
42
100
AcDbScale
 70
     0
300
1/128" = 1'-0"
140
0.0078125
141
12.0
290
     0
  0
SCALE
  5
45
102
{ACAD_REACTORS
330
42
102
}
330
42
100
AcDbScale
 70
     0
300
1/64" = 1'-0"
140
0.015625
141
12.0
290
     0
  0
SCALE
  5
46
102
{ACAD_REACTORS
330
42
102
}
330
42
100
AcDbScale
 70
     0
300
1/32" = 1'-0"
140
0.03125
141
12.0
290
     0
  0
SCALE
  5
47
102
{ACAD_REACTORS
330
42
102
}
330
42
100
AcDbScale
 70
     0
300
1/16" = 1'-0"
140
0.0625
141
12.0
290
     0
  0
SCALE
  5
48
102
{ACAD_REACTORS
330
42
102
}
330
42
100
AcDbScale
 70
     0
300
3/32" = 1'-0"
140
0.09375
141
12.0
290
     0
  0
SCALE
  5
49
102
{ACAD_REACTORS
330
42
102
}
330
42
100
AcDbScale
 70
     0
300
1/8" = 1'-0"
140
0.125
141
12.0
290
     0
  0
SCALE
  5
4A
102
{ACAD_REACTORS
330
42
102
}
330
42
100
AcDbScale
 70
     0
300
3/16" = 1'-0"
140
0.1875
141
12.0
290
     0
  0
SCALE
  5
4B
102
{ACAD_REACTORS
330
42
102
}
330
42
100
AcDbScale
 70
     0
300
1/4" = 1'-0"
140
0.25
141
12.0
290
     0
  0
SCALE
  5
4C
102
{ACAD_REACTORS
330
42
102
}
330
42
100
AcDbScale
 70
     0
300
3/8" = 1'-0"
140
0.375
141
12.0
290
     0
  0
SCALE
  5
4D
102
{ACAD_REACTORS
330
42
102
}
330
42
100
AcDbScale
 70
     0
300
1/2" = 1'-0"
140
0.5
141
12.0
290
     0
  0
SCALE
  5
4E
102
{ACAD_REACTORS
330
42
102
}
330
42
100
AcDbScale
 70
     0
300
3/4" = 1'-0"
140
0.75
141
12.0
290
     0
  0
SCALE
  5
4F
102
{ACAD_REACTORS
330
42
102
}
330
42
100
AcDbScale
 70
     0
300
1" = 1'-0"
140
1.0
141
12.0
290
     0
  0
SCALE
  5
50
102
{ACAD_REACTORS
330
42
102
}
330
42
100
AcDbScale
 70
     0
300
1-1/2" = 1'-0"
140
1.5
141
12.0
290
     0
  0
SCALE
  5
51
102
{ACAD_REACTORS
330
42
102
}
330
42
100
AcDbScale
 70
     0
300
3" = 1'-0"
140
3.0
141
12.0
290
     0
  0
SCALE
  5
52
102
{ACAD_REACTORS
330
42
102
}
330
42
100
AcDbScale
 70
     0
300
6" = 1'-0"
140
6.0
141
12.0
290
     0
  0
SCALE
  5
53
102
{ACAD_REACTORS
330
42
102
}
330
42
100
AcDbScale
 70
     0
300
1'-0" = 1'-0"
140
12.0
141
12.0
290
     0
  0
ACDBSECTIONVIEWSTYLE
  5
69
102
{ACAD_XDICTIONARY
360
87
102
}
102
{ACAD_REACTORS
330
68
102
}
330
68
100
AcDbModelDocViewStyle
 70
     0
  3
Imperial24
290
     0
100
AcDbSectionViewStyle
 70
     0
 71
     0
 90
       78
 71
     1
340
55
 62
   256
 40
0.24
340
0
340
0
 62
   256
 40
0.24
300
I, O, Q, S, X, Z
 40
0.48
 90
        3
 40
0.18
 90
        1
 71
     2
340
5D
 90
       25
 62
   256
340
5D
 90
       50
 62
   256
 40
0.24
 40
0.0
 40
0.24
 71
     3
340
55
 62
   256
 40
0.24
 90
        1
 40
0.75
 90
        1
300
%<\AcVar ViewType \f "%tc1">% %<\AcVar ViewSectionStartId>%-%<\AcVar ViewSectionEndId>%\PSCALE %<\AcVar ViewScale \f "%sn">%
 71
     4
 62
   256
 62
   257
300
ANSI31
 40
1.0
 90
        0
290
     0
290
     0
 90
        6
 40
0.0
 40
1.570796326794896
 40
0.2617993877991494
 40
1.308996938995747
 40
-0.2617993877991494
 40
1.832595714594046
  0
TABLESTYLE
  5
65
102
{ACAD_XDICTIONARY
360
84
102
}
102
{ACAD_REACTORS
330
64
102
}
330
64
100
AcDbTableStyle
280
     0
  3
Standard
 70
     0
 71
     0
 40
0.06
 41
0.06
280
     0
281
     0
  7
Standard
140
0.18
170
     2
 62
     0
 63
     7
283
     0
 90
      512
 91
        0
  1

274
    -2
284
     1
 64
     0
275
    -2
285
     1
 65
     0
276
    -2
286
     1
 66
     0
277
    -2
287
     1
 67
     0
278
    -2
288
     1
 68
     0
279
    -2
289
     1
 69
     0
  7
Standard
140
0.25
170
     5
 62
     0
 63
     7
283
     0
 90
      512
 91
        0
  1

274
    -2
284
     1
 64
     0
275
    -2
285
     1
 65
     0
276
    -2
286
     1
 66
     0
277
    -2
287
     1
 67
     0
278
    -2
288
     1
 68
     0
279
    -2
289
     1
 69
     0
  7
Standard
140
0.18
170
     5
 62
     0
 63
     7
283
     0
 90
      512
 91
        0
  1

274
    -2
284
     1
 64
     0
275
    -2
285
     1
 65
     0
276
    -2
286
     1
 66
     0
277
    -2
287
     1
 67
     0
278
    -2
288
     1
 68
     0
279
    -2
289
     1
 69
     0
  0
VISUALSTYLE
  5
2F
102
{ACAD_REACTORS
330
29
102
}
330
29
100
AcDbVisualStyle
  2
2dWireframe
 70
     4
177
     3
291
     0
 70
    58
 90
        0
176
     1
 90
        2
176
     1
 90
        0
176
     1
 90
        0
176
     1
 40
0.6
176
     1
 40
30.0
176
     1
 62
     7
420
 16777215
176
     1
 90
        1
176
     1
 90
        4
176
     1
 62
     7
176
     1
 62
   257
176
     1
 90
        1
176
     1
 90
        1
176
     1
 40
1.0
176
     1
 90
        0
176
     1
 62
   257
176
     1
 40
1.0
176
     1
 90
        1
176
     1
 90
        6
176
     1
 90
        2
176
     1
 62
     7
176
     1
 90
        5
176
     1
 90
        0
176
     1
 90
        0
176
     1
290
     0
176
     1
 90
        1
176
     1
 40
0.0
176
     1
 90
        0
176
     1
290
     1
176
     1
290
     1
176
     1
290
     0
176
     1
290
     0
176
     1
290
     0
176
     1
290
     0
176
     1
290
     0
176
     1
290
     0
176
     1
290
     0
176
     1
 90
       50
176
     1
 40
0.0
176
     1
 40
1.0
176
     1
 90
        0
176
     1
 62
    18
420
        0
176
     1
 90
       50
176
     1
 90
        3
176
     1
 62
     5
420
      255
176
     1
290
     0
176
     1
 90
       50
176
     1
 90
       50
176
     1
 90
       50
176
     1
290
     0
176
     1
 90
       50
176
     1
 62
   256
176
     0
 40
1.0
176
     0
 90
        2
176
     1
  1
strokes_ogs.tif
176
     1
290
     0
176
     1
 40
1.0
176
     1
 40
1.0
176
     1
1001
ACAD
1000
AcDbSavedByObjectVersion
1070
     0
  0
VISUALSTYLE
  5
2E
102
{ACAD_REACTORS
330
29
102
}
330
29
100
AcDbVisualStyle
  2
Basic
 70
     7
177
     3
291
     1
 70
    58
 90
        1
176
     1
 90
        0
176
     1
 90
        1
176
     1
 90
        0
176
     1
 40
0.6
176
     1
 40
30.0
176
     1
 62
     7
420
 16777215
176
     1
 90
        0
176
     1
 90
        4
176
     1
 62
     7
176
     1
 62
   257
176
     1
 90
        1
176
     1
 90
        1
176
     1
 40
1.0
176
     1
 90
        8
176
     1
 62
     7
176
     1
 40
1.0
176
     1
 90
        1
176
     1
 90
        6
176
     1
 90
        2
176
     1
 62
     7
176
     1
 90
        5
176
     1
 90
        0
176
     1
 90
        0
176
     1
290
     0
176
     1
 90
        1
176
     1
 40
0.0
176
     1
 90
        0
176
     1
290
     0
176
     1
290
     1
176
     1
290
     1
176
     1
290
     0
176
     1
290
     0
176
     1
290
     0
176
     1
290
     0
176
     1
290
     0
176
     1
290
     0
176
     1
 90
       50
176
     1
 40
0.0
176
     1
 40
1.0
176
     1
 90
        0
176
     1
 62
    18
420
        0
176
     1
 90
       50
176
     1
 90
        3
176
     1
 62
     5
420
      255
176
     1
290
     0
176
     1
 90
       50
176
     1
 90
       50
176
     1
 90
       50
176
     1
290
     0
176
     1
 90
       50
176
     1
 62
   256
176
     0
 40
1.0
176
     0
 90
        2
176
     1
  1
strokes_ogs.tif
176
     1
290
     0
176
     1
 40
1.0
176
     1
 40
1.0
176
     1
1001
ACAD
1000
AcDbSavedByObjectVersion
1070
     0
  0
VISUALSTYLE
  5
35
102
{ACAD_REACTORS
330
29
102
}
330
29
100
AcDbVisualStyle
  2
Brighten
 70
    12
177
     3
291
     1
 70
    58
 90
        2
176
     1
 90
        2
176
     1
 90
        0
176
     1
 90
        0
176
     1
 40
0.6
176
     1
 40
30.0
176
     1
 62
     7
420
 16777215
176
     1
 90
        1
176
     1
 90
        4
176
     1
 62
     7
176
     1
 62
   257
176
     1
 90
        1
176
     1
 90
        1
176
     1
 40
1.0
176
     1
 90
        8
176
     1
 62
     7
176
     1
 40
1.0
176
     1
 90
        1
176
     1
 90
        6
176
     1
 90
        2
176
     1
 62
     7
176
     1
 90
        5
176
     1
 90
        0
176
     1
 90
        0
176
     1
290
     0
176
     1
 90
        1
176
     1
 40
50.0
176
     1
 90
        0
176
     1
290
     0
176
     1
290
     1
176
     1
290
     1
176
     1
290
     0
176
     1
290
     0
176
     1
290
     0
176
     1
290
     0
176
     1
290
     0
176
     1
290
     0
176
     1
 90
       50
176
     1
 40
0.0
176
     1
 40
1.0
176
     1
 90
        0
176
     1
 62
    18
420
        0
176
     1
 90
       50
176
     1
 90
        3
176
     1
 62
     5
420
      255
176
     1
290
     0
176
     1
 90
       50
176
     1
 90
       50
176
     1
 90
       50
176
     1
290
     0
176
     1
 90
       50
176
     1
 62
   256
176
     0
 40
1.0
176
     0
 90
        2
176
     1
  1
strokes_ogs.tif
176
     1
290
     0
176
     1
 40
1.0
176
     1
 40
1.0
176
     1
1001
ACAD
1000
AcDbSavedByObjectVersion
1070
     0
  0
VISUALSTYLE
  5
39
102
{ACAD_REACTORS
330
29
102
}
330
29
100
AcDbVisualStyle
  2
ColorChange
 70
    16
177
     3
291
     1
 70
    58
 90
        2
176
     1
 90
        2
176
     1
 90
        3
176
     1
 90
        0
176
     1
 40
0.6
176
     1
 40
30.0
176
     1
 62
     8
420
  8421504
176
     1
 90
        1
176
     1
 90
        4
176
     1
 62
     7
176
     1
 62
   257
176
     1
 90
        1
176
     1
 90
        1
176
     1
 40
1.0
176
     1
 90
        8
176
     1
 62
     8
420
  8421504
176
     1
 40
1.0
176
     1
 90
        1
176
     1
 90
        6
176
     1
 90
        2
176
     1
 62
     7
176
     1
 90
        5
176
     1
 90
        0
176
     1
 90
        0
176
     1
290
     0
176
     1
 90
        1
176
     1
 40
0.0
176
     1
 90
        0
176
     1
290
     0
176
     1
290
     1
176
     1
290
     1
176
     1
290
     0
176
     1
290
     0
176
     1
290
     0
176
     1
290
     0
176
     1
290
     0
176
     1
290
     0
176
     1
 90
       50
176
     1
 40
0.0
176
     1
 40
1.0
176
     1
 90
        0
176
     1
 62
    18
420
        0
176
     1
 90
       50
176
     1
 90
        3
176
     1
 62
     5
420
      255
176
     1
290
     0
176
     1
 90
       50
176
     1
 90
       50
176
     1
 90
       50
176
     1
290
     0
176
     1
 90
       50
176
     1
 62
   256
176
     0
 40
1.0
176
     0
 90
        2
176
     1
  1
strokes_ogs.tif
176
     1
290
     0
176
     1
 40
1.0
176
     1
 40
1.0
176
     1
1001
ACAD
1000
AcDbSavedByObjectVersion
1070
     0
  0
VISUALSTYLE
  5
32
102
{ACAD_REACTORS
330
29
102
}
330
29
100
AcDbVisualStyle
  2
Conceptual
 70
     9
177
     3
291
     0
 70
    58
 90
        3
176
     1
 90
        2
176
     1
 90
        0
176
     1
 90
        0
176
     1
 40
0.6
176
     1
 40
30.0
176
     1
 62
     7
420
 16777215
176
     1
 90
        2
176
     1
 90
        2
176
     1
 62
     7
176
     1
 62
   257
176
     1
 90
        1
176
     1
 90
        1
176
     1
 40
179.0
176
     1
 90
        8
176
     1
 62
     7
176
     1
 40
1.0
176
     1
 90
        1
176
     1
 90
        6
176
     1
 90
        2
176
     1
 62
     7
176
     1
 90
        3
176
     1
 90
        0
176
     1
 90
        0
176
     1
290
     0
176
     1
 90
        1
176
     1
 40
0.0
176
     1
 90
        0
176
     1
290
     0
176
     1
290
     1
176
     1
290
     1
176
     1
290
     0
176
     1
290
     0
176
     1
290
     0
176
     1
290
     0
176
     1
290
     0
176
     1
290
     0
176
     1
 90
       50
176
     1
 40
0.0
176
     1
 40
1.0
176
     1
 90
        0
176
     1
 62
    18
420
        0
176
     1
 90
       50
176
     1
 90
        3
176
     1
 62
     5
420
      255
176
     1
290
     0
176
     1
 90
       50
176
     1
 90
       50
176
     1
 90
       50
176
     1
290
     0
176
     1
 90
       50
176
     1
 62
   256
176
     0
 40
1.0
176
     0
 90
        2
176
     1
  1
strokes_ogs.tif
176
     1
290
     0
176
     1
 40
1.0
176
     1
 40
1.0
176
     1
1001
ACAD
1000
AcDbSavedByObjectVersion
1070
     0
  0
VISUALSTYLE
  5
34
102
{ACAD_REACTORS
330
29
102
}
330
29
100
AcDbVisualStyle
  2
Dim
 70
    11
177
     3
291
     1
 70
    58
 90
        2
176
     1
 90
        2
176
     1
 90
        0
176
     1
 90
        0
176
     1
 40
0.6
176
     1
 40
30.0
176
     1
 62
     7
420
 16777215
176
     1
 90
        1
176
     1
 90
        4
176
     1
 62
     7
176
     1
 62
   257
176
     1
 90
        1
176
     1
 90
        1
176
     1
 40
1.0
176
     1
 90
        8
176
     1
 62
     7
176
     1
 40
1.0
176
     1
 90
        1
176
     1
 90
        6
176
     1
 90
        2
176
     1
 62
     7
176
     1
 90
        5
176
     1
 90
        0
176
     1
 90
        0
176
     1
290
     0
176
     1
 90
        1
176
     1
 40
-50.0
176
     1
 90
        0
176
     1
290
     0
176
     1
290
     1
176
     1
290
     1
176
     1
290
     0
176
     1
290
     0
176
     1
290
     0
176
     1
290
     0
176
     1
290
     0
176
     1
290
     0
176
     1
 90
       50
176
     1
 40
0.0
176
     1
 40
1.0
176
     1
 90
        0
176
     1
 62
    18
420
        0
176
     1
 90
       50
176
     1
 90
        3
176
     1
 62
     5
420
      255
176
     1
290
     0
176
     1
 90
       50
176
     1
 90
       50
176
     1
 90
       50
176
     1
290
     0
176
     1
 90
       50
176
     1
 62
   256
176
     0
 40
1.0
176
     0
 90
        2
176
     1
  1
strokes_ogs.tif
176
     1
290
     0
176
     1
 40
1.0
176
     1
 40
1.0
176
     1
1001
ACAD
1000
AcDbSavedByObjectVersion
1070
     0
  0
VISUALSTYLE
  5
41
102
{ACAD_REACTORS
330
29
102
}
330
29
100
AcDbVisualStyle
  2
EdgeColorOff
 70
    22
177
     3
291
     1
 70
    58
 90
        2
176
     0
 90
        2
176
     0
 90
        0
176
     0
 90
        0
176
     0
 40
0.6
176
     0
 40
30.0
176
     0
 62
     7
420
 16777215
176
     0
 90
        1
176
     0
 90
        4
176
     0
 62
     7
176
     0
 62
   257
176
     0
 90
        1
176
     0
 90
        1
176
     0
 40
1.0
176
     0
 90
        8
176
     2
 62
     7
176
     0
 40
1.0
176
     0
 90
        1
176
     0
 90
        6
176
     0
 90
        2
176
     0
 62
     7
176
     0
 90
        5
176
     0
 90
        0
176
     0
 90
        0
176
     0
290
     0
176
     0
 90
        1
176
     0
 40
0.0
176
     0
 90
        0
176
     0
290
     0
176
     0
290
     1
176
     0
290
     1
176
     0
290
     0
176
     0
290
     0
176
     0
290
     0
176
     0
290
     0
176
     0
290
     0
176
     0
290
     0
176
     0
 90
       50
176
     0
 40
0.0
176
     0
 40
1.0
176
     0
 90
        0
176
     0
 62
    18
420
        0
176
     0
 90
       50
176
     0
 90
        3
176
     0
 62
     5
420
      255
176
     0
290
     0
176
     0
 90
       50
176
     0
 90
       50
176
     0
 90
       50
176
     0
290
     0
176
     0
 90
       50
176
     0
 62
   256
176
     0
 40
1.0
176
     0
 90
        2
176
     0
  1
strokes_ogs.tif
176
     0
290
     0
176
     0
 40
1.0
176
     0
 40
1.0
176
     0
1001
ACAD
1000
AcDbSavedByObjectVersion
1070
     0
  0
VISUALSTYLE
  5
38
102
{ACAD_REACTORS
330
29
102
}
330
29
100
AcDbVisualStyle
  2
Facepattern
 70
    15
177
     3
291
     1
 70
    58
 90
        2
176
     1
 90
        2
176
     1
 90
        0
176
     1
 90
        0
176
     1
 40
0.6
176
     1
 40
30.0
176
     1
 62
     7
420
 16777215
176
     1
 90
        1
176
     1
 90
        4
176
     1
 62
     7
176
     1
 62
   257
176
     1
 90
        1
176
     1
 90
        1
176
     1
 40
1.0
176
     1
 90
        8
176
     1
 62
     7
176
     1
 40
1.0
176
     1
 90
        1
176
     1
 90
        6
176
     1
 90
        2
176
     1
 62
     7
176
     1
 90
        5
176
     1
 90
        0
176
     1
 90
        0
176
     1
290
     0
176
     1
 90
        1
176
     1
 40
0.0
176
     1
 90
        0
176
     1
290
     0
176
     1
290
     1
176
     1
290
     1
176
     1
290
     0
176
     1
290
     0
176
     1
290
     0
176
     1
290
     0
176
     1
290
     0
176
     1
290
     0
176
     1
 90
       50
176
     1
 40
0.0
176
     1
 40
1.0
176
     1
 90
        0
176
     1
 62
    18
420
        0
176
     1
 90
       50
176
     1
 90
        3
176
     1
 62
     5
420
      255
176
     1
290
     0
176
     1
 90
       50
176
     1
 90
       50
176
     1
 90
       50
176
     1
290
     0
176
     1
 90
       50
176
     1
 62
   256
176
     0
 40
1.0
176
     0
 90
        2
176
     1
  1
strokes_ogs.tif
176
     1
290
     0
176
     1
 40
1.0
176
     1
 40
1.0
176
     1
1001
ACAD
1000
AcDbSavedByObjectVersion
1070
     0
  0
VISUALSTYLE
  5
2A
102
{ACAD_REACTORS
330
29
102
}
330
29
100
AcDbVisualStyle
  2
Flat
 70
     0
177
     3
291
     1
 70
    58
 90
        2
176
     1
 90
        1
176
     1
 90
        1
176
     1
 90
        2
176
     1
 40
0.6
176
     1
 40
30.0
176
     1
 62
     7
420
 16777215
176
     1
 90
        0
176
     1
 90
        0
176
     1
 62
     7
176
     1
 62
   257
176
     1
 90
        1
176
     1
 90
        1
176
     1
 40
1.0
176
     1
 90
        8
176
     1
 62
     7
176
     1
 40
1.0
176
     1
 90
        1
176
     1
 90
        6
176
     1
 90
        2
176
     1
 62
     7
176
     1
 90
        5
176
     1
 90
        0
176
     1
 90
        0
176
     1
290
     0
176
     1
 90
       13
176
     1
 40
0.0
176
     1
 90
        0
176
     1
290
     0
176
     1
290
     1
176
     1
290
     1
176
     1
290
     0
176
     1
290
     0
176
     1
290
     0
176
     1
290
     0
176
     1
290
     0
176
     1
290
     0
176
     1
 90
       50
176
     1
 40
0.0
176
     1
 40
1.0
176
     1
 90
        0
176
     1
 62
    18
420
        0
176
     1
 90
       50
176
     1
 90
        3
176
     1
 62
     5
420
      255
176
     1
290
     0
176
     1
 90
       50
176
     1
 90
       50
176
     1
 90
       50
176
     1
290
     0
176
     1
 90
       50
176
     1
 62
   256
176
     0
 40
1.0
176
     0
 90
        2
176
     1
  1
strokes_ogs.tif
176
     1
290
     0
176
     1
 40
1.0
176
     1
 40
1.0
176
     1
1001
ACAD
1000
AcDbSavedByObjectVersion
1070
     0
  0
VISUALSTYLE
  5
2B
102
{ACAD_REACTORS
330
29
102
}
330
29
100
AcDbVisualStyle
  2
FlatWithEdges
 70
     1
177
     3
291
     1
 70
    58
 90
        2
176
     1
 90
        1
176
     1
 90
        1
176
     1
 90
        2
176
     1
 40
0.6
176
     1
 40
30.0
176
     1
 62
     7
420
 16777215
176
     1
 90
        1
176
     1
 90
        0
176
     1
 62
     7
176
     1
 62
   257
176
     1
 90
        1
176
     1
 90
        1
176
     1
 40
1.0
176
     1
 90
        0
176
     1
 62
   257
176
     1
 40
1.0
176
     1
 90
        1
176
     1
 90
        6
176
     1
 90
        2
176
     1
 62
     7
176
     1
 90
        5
176
     1
 90
        0
176
     1
 90
        0
176
     1
290
     0
176
     1
 90
       13
176
     1
 40
0.0
176
     1
 90
        0
176
     1
290
     0
176
     1
290
     1
176
     1
290
     1
176
     1
290
     0
176
     1
290
     0
176
     1
290
     0
176
     1
290
     0
176
     1
290
     0
176
     1
290
     0
176
     1
 90
       50
176
     1
 40
0.0
176
     1
 40
1.0
176
     1
 90
        0
176
     1
 62
    18
420
        0
176
     1
 90
       50
176
     1
 90
        3
176
     1
 62
     5
420
      255
176
     1
290
     0
176
     1
 90
       50
176
     1
 90
       50
176
     1
 90
       50
176
     1
290
     0
176
     1
 90
       50
176
     1
 62
   256
176
     0
 40
1.0
176
     0
 90
        2
176
     1
  1
strokes_ogs.tif
176
     1
290
     0
176
     1
 40
1.0
176
     1
 40
1.0
176
     1
1001
ACAD
1000
AcDbSavedByObjectVersion
1070
     0
  0
VISUALSTYLE
  5
2C
102
{ACAD_REACTORS
330
29
102
}
330
29
100
AcDbVisualStyle
  2
Gouraud
 70
     2
177
     3
291
     1
 70
    58
 90
        2
176
     1
 90
        2
176
     1
 90
        1
176
     1
 90
        2
176
     1
 40
0.6
176
     1
 40
30.0
176
     1
 62
     7
420
 16777215
176
     1
 90
        0
176
     1
 90
        0
176
     1
 62
     7
176
     1
 62
   257
176
     1
 90
        1
176
     1
 90
        1
176
     1
 40
1.0
176
     1
 90
        0
176
     1
 62
     7
176
     1
 40
1.0
176
     1
 90
        1
176
     1
 90
        6
176
     1
 90
        2
176
     1
 62
     7
176
     1
 90
        5
176
     1
 90
        0
176
     1
 90
        0
176
     1
290
     0
176
     1
 90
       13
176
     1
 40
0.0
176
     1
 90
        0
176
     1
290
     0
176
     1
290
     1
176
     1
290
     1
176
     1
290
     0
176
     1
290
     0
176
     1
290
     0
176
     1
290
     0
176
     1
290
     0
176
     1
290
     0
176
     1
 90
       50
176
     1
 40
0.0
176
     1
 40
1.0
176
     1
 90
        0
176
     1
 62
    18
420
        0
176
     1
 90
       50
176
     1
 90
        3
176
     1
 62
     5
420
      255
176
     1
290
     0
176
     1
 90
       50
176
     1
 90
       50
176
     1
 90
       50
176
     1
290
     0
176
     1
 90
       50
176
     1
 62
   256
176
     0
 40
1.0
176
     0
 90
        2
176
     1
  1
strokes_ogs.tif
176
     1
290
     0
176
     1
 40
1.0
176
     1
 40
1.0
176
     1
1001
ACAD
1000
AcDbSavedByObjectVersion
1070
     0
  0
VISUALSTYLE
  5
2D
102
{ACAD_REACTORS
330
29
102
}
330
29
100
AcDbVisualStyle
  2
GouraudWithEdges
 70
     3
177
     3
291
     1
 70
    58
 90
        2
176
     1
 90
        2
176
     1
 90
        1
176
     1
 90
        2
176
     1
 40
0.6
176
     1
 40
30.0
176
     1
 62
     7
420
 16777215
176
     1
 90
        1
176
     1
 90
        0
176
     1
 62
     7
176
     1
 62
   257
176
     1
 90
        1
176
     1
 90
        1
176
     1
 40
1.0
176
     1
 90
        0
176
     1
 62
   257
176
     1
 40
1.0
176
     1
 90
        1
176
     1
 90
        6
176
     1
 90
        2
176
     1
 62
     7
176
     1
 90
        5
176
     1
 90
        0
176
     1
 90
        0
176
     1
290
     0
176
     1
 90
       13
176
     1
 40
0.0
176
     1
 90
        0
176
     1
290
     0
176
     1
290
     1
176
     1
290
     1
176
     1
290
     0
176
     1
290
     0
176
     1
290
     0
176
     1
290
     0
176
     1
290
     0
176
     1
290
     0
176
     1
 90
       50
176
     1
 40
0.0
176
     1
 40
1.0
176
     1
 90
        0
176
     1
 62
    18
420
        0
176
     1
 90
       50
176
     1
 90
        3
176
     1
 62
     5
420
      255
176
     1
290
     0
176
     1
 90
       50
176
     1
 90
       50
176
     1
 90
       50
176
     1
290
     0
176
     1
 90
       50
176
     1
 62
   256
176
     0
 40
1.0
176
     0
 90
        2
176
     1
  1
strokes_ogs.tif
176
     1
290
     0
176
     1
 40
1.0
176
     1
 40
1.0
176
     1
1001
ACAD
1000
AcDbSavedByObjectVersion
1070
     0
  0
VISUALSTYLE
  5
31
102
{ACAD_REACTORS
330
29
102
}
330
29
100
AcDbVisualStyle
  2
Hidden
 70
     6
177
     3
291
     0
 70
    58
 90
        1
176
     1
 90
        2
176
     1
 90
        2
176
     1
 90
        0
176
     1
 40
0.6
176
     1
 40
30.0
176
     1
 62
     7
420
 16777215
176
     1
 90
        2
176
     1
 90
        2
176
     1
 62
     7
176
     1
 62
   257
176
     1
 90
        2
176
     1
 90
        1
176
     1
 40
40.0
176
     1
 90
        0
176
     1
 62
   257
176
     1
 40
1.0
176
     1
 90
        1
176
     1
 90
        6
176
     1
 90
        2
176
     1
 62
     7
176
     1
 90
        3
176
     1
 90
        0
176
     1
 90
        0
176
     1
290
     0
176
     1
 90
        1
176
     1
 40
0.0
176
     1
 90
        0
176
     1
290
     0
176
     1
290
     1
176
     1
290
     1
176
     1
290
     0
176
     1
290
     0
176
     1
290
     0
176
     1
290
     0
176
     1
290
     0
176
     1
290
     0
176
     1
 90
       50
176
     1
 40
0.0
176
     1
 40
1.0
176
     1
 90
        0
176
     1
 62
    18
420
        0
176
     1
 90
       50
176
     1
 90
        3
176
     1
 62
     5
420
      255
176
     1
290
     0
176
     1
 90
       50
176
     1
 90
       50
176
     1
 90
       50
176
     1
290
     0
176
     1
 90
       50
176
     1
 62
   256
176
     0
 40
1.0
176
     0
 90
        2
176
     1
  1
strokes_ogs.tif
176
     1
290
     0
176
     1
 40
1.0
176
     1
 40
1.0
176
     1
1001
ACAD
1000
AcDbSavedByObjectVersion
1070
     0
  0
VISUALSTYLE
  5
3F
102
{ACAD_REACTORS
330
29
102
}
330
29
100
AcDbVisualStyle
  2
JitterOff
 70
    20
177
     3
291
     1
 70
    58
 90
        2
176
     0
 90
        2
176
     0
 90
        0
176
     0
 90
        0
176
     0
 40
0.6
176
     0
 40
30.0
176
     0
 62
     7
420
 16777215
176
     0
 90
        1
176
     0
 90
        4
176
     0
 62
     7
176
     0
 62
   257
176
     0
 90
        1
176
     0
 90
        1
176
     0
 40
1.0
176
     0
 90
       10
176
     2
 62
     7
176
     0
 40
1.0
176
     0
 90
        1
176
     0
 90
        6
176
     0
 90
        2
176
     0
 62
     7
176
     0
 90
        5
176
     0
 90
        0
176
     0
 90
        0
176
     0
290
     0
176
     0
 90
        1
176
     0
 40
0.0
176
     0
 90
        0
176
     0
290
     0
176
     0
290
     1
176
     0
290
     1
176
     0
290
     0
176
     0
290
     0
176
     0
290
     0
176
     0
290
     0
176
     0
290
     0
176
     0
290
     0
176
     0
 90
       50
176
     0
 40
0.0
176
     0
 40
1.0
176
     0
 90
        0
176
     0
 62
    18
420
        0
176
     0
 90
       50
176
     0
 90
        3
176
     0
 62
     5
420
      255
176
     0
290
     0
176
     0
 90
       50
176
     0
 90
       50
176
     0
 90
       50
176
     0
290
     0
176
     0
 90
       50
176
     0
 62
   256
176
     0
 40
1.0
176
     0
 90
        2
176
     0
  1
strokes_ogs.tif
176
     0
290
     0
176
     0
 40
1.0
176
     0
 40
1.0
176
     0
1001
ACAD
1000
AcDbSavedByObjectVersion
1070
     0
  0
VISUALSTYLE
  5
37
102
{ACAD_REACTORS
330
29
102
}
330
29
100
AcDbVisualStyle
  2
Linepattern
 70
    14
177
     3
291
     1
 70
    58
 90
        2
176
     1
 90
        2
176
     1
 90
        0
176
     1
 90
        0
176
     1
 40
0.6
176
     1
 40
30.0
176
     1
 62
     7
420
 16777215
176
     1
 90
        1
176
     1
 90
        4
176
     1
 62
     7
176
     1
 62
   257
176
     1
 90
        7
176
     1
 90
        7
176
     1
 40
1.0
176
     1
 90
        8
176
     1
 62
     7
176
     1
 40
1.0
176
     1
 90
        1
176
     1
 90
        6
176
     1
 90
        2
176
     1
 62
     7
176
     1
 90
        5
176
     1
 90
        0
176
     1
 90
        0
176
     1
290
     0
176
     1
 90
        1
176
     1
 40
0.0
176
     1
 90
        0
176
     1
290
     0
176
     1
290
     1
176
     1
290
     1
176
     1
290
     0
176
     1
290
     0
176
     1
290
     0
176
     1
290
     0
176
     1
290
     0
176
     1
290
     0
176
     1
 90
       50
176
     1
 40
0.0
176
     1
 40
1.0
176
     1
 90
        0
176
     1
 62
    18
420
        0
176
     1
 90
       50
176
     1
 90
        3
176
     1
 62
     5
420
      255
176
     1
290
     0
176
     1
 90
       50
176
     1
 90
       50
176
     1
 90
       50
176
     1
290
     0
176
     1
 90
       50
176
     1
 62
   256
176
     0
 40
1.0
176
     0
 90
        2
176
     1
  1
strokes_ogs.tif
176
     1
290
     0
176
     1
 40
1.0
176
     1
 40
1.0
176
     1
1001
ACAD
1000
AcDbSavedByObjectVersion
1070
     0
  0
VISUALSTYLE
  5
40
102
{ACAD_REACTORS
330
29
102
}
330
29
100
AcDbVisualStyle
  2
OverhangOff
 70
    21
177
     3
291
     1
 70
    58
 90
        2
176
     0
 90
        2
176
     0
 90
        0
176
     0
 90
        0
176
     0
 40
0.6
176
     0
 40
30.0
176
     0
 62
     7
420
 16777215
176
     0
 90
        1
176
     0
 90
        4
176
     0
 62
     7
176
     0
 62
   257
176
     0
 90
        1
176
     0
 90
        1
176
     0
 40
1.0
176
     0
 90
        9
176
     2
 62
     7
176
     0
 40
1.0
176
     0
 90
        1
176
     0
 90
        6
176
     0
 90
        2
176
     0
 62
     7
176
     0
 90
        5
176
     0
 90
        0
176
     0
 90
        0
176
     0
290
     0
176
     0
 90
        1
176
     0
 40
0.0
176
     0
 90
        0
176
     0
290
     0
176
     0
290
     1
176
     0
290
     1
176
     0
290
     0
176
     0
290
     0
176
     0
290
     0
176
     0
290
     0
176
     0
290
     0
176
     0
290
     0
176
     0
 90
       50
176
     0
 40
0.0
176
     0
 40
1.0
176
     0
 90
        0
176
     0
 62
    18
420
        0
176
     0
 90
       50
176
     0
 90
        3
176
     0
 62
     5
420
      255
176
     0
290
     0
176
     0
 90
       50
176
     0
 90
       50
176
     0
 90
       50
176
     0
290
     0
176
     0
 90
       50
176
     0
 62
   256
176
     0
 40
1.0
176
     0
 90
        2
176
     0
  1
strokes_ogs.tif
176
     0
290
     0
176
     0
 40
1.0
176
     0
 40
1.0
176
     0
1001
ACAD
1000
AcDbSavedByObjectVersion
1070
     0
  0
VISUALSTYLE
  5
33
102
{ACAD_REACTORS
330
29
102
}
330
29
100
AcDbVisualStyle
  2
Realistic
 70
     8
177
     3
291
     0
 70
    58
 90
        2
176
     1
 90
        3
176
     1
 90
        0
176
     1
 90
        2
176
     1
 40
0.6
176
     1
 40
30.0
176
     1
 62
     7
420
 16777215
176
     1
 90
        0
176
     1
 90
        0
176
     1
 62
     7
176
     1
 62
   257
176
     1
 90
        1
176
     1
 90
        1
176
     1
 40
1.0
176
     1
 90
        8
176
     1
 62
   257
176
     1
 40
1.0
176
     1
 90
        1
176
     1
 90
        6
176
     1
 90
        2
176
     1
 62
     7
176
     1
 90
        3
176
     1
 90
        0
176
     1
 90
        0
176
     1
290
     0
176
     1
 90
       13
176
     1
 40
0.0
176
     1
 90
        0
176
     1
290
     0
176
     1
290
     1
176
     1
290
     1
176
     1
290
     0
176
     1
290
     0
176
     1
290
     0
176
     1
290
     0
176
     1
290
     0
176
     1
290
     0
176
     1
 90
       50
176
     1
 40
0.0
176
     1
 40
1.0
176
     1
 90
        0
176
     1
 62
    18
420
        0
176
     1
 90
       50
176
     1
 90
        3
176
     1
 62
     5
420
      255
176
     1
290
     0
176
     1
 90
       50
176
     1
 90
       50
176
     1
 90
       50
176
     1
290
     0
176
     1
 90
       50
176
     1
 62
   256
176
     0
 40
1.0
176
     0
 90
        2
176
     1
  1
strokes_ogs.tif
176
     1
290
     0
176
     1
 40
1.0
176
     1
 40
1.0
176
     1
1001
ACAD
1000
AcDbSavedByObjectVersion
1070
     0
  0
VISUALSTYLE
  5
3E
102
{ACAD_REACTORS
330
29
102
}
330
29
100
AcDbVisualStyle
  2
Shaded
 70
    27
177
     3
291
     0
 70
    58
 90
        2
176
     1
 90
        2
176
     1
 90
        1
176
     1
 90
        2
176
     1
 40
0.6
176
     1
 40
30.0
176
     1
 62
     7
420
 16777215
176
     1
 90
        0
176
     1
 90
        4
176
     1
 62
     7
176
     1
 62
   257
176
     1
 90
        1
176
     1
 90
        1
176
     1
 40
1.0
176
     1
 90
        8
176
     1
 62
   257
176
     1
 40
1.0
176
     1
 90
        1
176
     1
 90
        6
176
     1
 90
        2
176
     1
 62
     8
420
  7895160
176
     1
 90
        3
176
     1
 90
        0
176
     1
 90
        0
176
     1
290
     0
176
     1
 90
        5
176
     1
 40
0.0
176
     1
 90
        0
176
     1
290
     0
176
     1
290
     1
176
     1
290
     1
176
     1
290
     0
176
     1
290
     0
176
     1
290
     0
176
     1
290
     0
176
     1
290
     0
176
     1
290
     0
176
     1
 90
       50
176
     1
 40
0.0
176
     1
 40
1.0
176
     1
 90
        0
176
     1
 62
    18
420
        0
176
     1
 90
       50
176
     1
 90
        3
176
     1
 62
     5
420
      255
176
     1
290
     0
176
     1
 90
       50
176
     1
 90
       50
176
     1
 90
       50
176
     1
290
     0
176
     1
 90
       50
176
     1
 62
   256
176
     0
 40
1.0
176
     0
 90
        2
176
     1
  1
strokes_ogs.tif
176
     1
290
     0
176
     1
 40
1.0
176
     1
 40
1.0
176
     1
1001
ACAD
1000
AcDbSavedByObjectVersion
1070
     0
  0
VISUALSTYLE
  5
3D
102
{ACAD_REACTORS
330
29
102
}
330
29
100
AcDbVisualStyle
  2
Shaded with edges
 70
    26
177
     3
291
     0
 70
    58
 90
        2
176
     1
 90
        2
176
     1
 90
        1
176
     1
 90
        2
176
     1
 40
0.6
176
     1
 40
30.0
176
     1
 62
     7
420
 16777215
176
     1
 90
        1
176
     1
 90
        2
176
     1
 62
     7
176
     1
 62
   257
176
     1
 90
        2
176
     1
 90
        1
176
     1
 40
1.0
176
     1
 90
        8
176
     1
 62
   257
176
     1
 40
1.0
176
     1
 90
        1
176
     1
 90
        6
176
     1
 90
        2
176
     1
 62
     7
176
     1
 90
        3
176
     1
 90
        0
176
     1
 90
        0
176
     1
290
     0
176
     1
 90
        5
176
     1
 40
0.0
176
     1
 90
        0
176
     1
290
     0
176
     1
290
     1
176
     1
290
     1
176
     1
290
     0
176
     1
290
     0
176
     1
290
     0
176
     1
290
     0
176
     1
290
     0
176
     1
290
     0
176
     1
 90
       50
176
     1
 40
0.0
176
     1
 40
1.0
176
     1
 90
        0
176
     1
 62
    18
420
        0
176
     1
 90
       50
176
     1
 90
        3
176
     1
 62
     5
420
      255
176
     1
290
     0
176
     1
 90
       50
176
     1
 90
       50
176
     1
 90
       50
176
     1
290
     0
176
     1
 90
       50
176
     1
 62
   256
176
     0
 40
1.0
176
     0
 90
        2
176
     1
  1
strokes_ogs.tif
176
     1
290
     0
176
     1
 40
1.0
176
     1
 40
1.0
176
     1
1001
ACAD
1000
AcDbSavedByObjectVersion
1070
     0
  0
VISUALSTYLE
  5
3A
102
{ACAD_REACTORS
330
29
102
}
330
29
100
AcDbVisualStyle
  2
Shades of Gray
 70
    23
177
     3
291
     0
 70
    58
 90
        2
176
     1
 90
        2
176
     1
 90
        3
176
     1
 90
        0
176
     1
 40
0.6
176
     1
 40
30.0
176
     1
 62
     7
420
 16777215
176
     1
 90
        2
176
     1
 90
        2
176
     1
 62
     7
176
     1
 62
     7
176
     1
 90
        1
176
     1
 90
        1
176
     1
 40
40.0
176
     1
 90
        8
176
     1
 62
     7
176
     1
 40
1.0
176
     1
 90
        1
176
     1
 90
        6
176
     1
 90
        2
176
     1
 62
     7
176
     1
 90
        3
176
     1
 90
        0
176
     1
 90
        0
176
     1
290
     0
176
     1
 90
        1
176
     1
 40
0.0
176
     1
 90
        0
176
     1
290
     0
176
     1
290
     1
176
     1
290
     1
176
     1
290
     0
176
     1
290
     0
176
     1
290
     0
176
     1
290
     0
176
     1
290
     0
176
     1
290
     0
176
     1
 90
       50
176
     1
 40
0.0
176
     1
 40
1.0
176
     1
 90
        0
176
     1
 62
    18
420
        0
176
     1
 90
       50
176
     1
 90
        3
176
     1
 62
     5
420
      255
176
     1
290
     0
176
     1
 90
       50
176
     1
 90
       50
176
     1
 90
       50
176
     1
290
     0
176
     1
 90
       50
176
     1
 62
   256
176
     0
 40
1.0
176
     0
 90
        2
176
     1
  1
strokes_ogs.tif
176
     1
290
     0
176
     1
 40
1.0
176
     1
 40
1.0
176
     1
1001
ACAD
1000
AcDbSavedByObjectVersion
1070
     0
  0
VISUALSTYLE
  5
3B
102
{ACAD_REACTORS
330
29
102
}
330
29
100
AcDbVisualStyle
  2
Sketchy
 70
    24
177
     3
291
     0
 70
    58
 90
        1
176
     1
 90
        2
176
     1
 90
        2
176
     1
 90
        0
176
     1
 40
0.6
176
     1
 40
30.0
176
     1
 62
     7
420
 16777215
176
     1
 90
        2
176
     1
 90
        2
176
     1
 62
     7
176
     1
 62
     7
176
     1
 90
        1
176
     1
 90
        1
176
     1
 40
40.0
176
     1
 90
       11
176
     1
 62
     7
176
     1
 40
1.0
176
     1
 90
        1
176
     1
 90
        6
176
     1
 90
        2
176
     1
 62
     7
176
     1
 90
        6
176
     1
 90
        0
176
     1
 90
        0
176
     1
290
     0
176
     1
 90
        1
176
     1
 40
0.0
176
     1
 90
        0
176
     1
290
     0
176
     1
290
     1
176
     1
290
     1
176
     1
290
     0
176
     1
290
     0
176
     1
290
     0
176
     1
290
     0
176
     1
290
     0
176
     1
290
     0
176
     1
 90
       50
176
     1
 40
0.0
176
     1
 40
1.0
176
     1
 90
        0
176
     1
 62
    18
420
        0
176
     1
 90
       50
176
     1
 90
        3
176
     1
 62
     5
420
      255
176
     1
290
     0
176
     1
 90
       50
176
     1
 90
       50
176
     1
 90
       50
176
     1
290
     0
176
     1
 90
       50
176
     1
 62
   256
176
     0
 40
1.0
176
     0
 90
        2
176
     1
  1
strokes_ogs.tif
176
     1
290
     0
176
     1
 40
1.0
176
     1
 40
1.0
176
     1
1001
ACAD
1000
AcDbSavedByObjectVersion
1070
     0
  0
VISUALSTYLE
  5
36
102
{ACAD_REACTORS
330
29
102
}
330
29
100
AcDbVisualStyle
  2
Thicken
 70
    13
177
     3
291
     1
 70
    58
 90
        2
176
     1
 90
        2
176
     1
 90
        0
176
     1
 90
        0
176
     1
 40
0.6
176
     1
 40
30.0
176
     1
 62
     7
420
 16777215
176
     1
 90
        1
176
     1
 90
        4
176
     1
 62
     7
176
     1
 62
   257
176
     1
 90
        1
176
     1
 90
        1
176
     1
 40
1.0
176
     1
 90
       12
176
     1
 62
     7
176
     1
 40
1.0
176
     1
 90
        1
176
     1
 90
        6
176
     1
 90
        2
176
     1
 62
     7
176
     1
 90
        5
176
     1
 90
        0
176
     1
 90
        0
176
     1
290
     0
176
     1
 90
        1
176
     1
 40
0.0
176
     1
 90
        0
176
     1
290
     0
176
     1
290
     1
176
     1
290
     1
176
     1
290
     0
176
     1
290
     0
176
     1
290
     0
176
     1
290
     0
176
     1
290
     0
176
     1
290
     0
176
     1
 90
       50
176
     1
 40
0.0
176
     1
 40
1.0
176
     1
 90
        0
176
     1
 62
    18
420
        0
176
     1
 90
       50
176
     1
 90
        3
176
     1
 62
     5
420
      255
176
     1
290
     0
176
     1
 90
       50
176
     1
 90
       50
176
     1
 90
       50
176
     1
290
     0
176
     1
 90
       50
176
     1
 62
   256
176
     0
 40
1.0
176
     0
 90
        2
176
     1
  1
strokes_ogs.tif
176
     1
290
     0
176
     1
 40
1.0
176
     1
 40
1.0
176
     1
1001
ACAD
1000
AcDbSavedByObjectVersion
1070
     0
  0
VISUALSTYLE
  5
30
102
{ACAD_REACTORS
330
29
102
}
330
29
100
AcDbVisualStyle
  2
Wireframe
 70
     5
177
     3
291
     0
 70
    58
 90
        0
176
     1
 90
        2
176
     1
 90
        0
176
     1
 90
        0
176
     1
 40
0.6
176
     1
 40
30.0
176
     1
 62
     7
420
 16777215
176
     1
 90
        1
176
     1
 90
        4
176
     1
 62
     7
176
     1
 62
   257
176
     1
 90
        1
176
     1
 90
        1
176
     1
 40
1.0
176
     1
 90
        0
176
     1
 62
   257
176
     1
 40
1.0
176
     1
 90
        1
176
     1
 90
        6
176
     1
 90
        2
176
     1
 62
     7
176
     1
 90
        3
176
     1
 90
        0
176
     1
 90
        0
176
     1
290
     0
176
     1
 90
        1
176
     1
 40
0.0
176
     1
 90
        0
176
     1
290
     0
176
     1
290
     1
176
     1
290
     1
176
     1
290
     0
176
     1
290
     0
176
     1
290
     0
176
     1
290
     0
176
     1
290
     0
176
     1
290
     0
176
     1
 90
       50
176
     1
 40
0.0
176
     1
 40
1.0
176
     1
 90
        0
176
     1
 62
    18
420
        0
176
     1
 90
       50
176
     1
 90
        3
176
     1
 62
     5
420
      255
176
     1
290
     0
176
     1
 90
       50
176
     1
 90
       50
176
     1
 90
       50
176
     1
290
     0
176
     1
 90
       50
176
     1
 62
   256
176
     0
 40
1.0
176
     0
 90
        2
176
     1
  1
strokes_ogs.tif
176
     1
290
     0
176
     1
 40
1.0
176
     1
 40
1.0
176
     1
1001
ACAD
1000
AcDbSavedByObjectVersion
1070
     0
  0
VISUALSTYLE
  5
3C
102
{ACAD_REACTORS
330
29
102
}
330
29
100
AcDbVisualStyle
  2
X-Ray
 70
    25
177
     3
291
     0
 70
    58
 90
        2
176
     1
 90
        2
176
     1
 90
        1
176
     1
 90
        1
176
     1
 40
0.5
176
     1
 40
30.0
176
     1
 62
     7
420
 16777215
176
     1
 90
        1
176
     1
 90
        0
176
     1
 62
     7
176
     1
 62
   257
176
     1
 90
        1
176
     1
 90
        1
176
     1
 40
1.0
176
     1
 90
        8
176
     1
 62
     7
176
     1
 40
1.0
176
     1
 90
        1
176
     1
 90
        6
176
     1
 90
        2
176
     1
 62
     7
176
     1
 90
        3
176
     1
 90
        0
176
     1
 90
        0
176
     1
290
     0
176
     1
 90
       13
176
     1
 40
0.0
176
     1
 90
        0
176
     1
290
     0
176
     1
290
     1
176
     1
290
     1
176
     1
290
     0
176
     1
290
     0
176
     1
290
     0
176
     1
290
     0
176
     1
290
     0
176
     1
290
     0
176
     1
 90
       50
176
     1
 40
0.0
176
     1
 40
1.0
176
     1
 90
        0
176
     1
 62
    18
420
        0
176
     1
 90
       50
176
     1
 90
        3
176
     1
 62
     5
420
      255
176
     1
290
     0
176
     1
 90
       50
176
     1
 90
       50
176
     1
 90
       50
176
     1
290
     0
176
     1
 90
       50
176
     1
 62
   256
176
     0
 40
1.0
176
     0
 90
        2
176
     1
  1
strokes_ogs.tif
176
     1
290
     0
176
     1
 40
1.0
176
     1
 40
1.0
176
     1
1001
ACAD
1000
AcDbSavedByObjectVersion
1070
     0
  0
DICTIONARYVAR
  5
83
102
{ACAD_REACTORS
330
7E
102
}
330
7E
100
DictionaryVariables
280
     0
  1
1:1
  0
DICTIONARYVAR
  5
80
102
{ACAD_REACTORS
330
7E
102
}
330
7E
100
DictionaryVariables
280
     0
  1
STANDARD
  0
DICTIONARYVAR
  5
7F
102
{ACAD_REACTORS
330
7E
102
}
330
7E
100
DictionaryVariables
280
     0
  1
STANDARD
  0
DICTIONARYVAR
  5
81
102
{ACAD_REACTORS
330
7E
102
}
330
7E
100
DictionaryVariables
280
     0
  1
Imperial24
  0
DICTIONARYVAR
  5
82
102
{ACAD_REACTORS
330
7E
102
}
330
7E
100
DictionaryVariables
280
     0
  1
Imperial24
  0
DICTIONARY
  5
89
330
6B
100
AcDbDictionary
280
     1
281
     1
  3
ACAD_XREC_ROUNDTRIP
360
8A
  0
DICTIONARY
  5
1A
330
19
100
AcDbDictionary
280
     1
281
     1
  3
BUMPTILE
360
1C
  3
DIFFUSETILE
360
1B
  3
OPACITYTILE
360
1F
  3
REFLECTIONTILE
360
1E
  3
REFRACTIONTILE
360
20
  3
SPECULARTILE
360
1D
  0
DICTIONARY
  5
12
330
11
100
AcDbDictionary
280
     1
281
     1
  3
BUMPTILE
360
14
  3
DIFFUSETILE
360
13
  3
OPACITYTILE
360
17
  3
REFLECTIONTILE
360
16
  3
REFRACTIONTILE
360
18
  3
SPECULARTILE
360
15
  0
DICTIONARY
  5
22
330
21
100
AcDbDictionary
280
     1
281
     1
  3
BUMPTILE
360
24
  3
DIFFUSETILE
360
23
  3
OPACITYTILE
360
27
  3
REFLECTIONTILE
360
26
  3
REFRACTIONTILE
360
28
  3
SPECULARTILE
360
25
  0
DICTIONARY
  5
87
330
69
100
AcDbDictionary
280
     1
281
     1
  3
ACAD_XREC_ROUNDTRIP
360
88
  0
DICTIONARY
  5
84
330
65
100
AcDbDictionary
280
     1
281
     1
  3
ACAD_ROUNDTRIP_2008_TABLESTYLE_CELLSTYLEMAP
360
85
  0
XRECORD
  5
8A
102
{ACAD_REACTORS
330
89
102
}
330
89
100
AcDbXrecord
280
     1
102
DISPLAYNAME
  1
Imperial24
102
FLAGS
 90
        0
  0
XRECORD
  5
1C
102
{ACAD_REACTORS
330
1A
102
}
330
1A
100
AcDbXrecord
280
     1
270
     1
271
     1
  0
XRECORD
  5
1B
102
{ACAD_REACTORS
330
1A
102
}
330
1A
100
AcDbXrecord
280
     1
270
     1
271
     1
  0
XRECORD
  5
1F
102
{ACAD_REACTORS
330
1A
102
}
330
1A
100
AcDbXrecord
280
     1
270
     1
271
     1
  0
XRECORD
  5
1E
102
{ACAD_REACTORS
330
1A
102
}
330
1A
100
AcDbXrecord
280
     1
270
     1
271
     1
  0
XRECORD
  5
20
102
{ACAD_REACTORS
330
1A
102
}
330
1A
100
AcDbXrecord
280
     1
270
     1
271
     1
  0
XRECORD
  5
1D
102
{ACAD_REACTORS
330
1A
102
}
330
1A
100
AcDbXrecord
280
     1
270
     1
271
     1
  0
XRECORD
  5
14
102
{ACAD_REACTORS
330
12
102
}
330
12
100
AcDbXrecord
280
     1
270
     1
271
     1
  0
XRECORD
  5
13
102
{ACAD_REACTORS
330
12
102
}
330
12
100
AcDbXrecord
280
     1
270
     1
271
     1
  0
XRECORD
  5
17
102
{ACAD_REACTORS
330
12
102
}
330
12
100
AcDbXrecord
280
     1
270
     1
271
     1
  0
XRECORD
  5
16
102
{ACAD_REACTORS
330
12
102
}
330
12
100
AcDbXrecord
280
     1
270
     1
271
     1
  0
XRECORD
  5
18
102
{ACAD_REACTORS
330
12
102
}
330
12
100
AcDbXrecord
280
     1
270
     1
271
     1
  0
XRECORD
  5
15
102
{ACAD_REACTORS
330
12
102
}
330
12
100
AcDbXrecord
280
     1
270
     1
271
     1
  0
XRECORD
  5
24
102
{ACAD_REACTORS
330
22
102
}
330
22
100
AcDbXrecord
280
     1
270
     1
271
     1
  0
XRECORD
  5
23
102
{ACAD_REACTORS
330
22
102
}
330
22
100
AcDbXrecord
280
     1
270
     1
271
     1
  0
XRECORD
  5
27
102
{ACAD_REACTORS
330
22
102
}
330
22
100
AcDbXrecord
280
     1
270
     1
271
     1
  0
XRECORD
  5
26
102
{ACAD_REACTORS
330
22
102
}
330
22
100
AcDbXrecord
280
     1
270
     1
271
     1
  0
XRECORD
  5
28
102
{ACAD_REACTORS
330
22
102
}
330
22
100
AcDbXrecord
280
     1
270
     1
271
     1
  0
XRECORD
  5
25
102
{ACAD_REACTORS
330
22
102
}
330
22
100
AcDbXrecord
280
     1
270
     1
271
     1
  0
XRECORD
  5
88
102
{ACAD_REACTORS
330
87
102
}
330
87
100
AcDbXrecord
280
     1
102
DISPLAYNAME
  1
Imperial24
102
FLAGS
 90
        0
  0
CELLSTYLEMAP
  5
85
102
{ACAD_REACTORS
330
84
102
}
330
84
100
AcDbCellStyleMap
 90
        3
300
CELLSTYLE
  1
TABLEFORMAT_BEGIN
 90
        5
170
     1
 91
        0
 92
    32768
 62
   257
 93
        1
300
CONTENTFORMAT
  1
CONTENTFORMAT_BEGIN
 90
        0
 91
        0
 92
      512
 93
        0
300

 40
0.0
140
1.0
 94
        5
 62
     0
340
55
144
0.25
309
CONTENTFORMAT_END
171
     0
 94
        0
309
TABLEFORMAT_END
  1
CELLSTYLE_BEGIN
 90
        1
 91
        1
300
_TITLE
309
CELLSTYLE_END
300
CELLSTYLE
  1
TABLEFORMAT_BEGIN
 90
        5
170
     1
 91
        0
 92
        0
 62
   257
 93
        1
300
CONTENTFORMAT
  1
CONTENTFORMAT_BEGIN
 90
        0
 91
        0
 92
      512
 93
        0
300

 40
0.0
140
1.0
 94
        5
 62
     0
340
55
144
0.18
309
CONTENTFORMAT_END
171
     0
 94
        0
309
TABLEFORMAT_END
  1
CELLSTYLE_BEGIN
 90
        2
 91
        1
300
_HEADER
309
CELLSTYLE_END
300
CELLSTYLE
  1
TABLEFORMAT_BEGIN
 90
        5
170
     1
 91
        0
 92
        0
 62
   257
 93
        1
300
CONTENTFORMAT
  1
CONTENTFORMAT_BEGIN
 90
        0
 91
        0
 92
      512
 93
        0
300

 40
0.0
140
1.0
 94
        2
 62
     0
340
55
144
0.18
309
CONTENTFORMAT_END
171
     0
 94
        0
309
TABLEFORMAT_END
  1
CELLSTYLE_BEGIN
 90
        3
 91
        2
300
_DATA
309
CELLSTYLE_END
  0
ENDSEC
  0
EOF
