  0
SECTION
  2
HEADER
  9
$ACADVER
  1
AC1027
  9
$ACADMAINTVER
 70
   125
  9
$DWGCODEPAGE
  3
ANSI_1252
  9
$REQUIREDVERSIONS
160
                 0
  9
$INSBASE
 10
0.0
 20
0.0
 30
0.0
  9
$EXTMIN
 10
1.000000000000000E+20
 20
1.000000000000000E+20
 30
1.000000000000000E+20
  9
$EXTMAX
 10
-1.000000000000000E+20
 20
-1.000000000000000E+20
 30
-1.000000000000000E+20
  9
$LIMMIN
 10
0.0
 20
0.0
  9
$LIMMAX
 10
12.0
 20
9.0
  9
$ORTHOMODE
 70
     0
  9
$REGENMODE
 70
     1
  9
$FILLMODE
 70
     1
  9
$QTEXTMODE
 70
     0
  9
$MIRRTEXT
 70
     0
  9
$LTSCALE
 40
1.0
  9
$ATTMODE
 70
     1
  9
$TEXTSIZE
 40
0.2
  9
$TRACEWID
 40
0.05
  9
$TEXTSTYLE
  7
Standard
  9
$CLAYER
  8
0
  9
$CELTYPE
  6
ByLayer
  9
$CECOLOR
 62
   256
  9
$CELTSCALE
 40
1.0
  9
$DISPSILH
 70
     0
  9
$DIMSCALE
 40
1.0
  9
$DIMASZ
 40
0.18
  9
$DIMEXO
 40
0.0625
  9
$DIMDLI
 40
0.38
  9
$DIMRND
 40
0.0
  9
$DIMDLE
 40
0.0
  9
$DIMEXE
 40
0.18
  9
$DIMTP
 40
0.0
  9
$DIMTM
 40
0.0
  9
$DIMTXT
 40
0.18
  9
$DIMCEN
 40
0.09
  9
$DIMTSZ
 40
0.0
  9
$DIMTOL
 70
     0
  9
$DIMLIM
 70
     0
  9
$DIMTIH
 70
     1
  9
$DIMTOH
 70
     1
  9
$DIMSE1
 70
     0
  9
$DIMSE2
 70
     0
  9
$DIMTAD
 70
     0
  9
$DIMZIN
 70
     0
  9
$DIMBLK
  1

  9
$DIMASO
 70
     1
  9
$DIMSHO
 70
     1
  9
$DIMPOST
  1

  9
$DIMAPOST
  1

  9
$DIMALT
 70
     0
  9
$DIMALTD
 70
     2
  9
$DIMALTF
 40
25.4
  9
$DIMLFAC
 40
1.0
  9
$DIMTOFL
 70
     0
  9
$DIMTVP
 40
0.0
  9
$DIMTIX
 70
     0
  9
$DIMSOXD
 70
     0
  9
$DIMSAH
 70
     0
  9
$DIMBLK1
  1

  9
$DIMBLK2
  1

  9
$DIMSTYLE
  2
Standard
  9
$DIMCLRD
 70
     0
  9
$DIMCLRE
 70
     0
  9
$DIMCLRT
 70
     0
  9
$DIMTFAC
 40
1.0
  9
$DIMGAP
 40
0.09
  9
$DIMJUST
 70
     0
  9
$DIMSD1
 70
     0
  9
$DIMSD2
 70
     0
  9
$DIMTOLJ
 70
     1
  9
$DIMTZIN
 70
     0
  9
$DIMALTZ
 70
     0
  9
$DIMALTTZ
 70
     0
  9
$DIMUPT
 70
     0
  9
$DIMDEC
 70
     4
  9
$DIMTDEC
 70
     4
  9
$DIMALTU
 70
     2
  9
$DIMALTTD
 70
     2
  9
$DIMTXSTY
  7
Standard
  9
$DIMAUNIT
 70
     0
  9
$DIMADEC
 70
     0
  9
$DIMALTRND
 40
0.0
  9
$DIMAZIN
 70
     0
  9
$DIMDSEP
 70
    46
  9
$DIMATFIT
 70
     3
  9
$DIMFRAC
 70
     0
  9
$DIMLDRBLK
  1

  9
$DIMLUNIT
 70
     2
  9
$DIMLWD
 70
    -2
  9
$DIMLWE
 70
    -2
  9
$DIMTMOVE
 70
     0
  9
$DIMFXL
 40
1.0
  9
$DIMFXLON
 70
     0
  9
$DIMJOGANG
 40
0.7853981633974483
  9
$DIMTFILL
 70
     0
  9
$DIMTFILLCLR
 70
     0
  9
$DIMARCSYM
 70
     0
  9
$DIMLTYPE
  6

  9
$DIMLTEX1
  6

  9
$DIMLTEX2
  6

  9
$DIMTXTDIRECTION
 70
     0
  9
$LUNITS
 70
     2
  9
$LUPREC
 70
     4
  9
$SKETCHINC
 40
0.1
  9
$FILLETRAD
 40
0.0
  9
$AUNITS
 70
     0
  9
$AUPREC
 70
     0
  9
$MENU
  1
.
  9
$ELEVATION
 40
0.0
  9
$PELEVATION
 40
0.0
  9
$THICKNESS
 40
0.0
  9
$LIMCHECK
 70
     0
  9
$CHAMFERA
 40
0.0
  9
$CHAMFERB
 40
0.0
  9
$CHAMFERC
 40
0.0
  9
$CHAMFERD
 40
0.0
  9
$SKPOLY
 70
     0
  9
$TDCREATE
 40
2459734.966354166
  9
$TDUCREATE
 40
2459734.549687500
  9
$TDUPDATE
 40
2459734.966354166
  9
$TDUUPDATE
 40
2459734.549687500
  9
$TDINDWG
 40
0.0000000000
  9
$TDUSRTIMER
 40
0.0000000000
  9
$USRTIMER
 70
     1
  9
$ANGBASE
 50
0.0
  9
$ANGDIR
 70
     0
  9
$PDMODE
 70
     0
  9
$PDSIZE
 40
0.0
  9
$PLINEWID
 40
0.0
  9
$SPLFRAME
 70
     0
  9
$SPLINETYPE
 70
     6
  9
$SPLINESEGS
 70
     8
  9
$HANDSEED
  5
8F
  9
$SURFTAB1
 70
     6
  9
$SURFTAB2
 70
     6
  9
$SURFTYPE
 70
     6
  9
$SURFU
 70
     6
  9
$SURFV
 70
     6
  9
$UCSBASE
  2

  9
$UCSNAME
  2

  9
$UCSORG
 10
0.0
 20
0.0
 30
0.0
  9
$UCSXDIR
 10
1.0
 20
0.0
 30
0.0
  9
$UCSYDIR
 10
0.0
 20
1.0
 30
0.0
  9
$UCSORTHOREF
  2

  9
$UCSORTHOVIEW
 70
     0
  9
$UCSORGTOP
 10
0.0
 20
0.0
 30
0.0
  9
$UCSORGBOTTOM
 10
0.0
 20
0.0
 30
0.0
  9
$UCSORGLEFT
 10
0.0
 20
0.0
 30
0.0
  9
$UCSORGRIGHT
 10
0.0
 20
0.0
 30
0.0
  9
$UCSORGFRONT
 10
0.0
 20
0.0
 30
0.0
  9
$UCSORGBACK
 10
0.0
 20
0.0
 30
0.0
  9
$PUCSBASE
  2

  9
$PUCSNAME
  2

  9
$PUCSORG
 10
0.0
 20
0.0
 30
0.0
  9
$PUCSXDIR
 10
1.0
 20
0.0
 30
0.0
  9
$PUCSYDIR
 10
0.0
 20
1.0
 30
0.0
  9
$PUCSORTHOREF
  2

  9
$PUCSORTHOVIEW
 70
     0
  9
$PUCSORGTOP
 10
0.0
 20
0.0
 30
0.0
  9
$PUCSORGBOTTOM
 10
0.0
 20
0.0
 30
0.0
  9
$PUCSORGLEFT
 10
0.0
 20
0.0
 30
0.0
  9
$PUCSORGRIGHT
 10
0.0
 20
0.0
 30
0.0
  9
$PUCSORGFRONT
 10
0.0
 20
0.0
 30
0.0
  9
$PUCSORGBACK
 10
0.0
 20
0.0
 30
0.0
  9
$USERI1
 70
     0
  9
$USERI2
 70
     0
  9
$USERI3
 70
     0
  9
$USERI4
 70
     0
  9
$USERI5
 70
     0
  9
$USERR1
 40
0.0
  9
$USERR2
 40
0.0
  9
$USERR3
 40
0.0
  9
$USERR4
 40
0.0
  9
$USERR5
 40
0.0
  9
$WORLDVIEW
 70
     1
  9
$SHADEDGE
 70
     3
  9
$SHADEDIF
 70
    70
  9
$TILEMODE
 70
     1
  9
$MAXACTVP
 70
    64
  9
$PINSBASE
 10
0.0
 20
0.0
 30
0.0
  9
$PLIMCHECK
 70
     0
  9
$PEXTMIN
 10
1.000000000000000E+20
 20
1.000000000000000E+20
 30
1.000000000000000E+20
  9
$PEXTMAX
 10
-1.000000000000000E+20
 20
-1.000000000000000E+20
 30
-1.000000000000000E+20
  9
$PLIMMIN
 10
0.0
 20
0.0
  9
$PLIMMAX
 10
12.0
 20
9.0
  9
$UNITMODE
 70
     0
  9
$VISRETAIN
 70
     1
  9
$PLINEGEN
 70
     0
  9
$PSLTSCALE
 70
     1
  9
$TREEDEPTH
 70
  3020
  9
$CMLSTYLE
  2
Standard
  9
$CMLJUST
 70
     0
  9
$CMLSCALE
 40
1.0
  9
$PROXYGRAPHICS
 70
     1
  9
$MEASUREMENT
 70
     0
  9
$CELWEIGHT
370
    -1
  9
$ENDCAPS
280
     0
  9
$JOINSTYLE
280
     0
  9
$LWDISPLAY
290
     1
  9
$INSUNITS
 70
     4
  9
$HYPERLINKBASE
  1

  9
$STYLESHEET
  1

  9
$XEDIT
290
     1
  9
$CEPSNTYPE
380
     0
  9
$PSTYLEMODE
290
     1
  9
$FINGERPRINTGUID
  2
{C48179BA-908C-3549-936D-CE925210B31F}
  9
$VERSIONGUID
  2
{733731D4-C579-8D45-89FD-6310A1B71A26}
  9
$EXTNAMES
290
     1
  9
$PSVPSCALE
 40
0.0
  9
$OLESTARTUP
290
     0
  9
$SORTENTS
280
   127
  9
$INDEXCTL
280
     0
  9
$HIDETEXT
280
     1
  9
$XCLIPFRAME
280
     2
  9
$HALOGAP
280
     0
  9
$OBSCOLOR
 70
   257
  9
$OBSLTYPE
280
     0
  9
$INTERSECTIONDISPLAY
280
     0
  9
$INTERSECTIONCOLOR
 70
   257
  9
$DIMASSOC
280
     2
  9
$PROJECTNAME
  1

  9
$CAMERADISPLAY
290
     0
  9
$LENSLENGTH
 40
50.0
  9
$CAMERAHEIGHT
 40
0.0
  9
$STEPSPERSEC
 40
2.0
  9
$STEPSIZE
 40
6.0
  9
$3DDWFPREC
 40
2.0
  9
$PSOLWIDTH
 40
0.25
  9
$PSOLHEIGHT
 40
4.0
  9
$LOFTANG1
 40
1.570796326794896
  9
$LOFTANG2
 40
1.570796326794896
  9
$LOFTMAG1
 40
0.0
  9
$LOFTMAG2
 40
0.0
  9
$LOFTPARAM
 70
     7
  9
$LOFTNORMALS
280
     1
  9
$LATITUDE
 40
37.795
  9
$LONGITUDE
 40
-122.394
  9
$NORTHDIRECTION
 40
0.0
  9
$TIMEZONE
 70
 -8000
  9
$LIGHTGLYPHDISPLAY
280
     1
  9
$TILEMODELIGHTSYNCH
280
     1
  9
$CMATERIAL
347
11
  9
$SOLIDHIST
280
     0
  9
$SHOWHIST
280
     1
  9
$DWFFRAME
280
     2
  9
$DGNFRAME
280
     0
  9
$REALWORLDSCALE
290
     1
  9
$INTERFERECOLOR
 62
     1
  9
$INTERFEREOBJVS
345
33
  9
$INTERFEREVPVS
346
30
  9
$CSHADOW
280
     0
  9
$SHADOWPLANELOCATION
 40
0.0
  0
ENDSEC
  0
SECTION
  2
CLASSES
  0
CLASS
  1
ACDBDICTIONARYWDFLT
  2
AcDbDictionaryWithDefault
  3
ObjectDBX Classes
 90
        0
 91
        1
280
     0
281
     0
  0
CLASS
  1
MATERIAL
  2
AcDbMaterial
  3
ObjectDBX Classes
 90
     1153
 91
        3
280
     0
281
     0
  0
CLASS
  1
VISUALSTYLE
  2
AcDbVisualStyle
  3
ObjectDBX Classes
 90
     4095
 91
       24
280
     0
281
     0
  0
CLASS
  1
SCALE
  2
AcDbScale
  3
ObjectDBX Classes
 90
     1153
 91
       17
280
     0
281
     0
  0
CLASS
  1
TABLESTYLE
  2
AcDbTableStyle
  3
ObjectDBX Classes
 90
     4095
 91
        1
280
     0
281
     0
  0
CLASS
  1
MLEADERSTYLE
  2
AcDbMLeaderStyle
  3
ACDB_MLEADERSTYLE_CLASS
 90
     4095
 91
        1
280
     0
281
     0
  0
CLASS
  1
ACDBSECTIONVIEWSTYLE
  2
AcDbSectionViewStyle
  3
ObjectDBX Classes
 90
     1025
 91
        1
280
     0
281
     0
  0
CLASS
  1
ACDBDETAILVIEWSTYLE
  2
AcDbDetailViewStyle
  3
ObjectDBX Classes
 90
     1025
 91
        1
280
     0
281
     0
  0
CLASS
  1
DICTIONARYVAR
  2
AcDbDictionaryVar
  3
ObjectDBX Classes
 90
        0
 91
        5
280
     0
281
     0
  0
CLASS
  1
CELLSTYLEMAP
  2
AcDbCellStyleMap
  3
ObjectDBX Classes
 90
     1152
 91
        1
280
     0
281
     0
  0
ENDSEC
  0
SECTION
  2
TABLES
  0
TABLE
  2
VPORT
  5
8
330
0
100
AcDbSymbolTable
 70
     1
1001
ACAD
1000
DbSaveVer
1071
      247
  0
VPORT
  5
57
330
8
100
AcDbSymbolTableRecord
100
AcDbViewportTableRecord
  2
*Active
 70
     0
 10
0.0
 20
0.0
 11
1.0
 21
1.0
 12
0.0
 22
0.0
 13
0.0
 23
0.0
 14
1.0
 24
1.0
 15
0.0
 25
0.0
 16
0.0
 26
0.0
 36
1.0
 17
-111.9583333053439
 27
3.302777776952218
 37
0.0
 40
214.1999999464498
 41
0.9999999999999998
 42
50.0
 43
0.0
 44
0.0
 50
0.0
 51
0.0
 71
     0
 72
   100
 73
     1
 74
     1
 75
     0
 76
     0
 77
     0
 78
     0
281
     0
 65
     1
110
0.0
120
0.0
130
0.0
111
1.0
121
0.0
131
0.0
112
0.0
122
1.0
132
0.0
 79
     0
146
0.0
 60
     3
 61
     5
292
     1
282
     1
141
0.0
142
0.0
 63
   250
421
  3355443
  0
ENDTAB
  0
TABLE
  2
LTYPE
  5
5
330
0
100
AcDbSymbolTable
 70
     1
  0
LTYPE
  5
5B
330
5
100
AcDbSymbolTableRecord
100
AcDbLinetypeTableRecord
  2
ByBlock
 70
     0
  3

 72
    65
 73
     0
 40
0.0
  0
LTYPE
  5
5C
330
5
100
AcDbSymbolTableRecord
100
AcDbLinetypeTableRecord
  2
ByLayer
 70
     0
  3

 72
    65
 73
     0
 40
0.0
  0
LTYPE
  5
5D
330
5
100
AcDbSymbolTableRecord
100
AcDbLinetypeTableRecord
  2
Continuous
 70
     0
  3
Solid line
 72
    65
 73
     0
 40
0.0
  0
ENDTAB
  0
TABLE
  2
LAYER
  5
2
330
0
100
AcDbSymbolTable
 70
     2
  0
LAYER
  5
54
330
2
100
AcDbSymbolTableRecord
100
AcDbLayerTableRecord
  2
0
 70
     0
 62
     7
  6
Continuous
370
    -3
390
F
347
21
348
0
  0
LAYER
  5
78
330
2
100
AcDbSymbolTableRecord
100
AcDbLayerTableRecord
  2
Layer 1
 70
     0
 62
     7
  6
Continuous
370
     0
390
F
347
21
348
0
  0
ENDTAB
  0
TABLE
  2
STYLE
  5
3
330
0
100
AcDbSymbolTable
 70
     2
  0
STYLE
  5
55
330
3
100
AcDbSymbolTableRecord
100
AcDbTextStyleTableRecord
  2
Standard
 70
     0
 40
0.0
 41
1.0
 50
0.0
 71
     0
 42
0.2
  3
txt
  4

  0
STYLE
  5
5A
330
3
100
AcDbSymbolTableRecord
100
AcDbTextStyleTableRecord
  2
Annotative
 70
     0
 40
0.0
 41
1.0
 50
0.0
 71
     0
 42
0.2
  3
txt
  4

1001
AcadAnnotative
1000
AnnotativeData
1002
{
1070
     1
1070
     1
1002
}
  0
ENDTAB
  0
TABLE
  2
VIEW
  5
6
330
0
100
AcDbSymbolTable
 70
     0
  0
ENDTAB
  0
TABLE
  2
UCS
  5
7
330
0
100
AcDbSymbolTable
 70
     0
  0
ENDTAB
  0
TABLE
  2
APPID
  5
9
330
0
100
AcDbSymbolTable
 70
     2
  0
APPID
  5
56
330
9
100
AcDbSymbolTableRecord
100
AcDbRegAppTableRecord
  2
ACAD
 70
     0
  0
APPID
  5
5E
330
9
100
AcDbSymbolTableRecord
100
AcDbRegAppTableRecord
  2
AcadAnnotative
 70
     0
  0
ENDTAB
  0
TABLE
  2
DIMSTYLE
  5
A
330
0
100
AcDbSymbolTable
 70
     2
100
AcDbDimStyleTable
 71
     0
  0
DIMSTYLE
105
58
330
A
100
AcDbSymbolTableRecord
100
AcDbDimStyleTableRecord
  2
Standard
 70
     0
340
55
  0
DIMSTYLE
105
59
330
A
100
AcDbSymbolTableRecord
100
AcDbDimStyleTableRecord
  2
Annotative
 70
     0
340
55
1001
AcadAnnotative
1000
AnnotativeData
1002
{
1070
     1
1070
     1
1002
}
  0
ENDTAB
  0
TABLE
  2
BLOCK_RECORD
  5
1
330
0
100
AcDbSymbolTable
 70
     1
  0
BLOCK_RECORD
  5
70
330
1
100
AcDbSymbolTableRecord
100
AcDbBlockTableRecord
  2
*Model_Space
340
73
 70
     0
280
     1
281
     0
  0
BLOCK_RECORD
  5
6C
330
1
100
AcDbSymbolTableRecord
100
AcDbBlockTableRecord
  2
*Paper_Space
340
6F
 70
     0
280
     1
281
     0
  0
BLOCK_RECORD
  5
74
330
1
100
AcDbSymbolTableRecord
100
AcDbBlockTableRecord
  2
*Paper_Space0
340
77
 70
     0
280
     1
281
     0
  0
ENDTAB
  0
ENDSEC
  0
SECTION
  2
BLOCKS
  0
BLOCK
  5
71
330
70
100
AcDbEntity
  8
0
100
AcDbBlockBegin
  2
*Model_Space
 70
     0
 10
0.0
 20
0.0
 30
0.0
  3
*Model_Space
  1

  0
ENDBLK
  5
72
330
70
100
AcDbEntity
  8
0
100
AcDbBlockEnd
  0
BLOCK
  5
6D
330
6C
100
AcDbEntity
 67
     1
  8
0
100
AcDbBlockBegin
  2
*Paper_Space
 70
     0
 10
0.0
 20
0.0
 30
0.0
  3
*Paper_Space
  1

  0
ENDBLK
  5
6E
330
6C
100
AcDbEntity
 67
     1
  8
0
100
AcDbBlockEnd
  0
BLOCK
  5
75
330
74
100
AcDbEntity
 67
     1
  8
0
100
AcDbBlockBegin
  2
*Paper_Space0
 70
     0
 10
0.0
 20
0.0
 30
0.0
  3
*Paper_Space0
  1

  0
ENDBLK
  5
76
330
74
100
AcDbEntity
 67
     1
  8
0
100
AcDbBlockEnd
  0
ENDSEC
  0
SECTION
  2
ENTITIES
  0
SPLINE
  5
79
330
70
100
AcDbEntity
  8
Layer 1
100
AcDbSpline
210
0.0
220
0.0
230
1.0
 70
     9
 71
     3
 72
    47
 73
    43
 74
     0
 42
0.0000000001
 43
0.0000000001
 40
0.0
 40
0.0
 40
0.0
 40
0.0
 40
1.0
 40
1.0
 40
1.0
 40
2.0
 40
2.0
 40
2.0
 40
3.0
 40
3.0
 40
3.0
 40
4.0
 40
4.0
 40
4.0
 40
5.0
 40
5.0
 40
5.0
 40
6.0
 40
6.0
 40
6.0
 40
7.0
 40
7.0
 40
7.0
 40
8.0
 40
8.0
 40
8.0
 40
9.0
 40
9.0
 40
9.0
 40
10.0
 40
10.0
 40
10.0
 40
11.0
 40
11.0
 40
11.0
 40
12.0
 40
12.0
 40
12.0
 40
13.0
 40
13.0
 40
13.0
 40
14.0
 40
14.0
 40
14.0
 40
14.0
 10
-76.08406866531019
 20
-27.69484837539521
 30
0.0
 10
-94.87271320551881
 20
-24.45764528599096
 30
0.0
 10
-100.7429376305525
 20
-11.83690888636911
 30
0.0
 10
-100.7429376305525
 20
-11.83690888636911
 30
0.0
 10
-101.8621276659197
 20
-16.69468815769841
 30
0.0
 10
-100.3387952126502
 20
-20.08059001522748
 30
0.0
 10
-100.3387952126502
 20
-20.08059001522748
 30
0.0
 10
-111.1968960221529
 20
-14.80916717298615
 30
0.0
 10
-113.0532839533719
 20
-4.283606718677185
 30
0.0
 10
-113.0532839533719
 20
-4.283606718677185
 30
0.0
 10
-115.0058853677347
 20
-5.351170006987327
 30
0.0
 10
-114.2667414525904
 20
-12.81226520183748
 30
0.0
 10
-114.2667414525904
 20
-12.81226520183748
 30
0.0
 10
-116.8486511639231
 20
-10.71554388827039
 30
0.0
 10
-121.1824933592688
 20
-3.726472843038199
 30
0.0
 10
-122.5184356020535
 20
-0.5352873862644302
 30
0.0
 10
-111.1181967126198
 20
2.643764067880522
 30
0.0
 10
-101.7304851845155
 20
10.64556644612312
 30
0.0
 10
-96.70712256592734
 20
21.14285238486279
 30
0.0
 10
-91.8035546054174
 20
18.94116050134012
 30
0.0
 10
-87.16991096764333
 20
14.72304921790417
 30
0.0
 10
-87.16991096764333
 20
14.72304921790417
 30
0.0
 10
-90.51219909872392
 20
15.24315149116659
 30
0.0
 10
-94.66483255662613
 20
12.78996523230337
 30
0.0
 10
-94.66483255662613
 20
12.78996523230337
 30
0.0
 10
-89.59053002132209
 20
12.67074293284431
 30
0.0
 10
-85.27712102852182
 20
9.173059437848172
 30
0.0
 10
-82.57055161089132
 20
6.291348284090872
 30
0.0
 10
-82.56597274197396
 20
6.287799660678252
 30
0.0
 10
-82.56208070339395
 20
6.285052339328222
 30
0.0
 10
-82.55675776827727
 20
6.281618187637637
 30
0.0
 10
-81.70394343223328
 20
5.295215350904602
 30
0.0
 10
-80.84883966173642
 20
4.045870966535701
 30
0.0
 10
-80.4013124608285
 20
2.668718903484485
 30
0.0
 10
-84.11076864330119
 20
3.163351218387036
 30
0.0
 10
-88.50768475799474
 20
1.906279992719452
 30
0.0
 10
-88.50768475799474
 20
1.906279992719452
 30
0.0
 10
-72.83066782710669
 20
-10.44693599034532
 30
0.0
 10
-70.69153474018371
 20
-28.59081855099054
 30
0.0
 10
-70.69153474018371
 20
-28.59081855099054
 30
0.0
 10
-70.69153474018371
 20
-28.59081855099054
 30
0.0
 10
-76.08406866531019
 20
-27.69484837539521
 30
0.0
 10
-76.08406866531019
 20
-27.69484837539521
 30
0.0
  0
SPLINE
  5
7A
330
70
100
AcDbEntity
  8
Layer 1
100
AcDbSpline
210
0.0
220
0.0
230
1.0
 70
     9
 71
     3
 72
    26
 73
    22
 74
     0
 42
0.0000000001
 43
0.0000000001
 40
0.0
 40
0.0
 40
0.0
 40
0.0
 40
1.0
 40
1.0
 40
1.0
 40
2.0
 40
2.0
 40
2.0
 40
3.0
 40
3.0
 40
3.0
 40
4.0
 40
4.0
 40
4.0
 40
5.0
 40
5.0
 40
5.0
 40
6.0
 40
6.0
 40
6.0
 40
7.0
 40
7.0
 40
7.0
 40
7.0
 10
-112.6985933197837
 20
14.78692443931402
 30
0.0
 10
-112.8531873816405
 20
12.97174632836213
 30
0.0
 10
-114.0417472811183
 20
11.06436124456782
 30
0.0
 10
-115.7269427506525
 20
9.92737085628066
 30
0.0
 10
-117.5081799957472
 20
8.72536052935688
 30
0.0
 10
-119.5955718638955
 20
8.0633705554882
 30
0.0
 10
-121.6044361300948
 20
8.0633705554882
 30
0.0
 10
-123.4686653743345
 20
8.0633705554882
 30
0.0
 10
-126.8340767934556
 20
8.666979950647734
 30
0.0
 10
-128.4272942335915
 20
12.70651534626886
 30
0.0
 10
-129.0760054875943
 20
14.35593840237853
 30
0.0
 10
-128.0081560199742
 20
16.05086396836277
 30
0.0
 10
-126.9985154234832
 20
17.18190182705275
 30
0.0
 10
-125.2627806882637
 20
19.12580339047415
 30
0.0
 10
-122.4290904222876
 20
20.3333655959619
 30
0.0
 10
-119.6032987051942
 20
20.3333655959619
 30
0.0
 10
-117.4084178891875
 20
20.3333655959619
 30
0.0
 10
-115.4293162709594
 20
19.59651111527812
 30
0.0
 10
-114.0312158826063
 20
18.25919521181613
 30
0.0
 10
-113.032163920486
 20
17.30301290994112
 30
0.0
 10
-112.5837781816573
 20
16.13477174129119
 30
0.0
 10
-112.6985933197837
 20
14.78692443931402
 30
0.0
  0
SPLINE
  5
7B
330
70
100
AcDbEntity
  8
Layer 1
100
AcDbSpline
210
0.0
220
0.0
230
1.0
 70
     9
 71
     3
 72
   677
 73
   673
 74
     0
 42
0.0000000001
 43
0.0000000001
 40
0.0
 40
0.0
 40
0.0
 40
0.0
 40
1.0
 40
1.0
 40
1.0
 40
2.0
 40
2.0
 40
2.0
 40
3.0
 40
3.0
 40
3.0
 40
4.0
 40
4.0
 40
4.0
 40
5.0
 40
5.0
 40
5.0
 40
6.0
 40
6.0
 40
6.0
 40
7.0
 40
7.0
 40
7.0
 40
8.0
 40
8.0
 40
8.0
 40
9.0
 40
9.0
 40
9.0
 40
10.0
 40
10.0
 40
10.0
 40
11.0
 40
11.0
 40
11.0
 40
12.0
 40
12.0
 40
12.0
 40
13.0
 40
13.0
 40
13.0
 40
14.0
 40
14.0
 40
14.0
 40
15.0
 40
15.0
 40
15.0
 40
16.0
 40
16.0
 40
16.0
 40
17.0
 40
17.0
 40
17.0
 40
18.0
 40
18.0
 40
18.0
 40
19.0
 40
19.0
 40
19.0
 40
20.0
 40
20.0
 40
20.0
 40
21.0
 40
21.0
 40
21.0
 40
22.0
 40
22.0
 40
22.0
 40
23.0
 40
23.0
 40
23.0
 40
24.0
 40
24.0
 40
24.0
 40
25.0
 40
25.0
 40
25.0
 40
26.0
 40
26.0
 40
26.0
 40
27.0
 40
27.0
 40
27.0
 40
28.0
 40
28.0
 40
28.0
 40
29.0
 40
29.0
 40
29.0
 40
30.0
 40
30.0
 40
30.0
 40
31.0
 40
31.0
 40
31.0
 40
32.0
 40
32.0
 40
32.0
 40
33.0
 40
33.0
 40
33.0
 40
34.0
 40
34.0
 40
34.0
 40
35.0
 40
35.0
 40
35.0
 40
36.0
 40
36.0
 40
36.0
 40
37.0
 40
37.0
 40
37.0
 40
38.0
 40
38.0
 40
38.0
 40
39.0
 40
39.0
 40
39.0
 40
40.0
 40
40.0
 40
40.0
 40
41.0
 40
41.0
 40
41.0
 40
42.0
 40
42.0
 40
42.0
 40
43.0
 40
43.0
 40
43.0
 40
44.0
 40
44.0
 40
44.0
 40
45.0
 40
45.0
 40
45.0
 40
46.0
 40
46.0
 40
46.0
 40
47.0
 40
47.0
 40
47.0
 40
48.0
 40
48.0
 40
48.0
 40
49.0
 40
49.0
 40
49.0
 40
50.0
 40
50.0
 40
50.0
 40
51.0
 40
51.0
 40
51.0
 40
52.0
 40
52.0
 40
52.0
 40
53.0
 40
53.0
 40
53.0
 40
54.0
 40
54.0
 40
54.0
 40
55.0
 40
55.0
 40
55.0
 40
56.0
 40
56.0
 40
56.0
 40
57.0
 40
57.0
 40
57.0
 40
58.0
 40
58.0
 40
58.0
 40
59.0
 40
59.0
 40
59.0
 40
60.0
 40
60.0
 40
60.0
 40
61.0
 40
61.0
 40
61.0
 40
62.0
 40
62.0
 40
62.0
 40
63.0
 40
63.0
 40
63.0
 40
64.0
 40
64.0
 40
64.0
 40
65.0
 40
65.0
 40
65.0
 40
66.0
 40
66.0
 40
66.0
 40
67.0
 40
67.0
 40
67.0
 40
68.0
 40
68.0
 40
68.0
 40
69.0
 40
69.0
 40
69.0
 40
70.0
 40
70.0
 40
70.0
 40
71.0
 40
71.0
 40
71.0
 40
72.0
 40
72.0
 40
72.0
 40
73.0
 40
73.0
 40
73.0
 40
74.0
 40
74.0
 40
74.0
 40
75.0
 40
75.0
 40
75.0
 40
76.0
 40
76.0
 40
76.0
 40
77.0
 40
77.0
 40
77.0
 40
78.0
 40
78.0
 40
78.0
 40
79.0
 40
79.0
 40
79.0
 40
80.0
 40
80.0
 40
80.0
 40
81.0
 40
81.0
 40
81.0
 40
82.0
 40
82.0
 40
82.0
 40
83.0
 40
83.0
 40
83.0
 40
84.0
 40
84.0
 40
84.0
 40
85.0
 40
85.0
 40
85.0
 40
86.0
 40
86.0
 40
86.0
 40
87.0
 40
87.0
 40
87.0
 40
88.0
 40
88.0
 40
88.0
 40
89.0
 40
89.0
 40
89.0
 40
90.0
 40
90.0
 40
90.0
 40
91.0
 40
91.0
 40
91.0
 40
92.0
 40
92.0
 40
92.0
 40
93.0
 40
93.0
 40
93.0
 40
94.0
 40
94.0
 40
94.0
 40
95.0
 40
95.0
 40
95.0
 40
96.0
 40
96.0
 40
96.0
 40
97.0
 40
97.0
 40
97.0
 40
98.0
 40
98.0
 40
98.0
 40
99.0
 40
99.0
 40
99.0
 40
100.0
 40
100.0
 40
100.0
 40
101.0
 40
101.0
 40
101.0
 40
102.0
 40
102.0
 40
102.0
 40
103.0
 40
103.0
 40
103.0
 40
104.0
 40
104.0
 40
104.0
 40
105.0
 40
105.0
 40
105.0
 40
106.0
 40
106.0
 40
106.0
 40
107.0
 40
107.0
 40
107.0
 40
108.0
 40
108.0
 40
108.0
 40
109.0
 40
109.0
 40
109.0
 40
110.0
 40
110.0
 40
110.0
 40
111.0
 40
111.0
 40
111.0
 40
112.0
 40
112.0
 40
112.0
 40
113.0
 40
113.0
 40
113.0
 40
114.0
 40
114.0
 40
114.0
 40
115.0
 40
115.0
 40
115.0
 40
116.0
 40
116.0
 40
116.0
 40
117.0
 40
117.0
 40
117.0
 40
118.0
 40
118.0
 40
118.0
 40
119.0
 40
119.0
 40
119.0
 40
120.0
 40
120.0
 40
120.0
 40
121.0
 40
121.0
 40
121.0
 40
122.0
 40
122.0
 40
122.0
 40
123.0
 40
123.0
 40
123.0
 40
124.0
 40
124.0
 40
124.0
 40
125.0
 40
125.0
 40
125.0
 40
126.0
 40
126.0
 40
126.0
 40
127.0
 40
127.0
 40
127.0
 40
128.0
 40
128.0
 40
128.0
 40
129.0
 40
129.0
 40
129.0
 40
130.0
 40
130.0
 40
130.0
 40
131.0
 40
131.0
 40
131.0
 40
132.0
 40
132.0
 40
132.0
 40
133.0
 40
133.0
 40
133.0
 40
134.0
 40
134.0
 40
134.0
 40
135.0
 40
135.0
 40
135.0
 40
136.0
 40
136.0
 40
136.0
 40
137.0
 40
137.0
 40
137.0
 40
138.0
 40
138.0
 40
138.0
 40
139.0
 40
139.0
 40
139.0
 40
140.0
 40
140.0
 40
140.0
 40
141.0
 40
141.0
 40
141.0
 40
142.0
 40
142.0
 40
142.0
 40
143.0
 40
143.0
 40
143.0
 40
144.0
 40
144.0
 40
144.0
 40
145.0
 40
145.0
 40
145.0
 40
146.0
 40
146.0
 40
146.0
 40
147.0
 40
147.0
 40
147.0
 40
148.0
 40
148.0
 40
148.0
 40
149.0
 40
149.0
 40
149.0
 40
150.0
 40
150.0
 40
150.0
 40
151.0
 40
151.0
 40
151.0
 40
152.0
 40
152.0
 40
152.0
 40
153.0
 40
153.0
 40
153.0
 40
154.0
 40
154.0
 40
154.0
 40
155.0
 40
155.0
 40
155.0
 40
156.0
 40
156.0
 40
156.0
 40
157.0
 40
157.0
 40
157.0
 40
158.0
 40
158.0
 40
158.0
 40
159.0
 40
159.0
 40
159.0
 40
160.0
 40
160.0
 40
160.0
 40
161.0
 40
161.0
 40
161.0
 40
162.0
 40
162.0
 40
162.0
 40
163.0
 40
163.0
 40
163.0
 40
164.0
 40
164.0
 40
164.0
 40
165.0
 40
165.0
 40
165.0
 40
166.0
 40
166.0
 40
166.0
 40
167.0
 40
167.0
 40
167.0
 40
168.0
 40
168.0
 40
168.0
 40
169.0
 40
169.0
 40
169.0
 40
170.0
 40
170.0
 40
170.0
 40
171.0
 40
171.0
 40
171.0
 40
172.0
 40
172.0
 40
172.0
 40
173.0
 40
173.0
 40
173.0
 40
174.0
 40
174.0
 40
174.0
 40
175.0
 40
175.0
 40
175.0
 40
176.0
 40
176.0
 40
176.0
 40
177.0
 40
177.0
 40
177.0
 40
178.0
 40
178.0
 40
178.0
 40
179.0
 40
179.0
 40
179.0
 40
180.0
 40
180.0
 40
180.0
 40
181.0
 40
181.0
 40
181.0
 40
182.0
 40
182.0
 40
182.0
 40
183.0
 40
183.0
 40
183.0
 40
184.0
 40
184.0
 40
184.0
 40
185.0
 40
185.0
 40
185.0
 40
186.0
 40
186.0
 40
186.0
 40
187.0
 40
187.0
 40
187.0
 40
188.0
 40
188.0
 40
188.0
 40
189.0
 40
189.0
 40
189.0
 40
190.0
 40
190.0
 40
190.0
 40
191.0
 40
191.0
 40
191.0
 40
192.0
 40
192.0
 40
192.0
 40
193.0
 40
193.0
 40
193.0
 40
194.0
 40
194.0
 40
194.0
 40
195.0
 40
195.0
 40
195.0
 40
196.0
 40
196.0
 40
196.0
 40
197.0
 40
197.0
 40
197.0
 40
198.0
 40
198.0
 40
198.0
 40
199.0
 40
199.0
 40
199.0
 40
200.0
 40
200.0
 40
200.0
 40
201.0
 40
201.0
 40
201.0
 40
202.0
 40
202.0
 40
202.0
 40
203.0
 40
203.0
 40
203.0
 40
204.0
 40
204.0
 40
204.0
 40
205.0
 40
205.0
 40
205.0
 40
206.0
 40
206.0
 40
206.0
 40
207.0
 40
207.0
 40
207.0
 40
208.0
 40
208.0
 40
208.0
 40
209.0
 40
209.0
 40
209.0
 40
210.0
 40
210.0
 40
210.0
 40
211.0
 40
211.0
 40
211.0
 40
212.0
 40
212.0
 40
212.0
 40
213.0
 40
213.0
 40
213.0
 40
214.0
 40
214.0
 40
214.0
 40
215.0
 40
215.0
 40
215.0
 40
216.0
 40
216.0
 40
216.0
 40
217.0
 40
217.0
 40
217.0
 40
218.0
 40
218.0
 40
218.0
 40
219.0
 40
219.0
 40
219.0
 40
220.0
 40
220.0
 40
220.0
 40
221.0
 40
221.0
 40
221.0
 40
222.0
 40
222.0
 40
222.0
 40
223.0
 40
223.0
 40
223.0
 40
224.0
 40
224.0
 40
224.0
 40
224.0
 10
-133.4835102366656
 20
1.710933997489427
 30
0.0
 10
-142.6396454692253
 20
1.710933997489427
 30
0.0
 10
-151.0192617690927
 20
5.066157433263986
 30
0.0
 10
-157.4861128141866
 20
10.59651531283592
 30
0.0
 10
-157.4861128141866
 20
10.59651531283592
 30
0.0
 10
-157.9770820339551
 20
11.08313460713053
 30
0.0
 10
-157.9770820339551
 20
11.08313460713053
 30
0.0
 10
-157.7223824503738
 20
11.0570922901592
 30
0.0
 10
-157.471803848816
 20
11.02698622702257
 30
0.0
 10
-157.209434659798
 20
11.00907140237738
 30
0.0
 10
-157.1226650937949
 20
11.00317610864538
 30
0.0
 10
-157.0373836601893
 20
10.99647951285208
 30
0.0
 10
-156.9500417355709
 20
10.99127104945679
 30
0.0
 10
-156.3664076560705
 20
10.95641440981942
 30
0.0
 10
-155.7703533946218
 20
10.93849958517359
 30
0.0
 10
-155.1649696877582
 20
10.93569502796093
 30
0.0
 10
-155.1131712331178
 20
10.93546608451751
 30
0.0
 10
-155.0640628639679
 20
10.93094445145892
 30
0.0
 10
-155.0121499376093
 20
10.93094445145892
 30
0.0
 10
-154.903859687689
 20
10.93094445145892
 30
0.0
 10
-154.7940813053701
 20
10.93397795211564
 30
0.0
 10
-154.6852186968384
 20
10.93500819762423
 30
0.0
 10
-154.5804198344706
 20
10.93603844312897
 30
0.0
 10
-154.4759071514096
 20
10.93695421691295
 30
0.0
 10
-154.3706504021493
 20
10.9389574720675
 30
0.0
 10
-154.0907098036541
 20
10.94422317132157
 30
0.0
 10
-153.8095100162044
 20
10.95309472985023
 30
0.0
 10
-153.5269365680806
 20
10.96534320420686
 30
0.0
 10
-153.46683891353
 20
10.96797605383613
 30
0.0
 10
-153.4073136175902
 20
10.96917800692489
 30
0.0
 10
-153.3471014913144
 20
10.97209703586343
 30
0.0
 10
-153.0074638892967
 20
10.988638199832
 30
0.0
 10
-152.6664526266044
 20
11.01084571408529
 30
0.0
 10
-152.3243538825421
 20
11.03763209725594
 30
0.0
 10
-152.2335778062358
 20
11.04472934408054
 30
0.0
 10
-152.1427444940674
 20
11.05365813846798
 30
0.0
 10
-152.0519111819029
 20
11.0614994514919
 30
0.0
 10
-151.7934912673218
 20
11.08376420160782
 30
0.0
 10
-151.5348996451592
 20
11.10871903721178
 30
0.0
 10
-151.2759073719666
 20
11.13699355278108
 30
0.0
 10
-151.1668158199876
 20
11.14889861196968
 30
0.0
 10
-151.0578959755894
 20
11.16120432218957
 30
0.0
 10
-150.9487471877516
 20
11.1741396268829
 30
0.0
 10
-150.6828293753184
 20
11.20567658655878
 30
0.0
 10
-150.4171977421913
 20
11.24076216964663
 30
0.0
 10
-150.1514516373453
 20
11.27876678166981
 30
0.0
 10
-150.0682306947543
 20
11.29061460499579
 30
0.0
 10
-149.9849525162999
 20
11.30120323936974
 30
0.0
 10
-149.9017888095708
 20
11.31373789303242
 30
0.0
 10
-149.5585453482818
 20
11.36547911181088
 30
0.0
 10
-149.2159887173288
 20
11.42242879398014
 30
0.0
 10
-148.8744623318812
 20
11.48504482643861
 30
0.0
 10
-148.8005135988494
 20
11.49860972560988
 30
0.0
 10
-148.7271944602956
 20
11.51417787993185
 30
0.0
 10
-148.6533601989859
 20
11.5282579018558
 30
0.0
 10
-148.3828635176354
 20
11.57982741305025
 30
0.0
 10
-148.1133970817934
 20
11.63465936834678
 30
0.0
 10
-147.8449036555897
 20
11.69326889049935
 30
0.0
 10
-147.7371857642886
 20
11.71673559370787
 30
0.0
 10
-147.6299829957389
 20
11.74117530655914
 30
0.0
 10
-147.522608519602
 20
11.76584396285769
 30
0.0
 10
-147.2713430877081
 20
11.82353771122628
 30
0.0
 10
-147.0215657882122
 20
11.88472284714872
 30
0.0
 10
-146.7727614983622
 20
11.94871254028381
 30
0.0
 10
-146.6804400537991
 20
11.97246542279838
 30
0.0
 10
-146.5877179582007
 20
11.99507358807912
 30
0.0
 10
-146.495797164665
 20
12.01974224437703
 30
0.0
 10
-146.1626272149934
 20
12.10903018828797
 30
0.0
 10
-145.8315749921984
 20
12.20295423697118
 30
0.0
 10
-145.5043575721214
 20
12.30386106076145
 30
0.0
 10
-145.4593129491369
 20
12.31776937510139
 30
0.0
 10
-145.4153558075197
 20
12.333337529424
 30
0.0
 10
-145.3704256562604
 20
12.34747478720993
 30
0.0
 10
-145.087737736412
 20
12.43630484422374
 30
0.0
 10
-144.8079688455047
 20
12.52965653429614
 30
0.0
 10
-144.5307755683603
 20
12.62735814984246
 30
0.0
 10
-144.4321581790306
 20
12.66210031776164
 30
0.0
 10
-144.3346855069315
 20
12.69833061807691
 30
0.0
 10
-144.2368121838012
 20
12.73421750322286
 30
0.0
 10
-144.0046062937825
 20
12.81944170096592
 30
0.0
 10
-143.7748615458013
 20
12.90792834281426
 30
0.0
 10
-143.5472917605626
 20
12.99956295704136
 30
0.0
 10
-143.4546841366895
 20
13.0368807387272
 30
0.0
 10
-143.3616186259231
 20
13.07351169007312
 30
0.0
 10
-143.2698123041088
 20
13.11185971726369
 30
0.0
 10
-142.9658326437943
 20
13.23898056560994
 30
0.0
 10
-142.6651726634445
 20
13.37039410356686
 30
0.0
 10
-142.3711520430223
 20
13.50947724696047
 30
0.0
 10
-142.3660580513528
 20
13.51188115314247
 30
0.0
 10
-142.3607923520988
 20
13.51399888001842
 30
0.0
 10
-142.3556983604255
 20
13.51640278620041
 30
0.0
 10
-142.058014644873
 20
13.65748918474538
 30
0.0
 10
-141.7675426478633
 20
13.80670307562288
 30
0.0
 10
-141.4813061046056
 20
13.96020965610849
 30
0.0
 10
-141.3959101992791
 20
14.00605558115495
 30
0.0
 10
-141.312574784966
 20
14.05373305376811
 30
0.0
 10
-141.2282663610069
 20
14.10066646017872
 30
0.0
 10
-141.0227323824343
 20
14.21508094727764
 30
0.0
 10
-140.8205753196889
 20
14.33275787847927
 30
0.0
 10
-140.6218524086347
 20
14.4539261972309
 30
0.0
 10
-140.5352545502151
 20
14.5066976615141
 30
0.0
 10
-140.448713927658
 20
14.55929741821265
 30
0.0
 10
-140.3634897299156
 20
14.61338530731048
 30
0.0
 10
-140.1376942563815
 20
14.75664666859016
 30
0.0
 10
-139.9169927745169
 20
14.90454413465367
 30
0.0
 10
-139.7013280484629
 20
15.05690599791251
 30
0.0
 10
-139.6584583882169
 20
15.08718376863636
 30
0.0
 10
-139.6135854728132
 20
15.11574446351493
 30
0.0
 10
-139.5711164635986
 20
15.14636564940361
 30
0.0
 10
-139.3173898896594
 20
15.32957764200225
 30
0.0
 10
-139.0724204025275
 20
15.52011582486378
 30
0.0
 10
-138.8343192187774
 20
15.71637759387715
 30
0.0
 10
-138.769757167027
 20
15.76960694505042
 30
0.0
 10
-138.7082858517992
 20
15.82518296655012
 30
0.0
 10
-138.6448685172794
 20
15.87944256323198
 30
0.0
 10
-138.4703563756299
 20
16.0287136899689
 30
0.0
 10
-138.3001941594537
 20
16.18130449667437
 30
0.0
 10
-138.1351831708069
 20
16.33795904954129
 30
0.0
 10
-138.0639817591259
 20
16.40555460194778
 30
0.0
 10
-137.9934671777847
 20
16.47355080538492
 30
0.0
 10
-137.9241545495335
 20
16.54257725433064
 30
0.0
 10
-137.7568541264294
 20
16.70896190365144
 30
0.0
 10
-137.5958496480885
 20
16.87986818602571
 30
0.0
 10
-137.4397102179705
 20
17.05438032767585
 30
0.0
 10
-137.3920899812199
 20
17.10760967885232
 30
0.0
 10
-137.3419513665654
 20
17.15906471832153
 30
0.0
 10
-137.295418611186
 20
17.21303813569733
 30
0.0
 10
-137.0989851345886
 20
17.44095133610796
 30
0.0
 10
-136.9122817544407
 20
17.67550389644992
 30
0.0
 10
-136.7357663576398
 20
17.91709646775322
 30
0.0
 10
-136.6958157263285
 20
17.97181395132899
 30
0.0
 10
-136.6597571335947
 20
18.02910704867013
 30
0.0
 10
-136.6208367477882
 20
18.08451136258197
 30
0.0
 10
-136.4861035298653
 20
18.27642320612141
 30
0.0
 10
-136.3572656056782
 20
18.47216985237824
 30
0.0
 10
-136.2356394000333
 20
18.67266707514093
 30
0.0
 10
-136.1858442005475
 20
18.75474330050202
 30
0.0
 10
-136.1378805486276
 20
18.83779253550908
 30
0.0
 10
-136.0903175477365
 20
18.92124242154358
 30
0.0
 10
-135.9800812785275
 20
19.11481410506954
 30
0.0
 10
-135.8768850202837
 20
19.31273571406494
 30
0.0
 10
-135.7791834047374
 20
19.51414871060777
 30
0.0
 10
-135.7427813968349
 20
19.58912768914746
 30
0.0
 10
-135.7042044261976
 20
19.66261853528594
 30
0.0
 10
-135.6696339658657
 20
19.7386849951898
 30
0.0
 10
-135.5446308443922
 20
20.01376054546154
 30
0.0
 10
-135.4294722910978
 20
20.2949423569332
 30
0.0
 10
-135.3286799390328
 20
20.58445932027179
 30
0.0
 10
-135.3134551998788
 20
20.62813028257969
 30
0.0
 10
-135.3021224993087
 20
20.67397620762552
 30
0.0
 10
-135.2874701187701
 20
20.71799058510209
 30
0.0
 10
-135.2047642989311
 20
20.96650869564596
 30
0.0
 10
-135.1314451603773
 20
21.22046421302792
 30
0.0
 10
-135.0672837596582
 20
21.47962819380838
 30
0.0
 10
-135.0435881130056
 20
21.57549826178417
 30
0.0
 10
-135.023040438735
 20
21.67302816974647
 30
0.0
 10
-135.001920405849
 20
21.77032913425829
 30
0.0
 10
-134.9532699235899
 20
21.99446476781352
 30
0.0
 10
-134.912117339186
 20
22.22266414752956
 30
0.0
 10
-134.8776613505793
 20
22.45464109410551
 30
0.0
 10
-134.8632951493461
 20
22.55154140758924
 30
0.0
 10
-134.8472691081296
 20
22.64746871142765
 30
0.0
 10
-134.8354212848036
 20
22.74579992145191
 30
0.0
 10
-134.7962719555543
 20
23.0705561994843
 30
0.0
 10
-134.7665665434458
 20
23.40046370504935
 30
0.0
 10
-134.7559206732124
 20
23.7403874863769
 30
0.0
 10
-134.572765916477
 20
29.57810194208872
 30
0.0
 10
-140.0468037083538
 20
34.0475358932812
 30
0.0
 10
-144.5294019076837
 20
36.75650921709369
 30
0.0
 10
-144.9573544439663
 20
37.01515807511825
 30
0.0
 10
-145.387138527813
 20
37.25818154295822
 30
0.0
 10
-145.8180100930271
 20
37.49347816950208
 30
0.0
 10
-145.9053520176455
 20
37.54121287797465
 30
0.0
 10
-145.9927511781233
 20
37.5894627092031
 30
0.0
 10
-146.0802648103263
 20
37.63616717216708
 30
0.0
 10
-146.5005477411696
 20
37.86053174916574
 30
0.0
 10
-146.9224332761298
 20
38.07407874834638
 30
0.0
 10
-147.3462075945225
 20
38.27469044283045
 30
0.0
 10
-147.4215299882315
 20
38.31034838453362
 30
0.0
 10
-147.4973675046888
 20
38.34365965591356
 30
0.0
 10
-147.5728043701191
 20
38.37857353141739
 30
0.0
 10
-147.9758020707946
 20
38.56493349639352
 30
0.0
 10
-148.380402375594
 20
38.74104824216306
 30
0.0
 10
-148.7872348789874
 20
38.9046855701332
 30
0.0
 10
-148.8367438991679
 20
38.92460364992974
 30
0.0
 10
-148.8859667400391
 20
38.94646774901115
 30
0.0
 10
-148.935590231941
 20
38.96604241363965
 30
0.0
 10
-149.3684650523058
 20
39.13689146015514
 30
0.0
 10
-149.8043733733344
 20
39.29137105028735
 30
0.0
 10
-150.242227713651
 20
39.43514753432293
 30
0.0
 10
-150.3355221678608
 20
39.46576872021546
 30
0.0
 10
-150.4290455655173
 20
39.49581754749268
 30
0.0
 10
-150.5225689631768
 20
39.52517954442934
 30
0.0
 10
-150.9622548510608
 20
39.66323244231758
 30
0.0
 10
-151.4041157016796
 20
39.79029605480121
 30
0.0
 10
-151.8495251757109
 20
39.89950207850483
 30
0.0
 10
-151.9022966399941
 20
39.91243738319816
 30
0.0
 10
-151.9555259911712
 20
39.92268260240409
 30
0.0
 10
-152.008354691317
 20
39.93521725606676
 30
0.0
 10
-152.4257758290844
 20
40.0341780605651
 30
0.0
 10
-152.8461732316492
 20
40.11888713555483
 30
0.0
 10
-153.2692034838394
 20
40.19134773618794
 30
0.0
 10
-153.3479027933763
 20
40.20485539949658
 30
0.0
 10
-153.4262586877414
 20
40.22030908209393
 30
0.0
 10
-153.5051869407212
 20
40.23284373576046
 30
0.0
 10
-153.9533437361026
 20
40.30415961916294
 30
0.0
 10
-154.4052208624812
 20
40.35870539515086
 30
0.0
 10
-154.8603031971031
 20
40.39894220577138
 30
0.0
 10
-154.9550857837148
 20
40.40735587740996
 30
0.0
 10
-155.0503834930753
 20
40.41370905803524
 30
0.0
 10
-155.1455094948549
 20
40.4206918331346
 30
0.0
 10
-155.6154731534596
 20
40.45531952932917
 30
0.0
 10
-156.0880696616929
 20
40.47872899667571
 30
0.0
 10
-156.5662180484927
 20
40.47884346839711
 30
0.0
 10
-156.5675344733073
 20
40.47884346839711
 30
0.0
 10
-156.5687936622587
 20
40.47901517598112
 30
0.0
 10
-156.5701100870733
 20
40.47901517598112
 30
0.0
 10
-156.57657773942
 20
40.47901517598112
 30
0.0
 10
-156.5832170993513
 20
40.47827110978179
 30
0.0
 10
-156.5896847516979
 20
40.47827110978179
 30
0.0
 10
-157.0181524107333
 20
40.47787045875113
 30
0.0
 10
-157.451313410408
 20
40.45818132240508
 30
0.0
 10
-157.8868210804021
 20
40.4289910330486
 30
0.0
 10
-157.9986599537343
 20
40.4214931351927
 30
0.0
 10
-158.1107850063726
 20
40.41302222769533
 30
0.0
 10
-158.2231390024544
 20
40.40357831055135
 30
0.0
 10
-158.6690635992416
 20
40.36608882128471
 30
0.0
 10
-159.1173921022076
 20
40.31898370728622
 30
0.0
 10
-159.5712152478743
 20
40.25024343764976
 30
0.0
 10
-163.5218061147602
 20
39.65275827966502
 30
0.0
 10
-167.416191365666
 20
37.32806652982467
 30
0.0
 10
-170.1924740625783
 20
34.17082193890556
 30
0.0
 10
-170.3754571117296
 20
35.65935498839576
 30
0.0
 10
-170.4807710968494
 20
37.17152644867913
 30
0.0
 10
-170.4807710968494
 20
38.70870998042909
 30
0.0
 10
-170.4807710968494
 20
39.08795479858997
 30
0.0
 10
-170.4634286308227
 20
39.4630786347242
 30
0.0
 10
-170.4520386943868
 20
39.83963336739703
 30
0.0
 10
-166.2427417336201
 20
42.32756179417622
 30
0.0
 10
-162.8833400799595
 20
45.85563753161761
 30
0.0
 10
-161.0116701737239
 20
50.5342113206548
 30
0.0
 10
-159.2966548203591
 20
54.8215779964799
 30
0.0
 10
-159.4319031610341
 20
59.58360167155545
 30
0.0
 10
-160.3786415457612
 20
64.07478525010858
 30
0.0
 10
-158.8936571196837
 20
65.6484280256198
 30
0.0
 10
-157.2786900521871
 20
67.09769727413544
 30
0.0
 10
-155.5404369390605
 20
68.39265864010096
 30
0.0
 10
-154.8773594838244
 20
66.66905790751612
 30
0.0
 10
-154.1144626861687
 20
64.99136033583714
 30
0.0
 10
-153.2158024250827
 20
63.40117639636056
 30
0.0
 10
-152.1825806536573
 20
61.57346363174214
 30
0.0
 10
-151.0253860062714
 20
60.07989382644066
 30
0.0
 10
-149.7630490813459
 20
58.77566025091198
 30
0.0
 10
-149.2581143113754
 20
58.25395537353016
 30
0.0
 10
-148.7363521981303
 20
57.7625282668677
 30
0.0
 10
-148.1989646947039
 20
57.29216395723241
 30
0.0
 10
-147.1242469237065
 20
56.35137810209985
 30
0.0
 10
-145.9871992995599
 20
55.49472896333785
 30
0.0
 10
-144.7973229752682
 20
54.64798162861374
 30
0.0
 10
-143.3100491147293
 20
53.5895188422789
 30
0.0
 10
-141.740412849524
 20
52.54662421026667
 30
0.0
 10
-140.1073592497983
 20
51.37431929544822
 30
0.0
 10
-139.3666699663933
 20
50.84265537816589
 30
0.0
 10
-138.6457270552001
 20
50.30915991331944
 30
0.0
 10
-137.9256426819322
 20
49.79037406487167
 30
0.0
 10
-137.2056155445224
 20
49.27153098056127
 30
0.0
 10
-136.4863897091752
 20
48.76739751265276
 30
0.0
 10
-135.7492490491854
 20
48.29422864580418
 30
0.0
 10
-134.6341227599834
 20
47.57832249042231
 30
0.0
 10
-133.4769281125976
 20
46.93447628464226
 30
0.0
 10
-132.2144194800842
 20
46.41706409686789
 30
0.0
 10
-131.8078731560006
 20
46.25045050410109
 30
0.0
 10
-131.3912533202906
 20
46.09597091396953
 30
0.0
 10
-130.9604962267986
 20
45.95768907263464
 30
0.0
 10
-130.6649302381188
 20
45.86290648602623
 30
0.0
 10
-130.372111570793
 20
45.78500847855504
 30
0.0
 10
-130.0811816868964
 20
45.71764186959199
 30
0.0
 10
-129.9864563361442
 20
45.69572053464411
 30
0.0
 10
-129.8929329384878
 20
45.68055303135279
 30
0.0
 10
-129.7986654746321
 20
45.66143625362141
 30
0.0
 10
-129.60280435665
 20
45.62171456575359
 30
0.0
 10
-129.4075155972826
 20
45.58491190682043
 30
0.0
 10
-129.2138866778985
 20
45.55715251400317
 30
0.0
 10
-129.1048523617789
 20
45.54152712381859
 30
0.0
 10
-128.9967338194458
 20
45.5303088949699
 30
0.0
 10
-128.8884435695256
 20
45.51840383578131
 30
0.0
 10
-128.7097532099894
 20
45.49877193529403
 30
0.0
 10
-128.5320358600959
 20
45.48303207338741
 30
0.0
 10
-128.3553487557104
 20
45.4732447410754
 30
0.0
 10
-128.2458565527007
 20
45.46717773975939
 30
0.0
 10
-128.1367650007185
 20
45.46265610670144
 30
0.0
 10
-128.0280740997714
 20
45.46030943638142
 30
0.0
 10
-127.9584752922136
 20
45.45882130398277
 30
0.0
 10
-127.8877317674258
 20
45.45201023646807
 30
0.0
 10
-127.8184763750334
 20
45.45201023646807
 30
0.0
 10
-127.7658766183342
 20
45.45201023646807
 30
0.0
 10
-127.7157380036797
 20
45.46231269153277
 30
0.0
 10
-127.6633099545651
 20
45.46317122945349
 30
0.0
 10
-127.2564774511717
 20
45.46981058938802
 30
0.0
 10
-126.853422514633
 20
45.49356347189938
 30
0.0
 10
-126.4584378345654
 20
45.54976908787317
 30
0.0
 10
-126.4507109932636
 20
45.55085656924116
 30
0.0
 10
-126.4427552085176
 20
45.55102827682518
 30
0.0
 10
-126.4350856030815
 20
45.55211575819639
 30
0.0
 10
-126.0325457892962
 20
45.61043910104292
 30
0.0
 10
-125.6387058264586
 20
45.70155859251669
 30
0.0
 10
-125.2491585532292
 20
45.80773111556102
 30
0.0
 10
-125.1613587417208
 20
45.8316557056596
 30
0.0
 10
-125.073787873659
 20
45.85552305989621
 30
0.0
 10
-124.9867321283492
 20
45.8817370844554
 30
0.0
 10
-124.6079451970784
 20
45.99580815638243
 30
0.0
 10
-124.2344812009275
 20
46.12676380744607
 30
0.0
 10
-123.8690302253807
 20
46.28238811480762
 30
0.0
 10
-123.8179186010802
 20
46.30413774217148
 30
0.0
 10
-123.7684095809035
 20
46.33006558742141
 30
0.0
 10
-123.7175269000464
 20
46.35261651684274
 30
0.0
 10
-123.3852727241588
 20
46.49988438842831
 30
0.0
 10
-123.059486200621
 20
46.66455196190704
 30
0.0
 10
-122.7389653763341
 20
46.84335679316848
 30
0.0
 10
-122.6668481908729
 20
46.88359360378901
 30
0.0
 10
-122.5942158826558
 20
46.92165545167032
 30
0.0
 10
-122.522671055806
 20
46.9633803946895
 30
0.0
 10
-122.4184445520504
 20
47.02422211543941
 30
0.0
 10
-122.3194265116933
 20
47.09708336710381
 30
0.0
 10
-122.2164591968935
 20
47.16107306023889
 30
0.0
 10
-121.9776711828029
 20
47.30954288491387
 30
0.0
 10
-121.737681215619
 20
47.45526538824138
 30
0.0
 10
-121.5059904483491
 20
47.61976125413223
 30
0.0
 10
-121.4377080656027
 20
47.66824002880412
 30
0.0
 10
-121.3711427587055
 20
47.71969506827654
 30
0.0
 10
-121.3034899704364
 20
47.76949026776242
 30
0.0
 10
-121.0035740562859
 20
47.99030622134846
 30
0.0
 10
-120.7095534358674
 20
48.22245487550842
 30
0.0
 10
-120.4224583546857
 20
48.46765330608633
 30
0.0
 10
-120.3770130806705
 20
48.50651645603022
 30
0.0
 10
-120.3302513818439
 20
48.54280399220748
 30
0.0
 10
-120.2850922871342
 20
48.58218226490727
 30
0.0
 10
-119.9704667565857
 20
48.85685716414386
 30
0.0
 10
-119.665456850762
 20
49.14738639701297
 30
0.0
 10
-119.3671435407322
 20
49.4478746697781
 30
0.0
 10
-119.2990328655737
 20
49.51644323183055
 30
0.0
 10
-119.2320669076413
 20
49.58604203938837
 30
0.0
 10
-119.1648147704028
 20
49.65592702625867
 30
0.0
 10
-118.866158045205
 20
49.96614539547318
 30
0.0
 10
-118.5729387268447
 20
50.28391889840686
 30
0.0
 10
-118.2918534111195
 20
50.61623031015392
 30
0.0
 10
-117.1461631718916
 20
51.97025908516785
 30
0.0
 10
-116.461908447907
 20
53.50005919078715
 30
0.0
 10
-115.895330655124
 20
55.08520637445311
 30
0.0
 10
-115.6120131408009
 20
55.87775134835799
 30
0.0
 10
-115.358172095141
 20
56.68420463659895
 30
0.0
 10
-115.0907661503085
 20
57.48928426416714
 30
0.0
 10
-114.8233602054805
 20
58.29442112759732
 30
0.0
 10
-114.5423893614774
 20
59.09835603793489
 30
0.0
 10
-114.2049267221945
 20
59.8859214918879
 30
0.0
 10
-113.9829660513778
 20
60.40402050999897
 30
0.0
 10
-113.7508746330805
 20
60.90563560000024
 30
0.0
 10
-113.5131741003579
 20
61.39528839495798
 30
0.0
 10
-112.4580309939851
 20
63.56853405532348
 30
0.0
 10
-111.3022100072759
 20
65.51123366565228
 30
0.0
 10
-110.4125357764432
 20
67.60080049653599
 30
0.0
 10
-105.1083167855772
 20
63.35693307543414
 30
0.0
 10
-100.9921998072957
 20
57.69081173243393
 30
0.0
 10
-98.65365697897416
 20
51.18023248917342
 30
0.0
 10
-98.78438368659502
 20
51.18509753739683
 30
0.0
 10
-98.90704013774531
 20
51.20484390960551
 30
0.0
 10
-99.04039969499095
 20
51.20484390960551
 30
0.0
 10
-99.09443034822936
 20
51.20484390960551
 30
0.0
 10
-99.14840376560581
 20
51.20444325857807
 30
0.0
 10
-99.20283506987168
 20
51.20364195651611
 30
0.0
 10
-99.57538329223925
 20
51.19803284209017
 30
0.0
 10
-99.9402046733075
 20
51.17370760096414
 30
0.0
 10
-100.2973564489371
 20
51.13186818622036
 30
0.0
 10
-102.0831153270897
 20
50.92255664079162
 30
0.0
 10
-103.6765617106722
 20
50.27418880195362
 30
0.0
 10
-105.0778673072693
 20
49.32636293585844
 30
0.0
 10
-105.6383780987363
 20
48.94728982528157
 30
0.0
 10
-106.1682104684481
 20
48.52019582692289
 30
0.0
 10
-106.6672499446872
 20
48.05418144276217
 30
0.0
 10
-107.05078745246
 20
47.69599942162395
 30
0.0
 10
-107.4104003701336
 20
47.30885605457652
 30
0.0
 10
-107.7576503417285
 20
46.90872014697698
 30
0.0
 10
-107.8622774965116
 20
46.78818142269944
 30
0.0
 10
-107.9709683974593
 20
46.67199262389646
 30
0.0
 10
-108.0722186364182
 20
46.54813421965678
 30
0.0
 10
-108.5098440332883
 20
46.0130933865497
 30
0.0
 10
-108.9166765366818
 20
45.44794649030341
 30
0.0
 10
-109.2928306183239
 20
44.86179403289194
 30
0.0
 10
-110.0451960174677
 20
43.68937464635211
 30
0.0
 10
-110.6746760220177
 20
42.43258959999057
 30
0.0
 10
-111.1814423395555
 20
41.16275477721367
 30
0.0
 10
-112.2051629579706
 20
38.59813029604821
 30
0.0
 10
-110.5723383016915
 20
34.87447961993401
 30
0.0
 10
-108.1430766329275
 20
33.69524916587562
 30
0.0
 10
-107.9055478077882
 20
33.57997614085534
 30
0.0
 10
-107.646841713901
 20
33.46916751303488
 30
0.0
 10
-107.3761733249664
 20
33.36150685759253
 30
0.0
 10
-107.2899188817187
 20
33.32722257656599
 30
0.0
 10
-107.1971967861242
 20
33.29517049413807
 30
0.0
 10
-107.1078516063545
 20
33.26174475103225
 30
0.0
 10
-106.9153674041965
 20
33.18968480143044
 30
0.0
 10
-106.7191628710458
 20
33.11922745594868
 30
0.0
 10
-106.5132854773083
 20
33.0516319035422
 30
0.0
 10
-106.402476849484
 20
33.01522989564292
 30
0.0
 10
-106.289035372031
 20
32.98060219944834
 30
0.0
 10
-106.1747353566573
 20
32.94557385222312
 30
0.0
 10
-105.9748104925068
 20
32.88438871630132
 30
0.0
 10
-105.7705357028893
 20
32.82572195828227
 30
0.0
 10
-105.5606517988452
 20
32.76911569128104
 30
0.0
 10
-105.4396551876815
 20
32.7364912502378
 30
0.0
 10
-105.3194026427106
 20
32.70421022436261
 30
0.0
 10
-105.1953152950243
 20
32.67318838744327
 30
0.0
 10
-104.9675738021977
 20
32.61623870526952
 30
0.0
 10
-104.7339370156397
 20
32.56346724098311
 30
0.0
 10
-104.4969805491158
 20
32.51235561668643
 30
0.0
 10
-104.3858285061234
 20
32.48837379072458
 30
0.0
 10
-104.2777671996498
 20
32.46296106822735
 30
0.0
 10
-104.1648408449527
 20
32.44035290294276
 30
0.0
 10
-103.8190217698938
 20
32.3710975105536
 30
0.0
 10
-103.4667922783502
 20
32.30716505328113
 30
0.0
 10
-103.1064925303367
 20
32.2516462676479
 30
0.0
 10
-103.0992808117939
 20
32.25055878627991
 30
0.0
 10
-103.092526980138
 20
32.24907065388189
 30
0.0
 10
-103.0853152615914
 20
32.24798317251389
 30
0.0
 10
-102.7190629839864
 20
32.1918920282615
 30
0.0
 10
-102.3455417519697
 20
32.14513032943554
 30
0.0
 10
-101.968643604132
 20
32.10466457536838
 30
0.0
 10
-101.8492495970845
 20
32.0918437423958
 30
0.0
 10
-101.7285391652267
 20
32.08308665558853
 30
0.0
 10
-101.6083438561211
 20
32.07192566260311
 30
0.0
 10
-101.3469476767427
 20
32.04771489319462
 30
0.0
 10
-101.0852653180581
 20
32.02613697341926
 30
0.0
 10
-100.8210645814741
 20
32.01011093220338
 30
0.0
 10
-100.6786617581113
 20
32.00146831712135
 30
0.0
 10
-100.536602349921
 20
31.99545855166797
 30
0.0
 10
-100.3936844038094
 20
31.98933431448548
 30
0.0
 10
-100.1447656422348
 20
31.97868844425275
 30
0.0
 10
-99.89624753169099
 20
31.97204908432143
 30
0.0
 10
-99.64669917564174
 20
31.96924452710878
 30
0.0
 10
-99.56141774204056
 20
31.96827151746281
 30
0.0
 10
-99.47647972360355
 20
31.96237622373081
 30
0.0
 10
-99.39119828999849
 20
31.96237622373081
 30
0.0
 10
-99.3456385442613
 20
31.96237622373081
 30
0.0
 10
-99.30070839300203
 20
31.96729850781685
 30
0.0
 10
-99.25514864726096
 20
31.96758468712611
 30
0.0
 10
-98.76898723985707
 20
31.97050371606015
 30
0.0
 10
-98.28448567243519
 20
31.98733105933478
 30
0.0
 10
-97.80416232290003
 20
32.02327518034335
 30
0.0
 10
-97.72569195681354
 20
32.02911323821658
 30
0.0
 10
-97.64916761001577
 20
32.03872886294457
 30
0.0
 10
-97.57092618737592
 20
32.0455399304599
 30
0.0
 10
-97.40740333112782
 20
32.05979165996788
 30
0.0
 10
-97.24908893827437
 20
32.08697869417303
 30
0.0
 10
-97.08699697856616
 20
32.10535140570444
 30
0.0
 10
-97.07823989175889
 20
32.10632441535105
 30
0.0
 10
-97.06965451253948
 20
32.10758360430243
 30
0.0
 10
-97.06089742573221
 20
32.10855661394839
 30
0.0
 10
-97.06089742573221
 20
32.10855661394839
 30
0.0
 10
-97.06393092639149
 20
32.09499171477713
 30
0.0
 10
-97.06393092639149
 20
32.09499171477713
 30
0.0
 10
-97.07251630561154
 20
32.09401870513115
 30
0.0
 10
-97.08087274138753
 20
32.09241610101111
 30
0.0
 10
-97.08945812061077
 20
32.09144309136514
 30
0.0
 10
-97.39000362923853
 20
30.43463660912868
 30
0.0
 10
-97.79849597261467
 20
28.8158347389077
 30
0.0
 10
-98.31253124455786
 20
27.24316497304565
 30
0.0
 10
-98.86892105400074
 20
25.54074150920551
 30
0.0
 10
-99.54424698359403
 20
23.89252040618845
 30
0.0
 10
-100.331297314795
 20
22.30806005285664
 30
0.0
 10
-102.8549409191361
 20
17.22774775209922
 30
0.0
 10
-106.5111105145691
 20
12.8086813590073
 30
0.0
 10
-110.9691545293263
 20
9.378593416417649
 30
0.0
 10
-110.4606139000838
 20
10.06239025351282
 30
0.0
 10
-110.0257358245644
 20
10.79243366667741
 30
0.0
 10
-109.6986328762088
 20
11.55990933325371
 30
0.0
 10
-109.1674268458236
 20
12.80616298110327
 30
0.0
 10
-108.8933243051978
 20
14.13397773156251
 30
0.0
 10
-108.9340762385742
 20
15.44937230007662
 30
0.0
 10
-108.9353354275231
 20
15.48972358241853
 30
0.0
 10
-108.9432912122716
 20
15.52961697787038
 30
0.0
 10
-108.9451799956977
 20
15.56991102435032
 30
0.0
 10
-108.9583442438383
 20
15.85826529448406
 30
0.0
 10
-108.9803228146482
 20
16.14627614944913
 30
0.0
 10
-109.0245661355707
 20
16.43216927753762
 30
0.0
 10
-109.0876400549193
 20
16.83951690368379
 30
0.0
 10
-109.1828805284242
 20
17.24331590642119
 30
0.0
 10
-109.3120046319179
 20
17.64076172853395
 30
0.0
 10
-109.5057480230273
 20
18.23698769756284
 30
0.0
 10
-109.7756723457625
 20
18.81890470122113
 30
0.0
 10
-110.1280163090281
 20
19.37683987892206
 30
0.0
 10
-110.3041310548015
 20
19.6558074677706
 30
0.0
 10
-110.5009079465676
 20
19.92876529116576
 30
0.0
 10
-110.7189193429403
 20
20.19456863187369
 30
0.0
 10
-110.9369879751763
 20
20.46031473672285
 30
0.0
 10
-111.1762911120228
 20
20.71896359474805
 30
0.0
 10
-111.4376872913981
 20
20.9691415452746
 30
0.0
 10
-111.7389196303625
 20
21.25726687196106
 30
0.0
 10
-112.0550332933129
 20
21.5205518347656
 30
0.0
 10
-112.3804191658232
 20
21.76695221843354
 30
0.0
 10
-112.4865344530043
 20
21.84725413209056
 30
0.0
 10
-112.5983160904714
 20
21.91610887344842
 30
0.0
 10
-112.7067780479757
 20
21.99206086163152
 30
0.0
 10
-112.7136463513536
 20
21.99686867399551
 30
0.0
 10
-112.7205718905936
 20
22.00156201463427
 30
0.0
 10
-112.7274974298303
 20
22.00636982700212
 30
0.0
 10
-112.9452226468976
 20
22.15815933164242
 30
0.0
 10
-113.1638636377489
 20
22.30743045838255
 30
0.0
 10
-113.3902314698983
 20
22.44182026113293
 30
0.0
 10
-113.5243350933471
 20
22.52143534445325
 30
0.0
 10
-113.6621018119261
 20
22.59194992579442
 30
0.0
 10
-113.798952756725
 20
22.66549800779488
 30
0.0
 10
-114.0165062662044
 20
22.78243087279719
 30
0.0
 10
-114.2353762005024
 20
22.89541446335686
 30
0.0
 10
-114.4593401264697
 20
22.99729429678924
 30
0.0
 10
-114.6071803566706
 20
23.06454643402705
 30
0.0
 10
-114.7565087192695
 20
23.12636116442678
 30
0.0
 10
-114.9068673273776
 20
23.18714564931857
 30
0.0
 10
-115.1295148285304
 20
23.27712042356235
 30
0.0
 10
-115.3539366413916
 20
23.36034136615407
 30
0.0
 10
-115.5815064266342
 20
23.4363505901953
 30
0.0
 10
-115.7353564222879
 20
23.48769115794247
 30
0.0
 10
-115.8890347103614
 20
23.53748635743221
 30
0.0
 10
-116.0448307253076
 20
23.58247374455411
 30
0.0
 10
-116.2793832856489
 20
23.65018376868262
 30
0.0
 10
-116.5159963370042
 20
23.7081064605017
 30
0.0
 10
-116.7542692283421
 20
23.76162199098423
 30
0.0
 10
-116.905944261261
 20
23.79567732856349
 30
0.0
 10
-117.056531812812
 20
23.83207933646598
 30
0.0
 10
-117.2095232705487
 20
23.86046832375668
 30
0.0
 10
-117.4691451382192
 20
23.90866091912637
 30
0.0
 10
-117.7309419686258
 20
23.94357479462636
 30
0.0
 10
-117.993482865231
 20
23.97556964119615
 30
0.0
 10
-118.127586488676
 20
23.99193909757686
 30
0.0
 10
-118.2603736873063
 20
24.01426108355155
 30
0.0
 10
-118.3950496693666
 20
24.0264523220494
 30
0.0
 10
-118.7514001429374
 20
24.0587333479246
 30
0.0
 10
-119.109238748907
 20
24.07521727602734
 30
0.0
 10
-119.4680503645193
 20
24.07876589944317
 30
0.0
 10
-119.5096608358132
 20
24.07916655046998
 30
0.0
 10
-119.5510423636637
 20
24.08385989111258
 30
0.0
 10
-119.5926528349608
 20
24.0839171269752
 30
0.0
 10
-119.5962014583728
 20
24.0839171269752
 30
0.0
 10
-119.5997500817822
 20
24.08437501386527
 30
0.0
 10
-119.6032987051942
 20
24.08437501386527
 30
0.0
 10
-119.6461683654434
 20
24.08437501386527
 30
0.0
 10
-119.6890380256893
 20
24.07807906910262
 30
0.0
 10
-119.7319076859385
 20
24.07767841807197
 30
0.0
 10
-120.1391408403633
 20
24.07384361535394
 30
0.0
 10
-120.546373994788
 20
24.05404000728264
 30
0.0
 10
-120.9527486112914
 20
24.01437555527679
 30
0.0
 10
-121.1066558428077
 20
23.99937975956949
 30
0.0
 10
-121.2586742908985
 20
23.97179207433689
 30
0.0
 10
-121.4121236355247
 20
23.95175952281896
 30
0.0
 10
-121.7096928793519
 20
23.91283913701244
 30
0.0
 10
-122.0064035852616
 20
23.87185826019323
 30
0.0
 10
-122.3012255077427
 20
23.81427898354539
 30
0.0
 10
-122.4777981404055
 20
23.77982299493547
 30
0.0
 10
-122.6513372724129
 20
23.735293494703
 30
0.0
 10
-122.8264790085371
 20
23.69425538202438
 30
0.0
 10
-123.0956020292142
 20
23.63123869853525
 30
0.0
 10
-123.3629507381834
 20
23.56507404266481
 30
0.0
 10
-123.6278955409674
 20
23.48671814830035
 30
0.0
 10
-123.8084174480742
 20
23.43331708953922
 30
0.0
 10
-123.985734146937
 20
23.37344837843142
 30
0.0
 10
-124.1639666195831
 20
23.31306454457157
 30
0.0
 10
-124.4187234390309
 20
23.22675286546115
 30
0.0
 10
-124.6703322860928
 20
23.13500377950945
 30
0.0
 10
-124.9194227552488
 20
23.03461207847508
 30
0.0
 10
-125.0959381520529
 20
22.96346790265662
 30
0.0
 10
-125.2699924068091
 20
22.88946193376224
 30
0.0
 10
-125.4432453595072
 20
22.81139221870704
 30
0.0
 10
-125.6878714314711
 20
22.70121318535746
 30
0.0
 10
-125.9271173324518
 20
22.58284942381848
 30
0.0
 10
-126.1644744500064
 20
22.45904825543821
 30
0.0
 10
-126.3303439765739
 20
22.37256486874377
 30
0.0
 10
-126.4955266728014
 20
22.28665384066465
 30
0.0
 10
-126.6573896890662
 20
22.19358832989831
 30
0.0
 10
-126.7754672712992
 20
22.12570659818641
 30
0.0
 10
-126.8872489087656
 20
22.04878160035735
 30
0.0
 10
-127.0030370565379
 20
21.97746571695487
 30
0.0
 10
-127.1212863463549
 20
21.90471893701252
 30
0.0
 10
-127.2401652306459
 20
21.83311687430014
 30
0.0
 10
-127.3558961425594
 20
21.75682147094965
 30
0.0
 10
-127.5032784858664
 20
21.6595777422966
 30
0.0
 10
-127.6527213201905
 20
21.56639775980886
 30
0.0
 10
-127.7958109738901
 20
21.46348768086725
 30
0.0
 10
-128.0400936306814
 20
21.28783082199097
 30
0.0
 10
-128.2719561055353
 20
21.09803670532492
 30
0.0
 10
-128.502559391434
 20
20.90612486178548
 30
0.0
 10
-128.616630463361
 20
20.81122780345245
 30
0.0
 10
-128.7362534138546
 20
20.72314181263796
 30
0.0
 10
-128.8466613906476
 20
20.62435271572364
 30
0.0
 10
-129.180060283762
 20
20.32609664155264
 30
0.0
 10
-129.4992074473723
 20
20.0131309509836
 30
0.0
 10
-129.7964332760347
 20
19.68024718062188
 30
0.0
 10
-131.8637925926652
 20
17.36436975344757
 30
0.0
 10
-133.1138810432327
 20
14.37419664218919
 30
0.0
 10
-131.9179949534844
 20
11.33359873696313
 30
0.0
 10
-131.7426815097761
 20
10.88904780085637
 30
0.0
 10
-131.5432145325188
 20
10.4746029278856
 30
0.0
 10
-131.3326437981348
 20
10.07463872786944
 30
0.0
 10
-131.2909760909815
 20
9.99548153144304
 30
0.0
 10
-131.2502813934677
 20
9.915294089511258
 30
0.0
 10
-131.2072972614972
 20
9.837853968930145
 30
0.0
 10
-130.9975278291752
 20
9.459868339720641
 30
0.0
 10
-130.7735639032072
 20
9.101228431689795
 30
0.0
 10
-130.5342607663645
 20
8.763937499994089
 30
0.0
 10
-130.489902973716
 20
8.701378703395032
 30
0.0
 10
-130.4430840390242
 20
8.642711945380478
 30
0.0
 10
-130.3977532367337
 20
8.581526809458038
 30
0.0
 10
-130.1634296198383
 20
8.265413146507677
 30
0.0
 10
-129.9184028968477
 20
7.965211053047958
 30
0.0
 10
-129.6598685105452
 20
7.685785577309991
 30
0.0
 10
-129.6330821273707
 20
7.65682423140013
 30
0.0
 10
-129.6082989993507
 20
7.625115564140241
 30
0.0
 10
-129.5812264368708
 20
7.596554869261677
 30
0.0
 10
-129.3047772259256
 20
7.304537503993916
 30
0.0
 10
-129.0128170965211
 20
7.037990097086659
 30
0.0
 10
-128.7122715878934
 20
6.786381250024077
 30
0.0
 10
-128.6483963664829
 20
6.732922955400321
 30
0.0
 10
-128.5846356167951
 20
6.679922547674334
 30
0.0
 10
-128.5197873857386
 20
6.628238564754643
 30
0.0
 10
-128.2179254522969
 20
6.387847946543951
 30
0.0
 10
-127.9073636679131
 20
6.163540605407917
 30
0.0
 10
-127.5852974753687
 20
5.96178419369064
 30
0.0
 10
-127.5375055310335
 20
5.931849838138665
 30
0.0
 10
-127.4880537467157
 20
5.905750285304721
 30
0.0
 10
-127.4398039154872
 20
5.876674467673467
 30
0.0
 10
-127.1357097834469
 20
5.693119059906794
 30
0.0
 10
-126.8237171025244
 20
5.526390995417956
 30
0.0
 10
-126.5046271747767
 20
5.37608962317694
 30
0.0
 10
-126.4513405877409
 20
5.350963079985111
 30
0.0
 10
-126.3994276613784
 20
5.323089215443252
 30
0.0
 10
-126.3457976591712
 20
5.298935681901238
 30
0.0
 10
-126.002668669603
 20
5.144284384181802
 30
0.0
 10
-125.6511260083999
 20
5.011153770382803
 30
0.0
 10
-125.2940314686297
 20
4.893591310906415
 30
0.0
 10
-125.2173354142479
 20
4.868350295992549
 30
0.0
 10
-125.1404104164189
 20
4.844769121062639
 30
0.0
 10
-125.0631420034218
 20
4.821245181994708
 30
0.0
 10
-124.6990646885528
 20
4.710264846586379
 30
0.0
 10
-124.3306946840752
 20
4.612734938627921
 30
0.0
 10
-123.9557425555224
 20
4.538900677318203
 30
0.0
 10
-123.9245490110178
 20
4.532776440139568
 30
0.0
 10
-123.8928403437579
 20
4.529285052589569
 30
0.0
 10
-123.8615895633881
 20
4.523389758858215
 30
0.0
 10
-123.5028351836352
 20
4.455794206451732
 30
0.0
 10
-123.1396164066902
 20
4.407658846944662
 30
0.0
 10
-122.7737647801127
 20
4.373260094196723
 30
0.0
 10
-122.7023344249882
 20
4.366563498403419
 30
0.0
 10
-122.6315336643384
 20
4.357978119180165
 30
0.0
 10
-122.5599316016299
 20
4.352483476479464
 30
0.0
 10
-122.2429594007549
 20
4.328272707074828
 30
0.0
 10
-121.9246707750724
 20
4.312303901721564
 30
0.0
 10
-121.6044361300948
 20
4.312303901721564
 30
0.0
 10
-121.549661410657
 20
4.312303901721564
 30
0.0
 10
-121.4944288043292
 20
4.318141959594147
 30
0.0
 10
-121.4395396131733
 20
4.318828789930853
 30
0.0
 10
-121.3194587757896
 20
4.32037415818892
 30
0.0
 10
-121.1993207025434
 20
4.328272707074828
 30
0.0
 10
-121.0789536858537
 20
4.333137755301446
 30
0.0
 10
-120.7903704722733
 20
4.344871106902816
 30
0.0
 10
-120.5019589662808
 20
4.365132601867387
 30
0.0
 10
-120.2127461582263
 20
4.395868259481311
 30
0.0
 10
-120.0805885540694
 20
4.409948281405266
 30
0.0
 10
-119.9489460726691
 20
4.424486190219288
 30
0.0
 10
-119.8167884685129
 20
4.442515486585876
 30
0.0
 10
-119.6778770327032
 20
4.461403320873827
 30
0.0
 10
-119.5392517762003
 20
4.479432617241057
 30
0.0
 10
-119.4005692838342
 20
4.502613141140956
 30
0.0
 10
-123.7444277549423
 20
2.707639289290368
 30
0.0
 10
-128.4989535321588
 20
1.710933997489427
 30
0.0
 10
-133.4835102366656
 20
1.710933997489427
 30
0.0
  0
SPLINE
  5
7C
330
70
100
AcDbEntity
  8
Layer 1
100
AcDbSpline
210
0.0
220
0.0
230
1.0
 70
     9
 71
     3
 72
    77
 73
    73
 74
     0
 42
0.0000000001
 43
0.0000000001
 40
0.0
 40
0.0
 40
0.0
 40
0.0
 40
1.0
 40
1.0
 40
1.0
 40
2.0
 40
2.0
 40
2.0
 40
3.0
 40
3.0
 40
3.0
 40
4.0
 40
4.0
 40
4.0
 40
5.0
 40
5.0
 40
5.0
 40
6.0
 40
6.0
 40
6.0
 40
7.0
 40
7.0
 40
7.0
 40
8.0
 40
8.0
 40
8.0
 40
9.0
 40
9.0
 40
9.0
 40
10.0
 40
10.0
 40
10.0
 40
11.0
 40
11.0
 40
11.0
 40
12.0
 40
12.0
 40
12.0
 40
13.0
 40
13.0
 40
13.0
 40
14.0
 40
14.0
 40
14.0
 40
15.0
 40
15.0
 40
15.0
 40
16.0
 40
16.0
 40
16.0
 40
17.0
 40
17.0
 40
17.0
 40
18.0
 40
18.0
 40
18.0
 40
19.0
 40
19.0
 40
19.0
 40
20.0
 40
20.0
 40
20.0
 40
21.0
 40
21.0
 40
21.0
 40
22.0
 40
22.0
 40
22.0
 40
23.0
 40
23.0
 40
23.0
 40
24.0
 40
24.0
 40
24.0
 40
24.0
 10
-162.6529657375042
 20
15.9510446259405
 30
0.0
 10
-163.1707785763061
 20
16.61486614737972
 30
0.0
 10
-163.6568255119853
 20
17.30289843821973
 30
0.0
 10
-164.1279911236826
 20
18.00123318412827
 30
0.0
 10
-164.1520301855064
 20
18.03683388996882
 30
0.0
 10
-164.1754968887117
 20
18.07283524684065
 30
0.0
 10
-164.1994214788103
 20
18.10855042440259
 30
0.0
 10
-164.4872033903288
 20
18.53627401723536
 30
0.0
 10
-164.7650834978099
 20
18.97120932861734
 30
0.0
 10
-165.0352939998544
 20
19.41129586753262
 30
0.0
 10
-165.1211477920716
 20
19.55192437918367
 30
0.0
 10
-165.2041970270786
 20
19.69421273082444
 30
0.0
 10
-165.2881620358696
 20
19.83592872384605
 30
0.0
 10
-165.4923795896277
 20
20.17877153410509
 30
0.0
 10
-165.6924761613591
 20
20.52430442985858
 30
0.0
 10
-165.8858189014346
 20
20.87413001521953
 30
0.0
 10
-166.0277066020408
 20
21.13220651462942
 30
0.0
 10
-166.163870716503
 20
21.39337375055737
 30
0.0
 10
-166.2995769440686
 20
21.65471269407383
 30
0.0
 10
-166.4285293399809
 20
21.90174267221521
 30
0.0
 10
-166.5577679152031
 20
22.14865817863904
 30
0.0
 10
-166.6812256684115
 20
22.39895060088762
 30
0.0
 10
-166.861346924487
 20
22.76583247296984
 30
0.0
 10
-167.0330545089238
 20
23.13666361949212
 30
0.0
 10
-167.2010417623678
 20
23.50926907772167
 30
0.0
 10
-167.273674070585
 20
23.66981566916926
 30
0.0
 10
-167.3486530491221
 20
23.82904583580605
 30
0.0
 10
-167.4191103946
 20
23.99079438034624
 30
0.0
 10
-167.61514322017
 20
24.4424425632776
 30
0.0
 10
-167.8002439961941
 20
24.89866961513016
 30
0.0
 10
-167.9780758178096
 20
25.35764398833276
 30
0.0
 10
-168.0155653070794
 20
25.45414365078647
 30
0.0
 10
-168.055458702528
 20
25.54938412428818
 30
0.0
 10
-168.0920896538772
 20
25.64622720190993
 30
0.0
 10
-168.2848600353373
 20
26.15625596355364
 30
0.0
 10
-168.4650385272754
 20
26.67092082997413
 30
0.0
 10
-168.6349718000082
 20
27.18884814050118
 30
0.0
 10
-168.6534017474029
 20
27.24493928475036
 30
0.0
 10
-168.6735487706422
 20
27.30028636279957
 30
0.0
 10
-168.6917497745934
 20
27.35649197877336
 30
0.0
 10
-168.8696388320715
 20
27.90750161723371
 30
0.0
 10
-169.0338485186563
 20
28.46268947358077
 30
0.0
 10
-169.185294608128
 20
29.02125424575899
 30
0.0
 10
-169.1913043735852
 20
29.04340452414966
 30
0.0
 10
-169.1989167431625
 20
29.06509691565091
 30
0.0
 10
-169.2048692727565
 20
29.08724719404478
 30
0.0
 10
-169.2046975651686
 20
29.08753337335083
 30
0.0
 10
-169.2045258575846
 20
29.08787678851887
 30
0.0
 10
-169.2043541500006
 20
29.08816296782877
 30
0.0
 10
-167.1791776632826
 20
32.8732277233114
 30
0.0
 10
-163.0634613360317
 20
35.92842077321411
 30
0.0
 10
-159.0093880315966
 20
36.54158855723902
 30
0.0
 10
-158.1926895241497
 20
36.66527525389789
 30
0.0
 10
-157.3719845063969
 20
36.72800575807775
 30
0.0
 10
-156.5701100870733
 20
36.72800575807775
 30
0.0
 10
-153.2706916162419
 20
36.72800575807775
 30
0.0
 10
-150.0611906837923
 20
35.71699150090558
 30
0.0
 10
-146.4694686683838
 20
33.54620698258534
 30
0.0
 10
-143.4389442747835
 20
31.71477388697028
 30
0.0
 10
-138.3744863076534
 20
28.02082862296142
 30
0.0
 10
-138.5050985435491
 20
23.85772100240665
 30
0.0
 10
-138.7322104418978
 20
16.59969864408841
 30
0.0
 10
-149.402005267133
 20
14.68195386936293
 30
0.0
 10
-155.0121499376093
 20
14.68195386936293
 30
0.0
 10
-157.4002590219662
 20
14.68195386936293
 30
0.0
 10
-159.6492849629334
 20
14.96979301674078
 30
0.0
 10
-161.3446684158115
 20
15.49235643204717
 30
0.0
 10
-161.7695302155722
 20
15.62336931897343
 30
0.0
 10
-162.192331524319
 20
15.77286938915699
 30
0.0
 10
-162.6096381903618
 20
15.93587712264919
 30
0.0
 10
-162.6239471557324
 20
15.94148623707513
 30
0.0
 10
-162.6386567721337
 20
15.94543551151456
 30
0.0
 10
-162.6529657375042
 20
15.9510446259405
 30
0.0
  0
SPLINE
  5
7D
330
70
100
AcDbEntity
  8
Layer 1
100
AcDbSpline
210
0.0
220
0.0
230
1.0
 70
     9
 71
     3
 72
    32
 73
    28
 74
     0
 42
0.0000000001
 43
0.0000000001
 40
0.0
 40
0.0
 40
0.0
 40
0.0
 40
1.0
 40
1.0
 40
1.0
 40
2.0
 40
2.0
 40
2.0
 40
3.0
 40
3.0
 40
3.0
 40
4.0
 40
4.0
 40
4.0
 40
5.0
 40
5.0
 40
5.0
 40
6.0
 40
6.0
 40
6.0
 40
7.0
 40
7.0
 40
7.0
 40
8.0
 40
8.0
 40
8.0
 40
9.0
 40
9.0
 40
9.0
 40
9.0
 10
-169.7631478656255
 20
45.95791801608128
 30
0.0
 10
-169.7470073526882
 20
46.03970806213633
 30
0.0
 10
-169.7333279817949
 20
46.12218493852871
 30
0.0
 10
-169.7166151102423
 20
46.20380327699653
 30
0.0
 10
-169.5981368769787
 20
46.77742108074147
 30
0.0
 10
-169.4666661031624
 20
47.34634554384701
 30
0.0
 10
-169.3218593736182
 20
47.90994707183267
 30
0.0
 10
-169.3173377405596
 20
47.9275757171686
 30
0.0
 10
-169.3131022868109
 20
47.94531883422656
 30
0.0
 10
-169.3085806537562
 20
47.96300471542191
 30
0.0
 10
-168.1771421440324
 20
52.37909484371652
 30
0.0
 10
-166.2473206025375
 20
56.53670782157059
 30
0.0
 10
-163.5636455294976
 20
60.25623751566071
 30
0.0
 10
-163.562157397099
 20
60.24181407856487
 30
0.0
 10
-163.5616995102089
 20
60.22807747181279
 30
0.0
 10
-163.5602686136729
 20
60.2136540347176
 30
0.0
 10
-163.2409497424785
 20
57.05846993481181
 30
0.0
 10
-163.5513970551403
 20
54.28470561580613
 30
0.0
 10
-164.4943578730128
 20
51.92744666078131
 30
0.0
 10
-165.6448559246086
 20
49.05145909317456
 30
0.0
 10
-167.488537494577
 20
46.61510017758597
 30
0.0
 10
-169.9987879073348
 20
44.64212279653589
 30
0.0
 10
-170.0043397858981
 20
44.63777287106196
 30
0.0
 10
-170.0092620699841
 20
44.6330795304232
 30
0.0
 10
-170.0148139485474
 20
44.62872960494927
 30
0.0
 10
-169.9436697727283
 20
45.07534103207321
 30
0.0
 10
-169.8503753185192
 20
45.51577098615652
 30
0.0
 10
-169.7631478656255
 20
45.95791801608128
 30
0.0
  0
SPLINE
  5
7E
330
70
100
AcDbEntity
  8
Layer 1
100
AcDbSpline
210
0.0
220
0.0
230
1.0
 70
     9
 71
     3
 72
   140
 73
   136
 74
     0
 42
0.0000000001
 43
0.0000000001
 40
0.0
 40
0.0
 40
0.0
 40
0.0
 40
1.0
 40
1.0
 40
1.0
 40
2.0
 40
2.0
 40
2.0
 40
3.0
 40
3.0
 40
3.0
 40
4.0
 40
4.0
 40
4.0
 40
5.0
 40
5.0
 40
5.0
 40
6.0
 40
6.0
 40
6.0
 40
7.0
 40
7.0
 40
7.0
 40
8.0
 40
8.0
 40
8.0
 40
9.0
 40
9.0
 40
9.0
 40
10.0
 40
10.0
 40
10.0
 40
11.0
 40
11.0
 40
11.0
 40
12.0
 40
12.0
 40
12.0
 40
13.0
 40
13.0
 40
13.0
 40
14.0
 40
14.0
 40
14.0
 40
15.0
 40
15.0
 40
15.0
 40
16.0
 40
16.0
 40
16.0
 40
17.0
 40
17.0
 40
17.0
 40
18.0
 40
18.0
 40
18.0
 40
19.0
 40
19.0
 40
19.0
 40
20.0
 40
20.0
 40
20.0
 40
21.0
 40
21.0
 40
21.0
 40
22.0
 40
22.0
 40
22.0
 40
23.0
 40
23.0
 40
23.0
 40
24.0
 40
24.0
 40
24.0
 40
25.0
 40
25.0
 40
25.0
 40
26.0
 40
26.0
 40
26.0
 40
27.0
 40
27.0
 40
27.0
 40
28.0
 40
28.0
 40
28.0
 40
29.0
 40
29.0
 40
29.0
 40
30.0
 40
30.0
 40
30.0
 40
31.0
 40
31.0
 40
31.0
 40
32.0
 40
32.0
 40
32.0
 40
33.0
 40
33.0
 40
33.0
 40
34.0
 40
34.0
 40
34.0
 40
35.0
 40
35.0
 40
35.0
 40
36.0
 40
36.0
 40
36.0
 40
37.0
 40
37.0
 40
37.0
 40
38.0
 40
38.0
 40
38.0
 40
39.0
 40
39.0
 40
39.0
 40
40.0
 40
40.0
 40
40.0
 40
41.0
 40
41.0
 40
41.0
 40
42.0
 40
42.0
 40
42.0
 40
43.0
 40
43.0
 40
43.0
 40
44.0
 40
44.0
 40
44.0
 40
45.0
 40
45.0
 40
45.0
 40
45.0
 10
-151.7969254190123
 20
70.83525626458959
 30
0.0
 10
-151.4168792987895
 20
71.05275253821412
 30
0.0
 10
-151.0344292723841
 20
71.26475416913027
 30
0.0
 10
-150.6479727356772
 20
71.46805594910562
 30
0.0
 10
-150.365113108248
 20
71.61686918895182
 30
0.0
 10
-150.0814521787568
 20
71.76419429639681
 30
0.0
 10
-149.7943570975751
 20
71.90579581769704
 30
0.0
 10
-149.3712696095223
 20
72.11453500451431
 30
0.0
 10
-148.9432026015176
 20
72.31108295283309
 30
0.0
 10
-148.5132468100875
 20
72.50305203223515
 30
0.0
 10
-148.172521726698
 20
72.65518495204734
 30
0.0
 10
-147.8305374543604
 20
72.80445607878362
 30
0.0
 10
-147.484489435858
 20
72.94651548697776
 30
0.0
 10
-146.981901336207
 20
73.15273629588394
 30
0.0
 10
-146.4763369717618
 20
73.35042896143334
 30
0.0
 10
-145.9656786156433
 20
73.53386989747477
 30
0.0
 10
-145.6749776751909
 20
73.63838258053964
 30
0.0
 10
-145.3805564037411
 20
73.73459606368346
 30
0.0
 10
-145.0865930191852
 20
73.83195426406111
 30
0.0
 10
-144.6692291172798
 20
73.97000716194934
 30
0.0
 10
-144.2495185450518
 20
74.10073386956634
 30
0.0
 10
-143.8274040666417
 20
74.22367650002269
 30
0.0
 10
-143.5452312695493
 20
74.30598166883362
 30
0.0
 10
-143.2636308310714
 20
74.38948879072754
 30
0.0
 10
-142.9787679484877
 20
74.4652118354672
 30
0.0
 10
-142.3564996624868
 20
74.6302228241101
 30
0.0
 10
-141.7303393379021
 20
74.78172614944821
 30
0.0
 10
-141.0991994933694
 20
74.91394098946388
 30
0.0
 10
-140.9179907559291
 20
74.95200283734583
 30
0.0
 10
-140.7351221785037
 20
74.98519963700437
 30
0.0
 10
-140.552997667273
 20
75.02057139940148
 30
0.0
 10
-139.9549973865394
 20
75.1364740188952
 30
0.0
 10
-139.3537346616993
 20
75.23875450335889
 30
0.0
 10
-138.7489233134471
 20
75.32500894660668
 30
0.0
 10
-138.5021222787486
 20
75.36032347314118
 30
0.0
 10
-138.2534896964833
 20
75.3893420549098
 30
0.0
 10
-138.0052005293892
 20
75.41979153321832
 30
0.0
 10
-137.4814923968523
 20
75.48372399049078
 30
0.0
 10
-136.9556665374425
 20
75.53655269063661
 30
0.0
 10
-136.4278374228814
 20
75.57816316193053
 30
0.0
 10
-136.1964328349214
 20
75.5965358734658
 30
0.0
 10
-135.9657150772975
 20
75.61714078359904
 30
0.0
 10
-135.7332230079695
 20
75.63116356966038
 30
0.0
 10
-134.9863522515271
 20
75.67603648506088
 30
0.0
 10
-134.2369631171767
 20
75.70602807647548
 30
0.0
 10
-133.4835102366656
 20
75.70602807647548
 30
0.0
 10
-132.6939415275613
 20
75.70602807647548
 30
0.0
 10
-131.9098102252956
 20
75.67185826717096
 30
0.0
 10
-131.1284834802388
 20
75.62315054905244
 30
0.0
 10
-130.8815107379562
 20
75.6075251588672
 30
0.0
 10
-130.6358544204876
 20
75.58726366390584
 30
0.0
 10
-130.390198103019
 20
75.56683046135725
 30
0.0
 10
-129.8329497556554
 20
75.520984536314
 30
0.0
 10
-129.2787921448169
 20
75.46031452314425
 30
0.0
 10
-128.726752260848
 20
75.38985717766249
 30
0.0
 10
-128.4726822717408
 20
75.3570610290346
 30
0.0
 10
-128.2167807350701
 20
75.33056082517001
 30
0.0
 10
-127.9643705859456
 20
75.2926706848727
 30
0.0
 10
-127.2794862674831
 20
75.19073361557706
 30
0.0
 10
-126.5999248841411
 20
75.06687521133416
 30
0.0
 10
-125.9245989545477
 20
74.9271624734671
 30
0.0
 10
-125.5615518851836
 20
74.85149666459006
 30
0.0
 10
-125.2031409206026
 20
74.76341067377173
 30
0.0
 10
-124.844043125681
 20
74.67715623052457
 30
0.0
 10
-124.4947326630721
 20
74.59376358034885
 30
0.0
 10
-124.1468530970031
 20
74.5053914102251
 30
0.0
 10
-123.8005188991909
 20
74.41186801256868
 30
0.0
 10
-123.3923127351208
 20
74.30105938474437
 30
0.0
 10
-122.9843927503593
 20
74.18944945485876
 30
0.0
 10
-122.5818529365771
 20
74.06507592786318
 30
0.0
 10
-122.3444385831599
 20
73.99198573275599
 30
0.0
 10
-122.1106300890179
 20
73.90807795982822
 30
0.0
 10
-121.8748183397207
 20
73.83017995235319
 30
0.0
 10
-121.0776944969017
 20
73.56603645162794
 30
0.0
 10
-120.2919605905121
 20
73.27739600218878
 30
0.0
 10
-119.5197915832971
 20
72.96145404682242
 30
0.0
 10
-119.308305075133
 20
72.874970660128
 30
0.0
 10
-119.096417915935
 20
72.78963199066033
 30
0.0
 10
-118.8864195401664
 20
72.69919932952326
 30
0.0
 10
-118.4415251888871
 20
72.50740195770586
 30
0.0
 10
-118.0000077534364
 20
72.30907969768238
 30
0.0
 10
-117.5642711399957
 20
72.10051221844913
 30
0.0
 10
-117.3838637046142
 20
72.01414330347994
 30
0.0
 10
-117.2064897698894
 20
71.92102055685097
 30
0.0
 10
-117.0273987593219
 20
71.83161814122249
 30
0.0
 10
-116.2682795285222
 20
71.45294568167307
 30
0.0
 10
-115.5245567444611
 20
71.04851708446159
 30
0.0
 10
-114.7960586995533
 20
70.62027836887613
 30
0.0
 10
-114.573697377706
 20
70.48943718953388
 30
0.0
 10
-114.3503630462127
 20
70.36071373706437
 30
0.0
 10
-114.1303483946886
 20
70.22495027363674
 30
0.0
 10
-113.932541257414
 20
70.10298065282701
 30
0.0
 10
-113.7278658167653
 20
69.99560617669008
 30
0.0
 10
-113.5320046987832
 20
69.86968728143321
 30
0.0
 10
-113.5348092559965
 20
69.86207491185978
 30
0.0
 10
-113.5383578794085
 20
69.85457701400453
 30
0.0
 10
-113.5412196724837
 20
69.84696464442723
 30
0.0
 10
-114.0554838878736
 20
68.46649290141067
 30
0.0
 10
-114.7633197867849
 20
67.12642967659866
 30
0.0
 10
-115.5409834367045
 20
65.6556397441658
 30
0.0
 10
-116.247674618389
 20
64.31918237862517
 30
0.0
 10
-116.9784048618941
 20
62.93716526734733
 30
0.0
 10
-117.6527005459821
 20
61.36329354838883
 30
0.0
 10
-118.1540866925405
 20
60.19322083217158
 30
0.0
 10
-118.5268638583548
 20
59.05371206598102
 30
0.0
 10
-118.887278078091
 20
57.95169278905647
 30
0.0
 10
-119.5259158204757
 20
55.99926308227765
 30
0.0
 10
-120.0774405816888
 20
54.31309460310068
 30
0.0
 10
-121.1557069760981
 20
53.03868091140256
 30
0.0
 10
-122.6358835898085
 20
51.28886615425917
 30
0.0
 10
-124.9932570165553
 20
49.20301965437144
 30
0.0
 10
-127.8184191391708
 20
49.20301965437144
 30
0.0
 10
-128.4674738083455
 20
49.20301965437144
 30
0.0
 10
-129.1393083503927
 20
49.31291250841241
 30
0.0
 10
-129.814004685508
 20
49.52920682893987
 30
0.0
 10
-132.3017041688406
 20
50.32776156829878
 30
0.0
 10
-134.3494315849837
 20
51.82156031704624
 30
0.0
 10
-136.7205416184859
 20
53.55128528681293
 30
0.0
 10
-137.116556544062
 20
53.84015467969551
 30
0.0
 10
-137.5153760268475
 20
54.13108456359528
 30
0.0
 10
-137.9199190957842
 20
54.42149932474235
 30
0.0
 10
-138.8253331885235
 20
55.07141253183842
 30
0.0
 10
-139.7115732676688
 20
55.68269153243722
 30
0.0
 10
-140.5757775401417
 20
56.27845961457283
 30
0.0
 10
-144.5167527822957
 20
58.99544595899328
 30
0.0
 10
-147.6295251088456
 20
61.14144734929421
 30
0.0
 10
-149.9502103483839
 20
65.24668951389573
 30
0.0
 10
-150.8655834810193
 20
66.86640715789684
 30
0.0
 10
-151.6672861927627
 20
68.63224795625291
 30
0.0
 10
-152.3455883871533
 20
70.51937154508586
 30
0.0
 10
-152.3469620478267
 20
70.52320634780389
 30
0.0
 10
-152.3485074160874
 20
70.52686944294176
 30
0.0
 10
-152.3498810767608
 20
70.53070424565979
 30
0.0
 10
-152.1685578675959
 20
70.63865108040818
 30
0.0
 10
-151.9797939964378
 20
70.7305718739439
 30
0.0
 10
-151.7969254190123
 20
70.83525626458959
 30
0.0
  0
SPLINE
  5
7F
330
70
100
AcDbEntity
  8
Layer 1
100
AcDbSpline
210
0.0
220
0.0
230
1.0
 70
     9
 71
     3
 72
    68
 73
    64
 74
     0
 42
0.0000000001
 43
0.0000000001
 40
0.0
 40
0.0
 40
0.0
 40
0.0
 40
1.0
 40
1.0
 40
1.0
 40
2.0
 40
2.0
 40
2.0
 40
3.0
 40
3.0
 40
3.0
 40
4.0
 40
4.0
 40
4.0
 40
5.0
 40
5.0
 40
5.0
 40
6.0
 40
6.0
 40
6.0
 40
7.0
 40
7.0
 40
7.0
 40
8.0
 40
8.0
 40
8.0
 40
9.0
 40
9.0
 40
9.0
 40
10.0
 40
10.0
 40
10.0
 40
11.0
 40
11.0
 40
11.0
 40
12.0
 40
12.0
 40
12.0
 40
13.0
 40
13.0
 40
13.0
 40
14.0
 40
14.0
 40
14.0
 40
15.0
 40
15.0
 40
15.0
 40
16.0
 40
16.0
 40
16.0
 40
17.0
 40
17.0
 40
17.0
 40
18.0
 40
18.0
 40
18.0
 40
19.0
 40
19.0
 40
19.0
 40
20.0
 40
20.0
 40
20.0
 40
21.0
 40
21.0
 40
21.0
 40
21.0
 10
-97.48925061304227
 20
47.26140752541001
 30
0.0
 10
-97.47414034561359
 20
47.19776124744679
 30
0.0
 10
-97.46429577743832
 20
47.13314195983442
 30
0.0
 10
-97.44952892517446
 20
47.06943844600859
 30
0.0
 10
-97.31805815135812
 20
46.50263170977899
 30
0.0
 10
-97.20061016360311
 20
45.9334210673706
 30
0.0
 10
-97.09598300882007
 20
45.36214993394568
 30
0.0
 10
-97.07119988080011
 20
45.22650094223943
 30
0.0
 10
-97.04624504519294
 20
45.09090918639581
 30
0.0
 10
-97.02300728543427
 20
44.95468783607427
 30
0.0
 10
-96.93022795397398
 20
44.4139806526786
 30
0.0
 10
-96.85232994650281
 20
43.87127021413226
 30
0.0
 10
-96.78370414858774
 20
43.32752953008052
 30
0.0
 10
-96.76384330465381
 20
43.16921513723092
 30
0.0
 10
-96.74100619592259
 20
43.01181651816081
 30
0.0
 10
-96.72320584300585
 20
42.85287253083391
 30
0.0
 10
-96.66276477328274
 20
42.31857576392616
 30
0.0
 10
-96.61892210338763
 20
41.78279086461589
 30
0.0
 10
-96.58189050101105
 20
41.24654807842005
 30
0.0
 10
-96.57095845146841
 20
41.08674555316794
 30
0.0
 10
-96.55424557991581
 20
40.92848839617776
 30
0.0
 10
-96.54537402138716
 20
40.76817074817297
 30
0.0
 10
-96.51509625066651
 20
40.2271773854719
 30
0.0
 10
-96.50416420112387
 20
39.68532548484627
 30
0.0
 10
-96.497753784636
 20
39.14335911250244
 30
0.0
 10
-96.49603670879454
 20
38.99838067537363
 30
0.0
 10
-96.48504742338928
 20
38.85374565341668
 30
0.0
 10
-96.48504742338928
 20
38.70870998042909
 30
0.0
 10
-96.48504742338928
 20
38.16931922184807
 30
0.0
 10
-96.50290501216865
 20
37.63416391701574
 30
0.0
 10
-96.52585659262513
 20
37.1003250370019
 30
0.0
 10
-96.53816230284437
 20
36.82931323289483
 30
0.0
 10
-96.55481793853113
 20
36.55675606053033
 30
0.0
 10
-96.57330512179164
 20
36.28351205782977
 30
0.0
 10
-96.58091749136829
 20
36.17127253346942
 30
0.0
 10
-96.58412269960903
 20
36.06052114150838
 30
0.0
 10
-96.59276531469426
 20
35.94793820197614
 30
0.0
 10
-96.59471133398298
 20
35.94759478680811
 30
0.0
 10
-96.59700076844359
 20
35.94748031508608
 30
0.0
 10
-96.5989467877323
 20
35.94713689991419
 30
0.0
 10
-97.43693703565234
 20
35.7930007249513
 30
0.0
 10
-98.37646370183419
 20
35.71338564163483
 30
0.0
 10
-99.39119828999849
 20
35.71338564163483
 30
0.0
 10
-102.3751899282195
 20
35.71338564163483
 30
0.0
 10
-105.114269315168
 20
36.3946068649595
 30
0.0
 10
-106.5050435132531
 20
37.06970385110616
 30
0.0
 10
-107.270344217094
 20
37.44122182797157
 30
0.0
 10
-107.9422359949967
 20
39.15961409716112
 30
0.0
 10
-107.6976099230335
 20
39.77243846602185
 30
0.0
 10
-107.0887348286199
 20
41.29817482547262
 30
0.0
 10
-105.6952705450435
 20
44.17267426068458
 30
0.0
 10
-103.3563270656946
 20
45.93994595557989
 30
0.0
 10
-102.1935233038827
 20
46.81851642928592
 30
0.0
 10
-100.801089265815
 20
47.42807835403943
 30
0.0
 10
-99.14714457664995
 20
47.4530331896434
 30
0.0
 10
-99.14714457664995
 20
47.4530331896434
 30
0.0
 10
-99.04039969499095
 20
47.45383449170534
 30
0.0
 10
-99.04039969499095
 20
47.45383449170534
 30
0.0
 10
-98.48681444276458
 20
47.45383449170534
 30
0.0
 10
-97.97398112391078
 20
47.39058886476958
 30
0.0
 10
-97.49411566126889
 20
47.26238053505661
 30
0.0
 10
-97.49257029300826
 20
47.26197988402532
 30
0.0
 10
-97.49079598130355
 20
47.2618081764413
 30
0.0
 10
-97.48925061304227
 20
47.26140752541001
 30
0.0
  0
SPLINE
  5
80
330
70
100
AcDbEntity
  8
Layer 1
100
AcDbSpline
210
0.0
220
0.0
230
1.0
 70
     9
 71
     3
 72
    41
 73
    37
 74
     0
 42
0.0000000001
 43
0.0000000001
 40
0.0
 40
0.0
 40
0.0
 40
0.0
 40
1.0
 40
1.0
 40
1.0
 40
2.0
 40
2.0
 40
2.0
 40
3.0
 40
3.0
 40
3.0
 40
4.0
 40
4.0
 40
4.0
 40
5.0
 40
5.0
 40
5.0
 40
6.0
 40
6.0
 40
6.0
 40
7.0
 40
7.0
 40
7.0
 40
8.0
 40
8.0
 40
8.0
 40
9.0
 40
9.0
 40
9.0
 40
10.0
 40
10.0
 40
10.0
 40
11.0
 40
11.0
 40
11.0
 40
12.0
 40
12.0
 40
12.0
 40
12.0
 10
-65.85035386868113
 20
-8.58350804816817
 30
0.0
 10
-55.08674946648084
 20
-3.104147321174728
 30
0.0
 10
-47.70418187357979
 20
3.307127702422613
 30
0.0
 10
-43.89210179147922
 20
10.49892816901484
 30
0.0
 10
-39.86155242610815
 20
18.09985057345794
 30
0.0
 10
-37.81714468993035
 20
26.94284840786069
 30
0.0
 10
-37.81714468993035
 20
36.77745754239497
 30
0.0
 10
-37.81714468993035
 20
52.02886860732363
 30
0.0
 10
-43.41154949849678
 20
64.49758655885531
 30
0.0
 10
-54.4460512330821
 20
73.84008175639109
 30
0.0
 10
-65.33488770020254
 20
83.06020668208196
 30
0.0
 10
-80.69985471430555
 20
87.73437330978646
 30
0.0
 10
-100.109909002593
 20
87.73437330978646
 30
0.0
 10
-100.109909002593
 20
87.73437330978646
 30
0.0
 10
-188.1817625613699
 20
87.73437330978646
 30
0.0
 10
-188.1817625613699
 20
87.73437330978646
 30
0.0
 10
-188.1817625613699
 20
87.73437330978646
 30
0.0
 10
-188.1817625613699
 20
-81.12881775588205
 30
0.0
 10
-188.1817625613699
 20
-81.12881775588205
 30
0.0
 10
-188.1817625613699
 20
-81.12881775588205
 30
0.0
 10
-132.2144194800842
 20
-81.12881775588205
 30
0.0
 10
-132.2144194800842
 20
-81.12881775588205
 30
0.0
 10
-132.2144194800842
 20
-81.12881775588205
 30
0.0
 10
-132.2144194800842
 20
-18.83313441428468
 30
0.0
 10
-132.2144194800842
 20
-18.83313441428468
 30
0.0
 10
-132.2144194800842
 20
-18.83313441428468
 30
0.0
 10
-121.4828099244499
 20
-18.83313441428468
 30
0.0
 10
-121.4828099244499
 20
-18.83313441428468
 30
0.0
 10
-121.4828099244499
 20
-18.83313441428468
 30
0.0
 10
-97.68986230752958
 20
-81.12881775588205
 30
0.0
 10
-97.68986230752958
 20
-81.12881775588205
 30
0.0
 10
-97.68986230752958
 20
-81.12881775588205
 30
0.0
 10
-35.73490404931786
 20
-81.12881775588205
 30
0.0
 10
-35.73490404931786
 20
-81.12881775588205
 30
0.0
 10
-35.73490404931786
 20
-81.12881775588205
 30
0.0
 10
-65.85035386868113
 20
-8.58350804816817
 30
0.0
 10
-65.85035386868113
 20
-8.58350804816817
 30
0.0
  0
HATCH
  5
81
330
70
100
AcDbEntity
  8
Layer 1
 62
     7
440
 33554687
100
AcDbHatch
 10
0.0
 20
0.0
 30
0.0
210
0.0
220
0.0
230
1.0
  2
SOLID
 70
     1
 71
     1
 91
        8
 92
        1
 93
        1
 72
     4
 94
        3
 73
     0
 74
     0
 95
       47
 96
       43
 40
0.0
 40
0.0
 40
0.0
 40
0.0
 40
1.0
 40
1.0
 40
1.0
 40
2.0
 40
2.0
 40
2.0
 40
3.0
 40
3.0
 40
3.0
 40
4.0
 40
4.0
 40
4.0
 40
5.0
 40
5.0
 40
5.0
 40
6.0
 40
6.0
 40
6.0
 40
7.0
 40
7.0
 40
7.0
 40
8.0
 40
8.0
 40
8.0
 40
9.0
 40
9.0
 40
9.0
 40
10.0
 40
10.0
 40
10.0
 40
11.0
 40
11.0
 40
11.0
 40
12.0
 40
12.0
 40
12.0
 40
13.0
 40
13.0
 40
13.0
 40
14.0
 40
14.0
 40
14.0
 40
14.0
 10
-76.08406866531019
 20
-27.69484837539521
 10
-94.87271320551881
 20
-24.45764528599096
 10
-100.7429376305525
 20
-11.83690888636911
 10
-100.7429376305525
 20
-11.83690888636911
 10
-101.8621276659197
 20
-16.69468815769841
 10
-100.3387952126502
 20
-20.08059001522748
 10
-100.3387952126502
 20
-20.08059001522748
 10
-111.1968960221529
 20
-14.80916717298615
 10
-113.0532839533719
 20
-4.283606718677185
 10
-113.0532839533719
 20
-4.283606718677185
 10
-115.0058853677347
 20
-5.351170006987327
 10
-114.2667414525904
 20
-12.81226520183748
 10
-114.2667414525904
 20
-12.81226520183748
 10
-116.8486511639231
 20
-10.71554388827039
 10
-121.1824933592688
 20
-3.726472843038199
 10
-122.5184356020535
 20
-0.5352873862644302
 10
-111.1181967126198
 20
2.643764067880522
 10
-101.7304851845155
 20
10.64556644612312
 10
-96.70712256592734
 20
21.14285238486279
 10
-91.8035546054174
 20
18.94116050134012
 10
-87.16991096764333
 20
14.72304921790417
 10
-87.16991096764333
 20
14.72304921790417
 10
-90.51219909872392
 20
15.24315149116659
 10
-94.66483255662613
 20
12.78996523230337
 10
-94.66483255662613
 20
12.78996523230337
 10
-89.59053002132209
 20
12.67074293284431
 10
-85.27712102852182
 20
9.173059437848172
 10
-82.57055161089132
 20
6.291348284090872
 10
-82.56597274197396
 20
6.287799660678252
 10
-82.56208070339395
 20
6.285052339328222
 10
-82.55675776827727
 20
6.281618187637637
 10
-81.70394343223328
 20
5.295215350904602
 10
-80.84883966173642
 20
4.045870966535701
 10
-80.4013124608285
 20
2.668718903484485
 10
-84.11076864330119
 20
3.163351218387036
 10
-88.50768475799474
 20
1.906279992719452
 10
-88.50768475799474
 20
1.906279992719452
 10
-72.83066782710669
 20
-10.44693599034532
 10
-70.69153474018371
 20
-28.59081855099054
 10
-70.69153474018371
 20
-28.59081855099054
 10
-70.69153474018371
 20
-28.59081855099054
 10
-76.08406866531019
 20
-27.69484837539521
 10
-76.08406866531019
 20
-27.69484837539521
 97
        0
 97
        1
330
79
 92
        1
 93
        1
 72
     4
 94
        3
 73
     0
 74
     0
 95
       26
 96
       22
 40
0.0
 40
0.0
 40
0.0
 40
0.0
 40
1.0
 40
1.0
 40
1.0
 40
2.0
 40
2.0
 40
2.0
 40
3.0
 40
3.0
 40
3.0
 40
4.0
 40
4.0
 40
4.0
 40
5.0
 40
5.0
 40
5.0
 40
6.0
 40
6.0
 40
6.0
 40
7.0
 40
7.0
 40
7.0
 40
7.0
 10
-112.6985933197837
 20
14.78692443931402
 10
-112.8531873816405
 20
12.97174632836213
 10
-114.0417472811183
 20
11.06436124456782
 10
-115.7269427506525
 20
9.92737085628066
 10
-117.5081799957472
 20
8.72536052935688
 10
-119.5955718638955
 20
8.0633705554882
 10
-121.6044361300948
 20
8.0633705554882
 10
-123.4686653743345
 20
8.0633705554882
 10
-126.8340767934556
 20
8.666979950647734
 10
-128.4272942335915
 20
12.70651534626886
 10
-129.0760054875943
 20
14.35593840237853
 10
-128.0081560199742
 20
16.05086396836277
 10
-126.9985154234832
 20
17.18190182705275
 10
-125.2627806882637
 20
19.12580339047415
 10
-122.4290904222876
 20
20.3333655959619
 10
-119.6032987051942
 20
20.3333655959619
 10
-117.4084178891875
 20
20.3333655959619
 10
-115.4293162709594
 20
19.59651111527812
 10
-114.0312158826063
 20
18.25919521181613
 10
-113.032163920486
 20
17.30301290994112
 10
-112.5837781816573
 20
16.13477174129119
 10
-112.6985933197837
 20
14.78692443931402
 97
        0
 97
        1
330
7A
 92
        1
 93
        1
 72
     4
 94
        3
 73
     0
 74
     0
 95
      677
 96
      673
 40
0.0
 40
0.0
 40
0.0
 40
0.0
 40
1.0
 40
1.0
 40
1.0
 40
2.0
 40
2.0
 40
2.0
 40
3.0
 40
3.0
 40
3.0
 40
4.0
 40
4.0
 40
4.0
 40
5.0
 40
5.0
 40
5.0
 40
6.0
 40
6.0
 40
6.0
 40
7.0
 40
7.0
 40
7.0
 40
8.0
 40
8.0
 40
8.0
 40
9.0
 40
9.0
 40
9.0
 40
10.0
 40
10.0
 40
10.0
 40
11.0
 40
11.0
 40
11.0
 40
12.0
 40
12.0
 40
12.0
 40
13.0
 40
13.0
 40
13.0
 40
14.0
 40
14.0
 40
14.0
 40
15.0
 40
15.0
 40
15.0
 40
16.0
 40
16.0
 40
16.0
 40
17.0
 40
17.0
 40
17.0
 40
18.0
 40
18.0
 40
18.0
 40
19.0
 40
19.0
 40
19.0
 40
20.0
 40
20.0
 40
20.0
 40
21.0
 40
21.0
 40
21.0
 40
22.0
 40
22.0
 40
22.0
 40
23.0
 40
23.0
 40
23.0
 40
24.0
 40
24.0
 40
24.0
 40
25.0
 40
25.0
 40
25.0
 40
26.0
 40
26.0
 40
26.0
 40
27.0
 40
27.0
 40
27.0
 40
28.0
 40
28.0
 40
28.0
 40
29.0
 40
29.0
 40
29.0
 40
30.0
 40
30.0
 40
30.0
 40
31.0
 40
31.0
 40
31.0
 40
32.0
 40
32.0
 40
32.0
 40
33.0
 40
33.0
 40
33.0
 40
34.0
 40
34.0
 40
34.0
 40
35.0
 40
35.0
 40
35.0
 40
36.0
 40
36.0
 40
36.0
 40
37.0
 40
37.0
 40
37.0
 40
38.0
 40
38.0
 40
38.0
 40
39.0
 40
39.0
 40
39.0
 40
40.0
 40
40.0
 40
40.0
 40
41.0
 40
41.0
 40
41.0
 40
42.0
 40
42.0
 40
42.0
 40
43.0
 40
43.0
 40
43.0
 40
44.0
 40
44.0
 40
44.0
 40
45.0
 40
45.0
 40
45.0
 40
46.0
 40
46.0
 40
46.0
 40
47.0
 40
47.0
 40
47.0
 40
48.0
 40
48.0
 40
48.0
 40
49.0
 40
49.0
 40
49.0
 40
50.0
 40
50.0
 40
50.0
 40
51.0
 40
51.0
 40
51.0
 40
52.0
 40
52.0
 40
52.0
 40
53.0
 40
53.0
 40
53.0
 40
54.0
 40
54.0
 40
54.0
 40
55.0
 40
55.0
 40
55.0
 40
56.0
 40
56.0
 40
56.0
 40
57.0
 40
57.0
 40
57.0
 40
58.0
 40
58.0
 40
58.0
 40
59.0
 40
59.0
 40
59.0
 40
60.0
 40
60.0
 40
60.0
 40
61.0
 40
61.0
 40
61.0
 40
62.0
 40
62.0
 40
62.0
 40
63.0
 40
63.0
 40
63.0
 40
64.0
 40
64.0
 40
64.0
 40
65.0
 40
65.0
 40
65.0
 40
66.0
 40
66.0
 40
66.0
 40
67.0
 40
67.0
 40
67.0
 40
68.0
 40
68.0
 40
68.0
 40
69.0
 40
69.0
 40
69.0
 40
70.0
 40
70.0
 40
70.0
 40
71.0
 40
71.0
 40
71.0
 40
72.0
 40
72.0
 40
72.0
 40
73.0
 40
73.0
 40
73.0
 40
74.0
 40
74.0
 40
74.0
 40
75.0
 40
75.0
 40
75.0
 40
76.0
 40
76.0
 40
76.0
 40
77.0
 40
77.0
 40
77.0
 40
78.0
 40
78.0
 40
78.0
 40
79.0
 40
79.0
 40
79.0
 40
80.0
 40
80.0
 40
80.0
 40
81.0
 40
81.0
 40
81.0
 40
82.0
 40
82.0
 40
82.0
 40
83.0
 40
83.0
 40
83.0
 40
84.0
 40
84.0
 40
84.0
 40
85.0
 40
85.0
 40
85.0
 40
86.0
 40
86.0
 40
86.0
 40
87.0
 40
87.0
 40
87.0
 40
88.0
 40
88.0
 40
88.0
 40
89.0
 40
89.0
 40
89.0
 40
90.0
 40
90.0
 40
90.0
 40
91.0
 40
91.0
 40
91.0
 40
92.0
 40
92.0
 40
92.0
 40
93.0
 40
93.0
 40
93.0
 40
94.0
 40
94.0
 40
94.0
 40
95.0
 40
95.0
 40
95.0
 40
96.0
 40
96.0
 40
96.0
 40
97.0
 40
97.0
 40
97.0
 40
98.0
 40
98.0
 40
98.0
 40
99.0
 40
99.0
 40
99.0
 40
100.0
 40
100.0
 40
100.0
 40
101.0
 40
101.0
 40
101.0
 40
102.0
 40
102.0
 40
102.0
 40
103.0
 40
103.0
 40
103.0
 40
104.0
 40
104.0
 40
104.0
 40
105.0
 40
105.0
 40
105.0
 40
106.0
 40
106.0
 40
106.0
 40
107.0
 40
107.0
 40
107.0
 40
108.0
 40
108.0
 40
108.0
 40
109.0
 40
109.0
 40
109.0
 40
110.0
 40
110.0
 40
110.0
 40
111.0
 40
111.0
 40
111.0
 40
112.0
 40
112.0
 40
112.0
 40
113.0
 40
113.0
 40
113.0
 40
114.0
 40
114.0
 40
114.0
 40
115.0
 40
115.0
 40
115.0
 40
116.0
 40
116.0
 40
116.0
 40
117.0
 40
117.0
 40
117.0
 40
118.0
 40
118.0
 40
118.0
 40
119.0
 40
119.0
 40
119.0
 40
120.0
 40
120.0
 40
120.0
 40
121.0
 40
121.0
 40
121.0
 40
122.0
 40
122.0
 40
122.0
 40
123.0
 40
123.0
 40
123.0
 40
124.0
 40
124.0
 40
124.0
 40
125.0
 40
125.0
 40
125.0
 40
126.0
 40
126.0
 40
126.0
 40
127.0
 40
127.0
 40
127.0
 40
128.0
 40
128.0
 40
128.0
 40
129.0
 40
129.0
 40
129.0
 40
130.0
 40
130.0
 40
130.0
 40
131.0
 40
131.0
 40
131.0
 40
132.0
 40
132.0
 40
132.0
 40
133.0
 40
133.0
 40
133.0
 40
134.0
 40
134.0
 40
134.0
 40
135.0
 40
135.0
 40
135.0
 40
136.0
 40
136.0
 40
136.0
 40
137.0
 40
137.0
 40
137.0
 40
138.0
 40
138.0
 40
138.0
 40
139.0
 40
139.0
 40
139.0
 40
140.0
 40
140.0
 40
140.0
 40
141.0
 40
141.0
 40
141.0
 40
142.0
 40
142.0
 40
142.0
 40
143.0
 40
143.0
 40
143.0
 40
144.0
 40
144.0
 40
144.0
 40
145.0
 40
145.0
 40
145.0
 40
146.0
 40
146.0
 40
146.0
 40
147.0
 40
147.0
 40
147.0
 40
148.0
 40
148.0
 40
148.0
 40
149.0
 40
149.0
 40
149.0
 40
150.0
 40
150.0
 40
150.0
 40
151.0
 40
151.0
 40
151.0
 40
152.0
 40
152.0
 40
152.0
 40
153.0
 40
153.0
 40
153.0
 40
154.0
 40
154.0
 40
154.0
 40
155.0
 40
155.0
 40
155.0
 40
156.0
 40
156.0
 40
156.0
 40
157.0
 40
157.0
 40
157.0
 40
158.0
 40
158.0
 40
158.0
 40
159.0
 40
159.0
 40
159.0
 40
160.0
 40
160.0
 40
160.0
 40
161.0
 40
161.0
 40
161.0
 40
162.0
 40
162.0
 40
162.0
 40
163.0
 40
163.0
 40
163.0
 40
164.0
 40
164.0
 40
164.0
 40
165.0
 40
165.0
 40
165.0
 40
166.0
 40
166.0
 40
166.0
 40
167.0
 40
167.0
 40
167.0
 40
168.0
 40
168.0
 40
168.0
 40
169.0
 40
169.0
 40
169.0
 40
170.0
 40
170.0
 40
170.0
 40
171.0
 40
171.0
 40
171.0
 40
172.0
 40
172.0
 40
172.0
 40
173.0
 40
173.0
 40
173.0
 40
174.0
 40
174.0
 40
174.0
 40
175.0
 40
175.0
 40
175.0
 40
176.0
 40
176.0
 40
176.0
 40
177.0
 40
177.0
 40
177.0
 40
178.0
 40
178.0
 40
178.0
 40
179.0
 40
179.0
 40
179.0
 40
180.0
 40
180.0
 40
180.0
 40
181.0
 40
181.0
 40
181.0
 40
182.0
 40
182.0
 40
182.0
 40
183.0
 40
183.0
 40
183.0
 40
184.0
 40
184.0
 40
184.0
 40
185.0
 40
185.0
 40
185.0
 40
186.0
 40
186.0
 40
186.0
 40
187.0
 40
187.0
 40
187.0
 40
188.0
 40
188.0
 40
188.0
 40
189.0
 40
189.0
 40
189.0
 40
190.0
 40
190.0
 40
190.0
 40
191.0
 40
191.0
 40
191.0
 40
192.0
 40
192.0
 40
192.0
 40
193.0
 40
193.0
 40
193.0
 40
194.0
 40
194.0
 40
194.0
 40
195.0
 40
195.0
 40
195.0
 40
196.0
 40
196.0
 40
196.0
 40
197.0
 40
197.0
 40
197.0
 40
198.0
 40
198.0
 40
198.0
 40
199.0
 40
199.0
 40
199.0
 40
200.0
 40
200.0
 40
200.0
 40
201.0
 40
201.0
 40
201.0
 40
202.0
 40
202.0
 40
202.0
 40
203.0
 40
203.0
 40
203.0
 40
204.0
 40
204.0
 40
204.0
 40
205.0
 40
205.0
 40
205.0
 40
206.0
 40
206.0
 40
206.0
 40
207.0
 40
207.0
 40
207.0
 40
208.0
 40
208.0
 40
208.0
 40
209.0
 40
209.0
 40
209.0
 40
210.0
 40
210.0
 40
210.0
 40
211.0
 40
211.0
 40
211.0
 40
212.0
 40
212.0
 40
212.0
 40
213.0
 40
213.0
 40
213.0
 40
214.0
 40
214.0
 40
214.0
 40
215.0
 40
215.0
 40
215.0
 40
216.0
 40
216.0
 40
216.0
 40
217.0
 40
217.0
 40
217.0
 40
218.0
 40
218.0
 40
218.0
 40
219.0
 40
219.0
 40
219.0
 40
220.0
 40
220.0
 40
220.0
 40
221.0
 40
221.0
 40
221.0
 40
222.0
 40
222.0
 40
222.0
 40
223.0
 40
223.0
 40
223.0
 40
224.0
 40
224.0
 40
224.0
 40
224.0
 10
-133.4835102366656
 20
1.710933997489427
 10
-142.6396454692253
 20
1.710933997489427
 10
-151.0192617690927
 20
5.066157433263986
 10
-157.4861128141866
 20
10.59651531283592
 10
-157.4861128141866
 20
10.59651531283592
 10
-157.9770820339551
 20
11.08313460713053
 10
-157.9770820339551
 20
11.08313460713053
 10
-157.7223824503738
 20
11.0570922901592
 10
-157.471803848816
 20
11.02698622702257
 10
-157.209434659798
 20
11.00907140237738
 10
-157.1226650937949
 20
11.00317610864538
 10
-157.0373836601893
 20
10.99647951285208
 10
-156.9500417355709
 20
10.99127104945679
 10
-156.3664076560705
 20
10.95641440981942
 10
-155.7703533946218
 20
10.93849958517359
 10
-155.1649696877582
 20
10.93569502796093
 10
-155.1131712331178
 20
10.93546608451751
 10
-155.0640628639679
 20
10.93094445145892
 10
-155.0121499376093
 20
10.93094445145892
 10
-154.903859687689
 20
10.93094445145892
 10
-154.7940813053701
 20
10.93397795211564
 10
-154.6852186968384
 20
10.93500819762423
 10
-154.5804198344706
 20
10.93603844312897
 10
-154.4759071514096
 20
10.93695421691295
 10
-154.3706504021493
 20
10.9389574720675
 10
-154.0907098036541
 20
10.94422317132157
 10
-153.8095100162044
 20
10.95309472985023
 10
-153.5269365680806
 20
10.96534320420686
 10
-153.46683891353
 20
10.96797605383613
 10
-153.4073136175902
 20
10.96917800692489
 10
-153.3471014913144
 20
10.97209703586343
 10
-153.0074638892967
 20
10.988638199832
 10
-152.6664526266044
 20
11.01084571408529
 10
-152.3243538825421
 20
11.03763209725594
 10
-152.2335778062358
 20
11.04472934408054
 10
-152.1427444940674
 20
11.05365813846798
 10
-152.0519111819029
 20
11.0614994514919
 10
-151.7934912673218
 20
11.08376420160782
 10
-151.5348996451592
 20
11.10871903721178
 10
-151.2759073719666
 20
11.13699355278108
 10
-151.1668158199876
 20
11.14889861196968
 10
-151.0578959755894
 20
11.16120432218957
 10
-150.9487471877516
 20
11.1741396268829
 10
-150.6828293753184
 20
11.20567658655878
 10
-150.4171977421913
 20
11.24076216964663
 10
-150.1514516373453
 20
11.27876678166981
 10
-150.0682306947543
 20
11.29061460499579
 10
-149.9849525162999
 20
11.30120323936974
 10
-149.9017888095708
 20
11.31373789303242
 10
-149.5585453482818
 20
11.36547911181088
 10
-149.2159887173288
 20
11.42242879398014
 10
-148.8744623318812
 20
11.48504482643861
 10
-148.8005135988494
 20
11.49860972560988
 10
-148.7271944602956
 20
11.51417787993185
 10
-148.6533601989859
 20
11.5282579018558
 10
-148.3828635176354
 20
11.57982741305025
 10
-148.1133970817934
 20
11.63465936834678
 10
-147.8449036555897
 20
11.69326889049935
 10
-147.7371857642886
 20
11.71673559370787
 10
-147.6299829957389
 20
11.74117530655914
 10
-147.522608519602
 20
11.76584396285769
 10
-147.2713430877081
 20
11.82353771122628
 10
-147.0215657882122
 20
11.88472284714872
 10
-146.7727614983622
 20
11.94871254028381
 10
-146.6804400537991
 20
11.97246542279838
 10
-146.5877179582007
 20
11.99507358807912
 10
-146.495797164665
 20
12.01974224437703
 10
-146.1626272149934
 20
12.10903018828797
 10
-145.8315749921984
 20
12.20295423697118
 10
-145.5043575721214
 20
12.30386106076145
 10
-145.4593129491369
 20
12.31776937510139
 10
-145.4153558075197
 20
12.333337529424
 10
-145.3704256562604
 20
12.34747478720993
 10
-145.087737736412
 20
12.43630484422374
 10
-144.8079688455047
 20
12.52965653429614
 10
-144.5307755683603
 20
12.62735814984246
 10
-144.4321581790306
 20
12.66210031776164
 10
-144.3346855069315
 20
12.69833061807691
 10
-144.2368121838012
 20
12.73421750322286
 10
-144.0046062937825
 20
12.81944170096592
 10
-143.7748615458013
 20
12.90792834281426
 10
-143.5472917605626
 20
12.99956295704136
 10
-143.4546841366895
 20
13.0368807387272
 10
-143.3616186259231
 20
13.07351169007312
 10
-143.2698123041088
 20
13.11185971726369
 10
-142.9658326437943
 20
13.23898056560994
 10
-142.6651726634445
 20
13.37039410356686
 10
-142.3711520430223
 20
13.50947724696047
 10
-142.3660580513528
 20
13.51188115314247
 10
-142.3607923520988
 20
13.51399888001842
 10
-142.3556983604255
 20
13.51640278620041
 10
-142.058014644873
 20
13.65748918474538
 10
-141.7675426478633
 20
13.80670307562288
 10
-141.4813061046056
 20
13.96020965610849
 10
-141.3959101992791
 20
14.00605558115495
 10
-141.312574784966
 20
14.05373305376811
 10
-141.2282663610069
 20
14.10066646017872
 10
-141.0227323824343
 20
14.21508094727764
 10
-140.8205753196889
 20
14.33275787847927
 10
-140.6218524086347
 20
14.4539261972309
 10
-140.5352545502151
 20
14.5066976615141
 10
-140.448713927658
 20
14.55929741821265
 10
-140.3634897299156
 20
14.61338530731048
 10
-140.1376942563815
 20
14.75664666859016
 10
-139.9169927745169
 20
14.90454413465367
 10
-139.7013280484629
 20
15.05690599791251
 10
-139.6584583882169
 20
15.08718376863636
 10
-139.6135854728132
 20
15.11574446351493
 10
-139.5711164635986
 20
15.14636564940361
 10
-139.3173898896594
 20
15.32957764200225
 10
-139.0724204025275
 20
15.52011582486378
 10
-138.8343192187774
 20
15.71637759387715
 10
-138.769757167027
 20
15.76960694505042
 10
-138.7082858517992
 20
15.82518296655012
 10
-138.6448685172794
 20
15.87944256323198
 10
-138.4703563756299
 20
16.0287136899689
 10
-138.3001941594537
 20
16.18130449667437
 10
-138.1351831708069
 20
16.33795904954129
 10
-138.0639817591259
 20
16.40555460194778
 10
-137.9934671777847
 20
16.47355080538492
 10
-137.9241545495335
 20
16.54257725433064
 10
-137.7568541264294
 20
16.70896190365144
 10
-137.5958496480885
 20
16.87986818602571
 10
-137.4397102179705
 20
17.05438032767585
 10
-137.3920899812199
 20
17.10760967885232
 10
-137.3419513665654
 20
17.15906471832153
 10
-137.295418611186
 20
17.21303813569733
 10
-137.0989851345886
 20
17.44095133610796
 10
-136.9122817544407
 20
17.67550389644992
 10
-136.7357663576398
 20
17.91709646775322
 10
-136.6958157263285
 20
17.97181395132899
 10
-136.6597571335947
 20
18.02910704867013
 10
-136.6208367477882
 20
18.08451136258197
 10
-136.4861035298653
 20
18.27642320612141
 10
-136.3572656056782
 20
18.47216985237824
 10
-136.2356394000333
 20
18.67266707514093
 10
-136.1858442005475
 20
18.75474330050202
 10
-136.1378805486276
 20
18.83779253550908
 10
-136.0903175477365
 20
18.92124242154358
 10
-135.9800812785275
 20
19.11481410506954
 10
-135.8768850202837
 20
19.31273571406494
 10
-135.7791834047374
 20
19.51414871060777
 10
-135.7427813968349
 20
19.58912768914746
 10
-135.7042044261976
 20
19.66261853528594
 10
-135.6696339658657
 20
19.7386849951898
 10
-135.5446308443922
 20
20.01376054546154
 10
-135.4294722910978
 20
20.2949423569332
 10
-135.3286799390328
 20
20.58445932027179
 10
-135.3134551998788
 20
20.62813028257969
 10
-135.3021224993087
 20
20.67397620762552
 10
-135.2874701187701
 20
20.71799058510209
 10
-135.2047642989311
 20
20.96650869564596
 10
-135.1314451603773
 20
21.22046421302792
 10
-135.0672837596582
 20
21.47962819380838
 10
-135.0435881130056
 20
21.57549826178417
 10
-135.023040438735
 20
21.67302816974647
 10
-135.001920405849
 20
21.77032913425829
 10
-134.9532699235899
 20
21.99446476781352
 10
-134.912117339186
 20
22.22266414752956
 10
-134.8776613505793
 20
22.45464109410551
 10
-134.8632951493461
 20
22.55154140758924
 10
-134.8472691081296
 20
22.64746871142765
 10
-134.8354212848036
 20
22.74579992145191
 10
-134.7962719555543
 20
23.0705561994843
 10
-134.7665665434458
 20
23.40046370504935
 10
-134.7559206732124
 20
23.7403874863769
 10
-134.572765916477
 20
29.57810194208872
 10
-140.0468037083538
 20
34.0475358932812
 10
-144.5294019076837
 20
36.75650921709369
 10
-144.9573544439663
 20
37.01515807511825
 10
-145.387138527813
 20
37.25818154295822
 10
-145.8180100930271
 20
37.49347816950208
 10
-145.9053520176455
 20
37.54121287797465
 10
-145.9927511781233
 20
37.5894627092031
 10
-146.0802648103263
 20
37.63616717216708
 10
-146.5005477411696
 20
37.86053174916574
 10
-146.9224332761298
 20
38.07407874834638
 10
-147.3462075945225
 20
38.27469044283045
 10
-147.4215299882315
 20
38.31034838453362
 10
-147.4973675046888
 20
38.34365965591356
 10
-147.5728043701191
 20
38.37857353141739
 10
-147.9758020707946
 20
38.56493349639352
 10
-148.380402375594
 20
38.74104824216306
 10
-148.7872348789874
 20
38.9046855701332
 10
-148.8367438991679
 20
38.92460364992974
 10
-148.8859667400391
 20
38.94646774901115
 10
-148.935590231941
 20
38.96604241363965
 10
-149.3684650523058
 20
39.13689146015514
 10
-149.8043733733344
 20
39.29137105028735
 10
-150.242227713651
 20
39.43514753432293
 10
-150.3355221678608
 20
39.46576872021546
 10
-150.4290455655173
 20
39.49581754749268
 10
-150.5225689631768
 20
39.52517954442934
 10
-150.9622548510608
 20
39.66323244231758
 10
-151.4041157016796
 20
39.79029605480121
 10
-151.8495251757109
 20
39.89950207850483
 10
-151.9022966399941
 20
39.91243738319816
 10
-151.9555259911712
 20
39.92268260240409
 10
-152.008354691317
 20
39.93521725606676
 10
-152.4257758290844
 20
40.0341780605651
 10
-152.8461732316492
 20
40.11888713555483
 10
-153.2692034838394
 20
40.19134773618794
 10
-153.3479027933763
 20
40.20485539949658
 10
-153.4262586877414
 20
40.22030908209393
 10
-153.5051869407212
 20
40.23284373576046
 10
-153.9533437361026
 20
40.30415961916294
 10
-154.4052208624812
 20
40.35870539515086
 10
-154.8603031971031
 20
40.39894220577138
 10
-154.9550857837148
 20
40.40735587740996
 10
-155.0503834930753
 20
40.41370905803524
 10
-155.1455094948549
 20
40.4206918331346
 10
-155.6154731534596
 20
40.45531952932917
 10
-156.0880696616929
 20
40.47872899667571
 10
-156.5662180484927
 20
40.47884346839711
 10
-156.5675344733073
 20
40.47884346839711
 10
-156.5687936622587
 20
40.47901517598112
 10
-156.5701100870733
 20
40.47901517598112
 10
-156.57657773942
 20
40.47901517598112
 10
-156.5832170993513
 20
40.47827110978179
 10
-156.5896847516979
 20
40.47827110978179
 10
-157.0181524107333
 20
40.47787045875113
 10
-157.451313410408
 20
40.45818132240508
 10
-157.8868210804021
 20
40.4289910330486
 10
-157.9986599537343
 20
40.4214931351927
 10
-158.1107850063726
 20
40.41302222769533
 10
-158.2231390024544
 20
40.40357831055135
 10
-158.6690635992416
 20
40.36608882128471
 10
-159.1173921022076
 20
40.31898370728622
 10
-159.5712152478743
 20
40.25024343764976
 10
-163.5218061147602
 20
39.65275827966502
 10
-167.416191365666
 20
37.32806652982467
 10
-170.1924740625783
 20
34.17082193890556
 10
-170.3754571117296
 20
35.65935498839576
 10
-170.4807710968494
 20
37.17152644867913
 10
-170.4807710968494
 20
38.70870998042909
 10
-170.4807710968494
 20
39.08795479858997
 10
-170.4634286308227
 20
39.4630786347242
 10
-170.4520386943868
 20
39.83963336739703
 10
-166.2427417336201
 20
42.32756179417622
 10
-162.8833400799595
 20
45.85563753161761
 10
-161.0116701737239
 20
50.5342113206548
 10
-159.2966548203591
 20
54.8215779964799
 10
-159.4319031610341
 20
59.58360167155545
 10
-160.3786415457612
 20
64.07478525010858
 10
-158.8936571196837
 20
65.6484280256198
 10
-157.2786900521871
 20
67.09769727413544
 10
-155.5404369390605
 20
68.39265864010096
 10
-154.8773594838244
 20
66.66905790751612
 10
-154.1144626861687
 20
64.99136033583714
 10
-153.2158024250827
 20
63.40117639636056
 10
-152.1825806536573
 20
61.57346363174214
 10
-151.0253860062714
 20
60.07989382644066
 10
-149.7630490813459
 20
58.77566025091198
 10
-149.2581143113754
 20
58.25395537353016
 10
-148.7363521981303
 20
57.7625282668677
 10
-148.1989646947039
 20
57.29216395723241
 10
-147.1242469237065
 20
56.35137810209985
 10
-145.9871992995599
 20
55.49472896333785
 10
-144.7973229752682
 20
54.64798162861374
 10
-143.3100491147293
 20
53.5895188422789
 10
-141.740412849524
 20
52.54662421026667
 10
-140.1073592497983
 20
51.37431929544822
 10
-139.3666699663933
 20
50.84265537816589
 10
-138.6457270552001
 20
50.30915991331944
 10
-137.9256426819322
 20
49.79037406487167
 10
-137.2056155445224
 20
49.27153098056127
 10
-136.4863897091752
 20
48.76739751265276
 10
-135.7492490491854
 20
48.29422864580418
 10
-134.6341227599834
 20
47.57832249042231
 10
-133.4769281125976
 20
46.93447628464226
 10
-132.2144194800842
 20
46.41706409686789
 10
-131.8078731560006
 20
46.25045050410109
 10
-131.3912533202906
 20
46.09597091396953
 10
-130.9604962267986
 20
45.95768907263464
 10
-130.6649302381188
 20
45.86290648602623
 10
-130.372111570793
 20
45.78500847855504
 10
-130.0811816868964
 20
45.71764186959199
 10
-129.9864563361442
 20
45.69572053464411
 10
-129.8929329384878
 20
45.68055303135279
 10
-129.7986654746321
 20
45.66143625362141
 10
-129.60280435665
 20
45.62171456575359
 10
-129.4075155972826
 20
45.58491190682043
 10
-129.2138866778985
 20
45.55715251400317
 10
-129.1048523617789
 20
45.54152712381859
 10
-128.9967338194458
 20
45.5303088949699
 10
-128.8884435695256
 20
45.51840383578131
 10
-128.7097532099894
 20
45.49877193529403
 10
-128.5320358600959
 20
45.48303207338741
 10
-128.3553487557104
 20
45.4732447410754
 10
-128.2458565527007
 20
45.46717773975939
 10
-128.1367650007185
 20
45.46265610670144
 10
-128.0280740997714
 20
45.46030943638142
 10
-127.9584752922136
 20
45.45882130398277
 10
-127.8877317674258
 20
45.45201023646807
 10
-127.8184763750334
 20
45.45201023646807
 10
-127.7658766183342
 20
45.45201023646807
 10
-127.7157380036797
 20
45.46231269153277
 10
-127.6633099545651
 20
45.46317122945349
 10
-127.2564774511717
 20
45.46981058938802
 10
-126.853422514633
 20
45.49356347189938
 10
-126.4584378345654
 20
45.54976908787317
 10
-126.4507109932636
 20
45.55085656924116
 10
-126.4427552085176
 20
45.55102827682518
 10
-126.4350856030815
 20
45.55211575819639
 10
-126.0325457892962
 20
45.61043910104292
 10
-125.6387058264586
 20
45.70155859251669
 10
-125.2491585532292
 20
45.80773111556102
 10
-125.1613587417208
 20
45.8316557056596
 10
-125.073787873659
 20
45.85552305989621
 10
-124.9867321283492
 20
45.8817370844554
 10
-124.6079451970784
 20
45.99580815638243
 10
-124.2344812009275
 20
46.12676380744607
 10
-123.8690302253807
 20
46.28238811480762
 10
-123.8179186010802
 20
46.30413774217148
 10
-123.7684095809035
 20
46.33006558742141
 10
-123.7175269000464
 20
46.35261651684274
 10
-123.3852727241588
 20
46.49988438842831
 10
-123.059486200621
 20
46.66455196190704
 10
-122.7389653763341
 20
46.84335679316848
 10
-122.6668481908729
 20
46.88359360378901
 10
-122.5942158826558
 20
46.92165545167032
 10
-122.522671055806
 20
46.9633803946895
 10
-122.4184445520504
 20
47.02422211543941
 10
-122.3194265116933
 20
47.09708336710381
 10
-122.2164591968935
 20
47.16107306023889
 10
-121.9776711828029
 20
47.30954288491387
 10
-121.737681215619
 20
47.45526538824138
 10
-121.5059904483491
 20
47.61976125413223
 10
-121.4377080656027
 20
47.66824002880412
 10
-121.3711427587055
 20
47.71969506827654
 10
-121.3034899704364
 20
47.76949026776242
 10
-121.0035740562859
 20
47.99030622134846
 10
-120.7095534358674
 20
48.22245487550842
 10
-120.4224583546857
 20
48.46765330608633
 10
-120.3770130806705
 20
48.50651645603022
 10
-120.3302513818439
 20
48.54280399220748
 10
-120.2850922871342
 20
48.58218226490727
 10
-119.9704667565857
 20
48.85685716414386
 10
-119.665456850762
 20
49.14738639701297
 10
-119.3671435407322
 20
49.4478746697781
 10
-119.2990328655737
 20
49.51644323183055
 10
-119.2320669076413
 20
49.58604203938837
 10
-119.1648147704028
 20
49.65592702625867
 10
-118.866158045205
 20
49.96614539547318
 10
-118.5729387268447
 20
50.28391889840686
 10
-118.2918534111195
 20
50.61623031015392
 10
-117.1461631718916
 20
51.97025908516785
 10
-116.461908447907
 20
53.50005919078715
 10
-115.895330655124
 20
55.08520637445311
 10
-115.6120131408009
 20
55.87775134835799
 10
-115.358172095141
 20
56.68420463659895
 10
-115.0907661503085
 20
57.48928426416714
 10
-114.8233602054805
 20
58.29442112759732
 10
-114.5423893614774
 20
59.09835603793489
 10
-114.2049267221945
 20
59.8859214918879
 10
-113.9829660513778
 20
60.40402050999897
 10
-113.7508746330805
 20
60.90563560000024
 10
-113.5131741003579
 20
61.39528839495798
 10
-112.4580309939851
 20
63.56853405532348
 10
-111.3022100072759
 20
65.51123366565228
 10
-110.4125357764432
 20
67.60080049653599
 10
-105.1083167855772
 20
63.35693307543414
 10
-100.9921998072957
 20
57.69081173243393
 10
-98.65365697897416
 20
51.18023248917342
 10
-98.78438368659502
 20
51.18509753739683
 10
-98.90704013774531
 20
51.20484390960551
 10
-99.04039969499095
 20
51.20484390960551
 10
-99.09443034822936
 20
51.20484390960551
 10
-99.14840376560581
 20
51.20444325857807
 10
-99.20283506987168
 20
51.20364195651611
 10
-99.57538329223925
 20
51.19803284209017
 10
-99.9402046733075
 20
51.17370760096414
 10
-100.2973564489371
 20
51.13186818622036
 10
-102.0831153270897
 20
50.92255664079162
 10
-103.6765617106722
 20
50.27418880195362
 10
-105.0778673072693
 20
49.32636293585844
 10
-105.6383780987363
 20
48.94728982528157
 10
-106.1682104684481
 20
48.52019582692289
 10
-106.6672499446872
 20
48.05418144276217
 10
-107.05078745246
 20
47.69599942162395
 10
-107.4104003701336
 20
47.30885605457652
 10
-107.7576503417285
 20
46.90872014697698
 10
-107.8622774965116
 20
46.78818142269944
 10
-107.9709683974593
 20
46.67199262389646
 10
-108.0722186364182
 20
46.54813421965678
 10
-108.5098440332883
 20
46.0130933865497
 10
-108.9166765366818
 20
45.44794649030341
 10
-109.2928306183239
 20
44.86179403289194
 10
-110.0451960174677
 20
43.68937464635211
 10
-110.6746760220177
 20
42.43258959999057
 10
-111.1814423395555
 20
41.16275477721367
 10
-112.2051629579706
 20
38.59813029604821
 10
-110.5723383016915
 20
34.87447961993401
 10
-108.1430766329275
 20
33.69524916587562
 10
-107.9055478077882
 20
33.57997614085534
 10
-107.646841713901
 20
33.46916751303488
 10
-107.3761733249664
 20
33.36150685759253
 10
-107.2899188817187
 20
33.32722257656599
 10
-107.1971967861242
 20
33.29517049413807
 10
-107.1078516063545
 20
33.26174475103225
 10
-106.9153674041965
 20
33.18968480143044
 10
-106.7191628710458
 20
33.11922745594868
 10
-106.5132854773083
 20
33.0516319035422
 10
-106.402476849484
 20
33.01522989564292
 10
-106.289035372031
 20
32.98060219944834
 10
-106.1747353566573
 20
32.94557385222312
 10
-105.9748104925068
 20
32.88438871630132
 10
-105.7705357028893
 20
32.82572195828227
 10
-105.5606517988452
 20
32.76911569128104
 10
-105.4396551876815
 20
32.7364912502378
 10
-105.3194026427106
 20
32.70421022436261
 10
-105.1953152950243
 20
32.67318838744327
 10
-104.9675738021977
 20
32.61623870526952
 10
-104.7339370156397
 20
32.56346724098311
 10
-104.4969805491158
 20
32.51235561668643
 10
-104.3858285061234
 20
32.48837379072458
 10
-104.2777671996498
 20
32.46296106822735
 10
-104.1648408449527
 20
32.44035290294276
 10
-103.8190217698938
 20
32.3710975105536
 10
-103.4667922783502
 20
32.30716505328113
 10
-103.1064925303367
 20
32.2516462676479
 10
-103.0992808117939
 20
32.25055878627991
 10
-103.092526980138
 20
32.24907065388189
 10
-103.0853152615914
 20
32.24798317251389
 10
-102.7190629839864
 20
32.1918920282615
 10
-102.3455417519697
 20
32.14513032943554
 10
-101.968643604132
 20
32.10466457536838
 10
-101.8492495970845
 20
32.0918437423958
 10
-101.7285391652267
 20
32.08308665558853
 10
-101.6083438561211
 20
32.07192566260311
 10
-101.3469476767427
 20
32.04771489319462
 10
-101.0852653180581
 20
32.02613697341926
 10
-100.8210645814741
 20
32.01011093220338
 10
-100.6786617581113
 20
32.00146831712135
 10
-100.536602349921
 20
31.99545855166797
 10
-100.3936844038094
 20
31.98933431448548
 10
-100.1447656422348
 20
31.97868844425275
 10
-99.89624753169099
 20
31.97204908432143
 10
-99.64669917564174
 20
31.96924452710878
 10
-99.56141774204056
 20
31.96827151746281
 10
-99.47647972360355
 20
31.96237622373081
 10
-99.39119828999849
 20
31.96237622373081
 10
-99.3456385442613
 20
31.96237622373081
 10
-99.30070839300203
 20
31.96729850781685
 10
-99.25514864726096
 20
31.96758468712611
 10
-98.76898723985707
 20
31.97050371606015
 10
-98.28448567243519
 20
31.98733105933478
 10
-97.80416232290003
 20
32.02327518034335
 10
-97.72569195681354
 20
32.02911323821658
 10
-97.64916761001577
 20
32.03872886294457
 10
-97.57092618737592
 20
32.0455399304599
 10
-97.40740333112782
 20
32.05979165996788
 10
-97.24908893827437
 20
32.08697869417303
 10
-97.08699697856616
 20
32.10535140570444
 10
-97.07823989175889
 20
32.10632441535105
 10
-97.06965451253948
 20
32.10758360430243
 10
-97.06089742573221
 20
32.10855661394839
 10
-97.06089742573221
 20
32.10855661394839
 10
-97.06393092639149
 20
32.09499171477713
 10
-97.06393092639149
 20
32.09499171477713
 10
-97.07251630561154
 20
32.09401870513115
 10
-97.08087274138753
 20
32.09241610101111
 10
-97.08945812061077
 20
32.09144309136514
 10
-97.39000362923853
 20
30.43463660912868
 10
-97.79849597261467
 20
28.8158347389077
 10
-98.31253124455786
 20
27.24316497304565
 10
-98.86892105400074
 20
25.54074150920551
 10
-99.54424698359403
 20
23.89252040618845
 10
-100.331297314795
 20
22.30806005285664
 10
-102.8549409191361
 20
17.22774775209922
 10
-106.5111105145691
 20
12.8086813590073
 10
-110.9691545293263
 20
9.378593416417649
 10
-110.4606139000838
 20
10.06239025351282
 10
-110.0257358245644
 20
10.79243366667741
 10
-109.6986328762088
 20
11.55990933325371
 10
-109.1674268458236
 20
12.80616298110327
 10
-108.8933243051978
 20
14.13397773156251
 10
-108.9340762385742
 20
15.44937230007662
 10
-108.9353354275231
 20
15.48972358241853
 10
-108.9432912122716
 20
15.52961697787038
 10
-108.9451799956977
 20
15.56991102435032
 10
-108.9583442438383
 20
15.85826529448406
 10
-108.9803228146482
 20
16.14627614944913
 10
-109.0245661355707
 20
16.43216927753762
 10
-109.0876400549193
 20
16.83951690368379
 10
-109.1828805284242
 20
17.24331590642119
 10
-109.3120046319179
 20
17.64076172853395
 10
-109.5057480230273
 20
18.23698769756284
 10
-109.7756723457625
 20
18.81890470122113
 10
-110.1280163090281
 20
19.37683987892206
 10
-110.3041310548015
 20
19.6558074677706
 10
-110.5009079465676
 20
19.92876529116576
 10
-110.7189193429403
 20
20.19456863187369
 10
-110.9369879751763
 20
20.46031473672285
 10
-111.1762911120228
 20
20.71896359474805
 10
-111.4376872913981
 20
20.9691415452746
 10
-111.7389196303625
 20
21.25726687196106
 10
-112.0550332933129
 20
21.5205518347656
 10
-112.3804191658232
 20
21.76695221843354
 10
-112.4865344530043
 20
21.84725413209056
 10
-112.5983160904714
 20
21.91610887344842
 10
-112.7067780479757
 20
21.99206086163152
 10
-112.7136463513536
 20
21.99686867399551
 10
-112.7205718905936
 20
22.00156201463427
 10
-112.7274974298303
 20
22.00636982700212
 10
-112.9452226468976
 20
22.15815933164242
 10
-113.1638636377489
 20
22.30743045838255
 10
-113.3902314698983
 20
22.44182026113293
 10
-113.5243350933471
 20
22.52143534445325
 10
-113.6621018119261
 20
22.59194992579442
 10
-113.798952756725
 20
22.66549800779488
 10
-114.0165062662044
 20
22.78243087279719
 10
-114.2353762005024
 20
22.89541446335686
 10
-114.4593401264697
 20
22.99729429678924
 10
-114.6071803566706
 20
23.06454643402705
 10
-114.7565087192695
 20
23.12636116442678
 10
-114.9068673273776
 20
23.18714564931857
 10
-115.1295148285304
 20
23.27712042356235
 10
-115.3539366413916
 20
23.36034136615407
 10
-115.5815064266342
 20
23.4363505901953
 10
-115.7353564222879
 20
23.48769115794247
 10
-115.8890347103614
 20
23.53748635743221
 10
-116.0448307253076
 20
23.58247374455411
 10
-116.2793832856489
 20
23.65018376868262
 10
-116.5159963370042
 20
23.7081064605017
 10
-116.7542692283421
 20
23.76162199098423
 10
-116.905944261261
 20
23.79567732856349
 10
-117.056531812812
 20
23.83207933646598
 10
-117.2095232705487
 20
23.86046832375668
 10
-117.4691451382192
 20
23.90866091912637
 10
-117.7309419686258
 20
23.94357479462636
 10
-117.993482865231
 20
23.97556964119615
 10
-118.127586488676
 20
23.99193909757686
 10
-118.2603736873063
 20
24.01426108355155
 10
-118.3950496693666
 20
24.0264523220494
 10
-118.7514001429374
 20
24.0587333479246
 10
-119.109238748907
 20
24.07521727602734
 10
-119.4680503645193
 20
24.07876589944317
 10
-119.5096608358132
 20
24.07916655046998
 10
-119.5510423636637
 20
24.08385989111258
 10
-119.5926528349608
 20
24.0839171269752
 10
-119.5962014583728
 20
24.0839171269752
 10
-119.5997500817822
 20
24.08437501386527
 10
-119.6032987051942
 20
24.08437501386527
 10
-119.6461683654434
 20
24.08437501386527
 10
-119.6890380256893
 20
24.07807906910262
 10
-119.7319076859385
 20
24.07767841807197
 10
-120.1391408403633
 20
24.07384361535394
 10
-120.546373994788
 20
24.05404000728264
 10
-120.9527486112914
 20
24.01437555527679
 10
-121.1066558428077
 20
23.99937975956949
 10
-121.2586742908985
 20
23.97179207433689
 10
-121.4121236355247
 20
23.95175952281896
 10
-121.7096928793519
 20
23.91283913701244
 10
-122.0064035852616
 20
23.87185826019323
 10
-122.3012255077427
 20
23.81427898354539
 10
-122.4777981404055
 20
23.77982299493547
 10
-122.6513372724129
 20
23.735293494703
 10
-122.8264790085371
 20
23.69425538202438
 10
-123.0956020292142
 20
23.63123869853525
 10
-123.3629507381834
 20
23.56507404266481
 10
-123.6278955409674
 20
23.48671814830035
 10
-123.8084174480742
 20
23.43331708953922
 10
-123.985734146937
 20
23.37344837843142
 10
-124.1639666195831
 20
23.31306454457157
 10
-124.4187234390309
 20
23.22675286546115
 10
-124.6703322860928
 20
23.13500377950945
 10
-124.9194227552488
 20
23.03461207847508
 10
-125.0959381520529
 20
22.96346790265662
 10
-125.2699924068091
 20
22.88946193376224
 10
-125.4432453595072
 20
22.81139221870704
 10
-125.6878714314711
 20
22.70121318535746
 10
-125.9271173324518
 20
22.58284942381848
 10
-126.1644744500064
 20
22.45904825543821
 10
-126.3303439765739
 20
22.37256486874377
 10
-126.4955266728014
 20
22.28665384066465
 10
-126.6573896890662
 20
22.19358832989831
 10
-126.7754672712992
 20
22.12570659818641
 10
-126.8872489087656
 20
22.04878160035735
 10
-127.0030370565379
 20
21.97746571695487
 10
-127.1212863463549
 20
21.90471893701252
 10
-127.2401652306459
 20
21.83311687430014
 10
-127.3558961425594
 20
21.75682147094965
 10
-127.5032784858664
 20
21.6595777422966
 10
-127.6527213201905
 20
21.56639775980886
 10
-127.7958109738901
 20
21.46348768086725
 10
-128.0400936306814
 20
21.28783082199097
 10
-128.2719561055353
 20
21.09803670532492
 10
-128.502559391434
 20
20.90612486178548
 10
-128.616630463361
 20
20.81122780345245
 10
-128.7362534138546
 20
20.72314181263796
 10
-128.8466613906476
 20
20.62435271572364
 10
-129.180060283762
 20
20.32609664155264
 10
-129.4992074473723
 20
20.0131309509836
 10
-129.7964332760347
 20
19.68024718062188
 10
-131.8637925926652
 20
17.36436975344757
 10
-133.1138810432327
 20
14.37419664218919
 10
-131.9179949534844
 20
11.33359873696313
 10
-131.7426815097761
 20
10.88904780085637
 10
-131.5432145325188
 20
10.4746029278856
 10
-131.3326437981348
 20
10.07463872786944
 10
-131.2909760909815
 20
9.99548153144304
 10
-131.2502813934677
 20
9.915294089511258
 10
-131.2072972614972
 20
9.837853968930145
 10
-130.9975278291752
 20
9.459868339720641
 10
-130.7735639032072
 20
9.101228431689795
 10
-130.5342607663645
 20
8.763937499994089
 10
-130.489902973716
 20
8.701378703395032
 10
-130.4430840390242
 20
8.642711945380478
 10
-130.3977532367337
 20
8.581526809458038
 10
-130.1634296198383
 20
8.265413146507677
 10
-129.9184028968477
 20
7.965211053047958
 10
-129.6598685105452
 20
7.685785577309991
 10
-129.6330821273707
 20
7.65682423140013
 10
-129.6082989993507
 20
7.625115564140241
 10
-129.5812264368708
 20
7.596554869261677
 10
-129.3047772259256
 20
7.304537503993916
 10
-129.0128170965211
 20
7.037990097086659
 10
-128.7122715878934
 20
6.786381250024077
 10
-128.6483963664829
 20
6.732922955400321
 10
-128.5846356167951
 20
6.679922547674334
 10
-128.5197873857386
 20
6.628238564754643
 10
-128.2179254522969
 20
6.387847946543951
 10
-127.9073636679131
 20
6.163540605407917
 10
-127.5852974753687
 20
5.96178419369064
 10
-127.5375055310335
 20
5.931849838138665
 10
-127.4880537467157
 20
5.905750285304721
 10
-127.4398039154872
 20
5.876674467673467
 10
-127.1357097834469
 20
5.693119059906794
 10
-126.8237171025244
 20
5.526390995417956
 10
-126.5046271747767
 20
5.37608962317694
 10
-126.4513405877409
 20
5.350963079985111
 10
-126.3994276613784
 20
5.323089215443252
 10
-126.3457976591712
 20
5.298935681901238
 10
-126.002668669603
 20
5.144284384181802
 10
-125.6511260083999
 20
5.011153770382803
 10
-125.2940314686297
 20
4.893591310906415
 10
-125.2173354142479
 20
4.868350295992549
 10
-125.1404104164189
 20
4.844769121062639
 10
-125.0631420034218
 20
4.821245181994708
 10
-124.6990646885528
 20
4.710264846586379
 10
-124.3306946840752
 20
4.612734938627921
 10
-123.9557425555224
 20
4.538900677318203
 10
-123.9245490110178
 20
4.532776440139568
 10
-123.8928403437579
 20
4.529285052589569
 10
-123.8615895633881
 20
4.523389758858215
 10
-123.5028351836352
 20
4.455794206451732
 10
-123.1396164066902
 20
4.407658846944662
 10
-122.7737647801127
 20
4.373260094196723
 10
-122.7023344249882
 20
4.366563498403419
 10
-122.6315336643384
 20
4.357978119180165
 10
-122.5599316016299
 20
4.352483476479464
 10
-122.2429594007549
 20
4.328272707074828
 10
-121.9246707750724
 20
4.312303901721564
 10
-121.6044361300948
 20
4.312303901721564
 10
-121.549661410657
 20
4.312303901721564
 10
-121.4944288043292
 20
4.318141959594147
 10
-121.4395396131733
 20
4.318828789930853
 10
-121.3194587757896
 20
4.32037415818892
 10
-121.1993207025434
 20
4.328272707074828
 10
-121.0789536858537
 20
4.333137755301446
 10
-120.7903704722733
 20
4.344871106902816
 10
-120.5019589662808
 20
4.365132601867387
 10
-120.2127461582263
 20
4.395868259481311
 10
-120.0805885540694
 20
4.409948281405266
 10
-119.9489460726691
 20
4.424486190219288
 10
-119.8167884685129
 20
4.442515486585876
 10
-119.6778770327032
 20
4.461403320873827
 10
-119.5392517762003
 20
4.479432617241057
 10
-119.4005692838342
 20
4.502613141140956
 10
-123.7444277549423
 20
2.707639289290368
 10
-128.4989535321588
 20
1.710933997489427
 10
-133.4835102366656
 20
1.710933997489427
 97
        0
 97
        1
330
7B
 92
        1
 93
        1
 72
     4
 94
        3
 73
     0
 74
     0
 95
       77
 96
       73
 40
0.0
 40
0.0
 40
0.0
 40
0.0
 40
1.0
 40
1.0
 40
1.0
 40
2.0
 40
2.0
 40
2.0
 40
3.0
 40
3.0
 40
3.0
 40
4.0
 40
4.0
 40
4.0
 40
5.0
 40
5.0
 40
5.0
 40
6.0
 40
6.0
 40
6.0
 40
7.0
 40
7.0
 40
7.0
 40
8.0
 40
8.0
 40
8.0
 40
9.0
 40
9.0
 40
9.0
 40
10.0
 40
10.0
 40
10.0
 40
11.0
 40
11.0
 40
11.0
 40
12.0
 40
12.0
 40
12.0
 40
13.0
 40
13.0
 40
13.0
 40
14.0
 40
14.0
 40
14.0
 40
15.0
 40
15.0
 40
15.0
 40
16.0
 40
16.0
 40
16.0
 40
17.0
 40
17.0
 40
17.0
 40
18.0
 40
18.0
 40
18.0
 40
19.0
 40
19.0
 40
19.0
 40
20.0
 40
20.0
 40
20.0
 40
21.0
 40
21.0
 40
21.0
 40
22.0
 40
22.0
 40
22.0
 40
23.0
 40
23.0
 40
23.0
 40
24.0
 40
24.0
 40
24.0
 40
24.0
 10
-162.6529657375042
 20
15.9510446259405
 10
-163.1707785763061
 20
16.61486614737972
 10
-163.6568255119853
 20
17.30289843821973
 10
-164.1279911236826
 20
18.00123318412827
 10
-164.1520301855064
 20
18.03683388996882
 10
-164.1754968887117
 20
18.07283524684065
 10
-164.1994214788103
 20
18.10855042440259
 10
-164.4872033903288
 20
18.53627401723536
 10
-164.7650834978099
 20
18.97120932861734
 10
-165.0352939998544
 20
19.41129586753262
 10
-165.1211477920716
 20
19.55192437918367
 10
-165.2041970270786
 20
19.69421273082444
 10
-165.2881620358696
 20
19.83592872384605
 10
-165.4923795896277
 20
20.17877153410509
 10
-165.6924761613591
 20
20.52430442985858
 10
-165.8858189014346
 20
20.87413001521953
 10
-166.0277066020408
 20
21.13220651462942
 10
-166.163870716503
 20
21.39337375055737
 10
-166.2995769440686
 20
21.65471269407383
 10
-166.4285293399809
 20
21.90174267221521
 10
-166.5577679152031
 20
22.14865817863904
 10
-166.6812256684115
 20
22.39895060088762
 10
-166.861346924487
 20
22.76583247296984
 10
-167.0330545089238
 20
23.13666361949212
 10
-167.2010417623678
 20
23.50926907772167
 10
-167.273674070585
 20
23.66981566916926
 10
-167.3486530491221
 20
23.82904583580605
 10
-167.4191103946
 20
23.99079438034624
 10
-167.61514322017
 20
24.4424425632776
 10
-167.8002439961941
 20
24.89866961513016
 10
-167.9780758178096
 20
25.35764398833276
 10
-168.0155653070794
 20
25.45414365078647
 10
-168.055458702528
 20
25.54938412428818
 10
-168.0920896538772
 20
25.64622720190993
 10
-168.2848600353373
 20
26.15625596355364
 10
-168.4650385272754
 20
26.67092082997413
 10
-168.6349718000082
 20
27.18884814050118
 10
-168.6534017474029
 20
27.24493928475036
 10
-168.6735487706422
 20
27.30028636279957
 10
-168.6917497745934
 20
27.35649197877336
 10
-168.8696388320715
 20
27.90750161723371
 10
-169.0338485186563
 20
28.46268947358077
 10
-169.185294608128
 20
29.02125424575899
 10
-169.1913043735852
 20
29.04340452414966
 10
-169.1989167431625
 20
29.06509691565091
 10
-169.2048692727565
 20
29.08724719404478
 10
-169.2046975651686
 20
29.08753337335083
 10
-169.2045258575846
 20
29.08787678851887
 10
-169.2043541500006
 20
29.08816296782877
 10
-167.1791776632826
 20
32.8732277233114
 10
-163.0634613360317
 20
35.92842077321411
 10
-159.0093880315966
 20
36.54158855723902
 10
-158.1926895241497
 20
36.66527525389789
 10
-157.3719845063969
 20
36.72800575807775
 10
-156.5701100870733
 20
36.72800575807775
 10
-153.2706916162419
 20
36.72800575807775
 10
-150.0611906837923
 20
35.71699150090558
 10
-146.4694686683838
 20
33.54620698258534
 10
-143.4389442747835
 20
31.71477388697028
 10
-138.3744863076534
 20
28.02082862296142
 10
-138.5050985435491
 20
23.85772100240665
 10
-138.7322104418978
 20
16.59969864408841
 10
-149.402005267133
 20
14.68195386936293
 10
-155.0121499376093
 20
14.68195386936293
 10
-157.4002590219662
 20
14.68195386936293
 10
-159.6492849629334
 20
14.96979301674078
 10
-161.3446684158115
 20
15.49235643204717
 10
-161.7695302155722
 20
15.62336931897343
 10
-162.192331524319
 20
15.77286938915699
 10
-162.6096381903618
 20
15.93587712264919
 10
-162.6239471557324
 20
15.94148623707513
 10
-162.6386567721337
 20
15.94543551151456
 10
-162.6529657375042
 20
15.9510446259405
 97
        0
 97
        1
330
7C
 92
        1
 93
        1
 72
     4
 94
        3
 73
     0
 74
     0
 95
       32
 96
       28
 40
0.0
 40
0.0
 40
0.0
 40
0.0
 40
1.0
 40
1.0
 40
1.0
 40
2.0
 40
2.0
 40
2.0
 40
3.0
 40
3.0
 40
3.0
 40
4.0
 40
4.0
 40
4.0
 40
5.0
 40
5.0
 40
5.0
 40
6.0
 40
6.0
 40
6.0
 40
7.0
 40
7.0
 40
7.0
 40
8.0
 40
8.0
 40
8.0
 40
9.0
 40
9.0
 40
9.0
 40
9.0
 10
-169.7631478656255
 20
45.95791801608128
 10
-169.7470073526882
 20
46.03970806213633
 10
-169.7333279817949
 20
46.12218493852871
 10
-169.7166151102423
 20
46.20380327699653
 10
-169.5981368769787
 20
46.77742108074147
 10
-169.4666661031624
 20
47.34634554384701
 10
-169.3218593736182
 20
47.90994707183267
 10
-169.3173377405596
 20
47.9275757171686
 10
-169.3131022868109
 20
47.94531883422656
 10
-169.3085806537562
 20
47.96300471542191
 10
-168.1771421440324
 20
52.37909484371652
 10
-166.2473206025375
 20
56.53670782157059
 10
-163.5636455294976
 20
60.25623751566071
 10
-163.562157397099
 20
60.24181407856487
 10
-163.5616995102089
 20
60.22807747181279
 10
-163.5602686136729
 20
60.2136540347176
 10
-163.2409497424785
 20
57.05846993481181
 10
-163.5513970551403
 20
54.28470561580613
 10
-164.4943578730128
 20
51.92744666078131
 10
-165.6448559246086
 20
49.05145909317456
 10
-167.488537494577
 20
46.61510017758597
 10
-169.9987879073348
 20
44.64212279653589
 10
-170.0043397858981
 20
44.63777287106196
 10
-170.0092620699841
 20
44.6330795304232
 10
-170.0148139485474
 20
44.62872960494927
 10
-169.9436697727283
 20
45.07534103207321
 10
-169.8503753185192
 20
45.51577098615652
 10
-169.7631478656255
 20
45.95791801608128
 97
        0
 97
        1
330
7D
 92
        1
 93
        1
 72
     4
 94
        3
 73
     0
 74
     0
 95
      140
 96
      136
 40
0.0
 40
0.0
 40
0.0
 40
0.0
 40
1.0
 40
1.0
 40
1.0
 40
2.0
 40
2.0
 40
2.0
 40
3.0
 40
3.0
 40
3.0
 40
4.0
 40
4.0
 40
4.0
 40
5.0
 40
5.0
 40
5.0
 40
6.0
 40
6.0
 40
6.0
 40
7.0
 40
7.0
 40
7.0
 40
8.0
 40
8.0
 40
8.0
 40
9.0
 40
9.0
 40
9.0
 40
10.0
 40
10.0
 40
10.0
 40
11.0
 40
11.0
 40
11.0
 40
12.0
 40
12.0
 40
12.0
 40
13.0
 40
13.0
 40
13.0
 40
14.0
 40
14.0
 40
14.0
 40
15.0
 40
15.0
 40
15.0
 40
16.0
 40
16.0
 40
16.0
 40
17.0
 40
17.0
 40
17.0
 40
18.0
 40
18.0
 40
18.0
 40
19.0
 40
19.0
 40
19.0
 40
20.0
 40
20.0
 40
20.0
 40
21.0
 40
21.0
 40
21.0
 40
22.0
 40
22.0
 40
22.0
 40
23.0
 40
23.0
 40
23.0
 40
24.0
 40
24.0
 40
24.0
 40
25.0
 40
25.0
 40
25.0
 40
26.0
 40
26.0
 40
26.0
 40
27.0
 40
27.0
 40
27.0
 40
28.0
 40
28.0
 40
28.0
 40
29.0
 40
29.0
 40
29.0
 40
30.0
 40
30.0
 40
30.0
 40
31.0
 40
31.0
 40
31.0
 40
32.0
 40
32.0
 40
32.0
 40
33.0
 40
33.0
 40
33.0
 40
34.0
 40
34.0
 40
34.0
 40
35.0
 40
35.0
 40
35.0
 40
36.0
 40
36.0
 40
36.0
 40
37.0
 40
37.0
 40
37.0
 40
38.0
 40
38.0
 40
38.0
 40
39.0
 40
39.0
 40
39.0
 40
40.0
 40
40.0
 40
40.0
 40
41.0
 40
41.0
 40
41.0
 40
42.0
 40
42.0
 40
42.0
 40
43.0
 40
43.0
 40
43.0
 40
44.0
 40
44.0
 40
44.0
 40
45.0
 40
45.0
 40
45.0
 40
45.0
 10
-151.7969254190123
 20
70.83525626458959
 10
-151.4168792987895
 20
71.05275253821412
 10
-151.0344292723841
 20
71.26475416913027
 10
-150.6479727356772
 20
71.46805594910562
 10
-150.365113108248
 20
71.61686918895182
 10
-150.0814521787568
 20
71.76419429639681
 10
-149.7943570975751
 20
71.90579581769704
 10
-149.3712696095223
 20
72.11453500451431
 10
-148.9432026015176
 20
72.31108295283309
 10
-148.5132468100875
 20
72.50305203223515
 10
-148.172521726698
 20
72.65518495204734
 10
-147.8305374543604
 20
72.80445607878362
 10
-147.484489435858
 20
72.94651548697776
 10
-146.981901336207
 20
73.15273629588394
 10
-146.4763369717618
 20
73.35042896143334
 10
-145.9656786156433
 20
73.53386989747477
 10
-145.6749776751909
 20
73.63838258053964
 10
-145.3805564037411
 20
73.73459606368346
 10
-145.0865930191852
 20
73.83195426406111
 10
-144.6692291172798
 20
73.97000716194934
 10
-144.2495185450518
 20
74.10073386956634
 10
-143.8274040666417
 20
74.22367650002269
 10
-143.5452312695493
 20
74.30598166883362
 10
-143.2636308310714
 20
74.38948879072754
 10
-142.9787679484877
 20
74.4652118354672
 10
-142.3564996624868
 20
74.6302228241101
 10
-141.7303393379021
 20
74.78172614944821
 10
-141.0991994933694
 20
74.91394098946388
 10
-140.9179907559291
 20
74.95200283734583
 10
-140.7351221785037
 20
74.98519963700437
 10
-140.552997667273
 20
75.02057139940148
 10
-139.9549973865394
 20
75.1364740188952
 10
-139.3537346616993
 20
75.23875450335889
 10
-138.7489233134471
 20
75.32500894660668
 10
-138.5021222787486
 20
75.36032347314118
 10
-138.2534896964833
 20
75.3893420549098
 10
-138.0052005293892
 20
75.41979153321832
 10
-137.4814923968523
 20
75.48372399049078
 10
-136.9556665374425
 20
75.53655269063661
 10
-136.4278374228814
 20
75.57816316193053
 10
-136.1964328349214
 20
75.5965358734658
 10
-135.9657150772975
 20
75.61714078359904
 10
-135.7332230079695
 20
75.63116356966038
 10
-134.9863522515271
 20
75.67603648506088
 10
-134.2369631171767
 20
75.70602807647548
 10
-133.4835102366656
 20
75.70602807647548
 10
-132.6939415275613
 20
75.70602807647548
 10
-131.9098102252956
 20
75.67185826717096
 10
-131.1284834802388
 20
75.62315054905244
 10
-130.8815107379562
 20
75.6075251588672
 10
-130.6358544204876
 20
75.58726366390584
 10
-130.390198103019
 20
75.56683046135725
 10
-129.8329497556554
 20
75.520984536314
 10
-129.2787921448169
 20
75.46031452314425
 10
-128.726752260848
 20
75.38985717766249
 10
-128.4726822717408
 20
75.3570610290346
 10
-128.2167807350701
 20
75.33056082517001
 10
-127.9643705859456
 20
75.2926706848727
 10
-127.2794862674831
 20
75.19073361557706
 10
-126.5999248841411
 20
75.06687521133416
 10
-125.9245989545477
 20
74.9271624734671
 10
-125.5615518851836
 20
74.85149666459006
 10
-125.2031409206026
 20
74.76341067377173
 10
-124.844043125681
 20
74.67715623052457
 10
-124.4947326630721
 20
74.59376358034885
 10
-124.1468530970031
 20
74.5053914102251
 10
-123.8005188991909
 20
74.41186801256868
 10
-123.3923127351208
 20
74.30105938474437
 10
-122.9843927503593
 20
74.18944945485876
 10
-122.5818529365771
 20
74.06507592786318
 10
-122.3444385831599
 20
73.99198573275599
 10
-122.1106300890179
 20
73.90807795982822
 10
-121.8748183397207
 20
73.83017995235319
 10
-121.0776944969017
 20
73.56603645162794
 10
-120.2919605905121
 20
73.27739600218878
 10
-119.5197915832971
 20
72.96145404682242
 10
-119.308305075133
 20
72.874970660128
 10
-119.096417915935
 20
72.78963199066033
 10
-118.8864195401664
 20
72.69919932952326
 10
-118.4415251888871
 20
72.50740195770586
 10
-118.0000077534364
 20
72.30907969768238
 10
-117.5642711399957
 20
72.10051221844913
 10
-117.3838637046142
 20
72.01414330347994
 10
-117.2064897698894
 20
71.92102055685097
 10
-117.0273987593219
 20
71.83161814122249
 10
-116.2682795285222
 20
71.45294568167307
 10
-115.5245567444611
 20
71.04851708446159
 10
-114.7960586995533
 20
70.62027836887613
 10
-114.573697377706
 20
70.48943718953388
 10
-114.3503630462127
 20
70.36071373706437
 10
-114.1303483946886
 20
70.22495027363674
 10
-113.932541257414
 20
70.10298065282701
 10
-113.7278658167653
 20
69.99560617669008
 10
-113.5320046987832
 20
69.86968728143321
 10
-113.5348092559965
 20
69.86207491185978
 10
-113.5383578794085
 20
69.85457701400453
 10
-113.5412196724837
 20
69.84696464442723
 10
-114.0554838878736
 20
68.46649290141067
 10
-114.7633197867849
 20
67.12642967659866
 10
-115.5409834367045
 20
65.6556397441658
 10
-116.247674618389
 20
64.31918237862517
 10
-116.9784048618941
 20
62.93716526734733
 10
-117.6527005459821
 20
61.36329354838883
 10
-118.1540866925405
 20
60.19322083217158
 10
-118.5268638583548
 20
59.05371206598102
 10
-118.887278078091
 20
57.95169278905647
 10
-119.5259158204757
 20
55.99926308227765
 10
-120.0774405816888
 20
54.31309460310068
 10
-121.1557069760981
 20
53.03868091140256
 10
-122.6358835898085
 20
51.28886615425917
 10
-124.9932570165553
 20
49.20301965437144
 10
-127.8184191391708
 20
49.20301965437144
 10
-128.4674738083455
 20
49.20301965437144
 10
-129.1393083503927
 20
49.31291250841241
 10
-129.814004685508
 20
49.52920682893987
 10
-132.3017041688406
 20
50.32776156829878
 10
-134.3494315849837
 20
51.82156031704624
 10
-136.7205416184859
 20
53.55128528681293
 10
-137.116556544062
 20
53.84015467969551
 10
-137.5153760268475
 20
54.13108456359528
 10
-137.9199190957842
 20
54.42149932474235
 10
-138.8253331885235
 20
55.07141253183842
 10
-139.7115732676688
 20
55.68269153243722
 10
-140.5757775401417
 20
56.27845961457283
 10
-144.5167527822957
 20
58.99544595899328
 10
-147.6295251088456
 20
61.14144734929421
 10
-149.9502103483839
 20
65.24668951389573
 10
-150.8655834810193
 20
66.86640715789684
 10
-151.6672861927627
 20
68.63224795625291
 10
-152.3455883871533
 20
70.51937154508586
 10
-152.3469620478267
 20
70.52320634780389
 10
-152.3485074160874
 20
70.52686944294176
 10
-152.3498810767608
 20
70.53070424565979
 10
-152.1685578675959
 20
70.63865108040818
 10
-151.9797939964378
 20
70.7305718739439
 10
-151.7969254190123
 20
70.83525626458959
 97
        0
 97
        1
330
7E
 92
        1
 93
        1
 72
     4
 94
        3
 73
     0
 74
     0
 95
       68
 96
       64
 40
0.0
 40
0.0
 40
0.0
 40
0.0
 40
1.0
 40
1.0
 40
1.0
 40
2.0
 40
2.0
 40
2.0
 40
3.0
 40
3.0
 40
3.0
 40
4.0
 40
4.0
 40
4.0
 40
5.0
 40
5.0
 40
5.0
 40
6.0
 40
6.0
 40
6.0
 40
7.0
 40
7.0
 40
7.0
 40
8.0
 40
8.0
 40
8.0
 40
9.0
 40
9.0
 40
9.0
 40
10.0
 40
10.0
 40
10.0
 40
11.0
 40
11.0
 40
11.0
 40
12.0
 40
12.0
 40
12.0
 40
13.0
 40
13.0
 40
13.0
 40
14.0
 40
14.0
 40
14.0
 40
15.0
 40
15.0
 40
15.0
 40
16.0
 40
16.0
 40
16.0
 40
17.0
 40
17.0
 40
17.0
 40
18.0
 40
18.0
 40
18.0
 40
19.0
 40
19.0
 40
19.0
 40
20.0
 40
20.0
 40
20.0
 40
21.0
 40
21.0
 40
21.0
 40
21.0
 10
-97.48925061304227
 20
47.26140752541001
 10
-97.47414034561359
 20
47.19776124744679
 10
-97.46429577743832
 20
47.13314195983442
 10
-97.44952892517446
 20
47.06943844600859
 10
-97.31805815135812
 20
46.50263170977899
 10
-97.20061016360311
 20
45.9334210673706
 10
-97.09598300882007
 20
45.36214993394568
 10
-97.07119988080011
 20
45.22650094223943
 10
-97.04624504519294
 20
45.09090918639581
 10
-97.02300728543427
 20
44.95468783607427
 10
-96.93022795397398
 20
44.4139806526786
 10
-96.85232994650281
 20
43.87127021413226
 10
-96.78370414858774
 20
43.32752953008052
 10
-96.76384330465381
 20
43.16921513723092
 10
-96.74100619592259
 20
43.01181651816081
 10
-96.72320584300585
 20
42.85287253083391
 10
-96.66276477328274
 20
42.31857576392616
 10
-96.61892210338763
 20
41.78279086461589
 10
-96.58189050101105
 20
41.24654807842005
 10
-96.57095845146841
 20
41.08674555316794
 10
-96.55424557991581
 20
40.92848839617776
 10
-96.54537402138716
 20
40.76817074817297
 10
-96.51509625066651
 20
40.2271773854719
 10
-96.50416420112387
 20
39.68532548484627
 10
-96.497753784636
 20
39.14335911250244
 10
-96.49603670879454
 20
38.99838067537363
 10
-96.48504742338928
 20
38.85374565341668
 10
-96.48504742338928
 20
38.70870998042909
 10
-96.48504742338928
 20
38.16931922184807
 10
-96.50290501216865
 20
37.63416391701574
 10
-96.52585659262513
 20
37.1003250370019
 10
-96.53816230284437
 20
36.82931323289483
 10
-96.55481793853113
 20
36.55675606053033
 10
-96.57330512179164
 20
36.28351205782977
 10
-96.58091749136829
 20
36.17127253346942
 10
-96.58412269960903
 20
36.06052114150838
 10
-96.59276531469426
 20
35.94793820197614
 10
-96.59471133398298
 20
35.94759478680811
 10
-96.59700076844359
 20
35.94748031508608
 10
-96.5989467877323
 20
35.94713689991419
 10
-97.43693703565234
 20
35.7930007249513
 10
-98.37646370183419
 20
35.71338564163483
 10
-99.39119828999849
 20
35.71338564163483
 10
-102.3751899282195
 20
35.71338564163483
 10
-105.114269315168
 20
36.3946068649595
 10
-106.5050435132531
 20
37.06970385110616
 10
-107.270344217094
 20
37.44122182797157
 10
-107.9422359949967
 20
39.15961409716112
 10
-107.6976099230335
 20
39.77243846602185
 10
-107.0887348286199
 20
41.29817482547262
 10
-105.6952705450435
 20
44.17267426068458
 10
-103.3563270656946
 20
45.93994595557989
 10
-102.1935233038827
 20
46.81851642928592
 10
-100.801089265815
 20
47.42807835403943
 10
-99.14714457664995
 20
47.4530331896434
 10
-99.14714457664995
 20
47.4530331896434
 10
-99.04039969499095
 20
47.45383449170534
 10
-99.04039969499095
 20
47.45383449170534
 10
-98.48681444276458
 20
47.45383449170534
 10
-97.97398112391078
 20
47.39058886476958
 10
-97.49411566126889
 20
47.26238053505661
 10
-97.49257029300826
 20
47.26197988402532
 10
-97.49079598130355
 20
47.2618081764413
 10
-97.48925061304227
 20
47.26140752541001
 97
        0
 97
        1
330
7F
 92
        1
 93
        1
 72
     4
 94
        3
 73
     0
 74
     0
 95
       41
 96
       37
 40
0.0
 40
0.0
 40
0.0
 40
0.0
 40
1.0
 40
1.0
 40
1.0
 40
2.0
 40
2.0
 40
2.0
 40
3.0
 40
3.0
 40
3.0
 40
4.0
 40
4.0
 40
4.0
 40
5.0
 40
5.0
 40
5.0
 40
6.0
 40
6.0
 40
6.0
 40
7.0
 40
7.0
 40
7.0
 40
8.0
 40
8.0
 40
8.0
 40
9.0
 40
9.0
 40
9.0
 40
10.0
 40
10.0
 40
10.0
 40
11.0
 40
11.0
 40
11.0
 40
12.0
 40
12.0
 40
12.0
 40
12.0
 10
-65.85035386868113
 20
-8.58350804816817
 10
-55.08674946648084
 20
-3.104147321174728
 10
-47.70418187357979
 20
3.307127702422613
 10
-43.89210179147922
 20
10.49892816901484
 10
-39.86155242610815
 20
18.09985057345794
 10
-37.81714468993035
 20
26.94284840786069
 10
-37.81714468993035
 20
36.77745754239497
 10
-37.81714468993035
 20
52.02886860732363
 10
-43.41154949849678
 20
64.49758655885531
 10
-54.4460512330821
 20
73.84008175639109
 10
-65.33488770020254
 20
83.06020668208196
 10
-80.69985471430555
 20
87.73437330978646
 10
-100.109909002593
 20
87.73437330978646
 10
-100.109909002593
 20
87.73437330978646
 10
-188.1817625613699
 20
87.73437330978646
 10
-188.1817625613699
 20
87.73437330978646
 10
-188.1817625613699
 20
87.73437330978646
 10
-188.1817625613699
 20
-81.12881775588205
 10
-188.1817625613699
 20
-81.12881775588205
 10
-188.1817625613699
 20
-81.12881775588205
 10
-132.2144194800842
 20
-81.12881775588205
 10
-132.2144194800842
 20
-81.12881775588205
 10
-132.2144194800842
 20
-81.12881775588205
 10
-132.2144194800842
 20
-18.83313441428468
 10
-132.2144194800842
 20
-18.83313441428468
 10
-132.2144194800842
 20
-18.83313441428468
 10
-121.4828099244499
 20
-18.83313441428468
 10
-121.4828099244499
 20
-18.83313441428468
 10
-121.4828099244499
 20
-18.83313441428468
 10
-97.68986230752958
 20
-81.12881775588205
 10
-97.68986230752958
 20
-81.12881775588205
 10
-97.68986230752958
 20
-81.12881775588205
 10
-35.73490404931786
 20
-81.12881775588205
 10
-35.73490404931786
 20
-81.12881775588205
 10
-35.73490404931786
 20
-81.12881775588205
 10
-65.85035386868113
 20
-8.58350804816817
 10
-65.85035386868113
 20
-8.58350804816817
 97
        0
 97
        1
330
80
 75
     2
 76
     1
 98
        1
 10
0.0
 20
0.0
450
        0
451
        0
460
0.0
461
0.0
452
        0
462
0.0
453
        0
470

  0
ENDSEC
  0
SECTION
  2
OBJECTS
  0
DICTIONARY
  5
C
330
0
100
AcDbDictionary
281
     1
  3
ACAD_COLOR
350
63
  3
ACAD_DETAILVIEWSTYLE
350
6A
  3
ACAD_GROUP
350
D
  3
ACAD_LAYOUT
350
62
  3
ACAD_MATERIAL
350
10
  3
ACAD_MLEADERSTYLE
350
66
  3
ACAD_MLINESTYLE
350
5F
  3
ACAD_PLOTSETTINGS
350
61
  3
ACAD_PLOTSTYLENAME
350
E
  3
ACAD_SCALELIST
350
42
  3
ACAD_SECTIONVIEWSTYLE
350
68
  3
ACAD_TABLESTYLE
350
64
  3
ACAD_VISUALSTYLE
350
29
  3
ACDB_RECOMPOSE_DATA
350
8A
  3
AcDbVariableDictionary
350
82
  0
DICTIONARY
  5
63
102
{ACAD_REACTORS
330
C
102
}
330
C
100
AcDbDictionary
281
     1
  0
DICTIONARY
  5
6A
102
{ACAD_REACTORS
330
C
102
}
330
C
100
AcDbDictionary
281
     1
  3
Imperial24
350
6B
  0
DICTIONARY
  5
D
102
{ACAD_REACTORS
330
C
102
}
330
C
100
AcDbDictionary
281
     1
  0
DICTIONARY
  5
62
102
{ACAD_REACTORS
330
C
102
}
330
C
100
AcDbDictionary
281
     1
  3
Layout1
350
6F
  3
Layout2
350
77
  3
Model
350
73
  0
DICTIONARY
  5
10
102
{ACAD_REACTORS
330
C
102
}
330
C
100
AcDbDictionary
281
     1
  3
ByBlock
350
19
  3
ByLayer
350
11
  3
Global
350
21
  0
DICTIONARY
  5
66
102
{ACAD_REACTORS
330
C
102
}
330
C
100
AcDbDictionary
281
     1
  3
Standard
350
67
  0
DICTIONARY
  5
5F
102
{ACAD_REACTORS
330
C
102
}
330
C
100
AcDbDictionary
281
     1
  3
Standard
350
60
  0
DICTIONARY
  5
61
102
{ACAD_REACTORS
330
C
102
}
330
C
100
AcDbDictionary
281
     1
  0
ACDBDICTIONARYWDFLT
  5
E
102
{ACAD_REACTORS
330
C
102
}
330
C
100
AcDbDictionary
281
     1
  3
Normal
350
F
100
AcDbDictionaryWithDefault
340
F
  0
DICTIONARY
  5
42
102
{ACAD_REACTORS
330
C
102
}
330
C
100
AcDbDictionary
281
     1
  3
A0
350
43
  3
A1
350
44
  3
A2
350
45
  3
A3
350
46
  3
A4
350
47
  3
A5
350
48
  3
A6
350
49
  3
A7
350
4A
  3
A8
350
4B
  3
A9
350
4C
  3
B0
350
4D
  3
B1
350
4E
  3
B2
350
4F
  3
B3
350
50
  3
B4
350
51
  3
B5
350
52
  3
B6
350
53
  0
DICTIONARY
  5
68
102
{ACAD_REACTORS
330
C
102
}
330
C
100
AcDbDictionary
281
     1
  3
Imperial24
350
69
  0
DICTIONARY
  5
64
102
{ACAD_REACTORS
330
C
102
}
330
C
100
AcDbDictionary
281
     1
  3
Standard
350
65
  0
DICTIONARY
  5
29
102
{ACAD_REACTORS
330
C
102
}
330
C
100
AcDbDictionary
281
     1
  3
2dWireframe
350
2F
  3
Basic
350
2E
  3
Brighten
350
35
  3
ColorChange
350
39
  3
Conceptual
350
32
  3
Dim
350
34
  3
EdgeColorOff
350
41
  3
Facepattern
350
38
  3
Flat
350
2A
  3
FlatWithEdges
350
2B
  3
Gouraud
350
2C
  3
GouraudWithEdges
350
2D
  3
Hidden
350
31
  3
JitterOff
350
3F
  3
Linepattern
350
37
  3
OverhangOff
350
40
  3
Realistic
350
33
  3
Shaded
350
3E
  3
Shaded with edges
350
3D
  3
Shades of Gray
350
3A
  3
Sketchy
350
3B
  3
Thicken
350
36
  3
Wireframe
350
30
  3
X-Ray
350
3C
  0
XRECORD
  5
8A
102
{ACAD_REACTORS
330
C
102
}
330
C
100
AcDbXrecord
280
     1
 90
        1
330
65
  0
DICTIONARY
  5
82
102
{ACAD_REACTORS
330
C
102
}
330
C
100
AcDbDictionary
281
     1
  3
CANNOSCALE
350
87
  3
CMLEADERSTYLE
350
84
  3
CTABLESTYLE
350
83
  3
CVIEWDETAILSTYLE
350
85
  3
CVIEWSECTIONSTYLE
350
86
  0
ACDBDETAILVIEWSTYLE
  5
6B
102
{ACAD_XDICTIONARY
360
8D
102
}
102
{ACAD_REACTORS
330
6A
102
}
330
6A
100
AcDbModelDocViewStyle
 70
     0
  3
Imperial24
290
     0
100
AcDbDetailViewStyle
 70
     0
 71
     0
 90
        3
 71
     1
340
55
 62
   256
 40
0.24
340
0
 62
   256
 40
0.24
300

 40
0.36
280
     3
 71
     2
340
5D
 90
       25
 62
   256
 71
     3
340
55
 62
   256
 40
0.24
 90
        1
 40
0.75
 90
        1
300
%<\AcVar ViewType \f "%tc1">% %<\AcVar ViewDetailId>%\PSCALE %<\AcVar ViewScale \f "%sn">%
 71
     4
340
5D
 90
       25
 62
   256
340
5D
 90
       25
 62
   256
280
     0
  0
LAYOUT
  5
6F
102
{ACAD_REACTORS
330
62
102
}
330
62
100
AcDbPlotSettings
  1

  2

  4

  6

 40
0.0
 41
0.0
 42
0.0
 43
0.0
 44
0.0
 45
0.0
 46
0.0
 47
0.0
 48
0.0
 49
0.0
140
0.0
141
0.0
142
1.0
143
1.0
 70
   688
 72
     0
 73
     0
 74
     5
  7

 75
    16
147
1.0
 76
     0
 77
     2
 78
   300
148
0.0
149
0.0
100
AcDbLayout
  1
Layout1
 70
     1
 71
     1
 10
0.0
 20
0.0
 11
12.0
 21
9.0
 12
0.0
 22
0.0
 32
0.0
 14
0.0
 24
0.0
 34
0.0
 15
0.0
 25
0.0
 35
0.0
146
0.0
 13
0.0
 23
0.0
 33
0.0
 16
1.0
 26
0.0
 36
0.0
 17
0.0
 27
1.0
 37
0.0
 76
     0
330
6C
  0
LAYOUT
  5
77
102
{ACAD_REACTORS
330
62
102
}
330
62
100
AcDbPlotSettings
  1

  2

  4

  6

 40
0.0
 41
0.0
 42
0.0
 43
0.0
 44
0.0
 45
0.0
 46
0.0
 47
0.0
 48
0.0
 49
0.0
140
0.0
141
0.0
142
1.0
143
1.0
 70
   688
 72
     0
 73
     0
 74
     5
  7

 75
    16
147
1.0
 76
     0
 77
     2
 78
   300
148
0.0
149
0.0
100
AcDbLayout
  1
Layout2
 70
     1
 71
     2
 10
0.0
 20
0.0
 11
12.0
 21
9.0
 12
0.0
 22
0.0
 32
0.0
 14
0.0
 24
0.0
 34
0.0
 15
0.0
 25
0.0
 35
0.0
146
0.0
 13
0.0
 23
0.0
 33
0.0
 16
1.0
 26
0.0
 36
0.0
 17
0.0
 27
1.0
 37
0.0
 76
     0
330
74
  0
LAYOUT
  5
73
102
{ACAD_REACTORS
330
62
102
}
330
62
100
AcDbPlotSettings
  1

  2

  4

  6

 40
0.0
 41
0.0
 42
0.0
 43
0.0
 44
0.0
 45
0.0
 46
0.0
 47
0.0
 48
0.0
 49
0.0
140
0.0
141
0.0
142
1.0
143
1.0
 70
  1712
 72
     0
 73
     0
 74
     0
  7

 75
     0
147
1.0
 76
     0
 77
     2
 78
   300
148
0.0
149
0.0
100
AcDbLayout
  1
Model
 70
     1
 71
     0
 10
0.0
 20
0.0
 11
12.0
 21
9.0
 12
0.0
 22
0.0
 32
0.0
 14
0.0
 24
0.0
 34
0.0
 15
0.0
 25
0.0
 35
0.0
146
0.0
 13
0.0
 23
0.0
 33
0.0
 16
1.0
 26
0.0
 36
0.0
 17
0.0
 27
1.0
 37
0.0
 76
     0
330
70
  0
MATERIAL
  5
19
102
{ACAD_XDICTIONARY
360
1A
102
}
102
{ACAD_REACTORS
330
10
102
}
330
10
100
AcDbMaterial
  1
ByBlock
 72
     0
 43
0.0208333333333333
 43
0.0
 43
0.0
 43
0.0
 43
0.0
 43
0.0208333333333333
 43
0.0
 43
0.0
 43
0.0
 43
0.0
 43
1.0
 43
0.0
 43
0.0
 43
0.0
 43
0.0
 43
1.0
 77
     0
 47
0.0208333333333333
 47
0.0
 47
0.0
 47
0.0
 47
0.0
 47
0.0208333333333333
 47
0.0
 47
0.0
 47
0.0
 47
0.0
 47
1.0
 47
0.0
 47
0.0
 47
0.0
 47
0.0
 47
1.0
171
     0
 49
0.0208333333333333
 49
0.0
 49
0.0
 49
0.0
 49
0.0
 49
0.0208333333333333
 49
0.0
 49
0.0
 49
0.0
 49
0.0
 49
1.0
 49
0.0
 49
0.0
 49
0.0
 49
0.0
 49
1.0
175
     0
142
0.0208333333333333
142
0.0
142
0.0
142
0.0
142
0.0
142
0.0208333333333333
142
0.0
142
0.0
142
0.0
142
0.0
142
1.0
142
0.0
142
0.0
142
0.0
142
0.0
142
1.0
179
     0
144
0.0208333333333333
144
0.0
144
0.0
144
0.0
144
0.0
144
0.0208333333333333
144
0.0
144
0.0
144
0.0
144
0.0
144
1.0
144
0.0
144
0.0
144
0.0
144
0.0
144
1.0
147
0.0208333333333333
147
0.0
147
0.0
147
0.0
147
0.0
147
0.0208333333333333
147
0.0
147
0.0
147
0.0
147
0.0
147
1.0
147
0.0
147
0.0
147
0.0
147
0.0
147
1.0
  0
MATERIAL
  5
11
102
{ACAD_XDICTIONARY
360
12
102
}
102
{ACAD_REACTORS
330
10
102
}
330
10
100
AcDbMaterial
  1
ByLayer
 72
     0
 43
0.0208333333333333
 43
0.0
 43
0.0
 43
0.0
 43
0.0
 43
0.0208333333333333
 43
0.0
 43
0.0
 43
0.0
 43
0.0
 43
1.0
 43
0.0
 43
0.0
 43
0.0
 43
0.0
 43
1.0
 77
     0
 47
0.0208333333333333
 47
0.0
 47
0.0
 47
0.0
 47
0.0
 47
0.0208333333333333
 47
0.0
 47
0.0
 47
0.0
 47
0.0
 47
1.0
 47
0.0
 47
0.0
 47
0.0
 47
0.0
 47
1.0
171
     0
 49
0.0208333333333333
 49
0.0
 49
0.0
 49
0.0
 49
0.0
 49
0.0208333333333333
 49
0.0
 49
0.0
 49
0.0
 49
0.0
 49
1.0
 49
0.0
 49
0.0
 49
0.0
 49
0.0
 49
1.0
175
     0
142
0.0208333333333333
142
0.0
142
0.0
142
0.0
142
0.0
142
0.0208333333333333
142
0.0
142
0.0
142
0.0
142
0.0
142
1.0
142
0.0
142
0.0
142
0.0
142
0.0
142
1.0
179
     0
144
0.0208333333333333
144
0.0
144
0.0
144
0.0
144
0.0
144
0.0208333333333333
144
0.0
144
0.0
144
0.0
144
0.0
144
1.0
144
0.0
144
0.0
144
0.0
144
0.0
144
1.0
147
0.0208333333333333
147
0.0
147
0.0
147
0.0
147
0.0
147
0.0208333333333333
147
0.0
147
0.0
147
0.0
147
0.0
147
1.0
147
0.0
147
0.0
147
0.0
147
0.0
147
1.0
  0
MATERIAL
  5
21
102
{ACAD_XDICTIONARY
360
22
102
}
102
{ACAD_REACTORS
330
10
102
}
330
10
100
AcDbMaterial
  1
Global
 72
     0
 43
0.0208333333333333
 43
0.0
 43
0.0
 43
0.0
 43
0.0
 43
0.0208333333333333
 43
0.0
 43
0.0
 43
0.0
 43
0.0
 43
1.0
 43
0.0
 43
0.0
 43
0.0
 43
0.0
 43
1.0
 77
     0
 47
0.0208333333333333
 47
0.0
 47
0.0
 47
0.0
 47
0.0
 47
0.0208333333333333
 47
0.0
 47
0.0
 47
0.0
 47
0.0
 47
1.0
 47
0.0
 47
0.0
 47
0.0
 47
0.0
 47
1.0
171
     0
 49
0.0208333333333333
 49
0.0
 49
0.0
 49
0.0
 49
0.0
 49
0.0208333333333333
 49
0.0
 49
0.0
 49
0.0
 49
0.0
 49
1.0
 49
0.0
 49
0.0
 49
0.0
 49
0.0
 49
1.0
175
     0
142
0.0208333333333333
142
0.0
142
0.0
142
0.0
142
0.0
142
0.0208333333333333
142
0.0
142
0.0
142
0.0
142
0.0
142
1.0
142
0.0
142
0.0
142
0.0
142
0.0
142
1.0
179
     0
144
0.0208333333333333
144
0.0
144
0.0
144
0.0
144
0.0
144
0.0208333333333333
144
0.0
144
0.0
144
0.0
144
0.0
144
1.0
144
0.0
144
0.0
144
0.0
144
0.0
144
1.0
147
0.0208333333333333
147
0.0
147
0.0
147
0.0
147
0.0
147
0.0208333333333333
147
0.0
147
0.0
147
0.0
147
0.0
147
1.0
147
0.0
147
0.0
147
0.0
147
0.0
147
1.0
  0
MLEADERSTYLE
  5
67
102
{ACAD_REACTORS
330
66
102
}
330
66
100
AcDbMLeaderStyle
179
     2
170
     2
171
     1
172
     0
 90
        2
 40
0.0
 41
0.0
173
     1
 91
-1056964608
340
5B
 92
       -2
290
     1
 42
0.09
291
     1
 43
0.36
  3
Standard
 44
0.18
300

342
55
174
     1
178
     6
175
     1
176
     0
 93
-1056964608
 45
0.18
292
     0
297
     0
 46
0.18
 94
-1056964608
 47
1.0
 49
1.0
140
1.0
293
     1
141
0.0
294
     1
177
     0
142
1.0
295
     0
296
     0
143
0.125
271
     0
272
     9
273
     9
298
     1
  0
MLINESTYLE
  5
60
102
{ACAD_REACTORS
330
5F
102
}
330
5F
100
AcDbMlineStyle
  2
STANDARD
 70
     0
  3

 62
   256
 51
90.0
 52
90.0
 71
     2
 49
0.5
 62
   256
  6
BYLAYER
 49
-0.5
 62
   256
  6
BYLAYER
  0
ACDBPLACEHOLDER
  5
F
102
{ACAD_REACTORS
330
E
102
}
330
E
  0
SCALE
  5
43
102
{ACAD_REACTORS
330
42
102
}
330
42
100
AcDbScale
 70
     0
300
1:1
140
1.0
141
1.0
290
     1
  0
SCALE
  5
44
102
{ACAD_REACTORS
330
42
102
}
330
42
100
AcDbScale
 70
     0
300
1/128" = 1'-0"
140
0.0078125
141
12.0
290
     0
  0
SCALE
  5
45
102
{ACAD_REACTORS
330
42
102
}
330
42
100
AcDbScale
 70
     0
300
1/64" = 1'-0"
140
0.015625
141
12.0
290
     0
  0
SCALE
  5
46
102
{ACAD_REACTORS
330
42
102
}
330
42
100
AcDbScale
 70
     0
300
1/32" = 1'-0"
140
0.03125
141
12.0
290
     0
  0
SCALE
  5
47
102
{ACAD_REACTORS
330
42
102
}
330
42
100
AcDbScale
 70
     0
300
1/16" = 1'-0"
140
0.0625
141
12.0
290
     0
  0
SCALE
  5
48
102
{ACAD_REACTORS
330
42
102
}
330
42
100
AcDbScale
 70
     0
300
3/32" = 1'-0"
140
0.09375
141
12.0
290
     0
  0
SCALE
  5
49
102
{ACAD_REACTORS
330
42
102
}
330
42
100
AcDbScale
 70
     0
300
1/8" = 1'-0"
140
0.125
141
12.0
290
     0
  0
SCALE
  5
4A
102
{ACAD_REACTORS
330
42
102
}
330
42
100
AcDbScale
 70
     0
300
3/16" = 1'-0"
140
0.1875
141
12.0
290
     0
  0
SCALE
  5
4B
102
{ACAD_REACTORS
330
42
102
}
330
42
100
AcDbScale
 70
     0
300
1/4" = 1'-0"
140
0.25
141
12.0
290
     0
  0
SCALE
  5
4C
102
{ACAD_REACTORS
330
42
102
}
330
42
100
AcDbScale
 70
     0
300
3/8" = 1'-0"
140
0.375
141
12.0
290
     0
  0
SCALE
  5
4D
102
{ACAD_REACTORS
330
42
102
}
330
42
100
AcDbScale
 70
     0
300
1/2" = 1'-0"
140
0.5
141
12.0
290
     0
  0
SCALE
  5
4E
102
{ACAD_REACTORS
330
42
102
}
330
42
100
AcDbScale
 70
     0
300
3/4" = 1'-0"
140
0.75
141
12.0
290
     0
  0
SCALE
  5
4F
102
{ACAD_REACTORS
330
42
102
}
330
42
100
AcDbScale
 70
     0
300
1" = 1'-0"
140
1.0
141
12.0
290
     0
  0
SCALE
  5
50
102
{ACAD_REACTORS
330
42
102
}
330
42
100
AcDbScale
 70
     0
300
1-1/2" = 1'-0"
140
1.5
141
12.0
290
     0
  0
SCALE
  5
51
102
{ACAD_REACTORS
330
42
102
}
330
42
100
AcDbScale
 70
     0
300
3" = 1'-0"
140
3.0
141
12.0
290
     0
  0
SCALE
  5
52
102
{ACAD_REACTORS
330
42
102
}
330
42
100
AcDbScale
 70
     0
300
6" = 1'-0"
140
6.0
141
12.0
290
     0
  0
SCALE
  5
53
102
{ACAD_REACTORS
330
42
102
}
330
42
100
AcDbScale
 70
     0
300
1'-0" = 1'-0"
140
12.0
141
12.0
290
     0
  0
ACDBSECTIONVIEWSTYLE
  5
69
102
{ACAD_XDICTIONARY
360
8B
102
}
102
{ACAD_REACTORS
330
68
102
}
330
68
100
AcDbModelDocViewStyle
 70
     0
  3
Imperial24
290
     0
100
AcDbSectionViewStyle
 70
     0
 71
     0
 90
       78
 71
     1
340
55
 62
   256
 40
0.24
340
0
340
0
 62
   256
 40
0.24
300
I, O, Q, S, X, Z
 40
0.48
 90
        3
 40
0.18
 90
        1
 71
     2
340
5D
 90
       25
 62
   256
340
5D
 90
       50
 62
   256
 40
0.24
 40
0.0
 40
0.24
 71
     3
340
55
 62
   256
 40
0.24
 90
        1
 40
0.75
 90
        1
300
%<\AcVar ViewType \f "%tc1">% %<\AcVar ViewSectionStartId>%-%<\AcVar ViewSectionEndId>%\PSCALE %<\AcVar ViewScale \f "%sn">%
 71
     4
 62
   256
 62
   257
300
ANSI31
 40
1.0
 90
        0
290
     0
290
     0
 90
        6
 40
0.0
 40
1.570796326794896
 40
0.2617993877991494
 40
1.308996938995747
 40
-0.2617993877991494
 40
1.832595714594046
  0
TABLESTYLE
  5
65
102
{ACAD_XDICTIONARY
360
88
102
}
102
{ACAD_REACTORS
330
64
102
}
330
64
100
AcDbTableStyle
280
     0
  3
Standard
 70
     0
 71
     0
 40
0.06
 41
0.06
280
     0
281
     0
  7
Standard
140
0.18
170
     2
 62
     0
 63
     7
283
     0
 90
      512
 91
        0
  1

274
    -2
284
     1
 64
     0
275
    -2
285
     1
 65
     0
276
    -2
286
     1
 66
     0
277
    -2
287
     1
 67
     0
278
    -2
288
     1
 68
     0
279
    -2
289
     1
 69
     0
  7
Standard
140
0.25
170
     5
 62
     0
 63
     7
283
     0
 90
      512
 91
        0
  1

274
    -2
284
     1
 64
     0
275
    -2
285
     1
 65
     0
276
    -2
286
     1
 66
     0
277
    -2
287
     1
 67
     0
278
    -2
288
     1
 68
     0
279
    -2
289
     1
 69
     0
  7
Standard
140
0.18
170
     5
 62
     0
 63
     7
283
     0
 90
      512
 91
        0
  1

274
    -2
284
     1
 64
     0
275
    -2
285
     1
 65
     0
276
    -2
286
     1
 66
     0
277
    -2
287
     1
 67
     0
278
    -2
288
     1
 68
     0
279
    -2
289
     1
 69
     0
  0
VISUALSTYLE
  5
2F
102
{ACAD_REACTORS
330
29
102
}
330
29
100
AcDbVisualStyle
  2
2dWireframe
 70
     4
177
     3
291
     0
 70
    58
 90
        0
176
     1
 90
        2
176
     1
 90
        0
176
     1
 90
        0
176
     1
 40
0.6
176
     1
 40
30.0
176
     1
 62
     7
420
 16777215
176
     1
 90
        1
176
     1
 90
        4
176
     1
 62
     7
176
     1
 62
   257
176
     1
 90
        1
176
     1
 90
        1
176
     1
 40
1.0
176
     1
 90
        0
176
     1
 62
   257
176
     1
 40
1.0
176
     1
 90
        1
176
     1
 90
        6
176
     1
 90
        2
176
     1
 62
     7
176
     1
 90
        5
176
     1
 90
        0
176
     1
 90
        0
176
     1
290
     0
176
     1
 90
        1
176
     1
 40
0.0
176
     1
 90
        0
176
     1
290
     1
176
     1
290
     1
176
     1
290
     0
176
     1
290
     0
176
     1
290
     0
176
     1
290
     0
176
     1
290
     0
176
     1
290
     0
176
     1
290
     0
176
     1
 90
       50
176
     1
 40
0.0
176
     1
 40
1.0
176
     1
 90
        0
176
     1
 62
    18
420
        0
176
     1
 90
       50
176
     1
 90
        3
176
     1
 62
     5
420
      255
176
     1
290
     0
176
     1
 90
       50
176
     1
 90
       50
176
     1
 90
       50
176
     1
290
     0
176
     1
 90
       50
176
     1
 62
   256
176
     0
 40
1.0
176
     0
 90
        2
176
     1
  1
strokes_ogs.tif
176
     1
290
     0
176
     1
 40
1.0
176
     1
 40
1.0
176
     1
1001
ACAD
1000
AcDbSavedByObjectVersion
1070
     0
  0
VISUALSTYLE
  5
2E
102
{ACAD_REACTORS
330
29
102
}
330
29
100
AcDbVisualStyle
  2
Basic
 70
     7
177
     3
291
     1
 70
    58
 90
        1
176
     1
 90
        0
176
     1
 90
        1
176
     1
 90
        0
176
     1
 40
0.6
176
     1
 40
30.0
176
     1
 62
     7
420
 16777215
176
     1
 90
        0
176
     1
 90
        4
176
     1
 62
     7
176
     1
 62
   257
176
     1
 90
        1
176
     1
 90
        1
176
     1
 40
1.0
176
     1
 90
        8
176
     1
 62
     7
176
     1
 40
1.0
176
     1
 90
        1
176
     1
 90
        6
176
     1
 90
        2
176
     1
 62
     7
176
     1
 90
        5
176
     1
 90
        0
176
     1
 90
        0
176
     1
290
     0
176
     1
 90
        1
176
     1
 40
0.0
176
     1
 90
        0
176
     1
290
     0
176
     1
290
     1
176
     1
290
     1
176
     1
290
     0
176
     1
290
     0
176
     1
290
     0
176
     1
290
     0
176
     1
290
     0
176
     1
290
     0
176
     1
 90
       50
176
     1
 40
0.0
176
     1
 40
1.0
176
     1
 90
        0
176
     1
 62
    18
420
        0
176
     1
 90
       50
176
     1
 90
        3
176
     1
 62
     5
420
      255
176
     1
290
     0
176
     1
 90
       50
176
     1
 90
       50
176
     1
 90
       50
176
     1
290
     0
176
     1
 90
       50
176
     1
 62
   256
176
     0
 40
1.0
176
     0
 90
        2
176
     1
  1
strokes_ogs.tif
176
     1
290
     0
176
     1
 40
1.0
176
     1
 40
1.0
176
     1
1001
ACAD
1000
AcDbSavedByObjectVersion
1070
     0
  0
VISUALSTYLE
  5
35
102
{ACAD_REACTORS
330
29
102
}
330
29
100
AcDbVisualStyle
  2
Brighten
 70
    12
177
     3
291
     1
 70
    58
 90
        2
176
     1
 90
        2
176
     1
 90
        0
176
     1
 90
        0
176
     1
 40
0.6
176
     1
 40
30.0
176
     1
 62
     7
420
 16777215
176
     1
 90
        1
176
     1
 90
        4
176
     1
 62
     7
176
     1
 62
   257
176
     1
 90
        1
176
     1
 90
        1
176
     1
 40
1.0
176
     1
 90
        8
176
     1
 62
     7
176
     1
 40
1.0
176
     1
 90
        1
176
     1
 90
        6
176
     1
 90
        2
176
     1
 62
     7
176
     1
 90
        5
176
     1
 90
        0
176
     1
 90
        0
176
     1
290
     0
176
     1
 90
        1
176
     1
 40
50.0
176
     1
 90
        0
176
     1
290
     0
176
     1
290
     1
176
     1
290
     1
176
     1
290
     0
176
     1
290
     0
176
     1
290
     0
176
     1
290
     0
176
     1
290
     0
176
     1
290
     0
176
     1
 90
       50
176
     1
 40
0.0
176
     1
 40
1.0
176
     1
 90
        0
176
     1
 62
    18
420
        0
176
     1
 90
       50
176
     1
 90
        3
176
     1
 62
     5
420
      255
176
     1
290
     0
176
     1
 90
       50
176
     1
 90
       50
176
     1
 90
       50
176
     1
290
     0
176
     1
 90
       50
176
     1
 62
   256
176
     0
 40
1.0
176
     0
 90
        2
176
     1
  1
strokes_ogs.tif
176
     1
290
     0
176
     1
 40
1.0
176
     1
 40
1.0
176
     1
1001
ACAD
1000
AcDbSavedByObjectVersion
1070
     0
  0
VISUALSTYLE
  5
39
102
{ACAD_REACTORS
330
29
102
}
330
29
100
AcDbVisualStyle
  2
ColorChange
 70
    16
177
     3
291
     1
 70
    58
 90
        2
176
     1
 90
        2
176
     1
 90
        3
176
     1
 90
        0
176
     1
 40
0.6
176
     1
 40
30.0
176
     1
 62
     8
420
  8421504
176
     1
 90
        1
176
     1
 90
        4
176
     1
 62
     7
176
     1
 62
   257
176
     1
 90
        1
176
     1
 90
        1
176
     1
 40
1.0
176
     1
 90
        8
176
     1
 62
     8
420
  8421504
176
     1
 40
1.0
176
     1
 90
        1
176
     1
 90
        6
176
     1
 90
        2
176
     1
 62
     7
176
     1
 90
        5
176
     1
 90
        0
176
     1
 90
        0
176
     1
290
     0
176
     1
 90
        1
176
     1
 40
0.0
176
     1
 90
        0
176
     1
290
     0
176
     1
290
     1
176
     1
290
     1
176
     1
290
     0
176
     1
290
     0
176
     1
290
     0
176
     1
290
     0
176
     1
290
     0
176
     1
290
     0
176
     1
 90
       50
176
     1
 40
0.0
176
     1
 40
1.0
176
     1
 90
        0
176
     1
 62
    18
420
        0
176
     1
 90
       50
176
     1
 90
        3
176
     1
 62
     5
420
      255
176
     1
290
     0
176
     1
 90
       50
176
     1
 90
       50
176
     1
 90
       50
176
     1
290
     0
176
     1
 90
       50
176
     1
 62
   256
176
     0
 40
1.0
176
     0
 90
        2
176
     1
  1
strokes_ogs.tif
176
     1
290
     0
176
     1
 40
1.0
176
     1
 40
1.0
176
     1
1001
ACAD
1000
AcDbSavedByObjectVersion
1070
     0
  0
VISUALSTYLE
  5
32
102
{ACAD_REACTORS
330
29
102
}
330
29
100
AcDbVisualStyle
  2
Conceptual
 70
     9
177
     3
291
     0
 70
    58
 90
        3
176
     1
 90
        2
176
     1
 90
        0
176
     1
 90
        0
176
     1
 40
0.6
176
     1
 40
30.0
176
     1
 62
     7
420
 16777215
176
     1
 90
        2
176
     1
 90
        2
176
     1
 62
     7
176
     1
 62
   257
176
     1
 90
        1
176
     1
 90
        1
176
     1
 40
179.0
176
     1
 90
        8
176
     1
 62
     7
176
     1
 40
1.0
176
     1
 90
        1
176
     1
 90
        6
176
     1
 90
        2
176
     1
 62
     7
176
     1
 90
        3
176
     1
 90
        0
176
     1
 90
        0
176
     1
290
     0
176
     1
 90
        1
176
     1
 40
0.0
176
     1
 90
        0
176
     1
290
     0
176
     1
290
     1
176
     1
290
     1
176
     1
290
     0
176
     1
290
     0
176
     1
290
     0
176
     1
290
     0
176
     1
290
     0
176
     1
290
     0
176
     1
 90
       50
176
     1
 40
0.0
176
     1
 40
1.0
176
     1
 90
        0
176
     1
 62
    18
420
        0
176
     1
 90
       50
176
     1
 90
        3
176
     1
 62
     5
420
      255
176
     1
290
     0
176
     1
 90
       50
176
     1
 90
       50
176
     1
 90
       50
176
     1
290
     0
176
     1
 90
       50
176
     1
 62
   256
176
     0
 40
1.0
176
     0
 90
        2
176
     1
  1
strokes_ogs.tif
176
     1
290
     0
176
     1
 40
1.0
176
     1
 40
1.0
176
     1
1001
ACAD
1000
AcDbSavedByObjectVersion
1070
     0
  0
VISUALSTYLE
  5
34
102
{ACAD_REACTORS
330
29
102
}
330
29
100
AcDbVisualStyle
  2
Dim
 70
    11
177
     3
291
     1
 70
    58
 90
        2
176
     1
 90
        2
176
     1
 90
        0
176
     1
 90
        0
176
     1
 40
0.6
176
     1
 40
30.0
176
     1
 62
     7
420
 16777215
176
     1
 90
        1
176
     1
 90
        4
176
     1
 62
     7
176
     1
 62
   257
176
     1
 90
        1
176
     1
 90
        1
176
     1
 40
1.0
176
     1
 90
        8
176
     1
 62
     7
176
     1
 40
1.0
176
     1
 90
        1
176
     1
 90
        6
176
     1
 90
        2
176
     1
 62
     7
176
     1
 90
        5
176
     1
 90
        0
176
     1
 90
        0
176
     1
290
     0
176
     1
 90
        1
176
     1
 40
-50.0
176
     1
 90
        0
176
     1
290
     0
176
     1
290
     1
176
     1
290
     1
176
     1
290
     0
176
     1
290
     0
176
     1
290
     0
176
     1
290
     0
176
     1
290
     0
176
     1
290
     0
176
     1
 90
       50
176
     1
 40
0.0
176
     1
 40
1.0
176
     1
 90
        0
176
     1
 62
    18
420
        0
176
     1
 90
       50
176
     1
 90
        3
176
     1
 62
     5
420
      255
176
     1
290
     0
176
     1
 90
       50
176
     1
 90
       50
176
     1
 90
       50
176
     1
290
     0
176
     1
 90
       50
176
     1
 62
   256
176
     0
 40
1.0
176
     0
 90
        2
176
     1
  1
strokes_ogs.tif
176
     1
290
     0
176
     1
 40
1.0
176
     1
 40
1.0
176
     1
1001
ACAD
1000
AcDbSavedByObjectVersion
1070
     0
  0
VISUALSTYLE
  5
41
102
{ACAD_REACTORS
330
29
102
}
330
29
100
AcDbVisualStyle
  2
EdgeColorOff
 70
    22
177
     3
291
     1
 70
    58
 90
        2
176
     0
 90
        2
176
     0
 90
        0
176
     0
 90
        0
176
     0
 40
0.6
176
     0
 40
30.0
176
     0
 62
     7
420
 16777215
176
     0
 90
        1
176
     0
 90
        4
176
     0
 62
     7
176
     0
 62
   257
176
     0
 90
        1
176
     0
 90
        1
176
     0
 40
1.0
176
     0
 90
        8
176
     2
 62
     7
176
     0
 40
1.0
176
     0
 90
        1
176
     0
 90
        6
176
     0
 90
        2
176
     0
 62
     7
176
     0
 90
        5
176
     0
 90
        0
176
     0
 90
        0
176
     0
290
     0
176
     0
 90
        1
176
     0
 40
0.0
176
     0
 90
        0
176
     0
290
     0
176
     0
290
     1
176
     0
290
     1
176
     0
290
     0
176
     0
290
     0
176
     0
290
     0
176
     0
290
     0
176
     0
290
     0
176
     0
290
     0
176
     0
 90
       50
176
     0
 40
0.0
176
     0
 40
1.0
176
     0
 90
        0
176
     0
 62
    18
420
        0
176
     0
 90
       50
176
     0
 90
        3
176
     0
 62
     5
420
      255
176
     0
290
     0
176
     0
 90
       50
176
     0
 90
       50
176
     0
 90
       50
176
     0
290
     0
176
     0
 90
       50
176
     0
 62
   256
176
     0
 40
1.0
176
     0
 90
        2
176
     0
  1
strokes_ogs.tif
176
     0
290
     0
176
     0
 40
1.0
176
     0
 40
1.0
176
     0
1001
ACAD
1000
AcDbSavedByObjectVersion
1070
     0
  0
VISUALSTYLE
  5
38
102
{ACAD_REACTORS
330
29
102
}
330
29
100
AcDbVisualStyle
  2
Facepattern
 70
    15
177
     3
291
     1
 70
    58
 90
        2
176
     1
 90
        2
176
     1
 90
        0
176
     1
 90
        0
176
     1
 40
0.6
176
     1
 40
30.0
176
     1
 62
     7
420
 16777215
176
     1
 90
        1
176
     1
 90
        4
176
     1
 62
     7
176
     1
 62
   257
176
     1
 90
        1
176
     1
 90
        1
176
     1
 40
1.0
176
     1
 90
        8
176
     1
 62
     7
176
     1
 40
1.0
176
     1
 90
        1
176
     1
 90
        6
176
     1
 90
        2
176
     1
 62
     7
176
     1
 90
        5
176
     1
 90
        0
176
     1
 90
        0
176
     1
290
     0
176
     1
 90
        1
176
     1
 40
0.0
176
     1
 90
        0
176
     1
290
     0
176
     1
290
     1
176
     1
290
     1
176
     1
290
     0
176
     1
290
     0
176
     1
290
     0
176
     1
290
     0
176
     1
290
     0
176
     1
290
     0
176
     1
 90
       50
176
     1
 40
0.0
176
     1
 40
1.0
176
     1
 90
        0
176
     1
 62
    18
420
        0
176
     1
 90
       50
176
     1
 90
        3
176
     1
 62
     5
420
      255
176
     1
290
     0
176
     1
 90
       50
176
     1
 90
       50
176
     1
 90
       50
176
     1
290
     0
176
     1
 90
       50
176
     1
 62
   256
176
     0
 40
1.0
176
     0
 90
        2
176
     1
  1
strokes_ogs.tif
176
     1
290
     0
176
     1
 40
1.0
176
     1
 40
1.0
176
     1
1001
ACAD
1000
AcDbSavedByObjectVersion
1070
     0
  0
VISUALSTYLE
  5
2A
102
{ACAD_REACTORS
330
29
102
}
330
29
100
AcDbVisualStyle
  2
Flat
 70
     0
177
     3
291
     1
 70
    58
 90
        2
176
     1
 90
        1
176
     1
 90
        1
176
     1
 90
        2
176
     1
 40
0.6
176
     1
 40
30.0
176
     1
 62
     7
420
 16777215
176
     1
 90
        0
176
     1
 90
        0
176
     1
 62
     7
176
     1
 62
   257
176
     1
 90
        1
176
     1
 90
        1
176
     1
 40
1.0
176
     1
 90
        8
176
     1
 62
     7
176
     1
 40
1.0
176
     1
 90
        1
176
     1
 90
        6
176
     1
 90
        2
176
     1
 62
     7
176
     1
 90
        5
176
     1
 90
        0
176
     1
 90
        0
176
     1
290
     0
176
     1
 90
       13
176
     1
 40
0.0
176
     1
 90
        0
176
     1
290
     0
176
     1
290
     1
176
     1
290
     1
176
     1
290
     0
176
     1
290
     0
176
     1
290
     0
176
     1
290
     0
176
     1
290
     0
176
     1
290
     0
176
     1
 90
       50
176
     1
 40
0.0
176
     1
 40
1.0
176
     1
 90
        0
176
     1
 62
    18
420
        0
176
     1
 90
       50
176
     1
 90
        3
176
     1
 62
     5
420
      255
176
     1
290
     0
176
     1
 90
       50
176
     1
 90
       50
176
     1
 90
       50
176
     1
290
     0
176
     1
 90
       50
176
     1
 62
   256
176
     0
 40
1.0
176
     0
 90
        2
176
     1
  1
strokes_ogs.tif
176
     1
290
     0
176
     1
 40
1.0
176
     1
 40
1.0
176
     1
1001
ACAD
1000
AcDbSavedByObjectVersion
1070
     0
  0
VISUALSTYLE
  5
2B
102
{ACAD_REACTORS
330
29
102
}
330
29
100
AcDbVisualStyle
  2
FlatWithEdges
 70
     1
177
     3
291
     1
 70
    58
 90
        2
176
     1
 90
        1
176
     1
 90
        1
176
     1
 90
        2
176
     1
 40
0.6
176
     1
 40
30.0
176
     1
 62
     7
420
 16777215
176
     1
 90
        1
176
     1
 90
        0
176
     1
 62
     7
176
     1
 62
   257
176
     1
 90
        1
176
     1
 90
        1
176
     1
 40
1.0
176
     1
 90
        0
176
     1
 62
   257
176
     1
 40
1.0
176
     1
 90
        1
176
     1
 90
        6
176
     1
 90
        2
176
     1
 62
     7
176
     1
 90
        5
176
     1
 90
        0
176
     1
 90
        0
176
     1
290
     0
176
     1
 90
       13
176
     1
 40
0.0
176
     1
 90
        0
176
     1
290
     0
176
     1
290
     1
176
     1
290
     1
176
     1
290
     0
176
     1
290
     0
176
     1
290
     0
176
     1
290
     0
176
     1
290
     0
176
     1
290
     0
176
     1
 90
       50
176
     1
 40
0.0
176
     1
 40
1.0
176
     1
 90
        0
176
     1
 62
    18
420
        0
176
     1
 90
       50
176
     1
 90
        3
176
     1
 62
     5
420
      255
176
     1
290
     0
176
     1
 90
       50
176
     1
 90
       50
176
     1
 90
       50
176
     1
290
     0
176
     1
 90
       50
176
     1
 62
   256
176
     0
 40
1.0
176
     0
 90
        2
176
     1
  1
strokes_ogs.tif
176
     1
290
     0
176
     1
 40
1.0
176
     1
 40
1.0
176
     1
1001
ACAD
1000
AcDbSavedByObjectVersion
1070
     0
  0
VISUALSTYLE
  5
2C
102
{ACAD_REACTORS
330
29
102
}
330
29
100
AcDbVisualStyle
  2
Gouraud
 70
     2
177
     3
291
     1
 70
    58
 90
        2
176
     1
 90
        2
176
     1
 90
        1
176
     1
 90
        2
176
     1
 40
0.6
176
     1
 40
30.0
176
     1
 62
     7
420
 16777215
176
     1
 90
        0
176
     1
 90
        0
176
     1
 62
     7
176
     1
 62
   257
176
     1
 90
        1
176
     1
 90
        1
176
     1
 40
1.0
176
     1
 90
        0
176
     1
 62
     7
176
     1
 40
1.0
176
     1
 90
        1
176
     1
 90
        6
176
     1
 90
        2
176
     1
 62
     7
176
     1
 90
        5
176
     1
 90
        0
176
     1
 90
        0
176
     1
290
     0
176
     1
 90
       13
176
     1
 40
0.0
176
     1
 90
        0
176
     1
290
     0
176
     1
290
     1
176
     1
290
     1
176
     1
290
     0
176
     1
290
     0
176
     1
290
     0
176
     1
290
     0
176
     1
290
     0
176
     1
290
     0
176
     1
 90
       50
176
     1
 40
0.0
176
     1
 40
1.0
176
     1
 90
        0
176
     1
 62
    18
420
        0
176
     1
 90
       50
176
     1
 90
        3
176
     1
 62
     5
420
      255
176
     1
290
     0
176
     1
 90
       50
176
     1
 90
       50
176
     1
 90
       50
176
     1
290
     0
176
     1
 90
       50
176
     1
 62
   256
176
     0
 40
1.0
176
     0
 90
        2
176
     1
  1
strokes_ogs.tif
176
     1
290
     0
176
     1
 40
1.0
176
     1
 40
1.0
176
     1
1001
ACAD
1000
AcDbSavedByObjectVersion
1070
     0
  0
VISUALSTYLE
  5
2D
102
{ACAD_REACTORS
330
29
102
}
330
29
100
AcDbVisualStyle
  2
GouraudWithEdges
 70
     3
177
     3
291
     1
 70
    58
 90
        2
176
     1
 90
        2
176
     1
 90
        1
176
     1
 90
        2
176
     1
 40
0.6
176
     1
 40
30.0
176
     1
 62
     7
420
 16777215
176
     1
 90
        1
176
     1
 90
        0
176
     1
 62
     7
176
     1
 62
   257
176
     1
 90
        1
176
     1
 90
        1
176
     1
 40
1.0
176
     1
 90
        0
176
     1
 62
   257
176
     1
 40
1.0
176
     1
 90
        1
176
     1
 90
        6
176
     1
 90
        2
176
     1
 62
     7
176
     1
 90
        5
176
     1
 90
        0
176
     1
 90
        0
176
     1
290
     0
176
     1
 90
       13
176
     1
 40
0.0
176
     1
 90
        0
176
     1
290
     0
176
     1
290
     1
176
     1
290
     1
176
     1
290
     0
176
     1
290
     0
176
     1
290
     0
176
     1
290
     0
176
     1
290
     0
176
     1
290
     0
176
     1
 90
       50
176
     1
 40
0.0
176
     1
 40
1.0
176
     1
 90
        0
176
     1
 62
    18
420
        0
176
     1
 90
       50
176
     1
 90
        3
176
     1
 62
     5
420
      255
176
     1
290
     0
176
     1
 90
       50
176
     1
 90
       50
176
     1
 90
       50
176
     1
290
     0
176
     1
 90
       50
176
     1
 62
   256
176
     0
 40
1.0
176
     0
 90
        2
176
     1
  1
strokes_ogs.tif
176
     1
290
     0
176
     1
 40
1.0
176
     1
 40
1.0
176
     1
1001
ACAD
1000
AcDbSavedByObjectVersion
1070
     0
  0
VISUALSTYLE
  5
31
102
{ACAD_REACTORS
330
29
102
}
330
29
100
AcDbVisualStyle
  2
Hidden
 70
     6
177
     3
291
     0
 70
    58
 90
        1
176
     1
 90
        2
176
     1
 90
        2
176
     1
 90
        0
176
     1
 40
0.6
176
     1
 40
30.0
176
     1
 62
     7
420
 16777215
176
     1
 90
        2
176
     1
 90
        2
176
     1
 62
     7
176
     1
 62
   257
176
     1
 90
        2
176
     1
 90
        1
176
     1
 40
40.0
176
     1
 90
        0
176
     1
 62
   257
176
     1
 40
1.0
176
     1
 90
        1
176
     1
 90
        6
176
     1
 90
        2
176
     1
 62
     7
176
     1
 90
        3
176
     1
 90
        0
176
     1
 90
        0
176
     1
290
     0
176
     1
 90
        1
176
     1
 40
0.0
176
     1
 90
        0
176
     1
290
     0
176
     1
290
     1
176
     1
290
     1
176
     1
290
     0
176
     1
290
     0
176
     1
290
     0
176
     1
290
     0
176
     1
290
     0
176
     1
290
     0
176
     1
 90
       50
176
     1
 40
0.0
176
     1
 40
1.0
176
     1
 90
        0
176
     1
 62
    18
420
        0
176
     1
 90
       50
176
     1
 90
        3
176
     1
 62
     5
420
      255
176
     1
290
     0
176
     1
 90
       50
176
     1
 90
       50
176
     1
 90
       50
176
     1
290
     0
176
     1
 90
       50
176
     1
 62
   256
176
     0
 40
1.0
176
     0
 90
        2
176
     1
  1
strokes_ogs.tif
176
     1
290
     0
176
     1
 40
1.0
176
     1
 40
1.0
176
     1
1001
ACAD
1000
AcDbSavedByObjectVersion
1070
     0
  0
VISUALSTYLE
  5
3F
102
{ACAD_REACTORS
330
29
102
}
330
29
100
AcDbVisualStyle
  2
JitterOff
 70
    20
177
     3
291
     1
 70
    58
 90
        2
176
     0
 90
        2
176
     0
 90
        0
176
     0
 90
        0
176
     0
 40
0.6
176
     0
 40
30.0
176
     0
 62
     7
420
 16777215
176
     0
 90
        1
176
     0
 90
        4
176
     0
 62
     7
176
     0
 62
   257
176
     0
 90
        1
176
     0
 90
        1
176
     0
 40
1.0
176
     0
 90
       10
176
     2
 62
     7
176
     0
 40
1.0
176
     0
 90
        1
176
     0
 90
        6
176
     0
 90
        2
176
     0
 62
     7
176
     0
 90
        5
176
     0
 90
        0
176
     0
 90
        0
176
     0
290
     0
176
     0
 90
        1
176
     0
 40
0.0
176
     0
 90
        0
176
     0
290
     0
176
     0
290
     1
176
     0
290
     1
176
     0
290
     0
176
     0
290
     0
176
     0
290
     0
176
     0
290
     0
176
     0
290
     0
176
     0
290
     0
176
     0
 90
       50
176
     0
 40
0.0
176
     0
 40
1.0
176
     0
 90
        0
176
     0
 62
    18
420
        0
176
     0
 90
       50
176
     0
 90
        3
176
     0
 62
     5
420
      255
176
     0
290
     0
176
     0
 90
       50
176
     0
 90
       50
176
     0
 90
       50
176
     0
290
     0
176
     0
 90
       50
176
     0
 62
   256
176
     0
 40
1.0
176
     0
 90
        2
176
     0
  1
strokes_ogs.tif
176
     0
290
     0
176
     0
 40
1.0
176
     0
 40
1.0
176
     0
1001
ACAD
1000
AcDbSavedByObjectVersion
1070
     0
  0
VISUALSTYLE
  5
37
102
{ACAD_REACTORS
330
29
102
}
330
29
100
AcDbVisualStyle
  2
Linepattern
 70
    14
177
     3
291
     1
 70
    58
 90
        2
176
     1
 90
        2
176
     1
 90
        0
176
     1
 90
        0
176
     1
 40
0.6
176
     1
 40
30.0
176
     1
 62
     7
420
 16777215
176
     1
 90
        1
176
     1
 90
        4
176
     1
 62
     7
176
     1
 62
   257
176
     1
 90
        7
176
     1
 90
        7
176
     1
 40
1.0
176
     1
 90
        8
176
     1
 62
     7
176
     1
 40
1.0
176
     1
 90
        1
176
     1
 90
        6
176
     1
 90
        2
176
     1
 62
     7
176
     1
 90
        5
176
     1
 90
        0
176
     1
 90
        0
176
     1
290
     0
176
     1
 90
        1
176
     1
 40
0.0
176
     1
 90
        0
176
     1
290
     0
176
     1
290
     1
176
     1
290
     1
176
     1
290
     0
176
     1
290
     0
176
     1
290
     0
176
     1
290
     0
176
     1
290
     0
176
     1
290
     0
176
     1
 90
       50
176
     1
 40
0.0
176
     1
 40
1.0
176
     1
 90
        0
176
     1
 62
    18
420
        0
176
     1
 90
       50
176
     1
 90
        3
176
     1
 62
     5
420
      255
176
     1
290
     0
176
     1
 90
       50
176
     1
 90
       50
176
     1
 90
       50
176
     1
290
     0
176
     1
 90
       50
176
     1
 62
   256
176
     0
 40
1.0
176
     0
 90
        2
176
     1
  1
strokes_ogs.tif
176
     1
290
     0
176
     1
 40
1.0
176
     1
 40
1.0
176
     1
1001
ACAD
1000
AcDbSavedByObjectVersion
1070
     0
  0
VISUALSTYLE
  5
40
102
{ACAD_REACTORS
330
29
102
}
330
29
100
AcDbVisualStyle
  2
OverhangOff
 70
    21
177
     3
291
     1
 70
    58
 90
        2
176
     0
 90
        2
176
     0
 90
        0
176
     0
 90
        0
176
     0
 40
0.6
176
     0
 40
30.0
176
     0
 62
     7
420
 16777215
176
     0
 90
        1
176
     0
 90
        4
176
     0
 62
     7
176
     0
 62
   257
176
     0
 90
        1
176
     0
 90
        1
176
     0
 40
1.0
176
     0
 90
        9
176
     2
 62
     7
176
     0
 40
1.0
176
     0
 90
        1
176
     0
 90
        6
176
     0
 90
        2
176
     0
 62
     7
176
     0
 90
        5
176
     0
 90
        0
176
     0
 90
        0
176
     0
290
     0
176
     0
 90
        1
176
     0
 40
0.0
176
     0
 90
        0
176
     0
290
     0
176
     0
290
     1
176
     0
290
     1
176
     0
290
     0
176
     0
290
     0
176
     0
290
     0
176
     0
290
     0
176
     0
290
     0
176
     0
290
     0
176
     0
 90
       50
176
     0
 40
0.0
176
     0
 40
1.0
176
     0
 90
        0
176
     0
 62
    18
420
        0
176
     0
 90
       50
176
     0
 90
        3
176
     0
 62
     5
420
      255
176
     0
290
     0
176
     0
 90
       50
176
     0
 90
       50
176
     0
 90
       50
176
     0
290
     0
176
     0
 90
       50
176
     0
 62
   256
176
     0
 40
1.0
176
     0
 90
        2
176
     0
  1
strokes_ogs.tif
176
     0
290
     0
176
     0
 40
1.0
176
     0
 40
1.0
176
     0
1001
ACAD
1000
AcDbSavedByObjectVersion
1070
     0
  0
VISUALSTYLE
  5
33
102
{ACAD_REACTORS
330
29
102
}
330
29
100
AcDbVisualStyle
  2
Realistic
 70
     8
177
     3
291
     0
 70
    58
 90
        2
176
     1
 90
        3
176
     1
 90
        0
176
     1
 90
        2
176
     1
 40
0.6
176
     1
 40
30.0
176
     1
 62
     7
420
 16777215
176
     1
 90
        0
176
     1
 90
        0
176
     1
 62
     7
176
     1
 62
   257
176
     1
 90
        1
176
     1
 90
        1
176
     1
 40
1.0
176
     1
 90
        8
176
     1
 62
   257
176
     1
 40
1.0
176
     1
 90
        1
176
     1
 90
        6
176
     1
 90
        2
176
     1
 62
     7
176
     1
 90
        3
176
     1
 90
        0
176
     1
 90
        0
176
     1
290
     0
176
     1
 90
       13
176
     1
 40
0.0
176
     1
 90
        0
176
     1
290
     0
176
     1
290
     1
176
     1
290
     1
176
     1
290
     0
176
     1
290
     0
176
     1
290
     0
176
     1
290
     0
176
     1
290
     0
176
     1
290
     0
176
     1
 90
       50
176
     1
 40
0.0
176
     1
 40
1.0
176
     1
 90
        0
176
     1
 62
    18
420
        0
176
     1
 90
       50
176
     1
 90
        3
176
     1
 62
     5
420
      255
176
     1
290
     0
176
     1
 90
       50
176
     1
 90
       50
176
     1
 90
       50
176
     1
290
     0
176
     1
 90
       50
176
     1
 62
   256
176
     0
 40
1.0
176
     0
 90
        2
176
     1
  1
strokes_ogs.tif
176
     1
290
     0
176
     1
 40
1.0
176
     1
 40
1.0
176
     1
1001
ACAD
1000
AcDbSavedByObjectVersion
1070
     0
  0
VISUALSTYLE
  5
3E
102
{ACAD_REACTORS
330
29
102
}
330
29
100
AcDbVisualStyle
  2
Shaded
 70
    27
177
     3
291
     0
 70
    58
 90
        2
176
     1
 90
        2
176
     1
 90
        1
176
     1
 90
        2
176
     1
 40
0.6
176
     1
 40
30.0
176
     1
 62
     7
420
 16777215
176
     1
 90
        0
176
     1
 90
        4
176
     1
 62
     7
176
     1
 62
   257
176
     1
 90
        1
176
     1
 90
        1
176
     1
 40
1.0
176
     1
 90
        8
176
     1
 62
   257
176
     1
 40
1.0
176
     1
 90
        1
176
     1
 90
        6
176
     1
 90
        2
176
     1
 62
     8
420
  7895160
176
     1
 90
        3
176
     1
 90
        0
176
     1
 90
        0
176
     1
290
     0
176
     1
 90
        5
176
     1
 40
0.0
176
     1
 90
        0
176
     1
290
     0
176
     1
290
     1
176
     1
290
     1
176
     1
290
     0
176
     1
290
     0
176
     1
290
     0
176
     1
290
     0
176
     1
290
     0
176
     1
290
     0
176
     1
 90
       50
176
     1
 40
0.0
176
     1
 40
1.0
176
     1
 90
        0
176
     1
 62
    18
420
        0
176
     1
 90
       50
176
     1
 90
        3
176
     1
 62
     5
420
      255
176
     1
290
     0
176
     1
 90
       50
176
     1
 90
       50
176
     1
 90
       50
176
     1
290
     0
176
     1
 90
       50
176
     1
 62
   256
176
     0
 40
1.0
176
     0
 90
        2
176
     1
  1
strokes_ogs.tif
176
     1
290
     0
176
     1
 40
1.0
176
     1
 40
1.0
176
     1
1001
ACAD
1000
AcDbSavedByObjectVersion
1070
     0
  0
VISUALSTYLE
  5
3D
102
{ACAD_REACTORS
330
29
102
}
330
29
100
AcDbVisualStyle
  2
Shaded with edges
 70
    26
177
     3
291
     0
 70
    58
 90
        2
176
     1
 90
        2
176
     1
 90
        1
176
     1
 90
        2
176
     1
 40
0.6
176
     1
 40
30.0
176
     1
 62
     7
420
 16777215
176
     1
 90
        1
176
     1
 90
        2
176
     1
 62
     7
176
     1
 62
   257
176
     1
 90
        2
176
     1
 90
        1
176
     1
 40
1.0
176
     1
 90
        8
176
     1
 62
   257
176
     1
 40
1.0
176
     1
 90
        1
176
     1
 90
        6
176
     1
 90
        2
176
     1
 62
     7
176
     1
 90
        3
176
     1
 90
        0
176
     1
 90
        0
176
     1
290
     0
176
     1
 90
        5
176
     1
 40
0.0
176
     1
 90
        0
176
     1
290
     0
176
     1
290
     1
176
     1
290
     1
176
     1
290
     0
176
     1
290
     0
176
     1
290
     0
176
     1
290
     0
176
     1
290
     0
176
     1
290
     0
176
     1
 90
       50
176
     1
 40
0.0
176
     1
 40
1.0
176
     1
 90
        0
176
     1
 62
    18
420
        0
176
     1
 90
       50
176
     1
 90
        3
176
     1
 62
     5
420
      255
176
     1
290
     0
176
     1
 90
       50
176
     1
 90
       50
176
     1
 90
       50
176
     1
290
     0
176
     1
 90
       50
176
     1
 62
   256
176
     0
 40
1.0
176
     0
 90
        2
176
     1
  1
strokes_ogs.tif
176
     1
290
     0
176
     1
 40
1.0
176
     1
 40
1.0
176
     1
1001
ACAD
1000
AcDbSavedByObjectVersion
1070
     0
  0
VISUALSTYLE
  5
3A
102
{ACAD_REACTORS
330
29
102
}
330
29
100
AcDbVisualStyle
  2
Shades of Gray
 70
    23
177
     3
291
     0
 70
    58
 90
        2
176
     1
 90
        2
176
     1
 90
        3
176
     1
 90
        0
176
     1
 40
0.6
176
     1
 40
30.0
176
     1
 62
     7
420
 16777215
176
     1
 90
        2
176
     1
 90
        2
176
     1
 62
     7
176
     1
 62
     7
176
     1
 90
        1
176
     1
 90
        1
176
     1
 40
40.0
176
     1
 90
        8
176
     1
 62
     7
176
     1
 40
1.0
176
     1
 90
        1
176
     1
 90
        6
176
     1
 90
        2
176
     1
 62
     7
176
     1
 90
        3
176
     1
 90
        0
176
     1
 90
        0
176
     1
290
     0
176
     1
 90
        1
176
     1
 40
0.0
176
     1
 90
        0
176
     1
290
     0
176
     1
290
     1
176
     1
290
     1
176
     1
290
     0
176
     1
290
     0
176
     1
290
     0
176
     1
290
     0
176
     1
290
     0
176
     1
290
     0
176
     1
 90
       50
176
     1
 40
0.0
176
     1
 40
1.0
176
     1
 90
        0
176
     1
 62
    18
420
        0
176
     1
 90
       50
176
     1
 90
        3
176
     1
 62
     5
420
      255
176
     1
290
     0
176
     1
 90
       50
176
     1
 90
       50
176
     1
 90
       50
176
     1
290
     0
176
     1
 90
       50
176
     1
 62
   256
176
     0
 40
1.0
176
     0
 90
        2
176
     1
  1
strokes_ogs.tif
176
     1
290
     0
176
     1
 40
1.0
176
     1
 40
1.0
176
     1
1001
ACAD
1000
AcDbSavedByObjectVersion
1070
     0
  0
VISUALSTYLE
  5
3B
102
{ACAD_REACTORS
330
29
102
}
330
29
100
AcDbVisualStyle
  2
Sketchy
 70
    24
177
     3
291
     0
 70
    58
 90
        1
176
     1
 90
        2
176
     1
 90
        2
176
     1
 90
        0
176
     1
 40
0.6
176
     1
 40
30.0
176
     1
 62
     7
420
 16777215
176
     1
 90
        2
176
     1
 90
        2
176
     1
 62
     7
176
     1
 62
     7
176
     1
 90
        1
176
     1
 90
        1
176
     1
 40
40.0
176
     1
 90
       11
176
     1
 62
     7
176
     1
 40
1.0
176
     1
 90
        1
176
     1
 90
        6
176
     1
 90
        2
176
     1
 62
     7
176
     1
 90
        6
176
     1
 90
        0
176
     1
 90
        0
176
     1
290
     0
176
     1
 90
        1
176
     1
 40
0.0
176
     1
 90
        0
176
     1
290
     0
176
     1
290
     1
176
     1
290
     1
176
     1
290
     0
176
     1
290
     0
176
     1
290
     0
176
     1
290
     0
176
     1
290
     0
176
     1
290
     0
176
     1
 90
       50
176
     1
 40
0.0
176
     1
 40
1.0
176
     1
 90
        0
176
     1
 62
    18
420
        0
176
     1
 90
       50
176
     1
 90
        3
176
     1
 62
     5
420
      255
176
     1
290
     0
176
     1
 90
       50
176
     1
 90
       50
176
     1
 90
       50
176
     1
290
     0
176
     1
 90
       50
176
     1
 62
   256
176
     0
 40
1.0
176
     0
 90
        2
176
     1
  1
strokes_ogs.tif
176
     1
290
     0
176
     1
 40
1.0
176
     1
 40
1.0
176
     1
1001
ACAD
1000
AcDbSavedByObjectVersion
1070
     0
  0
VISUALSTYLE
  5
36
102
{ACAD_REACTORS
330
29
102
}
330
29
100
AcDbVisualStyle
  2
Thicken
 70
    13
177
     3
291
     1
 70
    58
 90
        2
176
     1
 90
        2
176
     1
 90
        0
176
     1
 90
        0
176
     1
 40
0.6
176
     1
 40
30.0
176
     1
 62
     7
420
 16777215
176
     1
 90
        1
176
     1
 90
        4
176
     1
 62
     7
176
     1
 62
   257
176
     1
 90
        1
176
     1
 90
        1
176
     1
 40
1.0
176
     1
 90
       12
176
     1
 62
     7
176
     1
 40
1.0
176
     1
 90
        1
176
     1
 90
        6
176
     1
 90
        2
176
     1
 62
     7
176
     1
 90
        5
176
     1
 90
        0
176
     1
 90
        0
176
     1
290
     0
176
     1
 90
        1
176
     1
 40
0.0
176
     1
 90
        0
176
     1
290
     0
176
     1
290
     1
176
     1
290
     1
176
     1
290
     0
176
     1
290
     0
176
     1
290
     0
176
     1
290
     0
176
     1
290
     0
176
     1
290
     0
176
     1
 90
       50
176
     1
 40
0.0
176
     1
 40
1.0
176
     1
 90
        0
176
     1
 62
    18
420
        0
176
     1
 90
       50
176
     1
 90
        3
176
     1
 62
     5
420
      255
176
     1
290
     0
176
     1
 90
       50
176
     1
 90
       50
176
     1
 90
       50
176
     1
290
     0
176
     1
 90
       50
176
     1
 62
   256
176
     0
 40
1.0
176
     0
 90
        2
176
     1
  1
strokes_ogs.tif
176
     1
290
     0
176
     1
 40
1.0
176
     1
 40
1.0
176
     1
1001
ACAD
1000
AcDbSavedByObjectVersion
1070
     0
  0
VISUALSTYLE
  5
30
102
{ACAD_REACTORS
330
29
102
}
330
29
100
AcDbVisualStyle
  2
Wireframe
 70
     5
177
     3
291
     0
 70
    58
 90
        0
176
     1
 90
        2
176
     1
 90
        0
176
     1
 90
        0
176
     1
 40
0.6
176
     1
 40
30.0
176
     1
 62
     7
420
 16777215
176
     1
 90
        1
176
     1
 90
        4
176
     1
 62
     7
176
     1
 62
   257
176
     1
 90
        1
176
     1
 90
        1
176
     1
 40
1.0
176
     1
 90
        0
176
     1
 62
   257
176
     1
 40
1.0
176
     1
 90
        1
176
     1
 90
        6
176
     1
 90
        2
176
     1
 62
     7
176
     1
 90
        3
176
     1
 90
        0
176
     1
 90
        0
176
     1
290
     0
176
     1
 90
        1
176
     1
 40
0.0
176
     1
 90
        0
176
     1
290
     0
176
     1
290
     1
176
     1
290
     1
176
     1
290
     0
176
     1
290
     0
176
     1
290
     0
176
     1
290
     0
176
     1
290
     0
176
     1
290
     0
176
     1
 90
       50
176
     1
 40
0.0
176
     1
 40
1.0
176
     1
 90
        0
176
     1
 62
    18
420
        0
176
     1
 90
       50
176
     1
 90
        3
176
     1
 62
     5
420
      255
176
     1
290
     0
176
     1
 90
       50
176
     1
 90
       50
176
     1
 90
       50
176
     1
290
     0
176
     1
 90
       50
176
     1
 62
   256
176
     0
 40
1.0
176
     0
 90
        2
176
     1
  1
strokes_ogs.tif
176
     1
290
     0
176
     1
 40
1.0
176
     1
 40
1.0
176
     1
1001
ACAD
1000
AcDbSavedByObjectVersion
1070
     0
  0
VISUALSTYLE
  5
3C
102
{ACAD_REACTORS
330
29
102
}
330
29
100
AcDbVisualStyle
  2
X-Ray
 70
    25
177
     3
291
     0
 70
    58
 90
        2
176
     1
 90
        2
176
     1
 90
        1
176
     1
 90
        1
176
     1
 40
0.5
176
     1
 40
30.0
176
     1
 62
     7
420
 16777215
176
     1
 90
        1
176
     1
 90
        0
176
     1
 62
     7
176
     1
 62
   257
176
     1
 90
        1
176
     1
 90
        1
176
     1
 40
1.0
176
     1
 90
        8
176
     1
 62
     7
176
     1
 40
1.0
176
     1
 90
        1
176
     1
 90
        6
176
     1
 90
        2
176
     1
 62
     7
176
     1
 90
        3
176
     1
 90
        0
176
     1
 90
        0
176
     1
290
     0
176
     1
 90
       13
176
     1
 40
0.0
176
     1
 90
        0
176
     1
290
     0
176
     1
290
     1
176
     1
290
     1
176
     1
290
     0
176
     1
290
     0
176
     1
290
     0
176
     1
290
     0
176
     1
290
     0
176
     1
290
     0
176
     1
 90
       50
176
     1
 40
0.0
176
     1
 40
1.0
176
     1
 90
        0
176
     1
 62
    18
420
        0
176
     1
 90
       50
176
     1
 90
        3
176
     1
 62
     5
420
      255
176
     1
290
     0
176
     1
 90
       50
176
     1
 90
       50
176
     1
 90
       50
176
     1
290
     0
176
     1
 90
       50
176
     1
 62
   256
176
     0
 40
1.0
176
     0
 90
        2
176
     1
  1
strokes_ogs.tif
176
     1
290
     0
176
     1
 40
1.0
176
     1
 40
1.0
176
     1
1001
ACAD
1000
AcDbSavedByObjectVersion
1070
     0
  0
DICTIONARYVAR
  5
87
102
{ACAD_REACTORS
330
82
102
}
330
82
100
DictionaryVariables
280
     0
  1
1:1
  0
DICTIONARYVAR
  5
84
102
{ACAD_REACTORS
330
82
102
}
330
82
100
DictionaryVariables
280
     0
  1
STANDARD
  0
DICTIONARYVAR
  5
83
102
{ACAD_REACTORS
330
82
102
}
330
82
100
DictionaryVariables
280
     0
  1
STANDARD
  0
DICTIONARYVAR
  5
85
102
{ACAD_REACTORS
330
82
102
}
330
82
100
DictionaryVariables
280
     0
  1
Imperial24
  0
DICTIONARYVAR
  5
86
102
{ACAD_REACTORS
330
82
102
}
330
82
100
DictionaryVariables
280
     0
  1
Imperial24
  0
DICTIONARY
  5
8D
330
6B
100
AcDbDictionary
280
     1
281
     1
  3
ACAD_XREC_ROUNDTRIP
360
8E
  0
DICTIONARY
  5
1A
330
19
100
AcDbDictionary
280
     1
281
     1
  3
BUMPTILE
360
1C
  3
DIFFUSETILE
360
1B
  3
OPACITYTILE
360
1F
  3
REFLECTIONTILE
360
1E
  3
REFRACTIONTILE
360
20
  3
SPECULARTILE
360
1D
  0
DICTIONARY
  5
12
330
11
100
AcDbDictionary
280
     1
281
     1
  3
BUMPTILE
360
14
  3
DIFFUSETILE
360
13
  3
OPACITYTILE
360
17
  3
REFLECTIONTILE
360
16
  3
REFRACTIONTILE
360
18
  3
SPECULARTILE
360
15
  0
DICTIONARY
  5
22
330
21
100
AcDbDictionary
280
     1
281
     1
  3
BUMPTILE
360
24
  3
DIFFUSETILE
360
23
  3
OPACITYTILE
360
27
  3
REFLECTIONTILE
360
26
  3
REFRACTIONTILE
360
28
  3
SPECULARTILE
360
25
  0
DICTIONARY
  5
8B
330
69
100
AcDbDictionary
280
     1
281
     1
  3
ACAD_XREC_ROUNDTRIP
360
8C
  0
DICTIONARY
  5
88
330
65
100
AcDbDictionary
280
     1
281
     1
  3
ACAD_ROUNDTRIP_2008_TABLESTYLE_CELLSTYLEMAP
360
89
  0
XRECORD
  5
8E
102
{ACAD_REACTORS
330
8D
102
}
330
8D
100
AcDbXrecord
280
     1
102
DISPLAYNAME
  1
Imperial24
102
FLAGS
 90
        0
  0
XRECORD
  5
1C
102
{ACAD_REACTORS
330
1A
102
}
330
1A
100
AcDbXrecord
280
     1
270
     1
271
     1
  0
XRECORD
  5
1B
102
{ACAD_REACTORS
330
1A
102
}
330
1A
100
AcDbXrecord
280
     1
270
     1
271
     1
  0
XRECORD
  5
1F
102
{ACAD_REACTORS
330
1A
102
}
330
1A
100
AcDbXrecord
280
     1
270
     1
271
     1
  0
XRECORD
  5
1E
102
{ACAD_REACTORS
330
1A
102
}
330
1A
100
AcDbXrecord
280
     1
270
     1
271
     1
  0
XRECORD
  5
20
102
{ACAD_REACTORS
330
1A
102
}
330
1A
100
AcDbXrecord
280
     1
270
     1
271
     1
  0
XRECORD
  5
1D
102
{ACAD_REACTORS
330
1A
102
}
330
1A
100
AcDbXrecord
280
     1
270
     1
271
     1
  0
XRECORD
  5
14
102
{ACAD_REACTORS
330
12
102
}
330
12
100
AcDbXrecord
280
     1
270
     1
271
     1
  0
XRECORD
  5
13
102
{ACAD_REACTORS
330
12
102
}
330
12
100
AcDbXrecord
280
     1
270
     1
271
     1
  0
XRECORD
  5
17
102
{ACAD_REACTORS
330
12
102
}
330
12
100
AcDbXrecord
280
     1
270
     1
271
     1
  0
XRECORD
  5
16
102
{ACAD_REACTORS
330
12
102
}
330
12
100
AcDbXrecord
280
     1
270
     1
271
     1
  0
XRECORD
  5
18
102
{ACAD_REACTORS
330
12
102
}
330
12
100
AcDbXrecord
280
     1
270
     1
271
     1
  0
XRECORD
  5
15
102
{ACAD_REACTORS
330
12
102
}
330
12
100
AcDbXrecord
280
     1
270
     1
271
     1
  0
XRECORD
  5
24
102
{ACAD_REACTORS
330
22
102
}
330
22
100
AcDbXrecord
280
     1
270
     1
271
     1
  0
XRECORD
  5
23
102
{ACAD_REACTORS
330
22
102
}
330
22
100
AcDbXrecord
280
     1
270
     1
271
     1
  0
XRECORD
  5
27
102
{ACAD_REACTORS
330
22
102
}
330
22
100
AcDbXrecord
280
     1
270
     1
271
     1
  0
XRECORD
  5
26
102
{ACAD_REACTORS
330
22
102
}
330
22
100
AcDbXrecord
280
     1
270
     1
271
     1
  0
XRECORD
  5
28
102
{ACAD_REACTORS
330
22
102
}
330
22
100
AcDbXrecord
280
     1
270
     1
271
     1
  0
XRECORD
  5
25
102
{ACAD_REACTORS
330
22
102
}
330
22
100
AcDbXrecord
280
     1
270
     1
271
     1
  0
XRECORD
  5
8C
102
{ACAD_REACTORS
330
8B
102
}
330
8B
100
AcDbXrecord
280
     1
102
DISPLAYNAME
  1
Imperial24
102
FLAGS
 90
        0
  0
CELLSTYLEMAP
  5
89
102
{ACAD_REACTORS
330
88
102
}
330
88
100
AcDbCellStyleMap
 90
        3
300
CELLSTYLE
  1
TABLEFORMAT_BEGIN
 90
        5
170
     1
 91
        0
 92
    32768
 62
   257
 93
        1
300
CONTENTFORMAT
  1
CONTENTFORMAT_BEGIN
 90
        0
 91
        0
 92
      512
 93
        0
300

 40
0.0
140
1.0
 94
        5
 62
     0
340
55
144
0.25
309
CONTENTFORMAT_END
171
     0
 94
        0
309
TABLEFORMAT_END
  1
CELLSTYLE_BEGIN
 90
        1
 91
        1
300
_TITLE
309
CELLSTYLE_END
300
CELLSTYLE
  1
TABLEFORMAT_BEGIN
 90
        5
170
     1
 91
        0
 92
        0
 62
   257
 93
        1
300
CONTENTFORMAT
  1
CONTENTFORMAT_BEGIN
 90
        0
 91
        0
 92
      512
 93
        0
300

 40
0.0
140
1.0
 94
        5
 62
     0
340
55
144
0.18
309
CONTENTFORMAT_END
171
     0
 94
        0
309
TABLEFORMAT_END
  1
CELLSTYLE_BEGIN
 90
        2
 91
        1
300
_HEADER
309
CELLSTYLE_END
300
CELLSTYLE
  1
TABLEFORMAT_BEGIN
 90
        5
170
     1
 91
        0
 92
        0
 62
   257
 93
        1
300
CONTENTFORMAT
  1
CONTENTFORMAT_BEGIN
 90
        0
 91
        0
 92
      512
 93
        0
300

 40
0.0
140
1.0
 94
        2
 62
     0
340
55
144
0.18
309
CONTENTFORMAT_END
171
     0
 94
        0
309
TABLEFORMAT_END
  1
CELLSTYLE_BEGIN
 90
        3
 91
        2
300
_DATA
309
CELLSTYLE_END
  0
ENDSEC
  0
EOF
